M48
; DRILL file {KiCad (5.1.5-0-10_14)} date 2020 April 18, Saturday 19:56:32
; FORMAT={-:-/ absolute / metric / decimal}
; #@! TF.CreationDate,2020-04-18T19:56:32+09:00
; #@! TF.GenerationSoftware,Kicad,Pcbnew,(5.1.5-0-10_14)
FMAT,2
METRIC
T1C0.400
T2C0.813
T3C1.000
T4C1.092
T5C1.300
T6C1.500
T7C2.200
T8C3.000
T9C1.200
T10C1.700
T11C1.750
T12C3.048
T13C3.988
T14C4.000
%
G90
G05
T1
X52.705Y-80.518
X57.023Y-141.605
X59.817Y-75.946
X61.468Y-74.228
X67.945Y-91.313
X69.157Y-117.787
X69.85Y-155.829
X74.486Y-74.231
X75.565Y-98.933
X77.47Y-78.867
X77.47Y-82.296
X91.948Y-53.721
X92.202Y-69.977
X92.202Y-74.676
X92.202Y-112.014
X93.472Y-69.977
X94.361Y-68.326
X98.298Y-72.39
X111.125Y-85.852
X112.522Y-64.262
X134.62Y-86.614
X150.622Y-82.105
X150.622Y-86.868
X156.718Y-54.229
X158.052Y-54.229
X169.672Y-90.361
X169.672Y-108.585
X186.309Y-107.442
X187.492Y-103.796
X190.5Y-96.52
X105.41Y-134.611
X105.41Y-136.534
X121.92Y-132.07
X121.92Y-133.994
X74.454Y-103.654
X74.454Y-105.578
X90.964Y-101.114
X90.964Y-103.038
X150.654Y-115.56
X150.654Y-117.484
X167.164Y-113.02
X167.164Y-114.944
X57.88Y-157.255
X58.28Y-159.137
X73.501Y-151.338
X73.901Y-153.22
X150.654Y-58.41
X150.654Y-60.334
X167.164Y-55.87
X167.164Y-57.794
X74.454Y-84.604
X74.454Y-86.528
X90.964Y-82.064
X90.964Y-83.988
X151.924Y-142.231
X151.924Y-144.154
X168.434Y-139.69
X168.434Y-141.614
X169.704Y-96.51
X169.704Y-98.434
X186.214Y-93.971
X186.214Y-95.894
X48.26Y-107.226
X48.26Y-109.15
X64.77Y-104.686
X64.77Y-106.61
X162.56Y-134.611
X162.56Y-136.534
X179.07Y-132.07
X179.07Y-133.994
X68.651Y-147.175
X69.051Y-149.057
X84.272Y-141.258
X84.672Y-143.14
X112.554Y-72.698
X112.554Y-74.622
X129.064Y-70.158
X129.064Y-72.082
X131.604Y-56.029
X131.604Y-57.953
X148.114Y-53.489
X148.114Y-55.413
X41.657Y-91.821
X42.14Y-90.654
X42.14Y-92.988
X43.307Y-90.171
X43.307Y-93.471
X44.474Y-90.654
X44.474Y-92.988
X44.957Y-91.821
X74.454Y-65.554
X74.454Y-67.478
X90.964Y-63.014
X90.964Y-64.938
X74.454Y-122.704
X74.454Y-124.628
X90.964Y-120.164
X90.964Y-122.088
X112.554Y-110.798
X112.554Y-112.722
X129.064Y-108.258
X129.064Y-110.182
X150.654Y-77.46
X150.654Y-79.385
X167.164Y-74.92
X167.164Y-76.844
X173.355Y-142.231
X173.355Y-144.154
X189.865Y-139.69
X189.865Y-141.614
X169.704Y-115.56
X169.704Y-117.484
X186.214Y-113.02
X186.214Y-114.944
X93.504Y-75.079
X93.504Y-77.003
X110.014Y-72.539
X110.014Y-74.463
X131.604Y-94.129
X131.604Y-96.053
X148.114Y-91.589
X148.114Y-93.513
X131.604Y-113.179
X131.604Y-115.103
X148.114Y-110.639
X148.114Y-112.563
X112.554Y-53.648
X112.554Y-55.572
X129.064Y-51.108
X129.064Y-53.032
X169.704Y-58.41
X169.704Y-60.334
X186.214Y-55.87
X186.214Y-57.794
X124.461Y-144.399
X124.944Y-143.232
X124.944Y-145.566
X126.111Y-142.749
X126.111Y-146.049
X127.278Y-143.232
X127.278Y-145.566
X127.761Y-144.399
X150.654Y-96.51
X150.654Y-98.434
X167.164Y-93.971
X167.164Y-95.894
X131.604Y-75.079
X131.604Y-77.003
X148.114Y-72.539
X148.114Y-74.463
X83.509Y-151.846
X83.909Y-153.728
X99.13Y-145.929
X99.53Y-147.811
X50.641Y-126.276
X50.641Y-128.2
X67.151Y-123.736
X67.151Y-125.66
X129.222Y-134.611
X129.222Y-136.534
X145.732Y-132.07
X145.732Y-133.994
X169.704Y-77.46
X169.704Y-79.385
X186.214Y-74.92
X186.214Y-76.844
X36.354Y-69.126
X36.354Y-71.05
X52.864Y-66.586
X52.864Y-68.51
X50.641Y-88.176
X50.641Y-90.1
X67.151Y-85.636
X67.151Y-87.56
X112.554Y-91.748
X112.554Y-93.672
X129.064Y-89.208
X129.064Y-91.132
X187.961Y-119.126
X188.444Y-117.959
X188.444Y-120.293
X189.611Y-117.476
X189.611Y-120.776
X190.778Y-117.959
X190.778Y-120.293
X191.261Y-119.126
X93.504Y-94.129
X93.504Y-96.053
X110.014Y-91.589
X110.014Y-93.513
X142.812Y-42.545
X143.296Y-41.378
X143.296Y-43.712
X144.463Y-40.895
X144.463Y-44.195
X145.629Y-41.378
X145.629Y-43.712
X146.112Y-42.545
X93.504Y-113.179
X93.504Y-115.103
X110.014Y-110.639
X110.014Y-112.563
X93.504Y-56.029
X93.504Y-57.953
X110.014Y-53.489
X110.014Y-55.413
T2
X79.756Y-79.819
X87.376Y-79.819
X136.398Y-108.458
X144.018Y-108.458
X60.579Y-61.801
X68.199Y-61.801
X83.566Y-60.706
X91.186Y-60.706
X60.579Y-64.341
X68.199Y-64.341
X170.053Y-129.921
X177.673Y-129.921
X131.318Y-51.308
X138.938Y-51.308
X53.423Y-145.572
X60.877Y-143.988
X83.566Y-58.293
X91.186Y-58.293
X93.599Y-51.308
X101.219Y-51.308
X169.291Y-51.181
X176.911Y-51.181
X133.858Y-129.794
X141.478Y-129.794
X112.903Y-48.895
X120.523Y-48.895
X174.498Y-72.898
X182.118Y-72.898
X46.609Y-83.566
X54.229Y-83.566
X103.378Y-51.308
X110.998Y-51.308
X73.464Y-141.254
X80.917Y-139.67
X136.398Y-89.408
X144.018Y-89.408
X45.212Y-64.341
X52.832Y-64.341
X174.498Y-110.744
X182.118Y-110.744
X117.348Y-105.918
X124.968Y-105.918
X110.236Y-129.794
X117.856Y-129.794
X169.291Y-53.721
X176.911Y-53.721
X79.248Y-117.919
X86.868Y-117.919
X159.512Y-53.467
X167.132Y-53.467
X55.372Y-121.555
X62.992Y-121.555
X136.398Y-70.358
X144.018Y-70.358
X174.498Y-91.694
X182.118Y-91.694
X117.348Y-86.868
X124.968Y-86.868
X98.298Y-108.363
X105.918Y-108.363
X155.448Y-110.744
X163.068Y-110.744
X53.086Y-102.505
X60.706Y-102.505
X141.097Y-51.308
X148.717Y-51.308
X46.196Y-61.912
X53.816Y-61.912
X117.348Y-68.072
X124.968Y-68.072
X98.298Y-89.313
X105.918Y-89.313
X155.448Y-91.694
X163.068Y-91.694
X79.248Y-98.87
X86.868Y-98.87
X147.447Y-129.794
X155.067Y-129.794
X159.512Y-51.117
X167.132Y-51.117
X122.555Y-48.895
X130.175Y-48.895
X98.298Y-70.263
X105.918Y-70.263
X155.448Y-72.644
X163.068Y-72.644
T3
X172.025Y-36.87
X172.553Y-39.354
X173.081Y-41.839
X173.609Y-44.323
X174.509Y-36.341
X175.037Y-38.826
X175.565Y-41.31
X176.093Y-43.795
T4
X56.693Y-53.896
X56.693Y-56.436
X56.693Y-58.976
X56.693Y-61.516
X56.693Y-64.056
X56.693Y-66.596
X56.693Y-69.136
X56.693Y-71.676
X56.693Y-74.216
X56.693Y-76.756
X56.693Y-79.296
X56.693Y-81.836
X71.933Y-53.896
X71.933Y-56.436
X71.933Y-58.976
X71.933Y-61.516
X71.933Y-64.056
X71.933Y-66.596
X71.933Y-69.136
X71.933Y-71.676
X71.933Y-74.216
X71.933Y-76.756
X71.933Y-79.296
X71.933Y-81.836
T5
X76.073Y-51.233
X76.073Y-57.733
T6
X60.484Y-70.088
X66.834Y-67.548
T7
X126.111Y-144.399
X189.611Y-119.126
X144.463Y-42.545
X43.307Y-91.821
T8
X136.684Y-95.091
X143.034Y-92.551
X136.684Y-114.141
X143.034Y-111.601
X117.634Y-54.61
X123.984Y-52.07
X174.784Y-59.372
X181.134Y-56.832
X155.734Y-97.472
X162.084Y-94.932
X136.684Y-76.041
X143.034Y-73.501
X88.678Y-151.731
X94.361Y-147.927
X55.721Y-127.238
X62.071Y-124.698
X134.302Y-135.572
X140.653Y-133.032
X174.784Y-78.422
X181.134Y-75.882
X41.434Y-70.088
X47.784Y-67.548
X55.721Y-89.138
X62.071Y-86.598
X117.634Y-92.71
X123.984Y-90.17
X98.584Y-95.091
X104.934Y-92.551
X98.584Y-114.141
X104.934Y-111.601
X98.584Y-56.991
X104.934Y-54.451
X110.49Y-135.572
X116.84Y-133.032
X79.534Y-104.616
X85.884Y-102.076
X155.734Y-116.522
X162.084Y-113.983
X63.049Y-157.14
X68.732Y-153.335
X155.734Y-59.372
X162.084Y-56.832
X79.534Y-85.566
X85.884Y-83.026
X157.004Y-143.192
X163.354Y-140.653
X174.784Y-97.472
X181.134Y-94.932
X53.34Y-108.188
X59.69Y-105.648
X167.64Y-135.572
X173.99Y-133.032
X73.82Y-147.06
X79.503Y-143.256
X117.634Y-73.66
X123.984Y-71.12
X136.684Y-56.991
X143.034Y-54.451
X79.534Y-66.516
X85.884Y-63.976
X79.534Y-123.666
X85.884Y-121.126
X117.634Y-111.76
X123.984Y-109.22
X155.734Y-78.422
X162.084Y-75.882
X178.435Y-143.192
X184.785Y-140.653
X174.784Y-116.522
X181.134Y-113.983
X98.584Y-76.041
X104.934Y-73.501
T9
X152.971Y-41.314
X152.971Y-48.314
T10
X59.214Y-72.628
X69.374Y-72.628
T11
X52.07Y-110.728
X62.23Y-110.728
X166.37Y-138.112
X176.53Y-138.112
X73.106Y-149.809
X83.044Y-147.696
X116.364Y-76.2
X126.524Y-76.2
X135.414Y-59.531
X145.574Y-59.531
X78.264Y-69.056
X88.424Y-69.056
X78.264Y-126.206
X88.424Y-126.206
X116.364Y-114.3
X126.524Y-114.3
X154.464Y-80.962
X164.624Y-80.962
X175.895Y-138.112
X186.055Y-138.112
X173.514Y-119.062
X183.674Y-119.062
X97.314Y-78.581
X107.474Y-78.581
X135.414Y-97.631
X145.574Y-97.631
X135.414Y-116.681
X145.574Y-116.681
X116.364Y-57.15
X126.524Y-57.15
X173.514Y-61.912
X183.674Y-61.912
X154.464Y-100.012
X164.624Y-100.012
X135.414Y-78.581
X145.574Y-78.581
X85.137Y-147.29
X95.075Y-145.178
X54.451Y-129.778
X64.611Y-129.778
X133.032Y-138.112
X143.192Y-138.112
X173.514Y-80.962
X183.674Y-80.962
X40.164Y-72.628
X50.324Y-72.628
X54.451Y-91.678
X64.611Y-91.678
X116.364Y-95.25
X126.524Y-95.25
X97.314Y-97.631
X107.474Y-97.631
X97.314Y-116.681
X107.474Y-116.681
X97.314Y-59.531
X107.474Y-59.531
X109.22Y-138.112
X119.38Y-138.112
X78.264Y-107.156
X88.424Y-107.156
X154.464Y-119.062
X164.624Y-119.062
X59.508Y-152.699
X69.446Y-150.587
X154.464Y-61.912
X164.624Y-61.912
X78.264Y-88.106
X88.424Y-88.106
X154.464Y-138.112
X164.624Y-138.112
X173.514Y-100.012
X183.674Y-100.012
T12
X67.85Y-158.067
X91.204Y-153.103
X159.512Y-145.097
X183.388Y-145.097
T13
X159.544Y-100.012
X64.681Y-143.16
X88.035Y-138.196
X140.494Y-78.581
X90.106Y-146.234
X59.531Y-129.778
X138.112Y-138.112
X178.594Y-80.962
X45.244Y-72.628
X59.531Y-91.678
X121.444Y-95.25
X102.394Y-97.631
X102.394Y-116.681
X102.394Y-59.531
X114.3Y-138.112
X83.344Y-107.156
X159.544Y-119.062
X64.477Y-151.643
X159.544Y-61.912
X159.512Y-129.857
X183.388Y-129.857
X83.344Y-88.106
X159.544Y-138.112
X178.594Y-100.012
X57.15Y-110.728
X171.45Y-138.112
X78.075Y-148.753
X121.444Y-76.2
X140.494Y-59.531
X83.344Y-69.056
X83.344Y-126.206
X121.444Y-114.3
X159.544Y-80.962
X180.975Y-138.112
X178.594Y-119.062
X102.394Y-78.581
X140.494Y-97.631
X140.494Y-116.681
X121.444Y-57.15
X178.594Y-61.912
T14
X64.294Y-72.628
T3
G00X150.871Y-43.364
M15
G01X150.871Y-42.864
M16
G05
G00X150.871Y-46.364
M15
G01X150.871Y-45.864
M16
G05
G00X150.871Y-50.364
M15
G01X150.871Y-49.864
M16
G05
G00X155.071Y-51.864
M15
G01X155.071Y-51.364
M16
G05
T0
M30
