G04 #@! TF.GenerationSoftware,KiCad,Pcbnew,(5.1.5-0-10_14)*
G04 #@! TF.CreationDate,2020-04-18T19:56:34+09:00*
G04 #@! TF.ProjectId,Colice,436f6c69-6365-42e6-9b69-6361645f7063,rev?*
G04 #@! TF.SameCoordinates,Original*
G04 #@! TF.FileFunction,Legend,Top*
G04 #@! TF.FilePolarity,Positive*
%FSLAX46Y46*%
G04 Gerber Fmt 4.6, Leading zero omitted, Abs format (unit mm)*
G04 Created by KiCad (PCBNEW (5.1.5-0-10_14)) date 2020-04-18 19:56:34*
%MOMM*%
%LPD*%
G04 APERTURE LIST*
%ADD10C,0.300000*%
%ADD11C,0.150000*%
%ADD12C,0.381000*%
%ADD13C,0.120000*%
G04 APERTURE END LIST*
D10*
X129569714Y-142802571D02*
X130641142Y-142802571D01*
X129998285Y-142159714D02*
X129569714Y-144088285D01*
X130498285Y-143445428D02*
X129426857Y-143445428D01*
X130069714Y-144088285D02*
X130498285Y-142159714D01*
X131998285Y-143659714D02*
X131926857Y-143731142D01*
X131712571Y-143802571D01*
X131569714Y-143802571D01*
X131355428Y-143731142D01*
X131212571Y-143588285D01*
X131141142Y-143445428D01*
X131069714Y-143159714D01*
X131069714Y-142945428D01*
X131141142Y-142659714D01*
X131212571Y-142516857D01*
X131355428Y-142374000D01*
X131569714Y-142302571D01*
X131712571Y-142302571D01*
X131926857Y-142374000D01*
X131998285Y-142445428D01*
X132855428Y-143802571D02*
X132712571Y-143731142D01*
X132641142Y-143659714D01*
X132569714Y-143516857D01*
X132569714Y-143088285D01*
X132641142Y-142945428D01*
X132712571Y-142874000D01*
X132855428Y-142802571D01*
X133069714Y-142802571D01*
X133212571Y-142874000D01*
X133284000Y-142945428D01*
X133355428Y-143088285D01*
X133355428Y-143516857D01*
X133284000Y-143659714D01*
X133212571Y-143731142D01*
X133069714Y-143802571D01*
X132855428Y-143802571D01*
X134212571Y-143802571D02*
X134069714Y-143731142D01*
X133998285Y-143588285D01*
X133998285Y-142302571D01*
X134784000Y-143802571D02*
X134784000Y-142802571D01*
X134784000Y-142302571D02*
X134712571Y-142374000D01*
X134784000Y-142445428D01*
X134855428Y-142374000D01*
X134784000Y-142302571D01*
X134784000Y-142445428D01*
X136141142Y-143731142D02*
X135998285Y-143802571D01*
X135712571Y-143802571D01*
X135569714Y-143731142D01*
X135498285Y-143659714D01*
X135426857Y-143516857D01*
X135426857Y-143088285D01*
X135498285Y-142945428D01*
X135569714Y-142874000D01*
X135712571Y-142802571D01*
X135998285Y-142802571D01*
X136141142Y-142874000D01*
X137355428Y-143731142D02*
X137212571Y-143802571D01*
X136926857Y-143802571D01*
X136784000Y-143731142D01*
X136712571Y-143588285D01*
X136712571Y-143016857D01*
X136784000Y-142874000D01*
X136926857Y-142802571D01*
X137212571Y-142802571D01*
X137355428Y-142874000D01*
X137426857Y-143016857D01*
X137426857Y-143159714D01*
X136712571Y-143302571D01*
X140141142Y-143088285D02*
X140069714Y-143016857D01*
X139926857Y-142945428D01*
X139784000Y-142945428D01*
X139641142Y-143016857D01*
X139569714Y-143088285D01*
X139498285Y-143231142D01*
X139498285Y-143374000D01*
X139569714Y-143516857D01*
X139641142Y-143588285D01*
X139784000Y-143659714D01*
X139926857Y-143659714D01*
X140069714Y-143588285D01*
X140141142Y-143516857D01*
X140141142Y-142945428D02*
X140141142Y-143516857D01*
X140212571Y-143588285D01*
X140284000Y-143588285D01*
X140426857Y-143516857D01*
X140498285Y-143374000D01*
X140498285Y-143016857D01*
X140355428Y-142802571D01*
X140141142Y-142659714D01*
X139855428Y-142588285D01*
X139569714Y-142659714D01*
X139355428Y-142802571D01*
X139212571Y-143016857D01*
X139141142Y-143302571D01*
X139212571Y-143588285D01*
X139355428Y-143802571D01*
X139569714Y-143945428D01*
X139855428Y-144016857D01*
X140141142Y-143945428D01*
X140355428Y-143802571D01*
X141141142Y-142802571D02*
X141141142Y-144088285D01*
X141069714Y-144231142D01*
X140926857Y-144302571D01*
X140855428Y-144302571D01*
X141141142Y-142302571D02*
X141069714Y-142374000D01*
X141141142Y-142445428D01*
X141212571Y-142374000D01*
X141141142Y-142302571D01*
X141141142Y-142445428D01*
X141855428Y-142802571D02*
X141855428Y-144302571D01*
X141855428Y-142874000D02*
X141998285Y-142802571D01*
X142284000Y-142802571D01*
X142426857Y-142874000D01*
X142498285Y-142945428D01*
X142569714Y-143088285D01*
X142569714Y-143516857D01*
X142498285Y-143659714D01*
X142426857Y-143731142D01*
X142284000Y-143802571D01*
X141998285Y-143802571D01*
X141855428Y-143731142D01*
X143141142Y-143731142D02*
X143284000Y-143802571D01*
X143569714Y-143802571D01*
X143712571Y-143731142D01*
X143784000Y-143588285D01*
X143784000Y-143516857D01*
X143712571Y-143374000D01*
X143569714Y-143302571D01*
X143355428Y-143302571D01*
X143212571Y-143231142D01*
X143141142Y-143088285D01*
X143141142Y-143016857D01*
X143212571Y-142874000D01*
X143355428Y-142802571D01*
X143569714Y-142802571D01*
X143712571Y-142874000D01*
X144426857Y-143802571D02*
X144426857Y-142302571D01*
X144569714Y-143231142D02*
X144998285Y-143802571D01*
X144998285Y-142802571D02*
X144426857Y-143374000D01*
X146212571Y-143731142D02*
X146069714Y-143802571D01*
X145784000Y-143802571D01*
X145641142Y-143731142D01*
X145569714Y-143588285D01*
X145569714Y-143016857D01*
X145641142Y-142874000D01*
X145784000Y-142802571D01*
X146069714Y-142802571D01*
X146212571Y-142874000D01*
X146284000Y-143016857D01*
X146284000Y-143159714D01*
X145569714Y-143302571D01*
X146926857Y-142802571D02*
X146926857Y-143802571D01*
X146926857Y-142945428D02*
X146998285Y-142874000D01*
X147141142Y-142802571D01*
X147355428Y-142802571D01*
X147498285Y-142874000D01*
X147569714Y-143016857D01*
X147569714Y-143802571D01*
X148284000Y-142802571D02*
X148284000Y-143802571D01*
X148284000Y-142945428D02*
X148355428Y-142874000D01*
X148498285Y-142802571D01*
X148712571Y-142802571D01*
X148855428Y-142874000D01*
X148926857Y-143016857D01*
X148926857Y-143802571D01*
X139569714Y-146352571D02*
X138855428Y-146352571D01*
X138855428Y-144852571D01*
X140641142Y-146281142D02*
X140498285Y-146352571D01*
X140212571Y-146352571D01*
X140069714Y-146281142D01*
X139998285Y-146138285D01*
X139998285Y-145566857D01*
X140069714Y-145424000D01*
X140212571Y-145352571D01*
X140498285Y-145352571D01*
X140641142Y-145424000D01*
X140712571Y-145566857D01*
X140712571Y-145709714D01*
X139998285Y-145852571D01*
X141141142Y-145352571D02*
X141712571Y-145352571D01*
X141355428Y-146352571D02*
X141355428Y-145066857D01*
X141426857Y-144924000D01*
X141569714Y-144852571D01*
X141712571Y-144852571D01*
X141998285Y-145352571D02*
X142569714Y-145352571D01*
X142212571Y-144852571D02*
X142212571Y-146138285D01*
X142284000Y-146281142D01*
X142426857Y-146352571D01*
X142569714Y-146352571D01*
X144069714Y-145352571D02*
X144426857Y-146352571D01*
X144784000Y-145352571D01*
X145355428Y-146209714D02*
X145426857Y-146281142D01*
X145355428Y-146352571D01*
X145284000Y-146281142D01*
X145355428Y-146209714D01*
X145355428Y-146352571D01*
X146355428Y-144852571D02*
X146498285Y-144852571D01*
X146641142Y-144924000D01*
X146712571Y-144995428D01*
X146784000Y-145138285D01*
X146855428Y-145424000D01*
X146855428Y-145781142D01*
X146784000Y-146066857D01*
X146712571Y-146209714D01*
X146641142Y-146281142D01*
X146498285Y-146352571D01*
X146355428Y-146352571D01*
X146212571Y-146281142D01*
X146141142Y-146209714D01*
X146069714Y-146066857D01*
X145998285Y-145781142D01*
X145998285Y-145424000D01*
X146069714Y-145138285D01*
X146141142Y-144995428D01*
X146212571Y-144924000D01*
X146355428Y-144852571D01*
X147498285Y-146209714D02*
X147569714Y-146281142D01*
X147498285Y-146352571D01*
X147426857Y-146281142D01*
X147498285Y-146209714D01*
X147498285Y-146352571D01*
X148998285Y-146352571D02*
X148141142Y-146352571D01*
X148569714Y-146352571D02*
X148569714Y-144852571D01*
X148426857Y-145066857D01*
X148284000Y-145209714D01*
X148141142Y-145281142D01*
D11*
X162922000Y-51117500D02*
X163822000Y-50617500D01*
X163822000Y-50617500D02*
X163822000Y-51617500D01*
X163822000Y-51617500D02*
X162922000Y-51117500D01*
X162822000Y-50617500D02*
X162822000Y-51617500D01*
X166022000Y-50367500D02*
X160622000Y-50367500D01*
X160622000Y-50367500D02*
X160622000Y-51867500D01*
X160622000Y-51867500D02*
X166022000Y-51867500D01*
X166022000Y-51867500D02*
X166022000Y-50367500D01*
D12*
X55422800Y-52625625D02*
X55422800Y-83105625D01*
X55422800Y-83105625D02*
X73202800Y-83105625D01*
X73202800Y-83105625D02*
X73202800Y-52625625D01*
X57962800Y-52625625D02*
X57962800Y-55165625D01*
X57962800Y-55165625D02*
X55422800Y-55165625D01*
D11*
G36*
X69244368Y-58504985D02*
G01*
X69244368Y-58804985D01*
X69144368Y-58804985D01*
X69144368Y-58504985D01*
X69244368Y-58504985D01*
G37*
X69244368Y-58504985D02*
X69244368Y-58804985D01*
X69144368Y-58804985D01*
X69144368Y-58504985D01*
X69244368Y-58504985D01*
G36*
X69044368Y-58904985D02*
G01*
X69044368Y-59004985D01*
X68944368Y-59004985D01*
X68944368Y-58904985D01*
X69044368Y-58904985D01*
G37*
X69044368Y-58904985D02*
X69044368Y-59004985D01*
X68944368Y-59004985D01*
X68944368Y-58904985D01*
X69044368Y-58904985D01*
G36*
X69244368Y-58504985D02*
G01*
X69244368Y-58604985D01*
X68744368Y-58604985D01*
X68744368Y-58504985D01*
X69244368Y-58504985D01*
G37*
X69244368Y-58504985D02*
X69244368Y-58604985D01*
X68744368Y-58604985D01*
X68744368Y-58504985D01*
X69244368Y-58504985D01*
G36*
X68844368Y-58504985D02*
G01*
X68844368Y-59304985D01*
X68744368Y-59304985D01*
X68744368Y-58504985D01*
X68844368Y-58504985D01*
G37*
X68844368Y-58504985D02*
X68844368Y-59304985D01*
X68744368Y-59304985D01*
X68744368Y-58504985D01*
X68844368Y-58504985D01*
G36*
X69244368Y-59104985D02*
G01*
X69244368Y-59304985D01*
X69144368Y-59304985D01*
X69144368Y-59104985D01*
X69244368Y-59104985D01*
G37*
X69244368Y-59104985D02*
X69244368Y-59304985D01*
X69144368Y-59304985D01*
X69144368Y-59104985D01*
X69244368Y-59104985D01*
D12*
X73202800Y-52625625D02*
X73202800Y-50085625D01*
X73202800Y-50085625D02*
X55422800Y-50085625D01*
X55422800Y-50085625D02*
X55422800Y-52625625D01*
X57962800Y-52625625D02*
X55422800Y-52625625D01*
D11*
X175801000Y-51931000D02*
X175801000Y-50431000D01*
X170401000Y-51931000D02*
X175801000Y-51931000D01*
X170401000Y-50431000D02*
X170401000Y-51931000D01*
X175801000Y-50431000D02*
X170401000Y-50431000D01*
X172601000Y-50681000D02*
X172601000Y-51681000D01*
X173601000Y-51681000D02*
X172701000Y-51181000D01*
X173601000Y-50681000D02*
X173601000Y-51681000D01*
X172701000Y-51181000D02*
X173601000Y-50681000D01*
X53119000Y-84316000D02*
X53119000Y-82816000D01*
X47719000Y-84316000D02*
X53119000Y-84316000D01*
X47719000Y-82816000D02*
X47719000Y-84316000D01*
X53119000Y-82816000D02*
X47719000Y-82816000D01*
X49919000Y-83066000D02*
X49919000Y-84066000D01*
X50919000Y-84066000D02*
X50019000Y-83566000D01*
X50919000Y-83066000D02*
X50919000Y-84066000D01*
X50019000Y-83566000D02*
X50919000Y-83066000D01*
X82488160Y-140658095D02*
X83466307Y-140450183D01*
X83466307Y-140450183D02*
X83674219Y-141428331D01*
X85398923Y-154352161D02*
X86377071Y-154144249D01*
X86377071Y-154144249D02*
X86169159Y-153166102D01*
X72475093Y-156076865D02*
X72683005Y-157055013D01*
X72683005Y-157055013D02*
X73661152Y-156847101D01*
X70750389Y-143153035D02*
X69772241Y-143360947D01*
X69772241Y-143360947D02*
X69980153Y-144339094D01*
X52700847Y-155363192D02*
X52865877Y-156139596D01*
X52535817Y-154586787D02*
X52370787Y-153810383D01*
X53691027Y-160021620D02*
X53856056Y-160798024D01*
X51215578Y-148375550D02*
X51050548Y-147599145D01*
X51875698Y-151481169D02*
X51710668Y-150704764D01*
X53030907Y-156916001D02*
X53195937Y-157692406D01*
X53360967Y-158468810D02*
X53525997Y-159245215D01*
X52205757Y-153033978D02*
X52040728Y-152257573D01*
X51545638Y-149928359D02*
X51380608Y-149151955D01*
X57194245Y-153596608D02*
X57029215Y-152820203D01*
X58349455Y-159031440D02*
X58514484Y-159807845D01*
X55874006Y-147385370D02*
X55708976Y-146608966D01*
X56534126Y-150490989D02*
X56369096Y-149714584D01*
X57689335Y-155925822D02*
X57854365Y-156702226D01*
X57359275Y-154373012D02*
X57524305Y-155149417D01*
X58019395Y-157478631D02*
X58184425Y-158255036D01*
X56864185Y-152043798D02*
X56699155Y-151267394D01*
X56204066Y-148938180D02*
X56039036Y-148161775D01*
X60348609Y-156983541D02*
X60513639Y-157759946D01*
X58203220Y-146890281D02*
X58038190Y-146113876D01*
X58533280Y-148443090D02*
X58368250Y-147666685D01*
X59193399Y-151548709D02*
X59028369Y-150772304D01*
X59523459Y-153101518D02*
X59358429Y-152325113D01*
X59688489Y-153877923D02*
X59853519Y-154654327D01*
X60018549Y-155430732D02*
X60183579Y-156207137D01*
X60678668Y-158536351D02*
X60843698Y-159312755D01*
X58863340Y-149995899D02*
X58698310Y-149219495D01*
X61522613Y-151053619D02*
X61357583Y-150277214D01*
X60862494Y-147948000D02*
X60697464Y-147171596D01*
X62677823Y-156488452D02*
X62842853Y-157264856D01*
X60532434Y-146395191D02*
X60367404Y-145618786D01*
X62347763Y-154935642D02*
X62512793Y-155712047D01*
X63007882Y-158041261D02*
X63172912Y-158817666D01*
X61192554Y-149500810D02*
X61027524Y-148724405D01*
X61852673Y-152606428D02*
X61687643Y-151830024D01*
X62017703Y-153382833D02*
X62182733Y-154159238D01*
X65337096Y-157546171D02*
X65502126Y-158322576D01*
X64676977Y-154440553D02*
X64842007Y-155216957D01*
X64346917Y-152887743D02*
X64511947Y-153664148D01*
X63521767Y-149005720D02*
X63356738Y-148229315D01*
X64181887Y-152111339D02*
X64016857Y-151334934D01*
X63191708Y-147452911D02*
X63026678Y-146676506D01*
X62861648Y-145900101D02*
X62696618Y-145123697D01*
X65007037Y-155993362D02*
X65172067Y-156769767D01*
X63851827Y-150558529D02*
X63686797Y-149782125D01*
X66181041Y-150063440D02*
X66016011Y-149287035D01*
X67666310Y-157051082D02*
X67831340Y-157827486D01*
X67006191Y-153945463D02*
X67171221Y-154721868D01*
X66676131Y-152392654D02*
X66841161Y-153169058D01*
X65520922Y-146957821D02*
X65355892Y-146181416D01*
X66511101Y-151616249D02*
X66346071Y-150839844D01*
X67336251Y-155498272D02*
X67501281Y-156274677D01*
X65190862Y-145405012D02*
X65025832Y-144628607D01*
X65850981Y-148510630D02*
X65685952Y-147734226D01*
X102788345Y-139036386D02*
X102623315Y-138259981D01*
X104603674Y-147576837D02*
X104768704Y-148353241D01*
X103448465Y-142142004D02*
X103283435Y-141365600D01*
X103778525Y-143694813D02*
X103613495Y-142918409D01*
X104273614Y-146024027D02*
X104438644Y-146800432D01*
X103943555Y-144471218D02*
X104108584Y-145247623D01*
X102458285Y-137483576D02*
X102293256Y-136707172D01*
X103118405Y-140589195D02*
X102953375Y-139812790D01*
X104933734Y-149129646D02*
X105098764Y-149906051D01*
X98129917Y-140026565D02*
X97964887Y-139250160D01*
X97799857Y-138473756D02*
X97634828Y-137697351D01*
X98790037Y-143132184D02*
X98625007Y-142355779D01*
X99285127Y-145461398D02*
X99450157Y-146237802D01*
X99615186Y-147014207D02*
X99780216Y-147790612D01*
X99120097Y-144684993D02*
X98955067Y-143908588D01*
X98459977Y-141579374D02*
X98294947Y-140802970D01*
X100275306Y-150119826D02*
X100440336Y-150896230D01*
X99945246Y-148567016D02*
X100110276Y-149343421D01*
X95800703Y-140521655D02*
X95635673Y-139745250D01*
X95470644Y-138968845D02*
X95305614Y-138192441D01*
X96790883Y-145180083D02*
X96625853Y-144403678D01*
X96460823Y-143627273D02*
X96295793Y-142850869D01*
X96130763Y-142074464D02*
X95965733Y-141298059D01*
X96955913Y-145956487D02*
X97120943Y-146732892D01*
X97946092Y-150614915D02*
X98111122Y-151391320D01*
X97616032Y-149062106D02*
X97781062Y-149838511D01*
X97285972Y-147509297D02*
X97451002Y-148285701D01*
X93471489Y-141016744D02*
X93306459Y-140240340D01*
X94461669Y-145675172D02*
X94296639Y-144898768D01*
X94131609Y-144122363D02*
X93966579Y-143345958D01*
X93141430Y-139463935D02*
X92976400Y-138687530D01*
X93801549Y-142569554D02*
X93636519Y-141793149D01*
X94626699Y-146451577D02*
X94791729Y-147227982D01*
X95616878Y-151110005D02*
X95781908Y-151886410D01*
X95286818Y-149557196D02*
X95451848Y-150333600D01*
X94956758Y-148004386D02*
X95121788Y-148780791D01*
X88813061Y-142006924D02*
X88648031Y-141230519D01*
X88483002Y-140454114D02*
X88317972Y-139677710D01*
X89143121Y-143559733D02*
X88978091Y-142783328D01*
X89473181Y-145112542D02*
X89308151Y-144336138D01*
X90958450Y-152100184D02*
X91123480Y-152876589D01*
X90628390Y-150547375D02*
X90793420Y-151323780D01*
X89968271Y-147441756D02*
X90133301Y-148218161D01*
X89803241Y-146665352D02*
X89638211Y-145888947D01*
X90298331Y-148994566D02*
X90463360Y-149770970D01*
X90812216Y-139959025D02*
X90647186Y-139182620D01*
X91142275Y-141511834D02*
X90977245Y-140735429D01*
X91472335Y-143064643D02*
X91307305Y-142288239D01*
X91802395Y-144617453D02*
X91637365Y-143841048D01*
X93287664Y-151605095D02*
X93452694Y-152381499D01*
X92957604Y-150052285D02*
X93122634Y-150828690D01*
X92627545Y-148499476D02*
X92792574Y-149275881D01*
X92297485Y-146946667D02*
X92462515Y-147723071D01*
X92132455Y-146170262D02*
X91967425Y-145393857D01*
X100109000Y-52058000D02*
X100109000Y-50558000D01*
X94709000Y-52058000D02*
X100109000Y-52058000D01*
X94709000Y-50558000D02*
X94709000Y-52058000D01*
X100109000Y-50558000D02*
X94709000Y-50558000D01*
X96909000Y-50808000D02*
X96909000Y-51808000D01*
X97909000Y-51808000D02*
X97009000Y-51308000D01*
X97909000Y-50808000D02*
X97909000Y-51808000D01*
X97009000Y-51308000D02*
X97909000Y-50808000D01*
X90076000Y-61456000D02*
X90076000Y-59956000D01*
X84676000Y-61456000D02*
X90076000Y-61456000D01*
X84676000Y-59956000D02*
X84676000Y-61456000D01*
X90076000Y-59956000D02*
X84676000Y-59956000D01*
X86876000Y-60206000D02*
X86876000Y-61206000D01*
X87876000Y-61206000D02*
X86976000Y-60706000D01*
X87876000Y-60206000D02*
X87876000Y-61206000D01*
X86976000Y-60706000D02*
X87876000Y-60206000D01*
X51243750Y-65628125D02*
X52243750Y-65628125D01*
X52243750Y-65628125D02*
X52243750Y-66628125D01*
X51243750Y-79628125D02*
X52243750Y-79628125D01*
X52243750Y-79628125D02*
X52243750Y-78628125D01*
X38243750Y-78628125D02*
X38243750Y-79628125D01*
X38243750Y-79628125D02*
X39243750Y-79628125D01*
X39243750Y-65628125D02*
X38243750Y-65628125D01*
X38243750Y-65628125D02*
X38243750Y-66628125D01*
X52706250Y-62662500D02*
X52706250Y-61162500D01*
X47306250Y-62662500D02*
X52706250Y-62662500D01*
X47306250Y-61162500D02*
X47306250Y-62662500D01*
X52706250Y-61162500D02*
X47306250Y-61162500D01*
X49506250Y-61412500D02*
X49506250Y-62412500D01*
X50506250Y-62412500D02*
X49606250Y-61912500D01*
X50506250Y-61412500D02*
X50506250Y-62412500D01*
X49606250Y-61912500D02*
X50506250Y-61412500D01*
X51722000Y-65091375D02*
X51722000Y-63591375D01*
X46322000Y-65091375D02*
X51722000Y-65091375D01*
X46322000Y-63591375D02*
X46322000Y-65091375D01*
X51722000Y-63591375D02*
X46322000Y-63591375D01*
X48522000Y-63841375D02*
X48522000Y-64841375D01*
X49522000Y-64841375D02*
X48622000Y-64341375D01*
X49522000Y-63841375D02*
X49522000Y-64841375D01*
X48622000Y-64341375D02*
X49522000Y-63841375D01*
X63989000Y-61801375D02*
X64889000Y-61301375D01*
X64889000Y-61301375D02*
X64889000Y-62301375D01*
X64889000Y-62301375D02*
X63989000Y-61801375D01*
X63889000Y-61301375D02*
X63889000Y-62301375D01*
X67089000Y-61051375D02*
X61689000Y-61051375D01*
X61689000Y-61051375D02*
X61689000Y-62551375D01*
X61689000Y-62551375D02*
X67089000Y-62551375D01*
X67089000Y-62551375D02*
X67089000Y-61051375D01*
X67089000Y-65091375D02*
X67089000Y-63591375D01*
X61689000Y-65091375D02*
X67089000Y-65091375D01*
X61689000Y-63591375D02*
X61689000Y-65091375D01*
X67089000Y-63591375D02*
X61689000Y-63591375D01*
X63889000Y-63841375D02*
X63889000Y-64841375D01*
X64889000Y-64841375D02*
X63989000Y-64341375D01*
X64889000Y-63841375D02*
X64889000Y-64841375D01*
X63989000Y-64341375D02*
X64889000Y-63841375D01*
X59596000Y-103254875D02*
X59596000Y-101754875D01*
X54196000Y-103254875D02*
X59596000Y-103254875D01*
X54196000Y-101754875D02*
X54196000Y-103254875D01*
X59596000Y-101754875D02*
X54196000Y-101754875D01*
X56396000Y-102004875D02*
X56396000Y-103004875D01*
X57396000Y-103004875D02*
X56496000Y-102504875D01*
X57396000Y-102004875D02*
X57396000Y-103004875D01*
X56496000Y-102504875D02*
X57396000Y-102004875D01*
X61882000Y-122304875D02*
X61882000Y-120804875D01*
X56482000Y-122304875D02*
X61882000Y-122304875D01*
X56482000Y-120804875D02*
X56482000Y-122304875D01*
X61882000Y-120804875D02*
X56482000Y-120804875D01*
X58682000Y-121054875D02*
X58682000Y-122054875D01*
X59682000Y-122054875D02*
X58782000Y-121554875D01*
X59682000Y-121054875D02*
X59682000Y-122054875D01*
X58782000Y-121554875D02*
X59682000Y-121054875D01*
X79987532Y-140634249D02*
X79675665Y-139167028D01*
X74705535Y-141756972D02*
X79987532Y-140634249D01*
X74393668Y-140289751D02*
X74705535Y-141756972D01*
X79675665Y-139167028D02*
X74393668Y-140289751D01*
X76597570Y-140076882D02*
X76805482Y-141055030D01*
X77783630Y-140847118D02*
X76799341Y-140545165D01*
X77575718Y-139868970D02*
X77783630Y-140847118D01*
X76799341Y-140545165D02*
X77575718Y-139868970D01*
X90076000Y-57543000D02*
X90076000Y-59043000D01*
X84676000Y-57543000D02*
X90076000Y-57543000D01*
X84676000Y-59043000D02*
X84676000Y-57543000D01*
X90076000Y-59043000D02*
X84676000Y-59043000D01*
X86876000Y-58793000D02*
X86876000Y-57793000D01*
X87876000Y-57793000D02*
X86976000Y-58293000D01*
X87876000Y-58793000D02*
X87876000Y-57793000D01*
X86976000Y-58293000D02*
X87876000Y-58793000D01*
X86266000Y-80569500D02*
X86266000Y-79069500D01*
X80866000Y-80569500D02*
X86266000Y-80569500D01*
X80866000Y-79069500D02*
X80866000Y-80569500D01*
X86266000Y-79069500D02*
X80866000Y-79069500D01*
X83066000Y-79319500D02*
X83066000Y-80319500D01*
X84066000Y-80319500D02*
X83166000Y-79819500D01*
X84066000Y-79319500D02*
X84066000Y-80319500D01*
X83166000Y-79819500D02*
X84066000Y-79319500D01*
X85758000Y-99619500D02*
X85758000Y-98119500D01*
X80358000Y-99619500D02*
X85758000Y-99619500D01*
X80358000Y-98119500D02*
X80358000Y-99619500D01*
X85758000Y-98119500D02*
X80358000Y-98119500D01*
X82558000Y-98369500D02*
X82558000Y-99369500D01*
X83558000Y-99369500D02*
X82658000Y-98869500D01*
X83558000Y-98369500D02*
X83558000Y-99369500D01*
X82658000Y-98869500D02*
X83558000Y-98369500D01*
X85758000Y-118669500D02*
X85758000Y-117169500D01*
X80358000Y-118669500D02*
X85758000Y-118669500D01*
X80358000Y-117169500D02*
X80358000Y-118669500D01*
X85758000Y-117169500D02*
X80358000Y-117169500D01*
X82558000Y-117419500D02*
X82558000Y-118419500D01*
X83558000Y-118419500D02*
X82658000Y-117919500D01*
X83558000Y-117419500D02*
X83558000Y-118419500D01*
X82658000Y-117919500D02*
X83558000Y-117419500D01*
X109888000Y-52058000D02*
X109888000Y-50558000D01*
X104488000Y-52058000D02*
X109888000Y-52058000D01*
X104488000Y-50558000D02*
X104488000Y-52058000D01*
X109888000Y-50558000D02*
X104488000Y-50558000D01*
X106688000Y-50808000D02*
X106688000Y-51808000D01*
X107688000Y-51808000D02*
X106788000Y-51308000D01*
X107688000Y-50808000D02*
X107688000Y-51808000D01*
X106788000Y-51308000D02*
X107688000Y-50808000D01*
X104808000Y-71012750D02*
X104808000Y-69512750D01*
X99408000Y-71012750D02*
X104808000Y-71012750D01*
X99408000Y-69512750D02*
X99408000Y-71012750D01*
X104808000Y-69512750D02*
X99408000Y-69512750D01*
X101608000Y-69762750D02*
X101608000Y-70762750D01*
X102608000Y-70762750D02*
X101708000Y-70262750D01*
X102608000Y-69762750D02*
X102608000Y-70762750D01*
X101708000Y-70262750D02*
X102608000Y-69762750D01*
X104808000Y-90062750D02*
X104808000Y-88562750D01*
X99408000Y-90062750D02*
X104808000Y-90062750D01*
X99408000Y-88562750D02*
X99408000Y-90062750D01*
X104808000Y-88562750D02*
X99408000Y-88562750D01*
X101608000Y-88812750D02*
X101608000Y-89812750D01*
X102608000Y-89812750D02*
X101708000Y-89312750D01*
X102608000Y-88812750D02*
X102608000Y-89812750D01*
X101708000Y-89312750D02*
X102608000Y-88812750D01*
X104808000Y-109112750D02*
X104808000Y-107612750D01*
X99408000Y-109112750D02*
X104808000Y-109112750D01*
X99408000Y-107612750D02*
X99408000Y-109112750D01*
X104808000Y-107612750D02*
X99408000Y-107612750D01*
X101608000Y-107862750D02*
X101608000Y-108862750D01*
X102608000Y-108862750D02*
X101708000Y-108362750D01*
X102608000Y-107862750D02*
X102608000Y-108862750D01*
X101708000Y-108362750D02*
X102608000Y-107862750D01*
X116746000Y-130544000D02*
X116746000Y-129044000D01*
X111346000Y-130544000D02*
X116746000Y-130544000D01*
X111346000Y-129044000D02*
X111346000Y-130544000D01*
X116746000Y-129044000D02*
X111346000Y-129044000D01*
X113546000Y-129294000D02*
X113546000Y-130294000D01*
X114546000Y-130294000D02*
X113646000Y-129794000D01*
X114546000Y-129294000D02*
X114546000Y-130294000D01*
X113646000Y-129794000D02*
X114546000Y-129294000D01*
X116313000Y-48895000D02*
X117213000Y-48395000D01*
X117213000Y-48395000D02*
X117213000Y-49395000D01*
X117213000Y-49395000D02*
X116313000Y-48895000D01*
X116213000Y-48395000D02*
X116213000Y-49395000D01*
X119413000Y-48145000D02*
X114013000Y-48145000D01*
X114013000Y-48145000D02*
X114013000Y-49645000D01*
X114013000Y-49645000D02*
X119413000Y-49645000D01*
X119413000Y-49645000D02*
X119413000Y-48145000D01*
X129065000Y-49645000D02*
X129065000Y-48145000D01*
X123665000Y-49645000D02*
X129065000Y-49645000D01*
X123665000Y-48145000D02*
X123665000Y-49645000D01*
X129065000Y-48145000D02*
X123665000Y-48145000D01*
X125865000Y-48395000D02*
X125865000Y-49395000D01*
X126865000Y-49395000D02*
X125965000Y-48895000D01*
X126865000Y-48395000D02*
X126865000Y-49395000D01*
X125965000Y-48895000D02*
X126865000Y-48395000D01*
X123858000Y-68822000D02*
X123858000Y-67322000D01*
X118458000Y-68822000D02*
X123858000Y-68822000D01*
X118458000Y-67322000D02*
X118458000Y-68822000D01*
X123858000Y-67322000D02*
X118458000Y-67322000D01*
X120658000Y-67572000D02*
X120658000Y-68572000D01*
X121658000Y-68572000D02*
X120758000Y-68072000D01*
X121658000Y-67572000D02*
X121658000Y-68572000D01*
X120758000Y-68072000D02*
X121658000Y-67572000D01*
X123858000Y-87618000D02*
X123858000Y-86118000D01*
X118458000Y-87618000D02*
X123858000Y-87618000D01*
X118458000Y-86118000D02*
X118458000Y-87618000D01*
X123858000Y-86118000D02*
X118458000Y-86118000D01*
X120658000Y-86368000D02*
X120658000Y-87368000D01*
X121658000Y-87368000D02*
X120758000Y-86868000D01*
X121658000Y-86368000D02*
X121658000Y-87368000D01*
X120758000Y-86868000D02*
X121658000Y-86368000D01*
X123858000Y-106668000D02*
X123858000Y-105168000D01*
X118458000Y-106668000D02*
X123858000Y-106668000D01*
X118458000Y-105168000D02*
X118458000Y-106668000D01*
X123858000Y-105168000D02*
X118458000Y-105168000D01*
X120658000Y-105418000D02*
X120658000Y-106418000D01*
X121658000Y-106418000D02*
X120758000Y-105918000D01*
X121658000Y-105418000D02*
X121658000Y-106418000D01*
X120758000Y-105918000D02*
X121658000Y-105418000D01*
X140368000Y-130544000D02*
X140368000Y-129044000D01*
X134968000Y-130544000D02*
X140368000Y-130544000D01*
X134968000Y-129044000D02*
X134968000Y-130544000D01*
X140368000Y-129044000D02*
X134968000Y-129044000D01*
X137168000Y-129294000D02*
X137168000Y-130294000D01*
X138168000Y-130294000D02*
X137268000Y-129794000D01*
X138168000Y-129294000D02*
X138168000Y-130294000D01*
X137268000Y-129794000D02*
X138168000Y-129294000D01*
X137828000Y-52058000D02*
X137828000Y-50558000D01*
X132428000Y-52058000D02*
X137828000Y-52058000D01*
X132428000Y-50558000D02*
X132428000Y-52058000D01*
X137828000Y-50558000D02*
X132428000Y-50558000D01*
X134628000Y-50808000D02*
X134628000Y-51808000D01*
X135628000Y-51808000D02*
X134728000Y-51308000D01*
X135628000Y-50808000D02*
X135628000Y-51808000D01*
X134728000Y-51308000D02*
X135628000Y-50808000D01*
X147607000Y-52058000D02*
X147607000Y-50558000D01*
X142207000Y-52058000D02*
X147607000Y-52058000D01*
X142207000Y-50558000D02*
X142207000Y-52058000D01*
X147607000Y-50558000D02*
X142207000Y-50558000D01*
X144407000Y-50808000D02*
X144407000Y-51808000D01*
X145407000Y-51808000D02*
X144507000Y-51308000D01*
X145407000Y-50808000D02*
X145407000Y-51808000D01*
X144507000Y-51308000D02*
X145407000Y-50808000D01*
X142908000Y-71108000D02*
X142908000Y-69608000D01*
X137508000Y-71108000D02*
X142908000Y-71108000D01*
X137508000Y-69608000D02*
X137508000Y-71108000D01*
X142908000Y-69608000D02*
X137508000Y-69608000D01*
X139708000Y-69858000D02*
X139708000Y-70858000D01*
X140708000Y-70858000D02*
X139808000Y-70358000D01*
X140708000Y-69858000D02*
X140708000Y-70858000D01*
X139808000Y-70358000D02*
X140708000Y-69858000D01*
X142908000Y-90158000D02*
X142908000Y-88658000D01*
X137508000Y-90158000D02*
X142908000Y-90158000D01*
X137508000Y-88658000D02*
X137508000Y-90158000D01*
X142908000Y-88658000D02*
X137508000Y-88658000D01*
X139708000Y-88908000D02*
X139708000Y-89908000D01*
X140708000Y-89908000D02*
X139808000Y-89408000D01*
X140708000Y-88908000D02*
X140708000Y-89908000D01*
X139808000Y-89408000D02*
X140708000Y-88908000D01*
X142908000Y-109208000D02*
X142908000Y-107708000D01*
X137508000Y-109208000D02*
X142908000Y-109208000D01*
X137508000Y-107708000D02*
X137508000Y-109208000D01*
X142908000Y-107708000D02*
X137508000Y-107708000D01*
X139708000Y-107958000D02*
X139708000Y-108958000D01*
X140708000Y-108958000D02*
X139808000Y-108458000D01*
X140708000Y-107958000D02*
X140708000Y-108958000D01*
X139808000Y-108458000D02*
X140708000Y-107958000D01*
X153957000Y-130544000D02*
X153957000Y-129044000D01*
X148557000Y-130544000D02*
X153957000Y-130544000D01*
X148557000Y-129044000D02*
X148557000Y-130544000D01*
X153957000Y-129044000D02*
X148557000Y-129044000D01*
X150757000Y-129294000D02*
X150757000Y-130294000D01*
X151757000Y-130294000D02*
X150857000Y-129794000D01*
X151757000Y-129294000D02*
X151757000Y-130294000D01*
X150857000Y-129794000D02*
X151757000Y-129294000D01*
X166022000Y-54217000D02*
X166022000Y-52717000D01*
X160622000Y-54217000D02*
X166022000Y-54217000D01*
X160622000Y-52717000D02*
X160622000Y-54217000D01*
X166022000Y-52717000D02*
X160622000Y-52717000D01*
X162822000Y-52967000D02*
X162822000Y-53967000D01*
X163822000Y-53967000D02*
X162922000Y-53467000D01*
X163822000Y-52967000D02*
X163822000Y-53967000D01*
X162922000Y-53467000D02*
X163822000Y-52967000D01*
X161958000Y-73394000D02*
X161958000Y-71894000D01*
X156558000Y-73394000D02*
X161958000Y-73394000D01*
X156558000Y-71894000D02*
X156558000Y-73394000D01*
X161958000Y-71894000D02*
X156558000Y-71894000D01*
X158758000Y-72144000D02*
X158758000Y-73144000D01*
X159758000Y-73144000D02*
X158858000Y-72644000D01*
X159758000Y-72144000D02*
X159758000Y-73144000D01*
X158858000Y-72644000D02*
X159758000Y-72144000D01*
X161958000Y-92444000D02*
X161958000Y-90944000D01*
X156558000Y-92444000D02*
X161958000Y-92444000D01*
X156558000Y-90944000D02*
X156558000Y-92444000D01*
X161958000Y-90944000D02*
X156558000Y-90944000D01*
X158758000Y-91194000D02*
X158758000Y-92194000D01*
X159758000Y-92194000D02*
X158858000Y-91694000D01*
X159758000Y-91194000D02*
X159758000Y-92194000D01*
X158858000Y-91694000D02*
X159758000Y-91194000D01*
X161958000Y-111494000D02*
X161958000Y-109994000D01*
X156558000Y-111494000D02*
X161958000Y-111494000D01*
X156558000Y-109994000D02*
X156558000Y-111494000D01*
X161958000Y-109994000D02*
X156558000Y-109994000D01*
X158758000Y-110244000D02*
X158758000Y-111244000D01*
X159758000Y-111244000D02*
X158858000Y-110744000D01*
X159758000Y-110244000D02*
X159758000Y-111244000D01*
X158858000Y-110744000D02*
X159758000Y-110244000D01*
X175801000Y-54471000D02*
X175801000Y-52971000D01*
X170401000Y-54471000D02*
X175801000Y-54471000D01*
X170401000Y-52971000D02*
X170401000Y-54471000D01*
X175801000Y-52971000D02*
X170401000Y-52971000D01*
X172601000Y-53221000D02*
X172601000Y-54221000D01*
X173601000Y-54221000D02*
X172701000Y-53721000D01*
X173601000Y-53221000D02*
X173601000Y-54221000D01*
X172701000Y-53721000D02*
X173601000Y-53221000D01*
X181008000Y-73648000D02*
X181008000Y-72148000D01*
X175608000Y-73648000D02*
X181008000Y-73648000D01*
X175608000Y-72148000D02*
X175608000Y-73648000D01*
X181008000Y-72148000D02*
X175608000Y-72148000D01*
X177808000Y-72398000D02*
X177808000Y-73398000D01*
X178808000Y-73398000D02*
X177908000Y-72898000D01*
X178808000Y-72398000D02*
X178808000Y-73398000D01*
X177908000Y-72898000D02*
X178808000Y-72398000D01*
X181008000Y-92444000D02*
X181008000Y-90944000D01*
X175608000Y-92444000D02*
X181008000Y-92444000D01*
X175608000Y-90944000D02*
X175608000Y-92444000D01*
X181008000Y-90944000D02*
X175608000Y-90944000D01*
X177808000Y-91194000D02*
X177808000Y-92194000D01*
X178808000Y-92194000D02*
X177908000Y-91694000D01*
X178808000Y-91194000D02*
X178808000Y-92194000D01*
X177908000Y-91694000D02*
X178808000Y-91194000D01*
X181008000Y-111494000D02*
X181008000Y-109994000D01*
X175608000Y-111494000D02*
X181008000Y-111494000D01*
X175608000Y-109994000D02*
X175608000Y-111494000D01*
X181008000Y-109994000D02*
X175608000Y-109994000D01*
X177808000Y-110244000D02*
X177808000Y-111244000D01*
X178808000Y-111244000D02*
X177908000Y-110744000D01*
X178808000Y-110244000D02*
X178808000Y-111244000D01*
X177908000Y-110744000D02*
X178808000Y-110244000D01*
X176563000Y-130671000D02*
X176563000Y-129171000D01*
X171163000Y-130671000D02*
X176563000Y-130671000D01*
X171163000Y-129171000D02*
X171163000Y-130671000D01*
X176563000Y-129171000D02*
X171163000Y-129171000D01*
X173363000Y-129421000D02*
X173363000Y-130421000D01*
X174363000Y-130421000D02*
X173463000Y-129921000D01*
X174363000Y-129421000D02*
X174363000Y-130421000D01*
X173463000Y-129921000D02*
X174363000Y-129421000D01*
X65531250Y-84678125D02*
X66531250Y-84678125D01*
X66531250Y-84678125D02*
X66531250Y-85678125D01*
X65531250Y-98678125D02*
X66531250Y-98678125D01*
X66531250Y-98678125D02*
X66531250Y-97678125D01*
X52531250Y-97678125D02*
X52531250Y-98678125D01*
X52531250Y-98678125D02*
X53531250Y-98678125D01*
X53531250Y-84678125D02*
X52531250Y-84678125D01*
X52531250Y-84678125D02*
X52531250Y-85678125D01*
X63150000Y-103728125D02*
X64150000Y-103728125D01*
X64150000Y-103728125D02*
X64150000Y-104728125D01*
X63150000Y-117728125D02*
X64150000Y-117728125D01*
X64150000Y-117728125D02*
X64150000Y-116728125D01*
X50150000Y-116728125D02*
X50150000Y-117728125D01*
X50150000Y-117728125D02*
X51150000Y-117728125D01*
X51150000Y-103728125D02*
X50150000Y-103728125D01*
X50150000Y-103728125D02*
X50150000Y-104728125D01*
X65531250Y-122778125D02*
X66531250Y-122778125D01*
X66531250Y-122778125D02*
X66531250Y-123778125D01*
X65531250Y-136778125D02*
X66531250Y-136778125D01*
X66531250Y-136778125D02*
X66531250Y-135778125D01*
X52531250Y-135778125D02*
X52531250Y-136778125D01*
X52531250Y-136778125D02*
X53531250Y-136778125D01*
X53531250Y-122778125D02*
X52531250Y-122778125D01*
X52531250Y-122778125D02*
X52531250Y-123778125D01*
X77858942Y-51506430D02*
X74287058Y-51506430D01*
X77858942Y-57459570D02*
X77858942Y-51506430D01*
X74287058Y-57459570D02*
X77858942Y-57459570D01*
X74287058Y-51506430D02*
X74287058Y-57459570D01*
X89343750Y-100156250D02*
X90343750Y-100156250D01*
X90343750Y-100156250D02*
X90343750Y-101156250D01*
X89343750Y-114156250D02*
X90343750Y-114156250D01*
X90343750Y-114156250D02*
X90343750Y-113156250D01*
X76343750Y-113156250D02*
X76343750Y-114156250D01*
X76343750Y-114156250D02*
X77343750Y-114156250D01*
X77343750Y-100156250D02*
X76343750Y-100156250D01*
X76343750Y-100156250D02*
X76343750Y-101156250D01*
X89343750Y-119206250D02*
X90343750Y-119206250D01*
X90343750Y-119206250D02*
X90343750Y-120206250D01*
X89343750Y-133206250D02*
X90343750Y-133206250D01*
X90343750Y-133206250D02*
X90343750Y-132206250D01*
X76343750Y-132206250D02*
X76343750Y-133206250D01*
X76343750Y-133206250D02*
X77343750Y-133206250D01*
X77343750Y-119206250D02*
X76343750Y-119206250D01*
X76343750Y-119206250D02*
X76343750Y-120206250D01*
X85692856Y-154328683D02*
X84714709Y-154536595D01*
X84714709Y-154536595D02*
X84506797Y-153558447D01*
X82782093Y-140634617D02*
X81803945Y-140842529D01*
X81803945Y-140842529D02*
X82011857Y-141820676D01*
X95705923Y-138909913D02*
X95498011Y-137931765D01*
X95498011Y-137931765D02*
X94519864Y-138139677D01*
X97430627Y-151833743D02*
X98408775Y-151625831D01*
X98408775Y-151625831D02*
X98200863Y-150647684D01*
X95393750Y-52531250D02*
X95393750Y-53531250D01*
X96393750Y-52531250D02*
X95393750Y-52531250D01*
X95393750Y-66531250D02*
X96393750Y-66531250D01*
X95393750Y-65531250D02*
X95393750Y-66531250D01*
X109393750Y-66531250D02*
X109393750Y-65531250D01*
X108393750Y-66531250D02*
X109393750Y-66531250D01*
X109393750Y-52531250D02*
X109393750Y-53531250D01*
X108393750Y-52531250D02*
X109393750Y-52531250D01*
X95393750Y-71581250D02*
X95393750Y-72581250D01*
X96393750Y-71581250D02*
X95393750Y-71581250D01*
X95393750Y-85581250D02*
X96393750Y-85581250D01*
X95393750Y-84581250D02*
X95393750Y-85581250D01*
X109393750Y-85581250D02*
X109393750Y-84581250D01*
X108393750Y-85581250D02*
X109393750Y-85581250D01*
X109393750Y-71581250D02*
X109393750Y-72581250D01*
X108393750Y-71581250D02*
X109393750Y-71581250D01*
X95393750Y-90631250D02*
X95393750Y-91631250D01*
X96393750Y-90631250D02*
X95393750Y-90631250D01*
X95393750Y-104631250D02*
X96393750Y-104631250D01*
X95393750Y-103631250D02*
X95393750Y-104631250D01*
X109393750Y-104631250D02*
X109393750Y-103631250D01*
X108393750Y-104631250D02*
X109393750Y-104631250D01*
X109393750Y-90631250D02*
X109393750Y-91631250D01*
X108393750Y-90631250D02*
X109393750Y-90631250D01*
X95393750Y-109681250D02*
X95393750Y-110681250D01*
X96393750Y-109681250D02*
X95393750Y-109681250D01*
X95393750Y-123681250D02*
X96393750Y-123681250D01*
X95393750Y-122681250D02*
X95393750Y-123681250D01*
X109393750Y-123681250D02*
X109393750Y-122681250D01*
X108393750Y-123681250D02*
X109393750Y-123681250D01*
X109393750Y-109681250D02*
X109393750Y-110681250D01*
X108393750Y-109681250D02*
X109393750Y-109681250D01*
X107300000Y-131112500D02*
X107300000Y-132112500D01*
X108300000Y-131112500D02*
X107300000Y-131112500D01*
X107300000Y-145112500D02*
X108300000Y-145112500D01*
X107300000Y-144112500D02*
X107300000Y-145112500D01*
X121300000Y-145112500D02*
X121300000Y-144112500D01*
X120300000Y-145112500D02*
X121300000Y-145112500D01*
X121300000Y-131112500D02*
X121300000Y-132112500D01*
X120300000Y-131112500D02*
X121300000Y-131112500D01*
X114443750Y-50150000D02*
X114443750Y-51150000D01*
X115443750Y-50150000D02*
X114443750Y-50150000D01*
X114443750Y-64150000D02*
X115443750Y-64150000D01*
X114443750Y-63150000D02*
X114443750Y-64150000D01*
X128443750Y-64150000D02*
X128443750Y-63150000D01*
X127443750Y-64150000D02*
X128443750Y-64150000D01*
X128443750Y-50150000D02*
X128443750Y-51150000D01*
X127443750Y-50150000D02*
X128443750Y-50150000D01*
X114443750Y-69200000D02*
X114443750Y-70200000D01*
X115443750Y-69200000D02*
X114443750Y-69200000D01*
X114443750Y-83200000D02*
X115443750Y-83200000D01*
X114443750Y-82200000D02*
X114443750Y-83200000D01*
X128443750Y-83200000D02*
X128443750Y-82200000D01*
X127443750Y-83200000D02*
X128443750Y-83200000D01*
X128443750Y-69200000D02*
X128443750Y-70200000D01*
X127443750Y-69200000D02*
X128443750Y-69200000D01*
X114443750Y-88250000D02*
X114443750Y-89250000D01*
X115443750Y-88250000D02*
X114443750Y-88250000D01*
X114443750Y-102250000D02*
X115443750Y-102250000D01*
X114443750Y-101250000D02*
X114443750Y-102250000D01*
X128443750Y-102250000D02*
X128443750Y-101250000D01*
X127443750Y-102250000D02*
X128443750Y-102250000D01*
X128443750Y-88250000D02*
X128443750Y-89250000D01*
X127443750Y-88250000D02*
X128443750Y-88250000D01*
X114443750Y-107300000D02*
X114443750Y-108300000D01*
X115443750Y-107300000D02*
X114443750Y-107300000D01*
X114443750Y-121300000D02*
X115443750Y-121300000D01*
X114443750Y-120300000D02*
X114443750Y-121300000D01*
X128443750Y-121300000D02*
X128443750Y-120300000D01*
X127443750Y-121300000D02*
X128443750Y-121300000D01*
X128443750Y-107300000D02*
X128443750Y-108300000D01*
X127443750Y-107300000D02*
X128443750Y-107300000D01*
X131112500Y-131112500D02*
X131112500Y-132112500D01*
X132112500Y-131112500D02*
X131112500Y-131112500D01*
X131112500Y-145112500D02*
X132112500Y-145112500D01*
X131112500Y-144112500D02*
X131112500Y-145112500D01*
X145112500Y-145112500D02*
X145112500Y-144112500D01*
X144112500Y-145112500D02*
X145112500Y-145112500D01*
X145112500Y-131112500D02*
X145112500Y-132112500D01*
X144112500Y-131112500D02*
X145112500Y-131112500D01*
X146493750Y-52531250D02*
X147493750Y-52531250D01*
X147493750Y-52531250D02*
X147493750Y-53531250D01*
X146493750Y-66531250D02*
X147493750Y-66531250D01*
X147493750Y-66531250D02*
X147493750Y-65531250D01*
X133493750Y-65531250D02*
X133493750Y-66531250D01*
X133493750Y-66531250D02*
X134493750Y-66531250D01*
X134493750Y-52531250D02*
X133493750Y-52531250D01*
X133493750Y-52531250D02*
X133493750Y-53531250D01*
X146493750Y-71581250D02*
X147493750Y-71581250D01*
X147493750Y-71581250D02*
X147493750Y-72581250D01*
X146493750Y-85581250D02*
X147493750Y-85581250D01*
X147493750Y-85581250D02*
X147493750Y-84581250D01*
X133493750Y-84581250D02*
X133493750Y-85581250D01*
X133493750Y-85581250D02*
X134493750Y-85581250D01*
X134493750Y-71581250D02*
X133493750Y-71581250D01*
X133493750Y-71581250D02*
X133493750Y-72581250D01*
X146493750Y-90631250D02*
X147493750Y-90631250D01*
X147493750Y-90631250D02*
X147493750Y-91631250D01*
X146493750Y-104631250D02*
X147493750Y-104631250D01*
X147493750Y-104631250D02*
X147493750Y-103631250D01*
X133493750Y-103631250D02*
X133493750Y-104631250D01*
X133493750Y-104631250D02*
X134493750Y-104631250D01*
X134493750Y-90631250D02*
X133493750Y-90631250D01*
X133493750Y-90631250D02*
X133493750Y-91631250D01*
X146493750Y-109681250D02*
X147493750Y-109681250D01*
X147493750Y-109681250D02*
X147493750Y-110681250D01*
X146493750Y-123681250D02*
X147493750Y-123681250D01*
X147493750Y-123681250D02*
X147493750Y-122681250D01*
X133493750Y-122681250D02*
X133493750Y-123681250D01*
X133493750Y-123681250D02*
X134493750Y-123681250D01*
X134493750Y-109681250D02*
X133493750Y-109681250D01*
X133493750Y-109681250D02*
X133493750Y-110681250D01*
X165543750Y-54912500D02*
X166543750Y-54912500D01*
X166543750Y-54912500D02*
X166543750Y-55912500D01*
X165543750Y-68912500D02*
X166543750Y-68912500D01*
X166543750Y-68912500D02*
X166543750Y-67912500D01*
X152543750Y-67912500D02*
X152543750Y-68912500D01*
X152543750Y-68912500D02*
X153543750Y-68912500D01*
X153543750Y-54912500D02*
X152543750Y-54912500D01*
X152543750Y-54912500D02*
X152543750Y-55912500D01*
X165543750Y-73962500D02*
X166543750Y-73962500D01*
X166543750Y-73962500D02*
X166543750Y-74962500D01*
X165543750Y-87962500D02*
X166543750Y-87962500D01*
X166543750Y-87962500D02*
X166543750Y-86962500D01*
X152543750Y-86962500D02*
X152543750Y-87962500D01*
X152543750Y-87962500D02*
X153543750Y-87962500D01*
X153543750Y-73962500D02*
X152543750Y-73962500D01*
X152543750Y-73962500D02*
X152543750Y-74962500D01*
X165543750Y-93012500D02*
X166543750Y-93012500D01*
X166543750Y-93012500D02*
X166543750Y-94012500D01*
X165543750Y-107012500D02*
X166543750Y-107012500D01*
X166543750Y-107012500D02*
X166543750Y-106012500D01*
X152543750Y-106012500D02*
X152543750Y-107012500D01*
X152543750Y-107012500D02*
X153543750Y-107012500D01*
X153543750Y-93012500D02*
X152543750Y-93012500D01*
X152543750Y-93012500D02*
X152543750Y-94012500D01*
X165543750Y-112062500D02*
X166543750Y-112062500D01*
X166543750Y-112062500D02*
X166543750Y-113062500D01*
X165543750Y-126062500D02*
X166543750Y-126062500D01*
X166543750Y-126062500D02*
X166543750Y-125062500D01*
X152543750Y-125062500D02*
X152543750Y-126062500D01*
X152543750Y-126062500D02*
X153543750Y-126062500D01*
X153543750Y-112062500D02*
X152543750Y-112062500D01*
X152543750Y-112062500D02*
X152543750Y-113062500D01*
X177450000Y-131112500D02*
X178450000Y-131112500D01*
X178450000Y-131112500D02*
X178450000Y-132112500D01*
X177450000Y-145112500D02*
X178450000Y-145112500D01*
X178450000Y-145112500D02*
X178450000Y-144112500D01*
X164450000Y-144112500D02*
X164450000Y-145112500D01*
X164450000Y-145112500D02*
X165450000Y-145112500D01*
X165450000Y-131112500D02*
X164450000Y-131112500D01*
X164450000Y-131112500D02*
X164450000Y-132112500D01*
X184593750Y-54912500D02*
X185593750Y-54912500D01*
X185593750Y-54912500D02*
X185593750Y-55912500D01*
X184593750Y-68912500D02*
X185593750Y-68912500D01*
X185593750Y-68912500D02*
X185593750Y-67912500D01*
X171593750Y-67912500D02*
X171593750Y-68912500D01*
X171593750Y-68912500D02*
X172593750Y-68912500D01*
X172593750Y-54912500D02*
X171593750Y-54912500D01*
X171593750Y-54912500D02*
X171593750Y-55912500D01*
X184593750Y-73962500D02*
X185593750Y-73962500D01*
X185593750Y-73962500D02*
X185593750Y-74962500D01*
X184593750Y-87962500D02*
X185593750Y-87962500D01*
X185593750Y-87962500D02*
X185593750Y-86962500D01*
X171593750Y-86962500D02*
X171593750Y-87962500D01*
X171593750Y-87962500D02*
X172593750Y-87962500D01*
X172593750Y-73962500D02*
X171593750Y-73962500D01*
X171593750Y-73962500D02*
X171593750Y-74962500D01*
X184593750Y-93012500D02*
X185593750Y-93012500D01*
X185593750Y-93012500D02*
X185593750Y-94012500D01*
X184593750Y-107012500D02*
X185593750Y-107012500D01*
X185593750Y-107012500D02*
X185593750Y-106012500D01*
X171593750Y-106012500D02*
X171593750Y-107012500D01*
X171593750Y-107012500D02*
X172593750Y-107012500D01*
X172593750Y-93012500D02*
X171593750Y-93012500D01*
X171593750Y-93012500D02*
X171593750Y-94012500D01*
X184593750Y-112062500D02*
X185593750Y-112062500D01*
X185593750Y-112062500D02*
X185593750Y-113062500D01*
X184593750Y-126062500D02*
X185593750Y-126062500D01*
X185593750Y-126062500D02*
X185593750Y-125062500D01*
X171593750Y-125062500D02*
X171593750Y-126062500D01*
X171593750Y-126062500D02*
X172593750Y-126062500D01*
X172593750Y-112062500D02*
X171593750Y-112062500D01*
X171593750Y-112062500D02*
X171593750Y-113062500D01*
X192881250Y-138509375D02*
X192881250Y-137715625D01*
X192881250Y-136921875D02*
X192881250Y-136128125D01*
X192881250Y-139303125D02*
X192881250Y-140096875D01*
X192881250Y-140890625D02*
X192881250Y-141684375D01*
X192881250Y-142478125D02*
X192881250Y-143271875D01*
X192881250Y-144065625D02*
X192881250Y-144859375D01*
X192881250Y-135334375D02*
X192881250Y-134540625D01*
X192881250Y-133746875D02*
X192881250Y-132953125D01*
X192881250Y-132159375D02*
X192881250Y-131365625D01*
X190500000Y-139303125D02*
X190500000Y-140096875D01*
X190500000Y-136921875D02*
X190500000Y-136128125D01*
X190500000Y-138509375D02*
X190500000Y-137715625D01*
X190500000Y-142478125D02*
X190500000Y-143271875D01*
X190500000Y-140890625D02*
X190500000Y-141684375D01*
X190500000Y-144065625D02*
X190500000Y-144859375D01*
X190500000Y-135334375D02*
X190500000Y-134540625D01*
X190500000Y-133746875D02*
X190500000Y-132953125D01*
X190500000Y-132159375D02*
X190500000Y-131365625D01*
X188118750Y-140890625D02*
X188118750Y-141684375D01*
X188118750Y-139303125D02*
X188118750Y-140096875D01*
X188118750Y-144065625D02*
X188118750Y-144859375D01*
X188118750Y-138509375D02*
X188118750Y-137715625D01*
X188118750Y-132159375D02*
X188118750Y-131365625D01*
X188118750Y-136921875D02*
X188118750Y-136128125D01*
X188118750Y-135334375D02*
X188118750Y-134540625D01*
X188118750Y-142478125D02*
X188118750Y-143271875D01*
X188118750Y-133746875D02*
X188118750Y-132953125D01*
X185737500Y-144065625D02*
X185737500Y-144859375D01*
X185737500Y-136921875D02*
X185737500Y-136128125D01*
X185737500Y-142478125D02*
X185737500Y-143271875D01*
X185737500Y-133746875D02*
X185737500Y-132953125D01*
X185737500Y-140890625D02*
X185737500Y-141684375D01*
X185737500Y-139303125D02*
X185737500Y-140096875D01*
X185737500Y-138509375D02*
X185737500Y-137715625D01*
X185737500Y-132159375D02*
X185737500Y-131365625D01*
X185737500Y-135334375D02*
X185737500Y-134540625D01*
X183356250Y-138509375D02*
X183356250Y-137715625D01*
X183356250Y-139303125D02*
X183356250Y-140096875D01*
X183356250Y-133746875D02*
X183356250Y-132953125D01*
X183356250Y-144065625D02*
X183356250Y-144859375D01*
X183356250Y-142478125D02*
X183356250Y-143271875D01*
X183356250Y-132159375D02*
X183356250Y-131365625D01*
X183356250Y-140890625D02*
X183356250Y-141684375D01*
X183356250Y-135334375D02*
X183356250Y-134540625D01*
X183356250Y-136921875D02*
X183356250Y-136128125D01*
X159543750Y-139303125D02*
X159543750Y-140096875D01*
X159543750Y-133746875D02*
X159543750Y-132953125D01*
X159543750Y-144065625D02*
X159543750Y-144859375D01*
X159543750Y-142478125D02*
X159543750Y-143271875D01*
X159543750Y-140890625D02*
X159543750Y-141684375D01*
X159543750Y-136921875D02*
X159543750Y-136128125D01*
X159543750Y-132159375D02*
X159543750Y-131365625D01*
X159543750Y-138509375D02*
X159543750Y-137715625D01*
X159543750Y-135334375D02*
X159543750Y-134540625D01*
X157162500Y-133746875D02*
X157162500Y-132953125D01*
X157162500Y-140890625D02*
X157162500Y-141684375D01*
X157162500Y-144065625D02*
X157162500Y-144859375D01*
X157162500Y-135334375D02*
X157162500Y-134540625D01*
X157162500Y-139303125D02*
X157162500Y-140096875D01*
X157162500Y-132159375D02*
X157162500Y-131365625D01*
X157162500Y-138509375D02*
X157162500Y-137715625D01*
X157162500Y-136921875D02*
X157162500Y-136128125D01*
X157162500Y-142478125D02*
X157162500Y-143271875D01*
X154781250Y-140890625D02*
X154781250Y-141684375D01*
X154781250Y-133746875D02*
X154781250Y-132953125D01*
X154781250Y-144065625D02*
X154781250Y-144859375D01*
X154781250Y-135334375D02*
X154781250Y-134540625D01*
X154781250Y-139303125D02*
X154781250Y-140096875D01*
X154781250Y-132159375D02*
X154781250Y-131365625D01*
X154781250Y-138509375D02*
X154781250Y-137715625D01*
X154781250Y-142478125D02*
X154781250Y-143271875D01*
X154781250Y-136921875D02*
X154781250Y-136128125D01*
X152400000Y-142478125D02*
X152400000Y-143271875D01*
X152400000Y-140890625D02*
X152400000Y-141684375D01*
X152400000Y-135334375D02*
X152400000Y-134540625D01*
X152400000Y-139303125D02*
X152400000Y-140096875D01*
X152400000Y-133746875D02*
X152400000Y-132953125D01*
X152400000Y-138509375D02*
X152400000Y-137715625D01*
X152400000Y-132159375D02*
X152400000Y-131365625D01*
X152400000Y-144065625D02*
X152400000Y-144859375D01*
X152400000Y-136921875D02*
X152400000Y-136128125D01*
X150018750Y-140890625D02*
X150018750Y-141684375D01*
X150018750Y-142478125D02*
X150018750Y-143271875D01*
X150018750Y-136921875D02*
X150018750Y-136128125D01*
X150018750Y-144065625D02*
X150018750Y-144859375D01*
X150018750Y-135334375D02*
X150018750Y-134540625D01*
X150018750Y-132159375D02*
X150018750Y-131365625D01*
X150018750Y-133746875D02*
X150018750Y-132953125D01*
X150018750Y-139303125D02*
X150018750Y-140096875D01*
X150018750Y-138509375D02*
X150018750Y-137715625D01*
X59946932Y-144952249D02*
X59635065Y-143485028D01*
X54664935Y-146074972D02*
X59946932Y-144952249D01*
X54353068Y-144607751D02*
X54664935Y-146074972D01*
X59635065Y-143485028D02*
X54353068Y-144607751D01*
X56556970Y-144394882D02*
X56764882Y-145373030D01*
X57743030Y-145165118D02*
X56758741Y-144863165D01*
X57535118Y-144186970D02*
X57743030Y-145165118D01*
X56758741Y-144863165D02*
X57535118Y-144186970D01*
X60063570Y-159737354D02*
X59085423Y-159945266D01*
X59085423Y-159945266D02*
X58877511Y-158967118D01*
X57152807Y-146043288D02*
X56174659Y-146251200D01*
X56174659Y-146251200D02*
X56382571Y-147229347D01*
X70076637Y-144318584D02*
X69868725Y-143340436D01*
X69868725Y-143340436D02*
X68890578Y-143548348D01*
X71801341Y-157242414D02*
X72779489Y-157034502D01*
X72779489Y-157034502D02*
X72571577Y-156056355D01*
D13*
X187242000Y-113505000D02*
X187242000Y-106205000D01*
X192742000Y-113505000D02*
X192742000Y-106205000D01*
X192742000Y-106205000D02*
X191592000Y-106205000D01*
X192742000Y-97696000D02*
X191592000Y-97696000D01*
X192742000Y-104996000D02*
X192742000Y-97696000D01*
X187242000Y-104996000D02*
X187242000Y-97696000D01*
D11*
X76343750Y-62056250D02*
X76343750Y-63056250D01*
X77343750Y-62056250D02*
X76343750Y-62056250D01*
X76343750Y-76056250D02*
X77343750Y-76056250D01*
X76343750Y-75056250D02*
X76343750Y-76056250D01*
X90343750Y-76056250D02*
X90343750Y-75056250D01*
X89343750Y-76056250D02*
X90343750Y-76056250D01*
X90343750Y-62056250D02*
X90343750Y-63056250D01*
X89343750Y-62056250D02*
X90343750Y-62056250D01*
X89343750Y-81106250D02*
X90343750Y-81106250D01*
X90343750Y-81106250D02*
X90343750Y-82106250D01*
X89343750Y-95106250D02*
X90343750Y-95106250D01*
X90343750Y-95106250D02*
X90343750Y-94106250D01*
X76343750Y-94106250D02*
X76343750Y-95106250D01*
X76343750Y-95106250D02*
X77343750Y-95106250D01*
X77343750Y-81106250D02*
X76343750Y-81106250D01*
X76343750Y-81106250D02*
X76343750Y-82106250D01*
X166543750Y-145112500D02*
X166543750Y-144112500D01*
X165543750Y-145112500D02*
X166543750Y-145112500D01*
X166543750Y-131112500D02*
X165543750Y-131112500D01*
X166543750Y-132112500D02*
X166543750Y-131112500D01*
X152543750Y-131112500D02*
X152543750Y-132112500D01*
X153543750Y-131112500D02*
X152543750Y-131112500D01*
X152543750Y-145112500D02*
X152543750Y-144112500D01*
X153543750Y-145112500D02*
X152543750Y-145112500D01*
X174975000Y-145112500D02*
X173975000Y-145112500D01*
X173975000Y-145112500D02*
X173975000Y-144112500D01*
X174975000Y-131112500D02*
X173975000Y-131112500D01*
X173975000Y-131112500D02*
X173975000Y-132112500D01*
X187975000Y-132112500D02*
X187975000Y-131112500D01*
X187975000Y-131112500D02*
X186975000Y-131112500D01*
X186975000Y-145112500D02*
X187975000Y-145112500D01*
X187975000Y-145112500D02*
X187975000Y-144112500D01*
X69449990Y-79238482D02*
X69564276Y-79276577D01*
X69602371Y-79314672D01*
X69640466Y-79390863D01*
X69640466Y-79505148D01*
X69602371Y-79581339D01*
X69564276Y-79619434D01*
X69488085Y-79657529D01*
X69183323Y-79657529D01*
X69183323Y-78857529D01*
X69449990Y-78857529D01*
X69526180Y-78895625D01*
X69564276Y-78933720D01*
X69602371Y-79009910D01*
X69602371Y-79086101D01*
X69564276Y-79162291D01*
X69526180Y-79200386D01*
X69449990Y-79238482D01*
X69183323Y-79238482D01*
X69945228Y-78933720D02*
X69983323Y-78895625D01*
X70059514Y-78857529D01*
X70249990Y-78857529D01*
X70326180Y-78895625D01*
X70364276Y-78933720D01*
X70402371Y-79009910D01*
X70402371Y-79086101D01*
X70364276Y-79200386D01*
X69907133Y-79657529D01*
X70402371Y-79657529D01*
X69507133Y-71618482D02*
X69240466Y-71618482D01*
X69240466Y-72037529D02*
X69240466Y-71237529D01*
X69621419Y-71237529D01*
X69849990Y-71237529D02*
X70383323Y-71237529D01*
X70040466Y-72037529D01*
X69507133Y-69078482D02*
X69240466Y-69078482D01*
X69240466Y-69497529D02*
X69240466Y-68697529D01*
X69621419Y-68697529D01*
X70269038Y-68697529D02*
X70116657Y-68697529D01*
X70040466Y-68735625D01*
X70002371Y-68773720D01*
X69926180Y-68888005D01*
X69888085Y-69040386D01*
X69888085Y-69345148D01*
X69926180Y-69421339D01*
X69964276Y-69459434D01*
X70040466Y-69497529D01*
X70192847Y-69497529D01*
X70269038Y-69459434D01*
X70307133Y-69421339D01*
X70345228Y-69345148D01*
X70345228Y-69154672D01*
X70307133Y-69078482D01*
X70269038Y-69040386D01*
X70192847Y-69002291D01*
X70040466Y-69002291D01*
X69964276Y-69040386D01*
X69926180Y-69078482D01*
X69888085Y-69154672D01*
X69507133Y-66538482D02*
X69240466Y-66538482D01*
X69240466Y-66957529D02*
X69240466Y-66157529D01*
X69621419Y-66157529D01*
X70307133Y-66157529D02*
X69926180Y-66157529D01*
X69888085Y-66538482D01*
X69926180Y-66500386D01*
X70002371Y-66462291D01*
X70192847Y-66462291D01*
X70269038Y-66500386D01*
X70307133Y-66538482D01*
X70345228Y-66614672D01*
X70345228Y-66805148D01*
X70307133Y-66881339D01*
X70269038Y-66919434D01*
X70192847Y-66957529D01*
X70002371Y-66957529D01*
X69926180Y-66919434D01*
X69888085Y-66881339D01*
X69221419Y-54257529D02*
X68954752Y-53876577D01*
X68764276Y-54257529D02*
X68764276Y-53457529D01*
X69069038Y-53457529D01*
X69145228Y-53495625D01*
X69183323Y-53533720D01*
X69221419Y-53609910D01*
X69221419Y-53724196D01*
X69183323Y-53800386D01*
X69145228Y-53838482D01*
X69069038Y-53876577D01*
X68764276Y-53876577D01*
X69526180Y-54028958D02*
X69907133Y-54028958D01*
X69449990Y-54257529D02*
X69716657Y-53457529D01*
X69983323Y-54257529D01*
X70173800Y-53457529D02*
X70364276Y-54257529D01*
X70516657Y-53686101D01*
X70669038Y-54257529D01*
X70859514Y-53457529D01*
X69164276Y-56035625D02*
X69088085Y-55997529D01*
X68973800Y-55997529D01*
X68859514Y-56035625D01*
X68783323Y-56111815D01*
X68745228Y-56188005D01*
X68707133Y-56340386D01*
X68707133Y-56454672D01*
X68745228Y-56607053D01*
X68783323Y-56683244D01*
X68859514Y-56759434D01*
X68973800Y-56797529D01*
X69049990Y-56797529D01*
X69164276Y-56759434D01*
X69202371Y-56721339D01*
X69202371Y-56454672D01*
X69049990Y-56454672D01*
X69545228Y-56797529D02*
X69545228Y-55997529D01*
X70002371Y-56797529D01*
X70002371Y-55997529D01*
X70383323Y-56797529D02*
X70383323Y-55997529D01*
X70573800Y-55997529D01*
X70688085Y-56035625D01*
X70764276Y-56111815D01*
X70802371Y-56188005D01*
X70840466Y-56340386D01*
X70840466Y-56454672D01*
X70802371Y-56607053D01*
X70764276Y-56683244D01*
X70688085Y-56759434D01*
X70573800Y-56797529D01*
X70383323Y-56797529D01*
X69512586Y-59269434D02*
X69626872Y-59307529D01*
X69817348Y-59307529D01*
X69893539Y-59269434D01*
X69931634Y-59231339D01*
X69969729Y-59155148D01*
X69969729Y-59078958D01*
X69931634Y-59002767D01*
X69893539Y-58964672D01*
X69817348Y-58926577D01*
X69664967Y-58888482D01*
X69588777Y-58850386D01*
X69550681Y-58812291D01*
X69512586Y-58736101D01*
X69512586Y-58659910D01*
X69550681Y-58583720D01*
X69588777Y-58545625D01*
X69664967Y-58507529D01*
X69855443Y-58507529D01*
X69969729Y-58545625D01*
X70198300Y-58507529D02*
X70655443Y-58507529D01*
X70426872Y-59307529D02*
X70426872Y-58507529D01*
X68707133Y-61077529D02*
X68973800Y-61877529D01*
X69240466Y-61077529D01*
X69964276Y-61801339D02*
X69926180Y-61839434D01*
X69811895Y-61877529D01*
X69735704Y-61877529D01*
X69621419Y-61839434D01*
X69545228Y-61763244D01*
X69507133Y-61687053D01*
X69469038Y-61534672D01*
X69469038Y-61420386D01*
X69507133Y-61268005D01*
X69545228Y-61191815D01*
X69621419Y-61115625D01*
X69735704Y-61077529D01*
X69811895Y-61077529D01*
X69926180Y-61115625D01*
X69964276Y-61153720D01*
X70764276Y-61801339D02*
X70726180Y-61839434D01*
X70611895Y-61877529D01*
X70535704Y-61877529D01*
X70421419Y-61839434D01*
X70345228Y-61763244D01*
X70307133Y-61687053D01*
X70269038Y-61534672D01*
X70269038Y-61420386D01*
X70307133Y-61268005D01*
X70345228Y-61191815D01*
X70421419Y-61115625D01*
X70535704Y-61077529D01*
X70611895Y-61077529D01*
X70726180Y-61115625D01*
X70764276Y-61153720D01*
X69507133Y-63998482D02*
X69240466Y-63998482D01*
X69240466Y-64417529D02*
X69240466Y-63617529D01*
X69621419Y-63617529D01*
X70269038Y-63884196D02*
X70269038Y-64417529D01*
X70078561Y-63579434D02*
X69888085Y-64150863D01*
X70383323Y-64150863D01*
X69449990Y-74158482D02*
X69564276Y-74196577D01*
X69602371Y-74234672D01*
X69640466Y-74310863D01*
X69640466Y-74425148D01*
X69602371Y-74501339D01*
X69564276Y-74539434D01*
X69488085Y-74577529D01*
X69183323Y-74577529D01*
X69183323Y-73777529D01*
X69449990Y-73777529D01*
X69526180Y-73815625D01*
X69564276Y-73853720D01*
X69602371Y-73929910D01*
X69602371Y-74006101D01*
X69564276Y-74082291D01*
X69526180Y-74120386D01*
X69449990Y-74158482D01*
X69183323Y-74158482D01*
X70402371Y-74577529D02*
X69945228Y-74577529D01*
X70173800Y-74577529D02*
X70173800Y-73777529D01*
X70097609Y-73891815D01*
X70021419Y-73968005D01*
X69945228Y-74006101D01*
X69449990Y-76698482D02*
X69564276Y-76736577D01*
X69602371Y-76774672D01*
X69640466Y-76850863D01*
X69640466Y-76965148D01*
X69602371Y-77041339D01*
X69564276Y-77079434D01*
X69488085Y-77117529D01*
X69183323Y-77117529D01*
X69183323Y-76317529D01*
X69449990Y-76317529D01*
X69526180Y-76355625D01*
X69564276Y-76393720D01*
X69602371Y-76469910D01*
X69602371Y-76546101D01*
X69564276Y-76622291D01*
X69526180Y-76660386D01*
X69449990Y-76698482D01*
X69183323Y-76698482D01*
X69907133Y-76317529D02*
X70402371Y-76317529D01*
X70135704Y-76622291D01*
X70249990Y-76622291D01*
X70326180Y-76660386D01*
X70364276Y-76698482D01*
X70402371Y-76774672D01*
X70402371Y-76965148D01*
X70364276Y-77041339D01*
X70326180Y-77079434D01*
X70249990Y-77117529D01*
X70021419Y-77117529D01*
X69945228Y-77079434D01*
X69907133Y-77041339D01*
X69449990Y-81778482D02*
X69564276Y-81816577D01*
X69602371Y-81854672D01*
X69640466Y-81930863D01*
X69640466Y-82045148D01*
X69602371Y-82121339D01*
X69564276Y-82159434D01*
X69488085Y-82197529D01*
X69183323Y-82197529D01*
X69183323Y-81397529D01*
X69449990Y-81397529D01*
X69526180Y-81435625D01*
X69564276Y-81473720D01*
X69602371Y-81549910D01*
X69602371Y-81626101D01*
X69564276Y-81702291D01*
X69526180Y-81740386D01*
X69449990Y-81778482D01*
X69183323Y-81778482D01*
X70326180Y-81397529D02*
X70173800Y-81397529D01*
X70097609Y-81435625D01*
X70059514Y-81473720D01*
X69983323Y-81588005D01*
X69945228Y-81740386D01*
X69945228Y-82045148D01*
X69983323Y-82121339D01*
X70021419Y-82159434D01*
X70097609Y-82197529D01*
X70249990Y-82197529D01*
X70326180Y-82159434D01*
X70364276Y-82121339D01*
X70402371Y-82045148D01*
X70402371Y-81854672D01*
X70364276Y-81778482D01*
X70326180Y-81740386D01*
X70249990Y-81702291D01*
X70097609Y-81702291D01*
X70021419Y-81740386D01*
X69983323Y-81778482D01*
X69945228Y-81854672D01*
X58527990Y-81778482D02*
X58642276Y-81816577D01*
X58680371Y-81854672D01*
X58718466Y-81930863D01*
X58718466Y-82045148D01*
X58680371Y-82121339D01*
X58642276Y-82159434D01*
X58566085Y-82197529D01*
X58261323Y-82197529D01*
X58261323Y-81397529D01*
X58527990Y-81397529D01*
X58604180Y-81435625D01*
X58642276Y-81473720D01*
X58680371Y-81549910D01*
X58680371Y-81626101D01*
X58642276Y-81702291D01*
X58604180Y-81740386D01*
X58527990Y-81778482D01*
X58261323Y-81778482D01*
X59442276Y-81397529D02*
X59061323Y-81397529D01*
X59023228Y-81778482D01*
X59061323Y-81740386D01*
X59137514Y-81702291D01*
X59327990Y-81702291D01*
X59404180Y-81740386D01*
X59442276Y-81778482D01*
X59480371Y-81854672D01*
X59480371Y-82045148D01*
X59442276Y-82121339D01*
X59404180Y-82159434D01*
X59327990Y-82197529D01*
X59137514Y-82197529D01*
X59061323Y-82159434D01*
X59023228Y-82121339D01*
X58527990Y-79238482D02*
X58642276Y-79276577D01*
X58680371Y-79314672D01*
X58718466Y-79390863D01*
X58718466Y-79505148D01*
X58680371Y-79581339D01*
X58642276Y-79619434D01*
X58566085Y-79657529D01*
X58261323Y-79657529D01*
X58261323Y-78857529D01*
X58527990Y-78857529D01*
X58604180Y-78895625D01*
X58642276Y-78933720D01*
X58680371Y-79009910D01*
X58680371Y-79086101D01*
X58642276Y-79162291D01*
X58604180Y-79200386D01*
X58527990Y-79238482D01*
X58261323Y-79238482D01*
X59404180Y-79124196D02*
X59404180Y-79657529D01*
X59213704Y-78819434D02*
X59023228Y-79390863D01*
X59518466Y-79390863D01*
X58299419Y-76698482D02*
X58566085Y-76698482D01*
X58680371Y-77117529D02*
X58299419Y-77117529D01*
X58299419Y-76317529D01*
X58680371Y-76317529D01*
X59366085Y-76317529D02*
X59213704Y-76317529D01*
X59137514Y-76355625D01*
X59099419Y-76393720D01*
X59023228Y-76508005D01*
X58985133Y-76660386D01*
X58985133Y-76965148D01*
X59023228Y-77041339D01*
X59061323Y-77079434D01*
X59137514Y-77117529D01*
X59289895Y-77117529D01*
X59366085Y-77079434D01*
X59404180Y-77041339D01*
X59442276Y-76965148D01*
X59442276Y-76774672D01*
X59404180Y-76698482D01*
X59366085Y-76660386D01*
X59289895Y-76622291D01*
X59137514Y-76622291D01*
X59061323Y-76660386D01*
X59023228Y-76698482D01*
X58985133Y-76774672D01*
X58261323Y-74577529D02*
X58261323Y-73777529D01*
X58451800Y-73777529D01*
X58566085Y-73815625D01*
X58642276Y-73891815D01*
X58680371Y-73968005D01*
X58718466Y-74120386D01*
X58718466Y-74234672D01*
X58680371Y-74387053D01*
X58642276Y-74463244D01*
X58566085Y-74539434D01*
X58451800Y-74577529D01*
X58261323Y-74577529D01*
X58985133Y-73777529D02*
X59518466Y-73777529D01*
X59175609Y-74577529D01*
X58718466Y-71961339D02*
X58680371Y-71999434D01*
X58566085Y-72037529D01*
X58489895Y-72037529D01*
X58375609Y-71999434D01*
X58299419Y-71923244D01*
X58261323Y-71847053D01*
X58223228Y-71694672D01*
X58223228Y-71580386D01*
X58261323Y-71428005D01*
X58299419Y-71351815D01*
X58375609Y-71275625D01*
X58489895Y-71237529D01*
X58566085Y-71237529D01*
X58680371Y-71275625D01*
X58718466Y-71313720D01*
X59404180Y-71237529D02*
X59251800Y-71237529D01*
X59175609Y-71275625D01*
X59137514Y-71313720D01*
X59061323Y-71428005D01*
X59023228Y-71580386D01*
X59023228Y-71885148D01*
X59061323Y-71961339D01*
X59099419Y-71999434D01*
X59175609Y-72037529D01*
X59327990Y-72037529D01*
X59404180Y-71999434D01*
X59442276Y-71961339D01*
X59480371Y-71885148D01*
X59480371Y-71694672D01*
X59442276Y-71618482D01*
X59404180Y-71580386D01*
X59327990Y-71542291D01*
X59175609Y-71542291D01*
X59099419Y-71580386D01*
X59061323Y-71618482D01*
X59023228Y-71694672D01*
X58261323Y-69497529D02*
X58261323Y-68697529D01*
X58451800Y-68697529D01*
X58566085Y-68735625D01*
X58642276Y-68811815D01*
X58680371Y-68888005D01*
X58718466Y-69040386D01*
X58718466Y-69154672D01*
X58680371Y-69307053D01*
X58642276Y-69383244D01*
X58566085Y-69459434D01*
X58451800Y-69497529D01*
X58261323Y-69497529D01*
X59404180Y-68964196D02*
X59404180Y-69497529D01*
X59213704Y-68659434D02*
X59023228Y-69230863D01*
X59518466Y-69230863D01*
X58242276Y-58575625D02*
X58166085Y-58537529D01*
X58051800Y-58537529D01*
X57937514Y-58575625D01*
X57861323Y-58651815D01*
X57823228Y-58728005D01*
X57785133Y-58880386D01*
X57785133Y-58994672D01*
X57823228Y-59147053D01*
X57861323Y-59223244D01*
X57937514Y-59299434D01*
X58051800Y-59337529D01*
X58127990Y-59337529D01*
X58242276Y-59299434D01*
X58280371Y-59261339D01*
X58280371Y-58994672D01*
X58127990Y-58994672D01*
X58623228Y-59337529D02*
X58623228Y-58537529D01*
X59080371Y-59337529D01*
X59080371Y-58537529D01*
X59461323Y-59337529D02*
X59461323Y-58537529D01*
X59651800Y-58537529D01*
X59766085Y-58575625D01*
X59842276Y-58651815D01*
X59880371Y-58728005D01*
X59918466Y-58880386D01*
X59918466Y-58994672D01*
X59880371Y-59147053D01*
X59842276Y-59223244D01*
X59766085Y-59299434D01*
X59651800Y-59337529D01*
X59461323Y-59337529D01*
X58242276Y-61115625D02*
X58166085Y-61077529D01*
X58051800Y-61077529D01*
X57937514Y-61115625D01*
X57861323Y-61191815D01*
X57823228Y-61268005D01*
X57785133Y-61420386D01*
X57785133Y-61534672D01*
X57823228Y-61687053D01*
X57861323Y-61763244D01*
X57937514Y-61839434D01*
X58051800Y-61877529D01*
X58127990Y-61877529D01*
X58242276Y-61839434D01*
X58280371Y-61801339D01*
X58280371Y-61534672D01*
X58127990Y-61534672D01*
X58623228Y-61877529D02*
X58623228Y-61077529D01*
X59080371Y-61877529D01*
X59080371Y-61077529D01*
X59461323Y-61877529D02*
X59461323Y-61077529D01*
X59651800Y-61077529D01*
X59766085Y-61115625D01*
X59842276Y-61191815D01*
X59880371Y-61268005D01*
X59918466Y-61420386D01*
X59918466Y-61534672D01*
X59880371Y-61687053D01*
X59842276Y-61763244D01*
X59766085Y-61839434D01*
X59651800Y-61877529D01*
X59461323Y-61877529D01*
X58261323Y-64417529D02*
X58261323Y-63617529D01*
X58451800Y-63617529D01*
X58566085Y-63655625D01*
X58642276Y-63731815D01*
X58680371Y-63808005D01*
X58718466Y-63960386D01*
X58718466Y-64074672D01*
X58680371Y-64227053D01*
X58642276Y-64303244D01*
X58566085Y-64379434D01*
X58451800Y-64417529D01*
X58261323Y-64417529D01*
X59480371Y-64417529D02*
X59023228Y-64417529D01*
X59251800Y-64417529D02*
X59251800Y-63617529D01*
X59175609Y-63731815D01*
X59099419Y-63808005D01*
X59023228Y-63846101D01*
X58261323Y-66957529D02*
X58261323Y-66157529D01*
X58451800Y-66157529D01*
X58566085Y-66195625D01*
X58642276Y-66271815D01*
X58680371Y-66348005D01*
X58718466Y-66500386D01*
X58718466Y-66614672D01*
X58680371Y-66767053D01*
X58642276Y-66843244D01*
X58566085Y-66919434D01*
X58451800Y-66957529D01*
X58261323Y-66957529D01*
X59213704Y-66157529D02*
X59289895Y-66157529D01*
X59366085Y-66195625D01*
X59404180Y-66233720D01*
X59442276Y-66309910D01*
X59480371Y-66462291D01*
X59480371Y-66652767D01*
X59442276Y-66805148D01*
X59404180Y-66881339D01*
X59366085Y-66919434D01*
X59289895Y-66957529D01*
X59213704Y-66957529D01*
X59137514Y-66919434D01*
X59099419Y-66881339D01*
X59061323Y-66805148D01*
X59023228Y-66652767D01*
X59023228Y-66462291D01*
X59061323Y-66309910D01*
X59099419Y-66233720D01*
X59137514Y-66195625D01*
X59213704Y-66157529D01*
X58261323Y-56797529D02*
X58261323Y-55997529D01*
X58451800Y-55997529D01*
X58566085Y-56035625D01*
X58642276Y-56111815D01*
X58680371Y-56188005D01*
X58718466Y-56340386D01*
X58718466Y-56454672D01*
X58680371Y-56607053D01*
X58642276Y-56683244D01*
X58566085Y-56759434D01*
X58451800Y-56797529D01*
X58261323Y-56797529D01*
X59023228Y-56073720D02*
X59061323Y-56035625D01*
X59137514Y-55997529D01*
X59327990Y-55997529D01*
X59404180Y-56035625D01*
X59442276Y-56073720D01*
X59480371Y-56149910D01*
X59480371Y-56226101D01*
X59442276Y-56340386D01*
X58985133Y-56797529D01*
X59480371Y-56797529D01*
X58550451Y-53457529D02*
X59007594Y-53457529D01*
X58779023Y-54257529D02*
X58779023Y-53457529D01*
X59198070Y-53457529D02*
X59731404Y-54257529D01*
X59731404Y-53457529D02*
X59198070Y-54257529D01*
X60188547Y-53457529D02*
X60264737Y-53457529D01*
X60340928Y-53495625D01*
X60379023Y-53533720D01*
X60417118Y-53609910D01*
X60455213Y-53762291D01*
X60455213Y-53952767D01*
X60417118Y-54105148D01*
X60379023Y-54181339D01*
X60340928Y-54219434D01*
X60264737Y-54257529D01*
X60188547Y-54257529D01*
X60112356Y-54219434D01*
X60074261Y-54181339D01*
X60036166Y-54105148D01*
X59998070Y-53952767D01*
X59998070Y-53762291D01*
X60036166Y-53609910D01*
X60074261Y-53533720D01*
X60112356Y-53495625D01*
X60188547Y-53457529D01*
X61369499Y-53419434D02*
X60683785Y-54448005D01*
X61636166Y-54257529D02*
X61636166Y-53457529D01*
X61826642Y-53457529D01*
X61940928Y-53495625D01*
X62017118Y-53571815D01*
X62055213Y-53648005D01*
X62093308Y-53800386D01*
X62093308Y-53914672D01*
X62055213Y-54067053D01*
X62017118Y-54143244D01*
X61940928Y-54219434D01*
X61826642Y-54257529D01*
X61636166Y-54257529D01*
X62359975Y-53457529D02*
X62855213Y-53457529D01*
X62588547Y-53762291D01*
X62702832Y-53762291D01*
X62779023Y-53800386D01*
X62817118Y-53838482D01*
X62855213Y-53914672D01*
X62855213Y-54105148D01*
X62817118Y-54181339D01*
X62779023Y-54219434D01*
X62702832Y-54257529D01*
X62474261Y-54257529D01*
X62398070Y-54219434D01*
X62359975Y-54181339D01*
X102552740Y-141913875D02*
X102597923Y-141943217D01*
X102651027Y-142009823D01*
X102690629Y-142196136D01*
X102669207Y-142278582D01*
X102639865Y-142323766D01*
X102573260Y-142376869D01*
X102498734Y-142392710D01*
X102379026Y-142379209D01*
X101836827Y-142027101D01*
X101939793Y-142511517D01*
X102085602Y-142831041D02*
X102056260Y-142876224D01*
X102011077Y-142846882D01*
X102040419Y-142801698D01*
X102085602Y-142831041D01*
X102011077Y-142846882D01*
X102856959Y-142978654D02*
X102967845Y-143500333D01*
X102114043Y-143331298D01*
X103110413Y-144171063D02*
X103031208Y-143798435D01*
X102650660Y-143840377D01*
X102695843Y-143869719D01*
X102748947Y-143936324D01*
X102788549Y-144122638D01*
X102767127Y-144205084D01*
X102737785Y-144250267D01*
X102671180Y-144303371D01*
X102484866Y-144342973D01*
X102402420Y-144321551D01*
X102357237Y-144292209D01*
X102304133Y-144225604D01*
X102264531Y-144039290D01*
X102285953Y-143956844D01*
X102315295Y-143911661D01*
X103189617Y-144543691D02*
X102556150Y-144678338D01*
X102489545Y-144731442D01*
X102460203Y-144776625D01*
X102438781Y-144859071D01*
X102470463Y-145008122D01*
X102523566Y-145074727D01*
X102568750Y-145104069D01*
X102651196Y-145125491D01*
X103284663Y-144990844D01*
X97894312Y-142904054D02*
X97939495Y-142933396D01*
X97992599Y-143000002D01*
X98032201Y-143186315D01*
X98010779Y-143268761D01*
X97981437Y-143313945D01*
X97914832Y-143367048D01*
X97840306Y-143382889D01*
X97720598Y-143369388D01*
X97178399Y-143017280D01*
X97281365Y-143501696D01*
X97427174Y-143821220D02*
X97397832Y-143866403D01*
X97352649Y-143837061D01*
X97381991Y-143791877D01*
X97427174Y-143821220D01*
X97352649Y-143837061D01*
X98131925Y-144021937D02*
X98177109Y-144051279D01*
X98230212Y-144117884D01*
X98269815Y-144304198D01*
X98248393Y-144386644D01*
X98219050Y-144431828D01*
X98152445Y-144484931D01*
X98077920Y-144500772D01*
X97958211Y-144487271D01*
X97416012Y-144135163D01*
X97518978Y-144619579D01*
X98451985Y-145161242D02*
X98372780Y-144788614D01*
X97992232Y-144830556D01*
X98037415Y-144859898D01*
X98090519Y-144926503D01*
X98130121Y-145112817D01*
X98108699Y-145195263D01*
X98079357Y-145240446D01*
X98012752Y-145293550D01*
X97826438Y-145333152D01*
X97743992Y-145311730D01*
X97698809Y-145282388D01*
X97645705Y-145215783D01*
X97606103Y-145029469D01*
X97627525Y-144947023D01*
X97656867Y-144901840D01*
X98531189Y-145533870D02*
X97897722Y-145668517D01*
X97831117Y-145721621D01*
X97801775Y-145766804D01*
X97780353Y-145849250D01*
X97812035Y-145998301D01*
X97865138Y-146064906D01*
X97910322Y-146094248D01*
X97992768Y-146115670D01*
X98626235Y-145981023D01*
X95763109Y-144330713D02*
X95808292Y-144360056D01*
X95861396Y-144426661D01*
X95900998Y-144612974D01*
X95879576Y-144695420D01*
X95850234Y-144740604D01*
X95783629Y-144793707D01*
X95709103Y-144809548D01*
X95589395Y-144796047D01*
X95047196Y-144443939D01*
X95150162Y-144928355D01*
X96003964Y-145097390D02*
X95370497Y-145232038D01*
X95303892Y-145285142D01*
X95274550Y-145330325D01*
X95253128Y-145412771D01*
X95284810Y-145561822D01*
X95337913Y-145628427D01*
X95383096Y-145657769D01*
X95465542Y-145679191D01*
X96099009Y-145544544D01*
X92622937Y-144491876D02*
X92527892Y-144044723D01*
X92575414Y-144268299D02*
X93357932Y-144101970D01*
X93230303Y-144051206D01*
X93139937Y-143992521D01*
X93086833Y-143925916D01*
X92768746Y-144811400D02*
X92739404Y-144856583D01*
X92694221Y-144827241D01*
X92723563Y-144782057D01*
X92768746Y-144811400D01*
X92694221Y-144827241D01*
X93540103Y-144959013D02*
X93650989Y-145480692D01*
X92797187Y-145311657D01*
X93793557Y-146151422D02*
X93714352Y-145778794D01*
X93333804Y-145820736D01*
X93378987Y-145850078D01*
X93432091Y-145916683D01*
X93471693Y-146102997D01*
X93450271Y-146185443D01*
X93420929Y-146230626D01*
X93354324Y-146283730D01*
X93168010Y-146323332D01*
X93085564Y-146301910D01*
X93040381Y-146272568D01*
X92987277Y-146205963D01*
X92947675Y-146019649D01*
X92969097Y-145937203D01*
X92998439Y-145892020D01*
X93872761Y-146524050D02*
X93239294Y-146658697D01*
X93172689Y-146711801D01*
X93143347Y-146756984D01*
X93121925Y-146839430D01*
X93153607Y-146988481D01*
X93206710Y-147055086D01*
X93251894Y-147084428D01*
X93334340Y-147105850D01*
X93967807Y-146971203D01*
X90372927Y-145359593D02*
X90277882Y-144912440D01*
X90325405Y-145136017D02*
X91107923Y-144969687D01*
X90980294Y-144918923D01*
X90889927Y-144860239D01*
X90836823Y-144793634D01*
X90518737Y-145679117D02*
X90489395Y-145724301D01*
X90444211Y-145694958D01*
X90473554Y-145649775D01*
X90518737Y-145679117D01*
X90444211Y-145694958D01*
X91385138Y-146273884D02*
X91305934Y-145901257D01*
X90925386Y-145943198D01*
X90970569Y-145972541D01*
X91023673Y-146039146D01*
X91063275Y-146225460D01*
X91041853Y-146307906D01*
X91012511Y-146353089D01*
X90945906Y-146406192D01*
X90759592Y-146445795D01*
X90677146Y-146424373D01*
X90631963Y-146395030D01*
X90578859Y-146328425D01*
X90539257Y-146142111D01*
X90560679Y-146059666D01*
X90590021Y-146014482D01*
X91464343Y-146646512D02*
X90830876Y-146781159D01*
X90764271Y-146834263D01*
X90734928Y-146879446D01*
X90713506Y-146961892D01*
X90745188Y-147110943D01*
X90798292Y-147177548D01*
X90843475Y-147206891D01*
X90925921Y-147228313D01*
X91559388Y-147093665D01*
X87964509Y-145482055D02*
X87869464Y-145034902D01*
X87916986Y-145258478D02*
X88699504Y-145092149D01*
X88571875Y-145041385D01*
X88481509Y-144982700D01*
X88428405Y-144916095D01*
X88110318Y-145801579D02*
X88080976Y-145846762D01*
X88035793Y-145817420D01*
X88065135Y-145772236D01*
X88110318Y-145801579D01*
X88035793Y-145817420D01*
X88815069Y-146002296D02*
X88860253Y-146031638D01*
X88913356Y-146098243D01*
X88952959Y-146284557D01*
X88931537Y-146367003D01*
X88902194Y-146412187D01*
X88835589Y-146465290D01*
X88761064Y-146481131D01*
X88641355Y-146467630D01*
X88099156Y-146115522D01*
X88202122Y-146599938D01*
X89135129Y-147141601D02*
X89055924Y-146768973D01*
X88675376Y-146810915D01*
X88720559Y-146840257D01*
X88773663Y-146906862D01*
X88813265Y-147093176D01*
X88791843Y-147175622D01*
X88762501Y-147220805D01*
X88695896Y-147273909D01*
X88509582Y-147313511D01*
X88427136Y-147292089D01*
X88381953Y-147262747D01*
X88328849Y-147196142D01*
X88289247Y-147009828D01*
X88310669Y-146927382D01*
X88340011Y-146882199D01*
X89214333Y-147514229D02*
X88580866Y-147648876D01*
X88514261Y-147701980D01*
X88484919Y-147747163D01*
X88463497Y-147829609D01*
X88495179Y-147978660D01*
X88548282Y-148045265D01*
X88593466Y-148074607D01*
X88675912Y-148096029D01*
X89309379Y-147961382D01*
X53596571Y-155591320D02*
X53551388Y-155561978D01*
X53498284Y-155495372D01*
X53458682Y-155309059D01*
X53480104Y-155226613D01*
X53509446Y-155181429D01*
X53576051Y-155128326D01*
X53650577Y-155112485D01*
X53770285Y-155125986D01*
X54312484Y-155478094D01*
X54209518Y-154993678D01*
X54063709Y-154674154D02*
X54093051Y-154628971D01*
X54138234Y-154658313D01*
X54108892Y-154703497D01*
X54063709Y-154674154D01*
X54138234Y-154658313D01*
X53292352Y-154526541D02*
X53181466Y-154004862D01*
X54035268Y-154173897D01*
X53038898Y-153334132D02*
X53118103Y-153706760D01*
X53498651Y-153664818D01*
X53453468Y-153635476D01*
X53400364Y-153568871D01*
X53360762Y-153382557D01*
X53382184Y-153300111D01*
X53411526Y-153254928D01*
X53478131Y-153201824D01*
X53664445Y-153162222D01*
X53746891Y-153183644D01*
X53792074Y-153212986D01*
X53845178Y-153279591D01*
X53884780Y-153465905D01*
X53863358Y-153548351D01*
X53834016Y-153593534D01*
X52959694Y-152961504D02*
X53593161Y-152826857D01*
X53659766Y-152773753D01*
X53689108Y-152728570D01*
X53710530Y-152646124D01*
X53678848Y-152497073D01*
X53625745Y-152430468D01*
X53580561Y-152401126D01*
X53498115Y-152379704D01*
X52864648Y-152514351D01*
X58254999Y-154601141D02*
X58209816Y-154571799D01*
X58156712Y-154505193D01*
X58117110Y-154318880D01*
X58138532Y-154236434D01*
X58167874Y-154191250D01*
X58234479Y-154138147D01*
X58309005Y-154122306D01*
X58428713Y-154135807D01*
X58970912Y-154487915D01*
X58867946Y-154003499D01*
X58722137Y-153683975D02*
X58751479Y-153638792D01*
X58796662Y-153668134D01*
X58767320Y-153713318D01*
X58722137Y-153683975D01*
X58796662Y-153668134D01*
X58017386Y-153483258D02*
X57972202Y-153453916D01*
X57919099Y-153387311D01*
X57879496Y-153200997D01*
X57900918Y-153118551D01*
X57930261Y-153073367D01*
X57996866Y-153020264D01*
X58071391Y-153004423D01*
X58191100Y-153017924D01*
X58733299Y-153370032D01*
X58630333Y-152885616D01*
X57697326Y-152343953D02*
X57776531Y-152716581D01*
X58157079Y-152674639D01*
X58111896Y-152645297D01*
X58058792Y-152578692D01*
X58019190Y-152392378D01*
X58040612Y-152309932D01*
X58069954Y-152264749D01*
X58136559Y-152211645D01*
X58322873Y-152172043D01*
X58405319Y-152193465D01*
X58450502Y-152222807D01*
X58503606Y-152289412D01*
X58543208Y-152475726D01*
X58521786Y-152558172D01*
X58492444Y-152603355D01*
X57618122Y-151971325D02*
X58251589Y-151836678D01*
X58318194Y-151783574D01*
X58347536Y-151738391D01*
X58368958Y-151655945D01*
X58337276Y-151506894D01*
X58284173Y-151440289D01*
X58238989Y-151410947D01*
X58156543Y-151389525D01*
X57523076Y-151524172D01*
X60386202Y-153174482D02*
X60341019Y-153145139D01*
X60287915Y-153078534D01*
X60248313Y-152892221D01*
X60269735Y-152809775D01*
X60299077Y-152764591D01*
X60365682Y-152711488D01*
X60440208Y-152695647D01*
X60559916Y-152709148D01*
X61102115Y-153061256D01*
X60999149Y-152576840D01*
X60145347Y-152407805D02*
X60778814Y-152273157D01*
X60845419Y-152220053D01*
X60874761Y-152174870D01*
X60896183Y-152092424D01*
X60864501Y-151943373D01*
X60811398Y-151876768D01*
X60766215Y-151847426D01*
X60683769Y-151826004D01*
X60050302Y-151960651D01*
X65776384Y-152145602D02*
X65871429Y-152592755D01*
X65823906Y-152369178D02*
X65041388Y-152535508D01*
X65169017Y-152586272D01*
X65259384Y-152644956D01*
X65312488Y-152711561D01*
X65630574Y-151826078D02*
X65659916Y-151780894D01*
X65705100Y-151810237D01*
X65675757Y-151855420D01*
X65630574Y-151826078D01*
X65705100Y-151810237D01*
X64764173Y-151231311D02*
X64843377Y-151603938D01*
X65223925Y-151561997D01*
X65178742Y-151532654D01*
X65125638Y-151466049D01*
X65086036Y-151279735D01*
X65107458Y-151197289D01*
X65136800Y-151152106D01*
X65203405Y-151099003D01*
X65389719Y-151059400D01*
X65472165Y-151080822D01*
X65517348Y-151110165D01*
X65570452Y-151176770D01*
X65610054Y-151363084D01*
X65588632Y-151445529D01*
X65559290Y-151490713D01*
X64684968Y-150858683D02*
X65318435Y-150724036D01*
X65385040Y-150670932D01*
X65414383Y-150625749D01*
X65435805Y-150543303D01*
X65404123Y-150394252D01*
X65351019Y-150327647D01*
X65305836Y-150298304D01*
X65223390Y-150276882D01*
X64589923Y-150411530D01*
X63526374Y-153013319D02*
X63621419Y-153460472D01*
X63573897Y-153236896D02*
X62791379Y-153403225D01*
X62919008Y-153453989D01*
X63009374Y-153512674D01*
X63062478Y-153579279D01*
X63380565Y-152693795D02*
X63409907Y-152648612D01*
X63455090Y-152677954D01*
X63425748Y-152723138D01*
X63380565Y-152693795D01*
X63455090Y-152677954D01*
X62609208Y-152546182D02*
X62498322Y-152024503D01*
X63352124Y-152193538D01*
X62355754Y-151353773D02*
X62434959Y-151726401D01*
X62815507Y-151684459D01*
X62770324Y-151655117D01*
X62717220Y-151588512D01*
X62677618Y-151402198D01*
X62699040Y-151319752D01*
X62728382Y-151274569D01*
X62794987Y-151221465D01*
X62981301Y-151181863D01*
X63063747Y-151203285D01*
X63108930Y-151232627D01*
X63162034Y-151299232D01*
X63201636Y-151485546D01*
X63180214Y-151567992D01*
X63150872Y-151613175D01*
X62276550Y-150981145D02*
X62910017Y-150846498D01*
X62976622Y-150793394D01*
X63005964Y-150748211D01*
X63027386Y-150665765D01*
X62995704Y-150516714D01*
X62942601Y-150450109D01*
X62897417Y-150420767D01*
X62814971Y-150399345D01*
X62181504Y-150533992D01*
X68184802Y-152023140D02*
X68279847Y-152470293D01*
X68232325Y-152246717D02*
X67449807Y-152413046D01*
X67577436Y-152463810D01*
X67667802Y-152522495D01*
X67720906Y-152589100D01*
X68038993Y-151703616D02*
X68068335Y-151658433D01*
X68113518Y-151687775D01*
X68084176Y-151732959D01*
X68038993Y-151703616D01*
X68113518Y-151687775D01*
X67334242Y-151502899D02*
X67289058Y-151473557D01*
X67235955Y-151406952D01*
X67196352Y-151220638D01*
X67217774Y-151138192D01*
X67247117Y-151093008D01*
X67313722Y-151039905D01*
X67388247Y-151024064D01*
X67507956Y-151037565D01*
X68050155Y-151389673D01*
X67947189Y-150905257D01*
X67014182Y-150363594D02*
X67093387Y-150736222D01*
X67473935Y-150694280D01*
X67428752Y-150664938D01*
X67375648Y-150598333D01*
X67336046Y-150412019D01*
X67357468Y-150329573D01*
X67386810Y-150284390D01*
X67453415Y-150231286D01*
X67639729Y-150191684D01*
X67722175Y-150213106D01*
X67767358Y-150242448D01*
X67820462Y-150309053D01*
X67860064Y-150495367D01*
X67838642Y-150577813D01*
X67809300Y-150622996D01*
X66934978Y-149990966D02*
X67568445Y-149856319D01*
X67635050Y-149803215D01*
X67664392Y-149758032D01*
X67685814Y-149675586D01*
X67654132Y-149526535D01*
X67601029Y-149459930D01*
X67555845Y-149430588D01*
X67473399Y-149409166D01*
X66839932Y-149543813D01*
X161096279Y-139255357D02*
X161096279Y-139712500D01*
X161096279Y-139483928D02*
X160296279Y-139483928D01*
X160410565Y-139560119D01*
X160486755Y-139636309D01*
X160524851Y-139712500D01*
X161020089Y-138912500D02*
X161058184Y-138874404D01*
X161096279Y-138912500D01*
X161058184Y-138950595D01*
X161020089Y-138912500D01*
X161096279Y-138912500D01*
X160372470Y-138569642D02*
X160334375Y-138531547D01*
X160296279Y-138455357D01*
X160296279Y-138264880D01*
X160334375Y-138188690D01*
X160372470Y-138150595D01*
X160448660Y-138112500D01*
X160524851Y-138112500D01*
X160639136Y-138150595D01*
X161096279Y-138607738D01*
X161096279Y-138112500D01*
X160296279Y-137388690D02*
X160296279Y-137769642D01*
X160677232Y-137807738D01*
X160639136Y-137769642D01*
X160601041Y-137693452D01*
X160601041Y-137502976D01*
X160639136Y-137426785D01*
X160677232Y-137388690D01*
X160753422Y-137350595D01*
X160943898Y-137350595D01*
X161020089Y-137388690D01*
X161058184Y-137426785D01*
X161096279Y-137502976D01*
X161096279Y-137693452D01*
X161058184Y-137769642D01*
X161020089Y-137807738D01*
X160296279Y-137007738D02*
X160943898Y-137007738D01*
X161020089Y-136969642D01*
X161058184Y-136931547D01*
X161096279Y-136855357D01*
X161096279Y-136702976D01*
X161058184Y-136626785D01*
X161020089Y-136588690D01*
X160943898Y-136550595D01*
X160296279Y-136550595D01*
X156333779Y-139255357D02*
X156333779Y-139712500D01*
X156333779Y-139483928D02*
X155533779Y-139483928D01*
X155648065Y-139560119D01*
X155724255Y-139636309D01*
X155762351Y-139712500D01*
X156257589Y-138912500D02*
X156295684Y-138874404D01*
X156333779Y-138912500D01*
X156295684Y-138950595D01*
X156257589Y-138912500D01*
X156333779Y-138912500D01*
X155533779Y-138607738D02*
X155533779Y-138074404D01*
X156333779Y-138417261D01*
X155533779Y-137388690D02*
X155533779Y-137769642D01*
X155914732Y-137807738D01*
X155876636Y-137769642D01*
X155838541Y-137693452D01*
X155838541Y-137502976D01*
X155876636Y-137426785D01*
X155914732Y-137388690D01*
X155990922Y-137350595D01*
X156181398Y-137350595D01*
X156257589Y-137388690D01*
X156295684Y-137426785D01*
X156333779Y-137502976D01*
X156333779Y-137693452D01*
X156295684Y-137769642D01*
X156257589Y-137807738D01*
X155533779Y-137007738D02*
X156181398Y-137007738D01*
X156257589Y-136969642D01*
X156295684Y-136931547D01*
X156333779Y-136855357D01*
X156333779Y-136702976D01*
X156295684Y-136626785D01*
X156257589Y-136588690D01*
X156181398Y-136550595D01*
X155533779Y-136550595D01*
X158715029Y-138874404D02*
X158715029Y-139331547D01*
X158715029Y-139102976D02*
X157915029Y-139102976D01*
X158029315Y-139179166D01*
X158105505Y-139255357D01*
X158143601Y-139331547D01*
X158638839Y-138531547D02*
X158676934Y-138493452D01*
X158715029Y-138531547D01*
X158676934Y-138569642D01*
X158638839Y-138531547D01*
X158715029Y-138531547D01*
X157915029Y-137769642D02*
X157915029Y-138150595D01*
X158295982Y-138188690D01*
X158257886Y-138150595D01*
X158219791Y-138074404D01*
X158219791Y-137883928D01*
X158257886Y-137807738D01*
X158295982Y-137769642D01*
X158372172Y-137731547D01*
X158562648Y-137731547D01*
X158638839Y-137769642D01*
X158676934Y-137807738D01*
X158715029Y-137883928D01*
X158715029Y-138074404D01*
X158676934Y-138150595D01*
X158638839Y-138188690D01*
X157915029Y-137388690D02*
X158562648Y-137388690D01*
X158638839Y-137350595D01*
X158676934Y-137312500D01*
X158715029Y-137236309D01*
X158715029Y-137083928D01*
X158676934Y-137007738D01*
X158638839Y-136969642D01*
X158562648Y-136931547D01*
X157915029Y-136931547D01*
X153228720Y-138760119D02*
X153190625Y-138722023D01*
X153152529Y-138645833D01*
X153152529Y-138455357D01*
X153190625Y-138379166D01*
X153228720Y-138341071D01*
X153304910Y-138302976D01*
X153381101Y-138302976D01*
X153495386Y-138341071D01*
X153952529Y-138798214D01*
X153952529Y-138302976D01*
X153152529Y-137960119D02*
X153800148Y-137960119D01*
X153876339Y-137922023D01*
X153914434Y-137883928D01*
X153952529Y-137807738D01*
X153952529Y-137655357D01*
X153914434Y-137579166D01*
X153876339Y-137541071D01*
X153800148Y-137502976D01*
X153152529Y-137502976D01*
X150847470Y-139712500D02*
X150809375Y-139674404D01*
X150771279Y-139598214D01*
X150771279Y-139407738D01*
X150809375Y-139331547D01*
X150847470Y-139293452D01*
X150923660Y-139255357D01*
X150999851Y-139255357D01*
X151114136Y-139293452D01*
X151571279Y-139750595D01*
X151571279Y-139255357D01*
X151495089Y-138912500D02*
X151533184Y-138874404D01*
X151571279Y-138912500D01*
X151533184Y-138950595D01*
X151495089Y-138912500D01*
X151571279Y-138912500D01*
X150847470Y-138569642D02*
X150809375Y-138531547D01*
X150771279Y-138455357D01*
X150771279Y-138264880D01*
X150809375Y-138188690D01*
X150847470Y-138150595D01*
X150923660Y-138112500D01*
X150999851Y-138112500D01*
X151114136Y-138150595D01*
X151571279Y-138607738D01*
X151571279Y-138112500D01*
X150771279Y-137388690D02*
X150771279Y-137769642D01*
X151152232Y-137807738D01*
X151114136Y-137769642D01*
X151076041Y-137693452D01*
X151076041Y-137502976D01*
X151114136Y-137426785D01*
X151152232Y-137388690D01*
X151228422Y-137350595D01*
X151418898Y-137350595D01*
X151495089Y-137388690D01*
X151533184Y-137426785D01*
X151571279Y-137502976D01*
X151571279Y-137693452D01*
X151533184Y-137769642D01*
X151495089Y-137807738D01*
X150771279Y-137007738D02*
X151418898Y-137007738D01*
X151495089Y-136969642D01*
X151533184Y-136931547D01*
X151571279Y-136855357D01*
X151571279Y-136702976D01*
X151533184Y-136626785D01*
X151495089Y-136588690D01*
X151418898Y-136550595D01*
X150771279Y-136550595D01*
X181803720Y-136969642D02*
X181803720Y-136512500D01*
X181803720Y-136741071D02*
X182603720Y-136741071D01*
X182489434Y-136664880D01*
X182413244Y-136588690D01*
X182375148Y-136512500D01*
X181879910Y-137312500D02*
X181841815Y-137350595D01*
X181803720Y-137312500D01*
X181841815Y-137274404D01*
X181879910Y-137312500D01*
X181803720Y-137312500D01*
X182527529Y-137655357D02*
X182565625Y-137693452D01*
X182603720Y-137769642D01*
X182603720Y-137960119D01*
X182565625Y-138036309D01*
X182527529Y-138074404D01*
X182451339Y-138112500D01*
X182375148Y-138112500D01*
X182260863Y-138074404D01*
X181803720Y-137617261D01*
X181803720Y-138112500D01*
X182603720Y-138836309D02*
X182603720Y-138455357D01*
X182222767Y-138417261D01*
X182260863Y-138455357D01*
X182298958Y-138531547D01*
X182298958Y-138722023D01*
X182260863Y-138798214D01*
X182222767Y-138836309D01*
X182146577Y-138874404D01*
X181956101Y-138874404D01*
X181879910Y-138836309D01*
X181841815Y-138798214D01*
X181803720Y-138722023D01*
X181803720Y-138531547D01*
X181841815Y-138455357D01*
X181879910Y-138417261D01*
X182603720Y-139217261D02*
X181956101Y-139217261D01*
X181879910Y-139255357D01*
X181841815Y-139293452D01*
X181803720Y-139369642D01*
X181803720Y-139522023D01*
X181841815Y-139598214D01*
X181879910Y-139636309D01*
X181956101Y-139674404D01*
X182603720Y-139674404D01*
X184184970Y-137350595D02*
X184184970Y-136893452D01*
X184184970Y-137122023D02*
X184984970Y-137122023D01*
X184870684Y-137045833D01*
X184794494Y-136969642D01*
X184756398Y-136893452D01*
X184261160Y-137693452D02*
X184223065Y-137731547D01*
X184184970Y-137693452D01*
X184223065Y-137655357D01*
X184261160Y-137693452D01*
X184184970Y-137693452D01*
X184984970Y-138455357D02*
X184984970Y-138074404D01*
X184604017Y-138036309D01*
X184642113Y-138074404D01*
X184680208Y-138150595D01*
X184680208Y-138341071D01*
X184642113Y-138417261D01*
X184604017Y-138455357D01*
X184527827Y-138493452D01*
X184337351Y-138493452D01*
X184261160Y-138455357D01*
X184223065Y-138417261D01*
X184184970Y-138341071D01*
X184184970Y-138150595D01*
X184223065Y-138074404D01*
X184261160Y-138036309D01*
X184984970Y-138836309D02*
X184337351Y-138836309D01*
X184261160Y-138874404D01*
X184223065Y-138912500D01*
X184184970Y-138988690D01*
X184184970Y-139141071D01*
X184223065Y-139217261D01*
X184261160Y-139255357D01*
X184337351Y-139293452D01*
X184984970Y-139293452D01*
X186566220Y-136969642D02*
X186566220Y-136512500D01*
X186566220Y-136741071D02*
X187366220Y-136741071D01*
X187251934Y-136664880D01*
X187175744Y-136588690D01*
X187137648Y-136512500D01*
X186642410Y-137312500D02*
X186604315Y-137350595D01*
X186566220Y-137312500D01*
X186604315Y-137274404D01*
X186642410Y-137312500D01*
X186566220Y-137312500D01*
X187366220Y-137617261D02*
X187366220Y-138150595D01*
X186566220Y-137807738D01*
X187366220Y-138836309D02*
X187366220Y-138455357D01*
X186985267Y-138417261D01*
X187023363Y-138455357D01*
X187061458Y-138531547D01*
X187061458Y-138722023D01*
X187023363Y-138798214D01*
X186985267Y-138836309D01*
X186909077Y-138874404D01*
X186718601Y-138874404D01*
X186642410Y-138836309D01*
X186604315Y-138798214D01*
X186566220Y-138722023D01*
X186566220Y-138531547D01*
X186604315Y-138455357D01*
X186642410Y-138417261D01*
X187366220Y-139217261D02*
X186718601Y-139217261D01*
X186642410Y-139255357D01*
X186604315Y-139293452D01*
X186566220Y-139369642D01*
X186566220Y-139522023D01*
X186604315Y-139598214D01*
X186642410Y-139636309D01*
X186718601Y-139674404D01*
X187366220Y-139674404D01*
X189671279Y-137464880D02*
X189709375Y-137502976D01*
X189747470Y-137579166D01*
X189747470Y-137769642D01*
X189709375Y-137845833D01*
X189671279Y-137883928D01*
X189595089Y-137922023D01*
X189518898Y-137922023D01*
X189404613Y-137883928D01*
X188947470Y-137426785D01*
X188947470Y-137922023D01*
X189747470Y-138264880D02*
X189099851Y-138264880D01*
X189023660Y-138302976D01*
X188985565Y-138341071D01*
X188947470Y-138417261D01*
X188947470Y-138569642D01*
X188985565Y-138645833D01*
X189023660Y-138683928D01*
X189099851Y-138722023D01*
X189747470Y-138722023D01*
X192052529Y-136512500D02*
X192090625Y-136550595D01*
X192128720Y-136626785D01*
X192128720Y-136817261D01*
X192090625Y-136893452D01*
X192052529Y-136931547D01*
X191976339Y-136969642D01*
X191900148Y-136969642D01*
X191785863Y-136931547D01*
X191328720Y-136474404D01*
X191328720Y-136969642D01*
X191404910Y-137312500D02*
X191366815Y-137350595D01*
X191328720Y-137312500D01*
X191366815Y-137274404D01*
X191404910Y-137312500D01*
X191328720Y-137312500D01*
X192052529Y-137655357D02*
X192090625Y-137693452D01*
X192128720Y-137769642D01*
X192128720Y-137960119D01*
X192090625Y-138036309D01*
X192052529Y-138074404D01*
X191976339Y-138112500D01*
X191900148Y-138112500D01*
X191785863Y-138074404D01*
X191328720Y-137617261D01*
X191328720Y-138112500D01*
X192128720Y-138836309D02*
X192128720Y-138455357D01*
X191747767Y-138417261D01*
X191785863Y-138455357D01*
X191823958Y-138531547D01*
X191823958Y-138722023D01*
X191785863Y-138798214D01*
X191747767Y-138836309D01*
X191671577Y-138874404D01*
X191481101Y-138874404D01*
X191404910Y-138836309D01*
X191366815Y-138798214D01*
X191328720Y-138722023D01*
X191328720Y-138531547D01*
X191366815Y-138455357D01*
X191404910Y-138417261D01*
X192128720Y-139217261D02*
X191481101Y-139217261D01*
X191404910Y-139255357D01*
X191366815Y-139293452D01*
X191328720Y-139369642D01*
X191328720Y-139522023D01*
X191366815Y-139598214D01*
X191404910Y-139636309D01*
X191481101Y-139674404D01*
X192128720Y-139674404D01*
X186944380Y-111069285D02*
X185944380Y-111069285D01*
X185944380Y-110831190D01*
X185992000Y-110688333D01*
X186087238Y-110593095D01*
X186182476Y-110545476D01*
X186372952Y-110497857D01*
X186515809Y-110497857D01*
X186706285Y-110545476D01*
X186801523Y-110593095D01*
X186896761Y-110688333D01*
X186944380Y-110831190D01*
X186944380Y-111069285D01*
X186277714Y-109640714D02*
X186944380Y-109640714D01*
X185896761Y-109878809D02*
X186611047Y-110116904D01*
X186611047Y-109497857D01*
X185944380Y-108688333D02*
X185944380Y-108878809D01*
X185992000Y-108974047D01*
X186039619Y-109021666D01*
X186182476Y-109116904D01*
X186372952Y-109164523D01*
X186753904Y-109164523D01*
X186849142Y-109116904D01*
X186896761Y-109069285D01*
X186944380Y-108974047D01*
X186944380Y-108783571D01*
X186896761Y-108688333D01*
X186849142Y-108640714D01*
X186753904Y-108593095D01*
X186515809Y-108593095D01*
X186420571Y-108640714D01*
X186372952Y-108688333D01*
X186325333Y-108783571D01*
X186325333Y-108974047D01*
X186372952Y-109069285D01*
X186420571Y-109116904D01*
X186515809Y-109164523D01*
X188844380Y-113719285D02*
X188844380Y-114290714D01*
X188844380Y-114005000D02*
X187844380Y-114005000D01*
X187987238Y-114100238D01*
X188082476Y-114195476D01*
X188130095Y-114290714D01*
X186944380Y-102560285D02*
X185944380Y-102560285D01*
X185944380Y-102322190D01*
X185992000Y-102179333D01*
X186087238Y-102084095D01*
X186182476Y-102036476D01*
X186372952Y-101988857D01*
X186515809Y-101988857D01*
X186706285Y-102036476D01*
X186801523Y-102084095D01*
X186896761Y-102179333D01*
X186944380Y-102322190D01*
X186944380Y-102560285D01*
X186277714Y-101131714D02*
X186944380Y-101131714D01*
X185896761Y-101369809D02*
X186611047Y-101607904D01*
X186611047Y-100988857D01*
X185944380Y-100703142D02*
X185944380Y-100036476D01*
X186944380Y-100465047D01*
X188844380Y-105210285D02*
X188844380Y-105781714D01*
X188844380Y-105496000D02*
X187844380Y-105496000D01*
X187987238Y-105591238D01*
X188082476Y-105686476D01*
X188130095Y-105781714D01*
X62960416Y-65332886D02*
X63103273Y-65380505D01*
X63341369Y-65380505D01*
X63436607Y-65332886D01*
X63484226Y-65285267D01*
X63531845Y-65190029D01*
X63531845Y-65094791D01*
X63484226Y-64999553D01*
X63436607Y-64951934D01*
X63341369Y-64904315D01*
X63150892Y-64856696D01*
X63055654Y-64809077D01*
X63008035Y-64761458D01*
X62960416Y-64666220D01*
X62960416Y-64570982D01*
X63008035Y-64475744D01*
X63055654Y-64428125D01*
X63150892Y-64380505D01*
X63388988Y-64380505D01*
X63531845Y-64428125D01*
X63865178Y-64380505D02*
X64103273Y-65380505D01*
X64293750Y-64666220D01*
X64484226Y-65380505D01*
X64722321Y-64380505D01*
X65531845Y-64713839D02*
X65531845Y-65380505D01*
X65293750Y-64332886D02*
X65055654Y-65047172D01*
X65674702Y-65047172D01*
X143700595Y-39797380D02*
X143700595Y-38797380D01*
X143700595Y-39273571D02*
X144272023Y-39273571D01*
X144272023Y-39797380D02*
X144272023Y-38797380D01*
X144652976Y-38797380D02*
X145272023Y-38797380D01*
X144938690Y-39178333D01*
X145081547Y-39178333D01*
X145176785Y-39225952D01*
X145224404Y-39273571D01*
X145272023Y-39368809D01*
X145272023Y-39606904D01*
X145224404Y-39702142D01*
X145176785Y-39749761D01*
X145081547Y-39797380D01*
X144795833Y-39797380D01*
X144700595Y-39749761D01*
X144652976Y-39702142D01*
X42545095Y-89073380D02*
X42545095Y-88073380D01*
X42545095Y-88549571D02*
X43116523Y-88549571D01*
X43116523Y-89073380D02*
X43116523Y-88073380D01*
X44021285Y-88406714D02*
X44021285Y-89073380D01*
X43783190Y-88025761D02*
X43545095Y-88740047D01*
X44164142Y-88740047D01*
X125349095Y-141651380D02*
X125349095Y-140651380D01*
X125349095Y-141127571D02*
X125920523Y-141127571D01*
X125920523Y-141651380D02*
X125920523Y-140651380D01*
X126872904Y-140651380D02*
X126396714Y-140651380D01*
X126349095Y-141127571D01*
X126396714Y-141079952D01*
X126491952Y-141032333D01*
X126730047Y-141032333D01*
X126825285Y-141079952D01*
X126872904Y-141127571D01*
X126920523Y-141222809D01*
X126920523Y-141460904D01*
X126872904Y-141556142D01*
X126825285Y-141603761D01*
X126730047Y-141651380D01*
X126491952Y-141651380D01*
X126396714Y-141603761D01*
X126349095Y-141556142D01*
X188849095Y-116378380D02*
X188849095Y-115378380D01*
X188849095Y-115854571D02*
X189420523Y-115854571D01*
X189420523Y-116378380D02*
X189420523Y-115378380D01*
X190325285Y-115378380D02*
X190134809Y-115378380D01*
X190039571Y-115426000D01*
X189991952Y-115473619D01*
X189896714Y-115616476D01*
X189849095Y-115806952D01*
X189849095Y-116187904D01*
X189896714Y-116283142D01*
X189944333Y-116330761D01*
X190039571Y-116378380D01*
X190230047Y-116378380D01*
X190325285Y-116330761D01*
X190372904Y-116283142D01*
X190420523Y-116187904D01*
X190420523Y-115949809D01*
X190372904Y-115854571D01*
X190325285Y-115806952D01*
X190230047Y-115759333D01*
X190039571Y-115759333D01*
X189944333Y-115806952D01*
X189896714Y-115854571D01*
X189849095Y-115949809D01*
M02*
