<?xml version="1.0" encoding="UTF-8" standalone="no"?>
<!DOCTYPE svg PUBLIC "-//W3C//DTD SVG 1.1//EN" "http://www.w3.org/Graphics/SVG/1.1/DTD/svg11.dtd">
<svg width="100%" height="100%" viewBox="0 0 1123 794" version="1.1" xmlns="http://www.w3.org/2000/svg" xmlns:xlink="http://www.w3.org/1999/xlink" xml:space="preserve" xmlns:serif="http://www.serif.com/" style="fill-rule:evenodd;clip-rule:evenodd;stroke-linecap:square;stroke-linejoin:round;stroke-miterlimit:1.5;">
    <g transform="matrix(0.32,0,0,0.32,0,0)">
        <path d="M64.529,498.421C64.529,497.92 64.728,497.439 65.082,497.085C65.437,496.73 65.917,496.531 66.419,496.531L98.093,496.531C98.595,496.531 99.075,496.73 99.43,497.085C99.784,497.439 99.983,497.92 99.983,498.421C99.983,520.293 99.983,724.67 99.983,724.67L142.068,724.67L142.068,754.561L113.239,885.5L113.239,1462.34L344.782,1511.76L1105.12,1511.76L1134.6,1473L1293.61,1473L1947.74,1607.57L1964.88,1607.57L2067.91,1491.75L2067.91,954.567L2034.7,905.319C2034.7,905.319 2074.24,718.188 2078.18,699.499C2078.37,698.625 2079.14,698 2080.03,698C2086.5,698 2111.53,698 2118.64,698C2119.68,698 2120.53,698.846 2120.53,699.89L2120.53,1640.44C2120.53,1642.45 2119.73,1644.37 2118.31,1645.79C2116.89,1647.2 2114.97,1648 2112.97,1648C2077.47,1648 1927.53,1648 1890.87,1648C1885.48,1648 1880.1,1647.42 1874.83,1646.28C1819.79,1634.33 1495.08,1563.84 1440.04,1551.89C1434.77,1550.75 1429.39,1550.17 1424,1550.17C1319.61,1550.17 240.025,1550.17 83.426,1550.17C78.414,1550.17 73.608,1548.18 70.064,1544.63C66.52,1541.09 64.529,1536.28 64.529,1531.27C64.529,1393.19 64.529,543.818 64.529,498.421ZM2073.32,1619.65C2062.86,1619.65 2054.38,1611.2 2054.38,1600.75C2054.38,1590.32 2062.86,1581.86 2073.32,1581.86C2083.7,1581.86 2092.18,1590.32 2092.18,1600.75C2092.18,1611.2 2083.7,1619.65 2073.32,1619.65ZM111.807,1521.82C101.35,1521.82 92.875,1513.37 92.875,1502.92C92.875,1492.49 101.35,1484.03 111.807,1484.03C122.196,1484.03 130.671,1492.49 130.671,1502.92C130.671,1513.37 122.196,1521.82 111.807,1521.82ZM1159.48,1521.82C1149.03,1521.82 1140.55,1513.37 1140.55,1502.92C1140.55,1492.49 1149.03,1484.03 1159.48,1484.03C1169.87,1484.03 1178.35,1492.49 1178.35,1502.92C1178.35,1513.37 1169.87,1521.82 1159.48,1521.82ZM2073.32,910.301C2062.86,910.301 2054.38,901.848 2054.38,891.399C2054.38,880.971 2062.86,872.505 2073.32,872.505C2083.7,872.505 2092.18,880.971 2092.18,891.399C2092.18,901.848 2083.7,910.301 2073.32,910.301ZM111.807,772.459C101.35,772.459 92.875,764.006 92.875,753.558C92.875,743.129 101.35,734.663 111.807,734.663C122.196,734.663 130.671,743.129 130.671,753.558C130.671,764.006 122.196,772.459 111.807,772.459ZM66.419,241.041C65.375,241.041 64.529,240.195 64.529,239.151C64.529,230.125 64.529,190.852 64.529,166.898C64.529,156.461 72.99,148 83.426,148C182.139,148 635.404,148 671.891,148C672.461,148 673.001,148.258 673.36,148.701C673.719,149.144 673.858,149.726 673.739,150.283C670.949,163.385 657.017,228.796 654.727,239.545C654.541,240.417 653.771,241.041 652.879,241.041C621.018,241.041 101.75,241.041 66.419,241.041ZM1031.09,149.495C1031.27,148.623 1032.04,148 1032.93,148C1076.08,148 2018.82,148 2112.97,148C2117.14,148 2120.53,151.384 2120.53,155.559C2120.53,175.119 2120.53,226.6 2120.53,237.111C2120.53,237.612 2120.33,238.093 2119.97,238.447C2119.62,238.802 2119.14,239.001 2118.64,239.001C2103.68,238.998 2005.06,238.982 2005.06,238.982L1984.06,218.682L1237.19,218.682L1196.56,241.041L1140.91,241.041C1140.91,241.041 1034.62,216.849 1019.35,213.374C1018.35,213.145 1017.71,212.148 1017.93,211.137C1019.95,201.661 1029.24,158.14 1031.09,149.495ZM111.807,214.142C101.35,214.142 92.875,205.689 92.875,195.241C92.875,184.812 101.35,176.346 111.807,176.346C122.196,176.346 130.671,184.812 130.671,195.241C130.671,205.689 122.196,214.142 111.807,214.142ZM1113.89,214.142C1103.43,214.142 1094.96,205.689 1094.96,195.241C1094.96,184.812 1103.43,176.346 1113.89,176.346C1124.28,176.346 1132.75,184.812 1132.75,195.241C1132.75,205.689 1124.28,214.142 1113.89,214.142ZM616.57,214.142C606.113,214.142 597.638,205.689 597.638,195.241C597.638,184.812 606.113,176.346 616.57,176.346C626.959,176.346 635.434,184.812 635.434,195.241C635.434,205.689 626.959,214.142 616.57,214.142ZM2073.32,214.142C2062.86,214.142 2054.38,205.689 2054.38,195.241C2054.38,184.812 2062.86,176.346 2073.32,176.346C2083.7,176.346 2092.18,184.812 2092.18,195.241C2092.18,205.689 2083.7,214.142 2073.32,214.142Z" style="fill:rgb(255,255,160);fill-opacity:0.5;stroke:rgb(255,149,0);stroke-width:0.94px;"/>
    </g>
</svg>
