<?xml version="1.0" encoding="UTF-8" standalone="no"?>
<!DOCTYPE svg PUBLIC "-//W3C//DTD SVG 1.1//EN" "http://www.w3.org/Graphics/SVG/1.1/DTD/svg11.dtd">
<svg width="100%" height="100%" viewBox="0 0 808 712" version="1.1" xmlns="http://www.w3.org/2000/svg" xmlns:xlink="http://www.w3.org/1999/xlink" xml:space="preserve" xmlns:serif="http://www.serif.com/" style="fill-rule:evenodd;clip-rule:evenodd;stroke-linecap:round;stroke-linejoin:round;stroke-miterlimit:1.5;">
    <g id="アートボード1" transform="matrix(1.20417,0,0,1.50529,-74.6587,-58.7061)">
        <rect x="62" y="39" width="671" height="473" style="fill:none;"/>
        <g transform="matrix(0.830446,0,0,0.664326,62,39)">
            <g id="Split-Right-v01" serif:id="Split Right v01">
                <g id="Split-Left-Keyplate" serif:id="Split Left Keyplate">
                    <path id="Split-Left-Keyplate1" serif:id="Split Left Keyplate" d="M67.262,571.413C66.975,571.073 66.818,570.641 66.818,570.196L66.818,421.724C66.818,421.311 66.954,420.909 67.204,420.58C69.156,418.012 77.95,406.444 80.199,403.485C80.533,403.046 80.658,402.484 80.543,401.945C78.83,393.952 65.542,331.96 63.304,321.516C63.117,320.646 62.349,320.024 61.459,320.022C58.435,320.018 51.687,320.008 48.39,320.003C47.347,320.001 46.503,319.156 46.503,318.113C46.503,305.095 46.503,228.781 46.503,217.225C46.503,216.362 47.087,215.609 47.923,215.394C63.938,211.284 210.16,173.755 216.769,172.059C216.922,172.02 217.08,172 217.239,172C222.7,172 320.136,172 327.957,172C328.283,172 328.604,172.084 328.888,172.245C330.861,173.362 338.985,177.961 340.958,179.078C341.242,179.239 341.562,179.323 341.889,179.323C356.211,179.323 675.023,179.323 702.532,179.323C703.033,179.323 703.514,179.522 703.868,179.877C704.223,180.231 704.422,180.712 704.422,181.213C704.422,191.619 704.422,241.838 704.422,252.243C704.422,253.287 703.576,254.133 702.532,254.133C697.666,254.133 684.748,254.133 679.882,254.133C678.838,254.133 677.992,254.979 677.992,256.023C677.992,268.133 677.992,334.478 677.992,338.572C677.992,338.704 678.006,338.835 678.033,338.964C678.627,341.767 685.477,374.098 686.071,376.901C686.098,377.03 686.112,377.161 686.112,377.293C686.112,383.797 686.112,548.46 686.112,566.116C686.112,567.008 685.488,567.778 684.615,567.964C674.929,570.026 621.377,581.428 617.739,582.203C617.61,582.23 617.478,582.244 617.346,582.244C609.839,582.244 392.299,582.244 378.054,582.244C377.583,582.244 377.129,582.068 376.781,581.751C374.731,579.883 367.45,573.25 365.399,571.382C365.051,571.065 364.597,570.889 364.126,570.889C354.099,570.889 244.315,570.889 239.004,570.889C238.871,570.889 238.739,570.903 238.61,570.93C232.982,572.13 107.258,598.939 94.109,601.743C93.426,601.888 92.719,601.646 92.27,601.112C88.397,596.513 70.333,575.06 67.262,571.413ZM102.204,534.536L171.57,519.792L182.572,571.551L113.206,586.295L102.204,534.536ZM613.926,517.763L665.684,506.761L676.686,558.52L624.927,569.522L613.926,517.763ZM539.753,515.07L591.512,504.068L602.513,555.827L550.755,566.828L539.753,515.07ZM199.046,513.952L250.805,502.95L261.806,554.709L210.048,565.71L199.046,513.952ZM465.566,512.464L517.325,501.463L528.326,553.221L476.568,564.223L465.566,512.464ZM382.589,511.699L434.348,500.698L445.35,552.456L393.591,563.458L382.589,511.699ZM287.079,495.24L338.838,484.238L349.839,535.997L298.081,546.998L287.079,495.24ZM368.258,518.236C370.349,518.236 372.044,516.545 372.044,514.455C372.044,512.37 370.349,510.677 368.258,510.677C366.18,510.677 364.485,512.37 364.485,514.455C364.485,516.545 366.18,518.236 368.258,518.236ZM104.842,460.367L156.601,449.365L167.602,501.124L115.844,512.126L104.842,460.367ZM631.773,485.304C629.732,485.737 628.428,487.746 628.861,489.786C629.295,491.827 631.304,493.131 633.344,492.698C635.385,492.264 636.689,490.255 636.255,488.215C635.822,486.174 633.813,484.87 631.773,485.304ZM542.404,440.898L594.163,429.896L605.165,481.655L553.406,492.657L542.404,440.898ZM89.996,485.092C87.956,485.526 86.651,487.535 87.085,489.575C87.519,491.616 89.527,492.92 91.568,492.486C93.608,492.053 94.913,490.044 94.479,488.004C94.045,485.963 92.037,484.659 89.996,485.092ZM468.217,438.292L519.976,427.291L530.978,479.049L479.219,490.051L468.217,438.292ZM173.398,436.599L225.157,425.597L236.158,477.356L184.4,488.358L173.398,436.599ZM394.025,435.66L445.784,424.659L456.785,476.417L405.026,487.419L394.025,435.66ZM612.854,425.923L664.613,414.921L675.615,466.68L623.856,477.682L612.854,425.923ZM80.971,457.052L90.167,455.097L92.524,466.188L83.328,468.143L80.971,457.052ZM241.952,412.821L293.711,401.82L304.713,453.578L252.954,464.58L241.952,412.821ZM314.251,406.66L366.01,395.658L377.011,447.417L325.253,458.418L314.251,406.66ZM89.872,389.941L141.631,378.939L152.633,430.698L100.874,441.699L89.872,389.941ZM74.19,425.151L83.386,423.197L85.743,434.287L76.547,436.242L74.19,425.151ZM453.248,367.866L504.983,356.869L515.984,408.628L464.249,419.625L453.248,367.866ZM158.428,366.172L210.187,355.171L221.189,406.929L169.43,417.931L158.428,366.172ZM379.055,365.234L430.814,354.232L441.816,405.991L390.057,416.993L379.055,365.234ZM571.397,361.104L623.154,350.103L626.847,367.479L632.467,366.284L628.954,349.759L635.331,348.403L634.388,343.967L646.588,341.374L647.531,345.81L653.908,344.455L658.847,367.69L661.916,367.038L664.104,377.334L661.036,377.986L663.574,389.927L638.619,395.231L636.081,383.29L630.462,384.485L634.155,401.86L582.398,412.861L578.705,395.486L573.085,396.68L575.624,408.621L550.669,413.926L548.131,401.985L545.063,402.637L542.874,392.341L545.943,391.689L541.004,368.453L547.381,367.098L546.438,362.661L558.638,360.068L559.581,364.505L565.958,363.149L569.471,379.674L575.09,378.48L571.397,361.104ZM226.983,342.395L278.741,331.393L289.743,383.152L237.984,394.154L226.983,342.395ZM299.281,336.233L351.04,325.232L362.042,376.99L310.283,387.992L299.281,336.233ZM74.903,319.514L126.661,308.513L137.663,360.271L85.904,371.273L74.903,319.514ZM155.353,360.831C157.444,360.831 159.139,359.141 159.139,357.051C159.139,354.965 157.444,353.272 155.353,353.272C153.275,353.272 151.58,354.965 151.58,357.051C151.58,359.141 153.275,360.831 155.353,360.831ZM512.423,300.081L564.182,289.08L575.184,340.839L523.425,351.84L512.423,300.081ZM438.254,297.444L490.013,286.443L501.015,338.202L449.256,349.203L438.254,297.444ZM143.459,295.746L195.218,284.744L206.219,336.503L154.461,347.505L143.459,295.746ZM364.086,294.807L415.844,283.806L426.846,335.564L375.087,346.566L364.086,294.807ZM665.804,335.489C667.896,335.489 669.591,333.799 669.591,331.709C669.591,329.623 667.896,327.93 665.804,327.93C663.727,327.93 662.032,329.623 662.032,331.709C662.032,333.799 663.727,335.489 665.804,335.489ZM600.469,281.381L652.228,270.379L663.229,322.138L611.471,333.14L600.469,281.381ZM212.013,271.968L263.772,260.967L274.774,312.725L223.015,323.727L212.013,271.968ZM284.312,265.807L336.071,254.805L347.072,306.564L295.313,317.565L284.312,265.807ZM59.933,249.088L111.692,238.086L122.693,289.845L70.935,300.846L59.933,249.088ZM584.506,211.21L584.484,211.105L532.727,222.106L532.742,222.177L497.454,229.654L508.456,281.412L519.368,279.177L520.124,282.736L532.324,280.143L532.302,280.04L532.494,279.999L531.759,276.543L607.318,260.482L608.074,264.042L620.274,261.449L620.252,261.345L620.444,261.305L619.709,257.848L630.679,255.517L619.677,203.758L584.506,211.21ZM423.285,227.018L475.044,216.016L486.045,267.775L434.287,278.777L423.285,227.018ZM128.489,225.32L180.248,214.318L191.25,266.077L139.491,277.078L128.489,225.32ZM349.116,224.381L400.875,213.379L411.876,265.138L360.118,276.14L349.116,224.381ZM197.044,201.542L248.802,190.54L259.804,242.299L208.045,253.301L197.044,201.542ZM269.342,195.38L321.101,184.379L332.103,236.137L280.344,247.139L269.342,195.38ZM339.568,228.811C341.659,228.811 343.354,227.12 343.354,225.03C343.354,222.945 341.659,221.252 339.568,221.252C337.49,221.252 335.795,222.945 335.795,225.03C335.795,227.12 337.49,228.811 339.568,228.811ZM539.994,193.152C537.954,193.586 536.65,195.594 537.083,197.635C537.517,199.675 539.526,200.98 541.566,200.546C543.606,200.112 544.911,198.103 544.477,196.063C544.043,194.023 542.035,192.718 539.994,193.152ZM171.227,189.371C169.187,189.805 167.882,191.814 168.316,193.854C168.75,195.894 170.758,197.199 172.799,196.765C174.839,196.331 176.144,194.323 175.71,192.282C175.276,190.242 173.268,188.937 171.227,189.371Z" style="fill:rgb(60,226,255);fill-opacity:0.42;stroke:rgb(13,151,242);stroke-width:0.94px;"/>
                </g>
            </g>
        </g>
    </g>
</svg>
