<?xml version="1.0" encoding="UTF-8" standalone="no"?>
<!DOCTYPE svg PUBLIC "-//W3C//DTD SVG 1.1//EN" "http://www.w3.org/Graphics/SVG/1.1/DTD/svg11.dtd">
<svg width="100%" height="100%" viewBox="0 0 808 712" version="1.1" xmlns="http://www.w3.org/2000/svg" xmlns:xlink="http://www.w3.org/1999/xlink" xml:space="preserve" xmlns:serif="http://www.serif.com/" style="fill-rule:evenodd;clip-rule:evenodd;stroke-linecap:square;stroke-linejoin:round;stroke-miterlimit:1.5;">
    <g id="アートボード1" transform="matrix(1.20417,0,0,1.50529,-74.6587,-58.7061)">
        <rect x="62" y="39" width="671" height="473" style="fill:none;"/>
        <g transform="matrix(0.830446,0,0,0.664326,62,39)">
            <g id="Split-Right-v01" serif:id="Split Right v01">
                <g id="Split-Mid" serif:id="Split Mid">
                    <g>
                        <path d="M704.422,259.53L693.076,259.53L693.076,332.534L679.609,332.534L679.609,342.1L688.834,384L688.834,568.589L614.741,584.404L371.433,584.404L362,572L311.116,572L101.793,615.062L96.311,615.062L63.34,578L63.34,406.101L73.966,390.342L59.951,324L46.503,324L46.503,628L122.588,628L266.796,596.694L704.422,596.694L704.422,259.53ZM61.61,618.929C64.956,618.929 67.668,616.224 67.668,612.881C67.668,609.544 64.956,606.835 61.61,606.835C58.286,606.835 55.574,609.544 55.574,612.881C55.574,616.224 58.286,618.929 61.61,618.929ZM689.293,587.623C692.639,587.623 695.351,584.918 695.351,581.575C695.351,578.238 692.639,575.528 689.293,575.528C685.968,575.528 683.256,578.238 683.256,581.575C683.256,584.918 685.968,587.623 689.293,587.623ZM354.036,587.623C357.383,587.623 360.094,584.918 360.094,581.575C360.094,578.238 357.383,575.528 354.036,575.528C350.712,575.528 348,578.238 348,581.575C348,584.918 350.712,587.623 354.036,587.623ZM61.61,391.936C64.956,391.936 67.668,389.231 67.668,385.888C67.668,382.551 64.956,379.842 61.61,379.842C58.286,379.842 55.574,382.551 55.574,385.888C55.574,389.231 58.286,391.936 61.61,391.936ZM689.293,347.827C692.639,347.827 695.351,345.122 695.351,341.778C695.351,338.441 692.639,335.732 689.293,335.732C685.968,335.732 683.256,338.441 683.256,341.778C683.256,345.122 685.968,347.827 689.293,347.827ZM704.422,177.773L704.422,148L509.319,148L515.66,177.773L704.422,177.773ZM395.022,148L46.503,148L46.503,177.12L83.454,177.114L90.17,170.618L329.17,170.618L342.17,177.773L359.978,177.773L399.459,168.787L395.022,148ZM368.627,169.165C371.973,169.165 374.685,166.461 374.685,163.117C374.685,159.78 371.973,157.071 368.627,157.071C365.303,157.071 362.591,159.78 362.591,163.117C362.591,166.461 365.303,169.165 368.627,169.165ZM689.293,169.165C692.639,169.165 695.351,166.461 695.351,163.117C695.351,159.78 692.639,157.071 689.293,157.071C685.968,157.071 683.256,159.78 683.256,163.117C683.256,166.461 685.968,169.165 689.293,169.165ZM61.61,169.165C64.956,169.165 67.668,166.461 67.668,163.117C67.668,159.78 64.956,157.071 61.61,157.071C58.286,157.071 55.574,159.78 55.574,163.117C55.574,166.461 58.286,169.165 61.61,169.165ZM527.769,169.165C531.115,169.165 533.827,166.461 533.827,163.117C533.827,159.78 531.115,157.071 527.769,157.071C524.444,157.071 521.732,159.78 521.732,163.117C521.732,166.461 524.444,169.165 527.769,169.165Z" style="fill:rgb(255,255,160);fill-opacity:0.5;stroke:rgb(255,149,0);stroke-width:0.94px;"/>
                    </g>
                </g>
            </g>
        </g>
    </g>
</svg>
