<?xml version="1.0" encoding="UTF-8" standalone="no"?>
<!DOCTYPE svg PUBLIC "-//W3C//DTD SVG 1.1//EN" "http://www.w3.org/Graphics/SVG/1.1/DTD/svg11.dtd">
<svg width="100%" height="100%" viewBox="0 0 808 712" version="1.1" xmlns="http://www.w3.org/2000/svg" xmlns:xlink="http://www.w3.org/1999/xlink" xml:space="preserve" xmlns:serif="http://www.serif.com/" style="fill-rule:evenodd;clip-rule:evenodd;stroke-linecap:square;stroke-linejoin:round;stroke-miterlimit:1.5;">
    <g id="アートボード1" transform="matrix(1.20417,0,0,1.50529,-74.6587,-58.7061)">
        <rect x="62" y="39" width="671" height="473" style="fill:none;"/>
        <g transform="matrix(0.830446,0,0,0.664326,62,39)">
            <g id="Split-Right-v01" serif:id="Split Right v01">
                <g id="Split-R-Top" serif:id="Split R Top">
                    <g>
                        <path d="M46.503,148L46.503,240.528C46.503,240.528 104.066,228.26 115.18,225.892C116.199,225.675 116.85,224.673 116.635,223.654C116.327,222.192 115.898,220.159 115.589,218.698C115.374,217.679 116.024,216.678 117.043,216.46C126.965,214.337 173.955,204.284 183.912,202.154C184.404,202.049 184.833,201.752 185.106,201.329C185.378,200.906 185.471,200.393 185.363,199.902C185.034,198.399 184.572,196.291 184.243,194.786C184.135,194.294 184.228,193.779 184.502,193.356C184.776,192.932 185.207,192.636 185.7,192.532C195.948,190.378 245.317,180.001 255.523,177.856C256.544,177.641 257.546,178.295 257.761,179.316C258.069,180.778 258.497,182.811 258.805,184.275C258.908,184.765 259.203,185.195 259.623,185.469C260.043,185.742 260.555,185.838 261.045,185.734C270.967,183.637 317.782,173.739 327.687,171.645C328.706,171.43 329.707,172.08 329.926,173.098C331.458,180.247 337.001,206.105 338.534,213.257C338.753,214.276 339.755,214.926 340.775,214.709C350.706,212.599 397.714,202.608 407.652,200.496C408.673,200.279 409.676,200.93 409.893,201.951C410.62,205.365 412.165,212.625 412.892,216.042C412.996,216.533 413.292,216.962 413.713,217.235C414.134,217.508 414.646,217.602 415.137,217.496C425.057,215.368 471.85,205.328 481.755,203.203C482.774,202.984 483.778,203.632 483.999,204.651C484.726,208.017 486.261,215.116 486.988,218.478C487.207,219.495 488.208,220.143 489.226,219.927C504.572,216.676 611.041,194.12 626.405,190.865C627.425,190.649 628.427,191.299 628.645,192.319C630.762,202.238 640.774,249.142 642.891,259.064C643.109,260.085 644.112,260.735 645.133,260.518C651.204,259.227 670.505,255.123 676.58,253.832C677.07,253.727 677.582,253.822 678.002,254.095C678.423,254.368 678.717,254.797 678.821,255.288C680.985,265.485 691.439,314.753 693.598,324.929C693.814,325.947 693.166,326.948 692.149,327.168C688.746,327.904 681.504,329.47 678.101,330.206C677.084,330.426 676.436,331.427 676.652,332.445C678.754,342.368 688.718,389.398 690.824,399.336C691.04,400.357 690.389,401.36 689.368,401.577C677.929,404.01 616.858,417.002 605.416,419.436C604.396,419.653 603.744,420.656 603.961,421.677C606.339,432.876 618.801,491.559 621.178,502.751C621.394,503.77 622.395,504.422 623.415,504.207C631.561,502.494 664.252,495.617 672.397,493.903C673.417,493.689 674.418,494.34 674.634,495.359C676.802,505.554 687.298,554.916 689.467,565.118C689.684,566.138 689.033,567.141 688.013,567.359C677.8,569.537 628.332,580.088 618.083,582.274C617.59,582.379 617.076,582.283 616.655,582.008C616.233,581.732 615.939,581.3 615.838,580.807C615.137,577.406 613.659,570.232 612.959,566.833C612.857,566.34 612.563,565.908 612.142,565.633C611.721,565.358 611.208,565.261 610.716,565.366C600.761,567.476 553.844,577.423 543.889,579.534C543.397,579.638 542.883,579.542 542.462,579.266C542.041,578.991 541.748,578.559 541.646,578.066C540.951,574.695 539.493,567.615 538.797,564.242C538.696,563.749 538.402,563.316 537.98,563.041C537.559,562.766 537.045,562.67 536.552,562.775C526.593,564.9 479.677,574.909 469.758,577.025C468.739,577.243 467.736,576.594 467.517,575.575C466.787,572.188 465.241,565.011 464.512,561.625C464.292,560.607 463.291,559.958 462.272,560.174C450.917,562.586 390.579,575.401 379.216,577.814C378.196,578.031 377.193,577.381 376.975,576.361C375.673,570.271 371.523,550.856 370.221,544.763C370.003,543.742 368.999,543.092 367.978,543.309C344.843,548.249 111.827,597.999 88.672,602.943C88.182,603.048 87.67,602.953 87.249,602.68C86.828,602.407 86.533,601.978 86.429,601.487C84.254,591.226 73.695,541.426 71.52,531.167C71.416,530.676 71.511,530.165 71.785,529.744C72.058,529.324 72.488,529.03 72.978,528.926C79.08,527.638 98.519,523.536 104.627,522.247C105.119,522.143 105.548,521.848 105.822,521.427C106.095,521.006 106.19,520.493 106.085,520.002C101.723,499.657 62.924,318.686 62.924,318.686L46.503,318.686L46.503,628L122.588,628L266.796,596.694L704.422,596.694L704.422,148L46.503,148ZM61.614,616.661C63.706,616.661 65.4,614.971 65.4,612.881C65.4,610.796 63.706,609.102 61.614,609.102C59.536,609.102 57.841,610.796 57.841,612.881C57.841,614.971 59.536,616.661 61.614,616.661ZM689.297,585.355C691.388,585.355 693.083,583.665 693.083,581.575C693.083,579.489 691.388,577.796 689.297,577.796C687.219,577.796 685.524,579.489 685.524,581.575C685.524,583.665 687.219,585.355 689.297,585.355ZM354.04,585.355C356.132,585.355 357.827,583.665 357.827,581.575C357.827,579.489 356.132,577.796 354.04,577.796C351.963,577.796 350.268,579.489 350.268,581.575C350.268,583.665 351.963,585.355 354.04,585.355ZM632.552,492.78C634.644,492.78 636.339,491.089 636.339,488.999C636.339,486.914 634.644,485.22 632.552,485.22C630.475,485.22 628.78,486.914 628.78,488.999C628.78,491.089 630.475,492.78 632.552,492.78ZM90.776,492.568C92.867,492.568 94.562,490.877 94.562,488.787C94.562,486.702 92.867,485.009 90.776,485.009C88.698,485.009 87.003,486.702 87.003,488.787C87.003,490.877 88.698,492.568 90.776,492.568ZM85.09,465.098C87.182,465.098 88.877,463.407 88.877,461.318C88.877,459.232 87.182,457.539 85.09,457.539C83.013,457.539 81.318,459.232 81.318,461.318C81.318,463.407 83.013,465.098 85.09,465.098ZM78.163,433.228C80.254,433.228 81.949,431.538 81.949,429.448C81.949,427.362 80.254,425.669 78.163,425.669C76.085,425.669 74.39,427.362 74.39,429.448C74.39,431.538 76.085,433.228 78.163,433.228ZM61.614,389.668C63.706,389.668 65.4,387.978 65.4,385.888C65.4,383.803 63.706,382.109 61.614,382.109C59.536,382.109 57.841,383.803 57.841,385.888C57.841,387.978 59.536,389.668 61.614,389.668ZM689.297,345.559C691.388,345.559 693.083,343.869 693.083,341.779C693.083,339.693 691.388,338 689.297,338C687.219,338 685.524,339.693 685.524,341.779C685.524,343.869 687.219,345.559 689.297,345.559ZM540.774,200.627C542.865,200.627 544.56,198.936 544.56,196.846C544.56,194.761 542.865,193.067 540.774,193.067C538.696,193.067 537.001,194.761 537.001,196.846C537.001,198.936 538.696,200.627 540.774,200.627ZM172.006,196.847C174.097,196.847 175.792,195.157 175.792,193.067C175.792,190.981 174.097,189.288 172.006,189.288C169.928,189.288 168.233,190.981 168.233,193.067C168.233,195.157 169.928,196.847 172.006,196.847ZM689.297,166.898C691.388,166.898 693.083,165.207 693.083,163.117C693.083,161.032 691.388,159.339 689.297,159.339C687.219,159.339 685.524,161.032 685.524,163.117C685.524,165.207 687.219,166.898 689.297,166.898ZM527.773,166.898C529.864,166.898 531.559,165.207 531.559,163.117C531.559,161.032 529.864,159.339 527.773,159.339C525.695,159.339 524,161.032 524,163.117C524,165.207 525.695,166.898 527.773,166.898ZM61.614,166.898C63.706,166.898 65.4,165.207 65.4,163.117C65.4,161.032 63.706,159.339 61.614,159.339C59.536,159.339 57.841,161.032 57.841,163.117C57.841,165.207 59.536,166.898 61.614,166.898ZM368.631,166.898C370.722,166.898 372.417,165.207 372.417,163.117C372.417,161.032 370.722,159.339 368.631,159.339C366.553,159.339 364.858,161.032 364.858,163.117C364.858,165.207 366.553,166.898 368.631,166.898Z" style="fill:rgb(255,99,247);fill-opacity:0.36;stroke:rgb(250,66,0);stroke-width:1.32px;"/>
                    </g>
                </g>
            </g>
        </g>
    </g>
</svg>
