G04 #@! TF.GenerationSoftware,KiCad,Pcbnew,(5.1.5-0-10_14)*
G04 #@! TF.CreationDate,2020-05-14T05:38:48+09:00*
G04 #@! TF.ProjectId,N-key-v02,4e2d6b65-792d-4763-9032-2e6b69636164,rev?*
G04 #@! TF.SameCoordinates,Original*
G04 #@! TF.FileFunction,Soldermask,Bot*
G04 #@! TF.FilePolarity,Negative*
%FSLAX46Y46*%
G04 Gerber Fmt 4.6, Leading zero omitted, Abs format (unit mm)*
G04 Created by KiCad (PCBNEW (5.1.5-0-10_14)) date 2020-05-14 05:38:48*
%MOMM*%
%LPD*%
G04 APERTURE LIST*
%ADD10C,0.100000*%
G04 APERTURE END LIST*
D10*
G36*
X93704795Y-155080156D02*
G01*
X93811150Y-155101311D01*
X94011520Y-155184307D01*
X94191844Y-155304795D01*
X94345205Y-155458156D01*
X94465693Y-155638480D01*
X94548689Y-155838851D01*
X94591000Y-156051560D01*
X94591000Y-156268440D01*
X94548689Y-156481149D01*
X94465693Y-156681520D01*
X94345205Y-156861844D01*
X94191844Y-157015205D01*
X94011520Y-157135693D01*
X93911334Y-157177191D01*
X93811150Y-157218689D01*
X93704794Y-157239845D01*
X93598440Y-157261000D01*
X93381560Y-157261000D01*
X93275206Y-157239845D01*
X93168850Y-157218689D01*
X93068666Y-157177191D01*
X92968480Y-157135693D01*
X92788156Y-157015205D01*
X92634795Y-156861844D01*
X92514307Y-156681520D01*
X92431311Y-156481149D01*
X92389000Y-156268440D01*
X92389000Y-156051560D01*
X92431311Y-155838851D01*
X92514307Y-155638480D01*
X92634795Y-155458156D01*
X92788156Y-155304795D01*
X92968480Y-155184307D01*
X93168850Y-155101311D01*
X93275205Y-155080156D01*
X93381560Y-155059000D01*
X93598440Y-155059000D01*
X93704795Y-155080156D01*
G37*
G36*
X168974794Y-145980155D02*
G01*
X169081150Y-146001311D01*
X169181334Y-146042809D01*
X169281520Y-146084307D01*
X169461844Y-146204795D01*
X169615205Y-146358156D01*
X169735693Y-146538480D01*
X169818689Y-146738851D01*
X169861000Y-146951560D01*
X169861000Y-147168440D01*
X169818689Y-147381149D01*
X169735693Y-147581520D01*
X169615205Y-147761844D01*
X169461844Y-147915205D01*
X169281520Y-148035693D01*
X169081150Y-148118689D01*
X168974794Y-148139845D01*
X168868440Y-148161000D01*
X168651560Y-148161000D01*
X168545206Y-148139845D01*
X168438850Y-148118689D01*
X168238480Y-148035693D01*
X168058156Y-147915205D01*
X167904795Y-147761844D01*
X167784307Y-147581520D01*
X167701311Y-147381149D01*
X167659000Y-147168440D01*
X167659000Y-146951560D01*
X167701311Y-146738851D01*
X167784307Y-146538480D01*
X167904795Y-146358156D01*
X168058156Y-146204795D01*
X168238480Y-146084307D01*
X168338666Y-146042809D01*
X168438850Y-146001311D01*
X168545206Y-145980155D01*
X168651560Y-145959000D01*
X168868440Y-145959000D01*
X168974794Y-145980155D01*
G37*
G36*
X130674795Y-131780156D02*
G01*
X130781150Y-131801311D01*
X130981520Y-131884307D01*
X131161844Y-132004795D01*
X131315205Y-132158156D01*
X131435693Y-132338480D01*
X131518689Y-132538851D01*
X131561000Y-132751560D01*
X131561000Y-132968440D01*
X131518689Y-133181149D01*
X131435693Y-133381520D01*
X131315205Y-133561844D01*
X131161844Y-133715205D01*
X130981520Y-133835693D01*
X130881334Y-133877191D01*
X130781150Y-133918689D01*
X130674794Y-133939845D01*
X130568440Y-133961000D01*
X130351560Y-133961000D01*
X130245206Y-133939845D01*
X130138850Y-133918689D01*
X130038666Y-133877191D01*
X129938480Y-133835693D01*
X129758156Y-133715205D01*
X129604795Y-133561844D01*
X129484307Y-133381520D01*
X129401311Y-133181149D01*
X129359000Y-132968440D01*
X129359000Y-132751560D01*
X129401311Y-132538851D01*
X129484307Y-132338480D01*
X129604795Y-132158156D01*
X129758156Y-132004795D01*
X129938480Y-131884307D01*
X130138850Y-131801311D01*
X130245205Y-131780156D01*
X130351560Y-131759000D01*
X130568440Y-131759000D01*
X130674795Y-131780156D01*
G37*
G36*
X118794795Y-75880156D02*
G01*
X118901150Y-75901311D01*
X119001334Y-75942809D01*
X119101520Y-75984307D01*
X119281844Y-76104795D01*
X119435205Y-76258156D01*
X119555693Y-76438480D01*
X119638689Y-76638851D01*
X119681000Y-76851560D01*
X119681000Y-77068440D01*
X119638689Y-77281149D01*
X119555693Y-77481520D01*
X119435205Y-77661844D01*
X119281844Y-77815205D01*
X119101520Y-77935693D01*
X118901150Y-78018689D01*
X118794794Y-78039845D01*
X118688440Y-78061000D01*
X118471560Y-78061000D01*
X118365206Y-78039845D01*
X118258850Y-78018689D01*
X118058480Y-77935693D01*
X117878156Y-77815205D01*
X117724795Y-77661844D01*
X117604307Y-77481520D01*
X117521311Y-77281149D01*
X117479000Y-77068440D01*
X117479000Y-76851560D01*
X117521311Y-76638851D01*
X117604307Y-76438480D01*
X117724795Y-76258156D01*
X117878156Y-76104795D01*
X118058480Y-75984307D01*
X118158666Y-75942809D01*
X118258850Y-75901311D01*
X118365205Y-75880156D01*
X118471560Y-75859000D01*
X118688440Y-75859000D01*
X118794795Y-75880156D01*
G37*
G36*
X98224795Y-58100156D02*
G01*
X98331150Y-58121311D01*
X98531520Y-58204307D01*
X98711844Y-58324795D01*
X98865205Y-58478156D01*
X98985693Y-58658480D01*
X99068689Y-58858851D01*
X99111000Y-59071560D01*
X99111000Y-59288440D01*
X99068689Y-59501149D01*
X98985693Y-59701520D01*
X98865205Y-59881844D01*
X98711844Y-60035205D01*
X98531520Y-60155693D01*
X98431334Y-60197191D01*
X98331150Y-60238689D01*
X98224794Y-60259845D01*
X98118440Y-60281000D01*
X97901560Y-60281000D01*
X97795206Y-60259845D01*
X97688850Y-60238689D01*
X97588666Y-60197191D01*
X97488480Y-60155693D01*
X97308156Y-60035205D01*
X97154795Y-59881844D01*
X97034307Y-59701520D01*
X96951311Y-59501149D01*
X96909000Y-59288440D01*
X96909000Y-59071560D01*
X96951311Y-58858851D01*
X97034307Y-58658480D01*
X97154795Y-58478156D01*
X97308156Y-58324795D01*
X97488480Y-58204307D01*
X97688850Y-58121311D01*
X97795205Y-58100156D01*
X97901560Y-58079000D01*
X98118440Y-58079000D01*
X98224795Y-58100156D01*
G37*
G36*
X156444795Y-50280156D02*
G01*
X156551150Y-50301311D01*
X156651334Y-50342809D01*
X156751520Y-50384307D01*
X156931844Y-50504795D01*
X157085205Y-50658156D01*
X157205693Y-50838480D01*
X157288689Y-51038851D01*
X157331000Y-51251560D01*
X157331000Y-51468440D01*
X157288689Y-51681149D01*
X157205693Y-51881520D01*
X157085205Y-52061844D01*
X156931844Y-52215205D01*
X156751520Y-52335693D01*
X156551150Y-52418689D01*
X156444794Y-52439845D01*
X156338440Y-52461000D01*
X156121560Y-52461000D01*
X156015206Y-52439845D01*
X155908850Y-52418689D01*
X155808666Y-52377191D01*
X155708480Y-52335693D01*
X155528156Y-52215205D01*
X155374795Y-52061844D01*
X155254307Y-51881520D01*
X155171311Y-51681149D01*
X155129000Y-51468440D01*
X155129000Y-51251560D01*
X155171311Y-51038851D01*
X155254307Y-50838480D01*
X155374795Y-50658156D01*
X155528156Y-50504795D01*
X155708480Y-50384307D01*
X155808666Y-50342809D01*
X155908850Y-50301311D01*
X156015205Y-50280156D01*
X156121560Y-50259000D01*
X156338440Y-50259000D01*
X156444795Y-50280156D01*
G37*
M02*
