G04 #@! TF.GenerationSoftware,KiCad,Pcbnew,(5.1.5-0-10_14)*
G04 #@! TF.CreationDate,2020-05-14T05:38:48+09:00*
G04 #@! TF.ProjectId,N-key-v02,4e2d6b65-792d-4763-9032-2e6b69636164,rev?*
G04 #@! TF.SameCoordinates,Original*
G04 #@! TF.FileFunction,Copper,L2,Bot*
G04 #@! TF.FilePolarity,Positive*
%FSLAX46Y46*%
G04 Gerber Fmt 4.6, Leading zero omitted, Abs format (unit mm)*
G04 Created by KiCad (PCBNEW (5.1.5-0-10_14)) date 2020-05-14 05:38:48*
%MOMM*%
%LPD*%
G04 APERTURE LIST*
%ADD10C,0.254000*%
G04 APERTURE END LIST*
D10*
G36*
X174438407Y-66024440D02*
G01*
X164692471Y-66024440D01*
X164633100Y-66023437D01*
X164505178Y-66046643D01*
X164384244Y-66094360D01*
X164274941Y-66164752D01*
X164181472Y-66255117D01*
X164107427Y-66361980D01*
X164055654Y-66481234D01*
X164028140Y-66608298D01*
X164026494Y-66705716D01*
X170359823Y-144449708D01*
X170345374Y-146484315D01*
X170253228Y-146261853D01*
X170068825Y-145985875D01*
X169834125Y-145751175D01*
X169558147Y-145566772D01*
X169251496Y-145439754D01*
X168925958Y-145375000D01*
X168594042Y-145375000D01*
X168268504Y-145439754D01*
X167961853Y-145566772D01*
X167685875Y-145751175D01*
X167451175Y-145985875D01*
X167266772Y-146261853D01*
X167139754Y-146568504D01*
X167075000Y-146894042D01*
X167075000Y-147225958D01*
X167139754Y-147551496D01*
X167266772Y-147858147D01*
X167451175Y-148134125D01*
X167685875Y-148368825D01*
X167903803Y-148514440D01*
X101446287Y-158527684D01*
X92010333Y-158527684D01*
X91866704Y-156636164D01*
X91869754Y-156651496D01*
X91996772Y-156958147D01*
X92181175Y-157234125D01*
X92415875Y-157468825D01*
X92691853Y-157653228D01*
X92998504Y-157780246D01*
X93324042Y-157845000D01*
X93655958Y-157845000D01*
X93981496Y-157780246D01*
X94288147Y-157653228D01*
X94564125Y-157468825D01*
X94798825Y-157234125D01*
X94983228Y-156958147D01*
X95110246Y-156651496D01*
X95175000Y-156325958D01*
X95175000Y-155994042D01*
X95110246Y-155668504D01*
X94983228Y-155361853D01*
X94798825Y-155085875D01*
X94564125Y-154851175D01*
X94288147Y-154666772D01*
X93981496Y-154539754D01*
X93655958Y-154475000D01*
X93324042Y-154475000D01*
X92998504Y-154539754D01*
X92691853Y-154666772D01*
X92415875Y-154851175D01*
X92181175Y-155085875D01*
X91996772Y-155361853D01*
X91869754Y-155668504D01*
X91814369Y-155946939D01*
X90840044Y-143115556D01*
X95339247Y-143115556D01*
X95339251Y-143115589D01*
X95339248Y-143115620D01*
X95346671Y-143182060D01*
X95353670Y-143244762D01*
X95363538Y-143275835D01*
X98260864Y-156907094D01*
X98264436Y-156939249D01*
X98274339Y-156970487D01*
X98274385Y-156970706D01*
X98284834Y-157003597D01*
X98303722Y-157063180D01*
X98303820Y-157063358D01*
X98303886Y-157063566D01*
X98335898Y-157121616D01*
X98366430Y-157177065D01*
X98366564Y-157177224D01*
X98366667Y-157177411D01*
X98408896Y-157227516D01*
X98450151Y-157276528D01*
X98450314Y-157276658D01*
X98450451Y-157276821D01*
X98501803Y-157317852D01*
X98551669Y-157357747D01*
X98551853Y-157357842D01*
X98552020Y-157357976D01*
X98609883Y-157387937D01*
X98667080Y-157417601D01*
X98667284Y-157417660D01*
X98667469Y-157417756D01*
X98729304Y-157435633D01*
X98791951Y-157453788D01*
X98792162Y-157453806D01*
X98792362Y-157453864D01*
X98856805Y-157459361D01*
X98921480Y-157464919D01*
X98921688Y-157464896D01*
X98921900Y-157464914D01*
X98987061Y-157457634D01*
X99018318Y-157454162D01*
X99018517Y-157454120D01*
X99051105Y-157450479D01*
X99081957Y-157440677D01*
X131356545Y-150602043D01*
X131389123Y-150598403D01*
X131449245Y-150579302D01*
X131512636Y-150559207D01*
X131512830Y-150559100D01*
X131513029Y-150559037D01*
X131568035Y-150528703D01*
X131626521Y-150496499D01*
X131626691Y-150496356D01*
X131626874Y-150496255D01*
X131675129Y-150455584D01*
X131725984Y-150412778D01*
X131726122Y-150412606D01*
X131726283Y-150412470D01*
X131765943Y-150362832D01*
X131807203Y-150311260D01*
X131807304Y-150311065D01*
X131807436Y-150310900D01*
X131836500Y-150254769D01*
X131867057Y-150195849D01*
X131867119Y-150195636D01*
X131867215Y-150195450D01*
X131884868Y-150134388D01*
X131903244Y-150070978D01*
X131903263Y-150070761D01*
X131903322Y-150070556D01*
X131908837Y-150005887D01*
X131914375Y-149941447D01*
X131914351Y-149941235D01*
X131914370Y-149941018D01*
X131907181Y-149876678D01*
X131900022Y-149812233D01*
X131890113Y-149780972D01*
X128993229Y-136152640D01*
X128990115Y-136122726D01*
X128979750Y-136089227D01*
X128979230Y-136086782D01*
X128970152Y-136058207D01*
X128951685Y-135998526D01*
X128950489Y-135996318D01*
X128949728Y-135993923D01*
X128919528Y-135939160D01*
X128889763Y-135884212D01*
X128888159Y-135882280D01*
X128886945Y-135880078D01*
X128846643Y-135832261D01*
X128806730Y-135784173D01*
X128804779Y-135782590D01*
X128803160Y-135780669D01*
X128754362Y-135741680D01*
X128705776Y-135702256D01*
X128703550Y-135701082D01*
X128701590Y-135699516D01*
X128646144Y-135670807D01*
X128590780Y-135641608D01*
X128588369Y-135640891D01*
X128586140Y-135639737D01*
X128526050Y-135622365D01*
X128466162Y-135604561D01*
X128463665Y-135604329D01*
X128461247Y-135603630D01*
X128398854Y-135598309D01*
X128336711Y-135592536D01*
X128334216Y-135592796D01*
X128331710Y-135592582D01*
X128269596Y-135599522D01*
X128239801Y-135602624D01*
X128237352Y-135603125D01*
X128202505Y-135607019D01*
X128173842Y-135616125D01*
X125962846Y-136068698D01*
X125905785Y-135799836D01*
X125902164Y-135767391D01*
X125881479Y-135702256D01*
X125862864Y-135643597D01*
X125862834Y-135643542D01*
X125862814Y-135643480D01*
X125830438Y-135584755D01*
X125800118Y-135529733D01*
X125800079Y-135529686D01*
X125800046Y-135529627D01*
X125756595Y-135478061D01*
X125716365Y-135430297D01*
X125716316Y-135430258D01*
X125716274Y-135430208D01*
X125665965Y-135390001D01*
X125614821Y-135349111D01*
X125614762Y-135349081D01*
X125614714Y-135349042D01*
X125559268Y-135320324D01*
X125499390Y-135289295D01*
X125499326Y-135289276D01*
X125499271Y-135289248D01*
X125439017Y-135271821D01*
X125374508Y-135253149D01*
X125374442Y-135253143D01*
X125374382Y-135253126D01*
X125311534Y-135247757D01*
X125244974Y-135242059D01*
X125244908Y-135242066D01*
X125244846Y-135242061D01*
X125180067Y-135249291D01*
X125115765Y-135256455D01*
X125084659Y-135266327D01*
X121919520Y-135938701D01*
X121886985Y-135942348D01*
X121824771Y-135962138D01*
X121763389Y-135981631D01*
X121763248Y-135981709D01*
X121763093Y-135981758D01*
X121705958Y-136013293D01*
X121649536Y-136044399D01*
X121649413Y-136044503D01*
X121649271Y-136044581D01*
X121599237Y-136086782D01*
X121550117Y-136128172D01*
X121550018Y-136128295D01*
X121549892Y-136128402D01*
X121509136Y-136179449D01*
X121468951Y-136229731D01*
X121468876Y-136229876D01*
X121468776Y-136230001D01*
X121439208Y-136287156D01*
X121409157Y-136345174D01*
X121409112Y-136345330D01*
X121409038Y-136345473D01*
X121390973Y-136408043D01*
X121373035Y-136470063D01*
X121373021Y-136470222D01*
X121372976Y-136470379D01*
X121367432Y-136535661D01*
X121361970Y-136599598D01*
X121361988Y-136599758D01*
X121361974Y-136599920D01*
X121369236Y-136664703D01*
X121376390Y-136728805D01*
X121386298Y-136760005D01*
X121442729Y-137025015D01*
X102691672Y-141010153D01*
X102635471Y-140745903D01*
X102631865Y-140713599D01*
X102621984Y-140682486D01*
X102621969Y-140682417D01*
X102612341Y-140652123D01*
X102592512Y-140589690D01*
X102592477Y-140589626D01*
X102592456Y-140589561D01*
X102561986Y-140534324D01*
X102529741Y-140475839D01*
X102529695Y-140475784D01*
X102529661Y-140475723D01*
X102488539Y-140426944D01*
X102445966Y-140376422D01*
X102445910Y-140376377D01*
X102445865Y-140376324D01*
X102396525Y-140336911D01*
X102344404Y-140295258D01*
X102344339Y-140295224D01*
X102344286Y-140295182D01*
X102288366Y-140266234D01*
X102228960Y-140235467D01*
X102228891Y-140235447D01*
X102228829Y-140235415D01*
X102168094Y-140217864D01*
X102104070Y-140199348D01*
X102103997Y-140199342D01*
X102103932Y-140199323D01*
X102040724Y-140193939D01*
X101974533Y-140188287D01*
X101974463Y-140188295D01*
X101974394Y-140188289D01*
X101909943Y-140195498D01*
X101877701Y-140199097D01*
X101877634Y-140199111D01*
X101845190Y-140202740D01*
X101814212Y-140212586D01*
X98649780Y-140884899D01*
X98617393Y-140888515D01*
X98541691Y-140912560D01*
X98493502Y-140927864D01*
X98493495Y-140927868D01*
X98493485Y-140927871D01*
X98440635Y-140957012D01*
X98379651Y-140990635D01*
X98379642Y-140990643D01*
X98379636Y-140990646D01*
X98343633Y-141020986D01*
X98280233Y-141074410D01*
X98280226Y-141074419D01*
X98280221Y-141074423D01*
X98243882Y-141119897D01*
X98199070Y-141175972D01*
X98199066Y-141175979D01*
X98199060Y-141175987D01*
X98172571Y-141227136D01*
X98139279Y-141291416D01*
X98139275Y-141291428D01*
X98139273Y-141291433D01*
X98129221Y-141326194D01*
X98103160Y-141416306D01*
X98103159Y-141416317D01*
X98103157Y-141416324D01*
X98099362Y-141460785D01*
X98092099Y-141545842D01*
X98092100Y-141545855D01*
X98092100Y-141545861D01*
X98094585Y-141568112D01*
X98106523Y-141675049D01*
X98116387Y-141706107D01*
X98172702Y-141971133D01*
X95896910Y-142454622D01*
X95864503Y-142458243D01*
X95800952Y-142478433D01*
X95740655Y-142497582D01*
X95740628Y-142497597D01*
X95740596Y-142497607D01*
X95685357Y-142528069D01*
X95626804Y-142560351D01*
X95626777Y-142560373D01*
X95626751Y-142560388D01*
X95579201Y-142600464D01*
X95527386Y-142644126D01*
X95527366Y-142644151D01*
X95527341Y-142644172D01*
X95486557Y-142695215D01*
X95446222Y-142745687D01*
X95446207Y-142745716D01*
X95446187Y-142745741D01*
X95416391Y-142803283D01*
X95386430Y-142861130D01*
X95386421Y-142861161D01*
X95386406Y-142861190D01*
X95367753Y-142925707D01*
X95350310Y-142986020D01*
X95350307Y-142986051D01*
X95350298Y-142986083D01*
X95344708Y-143051612D01*
X95339247Y-143115556D01*
X90840044Y-143115556D01*
X89426184Y-124495731D01*
X91380234Y-124495731D01*
X91394670Y-124624936D01*
X91404532Y-124655978D01*
X94301895Y-138286566D01*
X94305510Y-138318923D01*
X94315369Y-138349956D01*
X94315373Y-138349974D01*
X94344875Y-138442833D01*
X94407658Y-138556677D01*
X94491443Y-138656087D01*
X94593012Y-138737240D01*
X94666369Y-138775223D01*
X94708460Y-138797018D01*
X94833353Y-138833125D01*
X94962890Y-138844174D01*
X94962894Y-138844174D01*
X95032568Y-138836389D01*
X95059721Y-138833355D01*
X95059723Y-138833355D01*
X95092099Y-138829737D01*
X95123141Y-138819875D01*
X108754148Y-135922513D01*
X108786509Y-135918897D01*
X108817537Y-135909039D01*
X108817552Y-135909036D01*
X108910412Y-135879534D01*
X109024256Y-135816753D01*
X109123666Y-135732968D01*
X109204820Y-135631399D01*
X109264600Y-135515949D01*
X109300707Y-135391056D01*
X109300707Y-135391054D01*
X109300708Y-135391051D01*
X109307044Y-135316758D01*
X109311756Y-135261518D01*
X109311756Y-135261513D01*
X109304235Y-135194207D01*
X132605704Y-135194207D01*
X132605704Y-135194215D01*
X132611050Y-135242059D01*
X132616522Y-135291038D01*
X132616524Y-135291045D01*
X132620141Y-135323420D01*
X132630002Y-135354459D01*
X135527369Y-148985908D01*
X135530989Y-149018292D01*
X135545014Y-149062429D01*
X135570342Y-149142152D01*
X135570357Y-149142179D01*
X135570362Y-149142195D01*
X135592627Y-149182563D01*
X135633123Y-149255997D01*
X135633142Y-149256019D01*
X135633151Y-149256036D01*
X135666994Y-149296185D01*
X135716907Y-149355407D01*
X135716929Y-149355425D01*
X135716942Y-149355440D01*
X135759574Y-149389499D01*
X135818476Y-149436562D01*
X135818501Y-149436575D01*
X135818516Y-149436587D01*
X135870142Y-149463315D01*
X135933925Y-149496342D01*
X135933948Y-149496349D01*
X135933970Y-149496360D01*
X135997131Y-149514616D01*
X136058818Y-149532450D01*
X136058842Y-149532452D01*
X136058866Y-149532459D01*
X136122410Y-149537875D01*
X136188356Y-149543500D01*
X136188382Y-149543497D01*
X136188404Y-149543499D01*
X136247891Y-149536849D01*
X136317561Y-149529065D01*
X136348635Y-149519193D01*
X149979217Y-146620990D01*
X150011555Y-146617377D01*
X150042605Y-146607513D01*
X150042640Y-146607505D01*
X150092005Y-146591818D01*
X150135461Y-146578012D01*
X150135476Y-146578004D01*
X150135497Y-146577997D01*
X150204840Y-146539751D01*
X150249306Y-146515229D01*
X150249318Y-146515219D01*
X150249338Y-146515208D01*
X150307444Y-146466229D01*
X150348715Y-146431444D01*
X150348725Y-146431431D01*
X150348742Y-146431417D01*
X150395122Y-146373362D01*
X150429868Y-146329875D01*
X150429876Y-146329859D01*
X150429889Y-146329843D01*
X150467926Y-146256373D01*
X150489647Y-146214424D01*
X150489651Y-146214410D01*
X150489662Y-146214389D01*
X150510939Y-146140774D01*
X150525754Y-146089531D01*
X150525756Y-146089511D01*
X150525761Y-146089493D01*
X150531231Y-146025314D01*
X150536802Y-145959993D01*
X150536800Y-145959971D01*
X150536801Y-145959955D01*
X150530138Y-145900351D01*
X150525983Y-145863162D01*
X150525977Y-145863136D01*
X150522357Y-145830750D01*
X150512500Y-145799730D01*
X147616045Y-132173417D01*
X147613277Y-132145308D01*
X147612010Y-132141130D01*
X147611526Y-132136802D01*
X147601665Y-132105764D01*
X147601663Y-132105755D01*
X147593154Y-132078973D01*
X147575537Y-132020898D01*
X147573482Y-132017052D01*
X147572161Y-132012896D01*
X147542878Y-131959797D01*
X147514252Y-131906241D01*
X147511481Y-131902865D01*
X147509378Y-131899051D01*
X147470307Y-131852694D01*
X147431775Y-131805743D01*
X147428402Y-131802975D01*
X147425593Y-131799642D01*
X147378217Y-131761789D01*
X147331277Y-131723266D01*
X147327428Y-131721208D01*
X147324024Y-131718489D01*
X147270185Y-131690612D01*
X147216620Y-131661981D01*
X147212443Y-131660714D01*
X147208573Y-131658710D01*
X147150326Y-131641871D01*
X147092210Y-131624241D01*
X147087866Y-131623813D01*
X147083680Y-131622603D01*
X147023243Y-131617448D01*
X146995246Y-131614691D01*
X146990912Y-131614691D01*
X146954143Y-131611555D01*
X146954142Y-131611555D01*
X146928538Y-131614416D01*
X146893878Y-131618289D01*
X146833444Y-131624241D01*
X146829266Y-131625508D01*
X146824938Y-131625992D01*
X146793890Y-131635856D01*
X133163325Y-134533214D01*
X133130959Y-134536830D01*
X133099912Y-134546693D01*
X133099904Y-134546695D01*
X133051116Y-134562195D01*
X133007052Y-134576194D01*
X133007049Y-134576196D01*
X133007045Y-134576197D01*
X132971189Y-134595971D01*
X132893207Y-134638975D01*
X132893203Y-134638978D01*
X132893200Y-134638980D01*
X132844667Y-134679885D01*
X132793797Y-134722759D01*
X132793795Y-134722762D01*
X132793791Y-134722765D01*
X132750831Y-134776533D01*
X132712643Y-134824328D01*
X132712642Y-134824330D01*
X132712638Y-134824335D01*
X132687741Y-134872418D01*
X132652862Y-134939777D01*
X132652861Y-134939782D01*
X132652859Y-134939785D01*
X132616752Y-135064678D01*
X132610984Y-135132313D01*
X132605704Y-135194207D01*
X109304235Y-135194207D01*
X109297320Y-135132313D01*
X109287456Y-135101263D01*
X106390998Y-121474937D01*
X106388230Y-121446828D01*
X106386963Y-121442653D01*
X106386480Y-121438326D01*
X106376618Y-121407284D01*
X106376616Y-121407275D01*
X106368107Y-121380493D01*
X106350490Y-121322418D01*
X106348435Y-121318572D01*
X106347114Y-121314416D01*
X106317831Y-121261317D01*
X106289205Y-121207761D01*
X106286436Y-121204388D01*
X106284334Y-121200575D01*
X106265865Y-121178661D01*
X106247421Y-121156778D01*
X106245259Y-121154213D01*
X106206728Y-121107263D01*
X106203356Y-121104496D01*
X106200549Y-121101165D01*
X106200546Y-121101162D01*
X106166502Y-121073961D01*
X106153177Y-121063314D01*
X106106230Y-121024786D01*
X106102382Y-121022729D01*
X106098980Y-121020011D01*
X106045122Y-120992123D01*
X105991573Y-120963501D01*
X105987401Y-120962235D01*
X105983530Y-120960231D01*
X105925268Y-120943387D01*
X105867163Y-120925761D01*
X105862820Y-120925333D01*
X105858637Y-120924124D01*
X105858636Y-120924124D01*
X105858633Y-120924123D01*
X105798196Y-120918968D01*
X105770199Y-120916211D01*
X105765865Y-120916211D01*
X105765334Y-120916166D01*
X105729099Y-120913075D01*
X105729096Y-120913075D01*
X105676841Y-120918914D01*
X105668827Y-120919809D01*
X105608397Y-120925761D01*
X105604219Y-120927028D01*
X105599891Y-120927512D01*
X105568848Y-120937374D01*
X91937852Y-123834735D01*
X91905481Y-123838352D01*
X91874442Y-123848213D01*
X91874438Y-123848214D01*
X91820392Y-123865385D01*
X91781575Y-123877717D01*
X91712935Y-123915570D01*
X91667734Y-123940497D01*
X91568324Y-124024282D01*
X91568321Y-124024285D01*
X91541120Y-124058329D01*
X91487170Y-124125851D01*
X91427390Y-124241301D01*
X91427389Y-124241305D01*
X91391282Y-124366198D01*
X91384003Y-124451539D01*
X91380234Y-124495731D01*
X89426184Y-124495731D01*
X89125436Y-120535028D01*
X110014098Y-120535028D01*
X110024917Y-120631859D01*
X110024918Y-120631865D01*
X110028535Y-120664233D01*
X110038397Y-120695274D01*
X112935759Y-134325862D01*
X112939375Y-134358220D01*
X112949234Y-134389251D01*
X112949237Y-134389267D01*
X112978739Y-134482126D01*
X113041522Y-134595970D01*
X113125307Y-134695380D01*
X113226876Y-134776533D01*
X113342327Y-134836312D01*
X113378434Y-134846750D01*
X113467221Y-134872419D01*
X113596758Y-134883467D01*
X113693589Y-134872648D01*
X113693595Y-134872647D01*
X113725963Y-134869030D01*
X113757001Y-134859169D01*
X123942800Y-132694042D01*
X128775000Y-132694042D01*
X128775000Y-133025958D01*
X128839754Y-133351496D01*
X128966772Y-133658147D01*
X129151175Y-133934125D01*
X129385875Y-134168825D01*
X129661853Y-134353228D01*
X129968504Y-134480246D01*
X130294042Y-134545000D01*
X130625958Y-134545000D01*
X130951496Y-134480246D01*
X131258147Y-134353228D01*
X131534125Y-134168825D01*
X131768825Y-133934125D01*
X131953228Y-133658147D01*
X132080246Y-133351496D01*
X132145000Y-133025958D01*
X132145000Y-132694042D01*
X132080246Y-132368504D01*
X131953228Y-132061853D01*
X131768825Y-131785875D01*
X131534125Y-131551175D01*
X131258147Y-131366772D01*
X130951496Y-131239754D01*
X130625958Y-131175000D01*
X130294042Y-131175000D01*
X129968504Y-131239754D01*
X129661853Y-131366772D01*
X129385875Y-131551175D01*
X129151175Y-131785875D01*
X128966772Y-132061853D01*
X128839754Y-132368504D01*
X128775000Y-132694042D01*
X123942800Y-132694042D01*
X127387591Y-131961806D01*
X127419949Y-131958190D01*
X127450978Y-131948332D01*
X127450996Y-131948328D01*
X127543855Y-131918826D01*
X127657699Y-131856043D01*
X127757108Y-131772258D01*
X127757695Y-131771524D01*
X127772563Y-131752915D01*
X127838262Y-131670689D01*
X127898041Y-131555238D01*
X127911243Y-131509570D01*
X127934148Y-131430344D01*
X127945196Y-131300806D01*
X127940146Y-131255609D01*
X127930759Y-131171602D01*
X127920896Y-131140556D01*
X125024438Y-117514230D01*
X125021670Y-117486121D01*
X125020403Y-117481943D01*
X125019919Y-117477615D01*
X125010058Y-117446577D01*
X125010056Y-117446568D01*
X125001547Y-117419786D01*
X124983930Y-117361711D01*
X124981875Y-117357865D01*
X124980554Y-117353709D01*
X124951271Y-117300610D01*
X124922645Y-117247054D01*
X124919874Y-117243678D01*
X124917771Y-117239864D01*
X124878700Y-117193507D01*
X124840168Y-117146556D01*
X124836795Y-117143788D01*
X124833986Y-117140455D01*
X124786628Y-117102616D01*
X124739670Y-117064079D01*
X124735818Y-117062020D01*
X124732416Y-117059302D01*
X124678594Y-117031434D01*
X124625013Y-117002794D01*
X124620836Y-117001527D01*
X124616966Y-116999523D01*
X124558719Y-116982684D01*
X124500603Y-116965054D01*
X124496259Y-116964626D01*
X124492073Y-116963416D01*
X124431636Y-116958261D01*
X124403639Y-116955504D01*
X124399305Y-116955504D01*
X124362536Y-116952368D01*
X124362534Y-116952368D01*
X124318428Y-116957296D01*
X124302271Y-116959102D01*
X124241837Y-116965054D01*
X124237659Y-116966321D01*
X124233331Y-116966805D01*
X124202283Y-116976669D01*
X110571713Y-119874028D01*
X110539345Y-119877645D01*
X110508304Y-119887507D01*
X110508298Y-119887508D01*
X110438498Y-119909684D01*
X110415439Y-119917010D01*
X110301594Y-119979793D01*
X110202185Y-120063578D01*
X110121032Y-120165148D01*
X110061253Y-120280598D01*
X110025146Y-120405491D01*
X110014098Y-120535028D01*
X89125436Y-120535028D01*
X88963321Y-118400056D01*
X88964324Y-118388293D01*
X88958405Y-118335317D01*
X88956838Y-118314681D01*
X88954810Y-118303139D01*
X88953505Y-118291462D01*
X88949191Y-118271169D01*
X88939974Y-118218718D01*
X88935705Y-118207721D01*
X86308522Y-105848235D01*
X87416649Y-105848235D01*
X87431085Y-105977440D01*
X87440949Y-106008488D01*
X90338308Y-119639569D01*
X90341924Y-119671933D01*
X90351785Y-119702972D01*
X90351787Y-119702982D01*
X90381288Y-119795842D01*
X90444070Y-119909686D01*
X90527854Y-120009096D01*
X90629423Y-120090250D01*
X90744873Y-120150030D01*
X90869766Y-120186138D01*
X90978941Y-120195450D01*
X90999302Y-120197187D01*
X90999304Y-120197187D01*
X91024125Y-120194414D01*
X91096133Y-120186369D01*
X91096139Y-120186368D01*
X91128509Y-120182751D01*
X91159550Y-120172890D01*
X104790892Y-117275527D01*
X104823270Y-117271909D01*
X104863066Y-117259265D01*
X104947163Y-117232549D01*
X105061008Y-117169767D01*
X105061015Y-117169761D01*
X105061019Y-117169759D01*
X105095787Y-117140455D01*
X105160418Y-117085984D01*
X105241572Y-116984415D01*
X105241576Y-116984407D01*
X105241580Y-116984402D01*
X105263904Y-116941287D01*
X105301353Y-116868965D01*
X105301356Y-116868955D01*
X105301358Y-116868951D01*
X105313357Y-116827444D01*
X105337461Y-116744072D01*
X105337462Y-116744061D01*
X105337463Y-116744057D01*
X105341443Y-116697387D01*
X105348510Y-116614534D01*
X105348509Y-116614528D01*
X105348510Y-116614519D01*
X105344018Y-116574322D01*
X128647538Y-116574322D01*
X128647539Y-116574327D01*
X128647538Y-116574334D01*
X128654122Y-116633246D01*
X128658357Y-116671153D01*
X128658359Y-116671162D01*
X128661977Y-116703538D01*
X128671838Y-116734575D01*
X131569198Y-130365149D01*
X131572813Y-130397505D01*
X131582673Y-130428542D01*
X131582677Y-130428560D01*
X131612179Y-130521419D01*
X131657953Y-130604421D01*
X131674958Y-130635257D01*
X131674960Y-130635259D01*
X131674962Y-130635263D01*
X131723014Y-130692275D01*
X131758742Y-130734667D01*
X131758747Y-130734672D01*
X131860316Y-130815826D01*
X131952009Y-130863303D01*
X131975760Y-130875602D01*
X131975763Y-130875603D01*
X131975767Y-130875605D01*
X132036728Y-130893229D01*
X132100653Y-130911710D01*
X132100658Y-130911710D01*
X132100660Y-130911711D01*
X132148746Y-130915812D01*
X132230190Y-130922760D01*
X132230198Y-130922760D01*
X132283583Y-130916795D01*
X132327021Y-130911942D01*
X132327028Y-130911940D01*
X132359403Y-130908323D01*
X132390440Y-130898462D01*
X146021870Y-128001100D01*
X146054232Y-127997484D01*
X146085262Y-127987626D01*
X146085275Y-127987623D01*
X146178135Y-127958122D01*
X146291980Y-127895341D01*
X146391390Y-127811557D01*
X146472545Y-127709988D01*
X146532325Y-127594539D01*
X146532326Y-127594536D01*
X146532327Y-127594534D01*
X146568434Y-127469641D01*
X146579483Y-127340103D01*
X146568664Y-127243272D01*
X146565048Y-127210903D01*
X146555184Y-127179854D01*
X144112509Y-115687980D01*
X146927920Y-115687980D01*
X146927926Y-115688037D01*
X146927921Y-115688100D01*
X146935297Y-115753897D01*
X146938756Y-115784809D01*
X146938768Y-115784867D01*
X146942404Y-115817300D01*
X146952261Y-115848286D01*
X147625369Y-119012155D01*
X147628956Y-119044353D01*
X147638855Y-119075544D01*
X147638892Y-119075720D01*
X147649424Y-119108851D01*
X147668282Y-119168272D01*
X147668360Y-119168414D01*
X147668411Y-119168574D01*
X147700567Y-119226860D01*
X147731028Y-119282136D01*
X147731131Y-119282258D01*
X147731213Y-119282407D01*
X147774097Y-119333270D01*
X147814781Y-119381572D01*
X147814907Y-119381673D01*
X147815016Y-119381802D01*
X147866571Y-119422979D01*
X147916325Y-119462758D01*
X147916470Y-119462833D01*
X147916600Y-119462937D01*
X147974685Y-119493000D01*
X148031756Y-119522574D01*
X148031913Y-119522619D01*
X148032061Y-119522696D01*
X148094726Y-119540800D01*
X148156638Y-119558720D01*
X148156802Y-119558734D01*
X148156961Y-119558780D01*
X148220836Y-119564216D01*
X148286171Y-119569810D01*
X148286339Y-119569791D01*
X148286501Y-119569805D01*
X148350997Y-119562587D01*
X148383005Y-119559021D01*
X148383162Y-119558988D01*
X148415703Y-119555346D01*
X148446595Y-119545525D01*
X148710805Y-119489452D01*
X152696743Y-138240478D01*
X152431892Y-138296637D01*
X152399309Y-138300282D01*
X152337450Y-138319943D01*
X152275789Y-138339499D01*
X152275605Y-138339600D01*
X152275408Y-138339663D01*
X152219227Y-138370655D01*
X152161914Y-138402224D01*
X152161753Y-138402360D01*
X152161571Y-138402460D01*
X152112741Y-138443626D01*
X152062462Y-138485959D01*
X152062329Y-138486126D01*
X152062173Y-138486257D01*
X152022261Y-138536222D01*
X151981258Y-138587489D01*
X151981162Y-138587674D01*
X151981032Y-138587837D01*
X151951321Y-138645235D01*
X151921421Y-138702909D01*
X151921363Y-138703110D01*
X151921267Y-138703295D01*
X151903278Y-138765548D01*
X151885252Y-138827784D01*
X151885234Y-138827992D01*
X151885176Y-138828193D01*
X151879639Y-138893205D01*
X151874139Y-138957316D01*
X151874162Y-138957521D01*
X151874144Y-138957731D01*
X151881347Y-139022118D01*
X151888511Y-139086528D01*
X151898422Y-139117780D01*
X152571653Y-142283042D01*
X152575303Y-142315545D01*
X152594550Y-142376012D01*
X152614625Y-142439175D01*
X152614694Y-142439300D01*
X152614735Y-142439429D01*
X152645589Y-142495305D01*
X152677422Y-142553012D01*
X152677512Y-142553119D01*
X152677579Y-142553240D01*
X152718867Y-142602173D01*
X152761219Y-142652410D01*
X152761330Y-142652499D01*
X152761418Y-142652603D01*
X152811434Y-142692521D01*
X152862799Y-142733551D01*
X152862924Y-142733616D01*
X152863032Y-142733702D01*
X152920171Y-142763249D01*
X152978257Y-142793316D01*
X152978392Y-142793355D01*
X152978514Y-142793418D01*
X153039702Y-142811071D01*
X153103155Y-142829407D01*
X153103296Y-142829419D01*
X153103428Y-142829457D01*
X153167198Y-142834861D01*
X153232694Y-142840439D01*
X153232834Y-142840423D01*
X153232971Y-142840435D01*
X153296695Y-142833280D01*
X153361897Y-142825986D01*
X153393076Y-142816076D01*
X153657069Y-142759811D01*
X154140478Y-145035290D01*
X154144099Y-145067699D01*
X154163196Y-145127810D01*
X154183435Y-145191543D01*
X154183454Y-145191577D01*
X154183463Y-145191606D01*
X154210117Y-145239940D01*
X154246204Y-145305395D01*
X154246230Y-145305426D01*
X154246244Y-145305451D01*
X154280492Y-145346086D01*
X154329978Y-145404814D01*
X154330010Y-145404839D01*
X154330028Y-145404861D01*
X154369337Y-145436269D01*
X154431538Y-145485979D01*
X154431578Y-145486000D01*
X154431597Y-145486015D01*
X154476094Y-145509056D01*
X154546982Y-145545771D01*
X154547018Y-145545781D01*
X154547046Y-145545796D01*
X154604298Y-145562348D01*
X154671871Y-145581892D01*
X154671909Y-145581895D01*
X154671939Y-145581904D01*
X154733644Y-145587168D01*
X154801408Y-145592955D01*
X154801443Y-145592951D01*
X154801476Y-145592954D01*
X154867235Y-145585607D01*
X154930614Y-145578533D01*
X154961691Y-145568664D01*
X168592936Y-142671341D01*
X168625088Y-142667770D01*
X168656341Y-142657864D01*
X168656562Y-142657817D01*
X168688062Y-142647810D01*
X168749021Y-142628488D01*
X168749213Y-142628383D01*
X168749422Y-142628316D01*
X168806350Y-142596923D01*
X168862907Y-142565782D01*
X168863074Y-142565641D01*
X168863267Y-142565535D01*
X168913296Y-142523370D01*
X168962372Y-142482063D01*
X168962507Y-142481894D01*
X168962677Y-142481751D01*
X169003451Y-142430721D01*
X169043594Y-142380548D01*
X169043695Y-142380354D01*
X169043832Y-142380182D01*
X169073762Y-142322379D01*
X169103450Y-142265138D01*
X169103511Y-142264929D01*
X169103612Y-142264733D01*
X169121522Y-142202786D01*
X169139641Y-142140269D01*
X169139660Y-142140047D01*
X169139720Y-142139840D01*
X169145157Y-142076099D01*
X169150776Y-142010738D01*
X169150752Y-142010518D01*
X169150770Y-142010302D01*
X169143588Y-141946016D01*
X169140021Y-141913900D01*
X169139976Y-141913688D01*
X169136335Y-141881097D01*
X169126537Y-141850257D01*
X162288749Y-109575591D01*
X162285108Y-109543002D01*
X162265506Y-109481299D01*
X162245916Y-109419496D01*
X162245811Y-109419304D01*
X162245744Y-109419095D01*
X162214351Y-109362167D01*
X162183210Y-109305610D01*
X162183069Y-109305443D01*
X162182963Y-109305250D01*
X162140801Y-109255224D01*
X162099492Y-109206145D01*
X162099323Y-109206010D01*
X162099180Y-109205840D01*
X162047774Y-109164766D01*
X161997976Y-109124923D01*
X161997785Y-109124824D01*
X161997611Y-109124685D01*
X161939499Y-109094595D01*
X161882566Y-109065067D01*
X161882357Y-109065006D01*
X161882161Y-109064905D01*
X161819513Y-109046793D01*
X161757697Y-109028877D01*
X161757480Y-109028858D01*
X161757268Y-109028797D01*
X161692080Y-109023236D01*
X161628167Y-109017742D01*
X161627952Y-109017766D01*
X161627730Y-109017747D01*
X161563075Y-109024970D01*
X161498953Y-109032091D01*
X161467691Y-109042000D01*
X147838400Y-111938909D01*
X147808384Y-111942043D01*
X147774989Y-111952387D01*
X147772646Y-111952885D01*
X147743977Y-111961993D01*
X147684196Y-111980510D01*
X147682079Y-111981657D01*
X147679786Y-111982386D01*
X147624961Y-112012620D01*
X147569900Y-112042467D01*
X147568048Y-112044005D01*
X147565941Y-112045167D01*
X147518096Y-112085491D01*
X147469887Y-112125530D01*
X147468369Y-112127402D01*
X147466531Y-112128951D01*
X147427494Y-112177809D01*
X147388001Y-112226510D01*
X147386877Y-112228642D01*
X147385377Y-112230520D01*
X147356608Y-112286078D01*
X147327388Y-112341524D01*
X147326703Y-112343832D01*
X147325596Y-112345969D01*
X147308212Y-112406098D01*
X147290378Y-112466153D01*
X147290156Y-112468552D01*
X147289488Y-112470862D01*
X147284166Y-112533252D01*
X147278393Y-112595607D01*
X147278643Y-112597999D01*
X147278438Y-112600399D01*
X147285396Y-112662678D01*
X147288511Y-112692513D01*
X147288990Y-112694851D01*
X147292873Y-112729604D01*
X147302013Y-112758376D01*
X147755295Y-114969408D01*
X147485364Y-115026887D01*
X147453050Y-115030503D01*
X147421948Y-115040390D01*
X147421889Y-115040403D01*
X147389719Y-115050636D01*
X147329151Y-115069891D01*
X147329101Y-115069919D01*
X147329040Y-115069938D01*
X147270364Y-115102324D01*
X147215317Y-115132693D01*
X147215271Y-115132732D01*
X147215218Y-115132761D01*
X147165051Y-115175074D01*
X147115923Y-115216496D01*
X147115886Y-115216542D01*
X147115839Y-115216582D01*
X147075748Y-115266797D01*
X147034788Y-115318080D01*
X147034759Y-115318136D01*
X147034723Y-115318181D01*
X147006244Y-115373230D01*
X146975029Y-115433541D01*
X146975011Y-115433602D01*
X146974985Y-115433653D01*
X146957294Y-115494928D01*
X146938945Y-115558441D01*
X146938940Y-115558500D01*
X146938923Y-115558559D01*
X146933245Y-115625409D01*
X146927920Y-115687980D01*
X144112509Y-115687980D01*
X143658726Y-113553103D01*
X143655957Y-113524991D01*
X143654688Y-113520809D01*
X143654204Y-113516474D01*
X143637592Y-113464190D01*
X143635840Y-113458675D01*
X143618217Y-113400581D01*
X143616161Y-113396734D01*
X143614842Y-113392583D01*
X143614839Y-113392578D01*
X143614836Y-113392568D01*
X143585555Y-113339475D01*
X143556932Y-113285924D01*
X143554163Y-113282551D01*
X143552061Y-113278738D01*
X143552056Y-113278732D01*
X143552052Y-113278725D01*
X143512978Y-113232366D01*
X143474455Y-113185426D01*
X143471083Y-113182659D01*
X143468276Y-113179328D01*
X143468271Y-113179324D01*
X143468265Y-113179317D01*
X143420901Y-113141475D01*
X143373957Y-113102949D01*
X143370109Y-113100892D01*
X143366707Y-113098174D01*
X143366699Y-113098170D01*
X143366694Y-113098166D01*
X143325060Y-113076609D01*
X143312849Y-113070286D01*
X143259300Y-113041664D01*
X143255128Y-113040398D01*
X143251257Y-113038394D01*
X143251247Y-113038391D01*
X143251243Y-113038389D01*
X143199272Y-113023365D01*
X143192995Y-113021550D01*
X143134890Y-113003924D01*
X143130547Y-113003496D01*
X143126364Y-113002287D01*
X143126357Y-113002286D01*
X143126349Y-113002284D01*
X143065916Y-112997131D01*
X143037926Y-112994374D01*
X143033593Y-112994374D01*
X142996827Y-112991238D01*
X142996820Y-112991239D01*
X142996811Y-112991238D01*
X142936521Y-112997975D01*
X142876124Y-113003924D01*
X142871949Y-113005191D01*
X142867622Y-113005674D01*
X142836574Y-113015538D01*
X129205148Y-115913323D01*
X129172785Y-115916939D01*
X129141738Y-115926803D01*
X129141727Y-115926805D01*
X129101657Y-115939536D01*
X129048879Y-115956304D01*
X129048873Y-115956308D01*
X129048868Y-115956309D01*
X128991146Y-115988142D01*
X128935034Y-116019087D01*
X128935030Y-116019090D01*
X128935025Y-116019093D01*
X128892407Y-116055014D01*
X128835625Y-116102872D01*
X128835622Y-116102876D01*
X128835617Y-116102880D01*
X128799435Y-116148167D01*
X128754472Y-116204442D01*
X128754470Y-116204446D01*
X128754466Y-116204451D01*
X128732137Y-116247577D01*
X128694693Y-116319892D01*
X128694692Y-116319897D01*
X128694689Y-116319902D01*
X128682686Y-116361423D01*
X128658586Y-116444785D01*
X128658586Y-116444791D01*
X128658584Y-116444796D01*
X128655128Y-116485329D01*
X128647538Y-116574322D01*
X105344018Y-116574322D01*
X105342444Y-116560238D01*
X105334075Y-116485329D01*
X105324208Y-116454270D01*
X102427498Y-102827442D01*
X102424730Y-102799333D01*
X102423463Y-102795157D01*
X102422980Y-102790832D01*
X102413116Y-102759782D01*
X102413114Y-102759774D01*
X102404613Y-102733018D01*
X102386990Y-102674923D01*
X102384936Y-102671081D01*
X102383616Y-102666925D01*
X102383612Y-102666919D01*
X102383611Y-102666914D01*
X102354320Y-102613801D01*
X102325705Y-102560266D01*
X102322937Y-102556893D01*
X102320834Y-102553080D01*
X102320831Y-102553076D01*
X102320828Y-102553071D01*
X102281747Y-102506703D01*
X102243228Y-102459768D01*
X102239857Y-102457001D01*
X102237050Y-102453671D01*
X102237046Y-102453668D01*
X102237042Y-102453663D01*
X102189668Y-102415812D01*
X102142730Y-102377291D01*
X102138881Y-102375234D01*
X102135481Y-102372517D01*
X102135477Y-102372515D01*
X102135471Y-102372510D01*
X102081612Y-102344623D01*
X102028073Y-102316006D01*
X102023899Y-102314740D01*
X102020031Y-102312737D01*
X102020028Y-102312736D01*
X102020020Y-102312732D01*
X101961765Y-102295891D01*
X101903663Y-102278266D01*
X101899321Y-102277838D01*
X101895138Y-102276629D01*
X101895131Y-102276628D01*
X101895126Y-102276627D01*
X101834701Y-102271474D01*
X101806699Y-102268716D01*
X101802366Y-102268716D01*
X101765600Y-102265580D01*
X101765595Y-102265581D01*
X101765589Y-102265580D01*
X101705307Y-102272316D01*
X101644897Y-102278266D01*
X101640718Y-102279534D01*
X101636384Y-102280018D01*
X101605340Y-102289881D01*
X87974272Y-105187239D01*
X87941901Y-105190856D01*
X87910857Y-105200718D01*
X87910854Y-105200719D01*
X87817994Y-105230220D01*
X87704149Y-105293002D01*
X87604740Y-105376786D01*
X87523586Y-105478355D01*
X87463806Y-105593805D01*
X87427698Y-105718698D01*
X87416649Y-105848235D01*
X86308522Y-105848235D01*
X85466617Y-101887526D01*
X106050004Y-101887526D01*
X106064439Y-102016731D01*
X106074304Y-102047783D01*
X108971663Y-115678863D01*
X108975279Y-115711225D01*
X108985139Y-115742263D01*
X108985142Y-115742275D01*
X109014643Y-115835135D01*
X109077425Y-115948979D01*
X109161209Y-116048389D01*
X109262778Y-116129543D01*
X109378228Y-116189323D01*
X109503121Y-116225431D01*
X109602114Y-116233875D01*
X109632656Y-116236480D01*
X109632659Y-116236480D01*
X109669890Y-116232320D01*
X109729487Y-116225662D01*
X109729492Y-116225661D01*
X109761864Y-116222044D01*
X109792906Y-116212182D01*
X123424338Y-113314820D01*
X123456698Y-113311204D01*
X123487729Y-113301346D01*
X123487742Y-113301343D01*
X123580602Y-113271842D01*
X123694447Y-113209061D01*
X123793857Y-113125277D01*
X123875012Y-113023708D01*
X123934792Y-112908259D01*
X123970900Y-112783366D01*
X123970900Y-112783364D01*
X123970901Y-112783361D01*
X123981950Y-112653824D01*
X123971131Y-112556993D01*
X123967515Y-112524623D01*
X123957651Y-112493573D01*
X121061193Y-98866741D01*
X121058424Y-98838627D01*
X121057158Y-98834454D01*
X121056675Y-98830129D01*
X121046184Y-98797104D01*
X121038306Y-98772306D01*
X121020684Y-98714217D01*
X121018630Y-98710375D01*
X121017310Y-98706219D01*
X120988017Y-98653100D01*
X120959399Y-98599560D01*
X120956632Y-98596188D01*
X120954530Y-98592377D01*
X120954529Y-98592376D01*
X120954528Y-98592374D01*
X120915451Y-98546009D01*
X120876922Y-98499062D01*
X120873555Y-98496299D01*
X120870747Y-98492967D01*
X120823340Y-98455088D01*
X120776424Y-98416585D01*
X120772580Y-98414531D01*
X120769178Y-98411812D01*
X120715312Y-98383920D01*
X120661767Y-98355300D01*
X120657595Y-98354035D01*
X120653728Y-98352032D01*
X120595488Y-98335194D01*
X120537357Y-98317560D01*
X120533014Y-98317132D01*
X120528835Y-98315924D01*
X120528836Y-98315924D01*
X120528832Y-98315923D01*
X120468398Y-98310768D01*
X120440393Y-98308010D01*
X120436061Y-98308010D01*
X120423456Y-98306935D01*
X120399297Y-98304874D01*
X120399295Y-98304874D01*
X120371227Y-98308010D01*
X120339013Y-98311609D01*
X120278591Y-98317560D01*
X120274415Y-98318827D01*
X120270090Y-98319310D01*
X120239048Y-98329172D01*
X106607626Y-101226533D01*
X106575256Y-101230150D01*
X106544215Y-101240011D01*
X106544212Y-101240012D01*
X106453464Y-101268842D01*
X106451349Y-101269514D01*
X106376851Y-101310597D01*
X106337507Y-101332294D01*
X106337506Y-101332295D01*
X106337504Y-101332296D01*
X106285411Y-101376201D01*
X106255226Y-101401642D01*
X106238095Y-101416080D01*
X106156941Y-101517649D01*
X106123040Y-101583121D01*
X106097162Y-101633096D01*
X106097161Y-101633098D01*
X106097161Y-101633099D01*
X106061053Y-101757992D01*
X106055712Y-101820607D01*
X106050004Y-101887526D01*
X85466617Y-101887526D01*
X85341181Y-101297418D01*
X85311679Y-101204558D01*
X85248897Y-101090714D01*
X85165112Y-100991305D01*
X85063542Y-100910152D01*
X84948092Y-100850373D01*
X84823198Y-100814266D01*
X84693661Y-100803218D01*
X84665595Y-100806354D01*
X81707241Y-100806354D01*
X81707875Y-100547469D01*
X81707875Y-100547468D01*
X81710998Y-99271400D01*
X81710998Y-99271399D01*
X81716738Y-96923881D01*
X81723523Y-94148621D01*
X81723523Y-94148620D01*
X81730643Y-91235899D01*
X81735747Y-89147349D01*
X81738893Y-87860032D01*
X81740437Y-87228088D01*
X83458821Y-87228088D01*
X83473257Y-87357293D01*
X83483121Y-87388341D01*
X86380482Y-101019430D01*
X86384098Y-101051792D01*
X86393956Y-101082822D01*
X86393959Y-101082835D01*
X86423460Y-101175695D01*
X86486242Y-101289539D01*
X86486244Y-101289542D01*
X86486245Y-101289543D01*
X86498748Y-101304378D01*
X86570026Y-101388949D01*
X86671595Y-101470103D01*
X86787045Y-101529883D01*
X86787048Y-101529884D01*
X86787050Y-101529885D01*
X86821673Y-101539894D01*
X86911938Y-101565991D01*
X87041476Y-101577040D01*
X87041480Y-101577040D01*
X87138311Y-101566221D01*
X87138314Y-101566220D01*
X87170681Y-101562604D01*
X87201725Y-101552742D01*
X100832817Y-98655295D01*
X100865177Y-98651679D01*
X100896212Y-98641819D01*
X100896227Y-98641816D01*
X100989087Y-98612314D01*
X101102931Y-98549532D01*
X101202340Y-98465747D01*
X101283494Y-98364177D01*
X101343273Y-98248727D01*
X101379380Y-98123834D01*
X101390428Y-97994296D01*
X101382890Y-97926827D01*
X124684291Y-97926827D01*
X124698728Y-98056032D01*
X124708591Y-98087078D01*
X127605952Y-111718164D01*
X127609568Y-111750528D01*
X127619427Y-111781560D01*
X127619429Y-111781570D01*
X127648930Y-111874430D01*
X127711712Y-111988274D01*
X127795496Y-112087684D01*
X127897065Y-112168838D01*
X128012515Y-112228618D01*
X128012520Y-112228619D01*
X128012521Y-112228620D01*
X128045659Y-112238200D01*
X128137408Y-112264726D01*
X128137412Y-112264726D01*
X128137414Y-112264727D01*
X128206555Y-112270624D01*
X128266946Y-112275775D01*
X128266951Y-112275775D01*
X128363782Y-112264956D01*
X128363786Y-112264955D01*
X128396151Y-112261339D01*
X128427194Y-112251477D01*
X142057783Y-109354113D01*
X142090138Y-109350498D01*
X142121172Y-109340639D01*
X142121190Y-109340635D01*
X142214049Y-109311133D01*
X142310400Y-109257997D01*
X142327890Y-109248352D01*
X142327891Y-109248351D01*
X142327893Y-109248350D01*
X142380427Y-109204073D01*
X142427299Y-109164568D01*
X142427302Y-109164565D01*
X142508456Y-109062996D01*
X142568235Y-108947545D01*
X142583464Y-108894868D01*
X142604341Y-108822656D01*
X142615390Y-108693118D01*
X142604571Y-108596287D01*
X142604570Y-108596283D01*
X142600953Y-108563909D01*
X142591091Y-108532867D01*
X139694633Y-94906034D01*
X139691864Y-94877920D01*
X139690597Y-94873742D01*
X139690113Y-94869414D01*
X139671761Y-94811650D01*
X139654124Y-94753510D01*
X139652070Y-94749668D01*
X139650750Y-94745512D01*
X139621457Y-94692393D01*
X139592839Y-94638853D01*
X139590071Y-94635480D01*
X139587968Y-94631667D01*
X139569499Y-94609753D01*
X139551857Y-94588822D01*
X139548891Y-94585302D01*
X139510362Y-94538355D01*
X139506991Y-94535588D01*
X139504184Y-94532258D01*
X139504180Y-94532254D01*
X139458788Y-94495986D01*
X139456820Y-94494414D01*
X139409864Y-94455878D01*
X139406015Y-94453821D01*
X139402615Y-94451104D01*
X139402611Y-94451102D01*
X139402610Y-94451101D01*
X139348788Y-94423233D01*
X139295207Y-94394593D01*
X139291033Y-94393327D01*
X139287165Y-94391324D01*
X139287162Y-94391323D01*
X139287160Y-94391322D01*
X139228913Y-94374483D01*
X139170797Y-94356853D01*
X139166455Y-94356425D01*
X139162272Y-94355216D01*
X139162270Y-94355216D01*
X139162267Y-94355215D01*
X139101833Y-94350061D01*
X139073833Y-94347303D01*
X139069501Y-94347303D01*
X139032735Y-94344167D01*
X139032729Y-94344167D01*
X138975198Y-94350596D01*
X138972472Y-94350900D01*
X138912031Y-94356853D01*
X138907855Y-94358120D01*
X138903530Y-94358603D01*
X138872479Y-94368467D01*
X125241908Y-97265827D01*
X125209543Y-97269443D01*
X125178500Y-97279305D01*
X125178491Y-97279307D01*
X125127039Y-97295654D01*
X125085636Y-97308807D01*
X124971791Y-97371589D01*
X124872382Y-97455373D01*
X124872378Y-97455377D01*
X124861871Y-97468528D01*
X124791228Y-97556942D01*
X124791226Y-97556946D01*
X124791225Y-97556947D01*
X124784012Y-97570877D01*
X124731448Y-97672392D01*
X124731447Y-97672395D01*
X124731446Y-97672397D01*
X124711559Y-97741185D01*
X124709239Y-97749212D01*
X124695339Y-97797290D01*
X124684291Y-97926827D01*
X101382890Y-97926827D01*
X101375992Y-97865091D01*
X101366128Y-97834043D01*
X98469671Y-84207298D01*
X98466902Y-84179186D01*
X98465635Y-84175010D01*
X98465152Y-84170685D01*
X98455290Y-84139643D01*
X98455289Y-84139637D01*
X98446785Y-84112870D01*
X98429162Y-84054776D01*
X98427108Y-84050934D01*
X98425788Y-84046778D01*
X98396495Y-83993659D01*
X98367877Y-83940119D01*
X98365109Y-83936746D01*
X98363006Y-83932933D01*
X98323929Y-83886568D01*
X98285400Y-83839621D01*
X98282029Y-83836854D01*
X98279222Y-83833524D01*
X98268471Y-83824934D01*
X98231849Y-83795672D01*
X98184902Y-83757144D01*
X98181054Y-83755087D01*
X98177652Y-83752369D01*
X98123794Y-83724481D01*
X98070245Y-83695859D01*
X98066073Y-83694593D01*
X98062202Y-83692589D01*
X98003940Y-83675745D01*
X97945835Y-83658119D01*
X97941493Y-83657691D01*
X97937310Y-83656482D01*
X97876879Y-83651328D01*
X97848871Y-83648569D01*
X97844538Y-83648569D01*
X97807772Y-83645433D01*
X97747501Y-83652167D01*
X97687069Y-83658119D01*
X97682894Y-83659386D01*
X97678567Y-83659869D01*
X97647522Y-83669732D01*
X84016444Y-86567092D01*
X83984073Y-86570709D01*
X83953029Y-86580571D01*
X83953026Y-86580572D01*
X83860166Y-86610073D01*
X83746321Y-86672855D01*
X83646912Y-86756639D01*
X83565758Y-86858208D01*
X83505978Y-86973658D01*
X83469870Y-87098551D01*
X83458821Y-87228088D01*
X81740437Y-87228088D01*
X81743050Y-86159199D01*
X81743050Y-86159198D01*
X81746085Y-84916727D01*
X81746854Y-84602080D01*
X82137221Y-84518846D01*
X82137280Y-84518834D01*
X82780284Y-84381731D01*
X83278093Y-84275587D01*
X83278122Y-84275581D01*
X84117584Y-84096588D01*
X85400331Y-83823075D01*
X85400341Y-83823072D01*
X86819222Y-83520530D01*
X88006442Y-83267384D01*
X102092430Y-83267384D01*
X102092430Y-83267393D01*
X102096168Y-83300842D01*
X102106866Y-83396589D01*
X102116733Y-83427646D01*
X105014346Y-97058732D01*
X105017962Y-97091090D01*
X105027821Y-97122122D01*
X105027825Y-97122140D01*
X105057328Y-97214999D01*
X105120112Y-97328842D01*
X105203897Y-97428251D01*
X105305468Y-97509403D01*
X105420919Y-97569181D01*
X105545813Y-97605286D01*
X105644811Y-97613729D01*
X105675348Y-97616333D01*
X105675351Y-97616333D01*
X105804556Y-97601895D01*
X105835602Y-97592031D01*
X119466167Y-94694588D01*
X119498532Y-94690972D01*
X119529576Y-94681109D01*
X119529587Y-94681107D01*
X119622446Y-94651605D01*
X119736290Y-94588822D01*
X119835699Y-94505037D01*
X119898942Y-94425881D01*
X119916847Y-94403472D01*
X119916848Y-94403469D01*
X119916851Y-94403466D01*
X119976630Y-94288016D01*
X119998835Y-94211204D01*
X120012734Y-94163129D01*
X120013972Y-94148621D01*
X120021279Y-94062946D01*
X120023783Y-94033591D01*
X120023783Y-94033584D01*
X120016245Y-93966120D01*
X143317731Y-93966120D01*
X143332168Y-94095325D01*
X143342031Y-94126371D01*
X146239392Y-107757456D01*
X146243008Y-107789820D01*
X146252867Y-107820852D01*
X146252869Y-107820862D01*
X146282370Y-107913722D01*
X146345152Y-108027566D01*
X146428936Y-108126976D01*
X146530505Y-108208130D01*
X146645955Y-108267910D01*
X146645960Y-108267911D01*
X146645961Y-108267912D01*
X146679099Y-108277492D01*
X146770848Y-108304018D01*
X146770852Y-108304018D01*
X146770854Y-108304019D01*
X146839995Y-108309916D01*
X146900386Y-108315067D01*
X146900391Y-108315067D01*
X146997222Y-108304248D01*
X146997226Y-108304247D01*
X147029591Y-108300631D01*
X147060634Y-108290769D01*
X160691223Y-105393406D01*
X160723578Y-105389791D01*
X160754612Y-105379932D01*
X160754630Y-105379928D01*
X160847489Y-105350426D01*
X160951616Y-105293002D01*
X160961330Y-105287645D01*
X160961331Y-105287644D01*
X160961333Y-105287643D01*
X161060743Y-105203858D01*
X161141896Y-105102289D01*
X161201675Y-104986838D01*
X161216904Y-104934161D01*
X161237781Y-104861949D01*
X161248830Y-104732411D01*
X161238011Y-104635580D01*
X161238011Y-104635578D01*
X161234393Y-104603202D01*
X161224531Y-104572160D01*
X158328073Y-90945327D01*
X158325304Y-90917213D01*
X158324037Y-90913035D01*
X158323553Y-90908707D01*
X158313691Y-90877665D01*
X158305186Y-90850892D01*
X158287564Y-90792803D01*
X158285510Y-90788961D01*
X158284190Y-90784805D01*
X158254897Y-90731686D01*
X158226279Y-90678146D01*
X158223511Y-90674773D01*
X158221408Y-90670960D01*
X158182331Y-90624595D01*
X158143802Y-90577648D01*
X158140431Y-90574881D01*
X158137624Y-90571551D01*
X158137620Y-90571547D01*
X158092228Y-90535279D01*
X158090260Y-90533707D01*
X158043304Y-90495171D01*
X158039455Y-90493114D01*
X158036055Y-90490397D01*
X158036051Y-90490395D01*
X158036050Y-90490394D01*
X157982228Y-90462526D01*
X157928647Y-90433886D01*
X157924473Y-90432620D01*
X157920605Y-90430617D01*
X157920602Y-90430616D01*
X157920600Y-90430615D01*
X157862353Y-90413776D01*
X157804237Y-90396146D01*
X157799895Y-90395718D01*
X157795712Y-90394509D01*
X157795710Y-90394509D01*
X157795707Y-90394508D01*
X157735273Y-90389354D01*
X157707273Y-90386596D01*
X157702941Y-90386596D01*
X157666175Y-90383460D01*
X157666169Y-90383460D01*
X157608638Y-90389889D01*
X157605912Y-90390193D01*
X157545471Y-90396146D01*
X157541295Y-90397413D01*
X157536970Y-90397896D01*
X157505919Y-90407760D01*
X143875348Y-93305120D01*
X143842983Y-93308736D01*
X143811940Y-93318598D01*
X143811931Y-93318600D01*
X143760479Y-93334947D01*
X143719076Y-93348100D01*
X143719073Y-93348102D01*
X143719072Y-93348102D01*
X143695634Y-93361028D01*
X143605231Y-93410882D01*
X143505822Y-93494666D01*
X143505818Y-93494670D01*
X143474023Y-93534464D01*
X143424668Y-93596235D01*
X143424666Y-93596239D01*
X143424665Y-93596240D01*
X143401390Y-93641190D01*
X143364888Y-93711685D01*
X143364887Y-93711688D01*
X143364886Y-93711690D01*
X143347219Y-93772799D01*
X143342679Y-93788505D01*
X143328779Y-93836583D01*
X143317731Y-93966120D01*
X120016245Y-93966120D01*
X120009346Y-93904379D01*
X119999482Y-93873333D01*
X117103026Y-80246591D01*
X117100257Y-80218479D01*
X117098991Y-80214305D01*
X117098507Y-80209975D01*
X117080136Y-80152151D01*
X117062517Y-80094069D01*
X117060462Y-80090225D01*
X117059142Y-80086069D01*
X117029846Y-80032946D01*
X117001232Y-79979412D01*
X116998464Y-79976039D01*
X116996360Y-79972224D01*
X116957258Y-79925830D01*
X116918755Y-79878914D01*
X116915386Y-79876149D01*
X116912576Y-79872815D01*
X116865175Y-79834942D01*
X116818257Y-79796437D01*
X116814410Y-79794381D01*
X116811006Y-79791661D01*
X116757148Y-79763774D01*
X116703600Y-79735152D01*
X116699428Y-79733886D01*
X116695557Y-79731882D01*
X116637295Y-79715038D01*
X116579190Y-79697412D01*
X116574847Y-79696984D01*
X116570664Y-79695775D01*
X116510237Y-79690621D01*
X116482226Y-79687862D01*
X116477893Y-79687862D01*
X116441127Y-79684726D01*
X116441125Y-79684726D01*
X116380845Y-79691461D01*
X116320424Y-79697412D01*
X116316249Y-79698679D01*
X116311922Y-79699162D01*
X116280878Y-79709025D01*
X102650052Y-82606385D01*
X102617670Y-82610004D01*
X102560421Y-82628193D01*
X102493773Y-82649367D01*
X102493768Y-82649370D01*
X102493764Y-82649371D01*
X102441620Y-82678128D01*
X102379928Y-82712149D01*
X102379924Y-82712152D01*
X102379921Y-82712154D01*
X102344610Y-82741916D01*
X102280519Y-82795934D01*
X102280517Y-82795937D01*
X102280513Y-82795940D01*
X102244721Y-82840737D01*
X102199365Y-82897503D01*
X102199362Y-82897508D01*
X102199360Y-82897511D01*
X102165581Y-82962750D01*
X102139586Y-83012953D01*
X102139585Y-83012956D01*
X102139582Y-83012962D01*
X102114343Y-83100269D01*
X102103479Y-83137847D01*
X102103479Y-83137850D01*
X102103477Y-83137856D01*
X102098868Y-83191904D01*
X102092430Y-83267384D01*
X88006442Y-83267384D01*
X89102932Y-83033584D01*
X89102961Y-83033578D01*
X92227344Y-82367376D01*
X95100900Y-81754655D01*
X98309455Y-81070503D01*
X98309457Y-81070502D01*
X98772798Y-80971706D01*
X98804175Y-80968277D01*
X98928176Y-80929212D01*
X99042173Y-80866706D01*
X99141785Y-80783163D01*
X99223184Y-80681790D01*
X99283243Y-80566485D01*
X99319653Y-80441679D01*
X99331015Y-80312169D01*
X99320431Y-80215312D01*
X99129591Y-79306672D01*
X120726124Y-79306672D01*
X120740559Y-79435877D01*
X120750424Y-79466929D01*
X123647784Y-93098012D01*
X123651400Y-93130375D01*
X123661259Y-93161408D01*
X123661262Y-93161421D01*
X123690763Y-93254281D01*
X123753545Y-93368125D01*
X123837329Y-93467535D01*
X123938898Y-93548689D01*
X123938900Y-93548690D01*
X124054350Y-93608470D01*
X124107027Y-93623699D01*
X124179241Y-93644577D01*
X124308779Y-93655626D01*
X124308780Y-93655626D01*
X124405611Y-93644807D01*
X124437984Y-93641190D01*
X124469031Y-93631327D01*
X138100459Y-90733882D01*
X138132819Y-90730266D01*
X138163850Y-90720407D01*
X138163866Y-90720404D01*
X138256725Y-90690902D01*
X138370570Y-90628121D01*
X138469979Y-90544337D01*
X138530718Y-90468318D01*
X138551134Y-90442766D01*
X138610914Y-90327316D01*
X138647021Y-90202423D01*
X138658070Y-90072885D01*
X138647251Y-89976054D01*
X138643634Y-89943681D01*
X138633771Y-89912637D01*
X135737313Y-76285885D01*
X135734544Y-76257773D01*
X135733278Y-76253600D01*
X135732795Y-76249275D01*
X135722932Y-76218230D01*
X135722931Y-76218224D01*
X135714427Y-76191457D01*
X135696804Y-76133363D01*
X135694750Y-76129521D01*
X135693431Y-76125368D01*
X135664143Y-76072257D01*
X135635519Y-76018706D01*
X135632752Y-76015334D01*
X135630650Y-76011523D01*
X135630649Y-76011522D01*
X135630648Y-76011520D01*
X135606959Y-75983413D01*
X135591558Y-75965140D01*
X135553042Y-75918208D01*
X135549675Y-75915445D01*
X135546867Y-75912113D01*
X135499460Y-75874234D01*
X135452544Y-75835731D01*
X135448700Y-75833677D01*
X135445298Y-75830958D01*
X135391432Y-75803066D01*
X135337887Y-75774446D01*
X135333715Y-75773181D01*
X135329848Y-75771178D01*
X135329844Y-75771176D01*
X135271582Y-75754332D01*
X135213477Y-75736706D01*
X135209134Y-75736278D01*
X135204955Y-75735070D01*
X135204954Y-75735070D01*
X135204951Y-75735069D01*
X135144524Y-75729915D01*
X135116513Y-75727156D01*
X135112180Y-75727156D01*
X135109917Y-75726963D01*
X135075417Y-75724020D01*
X135075414Y-75724020D01*
X135039363Y-75728048D01*
X135015133Y-75730755D01*
X134954711Y-75736706D01*
X134950536Y-75737973D01*
X134946209Y-75738456D01*
X134915168Y-75748318D01*
X121283746Y-78645679D01*
X121251376Y-78649296D01*
X121220335Y-78659157D01*
X121220332Y-78659158D01*
X121148379Y-78682017D01*
X121127469Y-78688660D01*
X121052971Y-78729743D01*
X121013627Y-78751440D01*
X121013626Y-78751441D01*
X121013624Y-78751442D01*
X120914215Y-78835226D01*
X120833061Y-78936795D01*
X120823769Y-78954741D01*
X120773282Y-79052242D01*
X120773281Y-79052244D01*
X120773281Y-79052245D01*
X120737173Y-79177138D01*
X120728952Y-79273525D01*
X120726124Y-79306672D01*
X99129591Y-79306672D01*
X96045009Y-64620225D01*
X98128930Y-64620225D01*
X98143366Y-64749430D01*
X98153230Y-64780478D01*
X101050590Y-78411564D01*
X101054206Y-78443925D01*
X101064065Y-78474959D01*
X101064068Y-78474972D01*
X101093569Y-78567832D01*
X101156351Y-78681676D01*
X101240135Y-78781086D01*
X101341704Y-78862240D01*
X101457154Y-78922020D01*
X101582047Y-78958128D01*
X101711585Y-78969177D01*
X101840790Y-78954741D01*
X101871839Y-78944877D01*
X111990779Y-76794042D01*
X116895000Y-76794042D01*
X116895000Y-77125958D01*
X116959754Y-77451496D01*
X117086772Y-77758147D01*
X117271175Y-78034125D01*
X117505875Y-78268825D01*
X117781853Y-78453228D01*
X118088504Y-78580246D01*
X118414042Y-78645000D01*
X118745958Y-78645000D01*
X119071496Y-78580246D01*
X119378147Y-78453228D01*
X119654125Y-78268825D01*
X119888825Y-78034125D01*
X120073228Y-77758147D01*
X120200246Y-77451496D01*
X120265000Y-77125958D01*
X120265000Y-76794042D01*
X120200246Y-76468504D01*
X120073228Y-76161853D01*
X119888825Y-75885875D01*
X119654125Y-75651175D01*
X119378147Y-75466772D01*
X119086499Y-75345968D01*
X139359564Y-75345968D01*
X139362821Y-75375115D01*
X139373999Y-75475170D01*
X139383864Y-75506222D01*
X142281223Y-89137303D01*
X142284839Y-89169665D01*
X142294699Y-89200703D01*
X142294702Y-89200715D01*
X142324203Y-89293575D01*
X142386985Y-89407419D01*
X142470769Y-89506829D01*
X142572338Y-89587983D01*
X142687788Y-89647763D01*
X142812681Y-89683871D01*
X142907950Y-89691997D01*
X142942216Y-89694920D01*
X142942219Y-89694920D01*
X142979450Y-89690760D01*
X143039047Y-89684102D01*
X143039052Y-89684101D01*
X143071424Y-89680484D01*
X143102466Y-89670622D01*
X156733898Y-86773260D01*
X156766258Y-86769644D01*
X156797289Y-86759786D01*
X156797302Y-86759783D01*
X156890162Y-86730282D01*
X157004007Y-86667501D01*
X157103417Y-86583717D01*
X157184572Y-86482148D01*
X157244352Y-86366699D01*
X157280460Y-86241806D01*
X157280460Y-86241805D01*
X157280461Y-86241802D01*
X157291510Y-86112264D01*
X157286002Y-86062965D01*
X157277075Y-85983063D01*
X157267211Y-85952013D01*
X154370753Y-72325180D01*
X154367984Y-72297066D01*
X154366718Y-72292893D01*
X154366235Y-72288568D01*
X154347869Y-72230758D01*
X154330244Y-72172656D01*
X154328190Y-72168814D01*
X154326871Y-72164661D01*
X154326870Y-72164658D01*
X154297577Y-72111539D01*
X154268959Y-72057999D01*
X154266192Y-72054627D01*
X154264090Y-72050816D01*
X154264089Y-72050815D01*
X154264088Y-72050813D01*
X154225011Y-72004448D01*
X154186482Y-71957501D01*
X154183115Y-71954738D01*
X154180307Y-71951406D01*
X154132900Y-71913527D01*
X154085984Y-71875024D01*
X154082140Y-71872970D01*
X154078738Y-71870251D01*
X154024872Y-71842359D01*
X153971327Y-71813739D01*
X153967155Y-71812474D01*
X153963288Y-71810471D01*
X153963285Y-71810470D01*
X153905039Y-71793630D01*
X153846917Y-71775999D01*
X153842575Y-71775571D01*
X153838392Y-71774362D01*
X153777958Y-71769207D01*
X153749953Y-71766449D01*
X153745621Y-71766449D01*
X153733016Y-71765374D01*
X153708857Y-71763313D01*
X153708855Y-71763313D01*
X153680787Y-71766449D01*
X153648573Y-71770048D01*
X153588151Y-71775999D01*
X153583975Y-71777266D01*
X153579650Y-71777749D01*
X153548608Y-71787611D01*
X139917186Y-74684972D01*
X139884816Y-74688589D01*
X139853775Y-74698450D01*
X139853772Y-74698451D01*
X139782877Y-74720974D01*
X139760909Y-74727953D01*
X139686411Y-74769036D01*
X139647067Y-74790733D01*
X139647066Y-74790734D01*
X139647064Y-74790735D01*
X139547655Y-74874519D01*
X139466501Y-74976088D01*
X139455336Y-74997651D01*
X139406722Y-75091535D01*
X139406721Y-75091537D01*
X139406721Y-75091538D01*
X139370613Y-75216431D01*
X139363023Y-75305413D01*
X139359594Y-75345620D01*
X139359564Y-75345968D01*
X119086499Y-75345968D01*
X119071496Y-75339754D01*
X118745958Y-75275000D01*
X118414042Y-75275000D01*
X118088504Y-75339754D01*
X117781853Y-75466772D01*
X117505875Y-75651175D01*
X117271175Y-75885875D01*
X117086772Y-76161853D01*
X116959754Y-76468504D01*
X116895000Y-76794042D01*
X111990779Y-76794042D01*
X115502923Y-76047517D01*
X115535284Y-76043901D01*
X115566318Y-76034042D01*
X115566331Y-76034039D01*
X115659191Y-76004538D01*
X115773035Y-75941756D01*
X115872445Y-75857972D01*
X115953599Y-75756403D01*
X116013379Y-75640953D01*
X116049487Y-75516060D01*
X116060536Y-75386522D01*
X116060334Y-75384709D01*
X116049717Y-75289690D01*
X116046100Y-75257317D01*
X116036237Y-75226270D01*
X113139779Y-61599437D01*
X113137010Y-61571323D01*
X113135743Y-61567147D01*
X113135260Y-61562822D01*
X113116896Y-61505018D01*
X113099270Y-61446913D01*
X113097216Y-61443071D01*
X113095896Y-61438915D01*
X113066603Y-61385796D01*
X113037985Y-61332256D01*
X113035217Y-61328883D01*
X113033114Y-61325070D01*
X112994037Y-61278705D01*
X112955508Y-61231758D01*
X112952137Y-61228991D01*
X112949330Y-61225661D01*
X112901966Y-61187817D01*
X112855010Y-61149281D01*
X112851161Y-61147224D01*
X112847761Y-61144507D01*
X112793931Y-61116634D01*
X112740353Y-61087996D01*
X112736179Y-61086730D01*
X112732311Y-61084727D01*
X112674065Y-61067887D01*
X112615943Y-61050256D01*
X112611601Y-61049828D01*
X112607418Y-61048619D01*
X112546984Y-61043464D01*
X112518979Y-61040706D01*
X112514647Y-61040706D01*
X112477881Y-61037570D01*
X112477880Y-61037570D01*
X112449813Y-61040706D01*
X112417618Y-61044303D01*
X112357177Y-61050256D01*
X112353001Y-61051523D01*
X112348676Y-61052006D01*
X112317629Y-61061869D01*
X98686553Y-63959229D01*
X98654182Y-63962846D01*
X98623138Y-63972708D01*
X98623135Y-63972709D01*
X98530275Y-64002210D01*
X98416430Y-64064992D01*
X98317021Y-64148776D01*
X98235867Y-64250345D01*
X98176087Y-64365795D01*
X98139979Y-64490688D01*
X98128930Y-64620225D01*
X96045009Y-64620225D01*
X95019654Y-59738259D01*
X95458247Y-59014042D01*
X96325000Y-59014042D01*
X96325000Y-59345958D01*
X96389754Y-59671496D01*
X96516772Y-59978147D01*
X96701175Y-60254125D01*
X96935875Y-60488825D01*
X97211853Y-60673228D01*
X97518504Y-60800246D01*
X97844042Y-60865000D01*
X98175958Y-60865000D01*
X98501496Y-60800246D01*
X98808147Y-60673228D01*
X98828656Y-60659524D01*
X116762878Y-60659524D01*
X116771632Y-60737865D01*
X116773146Y-60751414D01*
X116777315Y-60788729D01*
X116787178Y-60819775D01*
X119684539Y-74450859D01*
X119688155Y-74483223D01*
X119698014Y-74514255D01*
X119698016Y-74514265D01*
X119727517Y-74607125D01*
X119790299Y-74720969D01*
X119874083Y-74820379D01*
X119975652Y-74901533D01*
X120091102Y-74961313D01*
X120091107Y-74961314D01*
X120091108Y-74961315D01*
X120124246Y-74970895D01*
X120215995Y-74997421D01*
X120215999Y-74997421D01*
X120216001Y-74997422D01*
X120285142Y-75003319D01*
X120345533Y-75008470D01*
X120345538Y-75008470D01*
X120442369Y-74997651D01*
X120442373Y-74997650D01*
X120474738Y-74994034D01*
X120505781Y-74984172D01*
X134136369Y-72086809D01*
X134168724Y-72083194D01*
X134199758Y-72073335D01*
X134199776Y-72073331D01*
X134292635Y-72043829D01*
X134388986Y-71990693D01*
X134406476Y-71981048D01*
X134406477Y-71981047D01*
X134406479Y-71981046D01*
X134459013Y-71936769D01*
X134505885Y-71897264D01*
X134505888Y-71897261D01*
X134587042Y-71795692D01*
X134646821Y-71680241D01*
X134669028Y-71603425D01*
X134682927Y-71555351D01*
X134693976Y-71425814D01*
X134683157Y-71328983D01*
X134683157Y-71328981D01*
X134679539Y-71296605D01*
X134669677Y-71265563D01*
X131773219Y-57638731D01*
X131770450Y-57610617D01*
X131769183Y-57606439D01*
X131768699Y-57602111D01*
X131758837Y-57571069D01*
X131750332Y-57544296D01*
X131732710Y-57486207D01*
X131730656Y-57482365D01*
X131729336Y-57478209D01*
X131700043Y-57425090D01*
X131671425Y-57371550D01*
X131668657Y-57368177D01*
X131666554Y-57364364D01*
X131648085Y-57342450D01*
X131635443Y-57327451D01*
X131627477Y-57317999D01*
X131588948Y-57271052D01*
X131585577Y-57268285D01*
X131582770Y-57264955D01*
X131582766Y-57264951D01*
X131537374Y-57228683D01*
X131535406Y-57227111D01*
X131488450Y-57188575D01*
X131484601Y-57186518D01*
X131481201Y-57183801D01*
X131481197Y-57183799D01*
X131481196Y-57183798D01*
X131433746Y-57159229D01*
X131427371Y-57155928D01*
X131373793Y-57127290D01*
X131369619Y-57126024D01*
X131365751Y-57124021D01*
X131365748Y-57124020D01*
X131365746Y-57124019D01*
X131312030Y-57108489D01*
X131307505Y-57107181D01*
X131249383Y-57089550D01*
X131245041Y-57089122D01*
X131240858Y-57087913D01*
X131240854Y-57087913D01*
X131240852Y-57087912D01*
X131182579Y-57082942D01*
X131180424Y-57082758D01*
X131152419Y-57080000D01*
X131148087Y-57080000D01*
X131111321Y-57076864D01*
X131111314Y-57076864D01*
X131051057Y-57083597D01*
X130990617Y-57089550D01*
X130986441Y-57090817D01*
X130982116Y-57091300D01*
X130951065Y-57101164D01*
X117320495Y-59998524D01*
X117288130Y-60002140D01*
X117257087Y-60012002D01*
X117257078Y-60012004D01*
X117208895Y-60027312D01*
X117164223Y-60041504D01*
X117164220Y-60041506D01*
X117164219Y-60041506D01*
X117154973Y-60046605D01*
X117050378Y-60104286D01*
X117050375Y-60104288D01*
X117050374Y-60104289D01*
X117023650Y-60126813D01*
X116950969Y-60188070D01*
X116950965Y-60188074D01*
X116916936Y-60230664D01*
X116869815Y-60289639D01*
X116869813Y-60289643D01*
X116869812Y-60289644D01*
X116845842Y-60335937D01*
X116810035Y-60405089D01*
X116810034Y-60405092D01*
X116810033Y-60405094D01*
X116791516Y-60469143D01*
X116776161Y-60522257D01*
X116773926Y-60529987D01*
X116768552Y-60592993D01*
X116762898Y-60659295D01*
X116762878Y-60659524D01*
X98828656Y-60659524D01*
X99084125Y-60488825D01*
X99318825Y-60254125D01*
X99503228Y-59978147D01*
X99630246Y-59671496D01*
X99695000Y-59345958D01*
X99695000Y-59014042D01*
X99630246Y-58688504D01*
X99503228Y-58381853D01*
X99318825Y-58105875D01*
X99084125Y-57871175D01*
X98808147Y-57686772D01*
X98501496Y-57559754D01*
X98175958Y-57495000D01*
X97844042Y-57495000D01*
X97518504Y-57559754D01*
X97211853Y-57686772D01*
X96935875Y-57871175D01*
X96701175Y-58105875D01*
X96516772Y-58381853D01*
X96389754Y-58688504D01*
X96325000Y-59014042D01*
X95458247Y-59014042D01*
X96786786Y-56820322D01*
X97431463Y-56698817D01*
X135396318Y-56698817D01*
X135410755Y-56828022D01*
X135420618Y-56859068D01*
X138317977Y-70490147D01*
X138321593Y-70522509D01*
X138331453Y-70553547D01*
X138331456Y-70553559D01*
X138360957Y-70646419D01*
X138423739Y-70760263D01*
X138507523Y-70859673D01*
X138609092Y-70940827D01*
X138724542Y-71000607D01*
X138849435Y-71036715D01*
X138948428Y-71045159D01*
X138978970Y-71047764D01*
X138978973Y-71047764D01*
X139016204Y-71043604D01*
X139075801Y-71036946D01*
X139075806Y-71036945D01*
X139108178Y-71033328D01*
X139139220Y-71023466D01*
X152770668Y-68126100D01*
X152803049Y-68122480D01*
X152845456Y-68109005D01*
X152926914Y-68083126D01*
X152926938Y-68083113D01*
X152926953Y-68083108D01*
X152970321Y-68059189D01*
X153040759Y-68020345D01*
X153040779Y-68020329D01*
X153040794Y-68020320D01*
X153084574Y-67983418D01*
X153140169Y-67936561D01*
X153140183Y-67936544D01*
X153140199Y-67936530D01*
X153178803Y-67888209D01*
X153221324Y-67834992D01*
X153221335Y-67834972D01*
X153221347Y-67834956D01*
X153248519Y-67782472D01*
X153281104Y-67719543D01*
X153281111Y-67719520D01*
X153281120Y-67719502D01*
X153298570Y-67659132D01*
X153317212Y-67594650D01*
X153317214Y-67594628D01*
X153317220Y-67594607D01*
X153322484Y-67532841D01*
X153328262Y-67465112D01*
X153328259Y-67465088D01*
X153328261Y-67465068D01*
X153321185Y-67401763D01*
X153313827Y-67335907D01*
X153303958Y-67304842D01*
X150406656Y-53678004D01*
X150403889Y-53649910D01*
X150402622Y-53645732D01*
X150402138Y-53641404D01*
X150392271Y-53610347D01*
X150392266Y-53610324D01*
X150383767Y-53583578D01*
X150366149Y-53525500D01*
X150364091Y-53521650D01*
X150362772Y-53517498D01*
X150362765Y-53517486D01*
X150362759Y-53517466D01*
X150333481Y-53464382D01*
X150304864Y-53410843D01*
X150302093Y-53407467D01*
X150299990Y-53403653D01*
X150299980Y-53403641D01*
X150299971Y-53403625D01*
X150260894Y-53357265D01*
X150222387Y-53310345D01*
X150219014Y-53307577D01*
X150216205Y-53304244D01*
X150216193Y-53304235D01*
X150216181Y-53304220D01*
X150168801Y-53266367D01*
X150121889Y-53227868D01*
X150118037Y-53225809D01*
X150114635Y-53223091D01*
X150114623Y-53223085D01*
X150114607Y-53223072D01*
X150060769Y-53195199D01*
X150007232Y-53166583D01*
X150003055Y-53165316D01*
X149999185Y-53163312D01*
X149999169Y-53163307D01*
X149999153Y-53163299D01*
X149940923Y-53146468D01*
X149882822Y-53128843D01*
X149878476Y-53128415D01*
X149874291Y-53127205D01*
X149874274Y-53127204D01*
X149874258Y-53127199D01*
X149815309Y-53122175D01*
X149813864Y-53122051D01*
X149785858Y-53119293D01*
X149781523Y-53119293D01*
X149744753Y-53116157D01*
X149744734Y-53116159D01*
X149744720Y-53116158D01*
X149684485Y-53122891D01*
X149624056Y-53128843D01*
X149619862Y-53130115D01*
X149615516Y-53130601D01*
X149584484Y-53140462D01*
X135953935Y-56037817D01*
X135921570Y-56041433D01*
X135890527Y-56051295D01*
X135890518Y-56051297D01*
X135839066Y-56067644D01*
X135797663Y-56080797D01*
X135683818Y-56143579D01*
X135584409Y-56227363D01*
X135584405Y-56227367D01*
X135548137Y-56272759D01*
X135503255Y-56328932D01*
X135443475Y-56444382D01*
X135443474Y-56444385D01*
X135443473Y-56444387D01*
X135434928Y-56473945D01*
X135415689Y-56540492D01*
X135407366Y-56569280D01*
X135396318Y-56698817D01*
X97431463Y-56698817D01*
X126638545Y-51194042D01*
X154545000Y-51194042D01*
X154545000Y-51525958D01*
X154609754Y-51851496D01*
X154736772Y-52158147D01*
X154921175Y-52434125D01*
X155155875Y-52668825D01*
X155431853Y-52853228D01*
X155738504Y-52980246D01*
X156064042Y-53045000D01*
X156395958Y-53045000D01*
X156721496Y-52980246D01*
X157028147Y-52853228D01*
X157304125Y-52668825D01*
X157538825Y-52434125D01*
X157723228Y-52158147D01*
X157850246Y-51851496D01*
X157915000Y-51525958D01*
X157915000Y-51194042D01*
X157850246Y-50868504D01*
X157723228Y-50561853D01*
X157538825Y-50285875D01*
X157304125Y-50051175D01*
X157028147Y-49866772D01*
X156721496Y-49739754D01*
X156395958Y-49675000D01*
X156064042Y-49675000D01*
X155738504Y-49739754D01*
X155431853Y-49866772D01*
X155155875Y-50051175D01*
X154921175Y-50285875D01*
X154736772Y-50561853D01*
X154609754Y-50868504D01*
X154545000Y-51194042D01*
X126638545Y-51194042D01*
X152726783Y-46277088D01*
X174438407Y-46277088D01*
X174438407Y-66024440D01*
G37*
X174438407Y-66024440D02*
X164692471Y-66024440D01*
X164633100Y-66023437D01*
X164505178Y-66046643D01*
X164384244Y-66094360D01*
X164274941Y-66164752D01*
X164181472Y-66255117D01*
X164107427Y-66361980D01*
X164055654Y-66481234D01*
X164028140Y-66608298D01*
X164026494Y-66705716D01*
X170359823Y-144449708D01*
X170345374Y-146484315D01*
X170253228Y-146261853D01*
X170068825Y-145985875D01*
X169834125Y-145751175D01*
X169558147Y-145566772D01*
X169251496Y-145439754D01*
X168925958Y-145375000D01*
X168594042Y-145375000D01*
X168268504Y-145439754D01*
X167961853Y-145566772D01*
X167685875Y-145751175D01*
X167451175Y-145985875D01*
X167266772Y-146261853D01*
X167139754Y-146568504D01*
X167075000Y-146894042D01*
X167075000Y-147225958D01*
X167139754Y-147551496D01*
X167266772Y-147858147D01*
X167451175Y-148134125D01*
X167685875Y-148368825D01*
X167903803Y-148514440D01*
X101446287Y-158527684D01*
X92010333Y-158527684D01*
X91866704Y-156636164D01*
X91869754Y-156651496D01*
X91996772Y-156958147D01*
X92181175Y-157234125D01*
X92415875Y-157468825D01*
X92691853Y-157653228D01*
X92998504Y-157780246D01*
X93324042Y-157845000D01*
X93655958Y-157845000D01*
X93981496Y-157780246D01*
X94288147Y-157653228D01*
X94564125Y-157468825D01*
X94798825Y-157234125D01*
X94983228Y-156958147D01*
X95110246Y-156651496D01*
X95175000Y-156325958D01*
X95175000Y-155994042D01*
X95110246Y-155668504D01*
X94983228Y-155361853D01*
X94798825Y-155085875D01*
X94564125Y-154851175D01*
X94288147Y-154666772D01*
X93981496Y-154539754D01*
X93655958Y-154475000D01*
X93324042Y-154475000D01*
X92998504Y-154539754D01*
X92691853Y-154666772D01*
X92415875Y-154851175D01*
X92181175Y-155085875D01*
X91996772Y-155361853D01*
X91869754Y-155668504D01*
X91814369Y-155946939D01*
X90840044Y-143115556D01*
X95339247Y-143115556D01*
X95339251Y-143115589D01*
X95339248Y-143115620D01*
X95346671Y-143182060D01*
X95353670Y-143244762D01*
X95363538Y-143275835D01*
X98260864Y-156907094D01*
X98264436Y-156939249D01*
X98274339Y-156970487D01*
X98274385Y-156970706D01*
X98284834Y-157003597D01*
X98303722Y-157063180D01*
X98303820Y-157063358D01*
X98303886Y-157063566D01*
X98335898Y-157121616D01*
X98366430Y-157177065D01*
X98366564Y-157177224D01*
X98366667Y-157177411D01*
X98408896Y-157227516D01*
X98450151Y-157276528D01*
X98450314Y-157276658D01*
X98450451Y-157276821D01*
X98501803Y-157317852D01*
X98551669Y-157357747D01*
X98551853Y-157357842D01*
X98552020Y-157357976D01*
X98609883Y-157387937D01*
X98667080Y-157417601D01*
X98667284Y-157417660D01*
X98667469Y-157417756D01*
X98729304Y-157435633D01*
X98791951Y-157453788D01*
X98792162Y-157453806D01*
X98792362Y-157453864D01*
X98856805Y-157459361D01*
X98921480Y-157464919D01*
X98921688Y-157464896D01*
X98921900Y-157464914D01*
X98987061Y-157457634D01*
X99018318Y-157454162D01*
X99018517Y-157454120D01*
X99051105Y-157450479D01*
X99081957Y-157440677D01*
X131356545Y-150602043D01*
X131389123Y-150598403D01*
X131449245Y-150579302D01*
X131512636Y-150559207D01*
X131512830Y-150559100D01*
X131513029Y-150559037D01*
X131568035Y-150528703D01*
X131626521Y-150496499D01*
X131626691Y-150496356D01*
X131626874Y-150496255D01*
X131675129Y-150455584D01*
X131725984Y-150412778D01*
X131726122Y-150412606D01*
X131726283Y-150412470D01*
X131765943Y-150362832D01*
X131807203Y-150311260D01*
X131807304Y-150311065D01*
X131807436Y-150310900D01*
X131836500Y-150254769D01*
X131867057Y-150195849D01*
X131867119Y-150195636D01*
X131867215Y-150195450D01*
X131884868Y-150134388D01*
X131903244Y-150070978D01*
X131903263Y-150070761D01*
X131903322Y-150070556D01*
X131908837Y-150005887D01*
X131914375Y-149941447D01*
X131914351Y-149941235D01*
X131914370Y-149941018D01*
X131907181Y-149876678D01*
X131900022Y-149812233D01*
X131890113Y-149780972D01*
X128993229Y-136152640D01*
X128990115Y-136122726D01*
X128979750Y-136089227D01*
X128979230Y-136086782D01*
X128970152Y-136058207D01*
X128951685Y-135998526D01*
X128950489Y-135996318D01*
X128949728Y-135993923D01*
X128919528Y-135939160D01*
X128889763Y-135884212D01*
X128888159Y-135882280D01*
X128886945Y-135880078D01*
X128846643Y-135832261D01*
X128806730Y-135784173D01*
X128804779Y-135782590D01*
X128803160Y-135780669D01*
X128754362Y-135741680D01*
X128705776Y-135702256D01*
X128703550Y-135701082D01*
X128701590Y-135699516D01*
X128646144Y-135670807D01*
X128590780Y-135641608D01*
X128588369Y-135640891D01*
X128586140Y-135639737D01*
X128526050Y-135622365D01*
X128466162Y-135604561D01*
X128463665Y-135604329D01*
X128461247Y-135603630D01*
X128398854Y-135598309D01*
X128336711Y-135592536D01*
X128334216Y-135592796D01*
X128331710Y-135592582D01*
X128269596Y-135599522D01*
X128239801Y-135602624D01*
X128237352Y-135603125D01*
X128202505Y-135607019D01*
X128173842Y-135616125D01*
X125962846Y-136068698D01*
X125905785Y-135799836D01*
X125902164Y-135767391D01*
X125881479Y-135702256D01*
X125862864Y-135643597D01*
X125862834Y-135643542D01*
X125862814Y-135643480D01*
X125830438Y-135584755D01*
X125800118Y-135529733D01*
X125800079Y-135529686D01*
X125800046Y-135529627D01*
X125756595Y-135478061D01*
X125716365Y-135430297D01*
X125716316Y-135430258D01*
X125716274Y-135430208D01*
X125665965Y-135390001D01*
X125614821Y-135349111D01*
X125614762Y-135349081D01*
X125614714Y-135349042D01*
X125559268Y-135320324D01*
X125499390Y-135289295D01*
X125499326Y-135289276D01*
X125499271Y-135289248D01*
X125439017Y-135271821D01*
X125374508Y-135253149D01*
X125374442Y-135253143D01*
X125374382Y-135253126D01*
X125311534Y-135247757D01*
X125244974Y-135242059D01*
X125244908Y-135242066D01*
X125244846Y-135242061D01*
X125180067Y-135249291D01*
X125115765Y-135256455D01*
X125084659Y-135266327D01*
X121919520Y-135938701D01*
X121886985Y-135942348D01*
X121824771Y-135962138D01*
X121763389Y-135981631D01*
X121763248Y-135981709D01*
X121763093Y-135981758D01*
X121705958Y-136013293D01*
X121649536Y-136044399D01*
X121649413Y-136044503D01*
X121649271Y-136044581D01*
X121599237Y-136086782D01*
X121550117Y-136128172D01*
X121550018Y-136128295D01*
X121549892Y-136128402D01*
X121509136Y-136179449D01*
X121468951Y-136229731D01*
X121468876Y-136229876D01*
X121468776Y-136230001D01*
X121439208Y-136287156D01*
X121409157Y-136345174D01*
X121409112Y-136345330D01*
X121409038Y-136345473D01*
X121390973Y-136408043D01*
X121373035Y-136470063D01*
X121373021Y-136470222D01*
X121372976Y-136470379D01*
X121367432Y-136535661D01*
X121361970Y-136599598D01*
X121361988Y-136599758D01*
X121361974Y-136599920D01*
X121369236Y-136664703D01*
X121376390Y-136728805D01*
X121386298Y-136760005D01*
X121442729Y-137025015D01*
X102691672Y-141010153D01*
X102635471Y-140745903D01*
X102631865Y-140713599D01*
X102621984Y-140682486D01*
X102621969Y-140682417D01*
X102612341Y-140652123D01*
X102592512Y-140589690D01*
X102592477Y-140589626D01*
X102592456Y-140589561D01*
X102561986Y-140534324D01*
X102529741Y-140475839D01*
X102529695Y-140475784D01*
X102529661Y-140475723D01*
X102488539Y-140426944D01*
X102445966Y-140376422D01*
X102445910Y-140376377D01*
X102445865Y-140376324D01*
X102396525Y-140336911D01*
X102344404Y-140295258D01*
X102344339Y-140295224D01*
X102344286Y-140295182D01*
X102288366Y-140266234D01*
X102228960Y-140235467D01*
X102228891Y-140235447D01*
X102228829Y-140235415D01*
X102168094Y-140217864D01*
X102104070Y-140199348D01*
X102103997Y-140199342D01*
X102103932Y-140199323D01*
X102040724Y-140193939D01*
X101974533Y-140188287D01*
X101974463Y-140188295D01*
X101974394Y-140188289D01*
X101909943Y-140195498D01*
X101877701Y-140199097D01*
X101877634Y-140199111D01*
X101845190Y-140202740D01*
X101814212Y-140212586D01*
X98649780Y-140884899D01*
X98617393Y-140888515D01*
X98541691Y-140912560D01*
X98493502Y-140927864D01*
X98493495Y-140927868D01*
X98493485Y-140927871D01*
X98440635Y-140957012D01*
X98379651Y-140990635D01*
X98379642Y-140990643D01*
X98379636Y-140990646D01*
X98343633Y-141020986D01*
X98280233Y-141074410D01*
X98280226Y-141074419D01*
X98280221Y-141074423D01*
X98243882Y-141119897D01*
X98199070Y-141175972D01*
X98199066Y-141175979D01*
X98199060Y-141175987D01*
X98172571Y-141227136D01*
X98139279Y-141291416D01*
X98139275Y-141291428D01*
X98139273Y-141291433D01*
X98129221Y-141326194D01*
X98103160Y-141416306D01*
X98103159Y-141416317D01*
X98103157Y-141416324D01*
X98099362Y-141460785D01*
X98092099Y-141545842D01*
X98092100Y-141545855D01*
X98092100Y-141545861D01*
X98094585Y-141568112D01*
X98106523Y-141675049D01*
X98116387Y-141706107D01*
X98172702Y-141971133D01*
X95896910Y-142454622D01*
X95864503Y-142458243D01*
X95800952Y-142478433D01*
X95740655Y-142497582D01*
X95740628Y-142497597D01*
X95740596Y-142497607D01*
X95685357Y-142528069D01*
X95626804Y-142560351D01*
X95626777Y-142560373D01*
X95626751Y-142560388D01*
X95579201Y-142600464D01*
X95527386Y-142644126D01*
X95527366Y-142644151D01*
X95527341Y-142644172D01*
X95486557Y-142695215D01*
X95446222Y-142745687D01*
X95446207Y-142745716D01*
X95446187Y-142745741D01*
X95416391Y-142803283D01*
X95386430Y-142861130D01*
X95386421Y-142861161D01*
X95386406Y-142861190D01*
X95367753Y-142925707D01*
X95350310Y-142986020D01*
X95350307Y-142986051D01*
X95350298Y-142986083D01*
X95344708Y-143051612D01*
X95339247Y-143115556D01*
X90840044Y-143115556D01*
X89426184Y-124495731D01*
X91380234Y-124495731D01*
X91394670Y-124624936D01*
X91404532Y-124655978D01*
X94301895Y-138286566D01*
X94305510Y-138318923D01*
X94315369Y-138349956D01*
X94315373Y-138349974D01*
X94344875Y-138442833D01*
X94407658Y-138556677D01*
X94491443Y-138656087D01*
X94593012Y-138737240D01*
X94666369Y-138775223D01*
X94708460Y-138797018D01*
X94833353Y-138833125D01*
X94962890Y-138844174D01*
X94962894Y-138844174D01*
X95032568Y-138836389D01*
X95059721Y-138833355D01*
X95059723Y-138833355D01*
X95092099Y-138829737D01*
X95123141Y-138819875D01*
X108754148Y-135922513D01*
X108786509Y-135918897D01*
X108817537Y-135909039D01*
X108817552Y-135909036D01*
X108910412Y-135879534D01*
X109024256Y-135816753D01*
X109123666Y-135732968D01*
X109204820Y-135631399D01*
X109264600Y-135515949D01*
X109300707Y-135391056D01*
X109300707Y-135391054D01*
X109300708Y-135391051D01*
X109307044Y-135316758D01*
X109311756Y-135261518D01*
X109311756Y-135261513D01*
X109304235Y-135194207D01*
X132605704Y-135194207D01*
X132605704Y-135194215D01*
X132611050Y-135242059D01*
X132616522Y-135291038D01*
X132616524Y-135291045D01*
X132620141Y-135323420D01*
X132630002Y-135354459D01*
X135527369Y-148985908D01*
X135530989Y-149018292D01*
X135545014Y-149062429D01*
X135570342Y-149142152D01*
X135570357Y-149142179D01*
X135570362Y-149142195D01*
X135592627Y-149182563D01*
X135633123Y-149255997D01*
X135633142Y-149256019D01*
X135633151Y-149256036D01*
X135666994Y-149296185D01*
X135716907Y-149355407D01*
X135716929Y-149355425D01*
X135716942Y-149355440D01*
X135759574Y-149389499D01*
X135818476Y-149436562D01*
X135818501Y-149436575D01*
X135818516Y-149436587D01*
X135870142Y-149463315D01*
X135933925Y-149496342D01*
X135933948Y-149496349D01*
X135933970Y-149496360D01*
X135997131Y-149514616D01*
X136058818Y-149532450D01*
X136058842Y-149532452D01*
X136058866Y-149532459D01*
X136122410Y-149537875D01*
X136188356Y-149543500D01*
X136188382Y-149543497D01*
X136188404Y-149543499D01*
X136247891Y-149536849D01*
X136317561Y-149529065D01*
X136348635Y-149519193D01*
X149979217Y-146620990D01*
X150011555Y-146617377D01*
X150042605Y-146607513D01*
X150042640Y-146607505D01*
X150092005Y-146591818D01*
X150135461Y-146578012D01*
X150135476Y-146578004D01*
X150135497Y-146577997D01*
X150204840Y-146539751D01*
X150249306Y-146515229D01*
X150249318Y-146515219D01*
X150249338Y-146515208D01*
X150307444Y-146466229D01*
X150348715Y-146431444D01*
X150348725Y-146431431D01*
X150348742Y-146431417D01*
X150395122Y-146373362D01*
X150429868Y-146329875D01*
X150429876Y-146329859D01*
X150429889Y-146329843D01*
X150467926Y-146256373D01*
X150489647Y-146214424D01*
X150489651Y-146214410D01*
X150489662Y-146214389D01*
X150510939Y-146140774D01*
X150525754Y-146089531D01*
X150525756Y-146089511D01*
X150525761Y-146089493D01*
X150531231Y-146025314D01*
X150536802Y-145959993D01*
X150536800Y-145959971D01*
X150536801Y-145959955D01*
X150530138Y-145900351D01*
X150525983Y-145863162D01*
X150525977Y-145863136D01*
X150522357Y-145830750D01*
X150512500Y-145799730D01*
X147616045Y-132173417D01*
X147613277Y-132145308D01*
X147612010Y-132141130D01*
X147611526Y-132136802D01*
X147601665Y-132105764D01*
X147601663Y-132105755D01*
X147593154Y-132078973D01*
X147575537Y-132020898D01*
X147573482Y-132017052D01*
X147572161Y-132012896D01*
X147542878Y-131959797D01*
X147514252Y-131906241D01*
X147511481Y-131902865D01*
X147509378Y-131899051D01*
X147470307Y-131852694D01*
X147431775Y-131805743D01*
X147428402Y-131802975D01*
X147425593Y-131799642D01*
X147378217Y-131761789D01*
X147331277Y-131723266D01*
X147327428Y-131721208D01*
X147324024Y-131718489D01*
X147270185Y-131690612D01*
X147216620Y-131661981D01*
X147212443Y-131660714D01*
X147208573Y-131658710D01*
X147150326Y-131641871D01*
X147092210Y-131624241D01*
X147087866Y-131623813D01*
X147083680Y-131622603D01*
X147023243Y-131617448D01*
X146995246Y-131614691D01*
X146990912Y-131614691D01*
X146954143Y-131611555D01*
X146954142Y-131611555D01*
X146928538Y-131614416D01*
X146893878Y-131618289D01*
X146833444Y-131624241D01*
X146829266Y-131625508D01*
X146824938Y-131625992D01*
X146793890Y-131635856D01*
X133163325Y-134533214D01*
X133130959Y-134536830D01*
X133099912Y-134546693D01*
X133099904Y-134546695D01*
X133051116Y-134562195D01*
X133007052Y-134576194D01*
X133007049Y-134576196D01*
X133007045Y-134576197D01*
X132971189Y-134595971D01*
X132893207Y-134638975D01*
X132893203Y-134638978D01*
X132893200Y-134638980D01*
X132844667Y-134679885D01*
X132793797Y-134722759D01*
X132793795Y-134722762D01*
X132793791Y-134722765D01*
X132750831Y-134776533D01*
X132712643Y-134824328D01*
X132712642Y-134824330D01*
X132712638Y-134824335D01*
X132687741Y-134872418D01*
X132652862Y-134939777D01*
X132652861Y-134939782D01*
X132652859Y-134939785D01*
X132616752Y-135064678D01*
X132610984Y-135132313D01*
X132605704Y-135194207D01*
X109304235Y-135194207D01*
X109297320Y-135132313D01*
X109287456Y-135101263D01*
X106390998Y-121474937D01*
X106388230Y-121446828D01*
X106386963Y-121442653D01*
X106386480Y-121438326D01*
X106376618Y-121407284D01*
X106376616Y-121407275D01*
X106368107Y-121380493D01*
X106350490Y-121322418D01*
X106348435Y-121318572D01*
X106347114Y-121314416D01*
X106317831Y-121261317D01*
X106289205Y-121207761D01*
X106286436Y-121204388D01*
X106284334Y-121200575D01*
X106265865Y-121178661D01*
X106247421Y-121156778D01*
X106245259Y-121154213D01*
X106206728Y-121107263D01*
X106203356Y-121104496D01*
X106200549Y-121101165D01*
X106200546Y-121101162D01*
X106166502Y-121073961D01*
X106153177Y-121063314D01*
X106106230Y-121024786D01*
X106102382Y-121022729D01*
X106098980Y-121020011D01*
X106045122Y-120992123D01*
X105991573Y-120963501D01*
X105987401Y-120962235D01*
X105983530Y-120960231D01*
X105925268Y-120943387D01*
X105867163Y-120925761D01*
X105862820Y-120925333D01*
X105858637Y-120924124D01*
X105858636Y-120924124D01*
X105858633Y-120924123D01*
X105798196Y-120918968D01*
X105770199Y-120916211D01*
X105765865Y-120916211D01*
X105765334Y-120916166D01*
X105729099Y-120913075D01*
X105729096Y-120913075D01*
X105676841Y-120918914D01*
X105668827Y-120919809D01*
X105608397Y-120925761D01*
X105604219Y-120927028D01*
X105599891Y-120927512D01*
X105568848Y-120937374D01*
X91937852Y-123834735D01*
X91905481Y-123838352D01*
X91874442Y-123848213D01*
X91874438Y-123848214D01*
X91820392Y-123865385D01*
X91781575Y-123877717D01*
X91712935Y-123915570D01*
X91667734Y-123940497D01*
X91568324Y-124024282D01*
X91568321Y-124024285D01*
X91541120Y-124058329D01*
X91487170Y-124125851D01*
X91427390Y-124241301D01*
X91427389Y-124241305D01*
X91391282Y-124366198D01*
X91384003Y-124451539D01*
X91380234Y-124495731D01*
X89426184Y-124495731D01*
X89125436Y-120535028D01*
X110014098Y-120535028D01*
X110024917Y-120631859D01*
X110024918Y-120631865D01*
X110028535Y-120664233D01*
X110038397Y-120695274D01*
X112935759Y-134325862D01*
X112939375Y-134358220D01*
X112949234Y-134389251D01*
X112949237Y-134389267D01*
X112978739Y-134482126D01*
X113041522Y-134595970D01*
X113125307Y-134695380D01*
X113226876Y-134776533D01*
X113342327Y-134836312D01*
X113378434Y-134846750D01*
X113467221Y-134872419D01*
X113596758Y-134883467D01*
X113693589Y-134872648D01*
X113693595Y-134872647D01*
X113725963Y-134869030D01*
X113757001Y-134859169D01*
X123942800Y-132694042D01*
X128775000Y-132694042D01*
X128775000Y-133025958D01*
X128839754Y-133351496D01*
X128966772Y-133658147D01*
X129151175Y-133934125D01*
X129385875Y-134168825D01*
X129661853Y-134353228D01*
X129968504Y-134480246D01*
X130294042Y-134545000D01*
X130625958Y-134545000D01*
X130951496Y-134480246D01*
X131258147Y-134353228D01*
X131534125Y-134168825D01*
X131768825Y-133934125D01*
X131953228Y-133658147D01*
X132080246Y-133351496D01*
X132145000Y-133025958D01*
X132145000Y-132694042D01*
X132080246Y-132368504D01*
X131953228Y-132061853D01*
X131768825Y-131785875D01*
X131534125Y-131551175D01*
X131258147Y-131366772D01*
X130951496Y-131239754D01*
X130625958Y-131175000D01*
X130294042Y-131175000D01*
X129968504Y-131239754D01*
X129661853Y-131366772D01*
X129385875Y-131551175D01*
X129151175Y-131785875D01*
X128966772Y-132061853D01*
X128839754Y-132368504D01*
X128775000Y-132694042D01*
X123942800Y-132694042D01*
X127387591Y-131961806D01*
X127419949Y-131958190D01*
X127450978Y-131948332D01*
X127450996Y-131948328D01*
X127543855Y-131918826D01*
X127657699Y-131856043D01*
X127757108Y-131772258D01*
X127757695Y-131771524D01*
X127772563Y-131752915D01*
X127838262Y-131670689D01*
X127898041Y-131555238D01*
X127911243Y-131509570D01*
X127934148Y-131430344D01*
X127945196Y-131300806D01*
X127940146Y-131255609D01*
X127930759Y-131171602D01*
X127920896Y-131140556D01*
X125024438Y-117514230D01*
X125021670Y-117486121D01*
X125020403Y-117481943D01*
X125019919Y-117477615D01*
X125010058Y-117446577D01*
X125010056Y-117446568D01*
X125001547Y-117419786D01*
X124983930Y-117361711D01*
X124981875Y-117357865D01*
X124980554Y-117353709D01*
X124951271Y-117300610D01*
X124922645Y-117247054D01*
X124919874Y-117243678D01*
X124917771Y-117239864D01*
X124878700Y-117193507D01*
X124840168Y-117146556D01*
X124836795Y-117143788D01*
X124833986Y-117140455D01*
X124786628Y-117102616D01*
X124739670Y-117064079D01*
X124735818Y-117062020D01*
X124732416Y-117059302D01*
X124678594Y-117031434D01*
X124625013Y-117002794D01*
X124620836Y-117001527D01*
X124616966Y-116999523D01*
X124558719Y-116982684D01*
X124500603Y-116965054D01*
X124496259Y-116964626D01*
X124492073Y-116963416D01*
X124431636Y-116958261D01*
X124403639Y-116955504D01*
X124399305Y-116955504D01*
X124362536Y-116952368D01*
X124362534Y-116952368D01*
X124318428Y-116957296D01*
X124302271Y-116959102D01*
X124241837Y-116965054D01*
X124237659Y-116966321D01*
X124233331Y-116966805D01*
X124202283Y-116976669D01*
X110571713Y-119874028D01*
X110539345Y-119877645D01*
X110508304Y-119887507D01*
X110508298Y-119887508D01*
X110438498Y-119909684D01*
X110415439Y-119917010D01*
X110301594Y-119979793D01*
X110202185Y-120063578D01*
X110121032Y-120165148D01*
X110061253Y-120280598D01*
X110025146Y-120405491D01*
X110014098Y-120535028D01*
X89125436Y-120535028D01*
X88963321Y-118400056D01*
X88964324Y-118388293D01*
X88958405Y-118335317D01*
X88956838Y-118314681D01*
X88954810Y-118303139D01*
X88953505Y-118291462D01*
X88949191Y-118271169D01*
X88939974Y-118218718D01*
X88935705Y-118207721D01*
X86308522Y-105848235D01*
X87416649Y-105848235D01*
X87431085Y-105977440D01*
X87440949Y-106008488D01*
X90338308Y-119639569D01*
X90341924Y-119671933D01*
X90351785Y-119702972D01*
X90351787Y-119702982D01*
X90381288Y-119795842D01*
X90444070Y-119909686D01*
X90527854Y-120009096D01*
X90629423Y-120090250D01*
X90744873Y-120150030D01*
X90869766Y-120186138D01*
X90978941Y-120195450D01*
X90999302Y-120197187D01*
X90999304Y-120197187D01*
X91024125Y-120194414D01*
X91096133Y-120186369D01*
X91096139Y-120186368D01*
X91128509Y-120182751D01*
X91159550Y-120172890D01*
X104790892Y-117275527D01*
X104823270Y-117271909D01*
X104863066Y-117259265D01*
X104947163Y-117232549D01*
X105061008Y-117169767D01*
X105061015Y-117169761D01*
X105061019Y-117169759D01*
X105095787Y-117140455D01*
X105160418Y-117085984D01*
X105241572Y-116984415D01*
X105241576Y-116984407D01*
X105241580Y-116984402D01*
X105263904Y-116941287D01*
X105301353Y-116868965D01*
X105301356Y-116868955D01*
X105301358Y-116868951D01*
X105313357Y-116827444D01*
X105337461Y-116744072D01*
X105337462Y-116744061D01*
X105337463Y-116744057D01*
X105341443Y-116697387D01*
X105348510Y-116614534D01*
X105348509Y-116614528D01*
X105348510Y-116614519D01*
X105344018Y-116574322D01*
X128647538Y-116574322D01*
X128647539Y-116574327D01*
X128647538Y-116574334D01*
X128654122Y-116633246D01*
X128658357Y-116671153D01*
X128658359Y-116671162D01*
X128661977Y-116703538D01*
X128671838Y-116734575D01*
X131569198Y-130365149D01*
X131572813Y-130397505D01*
X131582673Y-130428542D01*
X131582677Y-130428560D01*
X131612179Y-130521419D01*
X131657953Y-130604421D01*
X131674958Y-130635257D01*
X131674960Y-130635259D01*
X131674962Y-130635263D01*
X131723014Y-130692275D01*
X131758742Y-130734667D01*
X131758747Y-130734672D01*
X131860316Y-130815826D01*
X131952009Y-130863303D01*
X131975760Y-130875602D01*
X131975763Y-130875603D01*
X131975767Y-130875605D01*
X132036728Y-130893229D01*
X132100653Y-130911710D01*
X132100658Y-130911710D01*
X132100660Y-130911711D01*
X132148746Y-130915812D01*
X132230190Y-130922760D01*
X132230198Y-130922760D01*
X132283583Y-130916795D01*
X132327021Y-130911942D01*
X132327028Y-130911940D01*
X132359403Y-130908323D01*
X132390440Y-130898462D01*
X146021870Y-128001100D01*
X146054232Y-127997484D01*
X146085262Y-127987626D01*
X146085275Y-127987623D01*
X146178135Y-127958122D01*
X146291980Y-127895341D01*
X146391390Y-127811557D01*
X146472545Y-127709988D01*
X146532325Y-127594539D01*
X146532326Y-127594536D01*
X146532327Y-127594534D01*
X146568434Y-127469641D01*
X146579483Y-127340103D01*
X146568664Y-127243272D01*
X146565048Y-127210903D01*
X146555184Y-127179854D01*
X144112509Y-115687980D01*
X146927920Y-115687980D01*
X146927926Y-115688037D01*
X146927921Y-115688100D01*
X146935297Y-115753897D01*
X146938756Y-115784809D01*
X146938768Y-115784867D01*
X146942404Y-115817300D01*
X146952261Y-115848286D01*
X147625369Y-119012155D01*
X147628956Y-119044353D01*
X147638855Y-119075544D01*
X147638892Y-119075720D01*
X147649424Y-119108851D01*
X147668282Y-119168272D01*
X147668360Y-119168414D01*
X147668411Y-119168574D01*
X147700567Y-119226860D01*
X147731028Y-119282136D01*
X147731131Y-119282258D01*
X147731213Y-119282407D01*
X147774097Y-119333270D01*
X147814781Y-119381572D01*
X147814907Y-119381673D01*
X147815016Y-119381802D01*
X147866571Y-119422979D01*
X147916325Y-119462758D01*
X147916470Y-119462833D01*
X147916600Y-119462937D01*
X147974685Y-119493000D01*
X148031756Y-119522574D01*
X148031913Y-119522619D01*
X148032061Y-119522696D01*
X148094726Y-119540800D01*
X148156638Y-119558720D01*
X148156802Y-119558734D01*
X148156961Y-119558780D01*
X148220836Y-119564216D01*
X148286171Y-119569810D01*
X148286339Y-119569791D01*
X148286501Y-119569805D01*
X148350997Y-119562587D01*
X148383005Y-119559021D01*
X148383162Y-119558988D01*
X148415703Y-119555346D01*
X148446595Y-119545525D01*
X148710805Y-119489452D01*
X152696743Y-138240478D01*
X152431892Y-138296637D01*
X152399309Y-138300282D01*
X152337450Y-138319943D01*
X152275789Y-138339499D01*
X152275605Y-138339600D01*
X152275408Y-138339663D01*
X152219227Y-138370655D01*
X152161914Y-138402224D01*
X152161753Y-138402360D01*
X152161571Y-138402460D01*
X152112741Y-138443626D01*
X152062462Y-138485959D01*
X152062329Y-138486126D01*
X152062173Y-138486257D01*
X152022261Y-138536222D01*
X151981258Y-138587489D01*
X151981162Y-138587674D01*
X151981032Y-138587837D01*
X151951321Y-138645235D01*
X151921421Y-138702909D01*
X151921363Y-138703110D01*
X151921267Y-138703295D01*
X151903278Y-138765548D01*
X151885252Y-138827784D01*
X151885234Y-138827992D01*
X151885176Y-138828193D01*
X151879639Y-138893205D01*
X151874139Y-138957316D01*
X151874162Y-138957521D01*
X151874144Y-138957731D01*
X151881347Y-139022118D01*
X151888511Y-139086528D01*
X151898422Y-139117780D01*
X152571653Y-142283042D01*
X152575303Y-142315545D01*
X152594550Y-142376012D01*
X152614625Y-142439175D01*
X152614694Y-142439300D01*
X152614735Y-142439429D01*
X152645589Y-142495305D01*
X152677422Y-142553012D01*
X152677512Y-142553119D01*
X152677579Y-142553240D01*
X152718867Y-142602173D01*
X152761219Y-142652410D01*
X152761330Y-142652499D01*
X152761418Y-142652603D01*
X152811434Y-142692521D01*
X152862799Y-142733551D01*
X152862924Y-142733616D01*
X152863032Y-142733702D01*
X152920171Y-142763249D01*
X152978257Y-142793316D01*
X152978392Y-142793355D01*
X152978514Y-142793418D01*
X153039702Y-142811071D01*
X153103155Y-142829407D01*
X153103296Y-142829419D01*
X153103428Y-142829457D01*
X153167198Y-142834861D01*
X153232694Y-142840439D01*
X153232834Y-142840423D01*
X153232971Y-142840435D01*
X153296695Y-142833280D01*
X153361897Y-142825986D01*
X153393076Y-142816076D01*
X153657069Y-142759811D01*
X154140478Y-145035290D01*
X154144099Y-145067699D01*
X154163196Y-145127810D01*
X154183435Y-145191543D01*
X154183454Y-145191577D01*
X154183463Y-145191606D01*
X154210117Y-145239940D01*
X154246204Y-145305395D01*
X154246230Y-145305426D01*
X154246244Y-145305451D01*
X154280492Y-145346086D01*
X154329978Y-145404814D01*
X154330010Y-145404839D01*
X154330028Y-145404861D01*
X154369337Y-145436269D01*
X154431538Y-145485979D01*
X154431578Y-145486000D01*
X154431597Y-145486015D01*
X154476094Y-145509056D01*
X154546982Y-145545771D01*
X154547018Y-145545781D01*
X154547046Y-145545796D01*
X154604298Y-145562348D01*
X154671871Y-145581892D01*
X154671909Y-145581895D01*
X154671939Y-145581904D01*
X154733644Y-145587168D01*
X154801408Y-145592955D01*
X154801443Y-145592951D01*
X154801476Y-145592954D01*
X154867235Y-145585607D01*
X154930614Y-145578533D01*
X154961691Y-145568664D01*
X168592936Y-142671341D01*
X168625088Y-142667770D01*
X168656341Y-142657864D01*
X168656562Y-142657817D01*
X168688062Y-142647810D01*
X168749021Y-142628488D01*
X168749213Y-142628383D01*
X168749422Y-142628316D01*
X168806350Y-142596923D01*
X168862907Y-142565782D01*
X168863074Y-142565641D01*
X168863267Y-142565535D01*
X168913296Y-142523370D01*
X168962372Y-142482063D01*
X168962507Y-142481894D01*
X168962677Y-142481751D01*
X169003451Y-142430721D01*
X169043594Y-142380548D01*
X169043695Y-142380354D01*
X169043832Y-142380182D01*
X169073762Y-142322379D01*
X169103450Y-142265138D01*
X169103511Y-142264929D01*
X169103612Y-142264733D01*
X169121522Y-142202786D01*
X169139641Y-142140269D01*
X169139660Y-142140047D01*
X169139720Y-142139840D01*
X169145157Y-142076099D01*
X169150776Y-142010738D01*
X169150752Y-142010518D01*
X169150770Y-142010302D01*
X169143588Y-141946016D01*
X169140021Y-141913900D01*
X169139976Y-141913688D01*
X169136335Y-141881097D01*
X169126537Y-141850257D01*
X162288749Y-109575591D01*
X162285108Y-109543002D01*
X162265506Y-109481299D01*
X162245916Y-109419496D01*
X162245811Y-109419304D01*
X162245744Y-109419095D01*
X162214351Y-109362167D01*
X162183210Y-109305610D01*
X162183069Y-109305443D01*
X162182963Y-109305250D01*
X162140801Y-109255224D01*
X162099492Y-109206145D01*
X162099323Y-109206010D01*
X162099180Y-109205840D01*
X162047774Y-109164766D01*
X161997976Y-109124923D01*
X161997785Y-109124824D01*
X161997611Y-109124685D01*
X161939499Y-109094595D01*
X161882566Y-109065067D01*
X161882357Y-109065006D01*
X161882161Y-109064905D01*
X161819513Y-109046793D01*
X161757697Y-109028877D01*
X161757480Y-109028858D01*
X161757268Y-109028797D01*
X161692080Y-109023236D01*
X161628167Y-109017742D01*
X161627952Y-109017766D01*
X161627730Y-109017747D01*
X161563075Y-109024970D01*
X161498953Y-109032091D01*
X161467691Y-109042000D01*
X147838400Y-111938909D01*
X147808384Y-111942043D01*
X147774989Y-111952387D01*
X147772646Y-111952885D01*
X147743977Y-111961993D01*
X147684196Y-111980510D01*
X147682079Y-111981657D01*
X147679786Y-111982386D01*
X147624961Y-112012620D01*
X147569900Y-112042467D01*
X147568048Y-112044005D01*
X147565941Y-112045167D01*
X147518096Y-112085491D01*
X147469887Y-112125530D01*
X147468369Y-112127402D01*
X147466531Y-112128951D01*
X147427494Y-112177809D01*
X147388001Y-112226510D01*
X147386877Y-112228642D01*
X147385377Y-112230520D01*
X147356608Y-112286078D01*
X147327388Y-112341524D01*
X147326703Y-112343832D01*
X147325596Y-112345969D01*
X147308212Y-112406098D01*
X147290378Y-112466153D01*
X147290156Y-112468552D01*
X147289488Y-112470862D01*
X147284166Y-112533252D01*
X147278393Y-112595607D01*
X147278643Y-112597999D01*
X147278438Y-112600399D01*
X147285396Y-112662678D01*
X147288511Y-112692513D01*
X147288990Y-112694851D01*
X147292873Y-112729604D01*
X147302013Y-112758376D01*
X147755295Y-114969408D01*
X147485364Y-115026887D01*
X147453050Y-115030503D01*
X147421948Y-115040390D01*
X147421889Y-115040403D01*
X147389719Y-115050636D01*
X147329151Y-115069891D01*
X147329101Y-115069919D01*
X147329040Y-115069938D01*
X147270364Y-115102324D01*
X147215317Y-115132693D01*
X147215271Y-115132732D01*
X147215218Y-115132761D01*
X147165051Y-115175074D01*
X147115923Y-115216496D01*
X147115886Y-115216542D01*
X147115839Y-115216582D01*
X147075748Y-115266797D01*
X147034788Y-115318080D01*
X147034759Y-115318136D01*
X147034723Y-115318181D01*
X147006244Y-115373230D01*
X146975029Y-115433541D01*
X146975011Y-115433602D01*
X146974985Y-115433653D01*
X146957294Y-115494928D01*
X146938945Y-115558441D01*
X146938940Y-115558500D01*
X146938923Y-115558559D01*
X146933245Y-115625409D01*
X146927920Y-115687980D01*
X144112509Y-115687980D01*
X143658726Y-113553103D01*
X143655957Y-113524991D01*
X143654688Y-113520809D01*
X143654204Y-113516474D01*
X143637592Y-113464190D01*
X143635840Y-113458675D01*
X143618217Y-113400581D01*
X143616161Y-113396734D01*
X143614842Y-113392583D01*
X143614839Y-113392578D01*
X143614836Y-113392568D01*
X143585555Y-113339475D01*
X143556932Y-113285924D01*
X143554163Y-113282551D01*
X143552061Y-113278738D01*
X143552056Y-113278732D01*
X143552052Y-113278725D01*
X143512978Y-113232366D01*
X143474455Y-113185426D01*
X143471083Y-113182659D01*
X143468276Y-113179328D01*
X143468271Y-113179324D01*
X143468265Y-113179317D01*
X143420901Y-113141475D01*
X143373957Y-113102949D01*
X143370109Y-113100892D01*
X143366707Y-113098174D01*
X143366699Y-113098170D01*
X143366694Y-113098166D01*
X143325060Y-113076609D01*
X143312849Y-113070286D01*
X143259300Y-113041664D01*
X143255128Y-113040398D01*
X143251257Y-113038394D01*
X143251247Y-113038391D01*
X143251243Y-113038389D01*
X143199272Y-113023365D01*
X143192995Y-113021550D01*
X143134890Y-113003924D01*
X143130547Y-113003496D01*
X143126364Y-113002287D01*
X143126357Y-113002286D01*
X143126349Y-113002284D01*
X143065916Y-112997131D01*
X143037926Y-112994374D01*
X143033593Y-112994374D01*
X142996827Y-112991238D01*
X142996820Y-112991239D01*
X142996811Y-112991238D01*
X142936521Y-112997975D01*
X142876124Y-113003924D01*
X142871949Y-113005191D01*
X142867622Y-113005674D01*
X142836574Y-113015538D01*
X129205148Y-115913323D01*
X129172785Y-115916939D01*
X129141738Y-115926803D01*
X129141727Y-115926805D01*
X129101657Y-115939536D01*
X129048879Y-115956304D01*
X129048873Y-115956308D01*
X129048868Y-115956309D01*
X128991146Y-115988142D01*
X128935034Y-116019087D01*
X128935030Y-116019090D01*
X128935025Y-116019093D01*
X128892407Y-116055014D01*
X128835625Y-116102872D01*
X128835622Y-116102876D01*
X128835617Y-116102880D01*
X128799435Y-116148167D01*
X128754472Y-116204442D01*
X128754470Y-116204446D01*
X128754466Y-116204451D01*
X128732137Y-116247577D01*
X128694693Y-116319892D01*
X128694692Y-116319897D01*
X128694689Y-116319902D01*
X128682686Y-116361423D01*
X128658586Y-116444785D01*
X128658586Y-116444791D01*
X128658584Y-116444796D01*
X128655128Y-116485329D01*
X128647538Y-116574322D01*
X105344018Y-116574322D01*
X105342444Y-116560238D01*
X105334075Y-116485329D01*
X105324208Y-116454270D01*
X102427498Y-102827442D01*
X102424730Y-102799333D01*
X102423463Y-102795157D01*
X102422980Y-102790832D01*
X102413116Y-102759782D01*
X102413114Y-102759774D01*
X102404613Y-102733018D01*
X102386990Y-102674923D01*
X102384936Y-102671081D01*
X102383616Y-102666925D01*
X102383612Y-102666919D01*
X102383611Y-102666914D01*
X102354320Y-102613801D01*
X102325705Y-102560266D01*
X102322937Y-102556893D01*
X102320834Y-102553080D01*
X102320831Y-102553076D01*
X102320828Y-102553071D01*
X102281747Y-102506703D01*
X102243228Y-102459768D01*
X102239857Y-102457001D01*
X102237050Y-102453671D01*
X102237046Y-102453668D01*
X102237042Y-102453663D01*
X102189668Y-102415812D01*
X102142730Y-102377291D01*
X102138881Y-102375234D01*
X102135481Y-102372517D01*
X102135477Y-102372515D01*
X102135471Y-102372510D01*
X102081612Y-102344623D01*
X102028073Y-102316006D01*
X102023899Y-102314740D01*
X102020031Y-102312737D01*
X102020028Y-102312736D01*
X102020020Y-102312732D01*
X101961765Y-102295891D01*
X101903663Y-102278266D01*
X101899321Y-102277838D01*
X101895138Y-102276629D01*
X101895131Y-102276628D01*
X101895126Y-102276627D01*
X101834701Y-102271474D01*
X101806699Y-102268716D01*
X101802366Y-102268716D01*
X101765600Y-102265580D01*
X101765595Y-102265581D01*
X101765589Y-102265580D01*
X101705307Y-102272316D01*
X101644897Y-102278266D01*
X101640718Y-102279534D01*
X101636384Y-102280018D01*
X101605340Y-102289881D01*
X87974272Y-105187239D01*
X87941901Y-105190856D01*
X87910857Y-105200718D01*
X87910854Y-105200719D01*
X87817994Y-105230220D01*
X87704149Y-105293002D01*
X87604740Y-105376786D01*
X87523586Y-105478355D01*
X87463806Y-105593805D01*
X87427698Y-105718698D01*
X87416649Y-105848235D01*
X86308522Y-105848235D01*
X85466617Y-101887526D01*
X106050004Y-101887526D01*
X106064439Y-102016731D01*
X106074304Y-102047783D01*
X108971663Y-115678863D01*
X108975279Y-115711225D01*
X108985139Y-115742263D01*
X108985142Y-115742275D01*
X109014643Y-115835135D01*
X109077425Y-115948979D01*
X109161209Y-116048389D01*
X109262778Y-116129543D01*
X109378228Y-116189323D01*
X109503121Y-116225431D01*
X109602114Y-116233875D01*
X109632656Y-116236480D01*
X109632659Y-116236480D01*
X109669890Y-116232320D01*
X109729487Y-116225662D01*
X109729492Y-116225661D01*
X109761864Y-116222044D01*
X109792906Y-116212182D01*
X123424338Y-113314820D01*
X123456698Y-113311204D01*
X123487729Y-113301346D01*
X123487742Y-113301343D01*
X123580602Y-113271842D01*
X123694447Y-113209061D01*
X123793857Y-113125277D01*
X123875012Y-113023708D01*
X123934792Y-112908259D01*
X123970900Y-112783366D01*
X123970900Y-112783364D01*
X123970901Y-112783361D01*
X123981950Y-112653824D01*
X123971131Y-112556993D01*
X123967515Y-112524623D01*
X123957651Y-112493573D01*
X121061193Y-98866741D01*
X121058424Y-98838627D01*
X121057158Y-98834454D01*
X121056675Y-98830129D01*
X121046184Y-98797104D01*
X121038306Y-98772306D01*
X121020684Y-98714217D01*
X121018630Y-98710375D01*
X121017310Y-98706219D01*
X120988017Y-98653100D01*
X120959399Y-98599560D01*
X120956632Y-98596188D01*
X120954530Y-98592377D01*
X120954529Y-98592376D01*
X120954528Y-98592374D01*
X120915451Y-98546009D01*
X120876922Y-98499062D01*
X120873555Y-98496299D01*
X120870747Y-98492967D01*
X120823340Y-98455088D01*
X120776424Y-98416585D01*
X120772580Y-98414531D01*
X120769178Y-98411812D01*
X120715312Y-98383920D01*
X120661767Y-98355300D01*
X120657595Y-98354035D01*
X120653728Y-98352032D01*
X120595488Y-98335194D01*
X120537357Y-98317560D01*
X120533014Y-98317132D01*
X120528835Y-98315924D01*
X120528836Y-98315924D01*
X120528832Y-98315923D01*
X120468398Y-98310768D01*
X120440393Y-98308010D01*
X120436061Y-98308010D01*
X120423456Y-98306935D01*
X120399297Y-98304874D01*
X120399295Y-98304874D01*
X120371227Y-98308010D01*
X120339013Y-98311609D01*
X120278591Y-98317560D01*
X120274415Y-98318827D01*
X120270090Y-98319310D01*
X120239048Y-98329172D01*
X106607626Y-101226533D01*
X106575256Y-101230150D01*
X106544215Y-101240011D01*
X106544212Y-101240012D01*
X106453464Y-101268842D01*
X106451349Y-101269514D01*
X106376851Y-101310597D01*
X106337507Y-101332294D01*
X106337506Y-101332295D01*
X106337504Y-101332296D01*
X106285411Y-101376201D01*
X106255226Y-101401642D01*
X106238095Y-101416080D01*
X106156941Y-101517649D01*
X106123040Y-101583121D01*
X106097162Y-101633096D01*
X106097161Y-101633098D01*
X106097161Y-101633099D01*
X106061053Y-101757992D01*
X106055712Y-101820607D01*
X106050004Y-101887526D01*
X85466617Y-101887526D01*
X85341181Y-101297418D01*
X85311679Y-101204558D01*
X85248897Y-101090714D01*
X85165112Y-100991305D01*
X85063542Y-100910152D01*
X84948092Y-100850373D01*
X84823198Y-100814266D01*
X84693661Y-100803218D01*
X84665595Y-100806354D01*
X81707241Y-100806354D01*
X81707875Y-100547469D01*
X81707875Y-100547468D01*
X81710998Y-99271400D01*
X81710998Y-99271399D01*
X81716738Y-96923881D01*
X81723523Y-94148621D01*
X81723523Y-94148620D01*
X81730643Y-91235899D01*
X81735747Y-89147349D01*
X81738893Y-87860032D01*
X81740437Y-87228088D01*
X83458821Y-87228088D01*
X83473257Y-87357293D01*
X83483121Y-87388341D01*
X86380482Y-101019430D01*
X86384098Y-101051792D01*
X86393956Y-101082822D01*
X86393959Y-101082835D01*
X86423460Y-101175695D01*
X86486242Y-101289539D01*
X86486244Y-101289542D01*
X86486245Y-101289543D01*
X86498748Y-101304378D01*
X86570026Y-101388949D01*
X86671595Y-101470103D01*
X86787045Y-101529883D01*
X86787048Y-101529884D01*
X86787050Y-101529885D01*
X86821673Y-101539894D01*
X86911938Y-101565991D01*
X87041476Y-101577040D01*
X87041480Y-101577040D01*
X87138311Y-101566221D01*
X87138314Y-101566220D01*
X87170681Y-101562604D01*
X87201725Y-101552742D01*
X100832817Y-98655295D01*
X100865177Y-98651679D01*
X100896212Y-98641819D01*
X100896227Y-98641816D01*
X100989087Y-98612314D01*
X101102931Y-98549532D01*
X101202340Y-98465747D01*
X101283494Y-98364177D01*
X101343273Y-98248727D01*
X101379380Y-98123834D01*
X101390428Y-97994296D01*
X101382890Y-97926827D01*
X124684291Y-97926827D01*
X124698728Y-98056032D01*
X124708591Y-98087078D01*
X127605952Y-111718164D01*
X127609568Y-111750528D01*
X127619427Y-111781560D01*
X127619429Y-111781570D01*
X127648930Y-111874430D01*
X127711712Y-111988274D01*
X127795496Y-112087684D01*
X127897065Y-112168838D01*
X128012515Y-112228618D01*
X128012520Y-112228619D01*
X128012521Y-112228620D01*
X128045659Y-112238200D01*
X128137408Y-112264726D01*
X128137412Y-112264726D01*
X128137414Y-112264727D01*
X128206555Y-112270624D01*
X128266946Y-112275775D01*
X128266951Y-112275775D01*
X128363782Y-112264956D01*
X128363786Y-112264955D01*
X128396151Y-112261339D01*
X128427194Y-112251477D01*
X142057783Y-109354113D01*
X142090138Y-109350498D01*
X142121172Y-109340639D01*
X142121190Y-109340635D01*
X142214049Y-109311133D01*
X142310400Y-109257997D01*
X142327890Y-109248352D01*
X142327891Y-109248351D01*
X142327893Y-109248350D01*
X142380427Y-109204073D01*
X142427299Y-109164568D01*
X142427302Y-109164565D01*
X142508456Y-109062996D01*
X142568235Y-108947545D01*
X142583464Y-108894868D01*
X142604341Y-108822656D01*
X142615390Y-108693118D01*
X142604571Y-108596287D01*
X142604570Y-108596283D01*
X142600953Y-108563909D01*
X142591091Y-108532867D01*
X139694633Y-94906034D01*
X139691864Y-94877920D01*
X139690597Y-94873742D01*
X139690113Y-94869414D01*
X139671761Y-94811650D01*
X139654124Y-94753510D01*
X139652070Y-94749668D01*
X139650750Y-94745512D01*
X139621457Y-94692393D01*
X139592839Y-94638853D01*
X139590071Y-94635480D01*
X139587968Y-94631667D01*
X139569499Y-94609753D01*
X139551857Y-94588822D01*
X139548891Y-94585302D01*
X139510362Y-94538355D01*
X139506991Y-94535588D01*
X139504184Y-94532258D01*
X139504180Y-94532254D01*
X139458788Y-94495986D01*
X139456820Y-94494414D01*
X139409864Y-94455878D01*
X139406015Y-94453821D01*
X139402615Y-94451104D01*
X139402611Y-94451102D01*
X139402610Y-94451101D01*
X139348788Y-94423233D01*
X139295207Y-94394593D01*
X139291033Y-94393327D01*
X139287165Y-94391324D01*
X139287162Y-94391323D01*
X139287160Y-94391322D01*
X139228913Y-94374483D01*
X139170797Y-94356853D01*
X139166455Y-94356425D01*
X139162272Y-94355216D01*
X139162270Y-94355216D01*
X139162267Y-94355215D01*
X139101833Y-94350061D01*
X139073833Y-94347303D01*
X139069501Y-94347303D01*
X139032735Y-94344167D01*
X139032729Y-94344167D01*
X138975198Y-94350596D01*
X138972472Y-94350900D01*
X138912031Y-94356853D01*
X138907855Y-94358120D01*
X138903530Y-94358603D01*
X138872479Y-94368467D01*
X125241908Y-97265827D01*
X125209543Y-97269443D01*
X125178500Y-97279305D01*
X125178491Y-97279307D01*
X125127039Y-97295654D01*
X125085636Y-97308807D01*
X124971791Y-97371589D01*
X124872382Y-97455373D01*
X124872378Y-97455377D01*
X124861871Y-97468528D01*
X124791228Y-97556942D01*
X124791226Y-97556946D01*
X124791225Y-97556947D01*
X124784012Y-97570877D01*
X124731448Y-97672392D01*
X124731447Y-97672395D01*
X124731446Y-97672397D01*
X124711559Y-97741185D01*
X124709239Y-97749212D01*
X124695339Y-97797290D01*
X124684291Y-97926827D01*
X101382890Y-97926827D01*
X101375992Y-97865091D01*
X101366128Y-97834043D01*
X98469671Y-84207298D01*
X98466902Y-84179186D01*
X98465635Y-84175010D01*
X98465152Y-84170685D01*
X98455290Y-84139643D01*
X98455289Y-84139637D01*
X98446785Y-84112870D01*
X98429162Y-84054776D01*
X98427108Y-84050934D01*
X98425788Y-84046778D01*
X98396495Y-83993659D01*
X98367877Y-83940119D01*
X98365109Y-83936746D01*
X98363006Y-83932933D01*
X98323929Y-83886568D01*
X98285400Y-83839621D01*
X98282029Y-83836854D01*
X98279222Y-83833524D01*
X98268471Y-83824934D01*
X98231849Y-83795672D01*
X98184902Y-83757144D01*
X98181054Y-83755087D01*
X98177652Y-83752369D01*
X98123794Y-83724481D01*
X98070245Y-83695859D01*
X98066073Y-83694593D01*
X98062202Y-83692589D01*
X98003940Y-83675745D01*
X97945835Y-83658119D01*
X97941493Y-83657691D01*
X97937310Y-83656482D01*
X97876879Y-83651328D01*
X97848871Y-83648569D01*
X97844538Y-83648569D01*
X97807772Y-83645433D01*
X97747501Y-83652167D01*
X97687069Y-83658119D01*
X97682894Y-83659386D01*
X97678567Y-83659869D01*
X97647522Y-83669732D01*
X84016444Y-86567092D01*
X83984073Y-86570709D01*
X83953029Y-86580571D01*
X83953026Y-86580572D01*
X83860166Y-86610073D01*
X83746321Y-86672855D01*
X83646912Y-86756639D01*
X83565758Y-86858208D01*
X83505978Y-86973658D01*
X83469870Y-87098551D01*
X83458821Y-87228088D01*
X81740437Y-87228088D01*
X81743050Y-86159199D01*
X81743050Y-86159198D01*
X81746085Y-84916727D01*
X81746854Y-84602080D01*
X82137221Y-84518846D01*
X82137280Y-84518834D01*
X82780284Y-84381731D01*
X83278093Y-84275587D01*
X83278122Y-84275581D01*
X84117584Y-84096588D01*
X85400331Y-83823075D01*
X85400341Y-83823072D01*
X86819222Y-83520530D01*
X88006442Y-83267384D01*
X102092430Y-83267384D01*
X102092430Y-83267393D01*
X102096168Y-83300842D01*
X102106866Y-83396589D01*
X102116733Y-83427646D01*
X105014346Y-97058732D01*
X105017962Y-97091090D01*
X105027821Y-97122122D01*
X105027825Y-97122140D01*
X105057328Y-97214999D01*
X105120112Y-97328842D01*
X105203897Y-97428251D01*
X105305468Y-97509403D01*
X105420919Y-97569181D01*
X105545813Y-97605286D01*
X105644811Y-97613729D01*
X105675348Y-97616333D01*
X105675351Y-97616333D01*
X105804556Y-97601895D01*
X105835602Y-97592031D01*
X119466167Y-94694588D01*
X119498532Y-94690972D01*
X119529576Y-94681109D01*
X119529587Y-94681107D01*
X119622446Y-94651605D01*
X119736290Y-94588822D01*
X119835699Y-94505037D01*
X119898942Y-94425881D01*
X119916847Y-94403472D01*
X119916848Y-94403469D01*
X119916851Y-94403466D01*
X119976630Y-94288016D01*
X119998835Y-94211204D01*
X120012734Y-94163129D01*
X120013972Y-94148621D01*
X120021279Y-94062946D01*
X120023783Y-94033591D01*
X120023783Y-94033584D01*
X120016245Y-93966120D01*
X143317731Y-93966120D01*
X143332168Y-94095325D01*
X143342031Y-94126371D01*
X146239392Y-107757456D01*
X146243008Y-107789820D01*
X146252867Y-107820852D01*
X146252869Y-107820862D01*
X146282370Y-107913722D01*
X146345152Y-108027566D01*
X146428936Y-108126976D01*
X146530505Y-108208130D01*
X146645955Y-108267910D01*
X146645960Y-108267911D01*
X146645961Y-108267912D01*
X146679099Y-108277492D01*
X146770848Y-108304018D01*
X146770852Y-108304018D01*
X146770854Y-108304019D01*
X146839995Y-108309916D01*
X146900386Y-108315067D01*
X146900391Y-108315067D01*
X146997222Y-108304248D01*
X146997226Y-108304247D01*
X147029591Y-108300631D01*
X147060634Y-108290769D01*
X160691223Y-105393406D01*
X160723578Y-105389791D01*
X160754612Y-105379932D01*
X160754630Y-105379928D01*
X160847489Y-105350426D01*
X160951616Y-105293002D01*
X160961330Y-105287645D01*
X160961331Y-105287644D01*
X160961333Y-105287643D01*
X161060743Y-105203858D01*
X161141896Y-105102289D01*
X161201675Y-104986838D01*
X161216904Y-104934161D01*
X161237781Y-104861949D01*
X161248830Y-104732411D01*
X161238011Y-104635580D01*
X161238011Y-104635578D01*
X161234393Y-104603202D01*
X161224531Y-104572160D01*
X158328073Y-90945327D01*
X158325304Y-90917213D01*
X158324037Y-90913035D01*
X158323553Y-90908707D01*
X158313691Y-90877665D01*
X158305186Y-90850892D01*
X158287564Y-90792803D01*
X158285510Y-90788961D01*
X158284190Y-90784805D01*
X158254897Y-90731686D01*
X158226279Y-90678146D01*
X158223511Y-90674773D01*
X158221408Y-90670960D01*
X158182331Y-90624595D01*
X158143802Y-90577648D01*
X158140431Y-90574881D01*
X158137624Y-90571551D01*
X158137620Y-90571547D01*
X158092228Y-90535279D01*
X158090260Y-90533707D01*
X158043304Y-90495171D01*
X158039455Y-90493114D01*
X158036055Y-90490397D01*
X158036051Y-90490395D01*
X158036050Y-90490394D01*
X157982228Y-90462526D01*
X157928647Y-90433886D01*
X157924473Y-90432620D01*
X157920605Y-90430617D01*
X157920602Y-90430616D01*
X157920600Y-90430615D01*
X157862353Y-90413776D01*
X157804237Y-90396146D01*
X157799895Y-90395718D01*
X157795712Y-90394509D01*
X157795710Y-90394509D01*
X157795707Y-90394508D01*
X157735273Y-90389354D01*
X157707273Y-90386596D01*
X157702941Y-90386596D01*
X157666175Y-90383460D01*
X157666169Y-90383460D01*
X157608638Y-90389889D01*
X157605912Y-90390193D01*
X157545471Y-90396146D01*
X157541295Y-90397413D01*
X157536970Y-90397896D01*
X157505919Y-90407760D01*
X143875348Y-93305120D01*
X143842983Y-93308736D01*
X143811940Y-93318598D01*
X143811931Y-93318600D01*
X143760479Y-93334947D01*
X143719076Y-93348100D01*
X143719073Y-93348102D01*
X143719072Y-93348102D01*
X143695634Y-93361028D01*
X143605231Y-93410882D01*
X143505822Y-93494666D01*
X143505818Y-93494670D01*
X143474023Y-93534464D01*
X143424668Y-93596235D01*
X143424666Y-93596239D01*
X143424665Y-93596240D01*
X143401390Y-93641190D01*
X143364888Y-93711685D01*
X143364887Y-93711688D01*
X143364886Y-93711690D01*
X143347219Y-93772799D01*
X143342679Y-93788505D01*
X143328779Y-93836583D01*
X143317731Y-93966120D01*
X120016245Y-93966120D01*
X120009346Y-93904379D01*
X119999482Y-93873333D01*
X117103026Y-80246591D01*
X117100257Y-80218479D01*
X117098991Y-80214305D01*
X117098507Y-80209975D01*
X117080136Y-80152151D01*
X117062517Y-80094069D01*
X117060462Y-80090225D01*
X117059142Y-80086069D01*
X117029846Y-80032946D01*
X117001232Y-79979412D01*
X116998464Y-79976039D01*
X116996360Y-79972224D01*
X116957258Y-79925830D01*
X116918755Y-79878914D01*
X116915386Y-79876149D01*
X116912576Y-79872815D01*
X116865175Y-79834942D01*
X116818257Y-79796437D01*
X116814410Y-79794381D01*
X116811006Y-79791661D01*
X116757148Y-79763774D01*
X116703600Y-79735152D01*
X116699428Y-79733886D01*
X116695557Y-79731882D01*
X116637295Y-79715038D01*
X116579190Y-79697412D01*
X116574847Y-79696984D01*
X116570664Y-79695775D01*
X116510237Y-79690621D01*
X116482226Y-79687862D01*
X116477893Y-79687862D01*
X116441127Y-79684726D01*
X116441125Y-79684726D01*
X116380845Y-79691461D01*
X116320424Y-79697412D01*
X116316249Y-79698679D01*
X116311922Y-79699162D01*
X116280878Y-79709025D01*
X102650052Y-82606385D01*
X102617670Y-82610004D01*
X102560421Y-82628193D01*
X102493773Y-82649367D01*
X102493768Y-82649370D01*
X102493764Y-82649371D01*
X102441620Y-82678128D01*
X102379928Y-82712149D01*
X102379924Y-82712152D01*
X102379921Y-82712154D01*
X102344610Y-82741916D01*
X102280519Y-82795934D01*
X102280517Y-82795937D01*
X102280513Y-82795940D01*
X102244721Y-82840737D01*
X102199365Y-82897503D01*
X102199362Y-82897508D01*
X102199360Y-82897511D01*
X102165581Y-82962750D01*
X102139586Y-83012953D01*
X102139585Y-83012956D01*
X102139582Y-83012962D01*
X102114343Y-83100269D01*
X102103479Y-83137847D01*
X102103479Y-83137850D01*
X102103477Y-83137856D01*
X102098868Y-83191904D01*
X102092430Y-83267384D01*
X88006442Y-83267384D01*
X89102932Y-83033584D01*
X89102961Y-83033578D01*
X92227344Y-82367376D01*
X95100900Y-81754655D01*
X98309455Y-81070503D01*
X98309457Y-81070502D01*
X98772798Y-80971706D01*
X98804175Y-80968277D01*
X98928176Y-80929212D01*
X99042173Y-80866706D01*
X99141785Y-80783163D01*
X99223184Y-80681790D01*
X99283243Y-80566485D01*
X99319653Y-80441679D01*
X99331015Y-80312169D01*
X99320431Y-80215312D01*
X99129591Y-79306672D01*
X120726124Y-79306672D01*
X120740559Y-79435877D01*
X120750424Y-79466929D01*
X123647784Y-93098012D01*
X123651400Y-93130375D01*
X123661259Y-93161408D01*
X123661262Y-93161421D01*
X123690763Y-93254281D01*
X123753545Y-93368125D01*
X123837329Y-93467535D01*
X123938898Y-93548689D01*
X123938900Y-93548690D01*
X124054350Y-93608470D01*
X124107027Y-93623699D01*
X124179241Y-93644577D01*
X124308779Y-93655626D01*
X124308780Y-93655626D01*
X124405611Y-93644807D01*
X124437984Y-93641190D01*
X124469031Y-93631327D01*
X138100459Y-90733882D01*
X138132819Y-90730266D01*
X138163850Y-90720407D01*
X138163866Y-90720404D01*
X138256725Y-90690902D01*
X138370570Y-90628121D01*
X138469979Y-90544337D01*
X138530718Y-90468318D01*
X138551134Y-90442766D01*
X138610914Y-90327316D01*
X138647021Y-90202423D01*
X138658070Y-90072885D01*
X138647251Y-89976054D01*
X138643634Y-89943681D01*
X138633771Y-89912637D01*
X135737313Y-76285885D01*
X135734544Y-76257773D01*
X135733278Y-76253600D01*
X135732795Y-76249275D01*
X135722932Y-76218230D01*
X135722931Y-76218224D01*
X135714427Y-76191457D01*
X135696804Y-76133363D01*
X135694750Y-76129521D01*
X135693431Y-76125368D01*
X135664143Y-76072257D01*
X135635519Y-76018706D01*
X135632752Y-76015334D01*
X135630650Y-76011523D01*
X135630649Y-76011522D01*
X135630648Y-76011520D01*
X135606959Y-75983413D01*
X135591558Y-75965140D01*
X135553042Y-75918208D01*
X135549675Y-75915445D01*
X135546867Y-75912113D01*
X135499460Y-75874234D01*
X135452544Y-75835731D01*
X135448700Y-75833677D01*
X135445298Y-75830958D01*
X135391432Y-75803066D01*
X135337887Y-75774446D01*
X135333715Y-75773181D01*
X135329848Y-75771178D01*
X135329844Y-75771176D01*
X135271582Y-75754332D01*
X135213477Y-75736706D01*
X135209134Y-75736278D01*
X135204955Y-75735070D01*
X135204954Y-75735070D01*
X135204951Y-75735069D01*
X135144524Y-75729915D01*
X135116513Y-75727156D01*
X135112180Y-75727156D01*
X135109917Y-75726963D01*
X135075417Y-75724020D01*
X135075414Y-75724020D01*
X135039363Y-75728048D01*
X135015133Y-75730755D01*
X134954711Y-75736706D01*
X134950536Y-75737973D01*
X134946209Y-75738456D01*
X134915168Y-75748318D01*
X121283746Y-78645679D01*
X121251376Y-78649296D01*
X121220335Y-78659157D01*
X121220332Y-78659158D01*
X121148379Y-78682017D01*
X121127469Y-78688660D01*
X121052971Y-78729743D01*
X121013627Y-78751440D01*
X121013626Y-78751441D01*
X121013624Y-78751442D01*
X120914215Y-78835226D01*
X120833061Y-78936795D01*
X120823769Y-78954741D01*
X120773282Y-79052242D01*
X120773281Y-79052244D01*
X120773281Y-79052245D01*
X120737173Y-79177138D01*
X120728952Y-79273525D01*
X120726124Y-79306672D01*
X99129591Y-79306672D01*
X96045009Y-64620225D01*
X98128930Y-64620225D01*
X98143366Y-64749430D01*
X98153230Y-64780478D01*
X101050590Y-78411564D01*
X101054206Y-78443925D01*
X101064065Y-78474959D01*
X101064068Y-78474972D01*
X101093569Y-78567832D01*
X101156351Y-78681676D01*
X101240135Y-78781086D01*
X101341704Y-78862240D01*
X101457154Y-78922020D01*
X101582047Y-78958128D01*
X101711585Y-78969177D01*
X101840790Y-78954741D01*
X101871839Y-78944877D01*
X111990779Y-76794042D01*
X116895000Y-76794042D01*
X116895000Y-77125958D01*
X116959754Y-77451496D01*
X117086772Y-77758147D01*
X117271175Y-78034125D01*
X117505875Y-78268825D01*
X117781853Y-78453228D01*
X118088504Y-78580246D01*
X118414042Y-78645000D01*
X118745958Y-78645000D01*
X119071496Y-78580246D01*
X119378147Y-78453228D01*
X119654125Y-78268825D01*
X119888825Y-78034125D01*
X120073228Y-77758147D01*
X120200246Y-77451496D01*
X120265000Y-77125958D01*
X120265000Y-76794042D01*
X120200246Y-76468504D01*
X120073228Y-76161853D01*
X119888825Y-75885875D01*
X119654125Y-75651175D01*
X119378147Y-75466772D01*
X119086499Y-75345968D01*
X139359564Y-75345968D01*
X139362821Y-75375115D01*
X139373999Y-75475170D01*
X139383864Y-75506222D01*
X142281223Y-89137303D01*
X142284839Y-89169665D01*
X142294699Y-89200703D01*
X142294702Y-89200715D01*
X142324203Y-89293575D01*
X142386985Y-89407419D01*
X142470769Y-89506829D01*
X142572338Y-89587983D01*
X142687788Y-89647763D01*
X142812681Y-89683871D01*
X142907950Y-89691997D01*
X142942216Y-89694920D01*
X142942219Y-89694920D01*
X142979450Y-89690760D01*
X143039047Y-89684102D01*
X143039052Y-89684101D01*
X143071424Y-89680484D01*
X143102466Y-89670622D01*
X156733898Y-86773260D01*
X156766258Y-86769644D01*
X156797289Y-86759786D01*
X156797302Y-86759783D01*
X156890162Y-86730282D01*
X157004007Y-86667501D01*
X157103417Y-86583717D01*
X157184572Y-86482148D01*
X157244352Y-86366699D01*
X157280460Y-86241806D01*
X157280460Y-86241805D01*
X157280461Y-86241802D01*
X157291510Y-86112264D01*
X157286002Y-86062965D01*
X157277075Y-85983063D01*
X157267211Y-85952013D01*
X154370753Y-72325180D01*
X154367984Y-72297066D01*
X154366718Y-72292893D01*
X154366235Y-72288568D01*
X154347869Y-72230758D01*
X154330244Y-72172656D01*
X154328190Y-72168814D01*
X154326871Y-72164661D01*
X154326870Y-72164658D01*
X154297577Y-72111539D01*
X154268959Y-72057999D01*
X154266192Y-72054627D01*
X154264090Y-72050816D01*
X154264089Y-72050815D01*
X154264088Y-72050813D01*
X154225011Y-72004448D01*
X154186482Y-71957501D01*
X154183115Y-71954738D01*
X154180307Y-71951406D01*
X154132900Y-71913527D01*
X154085984Y-71875024D01*
X154082140Y-71872970D01*
X154078738Y-71870251D01*
X154024872Y-71842359D01*
X153971327Y-71813739D01*
X153967155Y-71812474D01*
X153963288Y-71810471D01*
X153963285Y-71810470D01*
X153905039Y-71793630D01*
X153846917Y-71775999D01*
X153842575Y-71775571D01*
X153838392Y-71774362D01*
X153777958Y-71769207D01*
X153749953Y-71766449D01*
X153745621Y-71766449D01*
X153733016Y-71765374D01*
X153708857Y-71763313D01*
X153708855Y-71763313D01*
X153680787Y-71766449D01*
X153648573Y-71770048D01*
X153588151Y-71775999D01*
X153583975Y-71777266D01*
X153579650Y-71777749D01*
X153548608Y-71787611D01*
X139917186Y-74684972D01*
X139884816Y-74688589D01*
X139853775Y-74698450D01*
X139853772Y-74698451D01*
X139782877Y-74720974D01*
X139760909Y-74727953D01*
X139686411Y-74769036D01*
X139647067Y-74790733D01*
X139647066Y-74790734D01*
X139647064Y-74790735D01*
X139547655Y-74874519D01*
X139466501Y-74976088D01*
X139455336Y-74997651D01*
X139406722Y-75091535D01*
X139406721Y-75091537D01*
X139406721Y-75091538D01*
X139370613Y-75216431D01*
X139363023Y-75305413D01*
X139359594Y-75345620D01*
X139359564Y-75345968D01*
X119086499Y-75345968D01*
X119071496Y-75339754D01*
X118745958Y-75275000D01*
X118414042Y-75275000D01*
X118088504Y-75339754D01*
X117781853Y-75466772D01*
X117505875Y-75651175D01*
X117271175Y-75885875D01*
X117086772Y-76161853D01*
X116959754Y-76468504D01*
X116895000Y-76794042D01*
X111990779Y-76794042D01*
X115502923Y-76047517D01*
X115535284Y-76043901D01*
X115566318Y-76034042D01*
X115566331Y-76034039D01*
X115659191Y-76004538D01*
X115773035Y-75941756D01*
X115872445Y-75857972D01*
X115953599Y-75756403D01*
X116013379Y-75640953D01*
X116049487Y-75516060D01*
X116060536Y-75386522D01*
X116060334Y-75384709D01*
X116049717Y-75289690D01*
X116046100Y-75257317D01*
X116036237Y-75226270D01*
X113139779Y-61599437D01*
X113137010Y-61571323D01*
X113135743Y-61567147D01*
X113135260Y-61562822D01*
X113116896Y-61505018D01*
X113099270Y-61446913D01*
X113097216Y-61443071D01*
X113095896Y-61438915D01*
X113066603Y-61385796D01*
X113037985Y-61332256D01*
X113035217Y-61328883D01*
X113033114Y-61325070D01*
X112994037Y-61278705D01*
X112955508Y-61231758D01*
X112952137Y-61228991D01*
X112949330Y-61225661D01*
X112901966Y-61187817D01*
X112855010Y-61149281D01*
X112851161Y-61147224D01*
X112847761Y-61144507D01*
X112793931Y-61116634D01*
X112740353Y-61087996D01*
X112736179Y-61086730D01*
X112732311Y-61084727D01*
X112674065Y-61067887D01*
X112615943Y-61050256D01*
X112611601Y-61049828D01*
X112607418Y-61048619D01*
X112546984Y-61043464D01*
X112518979Y-61040706D01*
X112514647Y-61040706D01*
X112477881Y-61037570D01*
X112477880Y-61037570D01*
X112449813Y-61040706D01*
X112417618Y-61044303D01*
X112357177Y-61050256D01*
X112353001Y-61051523D01*
X112348676Y-61052006D01*
X112317629Y-61061869D01*
X98686553Y-63959229D01*
X98654182Y-63962846D01*
X98623138Y-63972708D01*
X98623135Y-63972709D01*
X98530275Y-64002210D01*
X98416430Y-64064992D01*
X98317021Y-64148776D01*
X98235867Y-64250345D01*
X98176087Y-64365795D01*
X98139979Y-64490688D01*
X98128930Y-64620225D01*
X96045009Y-64620225D01*
X95019654Y-59738259D01*
X95458247Y-59014042D01*
X96325000Y-59014042D01*
X96325000Y-59345958D01*
X96389754Y-59671496D01*
X96516772Y-59978147D01*
X96701175Y-60254125D01*
X96935875Y-60488825D01*
X97211853Y-60673228D01*
X97518504Y-60800246D01*
X97844042Y-60865000D01*
X98175958Y-60865000D01*
X98501496Y-60800246D01*
X98808147Y-60673228D01*
X98828656Y-60659524D01*
X116762878Y-60659524D01*
X116771632Y-60737865D01*
X116773146Y-60751414D01*
X116777315Y-60788729D01*
X116787178Y-60819775D01*
X119684539Y-74450859D01*
X119688155Y-74483223D01*
X119698014Y-74514255D01*
X119698016Y-74514265D01*
X119727517Y-74607125D01*
X119790299Y-74720969D01*
X119874083Y-74820379D01*
X119975652Y-74901533D01*
X120091102Y-74961313D01*
X120091107Y-74961314D01*
X120091108Y-74961315D01*
X120124246Y-74970895D01*
X120215995Y-74997421D01*
X120215999Y-74997421D01*
X120216001Y-74997422D01*
X120285142Y-75003319D01*
X120345533Y-75008470D01*
X120345538Y-75008470D01*
X120442369Y-74997651D01*
X120442373Y-74997650D01*
X120474738Y-74994034D01*
X120505781Y-74984172D01*
X134136369Y-72086809D01*
X134168724Y-72083194D01*
X134199758Y-72073335D01*
X134199776Y-72073331D01*
X134292635Y-72043829D01*
X134388986Y-71990693D01*
X134406476Y-71981048D01*
X134406477Y-71981047D01*
X134406479Y-71981046D01*
X134459013Y-71936769D01*
X134505885Y-71897264D01*
X134505888Y-71897261D01*
X134587042Y-71795692D01*
X134646821Y-71680241D01*
X134669028Y-71603425D01*
X134682927Y-71555351D01*
X134693976Y-71425814D01*
X134683157Y-71328983D01*
X134683157Y-71328981D01*
X134679539Y-71296605D01*
X134669677Y-71265563D01*
X131773219Y-57638731D01*
X131770450Y-57610617D01*
X131769183Y-57606439D01*
X131768699Y-57602111D01*
X131758837Y-57571069D01*
X131750332Y-57544296D01*
X131732710Y-57486207D01*
X131730656Y-57482365D01*
X131729336Y-57478209D01*
X131700043Y-57425090D01*
X131671425Y-57371550D01*
X131668657Y-57368177D01*
X131666554Y-57364364D01*
X131648085Y-57342450D01*
X131635443Y-57327451D01*
X131627477Y-57317999D01*
X131588948Y-57271052D01*
X131585577Y-57268285D01*
X131582770Y-57264955D01*
X131582766Y-57264951D01*
X131537374Y-57228683D01*
X131535406Y-57227111D01*
X131488450Y-57188575D01*
X131484601Y-57186518D01*
X131481201Y-57183801D01*
X131481197Y-57183799D01*
X131481196Y-57183798D01*
X131433746Y-57159229D01*
X131427371Y-57155928D01*
X131373793Y-57127290D01*
X131369619Y-57126024D01*
X131365751Y-57124021D01*
X131365748Y-57124020D01*
X131365746Y-57124019D01*
X131312030Y-57108489D01*
X131307505Y-57107181D01*
X131249383Y-57089550D01*
X131245041Y-57089122D01*
X131240858Y-57087913D01*
X131240854Y-57087913D01*
X131240852Y-57087912D01*
X131182579Y-57082942D01*
X131180424Y-57082758D01*
X131152419Y-57080000D01*
X131148087Y-57080000D01*
X131111321Y-57076864D01*
X131111314Y-57076864D01*
X131051057Y-57083597D01*
X130990617Y-57089550D01*
X130986441Y-57090817D01*
X130982116Y-57091300D01*
X130951065Y-57101164D01*
X117320495Y-59998524D01*
X117288130Y-60002140D01*
X117257087Y-60012002D01*
X117257078Y-60012004D01*
X117208895Y-60027312D01*
X117164223Y-60041504D01*
X117164220Y-60041506D01*
X117164219Y-60041506D01*
X117154973Y-60046605D01*
X117050378Y-60104286D01*
X117050375Y-60104288D01*
X117050374Y-60104289D01*
X117023650Y-60126813D01*
X116950969Y-60188070D01*
X116950965Y-60188074D01*
X116916936Y-60230664D01*
X116869815Y-60289639D01*
X116869813Y-60289643D01*
X116869812Y-60289644D01*
X116845842Y-60335937D01*
X116810035Y-60405089D01*
X116810034Y-60405092D01*
X116810033Y-60405094D01*
X116791516Y-60469143D01*
X116776161Y-60522257D01*
X116773926Y-60529987D01*
X116768552Y-60592993D01*
X116762898Y-60659295D01*
X116762878Y-60659524D01*
X98828656Y-60659524D01*
X99084125Y-60488825D01*
X99318825Y-60254125D01*
X99503228Y-59978147D01*
X99630246Y-59671496D01*
X99695000Y-59345958D01*
X99695000Y-59014042D01*
X99630246Y-58688504D01*
X99503228Y-58381853D01*
X99318825Y-58105875D01*
X99084125Y-57871175D01*
X98808147Y-57686772D01*
X98501496Y-57559754D01*
X98175958Y-57495000D01*
X97844042Y-57495000D01*
X97518504Y-57559754D01*
X97211853Y-57686772D01*
X96935875Y-57871175D01*
X96701175Y-58105875D01*
X96516772Y-58381853D01*
X96389754Y-58688504D01*
X96325000Y-59014042D01*
X95458247Y-59014042D01*
X96786786Y-56820322D01*
X97431463Y-56698817D01*
X135396318Y-56698817D01*
X135410755Y-56828022D01*
X135420618Y-56859068D01*
X138317977Y-70490147D01*
X138321593Y-70522509D01*
X138331453Y-70553547D01*
X138331456Y-70553559D01*
X138360957Y-70646419D01*
X138423739Y-70760263D01*
X138507523Y-70859673D01*
X138609092Y-70940827D01*
X138724542Y-71000607D01*
X138849435Y-71036715D01*
X138948428Y-71045159D01*
X138978970Y-71047764D01*
X138978973Y-71047764D01*
X139016204Y-71043604D01*
X139075801Y-71036946D01*
X139075806Y-71036945D01*
X139108178Y-71033328D01*
X139139220Y-71023466D01*
X152770668Y-68126100D01*
X152803049Y-68122480D01*
X152845456Y-68109005D01*
X152926914Y-68083126D01*
X152926938Y-68083113D01*
X152926953Y-68083108D01*
X152970321Y-68059189D01*
X153040759Y-68020345D01*
X153040779Y-68020329D01*
X153040794Y-68020320D01*
X153084574Y-67983418D01*
X153140169Y-67936561D01*
X153140183Y-67936544D01*
X153140199Y-67936530D01*
X153178803Y-67888209D01*
X153221324Y-67834992D01*
X153221335Y-67834972D01*
X153221347Y-67834956D01*
X153248519Y-67782472D01*
X153281104Y-67719543D01*
X153281111Y-67719520D01*
X153281120Y-67719502D01*
X153298570Y-67659132D01*
X153317212Y-67594650D01*
X153317214Y-67594628D01*
X153317220Y-67594607D01*
X153322484Y-67532841D01*
X153328262Y-67465112D01*
X153328259Y-67465088D01*
X153328261Y-67465068D01*
X153321185Y-67401763D01*
X153313827Y-67335907D01*
X153303958Y-67304842D01*
X150406656Y-53678004D01*
X150403889Y-53649910D01*
X150402622Y-53645732D01*
X150402138Y-53641404D01*
X150392271Y-53610347D01*
X150392266Y-53610324D01*
X150383767Y-53583578D01*
X150366149Y-53525500D01*
X150364091Y-53521650D01*
X150362772Y-53517498D01*
X150362765Y-53517486D01*
X150362759Y-53517466D01*
X150333481Y-53464382D01*
X150304864Y-53410843D01*
X150302093Y-53407467D01*
X150299990Y-53403653D01*
X150299980Y-53403641D01*
X150299971Y-53403625D01*
X150260894Y-53357265D01*
X150222387Y-53310345D01*
X150219014Y-53307577D01*
X150216205Y-53304244D01*
X150216193Y-53304235D01*
X150216181Y-53304220D01*
X150168801Y-53266367D01*
X150121889Y-53227868D01*
X150118037Y-53225809D01*
X150114635Y-53223091D01*
X150114623Y-53223085D01*
X150114607Y-53223072D01*
X150060769Y-53195199D01*
X150007232Y-53166583D01*
X150003055Y-53165316D01*
X149999185Y-53163312D01*
X149999169Y-53163307D01*
X149999153Y-53163299D01*
X149940923Y-53146468D01*
X149882822Y-53128843D01*
X149878476Y-53128415D01*
X149874291Y-53127205D01*
X149874274Y-53127204D01*
X149874258Y-53127199D01*
X149815309Y-53122175D01*
X149813864Y-53122051D01*
X149785858Y-53119293D01*
X149781523Y-53119293D01*
X149744753Y-53116157D01*
X149744734Y-53116159D01*
X149744720Y-53116158D01*
X149684485Y-53122891D01*
X149624056Y-53128843D01*
X149619862Y-53130115D01*
X149615516Y-53130601D01*
X149584484Y-53140462D01*
X135953935Y-56037817D01*
X135921570Y-56041433D01*
X135890527Y-56051295D01*
X135890518Y-56051297D01*
X135839066Y-56067644D01*
X135797663Y-56080797D01*
X135683818Y-56143579D01*
X135584409Y-56227363D01*
X135584405Y-56227367D01*
X135548137Y-56272759D01*
X135503255Y-56328932D01*
X135443475Y-56444382D01*
X135443474Y-56444385D01*
X135443473Y-56444387D01*
X135434928Y-56473945D01*
X135415689Y-56540492D01*
X135407366Y-56569280D01*
X135396318Y-56698817D01*
X97431463Y-56698817D01*
X126638545Y-51194042D01*
X154545000Y-51194042D01*
X154545000Y-51525958D01*
X154609754Y-51851496D01*
X154736772Y-52158147D01*
X154921175Y-52434125D01*
X155155875Y-52668825D01*
X155431853Y-52853228D01*
X155738504Y-52980246D01*
X156064042Y-53045000D01*
X156395958Y-53045000D01*
X156721496Y-52980246D01*
X157028147Y-52853228D01*
X157304125Y-52668825D01*
X157538825Y-52434125D01*
X157723228Y-52158147D01*
X157850246Y-51851496D01*
X157915000Y-51525958D01*
X157915000Y-51194042D01*
X157850246Y-50868504D01*
X157723228Y-50561853D01*
X157538825Y-50285875D01*
X157304125Y-50051175D01*
X157028147Y-49866772D01*
X156721496Y-49739754D01*
X156395958Y-49675000D01*
X156064042Y-49675000D01*
X155738504Y-49739754D01*
X155431853Y-49866772D01*
X155155875Y-50051175D01*
X154921175Y-50285875D01*
X154736772Y-50561853D01*
X154609754Y-50868504D01*
X154545000Y-51194042D01*
X126638545Y-51194042D01*
X152726783Y-46277088D01*
X174438407Y-46277088D01*
X174438407Y-66024440D01*
G36*
X170333556Y-148148346D02*
G01*
X170005118Y-148197832D01*
X170068825Y-148134125D01*
X170253228Y-147858147D01*
X170337054Y-147655771D01*
X170333556Y-148148346D01*
G37*
X170333556Y-148148346D02*
X170005118Y-148197832D01*
X170068825Y-148134125D01*
X170253228Y-147858147D01*
X170337054Y-147655771D01*
X170333556Y-148148346D01*
M02*
