G04 #@! TF.GenerationSoftware,KiCad,Pcbnew,(5.1.5-0-10_14)*
G04 #@! TF.CreationDate,2020-05-14T05:38:48+09:00*
G04 #@! TF.ProjectId,N-key-v02,4e2d6b65-792d-4763-9032-2e6b69636164,rev?*
G04 #@! TF.SameCoordinates,Original*
G04 #@! TF.FileFunction,Legend,Top*
G04 #@! TF.FilePolarity,Positive*
%FSLAX46Y46*%
G04 Gerber Fmt 4.6, Leading zero omitted, Abs format (unit mm)*
G04 Created by KiCad (PCBNEW (5.1.5-0-10_14)) date 2020-05-14 05:38:48*
%MOMM*%
%LPD*%
G04 APERTURE LIST*
%ADD10C,0.300000*%
G04 APERTURE END LIST*
D10*
X102368293Y-57378511D02*
X103416309Y-57155748D01*
X102653842Y-56660597D02*
X102635608Y-58636129D01*
X103410231Y-57814259D02*
X102362215Y-58037022D01*
X103124682Y-58532173D02*
X103142916Y-56556641D01*
X104922005Y-57711995D02*
X104866988Y-57796713D01*
X104672236Y-57911133D01*
X104532500Y-57940835D01*
X104308046Y-57915520D01*
X104138609Y-57805486D01*
X104039040Y-57680602D01*
X103909769Y-57415982D01*
X103865216Y-57206379D01*
X103875681Y-56912057D01*
X103915847Y-56757471D01*
X104025880Y-56588034D01*
X104220633Y-56473614D01*
X104360368Y-56443912D01*
X104584822Y-56469227D01*
X104669540Y-56524244D01*
X105790119Y-57673520D02*
X105635532Y-57633354D01*
X105550814Y-57578337D01*
X105451244Y-57453453D01*
X105362139Y-57034246D01*
X105402305Y-56879660D01*
X105457322Y-56794942D01*
X105582207Y-56695372D01*
X105791810Y-56650820D01*
X105946396Y-56690986D01*
X106031115Y-56746003D01*
X106130684Y-56870887D01*
X106219789Y-57290093D01*
X106179623Y-57444680D01*
X106124606Y-57529398D01*
X105999722Y-57628967D01*
X105790119Y-57673520D01*
X107117605Y-57391354D02*
X106963018Y-57351188D01*
X106863449Y-57226304D01*
X106596134Y-55968685D01*
X107676546Y-57272547D02*
X107468634Y-56294400D01*
X107364678Y-55805326D02*
X107309662Y-55890045D01*
X107394380Y-55945061D01*
X107449397Y-55860343D01*
X107364678Y-55805326D01*
X107394380Y-55945061D01*
X108989181Y-56920514D02*
X108864297Y-57020083D01*
X108584826Y-57079487D01*
X108430240Y-57039321D01*
X108345521Y-56984304D01*
X108245952Y-56859419D01*
X108156847Y-56440213D01*
X108197013Y-56285627D01*
X108252030Y-56200908D01*
X108376914Y-56101339D01*
X108656385Y-56041936D01*
X108810971Y-56082102D01*
X110176932Y-56668050D02*
X110052047Y-56767619D01*
X109772577Y-56827022D01*
X109617990Y-56786856D01*
X109518421Y-56661972D01*
X109399614Y-56103030D01*
X109439780Y-55948444D01*
X109564665Y-55848875D01*
X109844136Y-55789471D01*
X109998722Y-55829637D01*
X110098291Y-55954522D01*
X110127993Y-56094257D01*
X109459018Y-56382501D01*
X112768114Y-55460058D02*
X112683396Y-55405041D01*
X112528809Y-55364875D01*
X112389074Y-55394577D01*
X112264189Y-55494146D01*
X112209173Y-55578865D01*
X112169007Y-55733451D01*
X112198708Y-55873186D01*
X112298278Y-55998071D01*
X112382996Y-56053088D01*
X112537582Y-56093254D01*
X112677318Y-56063552D01*
X112802202Y-55963983D01*
X112857219Y-55879264D01*
X112738412Y-55320323D02*
X112857219Y-55879264D01*
X112941938Y-55934281D01*
X113011805Y-55919430D01*
X113136690Y-55819861D01*
X113176856Y-55665275D01*
X113102602Y-55315936D01*
X112918314Y-55136035D01*
X112679009Y-55040852D01*
X112384688Y-55030387D01*
X112120068Y-55159659D01*
X111940166Y-55343946D01*
X111844983Y-55583251D01*
X111834519Y-55877573D01*
X111963790Y-56142193D01*
X112148078Y-56322094D01*
X112387383Y-56417277D01*
X112681704Y-56427741D01*
X112946324Y-56298470D01*
X113126226Y-56114182D01*
X113686858Y-54972676D02*
X113954173Y-56230294D01*
X113914007Y-56384880D01*
X113789123Y-56484449D01*
X113719255Y-56499300D01*
X113582903Y-54483602D02*
X113527886Y-54568320D01*
X113612604Y-54623337D01*
X113667621Y-54538619D01*
X113582903Y-54483602D01*
X113612604Y-54623337D01*
X114385535Y-54824167D02*
X114697403Y-56291389D01*
X114400386Y-54894035D02*
X114525271Y-54794465D01*
X114804741Y-54735062D01*
X114959328Y-54775228D01*
X115044046Y-54830245D01*
X115143615Y-54955130D01*
X115232720Y-55374336D01*
X115192554Y-55528922D01*
X115137538Y-55613640D01*
X115012653Y-55713210D01*
X114733182Y-55772613D01*
X114578596Y-55732447D01*
X115836214Y-55465132D02*
X115990801Y-55505298D01*
X116270271Y-55445895D01*
X116395156Y-55346325D01*
X116435322Y-55191739D01*
X116420471Y-55121871D01*
X116320902Y-54996987D01*
X116166316Y-54956821D01*
X115956712Y-55001373D01*
X115802126Y-54961207D01*
X115702557Y-54836323D01*
X115687706Y-54766455D01*
X115727872Y-54611869D01*
X115852757Y-54512300D01*
X116062360Y-54467747D01*
X116216946Y-54507913D01*
X117108684Y-55267685D02*
X116796816Y-53800463D01*
X117129612Y-54679042D02*
X117667625Y-55148878D01*
X117459713Y-54170730D02*
X117019579Y-54848479D01*
X118840525Y-54826546D02*
X118715640Y-54926115D01*
X118436170Y-54985519D01*
X118281583Y-54945353D01*
X118182014Y-54820468D01*
X118063207Y-54261527D01*
X118103373Y-54106941D01*
X118228258Y-54007371D01*
X118507729Y-53947968D01*
X118662315Y-53988134D01*
X118761884Y-54113018D01*
X118791586Y-54252754D01*
X118122611Y-54540998D01*
X119346141Y-53769758D02*
X119554053Y-54747905D01*
X119375843Y-53909493D02*
X119430859Y-53824775D01*
X119555744Y-53725205D01*
X119765347Y-53680653D01*
X119919933Y-53720819D01*
X120019503Y-53845703D01*
X120182862Y-54614248D01*
X120673627Y-53487592D02*
X120881539Y-54465740D01*
X120703329Y-53627327D02*
X120758345Y-53542609D01*
X120883230Y-53443040D01*
X121092833Y-53398487D01*
X121247419Y-53438653D01*
X121346989Y-53563538D01*
X121510348Y-54332082D01*
X103176248Y-60836084D02*
X102864380Y-59368862D01*
X104014660Y-60657874D01*
X103702792Y-59190652D01*
X105831220Y-60271752D02*
X105519352Y-58804530D01*
X106669632Y-60093542D02*
X105862613Y-59388787D01*
X106357764Y-58626320D02*
X105697562Y-59642943D01*
X107842532Y-59771210D02*
X107717647Y-59870779D01*
X107438176Y-59930183D01*
X107283590Y-59890017D01*
X107184021Y-59765132D01*
X107065214Y-59206191D01*
X107105380Y-59051604D01*
X107230265Y-58952035D01*
X107509736Y-58892632D01*
X107664322Y-58932798D01*
X107763891Y-59057682D01*
X107793593Y-59197418D01*
X107124618Y-59485661D01*
X108208412Y-58744123D02*
X108765663Y-59648017D01*
X108907089Y-58595615D02*
X108765663Y-59648017D01*
X108700181Y-60027057D01*
X108645164Y-60111775D01*
X108520280Y-60211345D01*
X109466031Y-58476808D02*
X109777898Y-59944030D01*
X109480882Y-58546676D02*
X109605766Y-58447107D01*
X109885237Y-58387703D01*
X110039823Y-58427869D01*
X110124542Y-58482886D01*
X110224111Y-58607771D01*
X110313216Y-59026977D01*
X110273050Y-59181563D01*
X110218033Y-59266282D01*
X110093149Y-59365851D01*
X109813678Y-59425254D01*
X109659092Y-59385088D01*
X111211032Y-59128238D02*
X111056445Y-59088072D01*
X110956876Y-58963187D01*
X110689561Y-57705569D01*
X112398782Y-58875773D02*
X112235423Y-58107229D01*
X112135854Y-57982344D01*
X111981267Y-57942178D01*
X111701797Y-58001582D01*
X111576912Y-58101151D01*
X112383931Y-58805906D02*
X112259047Y-58905475D01*
X111909708Y-58979729D01*
X111755122Y-58939563D01*
X111655553Y-58814679D01*
X111625851Y-58674943D01*
X111666017Y-58520357D01*
X111790902Y-58420788D01*
X112140240Y-58346534D01*
X112265125Y-58246964D01*
X112679944Y-57793670D02*
X113238886Y-57674863D01*
X112785591Y-57260044D02*
X113052907Y-58517662D01*
X113152476Y-58642546D01*
X113307062Y-58682712D01*
X113446797Y-58653011D01*
X114479962Y-58360381D02*
X114355077Y-58459950D01*
X114075607Y-58519353D01*
X113921020Y-58479187D01*
X113821451Y-58354303D01*
X113702644Y-57795361D01*
X113742810Y-57640775D01*
X113867695Y-57541206D01*
X114147166Y-57481802D01*
X114301752Y-57521968D01*
X114401321Y-57646853D01*
X114431023Y-57786588D01*
X113762048Y-58074832D01*
X115963726Y-57095681D02*
X116520976Y-57999574D01*
X116662402Y-56947172D01*
X117399554Y-57666778D02*
X117484272Y-57721795D01*
X117429256Y-57806513D01*
X117344537Y-57751496D01*
X117399554Y-57666778D01*
X117429256Y-57806513D01*
X118095536Y-56131380D02*
X118235271Y-56101678D01*
X118389857Y-56141844D01*
X118474576Y-56196861D01*
X118574145Y-56321746D01*
X118703416Y-56586366D01*
X118777670Y-56935704D01*
X118767206Y-57230026D01*
X118727040Y-57384612D01*
X118672023Y-57469330D01*
X118547139Y-57568900D01*
X118407403Y-57598602D01*
X118252817Y-57558436D01*
X118168098Y-57503419D01*
X118068529Y-57378534D01*
X117939258Y-57113914D01*
X117865004Y-56764576D01*
X117875468Y-56470254D01*
X117915634Y-56315668D01*
X117970651Y-56230949D01*
X118095536Y-56131380D01*
X119495584Y-57221253D02*
X119580303Y-57276270D01*
X119525286Y-57360988D01*
X119440568Y-57305971D01*
X119495584Y-57221253D01*
X119525286Y-57360988D01*
X119871929Y-55899845D02*
X119926946Y-55815126D01*
X120051831Y-55715557D01*
X120401169Y-55641303D01*
X120555755Y-55681469D01*
X120640474Y-55736485D01*
X120740043Y-55861370D01*
X120769745Y-56001105D01*
X120744430Y-56225559D01*
X120084228Y-57242181D01*
X120992508Y-57049121D01*
M02*
