%FSLAX45Y45*%
G04 Gerber Fmt 4.5, Leading zero omitted, Abs format (unit mm)*
G04 Created by KiCad (PCBNEW (5.1.5-0-10_14)) date 2020-05-14 05:38:50*
%MOMM*%
%LPD*%
G04 APERTURE LIST*
%TA.AperFunction,Profile*%
%ADD10C,0.050000*%
%TD*%
%ADD11C,0.200000*%
%ADD12C,0.300000*%
G04 APERTURE END LIST*
D10*
X17493839Y-6668444D02*
X17498243Y-6667826D01*
X17498243Y-6667826D02*
X17501781Y-6666328D01*
X17501781Y-6666328D02*
X17504669Y-6664210D01*
X17504669Y-6664210D02*
X17507004Y-6661528D01*
X17507004Y-6661528D02*
X17508749Y-6658253D01*
X17508749Y-6658253D02*
X17509745Y-6654198D01*
X17509745Y-6654198D02*
X17509841Y-6652442D01*
X16876026Y-14805994D02*
X16871107Y-14805876D01*
X16871107Y-14805876D02*
X16866428Y-14805542D01*
X16866428Y-14805542D02*
X16861889Y-14805009D01*
X16861889Y-14805009D02*
X16857588Y-14804308D01*
X16857588Y-14804308D02*
X16853313Y-14803419D01*
X16853313Y-14803419D02*
X16849107Y-14802351D01*
X16849107Y-14802351D02*
X16845120Y-14801156D01*
X16845120Y-14801156D02*
X16841062Y-14799749D01*
X16841062Y-14799749D02*
X16837455Y-14798329D01*
X16837455Y-14798329D02*
X16833642Y-14796648D01*
X16833642Y-14796648D02*
X16830201Y-14794963D01*
X16830201Y-14794963D02*
X16826770Y-14793115D01*
X16826770Y-14793115D02*
X16823485Y-14791179D01*
X16823485Y-14791179D02*
X16820313Y-14789144D01*
X16820313Y-14789144D02*
X16817316Y-14787060D01*
X16817316Y-14787060D02*
X16814342Y-14784826D01*
X16814342Y-14784826D02*
X16811426Y-14782461D01*
X16811426Y-14782461D02*
X16808742Y-14780116D01*
X16808742Y-14780116D02*
X16806089Y-14777626D01*
X16806089Y-14777626D02*
X16803554Y-14775070D01*
X16803554Y-14775070D02*
X16801051Y-14772353D01*
X16801051Y-14772353D02*
X16798671Y-14769575D01*
X16798671Y-14769575D02*
X16796336Y-14766635D01*
X16796336Y-14766635D02*
X16794198Y-14763730D01*
X16794198Y-14763730D02*
X16792164Y-14760746D01*
X16792164Y-14760746D02*
X16790002Y-14757299D01*
X16790002Y-14757299D02*
X16788169Y-14754107D01*
X16788169Y-14754107D02*
X16786435Y-14750809D01*
X16786435Y-14750809D02*
X16784736Y-14747249D01*
X16784736Y-14747249D02*
X16783174Y-14743614D01*
X16783174Y-14743614D02*
X16781767Y-14739941D01*
X16781767Y-14739941D02*
X16780490Y-14736164D01*
X16780490Y-14736164D02*
X16779321Y-14732172D01*
X16779321Y-14732172D02*
X16778306Y-14728074D01*
X16778306Y-14728074D02*
X16777449Y-14723835D01*
X16777449Y-14723835D02*
X16776761Y-14719454D01*
X16776761Y-14719454D02*
X16776240Y-14714735D01*
X16776240Y-14714735D02*
X16775942Y-14709952D01*
X16775942Y-14709952D02*
X16775865Y-14706003D01*
X9895547Y-14247956D02*
X9895547Y-14247956D01*
X9600238Y-14310694D02*
X9895547Y-14247956D01*
X9891322Y-15680178D02*
X9600238Y-14310694D01*
X13125123Y-14994970D02*
X9891322Y-15680178D01*
X12834039Y-13625572D02*
X13125123Y-14994970D01*
X12545326Y-13684669D02*
X12834039Y-13625572D01*
X12525345Y-13590520D02*
X12545326Y-13684669D01*
X12202511Y-13659100D02*
X12525345Y-13590520D01*
X12222577Y-13753334D02*
X12202511Y-13659100D01*
X10218339Y-14179292D02*
X12222577Y-13753334D01*
X8108784Y-8419689D02*
X8108744Y-8436118D01*
X8108744Y-8436118D02*
X8108609Y-8491512D01*
X8108609Y-8491512D02*
X8108305Y-8615759D01*
X8108305Y-8615759D02*
X8107889Y-8785842D01*
X8107889Y-8785842D02*
X8107575Y-8914574D01*
X8107575Y-8914574D02*
X8107064Y-9123429D01*
X8107064Y-9123429D02*
X8106352Y-9414701D01*
X8106352Y-9414701D02*
X8105674Y-9692227D01*
X8105674Y-9692227D02*
X8105100Y-9926979D01*
X8105100Y-9926979D02*
X8104788Y-10054585D01*
X8104788Y-10054585D02*
X8104677Y-10099722D01*
X8104677Y-10099722D02*
X8104622Y-10122234D01*
X8104622Y-10122234D02*
X8104602Y-10130600D01*
X8104602Y-10130600D02*
X8105215Y-10135027D01*
X8105215Y-10135027D02*
X8106697Y-10138556D01*
X8106697Y-10138556D02*
X8108811Y-10141452D01*
X8108811Y-10141452D02*
X8109275Y-10141936D01*
X8830119Y-11839698D02*
X9139855Y-15918768D01*
X14827770Y-11890667D02*
X14759105Y-11567918D01*
X14921919Y-11870686D02*
X14827770Y-11890667D01*
X15347962Y-13874915D02*
X14921919Y-11870686D01*
X15253728Y-13894896D02*
X15347962Y-13874915D01*
X15322393Y-14217730D02*
X15253728Y-13894896D01*
X15416542Y-14197664D02*
X15322393Y-14217730D01*
X17098953Y-14871696D02*
X17102001Y-14442520D01*
X10149573Y-15918768D02*
X17098953Y-14871696D01*
X10573778Y-12157621D02*
X10864862Y-13527020D01*
X15416542Y-14197664D02*
X15416542Y-14197664D01*
X15479280Y-14492982D02*
X15416542Y-14197664D01*
X16848763Y-14201898D02*
X15479280Y-14492982D01*
X16163641Y-10968088D02*
X16848763Y-14201898D01*
X14794157Y-11259172D02*
X16163641Y-10968088D01*
X14853339Y-11547852D02*
X14794157Y-11259172D01*
X14759105Y-11567918D02*
X14853339Y-11547852D01*
X16876026Y-14805994D02*
X16876026Y-14805994D01*
X14696283Y-13227469D02*
X14696283Y-13227469D01*
X13326884Y-13518553D02*
X14696283Y-13227469D01*
X13617968Y-14888036D02*
X13326884Y-13518553D01*
X14987367Y-14596868D02*
X13617968Y-14888036D01*
X14696283Y-13227469D02*
X14987367Y-14596868D01*
X16975848Y-14706003D02*
X16975727Y-14710954D01*
X16975727Y-14710954D02*
X16975385Y-14715684D01*
X16975385Y-14715684D02*
X16974848Y-14720195D01*
X16974848Y-14720195D02*
X16974128Y-14724565D01*
X16974128Y-14724565D02*
X16973256Y-14728718D01*
X16973256Y-14728718D02*
X16972235Y-14732730D01*
X16972235Y-14732730D02*
X16971042Y-14736713D01*
X16971042Y-14736713D02*
X16969744Y-14740480D01*
X16969744Y-14740480D02*
X16968125Y-14744600D01*
X16968125Y-14744600D02*
X16966590Y-14748077D01*
X16966590Y-14748077D02*
X16964928Y-14751484D01*
X16964928Y-14751484D02*
X16963142Y-14754817D01*
X16963142Y-14754817D02*
X16961078Y-14758330D01*
X16961078Y-14758330D02*
X16958962Y-14761625D01*
X16958962Y-14761625D02*
X16956898Y-14764586D01*
X16956898Y-14764586D02*
X16954732Y-14767467D01*
X16954732Y-14767467D02*
X16952466Y-14770267D01*
X16952466Y-14770267D02*
X16950116Y-14772968D01*
X16950116Y-14772968D02*
X16947646Y-14775610D01*
X16947646Y-14775610D02*
X16945098Y-14778147D01*
X16945098Y-14778147D02*
X16942459Y-14780592D01*
X16942459Y-14780592D02*
X16939735Y-14782942D01*
X16939735Y-14782942D02*
X16936927Y-14785194D01*
X16936927Y-14785194D02*
X16934038Y-14787346D01*
X16934038Y-14787346D02*
X16931070Y-14789394D01*
X16931070Y-14789394D02*
X16928011Y-14791346D01*
X16928011Y-14791346D02*
X16924813Y-14793226D01*
X16924813Y-14793226D02*
X16921440Y-14795041D01*
X16921440Y-14795041D02*
X16917786Y-14796824D01*
X16917786Y-14796824D02*
X16914174Y-14798410D01*
X16914174Y-14798410D02*
X16910347Y-14799907D01*
X16910347Y-14799907D02*
X16906591Y-14801203D01*
X16906591Y-14801203D02*
X16902660Y-14802382D01*
X16902660Y-14802382D02*
X16898588Y-14803419D01*
X16898588Y-14803419D02*
X16894376Y-14804301D01*
X16894376Y-14804301D02*
X16890043Y-14805012D01*
X16890043Y-14805012D02*
X16885554Y-14805542D01*
X16885554Y-14805542D02*
X16880749Y-14805884D01*
X16880749Y-14805884D02*
X16876026Y-14805994D01*
X16876026Y-14606012D02*
X16880908Y-14606130D01*
X16880908Y-14606130D02*
X16885613Y-14606470D01*
X16885613Y-14606470D02*
X16890354Y-14607040D01*
X16890354Y-14607040D02*
X16894643Y-14607757D01*
X16894643Y-14607757D02*
X16898983Y-14608683D01*
X16898983Y-14608683D02*
X16903067Y-14609743D01*
X16903067Y-14609743D02*
X16907028Y-14610952D01*
X16907028Y-14610952D02*
X16910776Y-14612266D01*
X16910776Y-14612266D02*
X16914419Y-14613710D01*
X16914419Y-14613710D02*
X16918061Y-14615323D01*
X16918061Y-14615323D02*
X16921457Y-14616989D01*
X16921457Y-14616989D02*
X16924780Y-14618778D01*
X16924780Y-14618778D02*
X16927995Y-14620669D01*
X16927995Y-14620669D02*
X16931070Y-14622633D01*
X16931070Y-14622633D02*
X16934068Y-14624705D01*
X16934068Y-14624705D02*
X16937046Y-14626929D01*
X16937046Y-14626929D02*
X16939850Y-14629187D01*
X16939850Y-14629187D02*
X16942571Y-14631542D01*
X16942571Y-14631542D02*
X16945529Y-14634306D01*
X16945529Y-14634306D02*
X16948062Y-14636860D01*
X16948062Y-14636860D02*
X16950504Y-14639504D01*
X16950504Y-14639504D02*
X16952851Y-14642234D01*
X16952851Y-14642234D02*
X16955077Y-14645019D01*
X16955077Y-14645019D02*
X16957249Y-14647944D01*
X16957249Y-14647944D02*
X16959296Y-14650919D01*
X16959296Y-14650919D02*
X16961315Y-14654099D01*
X16961315Y-14654099D02*
X16963161Y-14657259D01*
X16963161Y-14657259D02*
X16964928Y-14660558D01*
X16964928Y-14660558D02*
X16966590Y-14663964D01*
X16966590Y-14663964D02*
X16968170Y-14667547D01*
X16968170Y-14667547D02*
X16969638Y-14671272D01*
X16969638Y-14671272D02*
X16970948Y-14675032D01*
X16970948Y-14675032D02*
X16972121Y-14678896D01*
X16972121Y-14678896D02*
X16973158Y-14682899D01*
X16973158Y-14682899D02*
X16974062Y-14687118D01*
X16974062Y-14687118D02*
X16974798Y-14691479D01*
X16974798Y-14691479D02*
X16975350Y-14695980D01*
X16975350Y-14695980D02*
X16975722Y-14700939D01*
X16975722Y-14700939D02*
X16975848Y-14705963D01*
X16975848Y-14705963D02*
X16975848Y-14706003D01*
X16775865Y-14706003D02*
X16775982Y-14701119D01*
X16775982Y-14701119D02*
X16776327Y-14696334D01*
X16776327Y-14696334D02*
X16776885Y-14691673D01*
X16776885Y-14691673D02*
X16777611Y-14687310D01*
X16777611Y-14687310D02*
X16778489Y-14683163D01*
X16778489Y-14683163D02*
X16779525Y-14679118D01*
X16779525Y-14679118D02*
X16780700Y-14675215D01*
X16780700Y-14675215D02*
X16782016Y-14671415D01*
X16782016Y-14671415D02*
X16783464Y-14667722D01*
X16783464Y-14667722D02*
X16784988Y-14664240D01*
X16784988Y-14664240D02*
X16786709Y-14660693D01*
X16786709Y-14660693D02*
X16788490Y-14657357D01*
X16788490Y-14657357D02*
X16790333Y-14654195D01*
X16790333Y-14654195D02*
X16792329Y-14651045D01*
X16792329Y-14651045D02*
X16794394Y-14648036D01*
X16794394Y-14648036D02*
X16796611Y-14645048D01*
X16796611Y-14645048D02*
X16798863Y-14642234D01*
X16798863Y-14642234D02*
X16801213Y-14639504D01*
X16801213Y-14639504D02*
X16803658Y-14636860D01*
X16803658Y-14636860D02*
X16806197Y-14634306D01*
X16806197Y-14634306D02*
X16808825Y-14631844D01*
X16808825Y-14631844D02*
X16811627Y-14629403D01*
X16811627Y-14629403D02*
X16814936Y-14626745D01*
X16814936Y-14626745D02*
X16818081Y-14624422D01*
X16818081Y-14624422D02*
X16821067Y-14622384D01*
X16821067Y-14622384D02*
X16824258Y-14620375D01*
X16824258Y-14620375D02*
X16827479Y-14618511D01*
X16827479Y-14618511D02*
X16830842Y-14616731D01*
X16830842Y-14616731D02*
X16834436Y-14615005D01*
X16834436Y-14615005D02*
X16838072Y-14613433D01*
X16838072Y-14613433D02*
X16841781Y-14612002D01*
X16841781Y-14612002D02*
X16845560Y-14610716D01*
X16845560Y-14610716D02*
X16849517Y-14609547D01*
X16849517Y-14609547D02*
X16853578Y-14608529D01*
X16853578Y-14608529D02*
X16857742Y-14607671D01*
X16857742Y-14607671D02*
X16862123Y-14606966D01*
X16862123Y-14606966D02*
X16866646Y-14606444D01*
X16866646Y-14606444D02*
X16871428Y-14606115D01*
X16871428Y-14606115D02*
X16876026Y-14606012D01*
X10177428Y-10292872D02*
X10468537Y-11662321D01*
X14300551Y-11365437D02*
X14300551Y-11365437D01*
X12931067Y-11656564D02*
X14300551Y-11365437D01*
X13222151Y-13025962D02*
X12931067Y-11656564D01*
X14591635Y-12734878D02*
X13222151Y-13025962D01*
X14300551Y-11365437D02*
X14591635Y-12734878D01*
X12945376Y-13285889D02*
X12945493Y-13281005D01*
X12945493Y-13281005D02*
X12945838Y-13276220D01*
X12945838Y-13276220D02*
X12946381Y-13271676D01*
X12946381Y-13271676D02*
X12947125Y-13267196D01*
X12947125Y-13267196D02*
X12948003Y-13263049D01*
X12948003Y-13263049D02*
X12949041Y-13259004D01*
X12949041Y-13259004D02*
X12950219Y-13255101D01*
X12950219Y-13255101D02*
X12951536Y-13251301D01*
X12951536Y-13251301D02*
X12953103Y-13247327D01*
X12953103Y-13247327D02*
X12954640Y-13243850D01*
X12954640Y-13243850D02*
X12956304Y-13240444D01*
X12956304Y-13240444D02*
X12958101Y-13237095D01*
X12958101Y-13237095D02*
X12960001Y-13233856D01*
X12960001Y-13233856D02*
X12962028Y-13230680D01*
X12962028Y-13230680D02*
X12964082Y-13227708D01*
X12964082Y-13227708D02*
X12966239Y-13224816D01*
X12966239Y-13224816D02*
X12968593Y-13221889D01*
X12968593Y-13221889D02*
X12970953Y-13219166D01*
X12970953Y-13219166D02*
X12973408Y-13216530D01*
X12973408Y-13216530D02*
X12975955Y-13213983D01*
X12975955Y-13213983D02*
X12978592Y-13211529D01*
X12978592Y-13211529D02*
X12981288Y-13209193D01*
X12981288Y-13209193D02*
X12984453Y-13206654D01*
X12984453Y-13206654D02*
X12987629Y-13204308D01*
X12987629Y-13204308D02*
X12990615Y-13202270D01*
X12990615Y-13202270D02*
X12993806Y-13200261D01*
X12993806Y-13200261D02*
X12997027Y-13198397D01*
X12997027Y-13198397D02*
X13000390Y-13196617D01*
X13000390Y-13196617D02*
X13003983Y-13194891D01*
X13003983Y-13194891D02*
X13007618Y-13193319D01*
X13007618Y-13193319D02*
X13011271Y-13191908D01*
X13011271Y-13191908D02*
X13015102Y-13190602D01*
X13015102Y-13190602D02*
X13018982Y-13189454D01*
X13018982Y-13189454D02*
X13023039Y-13188433D01*
X13023039Y-13188433D02*
X13027237Y-13187565D01*
X13027237Y-13187565D02*
X13031613Y-13186857D01*
X13031613Y-13186857D02*
X13036169Y-13186330D01*
X13036169Y-13186330D02*
X13040945Y-13186001D01*
X13040945Y-13186001D02*
X13045537Y-13185898D01*
X13045537Y-13385880D02*
X13040285Y-13385745D01*
X13040285Y-13385745D02*
X13035537Y-13385388D01*
X13035537Y-13385388D02*
X13030834Y-13384811D01*
X13030834Y-13384811D02*
X13026545Y-13384086D01*
X13026545Y-13384086D02*
X13022358Y-13383190D01*
X13022358Y-13383190D02*
X13018201Y-13382112D01*
X13018201Y-13382112D02*
X13014261Y-13380911D01*
X13014261Y-13380911D02*
X13010464Y-13379581D01*
X13010464Y-13379581D02*
X13006878Y-13378164D01*
X13006878Y-13378164D02*
X13003189Y-13376534D01*
X13003189Y-13376534D02*
X12999749Y-13374849D01*
X12999749Y-13374849D02*
X12996318Y-13373001D01*
X12996318Y-13373001D02*
X12993033Y-13371065D01*
X12993033Y-13371065D02*
X12989861Y-13369030D01*
X12989861Y-13369030D02*
X12986864Y-13366946D01*
X12986864Y-13366946D02*
X12983770Y-13364619D01*
X12983770Y-13364619D02*
X12980972Y-13362347D01*
X12980972Y-13362347D02*
X12978286Y-13360002D01*
X12978286Y-13360002D02*
X12975632Y-13357512D01*
X12975632Y-13357512D02*
X12973096Y-13354956D01*
X12973096Y-13354956D02*
X12970653Y-13352309D01*
X12970653Y-13352309D02*
X12968233Y-13349490D01*
X12968233Y-13349490D02*
X12965964Y-13346640D01*
X12965964Y-13346640D02*
X12963580Y-13343401D01*
X12963580Y-13343401D02*
X12961531Y-13340380D01*
X12961531Y-13340380D02*
X12959455Y-13337055D01*
X12959455Y-13337055D02*
X12957579Y-13333778D01*
X12957579Y-13333778D02*
X12955817Y-13330407D01*
X12955817Y-13330407D02*
X12954197Y-13326997D01*
X12954197Y-13326997D02*
X12952681Y-13323464D01*
X12952681Y-13323464D02*
X12951273Y-13319791D01*
X12951273Y-13319791D02*
X12949996Y-13316013D01*
X12949996Y-13316013D02*
X12948837Y-13312058D01*
X12948837Y-13312058D02*
X12947821Y-13307960D01*
X12947821Y-13307960D02*
X12946962Y-13303721D01*
X12946962Y-13303721D02*
X12946273Y-13299340D01*
X12946273Y-13299340D02*
X12945752Y-13294621D01*
X12945752Y-13294621D02*
X12945452Y-13289838D01*
X12945452Y-13289838D02*
X12945376Y-13285889D01*
X10573778Y-12157621D02*
X10573778Y-12157621D01*
X8121442Y-8404077D02*
X8121442Y-8404077D01*
X9448973Y-15616508D02*
X9448853Y-15621432D01*
X9448853Y-15621432D02*
X9448495Y-15626334D01*
X9448495Y-15626334D02*
X9447920Y-15631051D01*
X9447920Y-15631051D02*
X9447188Y-15635393D01*
X9447188Y-15635393D02*
X9446249Y-15639762D01*
X9446249Y-15639762D02*
X9445195Y-15643800D01*
X9445195Y-15643800D02*
X9443980Y-15647770D01*
X9443980Y-15647770D02*
X9442659Y-15651525D01*
X9442659Y-15651525D02*
X9441092Y-15655455D01*
X9441092Y-15655455D02*
X9439397Y-15659233D01*
X9439397Y-15659233D02*
X9437710Y-15662625D01*
X9437710Y-15662625D02*
X9435901Y-15665942D01*
X9435901Y-15665942D02*
X9433971Y-15669183D01*
X9433971Y-15669183D02*
X9431926Y-15672343D01*
X9431926Y-15672343D02*
X9429432Y-15675873D01*
X9429432Y-15675873D02*
X9427121Y-15678879D01*
X9427121Y-15678879D02*
X9424847Y-15681624D01*
X9424847Y-15681624D02*
X9422429Y-15684340D01*
X9422429Y-15684340D02*
X9419941Y-15686939D01*
X9419941Y-15686939D02*
X9417253Y-15689550D01*
X9417253Y-15689550D02*
X9414583Y-15691961D01*
X9414583Y-15691961D02*
X9411827Y-15694277D01*
X9411827Y-15694277D02*
X9408869Y-15696583D01*
X9408869Y-15696583D02*
X9405947Y-15698694D01*
X9405947Y-15698694D02*
X9402916Y-15700721D01*
X9402916Y-15700721D02*
X9399744Y-15702677D01*
X9399744Y-15702677D02*
X9396513Y-15704508D01*
X9396513Y-15704508D02*
X9393107Y-15706270D01*
X9393107Y-15706270D02*
X9389264Y-15708066D01*
X9389264Y-15708066D02*
X9385671Y-15709568D01*
X9385671Y-15709568D02*
X9382009Y-15710932D01*
X9382009Y-15710932D02*
X9378117Y-15712206D01*
X9378117Y-15712206D02*
X9374120Y-15713331D01*
X9374120Y-15713331D02*
X9370039Y-15714296D01*
X9370039Y-15714296D02*
X9365781Y-15715111D01*
X9365781Y-15715111D02*
X9361326Y-15715759D01*
X9361326Y-15715759D02*
X9356771Y-15716211D01*
X9356771Y-15716211D02*
X9351800Y-15716465D01*
X9351800Y-15716465D02*
X9349151Y-15716500D01*
X9349151Y-15516517D02*
X9354075Y-15516637D01*
X9354075Y-15516637D02*
X9358742Y-15516975D01*
X9358742Y-15516975D02*
X9363484Y-15517545D01*
X9363484Y-15517545D02*
X9367813Y-15518270D01*
X9367813Y-15518270D02*
X9372116Y-15519188D01*
X9372116Y-15519188D02*
X9376201Y-15520248D01*
X9376201Y-15520248D02*
X9380163Y-15521457D01*
X9380163Y-15521457D02*
X9383911Y-15522772D01*
X9383911Y-15522772D02*
X9387555Y-15524215D01*
X9387555Y-15524215D02*
X9391197Y-15525828D01*
X9391197Y-15525828D02*
X9394593Y-15527494D01*
X9394593Y-15527494D02*
X9397916Y-15529284D01*
X9397916Y-15529284D02*
X9401132Y-15531174D01*
X9401132Y-15531174D02*
X9404207Y-15533138D01*
X9404207Y-15533138D02*
X9407204Y-15535211D01*
X9407204Y-15535211D02*
X9410181Y-15537434D01*
X9410181Y-15537434D02*
X9412986Y-15539692D01*
X9412986Y-15539692D02*
X9415706Y-15542048D01*
X9415706Y-15542048D02*
X9418663Y-15544811D01*
X9418663Y-15544811D02*
X9421197Y-15547365D01*
X9421197Y-15547365D02*
X9423638Y-15550009D01*
X9423638Y-15550009D02*
X9425984Y-15552740D01*
X9425984Y-15552740D02*
X9428210Y-15555524D01*
X9428210Y-15555524D02*
X9430381Y-15558450D01*
X9430381Y-15558450D02*
X9432437Y-15561440D01*
X9432437Y-15561440D02*
X9434445Y-15564604D01*
X9434445Y-15564604D02*
X9436291Y-15567764D01*
X9436291Y-15567764D02*
X9438058Y-15571063D01*
X9438058Y-15571063D02*
X9439719Y-15574469D01*
X9439719Y-15574469D02*
X9441298Y-15578052D01*
X9441298Y-15578052D02*
X9442766Y-15581777D01*
X9442766Y-15581777D02*
X9444075Y-15585537D01*
X9444075Y-15585537D02*
X9445248Y-15589401D01*
X9445248Y-15589401D02*
X9446285Y-15593404D01*
X9446285Y-15593404D02*
X9447188Y-15597623D01*
X9447188Y-15597623D02*
X9447923Y-15601984D01*
X9447923Y-15601984D02*
X9448475Y-15606485D01*
X9448475Y-15606485D02*
X9448847Y-15611444D01*
X9448847Y-15611444D02*
X9448973Y-15616468D01*
X9448973Y-15616468D02*
X9448973Y-15616508D01*
X9248973Y-15616508D02*
X9249090Y-15611624D01*
X9249090Y-15611624D02*
X9249436Y-15606840D01*
X9249436Y-15606840D02*
X9249978Y-15602295D01*
X9249978Y-15602295D02*
X9250721Y-15597815D01*
X9250721Y-15597815D02*
X9251600Y-15593668D01*
X9251600Y-15593668D02*
X9252637Y-15589624D01*
X9252637Y-15589624D02*
X9253814Y-15585720D01*
X9253814Y-15585720D02*
X9255131Y-15581921D01*
X9255131Y-15581921D02*
X9256697Y-15577947D01*
X9256697Y-15577947D02*
X9258234Y-15574469D01*
X9258234Y-15574469D02*
X9259897Y-15571063D01*
X9259897Y-15571063D02*
X9261685Y-15567731D01*
X9261685Y-15567731D02*
X9263534Y-15564572D01*
X9263534Y-15564572D02*
X9265620Y-15561299D01*
X9265620Y-15561299D02*
X9267673Y-15558327D01*
X9267673Y-15558327D02*
X9269830Y-15555435D01*
X9269830Y-15555435D02*
X9272184Y-15552509D01*
X9272184Y-15552509D02*
X9274543Y-15549786D01*
X9274543Y-15549786D02*
X9276972Y-15547176D01*
X9276972Y-15547176D02*
X9279545Y-15544602D01*
X9279545Y-15544602D02*
X9282182Y-15542148D01*
X9282182Y-15542148D02*
X9284878Y-15539812D01*
X9284878Y-15539812D02*
X9288043Y-15537273D01*
X9288043Y-15537273D02*
X9291219Y-15534927D01*
X9291219Y-15534927D02*
X9294205Y-15532890D01*
X9294205Y-15532890D02*
X9297494Y-15530822D01*
X9297494Y-15530822D02*
X9300801Y-15528916D01*
X9300801Y-15528916D02*
X9304118Y-15527168D01*
X9304118Y-15527168D02*
X9307576Y-15525510D01*
X9307576Y-15525510D02*
X9311212Y-15523938D01*
X9311212Y-15523938D02*
X9314921Y-15522508D01*
X9314921Y-15522508D02*
X9318699Y-15521221D01*
X9318699Y-15521221D02*
X9322692Y-15520042D01*
X9322692Y-15520042D02*
X9326715Y-15519035D01*
X9326715Y-15519035D02*
X9330916Y-15518170D01*
X9330916Y-15518170D02*
X9335530Y-15517433D01*
X9335530Y-15517433D02*
X9340054Y-15516924D01*
X9340054Y-15516924D02*
X9344776Y-15516610D01*
X9344776Y-15516610D02*
X9349151Y-15516517D01*
X9349151Y-15716500D02*
X9344235Y-15716381D01*
X9344235Y-15716381D02*
X9339460Y-15716038D01*
X9339460Y-15716038D02*
X9334906Y-15715496D01*
X9334906Y-15715496D02*
X9330608Y-15714789D01*
X9330608Y-15714789D02*
X9326450Y-15713920D01*
X9326450Y-15713920D02*
X9322301Y-15712866D01*
X9322301Y-15712866D02*
X9318241Y-15711648D01*
X9318241Y-15711648D02*
X9314489Y-15710350D01*
X9314489Y-15710350D02*
X9310824Y-15708918D01*
X9310824Y-15708918D02*
X9307161Y-15707316D01*
X9307161Y-15707316D02*
X9303746Y-15705660D01*
X9303746Y-15705660D02*
X9300321Y-15703834D01*
X9300321Y-15703834D02*
X9297139Y-15701979D01*
X9297139Y-15701979D02*
X9293954Y-15699961D01*
X9293954Y-15699961D02*
X9290943Y-15697893D01*
X9290943Y-15697893D02*
X9287834Y-15695582D01*
X9287834Y-15695582D02*
X9285022Y-15693324D01*
X9285022Y-15693324D02*
X9282322Y-15690993D01*
X9282322Y-15690993D02*
X9279694Y-15688557D01*
X9279694Y-15688557D02*
X9277102Y-15685975D01*
X9277102Y-15685975D02*
X9274669Y-15683370D01*
X9274669Y-15683370D02*
X9272280Y-15680622D01*
X9272280Y-15680622D02*
X9270014Y-15677818D01*
X9270014Y-15677818D02*
X9267849Y-15674932D01*
X9267849Y-15674932D02*
X9265703Y-15671842D01*
X9265703Y-15671842D02*
X9263672Y-15668670D01*
X9263672Y-15668670D02*
X9261759Y-15665417D01*
X9261759Y-15665417D02*
X9259992Y-15662138D01*
X9259992Y-15662138D02*
X9258298Y-15658684D01*
X9258298Y-15658684D02*
X9256756Y-15655210D01*
X9256756Y-15655210D02*
X9255311Y-15651579D01*
X9255311Y-15651579D02*
X9253963Y-15647752D01*
X9253963Y-15647752D02*
X9252784Y-15643912D01*
X9252784Y-15643912D02*
X9251738Y-15639932D01*
X9251738Y-15639932D02*
X9250840Y-15635814D01*
X9250840Y-15635814D02*
X9250092Y-15631498D01*
X9250092Y-15631498D02*
X9249514Y-15626964D01*
X9249514Y-15626964D02*
X9249133Y-15622210D01*
X9249133Y-15622210D02*
X9248976Y-15617215D01*
X9248976Y-15617215D02*
X9248973Y-15616508D01*
X9432023Y-5961909D02*
X9866786Y-8031924D01*
X9637492Y-5622633D02*
X9432023Y-5961909D01*
X17509841Y-6652442D02*
X17509841Y-4577711D01*
X8121442Y-8404077D02*
X8117654Y-8405399D01*
X8117654Y-8405399D02*
X8114602Y-8407382D01*
X8114602Y-8407382D02*
X8112130Y-8409934D01*
X8112130Y-8409934D02*
X8110235Y-8413065D01*
X8110235Y-8413065D02*
X8109038Y-8416877D01*
X8109038Y-8416877D02*
X8108784Y-8419689D01*
X10671314Y-10187885D02*
X12040797Y-9896801D01*
X10962398Y-11557334D02*
X10671314Y-10187885D01*
X12331881Y-11266250D02*
X10962398Y-11557334D01*
X12040797Y-9896801D02*
X12331881Y-11266250D01*
X10177428Y-10292872D02*
X10177428Y-10292872D01*
X8807979Y-10583956D02*
X10177428Y-10292872D01*
X9099063Y-11953405D02*
X8807979Y-10583956D01*
X10468537Y-11662321D02*
X9099063Y-11953405D01*
X17493839Y-4561709D02*
X15266513Y-4561709D01*
X10198315Y-14085142D02*
X10218339Y-14179292D01*
X9875524Y-14153722D02*
X10198315Y-14085142D01*
X9895547Y-14247956D02*
X9875524Y-14153722D01*
X9349151Y-15716500D02*
X9349151Y-15716500D01*
X15266513Y-4561709D02*
X9637492Y-5622633D01*
X9866786Y-8031924D02*
X9817182Y-8042501D01*
X9817182Y-8042501D02*
X9496326Y-8110917D01*
X9496326Y-8110917D02*
X9208971Y-8172189D01*
X9208971Y-8172189D02*
X8896533Y-8238809D01*
X8896533Y-8238809D02*
X8668159Y-8287504D01*
X8668159Y-8287504D02*
X8526270Y-8317758D01*
X8526270Y-8317758D02*
X8397995Y-8345110D01*
X8397995Y-8345110D02*
X8314049Y-8363009D01*
X8314049Y-8363009D02*
X8264265Y-8373624D01*
X8264265Y-8373624D02*
X8199965Y-8387334D01*
X8199965Y-8387334D02*
X8152459Y-8397464D01*
X8152459Y-8397464D02*
X8129547Y-8402349D01*
X8129547Y-8402349D02*
X8121442Y-8404077D01*
X17102001Y-14442520D02*
X16468695Y-6668444D01*
X13045537Y-13385880D02*
X13045537Y-13385880D01*
X12437122Y-11761550D02*
X12437122Y-11761550D01*
X11067723Y-12052634D02*
X12437122Y-11761550D01*
X17509841Y-4577711D02*
X17509228Y-4573317D01*
X17509228Y-4573317D02*
X17507725Y-4569766D01*
X17507725Y-4569766D02*
X17505591Y-4566862D01*
X17505591Y-4566862D02*
X17502900Y-4564529D01*
X17502900Y-4564529D02*
X17499624Y-4562792D01*
X17499624Y-4562792D02*
X17495545Y-4561799D01*
X17495545Y-4561799D02*
X17493839Y-4561709D01*
X11358807Y-13422033D02*
X11067723Y-12052634D01*
X12728206Y-13130949D02*
X11358807Y-13422033D01*
X12437122Y-11761550D02*
X12728206Y-13130949D01*
X13145359Y-13285889D02*
X13145238Y-13290840D01*
X13145238Y-13290840D02*
X13144896Y-13295570D01*
X13144896Y-13295570D02*
X13144359Y-13300081D01*
X13144359Y-13300081D02*
X13143638Y-13304451D01*
X13143638Y-13304451D02*
X13142767Y-13308604D01*
X13142767Y-13308604D02*
X13141745Y-13312616D01*
X13141745Y-13312616D02*
X13140553Y-13316599D01*
X13140553Y-13316599D02*
X13139254Y-13320366D01*
X13139254Y-13320366D02*
X13137636Y-13324486D01*
X13137636Y-13324486D02*
X13136101Y-13327963D01*
X13136101Y-13327963D02*
X13134439Y-13331370D01*
X13134439Y-13331370D02*
X13132653Y-13334703D01*
X13132653Y-13334703D02*
X13130589Y-13338216D01*
X13130589Y-13338216D02*
X13128472Y-13341511D01*
X13128472Y-13341511D02*
X13126409Y-13344472D01*
X13126409Y-13344472D02*
X13124243Y-13347353D01*
X13124243Y-13347353D02*
X13121977Y-13350153D01*
X13121977Y-13350153D02*
X13119627Y-13352854D01*
X13119627Y-13352854D02*
X13117157Y-13355496D01*
X13117157Y-13355496D02*
X13114608Y-13358033D01*
X13114608Y-13358033D02*
X13111970Y-13360478D01*
X13111970Y-13360478D02*
X13109246Y-13362828D01*
X13109246Y-13362828D02*
X13106438Y-13365080D01*
X13106438Y-13365080D02*
X13103549Y-13367232D01*
X13103549Y-13367232D02*
X13100581Y-13369280D01*
X13100581Y-13369280D02*
X13097522Y-13371232D01*
X13097522Y-13371232D02*
X13094324Y-13373112D01*
X13094324Y-13373112D02*
X13090951Y-13374927D01*
X13090951Y-13374927D02*
X13087296Y-13376710D01*
X13087296Y-13376710D02*
X13083685Y-13378296D01*
X13083685Y-13378296D02*
X13079857Y-13379793D01*
X13079857Y-13379793D02*
X13076102Y-13381089D01*
X13076102Y-13381089D02*
X13072170Y-13382268D01*
X13072170Y-13382268D02*
X13068099Y-13383305D01*
X13068099Y-13383305D02*
X13063886Y-13384187D01*
X13063886Y-13384187D02*
X13059554Y-13384898D01*
X13059554Y-13384898D02*
X13055065Y-13385428D01*
X13055065Y-13385428D02*
X13050259Y-13385770D01*
X13050259Y-13385770D02*
X13045537Y-13385880D01*
X13045537Y-13185898D02*
X13050419Y-13186016D01*
X13050419Y-13186016D02*
X13055124Y-13186356D01*
X13055124Y-13186356D02*
X13059864Y-13186926D01*
X13059864Y-13186926D02*
X13064154Y-13187643D01*
X13064154Y-13187643D02*
X13068493Y-13188569D01*
X13068493Y-13188569D02*
X13072578Y-13189629D01*
X13072578Y-13189629D02*
X13076539Y-13190838D01*
X13076539Y-13190838D02*
X13080286Y-13192152D01*
X13080286Y-13192152D02*
X13083930Y-13193596D01*
X13083930Y-13193596D02*
X13087571Y-13195209D01*
X13087571Y-13195209D02*
X13090968Y-13196875D01*
X13090968Y-13196875D02*
X13094291Y-13198664D01*
X13094291Y-13198664D02*
X13097506Y-13200555D01*
X13097506Y-13200555D02*
X13100581Y-13202519D01*
X13100581Y-13202519D02*
X13103579Y-13204591D01*
X13103579Y-13204591D02*
X13106556Y-13206815D01*
X13106556Y-13206815D02*
X13109361Y-13209073D01*
X13109361Y-13209073D02*
X13112082Y-13211428D01*
X13112082Y-13211428D02*
X13115039Y-13214192D01*
X13115039Y-13214192D02*
X13117573Y-13216746D01*
X13117573Y-13216746D02*
X13120015Y-13219390D01*
X13120015Y-13219390D02*
X13122362Y-13222120D01*
X13122362Y-13222120D02*
X13124588Y-13224905D01*
X13124588Y-13224905D02*
X13126760Y-13227830D01*
X13126760Y-13227830D02*
X13128806Y-13230805D01*
X13128806Y-13230805D02*
X13130825Y-13233985D01*
X13130825Y-13233985D02*
X13132671Y-13237145D01*
X13132671Y-13237145D02*
X13134439Y-13240444D01*
X13134439Y-13240444D02*
X13136101Y-13243850D01*
X13136101Y-13243850D02*
X13137680Y-13247433D01*
X13137680Y-13247433D02*
X13139148Y-13251158D01*
X13139148Y-13251158D02*
X13140458Y-13254918D01*
X13140458Y-13254918D02*
X13141631Y-13258782D01*
X13141631Y-13258782D02*
X13142669Y-13262785D01*
X13142669Y-13262785D02*
X13143573Y-13267004D01*
X13143573Y-13267004D02*
X13144308Y-13271365D01*
X13144308Y-13271365D02*
X13144861Y-13275866D01*
X13144861Y-13275866D02*
X13145232Y-13280825D01*
X13145232Y-13280825D02*
X13145359Y-13285849D01*
X13145359Y-13285849D02*
X13145359Y-13285889D01*
X9204337Y-12448705D02*
X10573778Y-12157621D01*
X9495421Y-13818104D02*
X9204337Y-12448705D01*
X10864862Y-13527020D02*
X9495421Y-13818104D01*
X16468695Y-6668444D02*
X17493839Y-6668444D01*
X15623383Y-5035893D02*
X15628265Y-5036011D01*
X15628265Y-5036011D02*
X15632970Y-5036351D01*
X15632970Y-5036351D02*
X15637710Y-5036921D01*
X15637710Y-5036921D02*
X15642000Y-5037639D01*
X15642000Y-5037639D02*
X15646245Y-5038543D01*
X15646245Y-5038543D02*
X15650276Y-5039583D01*
X15650276Y-5039583D02*
X15654239Y-5040787D01*
X15654239Y-5040787D02*
X15657989Y-5042095D01*
X15657989Y-5042095D02*
X15661776Y-5043592D01*
X15661776Y-5043592D02*
X15665417Y-5045205D01*
X15665417Y-5045205D02*
X15668814Y-5046871D01*
X15668814Y-5046871D02*
X15672137Y-5048661D01*
X15672137Y-5048661D02*
X15675352Y-5050551D01*
X15675352Y-5050551D02*
X15678427Y-5052516D01*
X15678427Y-5052516D02*
X15681425Y-5054588D01*
X15681425Y-5054588D02*
X15684402Y-5056811D01*
X15684402Y-5056811D02*
X15687207Y-5059069D01*
X15687207Y-5059069D02*
X15689928Y-5061425D01*
X15689928Y-5061425D02*
X15692885Y-5064188D01*
X15692885Y-5064188D02*
X15695419Y-5066742D01*
X15695419Y-5066742D02*
X15697861Y-5069386D01*
X15697861Y-5069386D02*
X15700208Y-5072116D01*
X15700208Y-5072116D02*
X15702434Y-5074900D01*
X15702434Y-5074900D02*
X15704606Y-5077826D01*
X15704606Y-5077826D02*
X15706652Y-5080800D01*
X15706652Y-5080800D02*
X15708671Y-5083979D01*
X15708671Y-5083979D02*
X15710517Y-5087138D01*
X15710517Y-5087138D02*
X15712285Y-5090437D01*
X15712285Y-5090437D02*
X15713947Y-5093843D01*
X15713947Y-5093843D02*
X15715526Y-5097424D01*
X15715526Y-5097424D02*
X15716994Y-5101149D01*
X15716994Y-5101149D02*
X15718304Y-5104908D01*
X15718304Y-5104908D02*
X15719477Y-5108770D01*
X15719477Y-5108770D02*
X15720515Y-5112772D01*
X15720515Y-5112772D02*
X15721419Y-5116990D01*
X15721419Y-5116990D02*
X15722154Y-5121349D01*
X15722154Y-5121349D02*
X15722711Y-5125888D01*
X15722711Y-5125888D02*
X15723070Y-5130646D01*
X15723070Y-5130646D02*
X15723204Y-5135584D01*
X15723204Y-5135584D02*
X15723205Y-5135867D01*
X15723205Y-5135867D02*
X15723084Y-5140819D01*
X15723084Y-5140819D02*
X15722742Y-5145550D01*
X15722742Y-5145550D02*
X15722205Y-5150062D01*
X15722205Y-5150062D02*
X15721455Y-5154586D01*
X15721455Y-5154586D02*
X15720564Y-5158794D01*
X15720564Y-5158794D02*
X15719524Y-5162842D01*
X15719524Y-5162842D02*
X15718364Y-5166693D01*
X15718364Y-5166693D02*
X15717061Y-5170460D01*
X15717061Y-5170460D02*
X15715482Y-5174473D01*
X15715482Y-5174473D02*
X15713947Y-5177952D01*
X15713947Y-5177952D02*
X15712285Y-5181360D01*
X15712285Y-5181360D02*
X15710499Y-5184694D01*
X15710499Y-5184694D02*
X15708435Y-5188208D01*
X15708435Y-5188208D02*
X15706318Y-5191503D01*
X15706318Y-5191503D02*
X15704255Y-5194465D01*
X15704255Y-5194465D02*
X15702089Y-5197348D01*
X15702089Y-5197348D02*
X15699847Y-5200120D01*
X15699847Y-5200120D02*
X15697498Y-5202823D01*
X15697498Y-5202823D02*
X15695003Y-5205494D01*
X15695003Y-5205494D02*
X15692454Y-5208032D01*
X15692454Y-5208032D02*
X15689858Y-5210441D01*
X15689858Y-5210441D02*
X15686976Y-5212925D01*
X15686976Y-5212925D02*
X15684179Y-5215162D01*
X15684179Y-5215162D02*
X15681303Y-5217300D01*
X15681303Y-5217300D02*
X15678302Y-5219367D01*
X15678302Y-5219367D02*
X15675127Y-5221385D01*
X15675127Y-5221385D02*
X15671742Y-5223357D01*
X15671742Y-5223357D02*
X15668410Y-5225131D01*
X15668410Y-5225131D02*
X15665005Y-5226781D01*
X15665005Y-5226781D02*
X15661390Y-5228362D01*
X15661390Y-5228362D02*
X15657703Y-5229802D01*
X15657703Y-5229802D02*
X15653948Y-5231099D01*
X15653948Y-5231099D02*
X15650016Y-5232278D01*
X15650016Y-5232278D02*
X15645945Y-5233316D01*
X15645945Y-5233316D02*
X15641732Y-5234198D01*
X15641732Y-5234198D02*
X15637400Y-5234909D01*
X15637400Y-5234909D02*
X15632911Y-5235440D01*
X15632911Y-5235440D02*
X15628105Y-5235782D01*
X15628105Y-5235782D02*
X15623383Y-5235893D01*
X9800907Y-6017992D02*
X9800907Y-6017992D01*
X15623383Y-5235893D02*
X15623383Y-5235893D01*
X8470235Y-10146635D02*
X8830119Y-11839698D01*
X8109275Y-10141936D02*
X8112061Y-10144169D01*
X8112061Y-10144169D02*
X8115458Y-10145788D01*
X8115458Y-10145788D02*
X8119648Y-10146607D01*
X8119648Y-10146607D02*
X8120604Y-10146635D01*
X9139855Y-15918768D02*
X10149573Y-15918768D01*
X8120604Y-10146635D02*
X8470235Y-10146635D01*
X12825827Y-11161264D02*
X12534743Y-9791814D01*
X14195225Y-10870180D02*
X12825827Y-11161264D01*
X13904141Y-9500730D02*
X14195225Y-10870180D01*
X12040797Y-9896801D02*
X12040797Y-9896801D01*
X12138926Y-7929800D02*
X13508409Y-7638716D01*
X12430010Y-9299249D02*
X12138926Y-7929800D01*
X13799493Y-9008157D02*
X12430010Y-9299249D01*
X13508409Y-7638716D02*
X13799493Y-9008157D01*
X11644981Y-8034786D02*
X11644981Y-8034786D01*
X10275557Y-8325870D02*
X11644981Y-8034786D01*
X10566666Y-9695320D02*
X10275557Y-8325870D01*
X11936065Y-9404227D02*
X10566666Y-9695320D01*
X11644981Y-8034786D02*
X11936065Y-9404227D01*
X9781645Y-8430857D02*
X9781645Y-8430857D01*
X8412196Y-8721941D02*
X9781645Y-8430857D01*
X8703280Y-10091390D02*
X8412196Y-8721941D01*
X10072729Y-9800298D02*
X8703280Y-10091390D01*
X9781645Y-8430857D02*
X10072729Y-9800298D01*
X15767485Y-9104660D02*
X15767485Y-9104660D01*
X14398087Y-9395744D02*
X15767485Y-9104660D01*
X14689171Y-10765193D02*
X14398087Y-9395744D01*
X16058569Y-10474109D02*
X14689171Y-10765193D01*
X15767485Y-9104660D02*
X16058569Y-10474109D01*
X13904141Y-9500730D02*
X13904141Y-9500730D01*
X12534743Y-9791814D02*
X13904141Y-9500730D01*
X11857240Y-7795823D02*
X11857240Y-7795823D01*
X11248656Y-6170071D02*
X11248656Y-6170071D01*
X9879207Y-6461155D02*
X11248656Y-6170071D01*
X10170291Y-7830604D02*
X9879207Y-6461155D01*
X11539740Y-7539520D02*
X10170291Y-7830604D01*
X11248656Y-6170071D02*
X11539740Y-7539520D01*
X11957062Y-7695798D02*
X11956941Y-7700749D01*
X11956941Y-7700749D02*
X11956599Y-7705481D01*
X11956599Y-7705481D02*
X11956062Y-7709992D01*
X11956062Y-7709992D02*
X11955313Y-7714517D01*
X11955313Y-7714517D02*
X11954421Y-7718725D01*
X11954421Y-7718725D02*
X11953381Y-7722772D01*
X11953381Y-7722772D02*
X11952221Y-7726624D01*
X11952221Y-7726624D02*
X11950918Y-7730390D01*
X11950918Y-7730390D02*
X11949339Y-7734403D01*
X11949339Y-7734403D02*
X11947804Y-7737882D01*
X11947804Y-7737882D02*
X11946142Y-7741290D01*
X11946142Y-7741290D02*
X11944356Y-7744624D01*
X11944356Y-7744624D02*
X11942292Y-7748138D01*
X11942292Y-7748138D02*
X11940176Y-7751434D01*
X11940176Y-7751434D02*
X11938112Y-7754396D01*
X11938112Y-7754396D02*
X11935946Y-7757279D01*
X11935946Y-7757279D02*
X11933704Y-7760051D01*
X11933704Y-7760051D02*
X11931355Y-7762754D01*
X11931355Y-7762754D02*
X11928860Y-7765424D01*
X11928860Y-7765424D02*
X11926311Y-7767963D01*
X11926311Y-7767963D02*
X11923715Y-7770371D01*
X11923715Y-7770371D02*
X11920834Y-7772856D01*
X11920834Y-7772856D02*
X11918037Y-7775093D01*
X11918037Y-7775093D02*
X11915160Y-7777231D01*
X11915160Y-7777231D02*
X11912159Y-7779297D01*
X11912159Y-7779297D02*
X11908985Y-7781315D01*
X11908985Y-7781315D02*
X11905599Y-7783288D01*
X11905599Y-7783288D02*
X11902267Y-7785062D01*
X11902267Y-7785062D02*
X11898862Y-7786711D01*
X11898862Y-7786711D02*
X11895247Y-7788293D01*
X11895247Y-7788293D02*
X11891561Y-7789733D01*
X11891561Y-7789733D02*
X11887805Y-7791029D01*
X11887805Y-7791029D02*
X11883874Y-7792209D01*
X11883874Y-7792209D02*
X11879802Y-7793247D01*
X11879802Y-7793247D02*
X11875589Y-7794129D01*
X11875589Y-7794129D02*
X11871257Y-7794839D01*
X11871257Y-7794839D02*
X11866768Y-7795371D01*
X11866768Y-7795371D02*
X11861963Y-7795712D01*
X11861963Y-7795712D02*
X11857240Y-7795823D01*
X11857240Y-7595815D02*
X11862122Y-7595933D01*
X11862122Y-7595933D02*
X11866827Y-7596273D01*
X11866827Y-7596273D02*
X11871567Y-7596843D01*
X11871567Y-7596843D02*
X11875857Y-7597561D01*
X11875857Y-7597561D02*
X11880103Y-7598465D01*
X11880103Y-7598465D02*
X11884133Y-7599506D01*
X11884133Y-7599506D02*
X11888096Y-7600709D01*
X11888096Y-7600709D02*
X11891847Y-7602018D01*
X11891847Y-7602018D02*
X11895633Y-7603515D01*
X11895633Y-7603515D02*
X11899275Y-7605128D01*
X11899275Y-7605128D02*
X11902671Y-7606795D01*
X11902671Y-7606795D02*
X11905994Y-7608585D01*
X11905994Y-7608585D02*
X11909209Y-7610476D01*
X11909209Y-7610476D02*
X11912284Y-7612440D01*
X11912284Y-7612440D02*
X11915282Y-7614513D01*
X11915282Y-7614513D02*
X11918260Y-7616736D01*
X11918260Y-7616736D02*
X11921064Y-7618995D01*
X11921064Y-7618995D02*
X11923785Y-7621351D01*
X11923785Y-7621351D02*
X11926743Y-7624114D01*
X11926743Y-7624114D02*
X11929276Y-7626669D01*
X11929276Y-7626669D02*
X11931718Y-7629313D01*
X11931718Y-7629313D02*
X11934065Y-7632043D01*
X11934065Y-7632043D02*
X11936291Y-7634827D01*
X11936291Y-7634827D02*
X11938463Y-7637753D01*
X11938463Y-7637753D02*
X11940509Y-7640728D01*
X11940509Y-7640728D02*
X11942529Y-7643907D01*
X11942529Y-7643907D02*
X11944375Y-7647067D01*
X11944375Y-7647067D02*
X11946142Y-7650366D01*
X11946142Y-7650366D02*
X11947804Y-7653771D01*
X11947804Y-7653771D02*
X11949383Y-7657353D01*
X11949383Y-7657353D02*
X11950852Y-7661078D01*
X11950852Y-7661078D02*
X11952162Y-7664837D01*
X11952162Y-7664837D02*
X11953335Y-7668700D01*
X11953335Y-7668700D02*
X11954372Y-7672702D01*
X11954372Y-7672702D02*
X11955276Y-7676920D01*
X11955276Y-7676920D02*
X11956012Y-7681279D01*
X11956012Y-7681279D02*
X11956568Y-7685818D01*
X11956568Y-7685818D02*
X11956927Y-7690576D01*
X11956927Y-7690576D02*
X11957061Y-7695515D01*
X11957061Y-7695515D02*
X11957062Y-7695798D01*
X11757079Y-7695798D02*
X11757213Y-7690576D01*
X11757213Y-7690576D02*
X11757572Y-7685818D01*
X11757572Y-7685818D02*
X11758127Y-7681279D01*
X11758127Y-7681279D02*
X11758855Y-7676959D01*
X11758855Y-7676959D02*
X11759751Y-7672759D01*
X11759751Y-7672759D02*
X11760796Y-7668719D01*
X11760796Y-7668719D02*
X11761974Y-7664837D01*
X11761974Y-7664837D02*
X11763389Y-7660792D01*
X11763389Y-7660792D02*
X11764957Y-7656862D01*
X11764957Y-7656862D02*
X11766506Y-7653393D01*
X11766506Y-7653393D02*
X11768200Y-7649962D01*
X11768200Y-7649962D02*
X11770000Y-7646639D01*
X11770000Y-7646639D02*
X11771921Y-7643393D01*
X11771921Y-7643393D02*
X11773960Y-7640226D01*
X11773960Y-7640226D02*
X11776025Y-7637265D01*
X11776025Y-7637265D02*
X11778216Y-7634353D01*
X11778216Y-7634353D02*
X11780534Y-7631496D01*
X11780534Y-7631496D02*
X11782928Y-7628755D01*
X11782928Y-7628755D02*
X11785367Y-7626156D01*
X11785367Y-7626156D02*
X11787951Y-7623594D01*
X11787951Y-7623594D02*
X11790598Y-7621151D01*
X11790598Y-7621151D02*
X11793303Y-7618827D01*
X11793303Y-7618827D02*
X11796150Y-7616553D01*
X11796150Y-7616553D02*
X11799295Y-7614229D01*
X11799295Y-7614229D02*
X11802281Y-7612191D01*
X11802281Y-7612191D02*
X11805472Y-7610182D01*
X11805472Y-7610182D02*
X11808693Y-7608318D01*
X11808693Y-7608318D02*
X11812056Y-7606537D01*
X11812056Y-7606537D02*
X11815650Y-7604810D01*
X11815650Y-7604810D02*
X11819286Y-7603239D01*
X11819286Y-7603239D02*
X11822995Y-7601808D01*
X11822995Y-7601808D02*
X11826774Y-7600521D01*
X11826774Y-7600521D02*
X11830730Y-7599352D01*
X11830730Y-7599352D02*
X11834792Y-7598333D01*
X11834792Y-7598333D02*
X11838956Y-7597475D01*
X11838956Y-7597475D02*
X11843337Y-7596769D01*
X11843337Y-7596769D02*
X11847860Y-7596247D01*
X11847860Y-7596247D02*
X11852642Y-7595918D01*
X11852642Y-7595918D02*
X11857240Y-7595815D01*
X11857240Y-7795823D02*
X11852321Y-7795705D01*
X11852321Y-7795705D02*
X11847642Y-7795371D01*
X11847642Y-7795371D02*
X11843103Y-7794837D01*
X11843103Y-7794837D02*
X11838802Y-7794136D01*
X11838802Y-7794136D02*
X11834527Y-7793247D01*
X11834527Y-7793247D02*
X11830321Y-7792178D01*
X11830321Y-7792178D02*
X11826316Y-7790976D01*
X11826316Y-7790976D02*
X11822276Y-7789574D01*
X11822276Y-7789574D02*
X11818669Y-7788154D01*
X11818669Y-7788154D02*
X11814959Y-7786520D01*
X11814959Y-7786520D02*
X11811550Y-7784855D01*
X11811550Y-7784855D02*
X11808247Y-7783085D01*
X11808247Y-7783085D02*
X11805085Y-7781236D01*
X11805085Y-7781236D02*
X11801935Y-7779235D01*
X11801935Y-7779235D02*
X11798668Y-7776979D01*
X11798668Y-7776979D02*
X11795793Y-7774829D01*
X11795793Y-7774829D02*
X11793014Y-7772591D01*
X11793014Y-7772591D02*
X11790304Y-7770246D01*
X11790304Y-7770246D02*
X11787653Y-7767781D01*
X11787653Y-7767781D02*
X11785106Y-7765235D01*
X11785106Y-7765235D02*
X11782664Y-7762614D01*
X11782664Y-7762614D02*
X11780269Y-7759849D01*
X11780269Y-7759849D02*
X11778009Y-7757041D01*
X11778009Y-7757041D02*
X11775674Y-7753908D01*
X11775674Y-7753908D02*
X11773626Y-7750932D01*
X11773626Y-7750932D02*
X11771606Y-7747752D01*
X11771606Y-7747752D02*
X11769704Y-7744492D01*
X11769704Y-7744492D02*
X11767854Y-7741020D01*
X11767854Y-7741020D02*
X11766155Y-7737503D01*
X11766155Y-7737503D02*
X11764619Y-7733981D01*
X11764619Y-7733981D02*
X11763177Y-7730283D01*
X11763177Y-7730283D02*
X11761832Y-7726368D01*
X11761832Y-7726368D02*
X11760677Y-7722493D01*
X11760677Y-7722493D02*
X11759650Y-7718441D01*
X11759650Y-7718441D02*
X11758768Y-7714210D01*
X11758768Y-7714210D02*
X11758061Y-7709875D01*
X11758061Y-7709875D02*
X11757526Y-7705323D01*
X11757526Y-7705323D02*
X11757190Y-7700549D01*
X11757190Y-7700549D02*
X11757079Y-7695798D01*
X15371753Y-7242645D02*
X15371753Y-7242645D01*
X14002270Y-7533729D02*
X15371753Y-7242645D01*
X14293354Y-8903178D02*
X14002270Y-7533729D01*
X15662837Y-8612094D02*
X14293354Y-8903178D01*
X15371753Y-7242645D02*
X15662837Y-8612094D01*
X13508409Y-7638716D02*
X13508409Y-7638716D01*
X15523222Y-5135867D02*
X15523356Y-5130646D01*
X15523356Y-5130646D02*
X15523714Y-5125888D01*
X15523714Y-5125888D02*
X15524270Y-5121349D01*
X15524270Y-5121349D02*
X15524997Y-5117028D01*
X15524997Y-5117028D02*
X15525894Y-5112829D01*
X15525894Y-5112829D02*
X15526923Y-5108844D01*
X15526923Y-5108844D02*
X15528116Y-5104908D01*
X15528116Y-5104908D02*
X15529532Y-5100862D01*
X15529532Y-5100862D02*
X15531100Y-5096933D01*
X15531100Y-5096933D02*
X15532649Y-5093464D01*
X15532649Y-5093464D02*
X15534342Y-5090033D01*
X15534342Y-5090033D02*
X15536152Y-5086694D01*
X15536152Y-5086694D02*
X15538064Y-5083465D01*
X15538064Y-5083465D02*
X15540103Y-5080299D01*
X15540103Y-5080299D02*
X15542168Y-5077337D01*
X15542168Y-5077337D02*
X15544359Y-5074425D01*
X15544359Y-5074425D02*
X15546677Y-5071569D01*
X15546677Y-5071569D02*
X15549033Y-5068869D01*
X15549033Y-5068869D02*
X15551458Y-5066283D01*
X15551458Y-5066283D02*
X15554093Y-5063668D01*
X15554093Y-5063668D02*
X15556740Y-5061225D01*
X15556740Y-5061225D02*
X15559445Y-5058901D01*
X15559445Y-5058901D02*
X15562293Y-5056628D01*
X15562293Y-5056628D02*
X15565438Y-5054304D01*
X15565438Y-5054304D02*
X15568424Y-5052267D01*
X15568424Y-5052267D02*
X15571615Y-5050257D01*
X15571615Y-5050257D02*
X15574836Y-5048394D01*
X15574836Y-5048394D02*
X15578199Y-5046613D01*
X15578199Y-5046613D02*
X15581793Y-5044887D01*
X15581793Y-5044887D02*
X15585429Y-5043315D01*
X15585429Y-5043315D02*
X15589138Y-5041885D01*
X15589138Y-5041885D02*
X15592916Y-5040598D01*
X15592916Y-5040598D02*
X15596873Y-5039429D01*
X15596873Y-5039429D02*
X15600935Y-5038411D01*
X15600935Y-5038411D02*
X15605099Y-5037553D01*
X15605099Y-5037553D02*
X15609480Y-5036847D01*
X15609480Y-5036847D02*
X15614002Y-5036325D01*
X15614002Y-5036325D02*
X15618784Y-5035996D01*
X15618784Y-5035996D02*
X15623383Y-5035893D01*
X15623383Y-5235893D02*
X15618464Y-5235774D01*
X15618464Y-5235774D02*
X15613784Y-5235440D01*
X15613784Y-5235440D02*
X15609246Y-5234906D01*
X15609246Y-5234906D02*
X15604945Y-5234206D01*
X15604945Y-5234206D02*
X15600669Y-5233316D01*
X15600669Y-5233316D02*
X15596463Y-5232248D01*
X15596463Y-5232248D02*
X15592459Y-5231046D01*
X15592459Y-5231046D02*
X15588419Y-5229644D01*
X15588419Y-5229644D02*
X15584811Y-5228223D01*
X15584811Y-5228223D02*
X15581102Y-5226590D01*
X15581102Y-5226590D02*
X15577692Y-5224925D01*
X15577692Y-5224925D02*
X15574390Y-5223155D01*
X15574390Y-5223155D02*
X15571227Y-5221306D01*
X15571227Y-5221306D02*
X15568078Y-5219305D01*
X15568078Y-5219305D02*
X15564810Y-5217048D01*
X15564810Y-5217048D02*
X15561936Y-5214898D01*
X15561936Y-5214898D02*
X15559157Y-5212661D01*
X15559157Y-5212661D02*
X15556446Y-5210316D01*
X15556446Y-5210316D02*
X15553796Y-5207850D01*
X15553796Y-5207850D02*
X15551249Y-5205305D01*
X15551249Y-5205305D02*
X15548807Y-5202684D01*
X15548807Y-5202684D02*
X15546412Y-5199919D01*
X15546412Y-5199919D02*
X15544151Y-5197111D01*
X15544151Y-5197111D02*
X15541816Y-5193977D01*
X15541816Y-5193977D02*
X15539769Y-5191002D01*
X15539769Y-5191002D02*
X15537749Y-5187822D01*
X15537749Y-5187822D02*
X15535847Y-5184562D01*
X15535847Y-5184562D02*
X15533997Y-5181090D01*
X15533997Y-5181090D02*
X15532297Y-5177572D01*
X15532297Y-5177572D02*
X15530762Y-5174051D01*
X15530762Y-5174051D02*
X15529319Y-5170352D01*
X15529319Y-5170352D02*
X15527974Y-5166437D01*
X15527974Y-5166437D02*
X15526819Y-5162563D01*
X15526819Y-5162563D02*
X15525792Y-5158511D01*
X15525792Y-5158511D02*
X15524910Y-5154279D01*
X15524910Y-5154279D02*
X15524203Y-5149945D01*
X15524203Y-5149945D02*
X15523669Y-5145392D01*
X15523669Y-5145392D02*
X15523332Y-5140619D01*
X15523332Y-5140619D02*
X15523222Y-5135867D01*
X14975344Y-5377929D02*
X14975344Y-5377929D01*
X13605945Y-5669013D02*
X14975344Y-5377929D01*
X13897029Y-7038463D02*
X13605945Y-5669013D01*
X15266513Y-6747379D02*
X13897029Y-7038463D01*
X14975344Y-5377929D02*
X15266513Y-6747379D01*
X9900729Y-5917976D02*
X9900608Y-5922926D01*
X9900608Y-5922926D02*
X9900266Y-5927657D01*
X9900266Y-5927657D02*
X9899729Y-5932168D01*
X9899729Y-5932168D02*
X9899009Y-5936538D01*
X9899009Y-5936538D02*
X9898138Y-5940692D01*
X9898138Y-5940692D02*
X9897107Y-5944742D01*
X9897107Y-5944742D02*
X9895926Y-5948688D01*
X9895926Y-5948688D02*
X9894628Y-5952456D01*
X9894628Y-5952456D02*
X9893185Y-5956154D01*
X9893185Y-5956154D02*
X9891650Y-5959676D01*
X9891650Y-5959676D02*
X9890002Y-5963091D01*
X9890002Y-5963091D02*
X9888028Y-5966796D01*
X9888028Y-5966796D02*
X9886044Y-5970181D01*
X9886044Y-5970181D02*
X9884016Y-5973355D01*
X9884016Y-5973355D02*
X9881962Y-5976323D01*
X9881962Y-5976323D02*
X9879805Y-5979212D01*
X9879805Y-5979212D02*
X9877548Y-5982020D01*
X9877548Y-5982020D02*
X9875181Y-5984757D01*
X9875181Y-5984757D02*
X9872745Y-5987379D01*
X9872745Y-5987379D02*
X9870204Y-5989925D01*
X9870204Y-5989925D02*
X9867573Y-5992379D01*
X9867573Y-5992379D02*
X9864857Y-5994737D01*
X9864857Y-5994737D02*
X9862070Y-5996987D01*
X9862070Y-5996987D02*
X9859204Y-5999137D01*
X9859204Y-5999137D02*
X9856213Y-6001217D01*
X9856213Y-6001217D02*
X9853032Y-6003258D01*
X9853032Y-6003258D02*
X9849836Y-6005144D01*
X9849836Y-6005144D02*
X9846332Y-6007033D01*
X9846332Y-6007033D02*
X9842953Y-6008690D01*
X9842953Y-6008690D02*
X9839451Y-6010243D01*
X9839451Y-6010243D02*
X9835792Y-6011697D01*
X9835792Y-6011697D02*
X9831809Y-6013092D01*
X9831809Y-6013092D02*
X9827957Y-6014264D01*
X9827957Y-6014264D02*
X9823778Y-6015345D01*
X9823778Y-6015345D02*
X9819512Y-6016251D01*
X9819512Y-6016251D02*
X9815182Y-6016973D01*
X9815182Y-6016973D02*
X9810517Y-6017533D01*
X9810517Y-6017533D02*
X9805632Y-6017882D01*
X9805632Y-6017882D02*
X9800907Y-6017992D01*
X9800907Y-5817993D02*
X9805831Y-5818113D01*
X9805831Y-5818113D02*
X9810498Y-5818451D01*
X9810498Y-5818451D02*
X9815240Y-5819021D01*
X9815240Y-5819021D02*
X9819569Y-5819746D01*
X9819569Y-5819746D02*
X9823778Y-5820642D01*
X9823778Y-5820642D02*
X9827809Y-5821683D01*
X9827809Y-5821683D02*
X9831773Y-5822886D01*
X9831773Y-5822886D02*
X9835667Y-5824248D01*
X9835667Y-5824248D02*
X9839311Y-5825692D01*
X9839311Y-5825692D02*
X9842953Y-5827305D01*
X9842953Y-5827305D02*
X9846349Y-5828971D01*
X9846349Y-5828971D02*
X9849672Y-5830761D01*
X9849672Y-5830761D02*
X9852887Y-5832652D01*
X9852887Y-5832652D02*
X9855962Y-5834616D01*
X9855962Y-5834616D02*
X9858960Y-5836688D01*
X9858960Y-5836688D02*
X9861937Y-5838912D01*
X9861937Y-5838912D02*
X9864742Y-5841170D01*
X9864742Y-5841170D02*
X9867462Y-5843525D01*
X9867462Y-5843525D02*
X9870419Y-5846289D01*
X9870419Y-5846289D02*
X9872952Y-5848843D01*
X9872952Y-5848843D02*
X9875394Y-5851487D01*
X9875394Y-5851487D02*
X9877740Y-5854217D01*
X9877740Y-5854217D02*
X9879966Y-5857002D01*
X9879966Y-5857002D02*
X9882137Y-5859927D01*
X9882137Y-5859927D02*
X9884193Y-5862917D01*
X9884193Y-5862917D02*
X9886201Y-5866081D01*
X9886201Y-5866081D02*
X9888047Y-5869241D01*
X9888047Y-5869241D02*
X9889814Y-5872540D01*
X9889814Y-5872540D02*
X9891475Y-5875946D01*
X9891475Y-5875946D02*
X9893054Y-5879527D01*
X9893054Y-5879527D02*
X9894522Y-5883252D01*
X9894522Y-5883252D02*
X9895831Y-5887012D01*
X9895831Y-5887012D02*
X9897004Y-5890875D01*
X9897004Y-5890875D02*
X9898041Y-5894877D01*
X9898041Y-5894877D02*
X9898944Y-5899096D01*
X9898944Y-5899096D02*
X9899679Y-5903455D01*
X9899679Y-5903455D02*
X9900235Y-5907994D01*
X9900235Y-5907994D02*
X9900594Y-5912753D01*
X9900594Y-5912753D02*
X9900728Y-5917733D01*
X9900728Y-5917733D02*
X9900729Y-5917976D01*
X9700729Y-5917976D02*
X9700846Y-5913092D01*
X9700846Y-5913092D02*
X9701192Y-5908310D01*
X9701192Y-5908310D02*
X9701728Y-5903805D01*
X9701728Y-5903805D02*
X9702449Y-5899440D01*
X9702449Y-5899440D02*
X9703338Y-5895217D01*
X9703338Y-5895217D02*
X9704372Y-5891172D01*
X9704372Y-5891172D02*
X9705570Y-5887194D01*
X9705570Y-5887194D02*
X9706887Y-5883396D01*
X9706887Y-5883396D02*
X9708453Y-5879422D01*
X9708453Y-5879422D02*
X9709990Y-5875946D01*
X9709990Y-5875946D02*
X9711653Y-5872540D01*
X9711653Y-5872540D02*
X9713441Y-5869208D01*
X9713441Y-5869208D02*
X9715290Y-5866049D01*
X9715290Y-5866049D02*
X9717376Y-5862776D01*
X9717376Y-5862776D02*
X9719429Y-5859805D01*
X9719429Y-5859805D02*
X9721586Y-5856912D01*
X9721586Y-5856912D02*
X9723940Y-5853986D01*
X9723940Y-5853986D02*
X9726299Y-5851263D01*
X9726299Y-5851263D02*
X9728728Y-5848654D01*
X9728728Y-5848654D02*
X9731301Y-5846080D01*
X9731301Y-5846080D02*
X9733938Y-5843626D01*
X9733938Y-5843626D02*
X9736634Y-5841290D01*
X9736634Y-5841290D02*
X9739799Y-5838751D01*
X9739799Y-5838751D02*
X9742975Y-5836404D01*
X9742975Y-5836404D02*
X9745961Y-5834367D01*
X9745961Y-5834367D02*
X9749250Y-5832299D01*
X9749250Y-5832299D02*
X9752557Y-5830393D01*
X9752557Y-5830393D02*
X9755874Y-5828645D01*
X9755874Y-5828645D02*
X9759332Y-5826987D01*
X9759332Y-5826987D02*
X9762968Y-5825415D01*
X9762968Y-5825415D02*
X9766677Y-5823984D01*
X9766677Y-5823984D02*
X9770455Y-5822698D01*
X9770455Y-5822698D02*
X9774448Y-5821519D01*
X9774448Y-5821519D02*
X9778471Y-5820511D01*
X9778471Y-5820511D02*
X9782672Y-5819646D01*
X9782672Y-5819646D02*
X9787286Y-5818909D01*
X9787286Y-5818909D02*
X9791810Y-5818399D01*
X9791810Y-5818399D02*
X9796532Y-5818086D01*
X9796532Y-5818086D02*
X9800907Y-5817993D01*
X9800907Y-6017992D02*
X9795991Y-6017874D01*
X9795991Y-6017874D02*
X9791216Y-6017531D01*
X9791216Y-6017531D02*
X9786662Y-6016990D01*
X9786662Y-6016990D02*
X9782364Y-6016284D01*
X9782364Y-6016284D02*
X9778092Y-6015390D01*
X9778092Y-6015390D02*
X9774001Y-6014347D01*
X9774001Y-6014347D02*
X9769997Y-6013145D01*
X9769997Y-6013145D02*
X9765958Y-6011743D01*
X9765958Y-6011743D02*
X9762351Y-6010323D01*
X9762351Y-6010323D02*
X9758642Y-6008690D01*
X9758642Y-6008690D02*
X9755232Y-6007025D01*
X9755232Y-6007025D02*
X9751896Y-6005236D01*
X9751896Y-6005236D02*
X9748669Y-6003347D01*
X9748669Y-6003347D02*
X9745584Y-6001384D01*
X9745584Y-6001384D02*
X9742485Y-5999247D01*
X9742485Y-5999247D02*
X9739590Y-5997091D01*
X9739590Y-5997091D02*
X9736778Y-5994834D01*
X9736778Y-5994834D02*
X9734078Y-5992504D01*
X9734078Y-5992504D02*
X9731450Y-5990068D01*
X9731450Y-5990068D02*
X9728858Y-5987487D01*
X9728858Y-5987487D02*
X9726425Y-5984882D01*
X9726425Y-5984882D02*
X9724036Y-5982135D01*
X9724036Y-5982135D02*
X9721770Y-5979331D01*
X9721770Y-5979331D02*
X9719605Y-5976445D01*
X9719605Y-5976445D02*
X9717459Y-5973355D01*
X9717459Y-5973355D02*
X9715428Y-5970181D01*
X9715428Y-5970181D02*
X9713570Y-5967026D01*
X9713570Y-5967026D02*
X9711792Y-5963732D01*
X9711792Y-5963732D02*
X9710118Y-5960330D01*
X9710118Y-5960330D02*
X9708409Y-5956471D01*
X9708409Y-5956471D02*
X9706993Y-5952886D01*
X9706993Y-5952886D02*
X9705689Y-5949163D01*
X9705689Y-5949163D02*
X9704498Y-5945262D01*
X9704498Y-5945262D02*
X9703463Y-5941296D01*
X9703463Y-5941296D02*
X9702566Y-5937152D01*
X9702566Y-5937152D02*
X9701830Y-5932869D01*
X9701830Y-5932869D02*
X9701266Y-5928407D01*
X9701266Y-5928407D02*
X9700889Y-5923686D01*
X9700889Y-5923686D02*
X9700732Y-5918744D01*
X9700732Y-5918744D02*
X9700729Y-5917976D01*
X13112000Y-5774000D02*
X13112000Y-5774000D01*
X11742601Y-6065084D02*
X13112000Y-5774000D01*
X12033685Y-7434533D02*
X11742601Y-6065084D01*
X13403084Y-7143449D02*
X12033685Y-7434533D01*
X13112000Y-5774000D02*
X13403084Y-7143449D01*
D11*
X16771000Y-14601000D02*
X16981000Y-14811000D01*
X16981000Y-14601000D02*
X16771000Y-14811000D01*
X9244000Y-15511000D02*
X9454000Y-15721000D01*
X9454000Y-15511000D02*
X9244000Y-15721000D01*
X11753000Y-7591000D02*
X11963000Y-7801000D01*
X11963000Y-7591000D02*
X11753000Y-7801000D01*
X12941000Y-13181000D02*
X13151000Y-13391000D01*
X13151000Y-13181000D02*
X12941000Y-13391000D01*
X9696000Y-5813000D02*
X9906000Y-6023000D01*
X9906000Y-5813000D02*
X9696000Y-6023000D01*
X15518000Y-5031000D02*
X15728000Y-5241000D01*
X15728000Y-5031000D02*
X15518000Y-5241000D01*
D12*
X8388522Y-16386983D02*
X8388522Y-16086983D01*
X8459950Y-16086983D01*
X8502807Y-16101268D01*
X8531379Y-16129840D01*
X8545665Y-16158411D01*
X8559950Y-16215554D01*
X8559950Y-16258411D01*
X8545665Y-16315554D01*
X8531379Y-16344126D01*
X8502807Y-16372697D01*
X8459950Y-16386983D01*
X8388522Y-16386983D01*
X8688522Y-16386983D02*
X8688522Y-16186983D01*
X8688522Y-16244126D02*
X8702807Y-16215554D01*
X8717093Y-16201268D01*
X8745665Y-16186983D01*
X8774236Y-16186983D01*
X8874236Y-16386983D02*
X8874236Y-16186983D01*
X8874236Y-16086983D02*
X8859950Y-16101268D01*
X8874236Y-16115554D01*
X8888522Y-16101268D01*
X8874236Y-16086983D01*
X8874236Y-16115554D01*
X9059950Y-16386983D02*
X9031379Y-16372697D01*
X9017093Y-16344126D01*
X9017093Y-16086983D01*
X9217093Y-16386983D02*
X9188522Y-16372697D01*
X9174236Y-16344126D01*
X9174236Y-16086983D01*
X9559950Y-16386983D02*
X9559950Y-16086983D01*
X9659950Y-16301268D01*
X9759950Y-16086983D01*
X9759950Y-16386983D01*
X10031379Y-16386983D02*
X10031379Y-16229840D01*
X10017093Y-16201268D01*
X9988522Y-16186983D01*
X9931379Y-16186983D01*
X9902807Y-16201268D01*
X10031379Y-16372697D02*
X10002807Y-16386983D01*
X9931379Y-16386983D01*
X9902807Y-16372697D01*
X9888522Y-16344126D01*
X9888522Y-16315554D01*
X9902807Y-16286983D01*
X9931379Y-16272697D01*
X10002807Y-16272697D01*
X10031379Y-16258411D01*
X10174236Y-16186983D02*
X10174236Y-16486983D01*
X10174236Y-16201268D02*
X10202807Y-16186983D01*
X10259950Y-16186983D01*
X10288522Y-16201268D01*
X10302807Y-16215554D01*
X10317093Y-16244126D01*
X10317093Y-16329840D01*
X10302807Y-16358411D01*
X10288522Y-16372697D01*
X10259950Y-16386983D01*
X10202807Y-16386983D01*
X10174236Y-16372697D01*
X10445665Y-16358411D02*
X10459950Y-16372697D01*
X10445665Y-16386983D01*
X10431379Y-16372697D01*
X10445665Y-16358411D01*
X10445665Y-16386983D01*
X10445665Y-16201268D02*
X10459950Y-16215554D01*
X10445665Y-16229840D01*
X10431379Y-16215554D01*
X10445665Y-16201268D01*
X10445665Y-16229840D01*
X7892093Y-16776268D02*
X8102093Y-16986269D01*
X8102093Y-16776268D02*
X7892093Y-16986269D01*
X8374236Y-16745554D02*
X8388522Y-16731268D01*
X8417093Y-16716983D01*
X8488522Y-16716983D01*
X8517093Y-16731268D01*
X8531379Y-16745554D01*
X8545665Y-16774126D01*
X8545665Y-16802697D01*
X8531379Y-16845554D01*
X8359950Y-17016983D01*
X8545665Y-17016983D01*
X8674236Y-16988411D02*
X8688522Y-17002697D01*
X8674236Y-17016983D01*
X8659950Y-17002697D01*
X8674236Y-16988411D01*
X8674236Y-17016983D01*
X8974236Y-17016983D02*
X8802807Y-17016983D01*
X8888522Y-17016983D02*
X8888522Y-16716983D01*
X8859950Y-16759840D01*
X8831379Y-16788411D01*
X8802807Y-16802697D01*
X9159950Y-16716983D02*
X9188522Y-16716983D01*
X9217093Y-16731268D01*
X9231379Y-16745554D01*
X9245665Y-16774126D01*
X9259950Y-16831269D01*
X9259950Y-16902697D01*
X9245665Y-16959840D01*
X9231379Y-16988411D01*
X9217093Y-17002697D01*
X9188522Y-17016983D01*
X9159950Y-17016983D01*
X9131379Y-17002697D01*
X9117093Y-16988411D01*
X9102807Y-16959840D01*
X9088522Y-16902697D01*
X9088522Y-16831269D01*
X9102807Y-16774126D01*
X9117093Y-16745554D01*
X9131379Y-16731268D01*
X9159950Y-16716983D01*
X9388522Y-17016983D02*
X9388522Y-16816983D01*
X9388522Y-16845554D02*
X9402807Y-16831269D01*
X9431379Y-16816983D01*
X9474236Y-16816983D01*
X9502807Y-16831269D01*
X9517093Y-16859840D01*
X9517093Y-17016983D01*
X9517093Y-16859840D02*
X9531379Y-16831269D01*
X9559950Y-16816983D01*
X9602807Y-16816983D01*
X9631379Y-16831269D01*
X9645665Y-16859840D01*
X9645665Y-17016983D01*
X9788522Y-17016983D02*
X9788522Y-16816983D01*
X9788522Y-16845554D02*
X9802807Y-16831269D01*
X9831379Y-16816983D01*
X9874236Y-16816983D01*
X9902807Y-16831269D01*
X9917093Y-16859840D01*
X9917093Y-17016983D01*
X9917093Y-16859840D02*
X9931379Y-16831269D01*
X9959950Y-16816983D01*
X10002807Y-16816983D01*
X10031379Y-16831269D01*
X10045665Y-16859840D01*
X10045665Y-17016983D01*
X10631379Y-16702697D02*
X10374236Y-17088411D01*
X11017093Y-16716983D02*
X11045665Y-16716983D01*
X11074236Y-16731268D01*
X11088522Y-16745554D01*
X11102807Y-16774126D01*
X11117093Y-16831269D01*
X11117093Y-16902697D01*
X11102807Y-16959840D01*
X11088522Y-16988411D01*
X11074236Y-17002697D01*
X11045665Y-17016983D01*
X11017093Y-17016983D01*
X10988522Y-17002697D01*
X10974236Y-16988411D01*
X10959950Y-16959840D01*
X10945665Y-16902697D01*
X10945665Y-16831269D01*
X10959950Y-16774126D01*
X10974236Y-16745554D01*
X10988522Y-16731268D01*
X11017093Y-16716983D01*
X11245664Y-16988411D02*
X11259950Y-17002697D01*
X11245664Y-17016983D01*
X11231379Y-17002697D01*
X11245664Y-16988411D01*
X11245664Y-17016983D01*
X11445664Y-16716983D02*
X11474236Y-16716983D01*
X11502807Y-16731268D01*
X11517093Y-16745554D01*
X11531379Y-16774126D01*
X11545664Y-16831269D01*
X11545664Y-16902697D01*
X11531379Y-16959840D01*
X11517093Y-16988411D01*
X11502807Y-17002697D01*
X11474236Y-17016983D01*
X11445664Y-17016983D01*
X11417093Y-17002697D01*
X11402807Y-16988411D01*
X11388522Y-16959840D01*
X11374236Y-16902697D01*
X11374236Y-16831269D01*
X11388522Y-16774126D01*
X11402807Y-16745554D01*
X11417093Y-16731268D01*
X11445664Y-16716983D01*
X11717093Y-16845554D02*
X11688522Y-16831269D01*
X11674236Y-16816983D01*
X11659950Y-16788411D01*
X11659950Y-16774126D01*
X11674236Y-16745554D01*
X11688522Y-16731268D01*
X11717093Y-16716983D01*
X11774236Y-16716983D01*
X11802807Y-16731268D01*
X11817093Y-16745554D01*
X11831379Y-16774126D01*
X11831379Y-16788411D01*
X11817093Y-16816983D01*
X11802807Y-16831269D01*
X11774236Y-16845554D01*
X11717093Y-16845554D01*
X11688522Y-16859840D01*
X11674236Y-16874126D01*
X11659950Y-16902697D01*
X11659950Y-16959840D01*
X11674236Y-16988411D01*
X11688522Y-17002697D01*
X11717093Y-17016983D01*
X11774236Y-17016983D01*
X11802807Y-17002697D01*
X11817093Y-16988411D01*
X11831379Y-16959840D01*
X11831379Y-16902697D01*
X11817093Y-16874126D01*
X11802807Y-16859840D01*
X11774236Y-16845554D01*
X11931379Y-16716983D02*
X12117093Y-16716983D01*
X12017093Y-16831269D01*
X12059950Y-16831269D01*
X12088522Y-16845554D01*
X12102807Y-16859840D01*
X12117093Y-16888411D01*
X12117093Y-16959840D01*
X12102807Y-16988411D01*
X12088522Y-17002697D01*
X12059950Y-17016983D01*
X11974236Y-17016983D01*
X11945664Y-17002697D01*
X11931379Y-16988411D01*
X12231379Y-16716983D02*
X12231379Y-16774126D01*
X12345664Y-16716983D02*
X12345664Y-16774126D01*
X12788522Y-17131269D02*
X12774236Y-17116983D01*
X12745664Y-17074126D01*
X12731379Y-17045554D01*
X12717093Y-17002697D01*
X12702807Y-16931269D01*
X12702807Y-16874126D01*
X12717093Y-16802697D01*
X12731379Y-16759840D01*
X12745664Y-16731268D01*
X12774236Y-16688411D01*
X12788522Y-16674126D01*
X13031379Y-16716983D02*
X12974236Y-16716983D01*
X12945664Y-16731268D01*
X12931379Y-16745554D01*
X12902807Y-16788411D01*
X12888522Y-16845554D01*
X12888522Y-16959840D01*
X12902807Y-16988411D01*
X12917093Y-17002697D01*
X12945664Y-17016983D01*
X13002807Y-17016983D01*
X13031379Y-17002697D01*
X13045664Y-16988411D01*
X13059950Y-16959840D01*
X13059950Y-16888411D01*
X13045664Y-16859840D01*
X13031379Y-16845554D01*
X13002807Y-16831269D01*
X12945664Y-16831269D01*
X12917093Y-16845554D01*
X12902807Y-16859840D01*
X12888522Y-16888411D01*
X13417093Y-17016983D02*
X13417093Y-16716983D01*
X13545664Y-17016983D02*
X13545664Y-16859840D01*
X13531379Y-16831269D01*
X13502807Y-16816983D01*
X13459950Y-16816983D01*
X13431379Y-16831269D01*
X13417093Y-16845554D01*
X13731379Y-17016983D02*
X13702807Y-17002697D01*
X13688522Y-16988411D01*
X13674236Y-16959840D01*
X13674236Y-16874126D01*
X13688522Y-16845554D01*
X13702807Y-16831269D01*
X13731379Y-16816983D01*
X13774236Y-16816983D01*
X13802807Y-16831269D01*
X13817093Y-16845554D01*
X13831379Y-16874126D01*
X13831379Y-16959840D01*
X13817093Y-16988411D01*
X13802807Y-17002697D01*
X13774236Y-17016983D01*
X13731379Y-17016983D01*
X14002807Y-17016983D02*
X13974236Y-17002697D01*
X13959950Y-16974126D01*
X13959950Y-16716983D01*
X14231379Y-17002697D02*
X14202807Y-17016983D01*
X14145664Y-17016983D01*
X14117093Y-17002697D01*
X14102807Y-16974126D01*
X14102807Y-16859840D01*
X14117093Y-16831269D01*
X14145664Y-16816983D01*
X14202807Y-16816983D01*
X14231379Y-16831269D01*
X14245664Y-16859840D01*
X14245664Y-16888411D01*
X14102807Y-16916983D01*
X14359950Y-17002697D02*
X14388522Y-17016983D01*
X14445664Y-17016983D01*
X14474236Y-17002697D01*
X14488522Y-16974126D01*
X14488522Y-16959840D01*
X14474236Y-16931269D01*
X14445664Y-16916983D01*
X14402807Y-16916983D01*
X14374236Y-16902697D01*
X14359950Y-16874126D01*
X14359950Y-16859840D01*
X14374236Y-16831269D01*
X14402807Y-16816983D01*
X14445664Y-16816983D01*
X14474236Y-16831269D01*
X14588522Y-17131269D02*
X14602807Y-17116983D01*
X14631379Y-17074126D01*
X14645664Y-17045554D01*
X14659950Y-17002697D01*
X14674236Y-16931269D01*
X14674236Y-16874126D01*
X14659950Y-16802697D01*
X14645664Y-16759840D01*
X14631379Y-16731268D01*
X14602807Y-16688411D01*
X14588522Y-16674126D01*
X15131379Y-17131269D02*
X15117093Y-17116983D01*
X15088522Y-17074126D01*
X15074236Y-17045554D01*
X15059950Y-17002697D01*
X15045664Y-16931269D01*
X15045664Y-16874126D01*
X15059950Y-16802697D01*
X15074236Y-16759840D01*
X15088522Y-16731268D01*
X15117093Y-16688411D01*
X15131379Y-16674126D01*
X15245664Y-16816983D02*
X15245664Y-17016983D01*
X15245664Y-16845554D02*
X15259950Y-16831269D01*
X15288522Y-16816983D01*
X15331379Y-16816983D01*
X15359950Y-16831269D01*
X15374236Y-16859840D01*
X15374236Y-17016983D01*
X15559950Y-17016983D02*
X15531379Y-17002697D01*
X15517093Y-16988411D01*
X15502807Y-16959840D01*
X15502807Y-16874126D01*
X15517093Y-16845554D01*
X15531379Y-16831269D01*
X15559950Y-16816983D01*
X15602807Y-16816983D01*
X15631379Y-16831269D01*
X15645664Y-16845554D01*
X15659950Y-16874126D01*
X15659950Y-16959840D01*
X15645664Y-16988411D01*
X15631379Y-17002697D01*
X15602807Y-17016983D01*
X15559950Y-17016983D01*
X15745664Y-16816983D02*
X15859950Y-16816983D01*
X15788522Y-16716983D02*
X15788522Y-16974126D01*
X15802807Y-17002697D01*
X15831379Y-17016983D01*
X15859950Y-17016983D01*
X16188522Y-16816983D02*
X16188522Y-17116983D01*
X16188522Y-16831269D02*
X16217093Y-16816983D01*
X16274236Y-16816983D01*
X16302807Y-16831269D01*
X16317093Y-16845554D01*
X16331379Y-16874126D01*
X16331379Y-16959840D01*
X16317093Y-16988411D01*
X16302807Y-17002697D01*
X16274236Y-17016983D01*
X16217093Y-17016983D01*
X16188522Y-17002697D01*
X16502807Y-17016983D02*
X16474236Y-17002697D01*
X16459950Y-16974126D01*
X16459950Y-16716983D01*
X16745664Y-17016983D02*
X16745664Y-16859840D01*
X16731379Y-16831269D01*
X16702807Y-16816983D01*
X16645664Y-16816983D01*
X16617093Y-16831269D01*
X16745664Y-17002697D02*
X16717093Y-17016983D01*
X16645664Y-17016983D01*
X16617093Y-17002697D01*
X16602807Y-16974126D01*
X16602807Y-16945554D01*
X16617093Y-16916983D01*
X16645664Y-16902697D01*
X16717093Y-16902697D01*
X16745664Y-16888411D01*
X16845665Y-16816983D02*
X16959950Y-16816983D01*
X16888522Y-16716983D02*
X16888522Y-16974126D01*
X16902807Y-17002697D01*
X16931379Y-17016983D01*
X16959950Y-17016983D01*
X17174236Y-17002697D02*
X17145665Y-17016983D01*
X17088522Y-17016983D01*
X17059950Y-17002697D01*
X17045665Y-16974126D01*
X17045665Y-16859840D01*
X17059950Y-16831269D01*
X17088522Y-16816983D01*
X17145665Y-16816983D01*
X17174236Y-16831269D01*
X17188522Y-16859840D01*
X17188522Y-16888411D01*
X17045665Y-16916983D01*
X17445665Y-17016983D02*
X17445665Y-16716983D01*
X17445665Y-17002697D02*
X17417093Y-17016983D01*
X17359950Y-17016983D01*
X17331379Y-17002697D01*
X17317093Y-16988411D01*
X17302807Y-16959840D01*
X17302807Y-16874126D01*
X17317093Y-16845554D01*
X17331379Y-16831269D01*
X17359950Y-16816983D01*
X17417093Y-16816983D01*
X17445665Y-16831269D01*
X17559950Y-17131269D02*
X17574236Y-17116983D01*
X17602807Y-17074126D01*
X17617093Y-17045554D01*
X17631379Y-17002697D01*
X17645665Y-16931269D01*
X17645665Y-16874126D01*
X17631379Y-16802697D01*
X17617093Y-16759840D01*
X17602807Y-16731268D01*
X17574236Y-16688411D01*
X17559950Y-16674126D01*
M02*
