G04 #@! TF.GenerationSoftware,KiCad,Pcbnew,(5.1.5-0-10_14)*
G04 #@! TF.CreationDate,2020-05-14T06:03:50+09:00*
G04 #@! TF.ProjectId,Colice,436f6c69-6365-42e6-9b69-6361645f7063,rev?*
G04 #@! TF.SameCoordinates,Original*
G04 #@! TF.FileFunction,Legend,Bot*
G04 #@! TF.FilePolarity,Positive*
%FSLAX46Y46*%
G04 Gerber Fmt 4.6, Leading zero omitted, Abs format (unit mm)*
G04 Created by KiCad (PCBNEW (5.1.5-0-10_14)) date 2020-05-14 06:03:50*
%MOMM*%
%LPD*%
G04 APERTURE LIST*
%ADD10C,0.150000*%
%ADD11C,0.120000*%
%ADD12C,0.125000*%
G04 APERTURE END LIST*
D10*
X198268750Y-74281500D02*
X199278750Y-74281500D01*
X216068750Y-74281500D02*
X215068750Y-74281500D01*
X198268750Y-73281500D02*
X198268750Y-74281500D01*
X216068750Y-73231500D02*
X216068750Y-74281500D01*
X198268750Y-41231500D02*
X199218750Y-41231500D01*
X216068750Y-41231500D02*
X215068750Y-41231500D01*
X198268750Y-41231500D02*
X198268750Y-42231500D01*
X216068750Y-41231500D02*
X216068750Y-42231500D01*
X210918750Y-38331500D02*
X210918750Y-39631500D01*
X210918750Y-39631500D02*
X203418750Y-39631500D01*
X203418750Y-39631500D02*
X203418750Y-38331500D01*
X203418750Y-38331500D02*
X210918750Y-38331500D01*
X207668750Y-38681500D02*
X206668750Y-38681500D01*
X206668750Y-38681500D02*
X207168750Y-39331500D01*
X207168750Y-39331500D02*
X207668750Y-38681500D01*
X207518750Y-38831500D02*
X206818750Y-38831500D01*
X207418750Y-38981500D02*
X206918750Y-38981500D01*
X207318750Y-39131500D02*
X207018750Y-39131500D01*
X226474000Y-132957000D02*
X226474000Y-131457000D01*
X221074000Y-132957000D02*
X226474000Y-132957000D01*
X221074000Y-131457000D02*
X221074000Y-132957000D01*
X226474000Y-131457000D02*
X221074000Y-131457000D01*
X223274000Y-131707000D02*
X223274000Y-132707000D01*
X224274000Y-132707000D02*
X223374000Y-132207000D01*
X224274000Y-131707000D02*
X224274000Y-132707000D01*
X223374000Y-132207000D02*
X224274000Y-131707000D01*
X232518000Y-91440000D02*
X233418000Y-90940000D01*
X233418000Y-90940000D02*
X233418000Y-91940000D01*
X233418000Y-91940000D02*
X232518000Y-91440000D01*
X232418000Y-90940000D02*
X232418000Y-91940000D01*
X235618000Y-90690000D02*
X230218000Y-90690000D01*
X230218000Y-90690000D02*
X230218000Y-92190000D01*
X230218000Y-92190000D02*
X235618000Y-92190000D01*
X235618000Y-92190000D02*
X235618000Y-90690000D01*
X209964000Y-87491000D02*
X209964000Y-85991000D01*
X204564000Y-87491000D02*
X209964000Y-87491000D01*
X204564000Y-85991000D02*
X204564000Y-87491000D01*
X209964000Y-85991000D02*
X204564000Y-85991000D01*
X206764000Y-86241000D02*
X206764000Y-87241000D01*
X207764000Y-87241000D02*
X206864000Y-86741000D01*
X207764000Y-86241000D02*
X207764000Y-87241000D01*
X206864000Y-86741000D02*
X207764000Y-86241000D01*
X188374000Y-63742000D02*
X188374000Y-62242000D01*
X182974000Y-63742000D02*
X188374000Y-63742000D01*
X182974000Y-62242000D02*
X182974000Y-63742000D01*
X188374000Y-62242000D02*
X182974000Y-62242000D01*
X185174000Y-62492000D02*
X185174000Y-63492000D01*
X186174000Y-63492000D02*
X185274000Y-62992000D01*
X186174000Y-62492000D02*
X186174000Y-63492000D01*
X185274000Y-62992000D02*
X186174000Y-62492000D01*
X233840000Y-75680000D02*
X233840000Y-74180000D01*
X228440000Y-75680000D02*
X233840000Y-75680000D01*
X228440000Y-74180000D02*
X228440000Y-75680000D01*
X233840000Y-74180000D02*
X228440000Y-74180000D01*
X230640000Y-74430000D02*
X230640000Y-75430000D01*
X231640000Y-75430000D02*
X230740000Y-74930000D01*
X231640000Y-74430000D02*
X231640000Y-75430000D01*
X230740000Y-74930000D02*
X231640000Y-74430000D01*
X209964000Y-68568000D02*
X209964000Y-67068000D01*
X204564000Y-68568000D02*
X209964000Y-68568000D01*
X204564000Y-67068000D02*
X204564000Y-68568000D01*
X209964000Y-67068000D02*
X204564000Y-67068000D01*
X206764000Y-67318000D02*
X206764000Y-68318000D01*
X207764000Y-68318000D02*
X206864000Y-67818000D01*
X207764000Y-67318000D02*
X207764000Y-68318000D01*
X206864000Y-67818000D02*
X207764000Y-67318000D01*
X207678000Y-106668000D02*
X207678000Y-105168000D01*
X202278000Y-106668000D02*
X207678000Y-106668000D01*
X202278000Y-105168000D02*
X202278000Y-106668000D01*
X207678000Y-105168000D02*
X202278000Y-105168000D01*
X204478000Y-105418000D02*
X204478000Y-106418000D01*
X205478000Y-106418000D02*
X204578000Y-105918000D01*
X205478000Y-105418000D02*
X205478000Y-106418000D01*
X204578000Y-105918000D02*
X205478000Y-105418000D01*
X212377000Y-125718000D02*
X212377000Y-124218000D01*
X206977000Y-125718000D02*
X212377000Y-125718000D01*
X206977000Y-124218000D02*
X206977000Y-125718000D01*
X212377000Y-124218000D02*
X206977000Y-124218000D01*
X209177000Y-124468000D02*
X209177000Y-125468000D01*
X210177000Y-125468000D02*
X209277000Y-124968000D01*
X210177000Y-124468000D02*
X210177000Y-125468000D01*
X209277000Y-124968000D02*
X210177000Y-124468000D01*
X207678000Y-128258000D02*
X207678000Y-126758000D01*
X202278000Y-128258000D02*
X207678000Y-128258000D01*
X202278000Y-126758000D02*
X202278000Y-128258000D01*
X207678000Y-126758000D02*
X202278000Y-126758000D01*
X204478000Y-127008000D02*
X204478000Y-128008000D01*
X205478000Y-128008000D02*
X204578000Y-127508000D01*
X205478000Y-127008000D02*
X205478000Y-128008000D01*
X204578000Y-127508000D02*
X205478000Y-127008000D01*
X188374000Y-82792000D02*
X188374000Y-81292000D01*
X182974000Y-82792000D02*
X188374000Y-82792000D01*
X182974000Y-81292000D02*
X182974000Y-82792000D01*
X188374000Y-81292000D02*
X182974000Y-81292000D01*
X185174000Y-81542000D02*
X185174000Y-82542000D01*
X186174000Y-82542000D02*
X185274000Y-82042000D01*
X186174000Y-81542000D02*
X186174000Y-82542000D01*
X185274000Y-82042000D02*
X186174000Y-81542000D01*
X188374000Y-101842000D02*
X188374000Y-100342000D01*
X182974000Y-101842000D02*
X188374000Y-101842000D01*
X182974000Y-100342000D02*
X182974000Y-101842000D01*
X188374000Y-100342000D02*
X182974000Y-100342000D01*
X185174000Y-100592000D02*
X185174000Y-101592000D01*
X186174000Y-101592000D02*
X185274000Y-101092000D01*
X186174000Y-100592000D02*
X186174000Y-101592000D01*
X185274000Y-101092000D02*
X186174000Y-100592000D01*
X193200000Y-120892000D02*
X193200000Y-119392000D01*
X187800000Y-120892000D02*
X193200000Y-120892000D01*
X187800000Y-119392000D02*
X187800000Y-120892000D01*
X193200000Y-119392000D02*
X187800000Y-119392000D01*
X190000000Y-119642000D02*
X190000000Y-120642000D01*
X191000000Y-120642000D02*
X190100000Y-120142000D01*
X191000000Y-119642000D02*
X191000000Y-120642000D01*
X190100000Y-120142000D02*
X191000000Y-119642000D01*
X174150000Y-52058000D02*
X174150000Y-50558000D01*
X168750000Y-52058000D02*
X174150000Y-52058000D01*
X168750000Y-50558000D02*
X168750000Y-52058000D01*
X174150000Y-50558000D02*
X168750000Y-50558000D01*
X170950000Y-50808000D02*
X170950000Y-51808000D01*
X171950000Y-51808000D02*
X171050000Y-51308000D01*
X171950000Y-50808000D02*
X171950000Y-51808000D01*
X171050000Y-51308000D02*
X171950000Y-50808000D01*
X174150000Y-70854000D02*
X174150000Y-69354000D01*
X168750000Y-70854000D02*
X174150000Y-70854000D01*
X168750000Y-69354000D02*
X168750000Y-70854000D01*
X174150000Y-69354000D02*
X168750000Y-69354000D01*
X170950000Y-69604000D02*
X170950000Y-70604000D01*
X171950000Y-70604000D02*
X171050000Y-70104000D01*
X171950000Y-69604000D02*
X171950000Y-70604000D01*
X171050000Y-70104000D02*
X171950000Y-69604000D01*
X174340500Y-89904000D02*
X174340500Y-88404000D01*
X168940500Y-89904000D02*
X174340500Y-89904000D01*
X168940500Y-88404000D02*
X168940500Y-89904000D01*
X174340500Y-88404000D02*
X168940500Y-88404000D01*
X171140500Y-88654000D02*
X171140500Y-89654000D01*
X172140500Y-89654000D02*
X171240500Y-89154000D01*
X172140500Y-88654000D02*
X172140500Y-89654000D01*
X171240500Y-89154000D02*
X172140500Y-88654000D01*
X174150000Y-109128630D02*
X174150000Y-107628630D01*
X168750000Y-109128630D02*
X174150000Y-109128630D01*
X168750000Y-107628630D02*
X168750000Y-109128630D01*
X174150000Y-107628630D02*
X168750000Y-107628630D01*
X170950000Y-107878630D02*
X170950000Y-108878630D01*
X171950000Y-108878630D02*
X171050000Y-108378630D01*
X171950000Y-107878630D02*
X171950000Y-108878630D01*
X171050000Y-108378630D02*
X171950000Y-107878630D01*
X161831000Y-113780000D02*
X161831000Y-112280000D01*
X156431000Y-113780000D02*
X161831000Y-113780000D01*
X156431000Y-112280000D02*
X156431000Y-113780000D01*
X161831000Y-112280000D02*
X156431000Y-112280000D01*
X158631000Y-112530000D02*
X158631000Y-113530000D01*
X159631000Y-113530000D02*
X158731000Y-113030000D01*
X159631000Y-112530000D02*
X159631000Y-113530000D01*
X158731000Y-113030000D02*
X159631000Y-112530000D01*
X155100000Y-49518000D02*
X155100000Y-48018000D01*
X149700000Y-49518000D02*
X155100000Y-49518000D01*
X149700000Y-48018000D02*
X149700000Y-49518000D01*
X155100000Y-48018000D02*
X149700000Y-48018000D01*
X151900000Y-48268000D02*
X151900000Y-49268000D01*
X152900000Y-49268000D02*
X152000000Y-48768000D01*
X152900000Y-48268000D02*
X152900000Y-49268000D01*
X152000000Y-48768000D02*
X152900000Y-48268000D01*
X154973000Y-68441000D02*
X154973000Y-66941000D01*
X149573000Y-68441000D02*
X154973000Y-68441000D01*
X149573000Y-66941000D02*
X149573000Y-68441000D01*
X154973000Y-66941000D02*
X149573000Y-66941000D01*
X151773000Y-67191000D02*
X151773000Y-68191000D01*
X152773000Y-68191000D02*
X151873000Y-67691000D01*
X152773000Y-67191000D02*
X152773000Y-68191000D01*
X151873000Y-67691000D02*
X152773000Y-67191000D01*
X154973000Y-87618000D02*
X154973000Y-86118000D01*
X149573000Y-87618000D02*
X154973000Y-87618000D01*
X149573000Y-86118000D02*
X149573000Y-87618000D01*
X154973000Y-86118000D02*
X149573000Y-86118000D01*
X151773000Y-86368000D02*
X151773000Y-87368000D01*
X152773000Y-87368000D02*
X151873000Y-86868000D01*
X152773000Y-86368000D02*
X152773000Y-87368000D01*
X151873000Y-86868000D02*
X152773000Y-86368000D01*
X155100000Y-106668000D02*
X155100000Y-105168000D01*
X149700000Y-106668000D02*
X155100000Y-106668000D01*
X149700000Y-105168000D02*
X149700000Y-106668000D01*
X155100000Y-105168000D02*
X149700000Y-105168000D01*
X151900000Y-105418000D02*
X151900000Y-106418000D01*
X152900000Y-106418000D02*
X152000000Y-105918000D01*
X152900000Y-105418000D02*
X152900000Y-106418000D01*
X152000000Y-105918000D02*
X152900000Y-105418000D01*
X138209000Y-113859850D02*
X138209000Y-112359850D01*
X132809000Y-113859850D02*
X138209000Y-113859850D01*
X132809000Y-112359850D02*
X132809000Y-113859850D01*
X138209000Y-112359850D02*
X132809000Y-112359850D01*
X135009000Y-112609850D02*
X135009000Y-113609850D01*
X136009000Y-113609850D02*
X135109000Y-113109850D01*
X136009000Y-112609850D02*
X136009000Y-113609850D01*
X135109000Y-113109850D02*
X136009000Y-112609850D01*
X136050000Y-52058000D02*
X136050000Y-50558000D01*
X130650000Y-52058000D02*
X136050000Y-52058000D01*
X130650000Y-50558000D02*
X130650000Y-52058000D01*
X136050000Y-50558000D02*
X130650000Y-50558000D01*
X132850000Y-50808000D02*
X132850000Y-51808000D01*
X133850000Y-51808000D02*
X132950000Y-51308000D01*
X133850000Y-50808000D02*
X133850000Y-51808000D01*
X132950000Y-51308000D02*
X133850000Y-50808000D01*
X136177000Y-70854000D02*
X136177000Y-69354000D01*
X130777000Y-70854000D02*
X136177000Y-70854000D01*
X130777000Y-69354000D02*
X130777000Y-70854000D01*
X136177000Y-69354000D02*
X130777000Y-69354000D01*
X132977000Y-69604000D02*
X132977000Y-70604000D01*
X133977000Y-70604000D02*
X133077000Y-70104000D01*
X133977000Y-69604000D02*
X133977000Y-70604000D01*
X133077000Y-70104000D02*
X133977000Y-69604000D01*
X136050000Y-89904000D02*
X136050000Y-88404000D01*
X130650000Y-89904000D02*
X136050000Y-89904000D01*
X130650000Y-88404000D02*
X130650000Y-89904000D01*
X136050000Y-88404000D02*
X130650000Y-88404000D01*
X132850000Y-88654000D02*
X132850000Y-89654000D01*
X133850000Y-89654000D02*
X132950000Y-89154000D01*
X133850000Y-88654000D02*
X133850000Y-89654000D01*
X132950000Y-89154000D02*
X133850000Y-88654000D01*
X136050000Y-109208000D02*
X136050000Y-107708000D01*
X130650000Y-109208000D02*
X136050000Y-109208000D01*
X130650000Y-107708000D02*
X130650000Y-109208000D01*
X136050000Y-107708000D02*
X130650000Y-107708000D01*
X132850000Y-107958000D02*
X132850000Y-108958000D01*
X133850000Y-108958000D02*
X132950000Y-108458000D01*
X133850000Y-107958000D02*
X133850000Y-108958000D01*
X132950000Y-108458000D02*
X133850000Y-107958000D01*
X117000000Y-54344000D02*
X117000000Y-52844000D01*
X111600000Y-54344000D02*
X117000000Y-54344000D01*
X111600000Y-52844000D02*
X111600000Y-54344000D01*
X117000000Y-52844000D02*
X111600000Y-52844000D01*
X113800000Y-53094000D02*
X113800000Y-54094000D01*
X114800000Y-54094000D02*
X113900000Y-53594000D01*
X114800000Y-53094000D02*
X114800000Y-54094000D01*
X113900000Y-53594000D02*
X114800000Y-53094000D01*
X117000000Y-73267000D02*
X117000000Y-71767000D01*
X111600000Y-73267000D02*
X117000000Y-73267000D01*
X111600000Y-71767000D02*
X111600000Y-73267000D01*
X117000000Y-71767000D02*
X111600000Y-71767000D01*
X113800000Y-72017000D02*
X113800000Y-73017000D01*
X114800000Y-73017000D02*
X113900000Y-72517000D01*
X114800000Y-72017000D02*
X114800000Y-73017000D01*
X113900000Y-72517000D02*
X114800000Y-72017000D01*
X117000000Y-92444000D02*
X117000000Y-90944000D01*
X111600000Y-92444000D02*
X117000000Y-92444000D01*
X111600000Y-90944000D02*
X111600000Y-92444000D01*
X117000000Y-90944000D02*
X111600000Y-90944000D01*
X113800000Y-91194000D02*
X113800000Y-92194000D01*
X114800000Y-92194000D02*
X113900000Y-91694000D01*
X114800000Y-91194000D02*
X114800000Y-92194000D01*
X113900000Y-91694000D02*
X114800000Y-91194000D01*
X117190500Y-111414630D02*
X117190500Y-109914630D01*
X111790500Y-111414630D02*
X117190500Y-111414630D01*
X111790500Y-109914630D02*
X111790500Y-111414630D01*
X117190500Y-109914630D02*
X111790500Y-109914630D01*
X113990500Y-110164630D02*
X113990500Y-111164630D01*
X114990500Y-111164630D02*
X114090500Y-110664630D01*
X114990500Y-110164630D02*
X114990500Y-111164630D01*
X114090500Y-110664630D02*
X114990500Y-110164630D01*
X117190500Y-113907000D02*
X117190500Y-112407000D01*
X111790500Y-113907000D02*
X117190500Y-113907000D01*
X111790500Y-112407000D02*
X111790500Y-113907000D01*
X117190500Y-112407000D02*
X111790500Y-112407000D01*
X113990500Y-112657000D02*
X113990500Y-113657000D01*
X114990500Y-113657000D02*
X114090500Y-113157000D01*
X114990500Y-112657000D02*
X114990500Y-113657000D01*
X114090500Y-113157000D02*
X114990500Y-112657000D01*
X246286000Y-92190000D02*
X246286000Y-90690000D01*
X240886000Y-92190000D02*
X246286000Y-92190000D01*
X240886000Y-90690000D02*
X240886000Y-92190000D01*
X246286000Y-90690000D02*
X240886000Y-90690000D01*
X243086000Y-90940000D02*
X243086000Y-91940000D01*
X244086000Y-91940000D02*
X243186000Y-91440000D01*
X244086000Y-90940000D02*
X244086000Y-91940000D01*
X243186000Y-91440000D02*
X244086000Y-90940000D01*
X242170000Y-136906000D02*
X243070000Y-136406000D01*
X243070000Y-136406000D02*
X243070000Y-137406000D01*
X243070000Y-137406000D02*
X242170000Y-136906000D01*
X242070000Y-136406000D02*
X242070000Y-137406000D01*
X245270000Y-136156000D02*
X239870000Y-136156000D01*
X239870000Y-136156000D02*
X239870000Y-137656000D01*
X239870000Y-137656000D02*
X245270000Y-137656000D01*
X245270000Y-137656000D02*
X245270000Y-136156000D01*
X243238000Y-111367000D02*
X243238000Y-109867000D01*
X237838000Y-111367000D02*
X243238000Y-111367000D01*
X237838000Y-109867000D02*
X237838000Y-111367000D01*
X243238000Y-109867000D02*
X237838000Y-109867000D01*
X240038000Y-110117000D02*
X240038000Y-111117000D01*
X241038000Y-111117000D02*
X240138000Y-110617000D01*
X241038000Y-110117000D02*
X241038000Y-111117000D01*
X240138000Y-110617000D02*
X241038000Y-110117000D01*
X228327000Y-129667000D02*
X229227000Y-129167000D01*
X229227000Y-129167000D02*
X229227000Y-130167000D01*
X229227000Y-130167000D02*
X228327000Y-129667000D01*
X228227000Y-129167000D02*
X228227000Y-130167000D01*
X231427000Y-128917000D02*
X226027000Y-128917000D01*
X226027000Y-128917000D02*
X226027000Y-130417000D01*
X226027000Y-130417000D02*
X231427000Y-130417000D01*
X231427000Y-130417000D02*
X231427000Y-128917000D01*
X185961000Y-123432000D02*
X185961000Y-121932000D01*
X180561000Y-123432000D02*
X185961000Y-123432000D01*
X180561000Y-121932000D02*
X180561000Y-123432000D01*
X185961000Y-121932000D02*
X180561000Y-121932000D01*
X182761000Y-122182000D02*
X182761000Y-123182000D01*
X183761000Y-123182000D02*
X182861000Y-122682000D01*
X183761000Y-122182000D02*
X183761000Y-123182000D01*
X182861000Y-122682000D02*
X183761000Y-122182000D01*
D11*
X223050200Y-48950600D02*
X219650200Y-48950600D01*
X224690200Y-48950600D02*
X224150200Y-48950600D01*
X218550200Y-48950600D02*
X218010200Y-48950600D01*
X218010200Y-48950600D02*
X218010200Y-49180600D01*
X225210200Y-45280600D02*
X225210200Y-49180600D01*
X217490200Y-45280600D02*
X217490200Y-49180600D01*
X225210200Y-45280600D02*
X217490200Y-45280600D01*
X224690200Y-48950600D02*
X224690200Y-49180600D01*
D10*
X113900000Y-75184000D02*
X114800000Y-74684000D01*
X114800000Y-74684000D02*
X114800000Y-75684000D01*
X114800000Y-75684000D02*
X113900000Y-75184000D01*
X113800000Y-74684000D02*
X113800000Y-75684000D01*
X117000000Y-74434000D02*
X111600000Y-74434000D01*
X111600000Y-74434000D02*
X111600000Y-75934000D01*
X111600000Y-75934000D02*
X117000000Y-75934000D01*
X117000000Y-75934000D02*
X117000000Y-74434000D01*
X117000000Y-56884000D02*
X117000000Y-55384000D01*
X111600000Y-56884000D02*
X117000000Y-56884000D01*
X111600000Y-55384000D02*
X111600000Y-56884000D01*
X117000000Y-55384000D02*
X111600000Y-55384000D01*
X113800000Y-55634000D02*
X113800000Y-56634000D01*
X114800000Y-56634000D02*
X113900000Y-56134000D01*
X114800000Y-55634000D02*
X114800000Y-56634000D01*
X113900000Y-56134000D02*
X114800000Y-55634000D01*
X136050000Y-92571000D02*
X136050000Y-91071000D01*
X130650000Y-92571000D02*
X136050000Y-92571000D01*
X130650000Y-91071000D02*
X130650000Y-92571000D01*
X136050000Y-91071000D02*
X130650000Y-91071000D01*
X132850000Y-91321000D02*
X132850000Y-92321000D01*
X133850000Y-92321000D02*
X132950000Y-91821000D01*
X133850000Y-91321000D02*
X133850000Y-92321000D01*
X132950000Y-91821000D02*
X133850000Y-91321000D01*
X240138000Y-113284000D02*
X241038000Y-112784000D01*
X241038000Y-112784000D02*
X241038000Y-113784000D01*
X241038000Y-113784000D02*
X240138000Y-113284000D01*
X240038000Y-112784000D02*
X240038000Y-113784000D01*
X243238000Y-112534000D02*
X237838000Y-112534000D01*
X237838000Y-112534000D02*
X237838000Y-114034000D01*
X237838000Y-114034000D02*
X243238000Y-114034000D01*
X243238000Y-114034000D02*
X243238000Y-112534000D01*
X244456000Y-129921000D02*
X245356000Y-129421000D01*
X245356000Y-129421000D02*
X245356000Y-130421000D01*
X245356000Y-130421000D02*
X244456000Y-129921000D01*
X244356000Y-129421000D02*
X244356000Y-130421000D01*
X247556000Y-129171000D02*
X242156000Y-129171000D01*
X242156000Y-129171000D02*
X242156000Y-130671000D01*
X242156000Y-130671000D02*
X247556000Y-130671000D01*
X247556000Y-130671000D02*
X247556000Y-129171000D01*
X224569000Y-113780000D02*
X224569000Y-112280000D01*
X219169000Y-113780000D02*
X224569000Y-113780000D01*
X219169000Y-112280000D02*
X219169000Y-113780000D01*
X224569000Y-112280000D02*
X219169000Y-112280000D01*
X221369000Y-112530000D02*
X221369000Y-113530000D01*
X222369000Y-113530000D02*
X221469000Y-113030000D01*
X222369000Y-112530000D02*
X222369000Y-113530000D01*
X221469000Y-113030000D02*
X222369000Y-112530000D01*
X151873000Y-89408000D02*
X152773000Y-88908000D01*
X152773000Y-88908000D02*
X152773000Y-89908000D01*
X152773000Y-89908000D02*
X151873000Y-89408000D01*
X151773000Y-88908000D02*
X151773000Y-89908000D01*
X154973000Y-88658000D02*
X149573000Y-88658000D01*
X149573000Y-88658000D02*
X149573000Y-90158000D01*
X149573000Y-90158000D02*
X154973000Y-90158000D01*
X154973000Y-90158000D02*
X154973000Y-88658000D01*
X174404000Y-92571000D02*
X174404000Y-91071000D01*
X169004000Y-92571000D02*
X174404000Y-92571000D01*
X169004000Y-91071000D02*
X169004000Y-92571000D01*
X174404000Y-91071000D02*
X169004000Y-91071000D01*
X171204000Y-91321000D02*
X171204000Y-92321000D01*
X172204000Y-92321000D02*
X171304000Y-91821000D01*
X172204000Y-91321000D02*
X172204000Y-92321000D01*
X171304000Y-91821000D02*
X172204000Y-91321000D01*
X185274000Y-103759000D02*
X186174000Y-103259000D01*
X186174000Y-103259000D02*
X186174000Y-104259000D01*
X186174000Y-104259000D02*
X185274000Y-103759000D01*
X185174000Y-103259000D02*
X185174000Y-104259000D01*
X188374000Y-103009000D02*
X182974000Y-103009000D01*
X182974000Y-103009000D02*
X182974000Y-104509000D01*
X182974000Y-104509000D02*
X188374000Y-104509000D01*
X188374000Y-104509000D02*
X188374000Y-103009000D01*
X207678000Y-109208000D02*
X207678000Y-107708000D01*
X202278000Y-109208000D02*
X207678000Y-109208000D01*
X202278000Y-107708000D02*
X202278000Y-109208000D01*
X207678000Y-107708000D02*
X202278000Y-107708000D01*
X204478000Y-107958000D02*
X204478000Y-108958000D01*
X205478000Y-108958000D02*
X204578000Y-108458000D01*
X205478000Y-107958000D02*
X205478000Y-108958000D01*
X204578000Y-108458000D02*
X205478000Y-107958000D01*
D11*
X263255305Y-71714265D02*
X266976924Y-54205423D01*
X266976924Y-54205423D02*
X269578797Y-54758468D01*
X269578797Y-54758468D02*
X265857178Y-72267310D01*
X265857178Y-72267310D02*
X263255305Y-71714265D01*
X266054694Y-71338070D02*
X271923579Y-72585540D01*
X271923579Y-72585540D02*
X272081592Y-71842148D01*
X272081592Y-71842148D02*
X266212707Y-70594678D01*
X266067168Y-71279381D02*
X271936054Y-72526851D01*
X266092118Y-71162003D02*
X271961003Y-72409473D01*
X266117067Y-71044625D02*
X271985953Y-72292096D01*
X266142017Y-70927248D02*
X272010902Y-72174718D01*
X266166966Y-70809870D02*
X272035852Y-72057340D01*
X266191915Y-70692492D02*
X272060801Y-71939962D01*
X263064427Y-70702469D02*
X263452821Y-70785025D01*
X263222440Y-69959077D02*
X263610834Y-70041632D01*
X260645537Y-70188318D02*
X261024150Y-70268795D01*
X260803550Y-69444926D02*
X261182163Y-69525402D01*
X263795875Y-69171081D02*
X266397748Y-69724126D01*
X266582789Y-68853575D02*
X272451675Y-70101045D01*
X272451675Y-70101045D02*
X272609688Y-69357653D01*
X272609688Y-69357653D02*
X266740802Y-68110183D01*
X263592523Y-68217974D02*
X263980917Y-68300530D01*
X263750536Y-67474582D02*
X264138930Y-67557138D01*
X261108028Y-67689878D02*
X261552246Y-67784300D01*
X261266041Y-66946486D02*
X261710259Y-67040908D01*
X264323971Y-66686586D02*
X266925844Y-67239631D01*
X267110885Y-66369080D02*
X272979771Y-67616550D01*
X272979771Y-67616550D02*
X273137784Y-66873158D01*
X273137784Y-66873158D02*
X267268898Y-65625688D01*
X264120618Y-65733479D02*
X264509012Y-65816035D01*
X264278631Y-64990087D02*
X264667025Y-65072643D01*
X261636123Y-65205383D02*
X262080341Y-65299805D01*
X261794136Y-64461991D02*
X262238354Y-64556413D01*
X264852067Y-64202091D02*
X267453939Y-64755136D01*
X267638981Y-63884585D02*
X273507866Y-65132055D01*
X273507866Y-65132055D02*
X273665879Y-64388663D01*
X273665879Y-64388663D02*
X267796994Y-63141193D01*
X264648714Y-63248984D02*
X265037108Y-63331540D01*
X264806727Y-62505592D02*
X265195121Y-62588148D01*
X262164219Y-62720889D02*
X262608437Y-62815310D01*
X262322232Y-61977496D02*
X262766450Y-62071918D01*
X265380162Y-61717596D02*
X267982035Y-62270641D01*
X268167076Y-61400090D02*
X274035962Y-62647560D01*
X274035962Y-62647560D02*
X274193975Y-61904168D01*
X274193975Y-61904168D02*
X268325089Y-60656698D01*
X265176810Y-60764489D02*
X265565204Y-60847045D01*
X265334823Y-60021097D02*
X265723217Y-60103653D01*
X262692315Y-60236394D02*
X263136533Y-60330815D01*
X262850328Y-59493001D02*
X263294546Y-59587423D01*
X265908258Y-59233101D02*
X268510131Y-59786147D01*
X268695172Y-58915595D02*
X274564058Y-60163065D01*
X274564058Y-60163065D02*
X274722071Y-59419673D01*
X274722071Y-59419673D02*
X268853185Y-58172203D01*
X265704905Y-58279994D02*
X266093299Y-58362550D01*
X265862918Y-57536602D02*
X266251312Y-57619158D01*
X263220411Y-57751899D02*
X263664628Y-57846320D01*
X263378423Y-57008507D02*
X263822641Y-57102928D01*
X266436354Y-56748607D02*
X269038226Y-57301652D01*
X269223268Y-56431100D02*
X275092153Y-57678570D01*
X275092153Y-57678570D02*
X275250166Y-56935178D01*
X275250166Y-56935178D02*
X269381281Y-55687708D01*
X266233001Y-55795499D02*
X266621395Y-55878055D01*
X266391014Y-55052107D02*
X266779408Y-55134663D01*
X263748506Y-55267404D02*
X264192724Y-55361825D01*
X263906519Y-54524012D02*
X264350737Y-54618433D01*
X258396553Y-69321792D02*
X258132505Y-70564040D01*
X258132505Y-70564040D02*
X259374752Y-70828087D01*
X95697483Y-36040414D02*
X104138896Y-37834692D01*
X95722036Y-35924900D02*
X104163450Y-37719177D01*
X95746589Y-35809385D02*
X104188003Y-37603663D01*
X95771143Y-35693871D02*
X104212556Y-37488149D01*
X95795696Y-35578357D02*
X104237110Y-37372634D01*
X95820249Y-35462842D02*
X104261663Y-37257120D01*
X95844803Y-35347328D02*
X104286216Y-37141606D01*
X95869356Y-35231814D02*
X104310770Y-37026091D01*
X95893909Y-35116299D02*
X104335323Y-36910577D01*
X95918463Y-35000785D02*
X104359876Y-36795063D01*
X95943016Y-34885271D02*
X104384430Y-36679548D01*
X95967569Y-34769756D02*
X104408983Y-36564034D01*
X95992123Y-34654242D02*
X104433536Y-36448520D01*
X96016676Y-34538728D02*
X104458090Y-36333005D01*
X96041229Y-34423213D02*
X104482643Y-36217491D01*
X96065783Y-34307699D02*
X104507196Y-36101977D01*
X96090336Y-34192184D02*
X104531750Y-35986462D01*
X96114889Y-34076670D02*
X104556303Y-35870948D01*
X96139443Y-33961156D02*
X104580856Y-35755434D01*
X96163996Y-33845641D02*
X104605410Y-35639919D01*
X96188549Y-33730127D02*
X104629963Y-35524405D01*
X104315621Y-37003266D02*
X104716662Y-37088510D01*
X106770772Y-37525125D02*
X107142468Y-37604131D01*
X104465318Y-36299000D02*
X104866358Y-36384244D01*
X106920468Y-36820858D02*
X107292164Y-36899865D01*
X104843717Y-34518771D02*
X105244758Y-34604015D01*
X107298868Y-35040630D02*
X107729253Y-35132111D01*
X104993414Y-33814505D02*
X105394454Y-33899749D01*
X107448564Y-34336364D02*
X107878949Y-34427845D01*
X105371813Y-32034277D02*
X105772853Y-32119520D01*
X107826963Y-32556135D02*
X108257348Y-32647616D01*
X105521509Y-31330010D02*
X105922550Y-31415254D01*
X107976660Y-31851869D02*
X108407045Y-31943350D01*
X105899908Y-29549782D02*
X106300949Y-29635025D01*
X108355059Y-30071640D02*
X108785444Y-30163121D01*
X106049605Y-28845515D02*
X106450645Y-28930759D01*
X108504755Y-29367374D02*
X108935140Y-29458855D01*
X106428004Y-27065287D02*
X106829045Y-27150531D01*
X108883155Y-27587145D02*
X109313540Y-27678626D01*
X106577701Y-26361020D02*
X106978741Y-26446264D01*
X109032851Y-26882879D02*
X109463236Y-26974360D01*
X106956100Y-24580792D02*
X107357140Y-24666036D01*
X109411250Y-25102650D02*
X109841635Y-25194131D01*
X107105796Y-23876526D02*
X107506837Y-23961769D01*
X109560947Y-24398384D02*
X109991332Y-24489865D01*
X107484196Y-22096297D02*
X107885236Y-22181541D01*
X109939346Y-22618155D02*
X110369731Y-22709636D01*
X107633892Y-21392031D02*
X108034932Y-21477274D01*
X110089042Y-21913889D02*
X110519427Y-22005370D01*
X96213104Y-33614608D02*
X104654517Y-35408886D01*
X96741199Y-31130113D02*
X105182613Y-32924391D01*
X97269295Y-28645618D02*
X105710709Y-30439896D01*
X97797391Y-26161123D02*
X106238805Y-27955401D01*
X98325486Y-23676628D02*
X106766900Y-25470906D01*
X98853582Y-21192133D02*
X107294996Y-22986411D01*
X95672533Y-36157792D02*
X104113947Y-37952070D01*
X104113947Y-37952070D02*
X107835566Y-20443227D01*
X99394153Y-18648950D02*
X107835566Y-20443227D01*
X95672533Y-36157792D02*
X99394153Y-18648950D01*
X109112281Y-39014498D02*
X109388804Y-37713562D01*
X108026537Y-38783716D02*
X109112281Y-39014498D01*
D10*
X240900000Y-75009690D02*
X241800000Y-74509690D01*
X241800000Y-74509690D02*
X241800000Y-75509690D01*
X241800000Y-75509690D02*
X240900000Y-75009690D01*
X240800000Y-74509690D02*
X240800000Y-75509690D01*
X244000000Y-74259690D02*
X238600000Y-74259690D01*
X238600000Y-74259690D02*
X238600000Y-75759690D01*
X238600000Y-75759690D02*
X244000000Y-75759690D01*
X244000000Y-75759690D02*
X244000000Y-74259690D01*
D12*
X211701130Y-44692214D02*
X211477797Y-45049357D01*
X211318273Y-44692214D02*
X211318273Y-45442214D01*
X211573511Y-45442214D01*
X211637321Y-45406500D01*
X211669226Y-45370785D01*
X211701130Y-45299357D01*
X211701130Y-45192214D01*
X211669226Y-45120785D01*
X211637321Y-45085071D01*
X211573511Y-45049357D01*
X211318273Y-45049357D01*
X211956369Y-44906500D02*
X212275416Y-44906500D01*
X211892559Y-44692214D02*
X212115892Y-45442214D01*
X212339226Y-44692214D01*
X212498750Y-45442214D02*
X212658273Y-44692214D01*
X212785892Y-45227928D01*
X212913511Y-44692214D01*
X213073035Y-45442214D01*
X211653273Y-47956500D02*
X211589464Y-47992214D01*
X211493750Y-47992214D01*
X211398035Y-47956500D01*
X211334226Y-47885071D01*
X211302321Y-47813642D01*
X211270416Y-47670785D01*
X211270416Y-47563642D01*
X211302321Y-47420785D01*
X211334226Y-47349357D01*
X211398035Y-47277928D01*
X211493750Y-47242214D01*
X211557559Y-47242214D01*
X211653273Y-47277928D01*
X211685178Y-47313642D01*
X211685178Y-47563642D01*
X211557559Y-47563642D01*
X211972321Y-47242214D02*
X211972321Y-47992214D01*
X212355178Y-47242214D01*
X212355178Y-47992214D01*
X212674226Y-47242214D02*
X212674226Y-47992214D01*
X212833750Y-47992214D01*
X212929464Y-47956500D01*
X212993273Y-47885071D01*
X213025178Y-47813642D01*
X213057083Y-47670785D01*
X213057083Y-47563642D01*
X213025178Y-47420785D01*
X212993273Y-47349357D01*
X212929464Y-47277928D01*
X212833750Y-47242214D01*
X212674226Y-47242214D01*
X211796845Y-49792214D02*
X211573511Y-50149357D01*
X211413988Y-49792214D02*
X211413988Y-50542214D01*
X211669226Y-50542214D01*
X211733035Y-50506500D01*
X211764940Y-50470785D01*
X211796845Y-50399357D01*
X211796845Y-50292214D01*
X211764940Y-50220785D01*
X211733035Y-50185071D01*
X211669226Y-50149357D01*
X211413988Y-50149357D01*
X212052083Y-49827928D02*
X212147797Y-49792214D01*
X212307321Y-49792214D01*
X212371130Y-49827928D01*
X212403035Y-49863642D01*
X212434940Y-49935071D01*
X212434940Y-50006500D01*
X212403035Y-50077928D01*
X212371130Y-50113642D01*
X212307321Y-50149357D01*
X212179702Y-50185071D01*
X212115892Y-50220785D01*
X212083988Y-50256500D01*
X212052083Y-50327928D01*
X212052083Y-50399357D01*
X212083988Y-50470785D01*
X212115892Y-50506500D01*
X212179702Y-50542214D01*
X212339226Y-50542214D01*
X212434940Y-50506500D01*
X212626369Y-50542214D02*
X213009226Y-50542214D01*
X212817797Y-49792214D02*
X212817797Y-50542214D01*
X211270416Y-52992214D02*
X211493750Y-52242214D01*
X211717083Y-52992214D01*
X212323273Y-52313642D02*
X212291369Y-52277928D01*
X212195654Y-52242214D01*
X212131845Y-52242214D01*
X212036130Y-52277928D01*
X211972321Y-52349357D01*
X211940416Y-52420785D01*
X211908511Y-52563642D01*
X211908511Y-52670785D01*
X211940416Y-52813642D01*
X211972321Y-52885071D01*
X212036130Y-52956500D01*
X212131845Y-52992214D01*
X212195654Y-52992214D01*
X212291369Y-52956500D01*
X212323273Y-52920785D01*
X212993273Y-52313642D02*
X212961369Y-52277928D01*
X212865654Y-52242214D01*
X212801845Y-52242214D01*
X212706130Y-52277928D01*
X212642321Y-52349357D01*
X212610416Y-52420785D01*
X212578511Y-52563642D01*
X212578511Y-52670785D01*
X212610416Y-52813642D01*
X212642321Y-52885071D01*
X212706130Y-52956500D01*
X212801845Y-52992214D01*
X212865654Y-52992214D01*
X212961369Y-52956500D01*
X212993273Y-52920785D01*
X210128035Y-55156500D02*
X210447083Y-55156500D01*
X210064226Y-54942214D02*
X210287559Y-55692214D01*
X210510892Y-54942214D01*
X210670416Y-55692214D02*
X211085178Y-55692214D01*
X210861845Y-55406500D01*
X210957559Y-55406500D01*
X211021369Y-55370785D01*
X211053273Y-55335071D01*
X211085178Y-55263642D01*
X211085178Y-55085071D01*
X211053273Y-55013642D01*
X211021369Y-54977928D01*
X210957559Y-54942214D01*
X210766130Y-54942214D01*
X210702321Y-54977928D01*
X210670416Y-55013642D01*
X211850892Y-55727928D02*
X211276607Y-54763642D01*
X212297559Y-55335071D02*
X212074226Y-55335071D01*
X212074226Y-54942214D02*
X212074226Y-55692214D01*
X212393273Y-55692214D01*
X212935654Y-55442214D02*
X212935654Y-54942214D01*
X212776130Y-55727928D02*
X212616607Y-55192214D01*
X213031369Y-55192214D01*
X210128035Y-57656500D02*
X210447083Y-57656500D01*
X210064226Y-57442214D02*
X210287559Y-58192214D01*
X210510892Y-57442214D01*
X210702321Y-58120785D02*
X210734226Y-58156500D01*
X210798035Y-58192214D01*
X210957559Y-58192214D01*
X211021369Y-58156500D01*
X211053273Y-58120785D01*
X211085178Y-58049357D01*
X211085178Y-57977928D01*
X211053273Y-57870785D01*
X210670416Y-57442214D01*
X211085178Y-57442214D01*
X211850892Y-58227928D02*
X211276607Y-57263642D01*
X212297559Y-57835071D02*
X212074226Y-57835071D01*
X212074226Y-57442214D02*
X212074226Y-58192214D01*
X212393273Y-58192214D01*
X212967559Y-58192214D02*
X212648511Y-58192214D01*
X212616607Y-57835071D01*
X212648511Y-57870785D01*
X212712321Y-57906500D01*
X212871845Y-57906500D01*
X212935654Y-57870785D01*
X212967559Y-57835071D01*
X212999464Y-57763642D01*
X212999464Y-57585071D01*
X212967559Y-57513642D01*
X212935654Y-57477928D01*
X212871845Y-57442214D01*
X212712321Y-57442214D01*
X212648511Y-57477928D01*
X212616607Y-57513642D01*
X210128035Y-60156500D02*
X210447083Y-60156500D01*
X210064226Y-59942214D02*
X210287559Y-60692214D01*
X210510892Y-59942214D01*
X211085178Y-59942214D02*
X210702321Y-59942214D01*
X210893750Y-59942214D02*
X210893750Y-60692214D01*
X210829940Y-60585071D01*
X210766130Y-60513642D01*
X210702321Y-60477928D01*
X211850892Y-60727928D02*
X211276607Y-59763642D01*
X212297559Y-60335071D02*
X212074226Y-60335071D01*
X212074226Y-59942214D02*
X212074226Y-60692214D01*
X212393273Y-60692214D01*
X212935654Y-60692214D02*
X212808035Y-60692214D01*
X212744226Y-60656500D01*
X212712321Y-60620785D01*
X212648511Y-60513642D01*
X212616607Y-60370785D01*
X212616607Y-60085071D01*
X212648511Y-60013642D01*
X212680416Y-59977928D01*
X212744226Y-59942214D01*
X212871845Y-59942214D01*
X212935654Y-59977928D01*
X212967559Y-60013642D01*
X212999464Y-60085071D01*
X212999464Y-60263642D01*
X212967559Y-60335071D01*
X212935654Y-60370785D01*
X212871845Y-60406500D01*
X212744226Y-60406500D01*
X212680416Y-60370785D01*
X212648511Y-60335071D01*
X212616607Y-60263642D01*
X210128035Y-62706500D02*
X210447083Y-62706500D01*
X210064226Y-62492214D02*
X210287559Y-63242214D01*
X210510892Y-62492214D01*
X210861845Y-63242214D02*
X210925654Y-63242214D01*
X210989464Y-63206500D01*
X211021369Y-63170785D01*
X211053273Y-63099357D01*
X211085178Y-62956500D01*
X211085178Y-62777928D01*
X211053273Y-62635071D01*
X211021369Y-62563642D01*
X210989464Y-62527928D01*
X210925654Y-62492214D01*
X210861845Y-62492214D01*
X210798035Y-62527928D01*
X210766130Y-62563642D01*
X210734226Y-62635071D01*
X210702321Y-62777928D01*
X210702321Y-62956500D01*
X210734226Y-63099357D01*
X210766130Y-63170785D01*
X210798035Y-63206500D01*
X210861845Y-63242214D01*
X211850892Y-63277928D02*
X211276607Y-62313642D01*
X212297559Y-62885071D02*
X212074226Y-62885071D01*
X212074226Y-62492214D02*
X212074226Y-63242214D01*
X212393273Y-63242214D01*
X212584702Y-63242214D02*
X213031369Y-63242214D01*
X212744226Y-62492214D01*
X210431130Y-65042214D02*
X210048273Y-65042214D01*
X210239702Y-65042214D02*
X210239702Y-65792214D01*
X210175892Y-65685071D01*
X210112083Y-65613642D01*
X210048273Y-65577928D01*
X211037321Y-65792214D02*
X210718273Y-65792214D01*
X210686369Y-65435071D01*
X210718273Y-65470785D01*
X210782083Y-65506500D01*
X210941607Y-65506500D01*
X211005416Y-65470785D01*
X211037321Y-65435071D01*
X211069226Y-65363642D01*
X211069226Y-65185071D01*
X211037321Y-65113642D01*
X211005416Y-65077928D01*
X210941607Y-65042214D01*
X210782083Y-65042214D01*
X210718273Y-65077928D01*
X210686369Y-65113642D01*
X211834940Y-65827928D02*
X211260654Y-64863642D01*
X212281607Y-65435071D02*
X212377321Y-65399357D01*
X212409226Y-65363642D01*
X212441130Y-65292214D01*
X212441130Y-65185071D01*
X212409226Y-65113642D01*
X212377321Y-65077928D01*
X212313511Y-65042214D01*
X212058273Y-65042214D01*
X212058273Y-65792214D01*
X212281607Y-65792214D01*
X212345416Y-65756500D01*
X212377321Y-65720785D01*
X212409226Y-65649357D01*
X212409226Y-65577928D01*
X212377321Y-65506500D01*
X212345416Y-65470785D01*
X212281607Y-65435071D01*
X212058273Y-65435071D01*
X213079226Y-65042214D02*
X212696369Y-65042214D01*
X212887797Y-65042214D02*
X212887797Y-65792214D01*
X212823988Y-65685071D01*
X212760178Y-65613642D01*
X212696369Y-65577928D01*
X210431130Y-67592214D02*
X210048273Y-67592214D01*
X210239702Y-67592214D02*
X210239702Y-68342214D01*
X210175892Y-68235071D01*
X210112083Y-68163642D01*
X210048273Y-68127928D01*
X211005416Y-68092214D02*
X211005416Y-67592214D01*
X210845892Y-68377928D02*
X210686369Y-67842214D01*
X211101130Y-67842214D01*
X211834940Y-68377928D02*
X211260654Y-67413642D01*
X212281607Y-67985071D02*
X212377321Y-67949357D01*
X212409226Y-67913642D01*
X212441130Y-67842214D01*
X212441130Y-67735071D01*
X212409226Y-67663642D01*
X212377321Y-67627928D01*
X212313511Y-67592214D01*
X212058273Y-67592214D01*
X212058273Y-68342214D01*
X212281607Y-68342214D01*
X212345416Y-68306500D01*
X212377321Y-68270785D01*
X212409226Y-68199357D01*
X212409226Y-68127928D01*
X212377321Y-68056500D01*
X212345416Y-68020785D01*
X212281607Y-67985071D01*
X212058273Y-67985071D01*
X212664464Y-68342214D02*
X213079226Y-68342214D01*
X212855892Y-68056500D01*
X212951607Y-68056500D01*
X213015416Y-68020785D01*
X213047321Y-67985071D01*
X213079226Y-67913642D01*
X213079226Y-67735071D01*
X213047321Y-67663642D01*
X213015416Y-67627928D01*
X212951607Y-67592214D01*
X212760178Y-67592214D01*
X212696369Y-67627928D01*
X212664464Y-67663642D01*
X210431130Y-72642214D02*
X210048273Y-72642214D01*
X210239702Y-72642214D02*
X210239702Y-73392214D01*
X210175892Y-73285071D01*
X210112083Y-73213642D01*
X210048273Y-73177928D01*
X210845892Y-73392214D02*
X210909702Y-73392214D01*
X210973511Y-73356500D01*
X211005416Y-73320785D01*
X211037321Y-73249357D01*
X211069226Y-73106500D01*
X211069226Y-72927928D01*
X211037321Y-72785071D01*
X211005416Y-72713642D01*
X210973511Y-72677928D01*
X210909702Y-72642214D01*
X210845892Y-72642214D01*
X210782083Y-72677928D01*
X210750178Y-72713642D01*
X210718273Y-72785071D01*
X210686369Y-72927928D01*
X210686369Y-73106500D01*
X210718273Y-73249357D01*
X210750178Y-73320785D01*
X210782083Y-73356500D01*
X210845892Y-73392214D01*
X211834940Y-73427928D02*
X211260654Y-72463642D01*
X212281607Y-73035071D02*
X212377321Y-72999357D01*
X212409226Y-72963642D01*
X212441130Y-72892214D01*
X212441130Y-72785071D01*
X212409226Y-72713642D01*
X212377321Y-72677928D01*
X212313511Y-72642214D01*
X212058273Y-72642214D01*
X212058273Y-73392214D01*
X212281607Y-73392214D01*
X212345416Y-73356500D01*
X212377321Y-73320785D01*
X212409226Y-73249357D01*
X212409226Y-73177928D01*
X212377321Y-73106500D01*
X212345416Y-73070785D01*
X212281607Y-73035071D01*
X212058273Y-73035071D01*
X213015416Y-73392214D02*
X212887797Y-73392214D01*
X212823988Y-73356500D01*
X212792083Y-73320785D01*
X212728273Y-73213642D01*
X212696369Y-73070785D01*
X212696369Y-72785071D01*
X212728273Y-72713642D01*
X212760178Y-72677928D01*
X212823988Y-72642214D01*
X212951607Y-72642214D01*
X213015416Y-72677928D01*
X213047321Y-72713642D01*
X213079226Y-72785071D01*
X213079226Y-72963642D01*
X213047321Y-73035071D01*
X213015416Y-73070785D01*
X212951607Y-73106500D01*
X212823988Y-73106500D01*
X212760178Y-73070785D01*
X212728273Y-73035071D01*
X212696369Y-72963642D01*
X210431130Y-70142214D02*
X210048273Y-70142214D01*
X210239702Y-70142214D02*
X210239702Y-70892214D01*
X210175892Y-70785071D01*
X210112083Y-70713642D01*
X210048273Y-70677928D01*
X211005416Y-70892214D02*
X210877797Y-70892214D01*
X210813988Y-70856500D01*
X210782083Y-70820785D01*
X210718273Y-70713642D01*
X210686369Y-70570785D01*
X210686369Y-70285071D01*
X210718273Y-70213642D01*
X210750178Y-70177928D01*
X210813988Y-70142214D01*
X210941607Y-70142214D01*
X211005416Y-70177928D01*
X211037321Y-70213642D01*
X211069226Y-70285071D01*
X211069226Y-70463642D01*
X211037321Y-70535071D01*
X211005416Y-70570785D01*
X210941607Y-70606500D01*
X210813988Y-70606500D01*
X210750178Y-70570785D01*
X210718273Y-70535071D01*
X210686369Y-70463642D01*
X211834940Y-70927928D02*
X211260654Y-69963642D01*
X212281607Y-70535071D02*
X212377321Y-70499357D01*
X212409226Y-70463642D01*
X212441130Y-70392214D01*
X212441130Y-70285071D01*
X212409226Y-70213642D01*
X212377321Y-70177928D01*
X212313511Y-70142214D01*
X212058273Y-70142214D01*
X212058273Y-70892214D01*
X212281607Y-70892214D01*
X212345416Y-70856500D01*
X212377321Y-70820785D01*
X212409226Y-70749357D01*
X212409226Y-70677928D01*
X212377321Y-70606500D01*
X212345416Y-70570785D01*
X212281607Y-70535071D01*
X212058273Y-70535071D01*
X212696369Y-70820785D02*
X212728273Y-70856500D01*
X212792083Y-70892214D01*
X212951607Y-70892214D01*
X213015416Y-70856500D01*
X213047321Y-70820785D01*
X213079226Y-70749357D01*
X213079226Y-70677928D01*
X213047321Y-70570785D01*
X212664464Y-70142214D01*
X213079226Y-70142214D01*
X201331130Y-67835071D02*
X201554464Y-67835071D01*
X201650178Y-67442214D02*
X201331130Y-67442214D01*
X201331130Y-68192214D01*
X201650178Y-68192214D01*
X202224464Y-68192214D02*
X202096845Y-68192214D01*
X202033035Y-68156500D01*
X202001130Y-68120785D01*
X201937321Y-68013642D01*
X201905416Y-67870785D01*
X201905416Y-67585071D01*
X201937321Y-67513642D01*
X201969226Y-67477928D01*
X202033035Y-67442214D01*
X202160654Y-67442214D01*
X202224464Y-67477928D01*
X202256369Y-67513642D01*
X202288273Y-67585071D01*
X202288273Y-67763642D01*
X202256369Y-67835071D01*
X202224464Y-67870785D01*
X202160654Y-67906500D01*
X202033035Y-67906500D01*
X201969226Y-67870785D01*
X201937321Y-67835071D01*
X201905416Y-67763642D01*
X203053988Y-68227928D02*
X202479702Y-67263642D01*
X203213511Y-68192214D02*
X203660178Y-68192214D01*
X203373035Y-67442214D01*
X201299226Y-64892214D02*
X201299226Y-65642214D01*
X201458750Y-65642214D01*
X201554464Y-65606500D01*
X201618273Y-65535071D01*
X201650178Y-65463642D01*
X201682083Y-65320785D01*
X201682083Y-65213642D01*
X201650178Y-65070785D01*
X201618273Y-64999357D01*
X201554464Y-64927928D01*
X201458750Y-64892214D01*
X201299226Y-64892214D01*
X201905416Y-65642214D02*
X202352083Y-65642214D01*
X202064940Y-64892214D01*
X203085892Y-65677928D02*
X202511607Y-64713642D01*
X203596369Y-65642214D02*
X203468750Y-65642214D01*
X203404940Y-65606500D01*
X203373035Y-65570785D01*
X203309226Y-65463642D01*
X203277321Y-65320785D01*
X203277321Y-65035071D01*
X203309226Y-64963642D01*
X203341130Y-64927928D01*
X203404940Y-64892214D01*
X203532559Y-64892214D01*
X203596369Y-64927928D01*
X203628273Y-64963642D01*
X203660178Y-65035071D01*
X203660178Y-65213642D01*
X203628273Y-65285071D01*
X203596369Y-65320785D01*
X203532559Y-65356500D01*
X203404940Y-65356500D01*
X203341130Y-65320785D01*
X203309226Y-65285071D01*
X203277321Y-65213642D01*
X201703273Y-50556500D02*
X201639464Y-50592214D01*
X201543750Y-50592214D01*
X201448035Y-50556500D01*
X201384226Y-50485071D01*
X201352321Y-50413642D01*
X201320416Y-50270785D01*
X201320416Y-50163642D01*
X201352321Y-50020785D01*
X201384226Y-49949357D01*
X201448035Y-49877928D01*
X201543750Y-49842214D01*
X201607559Y-49842214D01*
X201703273Y-49877928D01*
X201735178Y-49913642D01*
X201735178Y-50163642D01*
X201607559Y-50163642D01*
X202022321Y-49842214D02*
X202022321Y-50592214D01*
X202405178Y-49842214D01*
X202405178Y-50592214D01*
X202724226Y-49842214D02*
X202724226Y-50592214D01*
X202883750Y-50592214D01*
X202979464Y-50556500D01*
X203043273Y-50485071D01*
X203075178Y-50413642D01*
X203107083Y-50270785D01*
X203107083Y-50163642D01*
X203075178Y-50020785D01*
X203043273Y-49949357D01*
X202979464Y-49877928D01*
X202883750Y-49842214D01*
X202724226Y-49842214D01*
X201703273Y-53006500D02*
X201639464Y-53042214D01*
X201543750Y-53042214D01*
X201448035Y-53006500D01*
X201384226Y-52935071D01*
X201352321Y-52863642D01*
X201320416Y-52720785D01*
X201320416Y-52613642D01*
X201352321Y-52470785D01*
X201384226Y-52399357D01*
X201448035Y-52327928D01*
X201543750Y-52292214D01*
X201607559Y-52292214D01*
X201703273Y-52327928D01*
X201735178Y-52363642D01*
X201735178Y-52613642D01*
X201607559Y-52613642D01*
X202022321Y-52292214D02*
X202022321Y-53042214D01*
X202405178Y-52292214D01*
X202405178Y-53042214D01*
X202724226Y-52292214D02*
X202724226Y-53042214D01*
X202883750Y-53042214D01*
X202979464Y-53006500D01*
X203043273Y-52935071D01*
X203075178Y-52863642D01*
X203107083Y-52720785D01*
X203107083Y-52613642D01*
X203075178Y-52470785D01*
X203043273Y-52399357D01*
X202979464Y-52327928D01*
X202883750Y-52292214D01*
X202724226Y-52292214D01*
X201274940Y-44742214D02*
X201274940Y-45492214D01*
X201434464Y-45492214D01*
X201530178Y-45456500D01*
X201593988Y-45385071D01*
X201625892Y-45313642D01*
X201657797Y-45170785D01*
X201657797Y-45063642D01*
X201625892Y-44920785D01*
X201593988Y-44849357D01*
X201530178Y-44777928D01*
X201434464Y-44742214D01*
X201274940Y-44742214D01*
X201881130Y-45492214D02*
X202295892Y-45492214D01*
X202072559Y-45206500D01*
X202168273Y-45206500D01*
X202232083Y-45170785D01*
X202263988Y-45135071D01*
X202295892Y-45063642D01*
X202295892Y-44885071D01*
X202263988Y-44813642D01*
X202232083Y-44777928D01*
X202168273Y-44742214D01*
X201976845Y-44742214D01*
X201913035Y-44777928D01*
X201881130Y-44813642D01*
X203061607Y-45527928D02*
X202487321Y-44563642D01*
X203189226Y-45492214D02*
X203572083Y-45492214D01*
X203380654Y-44742214D02*
X203380654Y-45492214D01*
X203731607Y-45492214D02*
X204178273Y-44742214D01*
X204178273Y-45492214D02*
X203731607Y-44742214D01*
X204561130Y-45492214D02*
X204624940Y-45492214D01*
X204688750Y-45456500D01*
X204720654Y-45420785D01*
X204752559Y-45349357D01*
X204784464Y-45206500D01*
X204784464Y-45027928D01*
X204752559Y-44885071D01*
X204720654Y-44813642D01*
X204688750Y-44777928D01*
X204624940Y-44742214D01*
X204561130Y-44742214D01*
X204497321Y-44777928D01*
X204465416Y-44813642D01*
X204433511Y-44885071D01*
X204401607Y-45027928D01*
X204401607Y-45206500D01*
X204433511Y-45349357D01*
X204465416Y-45420785D01*
X204497321Y-45456500D01*
X204561130Y-45492214D01*
X201299226Y-59792214D02*
X201299226Y-60542214D01*
X201458750Y-60542214D01*
X201554464Y-60506500D01*
X201618273Y-60435071D01*
X201650178Y-60363642D01*
X201682083Y-60220785D01*
X201682083Y-60113642D01*
X201650178Y-59970785D01*
X201618273Y-59899357D01*
X201554464Y-59827928D01*
X201458750Y-59792214D01*
X201299226Y-59792214D01*
X202256369Y-60292214D02*
X202256369Y-59792214D01*
X202096845Y-60577928D02*
X201937321Y-60042214D01*
X202352083Y-60042214D01*
X203085892Y-60577928D02*
X202511607Y-59613642D01*
X203596369Y-60292214D02*
X203596369Y-59792214D01*
X203436845Y-60577928D02*
X203277321Y-60042214D01*
X203692083Y-60042214D01*
X201225178Y-54827928D02*
X201320892Y-54792214D01*
X201480416Y-54792214D01*
X201544226Y-54827928D01*
X201576130Y-54863642D01*
X201608035Y-54935071D01*
X201608035Y-55006500D01*
X201576130Y-55077928D01*
X201544226Y-55113642D01*
X201480416Y-55149357D01*
X201352797Y-55185071D01*
X201288988Y-55220785D01*
X201257083Y-55256500D01*
X201225178Y-55327928D01*
X201225178Y-55399357D01*
X201257083Y-55470785D01*
X201288988Y-55506500D01*
X201352797Y-55542214D01*
X201512321Y-55542214D01*
X201608035Y-55506500D01*
X201895178Y-54792214D02*
X201895178Y-55542214D01*
X202054702Y-55542214D01*
X202150416Y-55506500D01*
X202214226Y-55435071D01*
X202246130Y-55363642D01*
X202278035Y-55220785D01*
X202278035Y-55113642D01*
X202246130Y-54970785D01*
X202214226Y-54899357D01*
X202150416Y-54827928D01*
X202054702Y-54792214D01*
X201895178Y-54792214D01*
X202533273Y-55006500D02*
X202852321Y-55006500D01*
X202469464Y-54792214D02*
X202692797Y-55542214D01*
X202916130Y-54792214D01*
X203618035Y-55577928D02*
X203043750Y-54613642D01*
X203841369Y-54792214D02*
X203841369Y-55542214D01*
X204000892Y-55542214D01*
X204096607Y-55506500D01*
X204160416Y-55435071D01*
X204192321Y-55363642D01*
X204224226Y-55220785D01*
X204224226Y-55113642D01*
X204192321Y-54970785D01*
X204160416Y-54899357D01*
X204096607Y-54827928D01*
X204000892Y-54792214D01*
X203841369Y-54792214D01*
X204862321Y-54792214D02*
X204479464Y-54792214D01*
X204670892Y-54792214D02*
X204670892Y-55542214D01*
X204607083Y-55435071D01*
X204543273Y-55363642D01*
X204479464Y-55327928D01*
X205628035Y-55577928D02*
X205053750Y-54613642D01*
X205819464Y-55470785D02*
X205851369Y-55506500D01*
X205915178Y-55542214D01*
X206074702Y-55542214D01*
X206138511Y-55506500D01*
X206170416Y-55470785D01*
X206202321Y-55399357D01*
X206202321Y-55327928D01*
X206170416Y-55220785D01*
X205787559Y-54792214D01*
X206202321Y-54792214D01*
X201241130Y-57327928D02*
X201336845Y-57292214D01*
X201496369Y-57292214D01*
X201560178Y-57327928D01*
X201592083Y-57363642D01*
X201623988Y-57435071D01*
X201623988Y-57506500D01*
X201592083Y-57577928D01*
X201560178Y-57613642D01*
X201496369Y-57649357D01*
X201368750Y-57685071D01*
X201304940Y-57720785D01*
X201273035Y-57756500D01*
X201241130Y-57827928D01*
X201241130Y-57899357D01*
X201273035Y-57970785D01*
X201304940Y-58006500D01*
X201368750Y-58042214D01*
X201528273Y-58042214D01*
X201623988Y-58006500D01*
X202293988Y-57363642D02*
X202262083Y-57327928D01*
X202166369Y-57292214D01*
X202102559Y-57292214D01*
X202006845Y-57327928D01*
X201943035Y-57399357D01*
X201911130Y-57470785D01*
X201879226Y-57613642D01*
X201879226Y-57720785D01*
X201911130Y-57863642D01*
X201943035Y-57935071D01*
X202006845Y-58006500D01*
X202102559Y-58042214D01*
X202166369Y-58042214D01*
X202262083Y-58006500D01*
X202293988Y-57970785D01*
X202900178Y-57292214D02*
X202581130Y-57292214D01*
X202581130Y-58042214D01*
X203602083Y-58077928D02*
X203027797Y-57113642D01*
X203825416Y-57292214D02*
X203825416Y-58042214D01*
X203984940Y-58042214D01*
X204080654Y-58006500D01*
X204144464Y-57935071D01*
X204176369Y-57863642D01*
X204208273Y-57720785D01*
X204208273Y-57613642D01*
X204176369Y-57470785D01*
X204144464Y-57399357D01*
X204080654Y-57327928D01*
X203984940Y-57292214D01*
X203825416Y-57292214D01*
X204623035Y-58042214D02*
X204686845Y-58042214D01*
X204750654Y-58006500D01*
X204782559Y-57970785D01*
X204814464Y-57899357D01*
X204846369Y-57756500D01*
X204846369Y-57577928D01*
X204814464Y-57435071D01*
X204782559Y-57363642D01*
X204750654Y-57327928D01*
X204686845Y-57292214D01*
X204623035Y-57292214D01*
X204559226Y-57327928D01*
X204527321Y-57363642D01*
X204495416Y-57435071D01*
X204463511Y-57577928D01*
X204463511Y-57756500D01*
X204495416Y-57899357D01*
X204527321Y-57970785D01*
X204559226Y-58006500D01*
X204623035Y-58042214D01*
X205612083Y-58077928D02*
X205037797Y-57113642D01*
X205771607Y-58042214D02*
X206186369Y-58042214D01*
X205963035Y-57756500D01*
X206058750Y-57756500D01*
X206122559Y-57720785D01*
X206154464Y-57685071D01*
X206186369Y-57613642D01*
X206186369Y-57435071D01*
X206154464Y-57363642D01*
X206122559Y-57327928D01*
X206058750Y-57292214D01*
X205867321Y-57292214D01*
X205803511Y-57327928D01*
X205771607Y-57363642D01*
X201682083Y-62413642D02*
X201650178Y-62377928D01*
X201554464Y-62342214D01*
X201490654Y-62342214D01*
X201394940Y-62377928D01*
X201331130Y-62449357D01*
X201299226Y-62520785D01*
X201267321Y-62663642D01*
X201267321Y-62770785D01*
X201299226Y-62913642D01*
X201331130Y-62985071D01*
X201394940Y-63056500D01*
X201490654Y-63092214D01*
X201554464Y-63092214D01*
X201650178Y-63056500D01*
X201682083Y-63020785D01*
X202256369Y-63092214D02*
X202128750Y-63092214D01*
X202064940Y-63056500D01*
X202033035Y-63020785D01*
X201969226Y-62913642D01*
X201937321Y-62770785D01*
X201937321Y-62485071D01*
X201969226Y-62413642D01*
X202001130Y-62377928D01*
X202064940Y-62342214D01*
X202192559Y-62342214D01*
X202256369Y-62377928D01*
X202288273Y-62413642D01*
X202320178Y-62485071D01*
X202320178Y-62663642D01*
X202288273Y-62735071D01*
X202256369Y-62770785D01*
X202192559Y-62806500D01*
X202064940Y-62806500D01*
X202001130Y-62770785D01*
X201969226Y-62735071D01*
X201937321Y-62663642D01*
X203085892Y-63127928D02*
X202511607Y-62163642D01*
X203628273Y-63092214D02*
X203309226Y-63092214D01*
X203277321Y-62735071D01*
X203309226Y-62770785D01*
X203373035Y-62806500D01*
X203532559Y-62806500D01*
X203596369Y-62770785D01*
X203628273Y-62735071D01*
X203660178Y-62663642D01*
X203660178Y-62485071D01*
X203628273Y-62413642D01*
X203596369Y-62377928D01*
X203532559Y-62342214D01*
X203373035Y-62342214D01*
X203309226Y-62377928D01*
X203277321Y-62413642D01*
X201522559Y-72885071D02*
X201618273Y-72849357D01*
X201650178Y-72813642D01*
X201682083Y-72742214D01*
X201682083Y-72635071D01*
X201650178Y-72563642D01*
X201618273Y-72527928D01*
X201554464Y-72492214D01*
X201299226Y-72492214D01*
X201299226Y-73242214D01*
X201522559Y-73242214D01*
X201586369Y-73206500D01*
X201618273Y-73170785D01*
X201650178Y-73099357D01*
X201650178Y-73027928D01*
X201618273Y-72956500D01*
X201586369Y-72920785D01*
X201522559Y-72885071D01*
X201299226Y-72885071D01*
X202288273Y-73242214D02*
X201969226Y-73242214D01*
X201937321Y-72885071D01*
X201969226Y-72920785D01*
X202033035Y-72956500D01*
X202192559Y-72956500D01*
X202256369Y-72920785D01*
X202288273Y-72885071D01*
X202320178Y-72813642D01*
X202320178Y-72635071D01*
X202288273Y-72563642D01*
X202256369Y-72527928D01*
X202192559Y-72492214D01*
X202033035Y-72492214D01*
X201969226Y-72527928D01*
X201937321Y-72563642D01*
X203085892Y-73277928D02*
X202511607Y-72313642D01*
X203341130Y-72492214D02*
X203468750Y-72492214D01*
X203532559Y-72527928D01*
X203564464Y-72563642D01*
X203628273Y-72670785D01*
X203660178Y-72813642D01*
X203660178Y-73099357D01*
X203628273Y-73170785D01*
X203596369Y-73206500D01*
X203532559Y-73242214D01*
X203404940Y-73242214D01*
X203341130Y-73206500D01*
X203309226Y-73170785D01*
X203277321Y-73099357D01*
X203277321Y-72920785D01*
X203309226Y-72849357D01*
X203341130Y-72813642D01*
X203404940Y-72777928D01*
X203532559Y-72777928D01*
X203596369Y-72813642D01*
X203628273Y-72849357D01*
X203660178Y-72920785D01*
X201195178Y-47292214D02*
X201195178Y-48042214D01*
X201354702Y-48042214D01*
X201450416Y-48006500D01*
X201514226Y-47935071D01*
X201546130Y-47863642D01*
X201578035Y-47720785D01*
X201578035Y-47613642D01*
X201546130Y-47470785D01*
X201514226Y-47399357D01*
X201450416Y-47327928D01*
X201354702Y-47292214D01*
X201195178Y-47292214D01*
X201833273Y-47970785D02*
X201865178Y-48006500D01*
X201928988Y-48042214D01*
X202088511Y-48042214D01*
X202152321Y-48006500D01*
X202184226Y-47970785D01*
X202216130Y-47899357D01*
X202216130Y-47827928D01*
X202184226Y-47720785D01*
X201801369Y-47292214D01*
X202216130Y-47292214D01*
X202981845Y-48077928D02*
X202407559Y-47113642D01*
X203588035Y-47292214D02*
X203364702Y-47649357D01*
X203205178Y-47292214D02*
X203205178Y-48042214D01*
X203460416Y-48042214D01*
X203524226Y-48006500D01*
X203556130Y-47970785D01*
X203588035Y-47899357D01*
X203588035Y-47792214D01*
X203556130Y-47720785D01*
X203524226Y-47685071D01*
X203460416Y-47649357D01*
X203205178Y-47649357D01*
X203811369Y-48042214D02*
X204258035Y-47292214D01*
X204258035Y-48042214D02*
X203811369Y-47292214D01*
X204864226Y-47292214D02*
X204481369Y-47292214D01*
X204672797Y-47292214D02*
X204672797Y-48042214D01*
X204608988Y-47935071D01*
X204545178Y-47863642D01*
X204481369Y-47827928D01*
X201522559Y-70385071D02*
X201618273Y-70349357D01*
X201650178Y-70313642D01*
X201682083Y-70242214D01*
X201682083Y-70135071D01*
X201650178Y-70063642D01*
X201618273Y-70027928D01*
X201554464Y-69992214D01*
X201299226Y-69992214D01*
X201299226Y-70742214D01*
X201522559Y-70742214D01*
X201586369Y-70706500D01*
X201618273Y-70670785D01*
X201650178Y-70599357D01*
X201650178Y-70527928D01*
X201618273Y-70456500D01*
X201586369Y-70420785D01*
X201522559Y-70385071D01*
X201299226Y-70385071D01*
X202256369Y-70492214D02*
X202256369Y-69992214D01*
X202096845Y-70777928D02*
X201937321Y-70242214D01*
X202352083Y-70242214D01*
X203085892Y-70777928D02*
X202511607Y-69813642D01*
X203404940Y-70420785D02*
X203341130Y-70456500D01*
X203309226Y-70492214D01*
X203277321Y-70563642D01*
X203277321Y-70599357D01*
X203309226Y-70670785D01*
X203341130Y-70706500D01*
X203404940Y-70742214D01*
X203532559Y-70742214D01*
X203596369Y-70706500D01*
X203628273Y-70670785D01*
X203660178Y-70599357D01*
X203660178Y-70563642D01*
X203628273Y-70492214D01*
X203596369Y-70456500D01*
X203532559Y-70420785D01*
X203404940Y-70420785D01*
X203341130Y-70385071D01*
X203309226Y-70349357D01*
X203277321Y-70277928D01*
X203277321Y-70135071D01*
X203309226Y-70063642D01*
X203341130Y-70027928D01*
X203404940Y-69992214D01*
X203532559Y-69992214D01*
X203596369Y-70027928D01*
X203628273Y-70063642D01*
X203660178Y-70135071D01*
X203660178Y-70277928D01*
X203628273Y-70349357D01*
X203596369Y-70385071D01*
X203532559Y-70420785D01*
D11*
X209665178Y-40920785D02*
X209665178Y-40170785D01*
X209415178Y-40706500D01*
X209165178Y-40170785D01*
X209165178Y-40920785D01*
X208808035Y-40920785D02*
X208808035Y-40420785D01*
X208808035Y-40170785D02*
X208843750Y-40206500D01*
X208808035Y-40242214D01*
X208772321Y-40206500D01*
X208808035Y-40170785D01*
X208808035Y-40242214D01*
X208129464Y-40885071D02*
X208200892Y-40920785D01*
X208343750Y-40920785D01*
X208415178Y-40885071D01*
X208450892Y-40849357D01*
X208486607Y-40777928D01*
X208486607Y-40563642D01*
X208450892Y-40492214D01*
X208415178Y-40456500D01*
X208343750Y-40420785D01*
X208200892Y-40420785D01*
X208129464Y-40456500D01*
X207808035Y-40920785D02*
X207808035Y-40420785D01*
X207808035Y-40563642D02*
X207772321Y-40492214D01*
X207736607Y-40456500D01*
X207665178Y-40420785D01*
X207593750Y-40420785D01*
X207236607Y-40920785D02*
X207308035Y-40885071D01*
X207343750Y-40849357D01*
X207379464Y-40777928D01*
X207379464Y-40563642D01*
X207343750Y-40492214D01*
X207308035Y-40456500D01*
X207236607Y-40420785D01*
X207129464Y-40420785D01*
X207058035Y-40456500D01*
X207022321Y-40492214D01*
X206986607Y-40563642D01*
X206986607Y-40777928D01*
X207022321Y-40849357D01*
X207058035Y-40885071D01*
X207129464Y-40920785D01*
X207236607Y-40920785D01*
X206665178Y-40170785D02*
X206665178Y-40777928D01*
X206629464Y-40849357D01*
X206593750Y-40885071D01*
X206522321Y-40920785D01*
X206379464Y-40920785D01*
X206308035Y-40885071D01*
X206272321Y-40849357D01*
X206236607Y-40777928D01*
X206236607Y-40170785D01*
X205915178Y-40885071D02*
X205808035Y-40920785D01*
X205629464Y-40920785D01*
X205558035Y-40885071D01*
X205522321Y-40849357D01*
X205486607Y-40777928D01*
X205486607Y-40706500D01*
X205522321Y-40635071D01*
X205558035Y-40599357D01*
X205629464Y-40563642D01*
X205772321Y-40527928D01*
X205843750Y-40492214D01*
X205879464Y-40456500D01*
X205915178Y-40385071D01*
X205915178Y-40313642D01*
X205879464Y-40242214D01*
X205843750Y-40206500D01*
X205772321Y-40170785D01*
X205593750Y-40170785D01*
X205486607Y-40206500D01*
X204915178Y-40527928D02*
X204808035Y-40563642D01*
X204772321Y-40599357D01*
X204736607Y-40670785D01*
X204736607Y-40777928D01*
X204772321Y-40849357D01*
X204808035Y-40885071D01*
X204879464Y-40920785D01*
X205165178Y-40920785D01*
X205165178Y-40170785D01*
X204915178Y-40170785D01*
X204843750Y-40206500D01*
X204808035Y-40242214D01*
X204772321Y-40313642D01*
X204772321Y-40385071D01*
X204808035Y-40456500D01*
X204843750Y-40492214D01*
X204915178Y-40527928D01*
X205165178Y-40527928D01*
D10*
X223159723Y-50065361D02*
X223016866Y-50112980D01*
X222778771Y-50112980D01*
X222683533Y-50065361D01*
X222635914Y-50017742D01*
X222588295Y-49922504D01*
X222588295Y-49827266D01*
X222635914Y-49732028D01*
X222683533Y-49684409D01*
X222778771Y-49636790D01*
X222969247Y-49589171D01*
X223064485Y-49541552D01*
X223112104Y-49493933D01*
X223159723Y-49398695D01*
X223159723Y-49303457D01*
X223112104Y-49208219D01*
X223064485Y-49160600D01*
X222969247Y-49112980D01*
X222731152Y-49112980D01*
X222588295Y-49160600D01*
X222254961Y-49112980D02*
X222016866Y-50112980D01*
X221826390Y-49398695D01*
X221635914Y-50112980D01*
X221397819Y-49112980D01*
X221112104Y-49112980D02*
X220493057Y-49112980D01*
X220826390Y-49493933D01*
X220683533Y-49493933D01*
X220588295Y-49541552D01*
X220540676Y-49589171D01*
X220493057Y-49684409D01*
X220493057Y-49922504D01*
X220540676Y-50017742D01*
X220588295Y-50065361D01*
X220683533Y-50112980D01*
X220969247Y-50112980D01*
X221064485Y-50065361D01*
X221112104Y-50017742D01*
X220016866Y-50112980D02*
X219826390Y-50112980D01*
X219731152Y-50065361D01*
X219683533Y-50017742D01*
X219588295Y-49874885D01*
X219540676Y-49684409D01*
X219540676Y-49303457D01*
X219588295Y-49208219D01*
X219635914Y-49160600D01*
X219731152Y-49112980D01*
X219921628Y-49112980D01*
X220016866Y-49160600D01*
X220064485Y-49208219D01*
X220112104Y-49303457D01*
X220112104Y-49541552D01*
X220064485Y-49636790D01*
X220016866Y-49684409D01*
X219921628Y-49732028D01*
X219731152Y-49732028D01*
X219635914Y-49684409D01*
X219588295Y-49636790D01*
X219540676Y-49541552D01*
X265138170Y-72515627D02*
X264989662Y-73214304D01*
X265006539Y-73363940D01*
X265079894Y-73476898D01*
X265209729Y-73553178D01*
X265302886Y-73572979D01*
X264699163Y-72519679D02*
X264662485Y-72463200D01*
X264579229Y-72396820D01*
X264346336Y-72347318D01*
X264243279Y-72374095D01*
X264186800Y-72410773D01*
X264120420Y-72494029D01*
X264100619Y-72587186D01*
X264117496Y-72736822D01*
X264557631Y-73414570D01*
X263952111Y-73285863D01*
X102640516Y-38551199D02*
X102492008Y-39249876D01*
X102508885Y-39399512D01*
X102582240Y-39512470D01*
X102712075Y-39588750D01*
X102805232Y-39608551D01*
X101454457Y-39321435D02*
X102013398Y-39440242D01*
X101733928Y-39380838D02*
X101941839Y-38402691D01*
X102005294Y-38562227D01*
X102078650Y-38675185D01*
X102161907Y-38741565D01*
M02*
