M48
; DRILL file {KiCad (5.1.5-0-10_14)} date 2020 May 14, Thursday 06:03:53
; FORMAT={-:-/ absolute / metric / decimal}
; #@! TF.CreationDate,2020-05-14T06:03:53+09:00
; #@! TF.GenerationSoftware,Kicad,Pcbnew,(5.1.5-0-10_14)
FMAT,2
METRIC
T1C0.400
T2C0.600
T3C0.800
T4C0.813
T5C0.990
T6C1.000
T7C1.300
T8C1.500
T9C2.200
T10C3.000
T11C1.200
T12C1.700
T13C1.750
T14C3.048
T15C3.988
T16C4.000
%
G90
G05
T1
X117.983Y-33.782
X119.253Y-65.659
X120.396Y-52.451
X120.401Y-55.5
X139.573Y-103.759
X139.573Y-105.664
X156.327Y-38.262
X157.377Y-38.272
X158.434Y-86.402
X159.468Y-64.3
X165.735Y-36.272
X167.767Y-37.084
X171.845Y-44.523
X172.72Y-43.942
X184.912Y-85.725
X186.055Y-47.625
X187.071Y-83.693
X187.418Y-47.879
X194.183Y-65.786
X194.74Y-64.82
X195.238Y-59.397
X196.723Y-45.974
X197.739Y-103.251
X198.554Y-59.064
X210.693Y-65.151
X210.82Y-58.547
X211.455Y-61.976
X212.598Y-82.87
X212.75Y-62.5
X214.345Y-82.87
X214.95Y-80.769
X216.535Y-66.548
X216.548Y-61.019
X219.837Y-66.421
X224.028Y-54.991
X226.661Y-57.751
X227.457Y-58.801
X228.727Y-53.594
X229.616Y-51.943
X229.934Y-58.101
X230.632Y-52.819
X231.062Y-54.447
X232.041Y-53.145
X248.158Y-54.242
X248.412Y-78.232
X249.809Y-77.089
X251.161Y-54.731
X252.789Y-55.912
X254.0Y-60.579
X256.413Y-67.183
X256.667Y-54.307
X257.429Y-85.725
X259.842Y-58.42
X260.706Y-54.95
X261.444Y-73.192
X265.557Y-64.77
X265.938Y-63.119
X193.516Y-132.23
X193.516Y-134.154
X210.026Y-129.69
X210.026Y-131.614
X141.129Y-56.029
X141.129Y-57.953
X157.639Y-53.489
X157.639Y-55.413
X179.229Y-70.317
X179.229Y-72.241
X195.739Y-67.777
X195.739Y-69.701
X212.566Y-136.992
X212.566Y-138.916
X229.076Y-134.452
X229.076Y-136.376
X237.649Y-68.412
X237.649Y-70.336
X254.159Y-65.872
X254.159Y-67.796
X179.229Y-89.367
X179.229Y-91.291
X195.739Y-86.827
X195.739Y-88.751
X236.379Y-117.942
X236.379Y-119.866
X252.889Y-115.402
X252.889Y-117.326
X160.179Y-77.46
X160.179Y-79.384
X176.689Y-74.92
X176.689Y-76.844
X255.525Y-92.964
X256.008Y-91.797
X256.008Y-94.131
X257.175Y-91.314
X257.175Y-94.614
X258.342Y-91.797
X258.342Y-94.131
X258.825Y-92.964
X198.279Y-94.13
X198.279Y-96.054
X214.789Y-91.59
X214.789Y-93.514
X124.46Y-117.942
X124.46Y-119.866
X140.97Y-115.402
X140.97Y-117.326
X172.085Y-127.467
X172.085Y-129.391
X188.595Y-124.927
X188.595Y-126.851
X122.079Y-58.41
X122.079Y-60.334
X138.589Y-55.87
X138.589Y-57.794
X231.616Y-141.755
X231.616Y-143.679
X248.126Y-139.215
X248.126Y-141.139
X218.599Y-68.412
X218.599Y-70.336
X235.109Y-65.872
X235.109Y-67.796
X103.029Y-98.892
X103.029Y-100.816
X119.539Y-96.352
X119.539Y-98.276
X103.029Y-41.742
X103.029Y-43.666
X119.539Y-39.202
X119.539Y-41.126
X122.025Y-71.443
X122.508Y-70.276
X122.508Y-72.609
X123.675Y-69.793
X123.675Y-73.093
X124.842Y-70.276
X124.842Y-72.609
X125.325Y-71.443
X141.129Y-75.079
X141.129Y-77.003
X157.639Y-72.539
X157.639Y-74.463
X179.229Y-108.417
X179.229Y-110.341
X195.739Y-105.877
X195.739Y-107.801
X160.179Y-96.51
X160.179Y-98.434
X176.689Y-93.97
X176.689Y-95.894
X141.129Y-36.979
X141.129Y-38.903
X157.639Y-34.439
X157.639Y-36.363
X98.266Y-117.942
X98.266Y-119.866
X114.776Y-115.402
X114.776Y-117.326
X179.229Y-51.267
X179.229Y-53.191
X195.739Y-48.727
X195.739Y-50.651
X198.279Y-113.18
X198.279Y-115.104
X214.789Y-110.64
X214.789Y-112.564
X160.179Y-58.41
X160.179Y-60.334
X176.689Y-55.87
X176.689Y-57.794
X103.029Y-60.792
X103.029Y-62.716
X119.539Y-58.252
X119.539Y-60.176
X241.141Y-79.842
X241.141Y-81.766
X257.651Y-77.302
X257.651Y-79.226
X122.079Y-77.46
X122.079Y-79.384
X138.589Y-74.92
X138.589Y-76.844
X148.272Y-117.942
X148.272Y-119.866
X164.782Y-115.402
X164.782Y-117.326
X217.329Y-117.942
X217.329Y-119.866
X233.839Y-115.402
X233.839Y-117.326
X122.079Y-39.36
X122.079Y-41.284
X138.589Y-36.82
X138.589Y-38.744
X141.129Y-94.129
X141.129Y-96.053
X157.639Y-91.589
X157.639Y-93.513
X176.963Y-47.409
X177.446Y-46.242
X177.446Y-48.576
X178.613Y-45.759
X178.613Y-49.059
X179.78Y-46.242
X179.78Y-48.576
X180.263Y-47.409
X226.854Y-60.792
X226.854Y-62.716
X243.364Y-58.252
X243.364Y-60.176
X103.029Y-79.842
X103.029Y-81.766
X119.539Y-77.302
X119.539Y-79.226
X229.235Y-98.892
X229.235Y-100.816
X245.745Y-96.352
X245.745Y-98.276
X168.466Y-123.891
X168.95Y-122.724
X168.95Y-125.058
X170.117Y-122.241
X170.117Y-125.541
X171.283Y-122.724
X171.283Y-125.058
X171.766Y-123.891
X217.329Y-79.842
X217.329Y-81.766
X233.839Y-77.302
X233.839Y-79.226
X160.179Y-39.36
X160.179Y-41.284
X176.689Y-36.82
X176.689Y-38.744
X122.079Y-96.51
X122.079Y-98.434
X138.589Y-93.97
X138.589Y-95.894
T2
X98.679Y-93.472
X103.251Y-93.853
X105.791Y-40.005
X106.968Y-73.643
X114.935Y-51.435
X115.062Y-42.672
X115.443Y-67.183
X116.279Y-69.141
X116.713Y-61.722
X117.414Y-47.619
X118.751Y-93.788
X120.65Y-104.013
X121.285Y-65.639
X122.174Y-91.694
X125.73Y-108.204
X138.811Y-88.355
X142.494Y-90.043
X145.669Y-68.362
X147.224Y-53.09
X147.447Y-71.755
X148.59Y-51.181
X152.4Y-111.919
X158.384Y-57.912
X159.512Y-109.347
X160.147Y-94.742
X161.163Y-92.329
X162.56Y-125.73
X163.83Y-127.0
X164.846Y-49.022
X166.28Y-55.462
X166.37Y-56.896
X169.291Y-103.759
X171.831Y-103.019
X172.72Y-117.729
X173.653Y-79.362
X176.403Y-114.808
X176.657Y-87.503
X177.766Y-42.259
X177.8Y-100.584
X177.927Y-90.932
X177.959Y-64.548
X178.771Y-59.278
X179.197Y-102.362
X180.213Y-56.134
X182.753Y-67.691
X185.314Y-67.511
X190.5Y-97.79
X191.77Y-91.44
X193.04Y-95.25
X193.04Y-97.79
X193.167Y-101.092
X194.691Y-70.939
X195.108Y-61.798
X195.157Y-99.092
X195.626Y-66.363
X196.434Y-94.361
X196.596Y-84.709
X196.596Y-91.186
X196.729Y-97.541
X196.974Y-80.891
X198.639Y-78.613
X200.406Y-91.186
X201.295Y-89.281
X201.676Y-84.455
X206.033Y-75.02
X209.354Y-99.373
X209.804Y-96.139
X213.802Y-88.58
X216.154Y-116.586
X216.154Y-129.413
X216.408Y-76.327
X217.2Y-86.775
X217.297Y-92.583
X217.744Y-107.025
X218.247Y-90.315
X218.694Y-76.2
X218.821Y-61.849
X219.263Y-96.774
X219.456Y-91.313
X220.345Y-51.435
X227.457Y-111.379
X228.252Y-108.314
X233.369Y-70.292
X234.442Y-109.855
X234.442Y-129.54
X234.749Y-73.4
X235.331Y-135.763
X236.347Y-95.758
X237.363Y-72.553
X237.871Y-88.773
X237.919Y-78.459
X240.665Y-109.093
X242.951Y-93.091
X245.269Y-125.016
X246.507Y-111.379
X247.166Y-76.653
X247.269Y-98.044
X248.412Y-106.045
X253.308Y-88.121
X255.986Y-86.995
X258.064Y-73.229
T3
X98.806Y-98.425
X99.722Y-90.136
X101.981Y-94.882
X104.07Y-90.224
X105.41Y-105.41
X105.41Y-114.3
X106.969Y-110.49
X128.651Y-36.83
X135.89Y-45.593
X161.02Y-74.888
X161.671Y-68.961
X163.195Y-75.438
X164.211Y-64.389
X172.593Y-46.094
X174.625Y-67.691
X175.768Y-62.865
X176.777Y-41.268
X184.531Y-47.625
X187.833Y-43.815
X191.643Y-43.815
X193.802Y-47.389
X205.652Y-45.596
X206.121Y-83.82
X206.909Y-52.282
X208.026Y-46.101
X212.471Y-45.466
X233.299Y-50.673
X234.569Y-56.769
X255.023Y-63.61
X255.397Y-75.964
X257.844Y-70.794
T4
X129.54Y-89.154
X137.16Y-89.154
X201.168Y-105.918
X208.788Y-105.918
X148.463Y-86.868
X156.083Y-86.868
X203.454Y-67.818
X211.074Y-67.818
X241.046Y-129.921
X248.666Y-129.921
X167.64Y-108.379
X175.26Y-108.379
X238.76Y-136.906
X246.38Y-136.906
X129.667Y-70.104
X137.287Y-70.104
X148.463Y-67.691
X156.083Y-67.691
X181.864Y-103.759
X189.484Y-103.759
X199.557Y-45.053
X199.557Y-47.593
X199.557Y-50.133
X199.557Y-52.673
X199.557Y-55.213
X199.557Y-57.753
X199.557Y-60.293
X199.557Y-62.833
X199.557Y-65.373
X199.557Y-67.913
X199.557Y-70.453
X199.557Y-72.993
X214.777Y-45.053
X214.777Y-47.593
X214.777Y-50.133
X214.777Y-52.673
X214.777Y-55.213
X214.777Y-57.753
X214.777Y-60.293
X214.777Y-62.833
X214.777Y-65.373
X214.777Y-67.913
X214.777Y-70.453
X214.777Y-72.993
X236.728Y-110.617
X244.348Y-110.617
X236.728Y-113.284
X244.348Y-113.284
X167.831Y-89.154
X175.451Y-89.154
X227.33Y-74.93
X234.95Y-74.93
X148.59Y-48.768
X156.21Y-48.768
X167.894Y-91.821
X175.514Y-91.821
X129.54Y-91.821
X137.16Y-91.821
X219.964Y-132.207
X227.584Y-132.207
X239.776Y-91.44
X247.396Y-91.44
X102.394Y-126.619
X104.934Y-126.619
X107.474Y-126.619
X110.014Y-126.619
X129.54Y-51.308
X137.16Y-51.308
X203.454Y-86.741
X211.074Y-86.741
X181.864Y-82.042
X189.484Y-82.042
X181.864Y-101.092
X189.484Y-101.092
X110.49Y-72.517
X118.11Y-72.517
X181.864Y-62.992
X189.484Y-62.992
X186.69Y-120.142
X194.31Y-120.142
X167.64Y-51.308
X175.26Y-51.308
X167.64Y-70.104
X175.26Y-70.104
X131.699Y-113.11
X139.319Y-113.11
X201.168Y-127.508
X208.788Y-127.508
X148.463Y-89.408
X156.083Y-89.408
X229.108Y-91.44
X236.728Y-91.44
X201.168Y-108.458
X208.788Y-108.458
X179.451Y-122.682
X187.071Y-122.682
X110.49Y-56.134
X118.11Y-56.134
X110.68Y-113.157
X118.3Y-113.157
X129.54Y-108.458
X137.16Y-108.458
X237.49Y-75.01
X245.11Y-75.01
X148.59Y-105.918
X156.21Y-105.918
X205.867Y-124.968
X213.487Y-124.968
X110.68Y-110.665
X118.3Y-110.665
X218.059Y-113.03
X225.679Y-113.03
X110.49Y-91.694
X118.11Y-91.694
X155.321Y-113.03
X162.941Y-113.03
X110.49Y-53.594
X118.11Y-53.594
X110.49Y-75.184
X118.11Y-75.184
X224.917Y-129.667
X232.537Y-129.667
T5
X218.85Y-47.981
X223.85Y-47.981
T6
X99.949Y-104.648
X99.949Y-107.188
X99.949Y-109.728
X259.639Y-69.586
X260.167Y-67.101
X260.695Y-64.617
X261.223Y-62.132
X261.751Y-59.648
X262.123Y-70.114
X262.279Y-57.163
X262.651Y-67.629
X262.807Y-54.679
X263.179Y-65.145
X263.708Y-62.66
X264.236Y-60.176
X264.764Y-57.691
X265.292Y-55.207
X105.819Y-36.955
X106.347Y-34.47
X106.875Y-31.986
X107.403Y-29.501
X107.931Y-27.017
X108.303Y-37.483
X108.459Y-24.532
X108.831Y-34.998
X108.987Y-22.048
X109.359Y-32.514
X109.887Y-30.029
X110.415Y-27.545
X110.944Y-25.06
X111.472Y-22.576
X218.694Y-99.695
X218.694Y-102.235
X218.694Y-104.775
T7
X217.84Y-50.471
X224.85Y-50.471
T8
X203.359Y-56.991
X209.709Y-54.451
X203.359Y-76.042
X209.709Y-73.502
T9
X170.117Y-123.891
X257.175Y-92.964
X123.675Y-71.443
X178.613Y-47.409
T10
X146.209Y-95.091
X152.559Y-92.551
X231.934Y-61.754
X238.284Y-59.214
X108.109Y-80.804
X114.459Y-78.264
X234.315Y-99.854
X240.665Y-97.314
X222.409Y-80.804
X228.759Y-78.264
X165.259Y-40.322
X171.609Y-37.782
X127.159Y-97.472
X133.509Y-94.932
X198.596Y-133.192
X204.946Y-130.652
X146.209Y-56.991
X152.559Y-54.451
X184.309Y-71.279
X190.659Y-68.739
X217.646Y-137.954
X223.996Y-135.414
X242.729Y-69.374
X249.079Y-66.834
X184.309Y-90.329
X190.659Y-87.789
X241.459Y-118.904
X247.809Y-116.364
X165.259Y-78.422
X171.609Y-75.882
X203.359Y-95.092
X209.709Y-92.552
X129.54Y-118.904
X135.89Y-116.364
X177.165Y-128.429
X183.515Y-125.889
X127.159Y-59.372
X133.509Y-56.832
X236.696Y-142.717
X243.046Y-140.177
X223.679Y-69.374
X230.029Y-66.834
X108.109Y-99.854
X114.459Y-97.314
X108.109Y-42.704
X114.459Y-40.164
X146.209Y-76.041
X152.559Y-73.501
X184.309Y-109.379
X190.659Y-106.839
X165.259Y-97.472
X171.609Y-94.932
X146.209Y-37.941
X152.559Y-35.401
X103.346Y-118.904
X109.696Y-116.364
X184.309Y-52.229
X190.659Y-49.689
X203.359Y-114.142
X209.709Y-111.602
X165.259Y-59.372
X171.609Y-56.832
X108.109Y-61.754
X114.459Y-59.214
X246.221Y-80.804
X252.571Y-78.264
X127.159Y-78.422
X133.509Y-75.882
X153.352Y-118.904
X159.702Y-116.364
X222.409Y-118.904
X228.759Y-116.364
X127.159Y-40.322
X133.509Y-37.782
T11
X221.35Y-46.771
T12
X202.089Y-59.531
X212.249Y-59.531
X202.089Y-78.582
X212.249Y-78.582
T13
X144.939Y-97.631
X155.099Y-97.631
X230.664Y-64.294
X240.824Y-64.294
X106.839Y-83.344
X116.999Y-83.344
X233.045Y-102.394
X243.205Y-102.394
X221.139Y-83.344
X231.299Y-83.344
X163.989Y-42.862
X174.149Y-42.862
X125.889Y-100.012
X136.049Y-100.012
X197.326Y-135.732
X207.486Y-135.732
X144.939Y-59.531
X155.099Y-59.531
X183.039Y-73.819
X193.199Y-73.819
X216.376Y-140.494
X226.536Y-140.494
X240.189Y-64.294
X250.349Y-64.294
X183.039Y-92.869
X193.199Y-92.869
X240.189Y-121.444
X250.349Y-121.444
X163.989Y-80.962
X174.149Y-80.962
X202.089Y-97.632
X212.249Y-97.632
X128.27Y-121.444
X138.43Y-121.444
X175.895Y-130.969
X186.055Y-130.969
X125.889Y-61.912
X136.049Y-61.912
X235.426Y-145.257
X245.586Y-145.257
X221.139Y-64.294
X231.299Y-64.294
X106.839Y-102.394
X116.999Y-102.394
X106.839Y-45.244
X116.999Y-45.244
X144.939Y-78.581
X155.099Y-78.581
X183.039Y-111.919
X193.199Y-111.919
X163.989Y-100.012
X174.149Y-100.012
X144.939Y-40.481
X155.099Y-40.481
X102.076Y-121.444
X112.236Y-121.444
X183.039Y-54.769
X193.199Y-54.769
X202.089Y-116.682
X212.249Y-116.682
X163.989Y-61.912
X174.149Y-61.912
X106.839Y-64.294
X116.999Y-64.294
X244.951Y-83.344
X255.111Y-83.344
X125.889Y-80.962
X136.049Y-80.962
X152.082Y-121.444
X162.243Y-121.444
X221.139Y-121.444
X231.299Y-121.444
X125.889Y-42.862
X136.049Y-42.862
T14
X226.187Y-109.379
X250.063Y-109.379
X223.806Y-57.309
X247.682Y-57.309
T15
X226.219Y-83.344
X169.069Y-42.862
X130.969Y-100.012
X202.406Y-135.732
X150.019Y-59.531
X188.119Y-73.819
X221.456Y-140.494
X245.269Y-64.294
X188.119Y-92.869
X245.269Y-121.444
X169.069Y-80.962
X207.169Y-97.632
X133.35Y-121.444
X180.975Y-130.969
X130.969Y-61.912
X240.506Y-145.257
X226.219Y-64.294
X111.919Y-102.394
X111.919Y-45.244
X150.019Y-78.581
X188.119Y-111.919
X169.069Y-100.012
X150.019Y-40.481
X107.156Y-121.444
X188.119Y-54.769
X207.169Y-116.682
X169.069Y-61.912
X111.919Y-64.294
X250.031Y-83.344
X130.969Y-80.962
X157.162Y-121.444
X226.219Y-121.444
X130.969Y-42.862
X150.019Y-97.631
X226.187Y-94.139
X250.063Y-94.139
X223.806Y-72.549
X247.682Y-72.549
X235.744Y-64.294
X111.919Y-83.344
X238.125Y-102.394
T16
X207.169Y-59.531
X207.169Y-78.582
T0
M30
