G04 #@! TF.GenerationSoftware,KiCad,Pcbnew,(5.1.5-0-10_14)*
G04 #@! TF.CreationDate,2020-03-08T13:20:43+09:00*
G04 #@! TF.ProjectId,ColiceKeyPlate,436f6c69-6365-44b6-9579-506c6174652e,rev?*
G04 #@! TF.SameCoordinates,Original*
G04 #@! TF.FileFunction,Soldermask,Bot*
G04 #@! TF.FilePolarity,Negative*
%FSLAX46Y46*%
G04 Gerber Fmt 4.6, Leading zero omitted, Abs format (unit mm)*
G04 Created by KiCad (PCBNEW (5.1.5-0-10_14)) date 2020-03-08 13:20:43*
%MOMM*%
%LPD*%
G04 APERTURE LIST*
%ADD10C,0.100000*%
G04 APERTURE END LIST*
D10*
G36*
X429684549Y-133511116D02*
G01*
X429795734Y-133533232D01*
X430005203Y-133619997D01*
X430193720Y-133745960D01*
X430354040Y-133906280D01*
X430480003Y-134094797D01*
X430546058Y-134254267D01*
X430566768Y-134304267D01*
X430601055Y-134476636D01*
X430611000Y-134526636D01*
X430611000Y-134753364D01*
X430566768Y-134975734D01*
X430480003Y-135185203D01*
X430354040Y-135373720D01*
X430193720Y-135534040D01*
X430005203Y-135660003D01*
X429795734Y-135746768D01*
X429684549Y-135768884D01*
X429573365Y-135791000D01*
X429346635Y-135791000D01*
X429235451Y-135768884D01*
X429124266Y-135746768D01*
X428914797Y-135660003D01*
X428726280Y-135534040D01*
X428565960Y-135373720D01*
X428439997Y-135185203D01*
X428353232Y-134975734D01*
X428309000Y-134753364D01*
X428309000Y-134526636D01*
X428318946Y-134476636D01*
X428353232Y-134304267D01*
X428373943Y-134254267D01*
X428439997Y-134094797D01*
X428565960Y-133906280D01*
X428726280Y-133745960D01*
X428914797Y-133619997D01*
X429124266Y-133533232D01*
X429235451Y-133511116D01*
X429346635Y-133489000D01*
X429573365Y-133489000D01*
X429684549Y-133511116D01*
G37*
G36*
X308734549Y-133511116D02*
G01*
X308845734Y-133533232D01*
X309055203Y-133619997D01*
X309243720Y-133745960D01*
X309404040Y-133906280D01*
X309530003Y-134094797D01*
X309596058Y-134254267D01*
X309616768Y-134304267D01*
X309651055Y-134476636D01*
X309661000Y-134526636D01*
X309661000Y-134753364D01*
X309616768Y-134975734D01*
X309530003Y-135185203D01*
X309404040Y-135373720D01*
X309243720Y-135534040D01*
X309055203Y-135660003D01*
X308845734Y-135746768D01*
X308734549Y-135768884D01*
X308623365Y-135791000D01*
X308396635Y-135791000D01*
X308285451Y-135768884D01*
X308174266Y-135746768D01*
X307964797Y-135660003D01*
X307776280Y-135534040D01*
X307615960Y-135373720D01*
X307489997Y-135185203D01*
X307403232Y-134975734D01*
X307359000Y-134753364D01*
X307359000Y-134526636D01*
X307368946Y-134476636D01*
X307403232Y-134304267D01*
X307423943Y-134254267D01*
X307489997Y-134094797D01*
X307615960Y-133906280D01*
X307776280Y-133745960D01*
X307964797Y-133619997D01*
X308174266Y-133533232D01*
X308285451Y-133511116D01*
X308396635Y-133489000D01*
X308623365Y-133489000D01*
X308734549Y-133511116D01*
G37*
G36*
X120784549Y-133511116D02*
G01*
X120895734Y-133533232D01*
X121105203Y-133619997D01*
X121293720Y-133745960D01*
X121454040Y-133906280D01*
X121580003Y-134094797D01*
X121646058Y-134254267D01*
X121666768Y-134304267D01*
X121701055Y-134476636D01*
X121711000Y-134526636D01*
X121711000Y-134753364D01*
X121666768Y-134975734D01*
X121580003Y-135185203D01*
X121454040Y-135373720D01*
X121293720Y-135534040D01*
X121105203Y-135660003D01*
X120895734Y-135746768D01*
X120784549Y-135768884D01*
X120673365Y-135791000D01*
X120446635Y-135791000D01*
X120335451Y-135768884D01*
X120224266Y-135746768D01*
X120014797Y-135660003D01*
X119826280Y-135534040D01*
X119665960Y-135373720D01*
X119539997Y-135185203D01*
X119453232Y-134975734D01*
X119409000Y-134753364D01*
X119409000Y-134526636D01*
X119418946Y-134476636D01*
X119453232Y-134304267D01*
X119473943Y-134254267D01*
X119539997Y-134094797D01*
X119665960Y-133906280D01*
X119826280Y-133745960D01*
X120014797Y-133619997D01*
X120224266Y-133533232D01*
X120335451Y-133511116D01*
X120446635Y-133489000D01*
X120673365Y-133489000D01*
X120784549Y-133511116D01*
G37*
G36*
X28584549Y-133511116D02*
G01*
X28695734Y-133533232D01*
X28905203Y-133619997D01*
X29093720Y-133745960D01*
X29254040Y-133906280D01*
X29380003Y-134094797D01*
X29446058Y-134254267D01*
X29466768Y-134304267D01*
X29501055Y-134476636D01*
X29511000Y-134526636D01*
X29511000Y-134753364D01*
X29466768Y-134975734D01*
X29380003Y-135185203D01*
X29254040Y-135373720D01*
X29093720Y-135534040D01*
X28905203Y-135660003D01*
X28695734Y-135746768D01*
X28584549Y-135768884D01*
X28473365Y-135791000D01*
X28246635Y-135791000D01*
X28135451Y-135768884D01*
X28024266Y-135746768D01*
X27814797Y-135660003D01*
X27626280Y-135534040D01*
X27465960Y-135373720D01*
X27339997Y-135185203D01*
X27253232Y-134975734D01*
X27209000Y-134753364D01*
X27209000Y-134526636D01*
X27218946Y-134476636D01*
X27253232Y-134304267D01*
X27273943Y-134254267D01*
X27339997Y-134094797D01*
X27465960Y-133906280D01*
X27626280Y-133745960D01*
X27814797Y-133619997D01*
X28024266Y-133533232D01*
X28135451Y-133511116D01*
X28246635Y-133489000D01*
X28473365Y-133489000D01*
X28584549Y-133511116D01*
G37*
G36*
X219384549Y-133461116D02*
G01*
X219495734Y-133483232D01*
X219705203Y-133569997D01*
X219893720Y-133695960D01*
X220054040Y-133856280D01*
X220180003Y-134044797D01*
X220266768Y-134254266D01*
X220276714Y-134304267D01*
X220311000Y-134476635D01*
X220311000Y-134703365D01*
X220301054Y-134753365D01*
X220266768Y-134925734D01*
X220180003Y-135135203D01*
X220054040Y-135323720D01*
X219893720Y-135484040D01*
X219705203Y-135610003D01*
X219495734Y-135696768D01*
X219384549Y-135718884D01*
X219273365Y-135741000D01*
X219046635Y-135741000D01*
X218935451Y-135718884D01*
X218824266Y-135696768D01*
X218614797Y-135610003D01*
X218426280Y-135484040D01*
X218265960Y-135323720D01*
X218139997Y-135135203D01*
X218053232Y-134925734D01*
X218018946Y-134753365D01*
X218009000Y-134703365D01*
X218009000Y-134476635D01*
X218043286Y-134304267D01*
X218053232Y-134254266D01*
X218139997Y-134044797D01*
X218265960Y-133856280D01*
X218426280Y-133695960D01*
X218614797Y-133569997D01*
X218824266Y-133483232D01*
X218935451Y-133461116D01*
X219046635Y-133439000D01*
X219273365Y-133439000D01*
X219384549Y-133461116D01*
G37*
G36*
X429684549Y-16211116D02*
G01*
X429795734Y-16233232D01*
X430005203Y-16319997D01*
X430193720Y-16445960D01*
X430354040Y-16606280D01*
X430480003Y-16794797D01*
X430566768Y-17004266D01*
X430611000Y-17226636D01*
X430611000Y-17453364D01*
X430566768Y-17675734D01*
X430480003Y-17885203D01*
X430354040Y-18073720D01*
X430193720Y-18234040D01*
X430005203Y-18360003D01*
X429795734Y-18446768D01*
X429684549Y-18468884D01*
X429573365Y-18491000D01*
X429346635Y-18491000D01*
X429235451Y-18468884D01*
X429124266Y-18446768D01*
X428914797Y-18360003D01*
X428726280Y-18234040D01*
X428565960Y-18073720D01*
X428439997Y-17885203D01*
X428353232Y-17675734D01*
X428309000Y-17453364D01*
X428309000Y-17226636D01*
X428353232Y-17004266D01*
X428439997Y-16794797D01*
X428565960Y-16606280D01*
X428726280Y-16445960D01*
X428914797Y-16319997D01*
X429124266Y-16233232D01*
X429235451Y-16211116D01*
X429346635Y-16189000D01*
X429573365Y-16189000D01*
X429684549Y-16211116D01*
G37*
G36*
X303634549Y-16211116D02*
G01*
X303745734Y-16233232D01*
X303955203Y-16319997D01*
X304143720Y-16445960D01*
X304304040Y-16606280D01*
X304430003Y-16794797D01*
X304516768Y-17004266D01*
X304561000Y-17226636D01*
X304561000Y-17453364D01*
X304516768Y-17675734D01*
X304430003Y-17885203D01*
X304304040Y-18073720D01*
X304143720Y-18234040D01*
X303955203Y-18360003D01*
X303745734Y-18446768D01*
X303634549Y-18468884D01*
X303523365Y-18491000D01*
X303296635Y-18491000D01*
X303185451Y-18468884D01*
X303074266Y-18446768D01*
X302864797Y-18360003D01*
X302676280Y-18234040D01*
X302515960Y-18073720D01*
X302389997Y-17885203D01*
X302303232Y-17675734D01*
X302259000Y-17453364D01*
X302259000Y-17226636D01*
X302303232Y-17004266D01*
X302389997Y-16794797D01*
X302515960Y-16606280D01*
X302676280Y-16445960D01*
X302864797Y-16319997D01*
X303074266Y-16233232D01*
X303185451Y-16211116D01*
X303296635Y-16189000D01*
X303523365Y-16189000D01*
X303634549Y-16211116D01*
G37*
G36*
X220184549Y-16211116D02*
G01*
X220295734Y-16233232D01*
X220505203Y-16319997D01*
X220693720Y-16445960D01*
X220854040Y-16606280D01*
X220980003Y-16794797D01*
X221066768Y-17004266D01*
X221111000Y-17226636D01*
X221111000Y-17453364D01*
X221066768Y-17675734D01*
X220980003Y-17885203D01*
X220854040Y-18073720D01*
X220693720Y-18234040D01*
X220505203Y-18360003D01*
X220295734Y-18446768D01*
X220184549Y-18468884D01*
X220073365Y-18491000D01*
X219846635Y-18491000D01*
X219735451Y-18468884D01*
X219624266Y-18446768D01*
X219414797Y-18360003D01*
X219226280Y-18234040D01*
X219065960Y-18073720D01*
X218939997Y-17885203D01*
X218853232Y-17675734D01*
X218809000Y-17453364D01*
X218809000Y-17226636D01*
X218853232Y-17004266D01*
X218939997Y-16794797D01*
X219065960Y-16606280D01*
X219226280Y-16445960D01*
X219414797Y-16319997D01*
X219624266Y-16233232D01*
X219735451Y-16211116D01*
X219846635Y-16189000D01*
X220073365Y-16189000D01*
X220184549Y-16211116D01*
G37*
G36*
X122084549Y-16211116D02*
G01*
X122195734Y-16233232D01*
X122405203Y-16319997D01*
X122593720Y-16445960D01*
X122754040Y-16606280D01*
X122880003Y-16794797D01*
X122966768Y-17004266D01*
X123011000Y-17226636D01*
X123011000Y-17453364D01*
X122966768Y-17675734D01*
X122880003Y-17885203D01*
X122754040Y-18073720D01*
X122593720Y-18234040D01*
X122405203Y-18360003D01*
X122195734Y-18446768D01*
X122084549Y-18468884D01*
X121973365Y-18491000D01*
X121746635Y-18491000D01*
X121635451Y-18468884D01*
X121524266Y-18446768D01*
X121314797Y-18360003D01*
X121126280Y-18234040D01*
X120965960Y-18073720D01*
X120839997Y-17885203D01*
X120753232Y-17675734D01*
X120709000Y-17453364D01*
X120709000Y-17226636D01*
X120753232Y-17004266D01*
X120839997Y-16794797D01*
X120965960Y-16606280D01*
X121126280Y-16445960D01*
X121314797Y-16319997D01*
X121524266Y-16233232D01*
X121635451Y-16211116D01*
X121746635Y-16189000D01*
X121973365Y-16189000D01*
X122084549Y-16211116D01*
G37*
G36*
X28584549Y-16211116D02*
G01*
X28695734Y-16233232D01*
X28905203Y-16319997D01*
X29093720Y-16445960D01*
X29254040Y-16606280D01*
X29380003Y-16794797D01*
X29466768Y-17004266D01*
X29511000Y-17226636D01*
X29511000Y-17453364D01*
X29466768Y-17675734D01*
X29380003Y-17885203D01*
X29254040Y-18073720D01*
X29093720Y-18234040D01*
X28905203Y-18360003D01*
X28695734Y-18446768D01*
X28584549Y-18468884D01*
X28473365Y-18491000D01*
X28246635Y-18491000D01*
X28135451Y-18468884D01*
X28024266Y-18446768D01*
X27814797Y-18360003D01*
X27626280Y-18234040D01*
X27465960Y-18073720D01*
X27339997Y-17885203D01*
X27253232Y-17675734D01*
X27209000Y-17453364D01*
X27209000Y-17226636D01*
X27253232Y-17004266D01*
X27339997Y-16794797D01*
X27465960Y-16606280D01*
X27626280Y-16445960D01*
X27814797Y-16319997D01*
X28024266Y-16233232D01*
X28135451Y-16211116D01*
X28246635Y-16189000D01*
X28473365Y-16189000D01*
X28584549Y-16211116D01*
G37*
M02*
