<?xml version="1.0" encoding="UTF-8" standalone="no"?>
<!DOCTYPE svg PUBLIC "-//W3C//DTD SVG 1.1//EN" "http://www.w3.org/Graphics/SVG/1.1/DTD/svg11.dtd">
<svg width="100%" height="100%" viewBox="0 0 1123 794" version="1.1" xmlns="http://www.w3.org/2000/svg" xmlns:xlink="http://www.w3.org/1999/xlink" xml:space="preserve" xmlns:serif="http://www.serif.com/" style="fill-rule:evenodd;clip-rule:evenodd;stroke-linejoin:round;stroke-miterlimit:1.5;">
    <g transform="matrix(0.32,0,0,0.32,0,0)">
        <g id="Bottom">
            <path d="M1834.47,155.559C1834.47,153.554 1833.67,151.632 1832.26,150.214C1830.84,148.796 1828.91,148 1826.91,148C1734.47,148 823.613,148 731.17,148C729.165,148 727.242,148.796 725.824,150.214C724.407,151.632 723.61,153.554 723.61,155.559C723.61,175.644 723.61,229.543 723.61,240.317C723.61,241.361 724.457,242.207 725.5,242.207C739.306,242.207 824.085,242.207 824.085,242.207L824.085,476.125L725.5,476.125C724.457,476.125 723.61,476.971 723.61,478.015C723.61,527.732 723.61,1542.63 723.61,1640.44C723.61,1644.62 726.995,1648 731.17,1648C823.613,1648 1734.47,1648 1826.91,1648C1831.08,1648 1834.47,1644.62 1834.47,1640.44C1834.47,1542.63 1834.47,527.732 1834.47,478.015C1834.47,476.971 1833.62,476.125 1832.58,476.125C1813.86,476.125 1662.33,476.125 1662.33,476.125L1662.33,242.207L1832.58,242.207C1833.62,242.207 1834.47,241.361 1834.47,240.317C1834.47,229.543 1834.47,175.644 1834.47,155.559ZM770.876,1612.94C764.34,1612.94 759.044,1607.65 759.044,1601.12C759.044,1594.61 764.34,1589.31 770.876,1589.31C777.369,1589.31 782.666,1594.61 782.666,1601.12C782.666,1607.65 777.369,1612.94 770.876,1612.94ZM1787.25,1612.57C1780.71,1612.57 1775.41,1607.28 1775.41,1600.75C1775.41,1594.24 1780.71,1588.94 1787.25,1588.94C1793.74,1588.94 1799.04,1594.24 1799.04,1600.75C1799.04,1607.28 1793.74,1612.57 1787.25,1612.57ZM770.876,1131.37C764.34,1131.37 759.044,1126.08 759.044,1119.55C759.044,1113.04 764.34,1107.74 770.876,1107.74C777.369,1107.74 782.666,1113.04 782.666,1119.55C782.666,1126.08 777.369,1131.37 770.876,1131.37ZM1787.25,549.575C1780.71,549.575 1775.41,544.292 1775.41,537.762C1775.41,531.244 1780.71,525.953 1787.25,525.953C1793.74,525.953 1799.04,531.244 1799.04,537.762C1799.04,544.292 1793.74,549.575 1787.25,549.575ZM1787.25,207.055C1780.71,207.055 1775.41,201.772 1775.41,195.242C1775.41,188.724 1780.71,183.433 1787.25,183.433C1793.74,183.433 1799.04,188.724 1799.04,195.242C1799.04,201.772 1793.74,207.055 1787.25,207.055ZM770.876,207.055C764.34,207.055 759.044,201.772 759.044,195.242C759.044,188.724 764.34,183.433 770.876,183.433C777.369,183.433 782.666,188.724 782.666,195.242C782.666,201.772 777.369,207.055 770.876,207.055Z" style="fill:rgb(98,0,16);fill-opacity:0.16;stroke:rgb(0,147,60);stroke-width:0.94px;"/>
        </g>
    </g>
</svg>
