<?xml version="1.0" encoding="UTF-8" standalone="no"?>
<!DOCTYPE svg PUBLIC "-//W3C//DTD SVG 1.1//EN" "http://www.w3.org/Graphics/SVG/1.1/DTD/svg11.dtd">
<svg width="100%" height="100%" viewBox="0 0 1123 794" version="1.1" xmlns="http://www.w3.org/2000/svg" xmlns:xlink="http://www.w3.org/1999/xlink" xml:space="preserve" xmlns:serif="http://www.serif.com/" style="fill-rule:evenodd;clip-rule:evenodd;stroke-linecap:square;stroke-linejoin:round;stroke-miterlimit:1.5;">
    <g transform="matrix(0.32,0,0,0.32,0,0)">
        <g id="Bottom">
            <path id="外形" d="M671.853,148C672.423,148 672.963,148.257 673.322,148.701C673.68,149.144 673.82,149.725 673.701,150.283C669.26,171.178 635.82,328.484 635.82,328.484C635.82,328.484 735.792,349.682 750.702,352.844C751.192,352.948 751.621,353.243 751.894,353.663C752.168,354.084 752.262,354.596 752.158,355.086C747.198,378.357 697.123,613.326 697.123,613.326L922.018,663.129C922.018,663.129 1024.55,179.903 1031,149.498C1031.19,148.624 1031.96,148 1032.85,148C1076.03,148 2018.81,148 2112.97,148C2114.97,148 2116.89,148.796 2118.31,150.214C2119.73,151.632 2120.53,153.554 2120.53,155.559C2120.53,175.644 2120.53,229.543 2120.53,240.317C2120.53,241.361 2119.68,242.207 2118.64,242.207C2104.5,242.207 2015.85,242.207 2015.85,242.207L2015.85,476.125L2118.64,476.125C2119.68,476.125 2120.53,476.971 2120.53,478.015C2120.53,527.732 2120.53,1542.63 2120.53,1640.44C2120.53,1644.62 2117.14,1648 2112.97,1648C2077.47,1648 1927.53,1648 1890.87,1648C1885.48,1648 1880.1,1647.42 1874.83,1646.28C1819.79,1634.33 1495.08,1563.84 1440.04,1551.89C1434.77,1550.75 1429.39,1550.17 1424,1550.17C1319.61,1550.17 240.025,1550.17 83.426,1550.17C78.414,1550.17 73.608,1548.18 70.064,1544.63C66.52,1541.09 64.529,1536.28 64.529,1531.27C64.529,1391.62 64.529,523.909 64.529,478.015C64.529,477.514 64.728,477.033 65.082,476.678C65.437,476.324 65.917,476.125 66.419,476.125C85.066,476.125 235.43,476.125 235.43,476.125L235.43,242.889L66.419,242.889C65.917,242.889 65.437,242.69 65.082,242.336C64.728,241.981 64.529,241.501 64.529,240.999C64.529,231.819 64.529,191.324 64.529,166.898C64.529,156.461 72.99,148 83.426,148C182.136,148 635.374,148 671.853,148ZM2073.3,1612.57C2066.77,1612.57 2061.47,1607.28 2061.47,1600.75C2061.47,1594.24 2066.77,1588.94 2073.3,1588.94C2079.8,1588.94 2085.09,1594.24 2085.09,1600.75C2085.09,1607.28 2079.8,1612.57 2073.3,1612.57ZM111.794,1514.74C105.259,1514.74 99.962,1509.45 99.962,1502.92C99.962,1496.4 105.259,1491.11 111.794,1491.11C118.287,1491.11 123.584,1496.4 123.584,1502.92C123.584,1509.45 118.287,1514.74 111.794,1514.74ZM1159.47,1514.74C1152.93,1514.74 1147.64,1509.45 1147.64,1502.92C1147.64,1496.4 1152.93,1491.11 1159.47,1491.11C1165.96,1491.11 1171.26,1496.4 1171.26,1502.92C1171.26,1509.45 1165.96,1514.74 1159.47,1514.74ZM2073.3,903.214C2066.77,903.214 2061.47,897.931 2061.47,891.401C2061.47,884.883 2066.77,879.592 2073.3,879.592C2079.8,879.592 2085.09,884.883 2085.09,891.401C2085.09,897.931 2079.8,903.214 2073.3,903.214ZM111.794,765.372C105.259,765.372 99.962,760.089 99.962,753.559C99.962,747.041 105.259,741.75 111.794,741.75C118.287,741.75 123.584,747.041 123.584,753.559C123.584,760.089 118.287,765.372 111.794,765.372ZM111.794,207.055C105.259,207.055 99.962,201.772 99.962,195.242C99.962,188.724 105.259,183.433 111.794,183.433C118.287,183.433 123.584,188.724 123.584,195.242C123.584,201.772 118.287,207.055 111.794,207.055ZM2073.3,207.055C2066.77,207.055 2061.47,201.772 2061.47,195.242C2061.47,188.724 2066.77,183.433 2073.3,183.433C2079.8,183.433 2085.09,188.724 2085.09,195.242C2085.09,201.772 2079.8,207.055 2073.3,207.055ZM1113.88,207.055C1107.34,207.055 1102.04,201.772 1102.04,195.242C1102.04,188.724 1107.34,183.433 1113.88,183.433C1120.37,183.433 1125.66,188.724 1125.66,195.242C1125.66,201.772 1120.37,207.055 1113.88,207.055ZM616.557,207.055C610.022,207.055 604.725,201.772 604.725,195.242C604.725,188.724 610.022,183.433 616.557,183.433C623.05,183.433 628.347,188.724 628.347,195.242C628.347,201.772 623.05,207.055 616.557,207.055Z" style="fill:rgb(147,37,0);fill-opacity:0.21;stroke:rgb(0,126,66);stroke-width:0.76px;"/>
        </g>
    </g>
</svg>
