  0
SECTION
  2
HEADER
  9
$ACADVER
  1
AC1014
  9
$HANDSEED
  5
FFFF
  9
$MEASUREMENT
 70
     1
  0
ENDSEC
  0
SECTION
  2
TABLES
  0
TABLE
  2
VPORT
  5
8
330
0
100
AcDbSymbolTable
 70
     4
  0
VPORT
  5
2E
330
8
100
AcDbSymbolTableRecord
100
AcDbViewportTableRecord
  2
*ACTIVE
 70
     0
 10
0.0
 20
0.0
 11
1.0
 21
1.0
 12
210.0
 22
148.5
 13
0.0
 23
0.0
 14
10.0
 24
10.0
 15
10.0
 25
10.0
 16
0.0
 26
0.0
 36
1.0
 17
0.0
 27
0.0
 37
0.0
 40
341.0
 41
1.24
 42
50.0
 43
0.0
 44
0.0
 50
0.0
 51
0.0
 71
     0
 72
   100
 73
     1
 74
     3
 75
     0
 76
     0
 77
     0
 78
     0
  0
ENDTAB
  0
TABLE
  2
LTYPE
  5
5
330
0
100
AcDbSymbolTable
 70
     1
  0
LTYPE
  5
14
330
5
100
AcDbSymbolTableRecord
100
AcDbLinetypeTableRecord
  2
BYBLOCK
 70
     0
  3

 72
    65
 73
     0
 40
0.0
  0
LTYPE
  5
15
330
5
100
AcDbSymbolTableRecord
100
AcDbLinetypeTableRecord
  2
BYLAYER
 70
     0
  3

 72
    65
 73
     0
 40
0.0
  0
LTYPE
  5
16
330
5
100
AcDbSymbolTableRecord
100
AcDbLinetypeTableRecord
  2
CONTINUOUS
 70
     0
  3
Solid line
 72
    65
 73
     0
 40
0.0
  0
ENDTAB
  0
TABLE
  2
LAYER
  5
2
100
AcDbSymbolTable
 70
1
  0
LAYER
  5
50
100
AcDbSymbolTableRecord
100
AcDbLayerTableRecord
  2
0
 70
0
  6
CONTINUOUS
  0
ENDTAB
  0
TABLE
  2
STYLE
  5
3
330
0
100
AcDbSymbolTable
 70
     1
  0
STYLE
  5
11
330
3
100
AcDbSymbolTableRecord
100
AcDbTextStyleTableRecord
  2
STANDARD
 70
     0
 40
0.0
 41
1.0
 50
0.0
 71
     0
 42
2.5
  3
txt
  4

  0
ENDTAB
  0
TABLE
  2
VIEW
  5
6
330
0
100
AcDbSymbolTable
 70
     0
  0
ENDTAB
  0
TABLE
  2
UCS
  5
7
330
0
100
AcDbSymbolTable
 70
     0
  0
ENDTAB
  0
TABLE
  2
APPID
  5
9
330
0
100
AcDbSymbolTable
 70
     2
  0
APPID
  5
12
330
9
100
AcDbSymbolTableRecord
100
AcDbRegAppTableRecord
  2
ACAD
 70
     0
  0
ENDTAB
  0
TABLE
  2
DIMSTYLE
  5
A
330
0
100
AcDbSymbolTable
 70
     1
  0
DIMSTYLE
105
27
330
A
100
AcDbSymbolTableRecord
100
AcDbDimStyleTableRecord
  2
ISO-25
 70
     0
  3

  4

  5

  6

  7

 40
1.0
 41
2.5
 42
0.625
 43
3.75
 44
1.25
 45
0.0
 46
0.0
 47
0.0
 48
0.0
140
2.5
141
2.5
142
0.0
143
0.03937007874016
144
1.0
145
0.0
146
1.0
147
0.625
 71
     0
 72
     0
 73
     0
 74
     0
 75
     0
 76
     0
 77
     1
 78
     8
170
     0
171
     3
172
     1
173
     0
174
     0
175
     0
176
     0
177
     0
178
     0
270
     2
271
     2
272
     2
273
     2
274
     3
340
11
275
     0
280
     0
281
     0
282
     0
283
     0
284
     8
285
     0
286
     0
287
     3
288
     0
  0
ENDTAB
  0
TABLE
  2
BLOCK_RECORD
  5
1
330
0
100
AcDbSymbolTable
 70
     1
  0
BLOCK_RECORD
  5
1F
330
1
100
AcDbSymbolTableRecord
100
AcDbBlockTableRecord
  2
*MODEL_SPACE
  0
BLOCK_RECORD
  5
1B
330
1
100
AcDbSymbolTableRecord
100
AcDbBlockTableRecord
  2
*PAPER_SPACE
  0
ENDTAB
  0
ENDSEC
  0
SECTION
  2
BLOCKS
  0
BLOCK
  5
20
330
1F
100
AcDbEntity
  8
0
100
AcDbBlockBegin
  2
*MODEL_SPACE
 70
     0
 10
0.0
 20
0.0
 30
0.0
  3
*MODEL_SPACE
  1

  0
ENDBLK
  5
21
330
1F
100
AcDbEntity
  8
0
100
AcDbBlockEnd
  0
BLOCK
  5
1C
330
1B
100
AcDbEntity
 67
     1
  8
0
100
AcDbBlockBegin
  2
*PAPER_SPACE
  1

  0
ENDBLK
  5
1D
330
1B
100
AcDbEntity
 67
     1
  8
0
100
AcDbBlockEnd
  0
ENDSEC
  0
SECTION
  2
ENTITIES
  0
SPLINE
  5
100
100
AcDbEntity
  8
0
 62
4
100
AcDbSpline
 70
8
 71
3
 72
8
 73
4
 74
0
 40
0
 40
0
 40
0
 40
0
 40
1
 40
1
 40
1
 40
1
 10
56.883554
 20
197.548500
 30
0.0
 10
56.931814
 20
197.548500
 30
0.0
 10
56.977534
 20
197.526741
 30
0.0
 10
57.007929
 20
197.489149
 30
0.0
  0
SPLINE
  5
101
100
AcDbEntity
  8
0
 62
4
100
AcDbSpline
 70
8
 71
3
 72
8
 73
4
 74
0
 40
0
 40
0
 40
0
 40
0
 40
1
 40
1
 40
1
 40
1
 10
57.007929
 20
197.489149
 30
0.0
 10
57.038240
 20
197.451641
 30
0.0
 10
57.050093
 20
197.402450
 30
0.0
 10
57.040018
 20
197.355206
 30
0.0
  0
SPLINE
  5
102
100
AcDbEntity
  8
0
 62
4
100
AcDbSpline
 70
8
 71
3
 72
8
 73
4
 74
0
 40
0
 40
0
 40
0
 40
0
 40
1
 40
1
 40
1
 40
1
 10
57.040018
 20
197.355206
 30
0.0
 10
56.664013
 20
195.586096
 30
0.0
 10
53.832760
 20
182.267521
 30
0.0
 10
53.832760
 20
182.267521
 30
0.0
  0
SPLINE
  5
103
100
AcDbEntity
  8
0
 62
4
100
AcDbSpline
 70
8
 71
3
 72
8
 73
4
 74
0
 40
0
 40
0
 40
0
 40
0
 40
1
 40
1
 40
1
 40
1
 10
53.832760
 20
182.267521
 30
0.0
 10
53.832760
 20
182.267521
 30
0.0
 10
62.297056
 20
180.472757
 30
0.0
 10
63.559436
 20
180.205041
 30
0.0
  0
SPLINE
  5
104
100
AcDbEntity
  8
0
 62
4
100
AcDbSpline
 70
8
 71
3
 72
8
 73
4
 74
0
 40
0
 40
0
 40
0
 40
0
 40
1
 40
1
 40
1
 40
1
 10
63.559436
 20
180.205041
 30
0.0
 10
63.600923
 20
180.196236
 30
0.0
 10
63.637245
 20
180.171259
 30
0.0
 10
63.660359
 20
180.135699
 30
0.0
  0
SPLINE
  5
105
100
AcDbEntity
  8
0
 62
4
100
AcDbSpline
 70
8
 71
3
 72
8
 73
4
 74
0
 40
0
 40
0
 40
0
 40
0
 40
1
 40
1
 40
1
 40
1
 10
63.660359
 20
180.135699
 30
0.0
 10
63.683557
 20
180.100055
 30
0.0
 10
63.691516
 20
180.056705
 30
0.0
 10
63.682711
 20
180.015219
 30
0.0
  0
SPLINE
  5
106
100
AcDbEntity
  8
0
 62
4
100
AcDbSpline
 70
8
 71
3
 72
8
 73
4
 74
0
 40
0
 40
0
 40
0
 40
0
 40
1
 40
1
 40
1
 40
1
 10
63.682711
 20
180.015219
 30
0.0
 10
63.262764
 20
178.044941
 30
0.0
 10
59.023081
 20
158.150899
 30
0.0
 10
59.023081
 20
158.150899
 30
0.0
  0
SPLINE
  5
107
100
AcDbEntity
  8
0
 62
4
100
AcDbSpline
 70
8
 71
3
 72
8
 73
4
 74
0
 40
0
 40
0
 40
0
 40
0
 40
1
 40
1
 40
1
 40
1
 10
78.064191
 20
153.934245
 30
0.0
 10
78.064191
 20
153.934245
 30
0.0
 10
86.745233
 20
194.847379
 30
0.0
 10
87.291333
 20
197.421669
 30
0.0
  0
SPLINE
  5
108
100
AcDbEntity
  8
0
 62
4
100
AcDbSpline
 70
8
 71
3
 72
8
 73
4
 74
0
 40
0
 40
0
 40
0
 40
0
 40
1
 40
1
 40
1
 40
1
 10
87.291333
 20
197.421669
 30
0.0
 10
87.307420
 20
197.495668
 30
0.0
 10
87.372613
 20
197.548500
 30
0.0
 10
87.447967
 20
197.548500
 30
0.0
  0
SPLINE
  5
109
100
AcDbEntity
  8
0
 62
4
100
AcDbSpline
 70
8
 71
3
 72
8
 73
4
 74
0
 40
0
 40
0
 40
0
 40
0
 40
1
 40
1
 40
1
 40
1
 10
87.447967
 20
197.548500
 30
0.0
 10
91.103873
 20
197.548500
 30
0.0
 10
170.925913
 20
197.548500
 30
0.0
 10
178.898127
 20
197.548500
 30
0.0
  0
SPLINE
  5
10a
100
AcDbEntity
  8
0
 62
4
100
AcDbSpline
 70
8
 71
3
 72
8
 73
4
 74
0
 40
0
 40
0
 40
0
 40
0
 40
1
 40
1
 40
1
 40
1
 10
178.898127
 20
197.548500
 30
0.0
 10
179.067460
 20
197.548500
 30
0.0
 10
179.230020
 20
197.481105
 30
0.0
 10
179.350247
 20
197.361048
 30
0.0
  0
SPLINE
  5
10b
100
AcDbEntity
  8
0
 62
4
100
AcDbSpline
 70
8
 71
3
 72
8
 73
4
 74
0
 40
0
 40
0
 40
0
 40
0
 40
1
 40
1
 40
1
 40
1
 10
179.350247
 20
197.361048
 30
0.0
 10
179.470473
 20
197.240991
 30
0.0
 10
179.538207
 20
197.078261
 30
0.0
 10
179.538207
 20
196.908505
 30
0.0
  0
SPLINE
  5
10c
100
AcDbEntity
  8
0
 62
4
100
AcDbSpline
 70
8
 71
3
 72
8
 73
4
 74
0
 40
0
 40
0
 40
0
 40
0
 40
1
 40
1
 40
1
 40
1
 10
179.538207
 20
196.908505
 30
0.0
 10
179.538207
 20
195.207975
 30
0.0
 10
179.538207
 20
190.644526
 30
0.0
 10
179.538207
 20
189.732327
 30
0.0
  0
SPLINE
  5
10d
100
AcDbEntity
  8
0
 62
4
100
AcDbSpline
 70
8
 71
3
 72
8
 73
4
 74
0
 40
0
 40
0
 40
0
 40
0
 40
1
 40
1
 40
1
 40
1
 10
179.538207
 20
189.732327
 30
0.0
 10
179.538207
 20
189.643935
 30
0.0
 10
179.466240
 20
189.572307
 30
0.0
 10
179.378187
 20
189.572307
 30
0.0
  0
SPLINE
  5
10e
100
AcDbEntity
  8
0
 62
4
100
AcDbSpline
 70
8
 71
3
 72
8
 73
4
 74
0
 40
0
 40
0
 40
0
 40
0
 40
1
 40
1
 40
1
 40
1
 10
179.378187
 20
189.572307
 30
0.0
 10
178.181000
 20
189.572307
 30
0.0
 10
170.675300
 20
189.572307
 30
0.0
 10
170.675300
 20
189.572307
 30
0.0
  0
LWPOLYLINE
  5
10f
100
AcDbEntity
  8
0
 62
4
100
AcDbPolyline
 90
2
 70
0
 10
59.023081
 20
158.150899
 30
0.0
 10
78.064191
 20
153.934245
 30
0.0
  0
SPLINE
  5
110
100
AcDbEntity
  8
0
 62
4
100
AcDbSpline
 70
8
 71
3
 72
8
 73
4
 74
0
 40
0
 40
0
 40
0
 40
0
 40
1
 40
1
 40
1
 40
1
 10
179.378187
 20
169.767250
 30
0.0
 10
179.466240
 20
169.767250
 30
0.0
 10
179.538207
 20
169.695622
 30
0.0
 10
179.538207
 20
169.607230
 30
0.0
  0
SPLINE
  5
111
100
AcDbEntity
  8
0
 62
4
100
AcDbSpline
 70
8
 71
3
 72
8
 73
4
 74
0
 40
0
 40
0
 40
0
 40
0
 40
1
 40
1
 40
1
 40
1
 10
179.538207
 20
169.607230
 30
0.0
 10
179.538207
 20
165.397857
 30
0.0
 10
179.538207
 20
79.469827
 30
0.0
 10
179.538207
 20
71.188580
 30
0.0
  0
SPLINE
  5
112
100
AcDbEntity
  8
0
 62
4
100
AcDbSpline
 70
8
 71
3
 72
8
 73
4
 74
0
 40
0
 40
0
 40
0
 40
0
 40
1
 40
1
 40
1
 40
1
 10
179.538207
 20
71.188580
 30
0.0
 10
179.538207
 20
70.834673
 30
0.0
 10
179.251187
 20
70.548500
 30
0.0
 10
178.898127
 20
70.548500
 30
0.0
  0
SPLINE
  5
113
100
AcDbEntity
  8
0
 62
4
100
AcDbSpline
 70
8
 71
3
 72
8
 73
4
 74
0
 40
0
 40
0
 40
0
 40
0
 40
1
 40
1
 40
1
 40
1
 10
178.898127
 20
70.548500
 30
0.0
 10
175.892460
 20
70.548500
 30
0.0
 10
163.197540
 20
70.548500
 30
0.0
 10
160.093660
 20
70.548500
 30
0.0
  0
SPLINE
  5
114
100
AcDbEntity
  8
0
 62
4
100
AcDbSpline
 70
8
 71
3
 72
8
 73
4
 74
0
 40
0
 40
0
 40
0
 40
0
 40
1
 40
1
 40
1
 40
1
 10
160.093660
 20
70.548500
 30
0.0
 10
159.637307
 20
70.548500
 30
0.0
 10
159.181800
 20
70.597607
 30
0.0
 10
158.735607
 20
70.694127
 30
0.0
  0
SPLINE
  5
115
100
AcDbEntity
  8
0
 62
4
100
AcDbSpline
 70
8
 71
3
 72
8
 73
4
 74
0
 40
0
 40
0
 40
0
 40
0
 40
1
 40
1
 40
1
 40
1
 10
158.735607
 20
70.694127
 30
0.0
 10
154.075553
 20
71.705893
 30
0.0
 10
126.583440
 20
77.674047
 30
0.0
 10
121.923387
 20
78.685813
 30
0.0
  0
SPLINE
  5
116
100
AcDbEntity
  8
0
 62
4
100
AcDbSpline
 70
8
 71
3
 72
8
 73
4
 74
0
 40
0
 40
0
 40
0
 40
0
 40
1
 40
1
 40
1
 40
1
 10
121.923387
 20
78.685813
 30
0.0
 10
121.477193
 20
78.782333
 30
0.0
 10
121.021687
 20
78.831440
 30
0.0
 10
120.565333
 20
78.831440
 30
0.0
  0
SPLINE
  5
117
100
AcDbEntity
  8
0
 62
4
100
AcDbSpline
 70
8
 71
3
 72
8
 73
4
 74
0
 40
0
 40
0
 40
0
 40
0
 40
1
 40
1
 40
1
 40
1
 10
120.565333
 20
78.831440
 30
0.0
 10
111.726980
 20
78.831440
 30
0.0
 10
20.322117
 20
78.831440
 30
0.0
 10
7.063401
 20
78.831440
 30
0.0
  0
SPLINE
  5
118
100
AcDbEntity
  8
0
 62
4
100
AcDbSpline
 70
8
 71
3
 72
8
 73
4
 74
0
 40
0
 40
0
 40
0
 40
0
 40
1
 40
1
 40
1
 40
1
 10
7.063401
 20
78.831440
 30
0.0
 10
6.639052
 20
78.831440
 30
0.0
 10
6.232144
 20
78.999927
 30
0.0
 10
5.932085
 20
79.300493
 30
0.0
  0
SPLINE
  5
119
100
AcDbEntity
  8
0
 62
4
100
AcDbSpline
 70
8
 71
3
 72
8
 73
4
 74
0
 40
0
 40
0
 40
0
 40
0
 40
1
 40
1
 40
1
 40
1
 10
5.932085
 20
79.300493
 30
0.0
 10
5.632027
 20
79.600213
 30
0.0
 10
5.463455
 20
80.007460
 30
0.0
 10
5.463455
 20
80.431640
 30
0.0
  0
SPLINE
  5
11a
100
AcDbEntity
  8
0
 62
4
100
AcDbSpline
 70
8
 71
3
 72
8
 73
4
 74
0
 40
0
 40
0
 40
0
 40
0
 40
1
 40
1
 40
1
 40
1
 10
5.463455
 20
80.431640
 30
0.0
 10
5.463455
 20
92.255340
 30
0.0
 10
5.463455
 20
165.721538
 30
0.0
 10
5.463455
 20
169.607230
 30
0.0
  0
SPLINE
  5
11b
100
AcDbEntity
  8
0
 62
4
100
AcDbSpline
 70
8
 71
3
 72
8
 73
4
 74
0
 40
0
 40
0
 40
0
 40
0
 40
1
 40
1
 40
1
 40
1
 10
5.463455
 20
169.607230
 30
0.0
 10
5.463455
 20
169.649648
 30
0.0
 10
5.480304
 20
169.690373
 30
0.0
 10
5.510276
 20
169.720429
 30
0.0
  0
SPLINE
  5
11c
100
AcDbEntity
  8
0
 62
4
100
AcDbSpline
 70
8
 71
3
 72
8
 73
4
 74
0
 40
0
 40
0
 40
0
 40
0
 40
1
 40
1
 40
1
 40
1
 10
5.510276
 20
169.720429
 30
0.0
 10
5.540333
 20
169.750401
 30
0.0
 10
5.580973
 20
169.767250
 30
0.0
 10
5.623475
 20
169.767250
 30
0.0
  0
SPLINE
  5
11d
100
AcDbEntity
  8
0
 62
4
100
AcDbSpline
 70
8
 71
3
 72
8
 73
4
 74
0
 40
0
 40
0
 40
0
 40
0
 40
1
 40
1
 40
1
 40
1
 10
5.623475
 20
169.767250
 30
0.0
 10
7.202255
 20
169.767250
 30
0.0
 10
19.933073
 20
169.767250
 30
0.0
 10
19.933073
 20
169.767250
 30
0.0
  0
LWPOLYLINE
  5
11e
100
AcDbEntity
  8
0
 62
4
100
AcDbPolyline
 90
3
 70
0
 10
170.675300
 20
189.572307
 30
0.0
 10
170.675300
 20
169.767250
 30
0.0
 10
179.378187
 20
169.767250
 30
0.0
  0
SPLINE
  5
11f
100
AcDbEntity
  8
0
 62
4
100
AcDbSpline
 70
8
 71
3
 72
8
 73
4
 74
0
 40
0
 40
0
 40
0
 40
0
 40
1
 40
1
 40
1
 40
1
 10
5.623475
 20
189.514565
 30
0.0
 10
5.580973
 20
189.514565
 30
0.0
 10
5.540333
 20
189.531413
 30
0.0
 10
5.510276
 20
189.561385
 30
0.0
  0
SPLINE
  5
120
100
AcDbEntity
  8
0
 62
4
100
AcDbSpline
 70
8
 71
3
 72
8
 73
4
 74
0
 40
0
 40
0
 40
0
 40
0
 40
1
 40
1
 40
1
 40
1
 10
5.510276
 20
189.561385
 30
0.0
 10
5.480304
 20
189.591442
 30
0.0
 10
5.463455
 20
189.632082
 30
0.0
 10
5.463455
 20
189.674585
 30
0.0
  0
SPLINE
  5
121
100
AcDbEntity
  8
0
 62
4
100
AcDbSpline
 70
8
 71
3
 72
8
 73
4
 74
0
 40
0
 40
0
 40
0
 40
0
 40
1
 40
1
 40
1
 40
1
 10
5.463455
 20
189.674585
 30
0.0
 10
5.463455
 20
190.451825
 30
0.0
 10
5.463455
 20
193.880401
 30
0.0
 10
5.463455
 20
195.948469
 30
0.0
  0
SPLINE
  5
122
100
AcDbEntity
  8
0
 62
4
100
AcDbSpline
 70
8
 71
3
 72
8
 73
4
 74
0
 40
0
 40
0
 40
0
 40
0
 40
1
 40
1
 40
1
 40
1
 10
5.463455
 20
195.948469
 30
0.0
 10
5.463455
 20
196.832135
 30
0.0
 10
6.179820
 20
197.548500
 30
0.0
 10
7.063401
 20
197.548500
 30
0.0
  0
SPLINE
  5
123
100
AcDbEntity
  8
0
 62
4
100
AcDbSpline
 70
8
 71
3
 72
8
 73
4
 74
0
 40
0
 40
0
 40
0
 40
0
 40
1
 40
1
 40
1
 40
1
 10
7.063401
 20
197.548500
 30
0.0
 10
15.420848
 20
197.548500
 30
0.0
 10
53.794999
 20
197.548500
 30
0.0
 10
56.883554
 20
197.548500
 30
0.0
  0
LWPOLYLINE
  5
124
100
AcDbEntity
  8
0
 62
4
100
AcDbPolyline
 90
3
 70
0
 10
19.933073
 20
169.767250
 30
0.0
 10
19.933073
 20
189.514565
 30
0.0
 10
5.623475
 20
189.514565
 30
0.0
  0
SPLINE
  5
125
100
AcDbEntity
  8
0
 62
4
100
AcDbSpline
 70
8
 71
3
 72
8
 73
4
 74
0
 40
0
 40
0
 40
0
 40
0
 40
1
 40
1
 40
1
 40
1
 10
175.539400
 20
73.548240
 30
0.0
 10
174.986527
 20
73.548240
 30
0.0
 10
174.537793
 20
73.996127
 30
0.0
 10
174.537793
 20
74.549000
 30
0.0
  0
SPLINE
  5
126
100
AcDbEntity
  8
0
 62
4
100
AcDbSpline
 70
8
 71
3
 72
8
 73
4
 74
0
 40
0
 40
0
 40
0
 40
0
 40
1
 40
1
 40
1
 40
1
 10
174.537793
 20
74.549000
 30
0.0
 10
174.537793
 20
75.100180
 30
0.0
 10
174.986527
 20
75.548913
 30
0.0
 10
175.539400
 20
75.548913
 30
0.0
  0
SPLINE
  5
127
100
AcDbEntity
  8
0
 62
4
100
AcDbSpline
 70
8
 71
3
 72
8
 73
4
 74
0
 40
0
 40
0
 40
0
 40
0
 40
1
 40
1
 40
1
 40
1
 10
175.539400
 20
75.548913
 30
0.0
 10
176.089733
 20
75.548913
 30
0.0
 10
176.537620
 20
75.100180
 30
0.0
 10
176.537620
 20
74.549000
 30
0.0
  0
SPLINE
  5
128
100
AcDbEntity
  8
0
 62
4
100
AcDbSpline
 70
8
 71
3
 72
8
 73
4
 74
0
 40
0
 40
0
 40
0
 40
0
 40
1
 40
1
 40
1
 40
1
 10
176.537620
 20
74.549000
 30
0.0
 10
176.537620
 20
73.996127
 30
0.0
 10
176.089733
 20
73.548240
 30
0.0
 10
175.539400
 20
73.548240
 30
0.0
  0
LWPOLYLINE
  5
129
100
AcDbEntity
  8
0
 62
4
100
AcDbPolyline
 90
1
 70
1
 10
56.883554
 20
197.548500
 30
0.0
  0
SPLINE
  5
12a
100
AcDbEntity
  8
0
 62
4
100
AcDbSpline
 70
8
 71
3
 72
8
 73
4
 74
0
 40
0
 40
0
 40
0
 40
0
 40
1
 40
1
 40
1
 40
1
 10
9.465225
 20
81.831180
 30
0.0
 10
8.911929
 20
81.831180
 30
0.0
 10
8.463449
 20
82.279067
 30
0.0
 10
8.463449
 20
82.831940
 30
0.0
  0
SPLINE
  5
12b
100
AcDbEntity
  8
0
 62
4
100
AcDbSpline
 70
8
 71
3
 72
8
 73
4
 74
0
 40
0
 40
0
 40
0
 40
0
 40
1
 40
1
 40
1
 40
1
 10
8.463449
 20
82.831940
 30
0.0
 10
8.463449
 20
83.383967
 30
0.0
 10
8.911929
 20
83.831853
 30
0.0
 10
9.465225
 20
83.831853
 30
0.0
  0
SPLINE
  5
12c
100
AcDbEntity
  8
0
 62
4
100
AcDbSpline
 70
8
 71
3
 72
8
 73
4
 74
0
 40
0
 40
0
 40
0
 40
0
 40
1
 40
1
 40
1
 40
1
 10
9.465225
 20
83.831853
 30
0.0
 10
10.014966
 20
83.831853
 30
0.0
 10
10.463445
 20
83.383967
 30
0.0
 10
10.463445
 20
82.831940
 30
0.0
  0
SPLINE
  5
12d
100
AcDbEntity
  8
0
 62
4
100
AcDbSpline
 70
8
 71
3
 72
8
 73
4
 74
0
 40
0
 40
0
 40
0
 40
0
 40
1
 40
1
 40
1
 40
1
 10
10.463445
 20
82.831940
 30
0.0
 10
10.463445
 20
82.279067
 30
0.0
 10
10.014966
 20
81.831180
 30
0.0
 10
9.465225
 20
81.831180
 30
0.0
  0
LWPOLYLINE
  5
12e
100
AcDbEntity
  8
0
 62
4
100
AcDbPolyline
 90
1
 70
1
 10
175.539400
 20
73.548240
 30
0.0
  0
SPLINE
  5
12f
100
AcDbEntity
  8
0
 62
4
100
AcDbSpline
 70
8
 71
3
 72
8
 73
4
 74
0
 40
0
 40
0
 40
0
 40
0
 40
1
 40
1
 40
1
 40
1
 10
98.168460
 20
81.831180
 30
0.0
 10
97.614740
 20
81.831180
 30
0.0
 10
97.166853
 20
82.279067
 30
0.0
 10
97.166853
 20
82.831940
 30
0.0
  0
SPLINE
  5
130
100
AcDbEntity
  8
0
 62
4
100
AcDbSpline
 70
8
 71
3
 72
8
 73
4
 74
0
 40
0
 40
0
 40
0
 40
0
 40
1
 40
1
 40
1
 40
1
 10
97.166853
 20
82.831940
 30
0.0
 10
97.166853
 20
83.383967
 30
0.0
 10
97.614740
 20
83.831853
 30
0.0
 10
98.168460
 20
83.831853
 30
0.0
  0
SPLINE
  5
131
100
AcDbEntity
  8
0
 62
4
100
AcDbSpline
 70
8
 71
3
 72
8
 73
4
 74
0
 40
0
 40
0
 40
0
 40
0
 40
1
 40
1
 40
1
 40
1
 10
98.168460
 20
83.831853
 30
0.0
 10
98.717947
 20
83.831853
 30
0.0
 10
99.166680
 20
83.383967
 30
0.0
 10
99.166680
 20
82.831940
 30
0.0
  0
SPLINE
  5
132
100
AcDbEntity
  8
0
 62
4
100
AcDbSpline
 70
8
 71
3
 72
8
 73
4
 74
0
 40
0
 40
0
 40
0
 40
0
 40
1
 40
1
 40
1
 40
1
 10
99.166680
 20
82.831940
 30
0.0
 10
99.166680
 20
82.279067
 30
0.0
 10
98.717947
 20
81.831180
 30
0.0
 10
98.168460
 20
81.831180
 30
0.0
  0
LWPOLYLINE
  5
133
100
AcDbEntity
  8
0
 62
4
100
AcDbPolyline
 90
1
 70
1
 10
9.465225
 20
81.831180
 30
0.0
  0
SPLINE
  5
134
100
AcDbEntity
  8
0
 62
4
100
AcDbSpline
 70
8
 71
3
 72
8
 73
4
 74
0
 40
0
 40
0
 40
0
 40
0
 40
1
 40
1
 40
1
 40
1
 10
175.539400
 20
133.607048
 30
0.0
 10
174.986527
 20
133.607048
 30
0.0
 10
174.537793
 20
134.054342
 30
0.0
 10
174.537793
 20
134.607215
 30
0.0
  0
SPLINE
  5
135
100
AcDbEntity
  8
0
 62
4
100
AcDbSpline
 70
8
 71
3
 72
8
 73
4
 74
0
 40
0
 40
0
 40
0
 40
0
 40
1
 40
1
 40
1
 40
1
 10
174.537793
 20
134.607215
 30
0.0
 10
174.537793
 20
135.159073
 30
0.0
 10
174.986527
 20
135.607044
 30
0.0
 10
175.539400
 20
135.607044
 30
0.0
  0
SPLINE
  5
136
100
AcDbEntity
  8
0
 62
4
100
AcDbSpline
 70
8
 71
3
 72
8
 73
4
 74
0
 40
0
 40
0
 40
0
 40
0
 40
1
 40
1
 40
1
 40
1
 10
175.539400
 20
135.607044
 30
0.0
 10
176.089733
 20
135.607044
 30
0.0
 10
176.537620
 20
135.159073
 30
0.0
 10
176.537620
 20
134.607215
 30
0.0
  0
SPLINE
  5
137
100
AcDbEntity
  8
0
 62
4
100
AcDbSpline
 70
8
 71
3
 72
8
 73
4
 74
0
 40
0
 40
0
 40
0
 40
0
 40
1
 40
1
 40
1
 40
1
 10
176.537620
 20
134.607215
 30
0.0
 10
176.537620
 20
134.054342
 30
0.0
 10
176.089733
 20
133.607048
 30
0.0
 10
175.539400
 20
133.607048
 30
0.0
  0
LWPOLYLINE
  5
138
100
AcDbEntity
  8
0
 62
4
100
AcDbPolyline
 90
1
 70
1
 10
98.168460
 20
81.831180
 30
0.0
  0
SPLINE
  5
139
100
AcDbEntity
  8
0
 62
4
100
AcDbSpline
 70
8
 71
3
 72
8
 73
4
 74
0
 40
0
 40
0
 40
0
 40
0
 40
1
 40
1
 40
1
 40
1
 10
9.465225
 20
145.277671
 30
0.0
 10
8.911929
 20
145.277671
 30
0.0
 10
8.463449
 20
145.724965
 30
0.0
 10
8.463449
 20
146.277838
 30
0.0
  0
SPLINE
  5
13a
100
AcDbEntity
  8
0
 62
4
100
AcDbSpline
 70
8
 71
3
 72
8
 73
4
 74
0
 40
0
 40
0
 40
0
 40
0
 40
1
 40
1
 40
1
 40
1
 10
8.463449
 20
146.277838
 30
0.0
 10
8.463449
 20
146.829695
 30
0.0
 10
8.911929
 20
147.277667
 30
0.0
 10
9.465225
 20
147.277667
 30
0.0
  0
SPLINE
  5
13b
100
AcDbEntity
  8
0
 62
4
100
AcDbSpline
 70
8
 71
3
 72
8
 73
4
 74
0
 40
0
 40
0
 40
0
 40
0
 40
1
 40
1
 40
1
 40
1
 10
9.465225
 20
147.277667
 30
0.0
 10
10.014966
 20
147.277667
 30
0.0
 10
10.463445
 20
146.829695
 30
0.0
 10
10.463445
 20
146.277838
 30
0.0
  0
SPLINE
  5
13c
100
AcDbEntity
  8
0
 62
4
100
AcDbSpline
 70
8
 71
3
 72
8
 73
4
 74
0
 40
0
 40
0
 40
0
 40
0
 40
1
 40
1
 40
1
 40
1
 10
10.463445
 20
146.277838
 30
0.0
 10
10.463445
 20
145.724965
 30
0.0
 10
10.014966
 20
145.277671
 30
0.0
 10
9.465225
 20
145.277671
 30
0.0
  0
LWPOLYLINE
  5
13d
100
AcDbEntity
  8
0
 62
4
100
AcDbPolyline
 90
1
 70
1
 10
175.539400
 20
133.607048
 30
0.0
  0
SPLINE
  5
13e
100
AcDbEntity
  8
0
 62
4
100
AcDbSpline
 70
8
 71
3
 72
8
 73
4
 74
0
 40
0
 40
0
 40
0
 40
0
 40
1
 40
1
 40
1
 40
1
 10
9.465225
 20
192.548510
 30
0.0
 10
8.911929
 20
192.548510
 30
0.0
 10
8.463449
 20
192.995804
 30
0.0
 10
8.463449
 20
193.548677
 30
0.0
  0
SPLINE
  5
13f
100
AcDbEntity
  8
0
 62
4
100
AcDbSpline
 70
8
 71
3
 72
8
 73
4
 74
0
 40
0
 40
0
 40
0
 40
0
 40
1
 40
1
 40
1
 40
1
 10
8.463449
 20
193.548677
 30
0.0
 10
8.463449
 20
194.100535
 30
0.0
 10
8.911929
 20
194.548506
 30
0.0
 10
9.465225
 20
194.548506
 30
0.0
  0
SPLINE
  5
140
100
AcDbEntity
  8
0
 62
4
100
AcDbSpline
 70
8
 71
3
 72
8
 73
4
 74
0
 40
0
 40
0
 40
0
 40
0
 40
1
 40
1
 40
1
 40
1
 10
9.465225
 20
194.548506
 30
0.0
 10
10.014966
 20
194.548506
 30
0.0
 10
10.463445
 20
194.100535
 30
0.0
 10
10.463445
 20
193.548677
 30
0.0
  0
SPLINE
  5
141
100
AcDbEntity
  8
0
 62
4
100
AcDbSpline
 70
8
 71
3
 72
8
 73
4
 74
0
 40
0
 40
0
 40
0
 40
0
 40
1
 40
1
 40
1
 40
1
 10
10.463445
 20
193.548677
 30
0.0
 10
10.463445
 20
192.995804
 30
0.0
 10
10.014966
 20
192.548510
 30
0.0
 10
9.465225
 20
192.548510
 30
0.0
  0
LWPOLYLINE
  5
142
100
AcDbEntity
  8
0
 62
4
100
AcDbPolyline
 90
1
 70
1
 10
9.465225
 20
145.277671
 30
0.0
  0
SPLINE
  5
143
100
AcDbEntity
  8
0
 62
4
100
AcDbSpline
 70
8
 71
3
 72
8
 73
4
 74
0
 40
0
 40
0
 40
0
 40
0
 40
1
 40
1
 40
1
 40
1
 10
175.539400
 20
192.548510
 30
0.0
 10
174.986527
 20
192.548510
 30
0.0
 10
174.537793
 20
192.995804
 30
0.0
 10
174.537793
 20
193.548677
 30
0.0
  0
SPLINE
  5
144
100
AcDbEntity
  8
0
 62
4
100
AcDbSpline
 70
8
 71
3
 72
8
 73
4
 74
0
 40
0
 40
0
 40
0
 40
0
 40
1
 40
1
 40
1
 40
1
 10
174.537793
 20
193.548677
 30
0.0
 10
174.537793
 20
194.100535
 30
0.0
 10
174.986527
 20
194.548506
 30
0.0
 10
175.539400
 20
194.548506
 30
0.0
  0
SPLINE
  5
145
100
AcDbEntity
  8
0
 62
4
100
AcDbSpline
 70
8
 71
3
 72
8
 73
4
 74
0
 40
0
 40
0
 40
0
 40
0
 40
1
 40
1
 40
1
 40
1
 10
175.539400
 20
194.548506
 30
0.0
 10
176.089733
 20
194.548506
 30
0.0
 10
176.537620
 20
194.100535
 30
0.0
 10
176.537620
 20
193.548677
 30
0.0
  0
SPLINE
  5
146
100
AcDbEntity
  8
0
 62
4
100
AcDbSpline
 70
8
 71
3
 72
8
 73
4
 74
0
 40
0
 40
0
 40
0
 40
0
 40
1
 40
1
 40
1
 40
1
 10
176.537620
 20
193.548677
 30
0.0
 10
176.537620
 20
192.995804
 30
0.0
 10
176.089733
 20
192.548510
 30
0.0
 10
175.539400
 20
192.548510
 30
0.0
  0
LWPOLYLINE
  5
147
100
AcDbEntity
  8
0
 62
4
100
AcDbPolyline
 90
1
 70
1
 10
9.465225
 20
192.548510
 30
0.0
  0
SPLINE
  5
148
100
AcDbEntity
  8
0
 62
4
100
AcDbSpline
 70
8
 71
3
 72
8
 73
4
 74
0
 40
0
 40
0
 40
0
 40
0
 40
1
 40
1
 40
1
 40
1
 10
94.308507
 20
192.548510
 30
0.0
 10
93.754787
 20
192.548510
 30
0.0
 10
93.306053
 20
192.995804
 30
0.0
 10
93.306053
 20
193.548677
 30
0.0
  0
SPLINE
  5
149
100
AcDbEntity
  8
0
 62
4
100
AcDbSpline
 70
8
 71
3
 72
8
 73
4
 74
0
 40
0
 40
0
 40
0
 40
0
 40
1
 40
1
 40
1
 40
1
 10
93.306053
 20
193.548677
 30
0.0
 10
93.306053
 20
194.100535
 30
0.0
 10
93.754787
 20
194.548506
 30
0.0
 10
94.308507
 20
194.548506
 30
0.0
  0
SPLINE
  5
14a
100
AcDbEntity
  8
0
 62
4
100
AcDbSpline
 70
8
 71
3
 72
8
 73
4
 74
0
 40
0
 40
0
 40
0
 40
0
 40
1
 40
1
 40
1
 40
1
 10
94.308507
 20
194.548506
 30
0.0
 10
94.857993
 20
194.548506
 30
0.0
 10
95.305880
 20
194.100535
 30
0.0
 10
95.305880
 20
193.548677
 30
0.0
  0
SPLINE
  5
14b
100
AcDbEntity
  8
0
 62
4
100
AcDbSpline
 70
8
 71
3
 72
8
 73
4
 74
0
 40
0
 40
0
 40
0
 40
0
 40
1
 40
1
 40
1
 40
1
 10
95.305880
 20
193.548677
 30
0.0
 10
95.305880
 20
192.995804
 30
0.0
 10
94.857993
 20
192.548510
 30
0.0
 10
94.308507
 20
192.548510
 30
0.0
  0
LWPOLYLINE
  5
14c
100
AcDbEntity
  8
0
 62
4
100
AcDbPolyline
 90
1
 70
1
 10
175.539400
 20
192.548510
 30
0.0
  0
SPLINE
  5
14d
100
AcDbEntity
  8
0
 62
4
100
AcDbSpline
 70
8
 71
3
 72
8
 73
4
 74
0
 40
0
 40
0
 40
0
 40
0
 40
1
 40
1
 40
1
 40
1
 10
52.201826
 20
192.548510
 30
0.0
 10
51.648529
 20
192.548510
 30
0.0
 10
51.200050
 20
192.995804
 30
0.0
 10
51.200050
 20
193.548677
 30
0.0
  0
SPLINE
  5
14e
100
AcDbEntity
  8
0
 62
4
100
AcDbSpline
 70
8
 71
3
 72
8
 73
4
 74
0
 40
0
 40
0
 40
0
 40
0
 40
1
 40
1
 40
1
 40
1
 10
51.200050
 20
193.548677
 30
0.0
 10
51.200050
 20
194.100535
 30
0.0
 10
51.648529
 20
194.548506
 30
0.0
 10
52.201826
 20
194.548506
 30
0.0
  0
SPLINE
  5
14f
100
AcDbEntity
  8
0
 62
4
100
AcDbSpline
 70
8
 71
3
 72
8
 73
4
 74
0
 40
0
 40
0
 40
0
 40
0
 40
1
 40
1
 40
1
 40
1
 10
52.201826
 20
194.548506
 30
0.0
 10
52.751567
 20
194.548506
 30
0.0
 10
53.200046
 20
194.100535
 30
0.0
 10
53.200046
 20
193.548677
 30
0.0
  0
SPLINE
  5
150
100
AcDbEntity
  8
0
 62
4
100
AcDbSpline
 70
8
 71
3
 72
8
 73
4
 74
0
 40
0
 40
0
 40
0
 40
0
 40
1
 40
1
 40
1
 40
1
 10
53.200046
 20
193.548677
 30
0.0
 10
53.200046
 20
192.995804
 30
0.0
 10
52.751567
 20
192.548510
 30
0.0
 10
52.201826
 20
192.548510
 30
0.0
  0
LWPOLYLINE
  5
151
100
AcDbEntity
  8
0
 62
4
100
AcDbPolyline
 90
1
 70
1
 10
94.308507
 20
192.548510
 30
0.0
  0
LWPOLYLINE
  5
152
100
AcDbEntity
  8
0
 62
4
100
AcDbPolyline
 90
1
 70
1
 10
52.201826
 20
192.548510
 30
0.0
  0
ENDSEC
  0
SECTION
  2
OBJECTS
  0
DICTIONARY
  5
C
330
0
100
AcDbDictionary
  3
ACAD_GROUP
350
D
  3
ACAD_MLINESTYLE
350
17
  0
DICTIONARY
  5
D
330
C
100
AcDbDictionary
  0
DICTIONARY
  5
1A
330
C
100
AcDbDictionary
  0
DICTIONARY
  5
17
330
C
100
AcDbDictionary
  3
STANDARD
350
18
  0
DICTIONARY
  5
19
330
C
100
AcDbDictionary
  0
ENDSEC
  0
EOF
