<?xml version="1.0" encoding="UTF-8" standalone="no"?>
<!DOCTYPE svg PUBLIC "-//W3C//DTD SVG 1.1//EN" "http://www.w3.org/Graphics/SVG/1.1/DTD/svg11.dtd">
<svg width="100%" height="100%" viewBox="0 0 1123 794" version="1.1" xmlns="http://www.w3.org/2000/svg" xmlns:xlink="http://www.w3.org/1999/xlink" xml:space="preserve" xmlns:serif="http://www.serif.com/" style="fill-rule:evenodd;clip-rule:evenodd;stroke-linecap:round;stroke-linejoin:round;stroke-miterlimit:1.5;">
    <g transform="matrix(0.32,0,0,0.32,0,0)">
        <path id="Split-Left-Keyplate" serif:id="Split Left Keyplate" d="M1941.83,908.2C1941.56,907.779 1941.46,907.268 1941.57,906.777C1944.76,891.751 1993.93,660.408 1998.36,639.583C1998.55,638.711 1999.32,638.086 2000.21,638.086C2006.82,638.086 2032.94,638.086 2040.22,638.086C2041.26,638.086 2042.11,637.24 2042.11,636.197C2042.11,611.78 2042.11,358.605 2042.11,336.5C2042.11,335.604 2041.48,334.831 2040.6,334.65C2006.1,327.515 1390.78,200.25 1378.4,197.689C1378.27,197.663 1378.14,197.65 1378.01,197.65C1369.45,197.65 1079.32,197.65 1070.64,197.65C1070.51,197.65 1070.38,197.636 1070.25,197.609C1065.01,196.495 955.507,173.22 942.992,170.559C942.281,170.408 941.547,170.678 941.103,171.252C937.8,175.528 924.226,193.098 921.276,196.916C920.919,197.379 920.366,197.65 919.781,197.65C891.326,197.65 217.759,197.65 177.401,197.65C176.899,197.65 176.419,197.849 176.064,198.204C175.71,198.558 175.511,199.039 175.511,199.54C175.511,220.179 175.511,403.118 175.511,412.619C175.511,412.872 175.562,413.123 175.661,413.356C177.516,417.737 196.038,461.467 197.897,465.857C197.996,466.091 198.047,466.342 198.047,466.597C198.031,476.128 197.734,659.352 197.723,666.196C197.723,666.327 197.709,666.457 197.682,666.585C195.465,677.034 103.698,1109.59 101.473,1120.07C101.446,1120.2 101.432,1120.34 101.432,1120.47C101.432,1128.72 101.432,1392.2 101.432,1414.42C101.432,1415.3 102.031,1416.06 102.881,1416.26C113.551,1418.82 179.634,1434.65 183.907,1435.67C184.052,1435.71 184.199,1435.72 184.348,1435.72C197.737,1435.72 809.079,1435.72 819.28,1435.72C819.366,1435.72 819.452,1435.72 819.537,1435.71C823.424,1435.17 914.6,1422.65 918.487,1422.12C918.572,1422.11 918.658,1422.1 918.744,1422.1C926.019,1422.1 1238.34,1422.1 1247.36,1422.1C1247.5,1422.1 1247.63,1422.12 1247.76,1422.15C1259.01,1424.55 1752.94,1530.02 1763.9,1532.36C1764.03,1532.38 1764.15,1532.4 1764.28,1532.4C1769.03,1532.45 1861.91,1533.45 1871.86,1533.55C1872.41,1533.56 1872.93,1533.33 1873.29,1532.92C1881.58,1523.59 1977.25,1415.91 1984.84,1407.37C1985.14,1407.03 1985.31,1406.58 1985.31,1406.12C1985.31,1387 1985.31,992.601 1985.31,975.691C1985.31,975.326 1985.21,974.968 1985.01,974.662C1981.36,969.044 1946.12,914.799 1941.83,908.2ZM1470.45,1266.78L1472.81,1255.66L1510.94,1263.76L1508.57,1274.88L1745.29,1325.2L1747.66,1314.08L1785.78,1322.18L1783.42,1333.31L1817.41,1340.79L1783.03,1502.54L1401.19,1421.11L1435.57,1259.37L1470.45,1266.78ZM1349.72,1241.12L1187.98,1206.74L1153.6,1368.49L1315.34,1402.87L1349.72,1241.12ZM382.146,1234.05L624.154,1234.05L624.154,1220.1L663.131,1220.1L663.131,1234.05L698.438,1234.05L698.438,1399.44L223.63,1399.44L223.63,1234.05L343.17,1234.05L343.17,1220.1L382.146,1220.1L382.146,1234.05ZM1074.62,1182.64L912.872,1148.27L878.492,1310.01L1040.24,1344.39L1074.62,1182.64ZM1109.36,1270.99C1115.73,1272.35 1119.81,1278.62 1118.45,1285C1117.1,1291.38 1110.82,1295.45 1104.45,1294.1C1098.07,1292.74 1093.99,1286.47 1095.35,1280.09C1096.7,1273.71 1102.98,1269.64 1109.36,1270.99ZM1864.19,1120.45L1702.44,1086.07L1668.07,1247.81L1829.81,1282.19L1864.19,1120.45ZM1644.11,1073.67L1482.36,1039.29L1447.98,1201.03L1609.73,1235.41L1644.11,1073.67ZM1907.26,1222.04C1900.72,1222.04 1895.43,1216.76 1895.43,1210.23C1895.43,1203.71 1900.72,1198.42 1907.26,1198.42C1913.75,1198.42 1919.05,1203.71 1919.05,1210.23C1919.05,1216.76 1913.75,1222.04 1907.26,1222.04ZM153.194,1180.63C146.659,1180.63 141.362,1175.35 141.362,1168.82C141.362,1162.3 146.659,1157.01 153.194,1157.01C159.687,1157.01 164.984,1162.3 164.984,1168.82C164.984,1175.35 159.687,1180.63 153.194,1180.63ZM1429.87,999.392L1268.12,965.012L1233.74,1126.76L1395.49,1161.14L1429.87,999.392ZM740.374,996.66L578.628,962.28L544.248,1124.03L705.994,1158.41L740.374,996.66ZM426.081,987.361L264.335,952.981L229.955,1114.73L391.701,1149.11L426.081,987.361ZM1941.74,1095.28L1913,1089.17L1905.64,1123.83L1934.37,1129.94L1941.74,1095.28ZM1215.64,925.087L1053.89,890.707L1019.51,1052.45L1181.26,1086.83L1215.64,925.087ZM989.705,905.832L827.959,871.452L793.579,1033.2L955.325,1067.58L989.705,905.832ZM1910.97,900.365L1749.23,865.985L1714.85,1027.73L1876.59,1062.11L1910.97,900.365ZM1962.93,995.591L1934.19,989.483L1926.83,1024.14L1955.56,1030.25L1962.93,995.591ZM1690.89,853.585L1529.14,819.205L1494.76,980.951L1656.51,1015.33L1690.89,853.585ZM1694.42,985.903C1700.79,987.258 1704.87,993.535 1703.51,999.912C1702.16,1006.29 1695.88,1010.36 1689.5,1009.01C1683.13,1007.65 1679.05,1001.38 1680.41,995C1681.76,988.624 1688.04,984.548 1694.42,985.903ZM1476.65,779.309L1314.9,744.929L1280.52,906.675L1442.27,941.056L1476.65,779.309ZM787.154,776.577L625.408,742.197L591.028,903.943L752.774,938.323L787.154,776.577ZM472.831,767.272L311.159,732.908L276.778,894.654L438.45,929.018L472.831,767.272ZM1262.42,705.004L1100.67,670.624L1066.29,832.37L1228.04,866.751L1262.42,705.004ZM498.277,834.401C504.654,835.756 508.73,842.034 507.375,848.41C506.019,854.786 499.742,858.862 493.366,857.507C486.99,856.152 482.913,849.875 484.269,843.498C485.624,837.122 491.901,833.046 498.277,834.401ZM1036.49,685.749L874.739,651.369L840.359,813.115L1002.11,847.495L1036.49,685.749ZM1957.75,680.282L1796.01,645.902L1761.62,807.648L1923.37,842.029L1957.75,680.282ZM1737.67,633.502L1575.92,599.122L1541.54,760.868L1703.29,795.249L1737.67,633.502ZM1523.43,559.227L1361.68,524.847L1327.3,686.593L1489.05,720.973L1523.43,559.227ZM833.934,556.494L672.188,522.114L637.808,683.86L799.554,718.241L833.934,556.494ZM547.136,553.04L385.39,518.66L351.009,680.406L512.755,714.786L547.136,553.04ZM1309.2,484.922L1147.45,450.542L1113.07,612.288L1274.82,646.668L1309.2,484.922ZM1083.27,465.667L921.519,431.287L887.139,593.033L1048.88,627.413L1083.27,465.667ZM2004.53,460.2L1842.79,425.82L1808.4,587.566L1970.15,621.946L2004.53,460.2ZM1784.45,413.42L1622.7,379.04L1588.32,540.786L1750.07,575.166L1784.45,413.42ZM648.936,344.652L487.19,310.272L452.81,472.018L614.556,506.399L648.936,344.652ZM1570.21,339.144L1408.46,304.764L1374.08,466.51L1535.83,500.89L1570.21,339.144ZM880.714,336.412L718.968,302.032L684.588,463.778L846.334,498.158L880.714,336.412ZM428.854,297.872L267.108,263.492L232.727,425.238L394.473,459.619L428.854,297.872ZM1355.98,264.839L1194.23,230.459L1159.85,392.205L1321.6,426.585L1355.98,264.839ZM1130.05,245.584L968.299,211.204L933.919,372.95L1095.66,407.33L1130.05,245.584ZM1144.26,327.634C1150.63,328.989 1154.71,335.266 1153.35,341.643C1152,348.019 1145.72,352.095 1139.35,350.74C1132.97,349.385 1128.89,343.108 1130.25,336.731C1131.6,330.355 1137.88,326.279 1144.26,327.634ZM1647.77,324.099C1641.23,324.099 1635.93,318.817 1635.93,312.286C1635.93,305.769 1641.23,300.477 1647.77,300.477C1654.26,300.477 1659.56,305.769 1659.56,312.286C1659.56,318.817 1654.26,324.099 1647.77,324.099ZM441.369,238.734C434.833,238.734 429.537,233.451 429.537,226.921C429.537,220.403 434.833,215.112 441.369,215.112C447.862,215.112 453.159,220.403 453.159,226.921C453.159,233.451 447.862,238.734 441.369,238.734Z" style="fill:rgb(60,226,255);fill-opacity:0.24;stroke:rgb(13,151,242);stroke-width:0.94px;"/>
    </g>
</svg>
