  0
SECTION
  2
HEADER
  9
$ACADVER
  1
AC1014
  9
$HANDSEED
  5
FFFF
  9
$MEASUREMENT
 70
     1
  0
ENDSEC
  0
SECTION
  2
TABLES
  0
TABLE
  2
VPORT
  5
8
330
0
100
AcDbSymbolTable
 70
     4
  0
VPORT
  5
2E
330
8
100
AcDbSymbolTableRecord
100
AcDbViewportTableRecord
  2
*ACTIVE
 70
     0
 10
0.0
 20
0.0
 11
1.0
 21
1.0
 12
210.0
 22
148.5
 13
0.0
 23
0.0
 14
10.0
 24
10.0
 15
10.0
 25
10.0
 16
0.0
 26
0.0
 36
1.0
 17
0.0
 27
0.0
 37
0.0
 40
341.0
 41
1.24
 42
50.0
 43
0.0
 44
0.0
 50
0.0
 51
0.0
 71
     0
 72
   100
 73
     1
 74
     3
 75
     0
 76
     0
 77
     0
 78
     0
  0
ENDTAB
  0
TABLE
  2
LTYPE
  5
5
330
0
100
AcDbSymbolTable
 70
     1
  0
LTYPE
  5
14
330
5
100
AcDbSymbolTableRecord
100
AcDbLinetypeTableRecord
  2
BYBLOCK
 70
     0
  3

 72
    65
 73
     0
 40
0.0
  0
LTYPE
  5
15
330
5
100
AcDbSymbolTableRecord
100
AcDbLinetypeTableRecord
  2
BYLAYER
 70
     0
  3

 72
    65
 73
     0
 40
0.0
  0
LTYPE
  5
16
330
5
100
AcDbSymbolTableRecord
100
AcDbLinetypeTableRecord
  2
CONTINUOUS
 70
     0
  3
Solid line
 72
    65
 73
     0
 40
0.0
  0
ENDTAB
  0
TABLE
  2
LAYER
  5
2
100
AcDbSymbolTable
 70
1
  0
LAYER
  5
50
100
AcDbSymbolTableRecord
100
AcDbLayerTableRecord
  2
0
 70
0
  6
CONTINUOUS
  0
ENDTAB
  0
TABLE
  2
STYLE
  5
3
330
0
100
AcDbSymbolTable
 70
     1
  0
STYLE
  5
11
330
3
100
AcDbSymbolTableRecord
100
AcDbTextStyleTableRecord
  2
STANDARD
 70
     0
 40
0.0
 41
1.0
 50
0.0
 71
     0
 42
2.5
  3
txt
  4

  0
ENDTAB
  0
TABLE
  2
VIEW
  5
6
330
0
100
AcDbSymbolTable
 70
     0
  0
ENDTAB
  0
TABLE
  2
UCS
  5
7
330
0
100
AcDbSymbolTable
 70
     0
  0
ENDTAB
  0
TABLE
  2
APPID
  5
9
330
0
100
AcDbSymbolTable
 70
     2
  0
APPID
  5
12
330
9
100
AcDbSymbolTableRecord
100
AcDbRegAppTableRecord
  2
ACAD
 70
     0
  0
ENDTAB
  0
TABLE
  2
DIMSTYLE
  5
A
330
0
100
AcDbSymbolTable
 70
     1
  0
DIMSTYLE
105
27
330
A
100
AcDbSymbolTableRecord
100
AcDbDimStyleTableRecord
  2
ISO-25
 70
     0
  3

  4

  5

  6

  7

 40
1.0
 41
2.5
 42
0.625
 43
3.75
 44
1.25
 45
0.0
 46
0.0
 47
0.0
 48
0.0
140
2.5
141
2.5
142
0.0
143
0.03937007874016
144
1.0
145
0.0
146
1.0
147
0.625
 71
     0
 72
     0
 73
     0
 74
     0
 75
     0
 76
     0
 77
     1
 78
     8
170
     0
171
     3
172
     1
173
     0
174
     0
175
     0
176
     0
177
     0
178
     0
270
     2
271
     2
272
     2
273
     2
274
     3
340
11
275
     0
280
     0
281
     0
282
     0
283
     0
284
     8
285
     0
286
     0
287
     3
288
     0
  0
ENDTAB
  0
TABLE
  2
BLOCK_RECORD
  5
1
330
0
100
AcDbSymbolTable
 70
     1
  0
BLOCK_RECORD
  5
1F
330
1
100
AcDbSymbolTableRecord
100
AcDbBlockTableRecord
  2
*MODEL_SPACE
  0
BLOCK_RECORD
  5
1B
330
1
100
AcDbSymbolTableRecord
100
AcDbBlockTableRecord
  2
*PAPER_SPACE
  0
ENDTAB
  0
ENDSEC
  0
SECTION
  2
BLOCKS
  0
BLOCK
  5
20
330
1F
100
AcDbEntity
  8
0
100
AcDbBlockBegin
  2
*MODEL_SPACE
 70
     0
 10
0.0
 20
0.0
 30
0.0
  3
*MODEL_SPACE
  1

  0
ENDBLK
  5
21
330
1F
100
AcDbEntity
  8
0
100
AcDbBlockEnd
  0
BLOCK
  5
1C
330
1B
100
AcDbEntity
 67
     1
  8
0
100
AcDbBlockBegin
  2
*PAPER_SPACE
  1

  0
ENDBLK
  5
1D
330
1B
100
AcDbEntity
 67
     1
  8
0
100
AcDbBlockEnd
  0
ENDSEC
  0
SECTION
  2
ENTITIES
  0
SPLINE
  5
100
100
AcDbEntity
  8
0
 62
4
100
AcDbSpline
 70
8
 71
3
 72
8
 73
4
 74
0
 40
0
 40
0
 40
0
 40
0
 40
1
 40
1
 40
1
 40
1
 10
164.408273
 20
133.184900
 30
0.0
 10
164.385413
 20
133.220545
 30
0.0
 10
164.376947
 20
133.263809
 30
0.0
 10
164.386260
 20
133.305381
 30
0.0
  0
SPLINE
  5
101
100
AcDbEntity
  8
0
 62
4
100
AcDbSpline
 70
8
 71
3
 72
8
 73
4
 74
0
 40
0
 40
0
 40
0
 40
0
 40
1
 40
1
 40
1
 40
1
 10
164.386260
 20
133.305381
 30
0.0
 10
164.656347
 20
134.577582
 30
0.0
 10
168.819407
 20
154.164623
 30
0.0
 10
169.194480
 20
155.927806
 30
0.0
  0
SPLINE
  5
102
100
AcDbEntity
  8
0
 62
4
100
AcDbSpline
 70
8
 71
3
 72
8
 73
4
 74
0
 40
0
 40
0
 40
0
 40
0
 40
1
 40
1
 40
1
 40
1
 10
169.194480
 20
155.927806
 30
0.0
 10
169.210567
 20
156.001635
 30
0.0
 10
169.275760
 20
156.054552
 30
0.0
 10
169.351113
 20
156.054552
 30
0.0
  0
SPLINE
  5
103
100
AcDbEntity
  8
0
 62
4
100
AcDbSpline
 70
8
 71
3
 72
8
 73
4
 74
0
 40
0
 40
0
 40
0
 40
0
 40
1
 40
1
 40
1
 40
1
 10
169.351113
 20
156.054552
 30
0.0
 10
169.910760
 20
156.054552
 30
0.0
 10
172.122253
 20
156.054552
 30
0.0
 10
172.738627
 20
156.054552
 30
0.0
  0
SPLINE
  5
104
100
AcDbEntity
  8
0
 62
4
100
AcDbSpline
 70
8
 71
3
 72
8
 73
4
 74
0
 40
0
 40
0
 40
0
 40
0
 40
1
 40
1
 40
1
 40
1
 10
172.738627
 20
156.054552
 30
0.0
 10
172.826680
 20
156.054552
 30
0.0
 10
172.898647
 20
156.126180
 30
0.0
 10
172.898647
 20
156.214487
 30
0.0
  0
SPLINE
  5
105
100
AcDbEntity
  8
0
 62
4
100
AcDbSpline
 70
8
 71
3
 72
8
 73
4
 74
0
 40
0
 40
0
 40
0
 40
0
 40
1
 40
1
 40
1
 40
1
 10
172.898647
 20
156.214487
 30
0.0
 10
172.898647
 20
158.281793
 30
0.0
 10
172.898647
 20
179.717277
 30
0.0
 10
172.898647
 20
181.588833
 30
0.0
  0
SPLINE
  5
106
100
AcDbEntity
  8
0
 62
4
100
AcDbSpline
 70
8
 71
3
 72
8
 73
4
 74
0
 40
0
 40
0
 40
0
 40
0
 40
1
 40
1
 40
1
 40
1
 10
172.898647
 20
181.588833
 30
0.0
 10
172.898647
 20
181.664695
 30
0.0
 10
172.845307
 20
181.730142
 30
0.0
 10
172.770800
 20
181.745467
 30
0.0
  0
SPLINE
  5
107
100
AcDbEntity
  8
0
 62
4
100
AcDbSpline
 70
8
 71
3
 72
8
 73
4
 74
0
 40
0
 40
0
 40
0
 40
0
 40
1
 40
1
 40
1
 40
1
 10
172.770800
 20
181.745467
 30
0.0
 10
169.849800
 20
182.349563
 30
0.0
 10
117.752707
 20
193.124667
 30
0.0
 10
116.704533
 20
193.341498
 30
0.0
  0
SPLINE
  5
108
100
AcDbEntity
  8
0
 62
4
100
AcDbSpline
 70
8
 71
3
 72
8
 73
4
 74
0
 40
0
 40
0
 40
0
 40
0
 40
1
 40
1
 40
1
 40
1
 10
116.704533
 20
193.341498
 30
0.0
 10
116.693527
 20
193.343699
 30
0.0
 10
116.682520
 20
193.344800
 30
0.0
 10
116.671513
 20
193.344800
 30
0.0
  0
SPLINE
  5
109
100
AcDbEntity
  8
0
 62
4
100
AcDbSpline
 70
8
 71
3
 72
8
 73
4
 74
0
 40
0
 40
0
 40
0
 40
0
 40
1
 40
1
 40
1
 40
1
 10
116.671513
 20
193.344800
 30
0.0
 10
115.946767
 20
193.344800
 30
0.0
 10
91.382427
 20
193.344800
 30
0.0
 10
90.647520
 20
193.344800
 30
0.0
  0
SPLINE
  5
10a
100
AcDbEntity
  8
0
 62
4
100
AcDbSpline
 70
8
 71
3
 72
8
 73
4
 74
0
 40
0
 40
0
 40
0
 40
0
 40
1
 40
1
 40
1
 40
1
 10
90.647520
 20
193.344800
 30
0.0
 10
90.636513
 20
193.344800
 30
0.0
 10
90.625507
 20
193.345985
 30
0.0
 10
90.614500
 20
193.348271
 30
0.0
  0
SPLINE
  5
10b
100
AcDbEntity
  8
0
 62
4
100
AcDbSpline
 70
8
 71
3
 72
8
 73
4
 74
0
 40
0
 40
0
 40
0
 40
0
 40
1
 40
1
 40
1
 40
1
 10
90.614500
 20
193.348271
 30
0.0
 10
90.170847
 20
193.442590
 30
0.0
 10
80.899593
 20
195.413207
 30
0.0
 10
79.839989
 20
195.638505
 30
0.0
  0
SPLINE
  5
10c
100
AcDbEntity
  8
0
 62
4
100
AcDbSpline
 70
8
 71
3
 72
8
 73
4
 74
0
 40
0
 40
0
 40
0
 40
0
 40
1
 40
1
 40
1
 40
1
 10
79.839989
 20
195.638505
 30
0.0
 10
79.779791
 20
195.651289
 30
0.0
 10
79.717646
 20
195.628429
 30
0.0
 10
79.680054
 20
195.579831
 30
0.0
  0
SPLINE
  5
10d
100
AcDbEntity
  8
0
 62
4
100
AcDbSpline
 70
8
 71
3
 72
8
 73
4
 74
0
 40
0
 40
0
 40
0
 40
0
 40
1
 40
1
 40
1
 40
1
 10
79.680054
 20
195.579831
 30
0.0
 10
79.400400
 20
195.217796
 30
0.0
 10
78.251135
 20
193.730203
 30
0.0
 10
78.001368
 20
193.406945
 30
0.0
  0
SPLINE
  5
10e
100
AcDbEntity
  8
0
 62
4
100
AcDbSpline
 70
8
 71
3
 72
8
 73
4
 74
0
 40
0
 40
0
 40
0
 40
0
 40
1
 40
1
 40
1
 40
1
 10
78.001368
 20
193.406945
 30
0.0
 10
77.971142
 20
193.367745
 30
0.0
 10
77.924321
 20
193.344800
 30
0.0
 10
77.874791
 20
193.344800
 30
0.0
  0
SPLINE
  5
10f
100
AcDbEntity
  8
0
 62
4
100
AcDbSpline
 70
8
 71
3
 72
8
 73
4
 74
0
 40
0
 40
0
 40
0
 40
0
 40
1
 40
1
 40
1
 40
1
 10
77.874791
 20
193.344800
 30
0.0
 10
75.465601
 20
193.344800
 30
0.0
 10
18.436929
 20
193.344800
 30
0.0
 10
15.019951
 20
193.344800
 30
0.0
  0
SPLINE
  5
110
100
AcDbEntity
  8
0
 62
4
100
AcDbSpline
 70
8
 71
3
 72
8
 73
4
 74
0
 40
0
 40
0
 40
0
 40
0
 40
1
 40
1
 40
1
 40
1
 10
15.019951
 20
193.344800
 30
0.0
 10
14.977449
 20
193.344800
 30
0.0
 10
14.936809
 20
193.327951
 30
0.0
 10
14.906752
 20
193.297895
 30
0.0
  0
SPLINE
  5
111
100
AcDbEntity
  8
0
 62
4
100
AcDbSpline
 70
8
 71
3
 72
8
 73
4
 74
0
 40
0
 40
0
 40
0
 40
0
 40
1
 40
1
 40
1
 40
1
 10
14.906752
 20
193.297895
 30
0.0
 10
14.876780
 20
193.267923
 30
0.0
 10
14.859931
 20
193.227198
 30
0.0
 10
14.859931
 20
193.184780
 30
0.0
  0
SPLINE
  5
112
100
AcDbEntity
  8
0
 62
4
100
AcDbSpline
 70
8
 71
3
 72
8
 73
4
 74
0
 40
0
 40
0
 40
0
 40
0
 40
1
 40
1
 40
1
 40
1
 10
14.859931
 20
193.184780
 30
0.0
 10
14.859931
 20
191.437345
 30
0.0
 10
14.859931
 20
175.948509
 30
0.0
 10
14.859931
 20
175.144091
 30
0.0
  0
SPLINE
  5
113
100
AcDbEntity
  8
0
 62
4
100
AcDbSpline
 70
8
 71
3
 72
8
 73
4
 74
0
 40
0
 40
0
 40
0
 40
0
 40
1
 40
1
 40
1
 40
1
 10
14.859931
 20
175.144091
 30
0.0
 10
14.859931
 20
175.122671
 30
0.0
 10
14.864249
 20
175.101419
 30
0.0
 10
14.872631
 20
175.081692
 30
0.0
  0
SPLINE
  5
114
100
AcDbEntity
  8
0
 62
4
100
AcDbSpline
 70
8
 71
3
 72
8
 73
4
 74
0
 40
0
 40
0
 40
0
 40
0
 40
1
 40
1
 40
1
 40
1
 10
14.872631
 20
175.081692
 30
0.0
 10
15.029688
 20
174.710767
 30
0.0
 10
16.597884
 20
171.008294
 30
0.0
 10
16.755279
 20
170.636607
 30
0.0
  0
SPLINE
  5
115
100
AcDbEntity
  8
0
 62
4
100
AcDbSpline
 70
8
 71
3
 72
8
 73
4
 74
0
 40
0
 40
0
 40
0
 40
0
 40
1
 40
1
 40
1
 40
1
 10
16.755279
 20
170.636607
 30
0.0
 10
16.763661
 20
170.616795
 30
0.0
 10
16.767979
 20
170.595544
 30
0.0
 10
16.767979
 20
170.573954
 30
0.0
  0
SPLINE
  5
116
100
AcDbEntity
  8
0
 62
4
100
AcDbSpline
 70
8
 71
3
 72
8
 73
4
 74
0
 40
0
 40
0
 40
0
 40
0
 40
1
 40
1
 40
1
 40
1
 10
16.767979
 20
170.573954
 30
0.0
 10
16.766625
 20
169.766996
 30
0.0
 10
16.741479
 20
154.254031
 30
0.0
 10
16.740547
 20
153.674572
 30
0.0
  0
SPLINE
  5
117
100
AcDbEntity
  8
0
 62
4
100
AcDbSpline
 70
8
 71
3
 72
8
 73
4
 74
0
 40
0
 40
0
 40
0
 40
0
 40
1
 40
1
 40
1
 40
1
 10
16.740547
 20
153.674572
 30
0.0
 10
16.740547
 20
153.663481
 30
0.0
 10
16.739362
 20
153.652474
 30
0.0
 10
16.737076
 20
153.641637
 30
0.0
  0
SPLINE
  5
118
100
AcDbEntity
  8
0
 62
4
100
AcDbSpline
 70
8
 71
3
 72
8
 73
4
 74
0
 40
0
 40
0
 40
0
 40
0
 40
1
 40
1
 40
1
 40
1
 10
16.737076
 20
153.641637
 30
0.0
 10
16.549370
 20
152.756955
 30
0.0
 10
8.779764
 20
116.133880
 30
0.0
 10
8.591381
 20
115.246573
 30
0.0
  0
SPLINE
  5
119
100
AcDbEntity
  8
0
 62
4
100
AcDbSpline
 70
8
 71
3
 72
8
 73
4
 74
0
 40
0
 40
0
 40
0
 40
0
 40
1
 40
1
 40
1
 40
1
 10
8.591381
 20
115.246573
 30
0.0
 10
8.589095
 20
115.235567
 30
0.0
 10
8.587909
 20
115.223713
 30
0.0
 10
8.587909
 20
115.212707
 30
0.0
  0
SPLINE
  5
11a
100
AcDbEntity
  8
0
 62
4
100
AcDbSpline
 70
8
 71
3
 72
8
 73
4
 74
0
 40
0
 40
0
 40
0
 40
0
 40
1
 40
1
 40
1
 40
1
 10
8.587909
 20
115.212707
 30
0.0
 10
8.587909
 20
114.514207
 30
0.0
 10
8.587909
 20
92.206233
 30
0.0
 10
8.587909
 20
90.324940
 30
0.0
  0
SPLINE
  5
11b
100
AcDbEntity
  8
0
 62
4
100
AcDbSpline
 70
8
 71
3
 72
8
 73
4
 74
0
 40
0
 40
0
 40
0
 40
0
 40
1
 40
1
 40
1
 40
1
 10
8.587909
 20
90.324940
 30
0.0
 10
8.587909
 20
90.250433
 30
0.0
 10
8.638625
 20
90.186087
 30
0.0
 10
8.710591
 20
90.169153
 30
0.0
  0
SPLINE
  5
11c
100
AcDbEntity
  8
0
 62
4
100
AcDbSpline
 70
8
 71
3
 72
8
 73
4
 74
0
 40
0
 40
0
 40
0
 40
0
 40
1
 40
1
 40
1
 40
1
 10
8.710591
 20
90.169153
 30
0.0
 10
9.613985
 20
89.952407
 30
0.0
 10
15.209012
 20
88.612133
 30
0.0
 10
15.570793
 20
88.525773
 30
0.0
  0
SPLINE
  5
11d
100
AcDbEntity
  8
0
 62
4
100
AcDbSpline
 70
8
 71
3
 72
8
 73
4
 74
0
 40
0
 40
0
 40
0
 40
0
 40
1
 40
1
 40
1
 40
1
 10
15.570793
 20
88.525773
 30
0.0
 10
15.583069
 20
88.522387
 30
0.0
 10
15.595515
 20
88.521540
 30
0.0
 10
15.608131
 20
88.521540
 30
0.0
  0
SPLINE
  5
11e
100
AcDbEntity
  8
0
 62
4
100
AcDbSpline
 70
8
 71
3
 72
8
 73
4
 74
0
 40
0
 40
0
 40
0
 40
0
 40
1
 40
1
 40
1
 40
1
 10
15.608131
 20
88.521540
 30
0.0
 10
16.741733
 20
88.521540
 30
0.0
 10
68.502022
 20
88.521540
 30
0.0
 10
69.365707
 20
88.521540
 30
0.0
  0
SPLINE
  5
11f
100
AcDbEntity
  8
0
 62
4
100
AcDbSpline
 70
8
 71
3
 72
8
 73
4
 74
0
 40
0
 40
0
 40
0
 40
0
 40
1
 40
1
 40
1
 40
1
 10
69.365707
 20
88.521540
 30
0.0
 10
69.372988
 20
88.521540
 30
0.0
 10
69.380269
 20
88.521540
 30
0.0
 10
69.387466
 20
88.522387
 30
0.0
  0
SPLINE
  5
120
100
AcDbEntity
  8
0
 62
4
100
AcDbSpline
 70
8
 71
3
 72
8
 73
4
 74
0
 40
0
 40
0
 40
0
 40
0
 40
1
 40
1
 40
1
 40
1
 10
69.387466
 20
88.522387
 30
0.0
 10
69.716565
 20
88.568107
 30
0.0
 10
77.436133
 20
89.628133
 30
0.0
 10
77.765233
 20
89.673007
 30
0.0
  0
SPLINE
  5
121
100
AcDbEntity
  8
0
 62
4
100
AcDbSpline
 70
8
 71
3
 72
8
 73
4
 74
0
 40
0
 40
0
 40
0
 40
0
 40
1
 40
1
 40
1
 40
1
 10
77.765233
 20
89.673007
 30
0.0
 10
77.772429
 20
89.673853
 30
0.0
 10
77.779711
 20
89.674700
 30
0.0
 10
77.786992
 20
89.674700
 30
0.0
  0
SPLINE
  5
122
100
AcDbEntity
  8
0
 62
4
100
AcDbSpline
 70
8
 71
3
 72
8
 73
4
 74
0
 40
0
 40
0
 40
0
 40
0
 40
1
 40
1
 40
1
 40
1
 10
77.786992
 20
89.674700
 30
0.0
 10
78.402942
 20
89.674700
 30
0.0
 10
104.846120
 20
89.674700
 30
0.0
 10
105.609813
 20
89.674700
 30
0.0
  0
SPLINE
  5
123
100
AcDbEntity
  8
0
 62
4
100
AcDbSpline
 70
8
 71
3
 72
8
 73
4
 74
0
 40
0
 40
0
 40
0
 40
0
 40
1
 40
1
 40
1
 40
1
 10
105.609813
 20
89.674700
 30
0.0
 10
105.621667
 20
89.674700
 30
0.0
 10
105.632673
 20
89.673007
 30
0.0
 10
105.643680
 20
89.670467
 30
0.0
  0
SPLINE
  5
124
100
AcDbEntity
  8
0
 62
4
100
AcDbSpline
 70
8
 71
3
 72
8
 73
4
 74
0
 40
0
 40
0
 40
0
 40
0
 40
1
 40
1
 40
1
 40
1
 10
105.643680
 20
89.670467
 30
0.0
 10
106.596180
 20
89.467267
 30
0.0
 10
148.415587
 20
80.537473
 30
0.0
 10
149.343533
 20
80.339353
 30
0.0
  0
SPLINE
  5
125
100
AcDbEntity
  8
0
 62
4
100
AcDbSpline
 70
8
 71
3
 72
8
 73
4
 74
0
 40
0
 40
0
 40
0
 40
0
 40
1
 40
1
 40
1
 40
1
 10
149.343533
 20
80.339353
 30
0.0
 10
149.354540
 20
80.337660
 30
0.0
 10
149.364700
 20
80.335967
 30
0.0
 10
149.375707
 20
80.335967
 30
0.0
  0
SPLINE
  5
126
100
AcDbEntity
  8
0
 62
4
100
AcDbSpline
 70
8
 71
3
 72
8
 73
4
 74
0
 40
0
 40
0
 40
0
 40
0
 40
1
 40
1
 40
1
 40
1
 10
149.375707
 20
80.335967
 30
0.0
 10
149.777873
 20
80.331733
 30
0.0
 10
157.641713
 20
80.247067
 30
0.0
 10
158.484147
 20
80.238600
 30
0.0
  0
SPLINE
  5
127
100
AcDbEntity
  8
0
 62
4
100
AcDbSpline
 70
8
 71
3
 72
8
 73
4
 74
0
 40
0
 40
0
 40
0
 40
0
 40
1
 40
1
 40
1
 40
1
 10
158.484147
 20
80.238600
 30
0.0
 10
158.530713
 20
80.237753
 30
0.0
 10
158.574740
 20
80.257227
 30
0.0
 10
158.605220
 20
80.291940
 30
0.0
  0
SPLINE
  5
128
100
AcDbEntity
  8
0
 62
4
100
AcDbSpline
 70
8
 71
3
 72
8
 73
4
 74
0
 40
0
 40
0
 40
0
 40
0
 40
1
 40
1
 40
1
 40
1
 10
158.605220
 20
80.291940
 30
0.0
 10
159.307107
 20
81.081880
 30
0.0
 10
167.407167
 20
90.198787
 30
0.0
 10
168.049787
 20
90.921840
 30
0.0
  0
SPLINE
  5
129
100
AcDbEntity
  8
0
 62
4
100
AcDbSpline
 70
8
 71
3
 72
8
 73
4
 74
0
 40
0
 40
0
 40
0
 40
0
 40
1
 40
1
 40
1
 40
1
 10
168.049787
 20
90.921840
 30
0.0
 10
168.075187
 20
90.950627
 30
0.0
 10
168.089580
 20
90.988727
 30
0.0
 10
168.089580
 20
91.027673
 30
0.0
  0
SPLINE
  5
12a
100
AcDbEntity
  8
0
 62
4
100
AcDbSpline
 70
8
 71
3
 72
8
 73
4
 74
0
 40
0
 40
0
 40
0
 40
0
 40
1
 40
1
 40
1
 40
1
 10
168.089580
 20
91.027673
 30
0.0
 10
168.089580
 20
92.646500
 30
0.0
 10
168.089580
 20
126.038949
 30
0.0
 10
168.089580
 20
127.470662
 30
0.0
  0
SPLINE
  5
12b
100
AcDbEntity
  8
0
 62
4
100
AcDbSpline
 70
8
 71
3
 72
8
 73
4
 74
0
 40
0
 40
0
 40
0
 40
0
 40
1
 40
1
 40
1
 40
1
 10
168.089580
 20
127.470662
 30
0.0
 10
168.089580
 20
127.501565
 30
0.0
 10
168.081113
 20
127.531876
 30
0.0
 10
168.064180
 20
127.557784
 30
0.0
  0
SPLINE
  5
12c
100
AcDbEntity
  8
0
 62
4
100
AcDbSpline
 70
8
 71
3
 72
8
 73
4
 74
0
 40
0
 40
0
 40
0
 40
0
 40
1
 40
1
 40
1
 40
1
 10
168.064180
 20
127.557784
 30
0.0
 10
167.755147
 20
128.033441
 30
0.0
 10
164.771493
 20
132.626185
 30
0.0
 10
164.408273
 20
133.184900
 30
0.0
  0
LWPOLYLINE
  5
12d
100
AcDbEntity
  8
0
 62
4
100
AcDbPolyline
 90
1
 70
1
 10
164.408273
 20
133.184900
 30
0.0
  0
LWPOLYLINE
  5
12e
100
AcDbEntity
  8
0
 62
4
100
AcDbPolyline
 90
13
 70
1
 10
124.498100
 20
102.825127
 30
0.0
 10
124.697913
 20
103.766620
 30
0.0
 10
127.926253
 20
103.080820
 30
0.0
 10
127.725593
 20
102.139327
 30
0.0
 10
147.767887
 20
97.878900
 30
0.0
 10
147.968547
 20
98.820393
 30
0.0
 10
151.196040
 20
98.134593
 30
0.0
 10
150.996227
 20
97.192253
 30
0.0
 10
153.874047
 20
96.558947
 30
0.0
 10
150.963207
 20
82.864113
 30
0.0
 10
118.634087
 20
89.758520
 30
0.0
 10
121.544927
 20
103.452507
 30
0.0
 10
124.498100
 20
102.825127
 30
0.0
  0
LWPOLYLINE
  5
12f
100
AcDbEntity
  8
0
 62
4
100
AcDbPolyline
 90
5
 70
1
 10
114.276293
 20
104.997673
 30
0.0
 10
100.582307
 20
107.908513
 30
0.0
 10
97.671467
 20
94.213680
 30
0.0
 10
111.365453
 20
91.302840
 30
0.0
 10
114.276293
 20
104.997673
 30
0.0
  0
LWPOLYLINE
  5
130
100
AcDbEntity
  8
0
 62
4
100
AcDbPolyline
 90
13
 70
1
 10
32.355028
 20
105.596267
 30
0.0
 10
52.845039
 20
105.596267
 30
0.0
 10
52.845039
 20
106.777367
 30
0.0
 10
56.145091
 20
106.777367
 30
0.0
 10
56.145091
 20
105.596267
 30
0.0
 10
59.134417
 20
105.596267
 30
0.0
 10
59.134417
 20
91.593247
 30
0.0
 10
18.934007
 20
91.593247
 30
0.0
 10
18.934007
 20
105.596267
 30
0.0
 10
29.055060
 20
105.596267
 30
0.0
 10
29.055060
 20
106.777367
 30
0.0
 10
32.355028
 20
106.777367
 30
0.0
 10
32.355028
 20
105.596267
 30
0.0
  0
SPLINE
  5
131
100
AcDbEntity
  8
0
 62
4
100
AcDbSpline
 70
8
 71
3
 72
8
 73
4
 74
0
 40
0
 40
0
 40
0
 40
0
 40
1
 40
1
 40
1
 40
1
 10
93.925813
 20
102.468680
 30
0.0
 10
94.465140
 20
102.353533
 30
0.0
 10
94.810580
 20
101.822673
 30
0.0
 10
94.695433
 20
101.282500
 30
0.0
  0
SPLINE
  5
132
100
AcDbEntity
  8
0
 62
4
100
AcDbSpline
 70
8
 71
3
 72
8
 73
4
 74
0
 40
0
 40
0
 40
0
 40
0
 40
1
 40
1
 40
1
 40
1
 10
94.695433
 20
101.282500
 30
0.0
 10
94.581133
 20
100.742327
 30
0.0
 10
94.049427
 20
100.397733
 30
0.0
 10
93.510100
 20
100.512033
 30
0.0
  0
SPLINE
  5
133
100
AcDbEntity
  8
0
 62
4
100
AcDbSpline
 70
8
 71
3
 72
8
 73
4
 74
0
 40
0
 40
0
 40
0
 40
0
 40
1
 40
1
 40
1
 40
1
 10
93.510100
 20
100.512033
 30
0.0
 10
92.969927
 20
100.627180
 30
0.0
 10
92.624487
 20
101.158040
 30
0.0
 10
92.739633
 20
101.698213
 30
0.0
  0
SPLINE
  5
134
100
AcDbEntity
  8
0
 62
4
100
AcDbSpline
 70
8
 71
3
 72
8
 73
4
 74
0
 40
0
 40
0
 40
0
 40
0
 40
1
 40
1
 40
1
 40
1
 10
92.739633
 20
101.698213
 30
0.0
 10
92.853933
 20
102.238387
 30
0.0
 10
93.385640
 20
102.582980
 30
0.0
 10
93.925813
 20
102.468680
 30
0.0
  0
LWPOLYLINE
  5
135
100
AcDbEntity
  8
0
 62
4
100
AcDbPolyline
 90
5
 70
1
 10
90.984493
 20
109.948980
 30
0.0
 10
77.289829
 20
112.858973
 30
0.0
 10
74.378989
 20
99.164987
 30
0.0
 10
88.073653
 20
96.254147
 30
0.0
 10
90.984493
 20
109.948980
 30
0.0
  0
LWPOLYLINE
  5
136
100
AcDbEntity
  8
0
 62
4
100
AcDbPolyline
 90
1
 70
1
 10
93.925813
 20
102.468680
 30
0.0
  0
LWPOLYLINE
  5
137
100
AcDbEntity
  8
0
 62
4
100
AcDbPolyline
 90
5
 70
1
 10
157.834753
 20
115.214400
 30
0.0
 10
144.139920
 20
118.125240
 30
0.0
 10
141.229927
 20
104.431253
 30
0.0
 10
154.923913
 20
101.520413
 30
0.0
 10
157.834753
 20
115.214400
 30
0.0
  0
SPLINE
  5
138
100
AcDbEntity
  8
0
 62
4
100
AcDbSpline
 70
8
 71
3
 72
8
 73
4
 74
0
 40
0
 40
0
 40
0
 40
0
 40
1
 40
1
 40
1
 40
1
 10
161.481347
 20
106.613113
 30
0.0
 10
160.927627
 20
106.613113
 30
0.0
 10
160.479740
 20
107.060153
 30
0.0
 10
160.479740
 20
107.613027
 30
0.0
  0
SPLINE
  5
139
100
AcDbEntity
  8
0
 62
4
100
AcDbSpline
 70
8
 71
3
 72
8
 73
4
 74
0
 40
0
 40
0
 40
0
 40
0
 40
1
 40
1
 40
1
 40
1
 10
160.479740
 20
107.613027
 30
0.0
 10
160.479740
 20
108.165053
 30
0.0
 10
160.927627
 20
108.612940
 30
0.0
 10
161.481347
 20
108.612940
 30
0.0
  0
SPLINE
  5
13a
100
AcDbEntity
  8
0
 62
4
100
AcDbSpline
 70
8
 71
3
 72
8
 73
4
 74
0
 40
0
 40
0
 40
0
 40
0
 40
1
 40
1
 40
1
 40
1
 10
161.481347
 20
108.612940
 30
0.0
 10
162.030833
 20
108.612940
 30
0.0
 10
162.479567
 20
108.165053
 30
0.0
 10
162.479567
 20
107.613027
 30
0.0
  0
SPLINE
  5
13b
100
AcDbEntity
  8
0
 62
4
100
AcDbSpline
 70
8
 71
3
 72
8
 73
4
 74
0
 40
0
 40
0
 40
0
 40
0
 40
1
 40
1
 40
1
 40
1
 10
162.479567
 20
107.613027
 30
0.0
 10
162.479567
 20
107.060153
 30
0.0
 10
162.030833
 20
106.613113
 30
0.0
 10
161.481347
 20
106.613113
 30
0.0
  0
LWPOLYLINE
  5
13c
100
AcDbEntity
  8
0
 62
4
100
AcDbPolyline
 90
5
 70
1
 10
139.201313
 20
119.175107
 30
0.0
 10
125.506480
 20
122.085947
 30
0.0
 10
122.595640
 20
108.391960
 30
0.0
 10
136.290473
 20
105.481120
 30
0.0
 10
139.201313
 20
119.175107
 30
0.0
  0
SPLINE
  5
13d
100
AcDbEntity
  8
0
 62
4
100
AcDbSpline
 70
8
 71
3
 72
8
 73
4
 74
0
 40
0
 40
0
 40
0
 40
0
 40
1
 40
1
 40
1
 40
1
 10
12.970425
 20
110.119160
 30
0.0
 10
12.417129
 20
110.119160
 30
0.0
 10
11.968649
 20
110.566200
 30
0.0
 10
11.968649
 20
111.119073
 30
0.0
  0
SPLINE
  5
13e
100
AcDbEntity
  8
0
 62
4
100
AcDbSpline
 70
8
 71
3
 72
8
 73
4
 74
0
 40
0
 40
0
 40
0
 40
0
 40
1
 40
1
 40
1
 40
1
 10
11.968649
 20
111.119073
 30
0.0
 10
11.968649
 20
111.671100
 30
0.0
 10
12.417129
 20
112.118987
 30
0.0
 10
12.970425
 20
112.118987
 30
0.0
  0
SPLINE
  5
13f
100
AcDbEntity
  8
0
 62
4
100
AcDbSpline
 70
8
 71
3
 72
8
 73
4
 74
0
 40
0
 40
0
 40
0
 40
0
 40
1
 40
1
 40
1
 40
1
 10
12.970425
 20
112.118987
 30
0.0
 10
13.520166
 20
112.118987
 30
0.0
 10
13.968645
 20
111.671100
 30
0.0
 10
13.968645
 20
111.119073
 30
0.0
  0
SPLINE
  5
140
100
AcDbEntity
  8
0
 62
4
100
AcDbSpline
 70
8
 71
3
 72
8
 73
4
 74
0
 40
0
 40
0
 40
0
 40
0
 40
1
 40
1
 40
1
 40
1
 10
13.968645
 20
111.119073
 30
0.0
 10
13.968645
 20
110.566200
 30
0.0
 10
13.520166
 20
110.119160
 30
0.0
 10
12.970425
 20
110.119160
 30
0.0
  0
LWPOLYLINE
  5
141
100
AcDbEntity
  8
0
 62
4
100
AcDbPolyline
 90
1
 70
1
 10
161.481347
 20
106.613113
 30
0.0
  0
LWPOLYLINE
  5
142
100
AcDbEntity
  8
0
 62
4
100
AcDbPolyline
 90
1
 70
1
 10
12.970425
 20
110.119160
 30
0.0
  0
LWPOLYLINE
  5
143
100
AcDbEntity
  8
0
 62
4
100
AcDbPolyline
 90
5
 70
1
 10
121.062327
 20
125.463977
 30
0.0
 10
107.367493
 20
128.374817
 30
0.0
 10
104.456653
 20
114.680153
 30
0.0
 10
118.151487
 20
111.769313
 30
0.0
 10
121.062327
 20
125.463977
 30
0.0
  0
LWPOLYLINE
  5
144
100
AcDbEntity
  8
0
 62
4
100
AcDbPolyline
 90
5
 70
1
 10
62.684999
 20
125.695287
 30
0.0
 10
48.990504
 20
128.606127
 30
0.0
 10
46.079664
 20
114.911293
 30
0.0
 10
59.774159
 20
112.000453
 30
0.0
 10
62.684999
 20
125.695287
 30
0.0
  0
LWPOLYLINE
  5
145
100
AcDbEntity
  8
0
 62
4
100
AcDbPolyline
 90
5
 70
1
 10
36.074858
 20
126.482602
 30
0.0
 10
22.380363
 20
129.393442
 30
0.0
 10
19.469523
 20
115.698693
 30
0.0
 10
33.164018
 20
112.787853
 30
0.0
 10
36.074858
 20
126.482602
 30
0.0
  0
LWPOLYLINE
  5
146
100
AcDbEntity
  8
0
 62
4
100
AcDbPolyline
 90
5
 70
1
 10
164.400653
 20
117.345460
 30
0.0
 10
161.967333
 20
117.862773
 30
0.0
 10
161.344187
 20
114.928227
 30
0.0
 10
163.776660
 20
114.410913
 30
0.0
 10
164.400653
 20
117.345460
 30
0.0
  0
LWPOLYLINE
  5
147
100
AcDbEntity
  8
0
 62
4
100
AcDbPolyline
 90
5
 70
1
 10
102.924187
 20
131.755134
 30
0.0
 10
89.229353
 20
134.665974
 30
0.0
 10
86.318513
 20
120.971733
 30
0.0
 10
100.013347
 20
118.060893
 30
0.0
 10
102.924187
 20
131.755134
 30
0.0
  0
LWPOLYLINE
  5
148
100
AcDbEntity
  8
0
 62
4
100
AcDbPolyline
 90
5
 70
1
 10
83.795023
 20
133.385391
 30
0.0
 10
70.100529
 20
136.296231
 30
0.0
 10
67.189689
 20
122.601567
 30
0.0
 10
80.884183
 20
119.690727
 30
0.0
 10
83.795023
 20
133.385391
 30
0.0
  0
LWPOLYLINE
  5
149
100
AcDbEntity
  8
0
 62
4
100
AcDbPolyline
 90
5
 70
1
 10
161.795460
 20
133.848263
 30
0.0
 10
148.101473
 20
136.759103
 30
0.0
 10
145.190633
 20
123.064693
 30
0.0
 10
158.884620
 20
120.153853
 30
0.0
 10
161.795460
 20
133.848263
 30
0.0
  0
LWPOLYLINE
  5
14a
100
AcDbEntity
  8
0
 62
4
100
AcDbPolyline
 90
5
 70
1
 10
166.194740
 20
125.785795
 30
0.0
 10
163.761420
 20
126.302939
 30
0.0
 10
163.138273
 20
123.368647
 30
0.0
 10
165.570747
 20
122.851333
 30
0.0
 10
166.194740
 20
125.785795
 30
0.0
  0
SPLINE
  5
14b
100
AcDbEntity
  8
0
 62
4
100
AcDbSpline
 70
8
 71
3
 72
8
 73
4
 74
0
 40
0
 40
0
 40
0
 40
0
 40
1
 40
1
 40
1
 40
1
 10
143.460893
 20
126.606046
 30
0.0
 10
144.000220
 20
126.491323
 30
0.0
 10
144.345660
 20
125.959870
 30
0.0
 10
144.230513
 20
125.419951
 30
0.0
  0
SPLINE
  5
14c
100
AcDbEntity
  8
0
 62
4
100
AcDbSpline
 70
8
 71
3
 72
8
 73
4
 74
0
 40
0
 40
0
 40
0
 40
0
 40
1
 40
1
 40
1
 40
1
 10
144.230513
 20
125.419951
 30
0.0
 10
144.116213
 20
124.879947
 30
0.0
 10
143.584507
 20
124.535353
 30
0.0
 10
143.044333
 20
124.649653
 30
0.0
  0
SPLINE
  5
14d
100
AcDbEntity
  8
0
 62
4
100
AcDbSpline
 70
8
 71
3
 72
8
 73
4
 74
0
 40
0
 40
0
 40
0
 40
0
 40
1
 40
1
 40
1
 40
1
 10
143.044333
 20
124.649653
 30
0.0
 10
142.505007
 20
124.764800
 30
0.0
 10
142.159567
 20
125.295660
 30
0.0
 10
142.274713
 20
125.835833
 30
0.0
  0
SPLINE
  5
14e
100
AcDbEntity
  8
0
 62
4
100
AcDbSpline
 70
8
 71
3
 72
8
 73
4
 74
0
 40
0
 40
0
 40
0
 40
0
 40
1
 40
1
 40
1
 40
1
 10
142.274713
 20
125.835833
 30
0.0
 10
142.389013
 20
126.375668
 30
0.0
 10
142.920720
 20
126.720769
 30
0.0
 10
143.460893
 20
126.606046
 30
0.0
  0
LWPOLYLINE
  5
14f
100
AcDbEntity
  8
0
 62
4
100
AcDbPolyline
 90
5
 70
1
 10
143.162020
 20
137.808970
 30
0.0
 10
129.467187
 20
140.719810
 30
0.0
 10
126.556347
 20
127.025315
 30
0.0
 10
140.251180
 20
124.114560
 30
0.0
 10
143.162020
 20
137.808970
 30
0.0
  0
LWPOLYLINE
  5
150
100
AcDbEntity
  8
0
 62
4
100
AcDbPolyline
 90
1
 70
1
 10
143.460893
 20
126.606046
 30
0.0
  0
LWPOLYLINE
  5
151
100
AcDbEntity
  8
0
 62
4
100
AcDbPolyline
 90
5
 70
1
 10
125.023033
 20
144.097671
 30
0.0
 10
111.328200
 20
147.008511
 30
0.0
 10
108.417360
 20
133.314017
 30
0.0
 10
122.112193
 20
130.403092
 30
0.0
 10
125.023033
 20
144.097671
 30
0.0
  0
LWPOLYLINE
  5
152
100
AcDbEntity
  8
0
 62
4
100
AcDbPolyline
 90
5
 70
1
 10
66.645705
 20
144.328981
 30
0.0
 10
52.951211
 20
147.239821
 30
0.0
 10
50.040371
 20
133.545326
 30
0.0
 10
63.734865
 20
130.634486
 30
0.0
 10
66.645705
 20
144.328981
 30
0.0
  0
LWPOLYLINE
  5
153
100
AcDbEntity
  8
0
 62
4
100
AcDbPolyline
 90
5
 70
1
 10
40.033025
 20
145.116804
 30
0.0
 10
26.344795
 20
148.026289
 30
0.0
 10
23.433871
 20
134.331795
 30
0.0
 10
37.122100
 20
131.422309
 30
0.0
 10
40.033025
 20
145.116804
 30
0.0
  0
SPLINE
  5
154
100
AcDbEntity
  8
0
 62
4
100
AcDbSpline
 70
8
 71
3
 72
8
 73
4
 74
0
 40
0
 40
0
 40
0
 40
0
 40
1
 40
1
 40
1
 40
1
 10
42.187453
 20
139.433215
 30
0.0
 10
42.727372
 20
139.318492
 30
0.0
 10
43.072473
 20
138.786955
 30
0.0
 10
42.957750
 20
138.247120
 30
0.0
  0
SPLINE
  5
155
100
AcDbEntity
  8
0
 62
4
100
AcDbSpline
 70
8
 71
3
 72
8
 73
4
 74
0
 40
0
 40
0
 40
0
 40
0
 40
1
 40
1
 40
1
 40
1
 10
42.957750
 20
138.247120
 30
0.0
 10
42.842942
 20
137.707285
 30
0.0
 10
42.311489
 20
137.362184
 30
0.0
 10
41.771655
 20
137.476907
 30
0.0
  0
SPLINE
  5
156
100
AcDbEntity
  8
0
 62
4
100
AcDbSpline
 70
8
 71
3
 72
8
 73
4
 74
0
 40
0
 40
0
 40
0
 40
0
 40
1
 40
1
 40
1
 40
1
 10
41.771655
 20
137.476907
 30
0.0
 10
41.231820
 20
137.591631
 30
0.0
 10
40.886634
 20
138.123083
 30
0.0
 10
41.001442
 20
138.663003
 30
0.0
  0
SPLINE
  5
157
100
AcDbEntity
  8
0
 62
4
100
AcDbSpline
 70
8
 71
3
 72
8
 73
4
 74
0
 40
0
 40
0
 40
0
 40
0
 40
1
 40
1
 40
1
 40
1
 10
41.001442
 20
138.663003
 30
0.0
 10
41.116165
 20
139.202837
 30
0.0
 10
41.647618
 20
139.547939
 30
0.0
 10
42.187453
 20
139.433215
 30
0.0
  0
LWPOLYLINE
  5
158
100
AcDbEntity
  8
0
 62
4
100
AcDbPolyline
 90
5
 70
1
 10
106.884893
 20
150.388828
 30
0.0
 10
93.190060
 20
153.299668
 30
0.0
 10
90.279220
 20
139.605173
 30
0.0
 10
103.974053
 20
136.694249
 30
0.0
 10
106.884893
 20
150.388828
 30
0.0
  0
LWPOLYLINE
  5
159
100
AcDbEntity
  8
0
 62
4
100
AcDbPolyline
 90
1
 70
1
 10
42.187453
 20
139.433215
 30
0.0
  0
LWPOLYLINE
  5
15a
100
AcDbEntity
  8
0
 62
4
100
AcDbPolyline
 90
5
 70
1
 10
87.756153
 20
152.019085
 30
0.0
 10
74.061235
 20
154.929925
 30
0.0
 10
71.150395
 20
141.235430
 30
0.0
 10
84.845313
 20
138.324590
 30
0.0
 10
87.756153
 20
152.019085
 30
0.0
  0
LWPOLYLINE
  5
15b
100
AcDbEntity
  8
0
 62
4
100
AcDbPolyline
 90
5
 70
1
 10
165.756167
 20
152.481957
 30
0.0
 10
152.062180
 20
155.392797
 30
0.0
 10
149.150493
 20
141.698303
 30
0.0
 10
162.845327
 20
138.787378
 30
0.0
 10
165.756167
 20
152.481957
 30
0.0
  0
LWPOLYLINE
  5
15c
100
AcDbEntity
  8
0
 62
4
100
AcDbPolyline
 90
5
 70
1
 10
147.122727
 20
156.442664
 30
0.0
 10
133.427893
 20
159.353504
 30
0.0
 10
130.517053
 20
145.659009
 30
0.0
 10
144.211887
 20
142.748085
 30
0.0
 10
147.122727
 20
156.442664
 30
0.0
  0
LWPOLYLINE
  5
15d
100
AcDbEntity
  8
0
 62
4
100
AcDbPolyline
 90
5
 70
1
 10
128.983740
 20
162.731281
 30
0.0
 10
115.288907
 20
165.642121
 30
0.0
 10
112.378067
 20
151.947626
 30
0.0
 10
126.072900
 20
149.036786
 30
0.0
 10
128.983740
 20
162.731281
 30
0.0
  0
LWPOLYLINE
  5
15e
100
AcDbEntity
  8
0
 62
4
100
AcDbPolyline
 90
5
 70
1
 10
70.606412
 20
162.962675
 30
0.0
 10
56.911917
 20
165.873515
 30
0.0
 10
54.001077
 20
152.179020
 30
0.0
 10
67.695572
 20
149.268095
 30
0.0
 10
70.606412
 20
162.962675
 30
0.0
  0
LWPOLYLINE
  5
15f
100
AcDbEntity
  8
0
 62
4
100
AcDbPolyline
 90
5
 70
1
 10
46.324181
 20
163.255113
 30
0.0
 10
32.629687
 20
166.165953
 30
0.0
 10
29.718762
 20
152.471459
 30
0.0
 10
43.413257
 20
149.560619
 30
0.0
 10
46.324181
 20
163.255113
 30
0.0
  0
LWPOLYLINE
  5
160
100
AcDbEntity
  8
0
 62
4
100
AcDbPolyline
 90
5
 70
1
 10
110.845600
 20
169.022437
 30
0.0
 10
97.150767
 20
171.933277
 30
0.0
 10
94.239927
 20
158.238783
 30
0.0
 10
107.934760
 20
155.327943
 30
0.0
 10
110.845600
 20
169.022437
 30
0.0
  0
LWPOLYLINE
  5
161
100
AcDbEntity
  8
0
 62
4
100
AcDbPolyline
 90
5
 70
1
 10
91.716860
 20
170.652694
 30
0.0
 10
78.021942
 20
173.563534
 30
0.0
 10
75.111102
 20
159.869039
 30
0.0
 10
88.805173
 20
156.958199
 30
0.0
 10
91.716860
 20
170.652694
 30
0.0
  0
LWPOLYLINE
  5
162
100
AcDbEntity
  8
0
 62
4
100
AcDbPolyline
 90
5
 70
1
 10
169.716873
 20
171.115567
 30
0.0
 10
156.022887
 20
174.026407
 30
0.0
 10
153.111200
 20
160.331912
 30
0.0
 10
166.806033
 20
157.421072
 30
0.0
 10
169.716873
 20
171.115567
 30
0.0
  0
LWPOLYLINE
  5
163
100
AcDbEntity
  8
0
 62
4
100
AcDbPolyline
 90
5
 70
1
 10
151.083433
 20
175.076273
 30
0.0
 10
137.388600
 20
177.987113
 30
0.0
 10
134.477760
 20
164.292619
 30
0.0
 10
148.172593
 20
161.381779
 30
0.0
 10
151.083433
 20
175.076273
 30
0.0
  0
LWPOLYLINE
  5
164
100
AcDbEntity
  8
0
 62
4
100
AcDbPolyline
 90
5
 70
1
 10
54.943248
 20
180.898631
 30
0.0
 10
41.248753
 20
183.809471
 30
0.0
 10
38.337913
 20
170.114976
 30
0.0
 10
52.032408
 20
167.204051
 30
0.0
 10
54.943248
 20
180.898631
 30
0.0
  0
LWPOLYLINE
  5
165
100
AcDbEntity
  8
0
 62
4
100
AcDbPolyline
 90
5
 70
1
 10
132.944447
 20
181.364975
 30
0.0
 10
119.249613
 20
184.275815
 30
0.0
 10
116.338773
 20
170.581320
 30
0.0
 10
130.033607
 20
167.670480
 30
0.0
 10
132.944447
 20
181.364975
 30
0.0
  0
LWPOLYLINE
  5
166
100
AcDbEntity
  8
0
 62
4
100
AcDbPolyline
 90
5
 70
1
 10
74.567119
 20
181.596284
 30
0.0
 10
60.872624
 20
184.507124
 30
0.0
 10
57.961784
 20
170.812629
 30
0.0
 10
71.656279
 20
167.901789
 30
0.0
 10
74.567119
 20
181.596284
 30
0.0
  0
LWPOLYLINE
  5
167
100
AcDbEntity
  8
0
 62
4
100
AcDbPolyline
 90
5
 70
1
 10
36.309639
 20
184.859337
 30
0.0
 10
22.615144
 20
187.770177
 30
0.0
 10
19.704219
 20
174.075683
 30
0.0
 10
33.398714
 20
171.164758
 30
0.0
 10
36.309639
 20
184.859337
 30
0.0
  0
LWPOLYLINE
  5
168
100
AcDbEntity
  8
0
 62
4
100
AcDbPolyline
 90
5
 70
1
 10
114.806307
 20
187.656131
 30
0.0
 10
101.111473
 20
190.566971
 30
0.0
 10
98.200633
 20
176.872477
 30
0.0
 10
111.895467
 20
173.961637
 30
0.0
 10
114.806307
 20
187.656131
 30
0.0
  0
SPLINE
  5
169
100
AcDbEntity
  8
0
 62
4
100
AcDbSpline
 70
8
 71
3
 72
8
 73
4
 74
0
 40
0
 40
0
 40
0
 40
0
 40
1
 40
1
 40
1
 40
1
 10
96.880680
 20
182.339488
 30
0.0
 10
97.420007
 20
182.224765
 30
0.0
 10
97.765447
 20
181.693312
 30
0.0
 10
97.650300
 20
181.153393
 30
0.0
  0
SPLINE
  5
16a
100
AcDbEntity
  8
0
 62
4
100
AcDbSpline
 70
8
 71
3
 72
8
 73
4
 74
0
 40
0
 40
0
 40
0
 40
0
 40
1
 40
1
 40
1
 40
1
 10
97.650300
 20
181.153393
 30
0.0
 10
97.536000
 20
180.613558
 30
0.0
 10
97.004293
 20
180.268457
 30
0.0
 10
96.464967
 20
180.383180
 30
0.0
  0
SPLINE
  5
16b
100
AcDbEntity
  8
0
 62
4
100
AcDbSpline
 70
8
 71
3
 72
8
 73
4
 74
0
 40
0
 40
0
 40
0
 40
0
 40
1
 40
1
 40
1
 40
1
 10
96.464967
 20
180.383180
 30
0.0
 10
95.924793
 20
180.497903
 30
0.0
 10
95.579353
 20
181.029356
 30
0.0
 10
95.694500
 20
181.569275
 30
0.0
  0
SPLINE
  5
16c
100
AcDbEntity
  8
0
 62
4
100
AcDbSpline
 70
8
 71
3
 72
8
 73
4
 74
0
 40
0
 40
0
 40
0
 40
0
 40
1
 40
1
 40
1
 40
1
 10
95.694500
 20
181.569275
 30
0.0
 10
95.808800
 20
182.109110
 30
0.0
 10
96.340507
 20
182.454211
 30
0.0
 10
96.880680
 20
182.339488
 30
0.0
  0
LWPOLYLINE
  5
16d
100
AcDbEntity
  8
0
 62
4
100
AcDbPolyline
 90
5
 70
1
 10
95.677567
 20
189.286388
 30
0.0
 10
81.982649
 20
192.197228
 30
0.0
 10
79.071809
 20
178.502733
 30
0.0
 10
92.765880
 20
175.591893
 30
0.0
 10
95.677567
 20
189.286388
 30
0.0
  0
SPLINE
  5
16e
100
AcDbEntity
  8
0
 62
4
100
AcDbSpline
 70
8
 71
3
 72
8
 73
4
 74
0
 40
0
 40
0
 40
0
 40
0
 40
1
 40
1
 40
1
 40
1
 10
139.511193
 20
182.638785
 30
0.0
 10
138.957473
 20
182.638785
 30
0.0
 10
138.508740
 20
183.085994
 30
0.0
 10
138.508740
 20
183.638952
 30
0.0
  0
SPLINE
  5
16f
100
AcDbEntity
  8
0
 62
4
100
AcDbSpline
 70
8
 71
3
 72
8
 73
4
 74
0
 40
0
 40
0
 40
0
 40
0
 40
1
 40
1
 40
1
 40
1
 10
138.508740
 20
183.638952
 30
0.0
 10
138.508740
 20
184.190725
 30
0.0
 10
138.957473
 20
184.638781
 30
0.0
 10
139.511193
 20
184.638781
 30
0.0
  0
SPLINE
  5
170
100
AcDbEntity
  8
0
 62
4
100
AcDbSpline
 70
8
 71
3
 72
8
 73
4
 74
0
 40
0
 40
0
 40
0
 40
0
 40
1
 40
1
 40
1
 40
1
 10
139.511193
 20
184.638781
 30
0.0
 10
140.060680
 20
184.638781
 30
0.0
 10
140.509413
 20
184.190725
 30
0.0
 10
140.509413
 20
183.638952
 30
0.0
  0
SPLINE
  5
171
100
AcDbEntity
  8
0
 62
4
100
AcDbSpline
 70
8
 71
3
 72
8
 73
4
 74
0
 40
0
 40
0
 40
0
 40
0
 40
1
 40
1
 40
1
 40
1
 10
140.509413
 20
183.638952
 30
0.0
 10
140.509413
 20
183.085994
 30
0.0
 10
140.060680
 20
182.638785
 30
0.0
 10
139.511193
 20
182.638785
 30
0.0
  0
LWPOLYLINE
  5
172
100
AcDbEntity
  8
0
 62
4
100
AcDbPolyline
 90
1
 70
1
 10
96.880680
 20
182.339488
 30
0.0
  0
SPLINE
  5
173
100
AcDbEntity
  8
0
 62
4
100
AcDbSpline
 70
8
 71
3
 72
8
 73
4
 74
0
 40
0
 40
0
 40
0
 40
0
 40
1
 40
1
 40
1
 40
1
 10
37.369242
 20
189.866355
 30
0.0
 10
36.815861
 20
189.866355
 30
0.0
 10
36.367466
 20
190.313649
 30
0.0
 10
36.367466
 20
190.866522
 30
0.0
  0
SPLINE
  5
174
100
AcDbEntity
  8
0
 62
4
100
AcDbSpline
 70
8
 71
3
 72
8
 73
4
 74
0
 40
0
 40
0
 40
0
 40
0
 40
1
 40
1
 40
1
 40
1
 10
36.367466
 20
190.866522
 30
0.0
 10
36.367466
 20
191.418379
 30
0.0
 10
36.815861
 20
191.866351
 30
0.0
 10
37.369242
 20
191.866351
 30
0.0
  0
SPLINE
  5
175
100
AcDbEntity
  8
0
 62
4
100
AcDbSpline
 70
8
 71
3
 72
8
 73
4
 74
0
 40
0
 40
0
 40
0
 40
0
 40
1
 40
1
 40
1
 40
1
 10
37.369242
 20
191.866351
 30
0.0
 10
37.918983
 20
191.866351
 30
0.0
 10
38.367462
 20
191.418379
 30
0.0
 10
38.367462
 20
190.866522
 30
0.0
  0
SPLINE
  5
176
100
AcDbEntity
  8
0
 62
4
100
AcDbSpline
 70
8
 71
3
 72
8
 73
4
 74
0
 40
0
 40
0
 40
0
 40
0
 40
1
 40
1
 40
1
 40
1
 10
38.367462
 20
190.866522
 30
0.0
 10
38.367462
 20
190.313649
 30
0.0
 10
37.918983
 20
189.866355
 30
0.0
 10
37.369242
 20
189.866355
 30
0.0
  0
LWPOLYLINE
  5
177
100
AcDbEntity
  8
0
 62
4
100
AcDbPolyline
 90
1
 70
1
 10
139.511193
 20
182.638785
 30
0.0
  0
LWPOLYLINE
  5
178
100
AcDbEntity
  8
0
 62
4
100
AcDbPolyline
 90
1
 70
1
 10
37.369242
 20
189.866355
 30
0.0
  0
ENDSEC
  0
SECTION
  2
OBJECTS
  0
DICTIONARY
  5
C
330
0
100
AcDbDictionary
  3
ACAD_GROUP
350
D
  3
ACAD_MLINESTYLE
350
17
  0
DICTIONARY
  5
D
330
C
100
AcDbDictionary
  0
DICTIONARY
  5
1A
330
C
100
AcDbDictionary
  0
DICTIONARY
  5
17
330
C
100
AcDbDictionary
  3
STANDARD
350
18
  0
DICTIONARY
  5
19
330
C
100
AcDbDictionary
  0
ENDSEC
  0
EOF
