<?xml version="1.0" encoding="UTF-8" standalone="no"?>
<!DOCTYPE svg PUBLIC "-//W3C//DTD SVG 1.1//EN" "http://www.w3.org/Graphics/SVG/1.1/DTD/svg11.dtd">
<svg width="100%" height="100%" viewBox="0 0 1123 794" version="1.1" xmlns="http://www.w3.org/2000/svg" xmlns:xlink="http://www.w3.org/1999/xlink" xml:space="preserve" xmlns:serif="http://www.serif.com/" style="fill-rule:evenodd;clip-rule:evenodd;stroke-linecap:square;stroke-linejoin:round;stroke-miterlimit:1.5;">
    <g transform="matrix(0.32,0,0,0.32,0,0)">
        <g id="Split-Left-v02" serif:id="Split Left v02">
            <g id="Bottom">
                <path id="外形" d="M607.324,0C607.894,0 608.434,0.257 608.793,0.701C609.152,1.144 609.291,1.725 609.173,2.283C604.731,23.178 571.291,180.484 571.291,180.484C571.291,180.484 671.263,201.682 686.173,204.844C686.663,204.948 687.093,205.243 687.366,205.663C687.639,206.084 687.734,206.596 687.629,207.086C682.67,230.357 632.594,465.326 632.594,465.326L857.489,515.129C857.489,515.129 960.022,31.903 966.473,1.498C966.658,0.624 967.429,0 968.322,0C1011.5,0 1954.29,0 2048.44,0C2050.44,0 2052.37,0.796 2053.78,2.214C2055.2,3.632 2056,5.554 2056,7.559C2056,27.644 2056,81.543 2056,92.317C2056,93.361 2055.15,94.207 2054.11,94.207C2039.97,94.207 1951.32,94.207 1951.32,94.207L1951.32,328.125L2054.11,328.125C2055.15,328.125 2056,328.971 2056,330.015C2056,379.732 2056,1394.63 2056,1492.44C2056,1496.62 2052.61,1500 2048.44,1500C2012.94,1500 1863,1500 1826.34,1500C1820.95,1500 1815.57,1499.42 1810.31,1498.28C1755.26,1486.33 1430.55,1415.84 1375.51,1403.89C1370.24,1402.75 1364.86,1402.17 1359.47,1402.17C1255.08,1402.17 175.496,1402.17 18.898,1402.17C13.886,1402.17 9.079,1400.18 5.535,1396.63C1.991,1393.09 0,1388.28 0,1383.27C0,1243.62 0,375.909 0,330.015C0,329.514 0.199,329.033 0.554,328.678C0.908,328.324 1.389,328.125 1.89,328.125C20.537,328.125 170.901,328.125 170.901,328.125L170.901,94.889L1.89,94.889C1.389,94.889 0.908,94.69 0.554,94.336C0.199,93.981 0,93.501 0,92.999C0,83.819 0,43.324 0,18.898C0,8.461 8.461,0 18.898,0C117.607,0 570.845,0 607.324,0ZM2008.77,1464.57C2002.24,1464.57 1996.94,1459.28 1996.94,1452.75C1996.94,1446.24 2002.24,1440.94 2008.77,1440.94C2015.27,1440.94 2020.56,1446.24 2020.56,1452.75C2020.56,1459.28 2015.27,1464.57 2008.77,1464.57ZM1094.94,1366.74C1088.41,1366.74 1083.11,1361.45 1083.11,1354.92C1083.11,1348.4 1088.41,1343.11 1094.94,1343.11C1101.43,1343.11 1106.73,1348.4 1106.73,1354.92C1106.73,1361.45 1101.43,1366.74 1094.94,1366.74ZM47.265,1366.74C40.73,1366.74 35.433,1361.45 35.433,1354.92C35.433,1348.4 40.73,1343.11 47.265,1343.11C53.758,1343.11 59.055,1348.4 59.055,1354.92C59.055,1361.45 53.758,1366.74 47.265,1366.74ZM2008.77,755.214C2002.24,755.214 1996.94,749.931 1996.94,743.401C1996.94,736.883 2002.24,731.592 2008.77,731.592C2015.27,731.592 2020.56,736.883 2020.56,743.401C2020.56,749.931 2015.27,755.214 2008.77,755.214ZM47.265,617.372C40.73,617.372 35.433,612.089 35.433,605.559C35.433,599.041 40.73,593.75 47.265,593.75C53.758,593.75 59.055,599.041 59.055,605.559C59.055,612.089 53.758,617.372 47.265,617.372ZM2008.77,59.055C2002.24,59.055 1996.94,53.772 1996.94,47.242C1996.94,40.724 2002.24,35.433 2008.77,35.433C2015.27,35.433 2020.56,40.724 2020.56,47.242C2020.56,53.772 2015.27,59.055 2008.77,59.055ZM1049.35,59.055C1042.81,59.055 1037.51,53.772 1037.51,47.242C1037.51,40.724 1042.81,35.433 1049.35,35.433C1055.84,35.433 1061.14,40.724 1061.14,47.242C1061.14,53.772 1055.84,59.055 1049.35,59.055ZM47.265,59.055C40.73,59.055 35.433,53.772 35.433,47.242C35.433,40.724 40.73,35.433 47.265,35.433C53.758,35.433 59.055,40.724 59.055,47.242C59.055,53.772 53.758,59.055 47.265,59.055ZM552.028,59.055C545.493,59.055 540.196,53.772 540.196,47.242C540.196,40.724 545.493,35.433 552.028,35.433C558.521,35.433 563.818,40.724 563.818,47.242C563.818,53.772 558.521,59.055 552.028,59.055Z" style="fill:rgb(147,37,0);fill-opacity:0.21;stroke:rgb(0,126,66);stroke-width:0.76px;"/>
            </g>
        </g>
    </g>
</svg>
