<?xml version="1.0" encoding="UTF-8" standalone="no"?>
<!DOCTYPE svg PUBLIC "-//W3C//DTD SVG 1.1//EN" "http://www.w3.org/Graphics/SVG/1.1/DTD/svg11.dtd">
<svg width="100%" height="100%" viewBox="0 0 1123 794" version="1.1" xmlns="http://www.w3.org/2000/svg" xmlns:xlink="http://www.w3.org/1999/xlink" xml:space="preserve" xmlns:serif="http://www.serif.com/" style="fill-rule:evenodd;clip-rule:evenodd;stroke-linecap:round;stroke-linejoin:round;stroke-miterlimit:1.5;">
    <g transform="matrix(0.32,0,0,0.32,0,0)">
        <g id="Split-Left-v02" serif:id="Split Left v02">
            <g id="Split-Left-Keyplate" serif:id="Split Left Keyplate">
                <path id="Split-Left-Keyplate1" serif:id="Split Left Keyplate" d="M1955.72,807.613C1955.45,807.193 1955.35,806.681 1955.46,806.191C1958.65,791.164 2007.83,559.821 2012.25,538.997C2012.44,538.124 2013.21,537.5 2014.1,537.5C2020.71,537.5 2046.83,537.5 2054.11,537.5C2055.15,537.5 2056,536.654 2056,535.61C2056,511.194 2056,258.019 2056,235.914C2056,235.018 2055.37,234.245 2054.49,234.063C2019.99,226.928 1404.67,99.663 1392.29,97.103C1392.16,97.077 1392.03,97.064 1391.9,97.064C1383.34,97.064 1093.21,97.064 1084.53,97.064C1084.4,97.064 1084.27,97.05 1084.14,97.022C1078.9,95.909 969.398,72.633 956.882,69.973C956.172,69.822 955.438,70.091 954.994,70.666C951.69,74.942 938.117,92.511 935.167,96.329C934.809,96.792 934.257,97.064 933.671,97.064C905.216,97.064 231.65,97.064 191.291,97.064C190.79,97.064 190.309,97.263 189.955,97.617C189.6,97.971 189.401,98.452 189.401,98.953C189.401,119.593 189.401,302.532 189.401,312.033C189.401,312.286 189.452,312.537 189.551,312.77C191.407,317.151 209.928,360.88 211.787,365.27C211.887,365.504 211.938,365.756 211.937,366.01C211.922,375.541 211.625,558.765 211.614,565.609C211.614,565.74 211.6,565.87 211.573,565.998C209.356,576.447 117.589,1009 115.364,1019.49C115.336,1019.62 115.322,1019.75 115.322,1019.88C115.322,1028.14 115.322,1291.61 115.322,1313.84C115.322,1314.71 115.922,1315.47 116.772,1315.68C127.442,1318.23 193.524,1334.06 197.798,1335.09C197.942,1335.12 198.09,1335.14 198.238,1335.14C211.627,1335.14 822.97,1335.14 833.171,1335.14C833.257,1335.14 833.343,1335.13 833.428,1335.12C837.314,1334.59 928.491,1322.07 932.377,1321.54C932.463,1321.52 932.548,1321.52 932.634,1321.52C939.909,1321.52 1252.23,1321.52 1261.26,1321.52C1261.39,1321.52 1261.52,1321.53 1261.65,1321.56C1272.9,1323.96 1766.84,1429.43 1777.79,1431.77C1777.92,1431.8 1778.04,1431.81 1778.17,1431.81C1782.92,1431.87 1875.8,1432.86 1885.75,1432.97C1886.3,1432.97 1886.82,1432.74 1887.18,1432.33C1895.47,1423.01 1991.14,1315.33 1998.73,1306.79C1999.03,1306.44 1999.2,1305.99 1999.2,1305.53C1999.2,1286.42 1999.2,892.015 1999.2,875.105C1999.2,874.739 1999.1,874.382 1998.9,874.075C1995.25,868.458 1960.01,814.213 1955.72,807.613ZM1484.34,1166.19L1449.03,1158.69L1414.65,1320.44L1415.08,1320.53L1525.56,1344.09L1525.56,1344.09L1531.93,1345.44L1796.92,1401.95L1831.3,1240.2L1831.25,1240.19L1831.31,1239.94L1797.31,1232.72C1797.31,1232.72 1799.67,1221.59 1799.67,1221.59L1761.55,1213.49L1759.18,1224.61L1522.46,1174.3L1524.83,1163.17L1486.7,1155.07L1484.34,1166.19ZM1363.61,1140.53L1201.87,1106.15L1167.49,1267.9L1329.23,1302.28L1363.61,1140.53ZM677.021,1133.46L677.021,1119.52L638.045,1119.52L638.045,1133.46L396.037,1133.46L396.037,1119.52L357.06,1119.52L357.06,1133.46L237.52,1133.46L237.52,1298.85L265.684,1298.85L265.684,1299.27L740.42,1299.27L740.42,1133.46L677.021,1133.46ZM1088.51,1082.06L926.762,1047.68L892.382,1209.42L1054.13,1243.8L1088.51,1082.06ZM1123.25,1170.41C1129.62,1171.76 1133.7,1178.04 1132.35,1184.41C1130.99,1190.79 1124.71,1194.87 1118.34,1193.51C1111.96,1192.16 1107.88,1185.88 1109.24,1179.5C1110.6,1173.13 1116.87,1169.05 1123.25,1170.41ZM1878.08,1019.86L1716.34,985.481L1681.96,1147.23L1843.7,1181.61L1878.08,1019.86ZM1658,973.081L1496.25,938.701L1461.87,1100.45L1623.62,1134.83L1658,973.081ZM1921.15,1121.45C1914.61,1121.45 1909.32,1116.17 1909.32,1109.64C1909.32,1103.12 1914.61,1097.83 1921.15,1097.83C1927.64,1097.83 1932.94,1103.12 1932.94,1109.64C1932.94,1116.17 1927.64,1121.45 1921.15,1121.45ZM167.085,1080.05C160.549,1080.05 155.252,1074.76 155.252,1068.23C155.252,1061.71 160.549,1056.42 167.085,1056.42C173.578,1056.42 178.875,1061.71 178.875,1068.23C178.875,1074.76 173.578,1080.05 167.085,1080.05ZM1443.76,898.806L1282.02,864.425L1247.63,1026.17L1409.38,1060.55L1443.76,898.806ZM754.264,896.073L592.518,861.693L558.138,1023.44L719.884,1057.82L754.264,896.073ZM439.972,886.775L278.226,852.395L243.845,1014.14L405.592,1048.52L439.972,886.775ZM1955.63,994.695L1926.89,988.587L1919.53,1023.25L1948.26,1029.35L1955.63,994.695ZM1229.53,824.501L1067.78,790.12L1033.4,951.867L1195.15,986.247L1229.53,824.501ZM1003.6,805.246L841.85,770.865L807.469,932.612L969.216,966.992L1003.6,805.246ZM1924.86,799.779L1763.12,765.398L1728.74,927.145L1890.48,961.525L1924.86,799.779ZM1976.82,895.005L1948.08,888.897L1940.72,923.556L1969.45,929.664L1976.82,895.005ZM1704.78,752.999L1543.03,718.618L1508.65,880.365L1670.4,914.745L1704.78,752.999ZM1708.31,885.317C1714.68,886.672 1718.76,892.949 1717.4,899.325C1716.05,905.701 1709.77,909.778 1703.39,908.423C1697.02,907.067 1692.94,900.79 1694.3,894.414C1695.65,888.038 1701.93,883.961 1708.31,885.317ZM1490.54,678.723L1328.8,644.343L1294.41,806.089L1456.16,840.469L1490.54,678.723ZM801.044,675.991L639.298,641.61L604.918,803.357L766.664,837.737L801.044,675.991ZM486.721,666.686L325.049,632.321L290.669,794.067L452.341,828.432L486.721,666.686ZM1276.31,604.418L1114.56,570.038L1080.18,731.784L1241.93,766.164L1276.31,604.418ZM512.168,733.815C518.544,735.17 522.62,741.447 521.265,747.823C519.91,754.2 513.633,758.276 507.257,756.921C500.88,755.565 496.804,749.288 498.159,742.912C499.515,736.536 505.792,732.459 512.168,733.815ZM1050.38,585.163L888.63,550.783L854.249,712.529L1016,746.909L1050.38,585.163ZM1971.64,579.696L1809.9,545.316L1775.52,707.062L1937.26,741.442L1971.64,579.696ZM1751.56,532.916L1589.81,498.536L1555.43,660.282L1717.18,694.662L1751.56,532.916ZM1537.32,458.64L1375.58,424.26L1341.19,586.006L1502.94,620.386L1537.32,458.64ZM847.824,455.908L686.078,421.528L651.698,583.274L813.444,617.654L847.824,455.908ZM561.026,452.454L399.28,418.073L364.9,579.82L526.646,614.2L561.026,452.454ZM1323.09,384.335L1161.34,349.955L1126.96,511.701L1288.71,546.081L1323.09,384.335ZM1097.16,365.08L935.41,330.7L901.029,492.446L1062.78,526.826L1097.16,365.08ZM2018.42,359.613L1856.68,325.233L1822.3,486.979L1984.04,521.359L2018.42,359.613ZM1798.34,312.833L1636.59,278.453L1602.21,440.199L1763.96,474.579L1798.34,312.833ZM662.827,244.066L501.081,209.686L466.701,371.432L628.447,405.812L662.827,244.066ZM1584.1,238.558L1422.36,204.177L1387.98,365.924L1549.72,400.304L1584.1,238.558ZM894.604,235.825L732.858,201.445L698.478,363.191L860.224,397.571L894.604,235.825ZM442.744,197.286L280.998,162.906L246.618,324.652L408.364,359.032L442.744,197.286ZM1369.87,164.253L1208.12,129.872L1173.74,291.619L1335.49,325.999L1369.87,164.253ZM1143.94,144.998L982.19,110.617L947.81,272.364L1109.56,306.744L1143.94,144.998ZM1158.15,227.048C1164.52,228.403 1168.6,234.68 1167.24,241.056C1165.89,247.433 1159.61,251.509 1153.24,250.154C1146.86,248.798 1142.78,242.521 1144.14,236.145C1145.49,229.769 1151.77,225.692 1158.15,227.048ZM1661.66,223.513C1655.12,223.513 1649.82,218.23 1649.82,211.7C1649.82,205.182 1655.12,199.891 1661.66,199.891C1668.15,199.891 1673.45,205.182 1673.45,211.7C1673.45,218.23 1668.15,223.513 1661.66,223.513ZM455.259,138.147C448.724,138.147 443.427,132.865 443.427,126.334C443.427,119.816 448.724,114.525 455.259,114.525C461.752,114.525 467.049,119.816 467.049,126.334C467.049,132.865 461.752,138.147 455.259,138.147Z" style="fill:rgb(60,226,255);fill-opacity:0.24;stroke:rgb(13,151,242);stroke-width:0.94px;"/>
            </g>
        </g>
    </g>
</svg>
