<?xml version="1.0" encoding="UTF-8" standalone="no"?>
<!DOCTYPE svg PUBLIC "-//W3C//DTD SVG 1.1//EN" "http://www.w3.org/Graphics/SVG/1.1/DTD/svg11.dtd">
<svg width="100%" height="100%" viewBox="0 0 1123 794" version="1.1" xmlns="http://www.w3.org/2000/svg" xmlns:xlink="http://www.w3.org/1999/xlink" xml:space="preserve" xmlns:serif="http://www.serif.com/" style="fill-rule:evenodd;clip-rule:evenodd;stroke-linecap:square;stroke-linejoin:round;stroke-miterlimit:1.5;">
    <g transform="matrix(0.32,0,0,0.32,0,0)">
        <g id="Split-Left-v02" serif:id="Split Left v02">
            <g id="Split-Mid" serif:id="Split Mid">
                <g>
                    <path d="M0,350.421C0,349.92 0.199,349.439 0.554,349.085C0.908,348.73 1.389,348.531 1.89,348.531L33.565,348.531C34.066,348.531 34.547,348.73 34.901,349.085C35.255,349.439 35.454,349.92 35.454,350.421C35.454,372.293 35.454,576.67 35.454,576.67L77.54,576.67L77.54,606.561L48.711,737.5L48.711,1314.34L280.253,1363.76L1040.59,1363.76L1070.07,1325L1229.08,1325L1883.22,1459.57L1900.35,1459.57L2003.38,1343.75L2003.38,806.567L1970.17,757.319C1970.17,757.319 2009.71,570.188 2013.66,551.499C2013.84,550.625 2014.61,550 2015.51,550C2021.97,550 2047,550 2054.11,550C2055.15,550 2056,550.846 2056,551.89L2056,1492.44C2056,1494.45 2055.2,1496.37 2053.78,1497.79C2052.37,1499.2 2050.44,1500 2048.44,1500C2012.94,1500 1863,1500 1826.34,1500C1820.95,1500 1815.57,1499.42 1810.31,1498.28C1755.26,1486.33 1430.55,1415.84 1375.51,1403.89C1370.24,1402.75 1364.86,1402.17 1359.47,1402.17C1255.08,1402.17 175.496,1402.17 18.898,1402.17C13.886,1402.17 9.079,1400.18 5.535,1396.63C1.991,1393.09 0,1388.28 0,1383.27C0,1245.19 0,395.818 0,350.421ZM2008.79,1471.65C1998.33,1471.65 1989.86,1463.2 1989.86,1452.75C1989.86,1442.32 1998.33,1433.86 2008.79,1433.86C2019.17,1433.86 2027.65,1442.32 2027.65,1452.75C2027.65,1463.2 2019.17,1471.65 2008.79,1471.65ZM1094.95,1373.82C1084.5,1373.82 1076.02,1365.37 1076.02,1354.92C1076.02,1344.49 1084.5,1336.03 1094.95,1336.03C1105.34,1336.03 1113.82,1344.49 1113.82,1354.92C1113.82,1365.37 1105.34,1373.82 1094.95,1373.82ZM47.278,1373.82C36.821,1373.82 28.346,1365.37 28.346,1354.92C28.346,1344.49 36.821,1336.03 47.278,1336.03C57.667,1336.03 66.142,1344.49 66.142,1354.92C66.142,1365.37 57.667,1373.82 47.278,1373.82ZM2008.79,762.301C1998.33,762.301 1989.86,753.848 1989.86,743.399C1989.86,732.971 1998.33,724.505 2008.79,724.505C2019.17,724.505 2027.65,732.971 2027.65,743.399C2027.65,753.848 2019.17,762.301 2008.79,762.301ZM47.278,624.459C36.821,624.459 28.346,616.006 28.346,605.558C28.346,595.129 36.821,586.663 47.278,586.663C57.667,586.663 66.142,595.129 66.142,605.558C66.142,616.006 57.667,624.459 47.278,624.459ZM1.89,93.041C0.846,93.041 0,92.195 0,91.151C0,82.125 0,42.852 0,18.898C0,8.461 8.461,0 18.898,0C117.61,0 570.875,0 607.362,0C607.932,0 608.472,0.258 608.831,0.701C609.19,1.144 609.329,1.726 609.21,2.283C606.42,15.385 592.488,80.796 590.198,91.545C590.013,92.417 589.242,93.041 588.35,93.041C556.489,93.041 37.221,93.041 1.89,93.041ZM966.556,1.495C966.743,0.623 967.513,0 968.405,0C1011.55,0 1954.29,0 2048.44,0C2052.61,0 2056,3.384 2056,7.559C2056,27.119 2056,78.6 2056,89.111C2056,89.612 2055.8,90.093 2055.44,90.447C2055.09,90.802 2054.61,91.001 2054.11,91.001C2039.15,90.998 1940.53,90.982 1940.53,90.982L1919.54,70.682L1172.66,70.682L1132.04,93.041L1076.39,93.041C1076.39,93.041 970.094,68.849 954.825,65.374C953.817,65.145 953.181,64.148 953.397,63.137C955.42,53.661 964.711,10.14 966.556,1.495ZM47.278,66.142C36.821,66.142 28.346,57.689 28.346,47.241C28.346,36.812 36.821,28.346 47.278,28.346C57.667,28.346 66.142,36.812 66.142,47.241C66.142,57.689 57.667,66.142 47.278,66.142ZM1049.36,66.142C1038.9,66.142 1030.43,57.689 1030.43,47.241C1030.43,36.812 1038.9,28.346 1049.36,28.346C1059.75,28.346 1068.22,36.812 1068.22,47.241C1068.22,57.689 1059.75,66.142 1049.36,66.142ZM2008.79,66.142C1998.33,66.142 1989.86,57.689 1989.86,47.241C1989.86,36.812 1998.33,28.346 2008.79,28.346C2019.17,28.346 2027.65,36.812 2027.65,47.241C2027.65,57.689 2019.17,66.142 2008.79,66.142ZM552.041,66.142C541.584,66.142 533.109,57.689 533.109,47.241C533.109,36.812 541.584,28.346 552.041,28.346C562.43,28.346 570.905,36.812 570.905,47.241C570.905,57.689 562.43,66.142 552.041,66.142Z" style="fill:rgb(255,255,160);fill-opacity:0.5;stroke:rgb(255,149,0);stroke-width:0.94px;"/>
                </g>
            </g>
        </g>
    </g>
</svg>
