G04 #@! TF.GenerationSoftware,KiCad,Pcbnew,(5.1.5-0-10_14)*
G04 #@! TF.CreationDate,2020-02-21T06:53:06+09:00*
G04 #@! TF.ProjectId,ColiceKeyPlate,436f6c69-6365-44b6-9579-506c6174652e,rev?*
G04 #@! TF.SameCoordinates,Original*
G04 #@! TF.FileFunction,Soldermask,Top*
G04 #@! TF.FilePolarity,Negative*
%FSLAX46Y46*%
G04 Gerber Fmt 4.6, Leading zero omitted, Abs format (unit mm)*
G04 Created by KiCad (PCBNEW (5.1.5-0-10_14)) date 2020-02-21 06:53:06*
%MOMM*%
%LPD*%
G04 APERTURE LIST*
%ADD10C,0.100000*%
G04 APERTURE END LIST*
D10*
G36*
X433675549Y-138634616D02*
G01*
X433786734Y-138656732D01*
X433996203Y-138743497D01*
X434184720Y-138869460D01*
X434345040Y-139029780D01*
X434471003Y-139218297D01*
X434557768Y-139427766D01*
X434602000Y-139650136D01*
X434602000Y-139876864D01*
X434557768Y-140099234D01*
X434471003Y-140308703D01*
X434345040Y-140497220D01*
X434184720Y-140657540D01*
X433996203Y-140783503D01*
X433786734Y-140870268D01*
X433675549Y-140892384D01*
X433564365Y-140914500D01*
X433337635Y-140914500D01*
X433226451Y-140892384D01*
X433115266Y-140870268D01*
X432905797Y-140783503D01*
X432717280Y-140657540D01*
X432556960Y-140497220D01*
X432430997Y-140308703D01*
X432344232Y-140099234D01*
X432300000Y-139876864D01*
X432300000Y-139650136D01*
X432344232Y-139427766D01*
X432430997Y-139218297D01*
X432556960Y-139029780D01*
X432717280Y-138869460D01*
X432905797Y-138743497D01*
X433115266Y-138656732D01*
X433226451Y-138634616D01*
X433337635Y-138612500D01*
X433564365Y-138612500D01*
X433675549Y-138634616D01*
G37*
G36*
X312771549Y-138634616D02*
G01*
X312882734Y-138656732D01*
X313092203Y-138743497D01*
X313280720Y-138869460D01*
X313441040Y-139029780D01*
X313567003Y-139218297D01*
X313653768Y-139427766D01*
X313698000Y-139650136D01*
X313698000Y-139876864D01*
X313653768Y-140099234D01*
X313567003Y-140308703D01*
X313441040Y-140497220D01*
X313280720Y-140657540D01*
X313092203Y-140783503D01*
X312882734Y-140870268D01*
X312771549Y-140892384D01*
X312660365Y-140914500D01*
X312433635Y-140914500D01*
X312322451Y-140892384D01*
X312211266Y-140870268D01*
X312001797Y-140783503D01*
X311813280Y-140657540D01*
X311652960Y-140497220D01*
X311526997Y-140308703D01*
X311440232Y-140099234D01*
X311396000Y-139876864D01*
X311396000Y-139650136D01*
X311440232Y-139427766D01*
X311526997Y-139218297D01*
X311652960Y-139029780D01*
X311813280Y-138869460D01*
X312001797Y-138743497D01*
X312211266Y-138656732D01*
X312322451Y-138634616D01*
X312433635Y-138612500D01*
X312660365Y-138612500D01*
X312771549Y-138634616D01*
G37*
G36*
X223427049Y-138634616D02*
G01*
X223538234Y-138656732D01*
X223747703Y-138743497D01*
X223936220Y-138869460D01*
X224096540Y-139029780D01*
X224222503Y-139218297D01*
X224309268Y-139427766D01*
X224353500Y-139650136D01*
X224353500Y-139876864D01*
X224309268Y-140099234D01*
X224222503Y-140308703D01*
X224096540Y-140497220D01*
X223936220Y-140657540D01*
X223747703Y-140783503D01*
X223538234Y-140870268D01*
X223427049Y-140892384D01*
X223315865Y-140914500D01*
X223089135Y-140914500D01*
X222977951Y-140892384D01*
X222866766Y-140870268D01*
X222657297Y-140783503D01*
X222468780Y-140657540D01*
X222308460Y-140497220D01*
X222182497Y-140308703D01*
X222095732Y-140099234D01*
X222051500Y-139876864D01*
X222051500Y-139650136D01*
X222095732Y-139427766D01*
X222182497Y-139218297D01*
X222308460Y-139029780D01*
X222468780Y-138869460D01*
X222657297Y-138743497D01*
X222866766Y-138656732D01*
X222977951Y-138634616D01*
X223089135Y-138612500D01*
X223315865Y-138612500D01*
X223427049Y-138634616D01*
G37*
G36*
X124811549Y-138634616D02*
G01*
X124922734Y-138656732D01*
X125132203Y-138743497D01*
X125320720Y-138869460D01*
X125481040Y-139029780D01*
X125607003Y-139218297D01*
X125693768Y-139427766D01*
X125738000Y-139650136D01*
X125738000Y-139876864D01*
X125693768Y-140099234D01*
X125607003Y-140308703D01*
X125481040Y-140497220D01*
X125320720Y-140657540D01*
X125132203Y-140783503D01*
X124922734Y-140870268D01*
X124811549Y-140892384D01*
X124700365Y-140914500D01*
X124473635Y-140914500D01*
X124362451Y-140892384D01*
X124251266Y-140870268D01*
X124041797Y-140783503D01*
X123853280Y-140657540D01*
X123692960Y-140497220D01*
X123566997Y-140308703D01*
X123480232Y-140099234D01*
X123436000Y-139876864D01*
X123436000Y-139650136D01*
X123480232Y-139427766D01*
X123566997Y-139218297D01*
X123692960Y-139029780D01*
X123853280Y-138869460D01*
X124041797Y-138743497D01*
X124251266Y-138656732D01*
X124362451Y-138634616D01*
X124473635Y-138612500D01*
X124700365Y-138612500D01*
X124811549Y-138634616D01*
G37*
G36*
X32609549Y-138634616D02*
G01*
X32720734Y-138656732D01*
X32930203Y-138743497D01*
X33118720Y-138869460D01*
X33279040Y-139029780D01*
X33405003Y-139218297D01*
X33491768Y-139427766D01*
X33536000Y-139650136D01*
X33536000Y-139876864D01*
X33491768Y-140099234D01*
X33405003Y-140308703D01*
X33279040Y-140497220D01*
X33118720Y-140657540D01*
X32930203Y-140783503D01*
X32720734Y-140870268D01*
X32609549Y-140892384D01*
X32498365Y-140914500D01*
X32271635Y-140914500D01*
X32160451Y-140892384D01*
X32049266Y-140870268D01*
X31839797Y-140783503D01*
X31651280Y-140657540D01*
X31490960Y-140497220D01*
X31364997Y-140308703D01*
X31278232Y-140099234D01*
X31234000Y-139876864D01*
X31234000Y-139650136D01*
X31278232Y-139427766D01*
X31364997Y-139218297D01*
X31490960Y-139029780D01*
X31651280Y-138869460D01*
X31839797Y-138743497D01*
X32049266Y-138656732D01*
X32160451Y-138634616D01*
X32271635Y-138612500D01*
X32498365Y-138612500D01*
X32609549Y-138634616D01*
G37*
G36*
X425450000Y-134620000D02*
G01*
X322580000Y-134620000D01*
X322580000Y-133985000D01*
X425450000Y-133985000D01*
X425450000Y-134620000D01*
G37*
G36*
X433693003Y-21418130D02*
G01*
X433804188Y-21440246D01*
X433952304Y-21501598D01*
X434013624Y-21526997D01*
X434013657Y-21527011D01*
X434202174Y-21652974D01*
X434362494Y-21813294D01*
X434488457Y-22001811D01*
X434575222Y-22211280D01*
X434619454Y-22433650D01*
X434619454Y-22660378D01*
X434575222Y-22882748D01*
X434488457Y-23092217D01*
X434362494Y-23280734D01*
X434202174Y-23441054D01*
X434013657Y-23567017D01*
X433804188Y-23653782D01*
X433693003Y-23675898D01*
X433581819Y-23698014D01*
X433355089Y-23698014D01*
X433243905Y-23675898D01*
X433132720Y-23653782D01*
X432923251Y-23567017D01*
X432734734Y-23441054D01*
X432574414Y-23280734D01*
X432448451Y-23092217D01*
X432361686Y-22882748D01*
X432317454Y-22660378D01*
X432317454Y-22433650D01*
X432361686Y-22211280D01*
X432448451Y-22001811D01*
X432574414Y-21813294D01*
X432734734Y-21652974D01*
X432923251Y-21527011D01*
X432923285Y-21526997D01*
X432984604Y-21501598D01*
X433132720Y-21440246D01*
X433243905Y-21418130D01*
X433355089Y-21396014D01*
X433581819Y-21396014D01*
X433693003Y-21418130D01*
G37*
G36*
X307628049Y-21418130D02*
G01*
X307739234Y-21440246D01*
X307887350Y-21501598D01*
X307948670Y-21526997D01*
X307948703Y-21527011D01*
X308137220Y-21652974D01*
X308297540Y-21813294D01*
X308423503Y-22001811D01*
X308510268Y-22211280D01*
X308554500Y-22433650D01*
X308554500Y-22660378D01*
X308510268Y-22882748D01*
X308423503Y-23092217D01*
X308297540Y-23280734D01*
X308137220Y-23441054D01*
X307948703Y-23567017D01*
X307739234Y-23653782D01*
X307628049Y-23675898D01*
X307516865Y-23698014D01*
X307290135Y-23698014D01*
X307178951Y-23675898D01*
X307067766Y-23653782D01*
X306858297Y-23567017D01*
X306669780Y-23441054D01*
X306509460Y-23280734D01*
X306383497Y-23092217D01*
X306296732Y-22882748D01*
X306252500Y-22660378D01*
X306252500Y-22433650D01*
X306296732Y-22211280D01*
X306383497Y-22001811D01*
X306509460Y-21813294D01*
X306669780Y-21652974D01*
X306858297Y-21527011D01*
X306858331Y-21526997D01*
X306919650Y-21501598D01*
X307067766Y-21440246D01*
X307178951Y-21418130D01*
X307290135Y-21396014D01*
X307516865Y-21396014D01*
X307628049Y-21418130D01*
G37*
G36*
X224206503Y-21418130D02*
G01*
X224317688Y-21440246D01*
X224465804Y-21501598D01*
X224527124Y-21526997D01*
X224527157Y-21527011D01*
X224715674Y-21652974D01*
X224875994Y-21813294D01*
X225001957Y-22001811D01*
X225088722Y-22211280D01*
X225132954Y-22433650D01*
X225132954Y-22660378D01*
X225088722Y-22882748D01*
X225001957Y-23092217D01*
X224875994Y-23280734D01*
X224715674Y-23441054D01*
X224527157Y-23567017D01*
X224317688Y-23653782D01*
X224206503Y-23675898D01*
X224095319Y-23698014D01*
X223868589Y-23698014D01*
X223757405Y-23675898D01*
X223646220Y-23653782D01*
X223436751Y-23567017D01*
X223248234Y-23441054D01*
X223087914Y-23280734D01*
X222961951Y-23092217D01*
X222875186Y-22882748D01*
X222830954Y-22660378D01*
X222830954Y-22433650D01*
X222875186Y-22211280D01*
X222961951Y-22001811D01*
X223087914Y-21813294D01*
X223248234Y-21652974D01*
X223436751Y-21527011D01*
X223436785Y-21526997D01*
X223498104Y-21501598D01*
X223646220Y-21440246D01*
X223757405Y-21418130D01*
X223868589Y-21396014D01*
X224095319Y-21396014D01*
X224206503Y-21418130D01*
G37*
G36*
X126099003Y-21418116D02*
G01*
X126210188Y-21440232D01*
X126419657Y-21526997D01*
X126608174Y-21652960D01*
X126768494Y-21813280D01*
X126894457Y-22001797D01*
X126981222Y-22211266D01*
X127025454Y-22433636D01*
X127025454Y-22660364D01*
X126981222Y-22882734D01*
X126894457Y-23092203D01*
X126768494Y-23280720D01*
X126608174Y-23441040D01*
X126419657Y-23567003D01*
X126419656Y-23567004D01*
X126419655Y-23567004D01*
X126419621Y-23567018D01*
X126210188Y-23653768D01*
X126099003Y-23675884D01*
X125987819Y-23698000D01*
X125761089Y-23698000D01*
X125649905Y-23675884D01*
X125538720Y-23653768D01*
X125329287Y-23567018D01*
X125329253Y-23567004D01*
X125329252Y-23567004D01*
X125329251Y-23567003D01*
X125140734Y-23441040D01*
X124980414Y-23280720D01*
X124854451Y-23092203D01*
X124767686Y-22882734D01*
X124723454Y-22660364D01*
X124723454Y-22433636D01*
X124767686Y-22211266D01*
X124854451Y-22001797D01*
X124980414Y-21813280D01*
X125140734Y-21652960D01*
X125329251Y-21526997D01*
X125538720Y-21440232D01*
X125649905Y-21418116D01*
X125761089Y-21396000D01*
X125987819Y-21396000D01*
X126099003Y-21418116D01*
G37*
G36*
X32627003Y-21418116D02*
G01*
X32738188Y-21440232D01*
X32947657Y-21526997D01*
X33136174Y-21652960D01*
X33296494Y-21813280D01*
X33422457Y-22001797D01*
X33509222Y-22211266D01*
X33553454Y-22433636D01*
X33553454Y-22660364D01*
X33509222Y-22882734D01*
X33422457Y-23092203D01*
X33296494Y-23280720D01*
X33136174Y-23441040D01*
X32947657Y-23567003D01*
X32947656Y-23567004D01*
X32947655Y-23567004D01*
X32947621Y-23567018D01*
X32738188Y-23653768D01*
X32627003Y-23675884D01*
X32515819Y-23698000D01*
X32289089Y-23698000D01*
X32177905Y-23675884D01*
X32066720Y-23653768D01*
X31857287Y-23567018D01*
X31857253Y-23567004D01*
X31857252Y-23567004D01*
X31857251Y-23567003D01*
X31668734Y-23441040D01*
X31508414Y-23280720D01*
X31382451Y-23092203D01*
X31295686Y-22882734D01*
X31251454Y-22660364D01*
X31251454Y-22433636D01*
X31295686Y-22211266D01*
X31382451Y-22001797D01*
X31508414Y-21813280D01*
X31668734Y-21652960D01*
X31857251Y-21526997D01*
X32066720Y-21440232D01*
X32177905Y-21418116D01*
X32289089Y-21396000D01*
X32515819Y-21396000D01*
X32627003Y-21418116D01*
G37*
M02*
