G04 #@! TF.GenerationSoftware,KiCad,Pcbnew,(5.1.5-0-10_14)*
G04 #@! TF.CreationDate,2020-02-21T06:53:06+09:00*
G04 #@! TF.ProjectId,ColiceKeyPlate,436f6c69-6365-44b6-9579-506c6174652e,rev?*
G04 #@! TF.SameCoordinates,Original*
G04 #@! TF.FileFunction,Legend,Top*
G04 #@! TF.FilePolarity,Positive*
%FSLAX46Y46*%
G04 Gerber Fmt 4.6, Leading zero omitted, Abs format (unit mm)*
G04 Created by KiCad (PCBNEW (5.1.5-0-10_14)) date 2020-02-21 06:53:06*
%MOMM*%
%LPD*%
G04 APERTURE LIST*
%ADD10C,0.300000*%
G04 APERTURE END LIST*
D10*
X414492857Y-139600714D02*
X414421428Y-139672142D01*
X414207142Y-139743571D01*
X414064285Y-139743571D01*
X413850000Y-139672142D01*
X413707142Y-139529285D01*
X413635714Y-139386428D01*
X413564285Y-139100714D01*
X413564285Y-138886428D01*
X413635714Y-138600714D01*
X413707142Y-138457857D01*
X413850000Y-138315000D01*
X414064285Y-138243571D01*
X414207142Y-138243571D01*
X414421428Y-138315000D01*
X414492857Y-138386428D01*
X415350000Y-139743571D02*
X415207142Y-139672142D01*
X415135714Y-139600714D01*
X415064285Y-139457857D01*
X415064285Y-139029285D01*
X415135714Y-138886428D01*
X415207142Y-138815000D01*
X415350000Y-138743571D01*
X415564285Y-138743571D01*
X415707142Y-138815000D01*
X415778571Y-138886428D01*
X415850000Y-139029285D01*
X415850000Y-139457857D01*
X415778571Y-139600714D01*
X415707142Y-139672142D01*
X415564285Y-139743571D01*
X415350000Y-139743571D01*
X416707142Y-139743571D02*
X416564285Y-139672142D01*
X416492857Y-139529285D01*
X416492857Y-138243571D01*
X417278571Y-139743571D02*
X417278571Y-138743571D01*
X417278571Y-138243571D02*
X417207142Y-138315000D01*
X417278571Y-138386428D01*
X417350000Y-138315000D01*
X417278571Y-138243571D01*
X417278571Y-138386428D01*
X418635714Y-139672142D02*
X418492857Y-139743571D01*
X418207142Y-139743571D01*
X418064285Y-139672142D01*
X417992857Y-139600714D01*
X417921428Y-139457857D01*
X417921428Y-139029285D01*
X417992857Y-138886428D01*
X418064285Y-138815000D01*
X418207142Y-138743571D01*
X418492857Y-138743571D01*
X418635714Y-138815000D01*
X419850000Y-139672142D02*
X419707142Y-139743571D01*
X419421428Y-139743571D01*
X419278571Y-139672142D01*
X419207142Y-139529285D01*
X419207142Y-138957857D01*
X419278571Y-138815000D01*
X419421428Y-138743571D01*
X419707142Y-138743571D01*
X419850000Y-138815000D01*
X419921428Y-138957857D01*
X419921428Y-139100714D01*
X419207142Y-139243571D01*
X421992857Y-138243571D02*
X422135714Y-138243571D01*
X422278571Y-138315000D01*
X422350000Y-138386428D01*
X422421428Y-138529285D01*
X422492857Y-138815000D01*
X422492857Y-139172142D01*
X422421428Y-139457857D01*
X422350000Y-139600714D01*
X422278571Y-139672142D01*
X422135714Y-139743571D01*
X421992857Y-139743571D01*
X421850000Y-139672142D01*
X421778571Y-139600714D01*
X421707142Y-139457857D01*
X421635714Y-139172142D01*
X421635714Y-138815000D01*
X421707142Y-138529285D01*
X421778571Y-138386428D01*
X421850000Y-138315000D01*
X421992857Y-138243571D01*
X423135714Y-139600714D02*
X423207142Y-139672142D01*
X423135714Y-139743571D01*
X423064285Y-139672142D01*
X423135714Y-139600714D01*
X423135714Y-139743571D01*
X424635714Y-139743571D02*
X423778571Y-139743571D01*
X424207142Y-139743571D02*
X424207142Y-138243571D01*
X424064285Y-138457857D01*
X423921428Y-138600714D01*
X423778571Y-138672142D01*
M02*
