G04 #@! TF.GenerationSoftware,KiCad,Pcbnew,(5.1.5-0-10_14)*
G04 #@! TF.CreationDate,2020-02-21T06:53:06+09:00*
G04 #@! TF.ProjectId,ColiceKeyPlate,436f6c69-6365-44b6-9579-506c6174652e,rev?*
G04 #@! TF.SameCoordinates,Original*
G04 #@! TF.FileFunction,Legend,Bot*
G04 #@! TF.FilePolarity,Positive*
%FSLAX46Y46*%
G04 Gerber Fmt 4.6, Leading zero omitted, Abs format (unit mm)*
G04 Created by KiCad (PCBNEW (5.1.5-0-10_14)) date 2020-02-21 06:53:06*
%MOMM*%
%LPD*%
G04 APERTURE LIST*
%ADD10C,0.300000*%
G04 APERTURE END LIST*
D10*
X423707142Y-139600714D02*
X423778571Y-139672142D01*
X423992857Y-139743571D01*
X424135714Y-139743571D01*
X424350000Y-139672142D01*
X424492857Y-139529285D01*
X424564285Y-139386428D01*
X424635714Y-139100714D01*
X424635714Y-138886428D01*
X424564285Y-138600714D01*
X424492857Y-138457857D01*
X424350000Y-138315000D01*
X424135714Y-138243571D01*
X423992857Y-138243571D01*
X423778571Y-138315000D01*
X423707142Y-138386428D01*
X422850000Y-139743571D02*
X422992857Y-139672142D01*
X423064285Y-139600714D01*
X423135714Y-139457857D01*
X423135714Y-139029285D01*
X423064285Y-138886428D01*
X422992857Y-138815000D01*
X422850000Y-138743571D01*
X422635714Y-138743571D01*
X422492857Y-138815000D01*
X422421428Y-138886428D01*
X422350000Y-139029285D01*
X422350000Y-139457857D01*
X422421428Y-139600714D01*
X422492857Y-139672142D01*
X422635714Y-139743571D01*
X422850000Y-139743571D01*
X421492857Y-139743571D02*
X421635714Y-139672142D01*
X421707142Y-139529285D01*
X421707142Y-138243571D01*
X420921428Y-139743571D02*
X420921428Y-138743571D01*
X420921428Y-138243571D02*
X420992857Y-138315000D01*
X420921428Y-138386428D01*
X420850000Y-138315000D01*
X420921428Y-138243571D01*
X420921428Y-138386428D01*
X419564285Y-139672142D02*
X419707142Y-139743571D01*
X419992857Y-139743571D01*
X420135714Y-139672142D01*
X420207142Y-139600714D01*
X420278571Y-139457857D01*
X420278571Y-139029285D01*
X420207142Y-138886428D01*
X420135714Y-138815000D01*
X419992857Y-138743571D01*
X419707142Y-138743571D01*
X419564285Y-138815000D01*
X418350000Y-139672142D02*
X418492857Y-139743571D01*
X418778571Y-139743571D01*
X418921428Y-139672142D01*
X418992857Y-139529285D01*
X418992857Y-138957857D01*
X418921428Y-138815000D01*
X418778571Y-138743571D01*
X418492857Y-138743571D01*
X418350000Y-138815000D01*
X418278571Y-138957857D01*
X418278571Y-139100714D01*
X418992857Y-139243571D01*
X416207142Y-138243571D02*
X416064285Y-138243571D01*
X415921428Y-138315000D01*
X415850000Y-138386428D01*
X415778571Y-138529285D01*
X415707142Y-138815000D01*
X415707142Y-139172142D01*
X415778571Y-139457857D01*
X415850000Y-139600714D01*
X415921428Y-139672142D01*
X416064285Y-139743571D01*
X416207142Y-139743571D01*
X416350000Y-139672142D01*
X416421428Y-139600714D01*
X416492857Y-139457857D01*
X416564285Y-139172142D01*
X416564285Y-138815000D01*
X416492857Y-138529285D01*
X416421428Y-138386428D01*
X416350000Y-138315000D01*
X416207142Y-138243571D01*
X415064285Y-139600714D02*
X414992857Y-139672142D01*
X415064285Y-139743571D01*
X415135714Y-139672142D01*
X415064285Y-139600714D01*
X415064285Y-139743571D01*
X413564285Y-139743571D02*
X414421428Y-139743571D01*
X413992857Y-139743571D02*
X413992857Y-138243571D01*
X414135714Y-138457857D01*
X414278571Y-138600714D01*
X414421428Y-138672142D01*
M02*
