%FSLAX45Y45*%
G04 Gerber Fmt 4.5, Leading zero omitted, Abs format (unit mm)*
G04 Created by KiCad (PCBNEW (5.1.5-0-10_14)) date 2020-04-19 15:18:05*
%MOMM*%
%LPD*%
G04 APERTURE LIST*
%TA.AperFunction,Profile*%
%ADD10C,0.200000*%
%TD*%
%ADD11C,0.200000*%
%ADD12C,0.300000*%
G04 APERTURE END LIST*
D10*
X20056159Y-2619122D02*
X19676928Y-2619122D01*
X20052899Y-2963063D02*
X20056159Y-2619122D01*
X20054646Y-6244261D02*
X20052899Y-2963063D01*
X19820688Y-6244261D02*
X20054646Y-6244261D01*
X19246483Y-8551381D02*
X19820688Y-6244261D01*
X18870193Y-10476584D02*
X18932567Y-10183139D01*
X18932567Y-10183139D02*
X19175874Y-10234855D01*
X19175874Y-10234855D02*
X19113500Y-10528300D01*
X11902684Y-4921096D02*
X11611597Y-6290547D01*
X10533230Y-4630009D02*
X11902684Y-4921096D01*
X8180728Y-6535075D02*
X8471814Y-5165624D01*
X15281711Y-9777766D02*
X16651165Y-10068852D01*
X15386698Y-9283842D02*
X15677785Y-7914390D01*
X16756152Y-9574928D02*
X15386698Y-9283842D01*
X17047239Y-8205477D02*
X16756152Y-9574928D01*
X9741082Y-8356760D02*
X11110536Y-8647846D01*
X9846069Y-7862836D02*
X10137156Y-6493384D01*
X11215523Y-8153922D02*
X9846069Y-7862836D01*
X11506610Y-6784471D02*
X11215523Y-8153922D01*
X10137156Y-6493384D02*
X11506610Y-6784471D01*
X11758959Y-8025852D02*
X12050046Y-6656401D01*
X13128413Y-8316938D02*
X11758959Y-8025852D01*
X9550182Y-6826161D02*
X8180728Y-6535075D01*
X9841268Y-5456710D02*
X9550182Y-6826161D01*
X8471814Y-5165624D02*
X9841268Y-5456710D01*
X7784654Y-8398450D02*
X8075741Y-7028999D01*
X9154108Y-8689537D02*
X7784654Y-8398450D01*
X9445195Y-7320085D02*
X9154108Y-8689537D01*
X8075741Y-7028999D02*
X9445195Y-7320085D01*
X7388580Y-10261825D02*
X7679667Y-8892374D01*
X13419500Y-6947487D02*
X13128413Y-8316938D01*
X12050046Y-6656401D02*
X13419500Y-6947487D01*
X12155027Y-6162503D02*
X12446114Y-4793051D01*
X13524481Y-6453589D02*
X12155027Y-6162503D01*
X16854003Y-11543290D02*
X17145089Y-10173839D01*
X18223457Y-11834376D02*
X16854003Y-11543290D01*
X18514543Y-10464925D02*
X18223457Y-11834376D01*
X17145089Y-10173839D02*
X18514543Y-10464925D01*
X14990624Y-11147217D02*
X15281711Y-9777766D01*
X16360078Y-11438303D02*
X14990624Y-11147217D01*
X16651165Y-10068852D02*
X16360078Y-11438303D01*
X13815568Y-5084138D02*
X13524481Y-6453589D01*
X12446114Y-4793051D02*
X13815568Y-5084138D01*
X10242143Y-5999461D02*
X10533230Y-4630009D01*
X11611597Y-6290547D02*
X10242143Y-5999461D01*
X12789207Y-11195531D02*
X14158660Y-11486617D01*
X10168922Y-12069897D02*
X10460009Y-10700445D01*
X11538376Y-12360983D02*
X10168922Y-12069897D01*
X11829463Y-10991532D02*
X11538376Y-12360983D01*
X10460009Y-10700445D02*
X11829463Y-10991532D01*
X11362885Y-9889227D02*
X11653972Y-8519776D01*
X12732339Y-10180313D02*
X11362885Y-9889227D01*
X13023426Y-8810862D02*
X12732339Y-10180313D01*
X11653972Y-8519776D02*
X13023426Y-8810862D01*
X9449996Y-9726211D02*
X9741082Y-8356760D01*
X10819450Y-10017297D02*
X9449996Y-9726211D01*
X11110536Y-8647846D02*
X10819450Y-10017297D01*
X13467814Y-9148900D02*
X14837268Y-9439986D01*
X12498120Y-12564982D02*
X12789207Y-11195531D01*
X13867574Y-12856069D02*
X12498120Y-12564982D01*
X14158660Y-11486617D02*
X13867574Y-12856069D01*
X16178840Y-5557118D02*
X16469927Y-4187666D01*
X17548294Y-5848204D02*
X16178840Y-5557118D01*
X17839381Y-4478752D02*
X17548294Y-5848204D01*
X5365649Y-1798898D02*
X4793713Y-1798898D01*
X5365649Y-2180974D02*
X5365649Y-1798898D01*
X18510109Y-2180974D02*
X5365649Y-2180974D01*
X18510109Y-1798898D02*
X18510109Y-2180974D01*
X19198033Y-1798898D02*
X18510109Y-1798898D01*
X19198033Y-2180974D02*
X19198033Y-1798898D01*
X19676928Y-2619122D02*
X19198033Y-2180974D01*
X16469927Y-4187666D02*
X17839381Y-4478752D01*
X18042219Y-5953190D02*
X18333305Y-4583739D01*
X19411673Y-6244277D02*
X18042219Y-5953190D01*
X19702759Y-4874825D02*
X19411673Y-6244277D01*
X18333305Y-4583739D02*
X19702759Y-4874825D01*
X5140707Y-12524413D02*
X5140707Y-11120585D01*
X9160192Y-12524413D02*
X5140707Y-12524413D01*
X8758034Y-10552912D02*
X7388580Y-10261825D01*
X9049121Y-9183460D02*
X8758034Y-10552912D01*
X7679667Y-8892374D02*
X9049121Y-9183460D01*
X4960338Y-10232578D02*
X5251425Y-8863127D01*
X6329792Y-10523664D02*
X4960338Y-10232578D01*
X6620879Y-9154213D02*
X6329792Y-10523664D01*
X5251425Y-8863127D02*
X6620879Y-9154213D01*
X5123982Y-8319798D02*
X5415068Y-6950347D01*
X6492814Y-8610752D02*
X5123982Y-8319798D01*
X6783901Y-7241301D02*
X6492814Y-8610752D01*
X5415068Y-6950347D02*
X6783901Y-7241301D01*
X5752486Y-6505828D02*
X6043573Y-5136376D01*
X7121940Y-6796914D02*
X5752486Y-6505828D01*
X7413026Y-5427463D02*
X7121940Y-6796914D01*
X6043573Y-5136376D02*
X7413026Y-5427463D01*
X4751026Y-4345398D02*
X5042112Y-2975946D01*
X6120480Y-4636484D02*
X4751026Y-4345398D01*
X6411566Y-3267033D02*
X6120480Y-4636484D01*
X5042112Y-2975946D02*
X6411566Y-3267033D01*
X6614404Y-4741471D02*
X6905491Y-3372019D01*
X7983858Y-5032557D02*
X6614404Y-4741471D01*
X8274945Y-3663106D02*
X7983858Y-5032557D01*
X6905491Y-3372019D02*
X8274945Y-3663106D01*
X8576801Y-4671700D02*
X8867888Y-3302249D01*
X9160192Y-11120585D02*
X9160192Y-12524413D01*
X5140707Y-11120585D02*
X9160192Y-11120585D01*
X19246483Y-8551381D02*
X19246483Y-8551381D01*
X19663316Y-9170608D02*
X19246483Y-8551381D01*
X18859378Y-13096633D02*
X19663316Y-9170608D01*
X19076282Y-13384021D02*
X18859378Y-13096633D01*
X18929784Y-14073249D02*
X19076282Y-13384021D01*
X17848887Y-14073249D02*
X18929784Y-14073249D01*
X12724620Y-12984058D02*
X17848887Y-14073249D01*
X5350915Y-12982865D02*
X12724620Y-12984058D01*
X5350915Y-13265356D02*
X5350915Y-12982865D01*
X4825187Y-13265585D02*
X5350915Y-13265356D01*
X4825187Y-12983068D02*
X4825187Y-13265585D01*
X4555895Y-12774917D02*
X4825187Y-12983068D01*
X4470312Y-3671041D02*
X4555895Y-12774917D01*
X4793713Y-2180974D02*
X4470312Y-3671041D01*
X4793713Y-1798898D02*
X4793713Y-2180974D01*
X15734397Y-5219338D02*
X14364943Y-4928252D01*
X16025484Y-3849887D02*
X15734397Y-5219338D01*
X14656030Y-3558801D02*
X16025484Y-3849887D01*
X9946255Y-4962786D02*
X8576801Y-4671700D01*
X10237342Y-3593335D02*
X9946255Y-4962786D01*
X8867888Y-3302249D02*
X10237342Y-3593335D01*
X10638212Y-4136111D02*
X10929298Y-2766660D01*
X12007665Y-4427198D02*
X10638212Y-4136111D01*
X12298752Y-3057746D02*
X12007665Y-4427198D01*
X10929298Y-2766660D02*
X12298752Y-3057746D01*
X12551101Y-4299128D02*
X12842188Y-2929676D01*
X13920555Y-4590214D02*
X12551101Y-4299128D01*
X14211642Y-3220762D02*
X13920555Y-4590214D01*
X12842188Y-2929676D02*
X14211642Y-3220762D01*
X14364943Y-4928252D02*
X14656030Y-3558801D01*
X15677785Y-7914390D02*
X17047239Y-8205477D01*
X15782766Y-7420493D02*
X16073853Y-6051041D01*
X17152220Y-7711579D02*
X15782766Y-7420493D01*
X17443307Y-6342127D02*
X17152220Y-7711579D01*
X16073853Y-6051041D02*
X17443307Y-6342127D01*
X13572801Y-8654976D02*
X13863888Y-7285525D01*
X14942255Y-8946063D02*
X13572801Y-8654976D01*
X15233341Y-7576611D02*
X14942255Y-8946063D01*
X13863888Y-7285525D02*
X15233341Y-7576611D01*
X13968875Y-6791601D02*
X14259961Y-5422150D01*
X15338329Y-7082687D02*
X13968875Y-6791601D01*
X15629415Y-5713236D02*
X15338329Y-7082687D01*
X14259961Y-5422150D02*
X15629415Y-5713236D01*
X13176727Y-10518352D02*
X13467814Y-9148900D01*
X14546181Y-10809438D02*
X13176727Y-10518352D01*
X14837268Y-9439986D02*
X14546181Y-10809438D01*
X18619530Y-9971001D02*
X17250077Y-9679915D01*
X18910617Y-8601550D02*
X18619530Y-9971001D01*
X17541163Y-8310464D02*
X18910617Y-8601550D01*
X19049581Y-9632532D02*
X19111955Y-9339088D01*
X19292888Y-9684249D02*
X19049581Y-9632532D01*
X19355262Y-9390804D02*
X19292888Y-9684249D01*
X19111955Y-9339088D02*
X19355262Y-9390804D01*
X14594542Y-13010594D02*
X14885628Y-11641143D01*
X17827368Y-13697753D02*
X14594542Y-13010594D01*
X18118454Y-12328301D02*
X17827368Y-13697753D01*
X14885628Y-11641143D02*
X18118454Y-12328301D01*
X17646145Y-7816566D02*
X17937232Y-6447114D01*
X19015599Y-8107652D02*
X17646145Y-7816566D01*
X19306685Y-6738200D02*
X19015599Y-8107652D01*
X17937232Y-6447114D02*
X19306685Y-6738200D01*
X17250077Y-9679915D02*
X17541163Y-8310464D01*
X19113500Y-10528300D02*
X18870193Y-10476584D01*
D11*
X18746920Y-13492930D02*
X18961920Y-13707930D01*
X18961920Y-13492930D02*
X18746920Y-13707930D01*
X11916860Y-12283890D02*
X12131860Y-12498890D01*
X12131860Y-12283890D02*
X11916860Y-12498890D01*
X18748190Y-8211000D02*
X18963190Y-8426000D01*
X18963190Y-8211000D02*
X18748190Y-8426000D01*
X5328100Y-5502090D02*
X5543100Y-5717090D01*
X5543100Y-5502090D02*
X5328100Y-5717090D01*
X18748190Y-1902910D02*
X18963190Y-2117910D01*
X18963190Y-1902910D02*
X18748190Y-2117910D01*
X4980120Y-12954450D02*
X5195120Y-13169450D01*
X5195120Y-12954450D02*
X4980120Y-13169450D01*
X12306750Y-3635190D02*
X12521750Y-3850190D01*
X12521750Y-3635190D02*
X12306750Y-3850190D01*
X4980120Y-1902910D02*
X5195120Y-2117910D01*
X5195120Y-1902910D02*
X4980120Y-2117910D01*
D12*
X4746740Y-14548963D02*
X4746740Y-14248963D01*
X4818169Y-14248963D01*
X4861026Y-14263249D01*
X4889597Y-14291820D01*
X4903883Y-14320392D01*
X4918169Y-14377535D01*
X4918169Y-14420392D01*
X4903883Y-14477535D01*
X4889597Y-14506106D01*
X4861026Y-14534677D01*
X4818169Y-14548963D01*
X4746740Y-14548963D01*
X5046740Y-14548963D02*
X5046740Y-14348963D01*
X5046740Y-14406106D02*
X5061026Y-14377535D01*
X5075312Y-14363249D01*
X5103883Y-14348963D01*
X5132455Y-14348963D01*
X5232455Y-14548963D02*
X5232455Y-14348963D01*
X5232455Y-14248963D02*
X5218169Y-14263249D01*
X5232455Y-14277535D01*
X5246740Y-14263249D01*
X5232455Y-14248963D01*
X5232455Y-14277535D01*
X5418169Y-14548963D02*
X5389597Y-14534677D01*
X5375312Y-14506106D01*
X5375312Y-14248963D01*
X5575312Y-14548963D02*
X5546740Y-14534677D01*
X5532455Y-14506106D01*
X5532455Y-14248963D01*
X5918169Y-14548963D02*
X5918169Y-14248963D01*
X6018169Y-14463249D01*
X6118169Y-14248963D01*
X6118169Y-14548963D01*
X6389597Y-14548963D02*
X6389597Y-14391820D01*
X6375312Y-14363249D01*
X6346740Y-14348963D01*
X6289597Y-14348963D01*
X6261026Y-14363249D01*
X6389597Y-14534677D02*
X6361026Y-14548963D01*
X6289597Y-14548963D01*
X6261026Y-14534677D01*
X6246740Y-14506106D01*
X6246740Y-14477535D01*
X6261026Y-14448963D01*
X6289597Y-14434677D01*
X6361026Y-14434677D01*
X6389597Y-14420392D01*
X6532454Y-14348963D02*
X6532454Y-14648963D01*
X6532454Y-14363249D02*
X6561026Y-14348963D01*
X6618169Y-14348963D01*
X6646740Y-14363249D01*
X6661026Y-14377535D01*
X6675312Y-14406106D01*
X6675312Y-14491820D01*
X6661026Y-14520392D01*
X6646740Y-14534677D01*
X6618169Y-14548963D01*
X6561026Y-14548963D01*
X6532454Y-14534677D01*
X6803883Y-14520392D02*
X6818169Y-14534677D01*
X6803883Y-14548963D01*
X6789597Y-14534677D01*
X6803883Y-14520392D01*
X6803883Y-14548963D01*
X6803883Y-14363249D02*
X6818169Y-14377535D01*
X6803883Y-14391820D01*
X6789597Y-14377535D01*
X6803883Y-14363249D01*
X6803883Y-14391820D01*
X4245312Y-14935749D02*
X4460312Y-15150749D01*
X4460312Y-14935749D02*
X4245312Y-15150749D01*
X4732455Y-14907535D02*
X4746740Y-14893249D01*
X4775312Y-14878963D01*
X4846740Y-14878963D01*
X4875312Y-14893249D01*
X4889597Y-14907535D01*
X4903883Y-14936106D01*
X4903883Y-14964677D01*
X4889597Y-15007535D01*
X4718169Y-15178963D01*
X4903883Y-15178963D01*
X5032455Y-15150392D02*
X5046740Y-15164677D01*
X5032455Y-15178963D01*
X5018169Y-15164677D01*
X5032455Y-15150392D01*
X5032455Y-15178963D01*
X5332455Y-15178963D02*
X5161026Y-15178963D01*
X5246740Y-15178963D02*
X5246740Y-14878963D01*
X5218169Y-14921820D01*
X5189597Y-14950392D01*
X5161026Y-14964677D01*
X5603883Y-14878963D02*
X5461026Y-14878963D01*
X5446740Y-15021820D01*
X5461026Y-15007535D01*
X5489597Y-14993249D01*
X5561026Y-14993249D01*
X5589597Y-15007535D01*
X5603883Y-15021820D01*
X5618169Y-15050392D01*
X5618169Y-15121820D01*
X5603883Y-15150392D01*
X5589597Y-15164677D01*
X5561026Y-15178963D01*
X5489597Y-15178963D01*
X5461026Y-15164677D01*
X5446740Y-15150392D01*
X5746740Y-15178963D02*
X5746740Y-14978963D01*
X5746740Y-15007535D02*
X5761026Y-14993249D01*
X5789597Y-14978963D01*
X5832454Y-14978963D01*
X5861026Y-14993249D01*
X5875312Y-15021820D01*
X5875312Y-15178963D01*
X5875312Y-15021820D02*
X5889597Y-14993249D01*
X5918169Y-14978963D01*
X5961026Y-14978963D01*
X5989597Y-14993249D01*
X6003883Y-15021820D01*
X6003883Y-15178963D01*
X6146740Y-15178963D02*
X6146740Y-14978963D01*
X6146740Y-15007535D02*
X6161026Y-14993249D01*
X6189597Y-14978963D01*
X6232454Y-14978963D01*
X6261026Y-14993249D01*
X6275312Y-15021820D01*
X6275312Y-15178963D01*
X6275312Y-15021820D02*
X6289597Y-14993249D01*
X6318169Y-14978963D01*
X6361026Y-14978963D01*
X6389597Y-14993249D01*
X6403883Y-15021820D01*
X6403883Y-15178963D01*
X6989597Y-14864677D02*
X6732454Y-15250392D01*
X7375312Y-14878963D02*
X7403883Y-14878963D01*
X7432454Y-14893249D01*
X7446740Y-14907535D01*
X7461026Y-14936106D01*
X7475312Y-14993249D01*
X7475312Y-15064677D01*
X7461026Y-15121820D01*
X7446740Y-15150392D01*
X7432454Y-15164677D01*
X7403883Y-15178963D01*
X7375312Y-15178963D01*
X7346740Y-15164677D01*
X7332454Y-15150392D01*
X7318169Y-15121820D01*
X7303883Y-15064677D01*
X7303883Y-14993249D01*
X7318169Y-14936106D01*
X7332454Y-14907535D01*
X7346740Y-14893249D01*
X7375312Y-14878963D01*
X7603883Y-15150392D02*
X7618169Y-15164677D01*
X7603883Y-15178963D01*
X7589597Y-15164677D01*
X7603883Y-15150392D01*
X7603883Y-15178963D01*
X7803883Y-14878963D02*
X7832454Y-14878963D01*
X7861026Y-14893249D01*
X7875312Y-14907535D01*
X7889597Y-14936106D01*
X7903883Y-14993249D01*
X7903883Y-15064677D01*
X7889597Y-15121820D01*
X7875312Y-15150392D01*
X7861026Y-15164677D01*
X7832454Y-15178963D01*
X7803883Y-15178963D01*
X7775312Y-15164677D01*
X7761026Y-15150392D01*
X7746740Y-15121820D01*
X7732454Y-15064677D01*
X7732454Y-14993249D01*
X7746740Y-14936106D01*
X7761026Y-14907535D01*
X7775312Y-14893249D01*
X7803883Y-14878963D01*
X8075312Y-15007535D02*
X8046740Y-14993249D01*
X8032454Y-14978963D01*
X8018169Y-14950392D01*
X8018169Y-14936106D01*
X8032454Y-14907535D01*
X8046740Y-14893249D01*
X8075312Y-14878963D01*
X8132454Y-14878963D01*
X8161026Y-14893249D01*
X8175312Y-14907535D01*
X8189597Y-14936106D01*
X8189597Y-14950392D01*
X8175312Y-14978963D01*
X8161026Y-14993249D01*
X8132454Y-15007535D01*
X8075312Y-15007535D01*
X8046740Y-15021820D01*
X8032454Y-15036106D01*
X8018169Y-15064677D01*
X8018169Y-15121820D01*
X8032454Y-15150392D01*
X8046740Y-15164677D01*
X8075312Y-15178963D01*
X8132454Y-15178963D01*
X8161026Y-15164677D01*
X8175312Y-15150392D01*
X8189597Y-15121820D01*
X8189597Y-15064677D01*
X8175312Y-15036106D01*
X8161026Y-15021820D01*
X8132454Y-15007535D01*
X8461026Y-14878963D02*
X8318169Y-14878963D01*
X8303883Y-15021820D01*
X8318169Y-15007535D01*
X8346740Y-14993249D01*
X8418169Y-14993249D01*
X8446740Y-15007535D01*
X8461026Y-15021820D01*
X8475312Y-15050392D01*
X8475312Y-15121820D01*
X8461026Y-15150392D01*
X8446740Y-15164677D01*
X8418169Y-15178963D01*
X8346740Y-15178963D01*
X8318169Y-15164677D01*
X8303883Y-15150392D01*
X8589597Y-14878963D02*
X8589597Y-14936106D01*
X8703883Y-14878963D02*
X8703883Y-14936106D01*
X9146740Y-15293249D02*
X9132455Y-15278963D01*
X9103883Y-15236106D01*
X9089597Y-15207535D01*
X9075312Y-15164677D01*
X9061026Y-15093249D01*
X9061026Y-15036106D01*
X9075312Y-14964677D01*
X9089597Y-14921820D01*
X9103883Y-14893249D01*
X9132455Y-14850392D01*
X9146740Y-14836106D01*
X9303883Y-15007535D02*
X9275312Y-14993249D01*
X9261026Y-14978963D01*
X9246740Y-14950392D01*
X9246740Y-14936106D01*
X9261026Y-14907535D01*
X9275312Y-14893249D01*
X9303883Y-14878963D01*
X9361026Y-14878963D01*
X9389597Y-14893249D01*
X9403883Y-14907535D01*
X9418169Y-14936106D01*
X9418169Y-14950392D01*
X9403883Y-14978963D01*
X9389597Y-14993249D01*
X9361026Y-15007535D01*
X9303883Y-15007535D01*
X9275312Y-15021820D01*
X9261026Y-15036106D01*
X9246740Y-15064677D01*
X9246740Y-15121820D01*
X9261026Y-15150392D01*
X9275312Y-15164677D01*
X9303883Y-15178963D01*
X9361026Y-15178963D01*
X9389597Y-15164677D01*
X9403883Y-15150392D01*
X9418169Y-15121820D01*
X9418169Y-15064677D01*
X9403883Y-15036106D01*
X9389597Y-15021820D01*
X9361026Y-15007535D01*
X9775312Y-15178963D02*
X9775312Y-14878963D01*
X9903883Y-15178963D02*
X9903883Y-15021820D01*
X9889597Y-14993249D01*
X9861026Y-14978963D01*
X9818169Y-14978963D01*
X9789597Y-14993249D01*
X9775312Y-15007535D01*
X10089597Y-15178963D02*
X10061026Y-15164677D01*
X10046740Y-15150392D01*
X10032455Y-15121820D01*
X10032455Y-15036106D01*
X10046740Y-15007535D01*
X10061026Y-14993249D01*
X10089597Y-14978963D01*
X10132455Y-14978963D01*
X10161026Y-14993249D01*
X10175312Y-15007535D01*
X10189597Y-15036106D01*
X10189597Y-15121820D01*
X10175312Y-15150392D01*
X10161026Y-15164677D01*
X10132455Y-15178963D01*
X10089597Y-15178963D01*
X10361026Y-15178963D02*
X10332455Y-15164677D01*
X10318169Y-15136106D01*
X10318169Y-14878963D01*
X10589597Y-15164677D02*
X10561026Y-15178963D01*
X10503883Y-15178963D01*
X10475312Y-15164677D01*
X10461026Y-15136106D01*
X10461026Y-15021820D01*
X10475312Y-14993249D01*
X10503883Y-14978963D01*
X10561026Y-14978963D01*
X10589597Y-14993249D01*
X10603883Y-15021820D01*
X10603883Y-15050392D01*
X10461026Y-15078963D01*
X10718169Y-15164677D02*
X10746740Y-15178963D01*
X10803883Y-15178963D01*
X10832455Y-15164677D01*
X10846740Y-15136106D01*
X10846740Y-15121820D01*
X10832455Y-15093249D01*
X10803883Y-15078963D01*
X10761026Y-15078963D01*
X10732455Y-15064677D01*
X10718169Y-15036106D01*
X10718169Y-15021820D01*
X10732455Y-14993249D01*
X10761026Y-14978963D01*
X10803883Y-14978963D01*
X10832455Y-14993249D01*
X10946740Y-15293249D02*
X10961026Y-15278963D01*
X10989597Y-15236106D01*
X11003883Y-15207535D01*
X11018169Y-15164677D01*
X11032455Y-15093249D01*
X11032455Y-15036106D01*
X11018169Y-14964677D01*
X11003883Y-14921820D01*
X10989597Y-14893249D01*
X10961026Y-14850392D01*
X10946740Y-14836106D01*
X11489597Y-15293249D02*
X11475312Y-15278963D01*
X11446740Y-15236106D01*
X11432454Y-15207535D01*
X11418169Y-15164677D01*
X11403883Y-15093249D01*
X11403883Y-15036106D01*
X11418169Y-14964677D01*
X11432454Y-14921820D01*
X11446740Y-14893249D01*
X11475312Y-14850392D01*
X11489597Y-14836106D01*
X11603883Y-14978963D02*
X11603883Y-15178963D01*
X11603883Y-15007535D02*
X11618169Y-14993249D01*
X11646740Y-14978963D01*
X11689597Y-14978963D01*
X11718169Y-14993249D01*
X11732454Y-15021820D01*
X11732454Y-15178963D01*
X11918169Y-15178963D02*
X11889597Y-15164677D01*
X11875312Y-15150392D01*
X11861026Y-15121820D01*
X11861026Y-15036106D01*
X11875312Y-15007535D01*
X11889597Y-14993249D01*
X11918169Y-14978963D01*
X11961026Y-14978963D01*
X11989597Y-14993249D01*
X12003883Y-15007535D01*
X12018169Y-15036106D01*
X12018169Y-15121820D01*
X12003883Y-15150392D01*
X11989597Y-15164677D01*
X11961026Y-15178963D01*
X11918169Y-15178963D01*
X12103883Y-14978963D02*
X12218169Y-14978963D01*
X12146740Y-14878963D02*
X12146740Y-15136106D01*
X12161026Y-15164677D01*
X12189597Y-15178963D01*
X12218169Y-15178963D01*
X12546740Y-14978963D02*
X12546740Y-15278963D01*
X12546740Y-14993249D02*
X12575312Y-14978963D01*
X12632454Y-14978963D01*
X12661026Y-14993249D01*
X12675312Y-15007535D01*
X12689597Y-15036106D01*
X12689597Y-15121820D01*
X12675312Y-15150392D01*
X12661026Y-15164677D01*
X12632454Y-15178963D01*
X12575312Y-15178963D01*
X12546740Y-15164677D01*
X12861026Y-15178963D02*
X12832454Y-15164677D01*
X12818169Y-15136106D01*
X12818169Y-14878963D01*
X13103883Y-15178963D02*
X13103883Y-15021820D01*
X13089597Y-14993249D01*
X13061026Y-14978963D01*
X13003883Y-14978963D01*
X12975312Y-14993249D01*
X13103883Y-15164677D02*
X13075312Y-15178963D01*
X13003883Y-15178963D01*
X12975312Y-15164677D01*
X12961026Y-15136106D01*
X12961026Y-15107535D01*
X12975312Y-15078963D01*
X13003883Y-15064677D01*
X13075312Y-15064677D01*
X13103883Y-15050392D01*
X13203883Y-14978963D02*
X13318169Y-14978963D01*
X13246740Y-14878963D02*
X13246740Y-15136106D01*
X13261026Y-15164677D01*
X13289597Y-15178963D01*
X13318169Y-15178963D01*
X13532454Y-15164677D02*
X13503883Y-15178963D01*
X13446740Y-15178963D01*
X13418169Y-15164677D01*
X13403883Y-15136106D01*
X13403883Y-15021820D01*
X13418169Y-14993249D01*
X13446740Y-14978963D01*
X13503883Y-14978963D01*
X13532454Y-14993249D01*
X13546740Y-15021820D01*
X13546740Y-15050392D01*
X13403883Y-15078963D01*
X13803883Y-15178963D02*
X13803883Y-14878963D01*
X13803883Y-15164677D02*
X13775312Y-15178963D01*
X13718169Y-15178963D01*
X13689597Y-15164677D01*
X13675312Y-15150392D01*
X13661026Y-15121820D01*
X13661026Y-15036106D01*
X13675312Y-15007535D01*
X13689597Y-14993249D01*
X13718169Y-14978963D01*
X13775312Y-14978963D01*
X13803883Y-14993249D01*
X13918169Y-15293249D02*
X13932454Y-15278963D01*
X13961026Y-15236106D01*
X13975312Y-15207535D01*
X13989597Y-15164677D01*
X14003883Y-15093249D01*
X14003883Y-15036106D01*
X13989597Y-14964677D01*
X13975312Y-14921820D01*
X13961026Y-14893249D01*
X13932454Y-14850392D01*
X13918169Y-14836106D01*
M02*
