G04 #@! TF.GenerationSoftware,KiCad,Pcbnew,(5.1.5-0-10_14)*
G04 #@! TF.CreationDate,2020-04-19T15:18:08+09:00*
G04 #@! TF.ProjectId,colice_pcb_left_keyplate,636f6c69-6365-45f7-9063-625f6c656674,rev?*
G04 #@! TF.SameCoordinates,Original*
G04 #@! TF.FileFunction,Profile,NP*
%FSLAX46Y46*%
G04 Gerber Fmt 4.6, Leading zero omitted, Abs format (unit mm)*
G04 Created by KiCad (PCBNEW (5.1.5-0-10_14)) date 2020-04-19 15:18:08*
%MOMM*%
%LPD*%
G04 APERTURE LIST*
%ADD10C,0.200000*%
G04 APERTURE END LIST*
D10*
X200561585Y-26191216D02*
X196769279Y-26191216D01*
X200528989Y-29630634D02*
X200561585Y-26191216D01*
X200546461Y-62442613D02*
X200528989Y-29630634D01*
X198206877Y-62442613D02*
X200546461Y-62442613D01*
X192464831Y-85513806D02*
X198206877Y-62442613D01*
X188701929Y-104765836D02*
X189325668Y-101831389D01*
X189325668Y-101831389D02*
X191758739Y-102348553D01*
X191758739Y-102348553D02*
X191135000Y-105283000D01*
X119026839Y-49210955D02*
X116115971Y-62905468D01*
X105332300Y-46300093D02*
X119026839Y-49210955D01*
X81807277Y-65350751D02*
X84718144Y-51656238D01*
X152817107Y-97777657D02*
X166511647Y-100688519D01*
X153866977Y-92838419D02*
X156777846Y-79143905D01*
X167561518Y-95749281D02*
X153866977Y-92838419D01*
X170472385Y-82054767D02*
X167561518Y-95749281D01*
X97410824Y-83567597D02*
X111105363Y-86478458D01*
X98460694Y-78628358D02*
X101371562Y-64933844D01*
X112155234Y-81539219D02*
X98460694Y-78628358D01*
X115066101Y-67844706D02*
X112155234Y-81539219D01*
X101371562Y-64933844D02*
X115066101Y-67844706D01*
X117589589Y-80258520D02*
X120500457Y-66564007D01*
X131284129Y-83169382D02*
X117589589Y-80258520D01*
X95501816Y-68261613D02*
X81807277Y-65350751D01*
X98412683Y-54567100D02*
X95501816Y-68261613D01*
X84718144Y-51656238D02*
X98412683Y-54567100D01*
X77846539Y-83984503D02*
X80757406Y-70289990D01*
X91541078Y-86895365D02*
X77846539Y-83984503D01*
X94451945Y-73200851D02*
X91541078Y-86895365D01*
X80757406Y-70289990D02*
X94451945Y-73200851D01*
X73885801Y-102618254D02*
X76796668Y-88923741D01*
X134194996Y-69474869D02*
X131284129Y-83169382D01*
X120500457Y-66564007D02*
X134194996Y-69474869D01*
X121550272Y-61625027D02*
X124461140Y-47930514D01*
X135244812Y-64535889D02*
X121550272Y-61625027D01*
X168540027Y-115432901D02*
X171450894Y-101738387D01*
X182234566Y-118343762D02*
X168540027Y-115432901D01*
X185145434Y-104649249D02*
X182234566Y-118343762D01*
X171450894Y-101738387D02*
X185145434Y-104649249D01*
X149906240Y-111472170D02*
X152817107Y-97777657D01*
X163600780Y-114383032D02*
X149906240Y-111472170D01*
X166511647Y-100688519D02*
X163600780Y-114383032D01*
X138155679Y-50841376D02*
X135244812Y-64535889D01*
X124461140Y-47930514D02*
X138155679Y-50841376D01*
X102421432Y-59994606D02*
X105332300Y-46300093D01*
X116115971Y-62905468D02*
X102421432Y-59994606D01*
X127892066Y-111955312D02*
X141586605Y-114866173D01*
X101689224Y-120698967D02*
X104600091Y-107004454D01*
X115383763Y-123609829D02*
X101689224Y-120698967D01*
X118294630Y-109915315D02*
X115383763Y-123609829D01*
X104600091Y-107004454D02*
X118294630Y-109915315D01*
X113628852Y-98892272D02*
X116539719Y-85197758D01*
X127323391Y-101803133D02*
X113628852Y-98892272D01*
X130234258Y-88108620D02*
X127323391Y-101803133D01*
X116539719Y-85197758D02*
X130234258Y-88108620D01*
X94499956Y-97262109D02*
X97410824Y-83567597D01*
X108194496Y-100172971D02*
X94499956Y-97262109D01*
X111105363Y-86478458D02*
X108194496Y-100172971D01*
X134678138Y-91489002D02*
X148372677Y-94399863D01*
X124981199Y-125649825D02*
X127892066Y-111955312D01*
X138675738Y-128560687D02*
X124981199Y-125649825D01*
X141586605Y-114866173D02*
X138675738Y-128560687D01*
X161788399Y-55571175D02*
X164699266Y-41876661D01*
X175482938Y-58482036D02*
X161788399Y-55571175D01*
X178393806Y-44787523D02*
X175482938Y-58482036D01*
X53656485Y-17988983D02*
X47937126Y-17988983D01*
X53656485Y-21809740D02*
X53656485Y-17988983D01*
X185101088Y-21809740D02*
X53656485Y-21809740D01*
X185101088Y-17988983D02*
X185101088Y-21809740D01*
X191980330Y-17988983D02*
X185101088Y-17988983D01*
X191980330Y-21809740D02*
X191980330Y-17988983D01*
X196769279Y-26191216D02*
X191980330Y-21809740D01*
X164699266Y-41876661D02*
X178393806Y-44787523D01*
X180422186Y-59531905D02*
X183333053Y-45837392D01*
X194116725Y-62442767D02*
X180422186Y-59531905D01*
X197027592Y-48748254D02*
X194116725Y-62442767D01*
X183333053Y-45837392D02*
X197027592Y-48748254D01*
X51407070Y-125244135D02*
X51407070Y-111205849D01*
X91601921Y-125244135D02*
X51407070Y-125244135D01*
X87580340Y-105529116D02*
X73885801Y-102618254D01*
X90491207Y-91834603D02*
X87580340Y-105529116D01*
X76796668Y-88923741D02*
X90491207Y-91834603D01*
X49603383Y-102325779D02*
X52514250Y-88631266D01*
X63297922Y-105236641D02*
X49603383Y-102325779D01*
X66208789Y-91542128D02*
X63297922Y-105236641D01*
X52514250Y-88631266D02*
X66208789Y-91542128D01*
X51239815Y-83197983D02*
X54150682Y-69503468D01*
X64928143Y-86107523D02*
X51239815Y-83197983D01*
X67839010Y-72413010D02*
X64928143Y-86107523D01*
X54150682Y-69503468D02*
X67839010Y-72413010D01*
X57524859Y-65058276D02*
X60435726Y-51363763D01*
X71219398Y-67969138D02*
X57524859Y-65058276D01*
X74130265Y-54274625D02*
X71219398Y-67969138D01*
X60435726Y-51363763D02*
X74130265Y-54274625D01*
X47510257Y-43453977D02*
X50421124Y-29759464D01*
X61204796Y-46364839D02*
X47510257Y-43453977D01*
X64115663Y-32670326D02*
X61204796Y-46364839D01*
X50421124Y-29759464D02*
X64115663Y-32670326D01*
X66144043Y-47414707D02*
X69054911Y-33720194D01*
X79838583Y-50325569D02*
X66144043Y-47414707D01*
X82749450Y-36631056D02*
X79838583Y-50325569D01*
X69054911Y-33720194D02*
X82749450Y-36631056D01*
X85768014Y-46717000D02*
X88678882Y-33022487D01*
X91601921Y-111205849D02*
X91601921Y-125244135D01*
X51407070Y-111205849D02*
X91601921Y-111205849D01*
X192464831Y-85513806D02*
X192464831Y-85513806D01*
X196633160Y-91706077D02*
X192464831Y-85513806D01*
X188593775Y-130966330D02*
X196633160Y-91706077D01*
X190762818Y-133840207D02*
X188593775Y-130966330D01*
X189297840Y-140732488D02*
X190762818Y-133840207D01*
X178488870Y-140732488D02*
X189297840Y-140732488D01*
X127246197Y-129840578D02*
X178488870Y-140732488D01*
X53509153Y-129828653D02*
X127246197Y-129840578D01*
X53509153Y-132653562D02*
X53509153Y-129828653D01*
X48251869Y-132655846D02*
X53509153Y-132653562D01*
X48251869Y-129830682D02*
X48251869Y-132655846D01*
X45558949Y-127749170D02*
X48251869Y-129830682D01*
X44703118Y-36710414D02*
X45558949Y-127749170D01*
X47937126Y-21809740D02*
X44703118Y-36710414D01*
X47937126Y-17988983D02*
X47937126Y-21809740D01*
X157343969Y-52193381D02*
X143649430Y-49282519D01*
X160254836Y-38498868D02*
X157343969Y-52193381D01*
X146560297Y-35588006D02*
X160254836Y-38498868D01*
X99462554Y-49627862D02*
X85768014Y-46717000D01*
X102373421Y-35933348D02*
X99462554Y-49627862D01*
X88678882Y-33022487D02*
X102373421Y-35933348D01*
X106382115Y-41361113D02*
X109292982Y-27666600D01*
X120076654Y-44271975D02*
X106382115Y-41361113D01*
X122987522Y-30577462D02*
X120076654Y-44271975D01*
X109292982Y-27666600D02*
X122987522Y-30577462D01*
X125511010Y-42991276D02*
X128421878Y-29296763D01*
X139205549Y-45902138D02*
X125511010Y-42991276D01*
X142116417Y-32207624D02*
X139205549Y-45902138D01*
X128421878Y-29296763D02*
X142116417Y-32207624D01*
X143649430Y-49282519D02*
X146560297Y-35588006D01*
X156777846Y-79143905D02*
X170472385Y-82054767D01*
X157827661Y-74204926D02*
X160738529Y-60510413D01*
X171522200Y-77115788D02*
X157827661Y-74204926D01*
X174433068Y-63421275D02*
X171522200Y-77115788D01*
X160738529Y-60510413D02*
X174433068Y-63421275D01*
X135728009Y-86549763D02*
X138638876Y-72855250D01*
X149422548Y-89460625D02*
X135728009Y-86549763D01*
X152333415Y-75766112D02*
X149422548Y-89460625D01*
X138638876Y-72855250D02*
X152333415Y-75766112D01*
X139688747Y-67916012D02*
X142599614Y-54221499D01*
X153383286Y-70826874D02*
X139688747Y-67916012D01*
X156294152Y-57132360D02*
X153383286Y-70826874D01*
X142599614Y-54221499D02*
X156294152Y-57132360D01*
X131767271Y-105183515D02*
X134678138Y-91489002D01*
X145461810Y-108094377D02*
X131767271Y-105183515D01*
X148372677Y-94399863D02*
X145461810Y-108094377D01*
X186195304Y-99710011D02*
X172500765Y-96799149D01*
X189106172Y-86015498D02*
X186195304Y-99710011D01*
X175411632Y-83104636D02*
X189106172Y-86015498D01*
X190495811Y-96325322D02*
X191119550Y-93390875D01*
X192928882Y-96842487D02*
X190495811Y-96325322D01*
X193552621Y-93908039D02*
X192928882Y-96842487D01*
X191119550Y-93390875D02*
X193552621Y-93908039D01*
X145945417Y-130105940D02*
X148856285Y-116411427D01*
X178273677Y-136977527D02*
X145945417Y-130105940D01*
X181184544Y-123283014D02*
X178273677Y-136977527D01*
X148856285Y-116411427D02*
X181184544Y-123283014D01*
X176461448Y-78165657D02*
X179372315Y-64471143D01*
X190155987Y-81076518D02*
X176461448Y-78165657D01*
X193066854Y-67382005D02*
X190155987Y-81076518D01*
X179372315Y-64471143D02*
X193066854Y-67382005D01*
X172500765Y-96799149D02*
X175411632Y-83104636D01*
X191135000Y-105283000D02*
X188701929Y-104765836D01*
M02*
