G04 #@! TF.GenerationSoftware,KiCad,Pcbnew,(5.1.5-0-10_14)*
G04 #@! TF.CreationDate,2020-04-19T15:18:08+09:00*
G04 #@! TF.ProjectId,colice_pcb_left_keyplate,636f6c69-6365-45f7-9063-625f6c656674,rev?*
G04 #@! TF.SameCoordinates,Original*
G04 #@! TF.FileFunction,Legend,Top*
G04 #@! TF.FilePolarity,Positive*
%FSLAX46Y46*%
G04 Gerber Fmt 4.6, Leading zero omitted, Abs format (unit mm)*
G04 Created by KiCad (PCBNEW (5.1.5-0-10_14)) date 2020-04-19 15:18:08*
%MOMM*%
%LPD*%
G04 APERTURE LIST*
%ADD10C,0.300000*%
G04 APERTURE END LIST*
D10*
X144941234Y-24687491D02*
X146012662Y-24687491D01*
X145369805Y-24044634D02*
X144941234Y-25973205D01*
X145869805Y-25330348D02*
X144798377Y-25330348D01*
X145441234Y-25973205D02*
X145869805Y-24044634D01*
X147369805Y-25544634D02*
X147298377Y-25616062D01*
X147084091Y-25687491D01*
X146941234Y-25687491D01*
X146726948Y-25616062D01*
X146584091Y-25473205D01*
X146512662Y-25330348D01*
X146441234Y-25044634D01*
X146441234Y-24830348D01*
X146512662Y-24544634D01*
X146584091Y-24401777D01*
X146726948Y-24258920D01*
X146941234Y-24187491D01*
X147084091Y-24187491D01*
X147298377Y-24258920D01*
X147369805Y-24330348D01*
X148226948Y-25687491D02*
X148084091Y-25616062D01*
X148012662Y-25544634D01*
X147941234Y-25401777D01*
X147941234Y-24973205D01*
X148012662Y-24830348D01*
X148084091Y-24758920D01*
X148226948Y-24687491D01*
X148441234Y-24687491D01*
X148584091Y-24758920D01*
X148655520Y-24830348D01*
X148726948Y-24973205D01*
X148726948Y-25401777D01*
X148655520Y-25544634D01*
X148584091Y-25616062D01*
X148441234Y-25687491D01*
X148226948Y-25687491D01*
X149584091Y-25687491D02*
X149441234Y-25616062D01*
X149369805Y-25473205D01*
X149369805Y-24187491D01*
X150155520Y-25687491D02*
X150155520Y-24687491D01*
X150155520Y-24187491D02*
X150084091Y-24258920D01*
X150155520Y-24330348D01*
X150226948Y-24258920D01*
X150155520Y-24187491D01*
X150155520Y-24330348D01*
X151512662Y-25616062D02*
X151369805Y-25687491D01*
X151084091Y-25687491D01*
X150941234Y-25616062D01*
X150869805Y-25544634D01*
X150798377Y-25401777D01*
X150798377Y-24973205D01*
X150869805Y-24830348D01*
X150941234Y-24758920D01*
X151084091Y-24687491D01*
X151369805Y-24687491D01*
X151512662Y-24758920D01*
X152726948Y-25616062D02*
X152584091Y-25687491D01*
X152298377Y-25687491D01*
X152155520Y-25616062D01*
X152084091Y-25473205D01*
X152084091Y-24901777D01*
X152155520Y-24758920D01*
X152298377Y-24687491D01*
X152584091Y-24687491D01*
X152726948Y-24758920D01*
X152798377Y-24901777D01*
X152798377Y-25044634D01*
X152084091Y-25187491D01*
X155512662Y-24973205D02*
X155441234Y-24901777D01*
X155298377Y-24830348D01*
X155155520Y-24830348D01*
X155012662Y-24901777D01*
X154941234Y-24973205D01*
X154869805Y-25116062D01*
X154869805Y-25258920D01*
X154941234Y-25401777D01*
X155012662Y-25473205D01*
X155155520Y-25544634D01*
X155298377Y-25544634D01*
X155441234Y-25473205D01*
X155512662Y-25401777D01*
X155512662Y-24830348D02*
X155512662Y-25401777D01*
X155584091Y-25473205D01*
X155655520Y-25473205D01*
X155798377Y-25401777D01*
X155869805Y-25258920D01*
X155869805Y-24901777D01*
X155726948Y-24687491D01*
X155512662Y-24544634D01*
X155226948Y-24473205D01*
X154941234Y-24544634D01*
X154726948Y-24687491D01*
X154584091Y-24901777D01*
X154512662Y-25187491D01*
X154584091Y-25473205D01*
X154726948Y-25687491D01*
X154941234Y-25830348D01*
X155226948Y-25901777D01*
X155512662Y-25830348D01*
X155726948Y-25687491D01*
X156512662Y-24687491D02*
X156512662Y-25973205D01*
X156441234Y-26116062D01*
X156298377Y-26187491D01*
X156226948Y-26187491D01*
X156512662Y-24187491D02*
X156441234Y-24258920D01*
X156512662Y-24330348D01*
X156584091Y-24258920D01*
X156512662Y-24187491D01*
X156512662Y-24330348D01*
X157226948Y-24687491D02*
X157226948Y-26187491D01*
X157226948Y-24758920D02*
X157369805Y-24687491D01*
X157655520Y-24687491D01*
X157798377Y-24758920D01*
X157869805Y-24830348D01*
X157941234Y-24973205D01*
X157941234Y-25401777D01*
X157869805Y-25544634D01*
X157798377Y-25616062D01*
X157655520Y-25687491D01*
X157369805Y-25687491D01*
X157226948Y-25616062D01*
X158512662Y-25616062D02*
X158655520Y-25687491D01*
X158941234Y-25687491D01*
X159084091Y-25616062D01*
X159155520Y-25473205D01*
X159155520Y-25401777D01*
X159084091Y-25258920D01*
X158941234Y-25187491D01*
X158726948Y-25187491D01*
X158584091Y-25116062D01*
X158512662Y-24973205D01*
X158512662Y-24901777D01*
X158584091Y-24758920D01*
X158726948Y-24687491D01*
X158941234Y-24687491D01*
X159084091Y-24758920D01*
X159798377Y-25687491D02*
X159798377Y-24187491D01*
X159941234Y-25116062D02*
X160369805Y-25687491D01*
X160369805Y-24687491D02*
X159798377Y-25258920D01*
X161584091Y-25616062D02*
X161441234Y-25687491D01*
X161155520Y-25687491D01*
X161012662Y-25616062D01*
X160941234Y-25473205D01*
X160941234Y-24901777D01*
X161012662Y-24758920D01*
X161155520Y-24687491D01*
X161441234Y-24687491D01*
X161584091Y-24758920D01*
X161655520Y-24901777D01*
X161655520Y-25044634D01*
X160941234Y-25187491D01*
X162298377Y-24687491D02*
X162298377Y-25687491D01*
X162298377Y-24830348D02*
X162369805Y-24758920D01*
X162512662Y-24687491D01*
X162726948Y-24687491D01*
X162869805Y-24758920D01*
X162941234Y-24901777D01*
X162941234Y-25687491D01*
X163655520Y-24687491D02*
X163655520Y-25687491D01*
X163655520Y-24830348D02*
X163726948Y-24758920D01*
X163869805Y-24687491D01*
X164084091Y-24687491D01*
X164226948Y-24758920D01*
X164298377Y-24901777D01*
X164298377Y-25687491D01*
X144976948Y-28237491D02*
X144262662Y-28237491D01*
X144262662Y-26737491D01*
X146048377Y-28166062D02*
X145905520Y-28237491D01*
X145619805Y-28237491D01*
X145476948Y-28166062D01*
X145405520Y-28023205D01*
X145405520Y-27451777D01*
X145476948Y-27308920D01*
X145619805Y-27237491D01*
X145905520Y-27237491D01*
X146048377Y-27308920D01*
X146119805Y-27451777D01*
X146119805Y-27594634D01*
X145405520Y-27737491D01*
X146548377Y-27237491D02*
X147119805Y-27237491D01*
X146762662Y-28237491D02*
X146762662Y-26951777D01*
X146834091Y-26808920D01*
X146976948Y-26737491D01*
X147119805Y-26737491D01*
X147405520Y-27237491D02*
X147976948Y-27237491D01*
X147619805Y-26737491D02*
X147619805Y-28023205D01*
X147691234Y-28166062D01*
X147834091Y-28237491D01*
X147976948Y-28237491D01*
X149619805Y-28237491D02*
X149619805Y-26737491D01*
X150476948Y-28237491D02*
X149834091Y-27380348D01*
X150476948Y-26737491D02*
X149619805Y-27594634D01*
X151691234Y-28166062D02*
X151548377Y-28237491D01*
X151262662Y-28237491D01*
X151119805Y-28166062D01*
X151048377Y-28023205D01*
X151048377Y-27451777D01*
X151119805Y-27308920D01*
X151262662Y-27237491D01*
X151548377Y-27237491D01*
X151691234Y-27308920D01*
X151762662Y-27451777D01*
X151762662Y-27594634D01*
X151048377Y-27737491D01*
X152262662Y-27237491D02*
X152619805Y-28237491D01*
X152976948Y-27237491D02*
X152619805Y-28237491D01*
X152476948Y-28594634D01*
X152405520Y-28666062D01*
X152262662Y-28737491D01*
X153548377Y-27237491D02*
X153548377Y-28737491D01*
X153548377Y-27308920D02*
X153691234Y-27237491D01*
X153976948Y-27237491D01*
X154119805Y-27308920D01*
X154191234Y-27380348D01*
X154262662Y-27523205D01*
X154262662Y-27951777D01*
X154191234Y-28094634D01*
X154119805Y-28166062D01*
X153976948Y-28237491D01*
X153691234Y-28237491D01*
X153548377Y-28166062D01*
X155119805Y-28237491D02*
X154976948Y-28166062D01*
X154905520Y-28023205D01*
X154905520Y-26737491D01*
X156334091Y-28237491D02*
X156334091Y-27451777D01*
X156262662Y-27308920D01*
X156119805Y-27237491D01*
X155834091Y-27237491D01*
X155691234Y-27308920D01*
X156334091Y-28166062D02*
X156191234Y-28237491D01*
X155834091Y-28237491D01*
X155691234Y-28166062D01*
X155619805Y-28023205D01*
X155619805Y-27880348D01*
X155691234Y-27737491D01*
X155834091Y-27666062D01*
X156191234Y-27666062D01*
X156334091Y-27594634D01*
X156834091Y-27237491D02*
X157405520Y-27237491D01*
X157048377Y-26737491D02*
X157048377Y-28023205D01*
X157119805Y-28166062D01*
X157262662Y-28237491D01*
X157405520Y-28237491D01*
X158476948Y-28166062D02*
X158334091Y-28237491D01*
X158048377Y-28237491D01*
X157905520Y-28166062D01*
X157834091Y-28023205D01*
X157834091Y-27451777D01*
X157905520Y-27308920D01*
X158048377Y-27237491D01*
X158334091Y-27237491D01*
X158476948Y-27308920D01*
X158548377Y-27451777D01*
X158548377Y-27594634D01*
X157834091Y-27737491D01*
X160191234Y-27237491D02*
X160548377Y-28237491D01*
X160905520Y-27237491D01*
X161476948Y-28094634D02*
X161548377Y-28166062D01*
X161476948Y-28237491D01*
X161405520Y-28166062D01*
X161476948Y-28094634D01*
X161476948Y-28237491D01*
X162476948Y-26737491D02*
X162619805Y-26737491D01*
X162762662Y-26808920D01*
X162834091Y-26880348D01*
X162905520Y-27023205D01*
X162976948Y-27308920D01*
X162976948Y-27666062D01*
X162905520Y-27951777D01*
X162834091Y-28094634D01*
X162762662Y-28166062D01*
X162619805Y-28237491D01*
X162476948Y-28237491D01*
X162334091Y-28166062D01*
X162262662Y-28094634D01*
X162191234Y-27951777D01*
X162119805Y-27666062D01*
X162119805Y-27308920D01*
X162191234Y-27023205D01*
X162262662Y-26880348D01*
X162334091Y-26808920D01*
X162476948Y-26737491D01*
X163619805Y-28094634D02*
X163691234Y-28166062D01*
X163619805Y-28237491D01*
X163548377Y-28166062D01*
X163619805Y-28094634D01*
X163619805Y-28237491D01*
X165119805Y-28237491D02*
X164262662Y-28237491D01*
X164691234Y-28237491D02*
X164691234Y-26737491D01*
X164548377Y-26951777D01*
X164405520Y-27094634D01*
X164262662Y-27166062D01*
M02*
