G04 #@! TF.GenerationSoftware,KiCad,Pcbnew,(5.1.5-0-10_14)*
G04 #@! TF.CreationDate,2020-05-14T05:15:00+09:00*
G04 #@! TF.ProjectId,N-top-v02,4e2d746f-702d-4763-9032-2e6b69636164,rev?*
G04 #@! TF.SameCoordinates,Original*
G04 #@! TF.FileFunction,Profile,NP*
%FSLAX46Y46*%
G04 Gerber Fmt 4.6, Leading zero omitted, Abs format (unit mm)*
G04 Created by KiCad (PCBNEW (5.1.5-0-10_14)) date 2020-05-14 05:15:00*
%MOMM*%
%LPD*%
G04 APERTURE LIST*
%ADD10C,0.050000*%
G04 APERTURE END LIST*
D10*
X165341116Y-32170534D02*
X165339909Y-32220042D01*
X165339909Y-32220042D02*
X165336486Y-32267350D01*
X165336486Y-32267350D02*
X165331115Y-32312460D01*
X165331115Y-32312460D02*
X165323914Y-32356163D01*
X165323914Y-32356163D02*
X165315195Y-32397694D01*
X165315195Y-32397694D02*
X165304984Y-32437826D01*
X165304984Y-32437826D02*
X165293060Y-32477657D01*
X165293060Y-32477657D02*
X165280074Y-32515338D01*
X165280074Y-32515338D02*
X165265645Y-32552319D01*
X165265645Y-32552319D02*
X165250286Y-32587533D01*
X165250286Y-32587533D02*
X165233803Y-32621687D01*
X165233803Y-32621687D02*
X165214796Y-32657420D01*
X165214796Y-32657420D02*
X165196370Y-32689052D01*
X165196370Y-32689052D02*
X165176629Y-32720246D01*
X165176629Y-32720246D02*
X165156221Y-32750037D01*
X165156221Y-32750037D02*
X165134438Y-32779481D01*
X165134438Y-32779481D02*
X165112104Y-32807514D01*
X165112104Y-32807514D02*
X165088797Y-32834709D01*
X165088797Y-32834709D02*
X165064297Y-32861320D01*
X165064297Y-32861320D02*
X165038996Y-32886896D01*
X165038996Y-32886896D02*
X165013214Y-32911172D01*
X165013214Y-32911172D02*
X164985732Y-32935257D01*
X164985732Y-32935257D02*
X164957823Y-32957992D01*
X164957823Y-32957992D02*
X164929098Y-32979727D01*
X164929098Y-32979727D02*
X164899587Y-33000437D01*
X164899587Y-33000437D02*
X164866754Y-33021681D01*
X164866754Y-33021681D02*
X164834702Y-33040727D01*
X164834702Y-33040727D02*
X164797037Y-33061112D01*
X164797037Y-33061112D02*
X164763243Y-33077674D01*
X164763243Y-33077674D02*
X164728230Y-33093204D01*
X164728230Y-33093204D02*
X164691639Y-33107744D01*
X164691639Y-33107744D02*
X164654369Y-33120863D01*
X164654369Y-33120863D02*
X164615155Y-33132897D01*
X164615155Y-33132897D02*
X164574532Y-33143518D01*
X164574532Y-33143518D02*
X164533266Y-33152451D01*
X164533266Y-33152451D02*
X164486366Y-33160394D01*
X164486366Y-33160394D02*
X164438962Y-33166103D01*
X164438962Y-33166103D02*
X164391715Y-33169518D01*
X164391715Y-33169518D02*
X164342896Y-33170701D01*
X92510849Y-71727732D02*
X92488080Y-71755335D01*
X92488080Y-71755335D02*
X92459741Y-71777203D01*
X92459741Y-71777203D02*
X92425295Y-71792854D01*
X92425295Y-71792854D02*
X92409165Y-71797074D01*
X164342896Y-60170732D02*
X164391715Y-60171913D01*
X164391715Y-60171913D02*
X164438767Y-60175311D01*
X164438767Y-60175311D02*
X164486171Y-60181014D01*
X164486171Y-60181014D02*
X164529067Y-60188192D01*
X164529067Y-60188192D02*
X164571524Y-60197228D01*
X164571524Y-60197228D02*
X164611826Y-60207635D01*
X164611826Y-60207635D02*
X164651461Y-60219669D01*
X164651461Y-60219669D02*
X164688963Y-60232756D01*
X164688963Y-60232756D02*
X164726829Y-60247724D01*
X164726829Y-60247724D02*
X164763243Y-60263854D01*
X164763243Y-60263854D02*
X164797206Y-60280516D01*
X164797206Y-60280516D02*
X164830438Y-60298412D01*
X164830438Y-60298412D02*
X164862590Y-60317320D01*
X164862590Y-60317320D02*
X164893340Y-60336964D01*
X164893340Y-60336964D02*
X164923319Y-60357687D01*
X164923319Y-60357687D02*
X164953092Y-60379921D01*
X164953092Y-60379921D02*
X164981138Y-60402501D01*
X164981138Y-60402501D02*
X165008346Y-60426059D01*
X165008346Y-60426059D02*
X165037922Y-60453694D01*
X165037922Y-60453694D02*
X165063260Y-60479236D01*
X165063260Y-60479236D02*
X165087677Y-60505673D01*
X165087677Y-60505673D02*
X165111146Y-60532976D01*
X165111146Y-60532976D02*
X165133408Y-60560820D01*
X165133408Y-60560820D02*
X165155129Y-60590077D01*
X165155129Y-60590077D02*
X165175591Y-60619820D01*
X165175591Y-60619820D02*
X165195782Y-60651613D01*
X165195782Y-60651613D02*
X165214243Y-60683211D01*
X165214243Y-60683211D02*
X165231915Y-60716203D01*
X165231915Y-60716203D02*
X165248535Y-60750260D01*
X165248535Y-60750260D02*
X165264331Y-60786079D01*
X165264331Y-60786079D02*
X165279014Y-60823329D01*
X165279014Y-60823329D02*
X165292113Y-60860925D01*
X165292113Y-60860925D02*
X165303844Y-60899553D01*
X165303844Y-60899553D02*
X165314219Y-60939577D01*
X165314219Y-60939577D02*
X165323260Y-60981761D01*
X165323260Y-60981761D02*
X165330612Y-61025357D01*
X165330612Y-61025357D02*
X165336178Y-61070747D01*
X165336178Y-61070747D02*
X165339769Y-61118337D01*
X165339769Y-61118337D02*
X165341112Y-61168134D01*
X165341112Y-61168134D02*
X165341116Y-61170560D01*
X163340443Y-61170560D02*
X163341614Y-61121729D01*
X163341614Y-61121729D02*
X163345068Y-61073900D01*
X163345068Y-61073900D02*
X163350437Y-61028855D01*
X163350437Y-61028855D02*
X163357646Y-60985209D01*
X163357646Y-60985209D02*
X163366543Y-60942973D01*
X163366543Y-60942973D02*
X163376894Y-60902524D01*
X163376894Y-60902524D02*
X163388521Y-60863845D01*
X163388521Y-60863845D02*
X163401458Y-60826376D01*
X163401458Y-60826376D02*
X163415532Y-60790299D01*
X163415532Y-60790299D02*
X163430713Y-60755430D01*
X163430713Y-60755430D02*
X163446999Y-60721602D01*
X163446999Y-60721602D02*
X163464687Y-60688162D01*
X163464687Y-60688162D02*
X163483397Y-60655803D01*
X163483397Y-60655803D02*
X163502855Y-60624852D01*
X163502855Y-60624852D02*
X163523186Y-60594979D01*
X163523186Y-60594979D02*
X163544555Y-60565887D01*
X163544555Y-60565887D02*
X163567652Y-60536737D01*
X163567652Y-60536737D02*
X163591298Y-60509039D01*
X163591298Y-60509039D02*
X163615664Y-60482492D01*
X163615664Y-60482492D02*
X163640964Y-60456838D01*
X163640964Y-60456838D02*
X163667167Y-60432097D01*
X163667167Y-60432097D02*
X163696543Y-60406361D01*
X163696543Y-60406361D02*
X163725732Y-60382689D01*
X163725732Y-60382689D02*
X163754289Y-60361206D01*
X163754289Y-60361206D02*
X163785191Y-60339680D01*
X163785191Y-60339680D02*
X163815962Y-60319889D01*
X163815962Y-60319889D02*
X163848477Y-60300641D01*
X163848477Y-60300641D02*
X163881431Y-60282772D01*
X163881431Y-60282772D02*
X163915973Y-60265706D01*
X163915973Y-60265706D02*
X163950553Y-60250239D01*
X163950553Y-60250239D02*
X163988848Y-60234899D01*
X163988848Y-60234899D02*
X164026445Y-60221587D01*
X164026445Y-60221587D02*
X164066200Y-60209315D01*
X164066200Y-60209315D02*
X164106263Y-60198757D01*
X164106263Y-60198757D02*
X164148882Y-60189448D01*
X164148882Y-60189448D02*
X164191572Y-60182048D01*
X164191572Y-60182048D02*
X164236437Y-60176302D01*
X164236437Y-60176302D02*
X164284097Y-60172421D01*
X164284097Y-60172421D02*
X164332767Y-60170779D01*
X164332767Y-60170779D02*
X164342896Y-60170732D01*
X83199971Y-67969971D02*
X83150022Y-67969643D01*
X83150022Y-67969643D02*
X83098723Y-67968625D01*
X83098723Y-67968625D02*
X83047593Y-67966922D01*
X83047593Y-67966922D02*
X82996639Y-67964538D01*
X82996639Y-67964538D02*
X82948846Y-67961675D01*
X82948846Y-67961675D02*
X82901213Y-67958216D01*
X82901213Y-67958216D02*
X82853747Y-67954166D01*
X82853747Y-67954166D02*
X82807188Y-67949603D01*
X82807188Y-67949603D02*
X82759325Y-67944301D01*
X82759325Y-67944301D02*
X82712377Y-67938495D01*
X82712377Y-67938495D02*
X82662692Y-67931693D01*
X82662692Y-67931693D02*
X82616121Y-67924702D01*
X82616121Y-67924702D02*
X82570460Y-67917260D01*
X82570460Y-67917260D02*
X82524266Y-67909140D01*
X82524266Y-67909140D02*
X82480419Y-67900877D01*
X82480419Y-67900877D02*
X82438180Y-67892400D01*
X82438180Y-67892400D02*
X82394690Y-67883140D01*
X82394690Y-67883140D02*
X82352097Y-67873543D01*
X82352097Y-67873543D02*
X82309686Y-67863463D01*
X82309686Y-67863463D02*
X82265357Y-67852365D01*
X82265357Y-67852365D02*
X82225428Y-67841869D01*
X82225428Y-67841869D02*
X82183588Y-67830360D01*
X82183588Y-67830360D02*
X82144020Y-67818990D01*
X82144020Y-67818990D02*
X82105323Y-67807412D01*
X82105323Y-67807412D02*
X82061998Y-67793903D01*
X82061998Y-67793903D02*
X82023675Y-67781464D01*
X82023675Y-67781464D02*
X81985536Y-67768629D01*
X81985536Y-67768629D02*
X81947577Y-67755397D01*
X81947577Y-67755397D02*
X81901739Y-67738800D01*
X81901739Y-67738800D02*
X81864864Y-67724953D01*
X81864864Y-67724953D02*
X81826845Y-67710207D01*
X81826845Y-67710207D02*
X81789689Y-67695329D01*
X81789689Y-67695329D02*
X81750754Y-67679241D01*
X81750754Y-67679241D02*
X81713348Y-67663293D01*
X81713348Y-67663293D02*
X81674200Y-67646083D01*
X81674200Y-67646083D02*
X81637873Y-67629633D01*
X81637873Y-67629633D02*
X81601752Y-67612805D01*
X81601752Y-67612805D02*
X81566480Y-67595919D01*
X81566480Y-67595919D02*
X81532686Y-67579311D01*
X81532686Y-67579311D02*
X81494657Y-67560114D01*
X81494657Y-67560114D02*
X81454367Y-67539175D01*
X81454367Y-67539175D02*
X81419347Y-67520467D01*
X81419347Y-67520467D02*
X81386408Y-67502430D01*
X81386408Y-67502430D02*
X81352440Y-67483377D01*
X81352440Y-67483377D02*
X81318689Y-67463981D01*
X81318689Y-67463981D02*
X81286376Y-67444972D01*
X81286376Y-67444972D02*
X81254269Y-67425648D01*
X81254269Y-67425648D02*
X81221172Y-67405268D01*
X81221172Y-67405268D02*
X81190091Y-67385695D01*
X81190091Y-67385695D02*
X81157439Y-67364669D01*
X81157439Y-67364669D02*
X81126195Y-67344102D01*
X81126195Y-67344102D02*
X81095169Y-67323231D01*
X81095169Y-67323231D02*
X81065520Y-67302864D01*
X81065520Y-67302864D02*
X81035502Y-67281814D01*
X81035502Y-67281814D02*
X81006270Y-67260892D01*
X81006270Y-67260892D02*
X80973848Y-67237187D01*
X80973848Y-67237187D02*
X80937759Y-67210171D01*
X80937759Y-67210171D02*
X80904231Y-67184458D01*
X80904231Y-67184458D02*
X80875416Y-67161877D01*
X80875416Y-67161877D02*
X80846827Y-67139023D01*
X80846827Y-67139023D02*
X80818467Y-67115898D01*
X80818467Y-67115898D02*
X80786565Y-67089331D01*
X80786565Y-67089331D02*
X80756564Y-67063796D01*
X80756564Y-67063796D02*
X80728423Y-67039346D01*
X80728423Y-67039346D02*
X80701051Y-67015091D01*
X80701051Y-67015091D02*
X80671841Y-66988680D01*
X80671841Y-66988680D02*
X80645481Y-66964363D01*
X80645481Y-66964363D02*
X80614261Y-66934954D01*
X80614261Y-66934954D02*
X80588416Y-66910094D01*
X80588416Y-66910094D02*
X80561811Y-66884006D01*
X80561811Y-66884006D02*
X80535959Y-66858153D01*
X80535959Y-66858153D02*
X80508399Y-66830034D01*
X80508399Y-66830034D02*
X80471948Y-66791925D01*
X80471948Y-66791925D02*
X80444603Y-66762623D01*
X80444603Y-66762623D02*
X80418039Y-66733552D01*
X80418039Y-66733552D02*
X80393644Y-66706308D01*
X80393644Y-66706308D02*
X80369510Y-66678826D01*
X80369510Y-66678826D02*
X80345640Y-66651107D01*
X80345640Y-66651107D02*
X80322039Y-66623155D01*
X80322039Y-66623155D02*
X80293359Y-66588435D01*
X80293359Y-66588435D02*
X80270356Y-66559967D01*
X80270356Y-66559967D02*
X80247628Y-66531274D01*
X80247628Y-66531274D02*
X80223888Y-66500678D01*
X80223888Y-66500678D02*
X80201303Y-66470959D01*
X80201303Y-66470959D02*
X80176086Y-66437038D01*
X80176086Y-66437038D02*
X80154533Y-66407403D01*
X80154533Y-66407403D02*
X80133264Y-66377551D01*
X80133264Y-66377551D02*
X80112282Y-66347485D01*
X80112282Y-66347485D02*
X80088427Y-66312528D01*
X80088427Y-66312528D02*
X80067674Y-66281413D01*
X80067674Y-66281413D02*
X80046841Y-66249489D01*
X80046841Y-66249489D02*
X80026703Y-66217939D01*
X80026703Y-66217939D02*
X80006129Y-66184974D01*
X80006129Y-66184974D02*
X79985160Y-66150572D01*
X79985160Y-66150572D02*
X79964907Y-66116538D01*
X79964907Y-66116538D02*
X79945358Y-66082889D01*
X79945358Y-66082889D02*
X79926842Y-66050255D01*
X79926842Y-66050255D02*
X79908983Y-66018040D01*
X79908983Y-66018040D02*
X79888760Y-65980631D01*
X79888760Y-65980631D02*
X79870258Y-65945486D01*
X79870258Y-65945486D02*
X79852439Y-65910757D01*
X79852439Y-65910757D02*
X79835600Y-65877095D01*
X79835600Y-65877095D02*
X79819093Y-65843241D01*
X79819093Y-65843241D02*
X79802310Y-65807911D01*
X79802310Y-65807911D02*
X79785591Y-65771732D01*
X79785591Y-65771732D02*
X79768382Y-65733391D01*
X79768382Y-65733391D02*
X79752154Y-65696138D01*
X79752154Y-65696138D02*
X79736592Y-65659333D01*
X79736592Y-65659333D02*
X79721412Y-65622329D01*
X79721412Y-65622329D02*
X79705575Y-65582466D01*
X79705575Y-65582466D02*
X79690182Y-65542381D01*
X79690182Y-65542381D02*
X79675483Y-65502752D01*
X79675483Y-65502752D02*
X79661695Y-65464266D01*
X79661695Y-65464266D02*
X79648548Y-65426269D01*
X79648548Y-65426269D02*
X79635797Y-65388091D01*
X79635797Y-65388091D02*
X79622797Y-65347670D01*
X79622797Y-65347670D02*
X79608991Y-65302911D01*
X79608991Y-65302911D02*
X79597334Y-65263466D01*
X79597334Y-65263466D02*
X79585714Y-65222449D01*
X79585714Y-65222449D02*
X79574363Y-65180544D01*
X79574363Y-65180544D02*
X79563486Y-65138447D01*
X79563486Y-65138447D02*
X79550394Y-65084853D01*
X79550394Y-65084853D02*
X79540762Y-65043043D01*
X79540762Y-65043043D02*
X79531298Y-64999630D01*
X79531298Y-64999630D02*
X79522478Y-64956746D01*
X79522478Y-64956746D02*
X79514283Y-64914407D01*
X79514283Y-64914407D02*
X79505933Y-64868292D01*
X79505933Y-64868292D02*
X79498032Y-64821257D01*
X79498032Y-64821257D02*
X79491257Y-64777667D01*
X79491257Y-64777667D02*
X79484586Y-64730991D01*
X79484586Y-64730991D02*
X79478582Y-64684868D01*
X79478582Y-64684868D02*
X79473305Y-64640041D01*
X79473305Y-64640041D02*
X79467469Y-64583972D01*
X79467469Y-64583972D02*
X79463196Y-64536569D01*
X79463196Y-64536569D02*
X79459515Y-64488998D01*
X79459515Y-64488998D02*
X79456256Y-64438277D01*
X79456256Y-64438277D02*
X79453806Y-64390373D01*
X79453806Y-64390373D02*
X79451769Y-64336296D01*
X79451769Y-64336296D02*
X79450551Y-64285047D01*
X79450551Y-64285047D02*
X79450022Y-64233634D01*
X79450022Y-64233634D02*
X79450000Y-64220000D01*
X164342896Y-31170705D02*
X164391715Y-31171886D01*
X164391715Y-31171886D02*
X164438767Y-31175284D01*
X164438767Y-31175284D02*
X164486171Y-31180987D01*
X164486171Y-31180987D02*
X164529067Y-31188165D01*
X164529067Y-31188165D02*
X164571524Y-31197201D01*
X164571524Y-31197201D02*
X164611826Y-31207608D01*
X164611826Y-31207608D02*
X164651461Y-31219642D01*
X164651461Y-31219642D02*
X164688963Y-31232729D01*
X164688963Y-31232729D02*
X164726829Y-31247697D01*
X164726829Y-31247697D02*
X164763243Y-31263827D01*
X164763243Y-31263827D02*
X164797206Y-31280489D01*
X164797206Y-31280489D02*
X164830438Y-31298385D01*
X164830438Y-31298385D02*
X164862590Y-31317293D01*
X164862590Y-31317293D02*
X164893340Y-31336937D01*
X164893340Y-31336937D02*
X164923319Y-31357660D01*
X164923319Y-31357660D02*
X164953092Y-31379894D01*
X164953092Y-31379894D02*
X164981138Y-31402474D01*
X164981138Y-31402474D02*
X165008346Y-31426032D01*
X165008346Y-31426032D02*
X165037922Y-31453667D01*
X165037922Y-31453667D02*
X165063260Y-31479209D01*
X165063260Y-31479209D02*
X165087677Y-31505646D01*
X165087677Y-31505646D02*
X165111146Y-31532949D01*
X165111146Y-31532949D02*
X165133408Y-31560793D01*
X165133408Y-31560793D02*
X165155129Y-31590050D01*
X165155129Y-31590050D02*
X165175591Y-31619793D01*
X165175591Y-31619793D02*
X165195782Y-31651586D01*
X165195782Y-31651586D02*
X165214243Y-31683184D01*
X165214243Y-31683184D02*
X165231915Y-31716176D01*
X165231915Y-31716176D02*
X165248535Y-31750233D01*
X165248535Y-31750233D02*
X165264331Y-31786052D01*
X165264331Y-31786052D02*
X165279014Y-31823302D01*
X165279014Y-31823302D02*
X165292113Y-31860898D01*
X165292113Y-31860898D02*
X165303844Y-31899526D01*
X165303844Y-31899526D02*
X165314219Y-31939551D01*
X165314219Y-31939551D02*
X165323260Y-31981735D01*
X165323260Y-31981735D02*
X165330612Y-32025331D01*
X165330612Y-32025331D02*
X165336178Y-32070721D01*
X165336178Y-32070721D02*
X165339769Y-32118311D01*
X165339769Y-32118311D02*
X165341112Y-32168108D01*
X165341112Y-32168108D02*
X165341116Y-32170534D01*
X163340443Y-32170534D02*
X163341614Y-32121703D01*
X163341614Y-32121703D02*
X163345068Y-32073874D01*
X163345068Y-32073874D02*
X163350437Y-32028829D01*
X163350437Y-32028829D02*
X163357646Y-31985183D01*
X163357646Y-31985183D02*
X163366543Y-31942947D01*
X163366543Y-31942947D02*
X163376894Y-31902497D01*
X163376894Y-31902497D02*
X163388521Y-31863818D01*
X163388521Y-31863818D02*
X163401458Y-31826349D01*
X163401458Y-31826349D02*
X163415532Y-31790272D01*
X163415532Y-31790272D02*
X163430713Y-31755403D01*
X163430713Y-31755403D02*
X163446999Y-31721575D01*
X163446999Y-31721575D02*
X163464687Y-31688135D01*
X163464687Y-31688135D02*
X163483397Y-31655776D01*
X163483397Y-31655776D02*
X163502855Y-31624825D01*
X163502855Y-31624825D02*
X163523186Y-31594952D01*
X163523186Y-31594952D02*
X163544555Y-31565860D01*
X163544555Y-31565860D02*
X163567652Y-31536710D01*
X163567652Y-31536710D02*
X163591298Y-31509012D01*
X163591298Y-31509012D02*
X163615664Y-31482465D01*
X163615664Y-31482465D02*
X163640964Y-31456811D01*
X163640964Y-31456811D02*
X163667167Y-31432070D01*
X163667167Y-31432070D02*
X163696543Y-31406334D01*
X163696543Y-31406334D02*
X163725732Y-31382662D01*
X163725732Y-31382662D02*
X163754289Y-31361179D01*
X163754289Y-31361179D02*
X163785191Y-31339653D01*
X163785191Y-31339653D02*
X163815962Y-31319862D01*
X163815962Y-31319862D02*
X163848477Y-31300614D01*
X163848477Y-31300614D02*
X163881431Y-31282745D01*
X163881431Y-31282745D02*
X163915973Y-31265679D01*
X163915973Y-31265679D02*
X163950553Y-31250212D01*
X163950553Y-31250212D02*
X163988848Y-31234872D01*
X163988848Y-31234872D02*
X164026445Y-31221560D01*
X164026445Y-31221560D02*
X164066200Y-31209288D01*
X164066200Y-31209288D02*
X164106263Y-31198730D01*
X164106263Y-31198730D02*
X164148882Y-31189421D01*
X164148882Y-31189421D02*
X164191572Y-31182021D01*
X164191572Y-31182021D02*
X164236437Y-31176275D01*
X164236437Y-31176275D02*
X164284097Y-31172394D01*
X164284097Y-31172394D02*
X164332767Y-31170752D01*
X164332767Y-31170752D02*
X164342896Y-31170705D01*
X165137069Y-134811764D02*
X165114305Y-134704638D01*
X165114305Y-134704638D02*
X165048118Y-134393142D01*
X165048118Y-134393142D02*
X164957850Y-133968297D01*
X164957850Y-133968297D02*
X164844290Y-133433819D01*
X164844290Y-133433819D02*
X164634670Y-132447210D01*
X164634670Y-132447210D02*
X164371753Y-131209745D01*
X164371753Y-131209745D02*
X164172920Y-130273896D01*
X164172920Y-130273896D02*
X163840916Y-128711246D01*
X163840916Y-128711246D02*
X163331920Y-126315533D01*
X163331920Y-126315533D02*
X162904377Y-124303195D01*
X162904377Y-124303195D02*
X162601320Y-122876778D01*
X162601320Y-122876778D02*
X162121272Y-120617299D01*
X162121272Y-120617299D02*
X161607665Y-118199869D01*
X161607665Y-118199869D02*
X161250916Y-116520732D01*
X161250916Y-116520732D02*
X160695856Y-113908187D01*
X160695856Y-113908187D02*
X159520201Y-108374627D01*
X159520201Y-108374627D02*
X156973068Y-96385795D01*
X156973068Y-96385795D02*
X154299581Y-83802245D01*
X154299581Y-83802245D02*
X152542511Y-75532082D01*
X152542511Y-75532082D02*
X151275232Y-69567272D01*
X151275232Y-69567272D02*
X150463010Y-65744326D01*
X150463010Y-65744326D02*
X149685527Y-62084887D01*
X149685527Y-62084887D02*
X148949098Y-58618685D01*
X148949098Y-58618685D02*
X148260038Y-55375450D01*
X148260038Y-55375450D02*
X147624665Y-52384911D01*
X147624665Y-52384911D02*
X147189190Y-50335246D01*
X147189190Y-50335246D02*
X146917690Y-49057371D01*
X146917690Y-49057371D02*
X146540245Y-47280847D01*
X146540245Y-47280847D02*
X146208197Y-45718002D01*
X146208197Y-45718002D02*
X146009332Y-44782015D01*
X146009332Y-44782015D02*
X145830601Y-43940793D01*
X145830601Y-43940793D02*
X145672792Y-43198050D01*
X145672792Y-43198050D02*
X145536695Y-42557502D01*
X145536695Y-42557502D02*
X145423098Y-42022865D01*
X145423098Y-42022865D02*
X145332794Y-41597856D01*
X145332794Y-41597856D02*
X145281596Y-41356908D01*
X145281596Y-41356908D02*
X145254653Y-41230109D01*
X145254653Y-41230109D02*
X145243789Y-41178982D01*
X165014303Y-135001418D02*
X165052546Y-134987982D01*
X165052546Y-134987982D02*
X165083037Y-134968047D01*
X165083037Y-134968047D02*
X165108026Y-134941973D01*
X165108026Y-134941973D02*
X165126779Y-134910438D01*
X165126779Y-134910438D02*
X165138984Y-134868726D01*
X165138984Y-134868726D02*
X165138473Y-134819093D01*
X165138473Y-134819093D02*
X165137069Y-134811764D01*
X90027491Y-151028818D02*
X90085990Y-151016307D01*
X90085990Y-151016307D02*
X90182278Y-150995723D01*
X90182278Y-150995723D02*
X90314776Y-150967397D01*
X90314776Y-150967397D02*
X90469771Y-150934262D01*
X90469771Y-150934262D02*
X90646897Y-150896398D01*
X90646897Y-150896398D02*
X90845788Y-150853882D01*
X90845788Y-150853882D02*
X91181529Y-150782116D01*
X91181529Y-150782116D02*
X91705516Y-150670111D01*
X91705516Y-150670111D02*
X92153926Y-150574261D01*
X92153926Y-150574261D02*
X92475728Y-150505475D01*
X92475728Y-150505475D02*
X92991996Y-150395125D01*
X92991996Y-150395125D02*
X93748636Y-150233396D01*
X93748636Y-150233396D02*
X94576974Y-150056344D01*
X94576974Y-150056344D02*
X95474083Y-149864592D01*
X95474083Y-149864592D02*
X96437038Y-149658768D01*
X96437038Y-149658768D02*
X97462911Y-149439497D01*
X97462911Y-149439497D02*
X99106341Y-149088231D01*
X99106341Y-149088231D02*
X101500480Y-148576511D01*
X101500480Y-148576511D02*
X103433625Y-148163324D01*
X103433625Y-148163324D02*
X104437324Y-147948795D01*
X104437324Y-147948795D02*
X105119079Y-147803079D01*
X105119079Y-147803079D02*
X106862331Y-147430483D01*
X106862331Y-147430483D02*
X109783221Y-146806183D01*
X109783221Y-146806183D02*
X112832869Y-146154364D01*
X112832869Y-146154364D02*
X117588774Y-145137860D01*
X117588774Y-145137860D02*
X122520248Y-144083832D01*
X122520248Y-144083832D02*
X125850812Y-143371977D01*
X125850812Y-143371977D02*
X130864202Y-142300445D01*
X130864202Y-142300445D02*
X137455041Y-140891760D01*
X137455041Y-140891760D02*
X146826174Y-138888836D01*
X146826174Y-138888836D02*
X153542815Y-137453266D01*
X153542815Y-137453266D02*
X155936806Y-136941590D01*
X155936806Y-136941590D02*
X158108372Y-136477454D01*
X158108372Y-136477454D02*
X160034102Y-136065860D01*
X160034102Y-136065860D02*
X162448583Y-135549804D01*
X162448583Y-135549804D02*
X164102145Y-135196379D01*
X164102145Y-135196379D02*
X164810404Y-135044999D01*
X164810404Y-135044999D02*
X165014303Y-135001418D01*
X89907011Y-151005958D02*
X89940654Y-151022856D01*
X89940654Y-151022856D02*
X89982238Y-151031691D01*
X89982238Y-151031691D02*
X90027491Y-151028818D01*
X89837584Y-150905204D02*
X89850513Y-150942567D01*
X89850513Y-150942567D02*
X89870292Y-150973280D01*
X89870292Y-150973280D02*
X89896287Y-150998429D01*
X89896287Y-150998429D02*
X89907011Y-151005958D01*
X77254085Y-91943592D02*
X77454398Y-92882183D01*
X77454398Y-92882183D02*
X78561989Y-98071935D01*
X78561989Y-98071935D02*
X81285423Y-110832937D01*
X81285423Y-110832937D02*
X85757013Y-131785159D01*
X85757013Y-131785159D02*
X88498106Y-144628910D01*
X88498106Y-144628910D02*
X89389653Y-148806373D01*
X89389653Y-148806373D02*
X89751919Y-150503815D01*
X89751919Y-150503815D02*
X89837584Y-150905204D01*
X77097621Y-91816931D02*
X77141623Y-91823082D01*
X77141623Y-91823082D02*
X77177070Y-91838053D01*
X77177070Y-91838053D02*
X77206624Y-91859830D01*
X77206624Y-91859830D02*
X77229812Y-91886812D01*
X77229812Y-91886812D02*
X77247076Y-91919855D01*
X77247076Y-91919855D02*
X77254085Y-91943592D01*
X74448063Y-91816931D02*
X77097621Y-91816931D01*
X74288043Y-91976950D02*
X74294184Y-91932897D01*
X74294184Y-91932897D02*
X74309210Y-91897366D01*
X74309210Y-91897366D02*
X74330483Y-91868417D01*
X74330483Y-91868417D02*
X74357527Y-91844997D01*
X74357527Y-91844997D02*
X74390550Y-91827581D01*
X74390550Y-91827581D02*
X74431964Y-91817729D01*
X74431964Y-91817729D02*
X74448063Y-91816931D01*
X167700776Y-155170711D02*
X74928123Y-155170711D01*
X168340856Y-154530631D02*
X168339022Y-154579419D01*
X168339022Y-154579419D02*
X168333989Y-154624715D01*
X168333989Y-154624715D02*
X168326129Y-154667785D01*
X168326129Y-154667785D02*
X168315859Y-154708371D01*
X168315859Y-154708371D02*
X168302800Y-154748568D01*
X168302800Y-154748568D02*
X168287991Y-154785764D01*
X168287991Y-154785764D02*
X168271845Y-154820042D01*
X168271845Y-154820042D02*
X168253768Y-154853170D01*
X168253768Y-154853170D02*
X168234370Y-154884275D01*
X168234370Y-154884275D02*
X168212838Y-154914731D01*
X168212838Y-154914731D02*
X168190389Y-154942922D01*
X168190389Y-154942922D02*
X168165598Y-154970659D01*
X168165598Y-154970659D02*
X168140476Y-154995757D01*
X168140476Y-154995757D02*
X168114003Y-155019439D01*
X168114003Y-155019439D02*
X168085473Y-155042219D01*
X168085473Y-155042219D02*
X168055852Y-155063240D01*
X168055852Y-155063240D02*
X168024812Y-155082711D01*
X168024812Y-155082711D02*
X167991541Y-155100978D01*
X167991541Y-155100978D02*
X167957555Y-155117093D01*
X167957555Y-155117093D02*
X167921135Y-155131744D01*
X167921135Y-155131744D02*
X167881052Y-155144952D01*
X167881052Y-155144952D02*
X167840829Y-155155327D01*
X167840829Y-155155327D02*
X167798644Y-155163266D01*
X167798644Y-155163266D02*
X167753513Y-155168563D01*
X167753513Y-155168563D02*
X167704520Y-155170698D01*
X167704520Y-155170698D02*
X167700776Y-155170711D01*
X168340856Y-28810706D02*
X168340856Y-154530631D01*
X167700776Y-28170711D02*
X167751486Y-28172692D01*
X167751486Y-28172692D02*
X167796657Y-28177855D01*
X167796657Y-28177855D02*
X167838888Y-28185673D01*
X167838888Y-28185673D02*
X167880106Y-28196210D01*
X167880106Y-28196210D02*
X167919065Y-28208952D01*
X167919065Y-28208952D02*
X167955995Y-28223689D01*
X167955995Y-28223689D02*
X167990138Y-28239782D01*
X167990138Y-28239782D02*
X168022939Y-28257674D01*
X168022939Y-28257674D02*
X168053945Y-28276987D01*
X168053945Y-28276987D02*
X168083935Y-28298133D01*
X168083935Y-28298133D02*
X168114003Y-28322078D01*
X168114003Y-28322078D02*
X168141174Y-28346429D01*
X168141174Y-28346429D02*
X168166916Y-28372270D01*
X168166916Y-28372270D02*
X168190545Y-28398800D01*
X168190545Y-28398800D02*
X168213704Y-28427966D01*
X168213704Y-28427966D02*
X168235301Y-28458672D01*
X168235301Y-28458672D02*
X168254742Y-28490036D01*
X168254742Y-28490036D02*
X168272338Y-28522463D01*
X168272338Y-28522463D02*
X168288766Y-28557547D01*
X168288766Y-28557547D02*
X168303795Y-28595704D01*
X168303795Y-28595704D02*
X168316132Y-28634064D01*
X168316132Y-28634064D02*
X168326498Y-28675379D01*
X168326498Y-28675379D02*
X168334422Y-28719699D01*
X168334422Y-28719699D02*
X168339263Y-28765270D01*
X168339263Y-28765270D02*
X168340856Y-28810706D01*
X74928123Y-28170711D02*
X167700776Y-28170711D01*
X92533371Y-71606743D02*
X92536300Y-71654089D01*
X92536300Y-71654089D02*
X92527145Y-71695291D01*
X92527145Y-71695291D02*
X92510849Y-71727732D01*
X92409165Y-71797074D02*
X92271656Y-71825404D01*
X92271656Y-71825404D02*
X92095429Y-71861715D01*
X92095429Y-71861715D02*
X91633777Y-71956840D01*
X91633777Y-71956840D02*
X91020180Y-72083276D01*
X91020180Y-72083276D02*
X90547938Y-72180586D01*
X90547938Y-72180586D02*
X89754085Y-72344168D01*
X89754085Y-72344168D02*
X87898869Y-72726457D01*
X87898869Y-72726457D02*
X85022376Y-73319196D01*
X85022376Y-73319196D02*
X81989727Y-73944116D01*
X81989727Y-73944116D02*
X79802679Y-74394786D01*
X79802679Y-74394786D02*
X78447519Y-74674035D01*
X78447519Y-74674035D02*
X77220288Y-74926922D01*
X77220288Y-74926922D02*
X76158091Y-75145801D01*
X76158091Y-75145801D02*
X75499253Y-75281561D01*
X75499253Y-75281561D02*
X75126714Y-75358326D01*
X75126714Y-75358326D02*
X74677214Y-75450950D01*
X74677214Y-75450950D02*
X74480405Y-75491504D01*
X74288043Y-154530631D02*
X74288043Y-91976950D01*
X74475495Y-154983598D02*
X74451051Y-154957710D01*
X74451051Y-154957710D02*
X74427726Y-154930074D01*
X74427726Y-154930074D02*
X74405864Y-154900987D01*
X74405864Y-154900987D02*
X74385749Y-154870806D01*
X74385749Y-154870806D02*
X74366475Y-154837898D01*
X74366475Y-154837898D02*
X74348877Y-154803233D01*
X74348877Y-154803233D02*
X74333651Y-154768159D01*
X74333651Y-154768159D02*
X74320292Y-154731470D01*
X74320292Y-154731470D02*
X74308869Y-154692803D01*
X74308869Y-154692803D02*
X74299515Y-154651477D01*
X74299515Y-154651477D02*
X74292745Y-154608240D01*
X74292745Y-154608240D02*
X74288804Y-154561944D01*
X74288804Y-154561944D02*
X74288043Y-154530631D01*
X74928123Y-155170711D02*
X74879110Y-155168822D01*
X74879110Y-155168822D02*
X74830199Y-155163153D01*
X74830199Y-155163153D02*
X74786853Y-155154884D01*
X74786853Y-155154884D02*
X74746172Y-155144247D01*
X74746172Y-155144247D02*
X74703592Y-155129970D01*
X74703592Y-155129970D02*
X74665698Y-155114379D01*
X74665698Y-155114379D02*
X74631455Y-155097765D01*
X74631455Y-155097765D02*
X74597592Y-155078760D01*
X74597592Y-155078760D02*
X74566795Y-155059021D01*
X74566795Y-155059021D02*
X74537488Y-155037811D01*
X74537488Y-155037811D02*
X74509794Y-155015312D01*
X74509794Y-155015312D02*
X74482932Y-154990875D01*
X74482932Y-154990875D02*
X74475495Y-154983598D01*
X74475495Y-28358163D02*
X74502546Y-28332632D01*
X74502546Y-28332632D02*
X74529733Y-28309754D01*
X74529733Y-28309754D02*
X74561248Y-28286240D01*
X74561248Y-28286240D02*
X74591743Y-28266183D01*
X74591743Y-28266183D02*
X74623693Y-28247707D01*
X74623693Y-28247707D02*
X74658597Y-28230195D01*
X74658597Y-28230195D02*
X74694481Y-28214853D01*
X74694481Y-28214853D02*
X74732174Y-28201422D01*
X74732174Y-28201422D02*
X74771626Y-28190122D01*
X74771626Y-28190122D02*
X74812774Y-28181177D01*
X74812774Y-28181177D02*
X74857505Y-28174611D01*
X74857505Y-28174611D02*
X74904794Y-28171133D01*
X74904794Y-28171133D02*
X74928123Y-28170711D01*
X74288043Y-28810706D02*
X74289919Y-28761697D01*
X74289919Y-28761697D02*
X74295031Y-28716373D01*
X74295031Y-28716373D02*
X74303185Y-28672320D01*
X74303185Y-28672320D02*
X74313779Y-28631062D01*
X74313779Y-28631062D02*
X74326359Y-28592623D01*
X74326359Y-28592623D02*
X74340772Y-28556362D01*
X74340772Y-28556362D02*
X74356928Y-28521909D01*
X74356928Y-28521909D02*
X74374632Y-28489286D01*
X74374632Y-28489286D02*
X74394098Y-28457892D01*
X74394098Y-28457892D02*
X74415107Y-28427984D01*
X74415107Y-28427984D02*
X74437712Y-28399417D01*
X74437712Y-28399417D02*
X74461334Y-28372784D01*
X74461334Y-28372784D02*
X74475495Y-28358163D01*
X74288043Y-75334786D02*
X74288043Y-28810706D01*
X74480405Y-75491504D02*
X74431955Y-75493993D01*
X74431955Y-75493993D02*
X74391482Y-75484459D01*
X74391482Y-75484459D02*
X74358514Y-75467389D01*
X74358514Y-75467389D02*
X74346971Y-75458822D01*
X86949943Y-64220000D02*
X86949615Y-64269944D01*
X86949615Y-64269944D02*
X86948617Y-64320489D01*
X86948617Y-64320489D02*
X86947013Y-64369366D01*
X86947013Y-64369366D02*
X86944827Y-64417339D01*
X86944827Y-64417339D02*
X86941989Y-64465898D01*
X86941989Y-64465898D02*
X86938653Y-64512805D01*
X86938653Y-64512805D02*
X86933590Y-64572136D01*
X86933590Y-64572136D02*
X86928247Y-64625310D01*
X86928247Y-64625310D02*
X86922963Y-64671656D01*
X86922963Y-64671656D02*
X86917314Y-64716367D01*
X86917314Y-64716367D02*
X86910927Y-64762372D01*
X86910927Y-64762372D02*
X86904332Y-64806019D01*
X86904332Y-64806019D02*
X86897110Y-64850225D01*
X86897110Y-64850225D02*
X86889506Y-64893534D01*
X86889506Y-64893534D02*
X86880849Y-64939544D01*
X86880849Y-64939544D02*
X86872225Y-64982498D01*
X86872225Y-64982498D02*
X86863112Y-65025273D01*
X86863112Y-65025273D02*
X86853515Y-65067868D01*
X86853515Y-65067868D02*
X86843435Y-65110277D01*
X86843435Y-65110277D02*
X86832337Y-65154607D01*
X86832337Y-65154607D02*
X86821652Y-65195233D01*
X86821652Y-65195233D02*
X86810527Y-65235678D01*
X86810527Y-65235678D02*
X86799166Y-65275248D01*
X86799166Y-65275248D02*
X86787595Y-65313951D01*
X86787595Y-65313951D02*
X86773875Y-65357966D01*
X86773875Y-65357966D02*
X86760533Y-65399018D01*
X86760533Y-65399018D02*
X86746735Y-65439860D01*
X86746735Y-65439860D02*
X86732482Y-65480493D01*
X86732482Y-65480493D02*
X86719020Y-65517553D01*
X86719020Y-65517553D02*
X86703647Y-65558441D01*
X86703647Y-65558441D02*
X86689130Y-65595780D01*
X86689130Y-65595780D02*
X86674224Y-65632922D01*
X86674224Y-65632922D02*
X86658937Y-65669869D01*
X86658937Y-65669869D02*
X86643265Y-65706616D01*
X86643265Y-65706616D02*
X86627216Y-65743161D01*
X86627216Y-65743161D02*
X86609605Y-65782089D01*
X86609605Y-65782089D02*
X86592777Y-65818210D01*
X86592777Y-65818210D02*
X86575582Y-65854121D01*
X86575582Y-65854121D02*
X86556747Y-65892362D01*
X86556747Y-65892362D02*
X86536195Y-65932881D01*
X86536195Y-65932881D02*
X86516496Y-65970612D01*
X86516496Y-65970612D02*
X86498751Y-66003731D01*
X86498751Y-66003731D02*
X86479997Y-66037886D01*
X86479997Y-66037886D02*
X86461599Y-66070597D01*
X86461599Y-66070597D02*
X86439320Y-66109215D01*
X86439320Y-66109215D02*
X86417689Y-66145725D01*
X86417689Y-66145725D02*
X86398617Y-66177151D01*
X86398617Y-66177151D02*
X86377747Y-66210766D01*
X86377747Y-66210766D02*
X86356533Y-66244148D01*
X86356533Y-66244148D02*
X86336141Y-66275518D01*
X86336141Y-66275518D02*
X86315841Y-66306087D01*
X86315841Y-66306087D02*
X86294051Y-66338191D01*
X86294051Y-66338191D02*
X86273559Y-66367745D01*
X86273559Y-66367745D02*
X86252383Y-66397667D01*
X86252383Y-66397667D02*
X86230925Y-66427374D01*
X86230925Y-66427374D02*
X86208761Y-66457427D01*
X86208761Y-66457427D02*
X86186734Y-66486687D01*
X86186734Y-66486687D02*
X86162703Y-66517952D01*
X86162703Y-66517952D02*
X86138351Y-66548957D01*
X86138351Y-66548957D02*
X86110132Y-66584070D01*
X86110132Y-66584070D02*
X86086903Y-66612344D01*
X86086903Y-66612344D02*
X86059763Y-66644676D01*
X86059763Y-66644676D02*
X86036416Y-66671918D01*
X86036416Y-66671918D02*
X86011882Y-66699987D01*
X86011882Y-66699987D02*
X85987548Y-66727285D01*
X85987548Y-66727285D02*
X85962951Y-66754346D01*
X85962951Y-66754346D02*
X85938096Y-66781164D01*
X85938096Y-66781164D02*
X85912986Y-66807740D01*
X85912986Y-66807740D02*
X85887616Y-66834068D01*
X85887616Y-66834068D02*
X85854064Y-66868127D01*
X85854064Y-66868127D02*
X85828116Y-66893882D01*
X85828116Y-66893882D02*
X85799893Y-66921336D01*
X85799893Y-66921336D02*
X85773432Y-66946566D01*
X85773432Y-66946566D02*
X85747240Y-66971061D01*
X85747240Y-66971061D02*
X85719778Y-66996258D01*
X85719778Y-66996258D02*
X85690486Y-67022583D01*
X85690486Y-67022583D02*
X85663042Y-67046756D01*
X85663042Y-67046756D02*
X85635359Y-67070666D01*
X85635359Y-67070666D02*
X85607443Y-67094309D01*
X85607443Y-67094309D02*
X85579295Y-67117687D01*
X85579295Y-67117687D02*
X85550916Y-67140792D01*
X85550916Y-67140792D02*
X85517888Y-67167112D01*
X85517888Y-67167112D02*
X85489018Y-67189630D01*
X85489018Y-67189630D02*
X85459927Y-67211872D01*
X85459927Y-67211872D02*
X85430613Y-67233833D01*
X85430613Y-67233833D02*
X85401650Y-67255101D01*
X85401650Y-67255101D02*
X85371328Y-67276917D01*
X85371328Y-67276917D02*
X85341938Y-67297628D01*
X85341938Y-67297628D02*
X85311761Y-67318461D01*
X85311761Y-67318461D02*
X85280784Y-67339402D01*
X85280784Y-67339402D02*
X85250177Y-67359654D01*
X85250177Y-67359654D02*
X85218771Y-67379993D01*
X85218771Y-67379993D02*
X85185951Y-67400777D01*
X85185951Y-67400777D02*
X85154712Y-67420124D01*
X85154712Y-67420124D02*
X85118416Y-67442074D01*
X85118416Y-67442074D02*
X85081853Y-67463625D01*
X85081853Y-67463625D02*
X85049338Y-67482327D01*
X85049338Y-67482327D02*
X85015382Y-67501401D01*
X85015382Y-67501401D02*
X84982457Y-67519455D01*
X84982457Y-67519455D02*
X84945567Y-67539175D01*
X84945567Y-67539175D02*
X84905278Y-67560114D01*
X84905278Y-67560114D02*
X84865342Y-67580260D01*
X84865342Y-67580260D02*
X84826416Y-67599327D01*
X84826416Y-67599327D02*
X84787883Y-67617652D01*
X84787883Y-67617652D02*
X84751704Y-67634371D01*
X84751704Y-67634371D02*
X84715318Y-67650715D01*
X84715318Y-67650715D02*
X84678731Y-67666684D01*
X84678731Y-67666684D02*
X84642599Y-67681997D01*
X84642599Y-67681997D02*
X84606937Y-67696673D01*
X84606937Y-67696673D02*
X84565104Y-67713344D01*
X84565104Y-67713344D02*
X84528380Y-67727497D01*
X84528380Y-67727497D02*
X84485416Y-67743497D01*
X84485416Y-67743497D02*
X84446946Y-67757312D01*
X84446946Y-67757312D02*
X84406241Y-67771413D01*
X84406241Y-67771413D02*
X84365327Y-67785058D01*
X84365327Y-67785058D02*
X84326955Y-67797381D01*
X84326955Y-67797381D02*
X84285643Y-67810136D01*
X84285643Y-67810136D02*
X84246904Y-67821622D01*
X84246904Y-67821622D02*
X84207295Y-67832893D01*
X84207295Y-67832893D02*
X84166812Y-67843926D01*
X84166812Y-67843926D02*
X84126150Y-67854519D01*
X84126150Y-67854519D02*
X84085309Y-67864663D01*
X84085309Y-67864663D02*
X84044296Y-67874360D01*
X84044296Y-67874360D02*
X83999552Y-67884384D01*
X83999552Y-67884384D02*
X83957468Y-67893285D01*
X83957468Y-67893285D02*
X83913775Y-67901989D01*
X83913775Y-67901989D02*
X83870624Y-67910056D01*
X83870624Y-67910056D02*
X83827302Y-67917627D01*
X83827302Y-67917627D02*
X83780906Y-67925156D01*
X83780906Y-67925156D02*
X83737241Y-67931693D01*
X83737241Y-67931693D02*
X83690485Y-67938113D01*
X83690485Y-67938113D02*
X83641344Y-67944214D01*
X83641344Y-67944214D02*
X83593484Y-67949527D01*
X83593484Y-67949527D02*
X83537299Y-67954971D01*
X83537299Y-67954971D02*
X83489803Y-67958911D01*
X83489803Y-67958911D02*
X83433185Y-67962818D01*
X83433185Y-67962818D02*
X83385331Y-67965458D01*
X83385331Y-67965458D02*
X83337320Y-67967494D01*
X83337320Y-67967494D02*
X83288404Y-67968943D01*
X83288404Y-67968943D02*
X83237821Y-67969781D01*
X83237821Y-67969781D02*
X83199971Y-67969971D01*
X83199971Y-60470028D02*
X83249915Y-60470352D01*
X83249915Y-60470352D02*
X83307237Y-60471533D01*
X83307237Y-60471533D02*
X83358344Y-60473315D01*
X83358344Y-60473315D02*
X83407034Y-60475656D01*
X83407034Y-60475656D02*
X83454814Y-60478565D01*
X83454814Y-60478565D02*
X83501693Y-60482011D01*
X83501693Y-60482011D02*
X83549148Y-60486099D01*
X83549148Y-60486099D02*
X83598646Y-60491008D01*
X83598646Y-60491008D02*
X83645751Y-60496297D01*
X83645751Y-60496297D02*
X83693412Y-60502261D01*
X83693412Y-60502261D02*
X83740156Y-60508717D01*
X83740156Y-60508717D02*
X83783812Y-60515290D01*
X83783812Y-60515290D02*
X83830196Y-60522852D01*
X83830196Y-60522852D02*
X83873505Y-60530457D01*
X83873505Y-60530457D02*
X83915928Y-60538418D01*
X83915928Y-60538418D02*
X83959611Y-60547150D01*
X83959611Y-60547150D02*
X84005244Y-60556851D01*
X84005244Y-60556851D02*
X84047839Y-60566449D01*
X84047839Y-60566449D02*
X84090248Y-60576529D01*
X84090248Y-60576529D02*
X84135281Y-60587809D01*
X84135281Y-60587809D02*
X84177300Y-60598874D01*
X84177300Y-60598874D02*
X84217040Y-60609824D01*
X84217040Y-60609824D02*
X84260066Y-60622219D01*
X84260066Y-60622219D02*
X84298747Y-60633841D01*
X84298747Y-60633841D02*
X84340680Y-60646963D01*
X84340680Y-60646963D02*
X84378989Y-60659428D01*
X84378989Y-60659428D02*
X84419832Y-60673225D01*
X84419832Y-60673225D02*
X84463167Y-60688445D01*
X84463167Y-60688445D02*
X84502900Y-60702931D01*
X84502900Y-60702931D02*
X84541087Y-60717338D01*
X84541087Y-60717338D02*
X84578411Y-60731885D01*
X84578411Y-60731885D02*
X84615540Y-60746819D01*
X84615540Y-60746819D02*
X84652472Y-60762134D01*
X84652472Y-60762134D02*
X84691167Y-60778683D01*
X84691167Y-60778683D02*
X84728337Y-60795069D01*
X84728337Y-60795069D02*
X84764002Y-60811250D01*
X84764002Y-60811250D02*
X84800753Y-60828399D01*
X84800753Y-60828399D02*
X84836012Y-60845311D01*
X84836012Y-60845311D02*
X84870428Y-60862260D01*
X84870428Y-60862260D02*
X84905278Y-60879877D01*
X84905278Y-60879877D02*
X84939918Y-60897841D01*
X84939918Y-60897841D02*
X84973102Y-60915484D01*
X84973102Y-60915484D02*
X85007946Y-60934474D01*
X85007946Y-60934474D02*
X85041949Y-60953471D01*
X85041949Y-60953471D02*
X85074509Y-60972100D01*
X85074509Y-60972100D02*
X85108692Y-60992128D01*
X85108692Y-60992128D02*
X85140227Y-61011038D01*
X85140227Y-61011038D02*
X85171557Y-61030246D01*
X85171557Y-61030246D02*
X85202687Y-61049752D01*
X85202687Y-61049752D02*
X85234205Y-61069936D01*
X85234205Y-61069936D02*
X85266683Y-61091204D01*
X85266683Y-61091204D02*
X85299513Y-61113195D01*
X85299513Y-61113195D02*
X85329777Y-61133913D01*
X85329777Y-61133913D02*
X85359827Y-61154918D01*
X85359827Y-61154918D02*
X85389663Y-61176209D01*
X85389663Y-61176209D02*
X85423818Y-61201127D01*
X85423818Y-61201127D02*
X85452620Y-61222602D01*
X85452620Y-61222602D02*
X85483999Y-61246491D01*
X85483999Y-61246491D02*
X85515675Y-61271136D01*
X85515675Y-61271136D02*
X85543784Y-61293463D01*
X85543784Y-61293463D02*
X85581469Y-61324093D01*
X85581469Y-61324093D02*
X85609058Y-61347036D01*
X85609058Y-61347036D02*
X85643902Y-61376653D01*
X85643902Y-61376653D02*
X85671512Y-61400644D01*
X85671512Y-61400644D02*
X85698883Y-61424898D01*
X85698883Y-61424898D02*
X85725497Y-61448941D01*
X85725497Y-61448941D02*
X85754455Y-61475628D01*
X85754455Y-61475628D02*
X85787712Y-61506979D01*
X85787712Y-61506979D02*
X85816055Y-61534309D01*
X85816055Y-61534309D02*
X85842119Y-61559948D01*
X85842119Y-61559948D02*
X85867933Y-61585838D01*
X85867933Y-61585838D02*
X85893003Y-61611471D01*
X85893003Y-61611471D02*
X85920253Y-61639893D01*
X85920253Y-61639893D02*
X85949599Y-61671174D01*
X85949599Y-61671174D02*
X85974338Y-61698106D01*
X85974338Y-61698106D02*
X85998812Y-61725275D01*
X85998812Y-61725275D02*
X86023026Y-61752684D01*
X86023026Y-61752684D02*
X86046978Y-61780328D01*
X86046978Y-61780328D02*
X86075637Y-61814135D01*
X86075637Y-61814135D02*
X86100784Y-61844474D01*
X86100784Y-61844474D02*
X86124294Y-61873431D01*
X86124294Y-61873431D02*
X86147084Y-61902074D01*
X86147084Y-61902074D02*
X86169602Y-61930940D01*
X86169602Y-61930940D02*
X86196511Y-61966215D01*
X86196511Y-61966215D02*
X86220507Y-61998411D01*
X86220507Y-61998411D02*
X86243752Y-62030299D01*
X86243752Y-62030299D02*
X86265043Y-62060135D01*
X86265043Y-62060135D02*
X86287251Y-62091924D01*
X86287251Y-62091924D02*
X86311510Y-62127465D01*
X86311510Y-62127465D02*
X86332260Y-62158577D01*
X86332260Y-62158577D02*
X86355004Y-62193467D01*
X86355004Y-62193467D02*
X86374737Y-62224438D01*
X86374737Y-62224438D02*
X86394174Y-62255615D01*
X86394174Y-62255615D02*
X86413314Y-62286994D01*
X86413314Y-62286994D02*
X86432154Y-62318574D01*
X86432154Y-62318574D02*
X86452107Y-62352806D01*
X86452107Y-62352806D02*
X86471357Y-62386645D01*
X86471357Y-62386645D02*
X86489588Y-62419465D01*
X86489588Y-62419465D02*
X86508500Y-62454356D01*
X86508500Y-62454356D02*
X86526725Y-62488839D01*
X86526725Y-62488839D02*
X86544924Y-62524167D01*
X86544924Y-62524167D02*
X86563071Y-62560347D01*
X86563071Y-62560347D02*
X86580225Y-62595469D01*
X86580225Y-62595469D02*
X86596717Y-62630146D01*
X86596717Y-62630146D02*
X86613161Y-62665668D01*
X86613161Y-62665668D02*
X86629242Y-62701388D01*
X86629242Y-62701388D02*
X86645245Y-62737958D01*
X86645245Y-62737958D02*
X86661144Y-62775390D01*
X86661144Y-62775390D02*
X86676376Y-62812364D01*
X86676376Y-62812364D02*
X86692272Y-62852196D01*
X86692272Y-62852196D02*
X86706709Y-62889576D01*
X86706709Y-62889576D02*
X86726411Y-62942629D01*
X86726411Y-62942629D02*
X86741088Y-62983850D01*
X86741088Y-62983850D02*
X86753920Y-63021206D01*
X86753920Y-63021206D02*
X86766593Y-63059422D01*
X86766593Y-63059422D02*
X86778865Y-63097818D01*
X86778865Y-63097818D02*
X86792603Y-63142605D01*
X86792603Y-63142605D02*
X86804001Y-63181381D01*
X86804001Y-63181381D02*
X86815761Y-63223116D01*
X86815761Y-63223116D02*
X86827050Y-63265048D01*
X86827050Y-63265048D02*
X86837863Y-63307172D01*
X86837863Y-63307172D02*
X86848703Y-63351602D01*
X86848703Y-63351602D02*
X86858212Y-63392687D01*
X86858212Y-63392687D02*
X86867425Y-63434658D01*
X86867425Y-63434658D02*
X86876311Y-63477518D01*
X86876311Y-63477518D02*
X86884568Y-63519832D01*
X86884568Y-63519832D02*
X86892989Y-63565924D01*
X86892989Y-63565924D02*
X86900489Y-63610036D01*
X86900489Y-63610036D02*
X86907804Y-63656503D01*
X86907804Y-63656503D02*
X86914443Y-63702424D01*
X86914443Y-63702424D02*
X86920344Y-63747059D01*
X86920344Y-63747059D02*
X86925718Y-63791854D01*
X86925718Y-63791854D02*
X86930715Y-63838289D01*
X86930715Y-63838289D02*
X86935206Y-63885627D01*
X86935206Y-63885627D02*
X86939110Y-63933136D01*
X86939110Y-63933136D02*
X86942927Y-63989017D01*
X86942927Y-63989017D02*
X86945575Y-64037628D01*
X86945575Y-64037628D02*
X86947573Y-64085649D01*
X86947573Y-64085649D02*
X86949034Y-64136838D01*
X86949034Y-64136838D02*
X86949808Y-64188194D01*
X86949808Y-64188194D02*
X86949943Y-64220000D01*
X162002709Y-138796178D02*
X162002709Y-138796178D01*
X79288117Y-110428611D02*
X79286911Y-110478120D01*
X79286911Y-110478120D02*
X79283489Y-110525432D01*
X79283489Y-110525432D02*
X79278121Y-110570549D01*
X79278121Y-110570549D02*
X79270343Y-110617333D01*
X79270343Y-110617333D02*
X79260966Y-110661091D01*
X79260966Y-110661091D02*
X79250446Y-110701523D01*
X79250446Y-110701523D02*
X79237823Y-110742729D01*
X79237823Y-110742729D02*
X79224575Y-110780299D01*
X79224575Y-110780299D02*
X79210338Y-110816115D01*
X79210338Y-110816115D02*
X79194777Y-110851232D01*
X79194777Y-110851232D02*
X79176364Y-110888654D01*
X79176364Y-110888654D02*
X79158143Y-110922225D01*
X79158143Y-110922225D02*
X79138897Y-110954685D01*
X79138897Y-110954685D02*
X79118483Y-110986344D01*
X79118483Y-110986344D02*
X79096040Y-111018380D01*
X79096040Y-111018380D02*
X79072633Y-111049187D01*
X79072633Y-111049187D02*
X79049543Y-111077334D01*
X79049543Y-111077334D02*
X79025593Y-111104471D01*
X79025593Y-111104471D02*
X79001223Y-111130187D01*
X79001223Y-111130187D02*
X78975285Y-111155671D01*
X78975285Y-111155671D02*
X78948725Y-111179954D01*
X78948725Y-111179954D02*
X78918987Y-111205181D01*
X78918987Y-111205181D02*
X78890669Y-111227440D01*
X78890669Y-111227440D02*
X78861550Y-111248684D01*
X78861550Y-111248684D02*
X78830708Y-111269503D01*
X78830708Y-111269503D02*
X78795830Y-111291113D01*
X78795830Y-111291113D02*
X78763518Y-111309426D01*
X78763518Y-111309426D02*
X78729461Y-111327056D01*
X78729461Y-111327056D02*
X78691024Y-111345017D01*
X78691024Y-111345017D02*
X78655095Y-111360043D01*
X78655095Y-111360043D02*
X78618477Y-111373686D01*
X78618477Y-111373686D02*
X78579557Y-111386423D01*
X78579557Y-111386423D02*
X78539588Y-111397678D01*
X78539588Y-111397678D02*
X78498779Y-111407329D01*
X78498779Y-111407329D02*
X78456201Y-111415479D01*
X78456201Y-111415479D02*
X78411649Y-111421963D01*
X78411649Y-111421963D02*
X78366101Y-111426481D01*
X78366101Y-111426481D02*
X78316387Y-111429021D01*
X78316387Y-111429021D02*
X78289896Y-111429371D01*
X78289896Y-109428698D02*
X78339134Y-109429899D01*
X78339134Y-109429899D02*
X78385807Y-109433285D01*
X78385807Y-109433285D02*
X78431484Y-109438747D01*
X78431484Y-109438747D02*
X78474609Y-109445896D01*
X78474609Y-109445896D02*
X78515970Y-109454615D01*
X78515970Y-109454615D02*
X78556322Y-109464930D01*
X78556322Y-109464930D02*
X78595645Y-109476758D01*
X78595645Y-109476758D02*
X78632848Y-109489620D01*
X78632848Y-109489620D02*
X78671131Y-109504623D01*
X78671131Y-109504623D02*
X78706572Y-109520187D01*
X78706572Y-109520187D02*
X78740280Y-109536558D01*
X78740280Y-109536558D02*
X78774920Y-109555065D01*
X78774920Y-109555065D02*
X78807455Y-109574093D01*
X78807455Y-109574093D02*
X78839200Y-109594300D01*
X78839200Y-109594300D02*
X78870125Y-109615654D01*
X78870125Y-109615654D02*
X78899012Y-109637207D01*
X78899012Y-109637207D02*
X78932837Y-109664585D01*
X78932837Y-109664585D02*
X78960038Y-109688446D01*
X78960038Y-109688446D02*
X78986093Y-109712997D01*
X78986093Y-109712997D02*
X79011390Y-109738593D01*
X79011390Y-109738593D02*
X79035886Y-109765217D01*
X79035886Y-109765217D02*
X79060142Y-109793589D01*
X79060142Y-109793589D02*
X79082546Y-109821809D01*
X79082546Y-109821809D02*
X79104162Y-109851149D01*
X79104162Y-109851149D02*
X79125964Y-109883177D01*
X79125964Y-109883177D02*
X79145379Y-109914132D01*
X79145379Y-109914132D02*
X79164781Y-109947816D01*
X79164781Y-109947816D02*
X79182385Y-109981286D01*
X79182385Y-109981286D02*
X79198592Y-110015140D01*
X79198592Y-110015140D02*
X79214418Y-110051792D01*
X79214418Y-110051792D02*
X79228676Y-110088816D01*
X79228676Y-110088816D02*
X79241373Y-110126163D01*
X79241373Y-110126163D02*
X79252823Y-110164892D01*
X79252823Y-110164892D02*
X79262994Y-110205386D01*
X79262994Y-110205386D02*
X79271777Y-110248041D01*
X79271777Y-110248041D02*
X79278722Y-110291330D01*
X79278722Y-110291330D02*
X79284041Y-110337972D01*
X79284041Y-110337972D02*
X79287220Y-110386027D01*
X79287220Y-110386027D02*
X79288117Y-110428611D01*
X77288121Y-110428611D02*
X77289302Y-110379639D01*
X77289302Y-110379639D02*
X77292896Y-110330482D01*
X77292896Y-110330482D02*
X77298386Y-110285110D01*
X77298386Y-110285110D02*
X77305671Y-110241524D01*
X77305671Y-110241524D02*
X77314645Y-110199346D01*
X77314645Y-110199346D02*
X77325063Y-110158948D01*
X77325063Y-110158948D02*
X77336992Y-110119589D01*
X77336992Y-110119589D02*
X77350214Y-110081641D01*
X77350214Y-110081641D02*
X77365348Y-110043349D01*
X77365348Y-110043349D02*
X77380709Y-110008589D01*
X77380709Y-110008589D02*
X77397344Y-109974534D01*
X77397344Y-109974534D02*
X77415217Y-109941212D01*
X77415217Y-109941212D02*
X77433709Y-109909618D01*
X77433709Y-109909618D02*
X77454561Y-109876889D01*
X77454561Y-109876889D02*
X77475094Y-109847169D01*
X77475094Y-109847169D02*
X77496889Y-109817940D01*
X77496889Y-109817940D02*
X77520195Y-109788964D01*
X77520195Y-109788964D02*
X77543789Y-109761719D01*
X77543789Y-109761719D02*
X77568335Y-109735344D01*
X77568335Y-109735344D02*
X77597054Y-109706740D01*
X77597054Y-109706740D02*
X77623533Y-109682295D01*
X77623533Y-109682295D02*
X77650884Y-109658803D01*
X77650884Y-109658803D02*
X77679076Y-109636289D01*
X77679076Y-109636289D02*
X77711769Y-109612161D01*
X77711769Y-109612161D02*
X77741664Y-109591814D01*
X77741664Y-109591814D02*
X77773614Y-109571746D01*
X77773614Y-109571746D02*
X77806360Y-109552862D01*
X77806360Y-109552862D02*
X77839529Y-109535361D01*
X77839529Y-109535361D02*
X77876536Y-109517657D01*
X77876536Y-109517657D02*
X77911886Y-109502449D01*
X77911886Y-109502449D02*
X77950443Y-109487656D01*
X77950443Y-109487656D02*
X77988278Y-109474889D01*
X77988278Y-109474889D02*
X78029760Y-109462795D01*
X78029760Y-109462795D02*
X78070444Y-109452803D01*
X78070444Y-109452803D02*
X78114459Y-109444002D01*
X78114459Y-109444002D02*
X78158363Y-109437251D01*
X78158363Y-109437251D02*
X78204063Y-109432319D01*
X78204063Y-109432319D02*
X78251963Y-109429400D01*
X78251963Y-109429400D02*
X78289896Y-109428698D01*
X78289896Y-111429371D02*
X78240734Y-111428186D01*
X78240734Y-111428186D02*
X78192977Y-111424749D01*
X78192977Y-111424749D02*
X78147427Y-111419331D01*
X78147427Y-111419331D02*
X78104446Y-111412264D01*
X78104446Y-111412264D02*
X78062861Y-111403575D01*
X78062861Y-111403575D02*
X78021366Y-111393030D01*
X78021366Y-111393030D02*
X77980767Y-111380842D01*
X77980767Y-111380842D02*
X77943246Y-111367869D01*
X77943246Y-111367869D02*
X77906591Y-111353541D01*
X77906591Y-111353541D02*
X77871346Y-111338151D01*
X77871346Y-111338151D02*
X77837160Y-111321635D01*
X77837160Y-111321635D02*
X77801563Y-111302685D01*
X77801563Y-111302685D02*
X77769739Y-111284131D01*
X77769739Y-111284131D02*
X77737885Y-111263937D01*
X77737885Y-111263937D02*
X77707779Y-111243250D01*
X77707779Y-111243250D02*
X77677884Y-111221050D01*
X77677884Y-111221050D02*
X77649726Y-111198502D01*
X77649726Y-111198502D02*
X77621572Y-111174221D01*
X77621572Y-111174221D02*
X77595292Y-111149842D01*
X77595292Y-111149842D02*
X77570161Y-111124818D01*
X77570161Y-111124818D02*
X77545043Y-111097944D01*
X77545043Y-111097944D02*
X77521038Y-111070305D01*
X77521038Y-111070305D02*
X77498503Y-111042389D01*
X77498503Y-111042389D02*
X77477071Y-111013815D01*
X77477071Y-111013815D02*
X77454561Y-110981333D01*
X77454561Y-110981333D02*
X77434495Y-110949867D01*
X77434495Y-110949867D02*
X77414479Y-110915639D01*
X77414479Y-110915639D02*
X77396654Y-110882255D01*
X77396654Y-110882255D02*
X77378798Y-110845371D01*
X77378798Y-110845371D02*
X77363591Y-110810486D01*
X77363591Y-110810486D02*
X77349288Y-110773847D01*
X77349288Y-110773847D02*
X77336163Y-110735793D01*
X77336163Y-110735793D02*
X77324595Y-110697249D01*
X77324595Y-110697249D02*
X77314291Y-110656937D01*
X77314291Y-110656937D02*
X77305527Y-110615414D01*
X77305527Y-110615414D02*
X77298386Y-110572496D01*
X77298386Y-110572496D02*
X77292935Y-110527406D01*
X77292935Y-110527406D02*
X77289381Y-110479322D01*
X77289381Y-110479322D02*
X77288121Y-110428611D01*
X86733958Y-147887684D02*
X86733958Y-147887684D01*
X163000929Y-137795418D02*
X162999722Y-137844927D01*
X162999722Y-137844927D02*
X162996299Y-137892239D01*
X162996299Y-137892239D02*
X162990928Y-137937356D01*
X162990928Y-137937356D02*
X162983437Y-137982605D01*
X162983437Y-137982605D02*
X162974522Y-138024688D01*
X162974522Y-138024688D02*
X162963970Y-138065730D01*
X162963970Y-138065730D02*
X162952283Y-138104428D01*
X162952283Y-138104428D02*
X162939225Y-138142090D01*
X162939225Y-138142090D02*
X162924876Y-138178702D01*
X162924876Y-138178702D02*
X162908987Y-138214939D01*
X162908987Y-138214939D02*
X162892416Y-138249062D01*
X162892416Y-138249062D02*
X162874516Y-138282610D01*
X162874516Y-138282610D02*
X162854809Y-138316353D01*
X162854809Y-138316353D02*
X162834573Y-138348140D01*
X162834573Y-138348140D02*
X162814067Y-138377874D01*
X162814067Y-138377874D02*
X162791844Y-138407711D01*
X162791844Y-138407711D02*
X162769040Y-138436105D01*
X162769040Y-138436105D02*
X162745491Y-138463356D01*
X162745491Y-138463356D02*
X162721256Y-138489465D01*
X162721256Y-138489465D02*
X162694504Y-138516260D01*
X162694504Y-138516260D02*
X162668578Y-138540403D01*
X162668578Y-138540403D02*
X162640951Y-138564349D01*
X162640951Y-138564349D02*
X162612755Y-138587052D01*
X162612755Y-138587052D02*
X162583741Y-138608744D01*
X162583741Y-138608744D02*
X162554092Y-138629287D01*
X162554092Y-138629287D02*
X162522724Y-138649364D01*
X162522724Y-138649364D02*
X162491236Y-138667918D01*
X162491236Y-138667918D02*
X162458362Y-138685684D01*
X162458362Y-138685684D02*
X162424428Y-138702400D01*
X162424428Y-138702400D02*
X162388743Y-138718294D01*
X162388743Y-138718294D02*
X162351632Y-138733078D01*
X162351632Y-138733078D02*
X162311637Y-138747115D01*
X162311637Y-138747115D02*
X162273119Y-138758851D01*
X162273119Y-138758851D02*
X162231337Y-138769676D01*
X162231337Y-138769676D02*
X162188880Y-138778711D01*
X162188880Y-138778711D02*
X162145404Y-138785971D01*
X162145404Y-138785971D02*
X162100544Y-138791403D01*
X162100544Y-138791403D02*
X162053119Y-138794915D01*
X162053119Y-138794915D02*
X162003513Y-138796177D01*
X162003513Y-138796177D02*
X162002709Y-138796178D01*
X162002709Y-136795504D02*
X162051528Y-136796685D01*
X162051528Y-136796685D02*
X162098580Y-136800083D01*
X162098580Y-136800083D02*
X162145984Y-136805785D01*
X162145984Y-136805785D02*
X162188880Y-136812960D01*
X162188880Y-136812960D02*
X162232276Y-136822215D01*
X162232276Y-136822215D02*
X162273119Y-136832818D01*
X162273119Y-136832818D02*
X162312728Y-136844908D01*
X162312728Y-136844908D02*
X162350205Y-136858051D01*
X162350205Y-136858051D02*
X162386642Y-136872485D01*
X162386642Y-136872485D02*
X162423056Y-136888613D01*
X162423056Y-136888613D02*
X162457019Y-136905274D01*
X162457019Y-136905274D02*
X162490251Y-136923169D01*
X162490251Y-136923169D02*
X162522403Y-136942075D01*
X162522403Y-136942075D02*
X162553153Y-136961718D01*
X162553153Y-136961718D02*
X162583132Y-136982440D01*
X162583132Y-136982440D02*
X162612905Y-137004674D01*
X162612905Y-137004674D02*
X162640951Y-137027254D01*
X162640951Y-137027254D02*
X162668159Y-137050810D01*
X162668159Y-137050810D02*
X162697735Y-137078445D01*
X162697735Y-137078445D02*
X162723073Y-137103987D01*
X162723073Y-137103987D02*
X162747490Y-137130425D01*
X162747490Y-137130425D02*
X162770959Y-137157729D01*
X162770959Y-137157729D02*
X162793221Y-137185574D01*
X162793221Y-137185574D02*
X162814942Y-137214831D01*
X162814942Y-137214831D02*
X162835404Y-137244576D01*
X162835404Y-137244576D02*
X162855595Y-137276372D01*
X162855595Y-137276372D02*
X162874056Y-137307972D01*
X162874056Y-137307972D02*
X162891728Y-137340968D01*
X162891728Y-137340968D02*
X162908348Y-137375028D01*
X162908348Y-137375028D02*
X162924144Y-137410852D01*
X162924144Y-137410852D02*
X162938827Y-137448107D01*
X162938827Y-137448107D02*
X162951926Y-137485708D01*
X162951926Y-137485708D02*
X162963657Y-137524343D01*
X162963657Y-137524343D02*
X162974032Y-137564376D01*
X162974032Y-137564376D02*
X162983073Y-137606568D01*
X162983073Y-137606568D02*
X162990425Y-137650174D01*
X162990425Y-137650174D02*
X162995951Y-137695183D01*
X162995951Y-137695183D02*
X162999664Y-137744777D01*
X162999664Y-137744777D02*
X163000928Y-137795013D01*
X163000928Y-137795013D02*
X163000929Y-137795418D01*
X161001103Y-137795418D02*
X161002273Y-137746572D01*
X161002273Y-137746572D02*
X161005720Y-137698731D01*
X161005720Y-137698731D02*
X161011302Y-137652116D01*
X161011302Y-137652116D02*
X161018563Y-137608483D01*
X161018563Y-137608483D02*
X161027334Y-137567017D01*
X161027334Y-137567017D02*
X161037697Y-137526571D01*
X161037697Y-137526571D02*
X161049451Y-137487532D01*
X161049451Y-137487532D02*
X161062606Y-137449541D01*
X161062606Y-137449541D02*
X161077084Y-137412609D01*
X161077084Y-137412609D02*
X161092332Y-137377784D01*
X161092332Y-137377784D02*
X161109538Y-137342315D01*
X161109538Y-137342315D02*
X161127349Y-137308960D01*
X161127349Y-137308960D02*
X161145782Y-137277338D01*
X161145782Y-137277338D02*
X161165741Y-137245833D01*
X161165741Y-137245833D02*
X161186391Y-137215749D01*
X161186391Y-137215749D02*
X161208558Y-137185871D01*
X161208558Y-137185871D02*
X161231077Y-137157729D01*
X161231077Y-137157729D02*
X161254575Y-137130425D01*
X161254575Y-137130425D02*
X161279031Y-137103987D01*
X161279031Y-137103987D02*
X161304414Y-137078445D01*
X161304414Y-137078445D02*
X161330699Y-137053822D01*
X161330699Y-137053822D02*
X161358721Y-137029421D01*
X161358721Y-137029421D02*
X161391808Y-137002837D01*
X161391808Y-137002837D02*
X161423263Y-136979602D01*
X161423263Y-136979602D02*
X161453119Y-136959230D01*
X161453119Y-136959230D02*
X161485028Y-136939136D01*
X161485028Y-136939136D02*
X161517240Y-136920498D01*
X161517240Y-136920498D02*
X161550873Y-136902695D01*
X161550873Y-136902695D02*
X161586808Y-136885432D01*
X161586808Y-136885432D02*
X161623169Y-136869718D01*
X161623169Y-136869718D02*
X161660259Y-136855411D01*
X161660259Y-136855411D02*
X161698046Y-136842548D01*
X161698046Y-136842548D02*
X161737614Y-136830858D01*
X161737614Y-136830858D02*
X161778229Y-136820681D01*
X161778229Y-136820681D02*
X161819869Y-136812101D01*
X161819869Y-136812101D02*
X161863683Y-136805043D01*
X161863683Y-136805043D02*
X161908905Y-136799822D01*
X161908905Y-136799822D02*
X161956725Y-136796535D01*
X161956725Y-136796535D02*
X162002709Y-136795504D01*
X162002709Y-138796178D02*
X161953519Y-138794993D01*
X161953519Y-138794993D02*
X161906727Y-138791650D01*
X161906727Y-138791650D02*
X161861341Y-138786303D01*
X161861341Y-138786303D02*
X161818330Y-138779287D01*
X161818330Y-138779287D02*
X161774440Y-138770117D01*
X161774440Y-138770117D02*
X161734073Y-138759837D01*
X161734073Y-138759837D02*
X161693468Y-138747649D01*
X161693468Y-138747649D02*
X161655942Y-138734676D01*
X161655942Y-138734676D02*
X161619287Y-138720348D01*
X161619287Y-138720348D02*
X161584043Y-138704958D01*
X161584043Y-138704958D02*
X161549858Y-138688442D01*
X161549858Y-138688442D02*
X161514266Y-138669492D01*
X161514266Y-138669492D02*
X161482447Y-138650938D01*
X161482447Y-138650938D02*
X161449658Y-138630120D01*
X161449658Y-138630120D02*
X161418361Y-138608525D01*
X161418361Y-138608525D02*
X161389428Y-138586938D01*
X161389428Y-138586938D02*
X161360449Y-138563626D01*
X161360449Y-138563626D02*
X161332929Y-138539776D01*
X161332929Y-138539776D02*
X161306571Y-138515218D01*
X161306571Y-138515218D02*
X161281372Y-138490006D01*
X161281372Y-138490006D02*
X161256578Y-138463356D01*
X161256578Y-138463356D02*
X161232998Y-138436105D01*
X161232998Y-138436105D02*
X161210626Y-138408306D01*
X161210626Y-138408306D02*
X161188800Y-138379097D01*
X161188800Y-138379097D02*
X161167403Y-138348140D01*
X161167403Y-138348140D02*
X161147352Y-138316674D01*
X161147352Y-138316674D02*
X161128826Y-138285084D01*
X161128826Y-138285084D02*
X161110918Y-138251760D01*
X161110918Y-138251760D02*
X161094407Y-138218039D01*
X161094407Y-138218039D02*
X161078846Y-138182922D01*
X161078846Y-138182922D02*
X161064537Y-138146926D01*
X161064537Y-138146926D02*
X161051480Y-138109902D01*
X161051480Y-138109902D02*
X161039583Y-138071297D01*
X161039583Y-138071297D02*
X161029129Y-138031669D01*
X161029129Y-138031669D02*
X161020045Y-137990270D01*
X161020045Y-137990270D02*
X161012569Y-137947472D01*
X161012569Y-137947472D02*
X161006799Y-137902887D01*
X161006799Y-137902887D02*
X161002885Y-137855715D01*
X161002885Y-137855715D02*
X161001159Y-137806334D01*
X161001159Y-137806334D02*
X161001103Y-137795418D01*
X164342896Y-152170971D02*
X164342896Y-152170971D01*
X87732178Y-146887771D02*
X87730972Y-146937278D01*
X87730972Y-146937278D02*
X87727550Y-146984584D01*
X87727550Y-146984584D02*
X87722182Y-147029691D01*
X87722182Y-147029691D02*
X87714984Y-147073391D01*
X87714984Y-147073391D02*
X87706271Y-147114917D01*
X87706271Y-147114917D02*
X87695963Y-147155416D01*
X87695963Y-147155416D02*
X87684146Y-147194869D01*
X87684146Y-147194869D02*
X87671166Y-147232543D01*
X87671166Y-147232543D02*
X87654988Y-147273738D01*
X87654988Y-147273738D02*
X87639638Y-147308515D01*
X87639638Y-147308515D02*
X87623025Y-147342585D01*
X87623025Y-147342585D02*
X87605174Y-147375912D01*
X87605174Y-147375912D02*
X87585330Y-147409757D01*
X87585330Y-147409757D02*
X87565678Y-147440542D01*
X87565678Y-147440542D02*
X87544511Y-147471159D01*
X87544511Y-147471159D02*
X87522942Y-147500042D01*
X87522942Y-147500042D02*
X87500372Y-147528109D01*
X87500372Y-147528109D02*
X87476702Y-147555467D01*
X87476702Y-147555467D02*
X87452338Y-147581681D01*
X87452338Y-147581681D02*
X87426927Y-147607133D01*
X87426927Y-147607133D02*
X87400624Y-147631661D01*
X87400624Y-147631661D02*
X87371153Y-147657163D01*
X87371153Y-147657163D02*
X87343073Y-147679681D01*
X87343073Y-147679681D02*
X87314187Y-147701197D01*
X87314187Y-147701197D02*
X87284514Y-147721680D01*
X87284514Y-147721680D02*
X87253923Y-147741203D01*
X87253923Y-147741203D02*
X87221941Y-147760001D01*
X87221941Y-147760001D02*
X87188211Y-147778149D01*
X87188211Y-147778149D02*
X87151666Y-147795980D01*
X87151666Y-147795980D02*
X87115545Y-147811837D01*
X87115545Y-147811837D02*
X87077268Y-147826815D01*
X87077268Y-147826815D02*
X87039707Y-147839770D01*
X87039707Y-147839770D02*
X87000384Y-147851563D01*
X87000384Y-147851563D02*
X86959657Y-147861934D01*
X86959657Y-147861934D02*
X86917523Y-147870753D01*
X86917523Y-147870753D02*
X86874188Y-147877856D01*
X86874188Y-147877856D02*
X86828688Y-147883221D01*
X86828688Y-147883221D02*
X86781205Y-147886576D01*
X86781205Y-147886576D02*
X86733958Y-147887684D01*
X86733958Y-145887858D02*
X86783196Y-145889058D01*
X86783196Y-145889058D02*
X86829869Y-145892437D01*
X86829869Y-145892437D02*
X86877289Y-145898139D01*
X86877289Y-145898139D02*
X86920581Y-145905386D01*
X86920581Y-145905386D02*
X86963605Y-145914569D01*
X86963605Y-145914569D02*
X87004457Y-145925172D01*
X87004457Y-145925172D02*
X87044074Y-145937262D01*
X87044074Y-145937262D02*
X87081558Y-145950405D01*
X87081558Y-145950405D02*
X87117999Y-145964839D01*
X87117999Y-145964839D02*
X87154415Y-145980967D01*
X87154415Y-145980967D02*
X87188380Y-145997628D01*
X87188380Y-145997628D02*
X87221613Y-146015523D01*
X87221613Y-146015523D02*
X87253764Y-146034429D01*
X87253764Y-146034429D02*
X87284514Y-146054072D01*
X87284514Y-146054072D02*
X87314491Y-146074794D01*
X87314491Y-146074794D02*
X87344260Y-146097028D01*
X87344260Y-146097028D02*
X87372305Y-146119608D01*
X87372305Y-146119608D02*
X87399509Y-146143164D01*
X87399509Y-146143164D02*
X87429080Y-146170799D01*
X87429080Y-146170799D02*
X87454414Y-146196341D01*
X87454414Y-146196341D02*
X87478827Y-146222779D01*
X87478827Y-146222779D02*
X87502291Y-146250083D01*
X87502291Y-146250083D02*
X87524548Y-146277928D01*
X87524548Y-146277928D02*
X87546262Y-146307185D01*
X87546262Y-146307185D02*
X87566820Y-146337086D01*
X87566820Y-146337086D02*
X87586903Y-146368726D01*
X87586903Y-146368726D02*
X87605359Y-146400326D01*
X87605359Y-146400326D02*
X87623025Y-146433322D01*
X87623025Y-146433322D02*
X87639638Y-146467382D01*
X87639638Y-146467382D02*
X87655429Y-146503206D01*
X87655429Y-146503206D02*
X87670106Y-146540461D01*
X87670106Y-146540461D02*
X87683199Y-146578062D01*
X87683199Y-146578062D02*
X87694926Y-146616697D01*
X87694926Y-146616697D02*
X87705295Y-146656730D01*
X87705295Y-146656730D02*
X87714331Y-146698922D01*
X87714331Y-146698922D02*
X87721679Y-146742528D01*
X87721679Y-146742528D02*
X87727202Y-146787537D01*
X87727202Y-146787537D02*
X87730914Y-146837131D01*
X87730914Y-146837131D02*
X87732177Y-146887366D01*
X87732177Y-146887366D02*
X87732178Y-146887771D01*
X85732182Y-146887771D02*
X85733352Y-146838926D01*
X85733352Y-146838926D02*
X85736804Y-146791085D01*
X85736804Y-146791085D02*
X85742226Y-146745638D01*
X85742226Y-146745638D02*
X85749663Y-146700837D01*
X85749663Y-146700837D02*
X85758445Y-146659371D01*
X85758445Y-146659371D02*
X85768819Y-146618925D01*
X85768819Y-146618925D02*
X85780587Y-146579886D01*
X85780587Y-146579886D02*
X85793755Y-146541895D01*
X85793755Y-146541895D02*
X85809420Y-146502153D01*
X85809420Y-146502153D02*
X85824784Y-146467382D01*
X85824784Y-146467382D02*
X85841421Y-146433322D01*
X85841421Y-146433322D02*
X85859296Y-146399996D01*
X85859296Y-146399996D02*
X85877790Y-146368403D01*
X85877790Y-146368403D02*
X85898644Y-146335676D01*
X85898644Y-146335676D02*
X85919180Y-146305961D01*
X85919180Y-146305961D02*
X85940747Y-146277037D01*
X85940747Y-146277037D02*
X85964284Y-146247775D01*
X85964284Y-146247775D02*
X85987879Y-146220543D01*
X85987879Y-146220543D02*
X86012166Y-146194449D01*
X86012166Y-146194449D02*
X86037900Y-146168712D01*
X86037900Y-146168712D02*
X86064271Y-146144166D01*
X86064271Y-146144166D02*
X86091226Y-146120810D01*
X86091226Y-146120810D02*
X86122875Y-146095420D01*
X86122875Y-146095420D02*
X86154639Y-146071956D01*
X86154639Y-146071956D02*
X86184503Y-146051584D01*
X86184503Y-146051584D02*
X86217389Y-146030905D01*
X86217389Y-146030905D02*
X86250459Y-146011846D01*
X86250459Y-146011846D02*
X86283628Y-145994366D01*
X86283628Y-145994366D02*
X86318209Y-145977786D01*
X86318209Y-145977786D02*
X86354569Y-145962072D01*
X86354569Y-145962072D02*
X86391657Y-145947765D01*
X86391657Y-145947765D02*
X86429437Y-145934902D01*
X86429437Y-145934902D02*
X86469370Y-145923110D01*
X86469370Y-145923110D02*
X86509599Y-145913035D01*
X86509599Y-145913035D02*
X86551607Y-145904384D01*
X86551607Y-145904384D02*
X86597752Y-145897021D01*
X86597752Y-145897021D02*
X86642987Y-145891923D01*
X86642987Y-145891923D02*
X86690212Y-145888791D01*
X86690212Y-145888791D02*
X86733958Y-145887858D01*
X86733958Y-147887684D02*
X86684803Y-147886501D01*
X86684803Y-147886501D02*
X86637052Y-147883071D01*
X86637052Y-147883071D02*
X86591508Y-147877664D01*
X86591508Y-147877664D02*
X86548531Y-147870610D01*
X86548531Y-147870610D02*
X86505812Y-147861670D01*
X86505812Y-147861670D02*
X86464899Y-147851254D01*
X86464899Y-147851254D02*
X86425043Y-147839299D01*
X86425043Y-147839299D02*
X86384469Y-147825226D01*
X86384469Y-147825226D02*
X86348398Y-147811033D01*
X86348398Y-147811033D02*
X86310271Y-147794223D01*
X86310271Y-147794223D02*
X86275857Y-147777370D01*
X86275857Y-147777370D02*
X86241539Y-147758889D01*
X86241539Y-147758889D02*
X86208685Y-147739528D01*
X86208685Y-147739528D02*
X86176964Y-147719177D01*
X86176964Y-147719177D02*
X86146987Y-147698343D01*
X86146987Y-147698343D02*
X86116049Y-147675073D01*
X86116049Y-147675073D02*
X86088062Y-147652347D01*
X86088062Y-147652347D02*
X86061205Y-147628899D01*
X86061205Y-147628899D02*
X86034667Y-147604003D01*
X86034667Y-147604003D02*
X86009308Y-147578436D01*
X86009308Y-147578436D02*
X85984877Y-147551974D01*
X85984877Y-147551974D02*
X85961404Y-147524647D01*
X85961404Y-147524647D02*
X85938911Y-147496476D01*
X85938911Y-147496476D02*
X85917429Y-147467493D01*
X85917429Y-147467493D02*
X85896358Y-147436777D01*
X85896358Y-147436777D02*
X85876810Y-147405896D01*
X85876810Y-147405896D02*
X85857086Y-147371952D01*
X85857086Y-147371952D02*
X85839358Y-147338535D01*
X85839358Y-147338535D02*
X85823032Y-147304724D01*
X85823032Y-147304724D02*
X85807081Y-147268109D01*
X85807081Y-147268109D02*
X85792174Y-147229669D01*
X85792174Y-147229669D02*
X85778944Y-147190845D01*
X85778944Y-147190845D02*
X85767484Y-147152066D01*
X85767484Y-147152066D02*
X85757395Y-147111891D01*
X85757395Y-147111891D02*
X85748590Y-147069166D01*
X85748590Y-147069166D02*
X85741571Y-147025403D01*
X85741571Y-147025403D02*
X85736395Y-146980236D01*
X85736395Y-146980236D02*
X85733186Y-146933076D01*
X85733186Y-146933076D02*
X85732182Y-146887771D01*
X78289896Y-152202298D02*
X78289896Y-152202298D01*
X165341116Y-151170211D02*
X165339909Y-151219720D01*
X165339909Y-151219720D02*
X165336486Y-151267032D01*
X165336486Y-151267032D02*
X165331115Y-151312149D01*
X165331115Y-151312149D02*
X165323624Y-151357398D01*
X165323624Y-151357398D02*
X165314709Y-151399481D01*
X165314709Y-151399481D02*
X165304157Y-151440523D01*
X165304157Y-151440523D02*
X165292470Y-151479221D01*
X165292470Y-151479221D02*
X165279412Y-151516883D01*
X165279412Y-151516883D02*
X165265063Y-151553495D01*
X165265063Y-151553495D02*
X165249174Y-151589732D01*
X165249174Y-151589732D02*
X165232603Y-151623855D01*
X165232603Y-151623855D02*
X165214703Y-151657403D01*
X165214703Y-151657403D02*
X165194996Y-151691146D01*
X165194996Y-151691146D02*
X165174760Y-151722933D01*
X165174760Y-151722933D02*
X165154254Y-151752667D01*
X165154254Y-151752667D02*
X165132031Y-151782504D01*
X165132031Y-151782504D02*
X165109227Y-151810898D01*
X165109227Y-151810898D02*
X165085678Y-151838149D01*
X165085678Y-151838149D02*
X165061443Y-151864258D01*
X165061443Y-151864258D02*
X165034691Y-151891053D01*
X165034691Y-151891053D02*
X165008765Y-151915196D01*
X165008765Y-151915196D02*
X164981138Y-151939142D01*
X164981138Y-151939142D02*
X164952942Y-151961845D01*
X164952942Y-151961845D02*
X164923928Y-151983537D01*
X164923928Y-151983537D02*
X164894279Y-152004080D01*
X164894279Y-152004080D02*
X164862911Y-152024157D01*
X164862911Y-152024157D02*
X164831423Y-152042711D01*
X164831423Y-152042711D02*
X164798549Y-152060477D01*
X164798549Y-152060477D02*
X164764615Y-152077193D01*
X164764615Y-152077193D02*
X164728930Y-152093087D01*
X164728930Y-152093087D02*
X164691819Y-152107871D01*
X164691819Y-152107871D02*
X164651824Y-152121908D01*
X164651824Y-152121908D02*
X164613306Y-152133644D01*
X164613306Y-152133644D02*
X164571524Y-152144469D01*
X164571524Y-152144469D02*
X164529067Y-152153504D01*
X164529067Y-152153504D02*
X164485591Y-152160764D01*
X164485591Y-152160764D02*
X164440731Y-152166196D01*
X164440731Y-152166196D02*
X164393306Y-152169708D01*
X164393306Y-152169708D02*
X164343700Y-152170970D01*
X164343700Y-152170970D02*
X164342896Y-152170971D01*
X164342896Y-150170298D02*
X164391715Y-150171480D01*
X164391715Y-150171480D02*
X164438767Y-150174885D01*
X164438767Y-150174885D02*
X164484428Y-150180347D01*
X164484428Y-150180347D02*
X164527539Y-150187496D01*
X164527539Y-150187496D02*
X164568890Y-150196215D01*
X164568890Y-150196215D02*
X164609234Y-150206530D01*
X164609234Y-150206530D02*
X164648548Y-150218358D01*
X164648548Y-150218358D02*
X164685745Y-150231220D01*
X164685745Y-150231220D02*
X164721916Y-150245350D01*
X164721916Y-150245350D02*
X164758774Y-150261469D01*
X164758774Y-150261469D02*
X164793168Y-150278158D01*
X164793168Y-150278158D02*
X164827807Y-150296665D01*
X164827807Y-150296665D02*
X164860343Y-150315693D01*
X164860343Y-150315693D02*
X164892088Y-150335900D01*
X164892088Y-150335900D02*
X164923015Y-150357254D01*
X164923015Y-150357254D02*
X164951905Y-150378807D01*
X164951905Y-150378807D02*
X164985444Y-150405942D01*
X164985444Y-150405942D02*
X165012936Y-150430046D01*
X165012936Y-150430046D02*
X165038996Y-150454597D01*
X165038996Y-150454597D02*
X165064297Y-150480193D01*
X165064297Y-150480193D02*
X165088797Y-150506817D01*
X165088797Y-150506817D02*
X165112104Y-150534031D01*
X165112104Y-150534031D02*
X165135468Y-150563409D01*
X165135468Y-150563409D02*
X165157091Y-150592749D01*
X165157091Y-150592749D02*
X165178900Y-150624777D01*
X165178900Y-150624777D02*
X165198319Y-150655732D01*
X165198319Y-150655732D02*
X165217727Y-150689416D01*
X165217727Y-150689416D02*
X165235338Y-150722886D01*
X165235338Y-150722886D02*
X165251708Y-150757085D01*
X165251708Y-150757085D02*
X165267382Y-150793392D01*
X165267382Y-150793392D02*
X165281645Y-150830416D01*
X165281645Y-150830416D02*
X165294348Y-150867763D01*
X165294348Y-150867763D02*
X165305804Y-150906492D01*
X165305804Y-150906492D02*
X165315981Y-150946986D01*
X165315981Y-150946986D02*
X165324768Y-150989641D01*
X165324768Y-150989641D02*
X165331716Y-151032930D01*
X165331716Y-151032930D02*
X165337038Y-151079572D01*
X165337038Y-151079572D02*
X165340218Y-151127627D01*
X165340218Y-151127627D02*
X165341116Y-151170211D01*
X163340443Y-151170211D02*
X163341625Y-151121239D01*
X163341625Y-151121239D02*
X163345221Y-151072082D01*
X163345221Y-151072082D02*
X163350716Y-151026710D01*
X163350716Y-151026710D02*
X163358007Y-150983124D01*
X163358007Y-150983124D02*
X163366986Y-150940946D01*
X163366986Y-150940946D02*
X163377413Y-150900548D01*
X163377413Y-150900548D02*
X163389351Y-150861189D01*
X163389351Y-150861189D02*
X163402450Y-150823599D01*
X163402450Y-150823599D02*
X163417727Y-150784949D01*
X163417727Y-150784949D02*
X163433101Y-150750189D01*
X163433101Y-150750189D02*
X163449746Y-150716134D01*
X163449746Y-150716134D02*
X163467722Y-150682647D01*
X163467722Y-150682647D02*
X163486728Y-150650253D01*
X163486728Y-150650253D02*
X163507839Y-150617235D01*
X163507839Y-150617235D02*
X163529312Y-150586328D01*
X163529312Y-150586328D02*
X163550748Y-150557759D01*
X163550748Y-150557759D02*
X163573651Y-150529412D01*
X163573651Y-150529412D02*
X163600325Y-150498864D01*
X163600325Y-150498864D02*
X163625045Y-150472634D01*
X163625045Y-150472634D02*
X163653953Y-150444201D01*
X163653953Y-150444201D02*
X163683991Y-150416943D01*
X163683991Y-150416943D02*
X163711315Y-150393971D01*
X163711315Y-150393971D02*
X163740061Y-150371510D01*
X163740061Y-150371510D02*
X163770561Y-150349436D01*
X163770561Y-150349436D02*
X163800639Y-150329308D01*
X163800639Y-150329308D02*
X163831795Y-150310051D01*
X163831795Y-150310051D02*
X163864363Y-150291553D01*
X163864363Y-150291553D02*
X163898012Y-150274077D01*
X163898012Y-150274077D02*
X163932394Y-150257850D01*
X163932394Y-150257850D02*
X163968893Y-150242328D01*
X163968893Y-150242328D02*
X164006115Y-150228222D01*
X164006115Y-150228222D02*
X164043660Y-150215683D01*
X164043660Y-150215683D02*
X164085213Y-150203697D01*
X164085213Y-150203697D02*
X164126348Y-150193729D01*
X164126348Y-150193729D02*
X164168121Y-150185466D01*
X164168121Y-150185466D02*
X164213044Y-150178621D01*
X164213044Y-150178621D02*
X164258996Y-150173753D01*
X164258996Y-150173753D02*
X164308157Y-150170885D01*
X164308157Y-150170885D02*
X164342896Y-150170298D01*
X164342896Y-152170971D02*
X164293704Y-152169786D01*
X164293704Y-152169786D02*
X164246907Y-152166443D01*
X164246907Y-152166443D02*
X164201900Y-152161152D01*
X164201900Y-152161152D02*
X164158293Y-152154043D01*
X164158293Y-152154043D02*
X164114203Y-152144823D01*
X164114203Y-152144823D02*
X164073638Y-152134476D01*
X164073638Y-152134476D02*
X164033755Y-152122502D01*
X164033755Y-152122502D02*
X163996385Y-152109601D01*
X163996385Y-152109601D02*
X163960405Y-152095578D01*
X163960405Y-152095578D02*
X163925460Y-152080385D01*
X163925460Y-152080385D02*
X163891223Y-152063920D01*
X163891223Y-152063920D02*
X163857721Y-152046214D01*
X163857721Y-152046214D02*
X163824178Y-152026807D01*
X163824178Y-152026807D02*
X163793049Y-152007196D01*
X163793049Y-152007196D02*
X163763164Y-151986816D01*
X163763164Y-151986816D02*
X163733170Y-151964713D01*
X163733170Y-151964713D02*
X163704626Y-151942020D01*
X163704626Y-151942020D02*
X163677221Y-151918571D01*
X163677221Y-151918571D02*
X163649598Y-151893132D01*
X163649598Y-151893132D02*
X163623996Y-151867765D01*
X163623996Y-151867765D02*
X163598308Y-151840381D01*
X163598308Y-151840381D02*
X163574858Y-151813488D01*
X163574858Y-151813488D02*
X163551904Y-151785175D01*
X163551904Y-151785175D02*
X163529532Y-151755415D01*
X163529532Y-151755415D02*
X163508676Y-151725440D01*
X163508676Y-151725440D02*
X163488901Y-151694681D01*
X163488901Y-151694681D02*
X163469300Y-151661522D01*
X163469300Y-151661522D02*
X163451132Y-151627900D01*
X163451132Y-151627900D02*
X163434386Y-151593864D01*
X163434386Y-151593864D02*
X163417727Y-151556309D01*
X163417727Y-151556309D02*
X163403117Y-151519393D01*
X163403117Y-151519393D02*
X163389946Y-151481776D01*
X163389946Y-151481776D02*
X163378146Y-151443123D01*
X163378146Y-151443123D02*
X163367792Y-151403446D01*
X163367792Y-151403446D02*
X163358817Y-151361999D01*
X163358817Y-151361999D02*
X163351401Y-151318766D01*
X163351401Y-151318766D02*
X163345695Y-151273346D01*
X163345695Y-151273346D02*
X163341869Y-151224119D01*
X163341869Y-151224119D02*
X163340449Y-151174256D01*
X163340449Y-151174256D02*
X163340443Y-151170211D01*
X92533371Y-71606743D02*
X92533371Y-71606743D01*
X79288117Y-151201538D02*
X79286911Y-151251047D01*
X79286911Y-151251047D02*
X79283489Y-151298359D01*
X79283489Y-151298359D02*
X79278121Y-151343476D01*
X79278121Y-151343476D02*
X79270343Y-151390260D01*
X79270343Y-151390260D02*
X79260966Y-151434018D01*
X79260966Y-151434018D02*
X79250446Y-151474450D01*
X79250446Y-151474450D02*
X79237823Y-151515656D01*
X79237823Y-151515656D02*
X79224575Y-151553226D01*
X79224575Y-151553226D02*
X79210338Y-151589042D01*
X79210338Y-151589042D02*
X79194777Y-151624159D01*
X79194777Y-151624159D02*
X79176364Y-151661581D01*
X79176364Y-151661581D02*
X79158143Y-151695152D01*
X79158143Y-151695152D02*
X79138897Y-151727612D01*
X79138897Y-151727612D02*
X79118483Y-151759271D01*
X79118483Y-151759271D02*
X79096040Y-151791307D01*
X79096040Y-151791307D02*
X79072633Y-151822114D01*
X79072633Y-151822114D02*
X79049543Y-151850261D01*
X79049543Y-151850261D02*
X79025593Y-151877398D01*
X79025593Y-151877398D02*
X79001223Y-151903114D01*
X79001223Y-151903114D02*
X78975285Y-151928598D01*
X78975285Y-151928598D02*
X78948725Y-151952881D01*
X78948725Y-151952881D02*
X78918987Y-151978108D01*
X78918987Y-151978108D02*
X78890669Y-152000367D01*
X78890669Y-152000367D02*
X78861550Y-152021611D01*
X78861550Y-152021611D02*
X78830708Y-152042430D01*
X78830708Y-152042430D02*
X78795830Y-152064040D01*
X78795830Y-152064040D02*
X78763518Y-152082353D01*
X78763518Y-152082353D02*
X78729461Y-152099983D01*
X78729461Y-152099983D02*
X78691024Y-152117944D01*
X78691024Y-152117944D02*
X78655095Y-152132970D01*
X78655095Y-152132970D02*
X78618477Y-152146613D01*
X78618477Y-152146613D02*
X78579557Y-152159350D01*
X78579557Y-152159350D02*
X78539588Y-152170605D01*
X78539588Y-152170605D02*
X78498779Y-152180256D01*
X78498779Y-152180256D02*
X78456201Y-152188406D01*
X78456201Y-152188406D02*
X78411649Y-152194890D01*
X78411649Y-152194890D02*
X78366101Y-152199408D01*
X78366101Y-152199408D02*
X78316387Y-152201948D01*
X78316387Y-152201948D02*
X78289896Y-152202298D01*
X78289896Y-150201624D02*
X78339134Y-150202825D01*
X78339134Y-150202825D02*
X78385807Y-150206211D01*
X78385807Y-150206211D02*
X78431484Y-150211673D01*
X78431484Y-150211673D02*
X78474609Y-150218822D01*
X78474609Y-150218822D02*
X78515970Y-150227541D01*
X78515970Y-150227541D02*
X78556322Y-150237856D01*
X78556322Y-150237856D02*
X78595645Y-150249684D01*
X78595645Y-150249684D02*
X78632848Y-150262546D01*
X78632848Y-150262546D02*
X78671131Y-150277549D01*
X78671131Y-150277549D02*
X78706572Y-150293113D01*
X78706572Y-150293113D02*
X78740280Y-150309484D01*
X78740280Y-150309484D02*
X78774920Y-150327991D01*
X78774920Y-150327991D02*
X78807455Y-150347019D01*
X78807455Y-150347019D02*
X78839200Y-150367226D01*
X78839200Y-150367226D02*
X78870125Y-150388580D01*
X78870125Y-150388580D02*
X78899012Y-150410133D01*
X78899012Y-150410133D02*
X78932837Y-150437511D01*
X78932837Y-150437511D02*
X78960038Y-150461372D01*
X78960038Y-150461372D02*
X78986093Y-150485924D01*
X78986093Y-150485924D02*
X79011390Y-150511520D01*
X79011390Y-150511520D02*
X79035886Y-150538144D01*
X79035886Y-150538144D02*
X79060142Y-150566516D01*
X79060142Y-150566516D02*
X79082546Y-150594736D01*
X79082546Y-150594736D02*
X79104162Y-150624076D01*
X79104162Y-150624076D02*
X79125964Y-150656104D01*
X79125964Y-150656104D02*
X79145379Y-150687059D01*
X79145379Y-150687059D02*
X79164781Y-150720743D01*
X79164781Y-150720743D02*
X79182385Y-150754213D01*
X79182385Y-150754213D02*
X79198592Y-150788067D01*
X79198592Y-150788067D02*
X79214418Y-150824719D01*
X79214418Y-150824719D02*
X79228676Y-150861743D01*
X79228676Y-150861743D02*
X79241373Y-150899090D01*
X79241373Y-150899090D02*
X79252823Y-150937819D01*
X79252823Y-150937819D02*
X79262994Y-150978313D01*
X79262994Y-150978313D02*
X79271777Y-151020968D01*
X79271777Y-151020968D02*
X79278722Y-151064257D01*
X79278722Y-151064257D02*
X79284041Y-151110899D01*
X79284041Y-151110899D02*
X79287220Y-151158954D01*
X79287220Y-151158954D02*
X79288117Y-151201538D01*
X77288121Y-151201538D02*
X77289302Y-151152566D01*
X77289302Y-151152566D02*
X77292896Y-151103409D01*
X77292896Y-151103409D02*
X77298386Y-151058037D01*
X77298386Y-151058037D02*
X77305671Y-151014451D01*
X77305671Y-151014451D02*
X77314645Y-150972273D01*
X77314645Y-150972273D02*
X77325063Y-150931875D01*
X77325063Y-150931875D02*
X77336992Y-150892516D01*
X77336992Y-150892516D02*
X77350214Y-150854568D01*
X77350214Y-150854568D02*
X77365348Y-150816276D01*
X77365348Y-150816276D02*
X77380709Y-150781516D01*
X77380709Y-150781516D02*
X77397344Y-150747461D01*
X77397344Y-150747461D02*
X77415217Y-150714139D01*
X77415217Y-150714139D02*
X77433709Y-150682545D01*
X77433709Y-150682545D02*
X77454561Y-150649816D01*
X77454561Y-150649816D02*
X77475094Y-150620096D01*
X77475094Y-150620096D02*
X77496889Y-150590867D01*
X77496889Y-150590867D02*
X77520195Y-150561891D01*
X77520195Y-150561891D02*
X77543789Y-150534646D01*
X77543789Y-150534646D02*
X77568335Y-150508271D01*
X77568335Y-150508271D02*
X77597054Y-150479667D01*
X77597054Y-150479667D02*
X77623533Y-150455221D01*
X77623533Y-150455221D02*
X77650884Y-150431729D01*
X77650884Y-150431729D02*
X77679076Y-150409215D01*
X77679076Y-150409215D02*
X77711769Y-150385087D01*
X77711769Y-150385087D02*
X77741664Y-150364740D01*
X77741664Y-150364740D02*
X77773614Y-150344672D01*
X77773614Y-150344672D02*
X77806360Y-150325788D01*
X77806360Y-150325788D02*
X77839529Y-150308287D01*
X77839529Y-150308287D02*
X77876536Y-150290583D01*
X77876536Y-150290583D02*
X77911886Y-150275375D01*
X77911886Y-150275375D02*
X77950443Y-150260582D01*
X77950443Y-150260582D02*
X77988278Y-150247815D01*
X77988278Y-150247815D02*
X78029760Y-150235721D01*
X78029760Y-150235721D02*
X78070444Y-150225729D01*
X78070444Y-150225729D02*
X78114459Y-150216928D01*
X78114459Y-150216928D02*
X78158363Y-150210177D01*
X78158363Y-150210177D02*
X78204063Y-150205245D01*
X78204063Y-150205245D02*
X78251963Y-150202326D01*
X78251963Y-150202326D02*
X78289896Y-150201624D01*
X78289896Y-152202298D02*
X78240734Y-152201113D01*
X78240734Y-152201113D02*
X78192977Y-152197676D01*
X78192977Y-152197676D02*
X78147427Y-152192258D01*
X78147427Y-152192258D02*
X78104446Y-152185191D01*
X78104446Y-152185191D02*
X78062861Y-152176502D01*
X78062861Y-152176502D02*
X78021366Y-152165957D01*
X78021366Y-152165957D02*
X77980767Y-152153769D01*
X77980767Y-152153769D02*
X77943246Y-152140796D01*
X77943246Y-152140796D02*
X77906591Y-152126468D01*
X77906591Y-152126468D02*
X77871346Y-152111078D01*
X77871346Y-152111078D02*
X77837160Y-152094562D01*
X77837160Y-152094562D02*
X77801563Y-152075612D01*
X77801563Y-152075612D02*
X77769739Y-152057058D01*
X77769739Y-152057058D02*
X77737885Y-152036864D01*
X77737885Y-152036864D02*
X77707779Y-152016177D01*
X77707779Y-152016177D02*
X77677884Y-151993977D01*
X77677884Y-151993977D02*
X77649726Y-151971429D01*
X77649726Y-151971429D02*
X77621572Y-151947148D01*
X77621572Y-151947148D02*
X77595292Y-151922769D01*
X77595292Y-151922769D02*
X77570161Y-151897745D01*
X77570161Y-151897745D02*
X77545043Y-151870871D01*
X77545043Y-151870871D02*
X77521038Y-151843232D01*
X77521038Y-151843232D02*
X77498503Y-151815316D01*
X77498503Y-151815316D02*
X77477071Y-151786742D01*
X77477071Y-151786742D02*
X77454561Y-151754260D01*
X77454561Y-151754260D02*
X77434495Y-151722794D01*
X77434495Y-151722794D02*
X77414479Y-151688566D01*
X77414479Y-151688566D02*
X77396654Y-151655182D01*
X77396654Y-151655182D02*
X77378798Y-151618298D01*
X77378798Y-151618298D02*
X77363591Y-151583413D01*
X77363591Y-151583413D02*
X77349288Y-151546774D01*
X77349288Y-151546774D02*
X77336163Y-151508720D01*
X77336163Y-151508720D02*
X77324595Y-151470176D01*
X77324595Y-151470176D02*
X77314291Y-151429864D01*
X77314291Y-151429864D02*
X77305527Y-151388341D01*
X77305527Y-151388341D02*
X77298386Y-151345423D01*
X77298386Y-151345423D02*
X77292935Y-151300333D01*
X77292935Y-151300333D02*
X77289381Y-151252249D01*
X77289381Y-151252249D02*
X77288121Y-151201538D01*
X88598318Y-53255751D02*
X88612229Y-53320637D01*
X88612229Y-53320637D02*
X88628348Y-53395815D01*
X88628348Y-53395815D02*
X88667010Y-53576126D01*
X88667010Y-53576126D02*
X88732350Y-53880854D01*
X88732350Y-53880854D02*
X88811741Y-54251109D01*
X88811741Y-54251109D02*
X88880262Y-54570665D01*
X88880262Y-54570665D02*
X88929520Y-54800388D01*
X88929520Y-54800388D02*
X89008515Y-55168790D01*
X89008515Y-55168790D02*
X89184072Y-55987507D01*
X89184072Y-55987507D02*
X89452152Y-57237710D01*
X89452152Y-57237710D02*
X89749383Y-58623852D01*
X89749383Y-58623852D02*
X90067440Y-60107113D01*
X90067440Y-60107113D02*
X90397999Y-61648671D01*
X90397999Y-61648671D02*
X90732735Y-63209704D01*
X90732735Y-63209704D02*
X91063324Y-64751390D01*
X91063324Y-64751390D02*
X91381441Y-66234908D01*
X91381441Y-66234908D02*
X91678762Y-67621436D01*
X91678762Y-67621436D02*
X91881991Y-68569177D01*
X91881991Y-68569177D02*
X92007249Y-69153305D01*
X92007249Y-69153305D02*
X92177715Y-69948243D01*
X92177715Y-69948243D02*
X92319573Y-70609772D01*
X92319573Y-70609772D02*
X92399061Y-70980446D01*
X92399061Y-70980446D02*
X92464506Y-71285626D01*
X92464506Y-71285626D02*
X92514866Y-71520458D01*
X92514866Y-71520458D02*
X92533371Y-71606743D01*
X88620501Y-53135270D02*
X88603719Y-53169491D01*
X88603719Y-53169491D02*
X88595103Y-53211838D01*
X88595103Y-53211838D02*
X88598318Y-53255751D01*
X88721423Y-53065759D02*
X88684011Y-53078746D01*
X88684011Y-53078746D02*
X88653374Y-53098470D01*
X88653374Y-53098470D02*
X88628142Y-53124449D01*
X88628142Y-53124449D02*
X88620501Y-53135270D01*
X145054136Y-41055708D02*
X144666250Y-41138404D01*
X144666250Y-41138404D02*
X143044112Y-41484243D01*
X143044112Y-41484243D02*
X139066856Y-42332190D01*
X139066856Y-42332190D02*
X131293360Y-43989488D01*
X131293360Y-43989488D02*
X121872858Y-45997925D01*
X121872858Y-45997925D02*
X106918550Y-49186159D01*
X106918550Y-49186159D02*
X94709090Y-51789195D01*
X94709090Y-51789195D02*
X90731660Y-52637177D01*
X90731660Y-52637177D02*
X89109385Y-52983045D01*
X89109385Y-52983045D02*
X88721423Y-53065759D01*
X145175209Y-41077975D02*
X145141530Y-41061546D01*
X145141530Y-41061546D02*
X145100343Y-41052726D01*
X145100343Y-41052726D02*
X145054136Y-41055708D01*
X145243789Y-41178982D02*
X145230973Y-41141127D01*
X145230973Y-41141127D02*
X145211152Y-41110158D01*
X145211152Y-41110158D02*
X145185793Y-41085490D01*
X145185793Y-41085490D02*
X145175209Y-41077975D01*
X74346971Y-75458822D02*
X74322130Y-75433488D01*
X74322130Y-75433488D02*
X74303007Y-75402317D01*
X74303007Y-75402317D02*
X74290823Y-75364485D01*
X74290823Y-75364485D02*
X74288043Y-75334786D01*
X164342896Y-33170701D02*
X164342896Y-33170701D01*
X78289896Y-31170705D02*
X78339134Y-31171905D01*
X78339134Y-31171905D02*
X78385807Y-31175284D01*
X78385807Y-31175284D02*
X78433227Y-31180987D01*
X78433227Y-31180987D02*
X78476519Y-31188237D01*
X78476519Y-31188237D02*
X78518604Y-31197201D01*
X78518604Y-31197201D02*
X78558915Y-31207608D01*
X78558915Y-31207608D02*
X78598558Y-31219642D01*
X78598558Y-31219642D02*
X78637496Y-31233262D01*
X78637496Y-31233262D02*
X78673937Y-31247697D01*
X78673937Y-31247697D02*
X78710353Y-31263827D01*
X78710353Y-31263827D02*
X78744318Y-31280489D01*
X78744318Y-31280489D02*
X78777551Y-31298385D01*
X78777551Y-31298385D02*
X78809702Y-31317293D01*
X78809702Y-31317293D02*
X78840452Y-31336937D01*
X78840452Y-31336937D02*
X78870429Y-31357660D01*
X78870429Y-31357660D02*
X78900199Y-31379894D01*
X78900199Y-31379894D02*
X78928244Y-31402474D01*
X78928244Y-31402474D02*
X78955448Y-31426032D01*
X78955448Y-31426032D02*
X78985019Y-31453667D01*
X78985019Y-31453667D02*
X79010353Y-31479209D01*
X79010353Y-31479209D02*
X79034766Y-31505646D01*
X79034766Y-31505646D02*
X79058230Y-31532949D01*
X79058230Y-31532949D02*
X79080487Y-31560793D01*
X79080487Y-31560793D02*
X79102201Y-31590050D01*
X79102201Y-31590050D02*
X79122759Y-31619949D01*
X79122759Y-31619949D02*
X79142842Y-31651586D01*
X79142842Y-31651586D02*
X79161298Y-31683184D01*
X79161298Y-31683184D02*
X79178964Y-31716176D01*
X79178964Y-31716176D02*
X79195577Y-31750233D01*
X79195577Y-31750233D02*
X79211368Y-31786052D01*
X79211368Y-31786052D02*
X79226045Y-31823302D01*
X79226045Y-31823302D02*
X79239138Y-31860898D01*
X79239138Y-31860898D02*
X79250865Y-31899526D01*
X79250865Y-31899526D02*
X79261234Y-31939551D01*
X79261234Y-31939551D02*
X79270270Y-31981735D01*
X79270270Y-31981735D02*
X79277618Y-32025331D01*
X79277618Y-32025331D02*
X79283181Y-32070721D01*
X79283181Y-32070721D02*
X79286771Y-32118311D01*
X79286771Y-32118311D02*
X79288113Y-32168108D01*
X79288113Y-32168108D02*
X79288117Y-32170534D01*
X77288121Y-32170534D02*
X77289291Y-32121703D01*
X77289291Y-32121703D02*
X77292743Y-32073874D01*
X77292743Y-32073874D02*
X77298107Y-32028829D01*
X77298107Y-32028829D02*
X77305310Y-31985183D01*
X77305310Y-31985183D02*
X77314202Y-31942947D01*
X77314202Y-31942947D02*
X77324544Y-31902497D01*
X77324544Y-31902497D02*
X77336517Y-31862722D01*
X77336517Y-31862722D02*
X77349684Y-31824736D01*
X77349684Y-31824736D02*
X77365348Y-31784999D01*
X77365348Y-31784999D02*
X77380709Y-31750233D01*
X77380709Y-31750233D02*
X77397344Y-31716176D01*
X77397344Y-31716176D02*
X77415217Y-31682854D01*
X77415217Y-31682854D02*
X77433709Y-31651263D01*
X77433709Y-31651263D02*
X77454561Y-31618539D01*
X77454561Y-31618539D02*
X77475094Y-31588826D01*
X77475094Y-31588826D02*
X77496659Y-31559902D01*
X77496659Y-31559902D02*
X77520195Y-31530641D01*
X77520195Y-31530641D02*
X77543789Y-31503410D01*
X77543789Y-31503410D02*
X77568074Y-31477317D01*
X77568074Y-31477317D02*
X77593806Y-31451580D01*
X77593806Y-31451580D02*
X77620176Y-31427034D01*
X77620176Y-31427034D02*
X77647130Y-31403676D01*
X77647130Y-31403676D02*
X77678777Y-31378286D01*
X77678777Y-31378286D02*
X77710540Y-31354822D01*
X77710540Y-31354822D02*
X77740404Y-31334449D01*
X77740404Y-31334449D02*
X77773290Y-31313769D01*
X77773290Y-31313769D02*
X77806360Y-31294708D01*
X77806360Y-31294708D02*
X77839529Y-31277227D01*
X77839529Y-31277227D02*
X77874111Y-31260646D01*
X77874111Y-31260646D02*
X77910473Y-31244930D01*
X77910473Y-31244930D02*
X77947562Y-31230622D01*
X77947562Y-31230622D02*
X77985344Y-31217757D01*
X77985344Y-31217757D02*
X78024906Y-31206065D01*
X78024906Y-31206065D02*
X78065512Y-31195886D01*
X78065512Y-31195886D02*
X78107139Y-31187305D01*
X78107139Y-31187305D02*
X78150548Y-31180299D01*
X78150548Y-31180299D02*
X78197724Y-31174878D01*
X78197724Y-31174878D02*
X78245741Y-31171656D01*
X78245741Y-31171656D02*
X78289896Y-31170705D01*
X78289896Y-33170701D02*
X78240734Y-33169518D01*
X78240734Y-33169518D02*
X78192977Y-33166085D01*
X78192977Y-33166085D02*
X78147427Y-33160674D01*
X78147427Y-33160674D02*
X78104446Y-33153617D01*
X78104446Y-33153617D02*
X78061724Y-33144673D01*
X78061724Y-33144673D02*
X78020808Y-33134251D01*
X78020808Y-33134251D02*
X77980767Y-33122231D01*
X77980767Y-33122231D02*
X77940374Y-33108212D01*
X77940374Y-33108212D02*
X77904301Y-33094011D01*
X77904301Y-33094011D02*
X77867206Y-33077674D01*
X77867206Y-33077674D02*
X77833108Y-33061026D01*
X77833108Y-33061026D02*
X77799748Y-33043142D01*
X77799748Y-33043142D02*
X77767481Y-33024248D01*
X77767481Y-33024248D02*
X77736628Y-33004618D01*
X77736628Y-33004618D02*
X77705637Y-32983250D01*
X77705637Y-32983250D02*
X77676695Y-32961684D01*
X77676695Y-32961684D02*
X77648571Y-32939114D01*
X77648571Y-32939114D02*
X77621572Y-32915816D01*
X77621572Y-32915816D02*
X77595292Y-32891457D01*
X77595292Y-32891457D02*
X77569378Y-32865644D01*
X77569378Y-32865644D02*
X77545043Y-32839601D01*
X77545043Y-32839601D02*
X77521159Y-32812128D01*
X77521159Y-32812128D02*
X77498503Y-32784088D01*
X77498503Y-32784088D02*
X77476851Y-32755229D01*
X77476851Y-32755229D02*
X77455395Y-32724326D01*
X77455395Y-32724326D02*
X77435678Y-32693554D01*
X77435678Y-32693554D02*
X77416885Y-32661700D01*
X77416885Y-32661700D02*
X77398728Y-32628096D01*
X77398728Y-32628096D02*
X77381994Y-32594078D01*
X77381994Y-32594078D02*
X77366531Y-32559350D01*
X77366531Y-32559350D02*
X77351819Y-32522503D01*
X77351819Y-32522503D02*
X77338066Y-32483498D01*
X77338066Y-32483498D02*
X77326006Y-32444142D01*
X77326006Y-32444142D02*
X77315450Y-32403735D01*
X77315450Y-32403735D02*
X77306481Y-32362299D01*
X77306481Y-32362299D02*
X77299128Y-32319464D01*
X77299128Y-32319464D02*
X77293491Y-32274845D01*
X77293491Y-32274845D02*
X77289720Y-32227637D01*
X77289720Y-32227637D02*
X77288148Y-32178218D01*
X77288148Y-32178218D02*
X77288121Y-32170534D01*
X78289896Y-33170701D02*
X78289896Y-33170701D01*
X164342896Y-33170701D02*
X164293704Y-33169518D01*
X164293704Y-33169518D02*
X164246907Y-33166179D01*
X164246907Y-33166179D02*
X164201900Y-33160895D01*
X164201900Y-33160895D02*
X164158293Y-33153795D01*
X164158293Y-33153795D02*
X164115719Y-33144937D01*
X164115719Y-33144937D02*
X164075129Y-33134663D01*
X164075129Y-33134663D02*
X164035219Y-33122762D01*
X164035219Y-33122762D02*
X163996025Y-33109273D01*
X163996025Y-33109273D02*
X163957585Y-33094232D01*
X163957585Y-33094232D02*
X163922694Y-33078951D01*
X163922694Y-33078951D02*
X163887164Y-33061716D01*
X163887164Y-33061716D02*
X163853752Y-33043881D01*
X163853752Y-33043881D02*
X163820143Y-33024248D01*
X163820143Y-33024248D02*
X163789270Y-33004618D01*
X163789270Y-33004618D02*
X163759482Y-32984126D01*
X163759482Y-32984126D02*
X163729741Y-32962027D01*
X163729741Y-32962027D02*
X163699997Y-32938152D01*
X163699997Y-32938152D02*
X163672736Y-32914565D01*
X163672736Y-32914565D02*
X163646619Y-32890288D01*
X163646619Y-32890288D02*
X163619817Y-32863486D01*
X163619817Y-32863486D02*
X163595293Y-32837090D01*
X163595293Y-32837090D02*
X163569087Y-32806647D01*
X163569087Y-32806647D02*
X163546381Y-32778142D01*
X163546381Y-32778142D02*
X163524927Y-32749117D01*
X163524927Y-32749117D02*
X163504510Y-32719303D01*
X163504510Y-32719303D02*
X163484960Y-32688406D01*
X163484960Y-32688406D02*
X163464870Y-32653786D01*
X163464870Y-32653786D02*
X163446999Y-32619997D01*
X163446999Y-32619997D02*
X163430633Y-32585978D01*
X163430633Y-32585978D02*
X163415387Y-32550910D01*
X163415387Y-32550910D02*
X163400471Y-32512463D01*
X163400471Y-32512463D02*
X163387232Y-32473633D01*
X163387232Y-32473633D02*
X163375510Y-32433916D01*
X163375510Y-32433916D02*
X163365495Y-32393910D01*
X163365495Y-32393910D02*
X163356861Y-32351937D01*
X163356861Y-32351937D02*
X163349837Y-32308172D01*
X163349837Y-32308172D02*
X163344659Y-32263002D01*
X163344659Y-32263002D02*
X163341448Y-32215840D01*
X163341448Y-32215840D02*
X163340443Y-32170534D01*
X149476276Y-43094820D02*
X149476276Y-43094820D01*
X79288117Y-32170534D02*
X79286911Y-32220042D01*
X79286911Y-32220042D02*
X79283489Y-32267350D01*
X79283489Y-32267350D02*
X79278121Y-32312460D01*
X79278121Y-32312460D02*
X79270923Y-32356163D01*
X79270923Y-32356163D02*
X79262210Y-32397694D01*
X79262210Y-32397694D02*
X79251902Y-32438198D01*
X79251902Y-32438198D02*
X79240085Y-32477657D01*
X79240085Y-32477657D02*
X79227105Y-32515338D01*
X79227105Y-32515338D02*
X79212682Y-32552319D01*
X79212682Y-32552319D02*
X79197328Y-32587533D01*
X79197328Y-32587533D02*
X79180851Y-32621687D01*
X79180851Y-32621687D02*
X79161113Y-32658738D01*
X79161113Y-32658738D02*
X79141269Y-32692591D01*
X79141269Y-32692591D02*
X79120993Y-32724326D01*
X79120993Y-32724326D02*
X79100450Y-32754009D01*
X79100450Y-32754009D02*
X79078881Y-32782902D01*
X79078881Y-32782902D02*
X79056311Y-32810977D01*
X79056311Y-32810977D02*
X79032641Y-32838345D01*
X79032641Y-32838345D02*
X79008277Y-32864566D01*
X79008277Y-32864566D02*
X78982866Y-32890028D01*
X78982866Y-32890028D02*
X78956563Y-32914565D01*
X78956563Y-32914565D02*
X78929394Y-32938152D01*
X78929394Y-32938152D02*
X78901531Y-32960646D01*
X78901531Y-32960646D02*
X78872865Y-32982151D01*
X78872865Y-32982151D02*
X78842955Y-33002950D01*
X78842955Y-33002950D02*
X78811144Y-33023361D01*
X78811144Y-33023361D02*
X78779191Y-33042215D01*
X78779191Y-33042215D02*
X78744149Y-33061112D01*
X78744149Y-33061112D02*
X78710353Y-33077674D01*
X78710353Y-33077674D02*
X78675338Y-33093204D01*
X78675338Y-33093204D02*
X78638744Y-33107744D01*
X78638744Y-33107744D02*
X78598921Y-33121697D01*
X78598921Y-33121697D02*
X78560395Y-33133420D01*
X78560395Y-33133420D02*
X78518604Y-33144232D01*
X78518604Y-33144232D02*
X78475946Y-33153292D01*
X78475946Y-33153292D02*
X78432647Y-33160507D01*
X78432647Y-33160507D02*
X78386002Y-33166103D01*
X78386002Y-33166103D02*
X78337143Y-33169593D01*
X78337143Y-33169593D02*
X78289896Y-33170701D01*
X149476276Y-41094824D02*
X149525095Y-41096005D01*
X149525095Y-41096005D02*
X149572147Y-41099403D01*
X149572147Y-41099403D02*
X149619551Y-41105106D01*
X149619551Y-41105106D02*
X149662447Y-41112284D01*
X149662447Y-41112284D02*
X149704904Y-41121320D01*
X149704904Y-41121320D02*
X149745206Y-41131727D01*
X149745206Y-41131727D02*
X149784841Y-41143761D01*
X149784841Y-41143761D02*
X149822343Y-41156848D01*
X149822343Y-41156848D02*
X149860209Y-41171816D01*
X149860209Y-41171816D02*
X149896623Y-41187946D01*
X149896623Y-41187946D02*
X149930586Y-41204608D01*
X149930586Y-41204608D02*
X149963818Y-41222504D01*
X149963818Y-41222504D02*
X149995970Y-41241412D01*
X149995970Y-41241412D02*
X150026720Y-41261056D01*
X150026720Y-41261056D02*
X150056699Y-41281779D01*
X150056699Y-41281779D02*
X150086472Y-41304013D01*
X150086472Y-41304013D02*
X150114518Y-41326593D01*
X150114518Y-41326593D02*
X150141726Y-41350151D01*
X150141726Y-41350151D02*
X150171302Y-41377786D01*
X150171302Y-41377786D02*
X150196640Y-41403328D01*
X150196640Y-41403328D02*
X150221057Y-41429765D01*
X150221057Y-41429765D02*
X150244526Y-41457068D01*
X150244526Y-41457068D02*
X150266788Y-41484912D01*
X150266788Y-41484912D02*
X150288509Y-41514169D01*
X150288509Y-41514169D02*
X150308971Y-41543912D01*
X150308971Y-41543912D02*
X150329162Y-41575705D01*
X150329162Y-41575705D02*
X150347623Y-41607303D01*
X150347623Y-41607303D02*
X150365295Y-41640295D01*
X150365295Y-41640295D02*
X150381915Y-41674352D01*
X150381915Y-41674352D02*
X150397711Y-41710171D01*
X150397711Y-41710171D02*
X150412394Y-41747421D01*
X150412394Y-41747421D02*
X150425493Y-41785017D01*
X150425493Y-41785017D02*
X150437224Y-41823645D01*
X150437224Y-41823645D02*
X150447599Y-41863669D01*
X150447599Y-41863669D02*
X150456640Y-41905853D01*
X150456640Y-41905853D02*
X150463992Y-41949449D01*
X150463992Y-41949449D02*
X150469558Y-41994839D01*
X150469558Y-41994839D02*
X150473149Y-42042429D01*
X150473149Y-42042429D02*
X150474492Y-42092226D01*
X150474492Y-42092226D02*
X150474496Y-42094652D01*
X148474669Y-42094652D02*
X148475839Y-42045821D01*
X148475839Y-42045821D02*
X148479286Y-41997992D01*
X148479286Y-41997992D02*
X148484702Y-41952558D01*
X148484702Y-41952558D02*
X148491840Y-41909301D01*
X148491840Y-41909301D02*
X148500723Y-41867065D01*
X148500723Y-41867065D02*
X148511056Y-41826616D01*
X148511056Y-41826616D02*
X148523017Y-41786841D01*
X148523017Y-41786841D02*
X148536172Y-41748855D01*
X148536172Y-41748855D02*
X148550650Y-41711928D01*
X148550650Y-41711928D02*
X148565898Y-41677108D01*
X148565898Y-41677108D02*
X148583104Y-41641642D01*
X148583104Y-41641642D02*
X148600915Y-41608291D01*
X148600915Y-41608291D02*
X148619740Y-41576027D01*
X148619740Y-41576027D02*
X148639307Y-41545169D01*
X148639307Y-41545169D02*
X148659958Y-41515087D01*
X148659958Y-41515087D02*
X148682125Y-41485209D01*
X148682125Y-41485209D02*
X148704644Y-41457068D01*
X148704644Y-41457068D02*
X148728142Y-41429765D01*
X148728142Y-41429765D02*
X148752598Y-41403328D01*
X148752598Y-41403328D02*
X148777981Y-41377786D01*
X148777981Y-41377786D02*
X148804266Y-41353163D01*
X148804266Y-41353163D02*
X148832576Y-41328520D01*
X148832576Y-41328520D02*
X148865375Y-41302176D01*
X148865375Y-41302176D02*
X148896830Y-41278941D01*
X148896830Y-41278941D02*
X148926686Y-41258568D01*
X148926686Y-41258568D02*
X148958595Y-41238473D01*
X148958595Y-41238473D02*
X148990807Y-41219833D01*
X148990807Y-41219833D02*
X149024440Y-41202029D01*
X149024440Y-41202029D02*
X149060375Y-41184765D01*
X149060375Y-41184765D02*
X149096736Y-41169049D01*
X149096736Y-41169049D02*
X149133826Y-41154741D01*
X149133826Y-41154741D02*
X149171613Y-41141876D01*
X149171613Y-41141876D02*
X149211181Y-41130184D01*
X149211181Y-41130184D02*
X149251796Y-41120005D01*
X149251796Y-41120005D02*
X149293436Y-41111424D01*
X149293436Y-41111424D02*
X149337250Y-41104364D01*
X149337250Y-41104364D02*
X149382472Y-41099142D01*
X149382472Y-41099142D02*
X149430292Y-41095855D01*
X149430292Y-41095855D02*
X149476276Y-41094824D01*
X92249737Y-49915651D02*
X92248531Y-49965159D01*
X92248531Y-49965159D02*
X92245109Y-50012467D01*
X92245109Y-50012467D02*
X92239741Y-50057577D01*
X92239741Y-50057577D02*
X92232543Y-50101280D01*
X92232543Y-50101280D02*
X92223830Y-50142811D01*
X92223830Y-50142811D02*
X92213522Y-50183315D01*
X92213522Y-50183315D02*
X92201705Y-50222774D01*
X92201705Y-50222774D02*
X92188725Y-50260455D01*
X92188725Y-50260455D02*
X92174302Y-50297436D01*
X92174302Y-50297436D02*
X92158948Y-50332650D01*
X92158948Y-50332650D02*
X92142471Y-50366804D01*
X92142471Y-50366804D02*
X92122733Y-50403855D01*
X92122733Y-50403855D02*
X92102889Y-50437708D01*
X92102889Y-50437708D02*
X92082613Y-50469443D01*
X92082613Y-50469443D02*
X92062070Y-50499126D01*
X92062070Y-50499126D02*
X92040501Y-50528019D01*
X92040501Y-50528019D02*
X92017931Y-50556094D01*
X92017931Y-50556094D02*
X91994261Y-50583462D01*
X91994261Y-50583462D02*
X91969897Y-50609683D01*
X91969897Y-50609683D02*
X91944486Y-50635145D01*
X91944486Y-50635145D02*
X91918183Y-50659682D01*
X91918183Y-50659682D02*
X91891014Y-50683269D01*
X91891014Y-50683269D02*
X91863151Y-50705763D01*
X91863151Y-50705763D02*
X91834486Y-50727268D01*
X91834486Y-50727268D02*
X91804576Y-50748067D01*
X91804576Y-50748067D02*
X91772765Y-50768478D01*
X91772765Y-50768478D02*
X91740812Y-50787332D01*
X91740812Y-50787332D02*
X91705770Y-50806229D01*
X91705770Y-50806229D02*
X91671974Y-50822791D01*
X91671974Y-50822791D02*
X91636959Y-50838321D01*
X91636959Y-50838321D02*
X91600365Y-50852861D01*
X91600365Y-50852861D02*
X91560542Y-50866814D01*
X91560542Y-50866814D02*
X91522016Y-50878537D01*
X91522016Y-50878537D02*
X91480225Y-50889349D01*
X91480225Y-50889349D02*
X91437567Y-50898409D01*
X91437567Y-50898409D02*
X91394268Y-50905624D01*
X91394268Y-50905624D02*
X91347623Y-50911220D01*
X91347623Y-50911220D02*
X91298764Y-50914710D01*
X91298764Y-50914710D02*
X91251517Y-50915818D01*
X91251517Y-48915822D02*
X91300755Y-48917022D01*
X91300755Y-48917022D02*
X91347428Y-48920401D01*
X91347428Y-48920401D02*
X91394848Y-48926104D01*
X91394848Y-48926104D02*
X91438140Y-48933354D01*
X91438140Y-48933354D02*
X91480225Y-48942318D01*
X91480225Y-48942318D02*
X91520536Y-48952725D01*
X91520536Y-48952725D02*
X91560179Y-48964759D01*
X91560179Y-48964759D02*
X91599117Y-48978379D01*
X91599117Y-48978379D02*
X91635558Y-48992815D01*
X91635558Y-48992815D02*
X91671974Y-49008945D01*
X91671974Y-49008945D02*
X91705939Y-49025607D01*
X91705939Y-49025607D02*
X91739172Y-49043503D01*
X91739172Y-49043503D02*
X91771323Y-49062411D01*
X91771323Y-49062411D02*
X91802073Y-49082055D01*
X91802073Y-49082055D02*
X91832050Y-49102778D01*
X91832050Y-49102778D02*
X91861819Y-49125012D01*
X91861819Y-49125012D02*
X91889864Y-49147592D01*
X91889864Y-49147592D02*
X91917068Y-49171150D01*
X91917068Y-49171150D02*
X91946639Y-49198785D01*
X91946639Y-49198785D02*
X91971973Y-49224327D01*
X91971973Y-49224327D02*
X91996386Y-49250764D01*
X91996386Y-49250764D02*
X92019850Y-49278067D01*
X92019850Y-49278067D02*
X92042107Y-49305911D01*
X92042107Y-49305911D02*
X92063821Y-49335168D01*
X92063821Y-49335168D02*
X92084379Y-49365067D01*
X92084379Y-49365067D02*
X92104462Y-49396704D01*
X92104462Y-49396704D02*
X92122918Y-49428302D01*
X92122918Y-49428302D02*
X92140584Y-49461294D01*
X92140584Y-49461294D02*
X92157197Y-49495351D01*
X92157197Y-49495351D02*
X92172988Y-49531170D01*
X92172988Y-49531170D02*
X92187665Y-49568420D01*
X92187665Y-49568420D02*
X92200758Y-49606016D01*
X92200758Y-49606016D02*
X92212485Y-49644644D01*
X92212485Y-49644644D02*
X92222854Y-49684668D01*
X92222854Y-49684668D02*
X92231890Y-49726852D01*
X92231890Y-49726852D02*
X92239238Y-49770448D01*
X92239238Y-49770448D02*
X92244801Y-49815838D01*
X92244801Y-49815838D02*
X92248391Y-49863428D01*
X92248391Y-49863428D02*
X92249733Y-49913225D01*
X92249733Y-49913225D02*
X92249737Y-49915651D01*
X149476276Y-43094820D02*
X149427086Y-43093637D01*
X149427086Y-43093637D02*
X149380294Y-43090298D01*
X149380294Y-43090298D02*
X149334908Y-43084958D01*
X149334908Y-43084958D02*
X149291897Y-43077951D01*
X149291897Y-43077951D02*
X149249144Y-43069056D01*
X149249144Y-43069056D02*
X149207082Y-43058370D01*
X149207082Y-43058370D02*
X149167035Y-43046350D01*
X149167035Y-43046350D02*
X149126637Y-43032331D01*
X149126637Y-43032331D02*
X149090564Y-43018130D01*
X149090564Y-43018130D02*
X149053470Y-43001793D01*
X149053470Y-43001793D02*
X149019374Y-42985145D01*
X149019374Y-42985145D02*
X148986348Y-42967445D01*
X148986348Y-42967445D02*
X148954724Y-42948957D01*
X148954724Y-42948957D02*
X148923225Y-42928944D01*
X148923225Y-42928944D02*
X148890553Y-42906380D01*
X148890553Y-42906380D02*
X148861807Y-42884882D01*
X148861807Y-42884882D02*
X148834016Y-42862511D01*
X148834016Y-42862511D02*
X148806914Y-42839060D01*
X148806914Y-42839060D02*
X148780408Y-42814407D01*
X148780408Y-42814407D02*
X148754678Y-42788685D01*
X148754678Y-42788685D02*
X148730521Y-42762745D01*
X148730521Y-42762745D02*
X148706565Y-42735096D01*
X148706565Y-42735096D02*
X148683962Y-42707021D01*
X148683962Y-42707021D02*
X148660614Y-42675685D01*
X148660614Y-42675685D02*
X148640137Y-42645935D01*
X148640137Y-42645935D02*
X148619936Y-42614137D01*
X148619936Y-42614137D02*
X148600178Y-42580219D01*
X148600178Y-42580219D02*
X148582417Y-42546820D01*
X148582417Y-42546820D02*
X148565422Y-42511652D01*
X148565422Y-42511652D02*
X148550067Y-42476438D01*
X148550067Y-42476438D02*
X148535644Y-42439457D01*
X148535644Y-42439457D02*
X148522193Y-42400314D01*
X148522193Y-42400314D02*
X148510644Y-42361572D01*
X148510644Y-42361572D02*
X148500374Y-42321057D01*
X148500374Y-42321057D02*
X148491624Y-42279129D01*
X148491624Y-42279129D02*
X148484481Y-42235409D01*
X148484481Y-42235409D02*
X148479136Y-42189888D01*
X148479136Y-42189888D02*
X148475773Y-42142160D01*
X148475773Y-42142160D02*
X148474669Y-42094652D01*
X164342896Y-62170728D02*
X164342896Y-62170728D01*
X164342896Y-62170728D02*
X164293704Y-62169545D01*
X164293704Y-62169545D02*
X164246907Y-62166206D01*
X164246907Y-62166206D02*
X164201900Y-62160922D01*
X164201900Y-62160922D02*
X164158293Y-62153822D01*
X164158293Y-62153822D02*
X164115719Y-62144964D01*
X164115719Y-62144964D02*
X164075129Y-62134690D01*
X164075129Y-62134690D02*
X164035219Y-62122789D01*
X164035219Y-62122789D02*
X163996025Y-62109300D01*
X163996025Y-62109300D02*
X163957585Y-62094259D01*
X163957585Y-62094259D02*
X163922694Y-62078978D01*
X163922694Y-62078978D02*
X163887164Y-62061743D01*
X163887164Y-62061743D02*
X163853752Y-62043908D01*
X163853752Y-62043908D02*
X163820143Y-62024275D01*
X163820143Y-62024275D02*
X163789270Y-62004645D01*
X163789270Y-62004645D02*
X163759482Y-61984153D01*
X163759482Y-61984153D02*
X163729741Y-61962054D01*
X163729741Y-61962054D02*
X163699997Y-61938179D01*
X163699997Y-61938179D02*
X163672736Y-61914592D01*
X163672736Y-61914592D02*
X163646619Y-61890315D01*
X163646619Y-61890315D02*
X163619817Y-61863513D01*
X163619817Y-61863513D02*
X163595293Y-61837117D01*
X163595293Y-61837117D02*
X163569087Y-61806674D01*
X163569087Y-61806674D02*
X163546381Y-61778169D01*
X163546381Y-61778169D02*
X163524927Y-61749144D01*
X163524927Y-61749144D02*
X163504510Y-61719330D01*
X163504510Y-61719330D02*
X163484960Y-61688433D01*
X163484960Y-61688433D02*
X163464870Y-61653813D01*
X163464870Y-61653813D02*
X163446999Y-61620024D01*
X163446999Y-61620024D02*
X163430633Y-61586005D01*
X163430633Y-61586005D02*
X163415387Y-61550937D01*
X163415387Y-61550937D02*
X163400471Y-61512490D01*
X163400471Y-61512490D02*
X163387232Y-61473660D01*
X163387232Y-61473660D02*
X163375510Y-61433943D01*
X163375510Y-61433943D02*
X163365495Y-61393936D01*
X163365495Y-61393936D02*
X163356861Y-61351963D01*
X163356861Y-61351963D02*
X163349837Y-61308198D01*
X163349837Y-61308198D02*
X163344659Y-61263028D01*
X163344659Y-61263028D02*
X163341448Y-61215866D01*
X163341448Y-61215866D02*
X163340443Y-61170560D01*
X78289896Y-111429371D02*
X78289896Y-111429371D01*
X83199971Y-60470028D02*
X83199971Y-60470028D01*
X165341116Y-61170560D02*
X165339909Y-61220068D01*
X165339909Y-61220068D02*
X165336486Y-61267376D01*
X165336486Y-61267376D02*
X165331115Y-61312486D01*
X165331115Y-61312486D02*
X165323914Y-61356189D01*
X165323914Y-61356189D02*
X165315195Y-61397720D01*
X165315195Y-61397720D02*
X165304984Y-61437853D01*
X165304984Y-61437853D02*
X165293060Y-61477684D01*
X165293060Y-61477684D02*
X165280074Y-61515365D01*
X165280074Y-61515365D02*
X165265645Y-61552346D01*
X165265645Y-61552346D02*
X165250286Y-61587560D01*
X165250286Y-61587560D02*
X165233803Y-61621714D01*
X165233803Y-61621714D02*
X165214796Y-61657447D01*
X165214796Y-61657447D02*
X165196370Y-61689079D01*
X165196370Y-61689079D02*
X165176629Y-61720273D01*
X165176629Y-61720273D02*
X165156221Y-61750064D01*
X165156221Y-61750064D02*
X165134438Y-61779508D01*
X165134438Y-61779508D02*
X165112104Y-61807541D01*
X165112104Y-61807541D02*
X165088797Y-61834736D01*
X165088797Y-61834736D02*
X165064297Y-61861347D01*
X165064297Y-61861347D02*
X165038996Y-61886923D01*
X165038996Y-61886923D02*
X165013214Y-61911199D01*
X165013214Y-61911199D02*
X164985732Y-61935284D01*
X164985732Y-61935284D02*
X164957823Y-61958019D01*
X164957823Y-61958019D02*
X164929098Y-61979754D01*
X164929098Y-61979754D02*
X164899587Y-62000464D01*
X164899587Y-62000464D02*
X164866754Y-62021708D01*
X164866754Y-62021708D02*
X164834702Y-62040754D01*
X164834702Y-62040754D02*
X164797037Y-62061139D01*
X164797037Y-62061139D02*
X164763243Y-62077701D01*
X164763243Y-62077701D02*
X164728230Y-62093231D01*
X164728230Y-62093231D02*
X164691639Y-62107771D01*
X164691639Y-62107771D02*
X164654369Y-62120890D01*
X164654369Y-62120890D02*
X164615155Y-62132924D01*
X164615155Y-62132924D02*
X164574532Y-62143545D01*
X164574532Y-62143545D02*
X164533266Y-62152478D01*
X164533266Y-62152478D02*
X164486366Y-62160421D01*
X164486366Y-62160421D02*
X164438962Y-62166130D01*
X164438962Y-62166130D02*
X164391715Y-62169545D01*
X164391715Y-62169545D02*
X164342896Y-62170728D01*
X91251517Y-50915818D02*
X91251517Y-50915818D01*
X150474496Y-42094652D02*
X150473289Y-42144160D01*
X150473289Y-42144160D02*
X150469866Y-42191468D01*
X150469866Y-42191468D02*
X150464495Y-42236578D01*
X150464495Y-42236578D02*
X150457294Y-42280281D01*
X150457294Y-42280281D02*
X150448575Y-42321812D01*
X150448575Y-42321812D02*
X150438364Y-42361945D01*
X150438364Y-42361945D02*
X150426440Y-42401776D01*
X150426440Y-42401776D02*
X150413454Y-42439457D01*
X150413454Y-42439457D02*
X150399025Y-42476438D01*
X150399025Y-42476438D02*
X150383666Y-42511652D01*
X150383666Y-42511652D02*
X150367183Y-42545806D01*
X150367183Y-42545806D02*
X150348176Y-42581539D01*
X150348176Y-42581539D02*
X150329750Y-42613171D01*
X150329750Y-42613171D02*
X150310009Y-42644365D01*
X150310009Y-42644365D02*
X150289601Y-42674156D01*
X150289601Y-42674156D02*
X150267818Y-42703600D01*
X150267818Y-42703600D02*
X150245484Y-42731633D01*
X150245484Y-42731633D02*
X150222177Y-42758828D01*
X150222177Y-42758828D02*
X150197677Y-42785439D01*
X150197677Y-42785439D02*
X150172376Y-42811015D01*
X150172376Y-42811015D02*
X150146594Y-42835291D01*
X150146594Y-42835291D02*
X150119112Y-42859376D01*
X150119112Y-42859376D02*
X150091203Y-42882111D01*
X150091203Y-42882111D02*
X150062478Y-42903846D01*
X150062478Y-42903846D02*
X150032967Y-42924556D01*
X150032967Y-42924556D02*
X150000134Y-42945800D01*
X150000134Y-42945800D02*
X149968082Y-42964846D01*
X149968082Y-42964846D02*
X149930417Y-42985231D01*
X149930417Y-42985231D02*
X149896623Y-43001793D01*
X149896623Y-43001793D02*
X149861610Y-43017323D01*
X149861610Y-43017323D02*
X149825019Y-43031863D01*
X149825019Y-43031863D02*
X149787749Y-43044982D01*
X149787749Y-43044982D02*
X149748535Y-43057016D01*
X149748535Y-43057016D02*
X149707912Y-43067637D01*
X149707912Y-43067637D02*
X149666646Y-43076570D01*
X149666646Y-43076570D02*
X149619746Y-43084513D01*
X149619746Y-43084513D02*
X149572342Y-43090222D01*
X149572342Y-43090222D02*
X149525095Y-43093637D01*
X149525095Y-43093637D02*
X149476276Y-43094820D01*
X90249741Y-49915651D02*
X90250911Y-49866820D01*
X90250911Y-49866820D02*
X90254364Y-49818991D01*
X90254364Y-49818991D02*
X90259730Y-49773946D01*
X90259730Y-49773946D02*
X90266934Y-49730300D01*
X90266934Y-49730300D02*
X90275828Y-49688064D01*
X90275828Y-49688064D02*
X90286172Y-49647615D01*
X90286172Y-49647615D02*
X90298147Y-49607840D01*
X90298147Y-49607840D02*
X90311315Y-49569854D01*
X90311315Y-49569854D02*
X90326980Y-49530117D01*
X90326980Y-49530117D02*
X90342344Y-49495351D01*
X90342344Y-49495351D02*
X90358981Y-49461294D01*
X90358981Y-49461294D02*
X90376856Y-49427972D01*
X90376856Y-49427972D02*
X90395350Y-49396381D01*
X90395350Y-49396381D02*
X90416204Y-49363657D01*
X90416204Y-49363657D02*
X90436740Y-49333944D01*
X90436740Y-49333944D02*
X90458307Y-49305020D01*
X90458307Y-49305020D02*
X90481844Y-49275759D01*
X90481844Y-49275759D02*
X90505439Y-49248528D01*
X90505439Y-49248528D02*
X90529726Y-49222435D01*
X90529726Y-49222435D02*
X90555460Y-49196698D01*
X90555460Y-49196698D02*
X90581831Y-49172152D01*
X90581831Y-49172152D02*
X90608786Y-49148794D01*
X90608786Y-49148794D02*
X90640435Y-49123404D01*
X90640435Y-49123404D02*
X90672199Y-49099940D01*
X90672199Y-49099940D02*
X90702063Y-49079567D01*
X90702063Y-49079567D02*
X90734949Y-49058887D01*
X90734949Y-49058887D02*
X90768019Y-49039826D01*
X90768019Y-49039826D02*
X90801188Y-49022345D01*
X90801188Y-49022345D02*
X90835769Y-49005764D01*
X90835769Y-49005764D02*
X90872129Y-48990048D01*
X90872129Y-48990048D02*
X90909217Y-48975739D01*
X90909217Y-48975739D02*
X90946997Y-48962874D01*
X90946997Y-48962874D02*
X90986930Y-48951080D01*
X90986930Y-48951080D02*
X91027159Y-48941003D01*
X91027159Y-48941003D02*
X91069167Y-48932351D01*
X91069167Y-48932351D02*
X91115312Y-48924986D01*
X91115312Y-48924986D02*
X91160547Y-48919887D01*
X91160547Y-48919887D02*
X91207772Y-48916755D01*
X91207772Y-48916755D02*
X91251517Y-48915822D01*
X91251517Y-50915818D02*
X91202363Y-50914635D01*
X91202363Y-50914635D02*
X91154612Y-50911202D01*
X91154612Y-50911202D02*
X91109068Y-50905791D01*
X91109068Y-50905791D02*
X91066091Y-50898734D01*
X91066091Y-50898734D02*
X91023372Y-50889790D01*
X91023372Y-50889790D02*
X90982459Y-50879368D01*
X90982459Y-50879368D02*
X90942420Y-50867348D01*
X90942420Y-50867348D02*
X90902029Y-50853329D01*
X90902029Y-50853329D02*
X90865958Y-50839128D01*
X90865958Y-50839128D02*
X90828864Y-50822791D01*
X90828864Y-50822791D02*
X90794767Y-50806143D01*
X90794767Y-50806143D02*
X90761407Y-50788259D01*
X90761407Y-50788259D02*
X90729140Y-50769365D01*
X90729140Y-50769365D02*
X90698287Y-50749735D01*
X90698287Y-50749735D02*
X90667296Y-50728367D01*
X90667296Y-50728367D02*
X90638353Y-50706801D01*
X90638353Y-50706801D02*
X90610227Y-50684231D01*
X90610227Y-50684231D02*
X90583227Y-50660933D01*
X90583227Y-50660933D02*
X90556946Y-50636574D01*
X90556946Y-50636574D02*
X90531030Y-50610761D01*
X90531030Y-50610761D02*
X90506694Y-50584718D01*
X90506694Y-50584718D02*
X90482808Y-50557245D01*
X90482808Y-50557245D02*
X90460151Y-50529205D01*
X90460151Y-50529205D02*
X90438498Y-50500346D01*
X90438498Y-50500346D02*
X90417038Y-50469443D01*
X90417038Y-50469443D02*
X90396727Y-50437708D01*
X90396727Y-50437708D02*
X90378152Y-50406159D01*
X90378152Y-50406159D02*
X90360365Y-50373213D01*
X90360365Y-50373213D02*
X90343629Y-50339195D01*
X90343629Y-50339195D02*
X90326539Y-50300603D01*
X90326539Y-50300603D02*
X90312378Y-50264757D01*
X90312378Y-50264757D02*
X90299337Y-50227521D01*
X90299337Y-50227521D02*
X90287424Y-50188516D01*
X90287424Y-50188516D02*
X90277076Y-50148852D01*
X90277076Y-50148852D02*
X90268105Y-50107416D01*
X90268105Y-50107416D02*
X90260751Y-50064581D01*
X90260751Y-50064581D02*
X90255112Y-50019962D01*
X90255112Y-50019962D02*
X90251340Y-49972754D01*
X90251340Y-49972754D02*
X90249768Y-49923335D01*
X90249768Y-49923335D02*
X90249741Y-49915651D01*
X79450000Y-64220000D02*
X79450324Y-64170051D01*
X79450324Y-64170051D02*
X79451340Y-64118752D01*
X79451340Y-64118752D02*
X79453413Y-64058618D01*
X79453413Y-64058618D02*
X79455917Y-64007694D01*
X79455917Y-64007694D02*
X79458892Y-63959930D01*
X79458892Y-63959930D02*
X79462461Y-63912330D01*
X79462461Y-63912330D02*
X79466554Y-63865634D01*
X79466554Y-63865634D02*
X79471609Y-63815418D01*
X79471609Y-63815418D02*
X79476970Y-63768334D01*
X79476970Y-63768334D02*
X79482717Y-63722891D01*
X79482717Y-63722891D02*
X79489112Y-63676889D01*
X79489112Y-63676889D02*
X79495718Y-63633246D01*
X79495718Y-63633246D02*
X79503316Y-63586874D01*
X79503316Y-63586874D02*
X79510954Y-63543574D01*
X79510954Y-63543574D02*
X79519087Y-63500447D01*
X79519087Y-63500447D02*
X79527564Y-63458208D01*
X79527564Y-63458208D02*
X79536823Y-63414718D01*
X79536823Y-63414718D02*
X79546421Y-63372125D01*
X79546421Y-63372125D02*
X79556501Y-63329714D01*
X79556501Y-63329714D02*
X79567781Y-63284683D01*
X79567781Y-63284683D02*
X79578846Y-63242660D01*
X79578846Y-63242660D02*
X79591172Y-63198052D01*
X79591172Y-63198052D02*
X79602395Y-63159202D01*
X79602395Y-63159202D02*
X79614025Y-63120526D01*
X79614025Y-63120526D02*
X79626935Y-63079282D01*
X79626935Y-63079282D02*
X79639400Y-63040973D01*
X79639400Y-63040973D02*
X79652263Y-63002846D01*
X79652263Y-63002846D02*
X79665524Y-62964901D01*
X79665524Y-62964901D02*
X79680170Y-62924455D01*
X79680170Y-62924455D02*
X79696285Y-62881548D01*
X79696285Y-62881548D02*
X79710806Y-62844213D01*
X79710806Y-62844213D02*
X79725711Y-62807071D01*
X79725711Y-62807071D02*
X79742106Y-62767493D01*
X79742106Y-62767493D02*
X79757804Y-62730760D01*
X79757804Y-62730760D02*
X79773587Y-62694879D01*
X79773587Y-62694879D02*
X79790330Y-62657901D01*
X79790330Y-62657901D02*
X79806850Y-62622423D01*
X79806850Y-62622423D02*
X79824352Y-62585869D01*
X79824352Y-62585869D02*
X79843184Y-62547627D01*
X79843184Y-62547627D02*
X79863738Y-62507107D01*
X79863738Y-62507107D02*
X79890096Y-62456857D01*
X79890096Y-62456857D02*
X79908983Y-62421950D01*
X79908983Y-62421950D02*
X79926842Y-62389734D01*
X79926842Y-62389734D02*
X79947828Y-62352806D01*
X79947828Y-62352806D02*
X79966342Y-62321010D01*
X79966342Y-62321010D02*
X79985160Y-62289415D01*
X79985160Y-62289415D02*
X80004276Y-62258022D01*
X80004276Y-62258022D02*
X80024066Y-62226231D01*
X80024066Y-62226231D02*
X80044546Y-62194061D01*
X80044546Y-62194061D02*
X80064956Y-62162704D01*
X80064956Y-62162704D02*
X80085275Y-62132147D01*
X80085275Y-62132147D02*
X80107480Y-62099474D01*
X80107480Y-62099474D02*
X80128397Y-62069358D01*
X80128397Y-62069358D02*
X80149600Y-62039456D01*
X80149600Y-62039456D02*
X80170671Y-62010339D01*
X80170671Y-62010339D02*
X80194543Y-61978048D01*
X80194543Y-61978048D02*
X80218321Y-61946577D01*
X80218321Y-61946577D02*
X80240689Y-61917589D01*
X80240689Y-61917589D02*
X80262896Y-61889376D01*
X80262896Y-61889376D02*
X80288027Y-61858104D01*
X80288027Y-61858104D02*
X80310786Y-61830355D01*
X80310786Y-61830355D02*
X80341993Y-61793167D01*
X80341993Y-61793167D02*
X80371357Y-61759042D01*
X80371357Y-61759042D02*
X80410505Y-61714797D01*
X80410505Y-61714797D02*
X80435081Y-61687718D01*
X80435081Y-61687718D02*
X80461837Y-61658827D01*
X80461837Y-61658827D02*
X80486466Y-61632762D01*
X80486466Y-61632762D02*
X80514281Y-61603908D01*
X80514281Y-61603908D02*
X80545874Y-61571866D01*
X80545874Y-61571866D02*
X80575834Y-61542170D01*
X80575834Y-61542170D02*
X80602069Y-61516705D01*
X80602069Y-61516705D02*
X80628038Y-61491976D01*
X80628038Y-61491976D02*
X80658888Y-61463200D01*
X80658888Y-61463200D02*
X80692676Y-61432414D01*
X80692676Y-61432414D02*
X80722085Y-61406217D01*
X80722085Y-61406217D02*
X80749107Y-61382625D01*
X80749107Y-61382625D02*
X80788181Y-61349300D01*
X80788181Y-61349300D02*
X80815752Y-61326332D01*
X80815752Y-61326332D02*
X80844637Y-61302736D01*
X80844637Y-61302736D02*
X80872656Y-61280297D01*
X80872656Y-61280297D02*
X80901450Y-61257691D01*
X80901450Y-61257691D02*
X80931029Y-61234932D01*
X80931029Y-61234932D02*
X80962534Y-61211200D01*
X80962534Y-61211200D02*
X80992019Y-61189453D01*
X80992019Y-61189453D02*
X81025735Y-61165119D01*
X81025735Y-61165119D02*
X81060887Y-61140346D01*
X81060887Y-61140346D02*
X81095753Y-61116364D01*
X81095753Y-61116364D02*
X81128545Y-61094325D01*
X81128545Y-61094325D02*
X81159215Y-61074164D01*
X81159215Y-61074164D02*
X81194859Y-61051264D01*
X81194859Y-61051264D02*
X81226572Y-61031363D01*
X81226572Y-61031363D02*
X81259707Y-61011038D01*
X81259707Y-61011038D02*
X81300982Y-60986370D01*
X81300982Y-60986370D02*
X81332778Y-60967856D01*
X81332778Y-60967856D02*
X81367235Y-60948256D01*
X81367235Y-60948256D02*
X81401922Y-60929011D01*
X81401922Y-60929011D02*
X81436829Y-60910124D01*
X81436829Y-60910124D02*
X81474475Y-60890286D01*
X81474475Y-60890286D02*
X81512372Y-60870864D01*
X81512372Y-60870864D02*
X81553067Y-60850611D01*
X81553067Y-60850611D02*
X81591471Y-60832058D01*
X81591471Y-60832058D02*
X81630114Y-60813932D01*
X81630114Y-60813932D02*
X81666398Y-60797400D01*
X81666398Y-60797400D02*
X81704846Y-60780390D01*
X81704846Y-60780390D02*
X81740235Y-60765189D01*
X81740235Y-60765189D02*
X81779109Y-60748982D01*
X81779109Y-60748982D02*
X81818866Y-60732939D01*
X81818866Y-60732939D02*
X81856175Y-60718364D01*
X81856175Y-60718364D02*
X81899051Y-60702184D01*
X81899051Y-60702184D02*
X81936767Y-60688445D01*
X81936767Y-60688445D02*
X81974672Y-60675099D01*
X81974672Y-60675099D02*
X82012759Y-60662150D01*
X82012759Y-60662150D02*
X82051715Y-60649379D01*
X82051715Y-60649379D02*
X82094988Y-60635748D01*
X82094988Y-60635748D02*
X82136405Y-60623240D01*
X82136405Y-60623240D02*
X82178024Y-60611200D01*
X82178024Y-60611200D02*
X82219838Y-60599629D01*
X82219838Y-60599629D02*
X82264655Y-60587809D01*
X82264655Y-60587809D02*
X82309686Y-60576529D01*
X82309686Y-60576529D02*
X82352097Y-60566449D01*
X82352097Y-60566449D02*
X82394690Y-60556851D01*
X82394690Y-60556851D02*
X82436752Y-60547886D01*
X82436752Y-60547886D02*
X82480419Y-60539115D01*
X82480419Y-60539115D02*
X82523546Y-60530982D01*
X82523546Y-60530982D02*
X82566845Y-60523344D01*
X82566845Y-60523344D02*
X82613217Y-60515746D01*
X82613217Y-60515746D02*
X82656860Y-60509140D01*
X82656860Y-60509140D02*
X82702862Y-60502745D01*
X82702862Y-60502745D02*
X82748305Y-60496998D01*
X82748305Y-60496998D02*
X82793916Y-60491796D01*
X82793916Y-60491796D02*
X82844126Y-60486720D01*
X82844126Y-60486720D02*
X82892301Y-60482489D01*
X82892301Y-60482489D02*
X82939901Y-60478920D01*
X82939901Y-60478920D02*
X82987665Y-60475945D01*
X82987665Y-60475945D02*
X83035589Y-60473569D01*
X83035589Y-60473569D02*
X83086676Y-60471707D01*
X83086676Y-60471707D02*
X83143977Y-60470435D01*
X83143977Y-60470435D02*
X83199971Y-60470028D01*
M02*
