G04 #@! TF.GenerationSoftware,KiCad,Pcbnew,(5.1.5-0-10_14)*
G04 #@! TF.CreationDate,2020-05-14T05:15:00+09:00*
G04 #@! TF.ProjectId,N-top-v02,4e2d746f-702d-4763-9032-2e6b69636164,rev?*
G04 #@! TF.SameCoordinates,Original*
G04 #@! TF.FileFunction,Copper,L2,Bot*
G04 #@! TF.FilePolarity,Positive*
%FSLAX46Y46*%
G04 Gerber Fmt 4.6, Leading zero omitted, Abs format (unit mm)*
G04 Created by KiCad (PCBNEW (5.1.5-0-10_14)) date 2020-05-14 05:15:00*
%MOMM*%
%LPD*%
G04 APERTURE LIST*
%ADD10C,0.254000*%
G04 APERTURE END LIST*
D10*
G36*
X167680856Y-154510711D02*
G01*
X74948043Y-154510711D01*
X74948043Y-151034042D01*
X76605000Y-151034042D01*
X76605000Y-151365958D01*
X76669754Y-151691496D01*
X76796772Y-151998147D01*
X76981175Y-152274125D01*
X77215875Y-152508825D01*
X77491853Y-152693228D01*
X77798504Y-152820246D01*
X78124042Y-152885000D01*
X78455958Y-152885000D01*
X78781496Y-152820246D01*
X79088147Y-152693228D01*
X79364125Y-152508825D01*
X79598825Y-152274125D01*
X79783228Y-151998147D01*
X79910246Y-151691496D01*
X79975000Y-151365958D01*
X79975000Y-151034042D01*
X79910246Y-150708504D01*
X79783228Y-150401853D01*
X79598825Y-150125875D01*
X79364125Y-149891175D01*
X79088147Y-149706772D01*
X78781496Y-149579754D01*
X78455958Y-149515000D01*
X78124042Y-149515000D01*
X77798504Y-149579754D01*
X77491853Y-149706772D01*
X77215875Y-149891175D01*
X76981175Y-150125875D01*
X76796772Y-150401853D01*
X76669754Y-150708504D01*
X76605000Y-151034042D01*
X74948043Y-151034042D01*
X74948043Y-110264042D01*
X76605000Y-110264042D01*
X76605000Y-110595958D01*
X76669754Y-110921496D01*
X76796772Y-111228147D01*
X76981175Y-111504125D01*
X77215875Y-111738825D01*
X77491853Y-111923228D01*
X77798504Y-112050246D01*
X78124042Y-112115000D01*
X78455958Y-112115000D01*
X78781496Y-112050246D01*
X79088147Y-111923228D01*
X79364125Y-111738825D01*
X79598825Y-111504125D01*
X79783228Y-111228147D01*
X79910246Y-110921496D01*
X79975000Y-110595958D01*
X79975000Y-110264042D01*
X79910246Y-109938504D01*
X79783228Y-109631853D01*
X79598825Y-109355875D01*
X79364125Y-109121175D01*
X79088147Y-108936772D01*
X78781496Y-108809754D01*
X78455958Y-108745000D01*
X78124042Y-108745000D01*
X77798504Y-108809754D01*
X77491853Y-108936772D01*
X77215875Y-109121175D01*
X76981175Y-109355875D01*
X76796772Y-109631853D01*
X76669754Y-109938504D01*
X76605000Y-110264042D01*
X74948043Y-110264042D01*
X74948043Y-92476931D01*
X76693046Y-92476931D01*
X76808934Y-93019937D01*
X77916525Y-98209689D01*
X80639959Y-110970691D01*
X85111549Y-131922913D01*
X87852642Y-144766664D01*
X88094273Y-145898859D01*
X88038825Y-145815875D01*
X87804125Y-145581175D01*
X87528147Y-145396772D01*
X87221496Y-145269754D01*
X86895958Y-145205000D01*
X86564042Y-145205000D01*
X86238504Y-145269754D01*
X85931853Y-145396772D01*
X85655875Y-145581175D01*
X85421175Y-145815875D01*
X85236772Y-146091853D01*
X85109754Y-146398504D01*
X85045000Y-146724042D01*
X85045000Y-147055958D01*
X85109754Y-147381496D01*
X85236772Y-147688147D01*
X85421175Y-147964125D01*
X85655875Y-148198825D01*
X85931853Y-148383228D01*
X86238504Y-148510246D01*
X86564042Y-148575000D01*
X86895958Y-148575000D01*
X87221496Y-148510246D01*
X87528147Y-148383228D01*
X87804125Y-148198825D01*
X88038825Y-147964125D01*
X88223228Y-147688147D01*
X88350246Y-147381496D01*
X88379407Y-147234893D01*
X88744189Y-148944127D01*
X89106438Y-150641488D01*
X89106455Y-150641571D01*
X89192120Y-151042960D01*
X89203020Y-151077223D01*
X89210918Y-151112303D01*
X89213871Y-151121032D01*
X89226800Y-151158395D01*
X89230889Y-151167290D01*
X89233452Y-151176736D01*
X89257755Y-151225735D01*
X89280600Y-151275432D01*
X89286337Y-151283361D01*
X89290687Y-151292131D01*
X89295622Y-151299913D01*
X89315402Y-151330627D01*
X89319588Y-151335912D01*
X89322790Y-151341847D01*
X89359550Y-151386365D01*
X89395379Y-151431600D01*
X89400511Y-151435971D01*
X89404806Y-151441172D01*
X89411384Y-151447625D01*
X89437379Y-151472774D01*
X89474259Y-151502060D01*
X89481431Y-151508398D01*
X89494628Y-151521263D01*
X89499785Y-151524621D01*
X89509547Y-151533249D01*
X89517052Y-151538596D01*
X89527776Y-151546125D01*
X89534627Y-151549996D01*
X89538253Y-151552876D01*
X89554850Y-151561425D01*
X89565882Y-151567659D01*
X89602572Y-151591549D01*
X89610778Y-151595743D01*
X89644420Y-151612640D01*
X89658832Y-151618192D01*
X89672262Y-151625820D01*
X89718829Y-151641306D01*
X89764619Y-151658947D01*
X89779833Y-151661594D01*
X89794490Y-151666468D01*
X89803491Y-151668446D01*
X89845075Y-151677281D01*
X89865883Y-151679613D01*
X89886195Y-151684665D01*
X89929750Y-151686771D01*
X89973083Y-151691627D01*
X89993939Y-151689874D01*
X90014855Y-151690885D01*
X90024056Y-151690365D01*
X90069308Y-151687492D01*
X90112719Y-151680435D01*
X90156497Y-151676088D01*
X90165522Y-151674223D01*
X90224021Y-151661712D01*
X90224023Y-151661711D01*
X90320253Y-151641140D01*
X90320258Y-151641139D01*
X90452756Y-151612813D01*
X90452760Y-151612812D01*
X90607701Y-151579688D01*
X90607741Y-151579680D01*
X90784867Y-151541816D01*
X90784871Y-151541815D01*
X90983705Y-151499311D01*
X90983749Y-151499302D01*
X91319462Y-151427542D01*
X91319491Y-151427536D01*
X91843478Y-151315531D01*
X92291888Y-151219681D01*
X92291892Y-151219680D01*
X92613664Y-151150900D01*
X92613684Y-151150896D01*
X93129952Y-151040546D01*
X93300733Y-151004042D01*
X162655000Y-151004042D01*
X162655000Y-151335958D01*
X162719754Y-151661496D01*
X162846772Y-151968147D01*
X163031175Y-152244125D01*
X163265875Y-152478825D01*
X163541853Y-152663228D01*
X163848504Y-152790246D01*
X164174042Y-152855000D01*
X164505958Y-152855000D01*
X164831496Y-152790246D01*
X165138147Y-152663228D01*
X165414125Y-152478825D01*
X165648825Y-152244125D01*
X165833228Y-151968147D01*
X165960246Y-151661496D01*
X166025000Y-151335958D01*
X166025000Y-151004042D01*
X165960246Y-150678504D01*
X165833228Y-150371853D01*
X165648825Y-150095875D01*
X165414125Y-149861175D01*
X165138147Y-149676772D01*
X164831496Y-149549754D01*
X164505958Y-149485000D01*
X164174042Y-149485000D01*
X163848504Y-149549754D01*
X163541853Y-149676772D01*
X163265875Y-149861175D01*
X163031175Y-150095875D01*
X162846772Y-150371853D01*
X162719754Y-150678504D01*
X162655000Y-151004042D01*
X93300733Y-151004042D01*
X93886592Y-150878817D01*
X93886594Y-150878816D01*
X94714929Y-150701765D01*
X95612038Y-150510013D01*
X95612040Y-150510012D01*
X96574884Y-150304212D01*
X96574991Y-150304190D01*
X97600864Y-150084919D01*
X97600866Y-150084918D01*
X99244293Y-149733653D01*
X101638431Y-149221933D01*
X103571577Y-148808746D01*
X103571579Y-148808745D01*
X104575276Y-148594217D01*
X104575280Y-148594216D01*
X105257030Y-148448501D01*
X105257032Y-148448500D01*
X107000281Y-148075905D01*
X109921171Y-147451605D01*
X112970819Y-146799786D01*
X112970821Y-146799785D01*
X117726723Y-145783282D01*
X122658197Y-144729254D01*
X125988760Y-144017400D01*
X125988768Y-144017398D01*
X131002151Y-142945867D01*
X137592881Y-141537205D01*
X137592989Y-141537183D01*
X146964014Y-139534281D01*
X146964122Y-139534259D01*
X153680763Y-138098689D01*
X156074646Y-137587035D01*
X156074754Y-137587013D01*
X158246321Y-137122877D01*
X158246331Y-137122874D01*
X160172051Y-136711282D01*
X160838132Y-136568918D01*
X160691175Y-136715875D01*
X160506772Y-136991853D01*
X160379754Y-137298504D01*
X160315000Y-137624042D01*
X160315000Y-137955958D01*
X160379754Y-138281496D01*
X160506772Y-138588147D01*
X160691175Y-138864125D01*
X160925875Y-139098825D01*
X161201853Y-139283228D01*
X161508504Y-139410246D01*
X161834042Y-139475000D01*
X162165958Y-139475000D01*
X162491496Y-139410246D01*
X162798147Y-139283228D01*
X163074125Y-139098825D01*
X163308825Y-138864125D01*
X163493228Y-138588147D01*
X163620246Y-138281496D01*
X163685000Y-137955958D01*
X163685000Y-137624042D01*
X163620246Y-137298504D01*
X163493228Y-136991853D01*
X163308825Y-136715875D01*
X163074125Y-136481175D01*
X162798147Y-136296772D01*
X162564409Y-136199955D01*
X162586531Y-136195227D01*
X162586536Y-136195225D01*
X164240095Y-135841801D01*
X164948326Y-135690427D01*
X164948355Y-135690421D01*
X165152254Y-135646840D01*
X165187894Y-135635490D01*
X165224358Y-135627100D01*
X165233073Y-135624105D01*
X165271317Y-135610669D01*
X165280844Y-135606235D01*
X165290967Y-135603413D01*
X165339169Y-135579090D01*
X165388098Y-135556317D01*
X165396579Y-135550119D01*
X165405965Y-135545383D01*
X165413713Y-135540394D01*
X165444203Y-135520459D01*
X165448896Y-135516689D01*
X165454176Y-135513808D01*
X165499074Y-135476378D01*
X165544622Y-135439787D01*
X165548488Y-135435184D01*
X165553114Y-135431327D01*
X165559536Y-135424718D01*
X165584525Y-135398644D01*
X165588256Y-135393900D01*
X165592766Y-135389887D01*
X165628051Y-135343297D01*
X165664151Y-135297394D01*
X165666888Y-135292018D01*
X165670535Y-135287203D01*
X165675300Y-135279315D01*
X165694053Y-135247780D01*
X165700014Y-135235076D01*
X165707841Y-135223433D01*
X165727328Y-135176871D01*
X165748773Y-135131171D01*
X165752152Y-135117555D01*
X165757570Y-135104610D01*
X165760220Y-135095784D01*
X165772425Y-135054072D01*
X165777676Y-135026305D01*
X165785939Y-134999295D01*
X165789614Y-134963180D01*
X165796361Y-134927505D01*
X165796119Y-134899260D01*
X165798980Y-134871147D01*
X165798949Y-134861932D01*
X165798438Y-134812298D01*
X165792572Y-134758215D01*
X165788357Y-134703978D01*
X165786686Y-134694916D01*
X165785282Y-134687587D01*
X165784706Y-134685635D01*
X165784507Y-134683606D01*
X165782654Y-134674579D01*
X165759890Y-134567453D01*
X165759890Y-134567452D01*
X165693705Y-134255967D01*
X165693705Y-134255966D01*
X165603438Y-133831127D01*
X165489879Y-133296651D01*
X165489877Y-133296645D01*
X165280288Y-132310182D01*
X165280260Y-132310045D01*
X165017343Y-131072580D01*
X165017342Y-131072578D01*
X164818510Y-130136732D01*
X164818509Y-130136730D01*
X164486506Y-128574083D01*
X163977510Y-126178370D01*
X163977509Y-126178368D01*
X163549967Y-124166032D01*
X163246910Y-122739616D01*
X163246909Y-122739614D01*
X162766862Y-120480137D01*
X162253255Y-118062707D01*
X161896506Y-116383570D01*
X161341446Y-113771025D01*
X161341445Y-113771023D01*
X160165791Y-108237466D01*
X157618658Y-96248634D01*
X157618658Y-96248633D01*
X154945171Y-83665084D01*
X153188101Y-75394921D01*
X151920822Y-69430110D01*
X151108600Y-65607164D01*
X150331117Y-61947725D01*
X150331116Y-61947721D01*
X150130623Y-61004042D01*
X162655000Y-61004042D01*
X162655000Y-61335958D01*
X162719754Y-61661496D01*
X162846772Y-61968147D01*
X163031175Y-62244125D01*
X163265875Y-62478825D01*
X163541853Y-62663228D01*
X163848504Y-62790246D01*
X164174042Y-62855000D01*
X164505958Y-62855000D01*
X164831496Y-62790246D01*
X165138147Y-62663228D01*
X165414125Y-62478825D01*
X165648825Y-62244125D01*
X165833228Y-61968147D01*
X165960246Y-61661496D01*
X166025000Y-61335958D01*
X166025000Y-61004042D01*
X165960246Y-60678504D01*
X165833228Y-60371853D01*
X165648825Y-60095875D01*
X165414125Y-59861175D01*
X165138147Y-59676772D01*
X164831496Y-59549754D01*
X164505958Y-59485000D01*
X164174042Y-59485000D01*
X163848504Y-59549754D01*
X163541853Y-59676772D01*
X163265875Y-59861175D01*
X163031175Y-60095875D01*
X162846772Y-60371853D01*
X162719754Y-60678504D01*
X162655000Y-61004042D01*
X150130623Y-61004042D01*
X149594688Y-58481523D01*
X149594688Y-58481522D01*
X148905628Y-55238287D01*
X148270255Y-52247748D01*
X147834780Y-50198083D01*
X147834780Y-50198082D01*
X147563280Y-48920208D01*
X147563280Y-48920207D01*
X147185835Y-47143683D01*
X146853787Y-45580838D01*
X146853785Y-45580830D01*
X146654921Y-44644849D01*
X146654920Y-44644847D01*
X146476190Y-43803627D01*
X146476190Y-43803626D01*
X146318381Y-43060883D01*
X146318381Y-43060882D01*
X146182284Y-42420334D01*
X146182283Y-42420331D01*
X146078959Y-41934042D01*
X147795000Y-41934042D01*
X147795000Y-42265958D01*
X147859754Y-42591496D01*
X147986772Y-42898147D01*
X148171175Y-43174125D01*
X148405875Y-43408825D01*
X148681853Y-43593228D01*
X148988504Y-43720246D01*
X149314042Y-43785000D01*
X149645958Y-43785000D01*
X149971496Y-43720246D01*
X150278147Y-43593228D01*
X150554125Y-43408825D01*
X150788825Y-43174125D01*
X150973228Y-42898147D01*
X151100246Y-42591496D01*
X151165000Y-42265958D01*
X151165000Y-41934042D01*
X151100246Y-41608504D01*
X150973228Y-41301853D01*
X150788825Y-41025875D01*
X150554125Y-40791175D01*
X150278147Y-40606772D01*
X149971496Y-40479754D01*
X149645958Y-40415000D01*
X149314042Y-40415000D01*
X148988504Y-40479754D01*
X148681853Y-40606772D01*
X148405875Y-40791175D01*
X148171175Y-41025875D01*
X147986772Y-41301853D01*
X147859754Y-41608504D01*
X147795000Y-41934042D01*
X146078959Y-41934042D01*
X146068686Y-41885694D01*
X145978382Y-41460684D01*
X145978381Y-41460678D01*
X145927183Y-41219730D01*
X145900240Y-41092931D01*
X145900238Y-41092926D01*
X145889375Y-41041801D01*
X145879083Y-41009349D01*
X145871828Y-40976085D01*
X145868934Y-40967336D01*
X145856118Y-40929481D01*
X145851559Y-40919387D01*
X145848690Y-40908693D01*
X145825090Y-40860773D01*
X145803103Y-40812087D01*
X145796673Y-40803073D01*
X145791779Y-40793137D01*
X145786865Y-40785341D01*
X145767044Y-40754372D01*
X145762855Y-40749053D01*
X145759657Y-40743086D01*
X145723043Y-40698497D01*
X145687351Y-40653174D01*
X145682208Y-40648769D01*
X145677913Y-40643538D01*
X145671353Y-40637067D01*
X145645993Y-40612398D01*
X145609864Y-40583548D01*
X145587747Y-40563789D01*
X145581578Y-40557914D01*
X145580170Y-40557020D01*
X145575371Y-40552733D01*
X145567894Y-40547346D01*
X145557310Y-40539831D01*
X145549575Y-40535406D01*
X145545338Y-40532022D01*
X145527442Y-40522742D01*
X145514481Y-40515327D01*
X145472825Y-40488887D01*
X145464571Y-40484789D01*
X145430893Y-40468360D01*
X145420509Y-40464498D01*
X145410892Y-40459015D01*
X145360222Y-40442073D01*
X145310164Y-40423454D01*
X145299240Y-40421684D01*
X145288730Y-40418170D01*
X145279733Y-40416178D01*
X145238546Y-40407358D01*
X145216872Y-40404893D01*
X145195704Y-40399652D01*
X145153025Y-40397634D01*
X145110560Y-40392805D01*
X145088822Y-40394597D01*
X145067038Y-40393567D01*
X145057838Y-40394096D01*
X145011631Y-40397078D01*
X144968768Y-40404092D01*
X144925544Y-40408356D01*
X144916519Y-40410215D01*
X144528662Y-40492905D01*
X144528632Y-40492911D01*
X142906493Y-40838750D01*
X138929238Y-41686697D01*
X131155742Y-43343995D01*
X121735268Y-45352426D01*
X121735239Y-45352432D01*
X106780932Y-48540666D01*
X94571472Y-51143702D01*
X90594042Y-51991684D01*
X88971794Y-52337546D01*
X88971765Y-52337552D01*
X88583803Y-52420266D01*
X88549164Y-52431278D01*
X88513710Y-52439296D01*
X88504984Y-52442257D01*
X88467572Y-52455244D01*
X88459015Y-52459188D01*
X88449928Y-52461652D01*
X88400601Y-52486109D01*
X88350588Y-52509159D01*
X88342964Y-52514687D01*
X88334525Y-52518871D01*
X88326742Y-52523806D01*
X88296105Y-52543530D01*
X88291288Y-52547344D01*
X88285877Y-52550250D01*
X88240825Y-52587303D01*
X88195121Y-52623493D01*
X88191141Y-52628165D01*
X88186392Y-52632071D01*
X88179926Y-52638636D01*
X88154694Y-52664615D01*
X88125498Y-52701236D01*
X88109584Y-52719143D01*
X88101290Y-52727815D01*
X88099799Y-52730154D01*
X88094373Y-52736259D01*
X88089005Y-52743750D01*
X88081364Y-52754571D01*
X88077353Y-52761624D01*
X88074396Y-52765333D01*
X88065815Y-52781912D01*
X88057735Y-52796121D01*
X88032036Y-52836423D01*
X88027921Y-52844669D01*
X88011139Y-52878890D01*
X88005829Y-52893074D01*
X87998462Y-52906310D01*
X87983286Y-52953294D01*
X87965980Y-52999524D01*
X87963527Y-53014468D01*
X87958870Y-53028885D01*
X87956970Y-53037902D01*
X87948354Y-53080249D01*
X87946166Y-53101424D01*
X87941230Y-53122121D01*
X87939560Y-53165340D01*
X87935112Y-53208377D01*
X87937078Y-53229568D01*
X87936256Y-53250834D01*
X87936865Y-53260030D01*
X87940080Y-53303943D01*
X87947043Y-53344306D01*
X87951113Y-53385082D01*
X87952982Y-53394105D01*
X87966893Y-53458991D01*
X87966896Y-53459004D01*
X87983015Y-53534182D01*
X87983016Y-53534186D01*
X88021666Y-53714440D01*
X88021678Y-53714499D01*
X88087006Y-54019169D01*
X88087018Y-54019228D01*
X88166398Y-54389425D01*
X88166410Y-54389485D01*
X88234931Y-54709039D01*
X88284177Y-54938705D01*
X88284189Y-54938764D01*
X88363172Y-55307109D01*
X88363184Y-55307168D01*
X88538741Y-56125885D01*
X88806821Y-57376088D01*
X88806824Y-57376098D01*
X89104053Y-58762231D01*
X89422097Y-60245431D01*
X89422110Y-60245492D01*
X89752663Y-61787021D01*
X89752669Y-61787051D01*
X90087405Y-63348084D01*
X90417988Y-64889742D01*
X90417994Y-64889771D01*
X90736105Y-66373261D01*
X90736111Y-66373290D01*
X91033432Y-67759817D01*
X91236661Y-68707559D01*
X91361919Y-69291687D01*
X91361920Y-69291689D01*
X91532386Y-70086627D01*
X91674232Y-70748099D01*
X91674244Y-70748158D01*
X91753732Y-71118832D01*
X91753733Y-71118835D01*
X91782366Y-71252357D01*
X91500580Y-71310420D01*
X91500574Y-71310422D01*
X90887009Y-71436851D01*
X90886980Y-71436857D01*
X90414737Y-71534167D01*
X89620883Y-71697749D01*
X87765694Y-72080032D01*
X87765666Y-72080038D01*
X84889173Y-72672777D01*
X84889165Y-72672779D01*
X81856633Y-73297675D01*
X81856524Y-73297697D01*
X79669476Y-73748367D01*
X79669468Y-73748369D01*
X78314316Y-74027616D01*
X78314306Y-74027619D01*
X77087085Y-74280503D01*
X76024888Y-74499382D01*
X76024884Y-74499383D01*
X75366052Y-74635142D01*
X75366050Y-74635143D01*
X74993541Y-74711901D01*
X74993513Y-74711907D01*
X74948043Y-74721277D01*
X74948043Y-64221065D01*
X78790001Y-64221065D01*
X78790023Y-64234699D01*
X78790038Y-64234852D01*
X78790057Y-64240425D01*
X78790583Y-64291507D01*
X78790582Y-64291514D01*
X78790584Y-64291616D01*
X78790586Y-64291838D01*
X78790588Y-64291854D01*
X78790737Y-64300728D01*
X78791954Y-64351929D01*
X78792237Y-64361140D01*
X78794274Y-64415216D01*
X78794277Y-64415237D01*
X78794667Y-64424084D01*
X78797087Y-64471389D01*
X78797087Y-64471397D01*
X78797092Y-64471482D01*
X78797118Y-64471988D01*
X78797123Y-64472019D01*
X78797614Y-64480597D01*
X78800873Y-64531318D01*
X78800880Y-64531359D01*
X78801482Y-64539916D01*
X78805163Y-64587487D01*
X78805173Y-64587545D01*
X78805861Y-64595822D01*
X78810125Y-64643125D01*
X78810125Y-64643128D01*
X78811015Y-64652300D01*
X78816851Y-64708369D01*
X78816855Y-64708390D01*
X78817831Y-64717203D01*
X78823108Y-64762030D01*
X78823124Y-64762103D01*
X78824104Y-64770064D01*
X78830108Y-64816187D01*
X78830122Y-64816247D01*
X78831225Y-64824370D01*
X78837896Y-64871046D01*
X78837913Y-64871116D01*
X78839087Y-64879031D01*
X78845862Y-64922620D01*
X78845880Y-64922691D01*
X78847151Y-64930593D01*
X78855052Y-64977628D01*
X78855068Y-64977689D01*
X78856493Y-64985885D01*
X78864843Y-65032001D01*
X78864866Y-65032082D01*
X78866309Y-65039827D01*
X78874504Y-65082166D01*
X78874532Y-65082261D01*
X78876009Y-65089706D01*
X78884829Y-65132590D01*
X78884856Y-65132679D01*
X78886443Y-65140208D01*
X78895907Y-65183621D01*
X78895934Y-65183705D01*
X78897608Y-65191210D01*
X78907240Y-65233020D01*
X78907253Y-65233058D01*
X78909247Y-65241473D01*
X78922227Y-65294606D01*
X78922228Y-65294617D01*
X78922247Y-65294691D01*
X78922339Y-65295067D01*
X78922346Y-65295087D01*
X78924472Y-65303555D01*
X78935349Y-65345652D01*
X78935380Y-65345735D01*
X78937320Y-65353103D01*
X78948671Y-65395008D01*
X78948706Y-65395099D01*
X78950704Y-65402345D01*
X78962324Y-65443362D01*
X78962363Y-65443461D01*
X78964395Y-65450516D01*
X78976051Y-65489960D01*
X78976085Y-65490045D01*
X78978312Y-65497445D01*
X78992118Y-65542204D01*
X78992148Y-65542277D01*
X78994492Y-65549742D01*
X79007492Y-65590163D01*
X79007536Y-65590265D01*
X79009789Y-65597170D01*
X79022540Y-65635348D01*
X79022589Y-65635457D01*
X79024828Y-65642077D01*
X79037975Y-65680074D01*
X79038023Y-65680178D01*
X79040366Y-65686864D01*
X79054153Y-65725349D01*
X79054200Y-65725449D01*
X79056679Y-65732276D01*
X79071378Y-65771905D01*
X79071420Y-65771991D01*
X79074049Y-65778982D01*
X79089442Y-65819067D01*
X79089485Y-65819153D01*
X79092208Y-65826148D01*
X79108045Y-65866011D01*
X79108095Y-65866109D01*
X79110794Y-65872820D01*
X79125974Y-65909825D01*
X79126030Y-65909931D01*
X79128698Y-65916364D01*
X79144260Y-65953170D01*
X79144319Y-65953279D01*
X79147072Y-65959721D01*
X79163300Y-65996974D01*
X79163355Y-65997073D01*
X79166253Y-66003651D01*
X79183462Y-66041992D01*
X79183518Y-66042091D01*
X79186470Y-66048597D01*
X79203189Y-66084776D01*
X79203252Y-66084883D01*
X79206155Y-66091106D01*
X79222938Y-66126436D01*
X79223004Y-66126546D01*
X79225856Y-66132499D01*
X79242364Y-66166353D01*
X79242431Y-66166462D01*
X79245334Y-66172368D01*
X79262173Y-66206030D01*
X79262242Y-66206139D01*
X79265223Y-66212050D01*
X79283042Y-66246779D01*
X79283112Y-66246887D01*
X79286244Y-66252939D01*
X79304746Y-66288084D01*
X79304804Y-66288172D01*
X79308166Y-66294495D01*
X79328389Y-66331904D01*
X79328460Y-66332009D01*
X79331749Y-66338041D01*
X79349608Y-66370256D01*
X79349685Y-66370368D01*
X79352804Y-66375955D01*
X79371320Y-66408589D01*
X79371398Y-66408700D01*
X79374677Y-66414436D01*
X79394227Y-66448086D01*
X79394298Y-66448185D01*
X79397735Y-66454052D01*
X79417988Y-66488085D01*
X79418056Y-66488177D01*
X79421598Y-66494079D01*
X79442567Y-66528481D01*
X79442637Y-66528573D01*
X79446228Y-66534418D01*
X79466802Y-66567382D01*
X79466880Y-66567483D01*
X79470372Y-66573039D01*
X79490510Y-66604589D01*
X79490594Y-66604696D01*
X79494121Y-66610184D01*
X79514954Y-66642107D01*
X79515040Y-66642214D01*
X79518600Y-66647633D01*
X79539353Y-66678748D01*
X79539428Y-66678839D01*
X79543267Y-66684550D01*
X79567122Y-66719508D01*
X79567204Y-66719606D01*
X79571047Y-66725194D01*
X79592028Y-66755260D01*
X79592123Y-66755371D01*
X79595742Y-66760526D01*
X79617011Y-66790378D01*
X79617103Y-66790483D01*
X79620770Y-66795600D01*
X79642323Y-66825235D01*
X79642405Y-66825327D01*
X79646414Y-66830798D01*
X79671630Y-66864719D01*
X79671716Y-66864814D01*
X79675824Y-66870298D01*
X79698409Y-66900017D01*
X79698501Y-66900116D01*
X79702446Y-66905274D01*
X79726186Y-66935870D01*
X79726276Y-66935966D01*
X79730269Y-66941079D01*
X79752997Y-66969772D01*
X79753099Y-66969878D01*
X79757000Y-66974774D01*
X79780003Y-67003242D01*
X79780080Y-67003320D01*
X79784512Y-67008762D01*
X79813192Y-67043482D01*
X79813275Y-67043565D01*
X79817753Y-67048944D01*
X79841354Y-67076896D01*
X79841459Y-67076998D01*
X79845520Y-67081781D01*
X79869390Y-67109500D01*
X79869491Y-67109597D01*
X79873590Y-67114330D01*
X79897725Y-67141812D01*
X79897826Y-67141906D01*
X79901953Y-67146581D01*
X79926348Y-67173825D01*
X79926447Y-67173916D01*
X79930813Y-67178761D01*
X79957377Y-67207832D01*
X79957472Y-67207918D01*
X79962078Y-67212922D01*
X79989422Y-67242224D01*
X79989478Y-67242273D01*
X79994998Y-67248125D01*
X80031449Y-67286234D01*
X80031501Y-67286279D01*
X80037047Y-67292016D01*
X80064607Y-67320135D01*
X80064712Y-67320223D01*
X80069259Y-67324834D01*
X80095112Y-67350687D01*
X80095216Y-67350772D01*
X80099722Y-67355253D01*
X80126326Y-67381340D01*
X80126439Y-67381431D01*
X80130878Y-67385761D01*
X80156723Y-67410621D01*
X80156826Y-67410702D01*
X80161713Y-67415370D01*
X80192932Y-67444779D01*
X80193032Y-67444856D01*
X80197968Y-67449474D01*
X80224328Y-67473791D01*
X80224441Y-67473876D01*
X80229196Y-67478236D01*
X80258406Y-67504647D01*
X80258514Y-67504727D01*
X80263334Y-67509059D01*
X80290706Y-67533313D01*
X80290815Y-67533392D01*
X80295551Y-67537565D01*
X80323692Y-67562015D01*
X80323801Y-67562092D01*
X80328784Y-67566394D01*
X80358785Y-67591929D01*
X80358883Y-67591997D01*
X80364212Y-67596498D01*
X80396115Y-67623065D01*
X80396220Y-67623136D01*
X80401380Y-67627404D01*
X80429740Y-67650529D01*
X80429857Y-67650607D01*
X80434717Y-67654548D01*
X80463306Y-67677402D01*
X80463429Y-67677482D01*
X80468316Y-67681367D01*
X80497131Y-67703948D01*
X80497238Y-67704016D01*
X80502586Y-67708176D01*
X80536114Y-67733890D01*
X80536195Y-67733940D01*
X80542235Y-67738527D01*
X80578324Y-67765544D01*
X80578413Y-67765598D01*
X80584309Y-67769971D01*
X80616731Y-67793676D01*
X80616840Y-67793740D01*
X80622142Y-67797591D01*
X80651375Y-67818513D01*
X80651495Y-67818582D01*
X80656565Y-67822191D01*
X80686583Y-67843241D01*
X80686712Y-67843314D01*
X80691819Y-67846875D01*
X80721468Y-67867242D01*
X80721593Y-67867311D01*
X80726785Y-67870856D01*
X80757811Y-67891727D01*
X80757932Y-67891792D01*
X80763304Y-67895382D01*
X80794548Y-67915949D01*
X80794662Y-67916009D01*
X80800113Y-67919573D01*
X80832765Y-67940599D01*
X80832886Y-67940661D01*
X80838389Y-67944180D01*
X80869471Y-67963754D01*
X80869589Y-67963813D01*
X80875112Y-67967267D01*
X80908209Y-67987647D01*
X80908333Y-67987708D01*
X80913928Y-67991128D01*
X80946035Y-68010452D01*
X80946153Y-68010508D01*
X80951725Y-68013838D01*
X80984038Y-68032847D01*
X80984160Y-68032904D01*
X80989836Y-68036218D01*
X81023587Y-68055614D01*
X81023697Y-68055663D01*
X81029563Y-68059007D01*
X81063531Y-68078061D01*
X81063655Y-68078116D01*
X81069414Y-68081321D01*
X81102353Y-68099358D01*
X81102469Y-68099407D01*
X81108362Y-68102608D01*
X81143382Y-68121316D01*
X81143475Y-68121355D01*
X81150009Y-68124808D01*
X81190299Y-68145747D01*
X81190378Y-68145779D01*
X81197236Y-68149301D01*
X81235266Y-68168498D01*
X81235379Y-68168542D01*
X81241584Y-68171645D01*
X81275378Y-68188253D01*
X81275503Y-68188300D01*
X81281489Y-68191217D01*
X81316761Y-68208103D01*
X81316876Y-68208145D01*
X81323035Y-68211066D01*
X81359156Y-68227895D01*
X81359269Y-68227935D01*
X81365617Y-68230863D01*
X81401945Y-68247313D01*
X81402052Y-68247349D01*
X81408588Y-68250277D01*
X81447736Y-68267487D01*
X81447842Y-68267522D01*
X81454502Y-68270416D01*
X81491908Y-68286364D01*
X81492009Y-68286396D01*
X81498710Y-68289220D01*
X81537645Y-68305308D01*
X81537758Y-68305342D01*
X81544349Y-68308035D01*
X81581505Y-68322913D01*
X81581619Y-68322946D01*
X81588181Y-68325544D01*
X81626201Y-68340290D01*
X81626311Y-68340321D01*
X81632845Y-68342826D01*
X81669720Y-68356673D01*
X81669802Y-68356695D01*
X81677042Y-68359373D01*
X81722880Y-68375970D01*
X81722955Y-68375989D01*
X81730331Y-68378618D01*
X81768289Y-68391850D01*
X81768410Y-68391879D01*
X81775026Y-68394157D01*
X81813165Y-68406992D01*
X81813276Y-68407018D01*
X81819915Y-68409223D01*
X81858238Y-68421662D01*
X81858327Y-68421682D01*
X81865535Y-68423984D01*
X81908860Y-68437493D01*
X81908956Y-68437513D01*
X81916140Y-68439717D01*
X81954837Y-68451295D01*
X81954949Y-68451317D01*
X81961743Y-68453320D01*
X82001311Y-68464690D01*
X82001406Y-68464708D01*
X82008542Y-68466724D01*
X82050382Y-68478233D01*
X82050485Y-68478251D01*
X82057636Y-68480184D01*
X82097565Y-68490680D01*
X82097660Y-68490695D01*
X82105069Y-68492605D01*
X82149398Y-68503703D01*
X82149474Y-68503714D01*
X82157072Y-68505576D01*
X82199483Y-68515656D01*
X82199579Y-68515669D01*
X82207024Y-68517401D01*
X82249617Y-68526999D01*
X82249706Y-68527010D01*
X82257242Y-68528669D01*
X82300732Y-68537929D01*
X82300820Y-68537939D01*
X82308313Y-68539497D01*
X82350552Y-68547974D01*
X82350641Y-68547983D01*
X82358193Y-68549461D01*
X82402040Y-68557724D01*
X82402118Y-68557731D01*
X82410003Y-68559174D01*
X82456197Y-68567294D01*
X82456267Y-68567299D01*
X82464292Y-68568665D01*
X82509952Y-68576107D01*
X82510012Y-68576111D01*
X82518143Y-68577389D01*
X82564714Y-68584380D01*
X82564761Y-68584382D01*
X82573171Y-68585594D01*
X82622856Y-68592396D01*
X82622898Y-68592398D01*
X82631373Y-68593505D01*
X82678321Y-68599311D01*
X82678375Y-68599312D01*
X82686658Y-68600288D01*
X82733642Y-68605493D01*
X82733649Y-68605494D01*
X82733770Y-68605507D01*
X82734522Y-68605590D01*
X82734569Y-68605591D01*
X82742813Y-68606456D01*
X82789372Y-68611019D01*
X82789435Y-68611019D01*
X82797637Y-68611777D01*
X82845102Y-68615827D01*
X82845168Y-68615826D01*
X82853411Y-68616483D01*
X82901044Y-68619942D01*
X82901104Y-68619940D01*
X82909380Y-68620494D01*
X82957173Y-68623357D01*
X82957213Y-68623355D01*
X82965793Y-68623817D01*
X83016747Y-68626201D01*
X83016776Y-68626200D01*
X83025622Y-68626556D01*
X83076414Y-68628248D01*
X83076416Y-68628248D01*
X83076445Y-68628249D01*
X83076752Y-68628259D01*
X83076774Y-68628258D01*
X83085628Y-68628495D01*
X83136927Y-68629513D01*
X83136958Y-68629511D01*
X83145688Y-68629629D01*
X83195637Y-68629957D01*
X83195733Y-68629948D01*
X83203284Y-68629963D01*
X83241134Y-68629773D01*
X83241235Y-68629763D01*
X83248754Y-68629690D01*
X83298723Y-68628862D01*
X83298733Y-68628863D01*
X83298895Y-68628859D01*
X83299337Y-68628852D01*
X83299366Y-68628849D01*
X83307946Y-68628654D01*
X83356862Y-68627205D01*
X83356916Y-68627198D01*
X83365283Y-68626901D01*
X83412476Y-68624900D01*
X83412482Y-68624900D01*
X83412579Y-68624895D01*
X83413294Y-68624865D01*
X83413339Y-68624859D01*
X83421686Y-68624456D01*
X83469418Y-68621823D01*
X83469424Y-68621823D01*
X83469503Y-68621818D01*
X83469541Y-68621816D01*
X83469544Y-68621816D01*
X83478621Y-68621252D01*
X83535170Y-68617350D01*
X83535177Y-68617350D01*
X83544365Y-68616652D01*
X83591861Y-68612712D01*
X83591871Y-68612710D01*
X83600951Y-68611894D01*
X83657126Y-68606451D01*
X83657138Y-68606451D01*
X83666304Y-68605497D01*
X83713506Y-68600257D01*
X83713508Y-68600257D01*
X83713537Y-68600254D01*
X83714164Y-68600184D01*
X83714205Y-68600175D01*
X83722661Y-68599185D01*
X83771124Y-68593168D01*
X83771128Y-68593168D01*
X83771201Y-68593158D01*
X83771801Y-68593084D01*
X83771839Y-68593075D01*
X83780266Y-68591978D01*
X83827023Y-68585558D01*
X83827099Y-68585540D01*
X83834959Y-68584419D01*
X83878625Y-68577882D01*
X83878692Y-68577865D01*
X83886626Y-68576634D01*
X83933022Y-68569105D01*
X83933097Y-68569085D01*
X83940922Y-68567773D01*
X83984245Y-68560202D01*
X83984325Y-68560180D01*
X83991909Y-68558816D01*
X84035060Y-68550749D01*
X84035141Y-68550725D01*
X84042719Y-68549271D01*
X84086412Y-68540567D01*
X84086503Y-68540540D01*
X84094040Y-68539000D01*
X84136124Y-68530099D01*
X84136201Y-68530075D01*
X84143835Y-68528420D01*
X84188579Y-68518396D01*
X84188665Y-68518368D01*
X84196158Y-68516651D01*
X84237171Y-68506954D01*
X84237267Y-68506921D01*
X84244404Y-68505201D01*
X84285245Y-68495057D01*
X84285341Y-68495023D01*
X84292536Y-68493202D01*
X84333197Y-68482609D01*
X84333294Y-68482573D01*
X84340355Y-68480701D01*
X84380838Y-68469668D01*
X84380935Y-68469631D01*
X84387931Y-68467693D01*
X84427540Y-68456422D01*
X84427650Y-68456379D01*
X84434519Y-68454394D01*
X84473258Y-68442908D01*
X84473354Y-68442869D01*
X84480348Y-68440763D01*
X84521660Y-68428008D01*
X84521760Y-68427966D01*
X84528760Y-68425772D01*
X84567132Y-68413449D01*
X84567230Y-68413407D01*
X84574134Y-68411157D01*
X84615047Y-68397512D01*
X84615127Y-68397476D01*
X84622282Y-68395053D01*
X84662987Y-68380952D01*
X84663083Y-68380908D01*
X84670012Y-68378473D01*
X84708482Y-68364659D01*
X84708571Y-68364617D01*
X84715750Y-68362000D01*
X84758714Y-68346000D01*
X84758802Y-68345957D01*
X84765721Y-68343345D01*
X84802445Y-68329192D01*
X84802535Y-68329147D01*
X84809436Y-68326452D01*
X84851268Y-68309782D01*
X84851361Y-68309734D01*
X84858110Y-68307011D01*
X84893772Y-68292335D01*
X84893886Y-68292275D01*
X84900138Y-68289676D01*
X84936270Y-68274363D01*
X84936376Y-68274305D01*
X84942747Y-68271577D01*
X84979333Y-68255608D01*
X84979437Y-68255550D01*
X84985750Y-68252767D01*
X85022136Y-68236423D01*
X85022243Y-68236362D01*
X85028569Y-68233492D01*
X85064748Y-68216773D01*
X85064845Y-68216716D01*
X85071336Y-68213684D01*
X85109868Y-68195359D01*
X85109945Y-68195313D01*
X85116743Y-68192041D01*
X85155669Y-68172974D01*
X85155742Y-68172929D01*
X85162602Y-68169528D01*
X85202539Y-68149381D01*
X85202601Y-68149342D01*
X85209642Y-68145744D01*
X85249930Y-68124805D01*
X85250007Y-68124755D01*
X85256712Y-68121231D01*
X85293602Y-68101511D01*
X85293704Y-68101443D01*
X85299784Y-68098163D01*
X85332709Y-68080109D01*
X85332813Y-68080038D01*
X85338616Y-68076831D01*
X85372572Y-68057757D01*
X85372677Y-68057684D01*
X85378407Y-68054440D01*
X85410922Y-68035738D01*
X85411017Y-68035670D01*
X85416987Y-68032207D01*
X85453550Y-68010656D01*
X85453638Y-68010592D01*
X85459954Y-68006832D01*
X85496250Y-67984882D01*
X85496347Y-67984810D01*
X85502217Y-67981230D01*
X85533456Y-67961883D01*
X85533561Y-67961803D01*
X85539061Y-67958373D01*
X85571881Y-67937589D01*
X85571984Y-67937509D01*
X85577534Y-67933969D01*
X85608940Y-67913630D01*
X85609049Y-67913543D01*
X85614376Y-67910071D01*
X85644984Y-67889819D01*
X85645094Y-67889730D01*
X85650418Y-67886184D01*
X85681395Y-67865243D01*
X85681505Y-67865152D01*
X85686724Y-67861602D01*
X85716901Y-67840769D01*
X85717008Y-67840679D01*
X85722121Y-67837128D01*
X85751511Y-67816418D01*
X85751621Y-67816323D01*
X85756785Y-67812662D01*
X85787107Y-67790846D01*
X85787212Y-67790754D01*
X85792290Y-67787079D01*
X85821253Y-67765811D01*
X85821360Y-67765715D01*
X85826330Y-67762045D01*
X85855645Y-67740084D01*
X85855750Y-67739988D01*
X85860798Y-67736183D01*
X85889889Y-67713941D01*
X85889989Y-67713848D01*
X85894932Y-67710047D01*
X85923802Y-67687529D01*
X85923893Y-67687442D01*
X85929210Y-67683265D01*
X85962239Y-67656945D01*
X85962333Y-67656854D01*
X85967618Y-67652612D01*
X85995997Y-67629507D01*
X85996096Y-67629409D01*
X86000979Y-67625410D01*
X86029127Y-67602032D01*
X86029229Y-67601929D01*
X86033994Y-67597950D01*
X86061910Y-67574307D01*
X86062006Y-67574208D01*
X86066768Y-67570152D01*
X86094451Y-67546242D01*
X86094549Y-67546139D01*
X86099283Y-67542027D01*
X86126727Y-67517854D01*
X86126817Y-67517758D01*
X86131653Y-67513472D01*
X86160945Y-67487147D01*
X86161036Y-67487047D01*
X86165982Y-67482572D01*
X86193444Y-67457375D01*
X86193536Y-67457272D01*
X86198053Y-67453106D01*
X86224245Y-67428611D01*
X86224337Y-67428506D01*
X86228879Y-67424235D01*
X86255340Y-67399005D01*
X86255425Y-67398907D01*
X86260094Y-67394427D01*
X86288317Y-67366973D01*
X86288406Y-67366868D01*
X86293061Y-67362311D01*
X86319009Y-67336556D01*
X86319074Y-67336478D01*
X86324241Y-67331305D01*
X86357793Y-67297246D01*
X86357863Y-67297159D01*
X86362873Y-67292032D01*
X86388243Y-67265704D01*
X86388332Y-67265591D01*
X86392721Y-67261011D01*
X86417830Y-67234435D01*
X86417916Y-67234324D01*
X86422166Y-67229802D01*
X86447022Y-67202984D01*
X86447113Y-67202865D01*
X86451347Y-67198271D01*
X86475943Y-67171211D01*
X86476026Y-67171099D01*
X86480218Y-67166461D01*
X86504552Y-67139164D01*
X86504635Y-67139050D01*
X86508814Y-67134336D01*
X86533348Y-67106266D01*
X86533428Y-67106153D01*
X86537555Y-67101405D01*
X86560902Y-67074163D01*
X86560972Y-67074063D01*
X86565274Y-67069010D01*
X86592414Y-67036678D01*
X86592488Y-67036570D01*
X86596868Y-67031314D01*
X86620096Y-67003041D01*
X86620161Y-67002945D01*
X86624585Y-66997517D01*
X86652804Y-66962404D01*
X86652862Y-66962315D01*
X86657395Y-66956625D01*
X86681747Y-66925620D01*
X86681816Y-66925512D01*
X86685988Y-66920161D01*
X86710019Y-66888897D01*
X86710089Y-66888785D01*
X86714024Y-66883632D01*
X86736051Y-66854372D01*
X86736122Y-66854255D01*
X86739932Y-66849164D01*
X86762096Y-66819111D01*
X86762170Y-66818987D01*
X86765948Y-66813833D01*
X86787406Y-66784126D01*
X86787477Y-66784005D01*
X86791118Y-66778934D01*
X86812294Y-66749012D01*
X86812363Y-66748892D01*
X86815935Y-66743815D01*
X86836427Y-66714261D01*
X86836495Y-66714139D01*
X86840144Y-66708842D01*
X86861934Y-66676738D01*
X86861995Y-66676625D01*
X86865652Y-66671201D01*
X86885952Y-66640632D01*
X86886018Y-66640508D01*
X86889502Y-66635229D01*
X86909893Y-66603859D01*
X86909951Y-66603748D01*
X86913569Y-66598140D01*
X86934783Y-66564759D01*
X86934841Y-66564644D01*
X86938468Y-66558892D01*
X86959338Y-66525277D01*
X86959397Y-66525157D01*
X86962841Y-66519571D01*
X86981913Y-66488144D01*
X86981965Y-66488036D01*
X86985512Y-66482142D01*
X87007144Y-66445632D01*
X87007186Y-66445541D01*
X87011006Y-66439025D01*
X87033286Y-66400407D01*
X87033336Y-66400296D01*
X87036853Y-66394144D01*
X87055251Y-66361432D01*
X87055299Y-66361322D01*
X87058523Y-66355546D01*
X87077277Y-66321391D01*
X87077328Y-66321271D01*
X87080508Y-66315434D01*
X87098253Y-66282315D01*
X87098301Y-66282200D01*
X87101558Y-66276067D01*
X87121257Y-66238336D01*
X87121291Y-66238253D01*
X87124808Y-66231436D01*
X87145359Y-66190918D01*
X87145392Y-66190833D01*
X87148826Y-66183981D01*
X87167662Y-66145740D01*
X87167702Y-66145633D01*
X87170860Y-66139154D01*
X87188055Y-66103243D01*
X87188097Y-66103129D01*
X87191038Y-66096927D01*
X87207867Y-66060806D01*
X87207904Y-66060701D01*
X87210932Y-66054129D01*
X87228543Y-66015201D01*
X87228577Y-66015100D01*
X87231512Y-66008542D01*
X87247561Y-65971996D01*
X87247598Y-65971883D01*
X87250359Y-65965532D01*
X87266031Y-65928785D01*
X87266068Y-65928668D01*
X87268796Y-65922201D01*
X87284083Y-65885254D01*
X87284117Y-65885141D01*
X87286738Y-65878739D01*
X87301644Y-65841598D01*
X87301676Y-65841488D01*
X87304274Y-65834941D01*
X87318791Y-65797602D01*
X87318822Y-65797493D01*
X87321425Y-65790712D01*
X87336798Y-65749825D01*
X87336827Y-65749718D01*
X87339361Y-65742891D01*
X87352823Y-65705831D01*
X87352852Y-65705719D01*
X87355278Y-65698954D01*
X87369531Y-65658321D01*
X87369553Y-65658232D01*
X87372016Y-65651104D01*
X87385814Y-65610262D01*
X87385836Y-65610166D01*
X87388215Y-65603016D01*
X87401557Y-65561964D01*
X87401573Y-65561893D01*
X87403973Y-65554375D01*
X87417693Y-65510360D01*
X87417711Y-65510272D01*
X87419939Y-65503002D01*
X87431511Y-65464299D01*
X87431533Y-65464186D01*
X87433537Y-65457383D01*
X87444898Y-65417813D01*
X87444917Y-65417708D01*
X87446892Y-65410720D01*
X87458017Y-65370275D01*
X87458035Y-65370173D01*
X87459945Y-65363110D01*
X87470630Y-65322483D01*
X87470644Y-65322393D01*
X87472578Y-65314891D01*
X87483676Y-65270561D01*
X87483688Y-65270481D01*
X87485546Y-65262897D01*
X87495626Y-65220489D01*
X87495638Y-65220402D01*
X87497375Y-65212935D01*
X87506972Y-65170340D01*
X87506983Y-65170253D01*
X87508625Y-65162796D01*
X87517738Y-65120021D01*
X87517748Y-65119935D01*
X87519312Y-65112416D01*
X87527936Y-65069462D01*
X87527943Y-65069388D01*
X87529468Y-65061585D01*
X87538125Y-65015575D01*
X87538132Y-65015496D01*
X87539562Y-65007668D01*
X87547166Y-64964359D01*
X87547172Y-64964282D01*
X87548475Y-64956639D01*
X87555697Y-64912433D01*
X87555703Y-64912345D01*
X87556924Y-64904625D01*
X87563519Y-64860978D01*
X87563523Y-64860900D01*
X87564657Y-64853131D01*
X87571044Y-64807126D01*
X87571047Y-64807055D01*
X87572108Y-64799097D01*
X87577757Y-64754386D01*
X87577759Y-64754313D01*
X87578715Y-64746420D01*
X87583999Y-64700074D01*
X87583999Y-64700044D01*
X87584940Y-64691295D01*
X87590283Y-64638121D01*
X87590284Y-64637776D01*
X87590353Y-64637429D01*
X87591200Y-64628253D01*
X87596263Y-64568922D01*
X87596262Y-64568871D01*
X87596273Y-64568813D01*
X87596990Y-64559626D01*
X87600326Y-64512719D01*
X87600324Y-64512662D01*
X87600865Y-64504406D01*
X87603703Y-64455846D01*
X87603701Y-64455790D01*
X87604143Y-64447382D01*
X87606329Y-64399409D01*
X87606326Y-64399358D01*
X87606658Y-64391014D01*
X87608262Y-64342137D01*
X87608259Y-64342092D01*
X87608488Y-64333518D01*
X87609486Y-64282973D01*
X87609483Y-64282941D01*
X87609601Y-64274278D01*
X87609929Y-64224334D01*
X87609918Y-64224213D01*
X87609937Y-64217198D01*
X87609802Y-64185393D01*
X87609790Y-64185278D01*
X87609733Y-64178248D01*
X87608959Y-64126892D01*
X87608956Y-64126869D01*
X87608765Y-64118009D01*
X87607321Y-64067430D01*
X87607322Y-64067422D01*
X87607318Y-64067295D01*
X87607304Y-64066819D01*
X87607300Y-64066787D01*
X87607002Y-64058213D01*
X87605004Y-64010191D01*
X87604998Y-64010145D01*
X87604598Y-64001729D01*
X87601950Y-63953118D01*
X87601949Y-63953114D01*
X87601393Y-63944040D01*
X87597576Y-63888159D01*
X87597575Y-63888153D01*
X87596893Y-63879083D01*
X87592989Y-63831574D01*
X87592978Y-63831512D01*
X87592256Y-63823293D01*
X87587765Y-63775954D01*
X87587754Y-63775898D01*
X87586926Y-63767672D01*
X87581929Y-63721237D01*
X87581914Y-63721166D01*
X87581019Y-63713238D01*
X87575645Y-63668443D01*
X87575628Y-63668368D01*
X87574651Y-63660556D01*
X87568750Y-63615921D01*
X87568732Y-63615845D01*
X87567652Y-63607986D01*
X87561013Y-63562066D01*
X87560999Y-63562010D01*
X87559775Y-63553867D01*
X87552460Y-63507400D01*
X87552441Y-63507328D01*
X87551152Y-63499409D01*
X87543652Y-63455297D01*
X87543631Y-63455220D01*
X87542242Y-63447306D01*
X87533821Y-63401214D01*
X87533799Y-63401138D01*
X87532350Y-63393426D01*
X87524093Y-63351112D01*
X87524068Y-63351028D01*
X87522568Y-63343532D01*
X87513682Y-63300672D01*
X87513654Y-63300583D01*
X87512077Y-63293151D01*
X87502864Y-63251180D01*
X87502832Y-63251080D01*
X87501215Y-63243866D01*
X87491706Y-63202781D01*
X87491677Y-63202695D01*
X87489895Y-63195164D01*
X87479055Y-63150734D01*
X87479028Y-63150658D01*
X87477137Y-63143074D01*
X87466324Y-63100950D01*
X87466296Y-63100872D01*
X87464358Y-63093471D01*
X87453069Y-63051539D01*
X87453037Y-63051453D01*
X87451023Y-63044113D01*
X87439263Y-63002378D01*
X87439224Y-63002279D01*
X87437212Y-62995252D01*
X87425814Y-62956476D01*
X87425780Y-62956392D01*
X87423586Y-62949057D01*
X87409848Y-62904270D01*
X87409812Y-62904183D01*
X87407535Y-62896884D01*
X87395263Y-62858489D01*
X87395218Y-62858384D01*
X87393046Y-62851680D01*
X87380373Y-62813465D01*
X87380325Y-62813358D01*
X87378120Y-62806789D01*
X87365288Y-62769434D01*
X87365243Y-62769336D01*
X87362851Y-62762467D01*
X87348276Y-62721531D01*
X87348273Y-62721521D01*
X87348220Y-62721376D01*
X87348174Y-62721246D01*
X87348170Y-62721237D01*
X87345125Y-62712861D01*
X87325423Y-62659808D01*
X87325403Y-62659766D01*
X87322385Y-62651788D01*
X87307948Y-62614408D01*
X87307900Y-62614312D01*
X87305262Y-62607567D01*
X87289366Y-62567734D01*
X87289315Y-62567635D01*
X87286621Y-62560965D01*
X87271388Y-62523991D01*
X87271336Y-62523894D01*
X87268619Y-62517370D01*
X87252719Y-62479937D01*
X87252664Y-62479836D01*
X87249887Y-62473367D01*
X87233884Y-62436797D01*
X87233824Y-62436690D01*
X87231066Y-62430449D01*
X87214985Y-62394729D01*
X87214922Y-62394619D01*
X87212098Y-62388406D01*
X87195654Y-62352883D01*
X87195589Y-62352772D01*
X87192744Y-62346682D01*
X87176252Y-62312005D01*
X87176187Y-62311896D01*
X87173270Y-62305818D01*
X87156116Y-62270697D01*
X87156055Y-62270597D01*
X87153021Y-62264443D01*
X87134874Y-62228263D01*
X87134811Y-62228163D01*
X87131649Y-62221919D01*
X87113450Y-62186591D01*
X87113382Y-62186486D01*
X87110240Y-62180439D01*
X87092015Y-62145956D01*
X87091943Y-62145847D01*
X87088744Y-62139846D01*
X87069832Y-62104955D01*
X87069761Y-62104849D01*
X87066549Y-62098972D01*
X87048318Y-62066152D01*
X87048244Y-62066045D01*
X87045029Y-62060300D01*
X87025779Y-62026461D01*
X87025704Y-62026355D01*
X87022315Y-62020446D01*
X87002362Y-61986214D01*
X87002283Y-61986105D01*
X86998953Y-61980433D01*
X86980113Y-61948853D01*
X86980028Y-61948738D01*
X86976768Y-61943309D01*
X86957628Y-61911930D01*
X86957544Y-61911818D01*
X86954245Y-61906444D01*
X86934808Y-61875267D01*
X86934723Y-61875156D01*
X86931357Y-61869791D01*
X86911624Y-61838820D01*
X86911545Y-61838719D01*
X86907902Y-61833046D01*
X86885158Y-61798155D01*
X86885082Y-61798060D01*
X86881343Y-61792369D01*
X86860593Y-61761257D01*
X86860517Y-61761164D01*
X86856631Y-61755385D01*
X86832372Y-61719844D01*
X86832295Y-61719752D01*
X86828298Y-61713945D01*
X86806090Y-61682156D01*
X86806001Y-61682052D01*
X86802281Y-61676762D01*
X86780990Y-61646925D01*
X86780904Y-61646826D01*
X86777090Y-61641518D01*
X86753845Y-61609630D01*
X86753764Y-61609539D01*
X86749696Y-61604002D01*
X86725700Y-61571805D01*
X86725629Y-61571727D01*
X86721261Y-61565918D01*
X86694352Y-61530643D01*
X86694270Y-61530555D01*
X86689991Y-61524991D01*
X86667473Y-61496125D01*
X86667380Y-61496027D01*
X86663550Y-61491144D01*
X86640760Y-61462501D01*
X86640662Y-61462400D01*
X86636681Y-61457427D01*
X86613171Y-61428470D01*
X86613079Y-61428377D01*
X86608924Y-61423293D01*
X86583777Y-61392954D01*
X86583701Y-61392879D01*
X86579082Y-61387353D01*
X86550423Y-61353546D01*
X86550339Y-61353464D01*
X86545787Y-61348137D01*
X86521836Y-61320493D01*
X86521729Y-61320391D01*
X86517654Y-61315714D01*
X86493440Y-61288305D01*
X86493339Y-61288211D01*
X86489190Y-61283540D01*
X86464716Y-61256371D01*
X86464611Y-61256275D01*
X86460398Y-61251625D01*
X86435659Y-61224693D01*
X86435570Y-61224613D01*
X86430940Y-61219609D01*
X86401593Y-61188328D01*
X86401509Y-61188254D01*
X86396663Y-61183129D01*
X86369413Y-61154706D01*
X86369305Y-61154613D01*
X86364847Y-61149991D01*
X86339776Y-61124358D01*
X86339668Y-61124267D01*
X86335309Y-61119834D01*
X86309495Y-61093944D01*
X86309386Y-61093854D01*
X86304958Y-61089437D01*
X86278894Y-61063798D01*
X86278785Y-61063710D01*
X86274178Y-61059205D01*
X86245835Y-61031875D01*
X86245751Y-61031809D01*
X86240438Y-61026730D01*
X86207181Y-60995379D01*
X86207102Y-60995318D01*
X86201727Y-60990295D01*
X86172768Y-60963608D01*
X86172660Y-60963527D01*
X86167932Y-60959195D01*
X86141318Y-60935152D01*
X86141204Y-60935067D01*
X86136599Y-60930929D01*
X86109228Y-60906675D01*
X86109107Y-60906587D01*
X86104408Y-60902446D01*
X86076798Y-60878455D01*
X86076700Y-60878386D01*
X86071346Y-60873770D01*
X86036503Y-60844153D01*
X86036400Y-60844081D01*
X86031060Y-60839577D01*
X86003471Y-60816635D01*
X86003389Y-60816579D01*
X85997750Y-60811931D01*
X85960065Y-60781301D01*
X85959980Y-60781245D01*
X85954284Y-60776656D01*
X85926175Y-60754329D01*
X85926067Y-60754259D01*
X85920959Y-60750228D01*
X85889283Y-60725583D01*
X85889178Y-60725517D01*
X85883789Y-60721355D01*
X85852409Y-60697465D01*
X85852295Y-60697395D01*
X85847131Y-60693489D01*
X85818329Y-60672014D01*
X85818222Y-60671949D01*
X85812807Y-60667941D01*
X85778652Y-60643023D01*
X85778548Y-60642962D01*
X85773037Y-60638971D01*
X85743201Y-60617680D01*
X85743078Y-60617609D01*
X85737950Y-60613972D01*
X85707900Y-60592966D01*
X85707772Y-60592894D01*
X85702604Y-60589303D01*
X85672340Y-60568585D01*
X85672221Y-60568520D01*
X85666821Y-60564848D01*
X85633991Y-60542856D01*
X85633875Y-60542794D01*
X85628253Y-60539056D01*
X85595775Y-60517788D01*
X85595657Y-60517726D01*
X85590137Y-60514137D01*
X85558619Y-60493953D01*
X85558494Y-60493889D01*
X85553128Y-60490475D01*
X85521999Y-60470969D01*
X85521870Y-60470905D01*
X85516523Y-60467575D01*
X85485193Y-60448367D01*
X85485068Y-60448306D01*
X85479649Y-60445006D01*
X85448114Y-60426096D01*
X85447998Y-60426041D01*
X85442339Y-60422672D01*
X85408156Y-60402644D01*
X85408035Y-60402588D01*
X85402270Y-60399236D01*
X85369709Y-60380607D01*
X85369588Y-60380553D01*
X85363851Y-60377295D01*
X85329848Y-60358298D01*
X85329741Y-60358251D01*
X85323786Y-60354952D01*
X85288942Y-60335962D01*
X85288820Y-60335910D01*
X85282937Y-60332730D01*
X85249752Y-60315087D01*
X85249635Y-60315039D01*
X85243761Y-60311940D01*
X85209121Y-60293976D01*
X85209001Y-60293928D01*
X85203032Y-60290859D01*
X85168182Y-60273242D01*
X85168067Y-60273197D01*
X85162019Y-60270166D01*
X85127603Y-60253217D01*
X85127474Y-60253168D01*
X85121445Y-60250225D01*
X85086186Y-60233313D01*
X85086073Y-60233272D01*
X85079838Y-60230309D01*
X85043087Y-60213160D01*
X85042972Y-60213119D01*
X85036688Y-60210216D01*
X85001023Y-60194035D01*
X85000915Y-60193998D01*
X84994570Y-60191148D01*
X84957399Y-60174762D01*
X84957297Y-60174729D01*
X84950695Y-60171851D01*
X84912001Y-60155302D01*
X84911893Y-60155268D01*
X84905287Y-60152475D01*
X84868354Y-60137159D01*
X84868240Y-60137124D01*
X84861829Y-60134494D01*
X84824700Y-60119560D01*
X84824584Y-60119526D01*
X84818085Y-60116941D01*
X84780761Y-60102394D01*
X84780655Y-60102364D01*
X84774059Y-60099824D01*
X84735873Y-60085417D01*
X84735765Y-60085388D01*
X84728969Y-60082856D01*
X84689236Y-60068370D01*
X84689154Y-60068349D01*
X84681873Y-60065735D01*
X84638538Y-60050515D01*
X84638456Y-60050495D01*
X84631057Y-60047938D01*
X84590215Y-60034141D01*
X84590108Y-60034116D01*
X84583202Y-60031816D01*
X84544893Y-60019351D01*
X84544794Y-60019329D01*
X84537787Y-60017083D01*
X84495854Y-60003961D01*
X84495759Y-60003941D01*
X84488662Y-60001755D01*
X84449981Y-59990133D01*
X84449878Y-59990113D01*
X84442770Y-59988011D01*
X84399744Y-59975616D01*
X84399647Y-59975598D01*
X84392363Y-59973537D01*
X84352623Y-59962587D01*
X84352528Y-59962571D01*
X84345370Y-59960632D01*
X84303351Y-59949567D01*
X84303269Y-59949554D01*
X84295645Y-59947588D01*
X84250613Y-59936308D01*
X84250533Y-59936296D01*
X84242868Y-59934418D01*
X84200459Y-59924338D01*
X84200379Y-59924327D01*
X84192920Y-59922592D01*
X84150325Y-59912994D01*
X84150251Y-59912985D01*
X84142485Y-59911278D01*
X84096852Y-59901577D01*
X84096778Y-59901569D01*
X84088982Y-59899954D01*
X84045299Y-59891222D01*
X84045220Y-59891214D01*
X84037658Y-59889741D01*
X83995234Y-59881780D01*
X83995144Y-59881772D01*
X83987654Y-59880403D01*
X83944345Y-59872798D01*
X83944269Y-59872792D01*
X83936394Y-59871452D01*
X83890010Y-59863890D01*
X83889938Y-59863885D01*
X83882076Y-59862646D01*
X83838420Y-59856073D01*
X83838351Y-59856069D01*
X83830454Y-59854923D01*
X83783710Y-59848467D01*
X83783657Y-59848465D01*
X83775361Y-59847368D01*
X83727700Y-59841404D01*
X83727643Y-59841402D01*
X83719394Y-59840418D01*
X83672289Y-59835129D01*
X83672243Y-59835128D01*
X83663783Y-59834230D01*
X83614284Y-59829321D01*
X83614240Y-59829321D01*
X83605794Y-59828534D01*
X83558339Y-59824446D01*
X83558278Y-59824447D01*
X83550078Y-59823787D01*
X83503199Y-59820341D01*
X83503137Y-59820343D01*
X83494922Y-59819785D01*
X83447143Y-59816876D01*
X83447092Y-59816878D01*
X83438730Y-59816418D01*
X83390555Y-59814102D01*
X83390550Y-59814101D01*
X83390467Y-59814098D01*
X83390040Y-59814077D01*
X83390011Y-59814078D01*
X83381343Y-59813716D01*
X83330236Y-59811934D01*
X83330141Y-59811940D01*
X83330044Y-59811927D01*
X83320832Y-59811673D01*
X83263510Y-59810492D01*
X83263460Y-59810496D01*
X83263411Y-59810490D01*
X83254196Y-59810366D01*
X83234526Y-59810238D01*
X83232390Y-59810028D01*
X83167552Y-59810028D01*
X83165165Y-59810263D01*
X83139180Y-59810452D01*
X83138862Y-59810486D01*
X83138544Y-59810457D01*
X83129329Y-59810598D01*
X83072029Y-59811870D01*
X83071944Y-59811880D01*
X83071848Y-59811873D01*
X83062637Y-59812145D01*
X83012118Y-59813986D01*
X83012114Y-59813986D01*
X83012043Y-59813989D01*
X83011550Y-59814007D01*
X83011517Y-59814011D01*
X83002907Y-59814379D01*
X82954983Y-59816755D01*
X82954927Y-59816763D01*
X82946637Y-59817221D01*
X82899752Y-59820142D01*
X82899748Y-59820142D01*
X82899674Y-59820147D01*
X82898872Y-59820197D01*
X82898823Y-59820205D01*
X82890554Y-59820767D01*
X82842953Y-59824336D01*
X82842900Y-59824345D01*
X82834558Y-59825020D01*
X82786918Y-59829204D01*
X82786916Y-59829204D01*
X82786886Y-59829207D01*
X82786383Y-59829251D01*
X82786349Y-59829257D01*
X82777741Y-59830067D01*
X82728293Y-59835066D01*
X82728290Y-59835066D01*
X82728245Y-59835071D01*
X82727531Y-59835143D01*
X82727486Y-59835152D01*
X82719127Y-59836047D01*
X82673516Y-59841249D01*
X82673443Y-59841265D01*
X82665497Y-59842213D01*
X82620054Y-59847960D01*
X82619983Y-59847976D01*
X82611985Y-59849031D01*
X82565984Y-59855426D01*
X82565909Y-59855444D01*
X82558084Y-59856573D01*
X82514442Y-59863179D01*
X82514368Y-59863198D01*
X82506499Y-59864431D01*
X82460128Y-59872029D01*
X82460061Y-59872047D01*
X82452191Y-59873379D01*
X82408891Y-59881017D01*
X82408806Y-59881041D01*
X82401237Y-59882414D01*
X82358110Y-59890547D01*
X82358029Y-59890571D01*
X82350446Y-59892039D01*
X82306780Y-59900810D01*
X82306692Y-59900837D01*
X82299172Y-59902385D01*
X82257109Y-59911350D01*
X82257023Y-59911377D01*
X82249602Y-59912996D01*
X82207009Y-59922594D01*
X82206921Y-59922623D01*
X82199483Y-59924336D01*
X82157072Y-59934416D01*
X82157001Y-59934440D01*
X82149314Y-59936310D01*
X82104284Y-59947589D01*
X82104220Y-59947612D01*
X82096342Y-59949631D01*
X82051525Y-59961451D01*
X82051450Y-59961479D01*
X82043814Y-59963535D01*
X82002001Y-59975106D01*
X82001917Y-59975138D01*
X81994613Y-59977197D01*
X81952994Y-59989237D01*
X81952911Y-59989270D01*
X81945596Y-59991424D01*
X81904178Y-60003932D01*
X81904102Y-60003964D01*
X81896693Y-60006241D01*
X81853420Y-60019872D01*
X81853332Y-60019910D01*
X81846113Y-60022221D01*
X81807157Y-60034992D01*
X81807061Y-60035034D01*
X81800312Y-60037277D01*
X81762225Y-60050226D01*
X81762121Y-60050273D01*
X81755482Y-60052559D01*
X81717577Y-60065905D01*
X81717467Y-60065956D01*
X81710866Y-60068309D01*
X81673151Y-60082048D01*
X81673069Y-60082087D01*
X81666028Y-60084689D01*
X81623152Y-60100869D01*
X81623068Y-60100911D01*
X81616017Y-60103609D01*
X81578708Y-60118184D01*
X81578618Y-60118230D01*
X81571889Y-60120891D01*
X81532132Y-60136934D01*
X81532043Y-60136980D01*
X81525136Y-60139804D01*
X81486262Y-60156011D01*
X81486155Y-60156069D01*
X81479752Y-60158766D01*
X81444363Y-60173967D01*
X81444257Y-60174025D01*
X81437818Y-60176821D01*
X81399369Y-60193831D01*
X81399268Y-60193888D01*
X81392750Y-60196803D01*
X81356465Y-60213335D01*
X81356365Y-60213393D01*
X81349834Y-60216401D01*
X81311191Y-60234527D01*
X81311103Y-60234579D01*
X81304372Y-60237773D01*
X81265968Y-60256327D01*
X81265897Y-60256370D01*
X81259004Y-60259741D01*
X81218309Y-60279994D01*
X81218229Y-60280044D01*
X81211355Y-60283507D01*
X81173458Y-60302929D01*
X81173378Y-60302981D01*
X81166787Y-60306396D01*
X81129141Y-60326233D01*
X81129039Y-60326300D01*
X81122752Y-60329645D01*
X81087845Y-60348532D01*
X81087743Y-60348601D01*
X81081723Y-60351887D01*
X81047036Y-60371132D01*
X81046939Y-60371199D01*
X81040910Y-60374573D01*
X81006453Y-60394173D01*
X81006344Y-60394250D01*
X81000673Y-60397499D01*
X80968878Y-60416013D01*
X80968799Y-60416070D01*
X80962395Y-60419838D01*
X80921119Y-60444506D01*
X80921040Y-60444564D01*
X80914613Y-60448446D01*
X80881478Y-60468771D01*
X80881375Y-60468849D01*
X80875754Y-60472322D01*
X80844041Y-60492223D01*
X80843947Y-60492296D01*
X80838113Y-60495987D01*
X80802469Y-60518887D01*
X80802371Y-60518964D01*
X80796677Y-60522651D01*
X80766007Y-60542812D01*
X80765903Y-60542896D01*
X80760391Y-60546545D01*
X80727599Y-60568584D01*
X80727506Y-60568660D01*
X80721721Y-60572581D01*
X80686855Y-60596563D01*
X80686777Y-60596629D01*
X80680688Y-60600857D01*
X80645536Y-60625630D01*
X80645459Y-60625696D01*
X80639483Y-60629947D01*
X80605767Y-60654281D01*
X80605669Y-60654367D01*
X80600260Y-60658299D01*
X80570775Y-60680046D01*
X80570678Y-60680134D01*
X80565429Y-60684031D01*
X80533924Y-60707762D01*
X80533826Y-60707852D01*
X80528554Y-60711851D01*
X80498975Y-60734610D01*
X80498874Y-60734704D01*
X80493887Y-60738564D01*
X80465093Y-60761171D01*
X80464993Y-60761266D01*
X80460091Y-60765137D01*
X80432072Y-60787576D01*
X80431972Y-60787674D01*
X80427095Y-60791602D01*
X80398209Y-60815198D01*
X80398110Y-60815297D01*
X80393315Y-60819235D01*
X80365744Y-60842203D01*
X80365674Y-60842274D01*
X80359897Y-60847132D01*
X80320823Y-60880457D01*
X80320755Y-60880527D01*
X80315039Y-60885448D01*
X80288017Y-60909040D01*
X80287921Y-60909142D01*
X80283084Y-60913390D01*
X80253675Y-60939587D01*
X80253605Y-60939663D01*
X80248162Y-60944554D01*
X80214374Y-60975340D01*
X80214310Y-60975411D01*
X80208703Y-60980569D01*
X80177853Y-61009344D01*
X80177768Y-61009441D01*
X80172898Y-61014014D01*
X80146929Y-61038743D01*
X80146834Y-61038853D01*
X80142380Y-61043117D01*
X80116145Y-61068581D01*
X80116065Y-61068676D01*
X80111214Y-61073419D01*
X80081253Y-61103115D01*
X80081189Y-61103192D01*
X80075902Y-61108480D01*
X80044309Y-61140522D01*
X80044240Y-61140607D01*
X80039114Y-61145851D01*
X80011299Y-61174705D01*
X80011214Y-61174813D01*
X80006748Y-61179474D01*
X79982119Y-61205538D01*
X79982036Y-61205646D01*
X79977597Y-61210372D01*
X79950841Y-61239263D01*
X79950757Y-61239373D01*
X79946350Y-61244162D01*
X79921774Y-61271241D01*
X79921740Y-61271287D01*
X79916213Y-61277447D01*
X79877139Y-61321608D01*
X79877134Y-61321613D01*
X79871075Y-61328557D01*
X79841710Y-61362682D01*
X79841671Y-61362737D01*
X79836421Y-61368907D01*
X79805214Y-61406095D01*
X79805157Y-61406179D01*
X79800472Y-61411810D01*
X79777714Y-61439558D01*
X79777639Y-61439671D01*
X79773565Y-61444668D01*
X79748434Y-61475941D01*
X79748362Y-61476052D01*
X79744280Y-61481164D01*
X79722073Y-61509376D01*
X79721994Y-61509500D01*
X79718164Y-61514393D01*
X79695796Y-61543381D01*
X79695730Y-61543487D01*
X79691728Y-61548708D01*
X79667950Y-61580179D01*
X79667885Y-61580285D01*
X79663824Y-61585699D01*
X79639952Y-61617991D01*
X79639889Y-61618097D01*
X79635989Y-61623408D01*
X79614919Y-61652525D01*
X79614852Y-61652640D01*
X79611214Y-61657696D01*
X79590011Y-61687598D01*
X79589941Y-61687720D01*
X79586319Y-61692859D01*
X79565402Y-61722975D01*
X79565338Y-61723090D01*
X79561610Y-61728494D01*
X79539405Y-61761167D01*
X79539338Y-61761290D01*
X79535688Y-61766697D01*
X79515369Y-61797254D01*
X79515306Y-61797372D01*
X79511808Y-61802665D01*
X79491399Y-61834022D01*
X79491340Y-61834136D01*
X79487794Y-61839622D01*
X79467314Y-61871792D01*
X79467256Y-61871907D01*
X79463759Y-61877439D01*
X79443969Y-61909229D01*
X79443906Y-61909357D01*
X79440562Y-61914763D01*
X79421447Y-61946155D01*
X79421388Y-61946278D01*
X79418117Y-61951684D01*
X79399299Y-61983279D01*
X79399241Y-61983402D01*
X79395985Y-61988906D01*
X79377471Y-62020702D01*
X79377420Y-62020813D01*
X79374015Y-62026710D01*
X79353029Y-62063639D01*
X79352983Y-62063743D01*
X79349603Y-62069741D01*
X79331744Y-62101957D01*
X79331691Y-62102079D01*
X79328504Y-62107873D01*
X79309617Y-62142780D01*
X79309599Y-62142823D01*
X79305622Y-62150279D01*
X79279363Y-62200341D01*
X79279360Y-62200345D01*
X79279329Y-62200406D01*
X79279264Y-62200529D01*
X79279260Y-62200538D01*
X79275134Y-62208534D01*
X79254580Y-62249054D01*
X79254548Y-62249136D01*
X79251083Y-62256051D01*
X79232251Y-62294293D01*
X79232212Y-62294396D01*
X79229068Y-62300848D01*
X79211566Y-62337402D01*
X79211526Y-62337513D01*
X79208534Y-62343822D01*
X79192014Y-62379301D01*
X79191973Y-62379418D01*
X79189090Y-62385670D01*
X79172347Y-62422648D01*
X79172311Y-62422753D01*
X79169450Y-62429137D01*
X79153667Y-62465018D01*
X79153628Y-62465136D01*
X79150901Y-62471397D01*
X79135203Y-62508131D01*
X79135170Y-62508234D01*
X79132352Y-62514906D01*
X79115957Y-62554483D01*
X79115924Y-62554592D01*
X79113191Y-62561268D01*
X79098286Y-62598410D01*
X79098252Y-62598527D01*
X79095693Y-62604973D01*
X79081172Y-62642307D01*
X79081147Y-62642395D01*
X79078425Y-62649493D01*
X79062311Y-62692400D01*
X79062290Y-62692477D01*
X79059603Y-62699740D01*
X79044957Y-62740186D01*
X79044930Y-62740291D01*
X79042476Y-62747159D01*
X79029215Y-62785104D01*
X79029187Y-62785219D01*
X79026894Y-62791864D01*
X79014031Y-62829991D01*
X79014005Y-62830105D01*
X79011788Y-62836760D01*
X78999323Y-62875069D01*
X78999301Y-62875168D01*
X78997071Y-62882125D01*
X78984161Y-62923369D01*
X78984141Y-62923466D01*
X78981982Y-62930468D01*
X78970352Y-62969145D01*
X78970330Y-62969255D01*
X78968322Y-62976030D01*
X78957099Y-63014881D01*
X78957082Y-63014971D01*
X78955011Y-63022269D01*
X78942685Y-63066877D01*
X78942671Y-63066959D01*
X78940600Y-63074605D01*
X78929535Y-63116628D01*
X78929521Y-63116714D01*
X78927561Y-63124312D01*
X78916281Y-63169343D01*
X78916269Y-63169423D01*
X78914388Y-63177101D01*
X78904308Y-63219511D01*
X78904295Y-63219603D01*
X78902566Y-63227037D01*
X78892968Y-63269630D01*
X78892958Y-63269713D01*
X78891291Y-63277284D01*
X78882032Y-63320774D01*
X78882022Y-63320863D01*
X78880467Y-63328341D01*
X78871990Y-63370580D01*
X78871981Y-63370668D01*
X78870519Y-63378139D01*
X78862386Y-63421265D01*
X78862378Y-63421357D01*
X78860989Y-63428921D01*
X78853351Y-63472222D01*
X78853345Y-63472293D01*
X78852001Y-63480157D01*
X78844403Y-63526529D01*
X78844398Y-63526605D01*
X78843151Y-63534471D01*
X78836545Y-63578114D01*
X78836541Y-63578197D01*
X78835398Y-63586013D01*
X78829003Y-63632015D01*
X78829000Y-63632086D01*
X78827932Y-63640083D01*
X78822185Y-63685526D01*
X78822183Y-63685595D01*
X78821207Y-63693669D01*
X78815846Y-63740753D01*
X78815845Y-63740798D01*
X78814928Y-63749313D01*
X78809873Y-63799529D01*
X78809873Y-63799571D01*
X78809075Y-63808005D01*
X78804982Y-63854701D01*
X78804983Y-63854755D01*
X78804308Y-63862982D01*
X78800739Y-63910582D01*
X78800740Y-63910642D01*
X78800169Y-63918901D01*
X78797194Y-63966665D01*
X78797195Y-63966698D01*
X78796713Y-63975280D01*
X78794209Y-64026204D01*
X78794220Y-64026438D01*
X78794186Y-64026672D01*
X78793805Y-64035879D01*
X78791732Y-64096013D01*
X78791746Y-64096241D01*
X78791716Y-64096471D01*
X78791469Y-64105683D01*
X78790453Y-64156982D01*
X78790456Y-64157018D01*
X78790338Y-64165770D01*
X78790014Y-64215719D01*
X78790029Y-64215878D01*
X78790001Y-64221065D01*
X74948043Y-64221065D01*
X74948043Y-49754042D01*
X89565000Y-49754042D01*
X89565000Y-50085958D01*
X89629754Y-50411496D01*
X89756772Y-50718147D01*
X89941175Y-50994125D01*
X90175875Y-51228825D01*
X90451853Y-51413228D01*
X90758504Y-51540246D01*
X91084042Y-51605000D01*
X91415958Y-51605000D01*
X91741496Y-51540246D01*
X92048147Y-51413228D01*
X92324125Y-51228825D01*
X92558825Y-50994125D01*
X92743228Y-50718147D01*
X92870246Y-50411496D01*
X92935000Y-50085958D01*
X92935000Y-49754042D01*
X92870246Y-49428504D01*
X92743228Y-49121853D01*
X92558825Y-48845875D01*
X92324125Y-48611175D01*
X92048147Y-48426772D01*
X91741496Y-48299754D01*
X91415958Y-48235000D01*
X91084042Y-48235000D01*
X90758504Y-48299754D01*
X90451853Y-48426772D01*
X90175875Y-48611175D01*
X89941175Y-48845875D01*
X89756772Y-49121853D01*
X89629754Y-49428504D01*
X89565000Y-49754042D01*
X74948043Y-49754042D01*
X74948043Y-32004042D01*
X76605000Y-32004042D01*
X76605000Y-32335958D01*
X76669754Y-32661496D01*
X76796772Y-32968147D01*
X76981175Y-33244125D01*
X77215875Y-33478825D01*
X77491853Y-33663228D01*
X77798504Y-33790246D01*
X78124042Y-33855000D01*
X78455958Y-33855000D01*
X78781496Y-33790246D01*
X79088147Y-33663228D01*
X79364125Y-33478825D01*
X79598825Y-33244125D01*
X79783228Y-32968147D01*
X79910246Y-32661496D01*
X79975000Y-32335958D01*
X79975000Y-32004042D01*
X162655000Y-32004042D01*
X162655000Y-32335958D01*
X162719754Y-32661496D01*
X162846772Y-32968147D01*
X163031175Y-33244125D01*
X163265875Y-33478825D01*
X163541853Y-33663228D01*
X163848504Y-33790246D01*
X164174042Y-33855000D01*
X164505958Y-33855000D01*
X164831496Y-33790246D01*
X165138147Y-33663228D01*
X165414125Y-33478825D01*
X165648825Y-33244125D01*
X165833228Y-32968147D01*
X165960246Y-32661496D01*
X166025000Y-32335958D01*
X166025000Y-32004042D01*
X165960246Y-31678504D01*
X165833228Y-31371853D01*
X165648825Y-31095875D01*
X165414125Y-30861175D01*
X165138147Y-30676772D01*
X164831496Y-30549754D01*
X164505958Y-30485000D01*
X164174042Y-30485000D01*
X163848504Y-30549754D01*
X163541853Y-30676772D01*
X163265875Y-30861175D01*
X163031175Y-31095875D01*
X162846772Y-31371853D01*
X162719754Y-31678504D01*
X162655000Y-32004042D01*
X79975000Y-32004042D01*
X79910246Y-31678504D01*
X79783228Y-31371853D01*
X79598825Y-31095875D01*
X79364125Y-30861175D01*
X79088147Y-30676772D01*
X78781496Y-30549754D01*
X78455958Y-30485000D01*
X78124042Y-30485000D01*
X77798504Y-30549754D01*
X77491853Y-30676772D01*
X77215875Y-30861175D01*
X76981175Y-31095875D01*
X76796772Y-31371853D01*
X76669754Y-31678504D01*
X76605000Y-32004042D01*
X74948043Y-32004042D01*
X74948043Y-28830711D01*
X167680856Y-28830711D01*
X167680856Y-154510711D01*
G37*
X167680856Y-154510711D02*
X74948043Y-154510711D01*
X74948043Y-151034042D01*
X76605000Y-151034042D01*
X76605000Y-151365958D01*
X76669754Y-151691496D01*
X76796772Y-151998147D01*
X76981175Y-152274125D01*
X77215875Y-152508825D01*
X77491853Y-152693228D01*
X77798504Y-152820246D01*
X78124042Y-152885000D01*
X78455958Y-152885000D01*
X78781496Y-152820246D01*
X79088147Y-152693228D01*
X79364125Y-152508825D01*
X79598825Y-152274125D01*
X79783228Y-151998147D01*
X79910246Y-151691496D01*
X79975000Y-151365958D01*
X79975000Y-151034042D01*
X79910246Y-150708504D01*
X79783228Y-150401853D01*
X79598825Y-150125875D01*
X79364125Y-149891175D01*
X79088147Y-149706772D01*
X78781496Y-149579754D01*
X78455958Y-149515000D01*
X78124042Y-149515000D01*
X77798504Y-149579754D01*
X77491853Y-149706772D01*
X77215875Y-149891175D01*
X76981175Y-150125875D01*
X76796772Y-150401853D01*
X76669754Y-150708504D01*
X76605000Y-151034042D01*
X74948043Y-151034042D01*
X74948043Y-110264042D01*
X76605000Y-110264042D01*
X76605000Y-110595958D01*
X76669754Y-110921496D01*
X76796772Y-111228147D01*
X76981175Y-111504125D01*
X77215875Y-111738825D01*
X77491853Y-111923228D01*
X77798504Y-112050246D01*
X78124042Y-112115000D01*
X78455958Y-112115000D01*
X78781496Y-112050246D01*
X79088147Y-111923228D01*
X79364125Y-111738825D01*
X79598825Y-111504125D01*
X79783228Y-111228147D01*
X79910246Y-110921496D01*
X79975000Y-110595958D01*
X79975000Y-110264042D01*
X79910246Y-109938504D01*
X79783228Y-109631853D01*
X79598825Y-109355875D01*
X79364125Y-109121175D01*
X79088147Y-108936772D01*
X78781496Y-108809754D01*
X78455958Y-108745000D01*
X78124042Y-108745000D01*
X77798504Y-108809754D01*
X77491853Y-108936772D01*
X77215875Y-109121175D01*
X76981175Y-109355875D01*
X76796772Y-109631853D01*
X76669754Y-109938504D01*
X76605000Y-110264042D01*
X74948043Y-110264042D01*
X74948043Y-92476931D01*
X76693046Y-92476931D01*
X76808934Y-93019937D01*
X77916525Y-98209689D01*
X80639959Y-110970691D01*
X85111549Y-131922913D01*
X87852642Y-144766664D01*
X88094273Y-145898859D01*
X88038825Y-145815875D01*
X87804125Y-145581175D01*
X87528147Y-145396772D01*
X87221496Y-145269754D01*
X86895958Y-145205000D01*
X86564042Y-145205000D01*
X86238504Y-145269754D01*
X85931853Y-145396772D01*
X85655875Y-145581175D01*
X85421175Y-145815875D01*
X85236772Y-146091853D01*
X85109754Y-146398504D01*
X85045000Y-146724042D01*
X85045000Y-147055958D01*
X85109754Y-147381496D01*
X85236772Y-147688147D01*
X85421175Y-147964125D01*
X85655875Y-148198825D01*
X85931853Y-148383228D01*
X86238504Y-148510246D01*
X86564042Y-148575000D01*
X86895958Y-148575000D01*
X87221496Y-148510246D01*
X87528147Y-148383228D01*
X87804125Y-148198825D01*
X88038825Y-147964125D01*
X88223228Y-147688147D01*
X88350246Y-147381496D01*
X88379407Y-147234893D01*
X88744189Y-148944127D01*
X89106438Y-150641488D01*
X89106455Y-150641571D01*
X89192120Y-151042960D01*
X89203020Y-151077223D01*
X89210918Y-151112303D01*
X89213871Y-151121032D01*
X89226800Y-151158395D01*
X89230889Y-151167290D01*
X89233452Y-151176736D01*
X89257755Y-151225735D01*
X89280600Y-151275432D01*
X89286337Y-151283361D01*
X89290687Y-151292131D01*
X89295622Y-151299913D01*
X89315402Y-151330627D01*
X89319588Y-151335912D01*
X89322790Y-151341847D01*
X89359550Y-151386365D01*
X89395379Y-151431600D01*
X89400511Y-151435971D01*
X89404806Y-151441172D01*
X89411384Y-151447625D01*
X89437379Y-151472774D01*
X89474259Y-151502060D01*
X89481431Y-151508398D01*
X89494628Y-151521263D01*
X89499785Y-151524621D01*
X89509547Y-151533249D01*
X89517052Y-151538596D01*
X89527776Y-151546125D01*
X89534627Y-151549996D01*
X89538253Y-151552876D01*
X89554850Y-151561425D01*
X89565882Y-151567659D01*
X89602572Y-151591549D01*
X89610778Y-151595743D01*
X89644420Y-151612640D01*
X89658832Y-151618192D01*
X89672262Y-151625820D01*
X89718829Y-151641306D01*
X89764619Y-151658947D01*
X89779833Y-151661594D01*
X89794490Y-151666468D01*
X89803491Y-151668446D01*
X89845075Y-151677281D01*
X89865883Y-151679613D01*
X89886195Y-151684665D01*
X89929750Y-151686771D01*
X89973083Y-151691627D01*
X89993939Y-151689874D01*
X90014855Y-151690885D01*
X90024056Y-151690365D01*
X90069308Y-151687492D01*
X90112719Y-151680435D01*
X90156497Y-151676088D01*
X90165522Y-151674223D01*
X90224021Y-151661712D01*
X90224023Y-151661711D01*
X90320253Y-151641140D01*
X90320258Y-151641139D01*
X90452756Y-151612813D01*
X90452760Y-151612812D01*
X90607701Y-151579688D01*
X90607741Y-151579680D01*
X90784867Y-151541816D01*
X90784871Y-151541815D01*
X90983705Y-151499311D01*
X90983749Y-151499302D01*
X91319462Y-151427542D01*
X91319491Y-151427536D01*
X91843478Y-151315531D01*
X92291888Y-151219681D01*
X92291892Y-151219680D01*
X92613664Y-151150900D01*
X92613684Y-151150896D01*
X93129952Y-151040546D01*
X93300733Y-151004042D01*
X162655000Y-151004042D01*
X162655000Y-151335958D01*
X162719754Y-151661496D01*
X162846772Y-151968147D01*
X163031175Y-152244125D01*
X163265875Y-152478825D01*
X163541853Y-152663228D01*
X163848504Y-152790246D01*
X164174042Y-152855000D01*
X164505958Y-152855000D01*
X164831496Y-152790246D01*
X165138147Y-152663228D01*
X165414125Y-152478825D01*
X165648825Y-152244125D01*
X165833228Y-151968147D01*
X165960246Y-151661496D01*
X166025000Y-151335958D01*
X166025000Y-151004042D01*
X165960246Y-150678504D01*
X165833228Y-150371853D01*
X165648825Y-150095875D01*
X165414125Y-149861175D01*
X165138147Y-149676772D01*
X164831496Y-149549754D01*
X164505958Y-149485000D01*
X164174042Y-149485000D01*
X163848504Y-149549754D01*
X163541853Y-149676772D01*
X163265875Y-149861175D01*
X163031175Y-150095875D01*
X162846772Y-150371853D01*
X162719754Y-150678504D01*
X162655000Y-151004042D01*
X93300733Y-151004042D01*
X93886592Y-150878817D01*
X93886594Y-150878816D01*
X94714929Y-150701765D01*
X95612038Y-150510013D01*
X95612040Y-150510012D01*
X96574884Y-150304212D01*
X96574991Y-150304190D01*
X97600864Y-150084919D01*
X97600866Y-150084918D01*
X99244293Y-149733653D01*
X101638431Y-149221933D01*
X103571577Y-148808746D01*
X103571579Y-148808745D01*
X104575276Y-148594217D01*
X104575280Y-148594216D01*
X105257030Y-148448501D01*
X105257032Y-148448500D01*
X107000281Y-148075905D01*
X109921171Y-147451605D01*
X112970819Y-146799786D01*
X112970821Y-146799785D01*
X117726723Y-145783282D01*
X122658197Y-144729254D01*
X125988760Y-144017400D01*
X125988768Y-144017398D01*
X131002151Y-142945867D01*
X137592881Y-141537205D01*
X137592989Y-141537183D01*
X146964014Y-139534281D01*
X146964122Y-139534259D01*
X153680763Y-138098689D01*
X156074646Y-137587035D01*
X156074754Y-137587013D01*
X158246321Y-137122877D01*
X158246331Y-137122874D01*
X160172051Y-136711282D01*
X160838132Y-136568918D01*
X160691175Y-136715875D01*
X160506772Y-136991853D01*
X160379754Y-137298504D01*
X160315000Y-137624042D01*
X160315000Y-137955958D01*
X160379754Y-138281496D01*
X160506772Y-138588147D01*
X160691175Y-138864125D01*
X160925875Y-139098825D01*
X161201853Y-139283228D01*
X161508504Y-139410246D01*
X161834042Y-139475000D01*
X162165958Y-139475000D01*
X162491496Y-139410246D01*
X162798147Y-139283228D01*
X163074125Y-139098825D01*
X163308825Y-138864125D01*
X163493228Y-138588147D01*
X163620246Y-138281496D01*
X163685000Y-137955958D01*
X163685000Y-137624042D01*
X163620246Y-137298504D01*
X163493228Y-136991853D01*
X163308825Y-136715875D01*
X163074125Y-136481175D01*
X162798147Y-136296772D01*
X162564409Y-136199955D01*
X162586531Y-136195227D01*
X162586536Y-136195225D01*
X164240095Y-135841801D01*
X164948326Y-135690427D01*
X164948355Y-135690421D01*
X165152254Y-135646840D01*
X165187894Y-135635490D01*
X165224358Y-135627100D01*
X165233073Y-135624105D01*
X165271317Y-135610669D01*
X165280844Y-135606235D01*
X165290967Y-135603413D01*
X165339169Y-135579090D01*
X165388098Y-135556317D01*
X165396579Y-135550119D01*
X165405965Y-135545383D01*
X165413713Y-135540394D01*
X165444203Y-135520459D01*
X165448896Y-135516689D01*
X165454176Y-135513808D01*
X165499074Y-135476378D01*
X165544622Y-135439787D01*
X165548488Y-135435184D01*
X165553114Y-135431327D01*
X165559536Y-135424718D01*
X165584525Y-135398644D01*
X165588256Y-135393900D01*
X165592766Y-135389887D01*
X165628051Y-135343297D01*
X165664151Y-135297394D01*
X165666888Y-135292018D01*
X165670535Y-135287203D01*
X165675300Y-135279315D01*
X165694053Y-135247780D01*
X165700014Y-135235076D01*
X165707841Y-135223433D01*
X165727328Y-135176871D01*
X165748773Y-135131171D01*
X165752152Y-135117555D01*
X165757570Y-135104610D01*
X165760220Y-135095784D01*
X165772425Y-135054072D01*
X165777676Y-135026305D01*
X165785939Y-134999295D01*
X165789614Y-134963180D01*
X165796361Y-134927505D01*
X165796119Y-134899260D01*
X165798980Y-134871147D01*
X165798949Y-134861932D01*
X165798438Y-134812298D01*
X165792572Y-134758215D01*
X165788357Y-134703978D01*
X165786686Y-134694916D01*
X165785282Y-134687587D01*
X165784706Y-134685635D01*
X165784507Y-134683606D01*
X165782654Y-134674579D01*
X165759890Y-134567453D01*
X165759890Y-134567452D01*
X165693705Y-134255967D01*
X165693705Y-134255966D01*
X165603438Y-133831127D01*
X165489879Y-133296651D01*
X165489877Y-133296645D01*
X165280288Y-132310182D01*
X165280260Y-132310045D01*
X165017343Y-131072580D01*
X165017342Y-131072578D01*
X164818510Y-130136732D01*
X164818509Y-130136730D01*
X164486506Y-128574083D01*
X163977510Y-126178370D01*
X163977509Y-126178368D01*
X163549967Y-124166032D01*
X163246910Y-122739616D01*
X163246909Y-122739614D01*
X162766862Y-120480137D01*
X162253255Y-118062707D01*
X161896506Y-116383570D01*
X161341446Y-113771025D01*
X161341445Y-113771023D01*
X160165791Y-108237466D01*
X157618658Y-96248634D01*
X157618658Y-96248633D01*
X154945171Y-83665084D01*
X153188101Y-75394921D01*
X151920822Y-69430110D01*
X151108600Y-65607164D01*
X150331117Y-61947725D01*
X150331116Y-61947721D01*
X150130623Y-61004042D01*
X162655000Y-61004042D01*
X162655000Y-61335958D01*
X162719754Y-61661496D01*
X162846772Y-61968147D01*
X163031175Y-62244125D01*
X163265875Y-62478825D01*
X163541853Y-62663228D01*
X163848504Y-62790246D01*
X164174042Y-62855000D01*
X164505958Y-62855000D01*
X164831496Y-62790246D01*
X165138147Y-62663228D01*
X165414125Y-62478825D01*
X165648825Y-62244125D01*
X165833228Y-61968147D01*
X165960246Y-61661496D01*
X166025000Y-61335958D01*
X166025000Y-61004042D01*
X165960246Y-60678504D01*
X165833228Y-60371853D01*
X165648825Y-60095875D01*
X165414125Y-59861175D01*
X165138147Y-59676772D01*
X164831496Y-59549754D01*
X164505958Y-59485000D01*
X164174042Y-59485000D01*
X163848504Y-59549754D01*
X163541853Y-59676772D01*
X163265875Y-59861175D01*
X163031175Y-60095875D01*
X162846772Y-60371853D01*
X162719754Y-60678504D01*
X162655000Y-61004042D01*
X150130623Y-61004042D01*
X149594688Y-58481523D01*
X149594688Y-58481522D01*
X148905628Y-55238287D01*
X148270255Y-52247748D01*
X147834780Y-50198083D01*
X147834780Y-50198082D01*
X147563280Y-48920208D01*
X147563280Y-48920207D01*
X147185835Y-47143683D01*
X146853787Y-45580838D01*
X146853785Y-45580830D01*
X146654921Y-44644849D01*
X146654920Y-44644847D01*
X146476190Y-43803627D01*
X146476190Y-43803626D01*
X146318381Y-43060883D01*
X146318381Y-43060882D01*
X146182284Y-42420334D01*
X146182283Y-42420331D01*
X146078959Y-41934042D01*
X147795000Y-41934042D01*
X147795000Y-42265958D01*
X147859754Y-42591496D01*
X147986772Y-42898147D01*
X148171175Y-43174125D01*
X148405875Y-43408825D01*
X148681853Y-43593228D01*
X148988504Y-43720246D01*
X149314042Y-43785000D01*
X149645958Y-43785000D01*
X149971496Y-43720246D01*
X150278147Y-43593228D01*
X150554125Y-43408825D01*
X150788825Y-43174125D01*
X150973228Y-42898147D01*
X151100246Y-42591496D01*
X151165000Y-42265958D01*
X151165000Y-41934042D01*
X151100246Y-41608504D01*
X150973228Y-41301853D01*
X150788825Y-41025875D01*
X150554125Y-40791175D01*
X150278147Y-40606772D01*
X149971496Y-40479754D01*
X149645958Y-40415000D01*
X149314042Y-40415000D01*
X148988504Y-40479754D01*
X148681853Y-40606772D01*
X148405875Y-40791175D01*
X148171175Y-41025875D01*
X147986772Y-41301853D01*
X147859754Y-41608504D01*
X147795000Y-41934042D01*
X146078959Y-41934042D01*
X146068686Y-41885694D01*
X145978382Y-41460684D01*
X145978381Y-41460678D01*
X145927183Y-41219730D01*
X145900240Y-41092931D01*
X145900238Y-41092926D01*
X145889375Y-41041801D01*
X145879083Y-41009349D01*
X145871828Y-40976085D01*
X145868934Y-40967336D01*
X145856118Y-40929481D01*
X145851559Y-40919387D01*
X145848690Y-40908693D01*
X145825090Y-40860773D01*
X145803103Y-40812087D01*
X145796673Y-40803073D01*
X145791779Y-40793137D01*
X145786865Y-40785341D01*
X145767044Y-40754372D01*
X145762855Y-40749053D01*
X145759657Y-40743086D01*
X145723043Y-40698497D01*
X145687351Y-40653174D01*
X145682208Y-40648769D01*
X145677913Y-40643538D01*
X145671353Y-40637067D01*
X145645993Y-40612398D01*
X145609864Y-40583548D01*
X145587747Y-40563789D01*
X145581578Y-40557914D01*
X145580170Y-40557020D01*
X145575371Y-40552733D01*
X145567894Y-40547346D01*
X145557310Y-40539831D01*
X145549575Y-40535406D01*
X145545338Y-40532022D01*
X145527442Y-40522742D01*
X145514481Y-40515327D01*
X145472825Y-40488887D01*
X145464571Y-40484789D01*
X145430893Y-40468360D01*
X145420509Y-40464498D01*
X145410892Y-40459015D01*
X145360222Y-40442073D01*
X145310164Y-40423454D01*
X145299240Y-40421684D01*
X145288730Y-40418170D01*
X145279733Y-40416178D01*
X145238546Y-40407358D01*
X145216872Y-40404893D01*
X145195704Y-40399652D01*
X145153025Y-40397634D01*
X145110560Y-40392805D01*
X145088822Y-40394597D01*
X145067038Y-40393567D01*
X145057838Y-40394096D01*
X145011631Y-40397078D01*
X144968768Y-40404092D01*
X144925544Y-40408356D01*
X144916519Y-40410215D01*
X144528662Y-40492905D01*
X144528632Y-40492911D01*
X142906493Y-40838750D01*
X138929238Y-41686697D01*
X131155742Y-43343995D01*
X121735268Y-45352426D01*
X121735239Y-45352432D01*
X106780932Y-48540666D01*
X94571472Y-51143702D01*
X90594042Y-51991684D01*
X88971794Y-52337546D01*
X88971765Y-52337552D01*
X88583803Y-52420266D01*
X88549164Y-52431278D01*
X88513710Y-52439296D01*
X88504984Y-52442257D01*
X88467572Y-52455244D01*
X88459015Y-52459188D01*
X88449928Y-52461652D01*
X88400601Y-52486109D01*
X88350588Y-52509159D01*
X88342964Y-52514687D01*
X88334525Y-52518871D01*
X88326742Y-52523806D01*
X88296105Y-52543530D01*
X88291288Y-52547344D01*
X88285877Y-52550250D01*
X88240825Y-52587303D01*
X88195121Y-52623493D01*
X88191141Y-52628165D01*
X88186392Y-52632071D01*
X88179926Y-52638636D01*
X88154694Y-52664615D01*
X88125498Y-52701236D01*
X88109584Y-52719143D01*
X88101290Y-52727815D01*
X88099799Y-52730154D01*
X88094373Y-52736259D01*
X88089005Y-52743750D01*
X88081364Y-52754571D01*
X88077353Y-52761624D01*
X88074396Y-52765333D01*
X88065815Y-52781912D01*
X88057735Y-52796121D01*
X88032036Y-52836423D01*
X88027921Y-52844669D01*
X88011139Y-52878890D01*
X88005829Y-52893074D01*
X87998462Y-52906310D01*
X87983286Y-52953294D01*
X87965980Y-52999524D01*
X87963527Y-53014468D01*
X87958870Y-53028885D01*
X87956970Y-53037902D01*
X87948354Y-53080249D01*
X87946166Y-53101424D01*
X87941230Y-53122121D01*
X87939560Y-53165340D01*
X87935112Y-53208377D01*
X87937078Y-53229568D01*
X87936256Y-53250834D01*
X87936865Y-53260030D01*
X87940080Y-53303943D01*
X87947043Y-53344306D01*
X87951113Y-53385082D01*
X87952982Y-53394105D01*
X87966893Y-53458991D01*
X87966896Y-53459004D01*
X87983015Y-53534182D01*
X87983016Y-53534186D01*
X88021666Y-53714440D01*
X88021678Y-53714499D01*
X88087006Y-54019169D01*
X88087018Y-54019228D01*
X88166398Y-54389425D01*
X88166410Y-54389485D01*
X88234931Y-54709039D01*
X88284177Y-54938705D01*
X88284189Y-54938764D01*
X88363172Y-55307109D01*
X88363184Y-55307168D01*
X88538741Y-56125885D01*
X88806821Y-57376088D01*
X88806824Y-57376098D01*
X89104053Y-58762231D01*
X89422097Y-60245431D01*
X89422110Y-60245492D01*
X89752663Y-61787021D01*
X89752669Y-61787051D01*
X90087405Y-63348084D01*
X90417988Y-64889742D01*
X90417994Y-64889771D01*
X90736105Y-66373261D01*
X90736111Y-66373290D01*
X91033432Y-67759817D01*
X91236661Y-68707559D01*
X91361919Y-69291687D01*
X91361920Y-69291689D01*
X91532386Y-70086627D01*
X91674232Y-70748099D01*
X91674244Y-70748158D01*
X91753732Y-71118832D01*
X91753733Y-71118835D01*
X91782366Y-71252357D01*
X91500580Y-71310420D01*
X91500574Y-71310422D01*
X90887009Y-71436851D01*
X90886980Y-71436857D01*
X90414737Y-71534167D01*
X89620883Y-71697749D01*
X87765694Y-72080032D01*
X87765666Y-72080038D01*
X84889173Y-72672777D01*
X84889165Y-72672779D01*
X81856633Y-73297675D01*
X81856524Y-73297697D01*
X79669476Y-73748367D01*
X79669468Y-73748369D01*
X78314316Y-74027616D01*
X78314306Y-74027619D01*
X77087085Y-74280503D01*
X76024888Y-74499382D01*
X76024884Y-74499383D01*
X75366052Y-74635142D01*
X75366050Y-74635143D01*
X74993541Y-74711901D01*
X74993513Y-74711907D01*
X74948043Y-74721277D01*
X74948043Y-64221065D01*
X78790001Y-64221065D01*
X78790023Y-64234699D01*
X78790038Y-64234852D01*
X78790057Y-64240425D01*
X78790583Y-64291507D01*
X78790582Y-64291514D01*
X78790584Y-64291616D01*
X78790586Y-64291838D01*
X78790588Y-64291854D01*
X78790737Y-64300728D01*
X78791954Y-64351929D01*
X78792237Y-64361140D01*
X78794274Y-64415216D01*
X78794277Y-64415237D01*
X78794667Y-64424084D01*
X78797087Y-64471389D01*
X78797087Y-64471397D01*
X78797092Y-64471482D01*
X78797118Y-64471988D01*
X78797123Y-64472019D01*
X78797614Y-64480597D01*
X78800873Y-64531318D01*
X78800880Y-64531359D01*
X78801482Y-64539916D01*
X78805163Y-64587487D01*
X78805173Y-64587545D01*
X78805861Y-64595822D01*
X78810125Y-64643125D01*
X78810125Y-64643128D01*
X78811015Y-64652300D01*
X78816851Y-64708369D01*
X78816855Y-64708390D01*
X78817831Y-64717203D01*
X78823108Y-64762030D01*
X78823124Y-64762103D01*
X78824104Y-64770064D01*
X78830108Y-64816187D01*
X78830122Y-64816247D01*
X78831225Y-64824370D01*
X78837896Y-64871046D01*
X78837913Y-64871116D01*
X78839087Y-64879031D01*
X78845862Y-64922620D01*
X78845880Y-64922691D01*
X78847151Y-64930593D01*
X78855052Y-64977628D01*
X78855068Y-64977689D01*
X78856493Y-64985885D01*
X78864843Y-65032001D01*
X78864866Y-65032082D01*
X78866309Y-65039827D01*
X78874504Y-65082166D01*
X78874532Y-65082261D01*
X78876009Y-65089706D01*
X78884829Y-65132590D01*
X78884856Y-65132679D01*
X78886443Y-65140208D01*
X78895907Y-65183621D01*
X78895934Y-65183705D01*
X78897608Y-65191210D01*
X78907240Y-65233020D01*
X78907253Y-65233058D01*
X78909247Y-65241473D01*
X78922227Y-65294606D01*
X78922228Y-65294617D01*
X78922247Y-65294691D01*
X78922339Y-65295067D01*
X78922346Y-65295087D01*
X78924472Y-65303555D01*
X78935349Y-65345652D01*
X78935380Y-65345735D01*
X78937320Y-65353103D01*
X78948671Y-65395008D01*
X78948706Y-65395099D01*
X78950704Y-65402345D01*
X78962324Y-65443362D01*
X78962363Y-65443461D01*
X78964395Y-65450516D01*
X78976051Y-65489960D01*
X78976085Y-65490045D01*
X78978312Y-65497445D01*
X78992118Y-65542204D01*
X78992148Y-65542277D01*
X78994492Y-65549742D01*
X79007492Y-65590163D01*
X79007536Y-65590265D01*
X79009789Y-65597170D01*
X79022540Y-65635348D01*
X79022589Y-65635457D01*
X79024828Y-65642077D01*
X79037975Y-65680074D01*
X79038023Y-65680178D01*
X79040366Y-65686864D01*
X79054153Y-65725349D01*
X79054200Y-65725449D01*
X79056679Y-65732276D01*
X79071378Y-65771905D01*
X79071420Y-65771991D01*
X79074049Y-65778982D01*
X79089442Y-65819067D01*
X79089485Y-65819153D01*
X79092208Y-65826148D01*
X79108045Y-65866011D01*
X79108095Y-65866109D01*
X79110794Y-65872820D01*
X79125974Y-65909825D01*
X79126030Y-65909931D01*
X79128698Y-65916364D01*
X79144260Y-65953170D01*
X79144319Y-65953279D01*
X79147072Y-65959721D01*
X79163300Y-65996974D01*
X79163355Y-65997073D01*
X79166253Y-66003651D01*
X79183462Y-66041992D01*
X79183518Y-66042091D01*
X79186470Y-66048597D01*
X79203189Y-66084776D01*
X79203252Y-66084883D01*
X79206155Y-66091106D01*
X79222938Y-66126436D01*
X79223004Y-66126546D01*
X79225856Y-66132499D01*
X79242364Y-66166353D01*
X79242431Y-66166462D01*
X79245334Y-66172368D01*
X79262173Y-66206030D01*
X79262242Y-66206139D01*
X79265223Y-66212050D01*
X79283042Y-66246779D01*
X79283112Y-66246887D01*
X79286244Y-66252939D01*
X79304746Y-66288084D01*
X79304804Y-66288172D01*
X79308166Y-66294495D01*
X79328389Y-66331904D01*
X79328460Y-66332009D01*
X79331749Y-66338041D01*
X79349608Y-66370256D01*
X79349685Y-66370368D01*
X79352804Y-66375955D01*
X79371320Y-66408589D01*
X79371398Y-66408700D01*
X79374677Y-66414436D01*
X79394227Y-66448086D01*
X79394298Y-66448185D01*
X79397735Y-66454052D01*
X79417988Y-66488085D01*
X79418056Y-66488177D01*
X79421598Y-66494079D01*
X79442567Y-66528481D01*
X79442637Y-66528573D01*
X79446228Y-66534418D01*
X79466802Y-66567382D01*
X79466880Y-66567483D01*
X79470372Y-66573039D01*
X79490510Y-66604589D01*
X79490594Y-66604696D01*
X79494121Y-66610184D01*
X79514954Y-66642107D01*
X79515040Y-66642214D01*
X79518600Y-66647633D01*
X79539353Y-66678748D01*
X79539428Y-66678839D01*
X79543267Y-66684550D01*
X79567122Y-66719508D01*
X79567204Y-66719606D01*
X79571047Y-66725194D01*
X79592028Y-66755260D01*
X79592123Y-66755371D01*
X79595742Y-66760526D01*
X79617011Y-66790378D01*
X79617103Y-66790483D01*
X79620770Y-66795600D01*
X79642323Y-66825235D01*
X79642405Y-66825327D01*
X79646414Y-66830798D01*
X79671630Y-66864719D01*
X79671716Y-66864814D01*
X79675824Y-66870298D01*
X79698409Y-66900017D01*
X79698501Y-66900116D01*
X79702446Y-66905274D01*
X79726186Y-66935870D01*
X79726276Y-66935966D01*
X79730269Y-66941079D01*
X79752997Y-66969772D01*
X79753099Y-66969878D01*
X79757000Y-66974774D01*
X79780003Y-67003242D01*
X79780080Y-67003320D01*
X79784512Y-67008762D01*
X79813192Y-67043482D01*
X79813275Y-67043565D01*
X79817753Y-67048944D01*
X79841354Y-67076896D01*
X79841459Y-67076998D01*
X79845520Y-67081781D01*
X79869390Y-67109500D01*
X79869491Y-67109597D01*
X79873590Y-67114330D01*
X79897725Y-67141812D01*
X79897826Y-67141906D01*
X79901953Y-67146581D01*
X79926348Y-67173825D01*
X79926447Y-67173916D01*
X79930813Y-67178761D01*
X79957377Y-67207832D01*
X79957472Y-67207918D01*
X79962078Y-67212922D01*
X79989422Y-67242224D01*
X79989478Y-67242273D01*
X79994998Y-67248125D01*
X80031449Y-67286234D01*
X80031501Y-67286279D01*
X80037047Y-67292016D01*
X80064607Y-67320135D01*
X80064712Y-67320223D01*
X80069259Y-67324834D01*
X80095112Y-67350687D01*
X80095216Y-67350772D01*
X80099722Y-67355253D01*
X80126326Y-67381340D01*
X80126439Y-67381431D01*
X80130878Y-67385761D01*
X80156723Y-67410621D01*
X80156826Y-67410702D01*
X80161713Y-67415370D01*
X80192932Y-67444779D01*
X80193032Y-67444856D01*
X80197968Y-67449474D01*
X80224328Y-67473791D01*
X80224441Y-67473876D01*
X80229196Y-67478236D01*
X80258406Y-67504647D01*
X80258514Y-67504727D01*
X80263334Y-67509059D01*
X80290706Y-67533313D01*
X80290815Y-67533392D01*
X80295551Y-67537565D01*
X80323692Y-67562015D01*
X80323801Y-67562092D01*
X80328784Y-67566394D01*
X80358785Y-67591929D01*
X80358883Y-67591997D01*
X80364212Y-67596498D01*
X80396115Y-67623065D01*
X80396220Y-67623136D01*
X80401380Y-67627404D01*
X80429740Y-67650529D01*
X80429857Y-67650607D01*
X80434717Y-67654548D01*
X80463306Y-67677402D01*
X80463429Y-67677482D01*
X80468316Y-67681367D01*
X80497131Y-67703948D01*
X80497238Y-67704016D01*
X80502586Y-67708176D01*
X80536114Y-67733890D01*
X80536195Y-67733940D01*
X80542235Y-67738527D01*
X80578324Y-67765544D01*
X80578413Y-67765598D01*
X80584309Y-67769971D01*
X80616731Y-67793676D01*
X80616840Y-67793740D01*
X80622142Y-67797591D01*
X80651375Y-67818513D01*
X80651495Y-67818582D01*
X80656565Y-67822191D01*
X80686583Y-67843241D01*
X80686712Y-67843314D01*
X80691819Y-67846875D01*
X80721468Y-67867242D01*
X80721593Y-67867311D01*
X80726785Y-67870856D01*
X80757811Y-67891727D01*
X80757932Y-67891792D01*
X80763304Y-67895382D01*
X80794548Y-67915949D01*
X80794662Y-67916009D01*
X80800113Y-67919573D01*
X80832765Y-67940599D01*
X80832886Y-67940661D01*
X80838389Y-67944180D01*
X80869471Y-67963754D01*
X80869589Y-67963813D01*
X80875112Y-67967267D01*
X80908209Y-67987647D01*
X80908333Y-67987708D01*
X80913928Y-67991128D01*
X80946035Y-68010452D01*
X80946153Y-68010508D01*
X80951725Y-68013838D01*
X80984038Y-68032847D01*
X80984160Y-68032904D01*
X80989836Y-68036218D01*
X81023587Y-68055614D01*
X81023697Y-68055663D01*
X81029563Y-68059007D01*
X81063531Y-68078061D01*
X81063655Y-68078116D01*
X81069414Y-68081321D01*
X81102353Y-68099358D01*
X81102469Y-68099407D01*
X81108362Y-68102608D01*
X81143382Y-68121316D01*
X81143475Y-68121355D01*
X81150009Y-68124808D01*
X81190299Y-68145747D01*
X81190378Y-68145779D01*
X81197236Y-68149301D01*
X81235266Y-68168498D01*
X81235379Y-68168542D01*
X81241584Y-68171645D01*
X81275378Y-68188253D01*
X81275503Y-68188300D01*
X81281489Y-68191217D01*
X81316761Y-68208103D01*
X81316876Y-68208145D01*
X81323035Y-68211066D01*
X81359156Y-68227895D01*
X81359269Y-68227935D01*
X81365617Y-68230863D01*
X81401945Y-68247313D01*
X81402052Y-68247349D01*
X81408588Y-68250277D01*
X81447736Y-68267487D01*
X81447842Y-68267522D01*
X81454502Y-68270416D01*
X81491908Y-68286364D01*
X81492009Y-68286396D01*
X81498710Y-68289220D01*
X81537645Y-68305308D01*
X81537758Y-68305342D01*
X81544349Y-68308035D01*
X81581505Y-68322913D01*
X81581619Y-68322946D01*
X81588181Y-68325544D01*
X81626201Y-68340290D01*
X81626311Y-68340321D01*
X81632845Y-68342826D01*
X81669720Y-68356673D01*
X81669802Y-68356695D01*
X81677042Y-68359373D01*
X81722880Y-68375970D01*
X81722955Y-68375989D01*
X81730331Y-68378618D01*
X81768289Y-68391850D01*
X81768410Y-68391879D01*
X81775026Y-68394157D01*
X81813165Y-68406992D01*
X81813276Y-68407018D01*
X81819915Y-68409223D01*
X81858238Y-68421662D01*
X81858327Y-68421682D01*
X81865535Y-68423984D01*
X81908860Y-68437493D01*
X81908956Y-68437513D01*
X81916140Y-68439717D01*
X81954837Y-68451295D01*
X81954949Y-68451317D01*
X81961743Y-68453320D01*
X82001311Y-68464690D01*
X82001406Y-68464708D01*
X82008542Y-68466724D01*
X82050382Y-68478233D01*
X82050485Y-68478251D01*
X82057636Y-68480184D01*
X82097565Y-68490680D01*
X82097660Y-68490695D01*
X82105069Y-68492605D01*
X82149398Y-68503703D01*
X82149474Y-68503714D01*
X82157072Y-68505576D01*
X82199483Y-68515656D01*
X82199579Y-68515669D01*
X82207024Y-68517401D01*
X82249617Y-68526999D01*
X82249706Y-68527010D01*
X82257242Y-68528669D01*
X82300732Y-68537929D01*
X82300820Y-68537939D01*
X82308313Y-68539497D01*
X82350552Y-68547974D01*
X82350641Y-68547983D01*
X82358193Y-68549461D01*
X82402040Y-68557724D01*
X82402118Y-68557731D01*
X82410003Y-68559174D01*
X82456197Y-68567294D01*
X82456267Y-68567299D01*
X82464292Y-68568665D01*
X82509952Y-68576107D01*
X82510012Y-68576111D01*
X82518143Y-68577389D01*
X82564714Y-68584380D01*
X82564761Y-68584382D01*
X82573171Y-68585594D01*
X82622856Y-68592396D01*
X82622898Y-68592398D01*
X82631373Y-68593505D01*
X82678321Y-68599311D01*
X82678375Y-68599312D01*
X82686658Y-68600288D01*
X82733642Y-68605493D01*
X82733649Y-68605494D01*
X82733770Y-68605507D01*
X82734522Y-68605590D01*
X82734569Y-68605591D01*
X82742813Y-68606456D01*
X82789372Y-68611019D01*
X82789435Y-68611019D01*
X82797637Y-68611777D01*
X82845102Y-68615827D01*
X82845168Y-68615826D01*
X82853411Y-68616483D01*
X82901044Y-68619942D01*
X82901104Y-68619940D01*
X82909380Y-68620494D01*
X82957173Y-68623357D01*
X82957213Y-68623355D01*
X82965793Y-68623817D01*
X83016747Y-68626201D01*
X83016776Y-68626200D01*
X83025622Y-68626556D01*
X83076414Y-68628248D01*
X83076416Y-68628248D01*
X83076445Y-68628249D01*
X83076752Y-68628259D01*
X83076774Y-68628258D01*
X83085628Y-68628495D01*
X83136927Y-68629513D01*
X83136958Y-68629511D01*
X83145688Y-68629629D01*
X83195637Y-68629957D01*
X83195733Y-68629948D01*
X83203284Y-68629963D01*
X83241134Y-68629773D01*
X83241235Y-68629763D01*
X83248754Y-68629690D01*
X83298723Y-68628862D01*
X83298733Y-68628863D01*
X83298895Y-68628859D01*
X83299337Y-68628852D01*
X83299366Y-68628849D01*
X83307946Y-68628654D01*
X83356862Y-68627205D01*
X83356916Y-68627198D01*
X83365283Y-68626901D01*
X83412476Y-68624900D01*
X83412482Y-68624900D01*
X83412579Y-68624895D01*
X83413294Y-68624865D01*
X83413339Y-68624859D01*
X83421686Y-68624456D01*
X83469418Y-68621823D01*
X83469424Y-68621823D01*
X83469503Y-68621818D01*
X83469541Y-68621816D01*
X83469544Y-68621816D01*
X83478621Y-68621252D01*
X83535170Y-68617350D01*
X83535177Y-68617350D01*
X83544365Y-68616652D01*
X83591861Y-68612712D01*
X83591871Y-68612710D01*
X83600951Y-68611894D01*
X83657126Y-68606451D01*
X83657138Y-68606451D01*
X83666304Y-68605497D01*
X83713506Y-68600257D01*
X83713508Y-68600257D01*
X83713537Y-68600254D01*
X83714164Y-68600184D01*
X83714205Y-68600175D01*
X83722661Y-68599185D01*
X83771124Y-68593168D01*
X83771128Y-68593168D01*
X83771201Y-68593158D01*
X83771801Y-68593084D01*
X83771839Y-68593075D01*
X83780266Y-68591978D01*
X83827023Y-68585558D01*
X83827099Y-68585540D01*
X83834959Y-68584419D01*
X83878625Y-68577882D01*
X83878692Y-68577865D01*
X83886626Y-68576634D01*
X83933022Y-68569105D01*
X83933097Y-68569085D01*
X83940922Y-68567773D01*
X83984245Y-68560202D01*
X83984325Y-68560180D01*
X83991909Y-68558816D01*
X84035060Y-68550749D01*
X84035141Y-68550725D01*
X84042719Y-68549271D01*
X84086412Y-68540567D01*
X84086503Y-68540540D01*
X84094040Y-68539000D01*
X84136124Y-68530099D01*
X84136201Y-68530075D01*
X84143835Y-68528420D01*
X84188579Y-68518396D01*
X84188665Y-68518368D01*
X84196158Y-68516651D01*
X84237171Y-68506954D01*
X84237267Y-68506921D01*
X84244404Y-68505201D01*
X84285245Y-68495057D01*
X84285341Y-68495023D01*
X84292536Y-68493202D01*
X84333197Y-68482609D01*
X84333294Y-68482573D01*
X84340355Y-68480701D01*
X84380838Y-68469668D01*
X84380935Y-68469631D01*
X84387931Y-68467693D01*
X84427540Y-68456422D01*
X84427650Y-68456379D01*
X84434519Y-68454394D01*
X84473258Y-68442908D01*
X84473354Y-68442869D01*
X84480348Y-68440763D01*
X84521660Y-68428008D01*
X84521760Y-68427966D01*
X84528760Y-68425772D01*
X84567132Y-68413449D01*
X84567230Y-68413407D01*
X84574134Y-68411157D01*
X84615047Y-68397512D01*
X84615127Y-68397476D01*
X84622282Y-68395053D01*
X84662987Y-68380952D01*
X84663083Y-68380908D01*
X84670012Y-68378473D01*
X84708482Y-68364659D01*
X84708571Y-68364617D01*
X84715750Y-68362000D01*
X84758714Y-68346000D01*
X84758802Y-68345957D01*
X84765721Y-68343345D01*
X84802445Y-68329192D01*
X84802535Y-68329147D01*
X84809436Y-68326452D01*
X84851268Y-68309782D01*
X84851361Y-68309734D01*
X84858110Y-68307011D01*
X84893772Y-68292335D01*
X84893886Y-68292275D01*
X84900138Y-68289676D01*
X84936270Y-68274363D01*
X84936376Y-68274305D01*
X84942747Y-68271577D01*
X84979333Y-68255608D01*
X84979437Y-68255550D01*
X84985750Y-68252767D01*
X85022136Y-68236423D01*
X85022243Y-68236362D01*
X85028569Y-68233492D01*
X85064748Y-68216773D01*
X85064845Y-68216716D01*
X85071336Y-68213684D01*
X85109868Y-68195359D01*
X85109945Y-68195313D01*
X85116743Y-68192041D01*
X85155669Y-68172974D01*
X85155742Y-68172929D01*
X85162602Y-68169528D01*
X85202539Y-68149381D01*
X85202601Y-68149342D01*
X85209642Y-68145744D01*
X85249930Y-68124805D01*
X85250007Y-68124755D01*
X85256712Y-68121231D01*
X85293602Y-68101511D01*
X85293704Y-68101443D01*
X85299784Y-68098163D01*
X85332709Y-68080109D01*
X85332813Y-68080038D01*
X85338616Y-68076831D01*
X85372572Y-68057757D01*
X85372677Y-68057684D01*
X85378407Y-68054440D01*
X85410922Y-68035738D01*
X85411017Y-68035670D01*
X85416987Y-68032207D01*
X85453550Y-68010656D01*
X85453638Y-68010592D01*
X85459954Y-68006832D01*
X85496250Y-67984882D01*
X85496347Y-67984810D01*
X85502217Y-67981230D01*
X85533456Y-67961883D01*
X85533561Y-67961803D01*
X85539061Y-67958373D01*
X85571881Y-67937589D01*
X85571984Y-67937509D01*
X85577534Y-67933969D01*
X85608940Y-67913630D01*
X85609049Y-67913543D01*
X85614376Y-67910071D01*
X85644984Y-67889819D01*
X85645094Y-67889730D01*
X85650418Y-67886184D01*
X85681395Y-67865243D01*
X85681505Y-67865152D01*
X85686724Y-67861602D01*
X85716901Y-67840769D01*
X85717008Y-67840679D01*
X85722121Y-67837128D01*
X85751511Y-67816418D01*
X85751621Y-67816323D01*
X85756785Y-67812662D01*
X85787107Y-67790846D01*
X85787212Y-67790754D01*
X85792290Y-67787079D01*
X85821253Y-67765811D01*
X85821360Y-67765715D01*
X85826330Y-67762045D01*
X85855645Y-67740084D01*
X85855750Y-67739988D01*
X85860798Y-67736183D01*
X85889889Y-67713941D01*
X85889989Y-67713848D01*
X85894932Y-67710047D01*
X85923802Y-67687529D01*
X85923893Y-67687442D01*
X85929210Y-67683265D01*
X85962239Y-67656945D01*
X85962333Y-67656854D01*
X85967618Y-67652612D01*
X85995997Y-67629507D01*
X85996096Y-67629409D01*
X86000979Y-67625410D01*
X86029127Y-67602032D01*
X86029229Y-67601929D01*
X86033994Y-67597950D01*
X86061910Y-67574307D01*
X86062006Y-67574208D01*
X86066768Y-67570152D01*
X86094451Y-67546242D01*
X86094549Y-67546139D01*
X86099283Y-67542027D01*
X86126727Y-67517854D01*
X86126817Y-67517758D01*
X86131653Y-67513472D01*
X86160945Y-67487147D01*
X86161036Y-67487047D01*
X86165982Y-67482572D01*
X86193444Y-67457375D01*
X86193536Y-67457272D01*
X86198053Y-67453106D01*
X86224245Y-67428611D01*
X86224337Y-67428506D01*
X86228879Y-67424235D01*
X86255340Y-67399005D01*
X86255425Y-67398907D01*
X86260094Y-67394427D01*
X86288317Y-67366973D01*
X86288406Y-67366868D01*
X86293061Y-67362311D01*
X86319009Y-67336556D01*
X86319074Y-67336478D01*
X86324241Y-67331305D01*
X86357793Y-67297246D01*
X86357863Y-67297159D01*
X86362873Y-67292032D01*
X86388243Y-67265704D01*
X86388332Y-67265591D01*
X86392721Y-67261011D01*
X86417830Y-67234435D01*
X86417916Y-67234324D01*
X86422166Y-67229802D01*
X86447022Y-67202984D01*
X86447113Y-67202865D01*
X86451347Y-67198271D01*
X86475943Y-67171211D01*
X86476026Y-67171099D01*
X86480218Y-67166461D01*
X86504552Y-67139164D01*
X86504635Y-67139050D01*
X86508814Y-67134336D01*
X86533348Y-67106266D01*
X86533428Y-67106153D01*
X86537555Y-67101405D01*
X86560902Y-67074163D01*
X86560972Y-67074063D01*
X86565274Y-67069010D01*
X86592414Y-67036678D01*
X86592488Y-67036570D01*
X86596868Y-67031314D01*
X86620096Y-67003041D01*
X86620161Y-67002945D01*
X86624585Y-66997517D01*
X86652804Y-66962404D01*
X86652862Y-66962315D01*
X86657395Y-66956625D01*
X86681747Y-66925620D01*
X86681816Y-66925512D01*
X86685988Y-66920161D01*
X86710019Y-66888897D01*
X86710089Y-66888785D01*
X86714024Y-66883632D01*
X86736051Y-66854372D01*
X86736122Y-66854255D01*
X86739932Y-66849164D01*
X86762096Y-66819111D01*
X86762170Y-66818987D01*
X86765948Y-66813833D01*
X86787406Y-66784126D01*
X86787477Y-66784005D01*
X86791118Y-66778934D01*
X86812294Y-66749012D01*
X86812363Y-66748892D01*
X86815935Y-66743815D01*
X86836427Y-66714261D01*
X86836495Y-66714139D01*
X86840144Y-66708842D01*
X86861934Y-66676738D01*
X86861995Y-66676625D01*
X86865652Y-66671201D01*
X86885952Y-66640632D01*
X86886018Y-66640508D01*
X86889502Y-66635229D01*
X86909893Y-66603859D01*
X86909951Y-66603748D01*
X86913569Y-66598140D01*
X86934783Y-66564759D01*
X86934841Y-66564644D01*
X86938468Y-66558892D01*
X86959338Y-66525277D01*
X86959397Y-66525157D01*
X86962841Y-66519571D01*
X86981913Y-66488144D01*
X86981965Y-66488036D01*
X86985512Y-66482142D01*
X87007144Y-66445632D01*
X87007186Y-66445541D01*
X87011006Y-66439025D01*
X87033286Y-66400407D01*
X87033336Y-66400296D01*
X87036853Y-66394144D01*
X87055251Y-66361432D01*
X87055299Y-66361322D01*
X87058523Y-66355546D01*
X87077277Y-66321391D01*
X87077328Y-66321271D01*
X87080508Y-66315434D01*
X87098253Y-66282315D01*
X87098301Y-66282200D01*
X87101558Y-66276067D01*
X87121257Y-66238336D01*
X87121291Y-66238253D01*
X87124808Y-66231436D01*
X87145359Y-66190918D01*
X87145392Y-66190833D01*
X87148826Y-66183981D01*
X87167662Y-66145740D01*
X87167702Y-66145633D01*
X87170860Y-66139154D01*
X87188055Y-66103243D01*
X87188097Y-66103129D01*
X87191038Y-66096927D01*
X87207867Y-66060806D01*
X87207904Y-66060701D01*
X87210932Y-66054129D01*
X87228543Y-66015201D01*
X87228577Y-66015100D01*
X87231512Y-66008542D01*
X87247561Y-65971996D01*
X87247598Y-65971883D01*
X87250359Y-65965532D01*
X87266031Y-65928785D01*
X87266068Y-65928668D01*
X87268796Y-65922201D01*
X87284083Y-65885254D01*
X87284117Y-65885141D01*
X87286738Y-65878739D01*
X87301644Y-65841598D01*
X87301676Y-65841488D01*
X87304274Y-65834941D01*
X87318791Y-65797602D01*
X87318822Y-65797493D01*
X87321425Y-65790712D01*
X87336798Y-65749825D01*
X87336827Y-65749718D01*
X87339361Y-65742891D01*
X87352823Y-65705831D01*
X87352852Y-65705719D01*
X87355278Y-65698954D01*
X87369531Y-65658321D01*
X87369553Y-65658232D01*
X87372016Y-65651104D01*
X87385814Y-65610262D01*
X87385836Y-65610166D01*
X87388215Y-65603016D01*
X87401557Y-65561964D01*
X87401573Y-65561893D01*
X87403973Y-65554375D01*
X87417693Y-65510360D01*
X87417711Y-65510272D01*
X87419939Y-65503002D01*
X87431511Y-65464299D01*
X87431533Y-65464186D01*
X87433537Y-65457383D01*
X87444898Y-65417813D01*
X87444917Y-65417708D01*
X87446892Y-65410720D01*
X87458017Y-65370275D01*
X87458035Y-65370173D01*
X87459945Y-65363110D01*
X87470630Y-65322483D01*
X87470644Y-65322393D01*
X87472578Y-65314891D01*
X87483676Y-65270561D01*
X87483688Y-65270481D01*
X87485546Y-65262897D01*
X87495626Y-65220489D01*
X87495638Y-65220402D01*
X87497375Y-65212935D01*
X87506972Y-65170340D01*
X87506983Y-65170253D01*
X87508625Y-65162796D01*
X87517738Y-65120021D01*
X87517748Y-65119935D01*
X87519312Y-65112416D01*
X87527936Y-65069462D01*
X87527943Y-65069388D01*
X87529468Y-65061585D01*
X87538125Y-65015575D01*
X87538132Y-65015496D01*
X87539562Y-65007668D01*
X87547166Y-64964359D01*
X87547172Y-64964282D01*
X87548475Y-64956639D01*
X87555697Y-64912433D01*
X87555703Y-64912345D01*
X87556924Y-64904625D01*
X87563519Y-64860978D01*
X87563523Y-64860900D01*
X87564657Y-64853131D01*
X87571044Y-64807126D01*
X87571047Y-64807055D01*
X87572108Y-64799097D01*
X87577757Y-64754386D01*
X87577759Y-64754313D01*
X87578715Y-64746420D01*
X87583999Y-64700074D01*
X87583999Y-64700044D01*
X87584940Y-64691295D01*
X87590283Y-64638121D01*
X87590284Y-64637776D01*
X87590353Y-64637429D01*
X87591200Y-64628253D01*
X87596263Y-64568922D01*
X87596262Y-64568871D01*
X87596273Y-64568813D01*
X87596990Y-64559626D01*
X87600326Y-64512719D01*
X87600324Y-64512662D01*
X87600865Y-64504406D01*
X87603703Y-64455846D01*
X87603701Y-64455790D01*
X87604143Y-64447382D01*
X87606329Y-64399409D01*
X87606326Y-64399358D01*
X87606658Y-64391014D01*
X87608262Y-64342137D01*
X87608259Y-64342092D01*
X87608488Y-64333518D01*
X87609486Y-64282973D01*
X87609483Y-64282941D01*
X87609601Y-64274278D01*
X87609929Y-64224334D01*
X87609918Y-64224213D01*
X87609937Y-64217198D01*
X87609802Y-64185393D01*
X87609790Y-64185278D01*
X87609733Y-64178248D01*
X87608959Y-64126892D01*
X87608956Y-64126869D01*
X87608765Y-64118009D01*
X87607321Y-64067430D01*
X87607322Y-64067422D01*
X87607318Y-64067295D01*
X87607304Y-64066819D01*
X87607300Y-64066787D01*
X87607002Y-64058213D01*
X87605004Y-64010191D01*
X87604998Y-64010145D01*
X87604598Y-64001729D01*
X87601950Y-63953118D01*
X87601949Y-63953114D01*
X87601393Y-63944040D01*
X87597576Y-63888159D01*
X87597575Y-63888153D01*
X87596893Y-63879083D01*
X87592989Y-63831574D01*
X87592978Y-63831512D01*
X87592256Y-63823293D01*
X87587765Y-63775954D01*
X87587754Y-63775898D01*
X87586926Y-63767672D01*
X87581929Y-63721237D01*
X87581914Y-63721166D01*
X87581019Y-63713238D01*
X87575645Y-63668443D01*
X87575628Y-63668368D01*
X87574651Y-63660556D01*
X87568750Y-63615921D01*
X87568732Y-63615845D01*
X87567652Y-63607986D01*
X87561013Y-63562066D01*
X87560999Y-63562010D01*
X87559775Y-63553867D01*
X87552460Y-63507400D01*
X87552441Y-63507328D01*
X87551152Y-63499409D01*
X87543652Y-63455297D01*
X87543631Y-63455220D01*
X87542242Y-63447306D01*
X87533821Y-63401214D01*
X87533799Y-63401138D01*
X87532350Y-63393426D01*
X87524093Y-63351112D01*
X87524068Y-63351028D01*
X87522568Y-63343532D01*
X87513682Y-63300672D01*
X87513654Y-63300583D01*
X87512077Y-63293151D01*
X87502864Y-63251180D01*
X87502832Y-63251080D01*
X87501215Y-63243866D01*
X87491706Y-63202781D01*
X87491677Y-63202695D01*
X87489895Y-63195164D01*
X87479055Y-63150734D01*
X87479028Y-63150658D01*
X87477137Y-63143074D01*
X87466324Y-63100950D01*
X87466296Y-63100872D01*
X87464358Y-63093471D01*
X87453069Y-63051539D01*
X87453037Y-63051453D01*
X87451023Y-63044113D01*
X87439263Y-63002378D01*
X87439224Y-63002279D01*
X87437212Y-62995252D01*
X87425814Y-62956476D01*
X87425780Y-62956392D01*
X87423586Y-62949057D01*
X87409848Y-62904270D01*
X87409812Y-62904183D01*
X87407535Y-62896884D01*
X87395263Y-62858489D01*
X87395218Y-62858384D01*
X87393046Y-62851680D01*
X87380373Y-62813465D01*
X87380325Y-62813358D01*
X87378120Y-62806789D01*
X87365288Y-62769434D01*
X87365243Y-62769336D01*
X87362851Y-62762467D01*
X87348276Y-62721531D01*
X87348273Y-62721521D01*
X87348220Y-62721376D01*
X87348174Y-62721246D01*
X87348170Y-62721237D01*
X87345125Y-62712861D01*
X87325423Y-62659808D01*
X87325403Y-62659766D01*
X87322385Y-62651788D01*
X87307948Y-62614408D01*
X87307900Y-62614312D01*
X87305262Y-62607567D01*
X87289366Y-62567734D01*
X87289315Y-62567635D01*
X87286621Y-62560965D01*
X87271388Y-62523991D01*
X87271336Y-62523894D01*
X87268619Y-62517370D01*
X87252719Y-62479937D01*
X87252664Y-62479836D01*
X87249887Y-62473367D01*
X87233884Y-62436797D01*
X87233824Y-62436690D01*
X87231066Y-62430449D01*
X87214985Y-62394729D01*
X87214922Y-62394619D01*
X87212098Y-62388406D01*
X87195654Y-62352883D01*
X87195589Y-62352772D01*
X87192744Y-62346682D01*
X87176252Y-62312005D01*
X87176187Y-62311896D01*
X87173270Y-62305818D01*
X87156116Y-62270697D01*
X87156055Y-62270597D01*
X87153021Y-62264443D01*
X87134874Y-62228263D01*
X87134811Y-62228163D01*
X87131649Y-62221919D01*
X87113450Y-62186591D01*
X87113382Y-62186486D01*
X87110240Y-62180439D01*
X87092015Y-62145956D01*
X87091943Y-62145847D01*
X87088744Y-62139846D01*
X87069832Y-62104955D01*
X87069761Y-62104849D01*
X87066549Y-62098972D01*
X87048318Y-62066152D01*
X87048244Y-62066045D01*
X87045029Y-62060300D01*
X87025779Y-62026461D01*
X87025704Y-62026355D01*
X87022315Y-62020446D01*
X87002362Y-61986214D01*
X87002283Y-61986105D01*
X86998953Y-61980433D01*
X86980113Y-61948853D01*
X86980028Y-61948738D01*
X86976768Y-61943309D01*
X86957628Y-61911930D01*
X86957544Y-61911818D01*
X86954245Y-61906444D01*
X86934808Y-61875267D01*
X86934723Y-61875156D01*
X86931357Y-61869791D01*
X86911624Y-61838820D01*
X86911545Y-61838719D01*
X86907902Y-61833046D01*
X86885158Y-61798155D01*
X86885082Y-61798060D01*
X86881343Y-61792369D01*
X86860593Y-61761257D01*
X86860517Y-61761164D01*
X86856631Y-61755385D01*
X86832372Y-61719844D01*
X86832295Y-61719752D01*
X86828298Y-61713945D01*
X86806090Y-61682156D01*
X86806001Y-61682052D01*
X86802281Y-61676762D01*
X86780990Y-61646925D01*
X86780904Y-61646826D01*
X86777090Y-61641518D01*
X86753845Y-61609630D01*
X86753764Y-61609539D01*
X86749696Y-61604002D01*
X86725700Y-61571805D01*
X86725629Y-61571727D01*
X86721261Y-61565918D01*
X86694352Y-61530643D01*
X86694270Y-61530555D01*
X86689991Y-61524991D01*
X86667473Y-61496125D01*
X86667380Y-61496027D01*
X86663550Y-61491144D01*
X86640760Y-61462501D01*
X86640662Y-61462400D01*
X86636681Y-61457427D01*
X86613171Y-61428470D01*
X86613079Y-61428377D01*
X86608924Y-61423293D01*
X86583777Y-61392954D01*
X86583701Y-61392879D01*
X86579082Y-61387353D01*
X86550423Y-61353546D01*
X86550339Y-61353464D01*
X86545787Y-61348137D01*
X86521836Y-61320493D01*
X86521729Y-61320391D01*
X86517654Y-61315714D01*
X86493440Y-61288305D01*
X86493339Y-61288211D01*
X86489190Y-61283540D01*
X86464716Y-61256371D01*
X86464611Y-61256275D01*
X86460398Y-61251625D01*
X86435659Y-61224693D01*
X86435570Y-61224613D01*
X86430940Y-61219609D01*
X86401593Y-61188328D01*
X86401509Y-61188254D01*
X86396663Y-61183129D01*
X86369413Y-61154706D01*
X86369305Y-61154613D01*
X86364847Y-61149991D01*
X86339776Y-61124358D01*
X86339668Y-61124267D01*
X86335309Y-61119834D01*
X86309495Y-61093944D01*
X86309386Y-61093854D01*
X86304958Y-61089437D01*
X86278894Y-61063798D01*
X86278785Y-61063710D01*
X86274178Y-61059205D01*
X86245835Y-61031875D01*
X86245751Y-61031809D01*
X86240438Y-61026730D01*
X86207181Y-60995379D01*
X86207102Y-60995318D01*
X86201727Y-60990295D01*
X86172768Y-60963608D01*
X86172660Y-60963527D01*
X86167932Y-60959195D01*
X86141318Y-60935152D01*
X86141204Y-60935067D01*
X86136599Y-60930929D01*
X86109228Y-60906675D01*
X86109107Y-60906587D01*
X86104408Y-60902446D01*
X86076798Y-60878455D01*
X86076700Y-60878386D01*
X86071346Y-60873770D01*
X86036503Y-60844153D01*
X86036400Y-60844081D01*
X86031060Y-60839577D01*
X86003471Y-60816635D01*
X86003389Y-60816579D01*
X85997750Y-60811931D01*
X85960065Y-60781301D01*
X85959980Y-60781245D01*
X85954284Y-60776656D01*
X85926175Y-60754329D01*
X85926067Y-60754259D01*
X85920959Y-60750228D01*
X85889283Y-60725583D01*
X85889178Y-60725517D01*
X85883789Y-60721355D01*
X85852409Y-60697465D01*
X85852295Y-60697395D01*
X85847131Y-60693489D01*
X85818329Y-60672014D01*
X85818222Y-60671949D01*
X85812807Y-60667941D01*
X85778652Y-60643023D01*
X85778548Y-60642962D01*
X85773037Y-60638971D01*
X85743201Y-60617680D01*
X85743078Y-60617609D01*
X85737950Y-60613972D01*
X85707900Y-60592966D01*
X85707772Y-60592894D01*
X85702604Y-60589303D01*
X85672340Y-60568585D01*
X85672221Y-60568520D01*
X85666821Y-60564848D01*
X85633991Y-60542856D01*
X85633875Y-60542794D01*
X85628253Y-60539056D01*
X85595775Y-60517788D01*
X85595657Y-60517726D01*
X85590137Y-60514137D01*
X85558619Y-60493953D01*
X85558494Y-60493889D01*
X85553128Y-60490475D01*
X85521999Y-60470969D01*
X85521870Y-60470905D01*
X85516523Y-60467575D01*
X85485193Y-60448367D01*
X85485068Y-60448306D01*
X85479649Y-60445006D01*
X85448114Y-60426096D01*
X85447998Y-60426041D01*
X85442339Y-60422672D01*
X85408156Y-60402644D01*
X85408035Y-60402588D01*
X85402270Y-60399236D01*
X85369709Y-60380607D01*
X85369588Y-60380553D01*
X85363851Y-60377295D01*
X85329848Y-60358298D01*
X85329741Y-60358251D01*
X85323786Y-60354952D01*
X85288942Y-60335962D01*
X85288820Y-60335910D01*
X85282937Y-60332730D01*
X85249752Y-60315087D01*
X85249635Y-60315039D01*
X85243761Y-60311940D01*
X85209121Y-60293976D01*
X85209001Y-60293928D01*
X85203032Y-60290859D01*
X85168182Y-60273242D01*
X85168067Y-60273197D01*
X85162019Y-60270166D01*
X85127603Y-60253217D01*
X85127474Y-60253168D01*
X85121445Y-60250225D01*
X85086186Y-60233313D01*
X85086073Y-60233272D01*
X85079838Y-60230309D01*
X85043087Y-60213160D01*
X85042972Y-60213119D01*
X85036688Y-60210216D01*
X85001023Y-60194035D01*
X85000915Y-60193998D01*
X84994570Y-60191148D01*
X84957399Y-60174762D01*
X84957297Y-60174729D01*
X84950695Y-60171851D01*
X84912001Y-60155302D01*
X84911893Y-60155268D01*
X84905287Y-60152475D01*
X84868354Y-60137159D01*
X84868240Y-60137124D01*
X84861829Y-60134494D01*
X84824700Y-60119560D01*
X84824584Y-60119526D01*
X84818085Y-60116941D01*
X84780761Y-60102394D01*
X84780655Y-60102364D01*
X84774059Y-60099824D01*
X84735873Y-60085417D01*
X84735765Y-60085388D01*
X84728969Y-60082856D01*
X84689236Y-60068370D01*
X84689154Y-60068349D01*
X84681873Y-60065735D01*
X84638538Y-60050515D01*
X84638456Y-60050495D01*
X84631057Y-60047938D01*
X84590215Y-60034141D01*
X84590108Y-60034116D01*
X84583202Y-60031816D01*
X84544893Y-60019351D01*
X84544794Y-60019329D01*
X84537787Y-60017083D01*
X84495854Y-60003961D01*
X84495759Y-60003941D01*
X84488662Y-60001755D01*
X84449981Y-59990133D01*
X84449878Y-59990113D01*
X84442770Y-59988011D01*
X84399744Y-59975616D01*
X84399647Y-59975598D01*
X84392363Y-59973537D01*
X84352623Y-59962587D01*
X84352528Y-59962571D01*
X84345370Y-59960632D01*
X84303351Y-59949567D01*
X84303269Y-59949554D01*
X84295645Y-59947588D01*
X84250613Y-59936308D01*
X84250533Y-59936296D01*
X84242868Y-59934418D01*
X84200459Y-59924338D01*
X84200379Y-59924327D01*
X84192920Y-59922592D01*
X84150325Y-59912994D01*
X84150251Y-59912985D01*
X84142485Y-59911278D01*
X84096852Y-59901577D01*
X84096778Y-59901569D01*
X84088982Y-59899954D01*
X84045299Y-59891222D01*
X84045220Y-59891214D01*
X84037658Y-59889741D01*
X83995234Y-59881780D01*
X83995144Y-59881772D01*
X83987654Y-59880403D01*
X83944345Y-59872798D01*
X83944269Y-59872792D01*
X83936394Y-59871452D01*
X83890010Y-59863890D01*
X83889938Y-59863885D01*
X83882076Y-59862646D01*
X83838420Y-59856073D01*
X83838351Y-59856069D01*
X83830454Y-59854923D01*
X83783710Y-59848467D01*
X83783657Y-59848465D01*
X83775361Y-59847368D01*
X83727700Y-59841404D01*
X83727643Y-59841402D01*
X83719394Y-59840418D01*
X83672289Y-59835129D01*
X83672243Y-59835128D01*
X83663783Y-59834230D01*
X83614284Y-59829321D01*
X83614240Y-59829321D01*
X83605794Y-59828534D01*
X83558339Y-59824446D01*
X83558278Y-59824447D01*
X83550078Y-59823787D01*
X83503199Y-59820341D01*
X83503137Y-59820343D01*
X83494922Y-59819785D01*
X83447143Y-59816876D01*
X83447092Y-59816878D01*
X83438730Y-59816418D01*
X83390555Y-59814102D01*
X83390550Y-59814101D01*
X83390467Y-59814098D01*
X83390040Y-59814077D01*
X83390011Y-59814078D01*
X83381343Y-59813716D01*
X83330236Y-59811934D01*
X83330141Y-59811940D01*
X83330044Y-59811927D01*
X83320832Y-59811673D01*
X83263510Y-59810492D01*
X83263460Y-59810496D01*
X83263411Y-59810490D01*
X83254196Y-59810366D01*
X83234526Y-59810238D01*
X83232390Y-59810028D01*
X83167552Y-59810028D01*
X83165165Y-59810263D01*
X83139180Y-59810452D01*
X83138862Y-59810486D01*
X83138544Y-59810457D01*
X83129329Y-59810598D01*
X83072029Y-59811870D01*
X83071944Y-59811880D01*
X83071848Y-59811873D01*
X83062637Y-59812145D01*
X83012118Y-59813986D01*
X83012114Y-59813986D01*
X83012043Y-59813989D01*
X83011550Y-59814007D01*
X83011517Y-59814011D01*
X83002907Y-59814379D01*
X82954983Y-59816755D01*
X82954927Y-59816763D01*
X82946637Y-59817221D01*
X82899752Y-59820142D01*
X82899748Y-59820142D01*
X82899674Y-59820147D01*
X82898872Y-59820197D01*
X82898823Y-59820205D01*
X82890554Y-59820767D01*
X82842953Y-59824336D01*
X82842900Y-59824345D01*
X82834558Y-59825020D01*
X82786918Y-59829204D01*
X82786916Y-59829204D01*
X82786886Y-59829207D01*
X82786383Y-59829251D01*
X82786349Y-59829257D01*
X82777741Y-59830067D01*
X82728293Y-59835066D01*
X82728290Y-59835066D01*
X82728245Y-59835071D01*
X82727531Y-59835143D01*
X82727486Y-59835152D01*
X82719127Y-59836047D01*
X82673516Y-59841249D01*
X82673443Y-59841265D01*
X82665497Y-59842213D01*
X82620054Y-59847960D01*
X82619983Y-59847976D01*
X82611985Y-59849031D01*
X82565984Y-59855426D01*
X82565909Y-59855444D01*
X82558084Y-59856573D01*
X82514442Y-59863179D01*
X82514368Y-59863198D01*
X82506499Y-59864431D01*
X82460128Y-59872029D01*
X82460061Y-59872047D01*
X82452191Y-59873379D01*
X82408891Y-59881017D01*
X82408806Y-59881041D01*
X82401237Y-59882414D01*
X82358110Y-59890547D01*
X82358029Y-59890571D01*
X82350446Y-59892039D01*
X82306780Y-59900810D01*
X82306692Y-59900837D01*
X82299172Y-59902385D01*
X82257109Y-59911350D01*
X82257023Y-59911377D01*
X82249602Y-59912996D01*
X82207009Y-59922594D01*
X82206921Y-59922623D01*
X82199483Y-59924336D01*
X82157072Y-59934416D01*
X82157001Y-59934440D01*
X82149314Y-59936310D01*
X82104284Y-59947589D01*
X82104220Y-59947612D01*
X82096342Y-59949631D01*
X82051525Y-59961451D01*
X82051450Y-59961479D01*
X82043814Y-59963535D01*
X82002001Y-59975106D01*
X82001917Y-59975138D01*
X81994613Y-59977197D01*
X81952994Y-59989237D01*
X81952911Y-59989270D01*
X81945596Y-59991424D01*
X81904178Y-60003932D01*
X81904102Y-60003964D01*
X81896693Y-60006241D01*
X81853420Y-60019872D01*
X81853332Y-60019910D01*
X81846113Y-60022221D01*
X81807157Y-60034992D01*
X81807061Y-60035034D01*
X81800312Y-60037277D01*
X81762225Y-60050226D01*
X81762121Y-60050273D01*
X81755482Y-60052559D01*
X81717577Y-60065905D01*
X81717467Y-60065956D01*
X81710866Y-60068309D01*
X81673151Y-60082048D01*
X81673069Y-60082087D01*
X81666028Y-60084689D01*
X81623152Y-60100869D01*
X81623068Y-60100911D01*
X81616017Y-60103609D01*
X81578708Y-60118184D01*
X81578618Y-60118230D01*
X81571889Y-60120891D01*
X81532132Y-60136934D01*
X81532043Y-60136980D01*
X81525136Y-60139804D01*
X81486262Y-60156011D01*
X81486155Y-60156069D01*
X81479752Y-60158766D01*
X81444363Y-60173967D01*
X81444257Y-60174025D01*
X81437818Y-60176821D01*
X81399369Y-60193831D01*
X81399268Y-60193888D01*
X81392750Y-60196803D01*
X81356465Y-60213335D01*
X81356365Y-60213393D01*
X81349834Y-60216401D01*
X81311191Y-60234527D01*
X81311103Y-60234579D01*
X81304372Y-60237773D01*
X81265968Y-60256327D01*
X81265897Y-60256370D01*
X81259004Y-60259741D01*
X81218309Y-60279994D01*
X81218229Y-60280044D01*
X81211355Y-60283507D01*
X81173458Y-60302929D01*
X81173378Y-60302981D01*
X81166787Y-60306396D01*
X81129141Y-60326233D01*
X81129039Y-60326300D01*
X81122752Y-60329645D01*
X81087845Y-60348532D01*
X81087743Y-60348601D01*
X81081723Y-60351887D01*
X81047036Y-60371132D01*
X81046939Y-60371199D01*
X81040910Y-60374573D01*
X81006453Y-60394173D01*
X81006344Y-60394250D01*
X81000673Y-60397499D01*
X80968878Y-60416013D01*
X80968799Y-60416070D01*
X80962395Y-60419838D01*
X80921119Y-60444506D01*
X80921040Y-60444564D01*
X80914613Y-60448446D01*
X80881478Y-60468771D01*
X80881375Y-60468849D01*
X80875754Y-60472322D01*
X80844041Y-60492223D01*
X80843947Y-60492296D01*
X80838113Y-60495987D01*
X80802469Y-60518887D01*
X80802371Y-60518964D01*
X80796677Y-60522651D01*
X80766007Y-60542812D01*
X80765903Y-60542896D01*
X80760391Y-60546545D01*
X80727599Y-60568584D01*
X80727506Y-60568660D01*
X80721721Y-60572581D01*
X80686855Y-60596563D01*
X80686777Y-60596629D01*
X80680688Y-60600857D01*
X80645536Y-60625630D01*
X80645459Y-60625696D01*
X80639483Y-60629947D01*
X80605767Y-60654281D01*
X80605669Y-60654367D01*
X80600260Y-60658299D01*
X80570775Y-60680046D01*
X80570678Y-60680134D01*
X80565429Y-60684031D01*
X80533924Y-60707762D01*
X80533826Y-60707852D01*
X80528554Y-60711851D01*
X80498975Y-60734610D01*
X80498874Y-60734704D01*
X80493887Y-60738564D01*
X80465093Y-60761171D01*
X80464993Y-60761266D01*
X80460091Y-60765137D01*
X80432072Y-60787576D01*
X80431972Y-60787674D01*
X80427095Y-60791602D01*
X80398209Y-60815198D01*
X80398110Y-60815297D01*
X80393315Y-60819235D01*
X80365744Y-60842203D01*
X80365674Y-60842274D01*
X80359897Y-60847132D01*
X80320823Y-60880457D01*
X80320755Y-60880527D01*
X80315039Y-60885448D01*
X80288017Y-60909040D01*
X80287921Y-60909142D01*
X80283084Y-60913390D01*
X80253675Y-60939587D01*
X80253605Y-60939663D01*
X80248162Y-60944554D01*
X80214374Y-60975340D01*
X80214310Y-60975411D01*
X80208703Y-60980569D01*
X80177853Y-61009344D01*
X80177768Y-61009441D01*
X80172898Y-61014014D01*
X80146929Y-61038743D01*
X80146834Y-61038853D01*
X80142380Y-61043117D01*
X80116145Y-61068581D01*
X80116065Y-61068676D01*
X80111214Y-61073419D01*
X80081253Y-61103115D01*
X80081189Y-61103192D01*
X80075902Y-61108480D01*
X80044309Y-61140522D01*
X80044240Y-61140607D01*
X80039114Y-61145851D01*
X80011299Y-61174705D01*
X80011214Y-61174813D01*
X80006748Y-61179474D01*
X79982119Y-61205538D01*
X79982036Y-61205646D01*
X79977597Y-61210372D01*
X79950841Y-61239263D01*
X79950757Y-61239373D01*
X79946350Y-61244162D01*
X79921774Y-61271241D01*
X79921740Y-61271287D01*
X79916213Y-61277447D01*
X79877139Y-61321608D01*
X79877134Y-61321613D01*
X79871075Y-61328557D01*
X79841710Y-61362682D01*
X79841671Y-61362737D01*
X79836421Y-61368907D01*
X79805214Y-61406095D01*
X79805157Y-61406179D01*
X79800472Y-61411810D01*
X79777714Y-61439558D01*
X79777639Y-61439671D01*
X79773565Y-61444668D01*
X79748434Y-61475941D01*
X79748362Y-61476052D01*
X79744280Y-61481164D01*
X79722073Y-61509376D01*
X79721994Y-61509500D01*
X79718164Y-61514393D01*
X79695796Y-61543381D01*
X79695730Y-61543487D01*
X79691728Y-61548708D01*
X79667950Y-61580179D01*
X79667885Y-61580285D01*
X79663824Y-61585699D01*
X79639952Y-61617991D01*
X79639889Y-61618097D01*
X79635989Y-61623408D01*
X79614919Y-61652525D01*
X79614852Y-61652640D01*
X79611214Y-61657696D01*
X79590011Y-61687598D01*
X79589941Y-61687720D01*
X79586319Y-61692859D01*
X79565402Y-61722975D01*
X79565338Y-61723090D01*
X79561610Y-61728494D01*
X79539405Y-61761167D01*
X79539338Y-61761290D01*
X79535688Y-61766697D01*
X79515369Y-61797254D01*
X79515306Y-61797372D01*
X79511808Y-61802665D01*
X79491399Y-61834022D01*
X79491340Y-61834136D01*
X79487794Y-61839622D01*
X79467314Y-61871792D01*
X79467256Y-61871907D01*
X79463759Y-61877439D01*
X79443969Y-61909229D01*
X79443906Y-61909357D01*
X79440562Y-61914763D01*
X79421447Y-61946155D01*
X79421388Y-61946278D01*
X79418117Y-61951684D01*
X79399299Y-61983279D01*
X79399241Y-61983402D01*
X79395985Y-61988906D01*
X79377471Y-62020702D01*
X79377420Y-62020813D01*
X79374015Y-62026710D01*
X79353029Y-62063639D01*
X79352983Y-62063743D01*
X79349603Y-62069741D01*
X79331744Y-62101957D01*
X79331691Y-62102079D01*
X79328504Y-62107873D01*
X79309617Y-62142780D01*
X79309599Y-62142823D01*
X79305622Y-62150279D01*
X79279363Y-62200341D01*
X79279360Y-62200345D01*
X79279329Y-62200406D01*
X79279264Y-62200529D01*
X79279260Y-62200538D01*
X79275134Y-62208534D01*
X79254580Y-62249054D01*
X79254548Y-62249136D01*
X79251083Y-62256051D01*
X79232251Y-62294293D01*
X79232212Y-62294396D01*
X79229068Y-62300848D01*
X79211566Y-62337402D01*
X79211526Y-62337513D01*
X79208534Y-62343822D01*
X79192014Y-62379301D01*
X79191973Y-62379418D01*
X79189090Y-62385670D01*
X79172347Y-62422648D01*
X79172311Y-62422753D01*
X79169450Y-62429137D01*
X79153667Y-62465018D01*
X79153628Y-62465136D01*
X79150901Y-62471397D01*
X79135203Y-62508131D01*
X79135170Y-62508234D01*
X79132352Y-62514906D01*
X79115957Y-62554483D01*
X79115924Y-62554592D01*
X79113191Y-62561268D01*
X79098286Y-62598410D01*
X79098252Y-62598527D01*
X79095693Y-62604973D01*
X79081172Y-62642307D01*
X79081147Y-62642395D01*
X79078425Y-62649493D01*
X79062311Y-62692400D01*
X79062290Y-62692477D01*
X79059603Y-62699740D01*
X79044957Y-62740186D01*
X79044930Y-62740291D01*
X79042476Y-62747159D01*
X79029215Y-62785104D01*
X79029187Y-62785219D01*
X79026894Y-62791864D01*
X79014031Y-62829991D01*
X79014005Y-62830105D01*
X79011788Y-62836760D01*
X78999323Y-62875069D01*
X78999301Y-62875168D01*
X78997071Y-62882125D01*
X78984161Y-62923369D01*
X78984141Y-62923466D01*
X78981982Y-62930468D01*
X78970352Y-62969145D01*
X78970330Y-62969255D01*
X78968322Y-62976030D01*
X78957099Y-63014881D01*
X78957082Y-63014971D01*
X78955011Y-63022269D01*
X78942685Y-63066877D01*
X78942671Y-63066959D01*
X78940600Y-63074605D01*
X78929535Y-63116628D01*
X78929521Y-63116714D01*
X78927561Y-63124312D01*
X78916281Y-63169343D01*
X78916269Y-63169423D01*
X78914388Y-63177101D01*
X78904308Y-63219511D01*
X78904295Y-63219603D01*
X78902566Y-63227037D01*
X78892968Y-63269630D01*
X78892958Y-63269713D01*
X78891291Y-63277284D01*
X78882032Y-63320774D01*
X78882022Y-63320863D01*
X78880467Y-63328341D01*
X78871990Y-63370580D01*
X78871981Y-63370668D01*
X78870519Y-63378139D01*
X78862386Y-63421265D01*
X78862378Y-63421357D01*
X78860989Y-63428921D01*
X78853351Y-63472222D01*
X78853345Y-63472293D01*
X78852001Y-63480157D01*
X78844403Y-63526529D01*
X78844398Y-63526605D01*
X78843151Y-63534471D01*
X78836545Y-63578114D01*
X78836541Y-63578197D01*
X78835398Y-63586013D01*
X78829003Y-63632015D01*
X78829000Y-63632086D01*
X78827932Y-63640083D01*
X78822185Y-63685526D01*
X78822183Y-63685595D01*
X78821207Y-63693669D01*
X78815846Y-63740753D01*
X78815845Y-63740798D01*
X78814928Y-63749313D01*
X78809873Y-63799529D01*
X78809873Y-63799571D01*
X78809075Y-63808005D01*
X78804982Y-63854701D01*
X78804983Y-63854755D01*
X78804308Y-63862982D01*
X78800739Y-63910582D01*
X78800740Y-63910642D01*
X78800169Y-63918901D01*
X78797194Y-63966665D01*
X78797195Y-63966698D01*
X78796713Y-63975280D01*
X78794209Y-64026204D01*
X78794220Y-64026438D01*
X78794186Y-64026672D01*
X78793805Y-64035879D01*
X78791732Y-64096013D01*
X78791746Y-64096241D01*
X78791716Y-64096471D01*
X78791469Y-64105683D01*
X78790453Y-64156982D01*
X78790456Y-64157018D01*
X78790338Y-64165770D01*
X78790014Y-64215719D01*
X78790029Y-64215878D01*
X78790001Y-64221065D01*
X74948043Y-64221065D01*
X74948043Y-49754042D01*
X89565000Y-49754042D01*
X89565000Y-50085958D01*
X89629754Y-50411496D01*
X89756772Y-50718147D01*
X89941175Y-50994125D01*
X90175875Y-51228825D01*
X90451853Y-51413228D01*
X90758504Y-51540246D01*
X91084042Y-51605000D01*
X91415958Y-51605000D01*
X91741496Y-51540246D01*
X92048147Y-51413228D01*
X92324125Y-51228825D01*
X92558825Y-50994125D01*
X92743228Y-50718147D01*
X92870246Y-50411496D01*
X92935000Y-50085958D01*
X92935000Y-49754042D01*
X92870246Y-49428504D01*
X92743228Y-49121853D01*
X92558825Y-48845875D01*
X92324125Y-48611175D01*
X92048147Y-48426772D01*
X91741496Y-48299754D01*
X91415958Y-48235000D01*
X91084042Y-48235000D01*
X90758504Y-48299754D01*
X90451853Y-48426772D01*
X90175875Y-48611175D01*
X89941175Y-48845875D01*
X89756772Y-49121853D01*
X89629754Y-49428504D01*
X89565000Y-49754042D01*
X74948043Y-49754042D01*
X74948043Y-32004042D01*
X76605000Y-32004042D01*
X76605000Y-32335958D01*
X76669754Y-32661496D01*
X76796772Y-32968147D01*
X76981175Y-33244125D01*
X77215875Y-33478825D01*
X77491853Y-33663228D01*
X77798504Y-33790246D01*
X78124042Y-33855000D01*
X78455958Y-33855000D01*
X78781496Y-33790246D01*
X79088147Y-33663228D01*
X79364125Y-33478825D01*
X79598825Y-33244125D01*
X79783228Y-32968147D01*
X79910246Y-32661496D01*
X79975000Y-32335958D01*
X79975000Y-32004042D01*
X162655000Y-32004042D01*
X162655000Y-32335958D01*
X162719754Y-32661496D01*
X162846772Y-32968147D01*
X163031175Y-33244125D01*
X163265875Y-33478825D01*
X163541853Y-33663228D01*
X163848504Y-33790246D01*
X164174042Y-33855000D01*
X164505958Y-33855000D01*
X164831496Y-33790246D01*
X165138147Y-33663228D01*
X165414125Y-33478825D01*
X165648825Y-33244125D01*
X165833228Y-32968147D01*
X165960246Y-32661496D01*
X166025000Y-32335958D01*
X166025000Y-32004042D01*
X165960246Y-31678504D01*
X165833228Y-31371853D01*
X165648825Y-31095875D01*
X165414125Y-30861175D01*
X165138147Y-30676772D01*
X164831496Y-30549754D01*
X164505958Y-30485000D01*
X164174042Y-30485000D01*
X163848504Y-30549754D01*
X163541853Y-30676772D01*
X163265875Y-30861175D01*
X163031175Y-31095875D01*
X162846772Y-31371853D01*
X162719754Y-31678504D01*
X162655000Y-32004042D01*
X79975000Y-32004042D01*
X79910246Y-31678504D01*
X79783228Y-31371853D01*
X79598825Y-31095875D01*
X79364125Y-30861175D01*
X79088147Y-30676772D01*
X78781496Y-30549754D01*
X78455958Y-30485000D01*
X78124042Y-30485000D01*
X77798504Y-30549754D01*
X77491853Y-30676772D01*
X77215875Y-30861175D01*
X76981175Y-31095875D01*
X76796772Y-31371853D01*
X76669754Y-31678504D01*
X76605000Y-32004042D01*
X74948043Y-32004042D01*
X74948043Y-28830711D01*
X167680856Y-28830711D01*
X167680856Y-154510711D01*
M02*
