G04 #@! TF.GenerationSoftware,KiCad,Pcbnew,(5.1.5-0-10_14)*
G04 #@! TF.CreationDate,2020-05-14T05:15:00+09:00*
G04 #@! TF.ProjectId,N-top-v02,4e2d746f-702d-4763-9032-2e6b69636164,rev?*
G04 #@! TF.SameCoordinates,Original*
G04 #@! TF.FileFunction,Soldermask,Bot*
G04 #@! TF.FilePolarity,Negative*
%FSLAX46Y46*%
G04 Gerber Fmt 4.6, Leading zero omitted, Abs format (unit mm)*
G04 Created by KiCad (PCBNEW (5.1.5-0-10_14)) date 2020-05-14 05:15:00*
%MOMM*%
%LPD*%
G04 APERTURE LIST*
%ADD10C,0.100000*%
G04 APERTURE END LIST*
D10*
G36*
X78504794Y-150120155D02*
G01*
X78611150Y-150141311D01*
X78811520Y-150224307D01*
X78991844Y-150344795D01*
X79145205Y-150498156D01*
X79265693Y-150678480D01*
X79265693Y-150678481D01*
X79336263Y-150848850D01*
X79348689Y-150878851D01*
X79385033Y-151061560D01*
X79391000Y-151091561D01*
X79391000Y-151308439D01*
X79354657Y-151491149D01*
X79348689Y-151521149D01*
X79265693Y-151721520D01*
X79145205Y-151901844D01*
X78991844Y-152055205D01*
X78811520Y-152175693D01*
X78711334Y-152217191D01*
X78611150Y-152258689D01*
X78504794Y-152279845D01*
X78398440Y-152301000D01*
X78181560Y-152301000D01*
X78075206Y-152279845D01*
X77968850Y-152258689D01*
X77868666Y-152217191D01*
X77768480Y-152175693D01*
X77588156Y-152055205D01*
X77434795Y-151901844D01*
X77314307Y-151721520D01*
X77231311Y-151521149D01*
X77225344Y-151491149D01*
X77189000Y-151308439D01*
X77189000Y-151091561D01*
X77194968Y-151061560D01*
X77231311Y-150878851D01*
X77243738Y-150848850D01*
X77314307Y-150678481D01*
X77314307Y-150678480D01*
X77434795Y-150498156D01*
X77588156Y-150344795D01*
X77768480Y-150224307D01*
X77968850Y-150141311D01*
X78075206Y-150120155D01*
X78181560Y-150099000D01*
X78398440Y-150099000D01*
X78504794Y-150120155D01*
G37*
G36*
X164554794Y-150090155D02*
G01*
X164661150Y-150111311D01*
X164733576Y-150141311D01*
X164861520Y-150194307D01*
X165041844Y-150314795D01*
X165195205Y-150468156D01*
X165315693Y-150648480D01*
X165398689Y-150848850D01*
X165419845Y-150955206D01*
X165441000Y-151061560D01*
X165441000Y-151278440D01*
X165419844Y-151384795D01*
X165398689Y-151491150D01*
X165315693Y-151691520D01*
X165195205Y-151871844D01*
X165041844Y-152025205D01*
X164861520Y-152145693D01*
X164789093Y-152175693D01*
X164661150Y-152228689D01*
X164554795Y-152249844D01*
X164448440Y-152271000D01*
X164231560Y-152271000D01*
X164125205Y-152249844D01*
X164018850Y-152228689D01*
X163890907Y-152175693D01*
X163818480Y-152145693D01*
X163638156Y-152025205D01*
X163484795Y-151871844D01*
X163364307Y-151691520D01*
X163281311Y-151491150D01*
X163260155Y-151384794D01*
X163239000Y-151278440D01*
X163239000Y-151061560D01*
X163260155Y-150955206D01*
X163281311Y-150848850D01*
X163364307Y-150648480D01*
X163484795Y-150468156D01*
X163638156Y-150314795D01*
X163818480Y-150194307D01*
X163946424Y-150141311D01*
X164018850Y-150111311D01*
X164125206Y-150090155D01*
X164231560Y-150069000D01*
X164448440Y-150069000D01*
X164554794Y-150090155D01*
G37*
G36*
X86944795Y-145810156D02*
G01*
X87051150Y-145831311D01*
X87251520Y-145914307D01*
X87431844Y-146034795D01*
X87585205Y-146188156D01*
X87705693Y-146368480D01*
X87788689Y-146568851D01*
X87831000Y-146781560D01*
X87831000Y-146998440D01*
X87788689Y-147211149D01*
X87705693Y-147411520D01*
X87585205Y-147591844D01*
X87431844Y-147745205D01*
X87251520Y-147865693D01*
X87151334Y-147907191D01*
X87051150Y-147948689D01*
X86944795Y-147969844D01*
X86838440Y-147991000D01*
X86621560Y-147991000D01*
X86515205Y-147969844D01*
X86408850Y-147948689D01*
X86308666Y-147907191D01*
X86208480Y-147865693D01*
X86028156Y-147745205D01*
X85874795Y-147591844D01*
X85754307Y-147411520D01*
X85671311Y-147211149D01*
X85629000Y-146998440D01*
X85629000Y-146781560D01*
X85671311Y-146568851D01*
X85754307Y-146368480D01*
X85874795Y-146188156D01*
X86028156Y-146034795D01*
X86208480Y-145914307D01*
X86408850Y-145831311D01*
X86515205Y-145810156D01*
X86621560Y-145789000D01*
X86838440Y-145789000D01*
X86944795Y-145810156D01*
G37*
G36*
X162214795Y-136710156D02*
G01*
X162321150Y-136731311D01*
X162521520Y-136814307D01*
X162701844Y-136934795D01*
X162855205Y-137088156D01*
X162975693Y-137268480D01*
X163058689Y-137468851D01*
X163101000Y-137681560D01*
X163101000Y-137898440D01*
X163058689Y-138111149D01*
X162975693Y-138311520D01*
X162855205Y-138491844D01*
X162701844Y-138645205D01*
X162521520Y-138765693D01*
X162421334Y-138807191D01*
X162321150Y-138848689D01*
X162214794Y-138869845D01*
X162108440Y-138891000D01*
X161891560Y-138891000D01*
X161785206Y-138869845D01*
X161678850Y-138848689D01*
X161578666Y-138807191D01*
X161478480Y-138765693D01*
X161298156Y-138645205D01*
X161144795Y-138491844D01*
X161024307Y-138311520D01*
X160941311Y-138111149D01*
X160899000Y-137898440D01*
X160899000Y-137681560D01*
X160941311Y-137468851D01*
X161024307Y-137268480D01*
X161144795Y-137088156D01*
X161298156Y-136934795D01*
X161478480Y-136814307D01*
X161678850Y-136731311D01*
X161785205Y-136710156D01*
X161891560Y-136689000D01*
X162108440Y-136689000D01*
X162214795Y-136710156D01*
G37*
G36*
X78504794Y-109350155D02*
G01*
X78611150Y-109371311D01*
X78711334Y-109412809D01*
X78811520Y-109454307D01*
X78991844Y-109574795D01*
X79145205Y-109728156D01*
X79265693Y-109908480D01*
X79348689Y-110108851D01*
X79391000Y-110321560D01*
X79391000Y-110538440D01*
X79348689Y-110751149D01*
X79265693Y-110951520D01*
X79145205Y-111131844D01*
X78991844Y-111285205D01*
X78811520Y-111405693D01*
X78711334Y-111447191D01*
X78611150Y-111488689D01*
X78504795Y-111509844D01*
X78398440Y-111531000D01*
X78181560Y-111531000D01*
X78075205Y-111509844D01*
X77968850Y-111488689D01*
X77868666Y-111447191D01*
X77768480Y-111405693D01*
X77588156Y-111285205D01*
X77434795Y-111131844D01*
X77314307Y-110951520D01*
X77231311Y-110751149D01*
X77189000Y-110538440D01*
X77189000Y-110321560D01*
X77231311Y-110108851D01*
X77314307Y-109908480D01*
X77434795Y-109728156D01*
X77588156Y-109574795D01*
X77768480Y-109454307D01*
X77868666Y-109412809D01*
X77968850Y-109371311D01*
X78075206Y-109350155D01*
X78181560Y-109329000D01*
X78398440Y-109329000D01*
X78504794Y-109350155D01*
G37*
G36*
X164554795Y-60090156D02*
G01*
X164661150Y-60111311D01*
X164761334Y-60152809D01*
X164861520Y-60194307D01*
X165041844Y-60314795D01*
X165195205Y-60468156D01*
X165315693Y-60648480D01*
X165398689Y-60848851D01*
X165441000Y-61061560D01*
X165441000Y-61278440D01*
X165398689Y-61491149D01*
X165315693Y-61691520D01*
X165195205Y-61871844D01*
X165041844Y-62025205D01*
X164861520Y-62145693D01*
X164661150Y-62228689D01*
X164554794Y-62249845D01*
X164448440Y-62271000D01*
X164231560Y-62271000D01*
X164125206Y-62249845D01*
X164018850Y-62228689D01*
X163818480Y-62145693D01*
X163638156Y-62025205D01*
X163484795Y-61871844D01*
X163364307Y-61691520D01*
X163281311Y-61491149D01*
X163239000Y-61278440D01*
X163239000Y-61061560D01*
X163281311Y-60848851D01*
X163364307Y-60648480D01*
X163484795Y-60468156D01*
X163638156Y-60314795D01*
X163818480Y-60194307D01*
X163918666Y-60152809D01*
X164018850Y-60111311D01*
X164125205Y-60090156D01*
X164231560Y-60069000D01*
X164448440Y-60069000D01*
X164554795Y-60090156D01*
G37*
G36*
X91464794Y-48840155D02*
G01*
X91571150Y-48861311D01*
X91671334Y-48902809D01*
X91771520Y-48944307D01*
X91951844Y-49064795D01*
X92105205Y-49218156D01*
X92225693Y-49398480D01*
X92308689Y-49598851D01*
X92351000Y-49811560D01*
X92351000Y-50028440D01*
X92308689Y-50241149D01*
X92225693Y-50441520D01*
X92105205Y-50621844D01*
X91951844Y-50775205D01*
X91771520Y-50895693D01*
X91571150Y-50978689D01*
X91464794Y-50999845D01*
X91358440Y-51021000D01*
X91141560Y-51021000D01*
X91035205Y-50999844D01*
X90928850Y-50978689D01*
X90728480Y-50895693D01*
X90548156Y-50775205D01*
X90394795Y-50621844D01*
X90274307Y-50441520D01*
X90191311Y-50241149D01*
X90149000Y-50028440D01*
X90149000Y-49811560D01*
X90191311Y-49598851D01*
X90274307Y-49398480D01*
X90394795Y-49218156D01*
X90548156Y-49064795D01*
X90728480Y-48944307D01*
X90828666Y-48902809D01*
X90928850Y-48861311D01*
X91035205Y-48840156D01*
X91141560Y-48819000D01*
X91358440Y-48819000D01*
X91464794Y-48840155D01*
G37*
G36*
X149694794Y-41020155D02*
G01*
X149801150Y-41041311D01*
X149901334Y-41082809D01*
X150001520Y-41124307D01*
X150181844Y-41244795D01*
X150335205Y-41398156D01*
X150455693Y-41578480D01*
X150538689Y-41778851D01*
X150581000Y-41991560D01*
X150581000Y-42208440D01*
X150538689Y-42421149D01*
X150455693Y-42621520D01*
X150335205Y-42801844D01*
X150181844Y-42955205D01*
X150001520Y-43075693D01*
X149801150Y-43158689D01*
X149694795Y-43179844D01*
X149588440Y-43201000D01*
X149371560Y-43201000D01*
X149265205Y-43179844D01*
X149158850Y-43158689D01*
X148958480Y-43075693D01*
X148778156Y-42955205D01*
X148624795Y-42801844D01*
X148504307Y-42621520D01*
X148421311Y-42421149D01*
X148379000Y-42208440D01*
X148379000Y-41991560D01*
X148421311Y-41778851D01*
X148504307Y-41578480D01*
X148624795Y-41398156D01*
X148778156Y-41244795D01*
X148958480Y-41124307D01*
X149058666Y-41082809D01*
X149158850Y-41041311D01*
X149265205Y-41020156D01*
X149371560Y-40999000D01*
X149588440Y-40999000D01*
X149694794Y-41020155D01*
G37*
G36*
X164554794Y-31090155D02*
G01*
X164661150Y-31111311D01*
X164761334Y-31152809D01*
X164861520Y-31194307D01*
X165041844Y-31314795D01*
X165195205Y-31468156D01*
X165315693Y-31648480D01*
X165398689Y-31848851D01*
X165441000Y-32061560D01*
X165441000Y-32278440D01*
X165398689Y-32491149D01*
X165315693Y-32691520D01*
X165195205Y-32871844D01*
X165041844Y-33025205D01*
X164861520Y-33145693D01*
X164661150Y-33228689D01*
X164554795Y-33249844D01*
X164448440Y-33271000D01*
X164231560Y-33271000D01*
X164125205Y-33249844D01*
X164018850Y-33228689D01*
X163818480Y-33145693D01*
X163638156Y-33025205D01*
X163484795Y-32871844D01*
X163364307Y-32691520D01*
X163281311Y-32491149D01*
X163239000Y-32278440D01*
X163239000Y-32061560D01*
X163281311Y-31848851D01*
X163364307Y-31648480D01*
X163484795Y-31468156D01*
X163638156Y-31314795D01*
X163818480Y-31194307D01*
X163918666Y-31152809D01*
X164018850Y-31111311D01*
X164125206Y-31090155D01*
X164231560Y-31069000D01*
X164448440Y-31069000D01*
X164554794Y-31090155D01*
G37*
G36*
X78504794Y-31090155D02*
G01*
X78611150Y-31111311D01*
X78711334Y-31152809D01*
X78811520Y-31194307D01*
X78991844Y-31314795D01*
X79145205Y-31468156D01*
X79265693Y-31648480D01*
X79348689Y-31848851D01*
X79391000Y-32061560D01*
X79391000Y-32278440D01*
X79348689Y-32491149D01*
X79265693Y-32691520D01*
X79145205Y-32871844D01*
X78991844Y-33025205D01*
X78811520Y-33145693D01*
X78611150Y-33228689D01*
X78504795Y-33249844D01*
X78398440Y-33271000D01*
X78181560Y-33271000D01*
X78075205Y-33249844D01*
X77968850Y-33228689D01*
X77768480Y-33145693D01*
X77588156Y-33025205D01*
X77434795Y-32871844D01*
X77314307Y-32691520D01*
X77231311Y-32491149D01*
X77189000Y-32278440D01*
X77189000Y-32061560D01*
X77231311Y-31848851D01*
X77314307Y-31648480D01*
X77434795Y-31468156D01*
X77588156Y-31314795D01*
X77768480Y-31194307D01*
X77868666Y-31152809D01*
X77968850Y-31111311D01*
X78075206Y-31090155D01*
X78181560Y-31069000D01*
X78398440Y-31069000D01*
X78504794Y-31090155D01*
G37*
M02*
