%FSLAX45Y45*%
G04 Gerber Fmt 4.5, Leading zero omitted, Abs format (unit mm)*
G04 Created by KiCad (PCBNEW (5.1.5-0-10_14)) date 2020-05-14 05:15:04*
%MOMM*%
%LPD*%
G04 APERTURE LIST*
%TA.AperFunction,Profile*%
%ADD10C,0.050000*%
%TD*%
%ADD11C,0.200000*%
%ADD12C,0.300000*%
G04 APERTURE END LIST*
D10*
X16534112Y-3217053D02*
X16533991Y-3222004D01*
X16533991Y-3222004D02*
X16533649Y-3226735D01*
X16533649Y-3226735D02*
X16533111Y-3231246D01*
X16533111Y-3231246D02*
X16532391Y-3235616D01*
X16532391Y-3235616D02*
X16531519Y-3239769D01*
X16531519Y-3239769D02*
X16530498Y-3243783D01*
X16530498Y-3243783D02*
X16529306Y-3247766D01*
X16529306Y-3247766D02*
X16528007Y-3251534D01*
X16528007Y-3251534D02*
X16526564Y-3255232D01*
X16526564Y-3255232D02*
X16525029Y-3258753D01*
X16525029Y-3258753D02*
X16523380Y-3262169D01*
X16523380Y-3262169D02*
X16521480Y-3265742D01*
X16521480Y-3265742D02*
X16519637Y-3268905D01*
X16519637Y-3268905D02*
X16517663Y-3272025D01*
X16517663Y-3272025D02*
X16515622Y-3275004D01*
X16515622Y-3275004D02*
X16513444Y-3277948D01*
X16513444Y-3277948D02*
X16511210Y-3280751D01*
X16511210Y-3280751D02*
X16508880Y-3283471D01*
X16508880Y-3283471D02*
X16506430Y-3286132D01*
X16506430Y-3286132D02*
X16503900Y-3288690D01*
X16503900Y-3288690D02*
X16501321Y-3291117D01*
X16501321Y-3291117D02*
X16498573Y-3293526D01*
X16498573Y-3293526D02*
X16495782Y-3295799D01*
X16495782Y-3295799D02*
X16492910Y-3297973D01*
X16492910Y-3297973D02*
X16489959Y-3300044D01*
X16489959Y-3300044D02*
X16486675Y-3302168D01*
X16486675Y-3302168D02*
X16483470Y-3304073D01*
X16483470Y-3304073D02*
X16479704Y-3306111D01*
X16479704Y-3306111D02*
X16476324Y-3307767D01*
X16476324Y-3307767D02*
X16472823Y-3309320D01*
X16472823Y-3309320D02*
X16469164Y-3310774D01*
X16469164Y-3310774D02*
X16465437Y-3312086D01*
X16465437Y-3312086D02*
X16461515Y-3313290D01*
X16461515Y-3313290D02*
X16457453Y-3314352D01*
X16457453Y-3314352D02*
X16453327Y-3315245D01*
X16453327Y-3315245D02*
X16448637Y-3316039D01*
X16448637Y-3316039D02*
X16443896Y-3316610D01*
X16443896Y-3316610D02*
X16439171Y-3316952D01*
X16439171Y-3316952D02*
X16434290Y-3317070D01*
X9251085Y-7172773D02*
X9248808Y-7175533D01*
X9248808Y-7175533D02*
X9245974Y-7177720D01*
X9245974Y-7177720D02*
X9242530Y-7179285D01*
X9242530Y-7179285D02*
X9240917Y-7179707D01*
X16434290Y-6017073D02*
X16439171Y-6017191D01*
X16439171Y-6017191D02*
X16443877Y-6017531D01*
X16443877Y-6017531D02*
X16448617Y-6018101D01*
X16448617Y-6018101D02*
X16452907Y-6018819D01*
X16452907Y-6018819D02*
X16457152Y-6019723D01*
X16457152Y-6019723D02*
X16461183Y-6020763D01*
X16461183Y-6020763D02*
X16465146Y-6021967D01*
X16465146Y-6021967D02*
X16468896Y-6023276D01*
X16468896Y-6023276D02*
X16472683Y-6024772D01*
X16472683Y-6024772D02*
X16476324Y-6026385D01*
X16476324Y-6026385D02*
X16479721Y-6028052D01*
X16479721Y-6028052D02*
X16483044Y-6029841D01*
X16483044Y-6029841D02*
X16486259Y-6031732D01*
X16486259Y-6031732D02*
X16489334Y-6033696D01*
X16489334Y-6033696D02*
X16492332Y-6035769D01*
X16492332Y-6035769D02*
X16495309Y-6037992D01*
X16495309Y-6037992D02*
X16498114Y-6040250D01*
X16498114Y-6040250D02*
X16500835Y-6042606D01*
X16500835Y-6042606D02*
X16503792Y-6045369D01*
X16503792Y-6045369D02*
X16506326Y-6047924D01*
X16506326Y-6047924D02*
X16508768Y-6050567D01*
X16508768Y-6050567D02*
X16511115Y-6053298D01*
X16511115Y-6053298D02*
X16513341Y-6056082D01*
X16513341Y-6056082D02*
X16515513Y-6059008D01*
X16515513Y-6059008D02*
X16517559Y-6061982D01*
X16517559Y-6061982D02*
X16519578Y-6065161D01*
X16519578Y-6065161D02*
X16521424Y-6068321D01*
X16521424Y-6068321D02*
X16523191Y-6071620D01*
X16523191Y-6071620D02*
X16524853Y-6075026D01*
X16524853Y-6075026D02*
X16526433Y-6078608D01*
X16526433Y-6078608D02*
X16527901Y-6082333D01*
X16527901Y-6082333D02*
X16529211Y-6086092D01*
X16529211Y-6086092D02*
X16530384Y-6089955D01*
X16530384Y-6089955D02*
X16531422Y-6093958D01*
X16531422Y-6093958D02*
X16532326Y-6098176D01*
X16532326Y-6098176D02*
X16533061Y-6102536D01*
X16533061Y-6102536D02*
X16533618Y-6107075D01*
X16533618Y-6107075D02*
X16533977Y-6111834D01*
X16533977Y-6111834D02*
X16534111Y-6116813D01*
X16534111Y-6116813D02*
X16534112Y-6117056D01*
X16334044Y-6117056D02*
X16334161Y-6112173D01*
X16334161Y-6112173D02*
X16334507Y-6107390D01*
X16334507Y-6107390D02*
X16335044Y-6102885D01*
X16335044Y-6102885D02*
X16335765Y-6098521D01*
X16335765Y-6098521D02*
X16336654Y-6094297D01*
X16336654Y-6094297D02*
X16337689Y-6090252D01*
X16337689Y-6090252D02*
X16338852Y-6086384D01*
X16338852Y-6086384D02*
X16340146Y-6082638D01*
X16340146Y-6082638D02*
X16341553Y-6079030D01*
X16341553Y-6079030D02*
X16343071Y-6075543D01*
X16343071Y-6075543D02*
X16344700Y-6072160D01*
X16344700Y-6072160D02*
X16346469Y-6068816D01*
X16346469Y-6068816D02*
X16348340Y-6065580D01*
X16348340Y-6065580D02*
X16350285Y-6062485D01*
X16350285Y-6062485D02*
X16352319Y-6059498D01*
X16352319Y-6059498D02*
X16354455Y-6056589D01*
X16354455Y-6056589D02*
X16356765Y-6053674D01*
X16356765Y-6053674D02*
X16359130Y-6050904D01*
X16359130Y-6050904D02*
X16361566Y-6048249D01*
X16361566Y-6048249D02*
X16364096Y-6045684D01*
X16364096Y-6045684D02*
X16366717Y-6043210D01*
X16366717Y-6043210D02*
X16369654Y-6040636D01*
X16369654Y-6040636D02*
X16372573Y-6038269D01*
X16372573Y-6038269D02*
X16375429Y-6036121D01*
X16375429Y-6036121D02*
X16378519Y-6033968D01*
X16378519Y-6033968D02*
X16381596Y-6031989D01*
X16381596Y-6031989D02*
X16384848Y-6030064D01*
X16384848Y-6030064D02*
X16388143Y-6028277D01*
X16388143Y-6028277D02*
X16391597Y-6026571D01*
X16391597Y-6026571D02*
X16395055Y-6025024D01*
X16395055Y-6025024D02*
X16398885Y-6023490D01*
X16398885Y-6023490D02*
X16402644Y-6022159D01*
X16402644Y-6022159D02*
X16406620Y-6020931D01*
X16406620Y-6020931D02*
X16410626Y-6019876D01*
X16410626Y-6019876D02*
X16414888Y-6018945D01*
X16414888Y-6018945D02*
X16419157Y-6018205D01*
X16419157Y-6018205D02*
X16423644Y-6017630D01*
X16423644Y-6017630D02*
X16428410Y-6017242D01*
X16428410Y-6017242D02*
X16433277Y-6017078D01*
X16433277Y-6017078D02*
X16434290Y-6017073D01*
X8319997Y-6796997D02*
X8315002Y-6796964D01*
X8315002Y-6796964D02*
X8309872Y-6796862D01*
X8309872Y-6796862D02*
X8304759Y-6796692D01*
X8304759Y-6796692D02*
X8299664Y-6796454D01*
X8299664Y-6796454D02*
X8294885Y-6796167D01*
X8294885Y-6796167D02*
X8290121Y-6795822D01*
X8290121Y-6795822D02*
X8285375Y-6795417D01*
X8285375Y-6795417D02*
X8280719Y-6794960D01*
X8280719Y-6794960D02*
X8275932Y-6794430D01*
X8275932Y-6794430D02*
X8271238Y-6793849D01*
X8271238Y-6793849D02*
X8266269Y-6793169D01*
X8266269Y-6793169D02*
X8261612Y-6792470D01*
X8261612Y-6792470D02*
X8257046Y-6791726D01*
X8257046Y-6791726D02*
X8252427Y-6790914D01*
X8252427Y-6790914D02*
X8248042Y-6790088D01*
X8248042Y-6790088D02*
X8243818Y-6789240D01*
X8243818Y-6789240D02*
X8239469Y-6788314D01*
X8239469Y-6788314D02*
X8235210Y-6787354D01*
X8235210Y-6787354D02*
X8230969Y-6786346D01*
X8230969Y-6786346D02*
X8226536Y-6785236D01*
X8226536Y-6785236D02*
X8222543Y-6784187D01*
X8222543Y-6784187D02*
X8218359Y-6783036D01*
X8218359Y-6783036D02*
X8214402Y-6781899D01*
X8214402Y-6781899D02*
X8210532Y-6780741D01*
X8210532Y-6780741D02*
X8206200Y-6779390D01*
X8206200Y-6779390D02*
X8202367Y-6778146D01*
X8202367Y-6778146D02*
X8198554Y-6776863D01*
X8198554Y-6776863D02*
X8194758Y-6775540D01*
X8194758Y-6775540D02*
X8190174Y-6773880D01*
X8190174Y-6773880D02*
X8186486Y-6772495D01*
X8186486Y-6772495D02*
X8182684Y-6771021D01*
X8182684Y-6771021D02*
X8178969Y-6769533D01*
X8178969Y-6769533D02*
X8175075Y-6767924D01*
X8175075Y-6767924D02*
X8171335Y-6766329D01*
X8171335Y-6766329D02*
X8167420Y-6764608D01*
X8167420Y-6764608D02*
X8163787Y-6762963D01*
X8163787Y-6762963D02*
X8160175Y-6761280D01*
X8160175Y-6761280D02*
X8156648Y-6759592D01*
X8156648Y-6759592D02*
X8153269Y-6757931D01*
X8153269Y-6757931D02*
X8149466Y-6756011D01*
X8149466Y-6756011D02*
X8145437Y-6753917D01*
X8145437Y-6753917D02*
X8141935Y-6752047D01*
X8141935Y-6752047D02*
X8138641Y-6750243D01*
X8138641Y-6750243D02*
X8135244Y-6748338D01*
X8135244Y-6748338D02*
X8131869Y-6746398D01*
X8131869Y-6746398D02*
X8128638Y-6744497D01*
X8128638Y-6744497D02*
X8125427Y-6742565D01*
X8125427Y-6742565D02*
X8122117Y-6740527D01*
X8122117Y-6740527D02*
X8119009Y-6738569D01*
X8119009Y-6738569D02*
X8115744Y-6736467D01*
X8115744Y-6736467D02*
X8112619Y-6734410D01*
X8112619Y-6734410D02*
X8109517Y-6732323D01*
X8109517Y-6732323D02*
X8106552Y-6730286D01*
X8106552Y-6730286D02*
X8103550Y-6728181D01*
X8103550Y-6728181D02*
X8100627Y-6726089D01*
X8100627Y-6726089D02*
X8097385Y-6723719D01*
X8097385Y-6723719D02*
X8093776Y-6721017D01*
X8093776Y-6721017D02*
X8090423Y-6718446D01*
X8090423Y-6718446D02*
X8087542Y-6716188D01*
X8087542Y-6716188D02*
X8084683Y-6713902D01*
X8084683Y-6713902D02*
X8081847Y-6711590D01*
X8081847Y-6711590D02*
X8078656Y-6708933D01*
X8078656Y-6708933D02*
X8075656Y-6706380D01*
X8075656Y-6706380D02*
X8072842Y-6703935D01*
X8072842Y-6703935D02*
X8070105Y-6701509D01*
X8070105Y-6701509D02*
X8067184Y-6698868D01*
X8067184Y-6698868D02*
X8064548Y-6696436D01*
X8064548Y-6696436D02*
X8061426Y-6693495D01*
X8061426Y-6693495D02*
X8058842Y-6691009D01*
X8058842Y-6691009D02*
X8056181Y-6688401D01*
X8056181Y-6688401D02*
X8053596Y-6685815D01*
X8053596Y-6685815D02*
X8050840Y-6683003D01*
X8050840Y-6683003D02*
X8047195Y-6679192D01*
X8047195Y-6679192D02*
X8044460Y-6676262D01*
X8044460Y-6676262D02*
X8041804Y-6673355D01*
X8041804Y-6673355D02*
X8039364Y-6670631D01*
X8039364Y-6670631D02*
X8036951Y-6667883D01*
X8036951Y-6667883D02*
X8034564Y-6665111D01*
X8034564Y-6665111D02*
X8032204Y-6662315D01*
X8032204Y-6662315D02*
X8029336Y-6658843D01*
X8029336Y-6658843D02*
X8027036Y-6655997D01*
X8027036Y-6655997D02*
X8024763Y-6653127D01*
X8024763Y-6653127D02*
X8022389Y-6650068D01*
X8022389Y-6650068D02*
X8020130Y-6647096D01*
X8020130Y-6647096D02*
X8017609Y-6643704D01*
X8017609Y-6643704D02*
X8015453Y-6640740D01*
X8015453Y-6640740D02*
X8013326Y-6637755D01*
X8013326Y-6637755D02*
X8011228Y-6634748D01*
X8011228Y-6634748D02*
X8008843Y-6631253D01*
X8008843Y-6631253D02*
X8006767Y-6628141D01*
X8006767Y-6628141D02*
X8004684Y-6624949D01*
X8004684Y-6624949D02*
X8002670Y-6621794D01*
X8002670Y-6621794D02*
X8000613Y-6618497D01*
X8000613Y-6618497D02*
X7998516Y-6615057D01*
X7998516Y-6615057D02*
X7996491Y-6611654D01*
X7996491Y-6611654D02*
X7994536Y-6608289D01*
X7994536Y-6608289D02*
X7992684Y-6605025D01*
X7992684Y-6605025D02*
X7990898Y-6601804D01*
X7990898Y-6601804D02*
X7988876Y-6598063D01*
X7988876Y-6598063D02*
X7987026Y-6594549D01*
X7987026Y-6594549D02*
X7985244Y-6591076D01*
X7985244Y-6591076D02*
X7983560Y-6587709D01*
X7983560Y-6587709D02*
X7981909Y-6584324D01*
X7981909Y-6584324D02*
X7980231Y-6580791D01*
X7980231Y-6580791D02*
X7978559Y-6577173D01*
X7978559Y-6577173D02*
X7976838Y-6573339D01*
X7976838Y-6573339D02*
X7975215Y-6569614D01*
X7975215Y-6569614D02*
X7973659Y-6565933D01*
X7973659Y-6565933D02*
X7972141Y-6562233D01*
X7972141Y-6562233D02*
X7970557Y-6558247D01*
X7970557Y-6558247D02*
X7969018Y-6554238D01*
X7969018Y-6554238D02*
X7967548Y-6550275D01*
X7967548Y-6550275D02*
X7966169Y-6546427D01*
X7966169Y-6546427D02*
X7964855Y-6542627D01*
X7964855Y-6542627D02*
X7963580Y-6538809D01*
X7963580Y-6538809D02*
X7962280Y-6534767D01*
X7962280Y-6534767D02*
X7960899Y-6530291D01*
X7960899Y-6530291D02*
X7959733Y-6526347D01*
X7959733Y-6526347D02*
X7958571Y-6522245D01*
X7958571Y-6522245D02*
X7957436Y-6518054D01*
X7957436Y-6518054D02*
X7956349Y-6513845D01*
X7956349Y-6513845D02*
X7955039Y-6508485D01*
X7955039Y-6508485D02*
X7954076Y-6504304D01*
X7954076Y-6504304D02*
X7953130Y-6499963D01*
X7953130Y-6499963D02*
X7952248Y-6495675D01*
X7952248Y-6495675D02*
X7951428Y-6491441D01*
X7951428Y-6491441D02*
X7950593Y-6486829D01*
X7950593Y-6486829D02*
X7949803Y-6482126D01*
X7949803Y-6482126D02*
X7949126Y-6477767D01*
X7949126Y-6477767D02*
X7948459Y-6473099D01*
X7948459Y-6473099D02*
X7947858Y-6468487D01*
X7947858Y-6468487D02*
X7947330Y-6464004D01*
X7947330Y-6464004D02*
X7946747Y-6458397D01*
X7946747Y-6458397D02*
X7946320Y-6453657D01*
X7946320Y-6453657D02*
X7945951Y-6448900D01*
X7945951Y-6448900D02*
X7945626Y-6443828D01*
X7945626Y-6443828D02*
X7945381Y-6439037D01*
X7945381Y-6439037D02*
X7945177Y-6433630D01*
X7945177Y-6433630D02*
X7945055Y-6428505D01*
X7945055Y-6428505D02*
X7945002Y-6423363D01*
X7945002Y-6423363D02*
X7945000Y-6422000D01*
X16434290Y-3117070D02*
X16439171Y-3117189D01*
X16439171Y-3117189D02*
X16443877Y-3117528D01*
X16443877Y-3117528D02*
X16448617Y-3118099D01*
X16448617Y-3118099D02*
X16452907Y-3118816D01*
X16452907Y-3118816D02*
X16457152Y-3119720D01*
X16457152Y-3119720D02*
X16461183Y-3120761D01*
X16461183Y-3120761D02*
X16465146Y-3121964D01*
X16465146Y-3121964D02*
X16468896Y-3123273D01*
X16468896Y-3123273D02*
X16472683Y-3124770D01*
X16472683Y-3124770D02*
X16476324Y-3126383D01*
X16476324Y-3126383D02*
X16479721Y-3128049D01*
X16479721Y-3128049D02*
X16483044Y-3129838D01*
X16483044Y-3129838D02*
X16486259Y-3131729D01*
X16486259Y-3131729D02*
X16489334Y-3133694D01*
X16489334Y-3133694D02*
X16492332Y-3135766D01*
X16492332Y-3135766D02*
X16495309Y-3137989D01*
X16495309Y-3137989D02*
X16498114Y-3140247D01*
X16498114Y-3140247D02*
X16500835Y-3142603D01*
X16500835Y-3142603D02*
X16503792Y-3145367D01*
X16503792Y-3145367D02*
X16506326Y-3147921D01*
X16506326Y-3147921D02*
X16508768Y-3150565D01*
X16508768Y-3150565D02*
X16511115Y-3153295D01*
X16511115Y-3153295D02*
X16513341Y-3156079D01*
X16513341Y-3156079D02*
X16515513Y-3159005D01*
X16515513Y-3159005D02*
X16517559Y-3161979D01*
X16517559Y-3161979D02*
X16519578Y-3165159D01*
X16519578Y-3165159D02*
X16521424Y-3168318D01*
X16521424Y-3168318D02*
X16523191Y-3171618D01*
X16523191Y-3171618D02*
X16524853Y-3175023D01*
X16524853Y-3175023D02*
X16526433Y-3178605D01*
X16526433Y-3178605D02*
X16527901Y-3182330D01*
X16527901Y-3182330D02*
X16529211Y-3186090D01*
X16529211Y-3186090D02*
X16530384Y-3189953D01*
X16530384Y-3189953D02*
X16531422Y-3193955D01*
X16531422Y-3193955D02*
X16532326Y-3198173D01*
X16532326Y-3198173D02*
X16533061Y-3202533D01*
X16533061Y-3202533D02*
X16533618Y-3207072D01*
X16533618Y-3207072D02*
X16533977Y-3211831D01*
X16533977Y-3211831D02*
X16534111Y-3216811D01*
X16534111Y-3216811D02*
X16534112Y-3217053D01*
X16334044Y-3217053D02*
X16334161Y-3212170D01*
X16334161Y-3212170D02*
X16334507Y-3207387D01*
X16334507Y-3207387D02*
X16335044Y-3202883D01*
X16335044Y-3202883D02*
X16335765Y-3198518D01*
X16335765Y-3198518D02*
X16336654Y-3194295D01*
X16336654Y-3194295D02*
X16337689Y-3190250D01*
X16337689Y-3190250D02*
X16338852Y-3186382D01*
X16338852Y-3186382D02*
X16340146Y-3182635D01*
X16340146Y-3182635D02*
X16341553Y-3179027D01*
X16341553Y-3179027D02*
X16343071Y-3175540D01*
X16343071Y-3175540D02*
X16344700Y-3172157D01*
X16344700Y-3172157D02*
X16346469Y-3168813D01*
X16346469Y-3168813D02*
X16348340Y-3165578D01*
X16348340Y-3165578D02*
X16350285Y-3162482D01*
X16350285Y-3162482D02*
X16352319Y-3159495D01*
X16352319Y-3159495D02*
X16354455Y-3156586D01*
X16354455Y-3156586D02*
X16356765Y-3153671D01*
X16356765Y-3153671D02*
X16359130Y-3150901D01*
X16359130Y-3150901D02*
X16361566Y-3148246D01*
X16361566Y-3148246D02*
X16364096Y-3145681D01*
X16364096Y-3145681D02*
X16366717Y-3143207D01*
X16366717Y-3143207D02*
X16369654Y-3140633D01*
X16369654Y-3140633D02*
X16372573Y-3138266D01*
X16372573Y-3138266D02*
X16375429Y-3136118D01*
X16375429Y-3136118D02*
X16378519Y-3133965D01*
X16378519Y-3133965D02*
X16381596Y-3131986D01*
X16381596Y-3131986D02*
X16384848Y-3130061D01*
X16384848Y-3130061D02*
X16388143Y-3128274D01*
X16388143Y-3128274D02*
X16391597Y-3126568D01*
X16391597Y-3126568D02*
X16395055Y-3125021D01*
X16395055Y-3125021D02*
X16398885Y-3123487D01*
X16398885Y-3123487D02*
X16402644Y-3122156D01*
X16402644Y-3122156D02*
X16406620Y-3120929D01*
X16406620Y-3120929D02*
X16410626Y-3119873D01*
X16410626Y-3119873D02*
X16414888Y-3118942D01*
X16414888Y-3118942D02*
X16419157Y-3118202D01*
X16419157Y-3118202D02*
X16423644Y-3117627D01*
X16423644Y-3117627D02*
X16428410Y-3117239D01*
X16428410Y-3117239D02*
X16433277Y-3117075D01*
X16433277Y-3117075D02*
X16434290Y-3117070D01*
X16513707Y-13481176D02*
X16511430Y-13470464D01*
X16511430Y-13470464D02*
X16504812Y-13439314D01*
X16504812Y-13439314D02*
X16495785Y-13396830D01*
X16495785Y-13396830D02*
X16484429Y-13343382D01*
X16484429Y-13343382D02*
X16463467Y-13244721D01*
X16463467Y-13244721D02*
X16437175Y-13120974D01*
X16437175Y-13120974D02*
X16417292Y-13027390D01*
X16417292Y-13027390D02*
X16384092Y-12871125D01*
X16384092Y-12871125D02*
X16333192Y-12631553D01*
X16333192Y-12631553D02*
X16290438Y-12430319D01*
X16290438Y-12430319D02*
X16260132Y-12287678D01*
X16260132Y-12287678D02*
X16212127Y-12061730D01*
X16212127Y-12061730D02*
X16160766Y-11819987D01*
X16160766Y-11819987D02*
X16125092Y-11652073D01*
X16125092Y-11652073D02*
X16069586Y-11390819D01*
X16069586Y-11390819D02*
X15952020Y-10837463D01*
X15952020Y-10837463D02*
X15697307Y-9638580D01*
X15697307Y-9638580D02*
X15429958Y-8380224D01*
X15429958Y-8380224D02*
X15254251Y-7553208D01*
X15254251Y-7553208D02*
X15127523Y-6956727D01*
X15127523Y-6956727D02*
X15046301Y-6574433D01*
X15046301Y-6574433D02*
X14968553Y-6208489D01*
X14968553Y-6208489D02*
X14894910Y-5861868D01*
X14894910Y-5861868D02*
X14826004Y-5537545D01*
X14826004Y-5537545D02*
X14762466Y-5238491D01*
X14762466Y-5238491D02*
X14718919Y-5033525D01*
X14718919Y-5033525D02*
X14691769Y-4905737D01*
X14691769Y-4905737D02*
X14654024Y-4728085D01*
X14654024Y-4728085D02*
X14620820Y-4571800D01*
X14620820Y-4571800D02*
X14600933Y-4478202D01*
X14600933Y-4478202D02*
X14583060Y-4394079D01*
X14583060Y-4394079D02*
X14567279Y-4319805D01*
X14567279Y-4319805D02*
X14553669Y-4255750D01*
X14553669Y-4255750D02*
X14542310Y-4202287D01*
X14542310Y-4202287D02*
X14533279Y-4159786D01*
X14533279Y-4159786D02*
X14528160Y-4135691D01*
X14528160Y-4135691D02*
X14525465Y-4123011D01*
X14525465Y-4123011D02*
X14524379Y-4117898D01*
X16501430Y-13500142D02*
X16505255Y-13498798D01*
X16505255Y-13498798D02*
X16508304Y-13496805D01*
X16508304Y-13496805D02*
X16510803Y-13494197D01*
X16510803Y-13494197D02*
X16512678Y-13491044D01*
X16512678Y-13491044D02*
X16513898Y-13486873D01*
X16513898Y-13486873D02*
X16513847Y-13481909D01*
X16513847Y-13481909D02*
X16513707Y-13481176D01*
X9002749Y-15102882D02*
X9008599Y-15101631D01*
X9008599Y-15101631D02*
X9018228Y-15099572D01*
X9018228Y-15099572D02*
X9031478Y-15096740D01*
X9031478Y-15096740D02*
X9046977Y-15093426D01*
X9046977Y-15093426D02*
X9064690Y-15089640D01*
X9064690Y-15089640D02*
X9084579Y-15085388D01*
X9084579Y-15085388D02*
X9118153Y-15078212D01*
X9118153Y-15078212D02*
X9170552Y-15067011D01*
X9170552Y-15067011D02*
X9215393Y-15057426D01*
X9215393Y-15057426D02*
X9247573Y-15050547D01*
X9247573Y-15050547D02*
X9299200Y-15039512D01*
X9299200Y-15039512D02*
X9374864Y-15023340D01*
X9374864Y-15023340D02*
X9457697Y-15005634D01*
X9457697Y-15005634D02*
X9547408Y-14986459D01*
X9547408Y-14986459D02*
X9643704Y-14965877D01*
X9643704Y-14965877D02*
X9746291Y-14943950D01*
X9746291Y-14943950D02*
X9910634Y-14908823D01*
X9910634Y-14908823D02*
X10150048Y-14857651D01*
X10150048Y-14857651D02*
X10343363Y-14816332D01*
X10343363Y-14816332D02*
X10443732Y-14794879D01*
X10443732Y-14794879D02*
X10511908Y-14780308D01*
X10511908Y-14780308D02*
X10686233Y-14743048D01*
X10686233Y-14743048D02*
X10978322Y-14680618D01*
X10978322Y-14680618D02*
X11283287Y-14615436D01*
X11283287Y-14615436D02*
X11758877Y-14513786D01*
X11758877Y-14513786D02*
X12252025Y-14408383D01*
X12252025Y-14408383D02*
X12585081Y-14337198D01*
X12585081Y-14337198D02*
X13086420Y-14230044D01*
X13086420Y-14230044D02*
X13745504Y-14089176D01*
X13745504Y-14089176D02*
X14682617Y-13888884D01*
X14682617Y-13888884D02*
X15354281Y-13745327D01*
X15354281Y-13745327D02*
X15593681Y-13694159D01*
X15593681Y-13694159D02*
X15810837Y-13647745D01*
X15810837Y-13647745D02*
X16003410Y-13606586D01*
X16003410Y-13606586D02*
X16244858Y-13554980D01*
X16244858Y-13554980D02*
X16410214Y-13519638D01*
X16410214Y-13519638D02*
X16481040Y-13504500D01*
X16481040Y-13504500D02*
X16501430Y-13500142D01*
X8990701Y-15100596D02*
X8994065Y-15102286D01*
X8994065Y-15102286D02*
X8998224Y-15103169D01*
X8998224Y-15103169D02*
X9002749Y-15102882D01*
X8983758Y-15090520D02*
X8985051Y-15094257D01*
X8985051Y-15094257D02*
X8987029Y-15097328D01*
X8987029Y-15097328D02*
X8989629Y-15099843D01*
X8989629Y-15099843D02*
X8990701Y-15100596D01*
X7725408Y-9194359D02*
X7745440Y-9288218D01*
X7745440Y-9288218D02*
X7856199Y-9807194D01*
X7856199Y-9807194D02*
X8128542Y-11083294D01*
X8128542Y-11083294D02*
X8575701Y-13178516D01*
X8575701Y-13178516D02*
X8849811Y-14462891D01*
X8849811Y-14462891D02*
X8938965Y-14880637D01*
X8938965Y-14880637D02*
X8975192Y-15050381D01*
X8975192Y-15050381D02*
X8983758Y-15090520D01*
X7709762Y-9181693D02*
X7714162Y-9182308D01*
X7714162Y-9182308D02*
X7717707Y-9183805D01*
X7717707Y-9183805D02*
X7720662Y-9185983D01*
X7720662Y-9185983D02*
X7722981Y-9188681D01*
X7722981Y-9188681D02*
X7724708Y-9191986D01*
X7724708Y-9191986D02*
X7725408Y-9194359D01*
X7444806Y-9181693D02*
X7709762Y-9181693D01*
X7428804Y-9197695D02*
X7429418Y-9193290D01*
X7429418Y-9193290D02*
X7430921Y-9189737D01*
X7430921Y-9189737D02*
X7433048Y-9186842D01*
X7433048Y-9186842D02*
X7435753Y-9184500D01*
X7435753Y-9184500D02*
X7439055Y-9182758D01*
X7439055Y-9182758D02*
X7443196Y-9181773D01*
X7443196Y-9181773D02*
X7444806Y-9181693D01*
X16770078Y-15517071D02*
X7492812Y-15517071D01*
X16834086Y-15453063D02*
X16833902Y-15457942D01*
X16833902Y-15457942D02*
X16833399Y-15462471D01*
X16833399Y-15462471D02*
X16832613Y-15466778D01*
X16832613Y-15466778D02*
X16831586Y-15470837D01*
X16831586Y-15470837D02*
X16830280Y-15474857D01*
X16830280Y-15474857D02*
X16828799Y-15478576D01*
X16828799Y-15478576D02*
X16827185Y-15482004D01*
X16827185Y-15482004D02*
X16825377Y-15485317D01*
X16825377Y-15485317D02*
X16823437Y-15488427D01*
X16823437Y-15488427D02*
X16821284Y-15491473D01*
X16821284Y-15491473D02*
X16819039Y-15494292D01*
X16819039Y-15494292D02*
X16816560Y-15497066D01*
X16816560Y-15497066D02*
X16814048Y-15499576D01*
X16814048Y-15499576D02*
X16811400Y-15501944D01*
X16811400Y-15501944D02*
X16808547Y-15504222D01*
X16808547Y-15504222D02*
X16805585Y-15506324D01*
X16805585Y-15506324D02*
X16802481Y-15508271D01*
X16802481Y-15508271D02*
X16799154Y-15510098D01*
X16799154Y-15510098D02*
X16795756Y-15511709D01*
X16795756Y-15511709D02*
X16792114Y-15513174D01*
X16792114Y-15513174D02*
X16788105Y-15514495D01*
X16788105Y-15514495D02*
X16784083Y-15515533D01*
X16784083Y-15515533D02*
X16779864Y-15516327D01*
X16779864Y-15516327D02*
X16775351Y-15516856D01*
X16775351Y-15516856D02*
X16770452Y-15517070D01*
X16770452Y-15517070D02*
X16770078Y-15517071D01*
X16834086Y-2881071D02*
X16834086Y-15453063D01*
X16770078Y-2817071D02*
X16775149Y-2817269D01*
X16775149Y-2817269D02*
X16779666Y-2817785D01*
X16779666Y-2817785D02*
X16783889Y-2818567D01*
X16783889Y-2818567D02*
X16788011Y-2819621D01*
X16788011Y-2819621D02*
X16791907Y-2820895D01*
X16791907Y-2820895D02*
X16795600Y-2822369D01*
X16795600Y-2822369D02*
X16799014Y-2823978D01*
X16799014Y-2823978D02*
X16802294Y-2825767D01*
X16802294Y-2825767D02*
X16805395Y-2827699D01*
X16805395Y-2827699D02*
X16808394Y-2829813D01*
X16808394Y-2829813D02*
X16811400Y-2832208D01*
X16811400Y-2832208D02*
X16814117Y-2834643D01*
X16814117Y-2834643D02*
X16816692Y-2837227D01*
X16816692Y-2837227D02*
X16819055Y-2839880D01*
X16819055Y-2839880D02*
X16821370Y-2842797D01*
X16821370Y-2842797D02*
X16823530Y-2845867D01*
X16823530Y-2845867D02*
X16825474Y-2849004D01*
X16825474Y-2849004D02*
X16827234Y-2852246D01*
X16827234Y-2852246D02*
X16828877Y-2855755D01*
X16828877Y-2855755D02*
X16830380Y-2859570D01*
X16830380Y-2859570D02*
X16831613Y-2863406D01*
X16831613Y-2863406D02*
X16832650Y-2867538D01*
X16832650Y-2867538D02*
X16833442Y-2871970D01*
X16833442Y-2871970D02*
X16833926Y-2876527D01*
X16833926Y-2876527D02*
X16834086Y-2881071D01*
X7492812Y-2817071D02*
X16770078Y-2817071D01*
X9253337Y-7160674D02*
X9253630Y-7165409D01*
X9253630Y-7165409D02*
X9252715Y-7169529D01*
X9252715Y-7169529D02*
X9251085Y-7172773D01*
X9240917Y-7179707D02*
X9227166Y-7182540D01*
X9227166Y-7182540D02*
X9209543Y-7186171D01*
X9209543Y-7186171D02*
X9163378Y-7195684D01*
X9163378Y-7195684D02*
X9102018Y-7208328D01*
X9102018Y-7208328D02*
X9054794Y-7218059D01*
X9054794Y-7218059D02*
X8975409Y-7234417D01*
X8975409Y-7234417D02*
X8789887Y-7272646D01*
X8789887Y-7272646D02*
X8502238Y-7331920D01*
X8502238Y-7331920D02*
X8198973Y-7394412D01*
X8198973Y-7394412D02*
X7980268Y-7439479D01*
X7980268Y-7439479D02*
X7844752Y-7467403D01*
X7844752Y-7467403D02*
X7722029Y-7492692D01*
X7722029Y-7492692D02*
X7615809Y-7514580D01*
X7615809Y-7514580D02*
X7549925Y-7528156D01*
X7549925Y-7528156D02*
X7512671Y-7535833D01*
X7512671Y-7535833D02*
X7467721Y-7545095D01*
X7467721Y-7545095D02*
X7448040Y-7549150D01*
X7428804Y-15453063D02*
X7428804Y-9197695D01*
X7447549Y-15498360D02*
X7445105Y-15495771D01*
X7445105Y-15495771D02*
X7442773Y-15493007D01*
X7442773Y-15493007D02*
X7440586Y-15490099D01*
X7440586Y-15490099D02*
X7438575Y-15487081D01*
X7438575Y-15487081D02*
X7436647Y-15483790D01*
X7436647Y-15483790D02*
X7434888Y-15480323D01*
X7434888Y-15480323D02*
X7433365Y-15476816D01*
X7433365Y-15476816D02*
X7432029Y-15473147D01*
X7432029Y-15473147D02*
X7430887Y-15469280D01*
X7430887Y-15469280D02*
X7429951Y-15465148D01*
X7429951Y-15465148D02*
X7429274Y-15460824D01*
X7429274Y-15460824D02*
X7428880Y-15456194D01*
X7428880Y-15456194D02*
X7428804Y-15453063D01*
X7492812Y-15517071D02*
X7487911Y-15516882D01*
X7487911Y-15516882D02*
X7483020Y-15516315D01*
X7483020Y-15516315D02*
X7478685Y-15515488D01*
X7478685Y-15515488D02*
X7474617Y-15514425D01*
X7474617Y-15514425D02*
X7470359Y-15512997D01*
X7470359Y-15512997D02*
X7466570Y-15511438D01*
X7466570Y-15511438D02*
X7463145Y-15509776D01*
X7463145Y-15509776D02*
X7459759Y-15507876D01*
X7459759Y-15507876D02*
X7456679Y-15505902D01*
X7456679Y-15505902D02*
X7453749Y-15503781D01*
X7453749Y-15503781D02*
X7450979Y-15501531D01*
X7450979Y-15501531D02*
X7448293Y-15499087D01*
X7448293Y-15499087D02*
X7447549Y-15498360D01*
X7447549Y-2835816D02*
X7450255Y-2833263D01*
X7450255Y-2833263D02*
X7452973Y-2830975D01*
X7452973Y-2830975D02*
X7456125Y-2828624D01*
X7456125Y-2828624D02*
X7459174Y-2826618D01*
X7459174Y-2826618D02*
X7462369Y-2824771D01*
X7462369Y-2824771D02*
X7465860Y-2823019D01*
X7465860Y-2823019D02*
X7469448Y-2821485D01*
X7469448Y-2821485D02*
X7473217Y-2820142D01*
X7473217Y-2820142D02*
X7477163Y-2819012D01*
X7477163Y-2819012D02*
X7481277Y-2818118D01*
X7481277Y-2818118D02*
X7485750Y-2817461D01*
X7485750Y-2817461D02*
X7490479Y-2817113D01*
X7490479Y-2817113D02*
X7492812Y-2817071D01*
X7428804Y-2881071D02*
X7428992Y-2876170D01*
X7428992Y-2876170D02*
X7429503Y-2871637D01*
X7429503Y-2871637D02*
X7430318Y-2867232D01*
X7430318Y-2867232D02*
X7431378Y-2863106D01*
X7431378Y-2863106D02*
X7432636Y-2859262D01*
X7432636Y-2859262D02*
X7434077Y-2855636D01*
X7434077Y-2855636D02*
X7435693Y-2852191D01*
X7435693Y-2852191D02*
X7437463Y-2848929D01*
X7437463Y-2848929D02*
X7439410Y-2845789D01*
X7439410Y-2845789D02*
X7441511Y-2842798D01*
X7441511Y-2842798D02*
X7443771Y-2839942D01*
X7443771Y-2839942D02*
X7446133Y-2837278D01*
X7446133Y-2837278D02*
X7447549Y-2835816D01*
X7428804Y-7533479D02*
X7428804Y-2881071D01*
X7448040Y-7549150D02*
X7443195Y-7549399D01*
X7443195Y-7549399D02*
X7439148Y-7548446D01*
X7439148Y-7548446D02*
X7435851Y-7546739D01*
X7435851Y-7546739D02*
X7434697Y-7545882D01*
X8694994Y-6422000D02*
X8694962Y-6426994D01*
X8694962Y-6426994D02*
X8694862Y-6432049D01*
X8694862Y-6432049D02*
X8694701Y-6436937D01*
X8694701Y-6436937D02*
X8694483Y-6441734D01*
X8694483Y-6441734D02*
X8694199Y-6446590D01*
X8694199Y-6446590D02*
X8693865Y-6451280D01*
X8693865Y-6451280D02*
X8693359Y-6457214D01*
X8693359Y-6457214D02*
X8692825Y-6462531D01*
X8692825Y-6462531D02*
X8692296Y-6467166D01*
X8692296Y-6467166D02*
X8691731Y-6471637D01*
X8691731Y-6471637D02*
X8691093Y-6476237D01*
X8691093Y-6476237D02*
X8690433Y-6480602D01*
X8690433Y-6480602D02*
X8689711Y-6485022D01*
X8689711Y-6485022D02*
X8688951Y-6489353D01*
X8688951Y-6489353D02*
X8688085Y-6493954D01*
X8688085Y-6493954D02*
X8687223Y-6498250D01*
X8687223Y-6498250D02*
X8686311Y-6502527D01*
X8686311Y-6502527D02*
X8685352Y-6506787D01*
X8685352Y-6506787D02*
X8684344Y-6511028D01*
X8684344Y-6511028D02*
X8683234Y-6515461D01*
X8683234Y-6515461D02*
X8682165Y-6519523D01*
X8682165Y-6519523D02*
X8681053Y-6523568D01*
X8681053Y-6523568D02*
X8679917Y-6527525D01*
X8679917Y-6527525D02*
X8678760Y-6531395D01*
X8678760Y-6531395D02*
X8677388Y-6535797D01*
X8677388Y-6535797D02*
X8676053Y-6539902D01*
X8676053Y-6539902D02*
X8674674Y-6543986D01*
X8674674Y-6543986D02*
X8673248Y-6548049D01*
X8673248Y-6548049D02*
X8671902Y-6551755D01*
X8671902Y-6551755D02*
X8670365Y-6555844D01*
X8670365Y-6555844D02*
X8668913Y-6559578D01*
X8668913Y-6559578D02*
X8667422Y-6563292D01*
X8667422Y-6563292D02*
X8665894Y-6566987D01*
X8665894Y-6566987D02*
X8664327Y-6570662D01*
X8664327Y-6570662D02*
X8662722Y-6574316D01*
X8662722Y-6574316D02*
X8660961Y-6578209D01*
X8660961Y-6578209D02*
X8659278Y-6581821D01*
X8659278Y-6581821D02*
X8657558Y-6585412D01*
X8657558Y-6585412D02*
X8655675Y-6589236D01*
X8655675Y-6589236D02*
X8653620Y-6593288D01*
X8653620Y-6593288D02*
X8651650Y-6597061D01*
X8651650Y-6597061D02*
X8649875Y-6600373D01*
X8649875Y-6600373D02*
X8648000Y-6603789D01*
X8648000Y-6603789D02*
X8646160Y-6607060D01*
X8646160Y-6607060D02*
X8643932Y-6610921D01*
X8643932Y-6610921D02*
X8641769Y-6614572D01*
X8641769Y-6614572D02*
X8639862Y-6617715D01*
X8639862Y-6617715D02*
X8637775Y-6621077D01*
X8637775Y-6621077D02*
X8635653Y-6624415D01*
X8635653Y-6624415D02*
X8633614Y-6627552D01*
X8633614Y-6627552D02*
X8631584Y-6630609D01*
X8631584Y-6630609D02*
X8629405Y-6633819D01*
X8629405Y-6633819D02*
X8627356Y-6636774D01*
X8627356Y-6636774D02*
X8625238Y-6639767D01*
X8625238Y-6639767D02*
X8623093Y-6642737D01*
X8623093Y-6642737D02*
X8620876Y-6645743D01*
X8620876Y-6645743D02*
X8618673Y-6648669D01*
X8618673Y-6648669D02*
X8616270Y-6651795D01*
X8616270Y-6651795D02*
X8613835Y-6654896D01*
X8613835Y-6654896D02*
X8611013Y-6658407D01*
X8611013Y-6658407D02*
X8608690Y-6661234D01*
X8608690Y-6661234D02*
X8605976Y-6664468D01*
X8605976Y-6664468D02*
X8603642Y-6667192D01*
X8603642Y-6667192D02*
X8601188Y-6669999D01*
X8601188Y-6669999D02*
X8598755Y-6672728D01*
X8598755Y-6672728D02*
X8596295Y-6675435D01*
X8596295Y-6675435D02*
X8593810Y-6678116D01*
X8593810Y-6678116D02*
X8591299Y-6680774D01*
X8591299Y-6680774D02*
X8588762Y-6683407D01*
X8588762Y-6683407D02*
X8585406Y-6686813D01*
X8585406Y-6686813D02*
X8582812Y-6689388D01*
X8582812Y-6689388D02*
X8579989Y-6692134D01*
X8579989Y-6692134D02*
X8577343Y-6694657D01*
X8577343Y-6694657D02*
X8574724Y-6697106D01*
X8574724Y-6697106D02*
X8571978Y-6699626D01*
X8571978Y-6699626D02*
X8569049Y-6702258D01*
X8569049Y-6702258D02*
X8566304Y-6704676D01*
X8566304Y-6704676D02*
X8563536Y-6707067D01*
X8563536Y-6707067D02*
X8560744Y-6709431D01*
X8560744Y-6709431D02*
X8557930Y-6711769D01*
X8557930Y-6711769D02*
X8555092Y-6714079D01*
X8555092Y-6714079D02*
X8551789Y-6716711D01*
X8551789Y-6716711D02*
X8548902Y-6718963D01*
X8548902Y-6718963D02*
X8545993Y-6721187D01*
X8545993Y-6721187D02*
X8543061Y-6723383D01*
X8543061Y-6723383D02*
X8540165Y-6725510D01*
X8540165Y-6725510D02*
X8537133Y-6727692D01*
X8537133Y-6727692D02*
X8534194Y-6729763D01*
X8534194Y-6729763D02*
X8531176Y-6731846D01*
X8531176Y-6731846D02*
X8528078Y-6733940D01*
X8528078Y-6733940D02*
X8525018Y-6735965D01*
X8525018Y-6735965D02*
X8521877Y-6737999D01*
X8521877Y-6737999D02*
X8518595Y-6740078D01*
X8518595Y-6740078D02*
X8515471Y-6742012D01*
X8515471Y-6742012D02*
X8511842Y-6744207D01*
X8511842Y-6744207D02*
X8508185Y-6746362D01*
X8508185Y-6746362D02*
X8504934Y-6748233D01*
X8504934Y-6748233D02*
X8501538Y-6750140D01*
X8501538Y-6750140D02*
X8498246Y-6751945D01*
X8498246Y-6751945D02*
X8494557Y-6753917D01*
X8494557Y-6753917D02*
X8490528Y-6756011D01*
X8490528Y-6756011D02*
X8486534Y-6758026D01*
X8486534Y-6758026D02*
X8482642Y-6759933D01*
X8482642Y-6759933D02*
X8478788Y-6761765D01*
X8478788Y-6761765D02*
X8475170Y-6763437D01*
X8475170Y-6763437D02*
X8471532Y-6765071D01*
X8471532Y-6765071D02*
X8467873Y-6766668D01*
X8467873Y-6766668D02*
X8464260Y-6768200D01*
X8464260Y-6768200D02*
X8460694Y-6769667D01*
X8460694Y-6769667D02*
X8456510Y-6771334D01*
X8456510Y-6771334D02*
X8452838Y-6772750D01*
X8452838Y-6772750D02*
X8448542Y-6774350D01*
X8448542Y-6774350D02*
X8444695Y-6775731D01*
X8444695Y-6775731D02*
X8440624Y-6777141D01*
X8440624Y-6777141D02*
X8436533Y-6778506D01*
X8436533Y-6778506D02*
X8432696Y-6779738D01*
X8432696Y-6779738D02*
X8428564Y-6781014D01*
X8428564Y-6781014D02*
X8424690Y-6782162D01*
X8424690Y-6782162D02*
X8420730Y-6783289D01*
X8420730Y-6783289D02*
X8416681Y-6784393D01*
X8416681Y-6784393D02*
X8412615Y-6785452D01*
X8412615Y-6785452D02*
X8408531Y-6786466D01*
X8408531Y-6786466D02*
X8404430Y-6787436D01*
X8404430Y-6787436D02*
X8399955Y-6788438D01*
X8399955Y-6788438D02*
X8395747Y-6789328D01*
X8395747Y-6789328D02*
X8391378Y-6790199D01*
X8391378Y-6790199D02*
X8387062Y-6791006D01*
X8387062Y-6791006D02*
X8382730Y-6791763D01*
X8382730Y-6791763D02*
X8378091Y-6792516D01*
X8378091Y-6792516D02*
X8373724Y-6793169D01*
X8373724Y-6793169D02*
X8369048Y-6793811D01*
X8369048Y-6793811D02*
X8364134Y-6794421D01*
X8364134Y-6794421D02*
X8359348Y-6794953D01*
X8359348Y-6794953D02*
X8353730Y-6795497D01*
X8353730Y-6795497D02*
X8348980Y-6795891D01*
X8348980Y-6795891D02*
X8343318Y-6796282D01*
X8343318Y-6796282D02*
X8338533Y-6796546D01*
X8338533Y-6796546D02*
X8333732Y-6796749D01*
X8333732Y-6796749D02*
X8328840Y-6796894D01*
X8328840Y-6796894D02*
X8323782Y-6796978D01*
X8323782Y-6796978D02*
X8319997Y-6796997D01*
X8319997Y-6047003D02*
X8324991Y-6047035D01*
X8324991Y-6047035D02*
X8330724Y-6047153D01*
X8330724Y-6047153D02*
X8335834Y-6047331D01*
X8335834Y-6047331D02*
X8340703Y-6047566D01*
X8340703Y-6047566D02*
X8345481Y-6047856D01*
X8345481Y-6047856D02*
X8350169Y-6048201D01*
X8350169Y-6048201D02*
X8354915Y-6048610D01*
X8354915Y-6048610D02*
X8359865Y-6049101D01*
X8359865Y-6049101D02*
X8364575Y-6049630D01*
X8364575Y-6049630D02*
X8369341Y-6050226D01*
X8369341Y-6050226D02*
X8374016Y-6050872D01*
X8374016Y-6050872D02*
X8378381Y-6051529D01*
X8378381Y-6051529D02*
X8383020Y-6052285D01*
X8383020Y-6052285D02*
X8387350Y-6053046D01*
X8387350Y-6053046D02*
X8391593Y-6053842D01*
X8391593Y-6053842D02*
X8395961Y-6054715D01*
X8395961Y-6054715D02*
X8400524Y-6055685D01*
X8400524Y-6055685D02*
X8404784Y-6056645D01*
X8404784Y-6056645D02*
X8409025Y-6057653D01*
X8409025Y-6057653D02*
X8413528Y-6058781D01*
X8413528Y-6058781D02*
X8417730Y-6059887D01*
X8417730Y-6059887D02*
X8421704Y-6060982D01*
X8421704Y-6060982D02*
X8426007Y-6062222D01*
X8426007Y-6062222D02*
X8429875Y-6063384D01*
X8429875Y-6063384D02*
X8434068Y-6064696D01*
X8434068Y-6064696D02*
X8437899Y-6065943D01*
X8437899Y-6065943D02*
X8441983Y-6067322D01*
X8441983Y-6067322D02*
X8446317Y-6068844D01*
X8446317Y-6068844D02*
X8450290Y-6070293D01*
X8450290Y-6070293D02*
X8454109Y-6071734D01*
X8454109Y-6071734D02*
X8457841Y-6073188D01*
X8457841Y-6073188D02*
X8461554Y-6074682D01*
X8461554Y-6074682D02*
X8465247Y-6076213D01*
X8465247Y-6076213D02*
X8469117Y-6077868D01*
X8469117Y-6077868D02*
X8472834Y-6079507D01*
X8472834Y-6079507D02*
X8476400Y-6081125D01*
X8476400Y-6081125D02*
X8480075Y-6082840D01*
X8480075Y-6082840D02*
X8483601Y-6084531D01*
X8483601Y-6084531D02*
X8487043Y-6086226D01*
X8487043Y-6086226D02*
X8490528Y-6087988D01*
X8490528Y-6087988D02*
X8493992Y-6089784D01*
X8493992Y-6089784D02*
X8497310Y-6091548D01*
X8497310Y-6091548D02*
X8500795Y-6093447D01*
X8500795Y-6093447D02*
X8504195Y-6095347D01*
X8504195Y-6095347D02*
X8507451Y-6097210D01*
X8507451Y-6097210D02*
X8510869Y-6099213D01*
X8510869Y-6099213D02*
X8514023Y-6101104D01*
X8514023Y-6101104D02*
X8517156Y-6103025D01*
X8517156Y-6103025D02*
X8520269Y-6104975D01*
X8520269Y-6104975D02*
X8523421Y-6106994D01*
X8523421Y-6106994D02*
X8526668Y-6109120D01*
X8526668Y-6109120D02*
X8529951Y-6111319D01*
X8529951Y-6111319D02*
X8532978Y-6113391D01*
X8532978Y-6113391D02*
X8535983Y-6115492D01*
X8535983Y-6115492D02*
X8538966Y-6117621D01*
X8538966Y-6117621D02*
X8542382Y-6120113D01*
X8542382Y-6120113D02*
X8545262Y-6122260D01*
X8545262Y-6122260D02*
X8548400Y-6124649D01*
X8548400Y-6124649D02*
X8551568Y-6127114D01*
X8551568Y-6127114D02*
X8554378Y-6129346D01*
X8554378Y-6129346D02*
X8558147Y-6132409D01*
X8558147Y-6132409D02*
X8560906Y-6134704D01*
X8560906Y-6134704D02*
X8564390Y-6137665D01*
X8564390Y-6137665D02*
X8567151Y-6140064D01*
X8567151Y-6140064D02*
X8569888Y-6142490D01*
X8569888Y-6142490D02*
X8572550Y-6144894D01*
X8572550Y-6144894D02*
X8575446Y-6147563D01*
X8575446Y-6147563D02*
X8578771Y-6150698D01*
X8578771Y-6150698D02*
X8581606Y-6153431D01*
X8581606Y-6153431D02*
X8584212Y-6155995D01*
X8584212Y-6155995D02*
X8586793Y-6158584D01*
X8586793Y-6158584D02*
X8589300Y-6161147D01*
X8589300Y-6161147D02*
X8592025Y-6163989D01*
X8592025Y-6163989D02*
X8594960Y-6167117D01*
X8594960Y-6167117D02*
X8597434Y-6169811D01*
X8597434Y-6169811D02*
X8599881Y-6172527D01*
X8599881Y-6172527D02*
X8602303Y-6175268D01*
X8602303Y-6175268D02*
X8604698Y-6178033D01*
X8604698Y-6178033D02*
X8607564Y-6181413D01*
X8607564Y-6181413D02*
X8610078Y-6184447D01*
X8610078Y-6184447D02*
X8612429Y-6187343D01*
X8612429Y-6187343D02*
X8614708Y-6190207D01*
X8614708Y-6190207D02*
X8616960Y-6193094D01*
X8616960Y-6193094D02*
X8619651Y-6196621D01*
X8619651Y-6196621D02*
X8622051Y-6199841D01*
X8622051Y-6199841D02*
X8624375Y-6203030D01*
X8624375Y-6203030D02*
X8626504Y-6206013D01*
X8626504Y-6206013D02*
X8628725Y-6209192D01*
X8628725Y-6209192D02*
X8631151Y-6212746D01*
X8631151Y-6212746D02*
X8633226Y-6215858D01*
X8633226Y-6215858D02*
X8635500Y-6219347D01*
X8635500Y-6219347D02*
X8637474Y-6222444D01*
X8637474Y-6222444D02*
X8639417Y-6225561D01*
X8639417Y-6225561D02*
X8641331Y-6228699D01*
X8641331Y-6228699D02*
X8643215Y-6231857D01*
X8643215Y-6231857D02*
X8645211Y-6235281D01*
X8645211Y-6235281D02*
X8647136Y-6238664D01*
X8647136Y-6238664D02*
X8648959Y-6241946D01*
X8648959Y-6241946D02*
X8650850Y-6245436D01*
X8650850Y-6245436D02*
X8652673Y-6248884D01*
X8652673Y-6248884D02*
X8654492Y-6252417D01*
X8654492Y-6252417D02*
X8656307Y-6256035D01*
X8656307Y-6256035D02*
X8658023Y-6259547D01*
X8658023Y-6259547D02*
X8659672Y-6263015D01*
X8659672Y-6263015D02*
X8661316Y-6266567D01*
X8661316Y-6266567D02*
X8662924Y-6270139D01*
X8662924Y-6270139D02*
X8664525Y-6273796D01*
X8664525Y-6273796D02*
X8666114Y-6277539D01*
X8666114Y-6277539D02*
X8667638Y-6281236D01*
X8667638Y-6281236D02*
X8669227Y-6285220D01*
X8669227Y-6285220D02*
X8670671Y-6288958D01*
X8670671Y-6288958D02*
X8672641Y-6294263D01*
X8672641Y-6294263D02*
X8674109Y-6298385D01*
X8674109Y-6298385D02*
X8675392Y-6302121D01*
X8675392Y-6302121D02*
X8676659Y-6305942D01*
X8676659Y-6305942D02*
X8677887Y-6309782D01*
X8677887Y-6309782D02*
X8679260Y-6314260D01*
X8679260Y-6314260D02*
X8680400Y-6318138D01*
X8680400Y-6318138D02*
X8681576Y-6322312D01*
X8681576Y-6322312D02*
X8682705Y-6326505D01*
X8682705Y-6326505D02*
X8683786Y-6330717D01*
X8683786Y-6330717D02*
X8684870Y-6335160D01*
X8684870Y-6335160D02*
X8685821Y-6339269D01*
X8685821Y-6339269D02*
X8686743Y-6343466D01*
X8686743Y-6343466D02*
X8687631Y-6347752D01*
X8687631Y-6347752D02*
X8688457Y-6351983D01*
X8688457Y-6351983D02*
X8689299Y-6356592D01*
X8689299Y-6356592D02*
X8690049Y-6361004D01*
X8690049Y-6361004D02*
X8690780Y-6365650D01*
X8690780Y-6365650D02*
X8691444Y-6370242D01*
X8691444Y-6370242D02*
X8692034Y-6374706D01*
X8692034Y-6374706D02*
X8692572Y-6379185D01*
X8692572Y-6379185D02*
X8693072Y-6383829D01*
X8693072Y-6383829D02*
X8693521Y-6388563D01*
X8693521Y-6388563D02*
X8693911Y-6393314D01*
X8693911Y-6393314D02*
X8694293Y-6398902D01*
X8694293Y-6398902D02*
X8694558Y-6403763D01*
X8694558Y-6403763D02*
X8694757Y-6408565D01*
X8694757Y-6408565D02*
X8694903Y-6413684D01*
X8694903Y-6413684D02*
X8694981Y-6418819D01*
X8694981Y-6418819D02*
X8694994Y-6422000D01*
X16200271Y-13879618D02*
X16200271Y-13879618D01*
X7928812Y-11042861D02*
X7928691Y-11047812D01*
X7928691Y-11047812D02*
X7928349Y-11052543D01*
X7928349Y-11052543D02*
X7927812Y-11057055D01*
X7927812Y-11057055D02*
X7927034Y-11061733D01*
X7927034Y-11061733D02*
X7926097Y-11066109D01*
X7926097Y-11066109D02*
X7925045Y-11070152D01*
X7925045Y-11070152D02*
X7923782Y-11074273D01*
X7923782Y-11074273D02*
X7922457Y-11078030D01*
X7922457Y-11078030D02*
X7921034Y-11081612D01*
X7921034Y-11081612D02*
X7919478Y-11085123D01*
X7919478Y-11085123D02*
X7917636Y-11088865D01*
X7917636Y-11088865D02*
X7915814Y-11092223D01*
X7915814Y-11092223D02*
X7913890Y-11095469D01*
X7913890Y-11095469D02*
X7911848Y-11098634D01*
X7911848Y-11098634D02*
X7909604Y-11101838D01*
X7909604Y-11101838D02*
X7907263Y-11104919D01*
X7907263Y-11104919D02*
X7904954Y-11107733D01*
X7904954Y-11107733D02*
X7902559Y-11110447D01*
X7902559Y-11110447D02*
X7900122Y-11113019D01*
X7900122Y-11113019D02*
X7897528Y-11115567D01*
X7897528Y-11115567D02*
X7894872Y-11117995D01*
X7894872Y-11117995D02*
X7891899Y-11120518D01*
X7891899Y-11120518D02*
X7889067Y-11122744D01*
X7889067Y-11122744D02*
X7886155Y-11124868D01*
X7886155Y-11124868D02*
X7883071Y-11126950D01*
X7883071Y-11126950D02*
X7879583Y-11129111D01*
X7879583Y-11129111D02*
X7876352Y-11130943D01*
X7876352Y-11130943D02*
X7872946Y-11132706D01*
X7872946Y-11132706D02*
X7869102Y-11134502D01*
X7869102Y-11134502D02*
X7865509Y-11136004D01*
X7865509Y-11136004D02*
X7861848Y-11137369D01*
X7861848Y-11137369D02*
X7857956Y-11138642D01*
X7857956Y-11138642D02*
X7853959Y-11139768D01*
X7853959Y-11139768D02*
X7849878Y-11140733D01*
X7849878Y-11140733D02*
X7845620Y-11141548D01*
X7845620Y-11141548D02*
X7841165Y-11142196D01*
X7841165Y-11142196D02*
X7836610Y-11142648D01*
X7836610Y-11142648D02*
X7831639Y-11142902D01*
X7831639Y-11142902D02*
X7828990Y-11142937D01*
X7828990Y-10942870D02*
X7833913Y-10942990D01*
X7833913Y-10942990D02*
X7838581Y-10943329D01*
X7838581Y-10943329D02*
X7843148Y-10943875D01*
X7843148Y-10943875D02*
X7847461Y-10944590D01*
X7847461Y-10944590D02*
X7851597Y-10945462D01*
X7851597Y-10945462D02*
X7855632Y-10946493D01*
X7855632Y-10946493D02*
X7859564Y-10947676D01*
X7859564Y-10947676D02*
X7863285Y-10948962D01*
X7863285Y-10948962D02*
X7867113Y-10950462D01*
X7867113Y-10950462D02*
X7870657Y-10952019D01*
X7870657Y-10952019D02*
X7874028Y-10953656D01*
X7874028Y-10953656D02*
X7877492Y-10955507D01*
X7877492Y-10955507D02*
X7880745Y-10957409D01*
X7880745Y-10957409D02*
X7883920Y-10959430D01*
X7883920Y-10959430D02*
X7887012Y-10961565D01*
X7887012Y-10961565D02*
X7889901Y-10963721D01*
X7889901Y-10963721D02*
X7893284Y-10966459D01*
X7893284Y-10966459D02*
X7896004Y-10968845D01*
X7896004Y-10968845D02*
X7898609Y-10971300D01*
X7898609Y-10971300D02*
X7901139Y-10973859D01*
X7901139Y-10973859D02*
X7903589Y-10976522D01*
X7903589Y-10976522D02*
X7906014Y-10979359D01*
X7906014Y-10979359D02*
X7908255Y-10982181D01*
X7908255Y-10982181D02*
X7910416Y-10985115D01*
X7910416Y-10985115D02*
X7912596Y-10988318D01*
X7912596Y-10988318D02*
X7914538Y-10991413D01*
X7914538Y-10991413D02*
X7916478Y-10994782D01*
X7916478Y-10994782D02*
X7918238Y-10998129D01*
X7918238Y-10998129D02*
X7919859Y-11001514D01*
X7919859Y-11001514D02*
X7921442Y-11005179D01*
X7921442Y-11005179D02*
X7922868Y-11008882D01*
X7922868Y-11008882D02*
X7924137Y-11012616D01*
X7924137Y-11012616D02*
X7925282Y-11016489D01*
X7925282Y-11016489D02*
X7926299Y-11020539D01*
X7926299Y-11020539D02*
X7927178Y-11024804D01*
X7927178Y-11024804D02*
X7927872Y-11029133D01*
X7927872Y-11029133D02*
X7928404Y-11033797D01*
X7928404Y-11033797D02*
X7928722Y-11038603D01*
X7928722Y-11038603D02*
X7928812Y-11042861D01*
X7728812Y-11042861D02*
X7728930Y-11037964D01*
X7728930Y-11037964D02*
X7729290Y-11033048D01*
X7729290Y-11033048D02*
X7729839Y-11028511D01*
X7729839Y-11028511D02*
X7730567Y-11024152D01*
X7730567Y-11024152D02*
X7731464Y-11019935D01*
X7731464Y-11019935D02*
X7732506Y-11015895D01*
X7732506Y-11015895D02*
X7733699Y-11011959D01*
X7733699Y-11011959D02*
X7735021Y-11008164D01*
X7735021Y-11008164D02*
X7736535Y-11004335D01*
X7736535Y-11004335D02*
X7738071Y-11000859D01*
X7738071Y-11000859D02*
X7739734Y-10997453D01*
X7739734Y-10997453D02*
X7741522Y-10994121D01*
X7741522Y-10994121D02*
X7743371Y-10990962D01*
X7743371Y-10990962D02*
X7745456Y-10987689D01*
X7745456Y-10987689D02*
X7747509Y-10984717D01*
X7747509Y-10984717D02*
X7749689Y-10981794D01*
X7749689Y-10981794D02*
X7752019Y-10978896D01*
X7752019Y-10978896D02*
X7754379Y-10976172D01*
X7754379Y-10976172D02*
X7756833Y-10973534D01*
X7756833Y-10973534D02*
X7759705Y-10970674D01*
X7759705Y-10970674D02*
X7762353Y-10968230D01*
X7762353Y-10968230D02*
X7765088Y-10965880D01*
X7765088Y-10965880D02*
X7767908Y-10963629D01*
X7767908Y-10963629D02*
X7771177Y-10961216D01*
X7771177Y-10961216D02*
X7774166Y-10959181D01*
X7774166Y-10959181D02*
X7777361Y-10957175D01*
X7777361Y-10957175D02*
X7780636Y-10955286D01*
X7780636Y-10955286D02*
X7783953Y-10953536D01*
X7783953Y-10953536D02*
X7787654Y-10951766D01*
X7787654Y-10951766D02*
X7791189Y-10950245D01*
X7791189Y-10950245D02*
X7795044Y-10948766D01*
X7795044Y-10948766D02*
X7798828Y-10947489D01*
X7798828Y-10947489D02*
X7802976Y-10946280D01*
X7802976Y-10946280D02*
X7807044Y-10945280D01*
X7807044Y-10945280D02*
X7811446Y-10944400D01*
X7811446Y-10944400D02*
X7815836Y-10943725D01*
X7815836Y-10943725D02*
X7820406Y-10943232D01*
X7820406Y-10943232D02*
X7825196Y-10942940D01*
X7825196Y-10942940D02*
X7828990Y-10942870D01*
X7828990Y-11142937D02*
X7824073Y-11142819D01*
X7824073Y-11142819D02*
X7819298Y-11142475D01*
X7819298Y-11142475D02*
X7814743Y-11141933D01*
X7814743Y-11141933D02*
X7810445Y-11141226D01*
X7810445Y-11141226D02*
X7806286Y-11140358D01*
X7806286Y-11140358D02*
X7802137Y-11139303D01*
X7802137Y-11139303D02*
X7798077Y-11138084D01*
X7798077Y-11138084D02*
X7794325Y-11136787D01*
X7794325Y-11136787D02*
X7790659Y-11135354D01*
X7790659Y-11135354D02*
X7787135Y-11133815D01*
X7787135Y-11133815D02*
X7783716Y-11132164D01*
X7783716Y-11132164D02*
X7780156Y-11130269D01*
X7780156Y-11130269D02*
X7776974Y-11128413D01*
X7776974Y-11128413D02*
X7773788Y-11126394D01*
X7773788Y-11126394D02*
X7770778Y-11124325D01*
X7770778Y-11124325D02*
X7767788Y-11122105D01*
X7767788Y-11122105D02*
X7764973Y-11119850D01*
X7764973Y-11119850D02*
X7762157Y-11117422D01*
X7762157Y-11117422D02*
X7759529Y-11114984D01*
X7759529Y-11114984D02*
X7757016Y-11112482D01*
X7757016Y-11112482D02*
X7754504Y-11109794D01*
X7754504Y-11109794D02*
X7752104Y-11107031D01*
X7752104Y-11107031D02*
X7749850Y-11104239D01*
X7749850Y-11104239D02*
X7747707Y-11101382D01*
X7747707Y-11101382D02*
X7745456Y-11098133D01*
X7745456Y-11098133D02*
X7743449Y-11094987D01*
X7743449Y-11094987D02*
X7741448Y-11091564D01*
X7741448Y-11091564D02*
X7739665Y-11088226D01*
X7739665Y-11088226D02*
X7737880Y-11084537D01*
X7737880Y-11084537D02*
X7736359Y-11081049D01*
X7736359Y-11081049D02*
X7734929Y-11077385D01*
X7734929Y-11077385D02*
X7733616Y-11073579D01*
X7733616Y-11073579D02*
X7732459Y-11069725D01*
X7732459Y-11069725D02*
X7731429Y-11065694D01*
X7731429Y-11065694D02*
X7730553Y-11061541D01*
X7730553Y-11061541D02*
X7729839Y-11057250D01*
X7729839Y-11057250D02*
X7729293Y-11052741D01*
X7729293Y-11052741D02*
X7728938Y-11047932D01*
X7728938Y-11047932D02*
X7728812Y-11042861D01*
X8673396Y-14788768D02*
X8673396Y-14788768D01*
X16300093Y-13779542D02*
X16299972Y-13784493D01*
X16299972Y-13784493D02*
X16299630Y-13789224D01*
X16299630Y-13789224D02*
X16299093Y-13793736D01*
X16299093Y-13793736D02*
X16298344Y-13798260D01*
X16298344Y-13798260D02*
X16297452Y-13802469D01*
X16297452Y-13802469D02*
X16296397Y-13806573D01*
X16296397Y-13806573D02*
X16295228Y-13810443D01*
X16295228Y-13810443D02*
X16293922Y-13814209D01*
X16293922Y-13814209D02*
X16292488Y-13817870D01*
X16292488Y-13817870D02*
X16290899Y-13821494D01*
X16290899Y-13821494D02*
X16289242Y-13824906D01*
X16289242Y-13824906D02*
X16287452Y-13828261D01*
X16287452Y-13828261D02*
X16285481Y-13831635D01*
X16285481Y-13831635D02*
X16283457Y-13834814D01*
X16283457Y-13834814D02*
X16281407Y-13837787D01*
X16281407Y-13837787D02*
X16279184Y-13840771D01*
X16279184Y-13840771D02*
X16276904Y-13843610D01*
X16276904Y-13843610D02*
X16274549Y-13846336D01*
X16274549Y-13846336D02*
X16272126Y-13848946D01*
X16272126Y-13848946D02*
X16269450Y-13851626D01*
X16269450Y-13851626D02*
X16266858Y-13854040D01*
X16266858Y-13854040D02*
X16264095Y-13856435D01*
X16264095Y-13856435D02*
X16261275Y-13858705D01*
X16261275Y-13858705D02*
X16258374Y-13860874D01*
X16258374Y-13860874D02*
X16255409Y-13862929D01*
X16255409Y-13862929D02*
X16252272Y-13864936D01*
X16252272Y-13864936D02*
X16249124Y-13866792D01*
X16249124Y-13866792D02*
X16245836Y-13868568D01*
X16245836Y-13868568D02*
X16242443Y-13870240D01*
X16242443Y-13870240D02*
X16238874Y-13871829D01*
X16238874Y-13871829D02*
X16235163Y-13873308D01*
X16235163Y-13873308D02*
X16231164Y-13874711D01*
X16231164Y-13874711D02*
X16227312Y-13875885D01*
X16227312Y-13875885D02*
X16223134Y-13876968D01*
X16223134Y-13876968D02*
X16218888Y-13877871D01*
X16218888Y-13877871D02*
X16214540Y-13878597D01*
X16214540Y-13878597D02*
X16210054Y-13879140D01*
X16210054Y-13879140D02*
X16205312Y-13879491D01*
X16205312Y-13879491D02*
X16200351Y-13879618D01*
X16200351Y-13879618D02*
X16200271Y-13879618D01*
X16200271Y-13679550D02*
X16205153Y-13679668D01*
X16205153Y-13679668D02*
X16209858Y-13680008D01*
X16209858Y-13680008D02*
X16214598Y-13680578D01*
X16214598Y-13680578D02*
X16218888Y-13681296D01*
X16218888Y-13681296D02*
X16223228Y-13682221D01*
X16223228Y-13682221D02*
X16227312Y-13683282D01*
X16227312Y-13683282D02*
X16231273Y-13684491D01*
X16231273Y-13684491D02*
X16235020Y-13685805D01*
X16235020Y-13685805D02*
X16238664Y-13687248D01*
X16238664Y-13687248D02*
X16242306Y-13688861D01*
X16242306Y-13688861D02*
X16245702Y-13690527D01*
X16245702Y-13690527D02*
X16249025Y-13692317D01*
X16249025Y-13692317D02*
X16252240Y-13694207D01*
X16252240Y-13694207D02*
X16255315Y-13696172D01*
X16255315Y-13696172D02*
X16258313Y-13698244D01*
X16258313Y-13698244D02*
X16261290Y-13700467D01*
X16261290Y-13700467D02*
X16264095Y-13702725D01*
X16264095Y-13702725D02*
X16266816Y-13705081D01*
X16266816Y-13705081D02*
X16269773Y-13707844D01*
X16269773Y-13707844D02*
X16272307Y-13710399D01*
X16272307Y-13710399D02*
X16274749Y-13713042D01*
X16274749Y-13713042D02*
X16277096Y-13715773D01*
X16277096Y-13715773D02*
X16279322Y-13718557D01*
X16279322Y-13718557D02*
X16281494Y-13721483D01*
X16281494Y-13721483D02*
X16283540Y-13724458D01*
X16283540Y-13724458D02*
X16285559Y-13727637D01*
X16285559Y-13727637D02*
X16287406Y-13730797D01*
X16287406Y-13730797D02*
X16289173Y-13734097D01*
X16289173Y-13734097D02*
X16290835Y-13737503D01*
X16290835Y-13737503D02*
X16292414Y-13741085D01*
X16292414Y-13741085D02*
X16293883Y-13744811D01*
X16293883Y-13744811D02*
X16295193Y-13748571D01*
X16295193Y-13748571D02*
X16296366Y-13752434D01*
X16296366Y-13752434D02*
X16297403Y-13756438D01*
X16297403Y-13756438D02*
X16298307Y-13760657D01*
X16298307Y-13760657D02*
X16299042Y-13765017D01*
X16299042Y-13765017D02*
X16299595Y-13769518D01*
X16299595Y-13769518D02*
X16299966Y-13774478D01*
X16299966Y-13774478D02*
X16300093Y-13779501D01*
X16300093Y-13779501D02*
X16300093Y-13779542D01*
X16100110Y-13779542D02*
X16100227Y-13774657D01*
X16100227Y-13774657D02*
X16100572Y-13769873D01*
X16100572Y-13769873D02*
X16101130Y-13765212D01*
X16101130Y-13765212D02*
X16101856Y-13760848D01*
X16101856Y-13760848D02*
X16102733Y-13756702D01*
X16102733Y-13756702D02*
X16103770Y-13752657D01*
X16103770Y-13752657D02*
X16104945Y-13748753D01*
X16104945Y-13748753D02*
X16106261Y-13744954D01*
X16106261Y-13744954D02*
X16107708Y-13741261D01*
X16107708Y-13741261D02*
X16109233Y-13737778D01*
X16109233Y-13737778D02*
X16110954Y-13734231D01*
X16110954Y-13734231D02*
X16112735Y-13730896D01*
X16112735Y-13730896D02*
X16114578Y-13727734D01*
X16114578Y-13727734D02*
X16116574Y-13724583D01*
X16116574Y-13724583D02*
X16118639Y-13721575D01*
X16118639Y-13721575D02*
X16120856Y-13718587D01*
X16120856Y-13718587D02*
X16123108Y-13715773D01*
X16123108Y-13715773D02*
X16125457Y-13713042D01*
X16125457Y-13713042D02*
X16127903Y-13710399D01*
X16127903Y-13710399D02*
X16130441Y-13707844D01*
X16130441Y-13707844D02*
X16133070Y-13705382D01*
X16133070Y-13705382D02*
X16135872Y-13702942D01*
X16135872Y-13702942D02*
X16139181Y-13700284D01*
X16139181Y-13700284D02*
X16142326Y-13697960D01*
X16142326Y-13697960D02*
X16145312Y-13695923D01*
X16145312Y-13695923D02*
X16148503Y-13693914D01*
X16148503Y-13693914D02*
X16151724Y-13692050D01*
X16151724Y-13692050D02*
X16155087Y-13690269D01*
X16155087Y-13690269D02*
X16158681Y-13688543D01*
X16158681Y-13688543D02*
X16162317Y-13686972D01*
X16162317Y-13686972D02*
X16166026Y-13685541D01*
X16166026Y-13685541D02*
X16169805Y-13684255D01*
X16169805Y-13684255D02*
X16173761Y-13683086D01*
X16173761Y-13683086D02*
X16177823Y-13682068D01*
X16177823Y-13682068D02*
X16181987Y-13681210D01*
X16181987Y-13681210D02*
X16186368Y-13680504D01*
X16186368Y-13680504D02*
X16190890Y-13679982D01*
X16190890Y-13679982D02*
X16195672Y-13679653D01*
X16195672Y-13679653D02*
X16200271Y-13679550D01*
X16200271Y-13879618D02*
X16195352Y-13879499D01*
X16195352Y-13879499D02*
X16190673Y-13879165D01*
X16190673Y-13879165D02*
X16186134Y-13878630D01*
X16186134Y-13878630D02*
X16181833Y-13877929D01*
X16181833Y-13877929D02*
X16177444Y-13877012D01*
X16177444Y-13877012D02*
X16173407Y-13875984D01*
X16173407Y-13875984D02*
X16169347Y-13874765D01*
X16169347Y-13874765D02*
X16165594Y-13873468D01*
X16165594Y-13873468D02*
X16161929Y-13872035D01*
X16161929Y-13872035D02*
X16158404Y-13870496D01*
X16158404Y-13870496D02*
X16154986Y-13868844D01*
X16154986Y-13868844D02*
X16151427Y-13866949D01*
X16151427Y-13866949D02*
X16148245Y-13865094D01*
X16148245Y-13865094D02*
X16144966Y-13863012D01*
X16144966Y-13863012D02*
X16141836Y-13860852D01*
X16141836Y-13860852D02*
X16138943Y-13858694D01*
X16138943Y-13858694D02*
X16136045Y-13856363D01*
X16136045Y-13856363D02*
X16133293Y-13853978D01*
X16133293Y-13853978D02*
X16130657Y-13851522D01*
X16130657Y-13851522D02*
X16128137Y-13849001D01*
X16128137Y-13849001D02*
X16125658Y-13846336D01*
X16125658Y-13846336D02*
X16123300Y-13843610D01*
X16123300Y-13843610D02*
X16121063Y-13840831D01*
X16121063Y-13840831D02*
X16118880Y-13837910D01*
X16118880Y-13837910D02*
X16116740Y-13834814D01*
X16116740Y-13834814D02*
X16114735Y-13831667D01*
X16114735Y-13831667D02*
X16112883Y-13828508D01*
X16112883Y-13828508D02*
X16111092Y-13825176D01*
X16111092Y-13825176D02*
X16109441Y-13821804D01*
X16109441Y-13821804D02*
X16107885Y-13818292D01*
X16107885Y-13818292D02*
X16106454Y-13814693D01*
X16106454Y-13814693D02*
X16105148Y-13810990D01*
X16105148Y-13810990D02*
X16103958Y-13807130D01*
X16103958Y-13807130D02*
X16102913Y-13803167D01*
X16102913Y-13803167D02*
X16102004Y-13799027D01*
X16102004Y-13799027D02*
X16101257Y-13794747D01*
X16101257Y-13794747D02*
X16100680Y-13790289D01*
X16100680Y-13790289D02*
X16100288Y-13785571D01*
X16100288Y-13785571D02*
X16100116Y-13780633D01*
X16100116Y-13780633D02*
X16100110Y-13779542D01*
X16434290Y-15217097D02*
X16434290Y-15217097D01*
X8773218Y-14688777D02*
X8773097Y-14693728D01*
X8773097Y-14693728D02*
X8772755Y-14698458D01*
X8772755Y-14698458D02*
X8772218Y-14702969D01*
X8772218Y-14702969D02*
X8771498Y-14707339D01*
X8771498Y-14707339D02*
X8770627Y-14711492D01*
X8770627Y-14711492D02*
X8769596Y-14715542D01*
X8769596Y-14715542D02*
X8768415Y-14719487D01*
X8768415Y-14719487D02*
X8767117Y-14723254D01*
X8767117Y-14723254D02*
X8765499Y-14727374D01*
X8765499Y-14727374D02*
X8763964Y-14730851D01*
X8763964Y-14730851D02*
X8762303Y-14734258D01*
X8762303Y-14734258D02*
X8760517Y-14737591D01*
X8760517Y-14737591D02*
X8758533Y-14740976D01*
X8758533Y-14740976D02*
X8756568Y-14744054D01*
X8756568Y-14744054D02*
X8754451Y-14747116D01*
X8754451Y-14747116D02*
X8752294Y-14750004D01*
X8752294Y-14750004D02*
X8750037Y-14752811D01*
X8750037Y-14752811D02*
X8747670Y-14755547D01*
X8747670Y-14755547D02*
X8745234Y-14758168D01*
X8745234Y-14758168D02*
X8742693Y-14760713D01*
X8742693Y-14760713D02*
X8740062Y-14763166D01*
X8740062Y-14763166D02*
X8737115Y-14765716D01*
X8737115Y-14765716D02*
X8734307Y-14767968D01*
X8734307Y-14767968D02*
X8731419Y-14770120D01*
X8731419Y-14770120D02*
X8728451Y-14772168D01*
X8728451Y-14772168D02*
X8725392Y-14774120D01*
X8725392Y-14774120D02*
X8722194Y-14776000D01*
X8722194Y-14776000D02*
X8718821Y-14777815D01*
X8718821Y-14777815D02*
X8715167Y-14779598D01*
X8715167Y-14779598D02*
X8711555Y-14781184D01*
X8711555Y-14781184D02*
X8707727Y-14782681D01*
X8707727Y-14782681D02*
X8703971Y-14783977D01*
X8703971Y-14783977D02*
X8700038Y-14785156D01*
X8700038Y-14785156D02*
X8695966Y-14786193D01*
X8695966Y-14786193D02*
X8691752Y-14787075D01*
X8691752Y-14787075D02*
X8687419Y-14787786D01*
X8687419Y-14787786D02*
X8682869Y-14788322D01*
X8682869Y-14788322D02*
X8678121Y-14788658D01*
X8678121Y-14788658D02*
X8673396Y-14788768D01*
X8673396Y-14588786D02*
X8678320Y-14588906D01*
X8678320Y-14588906D02*
X8682987Y-14589244D01*
X8682987Y-14589244D02*
X8687729Y-14589814D01*
X8687729Y-14589814D02*
X8692058Y-14590539D01*
X8692058Y-14590539D02*
X8696361Y-14591457D01*
X8696361Y-14591457D02*
X8700446Y-14592517D01*
X8700446Y-14592517D02*
X8704407Y-14593726D01*
X8704407Y-14593726D02*
X8708156Y-14595040D01*
X8708156Y-14595040D02*
X8711800Y-14596484D01*
X8711800Y-14596484D02*
X8715442Y-14598097D01*
X8715442Y-14598097D02*
X8718838Y-14599763D01*
X8718838Y-14599763D02*
X8722161Y-14601552D01*
X8722161Y-14601552D02*
X8725376Y-14603443D01*
X8725376Y-14603443D02*
X8728451Y-14605407D01*
X8728451Y-14605407D02*
X8731449Y-14607479D01*
X8731449Y-14607479D02*
X8734426Y-14609703D01*
X8734426Y-14609703D02*
X8737231Y-14611961D01*
X8737231Y-14611961D02*
X8739951Y-14614316D01*
X8739951Y-14614316D02*
X8742908Y-14617080D01*
X8742908Y-14617080D02*
X8745441Y-14619634D01*
X8745441Y-14619634D02*
X8747883Y-14622278D01*
X8747883Y-14622278D02*
X8750229Y-14625008D01*
X8750229Y-14625008D02*
X8752455Y-14627793D01*
X8752455Y-14627793D02*
X8754626Y-14630718D01*
X8754626Y-14630718D02*
X8756682Y-14633709D01*
X8756682Y-14633709D02*
X8758690Y-14636873D01*
X8758690Y-14636873D02*
X8760536Y-14640033D01*
X8760536Y-14640033D02*
X8762303Y-14643332D01*
X8762303Y-14643332D02*
X8763964Y-14646738D01*
X8763964Y-14646738D02*
X8765543Y-14650321D01*
X8765543Y-14650321D02*
X8767011Y-14654046D01*
X8767011Y-14654046D02*
X8768320Y-14657806D01*
X8768320Y-14657806D02*
X8769493Y-14661670D01*
X8769493Y-14661670D02*
X8770530Y-14665673D01*
X8770530Y-14665673D02*
X8771433Y-14669892D01*
X8771433Y-14669892D02*
X8772168Y-14674253D01*
X8772168Y-14674253D02*
X8772720Y-14678754D01*
X8772720Y-14678754D02*
X8773091Y-14683713D01*
X8773091Y-14683713D02*
X8773218Y-14688737D01*
X8773218Y-14688737D02*
X8773218Y-14688777D01*
X8573218Y-14688777D02*
X8573335Y-14683893D01*
X8573335Y-14683893D02*
X8573680Y-14679108D01*
X8573680Y-14679108D02*
X8574223Y-14674564D01*
X8574223Y-14674564D02*
X8574966Y-14670084D01*
X8574966Y-14670084D02*
X8575845Y-14665937D01*
X8575845Y-14665937D02*
X8576882Y-14661892D01*
X8576882Y-14661892D02*
X8578059Y-14657989D01*
X8578059Y-14657989D02*
X8579376Y-14654189D01*
X8579376Y-14654189D02*
X8580942Y-14650215D01*
X8580942Y-14650215D02*
X8582478Y-14646738D01*
X8582478Y-14646738D02*
X8584142Y-14643332D01*
X8584142Y-14643332D02*
X8585930Y-14640000D01*
X8585930Y-14640000D02*
X8587779Y-14636840D01*
X8587779Y-14636840D02*
X8589864Y-14633568D01*
X8589864Y-14633568D02*
X8591918Y-14630596D01*
X8591918Y-14630596D02*
X8594075Y-14627704D01*
X8594075Y-14627704D02*
X8596428Y-14624777D01*
X8596428Y-14624777D02*
X8598788Y-14622054D01*
X8598788Y-14622054D02*
X8601217Y-14619445D01*
X8601217Y-14619445D02*
X8603790Y-14616871D01*
X8603790Y-14616871D02*
X8606427Y-14614417D01*
X8606427Y-14614417D02*
X8609123Y-14612081D01*
X8609123Y-14612081D02*
X8612288Y-14609542D01*
X8612288Y-14609542D02*
X8615464Y-14607196D01*
X8615464Y-14607196D02*
X8618450Y-14605158D01*
X8618450Y-14605158D02*
X8621739Y-14603090D01*
X8621739Y-14603090D02*
X8625046Y-14601185D01*
X8625046Y-14601185D02*
X8628363Y-14599437D01*
X8628363Y-14599437D02*
X8631821Y-14597779D01*
X8631821Y-14597779D02*
X8635457Y-14596207D01*
X8635457Y-14596207D02*
X8639166Y-14594776D01*
X8639166Y-14594776D02*
X8642944Y-14593490D01*
X8642944Y-14593490D02*
X8646937Y-14592311D01*
X8646937Y-14592311D02*
X8650960Y-14591303D01*
X8650960Y-14591303D02*
X8655161Y-14590438D01*
X8655161Y-14590438D02*
X8659775Y-14589702D01*
X8659775Y-14589702D02*
X8664299Y-14589192D01*
X8664299Y-14589192D02*
X8669021Y-14588879D01*
X8669021Y-14588879D02*
X8673396Y-14588786D01*
X8673396Y-14788768D02*
X8668480Y-14788650D01*
X8668480Y-14788650D02*
X8663705Y-14788307D01*
X8663705Y-14788307D02*
X8659151Y-14787766D01*
X8659151Y-14787766D02*
X8654853Y-14787061D01*
X8654853Y-14787061D02*
X8650581Y-14786167D01*
X8650581Y-14786167D02*
X8646490Y-14785125D01*
X8646490Y-14785125D02*
X8642504Y-14783930D01*
X8642504Y-14783930D02*
X8638447Y-14782523D01*
X8638447Y-14782523D02*
X8634840Y-14781103D01*
X8634840Y-14781103D02*
X8631027Y-14779422D01*
X8631027Y-14779422D02*
X8627586Y-14777737D01*
X8627586Y-14777737D02*
X8624154Y-14775889D01*
X8624154Y-14775889D02*
X8620869Y-14773953D01*
X8620869Y-14773953D02*
X8617696Y-14771918D01*
X8617696Y-14771918D02*
X8614699Y-14769834D01*
X8614699Y-14769834D02*
X8611605Y-14767507D01*
X8611605Y-14767507D02*
X8608806Y-14765235D01*
X8608806Y-14765235D02*
X8606121Y-14762890D01*
X8606121Y-14762890D02*
X8603467Y-14760400D01*
X8603467Y-14760400D02*
X8600931Y-14757844D01*
X8600931Y-14757844D02*
X8598488Y-14755197D01*
X8598488Y-14755197D02*
X8596140Y-14752465D01*
X8596140Y-14752465D02*
X8593891Y-14749648D01*
X8593891Y-14749648D02*
X8591743Y-14746749D01*
X8591743Y-14746749D02*
X8589636Y-14743678D01*
X8589636Y-14743678D02*
X8587681Y-14740590D01*
X8587681Y-14740590D02*
X8585709Y-14737195D01*
X8585709Y-14737195D02*
X8583936Y-14733853D01*
X8583936Y-14733853D02*
X8582303Y-14730472D01*
X8582303Y-14730472D02*
X8580708Y-14726811D01*
X8580708Y-14726811D02*
X8579217Y-14722967D01*
X8579217Y-14722967D02*
X8577894Y-14719084D01*
X8577894Y-14719084D02*
X8576748Y-14715207D01*
X8576748Y-14715207D02*
X8575740Y-14711189D01*
X8575740Y-14711189D02*
X8574859Y-14706917D01*
X8574859Y-14706917D02*
X8574157Y-14702540D01*
X8574157Y-14702540D02*
X8573640Y-14698024D01*
X8573640Y-14698024D02*
X8573319Y-14693308D01*
X8573319Y-14693308D02*
X8573218Y-14688777D01*
X7828990Y-15220230D02*
X7828990Y-15220230D01*
X16534112Y-15117021D02*
X16533991Y-15121972D01*
X16533991Y-15121972D02*
X16533649Y-15126703D01*
X16533649Y-15126703D02*
X16533111Y-15131215D01*
X16533111Y-15131215D02*
X16532362Y-15135740D01*
X16532362Y-15135740D02*
X16531471Y-15139948D01*
X16531471Y-15139948D02*
X16530416Y-15144052D01*
X16530416Y-15144052D02*
X16529247Y-15147922D01*
X16529247Y-15147922D02*
X16527941Y-15151688D01*
X16527941Y-15151688D02*
X16526506Y-15155349D01*
X16526506Y-15155349D02*
X16524917Y-15158973D01*
X16524917Y-15158973D02*
X16523260Y-15162385D01*
X16523260Y-15162385D02*
X16521470Y-15165740D01*
X16521470Y-15165740D02*
X16519500Y-15169115D01*
X16519500Y-15169115D02*
X16517476Y-15172293D01*
X16517476Y-15172293D02*
X16515425Y-15175267D01*
X16515425Y-15175267D02*
X16513203Y-15178250D01*
X16513203Y-15178250D02*
X16510923Y-15181090D01*
X16510923Y-15181090D02*
X16508568Y-15183815D01*
X16508568Y-15183815D02*
X16506144Y-15186426D01*
X16506144Y-15186426D02*
X16503469Y-15189105D01*
X16503469Y-15189105D02*
X16500876Y-15191520D01*
X16500876Y-15191520D02*
X16498114Y-15193914D01*
X16498114Y-15193914D02*
X16495294Y-15196184D01*
X16495294Y-15196184D02*
X16492393Y-15198354D01*
X16492393Y-15198354D02*
X16489428Y-15200408D01*
X16489428Y-15200408D02*
X16486291Y-15202416D01*
X16486291Y-15202416D02*
X16483142Y-15204271D01*
X16483142Y-15204271D02*
X16479855Y-15206048D01*
X16479855Y-15206048D02*
X16476461Y-15207719D01*
X16476461Y-15207719D02*
X16472893Y-15209309D01*
X16472893Y-15209309D02*
X16469182Y-15210787D01*
X16469182Y-15210787D02*
X16465182Y-15212191D01*
X16465182Y-15212191D02*
X16461331Y-15213364D01*
X16461331Y-15213364D02*
X16457152Y-15214447D01*
X16457152Y-15214447D02*
X16452907Y-15215350D01*
X16452907Y-15215350D02*
X16448559Y-15216076D01*
X16448559Y-15216076D02*
X16444073Y-15216620D01*
X16444073Y-15216620D02*
X16439331Y-15216971D01*
X16439331Y-15216971D02*
X16434370Y-15217097D01*
X16434370Y-15217097D02*
X16434290Y-15217097D01*
X16434290Y-15017030D02*
X16439171Y-15017148D01*
X16439171Y-15017148D02*
X16443877Y-15017488D01*
X16443877Y-15017488D02*
X16448443Y-15018035D01*
X16448443Y-15018035D02*
X16452754Y-15018750D01*
X16452754Y-15018750D02*
X16456889Y-15019621D01*
X16456889Y-15019621D02*
X16460923Y-15020653D01*
X16460923Y-15020653D02*
X16464855Y-15021836D01*
X16464855Y-15021836D02*
X16468574Y-15023122D01*
X16468574Y-15023122D02*
X16472192Y-15024535D01*
X16472192Y-15024535D02*
X16475877Y-15026147D01*
X16475877Y-15026147D02*
X16479317Y-15027816D01*
X16479317Y-15027816D02*
X16482781Y-15029666D01*
X16482781Y-15029666D02*
X16486034Y-15031569D01*
X16486034Y-15031569D02*
X16489209Y-15033590D01*
X16489209Y-15033590D02*
X16492301Y-15035725D01*
X16492301Y-15035725D02*
X16495190Y-15037881D01*
X16495190Y-15037881D02*
X16498544Y-15040594D01*
X16498544Y-15040594D02*
X16501294Y-15043005D01*
X16501294Y-15043005D02*
X16503900Y-15045460D01*
X16503900Y-15045460D02*
X16506430Y-15048019D01*
X16506430Y-15048019D02*
X16508880Y-15050682D01*
X16508880Y-15050682D02*
X16511210Y-15053403D01*
X16511210Y-15053403D02*
X16513547Y-15056341D01*
X16513547Y-15056341D02*
X16515709Y-15059275D01*
X16515709Y-15059275D02*
X16517890Y-15062478D01*
X16517890Y-15062478D02*
X16519832Y-15065573D01*
X16519832Y-15065573D02*
X16521773Y-15068942D01*
X16521773Y-15068942D02*
X16523534Y-15072289D01*
X16523534Y-15072289D02*
X16525171Y-15075708D01*
X16525171Y-15075708D02*
X16526738Y-15079339D01*
X16526738Y-15079339D02*
X16528164Y-15083042D01*
X16528164Y-15083042D02*
X16529435Y-15086776D01*
X16529435Y-15086776D02*
X16530580Y-15090649D01*
X16530580Y-15090649D02*
X16531598Y-15094699D01*
X16531598Y-15094699D02*
X16532477Y-15098964D01*
X16532477Y-15098964D02*
X16533172Y-15103293D01*
X16533172Y-15103293D02*
X16533704Y-15107957D01*
X16533704Y-15107957D02*
X16534022Y-15112763D01*
X16534022Y-15112763D02*
X16534112Y-15117021D01*
X16334044Y-15117021D02*
X16334162Y-15112124D01*
X16334162Y-15112124D02*
X16334522Y-15107208D01*
X16334522Y-15107208D02*
X16335072Y-15102671D01*
X16335072Y-15102671D02*
X16335801Y-15098312D01*
X16335801Y-15098312D02*
X16336699Y-15094095D01*
X16336699Y-15094095D02*
X16337741Y-15090055D01*
X16337741Y-15090055D02*
X16338935Y-15086119D01*
X16338935Y-15086119D02*
X16340245Y-15082360D01*
X16340245Y-15082360D02*
X16341773Y-15078495D01*
X16341773Y-15078495D02*
X16343310Y-15075019D01*
X16343310Y-15075019D02*
X16344975Y-15071613D01*
X16344975Y-15071613D02*
X16346772Y-15068265D01*
X16346772Y-15068265D02*
X16348673Y-15065025D01*
X16348673Y-15065025D02*
X16350784Y-15061723D01*
X16350784Y-15061723D02*
X16352931Y-15058633D01*
X16352931Y-15058633D02*
X16355075Y-15055776D01*
X16355075Y-15055776D02*
X16357365Y-15052941D01*
X16357365Y-15052941D02*
X16360032Y-15049886D01*
X16360032Y-15049886D02*
X16362504Y-15047263D01*
X16362504Y-15047263D02*
X16365395Y-15044420D01*
X16365395Y-15044420D02*
X16368399Y-15041694D01*
X16368399Y-15041694D02*
X16371131Y-15039397D01*
X16371131Y-15039397D02*
X16374006Y-15037151D01*
X16374006Y-15037151D02*
X16377056Y-15034944D01*
X16377056Y-15034944D02*
X16380064Y-15032931D01*
X16380064Y-15032931D02*
X16383179Y-15031005D01*
X16383179Y-15031005D02*
X16386436Y-15029155D01*
X16386436Y-15029155D02*
X16389801Y-15027408D01*
X16389801Y-15027408D02*
X16393239Y-15025785D01*
X16393239Y-15025785D02*
X16396889Y-15024233D01*
X16396889Y-15024233D02*
X16400611Y-15022822D01*
X16400611Y-15022822D02*
X16404366Y-15021568D01*
X16404366Y-15021568D02*
X16408521Y-15020370D01*
X16408521Y-15020370D02*
X16412635Y-15019373D01*
X16412635Y-15019373D02*
X16416812Y-15018547D01*
X16416812Y-15018547D02*
X16421304Y-15017862D01*
X16421304Y-15017862D02*
X16425900Y-15017375D01*
X16425900Y-15017375D02*
X16430816Y-15017088D01*
X16430816Y-15017088D02*
X16434290Y-15017030D01*
X16434290Y-15217097D02*
X16429370Y-15216979D01*
X16429370Y-15216979D02*
X16424691Y-15216644D01*
X16424691Y-15216644D02*
X16420190Y-15216115D01*
X16420190Y-15216115D02*
X16415829Y-15215404D01*
X16415829Y-15215404D02*
X16411420Y-15214482D01*
X16411420Y-15214482D02*
X16407364Y-15213448D01*
X16407364Y-15213448D02*
X16403375Y-15212250D01*
X16403375Y-15212250D02*
X16399638Y-15210960D01*
X16399638Y-15210960D02*
X16396040Y-15209558D01*
X16396040Y-15209558D02*
X16392546Y-15208038D01*
X16392546Y-15208038D02*
X16389122Y-15206392D01*
X16389122Y-15206392D02*
X16385772Y-15204621D01*
X16385772Y-15204621D02*
X16382418Y-15202681D01*
X16382418Y-15202681D02*
X16379305Y-15200720D01*
X16379305Y-15200720D02*
X16376316Y-15198682D01*
X16376316Y-15198682D02*
X16373317Y-15196471D01*
X16373317Y-15196471D02*
X16370463Y-15194202D01*
X16370463Y-15194202D02*
X16367722Y-15191857D01*
X16367722Y-15191857D02*
X16364960Y-15189313D01*
X16364960Y-15189313D02*
X16362400Y-15186776D01*
X16362400Y-15186776D02*
X16359831Y-15184038D01*
X16359831Y-15184038D02*
X16357486Y-15181349D01*
X16357486Y-15181349D02*
X16355190Y-15178517D01*
X16355190Y-15178517D02*
X16352953Y-15175541D01*
X16352953Y-15175541D02*
X16350868Y-15172544D01*
X16350868Y-15172544D02*
X16348890Y-15169468D01*
X16348890Y-15169468D02*
X16346930Y-15166152D01*
X16346930Y-15166152D02*
X16345113Y-15162790D01*
X16345113Y-15162790D02*
X16343439Y-15159386D01*
X16343439Y-15159386D02*
X16341773Y-15155631D01*
X16341773Y-15155631D02*
X16340312Y-15151939D01*
X16340312Y-15151939D02*
X16338995Y-15148178D01*
X16338995Y-15148178D02*
X16337815Y-15144312D01*
X16337815Y-15144312D02*
X16336779Y-15140345D01*
X16336779Y-15140345D02*
X16335882Y-15136200D01*
X16335882Y-15136200D02*
X16335140Y-15131877D01*
X16335140Y-15131877D02*
X16334569Y-15127335D01*
X16334569Y-15127335D02*
X16334187Y-15122412D01*
X16334187Y-15122412D02*
X16334045Y-15117426D01*
X16334045Y-15117426D02*
X16334044Y-15117021D01*
X9253337Y-7160674D02*
X9253337Y-7160674D01*
X7928812Y-15120154D02*
X7928691Y-15125105D01*
X7928691Y-15125105D02*
X7928349Y-15129836D01*
X7928349Y-15129836D02*
X7927812Y-15134348D01*
X7927812Y-15134348D02*
X7927034Y-15139026D01*
X7927034Y-15139026D02*
X7926097Y-15143402D01*
X7926097Y-15143402D02*
X7925045Y-15147445D01*
X7925045Y-15147445D02*
X7923782Y-15151566D01*
X7923782Y-15151566D02*
X7922457Y-15155323D01*
X7922457Y-15155323D02*
X7921034Y-15158904D01*
X7921034Y-15158904D02*
X7919478Y-15162416D01*
X7919478Y-15162416D02*
X7917636Y-15166158D01*
X7917636Y-15166158D02*
X7915814Y-15169515D01*
X7915814Y-15169515D02*
X7913890Y-15172761D01*
X7913890Y-15172761D02*
X7911848Y-15175927D01*
X7911848Y-15175927D02*
X7909604Y-15179131D01*
X7909604Y-15179131D02*
X7907263Y-15182211D01*
X7907263Y-15182211D02*
X7904954Y-15185026D01*
X7904954Y-15185026D02*
X7902559Y-15187740D01*
X7902559Y-15187740D02*
X7900122Y-15190311D01*
X7900122Y-15190311D02*
X7897528Y-15192860D01*
X7897528Y-15192860D02*
X7894872Y-15195288D01*
X7894872Y-15195288D02*
X7891899Y-15197811D01*
X7891899Y-15197811D02*
X7889067Y-15200037D01*
X7889067Y-15200037D02*
X7886155Y-15202161D01*
X7886155Y-15202161D02*
X7883071Y-15204243D01*
X7883071Y-15204243D02*
X7879583Y-15206404D01*
X7879583Y-15206404D02*
X7876352Y-15208235D01*
X7876352Y-15208235D02*
X7872946Y-15209998D01*
X7872946Y-15209998D02*
X7869102Y-15211794D01*
X7869102Y-15211794D02*
X7865509Y-15213297D01*
X7865509Y-15213297D02*
X7861848Y-15214661D01*
X7861848Y-15214661D02*
X7857956Y-15215935D01*
X7857956Y-15215935D02*
X7853959Y-15217060D01*
X7853959Y-15217060D02*
X7849878Y-15218026D01*
X7849878Y-15218026D02*
X7845620Y-15218841D01*
X7845620Y-15218841D02*
X7841165Y-15219489D01*
X7841165Y-15219489D02*
X7836610Y-15219941D01*
X7836610Y-15219941D02*
X7831639Y-15220195D01*
X7831639Y-15220195D02*
X7828990Y-15220230D01*
X7828990Y-15020162D02*
X7833913Y-15020282D01*
X7833913Y-15020282D02*
X7838581Y-15020621D01*
X7838581Y-15020621D02*
X7843148Y-15021167D01*
X7843148Y-15021167D02*
X7847461Y-15021882D01*
X7847461Y-15021882D02*
X7851597Y-15022754D01*
X7851597Y-15022754D02*
X7855632Y-15023786D01*
X7855632Y-15023786D02*
X7859564Y-15024968D01*
X7859564Y-15024968D02*
X7863285Y-15026255D01*
X7863285Y-15026255D02*
X7867113Y-15027755D01*
X7867113Y-15027755D02*
X7870657Y-15029311D01*
X7870657Y-15029311D02*
X7874028Y-15030948D01*
X7874028Y-15030948D02*
X7877492Y-15032799D01*
X7877492Y-15032799D02*
X7880745Y-15034702D01*
X7880745Y-15034702D02*
X7883920Y-15036723D01*
X7883920Y-15036723D02*
X7887012Y-15038858D01*
X7887012Y-15038858D02*
X7889901Y-15041013D01*
X7889901Y-15041013D02*
X7893284Y-15043751D01*
X7893284Y-15043751D02*
X7896004Y-15046137D01*
X7896004Y-15046137D02*
X7898609Y-15048592D01*
X7898609Y-15048592D02*
X7901139Y-15051152D01*
X7901139Y-15051152D02*
X7903589Y-15053814D01*
X7903589Y-15053814D02*
X7906014Y-15056652D01*
X7906014Y-15056652D02*
X7908255Y-15059474D01*
X7908255Y-15059474D02*
X7910416Y-15062408D01*
X7910416Y-15062408D02*
X7912596Y-15065610D01*
X7912596Y-15065610D02*
X7914538Y-15068706D01*
X7914538Y-15068706D02*
X7916478Y-15072074D01*
X7916478Y-15072074D02*
X7918238Y-15075421D01*
X7918238Y-15075421D02*
X7919859Y-15078807D01*
X7919859Y-15078807D02*
X7921442Y-15082472D01*
X7921442Y-15082472D02*
X7922868Y-15086174D01*
X7922868Y-15086174D02*
X7924137Y-15089909D01*
X7924137Y-15089909D02*
X7925282Y-15093782D01*
X7925282Y-15093782D02*
X7926299Y-15097831D01*
X7926299Y-15097831D02*
X7927178Y-15102097D01*
X7927178Y-15102097D02*
X7927872Y-15106426D01*
X7927872Y-15106426D02*
X7928404Y-15111090D01*
X7928404Y-15111090D02*
X7928722Y-15115895D01*
X7928722Y-15115895D02*
X7928812Y-15120154D01*
X7728812Y-15120154D02*
X7728930Y-15115257D01*
X7728930Y-15115257D02*
X7729290Y-15110341D01*
X7729290Y-15110341D02*
X7729839Y-15105804D01*
X7729839Y-15105804D02*
X7730567Y-15101445D01*
X7730567Y-15101445D02*
X7731464Y-15097227D01*
X7731464Y-15097227D02*
X7732506Y-15093187D01*
X7732506Y-15093187D02*
X7733699Y-15089252D01*
X7733699Y-15089252D02*
X7735021Y-15085457D01*
X7735021Y-15085457D02*
X7736535Y-15081628D01*
X7736535Y-15081628D02*
X7738071Y-15078152D01*
X7738071Y-15078152D02*
X7739734Y-15074746D01*
X7739734Y-15074746D02*
X7741522Y-15071414D01*
X7741522Y-15071414D02*
X7743371Y-15068254D01*
X7743371Y-15068254D02*
X7745456Y-15064982D01*
X7745456Y-15064982D02*
X7747509Y-15062010D01*
X7747509Y-15062010D02*
X7749689Y-15059087D01*
X7749689Y-15059087D02*
X7752019Y-15056189D01*
X7752019Y-15056189D02*
X7754379Y-15053465D01*
X7754379Y-15053465D02*
X7756833Y-15050827D01*
X7756833Y-15050827D02*
X7759705Y-15047967D01*
X7759705Y-15047967D02*
X7762353Y-15045522D01*
X7762353Y-15045522D02*
X7765088Y-15043173D01*
X7765088Y-15043173D02*
X7767908Y-15040921D01*
X7767908Y-15040921D02*
X7771177Y-15038509D01*
X7771177Y-15038509D02*
X7774166Y-15036474D01*
X7774166Y-15036474D02*
X7777361Y-15034467D01*
X7777361Y-15034467D02*
X7780636Y-15032579D01*
X7780636Y-15032579D02*
X7783953Y-15030829D01*
X7783953Y-15030829D02*
X7787654Y-15029058D01*
X7787654Y-15029058D02*
X7791189Y-15027537D01*
X7791189Y-15027537D02*
X7795044Y-15026058D01*
X7795044Y-15026058D02*
X7798828Y-15024781D01*
X7798828Y-15024781D02*
X7802976Y-15023572D01*
X7802976Y-15023572D02*
X7807044Y-15022573D01*
X7807044Y-15022573D02*
X7811446Y-15021693D01*
X7811446Y-15021693D02*
X7815836Y-15021018D01*
X7815836Y-15021018D02*
X7820406Y-15020524D01*
X7820406Y-15020524D02*
X7825196Y-15020233D01*
X7825196Y-15020233D02*
X7828990Y-15020162D01*
X7828990Y-15220230D02*
X7824073Y-15220111D01*
X7824073Y-15220111D02*
X7819298Y-15219768D01*
X7819298Y-15219768D02*
X7814743Y-15219226D01*
X7814743Y-15219226D02*
X7810445Y-15218519D01*
X7810445Y-15218519D02*
X7806286Y-15217650D01*
X7806286Y-15217650D02*
X7802137Y-15216596D01*
X7802137Y-15216596D02*
X7798077Y-15215377D01*
X7798077Y-15215377D02*
X7794325Y-15214080D01*
X7794325Y-15214080D02*
X7790659Y-15212647D01*
X7790659Y-15212647D02*
X7787135Y-15211108D01*
X7787135Y-15211108D02*
X7783716Y-15209456D01*
X7783716Y-15209456D02*
X7780156Y-15207561D01*
X7780156Y-15207561D02*
X7776974Y-15205706D01*
X7776974Y-15205706D02*
X7773788Y-15203686D01*
X7773788Y-15203686D02*
X7770778Y-15201618D01*
X7770778Y-15201618D02*
X7767788Y-15199398D01*
X7767788Y-15199398D02*
X7764973Y-15197143D01*
X7764973Y-15197143D02*
X7762157Y-15194715D01*
X7762157Y-15194715D02*
X7759529Y-15192277D01*
X7759529Y-15192277D02*
X7757016Y-15189774D01*
X7757016Y-15189774D02*
X7754504Y-15187087D01*
X7754504Y-15187087D02*
X7752104Y-15184323D01*
X7752104Y-15184323D02*
X7749850Y-15181532D01*
X7749850Y-15181532D02*
X7747707Y-15178674D01*
X7747707Y-15178674D02*
X7745456Y-15175426D01*
X7745456Y-15175426D02*
X7743449Y-15172279D01*
X7743449Y-15172279D02*
X7741448Y-15168857D01*
X7741448Y-15168857D02*
X7739665Y-15165518D01*
X7739665Y-15165518D02*
X7737880Y-15161830D01*
X7737880Y-15161830D02*
X7736359Y-15158341D01*
X7736359Y-15158341D02*
X7734929Y-15154677D01*
X7734929Y-15154677D02*
X7733616Y-15150872D01*
X7733616Y-15150872D02*
X7732459Y-15147018D01*
X7732459Y-15147018D02*
X7731429Y-15142986D01*
X7731429Y-15142986D02*
X7730553Y-15138834D01*
X7730553Y-15138834D02*
X7729839Y-15134542D01*
X7729839Y-15134542D02*
X7729293Y-15130033D01*
X7729293Y-15130033D02*
X7728938Y-15125225D01*
X7728938Y-15125225D02*
X7728812Y-15120154D01*
X8859832Y-5325575D02*
X8861223Y-5332064D01*
X8861223Y-5332064D02*
X8862835Y-5339582D01*
X8862835Y-5339582D02*
X8866701Y-5357613D01*
X8866701Y-5357613D02*
X8873235Y-5388085D01*
X8873235Y-5388085D02*
X8881174Y-5425111D01*
X8881174Y-5425111D02*
X8888026Y-5457067D01*
X8888026Y-5457067D02*
X8892952Y-5480039D01*
X8892952Y-5480039D02*
X8900852Y-5516879D01*
X8900852Y-5516879D02*
X8918407Y-5598751D01*
X8918407Y-5598751D02*
X8945215Y-5723771D01*
X8945215Y-5723771D02*
X8974938Y-5862385D01*
X8974938Y-5862385D02*
X9006744Y-6010711D01*
X9006744Y-6010711D02*
X9039800Y-6164867D01*
X9039800Y-6164867D02*
X9073274Y-6320970D01*
X9073274Y-6320970D02*
X9106332Y-6475139D01*
X9106332Y-6475139D02*
X9138144Y-6623491D01*
X9138144Y-6623491D02*
X9167876Y-6762144D01*
X9167876Y-6762144D02*
X9188199Y-6856918D01*
X9188199Y-6856918D02*
X9200725Y-6915330D01*
X9200725Y-6915330D02*
X9217772Y-6994824D01*
X9217772Y-6994824D02*
X9231957Y-7060977D01*
X9231957Y-7060977D02*
X9239906Y-7098045D01*
X9239906Y-7098045D02*
X9246451Y-7128563D01*
X9246451Y-7128563D02*
X9251487Y-7152046D01*
X9251487Y-7152046D02*
X9253337Y-7160674D01*
X8862050Y-5313527D02*
X8860372Y-5316949D01*
X8860372Y-5316949D02*
X8859510Y-5321184D01*
X8859510Y-5321184D02*
X8859832Y-5325575D01*
X8872142Y-5306576D02*
X8868401Y-5307875D01*
X8868401Y-5307875D02*
X8865337Y-5309847D01*
X8865337Y-5309847D02*
X8862814Y-5312445D01*
X8862814Y-5312445D02*
X8862050Y-5313527D01*
X14505414Y-4105571D02*
X14466625Y-4113840D01*
X14466625Y-4113840D02*
X14304411Y-4148424D01*
X14304411Y-4148424D02*
X13906686Y-4233219D01*
X13906686Y-4233219D02*
X13129336Y-4398949D01*
X13129336Y-4398949D02*
X12187286Y-4599793D01*
X12187286Y-4599793D02*
X10691855Y-4918616D01*
X10691855Y-4918616D02*
X9470909Y-5178920D01*
X9470909Y-5178920D02*
X9073166Y-5263718D01*
X9073166Y-5263718D02*
X8910939Y-5298305D01*
X8910939Y-5298305D02*
X8872142Y-5306576D01*
X14517521Y-4107797D02*
X14514153Y-4106155D01*
X14514153Y-4106155D02*
X14510034Y-4105273D01*
X14510034Y-4105273D02*
X14505414Y-4105571D01*
X14524379Y-4117898D02*
X14523097Y-4114113D01*
X14523097Y-4114113D02*
X14521115Y-4111016D01*
X14521115Y-4111016D02*
X14518579Y-4108549D01*
X14518579Y-4108549D02*
X14517521Y-4107797D01*
X7434697Y-7545882D02*
X7432213Y-7543349D01*
X7432213Y-7543349D02*
X7430301Y-7540232D01*
X7430301Y-7540232D02*
X7429082Y-7536448D01*
X7429082Y-7536448D02*
X7428804Y-7533479D01*
X16434290Y-3317070D02*
X16434290Y-3317070D01*
X7828990Y-3117070D02*
X7833913Y-3117190D01*
X7833913Y-3117190D02*
X7838581Y-3117528D01*
X7838581Y-3117528D02*
X7843323Y-3118099D01*
X7843323Y-3118099D02*
X7847652Y-3118824D01*
X7847652Y-3118824D02*
X7851860Y-3119720D01*
X7851860Y-3119720D02*
X7855891Y-3120761D01*
X7855891Y-3120761D02*
X7859856Y-3121964D01*
X7859856Y-3121964D02*
X7863750Y-3123326D01*
X7863750Y-3123326D02*
X7867394Y-3124770D01*
X7867394Y-3124770D02*
X7871035Y-3126383D01*
X7871035Y-3126383D02*
X7874432Y-3128049D01*
X7874432Y-3128049D02*
X7877755Y-3129838D01*
X7877755Y-3129838D02*
X7880970Y-3131729D01*
X7880970Y-3131729D02*
X7884045Y-3133694D01*
X7884045Y-3133694D02*
X7887043Y-3135766D01*
X7887043Y-3135766D02*
X7890020Y-3137989D01*
X7890020Y-3137989D02*
X7892824Y-3140247D01*
X7892824Y-3140247D02*
X7895545Y-3142603D01*
X7895545Y-3142603D02*
X7898502Y-3145367D01*
X7898502Y-3145367D02*
X7901035Y-3147921D01*
X7901035Y-3147921D02*
X7903477Y-3150565D01*
X7903477Y-3150565D02*
X7905823Y-3153295D01*
X7905823Y-3153295D02*
X7908049Y-3156079D01*
X7908049Y-3156079D02*
X7910220Y-3159005D01*
X7910220Y-3159005D02*
X7912276Y-3161995D01*
X7912276Y-3161995D02*
X7914284Y-3165159D01*
X7914284Y-3165159D02*
X7916130Y-3168318D01*
X7916130Y-3168318D02*
X7917896Y-3171618D01*
X7917896Y-3171618D02*
X7919558Y-3175023D01*
X7919558Y-3175023D02*
X7921137Y-3178605D01*
X7921137Y-3178605D02*
X7922604Y-3182330D01*
X7922604Y-3182330D02*
X7923914Y-3186090D01*
X7923914Y-3186090D02*
X7925086Y-3189953D01*
X7925086Y-3189953D02*
X7926123Y-3193955D01*
X7926123Y-3193955D02*
X7927027Y-3198173D01*
X7927027Y-3198173D02*
X7927762Y-3202533D01*
X7927762Y-3202533D02*
X7928318Y-3207072D01*
X7928318Y-3207072D02*
X7928677Y-3211831D01*
X7928677Y-3211831D02*
X7928811Y-3216811D01*
X7928811Y-3216811D02*
X7928812Y-3217053D01*
X7728812Y-3217053D02*
X7728929Y-3212170D01*
X7728929Y-3212170D02*
X7729274Y-3207387D01*
X7729274Y-3207387D02*
X7729811Y-3202883D01*
X7729811Y-3202883D02*
X7730531Y-3198518D01*
X7730531Y-3198518D02*
X7731420Y-3194295D01*
X7731420Y-3194295D02*
X7732454Y-3190250D01*
X7732454Y-3190250D02*
X7733652Y-3186272D01*
X7733652Y-3186272D02*
X7734968Y-3182474D01*
X7734968Y-3182474D02*
X7736535Y-3178500D01*
X7736535Y-3178500D02*
X7738071Y-3175023D01*
X7738071Y-3175023D02*
X7739734Y-3171618D01*
X7739734Y-3171618D02*
X7741522Y-3168285D01*
X7741522Y-3168285D02*
X7743371Y-3165126D01*
X7743371Y-3165126D02*
X7745456Y-3161854D01*
X7745456Y-3161854D02*
X7747509Y-3158883D01*
X7747509Y-3158883D02*
X7749666Y-3155990D01*
X7749666Y-3155990D02*
X7752019Y-3153064D01*
X7752019Y-3153064D02*
X7754379Y-3150341D01*
X7754379Y-3150341D02*
X7756807Y-3147732D01*
X7756807Y-3147732D02*
X7759381Y-3145158D01*
X7759381Y-3145158D02*
X7762018Y-3142703D01*
X7762018Y-3142703D02*
X7764713Y-3140368D01*
X7764713Y-3140368D02*
X7767878Y-3137829D01*
X7767878Y-3137829D02*
X7771054Y-3135482D01*
X7771054Y-3135482D02*
X7774040Y-3133445D01*
X7774040Y-3133445D02*
X7777329Y-3131377D01*
X7777329Y-3131377D02*
X7780636Y-3129471D01*
X7780636Y-3129471D02*
X7783953Y-3127723D01*
X7783953Y-3127723D02*
X7787411Y-3126065D01*
X7787411Y-3126065D02*
X7791047Y-3124493D01*
X7791047Y-3124493D02*
X7794756Y-3123062D01*
X7794756Y-3123062D02*
X7798534Y-3121776D01*
X7798534Y-3121776D02*
X7802491Y-3120606D01*
X7802491Y-3120606D02*
X7806551Y-3119589D01*
X7806551Y-3119589D02*
X7810714Y-3118730D01*
X7810714Y-3118730D02*
X7815055Y-3118030D01*
X7815055Y-3118030D02*
X7819772Y-3117488D01*
X7819772Y-3117488D02*
X7824574Y-3117166D01*
X7824574Y-3117166D02*
X7828990Y-3117070D01*
X7828990Y-3317070D02*
X7824073Y-3316952D01*
X7824073Y-3316952D02*
X7819298Y-3316608D01*
X7819298Y-3316608D02*
X7814743Y-3316067D01*
X7814743Y-3316067D02*
X7810445Y-3315362D01*
X7810445Y-3315362D02*
X7806172Y-3314467D01*
X7806172Y-3314467D02*
X7802081Y-3313425D01*
X7802081Y-3313425D02*
X7798077Y-3312223D01*
X7798077Y-3312223D02*
X7794037Y-3310821D01*
X7794037Y-3310821D02*
X7790430Y-3309401D01*
X7790430Y-3309401D02*
X7786721Y-3307767D01*
X7786721Y-3307767D02*
X7783311Y-3306103D01*
X7783311Y-3306103D02*
X7779975Y-3304314D01*
X7779975Y-3304314D02*
X7776748Y-3302425D01*
X7776748Y-3302425D02*
X7773663Y-3300462D01*
X7773663Y-3300462D02*
X7770564Y-3298325D01*
X7770564Y-3298325D02*
X7767669Y-3296168D01*
X7767669Y-3296168D02*
X7764857Y-3293911D01*
X7764857Y-3293911D02*
X7762157Y-3291582D01*
X7762157Y-3291582D02*
X7759529Y-3289146D01*
X7759529Y-3289146D02*
X7756938Y-3286564D01*
X7756938Y-3286564D02*
X7754504Y-3283960D01*
X7754504Y-3283960D02*
X7752116Y-3281213D01*
X7752116Y-3281213D02*
X7749850Y-3278409D01*
X7749850Y-3278409D02*
X7747685Y-3275523D01*
X7747685Y-3275523D02*
X7745539Y-3272433D01*
X7745539Y-3272433D02*
X7743568Y-3269355D01*
X7743568Y-3269355D02*
X7741688Y-3266170D01*
X7741688Y-3266170D02*
X7739873Y-3262810D01*
X7739873Y-3262810D02*
X7738199Y-3259408D01*
X7738199Y-3259408D02*
X7736653Y-3255935D01*
X7736653Y-3255935D02*
X7735182Y-3252250D01*
X7735182Y-3252250D02*
X7733807Y-3248350D01*
X7733807Y-3248350D02*
X7732601Y-3244414D01*
X7732601Y-3244414D02*
X7731545Y-3240373D01*
X7731545Y-3240373D02*
X7730648Y-3236230D01*
X7730648Y-3236230D02*
X7729913Y-3231946D01*
X7729913Y-3231946D02*
X7729349Y-3227484D01*
X7729349Y-3227484D02*
X7728972Y-3222764D01*
X7728972Y-3222764D02*
X7728815Y-3217822D01*
X7728815Y-3217822D02*
X7728812Y-3217053D01*
X7828990Y-3317070D02*
X7828990Y-3317070D01*
X16434290Y-3317070D02*
X16429370Y-3316952D01*
X16429370Y-3316952D02*
X16424691Y-3316618D01*
X16424691Y-3316618D02*
X16420190Y-3316089D01*
X16420190Y-3316089D02*
X16415829Y-3315379D01*
X16415829Y-3315379D02*
X16411572Y-3314494D01*
X16411572Y-3314494D02*
X16407513Y-3313466D01*
X16407513Y-3313466D02*
X16403522Y-3312276D01*
X16403522Y-3312276D02*
X16399602Y-3310927D01*
X16399602Y-3310927D02*
X16395758Y-3309423D01*
X16395758Y-3309423D02*
X16392269Y-3307895D01*
X16392269Y-3307895D02*
X16388716Y-3306172D01*
X16388716Y-3306172D02*
X16385375Y-3304388D01*
X16385375Y-3304388D02*
X16382014Y-3302425D01*
X16382014Y-3302425D02*
X16378927Y-3300462D01*
X16378927Y-3300462D02*
X16375948Y-3298413D01*
X16375948Y-3298413D02*
X16372974Y-3296203D01*
X16372974Y-3296203D02*
X16370000Y-3293815D01*
X16370000Y-3293815D02*
X16367274Y-3291456D01*
X16367274Y-3291456D02*
X16364662Y-3289029D01*
X16364662Y-3289029D02*
X16361982Y-3286349D01*
X16361982Y-3286349D02*
X16359529Y-3283709D01*
X16359529Y-3283709D02*
X16356909Y-3280665D01*
X16356909Y-3280665D02*
X16354638Y-3277814D01*
X16354638Y-3277814D02*
X16352493Y-3274912D01*
X16352493Y-3274912D02*
X16350451Y-3271930D01*
X16350451Y-3271930D02*
X16348496Y-3268841D01*
X16348496Y-3268841D02*
X16346487Y-3265379D01*
X16346487Y-3265379D02*
X16344700Y-3262000D01*
X16344700Y-3262000D02*
X16343063Y-3258598D01*
X16343063Y-3258598D02*
X16341539Y-3255091D01*
X16341539Y-3255091D02*
X16340047Y-3251246D01*
X16340047Y-3251246D02*
X16338723Y-3247363D01*
X16338723Y-3247363D02*
X16337551Y-3243392D01*
X16337551Y-3243392D02*
X16336549Y-3239391D01*
X16336549Y-3239391D02*
X16335686Y-3235194D01*
X16335686Y-3235194D02*
X16334984Y-3230817D01*
X16334984Y-3230817D02*
X16334466Y-3226300D01*
X16334466Y-3226300D02*
X16334145Y-3221584D01*
X16334145Y-3221584D02*
X16334044Y-3217053D01*
X14947628Y-4309482D02*
X14947628Y-4309482D01*
X7928812Y-3217053D02*
X7928691Y-3222004D01*
X7928691Y-3222004D02*
X7928349Y-3226735D01*
X7928349Y-3226735D02*
X7927812Y-3231246D01*
X7927812Y-3231246D02*
X7927092Y-3235616D01*
X7927092Y-3235616D02*
X7926221Y-3239769D01*
X7926221Y-3239769D02*
X7925190Y-3243820D01*
X7925190Y-3243820D02*
X7924008Y-3247766D01*
X7924008Y-3247766D02*
X7922710Y-3251534D01*
X7922710Y-3251534D02*
X7921268Y-3255232D01*
X7921268Y-3255232D02*
X7919733Y-3258753D01*
X7919733Y-3258753D02*
X7918085Y-3262169D01*
X7918085Y-3262169D02*
X7916111Y-3265874D01*
X7916111Y-3265874D02*
X7914127Y-3269259D01*
X7914127Y-3269259D02*
X7912099Y-3272433D01*
X7912099Y-3272433D02*
X7910045Y-3275401D01*
X7910045Y-3275401D02*
X7907888Y-3278290D01*
X7907888Y-3278290D02*
X7905631Y-3281098D01*
X7905631Y-3281098D02*
X7903264Y-3283834D01*
X7903264Y-3283834D02*
X7900828Y-3286457D01*
X7900828Y-3286457D02*
X7898287Y-3289003D01*
X7898287Y-3289003D02*
X7895656Y-3291456D01*
X7895656Y-3291456D02*
X7892939Y-3293815D01*
X7892939Y-3293815D02*
X7890153Y-3296065D01*
X7890153Y-3296065D02*
X7887286Y-3298215D01*
X7887286Y-3298215D02*
X7884295Y-3300295D01*
X7884295Y-3300295D02*
X7881114Y-3302336D01*
X7881114Y-3302336D02*
X7877919Y-3304221D01*
X7877919Y-3304221D02*
X7874415Y-3306111D01*
X7874415Y-3306111D02*
X7871035Y-3307767D01*
X7871035Y-3307767D02*
X7867534Y-3309320D01*
X7867534Y-3309320D02*
X7863874Y-3310774D01*
X7863874Y-3310774D02*
X7859892Y-3312170D01*
X7859892Y-3312170D02*
X7856039Y-3313342D01*
X7856039Y-3313342D02*
X7851860Y-3314423D01*
X7851860Y-3314423D02*
X7847595Y-3315329D01*
X7847595Y-3315329D02*
X7843265Y-3316051D01*
X7843265Y-3316051D02*
X7838600Y-3316610D01*
X7838600Y-3316610D02*
X7833714Y-3316959D01*
X7833714Y-3316959D02*
X7828990Y-3317070D01*
X14947628Y-4109482D02*
X14952509Y-4109600D01*
X14952509Y-4109600D02*
X14957215Y-4109940D01*
X14957215Y-4109940D02*
X14961955Y-4110511D01*
X14961955Y-4110511D02*
X14966245Y-4111228D01*
X14966245Y-4111228D02*
X14970490Y-4112132D01*
X14970490Y-4112132D02*
X14974521Y-4113173D01*
X14974521Y-4113173D02*
X14978484Y-4114376D01*
X14978484Y-4114376D02*
X14982234Y-4115685D01*
X14982234Y-4115685D02*
X14986021Y-4117182D01*
X14986021Y-4117182D02*
X14989662Y-4118795D01*
X14989662Y-4118795D02*
X14993059Y-4120461D01*
X14993059Y-4120461D02*
X14996382Y-4122250D01*
X14996382Y-4122250D02*
X14999597Y-4124141D01*
X14999597Y-4124141D02*
X15002672Y-4126106D01*
X15002672Y-4126106D02*
X15005670Y-4128178D01*
X15005670Y-4128178D02*
X15008647Y-4130401D01*
X15008647Y-4130401D02*
X15011452Y-4132659D01*
X15011452Y-4132659D02*
X15014173Y-4135015D01*
X15014173Y-4135015D02*
X15017130Y-4137779D01*
X15017130Y-4137779D02*
X15019664Y-4140333D01*
X15019664Y-4140333D02*
X15022106Y-4142976D01*
X15022106Y-4142976D02*
X15024453Y-4145707D01*
X15024453Y-4145707D02*
X15026679Y-4148491D01*
X15026679Y-4148491D02*
X15028851Y-4151417D01*
X15028851Y-4151417D02*
X15030897Y-4154391D01*
X15030897Y-4154391D02*
X15032916Y-4157570D01*
X15032916Y-4157570D02*
X15034762Y-4160730D01*
X15034762Y-4160730D02*
X15036529Y-4164029D01*
X15036529Y-4164029D02*
X15038191Y-4167435D01*
X15038191Y-4167435D02*
X15039771Y-4171017D01*
X15039771Y-4171017D02*
X15041239Y-4174742D01*
X15041239Y-4174742D02*
X15042549Y-4178502D01*
X15042549Y-4178502D02*
X15043722Y-4182364D01*
X15043722Y-4182364D02*
X15044760Y-4186367D01*
X15044760Y-4186367D02*
X15045664Y-4190585D01*
X15045664Y-4190585D02*
X15046399Y-4194945D01*
X15046399Y-4194945D02*
X15046956Y-4199484D01*
X15046956Y-4199484D02*
X15047315Y-4204243D01*
X15047315Y-4204243D02*
X15047449Y-4209223D01*
X15047449Y-4209223D02*
X15047450Y-4209465D01*
X14847467Y-4209465D02*
X14847584Y-4204582D01*
X14847584Y-4204582D02*
X14847929Y-4199799D01*
X14847929Y-4199799D02*
X14848470Y-4195256D01*
X14848470Y-4195256D02*
X14849184Y-4190930D01*
X14849184Y-4190930D02*
X14850072Y-4186706D01*
X14850072Y-4186706D02*
X14851106Y-4182662D01*
X14851106Y-4182662D02*
X14852302Y-4178684D01*
X14852302Y-4178684D02*
X14853617Y-4174885D01*
X14853617Y-4174885D02*
X14855065Y-4171193D01*
X14855065Y-4171193D02*
X14856590Y-4167711D01*
X14856590Y-4167711D02*
X14858310Y-4164164D01*
X14858310Y-4164164D02*
X14860091Y-4160829D01*
X14860091Y-4160829D02*
X14861974Y-4157603D01*
X14861974Y-4157603D02*
X14863931Y-4154517D01*
X14863931Y-4154517D02*
X14865996Y-4151509D01*
X14865996Y-4151509D02*
X14868212Y-4148521D01*
X14868212Y-4148521D02*
X14870464Y-4145707D01*
X14870464Y-4145707D02*
X14872814Y-4142976D01*
X14872814Y-4142976D02*
X14875260Y-4140333D01*
X14875260Y-4140333D02*
X14877798Y-4137779D01*
X14877798Y-4137779D02*
X14880427Y-4135316D01*
X14880427Y-4135316D02*
X14883258Y-4132852D01*
X14883258Y-4132852D02*
X14886537Y-4130218D01*
X14886537Y-4130218D02*
X14889683Y-4127894D01*
X14889683Y-4127894D02*
X14892669Y-4125857D01*
X14892669Y-4125857D02*
X14895859Y-4123847D01*
X14895859Y-4123847D02*
X14899081Y-4121983D01*
X14899081Y-4121983D02*
X14902444Y-4120203D01*
X14902444Y-4120203D02*
X14906037Y-4118476D01*
X14906037Y-4118476D02*
X14909674Y-4116905D01*
X14909674Y-4116905D02*
X14913383Y-4115474D01*
X14913383Y-4115474D02*
X14917161Y-4114188D01*
X14917161Y-4114188D02*
X14921118Y-4113018D01*
X14921118Y-4113018D02*
X14925180Y-4112000D01*
X14925180Y-4112000D02*
X14929344Y-4111142D01*
X14929344Y-4111142D02*
X14933725Y-4110436D01*
X14933725Y-4110436D02*
X14938247Y-4109914D01*
X14938247Y-4109914D02*
X14943029Y-4109585D01*
X14943029Y-4109585D02*
X14947628Y-4109482D01*
X9224974Y-4991565D02*
X9224853Y-4996516D01*
X9224853Y-4996516D02*
X9224511Y-5001247D01*
X9224511Y-5001247D02*
X9223974Y-5005758D01*
X9223974Y-5005758D02*
X9223254Y-5010128D01*
X9223254Y-5010128D02*
X9222383Y-5014281D01*
X9222383Y-5014281D02*
X9221352Y-5018332D01*
X9221352Y-5018332D02*
X9220171Y-5022277D01*
X9220171Y-5022277D02*
X9218873Y-5026046D01*
X9218873Y-5026046D02*
X9217430Y-5029744D01*
X9217430Y-5029744D02*
X9215895Y-5033265D01*
X9215895Y-5033265D02*
X9214247Y-5036680D01*
X9214247Y-5036680D02*
X9212273Y-5040386D01*
X9212273Y-5040386D02*
X9210289Y-5043771D01*
X9210289Y-5043771D02*
X9208261Y-5046944D01*
X9208261Y-5046944D02*
X9206207Y-5049913D01*
X9206207Y-5049913D02*
X9204050Y-5052802D01*
X9204050Y-5052802D02*
X9201793Y-5055609D01*
X9201793Y-5055609D02*
X9199426Y-5058346D01*
X9199426Y-5058346D02*
X9196990Y-5060968D01*
X9196990Y-5060968D02*
X9194449Y-5063515D01*
X9194449Y-5063515D02*
X9191818Y-5065968D01*
X9191818Y-5065968D02*
X9189101Y-5068327D01*
X9189101Y-5068327D02*
X9186315Y-5070576D01*
X9186315Y-5070576D02*
X9183449Y-5072727D01*
X9183449Y-5072727D02*
X9180458Y-5074807D01*
X9180458Y-5074807D02*
X9177277Y-5076848D01*
X9177277Y-5076848D02*
X9174081Y-5078733D01*
X9174081Y-5078733D02*
X9170577Y-5080623D01*
X9170577Y-5080623D02*
X9167197Y-5082279D01*
X9167197Y-5082279D02*
X9163696Y-5083832D01*
X9163696Y-5083832D02*
X9160037Y-5085286D01*
X9160037Y-5085286D02*
X9156054Y-5086681D01*
X9156054Y-5086681D02*
X9152202Y-5087854D01*
X9152202Y-5087854D02*
X9148023Y-5088935D01*
X9148023Y-5088935D02*
X9143757Y-5089841D01*
X9143757Y-5089841D02*
X9139427Y-5090562D01*
X9139427Y-5090562D02*
X9134762Y-5091122D01*
X9134762Y-5091122D02*
X9129876Y-5091471D01*
X9129876Y-5091471D02*
X9125152Y-5091582D01*
X9125152Y-4891582D02*
X9130076Y-4891702D01*
X9130076Y-4891702D02*
X9134743Y-4892040D01*
X9134743Y-4892040D02*
X9139485Y-4892610D01*
X9139485Y-4892610D02*
X9143814Y-4893335D01*
X9143814Y-4893335D02*
X9148023Y-4894232D01*
X9148023Y-4894232D02*
X9152054Y-4895273D01*
X9152054Y-4895273D02*
X9156018Y-4896476D01*
X9156018Y-4896476D02*
X9159912Y-4897838D01*
X9159912Y-4897838D02*
X9163556Y-4899282D01*
X9163556Y-4899282D02*
X9167197Y-4900895D01*
X9167197Y-4900895D02*
X9170594Y-4902561D01*
X9170594Y-4902561D02*
X9173917Y-4904350D01*
X9173917Y-4904350D02*
X9177132Y-4906241D01*
X9177132Y-4906241D02*
X9180207Y-4908206D01*
X9180207Y-4908206D02*
X9183205Y-4910278D01*
X9183205Y-4910278D02*
X9186182Y-4912501D01*
X9186182Y-4912501D02*
X9188986Y-4914759D01*
X9188986Y-4914759D02*
X9191707Y-4917115D01*
X9191707Y-4917115D02*
X9194664Y-4919879D01*
X9194664Y-4919879D02*
X9197197Y-4922433D01*
X9197197Y-4922433D02*
X9199639Y-4925076D01*
X9199639Y-4925076D02*
X9201985Y-4927807D01*
X9201985Y-4927807D02*
X9204211Y-4930591D01*
X9204211Y-4930591D02*
X9206382Y-4933517D01*
X9206382Y-4933517D02*
X9208438Y-4936507D01*
X9208438Y-4936507D02*
X9210446Y-4939670D01*
X9210446Y-4939670D02*
X9212292Y-4942830D01*
X9212292Y-4942830D02*
X9214058Y-4946129D01*
X9214058Y-4946129D02*
X9215720Y-4949535D01*
X9215720Y-4949535D02*
X9217299Y-4953117D01*
X9217299Y-4953117D02*
X9218767Y-4956842D01*
X9218767Y-4956842D02*
X9220076Y-4960602D01*
X9220076Y-4960602D02*
X9221249Y-4964464D01*
X9221249Y-4964464D02*
X9222285Y-4968467D01*
X9222285Y-4968467D02*
X9223189Y-4972685D01*
X9223189Y-4972685D02*
X9223924Y-4977045D01*
X9223924Y-4977045D02*
X9224480Y-4981584D01*
X9224480Y-4981584D02*
X9224839Y-4986343D01*
X9224839Y-4986343D02*
X9224973Y-4991323D01*
X9224973Y-4991323D02*
X9224974Y-4991565D01*
X14947628Y-4309482D02*
X14942709Y-4309364D01*
X14942709Y-4309364D02*
X14938029Y-4309030D01*
X14938029Y-4309030D02*
X14933491Y-4308496D01*
X14933491Y-4308496D02*
X14929190Y-4307795D01*
X14929190Y-4307795D02*
X14924914Y-4306906D01*
X14924914Y-4306906D02*
X14920708Y-4305837D01*
X14920708Y-4305837D02*
X14916703Y-4304635D01*
X14916703Y-4304635D02*
X14912664Y-4303233D01*
X14912664Y-4303233D02*
X14909056Y-4301813D01*
X14909056Y-4301813D02*
X14905347Y-4300179D01*
X14905347Y-4300179D02*
X14901937Y-4298515D01*
X14901937Y-4298515D02*
X14898635Y-4296745D01*
X14898635Y-4296745D02*
X14895472Y-4294896D01*
X14895472Y-4294896D02*
X14892322Y-4292894D01*
X14892322Y-4292894D02*
X14889055Y-4290638D01*
X14889055Y-4290638D02*
X14886181Y-4288488D01*
X14886181Y-4288488D02*
X14883402Y-4286251D01*
X14883402Y-4286251D02*
X14880691Y-4283906D01*
X14880691Y-4283906D02*
X14878041Y-4281441D01*
X14878041Y-4281441D02*
X14875468Y-4278869D01*
X14875468Y-4278869D02*
X14873052Y-4276275D01*
X14873052Y-4276275D02*
X14870656Y-4273510D01*
X14870656Y-4273510D02*
X14868396Y-4270702D01*
X14868396Y-4270702D02*
X14866061Y-4267569D01*
X14866061Y-4267569D02*
X14864014Y-4264594D01*
X14864014Y-4264594D02*
X14861994Y-4261414D01*
X14861994Y-4261414D02*
X14860018Y-4258022D01*
X14860018Y-4258022D02*
X14858242Y-4254682D01*
X14858242Y-4254682D02*
X14856542Y-4251165D01*
X14856542Y-4251165D02*
X14855007Y-4247644D01*
X14855007Y-4247644D02*
X14853564Y-4243946D01*
X14853564Y-4243946D02*
X14852219Y-4240031D01*
X14852219Y-4240031D02*
X14851064Y-4236157D01*
X14851064Y-4236157D02*
X14850037Y-4232106D01*
X14850037Y-4232106D02*
X14849162Y-4227913D01*
X14849162Y-4227913D02*
X14848448Y-4223541D01*
X14848448Y-4223541D02*
X14847914Y-4218989D01*
X14847914Y-4218989D02*
X14847577Y-4214216D01*
X14847577Y-4214216D02*
X14847467Y-4209465D01*
X16434290Y-6217073D02*
X16434290Y-6217073D01*
X16434290Y-6217073D02*
X16429370Y-6216954D01*
X16429370Y-6216954D02*
X16424691Y-6216621D01*
X16424691Y-6216621D02*
X16420190Y-6216092D01*
X16420190Y-6216092D02*
X16415829Y-6215382D01*
X16415829Y-6215382D02*
X16411572Y-6214496D01*
X16411572Y-6214496D02*
X16407513Y-6213469D01*
X16407513Y-6213469D02*
X16403522Y-6212279D01*
X16403522Y-6212279D02*
X16399602Y-6210930D01*
X16399602Y-6210930D02*
X16395758Y-6209426D01*
X16395758Y-6209426D02*
X16392269Y-6207898D01*
X16392269Y-6207898D02*
X16388716Y-6206174D01*
X16388716Y-6206174D02*
X16385375Y-6204391D01*
X16385375Y-6204391D02*
X16382014Y-6202427D01*
X16382014Y-6202427D02*
X16378927Y-6200464D01*
X16378927Y-6200464D02*
X16375948Y-6198415D01*
X16375948Y-6198415D02*
X16372974Y-6196205D01*
X16372974Y-6196205D02*
X16370000Y-6193818D01*
X16370000Y-6193818D02*
X16367274Y-6191459D01*
X16367274Y-6191459D02*
X16364662Y-6189031D01*
X16364662Y-6189031D02*
X16361982Y-6186351D01*
X16361982Y-6186351D02*
X16359529Y-6183712D01*
X16359529Y-6183712D02*
X16356909Y-6180667D01*
X16356909Y-6180667D02*
X16354638Y-6177817D01*
X16354638Y-6177817D02*
X16352493Y-6174914D01*
X16352493Y-6174914D02*
X16350451Y-6171933D01*
X16350451Y-6171933D02*
X16348496Y-6168843D01*
X16348496Y-6168843D02*
X16346487Y-6165381D01*
X16346487Y-6165381D02*
X16344700Y-6162002D01*
X16344700Y-6162002D02*
X16343063Y-6158600D01*
X16343063Y-6158600D02*
X16341539Y-6155094D01*
X16341539Y-6155094D02*
X16340047Y-6151249D01*
X16340047Y-6151249D02*
X16338723Y-6147366D01*
X16338723Y-6147366D02*
X16337551Y-6143394D01*
X16337551Y-6143394D02*
X16336549Y-6139394D01*
X16336549Y-6139394D02*
X16335686Y-6135196D01*
X16335686Y-6135196D02*
X16334984Y-6130820D01*
X16334984Y-6130820D02*
X16334466Y-6126303D01*
X16334466Y-6126303D02*
X16334145Y-6121587D01*
X16334145Y-6121587D02*
X16334044Y-6117056D01*
X7828990Y-11142937D02*
X7828990Y-11142937D01*
X8319997Y-6047003D02*
X8319997Y-6047003D01*
X16534112Y-6117056D02*
X16533991Y-6122007D01*
X16533991Y-6122007D02*
X16533649Y-6126738D01*
X16533649Y-6126738D02*
X16533111Y-6131249D01*
X16533111Y-6131249D02*
X16532391Y-6135619D01*
X16532391Y-6135619D02*
X16531519Y-6139772D01*
X16531519Y-6139772D02*
X16530498Y-6143785D01*
X16530498Y-6143785D02*
X16529306Y-6147768D01*
X16529306Y-6147768D02*
X16528007Y-6151536D01*
X16528007Y-6151536D02*
X16526564Y-6155235D01*
X16526564Y-6155235D02*
X16525029Y-6158756D01*
X16525029Y-6158756D02*
X16523380Y-6162171D01*
X16523380Y-6162171D02*
X16521480Y-6165745D01*
X16521480Y-6165745D02*
X16519637Y-6168908D01*
X16519637Y-6168908D02*
X16517663Y-6172027D01*
X16517663Y-6172027D02*
X16515622Y-6175006D01*
X16515622Y-6175006D02*
X16513444Y-6177951D01*
X16513444Y-6177951D02*
X16511210Y-6180754D01*
X16511210Y-6180754D02*
X16508880Y-6183474D01*
X16508880Y-6183474D02*
X16506430Y-6186135D01*
X16506430Y-6186135D02*
X16503900Y-6188692D01*
X16503900Y-6188692D02*
X16501321Y-6191120D01*
X16501321Y-6191120D02*
X16498573Y-6193528D01*
X16498573Y-6193528D02*
X16495782Y-6195802D01*
X16495782Y-6195802D02*
X16492910Y-6197975D01*
X16492910Y-6197975D02*
X16489959Y-6200046D01*
X16489959Y-6200046D02*
X16486675Y-6202171D01*
X16486675Y-6202171D02*
X16483470Y-6204075D01*
X16483470Y-6204075D02*
X16479704Y-6206114D01*
X16479704Y-6206114D02*
X16476324Y-6207770D01*
X16476324Y-6207770D02*
X16472823Y-6209323D01*
X16472823Y-6209323D02*
X16469164Y-6210777D01*
X16469164Y-6210777D02*
X16465437Y-6212089D01*
X16465437Y-6212089D02*
X16461515Y-6213292D01*
X16461515Y-6213292D02*
X16457453Y-6214354D01*
X16457453Y-6214354D02*
X16453327Y-6215248D01*
X16453327Y-6215248D02*
X16448637Y-6216042D01*
X16448637Y-6216042D02*
X16443896Y-6216613D01*
X16443896Y-6216613D02*
X16439171Y-6216954D01*
X16439171Y-6216954D02*
X16434290Y-6217073D01*
X9125152Y-5091582D02*
X9125152Y-5091582D01*
X15047450Y-4209465D02*
X15047329Y-4214416D01*
X15047329Y-4214416D02*
X15046987Y-4219147D01*
X15046987Y-4219147D02*
X15046449Y-4223658D01*
X15046449Y-4223658D02*
X15045729Y-4228028D01*
X15045729Y-4228028D02*
X15044857Y-4232181D01*
X15044857Y-4232181D02*
X15043836Y-4236195D01*
X15043836Y-4236195D02*
X15042644Y-4240178D01*
X15042644Y-4240178D02*
X15041345Y-4243946D01*
X15041345Y-4243946D02*
X15039902Y-4247644D01*
X15039902Y-4247644D02*
X15038367Y-4251165D01*
X15038367Y-4251165D02*
X15036718Y-4254581D01*
X15036718Y-4254581D02*
X15034818Y-4258154D01*
X15034818Y-4258154D02*
X15032975Y-4261317D01*
X15032975Y-4261317D02*
X15031001Y-4264437D01*
X15031001Y-4264437D02*
X15028960Y-4267416D01*
X15028960Y-4267416D02*
X15026782Y-4270360D01*
X15026782Y-4270360D02*
X15024548Y-4273163D01*
X15024548Y-4273163D02*
X15022218Y-4275883D01*
X15022218Y-4275883D02*
X15019768Y-4278544D01*
X15019768Y-4278544D02*
X15017238Y-4281102D01*
X15017238Y-4281102D02*
X15014659Y-4283529D01*
X15014659Y-4283529D02*
X15011911Y-4285938D01*
X15011911Y-4285938D02*
X15009120Y-4288211D01*
X15009120Y-4288211D02*
X15006248Y-4290385D01*
X15006248Y-4290385D02*
X15003297Y-4292456D01*
X15003297Y-4292456D02*
X15000013Y-4294580D01*
X15000013Y-4294580D02*
X14996808Y-4296485D01*
X14996808Y-4296485D02*
X14993042Y-4298523D01*
X14993042Y-4298523D02*
X14989662Y-4300179D01*
X14989662Y-4300179D02*
X14986161Y-4301732D01*
X14986161Y-4301732D02*
X14982502Y-4303186D01*
X14982502Y-4303186D02*
X14978775Y-4304498D01*
X14978775Y-4304498D02*
X14974853Y-4305702D01*
X14974853Y-4305702D02*
X14970791Y-4306764D01*
X14970791Y-4306764D02*
X14966665Y-4307657D01*
X14966665Y-4307657D02*
X14961975Y-4308451D01*
X14961975Y-4308451D02*
X14957234Y-4309022D01*
X14957234Y-4309022D02*
X14952509Y-4309364D01*
X14952509Y-4309364D02*
X14947628Y-4309482D01*
X9024974Y-4991565D02*
X9025091Y-4986682D01*
X9025091Y-4986682D02*
X9025436Y-4981899D01*
X9025436Y-4981899D02*
X9025973Y-4977395D01*
X9025973Y-4977395D02*
X9026693Y-4973030D01*
X9026693Y-4973030D02*
X9027583Y-4968806D01*
X9027583Y-4968806D02*
X9028617Y-4964762D01*
X9028617Y-4964762D02*
X9029815Y-4960784D01*
X9029815Y-4960784D02*
X9031132Y-4956985D01*
X9031132Y-4956985D02*
X9032698Y-4953012D01*
X9032698Y-4953012D02*
X9034234Y-4949535D01*
X9034234Y-4949535D02*
X9035898Y-4946129D01*
X9035898Y-4946129D02*
X9037686Y-4942797D01*
X9037686Y-4942797D02*
X9039535Y-4939638D01*
X9039535Y-4939638D02*
X9041620Y-4936366D01*
X9041620Y-4936366D02*
X9043674Y-4933394D01*
X9043674Y-4933394D02*
X9045831Y-4930502D01*
X9045831Y-4930502D02*
X9048184Y-4927576D01*
X9048184Y-4927576D02*
X9050544Y-4924853D01*
X9050544Y-4924853D02*
X9052973Y-4922244D01*
X9052973Y-4922244D02*
X9055546Y-4919670D01*
X9055546Y-4919670D02*
X9058183Y-4917215D01*
X9058183Y-4917215D02*
X9060879Y-4914879D01*
X9060879Y-4914879D02*
X9064044Y-4912340D01*
X9064044Y-4912340D02*
X9067220Y-4909994D01*
X9067220Y-4909994D02*
X9070206Y-4907957D01*
X9070206Y-4907957D02*
X9073495Y-4905889D01*
X9073495Y-4905889D02*
X9076802Y-4903983D01*
X9076802Y-4903983D02*
X9080119Y-4902235D01*
X9080119Y-4902235D02*
X9083577Y-4900576D01*
X9083577Y-4900576D02*
X9087213Y-4899005D01*
X9087213Y-4899005D02*
X9090922Y-4897574D01*
X9090922Y-4897574D02*
X9094700Y-4896287D01*
X9094700Y-4896287D02*
X9098693Y-4895108D01*
X9098693Y-4895108D02*
X9102716Y-4894100D01*
X9102716Y-4894100D02*
X9106917Y-4893235D01*
X9106917Y-4893235D02*
X9111531Y-4892499D01*
X9111531Y-4892499D02*
X9116055Y-4891989D01*
X9116055Y-4891989D02*
X9120777Y-4891676D01*
X9120777Y-4891676D02*
X9125152Y-4891582D01*
X9125152Y-5091582D02*
X9120236Y-5091464D01*
X9120236Y-5091464D02*
X9115461Y-5091120D01*
X9115461Y-5091120D02*
X9110907Y-5090579D01*
X9110907Y-5090579D02*
X9106609Y-5089873D01*
X9106609Y-5089873D02*
X9102337Y-5088979D01*
X9102337Y-5088979D02*
X9098246Y-5087937D01*
X9098246Y-5087937D02*
X9094242Y-5086735D01*
X9094242Y-5086735D02*
X9090203Y-5085333D01*
X9090203Y-5085333D02*
X9086596Y-5083913D01*
X9086596Y-5083913D02*
X9082886Y-5082279D01*
X9082886Y-5082279D02*
X9079477Y-5080614D01*
X9079477Y-5080614D02*
X9076141Y-5078826D01*
X9076141Y-5078826D02*
X9072914Y-5076937D01*
X9072914Y-5076937D02*
X9069829Y-5074974D01*
X9069829Y-5074974D02*
X9066730Y-5072837D01*
X9066730Y-5072837D02*
X9063835Y-5070680D01*
X9063835Y-5070680D02*
X9061023Y-5068423D01*
X9061023Y-5068423D02*
X9058323Y-5066093D01*
X9058323Y-5066093D02*
X9055695Y-5063657D01*
X9055695Y-5063657D02*
X9053103Y-5061076D01*
X9053103Y-5061076D02*
X9050669Y-5058472D01*
X9050669Y-5058472D02*
X9048281Y-5055725D01*
X9048281Y-5055725D02*
X9046015Y-5052921D01*
X9046015Y-5052921D02*
X9043850Y-5050035D01*
X9043850Y-5050035D02*
X9041704Y-5046944D01*
X9041704Y-5046944D02*
X9039673Y-5043771D01*
X9039673Y-5043771D02*
X9037815Y-5040616D01*
X9037815Y-5040616D02*
X9036037Y-5037321D01*
X9036037Y-5037321D02*
X9034363Y-5033920D01*
X9034363Y-5033920D02*
X9032654Y-5030060D01*
X9032654Y-5030060D02*
X9031238Y-5026476D01*
X9031238Y-5026476D02*
X9029934Y-5022752D01*
X9029934Y-5022752D02*
X9028742Y-5018852D01*
X9028742Y-5018852D02*
X9027708Y-5014885D01*
X9027708Y-5014885D02*
X9026811Y-5010742D01*
X9026811Y-5010742D02*
X9026075Y-5006458D01*
X9026075Y-5006458D02*
X9025511Y-5001996D01*
X9025511Y-5001996D02*
X9025134Y-4997275D01*
X9025134Y-4997275D02*
X9024977Y-4992334D01*
X9024977Y-4992334D02*
X9024974Y-4991565D01*
X7945000Y-6422000D02*
X7945032Y-6417005D01*
X7945032Y-6417005D02*
X7945134Y-6411875D01*
X7945134Y-6411875D02*
X7945341Y-6405862D01*
X7945341Y-6405862D02*
X7945592Y-6400769D01*
X7945592Y-6400769D02*
X7945889Y-6395993D01*
X7945889Y-6395993D02*
X7946246Y-6391233D01*
X7946246Y-6391233D02*
X7946655Y-6386563D01*
X7946655Y-6386563D02*
X7947161Y-6381542D01*
X7947161Y-6381542D02*
X7947697Y-6376833D01*
X7947697Y-6376833D02*
X7948272Y-6372289D01*
X7948272Y-6372289D02*
X7948911Y-6367689D01*
X7948911Y-6367689D02*
X7949572Y-6363325D01*
X7949572Y-6363325D02*
X7950332Y-6358687D01*
X7950332Y-6358687D02*
X7951095Y-6354357D01*
X7951095Y-6354357D02*
X7951909Y-6350045D01*
X7951909Y-6350045D02*
X7952756Y-6345821D01*
X7952756Y-6345821D02*
X7953682Y-6341472D01*
X7953682Y-6341472D02*
X7954642Y-6337212D01*
X7954642Y-6337212D02*
X7955650Y-6332971D01*
X7955650Y-6332971D02*
X7956778Y-6328468D01*
X7956778Y-6328468D02*
X7957885Y-6324266D01*
X7957885Y-6324266D02*
X7959117Y-6319805D01*
X7959117Y-6319805D02*
X7960239Y-6315920D01*
X7960239Y-6315920D02*
X7961402Y-6312053D01*
X7961402Y-6312053D02*
X7962693Y-6307928D01*
X7962693Y-6307928D02*
X7963940Y-6304097D01*
X7963940Y-6304097D02*
X7965226Y-6300285D01*
X7965226Y-6300285D02*
X7966552Y-6296490D01*
X7966552Y-6296490D02*
X7968017Y-6292445D01*
X7968017Y-6292445D02*
X7969628Y-6288155D01*
X7969628Y-6288155D02*
X7971081Y-6284421D01*
X7971081Y-6284421D02*
X7972571Y-6280707D01*
X7972571Y-6280707D02*
X7974211Y-6276749D01*
X7974211Y-6276749D02*
X7975780Y-6273076D01*
X7975780Y-6273076D02*
X7977359Y-6269488D01*
X7977359Y-6269488D02*
X7979033Y-6265790D01*
X7979033Y-6265790D02*
X7980685Y-6262242D01*
X7980685Y-6262242D02*
X7982435Y-6258587D01*
X7982435Y-6258587D02*
X7984318Y-6254763D01*
X7984318Y-6254763D02*
X7986374Y-6250711D01*
X7986374Y-6250711D02*
X7989010Y-6245686D01*
X7989010Y-6245686D02*
X7990898Y-6242195D01*
X7990898Y-6242195D02*
X7992684Y-6238973D01*
X7992684Y-6238973D02*
X7994783Y-6235281D01*
X7994783Y-6235281D02*
X7996634Y-6232101D01*
X7996634Y-6232101D02*
X7998516Y-6228941D01*
X7998516Y-6228941D02*
X8000428Y-6225802D01*
X8000428Y-6225802D02*
X8002407Y-6222623D01*
X8002407Y-6222623D02*
X8004455Y-6219406D01*
X8004455Y-6219406D02*
X8006496Y-6216270D01*
X8006496Y-6216270D02*
X8008527Y-6213215D01*
X8008527Y-6213215D02*
X8010748Y-6209947D01*
X8010748Y-6209947D02*
X8012840Y-6206936D01*
X8012840Y-6206936D02*
X8014960Y-6203946D01*
X8014960Y-6203946D02*
X8017067Y-6201034D01*
X8017067Y-6201034D02*
X8019454Y-6197805D01*
X8019454Y-6197805D02*
X8021832Y-6194658D01*
X8021832Y-6194658D02*
X8024069Y-6191759D01*
X8024069Y-6191759D02*
X8026290Y-6188938D01*
X8026290Y-6188938D02*
X8028803Y-6185810D01*
X8028803Y-6185810D02*
X8031079Y-6183035D01*
X8031079Y-6183035D02*
X8034199Y-6179317D01*
X8034199Y-6179317D02*
X8037136Y-6175904D01*
X8037136Y-6175904D02*
X8041050Y-6171480D01*
X8041050Y-6171480D02*
X8043508Y-6168772D01*
X8043508Y-6168772D02*
X8046184Y-6165883D01*
X8046184Y-6165883D02*
X8048647Y-6163276D01*
X8048647Y-6163276D02*
X8051428Y-6160391D01*
X8051428Y-6160391D02*
X8054587Y-6157187D01*
X8054587Y-6157187D02*
X8057583Y-6154217D01*
X8057583Y-6154217D02*
X8060207Y-6151670D01*
X8060207Y-6151670D02*
X8062804Y-6149198D01*
X8062804Y-6149198D02*
X8065889Y-6146320D01*
X8065889Y-6146320D02*
X8069268Y-6143241D01*
X8069268Y-6143241D02*
X8072208Y-6140622D01*
X8072208Y-6140622D02*
X8074911Y-6138262D01*
X8074911Y-6138262D02*
X8078818Y-6134930D01*
X8078818Y-6134930D02*
X8081575Y-6132633D01*
X8081575Y-6132633D02*
X8084464Y-6130274D01*
X8084464Y-6130274D02*
X8087266Y-6128030D01*
X8087266Y-6128030D02*
X8090145Y-6125769D01*
X8090145Y-6125769D02*
X8093103Y-6123493D01*
X8093103Y-6123493D02*
X8096253Y-6121120D01*
X8096253Y-6121120D02*
X8099202Y-6118945D01*
X8099202Y-6118945D02*
X8102573Y-6116512D01*
X8102573Y-6116512D02*
X8106089Y-6114035D01*
X8106089Y-6114035D02*
X8109575Y-6111636D01*
X8109575Y-6111636D02*
X8112854Y-6109432D01*
X8112854Y-6109432D02*
X8115921Y-6107416D01*
X8115921Y-6107416D02*
X8119486Y-6105126D01*
X8119486Y-6105126D02*
X8122657Y-6103136D01*
X8122657Y-6103136D02*
X8125971Y-6101104D01*
X8125971Y-6101104D02*
X8130098Y-6098637D01*
X8130098Y-6098637D02*
X8133278Y-6096786D01*
X8133278Y-6096786D02*
X8136723Y-6094826D01*
X8136723Y-6094826D02*
X8140192Y-6092901D01*
X8140192Y-6092901D02*
X8143683Y-6091012D01*
X8143683Y-6091012D02*
X8147447Y-6089029D01*
X8147447Y-6089029D02*
X8151237Y-6087086D01*
X8151237Y-6087086D02*
X8155307Y-6085061D01*
X8155307Y-6085061D02*
X8159147Y-6083206D01*
X8159147Y-6083206D02*
X8163011Y-6081393D01*
X8163011Y-6081393D02*
X8166640Y-6079740D01*
X8166640Y-6079740D02*
X8170485Y-6078039D01*
X8170485Y-6078039D02*
X8174023Y-6076519D01*
X8174023Y-6076519D02*
X8177911Y-6074898D01*
X8177911Y-6074898D02*
X8181887Y-6073294D01*
X8181887Y-6073294D02*
X8185617Y-6071836D01*
X8185617Y-6071836D02*
X8189905Y-6070218D01*
X8189905Y-6070218D02*
X8193677Y-6068844D01*
X8193677Y-6068844D02*
X8197467Y-6067510D01*
X8197467Y-6067510D02*
X8201276Y-6066215D01*
X8201276Y-6066215D02*
X8205171Y-6064938D01*
X8205171Y-6064938D02*
X8209499Y-6063575D01*
X8209499Y-6063575D02*
X8213640Y-6062324D01*
X8213640Y-6062324D02*
X8217802Y-6061120D01*
X8217802Y-6061120D02*
X8221984Y-6059963D01*
X8221984Y-6059963D02*
X8226465Y-6058781D01*
X8226465Y-6058781D02*
X8230969Y-6057653D01*
X8230969Y-6057653D02*
X8235210Y-6056645D01*
X8235210Y-6056645D02*
X8239469Y-6055685D01*
X8239469Y-6055685D02*
X8243675Y-6054789D01*
X8243675Y-6054789D02*
X8248042Y-6053911D01*
X8248042Y-6053911D02*
X8252355Y-6053098D01*
X8252355Y-6053098D02*
X8256684Y-6052334D01*
X8256684Y-6052334D02*
X8261322Y-6051575D01*
X8261322Y-6051575D02*
X8265686Y-6050914D01*
X8265686Y-6050914D02*
X8270286Y-6050274D01*
X8270286Y-6050274D02*
X8274830Y-6049700D01*
X8274830Y-6049700D02*
X8279392Y-6049180D01*
X8279392Y-6049180D02*
X8284413Y-6048672D01*
X8284413Y-6048672D02*
X8289230Y-6048249D01*
X8289230Y-6048249D02*
X8293990Y-6047892D01*
X8293990Y-6047892D02*
X8298766Y-6047594D01*
X8298766Y-6047594D02*
X8303559Y-6047357D01*
X8303559Y-6047357D02*
X8308668Y-6047171D01*
X8308668Y-6047171D02*
X8314398Y-6047043D01*
X8314398Y-6047043D02*
X8319997Y-6047003D01*
D11*
X16095000Y-13674000D02*
X16305000Y-13884000D01*
X16305000Y-13674000D02*
X16095000Y-13884000D01*
X8568000Y-14584000D02*
X8778000Y-14794000D01*
X8778000Y-14584000D02*
X8568000Y-14794000D01*
X16329000Y-15012000D02*
X16539000Y-15222000D01*
X16539000Y-15012000D02*
X16329000Y-15222000D01*
X7724000Y-15015000D02*
X7934000Y-15225000D01*
X7934000Y-15015000D02*
X7724000Y-15225000D01*
X7724000Y-10938000D02*
X7934000Y-11148000D01*
X7934000Y-10938000D02*
X7724000Y-11148000D01*
X9020000Y-4887000D02*
X9230000Y-5097000D01*
X9230000Y-4887000D02*
X9020000Y-5097000D01*
X7724000Y-3112000D02*
X7934000Y-3322000D01*
X7934000Y-3112000D02*
X7724000Y-3322000D01*
X16329000Y-6012000D02*
X16539000Y-6222000D01*
X16539000Y-6012000D02*
X16329000Y-6222000D01*
X14843000Y-4105000D02*
X15053000Y-4315000D01*
X15053000Y-4105000D02*
X14843000Y-4315000D01*
X16329000Y-3112000D02*
X16539000Y-3322000D01*
X16539000Y-3112000D02*
X16329000Y-3322000D01*
D12*
X7712733Y-15985285D02*
X7712733Y-15685285D01*
X7784161Y-15685285D01*
X7827018Y-15699571D01*
X7855590Y-15728143D01*
X7869876Y-15756714D01*
X7884161Y-15813857D01*
X7884161Y-15856714D01*
X7869876Y-15913857D01*
X7855590Y-15942428D01*
X7827018Y-15971000D01*
X7784161Y-15985285D01*
X7712733Y-15985285D01*
X8012733Y-15985285D02*
X8012733Y-15785285D01*
X8012733Y-15842428D02*
X8027018Y-15813857D01*
X8041304Y-15799571D01*
X8069876Y-15785285D01*
X8098447Y-15785285D01*
X8198447Y-15985285D02*
X8198447Y-15785285D01*
X8198447Y-15685285D02*
X8184161Y-15699571D01*
X8198447Y-15713857D01*
X8212733Y-15699571D01*
X8198447Y-15685285D01*
X8198447Y-15713857D01*
X8384161Y-15985285D02*
X8355590Y-15971000D01*
X8341304Y-15942428D01*
X8341304Y-15685285D01*
X8541304Y-15985285D02*
X8512733Y-15971000D01*
X8498447Y-15942428D01*
X8498447Y-15685285D01*
X8884161Y-15985285D02*
X8884161Y-15685285D01*
X8984161Y-15899571D01*
X9084161Y-15685285D01*
X9084161Y-15985285D01*
X9355590Y-15985285D02*
X9355590Y-15828143D01*
X9341304Y-15799571D01*
X9312733Y-15785285D01*
X9255590Y-15785285D01*
X9227018Y-15799571D01*
X9355590Y-15971000D02*
X9327018Y-15985285D01*
X9255590Y-15985285D01*
X9227018Y-15971000D01*
X9212733Y-15942428D01*
X9212733Y-15913857D01*
X9227018Y-15885285D01*
X9255590Y-15871000D01*
X9327018Y-15871000D01*
X9355590Y-15856714D01*
X9498447Y-15785285D02*
X9498447Y-16085285D01*
X9498447Y-15799571D02*
X9527018Y-15785285D01*
X9584161Y-15785285D01*
X9612733Y-15799571D01*
X9627018Y-15813857D01*
X9641304Y-15842428D01*
X9641304Y-15928143D01*
X9627018Y-15956714D01*
X9612733Y-15971000D01*
X9584161Y-15985285D01*
X9527018Y-15985285D01*
X9498447Y-15971000D01*
X9769876Y-15956714D02*
X9784161Y-15971000D01*
X9769876Y-15985285D01*
X9755590Y-15971000D01*
X9769876Y-15956714D01*
X9769876Y-15985285D01*
X9769876Y-15799571D02*
X9784161Y-15813857D01*
X9769876Y-15828143D01*
X9755590Y-15813857D01*
X9769876Y-15799571D01*
X9769876Y-15828143D01*
X7216304Y-16374571D02*
X7426304Y-16584571D01*
X7426304Y-16374571D02*
X7216304Y-16584571D01*
X7698447Y-16343857D02*
X7712733Y-16329571D01*
X7741304Y-16315285D01*
X7812733Y-16315285D01*
X7841304Y-16329571D01*
X7855590Y-16343857D01*
X7869876Y-16372428D01*
X7869876Y-16401000D01*
X7855590Y-16443857D01*
X7684161Y-16615285D01*
X7869876Y-16615285D01*
X7998447Y-16586714D02*
X8012733Y-16601000D01*
X7998447Y-16615285D01*
X7984161Y-16601000D01*
X7998447Y-16586714D01*
X7998447Y-16615285D01*
X8298447Y-16615285D02*
X8127018Y-16615285D01*
X8212733Y-16615285D02*
X8212733Y-16315285D01*
X8184161Y-16358143D01*
X8155590Y-16386714D01*
X8127018Y-16401000D01*
X8484161Y-16315285D02*
X8512733Y-16315285D01*
X8541304Y-16329571D01*
X8555590Y-16343857D01*
X8569876Y-16372428D01*
X8584161Y-16429571D01*
X8584161Y-16501000D01*
X8569876Y-16558143D01*
X8555590Y-16586714D01*
X8541304Y-16601000D01*
X8512733Y-16615285D01*
X8484161Y-16615285D01*
X8455590Y-16601000D01*
X8441304Y-16586714D01*
X8427018Y-16558143D01*
X8412733Y-16501000D01*
X8412733Y-16429571D01*
X8427018Y-16372428D01*
X8441304Y-16343857D01*
X8455590Y-16329571D01*
X8484161Y-16315285D01*
X8712733Y-16615285D02*
X8712733Y-16415285D01*
X8712733Y-16443857D02*
X8727018Y-16429571D01*
X8755590Y-16415285D01*
X8798447Y-16415285D01*
X8827018Y-16429571D01*
X8841304Y-16458143D01*
X8841304Y-16615285D01*
X8841304Y-16458143D02*
X8855590Y-16429571D01*
X8884161Y-16415285D01*
X8927018Y-16415285D01*
X8955590Y-16429571D01*
X8969876Y-16458143D01*
X8969876Y-16615285D01*
X9112733Y-16615285D02*
X9112733Y-16415285D01*
X9112733Y-16443857D02*
X9127018Y-16429571D01*
X9155590Y-16415285D01*
X9198447Y-16415285D01*
X9227018Y-16429571D01*
X9241304Y-16458143D01*
X9241304Y-16615285D01*
X9241304Y-16458143D02*
X9255590Y-16429571D01*
X9284161Y-16415285D01*
X9327018Y-16415285D01*
X9355590Y-16429571D01*
X9369876Y-16458143D01*
X9369876Y-16615285D01*
X9955590Y-16301000D02*
X9698447Y-16686714D01*
X10341304Y-16315285D02*
X10369876Y-16315285D01*
X10398447Y-16329571D01*
X10412733Y-16343857D01*
X10427018Y-16372428D01*
X10441304Y-16429571D01*
X10441304Y-16501000D01*
X10427018Y-16558143D01*
X10412733Y-16586714D01*
X10398447Y-16601000D01*
X10369876Y-16615285D01*
X10341304Y-16615285D01*
X10312733Y-16601000D01*
X10298447Y-16586714D01*
X10284161Y-16558143D01*
X10269876Y-16501000D01*
X10269876Y-16429571D01*
X10284161Y-16372428D01*
X10298447Y-16343857D01*
X10312733Y-16329571D01*
X10341304Y-16315285D01*
X10569876Y-16586714D02*
X10584161Y-16601000D01*
X10569876Y-16615285D01*
X10555590Y-16601000D01*
X10569876Y-16586714D01*
X10569876Y-16615285D01*
X10769876Y-16315285D02*
X10798447Y-16315285D01*
X10827018Y-16329571D01*
X10841304Y-16343857D01*
X10855590Y-16372428D01*
X10869876Y-16429571D01*
X10869876Y-16501000D01*
X10855590Y-16558143D01*
X10841304Y-16586714D01*
X10827018Y-16601000D01*
X10798447Y-16615285D01*
X10769876Y-16615285D01*
X10741304Y-16601000D01*
X10727018Y-16586714D01*
X10712733Y-16558143D01*
X10698447Y-16501000D01*
X10698447Y-16429571D01*
X10712733Y-16372428D01*
X10727018Y-16343857D01*
X10741304Y-16329571D01*
X10769876Y-16315285D01*
X11041304Y-16443857D02*
X11012733Y-16429571D01*
X10998447Y-16415285D01*
X10984161Y-16386714D01*
X10984161Y-16372428D01*
X10998447Y-16343857D01*
X11012733Y-16329571D01*
X11041304Y-16315285D01*
X11098447Y-16315285D01*
X11127018Y-16329571D01*
X11141304Y-16343857D01*
X11155590Y-16372428D01*
X11155590Y-16386714D01*
X11141304Y-16415285D01*
X11127018Y-16429571D01*
X11098447Y-16443857D01*
X11041304Y-16443857D01*
X11012733Y-16458143D01*
X10998447Y-16472428D01*
X10984161Y-16501000D01*
X10984161Y-16558143D01*
X10998447Y-16586714D01*
X11012733Y-16601000D01*
X11041304Y-16615285D01*
X11098447Y-16615285D01*
X11127018Y-16601000D01*
X11141304Y-16586714D01*
X11155590Y-16558143D01*
X11155590Y-16501000D01*
X11141304Y-16472428D01*
X11127018Y-16458143D01*
X11098447Y-16443857D01*
X11255590Y-16315285D02*
X11441304Y-16315285D01*
X11341304Y-16429571D01*
X11384161Y-16429571D01*
X11412733Y-16443857D01*
X11427018Y-16458143D01*
X11441304Y-16486714D01*
X11441304Y-16558143D01*
X11427018Y-16586714D01*
X11412733Y-16601000D01*
X11384161Y-16615285D01*
X11298447Y-16615285D01*
X11269876Y-16601000D01*
X11255590Y-16586714D01*
X11555590Y-16315285D02*
X11555590Y-16372428D01*
X11669876Y-16315285D02*
X11669876Y-16372428D01*
X12112733Y-16729571D02*
X12098447Y-16715285D01*
X12069876Y-16672428D01*
X12055590Y-16643857D01*
X12041304Y-16601000D01*
X12027018Y-16529571D01*
X12027018Y-16472428D01*
X12041304Y-16401000D01*
X12055590Y-16358143D01*
X12069876Y-16329571D01*
X12098447Y-16286714D01*
X12112733Y-16272428D01*
X12384161Y-16615285D02*
X12212733Y-16615285D01*
X12298447Y-16615285D02*
X12298447Y-16315285D01*
X12269876Y-16358143D01*
X12241304Y-16386714D01*
X12212733Y-16401000D01*
X12569876Y-16315285D02*
X12598447Y-16315285D01*
X12627018Y-16329571D01*
X12641304Y-16343857D01*
X12655590Y-16372428D01*
X12669876Y-16429571D01*
X12669876Y-16501000D01*
X12655590Y-16558143D01*
X12641304Y-16586714D01*
X12627018Y-16601000D01*
X12598447Y-16615285D01*
X12569876Y-16615285D01*
X12541304Y-16601000D01*
X12527018Y-16586714D01*
X12512733Y-16558143D01*
X12498447Y-16501000D01*
X12498447Y-16429571D01*
X12512733Y-16372428D01*
X12527018Y-16343857D01*
X12541304Y-16329571D01*
X12569876Y-16315285D01*
X13027018Y-16615285D02*
X13027018Y-16315285D01*
X13155590Y-16615285D02*
X13155590Y-16458143D01*
X13141304Y-16429571D01*
X13112733Y-16415285D01*
X13069876Y-16415285D01*
X13041304Y-16429571D01*
X13027018Y-16443857D01*
X13341304Y-16615285D02*
X13312733Y-16601000D01*
X13298447Y-16586714D01*
X13284161Y-16558143D01*
X13284161Y-16472428D01*
X13298447Y-16443857D01*
X13312733Y-16429571D01*
X13341304Y-16415285D01*
X13384161Y-16415285D01*
X13412733Y-16429571D01*
X13427018Y-16443857D01*
X13441304Y-16472428D01*
X13441304Y-16558143D01*
X13427018Y-16586714D01*
X13412733Y-16601000D01*
X13384161Y-16615285D01*
X13341304Y-16615285D01*
X13612733Y-16615285D02*
X13584161Y-16601000D01*
X13569876Y-16572428D01*
X13569876Y-16315285D01*
X13841304Y-16601000D02*
X13812733Y-16615285D01*
X13755590Y-16615285D01*
X13727018Y-16601000D01*
X13712733Y-16572428D01*
X13712733Y-16458143D01*
X13727018Y-16429571D01*
X13755590Y-16415285D01*
X13812733Y-16415285D01*
X13841304Y-16429571D01*
X13855590Y-16458143D01*
X13855590Y-16486714D01*
X13712733Y-16515285D01*
X13969876Y-16601000D02*
X13998447Y-16615285D01*
X14055590Y-16615285D01*
X14084161Y-16601000D01*
X14098447Y-16572428D01*
X14098447Y-16558143D01*
X14084161Y-16529571D01*
X14055590Y-16515285D01*
X14012733Y-16515285D01*
X13984161Y-16501000D01*
X13969876Y-16472428D01*
X13969876Y-16458143D01*
X13984161Y-16429571D01*
X14012733Y-16415285D01*
X14055590Y-16415285D01*
X14084161Y-16429571D01*
X14198447Y-16729571D02*
X14212733Y-16715285D01*
X14241304Y-16672428D01*
X14255590Y-16643857D01*
X14269876Y-16601000D01*
X14284161Y-16529571D01*
X14284161Y-16472428D01*
X14269876Y-16401000D01*
X14255590Y-16358143D01*
X14241304Y-16329571D01*
X14212733Y-16286714D01*
X14198447Y-16272428D01*
X14741304Y-16729571D02*
X14727018Y-16715285D01*
X14698447Y-16672428D01*
X14684161Y-16643857D01*
X14669876Y-16601000D01*
X14655590Y-16529571D01*
X14655590Y-16472428D01*
X14669876Y-16401000D01*
X14684161Y-16358143D01*
X14698447Y-16329571D01*
X14727018Y-16286714D01*
X14741304Y-16272428D01*
X14855590Y-16415285D02*
X14855590Y-16615285D01*
X14855590Y-16443857D02*
X14869876Y-16429571D01*
X14898447Y-16415285D01*
X14941304Y-16415285D01*
X14969876Y-16429571D01*
X14984161Y-16458143D01*
X14984161Y-16615285D01*
X15169876Y-16615285D02*
X15141304Y-16601000D01*
X15127018Y-16586714D01*
X15112733Y-16558143D01*
X15112733Y-16472428D01*
X15127018Y-16443857D01*
X15141304Y-16429571D01*
X15169876Y-16415285D01*
X15212733Y-16415285D01*
X15241304Y-16429571D01*
X15255590Y-16443857D01*
X15269876Y-16472428D01*
X15269876Y-16558143D01*
X15255590Y-16586714D01*
X15241304Y-16601000D01*
X15212733Y-16615285D01*
X15169876Y-16615285D01*
X15355590Y-16415285D02*
X15469876Y-16415285D01*
X15398447Y-16315285D02*
X15398447Y-16572428D01*
X15412733Y-16601000D01*
X15441304Y-16615285D01*
X15469876Y-16615285D01*
X15798447Y-16415285D02*
X15798447Y-16715285D01*
X15798447Y-16429571D02*
X15827018Y-16415285D01*
X15884161Y-16415285D01*
X15912733Y-16429571D01*
X15927018Y-16443857D01*
X15941304Y-16472428D01*
X15941304Y-16558143D01*
X15927018Y-16586714D01*
X15912733Y-16601000D01*
X15884161Y-16615285D01*
X15827018Y-16615285D01*
X15798447Y-16601000D01*
X16112733Y-16615285D02*
X16084161Y-16601000D01*
X16069876Y-16572428D01*
X16069876Y-16315285D01*
X16355590Y-16615285D02*
X16355590Y-16458143D01*
X16341304Y-16429571D01*
X16312733Y-16415285D01*
X16255590Y-16415285D01*
X16227018Y-16429571D01*
X16355590Y-16601000D02*
X16327018Y-16615285D01*
X16255590Y-16615285D01*
X16227018Y-16601000D01*
X16212733Y-16572428D01*
X16212733Y-16543857D01*
X16227018Y-16515285D01*
X16255590Y-16501000D01*
X16327018Y-16501000D01*
X16355590Y-16486714D01*
X16455590Y-16415285D02*
X16569876Y-16415285D01*
X16498447Y-16315285D02*
X16498447Y-16572428D01*
X16512733Y-16601000D01*
X16541304Y-16615285D01*
X16569876Y-16615285D01*
X16784161Y-16601000D02*
X16755590Y-16615285D01*
X16698447Y-16615285D01*
X16669876Y-16601000D01*
X16655590Y-16572428D01*
X16655590Y-16458143D01*
X16669876Y-16429571D01*
X16698447Y-16415285D01*
X16755590Y-16415285D01*
X16784161Y-16429571D01*
X16798447Y-16458143D01*
X16798447Y-16486714D01*
X16655590Y-16515285D01*
X17055590Y-16615285D02*
X17055590Y-16315285D01*
X17055590Y-16601000D02*
X17027018Y-16615285D01*
X16969876Y-16615285D01*
X16941304Y-16601000D01*
X16927018Y-16586714D01*
X16912733Y-16558143D01*
X16912733Y-16472428D01*
X16927018Y-16443857D01*
X16941304Y-16429571D01*
X16969876Y-16415285D01*
X17027018Y-16415285D01*
X17055590Y-16429571D01*
X17169876Y-16729571D02*
X17184161Y-16715285D01*
X17212733Y-16672428D01*
X17227018Y-16643857D01*
X17241304Y-16601000D01*
X17255590Y-16529571D01*
X17255590Y-16472428D01*
X17241304Y-16401000D01*
X17227018Y-16358143D01*
X17212733Y-16329571D01*
X17184161Y-16286714D01*
X17169876Y-16272428D01*
M02*
