<?xml version="1.0" encoding="UTF-8" standalone="no"?>
<!DOCTYPE svg PUBLIC "-//W3C//DTD SVG 1.1//EN" "http://www.w3.org/Graphics/SVG/1.1/DTD/svg11.dtd">
<svg width="100%" height="100%" viewBox="0 0 1123 794" version="1.1" xmlns="http://www.w3.org/2000/svg" xmlns:xlink="http://www.w3.org/1999/xlink" xml:space="preserve" xmlns:serif="http://www.serif.com/" style="fill-rule:evenodd;clip-rule:evenodd;stroke-linecap:square;stroke-linejoin:round;stroke-miterlimit:1.5;">
    <g transform="matrix(0.32,0,0,0.32,0,0)">
        <g id="Split-Left-Top" serif:id="Split Left Top">
            <g>
                <g>
                    <path id="内形（丸かど）" d="M2120.53,477.777C2120.53,478.347 2120.27,478.887 2119.82,479.246C2119.38,479.605 2118.8,479.744 2118.24,479.625C2085.68,472.69 1715.28,393.811 1685.9,387.554C1684.88,387.337 1684.23,386.333 1684.45,385.313C1685.51,380.307 1688.44,366.525 1689.51,361.517C1689.61,361.027 1689.52,360.515 1689.24,360.095C1688.97,359.674 1688.54,359.379 1688.05,359.275C1668.03,355.03 1491.87,317.668 1471.7,313.39C1471.21,313.285 1470.77,312.985 1470.5,312.558C1470.23,312.131 1470.14,311.613 1470.25,311.119C1471.4,306.117 1474.52,292.48 1475.67,287.475C1475.78,286.98 1475.69,286.461 1475.42,286.034C1475.14,285.607 1474.71,285.308 1474.22,285.203C1453.46,280.834 1267.73,241.726 1247.17,237.398C1246.15,237.183 1245.15,237.835 1244.93,238.854C1243.87,243.833 1240.97,257.501 1239.91,262.484C1239.69,263.505 1238.69,264.157 1237.67,263.94C1217.69,259.692 1042.04,222.358 1022.09,218.117C1021.07,217.901 1020.07,218.549 1019.85,219.567C1016.62,234.52 994.73,335.888 991.508,350.808C991.288,351.822 990.292,352.47 989.276,352.259C969.507,348.154 796.324,312.192 776.525,308.081C775.507,307.87 774.509,308.521 774.293,309.538C772.492,318.003 765.012,353.159 763.208,361.637C762.991,362.657 761.989,363.308 760.969,363.093C731.153,356.791 349.853,276.203 320.021,269.898C319,269.682 317.997,270.334 317.781,271.355C313.43,291.923 274.154,477.584 269.805,498.143C269.589,499.164 270.24,500.166 271.26,500.383C284.481,503.193 364.591,520.221 377.808,523.03C378.827,523.246 379.479,524.248 379.264,525.268C375.165,544.71 339.991,711.561 335.874,731.09C335.77,731.583 335.474,732.014 335.051,732.287C334.628,732.561 334.113,732.654 333.621,732.546C325.128,730.688 290.089,723.023 281.603,721.166C281.111,721.059 280.597,721.152 280.174,721.424C279.751,721.697 279.455,722.127 279.35,722.62C272.942,752.786 190.639,1140.22 184.238,1170.36C184.133,1170.85 184.229,1171.36 184.503,1171.78C184.778,1172.2 185.209,1172.5 185.701,1172.6C196.778,1174.91 253.987,1186.83 264.018,1188.92C264.893,1189.1 265.52,1189.88 265.522,1190.77C265.554,1212.42 265.915,1456.27 265.95,1480.2C265.952,1481.24 266.797,1482.09 267.839,1482.09C304.353,1482.1 859.13,1482.29 895.761,1482.3C896.263,1482.3 896.745,1482.1 897.1,1481.74C897.455,1481.38 897.653,1480.9 897.651,1480.4C897.596,1467.88 897.288,1397.24 897.227,1383.42C897.225,1382.85 897.481,1382.31 897.924,1381.95C898.368,1381.59 898.95,1381.45 899.509,1381.57C950.637,1392.42 1840.33,1581.24 1886.25,1590.99C1887.27,1591.2 1888.27,1590.56 1888.49,1589.54C1898.01,1545.42 2075.6,722.663 2084.18,682.884C2084.37,682.014 2085.14,681.393 2086.03,681.393C2091.8,681.393 2112.29,681.393 2118.64,681.393C2119.14,681.393 2119.62,681.592 2119.97,681.946C2120.33,682.301 2120.53,682.781 2120.53,683.283C2120.53,728.012 2120.53,1552.61 2120.53,1640.44C2120.53,1642.45 2119.73,1644.37 2118.31,1645.79C2116.89,1647.2 2114.97,1648 2112.97,1648L1890.87,1648C1885.48,1648 1880.1,1647.42 1874.83,1646.28C1819.79,1634.33 1495.08,1563.84 1440.04,1551.89C1434.77,1550.75 1429.39,1550.17 1424,1550.17C1319.61,1550.17 240.025,1550.17 83.426,1550.17C78.414,1550.17 73.608,1548.18 70.064,1544.63C66.52,1541.09 64.529,1536.28 64.529,1531.27C64.529,1376.65 64.529,321.518 64.529,166.898C64.529,161.886 66.52,157.079 70.064,153.535C73.608,149.991 78.414,148 83.426,148L2112.97,148C2114.97,148 2116.89,148.796 2118.31,150.214C2119.73,151.632 2120.53,153.554 2120.53,155.559C2120.53,202.317 2120.53,451.015 2120.53,477.777ZM2073.3,1612.94C2066.77,1612.94 2061.47,1607.65 2061.47,1601.12C2061.47,1594.61 2066.77,1589.31 2073.3,1589.31C2079.8,1589.31 2085.09,1594.61 2085.09,1601.12C2085.09,1607.65 2079.8,1612.94 2073.3,1612.94ZM111.794,1514.74C105.259,1514.74 99.962,1509.45 99.962,1502.92C99.962,1496.4 105.259,1491.11 111.794,1491.11C118.287,1491.11 123.584,1496.4 123.584,1502.92C123.584,1509.45 118.287,1514.74 111.794,1514.74ZM1159.47,1514.74C1152.93,1514.74 1147.64,1509.45 1147.64,1502.92C1147.64,1496.4 1152.93,1491.11 1159.47,1491.11C1165.96,1491.11 1171.26,1496.4 1171.26,1502.92C1171.26,1509.45 1165.96,1514.74 1159.47,1514.74ZM1985.68,1269.45C1979.14,1269.45 1973.85,1264.17 1973.85,1257.64C1973.85,1251.12 1979.14,1245.83 1985.68,1245.83C1992.17,1245.83 1997.47,1251.12 1997.47,1257.64C1997.47,1264.17 1992.17,1269.45 1985.68,1269.45ZM231.614,1228.05C225.078,1228.05 219.781,1222.76 219.781,1216.23C219.781,1209.71 225.078,1204.42 231.614,1204.42C238.107,1204.42 243.403,1209.71 243.403,1216.23C243.403,1222.76 238.107,1228.05 231.614,1228.05ZM2006.41,1169.66C1999.87,1169.66 1994.58,1164.38 1994.58,1157.85C1994.58,1151.33 1999.87,1146.04 2006.41,1146.04C2012.9,1146.04 2018.2,1151.33 2018.2,1157.85C2018.2,1164.38 2012.9,1169.66 2006.41,1169.66ZM2028.06,1070.07C2021.52,1070.07 2016.23,1064.79 2016.23,1058.26C2016.23,1051.74 2021.52,1046.45 2028.06,1046.45C2034.55,1046.45 2039.85,1051.74 2039.85,1058.26C2039.85,1064.79 2034.55,1070.07 2028.06,1070.07ZM2073.3,903.214C2066.77,903.214 2061.47,897.931 2061.47,891.401C2061.47,884.883 2066.77,879.592 2073.3,879.592C2079.8,879.592 2085.09,884.883 2085.09,891.401C2085.09,897.931 2079.8,903.214 2073.3,903.214ZM111.794,765.372C105.259,765.372 99.962,760.089 99.962,753.559C99.962,747.041 105.259,741.75 111.794,741.75C118.287,741.75 123.584,747.041 123.584,753.559C123.584,760.089 118.287,765.372 111.794,765.372ZM192.926,571.081C217.371,571.081 237.217,590.927 237.217,615.372C237.217,639.817 217.371,659.663 192.926,659.663C168.481,659.663 148.635,639.817 148.635,615.372C148.635,590.927 168.481,571.081 192.926,571.081ZM1726.18,371.513C1719.65,371.513 1714.35,366.23 1714.35,359.7C1714.35,353.182 1719.65,347.891 1726.18,347.891C1732.68,347.891 1737.98,353.182 1737.98,359.7C1737.98,366.23 1732.68,371.513 1726.18,371.513ZM519.788,286.147C513.253,286.147 507.956,280.865 507.956,274.334C507.956,267.816 513.253,262.525 519.788,262.525C526.281,262.525 531.578,267.816 531.578,274.334C531.578,280.865 526.281,286.147 519.788,286.147ZM2073.3,207.055C2066.77,207.055 2061.47,201.772 2061.47,195.242C2061.47,188.724 2066.77,183.433 2073.3,183.433C2079.8,183.433 2085.09,188.724 2085.09,195.242C2085.09,201.772 2079.8,207.055 2073.3,207.055ZM1113.88,207.055C1107.34,207.055 1102.04,201.772 1102.04,195.242C1102.04,188.724 1107.34,183.433 1113.88,183.433C1120.37,183.433 1125.66,188.724 1125.66,195.242C1125.66,201.772 1120.37,207.055 1113.88,207.055ZM111.794,207.055C105.259,207.055 99.962,201.772 99.962,195.242C99.962,188.724 105.259,183.433 111.794,183.433C118.287,183.433 123.584,188.724 123.584,195.242C123.584,201.772 118.287,207.055 111.794,207.055ZM616.557,207.055C610.022,207.055 604.725,201.772 604.725,195.242C604.725,188.724 610.022,183.433 616.557,183.433C623.05,183.433 628.347,188.724 628.347,195.242C628.347,201.772 623.05,207.055 616.557,207.055Z" style="fill:rgb(255,128,255);fill-opacity:0.45;stroke:rgb(250,66,0);stroke-width:1.32px;"/>
                </g>
            </g>
        </g>
    </g>
</svg>
