  0
SECTION
  2
HEADER
  9
$ACADVER
  1
AC1014
  9
$HANDSEED
  5
FFFF
  9
$MEASUREMENT
 70
     1
  0
ENDSEC
  0
SECTION
  2
TABLES
  0
TABLE
  2
VPORT
  5
8
330
0
100
AcDbSymbolTable
 70
     4
  0
VPORT
  5
2E
330
8
100
AcDbSymbolTableRecord
100
AcDbViewportTableRecord
  2
*ACTIVE
 70
     0
 10
0.0
 20
0.0
 11
1.0
 21
1.0
 12
210.0
 22
148.5
 13
0.0
 23
0.0
 14
10.0
 24
10.0
 15
10.0
 25
10.0
 16
0.0
 26
0.0
 36
1.0
 17
0.0
 27
0.0
 37
0.0
 40
341.0
 41
1.24
 42
50.0
 43
0.0
 44
0.0
 50
0.0
 51
0.0
 71
     0
 72
   100
 73
     1
 74
     3
 75
     0
 76
     0
 77
     0
 78
     0
  0
ENDTAB
  0
TABLE
  2
LTYPE
  5
5
330
0
100
AcDbSymbolTable
 70
     1
  0
LTYPE
  5
14
330
5
100
AcDbSymbolTableRecord
100
AcDbLinetypeTableRecord
  2
BYBLOCK
 70
     0
  3

 72
    65
 73
     0
 40
0.0
  0
LTYPE
  5
15
330
5
100
AcDbSymbolTableRecord
100
AcDbLinetypeTableRecord
  2
BYLAYER
 70
     0
  3

 72
    65
 73
     0
 40
0.0
  0
LTYPE
  5
16
330
5
100
AcDbSymbolTableRecord
100
AcDbLinetypeTableRecord
  2
CONTINUOUS
 70
     0
  3
Solid line
 72
    65
 73
     0
 40
0.0
  0
ENDTAB
  0
TABLE
  2
LAYER
  5
2
100
AcDbSymbolTable
 70
1
  0
LAYER
  5
50
100
AcDbSymbolTableRecord
100
AcDbLayerTableRecord
  2
0
 70
0
  6
CONTINUOUS
  0
ENDTAB
  0
TABLE
  2
STYLE
  5
3
330
0
100
AcDbSymbolTable
 70
     1
  0
STYLE
  5
11
330
3
100
AcDbSymbolTableRecord
100
AcDbTextStyleTableRecord
  2
STANDARD
 70
     0
 40
0.0
 41
1.0
 50
0.0
 71
     0
 42
2.5
  3
txt
  4

  0
ENDTAB
  0
TABLE
  2
VIEW
  5
6
330
0
100
AcDbSymbolTable
 70
     0
  0
ENDTAB
  0
TABLE
  2
UCS
  5
7
330
0
100
AcDbSymbolTable
 70
     0
  0
ENDTAB
  0
TABLE
  2
APPID
  5
9
330
0
100
AcDbSymbolTable
 70
     2
  0
APPID
  5
12
330
9
100
AcDbSymbolTableRecord
100
AcDbRegAppTableRecord
  2
ACAD
 70
     0
  0
ENDTAB
  0
TABLE
  2
DIMSTYLE
  5
A
330
0
100
AcDbSymbolTable
 70
     1
  0
DIMSTYLE
105
27
330
A
100
AcDbSymbolTableRecord
100
AcDbDimStyleTableRecord
  2
ISO-25
 70
     0
  3

  4

  5

  6

  7

 40
1.0
 41
2.5
 42
0.625
 43
3.75
 44
1.25
 45
0.0
 46
0.0
 47
0.0
 48
0.0
140
2.5
141
2.5
142
0.0
143
0.03937007874016
144
1.0
145
0.0
146
1.0
147
0.625
 71
     0
 72
     0
 73
     0
 74
     0
 75
     0
 76
     0
 77
     1
 78
     8
170
     0
171
     3
172
     1
173
     0
174
     0
175
     0
176
     0
177
     0
178
     0
270
     2
271
     2
272
     2
273
     2
274
     3
340
11
275
     0
280
     0
281
     0
282
     0
283
     0
284
     8
285
     0
286
     0
287
     3
288
     0
  0
ENDTAB
  0
TABLE
  2
BLOCK_RECORD
  5
1
330
0
100
AcDbSymbolTable
 70
     1
  0
BLOCK_RECORD
  5
1F
330
1
100
AcDbSymbolTableRecord
100
AcDbBlockTableRecord
  2
*MODEL_SPACE
  0
BLOCK_RECORD
  5
1B
330
1
100
AcDbSymbolTableRecord
100
AcDbBlockTableRecord
  2
*PAPER_SPACE
  0
ENDTAB
  0
ENDSEC
  0
SECTION
  2
BLOCKS
  0
BLOCK
  5
20
330
1F
100
AcDbEntity
  8
0
100
AcDbBlockBegin
  2
*MODEL_SPACE
 70
     0
 10
0.0
 20
0.0
 30
0.0
  3
*MODEL_SPACE
  1

  0
ENDBLK
  5
21
330
1F
100
AcDbEntity
  8
0
100
AcDbBlockEnd
  0
BLOCK
  5
1C
330
1B
100
AcDbEntity
 67
     1
  8
0
100
AcDbBlockBegin
  2
*PAPER_SPACE
  1

  0
ENDBLK
  5
1D
330
1B
100
AcDbEntity
 67
     1
  8
0
100
AcDbBlockEnd
  0
ENDSEC
  0
SECTION
  2
ENTITIES
  0
SPLINE
  5
100
100
AcDbEntity
  8
0
 62
1
100
AcDbSpline
 70
8
 71
3
 72
8
 73
4
 74
0
 40
0
 40
0
 40
0
 40
0
 40
1
 40
1
 40
1
 40
1
 10
179.538207
 20
169.627381
 30
0.0
 10
179.538207
 20
169.579121
 30
0.0
 10
179.516193
 20
169.533401
 30
0.0
 10
179.478093
 20
169.503005
 30
0.0
  0
SPLINE
  5
101
100
AcDbEntity
  8
0
 62
1
100
AcDbSpline
 70
8
 71
3
 72
8
 73
4
 74
0
 40
0
 40
0
 40
0
 40
0
 40
1
 40
1
 40
1
 40
1
 10
179.478093
 20
169.503005
 30
0.0
 10
179.440840
 20
169.472610
 30
0.0
 10
179.391733
 20
169.460841
 30
0.0
 10
179.344320
 20
169.470917
 30
0.0
  0
SPLINE
  5
102
100
AcDbEntity
  8
0
 62
1
100
AcDbSpline
 70
8
 71
3
 72
8
 73
4
 74
0
 40
0
 40
0
 40
0
 40
0
 40
1
 40
1
 40
1
 40
1
 10
179.344320
 20
169.470917
 30
0.0
 10
176.587573
 20
170.058080
 30
0.0
 10
145.227040
 20
176.736502
 30
0.0
 10
142.739533
 20
177.266261
 30
0.0
  0
SPLINE
  5
103
100
AcDbEntity
  8
0
 62
1
100
AcDbSpline
 70
8
 71
3
 72
8
 73
4
 74
0
 40
0
 40
0
 40
0
 40
0
 40
1
 40
1
 40
1
 40
1
 10
142.739533
 20
177.266261
 30
0.0
 10
142.653173
 20
177.284634
 30
0.0
 10
142.598140
 20
177.369639
 30
0.0
 10
142.616767
 20
177.455999
 30
0.0
  0
SPLINE
  5
104
100
AcDbEntity
  8
0
 62
1
100
AcDbSpline
 70
8
 71
3
 72
8
 73
4
 74
0
 40
0
 40
0
 40
0
 40
0
 40
1
 40
1
 40
1
 40
1
 10
142.616767
 20
177.455999
 30
0.0
 10
142.706513
 20
177.879841
 30
0.0
 10
142.954587
 20
179.046717
 30
0.0
 10
143.045180
 20
179.470727
 30
0.0
  0
SPLINE
  5
105
100
AcDbEntity
  8
0
 62
1
100
AcDbSpline
 70
8
 71
3
 72
8
 73
4
 74
0
 40
0
 40
0
 40
0
 40
0
 40
1
 40
1
 40
1
 40
1
 10
143.045180
 20
179.470727
 30
0.0
 10
143.053647
 20
179.512214
 30
0.0
 10
143.046027
 20
179.555563
 30
0.0
 10
143.022320
 20
179.591123
 30
0.0
  0
SPLINE
  5
106
100
AcDbEntity
  8
0
 62
1
100
AcDbSpline
 70
8
 71
3
 72
8
 73
4
 74
0
 40
0
 40
0
 40
0
 40
0
 40
1
 40
1
 40
1
 40
1
 10
143.022320
 20
179.591123
 30
0.0
 10
142.999460
 20
179.626768
 30
0.0
 10
142.963053
 20
179.651745
 30
0.0
 10
142.921567
 20
179.660550
 30
0.0
  0
SPLINE
  5
107
100
AcDbEntity
  8
0
 62
1
100
AcDbSpline
 70
8
 71
3
 72
8
 73
4
 74
0
 40
0
 40
0
 40
0
 40
0
 40
1
 40
1
 40
1
 40
1
 10
142.921567
 20
179.660550
 30
0.0
 10
141.226540
 20
180.019960
 30
0.0
 10
126.311660
 20
183.183276
 30
0.0
 10
124.603933
 20
183.545480
 30
0.0
  0
SPLINE
  5
108
100
AcDbEntity
  8
0
 62
1
100
AcDbSpline
 70
8
 71
3
 72
8
 73
4
 74
0
 40
0
 40
0
 40
0
 40
0
 40
1
 40
1
 40
1
 40
1
 10
124.603933
 20
183.545480
 30
0.0
 10
124.562447
 20
183.554370
 30
0.0
 10
124.525193
 20
183.579770
 30
0.0
 10
124.502333
 20
183.615923
 30
0.0
  0
SPLINE
  5
109
100
AcDbEntity
  8
0
 62
1
100
AcDbSpline
 70
8
 71
3
 72
8
 73
4
 74
0
 40
0
 40
0
 40
0
 40
0
 40
1
 40
1
 40
1
 40
1
 10
124.502333
 20
183.615923
 30
0.0
 10
124.479473
 20
183.652075
 30
0.0
 10
124.471853
 20
183.695933
 30
0.0
 10
124.481167
 20
183.737758
 30
0.0
  0
SPLINE
  5
10a
100
AcDbEntity
  8
0
 62
1
100
AcDbSpline
 70
8
 71
3
 72
8
 73
4
 74
0
 40
0
 40
0
 40
0
 40
0
 40
1
 40
1
 40
1
 40
1
 10
124.481167
 20
183.737758
 30
0.0
 10
124.578533
 20
184.161261
 30
0.0
 10
124.842693
 20
185.315860
 30
0.0
 10
124.940060
 20
185.739617
 30
0.0
  0
SPLINE
  5
10b
100
AcDbEntity
  8
0
 62
1
100
AcDbSpline
 70
8
 71
3
 72
8
 73
4
 74
0
 40
0
 40
0
 40
0
 40
0
 40
1
 40
1
 40
1
 40
1
 10
124.940060
 20
185.739617
 30
0.0
 10
124.949373
 20
185.781527
 30
0.0
 10
124.941753
 20
185.825469
 30
0.0
 10
124.918893
 20
185.861621
 30
0.0
  0
SPLINE
  5
10c
100
AcDbEntity
  8
0
 62
1
100
AcDbSpline
 70
8
 71
3
 72
8
 73
4
 74
0
 40
0
 40
0
 40
0
 40
0
 40
1
 40
1
 40
1
 40
1
 10
124.918893
 20
185.861621
 30
0.0
 10
124.895187
 20
185.897774
 30
0.0
 10
124.858780
 20
185.923089
 30
0.0
 10
124.817293
 20
185.931979
 30
0.0
  0
SPLINE
  5
10d
100
AcDbEntity
  8
0
 62
1
100
AcDbSpline
 70
8
 71
3
 72
8
 73
4
 74
0
 40
0
 40
0
 40
0
 40
0
 40
1
 40
1
 40
1
 40
1
 10
124.817293
 20
185.931979
 30
0.0
 10
123.059613
 20
186.301888
 30
0.0
 10
107.334473
 20
189.613032
 30
0.0
 10
105.593727
 20
189.979469
 30
0.0
  0
SPLINE
  5
10e
100
AcDbEntity
  8
0
 62
1
100
AcDbSpline
 70
8
 71
3
 72
8
 73
4
 74
0
 40
0
 40
0
 40
0
 40
0
 40
1
 40
1
 40
1
 40
1
 10
105.593727
 20
189.979469
 30
0.0
 10
105.507367
 20
189.997673
 30
0.0
 10
105.422700
 20
189.942470
 30
0.0
 10
105.404073
 20
189.856195
 30
0.0
  0
SPLINE
  5
10f
100
AcDbEntity
  8
0
 62
1
100
AcDbSpline
 70
8
 71
3
 72
8
 73
4
 74
0
 40
0
 40
0
 40
0
 40
0
 40
1
 40
1
 40
1
 40
1
 10
105.404073
 20
189.856195
 30
0.0
 10
105.314327
 20
189.434639
 30
0.0
 10
105.068793
 20
188.277415
 30
0.0
 10
104.979047
 20
187.855521
 30
0.0
  0
SPLINE
  5
110
100
AcDbEntity
  8
0
 62
1
100
AcDbSpline
 70
8
 71
3
 72
8
 73
4
 74
0
 40
0
 40
0
 40
0
 40
0
 40
1
 40
1
 40
1
 40
1
 10
104.979047
 20
187.855521
 30
0.0
 10
104.960420
 20
187.769077
 30
0.0
 10
104.875753
 20
187.713874
 30
0.0
 10
104.789393
 20
187.732247
 30
0.0
  0
SPLINE
  5
111
100
AcDbEntity
  8
0
 62
1
100
AcDbSpline
 70
8
 71
3
 72
8
 73
4
 74
0
 40
0
 40
0
 40
0
 40
0
 40
1
 40
1
 40
1
 40
1
 10
104.789393
 20
187.732247
 30
0.0
 10
103.097753
 20
188.091911
 30
0.0
 10
88.226053
 20
191.252856
 30
0.0
 10
86.536953
 20
191.611927
 30
0.0
  0
SPLINE
  5
112
100
AcDbEntity
  8
0
 62
1
100
AcDbSpline
 70
8
 71
3
 72
8
 73
4
 74
0
 40
0
 40
0
 40
0
 40
0
 40
1
 40
1
 40
1
 40
1
 10
86.536953
 20
191.611927
 30
0.0
 10
86.450593
 20
191.630215
 30
0.0
 10
86.365927
 20
191.575351
 30
0.0
 10
86.347300
 20
191.489161
 30
0.0
  0
SPLINE
  5
113
100
AcDbEntity
  8
0
 62
1
100
AcDbSpline
 70
8
 71
3
 72
8
 73
4
 74
0
 40
0
 40
0
 40
0
 40
0
 40
1
 40
1
 40
1
 40
1
 10
86.347300
 20
191.489161
 30
0.0
 10
86.073827
 20
190.223140
 30
0.0
 10
84.220473
 20
181.640649
 30
0.0
 10
83.947677
 20
180.377423
 30
0.0
  0
SPLINE
  5
114
100
AcDbEntity
  8
0
 62
1
100
AcDbSpline
 70
8
 71
3
 72
8
 73
4
 74
0
 40
0
 40
0
 40
0
 40
0
 40
1
 40
1
 40
1
 40
1
 10
83.947677
 20
180.377423
 30
0.0
 10
83.929051
 20
180.291571
 30
0.0
 10
83.844723
 20
180.236707
 30
0.0
 10
83.758701
 20
180.254571
 30
0.0
  0
SPLINE
  5
115
100
AcDbEntity
  8
0
 62
1
100
AcDbSpline
 70
8
 71
3
 72
8
 73
4
 74
0
 40
0
 40
0
 40
0
 40
0
 40
1
 40
1
 40
1
 40
1
 10
83.758701
 20
180.254571
 30
0.0
 10
82.084926
 20
180.602128
 30
0.0
 10
67.422099
 20
183.646911
 30
0.0
 10
65.745783
 20
183.994975
 30
0.0
  0
SPLINE
  5
116
100
AcDbEntity
  8
0
 62
1
100
AcDbSpline
 70
8
 71
3
 72
8
 73
4
 74
0
 40
0
 40
0
 40
0
 40
0
 40
1
 40
1
 40
1
 40
1
 10
65.745783
 20
183.994975
 30
0.0
 10
65.659593
 20
184.012840
 30
0.0
 10
65.575095
 20
183.957722
 30
0.0
 10
65.556807
 20
183.871616
 30
0.0
  0
SPLINE
  5
117
100
AcDbEntity
  8
0
 62
1
100
AcDbSpline
 70
8
 71
3
 72
8
 73
4
 74
0
 40
0
 40
0
 40
0
 40
0
 40
1
 40
1
 40
1
 40
1
 10
65.556807
 20
183.871616
 30
0.0
 10
65.404323
 20
183.154913
 30
0.0
 10
64.771016
 20
180.178371
 30
0.0
 10
64.618277
 20
179.460567
 30
0.0
  0
SPLINE
  5
118
100
AcDbEntity
  8
0
 62
1
100
AcDbSpline
 70
8
 71
3
 72
8
 73
4
 74
0
 40
0
 40
0
 40
0
 40
0
 40
1
 40
1
 40
1
 40
1
 10
64.618277
 20
179.460567
 30
0.0
 10
64.599905
 20
179.374207
 30
0.0
 10
64.515069
 20
179.319089
 30
0.0
 10
64.428709
 20
179.337293
 30
0.0
  0
SPLINE
  5
119
100
AcDbEntity
  8
0
 62
1
100
AcDbSpline
 70
8
 71
3
 72
8
 73
4
 74
0
 40
0
 40
0
 40
0
 40
0
 40
1
 40
1
 40
1
 40
1
 10
64.428709
 20
179.337293
 30
0.0
 10
61.904287
 20
179.870862
 30
0.0
 10
29.620887
 20
186.693979
 30
0.0
 10
27.095111
 20
187.227803
 30
0.0
  0
SPLINE
  5
11a
100
AcDbEntity
  8
0
 62
1
100
AcDbSpline
 70
8
 71
3
 72
8
 73
4
 74
0
 40
0
 40
0
 40
0
 40
0
 40
1
 40
1
 40
1
 40
1
 10
27.095111
 20
187.227803
 30
0.0
 10
27.008667
 20
187.246091
 30
0.0
 10
26.923746
 20
187.190888
 30
0.0
 10
26.905458
 20
187.104443
 30
0.0
  0
SPLINE
  5
11b
100
AcDbEntity
  8
0
 62
1
100
AcDbSpline
 70
8
 71
3
 72
8
 73
4
 74
0
 40
0
 40
0
 40
0
 40
0
 40
1
 40
1
 40
1
 40
1
 10
26.905458
 20
187.104443
 30
0.0
 10
26.537073
 20
185.363019
 30
0.0
 10
23.211705
 20
169.643721
 30
0.0
 10
22.843490
 20
167.903059
 30
0.0
  0
SPLINE
  5
11c
100
AcDbEntity
  8
0
 62
1
100
AcDbSpline
 70
8
 71
3
 72
8
 73
4
 74
0
 40
0
 40
0
 40
0
 40
0
 40
1
 40
1
 40
1
 40
1
 10
22.843490
 20
167.903059
 30
0.0
 10
22.825202
 20
167.816615
 30
0.0
 10
22.880320
 20
167.731779
 30
0.0
 10
22.966680
 20
167.713406
 30
0.0
  0
SPLINE
  5
11d
100
AcDbEntity
  8
0
 62
1
100
AcDbSpline
 70
8
 71
3
 72
8
 73
4
 74
0
 40
0
 40
0
 40
0
 40
0
 40
1
 40
1
 40
1
 40
1
 10
22.966680
 20
167.713406
 30
0.0
 10
24.086058
 20
167.475493
 30
0.0
 10
30.868705
 20
166.033789
 30
0.0
 10
31.987744
 20
165.795960
 30
0.0
  0
SPLINE
  5
11e
100
AcDbEntity
  8
0
 62
1
100
AcDbSpline
 70
8
 71
3
 72
8
 73
4
 74
0
 40
0
 40
0
 40
0
 40
0
 40
1
 40
1
 40
1
 40
1
 10
31.987744
 20
165.795960
 30
0.0
 10
32.074019
 20
165.777672
 30
0.0
 10
32.129222
 20
165.692836
 30
0.0
 10
32.111019
 20
165.606476
 30
0.0
  0
SPLINE
  5
11f
100
AcDbEntity
  8
0
 62
1
100
AcDbSpline
 70
8
 71
3
 72
8
 73
4
 74
0
 40
0
 40
0
 40
0
 40
0
 40
1
 40
1
 40
1
 40
1
 10
32.111019
 20
165.606476
 30
0.0
 10
31.763970
 20
163.960387
 30
0.0
 10
28.785905
 20
149.833669
 30
0.0
 10
28.437332
 20
148.180213
 30
0.0
  0
SPLINE
  5
120
100
AcDbEntity
  8
0
 62
1
100
AcDbSpline
 70
8
 71
3
 72
8
 73
4
 74
0
 40
0
 40
0
 40
0
 40
0
 40
1
 40
1
 40
1
 40
1
 10
28.437332
 20
148.180213
 30
0.0
 10
28.428527
 20
148.138473
 30
0.0
 10
28.403465
 20
148.101981
 30
0.0
 10
28.367651
 20
148.078867
 30
0.0
  0
SPLINE
  5
121
100
AcDbEntity
  8
0
 62
1
100
AcDbSpline
 70
8
 71
3
 72
8
 73
4
 74
0
 40
0
 40
0
 40
0
 40
0
 40
1
 40
1
 40
1
 40
1
 10
28.367651
 20
148.078867
 30
0.0
 10
28.331837
 20
148.055669
 30
0.0
 10
28.288234
 20
148.047795
 30
0.0
 10
28.246578
 20
148.056939
 30
0.0
  0
SPLINE
  5
122
100
AcDbEntity
  8
0
 62
1
100
AcDbSpline
 70
8
 71
3
 72
8
 73
4
 74
0
 40
0
 40
0
 40
0
 40
0
 40
1
 40
1
 40
1
 40
1
 10
28.246578
 20
148.056939
 30
0.0
 10
27.527504
 20
148.214249
 30
0.0
 10
24.560869
 20
148.863219
 30
0.0
 10
23.842387
 20
149.020445
 30
0.0
  0
SPLINE
  5
123
100
AcDbEntity
  8
0
 62
1
100
AcDbSpline
 70
8
 71
3
 72
8
 73
4
 74
0
 40
0
 40
0
 40
0
 40
0
 40
1
 40
1
 40
1
 40
1
 10
23.842387
 20
149.020445
 30
0.0
 10
23.800731
 20
149.029505
 30
0.0
 10
23.757213
 20
149.021631
 30
0.0
 10
23.721399
 20
148.998601
 30
0.0
  0
SPLINE
  5
124
100
AcDbEntity
  8
0
 62
1
100
AcDbSpline
 70
8
 71
3
 72
8
 73
4
 74
0
 40
0
 40
0
 40
0
 40
0
 40
1
 40
1
 40
1
 40
1
 10
23.721399
 20
148.998601
 30
0.0
 10
23.685585
 20
148.975487
 30
0.0
 10
23.660523
 20
148.939081
 30
0.0
 10
23.651633
 20
148.897340
 30
0.0
  0
SPLINE
  5
125
100
AcDbEntity
  8
0
 62
1
100
AcDbSpline
 70
8
 71
3
 72
8
 73
4
 74
0
 40
0
 40
0
 40
0
 40
0
 40
1
 40
1
 40
1
 40
1
 10
23.651633
 20
148.897340
 30
0.0
 10
23.109089
 20
146.343285
 30
0.0
 10
16.140769
 20
113.540540
 30
0.0
 10
15.598817
 20
110.988687
 30
0.0
  0
SPLINE
  5
126
100
AcDbEntity
  8
0
 62
1
100
AcDbSpline
 70
8
 71
3
 72
8
 73
4
 74
0
 40
0
 40
0
 40
0
 40
0
 40
1
 40
1
 40
1
 40
1
 10
15.598817
 20
110.988687
 30
0.0
 10
15.589927
 20
110.947200
 30
0.0
 10
15.598055
 20
110.904020
 30
0.0
 10
15.621254
 20
110.868460
 30
0.0
  0
SPLINE
  5
127
100
AcDbEntity
  8
0
 62
1
100
AcDbSpline
 70
8
 71
3
 72
8
 73
4
 74
0
 40
0
 40
0
 40
0
 40
0
 40
1
 40
1
 40
1
 40
1
 10
15.621254
 20
110.868460
 30
0.0
 10
15.644537
 20
110.832900
 30
0.0
 10
15.681029
 20
110.807500
 30
0.0
 10
15.722685
 20
110.799033
 30
0.0
  0
SPLINE
  5
128
100
AcDbEntity
  8
0
 62
1
100
AcDbSpline
 70
8
 71
3
 72
8
 73
4
 74
0
 40
0
 40
0
 40
0
 40
0
 40
1
 40
1
 40
1
 40
1
 10
15.722685
 20
110.799033
 30
0.0
 10
16.660537
 20
110.603453
 30
0.0
 10
21.504233
 20
109.594227
 30
0.0
 10
22.353524
 20
109.417273
 30
0.0
  0
SPLINE
  5
129
100
AcDbEntity
  8
0
 62
1
100
AcDbSpline
 70
8
 71
3
 72
8
 73
4
 74
0
 40
0
 40
0
 40
0
 40
0
 40
1
 40
1
 40
1
 40
1
 10
22.353524
 20
109.417273
 30
0.0
 10
22.427607
 20
109.402033
 30
0.0
 10
22.480693
 20
109.335993
 30
0.0
 10
22.480863
 20
109.260640
 30
0.0
  0
SPLINE
  5
12a
100
AcDbEntity
  8
0
 62
1
100
AcDbSpline
 70
8
 71
3
 72
8
 73
4
 74
0
 40
0
 40
0
 40
0
 40
0
 40
1
 40
1
 40
1
 40
1
 10
22.480863
 20
109.260640
 30
0.0
 10
22.483572
 20
107.427607
 30
0.0
 10
22.514137
 20
86.781640
 30
0.0
 10
22.517100
 20
84.755567
 30
0.0
  0
SPLINE
  5
12b
100
AcDbEntity
  8
0
 62
1
100
AcDbSpline
 70
8
 71
3
 72
8
 73
4
 74
0
 40
0
 40
0
 40
0
 40
0
 40
1
 40
1
 40
1
 40
1
 10
22.517100
 20
84.755567
 30
0.0
 10
22.517269
 20
84.667513
 30
0.0
 10
22.588813
 20
84.595547
 30
0.0
 10
22.677035
 20
84.595547
 30
0.0
  0
SPLINE
  5
12c
100
AcDbEntity
  8
0
 62
1
100
AcDbSpline
 70
8
 71
3
 72
8
 73
4
 74
0
 40
0
 40
0
 40
0
 40
0
 40
1
 40
1
 40
1
 40
1
 10
22.677035
 20
84.595547
 30
0.0
 10
25.768554
 20
84.594700
 30
0.0
 10
72.739673
 20
84.578613
 30
0.0
 10
75.841098
 20
84.577767
 30
0.0
  0
SPLINE
  5
12d
100
AcDbEntity
  8
0
 62
1
100
AcDbSpline
 70
8
 71
3
 72
8
 73
4
 74
0
 40
0
 40
0
 40
0
 40
0
 40
1
 40
1
 40
1
 40
1
 10
75.841098
 20
84.577767
 30
0.0
 10
75.883601
 20
84.577767
 30
0.0
 10
75.924410
 20
84.594700
 30
0.0
 10
75.954467
 20
84.625180
 30
0.0
  0
SPLINE
  5
12e
100
AcDbEntity
  8
0
 62
1
100
AcDbSpline
 70
8
 71
3
 72
8
 73
4
 74
0
 40
0
 40
0
 40
0
 40
0
 40
1
 40
1
 40
1
 40
1
 10
75.954467
 20
84.625180
 30
0.0
 10
75.984523
 20
84.655660
 30
0.0
 10
76.001287
 20
84.696300
 30
0.0
 10
76.001118
 20
84.738633
 30
0.0
  0
SPLINE
  5
12f
100
AcDbEntity
  8
0
 62
1
100
AcDbSpline
 70
8
 71
3
 72
8
 73
4
 74
0
 40
0
 40
0
 40
0
 40
0
 40
1
 40
1
 40
1
 40
1
 10
76.001118
 20
84.738633
 30
0.0
 10
75.996461
 20
85.798660
 30
0.0
 10
75.970384
 20
91.779513
 30
0.0
 10
75.965219
 20
92.949607
 30
0.0
  0
SPLINE
  5
130
100
AcDbEntity
  8
0
 62
1
100
AcDbSpline
 70
8
 71
3
 72
8
 73
4
 74
0
 40
0
 40
0
 40
0
 40
0
 40
1
 40
1
 40
1
 40
1
 10
75.965219
 20
92.949607
 30
0.0
 10
75.965050
 20
92.997867
 30
0.0
 10
75.986725
 20
93.043587
 30
0.0
 10
76.024232
 20
93.074067
 30
0.0
  0
SPLINE
  5
131
100
AcDbEntity
  8
0
 62
1
100
AcDbSpline
 70
8
 71
3
 72
8
 73
4
 74
0
 40
0
 40
0
 40
0
 40
0
 40
1
 40
1
 40
1
 40
1
 10
76.024232
 20
93.074067
 30
0.0
 10
76.061824
 20
93.104547
 30
0.0
 10
76.111100
 20
93.116400
 30
0.0
 10
76.158429
 20
93.106240
 30
0.0
  0
SPLINE
  5
132
100
AcDbEntity
  8
0
 62
1
100
AcDbSpline
 70
8
 71
3
 72
8
 73
4
 74
0
 40
0
 40
0
 40
0
 40
0
 40
1
 40
1
 40
1
 40
1
 10
76.158429
 20
93.106240
 30
0.0
 10
80.487266
 20
92.187607
 30
0.0
 10
155.814607
 20
76.200847
 30
0.0
 10
159.702500
 20
75.375347
 30
0.0
  0
SPLINE
  5
133
100
AcDbEntity
  8
0
 62
1
100
AcDbSpline
 70
8
 71
3
 72
8
 73
4
 74
0
 40
0
 40
0
 40
0
 40
0
 40
1
 40
1
 40
1
 40
1
 10
159.702500
 20
75.375347
 30
0.0
 10
159.788860
 20
75.357567
 30
0.0
 10
159.873527
 20
75.411753
 30
0.0
 10
159.892153
 20
75.498113
 30
0.0
  0
SPLINE
  5
134
100
AcDbEntity
  8
0
 62
1
100
AcDbSpline
 70
8
 71
3
 72
8
 73
4
 74
0
 40
0
 40
0
 40
0
 40
0
 40
1
 40
1
 40
1
 40
1
 10
159.892153
 20
75.498113
 30
0.0
 10
160.698180
 20
79.233607
 30
0.0
 10
175.734133
 20
148.893699
 30
0.0
 10
176.460573
 20
152.261655
 30
0.0
  0
SPLINE
  5
135
100
AcDbEntity
  8
0
 62
1
100
AcDbSpline
 70
8
 71
3
 72
8
 73
4
 74
0
 40
0
 40
0
 40
0
 40
0
 40
1
 40
1
 40
1
 40
1
 10
176.460573
 20
152.261655
 30
0.0
 10
176.476660
 20
152.335315
 30
0.0
 10
176.541853
 20
152.387893
 30
0.0
 10
176.617207
 20
152.387893
 30
0.0
  0
SPLINE
  5
136
100
AcDbEntity
  8
0
 62
1
100
AcDbSpline
 70
8
 71
3
 72
8
 73
4
 74
0
 40
0
 40
0
 40
0
 40
0
 40
1
 40
1
 40
1
 40
1
 10
176.617207
 20
152.387893
 30
0.0
 10
177.105733
 20
152.387893
 30
0.0
 10
178.840553
 20
152.387893
 30
0.0
 10
179.378187
 20
152.387893
 30
0.0
  0
SPLINE
  5
137
100
AcDbEntity
  8
0
 62
1
100
AcDbSpline
 70
8
 71
3
 72
8
 73
4
 74
0
 40
0
 40
0
 40
0
 40
0
 40
1
 40
1
 40
1
 40
1
 10
179.378187
 20
152.387893
 30
0.0
 10
179.420520
 20
152.387893
 30
0.0
 10
179.461160
 20
152.371044
 30
0.0
 10
179.490793
 20
152.341072
 30
0.0
  0
SPLINE
  5
138
100
AcDbEntity
  8
0
 62
1
100
AcDbSpline
 70
8
 71
3
 72
8
 73
4
 74
0
 40
0
 40
0
 40
0
 40
0
 40
1
 40
1
 40
1
 40
1
 10
179.490793
 20
152.341072
 30
0.0
 10
179.521273
 20
152.311015
 30
0.0
 10
179.538207
 20
152.270375
 30
0.0
 10
179.538207
 20
152.227873
 30
0.0
  0
SPLINE
  5
139
100
AcDbEntity
  8
0
 62
1
100
AcDbSpline
 70
8
 71
3
 72
8
 73
4
 74
0
 40
0
 40
0
 40
0
 40
0
 40
1
 40
1
 40
1
 40
1
 10
179.538207
 20
152.227873
 30
0.0
 10
179.538207
 20
148.440817
 30
0.0
 10
179.538207
 20
78.624853
 30
0.0
 10
179.538207
 20
71.188580
 30
0.0
  0
SPLINE
  5
13a
100
AcDbEntity
  8
0
 62
1
100
AcDbSpline
 70
8
 71
3
 72
8
 73
4
 74
0
 40
0
 40
0
 40
0
 40
0
 40
1
 40
1
 40
1
 40
1
 10
179.538207
 20
71.188580
 30
0.0
 10
179.538207
 20
71.018400
 30
0.0
 10
179.470473
 20
70.855840
 30
0.0
 10
179.350247
 20
70.735613
 30
0.0
  0
SPLINE
  5
13b
100
AcDbEntity
  8
0
 62
1
100
AcDbSpline
 70
8
 71
3
 72
8
 73
4
 74
0
 40
0
 40
0
 40
0
 40
0
 40
1
 40
1
 40
1
 40
1
 10
179.350247
 20
70.735613
 30
0.0
 10
179.230020
 20
70.616233
 30
0.0
 10
179.067460
 20
70.548500
 30
0.0
 10
178.898127
 20
70.548500
 30
0.0
  0
SPLINE
  5
13c
100
AcDbEntity
  8
0
 62
1
100
AcDbSpline
 70
8
 71
3
 72
8
 73
4
 74
0
 40
0
 40
0
 40
0
 40
0
 40
1
 40
1
 40
1
 40
1
 10
160.093660
 20
70.548500
 30
0.0
 10
159.637307
 20
70.548500
 30
0.0
 10
159.181800
 20
70.597607
 30
0.0
 10
158.735607
 20
70.694127
 30
0.0
  0
SPLINE
  5
13d
100
AcDbEntity
  8
0
 62
1
100
AcDbSpline
 70
8
 71
3
 72
8
 73
4
 74
0
 40
0
 40
0
 40
0
 40
0
 40
1
 40
1
 40
1
 40
1
 10
158.735607
 20
70.694127
 30
0.0
 10
154.075553
 20
71.705893
 30
0.0
 10
126.583440
 20
77.674047
 30
0.0
 10
121.923387
 20
78.685813
 30
0.0
  0
SPLINE
  5
13e
100
AcDbEntity
  8
0
 62
1
100
AcDbSpline
 70
8
 71
3
 72
8
 73
4
 74
0
 40
0
 40
0
 40
0
 40
0
 40
1
 40
1
 40
1
 40
1
 10
121.923387
 20
78.685813
 30
0.0
 10
121.477193
 20
78.782333
 30
0.0
 10
121.021687
 20
78.831440
 30
0.0
 10
120.565333
 20
78.831440
 30
0.0
  0
SPLINE
  5
13f
100
AcDbEntity
  8
0
 62
1
100
AcDbSpline
 70
8
 71
3
 72
8
 73
4
 74
0
 40
0
 40
0
 40
0
 40
0
 40
1
 40
1
 40
1
 40
1
 10
120.565333
 20
78.831440
 30
0.0
 10
111.726980
 20
78.831440
 30
0.0
 10
20.322117
 20
78.831440
 30
0.0
 10
7.063401
 20
78.831440
 30
0.0
  0
SPLINE
  5
140
100
AcDbEntity
  8
0
 62
1
100
AcDbSpline
 70
8
 71
3
 72
8
 73
4
 74
0
 40
0
 40
0
 40
0
 40
0
 40
1
 40
1
 40
1
 40
1
 10
7.063401
 20
78.831440
 30
0.0
 10
6.639052
 20
78.831440
 30
0.0
 10
6.232144
 20
78.999927
 30
0.0
 10
5.932085
 20
79.300493
 30
0.0
  0
SPLINE
  5
141
100
AcDbEntity
  8
0
 62
1
100
AcDbSpline
 70
8
 71
3
 72
8
 73
4
 74
0
 40
0
 40
0
 40
0
 40
0
 40
1
 40
1
 40
1
 40
1
 10
5.932085
 20
79.300493
 30
0.0
 10
5.632027
 20
79.600213
 30
0.0
 10
5.463455
 20
80.007460
 30
0.0
 10
5.463455
 20
80.431640
 30
0.0
  0
SPLINE
  5
142
100
AcDbEntity
  8
0
 62
1
100
AcDbSpline
 70
8
 71
3
 72
8
 73
4
 74
0
 40
0
 40
0
 40
0
 40
0
 40
1
 40
1
 40
1
 40
1
 10
5.463455
 20
80.431640
 30
0.0
 10
5.463455
 20
93.522800
 30
0.0
 10
5.463455
 20
182.857309
 30
0.0
 10
5.463455
 20
195.948469
 30
0.0
  0
SPLINE
  5
143
100
AcDbEntity
  8
0
 62
1
100
AcDbSpline
 70
8
 71
3
 72
8
 73
4
 74
0
 40
0
 40
0
 40
0
 40
0
 40
1
 40
1
 40
1
 40
1
 10
5.463455
 20
195.948469
 30
0.0
 10
5.463455
 20
196.372819
 30
0.0
 10
5.632027
 20
196.779811
 30
0.0
 10
5.932085
 20
197.079870
 30
0.0
  0
SPLINE
  5
144
100
AcDbEntity
  8
0
 62
1
100
AcDbSpline
 70
8
 71
3
 72
8
 73
4
 74
0
 40
0
 40
0
 40
0
 40
0
 40
1
 40
1
 40
1
 40
1
 10
5.932085
 20
197.079870
 30
0.0
 10
6.232144
 20
197.379929
 30
0.0
 10
6.639052
 20
197.548500
 30
0.0
 10
7.063401
 20
197.548500
 30
0.0
  0
LWPOLYLINE
  5
145
100
AcDbEntity
  8
0
 62
1
100
AcDbPolyline
 90
2
 70
0
 10
178.898127
 20
70.548500
 30
0.0
 10
160.093660
 20
70.548500
 30
0.0
  0
SPLINE
  5
146
100
AcDbEntity
  8
0
 62
1
100
AcDbSpline
 70
8
 71
3
 72
8
 73
4
 74
0
 40
0
 40
0
 40
0
 40
0
 40
1
 40
1
 40
1
 40
1
 10
178.898127
 20
197.548500
 30
0.0
 10
179.067460
 20
197.548500
 30
0.0
 10
179.230020
 20
197.481105
 30
0.0
 10
179.350247
 20
197.361048
 30
0.0
  0
SPLINE
  5
147
100
AcDbEntity
  8
0
 62
1
100
AcDbSpline
 70
8
 71
3
 72
8
 73
4
 74
0
 40
0
 40
0
 40
0
 40
0
 40
1
 40
1
 40
1
 40
1
 10
179.350247
 20
197.361048
 30
0.0
 10
179.470473
 20
197.240991
 30
0.0
 10
179.538207
 20
197.078261
 30
0.0
 10
179.538207
 20
196.908505
 30
0.0
  0
SPLINE
  5
148
100
AcDbEntity
  8
0
 62
1
100
AcDbSpline
 70
8
 71
3
 72
8
 73
4
 74
0
 40
0
 40
0
 40
0
 40
0
 40
1
 40
1
 40
1
 40
1
 10
179.538207
 20
196.908505
 30
0.0
 10
179.538207
 20
192.949661
 30
0.0
 10
179.538207
 20
171.893230
 30
0.0
 10
179.538207
 20
169.627381
 30
0.0
  0
LWPOLYLINE
  5
149
100
AcDbEntity
  8
0
 62
1
100
AcDbPolyline
 90
2
 70
0
 10
7.063401
 20
197.548500
 30
0.0
 10
178.898127
 20
197.548500
 30
0.0
  0
SPLINE
  5
14a
100
AcDbEntity
  8
0
 62
1
100
AcDbSpline
 70
8
 71
3
 72
8
 73
4
 74
0
 40
0
 40
0
 40
0
 40
0
 40
1
 40
1
 40
1
 40
1
 10
175.539400
 20
73.516913
 30
0.0
 10
174.986527
 20
73.516913
 30
0.0
 10
174.537793
 20
73.964800
 30
0.0
 10
174.537793
 20
74.517673
 30
0.0
  0
SPLINE
  5
14b
100
AcDbEntity
  8
0
 62
1
100
AcDbSpline
 70
8
 71
3
 72
8
 73
4
 74
0
 40
0
 40
0
 40
0
 40
0
 40
1
 40
1
 40
1
 40
1
 10
174.537793
 20
74.517673
 30
0.0
 10
174.537793
 20
75.068853
 30
0.0
 10
174.986527
 20
75.517587
 30
0.0
 10
175.539400
 20
75.517587
 30
0.0
  0
SPLINE
  5
14c
100
AcDbEntity
  8
0
 62
1
100
AcDbSpline
 70
8
 71
3
 72
8
 73
4
 74
0
 40
0
 40
0
 40
0
 40
0
 40
1
 40
1
 40
1
 40
1
 10
175.539400
 20
75.517587
 30
0.0
 10
176.089733
 20
75.517587
 30
0.0
 10
176.537620
 20
75.068853
 30
0.0
 10
176.537620
 20
74.517673
 30
0.0
  0
SPLINE
  5
14d
100
AcDbEntity
  8
0
 62
1
100
AcDbSpline
 70
8
 71
3
 72
8
 73
4
 74
0
 40
0
 40
0
 40
0
 40
0
 40
1
 40
1
 40
1
 40
1
 10
176.537620
 20
74.517673
 30
0.0
 10
176.537620
 20
73.964800
 30
0.0
 10
176.089733
 20
73.516913
 30
0.0
 10
175.539400
 20
73.516913
 30
0.0
  0
LWPOLYLINE
  5
14e
100
AcDbEntity
  8
0
 62
1
100
AcDbPolyline
 90
1
 70
1
 10
179.538207
 20
169.627381
 30
0.0
  0
SPLINE
  5
14f
100
AcDbEntity
  8
0
 62
1
100
AcDbSpline
 70
8
 71
3
 72
8
 73
4
 74
0
 40
0
 40
0
 40
0
 40
0
 40
1
 40
1
 40
1
 40
1
 10
9.465225
 20
81.831180
 30
0.0
 10
8.911929
 20
81.831180
 30
0.0
 10
8.463449
 20
82.279067
 30
0.0
 10
8.463449
 20
82.831940
 30
0.0
  0
SPLINE
  5
150
100
AcDbEntity
  8
0
 62
1
100
AcDbSpline
 70
8
 71
3
 72
8
 73
4
 74
0
 40
0
 40
0
 40
0
 40
0
 40
1
 40
1
 40
1
 40
1
 10
8.463449
 20
82.831940
 30
0.0
 10
8.463449
 20
83.383967
 30
0.0
 10
8.911929
 20
83.831853
 30
0.0
 10
9.465225
 20
83.831853
 30
0.0
  0
SPLINE
  5
151
100
AcDbEntity
  8
0
 62
1
100
AcDbSpline
 70
8
 71
3
 72
8
 73
4
 74
0
 40
0
 40
0
 40
0
 40
0
 40
1
 40
1
 40
1
 40
1
 10
9.465225
 20
83.831853
 30
0.0
 10
10.014966
 20
83.831853
 30
0.0
 10
10.463445
 20
83.383967
 30
0.0
 10
10.463445
 20
82.831940
 30
0.0
  0
SPLINE
  5
152
100
AcDbEntity
  8
0
 62
1
100
AcDbSpline
 70
8
 71
3
 72
8
 73
4
 74
0
 40
0
 40
0
 40
0
 40
0
 40
1
 40
1
 40
1
 40
1
 10
10.463445
 20
82.831940
 30
0.0
 10
10.463445
 20
82.279067
 30
0.0
 10
10.014966
 20
81.831180
 30
0.0
 10
9.465225
 20
81.831180
 30
0.0
  0
LWPOLYLINE
  5
153
100
AcDbEntity
  8
0
 62
1
100
AcDbPolyline
 90
1
 70
1
 10
175.539400
 20
73.516913
 30
0.0
  0
SPLINE
  5
154
100
AcDbEntity
  8
0
 62
1
100
AcDbSpline
 70
8
 71
3
 72
8
 73
4
 74
0
 40
0
 40
0
 40
0
 40
0
 40
1
 40
1
 40
1
 40
1
 10
98.168460
 20
81.831180
 30
0.0
 10
97.614740
 20
81.831180
 30
0.0
 10
97.166853
 20
82.279067
 30
0.0
 10
97.166853
 20
82.831940
 30
0.0
  0
SPLINE
  5
155
100
AcDbEntity
  8
0
 62
1
100
AcDbSpline
 70
8
 71
3
 72
8
 73
4
 74
0
 40
0
 40
0
 40
0
 40
0
 40
1
 40
1
 40
1
 40
1
 10
97.166853
 20
82.831940
 30
0.0
 10
97.166853
 20
83.383967
 30
0.0
 10
97.614740
 20
83.831853
 30
0.0
 10
98.168460
 20
83.831853
 30
0.0
  0
SPLINE
  5
156
100
AcDbEntity
  8
0
 62
1
100
AcDbSpline
 70
8
 71
3
 72
8
 73
4
 74
0
 40
0
 40
0
 40
0
 40
0
 40
1
 40
1
 40
1
 40
1
 10
98.168460
 20
83.831853
 30
0.0
 10
98.717947
 20
83.831853
 30
0.0
 10
99.166680
 20
83.383967
 30
0.0
 10
99.166680
 20
82.831940
 30
0.0
  0
SPLINE
  5
157
100
AcDbEntity
  8
0
 62
1
100
AcDbSpline
 70
8
 71
3
 72
8
 73
4
 74
0
 40
0
 40
0
 40
0
 40
0
 40
1
 40
1
 40
1
 40
1
 10
99.166680
 20
82.831940
 30
0.0
 10
99.166680
 20
82.279067
 30
0.0
 10
98.717947
 20
81.831180
 30
0.0
 10
98.168460
 20
81.831180
 30
0.0
  0
LWPOLYLINE
  5
158
100
AcDbEntity
  8
0
 62
1
100
AcDbPolyline
 90
1
 70
1
 10
9.465225
 20
81.831180
 30
0.0
  0
SPLINE
  5
159
100
AcDbEntity
  8
0
 62
1
100
AcDbSpline
 70
8
 71
3
 72
8
 73
4
 74
0
 40
0
 40
0
 40
0
 40
0
 40
1
 40
1
 40
1
 40
1
 10
168.120907
 20
102.599067
 30
0.0
 10
167.567187
 20
102.599067
 30
0.0
 10
167.119300
 20
103.046107
 30
0.0
 10
167.119300
 20
103.598980
 30
0.0
  0
SPLINE
  5
15a
100
AcDbEntity
  8
0
 62
1
100
AcDbSpline
 70
8
 71
3
 72
8
 73
4
 74
0
 40
0
 40
0
 40
0
 40
0
 40
1
 40
1
 40
1
 40
1
 10
167.119300
 20
103.598980
 30
0.0
 10
167.119300
 20
104.151007
 30
0.0
 10
167.567187
 20
104.598893
 30
0.0
 10
168.120907
 20
104.598893
 30
0.0
  0
SPLINE
  5
15b
100
AcDbEntity
  8
0
 62
1
100
AcDbSpline
 70
8
 71
3
 72
8
 73
4
 74
0
 40
0
 40
0
 40
0
 40
0
 40
1
 40
1
 40
1
 40
1
 10
168.120907
 20
104.598893
 30
0.0
 10
168.670393
 20
104.598893
 30
0.0
 10
169.119127
 20
104.151007
 30
0.0
 10
169.119127
 20
103.598980
 30
0.0
  0
SPLINE
  5
15c
100
AcDbEntity
  8
0
 62
1
100
AcDbSpline
 70
8
 71
3
 72
8
 73
4
 74
0
 40
0
 40
0
 40
0
 40
0
 40
1
 40
1
 40
1
 40
1
 10
169.119127
 20
103.598980
 30
0.0
 10
169.119127
 20
103.046107
 30
0.0
 10
168.670393
 20
102.599067
 30
0.0
 10
168.120907
 20
102.599067
 30
0.0
  0
LWPOLYLINE
  5
15d
100
AcDbEntity
  8
0
 62
1
100
AcDbPolyline
 90
1
 70
1
 10
98.168460
 20
81.831180
 30
0.0
  0
SPLINE
  5
15e
100
AcDbEntity
  8
0
 62
1
100
AcDbSpline
 70
8
 71
3
 72
8
 73
4
 74
0
 40
0
 40
0
 40
0
 40
0
 40
1
 40
1
 40
1
 40
1
 10
19.609985
 20
106.104267
 30
0.0
 10
19.056604
 20
106.104267
 30
0.0
 10
18.608125
 20
106.552153
 30
0.0
 10
18.608125
 20
107.105027
 30
0.0
  0
SPLINE
  5
15f
100
AcDbEntity
  8
0
 62
1
100
AcDbSpline
 70
8
 71
3
 72
8
 73
4
 74
0
 40
0
 40
0
 40
0
 40
0
 40
1
 40
1
 40
1
 40
1
 10
18.608125
 20
107.105027
 30
0.0
 10
18.608125
 20
107.657053
 30
0.0
 10
19.056604
 20
108.104940
 30
0.0
 10
19.609985
 20
108.104940
 30
0.0
  0
SPLINE
  5
160
100
AcDbEntity
  8
0
 62
1
100
AcDbSpline
 70
8
 71
3
 72
8
 73
4
 74
0
 40
0
 40
0
 40
0
 40
0
 40
1
 40
1
 40
1
 40
1
 10
19.609985
 20
108.104940
 30
0.0
 10
20.159726
 20
108.104940
 30
0.0
 10
20.608121
 20
107.657053
 30
0.0
 10
20.608121
 20
107.105027
 30
0.0
  0
SPLINE
  5
161
100
AcDbEntity
  8
0
 62
1
100
AcDbSpline
 70
8
 71
3
 72
8
 73
4
 74
0
 40
0
 40
0
 40
0
 40
0
 40
1
 40
1
 40
1
 40
1
 10
20.608121
 20
107.105027
 30
0.0
 10
20.608121
 20
106.552153
 30
0.0
 10
20.159726
 20
106.104267
 30
0.0
 10
19.609985
 20
106.104267
 30
0.0
  0
LWPOLYLINE
  5
162
100
AcDbEntity
  8
0
 62
1
100
AcDbPolyline
 90
1
 70
1
 10
168.120907
 20
102.599067
 30
0.0
  0
SPLINE
  5
163
100
AcDbEntity
  8
0
 62
1
100
AcDbSpline
 70
8
 71
3
 72
8
 73
4
 74
0
 40
0
 40
0
 40
0
 40
0
 40
1
 40
1
 40
1
 40
1
 10
169.876047
 20
111.047953
 30
0.0
 10
169.322327
 20
111.047953
 30
0.0
 10
168.874440
 20
111.494993
 30
0.0
 10
168.874440
 20
112.047867
 30
0.0
  0
SPLINE
  5
164
100
AcDbEntity
  8
0
 62
1
100
AcDbSpline
 70
8
 71
3
 72
8
 73
4
 74
0
 40
0
 40
0
 40
0
 40
0
 40
1
 40
1
 40
1
 40
1
 10
168.874440
 20
112.047867
 30
0.0
 10
168.874440
 20
112.599893
 30
0.0
 10
169.322327
 20
113.047780
 30
0.0
 10
169.876047
 20
113.047780
 30
0.0
  0
SPLINE
  5
165
100
AcDbEntity
  8
0
 62
1
100
AcDbSpline
 70
8
 71
3
 72
8
 73
4
 74
0
 40
0
 40
0
 40
0
 40
0
 40
1
 40
1
 40
1
 40
1
 10
169.876047
 20
113.047780
 30
0.0
 10
170.425533
 20
113.047780
 30
0.0
 10
170.874267
 20
112.599893
 30
0.0
 10
170.874267
 20
112.047867
 30
0.0
  0
SPLINE
  5
166
100
AcDbEntity
  8
0
 62
1
100
AcDbSpline
 70
8
 71
3
 72
8
 73
4
 74
0
 40
0
 40
0
 40
0
 40
0
 40
1
 40
1
 40
1
 40
1
 10
170.874267
 20
112.047867
 30
0.0
 10
170.874267
 20
111.494993
 30
0.0
 10
170.425533
 20
111.047953
 30
0.0
 10
169.876047
 20
111.047953
 30
0.0
  0
LWPOLYLINE
  5
167
100
AcDbEntity
  8
0
 62
1
100
AcDbPolyline
 90
1
 70
1
 10
19.609985
 20
106.104267
 30
0.0
  0
SPLINE
  5
168
100
AcDbEntity
  8
0
 62
1
100
AcDbSpline
 70
8
 71
3
 72
8
 73
4
 74
0
 40
0
 40
0
 40
0
 40
0
 40
1
 40
1
 40
1
 40
1
 10
171.709080
 20
119.479907
 30
0.0
 10
171.155360
 20
119.479907
 30
0.0
 10
170.707473
 20
119.926947
 30
0.0
 10
170.707473
 20
120.479820
 30
0.0
  0
SPLINE
  5
169
100
AcDbEntity
  8
0
 62
1
100
AcDbSpline
 70
8
 71
3
 72
8
 73
4
 74
0
 40
0
 40
0
 40
0
 40
0
 40
1
 40
1
 40
1
 40
1
 10
170.707473
 20
120.479820
 30
0.0
 10
170.707473
 20
121.031847
 30
0.0
 10
171.155360
 20
121.479733
 30
0.0
 10
171.709080
 20
121.479733
 30
0.0
  0
SPLINE
  5
16a
100
AcDbEntity
  8
0
 62
1
100
AcDbSpline
 70
8
 71
3
 72
8
 73
4
 74
0
 40
0
 40
0
 40
0
 40
0
 40
1
 40
1
 40
1
 40
1
 10
171.709080
 20
121.479733
 30
0.0
 10
172.258567
 20
121.479733
 30
0.0
 10
172.707300
 20
121.031847
 30
0.0
 10
172.707300
 20
120.479820
 30
0.0
  0
SPLINE
  5
16b
100
AcDbEntity
  8
0
 62
1
100
AcDbSpline
 70
8
 71
3
 72
8
 73
4
 74
0
 40
0
 40
0
 40
0
 40
0
 40
1
 40
1
 40
1
 40
1
 10
172.707300
 20
120.479820
 30
0.0
 10
172.707300
 20
119.926947
 30
0.0
 10
172.258567
 20
119.479907
 30
0.0
 10
171.709080
 20
119.479907
 30
0.0
  0
LWPOLYLINE
  5
16c
100
AcDbEntity
  8
0
 62
1
100
AcDbPolyline
 90
1
 70
1
 10
169.876047
 20
111.047953
 30
0.0
  0
SPLINE
  5
16d
100
AcDbEntity
  8
0
 62
1
100
AcDbSpline
 70
8
 71
3
 72
8
 73
4
 74
0
 40
0
 40
0
 40
0
 40
0
 40
1
 40
1
 40
1
 40
1
 10
175.539400
 20
133.607048
 30
0.0
 10
174.986527
 20
133.607048
 30
0.0
 10
174.537793
 20
134.054342
 30
0.0
 10
174.537793
 20
134.607215
 30
0.0
  0
SPLINE
  5
16e
100
AcDbEntity
  8
0
 62
1
100
AcDbSpline
 70
8
 71
3
 72
8
 73
4
 74
0
 40
0
 40
0
 40
0
 40
0
 40
1
 40
1
 40
1
 40
1
 10
174.537793
 20
134.607215
 30
0.0
 10
174.537793
 20
135.159073
 30
0.0
 10
174.986527
 20
135.607044
 30
0.0
 10
175.539400
 20
135.607044
 30
0.0
  0
SPLINE
  5
16f
100
AcDbEntity
  8
0
 62
1
100
AcDbSpline
 70
8
 71
3
 72
8
 73
4
 74
0
 40
0
 40
0
 40
0
 40
0
 40
1
 40
1
 40
1
 40
1
 10
175.539400
 20
135.607044
 30
0.0
 10
176.089733
 20
135.607044
 30
0.0
 10
176.537620
 20
135.159073
 30
0.0
 10
176.537620
 20
134.607215
 30
0.0
  0
SPLINE
  5
170
100
AcDbEntity
  8
0
 62
1
100
AcDbSpline
 70
8
 71
3
 72
8
 73
4
 74
0
 40
0
 40
0
 40
0
 40
0
 40
1
 40
1
 40
1
 40
1
 10
176.537620
 20
134.607215
 30
0.0
 10
176.537620
 20
134.054342
 30
0.0
 10
176.089733
 20
133.607048
 30
0.0
 10
175.539400
 20
133.607048
 30
0.0
  0
LWPOLYLINE
  5
171
100
AcDbEntity
  8
0
 62
1
100
AcDbPolyline
 90
1
 70
1
 10
171.709080
 20
119.479907
 30
0.0
  0
SPLINE
  5
172
100
AcDbEntity
  8
0
 62
1
100
AcDbSpline
 70
8
 71
3
 72
8
 73
4
 74
0
 40
0
 40
0
 40
0
 40
0
 40
1
 40
1
 40
1
 40
1
 10
9.465225
 20
145.277671
 30
0.0
 10
8.911929
 20
145.277671
 30
0.0
 10
8.463449
 20
145.724965
 30
0.0
 10
8.463449
 20
146.277838
 30
0.0
  0
SPLINE
  5
173
100
AcDbEntity
  8
0
 62
1
100
AcDbSpline
 70
8
 71
3
 72
8
 73
4
 74
0
 40
0
 40
0
 40
0
 40
0
 40
1
 40
1
 40
1
 40
1
 10
8.463449
 20
146.277838
 30
0.0
 10
8.463449
 20
146.829695
 30
0.0
 10
8.911929
 20
147.277667
 30
0.0
 10
9.465225
 20
147.277667
 30
0.0
  0
SPLINE
  5
174
100
AcDbEntity
  8
0
 62
1
100
AcDbSpline
 70
8
 71
3
 72
8
 73
4
 74
0
 40
0
 40
0
 40
0
 40
0
 40
1
 40
1
 40
1
 40
1
 10
9.465225
 20
147.277667
 30
0.0
 10
10.014966
 20
147.277667
 30
0.0
 10
10.463445
 20
146.829695
 30
0.0
 10
10.463445
 20
146.277838
 30
0.0
  0
SPLINE
  5
175
100
AcDbEntity
  8
0
 62
1
100
AcDbSpline
 70
8
 71
3
 72
8
 73
4
 74
0
 40
0
 40
0
 40
0
 40
0
 40
1
 40
1
 40
1
 40
1
 10
10.463445
 20
146.277838
 30
0.0
 10
10.463445
 20
145.724965
 30
0.0
 10
10.014966
 20
145.277671
 30
0.0
 10
9.465225
 20
145.277671
 30
0.0
  0
LWPOLYLINE
  5
176
100
AcDbEntity
  8
0
 62
1
100
AcDbPolyline
 90
1
 70
1
 10
175.539400
 20
133.607048
 30
0.0
  0
SPLINE
  5
177
100
AcDbEntity
  8
0
 62
1
100
AcDbSpline
 70
8
 71
3
 72
8
 73
4
 74
0
 40
0
 40
0
 40
0
 40
0
 40
1
 40
1
 40
1
 40
1
 10
16.334401
 20
161.727642
 30
0.0
 10
18.404078
 20
161.727642
 30
0.0
 10
20.084373
 20
160.047347
 30
0.0
 10
20.084373
 20
157.977671
 30
0.0
  0
SPLINE
  5
178
100
AcDbEntity
  8
0
 62
1
100
AcDbSpline
 70
8
 71
3
 72
8
 73
4
 74
0
 40
0
 40
0
 40
0
 40
0
 40
1
 40
1
 40
1
 40
1
 10
20.084373
 20
157.977671
 30
0.0
 10
20.084373
 20
155.907994
 30
0.0
 10
18.404078
 20
154.227699
 30
0.0
 10
16.334401
 20
154.227699
 30
0.0
  0
SPLINE
  5
179
100
AcDbEntity
  8
0
 62
1
100
AcDbSpline
 70
8
 71
3
 72
8
 73
4
 74
0
 40
0
 40
0
 40
0
 40
0
 40
1
 40
1
 40
1
 40
1
 10
16.334401
 20
154.227699
 30
0.0
 10
14.264725
 20
154.227699
 30
0.0
 10
12.584430
 20
155.907994
 30
0.0
 10
12.584430
 20
157.977671
 30
0.0
  0
SPLINE
  5
17a
100
AcDbEntity
  8
0
 62
1
100
AcDbSpline
 70
8
 71
3
 72
8
 73
4
 74
0
 40
0
 40
0
 40
0
 40
0
 40
1
 40
1
 40
1
 40
1
 10
12.584430
 20
157.977671
 30
0.0
 10
12.584430
 20
160.047347
 30
0.0
 10
14.264725
 20
161.727642
 30
0.0
 10
16.334401
 20
161.727642
 30
0.0
  0
LWPOLYLINE
  5
17b
100
AcDbEntity
  8
0
 62
1
100
AcDbPolyline
 90
1
 70
1
 10
9.465225
 20
145.277671
 30
0.0
  0
SPLINE
  5
17c
100
AcDbEntity
  8
0
 62
1
100
AcDbSpline
 70
8
 71
3
 72
8
 73
4
 74
0
 40
0
 40
0
 40
0
 40
0
 40
1
 40
1
 40
1
 40
1
 10
146.149907
 20
178.624399
 30
0.0
 10
145.597033
 20
178.624399
 30
0.0
 10
145.148300
 20
179.071693
 30
0.0
 10
145.148300
 20
179.624567
 30
0.0
  0
SPLINE
  5
17d
100
AcDbEntity
  8
0
 62
1
100
AcDbSpline
 70
8
 71
3
 72
8
 73
4
 74
0
 40
0
 40
0
 40
0
 40
0
 40
1
 40
1
 40
1
 40
1
 10
145.148300
 20
179.624567
 30
0.0
 10
145.148300
 20
180.176424
 30
0.0
 10
145.597033
 20
180.624395
 30
0.0
 10
146.149907
 20
180.624395
 30
0.0
  0
SPLINE
  5
17e
100
AcDbEntity
  8
0
 62
1
100
AcDbSpline
 70
8
 71
3
 72
8
 73
4
 74
0
 40
0
 40
0
 40
0
 40
0
 40
1
 40
1
 40
1
 40
1
 10
146.149907
 20
180.624395
 30
0.0
 10
146.700240
 20
180.624395
 30
0.0
 10
147.148973
 20
180.176424
 30
0.0
 10
147.148973
 20
179.624567
 30
0.0
  0
SPLINE
  5
17f
100
AcDbEntity
  8
0
 62
1
100
AcDbSpline
 70
8
 71
3
 72
8
 73
4
 74
0
 40
0
 40
0
 40
0
 40
0
 40
1
 40
1
 40
1
 40
1
 10
147.148973
 20
179.624567
 30
0.0
 10
147.148973
 20
179.071693
 30
0.0
 10
146.700240
 20
178.624399
 30
0.0
 10
146.149907
 20
178.624399
 30
0.0
  0
LWPOLYLINE
  5
180
100
AcDbEntity
  8
0
 62
1
100
AcDbPolyline
 90
1
 70
1
 10
16.334401
 20
161.727642
 30
0.0
  0
SPLINE
  5
181
100
AcDbEntity
  8
0
 62
1
100
AcDbSpline
 70
8
 71
3
 72
8
 73
4
 74
0
 40
0
 40
0
 40
0
 40
0
 40
1
 40
1
 40
1
 40
1
 10
44.008717
 20
185.852054
 30
0.0
 10
43.455421
 20
185.852054
 30
0.0
 10
43.006941
 20
186.299263
 30
0.0
 10
43.006941
 20
186.852221
 30
0.0
  0
SPLINE
  5
182
100
AcDbEntity
  8
0
 62
1
100
AcDbSpline
 70
8
 71
3
 72
8
 73
4
 74
0
 40
0
 40
0
 40
0
 40
0
 40
1
 40
1
 40
1
 40
1
 10
43.006941
 20
186.852221
 30
0.0
 10
43.006941
 20
187.404079
 30
0.0
 10
43.455421
 20
187.852050
 30
0.0
 10
44.008717
 20
187.852050
 30
0.0
  0
SPLINE
  5
183
100
AcDbEntity
  8
0
 62
1
100
AcDbSpline
 70
8
 71
3
 72
8
 73
4
 74
0
 40
0
 40
0
 40
0
 40
0
 40
1
 40
1
 40
1
 40
1
 10
44.008717
 20
187.852050
 30
0.0
 10
44.558458
 20
187.852050
 30
0.0
 10
45.006937
 20
187.404079
 30
0.0
 10
45.006937
 20
186.852221
 30
0.0
  0
SPLINE
  5
184
100
AcDbEntity
  8
0
 62
1
100
AcDbSpline
 70
8
 71
3
 72
8
 73
4
 74
0
 40
0
 40
0
 40
0
 40
0
 40
1
 40
1
 40
1
 40
1
 10
45.006937
 20
186.852221
 30
0.0
 10
45.006937
 20
186.299263
 30
0.0
 10
44.558458
 20
185.852054
 30
0.0
 10
44.008717
 20
185.852054
 30
0.0
  0
LWPOLYLINE
  5
185
100
AcDbEntity
  8
0
 62
1
100
AcDbPolyline
 90
1
 70
1
 10
146.149907
 20
178.624399
 30
0.0
  0
SPLINE
  5
186
100
AcDbEntity
  8
0
 62
1
100
AcDbSpline
 70
8
 71
3
 72
8
 73
4
 74
0
 40
0
 40
0
 40
0
 40
0
 40
1
 40
1
 40
1
 40
1
 10
175.539400
 20
192.548510
 30
0.0
 10
174.986527
 20
192.548510
 30
0.0
 10
174.537793
 20
192.995804
 30
0.0
 10
174.537793
 20
193.548677
 30
0.0
  0
SPLINE
  5
187
100
AcDbEntity
  8
0
 62
1
100
AcDbSpline
 70
8
 71
3
 72
8
 73
4
 74
0
 40
0
 40
0
 40
0
 40
0
 40
1
 40
1
 40
1
 40
1
 10
174.537793
 20
193.548677
 30
0.0
 10
174.537793
 20
194.100535
 30
0.0
 10
174.986527
 20
194.548506
 30
0.0
 10
175.539400
 20
194.548506
 30
0.0
  0
SPLINE
  5
188
100
AcDbEntity
  8
0
 62
1
100
AcDbSpline
 70
8
 71
3
 72
8
 73
4
 74
0
 40
0
 40
0
 40
0
 40
0
 40
1
 40
1
 40
1
 40
1
 10
175.539400
 20
194.548506
 30
0.0
 10
176.089733
 20
194.548506
 30
0.0
 10
176.537620
 20
194.100535
 30
0.0
 10
176.537620
 20
193.548677
 30
0.0
  0
SPLINE
  5
189
100
AcDbEntity
  8
0
 62
1
100
AcDbSpline
 70
8
 71
3
 72
8
 73
4
 74
0
 40
0
 40
0
 40
0
 40
0
 40
1
 40
1
 40
1
 40
1
 10
176.537620
 20
193.548677
 30
0.0
 10
176.537620
 20
192.995804
 30
0.0
 10
176.089733
 20
192.548510
 30
0.0
 10
175.539400
 20
192.548510
 30
0.0
  0
LWPOLYLINE
  5
18a
100
AcDbEntity
  8
0
 62
1
100
AcDbPolyline
 90
1
 70
1
 10
44.008717
 20
185.852054
 30
0.0
  0
SPLINE
  5
18b
100
AcDbEntity
  8
0
 62
1
100
AcDbSpline
 70
8
 71
3
 72
8
 73
4
 74
0
 40
0
 40
0
 40
0
 40
0
 40
1
 40
1
 40
1
 40
1
 10
94.308507
 20
192.548510
 30
0.0
 10
93.754787
 20
192.548510
 30
0.0
 10
93.306053
 20
192.995804
 30
0.0
 10
93.306053
 20
193.548677
 30
0.0
  0
SPLINE
  5
18c
100
AcDbEntity
  8
0
 62
1
100
AcDbSpline
 70
8
 71
3
 72
8
 73
4
 74
0
 40
0
 40
0
 40
0
 40
0
 40
1
 40
1
 40
1
 40
1
 10
93.306053
 20
193.548677
 30
0.0
 10
93.306053
 20
194.100535
 30
0.0
 10
93.754787
 20
194.548506
 30
0.0
 10
94.308507
 20
194.548506
 30
0.0
  0
SPLINE
  5
18d
100
AcDbEntity
  8
0
 62
1
100
AcDbSpline
 70
8
 71
3
 72
8
 73
4
 74
0
 40
0
 40
0
 40
0
 40
0
 40
1
 40
1
 40
1
 40
1
 10
94.308507
 20
194.548506
 30
0.0
 10
94.857993
 20
194.548506
 30
0.0
 10
95.305880
 20
194.100535
 30
0.0
 10
95.305880
 20
193.548677
 30
0.0
  0
SPLINE
  5
18e
100
AcDbEntity
  8
0
 62
1
100
AcDbSpline
 70
8
 71
3
 72
8
 73
4
 74
0
 40
0
 40
0
 40
0
 40
0
 40
1
 40
1
 40
1
 40
1
 10
95.305880
 20
193.548677
 30
0.0
 10
95.305880
 20
192.995804
 30
0.0
 10
94.857993
 20
192.548510
 30
0.0
 10
94.308507
 20
192.548510
 30
0.0
  0
LWPOLYLINE
  5
18f
100
AcDbEntity
  8
0
 62
1
100
AcDbPolyline
 90
1
 70
1
 10
175.539400
 20
192.548510
 30
0.0
  0
SPLINE
  5
190
100
AcDbEntity
  8
0
 62
1
100
AcDbSpline
 70
8
 71
3
 72
8
 73
4
 74
0
 40
0
 40
0
 40
0
 40
0
 40
1
 40
1
 40
1
 40
1
 10
9.465225
 20
192.548510
 30
0.0
 10
8.911929
 20
192.548510
 30
0.0
 10
8.463449
 20
192.995804
 30
0.0
 10
8.463449
 20
193.548677
 30
0.0
  0
SPLINE
  5
191
100
AcDbEntity
  8
0
 62
1
100
AcDbSpline
 70
8
 71
3
 72
8
 73
4
 74
0
 40
0
 40
0
 40
0
 40
0
 40
1
 40
1
 40
1
 40
1
 10
8.463449
 20
193.548677
 30
0.0
 10
8.463449
 20
194.100535
 30
0.0
 10
8.911929
 20
194.548506
 30
0.0
 10
9.465225
 20
194.548506
 30
0.0
  0
SPLINE
  5
192
100
AcDbEntity
  8
0
 62
1
100
AcDbSpline
 70
8
 71
3
 72
8
 73
4
 74
0
 40
0
 40
0
 40
0
 40
0
 40
1
 40
1
 40
1
 40
1
 10
9.465225
 20
194.548506
 30
0.0
 10
10.014966
 20
194.548506
 30
0.0
 10
10.463445
 20
194.100535
 30
0.0
 10
10.463445
 20
193.548677
 30
0.0
  0
SPLINE
  5
193
100
AcDbEntity
  8
0
 62
1
100
AcDbSpline
 70
8
 71
3
 72
8
 73
4
 74
0
 40
0
 40
0
 40
0
 40
0
 40
1
 40
1
 40
1
 40
1
 10
10.463445
 20
193.548677
 30
0.0
 10
10.463445
 20
192.995804
 30
0.0
 10
10.014966
 20
192.548510
 30
0.0
 10
9.465225
 20
192.548510
 30
0.0
  0
LWPOLYLINE
  5
194
100
AcDbEntity
  8
0
 62
1
100
AcDbPolyline
 90
1
 70
1
 10
94.308507
 20
192.548510
 30
0.0
  0
SPLINE
  5
195
100
AcDbEntity
  8
0
 62
1
100
AcDbSpline
 70
8
 71
3
 72
8
 73
4
 74
0
 40
0
 40
0
 40
0
 40
0
 40
1
 40
1
 40
1
 40
1
 10
52.201826
 20
192.548510
 30
0.0
 10
51.648529
 20
192.548510
 30
0.0
 10
51.200050
 20
192.995804
 30
0.0
 10
51.200050
 20
193.548677
 30
0.0
  0
SPLINE
  5
196
100
AcDbEntity
  8
0
 62
1
100
AcDbSpline
 70
8
 71
3
 72
8
 73
4
 74
0
 40
0
 40
0
 40
0
 40
0
 40
1
 40
1
 40
1
 40
1
 10
51.200050
 20
193.548677
 30
0.0
 10
51.200050
 20
194.100535
 30
0.0
 10
51.648529
 20
194.548506
 30
0.0
 10
52.201826
 20
194.548506
 30
0.0
  0
SPLINE
  5
197
100
AcDbEntity
  8
0
 62
1
100
AcDbSpline
 70
8
 71
3
 72
8
 73
4
 74
0
 40
0
 40
0
 40
0
 40
0
 40
1
 40
1
 40
1
 40
1
 10
52.201826
 20
194.548506
 30
0.0
 10
52.751567
 20
194.548506
 30
0.0
 10
53.200046
 20
194.100535
 30
0.0
 10
53.200046
 20
193.548677
 30
0.0
  0
SPLINE
  5
198
100
AcDbEntity
  8
0
 62
1
100
AcDbSpline
 70
8
 71
3
 72
8
 73
4
 74
0
 40
0
 40
0
 40
0
 40
0
 40
1
 40
1
 40
1
 40
1
 10
53.200046
 20
193.548677
 30
0.0
 10
53.200046
 20
192.995804
 30
0.0
 10
52.751567
 20
192.548510
 30
0.0
 10
52.201826
 20
192.548510
 30
0.0
  0
LWPOLYLINE
  5
199
100
AcDbEntity
  8
0
 62
1
100
AcDbPolyline
 90
1
 70
1
 10
9.465225
 20
192.548510
 30
0.0
  0
LWPOLYLINE
  5
19a
100
AcDbEntity
  8
0
 62
1
100
AcDbPolyline
 90
1
 70
1
 10
52.201826
 20
192.548510
 30
0.0
  0
ENDSEC
  0
SECTION
  2
OBJECTS
  0
DICTIONARY
  5
C
330
0
100
AcDbDictionary
  3
ACAD_GROUP
350
D
  3
ACAD_MLINESTYLE
350
17
  0
DICTIONARY
  5
D
330
C
100
AcDbDictionary
  0
DICTIONARY
  5
1A
330
C
100
AcDbDictionary
  0
DICTIONARY
  5
17
330
C
100
AcDbDictionary
  3
STANDARD
350
18
  0
DICTIONARY
  5
19
330
C
100
AcDbDictionary
  0
ENDSEC
  0
EOF
