G04 #@! TF.GenerationSoftware,KiCad,Pcbnew,(5.1.5-0-10_14)*
G04 #@! TF.CreationDate,2020-04-20T21:29:55+09:00*
G04 #@! TF.ProjectId,colice_left_topFrame,636f6c69-6365-45f6-9c65-66745f746f70,rev?*
G04 #@! TF.SameCoordinates,Original*
G04 #@! TF.FileFunction,Profile,NP*
%FSLAX46Y46*%
G04 Gerber Fmt 4.6, Leading zero omitted, Abs format (unit mm)*
G04 Created by KiCad (PCBNEW (5.1.5-0-10_14)) date 2020-04-20 21:29:55*
%MOMM*%
%LPD*%
G04 APERTURE LIST*
%ADD10C,0.200000*%
G04 APERTURE END LIST*
D10*
X181024951Y-101546006D02*
X181041856Y-101362193D01*
X181041856Y-101362193D02*
X181084942Y-101204523D01*
X181084942Y-101204523D02*
X181147662Y-101066266D01*
X181147662Y-101066266D02*
X181227119Y-100943740D01*
X181227119Y-100943740D02*
X181321010Y-100836509D01*
X181321010Y-100836509D02*
X181429142Y-100743565D01*
X181429142Y-100743565D02*
X181557883Y-100662273D01*
X181557883Y-100662273D02*
X181698341Y-100601170D01*
X181698341Y-100601170D02*
X181858283Y-100560264D01*
X181858283Y-100560264D02*
X182026761Y-100546185D01*
X28889849Y-139716778D02*
X28787656Y-139613089D01*
X28787656Y-139613089D02*
X28689121Y-139510191D01*
X28689121Y-139510191D02*
X28590885Y-139404620D01*
X28590885Y-139404620D02*
X28494947Y-139298501D01*
X28494947Y-139298501D02*
X28400651Y-139191154D01*
X28400651Y-139191154D02*
X28308007Y-139082599D01*
X28308007Y-139082599D02*
X28217023Y-138972856D01*
X28217023Y-138972856D02*
X28127702Y-138861939D01*
X28127702Y-138861939D02*
X28037711Y-138746830D01*
X28037711Y-138746830D02*
X27949498Y-138630532D01*
X27949498Y-138630532D02*
X27863068Y-138513060D01*
X27863068Y-138513060D02*
X27776231Y-138391307D01*
X27776231Y-138391307D02*
X27691290Y-138268365D01*
X27691290Y-138268365D02*
X27610363Y-138147458D01*
X27610363Y-138147458D02*
X27530228Y-138023853D01*
X27530228Y-138023853D02*
X27444449Y-137886957D01*
X27444449Y-137886957D02*
X27368752Y-137761914D01*
X27368752Y-137761914D02*
X27293500Y-137633361D01*
X27293500Y-137633361D02*
X27220204Y-137503761D01*
X27220204Y-137503761D02*
X27145722Y-137367252D01*
X27145722Y-137367252D02*
X27074706Y-137232194D01*
X27074706Y-137232194D02*
X27001966Y-137088423D01*
X27001966Y-137088423D02*
X26936489Y-136953862D01*
X26936489Y-136953862D02*
X26872251Y-136816631D01*
X26872251Y-136816631D02*
X26809721Y-136677588D01*
X26809721Y-136677588D02*
X26749324Y-136537621D01*
X26749324Y-136537621D02*
X26687142Y-136387036D01*
X26687142Y-136387036D02*
X26629471Y-136240786D01*
X26629471Y-136240786D02*
X26574429Y-136094529D01*
X26574429Y-136094529D02*
X26520413Y-135943810D01*
X26520413Y-135943810D02*
X26468807Y-135792214D01*
X26468807Y-135792214D02*
X26419050Y-135637948D01*
X26419050Y-135637948D02*
X26372052Y-135483756D01*
X26372052Y-135483756D02*
X26325487Y-135321412D01*
X26325487Y-135321412D02*
X26281885Y-135159145D01*
X26281885Y-135159145D02*
X26240099Y-134992364D01*
X26240099Y-134992364D02*
X26201163Y-134824780D01*
X26201163Y-134824780D02*
X26165091Y-134656433D01*
X26165091Y-134656433D02*
X26130844Y-134481705D01*
X26130844Y-134481705D02*
X26098574Y-134299616D01*
X26098574Y-134299616D02*
X26070783Y-134124371D01*
X26070783Y-134124371D02*
X26045707Y-133945611D01*
X26045707Y-133945611D02*
X26023840Y-133766216D01*
X26023840Y-133766216D02*
X26004839Y-133582392D01*
X26004839Y-133582392D02*
X25989216Y-133397991D01*
X25989216Y-133397991D02*
X25976778Y-133209198D01*
X25976778Y-133209198D02*
X25966792Y-132988944D01*
X25966792Y-132988944D02*
X25961913Y-132787470D01*
X25961913Y-132787470D02*
X25960912Y-132645776D01*
X125543202Y-143082812D02*
X125376852Y-143048195D01*
X125376852Y-143048195D02*
X125202218Y-143013439D01*
X125202218Y-143013439D02*
X125033353Y-142981365D01*
X125033353Y-142981365D02*
X124856184Y-142949321D01*
X124856184Y-142949321D02*
X124673718Y-142918036D01*
X124673718Y-142918036D02*
X124499081Y-142889719D01*
X124499081Y-142889719D02*
X124315115Y-142861597D01*
X124315115Y-142861597D02*
X124139014Y-142836314D01*
X124139014Y-142836314D02*
X123958655Y-142812072D01*
X123958655Y-142812072D02*
X123780121Y-142789718D01*
X123780121Y-142789718D02*
X123593274Y-142768066D01*
X123593274Y-142768066D02*
X123412338Y-142748795D01*
X123412338Y-142748795D02*
X123229195Y-142730979D01*
X123229195Y-142730979D02*
X123041817Y-142714507D01*
X123041817Y-142714507D02*
X122852246Y-142699649D01*
X122852246Y-142699649D02*
X122655896Y-142686171D01*
X122655896Y-142686171D02*
X122460427Y-142674679D01*
X122460427Y-142674679D02*
X122264318Y-142665076D01*
X122264318Y-142665076D02*
X122068100Y-142657400D01*
X122068100Y-142657400D02*
X121871781Y-142651651D01*
X121871781Y-142651651D02*
X121675378Y-142647830D01*
X121675378Y-142647830D02*
X121470718Y-142645902D01*
X121470718Y-142645902D02*
X121384746Y-142645720D01*
X178976829Y-26413206D02*
X178959922Y-26597313D01*
X178959922Y-26597313D02*
X178916868Y-26755157D01*
X178916868Y-26755157D02*
X178853498Y-26894830D01*
X178853498Y-26894830D02*
X178774677Y-27016360D01*
X178774677Y-27016360D02*
X178681225Y-27123286D01*
X178681225Y-27123286D02*
X178572190Y-27217086D01*
X178572190Y-27217086D02*
X178449923Y-27294841D01*
X178449923Y-27294841D02*
X178310270Y-27356698D01*
X178310270Y-27356698D02*
X178151086Y-27398459D01*
X178151086Y-27398459D02*
X177978636Y-27413389D01*
X177978636Y-25413385D02*
X178162196Y-25430340D01*
X178162196Y-25430340D02*
X178319429Y-25473432D01*
X178319429Y-25473432D02*
X178457052Y-25535934D01*
X178457052Y-25535934D02*
X178579395Y-25615272D01*
X178579395Y-25615272D02*
X178686259Y-25708743D01*
X178686259Y-25708743D02*
X178779409Y-25816948D01*
X178779409Y-25816948D02*
X178857654Y-25939773D01*
X178857654Y-25939773D02*
X178919519Y-26079099D01*
X178919519Y-26079099D02*
X178961595Y-26238615D01*
X178961595Y-26238615D02*
X178976829Y-26413206D01*
X173405005Y-152809442D02*
X173204410Y-152808433D01*
X173204410Y-152808433D02*
X172991612Y-152805163D01*
X172991612Y-152805163D02*
X172793222Y-152800072D01*
X172793222Y-152800072D02*
X172599021Y-152793182D01*
X172599021Y-152793182D02*
X172404925Y-152784404D01*
X172404925Y-152784404D02*
X172212989Y-152773863D01*
X172212989Y-152773863D02*
X172021185Y-152761480D01*
X172021185Y-152761480D02*
X171833604Y-152747581D01*
X171833604Y-152747581D02*
X171648715Y-152732137D01*
X171648715Y-152732137D02*
X171465005Y-152715084D01*
X171465005Y-152715084D02*
X171279427Y-152696117D01*
X171279427Y-152696117D02*
X171099110Y-152676010D01*
X171099110Y-152676010D02*
X170920501Y-152654459D01*
X170920501Y-152654459D02*
X170742082Y-152631301D01*
X170742082Y-152631301D02*
X170563866Y-152606540D01*
X170563866Y-152606540D02*
X170383336Y-152579787D01*
X170383336Y-152579787D02*
X170208088Y-152552206D01*
X170208088Y-152552206D02*
X170030544Y-152522636D01*
X170030544Y-152522636D02*
X169859287Y-152492554D01*
X169859287Y-152492554D02*
X169686256Y-152460601D01*
X169686256Y-152460601D02*
X169518502Y-152428118D01*
X169518502Y-152428118D02*
X169348991Y-152393781D01*
X169348991Y-152393781D02*
X169246814Y-152372349D01*
X184976865Y-90309718D02*
X184976865Y-90309718D01*
X40307986Y-137924878D02*
X40307986Y-137924878D01*
X185975059Y-89309535D02*
X185958152Y-89493642D01*
X185958152Y-89493642D02*
X185915097Y-89651486D01*
X185915097Y-89651486D02*
X185851727Y-89791159D01*
X185851727Y-89791159D02*
X185772906Y-89912689D01*
X185772906Y-89912689D02*
X185679454Y-90019615D01*
X185679454Y-90019615D02*
X185570419Y-90113415D01*
X185570419Y-90113415D02*
X185448152Y-90191170D01*
X185448152Y-90191170D02*
X185308499Y-90253027D01*
X185308499Y-90253027D02*
X185149315Y-90294788D01*
X185149315Y-90294788D02*
X184976865Y-90309718D01*
X184976865Y-88309714D02*
X185160425Y-88326669D01*
X185160425Y-88326669D02*
X185317658Y-88369762D01*
X185317658Y-88369762D02*
X185455281Y-88432264D01*
X185455281Y-88432264D02*
X185577624Y-88511602D01*
X185577624Y-88511602D02*
X185684488Y-88605073D01*
X185684488Y-88605073D02*
X185777638Y-88713278D01*
X185777638Y-88713278D02*
X185855883Y-88836102D01*
X185855883Y-88836102D02*
X185917748Y-88975428D01*
X185917748Y-88975428D02*
X185959825Y-89134944D01*
X185959825Y-89134944D02*
X185975059Y-89309535D01*
X40307986Y-27413389D02*
X40123698Y-27396521D01*
X40123698Y-27396521D02*
X39964581Y-27353148D01*
X39964581Y-27353148D02*
X39825784Y-27290241D01*
X39825784Y-27290241D02*
X39701050Y-27209185D01*
X39701050Y-27209185D02*
X39591652Y-27112645D01*
X39591652Y-27112645D02*
X39498469Y-27002795D01*
X39498469Y-27002795D02*
X39421442Y-26879686D01*
X39421442Y-26879686D02*
X39360664Y-26739638D01*
X39360664Y-26739638D02*
X39320013Y-26579975D01*
X39320013Y-26579975D02*
X39306176Y-26413206D01*
X177978636Y-143309767D02*
X177978636Y-143309767D01*
X183975055Y-89309535D02*
X183991960Y-89125722D01*
X183991960Y-89125722D02*
X184035046Y-88968052D01*
X184035046Y-88968052D02*
X184097766Y-88829795D01*
X184097766Y-88829795D02*
X184177223Y-88707269D01*
X184177223Y-88707269D02*
X184271114Y-88600038D01*
X184271114Y-88600038D02*
X184379246Y-88507094D01*
X184379246Y-88507094D02*
X184507987Y-88425802D01*
X184507987Y-88425802D02*
X184648445Y-88364699D01*
X184648445Y-88364699D02*
X184808387Y-88323793D01*
X184808387Y-88323793D02*
X184976865Y-88309714D01*
X184976865Y-90309718D02*
X184792577Y-90292850D01*
X184792577Y-90292850D02*
X184633460Y-90249477D01*
X184633460Y-90249477D02*
X184494663Y-90186570D01*
X184494663Y-90186570D02*
X184369929Y-90105514D01*
X184369929Y-90105514D02*
X184260531Y-90008974D01*
X184260531Y-90008974D02*
X184167348Y-89899124D01*
X184167348Y-89899124D02*
X184090321Y-89776015D01*
X184090321Y-89776015D02*
X184029543Y-89635967D01*
X184029543Y-89635967D02*
X183988892Y-89476304D01*
X183988892Y-89476304D02*
X183975055Y-89309535D01*
X40307986Y-27413389D02*
X40307986Y-27413389D01*
X41306179Y-136924695D02*
X41289272Y-137108802D01*
X41289272Y-137108802D02*
X41246218Y-137266646D01*
X41246218Y-137266646D02*
X41182848Y-137406319D01*
X41182848Y-137406319D02*
X41104027Y-137527849D01*
X41104027Y-137527849D02*
X41010575Y-137634775D01*
X41010575Y-137634775D02*
X40901540Y-137728575D01*
X40901540Y-137728575D02*
X40779273Y-137806330D01*
X40779273Y-137806330D02*
X40639620Y-137868187D01*
X40639620Y-137868187D02*
X40480436Y-137909948D01*
X40480436Y-137909948D02*
X40307986Y-137924878D01*
X40307986Y-135924874D02*
X40491546Y-135941829D01*
X40491546Y-135941829D02*
X40648779Y-135984922D01*
X40648779Y-135984922D02*
X40786402Y-136047424D01*
X40786402Y-136047424D02*
X40908745Y-136126762D01*
X40908745Y-136126762D02*
X41015609Y-136220233D01*
X41015609Y-136220233D02*
X41108759Y-136328438D01*
X41108759Y-136328438D02*
X41187004Y-136451262D01*
X41187004Y-136451262D02*
X41248869Y-136590588D01*
X41248869Y-136590588D02*
X41290945Y-136750104D01*
X41290945Y-136750104D02*
X41306179Y-136924695D01*
X177978636Y-141309763D02*
X178162196Y-141326718D01*
X178162196Y-141326718D02*
X178319429Y-141369810D01*
X178319429Y-141369810D02*
X178457052Y-141432312D01*
X178457052Y-141432312D02*
X178579395Y-141511650D01*
X178579395Y-141511650D02*
X178686259Y-141605121D01*
X178686259Y-141605121D02*
X178779409Y-141713326D01*
X178779409Y-141713326D02*
X178857654Y-141836151D01*
X178857654Y-141836151D02*
X178919519Y-141975477D01*
X178919519Y-141975477D02*
X178961595Y-142134993D01*
X178961595Y-142134993D02*
X178976829Y-142309584D01*
X178976829Y-142309584D02*
X178959922Y-142493691D01*
X178959922Y-142493691D02*
X178916868Y-142651535D01*
X178916868Y-142651535D02*
X178853498Y-142791208D01*
X178853498Y-142791208D02*
X178774677Y-142912738D01*
X178774677Y-142912738D02*
X178681225Y-143019664D01*
X178681225Y-143019664D02*
X178572190Y-143113464D01*
X178572190Y-143113464D02*
X178449923Y-143191219D01*
X178449923Y-143191219D02*
X178310270Y-143253076D01*
X178310270Y-143253076D02*
X178151086Y-143294837D01*
X178151086Y-143294837D02*
X177978636Y-143309767D01*
X176976826Y-26413206D02*
X176993731Y-26229393D01*
X176993731Y-26229393D02*
X177036817Y-26071723D01*
X177036817Y-26071723D02*
X177099537Y-25933466D01*
X177099537Y-25933466D02*
X177178994Y-25810939D01*
X177178994Y-25810939D02*
X177272885Y-25703708D01*
X177272885Y-25703708D02*
X177381017Y-25610764D01*
X177381017Y-25610764D02*
X177509758Y-25529472D01*
X177509758Y-25529472D02*
X177650216Y-25468369D01*
X177650216Y-25468369D02*
X177810158Y-25427464D01*
X177810158Y-25427464D02*
X177978636Y-25413385D01*
X177978636Y-27413389D02*
X177794348Y-27396521D01*
X177794348Y-27396521D02*
X177635231Y-27353148D01*
X177635231Y-27353148D02*
X177496434Y-27290241D01*
X177496434Y-27290241D02*
X177371700Y-27209185D01*
X177371700Y-27209185D02*
X177262302Y-27112645D01*
X177262302Y-27112645D02*
X177169119Y-27002795D01*
X177169119Y-27002795D02*
X177092092Y-26879686D01*
X177092092Y-26879686D02*
X177031314Y-26739638D01*
X177031314Y-26739638D02*
X176990663Y-26579975D01*
X176990663Y-26579975D02*
X176976826Y-26413206D01*
X174110649Y-127020989D02*
X174163939Y-126770271D01*
X174163939Y-126770271D02*
X174306773Y-126098272D01*
X174306773Y-126098272D02*
X174592327Y-124754835D01*
X174592327Y-124754835D02*
X175397583Y-120966378D01*
X175397583Y-120966378D02*
X177705761Y-110107225D01*
X177705761Y-110107225D02*
X179999051Y-99318117D01*
X179999051Y-99318117D02*
X180903197Y-95064424D01*
X180903197Y-95064424D02*
X181772018Y-90976930D01*
X181772018Y-90976930D02*
X182582757Y-87162693D01*
X182582757Y-87162693D02*
X183135945Y-84560133D01*
X183135945Y-84560133D02*
X183476418Y-82958320D01*
X183476418Y-82958320D02*
X183789571Y-81485041D01*
X183789571Y-81485041D02*
X184072559Y-80153676D01*
X184072559Y-80153676D02*
X184322537Y-78977608D01*
X184322537Y-78977608D02*
X184536662Y-77970219D01*
X184536662Y-77970219D02*
X184712087Y-77144891D01*
X184712087Y-77144891D02*
X184845971Y-76515007D01*
X184845971Y-76515007D02*
X184894537Y-76286518D01*
X179978843Y-152809442D02*
X173405005Y-152809442D01*
X169246814Y-152372349D02*
X168869163Y-152292071D01*
X168869163Y-152292071D02*
X168019096Y-152111373D01*
X168019096Y-152111373D02*
X167061955Y-151907916D01*
X167061955Y-151907916D02*
X166275332Y-151740707D01*
X166275332Y-151740707D02*
X165723379Y-151623382D01*
X165723379Y-151623382D02*
X164855989Y-151439006D01*
X164855989Y-151439006D02*
X163621932Y-151176691D01*
X163621932Y-151176691D02*
X161636083Y-150754575D01*
X161636083Y-150754575D02*
X158747059Y-150140481D01*
X158747059Y-150140481D02*
X155651272Y-149482440D01*
X155651272Y-149482440D02*
X153226052Y-148966937D01*
X153226052Y-148966937D02*
X151578470Y-148616729D01*
X151578470Y-148616729D02*
X149075716Y-148084749D01*
X149075716Y-148084749D02*
X146554503Y-147548846D01*
X146554503Y-147548846D02*
X145296203Y-147281384D01*
X145296203Y-147281384D02*
X144459953Y-147103634D01*
X144459953Y-147103634D02*
X142382021Y-146661956D01*
X142382021Y-146661956D02*
X139138560Y-145972538D01*
X139138560Y-145972538D02*
X136805657Y-145476666D01*
X136805657Y-145476666D02*
X135305774Y-145157859D01*
X135305774Y-145157859D02*
X133861275Y-144850826D01*
X133861275Y-144850826D02*
X132479544Y-144557133D01*
X132479544Y-144557133D02*
X131167966Y-144278354D01*
X131167966Y-144278354D02*
X129933928Y-144016056D01*
X129933928Y-144016056D02*
X128784811Y-143771810D01*
X128784811Y-143771810D02*
X127728000Y-143547184D01*
X127728000Y-143547184D02*
X126770881Y-143343749D01*
X126770881Y-143343749D02*
X125920839Y-143163076D01*
X125920839Y-143163076D02*
X125543202Y-143082812D01*
X180193198Y-110978210D02*
X180193198Y-110978210D01*
X176976826Y-142309584D02*
X176993731Y-142125771D01*
X176993731Y-142125771D02*
X177036817Y-141968101D01*
X177036817Y-141968101D02*
X177099537Y-141829844D01*
X177099537Y-141829844D02*
X177178994Y-141707317D01*
X177178994Y-141707317D02*
X177272885Y-141600086D01*
X177272885Y-141600086D02*
X177381017Y-141507142D01*
X177381017Y-141507142D02*
X177509758Y-141425850D01*
X177509758Y-141425850D02*
X177650216Y-141364747D01*
X177650216Y-141364747D02*
X177810158Y-141323842D01*
X177810158Y-141323842D02*
X177978636Y-141309763D01*
X177978636Y-143309767D02*
X177794348Y-143292899D01*
X177794348Y-143292899D02*
X177635231Y-143249526D01*
X177635231Y-143249526D02*
X177496434Y-143186619D01*
X177496434Y-143186619D02*
X177371700Y-143105563D01*
X177371700Y-143105563D02*
X177262302Y-143009023D01*
X177262302Y-143009023D02*
X177169119Y-142899173D01*
X177169119Y-142899173D02*
X177092092Y-142776064D01*
X177092092Y-142776064D02*
X177031314Y-142636016D01*
X177031314Y-142636016D02*
X176990663Y-142476353D01*
X176990663Y-142476353D02*
X176976826Y-142309584D01*
X182026761Y-102546189D02*
X182026761Y-102546189D01*
X181191392Y-109978027D02*
X181174485Y-110162134D01*
X181174485Y-110162134D02*
X181131430Y-110319978D01*
X181131430Y-110319978D02*
X181068060Y-110459651D01*
X181068060Y-110459651D02*
X180989239Y-110581181D01*
X180989239Y-110581181D02*
X180895787Y-110688107D01*
X180895787Y-110688107D02*
X180786752Y-110781907D01*
X180786752Y-110781907D02*
X180664485Y-110859662D01*
X180664485Y-110859662D02*
X180524832Y-110921519D01*
X180524832Y-110921519D02*
X180365648Y-110963280D01*
X180365648Y-110963280D02*
X180193198Y-110978210D01*
X180193198Y-108978206D02*
X180376758Y-108995161D01*
X180376758Y-108995161D02*
X180533991Y-109038253D01*
X180533991Y-109038253D02*
X180671614Y-109100755D01*
X180671614Y-109100755D02*
X180793957Y-109180093D01*
X180793957Y-109180093D02*
X180900821Y-109273564D01*
X180900821Y-109273564D02*
X180993971Y-109381769D01*
X180993971Y-109381769D02*
X181072216Y-109504594D01*
X181072216Y-109504594D02*
X181134081Y-109643920D01*
X181134081Y-109643920D02*
X181176158Y-109803436D01*
X181176158Y-109803436D02*
X181191392Y-109978027D01*
X179191388Y-109978027D02*
X179208293Y-109794214D01*
X179208293Y-109794214D02*
X179251379Y-109636544D01*
X179251379Y-109636544D02*
X179314099Y-109498287D01*
X179314099Y-109498287D02*
X179393556Y-109375760D01*
X179393556Y-109375760D02*
X179487447Y-109268529D01*
X179487447Y-109268529D02*
X179595579Y-109175585D01*
X179595579Y-109175585D02*
X179724320Y-109094293D01*
X179724320Y-109094293D02*
X179864778Y-109033190D01*
X179864778Y-109033190D02*
X180024720Y-108992285D01*
X180024720Y-108992285D02*
X180193198Y-108978206D01*
X180193198Y-110978210D02*
X180008910Y-110961342D01*
X180008910Y-110961342D02*
X179849793Y-110917969D01*
X179849793Y-110917969D02*
X179710996Y-110855062D01*
X179710996Y-110855062D02*
X179586262Y-110774006D01*
X179586262Y-110774006D02*
X179476864Y-110677466D01*
X179476864Y-110677466D02*
X179383681Y-110567616D01*
X179383681Y-110567616D02*
X179306654Y-110444507D01*
X179306654Y-110444507D02*
X179245876Y-110304459D01*
X179245876Y-110304459D02*
X179205225Y-110144796D01*
X179205225Y-110144796D02*
X179191388Y-109978027D01*
X184976865Y-143309767D02*
X184976865Y-143309767D01*
X183024954Y-101546006D02*
X183008047Y-101730113D01*
X183008047Y-101730113D02*
X182964993Y-101887957D01*
X182964993Y-101887957D02*
X182901623Y-102027630D01*
X182901623Y-102027630D02*
X182822802Y-102149160D01*
X182822802Y-102149160D02*
X182729350Y-102256086D01*
X182729350Y-102256086D02*
X182620315Y-102349886D01*
X182620315Y-102349886D02*
X182498048Y-102427641D01*
X182498048Y-102427641D02*
X182358395Y-102489498D01*
X182358395Y-102489498D02*
X182199211Y-102531259D01*
X182199211Y-102531259D02*
X182026761Y-102546189D01*
X182026761Y-100546185D02*
X182210321Y-100563140D01*
X182210321Y-100563140D02*
X182367554Y-100606233D01*
X182367554Y-100606233D02*
X182505177Y-100668735D01*
X182505177Y-100668735D02*
X182627520Y-100748073D01*
X182627520Y-100748073D02*
X182734384Y-100841544D01*
X182734384Y-100841544D02*
X182827534Y-100949749D01*
X182827534Y-100949749D02*
X182905779Y-101072573D01*
X182905779Y-101072573D02*
X182967644Y-101211899D01*
X182967644Y-101211899D02*
X183009720Y-101371415D01*
X183009720Y-101371415D02*
X183024954Y-101546006D01*
X182026761Y-102546189D02*
X181842473Y-102529321D01*
X181842473Y-102529321D02*
X181683356Y-102485948D01*
X181683356Y-102485948D02*
X181544559Y-102423041D01*
X181544559Y-102423041D02*
X181419825Y-102341985D01*
X181419825Y-102341985D02*
X181310427Y-102245445D01*
X181310427Y-102245445D02*
X181217244Y-102135595D01*
X181217244Y-102135595D02*
X181140217Y-102012486D01*
X181140217Y-102012486D02*
X181079439Y-101872438D01*
X181079439Y-101872438D02*
X181038788Y-101712775D01*
X181038788Y-101712775D02*
X181024951Y-101546006D01*
X33360028Y-137924878D02*
X33360028Y-137924878D01*
X185975059Y-142309584D02*
X185958152Y-142493691D01*
X185958152Y-142493691D02*
X185915097Y-142651535D01*
X185915097Y-142651535D02*
X185851727Y-142791208D01*
X185851727Y-142791208D02*
X185772906Y-142912738D01*
X185772906Y-142912738D02*
X185679454Y-143019664D01*
X185679454Y-143019664D02*
X185570419Y-143113464D01*
X185570419Y-143113464D02*
X185448152Y-143191219D01*
X185448152Y-143191219D02*
X185308499Y-143253076D01*
X185308499Y-143253076D02*
X185149315Y-143294837D01*
X185149315Y-143294837D02*
X184976865Y-143309767D01*
X184976865Y-141309763D02*
X185160425Y-141326718D01*
X185160425Y-141326718D02*
X185317658Y-141369810D01*
X185317658Y-141369810D02*
X185455281Y-141432312D01*
X185455281Y-141432312D02*
X185577624Y-141511650D01*
X185577624Y-141511650D02*
X185684488Y-141605121D01*
X185684488Y-141605121D02*
X185777638Y-141713326D01*
X185777638Y-141713326D02*
X185855883Y-141836151D01*
X185855883Y-141836151D02*
X185917748Y-141975477D01*
X185917748Y-141975477D02*
X185959825Y-142134993D01*
X185959825Y-142134993D02*
X185975059Y-142309584D01*
X183975055Y-142309584D02*
X183991960Y-142125771D01*
X183991960Y-142125771D02*
X184035046Y-141968101D01*
X184035046Y-141968101D02*
X184097766Y-141829844D01*
X184097766Y-141829844D02*
X184177223Y-141707317D01*
X184177223Y-141707317D02*
X184271114Y-141600086D01*
X184271114Y-141600086D02*
X184379246Y-141507142D01*
X184379246Y-141507142D02*
X184507987Y-141425850D01*
X184507987Y-141425850D02*
X184648445Y-141364747D01*
X184648445Y-141364747D02*
X184808387Y-141323842D01*
X184808387Y-141323842D02*
X184976865Y-141309763D01*
X184976865Y-143309767D02*
X184792577Y-143292899D01*
X184792577Y-143292899D02*
X184633460Y-143249526D01*
X184633460Y-143249526D02*
X184494663Y-143186619D01*
X184494663Y-143186619D02*
X184369929Y-143105563D01*
X184369929Y-143105563D02*
X184260531Y-143009023D01*
X184260531Y-143009023D02*
X184167348Y-142899173D01*
X184167348Y-142899173D02*
X184090321Y-142776064D01*
X184090321Y-142776064D02*
X184029543Y-142636016D01*
X184029543Y-142636016D02*
X183988892Y-142476353D01*
X183988892Y-142476353D02*
X183975055Y-142309584D01*
X33360028Y-27413389D02*
X33360028Y-27413389D01*
X34358221Y-136924695D02*
X34341314Y-137108802D01*
X34341314Y-137108802D02*
X34298259Y-137266646D01*
X34298259Y-137266646D02*
X34234889Y-137406319D01*
X34234889Y-137406319D02*
X34156068Y-137527849D01*
X34156068Y-137527849D02*
X34062616Y-137634775D01*
X34062616Y-137634775D02*
X33953581Y-137728575D01*
X33953581Y-137728575D02*
X33831315Y-137806330D01*
X33831315Y-137806330D02*
X33691662Y-137868187D01*
X33691662Y-137868187D02*
X33532478Y-137909948D01*
X33532478Y-137909948D02*
X33360028Y-137924878D01*
X33360028Y-135924874D02*
X33543588Y-135941829D01*
X33543588Y-135941829D02*
X33700821Y-135984922D01*
X33700821Y-135984922D02*
X33838443Y-136047424D01*
X33838443Y-136047424D02*
X33960786Y-136126762D01*
X33960786Y-136126762D02*
X34067650Y-136220233D01*
X34067650Y-136220233D02*
X34160800Y-136328438D01*
X34160800Y-136328438D02*
X34239045Y-136451262D01*
X34239045Y-136451262D02*
X34300910Y-136590588D01*
X34300910Y-136590588D02*
X34342987Y-136750104D01*
X34342987Y-136750104D02*
X34358221Y-136924695D01*
X32358218Y-136924695D02*
X32375123Y-136740882D01*
X32375123Y-136740882D02*
X32418208Y-136583212D01*
X32418208Y-136583212D02*
X32480928Y-136444955D01*
X32480928Y-136444955D02*
X32560385Y-136322429D01*
X32560385Y-136322429D02*
X32654276Y-136215198D01*
X32654276Y-136215198D02*
X32762408Y-136122254D01*
X32762408Y-136122254D02*
X32891150Y-136040962D01*
X32891150Y-136040962D02*
X33031608Y-135979859D01*
X33031608Y-135979859D02*
X33191550Y-135938953D01*
X33191550Y-135938953D02*
X33360028Y-135924874D01*
X33360028Y-137924878D02*
X33175740Y-137908010D01*
X33175740Y-137908010D02*
X33016623Y-137864637D01*
X33016623Y-137864637D02*
X32877826Y-137801730D01*
X32877826Y-137801730D02*
X32753091Y-137720674D01*
X32753091Y-137720674D02*
X32643693Y-137624134D01*
X32643693Y-137624134D02*
X32550510Y-137514284D01*
X32550510Y-137514284D02*
X32473483Y-137391175D01*
X32473483Y-137391175D02*
X32412705Y-137251127D01*
X32412705Y-137251127D02*
X32372055Y-137091464D01*
X32372055Y-137091464D02*
X32358218Y-136924695D01*
X184976865Y-27413389D02*
X184976865Y-27413389D01*
X34358221Y-26413206D02*
X34341314Y-26597313D01*
X34341314Y-26597313D02*
X34298259Y-26755157D01*
X34298259Y-26755157D02*
X34234889Y-26894830D01*
X34234889Y-26894830D02*
X34156068Y-27016360D01*
X34156068Y-27016360D02*
X34062616Y-27123286D01*
X34062616Y-27123286D02*
X33953581Y-27217086D01*
X33953581Y-27217086D02*
X33831315Y-27294841D01*
X33831315Y-27294841D02*
X33691662Y-27356698D01*
X33691662Y-27356698D02*
X33532478Y-27398459D01*
X33532478Y-27398459D02*
X33360028Y-27413389D01*
X33360028Y-25413385D02*
X33543588Y-25430340D01*
X33543588Y-25430340D02*
X33700821Y-25473432D01*
X33700821Y-25473432D02*
X33838443Y-25535934D01*
X33838443Y-25535934D02*
X33960786Y-25615272D01*
X33960786Y-25615272D02*
X34067650Y-25708743D01*
X34067650Y-25708743D02*
X34160800Y-25816948D01*
X34160800Y-25816948D02*
X34239045Y-25939773D01*
X34239045Y-25939773D02*
X34300910Y-26079099D01*
X34300910Y-26079099D02*
X34342987Y-26238615D01*
X34342987Y-26238615D02*
X34358221Y-26413206D01*
X32358218Y-26413206D02*
X32375123Y-26229393D01*
X32375123Y-26229393D02*
X32418208Y-26071723D01*
X32418208Y-26071723D02*
X32480928Y-25933466D01*
X32480928Y-25933466D02*
X32560385Y-25810939D01*
X32560385Y-25810939D02*
X32654276Y-25703708D01*
X32654276Y-25703708D02*
X32762408Y-25610764D01*
X32762408Y-25610764D02*
X32891150Y-25529472D01*
X32891150Y-25529472D02*
X33031608Y-25468369D01*
X33031608Y-25468369D02*
X33191550Y-25427464D01*
X33191550Y-25427464D02*
X33360028Y-25413385D01*
X33360028Y-27413389D02*
X33175740Y-27396521D01*
X33175740Y-27396521D02*
X33016623Y-27353148D01*
X33016623Y-27353148D02*
X32877826Y-27290241D01*
X32877826Y-27290241D02*
X32753091Y-27209185D01*
X32753091Y-27209185D02*
X32643693Y-27112645D01*
X32643693Y-27112645D02*
X32550510Y-27002795D01*
X32550510Y-27002795D02*
X32473483Y-26879686D01*
X32473483Y-26879686D02*
X32412705Y-26739638D01*
X32412705Y-26739638D02*
X32372055Y-26579975D01*
X32372055Y-26579975D02*
X32358218Y-26413206D01*
X189977183Y-52276863D02*
X189977183Y-52276863D01*
X185975059Y-26413206D02*
X185958152Y-26597313D01*
X185958152Y-26597313D02*
X185915097Y-26755157D01*
X185915097Y-26755157D02*
X185851727Y-26894830D01*
X185851727Y-26894830D02*
X185772906Y-27016360D01*
X185772906Y-27016360D02*
X185679454Y-27123286D01*
X185679454Y-27123286D02*
X185570419Y-27217086D01*
X185570419Y-27217086D02*
X185448152Y-27294841D01*
X185448152Y-27294841D02*
X185308499Y-27356698D01*
X185308499Y-27356698D02*
X185149315Y-27398459D01*
X185149315Y-27398459D02*
X184976865Y-27413389D01*
X184976865Y-25413385D02*
X185160425Y-25430340D01*
X185160425Y-25430340D02*
X185317658Y-25473432D01*
X185317658Y-25473432D02*
X185455281Y-25535934D01*
X185455281Y-25535934D02*
X185577624Y-25615272D01*
X185577624Y-25615272D02*
X185684488Y-25708743D01*
X185684488Y-25708743D02*
X185777638Y-25816948D01*
X185777638Y-25816948D02*
X185855883Y-25939773D01*
X185855883Y-25939773D02*
X185917748Y-26079099D01*
X185917748Y-26079099D02*
X185959825Y-26238615D01*
X185959825Y-26238615D02*
X185975059Y-26413206D01*
X189977183Y-52276863D02*
X189947231Y-52447156D01*
X189947231Y-52447156D02*
X189876741Y-52577241D01*
X189876741Y-52577241D02*
X189791710Y-52665272D01*
X25960912Y-30713813D02*
X25962865Y-30514050D01*
X25962865Y-30514050D02*
X25969429Y-30297217D01*
X25969429Y-30297217D02*
X25979349Y-30101483D01*
X25979349Y-30101483D02*
X25993003Y-29906756D01*
X25993003Y-29906756D02*
X26009578Y-29720957D01*
X26009578Y-29720957D02*
X26029523Y-29536146D01*
X26029523Y-29536146D02*
X26052279Y-29356259D01*
X26052279Y-29356259D02*
X26077614Y-29181255D01*
X26077614Y-29181255D02*
X26105953Y-29007243D01*
X26105953Y-29007243D02*
X26137638Y-28832335D01*
X26137638Y-28832335D02*
X26171151Y-28664210D01*
X26171151Y-28664210D02*
X26210467Y-28483862D01*
X26210467Y-28483862D02*
X26249767Y-28317898D01*
X26249767Y-28317898D02*
X26292798Y-28149280D01*
X26292798Y-28149280D02*
X26336576Y-27989236D01*
X26336576Y-27989236D02*
X26381818Y-27833956D01*
X26381818Y-27833956D02*
X26429493Y-27679728D01*
X26429493Y-27679728D02*
X26482021Y-27519306D01*
X26482021Y-27519306D02*
X26537169Y-27360089D01*
X26537169Y-27360089D02*
X26594912Y-27202103D01*
X26594912Y-27202103D02*
X26651029Y-27056019D01*
X26651029Y-27056019D02*
X26710806Y-26907523D01*
X26710806Y-26907523D02*
X26777398Y-26749738D01*
X26777398Y-26749738D02*
X26838784Y-26610651D01*
X26838784Y-26610651D02*
X26902209Y-26472683D01*
X26902209Y-26472683D02*
X26969321Y-26332446D01*
X26969321Y-26332446D02*
X27036823Y-26196799D01*
X27036823Y-26196799D02*
X27108074Y-26058985D01*
X27108074Y-26058985D02*
X27179574Y-25925742D01*
X27179574Y-25925742D02*
X27251159Y-25796998D01*
X27251159Y-25796998D02*
X27324577Y-25669428D01*
X27324577Y-25669428D02*
X27399809Y-25543049D01*
X27399809Y-25543049D02*
X27476835Y-25417877D01*
X27476835Y-25417877D02*
X27557683Y-25290771D01*
X27557683Y-25290771D02*
X27638294Y-25168103D01*
X27638294Y-25168103D02*
X27720645Y-25046695D01*
X27720645Y-25046695D02*
X27804722Y-24926568D01*
X27804722Y-24926568D02*
X27890502Y-24807737D01*
X27890502Y-24807737D02*
X27977975Y-24690222D01*
X27977975Y-24690222D02*
X28064810Y-24577002D01*
X28064810Y-24577002D02*
X28153215Y-24465066D01*
X28153215Y-24465066D02*
X28247954Y-24348643D01*
X28247954Y-24348643D02*
X28341960Y-24236529D01*
X28341960Y-24236529D02*
X28437568Y-24125825D01*
X28437568Y-24125825D02*
X28534756Y-24016539D01*
X28534756Y-24016539D02*
X28633511Y-23908692D01*
X28633511Y-23908692D02*
X28731222Y-23805013D01*
X28731222Y-23805013D02*
X28833014Y-23700061D01*
X28833014Y-23700061D02*
X28936318Y-23596603D01*
X28936318Y-23596603D02*
X29041117Y-23494652D01*
X29041117Y-23494652D02*
X29144647Y-23396786D01*
X29144647Y-23396786D02*
X29249564Y-23300385D01*
X29249564Y-23300385D02*
X29358663Y-23202991D01*
X29358663Y-23202991D02*
X29472039Y-23104742D01*
X29472039Y-23104742D02*
X29595570Y-23001002D01*
X29595570Y-23001002D02*
X29709063Y-22908608D01*
X29709063Y-22908608D02*
X29820964Y-22820159D01*
X29820964Y-22820159D02*
X29934150Y-22733279D01*
X29934150Y-22733279D02*
X30051627Y-22645763D01*
X30051627Y-22645763D02*
X30170424Y-22559936D01*
X30170424Y-22559936D02*
X30290518Y-22475811D01*
X30290518Y-22475811D02*
X30415020Y-22391323D01*
X30415020Y-22391323D02*
X30537687Y-22310710D01*
X30537687Y-22310710D02*
X30661601Y-22231857D01*
X30661601Y-22231857D02*
X30789965Y-22152831D01*
X30789965Y-22152831D02*
X30916344Y-22077596D01*
X30916344Y-22077596D02*
X31043914Y-22004177D01*
X31043914Y-22004177D02*
X31172659Y-21932588D01*
X31172659Y-21932588D02*
X31305902Y-21861086D01*
X31305902Y-21861086D02*
X31440341Y-21791544D01*
X31440341Y-21791544D02*
X31575958Y-21723989D01*
X31575958Y-21723989D02*
X31712730Y-21658437D01*
X31712730Y-21658437D02*
X31854107Y-21593344D01*
X31854107Y-21593344D02*
X31996658Y-21530395D01*
X31996658Y-21530395D02*
X32140362Y-21469613D01*
X32140362Y-21469613D02*
X32283429Y-21411718D01*
X32283429Y-21411718D02*
X32431153Y-21354625D01*
X32431153Y-21354625D02*
X32583600Y-21298525D01*
X32583600Y-21298525D02*
X32737195Y-21244839D01*
X32737195Y-21244839D02*
X32890094Y-21194180D01*
X32890094Y-21194180D02*
X33044072Y-21145929D01*
X33044072Y-21145929D02*
X33199106Y-21100103D01*
X33199106Y-21100103D02*
X33362634Y-21054722D01*
X33362634Y-21054722D02*
X33527273Y-21012055D01*
X33527273Y-21012055D02*
X33691109Y-20972566D01*
X33691109Y-20972566D02*
X33859780Y-20934963D01*
X33859780Y-20934963D02*
X34027600Y-20900589D01*
X34027600Y-20900589D02*
X34215672Y-20865622D01*
X34215672Y-20865622D02*
X34389466Y-20836616D01*
X34389466Y-20836616D02*
X34568151Y-20810068D01*
X34568151Y-20810068D02*
X34747851Y-20786686D01*
X34747851Y-20786686D02*
X34928536Y-20766500D01*
X34928536Y-20766500D02*
X35114133Y-20749204D01*
X35114133Y-20749204D02*
X35316620Y-20734284D01*
X35316620Y-20734284D02*
X35516203Y-20723573D01*
X35516203Y-20723573D02*
X35712780Y-20716883D01*
X35712780Y-20716883D02*
X35910301Y-20713992D01*
X35910301Y-20713992D02*
X35960839Y-20713869D01*
X25960912Y-132645776D02*
X25960912Y-30713813D01*
X174495618Y-127613921D02*
X174350612Y-127558565D01*
X174350612Y-127558565D02*
X174237341Y-127469455D01*
X174237341Y-127469455D02*
X174154406Y-127352293D01*
X174154406Y-127352293D02*
X174105339Y-127200556D01*
X174105339Y-127200556D02*
X174110649Y-127020989D01*
X153064367Y-45048169D02*
X152919664Y-44992750D01*
X152919664Y-44992750D02*
X152807039Y-44904610D01*
X152807039Y-44904610D02*
X152748984Y-44831210D01*
X189373139Y-52765813D02*
X189022899Y-52691358D01*
X189022899Y-52691358D02*
X188747508Y-52632816D01*
X188747508Y-52632816D02*
X188440615Y-52567579D01*
X188440615Y-52567579D02*
X187927168Y-52458436D01*
X187927168Y-52458436D02*
X187137312Y-52290540D01*
X187137312Y-52290540D02*
X186240859Y-52099987D01*
X186240859Y-52099987D02*
X185500896Y-51942697D01*
X185500896Y-51942697D02*
X184980809Y-51832148D01*
X184980809Y-51832148D02*
X183599532Y-51538545D01*
X183599532Y-51538545D02*
X181761619Y-51147881D01*
X181761619Y-51147881D02*
X180461585Y-50871549D01*
X180461585Y-50871549D02*
X178416650Y-50436885D01*
X178416650Y-50436885D02*
X175539327Y-49825293D01*
X175539327Y-49825293D02*
X172563435Y-49192752D01*
X172563435Y-49192752D02*
X170309041Y-48713570D01*
X170309041Y-48713570D02*
X168811867Y-48395340D01*
X168811867Y-48395340D02*
X166591998Y-47923499D01*
X166591998Y-47923499D02*
X163734482Y-47316124D01*
X163734482Y-47316124D02*
X161711209Y-46886071D01*
X161711209Y-46886071D02*
X160428507Y-46613429D01*
X160428507Y-46613429D02*
X157474411Y-45985530D01*
X157474411Y-45985530D02*
X155176604Y-45497126D01*
X155176604Y-45497126D02*
X154418934Y-45336082D01*
X154418934Y-45336082D02*
X153489481Y-45138526D01*
X153489481Y-45138526D02*
X153064367Y-45048169D01*
X96548836Y-31240864D02*
X96478974Y-31569547D01*
X96478974Y-31569547D02*
X96289829Y-32459436D01*
X96289829Y-32459436D02*
X96057074Y-33554496D01*
X96057074Y-33554496D02*
X95798154Y-34772664D01*
X95798154Y-34772664D02*
X95530511Y-36031876D01*
X95530511Y-36031876D02*
X95367322Y-36799656D01*
X95367322Y-36799656D02*
X95303818Y-37098434D01*
X95303818Y-37098434D02*
X95211221Y-37534103D01*
X95211221Y-37534103D02*
X95094843Y-38081659D01*
X95094843Y-38081659D02*
X94988279Y-38583056D01*
X94988279Y-38583056D02*
X94893707Y-39028039D01*
X94893707Y-39028039D02*
X94832453Y-39316258D01*
X94832453Y-39316258D02*
X94796206Y-39486821D01*
X94796206Y-39486821D02*
X94779832Y-39563876D01*
X97142032Y-30855630D02*
X96943826Y-30853538D01*
X96943826Y-30853538D02*
X96796204Y-30907076D01*
X96796204Y-30907076D02*
X96682219Y-30993315D01*
X96682219Y-30993315D02*
X96596941Y-31108852D01*
X96596941Y-31108852D02*
X96548836Y-31240864D01*
X114818316Y-34612984D02*
X114388403Y-34521605D01*
X114388403Y-34521605D02*
X114034454Y-34446371D01*
X114034454Y-34446371D02*
X113632090Y-34360847D01*
X113632090Y-34360847D02*
X113184896Y-34265792D01*
X113184896Y-34265792D02*
X112696461Y-34161969D01*
X112696461Y-34161969D02*
X111898359Y-33992323D01*
X111898359Y-33992323D02*
X110717070Y-33741225D01*
X110717070Y-33741225D02*
X109761170Y-33538035D01*
X109761170Y-33538035D02*
X109100594Y-33397620D01*
X109100594Y-33397620D02*
X108081937Y-33181090D01*
X108081937Y-33181090D02*
X106685476Y-32884250D01*
X106685476Y-32884250D02*
X105274672Y-32584361D01*
X105274672Y-32584361D02*
X103878216Y-32287521D01*
X103878216Y-32287521D02*
X101862438Y-31859034D01*
X101862438Y-31859034D02*
X98433413Y-31130135D01*
X98433413Y-31130135D02*
X97142032Y-30855630D01*
X115411247Y-34227750D02*
X115355700Y-34373208D01*
X115355700Y-34373208D02*
X115267735Y-34485313D01*
X115267735Y-34485313D02*
X115150121Y-34568940D01*
X115150121Y-34568940D02*
X114999204Y-34618077D01*
X114999204Y-34618077D02*
X114818316Y-34612984D01*
X115694352Y-32896100D02*
X115644498Y-33130616D01*
X115644498Y-33130616D02*
X115599374Y-33342857D01*
X115599374Y-33342857D02*
X115562162Y-33517882D01*
X115562162Y-33517882D02*
X115506222Y-33780989D01*
X115506222Y-33780989D02*
X115461099Y-33993231D01*
X115461099Y-33993231D02*
X115419125Y-34190685D01*
X115419125Y-34190685D02*
X115411247Y-34227750D01*
X116287283Y-32511131D02*
X116089230Y-32508998D01*
X116089230Y-32508998D02*
X115942333Y-32562101D01*
X115942333Y-32562101D02*
X115827855Y-32648496D01*
X115827855Y-32648496D02*
X115742636Y-32763769D01*
X115742636Y-32763769D02*
X115694352Y-32896100D01*
X35246728Y-89935602D02*
X35308954Y-90073447D01*
X35308954Y-90073447D02*
X35324712Y-90258806D01*
X35324712Y-90258806D02*
X35316314Y-90311840D01*
X34931345Y-89718908D02*
X35076121Y-89774233D01*
X35076121Y-89774233D02*
X35189591Y-89863278D01*
X35189591Y-89863278D02*
X35246728Y-89935602D01*
X31354708Y-88958759D02*
X31575982Y-89005761D01*
X31575982Y-89005761D02*
X31774632Y-89047964D01*
X31774632Y-89047964D02*
X31989322Y-89093577D01*
X31989322Y-89093577D02*
X32217268Y-89142011D01*
X32217268Y-89142011D02*
X32516372Y-89205567D01*
X32516372Y-89205567D02*
X32764036Y-89258197D01*
X32764036Y-89258197D02*
X33015895Y-89311721D01*
X33015895Y-89311721D02*
X33269163Y-89365547D01*
X33269163Y-89365547D02*
X33458254Y-89405735D01*
X33458254Y-89405735D02*
X33707195Y-89458646D01*
X33707195Y-89458646D02*
X34009551Y-89522917D01*
X34009551Y-89522917D02*
X34240586Y-89572030D01*
X34240586Y-89572030D02*
X34510937Y-89629507D01*
X34510937Y-89629507D02*
X34709780Y-89671787D01*
X34709780Y-89671787D02*
X34889828Y-89710077D01*
X34889828Y-89710077D02*
X34931345Y-89718908D01*
X30969210Y-88367150D02*
X30967860Y-88566373D01*
X30967860Y-88566373D02*
X31021635Y-88712726D01*
X31021635Y-88712726D02*
X31108181Y-88826364D01*
X31108181Y-88826364D02*
X31223940Y-88911277D01*
X31223940Y-88911277D02*
X31354708Y-88958759D01*
X34733172Y-70373600D02*
X34690733Y-70576416D01*
X34690733Y-70576416D02*
X34650133Y-70770459D01*
X34650133Y-70770459D02*
X34586184Y-71076119D01*
X34586184Y-71076119D02*
X34545931Y-71268514D01*
X34545931Y-71268514D02*
X34481120Y-71578313D01*
X34481120Y-71578313D02*
X34385946Y-72033250D01*
X34385946Y-72033250D02*
X34281950Y-72530364D01*
X34281950Y-72530364D02*
X34169901Y-73065985D01*
X34169901Y-73065985D02*
X34050565Y-73636444D01*
X34050565Y-73636444D02*
X33924711Y-74238070D01*
X33924711Y-74238070D02*
X33793105Y-74867194D01*
X33793105Y-74867194D02*
X33587072Y-75852123D01*
X33587072Y-75852123D02*
X33298564Y-77231328D01*
X33298564Y-77231328D02*
X33000868Y-78654476D01*
X33000868Y-78654476D02*
X32700123Y-80092208D01*
X32700123Y-80092208D02*
X32402470Y-81515169D01*
X32402470Y-81515169D02*
X32114050Y-82894002D01*
X32114050Y-82894002D02*
X31841003Y-84199350D01*
X31841003Y-84199350D02*
X31469846Y-85973734D01*
X31469846Y-85973734D02*
X31220715Y-87164754D01*
X31220715Y-87164754D02*
X31135270Y-87573241D01*
X31135270Y-87573241D02*
X31025344Y-88098779D01*
X31025344Y-88098779D02*
X30969210Y-88367150D01*
X34949601Y-70056893D02*
X34842565Y-70150837D01*
X34842565Y-70150837D02*
X34765110Y-70274106D01*
X34765110Y-70274106D02*
X34733172Y-70373600D01*
X35326368Y-69986778D02*
X35126818Y-69985131D01*
X35126818Y-69985131D02*
X34979844Y-70038687D01*
X34979844Y-70038687D02*
X34949601Y-70056893D01*
X38961214Y-70759363D02*
X38688665Y-70701422D01*
X38688665Y-70701422D02*
X38482518Y-70657602D01*
X38482518Y-70657602D02*
X38260652Y-70610443D01*
X38260652Y-70610443D02*
X37905698Y-70534998D01*
X37905698Y-70534998D02*
X37401914Y-70427924D01*
X37401914Y-70427924D02*
X36886646Y-70318410D01*
X36886646Y-70318410D02*
X36382737Y-70211311D01*
X36382737Y-70211311D02*
X36027605Y-70135831D01*
X36027605Y-70135831D02*
X35805584Y-70088641D01*
X35805584Y-70088641D02*
X35599252Y-70044784D01*
X35599252Y-70044784D02*
X35411464Y-70004867D01*
X35411464Y-70004867D02*
X35326368Y-69986778D01*
X88135086Y-134216610D02*
X88220927Y-134101899D01*
X88220927Y-134101899D02*
X88273342Y-133953838D01*
X88273342Y-133953838D02*
X88281665Y-133862861D01*
X87781074Y-134362925D02*
X87951566Y-134333213D01*
X87951566Y-134333213D02*
X88081515Y-134263058D01*
X88081515Y-134263058D02*
X88135086Y-134216610D01*
X36144195Y-134290693D02*
X36555395Y-134291273D01*
X36555395Y-134291273D02*
X36807038Y-134291628D01*
X36807038Y-134291628D02*
X37284125Y-134292300D01*
X37284125Y-134292300D02*
X37950837Y-134293237D01*
X37950837Y-134293237D02*
X39004741Y-134294716D01*
X39004741Y-134294716D02*
X40225831Y-134296428D01*
X40225831Y-134296428D02*
X41600734Y-134298354D01*
X41600734Y-134298354D02*
X42728882Y-134299932D01*
X42728882Y-134299932D02*
X43519156Y-134301038D01*
X43519156Y-134301038D02*
X44758489Y-134302772D01*
X44758489Y-134302772D02*
X46514594Y-134305227D01*
X46514594Y-134305227D02*
X48371020Y-134307822D01*
X48371020Y-134307822D02*
X51306149Y-134311925D01*
X51306149Y-134311925D02*
X55460455Y-134317730D01*
X55460455Y-134317730D02*
X59775332Y-134323758D01*
X59775332Y-134323758D02*
X66328055Y-134332911D01*
X66328055Y-134332911D02*
X72613556Y-134341691D01*
X72613556Y-134341691D02*
X76500884Y-134347123D01*
X76500884Y-134347123D02*
X79162358Y-134350843D01*
X79162358Y-134350843D02*
X80805200Y-134353141D01*
X80805200Y-134353141D02*
X82321025Y-134355262D01*
X82321025Y-134355262D02*
X83696457Y-134357187D01*
X83696457Y-134357187D02*
X84622735Y-134358484D01*
X84622735Y-134358484D02*
X85192620Y-134359282D01*
X85192620Y-134359282D02*
X85719885Y-134360022D01*
X85719885Y-134360022D02*
X86202857Y-134360701D01*
X86202857Y-134360701D02*
X86846671Y-134361606D01*
X86846671Y-134361606D02*
X87369307Y-134362342D01*
X87369307Y-134362342D02*
X87658397Y-134362750D01*
X87658397Y-134362750D02*
X87781074Y-134362925D01*
X35644926Y-133791159D02*
X35675199Y-133962449D01*
X35675199Y-133962449D02*
X35746265Y-134092572D01*
X35746265Y-134092572D02*
X35847069Y-134192400D01*
X35847069Y-134192400D02*
X35977782Y-134262129D01*
X35977782Y-134262129D02*
X36144195Y-134290693D01*
X35629845Y-110000843D02*
X35630036Y-110302193D01*
X35630036Y-110302193D02*
X35630586Y-111171944D01*
X35630586Y-111171944D02*
X35631719Y-112964565D01*
X35631719Y-112964565D02*
X35633194Y-115301359D01*
X35633194Y-115301359D02*
X35634292Y-117041789D01*
X35634292Y-117041789D02*
X35636058Y-119840627D01*
X35636058Y-119840627D02*
X35637899Y-122755349D01*
X35637899Y-122755349D02*
X35639116Y-124681196D01*
X35639116Y-124681196D02*
X35640296Y-126546324D01*
X35640296Y-126546324D02*
X35641414Y-128307907D01*
X35641414Y-128307907D02*
X35642190Y-129529798D01*
X35642190Y-129529798D02*
X35642674Y-130292776D01*
X35642674Y-130292776D02*
X35643129Y-131005777D01*
X35643129Y-131005777D02*
X35643550Y-131663447D01*
X35643550Y-131663447D02*
X35643839Y-132115145D01*
X35643839Y-132115145D02*
X35644020Y-132397463D01*
X35644020Y-132397463D02*
X35644274Y-132791377D01*
X35644274Y-132791377D02*
X35644571Y-133250932D01*
X35644571Y-133250932D02*
X35644761Y-133543001D01*
X35644761Y-133543001D02*
X35644926Y-133791159D01*
X35233764Y-109511892D02*
X35378454Y-109567214D01*
X35378454Y-109567214D02*
X35491153Y-109655559D01*
X35491153Y-109655559D02*
X35574455Y-109772475D01*
X35574455Y-109772475D02*
X35623813Y-109923718D01*
X35623813Y-109923718D02*
X35629845Y-110000843D01*
X31897368Y-108802808D02*
X32155771Y-108857754D01*
X32155771Y-108857754D02*
X32400871Y-108909867D01*
X32400871Y-108909867D02*
X32776319Y-108989687D01*
X32776319Y-108989687D02*
X33003663Y-109038017D01*
X33003663Y-109038017D02*
X33178258Y-109075132D01*
X33178258Y-109075132D02*
X33413968Y-109125235D01*
X33413968Y-109125235D02*
X33650854Y-109175586D01*
X33650854Y-109175586D02*
X33886259Y-109225617D01*
X33886259Y-109225617D02*
X34117531Y-109274767D01*
X34117531Y-109274767D02*
X34342013Y-109322469D01*
X34342013Y-109322469D02*
X34557050Y-109368160D01*
X34557050Y-109368160D02*
X34759986Y-109411272D01*
X34759986Y-109411272D02*
X34948167Y-109451245D01*
X34948167Y-109451245D02*
X35118938Y-109487511D01*
X35118938Y-109487511D02*
X35233764Y-109511892D01*
X31581985Y-108586114D02*
X31676530Y-108693938D01*
X31676530Y-108693938D02*
X31799576Y-108771282D01*
X31799576Y-108771282D02*
X31897368Y-108802808D01*
X31512135Y-108209875D02*
X31510397Y-108408767D01*
X31510397Y-108408767D02*
X31563843Y-108555869D01*
X31563843Y-108555869D02*
X31581985Y-108586114D01*
X35316314Y-90311840D02*
X35273434Y-90513627D01*
X35273434Y-90513627D02*
X35224130Y-90745635D01*
X35224130Y-90745635D02*
X35167806Y-91010673D01*
X35167806Y-91010673D02*
X35127141Y-91202020D01*
X35127141Y-91202020D02*
X35072637Y-91458488D01*
X35072637Y-91458488D02*
X34965519Y-91962515D01*
X34965519Y-91962515D02*
X34860462Y-92456830D01*
X34860462Y-92456830D02*
X34747271Y-92989415D01*
X34747271Y-92989415D02*
X34657293Y-93412773D01*
X34657293Y-93412773D02*
X34595322Y-93704352D01*
X34595322Y-93704352D02*
X34499581Y-94154818D01*
X34499581Y-94154818D02*
X34366631Y-94780343D01*
X34366631Y-94780343D02*
X34228646Y-95429561D01*
X34228646Y-95429561D02*
X34122202Y-95930369D01*
X34122202Y-95930369D02*
X34050159Y-96269330D01*
X34050159Y-96269330D02*
X33977292Y-96612162D01*
X33977292Y-96612162D02*
X33903698Y-96958411D01*
X33903698Y-96958411D02*
X33792218Y-97482911D01*
X33792218Y-97482911D02*
X33641835Y-98190443D01*
X33641835Y-98190443D02*
X33490289Y-98903444D01*
X33490289Y-98903444D02*
X33262386Y-99975679D01*
X33262386Y-99975679D02*
X32961612Y-101390745D01*
X32961612Y-101390745D02*
X32778468Y-102252382D01*
X32778468Y-102252382D02*
X32706420Y-102591341D01*
X32706420Y-102591341D02*
X32599971Y-103092150D01*
X32599971Y-103092150D02*
X32394142Y-104060509D01*
X32394142Y-104060509D02*
X32201867Y-104965085D01*
X32201867Y-104965085D02*
X32125968Y-105322154D01*
X32125968Y-105322154D02*
X32052515Y-105667719D01*
X32052515Y-105667719D02*
X31968093Y-106064880D01*
X31968093Y-106064880D02*
X31863021Y-106559196D01*
X31863021Y-106559196D02*
X31790316Y-106901230D01*
X31790316Y-106901230D02*
X31744605Y-107116269D01*
X31744605Y-107116269D02*
X31680373Y-107418439D01*
X31680373Y-107418439D02*
X31604350Y-107776077D01*
X31604350Y-107776077D02*
X31539559Y-108080866D01*
X31539559Y-108080866D02*
X31512135Y-108209875D01*
X39554410Y-70374394D02*
X39499122Y-70519225D01*
X39499122Y-70519225D02*
X39410811Y-70631755D01*
X39410811Y-70631755D02*
X39293123Y-70715342D01*
X39293123Y-70715342D02*
X39142136Y-70764459D01*
X39142136Y-70764459D02*
X38961214Y-70759363D01*
X43198516Y-53229629D02*
X43143238Y-53489682D01*
X43143238Y-53489682D02*
X42996546Y-54179817D01*
X42996546Y-54179817D02*
X42811763Y-55049169D01*
X42811763Y-55049169D02*
X42594750Y-56070169D01*
X42594750Y-56070169D02*
X42223814Y-57815350D01*
X42223814Y-57815350D02*
X41666725Y-60436361D01*
X41666725Y-60436361D02*
X41086197Y-63167659D01*
X41086197Y-63167659D02*
X40665450Y-65147203D01*
X40665450Y-65147203D02*
X40466431Y-66083553D01*
X40466431Y-66083553D02*
X40339246Y-66681939D01*
X40339246Y-66681939D02*
X40158173Y-67533851D01*
X40158173Y-67533851D02*
X39941160Y-68554850D01*
X39941160Y-68554850D02*
X39756378Y-69424204D01*
X39756378Y-69424204D02*
X39643795Y-69953868D01*
X39643795Y-69953868D02*
X39581071Y-70248962D01*
X39581071Y-70248962D02*
X39554410Y-70374394D01*
X42813547Y-52636432D02*
X42958461Y-52691759D01*
X42958461Y-52691759D02*
X43071297Y-52780431D01*
X43071297Y-52780431D02*
X43154409Y-52897543D01*
X43154409Y-52897543D02*
X43203612Y-53048700D01*
X43203612Y-53048700D02*
X43198516Y-53229629D01*
X34450597Y-50858958D02*
X34655093Y-50902408D01*
X34655093Y-50902408D02*
X34889015Y-50952116D01*
X34889015Y-50952116D02*
X35096354Y-50996179D01*
X35096354Y-50996179D02*
X35319829Y-51043674D01*
X35319829Y-51043674D02*
X35558150Y-51094324D01*
X35558150Y-51094324D02*
X35810026Y-51147857D01*
X35810026Y-51147857D02*
X36074165Y-51203998D01*
X36074165Y-51203998D02*
X36349277Y-51262472D01*
X36349277Y-51262472D02*
X36634070Y-51323004D01*
X36634070Y-51323004D02*
X37075784Y-51416891D01*
X37075784Y-51416891D02*
X37687970Y-51547016D01*
X37687970Y-51547016D02*
X38315649Y-51680435D01*
X38315649Y-51680435D02*
X38948491Y-51814951D01*
X38948491Y-51814951D02*
X39576168Y-51948368D01*
X39576168Y-51948368D02*
X40188356Y-52078493D01*
X40188356Y-52078493D02*
X40774726Y-52203128D01*
X40774726Y-52203128D02*
X41189976Y-52291388D01*
X41189976Y-52291388D02*
X41454115Y-52347528D01*
X41454115Y-52347528D02*
X41705989Y-52401060D01*
X41705989Y-52401060D02*
X41944311Y-52451711D01*
X41944311Y-52451711D02*
X42167787Y-52499206D01*
X42167787Y-52499206D02*
X42375126Y-52543269D01*
X42375126Y-52543269D02*
X42609046Y-52592978D01*
X42609046Y-52592978D02*
X42813547Y-52636432D01*
X34065628Y-50266026D02*
X34063532Y-50464075D01*
X34063532Y-50464075D02*
X34116688Y-50610969D01*
X34116688Y-50610969D02*
X34202710Y-50725049D01*
X34202710Y-50725049D02*
X34319038Y-50811026D01*
X34319038Y-50811026D02*
X34450597Y-50858958D01*
X37906849Y-32193895D02*
X37863685Y-32397012D01*
X37863685Y-32397012D02*
X37795547Y-32717637D01*
X37795547Y-32717637D02*
X37757236Y-32897902D01*
X37757236Y-32897902D02*
X37716228Y-33090854D01*
X37716228Y-33090854D02*
X37650180Y-33401621D01*
X37650180Y-33401621D02*
X37553158Y-33858113D01*
X37553158Y-33858113D02*
X37447112Y-34357049D01*
X37447112Y-34357049D02*
X37332829Y-34894737D01*
X37332829Y-34894737D02*
X37211091Y-35467488D01*
X37211091Y-35467488D02*
X37082683Y-36071610D01*
X37082683Y-36071610D02*
X36948391Y-36703412D01*
X36948391Y-36703412D02*
X36738125Y-37692638D01*
X36738125Y-37692638D02*
X36293270Y-39785505D01*
X36293270Y-39785505D02*
X35832720Y-41952186D01*
X35832720Y-41952186D02*
X35528826Y-43381876D01*
X35528826Y-43381876D02*
X35234348Y-44767277D01*
X35234348Y-44767277D02*
X35024082Y-45756502D01*
X35024082Y-45756502D02*
X34889790Y-46388306D01*
X34889790Y-46388306D02*
X34761382Y-46992429D01*
X34761382Y-46992429D02*
X34639644Y-47565179D01*
X34639644Y-47565179D02*
X34567602Y-47904118D01*
X34567602Y-47904118D02*
X34498308Y-48230139D01*
X34498308Y-48230139D02*
X34419315Y-48601804D01*
X34419315Y-48601804D02*
X34322293Y-49058296D01*
X34322293Y-49058296D02*
X34256244Y-49369061D01*
X34256244Y-49369061D02*
X34215237Y-49562014D01*
X34215237Y-49562014D02*
X34176926Y-49742280D01*
X34176926Y-49742280D02*
X34141411Y-49909398D01*
X34141411Y-49909398D02*
X34093215Y-50136200D01*
X34093215Y-50136200D02*
X34065628Y-50266026D01*
X38499781Y-31808925D02*
X38301728Y-31806829D01*
X38301728Y-31806829D02*
X38154831Y-31859985D01*
X38154831Y-31859985D02*
X38040352Y-31946408D01*
X38040352Y-31946408D02*
X37955133Y-32061658D01*
X37955133Y-32061658D02*
X37906849Y-32193895D01*
X134411771Y-36363471D02*
X134054446Y-36287525D01*
X134054446Y-36287525D02*
X133886956Y-36251927D01*
X133886956Y-36251927D02*
X133612682Y-36193632D01*
X133612682Y-36193632D02*
X133201288Y-36106193D01*
X133201288Y-36106193D02*
X132743582Y-36008909D01*
X132743582Y-36008909D02*
X132243270Y-35902567D01*
X132243270Y-35902567D02*
X131425188Y-35728683D01*
X131425188Y-35728683D02*
X130213383Y-35471111D01*
X130213383Y-35471111D02*
X128897839Y-35191487D01*
X128897839Y-35191487D02*
X126798552Y-34745275D01*
X126798552Y-34745275D02*
X123900694Y-34129324D01*
X123900694Y-34129324D02*
X121801390Y-33683112D01*
X121801390Y-33683112D02*
X120809160Y-33472212D01*
X120809160Y-33472212D02*
X120175460Y-33337519D01*
X120175460Y-33337519D02*
X119569545Y-33208733D01*
X119569545Y-33208733D02*
X118995120Y-33086641D01*
X118995120Y-33086641D02*
X118455891Y-32972030D01*
X118455891Y-32972030D02*
X117955563Y-32865690D01*
X117955563Y-32865690D02*
X117497839Y-32768406D01*
X117497839Y-32768406D02*
X117186269Y-32702185D01*
X117186269Y-32702185D02*
X116992835Y-32661075D01*
X116992835Y-32661075D02*
X116769421Y-32613593D01*
X116769421Y-32613593D02*
X116417349Y-32538771D01*
X116417349Y-32538771D02*
X116287283Y-32511131D01*
X134797004Y-36956403D02*
X134799091Y-36758349D01*
X134799091Y-36758349D02*
X134745913Y-36611452D01*
X134745913Y-36611452D02*
X134659847Y-36497372D01*
X134659847Y-36497372D02*
X134544116Y-36411755D01*
X134544116Y-36411755D02*
X134411771Y-36363471D01*
X134543004Y-38150734D02*
X134579346Y-37980036D01*
X134579346Y-37980036D02*
X134616185Y-37806839D01*
X134616185Y-37806839D02*
X134661656Y-37592938D01*
X134661656Y-37592938D02*
X134711545Y-37358209D01*
X134711545Y-37358209D02*
X134747930Y-37187056D01*
X134747930Y-37187056D02*
X134784319Y-37015985D01*
X134784319Y-37015985D02*
X134797004Y-36956403D01*
X134928238Y-38743931D02*
X134783107Y-38688548D01*
X134783107Y-38688548D02*
X134669759Y-38599378D01*
X134669759Y-38599378D02*
X134586698Y-38481976D01*
X134586698Y-38481976D02*
X134537699Y-38330335D01*
X134537699Y-38330335D02*
X134543004Y-38150734D01*
X152584413Y-42496787D02*
X152384496Y-42454300D01*
X152384496Y-42454300D02*
X152069620Y-42387378D01*
X152069620Y-42387378D02*
X151801288Y-42330348D01*
X151801288Y-42330348D02*
X151399345Y-42244919D01*
X151399345Y-42244919D02*
X150952637Y-42149973D01*
X150952637Y-42149973D02*
X150464746Y-42046272D01*
X150464746Y-42046272D02*
X149939252Y-41934579D01*
X149939252Y-41934579D02*
X149379738Y-41815653D01*
X149379738Y-41815653D02*
X148487643Y-41626034D01*
X148487643Y-41626034D02*
X147532877Y-41423092D01*
X147532877Y-41423092D02*
X146873090Y-41282851D01*
X146873090Y-41282851D02*
X145855655Y-41066587D01*
X145855655Y-41066587D02*
X144811360Y-40844614D01*
X144811360Y-40844614D02*
X144108599Y-40695236D01*
X144108599Y-40695236D02*
X142347219Y-40320841D01*
X142347219Y-40320841D02*
X140305185Y-39886790D01*
X140305185Y-39886790D02*
X139025003Y-39614680D01*
X139025003Y-39614680D02*
X137845094Y-39363886D01*
X137845094Y-39363886D02*
X137047900Y-39194440D01*
X137047900Y-39194440D02*
X136560009Y-39090740D01*
X136560009Y-39090740D02*
X136113302Y-38995795D01*
X136113302Y-38995795D02*
X135711359Y-38910365D01*
X135711359Y-38910365D02*
X135443028Y-38853335D01*
X135443028Y-38853335D02*
X135128152Y-38786415D01*
X135128152Y-38786415D02*
X134928238Y-38743931D01*
X152969646Y-43089984D02*
X152971733Y-42891778D01*
X152971733Y-42891778D02*
X152918011Y-42743827D01*
X152918011Y-42743827D02*
X152831418Y-42629640D01*
X152831418Y-42629640D02*
X152716079Y-42544710D01*
X152716079Y-42544710D02*
X152584413Y-42496787D01*
X152679399Y-44454972D02*
X152721583Y-44256580D01*
X152721583Y-44256580D02*
X152767256Y-44041750D01*
X152767256Y-44041750D02*
X152805298Y-43862804D01*
X152805298Y-43862804D02*
X152853305Y-43636981D01*
X152853305Y-43636981D02*
X152891092Y-43459262D01*
X152891092Y-43459262D02*
X152931844Y-43267642D01*
X152931844Y-43267642D02*
X152969646Y-43089984D01*
X152748984Y-44831210D02*
X152686228Y-44690900D01*
X152686228Y-44690900D02*
X152671325Y-44505714D01*
X152671325Y-44505714D02*
X152679399Y-44454972D01*
X178375733Y-128438629D02*
X178192667Y-128399716D01*
X178192667Y-128399716D02*
X177754375Y-128306551D01*
X177754375Y-128306551D02*
X177252408Y-128199854D01*
X177252408Y-128199854D02*
X176712232Y-128085036D01*
X176712232Y-128085036D02*
X176159311Y-127967511D01*
X176159311Y-127967511D02*
X175819696Y-127895326D01*
X175819696Y-127895326D02*
X175490423Y-127825342D01*
X175490423Y-127825342D02*
X175239415Y-127771993D01*
X175239415Y-127771993D02*
X175060904Y-127734053D01*
X175060904Y-127734053D02*
X174783546Y-127675107D01*
X174783546Y-127675107D02*
X174585051Y-127632925D01*
X174585051Y-127632925D02*
X174495618Y-127613921D01*
X178760966Y-129031561D02*
X178763053Y-128833508D01*
X178763053Y-128833508D02*
X178709874Y-128686611D01*
X178709874Y-128686611D02*
X178623808Y-128572530D01*
X178623808Y-128572530D02*
X178508077Y-128486913D01*
X178508077Y-128486913D02*
X178375733Y-128438629D01*
X174904399Y-147174601D02*
X174997551Y-146736411D01*
X174997551Y-146736411D02*
X175074456Y-146374638D01*
X175074456Y-146374638D02*
X175139475Y-146068769D01*
X175139475Y-146068769D02*
X175185762Y-145851025D01*
X175185762Y-145851025D02*
X175259404Y-145504590D01*
X175259404Y-145504590D02*
X175365871Y-145003733D01*
X175365871Y-145003733D02*
X175539959Y-144184761D01*
X175539959Y-144184761D02*
X175797825Y-142971642D01*
X175797825Y-142971642D02*
X176077763Y-141654678D01*
X176077763Y-141654678D02*
X176373465Y-140263544D01*
X176373465Y-140263544D02*
X176678625Y-138827912D01*
X176678625Y-138827912D02*
X177141089Y-136652231D01*
X177141089Y-136652231D02*
X177587777Y-134550764D01*
X177587777Y-134550764D02*
X177867696Y-133233875D01*
X177867696Y-133233875D02*
X178125539Y-132020855D01*
X178125539Y-132020855D02*
X178354996Y-130941378D01*
X178354996Y-130941378D02*
X178503436Y-130243054D01*
X178503436Y-130243054D02*
X178590963Y-129831291D01*
X178590963Y-129831291D02*
X178667847Y-129469606D01*
X178667847Y-129469606D02*
X178709677Y-129272821D01*
X178709677Y-129272821D02*
X178747395Y-129095397D01*
X178747395Y-129095397D02*
X178760966Y-129031561D01*
X174687441Y-147490249D02*
X174794935Y-147396230D01*
X174794935Y-147396230D02*
X174872482Y-147273304D01*
X174872482Y-147273304D02*
X174904399Y-147174601D01*
X174310939Y-147559570D02*
X174510622Y-147561544D01*
X174510622Y-147561544D02*
X174657613Y-147508142D01*
X174657613Y-147508142D02*
X174687441Y-147490249D01*
X88886238Y-129308051D02*
X89168917Y-129368441D01*
X89168917Y-129368441D02*
X89501405Y-129439475D01*
X89501405Y-129439475D02*
X90026702Y-129551703D01*
X90026702Y-129551703D02*
X90480315Y-129648616D01*
X90480315Y-129648616D02*
X90807371Y-129718491D01*
X90807371Y-129718491D02*
X91702517Y-129909740D01*
X91702517Y-129909740D02*
X93410579Y-130274671D01*
X93410579Y-130274671D02*
X94893999Y-130591608D01*
X94893999Y-130591608D02*
X95963564Y-130820125D01*
X95963564Y-130820125D02*
X97682934Y-131187477D01*
X97682934Y-131187477D02*
X100199971Y-131725255D01*
X100199971Y-131725255D02*
X102939408Y-132310552D01*
X102939408Y-132310552D02*
X105877615Y-132938318D01*
X105877615Y-132938318D02*
X108990963Y-133603503D01*
X108990963Y-133603503D02*
X113923177Y-134657305D01*
X113923177Y-134657305D02*
X120917165Y-136151620D01*
X120917165Y-136151620D02*
X128186388Y-137704743D01*
X128186388Y-137704743D02*
X139217440Y-140061610D01*
X139217440Y-140061610D02*
X149755104Y-142313061D01*
X149755104Y-142313061D02*
X156234910Y-143697520D01*
X156234910Y-143697520D02*
X160640086Y-144638717D01*
X160640086Y-144638717D02*
X163342087Y-145216018D01*
X163342087Y-145216018D02*
X165817529Y-145744913D01*
X165817529Y-145744913D02*
X168042783Y-146220353D01*
X168042783Y-146220353D02*
X169994218Y-146637288D01*
X169994218Y-146637288D02*
X171648207Y-146990671D01*
X171648207Y-146990671D02*
X172981119Y-147275452D01*
X172981119Y-147275452D02*
X173969324Y-147486584D01*
X173969324Y-147486584D02*
X174310939Y-147559570D01*
X88467138Y-129408329D02*
X88594256Y-129333491D01*
X88594256Y-129333491D02*
X88759596Y-129297521D01*
X88759596Y-129297521D02*
X88886238Y-129308051D01*
X88281665Y-129797002D02*
X88311537Y-129626699D01*
X88311537Y-129626699D02*
X88382098Y-129496355D01*
X88382098Y-129496355D02*
X88467138Y-129408329D01*
X88281665Y-133862861D02*
X88281665Y-129797002D01*
X74630753Y-39488734D02*
X74451152Y-39450554D01*
X74451152Y-39450554D02*
X74049916Y-39365263D01*
X74049916Y-39365263D02*
X73834024Y-39319372D01*
X73834024Y-39319372D02*
X73269080Y-39199287D01*
X73269080Y-39199287D02*
X72507081Y-39037316D01*
X72507081Y-39037316D02*
X71635392Y-38852032D01*
X71635392Y-38852032D02*
X70662789Y-38645299D01*
X70662789Y-38645299D02*
X69598047Y-38418982D01*
X69598047Y-38418982D02*
X68449941Y-38174947D01*
X68449941Y-38174947D02*
X66598349Y-37781384D01*
X66598349Y-37781384D02*
X63907256Y-37209384D01*
X63907256Y-37209384D02*
X61040661Y-36600082D01*
X61040661Y-36600082D02*
X58068764Y-35968399D01*
X58068764Y-35968399D02*
X53558267Y-35009685D01*
X53558267Y-35009685D02*
X49223272Y-34088271D01*
X49223272Y-34088271D02*
X47524886Y-33727274D01*
X47524886Y-33727274D02*
X46865823Y-33587188D01*
X46865823Y-33587188D02*
X45903282Y-33382597D01*
X45903282Y-33382597D02*
X44680588Y-33122708D01*
X44680588Y-33122708D02*
X43532482Y-32878673D01*
X43532482Y-32878673D02*
X42467740Y-32652356D01*
X42467740Y-32652356D02*
X41495138Y-32445623D01*
X41495138Y-32445623D02*
X40623449Y-32260339D01*
X40623449Y-32260339D02*
X39861449Y-32098368D01*
X39861449Y-32098368D02*
X39371120Y-31994142D01*
X39371120Y-31994142D02*
X39080614Y-31932391D01*
X39080614Y-31932391D02*
X38822467Y-31877518D01*
X38822467Y-31877518D02*
X38625339Y-31835614D01*
X38625339Y-31835614D02*
X38499781Y-31808925D01*
X75223684Y-39103500D02*
X75168303Y-39248625D01*
X75168303Y-39248625D02*
X75080098Y-39361063D01*
X75080098Y-39361063D02*
X74962446Y-39444690D01*
X74962446Y-39444690D02*
X74811532Y-39493827D01*
X74811532Y-39493827D02*
X74630753Y-39488734D01*
X75767667Y-36544975D02*
X75728265Y-36730052D01*
X75728265Y-36730052D02*
X75684719Y-36934711D01*
X75684719Y-36934711D02*
X75633471Y-37175650D01*
X75633471Y-37175650D02*
X75593132Y-37365343D01*
X75593132Y-37365343D02*
X75542400Y-37603962D01*
X75542400Y-37603962D02*
X75476804Y-37912541D01*
X75476804Y-37912541D02*
X75439431Y-38088368D01*
X75439431Y-38088368D02*
X75402559Y-38261846D01*
X75402559Y-38261846D02*
X75366522Y-38431409D01*
X75366522Y-38431409D02*
X75314547Y-38675969D01*
X75314547Y-38675969D02*
X75266731Y-38900955D01*
X75266731Y-38900955D02*
X75223684Y-39103500D01*
X76360598Y-36159741D02*
X76162433Y-36157649D01*
X76162433Y-36157649D02*
X76015540Y-36210825D01*
X76015540Y-36210825D02*
X75900574Y-36297828D01*
X75900574Y-36297828D02*
X75815568Y-36413302D01*
X75815568Y-36413302D02*
X75767667Y-36544975D01*
X94186636Y-39948845D02*
X93919647Y-39892098D01*
X93919647Y-39892098D02*
X93206790Y-39740585D01*
X93206790Y-39740585D02*
X92305384Y-39548995D01*
X92305384Y-39548995D02*
X91244437Y-39323494D01*
X91244437Y-39323494D02*
X90052956Y-39070247D01*
X90052956Y-39070247D02*
X89088639Y-38865281D01*
X89088639Y-38865281D02*
X88589937Y-38759282D01*
X88589937Y-38759282D02*
X88252408Y-38687541D01*
X88252408Y-38687541D02*
X87739430Y-38578507D01*
X87739430Y-38578507D02*
X87043975Y-38430686D01*
X87043975Y-38430686D02*
X86339457Y-38280938D01*
X86339457Y-38280938D02*
X85629500Y-38130035D01*
X85629500Y-38130035D02*
X84561845Y-37903099D01*
X84561845Y-37903099D02*
X83152806Y-37603598D01*
X83152806Y-37603598D02*
X82294820Y-37421225D01*
X82294820Y-37421225D02*
X81957291Y-37349478D01*
X81957291Y-37349478D02*
X81624067Y-37278648D01*
X81624067Y-37278648D02*
X81295603Y-37208829D01*
X81295603Y-37208829D02*
X80812086Y-37106050D01*
X80812086Y-37106050D02*
X80189152Y-36973636D01*
X80189152Y-36973636D02*
X79593411Y-36847000D01*
X79593411Y-36847000D02*
X79028491Y-36726913D01*
X79028491Y-36726913D02*
X78498017Y-36614148D01*
X78498017Y-36614148D02*
X78005617Y-36509473D01*
X78005617Y-36509473D02*
X77664869Y-36437036D01*
X77664869Y-36437036D02*
X77450622Y-36391488D01*
X77450622Y-36391488D02*
X77149535Y-36327478D01*
X77149535Y-36327478D02*
X76879041Y-36269971D01*
X76879041Y-36269971D02*
X76713745Y-36234827D01*
X76713745Y-36234827D02*
X76423718Y-36173162D01*
X76423718Y-36173162D02*
X76360598Y-36159741D01*
X94779832Y-39563876D02*
X94724544Y-39708809D01*
X94724544Y-39708809D02*
X94636234Y-39821354D01*
X94636234Y-39821354D02*
X94519214Y-39904564D01*
X94519214Y-39904564D02*
X94368124Y-39953883D01*
X94368124Y-39953883D02*
X94186636Y-39948845D01*
X183975055Y-26413206D02*
X183991960Y-26229393D01*
X183991960Y-26229393D02*
X184035046Y-26071723D01*
X184035046Y-26071723D02*
X184097766Y-25933466D01*
X184097766Y-25933466D02*
X184177223Y-25810939D01*
X184177223Y-25810939D02*
X184271114Y-25703708D01*
X184271114Y-25703708D02*
X184379246Y-25610764D01*
X184379246Y-25610764D02*
X184507987Y-25529472D01*
X184507987Y-25529472D02*
X184648445Y-25468369D01*
X184648445Y-25468369D02*
X184808387Y-25427464D01*
X184808387Y-25427464D02*
X184976865Y-25413385D01*
X184976865Y-27413389D02*
X184792577Y-27396521D01*
X184792577Y-27396521D02*
X184633460Y-27353148D01*
X184633460Y-27353148D02*
X184494663Y-27290241D01*
X184494663Y-27290241D02*
X184369929Y-27209185D01*
X184369929Y-27209185D02*
X184260531Y-27112645D01*
X184260531Y-27112645D02*
X184167348Y-27002795D01*
X184167348Y-27002795D02*
X184090321Y-26879686D01*
X184090321Y-26879686D02*
X184029543Y-26739638D01*
X184029543Y-26739638D02*
X183988892Y-26579975D01*
X183988892Y-26579975D02*
X183975055Y-26413206D01*
X189992264Y-29998643D02*
X189992264Y-29998643D01*
X189992264Y-29998643D02*
X189991867Y-30580710D01*
X189991867Y-30580710D02*
X189989266Y-34398385D01*
X189989266Y-34398385D02*
X189987521Y-36963116D01*
X189987521Y-36963116D02*
X189986264Y-38813102D01*
X189986264Y-38813102D02*
X189985288Y-40248472D01*
X189985288Y-40248472D02*
X189984632Y-41214791D01*
X189984632Y-41214791D02*
X189983647Y-42666076D01*
X189983647Y-42666076D02*
X189982357Y-44570626D01*
X189982357Y-44570626D02*
X189981123Y-46394925D01*
X189981123Y-46394925D02*
X189980258Y-47675677D01*
X189980258Y-47675677D02*
X189979715Y-48481496D01*
X189979715Y-48481496D02*
X189979205Y-49239566D01*
X189979205Y-49239566D02*
X189978732Y-49943736D01*
X189978732Y-49943736D02*
X189978301Y-50587853D01*
X189978301Y-50587853D02*
X189977915Y-51165764D01*
X189977915Y-51165764D02*
X189977579Y-51671317D01*
X189977579Y-51671317D02*
X189977299Y-52098361D01*
X189977299Y-52098361D02*
X189977183Y-52276863D01*
X121384746Y-142645720D02*
X35960839Y-142645720D01*
X187272612Y-23433262D02*
X187372522Y-23534698D01*
X187372522Y-23534698D02*
X187473799Y-23640773D01*
X187473799Y-23640773D02*
X187571430Y-23746283D01*
X187571430Y-23746283D02*
X187667878Y-23853816D01*
X187667878Y-23853816D02*
X187764265Y-23964731D01*
X187764265Y-23964731D02*
X187861046Y-24079775D01*
X187861046Y-24079775D02*
X187953045Y-24192738D01*
X187953045Y-24192738D02*
X188042064Y-24305597D01*
X188042064Y-24305597D02*
X188132450Y-24423978D01*
X188132450Y-24423978D02*
X188217694Y-24539353D01*
X188217694Y-24539353D02*
X188304145Y-24660295D01*
X188304145Y-24660295D02*
X188389072Y-24783233D01*
X188389072Y-24783233D02*
X188470480Y-24905196D01*
X188470480Y-24905196D02*
X188551323Y-25030590D01*
X188551323Y-25030590D02*
X188629161Y-25155669D01*
X188629161Y-25155669D02*
X188708110Y-25287237D01*
X188708110Y-25287237D02*
X188783082Y-25416938D01*
X188783082Y-25416938D02*
X188855495Y-25546990D01*
X188855495Y-25546990D02*
X188928667Y-25683620D01*
X188928667Y-25683620D02*
X188998727Y-25819824D01*
X188998727Y-25819824D02*
X189066125Y-25956326D01*
X189066125Y-25956326D02*
X189132750Y-26097095D01*
X189132750Y-26097095D02*
X189195564Y-26235705D01*
X189195564Y-26235705D02*
X189259539Y-26383457D01*
X189259539Y-26383457D02*
X189318296Y-26525727D01*
X189318296Y-26525727D02*
X189375323Y-26670607D01*
X189375323Y-26670607D02*
X189431132Y-26819764D01*
X189431132Y-26819764D02*
X189484383Y-26969882D01*
X189484383Y-26969882D02*
X189535064Y-27120928D01*
X189535064Y-27120928D02*
X189583163Y-27272870D01*
X189583163Y-27272870D02*
X189629643Y-27429079D01*
X189629643Y-27429079D02*
X189674315Y-27589577D01*
X189674315Y-27589577D02*
X189716982Y-27754383D01*
X189716982Y-27754383D02*
X189757238Y-27922647D01*
X189757238Y-27922647D02*
X189796015Y-28099584D01*
X189796015Y-28099584D02*
X189830210Y-28271286D01*
X189830210Y-28271286D02*
X189861930Y-28448152D01*
X189861930Y-28448152D02*
X189891038Y-28631078D01*
X189891038Y-28631078D02*
X189915487Y-28806801D01*
X189915487Y-28806801D02*
X189937668Y-28992953D01*
X189937668Y-28992953D02*
X189955712Y-29175328D01*
X189955712Y-29175328D02*
X189970968Y-29369921D01*
X189970968Y-29369921D02*
X189981978Y-29561542D01*
X189981978Y-29561542D02*
X189989267Y-29762698D01*
X189989267Y-29762698D02*
X189992199Y-29964380D01*
X189992199Y-29964380D02*
X189992264Y-29998643D01*
X180707506Y-20713869D02*
X180914663Y-20716174D01*
X180914663Y-20716174D02*
X181112306Y-20722685D01*
X181112306Y-20722685D02*
X181302228Y-20732913D01*
X181302228Y-20732913D02*
X181491580Y-20747005D01*
X181491580Y-20747005D02*
X181678527Y-20764750D01*
X181678527Y-20764750D02*
X181861260Y-20785792D01*
X181861260Y-20785792D02*
X182046829Y-20810931D01*
X182046829Y-20810931D02*
X182221085Y-20838024D01*
X182221085Y-20838024D02*
X182396359Y-20868713D01*
X182396359Y-20868713D02*
X182563878Y-20901299D01*
X182563878Y-20901299D02*
X182733226Y-20937506D01*
X182733226Y-20937506D02*
X182898292Y-20975998D01*
X182898292Y-20975998D02*
X183058226Y-21016346D01*
X183058226Y-21016346D02*
X183215622Y-21059025D01*
X183215622Y-21059025D02*
X183372164Y-21104436D01*
X183372164Y-21104436D02*
X183531193Y-21153646D01*
X183531193Y-21153646D02*
X183685067Y-21204258D01*
X183685067Y-21204258D02*
X183836331Y-21256939D01*
X183836331Y-21256939D02*
X183987456Y-21312516D01*
X183987456Y-21312516D02*
X184133467Y-21369066D01*
X184133467Y-21369066D02*
X184278497Y-21428068D01*
X184278497Y-21428068D02*
X184424944Y-21490568D01*
X184424944Y-21490568D02*
X184563872Y-21552632D01*
X184563872Y-21552632D02*
X184701783Y-21616973D01*
X184701783Y-21616973D02*
X184838647Y-21683577D01*
X184838647Y-21683577D02*
X184974439Y-21752437D01*
X184974439Y-21752437D02*
X185106008Y-21821858D01*
X185106008Y-21821858D02*
X185239592Y-21895135D01*
X185239592Y-21895135D02*
X185368180Y-21968402D01*
X185368180Y-21968402D02*
X185494130Y-22042837D01*
X185494130Y-22042837D02*
X185621223Y-22120700D01*
X185621223Y-22120700D02*
X185744142Y-22198716D01*
X185744142Y-22198716D02*
X185868865Y-22280683D01*
X185868865Y-22280683D02*
X185989418Y-22362683D01*
X185989418Y-22362683D02*
X186108042Y-22446118D01*
X186108042Y-22446118D02*
X186226884Y-22532536D01*
X186226884Y-22532536D02*
X186343745Y-22620365D01*
X186343745Y-22620365D02*
X186456520Y-22707904D01*
X186456520Y-22707904D02*
X186570133Y-22798957D01*
X186570133Y-22798957D02*
X186681062Y-22890736D01*
X186681062Y-22890736D02*
X186792713Y-22986098D01*
X186792713Y-22986098D02*
X186902985Y-23083343D01*
X186902985Y-23083343D02*
X187009212Y-23180016D01*
X187009212Y-23180016D02*
X187114082Y-23278465D01*
X187114082Y-23278465D02*
X187217565Y-23378672D01*
X187217565Y-23378672D02*
X187272612Y-23433262D01*
X35960839Y-20713869D02*
X180707506Y-20713869D01*
X189791710Y-52665272D02*
X189665638Y-52739785D01*
X189665638Y-52739785D02*
X189501228Y-52776096D01*
X189501228Y-52776096D02*
X189373139Y-52765813D01*
X35960839Y-142645720D02*
X35760972Y-142643722D01*
X35760972Y-142643722D02*
X35563506Y-142637829D01*
X35563506Y-142637829D02*
X35370408Y-142628287D01*
X35370408Y-142628287D02*
X35174961Y-142614810D01*
X35174961Y-142614810D02*
X34989705Y-142598480D01*
X34989705Y-142598480D02*
X34790712Y-142577056D01*
X34790712Y-142577056D02*
X34600071Y-142552740D01*
X34600071Y-142552740D02*
X34425330Y-142527166D01*
X34425330Y-142527166D02*
X34253134Y-142498867D01*
X34253134Y-142498867D02*
X34077860Y-142466876D01*
X34077860Y-142466876D02*
X33886490Y-142428241D01*
X33886490Y-142428241D02*
X33722153Y-142391942D01*
X33722153Y-142391942D02*
X33558560Y-142352908D01*
X33558560Y-142352908D02*
X33395745Y-142311155D01*
X33395745Y-142311155D02*
X33237415Y-142267735D01*
X33237415Y-142267735D02*
X33078065Y-142221196D01*
X33078065Y-142221196D02*
X32919569Y-142172035D01*
X32919569Y-142172035D02*
X32767383Y-142122098D01*
X32767383Y-142122098D02*
X32616056Y-142069745D01*
X32616056Y-142069745D02*
X32468292Y-142015986D01*
X32468292Y-142015986D02*
X32322299Y-141960262D01*
X32322299Y-141960262D02*
X32174561Y-141901191D01*
X32174561Y-141901191D02*
X32016397Y-141834899D01*
X32016397Y-141834899D02*
X31869815Y-141770584D01*
X31869815Y-141770584D02*
X31727719Y-141705540D01*
X31727719Y-141705540D02*
X31587492Y-141638688D01*
X31587492Y-141638688D02*
X31453394Y-141572233D01*
X31453394Y-141572233D02*
X31321116Y-141504200D01*
X31321116Y-141504200D02*
X31186469Y-141432366D01*
X31186469Y-141432366D02*
X31056210Y-141360329D01*
X31056210Y-141360329D02*
X30926984Y-141286330D01*
X30926984Y-141286330D02*
X30797176Y-141209392D01*
X30797176Y-141209392D02*
X30668473Y-141130458D01*
X30668473Y-141130458D02*
X30543314Y-141051097D01*
X30543314Y-141051097D02*
X30417674Y-140968779D01*
X30417674Y-140968779D02*
X30297928Y-140887771D01*
X30297928Y-140887771D02*
X30178500Y-140804425D01*
X30178500Y-140804425D02*
X30059431Y-140718717D01*
X30059431Y-140718717D02*
X29942296Y-140631768D01*
X29942296Y-140631768D02*
X29826340Y-140543041D01*
X29826340Y-140543041D02*
X29711579Y-140452538D01*
X29711579Y-140452538D02*
X29601013Y-140362724D01*
X29601013Y-140362724D02*
X29491619Y-140271240D01*
X29491619Y-140271240D02*
X29382693Y-140177469D01*
X29382693Y-140177469D02*
X29275719Y-140082673D01*
X29275719Y-140082673D02*
X29170690Y-139986895D01*
X29170690Y-139986895D02*
X29066199Y-139888841D01*
X29066199Y-139888841D02*
X28957435Y-139783727D01*
X28957435Y-139783727D02*
X28889849Y-139716778D01*
X184894537Y-76286518D02*
X184950024Y-76141393D01*
X184950024Y-76141393D02*
X185041884Y-76025445D01*
X185041884Y-76025445D02*
X185160312Y-75943006D01*
X185160312Y-75943006D02*
X185313036Y-75895391D01*
X185313036Y-75895391D02*
X185383487Y-75890436D01*
X41306179Y-26413206D02*
X41289272Y-26597313D01*
X41289272Y-26597313D02*
X41246218Y-26755157D01*
X41246218Y-26755157D02*
X41182848Y-26894830D01*
X41182848Y-26894830D02*
X41104027Y-27016360D01*
X41104027Y-27016360D02*
X41010575Y-27123286D01*
X41010575Y-27123286D02*
X40901540Y-27217086D01*
X40901540Y-27217086D02*
X40779273Y-27294841D01*
X40779273Y-27294841D02*
X40639620Y-27356698D01*
X40639620Y-27356698D02*
X40480436Y-27398459D01*
X40480436Y-27398459D02*
X40307986Y-27413389D01*
X40307986Y-25413385D02*
X40491546Y-25430340D01*
X40491546Y-25430340D02*
X40648779Y-25473432D01*
X40648779Y-25473432D02*
X40786402Y-25535934D01*
X40786402Y-25535934D02*
X40908745Y-25615272D01*
X40908745Y-25615272D02*
X41015609Y-25708743D01*
X41015609Y-25708743D02*
X41108759Y-25816948D01*
X41108759Y-25816948D02*
X41187004Y-25939773D01*
X41187004Y-25939773D02*
X41248869Y-26079099D01*
X41248869Y-26079099D02*
X41290945Y-26238615D01*
X41290945Y-26238615D02*
X41306179Y-26413206D01*
X39306176Y-26413206D02*
X39323081Y-26229393D01*
X39323081Y-26229393D02*
X39366167Y-26071723D01*
X39366167Y-26071723D02*
X39428887Y-25933466D01*
X39428887Y-25933466D02*
X39508344Y-25810939D01*
X39508344Y-25810939D02*
X39602235Y-25703708D01*
X39602235Y-25703708D02*
X39710367Y-25610764D01*
X39710367Y-25610764D02*
X39839108Y-25529472D01*
X39839108Y-25529472D02*
X39979566Y-25468369D01*
X39979566Y-25468369D02*
X40139508Y-25427464D01*
X40139508Y-25427464D02*
X40307986Y-25413385D01*
X39306176Y-136924695D02*
X39323081Y-136740882D01*
X39323081Y-136740882D02*
X39366167Y-136583212D01*
X39366167Y-136583212D02*
X39428887Y-136444955D01*
X39428887Y-136444955D02*
X39508344Y-136322429D01*
X39508344Y-136322429D02*
X39602235Y-136215198D01*
X39602235Y-136215198D02*
X39710367Y-136122254D01*
X39710367Y-136122254D02*
X39839108Y-136040962D01*
X39839108Y-136040962D02*
X39979566Y-135979859D01*
X39979566Y-135979859D02*
X40139508Y-135938953D01*
X40139508Y-135938953D02*
X40307986Y-135924874D01*
X40307986Y-137924878D02*
X40123698Y-137908010D01*
X40123698Y-137908010D02*
X39964581Y-137864637D01*
X39964581Y-137864637D02*
X39825784Y-137801730D01*
X39825784Y-137801730D02*
X39701050Y-137720674D01*
X39701050Y-137720674D02*
X39591652Y-137624134D01*
X39591652Y-137624134D02*
X39498469Y-137514284D01*
X39498469Y-137514284D02*
X39421442Y-137391175D01*
X39421442Y-137391175D02*
X39360664Y-137251127D01*
X39360664Y-137251127D02*
X39320013Y-137091464D01*
X39320013Y-137091464D02*
X39306176Y-136924695D01*
X177978636Y-27413389D02*
X177978636Y-27413389D01*
X189492202Y-75890436D02*
X189666677Y-75921874D01*
X189666677Y-75921874D02*
X189796536Y-75993813D01*
X189796536Y-75993813D02*
X189845685Y-76037016D01*
X189845685Y-76037016D02*
X189931511Y-76152043D01*
X189931511Y-76152043D02*
X189983819Y-76300412D01*
X189983819Y-76300412D02*
X189992000Y-76390500D01*
X185383487Y-75890436D02*
X189492202Y-75890436D01*
X189978770Y-142811350D02*
X189976773Y-143011085D01*
X189976773Y-143011085D02*
X189970970Y-143207869D01*
X189970970Y-143207869D02*
X189961397Y-143403683D01*
X189961397Y-143403683D02*
X189948397Y-143594530D01*
X189948397Y-143594530D02*
X189930691Y-143796208D01*
X189930691Y-143796208D02*
X189911310Y-143977116D01*
X189911310Y-143977116D02*
X189888731Y-144157047D01*
X189888731Y-144157047D02*
X189863574Y-144332096D01*
X189863574Y-144332096D02*
X189832757Y-144521574D01*
X189832757Y-144521574D02*
X189799879Y-144702184D01*
X189799879Y-144702184D02*
X189765383Y-144874036D01*
X189765383Y-144874036D02*
X189728827Y-145041030D01*
X189728827Y-145041030D02*
X189689502Y-145206969D01*
X189689502Y-145206969D02*
X189648421Y-145368096D01*
X189648421Y-145368096D02*
X189604740Y-145528166D01*
X189604740Y-145528166D02*
X189559594Y-145683475D01*
X189559594Y-145683475D02*
X189512015Y-145837731D01*
X189512015Y-145837731D02*
X189462025Y-145990914D01*
X189462025Y-145990914D02*
X189408371Y-146146609D01*
X189408371Y-146146609D02*
X189342867Y-146326174D01*
X189342867Y-146326174D02*
X189286679Y-146472211D01*
X189286679Y-146472211D02*
X189226832Y-146620654D01*
X189226832Y-146620654D02*
X189163181Y-146771403D01*
X189163181Y-146771403D02*
X189101832Y-146910492D01*
X189101832Y-146910492D02*
X189035217Y-147055333D01*
X189035217Y-147055333D02*
X188969704Y-147192111D01*
X188969704Y-147192111D02*
X188900474Y-147331107D01*
X188900474Y-147331107D02*
X188825630Y-147475556D01*
X188825630Y-147475556D02*
X188753971Y-147608685D01*
X188753971Y-147608685D02*
X188682233Y-147737316D01*
X188682233Y-147737316D02*
X188601016Y-147877776D01*
X188601016Y-147877776D02*
X188525453Y-148003918D01*
X188525453Y-148003918D02*
X188446090Y-148132032D01*
X188446090Y-148132032D02*
X188358694Y-148268314D01*
X188358694Y-148268314D02*
X188277584Y-148390609D01*
X188277584Y-148390609D02*
X188194735Y-148511632D01*
X188194735Y-148511632D02*
X188103592Y-148640528D01*
X188103592Y-148640528D02*
X188017197Y-148758863D01*
X188017197Y-148758863D02*
X187929116Y-148875877D01*
X187929116Y-148875877D02*
X187834728Y-148997449D01*
X187834728Y-148997449D02*
X187743256Y-149111696D01*
X187743256Y-149111696D02*
X187650155Y-149224567D01*
X187650155Y-149224567D02*
X187545641Y-149347400D01*
X187545641Y-149347400D02*
X187451670Y-149454520D01*
X187451670Y-149454520D02*
X187356207Y-149560281D01*
X187356207Y-149560281D02*
X187259266Y-149664670D01*
X187259266Y-149664670D02*
X187155646Y-149773047D01*
X187155646Y-149773047D02*
X186994552Y-149935314D01*
X186994552Y-149935314D02*
X186889640Y-150037124D01*
X186889640Y-150037124D02*
X186783255Y-150137405D01*
X186783255Y-150137405D02*
X186647527Y-150261205D01*
X186647527Y-150261205D02*
X186540708Y-150355508D01*
X186540708Y-150355508D02*
X186418214Y-150460404D01*
X186418214Y-150460404D02*
X186305645Y-150553856D01*
X186305645Y-150553856D02*
X186191694Y-150645683D01*
X186191694Y-150645683D02*
X186064480Y-150745024D01*
X186064480Y-150745024D02*
X185941663Y-150837864D01*
X185941663Y-150837864D02*
X185823478Y-150924454D01*
X185823478Y-150924454D02*
X185703989Y-151009346D01*
X185703989Y-151009346D02*
X185583212Y-151092523D01*
X185583212Y-151092523D02*
X185461163Y-151173967D01*
X185461163Y-151173967D02*
X185331505Y-151257698D01*
X185331505Y-151257698D02*
X185203697Y-151337504D01*
X185203697Y-151337504D02*
X185077851Y-151413503D01*
X185077851Y-151413503D02*
X184950809Y-151487698D01*
X184950809Y-151487698D02*
X184822586Y-151560068D01*
X184822586Y-151560068D02*
X184689869Y-151632384D01*
X184689869Y-151632384D02*
X184549219Y-151706206D01*
X184549219Y-151706206D02*
X184410659Y-151776173D01*
X184410659Y-151776173D02*
X184274303Y-151842412D01*
X184274303Y-151842412D02*
X184122988Y-151912948D01*
X184122988Y-151912948D02*
X183984250Y-151974935D01*
X183984250Y-151974935D02*
X183840897Y-152036338D01*
X183840897Y-152036338D02*
X183689327Y-152098394D01*
X183689327Y-152098394D02*
X183543660Y-152155307D01*
X183543660Y-152155307D02*
X183396897Y-152210000D01*
X183396897Y-152210000D02*
X183249058Y-152262450D01*
X183249058Y-152262450D02*
X183096519Y-152313834D01*
X183096519Y-152313834D02*
X182939222Y-152363958D01*
X182939222Y-152363958D02*
X182784506Y-152410465D01*
X182784506Y-152410465D02*
X182621307Y-152456568D01*
X182621307Y-152456568D02*
X182460740Y-152499012D01*
X182460740Y-152499012D02*
X182287814Y-152541527D01*
X182287814Y-152541527D02*
X182121319Y-152579376D01*
X182121319Y-152579376D02*
X181953783Y-152614439D01*
X181953783Y-152614439D02*
X181785231Y-152646695D01*
X181785231Y-152646695D02*
X181606030Y-152677705D01*
X181606030Y-152677705D02*
X181414086Y-152707202D01*
X181414086Y-152707202D02*
X181226834Y-152732314D01*
X181226834Y-152732314D02*
X181046371Y-152753121D01*
X181046371Y-152753121D02*
X180860993Y-152771059D01*
X180860993Y-152771059D02*
X180662716Y-152786418D01*
X180662716Y-152786418D02*
X180471373Y-152797519D01*
X180471373Y-152797519D02*
X180263016Y-152805478D01*
X180263016Y-152805478D02*
X180061668Y-152809103D01*
X180061668Y-152809103D02*
X179978843Y-152809442D01*
X189992000Y-76390500D02*
X189991913Y-76802531D01*
X189991913Y-76802531D02*
X189991805Y-77327280D01*
X189991805Y-77327280D02*
X189991626Y-78209237D01*
X189991626Y-78209237D02*
X189991411Y-79279731D01*
X189991411Y-79279731D02*
X189991160Y-80527946D01*
X189991160Y-80527946D02*
X189990877Y-81943065D01*
X189990877Y-81943065D02*
X189990402Y-84337546D01*
X189990402Y-84337546D02*
X189989667Y-88039409D01*
X189989667Y-88039409D02*
X189988839Y-92214190D01*
X189988839Y-92214190D02*
X189987468Y-99141715D01*
X189987468Y-99141715D02*
X189985970Y-106710695D01*
X189985970Y-106710695D02*
X189984939Y-111911804D01*
X189984939Y-111911804D02*
X189983898Y-117153164D01*
X189983898Y-117153164D02*
X189983123Y-121055066D01*
X189983123Y-121055066D02*
X189982613Y-123624807D01*
X189982613Y-123624807D02*
X189981859Y-127410493D01*
X189981859Y-127410493D02*
X189981131Y-131059083D01*
X189981131Y-131059083D02*
X189980661Y-133409471D01*
X189980661Y-133409471D02*
X189980206Y-135677979D01*
X189980206Y-135677979D02*
X189979770Y-137853791D01*
X189979770Y-137853791D02*
X189979353Y-139926089D01*
X189979353Y-139926089D02*
X189979054Y-141402049D01*
X189979054Y-141402049D02*
X189978910Y-142115285D01*
X189978910Y-142115285D02*
X189978816Y-142581566D01*
X189978816Y-142581566D02*
X189978770Y-142811350D01*
M02*
