G04 #@! TF.GenerationSoftware,KiCad,Pcbnew,(5.1.5-0-10_14)*
G04 #@! TF.CreationDate,2020-04-20T21:29:54+09:00*
G04 #@! TF.ProjectId,colice_left_topFrame,636f6c69-6365-45f6-9c65-66745f746f70,rev?*
G04 #@! TF.SameCoordinates,Original*
G04 #@! TF.FileFunction,Legend,Bot*
G04 #@! TF.FilePolarity,Positive*
%FSLAX46Y46*%
G04 Gerber Fmt 4.6, Leading zero omitted, Abs format (unit mm)*
G04 Created by KiCad (PCBNEW (5.1.5-0-10_14)) date 2020-04-20 21:29:54*
%MOMM*%
%LPD*%
G04 APERTURE LIST*
%ADD10C,0.300000*%
G04 APERTURE END LIST*
D10*
X72947585Y-136439871D02*
X71876157Y-136439871D01*
X72519014Y-135797014D02*
X72947585Y-137725585D01*
X72019014Y-137082728D02*
X73090442Y-137082728D01*
X72447585Y-137725585D02*
X72019014Y-135797014D01*
X70519014Y-137297014D02*
X70590442Y-137368442D01*
X70804728Y-137439871D01*
X70947585Y-137439871D01*
X71161871Y-137368442D01*
X71304728Y-137225585D01*
X71376157Y-137082728D01*
X71447585Y-136797014D01*
X71447585Y-136582728D01*
X71376157Y-136297014D01*
X71304728Y-136154157D01*
X71161871Y-136011300D01*
X70947585Y-135939871D01*
X70804728Y-135939871D01*
X70590442Y-136011300D01*
X70519014Y-136082728D01*
X69661871Y-137439871D02*
X69804728Y-137368442D01*
X69876157Y-137297014D01*
X69947585Y-137154157D01*
X69947585Y-136725585D01*
X69876157Y-136582728D01*
X69804728Y-136511300D01*
X69661871Y-136439871D01*
X69447585Y-136439871D01*
X69304728Y-136511300D01*
X69233300Y-136582728D01*
X69161871Y-136725585D01*
X69161871Y-137154157D01*
X69233300Y-137297014D01*
X69304728Y-137368442D01*
X69447585Y-137439871D01*
X69661871Y-137439871D01*
X68304728Y-137439871D02*
X68447585Y-137368442D01*
X68519014Y-137225585D01*
X68519014Y-135939871D01*
X67733300Y-137439871D02*
X67733300Y-136439871D01*
X67733300Y-135939871D02*
X67804728Y-136011300D01*
X67733300Y-136082728D01*
X67661871Y-136011300D01*
X67733300Y-135939871D01*
X67733300Y-136082728D01*
X66376157Y-137368442D02*
X66519014Y-137439871D01*
X66804728Y-137439871D01*
X66947585Y-137368442D01*
X67019014Y-137297014D01*
X67090442Y-137154157D01*
X67090442Y-136725585D01*
X67019014Y-136582728D01*
X66947585Y-136511300D01*
X66804728Y-136439871D01*
X66519014Y-136439871D01*
X66376157Y-136511300D01*
X65161871Y-137368442D02*
X65304728Y-137439871D01*
X65590442Y-137439871D01*
X65733300Y-137368442D01*
X65804728Y-137225585D01*
X65804728Y-136654157D01*
X65733300Y-136511300D01*
X65590442Y-136439871D01*
X65304728Y-136439871D01*
X65161871Y-136511300D01*
X65090442Y-136654157D01*
X65090442Y-136797014D01*
X65804728Y-136939871D01*
X62376157Y-136725585D02*
X62447585Y-136654157D01*
X62590442Y-136582728D01*
X62733300Y-136582728D01*
X62876157Y-136654157D01*
X62947585Y-136725585D01*
X63019014Y-136868442D01*
X63019014Y-137011300D01*
X62947585Y-137154157D01*
X62876157Y-137225585D01*
X62733300Y-137297014D01*
X62590442Y-137297014D01*
X62447585Y-137225585D01*
X62376157Y-137154157D01*
X62376157Y-136582728D02*
X62376157Y-137154157D01*
X62304728Y-137225585D01*
X62233300Y-137225585D01*
X62090442Y-137154157D01*
X62019014Y-137011300D01*
X62019014Y-136654157D01*
X62161871Y-136439871D01*
X62376157Y-136297014D01*
X62661871Y-136225585D01*
X62947585Y-136297014D01*
X63161871Y-136439871D01*
X63304728Y-136654157D01*
X63376157Y-136939871D01*
X63304728Y-137225585D01*
X63161871Y-137439871D01*
X62947585Y-137582728D01*
X62661871Y-137654157D01*
X62376157Y-137582728D01*
X62161871Y-137439871D01*
X61376157Y-136439871D02*
X61376157Y-137725585D01*
X61447585Y-137868442D01*
X61590442Y-137939871D01*
X61661871Y-137939871D01*
X61376157Y-135939871D02*
X61447585Y-136011300D01*
X61376157Y-136082728D01*
X61304728Y-136011300D01*
X61376157Y-135939871D01*
X61376157Y-136082728D01*
X60661871Y-136439871D02*
X60661871Y-137939871D01*
X60661871Y-136511300D02*
X60519014Y-136439871D01*
X60233300Y-136439871D01*
X60090442Y-136511300D01*
X60019014Y-136582728D01*
X59947585Y-136725585D01*
X59947585Y-137154157D01*
X60019014Y-137297014D01*
X60090442Y-137368442D01*
X60233300Y-137439871D01*
X60519014Y-137439871D01*
X60661871Y-137368442D01*
X59376157Y-137368442D02*
X59233300Y-137439871D01*
X58947585Y-137439871D01*
X58804728Y-137368442D01*
X58733300Y-137225585D01*
X58733300Y-137154157D01*
X58804728Y-137011300D01*
X58947585Y-136939871D01*
X59161871Y-136939871D01*
X59304728Y-136868442D01*
X59376157Y-136725585D01*
X59376157Y-136654157D01*
X59304728Y-136511300D01*
X59161871Y-136439871D01*
X58947585Y-136439871D01*
X58804728Y-136511300D01*
X58090442Y-137439871D02*
X58090442Y-135939871D01*
X57947585Y-136868442D02*
X57519014Y-137439871D01*
X57519014Y-136439871D02*
X58090442Y-137011300D01*
X56304728Y-137368442D02*
X56447585Y-137439871D01*
X56733300Y-137439871D01*
X56876157Y-137368442D01*
X56947585Y-137225585D01*
X56947585Y-136654157D01*
X56876157Y-136511300D01*
X56733300Y-136439871D01*
X56447585Y-136439871D01*
X56304728Y-136511300D01*
X56233300Y-136654157D01*
X56233300Y-136797014D01*
X56947585Y-136939871D01*
X55590442Y-136439871D02*
X55590442Y-137439871D01*
X55590442Y-136582728D02*
X55519014Y-136511300D01*
X55376157Y-136439871D01*
X55161871Y-136439871D01*
X55019014Y-136511300D01*
X54947585Y-136654157D01*
X54947585Y-137439871D01*
X54233300Y-136439871D02*
X54233300Y-137439871D01*
X54233300Y-136582728D02*
X54161871Y-136511300D01*
X54019014Y-136439871D01*
X53804728Y-136439871D01*
X53661871Y-136511300D01*
X53590442Y-136654157D01*
X53590442Y-137439871D01*
X72911871Y-139989871D02*
X73626157Y-139989871D01*
X73626157Y-138489871D01*
X71840442Y-139918442D02*
X71983300Y-139989871D01*
X72269014Y-139989871D01*
X72411871Y-139918442D01*
X72483300Y-139775585D01*
X72483300Y-139204157D01*
X72411871Y-139061300D01*
X72269014Y-138989871D01*
X71983300Y-138989871D01*
X71840442Y-139061300D01*
X71769014Y-139204157D01*
X71769014Y-139347014D01*
X72483300Y-139489871D01*
X71340442Y-138989871D02*
X70769014Y-138989871D01*
X71126157Y-139989871D02*
X71126157Y-138704157D01*
X71054728Y-138561300D01*
X70911871Y-138489871D01*
X70769014Y-138489871D01*
X70483300Y-138989871D02*
X69911871Y-138989871D01*
X70269014Y-138489871D02*
X70269014Y-139775585D01*
X70197585Y-139918442D01*
X70054728Y-139989871D01*
X69911871Y-139989871D01*
X68269014Y-139989871D02*
X68269014Y-138489871D01*
X67411871Y-139989871D02*
X68054728Y-139132728D01*
X67411871Y-138489871D02*
X68269014Y-139347014D01*
X66197585Y-139918442D02*
X66340442Y-139989871D01*
X66626157Y-139989871D01*
X66769014Y-139918442D01*
X66840442Y-139775585D01*
X66840442Y-139204157D01*
X66769014Y-139061300D01*
X66626157Y-138989871D01*
X66340442Y-138989871D01*
X66197585Y-139061300D01*
X66126157Y-139204157D01*
X66126157Y-139347014D01*
X66840442Y-139489871D01*
X65626157Y-138989871D02*
X65269014Y-139989871D01*
X64911871Y-138989871D02*
X65269014Y-139989871D01*
X65411871Y-140347014D01*
X65483300Y-140418442D01*
X65626157Y-140489871D01*
X64340442Y-138989871D02*
X64340442Y-140489871D01*
X64340442Y-139061300D02*
X64197585Y-138989871D01*
X63911871Y-138989871D01*
X63769014Y-139061300D01*
X63697585Y-139132728D01*
X63626157Y-139275585D01*
X63626157Y-139704157D01*
X63697585Y-139847014D01*
X63769014Y-139918442D01*
X63911871Y-139989871D01*
X64197585Y-139989871D01*
X64340442Y-139918442D01*
X62769014Y-139989871D02*
X62911871Y-139918442D01*
X62983300Y-139775585D01*
X62983300Y-138489871D01*
X61554728Y-139989871D02*
X61554728Y-139204157D01*
X61626157Y-139061300D01*
X61769014Y-138989871D01*
X62054728Y-138989871D01*
X62197585Y-139061300D01*
X61554728Y-139918442D02*
X61697585Y-139989871D01*
X62054728Y-139989871D01*
X62197585Y-139918442D01*
X62269014Y-139775585D01*
X62269014Y-139632728D01*
X62197585Y-139489871D01*
X62054728Y-139418442D01*
X61697585Y-139418442D01*
X61554728Y-139347014D01*
X61054728Y-138989871D02*
X60483300Y-138989871D01*
X60840442Y-138489871D02*
X60840442Y-139775585D01*
X60769014Y-139918442D01*
X60626157Y-139989871D01*
X60483300Y-139989871D01*
X59411871Y-139918442D02*
X59554728Y-139989871D01*
X59840442Y-139989871D01*
X59983300Y-139918442D01*
X60054728Y-139775585D01*
X60054728Y-139204157D01*
X59983300Y-139061300D01*
X59840442Y-138989871D01*
X59554728Y-138989871D01*
X59411871Y-139061300D01*
X59340442Y-139204157D01*
X59340442Y-139347014D01*
X60054728Y-139489871D01*
X57697585Y-138989871D02*
X57340442Y-139989871D01*
X56983300Y-138989871D01*
X56411871Y-139847014D02*
X56340442Y-139918442D01*
X56411871Y-139989871D01*
X56483300Y-139918442D01*
X56411871Y-139847014D01*
X56411871Y-139989871D01*
X55411871Y-138489871D02*
X55269014Y-138489871D01*
X55126157Y-138561300D01*
X55054728Y-138632728D01*
X54983300Y-138775585D01*
X54911871Y-139061300D01*
X54911871Y-139418442D01*
X54983300Y-139704157D01*
X55054728Y-139847014D01*
X55126157Y-139918442D01*
X55269014Y-139989871D01*
X55411871Y-139989871D01*
X55554728Y-139918442D01*
X55626157Y-139847014D01*
X55697585Y-139704157D01*
X55769014Y-139418442D01*
X55769014Y-139061300D01*
X55697585Y-138775585D01*
X55626157Y-138632728D01*
X55554728Y-138561300D01*
X55411871Y-138489871D01*
X54269014Y-139847014D02*
X54197585Y-139918442D01*
X54269014Y-139989871D01*
X54340442Y-139918442D01*
X54269014Y-139847014D01*
X54269014Y-139989871D01*
X52769014Y-139989871D02*
X53626157Y-139989871D01*
X53197585Y-139989871D02*
X53197585Y-138489871D01*
X53340442Y-138704157D01*
X53483300Y-138847014D01*
X53626157Y-138918442D01*
M02*
