M48
; DRILL file {KiCad (5.1.5-0-10_14)} date 2020 May 13, Wednesday 21:40:10
; FORMAT={-:-/ absolute / metric / decimal}
; #@! TF.CreationDate,2020-05-13T21:40:10+09:00
; #@! TF.GenerationSoftware,Kicad,Pcbnew,(5.1.5-0-10_14)
FMAT,2
METRIC
T1C0.787
%
G90
G05
T1
X256.66Y-31.392
X257.93Y-31.392
X259.2Y-31.392
X260.47Y-31.392
X261.74Y-31.392
X170.86Y-152.5
X172.13Y-152.5
X173.4Y-152.5
X174.67Y-152.5
X175.94Y-152.5
X38.96Y-29.5
X40.23Y-29.5
X41.5Y-29.5
X42.77Y-29.5
X44.04Y-29.5
X135.36Y-21.6
X136.63Y-21.6
X137.9Y-21.6
X139.17Y-21.6
X140.44Y-21.6
X38.96Y-21.6
X40.23Y-21.6
X41.5Y-21.6
X42.77Y-21.6
X44.04Y-21.6
X245.03Y-152.5
X246.3Y-152.5
X247.57Y-152.5
X248.84Y-152.5
X250.11Y-152.5
X256.66Y-21.554
X257.93Y-21.554
X259.2Y-21.554
X260.47Y-21.554
X261.74Y-21.554
X124.36Y-138.554
X125.63Y-138.554
X126.9Y-138.554
X128.17Y-138.554
X129.44Y-138.554
X173.56Y-31.4
X174.83Y-31.4
X176.1Y-31.4
X177.37Y-31.4
X178.64Y-31.4
X124.36Y-152.446
X125.63Y-152.446
X126.9Y-152.446
X128.17Y-152.446
X129.44Y-152.446
X245.16Y-135.654
X246.43Y-135.654
X247.7Y-135.654
X248.97Y-135.654
X250.24Y-135.654
X171.06Y-136.654
X172.33Y-136.654
X173.6Y-136.654
X174.87Y-136.654
X176.14Y-136.654
X41.46Y-152.5
X42.73Y-152.5
X44.0Y-152.5
X45.27Y-152.5
X46.54Y-152.5
X135.36Y-31.4
X136.63Y-31.4
X137.9Y-31.4
X139.17Y-31.4
X140.44Y-31.4
X173.56Y-21.6
X174.83Y-21.6
X176.1Y-21.6
X177.37Y-21.6
X178.64Y-21.6
X41.56Y-135.6
X42.83Y-135.6
X44.1Y-135.6
X45.37Y-135.6
X46.64Y-135.6
T0
M30
