G04 #@! TF.GenerationSoftware,KiCad,Pcbnew,(5.1.5-0-10_14)*
G04 #@! TF.CreationDate,2020-05-14T06:03:15+09:00*
G04 #@! TF.ProjectId,Colice,436f6c69-6365-42e6-9b69-6361645f7063,rev?*
G04 #@! TF.SameCoordinates,Original*
G04 #@! TF.FileFunction,Soldermask,Bot*
G04 #@! TF.FilePolarity,Negative*
%FSLAX46Y46*%
G04 Gerber Fmt 4.6, Leading zero omitted, Abs format (unit mm)*
G04 Created by KiCad (PCBNEW (5.1.5-0-10_14)) date 2020-05-14 06:03:15*
%MOMM*%
%LPD*%
G04 APERTURE LIST*
%ADD10C,0.100000*%
G04 APERTURE END LIST*
D10*
G36*
X93359911Y-136439826D02*
G01*
X93476032Y-136487925D01*
X93646541Y-136558552D01*
X93646542Y-136558553D01*
X93904504Y-136730917D01*
X94123883Y-136950296D01*
X94239053Y-137122661D01*
X94296248Y-137208259D01*
X94414974Y-137494890D01*
X94475500Y-137799175D01*
X94475500Y-138109425D01*
X94414974Y-138413710D01*
X94296248Y-138700341D01*
X94296247Y-138700342D01*
X94123883Y-138958304D01*
X93904504Y-139177683D01*
X93732139Y-139292853D01*
X93646541Y-139350048D01*
X93478637Y-139419596D01*
X93359911Y-139468774D01*
X93207767Y-139499037D01*
X93055625Y-139529300D01*
X92745375Y-139529300D01*
X92593233Y-139499037D01*
X92441089Y-139468774D01*
X92322363Y-139419596D01*
X92154459Y-139350048D01*
X92068861Y-139292853D01*
X91896496Y-139177683D01*
X91677117Y-138958304D01*
X91504753Y-138700342D01*
X91504752Y-138700341D01*
X91386026Y-138413710D01*
X91325500Y-138109425D01*
X91325500Y-137799175D01*
X91386026Y-137494890D01*
X91504752Y-137208259D01*
X91561947Y-137122661D01*
X91677117Y-136950296D01*
X91896496Y-136730917D01*
X92154458Y-136558553D01*
X92154459Y-136558552D01*
X92324968Y-136487925D01*
X92441089Y-136439826D01*
X92745375Y-136379300D01*
X93055625Y-136379300D01*
X93359911Y-136439826D01*
G37*
G36*
X69483911Y-136439826D02*
G01*
X69600032Y-136487925D01*
X69770541Y-136558552D01*
X69770542Y-136558553D01*
X70028504Y-136730917D01*
X70247883Y-136950296D01*
X70363053Y-137122661D01*
X70420248Y-137208259D01*
X70538974Y-137494890D01*
X70599500Y-137799175D01*
X70599500Y-138109425D01*
X70538974Y-138413710D01*
X70420248Y-138700341D01*
X70420247Y-138700342D01*
X70247883Y-138958304D01*
X70028504Y-139177683D01*
X69856139Y-139292853D01*
X69770541Y-139350048D01*
X69602637Y-139419596D01*
X69483911Y-139468774D01*
X69331767Y-139499037D01*
X69179625Y-139529300D01*
X68869375Y-139529300D01*
X68717233Y-139499037D01*
X68565089Y-139468774D01*
X68446363Y-139419596D01*
X68278459Y-139350048D01*
X68192861Y-139292853D01*
X68020496Y-139177683D01*
X67801117Y-138958304D01*
X67628753Y-138700342D01*
X67628752Y-138700341D01*
X67510026Y-138413710D01*
X67449500Y-138109425D01*
X67449500Y-137799175D01*
X67510026Y-137494890D01*
X67628752Y-137208259D01*
X67685947Y-137122661D01*
X67801117Y-136950296D01*
X68020496Y-136730917D01*
X68278458Y-136558553D01*
X68278459Y-136558552D01*
X68448968Y-136487925D01*
X68565089Y-136439826D01*
X68869375Y-136379300D01*
X69179625Y-136379300D01*
X69483911Y-136439826D01*
G37*
G36*
X127498500Y-139380300D02*
G01*
X124596500Y-139380300D01*
X124596500Y-136728300D01*
X127498500Y-136728300D01*
X127498500Y-139380300D01*
G37*
G36*
X85998500Y-137500300D02*
G01*
X83346500Y-137500300D01*
X83346500Y-134598300D01*
X85998500Y-134598300D01*
X85998500Y-137500300D01*
G37*
G36*
X66948500Y-137500300D02*
G01*
X64296500Y-137500300D01*
X64296500Y-134598300D01*
X66948500Y-134598300D01*
X66948500Y-137500300D01*
G37*
G36*
X128857604Y-135158885D02*
G01*
X129026126Y-135228689D01*
X129177791Y-135330028D01*
X129306772Y-135459009D01*
X129408111Y-135610674D01*
X129477915Y-135779196D01*
X129513500Y-135958097D01*
X129513500Y-136140503D01*
X129477915Y-136319404D01*
X129408111Y-136487926D01*
X129306772Y-136639591D01*
X129177791Y-136768572D01*
X129026126Y-136869911D01*
X128857604Y-136939715D01*
X128678703Y-136975300D01*
X128496297Y-136975300D01*
X128317396Y-136939715D01*
X128148874Y-136869911D01*
X127997209Y-136768572D01*
X127868228Y-136639591D01*
X127766889Y-136487926D01*
X127697085Y-136319404D01*
X127661500Y-136140503D01*
X127661500Y-135958097D01*
X127697085Y-135779196D01*
X127766889Y-135610674D01*
X127868228Y-135459009D01*
X127997209Y-135330028D01*
X128148874Y-135228689D01*
X128317396Y-135158885D01*
X128496297Y-135123300D01*
X128678703Y-135123300D01*
X128857604Y-135158885D01*
G37*
G36*
X120928974Y-131415944D02*
G01*
X121146974Y-131506243D01*
X121301123Y-131570093D01*
X121636048Y-131793883D01*
X121920877Y-132078712D01*
X122144667Y-132413637D01*
X122144667Y-132413638D01*
X122298816Y-132785786D01*
X122377400Y-133180854D01*
X122377400Y-133583666D01*
X122298816Y-133978734D01*
X122236863Y-134128301D01*
X122144667Y-134350883D01*
X121920877Y-134685808D01*
X121636048Y-134970637D01*
X121301123Y-135194427D01*
X121146974Y-135258277D01*
X120928974Y-135348576D01*
X120533906Y-135427160D01*
X120131094Y-135427160D01*
X119736026Y-135348576D01*
X119518026Y-135258277D01*
X119363877Y-135194427D01*
X119028952Y-134970637D01*
X118744123Y-134685808D01*
X118520333Y-134350883D01*
X118428137Y-134128301D01*
X118366184Y-133978734D01*
X118287600Y-133583666D01*
X118287600Y-133180854D01*
X118366184Y-132785786D01*
X118520333Y-132413638D01*
X118520333Y-132413637D01*
X118744123Y-132078712D01*
X119028952Y-131793883D01*
X119363877Y-131570093D01*
X119518026Y-131506243D01*
X119736026Y-131415944D01*
X120131094Y-131337360D01*
X120533906Y-131337360D01*
X120928974Y-131415944D01*
G37*
G36*
X98898500Y-134960300D02*
G01*
X96246500Y-134960300D01*
X96246500Y-132058300D01*
X98898500Y-132058300D01*
X98898500Y-134960300D01*
G37*
G36*
X81558974Y-129002984D02*
G01*
X81740346Y-129078111D01*
X81931123Y-129157133D01*
X82266048Y-129380923D01*
X82550877Y-129665752D01*
X82774667Y-130000677D01*
X82809933Y-130085818D01*
X82928816Y-130372826D01*
X83007400Y-130767894D01*
X83007400Y-131170706D01*
X82928816Y-131565774D01*
X82877951Y-131688572D01*
X82774667Y-131937923D01*
X82550877Y-132272848D01*
X82266048Y-132557677D01*
X81931123Y-132781467D01*
X81875779Y-132804391D01*
X81558974Y-132935616D01*
X81163906Y-133014200D01*
X80761094Y-133014200D01*
X80366026Y-132935616D01*
X80021334Y-132792840D01*
X79997885Y-132785727D01*
X79973499Y-132783325D01*
X79949113Y-132785727D01*
X79925664Y-132792840D01*
X79904053Y-132804391D01*
X79885111Y-132819936D01*
X79869566Y-132838878D01*
X79858015Y-132860489D01*
X79850902Y-132883938D01*
X79848500Y-132908324D01*
X79848500Y-134960300D01*
X77196500Y-134960300D01*
X77196500Y-132058300D01*
X79013121Y-132058300D01*
X79037507Y-132055898D01*
X79060956Y-132048785D01*
X79082567Y-132037234D01*
X79101509Y-132021689D01*
X79117054Y-132002747D01*
X79128605Y-131981136D01*
X79135718Y-131957687D01*
X79138120Y-131933301D01*
X79135718Y-131908915D01*
X79128605Y-131885466D01*
X79121282Y-131867786D01*
X79047049Y-131688572D01*
X78996184Y-131565774D01*
X78917600Y-131170706D01*
X78917600Y-130767894D01*
X78996184Y-130372826D01*
X79115067Y-130085818D01*
X79150333Y-130000677D01*
X79374123Y-129665752D01*
X79658952Y-129380923D01*
X79993877Y-129157133D01*
X80184654Y-129078111D01*
X80366026Y-129002984D01*
X80761094Y-128924400D01*
X81163906Y-128924400D01*
X81558974Y-129002984D01*
G37*
G36*
X135879767Y-131837523D02*
G01*
X136031911Y-131867786D01*
X136098335Y-131895300D01*
X136318541Y-131986512D01*
X136318542Y-131986513D01*
X136576504Y-132158877D01*
X136795883Y-132378256D01*
X136819524Y-132413638D01*
X136968248Y-132636219D01*
X137028411Y-132781467D01*
X137080958Y-132908324D01*
X137086974Y-132922850D01*
X137147500Y-133227135D01*
X137147500Y-133537385D01*
X137086974Y-133841670D01*
X136968248Y-134128301D01*
X136968247Y-134128302D01*
X136795883Y-134386264D01*
X136576504Y-134605643D01*
X136456528Y-134685808D01*
X136318541Y-134778008D01*
X136150637Y-134847556D01*
X136031911Y-134896734D01*
X135879767Y-134926997D01*
X135727625Y-134957260D01*
X135417375Y-134957260D01*
X135265233Y-134926997D01*
X135113089Y-134896734D01*
X134994363Y-134847556D01*
X134826459Y-134778008D01*
X134688472Y-134685808D01*
X134568496Y-134605643D01*
X134349117Y-134386264D01*
X134176753Y-134128302D01*
X134176752Y-134128301D01*
X134058026Y-133841670D01*
X133997500Y-133537385D01*
X133997500Y-133227135D01*
X134058026Y-132922850D01*
X134064043Y-132908324D01*
X134116589Y-132781467D01*
X134176752Y-132636219D01*
X134325476Y-132413638D01*
X134349117Y-132378256D01*
X134568496Y-132158877D01*
X134826458Y-131986513D01*
X134826459Y-131986512D01*
X135046665Y-131895300D01*
X135113089Y-131867786D01*
X135265233Y-131837523D01*
X135417375Y-131807260D01*
X135727625Y-131807260D01*
X135879767Y-131837523D01*
G37*
G36*
X129183974Y-129002984D02*
G01*
X129365346Y-129078111D01*
X129556123Y-129157133D01*
X129891048Y-129380923D01*
X130175877Y-129665752D01*
X130399667Y-130000677D01*
X130434933Y-130085818D01*
X130553816Y-130372826D01*
X130632400Y-130767894D01*
X130632400Y-131170706D01*
X130553816Y-131565774D01*
X130502951Y-131688572D01*
X130399667Y-131937923D01*
X130175877Y-132272848D01*
X129891048Y-132557677D01*
X129556123Y-132781467D01*
X129500779Y-132804391D01*
X129183974Y-132935616D01*
X128788906Y-133014200D01*
X128386094Y-133014200D01*
X127991026Y-132935616D01*
X127674221Y-132804391D01*
X127618877Y-132781467D01*
X127283952Y-132557677D01*
X126999123Y-132272848D01*
X126775333Y-131937923D01*
X126672049Y-131688572D01*
X126621184Y-131565774D01*
X126542600Y-131170706D01*
X126542600Y-130767894D01*
X126621184Y-130372826D01*
X126740067Y-130085818D01*
X126775333Y-130000677D01*
X126999123Y-129665752D01*
X127283952Y-129380923D01*
X127618877Y-129157133D01*
X127809654Y-129078111D01*
X127991026Y-129002984D01*
X128386094Y-128924400D01*
X128788906Y-128924400D01*
X129183974Y-129002984D01*
G37*
G36*
X110133974Y-129002984D02*
G01*
X110315346Y-129078111D01*
X110506123Y-129157133D01*
X110841048Y-129380923D01*
X111125877Y-129665752D01*
X111349667Y-130000677D01*
X111384933Y-130085818D01*
X111503816Y-130372826D01*
X111582400Y-130767894D01*
X111582400Y-131170706D01*
X111503816Y-131565774D01*
X111452951Y-131688572D01*
X111349667Y-131937923D01*
X111125877Y-132272848D01*
X110841048Y-132557677D01*
X110506123Y-132781467D01*
X110450779Y-132804391D01*
X110133974Y-132935616D01*
X109738906Y-133014200D01*
X109336094Y-133014200D01*
X108941026Y-132935616D01*
X108624221Y-132804391D01*
X108568877Y-132781467D01*
X108233952Y-132557677D01*
X107949123Y-132272848D01*
X107725333Y-131937923D01*
X107622049Y-131688572D01*
X107571184Y-131565774D01*
X107492600Y-131170706D01*
X107492600Y-130767894D01*
X107571184Y-130372826D01*
X107690067Y-130085818D01*
X107725333Y-130000677D01*
X107949123Y-129665752D01*
X108233952Y-129380923D01*
X108568877Y-129157133D01*
X108759654Y-129078111D01*
X108941026Y-129002984D01*
X109336094Y-128924400D01*
X109738906Y-128924400D01*
X110133974Y-129002984D01*
G37*
G36*
X91083974Y-129002984D02*
G01*
X91265346Y-129078111D01*
X91456123Y-129157133D01*
X91791048Y-129380923D01*
X92075877Y-129665752D01*
X92299667Y-130000677D01*
X92334933Y-130085818D01*
X92453816Y-130372826D01*
X92532400Y-130767894D01*
X92532400Y-131170706D01*
X92453816Y-131565774D01*
X92402951Y-131688572D01*
X92299667Y-131937923D01*
X92075877Y-132272848D01*
X91791048Y-132557677D01*
X91456123Y-132781467D01*
X91400779Y-132804391D01*
X91083974Y-132935616D01*
X90688906Y-133014200D01*
X90286094Y-133014200D01*
X89891026Y-132935616D01*
X89574221Y-132804391D01*
X89518877Y-132781467D01*
X89183952Y-132557677D01*
X88899123Y-132272848D01*
X88675333Y-131937923D01*
X88572049Y-131688572D01*
X88521184Y-131565774D01*
X88442600Y-131170706D01*
X88442600Y-130767894D01*
X88521184Y-130372826D01*
X88640067Y-130085818D01*
X88675333Y-130000677D01*
X88899123Y-129665752D01*
X89183952Y-129380923D01*
X89518877Y-129157133D01*
X89709654Y-129078111D01*
X89891026Y-129002984D01*
X90286094Y-128924400D01*
X90688906Y-128924400D01*
X91083974Y-129002984D01*
G37*
G36*
X75203500Y-129880300D02*
G01*
X73386879Y-129880300D01*
X73362493Y-129882702D01*
X73339044Y-129889815D01*
X73317433Y-129901366D01*
X73298491Y-129916911D01*
X73282946Y-129935853D01*
X73271395Y-129957464D01*
X73264282Y-129980913D01*
X73261880Y-130005299D01*
X73264282Y-130029685D01*
X73271394Y-130053131D01*
X73284933Y-130085818D01*
X73403816Y-130372826D01*
X73482400Y-130767894D01*
X73482400Y-131170706D01*
X73403816Y-131565774D01*
X73352951Y-131688572D01*
X73249667Y-131937923D01*
X73025877Y-132272848D01*
X72741048Y-132557677D01*
X72406123Y-132781467D01*
X72350779Y-132804391D01*
X72033974Y-132935616D01*
X71638906Y-133014200D01*
X71236094Y-133014200D01*
X70841026Y-132935616D01*
X70524221Y-132804391D01*
X70468877Y-132781467D01*
X70133952Y-132557677D01*
X69849123Y-132272848D01*
X69625333Y-131937923D01*
X69522049Y-131688572D01*
X69471184Y-131565774D01*
X69392600Y-131170706D01*
X69392600Y-130767894D01*
X69471184Y-130372826D01*
X69590067Y-130085818D01*
X69625333Y-130000677D01*
X69849123Y-129665752D01*
X70133952Y-129380923D01*
X70468877Y-129157133D01*
X70659654Y-129078111D01*
X70841026Y-129002984D01*
X71236094Y-128924400D01*
X71638906Y-128924400D01*
X72033974Y-129002984D01*
X72378666Y-129145760D01*
X72402115Y-129152873D01*
X72426501Y-129155275D01*
X72450887Y-129152873D01*
X72474336Y-129145760D01*
X72495947Y-129134209D01*
X72514889Y-129118664D01*
X72530434Y-129099722D01*
X72541985Y-129078111D01*
X72549098Y-129054662D01*
X72551500Y-129030276D01*
X72551500Y-126978300D01*
X75203500Y-126978300D01*
X75203500Y-129880300D01*
G37*
G36*
X85677604Y-130078885D02*
G01*
X85677610Y-130078888D01*
X85678065Y-130078978D01*
X85700618Y-130085818D01*
X85725004Y-130088219D01*
X85749390Y-130085816D01*
X85771935Y-130078978D01*
X85772390Y-130078888D01*
X85772396Y-130078885D01*
X85951297Y-130043300D01*
X86133703Y-130043300D01*
X86312604Y-130078885D01*
X86481126Y-130148689D01*
X86632791Y-130250028D01*
X86761772Y-130379009D01*
X86863111Y-130530674D01*
X86932915Y-130699196D01*
X86968500Y-130878097D01*
X86968500Y-131060503D01*
X86932915Y-131239404D01*
X86863111Y-131407926D01*
X86761772Y-131559591D01*
X86632791Y-131688572D01*
X86481126Y-131789911D01*
X86312604Y-131859715D01*
X86133703Y-131895300D01*
X85951297Y-131895300D01*
X85772396Y-131859715D01*
X85772390Y-131859712D01*
X85771935Y-131859622D01*
X85749382Y-131852782D01*
X85724996Y-131850381D01*
X85700610Y-131852784D01*
X85678065Y-131859622D01*
X85677610Y-131859712D01*
X85677604Y-131859715D01*
X85498703Y-131895300D01*
X85316297Y-131895300D01*
X85137396Y-131859715D01*
X84968874Y-131789911D01*
X84817209Y-131688572D01*
X84688228Y-131559591D01*
X84586889Y-131407926D01*
X84517085Y-131239404D01*
X84481500Y-131060503D01*
X84481500Y-130878097D01*
X84517085Y-130699196D01*
X84586889Y-130530674D01*
X84688228Y-130379009D01*
X84817209Y-130250028D01*
X84968874Y-130148689D01*
X85137396Y-130078885D01*
X85316297Y-130043300D01*
X85498703Y-130043300D01*
X85677604Y-130078885D01*
G37*
G36*
X76152604Y-130078885D02*
G01*
X76152610Y-130078888D01*
X76153065Y-130078978D01*
X76175618Y-130085818D01*
X76200004Y-130088219D01*
X76224390Y-130085816D01*
X76246935Y-130078978D01*
X76247390Y-130078888D01*
X76247396Y-130078885D01*
X76426297Y-130043300D01*
X76608703Y-130043300D01*
X76787604Y-130078885D01*
X76956126Y-130148689D01*
X77107791Y-130250028D01*
X77236772Y-130379009D01*
X77338111Y-130530674D01*
X77407915Y-130699196D01*
X77443500Y-130878097D01*
X77443500Y-131060503D01*
X77407915Y-131239404D01*
X77338111Y-131407926D01*
X77236772Y-131559591D01*
X77107791Y-131688572D01*
X76956126Y-131789911D01*
X76787604Y-131859715D01*
X76608703Y-131895300D01*
X76426297Y-131895300D01*
X76247396Y-131859715D01*
X76247390Y-131859712D01*
X76246935Y-131859622D01*
X76224382Y-131852782D01*
X76199996Y-131850381D01*
X76175610Y-131852784D01*
X76153065Y-131859622D01*
X76152610Y-131859712D01*
X76152604Y-131859715D01*
X75973703Y-131895300D01*
X75791297Y-131895300D01*
X75612396Y-131859715D01*
X75443874Y-131789911D01*
X75292209Y-131688572D01*
X75163228Y-131559591D01*
X75061889Y-131407926D01*
X74992085Y-131239404D01*
X74956500Y-131060503D01*
X74956500Y-130878097D01*
X74992085Y-130699196D01*
X75061889Y-130530674D01*
X75163228Y-130379009D01*
X75292209Y-130250028D01*
X75443874Y-130148689D01*
X75612396Y-130078885D01*
X75791297Y-130043300D01*
X75973703Y-130043300D01*
X76152604Y-130078885D01*
G37*
G36*
X95837604Y-130078885D02*
G01*
X96006126Y-130148689D01*
X96157791Y-130250028D01*
X96286772Y-130379009D01*
X96388111Y-130530674D01*
X96457915Y-130699196D01*
X96493500Y-130878097D01*
X96493500Y-131060503D01*
X96457915Y-131239404D01*
X96388111Y-131407926D01*
X96286772Y-131559591D01*
X96157791Y-131688572D01*
X96006126Y-131789911D01*
X95837604Y-131859715D01*
X95658703Y-131895300D01*
X95476297Y-131895300D01*
X95297396Y-131859715D01*
X95128874Y-131789911D01*
X94977209Y-131688572D01*
X94848228Y-131559591D01*
X94746889Y-131407926D01*
X94677085Y-131239404D01*
X94641500Y-131060503D01*
X94641500Y-130878097D01*
X94677085Y-130699196D01*
X94746889Y-130530674D01*
X94848228Y-130379009D01*
X94977209Y-130250028D01*
X95128874Y-130148689D01*
X95297396Y-130078885D01*
X95476297Y-130043300D01*
X95658703Y-130043300D01*
X95837604Y-130078885D01*
G37*
G36*
X66627604Y-130078885D02*
G01*
X66796126Y-130148689D01*
X66947791Y-130250028D01*
X67076772Y-130379009D01*
X67178111Y-130530674D01*
X67247915Y-130699196D01*
X67283500Y-130878097D01*
X67283500Y-131060503D01*
X67247915Y-131239404D01*
X67178111Y-131407926D01*
X67076772Y-131559591D01*
X66947791Y-131688572D01*
X66796126Y-131789911D01*
X66627604Y-131859715D01*
X66448703Y-131895300D01*
X66266297Y-131895300D01*
X66087396Y-131859715D01*
X65918874Y-131789911D01*
X65767209Y-131688572D01*
X65638228Y-131559591D01*
X65536889Y-131407926D01*
X65467085Y-131239404D01*
X65431500Y-131060503D01*
X65431500Y-130878097D01*
X65467085Y-130699196D01*
X65536889Y-130530674D01*
X65638228Y-130379009D01*
X65767209Y-130250028D01*
X65918874Y-130148689D01*
X66087396Y-130078885D01*
X66266297Y-130043300D01*
X66448703Y-130043300D01*
X66627604Y-130078885D01*
G37*
G36*
X114887604Y-130078885D02*
G01*
X115056126Y-130148689D01*
X115207791Y-130250028D01*
X115336772Y-130379009D01*
X115438111Y-130530674D01*
X115507915Y-130699196D01*
X115543500Y-130878097D01*
X115543500Y-131060503D01*
X115507915Y-131239404D01*
X115438111Y-131407926D01*
X115336772Y-131559591D01*
X115207791Y-131688572D01*
X115056126Y-131789911D01*
X114887604Y-131859715D01*
X114708703Y-131895300D01*
X114526297Y-131895300D01*
X114347396Y-131859715D01*
X114178874Y-131789911D01*
X114027209Y-131688572D01*
X113898228Y-131559591D01*
X113796889Y-131407926D01*
X113727085Y-131239404D01*
X113691500Y-131060503D01*
X113691500Y-130878097D01*
X113727085Y-130699196D01*
X113796889Y-130530674D01*
X113898228Y-130379009D01*
X114027209Y-130250028D01*
X114178874Y-130148689D01*
X114347396Y-130078885D01*
X114526297Y-130043300D01*
X114708703Y-130043300D01*
X114887604Y-130078885D01*
G37*
G36*
X104727604Y-130078885D02*
G01*
X104896126Y-130148689D01*
X105047791Y-130250028D01*
X105176772Y-130379009D01*
X105278111Y-130530674D01*
X105347915Y-130699196D01*
X105383500Y-130878097D01*
X105383500Y-131060503D01*
X105347915Y-131239404D01*
X105278111Y-131407926D01*
X105176772Y-131559591D01*
X105047791Y-131688572D01*
X104896126Y-131789911D01*
X104727604Y-131859715D01*
X104548703Y-131895300D01*
X104366297Y-131895300D01*
X104187396Y-131859715D01*
X104018874Y-131789911D01*
X103867209Y-131688572D01*
X103738228Y-131559591D01*
X103636889Y-131407926D01*
X103567085Y-131239404D01*
X103531500Y-131060503D01*
X103531500Y-130878097D01*
X103567085Y-130699196D01*
X103636889Y-130530674D01*
X103738228Y-130379009D01*
X103867209Y-130250028D01*
X104018874Y-130148689D01*
X104187396Y-130078885D01*
X104366297Y-130043300D01*
X104548703Y-130043300D01*
X104727604Y-130078885D01*
G37*
G36*
X103778500Y-129880300D02*
G01*
X101126500Y-129880300D01*
X101126500Y-126978300D01*
X103778500Y-126978300D01*
X103778500Y-129880300D01*
G37*
G36*
X135118500Y-128585260D02*
G01*
X132216500Y-128585260D01*
X132216500Y-125933260D01*
X135118500Y-125933260D01*
X135118500Y-128585260D01*
G37*
G36*
X128857604Y-124998885D02*
G01*
X129026126Y-125068689D01*
X129177791Y-125170028D01*
X129306772Y-125299009D01*
X129408111Y-125450674D01*
X129477915Y-125619196D01*
X129513500Y-125798097D01*
X129513500Y-125980503D01*
X129477915Y-126159404D01*
X129477912Y-126159410D01*
X129477818Y-126159885D01*
X129470991Y-126182395D01*
X129468589Y-126206781D01*
X129470991Y-126231167D01*
X129477818Y-126253675D01*
X129477912Y-126254150D01*
X129477915Y-126254156D01*
X129513500Y-126433057D01*
X129513500Y-126615463D01*
X129477915Y-126794364D01*
X129408111Y-126962886D01*
X129306772Y-127114551D01*
X129177791Y-127243532D01*
X129026126Y-127344871D01*
X128857604Y-127414675D01*
X128678703Y-127450260D01*
X128496297Y-127450260D01*
X128317396Y-127414675D01*
X128148874Y-127344871D01*
X127997209Y-127243532D01*
X127868228Y-127114551D01*
X127766889Y-126962886D01*
X127697085Y-126794364D01*
X127661500Y-126615463D01*
X127661500Y-126433057D01*
X127697085Y-126254156D01*
X127697088Y-126254150D01*
X127697182Y-126253675D01*
X127704009Y-126231165D01*
X127706411Y-126206779D01*
X127704009Y-126182393D01*
X127697182Y-126159885D01*
X127697088Y-126159410D01*
X127697085Y-126159404D01*
X127661500Y-125980503D01*
X127661500Y-125798097D01*
X127697085Y-125619196D01*
X127766889Y-125450674D01*
X127868228Y-125299009D01*
X127997209Y-125170028D01*
X128148874Y-125068689D01*
X128317396Y-124998885D01*
X128496297Y-124963300D01*
X128678703Y-124963300D01*
X128857604Y-124998885D01*
G37*
G36*
X88103500Y-127340300D02*
G01*
X85451500Y-127340300D01*
X85451500Y-124438300D01*
X88103500Y-124438300D01*
X88103500Y-127340300D01*
G37*
G36*
X116678500Y-127340300D02*
G01*
X114026500Y-127340300D01*
X114026500Y-124438300D01*
X116678500Y-124438300D01*
X116678500Y-127340300D01*
G37*
G36*
X124958500Y-126480300D02*
G01*
X122056500Y-126480300D01*
X122056500Y-123828300D01*
X124958500Y-123828300D01*
X124958500Y-126480300D01*
G37*
G36*
X93496974Y-120747984D02*
G01*
X93708992Y-120835805D01*
X93869123Y-120902133D01*
X94204048Y-121125923D01*
X94488877Y-121410752D01*
X94712667Y-121745677D01*
X94728335Y-121783503D01*
X94866816Y-122117826D01*
X94945400Y-122512894D01*
X94945400Y-122915706D01*
X94866816Y-123310774D01*
X94792926Y-123489160D01*
X94712667Y-123682923D01*
X94488877Y-124017848D01*
X94204048Y-124302677D01*
X93869123Y-124526467D01*
X93714974Y-124590317D01*
X93496974Y-124680616D01*
X93101906Y-124759200D01*
X92699094Y-124759200D01*
X92304026Y-124680616D01*
X92086026Y-124590317D01*
X91931877Y-124526467D01*
X91596952Y-124302677D01*
X91312123Y-124017848D01*
X91088333Y-123682923D01*
X91008074Y-123489160D01*
X90934184Y-123310774D01*
X90855600Y-122915706D01*
X90855600Y-122512894D01*
X90934184Y-122117826D01*
X91072665Y-121783503D01*
X91088333Y-121745677D01*
X91312123Y-121410752D01*
X91596952Y-121125923D01*
X91931877Y-120902133D01*
X92092008Y-120835805D01*
X92304026Y-120747984D01*
X92699094Y-120669400D01*
X93101906Y-120669400D01*
X93496974Y-120747984D01*
G37*
G36*
X69620974Y-120747984D02*
G01*
X69832992Y-120835805D01*
X69993123Y-120902133D01*
X70328048Y-121125923D01*
X70612877Y-121410752D01*
X70836667Y-121745677D01*
X70852335Y-121783503D01*
X70990816Y-122117826D01*
X71069400Y-122512894D01*
X71069400Y-122915706D01*
X70990816Y-123310774D01*
X70916926Y-123489160D01*
X70836667Y-123682923D01*
X70612877Y-124017848D01*
X70328048Y-124302677D01*
X69993123Y-124526467D01*
X69838974Y-124590317D01*
X69620974Y-124680616D01*
X69225906Y-124759200D01*
X68823094Y-124759200D01*
X68428026Y-124680616D01*
X68210026Y-124590317D01*
X68055877Y-124526467D01*
X67720952Y-124302677D01*
X67436123Y-124017848D01*
X67212333Y-123682923D01*
X67132074Y-123489160D01*
X67058184Y-123310774D01*
X66979600Y-122915706D01*
X66979600Y-122512894D01*
X67058184Y-122117826D01*
X67196665Y-121783503D01*
X67212333Y-121745677D01*
X67436123Y-121410752D01*
X67720952Y-121125923D01*
X68055877Y-120902133D01*
X68216008Y-120835805D01*
X68428026Y-120747984D01*
X68823094Y-120669400D01*
X69225906Y-120669400D01*
X69620974Y-120747984D01*
G37*
G36*
X127498500Y-119494881D02*
G01*
X127500902Y-119519267D01*
X127508015Y-119542716D01*
X127519566Y-119564327D01*
X127535111Y-119583269D01*
X127554053Y-119598814D01*
X127575664Y-119610365D01*
X127599113Y-119617478D01*
X127623499Y-119619880D01*
X127647885Y-119617478D01*
X127671331Y-119610366D01*
X127842480Y-119539474D01*
X127991026Y-119477944D01*
X128386094Y-119399360D01*
X128788906Y-119399360D01*
X129183974Y-119477944D01*
X129332520Y-119539474D01*
X129556123Y-119632093D01*
X129891048Y-119855883D01*
X130175877Y-120140712D01*
X130399667Y-120475637D01*
X130411023Y-120503054D01*
X130553816Y-120847786D01*
X130632400Y-121242854D01*
X130632400Y-121645666D01*
X130553816Y-122040734D01*
X130473584Y-122234431D01*
X130399667Y-122412883D01*
X130175877Y-122747808D01*
X129891048Y-123032637D01*
X129556123Y-123256427D01*
X129440513Y-123304314D01*
X129183974Y-123410576D01*
X128788906Y-123489160D01*
X128386094Y-123489160D01*
X127991026Y-123410576D01*
X127734487Y-123304314D01*
X127618877Y-123256427D01*
X127283952Y-123032637D01*
X126999123Y-122747808D01*
X126775333Y-122412883D01*
X126701416Y-122234431D01*
X126621184Y-122040734D01*
X126542600Y-121645666D01*
X126542600Y-121242854D01*
X126621184Y-120847786D01*
X126763977Y-120503054D01*
X126771090Y-120479605D01*
X126773492Y-120455219D01*
X126771090Y-120430833D01*
X126763977Y-120407384D01*
X126752426Y-120385773D01*
X126736881Y-120366831D01*
X126717939Y-120351286D01*
X126696328Y-120339735D01*
X126672879Y-120332622D01*
X126648493Y-120330220D01*
X124596500Y-120330220D01*
X124596500Y-117678220D01*
X127498500Y-117678220D01*
X127498500Y-119494881D01*
G37*
G36*
X80571026Y-121894714D02*
G01*
X80695222Y-121919417D01*
X80831623Y-121975916D01*
X80954380Y-122057940D01*
X81058776Y-122162336D01*
X81140800Y-122285093D01*
X81197299Y-122421494D01*
X81226101Y-122566296D01*
X81226101Y-122713934D01*
X81197299Y-122858736D01*
X81140800Y-122995137D01*
X81058776Y-123117894D01*
X80954380Y-123222290D01*
X80831623Y-123304314D01*
X80695222Y-123360813D01*
X80571026Y-123385516D01*
X80550421Y-123389615D01*
X80402781Y-123389615D01*
X80382176Y-123385516D01*
X80257980Y-123360813D01*
X80121579Y-123304314D01*
X79998822Y-123222290D01*
X79894426Y-123117894D01*
X79812402Y-122995137D01*
X79755903Y-122858736D01*
X79727101Y-122713934D01*
X79727101Y-122566296D01*
X79755903Y-122421494D01*
X79812402Y-122285093D01*
X79894426Y-122162336D01*
X79998822Y-122057940D01*
X80121579Y-121975916D01*
X80257980Y-121919417D01*
X80382176Y-121894714D01*
X80402781Y-121890615D01*
X80550421Y-121890615D01*
X80571026Y-121894714D01*
G37*
G36*
X73606101Y-123389615D02*
G01*
X72107101Y-123389615D01*
X72107101Y-121890615D01*
X73606101Y-121890615D01*
X73606101Y-123389615D01*
G37*
G36*
X100542380Y-118866976D02*
G01*
X100923093Y-118942704D01*
X101332749Y-119112389D01*
X101701429Y-119358734D01*
X102014966Y-119672271D01*
X102261311Y-120040951D01*
X102430996Y-120450607D01*
X102517500Y-120885496D01*
X102517500Y-121328904D01*
X102430996Y-121763793D01*
X102261311Y-122173449D01*
X102014966Y-122542129D01*
X101701429Y-122855666D01*
X101332749Y-123102011D01*
X100923093Y-123271696D01*
X100542380Y-123347424D01*
X100488205Y-123358200D01*
X100044795Y-123358200D01*
X99990620Y-123347424D01*
X99609907Y-123271696D01*
X99200251Y-123102011D01*
X98831571Y-122855666D01*
X98518034Y-122542129D01*
X98271689Y-122173449D01*
X98102004Y-121763793D01*
X98015500Y-121328904D01*
X98015500Y-120885496D01*
X98102004Y-120450607D01*
X98271689Y-120040951D01*
X98518034Y-119672271D01*
X98831571Y-119358734D01*
X99200251Y-119112389D01*
X99609907Y-118942704D01*
X99990620Y-118866976D01*
X100044795Y-118856200D01*
X100488205Y-118856200D01*
X100542380Y-118866976D01*
G37*
G36*
X106794500Y-123253700D02*
G01*
X105295500Y-123253700D01*
X105295500Y-121754700D01*
X106794500Y-121754700D01*
X106794500Y-123253700D01*
G37*
G36*
X113759425Y-121758799D02*
G01*
X113883621Y-121783502D01*
X114020022Y-121840001D01*
X114142779Y-121922025D01*
X114247175Y-122026421D01*
X114329199Y-122149178D01*
X114385698Y-122285579D01*
X114414500Y-122430381D01*
X114414500Y-122578019D01*
X114385698Y-122722821D01*
X114329199Y-122859222D01*
X114247175Y-122981979D01*
X114142779Y-123086375D01*
X114020022Y-123168399D01*
X113883621Y-123224898D01*
X113759425Y-123249601D01*
X113738820Y-123253700D01*
X113591180Y-123253700D01*
X113570575Y-123249601D01*
X113446379Y-123224898D01*
X113309978Y-123168399D01*
X113187221Y-123086375D01*
X113082825Y-122981979D01*
X113000801Y-122859222D01*
X112944302Y-122722821D01*
X112915500Y-122578019D01*
X112915500Y-122430381D01*
X112944302Y-122285579D01*
X113000801Y-122149178D01*
X113082825Y-122026421D01*
X113187221Y-121922025D01*
X113309978Y-121840001D01*
X113446379Y-121783502D01*
X113570575Y-121758799D01*
X113591180Y-121754700D01*
X113738820Y-121754700D01*
X113759425Y-121758799D01*
G37*
G36*
X75592601Y-123166115D02*
G01*
X74190601Y-123166115D01*
X74190601Y-122114115D01*
X75592601Y-122114115D01*
X75592601Y-123166115D01*
G37*
G36*
X79142601Y-123166115D02*
G01*
X77740601Y-123166115D01*
X77740601Y-122114115D01*
X79142601Y-122114115D01*
X79142601Y-123166115D01*
G37*
G36*
X112331000Y-123030200D02*
G01*
X110929000Y-123030200D01*
X110929000Y-121978200D01*
X112331000Y-121978200D01*
X112331000Y-123030200D01*
G37*
G36*
X108781000Y-123030200D02*
G01*
X107379000Y-123030200D01*
X107379000Y-121978200D01*
X108781000Y-121978200D01*
X108781000Y-123030200D01*
G37*
G36*
X89629425Y-119508229D02*
G01*
X89753621Y-119532932D01*
X89890022Y-119589431D01*
X90012779Y-119671455D01*
X90117175Y-119775851D01*
X90199199Y-119898608D01*
X90255698Y-120035009D01*
X90284500Y-120179811D01*
X90284500Y-120327449D01*
X90255698Y-120472251D01*
X90199199Y-120608652D01*
X90117175Y-120731409D01*
X90012779Y-120835805D01*
X89890022Y-120917829D01*
X89753621Y-120974328D01*
X89629425Y-120999031D01*
X89608820Y-121003130D01*
X89461180Y-121003130D01*
X89440575Y-120999031D01*
X89316379Y-120974328D01*
X89179978Y-120917829D01*
X89057221Y-120835805D01*
X88952825Y-120731409D01*
X88870801Y-120608652D01*
X88814302Y-120472251D01*
X88785500Y-120327449D01*
X88785500Y-120179811D01*
X88814302Y-120035009D01*
X88870801Y-119898608D01*
X88952825Y-119775851D01*
X89057221Y-119671455D01*
X89179978Y-119589431D01*
X89316379Y-119532932D01*
X89440575Y-119508229D01*
X89461180Y-119504130D01*
X89608820Y-119504130D01*
X89629425Y-119508229D01*
G37*
G36*
X82664500Y-121003130D02*
G01*
X81165500Y-121003130D01*
X81165500Y-119504130D01*
X82664500Y-119504130D01*
X82664500Y-121003130D01*
G37*
G36*
X118204425Y-119508229D02*
G01*
X118328621Y-119532932D01*
X118465022Y-119589431D01*
X118587779Y-119671455D01*
X118692175Y-119775851D01*
X118774199Y-119898608D01*
X118830698Y-120035009D01*
X118859500Y-120179811D01*
X118859500Y-120327449D01*
X118830698Y-120472251D01*
X118774199Y-120608652D01*
X118692175Y-120731409D01*
X118587779Y-120835805D01*
X118465022Y-120917829D01*
X118328621Y-120974328D01*
X118204425Y-120999031D01*
X118183820Y-121003130D01*
X118036180Y-121003130D01*
X118015575Y-120999031D01*
X117891379Y-120974328D01*
X117754978Y-120917829D01*
X117632221Y-120835805D01*
X117527825Y-120731409D01*
X117445801Y-120608652D01*
X117389302Y-120472251D01*
X117360500Y-120327449D01*
X117360500Y-120179811D01*
X117389302Y-120035009D01*
X117445801Y-119898608D01*
X117527825Y-119775851D01*
X117632221Y-119671455D01*
X117754978Y-119589431D01*
X117891379Y-119532932D01*
X118015575Y-119508229D01*
X118036180Y-119504130D01*
X118183820Y-119504130D01*
X118204425Y-119508229D01*
G37*
G36*
X111239500Y-121003130D02*
G01*
X109740500Y-121003130D01*
X109740500Y-119504130D01*
X111239500Y-119504130D01*
X111239500Y-121003130D01*
G37*
G36*
X84651000Y-120779630D02*
G01*
X83249000Y-120779630D01*
X83249000Y-119727630D01*
X84651000Y-119727630D01*
X84651000Y-120779630D01*
G37*
G36*
X113226000Y-120779630D02*
G01*
X111824000Y-120779630D01*
X111824000Y-119727630D01*
X113226000Y-119727630D01*
X113226000Y-120779630D01*
G37*
G36*
X116776000Y-120779630D02*
G01*
X115374000Y-120779630D01*
X115374000Y-119727630D01*
X116776000Y-119727630D01*
X116776000Y-120779630D01*
G37*
G36*
X88201000Y-120779630D02*
G01*
X86799000Y-120779630D01*
X86799000Y-119727630D01*
X88201000Y-119727630D01*
X88201000Y-120779630D01*
G37*
G36*
X128857604Y-115473845D02*
G01*
X129026126Y-115543649D01*
X129177791Y-115644988D01*
X129306772Y-115773969D01*
X129408111Y-115925634D01*
X129477915Y-116094156D01*
X129513500Y-116273057D01*
X129513500Y-116455463D01*
X129477915Y-116634364D01*
X129477912Y-116634370D01*
X129477818Y-116634845D01*
X129470991Y-116657355D01*
X129468589Y-116681741D01*
X129470991Y-116706127D01*
X129477818Y-116728635D01*
X129477912Y-116729110D01*
X129477915Y-116729116D01*
X129513500Y-116908017D01*
X129513500Y-117090423D01*
X129477915Y-117269324D01*
X129408111Y-117437846D01*
X129306772Y-117589511D01*
X129177791Y-117718492D01*
X129026126Y-117819831D01*
X128857604Y-117889635D01*
X128678703Y-117925220D01*
X128496297Y-117925220D01*
X128317396Y-117889635D01*
X128148874Y-117819831D01*
X127997209Y-117718492D01*
X127868228Y-117589511D01*
X127766889Y-117437846D01*
X127697085Y-117269324D01*
X127661500Y-117090423D01*
X127661500Y-116908017D01*
X127697085Y-116729116D01*
X127697088Y-116729110D01*
X127697182Y-116728635D01*
X127704009Y-116706125D01*
X127706411Y-116681739D01*
X127704009Y-116657353D01*
X127697182Y-116634845D01*
X127697088Y-116634370D01*
X127697085Y-116634364D01*
X127661500Y-116455463D01*
X127661500Y-116273057D01*
X127697085Y-116094156D01*
X127766889Y-115925634D01*
X127868228Y-115773969D01*
X127997209Y-115644988D01*
X128148874Y-115543649D01*
X128317396Y-115473845D01*
X128496297Y-115438260D01*
X128678703Y-115438260D01*
X128857604Y-115473845D01*
G37*
G36*
X129183974Y-109952904D02*
G01*
X129401974Y-110043203D01*
X129556123Y-110107053D01*
X129891048Y-110330843D01*
X130175877Y-110615672D01*
X130399667Y-110950597D01*
X130432062Y-111028806D01*
X130553816Y-111322746D01*
X130632400Y-111717814D01*
X130632400Y-112120626D01*
X130553816Y-112515694D01*
X130502951Y-112638492D01*
X130432062Y-112809635D01*
X130411023Y-112860426D01*
X130403910Y-112883875D01*
X130401508Y-112908261D01*
X130403910Y-112932647D01*
X130411023Y-112956096D01*
X130422574Y-112977707D01*
X130438119Y-112996649D01*
X130457061Y-113012194D01*
X130478672Y-113023745D01*
X130502121Y-113030858D01*
X130526507Y-113033260D01*
X132578500Y-113033260D01*
X132578500Y-115685260D01*
X129676500Y-115685260D01*
X129676500Y-113868599D01*
X129674098Y-113844213D01*
X129666985Y-113820764D01*
X129655434Y-113799153D01*
X129639889Y-113780211D01*
X129620947Y-113764666D01*
X129599336Y-113753115D01*
X129575887Y-113746002D01*
X129551501Y-113743600D01*
X129527115Y-113746002D01*
X129503669Y-113753114D01*
X129438251Y-113780211D01*
X129183974Y-113885536D01*
X128788906Y-113964120D01*
X128386094Y-113964120D01*
X127991026Y-113885536D01*
X127699220Y-113764666D01*
X127618877Y-113731387D01*
X127283952Y-113507597D01*
X126999123Y-113222768D01*
X126775333Y-112887843D01*
X126672049Y-112638492D01*
X126621184Y-112515694D01*
X126542600Y-112120626D01*
X126542600Y-111717814D01*
X126621184Y-111322746D01*
X126742938Y-111028806D01*
X126775333Y-110950597D01*
X126999123Y-110615672D01*
X127283952Y-110330843D01*
X127618877Y-110107053D01*
X127773026Y-110043203D01*
X127991026Y-109952904D01*
X128386094Y-109874320D01*
X128788906Y-109874320D01*
X129183974Y-109952904D01*
G37*
G36*
X72033974Y-109952904D02*
G01*
X72251974Y-110043203D01*
X72406123Y-110107053D01*
X72741048Y-110330843D01*
X73025877Y-110615672D01*
X73249667Y-110950597D01*
X73282062Y-111028806D01*
X73403816Y-111322746D01*
X73482400Y-111717814D01*
X73482400Y-112120626D01*
X73403816Y-112515694D01*
X73352951Y-112638492D01*
X73249667Y-112887843D01*
X73025877Y-113222768D01*
X72741048Y-113507597D01*
X72406123Y-113731387D01*
X72325780Y-113764666D01*
X72033974Y-113885536D01*
X71638906Y-113964120D01*
X71236094Y-113964120D01*
X70841026Y-113885536D01*
X70549220Y-113764666D01*
X70468877Y-113731387D01*
X70133952Y-113507597D01*
X69849123Y-113222768D01*
X69625333Y-112887843D01*
X69522049Y-112638492D01*
X69471184Y-112515694D01*
X69392600Y-112120626D01*
X69392600Y-111717814D01*
X69471184Y-111322746D01*
X69592938Y-111028806D01*
X69625333Y-110950597D01*
X69849123Y-110615672D01*
X70133952Y-110330843D01*
X70468877Y-110107053D01*
X70623026Y-110043203D01*
X70841026Y-109952904D01*
X71236094Y-109874320D01*
X71638906Y-109874320D01*
X72033974Y-109952904D01*
G37*
G36*
X110133974Y-109952904D02*
G01*
X110351974Y-110043203D01*
X110506123Y-110107053D01*
X110841048Y-110330843D01*
X111125877Y-110615672D01*
X111349667Y-110950597D01*
X111382062Y-111028806D01*
X111503816Y-111322746D01*
X111582400Y-111717814D01*
X111582400Y-112120626D01*
X111503816Y-112515694D01*
X111452951Y-112638492D01*
X111349667Y-112887843D01*
X111125877Y-113222768D01*
X110841048Y-113507597D01*
X110506123Y-113731387D01*
X110425780Y-113764666D01*
X110133974Y-113885536D01*
X109738906Y-113964120D01*
X109336094Y-113964120D01*
X108941026Y-113885536D01*
X108649220Y-113764666D01*
X108568877Y-113731387D01*
X108233952Y-113507597D01*
X107949123Y-113222768D01*
X107725333Y-112887843D01*
X107622049Y-112638492D01*
X107571184Y-112515694D01*
X107492600Y-112120626D01*
X107492600Y-111717814D01*
X107571184Y-111322746D01*
X107692938Y-111028806D01*
X107725333Y-110950597D01*
X107949123Y-110615672D01*
X108233952Y-110330843D01*
X108568877Y-110107053D01*
X108723026Y-110043203D01*
X108941026Y-109952904D01*
X109336094Y-109874320D01*
X109738906Y-109874320D01*
X110133974Y-109952904D01*
G37*
G36*
X91083974Y-109952904D02*
G01*
X91301974Y-110043203D01*
X91456123Y-110107053D01*
X91791048Y-110330843D01*
X92075877Y-110615672D01*
X92299667Y-110950597D01*
X92332062Y-111028806D01*
X92453816Y-111322746D01*
X92532400Y-111717814D01*
X92532400Y-112120626D01*
X92453816Y-112515694D01*
X92402951Y-112638492D01*
X92299667Y-112887843D01*
X92075877Y-113222768D01*
X91791048Y-113507597D01*
X91456123Y-113731387D01*
X91375780Y-113764666D01*
X91083974Y-113885536D01*
X90688906Y-113964120D01*
X90286094Y-113964120D01*
X89891026Y-113885536D01*
X89599220Y-113764666D01*
X89518877Y-113731387D01*
X89183952Y-113507597D01*
X88899123Y-113222768D01*
X88675333Y-112887843D01*
X88572049Y-112638492D01*
X88521184Y-112515694D01*
X88442600Y-112120626D01*
X88442600Y-111717814D01*
X88521184Y-111322746D01*
X88642938Y-111028806D01*
X88675333Y-110950597D01*
X88899123Y-110615672D01*
X89183952Y-110330843D01*
X89518877Y-110107053D01*
X89673026Y-110043203D01*
X89891026Y-109952904D01*
X90286094Y-109874320D01*
X90688906Y-109874320D01*
X91083974Y-109952904D01*
G37*
G36*
X76787604Y-111028805D02*
G01*
X76956126Y-111098609D01*
X77107791Y-111199948D01*
X77236772Y-111328929D01*
X77338111Y-111480594D01*
X77407915Y-111649116D01*
X77443500Y-111828017D01*
X77443500Y-112010423D01*
X77407915Y-112189324D01*
X77338111Y-112357846D01*
X77236772Y-112509511D01*
X77107791Y-112638492D01*
X76956126Y-112739831D01*
X76787604Y-112809635D01*
X76608703Y-112845220D01*
X76426297Y-112845220D01*
X76247396Y-112809635D01*
X76078874Y-112739831D01*
X75927209Y-112638492D01*
X75798228Y-112509511D01*
X75696889Y-112357846D01*
X75627085Y-112189324D01*
X75591500Y-112010423D01*
X75591500Y-111828017D01*
X75627085Y-111649116D01*
X75696889Y-111480594D01*
X75798228Y-111328929D01*
X75927209Y-111199948D01*
X76078874Y-111098609D01*
X76247396Y-111028805D01*
X76426297Y-110993220D01*
X76608703Y-110993220D01*
X76787604Y-111028805D01*
G37*
G36*
X66627604Y-111028805D02*
G01*
X66796126Y-111098609D01*
X66947791Y-111199948D01*
X67076772Y-111328929D01*
X67178111Y-111480594D01*
X67247915Y-111649116D01*
X67283500Y-111828017D01*
X67283500Y-112010423D01*
X67247915Y-112189324D01*
X67178111Y-112357846D01*
X67076772Y-112509511D01*
X66947791Y-112638492D01*
X66796126Y-112739831D01*
X66627604Y-112809635D01*
X66448703Y-112845220D01*
X66266297Y-112845220D01*
X66087396Y-112809635D01*
X65918874Y-112739831D01*
X65767209Y-112638492D01*
X65638228Y-112509511D01*
X65536889Y-112357846D01*
X65467085Y-112189324D01*
X65431500Y-112010423D01*
X65431500Y-111828017D01*
X65467085Y-111649116D01*
X65536889Y-111480594D01*
X65638228Y-111328929D01*
X65767209Y-111199948D01*
X65918874Y-111098609D01*
X66087396Y-111028805D01*
X66266297Y-110993220D01*
X66448703Y-110993220D01*
X66627604Y-111028805D01*
G37*
G36*
X104727604Y-111028805D02*
G01*
X104896126Y-111098609D01*
X105047791Y-111199948D01*
X105176772Y-111328929D01*
X105278111Y-111480594D01*
X105347915Y-111649116D01*
X105383500Y-111828017D01*
X105383500Y-112010423D01*
X105347915Y-112189324D01*
X105278111Y-112357846D01*
X105176772Y-112509511D01*
X105047791Y-112638492D01*
X104896126Y-112739831D01*
X104727604Y-112809635D01*
X104548703Y-112845220D01*
X104366297Y-112845220D01*
X104187396Y-112809635D01*
X104018874Y-112739831D01*
X103867209Y-112638492D01*
X103738228Y-112509511D01*
X103636889Y-112357846D01*
X103567085Y-112189324D01*
X103531500Y-112010423D01*
X103531500Y-111828017D01*
X103567085Y-111649116D01*
X103636889Y-111480594D01*
X103738228Y-111328929D01*
X103867209Y-111199948D01*
X104018874Y-111098609D01*
X104187396Y-111028805D01*
X104366297Y-110993220D01*
X104548703Y-110993220D01*
X104727604Y-111028805D01*
G37*
G36*
X85677604Y-111028805D02*
G01*
X85846126Y-111098609D01*
X85997791Y-111199948D01*
X86126772Y-111328929D01*
X86228111Y-111480594D01*
X86297915Y-111649116D01*
X86333500Y-111828017D01*
X86333500Y-112010423D01*
X86297915Y-112189324D01*
X86228111Y-112357846D01*
X86126772Y-112509511D01*
X85997791Y-112638492D01*
X85846126Y-112739831D01*
X85677604Y-112809635D01*
X85498703Y-112845220D01*
X85316297Y-112845220D01*
X85137396Y-112809635D01*
X84968874Y-112739831D01*
X84817209Y-112638492D01*
X84688228Y-112509511D01*
X84586889Y-112357846D01*
X84517085Y-112189324D01*
X84481500Y-112010423D01*
X84481500Y-111828017D01*
X84517085Y-111649116D01*
X84586889Y-111480594D01*
X84688228Y-111328929D01*
X84817209Y-111199948D01*
X84968874Y-111098609D01*
X85137396Y-111028805D01*
X85316297Y-110993220D01*
X85498703Y-110993220D01*
X85677604Y-111028805D01*
G37*
G36*
X95837604Y-111028805D02*
G01*
X96006126Y-111098609D01*
X96157791Y-111199948D01*
X96286772Y-111328929D01*
X96388111Y-111480594D01*
X96457915Y-111649116D01*
X96493500Y-111828017D01*
X96493500Y-112010423D01*
X96457915Y-112189324D01*
X96388111Y-112357846D01*
X96286772Y-112509511D01*
X96157791Y-112638492D01*
X96006126Y-112739831D01*
X95837604Y-112809635D01*
X95658703Y-112845220D01*
X95476297Y-112845220D01*
X95297396Y-112809635D01*
X95128874Y-112739831D01*
X94977209Y-112638492D01*
X94848228Y-112509511D01*
X94746889Y-112357846D01*
X94677085Y-112189324D01*
X94641500Y-112010423D01*
X94641500Y-111828017D01*
X94677085Y-111649116D01*
X94746889Y-111480594D01*
X94848228Y-111328929D01*
X94977209Y-111199948D01*
X95128874Y-111098609D01*
X95297396Y-111028805D01*
X95476297Y-110993220D01*
X95658703Y-110993220D01*
X95837604Y-111028805D01*
G37*
G36*
X114887604Y-111028805D02*
G01*
X115056126Y-111098609D01*
X115207791Y-111199948D01*
X115336772Y-111328929D01*
X115438111Y-111480594D01*
X115507915Y-111649116D01*
X115543500Y-111828017D01*
X115543500Y-112010423D01*
X115507915Y-112189324D01*
X115438111Y-112357846D01*
X115336772Y-112509511D01*
X115207791Y-112638492D01*
X115056126Y-112739831D01*
X114887604Y-112809635D01*
X114708703Y-112845220D01*
X114526297Y-112845220D01*
X114347396Y-112809635D01*
X114178874Y-112739831D01*
X114027209Y-112638492D01*
X113898228Y-112509511D01*
X113796889Y-112357846D01*
X113727085Y-112189324D01*
X113691500Y-112010423D01*
X113691500Y-111828017D01*
X113727085Y-111649116D01*
X113796889Y-111480594D01*
X113898228Y-111328929D01*
X114027209Y-111199948D01*
X114178874Y-111098609D01*
X114347396Y-111028805D01*
X114526297Y-110993220D01*
X114708703Y-110993220D01*
X114887604Y-111028805D01*
G37*
G36*
X120928974Y-107539944D02*
G01*
X121146974Y-107630243D01*
X121301123Y-107694093D01*
X121636048Y-107917883D01*
X121920877Y-108202712D01*
X122144667Y-108537637D01*
X122144667Y-108537638D01*
X122298816Y-108909786D01*
X122377400Y-109304854D01*
X122377400Y-109707666D01*
X122298816Y-110102734D01*
X122236863Y-110252301D01*
X122144667Y-110474883D01*
X121920877Y-110809808D01*
X121636048Y-111094637D01*
X121301123Y-111318427D01*
X121275766Y-111328930D01*
X120928974Y-111472576D01*
X120533906Y-111551160D01*
X120131094Y-111551160D01*
X119736026Y-111472576D01*
X119389234Y-111328930D01*
X119363877Y-111318427D01*
X119028952Y-111094637D01*
X118744123Y-110809808D01*
X118520333Y-110474883D01*
X118428137Y-110252301D01*
X118366184Y-110102734D01*
X118287600Y-109707666D01*
X118287600Y-109304854D01*
X118366184Y-108909786D01*
X118520333Y-108537638D01*
X118520333Y-108537637D01*
X118744123Y-108202712D01*
X119028952Y-107917883D01*
X119363877Y-107694093D01*
X119518026Y-107630243D01*
X119736026Y-107539944D01*
X120131094Y-107461360D01*
X120533906Y-107461360D01*
X120928974Y-107539944D01*
G37*
G36*
X136031911Y-107991786D02*
G01*
X136150637Y-108040964D01*
X136318541Y-108110512D01*
X136318542Y-108110513D01*
X136576504Y-108282877D01*
X136795883Y-108502256D01*
X136819524Y-108537638D01*
X136968248Y-108760219D01*
X137086974Y-109046850D01*
X137147500Y-109351135D01*
X137147500Y-109661385D01*
X137086974Y-109965670D01*
X136968248Y-110252301D01*
X136968247Y-110252302D01*
X136795883Y-110510264D01*
X136576504Y-110729643D01*
X136456528Y-110809808D01*
X136318541Y-110902008D01*
X136150637Y-110971556D01*
X136031911Y-111020734D01*
X135879767Y-111050997D01*
X135727625Y-111081260D01*
X135417375Y-111081260D01*
X135265233Y-111050997D01*
X135113089Y-111020734D01*
X134994363Y-110971556D01*
X134826459Y-110902008D01*
X134688472Y-110809808D01*
X134568496Y-110729643D01*
X134349117Y-110510264D01*
X134176753Y-110252302D01*
X134176752Y-110252301D01*
X134058026Y-109965670D01*
X133997500Y-109661385D01*
X133997500Y-109351135D01*
X134058026Y-109046850D01*
X134176752Y-108760219D01*
X134325476Y-108537638D01*
X134349117Y-108502256D01*
X134568496Y-108282877D01*
X134826458Y-108110513D01*
X134826459Y-108110512D01*
X134994363Y-108040964D01*
X135113089Y-107991786D01*
X135417375Y-107931260D01*
X135727625Y-107931260D01*
X136031911Y-107991786D01*
G37*
G36*
X84728500Y-110830220D02*
G01*
X82076500Y-110830220D01*
X82076500Y-107928220D01*
X84728500Y-107928220D01*
X84728500Y-110830220D01*
G37*
G36*
X65678500Y-110830220D02*
G01*
X63026500Y-110830220D01*
X63026500Y-107928220D01*
X65678500Y-107928220D01*
X65678500Y-110830220D01*
G37*
G36*
X103778500Y-110830220D02*
G01*
X101126500Y-110830220D01*
X101126500Y-107928220D01*
X103778500Y-107928220D01*
X103778500Y-110830220D01*
G37*
G36*
X116678500Y-108290220D02*
G01*
X114026500Y-108290220D01*
X114026500Y-105388220D01*
X116678500Y-105388220D01*
X116678500Y-108290220D01*
G37*
G36*
X97628500Y-108290220D02*
G01*
X94976500Y-108290220D01*
X94976500Y-105388220D01*
X97628500Y-105388220D01*
X97628500Y-108290220D01*
G37*
G36*
X78578500Y-108290220D02*
G01*
X75926500Y-108290220D01*
X75926500Y-105388220D01*
X78578500Y-105388220D01*
X78578500Y-108290220D01*
G37*
G36*
X128857604Y-105948805D02*
G01*
X129026126Y-106018609D01*
X129177791Y-106119948D01*
X129306772Y-106248929D01*
X129408111Y-106400594D01*
X129477915Y-106569116D01*
X129513500Y-106748017D01*
X129513500Y-106930423D01*
X129477915Y-107109324D01*
X129408111Y-107277846D01*
X129306772Y-107429511D01*
X129177791Y-107558492D01*
X129026126Y-107659831D01*
X128857604Y-107729635D01*
X128678703Y-107765220D01*
X128496297Y-107765220D01*
X128317396Y-107729635D01*
X128148874Y-107659831D01*
X127997209Y-107558492D01*
X127868228Y-107429511D01*
X127766889Y-107277846D01*
X127697085Y-107109324D01*
X127661500Y-106930423D01*
X127661500Y-106748017D01*
X127697085Y-106569116D01*
X127766889Y-106400594D01*
X127868228Y-106248929D01*
X127997209Y-106119948D01*
X128148874Y-106018609D01*
X128317396Y-105948805D01*
X128496297Y-105913220D01*
X128678703Y-105913220D01*
X128857604Y-105948805D01*
G37*
G36*
X124958500Y-107430220D02*
G01*
X122056500Y-107430220D01*
X122056500Y-104778220D01*
X124958500Y-104778220D01*
X124958500Y-107430220D01*
G37*
G36*
X115918425Y-102886599D02*
G01*
X116042621Y-102911302D01*
X116179022Y-102967801D01*
X116301779Y-103049825D01*
X116406175Y-103154221D01*
X116488199Y-103276978D01*
X116544698Y-103413379D01*
X116573500Y-103558181D01*
X116573500Y-103705819D01*
X116544698Y-103850621D01*
X116488199Y-103987022D01*
X116406175Y-104109779D01*
X116301779Y-104214175D01*
X116179022Y-104296199D01*
X116042621Y-104352698D01*
X115918425Y-104377401D01*
X115897820Y-104381500D01*
X115750180Y-104381500D01*
X115729575Y-104377401D01*
X115605379Y-104352698D01*
X115468978Y-104296199D01*
X115346221Y-104214175D01*
X115241825Y-104109779D01*
X115159801Y-103987022D01*
X115103302Y-103850621D01*
X115074500Y-103705819D01*
X115074500Y-103558181D01*
X115103302Y-103413379D01*
X115159801Y-103276978D01*
X115241825Y-103154221D01*
X115346221Y-103049825D01*
X115468978Y-102967801D01*
X115605379Y-102911302D01*
X115729575Y-102886599D01*
X115750180Y-102882500D01*
X115897820Y-102882500D01*
X115918425Y-102886599D01*
G37*
G36*
X108953500Y-104381500D02*
G01*
X107454500Y-104381500D01*
X107454500Y-102882500D01*
X108953500Y-102882500D01*
X108953500Y-104381500D01*
G37*
G36*
X96773175Y-102839409D02*
G01*
X96897371Y-102864112D01*
X97033772Y-102920611D01*
X97156529Y-103002635D01*
X97260925Y-103107031D01*
X97342949Y-103229788D01*
X97399448Y-103366189D01*
X97428250Y-103510991D01*
X97428250Y-103658629D01*
X97399448Y-103803431D01*
X97342949Y-103939832D01*
X97260925Y-104062589D01*
X97156529Y-104166985D01*
X97033772Y-104249009D01*
X96897371Y-104305508D01*
X96773175Y-104330211D01*
X96752570Y-104334310D01*
X96604930Y-104334310D01*
X96584325Y-104330211D01*
X96460129Y-104305508D01*
X96323728Y-104249009D01*
X96200971Y-104166985D01*
X96096575Y-104062589D01*
X96014551Y-103939832D01*
X95958052Y-103803431D01*
X95929250Y-103658629D01*
X95929250Y-103510991D01*
X95958052Y-103366189D01*
X96014551Y-103229788D01*
X96096575Y-103107031D01*
X96200971Y-103002635D01*
X96323728Y-102920611D01*
X96460129Y-102864112D01*
X96584325Y-102839409D01*
X96604930Y-102835310D01*
X96752570Y-102835310D01*
X96773175Y-102839409D01*
G37*
G36*
X89808250Y-104334310D02*
G01*
X88309250Y-104334310D01*
X88309250Y-102835310D01*
X89808250Y-102835310D01*
X89808250Y-104334310D01*
G37*
G36*
X77723175Y-102839409D02*
G01*
X77847371Y-102864112D01*
X77983772Y-102920611D01*
X78106529Y-103002635D01*
X78210925Y-103107031D01*
X78292949Y-103229788D01*
X78349448Y-103366189D01*
X78378250Y-103510991D01*
X78378250Y-103658629D01*
X78349448Y-103803431D01*
X78292949Y-103939832D01*
X78210925Y-104062589D01*
X78106529Y-104166985D01*
X77983772Y-104249009D01*
X77847371Y-104305508D01*
X77723175Y-104330211D01*
X77702570Y-104334310D01*
X77554930Y-104334310D01*
X77534325Y-104330211D01*
X77410129Y-104305508D01*
X77273728Y-104249009D01*
X77150971Y-104166985D01*
X77046575Y-104062589D01*
X76964551Y-103939832D01*
X76908052Y-103803431D01*
X76879250Y-103658629D01*
X76879250Y-103510991D01*
X76908052Y-103366189D01*
X76964551Y-103229788D01*
X77046575Y-103107031D01*
X77150971Y-103002635D01*
X77273728Y-102920611D01*
X77410129Y-102864112D01*
X77534325Y-102839409D01*
X77554930Y-102835310D01*
X77702570Y-102835310D01*
X77723175Y-102839409D01*
G37*
G36*
X70758250Y-104334310D02*
G01*
X69259250Y-104334310D01*
X69259250Y-102835310D01*
X70758250Y-102835310D01*
X70758250Y-104334310D01*
G37*
G36*
X114490000Y-104158000D02*
G01*
X113088000Y-104158000D01*
X113088000Y-103106000D01*
X114490000Y-103106000D01*
X114490000Y-104158000D01*
G37*
G36*
X110940000Y-104158000D02*
G01*
X109538000Y-104158000D01*
X109538000Y-103106000D01*
X110940000Y-103106000D01*
X110940000Y-104158000D01*
G37*
G36*
X91794750Y-104110810D02*
G01*
X90392750Y-104110810D01*
X90392750Y-103058810D01*
X91794750Y-103058810D01*
X91794750Y-104110810D01*
G37*
G36*
X72744750Y-104110810D02*
G01*
X71342750Y-104110810D01*
X71342750Y-103058810D01*
X72744750Y-103058810D01*
X72744750Y-104110810D01*
G37*
G36*
X76294750Y-104110810D02*
G01*
X74892750Y-104110810D01*
X74892750Y-103058810D01*
X76294750Y-103058810D01*
X76294750Y-104110810D01*
G37*
G36*
X95344750Y-104110810D02*
G01*
X93942750Y-104110810D01*
X93942750Y-103058810D01*
X95344750Y-103058810D01*
X95344750Y-104110810D01*
G37*
G36*
X134873175Y-100458149D02*
G01*
X134997371Y-100482852D01*
X135133772Y-100539351D01*
X135256529Y-100621375D01*
X135360925Y-100725771D01*
X135442949Y-100848528D01*
X135499448Y-100984929D01*
X135528250Y-101129731D01*
X135528250Y-101277369D01*
X135499448Y-101422171D01*
X135442949Y-101558572D01*
X135360925Y-101681329D01*
X135256529Y-101785725D01*
X135133772Y-101867749D01*
X134997371Y-101924248D01*
X134873175Y-101948951D01*
X134852570Y-101953050D01*
X134704930Y-101953050D01*
X134684325Y-101948951D01*
X134560129Y-101924248D01*
X134423728Y-101867749D01*
X134300971Y-101785725D01*
X134196575Y-101681329D01*
X134114551Y-101558572D01*
X134058052Y-101422171D01*
X134029250Y-101277369D01*
X134029250Y-101129731D01*
X134058052Y-100984929D01*
X134114551Y-100848528D01*
X134196575Y-100725771D01*
X134300971Y-100621375D01*
X134423728Y-100539351D01*
X134560129Y-100482852D01*
X134684325Y-100458149D01*
X134704930Y-100454050D01*
X134852570Y-100454050D01*
X134873175Y-100458149D01*
G37*
G36*
X127908250Y-101953050D02*
G01*
X126409250Y-101953050D01*
X126409250Y-100454050D01*
X127908250Y-100454050D01*
X127908250Y-101953050D01*
G37*
G36*
X129894750Y-101729550D02*
G01*
X128492750Y-101729550D01*
X128492750Y-100677550D01*
X129894750Y-100677550D01*
X129894750Y-101729550D01*
G37*
G36*
X133444750Y-101729550D02*
G01*
X132042750Y-101729550D01*
X132042750Y-100677550D01*
X133444750Y-100677550D01*
X133444750Y-101729550D01*
G37*
G36*
X91083974Y-90902824D02*
G01*
X91301974Y-90993123D01*
X91456123Y-91056973D01*
X91791048Y-91280763D01*
X92075877Y-91565592D01*
X92299667Y-91900517D01*
X92332062Y-91978726D01*
X92453816Y-92272666D01*
X92532400Y-92667734D01*
X92532400Y-93070546D01*
X92453816Y-93465614D01*
X92402951Y-93588412D01*
X92299667Y-93837763D01*
X92075877Y-94172688D01*
X91791048Y-94457517D01*
X91456123Y-94681307D01*
X91301974Y-94745157D01*
X91083974Y-94835456D01*
X90688906Y-94914040D01*
X90286094Y-94914040D01*
X89891026Y-94835456D01*
X89673026Y-94745157D01*
X89518877Y-94681307D01*
X89183952Y-94457517D01*
X88899123Y-94172688D01*
X88675333Y-93837763D01*
X88572049Y-93588412D01*
X88521184Y-93465614D01*
X88442600Y-93070546D01*
X88442600Y-92667734D01*
X88521184Y-92272666D01*
X88642938Y-91978726D01*
X88675333Y-91900517D01*
X88899123Y-91565592D01*
X89183952Y-91280763D01*
X89518877Y-91056973D01*
X89673026Y-90993123D01*
X89891026Y-90902824D01*
X90286094Y-90824240D01*
X90688906Y-90824240D01*
X91083974Y-90902824D01*
G37*
G36*
X110133974Y-90902824D02*
G01*
X110351974Y-90993123D01*
X110506123Y-91056973D01*
X110841048Y-91280763D01*
X111125877Y-91565592D01*
X111349667Y-91900517D01*
X111382062Y-91978726D01*
X111503816Y-92272666D01*
X111582400Y-92667734D01*
X111582400Y-93070546D01*
X111503816Y-93465614D01*
X111452951Y-93588412D01*
X111349667Y-93837763D01*
X111125877Y-94172688D01*
X110841048Y-94457517D01*
X110506123Y-94681307D01*
X110351974Y-94745157D01*
X110133974Y-94835456D01*
X109738906Y-94914040D01*
X109336094Y-94914040D01*
X108941026Y-94835456D01*
X108723026Y-94745157D01*
X108568877Y-94681307D01*
X108233952Y-94457517D01*
X107949123Y-94172688D01*
X107725333Y-93837763D01*
X107622049Y-93588412D01*
X107571184Y-93465614D01*
X107492600Y-93070546D01*
X107492600Y-92667734D01*
X107571184Y-92272666D01*
X107692938Y-91978726D01*
X107725333Y-91900517D01*
X107949123Y-91565592D01*
X108233952Y-91280763D01*
X108568877Y-91056973D01*
X108723026Y-90993123D01*
X108941026Y-90902824D01*
X109336094Y-90824240D01*
X109738906Y-90824240D01*
X110133974Y-90902824D01*
G37*
G36*
X129183974Y-90902824D02*
G01*
X129401974Y-90993123D01*
X129556123Y-91056973D01*
X129891048Y-91280763D01*
X130175877Y-91565592D01*
X130399667Y-91900517D01*
X130432062Y-91978726D01*
X130553816Y-92272666D01*
X130632400Y-92667734D01*
X130632400Y-93070546D01*
X130553816Y-93465614D01*
X130502951Y-93588412D01*
X130399667Y-93837763D01*
X130175877Y-94172688D01*
X129891048Y-94457517D01*
X129556123Y-94681307D01*
X129401974Y-94745157D01*
X129183974Y-94835456D01*
X128788906Y-94914040D01*
X128386094Y-94914040D01*
X127991026Y-94835456D01*
X127773026Y-94745157D01*
X127618877Y-94681307D01*
X127283952Y-94457517D01*
X126999123Y-94172688D01*
X126775333Y-93837763D01*
X126672049Y-93588412D01*
X126621184Y-93465614D01*
X126542600Y-93070546D01*
X126542600Y-92667734D01*
X126621184Y-92272666D01*
X126742938Y-91978726D01*
X126775333Y-91900517D01*
X126999123Y-91565592D01*
X127283952Y-91280763D01*
X127618877Y-91056973D01*
X127773026Y-90993123D01*
X127991026Y-90902824D01*
X128386094Y-90824240D01*
X128788906Y-90824240D01*
X129183974Y-90902824D01*
G37*
G36*
X72033974Y-90902824D02*
G01*
X72251974Y-90993123D01*
X72406123Y-91056973D01*
X72741048Y-91280763D01*
X73025877Y-91565592D01*
X73249667Y-91900517D01*
X73282062Y-91978726D01*
X73403816Y-92272666D01*
X73482400Y-92667734D01*
X73482400Y-93070546D01*
X73403816Y-93465614D01*
X73352951Y-93588412D01*
X73249667Y-93837763D01*
X73025877Y-94172688D01*
X72741048Y-94457517D01*
X72406123Y-94681307D01*
X72251974Y-94745157D01*
X72033974Y-94835456D01*
X71638906Y-94914040D01*
X71236094Y-94914040D01*
X70841026Y-94835456D01*
X70623026Y-94745157D01*
X70468877Y-94681307D01*
X70133952Y-94457517D01*
X69849123Y-94172688D01*
X69625333Y-93837763D01*
X69522049Y-93588412D01*
X69471184Y-93465614D01*
X69392600Y-93070546D01*
X69392600Y-92667734D01*
X69471184Y-92272666D01*
X69592938Y-91978726D01*
X69625333Y-91900517D01*
X69849123Y-91565592D01*
X70133952Y-91280763D01*
X70468877Y-91056973D01*
X70623026Y-90993123D01*
X70841026Y-90902824D01*
X71236094Y-90824240D01*
X71638906Y-90824240D01*
X72033974Y-90902824D01*
G37*
G36*
X85677604Y-91978725D02*
G01*
X85846126Y-92048529D01*
X85997791Y-92149868D01*
X86126772Y-92278849D01*
X86228111Y-92430514D01*
X86297915Y-92599036D01*
X86333500Y-92777937D01*
X86333500Y-92960343D01*
X86297915Y-93139244D01*
X86228111Y-93307766D01*
X86126772Y-93459431D01*
X85997791Y-93588412D01*
X85846126Y-93689751D01*
X85677604Y-93759555D01*
X85498703Y-93795140D01*
X85316297Y-93795140D01*
X85137396Y-93759555D01*
X84968874Y-93689751D01*
X84817209Y-93588412D01*
X84688228Y-93459431D01*
X84586889Y-93307766D01*
X84517085Y-93139244D01*
X84481500Y-92960343D01*
X84481500Y-92777937D01*
X84517085Y-92599036D01*
X84586889Y-92430514D01*
X84688228Y-92278849D01*
X84817209Y-92149868D01*
X84968874Y-92048529D01*
X85137396Y-91978725D01*
X85316297Y-91943140D01*
X85498703Y-91943140D01*
X85677604Y-91978725D01*
G37*
G36*
X66627604Y-91978725D02*
G01*
X66796126Y-92048529D01*
X66947791Y-92149868D01*
X67076772Y-92278849D01*
X67178111Y-92430514D01*
X67247915Y-92599036D01*
X67283500Y-92777937D01*
X67283500Y-92960343D01*
X67247915Y-93139244D01*
X67178111Y-93307766D01*
X67076772Y-93459431D01*
X66947791Y-93588412D01*
X66796126Y-93689751D01*
X66627604Y-93759555D01*
X66448703Y-93795140D01*
X66266297Y-93795140D01*
X66087396Y-93759555D01*
X65918874Y-93689751D01*
X65767209Y-93588412D01*
X65638228Y-93459431D01*
X65536889Y-93307766D01*
X65467085Y-93139244D01*
X65431500Y-92960343D01*
X65431500Y-92777937D01*
X65467085Y-92599036D01*
X65536889Y-92430514D01*
X65638228Y-92278849D01*
X65767209Y-92149868D01*
X65918874Y-92048529D01*
X66087396Y-91978725D01*
X66266297Y-91943140D01*
X66448703Y-91943140D01*
X66627604Y-91978725D01*
G37*
G36*
X95837604Y-91978725D02*
G01*
X96006126Y-92048529D01*
X96157791Y-92149868D01*
X96286772Y-92278849D01*
X96388111Y-92430514D01*
X96457915Y-92599036D01*
X96493500Y-92777937D01*
X96493500Y-92960343D01*
X96457915Y-93139244D01*
X96388111Y-93307766D01*
X96286772Y-93459431D01*
X96157791Y-93588412D01*
X96006126Y-93689751D01*
X95837604Y-93759555D01*
X95658703Y-93795140D01*
X95476297Y-93795140D01*
X95297396Y-93759555D01*
X95128874Y-93689751D01*
X94977209Y-93588412D01*
X94848228Y-93459431D01*
X94746889Y-93307766D01*
X94677085Y-93139244D01*
X94641500Y-92960343D01*
X94641500Y-92777937D01*
X94677085Y-92599036D01*
X94746889Y-92430514D01*
X94848228Y-92278849D01*
X94977209Y-92149868D01*
X95128874Y-92048529D01*
X95297396Y-91978725D01*
X95476297Y-91943140D01*
X95658703Y-91943140D01*
X95837604Y-91978725D01*
G37*
G36*
X76787604Y-91978725D02*
G01*
X76956126Y-92048529D01*
X77107791Y-92149868D01*
X77236772Y-92278849D01*
X77338111Y-92430514D01*
X77407915Y-92599036D01*
X77443500Y-92777937D01*
X77443500Y-92960343D01*
X77407915Y-93139244D01*
X77338111Y-93307766D01*
X77236772Y-93459431D01*
X77107791Y-93588412D01*
X76956126Y-93689751D01*
X76787604Y-93759555D01*
X76608703Y-93795140D01*
X76426297Y-93795140D01*
X76247396Y-93759555D01*
X76078874Y-93689751D01*
X75927209Y-93588412D01*
X75798228Y-93459431D01*
X75696889Y-93307766D01*
X75627085Y-93139244D01*
X75591500Y-92960343D01*
X75591500Y-92777937D01*
X75627085Y-92599036D01*
X75696889Y-92430514D01*
X75798228Y-92278849D01*
X75927209Y-92149868D01*
X76078874Y-92048529D01*
X76247396Y-91978725D01*
X76426297Y-91943140D01*
X76608703Y-91943140D01*
X76787604Y-91978725D01*
G37*
G36*
X133937604Y-91978725D02*
G01*
X134106126Y-92048529D01*
X134257791Y-92149868D01*
X134386772Y-92278849D01*
X134488111Y-92430514D01*
X134557915Y-92599036D01*
X134593500Y-92777937D01*
X134593500Y-92960343D01*
X134557915Y-93139244D01*
X134488111Y-93307766D01*
X134386772Y-93459431D01*
X134257791Y-93588412D01*
X134106126Y-93689751D01*
X133937604Y-93759555D01*
X133758703Y-93795140D01*
X133576297Y-93795140D01*
X133397396Y-93759555D01*
X133228874Y-93689751D01*
X133077209Y-93588412D01*
X132948228Y-93459431D01*
X132846889Y-93307766D01*
X132777085Y-93139244D01*
X132741500Y-92960343D01*
X132741500Y-92777937D01*
X132777085Y-92599036D01*
X132846889Y-92430514D01*
X132948228Y-92278849D01*
X133077209Y-92149868D01*
X133228874Y-92048529D01*
X133397396Y-91978725D01*
X133576297Y-91943140D01*
X133758703Y-91943140D01*
X133937604Y-91978725D01*
G37*
G36*
X104727604Y-91978725D02*
G01*
X104896126Y-92048529D01*
X105047791Y-92149868D01*
X105176772Y-92278849D01*
X105278111Y-92430514D01*
X105347915Y-92599036D01*
X105383500Y-92777937D01*
X105383500Y-92960343D01*
X105347915Y-93139244D01*
X105278111Y-93307766D01*
X105176772Y-93459431D01*
X105047791Y-93588412D01*
X104896126Y-93689751D01*
X104727604Y-93759555D01*
X104548703Y-93795140D01*
X104366297Y-93795140D01*
X104187396Y-93759555D01*
X104018874Y-93689751D01*
X103867209Y-93588412D01*
X103738228Y-93459431D01*
X103636889Y-93307766D01*
X103567085Y-93139244D01*
X103531500Y-92960343D01*
X103531500Y-92777937D01*
X103567085Y-92599036D01*
X103636889Y-92430514D01*
X103738228Y-92278849D01*
X103867209Y-92149868D01*
X104018874Y-92048529D01*
X104187396Y-91978725D01*
X104366297Y-91943140D01*
X104548703Y-91943140D01*
X104727604Y-91978725D01*
G37*
G36*
X114887604Y-91978725D02*
G01*
X115056126Y-92048529D01*
X115207791Y-92149868D01*
X115336772Y-92278849D01*
X115438111Y-92430514D01*
X115507915Y-92599036D01*
X115543500Y-92777937D01*
X115543500Y-92960343D01*
X115507915Y-93139244D01*
X115438111Y-93307766D01*
X115336772Y-93459431D01*
X115207791Y-93588412D01*
X115056126Y-93689751D01*
X114887604Y-93759555D01*
X114708703Y-93795140D01*
X114526297Y-93795140D01*
X114347396Y-93759555D01*
X114178874Y-93689751D01*
X114027209Y-93588412D01*
X113898228Y-93459431D01*
X113796889Y-93307766D01*
X113727085Y-93139244D01*
X113691500Y-92960343D01*
X113691500Y-92777937D01*
X113727085Y-92599036D01*
X113796889Y-92430514D01*
X113898228Y-92278849D01*
X114027209Y-92149868D01*
X114178874Y-92048529D01*
X114347396Y-91978725D01*
X114526297Y-91943140D01*
X114708703Y-91943140D01*
X114887604Y-91978725D01*
G37*
G36*
X123777604Y-91978725D02*
G01*
X123946126Y-92048529D01*
X124097791Y-92149868D01*
X124226772Y-92278849D01*
X124328111Y-92430514D01*
X124397915Y-92599036D01*
X124433500Y-92777937D01*
X124433500Y-92960343D01*
X124397915Y-93139244D01*
X124328111Y-93307766D01*
X124226772Y-93459431D01*
X124097791Y-93588412D01*
X123946126Y-93689751D01*
X123777604Y-93759555D01*
X123598703Y-93795140D01*
X123416297Y-93795140D01*
X123237396Y-93759555D01*
X123068874Y-93689751D01*
X122917209Y-93588412D01*
X122788228Y-93459431D01*
X122686889Y-93307766D01*
X122617085Y-93139244D01*
X122581500Y-92960343D01*
X122581500Y-92777937D01*
X122617085Y-92599036D01*
X122686889Y-92430514D01*
X122788228Y-92278849D01*
X122917209Y-92149868D01*
X123068874Y-92048529D01*
X123237396Y-91978725D01*
X123416297Y-91943140D01*
X123598703Y-91943140D01*
X123777604Y-91978725D01*
G37*
G36*
X103778500Y-91780140D02*
G01*
X101126500Y-91780140D01*
X101126500Y-88878140D01*
X103778500Y-88878140D01*
X103778500Y-91780140D01*
G37*
G36*
X84728500Y-91780140D02*
G01*
X82076500Y-91780140D01*
X82076500Y-88878140D01*
X84728500Y-88878140D01*
X84728500Y-91780140D01*
G37*
G36*
X65678500Y-91780140D02*
G01*
X63026500Y-91780140D01*
X63026500Y-88878140D01*
X65678500Y-88878140D01*
X65678500Y-91780140D01*
G37*
G36*
X122828500Y-91780140D02*
G01*
X120176500Y-91780140D01*
X120176500Y-88878140D01*
X122828500Y-88878140D01*
X122828500Y-91780140D01*
G37*
G36*
X116678500Y-89240140D02*
G01*
X114026500Y-89240140D01*
X114026500Y-86338140D01*
X116678500Y-86338140D01*
X116678500Y-89240140D01*
G37*
G36*
X78578500Y-89240140D02*
G01*
X75926500Y-89240140D01*
X75926500Y-86338140D01*
X78578500Y-86338140D01*
X78578500Y-89240140D01*
G37*
G36*
X97628500Y-89240140D02*
G01*
X94976500Y-89240140D01*
X94976500Y-86338140D01*
X97628500Y-86338140D01*
X97628500Y-89240140D01*
G37*
G36*
X135728500Y-89240140D02*
G01*
X133076500Y-89240140D01*
X133076500Y-86338140D01*
X135728500Y-86338140D01*
X135728500Y-89240140D01*
G37*
G36*
X128003500Y-85331500D02*
G01*
X126504500Y-85331500D01*
X126504500Y-83832500D01*
X128003500Y-83832500D01*
X128003500Y-85331500D01*
G37*
G36*
X77818425Y-83836599D02*
G01*
X77942621Y-83861302D01*
X78079022Y-83917801D01*
X78201779Y-83999825D01*
X78306175Y-84104221D01*
X78388199Y-84226978D01*
X78444698Y-84363379D01*
X78473500Y-84508181D01*
X78473500Y-84655819D01*
X78444698Y-84800621D01*
X78388199Y-84937022D01*
X78306175Y-85059779D01*
X78201779Y-85164175D01*
X78079022Y-85246199D01*
X77942621Y-85302698D01*
X77818425Y-85327401D01*
X77797820Y-85331500D01*
X77650180Y-85331500D01*
X77629575Y-85327401D01*
X77505379Y-85302698D01*
X77368978Y-85246199D01*
X77246221Y-85164175D01*
X77141825Y-85059779D01*
X77059801Y-84937022D01*
X77003302Y-84800621D01*
X76974500Y-84655819D01*
X76974500Y-84508181D01*
X77003302Y-84363379D01*
X77059801Y-84226978D01*
X77141825Y-84104221D01*
X77246221Y-83999825D01*
X77368978Y-83917801D01*
X77505379Y-83861302D01*
X77629575Y-83836599D01*
X77650180Y-83832500D01*
X77797820Y-83832500D01*
X77818425Y-83836599D01*
G37*
G36*
X115918425Y-83836599D02*
G01*
X116042621Y-83861302D01*
X116179022Y-83917801D01*
X116301779Y-83999825D01*
X116406175Y-84104221D01*
X116488199Y-84226978D01*
X116544698Y-84363379D01*
X116573500Y-84508181D01*
X116573500Y-84655819D01*
X116544698Y-84800621D01*
X116488199Y-84937022D01*
X116406175Y-85059779D01*
X116301779Y-85164175D01*
X116179022Y-85246199D01*
X116042621Y-85302698D01*
X115918425Y-85327401D01*
X115897820Y-85331500D01*
X115750180Y-85331500D01*
X115729575Y-85327401D01*
X115605379Y-85302698D01*
X115468978Y-85246199D01*
X115346221Y-85164175D01*
X115241825Y-85059779D01*
X115159801Y-84937022D01*
X115103302Y-84800621D01*
X115074500Y-84655819D01*
X115074500Y-84508181D01*
X115103302Y-84363379D01*
X115159801Y-84226978D01*
X115241825Y-84104221D01*
X115346221Y-83999825D01*
X115468978Y-83917801D01*
X115605379Y-83861302D01*
X115729575Y-83836599D01*
X115750180Y-83832500D01*
X115897820Y-83832500D01*
X115918425Y-83836599D01*
G37*
G36*
X70853500Y-85331500D02*
G01*
X69354500Y-85331500D01*
X69354500Y-83832500D01*
X70853500Y-83832500D01*
X70853500Y-85331500D01*
G37*
G36*
X134968425Y-83836599D02*
G01*
X135092621Y-83861302D01*
X135229022Y-83917801D01*
X135351779Y-83999825D01*
X135456175Y-84104221D01*
X135538199Y-84226978D01*
X135594698Y-84363379D01*
X135623500Y-84508181D01*
X135623500Y-84655819D01*
X135594698Y-84800621D01*
X135538199Y-84937022D01*
X135456175Y-85059779D01*
X135351779Y-85164175D01*
X135229022Y-85246199D01*
X135092621Y-85302698D01*
X134968425Y-85327401D01*
X134947820Y-85331500D01*
X134800180Y-85331500D01*
X134779575Y-85327401D01*
X134655379Y-85302698D01*
X134518978Y-85246199D01*
X134396221Y-85164175D01*
X134291825Y-85059779D01*
X134209801Y-84937022D01*
X134153302Y-84800621D01*
X134124500Y-84655819D01*
X134124500Y-84508181D01*
X134153302Y-84363379D01*
X134209801Y-84226978D01*
X134291825Y-84104221D01*
X134396221Y-83999825D01*
X134518978Y-83917801D01*
X134655379Y-83861302D01*
X134779575Y-83836599D01*
X134800180Y-83832500D01*
X134947820Y-83832500D01*
X134968425Y-83836599D01*
G37*
G36*
X108953500Y-85331500D02*
G01*
X107454500Y-85331500D01*
X107454500Y-83832500D01*
X108953500Y-83832500D01*
X108953500Y-85331500D01*
G37*
G36*
X96868425Y-83836599D02*
G01*
X96992621Y-83861302D01*
X97129022Y-83917801D01*
X97251779Y-83999825D01*
X97356175Y-84104221D01*
X97438199Y-84226978D01*
X97494698Y-84363379D01*
X97523500Y-84508181D01*
X97523500Y-84655819D01*
X97494698Y-84800621D01*
X97438199Y-84937022D01*
X97356175Y-85059779D01*
X97251779Y-85164175D01*
X97129022Y-85246199D01*
X96992621Y-85302698D01*
X96868425Y-85327401D01*
X96847820Y-85331500D01*
X96700180Y-85331500D01*
X96679575Y-85327401D01*
X96555379Y-85302698D01*
X96418978Y-85246199D01*
X96296221Y-85164175D01*
X96191825Y-85059779D01*
X96109801Y-84937022D01*
X96053302Y-84800621D01*
X96024500Y-84655819D01*
X96024500Y-84508181D01*
X96053302Y-84363379D01*
X96109801Y-84226978D01*
X96191825Y-84104221D01*
X96296221Y-83999825D01*
X96418978Y-83917801D01*
X96555379Y-83861302D01*
X96679575Y-83836599D01*
X96700180Y-83832500D01*
X96847820Y-83832500D01*
X96868425Y-83836599D01*
G37*
G36*
X89903500Y-85331500D02*
G01*
X88404500Y-85331500D01*
X88404500Y-83832500D01*
X89903500Y-83832500D01*
X89903500Y-85331500D01*
G37*
G36*
X114490000Y-85108000D02*
G01*
X113088000Y-85108000D01*
X113088000Y-84056000D01*
X114490000Y-84056000D01*
X114490000Y-85108000D01*
G37*
G36*
X76390000Y-85108000D02*
G01*
X74988000Y-85108000D01*
X74988000Y-84056000D01*
X76390000Y-84056000D01*
X76390000Y-85108000D01*
G37*
G36*
X72840000Y-85108000D02*
G01*
X71438000Y-85108000D01*
X71438000Y-84056000D01*
X72840000Y-84056000D01*
X72840000Y-85108000D01*
G37*
G36*
X110940000Y-85108000D02*
G01*
X109538000Y-85108000D01*
X109538000Y-84056000D01*
X110940000Y-84056000D01*
X110940000Y-85108000D01*
G37*
G36*
X129990000Y-85108000D02*
G01*
X128588000Y-85108000D01*
X128588000Y-84056000D01*
X129990000Y-84056000D01*
X129990000Y-85108000D01*
G37*
G36*
X133540000Y-85108000D02*
G01*
X132138000Y-85108000D01*
X132138000Y-84056000D01*
X133540000Y-84056000D01*
X133540000Y-85108000D01*
G37*
G36*
X95440000Y-85108000D02*
G01*
X94038000Y-85108000D01*
X94038000Y-84056000D01*
X95440000Y-84056000D01*
X95440000Y-85108000D01*
G37*
G36*
X91890000Y-85108000D02*
G01*
X90488000Y-85108000D01*
X90488000Y-84056000D01*
X91890000Y-84056000D01*
X91890000Y-85108000D01*
G37*
G36*
X91083974Y-71852744D02*
G01*
X91301974Y-71943043D01*
X91456123Y-72006893D01*
X91791048Y-72230683D01*
X92075877Y-72515512D01*
X92299667Y-72850437D01*
X92332062Y-72928646D01*
X92453816Y-73222586D01*
X92532400Y-73617654D01*
X92532400Y-74020466D01*
X92453816Y-74415534D01*
X92402951Y-74538332D01*
X92299667Y-74787683D01*
X92075877Y-75122608D01*
X91791048Y-75407437D01*
X91456123Y-75631227D01*
X91301974Y-75695077D01*
X91083974Y-75785376D01*
X90688906Y-75863960D01*
X90286094Y-75863960D01*
X89891026Y-75785376D01*
X89673026Y-75695077D01*
X89518877Y-75631227D01*
X89183952Y-75407437D01*
X88899123Y-75122608D01*
X88675333Y-74787683D01*
X88572049Y-74538332D01*
X88521184Y-74415534D01*
X88442600Y-74020466D01*
X88442600Y-73617654D01*
X88521184Y-73222586D01*
X88642938Y-72928646D01*
X88675333Y-72850437D01*
X88899123Y-72515512D01*
X89183952Y-72230683D01*
X89518877Y-72006893D01*
X89673026Y-71943043D01*
X89891026Y-71852744D01*
X90286094Y-71774160D01*
X90688906Y-71774160D01*
X91083974Y-71852744D01*
G37*
G36*
X129183974Y-71852744D02*
G01*
X129401974Y-71943043D01*
X129556123Y-72006893D01*
X129891048Y-72230683D01*
X130175877Y-72515512D01*
X130399667Y-72850437D01*
X130432062Y-72928646D01*
X130553816Y-73222586D01*
X130632400Y-73617654D01*
X130632400Y-74020466D01*
X130553816Y-74415534D01*
X130502951Y-74538332D01*
X130399667Y-74787683D01*
X130175877Y-75122608D01*
X129891048Y-75407437D01*
X129556123Y-75631227D01*
X129401974Y-75695077D01*
X129183974Y-75785376D01*
X128788906Y-75863960D01*
X128386094Y-75863960D01*
X127991026Y-75785376D01*
X127773026Y-75695077D01*
X127618877Y-75631227D01*
X127283952Y-75407437D01*
X126999123Y-75122608D01*
X126775333Y-74787683D01*
X126672049Y-74538332D01*
X126621184Y-74415534D01*
X126542600Y-74020466D01*
X126542600Y-73617654D01*
X126621184Y-73222586D01*
X126742938Y-72928646D01*
X126775333Y-72850437D01*
X126999123Y-72515512D01*
X127283952Y-72230683D01*
X127618877Y-72006893D01*
X127773026Y-71943043D01*
X127991026Y-71852744D01*
X128386094Y-71774160D01*
X128788906Y-71774160D01*
X129183974Y-71852744D01*
G37*
G36*
X110133974Y-71852744D02*
G01*
X110351974Y-71943043D01*
X110506123Y-72006893D01*
X110841048Y-72230683D01*
X111125877Y-72515512D01*
X111349667Y-72850437D01*
X111382062Y-72928646D01*
X111503816Y-73222586D01*
X111582400Y-73617654D01*
X111582400Y-74020466D01*
X111503816Y-74415534D01*
X111452951Y-74538332D01*
X111349667Y-74787683D01*
X111125877Y-75122608D01*
X110841048Y-75407437D01*
X110506123Y-75631227D01*
X110351974Y-75695077D01*
X110133974Y-75785376D01*
X109738906Y-75863960D01*
X109336094Y-75863960D01*
X108941026Y-75785376D01*
X108723026Y-75695077D01*
X108568877Y-75631227D01*
X108233952Y-75407437D01*
X107949123Y-75122608D01*
X107725333Y-74787683D01*
X107622049Y-74538332D01*
X107571184Y-74415534D01*
X107492600Y-74020466D01*
X107492600Y-73617654D01*
X107571184Y-73222586D01*
X107692938Y-72928646D01*
X107725333Y-72850437D01*
X107949123Y-72515512D01*
X108233952Y-72230683D01*
X108568877Y-72006893D01*
X108723026Y-71943043D01*
X108941026Y-71852744D01*
X109336094Y-71774160D01*
X109738906Y-71774160D01*
X110133974Y-71852744D01*
G37*
G36*
X72033974Y-71852744D02*
G01*
X72251974Y-71943043D01*
X72406123Y-72006893D01*
X72741048Y-72230683D01*
X73025877Y-72515512D01*
X73249667Y-72850437D01*
X73282062Y-72928646D01*
X73403816Y-73222586D01*
X73482400Y-73617654D01*
X73482400Y-74020466D01*
X73403816Y-74415534D01*
X73352951Y-74538332D01*
X73249667Y-74787683D01*
X73025877Y-75122608D01*
X72741048Y-75407437D01*
X72406123Y-75631227D01*
X72251974Y-75695077D01*
X72033974Y-75785376D01*
X71638906Y-75863960D01*
X71236094Y-75863960D01*
X70841026Y-75785376D01*
X70623026Y-75695077D01*
X70468877Y-75631227D01*
X70133952Y-75407437D01*
X69849123Y-75122608D01*
X69625333Y-74787683D01*
X69522049Y-74538332D01*
X69471184Y-74415534D01*
X69392600Y-74020466D01*
X69392600Y-73617654D01*
X69471184Y-73222586D01*
X69592938Y-72928646D01*
X69625333Y-72850437D01*
X69849123Y-72515512D01*
X70133952Y-72230683D01*
X70468877Y-72006893D01*
X70623026Y-71943043D01*
X70841026Y-71852744D01*
X71236094Y-71774160D01*
X71638906Y-71774160D01*
X72033974Y-71852744D01*
G37*
G36*
X133937604Y-72928645D02*
G01*
X134106126Y-72998449D01*
X134257791Y-73099788D01*
X134386772Y-73228769D01*
X134488111Y-73380434D01*
X134557915Y-73548956D01*
X134593500Y-73727857D01*
X134593500Y-73910263D01*
X134557915Y-74089164D01*
X134488111Y-74257686D01*
X134386772Y-74409351D01*
X134257791Y-74538332D01*
X134106126Y-74639671D01*
X133937604Y-74709475D01*
X133758703Y-74745060D01*
X133576297Y-74745060D01*
X133397396Y-74709475D01*
X133228874Y-74639671D01*
X133077209Y-74538332D01*
X132948228Y-74409351D01*
X132846889Y-74257686D01*
X132777085Y-74089164D01*
X132741500Y-73910263D01*
X132741500Y-73727857D01*
X132777085Y-73548956D01*
X132846889Y-73380434D01*
X132948228Y-73228769D01*
X133077209Y-73099788D01*
X133228874Y-72998449D01*
X133397396Y-72928645D01*
X133576297Y-72893060D01*
X133758703Y-72893060D01*
X133937604Y-72928645D01*
G37*
G36*
X123777604Y-72928645D02*
G01*
X123946126Y-72998449D01*
X124097791Y-73099788D01*
X124226772Y-73228769D01*
X124328111Y-73380434D01*
X124397915Y-73548956D01*
X124433500Y-73727857D01*
X124433500Y-73910263D01*
X124397915Y-74089164D01*
X124328111Y-74257686D01*
X124226772Y-74409351D01*
X124097791Y-74538332D01*
X123946126Y-74639671D01*
X123777604Y-74709475D01*
X123598703Y-74745060D01*
X123416297Y-74745060D01*
X123237396Y-74709475D01*
X123068874Y-74639671D01*
X122917209Y-74538332D01*
X122788228Y-74409351D01*
X122686889Y-74257686D01*
X122617085Y-74089164D01*
X122581500Y-73910263D01*
X122581500Y-73727857D01*
X122617085Y-73548956D01*
X122686889Y-73380434D01*
X122788228Y-73228769D01*
X122917209Y-73099788D01*
X123068874Y-72998449D01*
X123237396Y-72928645D01*
X123416297Y-72893060D01*
X123598703Y-72893060D01*
X123777604Y-72928645D01*
G37*
G36*
X95837604Y-72928645D02*
G01*
X96006126Y-72998449D01*
X96157791Y-73099788D01*
X96286772Y-73228769D01*
X96388111Y-73380434D01*
X96457915Y-73548956D01*
X96493500Y-73727857D01*
X96493500Y-73910263D01*
X96457915Y-74089164D01*
X96388111Y-74257686D01*
X96286772Y-74409351D01*
X96157791Y-74538332D01*
X96006126Y-74639671D01*
X95837604Y-74709475D01*
X95658703Y-74745060D01*
X95476297Y-74745060D01*
X95297396Y-74709475D01*
X95128874Y-74639671D01*
X94977209Y-74538332D01*
X94848228Y-74409351D01*
X94746889Y-74257686D01*
X94677085Y-74089164D01*
X94641500Y-73910263D01*
X94641500Y-73727857D01*
X94677085Y-73548956D01*
X94746889Y-73380434D01*
X94848228Y-73228769D01*
X94977209Y-73099788D01*
X95128874Y-72998449D01*
X95297396Y-72928645D01*
X95476297Y-72893060D01*
X95658703Y-72893060D01*
X95837604Y-72928645D01*
G37*
G36*
X114887604Y-72928645D02*
G01*
X115056126Y-72998449D01*
X115207791Y-73099788D01*
X115336772Y-73228769D01*
X115438111Y-73380434D01*
X115507915Y-73548956D01*
X115543500Y-73727857D01*
X115543500Y-73910263D01*
X115507915Y-74089164D01*
X115438111Y-74257686D01*
X115336772Y-74409351D01*
X115207791Y-74538332D01*
X115056126Y-74639671D01*
X114887604Y-74709475D01*
X114708703Y-74745060D01*
X114526297Y-74745060D01*
X114347396Y-74709475D01*
X114178874Y-74639671D01*
X114027209Y-74538332D01*
X113898228Y-74409351D01*
X113796889Y-74257686D01*
X113727085Y-74089164D01*
X113691500Y-73910263D01*
X113691500Y-73727857D01*
X113727085Y-73548956D01*
X113796889Y-73380434D01*
X113898228Y-73228769D01*
X114027209Y-73099788D01*
X114178874Y-72998449D01*
X114347396Y-72928645D01*
X114526297Y-72893060D01*
X114708703Y-72893060D01*
X114887604Y-72928645D01*
G37*
G36*
X104727604Y-72928645D02*
G01*
X104896126Y-72998449D01*
X105047791Y-73099788D01*
X105176772Y-73228769D01*
X105278111Y-73380434D01*
X105347915Y-73548956D01*
X105383500Y-73727857D01*
X105383500Y-73910263D01*
X105347915Y-74089164D01*
X105278111Y-74257686D01*
X105176772Y-74409351D01*
X105047791Y-74538332D01*
X104896126Y-74639671D01*
X104727604Y-74709475D01*
X104548703Y-74745060D01*
X104366297Y-74745060D01*
X104187396Y-74709475D01*
X104018874Y-74639671D01*
X103867209Y-74538332D01*
X103738228Y-74409351D01*
X103636889Y-74257686D01*
X103567085Y-74089164D01*
X103531500Y-73910263D01*
X103531500Y-73727857D01*
X103567085Y-73548956D01*
X103636889Y-73380434D01*
X103738228Y-73228769D01*
X103867209Y-73099788D01*
X104018874Y-72998449D01*
X104187396Y-72928645D01*
X104366297Y-72893060D01*
X104548703Y-72893060D01*
X104727604Y-72928645D01*
G37*
G36*
X85677604Y-72928645D02*
G01*
X85846126Y-72998449D01*
X85997791Y-73099788D01*
X86126772Y-73228769D01*
X86228111Y-73380434D01*
X86297915Y-73548956D01*
X86333500Y-73727857D01*
X86333500Y-73910263D01*
X86297915Y-74089164D01*
X86228111Y-74257686D01*
X86126772Y-74409351D01*
X85997791Y-74538332D01*
X85846126Y-74639671D01*
X85677604Y-74709475D01*
X85498703Y-74745060D01*
X85316297Y-74745060D01*
X85137396Y-74709475D01*
X84968874Y-74639671D01*
X84817209Y-74538332D01*
X84688228Y-74409351D01*
X84586889Y-74257686D01*
X84517085Y-74089164D01*
X84481500Y-73910263D01*
X84481500Y-73727857D01*
X84517085Y-73548956D01*
X84586889Y-73380434D01*
X84688228Y-73228769D01*
X84817209Y-73099788D01*
X84968874Y-72998449D01*
X85137396Y-72928645D01*
X85316297Y-72893060D01*
X85498703Y-72893060D01*
X85677604Y-72928645D01*
G37*
G36*
X76787604Y-72928645D02*
G01*
X76956126Y-72998449D01*
X77107791Y-73099788D01*
X77236772Y-73228769D01*
X77338111Y-73380434D01*
X77407915Y-73548956D01*
X77443500Y-73727857D01*
X77443500Y-73910263D01*
X77407915Y-74089164D01*
X77338111Y-74257686D01*
X77236772Y-74409351D01*
X77107791Y-74538332D01*
X76956126Y-74639671D01*
X76787604Y-74709475D01*
X76608703Y-74745060D01*
X76426297Y-74745060D01*
X76247396Y-74709475D01*
X76078874Y-74639671D01*
X75927209Y-74538332D01*
X75798228Y-74409351D01*
X75696889Y-74257686D01*
X75627085Y-74089164D01*
X75591500Y-73910263D01*
X75591500Y-73727857D01*
X75627085Y-73548956D01*
X75696889Y-73380434D01*
X75798228Y-73228769D01*
X75927209Y-73099788D01*
X76078874Y-72998449D01*
X76247396Y-72928645D01*
X76426297Y-72893060D01*
X76608703Y-72893060D01*
X76787604Y-72928645D01*
G37*
G36*
X66627604Y-72928645D02*
G01*
X66796126Y-72998449D01*
X66947791Y-73099788D01*
X67076772Y-73228769D01*
X67178111Y-73380434D01*
X67247915Y-73548956D01*
X67283500Y-73727857D01*
X67283500Y-73910263D01*
X67247915Y-74089164D01*
X67178111Y-74257686D01*
X67076772Y-74409351D01*
X66947791Y-74538332D01*
X66796126Y-74639671D01*
X66627604Y-74709475D01*
X66448703Y-74745060D01*
X66266297Y-74745060D01*
X66087396Y-74709475D01*
X65918874Y-74639671D01*
X65767209Y-74538332D01*
X65638228Y-74409351D01*
X65536889Y-74257686D01*
X65467085Y-74089164D01*
X65431500Y-73910263D01*
X65431500Y-73727857D01*
X65467085Y-73548956D01*
X65536889Y-73380434D01*
X65638228Y-73228769D01*
X65767209Y-73099788D01*
X65918874Y-72998449D01*
X66087396Y-72928645D01*
X66266297Y-72893060D01*
X66448703Y-72893060D01*
X66627604Y-72928645D01*
G37*
G36*
X65678500Y-72730060D02*
G01*
X63026500Y-72730060D01*
X63026500Y-69828060D01*
X65678500Y-69828060D01*
X65678500Y-72730060D01*
G37*
G36*
X122828500Y-72730060D02*
G01*
X120176500Y-72730060D01*
X120176500Y-69828060D01*
X122828500Y-69828060D01*
X122828500Y-72730060D01*
G37*
G36*
X103778500Y-72730060D02*
G01*
X101126500Y-72730060D01*
X101126500Y-69828060D01*
X103778500Y-69828060D01*
X103778500Y-72730060D01*
G37*
G36*
X84728500Y-72730060D02*
G01*
X82076500Y-72730060D01*
X82076500Y-69828060D01*
X84728500Y-69828060D01*
X84728500Y-72730060D01*
G37*
G36*
X116678500Y-70190060D02*
G01*
X114026500Y-70190060D01*
X114026500Y-67288060D01*
X116678500Y-67288060D01*
X116678500Y-70190060D01*
G37*
G36*
X135728500Y-70190060D02*
G01*
X133076500Y-70190060D01*
X133076500Y-67288060D01*
X135728500Y-67288060D01*
X135728500Y-70190060D01*
G37*
G36*
X97628500Y-70190060D02*
G01*
X94976500Y-70190060D01*
X94976500Y-67288060D01*
X97628500Y-67288060D01*
X97628500Y-70190060D01*
G37*
G36*
X78578500Y-70190060D02*
G01*
X75926500Y-70190060D01*
X75926500Y-67288060D01*
X78578500Y-67288060D01*
X78578500Y-70190060D01*
G37*
G36*
X128003500Y-66281500D02*
G01*
X126504500Y-66281500D01*
X126504500Y-64782500D01*
X128003500Y-64782500D01*
X128003500Y-66281500D01*
G37*
G36*
X115664425Y-64786599D02*
G01*
X115788621Y-64811302D01*
X115925022Y-64867801D01*
X116047779Y-64949825D01*
X116152175Y-65054221D01*
X116234199Y-65176978D01*
X116290698Y-65313379D01*
X116319500Y-65458181D01*
X116319500Y-65605819D01*
X116290698Y-65750621D01*
X116234199Y-65887022D01*
X116152175Y-66009779D01*
X116047779Y-66114175D01*
X115925022Y-66196199D01*
X115788621Y-66252698D01*
X115664425Y-66277401D01*
X115643820Y-66281500D01*
X115496180Y-66281500D01*
X115475575Y-66277401D01*
X115351379Y-66252698D01*
X115214978Y-66196199D01*
X115092221Y-66114175D01*
X114987825Y-66009779D01*
X114905801Y-65887022D01*
X114849302Y-65750621D01*
X114820500Y-65605819D01*
X114820500Y-65458181D01*
X114849302Y-65313379D01*
X114905801Y-65176978D01*
X114987825Y-65054221D01*
X115092221Y-64949825D01*
X115214978Y-64867801D01*
X115351379Y-64811302D01*
X115475575Y-64786599D01*
X115496180Y-64782500D01*
X115643820Y-64782500D01*
X115664425Y-64786599D01*
G37*
G36*
X108699500Y-66281500D02*
G01*
X107200500Y-66281500D01*
X107200500Y-64782500D01*
X108699500Y-64782500D01*
X108699500Y-66281500D01*
G37*
G36*
X96614425Y-64786599D02*
G01*
X96738621Y-64811302D01*
X96875022Y-64867801D01*
X96997779Y-64949825D01*
X97102175Y-65054221D01*
X97184199Y-65176978D01*
X97240698Y-65313379D01*
X97269500Y-65458181D01*
X97269500Y-65605819D01*
X97240698Y-65750621D01*
X97184199Y-65887022D01*
X97102175Y-66009779D01*
X96997779Y-66114175D01*
X96875022Y-66196199D01*
X96738621Y-66252698D01*
X96614425Y-66277401D01*
X96593820Y-66281500D01*
X96446180Y-66281500D01*
X96425575Y-66277401D01*
X96301379Y-66252698D01*
X96164978Y-66196199D01*
X96042221Y-66114175D01*
X95937825Y-66009779D01*
X95855801Y-65887022D01*
X95799302Y-65750621D01*
X95770500Y-65605819D01*
X95770500Y-65458181D01*
X95799302Y-65313379D01*
X95855801Y-65176978D01*
X95937825Y-65054221D01*
X96042221Y-64949825D01*
X96164978Y-64867801D01*
X96301379Y-64811302D01*
X96425575Y-64786599D01*
X96446180Y-64782500D01*
X96593820Y-64782500D01*
X96614425Y-64786599D01*
G37*
G36*
X134968425Y-64786599D02*
G01*
X135092621Y-64811302D01*
X135229022Y-64867801D01*
X135351779Y-64949825D01*
X135456175Y-65054221D01*
X135538199Y-65176978D01*
X135594698Y-65313379D01*
X135623500Y-65458181D01*
X135623500Y-65605819D01*
X135594698Y-65750621D01*
X135538199Y-65887022D01*
X135456175Y-66009779D01*
X135351779Y-66114175D01*
X135229022Y-66196199D01*
X135092621Y-66252698D01*
X134968425Y-66277401D01*
X134947820Y-66281500D01*
X134800180Y-66281500D01*
X134779575Y-66277401D01*
X134655379Y-66252698D01*
X134518978Y-66196199D01*
X134396221Y-66114175D01*
X134291825Y-66009779D01*
X134209801Y-65887022D01*
X134153302Y-65750621D01*
X134124500Y-65605819D01*
X134124500Y-65458181D01*
X134153302Y-65313379D01*
X134209801Y-65176978D01*
X134291825Y-65054221D01*
X134396221Y-64949825D01*
X134518978Y-64867801D01*
X134655379Y-64811302D01*
X134779575Y-64786599D01*
X134800180Y-64782500D01*
X134947820Y-64782500D01*
X134968425Y-64786599D01*
G37*
G36*
X89649500Y-66281500D02*
G01*
X88150500Y-66281500D01*
X88150500Y-64782500D01*
X89649500Y-64782500D01*
X89649500Y-66281500D01*
G37*
G36*
X100541380Y-61716976D02*
G01*
X100922093Y-61792704D01*
X101331749Y-61962389D01*
X101700429Y-62208734D01*
X102013966Y-62522271D01*
X102260311Y-62890951D01*
X102429996Y-63300607D01*
X102516500Y-63735496D01*
X102516500Y-64178904D01*
X102429996Y-64613793D01*
X102260311Y-65023449D01*
X102013966Y-65392129D01*
X101700429Y-65705666D01*
X101331749Y-65952011D01*
X100922093Y-66121696D01*
X100547538Y-66196199D01*
X100487205Y-66208200D01*
X100043795Y-66208200D01*
X99983462Y-66196199D01*
X99608907Y-66121696D01*
X99199251Y-65952011D01*
X98830571Y-65705666D01*
X98517034Y-65392129D01*
X98270689Y-65023449D01*
X98101004Y-64613793D01*
X98014500Y-64178904D01*
X98014500Y-63735496D01*
X98101004Y-63300607D01*
X98270689Y-62890951D01*
X98517034Y-62522271D01*
X98830571Y-62208734D01*
X99199251Y-61962389D01*
X99608907Y-61792704D01*
X99989620Y-61716976D01*
X100043795Y-61706200D01*
X100487205Y-61706200D01*
X100541380Y-61716976D01*
G37*
G36*
X64249500Y-66154500D02*
G01*
X62750500Y-66154500D01*
X62750500Y-64655500D01*
X64249500Y-64655500D01*
X64249500Y-66154500D01*
G37*
G36*
X81374425Y-64659599D02*
G01*
X81498621Y-64684302D01*
X81635022Y-64740801D01*
X81757779Y-64822825D01*
X81862175Y-64927221D01*
X81944199Y-65049978D01*
X82000698Y-65186379D01*
X82029500Y-65331181D01*
X82029500Y-65478819D01*
X82000698Y-65623621D01*
X81944199Y-65760022D01*
X81862175Y-65882779D01*
X81757779Y-65987175D01*
X81635022Y-66069199D01*
X81498621Y-66125698D01*
X81374425Y-66150401D01*
X81353820Y-66154500D01*
X81206180Y-66154500D01*
X81185575Y-66150401D01*
X81061379Y-66125698D01*
X80924978Y-66069199D01*
X80802221Y-65987175D01*
X80697825Y-65882779D01*
X80615801Y-65760022D01*
X80559302Y-65623621D01*
X80530500Y-65478819D01*
X80530500Y-65331181D01*
X80559302Y-65186379D01*
X80615801Y-65049978D01*
X80697825Y-64927221D01*
X80802221Y-64822825D01*
X80924978Y-64740801D01*
X81061379Y-64684302D01*
X81185575Y-64659599D01*
X81206180Y-64655500D01*
X81353820Y-64655500D01*
X81374425Y-64659599D01*
G37*
G36*
X74409500Y-66154500D02*
G01*
X72910500Y-66154500D01*
X72910500Y-64655500D01*
X74409500Y-64655500D01*
X74409500Y-66154500D01*
G37*
G36*
X71214425Y-64659599D02*
G01*
X71338621Y-64684302D01*
X71475022Y-64740801D01*
X71597779Y-64822825D01*
X71702175Y-64927221D01*
X71784199Y-65049978D01*
X71840698Y-65186379D01*
X71869500Y-65331181D01*
X71869500Y-65478819D01*
X71840698Y-65623621D01*
X71784199Y-65760022D01*
X71702175Y-65882779D01*
X71597779Y-65987175D01*
X71475022Y-66069199D01*
X71338621Y-66125698D01*
X71214425Y-66150401D01*
X71193820Y-66154500D01*
X71046180Y-66154500D01*
X71025575Y-66150401D01*
X70901379Y-66125698D01*
X70764978Y-66069199D01*
X70642221Y-65987175D01*
X70537825Y-65882779D01*
X70455801Y-65760022D01*
X70399302Y-65623621D01*
X70370500Y-65478819D01*
X70370500Y-65331181D01*
X70399302Y-65186379D01*
X70455801Y-65049978D01*
X70537825Y-64927221D01*
X70642221Y-64822825D01*
X70764978Y-64740801D01*
X70901379Y-64684302D01*
X71025575Y-64659599D01*
X71046180Y-64655500D01*
X71193820Y-64655500D01*
X71214425Y-64659599D01*
G37*
G36*
X95186000Y-66058000D02*
G01*
X93784000Y-66058000D01*
X93784000Y-65006000D01*
X95186000Y-65006000D01*
X95186000Y-66058000D01*
G37*
G36*
X110686000Y-66058000D02*
G01*
X109284000Y-66058000D01*
X109284000Y-65006000D01*
X110686000Y-65006000D01*
X110686000Y-66058000D01*
G37*
G36*
X114236000Y-66058000D02*
G01*
X112834000Y-66058000D01*
X112834000Y-65006000D01*
X114236000Y-65006000D01*
X114236000Y-66058000D01*
G37*
G36*
X129990000Y-66058000D02*
G01*
X128588000Y-66058000D01*
X128588000Y-65006000D01*
X129990000Y-65006000D01*
X129990000Y-66058000D01*
G37*
G36*
X133540000Y-66058000D02*
G01*
X132138000Y-66058000D01*
X132138000Y-65006000D01*
X133540000Y-65006000D01*
X133540000Y-66058000D01*
G37*
G36*
X91636000Y-66058000D02*
G01*
X90234000Y-66058000D01*
X90234000Y-65006000D01*
X91636000Y-65006000D01*
X91636000Y-66058000D01*
G37*
G36*
X79946000Y-65931000D02*
G01*
X78544000Y-65931000D01*
X78544000Y-64879000D01*
X79946000Y-64879000D01*
X79946000Y-65931000D01*
G37*
G36*
X66236000Y-65931000D02*
G01*
X64834000Y-65931000D01*
X64834000Y-64879000D01*
X66236000Y-64879000D01*
X66236000Y-65931000D01*
G37*
G36*
X69786000Y-65931000D02*
G01*
X68384000Y-65931000D01*
X68384000Y-64879000D01*
X69786000Y-64879000D01*
X69786000Y-65931000D01*
G37*
G36*
X76396000Y-65931000D02*
G01*
X74994000Y-65931000D01*
X74994000Y-64879000D01*
X76396000Y-64879000D01*
X76396000Y-65931000D01*
G37*
G36*
X78603500Y-63741500D02*
G01*
X77104500Y-63741500D01*
X77104500Y-62242500D01*
X78603500Y-62242500D01*
X78603500Y-63741500D01*
G37*
G36*
X96614425Y-62246599D02*
G01*
X96738621Y-62271302D01*
X96875022Y-62327801D01*
X96997779Y-62409825D01*
X97102175Y-62514221D01*
X97184199Y-62636978D01*
X97240698Y-62773379D01*
X97269500Y-62918181D01*
X97269500Y-63065819D01*
X97240698Y-63210621D01*
X97184199Y-63347022D01*
X97102175Y-63469779D01*
X96997779Y-63574175D01*
X96875022Y-63656199D01*
X96738621Y-63712698D01*
X96624009Y-63735495D01*
X96593820Y-63741500D01*
X96446180Y-63741500D01*
X96415991Y-63735495D01*
X96301379Y-63712698D01*
X96164978Y-63656199D01*
X96042221Y-63574175D01*
X95937825Y-63469779D01*
X95855801Y-63347022D01*
X95799302Y-63210621D01*
X95770500Y-63065819D01*
X95770500Y-62918181D01*
X95799302Y-62773379D01*
X95855801Y-62636978D01*
X95937825Y-62514221D01*
X96042221Y-62409825D01*
X96164978Y-62327801D01*
X96301379Y-62271302D01*
X96425575Y-62246599D01*
X96446180Y-62242500D01*
X96593820Y-62242500D01*
X96614425Y-62246599D01*
G37*
G36*
X89649500Y-63741500D02*
G01*
X88150500Y-63741500D01*
X88150500Y-62242500D01*
X89649500Y-62242500D01*
X89649500Y-63741500D01*
G37*
G36*
X85568425Y-62246599D02*
G01*
X85692621Y-62271302D01*
X85829022Y-62327801D01*
X85951779Y-62409825D01*
X86056175Y-62514221D01*
X86138199Y-62636978D01*
X86194698Y-62773379D01*
X86223500Y-62918181D01*
X86223500Y-63065819D01*
X86194698Y-63210621D01*
X86138199Y-63347022D01*
X86056175Y-63469779D01*
X85951779Y-63574175D01*
X85829022Y-63656199D01*
X85692621Y-63712698D01*
X85578009Y-63735495D01*
X85547820Y-63741500D01*
X85400180Y-63741500D01*
X85369991Y-63735495D01*
X85255379Y-63712698D01*
X85118978Y-63656199D01*
X84996221Y-63574175D01*
X84891825Y-63469779D01*
X84809801Y-63347022D01*
X84753302Y-63210621D01*
X84724500Y-63065819D01*
X84724500Y-62918181D01*
X84753302Y-62773379D01*
X84809801Y-62636978D01*
X84891825Y-62514221D01*
X84996221Y-62409825D01*
X85118978Y-62327801D01*
X85255379Y-62271302D01*
X85379575Y-62246599D01*
X85400180Y-62242500D01*
X85547820Y-62242500D01*
X85568425Y-62246599D01*
G37*
G36*
X108699500Y-63741500D02*
G01*
X107200500Y-63741500D01*
X107200500Y-62242500D01*
X108699500Y-62242500D01*
X108699500Y-63741500D01*
G37*
G36*
X115664425Y-62246599D02*
G01*
X115788621Y-62271302D01*
X115925022Y-62327801D01*
X116047779Y-62409825D01*
X116152175Y-62514221D01*
X116234199Y-62636978D01*
X116290698Y-62773379D01*
X116319500Y-62918181D01*
X116319500Y-63065819D01*
X116290698Y-63210621D01*
X116234199Y-63347022D01*
X116152175Y-63469779D01*
X116047779Y-63574175D01*
X115925022Y-63656199D01*
X115788621Y-63712698D01*
X115674009Y-63735495D01*
X115643820Y-63741500D01*
X115496180Y-63741500D01*
X115465991Y-63735495D01*
X115351379Y-63712698D01*
X115214978Y-63656199D01*
X115092221Y-63574175D01*
X114987825Y-63469779D01*
X114905801Y-63347022D01*
X114849302Y-63210621D01*
X114820500Y-63065819D01*
X114820500Y-62918181D01*
X114849302Y-62773379D01*
X114905801Y-62636978D01*
X114987825Y-62514221D01*
X115092221Y-62409825D01*
X115214978Y-62327801D01*
X115351379Y-62271302D01*
X115475575Y-62246599D01*
X115496180Y-62242500D01*
X115643820Y-62242500D01*
X115664425Y-62246599D01*
G37*
G36*
X128003500Y-63741500D02*
G01*
X126504500Y-63741500D01*
X126504500Y-62242500D01*
X128003500Y-62242500D01*
X128003500Y-63741500D01*
G37*
G36*
X134968425Y-62246599D02*
G01*
X135092621Y-62271302D01*
X135229022Y-62327801D01*
X135351779Y-62409825D01*
X135456175Y-62514221D01*
X135538199Y-62636978D01*
X135594698Y-62773379D01*
X135623500Y-62918181D01*
X135623500Y-63065819D01*
X135594698Y-63210621D01*
X135538199Y-63347022D01*
X135456175Y-63469779D01*
X135351779Y-63574175D01*
X135229022Y-63656199D01*
X135092621Y-63712698D01*
X134978009Y-63735495D01*
X134947820Y-63741500D01*
X134800180Y-63741500D01*
X134769991Y-63735495D01*
X134655379Y-63712698D01*
X134518978Y-63656199D01*
X134396221Y-63574175D01*
X134291825Y-63469779D01*
X134209801Y-63347022D01*
X134153302Y-63210621D01*
X134124500Y-63065819D01*
X134124500Y-62918181D01*
X134153302Y-62773379D01*
X134209801Y-62636978D01*
X134291825Y-62514221D01*
X134396221Y-62409825D01*
X134518978Y-62327801D01*
X134655379Y-62271302D01*
X134779575Y-62246599D01*
X134800180Y-62242500D01*
X134947820Y-62242500D01*
X134968425Y-62246599D01*
G37*
G36*
X80590000Y-63518000D02*
G01*
X79188000Y-63518000D01*
X79188000Y-62466000D01*
X80590000Y-62466000D01*
X80590000Y-63518000D01*
G37*
G36*
X84140000Y-63518000D02*
G01*
X82738000Y-63518000D01*
X82738000Y-62466000D01*
X84140000Y-62466000D01*
X84140000Y-63518000D01*
G37*
G36*
X133540000Y-63518000D02*
G01*
X132138000Y-63518000D01*
X132138000Y-62466000D01*
X133540000Y-62466000D01*
X133540000Y-63518000D01*
G37*
G36*
X129990000Y-63518000D02*
G01*
X128588000Y-63518000D01*
X128588000Y-62466000D01*
X129990000Y-62466000D01*
X129990000Y-63518000D01*
G37*
G36*
X114236000Y-63518000D02*
G01*
X112834000Y-63518000D01*
X112834000Y-62466000D01*
X114236000Y-62466000D01*
X114236000Y-63518000D01*
G37*
G36*
X110686000Y-63518000D02*
G01*
X109284000Y-63518000D01*
X109284000Y-62466000D01*
X110686000Y-62466000D01*
X110686000Y-63518000D01*
G37*
G36*
X95186000Y-63518000D02*
G01*
X93784000Y-63518000D01*
X93784000Y-62466000D01*
X95186000Y-62466000D01*
X95186000Y-63518000D01*
G37*
G36*
X91636000Y-63518000D02*
G01*
X90234000Y-63518000D01*
X90234000Y-62466000D01*
X91636000Y-62466000D01*
X91636000Y-63518000D01*
G37*
G36*
X70806564Y-60599389D02*
G01*
X70997833Y-60678615D01*
X70997835Y-60678616D01*
X71169973Y-60793635D01*
X71316365Y-60940027D01*
X71431385Y-61112167D01*
X71510611Y-61303436D01*
X71551000Y-61506484D01*
X71551000Y-61713516D01*
X71510611Y-61916564D01*
X71431385Y-62107833D01*
X71431384Y-62107835D01*
X71316365Y-62279973D01*
X71169973Y-62426365D01*
X70997835Y-62541384D01*
X70997834Y-62541385D01*
X70997833Y-62541385D01*
X70806564Y-62620611D01*
X70603516Y-62661000D01*
X70396484Y-62661000D01*
X70193436Y-62620611D01*
X70002167Y-62541385D01*
X70002166Y-62541385D01*
X70002165Y-62541384D01*
X69830027Y-62426365D01*
X69683635Y-62279973D01*
X69568616Y-62107835D01*
X69568615Y-62107833D01*
X69489389Y-61916564D01*
X69449000Y-61713516D01*
X69449000Y-61506484D01*
X69489389Y-61303436D01*
X69568615Y-61112167D01*
X69683635Y-60940027D01*
X69830027Y-60793635D01*
X70002165Y-60678616D01*
X70002167Y-60678615D01*
X70193436Y-60599389D01*
X70396484Y-60559000D01*
X70603516Y-60559000D01*
X70806564Y-60599389D01*
G37*
G36*
X75806564Y-60599389D02*
G01*
X75997833Y-60678615D01*
X75997835Y-60678616D01*
X76169973Y-60793635D01*
X76316365Y-60940027D01*
X76431385Y-61112167D01*
X76510611Y-61303436D01*
X76551000Y-61506484D01*
X76551000Y-61713516D01*
X76510611Y-61916564D01*
X76431385Y-62107833D01*
X76431384Y-62107835D01*
X76316365Y-62279973D01*
X76169973Y-62426365D01*
X75997835Y-62541384D01*
X75997834Y-62541385D01*
X75997833Y-62541385D01*
X75806564Y-62620611D01*
X75603516Y-62661000D01*
X75396484Y-62661000D01*
X75193436Y-62620611D01*
X75002167Y-62541385D01*
X75002166Y-62541385D01*
X75002165Y-62541384D01*
X74830027Y-62426365D01*
X74683635Y-62279973D01*
X74568616Y-62107835D01*
X74568615Y-62107833D01*
X74489389Y-61916564D01*
X74449000Y-61713516D01*
X74449000Y-61506484D01*
X74489389Y-61303436D01*
X74568615Y-61112167D01*
X74683635Y-60940027D01*
X74830027Y-60793635D01*
X75002165Y-60678616D01*
X75002167Y-60678615D01*
X75193436Y-60599389D01*
X75396484Y-60559000D01*
X75603516Y-60559000D01*
X75806564Y-60599389D01*
G37*
G36*
X148714047Y-58732743D02*
G01*
X148863347Y-58762440D01*
X149027319Y-58830360D01*
X149174889Y-58928963D01*
X149300388Y-59054462D01*
X149398991Y-59202032D01*
X149466911Y-59366004D01*
X149501535Y-59540075D01*
X149501535Y-59717557D01*
X149466911Y-59891628D01*
X149398991Y-60055600D01*
X149300388Y-60203170D01*
X149174889Y-60328669D01*
X149027319Y-60427272D01*
X148863347Y-60495192D01*
X148714047Y-60524889D01*
X148689277Y-60529816D01*
X148511793Y-60529816D01*
X148487023Y-60524889D01*
X148337723Y-60495192D01*
X148173751Y-60427272D01*
X148026181Y-60328669D01*
X147900682Y-60203170D01*
X147802079Y-60055600D01*
X147734159Y-59891628D01*
X147699535Y-59717557D01*
X147699535Y-59540075D01*
X147734159Y-59366004D01*
X147802079Y-59202032D01*
X147900682Y-59054462D01*
X148026181Y-58928963D01*
X148173751Y-58830360D01*
X148337723Y-58762440D01*
X148487023Y-58732743D01*
X148511793Y-58727816D01*
X148689277Y-58727816D01*
X148714047Y-58732743D01*
G37*
G36*
X147184680Y-58406737D02*
G01*
X146810023Y-60169360D01*
X145047400Y-59794703D01*
X145422057Y-58032080D01*
X147184680Y-58406737D01*
G37*
G36*
X149242143Y-56248248D02*
G01*
X149391443Y-56277945D01*
X149555415Y-56345865D01*
X149702985Y-56444468D01*
X149828484Y-56569967D01*
X149927087Y-56717537D01*
X149995007Y-56881509D01*
X150029631Y-57055580D01*
X150029631Y-57233062D01*
X149995007Y-57407133D01*
X149927087Y-57571105D01*
X149828484Y-57718675D01*
X149702985Y-57844174D01*
X149555415Y-57942777D01*
X149391443Y-58010697D01*
X149242143Y-58040394D01*
X149217373Y-58045321D01*
X149039889Y-58045321D01*
X149015119Y-58040394D01*
X148865819Y-58010697D01*
X148701847Y-57942777D01*
X148554277Y-57844174D01*
X148428778Y-57718675D01*
X148330175Y-57571105D01*
X148262255Y-57407133D01*
X148227631Y-57233062D01*
X148227631Y-57055580D01*
X148262255Y-56881509D01*
X148330175Y-56717537D01*
X148428778Y-56569967D01*
X148554277Y-56444468D01*
X148701847Y-56345865D01*
X148865819Y-56277945D01*
X149015119Y-56248248D01*
X149039889Y-56243321D01*
X149217373Y-56243321D01*
X149242143Y-56248248D01*
G37*
G36*
X146757648Y-55720152D02*
G01*
X146906948Y-55749849D01*
X147070920Y-55817769D01*
X147218490Y-55916372D01*
X147343989Y-56041871D01*
X147442592Y-56189441D01*
X147510512Y-56353413D01*
X147545136Y-56527484D01*
X147545136Y-56704966D01*
X147510512Y-56879037D01*
X147442592Y-57043009D01*
X147343989Y-57190579D01*
X147218490Y-57316078D01*
X147070920Y-57414681D01*
X146906948Y-57482601D01*
X146757648Y-57512298D01*
X146732878Y-57517225D01*
X146555394Y-57517225D01*
X146530624Y-57512298D01*
X146381324Y-57482601D01*
X146217352Y-57414681D01*
X146069782Y-57316078D01*
X145944283Y-57190579D01*
X145845680Y-57043009D01*
X145777760Y-56879037D01*
X145743136Y-56704966D01*
X145743136Y-56527484D01*
X145777760Y-56353413D01*
X145845680Y-56189441D01*
X145944283Y-56041871D01*
X146069782Y-55916372D01*
X146217352Y-55817769D01*
X146381324Y-55749849D01*
X146530624Y-55720152D01*
X146555394Y-55715225D01*
X146732878Y-55715225D01*
X146757648Y-55720152D01*
G37*
G36*
X91083974Y-52802664D02*
G01*
X91259050Y-52875183D01*
X91456123Y-52956813D01*
X91791048Y-53180603D01*
X92075877Y-53465432D01*
X92299667Y-53800357D01*
X92332062Y-53878566D01*
X92453816Y-54172506D01*
X92532400Y-54567574D01*
X92532400Y-54970386D01*
X92453816Y-55365454D01*
X92402951Y-55488252D01*
X92299667Y-55737603D01*
X92075877Y-56072528D01*
X91791048Y-56357357D01*
X91456123Y-56581147D01*
X91301974Y-56644997D01*
X91083974Y-56735296D01*
X90688906Y-56813880D01*
X90286094Y-56813880D01*
X89891026Y-56735296D01*
X89673026Y-56644997D01*
X89518877Y-56581147D01*
X89183952Y-56357357D01*
X88899123Y-56072528D01*
X88675333Y-55737603D01*
X88572049Y-55488252D01*
X88521184Y-55365454D01*
X88442600Y-54970386D01*
X88442600Y-54567574D01*
X88521184Y-54172506D01*
X88642938Y-53878566D01*
X88675333Y-53800357D01*
X88899123Y-53465432D01*
X89183952Y-53180603D01*
X89518877Y-52956813D01*
X89715950Y-52875183D01*
X89891026Y-52802664D01*
X90286094Y-52724080D01*
X90688906Y-52724080D01*
X91083974Y-52802664D01*
G37*
G36*
X110133974Y-52802664D02*
G01*
X110309050Y-52875183D01*
X110506123Y-52956813D01*
X110841048Y-53180603D01*
X111125877Y-53465432D01*
X111349667Y-53800357D01*
X111382062Y-53878566D01*
X111503816Y-54172506D01*
X111582400Y-54567574D01*
X111582400Y-54970386D01*
X111503816Y-55365454D01*
X111452951Y-55488252D01*
X111349667Y-55737603D01*
X111125877Y-56072528D01*
X110841048Y-56357357D01*
X110506123Y-56581147D01*
X110351974Y-56644997D01*
X110133974Y-56735296D01*
X109738906Y-56813880D01*
X109336094Y-56813880D01*
X108941026Y-56735296D01*
X108723026Y-56644997D01*
X108568877Y-56581147D01*
X108233952Y-56357357D01*
X107949123Y-56072528D01*
X107725333Y-55737603D01*
X107622049Y-55488252D01*
X107571184Y-55365454D01*
X107492600Y-54970386D01*
X107492600Y-54567574D01*
X107571184Y-54172506D01*
X107692938Y-53878566D01*
X107725333Y-53800357D01*
X107949123Y-53465432D01*
X108233952Y-53180603D01*
X108568877Y-52956813D01*
X108765950Y-52875183D01*
X108941026Y-52802664D01*
X109336094Y-52724080D01*
X109738906Y-52724080D01*
X110133974Y-52802664D01*
G37*
G36*
X129183974Y-52802664D02*
G01*
X129359050Y-52875183D01*
X129556123Y-52956813D01*
X129891048Y-53180603D01*
X130175877Y-53465432D01*
X130399667Y-53800357D01*
X130432062Y-53878566D01*
X130553816Y-54172506D01*
X130632400Y-54567574D01*
X130632400Y-54970386D01*
X130553816Y-55365454D01*
X130502951Y-55488252D01*
X130399667Y-55737603D01*
X130175877Y-56072528D01*
X129891048Y-56357357D01*
X129556123Y-56581147D01*
X129401974Y-56644997D01*
X129183974Y-56735296D01*
X128788906Y-56813880D01*
X128386094Y-56813880D01*
X127991026Y-56735296D01*
X127773026Y-56644997D01*
X127618877Y-56581147D01*
X127283952Y-56357357D01*
X126999123Y-56072528D01*
X126775333Y-55737603D01*
X126672049Y-55488252D01*
X126621184Y-55365454D01*
X126542600Y-54970386D01*
X126542600Y-54567574D01*
X126621184Y-54172506D01*
X126742938Y-53878566D01*
X126775333Y-53800357D01*
X126999123Y-53465432D01*
X127283952Y-53180603D01*
X127618877Y-52956813D01*
X127815950Y-52875183D01*
X127991026Y-52802664D01*
X128386094Y-52724080D01*
X128788906Y-52724080D01*
X129183974Y-52802664D01*
G37*
G36*
X79651000Y-56261000D02*
G01*
X77549000Y-56261000D01*
X77549000Y-52959000D01*
X79651000Y-52959000D01*
X79651000Y-56261000D01*
G37*
G36*
X68451000Y-56261000D02*
G01*
X66349000Y-56261000D01*
X66349000Y-52959000D01*
X68451000Y-52959000D01*
X68451000Y-56261000D01*
G37*
G36*
X104727604Y-53878565D02*
G01*
X104896126Y-53948369D01*
X105047791Y-54049708D01*
X105176772Y-54178689D01*
X105278111Y-54330354D01*
X105347915Y-54498876D01*
X105383500Y-54677777D01*
X105383500Y-54860183D01*
X105347915Y-55039084D01*
X105278111Y-55207606D01*
X105176772Y-55359271D01*
X105047791Y-55488252D01*
X104896126Y-55589591D01*
X104727604Y-55659395D01*
X104548703Y-55694980D01*
X104366297Y-55694980D01*
X104187396Y-55659395D01*
X104018874Y-55589591D01*
X103867209Y-55488252D01*
X103738228Y-55359271D01*
X103636889Y-55207606D01*
X103567085Y-55039084D01*
X103531500Y-54860183D01*
X103531500Y-54677777D01*
X103567085Y-54498876D01*
X103636889Y-54330354D01*
X103738228Y-54178689D01*
X103867209Y-54049708D01*
X104018874Y-53948369D01*
X104187396Y-53878565D01*
X104366297Y-53842980D01*
X104548703Y-53842980D01*
X104727604Y-53878565D01*
G37*
G36*
X123777604Y-53878565D02*
G01*
X123946126Y-53948369D01*
X124097791Y-54049708D01*
X124226772Y-54178689D01*
X124328111Y-54330354D01*
X124397915Y-54498876D01*
X124433500Y-54677777D01*
X124433500Y-54860183D01*
X124397915Y-55039084D01*
X124328111Y-55207606D01*
X124226772Y-55359271D01*
X124097791Y-55488252D01*
X123946126Y-55589591D01*
X123777604Y-55659395D01*
X123598703Y-55694980D01*
X123416297Y-55694980D01*
X123237396Y-55659395D01*
X123068874Y-55589591D01*
X122917209Y-55488252D01*
X122788228Y-55359271D01*
X122686889Y-55207606D01*
X122617085Y-55039084D01*
X122581500Y-54860183D01*
X122581500Y-54677777D01*
X122617085Y-54498876D01*
X122686889Y-54330354D01*
X122788228Y-54178689D01*
X122917209Y-54049708D01*
X123068874Y-53948369D01*
X123237396Y-53878565D01*
X123416297Y-53842980D01*
X123598703Y-53842980D01*
X123777604Y-53878565D01*
G37*
G36*
X133937604Y-53878565D02*
G01*
X134106126Y-53948369D01*
X134257791Y-54049708D01*
X134386772Y-54178689D01*
X134488111Y-54330354D01*
X134557915Y-54498876D01*
X134593500Y-54677777D01*
X134593500Y-54860183D01*
X134557915Y-55039084D01*
X134488111Y-55207606D01*
X134386772Y-55359271D01*
X134257791Y-55488252D01*
X134106126Y-55589591D01*
X133937604Y-55659395D01*
X133758703Y-55694980D01*
X133576297Y-55694980D01*
X133397396Y-55659395D01*
X133228874Y-55589591D01*
X133077209Y-55488252D01*
X132948228Y-55359271D01*
X132846889Y-55207606D01*
X132777085Y-55039084D01*
X132741500Y-54860183D01*
X132741500Y-54677777D01*
X132777085Y-54498876D01*
X132846889Y-54330354D01*
X132948228Y-54178689D01*
X133077209Y-54049708D01*
X133228874Y-53948369D01*
X133397396Y-53878565D01*
X133576297Y-53842980D01*
X133758703Y-53842980D01*
X133937604Y-53878565D01*
G37*
G36*
X95837604Y-53878565D02*
G01*
X96006126Y-53948369D01*
X96157791Y-54049708D01*
X96286772Y-54178689D01*
X96388111Y-54330354D01*
X96457915Y-54498876D01*
X96493500Y-54677777D01*
X96493500Y-54860183D01*
X96457915Y-55039084D01*
X96388111Y-55207606D01*
X96286772Y-55359271D01*
X96157791Y-55488252D01*
X96006126Y-55589591D01*
X95837604Y-55659395D01*
X95658703Y-55694980D01*
X95476297Y-55694980D01*
X95297396Y-55659395D01*
X95128874Y-55589591D01*
X94977209Y-55488252D01*
X94848228Y-55359271D01*
X94746889Y-55207606D01*
X94677085Y-55039084D01*
X94641500Y-54860183D01*
X94641500Y-54677777D01*
X94677085Y-54498876D01*
X94746889Y-54330354D01*
X94848228Y-54178689D01*
X94977209Y-54049708D01*
X95128874Y-53948369D01*
X95297396Y-53878565D01*
X95476297Y-53842980D01*
X95658703Y-53842980D01*
X95837604Y-53878565D01*
G37*
G36*
X114887604Y-53878565D02*
G01*
X115056126Y-53948369D01*
X115207791Y-54049708D01*
X115336772Y-54178689D01*
X115438111Y-54330354D01*
X115507915Y-54498876D01*
X115543500Y-54677777D01*
X115543500Y-54860183D01*
X115507915Y-55039084D01*
X115438111Y-55207606D01*
X115336772Y-55359271D01*
X115207791Y-55488252D01*
X115056126Y-55589591D01*
X114887604Y-55659395D01*
X114708703Y-55694980D01*
X114526297Y-55694980D01*
X114347396Y-55659395D01*
X114178874Y-55589591D01*
X114027209Y-55488252D01*
X113898228Y-55359271D01*
X113796889Y-55207606D01*
X113727085Y-55039084D01*
X113691500Y-54860183D01*
X113691500Y-54677777D01*
X113727085Y-54498876D01*
X113796889Y-54330354D01*
X113898228Y-54178689D01*
X114027209Y-54049708D01*
X114178874Y-53948369D01*
X114347396Y-53878565D01*
X114526297Y-53842980D01*
X114708703Y-53842980D01*
X114887604Y-53878565D01*
G37*
G36*
X85677604Y-53878565D02*
G01*
X85846126Y-53948369D01*
X85997791Y-54049708D01*
X86126772Y-54178689D01*
X86228111Y-54330354D01*
X86297915Y-54498876D01*
X86333500Y-54677777D01*
X86333500Y-54860183D01*
X86297915Y-55039084D01*
X86228111Y-55207606D01*
X86126772Y-55359271D01*
X85997791Y-55488252D01*
X85846126Y-55589591D01*
X85677604Y-55659395D01*
X85498703Y-55694980D01*
X85316297Y-55694980D01*
X85137396Y-55659395D01*
X84968874Y-55589591D01*
X84817209Y-55488252D01*
X84688228Y-55359271D01*
X84586889Y-55207606D01*
X84517085Y-55039084D01*
X84481500Y-54860183D01*
X84481500Y-54677777D01*
X84517085Y-54498876D01*
X84586889Y-54330354D01*
X84688228Y-54178689D01*
X84817209Y-54049708D01*
X84968874Y-53948369D01*
X85137396Y-53878565D01*
X85316297Y-53842980D01*
X85498703Y-53842980D01*
X85677604Y-53878565D01*
G37*
G36*
X149770238Y-53763753D02*
G01*
X149919538Y-53793450D01*
X150083510Y-53861370D01*
X150231080Y-53959973D01*
X150356579Y-54085472D01*
X150455182Y-54233042D01*
X150523102Y-54397014D01*
X150557726Y-54571085D01*
X150557726Y-54748567D01*
X150523102Y-54922638D01*
X150455182Y-55086610D01*
X150356579Y-55234180D01*
X150231080Y-55359679D01*
X150083510Y-55458282D01*
X149919538Y-55526202D01*
X149770238Y-55555899D01*
X149745468Y-55560826D01*
X149567984Y-55560826D01*
X149543214Y-55555899D01*
X149393914Y-55526202D01*
X149229942Y-55458282D01*
X149082372Y-55359679D01*
X148956873Y-55234180D01*
X148858270Y-55086610D01*
X148790350Y-54922638D01*
X148755726Y-54748567D01*
X148755726Y-54571085D01*
X148790350Y-54397014D01*
X148858270Y-54233042D01*
X148956873Y-54085472D01*
X149082372Y-53959973D01*
X149229942Y-53861370D01*
X149393914Y-53793450D01*
X149543214Y-53763753D01*
X149567984Y-53758826D01*
X149745468Y-53758826D01*
X149770238Y-53763753D01*
G37*
G36*
X147285743Y-53235657D02*
G01*
X147435043Y-53265354D01*
X147599015Y-53333274D01*
X147746585Y-53431877D01*
X147872084Y-53557376D01*
X147970687Y-53704946D01*
X148038607Y-53868918D01*
X148073231Y-54042989D01*
X148073231Y-54220471D01*
X148038607Y-54394542D01*
X147970687Y-54558514D01*
X147872084Y-54706084D01*
X147746585Y-54831583D01*
X147599015Y-54930186D01*
X147435043Y-54998106D01*
X147285743Y-55027803D01*
X147260973Y-55032730D01*
X147083489Y-55032730D01*
X147058719Y-55027803D01*
X146909419Y-54998106D01*
X146745447Y-54930186D01*
X146597877Y-54831583D01*
X146472378Y-54706084D01*
X146373775Y-54558514D01*
X146305855Y-54394542D01*
X146271231Y-54220471D01*
X146271231Y-54042989D01*
X146305855Y-53868918D01*
X146373775Y-53704946D01*
X146472378Y-53557376D01*
X146597877Y-53431877D01*
X146745447Y-53333274D01*
X146909419Y-53265354D01*
X147058719Y-53235657D01*
X147083489Y-53230730D01*
X147260973Y-53230730D01*
X147285743Y-53235657D01*
G37*
G36*
X122828500Y-53679980D02*
G01*
X120176500Y-53679980D01*
X120176500Y-50777980D01*
X122828500Y-50777980D01*
X122828500Y-53679980D01*
G37*
G36*
X103778500Y-53679980D02*
G01*
X101126500Y-53679980D01*
X101126500Y-50777980D01*
X103778500Y-50777980D01*
X103778500Y-53679980D01*
G37*
G36*
X84728500Y-53679980D02*
G01*
X82076500Y-53679980D01*
X82076500Y-50777980D01*
X84728500Y-50777980D01*
X84728500Y-53679980D01*
G37*
G36*
X150298334Y-51279258D02*
G01*
X150447634Y-51308955D01*
X150611606Y-51376875D01*
X150759176Y-51475478D01*
X150884675Y-51600977D01*
X150983278Y-51748547D01*
X151051198Y-51912519D01*
X151085822Y-52086590D01*
X151085822Y-52264072D01*
X151051198Y-52438143D01*
X150983278Y-52602115D01*
X150884675Y-52749685D01*
X150759176Y-52875184D01*
X150611606Y-52973787D01*
X150447634Y-53041707D01*
X150298334Y-53071404D01*
X150273564Y-53076331D01*
X150096080Y-53076331D01*
X150071310Y-53071404D01*
X149922010Y-53041707D01*
X149758038Y-52973787D01*
X149610468Y-52875184D01*
X149484969Y-52749685D01*
X149386366Y-52602115D01*
X149318446Y-52438143D01*
X149283822Y-52264072D01*
X149283822Y-52086590D01*
X149318446Y-51912519D01*
X149386366Y-51748547D01*
X149484969Y-51600977D01*
X149610468Y-51475478D01*
X149758038Y-51376875D01*
X149922010Y-51308955D01*
X150071310Y-51279258D01*
X150096080Y-51274331D01*
X150273564Y-51274331D01*
X150298334Y-51279258D01*
G37*
G36*
X147813839Y-50751162D02*
G01*
X147963139Y-50780859D01*
X148127111Y-50848779D01*
X148274681Y-50947382D01*
X148400180Y-51072881D01*
X148498783Y-51220451D01*
X148566703Y-51384423D01*
X148601327Y-51558494D01*
X148601327Y-51735976D01*
X148566703Y-51910047D01*
X148498783Y-52074019D01*
X148400180Y-52221589D01*
X148274681Y-52347088D01*
X148127111Y-52445691D01*
X147963139Y-52513611D01*
X147813839Y-52543308D01*
X147789069Y-52548235D01*
X147611585Y-52548235D01*
X147586815Y-52543308D01*
X147437515Y-52513611D01*
X147273543Y-52445691D01*
X147125973Y-52347088D01*
X147000474Y-52221589D01*
X146901871Y-52074019D01*
X146833951Y-51910047D01*
X146799327Y-51735976D01*
X146799327Y-51558494D01*
X146833951Y-51384423D01*
X146901871Y-51220451D01*
X147000474Y-51072881D01*
X147125973Y-50947382D01*
X147273543Y-50848779D01*
X147437515Y-50780859D01*
X147586815Y-50751162D01*
X147611585Y-50746235D01*
X147789069Y-50746235D01*
X147813839Y-50751162D01*
G37*
G36*
X97628500Y-51139980D02*
G01*
X94976500Y-51139980D01*
X94976500Y-48237980D01*
X97628500Y-48237980D01*
X97628500Y-51139980D01*
G37*
G36*
X116678500Y-51139980D02*
G01*
X114026500Y-51139980D01*
X114026500Y-48237980D01*
X116678500Y-48237980D01*
X116678500Y-51139980D01*
G37*
G36*
X135728500Y-51139980D02*
G01*
X133076500Y-51139980D01*
X133076500Y-48237980D01*
X135728500Y-48237980D01*
X135728500Y-51139980D01*
G37*
G36*
X150826430Y-48794763D02*
G01*
X150975730Y-48824460D01*
X151139702Y-48892380D01*
X151287272Y-48990983D01*
X151412771Y-49116482D01*
X151511374Y-49264052D01*
X151579294Y-49428024D01*
X151613918Y-49602095D01*
X151613918Y-49779577D01*
X151579294Y-49953648D01*
X151511374Y-50117620D01*
X151412771Y-50265190D01*
X151287272Y-50390689D01*
X151139702Y-50489292D01*
X150975730Y-50557212D01*
X150826430Y-50586909D01*
X150801660Y-50591836D01*
X150624176Y-50591836D01*
X150599406Y-50586909D01*
X150450106Y-50557212D01*
X150286134Y-50489292D01*
X150138564Y-50390689D01*
X150013065Y-50265190D01*
X149914462Y-50117620D01*
X149846542Y-49953648D01*
X149811918Y-49779577D01*
X149811918Y-49602095D01*
X149846542Y-49428024D01*
X149914462Y-49264052D01*
X150013065Y-49116482D01*
X150138564Y-48990983D01*
X150286134Y-48892380D01*
X150450106Y-48824460D01*
X150599406Y-48794763D01*
X150624176Y-48789836D01*
X150801660Y-48789836D01*
X150826430Y-48794763D01*
G37*
G36*
X148341935Y-48266667D02*
G01*
X148491235Y-48296364D01*
X148655207Y-48364284D01*
X148802777Y-48462887D01*
X148928276Y-48588386D01*
X149026879Y-48735956D01*
X149094799Y-48899928D01*
X149129423Y-49073999D01*
X149129423Y-49251481D01*
X149094799Y-49425552D01*
X149026879Y-49589524D01*
X148928276Y-49737094D01*
X148802777Y-49862593D01*
X148655207Y-49961196D01*
X148491235Y-50029116D01*
X148341935Y-50058813D01*
X148317165Y-50063740D01*
X148139681Y-50063740D01*
X148114911Y-50058813D01*
X147965611Y-50029116D01*
X147801639Y-49961196D01*
X147654069Y-49862593D01*
X147528570Y-49737094D01*
X147429967Y-49589524D01*
X147362047Y-49425552D01*
X147327423Y-49251481D01*
X147327423Y-49073999D01*
X147362047Y-48899928D01*
X147429967Y-48735956D01*
X147528570Y-48588386D01*
X147654069Y-48462887D01*
X147801639Y-48364284D01*
X147965611Y-48296364D01*
X148114911Y-48266667D01*
X148139681Y-48261740D01*
X148317165Y-48261740D01*
X148341935Y-48266667D01*
G37*
G36*
X70806564Y-46099389D02*
G01*
X70997833Y-46178615D01*
X70997835Y-46178616D01*
X71169973Y-46293635D01*
X71316365Y-46440027D01*
X71416242Y-46589503D01*
X71431385Y-46612167D01*
X71510611Y-46803436D01*
X71551000Y-47006484D01*
X71551000Y-47213516D01*
X71510611Y-47416564D01*
X71431385Y-47607833D01*
X71431384Y-47607835D01*
X71316365Y-47779973D01*
X71169973Y-47926365D01*
X70997835Y-48041384D01*
X70997834Y-48041385D01*
X70997833Y-48041385D01*
X70806564Y-48120611D01*
X70603516Y-48161000D01*
X70396484Y-48161000D01*
X70193436Y-48120611D01*
X70002167Y-48041385D01*
X70002166Y-48041385D01*
X70002165Y-48041384D01*
X69830027Y-47926365D01*
X69683635Y-47779973D01*
X69568616Y-47607835D01*
X69568615Y-47607833D01*
X69489389Y-47416564D01*
X69449000Y-47213516D01*
X69449000Y-47006484D01*
X69489389Y-46803436D01*
X69568615Y-46612167D01*
X69583759Y-46589503D01*
X69683635Y-46440027D01*
X69830027Y-46293635D01*
X70002165Y-46178616D01*
X70002167Y-46178615D01*
X70193436Y-46099389D01*
X70396484Y-46059000D01*
X70603516Y-46059000D01*
X70806564Y-46099389D01*
G37*
G36*
X75806564Y-46099389D02*
G01*
X75997833Y-46178615D01*
X75997835Y-46178616D01*
X76169973Y-46293635D01*
X76316365Y-46440027D01*
X76416242Y-46589503D01*
X76431385Y-46612167D01*
X76510611Y-46803436D01*
X76551000Y-47006484D01*
X76551000Y-47213516D01*
X76510611Y-47416564D01*
X76431385Y-47607833D01*
X76431384Y-47607835D01*
X76316365Y-47779973D01*
X76169973Y-47926365D01*
X75997835Y-48041384D01*
X75997834Y-48041385D01*
X75997833Y-48041385D01*
X75806564Y-48120611D01*
X75603516Y-48161000D01*
X75396484Y-48161000D01*
X75193436Y-48120611D01*
X75002167Y-48041385D01*
X75002166Y-48041385D01*
X75002165Y-48041384D01*
X74830027Y-47926365D01*
X74683635Y-47779973D01*
X74568616Y-47607835D01*
X74568615Y-47607833D01*
X74489389Y-47416564D01*
X74449000Y-47213516D01*
X74449000Y-47006484D01*
X74489389Y-46803436D01*
X74568615Y-46612167D01*
X74583759Y-46589503D01*
X74683635Y-46440027D01*
X74830027Y-46293635D01*
X75002165Y-46178616D01*
X75002167Y-46178615D01*
X75193436Y-46099389D01*
X75396484Y-46059000D01*
X75603516Y-46059000D01*
X75806564Y-46099389D01*
G37*
G36*
X73306564Y-46099389D02*
G01*
X73497833Y-46178615D01*
X73497835Y-46178616D01*
X73669973Y-46293635D01*
X73816365Y-46440027D01*
X73916242Y-46589503D01*
X73931385Y-46612167D01*
X74010611Y-46803436D01*
X74051000Y-47006484D01*
X74051000Y-47213516D01*
X74010611Y-47416564D01*
X73931385Y-47607833D01*
X73931384Y-47607835D01*
X73816365Y-47779973D01*
X73669973Y-47926365D01*
X73497835Y-48041384D01*
X73497834Y-48041385D01*
X73497833Y-48041385D01*
X73306564Y-48120611D01*
X73103516Y-48161000D01*
X72896484Y-48161000D01*
X72693436Y-48120611D01*
X72502167Y-48041385D01*
X72502166Y-48041385D01*
X72502165Y-48041384D01*
X72330027Y-47926365D01*
X72183635Y-47779973D01*
X72068616Y-47607835D01*
X72068615Y-47607833D01*
X71989389Y-47416564D01*
X71949000Y-47213516D01*
X71949000Y-47006484D01*
X71989389Y-46803436D01*
X72068615Y-46612167D01*
X72083759Y-46589503D01*
X72183635Y-46440027D01*
X72330027Y-46293635D01*
X72502165Y-46178616D01*
X72502167Y-46178615D01*
X72693436Y-46099389D01*
X72896484Y-46059000D01*
X73103516Y-46059000D01*
X73306564Y-46099389D01*
G37*
G36*
X151354525Y-46310268D02*
G01*
X151503825Y-46339965D01*
X151667797Y-46407885D01*
X151815367Y-46506488D01*
X151940866Y-46631987D01*
X152039469Y-46779557D01*
X152107389Y-46943529D01*
X152142013Y-47117600D01*
X152142013Y-47295082D01*
X152107389Y-47469153D01*
X152039469Y-47633125D01*
X151940866Y-47780695D01*
X151815367Y-47906194D01*
X151667797Y-48004797D01*
X151503825Y-48072717D01*
X151354525Y-48102414D01*
X151329755Y-48107341D01*
X151152271Y-48107341D01*
X151127501Y-48102414D01*
X150978201Y-48072717D01*
X150814229Y-48004797D01*
X150666659Y-47906194D01*
X150541160Y-47780695D01*
X150442557Y-47633125D01*
X150374637Y-47469153D01*
X150340013Y-47295082D01*
X150340013Y-47117600D01*
X150374637Y-46943529D01*
X150442557Y-46779557D01*
X150541160Y-46631987D01*
X150666659Y-46506488D01*
X150814229Y-46407885D01*
X150978201Y-46339965D01*
X151127501Y-46310268D01*
X151152271Y-46305341D01*
X151329755Y-46305341D01*
X151354525Y-46310268D01*
G37*
G36*
X148870030Y-45782172D02*
G01*
X149019330Y-45811869D01*
X149183302Y-45879789D01*
X149330872Y-45978392D01*
X149456371Y-46103891D01*
X149554974Y-46251461D01*
X149622894Y-46415433D01*
X149657518Y-46589504D01*
X149657518Y-46766986D01*
X149622894Y-46941057D01*
X149554974Y-47105029D01*
X149456371Y-47252599D01*
X149330872Y-47378098D01*
X149183302Y-47476701D01*
X149019330Y-47544621D01*
X148870030Y-47574318D01*
X148845260Y-47579245D01*
X148667776Y-47579245D01*
X148643006Y-47574318D01*
X148493706Y-47544621D01*
X148329734Y-47476701D01*
X148182164Y-47378098D01*
X148056665Y-47252599D01*
X147958062Y-47105029D01*
X147890142Y-46941057D01*
X147855518Y-46766986D01*
X147855518Y-46589504D01*
X147890142Y-46415433D01*
X147958062Y-46251461D01*
X148056665Y-46103891D01*
X148182164Y-45978392D01*
X148329734Y-45879789D01*
X148493706Y-45811869D01*
X148643006Y-45782172D01*
X148667776Y-45777245D01*
X148845260Y-45777245D01*
X148870030Y-45782172D01*
G37*
G36*
X97122425Y-45736599D02*
G01*
X97246621Y-45761302D01*
X97383022Y-45817801D01*
X97505779Y-45899825D01*
X97610175Y-46004221D01*
X97692199Y-46126978D01*
X97748698Y-46263379D01*
X97777500Y-46408181D01*
X97777500Y-46555819D01*
X97748698Y-46700621D01*
X97692199Y-46837022D01*
X97610175Y-46959779D01*
X97505779Y-47064175D01*
X97383022Y-47146199D01*
X97246621Y-47202698D01*
X97122425Y-47227401D01*
X97101820Y-47231500D01*
X96954180Y-47231500D01*
X96933575Y-47227401D01*
X96809379Y-47202698D01*
X96672978Y-47146199D01*
X96550221Y-47064175D01*
X96445825Y-46959779D01*
X96363801Y-46837022D01*
X96307302Y-46700621D01*
X96278500Y-46555819D01*
X96278500Y-46408181D01*
X96307302Y-46263379D01*
X96363801Y-46126978D01*
X96445825Y-46004221D01*
X96550221Y-45899825D01*
X96672978Y-45817801D01*
X96809379Y-45761302D01*
X96933575Y-45736599D01*
X96954180Y-45732500D01*
X97101820Y-45732500D01*
X97122425Y-45736599D01*
G37*
G36*
X90157500Y-47231500D02*
G01*
X88658500Y-47231500D01*
X88658500Y-45732500D01*
X90157500Y-45732500D01*
X90157500Y-47231500D01*
G37*
G36*
X109207500Y-47231500D02*
G01*
X107708500Y-47231500D01*
X107708500Y-45732500D01*
X109207500Y-45732500D01*
X109207500Y-47231500D01*
G37*
G36*
X116172425Y-45736599D02*
G01*
X116296621Y-45761302D01*
X116433022Y-45817801D01*
X116555779Y-45899825D01*
X116660175Y-46004221D01*
X116742199Y-46126978D01*
X116798698Y-46263379D01*
X116827500Y-46408181D01*
X116827500Y-46555819D01*
X116798698Y-46700621D01*
X116742199Y-46837022D01*
X116660175Y-46959779D01*
X116555779Y-47064175D01*
X116433022Y-47146199D01*
X116296621Y-47202698D01*
X116172425Y-47227401D01*
X116151820Y-47231500D01*
X116004180Y-47231500D01*
X115983575Y-47227401D01*
X115859379Y-47202698D01*
X115722978Y-47146199D01*
X115600221Y-47064175D01*
X115495825Y-46959779D01*
X115413801Y-46837022D01*
X115357302Y-46700621D01*
X115328500Y-46555819D01*
X115328500Y-46408181D01*
X115357302Y-46263379D01*
X115413801Y-46126978D01*
X115495825Y-46004221D01*
X115600221Y-45899825D01*
X115722978Y-45817801D01*
X115859379Y-45761302D01*
X115983575Y-45736599D01*
X116004180Y-45732500D01*
X116151820Y-45732500D01*
X116172425Y-45736599D01*
G37*
G36*
X128003500Y-47231500D02*
G01*
X126504500Y-47231500D01*
X126504500Y-45732500D01*
X128003500Y-45732500D01*
X128003500Y-47231500D01*
G37*
G36*
X134968425Y-45736599D02*
G01*
X135092621Y-45761302D01*
X135229022Y-45817801D01*
X135351779Y-45899825D01*
X135456175Y-46004221D01*
X135538199Y-46126978D01*
X135594698Y-46263379D01*
X135623500Y-46408181D01*
X135623500Y-46555819D01*
X135594698Y-46700621D01*
X135538199Y-46837022D01*
X135456175Y-46959779D01*
X135351779Y-47064175D01*
X135229022Y-47146199D01*
X135092621Y-47202698D01*
X134968425Y-47227401D01*
X134947820Y-47231500D01*
X134800180Y-47231500D01*
X134779575Y-47227401D01*
X134655379Y-47202698D01*
X134518978Y-47146199D01*
X134396221Y-47064175D01*
X134291825Y-46959779D01*
X134209801Y-46837022D01*
X134153302Y-46700621D01*
X134124500Y-46555819D01*
X134124500Y-46408181D01*
X134153302Y-46263379D01*
X134209801Y-46126978D01*
X134291825Y-46004221D01*
X134396221Y-45899825D01*
X134518978Y-45817801D01*
X134655379Y-45761302D01*
X134779575Y-45736599D01*
X134800180Y-45732500D01*
X134947820Y-45732500D01*
X134968425Y-45736599D01*
G37*
G36*
X111194000Y-47008000D02*
G01*
X109792000Y-47008000D01*
X109792000Y-45956000D01*
X111194000Y-45956000D01*
X111194000Y-47008000D01*
G37*
G36*
X114744000Y-47008000D02*
G01*
X113342000Y-47008000D01*
X113342000Y-45956000D01*
X114744000Y-45956000D01*
X114744000Y-47008000D01*
G37*
G36*
X129990000Y-47008000D02*
G01*
X128588000Y-47008000D01*
X128588000Y-45956000D01*
X129990000Y-45956000D01*
X129990000Y-47008000D01*
G37*
G36*
X133540000Y-47008000D02*
G01*
X132138000Y-47008000D01*
X132138000Y-45956000D01*
X133540000Y-45956000D01*
X133540000Y-47008000D01*
G37*
G36*
X92144000Y-47008000D02*
G01*
X90742000Y-47008000D01*
X90742000Y-45956000D01*
X92144000Y-45956000D01*
X92144000Y-47008000D01*
G37*
G36*
X95694000Y-47008000D02*
G01*
X94292000Y-47008000D01*
X94292000Y-45956000D01*
X95694000Y-45956000D01*
X95694000Y-47008000D01*
G37*
G36*
X151882621Y-43825773D02*
G01*
X152031921Y-43855470D01*
X152195893Y-43923390D01*
X152343463Y-44021993D01*
X152468962Y-44147492D01*
X152567565Y-44295062D01*
X152635485Y-44459034D01*
X152670109Y-44633105D01*
X152670109Y-44810587D01*
X152635485Y-44984658D01*
X152567565Y-45148630D01*
X152468962Y-45296200D01*
X152343463Y-45421699D01*
X152195893Y-45520302D01*
X152031921Y-45588222D01*
X151882621Y-45617919D01*
X151857851Y-45622846D01*
X151680367Y-45622846D01*
X151655597Y-45617919D01*
X151506297Y-45588222D01*
X151342325Y-45520302D01*
X151194755Y-45421699D01*
X151069256Y-45296200D01*
X150970653Y-45148630D01*
X150902733Y-44984658D01*
X150868109Y-44810587D01*
X150868109Y-44633105D01*
X150902733Y-44459034D01*
X150970653Y-44295062D01*
X151069256Y-44147492D01*
X151194755Y-44021993D01*
X151342325Y-43923390D01*
X151506297Y-43855470D01*
X151655597Y-43825773D01*
X151680367Y-43820846D01*
X151857851Y-43820846D01*
X151882621Y-43825773D01*
G37*
G36*
X149398126Y-43297678D02*
G01*
X149547426Y-43327375D01*
X149711398Y-43395295D01*
X149858968Y-43493898D01*
X149984467Y-43619397D01*
X150083070Y-43766967D01*
X150150990Y-43930939D01*
X150185614Y-44105010D01*
X150185614Y-44282492D01*
X150150990Y-44456563D01*
X150083070Y-44620535D01*
X149984467Y-44768105D01*
X149858968Y-44893604D01*
X149711398Y-44992207D01*
X149547426Y-45060127D01*
X149398126Y-45089824D01*
X149373356Y-45094751D01*
X149195872Y-45094751D01*
X149171102Y-45089824D01*
X149021802Y-45060127D01*
X148857830Y-44992207D01*
X148710260Y-44893604D01*
X148584761Y-44768105D01*
X148486158Y-44620535D01*
X148418238Y-44456563D01*
X148383614Y-44282492D01*
X148383614Y-44105010D01*
X148418238Y-43930939D01*
X148486158Y-43766967D01*
X148584761Y-43619397D01*
X148710260Y-43493898D01*
X148857830Y-43395295D01*
X149021802Y-43327375D01*
X149171102Y-43297678D01*
X149195872Y-43292751D01*
X149373356Y-43292751D01*
X149398126Y-43297678D01*
G37*
G36*
X74154600Y-42917817D02*
G01*
X73779943Y-44680440D01*
X72017320Y-44305783D01*
X72391977Y-42543160D01*
X74154600Y-42917817D01*
G37*
G36*
X70714977Y-42187631D02*
G01*
X70864277Y-42217328D01*
X71028249Y-42285248D01*
X71175819Y-42383851D01*
X71301318Y-42509350D01*
X71399921Y-42656920D01*
X71467841Y-42820892D01*
X71502465Y-42994963D01*
X71502465Y-43172445D01*
X71467841Y-43346516D01*
X71399921Y-43510488D01*
X71301318Y-43658058D01*
X71175819Y-43783557D01*
X71028249Y-43882160D01*
X70864277Y-43950080D01*
X70714977Y-43979777D01*
X70690207Y-43984704D01*
X70512723Y-43984704D01*
X70487953Y-43979777D01*
X70338653Y-43950080D01*
X70174681Y-43882160D01*
X70027111Y-43783557D01*
X69901612Y-43658058D01*
X69803009Y-43510488D01*
X69735089Y-43346516D01*
X69700465Y-43172445D01*
X69700465Y-42994963D01*
X69735089Y-42820892D01*
X69803009Y-42656920D01*
X69901612Y-42509350D01*
X70027111Y-42383851D01*
X70174681Y-42285248D01*
X70338653Y-42217328D01*
X70487953Y-42187631D01*
X70512723Y-42182704D01*
X70690207Y-42182704D01*
X70714977Y-42187631D01*
G37*
G36*
X73727568Y-40231232D02*
G01*
X73876868Y-40260929D01*
X74040840Y-40328849D01*
X74188410Y-40427452D01*
X74313909Y-40552951D01*
X74412512Y-40700521D01*
X74480432Y-40864493D01*
X74515056Y-41038564D01*
X74515056Y-41216046D01*
X74480432Y-41390117D01*
X74412512Y-41554089D01*
X74313909Y-41701659D01*
X74188410Y-41827158D01*
X74040840Y-41925761D01*
X73876868Y-41993681D01*
X73727568Y-42023378D01*
X73702798Y-42028305D01*
X73525314Y-42028305D01*
X73500544Y-42023378D01*
X73351244Y-41993681D01*
X73187272Y-41925761D01*
X73039702Y-41827158D01*
X72914203Y-41701659D01*
X72815600Y-41554089D01*
X72747680Y-41390117D01*
X72713056Y-41216046D01*
X72713056Y-41038564D01*
X72747680Y-40864493D01*
X72815600Y-40700521D01*
X72914203Y-40552951D01*
X73039702Y-40427452D01*
X73187272Y-40328849D01*
X73351244Y-40260929D01*
X73500544Y-40231232D01*
X73525314Y-40226305D01*
X73702798Y-40226305D01*
X73727568Y-40231232D01*
G37*
G36*
X71243073Y-39703136D02*
G01*
X71392373Y-39732833D01*
X71556345Y-39800753D01*
X71703915Y-39899356D01*
X71829414Y-40024855D01*
X71928017Y-40172425D01*
X71995937Y-40336397D01*
X72030561Y-40510468D01*
X72030561Y-40687950D01*
X71995937Y-40862021D01*
X71928017Y-41025993D01*
X71829414Y-41173563D01*
X71703915Y-41299062D01*
X71556345Y-41397665D01*
X71392373Y-41465585D01*
X71243073Y-41495282D01*
X71218303Y-41500209D01*
X71040819Y-41500209D01*
X71016049Y-41495282D01*
X70866749Y-41465585D01*
X70702777Y-41397665D01*
X70555207Y-41299062D01*
X70429708Y-41173563D01*
X70331105Y-41025993D01*
X70263185Y-40862021D01*
X70228561Y-40687950D01*
X70228561Y-40510468D01*
X70263185Y-40336397D01*
X70331105Y-40172425D01*
X70429708Y-40024855D01*
X70555207Y-39899356D01*
X70702777Y-39800753D01*
X70866749Y-39732833D01*
X71016049Y-39703136D01*
X71040819Y-39698209D01*
X71218303Y-39698209D01*
X71243073Y-39703136D01*
G37*
G36*
X112108425Y-39894599D02*
G01*
X112232621Y-39919302D01*
X112369022Y-39975801D01*
X112491779Y-40057825D01*
X112596175Y-40162221D01*
X112678199Y-40284978D01*
X112734698Y-40421379D01*
X112752418Y-40510467D01*
X112760869Y-40552951D01*
X112763500Y-40566181D01*
X112763500Y-40713819D01*
X112734698Y-40858621D01*
X112678199Y-40995022D01*
X112596175Y-41117779D01*
X112491779Y-41222175D01*
X112369022Y-41304199D01*
X112232621Y-41360698D01*
X112108425Y-41385401D01*
X112087820Y-41389500D01*
X111940180Y-41389500D01*
X111919575Y-41385401D01*
X111795379Y-41360698D01*
X111658978Y-41304199D01*
X111536221Y-41222175D01*
X111431825Y-41117779D01*
X111349801Y-40995022D01*
X111293302Y-40858621D01*
X111264500Y-40713819D01*
X111264500Y-40566181D01*
X111267132Y-40552951D01*
X111275582Y-40510467D01*
X111293302Y-40421379D01*
X111349801Y-40284978D01*
X111431825Y-40162221D01*
X111536221Y-40057825D01*
X111658978Y-39975801D01*
X111795379Y-39919302D01*
X111919575Y-39894599D01*
X111940180Y-39890500D01*
X112087820Y-39890500D01*
X112108425Y-39894599D01*
G37*
G36*
X105143500Y-41389500D02*
G01*
X103644500Y-41389500D01*
X103644500Y-39890500D01*
X105143500Y-39890500D01*
X105143500Y-41389500D01*
G37*
G36*
X93967500Y-41389500D02*
G01*
X92468500Y-41389500D01*
X92468500Y-39890500D01*
X93967500Y-39890500D01*
X93967500Y-41389500D01*
G37*
G36*
X100932425Y-39894599D02*
G01*
X101056621Y-39919302D01*
X101193022Y-39975801D01*
X101315779Y-40057825D01*
X101420175Y-40162221D01*
X101502199Y-40284978D01*
X101558698Y-40421379D01*
X101576418Y-40510467D01*
X101584869Y-40552951D01*
X101587500Y-40566181D01*
X101587500Y-40713819D01*
X101558698Y-40858621D01*
X101502199Y-40995022D01*
X101420175Y-41117779D01*
X101315779Y-41222175D01*
X101193022Y-41304199D01*
X101056621Y-41360698D01*
X100932425Y-41385401D01*
X100911820Y-41389500D01*
X100764180Y-41389500D01*
X100743575Y-41385401D01*
X100619379Y-41360698D01*
X100482978Y-41304199D01*
X100360221Y-41222175D01*
X100255825Y-41117779D01*
X100173801Y-40995022D01*
X100117302Y-40858621D01*
X100088500Y-40713819D01*
X100088500Y-40566181D01*
X100091132Y-40552951D01*
X100099582Y-40510467D01*
X100117302Y-40421379D01*
X100173801Y-40284978D01*
X100255825Y-40162221D01*
X100360221Y-40057825D01*
X100482978Y-39975801D01*
X100619379Y-39919302D01*
X100743575Y-39894599D01*
X100764180Y-39890500D01*
X100911820Y-39890500D01*
X100932425Y-39894599D01*
G37*
G36*
X90010425Y-39894599D02*
G01*
X90134621Y-39919302D01*
X90271022Y-39975801D01*
X90393779Y-40057825D01*
X90498175Y-40162221D01*
X90580199Y-40284978D01*
X90636698Y-40421379D01*
X90654418Y-40510467D01*
X90662869Y-40552951D01*
X90665500Y-40566181D01*
X90665500Y-40713819D01*
X90636698Y-40858621D01*
X90580199Y-40995022D01*
X90498175Y-41117779D01*
X90393779Y-41222175D01*
X90271022Y-41304199D01*
X90134621Y-41360698D01*
X90010425Y-41385401D01*
X89989820Y-41389500D01*
X89842180Y-41389500D01*
X89821575Y-41385401D01*
X89697379Y-41360698D01*
X89560978Y-41304199D01*
X89438221Y-41222175D01*
X89333825Y-41117779D01*
X89251801Y-40995022D01*
X89195302Y-40858621D01*
X89166500Y-40713819D01*
X89166500Y-40566181D01*
X89169132Y-40552951D01*
X89177582Y-40510467D01*
X89195302Y-40421379D01*
X89251801Y-40284978D01*
X89333825Y-40162221D01*
X89438221Y-40057825D01*
X89560978Y-39975801D01*
X89697379Y-39919302D01*
X89821575Y-39894599D01*
X89842180Y-39890500D01*
X89989820Y-39890500D01*
X90010425Y-39894599D01*
G37*
G36*
X83045500Y-41389500D02*
G01*
X81546500Y-41389500D01*
X81546500Y-39890500D01*
X83045500Y-39890500D01*
X83045500Y-41389500D01*
G37*
G36*
X107130000Y-41166000D02*
G01*
X105728000Y-41166000D01*
X105728000Y-40114000D01*
X107130000Y-40114000D01*
X107130000Y-41166000D01*
G37*
G36*
X99504000Y-41166000D02*
G01*
X98102000Y-41166000D01*
X98102000Y-40114000D01*
X99504000Y-40114000D01*
X99504000Y-41166000D01*
G37*
G36*
X110680000Y-41166000D02*
G01*
X109278000Y-41166000D01*
X109278000Y-40114000D01*
X110680000Y-40114000D01*
X110680000Y-41166000D01*
G37*
G36*
X95954000Y-41166000D02*
G01*
X94552000Y-41166000D01*
X94552000Y-40114000D01*
X95954000Y-40114000D01*
X95954000Y-41166000D01*
G37*
G36*
X85032000Y-41166000D02*
G01*
X83630000Y-41166000D01*
X83630000Y-40114000D01*
X85032000Y-40114000D01*
X85032000Y-41166000D01*
G37*
G36*
X88582000Y-41166000D02*
G01*
X87180000Y-41166000D01*
X87180000Y-40114000D01*
X88582000Y-40114000D01*
X88582000Y-41166000D01*
G37*
G36*
X74255663Y-37746737D02*
G01*
X74404963Y-37776434D01*
X74568935Y-37844354D01*
X74716505Y-37942957D01*
X74842004Y-38068456D01*
X74940607Y-38216026D01*
X75008527Y-38379998D01*
X75043151Y-38554069D01*
X75043151Y-38731551D01*
X75008527Y-38905622D01*
X74940607Y-39069594D01*
X74842004Y-39217164D01*
X74716505Y-39342663D01*
X74568935Y-39441266D01*
X74404963Y-39509186D01*
X74255663Y-39538883D01*
X74230893Y-39543810D01*
X74053409Y-39543810D01*
X74028639Y-39538883D01*
X73879339Y-39509186D01*
X73715367Y-39441266D01*
X73567797Y-39342663D01*
X73442298Y-39217164D01*
X73343695Y-39069594D01*
X73275775Y-38905622D01*
X73241151Y-38731551D01*
X73241151Y-38554069D01*
X73275775Y-38379998D01*
X73343695Y-38216026D01*
X73442298Y-38068456D01*
X73567797Y-37942957D01*
X73715367Y-37844354D01*
X73879339Y-37776434D01*
X74028639Y-37746737D01*
X74053409Y-37741810D01*
X74230893Y-37741810D01*
X74255663Y-37746737D01*
G37*
G36*
X71771168Y-37218641D02*
G01*
X71920468Y-37248338D01*
X72084440Y-37316258D01*
X72232010Y-37414861D01*
X72357509Y-37540360D01*
X72456112Y-37687930D01*
X72524032Y-37851902D01*
X72558656Y-38025973D01*
X72558656Y-38203455D01*
X72524032Y-38377526D01*
X72456112Y-38541498D01*
X72357509Y-38689068D01*
X72232010Y-38814567D01*
X72084440Y-38913170D01*
X71920468Y-38981090D01*
X71771168Y-39010787D01*
X71746398Y-39015714D01*
X71568914Y-39015714D01*
X71544144Y-39010787D01*
X71394844Y-38981090D01*
X71230872Y-38913170D01*
X71083302Y-38814567D01*
X70957803Y-38689068D01*
X70859200Y-38541498D01*
X70791280Y-38377526D01*
X70756656Y-38203455D01*
X70756656Y-38025973D01*
X70791280Y-37851902D01*
X70859200Y-37687930D01*
X70957803Y-37540360D01*
X71083302Y-37414861D01*
X71230872Y-37316258D01*
X71394844Y-37248338D01*
X71544144Y-37218641D01*
X71568914Y-37213714D01*
X71746398Y-37213714D01*
X71771168Y-37218641D01*
G37*
G36*
X83045500Y-38595500D02*
G01*
X81546500Y-38595500D01*
X81546500Y-37096500D01*
X83045500Y-37096500D01*
X83045500Y-38595500D01*
G37*
G36*
X90010425Y-37100599D02*
G01*
X90134621Y-37125302D01*
X90271022Y-37181801D01*
X90393779Y-37263825D01*
X90498175Y-37368221D01*
X90580199Y-37490978D01*
X90636698Y-37627379D01*
X90665500Y-37772181D01*
X90665500Y-37919819D01*
X90636698Y-38064621D01*
X90580199Y-38201022D01*
X90498175Y-38323779D01*
X90393779Y-38428175D01*
X90271022Y-38510199D01*
X90134621Y-38566698D01*
X90010425Y-38591401D01*
X89989820Y-38595500D01*
X89842180Y-38595500D01*
X89821575Y-38591401D01*
X89697379Y-38566698D01*
X89560978Y-38510199D01*
X89438221Y-38428175D01*
X89333825Y-38323779D01*
X89251801Y-38201022D01*
X89195302Y-38064621D01*
X89166500Y-37919819D01*
X89166500Y-37772181D01*
X89195302Y-37627379D01*
X89251801Y-37490978D01*
X89333825Y-37368221D01*
X89438221Y-37263825D01*
X89560978Y-37181801D01*
X89697379Y-37125302D01*
X89821575Y-37100599D01*
X89842180Y-37096500D01*
X89989820Y-37096500D01*
X90010425Y-37100599D01*
G37*
G36*
X93967500Y-38595500D02*
G01*
X92468500Y-38595500D01*
X92468500Y-37096500D01*
X93967500Y-37096500D01*
X93967500Y-38595500D01*
G37*
G36*
X100932425Y-37100599D02*
G01*
X101056621Y-37125302D01*
X101193022Y-37181801D01*
X101315779Y-37263825D01*
X101420175Y-37368221D01*
X101502199Y-37490978D01*
X101558698Y-37627379D01*
X101587500Y-37772181D01*
X101587500Y-37919819D01*
X101558698Y-38064621D01*
X101502199Y-38201022D01*
X101420175Y-38323779D01*
X101315779Y-38428175D01*
X101193022Y-38510199D01*
X101056621Y-38566698D01*
X100932425Y-38591401D01*
X100911820Y-38595500D01*
X100764180Y-38595500D01*
X100743575Y-38591401D01*
X100619379Y-38566698D01*
X100482978Y-38510199D01*
X100360221Y-38428175D01*
X100255825Y-38323779D01*
X100173801Y-38201022D01*
X100117302Y-38064621D01*
X100088500Y-37919819D01*
X100088500Y-37772181D01*
X100117302Y-37627379D01*
X100173801Y-37490978D01*
X100255825Y-37368221D01*
X100360221Y-37263825D01*
X100482978Y-37181801D01*
X100619379Y-37125302D01*
X100743575Y-37100599D01*
X100764180Y-37096500D01*
X100911820Y-37096500D01*
X100932425Y-37100599D01*
G37*
G36*
X105143500Y-38595500D02*
G01*
X103644500Y-38595500D01*
X103644500Y-37096500D01*
X105143500Y-37096500D01*
X105143500Y-38595500D01*
G37*
G36*
X112108425Y-37100599D02*
G01*
X112232621Y-37125302D01*
X112369022Y-37181801D01*
X112491779Y-37263825D01*
X112596175Y-37368221D01*
X112678199Y-37490978D01*
X112734698Y-37627379D01*
X112763500Y-37772181D01*
X112763500Y-37919819D01*
X112734698Y-38064621D01*
X112678199Y-38201022D01*
X112596175Y-38323779D01*
X112491779Y-38428175D01*
X112369022Y-38510199D01*
X112232621Y-38566698D01*
X112108425Y-38591401D01*
X112087820Y-38595500D01*
X111940180Y-38595500D01*
X111919575Y-38591401D01*
X111795379Y-38566698D01*
X111658978Y-38510199D01*
X111536221Y-38428175D01*
X111431825Y-38323779D01*
X111349801Y-38201022D01*
X111293302Y-38064621D01*
X111264500Y-37919819D01*
X111264500Y-37772181D01*
X111293302Y-37627379D01*
X111349801Y-37490978D01*
X111431825Y-37368221D01*
X111536221Y-37263825D01*
X111658978Y-37181801D01*
X111795379Y-37125302D01*
X111919575Y-37100599D01*
X111940180Y-37096500D01*
X112087820Y-37096500D01*
X112108425Y-37100599D01*
G37*
G36*
X99504000Y-38372000D02*
G01*
X98102000Y-38372000D01*
X98102000Y-37320000D01*
X99504000Y-37320000D01*
X99504000Y-38372000D01*
G37*
G36*
X95954000Y-38372000D02*
G01*
X94552000Y-38372000D01*
X94552000Y-37320000D01*
X95954000Y-37320000D01*
X95954000Y-38372000D01*
G37*
G36*
X110680000Y-38372000D02*
G01*
X109278000Y-38372000D01*
X109278000Y-37320000D01*
X110680000Y-37320000D01*
X110680000Y-38372000D01*
G37*
G36*
X107130000Y-38372000D02*
G01*
X105728000Y-38372000D01*
X105728000Y-37320000D01*
X107130000Y-37320000D01*
X107130000Y-38372000D01*
G37*
G36*
X85032000Y-38372000D02*
G01*
X83630000Y-38372000D01*
X83630000Y-37320000D01*
X85032000Y-37320000D01*
X85032000Y-38372000D01*
G37*
G36*
X88582000Y-38372000D02*
G01*
X87180000Y-38372000D01*
X87180000Y-37320000D01*
X88582000Y-37320000D01*
X88582000Y-38372000D01*
G37*
G36*
X74783759Y-35262242D02*
G01*
X74933059Y-35291939D01*
X75097031Y-35359859D01*
X75244601Y-35458462D01*
X75370100Y-35583961D01*
X75468703Y-35731531D01*
X75536623Y-35895503D01*
X75571247Y-36069574D01*
X75571247Y-36247056D01*
X75536623Y-36421127D01*
X75468703Y-36585099D01*
X75370100Y-36732669D01*
X75244601Y-36858168D01*
X75097031Y-36956771D01*
X74933059Y-37024691D01*
X74783759Y-37054388D01*
X74758989Y-37059315D01*
X74581505Y-37059315D01*
X74556735Y-37054388D01*
X74407435Y-37024691D01*
X74243463Y-36956771D01*
X74095893Y-36858168D01*
X73970394Y-36732669D01*
X73871791Y-36585099D01*
X73803871Y-36421127D01*
X73769247Y-36247056D01*
X73769247Y-36069574D01*
X73803871Y-35895503D01*
X73871791Y-35731531D01*
X73970394Y-35583961D01*
X74095893Y-35458462D01*
X74243463Y-35359859D01*
X74407435Y-35291939D01*
X74556735Y-35262242D01*
X74581505Y-35257315D01*
X74758989Y-35257315D01*
X74783759Y-35262242D01*
G37*
G36*
X72299264Y-34734147D02*
G01*
X72448564Y-34763844D01*
X72612536Y-34831764D01*
X72760106Y-34930367D01*
X72885605Y-35055866D01*
X72984208Y-35203436D01*
X73052128Y-35367408D01*
X73086752Y-35541479D01*
X73086752Y-35718961D01*
X73052128Y-35893032D01*
X72984208Y-36057004D01*
X72885605Y-36204574D01*
X72760106Y-36330073D01*
X72612536Y-36428676D01*
X72448564Y-36496596D01*
X72299264Y-36526293D01*
X72274494Y-36531220D01*
X72097010Y-36531220D01*
X72072240Y-36526293D01*
X71922940Y-36496596D01*
X71758968Y-36428676D01*
X71611398Y-36330073D01*
X71485899Y-36204574D01*
X71387296Y-36057004D01*
X71319376Y-35893032D01*
X71284752Y-35718961D01*
X71284752Y-35541479D01*
X71319376Y-35367408D01*
X71387296Y-35203436D01*
X71485899Y-35055866D01*
X71611398Y-34930367D01*
X71758968Y-34831764D01*
X71922940Y-34763844D01*
X72072240Y-34734147D01*
X72097010Y-34729220D01*
X72274494Y-34729220D01*
X72299264Y-34734147D01*
G37*
G36*
X100276997Y-32946214D02*
G01*
X100426297Y-32975911D01*
X100590269Y-33043831D01*
X100737839Y-33142434D01*
X100863338Y-33267933D01*
X100961941Y-33415503D01*
X101029861Y-33579475D01*
X101064485Y-33753546D01*
X101064485Y-33931028D01*
X101029861Y-34105099D01*
X100961941Y-34269071D01*
X100863338Y-34416641D01*
X100737839Y-34542140D01*
X100590269Y-34640743D01*
X100426297Y-34708663D01*
X100276997Y-34738360D01*
X100252227Y-34743287D01*
X100074743Y-34743287D01*
X100049973Y-34738360D01*
X99900673Y-34708663D01*
X99736701Y-34640743D01*
X99589131Y-34542140D01*
X99463632Y-34416641D01*
X99365029Y-34269071D01*
X99297109Y-34105099D01*
X99262485Y-33931028D01*
X99262485Y-33753546D01*
X99297109Y-33579475D01*
X99365029Y-33415503D01*
X99463632Y-33267933D01*
X99589131Y-33142434D01*
X99736701Y-33043831D01*
X99900673Y-32975911D01*
X100049973Y-32946214D01*
X100074743Y-32941287D01*
X100252227Y-32941287D01*
X100276997Y-32946214D01*
G37*
G36*
X75311855Y-32777747D02*
G01*
X75461155Y-32807444D01*
X75625127Y-32875364D01*
X75772697Y-32973967D01*
X75898196Y-33099466D01*
X75996799Y-33247036D01*
X76064719Y-33411008D01*
X76099343Y-33585079D01*
X76099343Y-33762561D01*
X76064719Y-33936632D01*
X75996799Y-34100604D01*
X75898196Y-34248174D01*
X75772697Y-34373673D01*
X75625127Y-34472276D01*
X75461155Y-34540196D01*
X75311855Y-34569893D01*
X75287085Y-34574820D01*
X75109601Y-34574820D01*
X75084831Y-34569893D01*
X74935531Y-34540196D01*
X74771559Y-34472276D01*
X74623989Y-34373673D01*
X74498490Y-34248174D01*
X74399887Y-34100604D01*
X74331967Y-33936632D01*
X74297343Y-33762561D01*
X74297343Y-33585079D01*
X74331967Y-33411008D01*
X74399887Y-33247036D01*
X74498490Y-33099466D01*
X74623989Y-32973967D01*
X74771559Y-32875364D01*
X74935531Y-32807444D01*
X75084831Y-32777747D01*
X75109601Y-32772820D01*
X75287085Y-32772820D01*
X75311855Y-32777747D01*
G37*
G36*
X97792502Y-32418119D02*
G01*
X97941802Y-32447816D01*
X98105774Y-32515736D01*
X98253344Y-32614339D01*
X98378843Y-32739838D01*
X98477446Y-32887408D01*
X98545366Y-33051380D01*
X98579990Y-33225451D01*
X98579990Y-33402933D01*
X98545366Y-33577004D01*
X98477446Y-33740976D01*
X98378843Y-33888546D01*
X98253344Y-34014045D01*
X98105774Y-34112648D01*
X97941802Y-34180568D01*
X97792502Y-34210265D01*
X97767732Y-34215192D01*
X97590248Y-34215192D01*
X97565478Y-34210265D01*
X97416178Y-34180568D01*
X97252206Y-34112648D01*
X97104636Y-34014045D01*
X96979137Y-33888546D01*
X96880534Y-33740976D01*
X96812614Y-33577004D01*
X96777990Y-33402933D01*
X96777990Y-33225451D01*
X96812614Y-33051380D01*
X96880534Y-32887408D01*
X96979137Y-32739838D01*
X97104636Y-32614339D01*
X97252206Y-32515736D01*
X97416178Y-32447816D01*
X97565478Y-32418119D01*
X97590248Y-32413192D01*
X97767732Y-32413192D01*
X97792502Y-32418119D01*
G37*
G36*
X72827360Y-32249652D02*
G01*
X72976660Y-32279349D01*
X73140632Y-32347269D01*
X73288202Y-32445872D01*
X73413701Y-32571371D01*
X73512304Y-32718941D01*
X73580224Y-32882913D01*
X73598722Y-32975911D01*
X73613242Y-33048907D01*
X73614848Y-33056984D01*
X73614848Y-33234466D01*
X73580224Y-33408537D01*
X73512304Y-33572509D01*
X73413701Y-33720079D01*
X73288202Y-33845578D01*
X73140632Y-33944181D01*
X72976660Y-34012101D01*
X72827360Y-34041798D01*
X72802590Y-34046725D01*
X72625106Y-34046725D01*
X72600336Y-34041798D01*
X72451036Y-34012101D01*
X72287064Y-33944181D01*
X72139494Y-33845578D01*
X72013995Y-33720079D01*
X71915392Y-33572509D01*
X71847472Y-33408537D01*
X71812848Y-33234466D01*
X71812848Y-33056984D01*
X71814455Y-33048907D01*
X71828974Y-32975911D01*
X71847472Y-32882913D01*
X71915392Y-32718941D01*
X72013995Y-32571371D01*
X72139494Y-32445872D01*
X72287064Y-32347269D01*
X72451036Y-32279349D01*
X72600336Y-32249652D01*
X72625106Y-32244725D01*
X72802590Y-32244725D01*
X72827360Y-32249652D01*
G37*
G36*
X95303753Y-31889177D02*
G01*
X95457307Y-31919720D01*
X95621279Y-31987640D01*
X95768849Y-32086243D01*
X95894348Y-32211742D01*
X95992951Y-32359312D01*
X96060871Y-32523284D01*
X96090568Y-32672584D01*
X96095495Y-32697354D01*
X96095495Y-32874838D01*
X96092995Y-32887408D01*
X96060871Y-33048908D01*
X95992951Y-33212880D01*
X95894348Y-33360450D01*
X95768849Y-33485949D01*
X95621279Y-33584552D01*
X95457307Y-33652472D01*
X95308007Y-33682169D01*
X95283237Y-33687096D01*
X95105753Y-33687096D01*
X95080983Y-33682169D01*
X94931683Y-33652472D01*
X94767711Y-33584552D01*
X94620141Y-33485949D01*
X94494642Y-33360450D01*
X94396039Y-33212880D01*
X94328119Y-33048908D01*
X94295995Y-32887408D01*
X94293495Y-32874838D01*
X94293495Y-32697354D01*
X94298422Y-32672584D01*
X94328119Y-32523284D01*
X94396039Y-32359312D01*
X94494642Y-32211742D01*
X94620141Y-32086243D01*
X94767711Y-31987640D01*
X94931683Y-31919720D01*
X95085237Y-31889177D01*
X95105753Y-31885096D01*
X95283237Y-31885096D01*
X95303753Y-31889177D01*
G37*
G36*
X92819263Y-31361082D02*
G01*
X92972812Y-31391624D01*
X93136784Y-31459544D01*
X93284354Y-31558147D01*
X93409853Y-31683646D01*
X93508456Y-31831216D01*
X93576376Y-31995188D01*
X93611000Y-32169259D01*
X93611000Y-32346741D01*
X93576376Y-32520812D01*
X93508456Y-32684784D01*
X93409853Y-32832354D01*
X93284354Y-32957853D01*
X93136784Y-33056456D01*
X92972812Y-33124376D01*
X92823512Y-33154073D01*
X92798742Y-33159000D01*
X92621258Y-33159000D01*
X92596488Y-33154073D01*
X92447188Y-33124376D01*
X92283216Y-33056456D01*
X92135646Y-32957853D01*
X92010147Y-32832354D01*
X91911544Y-32684784D01*
X91843624Y-32520812D01*
X91809000Y-32346741D01*
X91809000Y-32169259D01*
X91843624Y-31995188D01*
X91911544Y-31831216D01*
X92010147Y-31683646D01*
X92135646Y-31558147D01*
X92283216Y-31459544D01*
X92447188Y-31391624D01*
X92600737Y-31361082D01*
X92621258Y-31357000D01*
X92798742Y-31357000D01*
X92819263Y-31361082D01*
G37*
G36*
X90339017Y-30833832D02*
G01*
X90488317Y-30863529D01*
X90652289Y-30931449D01*
X90799859Y-31030052D01*
X90925358Y-31155551D01*
X91023961Y-31303121D01*
X91091881Y-31467093D01*
X91126505Y-31641164D01*
X91126505Y-31818646D01*
X91091881Y-31992717D01*
X91023961Y-32156689D01*
X90925358Y-32304259D01*
X90799859Y-32429758D01*
X90652289Y-32528361D01*
X90488317Y-32596281D01*
X90339017Y-32625978D01*
X90314247Y-32630905D01*
X90136763Y-32630905D01*
X90111993Y-32625978D01*
X89962693Y-32596281D01*
X89798721Y-32528361D01*
X89651151Y-32429758D01*
X89525652Y-32304259D01*
X89427049Y-32156689D01*
X89359129Y-31992717D01*
X89324505Y-31818646D01*
X89324505Y-31641164D01*
X89359129Y-31467093D01*
X89427049Y-31303121D01*
X89525652Y-31155551D01*
X89651151Y-31030052D01*
X89798721Y-30931449D01*
X89962693Y-30863529D01*
X90111993Y-30833832D01*
X90136763Y-30828905D01*
X90314247Y-30828905D01*
X90339017Y-30833832D01*
G37*
G36*
X88809650Y-30507826D02*
G01*
X88434993Y-32270449D01*
X86672370Y-31895792D01*
X87047027Y-30133169D01*
X88809650Y-30507826D01*
G37*
G36*
X75839950Y-30293252D02*
G01*
X75989250Y-30322949D01*
X76153222Y-30390869D01*
X76300792Y-30489472D01*
X76426291Y-30614971D01*
X76524894Y-30762541D01*
X76592814Y-30926513D01*
X76627438Y-31100584D01*
X76627438Y-31278066D01*
X76592814Y-31452137D01*
X76524894Y-31616109D01*
X76426291Y-31763679D01*
X76300792Y-31889178D01*
X76153222Y-31987781D01*
X75989250Y-32055701D01*
X75839950Y-32085398D01*
X75815180Y-32090325D01*
X75637696Y-32090325D01*
X75612926Y-32085398D01*
X75463626Y-32055701D01*
X75299654Y-31987781D01*
X75152084Y-31889178D01*
X75026585Y-31763679D01*
X74927982Y-31616109D01*
X74860062Y-31452137D01*
X74825438Y-31278066D01*
X74825438Y-31100584D01*
X74860062Y-30926513D01*
X74927982Y-30762541D01*
X75026585Y-30614971D01*
X75152084Y-30489472D01*
X75299654Y-30390869D01*
X75463626Y-30322949D01*
X75612926Y-30293252D01*
X75637696Y-30288325D01*
X75815180Y-30288325D01*
X75839950Y-30293252D01*
G37*
G36*
X73355456Y-29765157D02*
G01*
X73504756Y-29794854D01*
X73668728Y-29862774D01*
X73816298Y-29961377D01*
X73941797Y-30086876D01*
X74040400Y-30234446D01*
X74108320Y-30398418D01*
X74142944Y-30572489D01*
X74142944Y-30749971D01*
X74108320Y-30924042D01*
X74040400Y-31088014D01*
X73941797Y-31235584D01*
X73816298Y-31361083D01*
X73668728Y-31459686D01*
X73504756Y-31527606D01*
X73355456Y-31557303D01*
X73330686Y-31562230D01*
X73153202Y-31562230D01*
X73128432Y-31557303D01*
X72979132Y-31527606D01*
X72815160Y-31459686D01*
X72667590Y-31361083D01*
X72542091Y-31235584D01*
X72443488Y-31088014D01*
X72375568Y-30924042D01*
X72340944Y-30749971D01*
X72340944Y-30572489D01*
X72375568Y-30398418D01*
X72443488Y-30234446D01*
X72542091Y-30086876D01*
X72667590Y-29961377D01*
X72815160Y-29862774D01*
X72979132Y-29794854D01*
X73128432Y-29765157D01*
X73153202Y-29760230D01*
X73330686Y-29760230D01*
X73355456Y-29765157D01*
G37*
G36*
X76368046Y-27808758D02*
G01*
X76517346Y-27838455D01*
X76681318Y-27906375D01*
X76828888Y-28004978D01*
X76954387Y-28130477D01*
X77052990Y-28278047D01*
X77120910Y-28442019D01*
X77155534Y-28616090D01*
X77155534Y-28793572D01*
X77120910Y-28967643D01*
X77052990Y-29131615D01*
X76954387Y-29279185D01*
X76828888Y-29404684D01*
X76681318Y-29503287D01*
X76517346Y-29571207D01*
X76368046Y-29600904D01*
X76343276Y-29605831D01*
X76165792Y-29605831D01*
X76141022Y-29600904D01*
X75991722Y-29571207D01*
X75827750Y-29503287D01*
X75680180Y-29404684D01*
X75554681Y-29279185D01*
X75456078Y-29131615D01*
X75388158Y-28967643D01*
X75353534Y-28793572D01*
X75353534Y-28616090D01*
X75388158Y-28442019D01*
X75456078Y-28278047D01*
X75554681Y-28130477D01*
X75680180Y-28004978D01*
X75827750Y-27906375D01*
X75991722Y-27838455D01*
X76141022Y-27808758D01*
X76165792Y-27803831D01*
X76343276Y-27803831D01*
X76368046Y-27808758D01*
G37*
G36*
X73883551Y-27280662D02*
G01*
X74032851Y-27310359D01*
X74196823Y-27378279D01*
X74344393Y-27476882D01*
X74469892Y-27602381D01*
X74568495Y-27749951D01*
X74636415Y-27913923D01*
X74671039Y-28087994D01*
X74671039Y-28265476D01*
X74636415Y-28439547D01*
X74568495Y-28603519D01*
X74469892Y-28751089D01*
X74344393Y-28876588D01*
X74196823Y-28975191D01*
X74032851Y-29043111D01*
X73883551Y-29072808D01*
X73858781Y-29077735D01*
X73681297Y-29077735D01*
X73656527Y-29072808D01*
X73507227Y-29043111D01*
X73343255Y-28975191D01*
X73195685Y-28876588D01*
X73070186Y-28751089D01*
X72971583Y-28603519D01*
X72903663Y-28439547D01*
X72869039Y-28265476D01*
X72869039Y-28087994D01*
X72903663Y-27913923D01*
X72971583Y-27749951D01*
X73070186Y-27602381D01*
X73195685Y-27476882D01*
X73343255Y-27378279D01*
X73507227Y-27310359D01*
X73656527Y-27280662D01*
X73681297Y-27275735D01*
X73858781Y-27275735D01*
X73883551Y-27280662D01*
G37*
M02*
