G04 #@! TF.GenerationSoftware,KiCad,Pcbnew,(5.1.5-0-10_14)*
G04 #@! TF.CreationDate,2020-05-14T06:03:15+09:00*
G04 #@! TF.ProjectId,Colice,436f6c69-6365-42e6-9b69-6361645f7063,rev?*
G04 #@! TF.SameCoordinates,Original*
G04 #@! TF.FileFunction,Legend,Bot*
G04 #@! TF.FilePolarity,Positive*
%FSLAX46Y46*%
G04 Gerber Fmt 4.6, Leading zero omitted, Abs format (unit mm)*
G04 Created by KiCad (PCBNEW (5.1.5-0-10_14)) date 2020-05-14 06:03:15*
%MOMM*%
%LPD*%
G04 APERTURE LIST*
%ADD10C,0.120000*%
%ADD11C,0.150000*%
G04 APERTURE END LIST*
D10*
X60480383Y-42169434D02*
X68921796Y-43963712D01*
X60504936Y-42053920D02*
X68946350Y-43848197D01*
X60529489Y-41938405D02*
X68970903Y-43732683D01*
X60554043Y-41822891D02*
X68995456Y-43617169D01*
X60578596Y-41707377D02*
X69020010Y-43501654D01*
X60603149Y-41591862D02*
X69044563Y-43386140D01*
X60627703Y-41476348D02*
X69069116Y-43270626D01*
X60652256Y-41360834D02*
X69093670Y-43155111D01*
X60676809Y-41245319D02*
X69118223Y-43039597D01*
X60701363Y-41129805D02*
X69142776Y-42924083D01*
X60725916Y-41014291D02*
X69167330Y-42808568D01*
X60750469Y-40898776D02*
X69191883Y-42693054D01*
X60775023Y-40783262D02*
X69216436Y-42577540D01*
X60799576Y-40667748D02*
X69240990Y-42462025D01*
X60824129Y-40552233D02*
X69265543Y-42346511D01*
X60848683Y-40436719D02*
X69290096Y-42230997D01*
X60873236Y-40321204D02*
X69314650Y-42115482D01*
X60897789Y-40205690D02*
X69339203Y-41999968D01*
X60922343Y-40090176D02*
X69363756Y-41884454D01*
X60946896Y-39974661D02*
X69388310Y-41768939D01*
X60971449Y-39859147D02*
X69412863Y-41653425D01*
X69098521Y-43132286D02*
X69499562Y-43217530D01*
X71553672Y-43654145D02*
X71925368Y-43733151D01*
X69248218Y-42428020D02*
X69649258Y-42513264D01*
X71703368Y-42949878D02*
X72075064Y-43028885D01*
X69626617Y-40647791D02*
X70027658Y-40733035D01*
X72081768Y-41169650D02*
X72512153Y-41261131D01*
X69776314Y-39943525D02*
X70177354Y-40028769D01*
X72231464Y-40465384D02*
X72661849Y-40556865D01*
X70154713Y-38163297D02*
X70555753Y-38248540D01*
X72609863Y-38685155D02*
X73040248Y-38776636D01*
X70304409Y-37459030D02*
X70705450Y-37544274D01*
X72759560Y-37980889D02*
X73189945Y-38072370D01*
X70682808Y-35678802D02*
X71083849Y-35764045D01*
X73137959Y-36200660D02*
X73568344Y-36292141D01*
X70832505Y-34974535D02*
X71233545Y-35059779D01*
X73287655Y-35496394D02*
X73718040Y-35587875D01*
X71210904Y-33194307D02*
X71611945Y-33279551D01*
X73666055Y-33716165D02*
X74096440Y-33807646D01*
X71360601Y-32490040D02*
X71761641Y-32575284D01*
X73815751Y-33011899D02*
X74246136Y-33103380D01*
X71739000Y-30709812D02*
X72140040Y-30795056D01*
X74194150Y-31231670D02*
X74624535Y-31323151D01*
X71888696Y-30005546D02*
X72289737Y-30090789D01*
X74343847Y-30527404D02*
X74774232Y-30618885D01*
X72267096Y-28225317D02*
X72668136Y-28310561D01*
X74722246Y-28747175D02*
X75152631Y-28838656D01*
X72416792Y-27521051D02*
X72817832Y-27606294D01*
X74871942Y-28042909D02*
X75302327Y-28134390D01*
X60996004Y-39743628D02*
X69437417Y-41537906D01*
X61524099Y-37259133D02*
X69965513Y-39053411D01*
X62052195Y-34774638D02*
X70493609Y-36568916D01*
X62580291Y-32290143D02*
X71021705Y-34084421D01*
X63108386Y-29805648D02*
X71549800Y-31599926D01*
X63636482Y-27321153D02*
X72077896Y-29115431D01*
X60455433Y-42286812D02*
X68896847Y-44081090D01*
X68896847Y-44081090D02*
X72618466Y-26572247D01*
X64177053Y-24777970D02*
X72618466Y-26572247D01*
X60455433Y-42286812D02*
X64177053Y-24777970D01*
X73895181Y-45143518D02*
X74171704Y-43842582D01*
X72809437Y-44912736D02*
X73895181Y-45143518D01*
D11*
X85325000Y-120253630D02*
X86225000Y-119753630D01*
X86225000Y-119753630D02*
X86225000Y-120753630D01*
X86225000Y-120753630D02*
X85325000Y-120253630D01*
X85225000Y-119753630D02*
X85225000Y-120753630D01*
X88425000Y-119503630D02*
X83025000Y-119503630D01*
X83025000Y-119503630D02*
X83025000Y-121003630D01*
X83025000Y-121003630D02*
X88425000Y-121003630D01*
X88425000Y-121003630D02*
X88425000Y-119503630D01*
X133668750Y-101953550D02*
X133668750Y-100453550D01*
X128268750Y-101953550D02*
X133668750Y-101953550D01*
X128268750Y-100453550D02*
X128268750Y-101953550D01*
X133668750Y-100453550D02*
X128268750Y-100453550D01*
X130468750Y-100703550D02*
X130468750Y-101703550D01*
X131468750Y-101703550D02*
X130568750Y-101203550D01*
X131468750Y-100703550D02*
X131468750Y-101703550D01*
X130568750Y-101203550D02*
X131468750Y-100703550D01*
X95568750Y-104334810D02*
X95568750Y-102834810D01*
X90168750Y-104334810D02*
X95568750Y-104334810D01*
X90168750Y-102834810D02*
X90168750Y-104334810D01*
X95568750Y-102834810D02*
X90168750Y-102834810D01*
X92368750Y-103084810D02*
X92368750Y-104084810D01*
X93368750Y-104084810D02*
X92468750Y-103584810D01*
X93368750Y-103084810D02*
X93368750Y-104084810D01*
X92468750Y-103584810D02*
X93368750Y-103084810D01*
X114968000Y-47232000D02*
X114968000Y-45732000D01*
X109568000Y-47232000D02*
X114968000Y-47232000D01*
X109568000Y-45732000D02*
X109568000Y-47232000D01*
X114968000Y-45732000D02*
X109568000Y-45732000D01*
X111768000Y-45982000D02*
X111768000Y-46982000D01*
X112768000Y-46982000D02*
X111868000Y-46482000D01*
X112768000Y-45982000D02*
X112768000Y-46982000D01*
X111868000Y-46482000D02*
X112768000Y-45982000D01*
X114460000Y-66282000D02*
X114460000Y-64782000D01*
X109060000Y-66282000D02*
X114460000Y-66282000D01*
X109060000Y-64782000D02*
X109060000Y-66282000D01*
X114460000Y-64782000D02*
X109060000Y-64782000D01*
X111260000Y-65032000D02*
X111260000Y-66032000D01*
X112260000Y-66032000D02*
X111360000Y-65532000D01*
X112260000Y-65032000D02*
X112260000Y-66032000D01*
X111360000Y-65532000D02*
X112260000Y-65032000D01*
X112555000Y-123254200D02*
X112555000Y-121754200D01*
X107155000Y-123254200D02*
X112555000Y-123254200D01*
X107155000Y-121754200D02*
X107155000Y-123254200D01*
X112555000Y-121754200D02*
X107155000Y-121754200D01*
X109355000Y-122004200D02*
X109355000Y-123004200D01*
X110355000Y-123004200D02*
X109455000Y-122504200D01*
X110355000Y-122004200D02*
X110355000Y-123004200D01*
X109455000Y-122504200D02*
X110355000Y-122004200D01*
X66910000Y-65405000D02*
X67810000Y-64905000D01*
X67810000Y-64905000D02*
X67810000Y-65905000D01*
X67810000Y-65905000D02*
X66910000Y-65405000D01*
X66810000Y-64905000D02*
X66810000Y-65905000D01*
X70010000Y-64655000D02*
X64610000Y-64655000D01*
X64610000Y-64655000D02*
X64610000Y-66155000D01*
X64610000Y-66155000D02*
X70010000Y-66155000D01*
X70010000Y-66155000D02*
X70010000Y-64655000D01*
X80170000Y-66155000D02*
X80170000Y-64655000D01*
X74770000Y-66155000D02*
X80170000Y-66155000D01*
X74770000Y-64655000D02*
X74770000Y-66155000D01*
X80170000Y-64655000D02*
X74770000Y-64655000D01*
X76970000Y-64905000D02*
X76970000Y-65905000D01*
X77970000Y-65905000D02*
X77070000Y-65405000D01*
X77970000Y-64905000D02*
X77970000Y-65905000D01*
X77070000Y-65405000D02*
X77970000Y-64905000D01*
X73514000Y-84582000D02*
X74414000Y-84082000D01*
X74414000Y-84082000D02*
X74414000Y-85082000D01*
X74414000Y-85082000D02*
X73514000Y-84582000D01*
X73414000Y-84082000D02*
X73414000Y-85082000D01*
X76614000Y-83832000D02*
X71214000Y-83832000D01*
X71214000Y-83832000D02*
X71214000Y-85332000D01*
X71214000Y-85332000D02*
X76614000Y-85332000D01*
X76614000Y-85332000D02*
X76614000Y-83832000D01*
X73418750Y-103584810D02*
X74318750Y-103084810D01*
X74318750Y-103084810D02*
X74318750Y-104084810D01*
X74318750Y-104084810D02*
X73418750Y-103584810D01*
X73318750Y-103084810D02*
X73318750Y-104084810D01*
X76518750Y-102834810D02*
X71118750Y-102834810D01*
X71118750Y-102834810D02*
X71118750Y-104334810D01*
X71118750Y-104334810D02*
X76518750Y-104334810D01*
X76518750Y-104334810D02*
X76518750Y-102834810D01*
X79366601Y-123390115D02*
X79366601Y-121890115D01*
X73966601Y-123390115D02*
X79366601Y-123390115D01*
X73966601Y-121890115D02*
X73966601Y-123390115D01*
X79366601Y-121890115D02*
X73966601Y-121890115D01*
X76166601Y-122140115D02*
X76166601Y-123140115D01*
X77166601Y-123140115D02*
X76266601Y-122640115D01*
X77166601Y-122140115D02*
X77166601Y-123140115D01*
X76266601Y-122640115D02*
X77166601Y-122140115D01*
X92310000Y-62992000D02*
X93210000Y-62492000D01*
X93210000Y-62492000D02*
X93210000Y-63492000D01*
X93210000Y-63492000D02*
X92310000Y-62992000D01*
X92210000Y-62492000D02*
X92210000Y-63492000D01*
X95410000Y-62242000D02*
X90010000Y-62242000D01*
X90010000Y-62242000D02*
X90010000Y-63742000D01*
X90010000Y-63742000D02*
X95410000Y-63742000D01*
X95410000Y-63742000D02*
X95410000Y-62242000D01*
X95918000Y-47232000D02*
X95918000Y-45732000D01*
X90518000Y-47232000D02*
X95918000Y-47232000D01*
X90518000Y-45732000D02*
X90518000Y-47232000D01*
X95918000Y-45732000D02*
X90518000Y-45732000D01*
X92718000Y-45982000D02*
X92718000Y-46982000D01*
X93718000Y-46982000D02*
X92818000Y-46482000D01*
X93718000Y-45982000D02*
X93718000Y-46982000D01*
X92818000Y-46482000D02*
X93718000Y-45982000D01*
X92310000Y-65532000D02*
X93210000Y-65032000D01*
X93210000Y-65032000D02*
X93210000Y-66032000D01*
X93210000Y-66032000D02*
X92310000Y-65532000D01*
X92210000Y-65032000D02*
X92210000Y-66032000D01*
X95410000Y-64782000D02*
X90010000Y-64782000D01*
X90010000Y-64782000D02*
X90010000Y-66282000D01*
X90010000Y-66282000D02*
X95410000Y-66282000D01*
X95410000Y-66282000D02*
X95410000Y-64782000D01*
X92564000Y-84582000D02*
X93464000Y-84082000D01*
X93464000Y-84082000D02*
X93464000Y-85082000D01*
X93464000Y-85082000D02*
X92564000Y-84582000D01*
X92464000Y-84082000D02*
X92464000Y-85082000D01*
X95664000Y-83832000D02*
X90264000Y-83832000D01*
X90264000Y-83832000D02*
X90264000Y-85332000D01*
X90264000Y-85332000D02*
X95664000Y-85332000D01*
X95664000Y-85332000D02*
X95664000Y-83832000D01*
X111360000Y-62992000D02*
X112260000Y-62492000D01*
X112260000Y-62492000D02*
X112260000Y-63492000D01*
X112260000Y-63492000D02*
X111360000Y-62992000D01*
X111260000Y-62492000D02*
X111260000Y-63492000D01*
X114460000Y-62242000D02*
X109060000Y-62242000D01*
X109060000Y-62242000D02*
X109060000Y-63742000D01*
X109060000Y-63742000D02*
X114460000Y-63742000D01*
X114460000Y-63742000D02*
X114460000Y-62242000D01*
X114714000Y-85332000D02*
X114714000Y-83832000D01*
X109314000Y-85332000D02*
X114714000Y-85332000D01*
X109314000Y-83832000D02*
X109314000Y-85332000D01*
X114714000Y-83832000D02*
X109314000Y-83832000D01*
X111514000Y-84082000D02*
X111514000Y-85082000D01*
X112514000Y-85082000D02*
X111614000Y-84582000D01*
X112514000Y-84082000D02*
X112514000Y-85082000D01*
X111614000Y-84582000D02*
X112514000Y-84082000D01*
X114714000Y-104382000D02*
X114714000Y-102882000D01*
X109314000Y-104382000D02*
X114714000Y-104382000D01*
X109314000Y-102882000D02*
X109314000Y-104382000D01*
X114714000Y-102882000D02*
X109314000Y-102882000D01*
X111514000Y-103132000D02*
X111514000Y-104132000D01*
X112514000Y-104132000D02*
X111614000Y-103632000D01*
X112514000Y-103132000D02*
X112514000Y-104132000D01*
X111614000Y-103632000D02*
X112514000Y-103132000D01*
X130664000Y-62992000D02*
X131564000Y-62492000D01*
X131564000Y-62492000D02*
X131564000Y-63492000D01*
X131564000Y-63492000D02*
X130664000Y-62992000D01*
X130564000Y-62492000D02*
X130564000Y-63492000D01*
X133764000Y-62242000D02*
X128364000Y-62242000D01*
X128364000Y-62242000D02*
X128364000Y-63742000D01*
X128364000Y-63742000D02*
X133764000Y-63742000D01*
X133764000Y-63742000D02*
X133764000Y-62242000D01*
X133764000Y-47232000D02*
X133764000Y-45732000D01*
X128364000Y-47232000D02*
X133764000Y-47232000D01*
X128364000Y-45732000D02*
X128364000Y-47232000D01*
X133764000Y-45732000D02*
X128364000Y-45732000D01*
X130564000Y-45982000D02*
X130564000Y-46982000D01*
X131564000Y-46982000D02*
X130664000Y-46482000D01*
X131564000Y-45982000D02*
X131564000Y-46982000D01*
X130664000Y-46482000D02*
X131564000Y-45982000D01*
X133764000Y-66282000D02*
X133764000Y-64782000D01*
X128364000Y-66282000D02*
X133764000Y-66282000D01*
X128364000Y-64782000D02*
X128364000Y-66282000D01*
X133764000Y-64782000D02*
X128364000Y-64782000D01*
X130564000Y-65032000D02*
X130564000Y-66032000D01*
X131564000Y-66032000D02*
X130664000Y-65532000D01*
X131564000Y-65032000D02*
X131564000Y-66032000D01*
X130664000Y-65532000D02*
X131564000Y-65032000D01*
X133764000Y-85332000D02*
X133764000Y-83832000D01*
X128364000Y-85332000D02*
X133764000Y-85332000D01*
X128364000Y-83832000D02*
X128364000Y-85332000D01*
X133764000Y-83832000D02*
X128364000Y-83832000D01*
X130564000Y-84082000D02*
X130564000Y-85082000D01*
X131564000Y-85082000D02*
X130664000Y-84582000D01*
X131564000Y-84082000D02*
X131564000Y-85082000D01*
X130664000Y-84582000D02*
X131564000Y-84082000D01*
D10*
X149732545Y-61229145D02*
X153454164Y-43720303D01*
X153454164Y-43720303D02*
X156056037Y-44273348D01*
X156056037Y-44273348D02*
X152334418Y-61782190D01*
X152334418Y-61782190D02*
X149732545Y-61229145D01*
X152531934Y-60852950D02*
X158400819Y-62100420D01*
X158400819Y-62100420D02*
X158558832Y-61357028D01*
X158558832Y-61357028D02*
X152689947Y-60109558D01*
X152544408Y-60794261D02*
X158413294Y-62041731D01*
X152569358Y-60676883D02*
X158438243Y-61924353D01*
X152594307Y-60559505D02*
X158463193Y-61806976D01*
X152619257Y-60442128D02*
X158488142Y-61689598D01*
X152644206Y-60324750D02*
X158513092Y-61572220D01*
X152669155Y-60207372D02*
X158538041Y-61454842D01*
X149541667Y-60217349D02*
X149930061Y-60299905D01*
X149699680Y-59473957D02*
X150088074Y-59556512D01*
X147122777Y-59703198D02*
X147501390Y-59783675D01*
X147280790Y-58959806D02*
X147659403Y-59040282D01*
X150273115Y-58685961D02*
X152874988Y-59239006D01*
X153060029Y-58368455D02*
X158928915Y-59615925D01*
X158928915Y-59615925D02*
X159086928Y-58872533D01*
X159086928Y-58872533D02*
X153218042Y-57625063D01*
X150069763Y-57732854D02*
X150458157Y-57815410D01*
X150227776Y-56989462D02*
X150616170Y-57072018D01*
X147585268Y-57204758D02*
X148029486Y-57299180D01*
X147743281Y-56461366D02*
X148187499Y-56555788D01*
X150801211Y-56201466D02*
X153403084Y-56754511D01*
X153588125Y-55883960D02*
X159457011Y-57131430D01*
X159457011Y-57131430D02*
X159615024Y-56388038D01*
X159615024Y-56388038D02*
X153746138Y-55140568D01*
X150597858Y-55248359D02*
X150986252Y-55330915D01*
X150755871Y-54504967D02*
X151144265Y-54587523D01*
X148113363Y-54720263D02*
X148557581Y-54814685D01*
X148271376Y-53976871D02*
X148715594Y-54071293D01*
X151329307Y-53716971D02*
X153931179Y-54270016D01*
X154116221Y-53399465D02*
X159985106Y-54646935D01*
X159985106Y-54646935D02*
X160143119Y-53903543D01*
X160143119Y-53903543D02*
X154274234Y-52656073D01*
X151125954Y-52763864D02*
X151514348Y-52846420D01*
X151283967Y-52020472D02*
X151672361Y-52103028D01*
X148641459Y-52235769D02*
X149085677Y-52330190D01*
X148799472Y-51492376D02*
X149243690Y-51586798D01*
X151857402Y-51232476D02*
X154459275Y-51785521D01*
X154644316Y-50914970D02*
X160513202Y-52162440D01*
X160513202Y-52162440D02*
X160671215Y-51419048D01*
X160671215Y-51419048D02*
X154802329Y-50171578D01*
X151654050Y-50279369D02*
X152042444Y-50361925D01*
X151812063Y-49535977D02*
X152200457Y-49618533D01*
X149169555Y-49751274D02*
X149613773Y-49845695D01*
X149327568Y-49007881D02*
X149771786Y-49102303D01*
X152385498Y-48747981D02*
X154987371Y-49301027D01*
X155172412Y-48430475D02*
X161041298Y-49677945D01*
X161041298Y-49677945D02*
X161199311Y-48934553D01*
X161199311Y-48934553D02*
X155330425Y-47687083D01*
X152182145Y-47794874D02*
X152570539Y-47877430D01*
X152340158Y-47051482D02*
X152728552Y-47134038D01*
X149697651Y-47266779D02*
X150141868Y-47361200D01*
X149855663Y-46523387D02*
X150299881Y-46617808D01*
X152913594Y-46263487D02*
X155515466Y-46816532D01*
X155700508Y-45945980D02*
X161569393Y-47193450D01*
X161569393Y-47193450D02*
X161727406Y-46450058D01*
X161727406Y-46450058D02*
X155858521Y-45202588D01*
X152710241Y-45310379D02*
X153098635Y-45392935D01*
X152868254Y-44566987D02*
X153256648Y-44649543D01*
X150225746Y-44782284D02*
X150669964Y-44876705D01*
X150383759Y-44038892D02*
X150827977Y-44133313D01*
X144873793Y-58836672D02*
X144609745Y-60078920D01*
X144609745Y-60078920D02*
X145851992Y-60342967D01*
D11*
X117000000Y-121003630D02*
X117000000Y-119503630D01*
X111600000Y-121003630D02*
X117000000Y-121003630D01*
X111600000Y-119503630D02*
X111600000Y-121003630D01*
X117000000Y-119503630D02*
X111600000Y-119503630D01*
X113800000Y-119753630D02*
X113800000Y-120753630D01*
X114800000Y-120753630D02*
X113900000Y-120253630D01*
X114800000Y-119753630D02*
X114800000Y-120753630D01*
X113900000Y-120253630D02*
X114800000Y-119753630D01*
X81264000Y-62992000D02*
X82164000Y-62492000D01*
X82164000Y-62492000D02*
X82164000Y-63492000D01*
X82164000Y-63492000D02*
X81264000Y-62992000D01*
X81164000Y-62492000D02*
X81164000Y-63492000D01*
X84364000Y-62242000D02*
X78964000Y-62242000D01*
X78964000Y-62242000D02*
X78964000Y-63742000D01*
X78964000Y-63742000D02*
X84364000Y-63742000D01*
X84364000Y-63742000D02*
X84364000Y-62242000D01*
X110904000Y-41390000D02*
X110904000Y-39890000D01*
X105504000Y-41390000D02*
X110904000Y-41390000D01*
X105504000Y-39890000D02*
X105504000Y-41390000D01*
X110904000Y-39890000D02*
X105504000Y-39890000D01*
X107704000Y-40140000D02*
X107704000Y-41140000D01*
X108704000Y-41140000D02*
X107804000Y-40640000D01*
X108704000Y-40140000D02*
X108704000Y-41140000D01*
X107804000Y-40640000D02*
X108704000Y-40140000D01*
X85706000Y-37846000D02*
X86606000Y-37346000D01*
X86606000Y-37346000D02*
X86606000Y-38346000D01*
X86606000Y-38346000D02*
X85706000Y-37846000D01*
X85606000Y-37346000D02*
X85606000Y-38346000D01*
X88806000Y-37096000D02*
X83406000Y-37096000D01*
X83406000Y-37096000D02*
X83406000Y-38596000D01*
X83406000Y-38596000D02*
X88806000Y-38596000D01*
X88806000Y-38596000D02*
X88806000Y-37096000D01*
X88806000Y-41390000D02*
X88806000Y-39890000D01*
X83406000Y-41390000D02*
X88806000Y-41390000D01*
X83406000Y-39890000D02*
X83406000Y-41390000D01*
X88806000Y-39890000D02*
X83406000Y-39890000D01*
X85606000Y-40140000D02*
X85606000Y-41140000D01*
X86606000Y-41140000D02*
X85706000Y-40640000D01*
X86606000Y-40140000D02*
X86606000Y-41140000D01*
X85706000Y-40640000D02*
X86606000Y-40140000D01*
X96628000Y-37846000D02*
X97528000Y-37346000D01*
X97528000Y-37346000D02*
X97528000Y-38346000D01*
X97528000Y-38346000D02*
X96628000Y-37846000D01*
X96528000Y-37346000D02*
X96528000Y-38346000D01*
X99728000Y-37096000D02*
X94328000Y-37096000D01*
X94328000Y-37096000D02*
X94328000Y-38596000D01*
X94328000Y-38596000D02*
X99728000Y-38596000D01*
X99728000Y-38596000D02*
X99728000Y-37096000D01*
X99728000Y-41390000D02*
X99728000Y-39890000D01*
X94328000Y-41390000D02*
X99728000Y-41390000D01*
X94328000Y-39890000D02*
X94328000Y-41390000D01*
X99728000Y-39890000D02*
X94328000Y-39890000D01*
X96528000Y-40140000D02*
X96528000Y-41140000D01*
X97528000Y-41140000D02*
X96628000Y-40640000D01*
X97528000Y-40140000D02*
X97528000Y-41140000D01*
X96628000Y-40640000D02*
X97528000Y-40140000D01*
X107804000Y-37846000D02*
X108704000Y-37346000D01*
X108704000Y-37346000D02*
X108704000Y-38346000D01*
X108704000Y-38346000D02*
X107804000Y-37846000D01*
X107704000Y-37346000D02*
X107704000Y-38346000D01*
X110904000Y-37096000D02*
X105504000Y-37096000D01*
X105504000Y-37096000D02*
X105504000Y-38596000D01*
X105504000Y-38596000D02*
X110904000Y-38596000D01*
X110904000Y-38596000D02*
X110904000Y-37096000D01*
X67423416Y-44680219D02*
X67274908Y-45378896D01*
X67291785Y-45528532D01*
X67365140Y-45641490D01*
X67494975Y-45717770D01*
X67588132Y-45737571D01*
X66237357Y-45450455D02*
X66796298Y-45569262D01*
X66516828Y-45509858D02*
X66724739Y-44531711D01*
X66788194Y-44691247D01*
X66861550Y-44804205D01*
X66944807Y-44870585D01*
X151615410Y-62030507D02*
X151466902Y-62729184D01*
X151483779Y-62878820D01*
X151557134Y-62991778D01*
X151686969Y-63068058D01*
X151780126Y-63087859D01*
X151176403Y-62034559D02*
X151139725Y-61978080D01*
X151056469Y-61911700D01*
X150823576Y-61862198D01*
X150720519Y-61888975D01*
X150664040Y-61925653D01*
X150597660Y-62008909D01*
X150577859Y-62102066D01*
X150594736Y-62251702D01*
X151034871Y-62929450D01*
X150429351Y-62800743D01*
M02*
