G04 #@! TF.GenerationSoftware,KiCad,Pcbnew,(5.1.5-0-10_14)*
G04 #@! TF.CreationDate,2020-05-14T06:03:15+09:00*
G04 #@! TF.ProjectId,Colice,436f6c69-6365-42e6-9b69-6361645f7063,rev?*
G04 #@! TF.SameCoordinates,Original*
G04 #@! TF.FileFunction,Paste,Bot*
G04 #@! TF.FilePolarity,Positive*
%FSLAX46Y46*%
G04 Gerber Fmt 4.6, Leading zero omitted, Abs format (unit mm)*
G04 Created by KiCad (PCBNEW (5.1.5-0-10_14)) date 2020-05-14 06:03:15*
%MOMM*%
%LPD*%
G04 APERTURE LIST*
%ADD10R,1.300000X0.950000*%
%ADD11R,2.550000X2.800000*%
%ADD12R,2.800000X2.550000*%
G04 APERTURE END LIST*
D10*
X87500000Y-120253630D03*
X83950000Y-120253630D03*
D11*
X115352500Y-106839220D03*
X102452500Y-109379220D03*
D10*
X129193750Y-101203550D03*
X132743750Y-101203550D03*
D11*
X102452500Y-52228980D03*
X115352500Y-49688980D03*
X102452500Y-71279060D03*
X115352500Y-68739060D03*
X102452500Y-90329140D03*
X115352500Y-87789140D03*
D12*
X131127500Y-114359260D03*
X133667500Y-127259260D03*
D10*
X91093750Y-103584810D03*
X94643750Y-103584810D03*
X110493000Y-46482000D03*
X114043000Y-46482000D03*
X109985000Y-65532000D03*
X113535000Y-65532000D03*
D11*
X115352500Y-125889300D03*
X102452500Y-128429300D03*
D10*
X108080000Y-122504200D03*
X111630000Y-122504200D03*
X69085000Y-65405000D03*
X65535000Y-65405000D03*
X75695000Y-65405000D03*
X79245000Y-65405000D03*
X75689000Y-84582000D03*
X72139000Y-84582000D03*
X75593750Y-103584810D03*
X72043750Y-103584810D03*
X74891601Y-122640115D03*
X78441601Y-122640115D03*
X94485000Y-62992000D03*
X90935000Y-62992000D03*
X91443000Y-46482000D03*
X94993000Y-46482000D03*
X94485000Y-65532000D03*
X90935000Y-65532000D03*
X94739000Y-84582000D03*
X91189000Y-84582000D03*
X113535000Y-62992000D03*
X109985000Y-62992000D03*
X110239000Y-84582000D03*
X113789000Y-84582000D03*
X110239000Y-103632000D03*
X113789000Y-103632000D03*
X132839000Y-62992000D03*
X129289000Y-62992000D03*
X129289000Y-46482000D03*
X132839000Y-46482000D03*
X129289000Y-65532000D03*
X132839000Y-65532000D03*
X129289000Y-84582000D03*
X132839000Y-84582000D03*
D11*
X77252500Y-68739060D03*
X64352500Y-71279060D03*
X77252500Y-87789140D03*
X64352500Y-90329140D03*
X77252500Y-106839220D03*
X64352500Y-109379220D03*
X73877500Y-128429300D03*
X86777500Y-125889300D03*
X83402500Y-52228980D03*
X96302500Y-49688980D03*
X96302500Y-68739060D03*
X83402500Y-71279060D03*
X83402500Y-90329140D03*
X96302500Y-87789140D03*
X83402500Y-109379220D03*
X96302500Y-106839220D03*
X121502500Y-52228980D03*
X134402500Y-49688980D03*
X134402500Y-68739060D03*
X121502500Y-71279060D03*
X121502500Y-90329140D03*
X134402500Y-87789140D03*
D10*
X112525000Y-120253630D03*
X116075000Y-120253630D03*
D11*
X97572500Y-133509300D03*
X84672500Y-136049300D03*
D12*
X123507500Y-125154300D03*
X126047500Y-138054300D03*
D11*
X78522500Y-133509300D03*
X65622500Y-136049300D03*
D12*
X123507500Y-106104220D03*
X126047500Y-119004220D03*
D10*
X83439000Y-62992000D03*
X79889000Y-62992000D03*
X106429000Y-40640000D03*
X109979000Y-40640000D03*
X87881000Y-37846000D03*
X84331000Y-37846000D03*
X84331000Y-40640000D03*
X87881000Y-40640000D03*
X98803000Y-37846000D03*
X95253000Y-37846000D03*
X95253000Y-40640000D03*
X98803000Y-40640000D03*
X109979000Y-37846000D03*
X106429000Y-37846000D03*
M02*
