%FSLAX45Y45*%
G04 Gerber Fmt 4.5, Leading zero omitted, Abs format (unit mm)*
G04 Created by KiCad (PCBNEW (5.1.5-0-10_14)) date 2020-05-14 06:03:18*
%MOMM*%
%LPD*%
G04 APERTURE LIST*
%TA.AperFunction,Profile*%
%ADD10C,0.050000*%
%TD*%
%ADD11C,0.200000*%
%ADD12C,0.300000*%
G04 APERTURE END LIST*
D10*
X13880084Y-13484860D02*
X13004800Y-14071600D01*
X14751055Y-6349787D02*
X13880084Y-13484860D01*
X6175038Y-13849886D02*
X6175046Y-6474783D01*
X18263680Y-1566004D02*
X18263680Y-1566004D01*
X5809520Y-16636168D02*
X5809520Y-16636168D01*
X15767939Y-6565662D02*
X14751055Y-6349787D01*
X13004800Y-14071600D02*
X6870700Y-14073144D01*
X6870700Y-14073144D02*
X6175038Y-13849886D01*
X7007157Y-2563188D02*
X16203409Y-4516938D01*
X6175046Y-6474783D02*
X7007157Y-2563188D01*
X16203409Y-4516938D02*
X15767939Y-6565662D01*
D11*
X7121302Y-6765701D02*
X7161302Y-6805701D01*
X7161302Y-6765701D02*
X7121302Y-6805701D01*
X7180901Y-5834700D02*
X7220901Y-5874700D01*
X7220901Y-5834700D02*
X7180901Y-5874700D01*
X7193600Y-5644200D02*
X7233600Y-5684200D01*
X7233600Y-5644200D02*
X7193600Y-5684200D01*
X7295200Y-5517200D02*
X7335200Y-5557200D01*
X7335200Y-5517200D02*
X7295200Y-5557200D01*
X7498400Y-7511100D02*
X7538400Y-7551100D01*
X7538400Y-7511100D02*
X7498400Y-7551100D01*
X7514055Y-5234845D02*
X7554055Y-5274845D01*
X7554055Y-5234845D02*
X7514055Y-5274845D01*
X7549200Y-3777300D02*
X7589200Y-3817300D01*
X7589200Y-3777300D02*
X7549200Y-3817300D01*
X7638100Y-3967800D02*
X7678100Y-4007800D01*
X7678100Y-3967800D02*
X7638100Y-4007800D01*
X7676200Y-3637600D02*
X7716200Y-3677600D01*
X7716200Y-3637600D02*
X7676200Y-3677600D01*
X7688900Y-5847400D02*
X7728900Y-5887400D01*
X7728900Y-5847400D02*
X7688900Y-5887400D01*
X7714300Y-4323400D02*
X7754300Y-4363400D01*
X7754300Y-4323400D02*
X7714300Y-4363400D01*
X7895046Y-5793655D02*
X7935046Y-5833655D01*
X7935046Y-5793655D02*
X7895046Y-5833655D01*
X7904800Y-3218500D02*
X7944800Y-3258500D01*
X7944800Y-3218500D02*
X7904800Y-3258500D01*
X7904800Y-10190800D02*
X7944800Y-10230800D01*
X7944800Y-10190800D02*
X7904800Y-10230800D01*
X7923821Y-4230830D02*
X7963821Y-4270830D01*
X7963821Y-4230830D02*
X7923821Y-4270830D01*
X7995001Y-3497900D02*
X8035001Y-3537900D01*
X8035001Y-3497900D02*
X7995001Y-3537900D01*
X8006400Y-5720400D02*
X8046400Y-5760400D01*
X8046400Y-5720400D02*
X8006400Y-5760400D01*
X8014914Y-4283054D02*
X8054914Y-4323054D01*
X8054914Y-4283054D02*
X8014914Y-4323054D01*
X8025661Y-4628200D02*
X8065661Y-4668200D01*
X8065661Y-4628200D02*
X8025661Y-4668200D01*
X8109275Y-4236998D02*
X8149275Y-4276998D01*
X8149275Y-4236998D02*
X8109275Y-4276998D01*
X8704900Y-6114100D02*
X8744900Y-6154100D01*
X8744900Y-6114100D02*
X8704900Y-6154100D01*
X9505000Y-6152200D02*
X9545000Y-6192200D01*
X9545000Y-6152200D02*
X9505000Y-6192200D01*
X10092900Y-4408600D02*
X10132900Y-4448600D01*
X10132900Y-4408600D02*
X10092900Y-4448600D01*
X10216200Y-3942400D02*
X10256200Y-3982400D01*
X10256200Y-3942400D02*
X10216200Y-3982400D01*
X11013378Y-5998499D02*
X11053378Y-6038499D01*
X11053378Y-5998499D02*
X11013378Y-6038499D01*
X11206800Y-4324701D02*
X11246800Y-4364701D01*
X11246800Y-4324701D02*
X11206800Y-4364701D01*
X13551317Y-5960388D02*
X13591317Y-6000388D01*
X13591317Y-5960388D02*
X13551317Y-6000388D01*
X13696000Y-6050600D02*
X13736000Y-6090600D01*
X13736000Y-6050600D02*
X13696000Y-6090600D01*
X13734100Y-10597200D02*
X13774100Y-10637200D01*
X13774100Y-10597200D02*
X13734100Y-10637200D01*
X13746602Y-6170612D02*
X13786602Y-6210612D01*
X13786602Y-6170612D02*
X13746602Y-6210612D01*
X13746800Y-10101900D02*
X13786800Y-10141900D01*
X13786800Y-10101900D02*
X13746800Y-10141900D01*
X13759500Y-5198172D02*
X13799500Y-5238172D01*
X13799500Y-5198172D02*
X13759500Y-5238172D01*
X13824047Y-4326874D02*
X13864047Y-4366874D01*
X13864047Y-4326874D02*
X13824047Y-4366874D01*
X13835234Y-6317766D02*
X13875234Y-6357766D01*
X13875234Y-6317766D02*
X13835234Y-6357766D01*
X13899199Y-5047300D02*
X13939199Y-5087300D01*
X13939199Y-5047300D02*
X13899199Y-5087300D01*
X13950000Y-6457000D02*
X13990000Y-6497000D01*
X13990000Y-6457000D02*
X13950000Y-6497000D01*
X14009738Y-6200741D02*
X14049738Y-6240741D01*
X14049738Y-6200741D02*
X14009738Y-6240741D01*
X14026200Y-8235000D02*
X14066200Y-8275000D01*
X14066200Y-8235000D02*
X14026200Y-8275000D01*
X14064300Y-4331099D02*
X14104300Y-4371099D01*
X14104300Y-4331099D02*
X14064300Y-4371099D01*
X14102400Y-4526600D02*
X14142400Y-4566600D01*
X14142400Y-4526600D02*
X14102400Y-4566600D01*
X14115100Y-7485700D02*
X14155100Y-7525700D01*
X14155100Y-7485700D02*
X14115100Y-7525700D01*
X14394500Y-4653600D02*
X14434500Y-4693600D01*
X14434500Y-4653600D02*
X14394500Y-4693600D01*
X15088844Y-6031805D02*
X15128844Y-6071805D01*
X15128844Y-6031805D02*
X15088844Y-6071805D01*
X15194600Y-5999800D02*
X15234600Y-6039800D01*
X15234600Y-5999800D02*
X15194600Y-6039800D01*
X6234750Y-8916714D02*
X6274750Y-8956714D01*
X6274750Y-8916714D02*
X6234750Y-8956714D01*
X6234750Y-9109114D02*
X6274750Y-9149114D01*
X6274750Y-9109114D02*
X6234750Y-9149114D01*
X7885750Y-8662714D02*
X7925750Y-8702714D01*
X7925750Y-8662714D02*
X7885750Y-8702714D01*
X7885750Y-8855114D02*
X7925750Y-8895114D01*
X7925750Y-8855114D02*
X7885750Y-8895114D01*
X9841650Y-12090720D02*
X9881650Y-12130720D01*
X9881650Y-12090720D02*
X9841650Y-12130720D01*
X9889977Y-11974047D02*
X9929977Y-12014047D01*
X9929977Y-11974047D02*
X9889977Y-12014047D01*
X9889977Y-12207393D02*
X9929977Y-12247393D01*
X9929977Y-12207393D02*
X9889977Y-12247393D01*
X10006650Y-11925720D02*
X10046650Y-11965720D01*
X10046650Y-11925720D02*
X10006650Y-11965720D01*
X10006650Y-12255720D02*
X10046650Y-12295720D01*
X10046650Y-12255720D02*
X10006650Y-12295720D01*
X10123323Y-11974047D02*
X10163323Y-12014047D01*
X10163323Y-11974047D02*
X10123323Y-12014047D01*
X10123323Y-12207393D02*
X10163323Y-12247393D01*
X10163323Y-12207393D02*
X10123323Y-12247393D01*
X10171650Y-12090720D02*
X10211650Y-12130720D01*
X10211650Y-12090720D02*
X10171650Y-12130720D01*
X12234550Y-12314930D02*
X12274550Y-12354930D01*
X12274550Y-12314930D02*
X12234550Y-12354930D01*
X12426950Y-12314930D02*
X12466950Y-12354930D01*
X12466950Y-12314930D02*
X12426950Y-12354930D01*
X12488550Y-13965930D02*
X12528550Y-14005930D01*
X12528550Y-13965930D02*
X12488550Y-14005930D01*
X12680950Y-13965930D02*
X12720950Y-14005930D01*
X12720950Y-13965930D02*
X12680950Y-14005930D01*
X8139750Y-7011706D02*
X8179750Y-7051706D01*
X8179750Y-7011706D02*
X8139750Y-7051706D01*
X8139750Y-7204106D02*
X8179750Y-7244106D01*
X8179750Y-7204106D02*
X8139750Y-7244106D01*
X9790750Y-6757706D02*
X9830750Y-6797706D01*
X9830750Y-6757706D02*
X9790750Y-6797706D01*
X9790750Y-6950106D02*
X9830750Y-6990106D01*
X9830750Y-6950106D02*
X9790750Y-6990106D01*
X11949750Y-7011706D02*
X11989750Y-7051706D01*
X11989750Y-7011706D02*
X11949750Y-7051706D01*
X11949750Y-7204106D02*
X11989750Y-7244106D01*
X11989750Y-7204106D02*
X11949750Y-7244106D01*
X13600750Y-6757706D02*
X13640750Y-6797706D01*
X13640750Y-6757706D02*
X13600750Y-6797706D01*
X13600750Y-6950106D02*
X13640750Y-6990106D01*
X13640750Y-6950106D02*
X13600750Y-6990106D01*
X10044750Y-10821722D02*
X10084750Y-10861722D01*
X10084750Y-10821722D02*
X10044750Y-10861722D01*
X10044750Y-11014122D02*
X10084750Y-11054122D01*
X10084750Y-11014122D02*
X10044750Y-11054122D01*
X11695750Y-10567722D02*
X11735750Y-10607722D01*
X11735750Y-10567722D02*
X11695750Y-10607722D01*
X11695750Y-10760122D02*
X11735750Y-10800122D01*
X11735750Y-10760122D02*
X11695750Y-10800122D01*
X10044750Y-8916714D02*
X10084750Y-8956714D01*
X10084750Y-8916714D02*
X10044750Y-8956714D01*
X10044750Y-9109114D02*
X10084750Y-9149114D01*
X10084750Y-9109114D02*
X10044750Y-9149114D01*
X11695750Y-8662714D02*
X11735750Y-8702714D01*
X11735750Y-8662714D02*
X11695750Y-8702714D01*
X11695750Y-8855114D02*
X11735750Y-8895114D01*
X11735750Y-8855114D02*
X11695750Y-8895114D01*
X12234550Y-10409922D02*
X12274550Y-10449922D01*
X12274550Y-10409922D02*
X12234550Y-10449922D01*
X12426950Y-10409922D02*
X12466950Y-10449922D01*
X12466950Y-10409922D02*
X12426950Y-10449922D01*
X12488550Y-12060922D02*
X12528550Y-12100922D01*
X12528550Y-12060922D02*
X12488550Y-12100922D01*
X12680950Y-12060922D02*
X12720950Y-12100922D01*
X12720950Y-12060922D02*
X12680950Y-12100922D01*
X6234750Y-10821722D02*
X6274750Y-10861722D01*
X6274750Y-10821722D02*
X6234750Y-10861722D01*
X6234750Y-11014122D02*
X6274750Y-11054122D01*
X6274750Y-11014122D02*
X6234750Y-11054122D01*
X7885750Y-10567722D02*
X7925750Y-10607722D01*
X7925750Y-10567722D02*
X7885750Y-10607722D01*
X7885750Y-10760122D02*
X7925750Y-10800122D01*
X7925750Y-10760122D02*
X7885750Y-10800122D01*
X6234750Y-7011706D02*
X6274750Y-7051706D01*
X6274750Y-7011706D02*
X6234750Y-7051706D01*
X6234750Y-7204106D02*
X6274750Y-7244106D01*
X6274750Y-7204106D02*
X6234750Y-7244106D01*
X7885750Y-6757706D02*
X7925750Y-6797706D01*
X7925750Y-6757706D02*
X7885750Y-6797706D01*
X7885750Y-6950106D02*
X7925750Y-6990106D01*
X7925750Y-6950106D02*
X7885750Y-6990106D01*
X8139750Y-8916714D02*
X8179750Y-8956714D01*
X8179750Y-8916714D02*
X8139750Y-8956714D01*
X8139750Y-9109114D02*
X8179750Y-9149114D01*
X8179750Y-9109114D02*
X8139750Y-9149114D01*
X9790750Y-8662714D02*
X9830750Y-8702714D01*
X9830750Y-8662714D02*
X9790750Y-8702714D01*
X9790750Y-8855114D02*
X9830750Y-8895114D01*
X9830750Y-8855114D02*
X9790750Y-8895114D01*
X10044750Y-5106698D02*
X10084750Y-5146698D01*
X10084750Y-5106698D02*
X10044750Y-5146698D01*
X10044750Y-5299098D02*
X10084750Y-5339098D01*
X10084750Y-5299098D02*
X10044750Y-5339098D01*
X11695750Y-4852698D02*
X11735750Y-4892698D01*
X11735750Y-4852698D02*
X11695750Y-4892698D01*
X11695750Y-5045098D02*
X11735750Y-5085098D01*
X11735750Y-5045098D02*
X11695750Y-5085098D01*
X8266750Y-13488730D02*
X8306750Y-13528730D01*
X8306750Y-13488730D02*
X8266750Y-13528730D01*
X8266750Y-13681130D02*
X8306750Y-13721130D01*
X8306750Y-13681130D02*
X8266750Y-13721130D01*
X9917750Y-13234730D02*
X9957750Y-13274730D01*
X9957750Y-13234730D02*
X9917750Y-13274730D01*
X9917750Y-13427130D02*
X9957750Y-13467130D01*
X9957750Y-13427130D02*
X9917750Y-13467130D01*
X6361750Y-13488730D02*
X6401750Y-13528730D01*
X6401750Y-13488730D02*
X6361750Y-13528730D01*
X6361750Y-13681130D02*
X6401750Y-13721130D01*
X6401750Y-13681130D02*
X6361750Y-13721130D01*
X8012750Y-13234730D02*
X8052750Y-13274730D01*
X8052750Y-13234730D02*
X8012750Y-13274730D01*
X8012750Y-13427130D02*
X8052750Y-13467130D01*
X8052750Y-13427130D02*
X8012750Y-13467130D01*
X8139750Y-5106698D02*
X8179750Y-5146698D01*
X8179750Y-5106698D02*
X8139750Y-5146698D01*
X8139750Y-5299098D02*
X8179750Y-5339098D01*
X8179750Y-5299098D02*
X8139750Y-5339098D01*
X9790750Y-4852698D02*
X9830750Y-4892698D01*
X9830750Y-4852698D02*
X9790750Y-4892698D01*
X9790750Y-5045098D02*
X9830750Y-5085098D01*
X9830750Y-5045098D02*
X9790750Y-5085098D01*
X10044750Y-12726730D02*
X10084750Y-12766730D01*
X10084750Y-12726730D02*
X10044750Y-12766730D01*
X10044750Y-12919130D02*
X10084750Y-12959130D01*
X10084750Y-12919130D02*
X10044750Y-12959130D01*
X11695750Y-12472730D02*
X11735750Y-12512730D01*
X11735750Y-12472730D02*
X11695750Y-12512730D01*
X11695750Y-12665130D02*
X11735750Y-12705130D01*
X11735750Y-12665130D02*
X11695750Y-12705130D01*
X10044750Y-7011706D02*
X10084750Y-7051706D01*
X10084750Y-7011706D02*
X10044750Y-7051706D01*
X10044750Y-7204106D02*
X10084750Y-7244106D01*
X10084750Y-7204106D02*
X10044750Y-7244106D01*
X11695750Y-6757706D02*
X11735750Y-6797706D01*
X11735750Y-6757706D02*
X11695750Y-6797706D01*
X11695750Y-6950106D02*
X11735750Y-6990106D01*
X11735750Y-6950106D02*
X11695750Y-6990106D01*
X9841550Y-6375720D02*
X9881550Y-6415720D01*
X9881550Y-6375720D02*
X9841550Y-6415720D01*
X9889877Y-6259047D02*
X9929877Y-6299047D01*
X9929877Y-6259047D02*
X9889877Y-6299047D01*
X9889877Y-6492393D02*
X9929877Y-6532393D01*
X9929877Y-6492393D02*
X9889877Y-6532393D01*
X10006550Y-6210720D02*
X10046550Y-6250720D01*
X10046550Y-6210720D02*
X10006550Y-6250720D01*
X10006550Y-6540720D02*
X10046550Y-6580720D01*
X10046550Y-6540720D02*
X10006550Y-6580720D01*
X10123223Y-6259047D02*
X10163223Y-6299047D01*
X10163223Y-6259047D02*
X10123223Y-6299047D01*
X10123223Y-6492393D02*
X10163223Y-6532393D01*
X10163223Y-6492393D02*
X10123223Y-6532393D01*
X10171550Y-6375720D02*
X10211550Y-6415720D01*
X10211550Y-6375720D02*
X10171550Y-6415720D01*
X11949750Y-8916714D02*
X11989750Y-8956714D01*
X11989750Y-8916714D02*
X11949750Y-8956714D01*
X11949750Y-9109114D02*
X11989750Y-9149114D01*
X11989750Y-9109114D02*
X11949750Y-9149114D01*
X13600750Y-8662714D02*
X13640750Y-8702714D01*
X13640750Y-8662714D02*
X13600750Y-8702714D01*
X13600750Y-8855114D02*
X13640750Y-8895114D01*
X13640750Y-8855114D02*
X13600750Y-8895114D01*
X11949750Y-5106698D02*
X11989750Y-5146698D01*
X11989750Y-5106698D02*
X11949750Y-5146698D01*
X11949750Y-5299098D02*
X11989750Y-5339098D01*
X11989750Y-5299098D02*
X11949750Y-5339098D01*
X13600750Y-4852698D02*
X13640750Y-4892698D01*
X13640750Y-4852698D02*
X13600750Y-4892698D01*
X13600750Y-5045098D02*
X13640750Y-5085098D01*
X13640750Y-5045098D02*
X13600750Y-5085098D01*
X12996550Y-11235426D02*
X13036550Y-11275426D01*
X13036550Y-11235426D02*
X12996550Y-11275426D01*
X13188950Y-11235426D02*
X13228950Y-11275426D01*
X13228950Y-11235426D02*
X13188950Y-11275426D01*
X13250550Y-12886426D02*
X13290550Y-12926426D01*
X13290550Y-12886426D02*
X13250550Y-12926426D01*
X13442950Y-12886426D02*
X13482950Y-12926426D01*
X13482950Y-12886426D02*
X13442950Y-12926426D01*
X8139750Y-10821722D02*
X8179750Y-10861722D01*
X8179750Y-10821722D02*
X8139750Y-10861722D01*
X8139750Y-11014122D02*
X8179750Y-11054122D01*
X8179750Y-11014122D02*
X8139750Y-11054122D01*
X9790750Y-10567722D02*
X9830750Y-10607722D01*
X9830750Y-10567722D02*
X9790750Y-10607722D01*
X9790750Y-10760122D02*
X9830750Y-10800122D01*
X9830750Y-10760122D02*
X9790750Y-10800122D01*
X7187250Y-12726730D02*
X7227250Y-12766730D01*
X7227250Y-12726730D02*
X7187250Y-12766730D01*
X7187250Y-12919130D02*
X7227250Y-12959130D01*
X7227250Y-12919130D02*
X7187250Y-12959130D01*
X8838250Y-12472730D02*
X8878250Y-12512730D01*
X8878250Y-12472730D02*
X8838250Y-12512730D01*
X8838250Y-12665130D02*
X8878250Y-12705130D01*
X8878250Y-12665130D02*
X8838250Y-12705130D01*
X6507000Y-12573000D02*
G75*
G03X6507000Y-12573000I-30000J0D01*
G01*
X8243299Y-5890387D02*
G75*
G03X8243299Y-5890387I-30000J0D01*
G01*
X9402600Y-3606800D02*
G75*
G03X9402600Y-3606800I-30000J0D01*
G01*
X9732800Y-3911600D02*
G75*
G03X9732800Y-3911600I-30000J0D01*
G01*
X13365000Y-10358481D02*
G75*
G03X13365000Y-10358481I-30000J0D01*
G01*
X13879096Y-4525084D02*
G75*
G03X13879096Y-4525084I-30000J0D01*
G01*
X14063500Y-5422900D02*
G75*
G03X14063500Y-5422900I-30000J0D01*
G01*
X8229600Y-3743960D02*
X8229600Y-3825240D01*
X8188960Y-3784600D02*
X8270240Y-3784600D01*
X8991600Y-3743960D02*
X8991600Y-3825240D01*
X8950960Y-3784600D02*
X9032240Y-3784600D01*
X10795000Y-6258560D02*
X10795000Y-6339840D01*
X10754360Y-6299200D02*
X10835640Y-6299200D01*
X11557000Y-6258560D02*
X11557000Y-6339840D01*
X11516360Y-6299200D02*
X11597640Y-6299200D01*
X8890000Y-6258560D02*
X8890000Y-6339840D01*
X8849360Y-6299200D02*
X8930640Y-6299200D01*
X9652000Y-6258560D02*
X9652000Y-6339840D01*
X9611360Y-6299200D02*
X9692640Y-6299200D01*
X10845800Y-4607560D02*
X10845800Y-4688840D01*
X10805160Y-4648200D02*
X10886440Y-4648200D01*
X11607800Y-4607560D02*
X11607800Y-4688840D01*
X11567160Y-4648200D02*
X11648440Y-4648200D01*
X10795000Y-6512560D02*
X10795000Y-6593840D01*
X10754360Y-6553200D02*
X10835640Y-6553200D01*
X11557000Y-6512560D02*
X11557000Y-6593840D01*
X11516360Y-6553200D02*
X11597640Y-6553200D01*
X9321800Y-3743960D02*
X9321800Y-3825240D01*
X9281160Y-3784600D02*
X9362440Y-3784600D01*
X10083800Y-3743960D02*
X10083800Y-3825240D01*
X10043160Y-3784600D02*
X10124440Y-3784600D01*
X12725400Y-4607560D02*
X12725400Y-4688840D01*
X12684760Y-4648200D02*
X12766040Y-4648200D01*
X13487400Y-4607560D02*
X13487400Y-4688840D01*
X13446760Y-4648200D02*
X13528040Y-4648200D01*
X7010400Y-8417560D02*
X7010400Y-8498840D01*
X6969760Y-8458200D02*
X7051040Y-8458200D01*
X7772400Y-8417560D02*
X7772400Y-8498840D01*
X7731760Y-8458200D02*
X7813040Y-8458200D01*
X10439400Y-4023360D02*
X10439400Y-4104640D01*
X10398760Y-4064000D02*
X10480040Y-4064000D01*
X11201400Y-4023360D02*
X11201400Y-4104640D01*
X11160760Y-4064000D02*
X11242040Y-4064000D01*
X8940800Y-4607560D02*
X8940800Y-4688840D01*
X8900160Y-4648200D02*
X8981440Y-4648200D01*
X9702800Y-4607560D02*
X9702800Y-4688840D01*
X9662160Y-4648200D02*
X9743440Y-4648200D01*
X8191500Y-11984723D02*
X8191500Y-12066003D01*
X8150860Y-12025363D02*
X8232140Y-12025363D01*
X8953500Y-11984723D02*
X8953500Y-12066003D01*
X8912860Y-12025363D02*
X8994140Y-12025363D01*
X8905875Y-10317841D02*
X8905875Y-10399121D01*
X8865235Y-10358481D02*
X8946515Y-10358481D01*
X9667875Y-10317841D02*
X9667875Y-10399121D01*
X9627235Y-10358481D02*
X9708515Y-10358481D01*
X10604500Y-12209780D02*
X10604500Y-12291060D01*
X10563860Y-12250420D02*
X10645140Y-12250420D01*
X11366500Y-12209780D02*
X11366500Y-12291060D01*
X11325860Y-12250420D02*
X11407140Y-12250420D01*
X12725400Y-6258560D02*
X12725400Y-6339840D01*
X12684760Y-6299200D02*
X12766040Y-6299200D01*
X13487400Y-6258560D02*
X13487400Y-6339840D01*
X13446760Y-6299200D02*
X13528040Y-6299200D01*
X7366000Y-6499860D02*
X7366000Y-6581140D01*
X7325360Y-6540500D02*
X7406640Y-6540500D01*
X8128000Y-6499860D02*
X8128000Y-6581140D01*
X8087360Y-6540500D02*
X8168640Y-6540500D01*
X10439400Y-3743960D02*
X10439400Y-3825240D01*
X10398760Y-3784600D02*
X10480040Y-3784600D01*
X11201400Y-3743960D02*
X11201400Y-3825240D01*
X11160760Y-3784600D02*
X11242040Y-3784600D01*
X11049000Y-11984723D02*
X11049000Y-12066003D01*
X11008360Y-12025363D02*
X11089640Y-12025363D01*
X11811000Y-11984723D02*
X11811000Y-12066003D01*
X11770360Y-12025363D02*
X11851640Y-12025363D01*
X10820400Y-10322560D02*
X10820400Y-10403840D01*
X10779760Y-10363200D02*
X10861040Y-10363200D01*
X11582400Y-10322560D02*
X11582400Y-10403840D01*
X11541760Y-10363200D02*
X11623040Y-10363200D01*
X12725400Y-8417560D02*
X12725400Y-8498840D01*
X12684760Y-8458200D02*
X12766040Y-8458200D01*
X13487400Y-8417560D02*
X13487400Y-8498840D01*
X13446760Y-8458200D02*
X13528040Y-8458200D01*
X6350000Y-6499860D02*
X6350000Y-6581140D01*
X6309360Y-6540500D02*
X6390640Y-6540500D01*
X7112000Y-6499860D02*
X7112000Y-6581140D01*
X7071360Y-6540500D02*
X7152640Y-6540500D01*
X7785400Y-6258560D02*
X7785400Y-6339840D01*
X7744760Y-6299200D02*
X7826040Y-6299200D01*
X8547400Y-6258560D02*
X8547400Y-6339840D01*
X8506760Y-6299200D02*
X8588040Y-6299200D01*
X12715875Y-10079715D02*
X12715875Y-10160995D01*
X12675235Y-10120355D02*
X12756515Y-10120355D01*
X13477875Y-10079715D02*
X13477875Y-10160995D01*
X13437235Y-10120355D02*
X13518515Y-10120355D01*
X10820400Y-8417560D02*
X10820400Y-8498840D01*
X10779760Y-8458200D02*
X10861040Y-8458200D01*
X11582400Y-8417560D02*
X11582400Y-8498840D01*
X11541760Y-8458200D02*
X11623040Y-8458200D01*
X8890000Y-6512560D02*
X8890000Y-6593840D01*
X8849360Y-6553200D02*
X8930640Y-6553200D01*
X9652000Y-6512560D02*
X9652000Y-6593840D01*
X9611360Y-6553200D02*
X9692640Y-6553200D01*
X7285660Y-12223371D02*
X7285660Y-12304651D01*
X7245020Y-12264011D02*
X7326300Y-12264011D01*
X8047660Y-12223371D02*
X8047660Y-12304651D01*
X8007020Y-12264011D02*
X8088300Y-12264011D01*
X8229600Y-4023360D02*
X8229600Y-4104640D01*
X8188960Y-4064000D02*
X8270240Y-4064000D01*
X8991600Y-4023360D02*
X8991600Y-4104640D01*
X8950960Y-4064000D02*
X9032240Y-4064000D01*
X8915400Y-8417560D02*
X8915400Y-8498840D01*
X8874760Y-8458200D02*
X8956040Y-8458200D01*
X9677400Y-8417560D02*
X9677400Y-8498840D01*
X9636760Y-8458200D02*
X9718040Y-8458200D01*
X9321800Y-4023360D02*
X9321800Y-4104640D01*
X9281160Y-4064000D02*
X9362440Y-4064000D01*
X10083800Y-4023360D02*
X10083800Y-4104640D01*
X10043160Y-4064000D02*
X10124440Y-4064000D01*
X12725400Y-6512560D02*
X12725400Y-6593840D01*
X12684760Y-6553200D02*
X12766040Y-6553200D01*
X13487400Y-6512560D02*
X13487400Y-6593840D01*
X13446760Y-6553200D02*
X13528040Y-6553200D01*
X7000875Y-10317841D02*
X7000875Y-10399121D01*
X6960235Y-10358481D02*
X7041515Y-10358481D01*
X7762875Y-10317841D02*
X7762875Y-10399121D01*
X7722235Y-10358481D02*
X7803515Y-10358481D01*
X14646960Y-5945428D02*
X14646960Y-5874716D01*
X14576248Y-5874716D01*
X14576248Y-5945428D01*
X14646960Y-5945428D01*
X14699769Y-5696978D02*
X14699769Y-5626267D01*
X14629058Y-5626267D01*
X14629058Y-5696978D01*
X14699769Y-5696978D01*
X14752579Y-5448529D02*
X14752579Y-5377817D01*
X14681867Y-5377817D01*
X14681867Y-5448529D01*
X14752579Y-5448529D01*
X14805388Y-5200079D02*
X14805388Y-5129368D01*
X14734677Y-5129368D01*
X14734677Y-5200079D01*
X14805388Y-5200079D01*
X14858198Y-4951630D02*
X14858198Y-4880918D01*
X14787487Y-4880918D01*
X14787487Y-4951630D01*
X14858198Y-4951630D01*
X14895409Y-5998237D02*
X14895409Y-5927526D01*
X14824698Y-5927526D01*
X14824698Y-5998237D01*
X14895409Y-5998237D01*
X14911007Y-4703180D02*
X14911007Y-4632469D01*
X14840296Y-4632469D01*
X14840296Y-4703180D01*
X14911007Y-4703180D01*
X14948219Y-5749788D02*
X14948219Y-5679076D01*
X14877507Y-5679076D01*
X14877507Y-5749788D01*
X14948219Y-5749788D01*
X14963817Y-4454731D02*
X14963817Y-4384019D01*
X14893106Y-4384019D01*
X14893106Y-4454731D01*
X14963817Y-4454731D01*
X15001028Y-5501338D02*
X15001028Y-5430627D01*
X14930317Y-5430627D01*
X14930317Y-5501338D01*
X15001028Y-5501338D01*
X15053838Y-5252889D02*
X15053838Y-5182177D01*
X14983126Y-5182177D01*
X14983126Y-5252889D01*
X15053838Y-5252889D01*
X15106647Y-5004439D02*
X15106647Y-4933728D01*
X15035936Y-4933728D01*
X15035936Y-5004439D01*
X15106647Y-5004439D01*
X15159457Y-4755990D02*
X15159457Y-4685278D01*
X15088746Y-4685278D01*
X15088746Y-4755990D01*
X15159457Y-4755990D01*
X15212267Y-4507540D02*
X15212267Y-4436829D01*
X15141555Y-4436829D01*
X15141555Y-4507540D01*
X15212267Y-4507540D01*
X7095502Y-4343726D02*
X7095502Y-4273015D01*
X7024791Y-4273015D01*
X7024791Y-4343726D01*
X7095502Y-4343726D01*
X7148312Y-4095277D02*
X7148312Y-4024565D01*
X7077600Y-4024565D01*
X7077600Y-4095277D01*
X7148312Y-4095277D01*
X7201121Y-3846827D02*
X7201121Y-3776116D01*
X7130410Y-3776116D01*
X7130410Y-3846827D01*
X7201121Y-3846827D01*
X7253931Y-3598378D02*
X7253931Y-3527666D01*
X7183219Y-3527666D01*
X7183219Y-3598378D01*
X7253931Y-3598378D01*
X7306740Y-3349928D02*
X7306740Y-3279217D01*
X7236029Y-3279217D01*
X7236029Y-3349928D01*
X7306740Y-3349928D01*
X7343952Y-4396536D02*
X7343952Y-4325824D01*
X7273240Y-4325824D01*
X7273240Y-4396536D01*
X7343952Y-4396536D01*
X7359550Y-3101479D02*
X7359550Y-3030767D01*
X7288839Y-3030767D01*
X7288839Y-3101479D01*
X7359550Y-3101479D01*
X7396761Y-4148086D02*
X7396761Y-4077375D01*
X7326050Y-4077375D01*
X7326050Y-4148086D01*
X7396761Y-4148086D01*
X7412360Y-2853029D02*
X7412360Y-2782318D01*
X7341648Y-2782318D01*
X7341648Y-2853029D01*
X7412360Y-2853029D01*
X7449571Y-3899637D02*
X7449571Y-3828925D01*
X7378859Y-3828925D01*
X7378859Y-3899637D01*
X7449571Y-3899637D01*
X7502380Y-3651187D02*
X7502380Y-3580476D01*
X7431669Y-3580476D01*
X7431669Y-3651187D01*
X7502380Y-3651187D01*
X7555190Y-3402738D02*
X7555190Y-3332026D01*
X7484479Y-3332026D01*
X7484479Y-3402738D01*
X7555190Y-3402738D01*
X7607999Y-3154288D02*
X7607999Y-3083577D01*
X7537288Y-3083577D01*
X7537288Y-3154288D01*
X7607999Y-3154288D01*
X7660809Y-2905839D02*
X7660809Y-2835127D01*
X7590098Y-2835127D01*
X7590098Y-2905839D01*
X7660809Y-2905839D01*
X7085356Y-4746356D02*
X7085356Y-4675644D01*
X7014644Y-4675644D01*
X7014644Y-4746356D01*
X7085356Y-4746356D01*
X7085356Y-6196356D02*
X7085356Y-6125644D01*
X7014644Y-6125644D01*
X7014644Y-6196356D01*
X7085356Y-6196356D01*
X7335356Y-4746356D02*
X7335356Y-4675644D01*
X7264644Y-4675644D01*
X7264644Y-4746356D01*
X7335356Y-4746356D01*
X7585356Y-4746356D02*
X7585356Y-4675644D01*
X7514644Y-4675644D01*
X7514644Y-4746356D01*
X7585356Y-4746356D01*
X7585356Y-6196356D02*
X7585356Y-6125644D01*
X7514644Y-6125644D01*
X7514644Y-6196356D01*
X7585356Y-6196356D01*
X8809457Y-3155537D02*
X8809457Y-3084825D01*
X8738745Y-3084825D01*
X8738745Y-3155537D01*
X8809457Y-3155537D01*
X9057906Y-3208346D02*
X9057906Y-3137635D01*
X8987195Y-3137635D01*
X8987195Y-3208346D01*
X9057906Y-3208346D01*
X9306356Y-3261156D02*
X9306356Y-3190444D01*
X9235644Y-3190444D01*
X9235644Y-3261156D01*
X9306356Y-3261156D01*
X9554805Y-3313965D02*
X9554805Y-3243254D01*
X9484094Y-3243254D01*
X9484094Y-3313965D01*
X9554805Y-3313965D01*
X9803255Y-3366775D02*
X9803255Y-3296063D01*
X9732543Y-3296063D01*
X9732543Y-3366775D01*
X9803255Y-3366775D01*
X10051704Y-3419584D02*
X10051704Y-3348873D01*
X9980993Y-3348873D01*
X9980993Y-3419584D01*
X10051704Y-3419584D01*
X6740000Y-5536000D02*
X6815000Y-5461000D01*
X6740000Y-5386000D01*
X6665000Y-5461000D01*
X6740000Y-5536000D01*
X6675000Y-5396000D02*
X6675000Y-5526000D01*
X6805000Y-5396000D02*
X6805000Y-5526000D01*
X6675000Y-5526000D02*
G75*
G03X6805000Y-5526000I65000J0D01*
G01*
X6805000Y-5396000D02*
G75*
G03X6675000Y-5396000I-65000J0D01*
G01*
X7860000Y-5536000D02*
X7935000Y-5461000D01*
X7860000Y-5386000D01*
X7785000Y-5461000D01*
X7860000Y-5536000D01*
X7795000Y-5396000D02*
X7795000Y-5526000D01*
X7925000Y-5396000D02*
X7925000Y-5526000D01*
X7795000Y-5526000D02*
G75*
G03X7925000Y-5526000I65000J0D01*
G01*
X7925000Y-5396000D02*
G75*
G03X7795000Y-5396000I-65000J0D01*
G01*
X9916550Y-6285720D02*
X10136550Y-6505720D01*
X10136550Y-6285720D02*
X9916550Y-6505720D01*
X10136550Y-6395720D02*
G75*
G03X10136550Y-6395720I-110000J0D01*
G01*
X9916650Y-12000720D02*
X10136650Y-12220720D01*
X10136650Y-12000720D02*
X9916650Y-12220720D01*
X10136650Y-12110720D02*
G75*
G03X10136650Y-12110720I-110000J0D01*
G01*
X12327750Y-6977906D02*
X12627750Y-7277906D01*
X12627750Y-6977906D02*
X12327750Y-7277906D01*
X12477750Y-6977906D02*
X12477750Y-7277906D01*
X12327750Y-7127906D02*
X12627750Y-7127906D01*
X12962750Y-6723906D02*
X13262750Y-7023906D01*
X13262750Y-6723906D02*
X12962750Y-7023906D01*
X13112750Y-6723906D02*
X13112750Y-7023906D01*
X12962750Y-6873906D02*
X13262750Y-6873906D01*
X10422750Y-10787922D02*
X10722750Y-11087922D01*
X10722750Y-10787922D02*
X10422750Y-11087922D01*
X10572750Y-10787922D02*
X10572750Y-11087922D01*
X10422750Y-10937922D02*
X10722750Y-10937922D01*
X11057750Y-10533922D02*
X11357750Y-10833922D01*
X11357750Y-10533922D02*
X11057750Y-10833922D01*
X11207750Y-10533922D02*
X11207750Y-10833922D01*
X11057750Y-10683922D02*
X11357750Y-10683922D01*
X10422750Y-8882914D02*
X10722750Y-9182914D01*
X10722750Y-8882914D02*
X10422750Y-9182914D01*
X10572750Y-8882914D02*
X10572750Y-9182914D01*
X10422750Y-9032914D02*
X10722750Y-9032914D01*
X11057750Y-8628914D02*
X11357750Y-8928914D01*
X11357750Y-8628914D02*
X11057750Y-8928914D01*
X11207750Y-8628914D02*
X11207750Y-8928914D01*
X11057750Y-8778914D02*
X11357750Y-8778914D01*
X12200750Y-10787922D02*
X12500750Y-11087922D01*
X12500750Y-10787922D02*
X12200750Y-11087922D01*
X12350750Y-10787922D02*
X12350750Y-11087922D01*
X12200750Y-10937922D02*
X12500750Y-10937922D01*
X12454750Y-11422922D02*
X12754750Y-11722922D01*
X12754750Y-11422922D02*
X12454750Y-11722922D01*
X12604750Y-11422922D02*
X12604750Y-11722922D01*
X12454750Y-11572922D02*
X12754750Y-11572922D01*
X6612750Y-10787922D02*
X6912750Y-11087922D01*
X6912750Y-10787922D02*
X6612750Y-11087922D01*
X6762750Y-10787922D02*
X6762750Y-11087922D01*
X6612750Y-10937922D02*
X6912750Y-10937922D01*
X7247750Y-10533922D02*
X7547750Y-10833922D01*
X7547750Y-10533922D02*
X7247750Y-10833922D01*
X7397750Y-10533922D02*
X7397750Y-10833922D01*
X7247750Y-10683922D02*
X7547750Y-10683922D01*
X6612750Y-6977906D02*
X6912750Y-7277906D01*
X6912750Y-6977906D02*
X6612750Y-7277906D01*
X6762750Y-6977906D02*
X6762750Y-7277906D01*
X6612750Y-7127906D02*
X6912750Y-7127906D01*
X7247750Y-6723906D02*
X7547750Y-7023906D01*
X7547750Y-6723906D02*
X7247750Y-7023906D01*
X7397750Y-6723906D02*
X7397750Y-7023906D01*
X7247750Y-6873906D02*
X7547750Y-6873906D01*
X8517750Y-8882914D02*
X8817750Y-9182914D01*
X8817750Y-8882914D02*
X8517750Y-9182914D01*
X8667750Y-8882914D02*
X8667750Y-9182914D01*
X8517750Y-9032914D02*
X8817750Y-9032914D01*
X9152750Y-8628914D02*
X9452750Y-8928914D01*
X9452750Y-8628914D02*
X9152750Y-8928914D01*
X9302750Y-8628914D02*
X9302750Y-8928914D01*
X9152750Y-8778914D02*
X9452750Y-8778914D01*
X10422750Y-5072898D02*
X10722750Y-5372898D01*
X10722750Y-5072898D02*
X10422750Y-5372898D01*
X10572750Y-5072898D02*
X10572750Y-5372898D01*
X10422750Y-5222898D02*
X10722750Y-5222898D01*
X11057750Y-4818898D02*
X11357750Y-5118898D01*
X11357750Y-4818898D02*
X11057750Y-5118898D01*
X11207750Y-4818898D02*
X11207750Y-5118898D01*
X11057750Y-4968898D02*
X11357750Y-4968898D01*
X8644750Y-13454930D02*
X8944750Y-13754930D01*
X8944750Y-13454930D02*
X8644750Y-13754930D01*
X8794750Y-13454930D02*
X8794750Y-13754930D01*
X8644750Y-13604930D02*
X8944750Y-13604930D01*
X9279750Y-13200930D02*
X9579750Y-13500930D01*
X9579750Y-13200930D02*
X9279750Y-13500930D01*
X9429750Y-13200930D02*
X9429750Y-13500930D01*
X9279750Y-13350930D02*
X9579750Y-13350930D01*
X6739750Y-13454930D02*
X7039750Y-13754930D01*
X7039750Y-13454930D02*
X6739750Y-13754930D01*
X6889750Y-13454930D02*
X6889750Y-13754930D01*
X6739750Y-13604930D02*
X7039750Y-13604930D01*
X7374750Y-13200930D02*
X7674750Y-13500930D01*
X7674750Y-13200930D02*
X7374750Y-13500930D01*
X7524750Y-13200930D02*
X7524750Y-13500930D01*
X7374750Y-13350930D02*
X7674750Y-13350930D01*
X8517750Y-5072898D02*
X8817750Y-5372898D01*
X8817750Y-5072898D02*
X8517750Y-5372898D01*
X8667750Y-5072898D02*
X8667750Y-5372898D01*
X8517750Y-5222898D02*
X8817750Y-5222898D01*
X9152750Y-4818898D02*
X9452750Y-5118898D01*
X9452750Y-4818898D02*
X9152750Y-5118898D01*
X9302750Y-4818898D02*
X9302750Y-5118898D01*
X9152750Y-4968898D02*
X9452750Y-4968898D01*
X10422750Y-12692930D02*
X10722750Y-12992930D01*
X10722750Y-12692930D02*
X10422750Y-12992930D01*
X10572750Y-12692930D02*
X10572750Y-12992930D01*
X10422750Y-12842930D02*
X10722750Y-12842930D01*
X11057750Y-12438930D02*
X11357750Y-12738930D01*
X11357750Y-12438930D02*
X11057750Y-12738930D01*
X11207750Y-12438930D02*
X11207750Y-12738930D01*
X11057750Y-12588930D02*
X11357750Y-12588930D01*
X10422750Y-6977906D02*
X10722750Y-7277906D01*
X10722750Y-6977906D02*
X10422750Y-7277906D01*
X10572750Y-6977906D02*
X10572750Y-7277906D01*
X10422750Y-7127906D02*
X10722750Y-7127906D01*
X11057750Y-6723906D02*
X11357750Y-7023906D01*
X11357750Y-6723906D02*
X11057750Y-7023906D01*
X11207750Y-6723906D02*
X11207750Y-7023906D01*
X11057750Y-6873906D02*
X11357750Y-6873906D01*
X12327750Y-8882914D02*
X12627750Y-9182914D01*
X12627750Y-8882914D02*
X12327750Y-9182914D01*
X12477750Y-8882914D02*
X12477750Y-9182914D01*
X12327750Y-9032914D02*
X12627750Y-9032914D01*
X12962750Y-8628914D02*
X13262750Y-8928914D01*
X13262750Y-8628914D02*
X12962750Y-8928914D01*
X13112750Y-8628914D02*
X13112750Y-8928914D01*
X12962750Y-8778914D02*
X13262750Y-8778914D01*
X12327750Y-5072898D02*
X12627750Y-5372898D01*
X12627750Y-5072898D02*
X12327750Y-5372898D01*
X12477750Y-5072898D02*
X12477750Y-5372898D01*
X12327750Y-5222898D02*
X12627750Y-5222898D01*
X12962750Y-4818898D02*
X13262750Y-5118898D01*
X13262750Y-4818898D02*
X12962750Y-5118898D01*
X13112750Y-4818898D02*
X13112750Y-5118898D01*
X12962750Y-4968898D02*
X13262750Y-4968898D01*
X12962750Y-11613426D02*
X13262750Y-11913426D01*
X13262750Y-11613426D02*
X12962750Y-11913426D01*
X13112750Y-11613426D02*
X13112750Y-11913426D01*
X12962750Y-11763426D02*
X13262750Y-11763426D01*
X13216750Y-12248426D02*
X13516750Y-12548426D01*
X13516750Y-12248426D02*
X13216750Y-12548426D01*
X13366750Y-12248426D02*
X13366750Y-12548426D01*
X13216750Y-12398426D02*
X13516750Y-12398426D01*
X8517750Y-10787922D02*
X8817750Y-11087922D01*
X8817750Y-10787922D02*
X8517750Y-11087922D01*
X8667750Y-10787922D02*
X8667750Y-11087922D01*
X8517750Y-10937922D02*
X8817750Y-10937922D01*
X9152750Y-10533922D02*
X9452750Y-10833922D01*
X9452750Y-10533922D02*
X9152750Y-10833922D01*
X9302750Y-10533922D02*
X9302750Y-10833922D01*
X9152750Y-10683922D02*
X9452750Y-10683922D01*
X7565250Y-12692930D02*
X7865250Y-12992930D01*
X7865250Y-12692930D02*
X7565250Y-12992930D01*
X7715250Y-12692930D02*
X7715250Y-12992930D01*
X7565250Y-12842930D02*
X7865250Y-12842930D01*
X8200250Y-12438930D02*
X8500250Y-12738930D01*
X8500250Y-12438930D02*
X8200250Y-12738930D01*
X8350250Y-12438930D02*
X8350250Y-12738930D01*
X8200250Y-12588930D02*
X8500250Y-12588930D01*
X6612750Y-8882914D02*
X6912750Y-9182914D01*
X6912750Y-8882914D02*
X6612750Y-9182914D01*
X6762750Y-8882914D02*
X6762750Y-9182914D01*
X6612750Y-9032914D02*
X6912750Y-9032914D01*
X7247750Y-8628914D02*
X7547750Y-8928914D01*
X7547750Y-8628914D02*
X7247750Y-8928914D01*
X7397750Y-8628914D02*
X7397750Y-8928914D01*
X7247750Y-8778914D02*
X7547750Y-8778914D01*
X12200750Y-12692930D02*
X12500750Y-12992930D01*
X12500750Y-12692930D02*
X12200750Y-12992930D01*
X12350750Y-12692930D02*
X12350750Y-12992930D01*
X12200750Y-12842930D02*
X12500750Y-12842930D01*
X12454750Y-13327930D02*
X12754750Y-13627930D01*
X12754750Y-13327930D02*
X12454750Y-13627930D01*
X12604750Y-13327930D02*
X12604750Y-13627930D01*
X12454750Y-13477930D02*
X12754750Y-13477930D01*
X8517750Y-6977906D02*
X8817750Y-7277906D01*
X8817750Y-6977906D02*
X8517750Y-7277906D01*
X8667750Y-6977906D02*
X8667750Y-7277906D01*
X8517750Y-7127906D02*
X8817750Y-7127906D01*
X9152750Y-6723906D02*
X9452750Y-7023906D01*
X9452750Y-6723906D02*
X9152750Y-7023906D01*
X9302750Y-6723906D02*
X9302750Y-7023906D01*
X9152750Y-6873906D02*
X9452750Y-6873906D01*
X6548250Y-11104422D02*
X6723250Y-11279422D01*
X6723250Y-11104422D02*
X6548250Y-11279422D01*
X6697622Y-11253794D02*
X6697622Y-11130050D01*
X6573878Y-11130050D01*
X6573878Y-11253794D01*
X6697622Y-11253794D01*
X7564250Y-11104422D02*
X7739250Y-11279422D01*
X7739250Y-11104422D02*
X7564250Y-11279422D01*
X7713622Y-11253794D02*
X7713622Y-11130050D01*
X7589878Y-11130050D01*
X7589878Y-11253794D01*
X7713622Y-11253794D01*
X6548250Y-7294406D02*
X6723250Y-7469406D01*
X6723250Y-7294406D02*
X6548250Y-7469406D01*
X6697622Y-7443778D02*
X6697622Y-7320034D01*
X6573878Y-7320034D01*
X6573878Y-7443778D01*
X6697622Y-7443778D01*
X7564250Y-7294406D02*
X7739250Y-7469406D01*
X7739250Y-7294406D02*
X7564250Y-7469406D01*
X7713622Y-7443778D02*
X7713622Y-7320034D01*
X7589878Y-7320034D01*
X7589878Y-7443778D01*
X7713622Y-7443778D01*
X8453250Y-9199414D02*
X8628250Y-9374414D01*
X8628250Y-9199414D02*
X8453250Y-9374414D01*
X8602622Y-9348786D02*
X8602622Y-9225042D01*
X8478878Y-9225042D01*
X8478878Y-9348786D01*
X8602622Y-9348786D01*
X9469250Y-9199414D02*
X9644250Y-9374414D01*
X9644250Y-9199414D02*
X9469250Y-9374414D01*
X9618622Y-9348786D02*
X9618622Y-9225042D01*
X9494878Y-9225042D01*
X9494878Y-9348786D01*
X9618622Y-9348786D01*
X10358250Y-5389398D02*
X10533250Y-5564398D01*
X10533250Y-5389398D02*
X10358250Y-5564398D01*
X10507622Y-5538770D02*
X10507622Y-5415026D01*
X10383878Y-5415026D01*
X10383878Y-5538770D01*
X10507622Y-5538770D01*
X11374250Y-5389398D02*
X11549250Y-5564398D01*
X11549250Y-5389398D02*
X11374250Y-5564398D01*
X11523622Y-5538770D02*
X11523622Y-5415026D01*
X11399878Y-5415026D01*
X11399878Y-5538770D01*
X11523622Y-5538770D01*
X8453250Y-13009430D02*
X8628250Y-13184430D01*
X8628250Y-13009430D02*
X8453250Y-13184430D01*
X8602622Y-13158802D02*
X8602622Y-13035058D01*
X8478878Y-13035058D01*
X8478878Y-13158802D01*
X8602622Y-13158802D01*
X9469250Y-13009430D02*
X9644250Y-13184430D01*
X9644250Y-13009430D02*
X9469250Y-13184430D01*
X9618622Y-13158802D02*
X9618622Y-13035058D01*
X9494878Y-13035058D01*
X9494878Y-13158802D01*
X9618622Y-13158802D01*
X6548250Y-13009430D02*
X6723250Y-13184430D01*
X6723250Y-13009430D02*
X6548250Y-13184430D01*
X6697622Y-13158802D02*
X6697622Y-13035058D01*
X6573878Y-13035058D01*
X6573878Y-13158802D01*
X6697622Y-13158802D01*
X7564250Y-13009430D02*
X7739250Y-13184430D01*
X7739250Y-13009430D02*
X7564250Y-13184430D01*
X7713622Y-13158802D02*
X7713622Y-13035058D01*
X7589878Y-13035058D01*
X7589878Y-13158802D01*
X7713622Y-13158802D01*
X8453250Y-5389398D02*
X8628250Y-5564398D01*
X8628250Y-5389398D02*
X8453250Y-5564398D01*
X8602622Y-5538770D02*
X8602622Y-5415026D01*
X8478878Y-5415026D01*
X8478878Y-5538770D01*
X8602622Y-5538770D01*
X9469250Y-5389398D02*
X9644250Y-5564398D01*
X9644250Y-5389398D02*
X9469250Y-5564398D01*
X9618622Y-5538770D02*
X9618622Y-5415026D01*
X9494878Y-5415026D01*
X9494878Y-5538770D01*
X9618622Y-5538770D01*
X10358250Y-13009430D02*
X10533250Y-13184430D01*
X10533250Y-13009430D02*
X10358250Y-13184430D01*
X10507622Y-13158802D02*
X10507622Y-13035058D01*
X10383878Y-13035058D01*
X10383878Y-13158802D01*
X10507622Y-13158802D01*
X11374250Y-13009430D02*
X11549250Y-13184430D01*
X11549250Y-13009430D02*
X11374250Y-13184430D01*
X11523622Y-13158802D02*
X11523622Y-13035058D01*
X11399878Y-13035058D01*
X11399878Y-13158802D01*
X11523622Y-13158802D01*
X10358250Y-7294406D02*
X10533250Y-7469406D01*
X10533250Y-7294406D02*
X10358250Y-7469406D01*
X10507622Y-7443778D02*
X10507622Y-7320034D01*
X10383878Y-7320034D01*
X10383878Y-7443778D01*
X10507622Y-7443778D01*
X11374250Y-7294406D02*
X11549250Y-7469406D01*
X11549250Y-7294406D02*
X11374250Y-7469406D01*
X11523622Y-7443778D02*
X11523622Y-7320034D01*
X11399878Y-7320034D01*
X11399878Y-7443778D01*
X11523622Y-7443778D01*
X12263250Y-9199414D02*
X12438250Y-9374414D01*
X12438250Y-9199414D02*
X12263250Y-9374414D01*
X12412622Y-9348786D02*
X12412622Y-9225042D01*
X12288878Y-9225042D01*
X12288878Y-9348786D01*
X12412622Y-9348786D01*
X13279250Y-9199414D02*
X13454250Y-9374414D01*
X13454250Y-9199414D02*
X13279250Y-9374414D01*
X13428622Y-9348786D02*
X13428622Y-9225042D01*
X13304878Y-9225042D01*
X13304878Y-9348786D01*
X13428622Y-9348786D01*
X12263250Y-5389398D02*
X12438250Y-5564398D01*
X12438250Y-5389398D02*
X12263250Y-5564398D01*
X12412622Y-5538770D02*
X12412622Y-5415026D01*
X12288878Y-5415026D01*
X12288878Y-5538770D01*
X12412622Y-5538770D01*
X13279250Y-5389398D02*
X13454250Y-5564398D01*
X13454250Y-5389398D02*
X13279250Y-5564398D01*
X13428622Y-5538770D02*
X13428622Y-5415026D01*
X13304878Y-5415026D01*
X13304878Y-5538770D01*
X13428622Y-5538770D01*
X12771250Y-11548926D02*
X12946250Y-11723926D01*
X12946250Y-11548926D02*
X12771250Y-11723926D01*
X12920622Y-11698298D02*
X12920622Y-11574554D01*
X12796878Y-11574554D01*
X12796878Y-11698298D01*
X12920622Y-11698298D01*
X12771250Y-12564926D02*
X12946250Y-12739926D01*
X12946250Y-12564926D02*
X12771250Y-12739926D01*
X12920622Y-12714298D02*
X12920622Y-12590554D01*
X12796878Y-12590554D01*
X12796878Y-12714298D01*
X12920622Y-12714298D01*
X8453250Y-11104422D02*
X8628250Y-11279422D01*
X8628250Y-11104422D02*
X8453250Y-11279422D01*
X8602622Y-11253794D02*
X8602622Y-11130050D01*
X8478878Y-11130050D01*
X8478878Y-11253794D01*
X8602622Y-11253794D01*
X9469250Y-11104422D02*
X9644250Y-11279422D01*
X9644250Y-11104422D02*
X9469250Y-11279422D01*
X9618622Y-11253794D02*
X9618622Y-11130050D01*
X9494878Y-11130050D01*
X9494878Y-11253794D01*
X9618622Y-11253794D01*
X7500750Y-13009430D02*
X7675750Y-13184430D01*
X7675750Y-13009430D02*
X7500750Y-13184430D01*
X7650122Y-13158802D02*
X7650122Y-13035058D01*
X7526378Y-13035058D01*
X7526378Y-13158802D01*
X7650122Y-13158802D01*
X8516750Y-13009430D02*
X8691750Y-13184430D01*
X8691750Y-13009430D02*
X8516750Y-13184430D01*
X8666122Y-13158802D02*
X8666122Y-13035058D01*
X8542378Y-13035058D01*
X8542378Y-13158802D01*
X8666122Y-13158802D01*
X6548250Y-9199414D02*
X6723250Y-9374414D01*
X6723250Y-9199414D02*
X6548250Y-9374414D01*
X6697622Y-9348786D02*
X6697622Y-9225042D01*
X6573878Y-9225042D01*
X6573878Y-9348786D01*
X6697622Y-9348786D01*
X7564250Y-9199414D02*
X7739250Y-9374414D01*
X7739250Y-9199414D02*
X7564250Y-9374414D01*
X7713622Y-9348786D02*
X7713622Y-9225042D01*
X7589878Y-9225042D01*
X7589878Y-9348786D01*
X7713622Y-9348786D01*
X12771250Y-12501430D02*
X12946250Y-12676430D01*
X12946250Y-12501430D02*
X12771250Y-12676430D01*
X12920622Y-12650802D02*
X12920622Y-12527058D01*
X12796878Y-12527058D01*
X12796878Y-12650802D01*
X12920622Y-12650802D01*
X12771250Y-13517430D02*
X12946250Y-13692430D01*
X12946250Y-13517430D02*
X12771250Y-13692430D01*
X12920622Y-13666802D02*
X12920622Y-13543058D01*
X12796878Y-13543058D01*
X12796878Y-13666802D01*
X12920622Y-13666802D01*
X8453250Y-7294406D02*
X8628250Y-7469406D01*
X8628250Y-7294406D02*
X8453250Y-7469406D01*
X8602622Y-7443778D02*
X8602622Y-7320034D01*
X8478878Y-7320034D01*
X8478878Y-7443778D01*
X8602622Y-7443778D01*
X9469250Y-7294406D02*
X9644250Y-7469406D01*
X9644250Y-7294406D02*
X9469250Y-7469406D01*
X9618622Y-7443778D02*
X9618622Y-7320034D01*
X9494878Y-7320034D01*
X9494878Y-7443778D01*
X9618622Y-7443778D01*
X12263250Y-7294406D02*
X12438250Y-7469406D01*
X12438250Y-7294406D02*
X12263250Y-7469406D01*
X12412622Y-7443778D02*
X12412622Y-7320034D01*
X12288878Y-7320034D01*
X12288878Y-7443778D01*
X12412622Y-7443778D01*
X13279250Y-7294406D02*
X13454250Y-7469406D01*
X13454250Y-7294406D02*
X13279250Y-7469406D01*
X13428622Y-7443778D02*
X13428622Y-7320034D01*
X13304878Y-7320034D01*
X13304878Y-7443778D01*
X13428622Y-7443778D01*
X10358250Y-11104422D02*
X10533250Y-11279422D01*
X10533250Y-11104422D02*
X10358250Y-11279422D01*
X10507622Y-11253794D02*
X10507622Y-11130050D01*
X10383878Y-11130050D01*
X10383878Y-11253794D01*
X10507622Y-11253794D01*
X11374250Y-11104422D02*
X11549250Y-11279422D01*
X11549250Y-11104422D02*
X11374250Y-11279422D01*
X11523622Y-11253794D02*
X11523622Y-11130050D01*
X11399878Y-11130050D01*
X11399878Y-11253794D01*
X11523622Y-11253794D01*
X10358250Y-9199414D02*
X10533250Y-9374414D01*
X10533250Y-9199414D02*
X10358250Y-9374414D01*
X10507622Y-9348786D02*
X10507622Y-9225042D01*
X10383878Y-9225042D01*
X10383878Y-9348786D01*
X10507622Y-9348786D01*
X11374250Y-9199414D02*
X11549250Y-9374414D01*
X11549250Y-9199414D02*
X11374250Y-9374414D01*
X11523622Y-9348786D02*
X11523622Y-9225042D01*
X11399878Y-9225042D01*
X11399878Y-9348786D01*
X11523622Y-9348786D01*
X12771250Y-10596422D02*
X12946250Y-10771422D01*
X12946250Y-10596422D02*
X12771250Y-10771422D01*
X12920622Y-10745794D02*
X12920622Y-10622050D01*
X12796878Y-10622050D01*
X12796878Y-10745794D01*
X12920622Y-10745794D01*
X12771250Y-11612422D02*
X12946250Y-11787422D01*
X12946250Y-11612422D02*
X12771250Y-11787422D01*
X12920622Y-11761794D02*
X12920622Y-11638050D01*
X12796878Y-11638050D01*
X12796878Y-11761794D01*
X12920622Y-11761794D01*
X6750050Y-13643030D02*
X7054850Y-13947830D01*
X7054850Y-13643030D02*
X6750050Y-13947830D01*
X6902450Y-13947830D02*
X7054850Y-13795430D01*
X6902450Y-13643030D01*
X6750050Y-13795430D01*
X6902450Y-13947830D01*
X9137650Y-13643030D02*
X9442450Y-13947830D01*
X9442450Y-13643030D02*
X9137650Y-13947830D01*
X9290050Y-13947830D02*
X9442450Y-13795430D01*
X9290050Y-13643030D01*
X9137650Y-13795430D01*
X9290050Y-13947830D01*
X13404850Y-10798226D02*
X13709650Y-11103026D01*
X13709650Y-10798226D02*
X13404850Y-11103026D01*
X13557250Y-11103026D02*
X13709650Y-10950626D01*
X13557250Y-10798226D01*
X13404850Y-10950626D01*
X13557250Y-11103026D01*
X13404850Y-13185826D02*
X13709650Y-13490626D01*
X13709650Y-13185826D02*
X13404850Y-13490626D01*
X13557250Y-13490626D02*
X13709650Y-13338226D01*
X13557250Y-13185826D01*
X13404850Y-13338226D01*
X13557250Y-13490626D01*
X7143750Y-7182516D02*
X7143750Y-7581296D01*
X6944360Y-7381906D02*
X7343140Y-7381906D01*
X7343140Y-7381906D02*
G75*
G03X7343140Y-7381906I-199390J0D01*
G01*
X9048750Y-9087524D02*
X9048750Y-9486304D01*
X8849360Y-9286914D02*
X9248140Y-9286914D01*
X9248140Y-9286914D02*
G75*
G03X9248140Y-9286914I-199390J0D01*
G01*
X10953750Y-5277508D02*
X10953750Y-5676288D01*
X10754360Y-5476898D02*
X11153140Y-5476898D01*
X11153140Y-5476898D02*
G75*
G03X11153140Y-5476898I-199390J0D01*
G01*
X9048750Y-12897540D02*
X9048750Y-13296320D01*
X8849360Y-13096930D02*
X9248140Y-13096930D01*
X9248140Y-13096930D02*
G75*
G03X9248140Y-13096930I-199390J0D01*
G01*
X7143750Y-12897540D02*
X7143750Y-13296320D01*
X6944360Y-13096930D02*
X7343140Y-13096930D01*
X7343140Y-13096930D02*
G75*
G03X7343140Y-13096930I-199390J0D01*
G01*
X6902450Y-12072040D02*
X6902450Y-12470820D01*
X6703060Y-12271430D02*
X7101840Y-12271430D01*
X7101840Y-12271430D02*
G75*
G03X7101840Y-12271430I-199390J0D01*
G01*
X9290050Y-12072040D02*
X9290050Y-12470820D01*
X9090660Y-12271430D02*
X9489440Y-12271430D01*
X9489440Y-12271430D02*
G75*
G03X9489440Y-12271430I-199390J0D01*
G01*
X9048750Y-5277508D02*
X9048750Y-5676288D01*
X8849360Y-5476898D02*
X9248140Y-5476898D01*
X9248140Y-5476898D02*
G75*
G03X9248140Y-5476898I-199390J0D01*
G01*
X10953750Y-12897540D02*
X10953750Y-13296320D01*
X10754360Y-13096930D02*
X11153140Y-13096930D01*
X11153140Y-13096930D02*
G75*
G03X11153140Y-13096930I-199390J0D01*
G01*
X10953750Y-7182516D02*
X10953750Y-7581296D01*
X10754360Y-7381906D02*
X11153140Y-7381906D01*
X11153140Y-7381906D02*
G75*
G03X11153140Y-7381906I-199390J0D01*
G01*
X12858750Y-9087524D02*
X12858750Y-9486304D01*
X12659360Y-9286914D02*
X13058140Y-9286914D01*
X13058140Y-9286914D02*
G75*
G03X13058140Y-9286914I-199390J0D01*
G01*
X12858750Y-5277508D02*
X12858750Y-5676288D01*
X12659360Y-5476898D02*
X13058140Y-5476898D01*
X13058140Y-5476898D02*
G75*
G03X13058140Y-5476898I-199390J0D01*
G01*
X12858750Y-11945036D02*
X12858750Y-12343816D01*
X12659360Y-12144426D02*
X13058140Y-12144426D01*
X13058140Y-12144426D02*
G75*
G03X13058140Y-12144426I-199390J0D01*
G01*
X9048750Y-10992532D02*
X9048750Y-11391312D01*
X8849360Y-11191922D02*
X9248140Y-11191922D01*
X9248140Y-11191922D02*
G75*
G03X9248140Y-11191922I-199390J0D01*
G01*
X8096250Y-12897540D02*
X8096250Y-13296320D01*
X7896860Y-13096930D02*
X8295640Y-13096930D01*
X8295640Y-13096930D02*
G75*
G03X8295640Y-13096930I-199390J0D01*
G01*
X12033250Y-10751236D02*
X12033250Y-11150016D01*
X11833860Y-10950626D02*
X12232640Y-10950626D01*
X12232640Y-10950626D02*
G75*
G03X12232640Y-10950626I-199390J0D01*
G01*
X12033250Y-13138836D02*
X12033250Y-13537616D01*
X11833860Y-13338226D02*
X12232640Y-13338226D01*
X12232640Y-13338226D02*
G75*
G03X12232640Y-13338226I-199390J0D01*
G01*
X7143750Y-9087524D02*
X7143750Y-9486304D01*
X6944360Y-9286914D02*
X7343140Y-9286914D01*
X7343140Y-9286914D02*
G75*
G03X7343140Y-9286914I-199390J0D01*
G01*
X12858750Y-12897540D02*
X12858750Y-13296320D01*
X12659360Y-13096930D02*
X13058140Y-13096930D01*
X13058140Y-13096930D02*
G75*
G03X13058140Y-13096930I-199390J0D01*
G01*
X9048750Y-7182516D02*
X9048750Y-7581296D01*
X8849360Y-7381906D02*
X9248140Y-7381906D01*
X9248140Y-7381906D02*
G75*
G03X9248140Y-7381906I-199390J0D01*
G01*
X12858750Y-7182516D02*
X12858750Y-7581296D01*
X12659360Y-7381906D02*
X13058140Y-7381906D01*
X13058140Y-7381906D02*
G75*
G03X13058140Y-7381906I-199390J0D01*
G01*
X10953750Y-10992532D02*
X10953750Y-11391312D01*
X10754360Y-11191922D02*
X11153140Y-11191922D01*
X11153140Y-11191922D02*
G75*
G03X11153140Y-11191922I-199390J0D01*
G01*
X10953750Y-9087524D02*
X10953750Y-9486304D01*
X10754360Y-9286914D02*
X11153140Y-9286914D01*
X11153140Y-9286914D02*
G75*
G03X11153140Y-9286914I-199390J0D01*
G01*
X12858750Y-10992532D02*
X12858750Y-11391312D01*
X12659360Y-11191922D02*
X13058140Y-11191922D01*
X13058140Y-11191922D02*
G75*
G03X13058140Y-11191922I-199390J0D01*
G01*
X7143750Y-10992532D02*
X7143750Y-11391312D01*
X6944360Y-11191922D02*
X7343140Y-11191922D01*
X7343140Y-11191922D02*
G75*
G03X7343140Y-11191922I-199390J0D01*
G01*
D12*
X6093448Y-17104383D02*
X6093448Y-16804383D01*
X6164877Y-16804383D01*
X6207734Y-16818668D01*
X6236305Y-16847240D01*
X6250591Y-16875811D01*
X6264877Y-16932954D01*
X6264877Y-16975811D01*
X6250591Y-17032954D01*
X6236305Y-17061526D01*
X6207734Y-17090097D01*
X6164877Y-17104383D01*
X6093448Y-17104383D01*
X6393448Y-17104383D02*
X6393448Y-16904383D01*
X6393448Y-16961526D02*
X6407734Y-16932954D01*
X6422019Y-16918668D01*
X6450591Y-16904383D01*
X6479162Y-16904383D01*
X6579162Y-17104383D02*
X6579162Y-16904383D01*
X6579162Y-16804383D02*
X6564877Y-16818668D01*
X6579162Y-16832954D01*
X6593448Y-16818668D01*
X6579162Y-16804383D01*
X6579162Y-16832954D01*
X6764877Y-17104383D02*
X6736305Y-17090097D01*
X6722019Y-17061526D01*
X6722019Y-16804383D01*
X6922019Y-17104383D02*
X6893448Y-17090097D01*
X6879162Y-17061526D01*
X6879162Y-16804383D01*
X7264877Y-17104383D02*
X7264877Y-16804383D01*
X7364877Y-17018668D01*
X7464877Y-16804383D01*
X7464877Y-17104383D01*
X7736305Y-17104383D02*
X7736305Y-16947240D01*
X7722019Y-16918668D01*
X7693448Y-16904383D01*
X7636305Y-16904383D01*
X7607734Y-16918668D01*
X7736305Y-17090097D02*
X7707734Y-17104383D01*
X7636305Y-17104383D01*
X7607734Y-17090097D01*
X7593448Y-17061526D01*
X7593448Y-17032954D01*
X7607734Y-17004383D01*
X7636305Y-16990097D01*
X7707734Y-16990097D01*
X7736305Y-16975811D01*
X7879162Y-16904383D02*
X7879162Y-17204383D01*
X7879162Y-16918668D02*
X7907734Y-16904383D01*
X7964877Y-16904383D01*
X7993448Y-16918668D01*
X8007734Y-16932954D01*
X8022019Y-16961526D01*
X8022019Y-17047240D01*
X8007734Y-17075811D01*
X7993448Y-17090097D01*
X7964877Y-17104383D01*
X7907734Y-17104383D01*
X7879162Y-17090097D01*
X8150591Y-17075811D02*
X8164877Y-17090097D01*
X8150591Y-17104383D01*
X8136305Y-17090097D01*
X8150591Y-17075811D01*
X8150591Y-17104383D01*
X8150591Y-16918668D02*
X8164877Y-16932954D01*
X8150591Y-16947240D01*
X8136305Y-16932954D01*
X8150591Y-16918668D01*
X8150591Y-16947240D01*
X5767019Y-17578668D02*
X5807019Y-17618668D01*
X5807019Y-17578668D02*
X5767019Y-17618668D01*
X6150591Y-17434383D02*
X6179162Y-17434383D01*
X6207734Y-17448668D01*
X6222019Y-17462954D01*
X6236305Y-17491526D01*
X6250591Y-17548668D01*
X6250591Y-17620097D01*
X6236305Y-17677240D01*
X6222019Y-17705811D01*
X6207734Y-17720097D01*
X6179162Y-17734383D01*
X6150591Y-17734383D01*
X6122019Y-17720097D01*
X6107734Y-17705811D01*
X6093448Y-17677240D01*
X6079162Y-17620097D01*
X6079162Y-17548668D01*
X6093448Y-17491526D01*
X6107734Y-17462954D01*
X6122019Y-17448668D01*
X6150591Y-17434383D01*
X6379162Y-17705811D02*
X6393448Y-17720097D01*
X6379162Y-17734383D01*
X6364877Y-17720097D01*
X6379162Y-17705811D01*
X6379162Y-17734383D01*
X6650591Y-17534383D02*
X6650591Y-17734383D01*
X6579162Y-17420097D02*
X6507734Y-17634383D01*
X6693448Y-17634383D01*
X6864877Y-17434383D02*
X6893448Y-17434383D01*
X6922019Y-17448668D01*
X6936305Y-17462954D01*
X6950591Y-17491526D01*
X6964877Y-17548668D01*
X6964877Y-17620097D01*
X6950591Y-17677240D01*
X6936305Y-17705811D01*
X6922019Y-17720097D01*
X6893448Y-17734383D01*
X6864877Y-17734383D01*
X6836305Y-17720097D01*
X6822019Y-17705811D01*
X6807734Y-17677240D01*
X6793448Y-17620097D01*
X6793448Y-17548668D01*
X6807734Y-17491526D01*
X6822019Y-17462954D01*
X6836305Y-17448668D01*
X6864877Y-17434383D01*
X7093448Y-17734383D02*
X7093448Y-17534383D01*
X7093448Y-17562954D02*
X7107734Y-17548668D01*
X7136305Y-17534383D01*
X7179162Y-17534383D01*
X7207734Y-17548668D01*
X7222019Y-17577240D01*
X7222019Y-17734383D01*
X7222019Y-17577240D02*
X7236305Y-17548668D01*
X7264877Y-17534383D01*
X7307734Y-17534383D01*
X7336305Y-17548668D01*
X7350591Y-17577240D01*
X7350591Y-17734383D01*
X7493448Y-17734383D02*
X7493448Y-17534383D01*
X7493448Y-17562954D02*
X7507734Y-17548668D01*
X7536305Y-17534383D01*
X7579162Y-17534383D01*
X7607734Y-17548668D01*
X7622019Y-17577240D01*
X7622019Y-17734383D01*
X7622019Y-17577240D02*
X7636305Y-17548668D01*
X7664877Y-17534383D01*
X7707734Y-17534383D01*
X7736305Y-17548668D01*
X7750591Y-17577240D01*
X7750591Y-17734383D01*
X8336305Y-17420097D02*
X8079162Y-17805811D01*
X8722020Y-17434383D02*
X8750591Y-17434383D01*
X8779162Y-17448668D01*
X8793448Y-17462954D01*
X8807734Y-17491526D01*
X8822020Y-17548668D01*
X8822020Y-17620097D01*
X8807734Y-17677240D01*
X8793448Y-17705811D01*
X8779162Y-17720097D01*
X8750591Y-17734383D01*
X8722020Y-17734383D01*
X8693448Y-17720097D01*
X8679162Y-17705811D01*
X8664877Y-17677240D01*
X8650591Y-17620097D01*
X8650591Y-17548668D01*
X8664877Y-17491526D01*
X8679162Y-17462954D01*
X8693448Y-17448668D01*
X8722020Y-17434383D01*
X8950591Y-17705811D02*
X8964877Y-17720097D01*
X8950591Y-17734383D01*
X8936305Y-17720097D01*
X8950591Y-17705811D01*
X8950591Y-17734383D01*
X9150591Y-17434383D02*
X9179162Y-17434383D01*
X9207734Y-17448668D01*
X9222020Y-17462954D01*
X9236305Y-17491526D01*
X9250591Y-17548668D01*
X9250591Y-17620097D01*
X9236305Y-17677240D01*
X9222020Y-17705811D01*
X9207734Y-17720097D01*
X9179162Y-17734383D01*
X9150591Y-17734383D01*
X9122020Y-17720097D01*
X9107734Y-17705811D01*
X9093448Y-17677240D01*
X9079162Y-17620097D01*
X9079162Y-17548668D01*
X9093448Y-17491526D01*
X9107734Y-17462954D01*
X9122020Y-17448668D01*
X9150591Y-17434383D01*
X9536305Y-17734383D02*
X9364877Y-17734383D01*
X9450591Y-17734383D02*
X9450591Y-17434383D01*
X9422020Y-17477240D01*
X9393448Y-17505811D01*
X9364877Y-17520097D01*
X9793448Y-17434383D02*
X9736305Y-17434383D01*
X9707734Y-17448668D01*
X9693448Y-17462954D01*
X9664877Y-17505811D01*
X9650591Y-17562954D01*
X9650591Y-17677240D01*
X9664877Y-17705811D01*
X9679162Y-17720097D01*
X9707734Y-17734383D01*
X9764877Y-17734383D01*
X9793448Y-17720097D01*
X9807734Y-17705811D01*
X9822020Y-17677240D01*
X9822020Y-17605811D01*
X9807734Y-17577240D01*
X9793448Y-17562954D01*
X9764877Y-17548668D01*
X9707734Y-17548668D01*
X9679162Y-17562954D01*
X9664877Y-17577240D01*
X9650591Y-17605811D01*
X9936305Y-17434383D02*
X9936305Y-17491526D01*
X10050591Y-17434383D02*
X10050591Y-17491526D01*
X10493448Y-17848668D02*
X10479162Y-17834383D01*
X10450591Y-17791526D01*
X10436305Y-17762954D01*
X10422020Y-17720097D01*
X10407734Y-17648668D01*
X10407734Y-17591526D01*
X10422020Y-17520097D01*
X10436305Y-17477240D01*
X10450591Y-17448668D01*
X10479162Y-17405811D01*
X10493448Y-17391526D01*
X10764877Y-17734383D02*
X10593448Y-17734383D01*
X10679162Y-17734383D02*
X10679162Y-17434383D01*
X10650591Y-17477240D01*
X10622020Y-17505811D01*
X10593448Y-17520097D01*
X11022020Y-17534383D02*
X11022020Y-17734383D01*
X10950591Y-17420097D02*
X10879162Y-17634383D01*
X11064877Y-17634383D01*
X11307734Y-17534383D02*
X11307734Y-17734383D01*
X11236305Y-17420097D02*
X11164877Y-17634383D01*
X11350591Y-17634383D01*
X11693448Y-17734383D02*
X11693448Y-17434383D01*
X11822019Y-17734383D02*
X11822019Y-17577240D01*
X11807734Y-17548668D01*
X11779162Y-17534383D01*
X11736305Y-17534383D01*
X11707734Y-17548668D01*
X11693448Y-17562954D01*
X12007734Y-17734383D02*
X11979162Y-17720097D01*
X11964877Y-17705811D01*
X11950591Y-17677240D01*
X11950591Y-17591526D01*
X11964877Y-17562954D01*
X11979162Y-17548668D01*
X12007734Y-17534383D01*
X12050591Y-17534383D01*
X12079162Y-17548668D01*
X12093448Y-17562954D01*
X12107734Y-17591526D01*
X12107734Y-17677240D01*
X12093448Y-17705811D01*
X12079162Y-17720097D01*
X12050591Y-17734383D01*
X12007734Y-17734383D01*
X12279162Y-17734383D02*
X12250591Y-17720097D01*
X12236305Y-17691526D01*
X12236305Y-17434383D01*
X12507734Y-17720097D02*
X12479162Y-17734383D01*
X12422019Y-17734383D01*
X12393448Y-17720097D01*
X12379162Y-17691526D01*
X12379162Y-17577240D01*
X12393448Y-17548668D01*
X12422019Y-17534383D01*
X12479162Y-17534383D01*
X12507734Y-17548668D01*
X12522019Y-17577240D01*
X12522019Y-17605811D01*
X12379162Y-17634383D01*
X12636305Y-17720097D02*
X12664877Y-17734383D01*
X12722019Y-17734383D01*
X12750591Y-17720097D01*
X12764877Y-17691526D01*
X12764877Y-17677240D01*
X12750591Y-17648668D01*
X12722019Y-17634383D01*
X12679162Y-17634383D01*
X12650591Y-17620097D01*
X12636305Y-17591526D01*
X12636305Y-17577240D01*
X12650591Y-17548668D01*
X12679162Y-17534383D01*
X12722019Y-17534383D01*
X12750591Y-17548668D01*
X12864877Y-17848668D02*
X12879162Y-17834383D01*
X12907734Y-17791526D01*
X12922019Y-17762954D01*
X12936305Y-17720097D01*
X12950591Y-17648668D01*
X12950591Y-17591526D01*
X12936305Y-17520097D01*
X12922019Y-17477240D01*
X12907734Y-17448668D01*
X12879162Y-17405811D01*
X12864877Y-17391526D01*
X5807019Y-17994668D02*
G75*
G03X5807019Y-17994668I-30000J0D01*
G01*
X6150591Y-17830383D02*
X6179162Y-17830383D01*
X6207734Y-17844668D01*
X6222019Y-17858954D01*
X6236305Y-17887526D01*
X6250591Y-17944668D01*
X6250591Y-18016097D01*
X6236305Y-18073240D01*
X6222019Y-18101811D01*
X6207734Y-18116097D01*
X6179162Y-18130383D01*
X6150591Y-18130383D01*
X6122019Y-18116097D01*
X6107734Y-18101811D01*
X6093448Y-18073240D01*
X6079162Y-18016097D01*
X6079162Y-17944668D01*
X6093448Y-17887526D01*
X6107734Y-17858954D01*
X6122019Y-17844668D01*
X6150591Y-17830383D01*
X6379162Y-18101811D02*
X6393448Y-18116097D01*
X6379162Y-18130383D01*
X6364877Y-18116097D01*
X6379162Y-18101811D01*
X6379162Y-18130383D01*
X6650591Y-17830383D02*
X6593448Y-17830383D01*
X6564877Y-17844668D01*
X6550591Y-17858954D01*
X6522019Y-17901811D01*
X6507734Y-17958954D01*
X6507734Y-18073240D01*
X6522019Y-18101811D01*
X6536305Y-18116097D01*
X6564877Y-18130383D01*
X6622019Y-18130383D01*
X6650591Y-18116097D01*
X6664877Y-18101811D01*
X6679162Y-18073240D01*
X6679162Y-18001811D01*
X6664877Y-17973240D01*
X6650591Y-17958954D01*
X6622019Y-17944668D01*
X6564877Y-17944668D01*
X6536305Y-17958954D01*
X6522019Y-17973240D01*
X6507734Y-18001811D01*
X6864877Y-17830383D02*
X6893448Y-17830383D01*
X6922019Y-17844668D01*
X6936305Y-17858954D01*
X6950591Y-17887526D01*
X6964877Y-17944668D01*
X6964877Y-18016097D01*
X6950591Y-18073240D01*
X6936305Y-18101811D01*
X6922019Y-18116097D01*
X6893448Y-18130383D01*
X6864877Y-18130383D01*
X6836305Y-18116097D01*
X6822019Y-18101811D01*
X6807734Y-18073240D01*
X6793448Y-18016097D01*
X6793448Y-17944668D01*
X6807734Y-17887526D01*
X6822019Y-17858954D01*
X6836305Y-17844668D01*
X6864877Y-17830383D01*
X7093448Y-18130383D02*
X7093448Y-17930383D01*
X7093448Y-17958954D02*
X7107734Y-17944668D01*
X7136305Y-17930383D01*
X7179162Y-17930383D01*
X7207734Y-17944668D01*
X7222019Y-17973240D01*
X7222019Y-18130383D01*
X7222019Y-17973240D02*
X7236305Y-17944668D01*
X7264877Y-17930383D01*
X7307734Y-17930383D01*
X7336305Y-17944668D01*
X7350591Y-17973240D01*
X7350591Y-18130383D01*
X7493448Y-18130383D02*
X7493448Y-17930383D01*
X7493448Y-17958954D02*
X7507734Y-17944668D01*
X7536305Y-17930383D01*
X7579162Y-17930383D01*
X7607734Y-17944668D01*
X7622019Y-17973240D01*
X7622019Y-18130383D01*
X7622019Y-17973240D02*
X7636305Y-17944668D01*
X7664877Y-17930383D01*
X7707734Y-17930383D01*
X7736305Y-17944668D01*
X7750591Y-17973240D01*
X7750591Y-18130383D01*
X8336305Y-17816097D02*
X8079162Y-18201811D01*
X8722020Y-17830383D02*
X8750591Y-17830383D01*
X8779162Y-17844668D01*
X8793448Y-17858954D01*
X8807734Y-17887526D01*
X8822020Y-17944668D01*
X8822020Y-18016097D01*
X8807734Y-18073240D01*
X8793448Y-18101811D01*
X8779162Y-18116097D01*
X8750591Y-18130383D01*
X8722020Y-18130383D01*
X8693448Y-18116097D01*
X8679162Y-18101811D01*
X8664877Y-18073240D01*
X8650591Y-18016097D01*
X8650591Y-17944668D01*
X8664877Y-17887526D01*
X8679162Y-17858954D01*
X8693448Y-17844668D01*
X8722020Y-17830383D01*
X8950591Y-18101811D02*
X8964877Y-18116097D01*
X8950591Y-18130383D01*
X8936305Y-18116097D01*
X8950591Y-18101811D01*
X8950591Y-18130383D01*
X9150591Y-17830383D02*
X9179162Y-17830383D01*
X9207734Y-17844668D01*
X9222020Y-17858954D01*
X9236305Y-17887526D01*
X9250591Y-17944668D01*
X9250591Y-18016097D01*
X9236305Y-18073240D01*
X9222020Y-18101811D01*
X9207734Y-18116097D01*
X9179162Y-18130383D01*
X9150591Y-18130383D01*
X9122020Y-18116097D01*
X9107734Y-18101811D01*
X9093448Y-18073240D01*
X9079162Y-18016097D01*
X9079162Y-17944668D01*
X9093448Y-17887526D01*
X9107734Y-17858954D01*
X9122020Y-17844668D01*
X9150591Y-17830383D01*
X9364877Y-17858954D02*
X9379162Y-17844668D01*
X9407734Y-17830383D01*
X9479162Y-17830383D01*
X9507734Y-17844668D01*
X9522020Y-17858954D01*
X9536305Y-17887526D01*
X9536305Y-17916097D01*
X9522020Y-17958954D01*
X9350591Y-18130383D01*
X9536305Y-18130383D01*
X9793448Y-17930383D02*
X9793448Y-18130383D01*
X9722020Y-17816097D02*
X9650591Y-18030383D01*
X9836305Y-18030383D01*
X9936305Y-17830383D02*
X9936305Y-17887526D01*
X10050591Y-17830383D02*
X10050591Y-17887526D01*
X10493448Y-18244668D02*
X10479162Y-18230383D01*
X10450591Y-18187526D01*
X10436305Y-18158954D01*
X10422020Y-18116097D01*
X10407734Y-18044668D01*
X10407734Y-17987526D01*
X10422020Y-17916097D01*
X10436305Y-17873240D01*
X10450591Y-17844668D01*
X10479162Y-17801811D01*
X10493448Y-17787526D01*
X10579162Y-17830383D02*
X10779162Y-17830383D01*
X10650591Y-18130383D01*
X11122020Y-18130383D02*
X11122020Y-17830383D01*
X11250591Y-18130383D02*
X11250591Y-17973240D01*
X11236305Y-17944668D01*
X11207734Y-17930383D01*
X11164877Y-17930383D01*
X11136305Y-17944668D01*
X11122020Y-17958954D01*
X11436305Y-18130383D02*
X11407734Y-18116097D01*
X11393448Y-18101811D01*
X11379162Y-18073240D01*
X11379162Y-17987526D01*
X11393448Y-17958954D01*
X11407734Y-17944668D01*
X11436305Y-17930383D01*
X11479162Y-17930383D01*
X11507734Y-17944668D01*
X11522019Y-17958954D01*
X11536305Y-17987526D01*
X11536305Y-18073240D01*
X11522019Y-18101811D01*
X11507734Y-18116097D01*
X11479162Y-18130383D01*
X11436305Y-18130383D01*
X11707734Y-18130383D02*
X11679162Y-18116097D01*
X11664877Y-18087526D01*
X11664877Y-17830383D01*
X11936305Y-18116097D02*
X11907734Y-18130383D01*
X11850591Y-18130383D01*
X11822019Y-18116097D01*
X11807734Y-18087526D01*
X11807734Y-17973240D01*
X11822019Y-17944668D01*
X11850591Y-17930383D01*
X11907734Y-17930383D01*
X11936305Y-17944668D01*
X11950591Y-17973240D01*
X11950591Y-18001811D01*
X11807734Y-18030383D01*
X12064877Y-18116097D02*
X12093448Y-18130383D01*
X12150591Y-18130383D01*
X12179162Y-18116097D01*
X12193448Y-18087526D01*
X12193448Y-18073240D01*
X12179162Y-18044668D01*
X12150591Y-18030383D01*
X12107734Y-18030383D01*
X12079162Y-18016097D01*
X12064877Y-17987526D01*
X12064877Y-17973240D01*
X12079162Y-17944668D01*
X12107734Y-17930383D01*
X12150591Y-17930383D01*
X12179162Y-17944668D01*
X12293448Y-18244668D02*
X12307734Y-18230383D01*
X12336305Y-18187526D01*
X12350591Y-18158954D01*
X12364877Y-18116097D01*
X12379162Y-18044668D01*
X12379162Y-17987526D01*
X12364877Y-17916097D01*
X12350591Y-17873240D01*
X12336305Y-17844668D01*
X12307734Y-17801811D01*
X12293448Y-17787526D01*
X5766379Y-18350028D02*
X5766379Y-18431308D01*
X5725739Y-18390668D02*
X5807019Y-18390668D01*
X6150591Y-18226383D02*
X6179162Y-18226383D01*
X6207734Y-18240668D01*
X6222019Y-18254954D01*
X6236305Y-18283526D01*
X6250591Y-18340668D01*
X6250591Y-18412097D01*
X6236305Y-18469240D01*
X6222019Y-18497811D01*
X6207734Y-18512097D01*
X6179162Y-18526383D01*
X6150591Y-18526383D01*
X6122019Y-18512097D01*
X6107734Y-18497811D01*
X6093448Y-18469240D01*
X6079162Y-18412097D01*
X6079162Y-18340668D01*
X6093448Y-18283526D01*
X6107734Y-18254954D01*
X6122019Y-18240668D01*
X6150591Y-18226383D01*
X6379162Y-18497811D02*
X6393448Y-18512097D01*
X6379162Y-18526383D01*
X6364877Y-18512097D01*
X6379162Y-18497811D01*
X6379162Y-18526383D01*
X6564877Y-18354954D02*
X6536305Y-18340668D01*
X6522019Y-18326383D01*
X6507734Y-18297811D01*
X6507734Y-18283526D01*
X6522019Y-18254954D01*
X6536305Y-18240668D01*
X6564877Y-18226383D01*
X6622019Y-18226383D01*
X6650591Y-18240668D01*
X6664877Y-18254954D01*
X6679162Y-18283526D01*
X6679162Y-18297811D01*
X6664877Y-18326383D01*
X6650591Y-18340668D01*
X6622019Y-18354954D01*
X6564877Y-18354954D01*
X6536305Y-18369240D01*
X6522019Y-18383526D01*
X6507734Y-18412097D01*
X6507734Y-18469240D01*
X6522019Y-18497811D01*
X6536305Y-18512097D01*
X6564877Y-18526383D01*
X6622019Y-18526383D01*
X6650591Y-18512097D01*
X6664877Y-18497811D01*
X6679162Y-18469240D01*
X6679162Y-18412097D01*
X6664877Y-18383526D01*
X6650591Y-18369240D01*
X6622019Y-18354954D01*
X6964877Y-18526383D02*
X6793448Y-18526383D01*
X6879162Y-18526383D02*
X6879162Y-18226383D01*
X6850591Y-18269240D01*
X6822019Y-18297811D01*
X6793448Y-18312097D01*
X7093448Y-18526383D02*
X7093448Y-18326383D01*
X7093448Y-18354954D02*
X7107734Y-18340668D01*
X7136305Y-18326383D01*
X7179162Y-18326383D01*
X7207734Y-18340668D01*
X7222019Y-18369240D01*
X7222019Y-18526383D01*
X7222019Y-18369240D02*
X7236305Y-18340668D01*
X7264877Y-18326383D01*
X7307734Y-18326383D01*
X7336305Y-18340668D01*
X7350591Y-18369240D01*
X7350591Y-18526383D01*
X7493448Y-18526383D02*
X7493448Y-18326383D01*
X7493448Y-18354954D02*
X7507734Y-18340668D01*
X7536305Y-18326383D01*
X7579162Y-18326383D01*
X7607734Y-18340668D01*
X7622019Y-18369240D01*
X7622019Y-18526383D01*
X7622019Y-18369240D02*
X7636305Y-18340668D01*
X7664877Y-18326383D01*
X7707734Y-18326383D01*
X7736305Y-18340668D01*
X7750591Y-18369240D01*
X7750591Y-18526383D01*
X8336305Y-18212097D02*
X8079162Y-18597811D01*
X8722020Y-18226383D02*
X8750591Y-18226383D01*
X8779162Y-18240668D01*
X8793448Y-18254954D01*
X8807734Y-18283526D01*
X8822020Y-18340668D01*
X8822020Y-18412097D01*
X8807734Y-18469240D01*
X8793448Y-18497811D01*
X8779162Y-18512097D01*
X8750591Y-18526383D01*
X8722020Y-18526383D01*
X8693448Y-18512097D01*
X8679162Y-18497811D01*
X8664877Y-18469240D01*
X8650591Y-18412097D01*
X8650591Y-18340668D01*
X8664877Y-18283526D01*
X8679162Y-18254954D01*
X8693448Y-18240668D01*
X8722020Y-18226383D01*
X8950591Y-18497811D02*
X8964877Y-18512097D01*
X8950591Y-18526383D01*
X8936305Y-18512097D01*
X8950591Y-18497811D01*
X8950591Y-18526383D01*
X9150591Y-18226383D02*
X9179162Y-18226383D01*
X9207734Y-18240668D01*
X9222020Y-18254954D01*
X9236305Y-18283526D01*
X9250591Y-18340668D01*
X9250591Y-18412097D01*
X9236305Y-18469240D01*
X9222020Y-18497811D01*
X9207734Y-18512097D01*
X9179162Y-18526383D01*
X9150591Y-18526383D01*
X9122020Y-18512097D01*
X9107734Y-18497811D01*
X9093448Y-18469240D01*
X9079162Y-18412097D01*
X9079162Y-18340668D01*
X9093448Y-18283526D01*
X9107734Y-18254954D01*
X9122020Y-18240668D01*
X9150591Y-18226383D01*
X9350591Y-18226383D02*
X9536305Y-18226383D01*
X9436305Y-18340668D01*
X9479162Y-18340668D01*
X9507734Y-18354954D01*
X9522020Y-18369240D01*
X9536305Y-18397811D01*
X9536305Y-18469240D01*
X9522020Y-18497811D01*
X9507734Y-18512097D01*
X9479162Y-18526383D01*
X9393448Y-18526383D01*
X9364877Y-18512097D01*
X9350591Y-18497811D01*
X9650591Y-18254954D02*
X9664877Y-18240668D01*
X9693448Y-18226383D01*
X9764877Y-18226383D01*
X9793448Y-18240668D01*
X9807734Y-18254954D01*
X9822020Y-18283526D01*
X9822020Y-18312097D01*
X9807734Y-18354954D01*
X9636305Y-18526383D01*
X9822020Y-18526383D01*
X9936305Y-18226383D02*
X9936305Y-18283526D01*
X10050591Y-18226383D02*
X10050591Y-18283526D01*
X10493448Y-18640668D02*
X10479162Y-18626383D01*
X10450591Y-18583526D01*
X10436305Y-18554954D01*
X10422020Y-18512097D01*
X10407734Y-18440668D01*
X10407734Y-18383526D01*
X10422020Y-18312097D01*
X10436305Y-18269240D01*
X10450591Y-18240668D01*
X10479162Y-18197811D01*
X10493448Y-18183526D01*
X10736305Y-18226383D02*
X10679162Y-18226383D01*
X10650591Y-18240668D01*
X10636305Y-18254954D01*
X10607734Y-18297811D01*
X10593448Y-18354954D01*
X10593448Y-18469240D01*
X10607734Y-18497811D01*
X10622020Y-18512097D01*
X10650591Y-18526383D01*
X10707734Y-18526383D01*
X10736305Y-18512097D01*
X10750591Y-18497811D01*
X10764877Y-18469240D01*
X10764877Y-18397811D01*
X10750591Y-18369240D01*
X10736305Y-18354954D01*
X10707734Y-18340668D01*
X10650591Y-18340668D01*
X10622020Y-18354954D01*
X10607734Y-18369240D01*
X10593448Y-18397811D01*
X10950591Y-18226383D02*
X10979162Y-18226383D01*
X11007734Y-18240668D01*
X11022020Y-18254954D01*
X11036305Y-18283526D01*
X11050591Y-18340668D01*
X11050591Y-18412097D01*
X11036305Y-18469240D01*
X11022020Y-18497811D01*
X11007734Y-18512097D01*
X10979162Y-18526383D01*
X10950591Y-18526383D01*
X10922020Y-18512097D01*
X10907734Y-18497811D01*
X10893448Y-18469240D01*
X10879162Y-18412097D01*
X10879162Y-18340668D01*
X10893448Y-18283526D01*
X10907734Y-18254954D01*
X10922020Y-18240668D01*
X10950591Y-18226383D01*
X11407734Y-18526383D02*
X11407734Y-18226383D01*
X11536305Y-18526383D02*
X11536305Y-18369240D01*
X11522019Y-18340668D01*
X11493448Y-18326383D01*
X11450591Y-18326383D01*
X11422019Y-18340668D01*
X11407734Y-18354954D01*
X11722019Y-18526383D02*
X11693448Y-18512097D01*
X11679162Y-18497811D01*
X11664877Y-18469240D01*
X11664877Y-18383526D01*
X11679162Y-18354954D01*
X11693448Y-18340668D01*
X11722019Y-18326383D01*
X11764877Y-18326383D01*
X11793448Y-18340668D01*
X11807734Y-18354954D01*
X11822019Y-18383526D01*
X11822019Y-18469240D01*
X11807734Y-18497811D01*
X11793448Y-18512097D01*
X11764877Y-18526383D01*
X11722019Y-18526383D01*
X11993448Y-18526383D02*
X11964877Y-18512097D01*
X11950591Y-18483526D01*
X11950591Y-18226383D01*
X12222019Y-18512097D02*
X12193448Y-18526383D01*
X12136305Y-18526383D01*
X12107734Y-18512097D01*
X12093448Y-18483526D01*
X12093448Y-18369240D01*
X12107734Y-18340668D01*
X12136305Y-18326383D01*
X12193448Y-18326383D01*
X12222019Y-18340668D01*
X12236305Y-18369240D01*
X12236305Y-18397811D01*
X12093448Y-18426383D01*
X12350591Y-18512097D02*
X12379162Y-18526383D01*
X12436305Y-18526383D01*
X12464877Y-18512097D01*
X12479162Y-18483526D01*
X12479162Y-18469240D01*
X12464877Y-18440668D01*
X12436305Y-18426383D01*
X12393448Y-18426383D01*
X12364877Y-18412097D01*
X12350591Y-18383526D01*
X12350591Y-18369240D01*
X12364877Y-18340668D01*
X12393448Y-18326383D01*
X12436305Y-18326383D01*
X12464877Y-18340668D01*
X12579162Y-18640668D02*
X12593448Y-18626383D01*
X12622019Y-18583526D01*
X12636305Y-18554954D01*
X12650591Y-18512097D01*
X12664877Y-18440668D01*
X12664877Y-18383526D01*
X12650591Y-18312097D01*
X12636305Y-18269240D01*
X12622019Y-18240668D01*
X12593448Y-18197811D01*
X12579162Y-18183526D01*
X5792375Y-18822024D02*
X5792375Y-18751313D01*
X5721664Y-18751313D01*
X5721664Y-18822024D01*
X5792375Y-18822024D01*
X6250591Y-18922383D02*
X6079162Y-18922383D01*
X6164877Y-18922383D02*
X6164877Y-18622383D01*
X6136305Y-18665240D01*
X6107734Y-18693811D01*
X6079162Y-18708097D01*
X6379162Y-18893811D02*
X6393448Y-18908097D01*
X6379162Y-18922383D01*
X6364877Y-18908097D01*
X6379162Y-18893811D01*
X6379162Y-18922383D01*
X6579162Y-18622383D02*
X6607734Y-18622383D01*
X6636305Y-18636668D01*
X6650591Y-18650954D01*
X6664877Y-18679526D01*
X6679162Y-18736668D01*
X6679162Y-18808097D01*
X6664877Y-18865240D01*
X6650591Y-18893811D01*
X6636305Y-18908097D01*
X6607734Y-18922383D01*
X6579162Y-18922383D01*
X6550591Y-18908097D01*
X6536305Y-18893811D01*
X6522019Y-18865240D01*
X6507734Y-18808097D01*
X6507734Y-18736668D01*
X6522019Y-18679526D01*
X6536305Y-18650954D01*
X6550591Y-18636668D01*
X6579162Y-18622383D01*
X6864877Y-18622383D02*
X6893448Y-18622383D01*
X6922019Y-18636668D01*
X6936305Y-18650954D01*
X6950591Y-18679526D01*
X6964877Y-18736668D01*
X6964877Y-18808097D01*
X6950591Y-18865240D01*
X6936305Y-18893811D01*
X6922019Y-18908097D01*
X6893448Y-18922383D01*
X6864877Y-18922383D01*
X6836305Y-18908097D01*
X6822019Y-18893811D01*
X6807734Y-18865240D01*
X6793448Y-18808097D01*
X6793448Y-18736668D01*
X6807734Y-18679526D01*
X6822019Y-18650954D01*
X6836305Y-18636668D01*
X6864877Y-18622383D01*
X7093448Y-18922383D02*
X7093448Y-18722383D01*
X7093448Y-18750954D02*
X7107734Y-18736668D01*
X7136305Y-18722383D01*
X7179162Y-18722383D01*
X7207734Y-18736668D01*
X7222019Y-18765240D01*
X7222019Y-18922383D01*
X7222019Y-18765240D02*
X7236305Y-18736668D01*
X7264877Y-18722383D01*
X7307734Y-18722383D01*
X7336305Y-18736668D01*
X7350591Y-18765240D01*
X7350591Y-18922383D01*
X7493448Y-18922383D02*
X7493448Y-18722383D01*
X7493448Y-18750954D02*
X7507734Y-18736668D01*
X7536305Y-18722383D01*
X7579162Y-18722383D01*
X7607734Y-18736668D01*
X7622019Y-18765240D01*
X7622019Y-18922383D01*
X7622019Y-18765240D02*
X7636305Y-18736668D01*
X7664877Y-18722383D01*
X7707734Y-18722383D01*
X7736305Y-18736668D01*
X7750591Y-18765240D01*
X7750591Y-18922383D01*
X8336305Y-18608097D02*
X8079162Y-18993811D01*
X8722020Y-18622383D02*
X8750591Y-18622383D01*
X8779162Y-18636668D01*
X8793448Y-18650954D01*
X8807734Y-18679526D01*
X8822020Y-18736668D01*
X8822020Y-18808097D01*
X8807734Y-18865240D01*
X8793448Y-18893811D01*
X8779162Y-18908097D01*
X8750591Y-18922383D01*
X8722020Y-18922383D01*
X8693448Y-18908097D01*
X8679162Y-18893811D01*
X8664877Y-18865240D01*
X8650591Y-18808097D01*
X8650591Y-18736668D01*
X8664877Y-18679526D01*
X8679162Y-18650954D01*
X8693448Y-18636668D01*
X8722020Y-18622383D01*
X8950591Y-18893811D02*
X8964877Y-18908097D01*
X8950591Y-18922383D01*
X8936305Y-18908097D01*
X8950591Y-18893811D01*
X8950591Y-18922383D01*
X9150591Y-18622383D02*
X9179162Y-18622383D01*
X9207734Y-18636668D01*
X9222020Y-18650954D01*
X9236305Y-18679526D01*
X9250591Y-18736668D01*
X9250591Y-18808097D01*
X9236305Y-18865240D01*
X9222020Y-18893811D01*
X9207734Y-18908097D01*
X9179162Y-18922383D01*
X9150591Y-18922383D01*
X9122020Y-18908097D01*
X9107734Y-18893811D01*
X9093448Y-18865240D01*
X9079162Y-18808097D01*
X9079162Y-18736668D01*
X9093448Y-18679526D01*
X9107734Y-18650954D01*
X9122020Y-18636668D01*
X9150591Y-18622383D01*
X9350591Y-18622383D02*
X9536305Y-18622383D01*
X9436305Y-18736668D01*
X9479162Y-18736668D01*
X9507734Y-18750954D01*
X9522020Y-18765240D01*
X9536305Y-18793811D01*
X9536305Y-18865240D01*
X9522020Y-18893811D01*
X9507734Y-18908097D01*
X9479162Y-18922383D01*
X9393448Y-18922383D01*
X9364877Y-18908097D01*
X9350591Y-18893811D01*
X9679162Y-18922383D02*
X9736305Y-18922383D01*
X9764877Y-18908097D01*
X9779162Y-18893811D01*
X9807734Y-18850954D01*
X9822020Y-18793811D01*
X9822020Y-18679526D01*
X9807734Y-18650954D01*
X9793448Y-18636668D01*
X9764877Y-18622383D01*
X9707734Y-18622383D01*
X9679162Y-18636668D01*
X9664877Y-18650954D01*
X9650591Y-18679526D01*
X9650591Y-18750954D01*
X9664877Y-18779526D01*
X9679162Y-18793811D01*
X9707734Y-18808097D01*
X9764877Y-18808097D01*
X9793448Y-18793811D01*
X9807734Y-18779526D01*
X9822020Y-18750954D01*
X9936305Y-18622383D02*
X9936305Y-18679526D01*
X10050591Y-18622383D02*
X10050591Y-18679526D01*
X10493448Y-19036668D02*
X10479162Y-19022383D01*
X10450591Y-18979526D01*
X10436305Y-18950954D01*
X10422020Y-18908097D01*
X10407734Y-18836668D01*
X10407734Y-18779526D01*
X10422020Y-18708097D01*
X10436305Y-18665240D01*
X10450591Y-18636668D01*
X10479162Y-18593811D01*
X10493448Y-18579526D01*
X10579162Y-18622383D02*
X10764877Y-18622383D01*
X10664877Y-18736668D01*
X10707734Y-18736668D01*
X10736305Y-18750954D01*
X10750591Y-18765240D01*
X10764877Y-18793811D01*
X10764877Y-18865240D01*
X10750591Y-18893811D01*
X10736305Y-18908097D01*
X10707734Y-18922383D01*
X10622020Y-18922383D01*
X10593448Y-18908097D01*
X10579162Y-18893811D01*
X10907734Y-18922383D02*
X10964877Y-18922383D01*
X10993448Y-18908097D01*
X11007734Y-18893811D01*
X11036305Y-18850954D01*
X11050591Y-18793811D01*
X11050591Y-18679526D01*
X11036305Y-18650954D01*
X11022020Y-18636668D01*
X10993448Y-18622383D01*
X10936305Y-18622383D01*
X10907734Y-18636668D01*
X10893448Y-18650954D01*
X10879162Y-18679526D01*
X10879162Y-18750954D01*
X10893448Y-18779526D01*
X10907734Y-18793811D01*
X10936305Y-18808097D01*
X10993448Y-18808097D01*
X11022020Y-18793811D01*
X11036305Y-18779526D01*
X11050591Y-18750954D01*
X11407734Y-18922383D02*
X11407734Y-18622383D01*
X11536305Y-18922383D02*
X11536305Y-18765240D01*
X11522019Y-18736668D01*
X11493448Y-18722383D01*
X11450591Y-18722383D01*
X11422019Y-18736668D01*
X11407734Y-18750954D01*
X11722019Y-18922383D02*
X11693448Y-18908097D01*
X11679162Y-18893811D01*
X11664877Y-18865240D01*
X11664877Y-18779526D01*
X11679162Y-18750954D01*
X11693448Y-18736668D01*
X11722019Y-18722383D01*
X11764877Y-18722383D01*
X11793448Y-18736668D01*
X11807734Y-18750954D01*
X11822019Y-18779526D01*
X11822019Y-18865240D01*
X11807734Y-18893811D01*
X11793448Y-18908097D01*
X11764877Y-18922383D01*
X11722019Y-18922383D01*
X11993448Y-18922383D02*
X11964877Y-18908097D01*
X11950591Y-18879526D01*
X11950591Y-18622383D01*
X12222019Y-18908097D02*
X12193448Y-18922383D01*
X12136305Y-18922383D01*
X12107734Y-18908097D01*
X12093448Y-18879526D01*
X12093448Y-18765240D01*
X12107734Y-18736668D01*
X12136305Y-18722383D01*
X12193448Y-18722383D01*
X12222019Y-18736668D01*
X12236305Y-18765240D01*
X12236305Y-18793811D01*
X12093448Y-18822383D01*
X12350591Y-18908097D02*
X12379162Y-18922383D01*
X12436305Y-18922383D01*
X12464877Y-18908097D01*
X12479162Y-18879526D01*
X12479162Y-18865240D01*
X12464877Y-18836668D01*
X12436305Y-18822383D01*
X12393448Y-18822383D01*
X12364877Y-18808097D01*
X12350591Y-18779526D01*
X12350591Y-18765240D01*
X12364877Y-18736668D01*
X12393448Y-18722383D01*
X12436305Y-18722383D01*
X12464877Y-18736668D01*
X12579162Y-19036668D02*
X12593448Y-19022383D01*
X12622019Y-18979526D01*
X12636305Y-18950954D01*
X12650591Y-18908097D01*
X12664877Y-18836668D01*
X12664877Y-18779526D01*
X12650591Y-18708097D01*
X12636305Y-18665240D01*
X12622019Y-18636668D01*
X12593448Y-18593811D01*
X12579162Y-18579526D01*
X5732019Y-19257668D02*
X5807019Y-19182668D01*
X5732019Y-19107668D01*
X5657019Y-19182668D01*
X5732019Y-19257668D01*
X6250591Y-19318383D02*
X6079162Y-19318383D01*
X6164877Y-19318383D02*
X6164877Y-19018383D01*
X6136305Y-19061240D01*
X6107734Y-19089811D01*
X6079162Y-19104097D01*
X6379162Y-19289811D02*
X6393448Y-19304097D01*
X6379162Y-19318383D01*
X6364877Y-19304097D01*
X6379162Y-19289811D01*
X6379162Y-19318383D01*
X6664877Y-19018383D02*
X6522019Y-19018383D01*
X6507734Y-19161240D01*
X6522019Y-19146954D01*
X6550591Y-19132668D01*
X6622019Y-19132668D01*
X6650591Y-19146954D01*
X6664877Y-19161240D01*
X6679162Y-19189811D01*
X6679162Y-19261240D01*
X6664877Y-19289811D01*
X6650591Y-19304097D01*
X6622019Y-19318383D01*
X6550591Y-19318383D01*
X6522019Y-19304097D01*
X6507734Y-19289811D01*
X6864877Y-19018383D02*
X6893448Y-19018383D01*
X6922019Y-19032668D01*
X6936305Y-19046954D01*
X6950591Y-19075526D01*
X6964877Y-19132668D01*
X6964877Y-19204097D01*
X6950591Y-19261240D01*
X6936305Y-19289811D01*
X6922019Y-19304097D01*
X6893448Y-19318383D01*
X6864877Y-19318383D01*
X6836305Y-19304097D01*
X6822019Y-19289811D01*
X6807734Y-19261240D01*
X6793448Y-19204097D01*
X6793448Y-19132668D01*
X6807734Y-19075526D01*
X6822019Y-19046954D01*
X6836305Y-19032668D01*
X6864877Y-19018383D01*
X7093448Y-19318383D02*
X7093448Y-19118383D01*
X7093448Y-19146954D02*
X7107734Y-19132668D01*
X7136305Y-19118383D01*
X7179162Y-19118383D01*
X7207734Y-19132668D01*
X7222019Y-19161240D01*
X7222019Y-19318383D01*
X7222019Y-19161240D02*
X7236305Y-19132668D01*
X7264877Y-19118383D01*
X7307734Y-19118383D01*
X7336305Y-19132668D01*
X7350591Y-19161240D01*
X7350591Y-19318383D01*
X7493448Y-19318383D02*
X7493448Y-19118383D01*
X7493448Y-19146954D02*
X7507734Y-19132668D01*
X7536305Y-19118383D01*
X7579162Y-19118383D01*
X7607734Y-19132668D01*
X7622019Y-19161240D01*
X7622019Y-19318383D01*
X7622019Y-19161240D02*
X7636305Y-19132668D01*
X7664877Y-19118383D01*
X7707734Y-19118383D01*
X7736305Y-19132668D01*
X7750591Y-19161240D01*
X7750591Y-19318383D01*
X8336305Y-19004097D02*
X8079162Y-19389811D01*
X8722020Y-19018383D02*
X8750591Y-19018383D01*
X8779162Y-19032668D01*
X8793448Y-19046954D01*
X8807734Y-19075526D01*
X8822020Y-19132668D01*
X8822020Y-19204097D01*
X8807734Y-19261240D01*
X8793448Y-19289811D01*
X8779162Y-19304097D01*
X8750591Y-19318383D01*
X8722020Y-19318383D01*
X8693448Y-19304097D01*
X8679162Y-19289811D01*
X8664877Y-19261240D01*
X8650591Y-19204097D01*
X8650591Y-19132668D01*
X8664877Y-19075526D01*
X8679162Y-19046954D01*
X8693448Y-19032668D01*
X8722020Y-19018383D01*
X8950591Y-19289811D02*
X8964877Y-19304097D01*
X8950591Y-19318383D01*
X8936305Y-19304097D01*
X8950591Y-19289811D01*
X8950591Y-19318383D01*
X9150591Y-19018383D02*
X9179162Y-19018383D01*
X9207734Y-19032668D01*
X9222020Y-19046954D01*
X9236305Y-19075526D01*
X9250591Y-19132668D01*
X9250591Y-19204097D01*
X9236305Y-19261240D01*
X9222020Y-19289811D01*
X9207734Y-19304097D01*
X9179162Y-19318383D01*
X9150591Y-19318383D01*
X9122020Y-19304097D01*
X9107734Y-19289811D01*
X9093448Y-19261240D01*
X9079162Y-19204097D01*
X9079162Y-19132668D01*
X9093448Y-19075526D01*
X9107734Y-19046954D01*
X9122020Y-19032668D01*
X9150591Y-19018383D01*
X9522020Y-19018383D02*
X9379162Y-19018383D01*
X9364877Y-19161240D01*
X9379162Y-19146954D01*
X9407734Y-19132668D01*
X9479162Y-19132668D01*
X9507734Y-19146954D01*
X9522020Y-19161240D01*
X9536305Y-19189811D01*
X9536305Y-19261240D01*
X9522020Y-19289811D01*
X9507734Y-19304097D01*
X9479162Y-19318383D01*
X9407734Y-19318383D01*
X9379162Y-19304097D01*
X9364877Y-19289811D01*
X9679162Y-19318383D02*
X9736305Y-19318383D01*
X9764877Y-19304097D01*
X9779162Y-19289811D01*
X9807734Y-19246954D01*
X9822020Y-19189811D01*
X9822020Y-19075526D01*
X9807734Y-19046954D01*
X9793448Y-19032668D01*
X9764877Y-19018383D01*
X9707734Y-19018383D01*
X9679162Y-19032668D01*
X9664877Y-19046954D01*
X9650591Y-19075526D01*
X9650591Y-19146954D01*
X9664877Y-19175526D01*
X9679162Y-19189811D01*
X9707734Y-19204097D01*
X9764877Y-19204097D01*
X9793448Y-19189811D01*
X9807734Y-19175526D01*
X9822020Y-19146954D01*
X9936305Y-19018383D02*
X9936305Y-19075526D01*
X10050591Y-19018383D02*
X10050591Y-19075526D01*
X10493448Y-19432668D02*
X10479162Y-19418383D01*
X10450591Y-19375526D01*
X10436305Y-19346954D01*
X10422020Y-19304097D01*
X10407734Y-19232668D01*
X10407734Y-19175526D01*
X10422020Y-19104097D01*
X10436305Y-19061240D01*
X10450591Y-19032668D01*
X10479162Y-18989811D01*
X10493448Y-18975526D01*
X10664877Y-19018383D02*
X10693448Y-19018383D01*
X10722020Y-19032668D01*
X10736305Y-19046954D01*
X10750591Y-19075526D01*
X10764877Y-19132668D01*
X10764877Y-19204097D01*
X10750591Y-19261240D01*
X10736305Y-19289811D01*
X10722020Y-19304097D01*
X10693448Y-19318383D01*
X10664877Y-19318383D01*
X10636305Y-19304097D01*
X10622020Y-19289811D01*
X10607734Y-19261240D01*
X10593448Y-19204097D01*
X10593448Y-19132668D01*
X10607734Y-19075526D01*
X10622020Y-19046954D01*
X10636305Y-19032668D01*
X10664877Y-19018383D01*
X11122020Y-19318383D02*
X11122020Y-19018383D01*
X11250591Y-19318383D02*
X11250591Y-19161240D01*
X11236305Y-19132668D01*
X11207734Y-19118383D01*
X11164877Y-19118383D01*
X11136305Y-19132668D01*
X11122020Y-19146954D01*
X11436305Y-19318383D02*
X11407734Y-19304097D01*
X11393448Y-19289811D01*
X11379162Y-19261240D01*
X11379162Y-19175526D01*
X11393448Y-19146954D01*
X11407734Y-19132668D01*
X11436305Y-19118383D01*
X11479162Y-19118383D01*
X11507734Y-19132668D01*
X11522019Y-19146954D01*
X11536305Y-19175526D01*
X11536305Y-19261240D01*
X11522019Y-19289811D01*
X11507734Y-19304097D01*
X11479162Y-19318383D01*
X11436305Y-19318383D01*
X11707734Y-19318383D02*
X11679162Y-19304097D01*
X11664877Y-19275526D01*
X11664877Y-19018383D01*
X11936305Y-19304097D02*
X11907734Y-19318383D01*
X11850591Y-19318383D01*
X11822019Y-19304097D01*
X11807734Y-19275526D01*
X11807734Y-19161240D01*
X11822019Y-19132668D01*
X11850591Y-19118383D01*
X11907734Y-19118383D01*
X11936305Y-19132668D01*
X11950591Y-19161240D01*
X11950591Y-19189811D01*
X11807734Y-19218383D01*
X12064877Y-19304097D02*
X12093448Y-19318383D01*
X12150591Y-19318383D01*
X12179162Y-19304097D01*
X12193448Y-19275526D01*
X12193448Y-19261240D01*
X12179162Y-19232668D01*
X12150591Y-19218383D01*
X12107734Y-19218383D01*
X12079162Y-19204097D01*
X12064877Y-19175526D01*
X12064877Y-19161240D01*
X12079162Y-19132668D01*
X12107734Y-19118383D01*
X12150591Y-19118383D01*
X12179162Y-19132668D01*
X12550591Y-19204097D02*
X12779162Y-19204097D01*
X12664877Y-19318383D02*
X12664877Y-19089811D01*
X13136305Y-19046954D02*
X13150591Y-19032668D01*
X13179162Y-19018383D01*
X13250591Y-19018383D01*
X13279162Y-19032668D01*
X13293448Y-19046954D01*
X13307734Y-19075526D01*
X13307734Y-19104097D01*
X13293448Y-19146954D01*
X13122019Y-19318383D01*
X13307734Y-19318383D01*
X13650591Y-19304097D02*
X13679162Y-19318383D01*
X13736305Y-19318383D01*
X13764877Y-19304097D01*
X13779162Y-19275526D01*
X13779162Y-19261240D01*
X13764877Y-19232668D01*
X13736305Y-19218383D01*
X13693448Y-19218383D01*
X13664877Y-19204097D01*
X13650591Y-19175526D01*
X13650591Y-19161240D01*
X13664877Y-19132668D01*
X13693448Y-19118383D01*
X13736305Y-19118383D01*
X13764877Y-19132668D01*
X13950591Y-19318383D02*
X13922019Y-19304097D01*
X13907734Y-19275526D01*
X13907734Y-19018383D01*
X14107734Y-19318383D02*
X14079162Y-19304097D01*
X14064877Y-19289811D01*
X14050591Y-19261240D01*
X14050591Y-19175526D01*
X14064877Y-19146954D01*
X14079162Y-19132668D01*
X14107734Y-19118383D01*
X14150591Y-19118383D01*
X14179162Y-19132668D01*
X14193448Y-19146954D01*
X14207734Y-19175526D01*
X14207734Y-19261240D01*
X14193448Y-19289811D01*
X14179162Y-19304097D01*
X14150591Y-19318383D01*
X14107734Y-19318383D01*
X14293448Y-19118383D02*
X14407734Y-19118383D01*
X14336305Y-19018383D02*
X14336305Y-19275526D01*
X14350591Y-19304097D01*
X14379162Y-19318383D01*
X14407734Y-19318383D01*
X14493448Y-19304097D02*
X14522019Y-19318383D01*
X14579162Y-19318383D01*
X14607734Y-19304097D01*
X14622019Y-19275526D01*
X14622019Y-19261240D01*
X14607734Y-19232668D01*
X14579162Y-19218383D01*
X14536305Y-19218383D01*
X14507734Y-19204097D01*
X14493448Y-19175526D01*
X14493448Y-19161240D01*
X14507734Y-19132668D01*
X14536305Y-19118383D01*
X14579162Y-19118383D01*
X14607734Y-19132668D01*
X14722019Y-19432668D02*
X14736305Y-19418383D01*
X14764877Y-19375526D01*
X14779162Y-19346954D01*
X14793448Y-19304097D01*
X14807734Y-19232668D01*
X14807734Y-19175526D01*
X14793448Y-19104097D01*
X14779162Y-19061240D01*
X14764877Y-19032668D01*
X14736305Y-18989811D01*
X14722019Y-18975526D01*
X5587020Y-19468668D02*
X5807019Y-19688668D01*
X5807019Y-19468668D02*
X5587020Y-19688668D01*
X5807019Y-19578668D02*
G75*
G03X5807019Y-19578668I-110000J0D01*
G01*
X6079162Y-19442954D02*
X6093448Y-19428668D01*
X6122019Y-19414383D01*
X6193448Y-19414383D01*
X6222019Y-19428668D01*
X6236305Y-19442954D01*
X6250591Y-19471526D01*
X6250591Y-19500097D01*
X6236305Y-19542954D01*
X6064877Y-19714383D01*
X6250591Y-19714383D01*
X6379162Y-19685811D02*
X6393448Y-19700097D01*
X6379162Y-19714383D01*
X6364877Y-19700097D01*
X6379162Y-19685811D01*
X6379162Y-19714383D01*
X6507734Y-19442954D02*
X6522019Y-19428668D01*
X6550591Y-19414383D01*
X6622019Y-19414383D01*
X6650591Y-19428668D01*
X6664877Y-19442954D01*
X6679162Y-19471526D01*
X6679162Y-19500097D01*
X6664877Y-19542954D01*
X6493448Y-19714383D01*
X6679162Y-19714383D01*
X6864877Y-19414383D02*
X6893448Y-19414383D01*
X6922019Y-19428668D01*
X6936305Y-19442954D01*
X6950591Y-19471526D01*
X6964877Y-19528668D01*
X6964877Y-19600097D01*
X6950591Y-19657240D01*
X6936305Y-19685811D01*
X6922019Y-19700097D01*
X6893448Y-19714383D01*
X6864877Y-19714383D01*
X6836305Y-19700097D01*
X6822019Y-19685811D01*
X6807734Y-19657240D01*
X6793448Y-19600097D01*
X6793448Y-19528668D01*
X6807734Y-19471526D01*
X6822019Y-19442954D01*
X6836305Y-19428668D01*
X6864877Y-19414383D01*
X7093448Y-19714383D02*
X7093448Y-19514383D01*
X7093448Y-19542954D02*
X7107734Y-19528668D01*
X7136305Y-19514383D01*
X7179162Y-19514383D01*
X7207734Y-19528668D01*
X7222019Y-19557240D01*
X7222019Y-19714383D01*
X7222019Y-19557240D02*
X7236305Y-19528668D01*
X7264877Y-19514383D01*
X7307734Y-19514383D01*
X7336305Y-19528668D01*
X7350591Y-19557240D01*
X7350591Y-19714383D01*
X7493448Y-19714383D02*
X7493448Y-19514383D01*
X7493448Y-19542954D02*
X7507734Y-19528668D01*
X7536305Y-19514383D01*
X7579162Y-19514383D01*
X7607734Y-19528668D01*
X7622019Y-19557240D01*
X7622019Y-19714383D01*
X7622019Y-19557240D02*
X7636305Y-19528668D01*
X7664877Y-19514383D01*
X7707734Y-19514383D01*
X7736305Y-19528668D01*
X7750591Y-19557240D01*
X7750591Y-19714383D01*
X8336305Y-19400097D02*
X8079162Y-19785811D01*
X8722020Y-19414383D02*
X8750591Y-19414383D01*
X8779162Y-19428668D01*
X8793448Y-19442954D01*
X8807734Y-19471526D01*
X8822020Y-19528668D01*
X8822020Y-19600097D01*
X8807734Y-19657240D01*
X8793448Y-19685811D01*
X8779162Y-19700097D01*
X8750591Y-19714383D01*
X8722020Y-19714383D01*
X8693448Y-19700097D01*
X8679162Y-19685811D01*
X8664877Y-19657240D01*
X8650591Y-19600097D01*
X8650591Y-19528668D01*
X8664877Y-19471526D01*
X8679162Y-19442954D01*
X8693448Y-19428668D01*
X8722020Y-19414383D01*
X8950591Y-19685811D02*
X8964877Y-19700097D01*
X8950591Y-19714383D01*
X8936305Y-19700097D01*
X8950591Y-19685811D01*
X8950591Y-19714383D01*
X9150591Y-19414383D02*
X9179162Y-19414383D01*
X9207734Y-19428668D01*
X9222020Y-19442954D01*
X9236305Y-19471526D01*
X9250591Y-19528668D01*
X9250591Y-19600097D01*
X9236305Y-19657240D01*
X9222020Y-19685811D01*
X9207734Y-19700097D01*
X9179162Y-19714383D01*
X9150591Y-19714383D01*
X9122020Y-19700097D01*
X9107734Y-19685811D01*
X9093448Y-19657240D01*
X9079162Y-19600097D01*
X9079162Y-19528668D01*
X9093448Y-19471526D01*
X9107734Y-19442954D01*
X9122020Y-19428668D01*
X9150591Y-19414383D01*
X9422020Y-19542954D02*
X9393448Y-19528668D01*
X9379162Y-19514383D01*
X9364877Y-19485811D01*
X9364877Y-19471526D01*
X9379162Y-19442954D01*
X9393448Y-19428668D01*
X9422020Y-19414383D01*
X9479162Y-19414383D01*
X9507734Y-19428668D01*
X9522020Y-19442954D01*
X9536305Y-19471526D01*
X9536305Y-19485811D01*
X9522020Y-19514383D01*
X9507734Y-19528668D01*
X9479162Y-19542954D01*
X9422020Y-19542954D01*
X9393448Y-19557240D01*
X9379162Y-19571526D01*
X9364877Y-19600097D01*
X9364877Y-19657240D01*
X9379162Y-19685811D01*
X9393448Y-19700097D01*
X9422020Y-19714383D01*
X9479162Y-19714383D01*
X9507734Y-19700097D01*
X9522020Y-19685811D01*
X9536305Y-19657240D01*
X9536305Y-19600097D01*
X9522020Y-19571526D01*
X9507734Y-19557240D01*
X9479162Y-19542954D01*
X9636305Y-19414383D02*
X9836305Y-19414383D01*
X9707734Y-19714383D01*
X9936305Y-19414383D02*
X9936305Y-19471526D01*
X10050591Y-19414383D02*
X10050591Y-19471526D01*
X10493448Y-19828668D02*
X10479162Y-19814383D01*
X10450591Y-19771526D01*
X10436305Y-19742954D01*
X10422020Y-19700097D01*
X10407734Y-19628668D01*
X10407734Y-19571526D01*
X10422020Y-19500097D01*
X10436305Y-19457240D01*
X10450591Y-19428668D01*
X10479162Y-19385811D01*
X10493448Y-19371526D01*
X10593448Y-19442954D02*
X10607734Y-19428668D01*
X10636305Y-19414383D01*
X10707734Y-19414383D01*
X10736305Y-19428668D01*
X10750591Y-19442954D01*
X10764877Y-19471526D01*
X10764877Y-19500097D01*
X10750591Y-19542954D01*
X10579162Y-19714383D01*
X10764877Y-19714383D01*
X11122020Y-19714383D02*
X11122020Y-19414383D01*
X11250591Y-19714383D02*
X11250591Y-19557240D01*
X11236305Y-19528668D01*
X11207734Y-19514383D01*
X11164877Y-19514383D01*
X11136305Y-19528668D01*
X11122020Y-19542954D01*
X11436305Y-19714383D02*
X11407734Y-19700097D01*
X11393448Y-19685811D01*
X11379162Y-19657240D01*
X11379162Y-19571526D01*
X11393448Y-19542954D01*
X11407734Y-19528668D01*
X11436305Y-19514383D01*
X11479162Y-19514383D01*
X11507734Y-19528668D01*
X11522019Y-19542954D01*
X11536305Y-19571526D01*
X11536305Y-19657240D01*
X11522019Y-19685811D01*
X11507734Y-19700097D01*
X11479162Y-19714383D01*
X11436305Y-19714383D01*
X11707734Y-19714383D02*
X11679162Y-19700097D01*
X11664877Y-19671526D01*
X11664877Y-19414383D01*
X11936305Y-19700097D02*
X11907734Y-19714383D01*
X11850591Y-19714383D01*
X11822019Y-19700097D01*
X11807734Y-19671526D01*
X11807734Y-19557240D01*
X11822019Y-19528668D01*
X11850591Y-19514383D01*
X11907734Y-19514383D01*
X11936305Y-19528668D01*
X11950591Y-19557240D01*
X11950591Y-19585811D01*
X11807734Y-19614383D01*
X12064877Y-19700097D02*
X12093448Y-19714383D01*
X12150591Y-19714383D01*
X12179162Y-19700097D01*
X12193448Y-19671526D01*
X12193448Y-19657240D01*
X12179162Y-19628668D01*
X12150591Y-19614383D01*
X12107734Y-19614383D01*
X12079162Y-19600097D01*
X12064877Y-19571526D01*
X12064877Y-19557240D01*
X12079162Y-19528668D01*
X12107734Y-19514383D01*
X12150591Y-19514383D01*
X12179162Y-19528668D01*
X12293448Y-19828668D02*
X12307734Y-19814383D01*
X12336305Y-19771526D01*
X12350591Y-19742954D01*
X12364877Y-19700097D01*
X12379162Y-19628668D01*
X12379162Y-19571526D01*
X12364877Y-19500097D01*
X12350591Y-19457240D01*
X12336305Y-19428668D01*
X12307734Y-19385811D01*
X12293448Y-19371526D01*
X5507020Y-19824668D02*
X5807019Y-20124668D01*
X5807019Y-19824668D02*
X5507020Y-20124668D01*
X5657019Y-19824668D02*
X5657019Y-20124668D01*
X5507020Y-19974668D02*
X5807019Y-19974668D01*
X6064877Y-19810383D02*
X6250591Y-19810383D01*
X6150591Y-19924668D01*
X6193448Y-19924668D01*
X6222019Y-19938954D01*
X6236305Y-19953240D01*
X6250591Y-19981811D01*
X6250591Y-20053240D01*
X6236305Y-20081811D01*
X6222019Y-20096097D01*
X6193448Y-20110383D01*
X6107734Y-20110383D01*
X6079162Y-20096097D01*
X6064877Y-20081811D01*
X6379162Y-20081811D02*
X6393448Y-20096097D01*
X6379162Y-20110383D01*
X6364877Y-20096097D01*
X6379162Y-20081811D01*
X6379162Y-20110383D01*
X6579162Y-19810383D02*
X6607734Y-19810383D01*
X6636305Y-19824668D01*
X6650591Y-19838954D01*
X6664877Y-19867526D01*
X6679162Y-19924668D01*
X6679162Y-19996097D01*
X6664877Y-20053240D01*
X6650591Y-20081811D01*
X6636305Y-20096097D01*
X6607734Y-20110383D01*
X6579162Y-20110383D01*
X6550591Y-20096097D01*
X6536305Y-20081811D01*
X6522019Y-20053240D01*
X6507734Y-19996097D01*
X6507734Y-19924668D01*
X6522019Y-19867526D01*
X6536305Y-19838954D01*
X6550591Y-19824668D01*
X6579162Y-19810383D01*
X6864877Y-19810383D02*
X6893448Y-19810383D01*
X6922019Y-19824668D01*
X6936305Y-19838954D01*
X6950591Y-19867526D01*
X6964877Y-19924668D01*
X6964877Y-19996097D01*
X6950591Y-20053240D01*
X6936305Y-20081811D01*
X6922019Y-20096097D01*
X6893448Y-20110383D01*
X6864877Y-20110383D01*
X6836305Y-20096097D01*
X6822019Y-20081811D01*
X6807734Y-20053240D01*
X6793448Y-19996097D01*
X6793448Y-19924668D01*
X6807734Y-19867526D01*
X6822019Y-19838954D01*
X6836305Y-19824668D01*
X6864877Y-19810383D01*
X7093448Y-20110383D02*
X7093448Y-19910383D01*
X7093448Y-19938954D02*
X7107734Y-19924668D01*
X7136305Y-19910383D01*
X7179162Y-19910383D01*
X7207734Y-19924668D01*
X7222019Y-19953240D01*
X7222019Y-20110383D01*
X7222019Y-19953240D02*
X7236305Y-19924668D01*
X7264877Y-19910383D01*
X7307734Y-19910383D01*
X7336305Y-19924668D01*
X7350591Y-19953240D01*
X7350591Y-20110383D01*
X7493448Y-20110383D02*
X7493448Y-19910383D01*
X7493448Y-19938954D02*
X7507734Y-19924668D01*
X7536305Y-19910383D01*
X7579162Y-19910383D01*
X7607734Y-19924668D01*
X7622019Y-19953240D01*
X7622019Y-20110383D01*
X7622019Y-19953240D02*
X7636305Y-19924668D01*
X7664877Y-19910383D01*
X7707734Y-19910383D01*
X7736305Y-19924668D01*
X7750591Y-19953240D01*
X7750591Y-20110383D01*
X8336305Y-19796097D02*
X8079162Y-20181811D01*
X8722020Y-19810383D02*
X8750591Y-19810383D01*
X8779162Y-19824668D01*
X8793448Y-19838954D01*
X8807734Y-19867526D01*
X8822020Y-19924668D01*
X8822020Y-19996097D01*
X8807734Y-20053240D01*
X8793448Y-20081811D01*
X8779162Y-20096097D01*
X8750591Y-20110383D01*
X8722020Y-20110383D01*
X8693448Y-20096097D01*
X8679162Y-20081811D01*
X8664877Y-20053240D01*
X8650591Y-19996097D01*
X8650591Y-19924668D01*
X8664877Y-19867526D01*
X8679162Y-19838954D01*
X8693448Y-19824668D01*
X8722020Y-19810383D01*
X8950591Y-20081811D02*
X8964877Y-20096097D01*
X8950591Y-20110383D01*
X8936305Y-20096097D01*
X8950591Y-20081811D01*
X8950591Y-20110383D01*
X9250591Y-20110383D02*
X9079162Y-20110383D01*
X9164877Y-20110383D02*
X9164877Y-19810383D01*
X9136305Y-19853240D01*
X9107734Y-19881811D01*
X9079162Y-19896097D01*
X9536305Y-20110383D02*
X9364877Y-20110383D01*
X9450591Y-20110383D02*
X9450591Y-19810383D01*
X9422020Y-19853240D01*
X9393448Y-19881811D01*
X9364877Y-19896097D01*
X9707734Y-19938954D02*
X9679162Y-19924668D01*
X9664877Y-19910383D01*
X9650591Y-19881811D01*
X9650591Y-19867526D01*
X9664877Y-19838954D01*
X9679162Y-19824668D01*
X9707734Y-19810383D01*
X9764877Y-19810383D01*
X9793448Y-19824668D01*
X9807734Y-19838954D01*
X9822020Y-19867526D01*
X9822020Y-19881811D01*
X9807734Y-19910383D01*
X9793448Y-19924668D01*
X9764877Y-19938954D01*
X9707734Y-19938954D01*
X9679162Y-19953240D01*
X9664877Y-19967526D01*
X9650591Y-19996097D01*
X9650591Y-20053240D01*
X9664877Y-20081811D01*
X9679162Y-20096097D01*
X9707734Y-20110383D01*
X9764877Y-20110383D01*
X9793448Y-20096097D01*
X9807734Y-20081811D01*
X9822020Y-20053240D01*
X9822020Y-19996097D01*
X9807734Y-19967526D01*
X9793448Y-19953240D01*
X9764877Y-19938954D01*
X9936305Y-19810383D02*
X9936305Y-19867526D01*
X10050591Y-19810383D02*
X10050591Y-19867526D01*
X10493448Y-20224668D02*
X10479162Y-20210383D01*
X10450591Y-20167526D01*
X10436305Y-20138954D01*
X10422020Y-20096097D01*
X10407734Y-20024668D01*
X10407734Y-19967526D01*
X10422020Y-19896097D01*
X10436305Y-19853240D01*
X10450591Y-19824668D01*
X10479162Y-19781811D01*
X10493448Y-19767526D01*
X10736305Y-19910383D02*
X10736305Y-20110383D01*
X10664877Y-19796097D02*
X10593448Y-20010383D01*
X10779162Y-20010383D01*
X10879162Y-19838954D02*
X10893448Y-19824668D01*
X10922020Y-19810383D01*
X10993448Y-19810383D01*
X11022020Y-19824668D01*
X11036305Y-19838954D01*
X11050591Y-19867526D01*
X11050591Y-19896097D01*
X11036305Y-19938954D01*
X10864877Y-20110383D01*
X11050591Y-20110383D01*
X11407734Y-20110383D02*
X11407734Y-19810383D01*
X11536305Y-20110383D02*
X11536305Y-19953240D01*
X11522019Y-19924668D01*
X11493448Y-19910383D01*
X11450591Y-19910383D01*
X11422019Y-19924668D01*
X11407734Y-19938954D01*
X11722019Y-20110383D02*
X11693448Y-20096097D01*
X11679162Y-20081811D01*
X11664877Y-20053240D01*
X11664877Y-19967526D01*
X11679162Y-19938954D01*
X11693448Y-19924668D01*
X11722019Y-19910383D01*
X11764877Y-19910383D01*
X11793448Y-19924668D01*
X11807734Y-19938954D01*
X11822019Y-19967526D01*
X11822019Y-20053240D01*
X11807734Y-20081811D01*
X11793448Y-20096097D01*
X11764877Y-20110383D01*
X11722019Y-20110383D01*
X11993448Y-20110383D02*
X11964877Y-20096097D01*
X11950591Y-20067526D01*
X11950591Y-19810383D01*
X12222019Y-20096097D02*
X12193448Y-20110383D01*
X12136305Y-20110383D01*
X12107734Y-20096097D01*
X12093448Y-20067526D01*
X12093448Y-19953240D01*
X12107734Y-19924668D01*
X12136305Y-19910383D01*
X12193448Y-19910383D01*
X12222019Y-19924668D01*
X12236305Y-19953240D01*
X12236305Y-19981811D01*
X12093448Y-20010383D01*
X12350591Y-20096097D02*
X12379162Y-20110383D01*
X12436305Y-20110383D01*
X12464877Y-20096097D01*
X12479162Y-20067526D01*
X12479162Y-20053240D01*
X12464877Y-20024668D01*
X12436305Y-20010383D01*
X12393448Y-20010383D01*
X12364877Y-19996097D01*
X12350591Y-19967526D01*
X12350591Y-19953240D01*
X12364877Y-19924668D01*
X12393448Y-19910383D01*
X12436305Y-19910383D01*
X12464877Y-19924668D01*
X12579162Y-20224668D02*
X12593448Y-20210383D01*
X12622019Y-20167526D01*
X12636305Y-20138954D01*
X12650591Y-20096097D01*
X12664877Y-20024668D01*
X12664877Y-19967526D01*
X12650591Y-19896097D01*
X12636305Y-19853240D01*
X12622019Y-19824668D01*
X12593448Y-19781811D01*
X12579162Y-19767526D01*
X5632019Y-20317168D02*
X5807019Y-20492168D01*
X5807019Y-20317168D02*
X5632019Y-20492168D01*
X5781392Y-20466541D02*
X5781392Y-20342796D01*
X5657647Y-20342796D01*
X5657647Y-20466541D01*
X5781392Y-20466541D01*
X6250591Y-20540383D02*
X6079162Y-20540383D01*
X6164877Y-20540383D02*
X6164877Y-20240383D01*
X6136305Y-20283240D01*
X6107734Y-20311811D01*
X6079162Y-20326097D01*
X6379162Y-20511811D02*
X6393448Y-20526097D01*
X6379162Y-20540383D01*
X6364877Y-20526097D01*
X6379162Y-20511811D01*
X6379162Y-20540383D01*
X6493448Y-20240383D02*
X6693448Y-20240383D01*
X6564877Y-20540383D01*
X6950591Y-20240383D02*
X6807734Y-20240383D01*
X6793448Y-20383240D01*
X6807734Y-20368954D01*
X6836305Y-20354668D01*
X6907734Y-20354668D01*
X6936305Y-20368954D01*
X6950591Y-20383240D01*
X6964877Y-20411811D01*
X6964877Y-20483240D01*
X6950591Y-20511811D01*
X6936305Y-20526097D01*
X6907734Y-20540383D01*
X6836305Y-20540383D01*
X6807734Y-20526097D01*
X6793448Y-20511811D01*
X7093448Y-20540383D02*
X7093448Y-20340383D01*
X7093448Y-20368954D02*
X7107734Y-20354668D01*
X7136305Y-20340383D01*
X7179162Y-20340383D01*
X7207734Y-20354668D01*
X7222019Y-20383240D01*
X7222019Y-20540383D01*
X7222019Y-20383240D02*
X7236305Y-20354668D01*
X7264877Y-20340383D01*
X7307734Y-20340383D01*
X7336305Y-20354668D01*
X7350591Y-20383240D01*
X7350591Y-20540383D01*
X7493448Y-20540383D02*
X7493448Y-20340383D01*
X7493448Y-20368954D02*
X7507734Y-20354668D01*
X7536305Y-20340383D01*
X7579162Y-20340383D01*
X7607734Y-20354668D01*
X7622019Y-20383240D01*
X7622019Y-20540383D01*
X7622019Y-20383240D02*
X7636305Y-20354668D01*
X7664877Y-20340383D01*
X7707734Y-20340383D01*
X7736305Y-20354668D01*
X7750591Y-20383240D01*
X7750591Y-20540383D01*
X8336305Y-20226097D02*
X8079162Y-20611811D01*
X8722020Y-20240383D02*
X8750591Y-20240383D01*
X8779162Y-20254668D01*
X8793448Y-20268954D01*
X8807734Y-20297526D01*
X8822020Y-20354668D01*
X8822020Y-20426097D01*
X8807734Y-20483240D01*
X8793448Y-20511811D01*
X8779162Y-20526097D01*
X8750591Y-20540383D01*
X8722020Y-20540383D01*
X8693448Y-20526097D01*
X8679162Y-20511811D01*
X8664877Y-20483240D01*
X8650591Y-20426097D01*
X8650591Y-20354668D01*
X8664877Y-20297526D01*
X8679162Y-20268954D01*
X8693448Y-20254668D01*
X8722020Y-20240383D01*
X8950591Y-20511811D02*
X8964877Y-20526097D01*
X8950591Y-20540383D01*
X8936305Y-20526097D01*
X8950591Y-20511811D01*
X8950591Y-20540383D01*
X9150591Y-20240383D02*
X9179162Y-20240383D01*
X9207734Y-20254668D01*
X9222020Y-20268954D01*
X9236305Y-20297526D01*
X9250591Y-20354668D01*
X9250591Y-20426097D01*
X9236305Y-20483240D01*
X9222020Y-20511811D01*
X9207734Y-20526097D01*
X9179162Y-20540383D01*
X9150591Y-20540383D01*
X9122020Y-20526097D01*
X9107734Y-20511811D01*
X9093448Y-20483240D01*
X9079162Y-20426097D01*
X9079162Y-20354668D01*
X9093448Y-20297526D01*
X9107734Y-20268954D01*
X9122020Y-20254668D01*
X9150591Y-20240383D01*
X9507734Y-20240383D02*
X9450591Y-20240383D01*
X9422020Y-20254668D01*
X9407734Y-20268954D01*
X9379162Y-20311811D01*
X9364877Y-20368954D01*
X9364877Y-20483240D01*
X9379162Y-20511811D01*
X9393448Y-20526097D01*
X9422020Y-20540383D01*
X9479162Y-20540383D01*
X9507734Y-20526097D01*
X9522020Y-20511811D01*
X9536305Y-20483240D01*
X9536305Y-20411811D01*
X9522020Y-20383240D01*
X9507734Y-20368954D01*
X9479162Y-20354668D01*
X9422020Y-20354668D01*
X9393448Y-20368954D01*
X9379162Y-20383240D01*
X9364877Y-20411811D01*
X9679162Y-20540383D02*
X9736305Y-20540383D01*
X9764877Y-20526097D01*
X9779162Y-20511811D01*
X9807734Y-20468954D01*
X9822020Y-20411811D01*
X9822020Y-20297526D01*
X9807734Y-20268954D01*
X9793448Y-20254668D01*
X9764877Y-20240383D01*
X9707734Y-20240383D01*
X9679162Y-20254668D01*
X9664877Y-20268954D01*
X9650591Y-20297526D01*
X9650591Y-20368954D01*
X9664877Y-20397526D01*
X9679162Y-20411811D01*
X9707734Y-20426097D01*
X9764877Y-20426097D01*
X9793448Y-20411811D01*
X9807734Y-20397526D01*
X9822020Y-20368954D01*
X9936305Y-20240383D02*
X9936305Y-20297526D01*
X10050591Y-20240383D02*
X10050591Y-20297526D01*
X10493448Y-20654668D02*
X10479162Y-20640383D01*
X10450591Y-20597526D01*
X10436305Y-20568954D01*
X10422020Y-20526097D01*
X10407734Y-20454668D01*
X10407734Y-20397526D01*
X10422020Y-20326097D01*
X10436305Y-20283240D01*
X10450591Y-20254668D01*
X10479162Y-20211811D01*
X10493448Y-20197526D01*
X10736305Y-20340383D02*
X10736305Y-20540383D01*
X10664877Y-20226097D02*
X10593448Y-20440383D01*
X10779162Y-20440383D01*
X10879162Y-20268954D02*
X10893448Y-20254668D01*
X10922020Y-20240383D01*
X10993448Y-20240383D01*
X11022020Y-20254668D01*
X11036305Y-20268954D01*
X11050591Y-20297526D01*
X11050591Y-20326097D01*
X11036305Y-20368954D01*
X10864877Y-20540383D01*
X11050591Y-20540383D01*
X11407734Y-20540383D02*
X11407734Y-20240383D01*
X11536305Y-20540383D02*
X11536305Y-20383240D01*
X11522019Y-20354668D01*
X11493448Y-20340383D01*
X11450591Y-20340383D01*
X11422019Y-20354668D01*
X11407734Y-20368954D01*
X11722019Y-20540383D02*
X11693448Y-20526097D01*
X11679162Y-20511811D01*
X11664877Y-20483240D01*
X11664877Y-20397526D01*
X11679162Y-20368954D01*
X11693448Y-20354668D01*
X11722019Y-20340383D01*
X11764877Y-20340383D01*
X11793448Y-20354668D01*
X11807734Y-20368954D01*
X11822019Y-20397526D01*
X11822019Y-20483240D01*
X11807734Y-20511811D01*
X11793448Y-20526097D01*
X11764877Y-20540383D01*
X11722019Y-20540383D01*
X11993448Y-20540383D02*
X11964877Y-20526097D01*
X11950591Y-20497526D01*
X11950591Y-20240383D01*
X12222019Y-20526097D02*
X12193448Y-20540383D01*
X12136305Y-20540383D01*
X12107734Y-20526097D01*
X12093448Y-20497526D01*
X12093448Y-20383240D01*
X12107734Y-20354668D01*
X12136305Y-20340383D01*
X12193448Y-20340383D01*
X12222019Y-20354668D01*
X12236305Y-20383240D01*
X12236305Y-20411811D01*
X12093448Y-20440383D01*
X12350591Y-20526097D02*
X12379162Y-20540383D01*
X12436305Y-20540383D01*
X12464877Y-20526097D01*
X12479162Y-20497526D01*
X12479162Y-20483240D01*
X12464877Y-20454668D01*
X12436305Y-20440383D01*
X12393448Y-20440383D01*
X12364877Y-20426097D01*
X12350591Y-20397526D01*
X12350591Y-20383240D01*
X12364877Y-20354668D01*
X12393448Y-20340383D01*
X12436305Y-20340383D01*
X12464877Y-20354668D01*
X12579162Y-20654668D02*
X12593448Y-20640383D01*
X12622019Y-20597526D01*
X12636305Y-20568954D01*
X12650591Y-20526097D01*
X12664877Y-20454668D01*
X12664877Y-20397526D01*
X12650591Y-20326097D01*
X12636305Y-20283240D01*
X12622019Y-20254668D01*
X12593448Y-20211811D01*
X12579162Y-20197526D01*
X13122019Y-20654668D02*
X13107734Y-20640383D01*
X13079162Y-20597526D01*
X13064877Y-20568954D01*
X13050591Y-20526097D01*
X13036305Y-20454668D01*
X13036305Y-20397526D01*
X13050591Y-20326097D01*
X13064877Y-20283240D01*
X13079162Y-20254668D01*
X13107734Y-20211811D01*
X13122019Y-20197526D01*
X13236305Y-20340383D02*
X13236305Y-20540383D01*
X13236305Y-20368954D02*
X13250591Y-20354668D01*
X13279162Y-20340383D01*
X13322019Y-20340383D01*
X13350591Y-20354668D01*
X13364877Y-20383240D01*
X13364877Y-20540383D01*
X13550591Y-20540383D02*
X13522019Y-20526097D01*
X13507734Y-20511811D01*
X13493448Y-20483240D01*
X13493448Y-20397526D01*
X13507734Y-20368954D01*
X13522019Y-20354668D01*
X13550591Y-20340383D01*
X13593448Y-20340383D01*
X13622019Y-20354668D01*
X13636305Y-20368954D01*
X13650591Y-20397526D01*
X13650591Y-20483240D01*
X13636305Y-20511811D01*
X13622019Y-20526097D01*
X13593448Y-20540383D01*
X13550591Y-20540383D01*
X13736305Y-20340383D02*
X13850591Y-20340383D01*
X13779162Y-20240383D02*
X13779162Y-20497526D01*
X13793448Y-20526097D01*
X13822019Y-20540383D01*
X13850591Y-20540383D01*
X14179162Y-20340383D02*
X14179162Y-20640383D01*
X14179162Y-20354668D02*
X14207734Y-20340383D01*
X14264877Y-20340383D01*
X14293448Y-20354668D01*
X14307734Y-20368954D01*
X14322019Y-20397526D01*
X14322019Y-20483240D01*
X14307734Y-20511811D01*
X14293448Y-20526097D01*
X14264877Y-20540383D01*
X14207734Y-20540383D01*
X14179162Y-20526097D01*
X14493448Y-20540383D02*
X14464877Y-20526097D01*
X14450591Y-20497526D01*
X14450591Y-20240383D01*
X14736305Y-20540383D02*
X14736305Y-20383240D01*
X14722019Y-20354668D01*
X14693448Y-20340383D01*
X14636305Y-20340383D01*
X14607734Y-20354668D01*
X14736305Y-20526097D02*
X14707734Y-20540383D01*
X14636305Y-20540383D01*
X14607734Y-20526097D01*
X14593448Y-20497526D01*
X14593448Y-20468954D01*
X14607734Y-20440383D01*
X14636305Y-20426097D01*
X14707734Y-20426097D01*
X14736305Y-20411811D01*
X14836305Y-20340383D02*
X14950591Y-20340383D01*
X14879162Y-20240383D02*
X14879162Y-20497526D01*
X14893448Y-20526097D01*
X14922019Y-20540383D01*
X14950591Y-20540383D01*
X15164877Y-20526097D02*
X15136305Y-20540383D01*
X15079162Y-20540383D01*
X15050591Y-20526097D01*
X15036305Y-20497526D01*
X15036305Y-20383240D01*
X15050591Y-20354668D01*
X15079162Y-20340383D01*
X15136305Y-20340383D01*
X15164877Y-20354668D01*
X15179162Y-20383240D01*
X15179162Y-20411811D01*
X15036305Y-20440383D01*
X15436305Y-20540383D02*
X15436305Y-20240383D01*
X15436305Y-20526097D02*
X15407734Y-20540383D01*
X15350591Y-20540383D01*
X15322019Y-20526097D01*
X15307734Y-20511811D01*
X15293448Y-20483240D01*
X15293448Y-20397526D01*
X15307734Y-20368954D01*
X15322019Y-20354668D01*
X15350591Y-20340383D01*
X15407734Y-20340383D01*
X15436305Y-20354668D01*
X15550591Y-20654668D02*
X15564877Y-20640383D01*
X15593448Y-20597526D01*
X15607734Y-20568954D01*
X15622019Y-20526097D01*
X15636305Y-20454668D01*
X15636305Y-20397526D01*
X15622019Y-20326097D01*
X15607734Y-20283240D01*
X15593448Y-20254668D01*
X15564877Y-20211811D01*
X15550591Y-20197526D01*
X5502220Y-20648268D02*
X5807019Y-20953068D01*
X5807019Y-20648268D02*
X5502220Y-20953068D01*
X5654619Y-20953068D02*
X5807019Y-20800668D01*
X5654619Y-20648268D01*
X5502220Y-20800668D01*
X5654619Y-20953068D01*
X6064877Y-20636383D02*
X6250591Y-20636383D01*
X6150591Y-20750668D01*
X6193448Y-20750668D01*
X6222019Y-20764954D01*
X6236305Y-20779240D01*
X6250591Y-20807811D01*
X6250591Y-20879240D01*
X6236305Y-20907811D01*
X6222019Y-20922097D01*
X6193448Y-20936383D01*
X6107734Y-20936383D01*
X6079162Y-20922097D01*
X6064877Y-20907811D01*
X6379162Y-20907811D02*
X6393448Y-20922097D01*
X6379162Y-20936383D01*
X6364877Y-20922097D01*
X6379162Y-20907811D01*
X6379162Y-20936383D01*
X6579162Y-20636383D02*
X6607734Y-20636383D01*
X6636305Y-20650668D01*
X6650591Y-20664954D01*
X6664877Y-20693526D01*
X6679162Y-20750668D01*
X6679162Y-20822097D01*
X6664877Y-20879240D01*
X6650591Y-20907811D01*
X6636305Y-20922097D01*
X6607734Y-20936383D01*
X6579162Y-20936383D01*
X6550591Y-20922097D01*
X6536305Y-20907811D01*
X6522019Y-20879240D01*
X6507734Y-20822097D01*
X6507734Y-20750668D01*
X6522019Y-20693526D01*
X6536305Y-20664954D01*
X6550591Y-20650668D01*
X6579162Y-20636383D01*
X6950591Y-20636383D02*
X6807734Y-20636383D01*
X6793448Y-20779240D01*
X6807734Y-20764954D01*
X6836305Y-20750668D01*
X6907734Y-20750668D01*
X6936305Y-20764954D01*
X6950591Y-20779240D01*
X6964877Y-20807811D01*
X6964877Y-20879240D01*
X6950591Y-20907811D01*
X6936305Y-20922097D01*
X6907734Y-20936383D01*
X6836305Y-20936383D01*
X6807734Y-20922097D01*
X6793448Y-20907811D01*
X7093448Y-20936383D02*
X7093448Y-20736383D01*
X7093448Y-20764954D02*
X7107734Y-20750668D01*
X7136305Y-20736383D01*
X7179162Y-20736383D01*
X7207734Y-20750668D01*
X7222019Y-20779240D01*
X7222019Y-20936383D01*
X7222019Y-20779240D02*
X7236305Y-20750668D01*
X7264877Y-20736383D01*
X7307734Y-20736383D01*
X7336305Y-20750668D01*
X7350591Y-20779240D01*
X7350591Y-20936383D01*
X7493448Y-20936383D02*
X7493448Y-20736383D01*
X7493448Y-20764954D02*
X7507734Y-20750668D01*
X7536305Y-20736383D01*
X7579162Y-20736383D01*
X7607734Y-20750668D01*
X7622019Y-20779240D01*
X7622019Y-20936383D01*
X7622019Y-20779240D02*
X7636305Y-20750668D01*
X7664877Y-20736383D01*
X7707734Y-20736383D01*
X7736305Y-20750668D01*
X7750591Y-20779240D01*
X7750591Y-20936383D01*
X8336305Y-20622097D02*
X8079162Y-21007811D01*
X8722020Y-20636383D02*
X8750591Y-20636383D01*
X8779162Y-20650668D01*
X8793448Y-20664954D01*
X8807734Y-20693526D01*
X8822020Y-20750668D01*
X8822020Y-20822097D01*
X8807734Y-20879240D01*
X8793448Y-20907811D01*
X8779162Y-20922097D01*
X8750591Y-20936383D01*
X8722020Y-20936383D01*
X8693448Y-20922097D01*
X8679162Y-20907811D01*
X8664877Y-20879240D01*
X8650591Y-20822097D01*
X8650591Y-20750668D01*
X8664877Y-20693526D01*
X8679162Y-20664954D01*
X8693448Y-20650668D01*
X8722020Y-20636383D01*
X8950591Y-20907811D02*
X8964877Y-20922097D01*
X8950591Y-20936383D01*
X8936305Y-20922097D01*
X8950591Y-20907811D01*
X8950591Y-20936383D01*
X9250591Y-20936383D02*
X9079162Y-20936383D01*
X9164877Y-20936383D02*
X9164877Y-20636383D01*
X9136305Y-20679240D01*
X9107734Y-20707811D01*
X9079162Y-20722097D01*
X9364877Y-20664954D02*
X9379162Y-20650668D01*
X9407734Y-20636383D01*
X9479162Y-20636383D01*
X9507734Y-20650668D01*
X9522020Y-20664954D01*
X9536305Y-20693526D01*
X9536305Y-20722097D01*
X9522020Y-20764954D01*
X9350591Y-20936383D01*
X9536305Y-20936383D01*
X9722020Y-20636383D02*
X9750591Y-20636383D01*
X9779162Y-20650668D01*
X9793448Y-20664954D01*
X9807734Y-20693526D01*
X9822020Y-20750668D01*
X9822020Y-20822097D01*
X9807734Y-20879240D01*
X9793448Y-20907811D01*
X9779162Y-20922097D01*
X9750591Y-20936383D01*
X9722020Y-20936383D01*
X9693448Y-20922097D01*
X9679162Y-20907811D01*
X9664877Y-20879240D01*
X9650591Y-20822097D01*
X9650591Y-20750668D01*
X9664877Y-20693526D01*
X9679162Y-20664954D01*
X9693448Y-20650668D01*
X9722020Y-20636383D01*
X9936305Y-20636383D02*
X9936305Y-20693526D01*
X10050591Y-20636383D02*
X10050591Y-20693526D01*
X10493448Y-21050668D02*
X10479162Y-21036383D01*
X10450591Y-20993526D01*
X10436305Y-20964954D01*
X10422020Y-20922097D01*
X10407734Y-20850668D01*
X10407734Y-20793526D01*
X10422020Y-20722097D01*
X10436305Y-20679240D01*
X10450591Y-20650668D01*
X10479162Y-20607811D01*
X10493448Y-20593526D01*
X10736305Y-20736383D02*
X10736305Y-20936383D01*
X10664877Y-20622097D02*
X10593448Y-20836383D01*
X10779162Y-20836383D01*
X11122020Y-20936383D02*
X11122020Y-20636383D01*
X11250591Y-20936383D02*
X11250591Y-20779240D01*
X11236305Y-20750668D01*
X11207734Y-20736383D01*
X11164877Y-20736383D01*
X11136305Y-20750668D01*
X11122020Y-20764954D01*
X11436305Y-20936383D02*
X11407734Y-20922097D01*
X11393448Y-20907811D01*
X11379162Y-20879240D01*
X11379162Y-20793526D01*
X11393448Y-20764954D01*
X11407734Y-20750668D01*
X11436305Y-20736383D01*
X11479162Y-20736383D01*
X11507734Y-20750668D01*
X11522019Y-20764954D01*
X11536305Y-20793526D01*
X11536305Y-20879240D01*
X11522019Y-20907811D01*
X11507734Y-20922097D01*
X11479162Y-20936383D01*
X11436305Y-20936383D01*
X11707734Y-20936383D02*
X11679162Y-20922097D01*
X11664877Y-20893526D01*
X11664877Y-20636383D01*
X11936305Y-20922097D02*
X11907734Y-20936383D01*
X11850591Y-20936383D01*
X11822019Y-20922097D01*
X11807734Y-20893526D01*
X11807734Y-20779240D01*
X11822019Y-20750668D01*
X11850591Y-20736383D01*
X11907734Y-20736383D01*
X11936305Y-20750668D01*
X11950591Y-20779240D01*
X11950591Y-20807811D01*
X11807734Y-20836383D01*
X12064877Y-20922097D02*
X12093448Y-20936383D01*
X12150591Y-20936383D01*
X12179162Y-20922097D01*
X12193448Y-20893526D01*
X12193448Y-20879240D01*
X12179162Y-20850668D01*
X12150591Y-20836383D01*
X12107734Y-20836383D01*
X12079162Y-20822097D01*
X12064877Y-20793526D01*
X12064877Y-20779240D01*
X12079162Y-20750668D01*
X12107734Y-20736383D01*
X12150591Y-20736383D01*
X12179162Y-20750668D01*
X12293448Y-21050668D02*
X12307734Y-21036383D01*
X12336305Y-20993526D01*
X12350591Y-20964954D01*
X12364877Y-20922097D01*
X12379162Y-20850668D01*
X12379162Y-20793526D01*
X12364877Y-20722097D01*
X12350591Y-20679240D01*
X12336305Y-20650668D01*
X12307734Y-20607811D01*
X12293448Y-20593526D01*
X12836305Y-21050668D02*
X12822019Y-21036383D01*
X12793448Y-20993526D01*
X12779162Y-20964954D01*
X12764877Y-20922097D01*
X12750591Y-20850668D01*
X12750591Y-20793526D01*
X12764877Y-20722097D01*
X12779162Y-20679240D01*
X12793448Y-20650668D01*
X12822019Y-20607811D01*
X12836305Y-20593526D01*
X12950591Y-20736383D02*
X12950591Y-20936383D01*
X12950591Y-20764954D02*
X12964877Y-20750668D01*
X12993448Y-20736383D01*
X13036305Y-20736383D01*
X13064877Y-20750668D01*
X13079162Y-20779240D01*
X13079162Y-20936383D01*
X13264877Y-20936383D02*
X13236305Y-20922097D01*
X13222019Y-20907811D01*
X13207734Y-20879240D01*
X13207734Y-20793526D01*
X13222019Y-20764954D01*
X13236305Y-20750668D01*
X13264877Y-20736383D01*
X13307734Y-20736383D01*
X13336305Y-20750668D01*
X13350591Y-20764954D01*
X13364877Y-20793526D01*
X13364877Y-20879240D01*
X13350591Y-20907811D01*
X13336305Y-20922097D01*
X13307734Y-20936383D01*
X13264877Y-20936383D01*
X13450591Y-20736383D02*
X13564877Y-20736383D01*
X13493448Y-20636383D02*
X13493448Y-20893526D01*
X13507734Y-20922097D01*
X13536305Y-20936383D01*
X13564877Y-20936383D01*
X13893448Y-20736383D02*
X13893448Y-21036383D01*
X13893448Y-20750668D02*
X13922019Y-20736383D01*
X13979162Y-20736383D01*
X14007734Y-20750668D01*
X14022019Y-20764954D01*
X14036305Y-20793526D01*
X14036305Y-20879240D01*
X14022019Y-20907811D01*
X14007734Y-20922097D01*
X13979162Y-20936383D01*
X13922019Y-20936383D01*
X13893448Y-20922097D01*
X14207734Y-20936383D02*
X14179162Y-20922097D01*
X14164877Y-20893526D01*
X14164877Y-20636383D01*
X14450591Y-20936383D02*
X14450591Y-20779240D01*
X14436305Y-20750668D01*
X14407734Y-20736383D01*
X14350591Y-20736383D01*
X14322019Y-20750668D01*
X14450591Y-20922097D02*
X14422019Y-20936383D01*
X14350591Y-20936383D01*
X14322019Y-20922097D01*
X14307734Y-20893526D01*
X14307734Y-20864954D01*
X14322019Y-20836383D01*
X14350591Y-20822097D01*
X14422019Y-20822097D01*
X14450591Y-20807811D01*
X14550591Y-20736383D02*
X14664877Y-20736383D01*
X14593448Y-20636383D02*
X14593448Y-20893526D01*
X14607734Y-20922097D01*
X14636305Y-20936383D01*
X14664877Y-20936383D01*
X14879162Y-20922097D02*
X14850591Y-20936383D01*
X14793448Y-20936383D01*
X14764877Y-20922097D01*
X14750591Y-20893526D01*
X14750591Y-20779240D01*
X14764877Y-20750668D01*
X14793448Y-20736383D01*
X14850591Y-20736383D01*
X14879162Y-20750668D01*
X14893448Y-20779240D01*
X14893448Y-20807811D01*
X14750591Y-20836383D01*
X15150591Y-20936383D02*
X15150591Y-20636383D01*
X15150591Y-20922097D02*
X15122019Y-20936383D01*
X15064877Y-20936383D01*
X15036305Y-20922097D01*
X15022019Y-20907811D01*
X15007734Y-20879240D01*
X15007734Y-20793526D01*
X15022019Y-20764954D01*
X15036305Y-20750668D01*
X15064877Y-20736383D01*
X15122019Y-20736383D01*
X15150591Y-20750668D01*
X15264877Y-21050668D02*
X15279162Y-21036383D01*
X15307734Y-20993526D01*
X15322019Y-20964954D01*
X15336305Y-20922097D01*
X15350591Y-20850668D01*
X15350591Y-20793526D01*
X15336305Y-20722097D01*
X15322019Y-20679240D01*
X15307734Y-20650668D01*
X15279162Y-20607811D01*
X15264877Y-20593526D01*
X5607629Y-21036078D02*
X5607629Y-21434858D01*
X5408240Y-21235468D02*
X5807019Y-21235468D01*
X5807019Y-21235468D02*
G75*
G03X5807019Y-21235468I-199390J0D01*
G01*
X6064877Y-21071183D02*
X6250591Y-21071183D01*
X6150591Y-21185468D01*
X6193448Y-21185468D01*
X6222019Y-21199754D01*
X6236305Y-21214040D01*
X6250591Y-21242611D01*
X6250591Y-21314040D01*
X6236305Y-21342611D01*
X6222019Y-21356897D01*
X6193448Y-21371183D01*
X6107734Y-21371183D01*
X6079162Y-21356897D01*
X6064877Y-21342611D01*
X6379162Y-21342611D02*
X6393448Y-21356897D01*
X6379162Y-21371183D01*
X6364877Y-21356897D01*
X6379162Y-21342611D01*
X6379162Y-21371183D01*
X6536305Y-21371183D02*
X6593448Y-21371183D01*
X6622019Y-21356897D01*
X6636305Y-21342611D01*
X6664877Y-21299754D01*
X6679162Y-21242611D01*
X6679162Y-21128326D01*
X6664877Y-21099754D01*
X6650591Y-21085468D01*
X6622019Y-21071183D01*
X6564877Y-21071183D01*
X6536305Y-21085468D01*
X6522019Y-21099754D01*
X6507734Y-21128326D01*
X6507734Y-21199754D01*
X6522019Y-21228326D01*
X6536305Y-21242611D01*
X6564877Y-21256897D01*
X6622019Y-21256897D01*
X6650591Y-21242611D01*
X6664877Y-21228326D01*
X6679162Y-21199754D01*
X6822019Y-21371183D02*
X6879162Y-21371183D01*
X6907734Y-21356897D01*
X6922019Y-21342611D01*
X6950591Y-21299754D01*
X6964877Y-21242611D01*
X6964877Y-21128326D01*
X6950591Y-21099754D01*
X6936305Y-21085468D01*
X6907734Y-21071183D01*
X6850591Y-21071183D01*
X6822019Y-21085468D01*
X6807734Y-21099754D01*
X6793448Y-21128326D01*
X6793448Y-21199754D01*
X6807734Y-21228326D01*
X6822019Y-21242611D01*
X6850591Y-21256897D01*
X6907734Y-21256897D01*
X6936305Y-21242611D01*
X6950591Y-21228326D01*
X6964877Y-21199754D01*
X7093448Y-21371183D02*
X7093448Y-21171183D01*
X7093448Y-21199754D02*
X7107734Y-21185468D01*
X7136305Y-21171183D01*
X7179162Y-21171183D01*
X7207734Y-21185468D01*
X7222019Y-21214040D01*
X7222019Y-21371183D01*
X7222019Y-21214040D02*
X7236305Y-21185468D01*
X7264877Y-21171183D01*
X7307734Y-21171183D01*
X7336305Y-21185468D01*
X7350591Y-21214040D01*
X7350591Y-21371183D01*
X7493448Y-21371183D02*
X7493448Y-21171183D01*
X7493448Y-21199754D02*
X7507734Y-21185468D01*
X7536305Y-21171183D01*
X7579162Y-21171183D01*
X7607734Y-21185468D01*
X7622019Y-21214040D01*
X7622019Y-21371183D01*
X7622019Y-21214040D02*
X7636305Y-21185468D01*
X7664877Y-21171183D01*
X7707734Y-21171183D01*
X7736305Y-21185468D01*
X7750591Y-21214040D01*
X7750591Y-21371183D01*
X8336305Y-21056897D02*
X8079162Y-21442611D01*
X8722020Y-21071183D02*
X8750591Y-21071183D01*
X8779162Y-21085468D01*
X8793448Y-21099754D01*
X8807734Y-21128326D01*
X8822020Y-21185468D01*
X8822020Y-21256897D01*
X8807734Y-21314040D01*
X8793448Y-21342611D01*
X8779162Y-21356897D01*
X8750591Y-21371183D01*
X8722020Y-21371183D01*
X8693448Y-21356897D01*
X8679162Y-21342611D01*
X8664877Y-21314040D01*
X8650591Y-21256897D01*
X8650591Y-21185468D01*
X8664877Y-21128326D01*
X8679162Y-21099754D01*
X8693448Y-21085468D01*
X8722020Y-21071183D01*
X8950591Y-21342611D02*
X8964877Y-21356897D01*
X8950591Y-21371183D01*
X8936305Y-21356897D01*
X8950591Y-21342611D01*
X8950591Y-21371183D01*
X9250591Y-21371183D02*
X9079162Y-21371183D01*
X9164877Y-21371183D02*
X9164877Y-21071183D01*
X9136305Y-21114040D01*
X9107734Y-21142611D01*
X9079162Y-21156897D01*
X9522020Y-21071183D02*
X9379162Y-21071183D01*
X9364877Y-21214040D01*
X9379162Y-21199754D01*
X9407734Y-21185468D01*
X9479162Y-21185468D01*
X9507734Y-21199754D01*
X9522020Y-21214040D01*
X9536305Y-21242611D01*
X9536305Y-21314040D01*
X9522020Y-21342611D01*
X9507734Y-21356897D01*
X9479162Y-21371183D01*
X9407734Y-21371183D01*
X9379162Y-21356897D01*
X9364877Y-21342611D01*
X9636305Y-21071183D02*
X9836305Y-21071183D01*
X9707734Y-21371183D01*
X9936305Y-21071183D02*
X9936305Y-21128326D01*
X10050591Y-21071183D02*
X10050591Y-21128326D01*
X10493448Y-21485468D02*
X10479162Y-21471183D01*
X10450591Y-21428326D01*
X10436305Y-21399754D01*
X10422020Y-21356897D01*
X10407734Y-21285468D01*
X10407734Y-21228326D01*
X10422020Y-21156897D01*
X10436305Y-21114040D01*
X10450591Y-21085468D01*
X10479162Y-21042611D01*
X10493448Y-21028326D01*
X10593448Y-21099754D02*
X10607734Y-21085468D01*
X10636305Y-21071183D01*
X10707734Y-21071183D01*
X10736305Y-21085468D01*
X10750591Y-21099754D01*
X10764877Y-21128326D01*
X10764877Y-21156897D01*
X10750591Y-21199754D01*
X10579162Y-21371183D01*
X10764877Y-21371183D01*
X11036305Y-21071183D02*
X10893448Y-21071183D01*
X10879162Y-21214040D01*
X10893448Y-21199754D01*
X10922020Y-21185468D01*
X10993448Y-21185468D01*
X11022020Y-21199754D01*
X11036305Y-21214040D01*
X11050591Y-21242611D01*
X11050591Y-21314040D01*
X11036305Y-21342611D01*
X11022020Y-21356897D01*
X10993448Y-21371183D01*
X10922020Y-21371183D01*
X10893448Y-21356897D01*
X10879162Y-21342611D01*
X11407734Y-21371183D02*
X11407734Y-21071183D01*
X11536305Y-21371183D02*
X11536305Y-21214040D01*
X11522019Y-21185468D01*
X11493448Y-21171183D01*
X11450591Y-21171183D01*
X11422019Y-21185468D01*
X11407734Y-21199754D01*
X11722019Y-21371183D02*
X11693448Y-21356897D01*
X11679162Y-21342611D01*
X11664877Y-21314040D01*
X11664877Y-21228326D01*
X11679162Y-21199754D01*
X11693448Y-21185468D01*
X11722019Y-21171183D01*
X11764877Y-21171183D01*
X11793448Y-21185468D01*
X11807734Y-21199754D01*
X11822019Y-21228326D01*
X11822019Y-21314040D01*
X11807734Y-21342611D01*
X11793448Y-21356897D01*
X11764877Y-21371183D01*
X11722019Y-21371183D01*
X11993448Y-21371183D02*
X11964877Y-21356897D01*
X11950591Y-21328326D01*
X11950591Y-21071183D01*
X12222019Y-21356897D02*
X12193448Y-21371183D01*
X12136305Y-21371183D01*
X12107734Y-21356897D01*
X12093448Y-21328326D01*
X12093448Y-21214040D01*
X12107734Y-21185468D01*
X12136305Y-21171183D01*
X12193448Y-21171183D01*
X12222019Y-21185468D01*
X12236305Y-21214040D01*
X12236305Y-21242611D01*
X12093448Y-21271183D01*
X12350591Y-21356897D02*
X12379162Y-21371183D01*
X12436305Y-21371183D01*
X12464877Y-21356897D01*
X12479162Y-21328326D01*
X12479162Y-21314040D01*
X12464877Y-21285468D01*
X12436305Y-21271183D01*
X12393448Y-21271183D01*
X12364877Y-21256897D01*
X12350591Y-21228326D01*
X12350591Y-21214040D01*
X12364877Y-21185468D01*
X12393448Y-21171183D01*
X12436305Y-21171183D01*
X12464877Y-21185468D01*
X12579162Y-21485468D02*
X12593448Y-21471183D01*
X12622019Y-21428326D01*
X12636305Y-21399754D01*
X12650591Y-21356897D01*
X12664877Y-21285468D01*
X12664877Y-21228326D01*
X12650591Y-21156897D01*
X12636305Y-21114040D01*
X12622019Y-21085468D01*
X12593448Y-21042611D01*
X12579162Y-21028326D01*
X13122019Y-21485468D02*
X13107734Y-21471183D01*
X13079162Y-21428326D01*
X13064877Y-21399754D01*
X13050591Y-21356897D01*
X13036305Y-21285468D01*
X13036305Y-21228326D01*
X13050591Y-21156897D01*
X13064877Y-21114040D01*
X13079162Y-21085468D01*
X13107734Y-21042611D01*
X13122019Y-21028326D01*
X13236305Y-21171183D02*
X13236305Y-21371183D01*
X13236305Y-21199754D02*
X13250591Y-21185468D01*
X13279162Y-21171183D01*
X13322019Y-21171183D01*
X13350591Y-21185468D01*
X13364877Y-21214040D01*
X13364877Y-21371183D01*
X13550591Y-21371183D02*
X13522019Y-21356897D01*
X13507734Y-21342611D01*
X13493448Y-21314040D01*
X13493448Y-21228326D01*
X13507734Y-21199754D01*
X13522019Y-21185468D01*
X13550591Y-21171183D01*
X13593448Y-21171183D01*
X13622019Y-21185468D01*
X13636305Y-21199754D01*
X13650591Y-21228326D01*
X13650591Y-21314040D01*
X13636305Y-21342611D01*
X13622019Y-21356897D01*
X13593448Y-21371183D01*
X13550591Y-21371183D01*
X13736305Y-21171183D02*
X13850591Y-21171183D01*
X13779162Y-21071183D02*
X13779162Y-21328326D01*
X13793448Y-21356897D01*
X13822019Y-21371183D01*
X13850591Y-21371183D01*
X14179162Y-21171183D02*
X14179162Y-21471183D01*
X14179162Y-21185468D02*
X14207734Y-21171183D01*
X14264877Y-21171183D01*
X14293448Y-21185468D01*
X14307734Y-21199754D01*
X14322019Y-21228326D01*
X14322019Y-21314040D01*
X14307734Y-21342611D01*
X14293448Y-21356897D01*
X14264877Y-21371183D01*
X14207734Y-21371183D01*
X14179162Y-21356897D01*
X14493448Y-21371183D02*
X14464877Y-21356897D01*
X14450591Y-21328326D01*
X14450591Y-21071183D01*
X14736305Y-21371183D02*
X14736305Y-21214040D01*
X14722019Y-21185468D01*
X14693448Y-21171183D01*
X14636305Y-21171183D01*
X14607734Y-21185468D01*
X14736305Y-21356897D02*
X14707734Y-21371183D01*
X14636305Y-21371183D01*
X14607734Y-21356897D01*
X14593448Y-21328326D01*
X14593448Y-21299754D01*
X14607734Y-21271183D01*
X14636305Y-21256897D01*
X14707734Y-21256897D01*
X14736305Y-21242611D01*
X14836305Y-21171183D02*
X14950591Y-21171183D01*
X14879162Y-21071183D02*
X14879162Y-21328326D01*
X14893448Y-21356897D01*
X14922019Y-21371183D01*
X14950591Y-21371183D01*
X15164877Y-21356897D02*
X15136305Y-21371183D01*
X15079162Y-21371183D01*
X15050591Y-21356897D01*
X15036305Y-21328326D01*
X15036305Y-21214040D01*
X15050591Y-21185468D01*
X15079162Y-21171183D01*
X15136305Y-21171183D01*
X15164877Y-21185468D01*
X15179162Y-21214040D01*
X15179162Y-21242611D01*
X15036305Y-21271183D01*
X15436305Y-21371183D02*
X15436305Y-21071183D01*
X15436305Y-21356897D02*
X15407734Y-21371183D01*
X15350591Y-21371183D01*
X15322019Y-21356897D01*
X15307734Y-21342611D01*
X15293448Y-21314040D01*
X15293448Y-21228326D01*
X15307734Y-21199754D01*
X15322019Y-21185468D01*
X15350591Y-21171183D01*
X15407734Y-21171183D01*
X15436305Y-21185468D01*
X15550591Y-21485468D02*
X15564877Y-21471183D01*
X15593448Y-21428326D01*
X15607734Y-21399754D01*
X15622019Y-21356897D01*
X15636305Y-21285468D01*
X15636305Y-21228326D01*
X15622019Y-21156897D01*
X15607734Y-21114040D01*
X15593448Y-21085468D01*
X15564877Y-21042611D01*
X15550591Y-21028326D01*
M02*
