M48
; DRILL file {KiCad (5.1.5-0-10_14)} date 2020 May 14, Thursday 06:03:17
; FORMAT={-:-/ absolute / metric / decimal}
; #@! TF.CreationDate,2020-05-14T06:03:17+09:00
; #@! TF.GenerationSoftware,Kicad,Pcbnew,(5.1.5-0-10_14)
FMAT,2
METRIC
T1C0.400
T2C0.600
T3C0.813
T4C1.000
T5C1.500
T6C2.200
T7C3.000
T8C1.750
T9C3.048
T10C3.988
%
G90
G05
T1
X71.413Y-67.857
X72.009Y-58.547
X72.136Y-56.642
X73.152Y-55.372
X75.184Y-75.311
X75.341Y-52.548
X75.692Y-37.973
X76.581Y-39.878
X76.962Y-36.576
X77.089Y-58.674
X77.343Y-43.434
X79.15Y-58.137
X79.248Y-32.385
X79.248Y-102.108
X79.438Y-42.508
X80.15Y-35.179
X80.264Y-57.404
X80.349Y-43.031
X80.457Y-46.482
X81.293Y-42.57
X87.249Y-61.341
X95.25Y-61.722
X101.129Y-44.286
X102.362Y-39.624
X110.334Y-60.185
X112.268Y-43.447
X135.713Y-59.804
X137.16Y-60.706
X137.541Y-106.172
X137.666Y-61.906
X137.668Y-101.219
X137.795Y-52.182
X138.44Y-43.469
X138.552Y-63.378
X139.192Y-50.673
X139.7Y-64.77
X140.297Y-62.207
X140.462Y-82.55
X140.843Y-43.511
X141.224Y-45.466
X141.351Y-75.057
X144.145Y-46.736
X151.088Y-60.518
X152.146Y-60.198
X62.547Y-89.367
X62.547Y-91.291
X79.057Y-86.827
X79.057Y-88.751
X98.617Y-121.107
X99.1Y-119.94
X99.1Y-122.274
X100.266Y-119.457
X100.266Y-122.757
X101.433Y-119.94
X101.433Y-122.274
X101.916Y-121.107
X122.545Y-123.349
X124.469Y-123.349
X125.085Y-139.859
X127.009Y-139.859
X81.597Y-70.317
X81.597Y-72.241
X98.108Y-67.777
X98.108Y-69.701
X119.697Y-70.317
X119.697Y-72.241
X136.207Y-67.777
X136.207Y-69.701
X100.647Y-108.417
X100.647Y-110.341
X117.157Y-105.877
X117.157Y-107.801
X100.647Y-89.367
X100.647Y-91.291
X117.157Y-86.827
X117.157Y-88.751
X122.545Y-104.299
X124.469Y-104.299
X125.085Y-120.809
X127.009Y-120.809
X62.547Y-108.417
X62.547Y-110.341
X79.057Y-105.877
X79.057Y-107.801
X62.547Y-70.317
X62.547Y-72.241
X79.057Y-67.777
X79.057Y-69.701
X81.597Y-89.367
X81.597Y-91.291
X98.108Y-86.827
X98.108Y-88.751
X100.647Y-51.267
X100.647Y-53.191
X117.157Y-48.727
X117.157Y-50.651
X82.867Y-135.087
X82.867Y-137.011
X99.377Y-132.547
X99.377Y-134.471
X63.817Y-135.087
X63.817Y-137.011
X80.328Y-132.547
X80.328Y-134.471
X81.597Y-51.267
X81.597Y-53.191
X98.108Y-48.727
X98.108Y-50.651
X100.647Y-127.467
X100.647Y-129.391
X117.157Y-124.927
X117.157Y-126.851
X100.647Y-70.317
X100.647Y-72.241
X117.157Y-67.777
X117.157Y-69.701
X98.615Y-63.957
X99.099Y-62.79
X99.099Y-65.124
X100.265Y-62.307
X100.265Y-65.607
X101.432Y-62.79
X101.432Y-65.124
X101.915Y-63.957
X119.697Y-89.367
X119.697Y-91.291
X136.207Y-86.827
X136.207Y-88.751
X119.697Y-51.267
X119.697Y-53.191
X136.207Y-48.727
X136.207Y-50.651
X130.165Y-112.554
X132.089Y-112.554
X132.706Y-129.064
X134.63Y-129.064
X81.597Y-108.417
X81.597Y-110.341
X98.108Y-105.877
X98.108Y-107.801
X72.072Y-127.467
X72.072Y-129.391
X88.582Y-124.927
X88.582Y-126.851
T2
X64.77Y-125.73
X82.133Y-58.904
X93.726Y-36.068
X97.028Y-39.116
X133.35Y-103.585
X138.491Y-45.251
X140.335Y-54.229
T3
X82.296Y-37.846
X89.916Y-37.846
X107.95Y-62.992
X115.57Y-62.992
X88.9Y-62.992
X96.52Y-62.992
X108.458Y-46.482
X116.078Y-46.482
X107.95Y-65.532
X115.57Y-65.532
X93.218Y-37.846
X100.838Y-37.846
X127.254Y-46.482
X134.874Y-46.482
X70.104Y-84.582
X77.724Y-84.582
X104.394Y-40.64
X112.014Y-40.64
X89.408Y-46.482
X97.028Y-46.482
X81.915Y-120.254
X89.535Y-120.254
X89.059Y-103.585
X96.679Y-103.585
X106.045Y-122.504
X113.665Y-122.504
X127.254Y-62.992
X134.874Y-62.992
X73.66Y-65.405
X81.28Y-65.405
X104.394Y-37.846
X112.014Y-37.846
X110.49Y-120.254
X118.11Y-120.254
X108.204Y-103.632
X115.824Y-103.632
X127.254Y-84.582
X134.874Y-84.582
X63.5Y-65.405
X71.12Y-65.405
X77.854Y-62.992
X85.474Y-62.992
X127.159Y-101.204
X134.779Y-101.204
X108.204Y-84.582
X115.824Y-84.582
X88.9Y-65.532
X96.52Y-65.532
X72.857Y-122.64
X80.477Y-122.64
X82.296Y-40.64
X89.916Y-40.64
X89.154Y-84.582
X96.774Y-84.582
X93.218Y-40.64
X100.838Y-40.64
X127.254Y-65.532
X134.874Y-65.532
X70.009Y-103.585
X77.629Y-103.585
T4
X146.116Y-59.101
X146.644Y-56.616
X147.172Y-54.132
X147.7Y-51.647
X148.228Y-49.163
X148.601Y-59.629
X148.757Y-46.678
X149.129Y-57.144
X149.285Y-44.194
X149.657Y-54.66
X150.185Y-52.175
X150.713Y-49.691
X151.241Y-47.206
X151.769Y-44.722
X70.601Y-43.084
X71.13Y-40.599
X71.658Y-38.115
X72.186Y-35.63
X72.714Y-33.146
X73.086Y-43.612
X73.242Y-30.661
X73.614Y-41.127
X73.77Y-28.177
X74.142Y-38.643
X74.67Y-36.158
X75.198Y-33.674
X75.726Y-31.189
X76.255Y-28.705
X70.5Y-47.11
X70.5Y-61.61
X73.0Y-47.11
X75.5Y-47.11
X75.5Y-61.61
X87.741Y-31.202
X90.226Y-31.73
X92.71Y-32.258
X95.194Y-32.786
X97.679Y-33.314
X100.163Y-33.842
T6
X100.265Y-63.957
X100.266Y-121.107
T7
X124.777Y-71.279
X131.127Y-68.739
X105.727Y-109.379
X112.078Y-106.839
X105.727Y-90.329
X112.078Y-87.789
X123.507Y-109.379
X126.047Y-115.729
X67.627Y-109.379
X73.977Y-106.839
X67.627Y-71.279
X73.977Y-68.739
X86.677Y-90.329
X93.027Y-87.789
X105.727Y-52.229
X112.078Y-49.689
X87.947Y-136.049
X94.297Y-133.509
X68.897Y-136.049
X75.248Y-133.509
X86.677Y-52.229
X93.027Y-49.689
X105.727Y-128.429
X112.078Y-125.889
X105.727Y-71.279
X112.078Y-68.739
X124.777Y-90.329
X131.127Y-87.789
X124.777Y-52.229
X131.127Y-49.689
X131.127Y-117.634
X133.667Y-123.984
X86.677Y-109.379
X93.027Y-106.839
X77.153Y-128.429
X83.502Y-125.889
X67.627Y-90.329
X73.977Y-87.789
X123.507Y-128.429
X126.047Y-134.779
X86.677Y-71.279
X93.027Y-68.739
T8
X66.358Y-111.919
X76.517Y-111.919
X66.358Y-73.819
X76.517Y-73.819
X85.407Y-92.869
X95.567Y-92.869
X104.457Y-54.769
X114.617Y-54.769
X85.407Y-130.969
X95.567Y-130.969
X66.358Y-130.969
X76.517Y-130.969
X85.407Y-54.769
X95.567Y-54.769
X104.457Y-130.969
X114.617Y-130.969
X104.457Y-73.819
X114.617Y-73.819
X123.507Y-92.869
X133.667Y-92.869
X123.507Y-54.769
X133.667Y-54.769
X128.588Y-116.364
X128.588Y-126.524
X85.407Y-111.919
X95.567Y-111.919
X75.882Y-130.969
X86.042Y-130.969
X66.358Y-92.869
X76.517Y-92.869
X128.588Y-125.889
X128.588Y-136.049
X85.407Y-73.819
X95.567Y-73.819
X123.507Y-73.819
X133.667Y-73.819
X104.457Y-111.919
X114.617Y-111.919
X104.457Y-92.869
X114.617Y-92.869
X128.588Y-106.839
X128.588Y-116.999
T9
X69.025Y-137.954
X92.9Y-137.954
X135.572Y-109.506
X135.572Y-133.382
T10
X71.438Y-73.819
X90.487Y-92.869
X109.537Y-54.769
X90.487Y-130.969
X71.438Y-130.969
X69.025Y-122.714
X92.9Y-122.714
X90.487Y-54.769
X109.537Y-130.969
X109.537Y-73.819
X128.588Y-92.869
X128.588Y-54.769
X128.588Y-121.444
X90.487Y-111.919
X80.962Y-130.969
X120.332Y-109.506
X120.332Y-133.382
X71.438Y-92.869
X128.588Y-130.969
X90.487Y-73.819
X128.588Y-73.819
X109.537Y-111.919
X109.537Y-92.869
X128.588Y-111.919
X71.438Y-111.919
T5
G00X67.4Y-53.96
M15
G01X67.4Y-55.26
M16
G05
G00X78.6Y-53.96
M15
G01X78.6Y-55.26
M16
G05
T0
M30
