<?xml version="1.0" encoding="UTF-8" standalone="no"?>
<!DOCTYPE svg PUBLIC "-//W3C//DTD SVG 1.1//EN" "http://www.w3.org/Graphics/SVG/1.1/DTD/svg11.dtd">
<svg width="100%" height="100%" viewBox="0 0 1123 794" version="1.1" xmlns="http://www.w3.org/2000/svg" xmlns:xlink="http://www.w3.org/1999/xlink" xml:space="preserve" xmlns:serif="http://www.serif.com/" style="fill-rule:evenodd;clip-rule:evenodd;stroke-linejoin:round;stroke-miterlimit:1.5;">
    <g transform="matrix(0.32,0,0,0.32,0,0)">
        <g id="keyplate">
            <path d="M725.604,632.748C724.734,632.934 724.111,633.702 724.109,634.592C724.066,652.222 723.663,817.103 723.615,836.668C723.614,837.17 723.812,837.652 724.167,838.007C724.521,838.363 725.003,838.562 725.505,838.562C732.758,838.562 758.684,838.562 765.27,838.562C766.162,838.562 766.933,839.186 767.119,840.059C770.952,858.092 808.15,1033.09 809.28,1038.41C809.297,1038.49 809.309,1038.58 809.316,1038.66C809.964,1047.2 843.383,1487.32 845.756,1518.56C845.831,1519.55 846.652,1520.31 847.64,1520.31C862.061,1520.31 960.754,1520.31 965.006,1520.31C965.1,1520.31 965.194,1520.3 965.287,1520.29C977.193,1518.5 1744.63,1402.86 1784.34,1396.88C1785.26,1396.74 1785.95,1395.95 1785.95,1395.02C1786.01,1386.61 1786.29,1348.06 1786.3,1346.03C1786.3,1345.97 1786.3,1345.92 1786.3,1345.86C1785.5,1336.13 1715.54,477.267 1711.67,429.796C1711.63,429.27 1711.81,428.749 1712.16,428.361C1712.52,427.973 1713.03,427.752 1713.55,427.752C1728.33,427.752 1818.36,427.752 1832.58,427.752C1833.62,427.752 1834.47,426.906 1834.47,425.862C1834.47,404.164 1834.47,202.513 1834.47,180.815C1834.47,179.771 1833.62,178.925 1832.58,178.925C1809.22,178.925 1576.99,178.925 1569.68,178.925C1569.56,178.925 1569.45,178.936 1569.33,178.958C1557.38,181.211 931.435,299.186 905.494,304.075C904.966,304.175 904.506,304.494 904.228,304.953C901.219,309.92 883.621,338.979 880.783,343.665C880.535,344.075 880.452,344.563 880.55,345.032C883.457,358.873 926.8,565.24 931.36,586.949C931.574,587.968 930.923,588.968 929.904,589.185C910.452,593.333 743.179,629.001 725.604,632.748ZM870.609,1496.42C864.074,1496.42 858.777,1491.13 858.777,1484.61C858.777,1478.09 864.074,1472.8 870.609,1472.8C877.102,1472.8 882.399,1478.09 882.399,1484.61C882.399,1491.13 877.102,1496.42 870.609,1496.42ZM935.144,1322.97L932.779,1311.84L970.904,1303.74L973.269,1314.86L1209.99,1264.55L1207.62,1253.42L1245.75,1245.32L1248.11,1256.44L1282.21,1249.46L1316.59,1411.2L934.645,1492.13L900.265,1330.38L935.144,1322.97ZM1502.16,1202.44L1536.54,1364.18L1374.8,1398.57L1340.42,1236.82L1502.16,1202.44ZM1759.61,1388.88C1753.07,1388.88 1747.78,1383.6 1747.78,1377.07C1747.78,1370.55 1753.07,1365.26 1759.61,1365.26C1766.1,1365.26 1771.4,1370.55 1771.4,1377.07C1771.4,1383.6 1766.1,1388.88 1759.61,1388.88ZM1587.23,1317.03L1576.11,1319.4L1568,1281.27L1579.13,1278.91L1528.81,1042.19L1517.69,1044.55L1509.58,1006.43L1520.71,1004.06L1513.72,969.964L1675.47,935.584L1756.39,1317.53L1594.64,1351.91L1587.23,1317.03ZM1015.25,1076.08L1049.63,1237.82L887.885,1272.2L853.505,1110.46L1015.25,1076.08ZM1235.33,1029.3L1269.71,1191.04L1107.97,1225.42L1073.59,1063.68L1235.33,1029.3ZM1307.19,1221.15C1300.66,1221.15 1295.36,1215.87 1295.36,1209.34C1295.36,1202.82 1300.66,1197.53 1307.19,1197.53C1313.68,1197.53 1318.98,1202.82 1318.98,1209.34C1318.98,1215.87 1313.68,1221.15 1307.19,1221.15ZM1455.42,982.515L1489.8,1144.26L1328.05,1178.64L1293.67,1016.9L1455.42,982.515ZM968.437,855.834L1002.82,1017.58L841.071,1051.96L806.691,890.214L968.437,855.834ZM1188.52,809.054L1222.9,970.8L1061.15,1005.18L1026.77,843.434L1188.52,809.054ZM1408.6,762.274L1442.98,924.02L1281.24,958.4L1246.86,796.654L1408.6,762.274ZM1628.68,715.494L1663.06,877.24L1501.32,911.62L1466.94,749.874L1628.68,715.494ZM921.691,635.911L956.071,797.656L794.325,832.037L759.945,670.291L921.691,635.911ZM1141.77,589.131L1176.15,750.876L1014.41,785.257L980.027,623.511L1141.77,589.131ZM1361.86,542.351L1396.24,704.096L1234.49,738.477L1200.11,576.731L1361.86,542.351ZM1581.94,495.571L1616.32,657.317L1454.57,691.697L1420.19,529.951L1581.94,495.571ZM1094.96,368.889L1129.34,530.635L967.594,565.015L933.214,403.269L1094.96,368.889ZM1166.84,560.907C1160.3,560.907 1155.01,555.624 1155.01,549.093C1155.01,542.576 1160.3,537.284 1166.84,537.284C1173.33,537.284 1178.63,542.576 1178.63,549.093C1178.63,555.624 1173.33,560.907 1166.84,560.907ZM1315.04,322.109L1349.42,483.855L1187.68,518.235L1153.3,356.489L1315.04,322.109ZM1535.12,275.329L1569.51,437.075L1407.76,471.455L1373.38,309.709L1535.12,275.329ZM923.966,350.927C917.431,350.927 912.134,345.644 912.134,339.114C912.134,332.596 917.431,327.305 923.966,327.305C930.459,327.305 935.756,332.596 935.756,339.114C935.756,345.644 930.459,350.927 923.966,350.927ZM1611.66,258.553C1605.12,258.553 1599.83,253.27 1599.83,246.739C1599.83,240.222 1605.12,234.931 1611.66,234.931C1618.15,234.931 1623.45,240.222 1623.45,246.739C1623.45,253.27 1618.15,258.553 1611.66,258.553Z" style="fill:rgb(0,185,250);fill-opacity:0.27;stroke:rgb(4,141,255);stroke-width:0.94px;"/>
        </g>
    </g>
</svg>
