  0
SECTION
  2
HEADER
  9
$ACADVER
  1
AC1014
  9
$HANDSEED
  5
FFFF
  9
$MEASUREMENT
 70
     1
  0
ENDSEC
  0
SECTION
  2
TABLES
  0
TABLE
  2
VPORT
  5
8
330
0
100
AcDbSymbolTable
 70
     4
  0
VPORT
  5
2E
330
8
100
AcDbSymbolTableRecord
100
AcDbViewportTableRecord
  2
*ACTIVE
 70
     0
 10
0.0
 20
0.0
 11
1.0
 21
1.0
 12
210.0
 22
148.5
 13
0.0
 23
0.0
 14
10.0
 24
10.0
 15
10.0
 25
10.0
 16
0.0
 26
0.0
 36
1.0
 17
0.0
 27
0.0
 37
0.0
 40
341.0
 41
1.24
 42
50.0
 43
0.0
 44
0.0
 50
0.0
 51
0.0
 71
     0
 72
   100
 73
     1
 74
     3
 75
     0
 76
     0
 77
     0
 78
     0
  0
ENDTAB
  0
TABLE
  2
LTYPE
  5
5
330
0
100
AcDbSymbolTable
 70
     1
  0
LTYPE
  5
14
330
5
100
AcDbSymbolTableRecord
100
AcDbLinetypeTableRecord
  2
BYBLOCK
 70
     0
  3

 72
    65
 73
     0
 40
0.0
  0
LTYPE
  5
15
330
5
100
AcDbSymbolTableRecord
100
AcDbLinetypeTableRecord
  2
BYLAYER
 70
     0
  3

 72
    65
 73
     0
 40
0.0
  0
LTYPE
  5
16
330
5
100
AcDbSymbolTableRecord
100
AcDbLinetypeTableRecord
  2
CONTINUOUS
 70
     0
  3
Solid line
 72
    65
 73
     0
 40
0.0
  0
ENDTAB
  0
TABLE
  2
LAYER
  5
2
100
AcDbSymbolTable
 70
1
  0
LAYER
  5
50
100
AcDbSymbolTableRecord
100
AcDbLayerTableRecord
  2
0
 70
0
  6
CONTINUOUS
  0
ENDTAB
  0
TABLE
  2
STYLE
  5
3
330
0
100
AcDbSymbolTable
 70
     1
  0
STYLE
  5
11
330
3
100
AcDbSymbolTableRecord
100
AcDbTextStyleTableRecord
  2
STANDARD
 70
     0
 40
0.0
 41
1.0
 50
0.0
 71
     0
 42
2.5
  3
txt
  4

  0
ENDTAB
  0
TABLE
  2
VIEW
  5
6
330
0
100
AcDbSymbolTable
 70
     0
  0
ENDTAB
  0
TABLE
  2
UCS
  5
7
330
0
100
AcDbSymbolTable
 70
     0
  0
ENDTAB
  0
TABLE
  2
APPID
  5
9
330
0
100
AcDbSymbolTable
 70
     2
  0
APPID
  5
12
330
9
100
AcDbSymbolTableRecord
100
AcDbRegAppTableRecord
  2
ACAD
 70
     0
  0
ENDTAB
  0
TABLE
  2
DIMSTYLE
  5
A
330
0
100
AcDbSymbolTable
 70
     1
  0
DIMSTYLE
105
27
330
A
100
AcDbSymbolTableRecord
100
AcDbDimStyleTableRecord
  2
ISO-25
 70
     0
  3

  4

  5

  6

  7

 40
1.0
 41
2.5
 42
0.625
 43
3.75
 44
1.25
 45
0.0
 46
0.0
 47
0.0
 48
0.0
140
2.5
141
2.5
142
0.0
143
0.03937007874016
144
1.0
145
0.0
146
1.0
147
0.625
 71
     0
 72
     0
 73
     0
 74
     0
 75
     0
 76
     0
 77
     1
 78
     8
170
     0
171
     3
172
     1
173
     0
174
     0
175
     0
176
     0
177
     0
178
     0
270
     2
271
     2
272
     2
273
     2
274
     3
340
11
275
     0
280
     0
281
     0
282
     0
283
     0
284
     8
285
     0
286
     0
287
     3
288
     0
  0
ENDTAB
  0
TABLE
  2
BLOCK_RECORD
  5
1
330
0
100
AcDbSymbolTable
 70
     1
  0
BLOCK_RECORD
  5
1F
330
1
100
AcDbSymbolTableRecord
100
AcDbBlockTableRecord
  2
*MODEL_SPACE
  0
BLOCK_RECORD
  5
1B
330
1
100
AcDbSymbolTableRecord
100
AcDbBlockTableRecord
  2
*PAPER_SPACE
  0
ENDTAB
  0
ENDSEC
  0
SECTION
  2
BLOCKS
  0
BLOCK
  5
20
330
1F
100
AcDbEntity
  8
0
100
AcDbBlockBegin
  2
*MODEL_SPACE
 70
     0
 10
0.0
 20
0.0
 30
0.0
  3
*MODEL_SPACE
  1

  0
ENDBLK
  5
21
330
1F
100
AcDbEntity
  8
0
100
AcDbBlockEnd
  0
BLOCK
  5
1C
330
1B
100
AcDbEntity
 67
     1
  8
0
100
AcDbBlockBegin
  2
*PAPER_SPACE
  1

  0
ENDBLK
  5
1D
330
1B
100
AcDbEntity
 67
     1
  8
0
100
AcDbBlockEnd
  0
ENDSEC
  0
SECTION
  2
ENTITIES
  0
SPLINE
  5
100
100
AcDbEntity
  8
0
 62
4
100
AcDbSpline
 70
8
 71
3
 72
8
 73
4
 74
0
 40
0
 40
0
 40
0
 40
0
 40
1
 40
1
 40
1
 40
1
 10
61.434472
 20
156.506503
 30
0.0
 10
61.360812
 20
156.490755
 30
0.0
 10
61.308065
 20
156.425731
 30
0.0
 10
61.307895
 20
156.350377
 30
0.0
  0
SPLINE
  5
101
100
AcDbEntity
  8
0
 62
4
100
AcDbSpline
 70
8
 71
3
 72
8
 73
4
 74
0
 40
0
 40
0
 40
0
 40
0
 40
1
 40
1
 40
1
 40
1
 10
61.307895
 20
156.350377
 30
0.0
 10
61.304255
 20
154.857704
 30
0.0
 10
61.270134
 20
140.897779
 30
0.0
 10
61.266070
 20
139.241276
 30
0.0
  0
SPLINE
  5
102
100
AcDbEntity
  8
0
 62
4
100
AcDbSpline
 70
8
 71
3
 72
8
 73
4
 74
0
 40
0
 40
0
 40
0
 40
0
 40
1
 40
1
 40
1
 40
1
 10
61.266070
 20
139.241276
 30
0.0
 10
61.265985
 20
139.198773
 30
0.0
 10
61.282749
 20
139.157964
 30
0.0
 10
61.312806
 20
139.127907
 30
0.0
  0
SPLINE
  5
103
100
AcDbEntity
  8
0
 62
4
100
AcDbSpline
 70
8
 71
3
 72
8
 73
4
 74
0
 40
0
 40
0
 40
0
 40
0
 40
1
 40
1
 40
1
 40
1
 10
61.312806
 20
139.127907
 30
0.0
 10
61.342778
 20
139.097766
 30
0.0
 10
61.383587
 20
139.080917
 30
0.0
 10
61.426090
 20
139.080917
 30
0.0
  0
SPLINE
  5
104
100
AcDbEntity
  8
0
 62
4
100
AcDbSpline
 70
8
 71
3
 72
8
 73
4
 74
0
 40
0
 40
0
 40
0
 40
0
 40
1
 40
1
 40
1
 40
1
 10
61.426090
 20
139.080917
 30
0.0
 10
62.131363
 20
139.080917
 30
0.0
 10
64.922400
 20
139.080917
 30
0.0
 10
64.922400
 20
139.080917
 30
0.0
  0
SPLINE
  5
105
100
AcDbEntity
  8
0
 62
4
100
AcDbSpline
 70
8
 71
3
 72
8
 73
4
 74
0
 40
0
 40
0
 40
0
 40
0
 40
1
 40
1
 40
1
 40
1
 10
144.907000
 20
173.862831
 30
0.0
 10
144.907000
 20
173.862831
 30
0.0
 10
153.846107
 20
173.862831
 30
0.0
 10
155.158440
 20
173.862831
 30
0.0
  0
SPLINE
  5
106
100
AcDbEntity
  8
0
 62
4
100
AcDbSpline
 70
8
 71
3
 72
8
 73
4
 74
0
 40
0
 40
0
 40
0
 40
0
 40
1
 40
1
 40
1
 40
1
 10
155.158440
 20
173.862831
 30
0.0
 10
155.246493
 20
173.862831
 30
0.0
 10
155.318460
 20
173.934459
 30
0.0
 10
155.318460
 20
174.022851
 30
0.0
  0
SPLINE
  5
107
100
AcDbEntity
  8
0
 62
4
100
AcDbSpline
 70
8
 71
3
 72
8
 73
4
 74
0
 40
0
 40
0
 40
0
 40
0
 40
1
 40
1
 40
1
 40
1
 10
155.318460
 20
174.022851
 30
0.0
 10
155.318460
 20
175.859948
 30
0.0
 10
155.318460
 20
192.933066
 30
0.0
 10
155.318460
 20
194.770163
 30
0.0
  0
SPLINE
  5
108
100
AcDbEntity
  8
0
 62
4
100
AcDbSpline
 70
8
 71
3
 72
8
 73
4
 74
0
 40
0
 40
0
 40
0
 40
0
 40
1
 40
1
 40
1
 40
1
 10
155.318460
 20
194.770163
 30
0.0
 10
155.318460
 20
194.858555
 30
0.0
 10
155.246493
 20
194.930183
 30
0.0
 10
155.158440
 20
194.930183
 30
0.0
  0
SPLINE
  5
109
100
AcDbEntity
  8
0
 62
4
100
AcDbSpline
 70
8
 71
3
 72
8
 73
4
 74
0
 40
0
 40
0
 40
0
 40
0
 40
1
 40
1
 40
1
 40
1
 10
155.158440
 20
194.930183
 30
0.0
 10
153.148453
 20
194.930183
 30
0.0
 10
132.885180
 20
194.930183
 30
0.0
 10
132.885180
 20
194.930183
 30
0.0
  0
LWPOLYLINE
  5
10a
100
AcDbEntity
  8
0
 62
4
100
AcDbPolyline
 90
7
 70
0
 10
64.922400
 20
139.080917
 30
0.0
 10
68.521241
 20
122.150293
 30
0.0
 10
71.618602
 20
81.359587
 30
0.0
 10
81.715779
 20
81.359587
 30
0.0
 10
151.209587
 20
91.830313
 30
0.0
 10
151.240067
 20
96.122067
 30
0.0
 10
144.907000
 20
173.862831
 30
0.0
  0
SPLINE
  5
10b
100
AcDbEntity
  8
0
 62
4
100
AcDbSpline
 70
8
 71
3
 72
8
 73
4
 74
0
 40
0
 40
0
 40
0
 40
0
 40
1
 40
1
 40
1
 40
1
 10
78.887913
 20
160.228026
 30
0.0
 10
78.887913
 20
160.228026
 30
0.0
 10
63.014606
 20
156.843391
 30
0.0
 10
61.434472
 20
156.506503
 30
0.0
  0
LWPOLYLINE
  5
10c
100
AcDbEntity
  8
0
 62
4
100
AcDbPolyline
 90
4
 70
0
 10
132.885180
 20
194.930183
 30
0.0
 10
76.594970
 20
184.320942
 30
0.0
 10
74.540279
 20
180.928179
 30
0.0
 10
78.887913
 20
160.228026
 30
0.0
  0
SPLINE
  5
10d
100
AcDbEntity
  8
0
 62
4
100
AcDbSpline
 70
8
 71
3
 72
8
 73
4
 74
0
 40
0
 40
0
 40
0
 40
0
 40
1
 40
1
 40
1
 40
1
 10
73.711562
 20
83.382273
 30
0.0
 10
73.158265
 20
83.382273
 30
0.0
 10
72.709786
 20
83.830160
 30
0.0
 10
72.709786
 20
84.382187
 30
0.0
  0
SPLINE
  5
10e
100
AcDbEntity
  8
0
 62
4
100
AcDbSpline
 70
8
 71
3
 72
8
 73
4
 74
0
 40
0
 40
0
 40
0
 40
0
 40
1
 40
1
 40
1
 40
1
 10
72.709786
 20
84.382187
 30
0.0
 10
72.709786
 20
84.934213
 30
0.0
 10
73.158265
 20
85.382100
 30
0.0
 10
73.711562
 20
85.382100
 30
0.0
  0
SPLINE
  5
10f
100
AcDbEntity
  8
0
 62
4
100
AcDbSpline
 70
8
 71
3
 72
8
 73
4
 74
0
 40
0
 40
0
 40
0
 40
0
 40
1
 40
1
 40
1
 40
1
 10
73.711562
 20
85.382100
 30
0.0
 10
74.261303
 20
85.382100
 30
0.0
 10
74.709782
 20
84.934213
 30
0.0
 10
74.709782
 20
84.382187
 30
0.0
  0
SPLINE
  5
110
100
AcDbEntity
  8
0
 62
4
100
AcDbSpline
 70
8
 71
3
 72
8
 73
4
 74
0
 40
0
 40
0
 40
0
 40
0
 40
1
 40
1
 40
1
 40
1
 10
74.709782
 20
84.382187
 30
0.0
 10
74.709782
 20
83.830160
 30
0.0
 10
74.261303
 20
83.382273
 30
0.0
 10
73.711562
 20
83.382273
 30
0.0
  0
LWPOLYLINE
  5
111
100
AcDbEntity
  8
0
 62
4
100
AcDbPolyline
 90
1
 70
1
 10
61.434472
 20
156.506503
 30
0.0
  0
LWPOLYLINE
  5
112
100
AcDbEntity
  8
0
 62
4
100
AcDbPolyline
 90
1
 70
1
 10
73.711562
 20
83.382273
 30
0.0
  0
LWPOLYLINE
  5
113
100
AcDbEntity
  8
0
 62
4
100
AcDbPolyline
 90
13
 70
1
 10
79.175525
 20
98.067707
 30
0.0
 10
78.975289
 20
99.010047
 30
0.0
 10
82.203205
 20
99.695847
 30
0.0
 10
82.403442
 20
98.754353
 30
0.0
 10
102.445820
 20
103.013933
 30
0.0
 10
102.245160
 20
103.956273
 30
0.0
 10
105.473500
 20
104.642073
 30
0.0
 10
105.673313
 20
103.700580
 30
0.0
 10
108.560447
 20
104.291553
 30
0.0
 10
111.471287
 20
90.597567
 30
0.0
 10
79.133277
 20
83.745493
 30
0.0
 10
76.222437
 20
97.440327
 30
0.0
 10
79.175525
 20
98.067707
 30
0.0
  0
SPLINE
  5
114
100
AcDbEntity
  8
0
 62
4
100
AcDbSpline
 70
8
 71
3
 72
8
 73
4
 74
0
 40
0
 40
0
 40
0
 40
0
 40
1
 40
1
 40
1
 40
1
 10
148.980313
 20
92.487327
 30
0.0
 10
148.426593
 20
92.487327
 30
0.0
 10
147.978707
 20
92.934367
 30
0.0
 10
147.978707
 20
93.487240
 30
0.0
  0
SPLINE
  5
115
100
AcDbEntity
  8
0
 62
4
100
AcDbSpline
 70
8
 71
3
 72
8
 73
4
 74
0
 40
0
 40
0
 40
0
 40
0
 40
1
 40
1
 40
1
 40
1
 10
147.978707
 20
93.487240
 30
0.0
 10
147.978707
 20
94.039267
 30
0.0
 10
148.426593
 20
94.487153
 30
0.0
 10
148.980313
 20
94.487153
 30
0.0
  0
SPLINE
  5
116
100
AcDbEntity
  8
0
 62
4
100
AcDbSpline
 70
8
 71
3
 72
8
 73
4
 74
0
 40
0
 40
0
 40
0
 40
0
 40
1
 40
1
 40
1
 40
1
 10
148.980313
 20
94.487153
 30
0.0
 10
149.529800
 20
94.487153
 30
0.0
 10
149.978533
 20
94.039267
 30
0.0
 10
149.978533
 20
93.487240
 30
0.0
  0
SPLINE
  5
117
100
AcDbEntity
  8
0
 62
4
100
AcDbSpline
 70
8
 71
3
 72
8
 73
4
 74
0
 40
0
 40
0
 40
0
 40
0
 40
1
 40
1
 40
1
 40
1
 10
149.978533
 20
93.487240
 30
0.0
 10
149.978533
 20
92.934367
 30
0.0
 10
149.529800
 20
92.487327
 30
0.0
 10
148.980313
 20
92.487327
 30
0.0
  0
LWPOLYLINE
  5
118
100
AcDbEntity
  8
0
 62
4
100
AcDbPolyline
 90
5
 70
1
 10
127.182880
 20
108.272580
 30
0.0
 10
130.093720
 20
94.578593
 30
0.0
 10
116.399733
 20
91.666907
 30
0.0
 10
113.488893
 20
105.361740
 30
0.0
 10
127.182880
 20
108.272580
 30
0.0
  0
LWPOLYLINE
  5
119
100
AcDbEntity
  8
0
 62
4
100
AcDbPolyline
 90
1
 70
1
 10
148.980313
 20
92.487327
 30
0.0
  0
LWPOLYLINE
  5
11a
100
AcDbEntity
  8
0
 62
4
100
AcDbPolyline
 90
13
 70
1
 10
134.385473
 20
98.570627
 30
0.0
 10
133.443980
 20
98.369967
 30
0.0
 10
132.757333
 20
101.598307
 30
0.0
 10
133.699673
 20
101.798120
 30
0.0
 10
129.439247
 20
121.840413
 30
0.0
 10
128.497753
 20
121.640600
 30
0.0
 10
127.811107
 20
124.868093
 30
0.0
 10
128.753447
 20
125.068753
 30
0.0
 10
128.161627
 20
127.955548
 30
0.0
 10
141.856460
 20
130.866388
 30
0.0
 10
148.707687
 20
98.528293
 30
0.0
 10
135.012853
 20
95.617453
 30
0.0
 10
134.385473
 20
98.570627
 30
0.0
  0
LWPOLYLINE
  5
11b
100
AcDbEntity
  8
0
 62
4
100
AcDbPolyline
 90
5
 70
1
 10
85.957833
 20
118.971060
 30
0.0
 10
88.868673
 20
105.277073
 30
0.0
 10
75.174263
 20
102.366233
 30
0.0
 10
72.263423
 20
116.060220
 30
0.0
 10
85.957833
 20
118.971060
 30
0.0
  0
SPLINE
  5
11c
100
AcDbEntity
  8
0
 62
4
100
AcDbSpline
 70
8
 71
3
 72
8
 73
4
 74
0
 40
0
 40
0
 40
0
 40
0
 40
1
 40
1
 40
1
 40
1
 10
110.675420
 20
106.688467
 30
0.0
 10
110.122547
 20
106.688467
 30
0.0
 10
109.673813
 20
107.135507
 30
0.0
 10
109.673813
 20
107.688380
 30
0.0
  0
SPLINE
  5
11d
100
AcDbEntity
  8
0
 62
4
100
AcDbSpline
 70
8
 71
3
 72
8
 73
4
 74
0
 40
0
 40
0
 40
0
 40
0
 40
1
 40
1
 40
1
 40
1
 10
109.673813
 20
107.688380
 30
0.0
 10
109.673813
 20
108.240407
 30
0.0
 10
110.122547
 20
108.688293
 30
0.0
 10
110.675420
 20
108.688293
 30
0.0
  0
SPLINE
  5
11e
100
AcDbEntity
  8
0
 62
4
100
AcDbSpline
 70
8
 71
3
 72
8
 73
4
 74
0
 40
0
 40
0
 40
0
 40
0
 40
1
 40
1
 40
1
 40
1
 10
110.675420
 20
108.688293
 30
0.0
 10
111.224907
 20
108.688293
 30
0.0
 10
111.673640
 20
108.240407
 30
0.0
 10
111.673640
 20
107.688380
 30
0.0
  0
SPLINE
  5
11f
100
AcDbEntity
  8
0
 62
4
100
AcDbSpline
 70
8
 71
3
 72
8
 73
4
 74
0
 40
0
 40
0
 40
0
 40
0
 40
1
 40
1
 40
1
 40
1
 10
111.673640
 20
107.688380
 30
0.0
 10
111.673640
 20
107.135507
 30
0.0
 10
111.224907
 20
106.688467
 30
0.0
 10
110.675420
 20
106.688467
 30
0.0
  0
LWPOLYLINE
  5
120
100
AcDbEntity
  8
0
 62
4
100
AcDbPolyline
 90
5
 70
1
 10
104.591273
 20
122.931767
 30
0.0
 10
107.502113
 20
109.237780
 30
0.0
 10
93.808127
 20
106.326940
 30
0.0
 10
90.897287
 20
120.020927
 30
0.0
 10
104.591273
 20
122.931767
 30
0.0
  0
LWPOLYLINE
  5
121
100
AcDbEntity
  8
0
 62
4
100
AcDbPolyline
 90
1
 70
1
 10
110.675420
 20
106.688467
 30
0.0
  0
LWPOLYLINE
  5
122
100
AcDbEntity
  8
0
 62
4
100
AcDbPolyline
 90
5
 70
1
 10
123.225560
 20
126.892897
 30
0.0
 10
126.136400
 20
113.198487
 30
0.0
 10
112.441567
 20
110.287647
 30
0.0
 10
109.530727
 20
123.981633
 30
0.0
 10
123.225560
 20
126.892897
 30
0.0
  0
LWPOLYLINE
  5
123
100
AcDbEntity
  8
0
 62
4
100
AcDbPolyline
 90
5
 70
1
 10
81.994333
 20
137.618555
 30
0.0
 10
84.905427
 20
123.924060
 30
0.0
 10
71.210678
 20
121.013220
 30
0.0
 10
68.299838
 20
134.707715
 30
0.0
 10
81.994333
 20
137.618555
 30
0.0
  0
LWPOLYLINE
  5
124
100
AcDbEntity
  8
0
 62
4
100
AcDbPolyline
 90
5
 70
1
 10
100.628027
 20
141.579261
 30
0.0
 10
103.538867
 20
127.884767
 30
0.0
 10
89.844033
 20
124.973927
 30
0.0
 10
86.933193
 20
138.668421
 30
0.0
 10
100.628027
 20
141.579261
 30
0.0
  0
LWPOLYLINE
  5
125
100
AcDbEntity
  8
0
 62
4
100
AcDbPolyline
 90
5
 70
1
 10
119.261467
 20
145.539968
 30
0.0
 10
122.172307
 20
131.845473
 30
0.0
 10
108.478320
 20
128.934633
 30
0.0
 10
105.567480
 20
142.629128
 30
0.0
 10
119.261467
 20
145.539968
 30
0.0
  0
LWPOLYLINE
  5
126
100
AcDbEntity
  8
0
 62
4
100
AcDbPolyline
 90
5
 70
1
 10
137.894907
 20
149.500675
 30
0.0
 10
140.805747
 20
135.806180
 30
0.0
 10
127.111760
 20
132.895340
 30
0.0
 10
124.200920
 20
146.589835
 30
0.0
 10
137.894907
 20
149.500675
 30
0.0
  0
LWPOLYLINE
  5
127
100
AcDbEntity
  8
0
 62
4
100
AcDbPolyline
 90
5
 70
1
 10
78.036505
 20
156.238702
 30
0.0
 10
80.947345
 20
142.544292
 30
0.0
 10
67.252850
 20
139.633367
 30
0.0
 10
64.342010
 20
153.327862
 30
0.0
 10
78.036505
 20
156.238702
 30
0.0
  0
LWPOLYLINE
  5
128
100
AcDbEntity
  8
0
 62
4
100
AcDbPolyline
 90
5
 70
1
 10
96.669860
 20
160.199409
 30
0.0
 10
99.580700
 20
146.504999
 30
0.0
 10
85.886713
 20
143.594074
 30
0.0
 10
82.975619
 20
157.288569
 30
0.0
 10
96.669860
 20
160.199409
 30
0.0
  0
LWPOLYLINE
  5
129
100
AcDbEntity
  8
0
 62
4
100
AcDbPolyline
 90
5
 70
1
 10
115.304147
 20
164.160115
 30
0.0
 10
118.214987
 20
150.465705
 30
0.0
 10
104.520153
 20
147.554781
 30
0.0
 10
101.609313
 20
161.249275
 30
0.0
 10
115.304147
 20
164.160115
 30
0.0
  0
LWPOLYLINE
  5
12a
100
AcDbEntity
  8
0
 62
4
100
AcDbPolyline
 90
5
 70
1
 10
133.937587
 20
168.120822
 30
0.0
 10
136.848427
 20
154.426327
 30
0.0
 10
123.153593
 20
151.515487
 30
0.0
 10
120.242753
 20
165.209982
 30
0.0
 10
133.937587
 20
168.120822
 30
0.0
  0
SPLINE
  5
12b
100
AcDbEntity
  8
0
 62
4
100
AcDbSpline
 70
8
 71
3
 72
8
 73
4
 74
0
 40
0
 40
0
 40
0
 40
0
 40
1
 40
1
 40
1
 40
1
 10
98.792453
 20
162.589041
 30
0.0
 10
98.238733
 20
162.589041
 30
0.0
 10
97.790847
 20
163.036335
 30
0.0
 10
97.790847
 20
163.589293
 30
0.0
  0
SPLINE
  5
12c
100
AcDbEntity
  8
0
 62
4
100
AcDbSpline
 70
8
 71
3
 72
8
 73
4
 74
0
 40
0
 40
0
 40
0
 40
0
 40
1
 40
1
 40
1
 40
1
 10
97.790847
 20
163.589293
 30
0.0
 10
97.790847
 20
164.141065
 30
0.0
 10
98.238733
 20
164.589121
 30
0.0
 10
98.792453
 20
164.589121
 30
0.0
  0
SPLINE
  5
12d
100
AcDbEntity
  8
0
 62
4
100
AcDbSpline
 70
8
 71
3
 72
8
 73
4
 74
0
 40
0
 40
0
 40
0
 40
0
 40
1
 40
1
 40
1
 40
1
 10
98.792453
 20
164.589121
 30
0.0
 10
99.341940
 20
164.589121
 30
0.0
 10
99.790673
 20
164.141065
 30
0.0
 10
99.790673
 20
163.589293
 30
0.0
  0
SPLINE
  5
12e
100
AcDbEntity
  8
0
 62
4
100
AcDbSpline
 70
8
 71
3
 72
8
 73
4
 74
0
 40
0
 40
0
 40
0
 40
0
 40
1
 40
1
 40
1
 40
1
 10
99.790673
 20
163.589293
 30
0.0
 10
99.790673
 20
163.036335
 30
0.0
 10
99.341940
 20
162.589041
 30
0.0
 10
98.792453
 20
162.589041
 30
0.0
  0
LWPOLYLINE
  5
12f
100
AcDbEntity
  8
0
 62
4
100
AcDbPolyline
 90
5
 70
1
 10
92.706613
 20
178.846565
 30
0.0
 10
95.617453
 20
165.152070
 30
0.0
 10
81.922959
 20
162.241230
 30
0.0
 10
79.012119
 20
175.935725
 30
0.0
 10
92.706613
 20
178.846565
 30
0.0
  0
LWPOLYLINE
  5
130
100
AcDbEntity
  8
0
 62
4
100
AcDbPolyline
 90
1
 70
1
 10
98.792453
 20
162.589041
 30
0.0
  0
LWPOLYLINE
  5
131
100
AcDbEntity
  8
0
 62
4
100
AcDbPolyline
 90
5
 70
1
 10
111.340053
 20
182.807271
 30
0.0
 10
114.250893
 20
169.112777
 30
0.0
 10
100.556907
 20
166.201937
 30
0.0
 10
97.646067
 20
179.896431
 30
0.0
 10
111.340053
 20
182.807271
 30
0.0
  0
SPLINE
  5
132
100
AcDbEntity
  8
0
 62
4
100
AcDbSpline
 70
8
 71
3
 72
8
 73
4
 74
0
 40
0
 40
0
 40
0
 40
0
 40
1
 40
1
 40
1
 40
1
 10
78.229121
 20
180.367347
 30
0.0
 10
77.675825
 20
180.367347
 30
0.0
 10
77.227345
 20
180.814641
 30
0.0
 10
77.227345
 20
181.367515
 30
0.0
  0
SPLINE
  5
133
100
AcDbEntity
  8
0
 62
4
100
AcDbSpline
 70
8
 71
3
 72
8
 73
4
 74
0
 40
0
 40
0
 40
0
 40
0
 40
1
 40
1
 40
1
 40
1
 10
77.227345
 20
181.367515
 30
0.0
 10
77.227345
 20
181.919372
 30
0.0
 10
77.675825
 20
182.367343
 30
0.0
 10
78.229121
 20
182.367343
 30
0.0
  0
SPLINE
  5
134
100
AcDbEntity
  8
0
 62
4
100
AcDbSpline
 70
8
 71
3
 72
8
 73
4
 74
0
 40
0
 40
0
 40
0
 40
0
 40
1
 40
1
 40
1
 40
1
 10
78.229121
 20
182.367343
 30
0.0
 10
78.778862
 20
182.367343
 30
0.0
 10
79.227341
 20
181.919372
 30
0.0
 10
79.227341
 20
181.367515
 30
0.0
  0
SPLINE
  5
135
100
AcDbEntity
  8
0
 62
4
100
AcDbSpline
 70
8
 71
3
 72
8
 73
4
 74
0
 40
0
 40
0
 40
0
 40
0
 40
1
 40
1
 40
1
 40
1
 10
79.227341
 20
181.367515
 30
0.0
 10
79.227341
 20
180.814641
 30
0.0
 10
78.778862
 20
180.367347
 30
0.0
 10
78.229121
 20
180.367347
 30
0.0
  0
LWPOLYLINE
  5
136
100
AcDbEntity
  8
0
 62
4
100
AcDbPolyline
 90
5
 70
1
 10
129.973493
 20
186.767978
 30
0.0
 10
132.885180
 20
173.073483
 30
0.0
 10
119.190347
 20
170.162643
 30
0.0
 10
116.279507
 20
183.857138
 30
0.0
 10
129.973493
 20
186.767978
 30
0.0
  0
SPLINE
  5
137
100
AcDbEntity
  8
0
 62
4
100
AcDbSpline
 70
8
 71
3
 72
8
 73
4
 74
0
 40
0
 40
0
 40
0
 40
0
 40
1
 40
1
 40
1
 40
1
 10
136.453880
 20
188.188346
 30
0.0
 10
135.900160
 20
188.188346
 30
0.0
 10
135.452273
 20
188.635640
 30
0.0
 10
135.452273
 20
189.188598
 30
0.0
  0
SPLINE
  5
138
100
AcDbEntity
  8
0
 62
4
100
AcDbSpline
 70
8
 71
3
 72
8
 73
4
 74
0
 40
0
 40
0
 40
0
 40
0
 40
1
 40
1
 40
1
 40
1
 10
135.452273
 20
189.188598
 30
0.0
 10
135.452273
 20
189.740371
 30
0.0
 10
135.900160
 20
190.188342
 30
0.0
 10
136.453880
 20
190.188342
 30
0.0
  0
SPLINE
  5
139
100
AcDbEntity
  8
0
 62
4
100
AcDbSpline
 70
8
 71
3
 72
8
 73
4
 74
0
 40
0
 40
0
 40
0
 40
0
 40
1
 40
1
 40
1
 40
1
 10
136.453880
 20
190.188342
 30
0.0
 10
137.003367
 20
190.188342
 30
0.0
 10
137.452100
 20
189.740371
 30
0.0
 10
137.452100
 20
189.188598
 30
0.0
  0
SPLINE
  5
13a
100
AcDbEntity
  8
0
 62
4
100
AcDbSpline
 70
8
 71
3
 72
8
 73
4
 74
0
 40
0
 40
0
 40
0
 40
0
 40
1
 40
1
 40
1
 40
1
 10
137.452100
 20
189.188598
 30
0.0
 10
137.452100
 20
188.635640
 30
0.0
 10
137.003367
 20
188.188346
 30
0.0
 10
136.453880
 20
188.188346
 30
0.0
  0
LWPOLYLINE
  5
13b
100
AcDbEntity
  8
0
 62
4
100
AcDbPolyline
 90
1
 70
1
 10
78.229121
 20
180.367347
 30
0.0
  0
LWPOLYLINE
  5
13c
100
AcDbEntity
  8
0
 62
4
100
AcDbPolyline
 90
1
 70
1
 10
136.453880
 20
188.188346
 30
0.0
  0
ENDSEC
  0
SECTION
  2
OBJECTS
  0
DICTIONARY
  5
C
330
0
100
AcDbDictionary
  3
ACAD_GROUP
350
D
  3
ACAD_MLINESTYLE
350
17
  0
DICTIONARY
  5
D
330
C
100
AcDbDictionary
  0
DICTIONARY
  5
1A
330
C
100
AcDbDictionary
  0
DICTIONARY
  5
17
330
C
100
AcDbDictionary
  3
STANDARD
350
18
  0
DICTIONARY
  5
19
330
C
100
AcDbDictionary
  0
ENDSEC
  0
EOF
