G04 #@! TF.GenerationSoftware,KiCad,Pcbnew,(5.1.5-0-10_14)*
G04 #@! TF.CreationDate,2020-04-18T18:34:13+09:00*
G04 #@! TF.ProjectId,colice_pcb_left_keyplate,636f6c69-6365-45f7-9063-625f6c656674,rev?*
G04 #@! TF.SameCoordinates,Original*
G04 #@! TF.FileFunction,Copper,L2,Bot*
G04 #@! TF.FilePolarity,Positive*
%FSLAX46Y46*%
G04 Gerber Fmt 4.6, Leading zero omitted, Abs format (unit mm)*
G04 Created by KiCad (PCBNEW (5.1.5-0-10_14)) date 2020-04-18 18:34:13*
%MOMM*%
%LPD*%
G04 APERTURE LIST*
%ADD10C,0.254000*%
G04 APERTURE END LIST*
D10*
G36*
X26673665Y-21278907D02*
G01*
X26670109Y-21315012D01*
X26684300Y-21459097D01*
X26726328Y-21597645D01*
X26794578Y-21725332D01*
X26886427Y-21837250D01*
X26998345Y-21929099D01*
X27126032Y-21997349D01*
X27264580Y-22039377D01*
X27408665Y-22053568D01*
X27444770Y-22050012D01*
X183036982Y-22050012D01*
X183073087Y-22053568D01*
X183109192Y-22050012D01*
X183217172Y-22039377D01*
X183355720Y-21997349D01*
X183483407Y-21929099D01*
X183595325Y-21837250D01*
X183687174Y-21725332D01*
X183755424Y-21597645D01*
X183797452Y-21459097D01*
X183811643Y-21315012D01*
X183808087Y-21278907D01*
X183808087Y-19130500D01*
X185447360Y-19130500D01*
X185447360Y-19467340D01*
X185513074Y-19797709D01*
X185641978Y-20108909D01*
X185829116Y-20388981D01*
X186067299Y-20627164D01*
X186347371Y-20814302D01*
X186658571Y-20943206D01*
X186988940Y-21008920D01*
X187325780Y-21008920D01*
X187656149Y-20943206D01*
X187967349Y-20814302D01*
X188247421Y-20627164D01*
X188485604Y-20388981D01*
X188672742Y-20108909D01*
X188801646Y-19797709D01*
X188867360Y-19467340D01*
X188867360Y-19130500D01*
X188801646Y-18800131D01*
X188672742Y-18488931D01*
X188485604Y-18208859D01*
X188247421Y-17970676D01*
X187967349Y-17783538D01*
X187656149Y-17654634D01*
X187325780Y-17588920D01*
X186988940Y-17588920D01*
X186658571Y-17654634D01*
X186347371Y-17783538D01*
X186067299Y-17970676D01*
X185829116Y-18208859D01*
X185641978Y-18488931D01*
X185513074Y-18800131D01*
X185447360Y-19130500D01*
X183808087Y-19130500D01*
X183808087Y-17525252D01*
X190484890Y-17525252D01*
X190484889Y-21302558D01*
X190482856Y-21362410D01*
X190490742Y-21410541D01*
X190495524Y-21459096D01*
X190502424Y-21481841D01*
X190506265Y-21505287D01*
X190523389Y-21550953D01*
X190537552Y-21597644D01*
X190548756Y-21618606D01*
X190557098Y-21640852D01*
X190582802Y-21682301D01*
X190605802Y-21725331D01*
X190620880Y-21743703D01*
X190633402Y-21763896D01*
X190666702Y-21799538D01*
X190697651Y-21837249D01*
X190743966Y-21875259D01*
X200005603Y-30017655D01*
X200005602Y-50836044D01*
X190475033Y-95673105D01*
X190463099Y-95712447D01*
X190462975Y-95713709D01*
X190462614Y-95714913D01*
X190456338Y-95780939D01*
X190448972Y-95846862D01*
X190449384Y-95851696D01*
X190448908Y-95856532D01*
X190449032Y-95857792D01*
X190448913Y-95859044D01*
X190455638Y-95925021D01*
X190461275Y-95991120D01*
X190462623Y-95995782D01*
X190463099Y-96000617D01*
X190463466Y-96001828D01*
X190463594Y-96003080D01*
X190483067Y-96066498D01*
X190501486Y-96130207D01*
X190503716Y-96134514D01*
X190505127Y-96139165D01*
X190505723Y-96140280D01*
X190506093Y-96141485D01*
X190537572Y-96199899D01*
X190568058Y-96258776D01*
X190571086Y-96262566D01*
X190573377Y-96266852D01*
X190597191Y-96295869D01*
X194935761Y-102741421D01*
X184846998Y-152906753D01*
X184837244Y-152937449D01*
X184832763Y-152977535D01*
X184831960Y-152981527D01*
X184828748Y-153013452D01*
X184821159Y-153081335D01*
X184821507Y-153085414D01*
X184821097Y-153089485D01*
X184827650Y-153157492D01*
X184833455Y-153225594D01*
X184834592Y-153229526D01*
X184834984Y-153233598D01*
X184854677Y-153299014D01*
X184873658Y-153364683D01*
X184875540Y-153368318D01*
X184876719Y-153372235D01*
X184908802Y-153432565D01*
X184940223Y-153493255D01*
X184942777Y-153496452D01*
X184944699Y-153500066D01*
X184987942Y-153552986D01*
X185030592Y-153606371D01*
X185033721Y-153609009D01*
X185036311Y-153612178D01*
X185089051Y-153655647D01*
X185141294Y-153699684D01*
X185144877Y-153701660D01*
X185148035Y-153704263D01*
X185208233Y-153736603D01*
X185268072Y-153769607D01*
X185271972Y-153770846D01*
X185275577Y-153772783D01*
X185340890Y-153792746D01*
X185371479Y-153802466D01*
X185375462Y-153803313D01*
X185414036Y-153815103D01*
X185446081Y-153818328D01*
X188906322Y-154554032D01*
X188657451Y-155725089D01*
X188480524Y-155460299D01*
X188242341Y-155222116D01*
X187962269Y-155034978D01*
X187651069Y-154906074D01*
X187320700Y-154840360D01*
X186983860Y-154840360D01*
X186653491Y-154906074D01*
X186342291Y-155034978D01*
X186062219Y-155222116D01*
X185824036Y-155460299D01*
X185636898Y-155740371D01*
X185507994Y-156051571D01*
X185442280Y-156381940D01*
X185442280Y-156718780D01*
X185507994Y-157049149D01*
X185636898Y-157360349D01*
X185824036Y-157640421D01*
X186062219Y-157878604D01*
X186342291Y-158065742D01*
X186653491Y-158194646D01*
X186983860Y-158260360D01*
X187320700Y-158260360D01*
X187651069Y-158194646D01*
X187962269Y-158065742D01*
X188192748Y-157911741D01*
X187963323Y-158991299D01*
X177963025Y-158991299D01*
X178018392Y-158975292D01*
X178080388Y-158943190D01*
X178146961Y-158908719D01*
X178260072Y-158818343D01*
X178310704Y-158758269D01*
X178353378Y-158707637D01*
X178378229Y-158662572D01*
X178423294Y-158580854D01*
X178467131Y-158442868D01*
X178471160Y-158406811D01*
X181903368Y-142259615D01*
X181914353Y-142225037D01*
X181930429Y-142081150D01*
X181918125Y-141936891D01*
X181877914Y-141797805D01*
X181811341Y-141669236D01*
X181720965Y-141556125D01*
X181610258Y-141462819D01*
X181483476Y-141392904D01*
X181380067Y-141360051D01*
X181380059Y-141360049D01*
X181345491Y-141349067D01*
X181309443Y-141345040D01*
X140338098Y-132636328D01*
X140303516Y-132625341D01*
X140159629Y-132609265D01*
X140015370Y-132621569D01*
X139876283Y-132661780D01*
X139747715Y-132728353D01*
X139634604Y-132818728D01*
X139541297Y-132929435D01*
X139471382Y-133056217D01*
X139438529Y-133159626D01*
X139438527Y-133159637D01*
X139427545Y-133194204D01*
X139423518Y-133230247D01*
X135991309Y-149377463D01*
X135980326Y-149412035D01*
X135976298Y-149448083D01*
X135976297Y-149448090D01*
X135964250Y-149555921D01*
X135976553Y-149700179D01*
X136016764Y-149839266D01*
X136083337Y-149967835D01*
X136173713Y-150080946D01*
X136284419Y-150174252D01*
X136329484Y-150199103D01*
X136411202Y-150244168D01*
X136494400Y-150270599D01*
X136549188Y-150288005D01*
X136585246Y-150292034D01*
X177512141Y-158991299D01*
X169118145Y-158991299D01*
X119653628Y-148524701D01*
X119614612Y-148512866D01*
X119546974Y-148506204D01*
X119479517Y-148498730D01*
X119438909Y-148502231D01*
X27270290Y-148502231D01*
X27234185Y-148498675D01*
X27198080Y-148502231D01*
X27090100Y-148512866D01*
X26951552Y-148554894D01*
X26823865Y-148623144D01*
X26711947Y-148714993D01*
X26620098Y-148826911D01*
X26551848Y-148954598D01*
X26509820Y-149093146D01*
X26495629Y-149237231D01*
X26499186Y-149273346D01*
X26499185Y-151847972D01*
X24439097Y-151848866D01*
X24613549Y-151814166D01*
X24924749Y-151685262D01*
X25204821Y-151498124D01*
X25443004Y-151259941D01*
X25630142Y-150979869D01*
X25759046Y-150668669D01*
X25824760Y-150338300D01*
X25824760Y-150001460D01*
X25759046Y-149671091D01*
X25630142Y-149359891D01*
X25443004Y-149079819D01*
X25204821Y-148841636D01*
X24924749Y-148654498D01*
X24613549Y-148525594D01*
X24283180Y-148459880D01*
X23946340Y-148459880D01*
X23615971Y-148525594D01*
X23304771Y-148654498D01*
X23024699Y-148841636D01*
X22786516Y-149079819D01*
X22599378Y-149359891D01*
X22470474Y-149671091D01*
X22404760Y-150001460D01*
X22404760Y-150338300D01*
X22470474Y-150668669D01*
X22599378Y-150979869D01*
X22786516Y-151259941D01*
X23024699Y-151498124D01*
X23304771Y-151685262D01*
X23615971Y-151814166D01*
X23791836Y-151849147D01*
X21743201Y-151850037D01*
X21743201Y-149301204D01*
X21745000Y-149290542D01*
X21743201Y-149228935D01*
X21743201Y-149203530D01*
X21742147Y-149192824D01*
X21740774Y-149145821D01*
X21735068Y-149120951D01*
X21732566Y-149095550D01*
X21718912Y-149050539D01*
X21708396Y-149004706D01*
X21697947Y-148981425D01*
X21690538Y-148957002D01*
X21668369Y-148915527D01*
X21649110Y-148872618D01*
X21634317Y-148851820D01*
X21622288Y-148829315D01*
X21592455Y-148792963D01*
X21565193Y-148754635D01*
X21546625Y-148737121D01*
X21530438Y-148717397D01*
X21494090Y-148687567D01*
X21486264Y-148680185D01*
X21466165Y-148664649D01*
X21418520Y-148625548D01*
X21408984Y-148620451D01*
X18551079Y-146411416D01*
X18390537Y-127183034D01*
X24006219Y-127183034D01*
X24009776Y-127219149D01*
X24009775Y-143771877D01*
X24006219Y-143807982D01*
X24020410Y-143952067D01*
X24062438Y-144090615D01*
X24130688Y-144218302D01*
X24222537Y-144330220D01*
X24334455Y-144422069D01*
X24462142Y-144490319D01*
X24600690Y-144532347D01*
X24744775Y-144546538D01*
X24780880Y-144542982D01*
X72309775Y-144542982D01*
X72345880Y-144546538D01*
X72381985Y-144542982D01*
X72489965Y-144532347D01*
X72628513Y-144490319D01*
X72756200Y-144422069D01*
X72868118Y-144330220D01*
X72910354Y-144278755D01*
X111137089Y-144278755D01*
X111149392Y-144423013D01*
X111189603Y-144562100D01*
X111198853Y-144579963D01*
X111256176Y-144690669D01*
X111346552Y-144803780D01*
X111406626Y-144854412D01*
X111457258Y-144897086D01*
X111502323Y-144921937D01*
X111584041Y-144967002D01*
X111667239Y-144993433D01*
X111722027Y-145010839D01*
X111758085Y-145014868D01*
X127905336Y-148447066D01*
X127939905Y-148458049D01*
X127975953Y-148462077D01*
X127975960Y-148462078D01*
X128068395Y-148472405D01*
X128083791Y-148474125D01*
X128083792Y-148474125D01*
X128228050Y-148461822D01*
X128367137Y-148421611D01*
X128495705Y-148355038D01*
X128608816Y-148264662D01*
X128702123Y-148153955D01*
X128772038Y-148027173D01*
X128815876Y-147889187D01*
X128819905Y-147853123D01*
X132151496Y-132179285D01*
X162722013Y-132179285D01*
X162734316Y-132323543D01*
X162774527Y-132462630D01*
X162783777Y-132480493D01*
X162841100Y-132591199D01*
X162931476Y-132704310D01*
X162991550Y-132754942D01*
X163042182Y-132797616D01*
X163080466Y-132818728D01*
X163168965Y-132867532D01*
X163252163Y-132893963D01*
X163306951Y-132911369D01*
X163343009Y-132915398D01*
X179490260Y-136347596D01*
X179524829Y-136358579D01*
X179560877Y-136362607D01*
X179560884Y-136362608D01*
X179653319Y-136372935D01*
X179668715Y-136374655D01*
X179668716Y-136374655D01*
X179812974Y-136362352D01*
X179952061Y-136322141D01*
X180080629Y-136255568D01*
X180193740Y-136165192D01*
X180287047Y-136054485D01*
X180356962Y-135927703D01*
X180400800Y-135789717D01*
X180404829Y-135753653D01*
X181962227Y-128426700D01*
X184329760Y-128426700D01*
X184329760Y-128763540D01*
X184395474Y-129093909D01*
X184524378Y-129405109D01*
X184711516Y-129685181D01*
X184949699Y-129923364D01*
X185229771Y-130110502D01*
X185540971Y-130239406D01*
X185871340Y-130305120D01*
X186208180Y-130305120D01*
X186538549Y-130239406D01*
X186849749Y-130110502D01*
X187129821Y-129923364D01*
X187368004Y-129685181D01*
X187555142Y-129405109D01*
X187684046Y-129093909D01*
X187749760Y-128763540D01*
X187749760Y-128426700D01*
X187684046Y-128096331D01*
X187555142Y-127785131D01*
X187368004Y-127505059D01*
X187129821Y-127266876D01*
X186849749Y-127079738D01*
X186538549Y-126950834D01*
X186208180Y-126885120D01*
X185871340Y-126885120D01*
X185540971Y-126950834D01*
X185229771Y-127079738D01*
X184949699Y-127266876D01*
X184711516Y-127505059D01*
X184524378Y-127785131D01*
X184395474Y-128096331D01*
X184329760Y-128426700D01*
X181962227Y-128426700D01*
X183837035Y-119606463D01*
X183848020Y-119571885D01*
X183863500Y-119433326D01*
X186065984Y-119433326D01*
X186078287Y-119577583D01*
X186118498Y-119716670D01*
X186185071Y-119845239D01*
X186275447Y-119958350D01*
X186300379Y-119979363D01*
X186386153Y-120051656D01*
X186512935Y-120121571D01*
X186650921Y-120165409D01*
X186686978Y-120169438D01*
X190091502Y-120893093D01*
X190126072Y-120904076D01*
X190162120Y-120908104D01*
X190162127Y-120908105D01*
X190269959Y-120920152D01*
X190414217Y-120907849D01*
X190553304Y-120867638D01*
X190681873Y-120801065D01*
X190794984Y-120710689D01*
X190809649Y-120693289D01*
X190888290Y-120599983D01*
X190958205Y-120473201D01*
X190991058Y-120369792D01*
X190991059Y-120369788D01*
X191002043Y-120335214D01*
X191006071Y-120299162D01*
X191729729Y-116894643D01*
X191740712Y-116860072D01*
X191744739Y-116824026D01*
X191744741Y-116824018D01*
X191756788Y-116716187D01*
X191755367Y-116699526D01*
X191744485Y-116571926D01*
X191704274Y-116432840D01*
X191637701Y-116304271D01*
X191547325Y-116191160D01*
X191436618Y-116097854D01*
X191309836Y-116027939D01*
X191206427Y-115995086D01*
X191206420Y-115995084D01*
X191171851Y-115984102D01*
X191135801Y-115980074D01*
X187731280Y-115256421D01*
X187696699Y-115245435D01*
X187552812Y-115229359D01*
X187408553Y-115241663D01*
X187269467Y-115281874D01*
X187140898Y-115348446D01*
X187027787Y-115438822D01*
X186934480Y-115549529D01*
X186864565Y-115676311D01*
X186831712Y-115779720D01*
X186831709Y-115779733D01*
X186820728Y-115814298D01*
X186816701Y-115850340D01*
X186093043Y-119254869D01*
X186082060Y-119289439D01*
X186078032Y-119325487D01*
X186078031Y-119325494D01*
X186066579Y-119427998D01*
X186065984Y-119433326D01*
X183863500Y-119433326D01*
X183864096Y-119427998D01*
X183851792Y-119283739D01*
X183811581Y-119144653D01*
X183745008Y-119016084D01*
X183654632Y-118902973D01*
X183543925Y-118809667D01*
X183417143Y-118739752D01*
X183313734Y-118706899D01*
X183313726Y-118706897D01*
X183279158Y-118695915D01*
X183243108Y-118691887D01*
X167095853Y-115259689D01*
X167061280Y-115248705D01*
X167025225Y-115244676D01*
X167025223Y-115244676D01*
X167007092Y-115242650D01*
X166917393Y-115232628D01*
X166773134Y-115244932D01*
X166634047Y-115285143D01*
X166505479Y-115351716D01*
X166392368Y-115442092D01*
X166299061Y-115552798D01*
X166229146Y-115679580D01*
X166196293Y-115782990D01*
X166196291Y-115782998D01*
X166185309Y-115817567D01*
X166181282Y-115853612D01*
X162749072Y-132000826D01*
X162738089Y-132035399D01*
X162734061Y-132071447D01*
X162734060Y-132071454D01*
X162722013Y-132179285D01*
X132151496Y-132179285D01*
X132252111Y-131705933D01*
X132263096Y-131671355D01*
X132279172Y-131527468D01*
X132266868Y-131383209D01*
X132226657Y-131244123D01*
X132160084Y-131115554D01*
X132069708Y-131002443D01*
X131959001Y-130909137D01*
X131832219Y-130839222D01*
X131728810Y-130806369D01*
X131728802Y-130806367D01*
X131694234Y-130795385D01*
X131658184Y-130791357D01*
X116120651Y-127488759D01*
X140654788Y-127488759D01*
X140667091Y-127633017D01*
X140707302Y-127772104D01*
X140751164Y-127856811D01*
X140773875Y-127900673D01*
X140864251Y-128013784D01*
X140920182Y-128060924D01*
X140974957Y-128107090D01*
X141020022Y-128131941D01*
X141101740Y-128177006D01*
X141171563Y-128199188D01*
X141239725Y-128220843D01*
X141275784Y-128224872D01*
X157423035Y-131657071D01*
X157457604Y-131668054D01*
X157493652Y-131672082D01*
X157493659Y-131672083D01*
X157601490Y-131684130D01*
X157745748Y-131671827D01*
X157884835Y-131631616D01*
X157969542Y-131587754D01*
X158013404Y-131565043D01*
X158126515Y-131474667D01*
X158203598Y-131383209D01*
X158219821Y-131363961D01*
X158244672Y-131318896D01*
X158289737Y-131237178D01*
X158333574Y-131099192D01*
X158337602Y-131063138D01*
X161769810Y-114915938D01*
X161780795Y-114881360D01*
X161796871Y-114737473D01*
X161784567Y-114593214D01*
X161744356Y-114454128D01*
X161677783Y-114325559D01*
X161587407Y-114212448D01*
X161476700Y-114119142D01*
X161349918Y-114049227D01*
X161246509Y-114016374D01*
X161246501Y-114016372D01*
X161211933Y-114005390D01*
X161175883Y-114001362D01*
X145028628Y-110569164D01*
X144994055Y-110558180D01*
X144958000Y-110554151D01*
X144957998Y-110554151D01*
X144939867Y-110552125D01*
X144850168Y-110542103D01*
X144705909Y-110554407D01*
X144566822Y-110594618D01*
X144438254Y-110661191D01*
X144325143Y-110751567D01*
X144231836Y-110862273D01*
X144161921Y-110989055D01*
X144129068Y-111092465D01*
X144129066Y-111092473D01*
X144118084Y-111127042D01*
X144114057Y-111163087D01*
X140681847Y-127310300D01*
X140670864Y-127344873D01*
X140666836Y-127380921D01*
X140666835Y-127380928D01*
X140654788Y-127488759D01*
X116120651Y-127488759D01*
X115510929Y-127359159D01*
X115476356Y-127348175D01*
X115440301Y-127344146D01*
X115440299Y-127344146D01*
X115422168Y-127342120D01*
X115332469Y-127332098D01*
X115188210Y-127344402D01*
X115049123Y-127384613D01*
X114920555Y-127451186D01*
X114807444Y-127541562D01*
X114714137Y-127652268D01*
X114644222Y-127779050D01*
X114611369Y-127882460D01*
X114611367Y-127882468D01*
X114600385Y-127917037D01*
X114596358Y-127953082D01*
X111164148Y-144100296D01*
X111153165Y-144134869D01*
X111149137Y-144170917D01*
X111149136Y-144170924D01*
X111137089Y-144278755D01*
X72910354Y-144278755D01*
X72959967Y-144218302D01*
X73028217Y-144090615D01*
X73070245Y-143952067D01*
X73084436Y-143807982D01*
X73080880Y-143771877D01*
X73080880Y-138415664D01*
X83553365Y-138415664D01*
X83565668Y-138559922D01*
X83605879Y-138699009D01*
X83615129Y-138716872D01*
X83672452Y-138827578D01*
X83762828Y-138940689D01*
X83822902Y-138991321D01*
X83873534Y-139033995D01*
X83918599Y-139058846D01*
X84000317Y-139103911D01*
X84083515Y-139130342D01*
X84138303Y-139147748D01*
X84174361Y-139151777D01*
X100321608Y-142583975D01*
X100356179Y-142594958D01*
X100392229Y-142598986D01*
X100392235Y-142598987D01*
X100500066Y-142611034D01*
X100644325Y-142598731D01*
X100783412Y-142558520D01*
X100911980Y-142491947D01*
X101025091Y-142401571D01*
X101118398Y-142290864D01*
X101188313Y-142164082D01*
X101219314Y-142066500D01*
X104548360Y-142066500D01*
X104548360Y-142403340D01*
X104614074Y-142733709D01*
X104742978Y-143044909D01*
X104930116Y-143324981D01*
X105168299Y-143563164D01*
X105448371Y-143750302D01*
X105759571Y-143879206D01*
X106089940Y-143944920D01*
X106426780Y-143944920D01*
X106757149Y-143879206D01*
X107068349Y-143750302D01*
X107348421Y-143563164D01*
X107586604Y-143324981D01*
X107773742Y-143044909D01*
X107902646Y-142733709D01*
X107968360Y-142403340D01*
X107968360Y-142066500D01*
X107902646Y-141736131D01*
X107773742Y-141424931D01*
X107586604Y-141144859D01*
X107348421Y-140906676D01*
X107068349Y-140719538D01*
X106757149Y-140590634D01*
X106426780Y-140524920D01*
X106089940Y-140524920D01*
X105759571Y-140590634D01*
X105448371Y-140719538D01*
X105168299Y-140906676D01*
X104930116Y-141144859D01*
X104742978Y-141424931D01*
X104614074Y-141736131D01*
X104548360Y-142066500D01*
X101219314Y-142066500D01*
X101232151Y-142026096D01*
X101236180Y-141990032D01*
X104668387Y-125842842D01*
X104679372Y-125808264D01*
X104695448Y-125664377D01*
X104683144Y-125520118D01*
X104642933Y-125381032D01*
X104576360Y-125252463D01*
X104485984Y-125139352D01*
X104375277Y-125046046D01*
X104248495Y-124976131D01*
X104145086Y-124943278D01*
X104145078Y-124943276D01*
X104110510Y-124932294D01*
X104074462Y-124928267D01*
X87927205Y-121496068D01*
X87892632Y-121485084D01*
X87856577Y-121481055D01*
X87856575Y-121481055D01*
X87838444Y-121479029D01*
X87748745Y-121469007D01*
X87604486Y-121481311D01*
X87465399Y-121521522D01*
X87336831Y-121588095D01*
X87223720Y-121678471D01*
X87130413Y-121789177D01*
X87060498Y-121915959D01*
X87027645Y-122019369D01*
X87027643Y-122019377D01*
X87016661Y-122053946D01*
X87012634Y-122089991D01*
X83580424Y-138237205D01*
X83569441Y-138271778D01*
X83565413Y-138307826D01*
X83565412Y-138307833D01*
X83553365Y-138415664D01*
X73080880Y-138415664D01*
X73080880Y-127219139D01*
X73084436Y-127183034D01*
X73070245Y-127038949D01*
X73028217Y-126900401D01*
X72959967Y-126772714D01*
X72868118Y-126660796D01*
X72756200Y-126568947D01*
X72628513Y-126500697D01*
X72489965Y-126458669D01*
X72381985Y-126448034D01*
X72345880Y-126444478D01*
X72309775Y-126448034D01*
X24780880Y-126448034D01*
X24744775Y-126444478D01*
X24708670Y-126448034D01*
X24600690Y-126458669D01*
X24462142Y-126500697D01*
X24334455Y-126568947D01*
X24222537Y-126660796D01*
X24130688Y-126772714D01*
X24062438Y-126900401D01*
X24020410Y-127038949D01*
X24006219Y-127183034D01*
X18390537Y-127183034D01*
X18354974Y-122923629D01*
X18357899Y-122900187D01*
X18354370Y-122851395D01*
X18354265Y-122838763D01*
X18351769Y-122815416D01*
X18347456Y-122755782D01*
X18344081Y-122743516D01*
X18342729Y-122730876D01*
X18324907Y-122673842D01*
X18309041Y-122616189D01*
X18303338Y-122604818D01*
X18299546Y-122592684D01*
X18270940Y-122540224D01*
X18260396Y-122519202D01*
X18253644Y-122508505D01*
X18230232Y-122465571D01*
X18215098Y-122447441D01*
X14560022Y-116657076D01*
X21870251Y-116657076D01*
X21882554Y-116801334D01*
X21922765Y-116940421D01*
X21952610Y-116998058D01*
X21989338Y-117068990D01*
X22079714Y-117182101D01*
X22126985Y-117221942D01*
X22190420Y-117275407D01*
X22235485Y-117300258D01*
X22317203Y-117345323D01*
X22387026Y-117367505D01*
X22455188Y-117389160D01*
X22491247Y-117393189D01*
X38638498Y-120825388D01*
X38673067Y-120836371D01*
X38709115Y-120840399D01*
X38709122Y-120840400D01*
X38816953Y-120852447D01*
X38961211Y-120840144D01*
X39100298Y-120799933D01*
X39221802Y-120737018D01*
X39228867Y-120733360D01*
X39341978Y-120642984D01*
X39406528Y-120566396D01*
X39435284Y-120532278D01*
X39477714Y-120455336D01*
X39505200Y-120405495D01*
X39549037Y-120267509D01*
X39553065Y-120231455D01*
X40239203Y-117003442D01*
X50626917Y-117003442D01*
X50639220Y-117147700D01*
X50679431Y-117286787D01*
X50723293Y-117371494D01*
X50746004Y-117415356D01*
X50836380Y-117528467D01*
X50896454Y-117579099D01*
X50947086Y-117621773D01*
X50992151Y-117646624D01*
X51073869Y-117691689D01*
X51143692Y-117713871D01*
X51211854Y-117735526D01*
X51247914Y-117739555D01*
X67395161Y-121171753D01*
X67429732Y-121182736D01*
X67465782Y-121186764D01*
X67465788Y-121186765D01*
X67556379Y-121196886D01*
X67573619Y-121198812D01*
X67573620Y-121198812D01*
X67717878Y-121186509D01*
X67856965Y-121146298D01*
X67985533Y-121079725D01*
X68098644Y-120989349D01*
X68191951Y-120878642D01*
X68261866Y-120751860D01*
X68305704Y-120613874D01*
X68309733Y-120577810D01*
X68423756Y-120041372D01*
X119173555Y-120041372D01*
X119185858Y-120185630D01*
X119226069Y-120324717D01*
X119249409Y-120369792D01*
X119292642Y-120453286D01*
X119383018Y-120566397D01*
X119422868Y-120599983D01*
X119493724Y-120659703D01*
X119538789Y-120684554D01*
X119620507Y-120729619D01*
X119703705Y-120756050D01*
X119758493Y-120773456D01*
X119794551Y-120777485D01*
X135941802Y-124209683D01*
X135976371Y-124220666D01*
X136012419Y-124224694D01*
X136012426Y-124224695D01*
X136104861Y-124235022D01*
X136120257Y-124236742D01*
X136120258Y-124236742D01*
X136264516Y-124224439D01*
X136403603Y-124184228D01*
X136532171Y-124117655D01*
X136645282Y-124027279D01*
X136738589Y-123916572D01*
X136808504Y-123789790D01*
X136852342Y-123651804D01*
X136856371Y-123615740D01*
X139726665Y-110112123D01*
X167412552Y-110112123D01*
X167424855Y-110256381D01*
X167465066Y-110395468D01*
X167474316Y-110413331D01*
X167531639Y-110524037D01*
X167622015Y-110637148D01*
X167682089Y-110687780D01*
X167732721Y-110730454D01*
X167771007Y-110751567D01*
X167859504Y-110800370D01*
X167942702Y-110826801D01*
X167997490Y-110844207D01*
X168033548Y-110848236D01*
X184180799Y-114280434D01*
X184215368Y-114291417D01*
X184251416Y-114295445D01*
X184251423Y-114295446D01*
X184340485Y-114305396D01*
X184359254Y-114307493D01*
X184359255Y-114307493D01*
X184503513Y-114295190D01*
X184642600Y-114254979D01*
X184771168Y-114188406D01*
X184884279Y-114098030D01*
X184977586Y-113987323D01*
X185047501Y-113860541D01*
X185091339Y-113722555D01*
X185095368Y-113686491D01*
X185998465Y-109437771D01*
X188190717Y-109437771D01*
X188203020Y-109582028D01*
X188218500Y-109635571D01*
X188243231Y-109721116D01*
X188309804Y-109849685D01*
X188322650Y-109865762D01*
X188400179Y-109962795D01*
X188510886Y-110056102D01*
X188637668Y-110126017D01*
X188775654Y-110169855D01*
X188811711Y-110173884D01*
X192216234Y-110897538D01*
X192250806Y-110908521D01*
X192286856Y-110912549D01*
X192286862Y-110912550D01*
X192394693Y-110924597D01*
X192538952Y-110912294D01*
X192678038Y-110872083D01*
X192806607Y-110805510D01*
X192919718Y-110715134D01*
X192985447Y-110637147D01*
X193013024Y-110604428D01*
X193082939Y-110477646D01*
X193082940Y-110477645D01*
X193126777Y-110339659D01*
X193130805Y-110303605D01*
X193854462Y-106899088D01*
X193865445Y-106864517D01*
X193869472Y-106828471D01*
X193869474Y-106828463D01*
X193881521Y-106720631D01*
X193877353Y-106671754D01*
X193869218Y-106576372D01*
X193829007Y-106437285D01*
X193762434Y-106308716D01*
X193672058Y-106195605D01*
X193561351Y-106102299D01*
X193504485Y-106070940D01*
X193434570Y-106032384D01*
X193296584Y-105988546D01*
X193260527Y-105984517D01*
X189856005Y-105260864D01*
X189821433Y-105249881D01*
X189785380Y-105245853D01*
X189785377Y-105245852D01*
X189760325Y-105243053D01*
X189677546Y-105233804D01*
X189533288Y-105246108D01*
X189394201Y-105286319D01*
X189265632Y-105352891D01*
X189152521Y-105443267D01*
X189059215Y-105553974D01*
X188989299Y-105680756D01*
X188956446Y-105784165D01*
X188956443Y-105784178D01*
X188945462Y-105818743D01*
X188941435Y-105854785D01*
X188217778Y-109259307D01*
X188206793Y-109293885D01*
X188202765Y-109329939D01*
X188190717Y-109437771D01*
X185998465Y-109437771D01*
X188527574Y-97539301D01*
X188538559Y-97504723D01*
X188554635Y-97360836D01*
X188542331Y-97216577D01*
X188502120Y-97077491D01*
X188435547Y-96948922D01*
X188345171Y-96835811D01*
X188234464Y-96742505D01*
X188107682Y-96672590D01*
X188004273Y-96639737D01*
X188004265Y-96639735D01*
X187969697Y-96628753D01*
X187933647Y-96624725D01*
X171786392Y-93192527D01*
X171751819Y-93181543D01*
X171715764Y-93177514D01*
X171715762Y-93177514D01*
X171697631Y-93175488D01*
X171607932Y-93165466D01*
X171463673Y-93177770D01*
X171324586Y-93217981D01*
X171196018Y-93284554D01*
X171082907Y-93374930D01*
X170989600Y-93485636D01*
X170919685Y-93612418D01*
X170886832Y-93715828D01*
X170886830Y-93715836D01*
X170875848Y-93750405D01*
X170871821Y-93786450D01*
X167439611Y-109933664D01*
X167428628Y-109968237D01*
X167424600Y-110004285D01*
X167424599Y-110004292D01*
X167412552Y-110112123D01*
X139726665Y-110112123D01*
X140288577Y-107468550D01*
X140299562Y-107433972D01*
X140315638Y-107290085D01*
X140303334Y-107145826D01*
X140263123Y-107006740D01*
X140196550Y-106878171D01*
X140106174Y-106765060D01*
X139995467Y-106671754D01*
X139868685Y-106601839D01*
X139765276Y-106568986D01*
X139765268Y-106568984D01*
X139730700Y-106558002D01*
X139694650Y-106553974D01*
X134367229Y-105421598D01*
X145345327Y-105421598D01*
X145357630Y-105565856D01*
X145397841Y-105704943D01*
X145441703Y-105789650D01*
X145464414Y-105833512D01*
X145554790Y-105946623D01*
X145614864Y-105997255D01*
X145665496Y-106039929D01*
X145710561Y-106064780D01*
X145792279Y-106109845D01*
X145875477Y-106136276D01*
X145930265Y-106153682D01*
X145966323Y-106157711D01*
X162113574Y-109589909D01*
X162148143Y-109600892D01*
X162184191Y-109604920D01*
X162184198Y-109604921D01*
X162276633Y-109615248D01*
X162292029Y-109616968D01*
X162292030Y-109616968D01*
X162436288Y-109604665D01*
X162575375Y-109564454D01*
X162703943Y-109497881D01*
X162817054Y-109407505D01*
X162910361Y-109296798D01*
X162980276Y-109170016D01*
X163024114Y-109032030D01*
X163028143Y-108995966D01*
X166460349Y-92848776D01*
X166471334Y-92814198D01*
X166487410Y-92670311D01*
X166475106Y-92526052D01*
X166434895Y-92386966D01*
X166368322Y-92258397D01*
X166277946Y-92145286D01*
X166167239Y-92051980D01*
X166040457Y-91982065D01*
X165937048Y-91949212D01*
X165937040Y-91949210D01*
X165902472Y-91938228D01*
X165866422Y-91934200D01*
X149719167Y-88502002D01*
X149684594Y-88491018D01*
X149648539Y-88486989D01*
X149648537Y-88486989D01*
X149630406Y-88484963D01*
X149540707Y-88474941D01*
X149396448Y-88487245D01*
X149257361Y-88527456D01*
X149128793Y-88594029D01*
X149015682Y-88684405D01*
X148922375Y-88795111D01*
X148852460Y-88921893D01*
X148819607Y-89025303D01*
X148819605Y-89025311D01*
X148808623Y-89059880D01*
X148804596Y-89095925D01*
X145372386Y-105243139D01*
X145361403Y-105277712D01*
X145357375Y-105313760D01*
X145357374Y-105313767D01*
X145345327Y-105421598D01*
X134367229Y-105421598D01*
X123547395Y-103121776D01*
X123512822Y-103110792D01*
X123476767Y-103106763D01*
X123476765Y-103106763D01*
X123458634Y-103104737D01*
X123368935Y-103094715D01*
X123224676Y-103107019D01*
X123085589Y-103147230D01*
X122957021Y-103213803D01*
X122843910Y-103304179D01*
X122750603Y-103414885D01*
X122680688Y-103541667D01*
X122647835Y-103645077D01*
X122647833Y-103645085D01*
X122636851Y-103679654D01*
X122632824Y-103715699D01*
X119200614Y-119862913D01*
X119189631Y-119897486D01*
X119185603Y-119933534D01*
X119185602Y-119933541D01*
X119173555Y-120041372D01*
X68423756Y-120041372D01*
X70417755Y-110660386D01*
X75039411Y-110660386D01*
X75051714Y-110804644D01*
X75091925Y-110943731D01*
X75124644Y-111006919D01*
X75158498Y-111072300D01*
X75248874Y-111185411D01*
X75308948Y-111236043D01*
X75359580Y-111278717D01*
X75404645Y-111303568D01*
X75486363Y-111348633D01*
X75556186Y-111370815D01*
X75624348Y-111392470D01*
X75660407Y-111396499D01*
X91807658Y-114828698D01*
X91842227Y-114839681D01*
X91878275Y-114843709D01*
X91878282Y-114843710D01*
X91986113Y-114855757D01*
X92130371Y-114843454D01*
X92269458Y-114803243D01*
X92354165Y-114759381D01*
X92398027Y-114736670D01*
X92511138Y-114646294D01*
X92600999Y-114539675D01*
X92604444Y-114535588D01*
X92649365Y-114454129D01*
X92674360Y-114408805D01*
X92718197Y-114270819D01*
X92722225Y-114234765D01*
X93071636Y-112590919D01*
X97692973Y-112590919D01*
X97705276Y-112735177D01*
X97745487Y-112874264D01*
X97753854Y-112890422D01*
X97812060Y-113002833D01*
X97902436Y-113115944D01*
X97962510Y-113166576D01*
X98013142Y-113209250D01*
X98058207Y-113234101D01*
X98139925Y-113279166D01*
X98223123Y-113305597D01*
X98277911Y-113323003D01*
X98313969Y-113327032D01*
X114461220Y-116759230D01*
X114495789Y-116770213D01*
X114531837Y-116774241D01*
X114531844Y-116774242D01*
X114624279Y-116784569D01*
X114639675Y-116786289D01*
X114639676Y-116786289D01*
X114783934Y-116773986D01*
X114923021Y-116733775D01*
X115051589Y-116667202D01*
X115164700Y-116576826D01*
X115258007Y-116466119D01*
X115327922Y-116339337D01*
X115371760Y-116201351D01*
X115375789Y-116165287D01*
X118807995Y-100018097D01*
X118818980Y-99983519D01*
X118835056Y-99839632D01*
X118822752Y-99695373D01*
X118782541Y-99556287D01*
X118715968Y-99427718D01*
X118625592Y-99314607D01*
X118514885Y-99221301D01*
X118388103Y-99151386D01*
X118284694Y-99118533D01*
X118284686Y-99118531D01*
X118250118Y-99107549D01*
X118214068Y-99103521D01*
X112901067Y-97974210D01*
X123864094Y-97974210D01*
X123876397Y-98118468D01*
X123916608Y-98257555D01*
X123947780Y-98317755D01*
X123983181Y-98386124D01*
X124073557Y-98499235D01*
X124107389Y-98527749D01*
X124184263Y-98592541D01*
X124229328Y-98617392D01*
X124311046Y-98662457D01*
X124394244Y-98688888D01*
X124449032Y-98706294D01*
X124485090Y-98710323D01*
X140632337Y-102142521D01*
X140666908Y-102153504D01*
X140702958Y-102157532D01*
X140702964Y-102157533D01*
X140810795Y-102169580D01*
X140955054Y-102157277D01*
X141094141Y-102117066D01*
X141222709Y-102050493D01*
X141335820Y-101960117D01*
X141429127Y-101849410D01*
X141499042Y-101722628D01*
X141542880Y-101584642D01*
X141546909Y-101548578D01*
X144417139Y-88045267D01*
X172103025Y-88045267D01*
X172115328Y-88189525D01*
X172155539Y-88328612D01*
X172164789Y-88346475D01*
X172222112Y-88457181D01*
X172312488Y-88570292D01*
X172372562Y-88620924D01*
X172423194Y-88663598D01*
X172460925Y-88684405D01*
X172549977Y-88733514D01*
X172619800Y-88755696D01*
X172687962Y-88777351D01*
X172724021Y-88781380D01*
X188871272Y-92213579D01*
X188905841Y-92224562D01*
X188941889Y-92228590D01*
X188941896Y-92228591D01*
X189049727Y-92240638D01*
X189193985Y-92228335D01*
X189333072Y-92188124D01*
X189417779Y-92144262D01*
X189461641Y-92121551D01*
X189574752Y-92031175D01*
X189625384Y-91971101D01*
X189668058Y-91920469D01*
X189692909Y-91875404D01*
X189737974Y-91793686D01*
X189781811Y-91655700D01*
X189785839Y-91619646D01*
X193218047Y-75472446D01*
X193229032Y-75437868D01*
X193245108Y-75293981D01*
X193232804Y-75149722D01*
X193192593Y-75010636D01*
X193126020Y-74882067D01*
X193035644Y-74768956D01*
X192924937Y-74675650D01*
X192798155Y-74605735D01*
X192694746Y-74572882D01*
X192694738Y-74572880D01*
X192660170Y-74561898D01*
X192624120Y-74557870D01*
X176476865Y-71125672D01*
X176442292Y-71114688D01*
X176406237Y-71110659D01*
X176406235Y-71110659D01*
X176388104Y-71108633D01*
X176298405Y-71098611D01*
X176154146Y-71110915D01*
X176015059Y-71151126D01*
X175886491Y-71217699D01*
X175773380Y-71308075D01*
X175680073Y-71418781D01*
X175610158Y-71545563D01*
X175577305Y-71648973D01*
X175577303Y-71648981D01*
X175566321Y-71683550D01*
X175562294Y-71719595D01*
X172130084Y-87866808D01*
X172119101Y-87901381D01*
X172115073Y-87937429D01*
X172115072Y-87937436D01*
X172103025Y-88045267D01*
X144417139Y-88045267D01*
X144979116Y-85401388D01*
X144990101Y-85366810D01*
X145006177Y-85222923D01*
X144993873Y-85078664D01*
X144953662Y-84939578D01*
X144887089Y-84811009D01*
X144796713Y-84697898D01*
X144686006Y-84604592D01*
X144559224Y-84534677D01*
X144455815Y-84501824D01*
X144455807Y-84501822D01*
X144421239Y-84490840D01*
X144385191Y-84486813D01*
X139059206Y-83354742D01*
X150035800Y-83354742D01*
X150048103Y-83499000D01*
X150088314Y-83638087D01*
X150097564Y-83655950D01*
X150154887Y-83766656D01*
X150245263Y-83879767D01*
X150305337Y-83930399D01*
X150355969Y-83973073D01*
X150401034Y-83997924D01*
X150482752Y-84042989D01*
X150552575Y-84065171D01*
X150620737Y-84086826D01*
X150656797Y-84090855D01*
X166804044Y-87523053D01*
X166838615Y-87534036D01*
X166874665Y-87538064D01*
X166874671Y-87538065D01*
X166965262Y-87548186D01*
X166982502Y-87550112D01*
X166982503Y-87550112D01*
X167126761Y-87537809D01*
X167265848Y-87497598D01*
X167394416Y-87431025D01*
X167507527Y-87340649D01*
X167600834Y-87229942D01*
X167670749Y-87103160D01*
X167714587Y-86965174D01*
X167718616Y-86929110D01*
X171150822Y-70781921D01*
X171161807Y-70747343D01*
X171177883Y-70603456D01*
X171165579Y-70459197D01*
X171125368Y-70320111D01*
X171058795Y-70191542D01*
X170968419Y-70078431D01*
X170857712Y-69985125D01*
X170730930Y-69915210D01*
X170627521Y-69882357D01*
X170627513Y-69882355D01*
X170592945Y-69871373D01*
X170556895Y-69867345D01*
X154409640Y-66435147D01*
X154375067Y-66424163D01*
X154339012Y-66420134D01*
X154339010Y-66420134D01*
X154320879Y-66418108D01*
X154231180Y-66408086D01*
X154086921Y-66420390D01*
X153947834Y-66460601D01*
X153819266Y-66527174D01*
X153706155Y-66617550D01*
X153612848Y-66728256D01*
X153542933Y-66855038D01*
X153510080Y-66958448D01*
X153510078Y-66958456D01*
X153499096Y-66993025D01*
X153495069Y-67029070D01*
X150062859Y-83176283D01*
X150051876Y-83210856D01*
X150047848Y-83246904D01*
X150047847Y-83246911D01*
X150035800Y-83354742D01*
X139059206Y-83354742D01*
X128237934Y-81054614D01*
X128203361Y-81043630D01*
X128167306Y-81039601D01*
X128167304Y-81039601D01*
X128149173Y-81037575D01*
X128059474Y-81027553D01*
X127915215Y-81039857D01*
X127776128Y-81080068D01*
X127647560Y-81146641D01*
X127534449Y-81237017D01*
X127441142Y-81347723D01*
X127371227Y-81474505D01*
X127338374Y-81577915D01*
X127338372Y-81577923D01*
X127327390Y-81612492D01*
X127323363Y-81648537D01*
X123891153Y-97795751D01*
X123880170Y-97830324D01*
X123876142Y-97866372D01*
X123876141Y-97866379D01*
X123864094Y-97974210D01*
X112901067Y-97974210D01*
X102066813Y-95671323D01*
X102032240Y-95660339D01*
X101996185Y-95656310D01*
X101996183Y-95656310D01*
X101978052Y-95654284D01*
X101888353Y-95644262D01*
X101744094Y-95656566D01*
X101605007Y-95696777D01*
X101476439Y-95763350D01*
X101363328Y-95853726D01*
X101270021Y-95964432D01*
X101200106Y-96091214D01*
X101167253Y-96194624D01*
X101167251Y-96194632D01*
X101156269Y-96229201D01*
X101152242Y-96265246D01*
X97720032Y-112412460D01*
X97709049Y-112447033D01*
X97705021Y-112483081D01*
X97705020Y-112483088D01*
X97692973Y-112590919D01*
X93071636Y-112590919D01*
X96154433Y-98087565D01*
X96165418Y-98052987D01*
X96181494Y-97909100D01*
X96169190Y-97764841D01*
X96128979Y-97625755D01*
X96062406Y-97497186D01*
X95972030Y-97384075D01*
X95861323Y-97290769D01*
X95734541Y-97220854D01*
X95631132Y-97188001D01*
X95631124Y-97187999D01*
X95596556Y-97177017D01*
X95560506Y-97172989D01*
X79413252Y-93740791D01*
X79378679Y-93729807D01*
X79342627Y-93725779D01*
X79342622Y-93725778D01*
X79253561Y-93715828D01*
X79234792Y-93713731D01*
X79234791Y-93713731D01*
X79223455Y-93714698D01*
X79090533Y-93726034D01*
X78951446Y-93766245D01*
X78822878Y-93832818D01*
X78709767Y-93923194D01*
X78616460Y-94033900D01*
X78546545Y-94160683D01*
X78513692Y-94264092D01*
X78513690Y-94264100D01*
X78502708Y-94298669D01*
X78498681Y-94334714D01*
X75066470Y-110481927D01*
X75055487Y-110516500D01*
X75051459Y-110552548D01*
X75051458Y-110552555D01*
X75039411Y-110660386D01*
X70417755Y-110660386D01*
X71741939Y-104430621D01*
X71752924Y-104396043D01*
X71769000Y-104252156D01*
X71756696Y-104107897D01*
X71716485Y-103968811D01*
X71649912Y-103840242D01*
X71559536Y-103727131D01*
X71448829Y-103633825D01*
X71322047Y-103563910D01*
X71218638Y-103531057D01*
X71218630Y-103531055D01*
X71184062Y-103520073D01*
X71148012Y-103516045D01*
X55000757Y-100083847D01*
X54966184Y-100072863D01*
X54930129Y-100068834D01*
X54930127Y-100068834D01*
X54911996Y-100066808D01*
X54822297Y-100056786D01*
X54678038Y-100069090D01*
X54538951Y-100109301D01*
X54410383Y-100175874D01*
X54297272Y-100266250D01*
X54203965Y-100376956D01*
X54134050Y-100503738D01*
X54101197Y-100607148D01*
X54101195Y-100607156D01*
X54090213Y-100641725D01*
X54086186Y-100677770D01*
X50653976Y-116824983D01*
X50642993Y-116859556D01*
X50638965Y-116895604D01*
X50638964Y-116895611D01*
X50626917Y-117003442D01*
X40239203Y-117003442D01*
X42985273Y-104084255D01*
X42996258Y-104049677D01*
X43012334Y-103905790D01*
X43000030Y-103761531D01*
X42959819Y-103622445D01*
X42893246Y-103493876D01*
X42802870Y-103380765D01*
X42692163Y-103287459D01*
X42565381Y-103217544D01*
X42461972Y-103184691D01*
X42461964Y-103184689D01*
X42427396Y-103173707D01*
X42391346Y-103169679D01*
X26244091Y-99737481D01*
X26209518Y-99726497D01*
X26173463Y-99722468D01*
X26173461Y-99722468D01*
X26155330Y-99720442D01*
X26065631Y-99710420D01*
X25921372Y-99722724D01*
X25782285Y-99762935D01*
X25653717Y-99829508D01*
X25540606Y-99919884D01*
X25447299Y-100030590D01*
X25377384Y-100157372D01*
X25344531Y-100260782D01*
X25344529Y-100260790D01*
X25333547Y-100295359D01*
X25329520Y-100331404D01*
X21897310Y-116478617D01*
X21886327Y-116513190D01*
X21882299Y-116549238D01*
X21882298Y-116549245D01*
X21870251Y-116657076D01*
X14560022Y-116657076D01*
X14351212Y-116326280D01*
X14001600Y-94004837D01*
X23808210Y-94004837D01*
X23820513Y-94149095D01*
X23860724Y-94288182D01*
X23904586Y-94372889D01*
X23927297Y-94416751D01*
X24017673Y-94529862D01*
X24064968Y-94569723D01*
X24128379Y-94623168D01*
X24173444Y-94648019D01*
X24255162Y-94693084D01*
X24337139Y-94719127D01*
X24393148Y-94736921D01*
X24429206Y-94740950D01*
X40569100Y-98171585D01*
X40603669Y-98182567D01*
X40639717Y-98186595D01*
X40639724Y-98186596D01*
X40747556Y-98198643D01*
X40891814Y-98186340D01*
X41030901Y-98146129D01*
X41139954Y-98089661D01*
X41159470Y-98079556D01*
X41272581Y-97989180D01*
X41340074Y-97909100D01*
X41365887Y-97878474D01*
X41435802Y-97751691D01*
X41468655Y-97648282D01*
X41468655Y-97648281D01*
X41479640Y-97613705D01*
X41483668Y-97577651D01*
X42045111Y-94936280D01*
X55317456Y-94936280D01*
X55329759Y-95080538D01*
X55369970Y-95219625D01*
X55413832Y-95304332D01*
X55436543Y-95348194D01*
X55526919Y-95461305D01*
X55586993Y-95511937D01*
X55637625Y-95554611D01*
X55672602Y-95573899D01*
X55764408Y-95624527D01*
X55826529Y-95644262D01*
X55902393Y-95668364D01*
X55938452Y-95672393D01*
X72085703Y-99104592D01*
X72120272Y-99115575D01*
X72156320Y-99119603D01*
X72156327Y-99119604D01*
X72264158Y-99131651D01*
X72408416Y-99119348D01*
X72547503Y-99079137D01*
X72632210Y-99035275D01*
X72676072Y-99012564D01*
X72789183Y-98922188D01*
X72839815Y-98862114D01*
X72882489Y-98811482D01*
X72907340Y-98766417D01*
X72952405Y-98684699D01*
X72996242Y-98546713D01*
X73000270Y-98510659D01*
X75108294Y-88593226D01*
X79729950Y-88593226D01*
X79730935Y-88604771D01*
X79742253Y-88737483D01*
X79782464Y-88876570D01*
X79826326Y-88961277D01*
X79849037Y-89005139D01*
X79939413Y-89118250D01*
X79999487Y-89168882D01*
X80050119Y-89211556D01*
X80095184Y-89236407D01*
X80176902Y-89281472D01*
X80260100Y-89307903D01*
X80314888Y-89325309D01*
X80350946Y-89329338D01*
X96498194Y-92761536D01*
X96532765Y-92772519D01*
X96568815Y-92776547D01*
X96568821Y-92776548D01*
X96659412Y-92786669D01*
X96676652Y-92788595D01*
X96676653Y-92788595D01*
X96820911Y-92776292D01*
X96959998Y-92736081D01*
X97088566Y-92669508D01*
X97201677Y-92579132D01*
X97294984Y-92468425D01*
X97364899Y-92341643D01*
X97408737Y-92203657D01*
X97412766Y-92167593D01*
X97762175Y-90523757D01*
X102383512Y-90523757D01*
X102395815Y-90668015D01*
X102436026Y-90807102D01*
X102445276Y-90824965D01*
X102502599Y-90935671D01*
X102592975Y-91048782D01*
X102653049Y-91099414D01*
X102703681Y-91142088D01*
X102748746Y-91166939D01*
X102830464Y-91212004D01*
X102904830Y-91235629D01*
X102968450Y-91255841D01*
X103004508Y-91259870D01*
X119151755Y-94692068D01*
X119186326Y-94703051D01*
X119222376Y-94707079D01*
X119222382Y-94707080D01*
X119330213Y-94719127D01*
X119474472Y-94706824D01*
X119613559Y-94666613D01*
X119742127Y-94600040D01*
X119855238Y-94509664D01*
X119948545Y-94398957D01*
X120018460Y-94272175D01*
X120062298Y-94134189D01*
X120066327Y-94098125D01*
X123498535Y-77950929D01*
X123509518Y-77916358D01*
X123513545Y-77880312D01*
X123513547Y-77880304D01*
X123525594Y-77772473D01*
X123525594Y-77772471D01*
X123513291Y-77628212D01*
X123473080Y-77489126D01*
X123406507Y-77360557D01*
X123316131Y-77247446D01*
X123205424Y-77154140D01*
X123078642Y-77084224D01*
X122975232Y-77051372D01*
X122975227Y-77051371D01*
X122940657Y-77040388D01*
X122904607Y-77036360D01*
X117591603Y-75907048D01*
X128554632Y-75907048D01*
X128566935Y-76051306D01*
X128607146Y-76190393D01*
X128639724Y-76253308D01*
X128673719Y-76318962D01*
X128764095Y-76432073D01*
X128797927Y-76460587D01*
X128874801Y-76525379D01*
X128919866Y-76550230D01*
X129001584Y-76595295D01*
X129084782Y-76621726D01*
X129139570Y-76639132D01*
X129175628Y-76643161D01*
X145322876Y-80075359D01*
X145357447Y-80086342D01*
X145393497Y-80090370D01*
X145393503Y-80090371D01*
X145484094Y-80100492D01*
X145501334Y-80102418D01*
X145501335Y-80102418D01*
X145645593Y-80090115D01*
X145784680Y-80049904D01*
X145913248Y-79983331D01*
X146026359Y-79892955D01*
X146119666Y-79782248D01*
X146189581Y-79655466D01*
X146233419Y-79517480D01*
X146237448Y-79481416D01*
X149107677Y-65978106D01*
X176793564Y-65978106D01*
X176805867Y-66122364D01*
X176846078Y-66261451D01*
X176855328Y-66279314D01*
X176912651Y-66390020D01*
X177003027Y-66503131D01*
X177063101Y-66553763D01*
X177113733Y-66596437D01*
X177152019Y-66617550D01*
X177240516Y-66666353D01*
X177323714Y-66692784D01*
X177378502Y-66710190D01*
X177414560Y-66714219D01*
X193561811Y-70146417D01*
X193596380Y-70157400D01*
X193632428Y-70161428D01*
X193632435Y-70161429D01*
X193718749Y-70171072D01*
X193740266Y-70173476D01*
X193740267Y-70173476D01*
X193884525Y-70161173D01*
X194023612Y-70120962D01*
X194152180Y-70054389D01*
X194265291Y-69964013D01*
X194358598Y-69853306D01*
X194428513Y-69726524D01*
X194472351Y-69588538D01*
X194476380Y-69552474D01*
X197908586Y-53405284D01*
X197919571Y-53370706D01*
X197935647Y-53226819D01*
X197923343Y-53082560D01*
X197883132Y-52943474D01*
X197816559Y-52814905D01*
X197726183Y-52701794D01*
X197615476Y-52608488D01*
X197488694Y-52538573D01*
X197385285Y-52505720D01*
X197385277Y-52505718D01*
X197350709Y-52494736D01*
X197314659Y-52490708D01*
X181167404Y-49058510D01*
X181132831Y-49047526D01*
X181096776Y-49043497D01*
X181096774Y-49043497D01*
X181078643Y-49041471D01*
X180988944Y-49031449D01*
X180844685Y-49043753D01*
X180705598Y-49083964D01*
X180577030Y-49150537D01*
X180463919Y-49240913D01*
X180370612Y-49351619D01*
X180300697Y-49478401D01*
X180267844Y-49581811D01*
X180267842Y-49581819D01*
X180256860Y-49616388D01*
X180252833Y-49652433D01*
X176820623Y-65799647D01*
X176809640Y-65834220D01*
X176805612Y-65870268D01*
X176805611Y-65870275D01*
X176793564Y-65978106D01*
X149107677Y-65978106D01*
X149669655Y-63334220D01*
X149680638Y-63299649D01*
X149684665Y-63263603D01*
X149684667Y-63263595D01*
X149696714Y-63155763D01*
X149684411Y-63011505D01*
X149684411Y-63011503D01*
X149644200Y-62872417D01*
X149577627Y-62743848D01*
X149487251Y-62630737D01*
X149376544Y-62537431D01*
X149249762Y-62467515D01*
X149146352Y-62434663D01*
X149146347Y-62434662D01*
X149111777Y-62423679D01*
X149075725Y-62419651D01*
X143749742Y-61287580D01*
X154726339Y-61287580D01*
X154738642Y-61431838D01*
X154778853Y-61570925D01*
X154788103Y-61588788D01*
X154845426Y-61699494D01*
X154935802Y-61812605D01*
X154995876Y-61863237D01*
X155046508Y-61905911D01*
X155091573Y-61930762D01*
X155173291Y-61975827D01*
X155243114Y-61998009D01*
X155311276Y-62019664D01*
X155347335Y-62023693D01*
X171494586Y-65455892D01*
X171529155Y-65466875D01*
X171565203Y-65470903D01*
X171565210Y-65470904D01*
X171673041Y-65482951D01*
X171817299Y-65470648D01*
X171956386Y-65430437D01*
X172041093Y-65386575D01*
X172084955Y-65363864D01*
X172198066Y-65273488D01*
X172248698Y-65213414D01*
X172291372Y-65162782D01*
X172316223Y-65117717D01*
X172361288Y-65035999D01*
X172405125Y-64898013D01*
X172409153Y-64861959D01*
X175841361Y-48714759D01*
X175852346Y-48680181D01*
X175868422Y-48536294D01*
X175856118Y-48392035D01*
X175815907Y-48252949D01*
X175749334Y-48124380D01*
X175658958Y-48011269D01*
X175548251Y-47917963D01*
X175421469Y-47848048D01*
X175318060Y-47815195D01*
X175318052Y-47815193D01*
X175283484Y-47804211D01*
X175247434Y-47800183D01*
X159100179Y-44367985D01*
X159065606Y-44357001D01*
X159029551Y-44352972D01*
X159029549Y-44352972D01*
X159011418Y-44350946D01*
X158921719Y-44340924D01*
X158777460Y-44353228D01*
X158638373Y-44393439D01*
X158509805Y-44460012D01*
X158396694Y-44550388D01*
X158303387Y-44661094D01*
X158233472Y-44787876D01*
X158200619Y-44891286D01*
X158200617Y-44891294D01*
X158189635Y-44925863D01*
X158185608Y-44961908D01*
X154753398Y-61109121D01*
X154742415Y-61143694D01*
X154738387Y-61179742D01*
X154738386Y-61179749D01*
X154726339Y-61287580D01*
X143749742Y-61287580D01*
X132928472Y-58987452D01*
X132893899Y-58976468D01*
X132857844Y-58972439D01*
X132857842Y-58972439D01*
X132839711Y-58970413D01*
X132750012Y-58960391D01*
X132605753Y-58972695D01*
X132466666Y-59012906D01*
X132338098Y-59079479D01*
X132224987Y-59169855D01*
X132131680Y-59280561D01*
X132061765Y-59407343D01*
X132028912Y-59510753D01*
X132028910Y-59510761D01*
X132017928Y-59545330D01*
X132013901Y-59581375D01*
X128581691Y-75728589D01*
X128570708Y-75763162D01*
X128566680Y-75799210D01*
X128566679Y-75799217D01*
X128554632Y-75907048D01*
X117591603Y-75907048D01*
X106757352Y-73604161D01*
X106722779Y-73593177D01*
X106686724Y-73589148D01*
X106686722Y-73589148D01*
X106668591Y-73587122D01*
X106578892Y-73577100D01*
X106434633Y-73589404D01*
X106295546Y-73629615D01*
X106166978Y-73696188D01*
X106053867Y-73786564D01*
X105960560Y-73897270D01*
X105890645Y-74024052D01*
X105857792Y-74127462D01*
X105857790Y-74127470D01*
X105846808Y-74162039D01*
X105842781Y-74198084D01*
X102410571Y-90345298D01*
X102399588Y-90379871D01*
X102395560Y-90415919D01*
X102395559Y-90415926D01*
X102383512Y-90523757D01*
X97762175Y-90523757D01*
X100844973Y-76020397D01*
X100855956Y-75985826D01*
X100859983Y-75949780D01*
X100859985Y-75949772D01*
X100872032Y-75841940D01*
X100868388Y-75799217D01*
X100859729Y-75697680D01*
X100819518Y-75558594D01*
X100752945Y-75430025D01*
X100662569Y-75316914D01*
X100551862Y-75223608D01*
X100425080Y-75153692D01*
X100321670Y-75120840D01*
X100321665Y-75120839D01*
X100287095Y-75109856D01*
X100251043Y-75105828D01*
X84103790Y-71673629D01*
X84069217Y-71662645D01*
X84033162Y-71658616D01*
X84033160Y-71658616D01*
X84015029Y-71656590D01*
X83925330Y-71646568D01*
X83781071Y-71658872D01*
X83641984Y-71699083D01*
X83513416Y-71765656D01*
X83400305Y-71856032D01*
X83306998Y-71966738D01*
X83237083Y-72093520D01*
X83204230Y-72196930D01*
X83204228Y-72196938D01*
X83193246Y-72231507D01*
X83189219Y-72267552D01*
X79757009Y-88414766D01*
X79746026Y-88449339D01*
X79741998Y-88485387D01*
X79741997Y-88485394D01*
X79741369Y-88491018D01*
X79729950Y-88593226D01*
X75108294Y-88593226D01*
X76432478Y-82363459D01*
X76443463Y-82328881D01*
X76459539Y-82184994D01*
X76447235Y-82040735D01*
X76407024Y-81901649D01*
X76340451Y-81773080D01*
X76250075Y-81659969D01*
X76139368Y-81566663D01*
X76012586Y-81496748D01*
X75909177Y-81463895D01*
X75909169Y-81463893D01*
X75874601Y-81452911D01*
X75838551Y-81448883D01*
X59691296Y-78016685D01*
X59656723Y-78005701D01*
X59620668Y-78001672D01*
X59620666Y-78001672D01*
X59602535Y-77999646D01*
X59512836Y-77989624D01*
X59368577Y-78001928D01*
X59229490Y-78042139D01*
X59100922Y-78108712D01*
X58987811Y-78199088D01*
X58894504Y-78309794D01*
X58824589Y-78436576D01*
X58791736Y-78539986D01*
X58791734Y-78539994D01*
X58780752Y-78574563D01*
X58776725Y-78610608D01*
X55344515Y-94757821D01*
X55333532Y-94792394D01*
X55329504Y-94828442D01*
X55329503Y-94828449D01*
X55317456Y-94936280D01*
X42045111Y-94936280D01*
X44915878Y-81430442D01*
X44926860Y-81395874D01*
X44930887Y-81359828D01*
X44930889Y-81359820D01*
X44942936Y-81251988D01*
X44930633Y-81107730D01*
X44890422Y-80968643D01*
X44823849Y-80840074D01*
X44733473Y-80726963D01*
X44622767Y-80633657D01*
X44603288Y-80622915D01*
X44495983Y-80563740D01*
X44392574Y-80530887D01*
X44392560Y-80530884D01*
X44357999Y-80519904D01*
X44321957Y-80515877D01*
X28182050Y-77085241D01*
X28147477Y-77074257D01*
X28111422Y-77070228D01*
X28111420Y-77070228D01*
X28093289Y-77068202D01*
X28003590Y-77058180D01*
X27859331Y-77070484D01*
X27720244Y-77110695D01*
X27591676Y-77177268D01*
X27478565Y-77267644D01*
X27385258Y-77378350D01*
X27315343Y-77505132D01*
X27282490Y-77608542D01*
X27282488Y-77608550D01*
X27271506Y-77643119D01*
X27267479Y-77679164D01*
X23835269Y-93826378D01*
X23824286Y-93860951D01*
X23820258Y-93896999D01*
X23820257Y-93897006D01*
X23808210Y-94004837D01*
X14001600Y-94004837D01*
X13970575Y-92024051D01*
X17666890Y-73367086D01*
X17677750Y-73330520D01*
X17684257Y-73260250D01*
X17691112Y-73190100D01*
X17687345Y-73152145D01*
X17683674Y-72522753D01*
X31251328Y-72522753D01*
X31263631Y-72667011D01*
X31303842Y-72806098D01*
X31313092Y-72823961D01*
X31370415Y-72934667D01*
X31460791Y-73047778D01*
X31483502Y-73066919D01*
X31571497Y-73141084D01*
X31616562Y-73165935D01*
X31698280Y-73211000D01*
X31781478Y-73237431D01*
X31836266Y-73254837D01*
X31872324Y-73258866D01*
X48019575Y-76691064D01*
X48054144Y-76702047D01*
X48090192Y-76706075D01*
X48090199Y-76706076D01*
X48182634Y-76716403D01*
X48198030Y-76718123D01*
X48198031Y-76718123D01*
X48342289Y-76705820D01*
X48481376Y-76665609D01*
X48609944Y-76599036D01*
X48723055Y-76508660D01*
X48816362Y-76397953D01*
X48886277Y-76271171D01*
X48930115Y-76133185D01*
X48934144Y-76097121D01*
X49620279Y-72869120D01*
X60007994Y-72869120D01*
X60020297Y-73013378D01*
X60060508Y-73152465D01*
X60069758Y-73170328D01*
X60127081Y-73281034D01*
X60217457Y-73394145D01*
X60277531Y-73444777D01*
X60328163Y-73487451D01*
X60373228Y-73512302D01*
X60454946Y-73557367D01*
X60538144Y-73583798D01*
X60592932Y-73601204D01*
X60628990Y-73605233D01*
X76776241Y-77037430D01*
X76810810Y-77048413D01*
X76846858Y-77052441D01*
X76846865Y-77052442D01*
X76939300Y-77062769D01*
X76954696Y-77064489D01*
X76954697Y-77064489D01*
X77098955Y-77052186D01*
X77238042Y-77011975D01*
X77366611Y-76945402D01*
X77479722Y-76855026D01*
X77573028Y-76744319D01*
X77642943Y-76617537D01*
X77686781Y-76479551D01*
X77690810Y-76443487D01*
X79798832Y-66526063D01*
X84420489Y-66526063D01*
X84432792Y-66670321D01*
X84473003Y-66809408D01*
X84516865Y-66894115D01*
X84539576Y-66937977D01*
X84629952Y-67051088D01*
X84690026Y-67101720D01*
X84740658Y-67144394D01*
X84785723Y-67169245D01*
X84867441Y-67214310D01*
X84950639Y-67240741D01*
X85005427Y-67258147D01*
X85041485Y-67262176D01*
X101188732Y-70694374D01*
X101223303Y-70705357D01*
X101259353Y-70709385D01*
X101259359Y-70709386D01*
X101367190Y-70721433D01*
X101511449Y-70709130D01*
X101650536Y-70668919D01*
X101779104Y-70602346D01*
X101892215Y-70511970D01*
X101985522Y-70401263D01*
X102055437Y-70274481D01*
X102099275Y-70136495D01*
X102103304Y-70100431D01*
X102452648Y-68456902D01*
X107073985Y-68456902D01*
X107086288Y-68601160D01*
X107126499Y-68740247D01*
X107134866Y-68756405D01*
X107193072Y-68868816D01*
X107283448Y-68981927D01*
X107343522Y-69032559D01*
X107394154Y-69075233D01*
X107439219Y-69100084D01*
X107520937Y-69145149D01*
X107604135Y-69171580D01*
X107658923Y-69188986D01*
X107694981Y-69193015D01*
X123842232Y-72625213D01*
X123876801Y-72636196D01*
X123912849Y-72640224D01*
X123912856Y-72640225D01*
X124005291Y-72650552D01*
X124020687Y-72652272D01*
X124020688Y-72652272D01*
X124164946Y-72639969D01*
X124304033Y-72599758D01*
X124432601Y-72533185D01*
X124545712Y-72442809D01*
X124639019Y-72332102D01*
X124708934Y-72205320D01*
X124752772Y-72067334D01*
X124756801Y-72031270D01*
X128189007Y-55884080D01*
X128199992Y-55849502D01*
X128216068Y-55705615D01*
X128203764Y-55561356D01*
X128163553Y-55422270D01*
X128096980Y-55293701D01*
X128006604Y-55180590D01*
X127895897Y-55087284D01*
X127769115Y-55017369D01*
X127665706Y-54984516D01*
X127665698Y-54984514D01*
X127631130Y-54973532D01*
X127595080Y-54969504D01*
X122282079Y-53840193D01*
X133245105Y-53840193D01*
X133257408Y-53984451D01*
X133297619Y-54123538D01*
X133341481Y-54208245D01*
X133364192Y-54252107D01*
X133454568Y-54365218D01*
X133503574Y-54406521D01*
X133565274Y-54458524D01*
X133610339Y-54483375D01*
X133692057Y-54528440D01*
X133761103Y-54550375D01*
X133830042Y-54572277D01*
X133866102Y-54576306D01*
X150013352Y-58008504D01*
X150047921Y-58019487D01*
X150083969Y-58023515D01*
X150083976Y-58023516D01*
X150176411Y-58033843D01*
X150191807Y-58035563D01*
X150191808Y-58035563D01*
X150336066Y-58023260D01*
X150475153Y-57983049D01*
X150603721Y-57916476D01*
X150716832Y-57826100D01*
X150810139Y-57715393D01*
X150880054Y-57588611D01*
X150923892Y-57450625D01*
X150927921Y-57414561D01*
X154360127Y-41267371D01*
X154371112Y-41232793D01*
X154387188Y-41088906D01*
X154374884Y-40944647D01*
X154334673Y-40805561D01*
X154268100Y-40676992D01*
X154177724Y-40563881D01*
X154067017Y-40470575D01*
X153940235Y-40400660D01*
X153836826Y-40367807D01*
X153836818Y-40367805D01*
X153802250Y-40356823D01*
X153766200Y-40352795D01*
X137618946Y-36920597D01*
X137584373Y-36909613D01*
X137548321Y-36905585D01*
X137548316Y-36905584D01*
X137461008Y-36895830D01*
X137440486Y-36893537D01*
X137440485Y-36893537D01*
X137429149Y-36894504D01*
X137296227Y-36905840D01*
X137157140Y-36946051D01*
X137028572Y-37012624D01*
X136915461Y-37103000D01*
X136822154Y-37213706D01*
X136752239Y-37340489D01*
X136719386Y-37443898D01*
X136719384Y-37443906D01*
X136708402Y-37478475D01*
X136704375Y-37514520D01*
X133272164Y-53661734D01*
X133261181Y-53696307D01*
X133257153Y-53732355D01*
X133257152Y-53732362D01*
X133245105Y-53840193D01*
X122282079Y-53840193D01*
X111447825Y-51537306D01*
X111413252Y-51526322D01*
X111377197Y-51522293D01*
X111377195Y-51522293D01*
X111359064Y-51520267D01*
X111269365Y-51510245D01*
X111125106Y-51522549D01*
X110986019Y-51562760D01*
X110857451Y-51629333D01*
X110744340Y-51719709D01*
X110651033Y-51830415D01*
X110581118Y-51957197D01*
X110548265Y-52060607D01*
X110548263Y-52060615D01*
X110537281Y-52095184D01*
X110533254Y-52131229D01*
X107101044Y-68278443D01*
X107090061Y-68313016D01*
X107086033Y-68349064D01*
X107086032Y-68349071D01*
X107073985Y-68456902D01*
X102452648Y-68456902D01*
X105535512Y-53953235D01*
X105546495Y-53918664D01*
X105550522Y-53882618D01*
X105550524Y-53882610D01*
X105562571Y-53774779D01*
X105560132Y-53746181D01*
X105550268Y-53630518D01*
X105510057Y-53491432D01*
X105443484Y-53362863D01*
X105353108Y-53249752D01*
X105242401Y-53156446D01*
X105115619Y-53086530D01*
X105012209Y-53053678D01*
X105012204Y-53053677D01*
X104977634Y-53042694D01*
X104941584Y-53038666D01*
X88794329Y-49606467D01*
X88759756Y-49595483D01*
X88723701Y-49591454D01*
X88723699Y-49591454D01*
X88705568Y-49589428D01*
X88615869Y-49579406D01*
X88471610Y-49591710D01*
X88332523Y-49631921D01*
X88203955Y-49698494D01*
X88090844Y-49788870D01*
X87997537Y-49899576D01*
X87927622Y-50026358D01*
X87894769Y-50129768D01*
X87894767Y-50129776D01*
X87883785Y-50164345D01*
X87879758Y-50200390D01*
X84447548Y-66347604D01*
X84436565Y-66382177D01*
X84432537Y-66418225D01*
X84432536Y-66418232D01*
X84420489Y-66526063D01*
X79798832Y-66526063D01*
X81123016Y-60296297D01*
X81134001Y-60261719D01*
X81150077Y-60117832D01*
X81137773Y-59973573D01*
X81097562Y-59834487D01*
X81030989Y-59705918D01*
X80940613Y-59592807D01*
X80829906Y-59499501D01*
X80703124Y-59429586D01*
X80599715Y-59396733D01*
X80599707Y-59396731D01*
X80565139Y-59385749D01*
X80529089Y-59381721D01*
X64381834Y-55949523D01*
X64347261Y-55938539D01*
X64311206Y-55934510D01*
X64311204Y-55934510D01*
X64293073Y-55932484D01*
X64203374Y-55922462D01*
X64059115Y-55934766D01*
X63920028Y-55974977D01*
X63791460Y-56041550D01*
X63678349Y-56131925D01*
X63585042Y-56242632D01*
X63515127Y-56369414D01*
X63482274Y-56472824D01*
X63482272Y-56472832D01*
X63471290Y-56507401D01*
X63467263Y-56543446D01*
X60035053Y-72690662D01*
X60024070Y-72725234D01*
X60020042Y-72761282D01*
X60020041Y-72761289D01*
X60007994Y-72869120D01*
X49620279Y-72869120D01*
X52366350Y-59949931D01*
X52377335Y-59915353D01*
X52393411Y-59771466D01*
X52381107Y-59627207D01*
X52340896Y-59488121D01*
X52274323Y-59359552D01*
X52183947Y-59246441D01*
X52073240Y-59153135D01*
X51946458Y-59083220D01*
X51843049Y-59050367D01*
X51843041Y-59050365D01*
X51808473Y-59039383D01*
X51772423Y-59035355D01*
X35625168Y-55603157D01*
X35590595Y-55592173D01*
X35554540Y-55588144D01*
X35554538Y-55588144D01*
X35536407Y-55586118D01*
X35446708Y-55576096D01*
X35302449Y-55588400D01*
X35163362Y-55628611D01*
X35034794Y-55695184D01*
X34921683Y-55785560D01*
X34828376Y-55896266D01*
X34758461Y-56023048D01*
X34725608Y-56126458D01*
X34725606Y-56126466D01*
X34714624Y-56161035D01*
X34710597Y-56197080D01*
X31278387Y-72344294D01*
X31267404Y-72378867D01*
X31263376Y-72414915D01*
X31263375Y-72414922D01*
X31251328Y-72522753D01*
X17683674Y-72522753D01*
X17615132Y-60771260D01*
X21581800Y-60771260D01*
X21581800Y-61108100D01*
X21647514Y-61438469D01*
X21776418Y-61749669D01*
X21963556Y-62029741D01*
X22201739Y-62267924D01*
X22481811Y-62455062D01*
X22793011Y-62583966D01*
X23123380Y-62649680D01*
X23460220Y-62649680D01*
X23790589Y-62583966D01*
X24101789Y-62455062D01*
X24381861Y-62267924D01*
X24620044Y-62029741D01*
X24807182Y-61749669D01*
X24936086Y-61438469D01*
X25001800Y-61108100D01*
X25001800Y-60771260D01*
X24936086Y-60440891D01*
X24807182Y-60129691D01*
X24620044Y-59849619D01*
X24381861Y-59611436D01*
X24101789Y-59424298D01*
X23790589Y-59295394D01*
X23460220Y-59229680D01*
X23123380Y-59229680D01*
X22793011Y-59295394D01*
X22481811Y-59424298D01*
X22201739Y-59611436D01*
X21963556Y-59849619D01*
X21776418Y-60129691D01*
X21647514Y-60440891D01*
X21581800Y-60771260D01*
X17615132Y-60771260D01*
X17561804Y-51628222D01*
X41458673Y-51628222D01*
X41470976Y-51772480D01*
X41511187Y-51911567D01*
X41555049Y-51996274D01*
X41577760Y-52040136D01*
X41668136Y-52153247D01*
X41728210Y-52203879D01*
X41778842Y-52246553D01*
X41823907Y-52271404D01*
X41905625Y-52316469D01*
X41975448Y-52338651D01*
X42043610Y-52360306D01*
X42079670Y-52364335D01*
X58226917Y-55796533D01*
X58261488Y-55807516D01*
X58297538Y-55811544D01*
X58297544Y-55811545D01*
X58388135Y-55821666D01*
X58405375Y-55823592D01*
X58405376Y-55823592D01*
X58549634Y-55811289D01*
X58688721Y-55771078D01*
X58817289Y-55704505D01*
X58930400Y-55614129D01*
X59023707Y-55503422D01*
X59093622Y-55376640D01*
X59137460Y-55238654D01*
X59141489Y-55202590D01*
X60076876Y-50801957D01*
X64698533Y-50801957D01*
X64710836Y-50946215D01*
X64751047Y-51085302D01*
X64769542Y-51121020D01*
X64817620Y-51213871D01*
X64907996Y-51326982D01*
X64968070Y-51377614D01*
X65018702Y-51420288D01*
X65063767Y-51445139D01*
X65145485Y-51490204D01*
X65228683Y-51516635D01*
X65283471Y-51534041D01*
X65319529Y-51538070D01*
X81466780Y-54970268D01*
X81501349Y-54981251D01*
X81537397Y-54985279D01*
X81537404Y-54985280D01*
X81629839Y-54995607D01*
X81645235Y-54997327D01*
X81645236Y-54997327D01*
X81789494Y-54985024D01*
X81928581Y-54944813D01*
X82057149Y-54878240D01*
X82170260Y-54787864D01*
X82263567Y-54677157D01*
X82333482Y-54550375D01*
X82377320Y-54412389D01*
X82381349Y-54376325D01*
X84489306Y-44459207D01*
X89110962Y-44459207D01*
X89123265Y-44603465D01*
X89163476Y-44742552D01*
X89196195Y-44805740D01*
X89230049Y-44871121D01*
X89320425Y-44984232D01*
X89380499Y-45034864D01*
X89431131Y-45077538D01*
X89476196Y-45102389D01*
X89557914Y-45147454D01*
X89627737Y-45169636D01*
X89695899Y-45191291D01*
X89731958Y-45195320D01*
X105879209Y-48627519D01*
X105913778Y-48638502D01*
X105949826Y-48642530D01*
X105949833Y-48642531D01*
X106057664Y-48654578D01*
X106201922Y-48642275D01*
X106341009Y-48602064D01*
X106429639Y-48556171D01*
X106469578Y-48535491D01*
X106582689Y-48445115D01*
X106633321Y-48385041D01*
X106675995Y-48334409D01*
X106720916Y-48252950D01*
X106745911Y-48207626D01*
X106789748Y-48069640D01*
X106793776Y-48033586D01*
X107143187Y-46389740D01*
X111764523Y-46389740D01*
X111776826Y-46533998D01*
X111817037Y-46673085D01*
X111826287Y-46690948D01*
X111883610Y-46801654D01*
X111973986Y-46914765D01*
X112034060Y-46965397D01*
X112084692Y-47008071D01*
X112129757Y-47032922D01*
X112211475Y-47077987D01*
X112281298Y-47100169D01*
X112349460Y-47121824D01*
X112385520Y-47125853D01*
X128532770Y-50558051D01*
X128567339Y-50569034D01*
X128603387Y-50573062D01*
X128603394Y-50573063D01*
X128689708Y-50582706D01*
X128711225Y-50585110D01*
X128711226Y-50585110D01*
X128855484Y-50572807D01*
X128994571Y-50532596D01*
X129123139Y-50466023D01*
X129236250Y-50375647D01*
X129329557Y-50264940D01*
X129399472Y-50138158D01*
X129443310Y-50000172D01*
X129447339Y-49964108D01*
X132879545Y-33816918D01*
X132890530Y-33782340D01*
X132906606Y-33638453D01*
X132894302Y-33494194D01*
X132854091Y-33355108D01*
X132787518Y-33226539D01*
X132697142Y-33113428D01*
X132586435Y-33020122D01*
X132459653Y-32950207D01*
X132356244Y-32917354D01*
X132356236Y-32917352D01*
X132321668Y-32906370D01*
X132285618Y-32902342D01*
X123538555Y-31043100D01*
X173966560Y-31043100D01*
X173966560Y-31379940D01*
X174032274Y-31710309D01*
X174161178Y-32021509D01*
X174348316Y-32301581D01*
X174586499Y-32539764D01*
X174866571Y-32726902D01*
X175177771Y-32855806D01*
X175508140Y-32921520D01*
X175844980Y-32921520D01*
X176175349Y-32855806D01*
X176486549Y-32726902D01*
X176766621Y-32539764D01*
X177004804Y-32301581D01*
X177191942Y-32021509D01*
X177320846Y-31710309D01*
X177386560Y-31379940D01*
X177386560Y-31043100D01*
X177320846Y-30712731D01*
X177191942Y-30401531D01*
X177004804Y-30121459D01*
X176766621Y-29883276D01*
X176486549Y-29696138D01*
X176175349Y-29567234D01*
X175844980Y-29501520D01*
X175508140Y-29501520D01*
X175177771Y-29567234D01*
X174866571Y-29696138D01*
X174586499Y-29883276D01*
X174348316Y-30121459D01*
X174161178Y-30401531D01*
X174032274Y-30712731D01*
X173966560Y-31043100D01*
X123538555Y-31043100D01*
X116138364Y-29470144D01*
X116103791Y-29459160D01*
X116067739Y-29455132D01*
X116067734Y-29455131D01*
X115980426Y-29445377D01*
X115959904Y-29443084D01*
X115959903Y-29443084D01*
X115948567Y-29444051D01*
X115815645Y-29455387D01*
X115676558Y-29495598D01*
X115547990Y-29562171D01*
X115434879Y-29652547D01*
X115341572Y-29763253D01*
X115271657Y-29890036D01*
X115238804Y-29993445D01*
X115238802Y-29993453D01*
X115227820Y-30028022D01*
X115223793Y-30064067D01*
X111791582Y-46211281D01*
X111780599Y-46245854D01*
X111776571Y-46281902D01*
X111776570Y-46281909D01*
X111764523Y-46389740D01*
X107143187Y-46389740D01*
X110225984Y-31886386D01*
X110236969Y-31851808D01*
X110253045Y-31707921D01*
X110240741Y-31563662D01*
X110200530Y-31424576D01*
X110133957Y-31296007D01*
X110043581Y-31182896D01*
X109932874Y-31089590D01*
X109806092Y-31019675D01*
X109702683Y-30986822D01*
X109702675Y-30986820D01*
X109668107Y-30975838D01*
X109632057Y-30971810D01*
X93484802Y-27539612D01*
X93450229Y-27528628D01*
X93414174Y-27524599D01*
X93414172Y-27524599D01*
X93396041Y-27522573D01*
X93306342Y-27512551D01*
X93162083Y-27524855D01*
X93022996Y-27565066D01*
X92894428Y-27631639D01*
X92781317Y-27722015D01*
X92688010Y-27832721D01*
X92618095Y-27959503D01*
X92585242Y-28062913D01*
X92585240Y-28062921D01*
X92574258Y-28097490D01*
X92570231Y-28133535D01*
X89138021Y-44280748D01*
X89127038Y-44315321D01*
X89123010Y-44351369D01*
X89123009Y-44351376D01*
X89110962Y-44459207D01*
X84489306Y-44459207D01*
X85813555Y-38229135D01*
X85824540Y-38194557D01*
X85840616Y-38050670D01*
X85828312Y-37906411D01*
X85788101Y-37767325D01*
X85721528Y-37638756D01*
X85631152Y-37525645D01*
X85520445Y-37432339D01*
X85393663Y-37362424D01*
X85290254Y-37329571D01*
X85290246Y-37329569D01*
X85255678Y-37318587D01*
X85219628Y-37314559D01*
X69072373Y-33882361D01*
X69037800Y-33871377D01*
X69001745Y-33867348D01*
X69001743Y-33867348D01*
X68983612Y-33865322D01*
X68893913Y-33855300D01*
X68749654Y-33867604D01*
X68610567Y-33907815D01*
X68481999Y-33974388D01*
X68368888Y-34064764D01*
X68275581Y-34175470D01*
X68205666Y-34302252D01*
X68172813Y-34405662D01*
X68172811Y-34405670D01*
X68161829Y-34440239D01*
X68157802Y-34476284D01*
X64725592Y-50623498D01*
X64714609Y-50658071D01*
X64710581Y-50694119D01*
X64710580Y-50694126D01*
X64698533Y-50801957D01*
X60076876Y-50801957D01*
X62573695Y-39055401D01*
X62584680Y-39020823D01*
X62600756Y-38876936D01*
X62588452Y-38732677D01*
X62548241Y-38593591D01*
X62481668Y-38465022D01*
X62391292Y-38351911D01*
X62280585Y-38258605D01*
X62153803Y-38188690D01*
X62050394Y-38155837D01*
X62050386Y-38155835D01*
X62015818Y-38144853D01*
X61979768Y-38140825D01*
X45832513Y-34708627D01*
X45797940Y-34697643D01*
X45761885Y-34693614D01*
X45761883Y-34693614D01*
X45743752Y-34691588D01*
X45654053Y-34681566D01*
X45509794Y-34693870D01*
X45370707Y-34734081D01*
X45242139Y-34800654D01*
X45129028Y-34891030D01*
X45035721Y-35001736D01*
X44965806Y-35128518D01*
X44932953Y-35231928D01*
X44932951Y-35231936D01*
X44921969Y-35266505D01*
X44917942Y-35302550D01*
X41485732Y-51449763D01*
X41474749Y-51484336D01*
X41470721Y-51520384D01*
X41470720Y-51520391D01*
X41458673Y-51628222D01*
X17561804Y-51628222D01*
X17540757Y-48019948D01*
X17639745Y-46937697D01*
X19391448Y-46937697D01*
X19403751Y-47081955D01*
X19443962Y-47221042D01*
X19487824Y-47305749D01*
X19510535Y-47349611D01*
X19600911Y-47462722D01*
X19660985Y-47513354D01*
X19711617Y-47556028D01*
X19756682Y-47580879D01*
X19838400Y-47625944D01*
X19890225Y-47642408D01*
X19976385Y-47669781D01*
X20012445Y-47673810D01*
X36159692Y-51106008D01*
X36194263Y-51116991D01*
X36230313Y-51121019D01*
X36230319Y-51121020D01*
X36320910Y-51131141D01*
X36338150Y-51133067D01*
X36338151Y-51133067D01*
X36482409Y-51120764D01*
X36621496Y-51080553D01*
X36750064Y-51013980D01*
X36863175Y-50923604D01*
X36956482Y-50812897D01*
X37026397Y-50686115D01*
X37070235Y-50548129D01*
X37074264Y-50512065D01*
X40506470Y-34364876D01*
X40517455Y-34330298D01*
X40533531Y-34186411D01*
X40521227Y-34042152D01*
X40481016Y-33903066D01*
X40414443Y-33774497D01*
X40324067Y-33661386D01*
X40213360Y-33568080D01*
X40086578Y-33498165D01*
X39983169Y-33465312D01*
X39983161Y-33465310D01*
X39948593Y-33454328D01*
X39912543Y-33450300D01*
X23765288Y-30018102D01*
X23730715Y-30007118D01*
X23694660Y-30003089D01*
X23694658Y-30003089D01*
X23676527Y-30001063D01*
X23586828Y-29991041D01*
X23442569Y-30003345D01*
X23303482Y-30043556D01*
X23174914Y-30110129D01*
X23061803Y-30200505D01*
X22968496Y-30311211D01*
X22898581Y-30437993D01*
X22865728Y-30541403D01*
X22865726Y-30541411D01*
X22854744Y-30575980D01*
X22850717Y-30612025D01*
X19418507Y-46759238D01*
X19407524Y-46793811D01*
X19403496Y-46829859D01*
X19403495Y-46829866D01*
X19391448Y-46937697D01*
X17639745Y-46937697D01*
X18982570Y-32256434D01*
X21347150Y-21500893D01*
X21359829Y-21459097D01*
X21366206Y-21394351D01*
X21373871Y-21329824D01*
X21370464Y-21286301D01*
X21370464Y-19130500D01*
X22404760Y-19130500D01*
X22404760Y-19467340D01*
X22470474Y-19797709D01*
X22599378Y-20108909D01*
X22786516Y-20388981D01*
X23024699Y-20627164D01*
X23304771Y-20814302D01*
X23615971Y-20943206D01*
X23946340Y-21008920D01*
X24283180Y-21008920D01*
X24613549Y-20943206D01*
X24924749Y-20814302D01*
X25204821Y-20627164D01*
X25443004Y-20388981D01*
X25630142Y-20108909D01*
X25759046Y-19797709D01*
X25824760Y-19467340D01*
X25824760Y-19130500D01*
X25759046Y-18800131D01*
X25630142Y-18488931D01*
X25443004Y-18208859D01*
X25204821Y-17970676D01*
X24924749Y-17783538D01*
X24613549Y-17654634D01*
X24283180Y-17588920D01*
X23946340Y-17588920D01*
X23615971Y-17654634D01*
X23304771Y-17783538D01*
X23024699Y-17970676D01*
X22786516Y-18208859D01*
X22599378Y-18488931D01*
X22470474Y-18800131D01*
X22404760Y-19130500D01*
X21370464Y-19130500D01*
X21370464Y-17525252D01*
X26673666Y-17525252D01*
X26673665Y-21278907D01*
G37*
X26673665Y-21278907D02*
X26670109Y-21315012D01*
X26684300Y-21459097D01*
X26726328Y-21597645D01*
X26794578Y-21725332D01*
X26886427Y-21837250D01*
X26998345Y-21929099D01*
X27126032Y-21997349D01*
X27264580Y-22039377D01*
X27408665Y-22053568D01*
X27444770Y-22050012D01*
X183036982Y-22050012D01*
X183073087Y-22053568D01*
X183109192Y-22050012D01*
X183217172Y-22039377D01*
X183355720Y-21997349D01*
X183483407Y-21929099D01*
X183595325Y-21837250D01*
X183687174Y-21725332D01*
X183755424Y-21597645D01*
X183797452Y-21459097D01*
X183811643Y-21315012D01*
X183808087Y-21278907D01*
X183808087Y-19130500D01*
X185447360Y-19130500D01*
X185447360Y-19467340D01*
X185513074Y-19797709D01*
X185641978Y-20108909D01*
X185829116Y-20388981D01*
X186067299Y-20627164D01*
X186347371Y-20814302D01*
X186658571Y-20943206D01*
X186988940Y-21008920D01*
X187325780Y-21008920D01*
X187656149Y-20943206D01*
X187967349Y-20814302D01*
X188247421Y-20627164D01*
X188485604Y-20388981D01*
X188672742Y-20108909D01*
X188801646Y-19797709D01*
X188867360Y-19467340D01*
X188867360Y-19130500D01*
X188801646Y-18800131D01*
X188672742Y-18488931D01*
X188485604Y-18208859D01*
X188247421Y-17970676D01*
X187967349Y-17783538D01*
X187656149Y-17654634D01*
X187325780Y-17588920D01*
X186988940Y-17588920D01*
X186658571Y-17654634D01*
X186347371Y-17783538D01*
X186067299Y-17970676D01*
X185829116Y-18208859D01*
X185641978Y-18488931D01*
X185513074Y-18800131D01*
X185447360Y-19130500D01*
X183808087Y-19130500D01*
X183808087Y-17525252D01*
X190484890Y-17525252D01*
X190484889Y-21302558D01*
X190482856Y-21362410D01*
X190490742Y-21410541D01*
X190495524Y-21459096D01*
X190502424Y-21481841D01*
X190506265Y-21505287D01*
X190523389Y-21550953D01*
X190537552Y-21597644D01*
X190548756Y-21618606D01*
X190557098Y-21640852D01*
X190582802Y-21682301D01*
X190605802Y-21725331D01*
X190620880Y-21743703D01*
X190633402Y-21763896D01*
X190666702Y-21799538D01*
X190697651Y-21837249D01*
X190743966Y-21875259D01*
X200005603Y-30017655D01*
X200005602Y-50836044D01*
X190475033Y-95673105D01*
X190463099Y-95712447D01*
X190462975Y-95713709D01*
X190462614Y-95714913D01*
X190456338Y-95780939D01*
X190448972Y-95846862D01*
X190449384Y-95851696D01*
X190448908Y-95856532D01*
X190449032Y-95857792D01*
X190448913Y-95859044D01*
X190455638Y-95925021D01*
X190461275Y-95991120D01*
X190462623Y-95995782D01*
X190463099Y-96000617D01*
X190463466Y-96001828D01*
X190463594Y-96003080D01*
X190483067Y-96066498D01*
X190501486Y-96130207D01*
X190503716Y-96134514D01*
X190505127Y-96139165D01*
X190505723Y-96140280D01*
X190506093Y-96141485D01*
X190537572Y-96199899D01*
X190568058Y-96258776D01*
X190571086Y-96262566D01*
X190573377Y-96266852D01*
X190597191Y-96295869D01*
X194935761Y-102741421D01*
X184846998Y-152906753D01*
X184837244Y-152937449D01*
X184832763Y-152977535D01*
X184831960Y-152981527D01*
X184828748Y-153013452D01*
X184821159Y-153081335D01*
X184821507Y-153085414D01*
X184821097Y-153089485D01*
X184827650Y-153157492D01*
X184833455Y-153225594D01*
X184834592Y-153229526D01*
X184834984Y-153233598D01*
X184854677Y-153299014D01*
X184873658Y-153364683D01*
X184875540Y-153368318D01*
X184876719Y-153372235D01*
X184908802Y-153432565D01*
X184940223Y-153493255D01*
X184942777Y-153496452D01*
X184944699Y-153500066D01*
X184987942Y-153552986D01*
X185030592Y-153606371D01*
X185033721Y-153609009D01*
X185036311Y-153612178D01*
X185089051Y-153655647D01*
X185141294Y-153699684D01*
X185144877Y-153701660D01*
X185148035Y-153704263D01*
X185208233Y-153736603D01*
X185268072Y-153769607D01*
X185271972Y-153770846D01*
X185275577Y-153772783D01*
X185340890Y-153792746D01*
X185371479Y-153802466D01*
X185375462Y-153803313D01*
X185414036Y-153815103D01*
X185446081Y-153818328D01*
X188906322Y-154554032D01*
X188657451Y-155725089D01*
X188480524Y-155460299D01*
X188242341Y-155222116D01*
X187962269Y-155034978D01*
X187651069Y-154906074D01*
X187320700Y-154840360D01*
X186983860Y-154840360D01*
X186653491Y-154906074D01*
X186342291Y-155034978D01*
X186062219Y-155222116D01*
X185824036Y-155460299D01*
X185636898Y-155740371D01*
X185507994Y-156051571D01*
X185442280Y-156381940D01*
X185442280Y-156718780D01*
X185507994Y-157049149D01*
X185636898Y-157360349D01*
X185824036Y-157640421D01*
X186062219Y-157878604D01*
X186342291Y-158065742D01*
X186653491Y-158194646D01*
X186983860Y-158260360D01*
X187320700Y-158260360D01*
X187651069Y-158194646D01*
X187962269Y-158065742D01*
X188192748Y-157911741D01*
X187963323Y-158991299D01*
X177963025Y-158991299D01*
X178018392Y-158975292D01*
X178080388Y-158943190D01*
X178146961Y-158908719D01*
X178260072Y-158818343D01*
X178310704Y-158758269D01*
X178353378Y-158707637D01*
X178378229Y-158662572D01*
X178423294Y-158580854D01*
X178467131Y-158442868D01*
X178471160Y-158406811D01*
X181903368Y-142259615D01*
X181914353Y-142225037D01*
X181930429Y-142081150D01*
X181918125Y-141936891D01*
X181877914Y-141797805D01*
X181811341Y-141669236D01*
X181720965Y-141556125D01*
X181610258Y-141462819D01*
X181483476Y-141392904D01*
X181380067Y-141360051D01*
X181380059Y-141360049D01*
X181345491Y-141349067D01*
X181309443Y-141345040D01*
X140338098Y-132636328D01*
X140303516Y-132625341D01*
X140159629Y-132609265D01*
X140015370Y-132621569D01*
X139876283Y-132661780D01*
X139747715Y-132728353D01*
X139634604Y-132818728D01*
X139541297Y-132929435D01*
X139471382Y-133056217D01*
X139438529Y-133159626D01*
X139438527Y-133159637D01*
X139427545Y-133194204D01*
X139423518Y-133230247D01*
X135991309Y-149377463D01*
X135980326Y-149412035D01*
X135976298Y-149448083D01*
X135976297Y-149448090D01*
X135964250Y-149555921D01*
X135976553Y-149700179D01*
X136016764Y-149839266D01*
X136083337Y-149967835D01*
X136173713Y-150080946D01*
X136284419Y-150174252D01*
X136329484Y-150199103D01*
X136411202Y-150244168D01*
X136494400Y-150270599D01*
X136549188Y-150288005D01*
X136585246Y-150292034D01*
X177512141Y-158991299D01*
X169118145Y-158991299D01*
X119653628Y-148524701D01*
X119614612Y-148512866D01*
X119546974Y-148506204D01*
X119479517Y-148498730D01*
X119438909Y-148502231D01*
X27270290Y-148502231D01*
X27234185Y-148498675D01*
X27198080Y-148502231D01*
X27090100Y-148512866D01*
X26951552Y-148554894D01*
X26823865Y-148623144D01*
X26711947Y-148714993D01*
X26620098Y-148826911D01*
X26551848Y-148954598D01*
X26509820Y-149093146D01*
X26495629Y-149237231D01*
X26499186Y-149273346D01*
X26499185Y-151847972D01*
X24439097Y-151848866D01*
X24613549Y-151814166D01*
X24924749Y-151685262D01*
X25204821Y-151498124D01*
X25443004Y-151259941D01*
X25630142Y-150979869D01*
X25759046Y-150668669D01*
X25824760Y-150338300D01*
X25824760Y-150001460D01*
X25759046Y-149671091D01*
X25630142Y-149359891D01*
X25443004Y-149079819D01*
X25204821Y-148841636D01*
X24924749Y-148654498D01*
X24613549Y-148525594D01*
X24283180Y-148459880D01*
X23946340Y-148459880D01*
X23615971Y-148525594D01*
X23304771Y-148654498D01*
X23024699Y-148841636D01*
X22786516Y-149079819D01*
X22599378Y-149359891D01*
X22470474Y-149671091D01*
X22404760Y-150001460D01*
X22404760Y-150338300D01*
X22470474Y-150668669D01*
X22599378Y-150979869D01*
X22786516Y-151259941D01*
X23024699Y-151498124D01*
X23304771Y-151685262D01*
X23615971Y-151814166D01*
X23791836Y-151849147D01*
X21743201Y-151850037D01*
X21743201Y-149301204D01*
X21745000Y-149290542D01*
X21743201Y-149228935D01*
X21743201Y-149203530D01*
X21742147Y-149192824D01*
X21740774Y-149145821D01*
X21735068Y-149120951D01*
X21732566Y-149095550D01*
X21718912Y-149050539D01*
X21708396Y-149004706D01*
X21697947Y-148981425D01*
X21690538Y-148957002D01*
X21668369Y-148915527D01*
X21649110Y-148872618D01*
X21634317Y-148851820D01*
X21622288Y-148829315D01*
X21592455Y-148792963D01*
X21565193Y-148754635D01*
X21546625Y-148737121D01*
X21530438Y-148717397D01*
X21494090Y-148687567D01*
X21486264Y-148680185D01*
X21466165Y-148664649D01*
X21418520Y-148625548D01*
X21408984Y-148620451D01*
X18551079Y-146411416D01*
X18390537Y-127183034D01*
X24006219Y-127183034D01*
X24009776Y-127219149D01*
X24009775Y-143771877D01*
X24006219Y-143807982D01*
X24020410Y-143952067D01*
X24062438Y-144090615D01*
X24130688Y-144218302D01*
X24222537Y-144330220D01*
X24334455Y-144422069D01*
X24462142Y-144490319D01*
X24600690Y-144532347D01*
X24744775Y-144546538D01*
X24780880Y-144542982D01*
X72309775Y-144542982D01*
X72345880Y-144546538D01*
X72381985Y-144542982D01*
X72489965Y-144532347D01*
X72628513Y-144490319D01*
X72756200Y-144422069D01*
X72868118Y-144330220D01*
X72910354Y-144278755D01*
X111137089Y-144278755D01*
X111149392Y-144423013D01*
X111189603Y-144562100D01*
X111198853Y-144579963D01*
X111256176Y-144690669D01*
X111346552Y-144803780D01*
X111406626Y-144854412D01*
X111457258Y-144897086D01*
X111502323Y-144921937D01*
X111584041Y-144967002D01*
X111667239Y-144993433D01*
X111722027Y-145010839D01*
X111758085Y-145014868D01*
X127905336Y-148447066D01*
X127939905Y-148458049D01*
X127975953Y-148462077D01*
X127975960Y-148462078D01*
X128068395Y-148472405D01*
X128083791Y-148474125D01*
X128083792Y-148474125D01*
X128228050Y-148461822D01*
X128367137Y-148421611D01*
X128495705Y-148355038D01*
X128608816Y-148264662D01*
X128702123Y-148153955D01*
X128772038Y-148027173D01*
X128815876Y-147889187D01*
X128819905Y-147853123D01*
X132151496Y-132179285D01*
X162722013Y-132179285D01*
X162734316Y-132323543D01*
X162774527Y-132462630D01*
X162783777Y-132480493D01*
X162841100Y-132591199D01*
X162931476Y-132704310D01*
X162991550Y-132754942D01*
X163042182Y-132797616D01*
X163080466Y-132818728D01*
X163168965Y-132867532D01*
X163252163Y-132893963D01*
X163306951Y-132911369D01*
X163343009Y-132915398D01*
X179490260Y-136347596D01*
X179524829Y-136358579D01*
X179560877Y-136362607D01*
X179560884Y-136362608D01*
X179653319Y-136372935D01*
X179668715Y-136374655D01*
X179668716Y-136374655D01*
X179812974Y-136362352D01*
X179952061Y-136322141D01*
X180080629Y-136255568D01*
X180193740Y-136165192D01*
X180287047Y-136054485D01*
X180356962Y-135927703D01*
X180400800Y-135789717D01*
X180404829Y-135753653D01*
X181962227Y-128426700D01*
X184329760Y-128426700D01*
X184329760Y-128763540D01*
X184395474Y-129093909D01*
X184524378Y-129405109D01*
X184711516Y-129685181D01*
X184949699Y-129923364D01*
X185229771Y-130110502D01*
X185540971Y-130239406D01*
X185871340Y-130305120D01*
X186208180Y-130305120D01*
X186538549Y-130239406D01*
X186849749Y-130110502D01*
X187129821Y-129923364D01*
X187368004Y-129685181D01*
X187555142Y-129405109D01*
X187684046Y-129093909D01*
X187749760Y-128763540D01*
X187749760Y-128426700D01*
X187684046Y-128096331D01*
X187555142Y-127785131D01*
X187368004Y-127505059D01*
X187129821Y-127266876D01*
X186849749Y-127079738D01*
X186538549Y-126950834D01*
X186208180Y-126885120D01*
X185871340Y-126885120D01*
X185540971Y-126950834D01*
X185229771Y-127079738D01*
X184949699Y-127266876D01*
X184711516Y-127505059D01*
X184524378Y-127785131D01*
X184395474Y-128096331D01*
X184329760Y-128426700D01*
X181962227Y-128426700D01*
X183837035Y-119606463D01*
X183848020Y-119571885D01*
X183863500Y-119433326D01*
X186065984Y-119433326D01*
X186078287Y-119577583D01*
X186118498Y-119716670D01*
X186185071Y-119845239D01*
X186275447Y-119958350D01*
X186300379Y-119979363D01*
X186386153Y-120051656D01*
X186512935Y-120121571D01*
X186650921Y-120165409D01*
X186686978Y-120169438D01*
X190091502Y-120893093D01*
X190126072Y-120904076D01*
X190162120Y-120908104D01*
X190162127Y-120908105D01*
X190269959Y-120920152D01*
X190414217Y-120907849D01*
X190553304Y-120867638D01*
X190681873Y-120801065D01*
X190794984Y-120710689D01*
X190809649Y-120693289D01*
X190888290Y-120599983D01*
X190958205Y-120473201D01*
X190991058Y-120369792D01*
X190991059Y-120369788D01*
X191002043Y-120335214D01*
X191006071Y-120299162D01*
X191729729Y-116894643D01*
X191740712Y-116860072D01*
X191744739Y-116824026D01*
X191744741Y-116824018D01*
X191756788Y-116716187D01*
X191755367Y-116699526D01*
X191744485Y-116571926D01*
X191704274Y-116432840D01*
X191637701Y-116304271D01*
X191547325Y-116191160D01*
X191436618Y-116097854D01*
X191309836Y-116027939D01*
X191206427Y-115995086D01*
X191206420Y-115995084D01*
X191171851Y-115984102D01*
X191135801Y-115980074D01*
X187731280Y-115256421D01*
X187696699Y-115245435D01*
X187552812Y-115229359D01*
X187408553Y-115241663D01*
X187269467Y-115281874D01*
X187140898Y-115348446D01*
X187027787Y-115438822D01*
X186934480Y-115549529D01*
X186864565Y-115676311D01*
X186831712Y-115779720D01*
X186831709Y-115779733D01*
X186820728Y-115814298D01*
X186816701Y-115850340D01*
X186093043Y-119254869D01*
X186082060Y-119289439D01*
X186078032Y-119325487D01*
X186078031Y-119325494D01*
X186066579Y-119427998D01*
X186065984Y-119433326D01*
X183863500Y-119433326D01*
X183864096Y-119427998D01*
X183851792Y-119283739D01*
X183811581Y-119144653D01*
X183745008Y-119016084D01*
X183654632Y-118902973D01*
X183543925Y-118809667D01*
X183417143Y-118739752D01*
X183313734Y-118706899D01*
X183313726Y-118706897D01*
X183279158Y-118695915D01*
X183243108Y-118691887D01*
X167095853Y-115259689D01*
X167061280Y-115248705D01*
X167025225Y-115244676D01*
X167025223Y-115244676D01*
X167007092Y-115242650D01*
X166917393Y-115232628D01*
X166773134Y-115244932D01*
X166634047Y-115285143D01*
X166505479Y-115351716D01*
X166392368Y-115442092D01*
X166299061Y-115552798D01*
X166229146Y-115679580D01*
X166196293Y-115782990D01*
X166196291Y-115782998D01*
X166185309Y-115817567D01*
X166181282Y-115853612D01*
X162749072Y-132000826D01*
X162738089Y-132035399D01*
X162734061Y-132071447D01*
X162734060Y-132071454D01*
X162722013Y-132179285D01*
X132151496Y-132179285D01*
X132252111Y-131705933D01*
X132263096Y-131671355D01*
X132279172Y-131527468D01*
X132266868Y-131383209D01*
X132226657Y-131244123D01*
X132160084Y-131115554D01*
X132069708Y-131002443D01*
X131959001Y-130909137D01*
X131832219Y-130839222D01*
X131728810Y-130806369D01*
X131728802Y-130806367D01*
X131694234Y-130795385D01*
X131658184Y-130791357D01*
X116120651Y-127488759D01*
X140654788Y-127488759D01*
X140667091Y-127633017D01*
X140707302Y-127772104D01*
X140751164Y-127856811D01*
X140773875Y-127900673D01*
X140864251Y-128013784D01*
X140920182Y-128060924D01*
X140974957Y-128107090D01*
X141020022Y-128131941D01*
X141101740Y-128177006D01*
X141171563Y-128199188D01*
X141239725Y-128220843D01*
X141275784Y-128224872D01*
X157423035Y-131657071D01*
X157457604Y-131668054D01*
X157493652Y-131672082D01*
X157493659Y-131672083D01*
X157601490Y-131684130D01*
X157745748Y-131671827D01*
X157884835Y-131631616D01*
X157969542Y-131587754D01*
X158013404Y-131565043D01*
X158126515Y-131474667D01*
X158203598Y-131383209D01*
X158219821Y-131363961D01*
X158244672Y-131318896D01*
X158289737Y-131237178D01*
X158333574Y-131099192D01*
X158337602Y-131063138D01*
X161769810Y-114915938D01*
X161780795Y-114881360D01*
X161796871Y-114737473D01*
X161784567Y-114593214D01*
X161744356Y-114454128D01*
X161677783Y-114325559D01*
X161587407Y-114212448D01*
X161476700Y-114119142D01*
X161349918Y-114049227D01*
X161246509Y-114016374D01*
X161246501Y-114016372D01*
X161211933Y-114005390D01*
X161175883Y-114001362D01*
X145028628Y-110569164D01*
X144994055Y-110558180D01*
X144958000Y-110554151D01*
X144957998Y-110554151D01*
X144939867Y-110552125D01*
X144850168Y-110542103D01*
X144705909Y-110554407D01*
X144566822Y-110594618D01*
X144438254Y-110661191D01*
X144325143Y-110751567D01*
X144231836Y-110862273D01*
X144161921Y-110989055D01*
X144129068Y-111092465D01*
X144129066Y-111092473D01*
X144118084Y-111127042D01*
X144114057Y-111163087D01*
X140681847Y-127310300D01*
X140670864Y-127344873D01*
X140666836Y-127380921D01*
X140666835Y-127380928D01*
X140654788Y-127488759D01*
X116120651Y-127488759D01*
X115510929Y-127359159D01*
X115476356Y-127348175D01*
X115440301Y-127344146D01*
X115440299Y-127344146D01*
X115422168Y-127342120D01*
X115332469Y-127332098D01*
X115188210Y-127344402D01*
X115049123Y-127384613D01*
X114920555Y-127451186D01*
X114807444Y-127541562D01*
X114714137Y-127652268D01*
X114644222Y-127779050D01*
X114611369Y-127882460D01*
X114611367Y-127882468D01*
X114600385Y-127917037D01*
X114596358Y-127953082D01*
X111164148Y-144100296D01*
X111153165Y-144134869D01*
X111149137Y-144170917D01*
X111149136Y-144170924D01*
X111137089Y-144278755D01*
X72910354Y-144278755D01*
X72959967Y-144218302D01*
X73028217Y-144090615D01*
X73070245Y-143952067D01*
X73084436Y-143807982D01*
X73080880Y-143771877D01*
X73080880Y-138415664D01*
X83553365Y-138415664D01*
X83565668Y-138559922D01*
X83605879Y-138699009D01*
X83615129Y-138716872D01*
X83672452Y-138827578D01*
X83762828Y-138940689D01*
X83822902Y-138991321D01*
X83873534Y-139033995D01*
X83918599Y-139058846D01*
X84000317Y-139103911D01*
X84083515Y-139130342D01*
X84138303Y-139147748D01*
X84174361Y-139151777D01*
X100321608Y-142583975D01*
X100356179Y-142594958D01*
X100392229Y-142598986D01*
X100392235Y-142598987D01*
X100500066Y-142611034D01*
X100644325Y-142598731D01*
X100783412Y-142558520D01*
X100911980Y-142491947D01*
X101025091Y-142401571D01*
X101118398Y-142290864D01*
X101188313Y-142164082D01*
X101219314Y-142066500D01*
X104548360Y-142066500D01*
X104548360Y-142403340D01*
X104614074Y-142733709D01*
X104742978Y-143044909D01*
X104930116Y-143324981D01*
X105168299Y-143563164D01*
X105448371Y-143750302D01*
X105759571Y-143879206D01*
X106089940Y-143944920D01*
X106426780Y-143944920D01*
X106757149Y-143879206D01*
X107068349Y-143750302D01*
X107348421Y-143563164D01*
X107586604Y-143324981D01*
X107773742Y-143044909D01*
X107902646Y-142733709D01*
X107968360Y-142403340D01*
X107968360Y-142066500D01*
X107902646Y-141736131D01*
X107773742Y-141424931D01*
X107586604Y-141144859D01*
X107348421Y-140906676D01*
X107068349Y-140719538D01*
X106757149Y-140590634D01*
X106426780Y-140524920D01*
X106089940Y-140524920D01*
X105759571Y-140590634D01*
X105448371Y-140719538D01*
X105168299Y-140906676D01*
X104930116Y-141144859D01*
X104742978Y-141424931D01*
X104614074Y-141736131D01*
X104548360Y-142066500D01*
X101219314Y-142066500D01*
X101232151Y-142026096D01*
X101236180Y-141990032D01*
X104668387Y-125842842D01*
X104679372Y-125808264D01*
X104695448Y-125664377D01*
X104683144Y-125520118D01*
X104642933Y-125381032D01*
X104576360Y-125252463D01*
X104485984Y-125139352D01*
X104375277Y-125046046D01*
X104248495Y-124976131D01*
X104145086Y-124943278D01*
X104145078Y-124943276D01*
X104110510Y-124932294D01*
X104074462Y-124928267D01*
X87927205Y-121496068D01*
X87892632Y-121485084D01*
X87856577Y-121481055D01*
X87856575Y-121481055D01*
X87838444Y-121479029D01*
X87748745Y-121469007D01*
X87604486Y-121481311D01*
X87465399Y-121521522D01*
X87336831Y-121588095D01*
X87223720Y-121678471D01*
X87130413Y-121789177D01*
X87060498Y-121915959D01*
X87027645Y-122019369D01*
X87027643Y-122019377D01*
X87016661Y-122053946D01*
X87012634Y-122089991D01*
X83580424Y-138237205D01*
X83569441Y-138271778D01*
X83565413Y-138307826D01*
X83565412Y-138307833D01*
X83553365Y-138415664D01*
X73080880Y-138415664D01*
X73080880Y-127219139D01*
X73084436Y-127183034D01*
X73070245Y-127038949D01*
X73028217Y-126900401D01*
X72959967Y-126772714D01*
X72868118Y-126660796D01*
X72756200Y-126568947D01*
X72628513Y-126500697D01*
X72489965Y-126458669D01*
X72381985Y-126448034D01*
X72345880Y-126444478D01*
X72309775Y-126448034D01*
X24780880Y-126448034D01*
X24744775Y-126444478D01*
X24708670Y-126448034D01*
X24600690Y-126458669D01*
X24462142Y-126500697D01*
X24334455Y-126568947D01*
X24222537Y-126660796D01*
X24130688Y-126772714D01*
X24062438Y-126900401D01*
X24020410Y-127038949D01*
X24006219Y-127183034D01*
X18390537Y-127183034D01*
X18354974Y-122923629D01*
X18357899Y-122900187D01*
X18354370Y-122851395D01*
X18354265Y-122838763D01*
X18351769Y-122815416D01*
X18347456Y-122755782D01*
X18344081Y-122743516D01*
X18342729Y-122730876D01*
X18324907Y-122673842D01*
X18309041Y-122616189D01*
X18303338Y-122604818D01*
X18299546Y-122592684D01*
X18270940Y-122540224D01*
X18260396Y-122519202D01*
X18253644Y-122508505D01*
X18230232Y-122465571D01*
X18215098Y-122447441D01*
X14560022Y-116657076D01*
X21870251Y-116657076D01*
X21882554Y-116801334D01*
X21922765Y-116940421D01*
X21952610Y-116998058D01*
X21989338Y-117068990D01*
X22079714Y-117182101D01*
X22126985Y-117221942D01*
X22190420Y-117275407D01*
X22235485Y-117300258D01*
X22317203Y-117345323D01*
X22387026Y-117367505D01*
X22455188Y-117389160D01*
X22491247Y-117393189D01*
X38638498Y-120825388D01*
X38673067Y-120836371D01*
X38709115Y-120840399D01*
X38709122Y-120840400D01*
X38816953Y-120852447D01*
X38961211Y-120840144D01*
X39100298Y-120799933D01*
X39221802Y-120737018D01*
X39228867Y-120733360D01*
X39341978Y-120642984D01*
X39406528Y-120566396D01*
X39435284Y-120532278D01*
X39477714Y-120455336D01*
X39505200Y-120405495D01*
X39549037Y-120267509D01*
X39553065Y-120231455D01*
X40239203Y-117003442D01*
X50626917Y-117003442D01*
X50639220Y-117147700D01*
X50679431Y-117286787D01*
X50723293Y-117371494D01*
X50746004Y-117415356D01*
X50836380Y-117528467D01*
X50896454Y-117579099D01*
X50947086Y-117621773D01*
X50992151Y-117646624D01*
X51073869Y-117691689D01*
X51143692Y-117713871D01*
X51211854Y-117735526D01*
X51247914Y-117739555D01*
X67395161Y-121171753D01*
X67429732Y-121182736D01*
X67465782Y-121186764D01*
X67465788Y-121186765D01*
X67556379Y-121196886D01*
X67573619Y-121198812D01*
X67573620Y-121198812D01*
X67717878Y-121186509D01*
X67856965Y-121146298D01*
X67985533Y-121079725D01*
X68098644Y-120989349D01*
X68191951Y-120878642D01*
X68261866Y-120751860D01*
X68305704Y-120613874D01*
X68309733Y-120577810D01*
X68423756Y-120041372D01*
X119173555Y-120041372D01*
X119185858Y-120185630D01*
X119226069Y-120324717D01*
X119249409Y-120369792D01*
X119292642Y-120453286D01*
X119383018Y-120566397D01*
X119422868Y-120599983D01*
X119493724Y-120659703D01*
X119538789Y-120684554D01*
X119620507Y-120729619D01*
X119703705Y-120756050D01*
X119758493Y-120773456D01*
X119794551Y-120777485D01*
X135941802Y-124209683D01*
X135976371Y-124220666D01*
X136012419Y-124224694D01*
X136012426Y-124224695D01*
X136104861Y-124235022D01*
X136120257Y-124236742D01*
X136120258Y-124236742D01*
X136264516Y-124224439D01*
X136403603Y-124184228D01*
X136532171Y-124117655D01*
X136645282Y-124027279D01*
X136738589Y-123916572D01*
X136808504Y-123789790D01*
X136852342Y-123651804D01*
X136856371Y-123615740D01*
X139726665Y-110112123D01*
X167412552Y-110112123D01*
X167424855Y-110256381D01*
X167465066Y-110395468D01*
X167474316Y-110413331D01*
X167531639Y-110524037D01*
X167622015Y-110637148D01*
X167682089Y-110687780D01*
X167732721Y-110730454D01*
X167771007Y-110751567D01*
X167859504Y-110800370D01*
X167942702Y-110826801D01*
X167997490Y-110844207D01*
X168033548Y-110848236D01*
X184180799Y-114280434D01*
X184215368Y-114291417D01*
X184251416Y-114295445D01*
X184251423Y-114295446D01*
X184340485Y-114305396D01*
X184359254Y-114307493D01*
X184359255Y-114307493D01*
X184503513Y-114295190D01*
X184642600Y-114254979D01*
X184771168Y-114188406D01*
X184884279Y-114098030D01*
X184977586Y-113987323D01*
X185047501Y-113860541D01*
X185091339Y-113722555D01*
X185095368Y-113686491D01*
X185998465Y-109437771D01*
X188190717Y-109437771D01*
X188203020Y-109582028D01*
X188218500Y-109635571D01*
X188243231Y-109721116D01*
X188309804Y-109849685D01*
X188322650Y-109865762D01*
X188400179Y-109962795D01*
X188510886Y-110056102D01*
X188637668Y-110126017D01*
X188775654Y-110169855D01*
X188811711Y-110173884D01*
X192216234Y-110897538D01*
X192250806Y-110908521D01*
X192286856Y-110912549D01*
X192286862Y-110912550D01*
X192394693Y-110924597D01*
X192538952Y-110912294D01*
X192678038Y-110872083D01*
X192806607Y-110805510D01*
X192919718Y-110715134D01*
X192985447Y-110637147D01*
X193013024Y-110604428D01*
X193082939Y-110477646D01*
X193082940Y-110477645D01*
X193126777Y-110339659D01*
X193130805Y-110303605D01*
X193854462Y-106899088D01*
X193865445Y-106864517D01*
X193869472Y-106828471D01*
X193869474Y-106828463D01*
X193881521Y-106720631D01*
X193877353Y-106671754D01*
X193869218Y-106576372D01*
X193829007Y-106437285D01*
X193762434Y-106308716D01*
X193672058Y-106195605D01*
X193561351Y-106102299D01*
X193504485Y-106070940D01*
X193434570Y-106032384D01*
X193296584Y-105988546D01*
X193260527Y-105984517D01*
X189856005Y-105260864D01*
X189821433Y-105249881D01*
X189785380Y-105245853D01*
X189785377Y-105245852D01*
X189760325Y-105243053D01*
X189677546Y-105233804D01*
X189533288Y-105246108D01*
X189394201Y-105286319D01*
X189265632Y-105352891D01*
X189152521Y-105443267D01*
X189059215Y-105553974D01*
X188989299Y-105680756D01*
X188956446Y-105784165D01*
X188956443Y-105784178D01*
X188945462Y-105818743D01*
X188941435Y-105854785D01*
X188217778Y-109259307D01*
X188206793Y-109293885D01*
X188202765Y-109329939D01*
X188190717Y-109437771D01*
X185998465Y-109437771D01*
X188527574Y-97539301D01*
X188538559Y-97504723D01*
X188554635Y-97360836D01*
X188542331Y-97216577D01*
X188502120Y-97077491D01*
X188435547Y-96948922D01*
X188345171Y-96835811D01*
X188234464Y-96742505D01*
X188107682Y-96672590D01*
X188004273Y-96639737D01*
X188004265Y-96639735D01*
X187969697Y-96628753D01*
X187933647Y-96624725D01*
X171786392Y-93192527D01*
X171751819Y-93181543D01*
X171715764Y-93177514D01*
X171715762Y-93177514D01*
X171697631Y-93175488D01*
X171607932Y-93165466D01*
X171463673Y-93177770D01*
X171324586Y-93217981D01*
X171196018Y-93284554D01*
X171082907Y-93374930D01*
X170989600Y-93485636D01*
X170919685Y-93612418D01*
X170886832Y-93715828D01*
X170886830Y-93715836D01*
X170875848Y-93750405D01*
X170871821Y-93786450D01*
X167439611Y-109933664D01*
X167428628Y-109968237D01*
X167424600Y-110004285D01*
X167424599Y-110004292D01*
X167412552Y-110112123D01*
X139726665Y-110112123D01*
X140288577Y-107468550D01*
X140299562Y-107433972D01*
X140315638Y-107290085D01*
X140303334Y-107145826D01*
X140263123Y-107006740D01*
X140196550Y-106878171D01*
X140106174Y-106765060D01*
X139995467Y-106671754D01*
X139868685Y-106601839D01*
X139765276Y-106568986D01*
X139765268Y-106568984D01*
X139730700Y-106558002D01*
X139694650Y-106553974D01*
X134367229Y-105421598D01*
X145345327Y-105421598D01*
X145357630Y-105565856D01*
X145397841Y-105704943D01*
X145441703Y-105789650D01*
X145464414Y-105833512D01*
X145554790Y-105946623D01*
X145614864Y-105997255D01*
X145665496Y-106039929D01*
X145710561Y-106064780D01*
X145792279Y-106109845D01*
X145875477Y-106136276D01*
X145930265Y-106153682D01*
X145966323Y-106157711D01*
X162113574Y-109589909D01*
X162148143Y-109600892D01*
X162184191Y-109604920D01*
X162184198Y-109604921D01*
X162276633Y-109615248D01*
X162292029Y-109616968D01*
X162292030Y-109616968D01*
X162436288Y-109604665D01*
X162575375Y-109564454D01*
X162703943Y-109497881D01*
X162817054Y-109407505D01*
X162910361Y-109296798D01*
X162980276Y-109170016D01*
X163024114Y-109032030D01*
X163028143Y-108995966D01*
X166460349Y-92848776D01*
X166471334Y-92814198D01*
X166487410Y-92670311D01*
X166475106Y-92526052D01*
X166434895Y-92386966D01*
X166368322Y-92258397D01*
X166277946Y-92145286D01*
X166167239Y-92051980D01*
X166040457Y-91982065D01*
X165937048Y-91949212D01*
X165937040Y-91949210D01*
X165902472Y-91938228D01*
X165866422Y-91934200D01*
X149719167Y-88502002D01*
X149684594Y-88491018D01*
X149648539Y-88486989D01*
X149648537Y-88486989D01*
X149630406Y-88484963D01*
X149540707Y-88474941D01*
X149396448Y-88487245D01*
X149257361Y-88527456D01*
X149128793Y-88594029D01*
X149015682Y-88684405D01*
X148922375Y-88795111D01*
X148852460Y-88921893D01*
X148819607Y-89025303D01*
X148819605Y-89025311D01*
X148808623Y-89059880D01*
X148804596Y-89095925D01*
X145372386Y-105243139D01*
X145361403Y-105277712D01*
X145357375Y-105313760D01*
X145357374Y-105313767D01*
X145345327Y-105421598D01*
X134367229Y-105421598D01*
X123547395Y-103121776D01*
X123512822Y-103110792D01*
X123476767Y-103106763D01*
X123476765Y-103106763D01*
X123458634Y-103104737D01*
X123368935Y-103094715D01*
X123224676Y-103107019D01*
X123085589Y-103147230D01*
X122957021Y-103213803D01*
X122843910Y-103304179D01*
X122750603Y-103414885D01*
X122680688Y-103541667D01*
X122647835Y-103645077D01*
X122647833Y-103645085D01*
X122636851Y-103679654D01*
X122632824Y-103715699D01*
X119200614Y-119862913D01*
X119189631Y-119897486D01*
X119185603Y-119933534D01*
X119185602Y-119933541D01*
X119173555Y-120041372D01*
X68423756Y-120041372D01*
X70417755Y-110660386D01*
X75039411Y-110660386D01*
X75051714Y-110804644D01*
X75091925Y-110943731D01*
X75124644Y-111006919D01*
X75158498Y-111072300D01*
X75248874Y-111185411D01*
X75308948Y-111236043D01*
X75359580Y-111278717D01*
X75404645Y-111303568D01*
X75486363Y-111348633D01*
X75556186Y-111370815D01*
X75624348Y-111392470D01*
X75660407Y-111396499D01*
X91807658Y-114828698D01*
X91842227Y-114839681D01*
X91878275Y-114843709D01*
X91878282Y-114843710D01*
X91986113Y-114855757D01*
X92130371Y-114843454D01*
X92269458Y-114803243D01*
X92354165Y-114759381D01*
X92398027Y-114736670D01*
X92511138Y-114646294D01*
X92600999Y-114539675D01*
X92604444Y-114535588D01*
X92649365Y-114454129D01*
X92674360Y-114408805D01*
X92718197Y-114270819D01*
X92722225Y-114234765D01*
X93071636Y-112590919D01*
X97692973Y-112590919D01*
X97705276Y-112735177D01*
X97745487Y-112874264D01*
X97753854Y-112890422D01*
X97812060Y-113002833D01*
X97902436Y-113115944D01*
X97962510Y-113166576D01*
X98013142Y-113209250D01*
X98058207Y-113234101D01*
X98139925Y-113279166D01*
X98223123Y-113305597D01*
X98277911Y-113323003D01*
X98313969Y-113327032D01*
X114461220Y-116759230D01*
X114495789Y-116770213D01*
X114531837Y-116774241D01*
X114531844Y-116774242D01*
X114624279Y-116784569D01*
X114639675Y-116786289D01*
X114639676Y-116786289D01*
X114783934Y-116773986D01*
X114923021Y-116733775D01*
X115051589Y-116667202D01*
X115164700Y-116576826D01*
X115258007Y-116466119D01*
X115327922Y-116339337D01*
X115371760Y-116201351D01*
X115375789Y-116165287D01*
X118807995Y-100018097D01*
X118818980Y-99983519D01*
X118835056Y-99839632D01*
X118822752Y-99695373D01*
X118782541Y-99556287D01*
X118715968Y-99427718D01*
X118625592Y-99314607D01*
X118514885Y-99221301D01*
X118388103Y-99151386D01*
X118284694Y-99118533D01*
X118284686Y-99118531D01*
X118250118Y-99107549D01*
X118214068Y-99103521D01*
X112901067Y-97974210D01*
X123864094Y-97974210D01*
X123876397Y-98118468D01*
X123916608Y-98257555D01*
X123947780Y-98317755D01*
X123983181Y-98386124D01*
X124073557Y-98499235D01*
X124107389Y-98527749D01*
X124184263Y-98592541D01*
X124229328Y-98617392D01*
X124311046Y-98662457D01*
X124394244Y-98688888D01*
X124449032Y-98706294D01*
X124485090Y-98710323D01*
X140632337Y-102142521D01*
X140666908Y-102153504D01*
X140702958Y-102157532D01*
X140702964Y-102157533D01*
X140810795Y-102169580D01*
X140955054Y-102157277D01*
X141094141Y-102117066D01*
X141222709Y-102050493D01*
X141335820Y-101960117D01*
X141429127Y-101849410D01*
X141499042Y-101722628D01*
X141542880Y-101584642D01*
X141546909Y-101548578D01*
X144417139Y-88045267D01*
X172103025Y-88045267D01*
X172115328Y-88189525D01*
X172155539Y-88328612D01*
X172164789Y-88346475D01*
X172222112Y-88457181D01*
X172312488Y-88570292D01*
X172372562Y-88620924D01*
X172423194Y-88663598D01*
X172460925Y-88684405D01*
X172549977Y-88733514D01*
X172619800Y-88755696D01*
X172687962Y-88777351D01*
X172724021Y-88781380D01*
X188871272Y-92213579D01*
X188905841Y-92224562D01*
X188941889Y-92228590D01*
X188941896Y-92228591D01*
X189049727Y-92240638D01*
X189193985Y-92228335D01*
X189333072Y-92188124D01*
X189417779Y-92144262D01*
X189461641Y-92121551D01*
X189574752Y-92031175D01*
X189625384Y-91971101D01*
X189668058Y-91920469D01*
X189692909Y-91875404D01*
X189737974Y-91793686D01*
X189781811Y-91655700D01*
X189785839Y-91619646D01*
X193218047Y-75472446D01*
X193229032Y-75437868D01*
X193245108Y-75293981D01*
X193232804Y-75149722D01*
X193192593Y-75010636D01*
X193126020Y-74882067D01*
X193035644Y-74768956D01*
X192924937Y-74675650D01*
X192798155Y-74605735D01*
X192694746Y-74572882D01*
X192694738Y-74572880D01*
X192660170Y-74561898D01*
X192624120Y-74557870D01*
X176476865Y-71125672D01*
X176442292Y-71114688D01*
X176406237Y-71110659D01*
X176406235Y-71110659D01*
X176388104Y-71108633D01*
X176298405Y-71098611D01*
X176154146Y-71110915D01*
X176015059Y-71151126D01*
X175886491Y-71217699D01*
X175773380Y-71308075D01*
X175680073Y-71418781D01*
X175610158Y-71545563D01*
X175577305Y-71648973D01*
X175577303Y-71648981D01*
X175566321Y-71683550D01*
X175562294Y-71719595D01*
X172130084Y-87866808D01*
X172119101Y-87901381D01*
X172115073Y-87937429D01*
X172115072Y-87937436D01*
X172103025Y-88045267D01*
X144417139Y-88045267D01*
X144979116Y-85401388D01*
X144990101Y-85366810D01*
X145006177Y-85222923D01*
X144993873Y-85078664D01*
X144953662Y-84939578D01*
X144887089Y-84811009D01*
X144796713Y-84697898D01*
X144686006Y-84604592D01*
X144559224Y-84534677D01*
X144455815Y-84501824D01*
X144455807Y-84501822D01*
X144421239Y-84490840D01*
X144385191Y-84486813D01*
X139059206Y-83354742D01*
X150035800Y-83354742D01*
X150048103Y-83499000D01*
X150088314Y-83638087D01*
X150097564Y-83655950D01*
X150154887Y-83766656D01*
X150245263Y-83879767D01*
X150305337Y-83930399D01*
X150355969Y-83973073D01*
X150401034Y-83997924D01*
X150482752Y-84042989D01*
X150552575Y-84065171D01*
X150620737Y-84086826D01*
X150656797Y-84090855D01*
X166804044Y-87523053D01*
X166838615Y-87534036D01*
X166874665Y-87538064D01*
X166874671Y-87538065D01*
X166965262Y-87548186D01*
X166982502Y-87550112D01*
X166982503Y-87550112D01*
X167126761Y-87537809D01*
X167265848Y-87497598D01*
X167394416Y-87431025D01*
X167507527Y-87340649D01*
X167600834Y-87229942D01*
X167670749Y-87103160D01*
X167714587Y-86965174D01*
X167718616Y-86929110D01*
X171150822Y-70781921D01*
X171161807Y-70747343D01*
X171177883Y-70603456D01*
X171165579Y-70459197D01*
X171125368Y-70320111D01*
X171058795Y-70191542D01*
X170968419Y-70078431D01*
X170857712Y-69985125D01*
X170730930Y-69915210D01*
X170627521Y-69882357D01*
X170627513Y-69882355D01*
X170592945Y-69871373D01*
X170556895Y-69867345D01*
X154409640Y-66435147D01*
X154375067Y-66424163D01*
X154339012Y-66420134D01*
X154339010Y-66420134D01*
X154320879Y-66418108D01*
X154231180Y-66408086D01*
X154086921Y-66420390D01*
X153947834Y-66460601D01*
X153819266Y-66527174D01*
X153706155Y-66617550D01*
X153612848Y-66728256D01*
X153542933Y-66855038D01*
X153510080Y-66958448D01*
X153510078Y-66958456D01*
X153499096Y-66993025D01*
X153495069Y-67029070D01*
X150062859Y-83176283D01*
X150051876Y-83210856D01*
X150047848Y-83246904D01*
X150047847Y-83246911D01*
X150035800Y-83354742D01*
X139059206Y-83354742D01*
X128237934Y-81054614D01*
X128203361Y-81043630D01*
X128167306Y-81039601D01*
X128167304Y-81039601D01*
X128149173Y-81037575D01*
X128059474Y-81027553D01*
X127915215Y-81039857D01*
X127776128Y-81080068D01*
X127647560Y-81146641D01*
X127534449Y-81237017D01*
X127441142Y-81347723D01*
X127371227Y-81474505D01*
X127338374Y-81577915D01*
X127338372Y-81577923D01*
X127327390Y-81612492D01*
X127323363Y-81648537D01*
X123891153Y-97795751D01*
X123880170Y-97830324D01*
X123876142Y-97866372D01*
X123876141Y-97866379D01*
X123864094Y-97974210D01*
X112901067Y-97974210D01*
X102066813Y-95671323D01*
X102032240Y-95660339D01*
X101996185Y-95656310D01*
X101996183Y-95656310D01*
X101978052Y-95654284D01*
X101888353Y-95644262D01*
X101744094Y-95656566D01*
X101605007Y-95696777D01*
X101476439Y-95763350D01*
X101363328Y-95853726D01*
X101270021Y-95964432D01*
X101200106Y-96091214D01*
X101167253Y-96194624D01*
X101167251Y-96194632D01*
X101156269Y-96229201D01*
X101152242Y-96265246D01*
X97720032Y-112412460D01*
X97709049Y-112447033D01*
X97705021Y-112483081D01*
X97705020Y-112483088D01*
X97692973Y-112590919D01*
X93071636Y-112590919D01*
X96154433Y-98087565D01*
X96165418Y-98052987D01*
X96181494Y-97909100D01*
X96169190Y-97764841D01*
X96128979Y-97625755D01*
X96062406Y-97497186D01*
X95972030Y-97384075D01*
X95861323Y-97290769D01*
X95734541Y-97220854D01*
X95631132Y-97188001D01*
X95631124Y-97187999D01*
X95596556Y-97177017D01*
X95560506Y-97172989D01*
X79413252Y-93740791D01*
X79378679Y-93729807D01*
X79342627Y-93725779D01*
X79342622Y-93725778D01*
X79253561Y-93715828D01*
X79234792Y-93713731D01*
X79234791Y-93713731D01*
X79223455Y-93714698D01*
X79090533Y-93726034D01*
X78951446Y-93766245D01*
X78822878Y-93832818D01*
X78709767Y-93923194D01*
X78616460Y-94033900D01*
X78546545Y-94160683D01*
X78513692Y-94264092D01*
X78513690Y-94264100D01*
X78502708Y-94298669D01*
X78498681Y-94334714D01*
X75066470Y-110481927D01*
X75055487Y-110516500D01*
X75051459Y-110552548D01*
X75051458Y-110552555D01*
X75039411Y-110660386D01*
X70417755Y-110660386D01*
X71741939Y-104430621D01*
X71752924Y-104396043D01*
X71769000Y-104252156D01*
X71756696Y-104107897D01*
X71716485Y-103968811D01*
X71649912Y-103840242D01*
X71559536Y-103727131D01*
X71448829Y-103633825D01*
X71322047Y-103563910D01*
X71218638Y-103531057D01*
X71218630Y-103531055D01*
X71184062Y-103520073D01*
X71148012Y-103516045D01*
X55000757Y-100083847D01*
X54966184Y-100072863D01*
X54930129Y-100068834D01*
X54930127Y-100068834D01*
X54911996Y-100066808D01*
X54822297Y-100056786D01*
X54678038Y-100069090D01*
X54538951Y-100109301D01*
X54410383Y-100175874D01*
X54297272Y-100266250D01*
X54203965Y-100376956D01*
X54134050Y-100503738D01*
X54101197Y-100607148D01*
X54101195Y-100607156D01*
X54090213Y-100641725D01*
X54086186Y-100677770D01*
X50653976Y-116824983D01*
X50642993Y-116859556D01*
X50638965Y-116895604D01*
X50638964Y-116895611D01*
X50626917Y-117003442D01*
X40239203Y-117003442D01*
X42985273Y-104084255D01*
X42996258Y-104049677D01*
X43012334Y-103905790D01*
X43000030Y-103761531D01*
X42959819Y-103622445D01*
X42893246Y-103493876D01*
X42802870Y-103380765D01*
X42692163Y-103287459D01*
X42565381Y-103217544D01*
X42461972Y-103184691D01*
X42461964Y-103184689D01*
X42427396Y-103173707D01*
X42391346Y-103169679D01*
X26244091Y-99737481D01*
X26209518Y-99726497D01*
X26173463Y-99722468D01*
X26173461Y-99722468D01*
X26155330Y-99720442D01*
X26065631Y-99710420D01*
X25921372Y-99722724D01*
X25782285Y-99762935D01*
X25653717Y-99829508D01*
X25540606Y-99919884D01*
X25447299Y-100030590D01*
X25377384Y-100157372D01*
X25344531Y-100260782D01*
X25344529Y-100260790D01*
X25333547Y-100295359D01*
X25329520Y-100331404D01*
X21897310Y-116478617D01*
X21886327Y-116513190D01*
X21882299Y-116549238D01*
X21882298Y-116549245D01*
X21870251Y-116657076D01*
X14560022Y-116657076D01*
X14351212Y-116326280D01*
X14001600Y-94004837D01*
X23808210Y-94004837D01*
X23820513Y-94149095D01*
X23860724Y-94288182D01*
X23904586Y-94372889D01*
X23927297Y-94416751D01*
X24017673Y-94529862D01*
X24064968Y-94569723D01*
X24128379Y-94623168D01*
X24173444Y-94648019D01*
X24255162Y-94693084D01*
X24337139Y-94719127D01*
X24393148Y-94736921D01*
X24429206Y-94740950D01*
X40569100Y-98171585D01*
X40603669Y-98182567D01*
X40639717Y-98186595D01*
X40639724Y-98186596D01*
X40747556Y-98198643D01*
X40891814Y-98186340D01*
X41030901Y-98146129D01*
X41139954Y-98089661D01*
X41159470Y-98079556D01*
X41272581Y-97989180D01*
X41340074Y-97909100D01*
X41365887Y-97878474D01*
X41435802Y-97751691D01*
X41468655Y-97648282D01*
X41468655Y-97648281D01*
X41479640Y-97613705D01*
X41483668Y-97577651D01*
X42045111Y-94936280D01*
X55317456Y-94936280D01*
X55329759Y-95080538D01*
X55369970Y-95219625D01*
X55413832Y-95304332D01*
X55436543Y-95348194D01*
X55526919Y-95461305D01*
X55586993Y-95511937D01*
X55637625Y-95554611D01*
X55672602Y-95573899D01*
X55764408Y-95624527D01*
X55826529Y-95644262D01*
X55902393Y-95668364D01*
X55938452Y-95672393D01*
X72085703Y-99104592D01*
X72120272Y-99115575D01*
X72156320Y-99119603D01*
X72156327Y-99119604D01*
X72264158Y-99131651D01*
X72408416Y-99119348D01*
X72547503Y-99079137D01*
X72632210Y-99035275D01*
X72676072Y-99012564D01*
X72789183Y-98922188D01*
X72839815Y-98862114D01*
X72882489Y-98811482D01*
X72907340Y-98766417D01*
X72952405Y-98684699D01*
X72996242Y-98546713D01*
X73000270Y-98510659D01*
X75108294Y-88593226D01*
X79729950Y-88593226D01*
X79730935Y-88604771D01*
X79742253Y-88737483D01*
X79782464Y-88876570D01*
X79826326Y-88961277D01*
X79849037Y-89005139D01*
X79939413Y-89118250D01*
X79999487Y-89168882D01*
X80050119Y-89211556D01*
X80095184Y-89236407D01*
X80176902Y-89281472D01*
X80260100Y-89307903D01*
X80314888Y-89325309D01*
X80350946Y-89329338D01*
X96498194Y-92761536D01*
X96532765Y-92772519D01*
X96568815Y-92776547D01*
X96568821Y-92776548D01*
X96659412Y-92786669D01*
X96676652Y-92788595D01*
X96676653Y-92788595D01*
X96820911Y-92776292D01*
X96959998Y-92736081D01*
X97088566Y-92669508D01*
X97201677Y-92579132D01*
X97294984Y-92468425D01*
X97364899Y-92341643D01*
X97408737Y-92203657D01*
X97412766Y-92167593D01*
X97762175Y-90523757D01*
X102383512Y-90523757D01*
X102395815Y-90668015D01*
X102436026Y-90807102D01*
X102445276Y-90824965D01*
X102502599Y-90935671D01*
X102592975Y-91048782D01*
X102653049Y-91099414D01*
X102703681Y-91142088D01*
X102748746Y-91166939D01*
X102830464Y-91212004D01*
X102904830Y-91235629D01*
X102968450Y-91255841D01*
X103004508Y-91259870D01*
X119151755Y-94692068D01*
X119186326Y-94703051D01*
X119222376Y-94707079D01*
X119222382Y-94707080D01*
X119330213Y-94719127D01*
X119474472Y-94706824D01*
X119613559Y-94666613D01*
X119742127Y-94600040D01*
X119855238Y-94509664D01*
X119948545Y-94398957D01*
X120018460Y-94272175D01*
X120062298Y-94134189D01*
X120066327Y-94098125D01*
X123498535Y-77950929D01*
X123509518Y-77916358D01*
X123513545Y-77880312D01*
X123513547Y-77880304D01*
X123525594Y-77772473D01*
X123525594Y-77772471D01*
X123513291Y-77628212D01*
X123473080Y-77489126D01*
X123406507Y-77360557D01*
X123316131Y-77247446D01*
X123205424Y-77154140D01*
X123078642Y-77084224D01*
X122975232Y-77051372D01*
X122975227Y-77051371D01*
X122940657Y-77040388D01*
X122904607Y-77036360D01*
X117591603Y-75907048D01*
X128554632Y-75907048D01*
X128566935Y-76051306D01*
X128607146Y-76190393D01*
X128639724Y-76253308D01*
X128673719Y-76318962D01*
X128764095Y-76432073D01*
X128797927Y-76460587D01*
X128874801Y-76525379D01*
X128919866Y-76550230D01*
X129001584Y-76595295D01*
X129084782Y-76621726D01*
X129139570Y-76639132D01*
X129175628Y-76643161D01*
X145322876Y-80075359D01*
X145357447Y-80086342D01*
X145393497Y-80090370D01*
X145393503Y-80090371D01*
X145484094Y-80100492D01*
X145501334Y-80102418D01*
X145501335Y-80102418D01*
X145645593Y-80090115D01*
X145784680Y-80049904D01*
X145913248Y-79983331D01*
X146026359Y-79892955D01*
X146119666Y-79782248D01*
X146189581Y-79655466D01*
X146233419Y-79517480D01*
X146237448Y-79481416D01*
X149107677Y-65978106D01*
X176793564Y-65978106D01*
X176805867Y-66122364D01*
X176846078Y-66261451D01*
X176855328Y-66279314D01*
X176912651Y-66390020D01*
X177003027Y-66503131D01*
X177063101Y-66553763D01*
X177113733Y-66596437D01*
X177152019Y-66617550D01*
X177240516Y-66666353D01*
X177323714Y-66692784D01*
X177378502Y-66710190D01*
X177414560Y-66714219D01*
X193561811Y-70146417D01*
X193596380Y-70157400D01*
X193632428Y-70161428D01*
X193632435Y-70161429D01*
X193718749Y-70171072D01*
X193740266Y-70173476D01*
X193740267Y-70173476D01*
X193884525Y-70161173D01*
X194023612Y-70120962D01*
X194152180Y-70054389D01*
X194265291Y-69964013D01*
X194358598Y-69853306D01*
X194428513Y-69726524D01*
X194472351Y-69588538D01*
X194476380Y-69552474D01*
X197908586Y-53405284D01*
X197919571Y-53370706D01*
X197935647Y-53226819D01*
X197923343Y-53082560D01*
X197883132Y-52943474D01*
X197816559Y-52814905D01*
X197726183Y-52701794D01*
X197615476Y-52608488D01*
X197488694Y-52538573D01*
X197385285Y-52505720D01*
X197385277Y-52505718D01*
X197350709Y-52494736D01*
X197314659Y-52490708D01*
X181167404Y-49058510D01*
X181132831Y-49047526D01*
X181096776Y-49043497D01*
X181096774Y-49043497D01*
X181078643Y-49041471D01*
X180988944Y-49031449D01*
X180844685Y-49043753D01*
X180705598Y-49083964D01*
X180577030Y-49150537D01*
X180463919Y-49240913D01*
X180370612Y-49351619D01*
X180300697Y-49478401D01*
X180267844Y-49581811D01*
X180267842Y-49581819D01*
X180256860Y-49616388D01*
X180252833Y-49652433D01*
X176820623Y-65799647D01*
X176809640Y-65834220D01*
X176805612Y-65870268D01*
X176805611Y-65870275D01*
X176793564Y-65978106D01*
X149107677Y-65978106D01*
X149669655Y-63334220D01*
X149680638Y-63299649D01*
X149684665Y-63263603D01*
X149684667Y-63263595D01*
X149696714Y-63155763D01*
X149684411Y-63011505D01*
X149684411Y-63011503D01*
X149644200Y-62872417D01*
X149577627Y-62743848D01*
X149487251Y-62630737D01*
X149376544Y-62537431D01*
X149249762Y-62467515D01*
X149146352Y-62434663D01*
X149146347Y-62434662D01*
X149111777Y-62423679D01*
X149075725Y-62419651D01*
X143749742Y-61287580D01*
X154726339Y-61287580D01*
X154738642Y-61431838D01*
X154778853Y-61570925D01*
X154788103Y-61588788D01*
X154845426Y-61699494D01*
X154935802Y-61812605D01*
X154995876Y-61863237D01*
X155046508Y-61905911D01*
X155091573Y-61930762D01*
X155173291Y-61975827D01*
X155243114Y-61998009D01*
X155311276Y-62019664D01*
X155347335Y-62023693D01*
X171494586Y-65455892D01*
X171529155Y-65466875D01*
X171565203Y-65470903D01*
X171565210Y-65470904D01*
X171673041Y-65482951D01*
X171817299Y-65470648D01*
X171956386Y-65430437D01*
X172041093Y-65386575D01*
X172084955Y-65363864D01*
X172198066Y-65273488D01*
X172248698Y-65213414D01*
X172291372Y-65162782D01*
X172316223Y-65117717D01*
X172361288Y-65035999D01*
X172405125Y-64898013D01*
X172409153Y-64861959D01*
X175841361Y-48714759D01*
X175852346Y-48680181D01*
X175868422Y-48536294D01*
X175856118Y-48392035D01*
X175815907Y-48252949D01*
X175749334Y-48124380D01*
X175658958Y-48011269D01*
X175548251Y-47917963D01*
X175421469Y-47848048D01*
X175318060Y-47815195D01*
X175318052Y-47815193D01*
X175283484Y-47804211D01*
X175247434Y-47800183D01*
X159100179Y-44367985D01*
X159065606Y-44357001D01*
X159029551Y-44352972D01*
X159029549Y-44352972D01*
X159011418Y-44350946D01*
X158921719Y-44340924D01*
X158777460Y-44353228D01*
X158638373Y-44393439D01*
X158509805Y-44460012D01*
X158396694Y-44550388D01*
X158303387Y-44661094D01*
X158233472Y-44787876D01*
X158200619Y-44891286D01*
X158200617Y-44891294D01*
X158189635Y-44925863D01*
X158185608Y-44961908D01*
X154753398Y-61109121D01*
X154742415Y-61143694D01*
X154738387Y-61179742D01*
X154738386Y-61179749D01*
X154726339Y-61287580D01*
X143749742Y-61287580D01*
X132928472Y-58987452D01*
X132893899Y-58976468D01*
X132857844Y-58972439D01*
X132857842Y-58972439D01*
X132839711Y-58970413D01*
X132750012Y-58960391D01*
X132605753Y-58972695D01*
X132466666Y-59012906D01*
X132338098Y-59079479D01*
X132224987Y-59169855D01*
X132131680Y-59280561D01*
X132061765Y-59407343D01*
X132028912Y-59510753D01*
X132028910Y-59510761D01*
X132017928Y-59545330D01*
X132013901Y-59581375D01*
X128581691Y-75728589D01*
X128570708Y-75763162D01*
X128566680Y-75799210D01*
X128566679Y-75799217D01*
X128554632Y-75907048D01*
X117591603Y-75907048D01*
X106757352Y-73604161D01*
X106722779Y-73593177D01*
X106686724Y-73589148D01*
X106686722Y-73589148D01*
X106668591Y-73587122D01*
X106578892Y-73577100D01*
X106434633Y-73589404D01*
X106295546Y-73629615D01*
X106166978Y-73696188D01*
X106053867Y-73786564D01*
X105960560Y-73897270D01*
X105890645Y-74024052D01*
X105857792Y-74127462D01*
X105857790Y-74127470D01*
X105846808Y-74162039D01*
X105842781Y-74198084D01*
X102410571Y-90345298D01*
X102399588Y-90379871D01*
X102395560Y-90415919D01*
X102395559Y-90415926D01*
X102383512Y-90523757D01*
X97762175Y-90523757D01*
X100844973Y-76020397D01*
X100855956Y-75985826D01*
X100859983Y-75949780D01*
X100859985Y-75949772D01*
X100872032Y-75841940D01*
X100868388Y-75799217D01*
X100859729Y-75697680D01*
X100819518Y-75558594D01*
X100752945Y-75430025D01*
X100662569Y-75316914D01*
X100551862Y-75223608D01*
X100425080Y-75153692D01*
X100321670Y-75120840D01*
X100321665Y-75120839D01*
X100287095Y-75109856D01*
X100251043Y-75105828D01*
X84103790Y-71673629D01*
X84069217Y-71662645D01*
X84033162Y-71658616D01*
X84033160Y-71658616D01*
X84015029Y-71656590D01*
X83925330Y-71646568D01*
X83781071Y-71658872D01*
X83641984Y-71699083D01*
X83513416Y-71765656D01*
X83400305Y-71856032D01*
X83306998Y-71966738D01*
X83237083Y-72093520D01*
X83204230Y-72196930D01*
X83204228Y-72196938D01*
X83193246Y-72231507D01*
X83189219Y-72267552D01*
X79757009Y-88414766D01*
X79746026Y-88449339D01*
X79741998Y-88485387D01*
X79741997Y-88485394D01*
X79741369Y-88491018D01*
X79729950Y-88593226D01*
X75108294Y-88593226D01*
X76432478Y-82363459D01*
X76443463Y-82328881D01*
X76459539Y-82184994D01*
X76447235Y-82040735D01*
X76407024Y-81901649D01*
X76340451Y-81773080D01*
X76250075Y-81659969D01*
X76139368Y-81566663D01*
X76012586Y-81496748D01*
X75909177Y-81463895D01*
X75909169Y-81463893D01*
X75874601Y-81452911D01*
X75838551Y-81448883D01*
X59691296Y-78016685D01*
X59656723Y-78005701D01*
X59620668Y-78001672D01*
X59620666Y-78001672D01*
X59602535Y-77999646D01*
X59512836Y-77989624D01*
X59368577Y-78001928D01*
X59229490Y-78042139D01*
X59100922Y-78108712D01*
X58987811Y-78199088D01*
X58894504Y-78309794D01*
X58824589Y-78436576D01*
X58791736Y-78539986D01*
X58791734Y-78539994D01*
X58780752Y-78574563D01*
X58776725Y-78610608D01*
X55344515Y-94757821D01*
X55333532Y-94792394D01*
X55329504Y-94828442D01*
X55329503Y-94828449D01*
X55317456Y-94936280D01*
X42045111Y-94936280D01*
X44915878Y-81430442D01*
X44926860Y-81395874D01*
X44930887Y-81359828D01*
X44930889Y-81359820D01*
X44942936Y-81251988D01*
X44930633Y-81107730D01*
X44890422Y-80968643D01*
X44823849Y-80840074D01*
X44733473Y-80726963D01*
X44622767Y-80633657D01*
X44603288Y-80622915D01*
X44495983Y-80563740D01*
X44392574Y-80530887D01*
X44392560Y-80530884D01*
X44357999Y-80519904D01*
X44321957Y-80515877D01*
X28182050Y-77085241D01*
X28147477Y-77074257D01*
X28111422Y-77070228D01*
X28111420Y-77070228D01*
X28093289Y-77068202D01*
X28003590Y-77058180D01*
X27859331Y-77070484D01*
X27720244Y-77110695D01*
X27591676Y-77177268D01*
X27478565Y-77267644D01*
X27385258Y-77378350D01*
X27315343Y-77505132D01*
X27282490Y-77608542D01*
X27282488Y-77608550D01*
X27271506Y-77643119D01*
X27267479Y-77679164D01*
X23835269Y-93826378D01*
X23824286Y-93860951D01*
X23820258Y-93896999D01*
X23820257Y-93897006D01*
X23808210Y-94004837D01*
X14001600Y-94004837D01*
X13970575Y-92024051D01*
X17666890Y-73367086D01*
X17677750Y-73330520D01*
X17684257Y-73260250D01*
X17691112Y-73190100D01*
X17687345Y-73152145D01*
X17683674Y-72522753D01*
X31251328Y-72522753D01*
X31263631Y-72667011D01*
X31303842Y-72806098D01*
X31313092Y-72823961D01*
X31370415Y-72934667D01*
X31460791Y-73047778D01*
X31483502Y-73066919D01*
X31571497Y-73141084D01*
X31616562Y-73165935D01*
X31698280Y-73211000D01*
X31781478Y-73237431D01*
X31836266Y-73254837D01*
X31872324Y-73258866D01*
X48019575Y-76691064D01*
X48054144Y-76702047D01*
X48090192Y-76706075D01*
X48090199Y-76706076D01*
X48182634Y-76716403D01*
X48198030Y-76718123D01*
X48198031Y-76718123D01*
X48342289Y-76705820D01*
X48481376Y-76665609D01*
X48609944Y-76599036D01*
X48723055Y-76508660D01*
X48816362Y-76397953D01*
X48886277Y-76271171D01*
X48930115Y-76133185D01*
X48934144Y-76097121D01*
X49620279Y-72869120D01*
X60007994Y-72869120D01*
X60020297Y-73013378D01*
X60060508Y-73152465D01*
X60069758Y-73170328D01*
X60127081Y-73281034D01*
X60217457Y-73394145D01*
X60277531Y-73444777D01*
X60328163Y-73487451D01*
X60373228Y-73512302D01*
X60454946Y-73557367D01*
X60538144Y-73583798D01*
X60592932Y-73601204D01*
X60628990Y-73605233D01*
X76776241Y-77037430D01*
X76810810Y-77048413D01*
X76846858Y-77052441D01*
X76846865Y-77052442D01*
X76939300Y-77062769D01*
X76954696Y-77064489D01*
X76954697Y-77064489D01*
X77098955Y-77052186D01*
X77238042Y-77011975D01*
X77366611Y-76945402D01*
X77479722Y-76855026D01*
X77573028Y-76744319D01*
X77642943Y-76617537D01*
X77686781Y-76479551D01*
X77690810Y-76443487D01*
X79798832Y-66526063D01*
X84420489Y-66526063D01*
X84432792Y-66670321D01*
X84473003Y-66809408D01*
X84516865Y-66894115D01*
X84539576Y-66937977D01*
X84629952Y-67051088D01*
X84690026Y-67101720D01*
X84740658Y-67144394D01*
X84785723Y-67169245D01*
X84867441Y-67214310D01*
X84950639Y-67240741D01*
X85005427Y-67258147D01*
X85041485Y-67262176D01*
X101188732Y-70694374D01*
X101223303Y-70705357D01*
X101259353Y-70709385D01*
X101259359Y-70709386D01*
X101367190Y-70721433D01*
X101511449Y-70709130D01*
X101650536Y-70668919D01*
X101779104Y-70602346D01*
X101892215Y-70511970D01*
X101985522Y-70401263D01*
X102055437Y-70274481D01*
X102099275Y-70136495D01*
X102103304Y-70100431D01*
X102452648Y-68456902D01*
X107073985Y-68456902D01*
X107086288Y-68601160D01*
X107126499Y-68740247D01*
X107134866Y-68756405D01*
X107193072Y-68868816D01*
X107283448Y-68981927D01*
X107343522Y-69032559D01*
X107394154Y-69075233D01*
X107439219Y-69100084D01*
X107520937Y-69145149D01*
X107604135Y-69171580D01*
X107658923Y-69188986D01*
X107694981Y-69193015D01*
X123842232Y-72625213D01*
X123876801Y-72636196D01*
X123912849Y-72640224D01*
X123912856Y-72640225D01*
X124005291Y-72650552D01*
X124020687Y-72652272D01*
X124020688Y-72652272D01*
X124164946Y-72639969D01*
X124304033Y-72599758D01*
X124432601Y-72533185D01*
X124545712Y-72442809D01*
X124639019Y-72332102D01*
X124708934Y-72205320D01*
X124752772Y-72067334D01*
X124756801Y-72031270D01*
X128189007Y-55884080D01*
X128199992Y-55849502D01*
X128216068Y-55705615D01*
X128203764Y-55561356D01*
X128163553Y-55422270D01*
X128096980Y-55293701D01*
X128006604Y-55180590D01*
X127895897Y-55087284D01*
X127769115Y-55017369D01*
X127665706Y-54984516D01*
X127665698Y-54984514D01*
X127631130Y-54973532D01*
X127595080Y-54969504D01*
X122282079Y-53840193D01*
X133245105Y-53840193D01*
X133257408Y-53984451D01*
X133297619Y-54123538D01*
X133341481Y-54208245D01*
X133364192Y-54252107D01*
X133454568Y-54365218D01*
X133503574Y-54406521D01*
X133565274Y-54458524D01*
X133610339Y-54483375D01*
X133692057Y-54528440D01*
X133761103Y-54550375D01*
X133830042Y-54572277D01*
X133866102Y-54576306D01*
X150013352Y-58008504D01*
X150047921Y-58019487D01*
X150083969Y-58023515D01*
X150083976Y-58023516D01*
X150176411Y-58033843D01*
X150191807Y-58035563D01*
X150191808Y-58035563D01*
X150336066Y-58023260D01*
X150475153Y-57983049D01*
X150603721Y-57916476D01*
X150716832Y-57826100D01*
X150810139Y-57715393D01*
X150880054Y-57588611D01*
X150923892Y-57450625D01*
X150927921Y-57414561D01*
X154360127Y-41267371D01*
X154371112Y-41232793D01*
X154387188Y-41088906D01*
X154374884Y-40944647D01*
X154334673Y-40805561D01*
X154268100Y-40676992D01*
X154177724Y-40563881D01*
X154067017Y-40470575D01*
X153940235Y-40400660D01*
X153836826Y-40367807D01*
X153836818Y-40367805D01*
X153802250Y-40356823D01*
X153766200Y-40352795D01*
X137618946Y-36920597D01*
X137584373Y-36909613D01*
X137548321Y-36905585D01*
X137548316Y-36905584D01*
X137461008Y-36895830D01*
X137440486Y-36893537D01*
X137440485Y-36893537D01*
X137429149Y-36894504D01*
X137296227Y-36905840D01*
X137157140Y-36946051D01*
X137028572Y-37012624D01*
X136915461Y-37103000D01*
X136822154Y-37213706D01*
X136752239Y-37340489D01*
X136719386Y-37443898D01*
X136719384Y-37443906D01*
X136708402Y-37478475D01*
X136704375Y-37514520D01*
X133272164Y-53661734D01*
X133261181Y-53696307D01*
X133257153Y-53732355D01*
X133257152Y-53732362D01*
X133245105Y-53840193D01*
X122282079Y-53840193D01*
X111447825Y-51537306D01*
X111413252Y-51526322D01*
X111377197Y-51522293D01*
X111377195Y-51522293D01*
X111359064Y-51520267D01*
X111269365Y-51510245D01*
X111125106Y-51522549D01*
X110986019Y-51562760D01*
X110857451Y-51629333D01*
X110744340Y-51719709D01*
X110651033Y-51830415D01*
X110581118Y-51957197D01*
X110548265Y-52060607D01*
X110548263Y-52060615D01*
X110537281Y-52095184D01*
X110533254Y-52131229D01*
X107101044Y-68278443D01*
X107090061Y-68313016D01*
X107086033Y-68349064D01*
X107086032Y-68349071D01*
X107073985Y-68456902D01*
X102452648Y-68456902D01*
X105535512Y-53953235D01*
X105546495Y-53918664D01*
X105550522Y-53882618D01*
X105550524Y-53882610D01*
X105562571Y-53774779D01*
X105560132Y-53746181D01*
X105550268Y-53630518D01*
X105510057Y-53491432D01*
X105443484Y-53362863D01*
X105353108Y-53249752D01*
X105242401Y-53156446D01*
X105115619Y-53086530D01*
X105012209Y-53053678D01*
X105012204Y-53053677D01*
X104977634Y-53042694D01*
X104941584Y-53038666D01*
X88794329Y-49606467D01*
X88759756Y-49595483D01*
X88723701Y-49591454D01*
X88723699Y-49591454D01*
X88705568Y-49589428D01*
X88615869Y-49579406D01*
X88471610Y-49591710D01*
X88332523Y-49631921D01*
X88203955Y-49698494D01*
X88090844Y-49788870D01*
X87997537Y-49899576D01*
X87927622Y-50026358D01*
X87894769Y-50129768D01*
X87894767Y-50129776D01*
X87883785Y-50164345D01*
X87879758Y-50200390D01*
X84447548Y-66347604D01*
X84436565Y-66382177D01*
X84432537Y-66418225D01*
X84432536Y-66418232D01*
X84420489Y-66526063D01*
X79798832Y-66526063D01*
X81123016Y-60296297D01*
X81134001Y-60261719D01*
X81150077Y-60117832D01*
X81137773Y-59973573D01*
X81097562Y-59834487D01*
X81030989Y-59705918D01*
X80940613Y-59592807D01*
X80829906Y-59499501D01*
X80703124Y-59429586D01*
X80599715Y-59396733D01*
X80599707Y-59396731D01*
X80565139Y-59385749D01*
X80529089Y-59381721D01*
X64381834Y-55949523D01*
X64347261Y-55938539D01*
X64311206Y-55934510D01*
X64311204Y-55934510D01*
X64293073Y-55932484D01*
X64203374Y-55922462D01*
X64059115Y-55934766D01*
X63920028Y-55974977D01*
X63791460Y-56041550D01*
X63678349Y-56131925D01*
X63585042Y-56242632D01*
X63515127Y-56369414D01*
X63482274Y-56472824D01*
X63482272Y-56472832D01*
X63471290Y-56507401D01*
X63467263Y-56543446D01*
X60035053Y-72690662D01*
X60024070Y-72725234D01*
X60020042Y-72761282D01*
X60020041Y-72761289D01*
X60007994Y-72869120D01*
X49620279Y-72869120D01*
X52366350Y-59949931D01*
X52377335Y-59915353D01*
X52393411Y-59771466D01*
X52381107Y-59627207D01*
X52340896Y-59488121D01*
X52274323Y-59359552D01*
X52183947Y-59246441D01*
X52073240Y-59153135D01*
X51946458Y-59083220D01*
X51843049Y-59050367D01*
X51843041Y-59050365D01*
X51808473Y-59039383D01*
X51772423Y-59035355D01*
X35625168Y-55603157D01*
X35590595Y-55592173D01*
X35554540Y-55588144D01*
X35554538Y-55588144D01*
X35536407Y-55586118D01*
X35446708Y-55576096D01*
X35302449Y-55588400D01*
X35163362Y-55628611D01*
X35034794Y-55695184D01*
X34921683Y-55785560D01*
X34828376Y-55896266D01*
X34758461Y-56023048D01*
X34725608Y-56126458D01*
X34725606Y-56126466D01*
X34714624Y-56161035D01*
X34710597Y-56197080D01*
X31278387Y-72344294D01*
X31267404Y-72378867D01*
X31263376Y-72414915D01*
X31263375Y-72414922D01*
X31251328Y-72522753D01*
X17683674Y-72522753D01*
X17615132Y-60771260D01*
X21581800Y-60771260D01*
X21581800Y-61108100D01*
X21647514Y-61438469D01*
X21776418Y-61749669D01*
X21963556Y-62029741D01*
X22201739Y-62267924D01*
X22481811Y-62455062D01*
X22793011Y-62583966D01*
X23123380Y-62649680D01*
X23460220Y-62649680D01*
X23790589Y-62583966D01*
X24101789Y-62455062D01*
X24381861Y-62267924D01*
X24620044Y-62029741D01*
X24807182Y-61749669D01*
X24936086Y-61438469D01*
X25001800Y-61108100D01*
X25001800Y-60771260D01*
X24936086Y-60440891D01*
X24807182Y-60129691D01*
X24620044Y-59849619D01*
X24381861Y-59611436D01*
X24101789Y-59424298D01*
X23790589Y-59295394D01*
X23460220Y-59229680D01*
X23123380Y-59229680D01*
X22793011Y-59295394D01*
X22481811Y-59424298D01*
X22201739Y-59611436D01*
X21963556Y-59849619D01*
X21776418Y-60129691D01*
X21647514Y-60440891D01*
X21581800Y-60771260D01*
X17615132Y-60771260D01*
X17561804Y-51628222D01*
X41458673Y-51628222D01*
X41470976Y-51772480D01*
X41511187Y-51911567D01*
X41555049Y-51996274D01*
X41577760Y-52040136D01*
X41668136Y-52153247D01*
X41728210Y-52203879D01*
X41778842Y-52246553D01*
X41823907Y-52271404D01*
X41905625Y-52316469D01*
X41975448Y-52338651D01*
X42043610Y-52360306D01*
X42079670Y-52364335D01*
X58226917Y-55796533D01*
X58261488Y-55807516D01*
X58297538Y-55811544D01*
X58297544Y-55811545D01*
X58388135Y-55821666D01*
X58405375Y-55823592D01*
X58405376Y-55823592D01*
X58549634Y-55811289D01*
X58688721Y-55771078D01*
X58817289Y-55704505D01*
X58930400Y-55614129D01*
X59023707Y-55503422D01*
X59093622Y-55376640D01*
X59137460Y-55238654D01*
X59141489Y-55202590D01*
X60076876Y-50801957D01*
X64698533Y-50801957D01*
X64710836Y-50946215D01*
X64751047Y-51085302D01*
X64769542Y-51121020D01*
X64817620Y-51213871D01*
X64907996Y-51326982D01*
X64968070Y-51377614D01*
X65018702Y-51420288D01*
X65063767Y-51445139D01*
X65145485Y-51490204D01*
X65228683Y-51516635D01*
X65283471Y-51534041D01*
X65319529Y-51538070D01*
X81466780Y-54970268D01*
X81501349Y-54981251D01*
X81537397Y-54985279D01*
X81537404Y-54985280D01*
X81629839Y-54995607D01*
X81645235Y-54997327D01*
X81645236Y-54997327D01*
X81789494Y-54985024D01*
X81928581Y-54944813D01*
X82057149Y-54878240D01*
X82170260Y-54787864D01*
X82263567Y-54677157D01*
X82333482Y-54550375D01*
X82377320Y-54412389D01*
X82381349Y-54376325D01*
X84489306Y-44459207D01*
X89110962Y-44459207D01*
X89123265Y-44603465D01*
X89163476Y-44742552D01*
X89196195Y-44805740D01*
X89230049Y-44871121D01*
X89320425Y-44984232D01*
X89380499Y-45034864D01*
X89431131Y-45077538D01*
X89476196Y-45102389D01*
X89557914Y-45147454D01*
X89627737Y-45169636D01*
X89695899Y-45191291D01*
X89731958Y-45195320D01*
X105879209Y-48627519D01*
X105913778Y-48638502D01*
X105949826Y-48642530D01*
X105949833Y-48642531D01*
X106057664Y-48654578D01*
X106201922Y-48642275D01*
X106341009Y-48602064D01*
X106429639Y-48556171D01*
X106469578Y-48535491D01*
X106582689Y-48445115D01*
X106633321Y-48385041D01*
X106675995Y-48334409D01*
X106720916Y-48252950D01*
X106745911Y-48207626D01*
X106789748Y-48069640D01*
X106793776Y-48033586D01*
X107143187Y-46389740D01*
X111764523Y-46389740D01*
X111776826Y-46533998D01*
X111817037Y-46673085D01*
X111826287Y-46690948D01*
X111883610Y-46801654D01*
X111973986Y-46914765D01*
X112034060Y-46965397D01*
X112084692Y-47008071D01*
X112129757Y-47032922D01*
X112211475Y-47077987D01*
X112281298Y-47100169D01*
X112349460Y-47121824D01*
X112385520Y-47125853D01*
X128532770Y-50558051D01*
X128567339Y-50569034D01*
X128603387Y-50573062D01*
X128603394Y-50573063D01*
X128689708Y-50582706D01*
X128711225Y-50585110D01*
X128711226Y-50585110D01*
X128855484Y-50572807D01*
X128994571Y-50532596D01*
X129123139Y-50466023D01*
X129236250Y-50375647D01*
X129329557Y-50264940D01*
X129399472Y-50138158D01*
X129443310Y-50000172D01*
X129447339Y-49964108D01*
X132879545Y-33816918D01*
X132890530Y-33782340D01*
X132906606Y-33638453D01*
X132894302Y-33494194D01*
X132854091Y-33355108D01*
X132787518Y-33226539D01*
X132697142Y-33113428D01*
X132586435Y-33020122D01*
X132459653Y-32950207D01*
X132356244Y-32917354D01*
X132356236Y-32917352D01*
X132321668Y-32906370D01*
X132285618Y-32902342D01*
X123538555Y-31043100D01*
X173966560Y-31043100D01*
X173966560Y-31379940D01*
X174032274Y-31710309D01*
X174161178Y-32021509D01*
X174348316Y-32301581D01*
X174586499Y-32539764D01*
X174866571Y-32726902D01*
X175177771Y-32855806D01*
X175508140Y-32921520D01*
X175844980Y-32921520D01*
X176175349Y-32855806D01*
X176486549Y-32726902D01*
X176766621Y-32539764D01*
X177004804Y-32301581D01*
X177191942Y-32021509D01*
X177320846Y-31710309D01*
X177386560Y-31379940D01*
X177386560Y-31043100D01*
X177320846Y-30712731D01*
X177191942Y-30401531D01*
X177004804Y-30121459D01*
X176766621Y-29883276D01*
X176486549Y-29696138D01*
X176175349Y-29567234D01*
X175844980Y-29501520D01*
X175508140Y-29501520D01*
X175177771Y-29567234D01*
X174866571Y-29696138D01*
X174586499Y-29883276D01*
X174348316Y-30121459D01*
X174161178Y-30401531D01*
X174032274Y-30712731D01*
X173966560Y-31043100D01*
X123538555Y-31043100D01*
X116138364Y-29470144D01*
X116103791Y-29459160D01*
X116067739Y-29455132D01*
X116067734Y-29455131D01*
X115980426Y-29445377D01*
X115959904Y-29443084D01*
X115959903Y-29443084D01*
X115948567Y-29444051D01*
X115815645Y-29455387D01*
X115676558Y-29495598D01*
X115547990Y-29562171D01*
X115434879Y-29652547D01*
X115341572Y-29763253D01*
X115271657Y-29890036D01*
X115238804Y-29993445D01*
X115238802Y-29993453D01*
X115227820Y-30028022D01*
X115223793Y-30064067D01*
X111791582Y-46211281D01*
X111780599Y-46245854D01*
X111776571Y-46281902D01*
X111776570Y-46281909D01*
X111764523Y-46389740D01*
X107143187Y-46389740D01*
X110225984Y-31886386D01*
X110236969Y-31851808D01*
X110253045Y-31707921D01*
X110240741Y-31563662D01*
X110200530Y-31424576D01*
X110133957Y-31296007D01*
X110043581Y-31182896D01*
X109932874Y-31089590D01*
X109806092Y-31019675D01*
X109702683Y-30986822D01*
X109702675Y-30986820D01*
X109668107Y-30975838D01*
X109632057Y-30971810D01*
X93484802Y-27539612D01*
X93450229Y-27528628D01*
X93414174Y-27524599D01*
X93414172Y-27524599D01*
X93396041Y-27522573D01*
X93306342Y-27512551D01*
X93162083Y-27524855D01*
X93022996Y-27565066D01*
X92894428Y-27631639D01*
X92781317Y-27722015D01*
X92688010Y-27832721D01*
X92618095Y-27959503D01*
X92585242Y-28062913D01*
X92585240Y-28062921D01*
X92574258Y-28097490D01*
X92570231Y-28133535D01*
X89138021Y-44280748D01*
X89127038Y-44315321D01*
X89123010Y-44351369D01*
X89123009Y-44351376D01*
X89110962Y-44459207D01*
X84489306Y-44459207D01*
X85813555Y-38229135D01*
X85824540Y-38194557D01*
X85840616Y-38050670D01*
X85828312Y-37906411D01*
X85788101Y-37767325D01*
X85721528Y-37638756D01*
X85631152Y-37525645D01*
X85520445Y-37432339D01*
X85393663Y-37362424D01*
X85290254Y-37329571D01*
X85290246Y-37329569D01*
X85255678Y-37318587D01*
X85219628Y-37314559D01*
X69072373Y-33882361D01*
X69037800Y-33871377D01*
X69001745Y-33867348D01*
X69001743Y-33867348D01*
X68983612Y-33865322D01*
X68893913Y-33855300D01*
X68749654Y-33867604D01*
X68610567Y-33907815D01*
X68481999Y-33974388D01*
X68368888Y-34064764D01*
X68275581Y-34175470D01*
X68205666Y-34302252D01*
X68172813Y-34405662D01*
X68172811Y-34405670D01*
X68161829Y-34440239D01*
X68157802Y-34476284D01*
X64725592Y-50623498D01*
X64714609Y-50658071D01*
X64710581Y-50694119D01*
X64710580Y-50694126D01*
X64698533Y-50801957D01*
X60076876Y-50801957D01*
X62573695Y-39055401D01*
X62584680Y-39020823D01*
X62600756Y-38876936D01*
X62588452Y-38732677D01*
X62548241Y-38593591D01*
X62481668Y-38465022D01*
X62391292Y-38351911D01*
X62280585Y-38258605D01*
X62153803Y-38188690D01*
X62050394Y-38155837D01*
X62050386Y-38155835D01*
X62015818Y-38144853D01*
X61979768Y-38140825D01*
X45832513Y-34708627D01*
X45797940Y-34697643D01*
X45761885Y-34693614D01*
X45761883Y-34693614D01*
X45743752Y-34691588D01*
X45654053Y-34681566D01*
X45509794Y-34693870D01*
X45370707Y-34734081D01*
X45242139Y-34800654D01*
X45129028Y-34891030D01*
X45035721Y-35001736D01*
X44965806Y-35128518D01*
X44932953Y-35231928D01*
X44932951Y-35231936D01*
X44921969Y-35266505D01*
X44917942Y-35302550D01*
X41485732Y-51449763D01*
X41474749Y-51484336D01*
X41470721Y-51520384D01*
X41470720Y-51520391D01*
X41458673Y-51628222D01*
X17561804Y-51628222D01*
X17540757Y-48019948D01*
X17639745Y-46937697D01*
X19391448Y-46937697D01*
X19403751Y-47081955D01*
X19443962Y-47221042D01*
X19487824Y-47305749D01*
X19510535Y-47349611D01*
X19600911Y-47462722D01*
X19660985Y-47513354D01*
X19711617Y-47556028D01*
X19756682Y-47580879D01*
X19838400Y-47625944D01*
X19890225Y-47642408D01*
X19976385Y-47669781D01*
X20012445Y-47673810D01*
X36159692Y-51106008D01*
X36194263Y-51116991D01*
X36230313Y-51121019D01*
X36230319Y-51121020D01*
X36320910Y-51131141D01*
X36338150Y-51133067D01*
X36338151Y-51133067D01*
X36482409Y-51120764D01*
X36621496Y-51080553D01*
X36750064Y-51013980D01*
X36863175Y-50923604D01*
X36956482Y-50812897D01*
X37026397Y-50686115D01*
X37070235Y-50548129D01*
X37074264Y-50512065D01*
X40506470Y-34364876D01*
X40517455Y-34330298D01*
X40533531Y-34186411D01*
X40521227Y-34042152D01*
X40481016Y-33903066D01*
X40414443Y-33774497D01*
X40324067Y-33661386D01*
X40213360Y-33568080D01*
X40086578Y-33498165D01*
X39983169Y-33465312D01*
X39983161Y-33465310D01*
X39948593Y-33454328D01*
X39912543Y-33450300D01*
X23765288Y-30018102D01*
X23730715Y-30007118D01*
X23694660Y-30003089D01*
X23694658Y-30003089D01*
X23676527Y-30001063D01*
X23586828Y-29991041D01*
X23442569Y-30003345D01*
X23303482Y-30043556D01*
X23174914Y-30110129D01*
X23061803Y-30200505D01*
X22968496Y-30311211D01*
X22898581Y-30437993D01*
X22865728Y-30541403D01*
X22865726Y-30541411D01*
X22854744Y-30575980D01*
X22850717Y-30612025D01*
X19418507Y-46759238D01*
X19407524Y-46793811D01*
X19403496Y-46829859D01*
X19403495Y-46829866D01*
X19391448Y-46937697D01*
X17639745Y-46937697D01*
X18982570Y-32256434D01*
X21347150Y-21500893D01*
X21359829Y-21459097D01*
X21366206Y-21394351D01*
X21373871Y-21329824D01*
X21370464Y-21286301D01*
X21370464Y-19130500D01*
X22404760Y-19130500D01*
X22404760Y-19467340D01*
X22470474Y-19797709D01*
X22599378Y-20108909D01*
X22786516Y-20388981D01*
X23024699Y-20627164D01*
X23304771Y-20814302D01*
X23615971Y-20943206D01*
X23946340Y-21008920D01*
X24283180Y-21008920D01*
X24613549Y-20943206D01*
X24924749Y-20814302D01*
X25204821Y-20627164D01*
X25443004Y-20388981D01*
X25630142Y-20108909D01*
X25759046Y-19797709D01*
X25824760Y-19467340D01*
X25824760Y-19130500D01*
X25759046Y-18800131D01*
X25630142Y-18488931D01*
X25443004Y-18208859D01*
X25204821Y-17970676D01*
X24924749Y-17783538D01*
X24613549Y-17654634D01*
X24283180Y-17588920D01*
X23946340Y-17588920D01*
X23615971Y-17654634D01*
X23304771Y-17783538D01*
X23024699Y-17970676D01*
X22786516Y-18208859D01*
X22599378Y-18488931D01*
X22470474Y-18800131D01*
X22404760Y-19130500D01*
X21370464Y-19130500D01*
X21370464Y-17525252D01*
X26673666Y-17525252D01*
X26673665Y-21278907D01*
M02*
