  0
SECTION
  2
HEADER
  9
$ACADVER
  1
AC1014
  9
$HANDSEED
  5
FFFF
  9
$MEASUREMENT
 70
     1
  0
ENDSEC
  0
SECTION
  2
TABLES
  0
TABLE
  2
VPORT
  5
8
330
0
100
AcDbSymbolTable
 70
     4
  0
VPORT
  5
2E
330
8
100
AcDbSymbolTableRecord
100
AcDbViewportTableRecord
  2
*ACTIVE
 70
     0
 10
0.0
 20
0.0
 11
1.0
 21
1.0
 12
210.0
 22
148.5
 13
0.0
 23
0.0
 14
10.0
 24
10.0
 15
10.0
 25
10.0
 16
0.0
 26
0.0
 36
1.0
 17
0.0
 27
0.0
 37
0.0
 40
341.0
 41
1.24
 42
50.0
 43
0.0
 44
0.0
 50
0.0
 51
0.0
 71
     0
 72
   100
 73
     1
 74
     3
 75
     0
 76
     0
 77
     0
 78
     0
  0
ENDTAB
  0
TABLE
  2
LTYPE
  5
5
330
0
100
AcDbSymbolTable
 70
     1
  0
LTYPE
  5
14
330
5
100
AcDbSymbolTableRecord
100
AcDbLinetypeTableRecord
  2
BYBLOCK
 70
     0
  3

 72
    65
 73
     0
 40
0.0
  0
LTYPE
  5
15
330
5
100
AcDbSymbolTableRecord
100
AcDbLinetypeTableRecord
  2
BYLAYER
 70
     0
  3

 72
    65
 73
     0
 40
0.0
  0
LTYPE
  5
16
330
5
100
AcDbSymbolTableRecord
100
AcDbLinetypeTableRecord
  2
CONTINUOUS
 70
     0
  3
Solid line
 72
    65
 73
     0
 40
0.0
  0
ENDTAB
  0
TABLE
  2
LAYER
  5
2
100
AcDbSymbolTable
 70
1
  0
LAYER
  5
50
100
AcDbSymbolTableRecord
100
AcDbLayerTableRecord
  2
0
 70
0
  6
CONTINUOUS
  0
ENDTAB
  0
TABLE
  2
STYLE
  5
3
330
0
100
AcDbSymbolTable
 70
     1
  0
STYLE
  5
11
330
3
100
AcDbSymbolTableRecord
100
AcDbTextStyleTableRecord
  2
STANDARD
 70
     0
 40
0.0
 41
1.0
 50
0.0
 71
     0
 42
2.5
  3
txt
  4

  0
ENDTAB
  0
TABLE
  2
VIEW
  5
6
330
0
100
AcDbSymbolTable
 70
     0
  0
ENDTAB
  0
TABLE
  2
UCS
  5
7
330
0
100
AcDbSymbolTable
 70
     0
  0
ENDTAB
  0
TABLE
  2
APPID
  5
9
330
0
100
AcDbSymbolTable
 70
     2
  0
APPID
  5
12
330
9
100
AcDbSymbolTableRecord
100
AcDbRegAppTableRecord
  2
ACAD
 70
     0
  0
ENDTAB
  0
TABLE
  2
DIMSTYLE
  5
A
330
0
100
AcDbSymbolTable
 70
     1
  0
DIMSTYLE
105
27
330
A
100
AcDbSymbolTableRecord
100
AcDbDimStyleTableRecord
  2
ISO-25
 70
     0
  3

  4

  5

  6

  7

 40
1.0
 41
2.5
 42
0.625
 43
3.75
 44
1.25
 45
0.0
 46
0.0
 47
0.0
 48
0.0
140
2.5
141
2.5
142
0.0
143
0.03937007874016
144
1.0
145
0.0
146
1.0
147
0.625
 71
     0
 72
     0
 73
     0
 74
     0
 75
     0
 76
     0
 77
     1
 78
     8
170
     0
171
     3
172
     1
173
     0
174
     0
175
     0
176
     0
177
     0
178
     0
270
     2
271
     2
272
     2
273
     2
274
     3
340
11
275
     0
280
     0
281
     0
282
     0
283
     0
284
     8
285
     0
286
     0
287
     3
288
     0
  0
ENDTAB
  0
TABLE
  2
BLOCK_RECORD
  5
1
330
0
100
AcDbSymbolTable
 70
     1
  0
BLOCK_RECORD
  5
1F
330
1
100
AcDbSymbolTableRecord
100
AcDbBlockTableRecord
  2
*MODEL_SPACE
  0
BLOCK_RECORD
  5
1B
330
1
100
AcDbSymbolTableRecord
100
AcDbBlockTableRecord
  2
*PAPER_SPACE
  0
ENDTAB
  0
ENDSEC
  0
SECTION
  2
BLOCKS
  0
BLOCK
  5
20
330
1F
100
AcDbEntity
  8
0
100
AcDbBlockBegin
  2
*MODEL_SPACE
 70
     0
 10
0.0
 20
0.0
 30
0.0
  3
*MODEL_SPACE
  1

  0
ENDBLK
  5
21
330
1F
100
AcDbEntity
  8
0
100
AcDbBlockEnd
  0
BLOCK
  5
1C
330
1B
100
AcDbEntity
 67
     1
  8
0
100
AcDbBlockBegin
  2
*PAPER_SPACE
  1

  0
ENDBLK
  5
1D
330
1B
100
AcDbEntity
 67
     1
  8
0
100
AcDbBlockEnd
  0
ENDSEC
  0
SECTION
  2
ENTITIES
  0
SPLINE
  5
100
100
AcDbEntity
  8
0
 62
1
100
AcDbSpline
 70
8
 71
3
 72
8
 73
4
 74
0
 40
0
 40
0
 40
0
 40
0
 40
1
 40
1
 40
1
 40
1
 10
92.207080
 20
197.548500
 30
0.0
 10
91.854020
 20
197.548500
 30
0.0
 10
91.567000
 20
197.261988
 30
0.0
 10
91.567000
 20
196.908505
 30
0.0
  0
SPLINE
  5
101
100
AcDbEntity
  8
0
 62
1
100
AcDbSpline
 70
8
 71
3
 72
8
 73
4
 74
0
 40
0
 40
0
 40
0
 40
0
 40
1
 40
1
 40
1
 40
1
 10
91.567000
 20
196.908505
 30
0.0
 10
91.567000
 20
193.276813
 30
0.0
 10
91.567000
 20
175.348646
 30
0.0
 10
91.567000
 20
173.264830
 30
0.0
  0
SPLINE
  5
102
100
AcDbEntity
  8
0
 62
1
100
AcDbSpline
 70
8
 71
3
 72
8
 73
4
 74
0
 40
0
 40
0
 40
0
 40
0
 40
1
 40
1
 40
1
 40
1
 10
91.567000
 20
173.264830
 30
0.0
 10
91.567000
 20
173.216485
 30
0.0
 10
91.589013
 20
173.170850
 30
0.0
 10
91.626267
 20
173.140455
 30
0.0
  0
SPLINE
  5
103
100
AcDbEntity
  8
0
 62
1
100
AcDbSpline
 70
8
 71
3
 72
8
 73
4
 74
0
 40
0
 40
0
 40
0
 40
0
 40
1
 40
1
 40
1
 40
1
 10
91.626267
 20
173.140455
 30
0.0
 10
91.664367
 20
173.110059
 30
0.0
 10
91.713473
 20
173.098291
 30
0.0
 10
91.760887
 20
173.108281
 30
0.0
  0
SPLINE
  5
104
100
AcDbEntity
  8
0
 62
1
100
AcDbSpline
 70
8
 71
3
 72
8
 73
4
 74
0
 40
0
 40
0
 40
0
 40
0
 40
1
 40
1
 40
1
 40
1
 10
91.760887
 20
173.108281
 30
0.0
 10
93.625247
 20
173.505707
 30
0.0
 10
108.386880
 20
176.651497
 30
0.0
 10
110.070053
 20
177.010314
 30
0.0
  0
SPLINE
  5
105
100
AcDbEntity
  8
0
 62
1
100
AcDbSpline
 70
8
 71
3
 72
8
 73
4
 74
0
 40
0
 40
0
 40
0
 40
0
 40
1
 40
1
 40
1
 40
1
 10
110.070053
 20
177.010314
 30
0.0
 10
110.156413
 20
177.028687
 30
0.0
 10
110.211447
 20
177.113438
 30
0.0
 10
110.192820
 20
177.199798
 30
0.0
  0
SPLINE
  5
106
100
AcDbEntity
  8
0
 62
1
100
AcDbSpline
 70
8
 71
3
 72
8
 73
4
 74
0
 40
0
 40
0
 40
0
 40
0
 40
1
 40
1
 40
1
 40
1
 10
110.192820
 20
177.199798
 30
0.0
 10
110.104767
 20
177.617628
 30
0.0
 10
109.864313
 20
178.757072
 30
0.0
 10
109.776260
 20
179.174733
 30
0.0
  0
SPLINE
  5
107
100
AcDbEntity
  8
0
 62
1
100
AcDbSpline
 70
8
 71
3
 72
8
 73
4
 74
0
 40
0
 40
0
 40
0
 40
0
 40
1
 40
1
 40
1
 40
1
 10
109.776260
 20
179.174733
 30
0.0
 10
109.758480
 20
179.261008
 30
0.0
 10
109.813513
 20
179.345759
 30
0.0
 10
109.899873
 20
179.364217
 30
0.0
  0
SPLINE
  5
108
100
AcDbEntity
  8
0
 62
1
100
AcDbSpline
 70
8
 71
3
 72
8
 73
4
 74
0
 40
0
 40
0
 40
0
 40
0
 40
1
 40
1
 40
1
 40
1
 10
109.899873
 20
179.364217
 30
0.0
 10
111.594053
 20
179.726844
 30
0.0
 10
126.556347
 20
182.927921
 30
0.0
 10
128.257300
 20
183.291819
 30
0.0
  0
SPLINE
  5
109
100
AcDbEntity
  8
0
 62
1
100
AcDbSpline
 70
8
 71
3
 72
8
 73
4
 74
0
 40
0
 40
0
 40
0
 40
0
 40
1
 40
1
 40
1
 40
1
 10
128.257300
 20
183.291819
 30
0.0
 10
128.299633
 20
183.300709
 30
0.0
 10
128.336040
 20
183.325855
 30
0.0
 10
128.358900
 20
183.361584
 30
0.0
  0
SPLINE
  5
10a
100
AcDbEntity
  8
0
 62
1
100
AcDbSpline
 70
8
 71
3
 72
8
 73
4
 74
0
 40
0
 40
0
 40
0
 40
0
 40
1
 40
1
 40
1
 40
1
 10
128.358900
 20
183.361584
 30
0.0
 10
128.381760
 20
183.397398
 30
0.0
 10
128.389380
 20
183.440917
 30
0.0
 10
128.380067
 20
183.482488
 30
0.0
  0
SPLINE
  5
10b
100
AcDbEntity
  8
0
 62
1
100
AcDbSpline
 70
8
 71
3
 72
8
 73
4
 74
0
 40
0
 40
0
 40
0
 40
0
 40
1
 40
1
 40
1
 40
1
 10
128.380067
 20
183.482488
 30
0.0
 10
128.286933
 20
183.907769
 30
0.0
 10
128.031240
 20
185.078624
 30
0.0
 10
127.937260
 20
185.504667
 30
0.0
  0
SPLINE
  5
10c
100
AcDbEntity
  8
0
 62
1
100
AcDbSpline
 70
8
 71
3
 72
8
 73
4
 74
0
 40
0
 40
0
 40
0
 40
0
 40
1
 40
1
 40
1
 40
1
 10
127.937260
 20
185.504667
 30
0.0
 10
127.928793
 20
185.546323
 30
0.0
 10
127.936413
 20
185.589926
 30
0.0
 10
127.959273
 20
185.625740
 30
0.0
  0
SPLINE
  5
10d
100
AcDbEntity
  8
0
 62
1
100
AcDbSpline
 70
8
 71
3
 72
8
 73
4
 74
0
 40
0
 40
0
 40
0
 40
0
 40
1
 40
1
 40
1
 40
1
 10
127.959273
 20
185.625740
 30
0.0
 10
127.982980
 20
185.661554
 30
0.0
 10
128.019387
 20
185.686700
 30
0.0
 10
128.060873
 20
185.695421
 30
0.0
  0
SPLINE
  5
10e
100
AcDbEntity
  8
0
 62
1
100
AcDbSpline
 70
8
 71
3
 72
8
 73
4
 74
0
 40
0
 40
0
 40
0
 40
0
 40
1
 40
1
 40
1
 40
1
 10
128.060873
 20
185.695421
 30
0.0
 10
129.805853
 20
186.062281
 30
0.0
 10
145.464953
 20
189.353783
 30
0.0
 10
147.203160
 20
189.719119
 30
0.0
  0
SPLINE
  5
10f
100
AcDbEntity
  8
0
 62
1
100
AcDbSpline
 70
8
 71
3
 72
8
 73
4
 74
0
 40
0
 40
0
 40
0
 40
0
 40
1
 40
1
 40
1
 40
1
 10
147.203160
 20
189.719119
 30
0.0
 10
147.289520
 20
189.737238
 30
0.0
 10
147.374187
 20
189.681951
 30
0.0
 10
147.392813
 20
189.595506
 30
0.0
  0
SPLINE
  5
110
100
AcDbEntity
  8
0
 62
1
100
AcDbSpline
 70
8
 71
3
 72
8
 73
4
 74
0
 40
0
 40
0
 40
0
 40
0
 40
1
 40
1
 40
1
 40
1
 10
147.392813
 20
189.595506
 30
0.0
 10
147.480867
 20
189.177083
 30
0.0
 10
147.720473
 20
188.036454
 30
0.0
 10
147.809373
 20
187.617862
 30
0.0
  0
SPLINE
  5
111
100
AcDbEntity
  8
0
 62
1
100
AcDbSpline
 70
8
 71
3
 72
8
 73
4
 74
0
 40
0
 40
0
 40
0
 40
0
 40
1
 40
1
 40
1
 40
1
 10
147.809373
 20
187.617862
 30
0.0
 10
147.817840
 20
187.576375
 30
0.0
 10
147.842393
 20
187.539969
 30
0.0
 10
147.877953
 20
187.516770
 30
0.0
  0
SPLINE
  5
112
100
AcDbEntity
  8
0
 62
1
100
AcDbSpline
 70
8
 71
3
 72
8
 73
4
 74
0
 40
0
 40
0
 40
0
 40
0
 40
1
 40
1
 40
1
 40
1
 10
147.877953
 20
187.516770
 30
0.0
 10
147.913513
 20
187.493656
 30
0.0
 10
147.957540
 20
187.485528
 30
0.0
 10
147.999027
 20
187.494333
 30
0.0
  0
SPLINE
  5
113
100
AcDbEntity
  8
0
 62
1
100
AcDbSpline
 70
8
 71
3
 72
8
 73
4
 74
0
 40
0
 40
0
 40
0
 40
0
 40
1
 40
1
 40
1
 40
1
 10
147.999027
 20
187.494333
 30
0.0
 10
149.693207
 20
187.852643
 30
0.0
 10
164.603853
 20
191.004783
 30
0.0
 10
166.295493
 20
191.362499
 30
0.0
  0
SPLINE
  5
114
100
AcDbEntity
  8
0
 62
1
100
AcDbSpline
 70
8
 71
3
 72
8
 73
4
 74
0
 40
0
 40
0
 40
0
 40
0
 40
1
 40
1
 40
1
 40
1
 10
166.295493
 20
191.362499
 30
0.0
 10
166.381853
 20
191.380703
 30
0.0
 10
166.466520
 20
191.325754
 30
0.0
 10
166.485147
 20
191.239479
 30
0.0
  0
SPLINE
  5
115
100
AcDbEntity
  8
0
 62
1
100
AcDbSpline
 70
8
 71
3
 72
8
 73
4
 74
0
 40
0
 40
0
 40
0
 40
0
 40
1
 40
1
 40
1
 40
1
 10
166.485147
 20
191.239479
 30
0.0
 10
166.759467
 20
189.961351
 30
0.0
 10
168.630600
 20
181.229423
 30
0.0
 10
168.904920
 20
179.950703
 30
0.0
  0
SPLINE
  5
116
100
AcDbEntity
  8
0
 62
1
100
AcDbSpline
 70
8
 71
3
 72
8
 73
4
 74
0
 40
0
 40
0
 40
0
 40
0
 40
1
 40
1
 40
1
 40
1
 10
168.904920
 20
179.950703
 30
0.0
 10
168.923547
 20
179.864427
 30
0.0
 10
169.008213
 20
179.809394
 30
0.0
 10
169.094573
 20
179.827767
 30
0.0
  0
SPLINE
  5
117
100
AcDbEntity
  8
0
 62
1
100
AcDbSpline
 70
8
 71
3
 72
8
 73
4
 74
0
 40
0
 40
0
 40
0
 40
0
 40
1
 40
1
 40
1
 40
1
 10
169.094573
 20
179.827767
 30
0.0
 10
170.790447
 20
180.188193
 30
0.0
 10
185.756127
 20
183.368950
 30
0.0
 10
187.453693
 20
183.729630
 30
0.0
  0
SPLINE
  5
118
100
AcDbEntity
  8
0
 62
1
100
AcDbSpline
 70
8
 71
3
 72
8
 73
4
 74
0
 40
0
 40
0
 40
0
 40
0
 40
1
 40
1
 40
1
 40
1
 10
187.453693
 20
183.729630
 30
0.0
 10
187.540053
 20
183.748003
 30
0.0
 10
187.625567
 20
183.692885
 30
0.0
 10
187.643347
 20
183.606440
 30
0.0
  0
SPLINE
  5
119
100
AcDbEntity
  8
0
 62
1
100
AcDbSpline
 70
8
 71
3
 72
8
 73
4
 74
0
 40
0
 40
0
 40
0
 40
0
 40
1
 40
1
 40
1
 40
1
 10
187.643347
 20
183.606440
 30
0.0
 10
187.795747
 20
182.890329
 30
0.0
 10
188.426513
 20
179.929367
 30
0.0
 10
188.578913
 20
179.212579
 30
0.0
  0
SPLINE
  5
11a
100
AcDbEntity
  8
0
 62
1
100
AcDbSpline
 70
8
 71
3
 72
8
 73
4
 74
0
 40
0
 40
0
 40
0
 40
0
 40
1
 40
1
 40
1
 40
1
 10
188.578913
 20
179.212579
 30
0.0
 10
188.587380
 20
179.171007
 30
0.0
 10
188.612780
 20
179.134685
 30
0.0
 10
188.648340
 20
179.111571
 30
0.0
  0
SPLINE
  5
11b
100
AcDbEntity
  8
0
 62
1
100
AcDbSpline
 70
8
 71
3
 72
8
 73
4
 74
0
 40
0
 40
0
 40
0
 40
0
 40
1
 40
1
 40
1
 40
1
 10
188.648340
 20
179.111571
 30
0.0
 10
188.683900
 20
179.088542
 30
0.0
 10
188.727080
 20
179.080499
 30
0.0
 10
188.768567
 20
179.089473
 30
0.0
  0
SPLINE
  5
11c
100
AcDbEntity
  8
0
 62
1
100
AcDbSpline
 70
8
 71
3
 72
8
 73
4
 74
0
 40
0
 40
0
 40
0
 40
0
 40
1
 40
1
 40
1
 40
1
 10
188.768567
 20
179.089473
 30
0.0
 10
190.463593
 20
179.453032
 30
0.0
 10
205.367467
 20
182.650892
 30
0.0
 10
207.059953
 20
183.013943
 30
0.0
  0
SPLINE
  5
11d
100
AcDbEntity
  8
0
 62
1
100
AcDbSpline
 70
8
 71
3
 72
8
 73
4
 74
0
 40
0
 40
0
 40
0
 40
0
 40
1
 40
1
 40
1
 40
1
 10
207.059953
 20
183.013943
 30
0.0
 10
207.146313
 20
183.032485
 30
0.0
 10
207.230980
 20
182.977536
 30
0.0
 10
207.249607
 20
182.891261
 30
0.0
  0
SPLINE
  5
11e
100
AcDbEntity
  8
0
 62
1
100
AcDbSpline
 70
8
 71
3
 72
8
 73
4
 74
0
 40
0
 40
0
 40
0
 40
0
 40
1
 40
1
 40
1
 40
1
 10
207.249607
 20
182.891261
 30
0.0
 10
207.402853
 20
182.183193
 30
0.0
 10
208.031080
 20
179.277603
 30
0.0
 10
208.183480
 20
178.570297
 30
0.0
  0
SPLINE
  5
11f
100
AcDbEntity
  8
0
 62
1
100
AcDbSpline
 70
8
 71
3
 72
8
 73
4
 74
0
 40
0
 40
0
 40
0
 40
0
 40
1
 40
1
 40
1
 40
1
 10
208.183480
 20
178.570297
 30
0.0
 10
208.202107
 20
178.484191
 30
0.0
 10
208.286773
 20
178.429327
 30
0.0
 10
208.373133
 20
178.447615
 30
0.0
  0
SPLINE
  5
120
100
AcDbEntity
  8
0
 62
1
100
AcDbSpline
 70
8
 71
3
 72
8
 73
4
 74
0
 40
0
 40
0
 40
0
 40
0
 40
1
 40
1
 40
1
 40
1
 10
208.373133
 20
178.447615
 30
0.0
 10
210.880113
 20
178.978729
 30
0.0
 10
242.821460
 20
185.745797
 30
0.0
 10
245.331827
 20
186.277589
 30
0.0
  0
SPLINE
  5
121
100
AcDbEntity
  8
0
 62
1
100
AcDbSpline
 70
8
 71
3
 72
8
 73
4
 74
0
 40
0
 40
0
 40
0
 40
0
 40
1
 40
1
 40
1
 40
1
 10
245.331827
 20
186.277589
 30
0.0
 10
245.418187
 20
186.295877
 30
0.0
 10
245.502853
 20
186.240759
 30
0.0
 10
245.521480
 20
186.154483
 30
0.0
  0
SPLINE
  5
122
100
AcDbEntity
  8
0
 62
1
100
AcDbSpline
 70
8
 71
3
 72
8
 73
4
 74
0
 40
0
 40
0
 40
0
 40
0
 40
1
 40
1
 40
1
 40
1
 10
245.521480
 20
186.154483
 30
0.0
 10
245.883007
 20
184.460303
 30
0.0
 10
249.070707
 20
169.525273
 30
0.0
 10
249.432233
 20
167.830500
 30
0.0
  0
SPLINE
  5
123
100
AcDbEntity
  8
0
 62
1
100
AcDbSpline
 70
8
 71
3
 72
8
 73
4
 74
0
 40
0
 40
0
 40
0
 40
0
 40
1
 40
1
 40
1
 40
1
 10
249.432233
 20
167.830500
 30
0.0
 10
249.450860
 20
167.744055
 30
0.0
 10
249.536373
 20
167.689022
 30
0.0
 10
249.622733
 20
167.707395
 30
0.0
  0
SPLINE
  5
124
100
AcDbEntity
  8
0
 62
1
100
AcDbSpline
 70
8
 71
3
 72
8
 73
4
 74
0
 40
0
 40
0
 40
0
 40
0
 40
1
 40
1
 40
1
 40
1
 10
249.622733
 20
167.707395
 30
0.0
 10
250.739487
 20
167.944800
 30
0.0
 10
257.490807
 20
169.380408
 30
0.0
 10
258.607560
 20
169.617983
 30
0.0
  0
SPLINE
  5
125
100
AcDbEntity
  8
0
 62
1
100
AcDbSpline
 70
8
 71
3
 72
8
 73
4
 74
0
 40
0
 40
0
 40
0
 40
0
 40
1
 40
1
 40
1
 40
1
 10
258.607560
 20
169.617983
 30
0.0
 10
258.649047
 20
169.626788
 30
0.0
 10
258.693073
 20
169.618745
 30
0.0
 10
258.728633
 20
169.595631
 30
0.0
  0
SPLINE
  5
126
100
AcDbEntity
  8
0
 62
1
100
AcDbSpline
 70
8
 71
3
 72
8
 73
4
 74
0
 40
0
 40
0
 40
0
 40
0
 40
1
 40
1
 40
1
 40
1
 10
258.728633
 20
169.595631
 30
0.0
 10
258.764193
 20
169.572517
 30
0.0
 10
258.788747
 20
169.536195
 30
0.0
 10
258.797213
 20
169.494708
 30
0.0
  0
SPLINE
  5
127
100
AcDbEntity
  8
0
 62
1
100
AcDbSpline
 70
8
 71
3
 72
8
 73
4
 74
0
 40
0
 40
0
 40
0
 40
0
 40
1
 40
1
 40
1
 40
1
 10
258.797213
 20
169.494708
 30
0.0
 10
259.165513
 20
167.758618
 30
0.0
 10
262.480213
 20
152.137279
 30
0.0
 10
262.848513
 20
150.404745
 30
0.0
  0
SPLINE
  5
128
100
AcDbEntity
  8
0
 62
1
100
AcDbSpline
 70
8
 71
3
 72
8
 73
4
 74
0
 40
0
 40
0
 40
0
 40
0
 40
1
 40
1
 40
1
 40
1
 10
262.848513
 20
150.404745
 30
0.0
 10
262.866293
 20
150.318555
 30
0.0
 10
262.811260
 20
150.233803
 30
0.0
 10
262.725747
 20
150.215177
 30
0.0
  0
SPLINE
  5
129
100
AcDbEntity
  8
0
 62
1
100
AcDbSpline
 70
8
 71
3
 72
8
 73
4
 74
0
 40
0
 40
0
 40
0
 40
0
 40
1
 40
1
 40
1
 40
1
 10
262.725747
 20
150.215177
 30
0.0
 10
262.012007
 20
150.060829
 30
0.0
 10
259.059680
 20
149.422443
 30
0.0
 10
258.346787
 20
149.268180
 30
0.0
  0
SPLINE
  5
12a
100
AcDbEntity
  8
0
 62
1
100
AcDbSpline
 70
8
 71
3
 72
8
 73
4
 74
0
 40
0
 40
0
 40
0
 40
0
 40
1
 40
1
 40
1
 40
1
 10
258.346787
 20
149.268180
 30
0.0
 10
258.260427
 20
149.249553
 30
0.0
 10
258.205393
 20
149.164802
 30
0.0
 10
258.224020
 20
149.078611
 30
0.0
  0
SPLINE
  5
12b
100
AcDbEntity
  8
0
 62
1
100
AcDbSpline
 70
8
 71
3
 72
8
 73
4
 74
0
 40
0
 40
0
 40
0
 40
0
 40
1
 40
1
 40
1
 40
1
 10
258.224020
 20
149.078611
 30
0.0
 10
258.583007
 20
147.384262
 30
0.0
 10
261.754620
 20
132.413841
 30
0.0
 10
262.114453
 20
130.716697
 30
0.0
  0
SPLINE
  5
12c
100
AcDbEntity
  8
0
 62
1
100
AcDbSpline
 70
8
 71
3
 72
8
 73
4
 74
0
 40
0
 40
0
 40
0
 40
0
 40
1
 40
1
 40
1
 40
1
 10
262.114453
 20
130.716697
 30
0.0
 10
262.132233
 20
130.630337
 30
0.0
 10
262.077200
 20
130.545417
 30
0.0
 10
261.990840
 20
130.527044
 30
0.0
  0
SPLINE
  5
12d
100
AcDbEntity
  8
0
 62
1
100
AcDbSpline
 70
8
 71
3
 72
8
 73
4
 74
0
 40
0
 40
0
 40
0
 40
0
 40
1
 40
1
 40
1
 40
1
 10
261.990840
 20
130.527044
 30
0.0
 10
260.068907
 20
130.118104
 30
0.0
 10
241.036687
 20
126.069429
 30
0.0
 10
239.113907
 20
125.660404
 30
0.0
  0
SPLINE
  5
12e
100
AcDbEntity
  8
0
 62
1
100
AcDbSpline
 70
8
 71
3
 72
8
 73
4
 74
0
 40
0
 40
0
 40
0
 40
0
 40
1
 40
1
 40
1
 40
1
 10
239.113907
 20
125.660404
 30
0.0
 10
239.027547
 20
125.642031
 30
0.0
 10
238.972513
 20
125.557026
 30
0.0
 10
238.990293
 20
125.470666
 30
0.0
  0
SPLINE
  5
12f
100
AcDbEntity
  8
0
 62
1
100
AcDbSpline
 70
8
 71
3
 72
8
 73
4
 74
0
 40
0
 40
0
 40
0
 40
0
 40
1
 40
1
 40
1
 40
1
 10
238.990293
 20
125.470666
 30
0.0
 10
239.391613
 20
123.584547
 30
0.0
 10
243.287127
 20
105.240667
 30
0.0
 10
243.686753
 20
103.355140
 30
0.0
  0
SPLINE
  5
130
100
AcDbEntity
  8
0
 62
1
100
AcDbSpline
 70
8
 71
3
 72
8
 73
4
 74
0
 40
0
 40
0
 40
0
 40
0
 40
1
 40
1
 40
1
 40
1
 10
243.686753
 20
103.355140
 30
0.0
 10
243.705380
 20
103.268780
 30
0.0
 10
243.790047
 20
103.213747
 30
0.0
 10
243.876407
 20
103.232373
 30
0.0
  0
SPLINE
  5
131
100
AcDbEntity
  8
0
 62
1
100
AcDbSpline
 70
8
 71
3
 72
8
 73
4
 74
0
 40
0
 40
0
 40
0
 40
0
 40
1
 40
1
 40
1
 40
1
 10
243.876407
 20
103.232373
 30
0.0
 10
245.304733
 20
103.532940
 30
0.0
 10
256.072640
 20
105.797773
 30
0.0
 10
257.500120
 20
106.098340
 30
0.0
  0
SPLINE
  5
132
100
AcDbEntity
  8
0
 62
1
100
AcDbSpline
 70
8
 71
3
 72
8
 73
4
 74
0
 40
0
 40
0
 40
0
 40
0
 40
1
 40
1
 40
1
 40
1
 10
257.500120
 20
106.098340
 30
0.0
 10
257.586480
 20
106.116120
 30
0.0
 10
257.671147
 20
106.061087
 30
0.0
 10
257.689773
 20
105.974727
 30
0.0
  0
SPLINE
  5
133
100
AcDbEntity
  8
0
 62
1
100
AcDbSpline
 70
8
 71
3
 72
8
 73
4
 74
0
 40
0
 40
0
 40
0
 40
0
 40
1
 40
1
 40
1
 40
1
 10
257.689773
 20
105.974727
 30
0.0
 10
258.058920
 20
104.239060
 30
0.0
 10
261.386320
 20
88.590120
 30
0.0
 10
261.755467
 20
86.853607
 30
0.0
  0
SPLINE
  5
134
100
AcDbEntity
  8
0
 62
1
100
AcDbSpline
 70
8
 71
3
 72
8
 73
4
 74
0
 40
0
 40
0
 40
0
 40
0
 40
1
 40
1
 40
1
 40
1
 10
261.755467
 20
86.853607
 30
0.0
 10
261.774093
 20
86.767247
 30
0.0
 10
261.719060
 20
86.682580
 30
0.0
 10
261.632700
 20
86.663953
 30
0.0
  0
SPLINE
  5
135
100
AcDbEntity
  8
0
 62
1
100
AcDbSpline
 70
8
 71
3
 72
8
 73
4
 74
0
 40
0
 40
0
 40
0
 40
0
 40
1
 40
1
 40
1
 40
1
 10
261.632700
 20
86.663953
 30
0.0
 10
259.893647
 20
86.293113
 30
0.0
 10
244.208300
 20
82.947933
 30
0.0
 10
242.463320
 20
82.575400
 30
0.0
  0
SPLINE
  5
136
100
AcDbEntity
  8
0
 62
1
100
AcDbSpline
 70
8
 71
3
 72
8
 73
4
 74
0
 40
0
 40
0
 40
0
 40
0
 40
1
 40
1
 40
1
 40
1
 10
242.463320
 20
82.575400
 30
0.0
 10
242.420987
 20
82.566933
 30
0.0
 10
242.377807
 20
82.574553
 30
0.0
 10
242.342247
 20
82.598260
 30
0.0
  0
SPLINE
  5
137
100
AcDbEntity
  8
0
 62
1
100
AcDbSpline
 70
8
 71
3
 72
8
 73
4
 74
0
 40
0
 40
0
 40
0
 40
0
 40
1
 40
1
 40
1
 40
1
 10
242.342247
 20
82.598260
 30
0.0
 10
242.306687
 20
82.621120
 30
0.0
 10
242.281287
 20
82.657527
 30
0.0
 10
242.272820
 20
82.699860
 30
0.0
  0
SPLINE
  5
138
100
AcDbEntity
  8
0
 62
1
100
AcDbSpline
 70
8
 71
3
 72
8
 73
4
 74
0
 40
0
 40
0
 40
0
 40
0
 40
1
 40
1
 40
1
 40
1
 10
242.272820
 20
82.699860
 30
0.0
 10
242.125500
 20
83.415293
 30
0.0
 10
241.520133
 20
86.351533
 30
0.0
 10
241.372813
 20
87.066967
 30
0.0
  0
SPLINE
  5
139
100
AcDbEntity
  8
0
 62
1
100
AcDbSpline
 70
8
 71
3
 72
8
 73
4
 74
0
 40
0
 40
0
 40
0
 40
0
 40
1
 40
1
 40
1
 40
1
 10
241.372813
 20
87.066967
 30
0.0
 10
241.364347
 20
87.109300
 30
0.0
 10
241.339793
 20
87.145707
 30
0.0
 10
241.304233
 20
87.168567
 30
0.0
  0
SPLINE
  5
13a
100
AcDbEntity
  8
0
 62
1
100
AcDbSpline
 70
8
 71
3
 72
8
 73
4
 74
0
 40
0
 40
0
 40
0
 40
0
 40
1
 40
1
 40
1
 40
1
 10
241.304233
 20
87.168567
 30
0.0
 10
241.267827
 20
87.192273
 30
0.0
 10
241.224647
 20
87.199893
 30
0.0
 10
241.183160
 20
87.191427
 30
0.0
  0
SPLINE
  5
13b
100
AcDbEntity
  8
0
 62
1
100
AcDbSpline
 70
8
 71
3
 72
8
 73
4
 74
0
 40
0
 40
0
 40
0
 40
0
 40
1
 40
1
 40
1
 40
1
 10
241.183160
 20
87.191427
 30
0.0
 10
239.482207
 20
86.830747
 30
0.0
 10
224.533460
 20
83.661673
 30
0.0
 10
222.832507
 20
83.300993
 30
0.0
  0
SPLINE
  5
13c
100
AcDbEntity
  8
0
 62
1
100
AcDbSpline
 70
8
 71
3
 72
8
 73
4
 74
0
 40
0
 40
0
 40
0
 40
0
 40
1
 40
1
 40
1
 40
1
 10
222.832507
 20
83.300993
 30
0.0
 10
222.791020
 20
83.291680
 30
0.0
 10
222.747840
 20
83.300147
 30
0.0
 10
222.712280
 20
83.323853
 30
0.0
  0
SPLINE
  5
13d
100
AcDbEntity
  8
0
 62
1
100
AcDbSpline
 70
8
 71
3
 72
8
 73
4
 74
0
 40
0
 40
0
 40
0
 40
0
 40
1
 40
1
 40
1
 40
1
 10
222.712280
 20
83.323853
 30
0.0
 10
222.676720
 20
83.346713
 30
0.0
 10
222.651320
 20
83.383120
 30
0.0
 10
222.642853
 20
83.425453
 30
0.0
  0
SPLINE
  5
13e
100
AcDbEntity
  8
0
 62
1
100
AcDbSpline
 70
8
 71
3
 72
8
 73
4
 74
0
 40
0
 40
0
 40
0
 40
0
 40
1
 40
1
 40
1
 40
1
 10
222.642853
 20
83.425453
 30
0.0
 10
222.496380
 20
84.135807
 30
0.0
 10
221.897787
 20
87.041567
 30
0.0
 10
221.751313
 20
87.752767
 30
0.0
  0
SPLINE
  5
13f
100
AcDbEntity
  8
0
 62
1
100
AcDbSpline
 70
8
 71
3
 72
8
 73
4
 74
0
 40
0
 40
0
 40
0
 40
0
 40
1
 40
1
 40
1
 40
1
 10
221.751313
 20
87.752767
 30
0.0
 10
221.742847
 20
87.795100
 30
0.0
 10
221.717447
 20
87.831507
 30
0.0
 10
221.681887
 20
87.855213
 30
0.0
  0
SPLINE
  5
140
100
AcDbEntity
  8
0
 62
1
100
AcDbSpline
 70
8
 71
3
 72
8
 73
4
 74
0
 40
0
 40
0
 40
0
 40
0
 40
1
 40
1
 40
1
 40
1
 10
221.681887
 20
87.855213
 30
0.0
 10
221.646327
 20
87.878073
 30
0.0
 10
221.603147
 20
87.886540
 30
0.0
 10
221.560813
 20
87.877227
 30
0.0
  0
SPLINE
  5
141
100
AcDbEntity
  8
0
 62
1
100
AcDbSpline
 70
8
 71
3
 72
8
 73
4
 74
0
 40
0
 40
0
 40
0
 40
0
 40
1
 40
1
 40
1
 40
1
 10
221.560813
 20
87.877227
 30
0.0
 10
219.859013
 20
87.514007
 30
0.0
 10
204.916193
 20
84.326307
 30
0.0
 10
203.222013
 20
83.964780
 30
0.0
  0
SPLINE
  5
142
100
AcDbEntity
  8
0
 62
1
100
AcDbSpline
 70
8
 71
3
 72
8
 73
4
 74
0
 40
0
 40
0
 40
0
 40
0
 40
1
 40
1
 40
1
 40
1
 10
203.222013
 20
83.964780
 30
0.0
 10
203.135653
 20
83.946153
 30
0.0
 10
203.050140
 20
84.001187
 30
0.0
 10
203.031513
 20
84.087547
 30
0.0
  0
SPLINE
  5
143
100
AcDbEntity
  8
0
 62
1
100
AcDbSpline
 70
8
 71
3
 72
8
 73
4
 74
0
 40
0
 40
0
 40
0
 40
0
 40
1
 40
1
 40
1
 40
1
 10
203.031513
 20
84.087547
 30
0.0
 10
202.878267
 20
84.798747
 30
0.0
 10
202.247500
 20
87.730753
 30
0.0
 10
202.094253
 20
88.441953
 30
0.0
  0
SPLINE
  5
144
100
AcDbEntity
  8
0
 62
1
100
AcDbSpline
 70
8
 71
3
 72
8
 73
4
 74
0
 40
0
 40
0
 40
0
 40
0
 40
1
 40
1
 40
1
 40
1
 10
202.094253
 20
88.441953
 30
0.0
 10
202.075627
 20
88.528313
 30
0.0
 10
201.990960
 20
88.582500
 30
0.0
 10
201.904600
 20
88.564720
 30
0.0
  0
SPLINE
  5
145
100
AcDbEntity
  8
0
 62
1
100
AcDbSpline
 70
8
 71
3
 72
8
 73
4
 74
0
 40
0
 40
0
 40
0
 40
0
 40
1
 40
1
 40
1
 40
1
 10
201.904600
 20
88.564720
 30
0.0
 10
199.995367
 20
88.159167
 30
0.0
 10
181.176507
 20
84.162053
 30
0.0
 10
179.265580
 20
83.756500
 30
0.0
  0
SPLINE
  5
146
100
AcDbEntity
  8
0
 62
1
100
AcDbSpline
 70
8
 71
3
 72
8
 73
4
 74
0
 40
0
 40
0
 40
0
 40
0
 40
1
 40
1
 40
1
 40
1
 10
179.265580
 20
83.756500
 30
0.0
 10
179.179220
 20
83.737873
 30
0.0
 10
179.093707
 20
83.792907
 30
0.0
 10
179.075927
 20
83.879267
 30
0.0
  0
SPLINE
  5
147
100
AcDbEntity
  8
0
 62
1
100
AcDbSpline
 70
8
 71
3
 72
8
 73
4
 74
0
 40
0
 40
0
 40
0
 40
0
 40
1
 40
1
 40
1
 40
1
 10
179.075927
 20
83.879267
 30
0.0
 10
178.836320
 20
84.998560
 30
0.0
 10
177.385980
 20
91.784593
 30
0.0
 10
177.146373
 20
92.903887
 30
0.0
  0
SPLINE
  5
148
100
AcDbEntity
  8
0
 62
1
100
AcDbSpline
 70
8
 71
3
 72
8
 73
4
 74
0
 40
0
 40
0
 40
0
 40
0
 40
1
 40
1
 40
1
 40
1
 10
177.146373
 20
92.903887
 30
0.0
 10
177.128593
 20
92.990247
 30
0.0
 10
177.043080
 20
93.045280
 30
0.0
 10
176.956720
 20
93.027500
 30
0.0
  0
SPLINE
  5
149
100
AcDbEntity
  8
0
 62
1
100
AcDbSpline
 70
8
 71
3
 72
8
 73
4
 74
0
 40
0
 40
0
 40
0
 40
0
 40
1
 40
1
 40
1
 40
1
 10
176.956720
 20
93.027500
 30
0.0
 10
173.282187
 20
92.242640
 30
0.0
 10
106.069553
 20
77.892487
 30
0.0
 10
102.391633
 20
77.106780
 30
0.0
  0
SPLINE
  5
14a
100
AcDbEntity
  8
0
 62
1
100
AcDbSpline
 70
8
 71
3
 72
8
 73
4
 74
0
 40
0
 40
0
 40
0
 40
0
 40
1
 40
1
 40
1
 40
1
 10
102.391633
 20
77.106780
 30
0.0
 10
102.350147
 20
77.098313
 30
0.0
 10
102.306967
 20
77.105933
 30
0.0
 10
102.271407
 20
77.129640
 30
0.0
  0
SPLINE
  5
14b
100
AcDbEntity
  8
0
 62
1
100
AcDbSpline
 70
8
 71
3
 72
8
 73
4
 74
0
 40
0
 40
0
 40
0
 40
0
 40
1
 40
1
 40
1
 40
1
 10
102.271407
 20
77.129640
 30
0.0
 10
102.235847
 20
77.152500
 30
0.0
 10
102.210447
 20
77.188907
 30
0.0
 10
102.201980
 20
77.230393
 30
0.0
  0
SPLINE
  5
14c
100
AcDbEntity
  8
0
 62
1
100
AcDbSpline
 70
8
 71
3
 72
8
 73
4
 74
0
 40
0
 40
0
 40
0
 40
0
 40
1
 40
1
 40
1
 40
1
 10
102.201980
 20
77.230393
 30
0.0
 10
101.831140
 20
78.976220
 30
0.0
 10
98.485960
 20
94.756393
 30
0.0
 10
98.115967
 20
96.502220
 30
0.0
  0
SPLINE
  5
14d
100
AcDbEntity
  8
0
 62
1
100
AcDbSpline
 70
8
 71
3
 72
8
 73
4
 74
0
 40
0
 40
0
 40
0
 40
0
 40
1
 40
1
 40
1
 40
1
 10
98.115967
 20
96.502220
 30
0.0
 10
98.106653
 20
96.543707
 30
0.0
 10
98.115120
 20
96.586887
 30
0.0
 10
98.137980
 20
96.622447
 30
0.0
  0
SPLINE
  5
14e
100
AcDbEntity
  8
0
 62
1
100
AcDbSpline
 70
8
 71
3
 72
8
 73
4
 74
0
 40
0
 40
0
 40
0
 40
0
 40
1
 40
1
 40
1
 40
1
 10
98.137980
 20
96.622447
 30
0.0
 10
98.160840
 20
96.658007
 30
0.0
 10
98.198093
 20
96.682560
 30
0.0
 10
98.239580
 20
96.691873
 30
0.0
  0
SPLINE
  5
14f
100
AcDbEntity
  8
0
 62
1
100
AcDbSpline
 70
8
 71
3
 72
8
 73
4
 74
0
 40
0
 40
0
 40
0
 40
0
 40
1
 40
1
 40
1
 40
1
 10
98.239580
 20
96.691873
 30
0.0
 10
99.360567
 20
96.928093
 30
0.0
 10
106.156760
 20
98.362347
 30
0.0
 10
107.279440
 20
98.599413
 30
0.0
  0
SPLINE
  5
150
100
AcDbEntity
  8
0
 62
1
100
AcDbSpline
 70
8
 71
3
 72
8
 73
4
 74
0
 40
0
 40
0
 40
0
 40
0
 40
1
 40
1
 40
1
 40
1
 10
107.279440
 20
98.599413
 30
0.0
 10
107.321773
 20
98.607880
 30
0.0
 10
107.357333
 20
98.633280
 30
0.0
 10
107.381040
 20
98.668840
 30
0.0
  0
SPLINE
  5
151
100
AcDbEntity
  8
0
 62
1
100
AcDbSpline
 70
8
 71
3
 72
8
 73
4
 74
0
 40
0
 40
0
 40
0
 40
0
 40
1
 40
1
 40
1
 40
1
 10
107.381040
 20
98.668840
 30
0.0
 10
107.403900
 20
98.704400
 30
0.0
 10
107.412367
 20
98.747580
 30
0.0
 10
107.403053
 20
98.789913
 30
0.0
  0
SPLINE
  5
152
100
AcDbEntity
  8
0
 62
1
100
AcDbSpline
 70
8
 71
3
 72
8
 73
4
 74
0
 40
0
 40
0
 40
0
 40
0
 40
1
 40
1
 40
1
 40
1
 10
107.403053
 20
98.789913
 30
0.0
 10
106.741807
 20
101.876013
 30
0.0
 10
96.534393
 20
149.484588
 30
0.0
 10
95.939187
 20
152.261401
 30
0.0
  0
SPLINE
  5
153
100
AcDbEntity
  8
0
 62
1
100
AcDbSpline
 70
8
 71
3
 72
8
 73
4
 74
0
 40
0
 40
0
 40
0
 40
0
 40
1
 40
1
 40
1
 40
1
 10
95.939187
 20
152.261401
 30
0.0
 10
95.923100
 20
152.335230
 30
0.0
 10
95.857907
 20
152.387893
 30
0.0
 10
95.782553
 20
152.387893
 30
0.0
  0
SPLINE
  5
154
100
AcDbEntity
  8
0
 62
1
100
AcDbSpline
 70
8
 71
3
 72
8
 73
4
 74
0
 40
0
 40
0
 40
0
 40
0
 40
1
 40
1
 40
1
 40
1
 10
95.782553
 20
152.387893
 30
0.0
 10
95.154327
 20
152.387893
 30
0.0
 10
92.420440
 20
152.387893
 30
0.0
 10
91.727020
 20
152.387893
 30
0.0
  0
SPLINE
  5
155
100
AcDbEntity
  8
0
 62
1
100
AcDbSpline
 70
8
 71
3
 72
8
 73
4
 74
0
 40
0
 40
0
 40
0
 40
0
 40
1
 40
1
 40
1
 40
1
 10
91.727020
 20
152.387893
 30
0.0
 10
91.638967
 20
152.387893
 30
0.0
 10
91.567000
 20
152.316265
 30
0.0
 10
91.567000
 20
152.227873
 30
0.0
  0
SPLINE
  5
156
100
AcDbEntity
  8
0
 62
1
100
AcDbSpline
 70
8
 71
3
 72
8
 73
4
 74
0
 40
0
 40
0
 40
0
 40
0
 40
1
 40
1
 40
1
 40
1
 10
91.567000
 20
152.227873
 30
0.0
 10
91.567000
 20
148.440817
 30
0.0
 10
91.567000
 20
78.624853
 30
0.0
 10
91.567000
 20
71.188580
 30
0.0
  0
SPLINE
  5
157
100
AcDbEntity
  8
0
 62
1
100
AcDbSpline
 70
8
 71
3
 72
8
 73
4
 74
0
 40
0
 40
0
 40
0
 40
0
 40
1
 40
1
 40
1
 40
1
 10
91.567000
 20
71.188580
 30
0.0
 10
91.567000
 20
71.018400
 30
0.0
 10
91.634733
 20
70.855840
 30
0.0
 10
91.754960
 20
70.735613
 30
0.0
  0
SPLINE
  5
158
100
AcDbEntity
  8
0
 62
1
100
AcDbSpline
 70
8
 71
3
 72
8
 73
4
 74
0
 40
0
 40
0
 40
0
 40
0
 40
1
 40
1
 40
1
 40
1
 10
91.754960
 20
70.735613
 30
0.0
 10
91.874340
 20
70.616233
 30
0.0
 10
92.037747
 20
70.548500
 30
0.0
 10
92.207080
 20
70.548500
 30
0.0
  0
SPLINE
  5
159
100
AcDbEntity
  8
0
 62
1
100
AcDbSpline
 70
8
 71
3
 72
8
 73
4
 74
0
 40
0
 40
0
 40
0
 40
0
 40
1
 40
1
 40
1
 40
1
 10
92.207080
 20
70.548500
 30
0.0
 10
95.212747
 20
70.548500
 30
0.0
 10
107.907667
 20
70.548500
 30
0.0
 10
111.011547
 20
70.548500
 30
0.0
  0
SPLINE
  5
15a
100
AcDbEntity
  8
0
 62
1
100
AcDbSpline
 70
8
 71
3
 72
8
 73
4
 74
0
 40
0
 40
0
 40
0
 40
0
 40
1
 40
1
 40
1
 40
1
 10
111.011547
 20
70.548500
 30
0.0
 10
111.467900
 20
70.548500
 30
0.0
 10
111.922560
 20
70.597607
 30
0.0
 10
112.368753
 20
70.694127
 30
0.0
  0
SPLINE
  5
15b
100
AcDbEntity
  8
0
 62
1
100
AcDbSpline
 70
8
 71
3
 72
8
 73
4
 74
0
 40
0
 40
0
 40
0
 40
0
 40
1
 40
1
 40
1
 40
1
 10
112.368753
 20
70.694127
 30
0.0
 10
117.029653
 20
71.705893
 30
0.0
 10
144.521767
 20
77.674047
 30
0.0
 10
149.181820
 20
78.685813
 30
0.0
  0
SPLINE
  5
15c
100
AcDbEntity
  8
0
 62
1
100
AcDbSpline
 70
8
 71
3
 72
8
 73
4
 74
0
 40
0
 40
0
 40
0
 40
0
 40
1
 40
1
 40
1
 40
1
 10
149.181820
 20
78.685813
 30
0.0
 10
149.628013
 20
78.782333
 30
0.0
 10
150.083520
 20
78.831440
 30
0.0
 10
150.539873
 20
78.831440
 30
0.0
  0
SPLINE
  5
15d
100
AcDbEntity
  8
0
 62
1
100
AcDbSpline
 70
8
 71
3
 72
8
 73
4
 74
0
 40
0
 40
0
 40
0
 40
0
 40
1
 40
1
 40
1
 40
1
 10
264.041467
 20
78.831440
 30
0.0
 10
264.465647
 20
78.831440
 30
0.0
 10
264.872893
 20
78.999927
 30
0.0
 10
265.173460
 20
79.300493
 30
0.0
  0
SPLINE
  5
15e
100
AcDbEntity
  8
0
 62
1
100
AcDbSpline
 70
8
 71
3
 72
8
 73
4
 74
0
 40
0
 40
0
 40
0
 40
0
 40
1
 40
1
 40
1
 40
1
 10
265.173460
 20
79.300493
 30
0.0
 10
265.473180
 20
79.600213
 30
0.0
 10
265.641667
 20
80.007460
 30
0.0
 10
265.641667
 20
80.431640
 30
0.0
  0
SPLINE
  5
15f
100
AcDbEntity
  8
0
 62
1
100
AcDbSpline
 70
8
 71
3
 72
8
 73
4
 74
0
 40
0
 40
0
 40
0
 40
0
 40
1
 40
1
 40
1
 40
1
 10
265.641667
 20
80.431640
 30
0.0
 10
265.641667
 20
93.522800
 30
0.0
 10
265.641667
 20
182.857309
 30
0.0
 10
265.641667
 20
195.948469
 30
0.0
  0
SPLINE
  5
160
100
AcDbEntity
  8
0
 62
1
100
AcDbSpline
 70
8
 71
3
 72
8
 73
4
 74
0
 40
0
 40
0
 40
0
 40
0
 40
1
 40
1
 40
1
 40
1
 10
265.641667
 20
195.948469
 30
0.0
 10
265.641667
 20
196.372819
 30
0.0
 10
265.473180
 20
196.779811
 30
0.0
 10
265.173460
 20
197.079870
 30
0.0
  0
SPLINE
  5
161
100
AcDbEntity
  8
0
 62
1
100
AcDbSpline
 70
8
 71
3
 72
8
 73
4
 74
0
 40
0
 40
0
 40
0
 40
0
 40
1
 40
1
 40
1
 40
1
 10
265.173460
 20
197.079870
 30
0.0
 10
264.872893
 20
197.379929
 30
0.0
 10
264.465647
 20
197.548500
 30
0.0
 10
264.041467
 20
197.548500
 30
0.0
  0
LWPOLYLINE
  5
162
100
AcDbEntity
  8
0
 62
1
100
AcDbPolyline
 90
2
 70
0
 10
150.539873
 20
78.831440
 30
0.0
 10
264.041467
 20
78.831440
 30
0.0
  0
SPLINE
  5
163
100
AcDbEntity
  8
0
 62
1
100
AcDbSpline
 70
8
 71
3
 72
8
 73
4
 74
0
 40
0
 40
0
 40
0
 40
0
 40
1
 40
1
 40
1
 40
1
 10
95.565807
 20
73.548240
 30
0.0
 10
96.118680
 20
73.548240
 30
0.0
 10
96.567413
 20
73.996127
 30
0.0
 10
96.567413
 20
74.549000
 30
0.0
  0
SPLINE
  5
164
100
AcDbEntity
  8
0
 62
1
100
AcDbSpline
 70
8
 71
3
 72
8
 73
4
 74
0
 40
0
 40
0
 40
0
 40
0
 40
1
 40
1
 40
1
 40
1
 10
96.567413
 20
74.549000
 30
0.0
 10
96.567413
 20
75.100180
 30
0.0
 10
96.118680
 20
75.548913
 30
0.0
 10
95.565807
 20
75.548913
 30
0.0
  0
SPLINE
  5
165
100
AcDbEntity
  8
0
 62
1
100
AcDbSpline
 70
8
 71
3
 72
8
 73
4
 74
0
 40
0
 40
0
 40
0
 40
0
 40
1
 40
1
 40
1
 40
1
 10
95.565807
 20
75.548913
 30
0.0
 10
95.015473
 20
75.548913
 30
0.0
 10
94.567587
 20
75.100180
 30
0.0
 10
94.567587
 20
74.549000
 30
0.0
  0
SPLINE
  5
166
100
AcDbEntity
  8
0
 62
1
100
AcDbSpline
 70
8
 71
3
 72
8
 73
4
 74
0
 40
0
 40
0
 40
0
 40
0
 40
1
 40
1
 40
1
 40
1
 10
94.567587
 20
74.549000
 30
0.0
 10
94.567587
 20
73.996127
 30
0.0
 10
95.015473
 20
73.548240
 30
0.0
 10
95.565807
 20
73.548240
 30
0.0
  0
LWPOLYLINE
  5
167
100
AcDbEntity
  8
0
 62
1
100
AcDbPolyline
 90
3
 70
0
 10
264.041467
 20
197.548500
 30
0.0
 10
92.207080
 20
197.548500
 30
0.0
 10
92.207080
 20
197.548500
 30
0.0
  0
SPLINE
  5
168
100
AcDbEntity
  8
0
 62
1
100
AcDbSpline
 70
8
 71
3
 72
8
 73
4
 74
0
 40
0
 40
0
 40
0
 40
0
 40
1
 40
1
 40
1
 40
1
 10
261.639473
 20
81.831180
 30
0.0
 10
262.193193
 20
81.831180
 30
0.0
 10
262.641927
 20
82.279067
 30
0.0
 10
262.641927
 20
82.831940
 30
0.0
  0
SPLINE
  5
169
100
AcDbEntity
  8
0
 62
1
100
AcDbSpline
 70
8
 71
3
 72
8
 73
4
 74
0
 40
0
 40
0
 40
0
 40
0
 40
1
 40
1
 40
1
 40
1
 10
262.641927
 20
82.831940
 30
0.0
 10
262.641927
 20
83.383967
 30
0.0
 10
262.193193
 20
83.831853
 30
0.0
 10
261.639473
 20
83.831853
 30
0.0
  0
SPLINE
  5
16a
100
AcDbEntity
  8
0
 62
1
100
AcDbSpline
 70
8
 71
3
 72
8
 73
4
 74
0
 40
0
 40
0
 40
0
 40
0
 40
1
 40
1
 40
1
 40
1
 10
261.639473
 20
83.831853
 30
0.0
 10
261.089987
 20
83.831853
 30
0.0
 10
260.641253
 20
83.383967
 30
0.0
 10
260.641253
 20
82.831940
 30
0.0
  0
SPLINE
  5
16b
100
AcDbEntity
  8
0
 62
1
100
AcDbSpline
 70
8
 71
3
 72
8
 73
4
 74
0
 40
0
 40
0
 40
0
 40
0
 40
1
 40
1
 40
1
 40
1
 10
260.641253
 20
82.831940
 30
0.0
 10
260.641253
 20
82.279067
 30
0.0
 10
261.089987
 20
81.831180
 30
0.0
 10
261.639473
 20
81.831180
 30
0.0
  0
LWPOLYLINE
  5
16c
100
AcDbEntity
  8
0
 62
1
100
AcDbPolyline
 90
1
 70
1
 10
95.565807
 20
73.548240
 30
0.0
  0
SPLINE
  5
16d
100
AcDbEntity
  8
0
 62
1
100
AcDbSpline
 70
8
 71
3
 72
8
 73
4
 74
0
 40
0
 40
0
 40
0
 40
0
 40
1
 40
1
 40
1
 40
1
 10
172.936747
 20
81.831180
 30
0.0
 10
173.489620
 20
81.831180
 30
0.0
 10
173.938353
 20
82.279067
 30
0.0
 10
173.938353
 20
82.831940
 30
0.0
  0
SPLINE
  5
16e
100
AcDbEntity
  8
0
 62
1
100
AcDbSpline
 70
8
 71
3
 72
8
 73
4
 74
0
 40
0
 40
0
 40
0
 40
0
 40
1
 40
1
 40
1
 40
1
 10
173.938353
 20
82.831940
 30
0.0
 10
173.938353
 20
83.383967
 30
0.0
 10
173.489620
 20
83.831853
 30
0.0
 10
172.936747
 20
83.831853
 30
0.0
  0
SPLINE
  5
16f
100
AcDbEntity
  8
0
 62
1
100
AcDbSpline
 70
8
 71
3
 72
8
 73
4
 74
0
 40
0
 40
0
 40
0
 40
0
 40
1
 40
1
 40
1
 40
1
 10
172.936747
 20
83.831853
 30
0.0
 10
172.387260
 20
83.831853
 30
0.0
 10
171.938527
 20
83.383967
 30
0.0
 10
171.938527
 20
82.831940
 30
0.0
  0
SPLINE
  5
170
100
AcDbEntity
  8
0
 62
1
100
AcDbSpline
 70
8
 71
3
 72
8
 73
4
 74
0
 40
0
 40
0
 40
0
 40
0
 40
1
 40
1
 40
1
 40
1
 10
171.938527
 20
82.831940
 30
0.0
 10
171.938527
 20
82.279067
 30
0.0
 10
172.387260
 20
81.831180
 30
0.0
 10
172.936747
 20
81.831180
 30
0.0
  0
LWPOLYLINE
  5
171
100
AcDbEntity
  8
0
 62
1
100
AcDbPolyline
 90
1
 70
1
 10
261.639473
 20
81.831180
 30
0.0
  0
SPLINE
  5
172
100
AcDbEntity
  8
0
 62
1
100
AcDbSpline
 70
8
 71
3
 72
8
 73
4
 74
0
 40
0
 40
0
 40
0
 40
0
 40
1
 40
1
 40
1
 40
1
 10
246.626380
 20
106.325247
 30
0.0
 10
247.179253
 20
106.325247
 30
0.0
 10
247.627987
 20
106.773133
 30
0.0
 10
247.627987
 20
107.326007
 30
0.0
  0
SPLINE
  5
173
100
AcDbEntity
  8
0
 62
1
100
AcDbSpline
 70
8
 71
3
 72
8
 73
4
 74
0
 40
0
 40
0
 40
0
 40
0
 40
1
 40
1
 40
1
 40
1
 10
247.627987
 20
107.326007
 30
0.0
 10
247.627987
 20
107.877187
 30
0.0
 10
247.179253
 20
108.325920
 30
0.0
 10
246.626380
 20
108.325920
 30
0.0
  0
SPLINE
  5
174
100
AcDbEntity
  8
0
 62
1
100
AcDbSpline
 70
8
 71
3
 72
8
 73
4
 74
0
 40
0
 40
0
 40
0
 40
0
 40
1
 40
1
 40
1
 40
1
 10
246.626380
 20
108.325920
 30
0.0
 10
246.076047
 20
108.325920
 30
0.0
 10
245.628160
 20
107.877187
 30
0.0
 10
245.628160
 20
107.326007
 30
0.0
  0
SPLINE
  5
175
100
AcDbEntity
  8
0
 62
1
100
AcDbSpline
 70
8
 71
3
 72
8
 73
4
 74
0
 40
0
 40
0
 40
0
 40
0
 40
1
 40
1
 40
1
 40
1
 10
245.628160
 20
107.326007
 30
0.0
 10
245.628160
 20
106.773133
 30
0.0
 10
246.076047
 20
106.325247
 30
0.0
 10
246.626380
 20
106.325247
 30
0.0
  0
LWPOLYLINE
  5
176
100
AcDbEntity
  8
0
 62
1
100
AcDbPolyline
 90
1
 70
1
 10
172.936747
 20
81.831180
 30
0.0
  0
SPLINE
  5
177
100
AcDbEntity
  8
0
 62
1
100
AcDbSpline
 70
8
 71
3
 72
8
 73
4
 74
0
 40
0
 40
0
 40
0
 40
0
 40
1
 40
1
 40
1
 40
1
 10
103.281480
 20
106.381973
 30
0.0
 10
103.834353
 20
106.381973
 30
0.0
 10
104.283087
 20
106.829013
 30
0.0
 10
104.283087
 20
107.381887
 30
0.0
  0
SPLINE
  5
178
100
AcDbEntity
  8
0
 62
1
100
AcDbSpline
 70
8
 71
3
 72
8
 73
4
 74
0
 40
0
 40
0
 40
0
 40
0
 40
1
 40
1
 40
1
 40
1
 10
104.283087
 20
107.381887
 30
0.0
 10
104.283087
 20
107.933913
 30
0.0
 10
103.834353
 20
108.381800
 30
0.0
 10
103.281480
 20
108.381800
 30
0.0
  0
SPLINE
  5
179
100
AcDbEntity
  8
0
 62
1
100
AcDbSpline
 70
8
 71
3
 72
8
 73
4
 74
0
 40
0
 40
0
 40
0
 40
0
 40
1
 40
1
 40
1
 40
1
 10
103.281480
 20
108.381800
 30
0.0
 10
102.731147
 20
108.381800
 30
0.0
 10
102.283260
 20
107.933913
 30
0.0
 10
102.283260
 20
107.381887
 30
0.0
  0
SPLINE
  5
17a
100
AcDbEntity
  8
0
 62
1
100
AcDbSpline
 70
8
 71
3
 72
8
 73
4
 74
0
 40
0
 40
0
 40
0
 40
0
 40
1
 40
1
 40
1
 40
1
 10
102.283260
 20
107.381887
 30
0.0
 10
102.283260
 20
106.829013
 30
0.0
 10
102.731147
 20
106.381973
 30
0.0
 10
103.281480
 20
106.381973
 30
0.0
  0
LWPOLYLINE
  5
17b
100
AcDbEntity
  8
0
 62
1
100
AcDbPolyline
 90
1
 70
1
 10
246.626380
 20
106.325247
 30
0.0
  0
SPLINE
  5
17c
100
AcDbEntity
  8
0
 62
1
100
AcDbSpline
 70
8
 71
3
 72
8
 73
4
 74
0
 40
0
 40
0
 40
0
 40
0
 40
1
 40
1
 40
1
 40
1
 10
101.776953
 20
113.649760
 30
0.0
 10
102.329827
 20
113.649760
 30
0.0
 10
102.778560
 20
114.096800
 30
0.0
 10
102.778560
 20
114.649673
 30
0.0
  0
SPLINE
  5
17d
100
AcDbEntity
  8
0
 62
1
100
AcDbSpline
 70
8
 71
3
 72
8
 73
4
 74
0
 40
0
 40
0
 40
0
 40
0
 40
1
 40
1
 40
1
 40
1
 10
102.778560
 20
114.649673
 30
0.0
 10
102.778560
 20
115.201700
 30
0.0
 10
102.329827
 20
115.649587
 30
0.0
 10
101.776953
 20
115.649587
 30
0.0
  0
SPLINE
  5
17e
100
AcDbEntity
  8
0
 62
1
100
AcDbSpline
 70
8
 71
3
 72
8
 73
4
 74
0
 40
0
 40
0
 40
0
 40
0
 40
1
 40
1
 40
1
 40
1
 10
101.776953
 20
115.649587
 30
0.0
 10
101.227467
 20
115.649587
 30
0.0
 10
100.778733
 20
115.201700
 30
0.0
 10
100.778733
 20
114.649673
 30
0.0
  0
SPLINE
  5
17f
100
AcDbEntity
  8
0
 62
1
100
AcDbSpline
 70
8
 71
3
 72
8
 73
4
 74
0
 40
0
 40
0
 40
0
 40
0
 40
1
 40
1
 40
1
 40
1
 10
100.778733
 20
114.649673
 30
0.0
 10
100.778733
 20
114.096800
 30
0.0
 10
101.227467
 20
113.649760
 30
0.0
 10
101.776953
 20
113.649760
 30
0.0
  0
LWPOLYLINE
  5
180
100
AcDbEntity
  8
0
 62
1
100
AcDbPolyline
 90
1
 70
1
 10
103.281480
 20
106.381973
 30
0.0
  0
SPLINE
  5
181
100
AcDbEntity
  8
0
 62
1
100
AcDbSpline
 70
8
 71
3
 72
8
 73
4
 74
0
 40
0
 40
0
 40
0
 40
0
 40
1
 40
1
 40
1
 40
1
 10
99.943920
 20
122.081713
 30
0.0
 10
100.497640
 20
122.081713
 30
0.0
 10
100.945527
 20
122.528753
 30
0.0
 10
100.945527
 20
123.081627
 30
0.0
  0
SPLINE
  5
182
100
AcDbEntity
  8
0
 62
1
100
AcDbSpline
 70
8
 71
3
 72
8
 73
4
 74
0
 40
0
 40
0
 40
0
 40
0
 40
1
 40
1
 40
1
 40
1
 10
100.945527
 20
123.081627
 30
0.0
 10
100.945527
 20
123.633653
 30
0.0
 10
100.497640
 20
124.081540
 30
0.0
 10
99.943920
 20
124.081540
 30
0.0
  0
SPLINE
  5
183
100
AcDbEntity
  8
0
 62
1
100
AcDbSpline
 70
8
 71
3
 72
8
 73
4
 74
0
 40
0
 40
0
 40
0
 40
0
 40
1
 40
1
 40
1
 40
1
 10
99.943920
 20
124.081540
 30
0.0
 10
99.394433
 20
124.081540
 30
0.0
 10
98.945700
 20
123.633653
 30
0.0
 10
98.945700
 20
123.081627
 30
0.0
  0
SPLINE
  5
184
100
AcDbEntity
  8
0
 62
1
100
AcDbSpline
 70
8
 71
3
 72
8
 73
4
 74
0
 40
0
 40
0
 40
0
 40
0
 40
1
 40
1
 40
1
 40
1
 10
98.945700
 20
123.081627
 30
0.0
 10
98.945700
 20
122.528753
 30
0.0
 10
99.394433
 20
122.081713
 30
0.0
 10
99.943920
 20
122.081713
 30
0.0
  0
LWPOLYLINE
  5
185
100
AcDbEntity
  8
0
 62
1
100
AcDbPolyline
 90
1
 70
1
 10
101.776953
 20
113.649760
 30
0.0
  0
SPLINE
  5
186
100
AcDbEntity
  8
0
 62
1
100
AcDbSpline
 70
8
 71
3
 72
8
 73
4
 74
0
 40
0
 40
0
 40
0
 40
0
 40
1
 40
1
 40
1
 40
1
 10
95.565807
 20
133.607048
 30
0.0
 10
96.118680
 20
133.607048
 30
0.0
 10
96.567413
 20
134.054342
 30
0.0
 10
96.567413
 20
134.607215
 30
0.0
  0
SPLINE
  5
187
100
AcDbEntity
  8
0
 62
1
100
AcDbSpline
 70
8
 71
3
 72
8
 73
4
 74
0
 40
0
 40
0
 40
0
 40
0
 40
1
 40
1
 40
1
 40
1
 10
96.567413
 20
134.607215
 30
0.0
 10
96.567413
 20
135.159073
 30
0.0
 10
96.118680
 20
135.607044
 30
0.0
 10
95.565807
 20
135.607044
 30
0.0
  0
SPLINE
  5
188
100
AcDbEntity
  8
0
 62
1
100
AcDbSpline
 70
8
 71
3
 72
8
 73
4
 74
0
 40
0
 40
0
 40
0
 40
0
 40
1
 40
1
 40
1
 40
1
 10
95.565807
 20
135.607044
 30
0.0
 10
95.015473
 20
135.607044
 30
0.0
 10
94.567587
 20
135.159073
 30
0.0
 10
94.567587
 20
134.607215
 30
0.0
  0
SPLINE
  5
189
100
AcDbEntity
  8
0
 62
1
100
AcDbSpline
 70
8
 71
3
 72
8
 73
4
 74
0
 40
0
 40
0
 40
0
 40
0
 40
1
 40
1
 40
1
 40
1
 10
94.567587
 20
134.607215
 30
0.0
 10
94.567587
 20
134.054342
 30
0.0
 10
95.015473
 20
133.607048
 30
0.0
 10
95.565807
 20
133.607048
 30
0.0
  0
LWPOLYLINE
  5
18a
100
AcDbEntity
  8
0
 62
1
100
AcDbPolyline
 90
1
 70
1
 10
99.943920
 20
122.081713
 30
0.0
  0
SPLINE
  5
18b
100
AcDbEntity
  8
0
 62
1
100
AcDbSpline
 70
8
 71
3
 72
8
 73
4
 74
0
 40
0
 40
0
 40
0
 40
0
 40
1
 40
1
 40
1
 40
1
 10
261.639473
 20
145.277671
 30
0.0
 10
262.193193
 20
145.277671
 30
0.0
 10
262.641927
 20
145.724965
 30
0.0
 10
262.641927
 20
146.277838
 30
0.0
  0
SPLINE
  5
18c
100
AcDbEntity
  8
0
 62
1
100
AcDbSpline
 70
8
 71
3
 72
8
 73
4
 74
0
 40
0
 40
0
 40
0
 40
0
 40
1
 40
1
 40
1
 40
1
 10
262.641927
 20
146.277838
 30
0.0
 10
262.641927
 20
146.829695
 30
0.0
 10
262.193193
 20
147.277667
 30
0.0
 10
261.639473
 20
147.277667
 30
0.0
  0
SPLINE
  5
18d
100
AcDbEntity
  8
0
 62
1
100
AcDbSpline
 70
8
 71
3
 72
8
 73
4
 74
0
 40
0
 40
0
 40
0
 40
0
 40
1
 40
1
 40
1
 40
1
 10
261.639473
 20
147.277667
 30
0.0
 10
261.089987
 20
147.277667
 30
0.0
 10
260.641253
 20
146.829695
 30
0.0
 10
260.641253
 20
146.277838
 30
0.0
  0
SPLINE
  5
18e
100
AcDbEntity
  8
0
 62
1
100
AcDbSpline
 70
8
 71
3
 72
8
 73
4
 74
0
 40
0
 40
0
 40
0
 40
0
 40
1
 40
1
 40
1
 40
1
 10
260.641253
 20
146.277838
 30
0.0
 10
260.641253
 20
145.724965
 30
0.0
 10
261.089987
 20
145.277671
 30
0.0
 10
261.639473
 20
145.277671
 30
0.0
  0
LWPOLYLINE
  5
18f
100
AcDbEntity
  8
0
 62
1
100
AcDbPolyline
 90
1
 70
1
 10
95.565807
 20
133.607048
 30
0.0
  0
SPLINE
  5
190
100
AcDbEntity
  8
0
 62
1
100
AcDbSpline
 70
8
 71
3
 72
8
 73
4
 74
0
 40
0
 40
0
 40
0
 40
0
 40
1
 40
1
 40
1
 40
1
 10
222.343133
 20
183.624389
 30
0.0
 10
222.896853
 20
183.624389
 30
0.0
 10
223.344740
 20
184.071683
 30
0.0
 10
223.344740
 20
184.624557
 30
0.0
  0
SPLINE
  5
191
100
AcDbEntity
  8
0
 62
1
100
AcDbSpline
 70
8
 71
3
 72
8
 73
4
 74
0
 40
0
 40
0
 40
0
 40
0
 40
1
 40
1
 40
1
 40
1
 10
223.344740
 20
184.624557
 30
0.0
 10
223.344740
 20
185.176414
 30
0.0
 10
222.896853
 20
185.624385
 30
0.0
 10
222.343133
 20
185.624385
 30
0.0
  0
SPLINE
  5
192
100
AcDbEntity
  8
0
 62
1
100
AcDbSpline
 70
8
 71
3
 72
8
 73
4
 74
0
 40
0
 40
0
 40
0
 40
0
 40
1
 40
1
 40
1
 40
1
 10
222.343133
 20
185.624385
 30
0.0
 10
221.793647
 20
185.624385
 30
0.0
 10
221.344913
 20
185.176414
 30
0.0
 10
221.344913
 20
184.624557
 30
0.0
  0
SPLINE
  5
193
100
AcDbEntity
  8
0
 62
1
100
AcDbSpline
 70
8
 71
3
 72
8
 73
4
 74
0
 40
0
 40
0
 40
0
 40
0
 40
1
 40
1
 40
1
 40
1
 10
221.344913
 20
184.624557
 30
0.0
 10
221.344913
 20
184.071683
 30
0.0
 10
221.793647
 20
183.624389
 30
0.0
 10
222.343133
 20
183.624389
 30
0.0
  0
LWPOLYLINE
  5
194
100
AcDbEntity
  8
0
 62
1
100
AcDbPolyline
 90
1
 70
1
 10
261.639473
 20
145.277671
 30
0.0
  0
SPLINE
  5
195
100
AcDbEntity
  8
0
 62
1
100
AcDbSpline
 70
8
 71
3
 72
8
 73
4
 74
0
 40
0
 40
0
 40
0
 40
0
 40
1
 40
1
 40
1
 40
1
 10
124.773267
 20
184.624387
 30
0.0
 10
125.326140
 20
184.624387
 30
0.0
 10
125.774873
 20
185.071681
 30
0.0
 10
125.774873
 20
185.624555
 30
0.0
  0
SPLINE
  5
196
100
AcDbEntity
  8
0
 62
1
100
AcDbSpline
 70
8
 71
3
 72
8
 73
4
 74
0
 40
0
 40
0
 40
0
 40
0
 40
1
 40
1
 40
1
 40
1
 10
125.774873
 20
185.624555
 30
0.0
 10
125.774873
 20
186.176412
 30
0.0
 10
125.326140
 20
186.624383
 30
0.0
 10
124.773267
 20
186.624383
 30
0.0
  0
SPLINE
  5
197
100
AcDbEntity
  8
0
 62
1
100
AcDbSpline
 70
8
 71
3
 72
8
 73
4
 74
0
 40
0
 40
0
 40
0
 40
0
 40
1
 40
1
 40
1
 40
1
 10
124.773267
 20
186.624383
 30
0.0
 10
124.223780
 20
186.624383
 30
0.0
 10
123.775047
 20
186.176412
 30
0.0
 10
123.775047
 20
185.624555
 30
0.0
  0
SPLINE
  5
198
100
AcDbEntity
  8
0
 62
1
100
AcDbSpline
 70
8
 71
3
 72
8
 73
4
 74
0
 40
0
 40
0
 40
0
 40
0
 40
1
 40
1
 40
1
 40
1
 10
123.775047
 20
185.624555
 30
0.0
 10
123.775047
 20
185.071681
 30
0.0
 10
124.223780
 20
184.624387
 30
0.0
 10
124.773267
 20
184.624387
 30
0.0
  0
LWPOLYLINE
  5
199
100
AcDbEntity
  8
0
 62
1
100
AcDbPolyline
 90
1
 70
1
 10
222.343133
 20
183.624389
 30
0.0
  0
SPLINE
  5
19a
100
AcDbEntity
  8
0
 62
1
100
AcDbSpline
 70
8
 71
3
 72
8
 73
4
 74
0
 40
0
 40
0
 40
0
 40
0
 40
1
 40
1
 40
1
 40
1
 10
95.565807
 20
192.548510
 30
0.0
 10
96.118680
 20
192.548510
 30
0.0
 10
96.567413
 20
192.995804
 30
0.0
 10
96.567413
 20
193.548677
 30
0.0
  0
SPLINE
  5
19b
100
AcDbEntity
  8
0
 62
1
100
AcDbSpline
 70
8
 71
3
 72
8
 73
4
 74
0
 40
0
 40
0
 40
0
 40
0
 40
1
 40
1
 40
1
 40
1
 10
96.567413
 20
193.548677
 30
0.0
 10
96.567413
 20
194.100535
 30
0.0
 10
96.118680
 20
194.548506
 30
0.0
 10
95.565807
 20
194.548506
 30
0.0
  0
SPLINE
  5
19c
100
AcDbEntity
  8
0
 62
1
100
AcDbSpline
 70
8
 71
3
 72
8
 73
4
 74
0
 40
0
 40
0
 40
0
 40
0
 40
1
 40
1
 40
1
 40
1
 10
95.565807
 20
194.548506
 30
0.0
 10
95.015473
 20
194.548506
 30
0.0
 10
94.567587
 20
194.100535
 30
0.0
 10
94.567587
 20
193.548677
 30
0.0
  0
SPLINE
  5
19d
100
AcDbEntity
  8
0
 62
1
100
AcDbSpline
 70
8
 71
3
 72
8
 73
4
 74
0
 40
0
 40
0
 40
0
 40
0
 40
1
 40
1
 40
1
 40
1
 10
94.567587
 20
193.548677
 30
0.0
 10
94.567587
 20
192.995804
 30
0.0
 10
95.015473
 20
192.548510
 30
0.0
 10
95.565807
 20
192.548510
 30
0.0
  0
LWPOLYLINE
  5
19e
100
AcDbEntity
  8
0
 62
1
100
AcDbPolyline
 90
1
 70
1
 10
124.773267
 20
184.624387
 30
0.0
  0
SPLINE
  5
19f
100
AcDbEntity
  8
0
 62
1
100
AcDbSpline
 70
8
 71
3
 72
8
 73
4
 74
0
 40
0
 40
0
 40
0
 40
0
 40
1
 40
1
 40
1
 40
1
 10
261.639473
 20
192.548510
 30
0.0
 10
262.193193
 20
192.548510
 30
0.0
 10
262.641927
 20
192.995804
 30
0.0
 10
262.641927
 20
193.548677
 30
0.0
  0
SPLINE
  5
1a0
100
AcDbEntity
  8
0
 62
1
100
AcDbSpline
 70
8
 71
3
 72
8
 73
4
 74
0
 40
0
 40
0
 40
0
 40
0
 40
1
 40
1
 40
1
 40
1
 10
262.641927
 20
193.548677
 30
0.0
 10
262.641927
 20
194.100535
 30
0.0
 10
262.193193
 20
194.548506
 30
0.0
 10
261.639473
 20
194.548506
 30
0.0
  0
SPLINE
  5
1a1
100
AcDbEntity
  8
0
 62
1
100
AcDbSpline
 70
8
 71
3
 72
8
 73
4
 74
0
 40
0
 40
0
 40
0
 40
0
 40
1
 40
1
 40
1
 40
1
 10
261.639473
 20
194.548506
 30
0.0
 10
261.089987
 20
194.548506
 30
0.0
 10
260.641253
 20
194.100535
 30
0.0
 10
260.641253
 20
193.548677
 30
0.0
  0
SPLINE
  5
1a2
100
AcDbEntity
  8
0
 62
1
100
AcDbSpline
 70
8
 71
3
 72
8
 73
4
 74
0
 40
0
 40
0
 40
0
 40
0
 40
1
 40
1
 40
1
 40
1
 10
260.641253
 20
193.548677
 30
0.0
 10
260.641253
 20
192.995804
 30
0.0
 10
261.089987
 20
192.548510
 30
0.0
 10
261.639473
 20
192.548510
 30
0.0
  0
LWPOLYLINE
  5
1a3
100
AcDbEntity
  8
0
 62
1
100
AcDbPolyline
 90
1
 70
1
 10
95.565807
 20
192.548510
 30
0.0
  0
SPLINE
  5
1a4
100
AcDbEntity
  8
0
 62
1
100
AcDbSpline
 70
8
 71
3
 72
8
 73
4
 74
0
 40
0
 40
0
 40
0
 40
0
 40
1
 40
1
 40
1
 40
1
 10
176.796700
 20
192.548510
 30
0.0
 10
177.350420
 20
192.548510
 30
0.0
 10
177.799153
 20
192.995804
 30
0.0
 10
177.799153
 20
193.548677
 30
0.0
  0
SPLINE
  5
1a5
100
AcDbEntity
  8
0
 62
1
100
AcDbSpline
 70
8
 71
3
 72
8
 73
4
 74
0
 40
0
 40
0
 40
0
 40
0
 40
1
 40
1
 40
1
 40
1
 10
177.799153
 20
193.548677
 30
0.0
 10
177.799153
 20
194.100535
 30
0.0
 10
177.350420
 20
194.548506
 30
0.0
 10
176.796700
 20
194.548506
 30
0.0
  0
SPLINE
  5
1a6
100
AcDbEntity
  8
0
 62
1
100
AcDbSpline
 70
8
 71
3
 72
8
 73
4
 74
0
 40
0
 40
0
 40
0
 40
0
 40
1
 40
1
 40
1
 40
1
 10
176.796700
 20
194.548506
 30
0.0
 10
176.247213
 20
194.548506
 30
0.0
 10
175.798480
 20
194.100535
 30
0.0
 10
175.798480
 20
193.548677
 30
0.0
  0
SPLINE
  5
1a7
100
AcDbEntity
  8
0
 62
1
100
AcDbSpline
 70
8
 71
3
 72
8
 73
4
 74
0
 40
0
 40
0
 40
0
 40
0
 40
1
 40
1
 40
1
 40
1
 10
175.798480
 20
193.548677
 30
0.0
 10
175.798480
 20
192.995804
 30
0.0
 10
176.247213
 20
192.548510
 30
0.0
 10
176.796700
 20
192.548510
 30
0.0
  0
LWPOLYLINE
  5
1a8
100
AcDbEntity
  8
0
 62
1
100
AcDbPolyline
 90
1
 70
1
 10
261.639473
 20
192.548510
 30
0.0
  0
SPLINE
  5
1a9
100
AcDbEntity
  8
0
 62
1
100
AcDbSpline
 70
8
 71
3
 72
8
 73
4
 74
0
 40
0
 40
0
 40
0
 40
0
 40
1
 40
1
 40
1
 40
1
 10
218.903127
 20
192.548510
 30
0.0
 10
219.456847
 20
192.548510
 30
0.0
 10
219.904733
 20
192.995804
 30
0.0
 10
219.904733
 20
193.548677
 30
0.0
  0
SPLINE
  5
1aa
100
AcDbEntity
  8
0
 62
1
100
AcDbSpline
 70
8
 71
3
 72
8
 73
4
 74
0
 40
0
 40
0
 40
0
 40
0
 40
1
 40
1
 40
1
 40
1
 10
219.904733
 20
193.548677
 30
0.0
 10
219.904733
 20
194.100535
 30
0.0
 10
219.456847
 20
194.548506
 30
0.0
 10
218.903127
 20
194.548506
 30
0.0
  0
SPLINE
  5
1ab
100
AcDbEntity
  8
0
 62
1
100
AcDbSpline
 70
8
 71
3
 72
8
 73
4
 74
0
 40
0
 40
0
 40
0
 40
0
 40
1
 40
1
 40
1
 40
1
 10
218.903127
 20
194.548506
 30
0.0
 10
218.353640
 20
194.548506
 30
0.0
 10
217.904907
 20
194.100535
 30
0.0
 10
217.904907
 20
193.548677
 30
0.0
  0
SPLINE
  5
1ac
100
AcDbEntity
  8
0
 62
1
100
AcDbSpline
 70
8
 71
3
 72
8
 73
4
 74
0
 40
0
 40
0
 40
0
 40
0
 40
1
 40
1
 40
1
 40
1
 10
217.904907
 20
193.548677
 30
0.0
 10
217.904907
 20
192.995804
 30
0.0
 10
218.353640
 20
192.548510
 30
0.0
 10
218.903127
 20
192.548510
 30
0.0
  0
LWPOLYLINE
  5
1ad
100
AcDbEntity
  8
0
 62
1
100
AcDbPolyline
 90
1
 70
1
 10
176.796700
 20
192.548510
 30
0.0
  0
LWPOLYLINE
  5
1ae
100
AcDbEntity
  8
0
 62
1
100
AcDbPolyline
 90
1
 70
1
 10
218.903127
 20
192.548510
 30
0.0
  0
ENDSEC
  0
SECTION
  2
OBJECTS
  0
DICTIONARY
  5
C
330
0
100
AcDbDictionary
  3
ACAD_GROUP
350
D
  3
ACAD_MLINESTYLE
350
17
  0
DICTIONARY
  5
D
330
C
100
AcDbDictionary
  0
DICTIONARY
  5
1A
330
C
100
AcDbDictionary
  0
DICTIONARY
  5
17
330
C
100
AcDbDictionary
  3
STANDARD
350
18
  0
DICTIONARY
  5
19
330
C
100
AcDbDictionary
  0
ENDSEC
  0
EOF
