<?xml version="1.0" encoding="UTF-8" standalone="no"?>
<!DOCTYPE svg PUBLIC "-//W3C//DTD SVG 1.1//EN" "http://www.w3.org/Graphics/SVG/1.1/DTD/svg11.dtd">
<svg width="100%" height="100%" viewBox="0 0 4837 2040" version="1.1" xmlns="http://www.w3.org/2000/svg" xmlns:xlink="http://www.w3.org/1999/xlink" xml:space="preserve" xmlns:serif="http://www.serif.com/" style="fill-rule:evenodd;clip-rule:evenodd;stroke-miterlimit:10;">
    <g id="デザイン枠" transform="matrix(1.33333,0,0,1.33333,0,0)">
        <g transform="matrix(1,0,0,1,0,-451.666)">
            <path d="M3534.8,1407.88L1851.02,1407.88L1851.02,574.495L3534.8,574.495L3534.8,1407.88ZM1842.52,1416.38L3543.31,1416.38L3543.31,565.991L1842.52,565.991L1842.52,1416.38Z" style="fill:rgb(180,180,180);fill-rule:nonzero;"/>
        </g>
        <g transform="matrix(1,0,0,1,0,-451.666)">
            <path d="M1805.67,1407.88L972.283,1407.88L972.283,574.495L1805.67,574.495L1805.67,1407.88ZM963.78,1416.38L1814.17,1416.38L1814.17,565.991L963.78,565.991L963.78,1416.38Z" style="fill:rgb(180,180,180);fill-rule:nonzero;"/>
        </g>
        <g opacity="0.92">
            <g transform="matrix(1,0,0,1,0,-876.863)">
                <path d="M926.929,1407.88L93.543,1407.88L93.543,999.692L926.929,999.692L926.929,1407.88ZM85.039,1416.38L935.433,1416.38L935.433,991.188L85.039,991.188L85.039,1416.38Z" style="fill:rgb(180,180,180);fill-rule:nonzero;"/>
            </g>
        </g>
        <g transform="matrix(1,0,0,1,1843.41,87.4013)">
            <path d="M0,14.996L1.906,12.428C3.121,13.615 4.612,14.526 6.463,14.526C8.534,14.526 9.943,13.532 9.943,11.82C9.943,9.887 8.755,8.699 4.309,8.699L4.309,5.771C8.064,5.771 9.28,4.529 9.28,2.816C9.28,1.269 8.286,0.358 6.546,0.358C5.082,0.358 3.895,1.049 2.68,2.181L0.608,-0.305C2.376,-1.851 4.336,-2.845 6.739,-2.845C10.688,-2.845 13.367,-0.912 13.367,2.513C13.367,4.667 12.097,6.158 9.971,7.014L9.971,7.152C12.263,7.76 14.03,9.445 14.03,12.068C14.03,15.714 10.744,17.841 6.85,17.841C3.618,17.841 1.437,16.625 0,14.996" style="fill-rule:nonzero;"/>
        </g>
        <g transform="matrix(1,0,0,1,1870.17,94.996)">
            <path d="M0,-0.194C0,-5.717 -1.298,-7.264 -3.065,-7.264C-4.833,-7.264 -6.159,-5.717 -6.159,-0.194C-6.159,5.357 -4.833,7.07 -3.065,7.07C-1.298,7.07 0,5.357 0,-0.194M-9.998,-0.194C-9.998,-6.933 -7.264,-10.44 -3.065,-10.44C1.133,-10.44 3.839,-6.905 3.839,-0.194C3.839,6.573 1.133,10.246 -3.065,10.246C-7.264,10.246 -9.998,6.573 -9.998,-0.194" style="fill-rule:nonzero;"/>
        </g>
        <g transform="matrix(1,0,0,1,1876.44,97.1219)">
            <path d="M0,0C0,-5.137 3.701,-8.12 7.899,-8.12C9.805,-8.12 11.269,-7.374 12.401,-6.407L10.468,-3.784C9.694,-4.446 8.977,-4.805 8.12,-4.805C5.745,-4.805 4.144,-2.9 4.144,0C4.144,2.928 5.772,4.806 7.982,4.806C9.087,4.806 10.137,4.281 10.992,3.563L12.622,6.242C11.131,7.54 9.253,8.12 7.54,8.12C3.26,8.12 0,5.137 0,0" style="fill-rule:nonzero;"/>
        </g>
        <g transform="matrix(1,0,0,1,1891.97,104.468)">
            <path d="M0,-15.079L3.314,-15.079L3.618,-13.008L3.701,-13.008C4.999,-14.361 6.436,-15.466 8.451,-15.466C10.661,-15.466 11.959,-14.472 12.705,-12.759C14.113,-14.25 15.604,-15.466 17.621,-15.466C20.907,-15.466 22.427,-13.146 22.427,-9.251L22.427,0.387L18.366,0.387L18.366,-8.754C18.366,-11.157 17.676,-11.986 16.212,-11.986C15.328,-11.986 14.334,-11.406 13.229,-10.246L13.229,0.387L9.197,0.387L9.197,-8.754C9.197,-11.157 8.479,-11.986 7.016,-11.986C6.132,-11.986 5.138,-11.406 4.061,-10.246L4.061,0.387L0,0.387L0,-15.079Z" style="fill-rule:nonzero;"/>
        </g>
        <g transform="matrix(1,0,0,1,1923.16,85.2736)">
            <path d="M0,18.173L-1.989,16.185L5.109,9.087L-1.989,1.989L0,0L7.098,7.098L14.195,0L16.184,1.989L9.086,9.087L16.184,16.185L14.195,18.173L7.098,11.075L0,18.173Z" style="fill-rule:nonzero;"/>
        </g>
        <g transform="matrix(1,0,0,1,1949.2,92.2624)">
            <path d="M0,5.274C0.387,8.644 1.768,9.914 3.452,9.914C4.998,9.914 6.241,8.726 6.241,6.351C6.241,4.114 5.081,3.092 3.313,3.092C2.265,3.092 1.021,3.672 0,5.274M-3.812,3.175C-3.812,-4.42 -0.028,-7.706 4.115,-7.706C6.601,-7.706 8.423,-6.657 9.639,-5.387L7.484,-2.956C6.766,-3.757 5.523,-4.42 4.336,-4.42C1.988,-4.42 0.055,-2.68 -0.111,2.457C1.021,1.048 2.762,0.22 4.087,0.22C7.512,0.22 9.97,2.181 9.97,6.351C9.97,10.439 7.042,12.98 3.535,12.98C-0.332,12.98 -3.812,9.997 -3.812,3.175" style="fill-rule:nonzero;"/>
        </g>
        <g transform="matrix(1,0,0,1,1971.52,94.996)">
            <path d="M0,-0.194C0,-5.717 -1.298,-7.264 -3.065,-7.264C-4.833,-7.264 -6.159,-5.717 -6.159,-0.194C-6.159,5.357 -4.833,7.07 -3.065,7.07C-1.298,7.07 0,5.357 0,-0.194M-9.998,-0.194C-9.998,-6.933 -7.264,-10.44 -3.065,-10.44C1.133,-10.44 3.839,-6.905 3.839,-0.194C3.839,6.573 1.133,10.246 -3.065,10.246C-7.264,10.246 -9.998,6.573 -9.998,-0.194" style="fill-rule:nonzero;"/>
        </g>
        <g transform="matrix(1,0,0,1,1977.79,97.1219)">
            <path d="M0,0C0,-5.137 3.701,-8.12 7.899,-8.12C9.805,-8.12 11.269,-7.374 12.401,-6.407L10.468,-3.784C9.694,-4.446 8.977,-4.805 8.12,-4.805C5.745,-4.805 4.144,-2.9 4.144,0C4.144,2.928 5.772,4.806 7.982,4.806C9.087,4.806 10.137,4.281 10.992,3.563L12.622,6.242C11.131,7.54 9.253,8.12 7.54,8.12C3.26,8.12 0,5.137 0,0" style="fill-rule:nonzero;"/>
        </g>
        <g transform="matrix(1,0,0,1,1993.32,104.468)">
            <path d="M0,-15.079L3.314,-15.079L3.618,-13.008L3.701,-13.008C4.999,-14.361 6.436,-15.466 8.451,-15.466C10.661,-15.466 11.959,-14.472 12.705,-12.759C14.113,-14.25 15.604,-15.466 17.621,-15.466C20.907,-15.466 22.427,-13.146 22.427,-9.251L22.427,0.387L18.366,0.387L18.366,-8.754C18.366,-11.157 17.676,-11.986 16.212,-11.986C15.328,-11.986 14.334,-11.406 13.229,-10.246L13.229,0.387L9.197,0.387L9.197,-8.754C9.197,-11.157 8.479,-11.986 7.016,-11.986C6.132,-11.986 5.138,-11.406 4.061,-10.246L4.061,0.387L0,0.387L0,-15.079Z" style="fill-rule:nonzero;"/>
        </g>
        <g transform="matrix(1,0,0,1,964.497,87.3016)">
            <path d="M0,14.996L1.906,12.428C3.121,13.615 4.612,14.526 6.463,14.526C8.534,14.526 9.943,13.532 9.943,11.82C9.943,9.887 8.755,8.699 4.309,8.699L4.309,5.771C8.064,5.771 9.28,4.529 9.28,2.816C9.28,1.269 8.286,0.358 6.546,0.358C5.082,0.358 3.895,1.049 2.68,2.181L0.608,-0.305C2.376,-1.851 4.336,-2.845 6.739,-2.845C10.688,-2.845 13.367,-0.912 13.367,2.513C13.367,4.667 12.097,6.158 9.971,7.014L9.971,7.152C12.263,7.76 14.03,9.445 14.03,12.068C14.03,15.714 10.744,17.841 6.85,17.841C3.618,17.841 1.437,16.625 0,14.996" style="fill-rule:nonzero;"/>
        </g>
        <g transform="matrix(1,0,0,1,991.262,94.8964)">
            <path d="M0,-0.194C0,-5.717 -1.298,-7.264 -3.065,-7.264C-4.833,-7.264 -6.159,-5.717 -6.159,-0.194C-6.159,5.357 -4.833,7.07 -3.065,7.07C-1.298,7.07 0,5.357 0,-0.194M-9.998,-0.194C-9.998,-6.933 -7.264,-10.44 -3.065,-10.44C1.133,-10.44 3.839,-6.905 3.839,-0.194C3.839,6.573 1.133,10.246 -3.065,10.246C-7.264,10.246 -9.998,6.573 -9.998,-0.194" style="fill-rule:nonzero;"/>
        </g>
        <g transform="matrix(1,0,0,1,997.534,97.0223)">
            <path d="M0,0C0,-5.137 3.701,-8.12 7.899,-8.12C9.805,-8.12 11.269,-7.374 12.401,-6.407L10.468,-3.784C9.694,-4.446 8.977,-4.805 8.12,-4.805C5.745,-4.805 4.144,-2.9 4.144,0C4.144,2.928 5.772,4.806 7.982,4.806C9.087,4.806 10.137,4.281 10.992,3.563L12.622,6.242C11.131,7.54 9.253,8.12 7.54,8.12C3.26,8.12 0,5.137 0,0" style="fill-rule:nonzero;"/>
        </g>
        <g transform="matrix(1,0,0,1,1013.06,104.368)">
            <path d="M0,-15.079L3.314,-15.079L3.618,-13.008L3.701,-13.008C4.999,-14.361 6.436,-15.466 8.451,-15.466C10.661,-15.466 11.959,-14.472 12.705,-12.759C14.113,-14.25 15.604,-15.466 17.621,-15.466C20.907,-15.466 22.427,-13.146 22.427,-9.251L22.427,0.387L18.366,0.387L18.366,-8.754C18.366,-11.157 17.676,-11.986 16.212,-11.986C15.328,-11.986 14.334,-11.406 13.229,-10.246L13.229,0.387L9.197,0.387L9.197,-8.754C9.197,-11.157 8.479,-11.986 7.016,-11.986C6.132,-11.986 5.138,-11.406 4.061,-10.246L4.061,0.387L0,0.387L0,-15.079Z" style="fill-rule:nonzero;"/>
        </g>
        <g transform="matrix(1,0,0,1,1044.24,85.174)">
            <path d="M0,18.173L-1.989,16.185L5.109,9.087L-1.989,1.989L0,0L7.098,7.098L14.195,0L16.184,1.989L9.086,9.087L16.184,16.185L14.195,18.173L7.098,11.075L0,18.173Z" style="fill-rule:nonzero;"/>
        </g>
        <g transform="matrix(1,0,0,1,1065.85,87.3016)">
            <path d="M0,14.996L1.906,12.428C3.121,13.615 4.612,14.526 6.463,14.526C8.534,14.526 9.943,13.532 9.943,11.82C9.943,9.887 8.755,8.699 4.309,8.699L4.309,5.771C8.064,5.771 9.28,4.529 9.28,2.816C9.28,1.269 8.286,0.358 6.546,0.358C5.082,0.358 3.895,1.049 2.68,2.181L0.607,-0.305C2.375,-1.851 4.336,-2.845 6.739,-2.845C10.688,-2.845 13.367,-0.912 13.367,2.513C13.367,4.667 12.098,6.158 9.971,7.014L9.971,7.152C12.263,7.76 14.03,9.445 14.03,12.068C14.03,15.714 10.744,17.841 6.85,17.841C3.618,17.841 1.437,16.625 0,14.996" style="fill-rule:nonzero;"/>
        </g>
        <g transform="matrix(1,0,0,1,1092.61,94.8964)">
            <path d="M0,-0.194C0,-5.717 -1.298,-7.264 -3.065,-7.264C-4.833,-7.264 -6.159,-5.717 -6.159,-0.194C-6.159,5.357 -4.833,7.07 -3.065,7.07C-1.298,7.07 0,5.357 0,-0.194M-9.998,-0.194C-9.998,-6.933 -7.264,-10.44 -3.065,-10.44C1.133,-10.44 3.839,-6.905 3.839,-0.194C3.839,6.573 1.133,10.246 -3.065,10.246C-7.264,10.246 -9.998,6.573 -9.998,-0.194" style="fill-rule:nonzero;"/>
        </g>
        <g transform="matrix(1,0,0,1,1098.88,97.0223)">
            <path d="M0,0C0,-5.137 3.701,-8.12 7.899,-8.12C9.805,-8.12 11.269,-7.374 12.401,-6.407L10.468,-3.784C9.694,-4.446 8.977,-4.805 8.12,-4.805C5.745,-4.805 4.144,-2.9 4.144,0C4.144,2.928 5.772,4.806 7.982,4.806C9.087,4.806 10.137,4.281 10.992,3.563L12.622,6.242C11.131,7.54 9.253,8.12 7.54,8.12C3.26,8.12 0,5.137 0,0" style="fill-rule:nonzero;"/>
        </g>
        <g transform="matrix(1,0,0,1,1114.41,104.368)">
            <path d="M0,-15.079L3.314,-15.079L3.618,-13.008L3.701,-13.008C4.999,-14.361 6.436,-15.466 8.451,-15.466C10.661,-15.466 11.959,-14.472 12.705,-12.759C14.113,-14.25 15.604,-15.466 17.621,-15.466C20.907,-15.466 22.427,-13.146 22.427,-9.251L22.427,0.387L18.366,0.387L18.366,-8.754C18.366,-11.157 17.676,-11.986 16.212,-11.986C15.328,-11.986 14.334,-11.406 13.229,-10.246L13.229,0.387L9.197,0.387L9.197,-8.754C9.197,-11.157 8.479,-11.986 7.016,-11.986C6.132,-11.986 5.138,-11.406 4.061,-10.246L4.061,0.387L0,0.387L0,-15.079Z" style="fill-rule:nonzero;"/>
        </g>
        <g transform="matrix(1,0,0,1,87.3051,88.1295)">
            <path d="M0,13.339L4.392,13.339L4.392,0.938L0.69,0.938L0.69,-1.575C2.734,-1.962 4.143,-2.486 5.44,-3.287L8.451,-3.287L8.451,13.339L12.29,13.339L12.29,16.626L0,16.626L0,13.339Z" style="fill-rule:nonzero;"/>
        </g>
        <g transform="matrix(1,0,0,1,102.028,87.6323)">
            <path d="M0,14.72L1.878,12.124C3.038,13.256 4.475,14.195 6.38,14.195C8.507,14.195 9.998,12.952 9.998,10.716C9.998,8.506 8.617,7.263 6.546,7.263C5.331,7.263 4.668,7.567 3.48,8.34L1.63,7.153L2.183,-2.79L13.119,-2.79L13.119,0.607L5.689,0.607L5.303,4.943C6.132,4.584 6.822,4.391 7.761,4.391C11.186,4.391 14.058,6.324 14.058,10.577C14.058,14.969 10.688,17.51 6.905,17.51C3.674,17.51 1.52,16.239 0,14.72" style="fill-rule:nonzero;"/>
        </g>
        <g transform="matrix(1,0,0,1,118.794,97.0218)">
            <path d="M0,0C0,-5.137 3.701,-8.12 7.899,-8.12C9.805,-8.12 11.269,-7.374 12.401,-6.407L10.468,-3.784C9.694,-4.446 8.977,-4.805 8.12,-4.805C5.745,-4.805 4.144,-2.9 4.144,0C4.144,2.928 5.772,4.806 7.982,4.806C9.087,4.806 10.137,4.281 10.992,3.563L12.622,6.242C11.131,7.54 9.253,8.12 7.54,8.12C3.26,8.12 0,5.137 0,0" style="fill-rule:nonzero;"/>
        </g>
        <g transform="matrix(1,0,0,1,134.319,104.368)">
            <path d="M0,-15.079L3.314,-15.079L3.618,-13.008L3.701,-13.008C4.999,-14.361 6.436,-15.466 8.451,-15.466C10.661,-15.466 11.959,-14.472 12.705,-12.759C14.113,-14.25 15.604,-15.466 17.621,-15.466C20.907,-15.466 22.427,-13.146 22.427,-9.251L22.427,0.387L18.366,0.387L18.366,-8.754C18.366,-11.157 17.676,-11.986 16.212,-11.986C15.328,-11.986 14.334,-11.406 13.229,-10.246L13.229,0.387L9.197,0.387L9.197,-8.754C9.197,-11.157 8.479,-11.986 7.016,-11.986C6.132,-11.986 5.138,-11.406 4.061,-10.246L4.061,0.387L0,0.387L0,-15.079Z" style="fill-rule:nonzero;"/>
        </g>
        <g transform="matrix(1,0,0,1,165.505,85.1735)">
            <path d="M0,18.173L-1.989,16.185L5.109,9.087L-1.989,1.989L0,0L7.098,7.098L14.195,0L16.184,1.989L9.086,9.087L16.184,16.185L14.195,18.173L7.098,11.075L0,18.173Z" style="fill-rule:nonzero;"/>
        </g>
        <g transform="matrix(1,0,0,1,187.107,87.3012)">
            <path d="M0,14.996L1.906,12.428C3.121,13.615 4.612,14.526 6.463,14.526C8.534,14.526 9.943,13.532 9.943,11.82C9.943,9.887 8.755,8.699 4.309,8.699L4.309,5.771C8.064,5.771 9.28,4.529 9.28,2.816C9.28,1.269 8.286,0.358 6.546,0.358C5.082,0.358 3.895,1.049 2.68,2.181L0.607,-0.305C2.375,-1.851 4.336,-2.845 6.739,-2.845C10.688,-2.845 13.367,-0.912 13.367,2.513C13.367,4.667 12.098,6.158 9.971,7.014L9.971,7.152C12.263,7.76 14.03,9.445 14.03,12.068C14.03,15.714 10.744,17.841 6.85,17.841C3.618,17.841 1.437,16.625 0,14.996" style="fill-rule:nonzero;"/>
        </g>
        <g transform="matrix(1,0,0,1,213.871,94.8959)">
            <path d="M0,-0.194C0,-5.717 -1.298,-7.264 -3.065,-7.264C-4.833,-7.264 -6.159,-5.717 -6.159,-0.194C-6.159,5.357 -4.833,7.07 -3.065,7.07C-1.298,7.07 0,5.357 0,-0.194M-9.998,-0.194C-9.998,-6.933 -7.264,-10.44 -3.065,-10.44C1.133,-10.44 3.839,-6.905 3.839,-0.194C3.839,6.573 1.133,10.246 -3.065,10.246C-7.264,10.246 -9.998,6.573 -9.998,-0.194" style="fill-rule:nonzero;"/>
        </g>
        <g transform="matrix(1,0,0,1,220.143,97.0218)">
            <path d="M0,0C0,-5.137 3.701,-8.12 7.899,-8.12C9.805,-8.12 11.269,-7.374 12.401,-6.407L10.468,-3.784C9.694,-4.446 8.977,-4.805 8.12,-4.805C5.745,-4.805 4.144,-2.9 4.144,0C4.144,2.928 5.772,4.806 7.982,4.806C9.087,4.806 10.137,4.281 10.992,3.563L12.622,6.242C11.131,7.54 9.253,8.12 7.54,8.12C3.26,8.12 0,5.137 0,0" style="fill-rule:nonzero;"/>
        </g>
        <g transform="matrix(1,0,0,1,235.667,104.368)">
            <path d="M0,-15.079L3.314,-15.079L3.618,-13.008L3.701,-13.008C4.999,-14.361 6.436,-15.466 8.451,-15.466C10.661,-15.466 11.959,-14.472 12.705,-12.759C14.113,-14.25 15.604,-15.466 17.621,-15.466C20.907,-15.466 22.427,-13.146 22.427,-9.251L22.427,0.387L18.366,0.387L18.366,-8.754C18.366,-11.157 17.676,-11.986 16.212,-11.986C15.328,-11.986 14.334,-11.406 13.229,-10.246L13.229,0.387L9.197,0.387L9.197,-8.754C9.197,-11.157 8.479,-11.986 7.016,-11.986C6.132,-11.986 5.138,-11.406 4.061,-10.246L4.061,0.387L0,0.387L0,-15.079Z" style="fill-rule:nonzero;"/>
        </g>
        <g transform="matrix(1,0,0,1,92.9115,30.7094)">
            <path d="M0,13.892C3.812,13.892 6.187,11.848 6.187,6.877C6.187,1.878 3.812,0 0,0L-1.271,0L-1.271,13.892L0,13.892ZM-5.357,-3.287L0.249,-3.287C6.49,-3.287 10.357,-0.027 10.357,6.877C10.357,13.754 6.49,17.179 0.47,17.179L-5.357,17.179L-5.357,-3.287Z" style="fill-rule:nonzero;"/>
        </g>
        <g transform="matrix(1,0,0,1,116.169,41.7294)">
            <path d="M0,-3.149C0,-5.22 -0.938,-6.546 -2.928,-6.546C-4.557,-6.546 -5.993,-5.386 -6.297,-3.149L0,-3.149ZM-10.191,-1.575C-10.191,-6.573 -6.656,-9.694 -2.982,-9.694C1.271,-9.694 3.48,-6.573 3.48,-2.32C3.48,-1.547 3.397,-0.801 3.287,-0.442L-6.241,-0.442C-5.91,2.099 -4.253,3.424 -1.961,3.424C-0.69,3.424 0.414,3.038 1.52,2.347L2.9,4.833C1.381,5.882 -0.58,6.545 -2.485,6.545C-6.821,6.545 -10.191,3.535 -10.191,-1.575" style="fill-rule:nonzero;"/>
        </g>
        <g transform="matrix(1,0,0,1,121.53,34.2166)">
            <path d="M0,11.876L1.851,9.335C3.231,10.413 4.558,11.02 5.993,11.02C7.54,11.02 8.23,10.357 8.23,9.391C8.23,8.23 6.629,7.706 4.999,7.071C3.038,6.325 0.856,5.137 0.856,2.541C0.856,-0.221 3.094,-2.182 6.629,-2.182C8.866,-2.182 10.605,-1.243 11.876,-0.276L10.054,2.182C8.948,1.381 7.871,0.856 6.739,0.856C5.331,0.856 4.668,1.464 4.668,2.348C4.668,3.48 6.104,3.895 7.733,4.502C9.777,5.275 12.042,6.297 12.042,9.169C12.042,11.876 9.915,14.058 5.883,14.058C3.812,14.058 1.547,13.147 0,11.876" style="fill-rule:nonzero;"/>
        </g>
        <g transform="matrix(1,0,0,1,0,-1457.33)">
            <path d="M136.667,1489.75L140.728,1489.75L140.728,1505.22L136.667,1505.22L136.667,1489.75ZM136.336,1485.03C136.336,1483.7 137.303,1482.82 138.711,1482.82C140.092,1482.82 141.059,1483.7 141.059,1485.03C141.059,1486.38 140.092,1487.27 138.711,1487.27C137.303,1487.27 136.336,1486.38 136.336,1485.03" style="fill-rule:nonzero;"/>
        </g>
        <g transform="matrix(1,0,0,1,153.185,49.0201)">
            <path d="M0,-11.406C0,-13.201 -1.05,-14.223 -2.431,-14.223C-3.812,-14.223 -4.861,-13.201 -4.861,-11.406C-4.861,-9.556 -3.784,-8.534 -2.431,-8.534C-1.077,-8.534 0,-9.556 0,-11.406M1.851,0.774C1.851,-0.331 0.938,-0.607 -0.718,-0.607L-2.597,-0.607C-3.535,-0.607 -4.198,-0.69 -4.75,-0.828C-5.441,-0.276 -5.745,0.332 -5.745,0.967C-5.745,2.265 -4.309,3.011 -2.071,3.011C0.248,3.011 1.851,1.989 1.851,0.774M-9.142,1.602C-9.142,0.304 -8.341,-0.801 -6.933,-1.602L-6.933,-1.739C-7.733,-2.264 -8.341,-3.065 -8.341,-4.336C-8.341,-5.496 -7.54,-6.573 -6.601,-7.236L-6.601,-7.346C-7.678,-8.119 -8.672,-9.583 -8.672,-11.406C-8.672,-15.024 -5.717,-16.985 -2.431,-16.985C-1.574,-16.985 -0.746,-16.82 -0.11,-16.598L5.469,-16.598L5.469,-13.615L2.845,-13.615C3.231,-13.091 3.535,-12.235 3.535,-11.268C3.535,-7.788 0.884,-6.021 -2.431,-6.021C-3.038,-6.021 -3.756,-6.158 -4.419,-6.38C-4.833,-6.021 -5.082,-5.689 -5.082,-5.054C-5.082,-4.225 -4.475,-3.783 -2.651,-3.783L-0.027,-3.783C3.701,-3.783 5.744,-2.623 5.744,0.083C5.744,3.204 2.485,5.579 -2.679,5.579C-6.324,5.579 -9.142,4.336 -9.142,1.602" style="fill-rule:nonzero;"/>
        </g>
        <g transform="matrix(1,0,0,1,161.556,47.5007)">
            <path d="M0,-15.079L3.314,-15.079L3.618,-13.035L3.701,-13.035C5.055,-14.361 6.629,-15.466 8.728,-15.466C12.069,-15.466 13.506,-13.146 13.506,-9.251L13.506,0.387L9.445,0.387L9.445,-8.754C9.445,-11.157 8.783,-11.986 7.264,-11.986C5.993,-11.986 5.192,-11.378 4.061,-10.246L4.061,0.387L0,0.387L0,-15.079Z" style="fill-rule:nonzero;"/>
        </g>
        <g transform="matrix(1,0,0,1,186.113,34.0509)">
            <path d="M0,8.424L0,1.574L-2.182,1.574L-2.182,-1.436L0.221,-1.629L0.69,-5.8L4.06,-5.8L4.06,-1.629L7.871,-1.629L7.871,1.574L4.06,1.574L4.06,8.424C4.06,10.192 4.778,11.02 6.159,11.02C6.656,11.02 7.264,10.854 7.678,10.689L8.341,13.644C7.513,13.92 6.436,14.224 5.082,14.224C1.408,14.224 0,11.876 0,8.424" style="fill-rule:nonzero;"/>
        </g>
        <g transform="matrix(1,0,0,1,206.359,41.7294)">
            <path d="M0,-3.149C0,-5.22 -0.938,-6.546 -2.928,-6.546C-4.557,-6.546 -5.993,-5.386 -6.297,-3.149L0,-3.149ZM-10.191,-1.575C-10.191,-6.573 -6.656,-9.694 -2.982,-9.694C1.271,-9.694 3.48,-6.573 3.48,-2.32C3.48,-1.547 3.397,-0.801 3.287,-0.442L-6.241,-0.442C-5.91,2.099 -4.253,3.424 -1.961,3.424C-0.69,3.424 0.414,3.038 1.52,2.347L2.9,4.833C1.381,5.882 -0.58,6.545 -2.485,6.545C-6.821,6.545 -10.191,3.535 -10.191,-1.575" style="fill-rule:nonzero;"/>
        </g>
        <g transform="matrix(1,0,0,1,213.183,47.5007)">
            <path d="M0,-15.079L3.314,-15.079L3.618,-13.008L3.701,-13.008C4.999,-14.361 6.436,-15.466 8.451,-15.466C10.661,-15.466 11.959,-14.472 12.705,-12.759C14.113,-14.25 15.604,-15.466 17.621,-15.466C20.907,-15.466 22.427,-13.146 22.427,-9.251L22.427,0.387L18.366,0.387L18.366,-8.754C18.366,-11.157 17.676,-11.986 16.212,-11.986C15.328,-11.986 14.334,-11.406 13.229,-10.246L13.229,0.387L9.197,0.387L9.197,-8.754C9.197,-11.157 8.479,-11.986 7.016,-11.986C6.132,-11.986 5.138,-11.406 4.061,-10.246L4.061,0.387L0,0.387L0,-15.079Z" style="fill-rule:nonzero;"/>
        </g>
        <g transform="matrix(1,0,0,1,249.976,45.8987)">
            <path d="M0,-5.937C0,-8.893 -0.939,-10.522 -3.066,-10.522C-4.115,-10.522 -5.055,-9.997 -6.104,-8.92L-6.104,-2.126C-5.138,-1.27 -4.143,-0.966 -3.314,-0.966C-1.437,-0.966 0,-2.568 0,-5.937M-10.164,-13.477L-6.85,-13.477L-6.546,-11.875L-6.463,-11.875C-5.165,-12.98 -3.563,-13.864 -1.906,-13.864C1.905,-13.864 4.17,-10.743 4.17,-5.993C4.17,-0.69 0.994,2.376 -2.403,2.376C-3.757,2.376 -5.055,1.769 -6.242,0.691L-6.104,3.232L-6.104,7.927L-10.164,7.927L-10.164,-13.477Z" style="fill-rule:nonzero;"/>
        </g>
        <g transform="matrix(1,0,0,1,257.601,30.571)">
            <path d="M0,12.981L0,-4.723L4.061,-4.723L4.061,13.147C4.061,14.085 4.475,14.389 4.861,14.389C5.026,14.389 5.138,14.389 5.413,14.334L5.91,17.345C5.441,17.538 4.778,17.704 3.812,17.704C0.994,17.704 0,15.853 0,12.981" style="fill-rule:nonzero;"/>
        </g>
        <g transform="matrix(1,0,0,1,274.45,36.7304)">
            <path d="M0,6.849L0,3.728C-3.783,4.198 -5.054,5.247 -5.054,6.628C-5.054,7.843 -4.198,8.368 -3.01,8.368C-1.851,8.368 -0.994,7.816 0,6.849M-8.921,6.959C-8.921,3.645 -6.241,1.906 0,1.243C-0.083,-0.276 -0.745,-1.436 -2.651,-1.436C-4.087,-1.436 -5.468,-0.801 -6.904,0.027L-8.368,-2.651C-6.545,-3.784 -4.336,-4.695 -1.905,-4.695C2.017,-4.695 4.032,-2.348 4.032,2.126L4.032,11.158L0.718,11.158L0.442,9.5L0.332,9.5C-1.021,10.661 -2.568,11.544 -4.336,11.544C-7.098,11.544 -8.921,9.583 -8.921,6.959" style="fill-rule:nonzero;"/>
        </g>
        <g transform="matrix(1,0,0,1,283.207,34.0509)">
            <path d="M0,8.424L0,1.574L-2.182,1.574L-2.182,-1.436L0.221,-1.629L0.69,-5.8L4.06,-5.8L4.06,-1.629L7.871,-1.629L7.871,1.574L4.06,1.574L4.06,8.424C4.06,10.192 4.778,11.02 6.159,11.02C6.656,11.02 7.264,10.854 7.678,10.689L8.341,13.644C7.513,13.92 6.436,14.224 5.082,14.224C1.408,14.224 0,11.876 0,8.424" style="fill-rule:nonzero;"/>
        </g>
        <g transform="matrix(1,0,0,1,303.453,41.7294)">
            <path d="M0,-3.149C0,-5.22 -0.938,-6.546 -2.928,-6.546C-4.557,-6.546 -5.993,-5.386 -6.297,-3.149L0,-3.149ZM-10.191,-1.575C-10.191,-6.573 -6.656,-9.694 -2.982,-9.694C1.271,-9.694 3.48,-6.573 3.48,-2.32C3.48,-1.547 3.397,-0.801 3.287,-0.442L-6.241,-0.442C-5.91,2.099 -4.253,3.424 -1.961,3.424C-0.69,3.424 0.414,3.038 1.52,2.347L2.9,4.833C1.381,5.882 -0.58,6.545 -2.485,6.545C-6.821,6.545 -10.191,3.535 -10.191,-1.575" style="fill-rule:nonzero;"/>
        </g>
        <g transform="matrix(1,0,0,1,966.044,1026.79)">
            <path d="M0,13.34L4.392,13.34L4.392,0.939L0.69,0.939L0.69,-1.574C2.734,-1.961 4.143,-2.485 5.44,-3.286L8.451,-3.286L8.451,13.34L12.29,13.34L12.29,16.626L0,16.626L0,13.34Z" style="fill-rule:nonzero;"/>
        </g>
        <g transform="matrix(1,0,0,1,989.357,1031.57)">
            <path d="M0,3.784L0,-0.193C0,-1.38 0.083,-3.259 0.138,-4.446L0.027,-4.446C-0.47,-3.368 -1.022,-2.347 -1.603,-1.242L-4.778,3.784L0,3.784ZM0,6.905L-8.728,6.905L-8.728,4.116L-1.104,-8.064L3.783,-8.064L3.783,3.784L6.187,3.784L6.187,6.905L3.783,6.905L3.783,11.848L0,11.848L0,6.905Z" style="fill-rule:nonzero;"/>
        </g>
        <g transform="matrix(1,0,0,1,997.534,1035.68)">
            <path d="M0,0.001C0,-5.136 3.701,-8.119 7.899,-8.119C9.805,-8.119 11.269,-7.374 12.401,-6.407L10.468,-3.783C9.694,-4.446 8.977,-4.805 8.12,-4.805C5.745,-4.805 4.144,-2.899 4.144,0.001C4.144,2.929 5.772,4.806 7.982,4.806C9.087,4.806 10.137,4.282 10.992,3.564L12.622,6.243C11.131,7.54 9.253,8.12 7.54,8.12C3.26,8.12 0,5.138 0,0.001" style="fill-rule:nonzero;"/>
        </g>
        <g transform="matrix(1,0,0,1,1013.06,1043.03)">
            <path d="M0,-15.079L3.314,-15.079L3.618,-13.008L3.701,-13.008C4.999,-14.361 6.436,-15.466 8.451,-15.466C10.661,-15.466 11.959,-14.472 12.705,-12.76C14.113,-14.25 15.604,-15.466 17.621,-15.466C20.907,-15.466 22.427,-13.146 22.427,-9.252L22.427,0.387L18.366,0.387L18.366,-8.754C18.366,-11.157 17.676,-11.986 16.212,-11.986C15.328,-11.986 14.334,-11.406 13.229,-10.246L13.229,0.387L9.197,0.387L9.197,-8.754C9.197,-11.157 8.479,-11.986 7.016,-11.986C6.132,-11.986 5.138,-11.406 4.061,-10.246L4.061,0.387L0,0.387L0,-15.079Z" style="fill-rule:nonzero;"/>
        </g>
        <g transform="matrix(1,0,0,1,1044.24,1023.83)">
            <path d="M0,18.173L-1.989,16.185L5.109,9.087L-1.989,1.989L0,0L7.098,7.099L14.195,0L16.184,1.989L9.086,9.087L16.184,16.185L14.195,18.173L7.098,11.075L0,18.173Z" style="fill-rule:nonzero;"/>
        </g>
        <g transform="matrix(1,0,0,1,1070.29,1030.82)">
            <path d="M0,5.275C0.387,8.644 1.768,9.915 3.452,9.915C4.998,9.915 6.241,8.727 6.241,6.352C6.241,4.115 5.081,3.093 3.313,3.093C2.265,3.093 1.021,3.673 0,5.275M-3.812,3.175C-3.812,-4.418 -0.028,-7.705 4.115,-7.705C6.601,-7.705 8.423,-6.657 9.639,-5.385L7.484,-2.955C6.766,-3.756 5.523,-4.418 4.336,-4.418C1.988,-4.418 0.055,-2.679 -0.111,2.459C1.021,1.049 2.762,0.22 4.087,0.22C7.512,0.22 9.97,2.181 9.97,6.352C9.97,10.439 7.042,12.98 3.535,12.98C-0.332,12.98 -3.812,9.998 -3.812,3.175" style="fill-rule:nonzero;"/>
        </g>
        <g transform="matrix(1,0,0,1,1092.61,1033.56)">
            <path d="M0,-0.193C0,-5.716 -1.298,-7.263 -3.065,-7.263C-4.833,-7.263 -6.159,-5.716 -6.159,-0.193C-6.159,5.358 -4.833,7.071 -3.065,7.071C-1.298,7.071 0,5.358 0,-0.193M-9.998,-0.193C-9.998,-6.931 -7.264,-10.439 -3.065,-10.439C1.133,-10.439 3.839,-6.904 3.839,-0.193C3.839,6.574 1.133,10.246 -3.065,10.246C-7.264,10.246 -9.998,6.574 -9.998,-0.193" style="fill-rule:nonzero;"/>
        </g>
        <g transform="matrix(1,0,0,1,1098.88,1035.68)">
            <path d="M0,0.001C0,-5.136 3.701,-8.119 7.899,-8.119C9.805,-8.119 11.269,-7.374 12.401,-6.407L10.468,-3.783C9.694,-4.446 8.977,-4.805 8.12,-4.805C5.745,-4.805 4.144,-2.899 4.144,0.001C4.144,2.929 5.772,4.806 7.982,4.806C9.087,4.806 10.137,4.282 10.992,3.564L12.622,6.243C11.131,7.54 9.253,8.12 7.54,8.12C3.26,8.12 0,5.138 0,0.001" style="fill-rule:nonzero;"/>
        </g>
        <g transform="matrix(1,0,0,1,1114.41,1043.03)">
            <path d="M0,-15.079L3.314,-15.079L3.618,-13.008L3.701,-13.008C4.999,-14.361 6.436,-15.466 8.451,-15.466C10.661,-15.466 11.959,-14.472 12.705,-12.76C14.113,-14.25 15.604,-15.466 17.621,-15.466C20.907,-15.466 22.427,-13.146 22.427,-9.252L22.427,0.387L18.366,0.387L18.366,-8.754C18.366,-11.157 17.676,-11.986 16.212,-11.986C15.328,-11.986 14.334,-11.406 13.229,-10.246L13.229,0.387L9.197,0.387L9.197,-8.754C9.197,-11.157 8.479,-11.986 7.016,-11.986C6.132,-11.986 5.138,-11.406 4.061,-10.246L4.061,0.387L0,0.387L0,-15.079Z" style="fill-rule:nonzero;"/>
        </g>
        <g transform="matrix(1,0,0,1,87.3041,1026.45)">
            <path d="M0,13.339L4.392,13.339L4.392,0.939L0.69,0.939L0.69,-1.575C2.734,-1.962 4.143,-2.486 5.44,-3.287L8.451,-3.287L8.451,13.339L12.29,13.339L12.29,16.626L0,16.626L0,13.339Z" style="fill-rule:nonzero;"/>
        </g>
        <g transform="matrix(1,0,0,1,110.617,1031.22)">
            <path d="M0,3.785L0,-0.193C0,-1.38 0.083,-3.258 0.138,-4.445L0.027,-4.445C-0.47,-3.368 -1.022,-2.347 -1.603,-1.242L-4.778,3.785L0,3.785ZM0,6.905L-8.728,6.905L-8.728,4.116L-1.104,-8.064L3.783,-8.064L3.783,3.785L6.187,3.785L6.187,6.905L3.783,6.905L3.783,11.849L0,11.849L0,6.905Z" style="fill-rule:nonzero;"/>
        </g>
        <g transform="matrix(1,0,0,1,118.793,1035.34)">
            <path d="M0,0C0,-5.137 3.701,-8.12 7.899,-8.12C9.805,-8.12 11.269,-7.374 12.401,-6.407L10.468,-3.784C9.694,-4.446 8.977,-4.806 8.12,-4.806C5.745,-4.806 4.144,-2.9 4.144,0C4.144,2.928 5.772,4.806 7.982,4.806C9.087,4.806 10.137,4.281 10.992,3.563L12.622,6.242C11.131,7.54 9.253,8.12 7.54,8.12C3.26,8.12 0,5.137 0,0" style="fill-rule:nonzero;"/>
        </g>
        <g transform="matrix(1,0,0,1,134.318,1042.69)">
            <path d="M0,-15.08L3.314,-15.08L3.618,-13.009L3.701,-13.009C4.999,-14.361 6.436,-15.467 8.451,-15.467C10.661,-15.467 11.959,-14.473 12.705,-12.76C14.113,-14.251 15.604,-15.467 17.621,-15.467C20.907,-15.467 22.427,-13.146 22.427,-9.252L22.427,0.387L18.366,0.387L18.366,-8.755C18.366,-11.158 17.676,-11.986 16.212,-11.986C15.328,-11.986 14.334,-11.406 13.229,-10.247L13.229,0.387L9.197,0.387L9.197,-8.755C9.197,-11.158 8.479,-11.986 7.016,-11.986C6.132,-11.986 5.138,-11.406 4.061,-10.247L4.061,0.387L0,0.387L0,-15.08Z" style="fill-rule:nonzero;"/>
        </g>
        <g transform="matrix(1,0,0,1,165.504,1023.49)">
            <path d="M0,18.173L-1.989,16.185L5.109,9.087L-1.989,1.989L0,0L7.098,7.099L14.195,0L16.184,1.989L9.086,9.087L16.184,16.185L14.195,18.173L7.098,11.075L0,18.173Z" style="fill-rule:nonzero;"/>
        </g>
        <g transform="matrix(1,0,0,1,187.106,1025.62)">
            <path d="M0,14.997L1.906,12.429C3.121,13.616 4.612,14.527 6.463,14.527C8.534,14.527 9.943,13.533 9.943,11.82C9.943,9.888 8.755,8.7 4.309,8.7L4.309,5.772C8.064,5.772 9.28,4.529 9.28,2.817C9.28,1.27 8.286,0.359 6.546,0.359C5.082,0.359 3.895,1.05 2.68,2.182L0.607,-0.304C2.375,-1.851 4.336,-2.845 6.739,-2.845C10.688,-2.845 13.367,-0.911 13.367,2.514C13.367,4.668 12.098,6.159 9.971,7.015L9.971,7.153C12.263,7.761 14.03,9.445 14.03,12.069C14.03,15.715 10.744,17.842 6.85,17.842C3.618,17.842 1.437,16.626 0,14.997" style="fill-rule:nonzero;"/>
        </g>
        <g transform="matrix(1,0,0,1,213.87,1033.21)">
            <path d="M0,-0.194C0,-5.717 -1.298,-7.264 -3.065,-7.264C-4.833,-7.264 -6.159,-5.717 -6.159,-0.194C-6.159,5.358 -4.833,7.07 -3.065,7.07C-1.298,7.07 0,5.358 0,-0.194M-9.998,-0.194C-9.998,-6.932 -7.264,-10.44 -3.065,-10.44C1.133,-10.44 3.839,-6.905 3.839,-0.194C3.839,6.573 1.133,10.246 -3.065,10.246C-7.264,10.246 -9.998,6.573 -9.998,-0.194" style="fill-rule:nonzero;"/>
        </g>
        <g transform="matrix(1,0,0,1,220.142,1035.34)">
            <path d="M0,0C0,-5.137 3.701,-8.12 7.899,-8.12C9.805,-8.12 11.269,-7.374 12.401,-6.407L10.468,-3.784C9.694,-4.446 8.977,-4.806 8.12,-4.806C5.745,-4.806 4.144,-2.9 4.144,0C4.144,2.928 5.772,4.806 7.982,4.806C9.087,4.806 10.137,4.281 10.992,3.563L12.622,6.242C11.131,7.54 9.253,8.12 7.54,8.12C3.26,8.12 0,5.137 0,0" style="fill-rule:nonzero;"/>
        </g>
        <g transform="matrix(1,0,0,1,235.666,1042.69)">
            <path d="M0,-15.08L3.314,-15.08L3.618,-13.009L3.701,-13.009C4.999,-14.361 6.436,-15.467 8.451,-15.467C10.661,-15.467 11.959,-14.473 12.705,-12.76C14.113,-14.251 15.604,-15.467 17.621,-15.467C20.907,-15.467 22.427,-13.146 22.427,-9.252L22.427,0.387L18.366,0.387L18.366,-8.755C18.366,-11.158 17.676,-11.986 16.212,-11.986C15.328,-11.986 14.334,-11.406 13.229,-10.247L13.229,0.387L9.197,0.387L9.197,-8.755C9.197,-11.158 8.479,-11.986 7.016,-11.986C6.132,-11.986 5.138,-11.406 4.061,-10.247L4.061,0.387L0,0.387L0,-15.08Z" style="fill-rule:nonzero;"/>
        </g>
        <g transform="matrix(-1,0,0,1,3628.35,974.895)">
            <rect x="963.78" y="79.482" width="1700.79" height="396.851" style="fill:rgb(180,180,180);"/>
        </g>
        <g transform="matrix(-1,0,0,1,3628.35,974.895)">
            <rect x="972.284" y="87.986" width="1683.78" height="379.843" style="fill:white;"/>
        </g>
        <g transform="matrix(1,0,0,1,0,974.895)">
            <path d="M926.929,467.829L93.543,467.829L93.543,87.986L926.929,87.986L926.929,467.829ZM85.039,476.333L935.433,476.333L935.433,79.482L85.039,79.482L85.039,476.333Z" style="fill:rgb(180,180,180);fill-rule:nonzero;"/>
        </g>
        <g transform="matrix(-1,0,0,1,5385.83,-451.666)">
            <rect x="1842.52" y="565.991" width="1700.79" height="850.394" style="fill:none;stroke:rgb(0,255,0);stroke-width:1px;"/>
        </g>
        <g transform="matrix(-1,0,0,1,2777.95,-451.666)">
            <rect x="963.78" y="565.991" width="850.393" height="850.394" style="fill:none;stroke:rgb(0,255,0);stroke-width:1px;"/>
        </g>
        <g transform="matrix(-1,0,0,1,1020.47,-876.863)">
            <rect x="85.039" y="991.188" width="850.394" height="425.197" style="fill:none;stroke:rgb(0,255,0);stroke-width:1px;"/>
        </g>
        <g transform="matrix(-1,0,0,1,3628.35,974.895)">
            <rect x="963.78" y="79.482" width="1700.79" height="396.851" style="fill:none;stroke:rgb(0,255,0);stroke-width:1px;"/>
        </g>
        <g transform="matrix(-1,0,0,1,1020.47,974.895)">
            <rect x="85.039" y="79.482" width="850.394" height="396.851" style="fill:none;stroke:rgb(0,255,0);stroke-width:1px;"/>
        </g>
    </g>
    <g id="あなたのデザインを追加してください" transform="matrix(1.33333,0,0,1.33333,0,0)">
        <g id="ミドルフレーム-一番上" serif:id="ミドルフレーム 一番上" transform="matrix(0.75,0,0,0.75,2399.31,24.6614)">
            <g transform="matrix(-1,-1.22465e-16,1.22465e-16,-1,1131.87,1215.5)">
                <path d="M967.559,491.846L956.22,491.846L956.22,516.197L882.833,516.197L843.969,519.685L676.535,519.685L644.505,516.197L196.157,516.197L150.803,470.843L150.803,94.488L170.079,72.958L170.079,48L170.079,21.921C170.079,21.42 169.88,20.939 169.525,20.585C169.171,20.231 168.69,20.031 168.189,20.031C163.243,20.031 149.845,20.031 143.244,20.031C141.157,20.031 139.465,21.724 139.465,23.811C139.465,67.648 139.465,478.871 139.465,522.709C139.465,524.796 141.157,526.488 143.244,526.488L978.456,526.488L995.004,514.314L988.346,505.235L978.727,512.315L972.472,503.811L988.724,491.906L967.559,491.846Z" style="fill:none;stroke:rgb(255,0,0);stroke-width:1.33px;stroke-linecap:round;stroke-linejoin:round;stroke-miterlimit:1.5;"/>
            </g>
            <g transform="matrix(-6.12323e-17,-1,-1,6.12323e-17,1534.02,1938.45)">
                <path d="M1076.41,48L1750.11,48L1795.46,93.354L1795.46,470.843L1750.11,516.197L1040.46,516.197L1025.99,491.846L988.724,491.906L972.472,503.811L978.727,512.315L988.346,505.235L995.004,514.314L978.456,526.488L1803.78,526.488C1805.87,526.488 1807.56,524.796 1807.56,522.709C1807.56,478.871 1807.56,67.648 1807.56,23.811C1807.56,21.724 1805.87,20.031 1803.78,20.031C1747.63,20.031 1084.72,20.031 1084.72,20.031L1071.5,29.48L1076.41,36.661L1084.72,30.992L1089.64,38.23L1076.41,48Z" style="fill:none;stroke:rgb(255,0,0);stroke-width:1.33px;stroke-linecap:round;stroke-linejoin:round;stroke-miterlimit:1.5;"/>
            </g>
            <g transform="matrix(2.30097e-16,-3.16613,3.16442,-8.23989e-16,-2472.97,1940.8)">
                <path d="M391.454,1090.15C391.454,1091.68 390.218,1092.92 388.69,1092.92C387.165,1092.92 385.927,1091.68 385.927,1090.15C385.927,1088.63 387.165,1087.39 388.69,1087.39C390.218,1087.39 391.454,1088.63 391.454,1090.15Z" style="fill:none;stroke:rgb(255,0,0);stroke-width:0.42px;stroke-linecap:round;stroke-linejoin:round;stroke-miterlimit:2;"/>
            </g>
            <g transform="matrix(2.30097e-16,-3.16613,3.16442,-8.23989e-16,-2472.97,2384.14)">
                <path d="M391.454,1090.15C391.454,1091.68 390.218,1092.92 388.69,1092.92C387.165,1092.92 385.927,1091.68 385.927,1090.15C385.927,1088.63 387.165,1087.39 388.69,1087.39C390.218,1087.39 391.454,1088.63 391.454,1090.15Z" style="fill:none;stroke:rgb(255,0,0);stroke-width:0.42px;stroke-linecap:round;stroke-linejoin:round;stroke-miterlimit:2;"/>
            </g>
            <g transform="matrix(-2.73532,3.12985e-17,-8.79269e-16,2.73384,2091.86,-2833.54)">
                <path d="M391.454,1090.15C391.454,1091.68 390.218,1092.92 388.69,1092.92C387.165,1092.92 385.927,1091.68 385.927,1090.15C385.927,1088.63 387.165,1087.39 388.69,1087.39C390.218,1087.39 391.454,1088.63 391.454,1090.15Z" style="fill:none;stroke:rgb(255,0,0);stroke-width:0.49px;stroke-linecap:round;stroke-linejoin:round;stroke-miterlimit:2;"/>
            </g>
            <g transform="matrix(-3.16613,3.6228e-17,-1.01775e-15,3.16442,2702.66,-3302.93)">
                <path d="M391.454,1090.15C391.454,1091.68 390.218,1092.92 388.69,1092.92C387.165,1092.92 385.927,1091.68 385.927,1090.15C385.927,1088.63 387.165,1087.39 388.69,1087.39C390.218,1087.39 391.454,1088.63 391.454,1090.15Z" style="fill:none;stroke:rgb(255,0,0);stroke-width:0.42px;stroke-linecap:round;stroke-linejoin:round;stroke-miterlimit:2;"/>
            </g>
            <g transform="matrix(-3.16613,3.6228e-17,-1.01775e-15,3.16442,2259.32,-2521.48)">
                <path d="M391.454,1090.15C391.454,1091.68 390.218,1092.92 388.69,1092.92C387.165,1092.92 385.927,1091.68 385.927,1090.15C385.927,1088.63 387.165,1087.39 388.69,1087.39C390.218,1087.39 391.454,1088.63 391.454,1090.15Z" style="fill:none;stroke:rgb(255,0,0);stroke-width:0.42px;stroke-linecap:round;stroke-linejoin:round;stroke-miterlimit:2;"/>
            </g>
        </g>
        <g id="トップフレーム-ねじ穴Ver" serif:id="トップフレーム ねじ穴Ver" transform="matrix(0.75,0,0,0.75,1746.43,107.805)">
            <g id="トップフレーム外形" transform="matrix(1.00681,0,0,0.953779,132.417,20.0315)">
                <path d="M1663.81,3.963C1663.81,1.774 1662.13,0 1660.05,0C1575.64,0 95.165,0 10.754,0C8.681,0 7,1.774 7,3.963C7,49.924 7,481.076 7,527.037C7,529.226 8.681,531 10.754,531C95.165,531 1575.64,531 1660.05,531C1662.13,531 1663.81,529.226 1663.81,527.037C1663.81,481.076 1663.81,49.924 1663.81,3.963Z" style="fill:none;stroke:rgb(255,0,0);stroke-width:1.36px;stroke-linecap:round;stroke-linejoin:round;stroke-miterlimit:1.5;"/>
            </g>
            <g id="トップフレーム内形R" transform="matrix(0.985565,0,0,0.958937,37.1027,31.93)">
                <path d="M1104.81,120.927C1104.32,121.075 1103.91,121.416 1103.67,121.876C1103.42,122.335 1103.37,122.875 1103.52,123.377C1110.32,146.956 1178.55,383.48 1185.36,407.085C1185.51,407.587 1185.45,408.127 1185.21,408.587C1184.96,409.047 1184.55,409.389 1184.06,409.536C1178.09,411.336 1159.31,416.99 1153.32,418.793C1152.83,418.941 1152.42,419.284 1152.17,419.746C1151.93,420.208 1151.88,420.751 1152.03,421.254C1155.06,431.583 1169.52,480.858 1172.54,491.12C1172.84,492.157 1173.9,492.747 1174.91,492.441C1197.7,485.535 1426.46,416.23 1452.75,408.263C1453.33,408.087 1453.96,408.203 1454.44,408.575C1454.93,408.947 1455.21,409.532 1455.21,410.153C1455.21,416.873 1455.21,434.536 1455.21,440.463C1455.21,440.985 1455.41,441.487 1455.77,441.856C1456.13,442.226 1456.62,442.433 1457.13,442.433C1482.72,442.433 1756.23,442.425 1781.82,442.425C1782.88,442.425 1783.73,441.542 1783.73,440.454C1783.73,429.729 1783.73,378.473 1783.73,367.748C1783.73,367.225 1783.53,366.724 1783.17,366.354C1782.81,365.984 1782.33,365.777 1781.82,365.777C1771.58,365.777 1723.41,365.777 1713.16,365.777C1712.66,365.777 1712.17,365.569 1711.81,365.2C1711.45,364.83 1711.25,364.329 1711.25,363.806C1711.25,353.413 1711.25,305.056 1711.25,294.668C1711.25,293.581 1712.1,292.699 1713.16,292.698C1721.72,292.688 1756.41,292.647 1764.97,292.637C1766.03,292.635 1766.89,291.753 1766.89,290.666C1766.89,274.179 1766.89,159.282 1766.89,142.785C1766.89,142.263 1766.69,141.762 1766.33,141.392C1765.97,141.022 1765.48,140.815 1764.97,140.815C1756.23,140.815 1720.19,140.815 1711.45,140.815C1710.94,140.815 1710.45,140.607 1710.09,140.238C1709.73,139.868 1709.53,139.367 1709.53,138.844L1709.53,67.961C1709.53,67.439 1709.33,66.937 1708.97,66.568C1708.61,66.198 1708.12,65.991 1707.62,65.991C1682.41,65.991 1416.86,65.991 1395.07,65.991C1394.23,65.991 1393.48,65.424 1393.24,64.594C1391.8,59.765 1387.06,43.762 1385.43,38.275C1385.13,37.241 1384.07,36.654 1383.06,36.958C1373.25,39.917 1326.8,53.931 1316.95,56.901C1315.94,57.207 1314.87,56.611 1314.57,55.568C1313.58,52.121 1311.49,44.844 1310.5,41.392C1310.35,40.89 1310.02,40.468 1309.57,40.218C1309.13,39.969 1308.6,39.912 1308.11,40.061C1298.05,43.135 1249.84,57.87 1239.8,60.938C1238.78,61.248 1238.2,62.343 1238.5,63.385C1238.94,64.91 1239.56,67.047 1239.99,68.576C1240.14,69.079 1240.08,69.621 1239.84,70.082C1239.59,70.542 1239.18,70.882 1238.69,71.028C1228.77,73.967 1182.05,87.808 1172.13,90.747C1171.64,90.892 1171.22,91.233 1170.98,91.693C1170.73,92.153 1170.68,92.695 1170.82,93.199C1171.26,94.726 1171.87,96.859 1172.31,98.383C1172.61,99.427 1172.03,100.523 1171.01,100.831C1161.16,103.823 1114.67,117.934 1104.81,120.927Z" style="fill:none;stroke:rgb(255,0,0);stroke-width:1.37px;stroke-linecap:round;stroke-linejoin:round;stroke-miterlimit:1.5;"/>
            </g>
            <g id="トップフレーム内形L" transform="matrix(0.985565,0,0,0.958937,37.1027,31.93)">
                <path d="M1091.2,394.976C1092.18,394.569 1092.66,393.423 1092.27,392.414C1082.13,366.494 967.297,72.887 957.147,46.936C956.958,46.451 956.588,46.063 956.12,45.858C955.652,45.653 955.124,45.648 954.652,45.843C934.084,54.362 741.968,133.932 729.662,139.029C729.262,139.195 728.819,139.217 728.404,139.092C719.365,136.359 617.291,105.505 602.351,100.989C601.342,100.684 600.76,99.602 601.047,98.562C601.496,96.931 602.143,94.579 602.592,92.947C602.879,91.906 602.296,90.823 601.286,90.519C591.458,87.564 544.89,73.56 535.053,70.602C534.042,70.298 533.459,69.212 533.748,68.171C534.162,66.676 534.739,64.597 535.153,63.105C535.441,62.066 534.862,60.983 533.854,60.675C523.845,57.625 475.563,42.909 465.472,39.834C464.982,39.685 464.455,39.743 464.007,39.995C463.559,40.247 463.227,40.672 463.085,41.176C462.095,44.697 459.991,52.181 458.999,55.707C458.857,56.213 458.524,56.639 458.074,56.89C457.624,57.142 457.095,57.198 456.605,57.047C446.718,53.99 400.328,39.648 390.436,36.589C389.945,36.438 389.415,36.494 388.965,36.746C388.515,36.998 388.182,37.425 388.041,37.932C386.534,43.314 382.289,58.481 380.968,63.201C380.733,64.043 379.985,64.624 379.132,64.627C359.335,64.7 141.442,65.506 118.731,65.59C117.675,65.593 116.821,66.475 116.821,67.56C116.821,78.326 116.821,130.101 116.821,140.885C116.821,141.973 117.679,142.855 118.738,142.855C125.193,142.855 146.086,142.855 152.54,142.855C153.599,142.855 154.458,143.738 154.458,144.826C154.458,155.199 154.458,203.388 154.458,213.761C154.458,214.283 154.256,214.785 153.896,215.154C153.536,215.524 153.049,215.731 152.54,215.731C146.036,215.731 124.859,215.731 118.355,215.731C117.846,215.731 117.359,215.939 116.999,216.309C116.639,216.678 116.437,217.179 116.437,217.702C116.437,238.608 116.437,419.217 116.437,440.119C116.437,441.207 117.296,442.089 118.354,442.089C137.757,442.097 298.328,442.157 317.737,442.164C318.246,442.165 318.734,441.957 319.093,441.587C319.453,441.218 319.655,440.717 319.655,440.194C319.655,434.308 319.655,416.86 319.655,410.187C319.655,409.566 319.94,408.981 320.424,408.609C320.909,408.237 321.535,408.121 322.115,408.297C351.2,417.112 628.881,501.266 654.141,508.922C655.156,509.229 656.221,508.634 656.522,507.591C659.47,497.352 673.516,448.571 676.459,438.35C676.759,437.31 676.184,436.217 675.174,435.904C671.471,434.758 663.12,432.173 659.42,431.028C658.411,430.716 657.837,429.625 658.134,428.586C663.455,409.973 706.674,258.815 713.032,236.579C713.147,236.176 713.498,235.892 713.906,235.872C714.314,235.852 714.689,236.1 714.842,236.49C725.241,263.138 811.083,483.107 819.812,505.474C820.002,505.959 820.372,506.348 820.84,506.553C821.309,506.758 821.837,506.763 822.31,506.567C844.604,497.315 1068.95,404.211 1091.2,394.976Z" style="fill:none;stroke:rgb(255,0,0);stroke-width:1.37px;stroke-linecap:round;stroke-linejoin:round;stroke-miterlimit:1.5;"/>
            </g>
            <g id="ねじ穴-キープレート-" serif:id="ねじ穴→キープレート ">
                <g transform="matrix(6.80956e-17,1.36766,-1.36692,5.23334e-16,1705.59,-469.596)">
                    <path d="M391.454,1090.15C391.454,1091.68 390.218,1092.92 388.69,1092.92C387.165,1092.92 385.927,1091.68 385.927,1090.15C385.927,1088.63 387.165,1087.39 388.69,1087.39C390.218,1087.39 391.454,1088.63 391.454,1090.15Z" style="fill:none;stroke:rgb(255,0,0);stroke-width:0.98px;stroke-linecap:round;stroke-linejoin:round;stroke-miterlimit:2;"/>
                </g>
                <g transform="matrix(6.80956e-17,1.36766,-1.36692,5.23334e-16,2054.19,-473.596)">
                    <path d="M394.379,1086.64C394.379,1088.17 393.143,1089.41 391.615,1089.41C390.09,1089.41 388.852,1088.17 388.852,1086.64C388.852,1085.12 390.09,1083.88 391.615,1083.88C393.143,1083.88 394.379,1085.12 394.379,1086.64Z" style="fill:none;stroke:rgb(255,0,0);stroke-width:0.98px;stroke-linecap:round;stroke-linejoin:round;stroke-miterlimit:2;"/>
                </g>
                <g transform="matrix(6.80956e-17,1.36766,-1.36692,5.23334e-16,2425.32,-468.566)">
                    <path d="M390.701,1086.85C390.701,1088.38 389.465,1089.62 387.937,1089.62C386.412,1089.62 385.174,1088.38 385.174,1086.85C385.174,1085.33 386.412,1084.09 387.937,1084.09C389.465,1084.09 390.701,1085.33 390.701,1086.85Z" style="fill:none;stroke:rgb(255,0,0);stroke-width:0.98px;stroke-linecap:round;stroke-linejoin:round;stroke-miterlimit:2;"/>
                </g>
                <g transform="matrix(6.80956e-17,1.36766,-1.36692,5.23334e-16,2739.15,-468.567)">
                    <path d="M390.702,1085.76C390.702,1087.29 389.466,1088.53 387.938,1088.53C386.413,1088.53 385.175,1087.29 385.175,1085.76C385.175,1084.24 386.413,1083 387.938,1083C389.466,1083 390.702,1084.24 390.702,1085.76Z" style="fill:none;stroke:rgb(255,0,0);stroke-width:0.98px;stroke-linecap:round;stroke-linejoin:round;stroke-miterlimit:2;"/>
                </g>
                <g transform="matrix(6.80956e-17,1.36766,-1.36692,5.23334e-16,3221.55,-469.596)">
                    <path d="M391.454,1090.15C391.454,1091.68 390.218,1092.92 388.69,1092.92C387.165,1092.92 385.927,1091.68 385.927,1090.15C385.927,1088.63 387.165,1087.39 388.69,1087.39C390.218,1087.39 391.454,1088.63 391.454,1090.15Z" style="fill:none;stroke:rgb(255,0,0);stroke-width:0.98px;stroke-linecap:round;stroke-linejoin:round;stroke-miterlimit:2;"/>
                </g>
                <g transform="matrix(6.80956e-17,1.36766,-1.36692,5.23334e-16,3221.55,-26.2523)">
                    <path d="M391.454,1090.15C391.454,1091.68 390.218,1092.92 388.69,1092.92C387.165,1092.92 385.927,1091.68 385.927,1090.15C385.927,1088.63 387.165,1087.39 388.69,1087.39C390.218,1087.39 391.454,1088.63 391.454,1090.15Z" style="fill:none;stroke:rgb(255,0,0);stroke-width:0.98px;stroke-linecap:round;stroke-linejoin:round;stroke-miterlimit:2;"/>
                </g>
                <g transform="matrix(6.80956e-17,1.36766,-1.36692,5.23334e-16,2764.42,-26.2523)">
                    <path d="M391.454,1090.15C391.454,1091.68 390.218,1092.92 388.69,1092.92C387.165,1092.92 385.927,1091.68 385.927,1090.15C385.927,1088.63 387.165,1087.39 388.69,1087.39C390.218,1087.39 391.454,1088.63 391.454,1090.15Z" style="fill:none;stroke:rgb(255,0,0);stroke-width:0.98px;stroke-linecap:round;stroke-linejoin:round;stroke-miterlimit:2;"/>
                </g>
                <g transform="matrix(6.80956e-17,1.36766,-1.36692,5.23334e-16,2426.76,-26.2523)">
                    <path d="M391.454,1090.15C391.454,1091.68 390.218,1092.92 388.69,1092.92C387.165,1092.92 385.927,1091.68 385.927,1090.15C385.927,1088.63 387.165,1087.39 388.69,1087.39C390.218,1087.39 391.454,1088.63 391.454,1090.15Z" style="fill:none;stroke:rgb(255,0,0);stroke-width:0.98px;stroke-linecap:round;stroke-linejoin:round;stroke-miterlimit:2;"/>
                </g>
                <g transform="matrix(6.80956e-17,1.36766,-1.36692,5.23334e-16,2054.19,-26.2523)">
                    <path d="M391.454,1090.15C391.454,1091.68 390.218,1092.92 388.69,1092.92C387.165,1092.92 385.927,1091.68 385.927,1090.15C385.927,1088.63 387.165,1087.39 388.69,1087.39C390.218,1087.39 391.454,1088.63 391.454,1090.15Z" style="fill:none;stroke:rgb(255,0,0);stroke-width:0.98px;stroke-linecap:round;stroke-linejoin:round;stroke-miterlimit:2;"/>
                </g>
                <g transform="matrix(6.80956e-17,1.36766,-1.36692,5.23334e-16,1705.59,-26.2523)">
                    <path d="M391.454,1090.15C391.454,1091.68 390.218,1092.92 388.69,1092.92C387.165,1092.92 385.927,1091.68 385.927,1090.15C385.927,1088.63 387.165,1087.39 388.69,1087.39C390.218,1087.39 391.454,1088.63 391.454,1090.15Z" style="fill:none;stroke:rgb(255,0,0);stroke-width:0.98px;stroke-linecap:round;stroke-linejoin:round;stroke-miterlimit:2;"/>
                </g>
            </g>
            <g id="ねじ穴-ミッドフレーム" serif:id="ねじ穴→ミッドフレーム">
                <g transform="matrix(6.80956e-17,1.36766,-1.36692,5.23334e-16,3281.83,-26.2523)">
                    <path d="M391.454,1090.15C391.454,1091.68 390.218,1092.92 388.69,1092.92C387.165,1092.92 385.927,1091.68 385.927,1090.15C385.927,1088.63 387.165,1087.39 388.69,1087.39C390.218,1087.39 391.454,1088.63 391.454,1090.15Z" style="fill:none;stroke:rgb(255,0,0);stroke-width:0.98px;stroke-linecap:round;stroke-linejoin:round;stroke-miterlimit:2;"/>
                </g>
                <g transform="matrix(6.80956e-17,1.36766,-1.36692,5.23334e-16,3281.83,-469.596)">
                    <path d="M391.454,1090.15C391.454,1091.68 390.218,1092.92 388.69,1092.92C387.165,1092.92 385.927,1091.68 385.927,1090.15C385.927,1088.63 387.165,1087.39 388.69,1087.39C390.218,1087.39 391.454,1088.63 391.454,1090.15Z" style="fill:none;stroke:rgb(255,0,0);stroke-width:0.98px;stroke-linecap:round;stroke-linejoin:round;stroke-miterlimit:2;"/>
                </g>
                <g transform="matrix(6.80956e-17,1.36766,-1.36692,5.23334e-16,2500.38,-469.596)">
                    <path d="M391.454,1090.15C391.454,1091.68 390.218,1092.92 388.69,1092.92C387.165,1092.92 385.927,1091.68 385.927,1090.15C385.927,1088.63 387.165,1087.39 388.69,1087.39C390.218,1087.39 391.454,1088.63 391.454,1090.15Z" style="fill:none;stroke:rgb(255,0,0);stroke-width:0.98px;stroke-linecap:round;stroke-linejoin:round;stroke-miterlimit:2;"/>
                </g>
                <g transform="matrix(6.80956e-17,1.36766,-1.36692,5.23334e-16,1645.3,-26.2523)">
                    <path d="M391.454,1090.15C391.454,1091.68 390.218,1092.92 388.69,1092.92C387.165,1092.92 385.927,1091.68 385.927,1090.15C385.927,1088.63 387.165,1087.39 388.69,1087.39C390.218,1087.39 391.454,1088.63 391.454,1090.15Z" style="fill:none;stroke:rgb(255,0,0);stroke-width:0.98px;stroke-linecap:round;stroke-linejoin:round;stroke-miterlimit:2;"/>
                </g>
                <g transform="matrix(6.80956e-17,1.36766,-1.36692,5.23334e-16,1645.3,-469.596)">
                    <path d="M391.454,1090.15C391.454,1091.68 390.218,1092.92 388.69,1092.92C387.165,1092.92 385.927,1091.68 385.927,1090.15C385.927,1088.63 387.165,1087.39 388.69,1087.39C390.218,1087.39 391.454,1088.63 391.454,1090.15Z" style="fill:none;stroke:rgb(255,0,0);stroke-width:0.98px;stroke-linecap:round;stroke-linejoin:round;stroke-miterlimit:2;"/>
                </g>
                <g transform="matrix(6.80956e-17,1.36766,-1.36692,5.23334e-16,2500.38,-26.2523)">
                    <path d="M391.454,1090.15C391.454,1091.68 390.218,1092.92 388.69,1092.92C387.165,1092.92 385.927,1091.68 385.927,1090.15C385.927,1088.63 387.165,1087.39 388.69,1087.39C390.218,1087.39 391.454,1088.63 391.454,1090.15Z" style="fill:none;stroke:rgb(255,0,0);stroke-width:0.98px;stroke-linecap:round;stroke-linejoin:round;stroke-miterlimit:2;"/>
                </g>
            </g>
        </g>
        <g id="トップフレーム-ねじ穴Ver1" serif:id="トップフレーム ねじ穴Ver" transform="matrix(0.75,0,0,0.75,1746.43,560.41)">
            <g id="トップフレーム外形1" serif:id="トップフレーム外形" transform="matrix(1.00681,0,0,0.953779,132.417,21.2831)">
                <path d="M1663.81,3.963C1663.81,1.774 1662.13,0 1660.05,0C1575.64,0 95.165,0 10.754,0C8.681,0 7,1.774 7,3.963C7,49.924 7,481.076 7,527.037C7,529.226 8.681,531 10.754,531C95.165,531 1575.64,531 1660.05,531C1662.13,531 1663.81,529.226 1663.81,527.037C1663.81,481.076 1663.81,49.924 1663.81,3.963Z" style="fill:none;stroke:rgb(255,0,0);stroke-width:1.36px;stroke-linecap:round;stroke-linejoin:round;stroke-miterlimit:1.5;"/>
            </g>
            <g id="トップフレーム内形R1" serif:id="トップフレーム内形R" transform="matrix(0.985565,0,0,0.958937,37.1027,31.93)">
                <path d="M1104.81,120.927C1104.32,121.075 1103.91,121.416 1103.67,121.876C1103.42,122.335 1103.37,122.875 1103.52,123.377C1110.32,146.956 1178.55,383.48 1185.36,407.085C1185.51,407.587 1185.45,408.127 1185.21,408.587C1184.96,409.047 1184.55,409.389 1184.06,409.536C1178.09,411.336 1159.31,416.99 1153.32,418.793C1152.83,418.941 1152.42,419.284 1152.17,419.746C1151.93,420.208 1151.88,420.751 1152.03,421.254C1155.06,431.583 1169.52,480.858 1172.54,491.12C1172.84,492.157 1173.9,492.747 1174.91,492.441C1197.7,485.535 1426.46,416.23 1452.75,408.263C1453.33,408.087 1453.96,408.203 1454.44,408.575C1454.93,408.947 1455.21,409.532 1455.21,410.153C1455.21,416.873 1455.21,434.536 1455.21,440.463C1455.21,440.985 1455.41,441.487 1455.77,441.856C1456.13,442.226 1456.62,442.433 1457.13,442.433C1482.72,442.433 1756.23,442.425 1781.82,442.425C1782.88,442.425 1783.73,441.542 1783.73,440.454C1783.73,429.729 1783.73,378.473 1783.73,367.748C1783.73,367.225 1783.53,366.724 1783.17,366.354C1782.81,365.984 1782.33,365.777 1781.82,365.777C1771.58,365.777 1723.41,365.777 1713.16,365.777C1712.66,365.777 1712.17,365.569 1711.81,365.2C1711.45,364.83 1711.25,364.329 1711.25,363.806C1711.25,353.413 1711.25,305.056 1711.25,294.668C1711.25,293.581 1712.1,292.699 1713.16,292.698C1721.72,292.688 1756.41,292.647 1764.97,292.637C1766.03,292.635 1766.89,291.753 1766.89,290.666C1766.89,274.179 1766.89,159.282 1766.89,142.785C1766.89,142.263 1766.69,141.762 1766.33,141.392C1765.97,141.022 1765.48,140.815 1764.97,140.815C1756.23,140.815 1720.19,140.815 1711.45,140.815C1710.94,140.815 1710.45,140.607 1710.09,140.238C1709.73,139.868 1709.53,139.367 1709.53,138.844L1709.53,67.961C1709.53,67.439 1709.33,66.937 1708.97,66.568C1708.61,66.198 1708.12,65.991 1707.62,65.991C1682.41,65.991 1416.86,65.991 1395.07,65.991C1394.23,65.991 1393.48,65.424 1393.24,64.594C1391.8,59.765 1387.06,43.762 1385.43,38.275C1385.13,37.241 1384.07,36.654 1383.06,36.958C1373.25,39.917 1326.8,53.931 1316.95,56.901C1315.94,57.207 1314.87,56.611 1314.57,55.568C1313.58,52.121 1311.49,44.844 1310.5,41.392C1310.35,40.89 1310.02,40.468 1309.57,40.218C1309.13,39.969 1308.6,39.912 1308.11,40.061C1298.05,43.135 1249.84,57.87 1239.8,60.938C1238.78,61.248 1238.2,62.343 1238.5,63.385C1238.94,64.91 1239.56,67.047 1239.99,68.576C1240.14,69.079 1240.08,69.621 1239.84,70.082C1239.59,70.542 1239.18,70.882 1238.69,71.028C1228.77,73.967 1182.05,87.808 1172.13,90.747C1171.64,90.892 1171.22,91.233 1170.98,91.693C1170.73,92.153 1170.68,92.695 1170.82,93.199C1171.26,94.726 1171.87,96.859 1172.31,98.383C1172.61,99.427 1172.03,100.523 1171.01,100.831C1161.16,103.823 1114.67,117.934 1104.81,120.927Z" style="fill:none;stroke:rgb(255,0,0);stroke-width:1.37px;stroke-linecap:round;stroke-linejoin:round;stroke-miterlimit:1.5;"/>
            </g>
            <g id="トップフレーム内形L1" serif:id="トップフレーム内形L" transform="matrix(0.985565,0,0,0.958937,37.1027,31.93)">
                <path d="M1091.2,394.976C1092.18,394.569 1092.66,393.423 1092.27,392.414C1082.13,366.494 967.297,72.887 957.147,46.936C956.958,46.451 956.588,46.063 956.12,45.858C955.652,45.653 955.124,45.648 954.652,45.843C934.084,54.362 741.968,133.932 729.662,139.029C729.262,139.195 728.819,139.217 728.404,139.092C719.365,136.359 617.291,105.505 602.351,100.989C601.342,100.684 600.76,99.602 601.047,98.562C601.496,96.931 602.143,94.579 602.592,92.947C602.879,91.906 602.296,90.823 601.286,90.519C591.458,87.564 544.89,73.56 535.053,70.602C534.042,70.298 533.459,69.212 533.748,68.171C534.162,66.676 534.739,64.597 535.153,63.105C535.441,62.066 534.862,60.983 533.854,60.675C523.845,57.625 475.563,42.909 465.472,39.834C464.982,39.685 464.455,39.743 464.007,39.995C463.559,40.247 463.227,40.672 463.085,41.176C462.095,44.697 459.991,52.181 458.999,55.707C458.857,56.213 458.524,56.639 458.074,56.89C457.624,57.142 457.095,57.198 456.605,57.047C446.718,53.99 400.328,39.648 390.436,36.589C389.945,36.438 389.415,36.494 388.965,36.746C388.515,36.998 388.182,37.425 388.041,37.932C386.534,43.314 382.289,58.481 380.968,63.201C380.733,64.043 379.985,64.624 379.132,64.627C359.335,64.7 141.442,65.506 118.731,65.59C117.675,65.593 116.821,66.475 116.821,67.56C116.821,78.326 116.821,130.101 116.821,140.885C116.821,141.973 117.679,142.855 118.738,142.855C125.193,142.855 146.086,142.855 152.54,142.855C153.599,142.855 154.458,143.738 154.458,144.826C154.458,155.199 154.458,203.388 154.458,213.761C154.458,214.283 154.256,214.785 153.896,215.154C153.536,215.524 153.049,215.731 152.54,215.731C146.036,215.731 124.859,215.731 118.355,215.731C117.846,215.731 117.359,215.939 116.999,216.309C116.639,216.678 116.437,217.179 116.437,217.702C116.437,238.608 116.437,419.217 116.437,440.119C116.437,441.207 117.296,442.089 118.354,442.089C137.757,442.097 298.328,442.157 317.737,442.164C318.246,442.165 318.734,441.957 319.093,441.587C319.453,441.218 319.655,440.717 319.655,440.194C319.655,434.308 319.655,416.86 319.655,410.187C319.655,409.566 319.94,408.981 320.424,408.609C320.909,408.237 321.535,408.121 322.115,408.297C351.2,417.112 628.881,501.266 654.141,508.922C655.156,509.229 656.221,508.634 656.522,507.591C659.47,497.352 673.516,448.571 676.459,438.35C676.759,437.31 676.184,436.217 675.174,435.904C671.471,434.758 663.12,432.173 659.42,431.028C658.411,430.716 657.837,429.625 658.134,428.586C663.455,409.973 706.674,258.815 713.032,236.579C713.147,236.176 713.498,235.892 713.906,235.872C714.314,235.852 714.689,236.1 714.842,236.49C725.241,263.138 811.083,483.107 819.812,505.474C820.002,505.959 820.372,506.348 820.84,506.553C821.309,506.758 821.837,506.763 822.31,506.567C844.604,497.315 1068.95,404.211 1091.2,394.976Z" style="fill:none;stroke:rgb(255,0,0);stroke-width:1.37px;stroke-linecap:round;stroke-linejoin:round;stroke-miterlimit:1.5;"/>
            </g>
            <g id="ねじ穴-キープレート-1" serif:id="ねじ穴→キープレート ">
                <g transform="matrix(6.80956e-17,1.36766,-1.36692,5.23334e-16,1705.59,-469.596)">
                    <path d="M391.454,1090.15C391.454,1091.68 390.218,1092.92 388.69,1092.92C387.165,1092.92 385.927,1091.68 385.927,1090.15C385.927,1088.63 387.165,1087.39 388.69,1087.39C390.218,1087.39 391.454,1088.63 391.454,1090.15Z" style="fill:none;stroke:rgb(255,0,0);stroke-width:0.98px;stroke-linecap:round;stroke-linejoin:round;stroke-miterlimit:2;"/>
                </g>
                <g transform="matrix(6.80956e-17,1.36766,-1.36692,5.23334e-16,2054.19,-473.596)">
                    <path d="M394.379,1086.64C394.379,1088.17 393.143,1089.41 391.615,1089.41C390.09,1089.41 388.852,1088.17 388.852,1086.64C388.852,1085.12 390.09,1083.88 391.615,1083.88C393.143,1083.88 394.379,1085.12 394.379,1086.64Z" style="fill:none;stroke:rgb(255,0,0);stroke-width:0.98px;stroke-linecap:round;stroke-linejoin:round;stroke-miterlimit:2;"/>
                </g>
                <g transform="matrix(6.80956e-17,1.36766,-1.36692,5.23334e-16,2425.32,-468.566)">
                    <path d="M390.701,1086.85C390.701,1088.38 389.465,1089.62 387.937,1089.62C386.412,1089.62 385.174,1088.38 385.174,1086.85C385.174,1085.33 386.412,1084.09 387.937,1084.09C389.465,1084.09 390.701,1085.33 390.701,1086.85Z" style="fill:none;stroke:rgb(255,0,0);stroke-width:0.98px;stroke-linecap:round;stroke-linejoin:round;stroke-miterlimit:2;"/>
                </g>
                <g transform="matrix(6.80956e-17,1.36766,-1.36692,5.23334e-16,2739.15,-468.567)">
                    <path d="M390.702,1085.76C390.702,1087.29 389.466,1088.53 387.938,1088.53C386.413,1088.53 385.175,1087.29 385.175,1085.76C385.175,1084.24 386.413,1083 387.938,1083C389.466,1083 390.702,1084.24 390.702,1085.76Z" style="fill:none;stroke:rgb(255,0,0);stroke-width:0.98px;stroke-linecap:round;stroke-linejoin:round;stroke-miterlimit:2;"/>
                </g>
                <g transform="matrix(6.80956e-17,1.36766,-1.36692,5.23334e-16,3221.55,-469.596)">
                    <path d="M391.454,1090.15C391.454,1091.68 390.218,1092.92 388.69,1092.92C387.165,1092.92 385.927,1091.68 385.927,1090.15C385.927,1088.63 387.165,1087.39 388.69,1087.39C390.218,1087.39 391.454,1088.63 391.454,1090.15Z" style="fill:none;stroke:rgb(255,0,0);stroke-width:0.98px;stroke-linecap:round;stroke-linejoin:round;stroke-miterlimit:2;"/>
                </g>
                <g transform="matrix(6.80956e-17,1.36766,-1.36692,5.23334e-16,3221.55,-26.2523)">
                    <path d="M391.454,1090.15C391.454,1091.68 390.218,1092.92 388.69,1092.92C387.165,1092.92 385.927,1091.68 385.927,1090.15C385.927,1088.63 387.165,1087.39 388.69,1087.39C390.218,1087.39 391.454,1088.63 391.454,1090.15Z" style="fill:none;stroke:rgb(255,0,0);stroke-width:0.98px;stroke-linecap:round;stroke-linejoin:round;stroke-miterlimit:2;"/>
                </g>
                <g transform="matrix(6.80956e-17,1.36766,-1.36692,5.23334e-16,2764.42,-26.2523)">
                    <path d="M391.454,1090.15C391.454,1091.68 390.218,1092.92 388.69,1092.92C387.165,1092.92 385.927,1091.68 385.927,1090.15C385.927,1088.63 387.165,1087.39 388.69,1087.39C390.218,1087.39 391.454,1088.63 391.454,1090.15Z" style="fill:none;stroke:rgb(255,0,0);stroke-width:0.98px;stroke-linecap:round;stroke-linejoin:round;stroke-miterlimit:2;"/>
                </g>
                <g transform="matrix(6.80956e-17,1.36766,-1.36692,5.23334e-16,2426.76,-26.2523)">
                    <path d="M391.454,1090.15C391.454,1091.68 390.218,1092.92 388.69,1092.92C387.165,1092.92 385.927,1091.68 385.927,1090.15C385.927,1088.63 387.165,1087.39 388.69,1087.39C390.218,1087.39 391.454,1088.63 391.454,1090.15Z" style="fill:none;stroke:rgb(255,0,0);stroke-width:0.98px;stroke-linecap:round;stroke-linejoin:round;stroke-miterlimit:2;"/>
                </g>
                <g transform="matrix(6.80956e-17,1.36766,-1.36692,5.23334e-16,2054.19,-26.2523)">
                    <path d="M391.454,1090.15C391.454,1091.68 390.218,1092.92 388.69,1092.92C387.165,1092.92 385.927,1091.68 385.927,1090.15C385.927,1088.63 387.165,1087.39 388.69,1087.39C390.218,1087.39 391.454,1088.63 391.454,1090.15Z" style="fill:none;stroke:rgb(255,0,0);stroke-width:0.98px;stroke-linecap:round;stroke-linejoin:round;stroke-miterlimit:2;"/>
                </g>
                <g transform="matrix(6.80956e-17,1.36766,-1.36692,5.23334e-16,1705.59,-26.2523)">
                    <path d="M391.454,1090.15C391.454,1091.68 390.218,1092.92 388.69,1092.92C387.165,1092.92 385.927,1091.68 385.927,1090.15C385.927,1088.63 387.165,1087.39 388.69,1087.39C390.218,1087.39 391.454,1088.63 391.454,1090.15Z" style="fill:none;stroke:rgb(255,0,0);stroke-width:0.98px;stroke-linecap:round;stroke-linejoin:round;stroke-miterlimit:2;"/>
                </g>
            </g>
            <g id="ねじ穴-ミッドフレーム1" serif:id="ねじ穴→ミッドフレーム">
                <g transform="matrix(6.80956e-17,1.36766,-1.36692,5.23334e-16,3281.83,-26.2523)">
                    <path d="M391.454,1090.15C391.454,1091.68 390.218,1092.92 388.69,1092.92C387.165,1092.92 385.927,1091.68 385.927,1090.15C385.927,1088.63 387.165,1087.39 388.69,1087.39C390.218,1087.39 391.454,1088.63 391.454,1090.15Z" style="fill:none;stroke:rgb(255,0,0);stroke-width:0.98px;stroke-linecap:round;stroke-linejoin:round;stroke-miterlimit:2;"/>
                </g>
                <g transform="matrix(6.80956e-17,1.36766,-1.36692,5.23334e-16,3281.83,-469.596)">
                    <path d="M391.454,1090.15C391.454,1091.68 390.218,1092.92 388.69,1092.92C387.165,1092.92 385.927,1091.68 385.927,1090.15C385.927,1088.63 387.165,1087.39 388.69,1087.39C390.218,1087.39 391.454,1088.63 391.454,1090.15Z" style="fill:none;stroke:rgb(255,0,0);stroke-width:0.98px;stroke-linecap:round;stroke-linejoin:round;stroke-miterlimit:2;"/>
                </g>
                <g transform="matrix(6.80956e-17,1.36766,-1.36692,5.23334e-16,2500.38,-469.596)">
                    <path d="M391.454,1090.15C391.454,1091.68 390.218,1092.92 388.69,1092.92C387.165,1092.92 385.927,1091.68 385.927,1090.15C385.927,1088.63 387.165,1087.39 388.69,1087.39C390.218,1087.39 391.454,1088.63 391.454,1090.15Z" style="fill:none;stroke:rgb(255,0,0);stroke-width:0.98px;stroke-linecap:round;stroke-linejoin:round;stroke-miterlimit:2;"/>
                </g>
                <g transform="matrix(6.80956e-17,1.36766,-1.36692,5.23334e-16,1645.3,-26.2523)">
                    <path d="M391.454,1090.15C391.454,1091.68 390.218,1092.92 388.69,1092.92C387.165,1092.92 385.927,1091.68 385.927,1090.15C385.927,1088.63 387.165,1087.39 388.69,1087.39C390.218,1087.39 391.454,1088.63 391.454,1090.15Z" style="fill:none;stroke:rgb(255,0,0);stroke-width:0.98px;stroke-linecap:round;stroke-linejoin:round;stroke-miterlimit:2;"/>
                </g>
                <g transform="matrix(6.80956e-17,1.36766,-1.36692,5.23334e-16,1645.3,-469.596)">
                    <path d="M391.454,1090.15C391.454,1091.68 390.218,1092.92 388.69,1092.92C387.165,1092.92 385.927,1091.68 385.927,1090.15C385.927,1088.63 387.165,1087.39 388.69,1087.39C390.218,1087.39 391.454,1088.63 391.454,1090.15Z" style="fill:none;stroke:rgb(255,0,0);stroke-width:0.98px;stroke-linecap:round;stroke-linejoin:round;stroke-miterlimit:2;"/>
                </g>
                <g transform="matrix(6.80956e-17,1.36766,-1.36692,5.23334e-16,2500.38,-26.2523)">
                    <path d="M391.454,1090.15C391.454,1091.68 390.218,1092.92 388.69,1092.92C387.165,1092.92 385.927,1091.68 385.927,1090.15C385.927,1088.63 387.165,1087.39 388.69,1087.39C390.218,1087.39 391.454,1088.63 391.454,1090.15Z" style="fill:none;stroke:rgb(255,0,0);stroke-width:0.98px;stroke-linecap:round;stroke-linejoin:round;stroke-miterlimit:2;"/>
                </g>
            </g>
        </g>
        <g id="足接続パーツL" transform="matrix(4.59243e-17,-0.75,0.75,4.59243e-17,3166.31,394.016)">
            <g transform="matrix(6.80956e-17,1.36766,-1.36692,5.23334e-16,1796.29,-380.425)">
                <path d="M391.454,1090.15C391.454,1091.68 390.218,1092.92 388.69,1092.92C387.165,1092.92 385.927,1091.68 385.927,1090.15C385.927,1088.63 387.165,1087.39 388.69,1087.39C390.218,1087.39 391.454,1088.63 391.454,1090.15Z" style="fill:none;stroke:rgb(255,0,0);stroke-width:0.98px;stroke-linecap:round;stroke-linejoin:round;stroke-miterlimit:2;"/>
            </g>
            <g transform="matrix(6.80956e-17,1.36766,-1.36692,5.23334e-16,1720.7,-380.425)">
                <path d="M391.454,1090.15C391.454,1091.68 390.218,1092.92 388.69,1092.92C387.165,1092.92 385.927,1091.68 385.927,1090.15C385.927,1088.63 387.165,1087.39 388.69,1087.39C390.218,1087.39 391.454,1088.63 391.454,1090.15Z" style="fill:none;stroke:rgb(255,0,0);stroke-width:0.98px;stroke-linecap:round;stroke-linejoin:round;stroke-miterlimit:2;"/>
            </g>
            <g transform="matrix(6.80956e-17,1.36766,-1.36692,5.23334e-16,1645.11,-380.425)">
                <path d="M391.454,1090.15C391.454,1091.68 390.218,1092.92 388.69,1092.92C387.165,1092.92 385.927,1091.68 385.927,1090.15C385.927,1088.63 387.165,1087.39 388.69,1087.39C390.218,1087.39 391.454,1088.63 391.454,1090.15Z" style="fill:none;stroke:rgb(255,0,0);stroke-width:0.98px;stroke-linecap:round;stroke-linejoin:round;stroke-miterlimit:2;"/>
            </g>
            <g transform="matrix(1.38889,0,0,2.33792,-52.9134,-196.506)">
                <rect x="136.063" y="128.504" width="136.063" height="40.415" style="fill:none;stroke:rgb(255,0,0);stroke-width:0.69px;stroke-linecap:round;stroke-linejoin:round;stroke-miterlimit:1.5;"/>
            </g>
        </g>
        <g id="足接続パーツS" transform="matrix(4.59243e-17,-0.75,0.75,4.59243e-17,3261.27,394.016)">
            <g transform="matrix(6.80956e-17,1.36766,-1.36692,5.23334e-16,1796.29,-380.425)">
                <path d="M391.454,1090.15C391.454,1091.68 390.218,1092.92 388.69,1092.92C387.165,1092.92 385.927,1091.68 385.927,1090.15C385.927,1088.63 387.165,1087.39 388.69,1087.39C390.218,1087.39 391.454,1088.63 391.454,1090.15Z" style="fill:none;stroke:rgb(255,0,0);stroke-width:0.98px;stroke-linecap:round;stroke-linejoin:round;stroke-miterlimit:2;"/>
            </g>
            <g transform="matrix(6.80956e-17,1.36766,-1.36692,5.23334e-16,1720.7,-380.425)">
                <path d="M391.454,1090.15C391.454,1091.68 390.218,1092.92 388.69,1092.92C387.165,1092.92 385.927,1091.68 385.927,1090.15C385.927,1088.63 387.165,1087.39 388.69,1087.39C390.218,1087.39 391.454,1088.63 391.454,1090.15Z" style="fill:none;stroke:rgb(255,0,0);stroke-width:0.98px;stroke-linecap:round;stroke-linejoin:round;stroke-miterlimit:2;"/>
            </g>
            <g transform="matrix(6.80956e-17,1.36766,-1.36692,5.23334e-16,1645.11,-380.425)">
                <path d="M391.454,1090.15C391.454,1091.68 390.218,1092.92 388.69,1092.92C387.165,1092.92 385.927,1091.68 385.927,1090.15C385.927,1088.63 387.165,1087.39 388.69,1087.39C390.218,1087.39 391.454,1088.63 391.454,1090.15Z" style="fill:none;stroke:rgb(255,0,0);stroke-width:0.98px;stroke-linecap:round;stroke-linejoin:round;stroke-miterlimit:2;"/>
            </g>
            <g transform="matrix(1.38889,0,0,1.40275,-52.9134,-57.435)">
                <rect x="136.063" y="128.504" width="136.063" height="40.415" style="fill:none;stroke:rgb(255,0,0);stroke-width:0.96px;stroke-linecap:round;stroke-linejoin:round;stroke-miterlimit:1.5;"/>
            </g>
        </g>
        <g id="足接続パーツL1" serif:id="足接続パーツL" transform="matrix(4.59243e-17,-0.75,0.75,4.59243e-17,3166.31,555.591)">
            <g transform="matrix(6.80956e-17,1.36766,-1.36692,5.23334e-16,1796.29,-380.425)">
                <path d="M391.454,1090.15C391.454,1091.68 390.218,1092.92 388.69,1092.92C387.165,1092.92 385.927,1091.68 385.927,1090.15C385.927,1088.63 387.165,1087.39 388.69,1087.39C390.218,1087.39 391.454,1088.63 391.454,1090.15Z" style="fill:none;stroke:rgb(255,0,0);stroke-width:0.98px;stroke-linecap:round;stroke-linejoin:round;stroke-miterlimit:2;"/>
            </g>
            <g transform="matrix(6.80956e-17,1.36766,-1.36692,5.23334e-16,1720.7,-380.425)">
                <path d="M391.454,1090.15C391.454,1091.68 390.218,1092.92 388.69,1092.92C387.165,1092.92 385.927,1091.68 385.927,1090.15C385.927,1088.63 387.165,1087.39 388.69,1087.39C390.218,1087.39 391.454,1088.63 391.454,1090.15Z" style="fill:none;stroke:rgb(255,0,0);stroke-width:0.98px;stroke-linecap:round;stroke-linejoin:round;stroke-miterlimit:2;"/>
            </g>
            <g transform="matrix(6.80956e-17,1.36766,-1.36692,5.23334e-16,1645.11,-380.425)">
                <path d="M391.454,1090.15C391.454,1091.68 390.218,1092.92 388.69,1092.92C387.165,1092.92 385.927,1091.68 385.927,1090.15C385.927,1088.63 387.165,1087.39 388.69,1087.39C390.218,1087.39 391.454,1088.63 391.454,1090.15Z" style="fill:none;stroke:rgb(255,0,0);stroke-width:0.98px;stroke-linecap:round;stroke-linejoin:round;stroke-miterlimit:2;"/>
            </g>
            <g transform="matrix(1.38889,0,0,2.33792,-52.9134,-196.506)">
                <rect x="136.063" y="128.504" width="136.063" height="40.415" style="fill:none;stroke:rgb(255,0,0);stroke-width:0.69px;stroke-linecap:round;stroke-linejoin:round;stroke-miterlimit:1.5;"/>
            </g>
        </g>
        <g id="足接続パーツS1" serif:id="足接続パーツS" transform="matrix(4.59243e-17,-0.75,0.75,4.59243e-17,3261.27,555.591)">
            <g transform="matrix(6.80956e-17,1.36766,-1.36692,5.23334e-16,1796.29,-380.425)">
                <path d="M391.454,1090.15C391.454,1091.68 390.218,1092.92 388.69,1092.92C387.165,1092.92 385.927,1091.68 385.927,1090.15C385.927,1088.63 387.165,1087.39 388.69,1087.39C390.218,1087.39 391.454,1088.63 391.454,1090.15Z" style="fill:none;stroke:rgb(255,0,0);stroke-width:0.98px;stroke-linecap:round;stroke-linejoin:round;stroke-miterlimit:2;"/>
            </g>
            <g transform="matrix(6.80956e-17,1.36766,-1.36692,5.23334e-16,1720.7,-380.425)">
                <path d="M391.454,1090.15C391.454,1091.68 390.218,1092.92 388.69,1092.92C387.165,1092.92 385.927,1091.68 385.927,1090.15C385.927,1088.63 387.165,1087.39 388.69,1087.39C390.218,1087.39 391.454,1088.63 391.454,1090.15Z" style="fill:none;stroke:rgb(255,0,0);stroke-width:0.98px;stroke-linecap:round;stroke-linejoin:round;stroke-miterlimit:2;"/>
            </g>
            <g transform="matrix(6.80956e-17,1.36766,-1.36692,5.23334e-16,1645.11,-380.425)">
                <path d="M391.454,1090.15C391.454,1091.68 390.218,1092.92 388.69,1092.92C387.165,1092.92 385.927,1091.68 385.927,1090.15C385.927,1088.63 387.165,1087.39 388.69,1087.39C390.218,1087.39 391.454,1088.63 391.454,1090.15Z" style="fill:none;stroke:rgb(255,0,0);stroke-width:0.98px;stroke-linecap:round;stroke-linejoin:round;stroke-miterlimit:2;"/>
            </g>
            <g transform="matrix(1.38889,0,0,1.40275,-52.9134,-57.435)">
                <rect x="136.063" y="128.504" width="136.063" height="40.415" style="fill:none;stroke:rgb(255,0,0);stroke-width:0.96px;stroke-linecap:round;stroke-linejoin:round;stroke-miterlimit:1.5;"/>
            </g>
        </g>
        <g id="足接続パーツL2" serif:id="足接続パーツL" transform="matrix(4.59243e-17,-0.75,0.75,4.59243e-17,3166.31,717.165)">
            <g transform="matrix(6.80956e-17,1.36766,-1.36692,5.23334e-16,1796.29,-380.425)">
                <path d="M391.454,1090.15C391.454,1091.68 390.218,1092.92 388.69,1092.92C387.165,1092.92 385.927,1091.68 385.927,1090.15C385.927,1088.63 387.165,1087.39 388.69,1087.39C390.218,1087.39 391.454,1088.63 391.454,1090.15Z" style="fill:none;stroke:rgb(255,0,0);stroke-width:0.98px;stroke-linecap:round;stroke-linejoin:round;stroke-miterlimit:2;"/>
            </g>
            <g transform="matrix(6.80956e-17,1.36766,-1.36692,5.23334e-16,1720.7,-380.425)">
                <path d="M391.454,1090.15C391.454,1091.68 390.218,1092.92 388.69,1092.92C387.165,1092.92 385.927,1091.68 385.927,1090.15C385.927,1088.63 387.165,1087.39 388.69,1087.39C390.218,1087.39 391.454,1088.63 391.454,1090.15Z" style="fill:none;stroke:rgb(255,0,0);stroke-width:0.98px;stroke-linecap:round;stroke-linejoin:round;stroke-miterlimit:2;"/>
            </g>
            <g transform="matrix(6.80956e-17,1.36766,-1.36692,5.23334e-16,1645.11,-380.425)">
                <path d="M391.454,1090.15C391.454,1091.68 390.218,1092.92 388.69,1092.92C387.165,1092.92 385.927,1091.68 385.927,1090.15C385.927,1088.63 387.165,1087.39 388.69,1087.39C390.218,1087.39 391.454,1088.63 391.454,1090.15Z" style="fill:none;stroke:rgb(255,0,0);stroke-width:0.98px;stroke-linecap:round;stroke-linejoin:round;stroke-miterlimit:2;"/>
            </g>
            <g transform="matrix(1.38889,0,0,2.33792,-52.9134,-196.506)">
                <rect x="136.063" y="128.504" width="136.063" height="40.415" style="fill:none;stroke:rgb(255,0,0);stroke-width:0.69px;stroke-linecap:round;stroke-linejoin:round;stroke-miterlimit:1.5;"/>
            </g>
        </g>
        <g id="足接続パーツS2" serif:id="足接続パーツS" transform="matrix(4.59243e-17,-0.75,0.75,4.59243e-17,3261.27,717.165)">
            <g transform="matrix(6.80956e-17,1.36766,-1.36692,5.23334e-16,1796.29,-380.425)">
                <path d="M391.454,1090.15C391.454,1091.68 390.218,1092.92 388.69,1092.92C387.165,1092.92 385.927,1091.68 385.927,1090.15C385.927,1088.63 387.165,1087.39 388.69,1087.39C390.218,1087.39 391.454,1088.63 391.454,1090.15Z" style="fill:none;stroke:rgb(255,0,0);stroke-width:0.98px;stroke-linecap:round;stroke-linejoin:round;stroke-miterlimit:2;"/>
            </g>
            <g transform="matrix(6.80956e-17,1.36766,-1.36692,5.23334e-16,1720.7,-380.425)">
                <path d="M391.454,1090.15C391.454,1091.68 390.218,1092.92 388.69,1092.92C387.165,1092.92 385.927,1091.68 385.927,1090.15C385.927,1088.63 387.165,1087.39 388.69,1087.39C390.218,1087.39 391.454,1088.63 391.454,1090.15Z" style="fill:none;stroke:rgb(255,0,0);stroke-width:0.98px;stroke-linecap:round;stroke-linejoin:round;stroke-miterlimit:2;"/>
            </g>
            <g transform="matrix(6.80956e-17,1.36766,-1.36692,5.23334e-16,1645.11,-380.425)">
                <path d="M391.454,1090.15C391.454,1091.68 390.218,1092.92 388.69,1092.92C387.165,1092.92 385.927,1091.68 385.927,1090.15C385.927,1088.63 387.165,1087.39 388.69,1087.39C390.218,1087.39 391.454,1088.63 391.454,1090.15Z" style="fill:none;stroke:rgb(255,0,0);stroke-width:0.98px;stroke-linecap:round;stroke-linejoin:round;stroke-miterlimit:2;"/>
            </g>
            <g transform="matrix(1.38889,0,0,1.40275,-52.9134,-57.435)">
                <rect x="136.063" y="128.504" width="136.063" height="40.415" style="fill:none;stroke:rgb(255,0,0);stroke-width:0.96px;stroke-linecap:round;stroke-linejoin:round;stroke-miterlimit:1.5;"/>
            </g>
        </g>
        <g id="ミドルフレーム" transform="matrix(4.59243e-17,-0.75,-0.75,-4.59243e-17,3233.55,964.63)">
            <path d="M1071.5,29.48L1084.72,20.031L228.661,20.031C227.618,20.031 226.772,20.878 226.772,21.921C226.772,27.019 226.772,41.012 226.772,46.11C226.772,46.611 226.971,47.092 227.325,47.447C227.68,47.801 228.16,48 228.661,48C270.124,48 979.987,48 979.987,48L998.884,74.887L1021.56,74.887L1040.46,48L1076.41,48L1089.64,38.23L1084.72,30.992L1076.41,36.661L1071.5,29.48Z" style="fill:none;stroke:rgb(255,0,0);stroke-width:1.33px;stroke-linecap:round;stroke-linejoin:round;stroke-miterlimit:1.5;"/>
            <g transform="matrix(1.57641e-16,3.16613,-3.16442,1.21152e-15,4459.93,-1168.64)">
                <path d="M391.454,1090.15C391.454,1091.68 390.218,1092.92 388.69,1092.92C387.165,1092.92 385.927,1091.68 385.927,1090.15C385.927,1088.63 387.165,1087.39 388.69,1087.39C390.218,1087.39 391.454,1088.63 391.454,1090.15Z" style="fill:none;stroke:rgb(255,0,0);stroke-width:0.42px;stroke-linecap:round;stroke-linejoin:round;stroke-miterlimit:2;"/>
            </g>
            <g id="ミッド下側のみ" transform="matrix(1.57641e-16,3.16613,-3.16442,1.21152e-15,3691.59,-1196.19)">
                <path d="M391.454,1090.15C391.454,1091.68 390.218,1092.92 388.69,1092.92C387.165,1092.92 385.927,1091.68 385.927,1090.15C385.927,1088.63 387.165,1087.39 388.69,1087.39C390.218,1087.39 391.454,1088.63 391.454,1090.15Z" style="fill:none;stroke:rgb(255,0,0);stroke-width:0.42px;stroke-linecap:round;stroke-linejoin:round;stroke-miterlimit:2;"/>
            </g>
        </g>
    </g>
</svg>
