<?xml version="1.0" encoding="UTF-8" standalone="no"?>
<!DOCTYPE svg PUBLIC "-//W3C//DTD SVG 1.1//EN" "http://www.w3.org/Graphics/SVG/1.1/DTD/svg11.dtd">
<svg width="100%" height="100%" viewBox="0 0 572 809" version="1.1" xmlns="http://www.w3.org/2000/svg" xmlns:xlink="http://www.w3.org/1999/xlink" xml:space="preserve" xmlns:serif="http://www.serif.com/" style="fill-rule:evenodd;clip-rule:evenodd;stroke-linejoin:round;stroke-miterlimit:1.5;">
    <g id="アートボード1" transform="matrix(0.852459,0,0,1.71036,-52.8525,-66.704)">
        <rect x="62" y="39" width="671" height="473" style="fill:none;"/>
        <g transform="matrix(1.17308,0,2.77556e-17,0.584672,62,39)">
            <g id="Split-Num-v01" serif:id="Split Num v01">
                <g id="Bottom">
                    <path d="M468.085,148L112.61,148L112.61,178.146L144.762,178.146L144.762,253L112.61,253L112.61,628L468.085,628L468.085,253L413,253L413,178.146L468.085,178.146L468.085,148ZM127.735,616.78C125.644,616.78 123.949,615.089 123.949,612.999C123.949,610.914 125.644,609.22 127.735,609.22C129.813,609.22 131.508,610.914 131.508,612.999C131.508,615.089 129.813,616.78 127.735,616.78ZM452.974,616.661C450.882,616.661 449.187,614.971 449.187,612.881C449.187,610.796 450.882,609.102 452.974,609.102C455.052,609.102 456.746,610.796 456.746,612.881C456.746,614.971 455.052,616.661 452.974,616.661ZM127.735,462.677C125.644,462.677 123.949,460.987 123.949,458.897C123.949,456.811 125.644,455.118 127.735,455.118C129.813,455.118 131.508,456.811 131.508,458.897C131.508,460.987 129.813,462.677 127.735,462.677ZM452.974,276.504C450.882,276.504 449.187,274.813 449.187,272.724C449.187,270.638 450.882,268.945 452.974,268.945C455.052,268.945 456.746,270.638 456.746,272.724C456.746,274.813 455.052,276.504 452.974,276.504ZM127.735,166.898C125.644,166.898 123.949,165.207 123.949,163.117C123.949,161.032 125.644,159.339 127.735,159.339C129.813,159.339 131.508,161.032 131.508,163.117C131.508,165.207 129.813,166.898 127.735,166.898ZM452.974,166.898C450.882,166.898 449.187,165.207 449.187,163.117C449.187,161.032 450.882,159.339 452.974,159.339C455.052,159.339 456.746,161.032 456.746,163.117C456.746,165.207 455.052,166.898 452.974,166.898Z" style="fill:rgb(98,0,16);fill-opacity:0.16;stroke:rgb(0,147,60);stroke-width:0.94px;"/>
                </g>
            </g>
        </g>
    </g>
</svg>
