<?xml version="1.0" encoding="UTF-8" standalone="no"?>
<!DOCTYPE svg PUBLIC "-//W3C//DTD SVG 1.1//EN" "http://www.w3.org/Graphics/SVG/1.1/DTD/svg11.dtd">
<svg width="100%" height="100%" viewBox="0 0 572 809" version="1.1" xmlns="http://www.w3.org/2000/svg" xmlns:xlink="http://www.w3.org/1999/xlink" xml:space="preserve" xmlns:serif="http://www.serif.com/" style="fill-rule:evenodd;clip-rule:evenodd;stroke-linejoin:round;stroke-miterlimit:1.5;">
    <g id="アートボード1" transform="matrix(0.852459,0,0,1.71036,-52.8525,-66.704)">
        <rect x="62" y="39" width="671" height="473" style="fill:none;"/>
        <g transform="matrix(1.17308,0,0,0.584672,62,39)">
            <g id="Split-Num-v01" serif:id="Split Num v01">
                <g id="keyplate">
                    <path d="M112.771,324.25L112.61,390.009L126.431,390.009L140.033,454L151.74,608.168L189.902,608.168L452.556,568.593L452.672,552.372L428.736,258.55L468.085,258.55L468.085,178.925L383.297,178.925L170.548,219.023L162.782,231.846L179.214,310.083L112.771,324.25ZM159.65,600.523C157.559,600.523 155.864,598.833 155.864,596.743C155.864,594.657 157.559,592.964 159.65,592.964C161.728,592.964 163.423,594.657 163.423,596.743C163.423,598.833 161.728,600.523 159.65,600.523ZM180.301,545.019L179.545,541.459L191.744,538.866L192.501,542.426L268.251,526.324L267.495,522.764L279.695,520.171L280.451,523.731L291.363,521.495L302.364,573.254L180.142,599.15L169.14,547.391L180.301,545.019ZM361.747,506.45L372.749,558.208L320.99,569.21L309.988,517.451L361.747,506.45ZM444.13,566.11C442.039,566.11 440.344,564.42 440.344,562.33C440.344,560.245 442.039,558.551 444.13,558.551C446.208,558.551 447.903,560.245 447.903,562.33C447.903,564.42 446.208,566.11 444.13,566.11ZM388.969,543.119L385.409,543.876L382.816,531.676L386.376,530.919L370.274,455.169L366.715,455.926L364.121,443.726L367.681,442.969L365.446,432.058L417.204,421.056L443.1,543.279L391.341,554.281L388.969,543.119ZM205.935,466.013L216.937,517.772L165.178,528.774L154.177,477.015L205.935,466.013ZM276.362,451.044L287.363,502.802L235.605,513.804L224.603,462.045L276.362,451.044ZM299.356,512.438C297.265,512.438 295.57,510.748 295.57,508.658C295.57,506.572 297.265,504.879 299.356,504.879C301.434,504.879 303.129,506.572 303.129,508.658C303.129,510.748 301.434,512.438 299.356,512.438ZM346.788,436.074L357.79,487.833L306.031,498.835L295.029,447.076L346.788,436.074ZM190.955,395.536L201.957,447.295L150.198,458.296L139.196,406.538L190.955,395.536ZM261.381,380.566L272.383,432.325L220.624,443.327L209.623,391.568L261.381,380.566ZM331.808,365.597L342.809,417.356L291.051,428.357L280.049,376.599L331.808,365.597ZM402.234,350.627L413.236,402.386L361.477,413.388L350.475,361.629L402.234,350.627ZM175.996,325.161L186.998,376.919L135.239,387.921L124.238,336.162L175.996,325.161ZM246.423,310.191L257.424,361.95L205.666,372.951L194.664,321.193L246.423,310.191ZM316.849,295.221L327.851,346.98L276.092,357.982L265.09,306.223L316.849,295.221ZM387.275,280.252L398.277,332.011L346.518,343.012L335.517,291.253L387.275,280.252ZM231.442,239.714L242.444,291.472L190.685,302.474L179.683,250.715L231.442,239.714ZM254.444,301.159C252.352,301.159 250.657,299.469 250.657,297.379C250.657,295.293 252.352,293.6 254.444,293.6C256.521,293.6 258.216,295.293 258.216,297.379C258.216,299.469 256.521,301.159 254.444,301.159ZM301.869,224.744L312.87,276.503L261.111,287.504L250.11,235.746L301.869,224.744ZM372.295,209.775L383.297,261.533L331.538,272.535L320.536,220.776L372.295,209.775ZM176.724,233.966C174.633,233.966 172.938,232.275 172.938,230.186C172.938,228.1 174.633,226.407 176.724,226.407C178.802,226.407 180.497,228.1 180.497,230.186C180.497,232.275 178.802,233.966 176.724,233.966ZM396.786,204.406C394.695,204.406 393,202.716 393,200.626C393,198.54 394.695,196.847 396.786,196.847C398.864,196.847 400.559,198.54 400.559,200.626C400.559,202.716 398.864,204.406 396.786,204.406Z" style="fill:rgb(0,185,250);fill-opacity:0.27;stroke:rgb(4,141,255);stroke-width:0.94px;"/>
                </g>
            </g>
        </g>
    </g>
</svg>
