<?xml version="1.0" encoding="UTF-8" standalone="no"?>
<!DOCTYPE svg PUBLIC "-//W3C//DTD SVG 1.1//EN" "http://www.w3.org/Graphics/SVG/1.1/DTD/svg11.dtd">
<svg width="100%" height="100%" viewBox="0 0 572 809" version="1.1" xmlns="http://www.w3.org/2000/svg" xmlns:xlink="http://www.w3.org/1999/xlink" xml:space="preserve" xmlns:serif="http://www.serif.com/" style="fill-rule:evenodd;clip-rule:evenodd;stroke-linejoin:round;stroke-miterlimit:1.5;">
    <g id="アートボード1" transform="matrix(0.852459,0,0,1.71036,-52.8525,-66.704)">
        <rect x="62" y="39" width="671" height="473" style="fill:none;"/>
        <g transform="matrix(1.17308,0,0,0.584672,62,39)">
            <g id="Split-Num-v01" serif:id="Split Num v01">
                <g id="Mid-lower" serif:id="Mid lower">
                    <path d="M468.085,628L468.085,259.983L433.882,259.983L455.882,494L455.637,569.374L261.882,610.558L150,610.558L138.88,457L124.857,391.942L124.238,323.748L112.61,323.748L112.61,628L468.085,628ZM452.978,619.047C449.632,619.047 446.92,616.343 446.92,612.999C446.92,609.662 449.632,606.953 452.978,606.953C456.302,606.953 459.014,609.662 459.014,612.999C459.014,616.343 456.302,619.047 452.978,619.047ZM127.739,619.047C124.393,619.047 121.681,616.343 121.681,612.999C121.681,609.662 124.393,606.953 127.739,606.953C131.064,606.953 133.776,609.662 133.776,612.999C133.776,616.343 131.064,619.047 127.739,619.047ZM127.739,464.945C124.393,464.945 121.681,462.24 121.681,458.897C121.681,455.559 124.393,452.85 127.739,452.85C131.064,452.85 133.776,455.559 133.776,458.897C133.776,462.24 131.064,464.945 127.739,464.945ZM452.978,278.772C449.632,278.772 446.92,276.067 446.92,272.723C446.92,269.386 449.632,266.677 452.978,266.677C456.302,266.677 459.014,269.386 459.014,272.723C459.014,276.067 456.302,278.772 452.978,278.772ZM468.085,148L112.61,148L112.61,177.058L468.085,177.058L468.085,148ZM452.978,169.165C449.632,169.165 446.92,166.461 446.92,163.117C446.92,159.78 449.632,157.071 452.978,157.071C456.302,157.071 459.014,159.78 459.014,163.117C459.014,166.461 456.302,169.165 452.978,169.165ZM127.739,169.165C124.393,169.165 121.681,166.461 121.681,163.117C121.681,159.78 124.393,157.071 127.739,157.071C131.064,157.071 133.776,159.78 133.776,163.117C133.776,166.461 131.064,169.165 127.739,169.165Z" style="fill:rgb(255,218,0);fill-opacity:0.35;stroke:rgb(255,171,56);stroke-width:0.94px;"/>
                </g>
            </g>
        </g>
    </g>
</svg>
