G04 #@! TF.GenerationSoftware,KiCad,Pcbnew,(5.1.5-0-10_14)*
G04 #@! TF.CreationDate,2020-05-14T05:05:21+09:00*
G04 #@! TF.ProjectId,L-top-v02,4c2d746f-702d-4763-9032-2e6b69636164,rev?*
G04 #@! TF.SameCoordinates,Original*
G04 #@! TF.FileFunction,Legend,Bot*
G04 #@! TF.FilePolarity,Positive*
%FSLAX46Y46*%
G04 Gerber Fmt 4.6, Leading zero omitted, Abs format (unit mm)*
G04 Created by KiCad (PCBNEW (5.1.5-0-10_14)) date 2020-05-14 05:05:21*
%MOMM*%
%LPD*%
G04 APERTURE LIST*
%ADD10C,0.300000*%
G04 APERTURE END LIST*
D10*
X56263571Y-115195714D02*
X56263571Y-116267142D01*
X55620714Y-115624285D02*
X57549285Y-115195714D01*
X56906428Y-116124285D02*
X56906428Y-115052857D01*
X57549285Y-115695714D02*
X55620714Y-116124285D01*
X57120714Y-117624285D02*
X57192142Y-117552857D01*
X57263571Y-117338571D01*
X57263571Y-117195714D01*
X57192142Y-116981428D01*
X57049285Y-116838571D01*
X56906428Y-116767142D01*
X56620714Y-116695714D01*
X56406428Y-116695714D01*
X56120714Y-116767142D01*
X55977857Y-116838571D01*
X55835000Y-116981428D01*
X55763571Y-117195714D01*
X55763571Y-117338571D01*
X55835000Y-117552857D01*
X55906428Y-117624285D01*
X57263571Y-118481428D02*
X57192142Y-118338571D01*
X57120714Y-118267142D01*
X56977857Y-118195714D01*
X56549285Y-118195714D01*
X56406428Y-118267142D01*
X56335000Y-118338571D01*
X56263571Y-118481428D01*
X56263571Y-118695714D01*
X56335000Y-118838571D01*
X56406428Y-118910000D01*
X56549285Y-118981428D01*
X56977857Y-118981428D01*
X57120714Y-118910000D01*
X57192142Y-118838571D01*
X57263571Y-118695714D01*
X57263571Y-118481428D01*
X57263571Y-119838571D02*
X57192142Y-119695714D01*
X57049285Y-119624285D01*
X55763571Y-119624285D01*
X57263571Y-120410000D02*
X56263571Y-120410000D01*
X55763571Y-120410000D02*
X55835000Y-120338571D01*
X55906428Y-120410000D01*
X55835000Y-120481428D01*
X55763571Y-120410000D01*
X55906428Y-120410000D01*
X57192142Y-121767142D02*
X57263571Y-121624285D01*
X57263571Y-121338571D01*
X57192142Y-121195714D01*
X57120714Y-121124285D01*
X56977857Y-121052857D01*
X56549285Y-121052857D01*
X56406428Y-121124285D01*
X56335000Y-121195714D01*
X56263571Y-121338571D01*
X56263571Y-121624285D01*
X56335000Y-121767142D01*
X57192142Y-122981428D02*
X57263571Y-122838571D01*
X57263571Y-122552857D01*
X57192142Y-122410000D01*
X57049285Y-122338571D01*
X56477857Y-122338571D01*
X56335000Y-122410000D01*
X56263571Y-122552857D01*
X56263571Y-122838571D01*
X56335000Y-122981428D01*
X56477857Y-123052857D01*
X56620714Y-123052857D01*
X56763571Y-122338571D01*
X56549285Y-125767142D02*
X56477857Y-125695714D01*
X56406428Y-125552857D01*
X56406428Y-125410000D01*
X56477857Y-125267142D01*
X56549285Y-125195714D01*
X56692142Y-125124285D01*
X56835000Y-125124285D01*
X56977857Y-125195714D01*
X57049285Y-125267142D01*
X57120714Y-125410000D01*
X57120714Y-125552857D01*
X57049285Y-125695714D01*
X56977857Y-125767142D01*
X56406428Y-125767142D02*
X56977857Y-125767142D01*
X57049285Y-125838571D01*
X57049285Y-125910000D01*
X56977857Y-126052857D01*
X56835000Y-126124285D01*
X56477857Y-126124285D01*
X56263571Y-125981428D01*
X56120714Y-125767142D01*
X56049285Y-125481428D01*
X56120714Y-125195714D01*
X56263571Y-124981428D01*
X56477857Y-124838571D01*
X56763571Y-124767142D01*
X57049285Y-124838571D01*
X57263571Y-124981428D01*
X57406428Y-125195714D01*
X57477857Y-125481428D01*
X57406428Y-125767142D01*
X57263571Y-125981428D01*
X56263571Y-126767142D02*
X57549285Y-126767142D01*
X57692142Y-126695714D01*
X57763571Y-126552857D01*
X57763571Y-126481428D01*
X55763571Y-126767142D02*
X55835000Y-126695714D01*
X55906428Y-126767142D01*
X55835000Y-126838571D01*
X55763571Y-126767142D01*
X55906428Y-126767142D01*
X56263571Y-127481428D02*
X57763571Y-127481428D01*
X56335000Y-127481428D02*
X56263571Y-127624285D01*
X56263571Y-127910000D01*
X56335000Y-128052857D01*
X56406428Y-128124285D01*
X56549285Y-128195714D01*
X56977857Y-128195714D01*
X57120714Y-128124285D01*
X57192142Y-128052857D01*
X57263571Y-127910000D01*
X57263571Y-127624285D01*
X57192142Y-127481428D01*
X57192142Y-128767142D02*
X57263571Y-128910000D01*
X57263571Y-129195714D01*
X57192142Y-129338571D01*
X57049285Y-129410000D01*
X56977857Y-129410000D01*
X56835000Y-129338571D01*
X56763571Y-129195714D01*
X56763571Y-128981428D01*
X56692142Y-128838571D01*
X56549285Y-128767142D01*
X56477857Y-128767142D01*
X56335000Y-128838571D01*
X56263571Y-128981428D01*
X56263571Y-129195714D01*
X56335000Y-129338571D01*
X57263571Y-130052857D02*
X55763571Y-130052857D01*
X56692142Y-130195714D02*
X57263571Y-130624285D01*
X56263571Y-130624285D02*
X56835000Y-130052857D01*
X57192142Y-131838571D02*
X57263571Y-131695714D01*
X57263571Y-131410000D01*
X57192142Y-131267142D01*
X57049285Y-131195714D01*
X56477857Y-131195714D01*
X56335000Y-131267142D01*
X56263571Y-131410000D01*
X56263571Y-131695714D01*
X56335000Y-131838571D01*
X56477857Y-131910000D01*
X56620714Y-131910000D01*
X56763571Y-131195714D01*
X56263571Y-132552857D02*
X57263571Y-132552857D01*
X56406428Y-132552857D02*
X56335000Y-132624285D01*
X56263571Y-132767142D01*
X56263571Y-132981428D01*
X56335000Y-133124285D01*
X56477857Y-133195714D01*
X57263571Y-133195714D01*
X56263571Y-133910000D02*
X57263571Y-133910000D01*
X56406428Y-133910000D02*
X56335000Y-133981428D01*
X56263571Y-134124285D01*
X56263571Y-134338571D01*
X56335000Y-134481428D01*
X56477857Y-134552857D01*
X57263571Y-134552857D01*
X59813571Y-116695714D02*
X59813571Y-115981428D01*
X58313571Y-115981428D01*
X58313571Y-118124285D02*
X58313571Y-118981428D01*
X59813571Y-118552857D02*
X58313571Y-118552857D01*
X59813571Y-119695714D02*
X59742142Y-119552857D01*
X59670714Y-119481428D01*
X59527857Y-119410000D01*
X59099285Y-119410000D01*
X58956428Y-119481428D01*
X58885000Y-119552857D01*
X58813571Y-119695714D01*
X58813571Y-119910000D01*
X58885000Y-120052857D01*
X58956428Y-120124285D01*
X59099285Y-120195714D01*
X59527857Y-120195714D01*
X59670714Y-120124285D01*
X59742142Y-120052857D01*
X59813571Y-119910000D01*
X59813571Y-119695714D01*
X58813571Y-120838571D02*
X60313571Y-120838571D01*
X58885000Y-120838571D02*
X58813571Y-120981428D01*
X58813571Y-121267142D01*
X58885000Y-121410000D01*
X58956428Y-121481428D01*
X59099285Y-121552857D01*
X59527857Y-121552857D01*
X59670714Y-121481428D01*
X59742142Y-121410000D01*
X59813571Y-121267142D01*
X59813571Y-120981428D01*
X59742142Y-120838571D01*
X59813571Y-122195714D02*
X58313571Y-122195714D01*
X58313571Y-122767142D01*
X58385000Y-122910000D01*
X58456428Y-122981428D01*
X58599285Y-123052857D01*
X58813571Y-123052857D01*
X58956428Y-122981428D01*
X59027857Y-122910000D01*
X59099285Y-122767142D01*
X59099285Y-122195714D01*
X59813571Y-123910000D02*
X59742142Y-123767142D01*
X59599285Y-123695714D01*
X58313571Y-123695714D01*
X59813571Y-125124285D02*
X59027857Y-125124285D01*
X58885000Y-125052857D01*
X58813571Y-124909999D01*
X58813571Y-124624285D01*
X58885000Y-124481428D01*
X59742142Y-125124285D02*
X59813571Y-124981428D01*
X59813571Y-124624285D01*
X59742142Y-124481428D01*
X59599285Y-124410000D01*
X59456428Y-124410000D01*
X59313571Y-124481428D01*
X59242142Y-124624285D01*
X59242142Y-124981428D01*
X59170714Y-125124285D01*
X58813571Y-125624285D02*
X58813571Y-126195714D01*
X58313571Y-125838571D02*
X59599285Y-125838571D01*
X59742142Y-125910000D01*
X59813571Y-126052857D01*
X59813571Y-126195714D01*
X59742142Y-127267142D02*
X59813571Y-127124285D01*
X59813571Y-126838571D01*
X59742142Y-126695714D01*
X59599285Y-126624285D01*
X59027857Y-126624285D01*
X58885000Y-126695714D01*
X58813571Y-126838571D01*
X58813571Y-127124285D01*
X58885000Y-127267142D01*
X59027857Y-127338571D01*
X59170714Y-127338571D01*
X59313571Y-126624285D01*
X58813571Y-128981428D02*
X59813571Y-129338571D01*
X58813571Y-129695714D01*
X59670714Y-130267142D02*
X59742142Y-130338571D01*
X59813571Y-130267142D01*
X59742142Y-130195714D01*
X59670714Y-130267142D01*
X59813571Y-130267142D01*
X58313571Y-131267142D02*
X58313571Y-131410000D01*
X58385000Y-131552857D01*
X58456428Y-131624285D01*
X58599285Y-131695714D01*
X58885000Y-131767142D01*
X59242142Y-131767142D01*
X59527857Y-131695714D01*
X59670714Y-131624285D01*
X59742142Y-131552857D01*
X59813571Y-131410000D01*
X59813571Y-131267142D01*
X59742142Y-131124285D01*
X59670714Y-131052857D01*
X59527857Y-130981428D01*
X59242142Y-130910000D01*
X58885000Y-130910000D01*
X58599285Y-130981428D01*
X58456428Y-131052857D01*
X58385000Y-131124285D01*
X58313571Y-131267142D01*
X59670714Y-132410000D02*
X59742142Y-132481428D01*
X59813571Y-132410000D01*
X59742142Y-132338571D01*
X59670714Y-132410000D01*
X59813571Y-132410000D01*
X58456428Y-133052857D02*
X58385000Y-133124285D01*
X58313571Y-133267142D01*
X58313571Y-133624285D01*
X58385000Y-133767142D01*
X58456428Y-133838571D01*
X58599285Y-133910000D01*
X58742142Y-133910000D01*
X58956428Y-133838571D01*
X59813571Y-132981428D01*
X59813571Y-133910000D01*
M02*
