%FSLAX45Y45*%
G04 Gerber Fmt 4.5, Leading zero omitted, Abs format (unit mm)*
G04 Created by KiCad (PCBNEW (5.1.5-0-10_14)) date 2020-05-14 05:05:33*
%MOMM*%
%LPD*%
G04 APERTURE LIST*
%TA.AperFunction,Profile*%
%ADD10C,0.050000*%
%TD*%
%ADD11C,0.200000*%
%ADD12C,0.300000*%
G04 APERTURE END LIST*
D10*
X16737605Y-14321440D02*
X16733158Y-14320494D01*
X16733158Y-14320494D02*
X16728966Y-14319633D01*
X16728966Y-14319633D02*
X16724638Y-14318773D01*
X16724638Y-14318773D02*
X16720043Y-14317894D01*
X16720043Y-14317894D02*
X16715704Y-14317096D01*
X16715704Y-14317096D02*
X16711229Y-14316305D01*
X16711229Y-14316305D02*
X16706749Y-14315546D01*
X16706749Y-14315546D02*
X16702264Y-14314818D01*
X16702264Y-14314818D02*
X16697510Y-14314081D01*
X16697510Y-14314081D02*
X16693147Y-14313438D01*
X16693147Y-14313438D02*
X16688384Y-14312770D01*
X16688384Y-14312770D02*
X16683616Y-14312137D01*
X16683616Y-14312137D02*
X16678976Y-14311556D01*
X16678976Y-14311556D02*
X16674465Y-14311024D01*
X16674465Y-14311024D02*
X16669951Y-14310525D01*
X16669951Y-14310525D02*
X16665266Y-14310040D01*
X16665266Y-14310040D02*
X16660646Y-14309596D01*
X16660646Y-14309596D02*
X16655988Y-14309182D01*
X16655988Y-14309182D02*
X16651128Y-14308787D01*
X16651128Y-14308787D02*
X16646265Y-14308429D01*
X16646265Y-14308429D02*
X16641066Y-14308087D01*
X16641066Y-14308087D02*
X16636264Y-14307810D01*
X16636264Y-14307810D02*
X16631460Y-14307568D01*
X16631460Y-14307568D02*
X16626654Y-14307362D01*
X16626654Y-14307362D02*
X16621713Y-14307188D01*
X16621713Y-14307188D02*
X16616502Y-14307047D01*
X16616502Y-14307047D02*
X16611291Y-14306948D01*
X16611291Y-14306948D02*
X16605810Y-14306890D01*
X16605810Y-14306890D02*
X16601800Y-14306877D01*
X20418828Y-15120609D02*
X20407627Y-15118177D01*
X20407627Y-15118177D02*
X20382490Y-15112719D01*
X20382490Y-15112719D02*
X20354166Y-15106570D01*
X20354166Y-15106570D02*
X20322759Y-15099751D01*
X20322759Y-15099751D02*
X20297152Y-15094192D01*
X20297152Y-15094192D02*
X20279234Y-15090302D01*
X20279234Y-15090302D02*
X20251113Y-15084197D01*
X20251113Y-15084197D02*
X20190389Y-15071014D01*
X20190389Y-15071014D02*
X20123132Y-15056412D01*
X20123132Y-15056412D02*
X20075420Y-15046054D01*
X20075420Y-15046054D02*
X19999750Y-15029627D01*
X19999750Y-15029627D02*
X19890843Y-15005984D01*
X19890843Y-15005984D02*
X19773993Y-14980616D01*
X19773993Y-14980616D02*
X19586386Y-14939888D01*
X19586386Y-14939888D02*
X19315060Y-14880986D01*
X19315060Y-14880986D02*
X18879643Y-14786461D01*
X18879643Y-14786461D02*
X18427503Y-14688306D01*
X18427503Y-14688306D02*
X18129421Y-14623595D01*
X18129421Y-14623595D02*
X17912548Y-14576514D01*
X17912548Y-14576514D02*
X17772287Y-14546065D01*
X17772287Y-14546065D02*
X17570047Y-14502160D01*
X17570047Y-14502160D02*
X17382439Y-14461432D01*
X17382439Y-14461432D02*
X17265589Y-14436064D01*
X17265589Y-14436064D02*
X17156683Y-14412421D01*
X17156683Y-14412421D02*
X17056556Y-14390684D01*
X17056556Y-14390684D02*
X16966044Y-14371035D01*
X16966044Y-14371035D02*
X16885984Y-14353654D01*
X16885984Y-14353654D02*
X16833674Y-14342297D01*
X16833674Y-14342297D02*
X16813807Y-14337984D01*
X16813807Y-14337984D02*
X16806146Y-14336320D01*
X16806146Y-14336320D02*
X16794989Y-14333898D01*
X16794989Y-14333898D02*
X16773942Y-14329329D01*
X16773942Y-14329329D02*
X16748806Y-14323872D01*
X16748806Y-14323872D02*
X16737605Y-14321440D01*
X5138475Y-2482034D02*
X5141005Y-2479559D01*
X5141005Y-2479559D02*
X5143606Y-2477125D01*
X5143606Y-2477125D02*
X5146372Y-2474653D01*
X5146372Y-2474653D02*
X5149094Y-2472329D01*
X5149094Y-2472329D02*
X5151983Y-2469974D01*
X5151983Y-2469974D02*
X5154811Y-2467774D01*
X5154811Y-2467774D02*
X5157759Y-2465587D01*
X5157759Y-2465587D02*
X5160714Y-2463498D01*
X5160714Y-2463498D02*
X5163763Y-2461444D01*
X5163763Y-2461444D02*
X5166854Y-2459464D01*
X5166854Y-2459464D02*
X5170041Y-2457525D01*
X5170041Y-2457525D02*
X5173375Y-2455602D01*
X5173375Y-2455602D02*
X5176807Y-2453734D01*
X5176807Y-2453734D02*
X5180117Y-2452032D01*
X5180117Y-2452032D02*
X5183576Y-2450356D01*
X5183576Y-2450356D02*
X5187128Y-2448740D01*
X5187128Y-2448740D02*
X5190662Y-2447234D01*
X5190662Y-2447234D02*
X5194345Y-2445770D01*
X5194345Y-2445770D02*
X5198006Y-2444417D01*
X5198006Y-2444417D02*
X5201845Y-2443106D01*
X5201845Y-2443106D02*
X5205835Y-2441858D01*
X5205835Y-2441858D02*
X5209888Y-2440706D01*
X5209888Y-2440706D02*
X5214211Y-2439602D01*
X5214211Y-2439602D02*
X5218448Y-2438644D01*
X5218448Y-2438644D02*
X5222775Y-2437790D01*
X5222775Y-2437790D02*
X5227130Y-2437054D01*
X5227130Y-2437054D02*
X5231755Y-2436407D01*
X5231755Y-2436407D02*
X5236406Y-2435894D01*
X5236406Y-2435894D02*
X5241142Y-2435513D01*
X5241142Y-2435513D02*
X5245930Y-2435271D01*
X5245930Y-2435271D02*
X5251047Y-2435172D01*
X5251047Y-2435172D02*
X5251607Y-2435171D01*
X5091612Y-2595174D02*
X5091693Y-2590086D01*
X5091693Y-2590086D02*
X5091921Y-2585234D01*
X5091921Y-2585234D02*
X5092281Y-2580556D01*
X5092281Y-2580556D02*
X5092765Y-2575993D01*
X5092765Y-2575993D02*
X5093361Y-2571577D01*
X5093361Y-2571577D02*
X5094100Y-2567065D01*
X5094100Y-2567065D02*
X5094907Y-2562868D01*
X5094907Y-2562868D02*
X5095831Y-2558669D01*
X5095831Y-2558669D02*
X5096833Y-2554634D01*
X5096833Y-2554634D02*
X5097954Y-2550571D01*
X5097954Y-2550571D02*
X5099145Y-2546658D01*
X5099145Y-2546658D02*
X5100434Y-2542778D01*
X5100434Y-2542778D02*
X5101800Y-2538992D01*
X5101800Y-2538992D02*
X5103283Y-2535185D01*
X5103283Y-2535185D02*
X5104766Y-2531641D01*
X5104766Y-2531641D02*
X5106565Y-2527635D01*
X5106565Y-2527635D02*
X5108283Y-2524062D01*
X5108283Y-2524062D02*
X5109975Y-2520747D01*
X5109975Y-2520747D02*
X5111842Y-2517296D01*
X5111842Y-2517296D02*
X5113748Y-2513970D01*
X5113748Y-2513970D02*
X5115678Y-2510778D01*
X5115678Y-2510778D02*
X5117634Y-2507707D01*
X5117634Y-2507707D02*
X5119765Y-2504526D01*
X5119765Y-2504526D02*
X5121938Y-2501443D01*
X5121938Y-2501443D02*
X5124066Y-2498567D01*
X5124066Y-2498567D02*
X5126261Y-2495735D01*
X5126261Y-2495735D02*
X5128533Y-2492938D01*
X5128533Y-2492938D02*
X5130891Y-2490164D01*
X5130891Y-2490164D02*
X5133378Y-2487371D01*
X5133378Y-2487371D02*
X5135915Y-2484654D01*
X5135915Y-2484654D02*
X5138387Y-2482122D01*
X5138387Y-2482122D02*
X5138475Y-2482034D01*
X5091612Y-14146857D02*
X5091612Y-2595174D01*
X5138475Y-14259972D02*
X5135936Y-14257377D01*
X5135936Y-14257377D02*
X5133493Y-14254765D01*
X5133493Y-14254765D02*
X5131094Y-14252081D01*
X5131094Y-14252081D02*
X5128750Y-14249338D01*
X5128750Y-14249338D02*
X5126491Y-14246570D01*
X5126491Y-14246570D02*
X5124215Y-14243647D01*
X5124215Y-14243647D02*
X5122082Y-14240775D01*
X5122082Y-14240775D02*
X5119800Y-14237545D01*
X5119800Y-14237545D02*
X5117651Y-14234340D01*
X5117651Y-14234340D02*
X5115646Y-14231192D01*
X5115646Y-14231192D02*
X5113717Y-14228000D01*
X5113717Y-14228000D02*
X5111835Y-14224714D01*
X5111835Y-14224714D02*
X5110025Y-14221372D01*
X5110025Y-14221372D02*
X5108310Y-14218017D01*
X5108310Y-14218017D02*
X5106590Y-14214444D01*
X5106590Y-14214444D02*
X5104887Y-14210663D01*
X5104887Y-14210663D02*
X5103398Y-14207122D01*
X5103398Y-14207122D02*
X5101950Y-14203432D01*
X5101950Y-14203432D02*
X5100614Y-14199764D01*
X5100614Y-14199764D02*
X5099321Y-14195919D01*
X5099321Y-14195919D02*
X5098005Y-14191629D01*
X5098005Y-14191629D02*
X5096914Y-14187701D01*
X5096914Y-14187701D02*
X5095880Y-14183564D01*
X5095880Y-14183564D02*
X5094972Y-14179471D01*
X5094972Y-14179471D02*
X5094143Y-14175201D01*
X5094143Y-14175201D02*
X5093429Y-14170904D01*
X5093429Y-14170904D02*
X5092787Y-14166215D01*
X5092787Y-14166215D02*
X5092295Y-14161624D01*
X5092295Y-14161624D02*
X5091925Y-14156856D01*
X5091925Y-14156856D02*
X5091693Y-14151943D01*
X5091693Y-14151943D02*
X5091612Y-14146981D01*
X5091612Y-14146981D02*
X5091612Y-14146857D01*
X5251607Y-14306877D02*
X5246519Y-14306796D01*
X5246519Y-14306796D02*
X5241635Y-14306566D01*
X5241635Y-14306566D02*
X5236958Y-14306206D01*
X5236958Y-14306206D02*
X5232427Y-14305724D01*
X5232427Y-14305724D02*
X5228010Y-14305129D01*
X5228010Y-14305129D02*
X5223499Y-14304390D01*
X5223499Y-14304390D02*
X5218927Y-14303505D01*
X5218927Y-14303505D02*
X5214835Y-14302595D01*
X5214835Y-14302595D02*
X5210758Y-14301575D01*
X5210758Y-14301575D02*
X5206830Y-14300484D01*
X5206830Y-14300484D02*
X5202686Y-14299214D01*
X5202686Y-14299214D02*
X5198926Y-14297954D01*
X5198926Y-14297954D02*
X5195257Y-14296624D01*
X5195257Y-14296624D02*
X5191395Y-14295112D01*
X5191395Y-14295112D02*
X5187854Y-14293623D01*
X5187854Y-14293623D02*
X5184239Y-14291998D01*
X5184239Y-14291998D02*
X5180718Y-14290310D01*
X5180718Y-14290310D02*
X5177239Y-14288536D01*
X5177239Y-14288536D02*
X5173962Y-14286765D01*
X5173962Y-14286765D02*
X5170620Y-14284855D01*
X5170620Y-14284855D02*
X5167322Y-14282864D01*
X5167322Y-14282864D02*
X5164224Y-14280892D01*
X5164224Y-14280892D02*
X5161168Y-14278847D01*
X5161168Y-14278847D02*
X5158157Y-14276730D01*
X5158157Y-14276730D02*
X5155191Y-14274541D01*
X5155191Y-14274541D02*
X5152260Y-14272270D01*
X5152260Y-14272270D02*
X5149426Y-14269969D01*
X5149426Y-14269969D02*
X5146721Y-14267669D01*
X5146721Y-14267669D02*
X5144018Y-14265264D01*
X5144018Y-14265264D02*
X5141364Y-14262793D01*
X5141364Y-14262793D02*
X5138717Y-14260214D01*
X5138717Y-14260214D02*
X5138475Y-14259972D01*
X16601800Y-14306877D02*
X5251607Y-14306877D01*
X22480291Y-2453917D02*
X22482757Y-2456520D01*
X22482757Y-2456520D02*
X22485097Y-2459287D01*
X22485097Y-2459287D02*
X22487326Y-2462250D01*
X22487326Y-2462250D02*
X22489338Y-2465269D01*
X22489338Y-2465269D02*
X22491196Y-2468433D01*
X22491196Y-2468433D02*
X22492908Y-2471782D01*
X22492908Y-2471782D02*
X22494436Y-2475261D01*
X22494436Y-2475261D02*
X22495789Y-2478929D01*
X22495789Y-2478929D02*
X22496947Y-2482789D01*
X22496947Y-2482789D02*
X22497889Y-2486867D01*
X22497889Y-2486867D02*
X22498591Y-2491230D01*
X22498591Y-2491230D02*
X22499001Y-2495848D01*
X22499001Y-2495848D02*
X22499087Y-2499171D01*
X22435079Y-2435171D02*
X22439931Y-2435356D01*
X22439931Y-2435356D02*
X22444461Y-2435865D01*
X22444461Y-2435865D02*
X22448841Y-2436674D01*
X22448841Y-2436674D02*
X22452931Y-2437721D01*
X22452931Y-2437721D02*
X22456755Y-2438967D01*
X22456755Y-2438967D02*
X22460391Y-2440407D01*
X22460391Y-2440407D02*
X22463912Y-2442056D01*
X22463912Y-2442056D02*
X22467257Y-2443876D01*
X22467257Y-2443876D02*
X22470475Y-2445882D01*
X22470475Y-2445882D02*
X22473440Y-2447978D01*
X22473440Y-2447978D02*
X22476388Y-2450327D01*
X22476388Y-2450327D02*
X22479044Y-2452704D01*
X22479044Y-2452704D02*
X22480291Y-2453917D01*
X22435079Y-15135171D02*
X20554633Y-15135171D01*
X21999046Y-14738254D02*
X21999164Y-14733357D01*
X21999164Y-14733357D02*
X21999524Y-14728441D01*
X21999524Y-14728441D02*
X22000073Y-14723904D01*
X22000073Y-14723904D02*
X22000802Y-14719545D01*
X22000802Y-14719545D02*
X22001700Y-14715327D01*
X22001700Y-14715327D02*
X22002743Y-14711288D01*
X22002743Y-14711288D02*
X22003936Y-14707352D01*
X22003936Y-14707352D02*
X22005259Y-14703557D01*
X22005259Y-14703557D02*
X22006773Y-14699728D01*
X22006773Y-14699728D02*
X22008310Y-14696252D01*
X22008310Y-14696252D02*
X22009974Y-14692846D01*
X22009974Y-14692846D02*
X22011771Y-14689498D01*
X22011771Y-14689498D02*
X22013671Y-14686258D01*
X22013671Y-14686258D02*
X22015698Y-14683082D01*
X22015698Y-14683082D02*
X22017752Y-14680110D01*
X22017752Y-14680110D02*
X22019932Y-14677187D01*
X22019932Y-14677187D02*
X22022263Y-14674289D01*
X22022263Y-14674289D02*
X22024623Y-14671565D01*
X22024623Y-14671565D02*
X22027182Y-14668819D01*
X22027182Y-14668819D02*
X22029950Y-14666067D01*
X22029950Y-14666067D02*
X22032795Y-14663448D01*
X22032795Y-14663448D02*
X22035565Y-14661082D01*
X22035565Y-14661082D02*
X22038511Y-14658747D01*
X22038511Y-14658747D02*
X22041453Y-14656587D01*
X22041453Y-14656587D02*
X22044632Y-14654430D01*
X22044632Y-14654430D02*
X22047735Y-14652489D01*
X22047735Y-14652489D02*
X22051012Y-14650606D01*
X22051012Y-14650606D02*
X22054365Y-14648844D01*
X22054365Y-14648844D02*
X22057792Y-14647206D01*
X22057792Y-14647206D02*
X22061288Y-14645695D01*
X22061288Y-14645695D02*
X22064942Y-14644282D01*
X22064942Y-14644282D02*
X22068772Y-14642975D01*
X22068772Y-14642975D02*
X22072652Y-14641824D01*
X22072652Y-14641824D02*
X22076709Y-14640802D01*
X22076709Y-14640802D02*
X22080945Y-14639925D01*
X22080945Y-14639925D02*
X22085595Y-14639180D01*
X22085595Y-14639180D02*
X22090314Y-14638652D01*
X22090314Y-14638652D02*
X22095257Y-14638339D01*
X22095257Y-14638339D02*
X22099207Y-14638263D01*
X22099207Y-14838330D02*
X22094135Y-14838204D01*
X22094135Y-14838204D02*
X22089405Y-14837856D01*
X22089405Y-14837856D02*
X22084913Y-14837318D01*
X22084913Y-14837318D02*
X22080484Y-14836583D01*
X22080484Y-14836583D02*
X22076331Y-14835706D01*
X22076331Y-14835706D02*
X22072336Y-14834686D01*
X22072336Y-14834686D02*
X22068333Y-14833483D01*
X22068333Y-14833483D02*
X22064564Y-14832180D01*
X22064564Y-14832180D02*
X22060900Y-14830747D01*
X22060900Y-14830747D02*
X22057239Y-14829144D01*
X22057239Y-14829144D02*
X22053824Y-14827488D01*
X22053824Y-14827488D02*
X22050400Y-14825661D01*
X22050400Y-14825661D02*
X22047218Y-14823806D01*
X22047218Y-14823806D02*
X22043908Y-14821703D01*
X22043908Y-14821703D02*
X22040839Y-14819587D01*
X22040839Y-14819587D02*
X22037915Y-14817406D01*
X22037915Y-14817406D02*
X22035016Y-14815075D01*
X22035016Y-14815075D02*
X22032263Y-14812690D01*
X22032263Y-14812690D02*
X22029625Y-14810234D01*
X22029625Y-14810234D02*
X22027078Y-14807686D01*
X22027078Y-14807686D02*
X22024623Y-14805048D01*
X22024623Y-14805048D02*
X22022287Y-14802351D01*
X22022287Y-14802351D02*
X22020024Y-14799543D01*
X22020024Y-14799543D02*
X22017829Y-14796606D01*
X22017829Y-14796606D02*
X22015782Y-14793652D01*
X22015782Y-14793652D02*
X22013750Y-14790476D01*
X22013750Y-14790476D02*
X22011892Y-14787319D01*
X22011892Y-14787319D02*
X22010113Y-14784023D01*
X22010113Y-14784023D02*
X22008439Y-14780619D01*
X22008439Y-14780619D02*
X22006773Y-14776864D01*
X22006773Y-14776864D02*
X22005312Y-14773172D01*
X22005312Y-14773172D02*
X22003996Y-14769410D01*
X22003996Y-14769410D02*
X22002816Y-14765545D01*
X22002816Y-14765545D02*
X22001781Y-14761577D01*
X22001781Y-14761577D02*
X22000883Y-14757433D01*
X22000883Y-14757433D02*
X22000142Y-14753109D01*
X22000142Y-14753109D02*
X21999571Y-14748567D01*
X21999571Y-14748567D02*
X21999189Y-14743645D01*
X21999189Y-14743645D02*
X21999047Y-14738658D01*
X21999047Y-14738658D02*
X21999046Y-14738254D01*
X5251607Y-2435171D02*
X22435079Y-2435171D01*
X22499087Y-2499171D02*
X22499087Y-5227283D01*
X22499087Y-5227283D02*
X22499087Y-5227283D01*
X22199029Y-14738254D02*
X22198908Y-14743205D01*
X22198908Y-14743205D02*
X22198567Y-14747936D01*
X22198567Y-14747936D02*
X22198030Y-14752448D01*
X22198030Y-14752448D02*
X22197232Y-14757241D01*
X22197232Y-14757241D02*
X22196344Y-14761389D01*
X22196344Y-14761389D02*
X22195297Y-14765434D01*
X22195297Y-14765434D02*
X22194124Y-14769301D01*
X22194124Y-14769301D02*
X22192828Y-14773029D01*
X22192828Y-14773029D02*
X22191318Y-14776864D01*
X22191318Y-14776864D02*
X22189736Y-14780447D01*
X22189736Y-14780447D02*
X22188056Y-14783888D01*
X22188056Y-14783888D02*
X22186295Y-14787171D01*
X22186295Y-14787171D02*
X22184437Y-14790347D01*
X22184437Y-14790347D02*
X22182415Y-14793526D01*
X22182415Y-14793526D02*
X22180367Y-14796500D01*
X22180367Y-14796500D02*
X22178123Y-14799513D01*
X22178123Y-14799513D02*
X22175868Y-14802323D01*
X22175868Y-14802323D02*
X22173452Y-14805118D01*
X22173452Y-14805118D02*
X22170988Y-14807767D01*
X22170988Y-14807767D02*
X22168419Y-14810338D01*
X22168419Y-14810338D02*
X22165786Y-14812790D01*
X22165786Y-14812790D02*
X22163066Y-14815147D01*
X22163066Y-14815147D02*
X22160247Y-14817417D01*
X22160247Y-14817417D02*
X22157347Y-14819587D01*
X22157347Y-14819587D02*
X22154383Y-14821641D01*
X22154383Y-14821641D02*
X22151246Y-14823649D01*
X22151246Y-14823649D02*
X22148097Y-14825504D01*
X22148097Y-14825504D02*
X22144809Y-14827281D01*
X22144809Y-14827281D02*
X22141278Y-14829016D01*
X22141278Y-14829016D02*
X22137811Y-14830556D01*
X22137811Y-14830556D02*
X22134133Y-14832020D01*
X22134133Y-14832020D02*
X22130387Y-14833340D01*
X22130387Y-14833340D02*
X22126426Y-14834555D01*
X22126426Y-14834555D02*
X22122397Y-14835608D01*
X22122397Y-14835608D02*
X22118191Y-14836517D01*
X22118191Y-14836517D02*
X22113844Y-14837258D01*
X22113844Y-14837258D02*
X22109358Y-14837817D01*
X22109358Y-14837817D02*
X22104613Y-14838185D01*
X22104613Y-14838185D02*
X22099650Y-14838329D01*
X22099650Y-14838329D02*
X22099207Y-14838330D01*
X22099207Y-14638263D02*
X22104096Y-14638381D01*
X22104096Y-14638381D02*
X22108846Y-14638725D01*
X22108846Y-14638725D02*
X22113340Y-14639262D01*
X22113340Y-14639262D02*
X22117713Y-14639986D01*
X22117713Y-14639986D02*
X22121908Y-14640872D01*
X22121908Y-14640872D02*
X22126222Y-14641984D01*
X22126222Y-14641984D02*
X22130096Y-14643163D01*
X22130096Y-14643163D02*
X22133848Y-14644474D01*
X22133848Y-14644474D02*
X22137530Y-14645928D01*
X22137530Y-14645928D02*
X22141003Y-14647459D01*
X22141003Y-14647459D02*
X22144372Y-14649100D01*
X22144372Y-14649100D02*
X22147736Y-14650899D01*
X22147736Y-14650899D02*
X22150989Y-14652802D01*
X22150989Y-14652802D02*
X22154163Y-14654823D01*
X22154163Y-14654823D02*
X22157255Y-14656958D01*
X22157255Y-14656958D02*
X22160144Y-14659113D01*
X22160144Y-14659113D02*
X22163181Y-14661561D01*
X22163181Y-14661561D02*
X22165897Y-14663923D01*
X22165897Y-14663923D02*
X22168500Y-14666353D01*
X22168500Y-14666353D02*
X22171274Y-14669144D01*
X22171274Y-14669144D02*
X22173689Y-14671760D01*
X22173689Y-14671760D02*
X22176059Y-14674520D01*
X22176059Y-14674520D02*
X22178284Y-14677306D01*
X22178284Y-14677306D02*
X22180541Y-14680355D01*
X22180541Y-14680355D02*
X22182602Y-14683364D01*
X22182602Y-14683364D02*
X22184594Y-14686516D01*
X22184594Y-14686516D02*
X22186433Y-14689679D01*
X22186433Y-14689679D02*
X22188193Y-14692981D01*
X22188193Y-14692981D02*
X22189959Y-14696631D01*
X22189959Y-14696631D02*
X22191551Y-14700290D01*
X22191551Y-14700290D02*
X22192987Y-14703987D01*
X22192987Y-14703987D02*
X22194360Y-14708009D01*
X22194360Y-14708009D02*
X22195503Y-14711882D01*
X22195503Y-14711882D02*
X22196519Y-14715931D01*
X22196519Y-14715931D02*
X22197386Y-14720139D01*
X22197386Y-14720139D02*
X22198091Y-14724526D01*
X22198091Y-14724526D02*
X22198611Y-14729072D01*
X22198611Y-14729072D02*
X22198932Y-14733836D01*
X22198932Y-14733836D02*
X22199029Y-14738254D01*
X5491789Y-13806836D02*
X5496713Y-13806956D01*
X5496713Y-13806956D02*
X5501380Y-13807294D01*
X5501380Y-13807294D02*
X5506122Y-13807864D01*
X5506122Y-13807864D02*
X5510452Y-13808589D01*
X5510452Y-13808589D02*
X5514754Y-13809507D01*
X5514754Y-13809507D02*
X5518839Y-13810567D01*
X5518839Y-13810567D02*
X5522801Y-13811776D01*
X5522801Y-13811776D02*
X5526549Y-13813091D01*
X5526549Y-13813091D02*
X5530193Y-13814534D01*
X5530193Y-13814534D02*
X5533835Y-13816147D01*
X5533835Y-13816147D02*
X5537232Y-13817813D01*
X5537232Y-13817813D02*
X5540555Y-13819602D01*
X5540555Y-13819602D02*
X5543770Y-13821493D01*
X5543770Y-13821493D02*
X5546845Y-13823457D01*
X5546845Y-13823457D02*
X5549843Y-13825530D01*
X5549843Y-13825530D02*
X5552820Y-13827753D01*
X5552820Y-13827753D02*
X5555624Y-13830011D01*
X5555624Y-13830011D02*
X5558344Y-13832367D01*
X5558344Y-13832367D02*
X5561302Y-13835130D01*
X5561302Y-13835130D02*
X5563835Y-13837684D01*
X5563835Y-13837684D02*
X5566276Y-13840328D01*
X5566276Y-13840328D02*
X5568623Y-13843058D01*
X5568623Y-13843058D02*
X5570848Y-13845843D01*
X5570848Y-13845843D02*
X5573020Y-13848769D01*
X5573020Y-13848769D02*
X5575076Y-13851759D01*
X5575076Y-13851759D02*
X5577084Y-13854923D01*
X5577084Y-13854923D02*
X5578929Y-13858083D01*
X5578929Y-13858083D02*
X5580696Y-13861382D01*
X5580696Y-13861382D02*
X5582357Y-13864788D01*
X5582357Y-13864788D02*
X5583936Y-13868371D01*
X5583936Y-13868371D02*
X5585404Y-13872096D01*
X5585404Y-13872096D02*
X5586713Y-13875856D01*
X5586713Y-13875856D02*
X5587886Y-13879720D01*
X5587886Y-13879720D02*
X5588923Y-13883723D01*
X5588923Y-13883723D02*
X5589827Y-13887942D01*
X5589827Y-13887942D02*
X5590561Y-13892303D01*
X5590561Y-13892303D02*
X5591114Y-13896804D01*
X5591114Y-13896804D02*
X5591485Y-13901763D01*
X5591485Y-13901763D02*
X5591611Y-13906787D01*
X5591611Y-13906787D02*
X5591611Y-13906827D01*
X5391612Y-13906827D02*
X5391729Y-13901943D01*
X5391729Y-13901943D02*
X5392074Y-13897159D01*
X5392074Y-13897159D02*
X5392616Y-13892614D01*
X5392616Y-13892614D02*
X5393360Y-13888134D01*
X5393360Y-13888134D02*
X5394238Y-13883987D01*
X5394238Y-13883987D02*
X5395276Y-13879943D01*
X5395276Y-13879943D02*
X5396452Y-13876039D01*
X5396452Y-13876039D02*
X5397769Y-13872240D01*
X5397769Y-13872240D02*
X5399336Y-13868265D01*
X5399336Y-13868265D02*
X5400872Y-13864788D01*
X5400872Y-13864788D02*
X5402536Y-13861382D01*
X5402536Y-13861382D02*
X5404323Y-13858050D01*
X5404323Y-13858050D02*
X5406173Y-13854890D01*
X5406173Y-13854890D02*
X5408258Y-13851618D01*
X5408258Y-13851618D02*
X5410312Y-13848646D01*
X5410312Y-13848646D02*
X5412468Y-13845754D01*
X5412468Y-13845754D02*
X5414822Y-13842828D01*
X5414822Y-13842828D02*
X5417182Y-13840104D01*
X5417182Y-13840104D02*
X5419610Y-13837495D01*
X5419610Y-13837495D02*
X5422184Y-13834921D01*
X5422184Y-13834921D02*
X5424821Y-13832467D01*
X5424821Y-13832467D02*
X5427516Y-13830131D01*
X5427516Y-13830131D02*
X5430681Y-13827592D01*
X5430681Y-13827592D02*
X5433858Y-13825246D01*
X5433858Y-13825246D02*
X5436844Y-13823209D01*
X5436844Y-13823209D02*
X5440133Y-13821141D01*
X5440133Y-13821141D02*
X5443440Y-13819235D01*
X5443440Y-13819235D02*
X5446756Y-13817487D01*
X5446756Y-13817487D02*
X5450215Y-13815829D01*
X5450215Y-13815829D02*
X5453851Y-13814257D01*
X5453851Y-13814257D02*
X5457559Y-13812827D01*
X5457559Y-13812827D02*
X5461337Y-13811540D01*
X5461337Y-13811540D02*
X5465331Y-13810361D01*
X5465331Y-13810361D02*
X5469354Y-13809354D01*
X5469354Y-13809354D02*
X5473554Y-13808489D01*
X5473554Y-13808489D02*
X5478169Y-13807752D01*
X5478169Y-13807752D02*
X5482692Y-13807242D01*
X5482692Y-13807242D02*
X5487415Y-13806929D01*
X5487415Y-13806929D02*
X5491789Y-13806836D01*
X5491789Y-14006903D02*
X5486874Y-14006785D01*
X5486874Y-14006785D02*
X5482099Y-14006441D01*
X5482099Y-14006441D02*
X5477544Y-14005899D01*
X5477544Y-14005899D02*
X5473247Y-14005193D01*
X5473247Y-14005193D02*
X5469089Y-14004324D01*
X5469089Y-14004324D02*
X5464939Y-14003269D01*
X5464939Y-14003269D02*
X5460880Y-14002050D01*
X5460880Y-14002050D02*
X5457128Y-14000753D01*
X5457128Y-14000753D02*
X5453462Y-13999320D01*
X5453462Y-13999320D02*
X5449938Y-13997781D01*
X5449938Y-13997781D02*
X5446520Y-13996130D01*
X5446520Y-13996130D02*
X5442960Y-13994235D01*
X5442960Y-13994235D02*
X5439777Y-13992379D01*
X5439777Y-13992379D02*
X5436592Y-13990360D01*
X5436592Y-13990360D02*
X5433581Y-13988291D01*
X5433581Y-13988291D02*
X5430592Y-13986071D01*
X5430592Y-13986071D02*
X5427776Y-13983816D01*
X5427776Y-13983816D02*
X5424960Y-13981388D01*
X5424960Y-13981388D02*
X5422332Y-13978950D01*
X5422332Y-13978950D02*
X5419819Y-13976448D01*
X5419819Y-13976448D02*
X5417307Y-13973761D01*
X5417307Y-13973761D02*
X5414906Y-13970997D01*
X5414906Y-13970997D02*
X5412653Y-13968205D01*
X5412653Y-13968205D02*
X5410509Y-13965348D01*
X5410509Y-13965348D02*
X5408258Y-13962099D01*
X5408258Y-13962099D02*
X5406251Y-13958953D01*
X5406251Y-13958953D02*
X5404277Y-13955580D01*
X5404277Y-13955580D02*
X5402467Y-13952192D01*
X5402467Y-13952192D02*
X5400681Y-13948503D01*
X5400681Y-13948503D02*
X5399160Y-13945015D01*
X5399160Y-13945015D02*
X5397730Y-13941351D01*
X5397730Y-13941351D02*
X5396417Y-13937545D01*
X5396417Y-13937545D02*
X5395260Y-13933691D01*
X5395260Y-13933691D02*
X5394229Y-13929660D01*
X5394229Y-13929660D02*
X5393353Y-13925508D01*
X5393353Y-13925508D02*
X5392639Y-13921216D01*
X5392639Y-13921216D02*
X5392093Y-13916707D01*
X5392093Y-13916707D02*
X5391738Y-13911898D01*
X5391738Y-13911898D02*
X5391612Y-13906827D01*
X14362113Y-14006903D02*
X14357194Y-14006785D01*
X14357194Y-14006785D02*
X14352515Y-14006450D01*
X14352515Y-14006450D02*
X14347976Y-14005916D01*
X14347976Y-14005916D02*
X14343675Y-14005214D01*
X14343675Y-14005214D02*
X14339286Y-14004297D01*
X14339286Y-14004297D02*
X14335249Y-14003269D01*
X14335249Y-14003269D02*
X14331189Y-14002050D01*
X14331189Y-14002050D02*
X14327436Y-14000753D01*
X14327436Y-14000753D02*
X14323771Y-13999320D01*
X14323771Y-13999320D02*
X14320246Y-13997781D01*
X14320246Y-13997781D02*
X14316828Y-13996130D01*
X14316828Y-13996130D02*
X14313268Y-13994235D01*
X14313268Y-13994235D02*
X14310087Y-13992379D01*
X14310087Y-13992379D02*
X14306808Y-13990297D01*
X14306808Y-13990297D02*
X14303678Y-13988138D01*
X14303678Y-13988138D02*
X14300785Y-13985979D01*
X14300785Y-13985979D02*
X14297887Y-13983648D01*
X14297887Y-13983648D02*
X14295135Y-13981263D01*
X14295135Y-13981263D02*
X14292499Y-13978807D01*
X14292499Y-13978807D02*
X14289979Y-13976286D01*
X14289979Y-13976286D02*
X14287500Y-13973621D01*
X14287500Y-13973621D02*
X14285142Y-13970896D01*
X14285142Y-13970896D02*
X14282904Y-13968116D01*
X14282904Y-13968116D02*
X14280722Y-13965195D01*
X14280722Y-13965195D02*
X14278582Y-13962099D01*
X14278582Y-13962099D02*
X14276577Y-13958953D01*
X14276577Y-13958953D02*
X14274724Y-13955794D01*
X14274724Y-13955794D02*
X14272934Y-13952461D01*
X14272934Y-13952461D02*
X14271282Y-13949089D01*
X14271282Y-13949089D02*
X14269726Y-13945578D01*
X14269726Y-13945578D02*
X14268295Y-13941978D01*
X14268295Y-13941978D02*
X14266990Y-13938276D01*
X14266990Y-13938276D02*
X14265800Y-13934415D01*
X14265800Y-13934415D02*
X14264755Y-13930452D01*
X14264755Y-13930452D02*
X14263846Y-13926312D01*
X14263846Y-13926312D02*
X14263099Y-13922033D01*
X14263099Y-13922033D02*
X14262522Y-13917574D01*
X14262522Y-13917574D02*
X14262130Y-13912857D01*
X14262130Y-13912857D02*
X14261958Y-13907919D01*
X14261958Y-13907919D02*
X14261952Y-13906827D01*
X22099207Y-14838330D02*
X22099207Y-14838330D01*
X5591611Y-13906827D02*
X5591491Y-13911778D01*
X5591491Y-13911778D02*
X5591149Y-13916509D01*
X5591149Y-13916509D02*
X5590612Y-13921021D01*
X5590612Y-13921021D02*
X5589834Y-13925699D01*
X5589834Y-13925699D02*
X5588896Y-13930075D01*
X5588896Y-13930075D02*
X5587844Y-13934118D01*
X5587844Y-13934118D02*
X5586582Y-13938239D01*
X5586582Y-13938239D02*
X5585257Y-13941996D01*
X5585257Y-13941996D02*
X5583833Y-13945578D01*
X5583833Y-13945578D02*
X5582277Y-13949089D01*
X5582277Y-13949089D02*
X5580436Y-13952832D01*
X5580436Y-13952832D02*
X5578614Y-13956189D01*
X5578614Y-13956189D02*
X5576689Y-13959435D01*
X5576689Y-13959435D02*
X5574648Y-13962601D01*
X5574648Y-13962601D02*
X5572404Y-13965804D01*
X5572404Y-13965804D02*
X5570063Y-13968885D01*
X5570063Y-13968885D02*
X5567754Y-13971700D01*
X5567754Y-13971700D02*
X5565359Y-13974413D01*
X5565359Y-13974413D02*
X5562922Y-13976985D01*
X5562922Y-13976985D02*
X5560328Y-13979533D01*
X5560328Y-13979533D02*
X5557672Y-13981962D01*
X5557672Y-13981962D02*
X5554698Y-13984484D01*
X5554698Y-13984484D02*
X5551867Y-13986710D01*
X5551867Y-13986710D02*
X5548955Y-13988835D01*
X5548955Y-13988835D02*
X5545871Y-13990916D01*
X5545871Y-13990916D02*
X5542383Y-13993077D01*
X5542383Y-13993077D02*
X5539152Y-13994909D01*
X5539152Y-13994909D02*
X5535746Y-13996672D01*
X5535746Y-13996672D02*
X5531902Y-13998468D01*
X5531902Y-13998468D02*
X5528309Y-13999970D01*
X5528309Y-13999970D02*
X5524647Y-14001335D01*
X5524647Y-14001335D02*
X5520755Y-14002608D01*
X5520755Y-14002608D02*
X5516759Y-14003734D01*
X5516759Y-14003734D02*
X5512678Y-14004699D01*
X5512678Y-14004699D02*
X5508420Y-14005514D01*
X5508420Y-14005514D02*
X5503965Y-14006162D01*
X5503965Y-14006162D02*
X5499410Y-14006614D01*
X5499410Y-14006614D02*
X5494438Y-14006868D01*
X5494438Y-14006868D02*
X5491789Y-14006903D01*
X14461935Y-13906827D02*
X14461814Y-13911778D01*
X14461814Y-13911778D02*
X14461472Y-13916509D01*
X14461472Y-13916509D02*
X14460935Y-13921021D01*
X14460935Y-13921021D02*
X14460186Y-13925546D01*
X14460186Y-13925546D02*
X14459294Y-13929754D01*
X14459294Y-13929754D02*
X14458239Y-13933858D01*
X14458239Y-13933858D02*
X14457070Y-13937728D01*
X14457070Y-13937728D02*
X14455764Y-13941494D01*
X14455764Y-13941494D02*
X14454329Y-13945156D01*
X14454329Y-13945156D02*
X14452741Y-13948779D01*
X14452741Y-13948779D02*
X14451083Y-13952192D01*
X14451083Y-13952192D02*
X14449293Y-13955546D01*
X14449293Y-13955546D02*
X14447323Y-13958921D01*
X14447323Y-13958921D02*
X14445299Y-13962099D01*
X14445299Y-13962099D02*
X14443249Y-13965073D01*
X14443249Y-13965073D02*
X14441026Y-13968057D01*
X14441026Y-13968057D02*
X14438746Y-13970896D01*
X14438746Y-13970896D02*
X14436391Y-13973621D01*
X14436391Y-13973621D02*
X14433967Y-13976232D01*
X14433967Y-13976232D02*
X14431292Y-13978911D01*
X14431292Y-13978911D02*
X14428700Y-13981326D01*
X14428700Y-13981326D02*
X14425937Y-13983720D01*
X14425937Y-13983720D02*
X14423117Y-13985991D01*
X14423117Y-13985991D02*
X14420216Y-13988160D01*
X14420216Y-13988160D02*
X14417251Y-13990214D01*
X14417251Y-13990214D02*
X14414114Y-13992222D01*
X14414114Y-13992222D02*
X14410965Y-13994077D01*
X14410965Y-13994077D02*
X14407678Y-13995854D01*
X14407678Y-13995854D02*
X14404285Y-13997525D01*
X14404285Y-13997525D02*
X14400716Y-13999115D01*
X14400716Y-13999115D02*
X14397005Y-14000593D01*
X14397005Y-14000593D02*
X14393006Y-14001997D01*
X14393006Y-14001997D02*
X14389154Y-14003171D01*
X14389154Y-14003171D02*
X14384976Y-14004253D01*
X14384976Y-14004253D02*
X14380730Y-14005157D01*
X14380730Y-14005157D02*
X14376382Y-14005883D01*
X14376382Y-14005883D02*
X14371896Y-14006426D01*
X14371896Y-14006426D02*
X14367154Y-14006777D01*
X14367154Y-14006777D02*
X14362193Y-14006903D01*
X14362193Y-14006903D02*
X14362113Y-14006903D01*
X14362113Y-13806836D02*
X14366995Y-13806954D01*
X14366995Y-13806954D02*
X14371700Y-13807294D01*
X14371700Y-13807294D02*
X14376440Y-13807864D01*
X14376440Y-13807864D02*
X14380730Y-13808582D01*
X14380730Y-13808582D02*
X14385069Y-13809507D01*
X14385069Y-13809507D02*
X14389154Y-13810567D01*
X14389154Y-13810567D02*
X14393115Y-13811776D01*
X14393115Y-13811776D02*
X14396862Y-13813091D01*
X14396862Y-13813091D02*
X14400506Y-13814534D01*
X14400506Y-13814534D02*
X14404147Y-13816147D01*
X14404147Y-13816147D02*
X14407544Y-13817813D01*
X14407544Y-13817813D02*
X14410867Y-13819602D01*
X14410867Y-13819602D02*
X14414082Y-13821493D01*
X14414082Y-13821493D02*
X14417157Y-13823457D01*
X14417157Y-13823457D02*
X14420155Y-13825530D01*
X14420155Y-13825530D02*
X14423132Y-13827753D01*
X14423132Y-13827753D02*
X14425937Y-13830011D01*
X14425937Y-13830011D02*
X14428658Y-13832367D01*
X14428658Y-13832367D02*
X14431615Y-13835130D01*
X14431615Y-13835130D02*
X14434149Y-13837684D01*
X14434149Y-13837684D02*
X14436591Y-13840328D01*
X14436591Y-13840328D02*
X14438938Y-13843058D01*
X14438938Y-13843058D02*
X14441164Y-13845843D01*
X14441164Y-13845843D02*
X14443336Y-13848769D01*
X14443336Y-13848769D02*
X14445382Y-13851743D01*
X14445382Y-13851743D02*
X14447401Y-13854923D01*
X14447401Y-13854923D02*
X14449247Y-13858083D01*
X14449247Y-13858083D02*
X14451015Y-13861382D01*
X14451015Y-13861382D02*
X14452677Y-13864788D01*
X14452677Y-13864788D02*
X14454256Y-13868371D01*
X14454256Y-13868371D02*
X14455725Y-13872096D01*
X14455725Y-13872096D02*
X14457034Y-13875856D01*
X14457034Y-13875856D02*
X14458208Y-13879720D01*
X14458208Y-13879720D02*
X14459245Y-13883723D01*
X14459245Y-13883723D02*
X14460149Y-13887942D01*
X14460149Y-13887942D02*
X14460884Y-13892303D01*
X14460884Y-13892303D02*
X14461437Y-13896804D01*
X14461437Y-13896804D02*
X14461808Y-13901763D01*
X14461808Y-13901763D02*
X14461935Y-13906787D01*
X14461935Y-13906787D02*
X14461935Y-13906827D01*
X14261952Y-13906827D02*
X14262069Y-13901943D01*
X14262069Y-13901943D02*
X14262414Y-13897159D01*
X14262414Y-13897159D02*
X14262972Y-13892497D01*
X14262972Y-13892497D02*
X14263698Y-13888134D01*
X14263698Y-13888134D02*
X14264575Y-13883987D01*
X14264575Y-13883987D02*
X14265611Y-13879943D01*
X14265611Y-13879943D02*
X14266787Y-13876039D01*
X14266787Y-13876039D02*
X14268102Y-13872240D01*
X14268102Y-13872240D02*
X14269550Y-13868546D01*
X14269550Y-13868546D02*
X14271075Y-13865064D01*
X14271075Y-13865064D02*
X14272796Y-13861517D01*
X14272796Y-13861517D02*
X14274577Y-13858182D01*
X14274577Y-13858182D02*
X14276420Y-13855019D01*
X14276420Y-13855019D02*
X14278582Y-13851618D01*
X14278582Y-13851618D02*
X14280634Y-13848646D01*
X14280634Y-13848646D02*
X14282858Y-13845665D01*
X14282858Y-13845665D02*
X14285407Y-13842511D01*
X14285407Y-13842511D02*
X14287801Y-13839770D01*
X14287801Y-13839770D02*
X14290240Y-13837172D01*
X14290240Y-13837172D02*
X14292824Y-13834610D01*
X14292824Y-13834610D02*
X14295470Y-13832167D01*
X14295470Y-13832167D02*
X14298175Y-13829843D01*
X14298175Y-13829843D02*
X14301023Y-13827569D01*
X14301023Y-13827569D02*
X14304168Y-13825246D01*
X14304168Y-13825246D02*
X14307154Y-13823209D01*
X14307154Y-13823209D02*
X14310345Y-13821199D01*
X14310345Y-13821199D02*
X14313566Y-13819335D01*
X14313566Y-13819335D02*
X14316929Y-13817555D01*
X14316929Y-13817555D02*
X14320523Y-13815829D01*
X14320523Y-13815829D02*
X14324159Y-13814257D01*
X14324159Y-13814257D02*
X14327868Y-13812827D01*
X14327868Y-13812827D02*
X14331646Y-13811540D01*
X14331646Y-13811540D02*
X14335603Y-13810371D01*
X14335603Y-13810371D02*
X14339665Y-13809354D01*
X14339665Y-13809354D02*
X14343829Y-13808496D01*
X14343829Y-13808496D02*
X14348210Y-13807790D01*
X14348210Y-13807790D02*
X14352732Y-13807268D01*
X14352732Y-13807268D02*
X14357514Y-13806939D01*
X14357514Y-13806939D02*
X14362113Y-13806836D01*
X6506265Y-11579595D02*
X6501349Y-11579476D01*
X6501349Y-11579476D02*
X6496573Y-11579132D01*
X6496573Y-11579132D02*
X6492018Y-11578591D01*
X6492018Y-11578591D02*
X6487720Y-11577884D01*
X6487720Y-11577884D02*
X6483561Y-11577015D01*
X6483561Y-11577015D02*
X6479411Y-11575960D01*
X6479411Y-11575960D02*
X6475351Y-11574742D01*
X6475351Y-11574742D02*
X6471599Y-11573444D01*
X6471599Y-11573444D02*
X6467933Y-11572012D01*
X6467933Y-11572012D02*
X6464409Y-11570473D01*
X6464409Y-11570473D02*
X6460990Y-11568821D01*
X6460990Y-11568821D02*
X6457430Y-11566926D01*
X6457430Y-11566926D02*
X6454247Y-11565071D01*
X6454247Y-11565071D02*
X6451062Y-11563051D01*
X6451062Y-11563051D02*
X6448051Y-11560982D01*
X6448051Y-11560982D02*
X6445061Y-11558762D01*
X6445061Y-11558762D02*
X6442245Y-11556508D01*
X6442245Y-11556508D02*
X6439429Y-11554080D01*
X6439429Y-11554080D02*
X6436801Y-11551642D01*
X6436801Y-11551642D02*
X6434287Y-11549139D01*
X6434287Y-11549139D02*
X6431775Y-11546452D01*
X6431775Y-11546452D02*
X6429375Y-11543688D01*
X6429375Y-11543688D02*
X6427121Y-11540896D01*
X6427121Y-11540896D02*
X6424977Y-11538039D01*
X6424977Y-11538039D02*
X6422726Y-11534791D01*
X6422726Y-11534791D02*
X6420719Y-11531644D01*
X6420719Y-11531644D02*
X6418791Y-11528353D01*
X6418791Y-11528353D02*
X6417003Y-11525018D01*
X6417003Y-11525018D02*
X6415340Y-11521609D01*
X6415340Y-11521609D02*
X6413803Y-11518128D01*
X6413803Y-11518128D02*
X6412343Y-11514437D01*
X6412343Y-11514437D02*
X6411027Y-11510675D01*
X6411027Y-11510675D02*
X6409847Y-11506810D01*
X6409847Y-11506810D02*
X6408813Y-11502842D01*
X6408813Y-11502842D02*
X6407916Y-11498697D01*
X6407916Y-11498697D02*
X6407174Y-11494374D01*
X6407174Y-11494374D02*
X6406604Y-11489832D01*
X6406604Y-11489832D02*
X6406222Y-11484909D01*
X6406222Y-11484909D02*
X6406080Y-11479923D01*
X6406080Y-11479923D02*
X6406079Y-11479519D01*
X14362113Y-14006903D02*
X14362113Y-14006903D01*
X21457180Y-11830123D02*
X21457059Y-11835074D01*
X21457059Y-11835074D02*
X21456717Y-11839805D01*
X21456717Y-11839805D02*
X21456179Y-11844315D01*
X21456179Y-11844315D02*
X21455459Y-11848685D01*
X21455459Y-11848685D02*
X21454587Y-11852838D01*
X21454587Y-11852838D02*
X21453566Y-11856851D01*
X21453566Y-11856851D02*
X21452374Y-11860833D01*
X21452374Y-11860833D02*
X21451075Y-11864600D01*
X21451075Y-11864600D02*
X21449457Y-11868720D01*
X21449457Y-11868720D02*
X21447921Y-11872198D01*
X21447921Y-11872198D02*
X21446259Y-11875605D01*
X21446259Y-11875605D02*
X21444474Y-11878937D01*
X21444474Y-11878937D02*
X21442410Y-11882450D01*
X21442410Y-11882450D02*
X21440293Y-11885745D01*
X21440293Y-11885745D02*
X21438230Y-11888706D01*
X21438230Y-11888706D02*
X21436064Y-11891587D01*
X21436064Y-11891587D02*
X21433798Y-11894387D01*
X21433798Y-11894387D02*
X21431448Y-11897088D01*
X21431448Y-11897088D02*
X21428978Y-11899730D01*
X21428978Y-11899730D02*
X21426429Y-11902267D01*
X21426429Y-11902267D02*
X21423791Y-11904712D01*
X21423791Y-11904712D02*
X21421067Y-11907062D01*
X21421067Y-11907062D02*
X21418258Y-11909314D01*
X21418258Y-11909314D02*
X21415369Y-11911466D01*
X21415369Y-11911466D02*
X21412402Y-11913514D01*
X21412402Y-11913514D02*
X21409343Y-11915466D01*
X21409343Y-11915466D02*
X21406145Y-11917346D01*
X21406145Y-11917346D02*
X21402772Y-11919161D01*
X21402772Y-11919161D02*
X21399117Y-11920944D01*
X21399117Y-11920944D02*
X21395505Y-11922530D01*
X21395505Y-11922530D02*
X21391678Y-11924028D01*
X21391678Y-11924028D02*
X21387923Y-11925323D01*
X21387923Y-11925323D02*
X21383991Y-11926502D01*
X21383991Y-11926502D02*
X21379919Y-11927540D01*
X21379919Y-11927540D02*
X21375707Y-11928421D01*
X21375707Y-11928421D02*
X21371375Y-11929132D01*
X21371375Y-11929132D02*
X21366886Y-11929663D01*
X21366886Y-11929663D02*
X21362080Y-11930004D01*
X21362080Y-11930004D02*
X21357358Y-11930115D01*
X21357358Y-11730132D02*
X21362239Y-11730250D01*
X21362239Y-11730250D02*
X21366945Y-11730590D01*
X21366945Y-11730590D02*
X21371685Y-11731160D01*
X21371685Y-11731160D02*
X21375975Y-11731878D01*
X21375975Y-11731878D02*
X21380314Y-11732803D01*
X21380314Y-11732803D02*
X21384399Y-11733863D01*
X21384399Y-11733863D02*
X21388359Y-11735072D01*
X21388359Y-11735072D02*
X21392107Y-11736387D01*
X21392107Y-11736387D02*
X21395751Y-11737830D01*
X21395751Y-11737830D02*
X21399392Y-11739443D01*
X21399392Y-11739443D02*
X21402789Y-11741109D01*
X21402789Y-11741109D02*
X21406112Y-11742898D01*
X21406112Y-11742898D02*
X21409327Y-11744789D01*
X21409327Y-11744789D02*
X21412402Y-11746753D01*
X21412402Y-11746753D02*
X21415400Y-11748826D01*
X21415400Y-11748826D02*
X21418377Y-11751049D01*
X21418377Y-11751049D02*
X21421182Y-11753307D01*
X21421182Y-11753307D02*
X21423903Y-11755663D01*
X21423903Y-11755663D02*
X21426860Y-11758426D01*
X21426860Y-11758426D02*
X21429394Y-11760980D01*
X21429394Y-11760980D02*
X21431836Y-11763624D01*
X21431836Y-11763624D02*
X21434183Y-11766354D01*
X21434183Y-11766354D02*
X21436409Y-11769139D01*
X21436409Y-11769139D02*
X21438581Y-11772065D01*
X21438581Y-11772065D02*
X21440627Y-11775039D01*
X21440627Y-11775039D02*
X21442646Y-11778219D01*
X21442646Y-11778219D02*
X21444492Y-11781379D01*
X21444492Y-11781379D02*
X21446259Y-11784678D01*
X21446259Y-11784678D02*
X21447921Y-11788084D01*
X21447921Y-11788084D02*
X21449501Y-11791667D01*
X21449501Y-11791667D02*
X21450969Y-11795392D01*
X21450969Y-11795392D02*
X21452279Y-11799152D01*
X21452279Y-11799152D02*
X21453452Y-11803016D01*
X21453452Y-11803016D02*
X21454490Y-11807019D01*
X21454490Y-11807019D02*
X21455394Y-11811238D01*
X21455394Y-11811238D02*
X21456129Y-11815599D01*
X21456129Y-11815599D02*
X21456682Y-11820100D01*
X21456682Y-11820100D02*
X21457053Y-11825059D01*
X21457053Y-11825059D02*
X21457179Y-11830083D01*
X21457179Y-11830083D02*
X21457180Y-11830123D01*
X21257197Y-11830123D02*
X21257314Y-11825239D01*
X21257314Y-11825239D02*
X21257659Y-11820455D01*
X21257659Y-11820455D02*
X21258217Y-11815793D01*
X21258217Y-11815793D02*
X21258943Y-11811430D01*
X21258943Y-11811430D02*
X21259820Y-11807283D01*
X21259820Y-11807283D02*
X21260856Y-11803239D01*
X21260856Y-11803239D02*
X21262032Y-11799335D01*
X21262032Y-11799335D02*
X21263347Y-11795536D01*
X21263347Y-11795536D02*
X21264795Y-11791842D01*
X21264795Y-11791842D02*
X21266320Y-11788360D01*
X21266320Y-11788360D02*
X21268040Y-11784813D01*
X21268040Y-11784813D02*
X21269821Y-11781478D01*
X21269821Y-11781478D02*
X21271665Y-11778315D01*
X21271665Y-11778315D02*
X21273827Y-11774914D01*
X21273827Y-11774914D02*
X21275879Y-11771942D01*
X21275879Y-11771942D02*
X21278103Y-11768961D01*
X21278103Y-11768961D02*
X21280652Y-11765807D01*
X21280652Y-11765807D02*
X21283046Y-11763066D01*
X21283046Y-11763066D02*
X21285485Y-11760468D01*
X21285485Y-11760468D02*
X21288068Y-11757906D01*
X21288068Y-11757906D02*
X21290715Y-11755463D01*
X21290715Y-11755463D02*
X21293420Y-11753139D01*
X21293420Y-11753139D02*
X21296267Y-11750865D01*
X21296267Y-11750865D02*
X21299413Y-11748542D01*
X21299413Y-11748542D02*
X21302399Y-11746505D01*
X21302399Y-11746505D02*
X21305589Y-11744495D01*
X21305589Y-11744495D02*
X21308811Y-11742631D01*
X21308811Y-11742631D02*
X21312174Y-11740851D01*
X21312174Y-11740851D02*
X21315767Y-11739125D01*
X21315767Y-11739125D02*
X21319404Y-11737553D01*
X21319404Y-11737553D02*
X21323113Y-11736123D01*
X21323113Y-11736123D02*
X21326891Y-11734836D01*
X21326891Y-11734836D02*
X21330848Y-11733667D01*
X21330848Y-11733667D02*
X21334910Y-11732650D01*
X21334910Y-11732650D02*
X21339074Y-11731792D01*
X21339074Y-11731792D02*
X21343455Y-11731086D01*
X21343455Y-11731086D02*
X21347977Y-11730564D01*
X21347977Y-11730564D02*
X21352759Y-11730235D01*
X21352759Y-11730235D02*
X21357358Y-11730132D01*
X21357358Y-11930115D02*
X21352439Y-11929996D01*
X21352439Y-11929996D02*
X21347759Y-11929663D01*
X21347759Y-11929663D02*
X21343221Y-11929129D01*
X21343221Y-11929129D02*
X21338920Y-11928429D01*
X21338920Y-11928429D02*
X21334644Y-11927540D01*
X21334644Y-11927540D02*
X21330438Y-11926472D01*
X21330438Y-11926472D02*
X21326452Y-11925276D01*
X21326452Y-11925276D02*
X21322394Y-11923869D01*
X21322394Y-11923869D02*
X21318786Y-11922449D01*
X21318786Y-11922449D02*
X21314974Y-11920768D01*
X21314974Y-11920768D02*
X21311532Y-11919083D01*
X21311532Y-11919083D02*
X21308101Y-11917235D01*
X21308101Y-11917235D02*
X21304816Y-11915299D01*
X21304816Y-11915299D02*
X21301645Y-11913264D01*
X21301645Y-11913264D02*
X21298648Y-11911180D01*
X21298648Y-11911180D02*
X21295673Y-11908946D01*
X21295673Y-11908946D02*
X21292758Y-11906581D01*
X21292758Y-11906581D02*
X21290073Y-11904236D01*
X21290073Y-11904236D02*
X21287421Y-11901746D01*
X21287421Y-11901746D02*
X21284886Y-11899190D01*
X21284886Y-11899190D02*
X21282382Y-11896474D01*
X21282382Y-11896474D02*
X21280003Y-11893695D01*
X21280003Y-11893695D02*
X21277668Y-11890755D01*
X21277668Y-11890755D02*
X21275530Y-11887850D01*
X21275530Y-11887850D02*
X21273495Y-11884867D01*
X21273495Y-11884867D02*
X21271334Y-11881419D01*
X21271334Y-11881419D02*
X21269501Y-11878227D01*
X21269501Y-11878227D02*
X21267767Y-11874929D01*
X21267767Y-11874929D02*
X21266067Y-11871369D01*
X21266067Y-11871369D02*
X21264505Y-11867734D01*
X21264505Y-11867734D02*
X21263098Y-11864061D01*
X21263098Y-11864061D02*
X21261821Y-11860284D01*
X21261821Y-11860284D02*
X21260652Y-11856292D01*
X21260652Y-11856292D02*
X21259638Y-11852194D01*
X21259638Y-11852194D02*
X21258780Y-11847955D01*
X21258780Y-11847955D02*
X21258092Y-11843574D01*
X21258092Y-11843574D02*
X21257572Y-11838855D01*
X21257572Y-11838855D02*
X21257273Y-11834073D01*
X21257273Y-11834073D02*
X21257197Y-11830123D01*
X5491789Y-14006903D02*
X5491789Y-14006903D01*
X21532872Y-11085226D02*
X21527953Y-11085108D01*
X21527953Y-11085108D02*
X21523273Y-11084774D01*
X21523273Y-11084774D02*
X21518735Y-11084241D01*
X21518735Y-11084241D02*
X21514434Y-11083540D01*
X21514434Y-11083540D02*
X21510158Y-11082651D01*
X21510158Y-11082651D02*
X21505952Y-11081583D01*
X21505952Y-11081583D02*
X21501966Y-11080388D01*
X21501966Y-11080388D02*
X21497908Y-11078980D01*
X21497908Y-11078980D02*
X21494300Y-11077561D01*
X21494300Y-11077561D02*
X21490488Y-11075880D01*
X21490488Y-11075880D02*
X21487046Y-11074195D01*
X21487046Y-11074195D02*
X21483615Y-11072347D01*
X21483615Y-11072347D02*
X21480330Y-11070410D01*
X21480330Y-11070410D02*
X21477159Y-11068375D01*
X21477159Y-11068375D02*
X21474162Y-11066292D01*
X21474162Y-11066292D02*
X21471187Y-11064057D01*
X21471187Y-11064057D02*
X21468272Y-11061692D01*
X21468272Y-11061692D02*
X21465587Y-11059348D01*
X21465587Y-11059348D02*
X21462935Y-11056858D01*
X21462935Y-11056858D02*
X21460400Y-11054301D01*
X21460400Y-11054301D02*
X21457896Y-11051585D01*
X21457896Y-11051585D02*
X21455517Y-11048807D01*
X21455517Y-11048807D02*
X21453182Y-11045867D01*
X21453182Y-11045867D02*
X21451044Y-11042962D01*
X21451044Y-11042962D02*
X21449009Y-11039978D01*
X21449009Y-11039978D02*
X21446848Y-11036530D01*
X21446848Y-11036530D02*
X21445015Y-11033339D01*
X21445015Y-11033339D02*
X21443281Y-11030040D01*
X21443281Y-11030040D02*
X21441581Y-11026481D01*
X21441581Y-11026481D02*
X21440019Y-11022845D01*
X21440019Y-11022845D02*
X21438612Y-11019173D01*
X21438612Y-11019173D02*
X21437335Y-11015396D01*
X21437335Y-11015396D02*
X21436166Y-11011403D01*
X21436166Y-11011403D02*
X21435152Y-11007306D01*
X21435152Y-11007306D02*
X21434294Y-11003066D01*
X21434294Y-11003066D02*
X21433606Y-10998686D01*
X21433606Y-10998686D02*
X21433086Y-10993967D01*
X21433086Y-10993967D02*
X21432787Y-10989184D01*
X21432787Y-10989184D02*
X21432711Y-10985235D01*
X21357358Y-11930115D02*
X21357358Y-11930115D01*
X6606079Y-11479519D02*
X6605958Y-11484469D01*
X6605958Y-11484469D02*
X6605616Y-11489201D01*
X6605616Y-11489201D02*
X6605079Y-11493712D01*
X6605079Y-11493712D02*
X6604302Y-11498391D01*
X6604302Y-11498391D02*
X6603364Y-11502767D01*
X6603364Y-11502767D02*
X6602312Y-11506810D01*
X6602312Y-11506810D02*
X6601050Y-11510930D01*
X6601050Y-11510930D02*
X6599726Y-11514687D01*
X6599726Y-11514687D02*
X6598302Y-11518269D01*
X6598302Y-11518269D02*
X6596746Y-11521781D01*
X6596746Y-11521781D02*
X6594888Y-11525557D01*
X6594888Y-11525557D02*
X6593083Y-11528880D01*
X6593083Y-11528880D02*
X6591159Y-11532126D01*
X6591159Y-11532126D02*
X6589118Y-11535292D01*
X6589118Y-11535292D02*
X6586874Y-11538496D01*
X6586874Y-11538496D02*
X6584534Y-11541576D01*
X6584534Y-11541576D02*
X6582225Y-11544391D01*
X6582225Y-11544391D02*
X6579830Y-11547105D01*
X6579830Y-11547105D02*
X6577394Y-11549676D01*
X6577394Y-11549676D02*
X6574800Y-11552225D01*
X6574800Y-11552225D02*
X6572145Y-11554653D01*
X6572145Y-11554653D02*
X6569171Y-11557176D01*
X6569171Y-11557176D02*
X6566340Y-11559401D01*
X6566340Y-11559401D02*
X6563428Y-11561526D01*
X6563428Y-11561526D02*
X6560344Y-11563608D01*
X6560344Y-11563608D02*
X6557116Y-11565615D01*
X6557116Y-11565615D02*
X6553841Y-11567483D01*
X6553841Y-11567483D02*
X6550491Y-11569229D01*
X6550491Y-11569229D02*
X6547069Y-11570850D01*
X6547069Y-11570850D02*
X6543438Y-11572401D01*
X6543438Y-11572401D02*
X6539734Y-11573810D01*
X6539734Y-11573810D02*
X6535671Y-11575165D01*
X6535671Y-11575165D02*
X6531681Y-11576308D01*
X6531681Y-11576308D02*
X6527475Y-11577321D01*
X6527475Y-11577321D02*
X6522896Y-11578205D01*
X6522896Y-11578205D02*
X6518441Y-11578854D01*
X6518441Y-11578854D02*
X6513886Y-11579306D01*
X6513886Y-11579306D02*
X6508914Y-11579560D01*
X6508914Y-11579560D02*
X6506265Y-11579595D01*
X6506265Y-11379527D02*
X6511189Y-11379647D01*
X6511189Y-11379647D02*
X6515856Y-11379985D01*
X6515856Y-11379985D02*
X6520598Y-11380555D01*
X6520598Y-11380555D02*
X6524927Y-11381280D01*
X6524927Y-11381280D02*
X6529230Y-11382198D01*
X6529230Y-11382198D02*
X6533314Y-11383259D01*
X6533314Y-11383259D02*
X6537276Y-11384468D01*
X6537276Y-11384468D02*
X6541024Y-11385782D01*
X6541024Y-11385782D02*
X6544668Y-11387225D01*
X6544668Y-11387225D02*
X6548310Y-11388838D01*
X6548310Y-11388838D02*
X6551706Y-11390504D01*
X6551706Y-11390504D02*
X6555160Y-11392368D01*
X6555160Y-11392368D02*
X6558308Y-11394224D01*
X6558308Y-11394224D02*
X6561412Y-11396211D01*
X6561412Y-11396211D02*
X6564422Y-11398297D01*
X6564422Y-11398297D02*
X6567292Y-11400444D01*
X6567292Y-11400444D02*
X6570097Y-11402702D01*
X6570097Y-11402702D02*
X6573039Y-11405258D01*
X6573039Y-11405258D02*
X6575773Y-11407821D01*
X6575773Y-11407821D02*
X6578307Y-11410376D01*
X6578307Y-11410376D02*
X6580747Y-11413019D01*
X6580747Y-11413019D02*
X6583094Y-11415750D01*
X6583094Y-11415750D02*
X6585319Y-11418534D01*
X6585319Y-11418534D02*
X6587490Y-11421460D01*
X6587490Y-11421460D02*
X6589546Y-11424450D01*
X6589546Y-11424450D02*
X6591612Y-11427711D01*
X6591612Y-11427711D02*
X6593454Y-11430873D01*
X6593454Y-11430873D02*
X6595234Y-11434208D01*
X6595234Y-11434208D02*
X6596890Y-11437617D01*
X6596890Y-11437617D02*
X6598434Y-11441132D01*
X6598434Y-11441132D02*
X6599873Y-11444788D01*
X6599873Y-11444788D02*
X6601182Y-11448548D01*
X6601182Y-11448548D02*
X6602354Y-11452411D01*
X6602354Y-11452411D02*
X6603391Y-11456414D01*
X6603391Y-11456414D02*
X6604294Y-11460634D01*
X6604294Y-11460634D02*
X6605029Y-11464994D01*
X6605029Y-11464994D02*
X6605581Y-11469495D01*
X6605581Y-11469495D02*
X6605952Y-11474455D01*
X6605952Y-11474455D02*
X6606079Y-11479478D01*
X6606079Y-11479478D02*
X6606079Y-11479519D01*
X6406079Y-11479519D02*
X6406196Y-11474634D01*
X6406196Y-11474634D02*
X6406541Y-11469850D01*
X6406541Y-11469850D02*
X6407084Y-11465305D01*
X6407084Y-11465305D02*
X6407827Y-11460825D01*
X6407827Y-11460825D02*
X6408706Y-11456679D01*
X6408706Y-11456679D02*
X6409743Y-11452634D01*
X6409743Y-11452634D02*
X6410920Y-11448730D01*
X6410920Y-11448730D02*
X6412237Y-11444931D01*
X6412237Y-11444931D02*
X6413803Y-11440957D01*
X6413803Y-11440957D02*
X6415340Y-11437480D01*
X6415340Y-11437480D02*
X6417003Y-11434074D01*
X6417003Y-11434074D02*
X6418800Y-11430725D01*
X6418800Y-11430725D02*
X6420699Y-11427485D01*
X6420699Y-11427485D02*
X6422726Y-11424309D01*
X6422726Y-11424309D02*
X6424779Y-11421338D01*
X6424779Y-11421338D02*
X6426936Y-11418445D01*
X6426936Y-11418445D02*
X6429290Y-11415519D01*
X6429290Y-11415519D02*
X6431650Y-11412796D01*
X6431650Y-11412796D02*
X6434079Y-11410186D01*
X6434079Y-11410186D02*
X6436652Y-11407613D01*
X6436652Y-11407613D02*
X6439289Y-11405158D01*
X6439289Y-11405158D02*
X6441985Y-11402822D01*
X6441985Y-11402822D02*
X6445150Y-11400283D01*
X6445150Y-11400283D02*
X6448327Y-11397937D01*
X6448327Y-11397937D02*
X6451313Y-11395900D01*
X6451313Y-11395900D02*
X6454602Y-11393832D01*
X6454602Y-11393832D02*
X6457910Y-11391926D01*
X6457910Y-11391926D02*
X6461227Y-11390178D01*
X6461227Y-11390178D02*
X6464685Y-11388520D01*
X6464685Y-11388520D02*
X6468463Y-11386891D01*
X6468463Y-11386891D02*
X6472175Y-11385466D01*
X6472175Y-11385466D02*
X6476066Y-11384150D01*
X6476066Y-11384150D02*
X6479952Y-11383012D01*
X6479952Y-11383012D02*
X6484168Y-11381968D01*
X6484168Y-11381968D02*
X6488452Y-11381103D01*
X6488452Y-11381103D02*
X6492838Y-11380417D01*
X6492838Y-11380417D02*
X6497543Y-11379901D01*
X6497543Y-11379901D02*
X6502472Y-11379597D01*
X6502472Y-11379597D02*
X6506265Y-11379527D01*
X22199029Y-2835154D02*
X22198908Y-2840104D01*
X22198908Y-2840104D02*
X22198567Y-2844835D01*
X22198567Y-2844835D02*
X22198030Y-2849346D01*
X22198030Y-2849346D02*
X22197312Y-2853716D01*
X22197312Y-2853716D02*
X22196441Y-2857870D01*
X22196441Y-2857870D02*
X22195411Y-2861920D01*
X22195411Y-2861920D02*
X22194196Y-2865976D01*
X22194196Y-2865976D02*
X22192895Y-2869741D01*
X22192895Y-2869741D02*
X22191435Y-2873473D01*
X22191435Y-2873473D02*
X22189912Y-2876957D01*
X22189912Y-2876957D02*
X22188262Y-2880370D01*
X22188262Y-2880370D02*
X22186488Y-2883710D01*
X22186488Y-2883710D02*
X22184594Y-2886973D01*
X22184594Y-2886973D02*
X22182602Y-2890125D01*
X22182602Y-2890125D02*
X22180541Y-2893134D01*
X22180541Y-2893134D02*
X22178398Y-2896034D01*
X22178398Y-2896034D02*
X22175868Y-2899198D01*
X22175868Y-2899198D02*
X22173514Y-2901921D01*
X22173514Y-2901921D02*
X22170962Y-2904665D01*
X22170962Y-2904665D02*
X22168419Y-2907207D01*
X22168419Y-2907207D02*
X22165786Y-2909657D01*
X22165786Y-2909657D02*
X22162720Y-2912299D01*
X22162720Y-2912299D02*
X22159906Y-2914544D01*
X22159906Y-2914544D02*
X22156935Y-2916742D01*
X22156935Y-2916742D02*
X22153535Y-2919058D01*
X22153535Y-2919058D02*
X22150344Y-2921052D01*
X22150344Y-2921052D02*
X22147109Y-2922909D01*
X22147109Y-2922909D02*
X22143731Y-2924681D01*
X22143731Y-2924681D02*
X22140314Y-2926311D01*
X22140314Y-2926311D02*
X22136687Y-2927871D01*
X22136687Y-2927871D02*
X22132988Y-2929289D01*
X22132988Y-2929289D02*
X22129074Y-2930609D01*
X22129074Y-2930609D02*
X22125090Y-2931769D01*
X22125090Y-2931769D02*
X22121078Y-2932757D01*
X22121078Y-2932757D02*
X22116775Y-2933623D01*
X22116775Y-2933623D02*
X22112290Y-2934317D01*
X22112290Y-2934317D02*
X22107704Y-2934812D01*
X22107704Y-2934812D02*
X22102979Y-2935100D01*
X22102979Y-2935100D02*
X22099207Y-2935170D01*
X21532872Y-10885243D02*
X21537753Y-10885361D01*
X21537753Y-10885361D02*
X21542459Y-10885701D01*
X21542459Y-10885701D02*
X21547199Y-10886271D01*
X21547199Y-10886271D02*
X21551489Y-10886989D01*
X21551489Y-10886989D02*
X21555828Y-10887914D01*
X21555828Y-10887914D02*
X21559913Y-10888975D01*
X21559913Y-10888975D02*
X21563873Y-10890184D01*
X21563873Y-10890184D02*
X21567621Y-10891498D01*
X21567621Y-10891498D02*
X21571265Y-10892941D01*
X21571265Y-10892941D02*
X21574906Y-10894554D01*
X21574906Y-10894554D02*
X21578303Y-10896220D01*
X21578303Y-10896220D02*
X21581626Y-10898010D01*
X21581626Y-10898010D02*
X21584841Y-10899900D01*
X21584841Y-10899900D02*
X21587916Y-10901865D01*
X21587916Y-10901865D02*
X21590914Y-10903937D01*
X21590914Y-10903937D02*
X21593891Y-10906160D01*
X21593891Y-10906160D02*
X21596696Y-10908418D01*
X21596696Y-10908418D02*
X21599417Y-10910774D01*
X21599417Y-10910774D02*
X21602374Y-10913537D01*
X21602374Y-10913537D02*
X21604908Y-10916092D01*
X21604908Y-10916092D02*
X21607350Y-10918735D01*
X21607350Y-10918735D02*
X21609697Y-10921466D01*
X21609697Y-10921466D02*
X21611923Y-10924250D01*
X21611923Y-10924250D02*
X21614095Y-10927176D01*
X21614095Y-10927176D02*
X21616141Y-10930151D01*
X21616141Y-10930151D02*
X21618160Y-10933330D01*
X21618160Y-10933330D02*
X21620006Y-10936490D01*
X21620006Y-10936490D02*
X21621773Y-10939790D01*
X21621773Y-10939790D02*
X21623435Y-10943196D01*
X21623435Y-10943196D02*
X21625015Y-10946778D01*
X21625015Y-10946778D02*
X21626483Y-10950504D01*
X21626483Y-10950504D02*
X21627793Y-10954264D01*
X21627793Y-10954264D02*
X21628966Y-10958127D01*
X21628966Y-10958127D02*
X21630004Y-10962131D01*
X21630004Y-10962131D02*
X21630908Y-10966350D01*
X21630908Y-10966350D02*
X21631643Y-10970710D01*
X21631643Y-10970710D02*
X21632196Y-10975211D01*
X21632196Y-10975211D02*
X21632567Y-10980171D01*
X21632567Y-10980171D02*
X21632693Y-10985194D01*
X21632693Y-10985194D02*
X21632694Y-10985235D01*
X21432711Y-10985235D02*
X21432828Y-10980350D01*
X21432828Y-10980350D02*
X21433173Y-10975566D01*
X21433173Y-10975566D02*
X21433731Y-10970905D01*
X21433731Y-10970905D02*
X21434457Y-10966541D01*
X21434457Y-10966541D02*
X21435334Y-10962395D01*
X21435334Y-10962395D02*
X21436370Y-10958350D01*
X21436370Y-10958350D02*
X21437546Y-10954446D01*
X21437546Y-10954446D02*
X21438861Y-10950647D01*
X21438861Y-10950647D02*
X21440309Y-10946954D01*
X21440309Y-10946954D02*
X21441834Y-10943471D01*
X21441834Y-10943471D02*
X21443554Y-10939924D01*
X21443554Y-10939924D02*
X21445335Y-10936589D01*
X21445335Y-10936589D02*
X21447179Y-10933427D01*
X21447179Y-10933427D02*
X21449341Y-10930025D01*
X21449341Y-10930025D02*
X21451393Y-10927054D01*
X21451393Y-10927054D02*
X21453617Y-10924072D01*
X21453617Y-10924072D02*
X21456166Y-10920919D01*
X21456166Y-10920919D02*
X21458560Y-10918177D01*
X21458560Y-10918177D02*
X21460999Y-10915579D01*
X21460999Y-10915579D02*
X21463582Y-10913017D01*
X21463582Y-10913017D02*
X21466229Y-10910574D01*
X21466229Y-10910574D02*
X21468934Y-10908250D01*
X21468934Y-10908250D02*
X21471781Y-10905977D01*
X21471781Y-10905977D02*
X21474927Y-10903653D01*
X21474927Y-10903653D02*
X21477913Y-10901616D01*
X21477913Y-10901616D02*
X21481103Y-10899607D01*
X21481103Y-10899607D02*
X21484325Y-10897743D01*
X21484325Y-10897743D02*
X21487688Y-10895962D01*
X21487688Y-10895962D02*
X21491281Y-10894236D01*
X21491281Y-10894236D02*
X21494918Y-10892665D01*
X21494918Y-10892665D02*
X21498627Y-10891234D01*
X21498627Y-10891234D02*
X21502405Y-10889948D01*
X21502405Y-10889948D02*
X21506362Y-10888779D01*
X21506362Y-10888779D02*
X21510424Y-10887761D01*
X21510424Y-10887761D02*
X21514588Y-10886903D01*
X21514588Y-10886903D02*
X21518969Y-10886197D01*
X21518969Y-10886197D02*
X21523491Y-10885675D01*
X21523491Y-10885675D02*
X21528273Y-10885346D01*
X21528273Y-10885346D02*
X21532872Y-10885243D01*
X5491789Y-2935170D02*
X5486874Y-2935052D01*
X5486874Y-2935052D02*
X5482099Y-2934709D01*
X5482099Y-2934709D02*
X5477544Y-2934168D01*
X5477544Y-2934168D02*
X5473247Y-2933462D01*
X5473247Y-2933462D02*
X5468975Y-2932567D01*
X5468975Y-2932567D02*
X5464884Y-2931525D01*
X5464884Y-2931525D02*
X5460880Y-2930323D01*
X5460880Y-2930323D02*
X5456841Y-2928921D01*
X5456841Y-2928921D02*
X5453233Y-2927501D01*
X5453233Y-2927501D02*
X5449524Y-2925868D01*
X5449524Y-2925868D02*
X5446114Y-2924203D01*
X5446114Y-2924203D02*
X5442778Y-2922414D01*
X5442778Y-2922414D02*
X5439552Y-2920525D01*
X5439552Y-2920525D02*
X5436466Y-2918562D01*
X5436466Y-2918562D02*
X5433367Y-2916425D01*
X5433367Y-2916425D02*
X5430473Y-2914269D01*
X5430473Y-2914269D02*
X5427660Y-2912012D01*
X5427660Y-2912012D02*
X5424960Y-2909682D01*
X5424960Y-2909682D02*
X5422332Y-2907246D01*
X5422332Y-2907246D02*
X5419741Y-2904665D01*
X5419741Y-2904665D02*
X5417307Y-2902060D01*
X5417307Y-2902060D02*
X5414918Y-2899313D01*
X5414918Y-2899313D02*
X5412653Y-2896509D01*
X5412653Y-2896509D02*
X5410487Y-2893623D01*
X5410487Y-2893623D02*
X5408341Y-2890533D01*
X5408341Y-2890533D02*
X5406310Y-2887359D01*
X5406310Y-2887359D02*
X5404453Y-2884204D01*
X5404453Y-2884204D02*
X5402674Y-2880910D01*
X5402674Y-2880910D02*
X5401001Y-2877508D01*
X5401001Y-2877508D02*
X5399292Y-2873649D01*
X5399292Y-2873649D02*
X5397875Y-2870064D01*
X5397875Y-2870064D02*
X5396571Y-2866341D01*
X5396571Y-2866341D02*
X5395380Y-2862440D01*
X5395380Y-2862440D02*
X5394345Y-2858474D01*
X5394345Y-2858474D02*
X5393448Y-2854330D01*
X5393448Y-2854330D02*
X5392713Y-2850047D01*
X5392713Y-2850047D02*
X5392149Y-2845585D01*
X5392149Y-2845585D02*
X5391772Y-2840864D01*
X5391772Y-2840864D02*
X5391614Y-2835922D01*
X5391614Y-2835922D02*
X5391612Y-2835154D01*
X22099207Y-2935170D02*
X22099207Y-2935170D01*
X14075855Y-2835154D02*
X14075734Y-2840104D01*
X14075734Y-2840104D02*
X14075393Y-2844835D01*
X14075393Y-2844835D02*
X14074856Y-2849346D01*
X14074856Y-2849346D02*
X14074138Y-2853716D01*
X14074138Y-2853716D02*
X14073267Y-2857870D01*
X14073267Y-2857870D02*
X14072238Y-2861920D01*
X14072238Y-2861920D02*
X14071022Y-2865976D01*
X14071022Y-2865976D02*
X14069721Y-2869741D01*
X14069721Y-2869741D02*
X14068262Y-2873473D01*
X14068262Y-2873473D02*
X14066739Y-2876957D01*
X14066739Y-2876957D02*
X14065090Y-2880370D01*
X14065090Y-2880370D02*
X14063317Y-2883710D01*
X14063317Y-2883710D02*
X14061423Y-2886973D01*
X14061423Y-2886973D02*
X14059432Y-2890125D01*
X14059432Y-2890125D02*
X14057372Y-2893134D01*
X14057372Y-2893134D02*
X14055230Y-2896034D01*
X14055230Y-2896034D02*
X14052988Y-2898852D01*
X14052988Y-2898852D02*
X14050648Y-2901585D01*
X14050648Y-2901585D02*
X14048006Y-2904449D01*
X14048006Y-2904449D02*
X14045512Y-2906960D01*
X14045512Y-2906960D02*
X14042847Y-2909456D01*
X14042847Y-2909456D02*
X14039907Y-2912012D01*
X14039907Y-2912012D02*
X14037105Y-2914269D01*
X14037105Y-2914269D02*
X14033978Y-2916600D01*
X14033978Y-2916600D02*
X14030995Y-2918655D01*
X14030995Y-2918655D02*
X14027871Y-2920643D01*
X14027871Y-2920643D02*
X14024588Y-2922562D01*
X14024588Y-2922562D02*
X14021262Y-2924340D01*
X14021262Y-2924340D02*
X14017587Y-2926122D01*
X14017587Y-2926122D02*
X14014077Y-2927654D01*
X14014077Y-2927654D02*
X14010428Y-2929080D01*
X14010428Y-2929080D02*
X14006419Y-2930458D01*
X14006419Y-2930458D02*
X14002560Y-2931607D01*
X14002560Y-2931607D02*
X13998543Y-2932624D01*
X13998543Y-2932624D02*
X13994388Y-2933490D01*
X13994388Y-2933490D02*
X13989998Y-2934206D01*
X13989998Y-2934206D02*
X13985114Y-2934767D01*
X13985114Y-2934767D02*
X13980362Y-2935081D01*
X13980362Y-2935081D02*
X13976117Y-2935170D01*
X13976117Y-2735171D02*
X13981317Y-2735305D01*
X13981317Y-2735305D02*
X13986057Y-2735663D01*
X13986057Y-2735663D02*
X13990540Y-2736213D01*
X13990540Y-2736213D02*
X13994884Y-2736946D01*
X13994884Y-2736946D02*
X13999069Y-2737842D01*
X13999069Y-2737842D02*
X14003041Y-2738871D01*
X14003041Y-2738871D02*
X14006965Y-2740064D01*
X14006965Y-2740064D02*
X14010714Y-2741373D01*
X14010714Y-2741373D02*
X14014393Y-2742826D01*
X14014393Y-2742826D02*
X14017999Y-2744419D01*
X14017999Y-2744419D02*
X14021413Y-2746089D01*
X14021413Y-2746089D02*
X14025081Y-2748069D01*
X14025081Y-2748069D02*
X14028352Y-2750007D01*
X14028352Y-2750007D02*
X14031511Y-2752045D01*
X14031511Y-2752045D02*
X14034465Y-2754108D01*
X14034465Y-2754108D02*
X14037430Y-2756343D01*
X14037430Y-2756343D02*
X14040251Y-2758637D01*
X14040251Y-2758637D02*
X14042958Y-2761005D01*
X14042958Y-2761005D02*
X14045579Y-2763467D01*
X14045579Y-2763467D02*
X14048278Y-2766197D01*
X14048278Y-2766197D02*
X14050747Y-2768889D01*
X14050747Y-2768889D02*
X14053083Y-2771627D01*
X14053083Y-2771627D02*
X14055321Y-2774448D01*
X14055321Y-2774448D02*
X14057459Y-2777350D01*
X14057459Y-2777350D02*
X14059494Y-2780331D01*
X14059494Y-2780331D02*
X14061501Y-2783517D01*
X14061501Y-2783517D02*
X14063390Y-2786781D01*
X14063390Y-2786781D02*
X14065158Y-2790123D01*
X14065158Y-2790123D02*
X14066787Y-2793503D01*
X14066787Y-2793503D02*
X14068320Y-2797022D01*
X14068320Y-2797022D02*
X14069761Y-2800717D01*
X14069761Y-2800717D02*
X14071151Y-2804774D01*
X14071151Y-2804774D02*
X14072330Y-2808759D01*
X14072330Y-2808759D02*
X14073346Y-2812811D01*
X14073346Y-2812811D02*
X14074223Y-2817079D01*
X14074223Y-2817079D02*
X14074932Y-2821528D01*
X14074932Y-2821528D02*
X14075451Y-2826119D01*
X14075451Y-2826119D02*
X14075763Y-2830850D01*
X14075763Y-2830850D02*
X14075855Y-2835154D01*
X13875872Y-2835154D02*
X13875989Y-2830270D01*
X13875989Y-2830270D02*
X13876335Y-2825488D01*
X13876335Y-2825488D02*
X13876871Y-2820983D01*
X13876871Y-2820983D02*
X13877592Y-2816618D01*
X13877592Y-2816618D02*
X13878482Y-2812395D01*
X13878482Y-2812395D02*
X13879517Y-2808350D01*
X13879517Y-2808350D02*
X13880680Y-2804482D01*
X13880680Y-2804482D02*
X13881974Y-2800735D01*
X13881974Y-2800735D02*
X13883381Y-2797127D01*
X13883381Y-2797127D02*
X13884899Y-2793641D01*
X13884899Y-2793641D02*
X13886528Y-2790258D01*
X13886528Y-2790258D02*
X13888296Y-2786914D01*
X13888296Y-2786914D02*
X13890167Y-2783678D01*
X13890167Y-2783678D02*
X13892113Y-2780583D01*
X13892113Y-2780583D02*
X13894146Y-2777595D01*
X13894146Y-2777595D02*
X13896283Y-2774686D01*
X13896283Y-2774686D02*
X13898593Y-2771771D01*
X13898593Y-2771771D02*
X13900958Y-2769001D01*
X13900958Y-2769001D02*
X13903394Y-2766347D01*
X13903394Y-2766347D02*
X13905924Y-2763781D01*
X13905924Y-2763781D02*
X13908544Y-2761307D01*
X13908544Y-2761307D02*
X13911482Y-2758734D01*
X13911482Y-2758734D02*
X13914401Y-2756366D01*
X13914401Y-2756366D02*
X13917257Y-2754218D01*
X13917257Y-2754218D02*
X13920347Y-2752066D01*
X13920347Y-2752066D02*
X13923392Y-2750106D01*
X13923392Y-2750106D02*
X13926676Y-2748162D01*
X13926676Y-2748162D02*
X13929971Y-2746375D01*
X13929971Y-2746375D02*
X13933425Y-2744668D01*
X13933425Y-2744668D02*
X13936883Y-2743121D01*
X13936883Y-2743121D02*
X13940713Y-2741587D01*
X13940713Y-2741587D02*
X13944472Y-2740256D01*
X13944472Y-2740256D02*
X13948448Y-2739029D01*
X13948448Y-2739029D02*
X13952454Y-2737973D01*
X13952454Y-2737973D02*
X13956716Y-2737042D01*
X13956716Y-2737042D02*
X13960985Y-2736302D01*
X13960985Y-2736302D02*
X13965472Y-2735728D01*
X13965472Y-2735728D02*
X13970238Y-2735340D01*
X13970238Y-2735340D02*
X13975105Y-2735175D01*
X13975105Y-2735175D02*
X13976117Y-2735171D01*
X13976117Y-2935170D02*
X13971198Y-2935052D01*
X13971198Y-2935052D02*
X13966519Y-2934718D01*
X13966519Y-2934718D02*
X13962018Y-2934190D01*
X13962018Y-2934190D02*
X13957657Y-2933480D01*
X13957657Y-2933480D02*
X13953400Y-2932594D01*
X13953400Y-2932594D02*
X13949341Y-2931566D01*
X13949341Y-2931566D02*
X13945350Y-2930376D01*
X13945350Y-2930376D02*
X13941430Y-2929027D01*
X13941430Y-2929027D02*
X13937586Y-2927523D01*
X13937586Y-2927523D02*
X13934097Y-2925995D01*
X13934097Y-2925995D02*
X13930544Y-2924272D01*
X13930544Y-2924272D02*
X13927203Y-2922488D01*
X13927203Y-2922488D02*
X13923842Y-2920525D01*
X13923842Y-2920525D02*
X13920755Y-2918562D01*
X13920755Y-2918562D02*
X13917776Y-2916513D01*
X13917776Y-2916513D02*
X13914802Y-2914303D01*
X13914802Y-2914303D02*
X13911827Y-2911915D01*
X13911827Y-2911915D02*
X13909101Y-2909557D01*
X13909101Y-2909557D02*
X13906490Y-2907129D01*
X13906490Y-2907129D02*
X13903809Y-2904449D01*
X13903809Y-2904449D02*
X13901357Y-2901809D01*
X13901357Y-2901809D02*
X13898736Y-2898765D01*
X13898736Y-2898765D02*
X13896466Y-2895914D01*
X13896466Y-2895914D02*
X13894320Y-2893012D01*
X13894320Y-2893012D02*
X13892279Y-2890030D01*
X13892279Y-2890030D02*
X13890324Y-2886941D01*
X13890324Y-2886941D02*
X13888315Y-2883479D01*
X13888315Y-2883479D02*
X13886528Y-2880100D01*
X13886528Y-2880100D02*
X13884891Y-2876698D01*
X13884891Y-2876698D02*
X13883366Y-2873191D01*
X13883366Y-2873191D02*
X13881875Y-2869346D01*
X13881875Y-2869346D02*
X13880551Y-2865463D01*
X13880551Y-2865463D02*
X13879379Y-2861492D01*
X13879379Y-2861492D02*
X13878377Y-2857491D01*
X13878377Y-2857491D02*
X13877514Y-2853294D01*
X13877514Y-2853294D02*
X13876811Y-2848917D01*
X13876811Y-2848917D02*
X13876294Y-2844400D01*
X13876294Y-2844400D02*
X13875973Y-2839684D01*
X13875973Y-2839684D02*
X13875872Y-2835154D01*
X8946139Y-3604816D02*
X8946139Y-3604816D01*
X5591611Y-2835154D02*
X5591491Y-2840104D01*
X5591491Y-2840104D02*
X5591149Y-2844835D01*
X5591149Y-2844835D02*
X5590612Y-2849346D01*
X5590612Y-2849346D02*
X5589892Y-2853716D01*
X5589892Y-2853716D02*
X5589021Y-2857870D01*
X5589021Y-2857870D02*
X5587990Y-2861920D01*
X5587990Y-2861920D02*
X5586808Y-2865866D01*
X5586808Y-2865866D02*
X5585510Y-2869634D01*
X5585510Y-2869634D02*
X5584068Y-2873332D01*
X5584068Y-2873332D02*
X5582532Y-2876853D01*
X5582532Y-2876853D02*
X5580885Y-2880269D01*
X5580885Y-2880269D02*
X5578911Y-2883974D01*
X5578911Y-2883974D02*
X5576927Y-2887359D01*
X5576927Y-2887359D02*
X5574899Y-2890533D01*
X5574899Y-2890533D02*
X5572845Y-2893501D01*
X5572845Y-2893501D02*
X5570688Y-2896390D01*
X5570688Y-2896390D02*
X5568431Y-2899198D01*
X5568431Y-2899198D02*
X5566064Y-2901935D01*
X5566064Y-2901935D02*
X5563627Y-2904557D01*
X5563627Y-2904557D02*
X5561086Y-2907103D01*
X5561086Y-2907103D02*
X5558456Y-2909557D01*
X5558456Y-2909557D02*
X5555739Y-2911915D01*
X5555739Y-2911915D02*
X5552953Y-2914165D01*
X5552953Y-2914165D02*
X5550086Y-2916315D01*
X5550086Y-2916315D02*
X5547095Y-2918395D01*
X5547095Y-2918395D02*
X5543914Y-2920436D01*
X5543914Y-2920436D02*
X5540719Y-2922322D01*
X5540719Y-2922322D02*
X5537215Y-2924211D01*
X5537215Y-2924211D02*
X5533835Y-2925868D01*
X5533835Y-2925868D02*
X5530334Y-2927421D01*
X5530334Y-2927421D02*
X5526674Y-2928875D01*
X5526674Y-2928875D02*
X5522692Y-2930270D01*
X5522692Y-2930270D02*
X5518839Y-2931442D01*
X5518839Y-2931442D02*
X5514660Y-2932523D01*
X5514660Y-2932523D02*
X5510394Y-2933429D01*
X5510394Y-2933429D02*
X5506064Y-2934151D01*
X5506064Y-2934151D02*
X5501400Y-2934710D01*
X5501400Y-2934710D02*
X5496514Y-2935059D01*
X5496514Y-2935059D02*
X5491789Y-2935170D01*
X5491789Y-2735171D02*
X5496713Y-2735291D01*
X5496713Y-2735291D02*
X5501380Y-2735629D01*
X5501380Y-2735629D02*
X5506122Y-2736199D01*
X5506122Y-2736199D02*
X5510452Y-2736924D01*
X5510452Y-2736924D02*
X5514660Y-2737820D01*
X5514660Y-2737820D02*
X5518691Y-2738861D01*
X5518691Y-2738861D02*
X5522656Y-2740064D01*
X5522656Y-2740064D02*
X5526549Y-2741426D01*
X5526549Y-2741426D02*
X5530193Y-2742870D01*
X5530193Y-2742870D02*
X5533835Y-2744483D01*
X5533835Y-2744483D02*
X5537232Y-2746149D01*
X5537232Y-2746149D02*
X5540555Y-2747939D01*
X5540555Y-2747939D02*
X5543770Y-2749830D01*
X5543770Y-2749830D02*
X5546845Y-2751794D01*
X5546845Y-2751794D02*
X5549843Y-2753866D01*
X5549843Y-2753866D02*
X5552820Y-2756090D01*
X5552820Y-2756090D02*
X5555624Y-2758348D01*
X5555624Y-2758348D02*
X5558344Y-2760703D01*
X5558344Y-2760703D02*
X5561302Y-2763467D01*
X5561302Y-2763467D02*
X5563835Y-2766021D01*
X5563835Y-2766021D02*
X5566276Y-2768665D01*
X5566276Y-2768665D02*
X5568623Y-2771395D01*
X5568623Y-2771395D02*
X5570848Y-2774180D01*
X5570848Y-2774180D02*
X5573020Y-2777105D01*
X5573020Y-2777105D02*
X5575076Y-2780095D01*
X5575076Y-2780095D02*
X5577084Y-2783259D01*
X5577084Y-2783259D02*
X5578929Y-2786419D01*
X5578929Y-2786419D02*
X5580696Y-2789718D01*
X5580696Y-2789718D02*
X5582357Y-2793124D01*
X5582357Y-2793124D02*
X5583936Y-2796705D01*
X5583936Y-2796705D02*
X5585404Y-2800430D01*
X5585404Y-2800430D02*
X5586713Y-2804190D01*
X5586713Y-2804190D02*
X5587886Y-2808053D01*
X5587886Y-2808053D02*
X5588923Y-2812055D01*
X5588923Y-2812055D02*
X5589827Y-2816274D01*
X5589827Y-2816274D02*
X5590561Y-2820633D01*
X5590561Y-2820633D02*
X5591118Y-2825172D01*
X5591118Y-2825172D02*
X5591477Y-2829931D01*
X5591477Y-2829931D02*
X5591611Y-2834911D01*
X5591611Y-2834911D02*
X5591611Y-2835154D01*
X5391612Y-2835154D02*
X5391729Y-2830270D01*
X5391729Y-2830270D02*
X5392074Y-2825488D01*
X5392074Y-2825488D02*
X5392611Y-2820983D01*
X5392611Y-2820983D02*
X5393331Y-2816618D01*
X5393331Y-2816618D02*
X5394220Y-2812395D01*
X5394220Y-2812395D02*
X5395255Y-2808350D01*
X5395255Y-2808350D02*
X5396452Y-2804372D01*
X5396452Y-2804372D02*
X5397769Y-2800574D01*
X5397769Y-2800574D02*
X5399336Y-2796600D01*
X5399336Y-2796600D02*
X5400872Y-2793124D01*
X5400872Y-2793124D02*
X5402536Y-2789718D01*
X5402536Y-2789718D02*
X5404323Y-2786386D01*
X5404323Y-2786386D02*
X5406173Y-2783227D01*
X5406173Y-2783227D02*
X5408258Y-2779954D01*
X5408258Y-2779954D02*
X5410312Y-2776983D01*
X5410312Y-2776983D02*
X5412468Y-2774090D01*
X5412468Y-2774090D02*
X5414822Y-2771164D01*
X5414822Y-2771164D02*
X5417182Y-2768441D01*
X5417182Y-2768441D02*
X5419610Y-2765832D01*
X5419610Y-2765832D02*
X5422184Y-2763258D01*
X5422184Y-2763258D02*
X5424821Y-2760804D01*
X5424821Y-2760804D02*
X5427516Y-2758468D01*
X5427516Y-2758468D02*
X5430681Y-2755929D01*
X5430681Y-2755929D02*
X5433858Y-2753582D01*
X5433858Y-2753582D02*
X5436844Y-2751545D01*
X5436844Y-2751545D02*
X5440133Y-2749477D01*
X5440133Y-2749477D02*
X5443440Y-2747571D01*
X5443440Y-2747571D02*
X5446756Y-2745823D01*
X5446756Y-2745823D02*
X5450215Y-2744165D01*
X5450215Y-2744165D02*
X5453851Y-2742593D01*
X5453851Y-2742593D02*
X5457559Y-2741162D01*
X5457559Y-2741162D02*
X5461337Y-2739876D01*
X5461337Y-2739876D02*
X5465331Y-2738697D01*
X5465331Y-2738697D02*
X5469354Y-2737689D01*
X5469354Y-2737689D02*
X5473554Y-2736824D01*
X5473554Y-2736824D02*
X5478169Y-2736087D01*
X5478169Y-2736087D02*
X5482692Y-2735577D01*
X5482692Y-2735577D02*
X5487415Y-2735264D01*
X5487415Y-2735264D02*
X5491789Y-2735171D01*
X9665272Y-2835154D02*
X9665389Y-2830270D01*
X9665389Y-2830270D02*
X9665734Y-2825488D01*
X9665734Y-2825488D02*
X9666271Y-2820983D01*
X9666271Y-2820983D02*
X9666991Y-2816618D01*
X9666991Y-2816618D02*
X9667880Y-2812395D01*
X9667880Y-2812395D02*
X9668915Y-2808350D01*
X9668915Y-2808350D02*
X9670112Y-2804372D01*
X9670112Y-2804372D02*
X9671429Y-2800574D01*
X9671429Y-2800574D02*
X9672996Y-2796600D01*
X9672996Y-2796600D02*
X9674532Y-2793124D01*
X9674532Y-2793124D02*
X9676196Y-2789718D01*
X9676196Y-2789718D02*
X9677983Y-2786386D01*
X9677983Y-2786386D02*
X9679833Y-2783227D01*
X9679833Y-2783227D02*
X9681918Y-2779954D01*
X9681918Y-2779954D02*
X9683972Y-2776983D01*
X9683972Y-2776983D02*
X9686128Y-2774090D01*
X9686128Y-2774090D02*
X9688482Y-2771164D01*
X9688482Y-2771164D02*
X9690842Y-2768441D01*
X9690842Y-2768441D02*
X9693270Y-2765832D01*
X9693270Y-2765832D02*
X9695844Y-2763258D01*
X9695844Y-2763258D02*
X9698481Y-2760804D01*
X9698481Y-2760804D02*
X9701176Y-2758468D01*
X9701176Y-2758468D02*
X9704341Y-2755929D01*
X9704341Y-2755929D02*
X9707518Y-2753582D01*
X9707518Y-2753582D02*
X9710504Y-2751545D01*
X9710504Y-2751545D02*
X9713793Y-2749477D01*
X9713793Y-2749477D02*
X9717100Y-2747571D01*
X9717100Y-2747571D02*
X9720416Y-2745823D01*
X9720416Y-2745823D02*
X9723875Y-2744165D01*
X9723875Y-2744165D02*
X9727511Y-2742593D01*
X9727511Y-2742593D02*
X9731219Y-2741162D01*
X9731219Y-2741162D02*
X9734997Y-2739876D01*
X9734997Y-2739876D02*
X9738991Y-2738697D01*
X9738991Y-2738697D02*
X9743014Y-2737689D01*
X9743014Y-2737689D02*
X9747214Y-2736824D01*
X9747214Y-2736824D02*
X9751829Y-2736087D01*
X9751829Y-2736087D02*
X9756352Y-2735577D01*
X9756352Y-2735577D02*
X9761075Y-2735264D01*
X9761075Y-2735264D02*
X9765449Y-2735171D01*
X9765449Y-2935170D02*
X9760534Y-2935052D01*
X9760534Y-2935052D02*
X9755759Y-2934709D01*
X9755759Y-2934709D02*
X9751204Y-2934168D01*
X9751204Y-2934168D02*
X9746907Y-2933462D01*
X9746907Y-2933462D02*
X9742635Y-2932567D01*
X9742635Y-2932567D02*
X9738544Y-2931525D01*
X9738544Y-2931525D02*
X9734540Y-2930323D01*
X9734540Y-2930323D02*
X9730501Y-2928921D01*
X9730501Y-2928921D02*
X9726893Y-2927501D01*
X9726893Y-2927501D02*
X9723184Y-2925868D01*
X9723184Y-2925868D02*
X9719774Y-2924203D01*
X9719774Y-2924203D02*
X9716438Y-2922414D01*
X9716438Y-2922414D02*
X9713212Y-2920525D01*
X9713212Y-2920525D02*
X9710126Y-2918562D01*
X9710126Y-2918562D02*
X9707027Y-2916425D01*
X9707027Y-2916425D02*
X9704133Y-2914269D01*
X9704133Y-2914269D02*
X9701320Y-2912012D01*
X9701320Y-2912012D02*
X9698620Y-2909682D01*
X9698620Y-2909682D02*
X9695992Y-2907246D01*
X9695992Y-2907246D02*
X9693401Y-2904665D01*
X9693401Y-2904665D02*
X9690967Y-2902060D01*
X9690967Y-2902060D02*
X9688578Y-2899313D01*
X9688578Y-2899313D02*
X9686313Y-2896509D01*
X9686313Y-2896509D02*
X9684147Y-2893623D01*
X9684147Y-2893623D02*
X9682001Y-2890533D01*
X9682001Y-2890533D02*
X9679970Y-2887359D01*
X9679970Y-2887359D02*
X9678113Y-2884204D01*
X9678113Y-2884204D02*
X9676334Y-2880910D01*
X9676334Y-2880910D02*
X9674661Y-2877508D01*
X9674661Y-2877508D02*
X9672952Y-2873649D01*
X9672952Y-2873649D02*
X9671535Y-2870064D01*
X9671535Y-2870064D02*
X9670231Y-2866341D01*
X9670231Y-2866341D02*
X9669040Y-2862440D01*
X9669040Y-2862440D02*
X9668005Y-2858474D01*
X9668005Y-2858474D02*
X9667108Y-2854330D01*
X9667108Y-2854330D02*
X9666373Y-2850047D01*
X9666373Y-2850047D02*
X9665809Y-2845585D01*
X9665809Y-2845585D02*
X9665432Y-2840864D01*
X9665432Y-2840864D02*
X9665275Y-2835922D01*
X9665275Y-2835922D02*
X9665272Y-2835154D01*
X13976117Y-2935170D02*
X13976117Y-2935170D01*
X5491789Y-2935170D02*
X5491789Y-2935170D01*
X9865271Y-2835154D02*
X9865151Y-2840104D01*
X9865151Y-2840104D02*
X9864809Y-2844835D01*
X9864809Y-2844835D02*
X9864272Y-2849346D01*
X9864272Y-2849346D02*
X9863552Y-2853716D01*
X9863552Y-2853716D02*
X9862681Y-2857870D01*
X9862681Y-2857870D02*
X9861650Y-2861920D01*
X9861650Y-2861920D02*
X9860468Y-2865866D01*
X9860468Y-2865866D02*
X9859170Y-2869634D01*
X9859170Y-2869634D02*
X9857728Y-2873332D01*
X9857728Y-2873332D02*
X9856193Y-2876853D01*
X9856193Y-2876853D02*
X9854545Y-2880269D01*
X9854545Y-2880269D02*
X9852571Y-2883974D01*
X9852571Y-2883974D02*
X9850587Y-2887359D01*
X9850587Y-2887359D02*
X9848559Y-2890533D01*
X9848559Y-2890533D02*
X9846505Y-2893501D01*
X9846505Y-2893501D02*
X9844348Y-2896390D01*
X9844348Y-2896390D02*
X9842091Y-2899198D01*
X9842091Y-2899198D02*
X9839724Y-2901935D01*
X9839724Y-2901935D02*
X9837287Y-2904557D01*
X9837287Y-2904557D02*
X9834746Y-2907103D01*
X9834746Y-2907103D02*
X9832116Y-2909557D01*
X9832116Y-2909557D02*
X9829399Y-2911915D01*
X9829399Y-2911915D02*
X9826613Y-2914165D01*
X9826613Y-2914165D02*
X9823746Y-2916315D01*
X9823746Y-2916315D02*
X9820755Y-2918395D01*
X9820755Y-2918395D02*
X9817574Y-2920436D01*
X9817574Y-2920436D02*
X9814379Y-2922322D01*
X9814379Y-2922322D02*
X9810875Y-2924211D01*
X9810875Y-2924211D02*
X9807495Y-2925868D01*
X9807495Y-2925868D02*
X9803994Y-2927421D01*
X9803994Y-2927421D02*
X9800334Y-2928875D01*
X9800334Y-2928875D02*
X9796352Y-2930270D01*
X9796352Y-2930270D02*
X9792499Y-2931442D01*
X9792499Y-2931442D02*
X9788320Y-2932523D01*
X9788320Y-2932523D02*
X9784054Y-2933429D01*
X9784054Y-2933429D02*
X9779725Y-2934151D01*
X9779725Y-2934151D02*
X9775060Y-2934710D01*
X9775060Y-2934710D02*
X9770174Y-2935059D01*
X9770174Y-2935059D02*
X9765449Y-2935170D01*
X9765449Y-2735171D02*
X9770373Y-2735291D01*
X9770373Y-2735291D02*
X9775041Y-2735629D01*
X9775041Y-2735629D02*
X9779783Y-2736199D01*
X9779783Y-2736199D02*
X9784112Y-2736924D01*
X9784112Y-2736924D02*
X9788320Y-2737820D01*
X9788320Y-2737820D02*
X9792351Y-2738861D01*
X9792351Y-2738861D02*
X9796316Y-2740064D01*
X9796316Y-2740064D02*
X9800209Y-2741426D01*
X9800209Y-2741426D02*
X9803854Y-2742870D01*
X9803854Y-2742870D02*
X9807495Y-2744483D01*
X9807495Y-2744483D02*
X9810892Y-2746149D01*
X9810892Y-2746149D02*
X9814215Y-2747939D01*
X9814215Y-2747939D02*
X9817430Y-2749830D01*
X9817430Y-2749830D02*
X9820505Y-2751794D01*
X9820505Y-2751794D02*
X9823503Y-2753866D01*
X9823503Y-2753866D02*
X9826480Y-2756090D01*
X9826480Y-2756090D02*
X9829284Y-2758348D01*
X9829284Y-2758348D02*
X9832005Y-2760703D01*
X9832005Y-2760703D02*
X9834962Y-2763467D01*
X9834962Y-2763467D02*
X9837495Y-2766021D01*
X9837495Y-2766021D02*
X9839936Y-2768665D01*
X9839936Y-2768665D02*
X9842283Y-2771395D01*
X9842283Y-2771395D02*
X9844508Y-2774180D01*
X9844508Y-2774180D02*
X9846680Y-2777105D01*
X9846680Y-2777105D02*
X9848736Y-2780095D01*
X9848736Y-2780095D02*
X9850744Y-2783259D01*
X9850744Y-2783259D02*
X9852590Y-2786419D01*
X9852590Y-2786419D02*
X9854356Y-2789718D01*
X9854356Y-2789718D02*
X9856017Y-2793124D01*
X9856017Y-2793124D02*
X9857597Y-2796705D01*
X9857597Y-2796705D02*
X9859064Y-2800430D01*
X9859064Y-2800430D02*
X9860374Y-2804190D01*
X9860374Y-2804190D02*
X9861546Y-2808053D01*
X9861546Y-2808053D02*
X9862583Y-2812055D01*
X9862583Y-2812055D02*
X9863487Y-2816274D01*
X9863487Y-2816274D02*
X9864222Y-2820633D01*
X9864222Y-2820633D02*
X9864778Y-2825172D01*
X9864778Y-2825172D02*
X9865137Y-2829931D01*
X9865137Y-2829931D02*
X9865271Y-2834911D01*
X9865271Y-2834911D02*
X9865271Y-2835154D01*
X9765449Y-2935170D02*
X9765449Y-2935170D01*
X22494346Y-6955914D02*
X22496602Y-6958702D01*
X22496602Y-6958702D02*
X22498321Y-6962355D01*
X22498321Y-6962355D02*
X22499076Y-6966625D01*
X22499076Y-6966625D02*
X22499087Y-6967234D01*
X22483085Y-6951232D02*
X22487505Y-6951857D01*
X22487505Y-6951857D02*
X22491085Y-6953388D01*
X22491085Y-6953388D02*
X22493976Y-6955552D01*
X22493976Y-6955552D02*
X22494346Y-6955914D01*
X22206988Y-6951232D02*
X22483085Y-6951232D01*
X22191324Y-6963856D02*
X22192634Y-6960126D01*
X22192634Y-6960126D02*
X22194605Y-6957086D01*
X22194605Y-6957086D02*
X22197162Y-6954600D01*
X22197162Y-6954600D02*
X22200282Y-6952702D01*
X22200282Y-6952702D02*
X22204111Y-6951491D01*
X22204111Y-6951491D02*
X22206988Y-6951232D01*
X20534482Y-14640210D02*
X20535470Y-14635631D01*
X20535470Y-14635631D02*
X20537876Y-14624481D01*
X20537876Y-14624481D02*
X20540791Y-14610973D01*
X20540791Y-14610973D02*
X20544207Y-14595145D01*
X20544207Y-14595145D02*
X20548115Y-14577036D01*
X20548115Y-14577036D02*
X20551379Y-14561910D01*
X20551379Y-14561910D02*
X20553695Y-14551179D01*
X20553695Y-14551179D02*
X20559929Y-14522296D01*
X20559929Y-14522296D02*
X20571523Y-14468579D01*
X20571523Y-14468579D02*
X20584907Y-14406567D01*
X20584907Y-14406567D02*
X20600016Y-14336563D01*
X20600016Y-14336563D02*
X20612491Y-14278763D01*
X20612491Y-14278763D02*
X20621278Y-14238050D01*
X20621278Y-14238050D02*
X20635149Y-14173787D01*
X20635149Y-14173787D02*
X20655041Y-14081621D01*
X20655041Y-14081621D02*
X20687434Y-13931540D01*
X20687434Y-13931540D02*
X20735612Y-13708331D01*
X20735612Y-13708331D02*
X20788730Y-13462231D01*
X20788730Y-13462231D02*
X20846267Y-13195660D01*
X20846267Y-13195660D02*
X20907700Y-12911039D01*
X20907700Y-12911039D02*
X20972506Y-12610790D01*
X20972506Y-12610790D02*
X21040164Y-12297333D01*
X21040164Y-12297333D02*
X21092523Y-12054749D01*
X21092523Y-12054749D02*
X21128000Y-11890384D01*
X21128000Y-11890384D02*
X21181940Y-11640481D01*
X21181940Y-11640481D02*
X21291807Y-11131466D01*
X21291807Y-11131466D02*
X21439952Y-10445106D01*
X21439952Y-10445106D02*
X21549691Y-9936684D01*
X21549691Y-9936684D02*
X21603529Y-9687251D01*
X21603529Y-9687251D02*
X21638924Y-9523263D01*
X21638924Y-9523263D02*
X21673823Y-9361572D01*
X21673823Y-9361572D02*
X21708162Y-9202480D01*
X21708162Y-9202480D02*
X21758565Y-8968958D01*
X21758565Y-8968958D02*
X21823092Y-8670001D01*
X21823092Y-8670001D02*
X21869152Y-8456601D01*
X21869152Y-8456601D02*
X21898752Y-8319459D01*
X21898752Y-8319459D02*
X21920254Y-8219837D01*
X21920254Y-8219837D02*
X21934278Y-8154861D01*
X21934278Y-8154861D02*
X21954832Y-8059631D01*
X21954832Y-8059631D02*
X21981181Y-7937550D01*
X21981181Y-7937550D02*
X22006316Y-7821094D01*
X22006316Y-7821094D02*
X22030172Y-7710566D01*
X22030172Y-7710566D02*
X22052682Y-7606269D01*
X22052682Y-7606269D02*
X22073783Y-7508505D01*
X22073783Y-7508505D02*
X22093408Y-7417577D01*
X22093408Y-7417577D02*
X22111491Y-7333787D01*
X22111491Y-7333787D02*
X22127969Y-7257439D01*
X22127969Y-7257439D02*
X22139180Y-7205492D01*
X22139180Y-7205492D02*
X22146153Y-7173182D01*
X22146153Y-7173182D02*
X22152688Y-7142903D01*
X22152688Y-7142903D02*
X22158776Y-7114692D01*
X22158776Y-7114692D02*
X22164410Y-7088588D01*
X22164410Y-7088588D02*
X22169580Y-7064627D01*
X22169580Y-7064627D02*
X22173135Y-7048155D01*
X22173135Y-7048155D02*
X22175365Y-7037818D01*
X22175365Y-7037818D02*
X22178501Y-7023289D01*
X22178501Y-7023289D02*
X22182234Y-7005987D01*
X22182234Y-7005987D02*
X22185472Y-6990980D01*
X22185472Y-6990980D02*
X22188206Y-6978307D01*
X22188206Y-6978307D02*
X22190429Y-6968005D01*
X22190429Y-6968005D02*
X22191324Y-6963856D01*
X20515517Y-14652487D02*
X20520271Y-14652757D01*
X20520271Y-14652757D02*
X20524446Y-14651806D01*
X20524446Y-14651806D02*
X20527759Y-14650109D01*
X20527759Y-14650109D02*
X20530498Y-14647796D01*
X20530498Y-14647796D02*
X20532646Y-14644935D01*
X20532646Y-14644935D02*
X20534181Y-14641390D01*
X20534181Y-14641390D02*
X20534482Y-14640210D01*
X6793353Y-11263957D02*
X6793426Y-11313024D01*
X6793426Y-11313024D02*
X6793756Y-11536201D01*
X6793756Y-11536201D02*
X6794250Y-11869949D01*
X6794250Y-11869949D02*
X6794842Y-12270402D01*
X6794842Y-12270402D02*
X6795468Y-12693693D01*
X6795468Y-12693693D02*
X6795919Y-12998075D01*
X6795919Y-12998075D02*
X6796196Y-13185724D01*
X6796196Y-13185724D02*
X6796445Y-13354408D01*
X6796445Y-13354408D02*
X6796608Y-13464283D01*
X6796608Y-13464283D02*
X6796704Y-13529261D01*
X6796704Y-13529261D02*
X6796827Y-13612946D01*
X6796827Y-13612946D02*
X6796918Y-13674496D01*
X6796918Y-13674496D02*
X6796961Y-13704058D01*
X6796961Y-13704058D02*
X6796977Y-13714465D01*
X6780619Y-11248294D02*
X6784371Y-11249574D01*
X6784371Y-11249574D02*
X6787490Y-11251584D01*
X6787490Y-11251584D02*
X6789979Y-11254151D01*
X6789979Y-11254151D02*
X6791875Y-11257273D01*
X6791875Y-11257273D02*
X6793097Y-11261141D01*
X6793097Y-11261141D02*
X6793353Y-11263957D01*
X6117535Y-11110118D02*
X6122122Y-11111074D01*
X6122122Y-11111074D02*
X6130244Y-11112768D01*
X6130244Y-11112768D02*
X6136276Y-11114025D01*
X6136276Y-11114025D02*
X6142816Y-11115389D01*
X6142816Y-11115389D02*
X6149847Y-11116854D01*
X6149847Y-11116854D02*
X6161218Y-11119225D01*
X6161218Y-11119225D02*
X6178007Y-11122724D01*
X6178007Y-11122724D02*
X6196434Y-11126564D01*
X6196434Y-11126564D02*
X6211286Y-11129660D01*
X6211286Y-11129660D02*
X6221592Y-11131808D01*
X6221592Y-11131808D02*
X6237623Y-11135149D01*
X6237623Y-11135149D02*
X6271614Y-11142232D01*
X6271614Y-11142232D02*
X6320504Y-11152420D01*
X6320504Y-11152420D02*
X6372184Y-11163190D01*
X6372184Y-11163190D02*
X6425496Y-11174299D01*
X6425496Y-11174299D02*
X6465843Y-11182706D01*
X6465843Y-11182706D02*
X6492638Y-11188289D01*
X6492638Y-11188289D02*
X6519190Y-11193822D01*
X6519190Y-11193822D02*
X6545355Y-11199274D01*
X6545355Y-11199274D02*
X6583652Y-11207254D01*
X6583652Y-11207254D02*
X6631920Y-11217311D01*
X6631920Y-11217311D02*
X6696907Y-11230852D01*
X6696907Y-11230852D02*
X6761574Y-11244326D01*
X6761574Y-11244326D02*
X6780619Y-11248294D01*
X20554633Y-15135171D02*
X20549151Y-15135148D01*
X20549151Y-15135148D02*
X20544072Y-15135083D01*
X20544072Y-15135083D02*
X20538243Y-15134960D01*
X20538243Y-15134960D02*
X20533117Y-15134807D01*
X20533117Y-15134807D02*
X20527642Y-15134599D01*
X20527642Y-15134599D02*
X20522837Y-15134377D01*
X20522837Y-15134377D02*
X20518034Y-15134120D01*
X20518034Y-15134120D02*
X20513166Y-15133821D01*
X20513166Y-15133821D02*
X20508302Y-15133486D01*
X20508302Y-15133486D02*
X20503640Y-15133130D01*
X20503640Y-15133130D02*
X20498448Y-15132692D01*
X20498448Y-15132692D02*
X20493526Y-15132239D01*
X20493526Y-15132239D02*
X20488873Y-15131775D01*
X20488873Y-15131775D02*
X20484091Y-15131263D01*
X20484091Y-15131263D02*
X20479578Y-15130746D01*
X20479578Y-15130746D02*
X20474870Y-15130172D01*
X20474870Y-15130172D02*
X20470299Y-15129581D01*
X20470299Y-15129581D02*
X20465798Y-15128967D01*
X20465798Y-15128967D02*
X20461169Y-15128302D01*
X20461169Y-15128302D02*
X20456809Y-15127644D01*
X20456809Y-15127644D02*
X20452123Y-15126902D01*
X20452123Y-15126902D02*
X20447443Y-15126126D01*
X20447443Y-15126126D02*
X20442702Y-15125304D01*
X20442702Y-15125304D02*
X20438361Y-15124520D01*
X20438361Y-15124520D02*
X20433894Y-15123681D01*
X20433894Y-15123681D02*
X20429629Y-15122849D01*
X20429629Y-15122849D02*
X20425370Y-15121988D01*
X20425370Y-15121988D02*
X20420266Y-15120918D01*
X20420266Y-15120918D02*
X20418828Y-15120609D01*
X22480291Y-15116460D02*
X22477712Y-15118884D01*
X22477712Y-15118884D02*
X22474958Y-15121200D01*
X22474958Y-15121200D02*
X22472031Y-15123395D01*
X22472031Y-15123395D02*
X22468973Y-15125427D01*
X22468973Y-15125427D02*
X22465725Y-15127325D01*
X22465725Y-15127325D02*
X22462334Y-15129049D01*
X22462334Y-15129049D02*
X22458850Y-15130568D01*
X22458850Y-15130568D02*
X22455096Y-15131940D01*
X22455096Y-15131940D02*
X22450978Y-15133151D01*
X22450978Y-15133151D02*
X22446780Y-15134084D01*
X22446780Y-15134084D02*
X22442319Y-15134757D01*
X22442319Y-15134757D02*
X22437406Y-15135128D01*
X22437406Y-15135128D02*
X22435079Y-15135171D01*
X22499087Y-15071163D02*
X22498905Y-15075988D01*
X22498905Y-15075988D02*
X22498368Y-15080730D01*
X22498368Y-15080730D02*
X22497567Y-15085025D01*
X22497567Y-15085025D02*
X22496520Y-15089101D01*
X22496520Y-15089101D02*
X22495251Y-15092977D01*
X22495251Y-15092977D02*
X22493699Y-15096852D01*
X22493699Y-15096852D02*
X22492088Y-15100249D01*
X22492088Y-15100249D02*
X22490308Y-15103496D01*
X22490308Y-15103496D02*
X22488327Y-15106662D01*
X22488327Y-15106662D02*
X22486225Y-15109628D01*
X22486225Y-15109628D02*
X22483950Y-15112481D01*
X22483950Y-15112481D02*
X22481506Y-15115212D01*
X22481506Y-15115212D02*
X22480291Y-15116460D01*
X22499087Y-6967234D02*
X22499087Y-15071163D01*
X6910430Y-7300287D02*
X6907573Y-7313736D01*
X6907573Y-7313736D02*
X6898839Y-7354850D01*
X6898839Y-7354850D02*
X6879797Y-7444492D01*
X6879797Y-7444492D02*
X6822181Y-7715717D01*
X6822181Y-7715717D02*
X6711474Y-8236861D01*
X6711474Y-8236861D02*
X6578179Y-8864342D01*
X6578179Y-8864342D02*
X6472561Y-9361532D01*
X6472561Y-9361532D02*
X6403092Y-9688558D01*
X6403092Y-9688558D02*
X6336447Y-10002288D01*
X6336447Y-10002288D02*
X6274509Y-10293860D01*
X6274509Y-10293860D02*
X6239328Y-10459474D01*
X6239328Y-10459474D02*
X6225977Y-10522327D01*
X6225977Y-10522327D02*
X6206854Y-10612348D01*
X6206854Y-10612348D02*
X6183417Y-10722682D01*
X6183417Y-10722682D02*
X6167530Y-10797471D01*
X6167530Y-10797471D02*
X6157709Y-10843706D01*
X6157709Y-10843706D02*
X6144190Y-10907346D01*
X6144190Y-10907346D02*
X6128872Y-10979460D01*
X6128872Y-10979460D02*
X6116731Y-11036619D01*
X6116731Y-11036619D02*
X6109964Y-11068478D01*
X6109964Y-11068478D02*
X6107307Y-11080990D01*
X6107307Y-11080990D02*
X6105803Y-11088070D01*
X6105803Y-11088070D02*
X6105148Y-11091153D01*
X12161110Y-12879397D02*
X12169420Y-12881161D01*
X12169420Y-12881161D02*
X12179124Y-12883220D01*
X12179124Y-12883220D02*
X12202651Y-12888213D01*
X12202651Y-12888213D02*
X12265747Y-12901603D01*
X12265747Y-12901603D02*
X12384315Y-12926766D01*
X12384315Y-12926766D02*
X12497440Y-12950775D01*
X12497440Y-12950775D02*
X12582546Y-12968836D01*
X12582546Y-12968836D02*
X12675606Y-12988586D01*
X12675606Y-12988586D02*
X12776295Y-13009955D01*
X12776295Y-13009955D02*
X12940069Y-13044713D01*
X12940069Y-13044713D02*
X13183310Y-13096336D01*
X13183310Y-13096336D02*
X13451199Y-13153189D01*
X13451199Y-13153189D02*
X13891275Y-13246587D01*
X13891275Y-13246587D02*
X14376671Y-13349603D01*
X14376671Y-13349603D02*
X14717071Y-13421846D01*
X14717071Y-13421846D02*
X15069077Y-13496553D01*
X15069077Y-13496553D02*
X15430083Y-13573169D01*
X15430083Y-13573169D02*
X15797480Y-13651143D01*
X15797480Y-13651143D02*
X16168660Y-13729919D01*
X16168660Y-13729919D02*
X16541015Y-13808945D01*
X16541015Y-13808945D02*
X16911937Y-13887667D01*
X16911937Y-13887667D02*
X17278817Y-13965531D01*
X17278817Y-13965531D02*
X17639048Y-14041984D01*
X17639048Y-14041984D02*
X17990021Y-14116472D01*
X17990021Y-14116472D02*
X18245175Y-14170625D01*
X18245175Y-14170625D02*
X18411273Y-14205876D01*
X18411273Y-14205876D02*
X18573590Y-14240326D01*
X18573590Y-14240326D02*
X18731799Y-14273903D01*
X18731799Y-14273903D02*
X18961314Y-14322615D01*
X18961314Y-14322615D02*
X19178522Y-14368715D01*
X19178522Y-14368715D02*
X19317042Y-14398113D01*
X19317042Y-14398113D02*
X19449823Y-14426295D01*
X19449823Y-14426295D02*
X19576541Y-14453189D01*
X19576541Y-14453189D02*
X19696870Y-14478728D01*
X19696870Y-14478728D02*
X19810483Y-14502841D01*
X19810483Y-14502841D02*
X19890862Y-14519901D01*
X19890862Y-14519901D02*
X19942326Y-14530824D01*
X19942326Y-14530824D02*
X20016258Y-14546516D01*
X20016258Y-14546516D02*
X20107768Y-14565938D01*
X20107768Y-14565938D02*
X20191259Y-14583659D01*
X20191259Y-14583659D02*
X20266404Y-14599608D01*
X20266404Y-14599608D02*
X20316811Y-14610307D01*
X20316811Y-14610307D02*
X20347818Y-14616889D01*
X20347818Y-14616889D02*
X20390352Y-14625917D01*
X20390352Y-14625917D02*
X20438504Y-14636138D01*
X20438504Y-14636138D02*
X20467994Y-14642398D01*
X20467994Y-14642398D02*
X20484771Y-14645959D01*
X20484771Y-14645959D02*
X20499034Y-14648987D01*
X20499034Y-14648987D02*
X20507976Y-14650885D01*
X20507976Y-14650885D02*
X20513184Y-14651991D01*
X20513184Y-14651991D02*
X20515517Y-14652487D01*
X12147690Y-12882615D02*
X12150782Y-12880646D01*
X12150782Y-12880646D02*
X12154547Y-12879367D01*
X12154547Y-12879367D02*
X12159300Y-12879116D01*
X12159300Y-12879116D02*
X12161110Y-12879397D01*
X12141789Y-12895061D02*
X12142402Y-12890622D01*
X12142402Y-12890622D02*
X12143894Y-12887082D01*
X12143894Y-12887082D02*
X12146021Y-12884180D01*
X12146021Y-12884180D02*
X12147690Y-12882615D01*
X18819220Y-4463395D02*
X18815439Y-4462081D01*
X18815439Y-4462081D02*
X18812374Y-4460091D01*
X18812374Y-4460091D02*
X18809876Y-4457496D01*
X18809876Y-4457496D02*
X18808001Y-4454365D01*
X18808001Y-4454365D02*
X18806813Y-4450507D01*
X18806813Y-4450507D02*
X18806747Y-4445508D01*
X18806747Y-4445508D02*
X18806944Y-4444421D01*
X16995500Y-3828429D02*
X16993863Y-3825007D01*
X16993863Y-3825007D02*
X16993029Y-3820813D01*
X16993029Y-3820813D02*
X16993384Y-3816245D01*
X17005660Y-3835473D02*
X17001948Y-3834184D01*
X17001948Y-3834184D02*
X16998844Y-3832194D01*
X16998844Y-3832194D02*
X16996346Y-3829635D01*
X16996346Y-3829635D02*
X16995500Y-3828429D01*
X7744041Y-5610425D02*
X7747775Y-5611712D01*
X7747775Y-5611712D02*
X7750886Y-5613720D01*
X7750886Y-5613720D02*
X7753359Y-5616272D01*
X7753359Y-5616272D02*
X7755266Y-5619425D01*
X7755266Y-5619425D02*
X7756462Y-5623230D01*
X7756462Y-5623230D02*
X7756580Y-5628135D01*
X7756580Y-5628135D02*
X7756369Y-5629374D01*
X6841935Y-5418681D02*
X6847458Y-5419855D01*
X6847458Y-5419855D02*
X6861167Y-5422768D01*
X6861167Y-5422768D02*
X6877883Y-5426321D01*
X6877883Y-5426321D02*
X6897399Y-5430469D01*
X6897399Y-5430469D02*
X6955780Y-5442879D01*
X6955780Y-5442879D02*
X7077396Y-5468728D01*
X7077396Y-5468728D02*
X7218920Y-5498810D01*
X7218920Y-5498810D02*
X7367080Y-5530302D01*
X7367080Y-5530302D02*
X7508602Y-5560383D01*
X7508602Y-5560383D02*
X7601468Y-5580122D01*
X7601468Y-5580122D02*
X7654806Y-5591459D01*
X7654806Y-5591459D02*
X7699017Y-5600856D01*
X7699017Y-5600856D02*
X7732444Y-5607960D01*
X7732444Y-5607960D02*
X7744041Y-5610425D01*
X7756369Y-5629374D02*
X7754613Y-5637699D01*
X7754613Y-5637699D02*
X7751143Y-5654158D01*
X7751143Y-5654158D02*
X7748414Y-5667101D01*
X7748414Y-5667101D02*
X7740313Y-5705531D01*
X7740313Y-5705531D02*
X7723014Y-5787587D01*
X7723014Y-5787587D02*
X7701475Y-5889757D01*
X7701475Y-5889757D02*
X7676467Y-6008384D01*
X7676467Y-6008384D02*
X7648759Y-6139814D01*
X7648759Y-6139814D02*
X7603921Y-6352509D01*
X7603921Y-6352509D02*
X7541561Y-6648318D01*
X7541561Y-6648318D02*
X7482276Y-6929540D01*
X7482276Y-6929540D02*
X7432231Y-7166933D01*
X7432231Y-7166933D02*
X7397590Y-7331253D01*
X7397590Y-7331253D02*
X7389000Y-7372000D01*
X7369925Y-7384327D02*
X7354686Y-7380994D01*
X7354686Y-7380994D02*
X7309284Y-7371061D01*
X7309284Y-7371061D02*
X7250714Y-7358248D01*
X7250714Y-7358248D02*
X7201190Y-7347415D01*
X7201190Y-7347415D02*
X7166968Y-7339928D01*
X7166968Y-7339928D02*
X7132417Y-7332370D01*
X7132417Y-7332370D02*
X7098197Y-7324883D01*
X7098197Y-7324883D02*
X7048678Y-7314050D01*
X7048678Y-7314050D02*
X7004100Y-7304297D01*
X7004100Y-7304297D02*
X6984157Y-7299934D01*
X6984157Y-7299934D02*
X6971864Y-7297245D01*
X6971864Y-7297245D02*
X6955092Y-7293575D01*
X6955092Y-7293575D02*
X6936680Y-7289547D01*
X6936680Y-7289547D02*
X6929505Y-7287977D01*
X12145379Y-13716158D02*
X12145356Y-13710949D01*
X12145356Y-13710949D02*
X12145300Y-13698217D01*
X12145300Y-13698217D02*
X12145196Y-13674563D01*
X12145196Y-13674563D02*
X12145067Y-13645038D01*
X12145067Y-13645038D02*
X12144970Y-13622911D01*
X12144970Y-13622911D02*
X12144811Y-13586412D01*
X12144811Y-13586412D02*
X12144447Y-13503048D01*
X12144447Y-13503048D02*
X12143893Y-13376218D01*
X12143893Y-13376218D02*
X12143312Y-13243169D01*
X12143312Y-13243169D02*
X12142890Y-13146592D01*
X12142890Y-13146592D02*
X12142625Y-13086096D01*
X12142625Y-13086096D02*
X12142382Y-13030460D01*
X12142382Y-13030460D02*
X12142166Y-12981110D01*
X12142166Y-12981110D02*
X12142049Y-12954428D01*
X12142049Y-12954428D02*
X12142006Y-12944556D01*
X12142006Y-12944556D02*
X12141945Y-12930730D01*
X12141945Y-12930730D02*
X12141841Y-12906970D01*
X12141841Y-12906970D02*
X12141789Y-12895061D01*
X12140713Y-13727503D02*
X12142942Y-13724683D01*
X12142942Y-13724683D02*
X12144562Y-13721246D01*
X12144562Y-13721246D02*
X12145358Y-13717023D01*
X12145358Y-13717023D02*
X12145379Y-13716158D01*
X12129377Y-13732245D02*
X12133804Y-13731618D01*
X12133804Y-13731618D02*
X12137333Y-13730116D01*
X12137333Y-13730116D02*
X12140229Y-13727974D01*
X12140229Y-13727974D02*
X12140713Y-13727503D01*
X6812970Y-13730467D02*
X6825567Y-13730470D01*
X6825567Y-13730470D02*
X6841570Y-13730475D01*
X6841570Y-13730475D02*
X6868515Y-13730483D01*
X6868515Y-13730483D02*
X6901386Y-13730493D01*
X6901386Y-13730493D02*
X6939981Y-13730506D01*
X6939981Y-13730506D02*
X6972732Y-13730516D01*
X6972732Y-13730516D02*
X6996135Y-13730524D01*
X6996135Y-13730524D02*
X7059570Y-13730545D01*
X7059570Y-13730545D02*
X7147594Y-13730574D01*
X7147594Y-13730574D02*
X7211800Y-13730595D01*
X7211800Y-13730595D02*
X7280526Y-13730618D01*
X7280526Y-13730618D02*
X7353571Y-13730642D01*
X7353571Y-13730642D02*
X7430734Y-13730668D01*
X7430734Y-13730668D02*
X7511814Y-13730695D01*
X7511814Y-13730695D02*
X7639913Y-13730738D01*
X7639913Y-13730738D02*
X7823166Y-13730799D01*
X7823166Y-13730799D02*
X8018472Y-13730865D01*
X8018472Y-13730865D02*
X8329513Y-13730970D01*
X8329513Y-13730970D02*
X8660645Y-13731081D01*
X8660645Y-13731081D02*
X8888098Y-13731158D01*
X8888098Y-13731158D02*
X9236111Y-13731276D01*
X9236111Y-13731276D02*
X9705495Y-13731435D01*
X9705495Y-13731435D02*
X10168463Y-13731591D01*
X10168463Y-13731591D02*
X10612162Y-13731741D01*
X10612162Y-13731741D02*
X10923253Y-13731846D01*
X10923253Y-13731846D02*
X11118600Y-13731912D01*
X11118600Y-13731912D02*
X11301900Y-13731973D01*
X11301900Y-13731973D02*
X11471545Y-13732030D01*
X11471545Y-13732030D02*
X11625929Y-13732081D01*
X11625929Y-13732081D02*
X11730170Y-13732116D01*
X11730170Y-13732116D02*
X11794410Y-13732137D01*
X11794410Y-13732137D02*
X11853931Y-13732157D01*
X11853931Y-13732157D02*
X11908532Y-13732175D01*
X11908532Y-13732175D02*
X11945968Y-13732187D01*
X11945968Y-13732187D02*
X11969390Y-13732194D01*
X11969390Y-13732194D02*
X11991470Y-13732202D01*
X11991470Y-13732202D02*
X12012181Y-13732208D01*
X12012181Y-13732208D02*
X12031499Y-13732214D01*
X12031499Y-13732214D02*
X12049399Y-13732220D01*
X12049399Y-13732220D02*
X12073719Y-13732228D01*
X12073719Y-13732228D02*
X12100708Y-13732236D01*
X12100708Y-13732236D02*
X12121572Y-13732242D01*
X12121572Y-13732242D02*
X12129377Y-13732245D01*
X6796977Y-13714465D02*
X6797597Y-13718857D01*
X6797597Y-13718857D02*
X6799101Y-13722407D01*
X6799101Y-13722407D02*
X6801231Y-13725308D01*
X6801231Y-13725308D02*
X6803938Y-13727657D01*
X6803938Y-13727657D02*
X6807214Y-13729392D01*
X6807214Y-13729392D02*
X6811261Y-13730375D01*
X6811261Y-13730375D02*
X6812970Y-13730467D01*
X7382032Y-7382135D02*
X7378592Y-7383815D01*
X7378592Y-7383815D02*
X7374421Y-7384663D01*
X7374421Y-7384663D02*
X7369925Y-7384327D01*
X6917407Y-7290161D02*
X6914635Y-7292426D01*
X6914635Y-7292426D02*
X6912441Y-7295244D01*
X6912441Y-7295244D02*
X6910846Y-7298725D01*
X6910846Y-7298725D02*
X6910430Y-7300287D01*
X6107392Y-11103175D02*
X6109669Y-11105937D01*
X6109669Y-11105937D02*
X6112489Y-11108126D01*
X6112489Y-11108126D02*
X6115975Y-11109715D01*
X6115975Y-11109715D02*
X6117535Y-11110118D01*
X6105148Y-11091153D02*
X6104867Y-11095963D01*
X6104867Y-11095963D02*
X6105814Y-11100060D01*
X6105814Y-11100060D02*
X6107392Y-11103175D01*
X22493076Y-5239721D02*
X22490000Y-5241685D01*
X22490000Y-5241685D02*
X22486203Y-5242967D01*
X22486203Y-5242967D02*
X22481398Y-5243197D01*
X22481398Y-5243197D02*
X22479699Y-5242930D01*
X18806944Y-4444421D02*
X18808065Y-4439127D01*
X18808065Y-4439127D02*
X18809060Y-4434434D01*
X18809060Y-4434434D02*
X18810134Y-4429367D01*
X18810134Y-4429367D02*
X18811578Y-4422559D01*
X18811578Y-4422559D02*
X18812811Y-4416748D01*
X18812811Y-4416748D02*
X18813778Y-4412193D01*
X18813778Y-4412193D02*
X18815114Y-4405902D01*
X18815114Y-4405902D02*
X18816500Y-4399372D01*
X18816500Y-4399372D02*
X18818295Y-4390922D01*
X18818295Y-4390922D02*
X18819775Y-4383955D01*
X18819775Y-4383955D02*
X18820907Y-4378626D01*
X18820907Y-4378626D02*
X18822439Y-4371416D01*
X18822439Y-4371416D02*
X18824384Y-4362265D01*
X18824384Y-4362265D02*
X18825563Y-4356717D01*
X18825563Y-4356717D02*
X18826550Y-4352074D01*
X18826550Y-4352074D02*
X18827540Y-4347420D01*
X18827540Y-4347420D02*
X18829125Y-4339963D01*
X18829125Y-4339963D02*
X18830708Y-4332519D01*
X18830708Y-4332519D02*
X18832282Y-4325117D01*
X18832282Y-4325117D02*
X18833842Y-4317782D01*
X18833842Y-4317782D02*
X18835383Y-4310543D01*
X18835383Y-4310543D02*
X18836897Y-4303426D01*
X18836897Y-4303426D02*
X18837827Y-4299058D01*
X18837827Y-4299058D02*
X18838744Y-4294749D01*
X18838744Y-4294749D02*
X18839826Y-4289668D01*
X18839826Y-4289668D02*
X18840881Y-4284714D01*
X18840881Y-4284714D02*
X18842247Y-4278299D01*
X18842247Y-4278299D02*
X18843559Y-4272136D01*
X18843559Y-4272136D02*
X18844813Y-4266251D01*
X18844813Y-4266251D02*
X18846002Y-4260673D01*
X18846002Y-4260673D02*
X18846984Y-4256067D01*
X18846984Y-4256067D02*
X18848163Y-4250543D01*
X18848163Y-4250543D02*
X18849123Y-4246046D01*
X18849123Y-4246046D02*
X18849785Y-4242949D01*
X15043171Y-3404469D02*
X15041850Y-3408254D01*
X15041850Y-3408254D02*
X15039857Y-3411325D01*
X15039857Y-3411325D02*
X15037303Y-3413799D01*
X15037303Y-3413799D02*
X15034150Y-3415706D01*
X15034150Y-3415706D02*
X15030311Y-3416905D01*
X15030311Y-3416905D02*
X15025393Y-3417003D01*
X15025393Y-3417003D02*
X15024206Y-3416797D01*
X15085674Y-3204402D02*
X15084554Y-3209665D01*
X15084554Y-3209665D02*
X15083303Y-3215544D01*
X15083303Y-3215544D02*
X15081928Y-3222013D01*
X15081928Y-3222013D02*
X15080750Y-3227552D01*
X15080750Y-3227552D02*
X15079826Y-3231899D01*
X15079826Y-3231899D02*
X15078865Y-3236422D01*
X15078865Y-3236422D02*
X15077200Y-3244262D01*
X15077200Y-3244262D02*
X15076160Y-3249153D01*
X15076160Y-3249153D02*
X15074739Y-3255845D01*
X15074739Y-3255845D02*
X15072167Y-3267956D01*
X15072167Y-3267956D02*
X15069115Y-3282327D01*
X15069115Y-3282327D02*
X15065994Y-3297021D01*
X15065994Y-3297021D02*
X15061279Y-3319225D01*
X15061279Y-3319225D02*
X15056679Y-3340892D01*
X15056679Y-3340892D02*
X15053741Y-3354726D01*
X15053741Y-3354726D02*
X15051646Y-3364590D01*
X15051646Y-3364590D02*
X15050472Y-3370116D01*
X15050472Y-3370116D02*
X15049337Y-3375460D01*
X15049337Y-3375460D02*
X15047792Y-3382730D01*
X15047792Y-3382730D02*
X15046631Y-3388193D01*
X15046631Y-3388193D02*
X15045284Y-3394534D01*
X15045284Y-3394534D02*
X15044292Y-3399201D01*
X15044292Y-3399201D02*
X15043171Y-3404469D01*
X15104639Y-3192074D02*
X15099915Y-3191790D01*
X15099915Y-3191790D02*
X15095805Y-3192717D01*
X15095805Y-3192717D02*
X15092436Y-3194439D01*
X15092436Y-3194439D02*
X15089715Y-3196734D01*
X15089715Y-3196734D02*
X15087510Y-3199670D01*
X15087510Y-3199670D02*
X15085975Y-3203221D01*
X15085975Y-3203221D02*
X15085674Y-3204402D01*
X17039273Y-3616060D02*
X17039620Y-3611384D01*
X17039620Y-3611384D02*
X17038760Y-3607189D01*
X17038760Y-3607189D02*
X17037156Y-3603859D01*
X16993384Y-3816245D02*
X16994598Y-3810961D01*
X16994598Y-3810961D02*
X16995672Y-3806282D01*
X16995672Y-3806282D02*
X16996830Y-3801236D01*
X16996830Y-3801236D02*
X16998067Y-3795848D01*
X16998067Y-3795848D02*
X16999710Y-3788683D01*
X16999710Y-3788683D02*
X17000748Y-3784156D01*
X17000748Y-3784156D02*
X17002546Y-3776311D01*
X17002546Y-3776311D02*
X17004046Y-3769771D01*
X17004046Y-3769771D02*
X17005591Y-3763029D01*
X17005591Y-3763029D02*
X17007175Y-3756113D01*
X17007175Y-3756113D02*
X17008387Y-3750824D01*
X17008387Y-3750824D02*
X17010439Y-3741867D01*
X17010439Y-3741867D02*
X17011689Y-3736414D01*
X17011689Y-3736414D02*
X17014633Y-3723560D01*
X17014633Y-3723560D02*
X17018023Y-3708764D01*
X17018023Y-3708764D02*
X17021387Y-3694075D01*
X17021387Y-3694075D02*
X17024679Y-3679706D01*
X17024679Y-3679706D02*
X17027065Y-3669292D01*
X17027065Y-3669292D02*
X17028610Y-3662549D01*
X17028610Y-3662549D02*
X17030109Y-3656007D01*
X17030109Y-3656007D02*
X17031198Y-3651256D01*
X17031198Y-3651256D02*
X17032946Y-3643632D01*
X17032946Y-3643632D02*
X17033944Y-3639279D01*
X17033944Y-3639279D02*
X17035526Y-3632382D01*
X17035526Y-3632382D02*
X17036984Y-3626027D01*
X17036984Y-3626027D02*
X17038058Y-3621347D01*
X17038058Y-3621347D02*
X17039043Y-3617062D01*
X17039043Y-3617062D02*
X17039273Y-3616060D01*
X18849785Y-4242949D02*
X18850052Y-4238180D01*
X18850052Y-4238180D02*
X18849126Y-4234096D01*
X18849126Y-4234096D02*
X18847499Y-4230909D01*
X17026996Y-3596823D02*
X17022706Y-3595920D01*
X17022706Y-3595920D02*
X17012453Y-3593762D01*
X17012453Y-3593762D02*
X16993669Y-3589808D01*
X16993669Y-3589808D02*
X16961846Y-3583109D01*
X16961846Y-3583109D02*
X16933216Y-3577082D01*
X16933216Y-3577082D02*
X16912222Y-3572662D01*
X16912222Y-3572662D02*
X16889662Y-3567912D01*
X16889662Y-3567912D02*
X16865600Y-3562846D01*
X16865600Y-3562846D02*
X16826998Y-3554719D01*
X16826998Y-3554719D02*
X16770628Y-3542851D01*
X16770628Y-3542851D02*
X16709400Y-3529960D01*
X16709400Y-3529960D02*
X16643828Y-3516154D01*
X16643828Y-3516154D02*
X16574421Y-3501540D01*
X16574421Y-3501540D02*
X16501693Y-3486227D01*
X16501693Y-3486227D02*
X16445199Y-3474332D01*
X16445199Y-3474332D02*
X16406824Y-3466252D01*
X16406824Y-3466252D02*
X16308890Y-3445632D01*
X16308890Y-3445632D02*
X16147095Y-3411566D01*
X16147095Y-3411566D02*
X15901367Y-3359826D01*
X15901367Y-3359826D02*
X15665925Y-3310252D01*
X15665925Y-3310252D02*
X15556153Y-3287139D01*
X15556153Y-3287139D02*
X15486816Y-3272540D01*
X15486816Y-3272540D02*
X15437440Y-3262144D01*
X15437440Y-3262144D02*
X15405750Y-3255471D01*
X15405750Y-3255471D02*
X15360185Y-3245878D01*
X15360185Y-3245878D02*
X15303914Y-3234030D01*
X15303914Y-3234030D02*
X15253022Y-3223314D01*
X15253022Y-3223314D02*
X15208022Y-3213840D01*
X15208022Y-3213840D02*
X15169423Y-3205713D01*
X15169423Y-3205713D02*
X15137739Y-3199042D01*
X15137739Y-3199042D02*
X15113482Y-3193936D01*
X15113482Y-3193936D02*
X15104639Y-3192074D01*
X17037156Y-3603859D02*
X17034884Y-3601091D01*
X17034884Y-3601091D02*
X17032065Y-3598873D01*
X17032065Y-3598873D02*
X17028644Y-3597270D01*
X17028644Y-3597270D02*
X17026996Y-3596823D01*
X18837424Y-4223966D02*
X18833289Y-4223090D01*
X18833289Y-4223090D02*
X18826018Y-4221548D01*
X18826018Y-4221548D02*
X18820627Y-4220404D01*
X18820627Y-4220404D02*
X18805437Y-4217183D01*
X18805437Y-4217183D02*
X18775022Y-4210733D01*
X18775022Y-4210733D02*
X18738071Y-4202897D01*
X18738071Y-4202897D02*
X18672113Y-4188909D01*
X18672113Y-4188909D02*
X18564799Y-4166149D01*
X18564799Y-4166149D02*
X18440050Y-4139692D01*
X18440050Y-4139692D02*
X18301738Y-4110358D01*
X18301738Y-4110358D02*
X18191218Y-4086919D01*
X18191218Y-4086919D02*
X18115518Y-4070863D01*
X18115518Y-4070863D02*
X17999905Y-4046343D01*
X17999905Y-4046343D02*
X17766236Y-3996785D01*
X17766236Y-3996785D02*
X17542206Y-3949270D01*
X17542206Y-3949270D02*
X17437680Y-3927101D01*
X17437680Y-3927101D02*
X17371621Y-3913091D01*
X17371621Y-3913091D02*
X17220370Y-3881012D01*
X17220370Y-3881012D02*
X17085288Y-3852362D01*
X17085288Y-3852362D02*
X17024249Y-3839416D01*
X17024249Y-3839416D02*
X17005660Y-3835473D01*
X18847499Y-4230909D02*
X18845214Y-4228115D01*
X18845214Y-4228115D02*
X18842391Y-4225934D01*
X18842391Y-4225934D02*
X18838836Y-4224334D01*
X18838836Y-4224334D02*
X18837424Y-4223966D01*
X22479699Y-5242930D02*
X22472888Y-5241479D01*
X22472888Y-5241479D02*
X22455842Y-5237848D01*
X22455842Y-5237848D02*
X22423301Y-5230918D01*
X22423301Y-5230918D02*
X22381272Y-5221967D01*
X22381272Y-5221967D02*
X22349045Y-5215104D01*
X22349045Y-5215104D02*
X22294653Y-5203520D01*
X22294653Y-5203520D02*
X22210188Y-5185532D01*
X22210188Y-5185532D02*
X22113699Y-5164983D01*
X22113699Y-5164983D02*
X22006238Y-5142098D01*
X22006238Y-5142098D02*
X21888858Y-5117101D01*
X21888858Y-5117101D02*
X21762611Y-5090215D01*
X21762611Y-5090215D02*
X21662520Y-5068900D01*
X21662520Y-5068900D02*
X21593733Y-5054251D01*
X21593733Y-5054251D02*
X21415756Y-5016349D01*
X21415756Y-5016349D02*
X21113376Y-4951955D01*
X21113376Y-4951955D02*
X20798683Y-4884938D01*
X20798683Y-4884938D02*
X20320881Y-4783186D01*
X20320881Y-4783186D02*
X19718646Y-4654936D01*
X19718646Y-4654936D02*
X19335193Y-4573276D01*
X19335193Y-4573276D02*
X19123426Y-4528179D01*
X19123426Y-4528179D02*
X18958282Y-4493010D01*
X18958282Y-4493010D02*
X18872002Y-4474636D01*
X18872002Y-4474636D02*
X18832290Y-4466179D01*
X18832290Y-4466179D02*
X18819220Y-4463395D01*
X7235813Y-3479577D02*
X7226595Y-3523149D01*
X7226595Y-3523149D02*
X7188524Y-3703114D01*
X7188524Y-3703114D02*
X7101964Y-4112292D01*
X7101964Y-4112292D02*
X6998080Y-4603365D01*
X6998080Y-4603365D02*
X6932289Y-4914362D01*
X6932289Y-4914362D02*
X6889878Y-5114846D01*
X6889878Y-5114846D02*
X6866080Y-5227342D01*
X6866080Y-5227342D02*
X6851480Y-5296357D01*
X6851480Y-5296357D02*
X6843317Y-5334944D01*
X6843317Y-5334944D02*
X6836617Y-5366620D01*
X6836617Y-5366620D02*
X6832667Y-5385290D01*
X6832667Y-5385290D02*
X6830515Y-5395465D01*
X6830515Y-5395465D02*
X6829616Y-5399715D01*
X7254778Y-3467241D02*
X7250041Y-3466953D01*
X7250041Y-3466953D02*
X7245949Y-3467872D01*
X7245949Y-3467872D02*
X7242559Y-3469600D01*
X7242559Y-3469600D02*
X7239837Y-3471897D01*
X7239837Y-3471897D02*
X7237659Y-3474794D01*
X7237659Y-3474794D02*
X7236138Y-3478297D01*
X7236138Y-3478297D02*
X7235813Y-3479577D01*
X10988138Y-4256292D02*
X10981858Y-4254965D01*
X10981858Y-4254965D02*
X10965733Y-4251556D01*
X10965733Y-4251556D02*
X10934293Y-4244911D01*
X10934293Y-4244911D02*
X10845937Y-4226237D01*
X10845937Y-4226237D02*
X10578772Y-4169771D01*
X10578772Y-4169771D02*
X10202625Y-4090271D01*
X10202625Y-4090271D02*
X9915532Y-4029594D01*
X9915532Y-4029594D02*
X9447838Y-3930746D01*
X9447838Y-3930746D02*
X8795178Y-3792806D01*
X8795178Y-3792806D02*
X8327475Y-3693956D01*
X8327475Y-3693956D02*
X8040373Y-3633277D01*
X8040373Y-3633277D02*
X7442487Y-3506913D01*
X7442487Y-3506913D02*
X7254778Y-3467241D01*
X13198962Y-3028829D02*
X13194115Y-3028548D01*
X13194115Y-3028548D02*
X13189970Y-3029514D01*
X13189970Y-3029514D02*
X13186640Y-3031247D01*
X13186640Y-3031247D02*
X13183923Y-3033576D01*
X13183923Y-3033576D02*
X13181783Y-3036465D01*
X13181783Y-3036465D02*
X13180280Y-3039987D01*
X13180280Y-3039987D02*
X13179997Y-3041105D01*
X15024206Y-3416797D02*
X15020080Y-3415919D01*
X15020080Y-3415919D02*
X15010250Y-3413829D01*
X15010250Y-3413829D02*
X14998580Y-3411348D01*
X14998580Y-3411348D02*
X14985130Y-3408489D01*
X14985130Y-3408489D02*
X14961953Y-3403562D01*
X14961953Y-3403562D02*
X14925098Y-3395728D01*
X14925098Y-3395728D02*
X14859318Y-3381745D01*
X14859318Y-3381745D02*
X14780265Y-3364942D01*
X14780265Y-3364942D02*
X14722174Y-3352594D01*
X14722174Y-3352594D02*
X14659980Y-3339374D01*
X14659980Y-3339374D02*
X14594166Y-3325385D01*
X14594166Y-3325385D02*
X14525216Y-3310729D01*
X14525216Y-3310729D02*
X14453612Y-3295509D01*
X14453612Y-3295509D02*
X14379836Y-3279828D01*
X14379836Y-3279828D02*
X14304371Y-3263788D01*
X14304371Y-3263788D02*
X14189124Y-3239292D01*
X14189124Y-3239292D02*
X13956220Y-3189787D01*
X13956220Y-3189787D02*
X13661140Y-3127067D01*
X13661140Y-3127067D02*
X13500857Y-3092999D01*
X13500857Y-3092999D02*
X13442779Y-3080654D01*
X13442779Y-3080654D02*
X13363749Y-3063856D01*
X13363749Y-3063856D02*
X13297995Y-3049879D01*
X13297995Y-3049879D02*
X13261160Y-3042050D01*
X13261160Y-3042050D02*
X13230841Y-3035605D01*
X13230841Y-3035605D02*
X13207523Y-3030648D01*
X13207523Y-3030648D02*
X13198962Y-3028829D01*
X22499087Y-5227283D02*
X22498468Y-5231667D01*
X22498468Y-5231667D02*
X22496953Y-5235223D01*
X22496953Y-5235223D02*
X22494799Y-5238127D01*
X22494799Y-5238127D02*
X22493076Y-5239721D01*
X6829616Y-5399715D02*
X6829326Y-5404444D01*
X6829326Y-5404444D02*
X6830250Y-5408559D01*
X6830250Y-5408559D02*
X6831936Y-5411881D01*
X6831936Y-5411881D02*
X6834220Y-5414610D01*
X6834220Y-5414610D02*
X6837073Y-5416780D01*
X6837073Y-5416780D02*
X6840571Y-5418328D01*
X6840571Y-5418328D02*
X6841935Y-5418681D01*
X11007095Y-4243965D02*
X11005787Y-4247734D01*
X11005787Y-4247734D02*
X11003771Y-4250841D01*
X11003771Y-4250841D02*
X11000973Y-4253489D01*
X11000973Y-4253489D02*
X10997779Y-4255329D01*
X10997779Y-4255329D02*
X10993884Y-4256453D01*
X10993884Y-4256453D02*
X10988871Y-4256429D01*
X10988871Y-4256429D02*
X10988138Y-4256292D01*
X11100948Y-3802860D02*
X11097713Y-3818063D01*
X11097713Y-3818063D02*
X11088050Y-3863478D01*
X11088050Y-3863478D02*
X11075570Y-3922136D01*
X11075570Y-3922136D02*
X11061398Y-3988742D01*
X11061398Y-3988742D02*
X11050346Y-4040685D01*
X11050346Y-4040685D02*
X11043049Y-4074985D01*
X11043049Y-4074985D02*
X11032489Y-4124617D01*
X11032489Y-4124617D02*
X11020003Y-4183295D01*
X11020003Y-4183295D02*
X11010334Y-4228741D01*
X11010334Y-4228741D02*
X11007095Y-4243965D01*
X11119845Y-3790524D02*
X11115033Y-3790263D01*
X11115033Y-3790263D02*
X11110940Y-3791222D01*
X11110940Y-3791222D02*
X11107631Y-3792938D01*
X11107631Y-3792938D02*
X11104902Y-3795266D01*
X11104902Y-3795266D02*
X11102747Y-3798168D01*
X11102747Y-3798168D02*
X11101226Y-3801742D01*
X11101226Y-3801742D02*
X11100948Y-3802860D01*
X12921137Y-4164564D02*
X12902908Y-4160779D01*
X12902908Y-4160779D02*
X12842984Y-4148336D01*
X12842984Y-4148336D02*
X12710287Y-4120781D01*
X12710287Y-4120781D02*
X12326917Y-4041173D01*
X12326917Y-4041173D02*
X11867418Y-3945757D01*
X11867418Y-3945757D02*
X11576291Y-3885304D01*
X11576291Y-3885304D02*
X11433216Y-3855594D01*
X11433216Y-3855594D02*
X11403512Y-3849426D01*
X11403512Y-3849426D02*
X11360783Y-3840554D01*
X11360783Y-3840554D02*
X11282757Y-3824352D01*
X11282757Y-3824352D02*
X11217809Y-3810865D01*
X11217809Y-3810865D02*
X11181406Y-3803306D01*
X11181406Y-3803306D02*
X11138097Y-3794314D01*
X11138097Y-3794314D02*
X11119845Y-3790524D01*
X12940034Y-4152279D02*
X12938725Y-4156019D01*
X12938725Y-4156019D02*
X12936740Y-4159075D01*
X12936740Y-4159075D02*
X12934183Y-4161550D01*
X12934183Y-4161550D02*
X12931042Y-4163450D01*
X12931042Y-4163450D02*
X12927227Y-4164648D01*
X12927227Y-4164648D02*
X12922319Y-4164764D01*
X12922319Y-4164764D02*
X12921137Y-4164564D01*
X13179997Y-3041105D02*
X13177827Y-3051151D01*
X13177827Y-3051151D02*
X13175177Y-3063419D01*
X13175177Y-3063419D02*
X13172003Y-3078114D01*
X13172003Y-3078114D02*
X13170253Y-3086214D01*
X13170253Y-3086214D02*
X13169031Y-3091875D01*
X13169031Y-3091875D02*
X13165797Y-3106850D01*
X13165797Y-3106850D02*
X13159993Y-3133723D01*
X13159993Y-3133723D02*
X13153524Y-3163677D01*
X13153524Y-3163677D02*
X13142765Y-3213497D01*
X13142765Y-3213497D02*
X13126530Y-3288676D01*
X13126530Y-3288676D02*
X13113225Y-3350283D01*
X13113225Y-3350283D02*
X13103980Y-3393096D01*
X13103980Y-3393096D02*
X13089663Y-3459390D01*
X13089663Y-3459390D02*
X13069958Y-3550638D01*
X13069958Y-3550638D02*
X13040055Y-3689112D01*
X13040055Y-3689112D02*
X13002038Y-3865157D01*
X13002038Y-3865157D02*
X12969580Y-4015462D01*
X12969580Y-4015462D02*
X12946384Y-4122875D01*
X12946384Y-4122875D02*
X12940034Y-4152279D01*
X6929505Y-7287977D02*
X6924669Y-7287673D01*
X6924669Y-7287673D02*
X6920520Y-7288607D01*
X6920520Y-7288607D02*
X6917407Y-7290161D01*
X22199029Y-8729300D02*
X22198908Y-8734251D01*
X22198908Y-8734251D02*
X22198567Y-8738981D01*
X22198567Y-8738981D02*
X22198030Y-8743492D01*
X22198030Y-8743492D02*
X22197312Y-8747863D01*
X22197312Y-8747863D02*
X22196441Y-8752016D01*
X22196441Y-8752016D02*
X22195411Y-8756066D01*
X22195411Y-8756066D02*
X22194196Y-8760122D01*
X22194196Y-8760122D02*
X22192895Y-8763888D01*
X22192895Y-8763888D02*
X22191435Y-8767619D01*
X22191435Y-8767619D02*
X22189912Y-8771103D01*
X22189912Y-8771103D02*
X22188262Y-8774517D01*
X22188262Y-8774517D02*
X22186488Y-8777857D01*
X22186488Y-8777857D02*
X22184594Y-8781120D01*
X22184594Y-8781120D02*
X22182602Y-8784271D01*
X22182602Y-8784271D02*
X22180541Y-8787281D01*
X22180541Y-8787281D02*
X22178398Y-8790180D01*
X22178398Y-8790180D02*
X22175868Y-8793344D01*
X22175868Y-8793344D02*
X22173514Y-8796067D01*
X22173514Y-8796067D02*
X22170962Y-8798811D01*
X22170962Y-8798811D02*
X22168419Y-8801353D01*
X22168419Y-8801353D02*
X22165786Y-8803803D01*
X22165786Y-8803803D02*
X22162720Y-8806446D01*
X22162720Y-8806446D02*
X22159906Y-8808690D01*
X22159906Y-8808690D02*
X22156935Y-8810888D01*
X22156935Y-8810888D02*
X22153535Y-8813204D01*
X22153535Y-8813204D02*
X22150344Y-8815198D01*
X22150344Y-8815198D02*
X22147109Y-8817056D01*
X22147109Y-8817056D02*
X22143731Y-8818828D01*
X22143731Y-8818828D02*
X22140314Y-8820458D01*
X22140314Y-8820458D02*
X22136687Y-8822017D01*
X22136687Y-8822017D02*
X22132988Y-8823435D01*
X22132988Y-8823435D02*
X22129074Y-8824755D01*
X22129074Y-8824755D02*
X22125090Y-8825915D01*
X22125090Y-8825915D02*
X22121078Y-8826904D01*
X22121078Y-8826904D02*
X22116775Y-8827769D01*
X22116775Y-8827769D02*
X22112290Y-8828463D01*
X22112290Y-8828463D02*
X22107704Y-8828958D01*
X22107704Y-8828958D02*
X22102979Y-8829246D01*
X22102979Y-8829246D02*
X22099207Y-8829317D01*
X22099207Y-8629317D02*
X22104096Y-8629435D01*
X22104096Y-8629435D02*
X22108846Y-8629779D01*
X22108846Y-8629779D02*
X22113379Y-8630320D01*
X22113379Y-8630320D02*
X22117713Y-8631038D01*
X22117713Y-8631038D02*
X22121908Y-8631922D01*
X22121908Y-8631922D02*
X22126129Y-8633007D01*
X22126129Y-8633007D02*
X22130241Y-8634258D01*
X22130241Y-8634258D02*
X22133991Y-8635573D01*
X22133991Y-8635573D02*
X22137636Y-8637016D01*
X22137636Y-8637016D02*
X22141278Y-8638629D01*
X22141278Y-8638629D02*
X22144675Y-8640295D01*
X22144675Y-8640295D02*
X22147999Y-8642085D01*
X22147999Y-8642085D02*
X22151214Y-8643976D01*
X22151214Y-8643976D02*
X22154289Y-8645940D01*
X22154289Y-8645940D02*
X22157286Y-8648012D01*
X22157286Y-8648012D02*
X22160262Y-8650236D01*
X22160262Y-8650236D02*
X22163066Y-8652494D01*
X22163066Y-8652494D02*
X22166008Y-8655050D01*
X22166008Y-8655050D02*
X22168634Y-8657509D01*
X22168634Y-8657509D02*
X22171170Y-8660059D01*
X22171170Y-8660059D02*
X22173714Y-8662811D01*
X22173714Y-8662811D02*
X22176322Y-8665860D01*
X22176322Y-8665860D02*
X22178581Y-8668713D01*
X22178581Y-8668713D02*
X22180715Y-8671619D01*
X22180715Y-8671619D02*
X22182746Y-8674603D01*
X22182746Y-8674603D02*
X22184749Y-8677792D01*
X22184749Y-8677792D02*
X22186635Y-8681060D01*
X22186635Y-8681060D02*
X22188449Y-8684505D01*
X22188449Y-8684505D02*
X22190101Y-8687959D01*
X22190101Y-8687959D02*
X22191667Y-8691591D01*
X22191667Y-8691591D02*
X22193091Y-8695294D01*
X22193091Y-8695294D02*
X22194360Y-8699030D01*
X22194360Y-8699030D02*
X22195503Y-8702905D01*
X22195503Y-8702905D02*
X22196519Y-8706957D01*
X22196519Y-8706957D02*
X22197397Y-8711225D01*
X22197397Y-8711225D02*
X22198106Y-8715674D01*
X22198106Y-8715674D02*
X22198625Y-8720265D01*
X22198625Y-8720265D02*
X22198937Y-8724996D01*
X22198937Y-8724996D02*
X22199029Y-8729300D01*
X6506265Y-11579595D02*
X6506265Y-11579595D01*
X22099207Y-8829317D02*
X22099207Y-8829317D01*
X5591611Y-7562237D02*
X5591491Y-7567188D01*
X5591491Y-7567188D02*
X5591149Y-7571919D01*
X5591149Y-7571919D02*
X5590612Y-7576430D01*
X5590612Y-7576430D02*
X5589892Y-7580800D01*
X5589892Y-7580800D02*
X5589021Y-7584953D01*
X5589021Y-7584953D02*
X5587990Y-7589004D01*
X5587990Y-7589004D02*
X5586808Y-7592950D01*
X5586808Y-7592950D02*
X5585510Y-7596718D01*
X5585510Y-7596718D02*
X5584068Y-7600416D01*
X5584068Y-7600416D02*
X5582532Y-7603937D01*
X5582532Y-7603937D02*
X5580885Y-7607353D01*
X5580885Y-7607353D02*
X5578911Y-7611058D01*
X5578911Y-7611058D02*
X5576927Y-7614443D01*
X5576927Y-7614443D02*
X5574899Y-7617617D01*
X5574899Y-7617617D02*
X5572845Y-7620585D01*
X5572845Y-7620585D02*
X5570688Y-7623474D01*
X5570688Y-7623474D02*
X5568431Y-7626282D01*
X5568431Y-7626282D02*
X5566064Y-7629019D01*
X5566064Y-7629019D02*
X5563627Y-7631641D01*
X5563627Y-7631641D02*
X5561086Y-7634187D01*
X5561086Y-7634187D02*
X5558456Y-7636641D01*
X5558456Y-7636641D02*
X5555739Y-7638999D01*
X5555739Y-7638999D02*
X5552953Y-7641249D01*
X5552953Y-7641249D02*
X5550086Y-7643399D01*
X5550086Y-7643399D02*
X5547095Y-7645479D01*
X5547095Y-7645479D02*
X5543914Y-7647520D01*
X5543914Y-7647520D02*
X5540719Y-7649406D01*
X5540719Y-7649406D02*
X5537215Y-7651295D01*
X5537215Y-7651295D02*
X5533835Y-7652951D01*
X5533835Y-7652951D02*
X5530334Y-7654504D01*
X5530334Y-7654504D02*
X5526674Y-7655958D01*
X5526674Y-7655958D02*
X5522692Y-7657354D01*
X5522692Y-7657354D02*
X5518839Y-7658526D01*
X5518839Y-7658526D02*
X5514660Y-7659607D01*
X5514660Y-7659607D02*
X5510394Y-7660513D01*
X5510394Y-7660513D02*
X5506064Y-7661235D01*
X5506064Y-7661235D02*
X5501400Y-7661794D01*
X5501400Y-7661794D02*
X5496514Y-7662143D01*
X5496514Y-7662143D02*
X5491789Y-7662254D01*
X21716175Y-10042048D02*
X21721057Y-10042166D01*
X21721057Y-10042166D02*
X21725762Y-10042506D01*
X21725762Y-10042506D02*
X21730502Y-10043076D01*
X21730502Y-10043076D02*
X21734792Y-10043794D01*
X21734792Y-10043794D02*
X21739132Y-10044719D01*
X21739132Y-10044719D02*
X21743216Y-10045779D01*
X21743216Y-10045779D02*
X21747177Y-10046988D01*
X21747177Y-10046988D02*
X21750924Y-10048303D01*
X21750924Y-10048303D02*
X21754568Y-10049746D01*
X21754568Y-10049746D02*
X21758210Y-10051359D01*
X21758210Y-10051359D02*
X21761606Y-10053025D01*
X21761606Y-10053025D02*
X21764929Y-10054815D01*
X21764929Y-10054815D02*
X21768144Y-10056705D01*
X21768144Y-10056705D02*
X21771219Y-10058669D01*
X21771219Y-10058669D02*
X21774217Y-10060742D01*
X21774217Y-10060742D02*
X21777194Y-10062965D01*
X21777194Y-10062965D02*
X21779999Y-10065223D01*
X21779999Y-10065223D02*
X21782720Y-10067579D01*
X21782720Y-10067579D02*
X21785677Y-10070342D01*
X21785677Y-10070342D02*
X21788211Y-10072896D01*
X21788211Y-10072896D02*
X21790653Y-10075540D01*
X21790653Y-10075540D02*
X21793000Y-10078271D01*
X21793000Y-10078271D02*
X21795226Y-10081055D01*
X21795226Y-10081055D02*
X21797398Y-10083981D01*
X21797398Y-10083981D02*
X21799444Y-10086955D01*
X21799444Y-10086955D02*
X21801463Y-10090135D01*
X21801463Y-10090135D02*
X21803310Y-10093295D01*
X21803310Y-10093295D02*
X21805077Y-10096594D01*
X21805077Y-10096594D02*
X21806739Y-10100000D01*
X21806739Y-10100000D02*
X21808318Y-10103583D01*
X21808318Y-10103583D02*
X21809787Y-10107308D01*
X21809787Y-10107308D02*
X21811097Y-10111068D01*
X21811097Y-10111068D02*
X21812270Y-10114932D01*
X21812270Y-10114932D02*
X21813307Y-10118935D01*
X21813307Y-10118935D02*
X21814211Y-10123154D01*
X21814211Y-10123154D02*
X21814946Y-10127515D01*
X21814946Y-10127515D02*
X21815499Y-10132016D01*
X21815499Y-10132016D02*
X21815870Y-10136975D01*
X21815870Y-10136975D02*
X21815997Y-10141999D01*
X21815997Y-10141999D02*
X21815997Y-10142039D01*
X21716175Y-10242031D02*
X21711256Y-10241912D01*
X21711256Y-10241912D02*
X21706577Y-10241579D01*
X21706577Y-10241579D02*
X21702038Y-10241045D01*
X21702038Y-10241045D02*
X21697737Y-10240345D01*
X21697737Y-10240345D02*
X21693462Y-10239456D01*
X21693462Y-10239456D02*
X21689255Y-10238388D01*
X21689255Y-10238388D02*
X21685269Y-10237192D01*
X21685269Y-10237192D02*
X21681211Y-10235785D01*
X21681211Y-10235785D02*
X21677604Y-10234366D01*
X21677604Y-10234366D02*
X21673791Y-10232685D01*
X21673791Y-10232685D02*
X21670350Y-10230999D01*
X21670350Y-10230999D02*
X21666918Y-10229151D01*
X21666918Y-10229151D02*
X21663633Y-10227215D01*
X21663633Y-10227215D02*
X21660462Y-10225180D01*
X21660462Y-10225180D02*
X21657465Y-10223097D01*
X21657465Y-10223097D02*
X21654491Y-10220862D01*
X21654491Y-10220862D02*
X21651575Y-10218497D01*
X21651575Y-10218497D02*
X21648890Y-10216152D01*
X21648890Y-10216152D02*
X21646238Y-10213663D01*
X21646238Y-10213663D02*
X21643703Y-10211106D01*
X21643703Y-10211106D02*
X21641199Y-10208390D01*
X21641199Y-10208390D02*
X21638820Y-10205611D01*
X21638820Y-10205611D02*
X21636485Y-10202671D01*
X21636485Y-10202671D02*
X21634347Y-10199766D01*
X21634347Y-10199766D02*
X21632312Y-10196783D01*
X21632312Y-10196783D02*
X21630151Y-10193335D01*
X21630151Y-10193335D02*
X21628318Y-10190143D01*
X21628318Y-10190143D02*
X21626584Y-10186845D01*
X21626584Y-10186845D02*
X21624884Y-10183286D01*
X21624884Y-10183286D02*
X21623323Y-10179650D01*
X21623323Y-10179650D02*
X21621915Y-10175977D01*
X21621915Y-10175977D02*
X21620638Y-10172200D01*
X21620638Y-10172200D02*
X21619469Y-10168208D01*
X21619469Y-10168208D02*
X21618455Y-10164110D01*
X21618455Y-10164110D02*
X21617597Y-10159871D01*
X21617597Y-10159871D02*
X21616910Y-10155490D01*
X21616910Y-10155490D02*
X21616389Y-10150772D01*
X21616389Y-10150772D02*
X21616090Y-10145989D01*
X21616090Y-10145989D02*
X21616014Y-10142039D01*
X21815997Y-10142039D02*
X21815876Y-10146990D01*
X21815876Y-10146990D02*
X21815534Y-10151721D01*
X21815534Y-10151721D02*
X21814997Y-10156231D01*
X21814997Y-10156231D02*
X21814277Y-10160601D01*
X21814277Y-10160601D02*
X21813405Y-10164754D01*
X21813405Y-10164754D02*
X21812384Y-10168767D01*
X21812384Y-10168767D02*
X21811191Y-10172749D01*
X21811191Y-10172749D02*
X21809893Y-10176517D01*
X21809893Y-10176517D02*
X21808274Y-10180636D01*
X21808274Y-10180636D02*
X21806739Y-10184114D01*
X21806739Y-10184114D02*
X21805077Y-10187521D01*
X21805077Y-10187521D02*
X21803291Y-10190853D01*
X21803291Y-10190853D02*
X21801227Y-10194366D01*
X21801227Y-10194366D02*
X21799111Y-10197661D01*
X21799111Y-10197661D02*
X21797047Y-10200622D01*
X21797047Y-10200622D02*
X21794881Y-10203503D01*
X21794881Y-10203503D02*
X21792615Y-10206303D01*
X21792615Y-10206303D02*
X21790265Y-10209004D01*
X21790265Y-10209004D02*
X21787795Y-10211646D01*
X21787795Y-10211646D02*
X21785246Y-10214184D01*
X21785246Y-10214184D02*
X21782608Y-10216628D01*
X21782608Y-10216628D02*
X21779884Y-10218979D01*
X21779884Y-10218979D02*
X21777076Y-10221230D01*
X21777076Y-10221230D02*
X21774187Y-10223382D01*
X21774187Y-10223382D02*
X21771219Y-10225430D01*
X21771219Y-10225430D02*
X21768160Y-10227383D01*
X21768160Y-10227383D02*
X21764962Y-10229262D01*
X21764962Y-10229262D02*
X21761589Y-10231077D01*
X21761589Y-10231077D02*
X21757935Y-10232860D01*
X21757935Y-10232860D02*
X21754323Y-10234446D01*
X21754323Y-10234446D02*
X21750496Y-10235944D01*
X21750496Y-10235944D02*
X21746740Y-10237239D01*
X21746740Y-10237239D02*
X21742809Y-10238419D01*
X21742809Y-10238419D02*
X21738737Y-10239456D01*
X21738737Y-10239456D02*
X21734524Y-10240338D01*
X21734524Y-10240338D02*
X21730192Y-10241048D01*
X21730192Y-10241048D02*
X21725703Y-10241579D01*
X21725703Y-10241579D02*
X21720898Y-10241920D01*
X21720898Y-10241920D02*
X21716175Y-10242031D01*
X21999046Y-8729300D02*
X21999163Y-8724417D01*
X21999163Y-8724417D02*
X21999509Y-8719634D01*
X21999509Y-8719634D02*
X22000046Y-8715129D01*
X22000046Y-8715129D02*
X22000766Y-8710765D01*
X22000766Y-8710765D02*
X22001656Y-8706541D01*
X22001656Y-8706541D02*
X22002691Y-8702496D01*
X22002691Y-8702496D02*
X22003889Y-8698519D01*
X22003889Y-8698519D02*
X22005206Y-8694720D01*
X22005206Y-8694720D02*
X22006773Y-8690746D01*
X22006773Y-8690746D02*
X22008310Y-8687270D01*
X22008310Y-8687270D02*
X22009974Y-8683864D01*
X22009974Y-8683864D02*
X22011771Y-8680515D01*
X22011771Y-8680515D02*
X22013671Y-8677276D01*
X22013671Y-8677276D02*
X22015698Y-8674100D01*
X22015698Y-8674100D02*
X22017752Y-8671129D01*
X22017752Y-8671129D02*
X22019909Y-8668237D01*
X22019909Y-8668237D02*
X22022263Y-8665311D01*
X22022263Y-8665311D02*
X22024623Y-8662587D01*
X22024623Y-8662587D02*
X22027078Y-8659951D01*
X22027078Y-8659951D02*
X22029625Y-8657404D01*
X22029625Y-8657404D02*
X22032263Y-8654950D01*
X22032263Y-8654950D02*
X22034958Y-8652614D01*
X22034958Y-8652614D02*
X22038123Y-8650075D01*
X22038123Y-8650075D02*
X22041299Y-8647729D01*
X22041299Y-8647729D02*
X22044285Y-8645691D01*
X22044285Y-8645691D02*
X22047476Y-8643682D01*
X22047476Y-8643682D02*
X22050698Y-8641818D01*
X22050698Y-8641818D02*
X22054060Y-8640037D01*
X22054060Y-8640037D02*
X22057653Y-8638311D01*
X22057653Y-8638311D02*
X22061288Y-8636739D01*
X22061288Y-8636739D02*
X22064942Y-8635328D01*
X22064942Y-8635328D02*
X22068772Y-8634022D01*
X22068772Y-8634022D02*
X22072652Y-8632873D01*
X22072652Y-8632873D02*
X22076709Y-8631852D01*
X22076709Y-8631852D02*
X22080907Y-8630984D01*
X22080907Y-8630984D02*
X22085283Y-8630276D01*
X22085283Y-8630276D02*
X22089839Y-8629749D01*
X22089839Y-8629749D02*
X22094615Y-8629420D01*
X22094615Y-8629420D02*
X22099207Y-8629317D01*
X22099207Y-8829317D02*
X22094135Y-8829191D01*
X22094135Y-8829191D02*
X22089365Y-8828840D01*
X22089365Y-8828840D02*
X22084854Y-8828297D01*
X22084854Y-8828297D02*
X22080484Y-8827572D01*
X22080484Y-8827572D02*
X22076331Y-8826696D01*
X22076331Y-8826696D02*
X22072317Y-8825672D01*
X22072317Y-8825672D02*
X22068333Y-8824476D01*
X22068333Y-8824476D02*
X22064421Y-8823121D01*
X22064421Y-8823121D02*
X22060706Y-8821662D01*
X22060706Y-8821662D02*
X22057101Y-8820078D01*
X22057101Y-8820078D02*
X22053554Y-8818349D01*
X22053554Y-8818349D02*
X22050252Y-8816579D01*
X22050252Y-8816579D02*
X22047089Y-8814730D01*
X22047089Y-8814730D02*
X22043908Y-8812708D01*
X22043908Y-8812708D02*
X22040809Y-8810572D01*
X22040809Y-8810572D02*
X22037915Y-8808415D01*
X22037915Y-8808415D02*
X22035102Y-8806158D01*
X22035102Y-8806158D02*
X22032402Y-8803828D01*
X22032402Y-8803828D02*
X22029774Y-8801392D01*
X22029774Y-8801392D02*
X22027182Y-8798811D01*
X22027182Y-8798811D02*
X22024749Y-8796207D01*
X22024749Y-8796207D02*
X22022360Y-8793459D01*
X22022360Y-8793459D02*
X22020094Y-8790655D01*
X22020094Y-8790655D02*
X22017928Y-8787769D01*
X22017928Y-8787769D02*
X22015698Y-8784554D01*
X22015698Y-8784554D02*
X22013671Y-8781377D01*
X22013671Y-8781377D02*
X22011762Y-8778120D01*
X22011762Y-8778120D02*
X22009974Y-8774787D01*
X22009974Y-8774787D02*
X22008310Y-8771379D01*
X22008310Y-8771379D02*
X22006729Y-8767795D01*
X22006729Y-8767795D02*
X22005312Y-8764211D01*
X22005312Y-8764211D02*
X22004008Y-8760487D01*
X22004008Y-8760487D02*
X22002816Y-8756586D01*
X22002816Y-8756586D02*
X22001781Y-8752620D01*
X22001781Y-8752620D02*
X22000883Y-8748476D01*
X22000883Y-8748476D02*
X22000148Y-8744193D01*
X22000148Y-8744193D02*
X21999583Y-8739731D01*
X21999583Y-8739731D02*
X21999206Y-8735010D01*
X21999206Y-8735010D02*
X21999049Y-8730068D01*
X21999049Y-8730068D02*
X21999046Y-8729300D01*
X22099207Y-2735171D02*
X22104096Y-2735289D01*
X22104096Y-2735289D02*
X22108846Y-2735632D01*
X22108846Y-2735632D02*
X22113379Y-2736174D01*
X22113379Y-2736174D02*
X22117713Y-2736891D01*
X22117713Y-2736891D02*
X22121908Y-2737776D01*
X22121908Y-2737776D02*
X22126129Y-2738861D01*
X22126129Y-2738861D02*
X22130241Y-2740112D01*
X22130241Y-2740112D02*
X22133991Y-2741426D01*
X22133991Y-2741426D02*
X22137636Y-2742870D01*
X22137636Y-2742870D02*
X22141278Y-2744483D01*
X22141278Y-2744483D02*
X22144675Y-2746149D01*
X22144675Y-2746149D02*
X22147999Y-2747939D01*
X22147999Y-2747939D02*
X22151214Y-2749830D01*
X22151214Y-2749830D02*
X22154289Y-2751794D01*
X22154289Y-2751794D02*
X22157286Y-2753866D01*
X22157286Y-2753866D02*
X22160262Y-2756090D01*
X22160262Y-2756090D02*
X22163066Y-2758348D01*
X22163066Y-2758348D02*
X22166008Y-2760904D01*
X22166008Y-2760904D02*
X22168634Y-2763363D01*
X22168634Y-2763363D02*
X22171170Y-2765913D01*
X22171170Y-2765913D02*
X22173714Y-2768665D01*
X22173714Y-2768665D02*
X22176322Y-2771713D01*
X22176322Y-2771713D02*
X22178581Y-2774567D01*
X22178581Y-2774567D02*
X22180715Y-2777473D01*
X22180715Y-2777473D02*
X22182746Y-2780457D01*
X22182746Y-2780457D02*
X22184749Y-2783646D01*
X22184749Y-2783646D02*
X22186635Y-2786914D01*
X22186635Y-2786914D02*
X22188449Y-2790359D01*
X22188449Y-2790359D02*
X22190101Y-2793813D01*
X22190101Y-2793813D02*
X22191667Y-2797445D01*
X22191667Y-2797445D02*
X22193091Y-2801148D01*
X22193091Y-2801148D02*
X22194360Y-2804884D01*
X22194360Y-2804884D02*
X22195503Y-2808759D01*
X22195503Y-2808759D02*
X22196519Y-2812811D01*
X22196519Y-2812811D02*
X22197397Y-2817079D01*
X22197397Y-2817079D02*
X22198106Y-2821528D01*
X22198106Y-2821528D02*
X22198625Y-2826119D01*
X22198625Y-2826119D02*
X22198937Y-2830850D01*
X22198937Y-2830850D02*
X22199029Y-2835154D01*
X21999046Y-2835154D02*
X21999163Y-2830270D01*
X21999163Y-2830270D02*
X21999509Y-2825488D01*
X21999509Y-2825488D02*
X22000046Y-2820983D01*
X22000046Y-2820983D02*
X22000766Y-2816618D01*
X22000766Y-2816618D02*
X22001656Y-2812395D01*
X22001656Y-2812395D02*
X22002691Y-2808350D01*
X22002691Y-2808350D02*
X22003889Y-2804372D01*
X22003889Y-2804372D02*
X22005206Y-2800574D01*
X22005206Y-2800574D02*
X22006773Y-2796600D01*
X22006773Y-2796600D02*
X22008310Y-2793124D01*
X22008310Y-2793124D02*
X22009974Y-2789718D01*
X22009974Y-2789718D02*
X22011771Y-2786369D01*
X22011771Y-2786369D02*
X22013671Y-2783130D01*
X22013671Y-2783130D02*
X22015698Y-2779954D01*
X22015698Y-2779954D02*
X22017752Y-2776983D01*
X22017752Y-2776983D02*
X22019909Y-2774090D01*
X22019909Y-2774090D02*
X22022263Y-2771164D01*
X22022263Y-2771164D02*
X22024623Y-2768441D01*
X22024623Y-2768441D02*
X22027078Y-2765805D01*
X22027078Y-2765805D02*
X22029625Y-2763258D01*
X22029625Y-2763258D02*
X22032263Y-2760804D01*
X22032263Y-2760804D02*
X22034958Y-2758468D01*
X22034958Y-2758468D02*
X22038123Y-2755929D01*
X22038123Y-2755929D02*
X22041299Y-2753582D01*
X22041299Y-2753582D02*
X22044285Y-2751545D01*
X22044285Y-2751545D02*
X22047476Y-2749536D01*
X22047476Y-2749536D02*
X22050698Y-2747672D01*
X22050698Y-2747672D02*
X22054060Y-2745891D01*
X22054060Y-2745891D02*
X22057653Y-2744165D01*
X22057653Y-2744165D02*
X22061288Y-2742593D01*
X22061288Y-2742593D02*
X22064942Y-2741182D01*
X22064942Y-2741182D02*
X22068772Y-2739876D01*
X22068772Y-2739876D02*
X22072652Y-2738727D01*
X22072652Y-2738727D02*
X22076709Y-2737706D01*
X22076709Y-2737706D02*
X22080907Y-2736838D01*
X22080907Y-2736838D02*
X22085283Y-2736130D01*
X22085283Y-2736130D02*
X22089839Y-2735603D01*
X22089839Y-2735603D02*
X22094615Y-2735274D01*
X22094615Y-2735274D02*
X22099207Y-2735171D01*
X22099207Y-2935170D02*
X22094135Y-2935044D01*
X22094135Y-2935044D02*
X22089365Y-2934693D01*
X22089365Y-2934693D02*
X22084854Y-2934151D01*
X22084854Y-2934151D02*
X22080484Y-2933426D01*
X22080484Y-2933426D02*
X22076331Y-2932550D01*
X22076331Y-2932550D02*
X22072317Y-2931525D01*
X22072317Y-2931525D02*
X22068333Y-2930329D01*
X22068333Y-2930329D02*
X22064421Y-2928974D01*
X22064421Y-2928974D02*
X22060706Y-2927516D01*
X22060706Y-2927516D02*
X22057101Y-2925931D01*
X22057101Y-2925931D02*
X22053554Y-2924203D01*
X22053554Y-2924203D02*
X22050252Y-2922433D01*
X22050252Y-2922433D02*
X22047089Y-2920584D01*
X22047089Y-2920584D02*
X22043908Y-2918562D01*
X22043908Y-2918562D02*
X22040809Y-2916425D01*
X22040809Y-2916425D02*
X22037915Y-2914269D01*
X22037915Y-2914269D02*
X22035102Y-2912012D01*
X22035102Y-2912012D02*
X22032402Y-2909682D01*
X22032402Y-2909682D02*
X22029774Y-2907246D01*
X22029774Y-2907246D02*
X22027182Y-2904665D01*
X22027182Y-2904665D02*
X22024749Y-2902060D01*
X22024749Y-2902060D02*
X22022360Y-2899313D01*
X22022360Y-2899313D02*
X22020094Y-2896509D01*
X22020094Y-2896509D02*
X22017928Y-2893623D01*
X22017928Y-2893623D02*
X22015698Y-2890407D01*
X22015698Y-2890407D02*
X22013671Y-2887231D01*
X22013671Y-2887231D02*
X22011762Y-2883974D01*
X22011762Y-2883974D02*
X22009974Y-2880640D01*
X22009974Y-2880640D02*
X22008310Y-2877233D01*
X22008310Y-2877233D02*
X22006729Y-2873649D01*
X22006729Y-2873649D02*
X22005312Y-2870064D01*
X22005312Y-2870064D02*
X22004008Y-2866341D01*
X22004008Y-2866341D02*
X22002816Y-2862440D01*
X22002816Y-2862440D02*
X22001781Y-2858474D01*
X22001781Y-2858474D02*
X22000883Y-2854330D01*
X22000883Y-2854330D02*
X22000148Y-2850047D01*
X22000148Y-2850047D02*
X21999583Y-2845585D01*
X21999583Y-2845585D02*
X21999206Y-2840864D01*
X21999206Y-2840864D02*
X21999049Y-2835922D01*
X21999049Y-2835922D02*
X21999046Y-2835154D01*
X6553704Y-6392254D02*
X6553671Y-6397249D01*
X6553671Y-6397249D02*
X6553571Y-6402303D01*
X6553571Y-6402303D02*
X6553411Y-6407191D01*
X6553411Y-6407191D02*
X6553192Y-6411988D01*
X6553192Y-6411988D02*
X6552909Y-6416844D01*
X6552909Y-6416844D02*
X6552575Y-6421535D01*
X6552575Y-6421535D02*
X6552069Y-6427468D01*
X6552069Y-6427468D02*
X6551534Y-6432785D01*
X6551534Y-6432785D02*
X6551006Y-6437420D01*
X6551006Y-6437420D02*
X6550441Y-6441891D01*
X6550441Y-6441891D02*
X6549802Y-6446491D01*
X6549802Y-6446491D02*
X6549143Y-6450856D01*
X6549143Y-6450856D02*
X6548421Y-6455277D01*
X6548421Y-6455277D02*
X6547660Y-6459608D01*
X6547660Y-6459608D02*
X6546795Y-6464209D01*
X6546795Y-6464209D02*
X6545932Y-6468504D01*
X6545932Y-6468504D02*
X6545021Y-6472781D01*
X6545021Y-6472781D02*
X6544061Y-6477041D01*
X6544061Y-6477041D02*
X6543053Y-6481282D01*
X6543053Y-6481282D02*
X6541943Y-6485715D01*
X6541943Y-6485715D02*
X6540875Y-6489777D01*
X6540875Y-6489777D02*
X6539762Y-6493822D01*
X6539762Y-6493822D02*
X6538626Y-6497779D01*
X6538626Y-6497779D02*
X6537469Y-6501649D01*
X6537469Y-6501649D02*
X6536097Y-6506051D01*
X6536097Y-6506051D02*
X6534763Y-6510156D01*
X6534763Y-6510156D02*
X6533383Y-6514240D01*
X6533383Y-6514240D02*
X6531958Y-6518304D01*
X6531958Y-6518304D02*
X6530612Y-6522010D01*
X6530612Y-6522010D02*
X6529074Y-6526098D01*
X6529074Y-6526098D02*
X6527623Y-6529832D01*
X6527623Y-6529832D02*
X6526132Y-6533546D01*
X6526132Y-6533546D02*
X6524603Y-6537241D01*
X6524603Y-6537241D02*
X6523036Y-6540916D01*
X6523036Y-6540916D02*
X6521431Y-6544570D01*
X6521431Y-6544570D02*
X6519670Y-6548463D01*
X6519670Y-6548463D02*
X6517987Y-6552075D01*
X6517987Y-6552075D02*
X6516268Y-6555666D01*
X6516268Y-6555666D02*
X6514384Y-6559490D01*
X6514384Y-6559490D02*
X6512329Y-6563542D01*
X6512329Y-6563542D02*
X6510359Y-6567315D01*
X6510359Y-6567315D02*
X6508585Y-6570627D01*
X6508585Y-6570627D02*
X6506709Y-6574043D01*
X6506709Y-6574043D02*
X6504870Y-6577314D01*
X6504870Y-6577314D02*
X6502642Y-6581176D01*
X6502642Y-6581176D02*
X6500479Y-6584827D01*
X6500479Y-6584827D02*
X6498571Y-6587969D01*
X6498571Y-6587969D02*
X6496484Y-6591331D01*
X6496484Y-6591331D02*
X6494363Y-6594669D01*
X6494363Y-6594669D02*
X6492324Y-6597806D01*
X6492324Y-6597806D02*
X6490294Y-6600863D01*
X6490294Y-6600863D02*
X6488115Y-6604073D01*
X6488115Y-6604073D02*
X6486066Y-6607029D01*
X6486066Y-6607029D02*
X6483948Y-6610021D01*
X6483948Y-6610021D02*
X6481802Y-6612992D01*
X6481802Y-6612992D02*
X6479586Y-6615997D01*
X6479586Y-6615997D02*
X6477383Y-6618923D01*
X6477383Y-6618923D02*
X6474980Y-6622049D01*
X6474980Y-6622049D02*
X6472545Y-6625150D01*
X6472545Y-6625150D02*
X6469723Y-6628661D01*
X6469723Y-6628661D02*
X6467400Y-6631489D01*
X6467400Y-6631489D02*
X6464686Y-6634722D01*
X6464686Y-6634722D02*
X6462351Y-6637446D01*
X6462351Y-6637446D02*
X6459898Y-6640253D01*
X6459898Y-6640253D02*
X6457465Y-6642983D01*
X6457465Y-6642983D02*
X6455005Y-6645689D01*
X6455005Y-6645689D02*
X6452519Y-6648371D01*
X6452519Y-6648371D02*
X6450008Y-6651028D01*
X6450008Y-6651028D02*
X6447471Y-6653661D01*
X6447471Y-6653661D02*
X6444116Y-6657067D01*
X6444116Y-6657067D02*
X6441521Y-6659642D01*
X6441521Y-6659642D02*
X6438699Y-6662388D01*
X6438699Y-6662388D02*
X6436053Y-6664911D01*
X6436053Y-6664911D02*
X6433434Y-6667360D01*
X6433434Y-6667360D02*
X6430688Y-6669880D01*
X6430688Y-6669880D02*
X6427758Y-6672513D01*
X6427758Y-6672513D02*
X6425014Y-6674930D01*
X6425014Y-6674930D02*
X6422246Y-6677321D01*
X6422246Y-6677321D02*
X6419454Y-6679685D01*
X6419454Y-6679685D02*
X6416639Y-6682023D01*
X6416639Y-6682023D02*
X6413801Y-6684333D01*
X6413801Y-6684333D02*
X6410499Y-6686965D01*
X6410499Y-6686965D02*
X6407612Y-6689217D01*
X6407612Y-6689217D02*
X6404702Y-6691441D01*
X6404702Y-6691441D02*
X6401771Y-6693638D01*
X6401771Y-6693638D02*
X6398875Y-6695764D01*
X6398875Y-6695764D02*
X6395843Y-6697946D01*
X6395843Y-6697946D02*
X6392904Y-6700017D01*
X6392904Y-6700017D02*
X6389886Y-6702100D01*
X6389886Y-6702100D02*
X6386788Y-6704194D01*
X6386788Y-6704194D02*
X6383727Y-6706220D01*
X6383727Y-6706220D02*
X6380587Y-6708254D01*
X6380587Y-6708254D02*
X6377305Y-6710332D01*
X6377305Y-6710332D02*
X6374181Y-6712267D01*
X6374181Y-6712267D02*
X6370551Y-6714462D01*
X6370551Y-6714462D02*
X6366895Y-6716617D01*
X6366895Y-6716617D02*
X6363644Y-6718487D01*
X6363644Y-6718487D02*
X6360248Y-6720394D01*
X6360248Y-6720394D02*
X6356955Y-6722200D01*
X6356955Y-6722200D02*
X6353266Y-6724172D01*
X6353266Y-6724172D02*
X6349238Y-6726266D01*
X6349238Y-6726266D02*
X6345244Y-6728280D01*
X6345244Y-6728280D02*
X6341351Y-6730187D01*
X6341351Y-6730187D02*
X6337498Y-6732019D01*
X6337498Y-6732019D02*
X6333880Y-6733691D01*
X6333880Y-6733691D02*
X6330242Y-6735326D01*
X6330242Y-6735326D02*
X6326583Y-6736923D01*
X6326583Y-6736923D02*
X6322970Y-6738454D01*
X6322970Y-6738454D02*
X6319403Y-6739922D01*
X6319403Y-6739922D02*
X6315220Y-6741589D01*
X6315220Y-6741589D02*
X6311548Y-6743004D01*
X6311548Y-6743004D02*
X6307251Y-6744604D01*
X6307251Y-6744604D02*
X6303404Y-6745985D01*
X6303404Y-6745985D02*
X6299334Y-6747396D01*
X6299334Y-6747396D02*
X6295242Y-6748760D01*
X6295242Y-6748760D02*
X6291405Y-6749992D01*
X6291405Y-6749992D02*
X6287274Y-6751268D01*
X6287274Y-6751268D02*
X6283400Y-6752416D01*
X6283400Y-6752416D02*
X6279439Y-6753544D01*
X6279439Y-6753544D02*
X6275391Y-6754647D01*
X6275391Y-6754647D02*
X6271325Y-6755706D01*
X6271325Y-6755706D02*
X6267241Y-6756721D01*
X6267241Y-6756721D02*
X6263139Y-6757690D01*
X6263139Y-6757690D02*
X6258665Y-6758693D01*
X6258665Y-6758693D02*
X6254457Y-6759583D01*
X6254457Y-6759583D02*
X6250087Y-6760453D01*
X6250087Y-6760453D02*
X6245772Y-6761260D01*
X6245772Y-6761260D02*
X6241440Y-6762017D01*
X6241440Y-6762017D02*
X6236800Y-6762770D01*
X6236800Y-6762770D02*
X6232434Y-6763424D01*
X6232434Y-6763424D02*
X6227758Y-6764066D01*
X6227758Y-6764066D02*
X6222844Y-6764676D01*
X6222844Y-6764676D02*
X6218058Y-6765207D01*
X6218058Y-6765207D02*
X6212440Y-6765751D01*
X6212440Y-6765751D02*
X6207690Y-6766145D01*
X6207690Y-6766145D02*
X6202028Y-6766536D01*
X6202028Y-6766536D02*
X6197243Y-6766800D01*
X6197243Y-6766800D02*
X6192442Y-6767004D01*
X6192442Y-6767004D02*
X6187550Y-6767149D01*
X6187550Y-6767149D02*
X6182492Y-6767232D01*
X6182492Y-6767232D02*
X6178707Y-6767251D01*
X6178707Y-6017257D02*
X6183701Y-6017289D01*
X6183701Y-6017289D02*
X6189433Y-6017408D01*
X6189433Y-6017408D02*
X6194544Y-6017586D01*
X6194544Y-6017586D02*
X6199413Y-6017820D01*
X6199413Y-6017820D02*
X6204191Y-6018111D01*
X6204191Y-6018111D02*
X6208879Y-6018455D01*
X6208879Y-6018455D02*
X6213625Y-6018864D01*
X6213625Y-6018864D02*
X6218574Y-6019355D01*
X6218574Y-6019355D02*
X6223285Y-6019884D01*
X6223285Y-6019884D02*
X6228051Y-6020480D01*
X6228051Y-6020480D02*
X6232725Y-6021126D01*
X6232725Y-6021126D02*
X6237091Y-6021783D01*
X6237091Y-6021783D02*
X6241729Y-6022539D01*
X6241729Y-6022539D02*
X6246060Y-6023300D01*
X6246060Y-6023300D02*
X6250303Y-6024096D01*
X6250303Y-6024096D02*
X6254671Y-6024969D01*
X6254671Y-6024969D02*
X6259234Y-6025939D01*
X6259234Y-6025939D02*
X6263494Y-6026899D01*
X6263494Y-6026899D02*
X6267735Y-6027907D01*
X6267735Y-6027907D02*
X6272238Y-6029035D01*
X6272238Y-6029035D02*
X6276440Y-6030142D01*
X6276440Y-6030142D02*
X6280414Y-6031237D01*
X6280414Y-6031237D02*
X6284716Y-6032476D01*
X6284716Y-6032476D02*
X6288584Y-6033638D01*
X6288584Y-6033638D02*
X6292778Y-6034951D01*
X6292778Y-6034951D02*
X6296609Y-6036197D01*
X6296609Y-6036197D02*
X6300693Y-6037577D01*
X6300693Y-6037577D02*
X6305026Y-6039099D01*
X6305026Y-6039099D02*
X6309000Y-6040547D01*
X6309000Y-6040547D02*
X6312818Y-6041988D01*
X6312818Y-6041988D02*
X6316551Y-6043443D01*
X6316551Y-6043443D02*
X6320264Y-6044936D01*
X6320264Y-6044936D02*
X6323957Y-6046468D01*
X6323957Y-6046468D02*
X6327826Y-6048123D01*
X6327826Y-6048123D02*
X6331543Y-6049761D01*
X6331543Y-6049761D02*
X6335110Y-6051379D01*
X6335110Y-6051379D02*
X6338785Y-6053094D01*
X6338785Y-6053094D02*
X6342311Y-6054785D01*
X6342311Y-6054785D02*
X6345753Y-6056480D01*
X6345753Y-6056480D02*
X6349238Y-6058242D01*
X6349238Y-6058242D02*
X6352702Y-6060038D01*
X6352702Y-6060038D02*
X6356020Y-6061803D01*
X6356020Y-6061803D02*
X6359504Y-6063702D01*
X6359504Y-6063702D02*
X6362905Y-6065601D01*
X6362905Y-6065601D02*
X6366161Y-6067464D01*
X6366161Y-6067464D02*
X6369579Y-6069467D01*
X6369579Y-6069467D02*
X6372732Y-6071358D01*
X6372732Y-6071358D02*
X6375865Y-6073279D01*
X6375865Y-6073279D02*
X6378978Y-6075229D01*
X6378978Y-6075229D02*
X6382130Y-6077248D01*
X6382130Y-6077248D02*
X6385378Y-6079375D01*
X6385378Y-6079375D02*
X6388661Y-6081574D01*
X6388661Y-6081574D02*
X6391687Y-6083646D01*
X6391687Y-6083646D02*
X6394692Y-6085746D01*
X6394692Y-6085746D02*
X6397676Y-6087875D01*
X6397676Y-6087875D02*
X6401092Y-6090367D01*
X6401092Y-6090367D02*
X6403972Y-6092514D01*
X6403972Y-6092514D02*
X6407110Y-6094903D01*
X6407110Y-6094903D02*
X6410277Y-6097368D01*
X6410277Y-6097368D02*
X6413088Y-6099601D01*
X6413088Y-6099601D02*
X6416857Y-6102664D01*
X6416857Y-6102664D02*
X6419616Y-6104958D01*
X6419616Y-6104958D02*
X6423100Y-6107920D01*
X6423100Y-6107920D02*
X6425861Y-6110319D01*
X6425861Y-6110319D02*
X6428598Y-6112744D01*
X6428598Y-6112744D02*
X6431259Y-6115148D01*
X6431259Y-6115148D02*
X6434155Y-6117817D01*
X6434155Y-6117817D02*
X6437481Y-6120952D01*
X6437481Y-6120952D02*
X6440315Y-6123685D01*
X6440315Y-6123685D02*
X6442922Y-6126249D01*
X6442922Y-6126249D02*
X6445503Y-6128838D01*
X6445503Y-6128838D02*
X6448010Y-6131401D01*
X6448010Y-6131401D02*
X6450735Y-6134244D01*
X6450735Y-6134244D02*
X6453670Y-6137372D01*
X6453670Y-6137372D02*
X6456144Y-6140065D01*
X6456144Y-6140065D02*
X6458591Y-6142782D01*
X6458591Y-6142782D02*
X6461012Y-6145523D01*
X6461012Y-6145523D02*
X6463408Y-6148287D01*
X6463408Y-6148287D02*
X6466273Y-6151668D01*
X6466273Y-6151668D02*
X6468788Y-6154702D01*
X6468788Y-6154702D02*
X6471139Y-6157597D01*
X6471139Y-6157597D02*
X6473418Y-6160462D01*
X6473418Y-6160462D02*
X6475670Y-6163348D01*
X6475670Y-6163348D02*
X6478361Y-6166876D01*
X6478361Y-6166876D02*
X6480760Y-6170095D01*
X6480760Y-6170095D02*
X6483085Y-6173284D01*
X6483085Y-6173284D02*
X6485214Y-6176268D01*
X6485214Y-6176268D02*
X6487435Y-6179447D01*
X6487435Y-6179447D02*
X6489861Y-6183001D01*
X6489861Y-6183001D02*
X6491936Y-6186112D01*
X6491936Y-6186112D02*
X6494210Y-6189601D01*
X6494210Y-6189601D02*
X6496183Y-6192698D01*
X6496183Y-6192698D02*
X6498127Y-6195816D01*
X6498127Y-6195816D02*
X6500041Y-6198954D01*
X6500041Y-6198954D02*
X6501925Y-6202112D01*
X6501925Y-6202112D02*
X6503920Y-6205535D01*
X6503920Y-6205535D02*
X6505845Y-6208919D01*
X6505845Y-6208919D02*
X6507669Y-6212201D01*
X6507669Y-6212201D02*
X6509560Y-6215690D01*
X6509560Y-6215690D02*
X6511382Y-6219138D01*
X6511382Y-6219138D02*
X6513202Y-6222671D01*
X6513202Y-6222671D02*
X6515017Y-6226289D01*
X6515017Y-6226289D02*
X6516732Y-6229801D01*
X6516732Y-6229801D02*
X6518381Y-6233269D01*
X6518381Y-6233269D02*
X6520026Y-6236821D01*
X6520026Y-6236821D02*
X6521634Y-6240393D01*
X6521634Y-6240393D02*
X6523234Y-6244050D01*
X6523234Y-6244050D02*
X6524824Y-6247793D01*
X6524824Y-6247793D02*
X6526347Y-6251491D01*
X6526347Y-6251491D02*
X6527937Y-6255474D01*
X6527937Y-6255474D02*
X6529381Y-6259212D01*
X6529381Y-6259212D02*
X6531351Y-6264517D01*
X6531351Y-6264517D02*
X6532819Y-6268639D01*
X6532819Y-6268639D02*
X6534102Y-6272375D01*
X6534102Y-6272375D02*
X6535369Y-6276196D01*
X6535369Y-6276196D02*
X6536596Y-6280036D01*
X6536596Y-6280036D02*
X6537970Y-6284515D01*
X6537970Y-6284515D02*
X6539110Y-6288392D01*
X6539110Y-6288392D02*
X6540286Y-6292566D01*
X6540286Y-6292566D02*
X6541415Y-6296759D01*
X6541415Y-6296759D02*
X6542496Y-6300971D01*
X6542496Y-6300971D02*
X6543580Y-6305414D01*
X6543580Y-6305414D02*
X6544531Y-6309523D01*
X6544531Y-6309523D02*
X6545452Y-6313720D01*
X6545452Y-6313720D02*
X6546341Y-6318006D01*
X6546341Y-6318006D02*
X6547167Y-6322237D01*
X6547167Y-6322237D02*
X6548009Y-6326847D01*
X6548009Y-6326847D02*
X6548759Y-6331258D01*
X6548759Y-6331258D02*
X6549490Y-6335904D01*
X6549490Y-6335904D02*
X6550154Y-6340497D01*
X6550154Y-6340497D02*
X6550744Y-6344960D01*
X6550744Y-6344960D02*
X6551282Y-6349440D01*
X6551282Y-6349440D02*
X6551781Y-6354083D01*
X6551781Y-6354083D02*
X6552230Y-6358817D01*
X6552230Y-6358817D02*
X6552621Y-6363568D01*
X6552621Y-6363568D02*
X6553002Y-6369156D01*
X6553002Y-6369156D02*
X6553267Y-6374017D01*
X6553267Y-6374017D02*
X6553467Y-6378819D01*
X6553467Y-6378819D02*
X6553613Y-6383938D01*
X6553613Y-6383938D02*
X6553691Y-6389074D01*
X6553691Y-6389074D02*
X6553704Y-6392254D01*
X8845961Y-3504799D02*
X8846078Y-3499916D01*
X8846078Y-3499916D02*
X8846423Y-3495133D01*
X8846423Y-3495133D02*
X8846960Y-3490629D01*
X8846960Y-3490629D02*
X8847680Y-3486264D01*
X8847680Y-3486264D02*
X8848570Y-3482040D01*
X8848570Y-3482040D02*
X8849604Y-3477995D01*
X8849604Y-3477995D02*
X8850802Y-3474018D01*
X8850802Y-3474018D02*
X8852118Y-3470219D01*
X8852118Y-3470219D02*
X8853685Y-3466246D01*
X8853685Y-3466246D02*
X8855221Y-3462769D01*
X8855221Y-3462769D02*
X8856885Y-3459363D01*
X8856885Y-3459363D02*
X8858672Y-3456031D01*
X8858672Y-3456031D02*
X8860522Y-3452872D01*
X8860522Y-3452872D02*
X8862607Y-3449600D01*
X8862607Y-3449600D02*
X8864661Y-3446628D01*
X8864661Y-3446628D02*
X8866818Y-3443736D01*
X8866818Y-3443736D02*
X8869171Y-3440810D01*
X8869171Y-3440810D02*
X8871531Y-3438087D01*
X8871531Y-3438087D02*
X8873959Y-3435477D01*
X8873959Y-3435477D02*
X8876533Y-3432904D01*
X8876533Y-3432904D02*
X8879170Y-3430449D01*
X8879170Y-3430449D02*
X8881865Y-3428113D01*
X8881865Y-3428113D02*
X8885030Y-3425574D01*
X8885030Y-3425574D02*
X8888207Y-3423228D01*
X8888207Y-3423228D02*
X8891193Y-3421191D01*
X8891193Y-3421191D02*
X8894482Y-3419123D01*
X8894482Y-3419123D02*
X8897789Y-3417217D01*
X8897789Y-3417217D02*
X8901106Y-3415468D01*
X8901106Y-3415468D02*
X8904564Y-3413810D01*
X8904564Y-3413810D02*
X8908200Y-3412239D01*
X8908200Y-3412239D02*
X8911909Y-3410808D01*
X8911909Y-3410808D02*
X8915687Y-3409521D01*
X8915687Y-3409521D02*
X8919680Y-3408342D01*
X8919680Y-3408342D02*
X8923703Y-3407334D01*
X8923703Y-3407334D02*
X8927904Y-3406469D01*
X8927904Y-3406469D02*
X8932518Y-3405733D01*
X8932518Y-3405733D02*
X8937042Y-3405223D01*
X8937042Y-3405223D02*
X8941764Y-3404910D01*
X8941764Y-3404910D02*
X8946139Y-3404816D01*
X8946139Y-3604816D02*
X8941223Y-3604698D01*
X8941223Y-3604698D02*
X8936448Y-3604354D01*
X8936448Y-3604354D02*
X8931894Y-3603813D01*
X8931894Y-3603813D02*
X8927596Y-3603108D01*
X8927596Y-3603108D02*
X8923324Y-3602213D01*
X8923324Y-3602213D02*
X8919233Y-3601171D01*
X8919233Y-3601171D02*
X8915229Y-3599970D01*
X8915229Y-3599970D02*
X8911190Y-3598568D01*
X8911190Y-3598568D02*
X8907583Y-3597148D01*
X8907583Y-3597148D02*
X8903873Y-3595515D01*
X8903873Y-3595515D02*
X8900464Y-3593850D01*
X8900464Y-3593850D02*
X8897128Y-3592062D01*
X8897128Y-3592062D02*
X8893901Y-3590173D01*
X8893901Y-3590173D02*
X8890816Y-3588210D01*
X8890816Y-3588210D02*
X8887716Y-3586073D01*
X8887716Y-3586073D02*
X8884703Y-3583825D01*
X8884703Y-3583825D02*
X8881923Y-3581588D01*
X8881923Y-3581588D02*
X8879212Y-3579243D01*
X8879212Y-3579243D02*
X8876560Y-3576778D01*
X8876560Y-3576778D02*
X8873986Y-3574206D01*
X8873986Y-3574206D02*
X8871568Y-3571612D01*
X8871568Y-3571612D02*
X8869195Y-3568876D01*
X8869195Y-3568876D02*
X8866910Y-3566040D01*
X8866910Y-3566040D02*
X8864749Y-3563150D01*
X8864749Y-3563150D02*
X8862691Y-3560182D01*
X8862691Y-3560182D02*
X8860660Y-3557009D01*
X8860660Y-3557009D02*
X8858802Y-3553854D01*
X8858802Y-3553854D02*
X8857023Y-3550559D01*
X8857023Y-3550559D02*
X8855350Y-3547157D01*
X8855350Y-3547157D02*
X8853641Y-3543298D01*
X8853641Y-3543298D02*
X8852225Y-3539713D01*
X8852225Y-3539713D02*
X8850921Y-3535989D01*
X8850921Y-3535989D02*
X8849729Y-3532089D01*
X8849729Y-3532089D02*
X8848694Y-3528122D01*
X8848694Y-3528122D02*
X8847797Y-3523978D01*
X8847797Y-3523978D02*
X8847056Y-3519655D01*
X8847056Y-3519655D02*
X8846486Y-3515113D01*
X8846486Y-3515113D02*
X8846103Y-3510191D01*
X8846103Y-3510191D02*
X8845962Y-3505204D01*
X8845962Y-3505204D02*
X8845961Y-3504799D01*
X21616014Y-10142039D02*
X21616131Y-10137155D01*
X21616131Y-10137155D02*
X21616476Y-10132371D01*
X21616476Y-10132371D02*
X21617034Y-10127709D01*
X21617034Y-10127709D02*
X21617760Y-10123346D01*
X21617760Y-10123346D02*
X21618637Y-10119199D01*
X21618637Y-10119199D02*
X21619674Y-10115155D01*
X21619674Y-10115155D02*
X21620849Y-10111251D01*
X21620849Y-10111251D02*
X21622164Y-10107452D01*
X21622164Y-10107452D02*
X21623612Y-10103759D01*
X21623612Y-10103759D02*
X21625137Y-10100276D01*
X21625137Y-10100276D02*
X21626858Y-10096729D01*
X21626858Y-10096729D02*
X21628639Y-10093394D01*
X21628639Y-10093394D02*
X21630482Y-10090231D01*
X21630482Y-10090231D02*
X21632644Y-10086830D01*
X21632644Y-10086830D02*
X21634696Y-10083858D01*
X21634696Y-10083858D02*
X21636920Y-10080877D01*
X21636920Y-10080877D02*
X21639469Y-10077723D01*
X21639469Y-10077723D02*
X21641863Y-10074982D01*
X21641863Y-10074982D02*
X21644302Y-10072384D01*
X21644302Y-10072384D02*
X21646886Y-10069822D01*
X21646886Y-10069822D02*
X21649533Y-10067379D01*
X21649533Y-10067379D02*
X21652238Y-10065055D01*
X21652238Y-10065055D02*
X21655085Y-10062781D01*
X21655085Y-10062781D02*
X21658230Y-10060458D01*
X21658230Y-10060458D02*
X21661216Y-10058421D01*
X21661216Y-10058421D02*
X21664407Y-10056411D01*
X21664407Y-10056411D02*
X21667628Y-10054547D01*
X21667628Y-10054547D02*
X21670991Y-10052767D01*
X21670991Y-10052767D02*
X21674585Y-10051041D01*
X21674585Y-10051041D02*
X21678221Y-10049469D01*
X21678221Y-10049469D02*
X21681930Y-10048039D01*
X21681930Y-10048039D02*
X21685709Y-10046752D01*
X21685709Y-10046752D02*
X21689665Y-10045583D01*
X21689665Y-10045583D02*
X21693727Y-10044566D01*
X21693727Y-10044566D02*
X21697891Y-10043708D01*
X21697891Y-10043708D02*
X21702272Y-10043002D01*
X21702272Y-10043002D02*
X21706794Y-10042480D01*
X21706794Y-10042480D02*
X21711576Y-10042151D01*
X21711576Y-10042151D02*
X21716175Y-10042048D01*
X5491789Y-7662254D02*
X5486874Y-7662136D01*
X5486874Y-7662136D02*
X5482099Y-7661793D01*
X5482099Y-7661793D02*
X5477544Y-7661251D01*
X5477544Y-7661251D02*
X5473247Y-7660546D01*
X5473247Y-7660546D02*
X5468975Y-7659651D01*
X5468975Y-7659651D02*
X5464884Y-7658609D01*
X5464884Y-7658609D02*
X5460880Y-7657407D01*
X5460880Y-7657407D02*
X5456841Y-7656005D01*
X5456841Y-7656005D02*
X5453233Y-7654585D01*
X5453233Y-7654585D02*
X5449524Y-7652951D01*
X5449524Y-7652951D02*
X5446114Y-7651287D01*
X5446114Y-7651287D02*
X5442778Y-7649498D01*
X5442778Y-7649498D02*
X5439552Y-7647609D01*
X5439552Y-7647609D02*
X5436466Y-7645646D01*
X5436466Y-7645646D02*
X5433367Y-7643509D01*
X5433367Y-7643509D02*
X5430473Y-7641352D01*
X5430473Y-7641352D02*
X5427660Y-7639095D01*
X5427660Y-7639095D02*
X5424960Y-7636766D01*
X5424960Y-7636766D02*
X5422332Y-7634330D01*
X5422332Y-7634330D02*
X5419741Y-7631748D01*
X5419741Y-7631748D02*
X5417307Y-7629144D01*
X5417307Y-7629144D02*
X5414918Y-7626397D01*
X5414918Y-7626397D02*
X5412653Y-7623593D01*
X5412653Y-7623593D02*
X5410487Y-7620707D01*
X5410487Y-7620707D02*
X5408341Y-7617617D01*
X5408341Y-7617617D02*
X5406310Y-7614443D01*
X5406310Y-7614443D02*
X5404453Y-7611288D01*
X5404453Y-7611288D02*
X5402674Y-7607994D01*
X5402674Y-7607994D02*
X5401001Y-7604592D01*
X5401001Y-7604592D02*
X5399292Y-7600733D01*
X5399292Y-7600733D02*
X5397875Y-7597148D01*
X5397875Y-7597148D02*
X5396571Y-7593424D01*
X5396571Y-7593424D02*
X5395380Y-7589524D01*
X5395380Y-7589524D02*
X5394345Y-7585558D01*
X5394345Y-7585558D02*
X5393448Y-7581414D01*
X5393448Y-7581414D02*
X5392713Y-7577130D01*
X5392713Y-7577130D02*
X5392149Y-7572669D01*
X5392149Y-7572669D02*
X5391772Y-7567948D01*
X5391772Y-7567948D02*
X5391614Y-7563006D01*
X5391614Y-7563006D02*
X5391612Y-7562237D01*
X21716175Y-10242031D02*
X21716175Y-10242031D01*
X19160258Y-4127582D02*
X19165147Y-4127700D01*
X19165147Y-4127700D02*
X19169898Y-4128043D01*
X19169898Y-4128043D02*
X19174431Y-4128585D01*
X19174431Y-4128585D02*
X19178767Y-4129302D01*
X19178767Y-4129302D02*
X19182963Y-4130187D01*
X19182963Y-4130187D02*
X19187038Y-4131231D01*
X19187038Y-4131231D02*
X19191009Y-4132428D01*
X19191009Y-4132428D02*
X19194730Y-4133718D01*
X19194730Y-4133718D02*
X19198348Y-4135135D01*
X19198348Y-4135135D02*
X19201897Y-4136687D01*
X19201897Y-4136687D02*
X19205340Y-4138354D01*
X19205340Y-4138354D02*
X19208642Y-4140110D01*
X19208642Y-4140110D02*
X19211934Y-4142025D01*
X19211934Y-4142025D02*
X19215240Y-4144122D01*
X19215240Y-4144122D02*
X19218304Y-4146233D01*
X19218304Y-4146233D02*
X19221226Y-4148409D01*
X19221226Y-4148409D02*
X19224007Y-4150639D01*
X19224007Y-4150639D02*
X19226763Y-4153014D01*
X19226763Y-4153014D02*
X19229402Y-4155461D01*
X19229402Y-4155461D02*
X19231927Y-4157973D01*
X19231927Y-4157973D02*
X19234411Y-4160629D01*
X19234411Y-4160629D02*
X19236775Y-4163345D01*
X19236775Y-4163345D02*
X19239042Y-4166145D01*
X19239042Y-4166145D02*
X19241275Y-4169119D01*
X19241275Y-4169119D02*
X19243347Y-4172099D01*
X19243347Y-4172099D02*
X19245312Y-4175156D01*
X19245312Y-4175156D02*
X19247289Y-4178500D01*
X19247289Y-4178500D02*
X19249086Y-4181826D01*
X19249086Y-4181826D02*
X19250776Y-4185260D01*
X19250776Y-4185260D02*
X19252381Y-4188871D01*
X19252381Y-4188871D02*
X19253806Y-4192448D01*
X19253806Y-4192448D02*
X19255120Y-4196164D01*
X19255120Y-4196164D02*
X19256331Y-4200093D01*
X19256331Y-4200093D02*
X19257402Y-4204165D01*
X19257402Y-4204165D02*
X19258327Y-4208417D01*
X19258327Y-4208417D02*
X19259068Y-4212734D01*
X19259068Y-4212734D02*
X19259639Y-4217268D01*
X19259639Y-4217268D02*
X19260012Y-4222023D01*
X19260012Y-4222023D02*
X19260162Y-4226999D01*
X19260162Y-4226999D02*
X19260164Y-4227565D01*
X19060097Y-4227565D02*
X19060214Y-4222682D01*
X19060214Y-4222682D02*
X19060559Y-4217899D01*
X19060559Y-4217899D02*
X19061096Y-4213394D01*
X19061096Y-4213394D02*
X19061817Y-4209030D01*
X19061817Y-4209030D02*
X19062707Y-4204806D01*
X19062707Y-4204806D02*
X19063742Y-4200761D01*
X19063742Y-4200761D02*
X19064939Y-4196784D01*
X19064939Y-4196784D02*
X19066257Y-4192985D01*
X19066257Y-4192985D02*
X19067824Y-4189011D01*
X19067824Y-4189011D02*
X19069361Y-4185535D01*
X19069361Y-4185535D02*
X19071025Y-4182129D01*
X19071025Y-4182129D02*
X19072822Y-4178780D01*
X19072822Y-4178780D02*
X19074722Y-4175541D01*
X19074722Y-4175541D02*
X19076749Y-4172365D01*
X19076749Y-4172365D02*
X19078803Y-4169394D01*
X19078803Y-4169394D02*
X19080960Y-4166501D01*
X19080960Y-4166501D02*
X19083314Y-4163575D01*
X19083314Y-4163575D02*
X19085674Y-4160852D01*
X19085674Y-4160852D02*
X19088129Y-4158216D01*
X19088129Y-4158216D02*
X19090676Y-4155669D01*
X19090676Y-4155669D02*
X19093313Y-4153215D01*
X19093313Y-4153215D02*
X19096009Y-4150879D01*
X19096009Y-4150879D02*
X19099174Y-4148340D01*
X19099174Y-4148340D02*
X19102350Y-4145993D01*
X19102350Y-4145993D02*
X19105336Y-4143956D01*
X19105336Y-4143956D02*
X19108527Y-4141947D01*
X19108527Y-4141947D02*
X19111748Y-4140083D01*
X19111748Y-4140083D02*
X19115111Y-4138302D01*
X19115111Y-4138302D02*
X19118704Y-4136576D01*
X19118704Y-4136576D02*
X19122339Y-4135004D01*
X19122339Y-4135004D02*
X19125992Y-4133593D01*
X19125992Y-4133593D02*
X19129823Y-4132287D01*
X19129823Y-4132287D02*
X19133703Y-4131138D01*
X19133703Y-4131138D02*
X19137760Y-4130117D01*
X19137760Y-4130117D02*
X19141958Y-4129249D01*
X19141958Y-4129249D02*
X19146334Y-4128541D01*
X19146334Y-4128541D02*
X19150890Y-4128014D01*
X19150890Y-4128014D02*
X19155666Y-4127685D01*
X19155666Y-4127685D02*
X19160258Y-4127582D01*
X21532872Y-11085226D02*
X21532872Y-11085226D01*
X5491789Y-7462255D02*
X5496713Y-7462375D01*
X5496713Y-7462375D02*
X5501380Y-7462712D01*
X5501380Y-7462712D02*
X5506122Y-7463283D01*
X5506122Y-7463283D02*
X5510452Y-7464008D01*
X5510452Y-7464008D02*
X5514660Y-7464904D01*
X5514660Y-7464904D02*
X5518691Y-7465945D01*
X5518691Y-7465945D02*
X5522656Y-7467148D01*
X5522656Y-7467148D02*
X5526549Y-7468510D01*
X5526549Y-7468510D02*
X5530193Y-7469954D01*
X5530193Y-7469954D02*
X5533835Y-7471567D01*
X5533835Y-7471567D02*
X5537232Y-7473233D01*
X5537232Y-7473233D02*
X5540555Y-7475023D01*
X5540555Y-7475023D02*
X5543770Y-7476913D01*
X5543770Y-7476913D02*
X5546845Y-7478878D01*
X5546845Y-7478878D02*
X5549843Y-7480950D01*
X5549843Y-7480950D02*
X5552820Y-7483174D01*
X5552820Y-7483174D02*
X5555624Y-7485432D01*
X5555624Y-7485432D02*
X5558344Y-7487787D01*
X5558344Y-7487787D02*
X5561302Y-7490551D01*
X5561302Y-7490551D02*
X5563835Y-7493105D01*
X5563835Y-7493105D02*
X5566276Y-7495749D01*
X5566276Y-7495749D02*
X5568623Y-7498479D01*
X5568623Y-7498479D02*
X5570848Y-7501263D01*
X5570848Y-7501263D02*
X5573020Y-7504189D01*
X5573020Y-7504189D02*
X5575076Y-7507179D01*
X5575076Y-7507179D02*
X5577084Y-7510343D01*
X5577084Y-7510343D02*
X5578929Y-7513503D01*
X5578929Y-7513503D02*
X5580696Y-7516802D01*
X5580696Y-7516802D02*
X5582357Y-7520207D01*
X5582357Y-7520207D02*
X5583936Y-7523789D01*
X5583936Y-7523789D02*
X5585404Y-7527514D01*
X5585404Y-7527514D02*
X5586713Y-7531274D01*
X5586713Y-7531274D02*
X5587886Y-7535137D01*
X5587886Y-7535137D02*
X5588923Y-7539139D01*
X5588923Y-7539139D02*
X5589827Y-7543358D01*
X5589827Y-7543358D02*
X5590561Y-7547717D01*
X5590561Y-7547717D02*
X5591118Y-7552256D01*
X5591118Y-7552256D02*
X5591477Y-7557015D01*
X5591477Y-7557015D02*
X5591611Y-7561995D01*
X5591611Y-7561995D02*
X5591611Y-7562237D01*
X5391612Y-7562237D02*
X5391729Y-7557354D01*
X5391729Y-7557354D02*
X5392074Y-7552571D01*
X5392074Y-7552571D02*
X5392611Y-7548067D01*
X5392611Y-7548067D02*
X5393331Y-7543702D01*
X5393331Y-7543702D02*
X5394220Y-7539479D01*
X5394220Y-7539479D02*
X5395255Y-7535434D01*
X5395255Y-7535434D02*
X5396452Y-7531456D01*
X5396452Y-7531456D02*
X5397769Y-7527658D01*
X5397769Y-7527658D02*
X5399336Y-7523684D01*
X5399336Y-7523684D02*
X5400872Y-7520207D01*
X5400872Y-7520207D02*
X5402536Y-7516802D01*
X5402536Y-7516802D02*
X5404323Y-7513470D01*
X5404323Y-7513470D02*
X5406173Y-7510310D01*
X5406173Y-7510310D02*
X5408258Y-7507038D01*
X5408258Y-7507038D02*
X5410312Y-7504067D01*
X5410312Y-7504067D02*
X5412468Y-7501174D01*
X5412468Y-7501174D02*
X5414822Y-7498248D01*
X5414822Y-7498248D02*
X5417182Y-7495525D01*
X5417182Y-7495525D02*
X5419610Y-7492916D01*
X5419610Y-7492916D02*
X5422184Y-7490342D01*
X5422184Y-7490342D02*
X5424821Y-7487888D01*
X5424821Y-7487888D02*
X5427516Y-7485552D01*
X5427516Y-7485552D02*
X5430681Y-7483013D01*
X5430681Y-7483013D02*
X5433858Y-7480666D01*
X5433858Y-7480666D02*
X5436844Y-7478629D01*
X5436844Y-7478629D02*
X5440133Y-7476561D01*
X5440133Y-7476561D02*
X5443440Y-7474655D01*
X5443440Y-7474655D02*
X5446756Y-7472907D01*
X5446756Y-7472907D02*
X5450215Y-7471249D01*
X5450215Y-7471249D02*
X5453851Y-7469677D01*
X5453851Y-7469677D02*
X5457559Y-7468246D01*
X5457559Y-7468246D02*
X5461337Y-7466960D01*
X5461337Y-7466960D02*
X5465331Y-7465780D01*
X5465331Y-7465780D02*
X5469354Y-7464773D01*
X5469354Y-7464773D02*
X5473554Y-7463907D01*
X5473554Y-7463907D02*
X5478169Y-7463171D01*
X5478169Y-7463171D02*
X5482692Y-7462661D01*
X5482692Y-7462661D02*
X5487415Y-7462348D01*
X5487415Y-7462348D02*
X5491789Y-7462255D01*
X6178707Y-6017257D02*
X6178707Y-6017257D01*
X19260164Y-4227565D02*
X19260043Y-4232515D01*
X19260043Y-4232515D02*
X19259701Y-4237246D01*
X19259701Y-4237246D02*
X19259164Y-4241757D01*
X19259164Y-4241757D02*
X19258444Y-4246128D01*
X19258444Y-4246128D02*
X19257572Y-4250281D01*
X19257572Y-4250281D02*
X19256551Y-4254294D01*
X19256551Y-4254294D02*
X19255358Y-4258277D01*
X19255358Y-4258277D02*
X19254059Y-4262045D01*
X19254059Y-4262045D02*
X19252440Y-4266165D01*
X19252440Y-4266165D02*
X19250904Y-4269644D01*
X19250904Y-4269644D02*
X19249242Y-4273052D01*
X19249242Y-4273052D02*
X19247456Y-4276385D01*
X19247456Y-4276385D02*
X19245391Y-4279899D01*
X19245391Y-4279899D02*
X19243357Y-4283069D01*
X19243357Y-4283069D02*
X19241297Y-4286034D01*
X19241297Y-4286034D02*
X19239134Y-4288920D01*
X19239134Y-4288920D02*
X19236872Y-4291724D01*
X19236872Y-4291724D02*
X19234549Y-4294402D01*
X19234549Y-4294402D02*
X19232057Y-4297076D01*
X19232057Y-4297076D02*
X19229537Y-4299592D01*
X19229537Y-4299592D02*
X19226944Y-4302005D01*
X19226944Y-4302005D02*
X19224152Y-4304423D01*
X19224152Y-4304423D02*
X19221345Y-4306680D01*
X19221345Y-4306680D02*
X19218335Y-4308924D01*
X19218335Y-4308924D02*
X19215334Y-4310994D01*
X19215334Y-4310994D02*
X19212272Y-4312946D01*
X19212272Y-4312946D02*
X19209103Y-4314807D01*
X19209103Y-4314807D02*
X19205744Y-4316614D01*
X19205744Y-4316614D02*
X19201932Y-4318470D01*
X19201932Y-4318470D02*
X19198366Y-4320029D01*
X19198366Y-4320029D02*
X19194766Y-4321439D01*
X19194766Y-4321439D02*
X19190626Y-4322864D01*
X19190626Y-4322864D02*
X19186704Y-4324029D01*
X19186704Y-4324029D02*
X19182662Y-4325049D01*
X19182662Y-4325049D02*
X19177982Y-4326007D01*
X19177982Y-4326007D02*
X19173615Y-4326692D01*
X19173615Y-4326692D02*
X19168992Y-4327203D01*
X19168992Y-4327203D02*
X19164030Y-4327511D01*
X19164030Y-4327511D02*
X19160258Y-4327581D01*
X21632694Y-10985235D02*
X21632573Y-10990185D01*
X21632573Y-10990185D02*
X21632231Y-10994916D01*
X21632231Y-10994916D02*
X21631693Y-10999427D01*
X21631693Y-10999427D02*
X21630973Y-11003797D01*
X21630973Y-11003797D02*
X21630101Y-11007949D01*
X21630101Y-11007949D02*
X21629080Y-11011962D01*
X21629080Y-11011962D02*
X21627888Y-11015945D01*
X21627888Y-11015945D02*
X21626589Y-11019712D01*
X21626589Y-11019712D02*
X21624971Y-11023831D01*
X21624971Y-11023831D02*
X21623435Y-11027309D01*
X21623435Y-11027309D02*
X21621773Y-11030716D01*
X21621773Y-11030716D02*
X21619988Y-11034049D01*
X21619988Y-11034049D02*
X21617924Y-11037562D01*
X21617924Y-11037562D02*
X21615807Y-11040856D01*
X21615807Y-11040856D02*
X21613744Y-11043817D01*
X21613744Y-11043817D02*
X21611578Y-11046699D01*
X21611578Y-11046699D02*
X21609312Y-11049499D01*
X21609312Y-11049499D02*
X21606962Y-11052200D01*
X21606962Y-11052200D02*
X21604492Y-11054841D01*
X21604492Y-11054841D02*
X21601943Y-11057379D01*
X21601943Y-11057379D02*
X21599305Y-11059824D01*
X21599305Y-11059824D02*
X21596581Y-11062174D01*
X21596581Y-11062174D02*
X21593772Y-11064426D01*
X21593772Y-11064426D02*
X21590883Y-11066577D01*
X21590883Y-11066577D02*
X21587916Y-11068626D01*
X21587916Y-11068626D02*
X21584857Y-11070578D01*
X21584857Y-11070578D02*
X21581659Y-11072458D01*
X21581659Y-11072458D02*
X21578286Y-11074273D01*
X21578286Y-11074273D02*
X21574631Y-11076056D01*
X21574631Y-11076056D02*
X21571019Y-11077641D01*
X21571019Y-11077641D02*
X21567192Y-11079139D01*
X21567192Y-11079139D02*
X21563437Y-11080435D01*
X21563437Y-11080435D02*
X21559505Y-11081614D01*
X21559505Y-11081614D02*
X21555433Y-11082651D01*
X21555433Y-11082651D02*
X21551221Y-11083533D01*
X21551221Y-11083533D02*
X21546889Y-11084243D01*
X21546889Y-11084243D02*
X21542400Y-11084774D01*
X21542400Y-11084774D02*
X21537594Y-11085115D01*
X21537594Y-11085115D02*
X21532872Y-11085226D01*
X5803710Y-6392254D02*
X5803742Y-6387259D01*
X5803742Y-6387259D02*
X5803844Y-6382129D01*
X5803844Y-6382129D02*
X5804051Y-6376116D01*
X5804051Y-6376116D02*
X5804301Y-6371024D01*
X5804301Y-6371024D02*
X5804599Y-6366247D01*
X5804599Y-6366247D02*
X5804956Y-6361487D01*
X5804956Y-6361487D02*
X5805365Y-6356818D01*
X5805365Y-6356818D02*
X5805871Y-6351796D01*
X5805871Y-6351796D02*
X5806407Y-6347088D01*
X5806407Y-6347088D02*
X5806981Y-6342543D01*
X5806981Y-6342543D02*
X5807621Y-6337943D01*
X5807621Y-6337943D02*
X5808282Y-6333579D01*
X5808282Y-6333579D02*
X5809041Y-6328942D01*
X5809041Y-6328942D02*
X5809805Y-6324612D01*
X5809805Y-6324612D02*
X5810618Y-6320299D01*
X5810618Y-6320299D02*
X5811466Y-6316075D01*
X5811466Y-6316075D02*
X5812392Y-6311726D01*
X5812392Y-6311726D02*
X5813352Y-6307467D01*
X5813352Y-6307467D02*
X5814360Y-6303226D01*
X5814360Y-6303226D02*
X5815488Y-6298723D01*
X5815488Y-6298723D02*
X5816594Y-6294520D01*
X5816594Y-6294520D02*
X5817827Y-6290059D01*
X5817827Y-6290059D02*
X5818949Y-6286174D01*
X5818949Y-6286174D02*
X5820112Y-6282307D01*
X5820112Y-6282307D02*
X5821403Y-6278182D01*
X5821403Y-6278182D02*
X5822650Y-6274352D01*
X5822650Y-6274352D02*
X5823936Y-6270539D01*
X5823936Y-6270539D02*
X5825262Y-6266744D01*
X5825262Y-6266744D02*
X5826727Y-6262700D01*
X5826727Y-6262700D02*
X5828338Y-6258409D01*
X5828338Y-6258409D02*
X5829790Y-6254676D01*
X5829790Y-6254676D02*
X5831281Y-6250961D01*
X5831281Y-6250961D02*
X5832920Y-6247004D01*
X5832920Y-6247004D02*
X5834490Y-6243330D01*
X5834490Y-6243330D02*
X5836068Y-6239742D01*
X5836068Y-6239742D02*
X5837743Y-6236044D01*
X5837743Y-6236044D02*
X5839395Y-6232497D01*
X5839395Y-6232497D02*
X5841145Y-6228841D01*
X5841145Y-6228841D02*
X5843028Y-6225017D01*
X5843028Y-6225017D02*
X5845084Y-6220965D01*
X5845084Y-6220965D02*
X5847719Y-6215940D01*
X5847719Y-6215940D02*
X5849608Y-6212449D01*
X5849608Y-6212449D02*
X5851394Y-6209228D01*
X5851394Y-6209228D02*
X5853493Y-6205535D01*
X5853493Y-6205535D02*
X5855344Y-6202355D01*
X5855344Y-6202355D02*
X5857226Y-6199196D01*
X5857226Y-6199196D02*
X5859137Y-6196056D01*
X5859137Y-6196056D02*
X5861116Y-6192877D01*
X5861116Y-6192877D02*
X5863164Y-6189660D01*
X5863164Y-6189660D02*
X5865205Y-6186525D01*
X5865205Y-6186525D02*
X5867237Y-6183469D01*
X5867237Y-6183469D02*
X5869458Y-6180202D01*
X5869458Y-6180202D02*
X5871549Y-6177190D01*
X5871549Y-6177190D02*
X5873670Y-6174200D01*
X5873670Y-6174200D02*
X5875777Y-6171288D01*
X5875777Y-6171288D02*
X5878164Y-6168059D01*
X5878164Y-6168059D02*
X5880542Y-6164912D01*
X5880542Y-6164912D02*
X5882779Y-6162013D01*
X5882779Y-6162013D02*
X5884999Y-6159192D01*
X5884999Y-6159192D02*
X5887512Y-6156065D01*
X5887512Y-6156065D02*
X5889788Y-6153290D01*
X5889788Y-6153290D02*
X5892909Y-6149571D01*
X5892909Y-6149571D02*
X5895845Y-6146158D01*
X5895845Y-6146158D02*
X5899760Y-6141734D01*
X5899760Y-6141734D02*
X5902218Y-6139026D01*
X5902218Y-6139026D02*
X5904893Y-6136137D01*
X5904893Y-6136137D02*
X5907356Y-6133530D01*
X5907356Y-6133530D02*
X5910138Y-6130645D01*
X5910138Y-6130645D02*
X5913297Y-6127441D01*
X5913297Y-6127441D02*
X5916293Y-6124471D01*
X5916293Y-6124471D02*
X5918917Y-6121925D01*
X5918917Y-6121925D02*
X5921514Y-6119452D01*
X5921514Y-6119452D02*
X5924599Y-6116574D01*
X5924599Y-6116574D02*
X5927977Y-6113496D01*
X5927977Y-6113496D02*
X5930918Y-6110876D01*
X5930918Y-6110876D02*
X5933620Y-6108517D01*
X5933620Y-6108517D02*
X5937528Y-6105184D01*
X5937528Y-6105184D02*
X5940285Y-6102887D01*
X5940285Y-6102887D02*
X5943173Y-6100528D01*
X5943173Y-6100528D02*
X5945975Y-6098284D01*
X5945975Y-6098284D02*
X5948855Y-6096023D01*
X5948855Y-6096023D02*
X5951813Y-6093747D01*
X5951813Y-6093747D02*
X5954963Y-6091374D01*
X5954963Y-6091374D02*
X5957912Y-6089200D01*
X5957912Y-6089200D02*
X5961283Y-6086766D01*
X5961283Y-6086766D02*
X5964798Y-6084289D01*
X5964798Y-6084289D02*
X5968285Y-6081891D01*
X5968285Y-6081891D02*
X5971564Y-6079687D01*
X5971564Y-6079687D02*
X5974631Y-6077671D01*
X5974631Y-6077671D02*
X5978196Y-6075381D01*
X5978196Y-6075381D02*
X5981367Y-6073391D01*
X5981367Y-6073391D02*
X5984680Y-6071358D01*
X5984680Y-6071358D02*
X5988808Y-6068891D01*
X5988808Y-6068891D02*
X5991988Y-6067040D01*
X5991988Y-6067040D02*
X5995433Y-6065080D01*
X5995433Y-6065080D02*
X5998902Y-6063155D01*
X5998902Y-6063155D02*
X6002393Y-6061267D01*
X6002393Y-6061267D02*
X6006157Y-6059283D01*
X6006157Y-6059283D02*
X6009947Y-6057341D01*
X6009947Y-6057341D02*
X6014016Y-6055315D01*
X6014016Y-6055315D02*
X6017857Y-6053460D01*
X6017857Y-6053460D02*
X6021721Y-6051647D01*
X6021721Y-6051647D02*
X6025350Y-6049994D01*
X6025350Y-6049994D02*
X6029194Y-6048293D01*
X6029194Y-6048293D02*
X6032733Y-6046773D01*
X6032733Y-6046773D02*
X6036621Y-6045152D01*
X6036621Y-6045152D02*
X6040596Y-6043548D01*
X6040596Y-6043548D02*
X6044327Y-6042091D01*
X6044327Y-6042091D02*
X6048615Y-6040473D01*
X6048615Y-6040473D02*
X6052386Y-6039099D01*
X6052386Y-6039099D02*
X6056177Y-6037764D01*
X6056177Y-6037764D02*
X6059986Y-6036469D01*
X6059986Y-6036469D02*
X6063881Y-6035192D01*
X6063881Y-6035192D02*
X6068209Y-6033829D01*
X6068209Y-6033829D02*
X6072350Y-6032578D01*
X6072350Y-6032578D02*
X6076512Y-6031374D01*
X6076512Y-6031374D02*
X6080694Y-6030217D01*
X6080694Y-6030217D02*
X6085175Y-6029035D01*
X6085175Y-6029035D02*
X6089678Y-6027907D01*
X6089678Y-6027907D02*
X6093919Y-6026899D01*
X6093919Y-6026899D02*
X6098179Y-6025939D01*
X6098179Y-6025939D02*
X6102385Y-6025043D01*
X6102385Y-6025043D02*
X6106752Y-6024166D01*
X6106752Y-6024166D02*
X6111064Y-6023352D01*
X6111064Y-6023352D02*
X6115394Y-6022589D01*
X6115394Y-6022589D02*
X6120031Y-6021829D01*
X6120031Y-6021829D02*
X6124396Y-6021168D01*
X6124396Y-6021168D02*
X6128996Y-6020529D01*
X6128996Y-6020529D02*
X6133540Y-6019954D01*
X6133540Y-6019954D02*
X6138101Y-6019434D01*
X6138101Y-6019434D02*
X6143122Y-6018926D01*
X6143122Y-6018926D02*
X6147940Y-6018503D01*
X6147940Y-6018503D02*
X6152700Y-6018146D01*
X6152700Y-6018146D02*
X6157476Y-6017849D01*
X6157476Y-6017849D02*
X6162269Y-6017611D01*
X6162269Y-6017611D02*
X6167377Y-6017425D01*
X6167377Y-6017425D02*
X6173107Y-6017298D01*
X6173107Y-6017298D02*
X6178707Y-6017257D01*
X6178707Y-6767251D02*
X6173712Y-6767219D01*
X6173712Y-6767219D02*
X6168582Y-6767117D01*
X6168582Y-6767117D02*
X6163469Y-6766946D01*
X6163469Y-6766946D02*
X6158374Y-6766708D01*
X6158374Y-6766708D02*
X6153594Y-6766422D01*
X6153594Y-6766422D02*
X6148831Y-6766076D01*
X6148831Y-6766076D02*
X6144084Y-6765671D01*
X6144084Y-6765671D02*
X6139429Y-6765215D01*
X6139429Y-6765215D02*
X6134642Y-6764684D01*
X6134642Y-6764684D02*
X6129947Y-6764104D01*
X6129947Y-6764104D02*
X6124979Y-6763424D01*
X6124979Y-6763424D02*
X6120322Y-6762724D01*
X6120322Y-6762724D02*
X6115756Y-6761980D01*
X6115756Y-6761980D02*
X6111136Y-6761168D01*
X6111136Y-6761168D02*
X6106752Y-6760342D01*
X6106752Y-6760342D02*
X6102528Y-6759494D01*
X6102528Y-6759494D02*
X6098179Y-6758568D01*
X6098179Y-6758568D02*
X6093919Y-6757609D01*
X6093919Y-6757609D02*
X6089678Y-6756601D01*
X6089678Y-6756601D02*
X6085245Y-6755491D01*
X6085245Y-6755491D02*
X6081253Y-6754441D01*
X6081253Y-6754441D02*
X6077069Y-6753290D01*
X6077069Y-6753290D02*
X6073112Y-6752153D01*
X6073112Y-6752153D02*
X6069242Y-6750995D01*
X6069242Y-6750995D02*
X6064910Y-6749645D01*
X6064910Y-6749645D02*
X6061077Y-6748401D01*
X6061077Y-6748401D02*
X6057263Y-6747117D01*
X6057263Y-6747117D02*
X6053467Y-6745794D01*
X6053467Y-6745794D02*
X6048884Y-6744134D01*
X6048884Y-6744134D02*
X6045196Y-6742750D01*
X6045196Y-6742750D02*
X6041394Y-6741275D01*
X6041394Y-6741275D02*
X6037679Y-6739787D01*
X6037679Y-6739787D02*
X6033785Y-6738178D01*
X6033785Y-6738178D02*
X6030045Y-6736584D01*
X6030045Y-6736584D02*
X6026130Y-6734863D01*
X6026130Y-6734863D02*
X6022497Y-6733218D01*
X6022497Y-6733218D02*
X6018885Y-6731535D01*
X6018885Y-6731535D02*
X6015358Y-6729846D01*
X6015358Y-6729846D02*
X6011978Y-6728185D01*
X6011978Y-6728185D02*
X6008175Y-6726266D01*
X6008175Y-6726266D02*
X6004146Y-6724172D01*
X6004146Y-6724172D02*
X6000644Y-6722301D01*
X6000644Y-6722301D02*
X5997351Y-6720497D01*
X5997351Y-6720497D02*
X5993954Y-6718592D01*
X5993954Y-6718592D02*
X5990579Y-6716652D01*
X5990579Y-6716652D02*
X5987347Y-6714751D01*
X5987347Y-6714751D02*
X5984137Y-6712819D01*
X5984137Y-6712819D02*
X5980827Y-6710781D01*
X5980827Y-6710781D02*
X5977719Y-6708824D01*
X5977719Y-6708824D02*
X5974454Y-6706721D01*
X5974454Y-6706721D02*
X5971329Y-6704664D01*
X5971329Y-6704664D02*
X5968227Y-6702577D01*
X5968227Y-6702577D02*
X5965262Y-6700541D01*
X5965262Y-6700541D02*
X5962260Y-6698436D01*
X5962260Y-6698436D02*
X5959337Y-6696343D01*
X5959337Y-6696343D02*
X5956095Y-6693973D01*
X5956095Y-6693973D02*
X5952486Y-6691271D01*
X5952486Y-6691271D02*
X5949133Y-6688700D01*
X5949133Y-6688700D02*
X5946251Y-6686442D01*
X5946251Y-6686442D02*
X5943392Y-6684157D01*
X5943392Y-6684157D02*
X5940556Y-6681844D01*
X5940556Y-6681844D02*
X5937366Y-6679187D01*
X5937366Y-6679187D02*
X5934366Y-6676634D01*
X5934366Y-6676634D02*
X5931552Y-6674189D01*
X5931552Y-6674189D02*
X5928815Y-6671763D01*
X5928815Y-6671763D02*
X5925894Y-6669122D01*
X5925894Y-6669122D02*
X5923258Y-6666691D01*
X5923258Y-6666691D02*
X5920136Y-6663750D01*
X5920136Y-6663750D02*
X5917551Y-6661264D01*
X5917551Y-6661264D02*
X5914891Y-6658655D01*
X5914891Y-6658655D02*
X5912306Y-6656070D01*
X5912306Y-6656070D02*
X5909550Y-6653258D01*
X5909550Y-6653258D02*
X5905905Y-6649447D01*
X5905905Y-6649447D02*
X5903170Y-6646517D01*
X5903170Y-6646517D02*
X5900514Y-6643609D01*
X5900514Y-6643609D02*
X5898074Y-6640885D01*
X5898074Y-6640885D02*
X5895661Y-6638137D01*
X5895661Y-6638137D02*
X5893274Y-6635365D01*
X5893274Y-6635365D02*
X5890914Y-6632570D01*
X5890914Y-6632570D02*
X5888046Y-6629098D01*
X5888046Y-6629098D02*
X5885745Y-6626251D01*
X5885745Y-6626251D02*
X5883473Y-6623382D01*
X5883473Y-6623382D02*
X5881099Y-6620322D01*
X5881099Y-6620322D02*
X5878840Y-6617350D01*
X5878840Y-6617350D02*
X5876318Y-6613958D01*
X5876318Y-6613958D02*
X5874163Y-6610995D01*
X5874163Y-6610995D02*
X5872036Y-6608009D01*
X5872036Y-6608009D02*
X5869938Y-6605003D01*
X5869938Y-6605003D02*
X5867552Y-6601507D01*
X5867552Y-6601507D02*
X5865477Y-6598396D01*
X5865477Y-6598396D02*
X5863394Y-6595203D01*
X5863394Y-6595203D02*
X5861380Y-6592048D01*
X5861380Y-6592048D02*
X5859323Y-6588752D01*
X5859323Y-6588752D02*
X5857226Y-6585311D01*
X5857226Y-6585311D02*
X5855200Y-6581908D01*
X5855200Y-6581908D02*
X5853246Y-6578543D01*
X5853246Y-6578543D02*
X5851394Y-6575280D01*
X5851394Y-6575280D02*
X5849608Y-6572058D01*
X5849608Y-6572058D02*
X5847586Y-6568317D01*
X5847586Y-6568317D02*
X5845736Y-6564803D01*
X5845736Y-6564803D02*
X5843954Y-6561330D01*
X5843954Y-6561330D02*
X5842270Y-6557964D01*
X5842270Y-6557964D02*
X5840619Y-6554578D01*
X5840619Y-6554578D02*
X5838941Y-6551045D01*
X5838941Y-6551045D02*
X5837269Y-6547427D01*
X5837269Y-6547427D02*
X5835548Y-6543593D01*
X5835548Y-6543593D02*
X5833925Y-6539868D01*
X5833925Y-6539868D02*
X5832369Y-6536188D01*
X5832369Y-6536188D02*
X5830851Y-6532487D01*
X5830851Y-6532487D02*
X5829267Y-6528501D01*
X5829267Y-6528501D02*
X5827728Y-6524492D01*
X5827728Y-6524492D02*
X5826258Y-6520529D01*
X5826258Y-6520529D02*
X5824879Y-6516681D01*
X5824879Y-6516681D02*
X5823565Y-6512881D01*
X5823565Y-6512881D02*
X5822289Y-6509063D01*
X5822289Y-6509063D02*
X5820989Y-6505021D01*
X5820989Y-6505021D02*
X5819609Y-6500545D01*
X5819609Y-6500545D02*
X5818443Y-6496601D01*
X5818443Y-6496601D02*
X5817281Y-6492499D01*
X5817281Y-6492499D02*
X5816146Y-6488309D01*
X5816146Y-6488309D02*
X5815058Y-6484099D01*
X5815058Y-6484099D02*
X5813749Y-6478739D01*
X5813749Y-6478739D02*
X5812786Y-6474558D01*
X5812786Y-6474558D02*
X5811840Y-6470217D01*
X5811840Y-6470217D02*
X5810958Y-6465929D01*
X5810958Y-6465929D02*
X5810138Y-6461695D01*
X5810138Y-6461695D02*
X5809303Y-6457083D01*
X5809303Y-6457083D02*
X5808513Y-6452380D01*
X5808513Y-6452380D02*
X5807835Y-6448021D01*
X5807835Y-6448021D02*
X5807168Y-6443353D01*
X5807168Y-6443353D02*
X5806568Y-6438741D01*
X5806568Y-6438741D02*
X5806040Y-6434258D01*
X5806040Y-6434258D02*
X5805457Y-6428651D01*
X5805457Y-6428651D02*
X5805029Y-6423911D01*
X5805029Y-6423911D02*
X5804661Y-6419154D01*
X5804661Y-6419154D02*
X5804335Y-6414082D01*
X5804335Y-6414082D02*
X5804090Y-6409291D01*
X5804090Y-6409291D02*
X5803887Y-6403884D01*
X5803887Y-6403884D02*
X5803765Y-6398759D01*
X5803765Y-6398759D02*
X5803712Y-6393618D01*
X5803712Y-6393618D02*
X5803710Y-6392254D01*
X19160258Y-4327581D02*
X19155186Y-4327455D01*
X19155186Y-4327455D02*
X19150416Y-4327105D01*
X19150416Y-4327105D02*
X19145905Y-4326562D01*
X19145905Y-4326562D02*
X19141535Y-4325837D01*
X19141535Y-4325837D02*
X19137382Y-4324961D01*
X19137382Y-4324961D02*
X19133368Y-4323936D01*
X19133368Y-4323936D02*
X19129384Y-4322740D01*
X19129384Y-4322740D02*
X19125471Y-4321386D01*
X19125471Y-4321386D02*
X19121757Y-4319927D01*
X19121757Y-4319927D02*
X19118151Y-4318343D01*
X19118151Y-4318343D02*
X19114605Y-4316614D01*
X19114605Y-4316614D02*
X19111302Y-4314844D01*
X19111302Y-4314844D02*
X19108140Y-4312995D01*
X19108140Y-4312995D02*
X19104958Y-4310973D01*
X19104958Y-4310973D02*
X19101859Y-4308836D01*
X19101859Y-4308836D02*
X19098965Y-4306680D01*
X19098965Y-4306680D02*
X19096153Y-4304423D01*
X19096153Y-4304423D02*
X19093453Y-4302093D01*
X19093453Y-4302093D02*
X19090825Y-4299657D01*
X19090825Y-4299657D02*
X19088233Y-4297076D01*
X19088233Y-4297076D02*
X19085799Y-4294471D01*
X19085799Y-4294471D02*
X19083410Y-4291724D01*
X19083410Y-4291724D02*
X19081144Y-4288920D01*
X19081144Y-4288920D02*
X19078979Y-4286034D01*
X19078979Y-4286034D02*
X19076749Y-4282819D01*
X19076749Y-4282819D02*
X19074722Y-4279642D01*
X19074722Y-4279642D02*
X19072813Y-4276385D01*
X19072813Y-4276385D02*
X19071025Y-4273052D01*
X19071025Y-4273052D02*
X19069361Y-4269644D01*
X19069361Y-4269644D02*
X19067780Y-4266060D01*
X19067780Y-4266060D02*
X19066363Y-4262475D01*
X19066363Y-4262475D02*
X19065058Y-4258752D01*
X19065058Y-4258752D02*
X19063867Y-4254851D01*
X19063867Y-4254851D02*
X19062831Y-4250885D01*
X19062831Y-4250885D02*
X19061934Y-4246741D01*
X19061934Y-4246741D02*
X19061198Y-4242458D01*
X19061198Y-4242458D02*
X19060634Y-4237996D01*
X19060634Y-4237996D02*
X19060257Y-4233275D01*
X19060257Y-4233275D02*
X19060100Y-4228333D01*
X19060100Y-4228333D02*
X19060097Y-4227565D01*
X5491789Y-7662254D02*
X5491789Y-7662254D01*
X19160258Y-4327581D02*
X19160258Y-4327581D01*
X9045961Y-3504799D02*
X9045840Y-3509751D01*
X9045840Y-3509751D02*
X9045498Y-3514482D01*
X9045498Y-3514482D02*
X9044961Y-3518993D01*
X9044961Y-3518993D02*
X9044183Y-3523671D01*
X9044183Y-3523671D02*
X9043272Y-3527933D01*
X9043272Y-3527933D02*
X9042225Y-3531977D01*
X9042225Y-3531977D02*
X9041015Y-3535953D01*
X9041015Y-3535953D02*
X9039700Y-3539713D01*
X9039700Y-3539713D02*
X9038242Y-3543403D01*
X9038242Y-3543403D02*
X9036707Y-3546882D01*
X9036707Y-3546882D02*
X9035045Y-3550290D01*
X9035045Y-3550290D02*
X9033260Y-3553623D01*
X9033260Y-3553623D02*
X9031276Y-3557009D01*
X9031276Y-3557009D02*
X9029248Y-3560182D01*
X9029248Y-3560182D02*
X9027194Y-3563150D01*
X9027194Y-3563150D02*
X9025037Y-3566040D01*
X9025037Y-3566040D02*
X9022780Y-3568847D01*
X9022780Y-3568847D02*
X9020413Y-3571584D01*
X9020413Y-3571584D02*
X9017977Y-3574206D01*
X9017977Y-3574206D02*
X9015435Y-3576752D01*
X9015435Y-3576752D02*
X9012805Y-3579205D01*
X9012805Y-3579205D02*
X9010088Y-3581564D01*
X9010088Y-3581564D02*
X9007302Y-3583813D01*
X9007302Y-3583813D02*
X9004435Y-3585963D01*
X9004435Y-3585963D02*
X9001444Y-3588043D01*
X9001444Y-3588043D02*
X8998263Y-3590084D01*
X8998263Y-3590084D02*
X8995068Y-3591969D01*
X8995068Y-3591969D02*
X8991564Y-3593859D01*
X8991564Y-3593859D02*
X8988184Y-3595515D01*
X8988184Y-3595515D02*
X8984683Y-3597067D01*
X8984683Y-3597067D02*
X8981023Y-3598521D01*
X8981023Y-3598521D02*
X8977041Y-3599916D01*
X8977041Y-3599916D02*
X8973188Y-3601088D01*
X8973188Y-3601088D02*
X8969009Y-3602169D01*
X8969009Y-3602169D02*
X8964744Y-3603075D01*
X8964744Y-3603075D02*
X8960414Y-3603797D01*
X8960414Y-3603797D02*
X8955749Y-3604356D01*
X8955749Y-3604356D02*
X8950863Y-3604705D01*
X8950863Y-3604705D02*
X8946139Y-3604816D01*
X8946139Y-3404816D02*
X8951062Y-3404936D01*
X8951062Y-3404936D02*
X8955730Y-3405274D01*
X8955730Y-3405274D02*
X8960472Y-3405844D01*
X8960472Y-3405844D02*
X8964801Y-3406569D01*
X8964801Y-3406569D02*
X8969009Y-3407466D01*
X8969009Y-3407466D02*
X8973040Y-3408507D01*
X8973040Y-3408507D02*
X8977005Y-3409710D01*
X8977005Y-3409710D02*
X8980899Y-3411072D01*
X8980899Y-3411072D02*
X8984543Y-3412515D01*
X8984543Y-3412515D02*
X8988184Y-3414128D01*
X8988184Y-3414128D02*
X8991581Y-3415795D01*
X8991581Y-3415795D02*
X8994904Y-3417584D01*
X8994904Y-3417584D02*
X8998119Y-3419475D01*
X8998119Y-3419475D02*
X9001194Y-3421439D01*
X9001194Y-3421439D02*
X9004192Y-3423512D01*
X9004192Y-3423512D02*
X9007169Y-3425735D01*
X9007169Y-3425735D02*
X9009973Y-3427993D01*
X9009973Y-3427993D02*
X9012694Y-3430349D01*
X9012694Y-3430349D02*
X9015651Y-3433112D01*
X9015651Y-3433112D02*
X9018184Y-3435667D01*
X9018184Y-3435667D02*
X9020625Y-3438310D01*
X9020625Y-3438310D02*
X9022972Y-3441041D01*
X9022972Y-3441041D02*
X9025198Y-3443825D01*
X9025198Y-3443825D02*
X9027369Y-3446751D01*
X9027369Y-3446751D02*
X9029425Y-3449741D01*
X9029425Y-3449741D02*
X9031433Y-3452904D01*
X9031433Y-3452904D02*
X9033279Y-3456064D01*
X9033279Y-3456064D02*
X9035045Y-3459363D01*
X9035045Y-3459363D02*
X9036707Y-3462769D01*
X9036707Y-3462769D02*
X9038286Y-3466351D01*
X9038286Y-3466351D02*
X9039753Y-3470076D01*
X9039753Y-3470076D02*
X9041063Y-3473836D01*
X9041063Y-3473836D02*
X9042235Y-3477698D01*
X9042235Y-3477698D02*
X9043272Y-3481701D01*
X9043272Y-3481701D02*
X9044176Y-3485919D01*
X9044176Y-3485919D02*
X9044911Y-3490279D01*
X9044911Y-3490279D02*
X9045467Y-3494818D01*
X9045467Y-3494818D02*
X9045826Y-3499577D01*
X9045826Y-3499577D02*
X9045960Y-3504557D01*
X9045960Y-3504557D02*
X9045961Y-3504799D01*
X7389000Y-7372000D02*
X7387709Y-7375745D01*
X7387709Y-7375745D02*
X7385746Y-7378809D01*
X7385746Y-7378809D02*
X7383069Y-7381404D01*
X7383069Y-7381404D02*
X7382032Y-7382135D01*
D11*
X5387000Y-2730000D02*
X5597000Y-2940000D01*
X5597000Y-2730000D02*
X5387000Y-2940000D01*
X8841000Y-3400000D02*
X9051000Y-3610000D01*
X9051000Y-3400000D02*
X8841000Y-3610000D01*
X9660000Y-2730000D02*
X9870000Y-2940000D01*
X9870000Y-2730000D02*
X9660000Y-2940000D01*
X19055000Y-4122000D02*
X19265000Y-4332000D01*
X19265000Y-4122000D02*
X19055000Y-4332000D01*
X13871000Y-2730000D02*
X14081000Y-2940000D01*
X14081000Y-2730000D02*
X13871000Y-2940000D01*
X21994000Y-2730000D02*
X22204000Y-2940000D01*
X22204000Y-2730000D02*
X21994000Y-2940000D01*
X21611000Y-10038000D02*
X21821000Y-10248000D01*
X21821000Y-10038000D02*
X21611000Y-10248000D01*
X21994000Y-8624000D02*
X22204000Y-8834000D01*
X22204000Y-8624000D02*
X21994000Y-8834000D01*
X21428000Y-10880000D02*
X21638000Y-11090000D01*
X21638000Y-10880000D02*
X21428000Y-11090000D01*
X21252000Y-11725000D02*
X21462000Y-11935000D01*
X21462000Y-11725000D02*
X21252000Y-11935000D01*
X5386000Y-7457000D02*
X5596000Y-7667000D01*
X5596000Y-7457000D02*
X5386000Y-7667000D01*
X14257000Y-13802000D02*
X14467000Y-14012000D01*
X14467000Y-13802000D02*
X14257000Y-14012000D01*
X21994000Y-14633000D02*
X22204000Y-14843000D01*
X22204000Y-14633000D02*
X21994000Y-14843000D01*
X6401000Y-11375000D02*
X6611000Y-11585000D01*
X6611000Y-11375000D02*
X6401000Y-11585000D01*
X5387000Y-13802000D02*
X5597000Y-14012000D01*
X5597000Y-13802000D02*
X5387000Y-14012000D01*
D12*
X5375541Y-15603386D02*
X5375541Y-15303386D01*
X5446969Y-15303386D01*
X5489826Y-15317671D01*
X5518398Y-15346243D01*
X5532684Y-15374814D01*
X5546969Y-15431957D01*
X5546969Y-15474814D01*
X5532684Y-15531957D01*
X5518398Y-15560528D01*
X5489826Y-15589100D01*
X5446969Y-15603386D01*
X5375541Y-15603386D01*
X5675541Y-15603386D02*
X5675541Y-15403386D01*
X5675541Y-15460528D02*
X5689826Y-15431957D01*
X5704112Y-15417671D01*
X5732684Y-15403386D01*
X5761255Y-15403386D01*
X5861255Y-15603386D02*
X5861255Y-15403386D01*
X5861255Y-15303386D02*
X5846969Y-15317671D01*
X5861255Y-15331957D01*
X5875541Y-15317671D01*
X5861255Y-15303386D01*
X5861255Y-15331957D01*
X6046969Y-15603386D02*
X6018398Y-15589100D01*
X6004112Y-15560528D01*
X6004112Y-15303386D01*
X6204112Y-15603386D02*
X6175541Y-15589100D01*
X6161255Y-15560528D01*
X6161255Y-15303386D01*
X6546969Y-15603386D02*
X6546969Y-15303386D01*
X6646969Y-15517671D01*
X6746969Y-15303386D01*
X6746969Y-15603386D01*
X7018398Y-15603386D02*
X7018398Y-15446243D01*
X7004112Y-15417671D01*
X6975541Y-15403386D01*
X6918398Y-15403386D01*
X6889826Y-15417671D01*
X7018398Y-15589100D02*
X6989826Y-15603386D01*
X6918398Y-15603386D01*
X6889826Y-15589100D01*
X6875541Y-15560528D01*
X6875541Y-15531957D01*
X6889826Y-15503386D01*
X6918398Y-15489100D01*
X6989826Y-15489100D01*
X7018398Y-15474814D01*
X7161255Y-15403386D02*
X7161255Y-15703386D01*
X7161255Y-15417671D02*
X7189826Y-15403386D01*
X7246969Y-15403386D01*
X7275541Y-15417671D01*
X7289826Y-15431957D01*
X7304112Y-15460528D01*
X7304112Y-15546243D01*
X7289826Y-15574814D01*
X7275541Y-15589100D01*
X7246969Y-15603386D01*
X7189826Y-15603386D01*
X7161255Y-15589100D01*
X7432684Y-15574814D02*
X7446969Y-15589100D01*
X7432684Y-15603386D01*
X7418398Y-15589100D01*
X7432684Y-15574814D01*
X7432684Y-15603386D01*
X7432684Y-15417671D02*
X7446969Y-15431957D01*
X7432684Y-15446243D01*
X7418398Y-15431957D01*
X7432684Y-15417671D01*
X7432684Y-15446243D01*
X4879112Y-15992671D02*
X5089112Y-16202671D01*
X5089112Y-15992671D02*
X4879112Y-16202671D01*
X5361255Y-15961957D02*
X5375541Y-15947671D01*
X5404112Y-15933386D01*
X5475541Y-15933386D01*
X5504112Y-15947671D01*
X5518398Y-15961957D01*
X5532684Y-15990528D01*
X5532684Y-16019100D01*
X5518398Y-16061957D01*
X5346969Y-16233386D01*
X5532684Y-16233386D01*
X5661255Y-16204814D02*
X5675541Y-16219100D01*
X5661255Y-16233386D01*
X5646969Y-16219100D01*
X5661255Y-16204814D01*
X5661255Y-16233386D01*
X5961255Y-16233386D02*
X5789826Y-16233386D01*
X5875541Y-16233386D02*
X5875541Y-15933386D01*
X5846969Y-15976243D01*
X5818398Y-16004814D01*
X5789826Y-16019100D01*
X6146969Y-15933386D02*
X6175541Y-15933386D01*
X6204112Y-15947671D01*
X6218398Y-15961957D01*
X6232684Y-15990528D01*
X6246969Y-16047671D01*
X6246969Y-16119100D01*
X6232684Y-16176243D01*
X6218398Y-16204814D01*
X6204112Y-16219100D01*
X6175541Y-16233386D01*
X6146969Y-16233386D01*
X6118398Y-16219100D01*
X6104112Y-16204814D01*
X6089826Y-16176243D01*
X6075541Y-16119100D01*
X6075541Y-16047671D01*
X6089826Y-15990528D01*
X6104112Y-15961957D01*
X6118398Y-15947671D01*
X6146969Y-15933386D01*
X6375541Y-16233386D02*
X6375541Y-16033386D01*
X6375541Y-16061957D02*
X6389826Y-16047671D01*
X6418398Y-16033386D01*
X6461255Y-16033386D01*
X6489826Y-16047671D01*
X6504112Y-16076243D01*
X6504112Y-16233386D01*
X6504112Y-16076243D02*
X6518398Y-16047671D01*
X6546969Y-16033386D01*
X6589826Y-16033386D01*
X6618398Y-16047671D01*
X6632684Y-16076243D01*
X6632684Y-16233386D01*
X6775541Y-16233386D02*
X6775541Y-16033386D01*
X6775541Y-16061957D02*
X6789826Y-16047671D01*
X6818398Y-16033386D01*
X6861255Y-16033386D01*
X6889826Y-16047671D01*
X6904112Y-16076243D01*
X6904112Y-16233386D01*
X6904112Y-16076243D02*
X6918398Y-16047671D01*
X6946969Y-16033386D01*
X6989826Y-16033386D01*
X7018398Y-16047671D01*
X7032684Y-16076243D01*
X7032684Y-16233386D01*
X7618398Y-15919100D02*
X7361255Y-16304814D01*
X8004112Y-15933386D02*
X8032684Y-15933386D01*
X8061255Y-15947671D01*
X8075541Y-15961957D01*
X8089826Y-15990528D01*
X8104112Y-16047671D01*
X8104112Y-16119100D01*
X8089826Y-16176243D01*
X8075541Y-16204814D01*
X8061255Y-16219100D01*
X8032684Y-16233386D01*
X8004112Y-16233386D01*
X7975541Y-16219100D01*
X7961255Y-16204814D01*
X7946969Y-16176243D01*
X7932684Y-16119100D01*
X7932684Y-16047671D01*
X7946969Y-15990528D01*
X7961255Y-15961957D01*
X7975541Y-15947671D01*
X8004112Y-15933386D01*
X8232684Y-16204814D02*
X8246969Y-16219100D01*
X8232684Y-16233386D01*
X8218398Y-16219100D01*
X8232684Y-16204814D01*
X8232684Y-16233386D01*
X8432684Y-15933386D02*
X8461255Y-15933386D01*
X8489826Y-15947671D01*
X8504112Y-15961957D01*
X8518398Y-15990528D01*
X8532684Y-16047671D01*
X8532684Y-16119100D01*
X8518398Y-16176243D01*
X8504112Y-16204814D01*
X8489826Y-16219100D01*
X8461255Y-16233386D01*
X8432684Y-16233386D01*
X8404112Y-16219100D01*
X8389826Y-16204814D01*
X8375541Y-16176243D01*
X8361255Y-16119100D01*
X8361255Y-16047671D01*
X8375541Y-15990528D01*
X8389826Y-15961957D01*
X8404112Y-15947671D01*
X8432684Y-15933386D01*
X8704112Y-16061957D02*
X8675541Y-16047671D01*
X8661255Y-16033386D01*
X8646969Y-16004814D01*
X8646969Y-15990528D01*
X8661255Y-15961957D01*
X8675541Y-15947671D01*
X8704112Y-15933386D01*
X8761255Y-15933386D01*
X8789826Y-15947671D01*
X8804112Y-15961957D01*
X8818398Y-15990528D01*
X8818398Y-16004814D01*
X8804112Y-16033386D01*
X8789826Y-16047671D01*
X8761255Y-16061957D01*
X8704112Y-16061957D01*
X8675541Y-16076243D01*
X8661255Y-16090528D01*
X8646969Y-16119100D01*
X8646969Y-16176243D01*
X8661255Y-16204814D01*
X8675541Y-16219100D01*
X8704112Y-16233386D01*
X8761255Y-16233386D01*
X8789826Y-16219100D01*
X8804112Y-16204814D01*
X8818398Y-16176243D01*
X8818398Y-16119100D01*
X8804112Y-16090528D01*
X8789826Y-16076243D01*
X8761255Y-16061957D01*
X8918398Y-15933386D02*
X9104112Y-15933386D01*
X9004112Y-16047671D01*
X9046969Y-16047671D01*
X9075541Y-16061957D01*
X9089826Y-16076243D01*
X9104112Y-16104814D01*
X9104112Y-16176243D01*
X9089826Y-16204814D01*
X9075541Y-16219100D01*
X9046969Y-16233386D01*
X8961255Y-16233386D01*
X8932684Y-16219100D01*
X8918398Y-16204814D01*
X9218398Y-15933386D02*
X9218398Y-15990528D01*
X9332684Y-15933386D02*
X9332684Y-15990528D01*
X9775541Y-16347671D02*
X9761255Y-16333386D01*
X9732684Y-16290528D01*
X9718398Y-16261957D01*
X9704112Y-16219100D01*
X9689826Y-16147671D01*
X9689826Y-16090528D01*
X9704112Y-16019100D01*
X9718398Y-15976243D01*
X9732684Y-15947671D01*
X9761255Y-15904814D01*
X9775541Y-15890528D01*
X10046969Y-16233386D02*
X9875541Y-16233386D01*
X9961255Y-16233386D02*
X9961255Y-15933386D01*
X9932684Y-15976243D01*
X9904112Y-16004814D01*
X9875541Y-16019100D01*
X10318398Y-15933386D02*
X10175541Y-15933386D01*
X10161255Y-16076243D01*
X10175541Y-16061957D01*
X10204112Y-16047671D01*
X10275541Y-16047671D01*
X10304112Y-16061957D01*
X10318398Y-16076243D01*
X10332684Y-16104814D01*
X10332684Y-16176243D01*
X10318398Y-16204814D01*
X10304112Y-16219100D01*
X10275541Y-16233386D01*
X10204112Y-16233386D01*
X10175541Y-16219100D01*
X10161255Y-16204814D01*
X10689826Y-16233386D02*
X10689826Y-15933386D01*
X10818398Y-16233386D02*
X10818398Y-16076243D01*
X10804112Y-16047671D01*
X10775541Y-16033386D01*
X10732684Y-16033386D01*
X10704112Y-16047671D01*
X10689826Y-16061957D01*
X11004112Y-16233386D02*
X10975541Y-16219100D01*
X10961255Y-16204814D01*
X10946969Y-16176243D01*
X10946969Y-16090528D01*
X10961255Y-16061957D01*
X10975541Y-16047671D01*
X11004112Y-16033386D01*
X11046969Y-16033386D01*
X11075541Y-16047671D01*
X11089826Y-16061957D01*
X11104112Y-16090528D01*
X11104112Y-16176243D01*
X11089826Y-16204814D01*
X11075541Y-16219100D01*
X11046969Y-16233386D01*
X11004112Y-16233386D01*
X11275541Y-16233386D02*
X11246969Y-16219100D01*
X11232684Y-16190528D01*
X11232684Y-15933386D01*
X11504112Y-16219100D02*
X11475541Y-16233386D01*
X11418398Y-16233386D01*
X11389826Y-16219100D01*
X11375541Y-16190528D01*
X11375541Y-16076243D01*
X11389826Y-16047671D01*
X11418398Y-16033386D01*
X11475541Y-16033386D01*
X11504112Y-16047671D01*
X11518398Y-16076243D01*
X11518398Y-16104814D01*
X11375541Y-16133386D01*
X11632684Y-16219100D02*
X11661255Y-16233386D01*
X11718398Y-16233386D01*
X11746969Y-16219100D01*
X11761255Y-16190528D01*
X11761255Y-16176243D01*
X11746969Y-16147671D01*
X11718398Y-16133386D01*
X11675541Y-16133386D01*
X11646969Y-16119100D01*
X11632684Y-16090528D01*
X11632684Y-16076243D01*
X11646969Y-16047671D01*
X11675541Y-16033386D01*
X11718398Y-16033386D01*
X11746969Y-16047671D01*
X11861255Y-16347671D02*
X11875541Y-16333386D01*
X11904112Y-16290528D01*
X11918398Y-16261957D01*
X11932684Y-16219100D01*
X11946969Y-16147671D01*
X11946969Y-16090528D01*
X11932684Y-16019100D01*
X11918398Y-15976243D01*
X11904112Y-15947671D01*
X11875541Y-15904814D01*
X11861255Y-15890528D01*
X12404112Y-16347671D02*
X12389826Y-16333386D01*
X12361255Y-16290528D01*
X12346969Y-16261957D01*
X12332684Y-16219100D01*
X12318398Y-16147671D01*
X12318398Y-16090528D01*
X12332684Y-16019100D01*
X12346969Y-15976243D01*
X12361255Y-15947671D01*
X12389826Y-15904814D01*
X12404112Y-15890528D01*
X12518398Y-16033386D02*
X12518398Y-16233386D01*
X12518398Y-16061957D02*
X12532684Y-16047671D01*
X12561255Y-16033386D01*
X12604112Y-16033386D01*
X12632684Y-16047671D01*
X12646969Y-16076243D01*
X12646969Y-16233386D01*
X12832684Y-16233386D02*
X12804112Y-16219100D01*
X12789826Y-16204814D01*
X12775541Y-16176243D01*
X12775541Y-16090528D01*
X12789826Y-16061957D01*
X12804112Y-16047671D01*
X12832684Y-16033386D01*
X12875541Y-16033386D01*
X12904112Y-16047671D01*
X12918398Y-16061957D01*
X12932684Y-16090528D01*
X12932684Y-16176243D01*
X12918398Y-16204814D01*
X12904112Y-16219100D01*
X12875541Y-16233386D01*
X12832684Y-16233386D01*
X13018398Y-16033386D02*
X13132684Y-16033386D01*
X13061255Y-15933386D02*
X13061255Y-16190528D01*
X13075541Y-16219100D01*
X13104112Y-16233386D01*
X13132684Y-16233386D01*
X13461255Y-16033386D02*
X13461255Y-16333386D01*
X13461255Y-16047671D02*
X13489826Y-16033386D01*
X13546969Y-16033386D01*
X13575541Y-16047671D01*
X13589826Y-16061957D01*
X13604112Y-16090528D01*
X13604112Y-16176243D01*
X13589826Y-16204814D01*
X13575541Y-16219100D01*
X13546969Y-16233386D01*
X13489826Y-16233386D01*
X13461255Y-16219100D01*
X13775541Y-16233386D02*
X13746969Y-16219100D01*
X13732684Y-16190528D01*
X13732684Y-15933386D01*
X14018398Y-16233386D02*
X14018398Y-16076243D01*
X14004112Y-16047671D01*
X13975541Y-16033386D01*
X13918398Y-16033386D01*
X13889826Y-16047671D01*
X14018398Y-16219100D02*
X13989826Y-16233386D01*
X13918398Y-16233386D01*
X13889826Y-16219100D01*
X13875541Y-16190528D01*
X13875541Y-16161957D01*
X13889826Y-16133386D01*
X13918398Y-16119100D01*
X13989826Y-16119100D01*
X14018398Y-16104814D01*
X14118398Y-16033386D02*
X14232684Y-16033386D01*
X14161255Y-15933386D02*
X14161255Y-16190528D01*
X14175541Y-16219100D01*
X14204112Y-16233386D01*
X14232684Y-16233386D01*
X14446969Y-16219100D02*
X14418398Y-16233386D01*
X14361255Y-16233386D01*
X14332684Y-16219100D01*
X14318398Y-16190528D01*
X14318398Y-16076243D01*
X14332684Y-16047671D01*
X14361255Y-16033386D01*
X14418398Y-16033386D01*
X14446969Y-16047671D01*
X14461255Y-16076243D01*
X14461255Y-16104814D01*
X14318398Y-16133386D01*
X14718398Y-16233386D02*
X14718398Y-15933386D01*
X14718398Y-16219100D02*
X14689826Y-16233386D01*
X14632684Y-16233386D01*
X14604112Y-16219100D01*
X14589826Y-16204814D01*
X14575541Y-16176243D01*
X14575541Y-16090528D01*
X14589826Y-16061957D01*
X14604112Y-16047671D01*
X14632684Y-16033386D01*
X14689826Y-16033386D01*
X14718398Y-16047671D01*
X14832684Y-16347671D02*
X14846969Y-16333386D01*
X14875541Y-16290528D01*
X14889826Y-16261957D01*
X14904112Y-16219100D01*
X14918398Y-16147671D01*
X14918398Y-16090528D01*
X14904112Y-16019100D01*
X14889826Y-15976243D01*
X14875541Y-15947671D01*
X14846969Y-15904814D01*
X14832684Y-15890528D01*
M02*
