G04 #@! TF.GenerationSoftware,KiCad,Pcbnew,(5.1.5-0-10_14)*
G04 #@! TF.CreationDate,2020-04-18T19:51:42+09:00*
G04 #@! TF.ProjectId,colice_left_MidFrame,636f6c69-6365-45f6-9c65-66745f4d6964,rev?*
G04 #@! TF.SameCoordinates,Original*
G04 #@! TF.FileFunction,Copper,L1,Top*
G04 #@! TF.FilePolarity,Positive*
%FSLAX46Y46*%
G04 Gerber Fmt 4.6, Leading zero omitted, Abs format (unit mm)*
G04 Created by KiCad (PCBNEW (5.1.5-0-10_14)) date 2020-04-18 19:51:42*
%MOMM*%
%LPD*%
G04 APERTURE LIST*
%ADD10C,0.254000*%
G04 APERTURE END LIST*
D10*
G36*
X195264836Y-14379279D02*
G01*
X195454186Y-14384232D01*
X195634391Y-14391951D01*
X195814065Y-14402568D01*
X196006900Y-14417220D01*
X196181336Y-14433387D01*
X196351269Y-14451811D01*
X196520864Y-14472848D01*
X196685641Y-14495834D01*
X196849851Y-14521253D01*
X197013619Y-14549120D01*
X197176843Y-14579412D01*
X197335054Y-14611195D01*
X197501466Y-14647218D01*
X197658496Y-14683670D01*
X197815100Y-14722429D01*
X197966532Y-14762221D01*
X198138623Y-14810228D01*
X198296125Y-14856792D01*
X198442606Y-14902386D01*
X198587637Y-14949728D01*
X198727785Y-14997590D01*
X198871457Y-15048832D01*
X199014235Y-15101975D01*
X199155479Y-15156759D01*
X199289866Y-15210954D01*
X199422605Y-15266500D01*
X199554669Y-15323785D01*
X199684938Y-15382298D01*
X199816503Y-15443459D01*
X199946267Y-15505845D01*
X200075271Y-15569938D01*
X200199553Y-15633675D01*
X200323150Y-15699039D01*
X200453586Y-15770201D01*
X200575358Y-15838702D01*
X200700294Y-15911102D01*
X200820452Y-15982802D01*
X200939869Y-16056119D01*
X201058401Y-16130966D01*
X201172455Y-16204987D01*
X201286617Y-16281089D01*
X201398947Y-16357983D01*
X201509583Y-16435722D01*
X201619997Y-16515337D01*
X201736772Y-16601809D01*
X201845326Y-16684344D01*
X201953105Y-16768404D01*
X202057305Y-16851734D01*
X202168242Y-16942738D01*
X202273056Y-17030957D01*
X202374457Y-17118438D01*
X202473949Y-17206378D01*
X202578367Y-17300991D01*
X202676779Y-17392404D01*
X202773463Y-17484405D01*
X202869836Y-17578344D01*
X202921731Y-17629887D01*
X203036556Y-17746396D01*
X203128718Y-17842423D01*
X203219728Y-17939559D01*
X203318341Y-18047496D01*
X203418341Y-18159930D01*
X203507367Y-18262658D01*
X203593703Y-18364762D01*
X203680869Y-18470436D01*
X203766631Y-18577058D01*
X203850993Y-18684627D01*
X203933967Y-18793151D01*
X204015454Y-18902486D01*
X204097524Y-19015514D01*
X204176153Y-19126681D01*
X204254003Y-19239674D01*
X204329845Y-19352701D01*
X204406531Y-19470122D01*
X204483991Y-19592115D01*
X204557552Y-19711315D01*
X204629601Y-19831431D01*
X204701652Y-19955102D01*
X204773139Y-20081546D01*
X204842514Y-20208072D01*
X204907566Y-20330385D01*
X204972198Y-20455685D01*
X205036569Y-20584509D01*
X205099103Y-20713822D01*
X205167434Y-20860212D01*
X205226402Y-20991203D01*
X205283742Y-21123117D01*
X205341066Y-21259879D01*
X205395293Y-21394202D01*
X205450132Y-21535437D01*
X205501873Y-21674203D01*
X205551794Y-21813751D01*
X205599799Y-21953803D01*
X205648610Y-22102844D01*
X205696275Y-22255715D01*
X205739890Y-22402885D01*
X205782372Y-22553942D01*
X205822675Y-22705440D01*
X205863980Y-22870431D01*
X205900796Y-23027379D01*
X205935123Y-23183890D01*
X205969138Y-23350819D01*
X205999215Y-23510609D01*
X206027503Y-23674198D01*
X206054024Y-23842732D01*
X206077359Y-24007265D01*
X206098788Y-24176806D01*
X206117603Y-24346653D01*
X206134194Y-24521276D01*
X206148358Y-24700820D01*
X206159606Y-24880520D01*
X206167954Y-25060757D01*
X206173478Y-25245815D01*
X206175949Y-25433246D01*
X206176079Y-25486037D01*
X206176079Y-28470971D01*
X198401719Y-21356200D01*
X198401719Y-20709752D01*
X198566475Y-21107508D01*
X198865787Y-21555461D01*
X199246739Y-21936413D01*
X199694692Y-22235725D01*
X200192430Y-22441895D01*
X200720826Y-22547000D01*
X201259574Y-22547000D01*
X201787970Y-22441895D01*
X202285708Y-22235725D01*
X202733661Y-21936413D01*
X203114613Y-21555461D01*
X203413925Y-21107508D01*
X203620095Y-20609770D01*
X203725200Y-20081374D01*
X203725200Y-19542626D01*
X203620095Y-19014230D01*
X203413925Y-18516492D01*
X203114613Y-18068539D01*
X202733661Y-17687587D01*
X202285708Y-17388275D01*
X201787970Y-17182105D01*
X201259574Y-17077000D01*
X200720826Y-17077000D01*
X200192430Y-17182105D01*
X199694692Y-17388275D01*
X199246739Y-17687587D01*
X198865787Y-18068539D01*
X198566475Y-18516492D01*
X198401719Y-18914248D01*
X198401719Y-16702626D01*
X198405275Y-16666521D01*
X198391084Y-16522436D01*
X198349056Y-16383888D01*
X198280806Y-16256201D01*
X198188957Y-16144283D01*
X198077039Y-16052434D01*
X197949352Y-15984184D01*
X197810804Y-15942156D01*
X197702824Y-15931521D01*
X197666719Y-15927965D01*
X197630614Y-15931521D01*
X187592403Y-15931521D01*
X187556298Y-15927965D01*
X187520193Y-15931521D01*
X187412213Y-15942156D01*
X187273665Y-15984184D01*
X187145978Y-16052434D01*
X187034060Y-16144283D01*
X186942211Y-16256201D01*
X186873961Y-16383888D01*
X186831933Y-16522436D01*
X186817742Y-16666521D01*
X186821298Y-16702626D01*
X186821299Y-20491178D01*
X34577241Y-20491178D01*
X34578543Y-16702756D01*
X34582112Y-16666521D01*
X34574886Y-16593154D01*
X34567970Y-16522686D01*
X34567934Y-16522567D01*
X34567921Y-16522436D01*
X34546531Y-16451924D01*
X34525990Y-16384123D01*
X34525930Y-16384012D01*
X34525893Y-16383888D01*
X34490699Y-16318044D01*
X34457783Y-16256413D01*
X34457706Y-16256320D01*
X34457643Y-16256201D01*
X34409742Y-16197834D01*
X34365973Y-16144463D01*
X34365877Y-16144384D01*
X34365794Y-16144283D01*
X34308346Y-16097137D01*
X34254087Y-16052576D01*
X34253978Y-16052518D01*
X34253876Y-16052434D01*
X34187825Y-16017129D01*
X34126423Y-15984282D01*
X34126306Y-15984246D01*
X34126189Y-15984184D01*
X34054787Y-15962524D01*
X33987889Y-15942206D01*
X33987766Y-15942194D01*
X33987641Y-15942156D01*
X33913350Y-15934839D01*
X33843809Y-15927966D01*
X33807586Y-15931521D01*
X25726305Y-15931521D01*
X25690187Y-15927966D01*
X25627354Y-15934158D01*
X25546148Y-15942156D01*
X25546126Y-15942163D01*
X25546103Y-15942165D01*
X25481087Y-15961892D01*
X25407600Y-15984184D01*
X25407577Y-15984196D01*
X25407558Y-15984202D01*
X25351640Y-16014095D01*
X25279913Y-16052434D01*
X25279893Y-16052450D01*
X25279875Y-16052460D01*
X25234631Y-16089596D01*
X25167995Y-16144283D01*
X25167978Y-16144304D01*
X25167963Y-16144316D01*
X25134895Y-16184615D01*
X25076146Y-16256201D01*
X25076133Y-16256225D01*
X25076121Y-16256240D01*
X25048159Y-16308562D01*
X25007896Y-16383888D01*
X25007888Y-16383914D01*
X25007879Y-16383931D01*
X24992495Y-16434657D01*
X24965868Y-16522436D01*
X24965865Y-16522465D01*
X24965860Y-16522482D01*
X24960284Y-16579130D01*
X24951677Y-16666521D01*
X24955236Y-16702652D01*
X24955541Y-21593534D01*
X20907048Y-38581846D01*
X20892497Y-38629814D01*
X20886755Y-38688114D01*
X20878828Y-38746137D01*
X20881862Y-38796161D01*
X20881863Y-74110747D01*
X17688600Y-89134567D01*
X17676623Y-89174155D01*
X17670072Y-89241166D01*
X17662600Y-89308052D01*
X17666115Y-89349258D01*
X17687999Y-119419770D01*
X17684469Y-119455351D01*
X17688052Y-119491990D01*
X17688052Y-119492513D01*
X17691539Y-119527650D01*
X17698559Y-119599446D01*
X17698713Y-119599956D01*
X17698766Y-119600486D01*
X17719752Y-119669489D01*
X17740489Y-119738023D01*
X17740738Y-119738489D01*
X17740894Y-119739003D01*
X17775074Y-119802837D01*
X17791569Y-119833750D01*
X17791858Y-119834184D01*
X17809237Y-119866640D01*
X17831940Y-119894263D01*
X21848191Y-125914236D01*
X21848192Y-147577250D01*
X21844977Y-147624624D01*
X21852828Y-147685342D01*
X21858827Y-147746248D01*
X21862099Y-147757033D01*
X21863544Y-147768211D01*
X21883087Y-147826223D01*
X21900855Y-147884796D01*
X21906167Y-147894735D01*
X21909766Y-147905417D01*
X21940251Y-147958501D01*
X21955623Y-147987260D01*
X21706974Y-147937800D01*
X21168226Y-147937800D01*
X20639830Y-148042905D01*
X20142092Y-148249075D01*
X19694139Y-148548387D01*
X19313187Y-148929339D01*
X19013875Y-149377292D01*
X18807705Y-149875030D01*
X18702600Y-150403426D01*
X18702600Y-150942174D01*
X18807705Y-151470570D01*
X19013875Y-151968308D01*
X19313187Y-152416261D01*
X19694139Y-152797213D01*
X20142092Y-153096525D01*
X20639830Y-153302695D01*
X21168226Y-153407800D01*
X21706974Y-153407800D01*
X22235370Y-153302695D01*
X22733108Y-153096525D01*
X23181061Y-152797213D01*
X23562013Y-152416261D01*
X23861325Y-151968308D01*
X24067495Y-151470570D01*
X24172600Y-150942174D01*
X24172600Y-150403426D01*
X24067495Y-149875030D01*
X23861325Y-149377292D01*
X23735717Y-149189307D01*
X25269099Y-150147738D01*
X25273536Y-153558443D01*
X25270027Y-153594075D01*
X25273630Y-153630661D01*
X25273631Y-153631135D01*
X25277117Y-153666060D01*
X25284218Y-153738160D01*
X25284360Y-153738627D01*
X25284407Y-153739101D01*
X25305137Y-153807120D01*
X25326246Y-153876708D01*
X25326476Y-153877137D01*
X25326615Y-153877595D01*
X25360286Y-153940393D01*
X25394496Y-154004395D01*
X25394805Y-154004772D01*
X25395031Y-154005193D01*
X25440334Y-154060248D01*
X25486345Y-154116313D01*
X25486721Y-154116622D01*
X25487025Y-154116991D01*
X25542214Y-154162164D01*
X25598263Y-154208162D01*
X25598692Y-154208391D01*
X25599063Y-154208695D01*
X25661979Y-154242219D01*
X25725950Y-154276412D01*
X25726417Y-154276554D01*
X25726838Y-154276778D01*
X25794932Y-154297337D01*
X25864498Y-154318440D01*
X25864983Y-154318488D01*
X25865441Y-154318626D01*
X25936566Y-154325538D01*
X25972478Y-154329075D01*
X25972962Y-154329075D01*
X26009543Y-154332630D01*
X26045161Y-154329075D01*
X33487534Y-154329075D01*
X33523639Y-154332631D01*
X33559744Y-154329075D01*
X33667724Y-154318440D01*
X33806272Y-154276412D01*
X33933959Y-154208162D01*
X34045877Y-154116313D01*
X34137726Y-154004395D01*
X34205976Y-153876708D01*
X34248004Y-153738160D01*
X34262195Y-153594075D01*
X34258639Y-153557970D01*
X34258639Y-151195792D01*
X124264384Y-151204487D01*
X174344533Y-161405403D01*
X174380872Y-161416426D01*
X174451285Y-161423361D01*
X174521564Y-161430609D01*
X174559367Y-161427061D01*
X194537553Y-161427061D01*
X194568806Y-161430553D01*
X194609751Y-161427061D01*
X194614582Y-161427061D01*
X194645783Y-161423988D01*
X194713063Y-161418250D01*
X194717724Y-161416902D01*
X194722562Y-161416426D01*
X194787291Y-161396791D01*
X194852150Y-161378040D01*
X194856459Y-161375809D01*
X194861110Y-161374398D01*
X194920771Y-161342509D01*
X194980719Y-161311468D01*
X194984508Y-161308440D01*
X194988797Y-161306148D01*
X195041079Y-161263241D01*
X195093831Y-161221093D01*
X195096960Y-161217381D01*
X195100715Y-161214299D01*
X195143602Y-161162041D01*
X195187138Y-161110387D01*
X195189482Y-161106136D01*
X195192564Y-161102381D01*
X195224433Y-161042759D01*
X195257054Y-160983605D01*
X195258524Y-160978979D01*
X195260814Y-160974694D01*
X195280447Y-160909973D01*
X195289907Y-160880196D01*
X195290908Y-160875488D01*
X195302842Y-160836146D01*
X195305926Y-160804836D01*
X196156305Y-156804226D01*
X198255200Y-156804226D01*
X198255200Y-157342974D01*
X198360305Y-157871370D01*
X198566475Y-158369108D01*
X198865787Y-158817061D01*
X199246739Y-159198013D01*
X199694692Y-159497325D01*
X200192430Y-159703495D01*
X200720826Y-159808600D01*
X201259574Y-159808600D01*
X201787970Y-159703495D01*
X202285708Y-159497325D01*
X202733661Y-159198013D01*
X203114613Y-158817061D01*
X203413925Y-158369108D01*
X203620095Y-157871370D01*
X203725200Y-157342974D01*
X203725200Y-156804226D01*
X203620095Y-156275830D01*
X203413925Y-155778092D01*
X203114613Y-155330139D01*
X202733661Y-154949187D01*
X202285708Y-154649875D01*
X201787970Y-154443705D01*
X201259574Y-154338600D01*
X200720826Y-154338600D01*
X200192430Y-154443705D01*
X199694692Y-154649875D01*
X199246739Y-154949187D01*
X198865787Y-155330139D01*
X198566475Y-155778092D01*
X198360305Y-156275830D01*
X198255200Y-156804226D01*
X196156305Y-156804226D01*
X196671575Y-154380141D01*
X196678938Y-154345896D01*
X196679035Y-154345044D01*
X196679214Y-154344203D01*
X196683113Y-154309309D01*
X202539704Y-102982059D01*
X202541707Y-102975373D01*
X202547904Y-102910188D01*
X202551212Y-102881199D01*
X202551319Y-102874271D01*
X202555410Y-102831240D01*
X202552434Y-102802042D01*
X202552887Y-102772710D01*
X202545113Y-102730207D01*
X202540730Y-102687204D01*
X202532116Y-102659149D01*
X202526837Y-102630290D01*
X202510920Y-102590120D01*
X202498232Y-102548799D01*
X202484309Y-102522962D01*
X202473502Y-102495689D01*
X202450056Y-102459399D01*
X202446760Y-102453283D01*
X202430427Y-102429017D01*
X202394933Y-102374080D01*
X202390079Y-102369074D01*
X198171566Y-96101759D01*
X198378739Y-95127075D01*
X198566475Y-95580308D01*
X198865787Y-96028261D01*
X199246739Y-96409213D01*
X199694692Y-96708525D01*
X200192430Y-96914695D01*
X200720826Y-97019800D01*
X201259574Y-97019800D01*
X201787970Y-96914695D01*
X202285708Y-96708525D01*
X202733661Y-96409213D01*
X203114613Y-96028261D01*
X203413925Y-95580308D01*
X203620095Y-95082570D01*
X203725200Y-94554174D01*
X203725200Y-94015426D01*
X203620095Y-93487030D01*
X203413925Y-92989292D01*
X203114613Y-92541339D01*
X202733661Y-92160387D01*
X202285708Y-91861075D01*
X201787970Y-91654905D01*
X201259574Y-91549800D01*
X200720826Y-91549800D01*
X200192430Y-91654905D01*
X199694692Y-91861075D01*
X199246739Y-92160387D01*
X198945235Y-92461891D01*
X205442325Y-61895143D01*
X206176079Y-61895143D01*
X206176080Y-153494575D01*
X206174287Y-153697882D01*
X206169579Y-153880874D01*
X206161692Y-154067975D01*
X206151046Y-154249588D01*
X206137871Y-154425994D01*
X206121953Y-154601698D01*
X206103866Y-154771799D01*
X206080853Y-154959320D01*
X206056750Y-155132318D01*
X206031415Y-155295772D01*
X206003697Y-155458512D01*
X205973587Y-155620655D01*
X205942088Y-155777401D01*
X205908345Y-155933568D01*
X205872467Y-156088725D01*
X205833296Y-156247503D01*
X205794211Y-156396648D01*
X205750627Y-156553706D01*
X205707399Y-156701220D01*
X205662128Y-156848083D01*
X205616260Y-156989920D01*
X205568504Y-157131044D01*
X205519003Y-157271074D01*
X205466045Y-157414600D01*
X205412865Y-157552880D01*
X205357820Y-157690464D01*
X205300999Y-157827140D01*
X205244163Y-157958904D01*
X205185641Y-158089877D01*
X205125550Y-158219804D01*
X205059959Y-158356792D01*
X204996614Y-158484691D01*
X204927576Y-158619545D01*
X204856782Y-158753290D01*
X204788504Y-158878246D01*
X204714237Y-159009987D01*
X204642683Y-159133077D01*
X204569528Y-159255291D01*
X204497138Y-159372825D01*
X204421038Y-159492962D01*
X204341011Y-159615749D01*
X204264292Y-159730233D01*
X204186202Y-159843697D01*
X204101661Y-159963238D01*
X204020756Y-160074608D01*
X203938470Y-160184982D01*
X203854980Y-160294132D01*
X203759324Y-160415853D01*
X203673036Y-160522747D01*
X203582758Y-160631764D01*
X203482465Y-160749663D01*
X203394972Y-160849871D01*
X203306137Y-160949201D01*
X203216070Y-161047519D01*
X203124864Y-161144731D01*
X203032697Y-161240647D01*
X202924023Y-161350876D01*
X202829475Y-161444337D01*
X202733573Y-161536904D01*
X202636643Y-161628253D01*
X202529052Y-161727144D01*
X202429875Y-161816042D01*
X202329523Y-161903857D01*
X202228173Y-161990432D01*
X202122409Y-162078583D01*
X202018981Y-162162680D01*
X201911189Y-162248172D01*
X201795501Y-162337557D01*
X201682132Y-162422838D01*
X201567720Y-162506642D01*
X201452076Y-162589108D01*
X201335378Y-162670104D01*
X201217600Y-162749639D01*
X201102373Y-162825357D01*
X200986233Y-162899629D01*
X200858001Y-162979308D01*
X200736158Y-163052806D01*
X200613179Y-163124854D01*
X200492997Y-163193236D01*
X200371808Y-163260204D01*
X200249829Y-163325628D01*
X200119150Y-163393566D01*
X199991583Y-163457776D01*
X199862908Y-163520472D01*
X199733284Y-163581566D01*
X199602898Y-163640965D01*
X199471566Y-163698748D01*
X199339522Y-163754805D01*
X199194286Y-163814143D01*
X199056537Y-163868214D01*
X198913629Y-163922073D01*
X198769955Y-163973957D01*
X198621156Y-164025335D01*
X198471436Y-164074650D01*
X198325197Y-164120537D01*
X198169271Y-164167017D01*
X198021147Y-164208866D01*
X197872087Y-164248738D01*
X197722426Y-164286526D01*
X197554544Y-164326281D01*
X197394689Y-164361573D01*
X197229337Y-164395473D01*
X197067728Y-164426076D01*
X196905244Y-164454342D01*
X196728521Y-164482269D01*
X196564481Y-164505584D01*
X196395147Y-164527039D01*
X196220410Y-164546423D01*
X196045211Y-164563060D01*
X195859816Y-164577644D01*
X195682994Y-164588676D01*
X195500622Y-164597125D01*
X195317607Y-164602629D01*
X195127163Y-164605230D01*
X195067653Y-164605391D01*
X181618226Y-164605391D01*
X181420270Y-164604540D01*
X181227995Y-164602090D01*
X181034378Y-164597997D01*
X180845192Y-164592417D01*
X180649986Y-164585020D01*
X180464232Y-164576440D01*
X180277411Y-164566284D01*
X180088288Y-164554447D01*
X179899281Y-164541051D01*
X179719526Y-164526853D01*
X179537696Y-164511044D01*
X179358064Y-164493995D01*
X179180903Y-164475780D01*
X179001618Y-164455932D01*
X178821420Y-164434541D01*
X178645835Y-164412307D01*
X178471516Y-164388869D01*
X178297429Y-164364103D01*
X178125684Y-164338336D01*
X177956228Y-164311604D01*
X177787086Y-164283627D01*
X177618343Y-164254418D01*
X177449485Y-164223889D01*
X177283143Y-164192535D01*
X177111936Y-164158940D01*
X177027509Y-164141877D01*
X176765916Y-164088512D01*
X176765860Y-164088500D01*
X176491610Y-164032552D01*
X176491608Y-164032552D01*
X175909320Y-163913764D01*
X175909237Y-163913746D01*
X175060006Y-163740498D01*
X175060000Y-163740497D01*
X174136707Y-163552138D01*
X174136679Y-163552132D01*
X173144766Y-163349772D01*
X173144738Y-163349766D01*
X172089731Y-163134533D01*
X172089675Y-163134521D01*
X170977114Y-162907544D01*
X170976978Y-162907515D01*
X169812136Y-162669871D01*
X169812128Y-162669870D01*
X168600668Y-162422713D01*
X168600640Y-162422707D01*
X167347973Y-162167142D01*
X166059629Y-161904297D01*
X164741126Y-161635299D01*
X164741098Y-161635293D01*
X163397866Y-161361247D01*
X162035422Y-161083281D01*
X160659256Y-160802515D01*
X160659248Y-160802514D01*
X159274856Y-160520068D01*
X159274848Y-160520067D01*
X157887741Y-160237067D01*
X157887713Y-160237061D01*
X156503313Y-159954611D01*
X155127146Y-159673841D01*
X153764703Y-159395870D01*
X151755342Y-158985911D01*
X149814593Y-158589948D01*
X148561985Y-158334384D01*
X148561930Y-158334372D01*
X146755660Y-157965842D01*
X146755652Y-157965841D01*
X145072920Y-157622514D01*
X145072892Y-157622508D01*
X144017828Y-157407242D01*
X143025945Y-157204866D01*
X143025889Y-157204854D01*
X142102559Y-157016463D01*
X142102553Y-157016462D01*
X141253359Y-156843196D01*
X141253331Y-156843190D01*
X140483693Y-156686155D01*
X140134093Y-156614824D01*
X140133953Y-156614809D01*
X140131386Y-156614277D01*
X139953222Y-156578621D01*
X139953035Y-156578602D01*
X139947776Y-156577553D01*
X139776243Y-156544570D01*
X139776060Y-156544553D01*
X139770927Y-156543568D01*
X139600329Y-156512065D01*
X139600141Y-156512049D01*
X139595030Y-156511107D01*
X139424228Y-156480859D01*
X139424050Y-156480845D01*
X139418866Y-156479929D01*
X139244426Y-156450367D01*
X139244235Y-156450354D01*
X139239036Y-156449475D01*
X139066696Y-156421585D01*
X139066514Y-156421574D01*
X139061274Y-156420728D01*
X138884152Y-156393420D01*
X138883969Y-156393410D01*
X138878670Y-156392596D01*
X138702512Y-156366795D01*
X138702326Y-156366786D01*
X138696970Y-156366005D01*
X138516024Y-156340909D01*
X138515843Y-156340902D01*
X138510188Y-156340123D01*
X138316373Y-156314823D01*
X138316186Y-156314817D01*
X138310584Y-156314091D01*
X138130435Y-156292028D01*
X138130255Y-156292024D01*
X138124654Y-156291343D01*
X137932788Y-156269386D01*
X137932602Y-156269383D01*
X137926993Y-156268746D01*
X137745375Y-156249420D01*
X137745188Y-156249418D01*
X137739655Y-156248834D01*
X137553258Y-156230473D01*
X137553069Y-156230473D01*
X137547467Y-156229926D01*
X137359773Y-156212936D01*
X137359590Y-156212937D01*
X137353973Y-156212434D01*
X137168463Y-156197122D01*
X137168282Y-156197125D01*
X137162562Y-156196659D01*
X136967648Y-156182150D01*
X136967472Y-156182154D01*
X136961594Y-156181724D01*
X136766554Y-156168824D01*
X136766368Y-156168830D01*
X136760541Y-156168451D01*
X136567713Y-156157284D01*
X136567527Y-156157291D01*
X136561735Y-156156963D01*
X136369968Y-156147424D01*
X136369791Y-156147433D01*
X136363861Y-156147145D01*
X136161534Y-156138767D01*
X136161349Y-156138777D01*
X136155375Y-156138538D01*
X135961104Y-156132125D01*
X135960923Y-156132137D01*
X135954917Y-156131947D01*
X135750100Y-156126912D01*
X135749921Y-156126925D01*
X135743741Y-156126783D01*
X135538854Y-156123520D01*
X135538676Y-156123535D01*
X135532490Y-156123446D01*
X135327546Y-156121957D01*
X135327363Y-156121974D01*
X135323279Y-156121939D01*
X135253403Y-156121837D01*
X135253340Y-156121843D01*
X135252330Y-156121836D01*
X27479574Y-156121836D01*
X27290345Y-156120279D01*
X27097792Y-156115479D01*
X26915525Y-156107903D01*
X26729250Y-156097095D01*
X26548351Y-156083620D01*
X26372735Y-156067710D01*
X26202347Y-156049593D01*
X26032777Y-156028920D01*
X25859456Y-156005051D01*
X25691608Y-155979270D01*
X25520135Y-155950202D01*
X25345082Y-155917658D01*
X25188734Y-155886114D01*
X25019675Y-155849343D01*
X24864831Y-155813219D01*
X24701899Y-155772652D01*
X24552935Y-155733241D01*
X24400355Y-155690550D01*
X24248616Y-155645734D01*
X24102064Y-155600184D01*
X23952000Y-155551208D01*
X23811357Y-155503130D01*
X23671276Y-155453124D01*
X23532255Y-155401372D01*
X23389878Y-155346145D01*
X23252571Y-155290720D01*
X23120211Y-155235246D01*
X22984662Y-155176318D01*
X22846189Y-155113871D01*
X22708847Y-155049651D01*
X22568550Y-154981656D01*
X22437279Y-154915800D01*
X22295139Y-154842008D01*
X22169589Y-154774636D01*
X22044694Y-154705529D01*
X21924632Y-154637096D01*
X21801701Y-154564951D01*
X21679855Y-154491324D01*
X21559011Y-154416174D01*
X21439358Y-154339623D01*
X21313508Y-154256754D01*
X21188952Y-154172300D01*
X21069012Y-154088621D01*
X20957241Y-154008505D01*
X20839535Y-153921848D01*
X20719504Y-153830992D01*
X20611196Y-153746790D01*
X20493493Y-153652825D01*
X20390547Y-153568481D01*
X20288348Y-153482685D01*
X20187217Y-153395710D01*
X20087244Y-153307632D01*
X19988329Y-153218367D01*
X19881021Y-153119071D01*
X19784476Y-153027468D01*
X19688812Y-152934512D01*
X19594366Y-152840521D01*
X19501072Y-152745436D01*
X19406058Y-152646227D01*
X19303439Y-152536278D01*
X19213826Y-152437793D01*
X19125348Y-152338193D01*
X19035185Y-152234184D01*
X18949078Y-152132389D01*
X18864173Y-152029543D01*
X18777916Y-151922443D01*
X18687651Y-151807408D01*
X18604169Y-151698183D01*
X18519376Y-151584313D01*
X18436050Y-151469386D01*
X18354106Y-151353282D01*
X18276093Y-151239745D01*
X18199395Y-151125107D01*
X18124122Y-151009522D01*
X18047962Y-150889288D01*
X17975562Y-150771736D01*
X17902357Y-150649444D01*
X17832872Y-150529962D01*
X17764884Y-150409628D01*
X17694188Y-150280651D01*
X17625258Y-150150847D01*
X17559922Y-150023816D01*
X17494308Y-149892028D01*
X17430354Y-149759174D01*
X17369974Y-149629401D01*
X17309465Y-149494743D01*
X17250625Y-149358970D01*
X17195359Y-149226686D01*
X17136869Y-149081140D01*
X17082029Y-148938953D01*
X17027535Y-148791526D01*
X16977969Y-148651490D01*
X16928850Y-148506428D01*
X16880355Y-148356260D01*
X16835258Y-148209562D01*
X16790893Y-148057617D01*
X16748657Y-147904846D01*
X16709676Y-147755619D01*
X16671643Y-147601077D01*
X16634870Y-147441626D01*
X16600351Y-147281091D01*
X16569053Y-147124396D01*
X16538363Y-146957863D01*
X16510910Y-146795135D01*
X16485164Y-146627074D01*
X16461369Y-146453799D01*
X16440758Y-146284151D01*
X16422716Y-146113843D01*
X16406495Y-145933618D01*
X16393163Y-145752730D01*
X16382733Y-145571039D01*
X16375066Y-145383960D01*
X16370570Y-145200689D01*
X16369019Y-145011360D01*
X16369019Y-25488129D01*
X16370622Y-25297624D01*
X16375732Y-25099335D01*
X16383674Y-24914757D01*
X16394296Y-24736029D01*
X16407598Y-24559954D01*
X16424473Y-24376329D01*
X16442822Y-24206483D01*
X16463786Y-24036950D01*
X16486706Y-23872183D01*
X16512072Y-23707902D01*
X16539890Y-23544039D01*
X16569284Y-23385150D01*
X16600969Y-23226791D01*
X16635919Y-23064578D01*
X16671233Y-22911536D01*
X16708684Y-22759098D01*
X16748305Y-22607124D01*
X16788830Y-22460122D01*
X16833863Y-22305328D01*
X16881119Y-22151261D01*
X16927482Y-22007357D01*
X16979428Y-21853591D01*
X17030212Y-21709996D01*
X17082986Y-21567043D01*
X17137770Y-21424700D01*
X17192845Y-21287164D01*
X17248041Y-21154414D01*
X17306787Y-21018199D01*
X17365485Y-20886871D01*
X17425886Y-20756306D01*
X17489955Y-20622453D01*
X17552341Y-20496362D01*
X17619375Y-20365174D01*
X17685071Y-20240625D01*
X17751920Y-20117674D01*
X17819751Y-19996564D01*
X17889113Y-19876274D01*
X17961188Y-19754850D01*
X18034201Y-19635312D01*
X18092424Y-19542626D01*
X18702600Y-19542626D01*
X18702600Y-20081374D01*
X18807705Y-20609770D01*
X19013875Y-21107508D01*
X19313187Y-21555461D01*
X19694139Y-21936413D01*
X20142092Y-22235725D01*
X20639830Y-22441895D01*
X21168226Y-22547000D01*
X21706974Y-22547000D01*
X22235370Y-22441895D01*
X22733108Y-22235725D01*
X23181061Y-21936413D01*
X23562013Y-21555461D01*
X23861325Y-21107508D01*
X24067495Y-20609770D01*
X24172600Y-20081374D01*
X24172600Y-19542626D01*
X24067495Y-19014230D01*
X23861325Y-18516492D01*
X23562013Y-18068539D01*
X23181061Y-17687587D01*
X22733108Y-17388275D01*
X22235370Y-17182105D01*
X21706974Y-17077000D01*
X21168226Y-17077000D01*
X20639830Y-17182105D01*
X20142092Y-17388275D01*
X19694139Y-17687587D01*
X19313187Y-18068539D01*
X19013875Y-18516492D01*
X18807705Y-19014230D01*
X18702600Y-19542626D01*
X18092424Y-19542626D01*
X18108209Y-19517499D01*
X18182546Y-19402374D01*
X18257625Y-19289174D01*
X18339198Y-19169494D01*
X18419763Y-19054495D01*
X18504517Y-18936764D01*
X18585471Y-18827266D01*
X18670689Y-18714964D01*
X18754604Y-18607200D01*
X18841928Y-18497897D01*
X18934963Y-18384473D01*
X19023123Y-18279746D01*
X19112709Y-18175957D01*
X19203807Y-18073018D01*
X19293169Y-17974481D01*
X19383938Y-17876776D01*
X19475898Y-17780136D01*
X19569886Y-17683712D01*
X19621540Y-17631713D01*
X19728484Y-17526171D01*
X19824524Y-17433772D01*
X19921569Y-17342624D01*
X20029654Y-17243635D01*
X20128598Y-17155277D01*
X20235420Y-17062235D01*
X20339929Y-16973491D01*
X20444526Y-16886859D01*
X20548412Y-16802920D01*
X20655820Y-16718279D01*
X20764155Y-16635048D01*
X20873331Y-16553289D01*
X20983425Y-16472933D01*
X21098012Y-16391469D01*
X21213541Y-16311516D01*
X21327257Y-16234906D01*
X21443745Y-16158516D01*
X21558285Y-16085419D01*
X21674589Y-16013191D01*
X21793513Y-15941368D01*
X21918018Y-15868325D01*
X22043360Y-15796962D01*
X22165755Y-15729339D01*
X22292727Y-15661289D01*
X22424543Y-15592859D01*
X22549236Y-15530168D01*
X22678736Y-15467117D01*
X22808910Y-15405810D01*
X22943948Y-15344372D01*
X23075674Y-15286518D01*
X23208207Y-15230347D01*
X23341313Y-15175954D01*
X23479286Y-15121678D01*
X23617863Y-15069286D01*
X23761261Y-15017279D01*
X23901162Y-14968669D01*
X24050020Y-14919229D01*
X24195401Y-14873178D01*
X24341366Y-14829141D01*
X24492251Y-14785902D01*
X24643743Y-14744793D01*
X24795739Y-14705848D01*
X24952601Y-14668040D01*
X25110094Y-14632495D01*
X25268006Y-14599261D01*
X25435206Y-14566674D01*
X25598600Y-14537387D01*
X25762518Y-14510529D01*
X25925872Y-14486261D01*
X26093083Y-14463984D01*
X26261648Y-14444138D01*
X26431790Y-14426748D01*
X26611103Y-14411280D01*
X26786389Y-14398985D01*
X26966201Y-14389263D01*
X27164331Y-14381929D01*
X27350309Y-14378254D01*
X27478654Y-14377522D01*
X195065246Y-14377522D01*
X195264836Y-14379279D01*
G37*
X195264836Y-14379279D02*
X195454186Y-14384232D01*
X195634391Y-14391951D01*
X195814065Y-14402568D01*
X196006900Y-14417220D01*
X196181336Y-14433387D01*
X196351269Y-14451811D01*
X196520864Y-14472848D01*
X196685641Y-14495834D01*
X196849851Y-14521253D01*
X197013619Y-14549120D01*
X197176843Y-14579412D01*
X197335054Y-14611195D01*
X197501466Y-14647218D01*
X197658496Y-14683670D01*
X197815100Y-14722429D01*
X197966532Y-14762221D01*
X198138623Y-14810228D01*
X198296125Y-14856792D01*
X198442606Y-14902386D01*
X198587637Y-14949728D01*
X198727785Y-14997590D01*
X198871457Y-15048832D01*
X199014235Y-15101975D01*
X199155479Y-15156759D01*
X199289866Y-15210954D01*
X199422605Y-15266500D01*
X199554669Y-15323785D01*
X199684938Y-15382298D01*
X199816503Y-15443459D01*
X199946267Y-15505845D01*
X200075271Y-15569938D01*
X200199553Y-15633675D01*
X200323150Y-15699039D01*
X200453586Y-15770201D01*
X200575358Y-15838702D01*
X200700294Y-15911102D01*
X200820452Y-15982802D01*
X200939869Y-16056119D01*
X201058401Y-16130966D01*
X201172455Y-16204987D01*
X201286617Y-16281089D01*
X201398947Y-16357983D01*
X201509583Y-16435722D01*
X201619997Y-16515337D01*
X201736772Y-16601809D01*
X201845326Y-16684344D01*
X201953105Y-16768404D01*
X202057305Y-16851734D01*
X202168242Y-16942738D01*
X202273056Y-17030957D01*
X202374457Y-17118438D01*
X202473949Y-17206378D01*
X202578367Y-17300991D01*
X202676779Y-17392404D01*
X202773463Y-17484405D01*
X202869836Y-17578344D01*
X202921731Y-17629887D01*
X203036556Y-17746396D01*
X203128718Y-17842423D01*
X203219728Y-17939559D01*
X203318341Y-18047496D01*
X203418341Y-18159930D01*
X203507367Y-18262658D01*
X203593703Y-18364762D01*
X203680869Y-18470436D01*
X203766631Y-18577058D01*
X203850993Y-18684627D01*
X203933967Y-18793151D01*
X204015454Y-18902486D01*
X204097524Y-19015514D01*
X204176153Y-19126681D01*
X204254003Y-19239674D01*
X204329845Y-19352701D01*
X204406531Y-19470122D01*
X204483991Y-19592115D01*
X204557552Y-19711315D01*
X204629601Y-19831431D01*
X204701652Y-19955102D01*
X204773139Y-20081546D01*
X204842514Y-20208072D01*
X204907566Y-20330385D01*
X204972198Y-20455685D01*
X205036569Y-20584509D01*
X205099103Y-20713822D01*
X205167434Y-20860212D01*
X205226402Y-20991203D01*
X205283742Y-21123117D01*
X205341066Y-21259879D01*
X205395293Y-21394202D01*
X205450132Y-21535437D01*
X205501873Y-21674203D01*
X205551794Y-21813751D01*
X205599799Y-21953803D01*
X205648610Y-22102844D01*
X205696275Y-22255715D01*
X205739890Y-22402885D01*
X205782372Y-22553942D01*
X205822675Y-22705440D01*
X205863980Y-22870431D01*
X205900796Y-23027379D01*
X205935123Y-23183890D01*
X205969138Y-23350819D01*
X205999215Y-23510609D01*
X206027503Y-23674198D01*
X206054024Y-23842732D01*
X206077359Y-24007265D01*
X206098788Y-24176806D01*
X206117603Y-24346653D01*
X206134194Y-24521276D01*
X206148358Y-24700820D01*
X206159606Y-24880520D01*
X206167954Y-25060757D01*
X206173478Y-25245815D01*
X206175949Y-25433246D01*
X206176079Y-25486037D01*
X206176079Y-28470971D01*
X198401719Y-21356200D01*
X198401719Y-20709752D01*
X198566475Y-21107508D01*
X198865787Y-21555461D01*
X199246739Y-21936413D01*
X199694692Y-22235725D01*
X200192430Y-22441895D01*
X200720826Y-22547000D01*
X201259574Y-22547000D01*
X201787970Y-22441895D01*
X202285708Y-22235725D01*
X202733661Y-21936413D01*
X203114613Y-21555461D01*
X203413925Y-21107508D01*
X203620095Y-20609770D01*
X203725200Y-20081374D01*
X203725200Y-19542626D01*
X203620095Y-19014230D01*
X203413925Y-18516492D01*
X203114613Y-18068539D01*
X202733661Y-17687587D01*
X202285708Y-17388275D01*
X201787970Y-17182105D01*
X201259574Y-17077000D01*
X200720826Y-17077000D01*
X200192430Y-17182105D01*
X199694692Y-17388275D01*
X199246739Y-17687587D01*
X198865787Y-18068539D01*
X198566475Y-18516492D01*
X198401719Y-18914248D01*
X198401719Y-16702626D01*
X198405275Y-16666521D01*
X198391084Y-16522436D01*
X198349056Y-16383888D01*
X198280806Y-16256201D01*
X198188957Y-16144283D01*
X198077039Y-16052434D01*
X197949352Y-15984184D01*
X197810804Y-15942156D01*
X197702824Y-15931521D01*
X197666719Y-15927965D01*
X197630614Y-15931521D01*
X187592403Y-15931521D01*
X187556298Y-15927965D01*
X187520193Y-15931521D01*
X187412213Y-15942156D01*
X187273665Y-15984184D01*
X187145978Y-16052434D01*
X187034060Y-16144283D01*
X186942211Y-16256201D01*
X186873961Y-16383888D01*
X186831933Y-16522436D01*
X186817742Y-16666521D01*
X186821298Y-16702626D01*
X186821299Y-20491178D01*
X34577241Y-20491178D01*
X34578543Y-16702756D01*
X34582112Y-16666521D01*
X34574886Y-16593154D01*
X34567970Y-16522686D01*
X34567934Y-16522567D01*
X34567921Y-16522436D01*
X34546531Y-16451924D01*
X34525990Y-16384123D01*
X34525930Y-16384012D01*
X34525893Y-16383888D01*
X34490699Y-16318044D01*
X34457783Y-16256413D01*
X34457706Y-16256320D01*
X34457643Y-16256201D01*
X34409742Y-16197834D01*
X34365973Y-16144463D01*
X34365877Y-16144384D01*
X34365794Y-16144283D01*
X34308346Y-16097137D01*
X34254087Y-16052576D01*
X34253978Y-16052518D01*
X34253876Y-16052434D01*
X34187825Y-16017129D01*
X34126423Y-15984282D01*
X34126306Y-15984246D01*
X34126189Y-15984184D01*
X34054787Y-15962524D01*
X33987889Y-15942206D01*
X33987766Y-15942194D01*
X33987641Y-15942156D01*
X33913350Y-15934839D01*
X33843809Y-15927966D01*
X33807586Y-15931521D01*
X25726305Y-15931521D01*
X25690187Y-15927966D01*
X25627354Y-15934158D01*
X25546148Y-15942156D01*
X25546126Y-15942163D01*
X25546103Y-15942165D01*
X25481087Y-15961892D01*
X25407600Y-15984184D01*
X25407577Y-15984196D01*
X25407558Y-15984202D01*
X25351640Y-16014095D01*
X25279913Y-16052434D01*
X25279893Y-16052450D01*
X25279875Y-16052460D01*
X25234631Y-16089596D01*
X25167995Y-16144283D01*
X25167978Y-16144304D01*
X25167963Y-16144316D01*
X25134895Y-16184615D01*
X25076146Y-16256201D01*
X25076133Y-16256225D01*
X25076121Y-16256240D01*
X25048159Y-16308562D01*
X25007896Y-16383888D01*
X25007888Y-16383914D01*
X25007879Y-16383931D01*
X24992495Y-16434657D01*
X24965868Y-16522436D01*
X24965865Y-16522465D01*
X24965860Y-16522482D01*
X24960284Y-16579130D01*
X24951677Y-16666521D01*
X24955236Y-16702652D01*
X24955541Y-21593534D01*
X20907048Y-38581846D01*
X20892497Y-38629814D01*
X20886755Y-38688114D01*
X20878828Y-38746137D01*
X20881862Y-38796161D01*
X20881863Y-74110747D01*
X17688600Y-89134567D01*
X17676623Y-89174155D01*
X17670072Y-89241166D01*
X17662600Y-89308052D01*
X17666115Y-89349258D01*
X17687999Y-119419770D01*
X17684469Y-119455351D01*
X17688052Y-119491990D01*
X17688052Y-119492513D01*
X17691539Y-119527650D01*
X17698559Y-119599446D01*
X17698713Y-119599956D01*
X17698766Y-119600486D01*
X17719752Y-119669489D01*
X17740489Y-119738023D01*
X17740738Y-119738489D01*
X17740894Y-119739003D01*
X17775074Y-119802837D01*
X17791569Y-119833750D01*
X17791858Y-119834184D01*
X17809237Y-119866640D01*
X17831940Y-119894263D01*
X21848191Y-125914236D01*
X21848192Y-147577250D01*
X21844977Y-147624624D01*
X21852828Y-147685342D01*
X21858827Y-147746248D01*
X21862099Y-147757033D01*
X21863544Y-147768211D01*
X21883087Y-147826223D01*
X21900855Y-147884796D01*
X21906167Y-147894735D01*
X21909766Y-147905417D01*
X21940251Y-147958501D01*
X21955623Y-147987260D01*
X21706974Y-147937800D01*
X21168226Y-147937800D01*
X20639830Y-148042905D01*
X20142092Y-148249075D01*
X19694139Y-148548387D01*
X19313187Y-148929339D01*
X19013875Y-149377292D01*
X18807705Y-149875030D01*
X18702600Y-150403426D01*
X18702600Y-150942174D01*
X18807705Y-151470570D01*
X19013875Y-151968308D01*
X19313187Y-152416261D01*
X19694139Y-152797213D01*
X20142092Y-153096525D01*
X20639830Y-153302695D01*
X21168226Y-153407800D01*
X21706974Y-153407800D01*
X22235370Y-153302695D01*
X22733108Y-153096525D01*
X23181061Y-152797213D01*
X23562013Y-152416261D01*
X23861325Y-151968308D01*
X24067495Y-151470570D01*
X24172600Y-150942174D01*
X24172600Y-150403426D01*
X24067495Y-149875030D01*
X23861325Y-149377292D01*
X23735717Y-149189307D01*
X25269099Y-150147738D01*
X25273536Y-153558443D01*
X25270027Y-153594075D01*
X25273630Y-153630661D01*
X25273631Y-153631135D01*
X25277117Y-153666060D01*
X25284218Y-153738160D01*
X25284360Y-153738627D01*
X25284407Y-153739101D01*
X25305137Y-153807120D01*
X25326246Y-153876708D01*
X25326476Y-153877137D01*
X25326615Y-153877595D01*
X25360286Y-153940393D01*
X25394496Y-154004395D01*
X25394805Y-154004772D01*
X25395031Y-154005193D01*
X25440334Y-154060248D01*
X25486345Y-154116313D01*
X25486721Y-154116622D01*
X25487025Y-154116991D01*
X25542214Y-154162164D01*
X25598263Y-154208162D01*
X25598692Y-154208391D01*
X25599063Y-154208695D01*
X25661979Y-154242219D01*
X25725950Y-154276412D01*
X25726417Y-154276554D01*
X25726838Y-154276778D01*
X25794932Y-154297337D01*
X25864498Y-154318440D01*
X25864983Y-154318488D01*
X25865441Y-154318626D01*
X25936566Y-154325538D01*
X25972478Y-154329075D01*
X25972962Y-154329075D01*
X26009543Y-154332630D01*
X26045161Y-154329075D01*
X33487534Y-154329075D01*
X33523639Y-154332631D01*
X33559744Y-154329075D01*
X33667724Y-154318440D01*
X33806272Y-154276412D01*
X33933959Y-154208162D01*
X34045877Y-154116313D01*
X34137726Y-154004395D01*
X34205976Y-153876708D01*
X34248004Y-153738160D01*
X34262195Y-153594075D01*
X34258639Y-153557970D01*
X34258639Y-151195792D01*
X124264384Y-151204487D01*
X174344533Y-161405403D01*
X174380872Y-161416426D01*
X174451285Y-161423361D01*
X174521564Y-161430609D01*
X174559367Y-161427061D01*
X194537553Y-161427061D01*
X194568806Y-161430553D01*
X194609751Y-161427061D01*
X194614582Y-161427061D01*
X194645783Y-161423988D01*
X194713063Y-161418250D01*
X194717724Y-161416902D01*
X194722562Y-161416426D01*
X194787291Y-161396791D01*
X194852150Y-161378040D01*
X194856459Y-161375809D01*
X194861110Y-161374398D01*
X194920771Y-161342509D01*
X194980719Y-161311468D01*
X194984508Y-161308440D01*
X194988797Y-161306148D01*
X195041079Y-161263241D01*
X195093831Y-161221093D01*
X195096960Y-161217381D01*
X195100715Y-161214299D01*
X195143602Y-161162041D01*
X195187138Y-161110387D01*
X195189482Y-161106136D01*
X195192564Y-161102381D01*
X195224433Y-161042759D01*
X195257054Y-160983605D01*
X195258524Y-160978979D01*
X195260814Y-160974694D01*
X195280447Y-160909973D01*
X195289907Y-160880196D01*
X195290908Y-160875488D01*
X195302842Y-160836146D01*
X195305926Y-160804836D01*
X196156305Y-156804226D01*
X198255200Y-156804226D01*
X198255200Y-157342974D01*
X198360305Y-157871370D01*
X198566475Y-158369108D01*
X198865787Y-158817061D01*
X199246739Y-159198013D01*
X199694692Y-159497325D01*
X200192430Y-159703495D01*
X200720826Y-159808600D01*
X201259574Y-159808600D01*
X201787970Y-159703495D01*
X202285708Y-159497325D01*
X202733661Y-159198013D01*
X203114613Y-158817061D01*
X203413925Y-158369108D01*
X203620095Y-157871370D01*
X203725200Y-157342974D01*
X203725200Y-156804226D01*
X203620095Y-156275830D01*
X203413925Y-155778092D01*
X203114613Y-155330139D01*
X202733661Y-154949187D01*
X202285708Y-154649875D01*
X201787970Y-154443705D01*
X201259574Y-154338600D01*
X200720826Y-154338600D01*
X200192430Y-154443705D01*
X199694692Y-154649875D01*
X199246739Y-154949187D01*
X198865787Y-155330139D01*
X198566475Y-155778092D01*
X198360305Y-156275830D01*
X198255200Y-156804226D01*
X196156305Y-156804226D01*
X196671575Y-154380141D01*
X196678938Y-154345896D01*
X196679035Y-154345044D01*
X196679214Y-154344203D01*
X196683113Y-154309309D01*
X202539704Y-102982059D01*
X202541707Y-102975373D01*
X202547904Y-102910188D01*
X202551212Y-102881199D01*
X202551319Y-102874271D01*
X202555410Y-102831240D01*
X202552434Y-102802042D01*
X202552887Y-102772710D01*
X202545113Y-102730207D01*
X202540730Y-102687204D01*
X202532116Y-102659149D01*
X202526837Y-102630290D01*
X202510920Y-102590120D01*
X202498232Y-102548799D01*
X202484309Y-102522962D01*
X202473502Y-102495689D01*
X202450056Y-102459399D01*
X202446760Y-102453283D01*
X202430427Y-102429017D01*
X202394933Y-102374080D01*
X202390079Y-102369074D01*
X198171566Y-96101759D01*
X198378739Y-95127075D01*
X198566475Y-95580308D01*
X198865787Y-96028261D01*
X199246739Y-96409213D01*
X199694692Y-96708525D01*
X200192430Y-96914695D01*
X200720826Y-97019800D01*
X201259574Y-97019800D01*
X201787970Y-96914695D01*
X202285708Y-96708525D01*
X202733661Y-96409213D01*
X203114613Y-96028261D01*
X203413925Y-95580308D01*
X203620095Y-95082570D01*
X203725200Y-94554174D01*
X203725200Y-94015426D01*
X203620095Y-93487030D01*
X203413925Y-92989292D01*
X203114613Y-92541339D01*
X202733661Y-92160387D01*
X202285708Y-91861075D01*
X201787970Y-91654905D01*
X201259574Y-91549800D01*
X200720826Y-91549800D01*
X200192430Y-91654905D01*
X199694692Y-91861075D01*
X199246739Y-92160387D01*
X198945235Y-92461891D01*
X205442325Y-61895143D01*
X206176079Y-61895143D01*
X206176080Y-153494575D01*
X206174287Y-153697882D01*
X206169579Y-153880874D01*
X206161692Y-154067975D01*
X206151046Y-154249588D01*
X206137871Y-154425994D01*
X206121953Y-154601698D01*
X206103866Y-154771799D01*
X206080853Y-154959320D01*
X206056750Y-155132318D01*
X206031415Y-155295772D01*
X206003697Y-155458512D01*
X205973587Y-155620655D01*
X205942088Y-155777401D01*
X205908345Y-155933568D01*
X205872467Y-156088725D01*
X205833296Y-156247503D01*
X205794211Y-156396648D01*
X205750627Y-156553706D01*
X205707399Y-156701220D01*
X205662128Y-156848083D01*
X205616260Y-156989920D01*
X205568504Y-157131044D01*
X205519003Y-157271074D01*
X205466045Y-157414600D01*
X205412865Y-157552880D01*
X205357820Y-157690464D01*
X205300999Y-157827140D01*
X205244163Y-157958904D01*
X205185641Y-158089877D01*
X205125550Y-158219804D01*
X205059959Y-158356792D01*
X204996614Y-158484691D01*
X204927576Y-158619545D01*
X204856782Y-158753290D01*
X204788504Y-158878246D01*
X204714237Y-159009987D01*
X204642683Y-159133077D01*
X204569528Y-159255291D01*
X204497138Y-159372825D01*
X204421038Y-159492962D01*
X204341011Y-159615749D01*
X204264292Y-159730233D01*
X204186202Y-159843697D01*
X204101661Y-159963238D01*
X204020756Y-160074608D01*
X203938470Y-160184982D01*
X203854980Y-160294132D01*
X203759324Y-160415853D01*
X203673036Y-160522747D01*
X203582758Y-160631764D01*
X203482465Y-160749663D01*
X203394972Y-160849871D01*
X203306137Y-160949201D01*
X203216070Y-161047519D01*
X203124864Y-161144731D01*
X203032697Y-161240647D01*
X202924023Y-161350876D01*
X202829475Y-161444337D01*
X202733573Y-161536904D01*
X202636643Y-161628253D01*
X202529052Y-161727144D01*
X202429875Y-161816042D01*
X202329523Y-161903857D01*
X202228173Y-161990432D01*
X202122409Y-162078583D01*
X202018981Y-162162680D01*
X201911189Y-162248172D01*
X201795501Y-162337557D01*
X201682132Y-162422838D01*
X201567720Y-162506642D01*
X201452076Y-162589108D01*
X201335378Y-162670104D01*
X201217600Y-162749639D01*
X201102373Y-162825357D01*
X200986233Y-162899629D01*
X200858001Y-162979308D01*
X200736158Y-163052806D01*
X200613179Y-163124854D01*
X200492997Y-163193236D01*
X200371808Y-163260204D01*
X200249829Y-163325628D01*
X200119150Y-163393566D01*
X199991583Y-163457776D01*
X199862908Y-163520472D01*
X199733284Y-163581566D01*
X199602898Y-163640965D01*
X199471566Y-163698748D01*
X199339522Y-163754805D01*
X199194286Y-163814143D01*
X199056537Y-163868214D01*
X198913629Y-163922073D01*
X198769955Y-163973957D01*
X198621156Y-164025335D01*
X198471436Y-164074650D01*
X198325197Y-164120537D01*
X198169271Y-164167017D01*
X198021147Y-164208866D01*
X197872087Y-164248738D01*
X197722426Y-164286526D01*
X197554544Y-164326281D01*
X197394689Y-164361573D01*
X197229337Y-164395473D01*
X197067728Y-164426076D01*
X196905244Y-164454342D01*
X196728521Y-164482269D01*
X196564481Y-164505584D01*
X196395147Y-164527039D01*
X196220410Y-164546423D01*
X196045211Y-164563060D01*
X195859816Y-164577644D01*
X195682994Y-164588676D01*
X195500622Y-164597125D01*
X195317607Y-164602629D01*
X195127163Y-164605230D01*
X195067653Y-164605391D01*
X181618226Y-164605391D01*
X181420270Y-164604540D01*
X181227995Y-164602090D01*
X181034378Y-164597997D01*
X180845192Y-164592417D01*
X180649986Y-164585020D01*
X180464232Y-164576440D01*
X180277411Y-164566284D01*
X180088288Y-164554447D01*
X179899281Y-164541051D01*
X179719526Y-164526853D01*
X179537696Y-164511044D01*
X179358064Y-164493995D01*
X179180903Y-164475780D01*
X179001618Y-164455932D01*
X178821420Y-164434541D01*
X178645835Y-164412307D01*
X178471516Y-164388869D01*
X178297429Y-164364103D01*
X178125684Y-164338336D01*
X177956228Y-164311604D01*
X177787086Y-164283627D01*
X177618343Y-164254418D01*
X177449485Y-164223889D01*
X177283143Y-164192535D01*
X177111936Y-164158940D01*
X177027509Y-164141877D01*
X176765916Y-164088512D01*
X176765860Y-164088500D01*
X176491610Y-164032552D01*
X176491608Y-164032552D01*
X175909320Y-163913764D01*
X175909237Y-163913746D01*
X175060006Y-163740498D01*
X175060000Y-163740497D01*
X174136707Y-163552138D01*
X174136679Y-163552132D01*
X173144766Y-163349772D01*
X173144738Y-163349766D01*
X172089731Y-163134533D01*
X172089675Y-163134521D01*
X170977114Y-162907544D01*
X170976978Y-162907515D01*
X169812136Y-162669871D01*
X169812128Y-162669870D01*
X168600668Y-162422713D01*
X168600640Y-162422707D01*
X167347973Y-162167142D01*
X166059629Y-161904297D01*
X164741126Y-161635299D01*
X164741098Y-161635293D01*
X163397866Y-161361247D01*
X162035422Y-161083281D01*
X160659256Y-160802515D01*
X160659248Y-160802514D01*
X159274856Y-160520068D01*
X159274848Y-160520067D01*
X157887741Y-160237067D01*
X157887713Y-160237061D01*
X156503313Y-159954611D01*
X155127146Y-159673841D01*
X153764703Y-159395870D01*
X151755342Y-158985911D01*
X149814593Y-158589948D01*
X148561985Y-158334384D01*
X148561930Y-158334372D01*
X146755660Y-157965842D01*
X146755652Y-157965841D01*
X145072920Y-157622514D01*
X145072892Y-157622508D01*
X144017828Y-157407242D01*
X143025945Y-157204866D01*
X143025889Y-157204854D01*
X142102559Y-157016463D01*
X142102553Y-157016462D01*
X141253359Y-156843196D01*
X141253331Y-156843190D01*
X140483693Y-156686155D01*
X140134093Y-156614824D01*
X140133953Y-156614809D01*
X140131386Y-156614277D01*
X139953222Y-156578621D01*
X139953035Y-156578602D01*
X139947776Y-156577553D01*
X139776243Y-156544570D01*
X139776060Y-156544553D01*
X139770927Y-156543568D01*
X139600329Y-156512065D01*
X139600141Y-156512049D01*
X139595030Y-156511107D01*
X139424228Y-156480859D01*
X139424050Y-156480845D01*
X139418866Y-156479929D01*
X139244426Y-156450367D01*
X139244235Y-156450354D01*
X139239036Y-156449475D01*
X139066696Y-156421585D01*
X139066514Y-156421574D01*
X139061274Y-156420728D01*
X138884152Y-156393420D01*
X138883969Y-156393410D01*
X138878670Y-156392596D01*
X138702512Y-156366795D01*
X138702326Y-156366786D01*
X138696970Y-156366005D01*
X138516024Y-156340909D01*
X138515843Y-156340902D01*
X138510188Y-156340123D01*
X138316373Y-156314823D01*
X138316186Y-156314817D01*
X138310584Y-156314091D01*
X138130435Y-156292028D01*
X138130255Y-156292024D01*
X138124654Y-156291343D01*
X137932788Y-156269386D01*
X137932602Y-156269383D01*
X137926993Y-156268746D01*
X137745375Y-156249420D01*
X137745188Y-156249418D01*
X137739655Y-156248834D01*
X137553258Y-156230473D01*
X137553069Y-156230473D01*
X137547467Y-156229926D01*
X137359773Y-156212936D01*
X137359590Y-156212937D01*
X137353973Y-156212434D01*
X137168463Y-156197122D01*
X137168282Y-156197125D01*
X137162562Y-156196659D01*
X136967648Y-156182150D01*
X136967472Y-156182154D01*
X136961594Y-156181724D01*
X136766554Y-156168824D01*
X136766368Y-156168830D01*
X136760541Y-156168451D01*
X136567713Y-156157284D01*
X136567527Y-156157291D01*
X136561735Y-156156963D01*
X136369968Y-156147424D01*
X136369791Y-156147433D01*
X136363861Y-156147145D01*
X136161534Y-156138767D01*
X136161349Y-156138777D01*
X136155375Y-156138538D01*
X135961104Y-156132125D01*
X135960923Y-156132137D01*
X135954917Y-156131947D01*
X135750100Y-156126912D01*
X135749921Y-156126925D01*
X135743741Y-156126783D01*
X135538854Y-156123520D01*
X135538676Y-156123535D01*
X135532490Y-156123446D01*
X135327546Y-156121957D01*
X135327363Y-156121974D01*
X135323279Y-156121939D01*
X135253403Y-156121837D01*
X135253340Y-156121843D01*
X135252330Y-156121836D01*
X27479574Y-156121836D01*
X27290345Y-156120279D01*
X27097792Y-156115479D01*
X26915525Y-156107903D01*
X26729250Y-156097095D01*
X26548351Y-156083620D01*
X26372735Y-156067710D01*
X26202347Y-156049593D01*
X26032777Y-156028920D01*
X25859456Y-156005051D01*
X25691608Y-155979270D01*
X25520135Y-155950202D01*
X25345082Y-155917658D01*
X25188734Y-155886114D01*
X25019675Y-155849343D01*
X24864831Y-155813219D01*
X24701899Y-155772652D01*
X24552935Y-155733241D01*
X24400355Y-155690550D01*
X24248616Y-155645734D01*
X24102064Y-155600184D01*
X23952000Y-155551208D01*
X23811357Y-155503130D01*
X23671276Y-155453124D01*
X23532255Y-155401372D01*
X23389878Y-155346145D01*
X23252571Y-155290720D01*
X23120211Y-155235246D01*
X22984662Y-155176318D01*
X22846189Y-155113871D01*
X22708847Y-155049651D01*
X22568550Y-154981656D01*
X22437279Y-154915800D01*
X22295139Y-154842008D01*
X22169589Y-154774636D01*
X22044694Y-154705529D01*
X21924632Y-154637096D01*
X21801701Y-154564951D01*
X21679855Y-154491324D01*
X21559011Y-154416174D01*
X21439358Y-154339623D01*
X21313508Y-154256754D01*
X21188952Y-154172300D01*
X21069012Y-154088621D01*
X20957241Y-154008505D01*
X20839535Y-153921848D01*
X20719504Y-153830992D01*
X20611196Y-153746790D01*
X20493493Y-153652825D01*
X20390547Y-153568481D01*
X20288348Y-153482685D01*
X20187217Y-153395710D01*
X20087244Y-153307632D01*
X19988329Y-153218367D01*
X19881021Y-153119071D01*
X19784476Y-153027468D01*
X19688812Y-152934512D01*
X19594366Y-152840521D01*
X19501072Y-152745436D01*
X19406058Y-152646227D01*
X19303439Y-152536278D01*
X19213826Y-152437793D01*
X19125348Y-152338193D01*
X19035185Y-152234184D01*
X18949078Y-152132389D01*
X18864173Y-152029543D01*
X18777916Y-151922443D01*
X18687651Y-151807408D01*
X18604169Y-151698183D01*
X18519376Y-151584313D01*
X18436050Y-151469386D01*
X18354106Y-151353282D01*
X18276093Y-151239745D01*
X18199395Y-151125107D01*
X18124122Y-151009522D01*
X18047962Y-150889288D01*
X17975562Y-150771736D01*
X17902357Y-150649444D01*
X17832872Y-150529962D01*
X17764884Y-150409628D01*
X17694188Y-150280651D01*
X17625258Y-150150847D01*
X17559922Y-150023816D01*
X17494308Y-149892028D01*
X17430354Y-149759174D01*
X17369974Y-149629401D01*
X17309465Y-149494743D01*
X17250625Y-149358970D01*
X17195359Y-149226686D01*
X17136869Y-149081140D01*
X17082029Y-148938953D01*
X17027535Y-148791526D01*
X16977969Y-148651490D01*
X16928850Y-148506428D01*
X16880355Y-148356260D01*
X16835258Y-148209562D01*
X16790893Y-148057617D01*
X16748657Y-147904846D01*
X16709676Y-147755619D01*
X16671643Y-147601077D01*
X16634870Y-147441626D01*
X16600351Y-147281091D01*
X16569053Y-147124396D01*
X16538363Y-146957863D01*
X16510910Y-146795135D01*
X16485164Y-146627074D01*
X16461369Y-146453799D01*
X16440758Y-146284151D01*
X16422716Y-146113843D01*
X16406495Y-145933618D01*
X16393163Y-145752730D01*
X16382733Y-145571039D01*
X16375066Y-145383960D01*
X16370570Y-145200689D01*
X16369019Y-145011360D01*
X16369019Y-25488129D01*
X16370622Y-25297624D01*
X16375732Y-25099335D01*
X16383674Y-24914757D01*
X16394296Y-24736029D01*
X16407598Y-24559954D01*
X16424473Y-24376329D01*
X16442822Y-24206483D01*
X16463786Y-24036950D01*
X16486706Y-23872183D01*
X16512072Y-23707902D01*
X16539890Y-23544039D01*
X16569284Y-23385150D01*
X16600969Y-23226791D01*
X16635919Y-23064578D01*
X16671233Y-22911536D01*
X16708684Y-22759098D01*
X16748305Y-22607124D01*
X16788830Y-22460122D01*
X16833863Y-22305328D01*
X16881119Y-22151261D01*
X16927482Y-22007357D01*
X16979428Y-21853591D01*
X17030212Y-21709996D01*
X17082986Y-21567043D01*
X17137770Y-21424700D01*
X17192845Y-21287164D01*
X17248041Y-21154414D01*
X17306787Y-21018199D01*
X17365485Y-20886871D01*
X17425886Y-20756306D01*
X17489955Y-20622453D01*
X17552341Y-20496362D01*
X17619375Y-20365174D01*
X17685071Y-20240625D01*
X17751920Y-20117674D01*
X17819751Y-19996564D01*
X17889113Y-19876274D01*
X17961188Y-19754850D01*
X18034201Y-19635312D01*
X18092424Y-19542626D01*
X18702600Y-19542626D01*
X18702600Y-20081374D01*
X18807705Y-20609770D01*
X19013875Y-21107508D01*
X19313187Y-21555461D01*
X19694139Y-21936413D01*
X20142092Y-22235725D01*
X20639830Y-22441895D01*
X21168226Y-22547000D01*
X21706974Y-22547000D01*
X22235370Y-22441895D01*
X22733108Y-22235725D01*
X23181061Y-21936413D01*
X23562013Y-21555461D01*
X23861325Y-21107508D01*
X24067495Y-20609770D01*
X24172600Y-20081374D01*
X24172600Y-19542626D01*
X24067495Y-19014230D01*
X23861325Y-18516492D01*
X23562013Y-18068539D01*
X23181061Y-17687587D01*
X22733108Y-17388275D01*
X22235370Y-17182105D01*
X21706974Y-17077000D01*
X21168226Y-17077000D01*
X20639830Y-17182105D01*
X20142092Y-17388275D01*
X19694139Y-17687587D01*
X19313187Y-18068539D01*
X19013875Y-18516492D01*
X18807705Y-19014230D01*
X18702600Y-19542626D01*
X18092424Y-19542626D01*
X18108209Y-19517499D01*
X18182546Y-19402374D01*
X18257625Y-19289174D01*
X18339198Y-19169494D01*
X18419763Y-19054495D01*
X18504517Y-18936764D01*
X18585471Y-18827266D01*
X18670689Y-18714964D01*
X18754604Y-18607200D01*
X18841928Y-18497897D01*
X18934963Y-18384473D01*
X19023123Y-18279746D01*
X19112709Y-18175957D01*
X19203807Y-18073018D01*
X19293169Y-17974481D01*
X19383938Y-17876776D01*
X19475898Y-17780136D01*
X19569886Y-17683712D01*
X19621540Y-17631713D01*
X19728484Y-17526171D01*
X19824524Y-17433772D01*
X19921569Y-17342624D01*
X20029654Y-17243635D01*
X20128598Y-17155277D01*
X20235420Y-17062235D01*
X20339929Y-16973491D01*
X20444526Y-16886859D01*
X20548412Y-16802920D01*
X20655820Y-16718279D01*
X20764155Y-16635048D01*
X20873331Y-16553289D01*
X20983425Y-16472933D01*
X21098012Y-16391469D01*
X21213541Y-16311516D01*
X21327257Y-16234906D01*
X21443745Y-16158516D01*
X21558285Y-16085419D01*
X21674589Y-16013191D01*
X21793513Y-15941368D01*
X21918018Y-15868325D01*
X22043360Y-15796962D01*
X22165755Y-15729339D01*
X22292727Y-15661289D01*
X22424543Y-15592859D01*
X22549236Y-15530168D01*
X22678736Y-15467117D01*
X22808910Y-15405810D01*
X22943948Y-15344372D01*
X23075674Y-15286518D01*
X23208207Y-15230347D01*
X23341313Y-15175954D01*
X23479286Y-15121678D01*
X23617863Y-15069286D01*
X23761261Y-15017279D01*
X23901162Y-14968669D01*
X24050020Y-14919229D01*
X24195401Y-14873178D01*
X24341366Y-14829141D01*
X24492251Y-14785902D01*
X24643743Y-14744793D01*
X24795739Y-14705848D01*
X24952601Y-14668040D01*
X25110094Y-14632495D01*
X25268006Y-14599261D01*
X25435206Y-14566674D01*
X25598600Y-14537387D01*
X25762518Y-14510529D01*
X25925872Y-14486261D01*
X26093083Y-14463984D01*
X26261648Y-14444138D01*
X26431790Y-14426748D01*
X26611103Y-14411280D01*
X26786389Y-14398985D01*
X26966201Y-14389263D01*
X27164331Y-14381929D01*
X27350309Y-14378254D01*
X27478654Y-14377522D01*
X195065246Y-14377522D01*
X195264836Y-14379279D01*
M02*
