%FSLAX45Y45*%
G04 Gerber Fmt 4.5, Leading zero omitted, Abs format (unit mm)*
G04 Created by KiCad (PCBNEW (5.1.5-0-10_14)) date 2020-04-18 19:51:37*
%MOMM*%
%LPD*%
G04 APERTURE LIST*
%TA.AperFunction,Profile*%
%ADD10C,0.200000*%
%TD*%
%ADD11C,0.200000*%
%ADD12C,0.300000*%
G04 APERTURE END LIST*
D10*
X2258319Y-12569156D02*
X2258319Y-14760216D01*
X1842302Y-11945587D02*
X2258319Y-12569156D01*
X1840109Y-8931771D02*
X1842302Y-11945587D01*
X2161686Y-7418800D02*
X1840109Y-8931771D01*
X2161686Y-3877390D02*
X2161686Y-7418800D01*
X2569055Y-2167989D02*
X2161686Y-3877390D01*
X20691108Y-3013994D02*
X20691108Y-3013994D01*
X20691108Y-6116014D02*
X20691108Y-15349788D01*
X20484713Y-6116014D02*
X20691108Y-6116014D01*
X19738785Y-9625370D02*
X20484713Y-6116014D01*
X20181686Y-10283375D02*
X19738785Y-9625370D01*
X19595277Y-15422670D02*
X20181686Y-10283375D01*
X19457848Y-16069206D02*
X19595277Y-15422670D01*
X18755630Y-1666652D02*
X18755630Y-2122618D01*
X19766672Y-1666652D02*
X18755630Y-1666652D01*
X17452496Y-16069206D02*
X19457848Y-16069206D01*
X12433851Y-15046949D02*
X17452496Y-16069206D01*
X3352364Y-15046072D02*
X12433851Y-15046949D01*
X3352364Y-15359407D02*
X3352364Y-15046072D01*
X2600858Y-15359407D02*
X3352364Y-15359407D01*
X2600357Y-14974005D02*
X2600858Y-15359407D01*
X2258319Y-14760216D02*
X2600357Y-14974005D01*
X20344245Y-1711114D02*
X20356346Y-1723393D01*
X20356346Y-1723393D02*
X20366202Y-1733662D01*
X20366202Y-1733662D02*
X20375922Y-1744037D01*
X20375922Y-1744037D02*
X20386428Y-1755536D01*
X20386428Y-1755536D02*
X20397071Y-1767502D01*
X20397071Y-1767502D02*
X20406575Y-1778469D01*
X20406575Y-1778469D02*
X20415788Y-1789365D01*
X20415788Y-1789365D02*
X20425077Y-1800627D01*
X20425077Y-1800627D02*
X20434219Y-1811991D01*
X20434219Y-1811991D02*
X20443212Y-1823458D01*
X20443212Y-1823458D02*
X20452056Y-1835026D01*
X20452056Y-1835026D02*
X20460750Y-1846691D01*
X20460750Y-1846691D02*
X20469493Y-1858732D01*
X20469493Y-1858732D02*
X20477883Y-1870593D01*
X20477883Y-1870593D02*
X20486185Y-1882643D01*
X20486185Y-1882643D02*
X20494270Y-1894692D01*
X20494270Y-1894692D02*
X20502447Y-1907213D01*
X20502447Y-1907213D02*
X20510702Y-1920214D01*
X20510702Y-1920214D02*
X20518548Y-1932927D01*
X20518548Y-1932927D02*
X20526229Y-1945732D01*
X20526229Y-1945732D02*
X20533913Y-1958922D01*
X20533913Y-1958922D02*
X20541534Y-1972402D01*
X20541534Y-1972402D02*
X20548922Y-1985876D01*
X20548922Y-1985876D02*
X20555870Y-1998940D01*
X20555870Y-1998940D02*
X20562755Y-2012287D01*
X20562755Y-2012287D02*
X20569618Y-2026022D01*
X20569618Y-2026022D02*
X20576301Y-2039842D01*
X20576301Y-2039842D02*
X20583557Y-2055386D01*
X20583557Y-2055386D02*
X20589856Y-2069380D01*
X20589856Y-2069380D02*
X20595974Y-2083453D01*
X20595974Y-2083453D02*
X20602080Y-2098022D01*
X20602080Y-2098022D02*
X20607867Y-2112356D01*
X20607867Y-2112356D02*
X20613707Y-2127397D01*
X20613707Y-2127397D02*
X20619227Y-2142200D01*
X20619227Y-2142200D02*
X20624549Y-2157078D01*
X20624549Y-2157078D02*
X20629673Y-2172027D01*
X20629673Y-2172027D02*
X20634874Y-2187908D01*
X20634874Y-2187908D02*
X20639950Y-2204189D01*
X20639950Y-2204189D02*
X20644605Y-2219895D01*
X20644605Y-2219895D02*
X20649133Y-2235997D01*
X20649133Y-2235997D02*
X20653435Y-2252168D01*
X20653435Y-2252168D02*
X20657831Y-2269726D01*
X20657831Y-2269726D02*
X20661760Y-2286475D01*
X20661760Y-2286475D02*
X20665423Y-2303179D01*
X20665423Y-2303179D02*
X20669044Y-2320946D01*
X20669044Y-2320946D02*
X20672254Y-2337998D01*
X20672254Y-2337998D02*
X20675270Y-2355445D01*
X20675270Y-2355445D02*
X20678096Y-2373399D01*
X20678096Y-2373399D02*
X20680586Y-2390959D01*
X20680586Y-2390959D02*
X20682870Y-2409025D01*
X20682870Y-2409025D02*
X20684877Y-2427143D01*
X20684877Y-2427143D02*
X20686646Y-2445765D01*
X20686646Y-2445765D02*
X20688155Y-2464890D01*
X20688155Y-2464890D02*
X20689355Y-2484064D01*
X20689355Y-2484064D02*
X20690245Y-2503281D01*
X20690245Y-2503281D02*
X20690833Y-2522998D01*
X20690833Y-2522998D02*
X20691094Y-2542753D01*
X20691094Y-2542753D02*
X20691108Y-2548503D01*
X2569023Y-1666652D02*
X2569055Y-2167989D01*
X3384356Y-1666652D02*
X2569023Y-1666652D01*
X19506854Y-1364252D02*
X19527767Y-1364436D01*
X19527767Y-1364436D02*
X19547952Y-1364964D01*
X19547952Y-1364964D02*
X19567178Y-1365788D01*
X19567178Y-1365788D02*
X19586361Y-1366921D01*
X19586361Y-1366921D02*
X19606863Y-1368479D01*
X19606863Y-1368479D02*
X19625492Y-1370206D01*
X19625492Y-1370206D02*
X19643617Y-1372171D01*
X19643617Y-1372171D02*
X19661690Y-1374413D01*
X19661690Y-1374413D02*
X19679259Y-1376864D01*
X19679259Y-1376864D02*
X19696774Y-1379575D01*
X19696774Y-1379575D02*
X19714231Y-1382545D01*
X19714231Y-1382545D02*
X19731628Y-1385774D01*
X19731628Y-1385774D02*
X19748519Y-1389167D01*
X19748519Y-1389167D02*
X19766231Y-1393001D01*
X19766231Y-1393001D02*
X19782991Y-1396892D01*
X19782991Y-1396892D02*
X19799683Y-1401023D01*
X19799683Y-1401023D02*
X19815869Y-1405276D01*
X19815869Y-1405276D02*
X19834159Y-1410378D01*
X19834159Y-1410378D02*
X19850952Y-1415343D01*
X19850952Y-1415343D02*
X19866588Y-1420210D01*
X19866588Y-1420210D02*
X19882045Y-1425256D01*
X19882045Y-1425256D02*
X19897001Y-1430363D01*
X19897001Y-1430363D02*
X19912309Y-1435823D01*
X19912309Y-1435823D02*
X19927538Y-1441491D01*
X19927538Y-1441491D02*
X19942582Y-1447326D01*
X19942582Y-1447326D02*
X19956918Y-1453108D01*
X19956918Y-1453108D02*
X19971073Y-1459031D01*
X19971073Y-1459031D02*
X19985151Y-1465138D01*
X19985151Y-1465138D02*
X19999047Y-1471380D01*
X19999047Y-1471380D02*
X20013068Y-1477897D01*
X20013068Y-1477897D02*
X20026902Y-1484548D01*
X20026902Y-1484548D02*
X20040652Y-1491380D01*
X20040652Y-1491380D02*
X20053915Y-1498182D01*
X20053915Y-1498182D02*
X20067095Y-1505152D01*
X20067095Y-1505152D02*
X20080980Y-1512727D01*
X20080980Y-1512727D02*
X20093983Y-1520042D01*
X20093983Y-1520042D02*
X20107287Y-1527751D01*
X20107287Y-1527751D02*
X20120109Y-1535402D01*
X20120109Y-1535402D02*
X20132839Y-1543218D01*
X20132839Y-1543218D02*
X20145476Y-1551198D01*
X20145476Y-1551198D02*
X20157639Y-1559092D01*
X20157639Y-1559092D02*
X20169805Y-1567202D01*
X20169805Y-1567202D02*
X20181784Y-1575402D01*
X20181784Y-1575402D02*
X20193577Y-1583688D01*
X20193577Y-1583688D02*
X20205368Y-1592190D01*
X20205368Y-1592190D02*
X20217789Y-1601388D01*
X20217789Y-1601388D02*
X20229378Y-1610199D01*
X20229378Y-1610199D02*
X20240867Y-1619159D01*
X20240867Y-1619159D02*
X20251988Y-1628054D01*
X20251988Y-1628054D02*
X20263802Y-1637744D01*
X20263802Y-1637744D02*
X20274979Y-1647152D01*
X20274979Y-1647152D02*
X20285792Y-1656480D01*
X20285792Y-1656480D02*
X20296417Y-1665872D01*
X20296417Y-1665872D02*
X20307530Y-1675942D01*
X20307530Y-1675942D02*
X20318027Y-1685692D01*
X20318027Y-1685692D02*
X20328334Y-1695500D01*
X20328334Y-1695500D02*
X20338534Y-1705442D01*
X20338534Y-1705442D02*
X20344245Y-1711114D01*
X3384199Y-2122618D02*
X3384356Y-1666652D01*
X18755630Y-2122618D02*
X3384199Y-2122618D01*
X19766672Y-2167989D02*
X19766672Y-1666652D01*
X20691108Y-3013994D02*
X19766672Y-2167989D01*
X20691108Y-2548503D02*
X20691108Y-3013994D01*
X20691108Y-3013994D02*
X20691108Y-3013994D01*
X2747656Y-1364252D02*
X19506854Y-1364252D01*
X1910265Y-1711114D02*
X1921554Y-1699973D01*
X1921554Y-1699973D02*
X1931812Y-1690104D01*
X1931812Y-1690104D02*
X1942175Y-1680371D01*
X1942175Y-1680371D02*
X1953662Y-1669851D01*
X1953662Y-1669851D02*
X1964243Y-1660402D01*
X1964243Y-1660402D02*
X1975618Y-1650494D01*
X1975618Y-1650494D02*
X1986757Y-1641035D01*
X1986757Y-1641035D02*
X1997914Y-1631795D01*
X1997914Y-1631795D02*
X2008994Y-1622842D01*
X2008994Y-1622842D02*
X2020441Y-1613821D01*
X2020441Y-1613821D02*
X2031989Y-1604949D01*
X2031989Y-1604949D02*
X2043636Y-1596227D01*
X2043636Y-1596227D02*
X2055381Y-1587655D01*
X2055381Y-1587655D02*
X2067594Y-1578972D01*
X2067594Y-1578972D02*
X2079907Y-1570451D01*
X2079907Y-1570451D02*
X2092036Y-1562280D01*
X2092036Y-1562280D02*
X2104448Y-1554140D01*
X2104448Y-1554140D02*
X2116667Y-1546342D01*
X2116667Y-1546342D02*
X2129070Y-1538639D01*
X2129070Y-1538639D02*
X2141757Y-1530977D01*
X2141757Y-1530977D02*
X2155022Y-1523195D01*
X2155022Y-1523195D02*
X2168382Y-1515589D01*
X2168382Y-1515589D02*
X2181438Y-1508375D01*
X2181438Y-1508375D02*
X2194979Y-1501118D01*
X2194979Y-1501118D02*
X2209011Y-1493834D01*
X2209011Y-1493834D02*
X2222326Y-1487139D01*
X2222326Y-1487139D02*
X2236128Y-1480419D01*
X2236128Y-1480419D02*
X2250015Y-1473879D01*
X2250015Y-1473879D02*
X2264395Y-1467336D01*
X2264395Y-1467336D02*
X2278446Y-1461165D01*
X2278446Y-1461165D02*
X2292575Y-1455177D01*
X2292575Y-1455177D02*
X2306780Y-1449372D01*
X2306780Y-1449372D02*
X2321480Y-1443589D01*
X2321480Y-1443589D02*
X2336258Y-1438002D01*
X2336258Y-1438002D02*
X2351536Y-1432461D01*
X2351536Y-1432461D02*
X2366464Y-1427275D01*
X2366464Y-1427275D02*
X2382322Y-1422008D01*
X2382322Y-1422008D02*
X2397825Y-1417097D01*
X2397825Y-1417097D02*
X2413398Y-1412398D01*
X2413398Y-1412398D02*
X2429476Y-1407791D01*
X2429476Y-1407791D02*
X2445624Y-1403409D01*
X2445624Y-1403409D02*
X2461840Y-1399254D01*
X2461840Y-1399254D02*
X2478561Y-1395224D01*
X2478561Y-1395224D02*
X2495349Y-1391435D01*
X2495349Y-1391435D02*
X2512202Y-1387889D01*
X2512202Y-1387889D02*
X2530007Y-1384418D01*
X2530007Y-1384418D02*
X2547429Y-1381295D01*
X2547429Y-1381295D02*
X2564911Y-1378431D01*
X2564911Y-1378431D02*
X2582336Y-1375842D01*
X2582336Y-1375842D02*
X2600153Y-1373469D01*
X2600153Y-1373469D02*
X2618135Y-1371352D01*
X2618135Y-1371352D02*
X2636280Y-1369497D01*
X2636280Y-1369497D02*
X2655384Y-1367849D01*
X2655384Y-1367849D02*
X2674080Y-1366538D01*
X2674080Y-1366538D02*
X2693277Y-1365500D01*
X2693277Y-1365500D02*
X2714351Y-1364720D01*
X2714351Y-1364720D02*
X2734092Y-1364330D01*
X2734092Y-1364330D02*
X2747656Y-1364252D01*
X1563402Y-2548503D02*
X1563570Y-2528507D01*
X1563570Y-2528507D02*
X1564114Y-2507404D01*
X1564114Y-2507404D02*
X1564961Y-2487721D01*
X1564961Y-2487721D02*
X1566094Y-2468653D01*
X1566094Y-2468653D02*
X1567514Y-2449859D01*
X1567514Y-2449859D02*
X1569310Y-2430319D01*
X1569310Y-2430319D02*
X1571268Y-2412192D01*
X1571268Y-2412192D02*
X1573503Y-2394117D01*
X1573503Y-2394117D02*
X1575947Y-2376547D01*
X1575947Y-2376547D02*
X1578652Y-2359031D01*
X1578652Y-2359031D02*
X1581616Y-2341572D01*
X1581616Y-2341572D02*
X1584752Y-2324619D01*
X1584752Y-2324619D02*
X1588132Y-2307725D01*
X1588132Y-2307725D02*
X1591854Y-2290452D01*
X1591854Y-2290452D02*
X1595621Y-2274127D01*
X1595621Y-2274127D02*
X1599616Y-2257866D01*
X1599616Y-2257866D02*
X1603838Y-2241671D01*
X1603838Y-2241671D02*
X1608164Y-2225979D01*
X1608164Y-2225979D02*
X1612961Y-2209488D01*
X1612961Y-2209488D02*
X1617996Y-2193075D01*
X1617996Y-2193075D02*
X1622948Y-2177705D01*
X1622948Y-2177705D02*
X1628476Y-2161342D01*
X1628476Y-2161342D02*
X1633895Y-2146019D01*
X1633895Y-2146019D02*
X1639523Y-2130774D01*
X1639523Y-2130774D02*
X1645359Y-2115610D01*
X1645359Y-2115610D02*
X1651231Y-2100945D01*
X1651231Y-2100945D02*
X1657122Y-2086776D01*
X1657122Y-2086776D02*
X1663378Y-2072271D01*
X1663378Y-2072271D02*
X1669640Y-2058261D01*
X1669640Y-2058261D02*
X1676084Y-2044331D01*
X1676084Y-2044331D02*
X1682907Y-2030078D01*
X1682907Y-2030078D02*
X1689565Y-2016621D01*
X1689565Y-2016621D02*
X1696706Y-2002644D01*
X1696706Y-2002644D02*
X1703715Y-1989358D01*
X1703715Y-1989358D02*
X1710838Y-1976256D01*
X1710838Y-1976256D02*
X1718073Y-1963339D01*
X1718073Y-1963339D02*
X1725471Y-1950509D01*
X1725471Y-1950509D02*
X1733149Y-1937573D01*
X1733149Y-1937573D02*
X1740935Y-1924826D01*
X1740935Y-1924826D02*
X1748824Y-1912268D01*
X1748824Y-1912268D02*
X1756750Y-1899992D01*
X1756750Y-1899992D02*
X1764768Y-1887903D01*
X1764768Y-1887903D02*
X1773455Y-1875159D01*
X1773455Y-1875159D02*
X1782049Y-1862891D01*
X1782049Y-1862891D02*
X1791072Y-1850357D01*
X1791072Y-1850357D02*
X1799720Y-1838661D01*
X1799720Y-1838661D02*
X1808795Y-1826701D01*
X1808795Y-1826701D02*
X1817746Y-1815206D01*
X1817746Y-1815206D02*
X1827061Y-1803547D01*
X1827061Y-1803547D02*
X1836968Y-1791469D01*
X1836968Y-1791469D02*
X1846376Y-1780292D01*
X1846376Y-1780292D02*
X1855932Y-1769222D01*
X1855932Y-1769222D02*
X1865633Y-1758259D01*
X1865633Y-1758259D02*
X1875170Y-1747743D01*
X1875170Y-1747743D02*
X1884843Y-1737332D01*
X1884843Y-1737332D02*
X1894650Y-1727025D01*
X1894650Y-1727025D02*
X1904593Y-1716825D01*
X1904593Y-1716825D02*
X1910265Y-1711114D01*
X1563402Y-14501433D02*
X1563402Y-2548503D01*
X2747656Y-15685684D02*
X2727814Y-15685520D01*
X2727814Y-15685520D02*
X2707338Y-15685010D01*
X2707338Y-15685010D02*
X2687896Y-15684202D01*
X2687896Y-15684202D02*
X2668065Y-15683051D01*
X2668065Y-15683051D02*
X2648791Y-15681615D01*
X2648791Y-15681615D02*
X2630071Y-15679919D01*
X2630071Y-15679919D02*
X2611901Y-15677987D01*
X2611901Y-15677987D02*
X2593814Y-15675782D01*
X2593814Y-15675782D02*
X2575351Y-15673240D01*
X2575351Y-15673240D02*
X2557439Y-15670488D01*
X2557439Y-15670488D02*
X2539159Y-15667390D01*
X2539159Y-15667390D02*
X2520523Y-15663925D01*
X2520523Y-15663925D02*
X2503793Y-15660550D01*
X2503793Y-15660550D02*
X2485804Y-15656637D01*
X2485804Y-15656637D02*
X2469255Y-15652776D01*
X2469255Y-15652776D02*
X2451910Y-15648458D01*
X2451910Y-15648458D02*
X2435989Y-15644246D01*
X2435989Y-15644246D02*
X2419718Y-15639693D01*
X2419718Y-15639693D02*
X2403542Y-15634915D01*
X2403542Y-15634915D02*
X2387896Y-15630053D01*
X2387896Y-15630053D02*
X2371914Y-15624836D01*
X2371914Y-15624836D02*
X2356887Y-15619700D01*
X2356887Y-15619700D02*
X2341953Y-15614368D01*
X2341953Y-15614368D02*
X2327111Y-15608843D01*
X2327111Y-15608843D02*
X2311944Y-15602960D01*
X2311944Y-15602960D02*
X2297296Y-15597047D01*
X2297296Y-15597047D02*
X2283160Y-15591123D01*
X2283160Y-15591123D02*
X2268706Y-15584839D01*
X2268706Y-15584839D02*
X2253944Y-15578182D01*
X2253944Y-15578182D02*
X2239290Y-15571330D01*
X2239290Y-15571330D02*
X2224343Y-15564086D01*
X2224343Y-15564086D02*
X2210313Y-15557047D01*
X2210313Y-15557047D02*
X2195201Y-15549202D01*
X2195201Y-15549202D02*
X2181789Y-15542004D01*
X2181789Y-15542004D02*
X2168480Y-15534640D01*
X2168480Y-15534640D02*
X2155663Y-15527335D01*
X2155663Y-15527335D02*
X2142563Y-15519647D01*
X2142563Y-15519647D02*
X2129571Y-15511796D01*
X2129571Y-15511796D02*
X2116688Y-15503785D01*
X2116688Y-15503785D02*
X2103916Y-15495614D01*
X2103916Y-15495614D02*
X2090515Y-15486790D01*
X2090515Y-15486790D02*
X2077241Y-15477789D01*
X2077241Y-15477789D02*
X2064460Y-15468872D01*
X2064460Y-15468872D02*
X2052523Y-15460316D01*
X2052523Y-15460316D02*
X2039983Y-15451084D01*
X2039983Y-15451084D02*
X2027217Y-15441421D01*
X2027217Y-15441421D02*
X2015634Y-15432416D01*
X2015634Y-15432416D02*
X2003129Y-15422433D01*
X2003129Y-15422433D02*
X1992130Y-15413421D01*
X1992130Y-15413421D02*
X1981241Y-15404280D01*
X1981241Y-15404280D02*
X1970464Y-15395012D01*
X1970464Y-15395012D02*
X1959801Y-15385617D01*
X1959801Y-15385617D02*
X1949251Y-15376097D01*
X1949251Y-15376097D02*
X1937845Y-15365542D01*
X1937845Y-15365542D02*
X1927538Y-15355763D01*
X1927538Y-15355763D02*
X1917350Y-15345862D01*
X1917350Y-15345862D02*
X1907280Y-15335841D01*
X1907280Y-15335841D02*
X1897330Y-15325700D01*
X1897330Y-15325700D02*
X1887196Y-15315119D01*
X1887196Y-15315119D02*
X1876290Y-15303434D01*
X1876290Y-15303434D02*
X1866727Y-15292924D01*
X1866727Y-15292924D02*
X1857289Y-15282300D01*
X1857289Y-15282300D02*
X1847688Y-15271224D01*
X1847688Y-15271224D02*
X1838507Y-15260371D01*
X1838507Y-15260371D02*
X1829455Y-15249406D01*
X1829455Y-15249406D02*
X1820255Y-15237983D01*
X1820255Y-15237983D02*
X1810650Y-15225743D01*
X1810650Y-15225743D02*
X1801739Y-15214083D01*
X1801739Y-15214083D02*
X1792706Y-15201953D01*
X1792706Y-15201953D02*
X1783825Y-15189703D01*
X1783825Y-15189703D02*
X1775097Y-15177337D01*
X1775097Y-15177337D02*
X1766774Y-15165224D01*
X1766774Y-15165224D02*
X1758597Y-15153003D01*
X1758597Y-15153003D02*
X1750569Y-15140675D01*
X1750569Y-15140675D02*
X1742454Y-15127864D01*
X1742454Y-15127864D02*
X1734731Y-15115324D01*
X1734731Y-15115324D02*
X1726933Y-15102297D01*
X1726933Y-15102297D02*
X1719520Y-15089550D01*
X1719520Y-15089550D02*
X1712261Y-15076703D01*
X1712261Y-15076703D02*
X1704734Y-15062970D01*
X1704734Y-15062970D02*
X1697383Y-15049127D01*
X1697383Y-15049127D02*
X1690413Y-15035576D01*
X1690413Y-15035576D02*
X1683416Y-15021522D01*
X1683416Y-15021522D02*
X1676599Y-15007362D01*
X1676599Y-15007362D02*
X1670154Y-14993508D01*
X1670154Y-14993508D02*
X1663700Y-14979146D01*
X1663700Y-14979146D02*
X1657432Y-14964683D01*
X1657432Y-14964683D02*
X1651523Y-14950539D01*
X1651523Y-14950539D02*
X1645295Y-14935042D01*
X1645295Y-14935042D02*
X1639440Y-14919861D01*
X1639440Y-14919861D02*
X1633635Y-14904154D01*
X1633635Y-14904154D02*
X1628342Y-14889201D01*
X1628342Y-14889201D02*
X1623102Y-14873726D01*
X1623102Y-14873726D02*
X1617933Y-14857722D01*
X1617933Y-14857722D02*
X1613117Y-14842056D01*
X1613117Y-14842056D02*
X1608388Y-14825859D01*
X1608388Y-14825859D02*
X1603884Y-14809568D01*
X1603884Y-14809568D02*
X1599720Y-14793627D01*
X1599720Y-14793627D02*
X1595666Y-14777154D01*
X1595666Y-14777154D02*
X1591743Y-14760142D01*
X1591743Y-14760142D02*
X1588065Y-14743038D01*
X1588065Y-14743038D02*
X1584721Y-14726297D01*
X1584721Y-14726297D02*
X1581453Y-14708560D01*
X1581453Y-14708560D02*
X1578522Y-14691190D01*
X1578522Y-14691190D02*
X1575778Y-14673276D01*
X1575778Y-14673276D02*
X1573242Y-14654811D01*
X1573242Y-14654811D02*
X1571044Y-14636722D01*
X1571044Y-14636722D02*
X1569119Y-14618549D01*
X1569119Y-14618549D02*
X1567392Y-14599358D01*
X1567392Y-14599358D02*
X1565971Y-14580080D01*
X1565971Y-14580080D02*
X1564860Y-14560719D01*
X1564860Y-14560719D02*
X1564043Y-14540799D01*
X1564043Y-14540799D02*
X1563564Y-14521274D01*
X1563564Y-14521274D02*
X1563402Y-14501433D01*
X13525233Y-15685684D02*
X2747656Y-15685684D01*
X13998715Y-15733499D02*
X13980899Y-15729933D01*
X13980899Y-15729933D02*
X13963746Y-15726635D01*
X13963746Y-15726635D02*
X13946686Y-15723484D01*
X13946686Y-15723484D02*
X13929606Y-15720460D01*
X13929606Y-15720460D02*
X13912162Y-15717503D01*
X13912162Y-15717503D02*
X13894928Y-15714714D01*
X13894928Y-15714714D02*
X13877216Y-15711984D01*
X13877216Y-15711984D02*
X13859600Y-15709404D01*
X13859600Y-15709404D02*
X13841505Y-15706894D01*
X13841505Y-15706894D02*
X13822124Y-15704364D01*
X13822124Y-15704364D02*
X13804109Y-15702158D01*
X13804109Y-15702158D02*
X13784922Y-15699962D01*
X13784922Y-15699962D02*
X13766760Y-15698029D01*
X13766760Y-15698029D02*
X13748121Y-15696193D01*
X13748121Y-15696193D02*
X13729351Y-15694494D01*
X13729351Y-15694494D02*
X13710800Y-15692963D01*
X13710800Y-15692963D02*
X13691309Y-15691512D01*
X13691309Y-15691512D02*
X13671805Y-15690222D01*
X13671805Y-15690222D02*
X13652522Y-15689105D01*
X13652522Y-15689105D02*
X13633345Y-15688152D01*
X13633345Y-15688152D02*
X13613112Y-15687314D01*
X13613112Y-15687314D02*
X13593685Y-15686672D01*
X13593685Y-15686672D02*
X13573204Y-15686169D01*
X13573204Y-15686169D02*
X13552715Y-15685843D01*
X13552715Y-15685843D02*
X13532221Y-15685694D01*
X13532221Y-15685694D02*
X13525233Y-15685684D01*
X17688156Y-16486224D02*
X17661894Y-16480867D01*
X17661894Y-16480867D02*
X17634469Y-16475272D01*
X17634469Y-16475272D02*
X17576232Y-16463391D01*
X17576232Y-16463391D02*
X17491309Y-16446066D01*
X17491309Y-16446066D02*
X17398976Y-16427230D01*
X17398976Y-16427230D02*
X17299782Y-16406993D01*
X17299782Y-16406993D02*
X17194275Y-16385469D01*
X17194275Y-16385469D02*
X17083005Y-16362768D01*
X17083005Y-16362768D02*
X16966521Y-16339004D01*
X16966521Y-16339004D02*
X16845371Y-16314287D01*
X16845371Y-16314287D02*
X16720105Y-16288731D01*
X16720105Y-16288731D02*
X16591270Y-16262446D01*
X16591270Y-16262446D02*
X16459417Y-16235546D01*
X16459417Y-16235546D02*
X16325094Y-16208141D01*
X16325094Y-16208141D02*
X16188849Y-16180345D01*
X16188849Y-16180345D02*
X16051233Y-16152268D01*
X16051233Y-16152268D02*
X15912793Y-16124023D01*
X15912793Y-16124023D02*
X15774078Y-16095722D01*
X15774078Y-16095722D02*
X15635638Y-16067477D01*
X15635638Y-16067477D02*
X15498022Y-16039400D01*
X15498022Y-16039400D02*
X15361777Y-16011603D01*
X15361777Y-16011603D02*
X15160841Y-15970607D01*
X15160841Y-15970607D02*
X14966766Y-15931011D01*
X14966766Y-15931011D02*
X14841500Y-15905454D01*
X14841500Y-15905454D02*
X14660873Y-15868601D01*
X14660873Y-15868601D02*
X14492596Y-15834267D01*
X14492596Y-15834267D02*
X14387089Y-15812740D01*
X14387089Y-15812740D02*
X14287895Y-15792502D01*
X14287895Y-15792502D02*
X14195562Y-15773663D01*
X14195562Y-15773663D02*
X14110639Y-15756335D01*
X14110639Y-15756335D02*
X14033675Y-15740632D01*
X14033675Y-15740632D02*
X13998715Y-15733499D01*
X18161670Y-16534039D02*
X18141402Y-16533952D01*
X18141402Y-16533952D02*
X18121549Y-16533699D01*
X18121549Y-16533699D02*
X18101585Y-16533277D01*
X18101585Y-16533277D02*
X18082037Y-16532700D01*
X18082037Y-16532700D02*
X18061915Y-16531938D01*
X18061915Y-16531938D02*
X18042733Y-16531052D01*
X18042733Y-16531052D02*
X18023445Y-16530003D01*
X18023445Y-16530003D02*
X18003935Y-16528782D01*
X18003935Y-16528782D02*
X17984438Y-16527400D01*
X17984438Y-16527400D02*
X17965881Y-16525935D01*
X17965881Y-16525935D02*
X17947106Y-16524302D01*
X17947106Y-16524302D02*
X17928576Y-16522543D01*
X17928576Y-16522543D02*
X17910291Y-16520664D01*
X17910291Y-16520664D02*
X17891791Y-16518615D01*
X17891791Y-16518615D02*
X17873190Y-16516407D01*
X17873190Y-16516407D02*
X17855069Y-16514113D01*
X17855069Y-16514113D02*
X17837080Y-16511694D01*
X17837080Y-16511694D02*
X17819108Y-16509137D01*
X17819108Y-16509137D02*
X17801385Y-16506478D01*
X17801385Y-16506478D02*
X17783910Y-16503722D01*
X17783910Y-16503722D02*
X17766454Y-16500834D01*
X17766454Y-16500834D02*
X17749018Y-16497816D01*
X17749018Y-16497816D02*
X17731602Y-16494667D01*
X17731602Y-16494667D02*
X17714436Y-16491432D01*
X17714436Y-16491432D02*
X17696834Y-16487978D01*
X17696834Y-16487978D02*
X17688156Y-16486224D01*
X19506854Y-16534039D02*
X18161670Y-16534039D01*
X20691108Y-15349788D02*
X20690920Y-15371061D01*
X20690920Y-15371061D02*
X20690418Y-15390580D01*
X20690418Y-15390580D02*
X20689579Y-15410494D01*
X20689579Y-15410494D02*
X20688444Y-15429850D01*
X20688444Y-15429850D02*
X20687040Y-15448652D01*
X20687040Y-15448652D02*
X20685344Y-15467372D01*
X20685344Y-15467372D02*
X20683412Y-15485542D01*
X20683412Y-15485542D02*
X20680965Y-15505479D01*
X20680965Y-15505479D02*
X20678394Y-15523933D01*
X20678394Y-15523933D02*
X20675690Y-15541378D01*
X20675690Y-15541378D02*
X20672733Y-15558739D01*
X20672733Y-15558739D02*
X20669525Y-15576013D01*
X20669525Y-15576013D02*
X20666162Y-15592748D01*
X20666162Y-15592748D02*
X20662565Y-15609396D01*
X20662565Y-15609396D02*
X20658736Y-15625956D01*
X20658736Y-15625956D02*
X20654563Y-15642871D01*
X20654563Y-15642871D02*
X20650387Y-15658806D01*
X20650387Y-15658806D02*
X20645746Y-15675532D01*
X20645746Y-15675532D02*
X20641129Y-15691284D01*
X20641129Y-15691284D02*
X20636302Y-15706945D01*
X20636302Y-15706945D02*
X20631407Y-15722081D01*
X20631407Y-15722081D02*
X20626315Y-15737128D01*
X20626315Y-15737128D02*
X20621028Y-15752084D01*
X20621028Y-15752084D02*
X20615388Y-15767370D01*
X20615388Y-15767370D02*
X20609709Y-15782136D01*
X20609709Y-15782136D02*
X20603840Y-15796807D01*
X20603840Y-15796807D02*
X20597781Y-15811380D01*
X20597781Y-15811380D02*
X20591716Y-15825441D01*
X20591716Y-15825441D02*
X20585475Y-15839408D01*
X20585475Y-15839408D02*
X20579059Y-15853280D01*
X20579059Y-15853280D02*
X20572078Y-15867861D01*
X20572078Y-15867861D02*
X20565308Y-15881530D01*
X20565308Y-15881530D02*
X20557955Y-15895893D01*
X20557955Y-15895893D02*
X20550412Y-15910143D01*
X20550412Y-15910143D02*
X20543116Y-15923495D01*
X20543116Y-15923495D02*
X20535211Y-15937518D01*
X20535211Y-15937518D02*
X20527576Y-15950652D01*
X20527576Y-15950652D02*
X20519778Y-15963680D01*
X20519778Y-15963680D02*
X20512055Y-15976219D01*
X20512055Y-15976219D02*
X20503940Y-15989031D01*
X20503940Y-15989031D02*
X20495420Y-16002102D01*
X20495420Y-16002102D02*
X20487235Y-16014317D01*
X20487235Y-16014317D02*
X20478903Y-16026423D01*
X20478903Y-16026423D02*
X20469906Y-16039144D01*
X20469906Y-16039144D02*
X20461275Y-16051025D01*
X20461275Y-16051025D02*
X20452502Y-16062794D01*
X20452502Y-16062794D02*
X20443586Y-16074450D01*
X20443586Y-16074450D02*
X20433423Y-16087382D01*
X20433423Y-16087382D02*
X20424211Y-16098794D01*
X20424211Y-16098794D02*
X20414576Y-16110429D01*
X20414576Y-16110429D02*
X20403926Y-16122948D01*
X20403926Y-16122948D02*
X20394578Y-16133655D01*
X20394578Y-16133655D02*
X20385105Y-16144247D01*
X20385105Y-16144247D02*
X20375507Y-16154724D01*
X20375507Y-16154724D02*
X20365785Y-16165086D01*
X20365785Y-16165086D02*
X20355942Y-16175330D01*
X20355942Y-16175330D02*
X20344409Y-16187027D01*
X20344409Y-16187027D02*
X20334306Y-16197015D01*
X20334306Y-16197015D02*
X20324084Y-16206881D01*
X20324084Y-16206881D02*
X20313744Y-16216626D01*
X20313744Y-16216626D02*
X20302302Y-16227142D01*
X20302302Y-16227142D02*
X20291720Y-16236627D01*
X20291720Y-16236627D02*
X20281025Y-16245987D01*
X20281025Y-16245987D02*
X20270217Y-16255219D01*
X20270217Y-16255219D02*
X20258954Y-16264606D01*
X20258954Y-16264606D02*
X20247920Y-16273578D01*
X20247920Y-16273578D02*
X20236428Y-16282693D01*
X20236428Y-16282693D02*
X20224113Y-16292208D01*
X20224113Y-16292208D02*
X20212028Y-16301299D01*
X20212028Y-16301299D02*
X20199824Y-16310238D01*
X20199824Y-16310238D02*
X20187502Y-16319024D01*
X20187502Y-16319024D02*
X20175064Y-16327657D01*
X20175064Y-16327657D02*
X20162511Y-16336134D01*
X20162511Y-16336134D02*
X20150219Y-16344212D01*
X20150219Y-16344212D02*
X20137821Y-16352140D01*
X20137821Y-16352140D02*
X20124177Y-16360618D01*
X20124177Y-16360618D02*
X20111178Y-16368459D01*
X20111178Y-16368459D02*
X20098072Y-16376138D01*
X20098072Y-16376138D02*
X20085249Y-16383434D01*
X20085249Y-16383434D02*
X20072328Y-16390574D01*
X20072328Y-16390574D02*
X20059308Y-16397557D01*
X20059308Y-16397557D02*
X20045394Y-16404791D01*
X20045394Y-16404791D02*
X20031775Y-16411646D01*
X20031775Y-16411646D02*
X20018056Y-16418330D01*
X20018056Y-16418330D02*
X20004239Y-16424842D01*
X20004239Y-16424842D02*
X19990325Y-16431181D01*
X19990325Y-16431181D02*
X19976316Y-16437345D01*
X19976316Y-16437345D02*
X19962213Y-16443332D01*
X19962213Y-16443332D02*
X19946760Y-16449646D01*
X19946760Y-16449646D02*
X19932043Y-16455423D01*
X19932043Y-16455423D02*
X19916806Y-16461165D01*
X19916806Y-16461165D02*
X19901471Y-16466703D01*
X19901471Y-16466703D02*
X19885608Y-16472180D01*
X19885608Y-16472180D02*
X19869644Y-16477438D01*
X19869644Y-16477438D02*
X19854017Y-16482342D01*
X19854017Y-16482342D02*
X19837421Y-16487289D01*
X19837421Y-16487289D02*
X19821606Y-16491757D01*
X19821606Y-16491757D02*
X19805702Y-16496011D01*
X19805702Y-16496011D02*
X19789711Y-16500049D01*
X19789711Y-16500049D02*
X19771843Y-16504280D01*
X19771843Y-16504280D02*
X19754772Y-16508049D01*
X19754772Y-16508049D02*
X19737158Y-16511660D01*
X19737158Y-16511660D02*
X19719905Y-16514927D01*
X19719905Y-16514927D02*
X19702564Y-16517944D01*
X19702564Y-16517944D02*
X19683759Y-16520915D01*
X19683759Y-16520915D02*
X19666243Y-16523405D01*
X19666243Y-16523405D02*
X19648182Y-16525693D01*
X19648182Y-16525693D02*
X19629571Y-16527758D01*
X19629571Y-16527758D02*
X19610874Y-16529533D01*
X19610874Y-16529533D02*
X19591153Y-16531085D01*
X19591153Y-16531085D02*
X19572288Y-16532262D01*
X19572288Y-16532262D02*
X19552870Y-16533161D01*
X19552870Y-16533161D02*
X19533371Y-16533748D01*
X19533371Y-16533748D02*
X19513316Y-16534022D01*
X19513316Y-16534022D02*
X19506854Y-16534039D01*
D11*
X1933760Y-1771200D02*
X2353760Y-2191200D01*
X2353760Y-1771200D02*
X1933760Y-2191200D01*
X1933760Y-14857280D02*
X2353760Y-15277280D01*
X2353760Y-14857280D02*
X1933760Y-15277280D01*
X19889020Y-1771200D02*
X20309020Y-2191200D01*
X20309020Y-1771200D02*
X19889020Y-2191200D01*
X19889020Y-15497360D02*
X20309020Y-15917360D01*
X20309020Y-15497360D02*
X19889020Y-15917360D01*
X19889020Y-9218480D02*
X20309020Y-9638480D01*
X20309020Y-9218480D02*
X19889020Y-9638480D01*
D12*
X1839830Y-17009753D02*
X1839830Y-16709753D01*
X1911259Y-16709753D01*
X1954116Y-16724039D01*
X1982687Y-16752611D01*
X1996973Y-16781182D01*
X2011259Y-16838325D01*
X2011259Y-16881182D01*
X1996973Y-16938325D01*
X1982687Y-16966896D01*
X1954116Y-16995468D01*
X1911259Y-17009753D01*
X1839830Y-17009753D01*
X2139830Y-17009753D02*
X2139830Y-16809753D01*
X2139830Y-16866896D02*
X2154116Y-16838325D01*
X2168402Y-16824039D01*
X2196973Y-16809753D01*
X2225545Y-16809753D01*
X2325545Y-17009753D02*
X2325545Y-16809753D01*
X2325545Y-16709753D02*
X2311259Y-16724039D01*
X2325545Y-16738325D01*
X2339830Y-16724039D01*
X2325545Y-16709753D01*
X2325545Y-16738325D01*
X2511259Y-17009753D02*
X2482688Y-16995468D01*
X2468402Y-16966896D01*
X2468402Y-16709753D01*
X2668402Y-17009753D02*
X2639830Y-16995468D01*
X2625545Y-16966896D01*
X2625545Y-16709753D01*
X3011259Y-17009753D02*
X3011259Y-16709753D01*
X3111259Y-16924039D01*
X3211259Y-16709753D01*
X3211259Y-17009753D01*
X3482687Y-17009753D02*
X3482687Y-16852611D01*
X3468402Y-16824039D01*
X3439830Y-16809753D01*
X3382687Y-16809753D01*
X3354116Y-16824039D01*
X3482687Y-16995468D02*
X3454116Y-17009753D01*
X3382687Y-17009753D01*
X3354116Y-16995468D01*
X3339830Y-16966896D01*
X3339830Y-16938325D01*
X3354116Y-16909753D01*
X3382687Y-16895468D01*
X3454116Y-16895468D01*
X3482687Y-16881182D01*
X3625545Y-16809753D02*
X3625545Y-17109753D01*
X3625545Y-16824039D02*
X3654116Y-16809753D01*
X3711259Y-16809753D01*
X3739830Y-16824039D01*
X3754116Y-16838325D01*
X3768402Y-16866896D01*
X3768402Y-16952611D01*
X3754116Y-16981182D01*
X3739830Y-16995468D01*
X3711259Y-17009753D01*
X3654116Y-17009753D01*
X3625545Y-16995468D01*
X3896973Y-16981182D02*
X3911259Y-16995468D01*
X3896973Y-17009753D01*
X3882687Y-16995468D01*
X3896973Y-16981182D01*
X3896973Y-17009753D01*
X3896973Y-16824039D02*
X3911259Y-16838325D01*
X3896973Y-16852611D01*
X3882687Y-16838325D01*
X3896973Y-16824039D01*
X3896973Y-16852611D01*
X1133402Y-17294039D02*
X1553402Y-17714039D01*
X1553402Y-17294039D02*
X1133402Y-17714039D01*
X1968402Y-17439753D02*
X1968402Y-17639753D01*
X1896973Y-17325468D02*
X1825545Y-17539753D01*
X2011259Y-17539753D01*
X2125545Y-17611182D02*
X2139830Y-17625468D01*
X2125545Y-17639753D01*
X2111259Y-17625468D01*
X2125545Y-17611182D01*
X2125545Y-17639753D01*
X2254116Y-17368325D02*
X2268402Y-17354039D01*
X2296973Y-17339753D01*
X2368402Y-17339753D01*
X2396973Y-17354039D01*
X2411259Y-17368325D01*
X2425545Y-17396896D01*
X2425545Y-17425468D01*
X2411259Y-17468325D01*
X2239830Y-17639753D01*
X2425545Y-17639753D01*
X2611259Y-17339753D02*
X2639830Y-17339753D01*
X2668402Y-17354039D01*
X2682688Y-17368325D01*
X2696973Y-17396896D01*
X2711259Y-17454039D01*
X2711259Y-17525468D01*
X2696973Y-17582611D01*
X2682688Y-17611182D01*
X2668402Y-17625468D01*
X2639830Y-17639753D01*
X2611259Y-17639753D01*
X2582688Y-17625468D01*
X2568402Y-17611182D01*
X2554116Y-17582611D01*
X2539830Y-17525468D01*
X2539830Y-17454039D01*
X2554116Y-17396896D01*
X2568402Y-17368325D01*
X2582688Y-17354039D01*
X2611259Y-17339753D01*
X2839830Y-17639753D02*
X2839830Y-17439753D01*
X2839830Y-17468325D02*
X2854116Y-17454039D01*
X2882687Y-17439753D01*
X2925545Y-17439753D01*
X2954116Y-17454039D01*
X2968402Y-17482611D01*
X2968402Y-17639753D01*
X2968402Y-17482611D02*
X2982687Y-17454039D01*
X3011259Y-17439753D01*
X3054116Y-17439753D01*
X3082687Y-17454039D01*
X3096973Y-17482611D01*
X3096973Y-17639753D01*
X3239830Y-17639753D02*
X3239830Y-17439753D01*
X3239830Y-17468325D02*
X3254116Y-17454039D01*
X3282687Y-17439753D01*
X3325545Y-17439753D01*
X3354116Y-17454039D01*
X3368402Y-17482611D01*
X3368402Y-17639753D01*
X3368402Y-17482611D02*
X3382687Y-17454039D01*
X3411259Y-17439753D01*
X3454116Y-17439753D01*
X3482687Y-17454039D01*
X3496973Y-17482611D01*
X3496973Y-17639753D01*
X4082687Y-17325468D02*
X3825545Y-17711182D01*
X4468402Y-17339753D02*
X4496973Y-17339753D01*
X4525545Y-17354039D01*
X4539830Y-17368325D01*
X4554116Y-17396896D01*
X4568402Y-17454039D01*
X4568402Y-17525468D01*
X4554116Y-17582611D01*
X4539830Y-17611182D01*
X4525545Y-17625468D01*
X4496973Y-17639753D01*
X4468402Y-17639753D01*
X4439830Y-17625468D01*
X4425545Y-17611182D01*
X4411259Y-17582611D01*
X4396973Y-17525468D01*
X4396973Y-17454039D01*
X4411259Y-17396896D01*
X4425545Y-17368325D01*
X4439830Y-17354039D01*
X4468402Y-17339753D01*
X4696973Y-17611182D02*
X4711259Y-17625468D01*
X4696973Y-17639753D01*
X4682688Y-17625468D01*
X4696973Y-17611182D01*
X4696973Y-17639753D01*
X4996973Y-17639753D02*
X4825545Y-17639753D01*
X4911259Y-17639753D02*
X4911259Y-17339753D01*
X4882688Y-17382611D01*
X4854116Y-17411182D01*
X4825545Y-17425468D01*
X5254116Y-17339753D02*
X5196973Y-17339753D01*
X5168402Y-17354039D01*
X5154116Y-17368325D01*
X5125545Y-17411182D01*
X5111259Y-17468325D01*
X5111259Y-17582611D01*
X5125545Y-17611182D01*
X5139830Y-17625468D01*
X5168402Y-17639753D01*
X5225545Y-17639753D01*
X5254116Y-17625468D01*
X5268402Y-17611182D01*
X5282688Y-17582611D01*
X5282688Y-17511182D01*
X5268402Y-17482611D01*
X5254116Y-17468325D01*
X5225545Y-17454039D01*
X5168402Y-17454039D01*
X5139830Y-17468325D01*
X5125545Y-17482611D01*
X5111259Y-17511182D01*
X5554116Y-17339753D02*
X5411259Y-17339753D01*
X5396973Y-17482611D01*
X5411259Y-17468325D01*
X5439830Y-17454039D01*
X5511259Y-17454039D01*
X5539830Y-17468325D01*
X5554116Y-17482611D01*
X5568402Y-17511182D01*
X5568402Y-17582611D01*
X5554116Y-17611182D01*
X5539830Y-17625468D01*
X5511259Y-17639753D01*
X5439830Y-17639753D01*
X5411259Y-17625468D01*
X5396973Y-17611182D01*
X5682687Y-17339753D02*
X5682687Y-17396896D01*
X5796973Y-17339753D02*
X5796973Y-17396896D01*
X6239830Y-17754039D02*
X6225545Y-17739753D01*
X6196973Y-17696896D01*
X6182687Y-17668325D01*
X6168402Y-17625468D01*
X6154116Y-17554039D01*
X6154116Y-17496896D01*
X6168402Y-17425468D01*
X6182687Y-17382611D01*
X6196973Y-17354039D01*
X6225545Y-17311182D01*
X6239830Y-17296896D01*
X6496973Y-17339753D02*
X6354116Y-17339753D01*
X6339830Y-17482611D01*
X6354116Y-17468325D01*
X6382687Y-17454039D01*
X6454116Y-17454039D01*
X6482687Y-17468325D01*
X6496973Y-17482611D01*
X6511259Y-17511182D01*
X6511259Y-17582611D01*
X6496973Y-17611182D01*
X6482687Y-17625468D01*
X6454116Y-17639753D01*
X6382687Y-17639753D01*
X6354116Y-17625468D01*
X6339830Y-17611182D01*
X6868402Y-17639753D02*
X6868402Y-17339753D01*
X6996973Y-17639753D02*
X6996973Y-17482611D01*
X6982687Y-17454039D01*
X6954116Y-17439753D01*
X6911259Y-17439753D01*
X6882687Y-17454039D01*
X6868402Y-17468325D01*
X7182687Y-17639753D02*
X7154116Y-17625468D01*
X7139830Y-17611182D01*
X7125545Y-17582611D01*
X7125545Y-17496896D01*
X7139830Y-17468325D01*
X7154116Y-17454039D01*
X7182687Y-17439753D01*
X7225545Y-17439753D01*
X7254116Y-17454039D01*
X7268402Y-17468325D01*
X7282687Y-17496896D01*
X7282687Y-17582611D01*
X7268402Y-17611182D01*
X7254116Y-17625468D01*
X7225545Y-17639753D01*
X7182687Y-17639753D01*
X7454116Y-17639753D02*
X7425545Y-17625468D01*
X7411259Y-17596896D01*
X7411259Y-17339753D01*
X7682687Y-17625468D02*
X7654116Y-17639753D01*
X7596973Y-17639753D01*
X7568402Y-17625468D01*
X7554116Y-17596896D01*
X7554116Y-17482611D01*
X7568402Y-17454039D01*
X7596973Y-17439753D01*
X7654116Y-17439753D01*
X7682687Y-17454039D01*
X7696973Y-17482611D01*
X7696973Y-17511182D01*
X7554116Y-17539753D01*
X7811259Y-17625468D02*
X7839830Y-17639753D01*
X7896973Y-17639753D01*
X7925545Y-17625468D01*
X7939830Y-17596896D01*
X7939830Y-17582611D01*
X7925545Y-17554039D01*
X7896973Y-17539753D01*
X7854116Y-17539753D01*
X7825545Y-17525468D01*
X7811259Y-17496896D01*
X7811259Y-17482611D01*
X7825545Y-17454039D01*
X7854116Y-17439753D01*
X7896973Y-17439753D01*
X7925545Y-17454039D01*
X8039830Y-17754039D02*
X8054116Y-17739753D01*
X8082687Y-17696896D01*
X8096973Y-17668325D01*
X8111259Y-17625468D01*
X8125545Y-17554039D01*
X8125545Y-17496896D01*
X8111259Y-17425468D01*
X8096973Y-17382611D01*
X8082687Y-17354039D01*
X8054116Y-17311182D01*
X8039830Y-17296896D01*
X8582688Y-17754039D02*
X8568402Y-17739753D01*
X8539830Y-17696896D01*
X8525545Y-17668325D01*
X8511259Y-17625468D01*
X8496973Y-17554039D01*
X8496973Y-17496896D01*
X8511259Y-17425468D01*
X8525545Y-17382611D01*
X8539830Y-17354039D01*
X8568402Y-17311182D01*
X8582688Y-17296896D01*
X8696973Y-17439753D02*
X8696973Y-17639753D01*
X8696973Y-17468325D02*
X8711259Y-17454039D01*
X8739830Y-17439753D01*
X8782688Y-17439753D01*
X8811259Y-17454039D01*
X8825545Y-17482611D01*
X8825545Y-17639753D01*
X9011259Y-17639753D02*
X8982688Y-17625468D01*
X8968402Y-17611182D01*
X8954116Y-17582611D01*
X8954116Y-17496896D01*
X8968402Y-17468325D01*
X8982688Y-17454039D01*
X9011259Y-17439753D01*
X9054116Y-17439753D01*
X9082688Y-17454039D01*
X9096973Y-17468325D01*
X9111259Y-17496896D01*
X9111259Y-17582611D01*
X9096973Y-17611182D01*
X9082688Y-17625468D01*
X9054116Y-17639753D01*
X9011259Y-17639753D01*
X9196973Y-17439753D02*
X9311259Y-17439753D01*
X9239830Y-17339753D02*
X9239830Y-17596896D01*
X9254116Y-17625468D01*
X9282688Y-17639753D01*
X9311259Y-17639753D01*
X9639830Y-17439753D02*
X9639830Y-17739753D01*
X9639830Y-17454039D02*
X9668402Y-17439753D01*
X9725545Y-17439753D01*
X9754116Y-17454039D01*
X9768402Y-17468325D01*
X9782688Y-17496896D01*
X9782688Y-17582611D01*
X9768402Y-17611182D01*
X9754116Y-17625468D01*
X9725545Y-17639753D01*
X9668402Y-17639753D01*
X9639830Y-17625468D01*
X9954116Y-17639753D02*
X9925545Y-17625468D01*
X9911259Y-17596896D01*
X9911259Y-17339753D01*
X10196973Y-17639753D02*
X10196973Y-17482611D01*
X10182688Y-17454039D01*
X10154116Y-17439753D01*
X10096973Y-17439753D01*
X10068402Y-17454039D01*
X10196973Y-17625468D02*
X10168402Y-17639753D01*
X10096973Y-17639753D01*
X10068402Y-17625468D01*
X10054116Y-17596896D01*
X10054116Y-17568325D01*
X10068402Y-17539753D01*
X10096973Y-17525468D01*
X10168402Y-17525468D01*
X10196973Y-17511182D01*
X10296973Y-17439753D02*
X10411259Y-17439753D01*
X10339830Y-17339753D02*
X10339830Y-17596896D01*
X10354116Y-17625468D01*
X10382688Y-17639753D01*
X10411259Y-17639753D01*
X10625545Y-17625468D02*
X10596973Y-17639753D01*
X10539830Y-17639753D01*
X10511259Y-17625468D01*
X10496973Y-17596896D01*
X10496973Y-17482611D01*
X10511259Y-17454039D01*
X10539830Y-17439753D01*
X10596973Y-17439753D01*
X10625545Y-17454039D01*
X10639830Y-17482611D01*
X10639830Y-17511182D01*
X10496973Y-17539753D01*
X10896973Y-17639753D02*
X10896973Y-17339753D01*
X10896973Y-17625468D02*
X10868402Y-17639753D01*
X10811259Y-17639753D01*
X10782688Y-17625468D01*
X10768402Y-17611182D01*
X10754116Y-17582611D01*
X10754116Y-17496896D01*
X10768402Y-17468325D01*
X10782688Y-17454039D01*
X10811259Y-17439753D01*
X10868402Y-17439753D01*
X10896973Y-17454039D01*
X11011259Y-17754039D02*
X11025545Y-17739753D01*
X11054116Y-17696896D01*
X11068402Y-17668325D01*
X11082688Y-17625468D01*
X11096973Y-17554039D01*
X11096973Y-17496896D01*
X11082688Y-17425468D01*
X11068402Y-17382611D01*
X11054116Y-17354039D01*
X11025545Y-17311182D01*
X11011259Y-17296896D01*
M02*
