G04 #@! TF.GenerationSoftware,KiCad,Pcbnew,(5.1.5-0-10_14)*
G04 #@! TF.CreationDate,2020-04-18T19:51:42+09:00*
G04 #@! TF.ProjectId,colice_left_MidFrame,636f6c69-6365-45f6-9c65-66745f4d6964,rev?*
G04 #@! TF.SameCoordinates,Original*
G04 #@! TF.FileFunction,Soldermask,Top*
G04 #@! TF.FilePolarity,Negative*
%FSLAX46Y46*%
G04 Gerber Fmt 4.6, Leading zero omitted, Abs format (unit mm)*
G04 Created by KiCad (PCBNEW (5.1.5-0-10_14)) date 2020-04-18 19:51:42*
%MOMM*%
%LPD*%
G04 APERTURE LIST*
%ADD10C,0.150000*%
%ADD11C,0.100000*%
G04 APERTURE END LIST*
D10*
X34925000Y-20320000D02*
X58420000Y-20320000D01*
D11*
G36*
X201617623Y-155005261D02*
G01*
X202009079Y-155167407D01*
X202009081Y-155167408D01*
X202361383Y-155402809D01*
X202660991Y-155702417D01*
X202896392Y-156054719D01*
X202896393Y-156054721D01*
X203058539Y-156446177D01*
X203141200Y-156861744D01*
X203141200Y-157285456D01*
X203058539Y-157701023D01*
X202896393Y-158092479D01*
X202896392Y-158092481D01*
X202660991Y-158444783D01*
X202361383Y-158744391D01*
X202009081Y-158979792D01*
X202009080Y-158979793D01*
X202009079Y-158979793D01*
X201617623Y-159141939D01*
X201202056Y-159224600D01*
X200778344Y-159224600D01*
X200362777Y-159141939D01*
X199971321Y-158979793D01*
X199971320Y-158979793D01*
X199971319Y-158979792D01*
X199619017Y-158744391D01*
X199319409Y-158444783D01*
X199084008Y-158092481D01*
X199084007Y-158092479D01*
X198921861Y-157701023D01*
X198839200Y-157285456D01*
X198839200Y-156861744D01*
X198921861Y-156446177D01*
X199084007Y-156054721D01*
X199084008Y-156054719D01*
X199319409Y-155702417D01*
X199619017Y-155402809D01*
X199971319Y-155167408D01*
X199971321Y-155167407D01*
X200362777Y-155005261D01*
X200778344Y-154922600D01*
X201202056Y-154922600D01*
X201617623Y-155005261D01*
G37*
G36*
X22065023Y-148604461D02*
G01*
X22456479Y-148766607D01*
X22456481Y-148766608D01*
X22808783Y-149002009D01*
X23108391Y-149301617D01*
X23343792Y-149653919D01*
X23343793Y-149653921D01*
X23505939Y-150045377D01*
X23588600Y-150460944D01*
X23588600Y-150884656D01*
X23505939Y-151300223D01*
X23343793Y-151691679D01*
X23343792Y-151691681D01*
X23108391Y-152043983D01*
X22808783Y-152343591D01*
X22456481Y-152578992D01*
X22456480Y-152578993D01*
X22456479Y-152578993D01*
X22065023Y-152741139D01*
X21649456Y-152823800D01*
X21225744Y-152823800D01*
X20810177Y-152741139D01*
X20418721Y-152578993D01*
X20418720Y-152578993D01*
X20418719Y-152578992D01*
X20066417Y-152343591D01*
X19766809Y-152043983D01*
X19531408Y-151691681D01*
X19531407Y-151691679D01*
X19369261Y-151300223D01*
X19286600Y-150884656D01*
X19286600Y-150460944D01*
X19369261Y-150045377D01*
X19531407Y-149653921D01*
X19531408Y-149653919D01*
X19766809Y-149301617D01*
X20066417Y-149002009D01*
X20418719Y-148766608D01*
X20418721Y-148766607D01*
X20810177Y-148604461D01*
X21225744Y-148521800D01*
X21649456Y-148521800D01*
X22065023Y-148604461D01*
G37*
G36*
X201617623Y-92216461D02*
G01*
X202009079Y-92378607D01*
X202009081Y-92378608D01*
X202361383Y-92614009D01*
X202660991Y-92913617D01*
X202896392Y-93265919D01*
X202896393Y-93265921D01*
X203058539Y-93657377D01*
X203141200Y-94072944D01*
X203141200Y-94496656D01*
X203058539Y-94912223D01*
X202896393Y-95303679D01*
X202896392Y-95303681D01*
X202660991Y-95655983D01*
X202361383Y-95955591D01*
X202009081Y-96190992D01*
X202009080Y-96190993D01*
X202009079Y-96190993D01*
X201617623Y-96353139D01*
X201202056Y-96435800D01*
X200778344Y-96435800D01*
X200362777Y-96353139D01*
X199971321Y-96190993D01*
X199971320Y-96190993D01*
X199971319Y-96190992D01*
X199619017Y-95955591D01*
X199319409Y-95655983D01*
X199084008Y-95303681D01*
X199084007Y-95303679D01*
X198921861Y-94912223D01*
X198839200Y-94496656D01*
X198839200Y-94072944D01*
X198921861Y-93657377D01*
X199084007Y-93265921D01*
X199084008Y-93265919D01*
X199319409Y-92913617D01*
X199619017Y-92614009D01*
X199971319Y-92378608D01*
X199971321Y-92378607D01*
X200362777Y-92216461D01*
X200778344Y-92133800D01*
X201202056Y-92133800D01*
X201617623Y-92216461D01*
G37*
G36*
X201617623Y-17743661D02*
G01*
X202009079Y-17905807D01*
X202009081Y-17905808D01*
X202361383Y-18141209D01*
X202660991Y-18440817D01*
X202896392Y-18793119D01*
X202896393Y-18793121D01*
X203058539Y-19184577D01*
X203141200Y-19600144D01*
X203141200Y-20023856D01*
X203058539Y-20439423D01*
X202896393Y-20830879D01*
X202896392Y-20830881D01*
X202660991Y-21183183D01*
X202361383Y-21482791D01*
X202009081Y-21718192D01*
X202009080Y-21718193D01*
X202009079Y-21718193D01*
X201617623Y-21880339D01*
X201202056Y-21963000D01*
X200778344Y-21963000D01*
X200362777Y-21880339D01*
X199971321Y-21718193D01*
X199971320Y-21718193D01*
X199971319Y-21718192D01*
X199619017Y-21482791D01*
X199319409Y-21183183D01*
X199084008Y-20830881D01*
X199084007Y-20830879D01*
X198921861Y-20439423D01*
X198839200Y-20023856D01*
X198839200Y-19600144D01*
X198921861Y-19184577D01*
X199084007Y-18793121D01*
X199084008Y-18793119D01*
X199319409Y-18440817D01*
X199619017Y-18141209D01*
X199971319Y-17905808D01*
X199971321Y-17905807D01*
X200362777Y-17743661D01*
X200778344Y-17661000D01*
X201202056Y-17661000D01*
X201617623Y-17743661D01*
G37*
G36*
X22065023Y-17743661D02*
G01*
X22456479Y-17905807D01*
X22456481Y-17905808D01*
X22808783Y-18141209D01*
X23108391Y-18440817D01*
X23343792Y-18793119D01*
X23343793Y-18793121D01*
X23505939Y-19184577D01*
X23588600Y-19600144D01*
X23588600Y-20023856D01*
X23505939Y-20439423D01*
X23343793Y-20830879D01*
X23343792Y-20830881D01*
X23108391Y-21183183D01*
X22808783Y-21482791D01*
X22456481Y-21718192D01*
X22456480Y-21718193D01*
X22456479Y-21718193D01*
X22065023Y-21880339D01*
X21649456Y-21963000D01*
X21225744Y-21963000D01*
X20810177Y-21880339D01*
X20418721Y-21718193D01*
X20418720Y-21718193D01*
X20418719Y-21718192D01*
X20066417Y-21482791D01*
X19766809Y-21183183D01*
X19531408Y-20830881D01*
X19531407Y-20830879D01*
X19369261Y-20439423D01*
X19286600Y-20023856D01*
X19286600Y-19600144D01*
X19369261Y-19184577D01*
X19531407Y-18793121D01*
X19531408Y-18793119D01*
X19766809Y-18440817D01*
X20066417Y-18141209D01*
X20418719Y-17905808D01*
X20418721Y-17905807D01*
X20810177Y-17743661D01*
X21225744Y-17661000D01*
X21649456Y-17661000D01*
X22065023Y-17743661D01*
G37*
M02*
