G04 #@! TF.GenerationSoftware,KiCad,Pcbnew,(5.1.5-0-10_14)*
G04 #@! TF.CreationDate,2020-04-18T19:51:42+09:00*
G04 #@! TF.ProjectId,colice_left_MidFrame,636f6c69-6365-45f6-9c65-66745f4d6964,rev?*
G04 #@! TF.SameCoordinates,Original*
G04 #@! TF.FileFunction,Profile,NP*
%FSLAX46Y46*%
G04 Gerber Fmt 4.6, Leading zero omitted, Abs format (unit mm)*
G04 Created by KiCad (PCBNEW (5.1.5-0-10_14)) date 2020-04-18 19:51:42*
%MOMM*%
%LPD*%
G04 APERTURE LIST*
%ADD10C,0.200000*%
G04 APERTURE END LIST*
D10*
X22583191Y-125691561D02*
X22583191Y-147602163D01*
X18423025Y-119455874D02*
X22583191Y-125691561D01*
X18401092Y-89317712D02*
X18423025Y-119455874D01*
X21616862Y-74188001D02*
X18401092Y-89317712D01*
X21616862Y-38773898D02*
X21616862Y-74188001D01*
X25690546Y-21679887D02*
X21616862Y-38773898D01*
X206911079Y-30139942D02*
X206911079Y-30139942D01*
X206911079Y-61160143D02*
X206911079Y-153497881D01*
X204847133Y-61160143D02*
X206911079Y-61160143D01*
X197387850Y-96253704D02*
X204847133Y-61160143D01*
X201816858Y-102833746D02*
X197387850Y-96253704D01*
X195952770Y-154226699D02*
X201816858Y-102833746D01*
X194578477Y-160692061D02*
X195952770Y-154226699D01*
X187556298Y-16666521D02*
X187556298Y-21226178D01*
X197666719Y-16666521D02*
X187556298Y-16666521D01*
X174524957Y-160692061D02*
X194578477Y-160692061D01*
X124338514Y-150469495D02*
X174524957Y-160692061D01*
X33523639Y-150460721D02*
X124338514Y-150469495D01*
X33523639Y-153594075D02*
X33523639Y-150460721D01*
X26008583Y-153594075D02*
X33523639Y-153594075D01*
X26003569Y-149740050D02*
X26008583Y-153594075D01*
X22583191Y-147602163D02*
X26003569Y-149740050D01*
X203442447Y-17111144D02*
X203563460Y-17233930D01*
X203563460Y-17233930D02*
X203662018Y-17336622D01*
X203662018Y-17336622D02*
X203759224Y-17440369D01*
X203759224Y-17440369D02*
X203864278Y-17555357D01*
X203864278Y-17555357D02*
X203970708Y-17675019D01*
X203970708Y-17675019D02*
X204065747Y-17784687D01*
X204065747Y-17784687D02*
X204157882Y-17893650D01*
X204157882Y-17893650D02*
X204250774Y-18006266D01*
X204250774Y-18006266D02*
X204342187Y-18119914D01*
X204342187Y-18119914D02*
X204432118Y-18234584D01*
X204432118Y-18234584D02*
X204520559Y-18350256D01*
X204520559Y-18350256D02*
X204607504Y-18466915D01*
X204607504Y-18466915D02*
X204694930Y-18587318D01*
X204694930Y-18587318D02*
X204778828Y-18705933D01*
X204778828Y-18705933D02*
X204861847Y-18826429D01*
X204861847Y-18826429D02*
X204942698Y-18946922D01*
X204942698Y-18946922D02*
X205024472Y-19072132D01*
X205024472Y-19072132D02*
X205107019Y-19202137D01*
X205107019Y-19202137D02*
X205185475Y-19329269D01*
X205185475Y-19329269D02*
X205262285Y-19457322D01*
X205262285Y-19457322D02*
X205339128Y-19589218D01*
X205339128Y-19589218D02*
X205415339Y-19724016D01*
X205415339Y-19724016D02*
X205489217Y-19858756D01*
X205489217Y-19858756D02*
X205558698Y-19989396D01*
X205558698Y-19989396D02*
X205627548Y-20122873D01*
X205627548Y-20122873D02*
X205696179Y-20260221D01*
X205696179Y-20260221D02*
X205763010Y-20398420D01*
X205763010Y-20398420D02*
X205835566Y-20553862D01*
X205835566Y-20553862D02*
X205898563Y-20693802D01*
X205898563Y-20693802D02*
X205959737Y-20834535D01*
X205959737Y-20834535D02*
X206020800Y-20980219D01*
X206020800Y-20980219D02*
X206078666Y-21123556D01*
X206078666Y-21123556D02*
X206137072Y-21273972D01*
X206137072Y-21273972D02*
X206192268Y-21422004D01*
X206192268Y-21422004D02*
X206245489Y-21570777D01*
X206245489Y-21570777D02*
X206296731Y-21720274D01*
X206296731Y-21720274D02*
X206348739Y-21879077D01*
X206348739Y-21879077D02*
X206399504Y-22041888D01*
X206399504Y-22041888D02*
X206446050Y-22198948D01*
X206446050Y-22198948D02*
X206491333Y-22359968D01*
X206491333Y-22359968D02*
X206534354Y-22521682D01*
X206534354Y-22521682D02*
X206578309Y-22697257D01*
X206578309Y-22697257D02*
X206617598Y-22864752D01*
X206617598Y-22864752D02*
X206654234Y-23031790D01*
X206654234Y-23031790D02*
X206690438Y-23209460D01*
X206690438Y-23209460D02*
X206722535Y-23379982D01*
X206722535Y-23379982D02*
X206752703Y-23554448D01*
X206752703Y-23554448D02*
X206780956Y-23733988D01*
X206780956Y-23733988D02*
X206805862Y-23909593D01*
X206805862Y-23909593D02*
X206828695Y-24090250D01*
X206828695Y-24090250D02*
X206848766Y-24271429D01*
X206848766Y-24271429D02*
X206866458Y-24457645D01*
X206866458Y-24457645D02*
X206881546Y-24648902D01*
X206881546Y-24648902D02*
X206893547Y-24840635D01*
X206893547Y-24840635D02*
X206902447Y-25032808D01*
X206902447Y-25032808D02*
X206908333Y-25229977D01*
X206908333Y-25229977D02*
X206910937Y-25427532D01*
X206910937Y-25427532D02*
X206911079Y-25485032D01*
X25690233Y-16666521D02*
X25690546Y-21679887D01*
X33843556Y-16666521D02*
X25690233Y-16666521D01*
X195068535Y-13642522D02*
X195277674Y-13644363D01*
X195277674Y-13644363D02*
X195479519Y-13649643D01*
X195479519Y-13649643D02*
X195671783Y-13657878D01*
X195671783Y-13657878D02*
X195863610Y-13669214D01*
X195863610Y-13669214D02*
X196068626Y-13684791D01*
X196068626Y-13684791D02*
X196254915Y-13702057D01*
X196254915Y-13702057D02*
X196436167Y-13721709D01*
X196436167Y-13721709D02*
X196616903Y-13744128D01*
X196616903Y-13744128D02*
X196792594Y-13768636D01*
X196792594Y-13768636D02*
X196967740Y-13795748D01*
X196967740Y-13795748D02*
X197142311Y-13825453D01*
X197142311Y-13825453D02*
X197316282Y-13857740D01*
X197316282Y-13857740D02*
X197485186Y-13891670D01*
X197485186Y-13891670D02*
X197662307Y-13930011D01*
X197662307Y-13930011D02*
X197829906Y-13968917D01*
X197829906Y-13968917D02*
X197996831Y-14010231D01*
X197996831Y-14010231D02*
X198158689Y-14052762D01*
X198158689Y-14052762D02*
X198341589Y-14103785D01*
X198341589Y-14103785D02*
X198509522Y-14153433D01*
X198509522Y-14153433D02*
X198665884Y-14202102D01*
X198665884Y-14202102D02*
X198820449Y-14252557D01*
X198820449Y-14252557D02*
X198970005Y-14303631D01*
X198970005Y-14303631D02*
X199123085Y-14358228D01*
X199123085Y-14358228D02*
X199275378Y-14414912D01*
X199275378Y-14414912D02*
X199425816Y-14473262D01*
X199425816Y-14473262D02*
X199569178Y-14531077D01*
X199569178Y-14531077D02*
X199710733Y-14590312D01*
X199710733Y-14590312D02*
X199851514Y-14651378D01*
X199851514Y-14651378D02*
X199990474Y-14713796D01*
X199990474Y-14713796D02*
X200130679Y-14778973D01*
X200130679Y-14778973D02*
X200269023Y-14845484D01*
X200269023Y-14845484D02*
X200406522Y-14913798D01*
X200406522Y-14913798D02*
X200539150Y-14981816D01*
X200539150Y-14981816D02*
X200670946Y-15051516D01*
X200670946Y-15051516D02*
X200809800Y-15127271D01*
X200809800Y-15127271D02*
X200939828Y-15200416D01*
X200939828Y-15200416D02*
X201072872Y-15277515D01*
X201072872Y-15277515D02*
X201201089Y-15354024D01*
X201201089Y-15354024D02*
X201328391Y-15432182D01*
X201328391Y-15432182D02*
X201454759Y-15511978D01*
X201454759Y-15511978D02*
X201576390Y-15590917D01*
X201576390Y-15590917D02*
X201698052Y-15672019D01*
X201698052Y-15672019D02*
X201817844Y-15754021D01*
X201817844Y-15754021D02*
X201935771Y-15836882D01*
X201935771Y-15836882D02*
X202053676Y-15921899D01*
X202053676Y-15921899D02*
X202177888Y-16013878D01*
X202177888Y-16013878D02*
X202293778Y-16101991D01*
X202293778Y-16101991D02*
X202408668Y-16191595D01*
X202408668Y-16191595D02*
X202519884Y-16280536D01*
X202519884Y-16280536D02*
X202638017Y-16377444D01*
X202638017Y-16377444D02*
X202749788Y-16471518D01*
X202749788Y-16471518D02*
X202857918Y-16564804D01*
X202857918Y-16564804D02*
X202964169Y-16658719D01*
X202964169Y-16658719D02*
X203075302Y-16759418D01*
X203075302Y-16759418D02*
X203180267Y-16856919D01*
X203180267Y-16856919D02*
X203283336Y-16954996D01*
X203283336Y-16954996D02*
X203385338Y-17054421D01*
X203385338Y-17054421D02*
X203442447Y-17111144D01*
X33841989Y-21226178D02*
X33843556Y-16666521D01*
X187556298Y-21226178D02*
X33841989Y-21226178D01*
X197666719Y-21679887D02*
X197666719Y-16666521D01*
X206911079Y-30139942D02*
X197666719Y-21679887D01*
X206911079Y-25485032D02*
X206911079Y-30139940D01*
X206911079Y-30139940D02*
X206911079Y-30139942D01*
X27476563Y-13642522D02*
X195068535Y-13642522D01*
X19102651Y-17111144D02*
X19215543Y-16999731D01*
X19215543Y-16999731D02*
X19318118Y-16901045D01*
X19318118Y-16901045D02*
X19421753Y-16803708D01*
X19421753Y-16803708D02*
X19536619Y-16698508D01*
X19536619Y-16698508D02*
X19642428Y-16604021D01*
X19642428Y-16604021D02*
X19756182Y-16504941D01*
X19756182Y-16504941D02*
X19867575Y-16410351D01*
X19867575Y-16410351D02*
X19979138Y-16317949D01*
X19979138Y-16317949D02*
X20089939Y-16228423D01*
X20089939Y-16228423D02*
X20204410Y-16138215D01*
X20204410Y-16138215D02*
X20319890Y-16049494D01*
X20319890Y-16049494D02*
X20436363Y-15962269D01*
X20436363Y-15962269D02*
X20553811Y-15876546D01*
X20553811Y-15876546D02*
X20675936Y-15789722D01*
X20675936Y-15789722D02*
X20799067Y-15704509D01*
X20799067Y-15704509D02*
X20920358Y-15622796D01*
X20920358Y-15622796D02*
X21044480Y-15541399D01*
X21044480Y-15541399D02*
X21166668Y-15463421D01*
X21166668Y-15463421D02*
X21290704Y-15386391D01*
X21290704Y-15386391D02*
X21417571Y-15309771D01*
X21417571Y-15309771D02*
X21550222Y-15231950D01*
X21550222Y-15231950D02*
X21683821Y-15155886D01*
X21683821Y-15155886D02*
X21814377Y-15083753D01*
X21814377Y-15083753D02*
X21949786Y-15011182D01*
X21949786Y-15011182D02*
X22090107Y-14938336D01*
X22090107Y-14938336D02*
X22223256Y-14871393D01*
X22223256Y-14871393D02*
X22361284Y-14804190D01*
X22361284Y-14804190D02*
X22500147Y-14738792D01*
X22500147Y-14738792D02*
X22643952Y-14673365D01*
X22643952Y-14673365D02*
X22784457Y-14611655D01*
X22784457Y-14611655D02*
X22925746Y-14551773D01*
X22925746Y-14551773D02*
X23067796Y-14493725D01*
X23067796Y-14493725D02*
X23214804Y-14435895D01*
X23214804Y-14435895D02*
X23362580Y-14380025D01*
X23362580Y-14380025D02*
X23515361Y-14324615D01*
X23515361Y-14324615D02*
X23664637Y-14272748D01*
X23664637Y-14272748D02*
X23823216Y-14220079D01*
X23823216Y-14220079D02*
X23978246Y-14170972D01*
X23978246Y-14170972D02*
X24133984Y-14123985D01*
X24133984Y-14123985D02*
X24294763Y-14077911D01*
X24294763Y-14077911D02*
X24456241Y-14034093D01*
X24456241Y-14034093D02*
X24618397Y-13992544D01*
X24618397Y-13992544D02*
X24785613Y-13952241D01*
X24785613Y-13952241D02*
X24953493Y-13914352D01*
X24953493Y-13914352D02*
X25122016Y-13878885D01*
X25122016Y-13878885D02*
X25300067Y-13844183D01*
X25300067Y-13844183D02*
X25474292Y-13812954D01*
X25474292Y-13812954D02*
X25649106Y-13784311D01*
X25649106Y-13784311D02*
X25823357Y-13758424D01*
X25823357Y-13758424D02*
X26001526Y-13734687D01*
X26001526Y-13734687D02*
X26181348Y-13713516D01*
X26181348Y-13713516D02*
X26362802Y-13694970D01*
X26362802Y-13694970D02*
X26553838Y-13678490D01*
X26553838Y-13678490D02*
X26740801Y-13665376D01*
X26740801Y-13665376D02*
X26932770Y-13654997D01*
X26932770Y-13654997D02*
X27143506Y-13647197D01*
X27143506Y-13647197D02*
X27340915Y-13643296D01*
X27340915Y-13643296D02*
X27476563Y-13642522D01*
X15634019Y-25485032D02*
X15635702Y-25285070D01*
X15635702Y-25285070D02*
X15641140Y-25074041D01*
X15641140Y-25074041D02*
X15649609Y-24877207D01*
X15649609Y-24877207D02*
X15660941Y-24686527D01*
X15660941Y-24686527D02*
X15675140Y-24498586D01*
X15675140Y-24498586D02*
X15693098Y-24303185D01*
X15693098Y-24303185D02*
X15712681Y-24121919D01*
X15712681Y-24121919D02*
X15735032Y-23941170D01*
X15735032Y-23941170D02*
X15759473Y-23765466D01*
X15759473Y-23765466D02*
X15786519Y-23590308D01*
X15786519Y-23590308D02*
X15816157Y-23415721D01*
X15816157Y-23415721D02*
X15847520Y-23246190D01*
X15847520Y-23246190D02*
X15881321Y-23077254D01*
X15881321Y-23077254D02*
X15918539Y-22904518D01*
X15918539Y-22904518D02*
X15956207Y-22741271D01*
X15956207Y-22741271D02*
X15996157Y-22578661D01*
X15996157Y-22578661D02*
X16038380Y-22416709D01*
X16038380Y-22416709D02*
X16081638Y-22259792D01*
X16081638Y-22259792D02*
X16129615Y-22094883D01*
X16129615Y-22094883D02*
X16179960Y-21930746D01*
X16179960Y-21930746D02*
X16229476Y-21777053D01*
X16229476Y-21777053D02*
X16284756Y-21613418D01*
X16284756Y-21613418D02*
X16338947Y-21460190D01*
X16338947Y-21460190D02*
X16395227Y-21307741D01*
X16395227Y-21307741D02*
X16453589Y-21156098D01*
X16453589Y-21156098D02*
X16512312Y-21009453D01*
X16512312Y-21009453D02*
X16571225Y-20867763D01*
X16571225Y-20867763D02*
X16633782Y-20722712D01*
X16633782Y-20722712D02*
X16696403Y-20582607D01*
X16696403Y-20582607D02*
X16760844Y-20443309D01*
X16760844Y-20443309D02*
X16829066Y-20300780D01*
X16829066Y-20300780D02*
X16895648Y-20166208D01*
X16895648Y-20166208D02*
X16967064Y-20026445D01*
X16967064Y-20026445D02*
X17037147Y-19893579D01*
X17037147Y-19893579D02*
X17108382Y-19762560D01*
X17108382Y-19762560D02*
X17180728Y-19633390D01*
X17180728Y-19633390D02*
X17254710Y-19505086D01*
X17254710Y-19505086D02*
X17331494Y-19375729D01*
X17331494Y-19375729D02*
X17409351Y-19248260D01*
X17409351Y-19248260D02*
X17488241Y-19122676D01*
X17488241Y-19122676D02*
X17567502Y-18999924D01*
X17567502Y-18999924D02*
X17647683Y-18879031D01*
X17647683Y-18879031D02*
X17734546Y-18751591D01*
X17734546Y-18751591D02*
X17820492Y-18628910D01*
X17820492Y-18628910D02*
X17910723Y-18503572D01*
X17910723Y-18503572D02*
X17997199Y-18386606D01*
X17997199Y-18386606D02*
X18087947Y-18267015D01*
X18087947Y-18267015D02*
X18177458Y-18152064D01*
X18177458Y-18152064D02*
X18270607Y-18035468D01*
X18270607Y-18035468D02*
X18369678Y-17914686D01*
X18369678Y-17914686D02*
X18463764Y-17802921D01*
X18463764Y-17802921D02*
X18559317Y-17692219D01*
X18559317Y-17692219D02*
X18656331Y-17582594D01*
X18656331Y-17582594D02*
X18751699Y-17477435D01*
X18751699Y-17477435D02*
X18848426Y-17373316D01*
X18848426Y-17373316D02*
X18946503Y-17270249D01*
X18946503Y-17270249D02*
X19045928Y-17168246D01*
X19045928Y-17168246D02*
X19102651Y-17111144D01*
X15634019Y-145014326D02*
X15634019Y-25485032D01*
X27476563Y-156856836D02*
X27278140Y-156855203D01*
X27278140Y-156855203D02*
X27073383Y-156850099D01*
X27073383Y-156850099D02*
X26878961Y-156842018D01*
X26878961Y-156842018D02*
X26680649Y-156830511D01*
X26680649Y-156830511D02*
X26487912Y-156816155D01*
X26487912Y-156816155D02*
X26300713Y-156799195D01*
X26300713Y-156799195D02*
X26119013Y-156779875D01*
X26119013Y-156779875D02*
X25938139Y-156757824D01*
X25938139Y-156757824D02*
X25753513Y-156732398D01*
X25753513Y-156732398D02*
X25574386Y-156704885D01*
X25574386Y-156704885D02*
X25391592Y-156673898D01*
X25391592Y-156673898D02*
X25205227Y-156639251D01*
X25205227Y-156639251D02*
X25037931Y-156605498D01*
X25037931Y-156605498D02*
X24858038Y-156566371D01*
X24858038Y-156566371D02*
X24692554Y-156527764D01*
X24692554Y-156527764D02*
X24519100Y-156484578D01*
X24519100Y-156484578D02*
X24359888Y-156442456D01*
X24359888Y-156442456D02*
X24197178Y-156396929D01*
X24197178Y-156396929D02*
X24035418Y-156349153D01*
X24035418Y-156349153D02*
X23878963Y-156300526D01*
X23878963Y-156300526D02*
X23719136Y-156248363D01*
X23719136Y-156248363D02*
X23568874Y-156196997D01*
X23568874Y-156196997D02*
X23419530Y-156143684D01*
X23419530Y-156143684D02*
X23271113Y-156088434D01*
X23271113Y-156088434D02*
X23119443Y-156029603D01*
X23119443Y-156029603D02*
X22972961Y-155970475D01*
X22972961Y-155970475D02*
X22831602Y-155911229D01*
X22831602Y-155911229D02*
X22687058Y-155848391D01*
X22687058Y-155848391D02*
X22539438Y-155781819D01*
X22539438Y-155781819D02*
X22392898Y-155713298D01*
X22392898Y-155713298D02*
X22243432Y-155640859D01*
X22243432Y-155640859D02*
X22103129Y-155570471D01*
X22103129Y-155570471D02*
X21952011Y-155492018D01*
X21952011Y-155492018D02*
X21817885Y-155420044D01*
X21817885Y-155420044D02*
X21684795Y-155346403D01*
X21684795Y-155346403D02*
X21556627Y-155273350D01*
X21556627Y-155273350D02*
X21425626Y-155196469D01*
X21425626Y-155196469D02*
X21295705Y-155117963D01*
X21295705Y-155117963D02*
X21166879Y-155037849D01*
X21166879Y-155037849D02*
X21039159Y-154956137D01*
X21039159Y-154956137D02*
X20905151Y-154867896D01*
X20905151Y-154867896D02*
X20772414Y-154777895D01*
X20772414Y-154777895D02*
X20644604Y-154688725D01*
X20644604Y-154688725D02*
X20525227Y-154603158D01*
X20525227Y-154603158D02*
X20399831Y-154510838D01*
X20399831Y-154510838D02*
X20272170Y-154414207D01*
X20272170Y-154414207D02*
X20156338Y-154324156D01*
X20156338Y-154324156D02*
X20031288Y-154224326D01*
X20031288Y-154224326D02*
X19921297Y-154134209D01*
X19921297Y-154134209D02*
X19812411Y-154042800D01*
X19812411Y-154042800D02*
X19704644Y-153950117D01*
X19704644Y-153950117D02*
X19598007Y-153856168D01*
X19598007Y-153856168D02*
X19492514Y-153760966D01*
X19492514Y-153760966D02*
X19378451Y-153655418D01*
X19378451Y-153655418D02*
X19275385Y-153557629D01*
X19275385Y-153557629D02*
X19173497Y-153458624D01*
X19173497Y-153458624D02*
X19072799Y-153358413D01*
X19072799Y-153358413D02*
X18973301Y-153257005D01*
X18973301Y-153257005D02*
X18871963Y-153151192D01*
X18871963Y-153151192D02*
X18762900Y-153034339D01*
X18762900Y-153034339D02*
X18667270Y-152929241D01*
X18667270Y-152929241D02*
X18572889Y-152822996D01*
X18572889Y-152822996D02*
X18476880Y-152712243D01*
X18476880Y-152712243D02*
X18385072Y-152603708D01*
X18385072Y-152603708D02*
X18294551Y-152494060D01*
X18294551Y-152494060D02*
X18202555Y-152379835D01*
X18202555Y-152379835D02*
X18106505Y-152257426D01*
X18106505Y-152257426D02*
X18017392Y-152140833D01*
X18017392Y-152140833D02*
X17927062Y-152019527D01*
X17927062Y-152019527D02*
X17838251Y-151897035D01*
X17838251Y-151897035D02*
X17750972Y-151773372D01*
X17750972Y-151773372D02*
X17667739Y-151652239D01*
X17667739Y-151652239D02*
X17585974Y-151530028D01*
X17585974Y-151530028D02*
X17505693Y-151406751D01*
X17505693Y-151406751D02*
X17424543Y-151278640D01*
X17424543Y-151278640D02*
X17347312Y-151153243D01*
X17347312Y-151153243D02*
X17269328Y-151022969D01*
X17269328Y-151022969D02*
X17195199Y-150895501D01*
X17195199Y-150895501D02*
X17122615Y-150767032D01*
X17122615Y-150767032D02*
X17047338Y-150629699D01*
X17047338Y-150629699D02*
X16973828Y-150491268D01*
X16973828Y-150491268D02*
X16904130Y-150355759D01*
X16904130Y-150355759D02*
X16834157Y-150215216D01*
X16834157Y-150215216D02*
X16765995Y-150073620D01*
X16765995Y-150073620D02*
X16701536Y-149935079D01*
X16701536Y-149935079D02*
X16637000Y-149791458D01*
X16637000Y-149791458D02*
X16574323Y-149646832D01*
X16574323Y-149646832D02*
X16515231Y-149505389D01*
X16515231Y-149505389D02*
X16452954Y-149350420D01*
X16452954Y-149350420D02*
X16394403Y-149198611D01*
X16394403Y-149198611D02*
X16336346Y-149041544D01*
X16336346Y-149041544D02*
X16283419Y-148892013D01*
X16283419Y-148892013D02*
X16231019Y-148737259D01*
X16231019Y-148737259D02*
X16179335Y-148577220D01*
X16179335Y-148577220D02*
X16131175Y-148420558D01*
X16131175Y-148420558D02*
X16083884Y-148258594D01*
X16083884Y-148258594D02*
X16038844Y-148095679D01*
X16038844Y-148095679D02*
X15997204Y-147936275D01*
X15997204Y-147936275D02*
X15956664Y-147771542D01*
X15956664Y-147771542D02*
X15917431Y-147601425D01*
X15917431Y-147601425D02*
X15880653Y-147430385D01*
X15880653Y-147430385D02*
X15847215Y-147262974D01*
X15847215Y-147262974D02*
X15814528Y-147085605D01*
X15814528Y-147085605D02*
X15785223Y-146911905D01*
X15785223Y-146911905D02*
X15757779Y-146732756D01*
X15757779Y-146732756D02*
X15732422Y-146548107D01*
X15732422Y-146548107D02*
X15710445Y-146367216D01*
X15710445Y-146367216D02*
X15691194Y-146185495D01*
X15691194Y-146185495D02*
X15673921Y-145993585D01*
X15673921Y-145993585D02*
X15659713Y-145800805D01*
X15659713Y-145800805D02*
X15648598Y-145607186D01*
X15648598Y-145607186D02*
X15640434Y-145407993D01*
X15640434Y-145407993D02*
X15635644Y-145212739D01*
X15635644Y-145212739D02*
X15634019Y-145014326D01*
X135252330Y-156856836D02*
X27476563Y-156856836D01*
X139987154Y-157334986D02*
X139808990Y-157299331D01*
X139808990Y-157299331D02*
X139637457Y-157266348D01*
X139637457Y-157266348D02*
X139466859Y-157234845D01*
X139466859Y-157234845D02*
X139296058Y-157204597D01*
X139296058Y-157204597D02*
X139121618Y-157175035D01*
X139121618Y-157175035D02*
X138949278Y-157147145D01*
X138949278Y-157147145D02*
X138772156Y-157119837D01*
X138772156Y-157119837D02*
X138595997Y-157094036D01*
X138595997Y-157094036D02*
X138415051Y-157068940D01*
X138415051Y-157068940D02*
X138221236Y-157043640D01*
X138221236Y-157043640D02*
X138041087Y-157021577D01*
X138041087Y-157021577D02*
X137849221Y-156999620D01*
X137849221Y-156999620D02*
X137667603Y-156980294D01*
X137667603Y-156980294D02*
X137481206Y-156961933D01*
X137481206Y-156961933D02*
X137293512Y-156944943D01*
X137293512Y-156944943D02*
X137108002Y-156929631D01*
X137108002Y-156929631D02*
X136913087Y-156915122D01*
X136913087Y-156915122D02*
X136718047Y-156902222D01*
X136718047Y-156902222D02*
X136525219Y-156891055D01*
X136525219Y-156891055D02*
X136333452Y-156881516D01*
X136333452Y-156881516D02*
X136131125Y-156873138D01*
X136131125Y-156873138D02*
X135936854Y-156866725D01*
X135936854Y-156866725D02*
X135732037Y-156861690D01*
X135732037Y-156861690D02*
X135527150Y-156858427D01*
X135527150Y-156858427D02*
X135322206Y-156856938D01*
X135322206Y-156856938D02*
X135252330Y-156856836D01*
X176881559Y-164862241D02*
X176618943Y-164808667D01*
X176618943Y-164808667D02*
X176344693Y-164752719D01*
X176344693Y-164752719D02*
X175762318Y-164633913D01*
X175762318Y-164633913D02*
X174913088Y-164460665D01*
X174913088Y-164460665D02*
X173989758Y-164272298D01*
X173989758Y-164272298D02*
X172997816Y-164069932D01*
X172997816Y-164069932D02*
X171942751Y-163854687D01*
X171942751Y-163854687D02*
X170830054Y-163627681D01*
X170830054Y-163627681D02*
X169665212Y-163390037D01*
X169665212Y-163390037D02*
X168453714Y-163142872D01*
X168453714Y-163142872D02*
X167201047Y-162887307D01*
X167201047Y-162887307D02*
X165912703Y-162624462D01*
X165912703Y-162624462D02*
X164594171Y-162355458D01*
X164594171Y-162355458D02*
X163250938Y-162081412D01*
X163250938Y-162081412D02*
X161888494Y-161803446D01*
X161888494Y-161803446D02*
X160512328Y-161522680D01*
X160512328Y-161522680D02*
X159127927Y-161240233D01*
X159127927Y-161240233D02*
X157740783Y-160957225D01*
X157740783Y-160957225D02*
X156356383Y-160674775D01*
X156356383Y-160674775D02*
X154980216Y-160394005D01*
X154980216Y-160394005D02*
X153617772Y-160116034D01*
X153617772Y-160116034D02*
X151608411Y-159706075D01*
X151608411Y-159706075D02*
X149667661Y-159310112D01*
X149667661Y-159310112D02*
X148414996Y-159054536D01*
X148414996Y-159054536D02*
X146608726Y-158686006D01*
X146608726Y-158686006D02*
X144925956Y-158342671D01*
X144925956Y-158342671D02*
X143870892Y-158127405D01*
X143870892Y-158127405D02*
X142878951Y-157925017D01*
X142878951Y-157925017D02*
X141955621Y-157736626D01*
X141955621Y-157736626D02*
X141106391Y-157563352D01*
X141106391Y-157563352D02*
X140336753Y-157406317D01*
X140336753Y-157406317D02*
X139987154Y-157334986D01*
X181616696Y-165340391D02*
X181414023Y-165339520D01*
X181414023Y-165339520D02*
X181215485Y-165336990D01*
X181215485Y-165336990D02*
X181015854Y-165332770D01*
X181015854Y-165332770D02*
X180820366Y-165327004D01*
X180820366Y-165327004D02*
X180619149Y-165319379D01*
X180619149Y-165319379D02*
X180427331Y-165310519D01*
X180427331Y-165310519D02*
X180234447Y-165300033D01*
X180234447Y-165300033D02*
X180039352Y-165287823D01*
X180039352Y-165287823D02*
X179844381Y-165274004D01*
X179844381Y-165274004D02*
X179658814Y-165259347D01*
X179658814Y-165259347D02*
X179471057Y-165243022D01*
X179471057Y-165243022D02*
X179285756Y-165225435D01*
X179285756Y-165225435D02*
X179102912Y-165206636D01*
X179102912Y-165206636D02*
X178917907Y-165186155D01*
X178917907Y-165186155D02*
X178731904Y-165164075D01*
X178731904Y-165164075D02*
X178550688Y-165141128D01*
X178550688Y-165141128D02*
X178370797Y-165116941D01*
X178370797Y-165116941D02*
X178191080Y-165091374D01*
X178191080Y-165091374D02*
X178013850Y-165064784D01*
X178013850Y-165064784D02*
X177839102Y-165037217D01*
X177839102Y-165037217D02*
X177664541Y-165008344D01*
X177664541Y-165008344D02*
X177490181Y-164978163D01*
X177490181Y-164978163D02*
X177316021Y-164946675D01*
X177316021Y-164946675D02*
X177144358Y-164914319D01*
X177144358Y-164914319D02*
X176968339Y-164879779D01*
X176968339Y-164879779D02*
X176881559Y-164862241D01*
X195068535Y-165340391D02*
X181616696Y-165340391D01*
X206911079Y-153497881D02*
X206909203Y-153710609D01*
X206909203Y-153710609D02*
X206904181Y-153905804D01*
X206904181Y-153905804D02*
X206895787Y-154104939D01*
X206895787Y-154104939D02*
X206884440Y-154298496D01*
X206884440Y-154298496D02*
X206870398Y-154486521D01*
X206870398Y-154486521D02*
X206853438Y-154673720D01*
X206853438Y-154673720D02*
X206834118Y-154855420D01*
X206834118Y-154855420D02*
X206809651Y-155054792D01*
X206809651Y-155054792D02*
X206783940Y-155239329D01*
X206783940Y-155239329D02*
X206756900Y-155413785D01*
X206756900Y-155413785D02*
X206727330Y-155587393D01*
X206727330Y-155587393D02*
X206695251Y-155760134D01*
X206695251Y-155760134D02*
X206661623Y-155927476D01*
X206661623Y-155927476D02*
X206625652Y-156093957D01*
X206625652Y-156093957D02*
X206587358Y-156259562D01*
X206587358Y-156259562D02*
X206545629Y-156428709D01*
X206545629Y-156428709D02*
X206503868Y-156588063D01*
X206503868Y-156588063D02*
X206457455Y-156755316D01*
X206457455Y-156755316D02*
X206411294Y-156912841D01*
X206411294Y-156912841D02*
X206363018Y-157069451D01*
X206363018Y-157069451D02*
X206314069Y-157220814D01*
X206314069Y-157220814D02*
X206263152Y-157371282D01*
X206263152Y-157371282D02*
X206210282Y-157520840D01*
X206210282Y-157520840D02*
X206153879Y-157673703D01*
X206153879Y-157673703D02*
X206097092Y-157821363D01*
X206097092Y-157821363D02*
X206038398Y-157968066D01*
X206038398Y-157968066D02*
X205977813Y-158113796D01*
X205977813Y-158113796D02*
X205917158Y-158254413D01*
X205917158Y-158254413D02*
X205854748Y-158394085D01*
X205854748Y-158394085D02*
X205790594Y-158532798D01*
X205790594Y-158532798D02*
X205720780Y-158678606D01*
X205720780Y-158678606D02*
X205653081Y-158815296D01*
X205653081Y-158815296D02*
X205579547Y-158958933D01*
X205579547Y-158958933D02*
X205504120Y-159101431D01*
X205504120Y-159101431D02*
X205431164Y-159234949D01*
X205431164Y-159234949D02*
X205352112Y-159375177D01*
X205352112Y-159375177D02*
X205275758Y-159506524D01*
X205275758Y-159506524D02*
X205197779Y-159636798D01*
X205197779Y-159636798D02*
X205120546Y-159762195D01*
X205120546Y-159762195D02*
X205039395Y-159890306D01*
X205039395Y-159890306D02*
X204954201Y-160021020D01*
X204954201Y-160021020D02*
X204872348Y-160143166D01*
X204872348Y-160143166D02*
X204789025Y-160264233D01*
X204789025Y-160264233D02*
X204699060Y-160391445D01*
X204699060Y-160391445D02*
X204612754Y-160510250D01*
X204612754Y-160510250D02*
X204525015Y-160627938D01*
X204525015Y-160627938D02*
X204435859Y-160744496D01*
X204435859Y-160744496D02*
X204334226Y-160873822D01*
X204334226Y-160873822D02*
X204242106Y-160987941D01*
X204242106Y-160987941D02*
X204145755Y-161104293D01*
X204145755Y-161104293D02*
X204039257Y-161229485D01*
X204039257Y-161229485D02*
X203945781Y-161336548D01*
X203945781Y-161336548D02*
X203851049Y-161442471D01*
X203851049Y-161442471D02*
X203755068Y-161547244D01*
X203755068Y-161547244D02*
X203657854Y-161650860D01*
X203657854Y-161650860D02*
X203559417Y-161753301D01*
X203559417Y-161753301D02*
X203444093Y-161870275D01*
X203444093Y-161870275D02*
X203343057Y-161970148D01*
X203343057Y-161970148D02*
X203240837Y-162068813D01*
X203240837Y-162068813D02*
X203137441Y-162166256D01*
X203137441Y-162166256D02*
X203023021Y-162271424D01*
X203023021Y-162271424D02*
X202917204Y-162366273D01*
X202917204Y-162366273D02*
X202810248Y-162459868D01*
X202810248Y-162459868D02*
X202702166Y-162552193D01*
X202702166Y-162552193D02*
X202589538Y-162646065D01*
X202589538Y-162646065D02*
X202479202Y-162735778D01*
X202479202Y-162735778D02*
X202364275Y-162826929D01*
X202364275Y-162826929D02*
X202241129Y-162922077D01*
X202241129Y-162922077D02*
X202120278Y-163012986D01*
X202120278Y-163012986D02*
X201998237Y-163102378D01*
X201998237Y-163102378D02*
X201875019Y-163190245D01*
X201875019Y-163190245D02*
X201750641Y-163276572D01*
X201750641Y-163276572D02*
X201625111Y-163361343D01*
X201625111Y-163361343D02*
X201502187Y-163442118D01*
X201502187Y-163442118D02*
X201378208Y-163521404D01*
X201378208Y-163521404D02*
X201241770Y-163606181D01*
X201241770Y-163606181D02*
X201111783Y-163684591D01*
X201111783Y-163684591D02*
X200980721Y-163761376D01*
X200980721Y-163761376D02*
X200852493Y-163834336D01*
X200852493Y-163834336D02*
X200723275Y-163905740D01*
X200723275Y-163905740D02*
X200593077Y-163975573D01*
X200593077Y-163975573D02*
X200453937Y-164047910D01*
X200453937Y-164047910D02*
X200317746Y-164116461D01*
X200317746Y-164116461D02*
X200180559Y-164183304D01*
X200180559Y-164183304D02*
X200042389Y-164248425D01*
X200042389Y-164248425D02*
X199903250Y-164311813D01*
X199903250Y-164311813D02*
X199763159Y-164373450D01*
X199763159Y-164373450D02*
X199622125Y-164433322D01*
X199622125Y-164433322D02*
X199467596Y-164496457D01*
X199467596Y-164496457D02*
X199320426Y-164554226D01*
X199320426Y-164554226D02*
X199168061Y-164611650D01*
X199168061Y-164611650D02*
X199014705Y-164667029D01*
X199014705Y-164667029D02*
X198856077Y-164721801D01*
X198856077Y-164721801D02*
X198696439Y-164774382D01*
X198696439Y-164774382D02*
X198540165Y-164823418D01*
X198540165Y-164823418D02*
X198374208Y-164872888D01*
X198374208Y-164872888D02*
X198216055Y-164917571D01*
X198216055Y-164917571D02*
X198057017Y-164960111D01*
X198057017Y-164960111D02*
X197897106Y-165000488D01*
X197897106Y-165000488D02*
X197718425Y-165042800D01*
X197718425Y-165042800D02*
X197547722Y-165080487D01*
X197547722Y-165080487D02*
X197371577Y-165116600D01*
X197371577Y-165116600D02*
X197199045Y-165149271D01*
X197199045Y-165149271D02*
X197025640Y-165179437D01*
X197025640Y-165179437D02*
X196837589Y-165209154D01*
X196837589Y-165209154D02*
X196662431Y-165234049D01*
X196662431Y-165234049D02*
X196481818Y-165256933D01*
X196481818Y-165256933D02*
X196295708Y-165277579D01*
X196295708Y-165277579D02*
X196108740Y-165295334D01*
X196108740Y-165295334D02*
X195911528Y-165310847D01*
X195911528Y-165310847D02*
X195722878Y-165322617D01*
X195722878Y-165322617D02*
X195528696Y-165331613D01*
X195528696Y-165331613D02*
X195333711Y-165337477D01*
X195333711Y-165337477D02*
X195133162Y-165340216D01*
X195133162Y-165340216D02*
X195068535Y-165340391D01*
M02*
