<?xml version="1.0" encoding="UTF-8" standalone="no"?>
<!DOCTYPE svg PUBLIC "-//W3C//DTD SVG 1.1//EN" "http://www.w3.org/Graphics/SVG/1.1/DTD/svg11.dtd">
<svg width="100%" height="100%" viewBox="0 0 1123 794" version="1.1" xmlns="http://www.w3.org/2000/svg" xmlns:xlink="http://www.w3.org/1999/xlink" xml:space="preserve" xmlns:serif="http://www.serif.com/" style="fill-rule:evenodd;clip-rule:evenodd;stroke-linejoin:round;stroke-miterlimit:1.5;">
    <g transform="matrix(0.32,0,0,0.32,0,0)">
        <g id="Top">
            <path d="M939.106,661.024C939.211,661.517 939.116,662.032 938.84,662.453C938.565,662.875 938.133,663.17 937.639,663.272C917.89,667.341 747.581,702.436 725.882,706.907C725.325,707.022 724.747,706.88 724.306,706.521C723.866,706.162 723.61,705.624 723.61,705.056C723.61,668.834 723.61,219.531 723.61,155.559C723.61,153.554 724.407,151.632 725.824,150.214C727.242,148.796 729.165,148 731.17,148C823.613,148 1734.47,148 1826.91,148C1831.08,148 1834.47,151.384 1834.47,155.559C1834.47,265.136 1834.47,1530.86 1834.47,1640.44C1834.47,1644.62 1831.08,1648 1826.91,1648C1734.47,1648 823.613,1648 731.17,1648C729.165,1648 727.242,1647.2 725.824,1645.79C724.407,1644.37 723.61,1642.45 723.61,1640.44C723.61,1564.46 723.61,940.416 723.61,901.617C723.61,900.573 724.457,899.727 725.5,899.727C731.674,899.727 751.175,899.727 756.794,899.727C757.686,899.727 758.456,900.351 758.642,901.223C766.024,935.812 899.075,1559.24 907.266,1597.62C907.37,1598.11 907.665,1598.54 908.086,1598.81C908.507,1599.09 909.019,1599.18 909.509,1599.08C953.052,1589.77 1751.67,1419.08 1795.18,1409.78C1796.2,1409.56 1796.85,1408.56 1796.63,1407.54C1786.22,1358.55 1572.09,350.675 1561.67,301.641C1561.57,301.15 1561.28,300.721 1560.86,300.448C1560.43,300.175 1559.92,300.081 1559.43,300.185C1522.09,308.146 931.433,434.073 894.083,442.036C893.592,442.141 893.163,442.436 892.891,442.857C892.618,443.278 892.524,443.79 892.629,444.28C896.927,464.326 934.793,640.913 939.106,661.024ZM770.876,1612.94C764.34,1612.94 759.044,1607.65 759.044,1601.12C759.044,1594.61 764.34,1589.31 770.876,1589.31C777.369,1589.31 782.666,1594.61 782.666,1601.12C782.666,1607.65 777.369,1612.94 770.876,1612.94ZM1787.25,1612.57C1780.71,1612.57 1775.41,1607.28 1775.41,1600.75C1775.41,1594.24 1780.71,1588.94 1787.25,1588.94C1793.74,1588.94 1799.04,1594.24 1799.04,1600.75C1799.04,1607.28 1793.74,1612.57 1787.25,1612.57ZM870.609,1561.98C864.074,1561.98 858.777,1556.7 858.777,1550.17C858.777,1543.65 864.074,1538.36 870.609,1538.36C877.102,1538.36 882.399,1543.65 882.399,1550.17C882.399,1556.7 877.102,1561.98 870.609,1561.98ZM1759.61,1454.6C1753.07,1454.6 1747.78,1449.31 1747.78,1442.78C1747.78,1436.26 1753.07,1430.97 1759.61,1430.97C1766.1,1430.97 1771.4,1436.26 1771.4,1442.78C1771.4,1449.31 1766.1,1454.6 1759.61,1454.6ZM770.876,1131.37C764.34,1131.37 759.044,1126.08 759.044,1119.55C759.044,1113.04 764.34,1107.74 770.876,1107.74C777.369,1107.74 782.666,1113.04 782.666,1119.55C782.666,1126.08 777.369,1131.37 770.876,1131.37ZM828.869,529.488C853.314,529.488 873.16,549.334 873.16,573.779C873.16,598.224 853.314,618.07 828.869,618.07C804.424,618.07 784.578,598.224 784.578,573.779C784.578,549.334 804.424,529.488 828.869,529.488ZM1787.25,549.575C1780.71,549.575 1775.41,544.292 1775.41,537.762C1775.41,531.244 1780.71,525.953 1787.25,525.953C1793.74,525.953 1799.04,531.244 1799.04,537.762C1799.04,544.292 1793.74,549.575 1787.25,549.575ZM923.966,416.643C917.431,416.643 912.134,411.36 912.134,404.83C912.134,398.312 917.431,393.021 923.966,393.021C930.459,393.021 935.756,398.312 935.756,404.83C935.756,411.36 930.459,416.643 923.966,416.643ZM1611.66,324.269C1605.12,324.269 1599.83,318.986 1599.83,312.456C1599.83,305.938 1605.12,300.647 1611.66,300.647C1618.15,300.647 1623.45,305.938 1623.45,312.456C1623.45,318.986 1618.15,324.269 1611.66,324.269ZM770.876,207.055C764.34,207.055 759.044,201.772 759.044,195.242C759.044,188.724 764.34,183.433 770.876,183.433C777.369,183.433 782.666,188.724 782.666,195.242C782.666,201.772 777.369,207.055 770.876,207.055ZM1787.25,207.055C1780.71,207.055 1775.41,201.772 1775.41,195.242C1775.41,188.724 1780.71,183.433 1787.25,183.433C1793.74,183.433 1799.04,188.724 1799.04,195.242C1799.04,201.772 1793.74,207.055 1787.25,207.055Z" style="fill:rgb(255,93,218);fill-opacity:0.34;stroke:rgb(255,39,56);stroke-width:0.94px;"/>
        </g>
    </g>
</svg>
