  0
SECTION
  2
HEADER
  9
$ACADVER
  1
AC1014
  9
$HANDSEED
  5
FFFF
  9
$MEASUREMENT
 70
     1
  0
ENDSEC
  0
SECTION
  2
TABLES
  0
TABLE
  2
VPORT
  5
8
330
0
100
AcDbSymbolTable
 70
     4
  0
VPORT
  5
2E
330
8
100
AcDbSymbolTableRecord
100
AcDbViewportTableRecord
  2
*ACTIVE
 70
     0
 10
0.0
 20
0.0
 11
1.0
 21
1.0
 12
210.0
 22
148.5
 13
0.0
 23
0.0
 14
10.0
 24
10.0
 15
10.0
 25
10.0
 16
0.0
 26
0.0
 36
1.0
 17
0.0
 27
0.0
 37
0.0
 40
341.0
 41
1.24
 42
50.0
 43
0.0
 44
0.0
 50
0.0
 51
0.0
 71
     0
 72
   100
 73
     1
 74
     3
 75
     0
 76
     0
 77
     0
 78
     0
  0
ENDTAB
  0
TABLE
  2
LTYPE
  5
5
330
0
100
AcDbSymbolTable
 70
     1
  0
LTYPE
  5
14
330
5
100
AcDbSymbolTableRecord
100
AcDbLinetypeTableRecord
  2
BYBLOCK
 70
     0
  3

 72
    65
 73
     0
 40
0.0
  0
LTYPE
  5
15
330
5
100
AcDbSymbolTableRecord
100
AcDbLinetypeTableRecord
  2
BYLAYER
 70
     0
  3

 72
    65
 73
     0
 40
0.0
  0
LTYPE
  5
16
330
5
100
AcDbSymbolTableRecord
100
AcDbLinetypeTableRecord
  2
CONTINUOUS
 70
     0
  3
Solid line
 72
    65
 73
     0
 40
0.0
  0
ENDTAB
  0
TABLE
  2
LAYER
  5
2
100
AcDbSymbolTable
 70
1
  0
LAYER
  5
50
100
AcDbSymbolTableRecord
100
AcDbLayerTableRecord
  2
0
 70
0
  6
CONTINUOUS
  0
ENDTAB
  0
TABLE
  2
STYLE
  5
3
330
0
100
AcDbSymbolTable
 70
     1
  0
STYLE
  5
11
330
3
100
AcDbSymbolTableRecord
100
AcDbTextStyleTableRecord
  2
STANDARD
 70
     0
 40
0.0
 41
1.0
 50
0.0
 71
     0
 42
2.5
  3
txt
  4

  0
ENDTAB
  0
TABLE
  2
VIEW
  5
6
330
0
100
AcDbSymbolTable
 70
     0
  0
ENDTAB
  0
TABLE
  2
UCS
  5
7
330
0
100
AcDbSymbolTable
 70
     0
  0
ENDTAB
  0
TABLE
  2
APPID
  5
9
330
0
100
AcDbSymbolTable
 70
     2
  0
APPID
  5
12
330
9
100
AcDbSymbolTableRecord
100
AcDbRegAppTableRecord
  2
ACAD
 70
     0
  0
ENDTAB
  0
TABLE
  2
DIMSTYLE
  5
A
330
0
100
AcDbSymbolTable
 70
     1
  0
DIMSTYLE
105
27
330
A
100
AcDbSymbolTableRecord
100
AcDbDimStyleTableRecord
  2
ISO-25
 70
     0
  3

  4

  5

  6

  7

 40
1.0
 41
2.5
 42
0.625
 43
3.75
 44
1.25
 45
0.0
 46
0.0
 47
0.0
 48
0.0
140
2.5
141
2.5
142
0.0
143
0.03937007874016
144
1.0
145
0.0
146
1.0
147
0.625
 71
     0
 72
     0
 73
     0
 74
     0
 75
     0
 76
     0
 77
     1
 78
     8
170
     0
171
     3
172
     1
173
     0
174
     0
175
     0
176
     0
177
     0
178
     0
270
     2
271
     2
272
     2
273
     2
274
     3
340
11
275
     0
280
     0
281
     0
282
     0
283
     0
284
     8
285
     0
286
     0
287
     3
288
     0
  0
ENDTAB
  0
TABLE
  2
BLOCK_RECORD
  5
1
330
0
100
AcDbSymbolTable
 70
     1
  0
BLOCK_RECORD
  5
1F
330
1
100
AcDbSymbolTableRecord
100
AcDbBlockTableRecord
  2
*MODEL_SPACE
  0
BLOCK_RECORD
  5
1B
330
1
100
AcDbSymbolTableRecord
100
AcDbBlockTableRecord
  2
*PAPER_SPACE
  0
ENDTAB
  0
ENDSEC
  0
SECTION
  2
BLOCKS
  0
BLOCK
  5
20
330
1F
100
AcDbEntity
  8
0
100
AcDbBlockBegin
  2
*MODEL_SPACE
 70
     0
 10
0.0
 20
0.0
 30
0.0
  3
*MODEL_SPACE
  1

  0
ENDBLK
  5
21
330
1F
100
AcDbEntity
  8
0
100
AcDbBlockEnd
  0
BLOCK
  5
1C
330
1B
100
AcDbEntity
 67
     1
  8
0
100
AcDbBlockBegin
  2
*PAPER_SPACE
  1

  0
ENDBLK
  5
1D
330
1B
100
AcDbEntity
 67
     1
  8
0
100
AcDbBlockEnd
  0
ENDSEC
  0
SECTION
  2
ENTITIES
  0
SPLINE
  5
100
100
AcDbEntity
  8
0
 62
1
100
AcDbSpline
 70
8
 71
3
 72
8
 73
4
 74
0
 40
0
 40
0
 40
0
 40
0
 40
1
 40
1
 40
1
 40
1
 10
79.510975
 20
154.112468
 30
0.0
 10
79.519865
 20
154.070727
 30
0.0
 10
79.511821
 20
154.027124
 30
0.0
 10
79.488453
 20
153.991479
 30
0.0
  0
SPLINE
  5
101
100
AcDbEntity
  8
0
 62
1
100
AcDbSpline
 70
8
 71
3
 72
8
 73
4
 74
0
 40
0
 40
0
 40
0
 40
0
 40
1
 40
1
 40
1
 40
1
 10
79.488453
 20
153.991479
 30
0.0
 10
79.465170
 20
153.955750
 30
0.0
 10
79.428594
 20
153.930773
 30
0.0
 10
79.386769
 20
153.922137
 30
0.0
  0
SPLINE
  5
102
100
AcDbEntity
  8
0
 62
1
100
AcDbSpline
 70
8
 71
3
 72
8
 73
4
 74
0
 40
0
 40
0
 40
0
 40
0
 40
1
 40
1
 40
1
 40
1
 10
79.386769
 20
153.922137
 30
0.0
 10
77.714687
 20
153.577629
 30
0.0
 10
63.295191
 20
150.606252
 30
0.0
 10
61.458009
 20
150.227707
 30
0.0
  0
SPLINE
  5
103
100
AcDbEntity
  8
0
 62
1
100
AcDbSpline
 70
8
 71
3
 72
8
 73
4
 74
0
 40
0
 40
0
 40
0
 40
0
 40
1
 40
1
 40
1
 40
1
 10
61.458009
 20
150.227707
 30
0.0
 10
61.410850
 20
150.217971
 30
0.0
 10
61.361913
 20
150.229993
 30
0.0
 10
61.324575
 20
150.260389
 30
0.0
  0
SPLINE
  5
104
100
AcDbEntity
  8
0
 62
1
100
AcDbSpline
 70
8
 71
3
 72
8
 73
4
 74
0
 40
0
 40
0
 40
0
 40
0
 40
1
 40
1
 40
1
 40
1
 10
61.324575
 20
150.260389
 30
0.0
 10
61.287321
 20
150.290784
 30
0.0
 10
61.265647
 20
150.336335
 30
0.0
 10
61.265647
 20
150.384425
 30
0.0
  0
SPLINE
  5
105
100
AcDbEntity
  8
0
 62
1
100
AcDbSpline
 70
8
 71
3
 72
8
 73
4
 74
0
 40
0
 40
0
 40
0
 40
0
 40
1
 40
1
 40
1
 40
1
 10
61.265647
 20
150.384425
 30
0.0
 10
61.265647
 20
153.451221
 30
0.0
 10
61.265647
 20
191.492209
 30
0.0
 10
61.265647
 20
196.908505
 30
0.0
  0
SPLINE
  5
106
100
AcDbEntity
  8
0
 62
1
100
AcDbSpline
 70
8
 71
3
 72
8
 73
4
 74
0
 40
0
 40
0
 40
0
 40
0
 40
1
 40
1
 40
1
 40
1
 10
61.265647
 20
196.908505
 30
0.0
 10
61.265647
 20
197.078261
 30
0.0
 10
61.333126
 20
197.240991
 30
0.0
 10
61.453099
 20
197.361048
 30
0.0
  0
SPLINE
  5
107
100
AcDbEntity
  8
0
 62
1
100
AcDbSpline
 70
8
 71
3
 72
8
 73
4
 74
0
 40
0
 40
0
 40
0
 40
0
 40
1
 40
1
 40
1
 40
1
 10
61.453099
 20
197.361048
 30
0.0
 10
61.573156
 20
197.481105
 30
0.0
 10
61.735970
 20
197.548500
 30
0.0
 10
61.905727
 20
197.548500
 30
0.0
  0
SPLINE
  5
108
100
AcDbEntity
  8
0
 62
1
100
AcDbSpline
 70
8
 71
3
 72
8
 73
4
 74
0
 40
0
 40
0
 40
0
 40
0
 40
1
 40
1
 40
1
 40
1
 10
61.905727
 20
197.548500
 30
0.0
 10
69.732567
 20
197.548500
 30
0.0
 10
146.851793
 20
197.548500
 30
0.0
 10
154.678380
 20
197.548500
 30
0.0
  0
SPLINE
  5
109
100
AcDbEntity
  8
0
 62
1
100
AcDbSpline
 70
8
 71
3
 72
8
 73
4
 74
0
 40
0
 40
0
 40
0
 40
0
 40
1
 40
1
 40
1
 40
1
 10
154.678380
 20
197.548500
 30
0.0
 10
155.031440
 20
197.548500
 30
0.0
 10
155.318460
 20
197.261988
 30
0.0
 10
155.318460
 20
196.908505
 30
0.0
  0
SPLINE
  5
10a
100
AcDbEntity
  8
0
 62
1
100
AcDbSpline
 70
8
 71
3
 72
8
 73
4
 74
0
 40
0
 40
0
 40
0
 40
0
 40
1
 40
1
 40
1
 40
1
 10
155.318460
 20
196.908505
 30
0.0
 10
155.318460
 20
187.630985
 30
0.0
 10
155.318460
 20
80.466353
 30
0.0
 10
155.318460
 20
71.188580
 30
0.0
  0
SPLINE
  5
10b
100
AcDbEntity
  8
0
 62
1
100
AcDbSpline
 70
8
 71
3
 72
8
 73
4
 74
0
 40
0
 40
0
 40
0
 40
0
 40
1
 40
1
 40
1
 40
1
 10
155.318460
 20
71.188580
 30
0.0
 10
155.318460
 20
70.834673
 30
0.0
 10
155.031440
 20
70.548500
 30
0.0
 10
154.678380
 20
70.548500
 30
0.0
  0
SPLINE
  5
10c
100
AcDbEntity
  8
0
 62
1
100
AcDbSpline
 70
8
 71
3
 72
8
 73
4
 74
0
 40
0
 40
0
 40
0
 40
0
 40
1
 40
1
 40
1
 40
1
 10
154.678380
 20
70.548500
 30
0.0
 10
146.851793
 20
70.548500
 30
0.0
 10
69.732567
 20
70.548500
 30
0.0
 10
61.905727
 20
70.548500
 30
0.0
  0
SPLINE
  5
10d
100
AcDbEntity
  8
0
 62
1
100
AcDbSpline
 70
8
 71
3
 72
8
 73
4
 74
0
 40
0
 40
0
 40
0
 40
0
 40
1
 40
1
 40
1
 40
1
 10
61.905727
 20
70.548500
 30
0.0
 10
61.735970
 20
70.548500
 30
0.0
 10
61.573156
 20
70.616233
 30
0.0
 10
61.453099
 20
70.735613
 30
0.0
  0
SPLINE
  5
10e
100
AcDbEntity
  8
0
 62
1
100
AcDbSpline
 70
8
 71
3
 72
8
 73
4
 74
0
 40
0
 40
0
 40
0
 40
0
 40
1
 40
1
 40
1
 40
1
 10
61.453099
 20
70.735613
 30
0.0
 10
61.333126
 20
70.855840
 30
0.0
 10
61.265647
 20
71.018400
 30
0.0
 10
61.265647
 20
71.188580
 30
0.0
  0
SPLINE
  5
10f
100
AcDbEntity
  8
0
 62
1
100
AcDbSpline
 70
8
 71
3
 72
8
 73
4
 74
0
 40
0
 40
0
 40
0
 40
0
 40
1
 40
1
 40
1
 40
1
 10
61.265647
 20
71.188580
 30
0.0
 10
61.265647
 20
77.621553
 30
0.0
 10
61.265647
 20
130.457279
 30
0.0
 10
61.265647
 20
133.742261
 30
0.0
  0
SPLINE
  5
110
100
AcDbEntity
  8
0
 62
1
100
AcDbSpline
 70
8
 71
3
 72
8
 73
4
 74
0
 40
0
 40
0
 40
0
 40
0
 40
1
 40
1
 40
1
 40
1
 10
61.265647
 20
133.742261
 30
0.0
 10
61.265647
 20
133.830653
 30
0.0
 10
61.337359
 20
133.902281
 30
0.0
 10
61.425667
 20
133.902281
 30
0.0
  0
SPLINE
  5
111
100
AcDbEntity
  8
0
 62
1
100
AcDbSpline
 70
8
 71
3
 72
8
 73
4
 74
0
 40
0
 40
0
 40
0
 40
0
 40
1
 40
1
 40
1
 40
1
 10
61.425667
 20
133.902281
 30
0.0
 10
61.948399
 20
133.902281
 30
0.0
 10
63.599483
 20
133.902281
 30
0.0
 10
64.075225
 20
133.902281
 30
0.0
  0
SPLINE
  5
112
100
AcDbEntity
  8
0
 62
1
100
AcDbSpline
 70
8
 71
3
 72
8
 73
4
 74
0
 40
0
 40
0
 40
0
 40
0
 40
1
 40
1
 40
1
 40
1
 10
64.075225
 20
133.902281
 30
0.0
 10
64.150748
 20
133.902281
 30
0.0
 10
64.215941
 20
133.849449
 30
0.0
 10
64.231689
 20
133.775619
 30
0.0
  0
SPLINE
  5
113
100
AcDbEntity
  8
0
 62
1
100
AcDbSpline
 70
8
 71
3
 72
8
 73
4
 74
0
 40
0
 40
0
 40
0
 40
0
 40
1
 40
1
 40
1
 40
1
 10
64.231689
 20
133.775619
 30
0.0
 10
64.856699
 20
130.847084
 30
0.0
 10
76.121683
 20
78.063513
 30
0.0
 10
76.815188
 20
74.814007
 30
0.0
  0
SPLINE
  5
114
100
AcDbEntity
  8
0
 62
1
100
AcDbSpline
 70
8
 71
3
 72
8
 73
4
 74
0
 40
0
 40
0
 40
0
 40
0
 40
1
 40
1
 40
1
 40
1
 10
76.815188
 20
74.814007
 30
0.0
 10
76.823993
 20
74.772520
 30
0.0
 10
76.848970
 20
74.736113
 30
0.0
 10
76.884615
 20
74.713253
 30
0.0
  0
SPLINE
  5
115
100
AcDbEntity
  8
0
 62
1
100
AcDbSpline
 70
8
 71
3
 72
8
 73
4
 74
0
 40
0
 40
0
 40
0
 40
0
 40
1
 40
1
 40
1
 40
1
 10
76.884615
 20
74.713253
 30
0.0
 10
76.920259
 20
74.689547
 30
0.0
 10
76.963609
 20
74.681927
 30
0.0
 10
77.005095
 20
74.690393
 30
0.0
  0
SPLINE
  5
116
100
AcDbEntity
  8
0
 62
1
100
AcDbSpline
 70
8
 71
3
 72
8
 73
4
 74
0
 40
0
 40
0
 40
0
 40
0
 40
1
 40
1
 40
1
 40
1
 10
77.005095
 20
74.690393
 30
0.0
 10
80.691736
 20
75.478640
 30
0.0
 10
148.308060
 20
89.930393
 30
0.0
 10
151.991907
 20
90.717793
 30
0.0
  0
SPLINE
  5
117
100
AcDbEntity
  8
0
 62
1
100
AcDbSpline
 70
8
 71
3
 72
8
 73
4
 74
0
 40
0
 40
0
 40
0
 40
0
 40
1
 40
1
 40
1
 40
1
 10
151.991907
 20
90.717793
 30
0.0
 10
152.078267
 20
90.736420
 30
0.0
 10
152.133300
 20
90.821087
 30
0.0
 10
152.114673
 20
90.907447
 30
0.0
  0
SPLINE
  5
118
100
AcDbEntity
  8
0
 62
1
100
AcDbSpline
 70
8
 71
3
 72
8
 73
4
 74
0
 40
0
 40
0
 40
0
 40
0
 40
1
 40
1
 40
1
 40
1
 10
152.114673
 20
90.907447
 30
0.0
 10
151.233293
 20
95.055267
 30
0.0
 10
133.103620
 20
180.388683
 30
0.0
 10
132.221393
 20
184.540229
 30
0.0
  0
SPLINE
  5
119
100
AcDbEntity
  8
0
 62
1
100
AcDbSpline
 70
8
 71
3
 72
8
 73
4
 74
0
 40
0
 40
0
 40
0
 40
0
 40
1
 40
1
 40
1
 40
1
 10
132.221393
 20
184.540229
 30
0.0
 10
132.212927
 20
184.581800
 30
0.0
 10
132.188373
 20
184.618122
 30
0.0
 10
132.152813
 20
184.641236
 30
0.0
  0
SPLINE
  5
11a
100
AcDbEntity
  8
0
 62
1
100
AcDbSpline
 70
8
 71
3
 72
8
 73
4
 74
0
 40
0
 40
0
 40
0
 40
0
 40
1
 40
1
 40
1
 40
1
 10
132.152813
 20
184.641236
 30
0.0
 10
132.116407
 20
184.664350
 30
0.0
 10
132.073227
 20
184.672309
 30
0.0
 10
132.031740
 20
184.663503
 30
0.0
  0
SPLINE
  5
11b
100
AcDbEntity
  8
0
 62
1
100
AcDbSpline
 70
8
 71
3
 72
8
 73
4
 74
0
 40
0
 40
0
 40
0
 40
0
 40
1
 40
1
 40
1
 40
1
 10
132.031740
 20
184.663503
 30
0.0
 10
128.870287
 20
183.989472
 30
0.0
 10
78.861327
 20
173.327653
 30
0.0
 10
75.699027
 20
172.653452
 30
0.0
  0
SPLINE
  5
11c
100
AcDbEntity
  8
0
 62
1
100
AcDbSpline
 70
8
 71
3
 72
8
 73
4
 74
0
 40
0
 40
0
 40
0
 40
0
 40
1
 40
1
 40
1
 40
1
 10
75.699027
 20
172.653452
 30
0.0
 10
75.657456
 20
172.644562
 30
0.0
 10
75.621134
 20
172.619585
 30
0.0
 10
75.598105
 20
172.583941
 30
0.0
  0
SPLINE
  5
11d
100
AcDbEntity
  8
0
 62
1
100
AcDbSpline
 70
8
 71
3
 72
8
 73
4
 74
0
 40
0
 40
0
 40
0
 40
0
 40
1
 40
1
 40
1
 40
1
 10
75.598105
 20
172.583941
 30
0.0
 10
75.574991
 20
172.548296
 30
0.0
 10
75.567032
 20
172.504947
 30
0.0
 10
75.575922
 20
172.463460
 30
0.0
  0
SPLINE
  5
11e
100
AcDbEntity
  8
0
 62
1
100
AcDbSpline
 70
8
 71
3
 72
8
 73
4
 74
0
 40
0
 40
0
 40
0
 40
0
 40
1
 40
1
 40
1
 40
1
 10
75.575922
 20
172.463460
 30
0.0
 10
75.939819
 20
170.766232
 30
0.0
 10
79.145807
 20
155.815199
 30
0.0
 10
79.510975
 20
154.112468
 30
0.0
  0
SPLINE
  5
11f
100
AcDbEntity
  8
0
 62
1
100
AcDbSpline
 70
8
 71
3
 72
8
 73
4
 74
0
 40
0
 40
0
 40
0
 40
0
 40
1
 40
1
 40
1
 40
1
 10
65.267501
 20
73.516913
 30
0.0
 10
64.714120
 20
73.516913
 30
0.0
 10
64.265725
 20
73.964800
 30
0.0
 10
64.265725
 20
74.517673
 30
0.0
  0
SPLINE
  5
120
100
AcDbEntity
  8
0
 62
1
100
AcDbSpline
 70
8
 71
3
 72
8
 73
4
 74
0
 40
0
 40
0
 40
0
 40
0
 40
1
 40
1
 40
1
 40
1
 10
64.265725
 20
74.517673
 30
0.0
 10
64.265725
 20
75.068853
 30
0.0
 10
64.714120
 20
75.517587
 30
0.0
 10
65.267501
 20
75.517587
 30
0.0
  0
SPLINE
  5
121
100
AcDbEntity
  8
0
 62
1
100
AcDbSpline
 70
8
 71
3
 72
8
 73
4
 74
0
 40
0
 40
0
 40
0
 40
0
 40
1
 40
1
 40
1
 40
1
 10
65.267501
 20
75.517587
 30
0.0
 10
65.817242
 20
75.517587
 30
0.0
 10
66.265721
 20
75.068853
 30
0.0
 10
66.265721
 20
74.517673
 30
0.0
  0
SPLINE
  5
122
100
AcDbEntity
  8
0
 62
1
100
AcDbSpline
 70
8
 71
3
 72
8
 73
4
 74
0
 40
0
 40
0
 40
0
 40
0
 40
1
 40
1
 40
1
 40
1
 10
66.265721
 20
74.517673
 30
0.0
 10
66.265721
 20
73.964800
 30
0.0
 10
65.817242
 20
73.516913
 30
0.0
 10
65.267501
 20
73.516913
 30
0.0
  0
LWPOLYLINE
  5
123
100
AcDbEntity
  8
0
 62
1
100
AcDbPolyline
 90
1
 70
1
 10
79.510975
 20
154.112468
 30
0.0
  0
SPLINE
  5
124
100
AcDbEntity
  8
0
 62
1
100
AcDbSpline
 70
8
 71
3
 72
8
 73
4
 74
0
 40
0
 40
0
 40
0
 40
0
 40
1
 40
1
 40
1
 40
1
 10
151.320500
 20
73.548240
 30
0.0
 10
150.766780
 20
73.548240
 30
0.0
 10
150.318047
 20
73.996127
 30
0.0
 10
150.318047
 20
74.549000
 30
0.0
  0
SPLINE
  5
125
100
AcDbEntity
  8
0
 62
1
100
AcDbSpline
 70
8
 71
3
 72
8
 73
4
 74
0
 40
0
 40
0
 40
0
 40
0
 40
1
 40
1
 40
1
 40
1
 10
150.318047
 20
74.549000
 30
0.0
 10
150.318047
 20
75.100180
 30
0.0
 10
150.766780
 20
75.548913
 30
0.0
 10
151.320500
 20
75.548913
 30
0.0
  0
SPLINE
  5
126
100
AcDbEntity
  8
0
 62
1
100
AcDbSpline
 70
8
 71
3
 72
8
 73
4
 74
0
 40
0
 40
0
 40
0
 40
0
 40
1
 40
1
 40
1
 40
1
 10
151.320500
 20
75.548913
 30
0.0
 10
151.869987
 20
75.548913
 30
0.0
 10
152.318720
 20
75.100180
 30
0.0
 10
152.318720
 20
74.549000
 30
0.0
  0
SPLINE
  5
127
100
AcDbEntity
  8
0
 62
1
100
AcDbSpline
 70
8
 71
3
 72
8
 73
4
 74
0
 40
0
 40
0
 40
0
 40
0
 40
1
 40
1
 40
1
 40
1
 10
152.318720
 20
74.549000
 30
0.0
 10
152.318720
 20
73.996127
 30
0.0
 10
151.869987
 20
73.548240
 30
0.0
 10
151.320500
 20
73.548240
 30
0.0
  0
LWPOLYLINE
  5
128
100
AcDbEntity
  8
0
 62
1
100
AcDbPolyline
 90
1
 70
1
 10
65.267501
 20
73.516913
 30
0.0
  0
SPLINE
  5
129
100
AcDbEntity
  8
0
 62
1
100
AcDbSpline
 70
8
 71
3
 72
8
 73
4
 74
0
 40
0
 40
0
 40
0
 40
0
 40
1
 40
1
 40
1
 40
1
 10
73.711562
 20
77.831527
 30
0.0
 10
73.158265
 20
77.831527
 30
0.0
 10
72.709786
 20
78.278567
 30
0.0
 10
72.709786
 20
78.831440
 30
0.0
  0
SPLINE
  5
12a
100
AcDbEntity
  8
0
 62
1
100
AcDbSpline
 70
8
 71
3
 72
8
 73
4
 74
0
 40
0
 40
0
 40
0
 40
0
 40
1
 40
1
 40
1
 40
1
 10
72.709786
 20
78.831440
 30
0.0
 10
72.709786
 20
79.383467
 30
0.0
 10
73.158265
 20
79.831353
 30
0.0
 10
73.711562
 20
79.831353
 30
0.0
  0
SPLINE
  5
12b
100
AcDbEntity
  8
0
 62
1
100
AcDbSpline
 70
8
 71
3
 72
8
 73
4
 74
0
 40
0
 40
0
 40
0
 40
0
 40
1
 40
1
 40
1
 40
1
 10
73.711562
 20
79.831353
 30
0.0
 10
74.261303
 20
79.831353
 30
0.0
 10
74.709782
 20
79.383467
 30
0.0
 10
74.709782
 20
78.831440
 30
0.0
  0
SPLINE
  5
12c
100
AcDbEntity
  8
0
 62
1
100
AcDbSpline
 70
8
 71
3
 72
8
 73
4
 74
0
 40
0
 40
0
 40
0
 40
0
 40
1
 40
1
 40
1
 40
1
 10
74.709782
 20
78.831440
 30
0.0
 10
74.709782
 20
78.278567
 30
0.0
 10
74.261303
 20
77.831527
 30
0.0
 10
73.711562
 20
77.831527
 30
0.0
  0
LWPOLYLINE
  5
12d
100
AcDbEntity
  8
0
 62
1
100
AcDbPolyline
 90
1
 70
1
 10
151.320500
 20
73.548240
 30
0.0
  0
SPLINE
  5
12e
100
AcDbEntity
  8
0
 62
1
100
AcDbSpline
 70
8
 71
3
 72
8
 73
4
 74
0
 40
0
 40
0
 40
0
 40
0
 40
1
 40
1
 40
1
 40
1
 10
148.980313
 20
86.923033
 30
0.0
 10
148.426593
 20
86.923033
 30
0.0
 10
147.978707
 20
87.370920
 30
0.0
 10
147.978707
 20
87.923793
 30
0.0
  0
SPLINE
  5
12f
100
AcDbEntity
  8
0
 62
1
100
AcDbSpline
 70
8
 71
3
 72
8
 73
4
 74
0
 40
0
 40
0
 40
0
 40
0
 40
1
 40
1
 40
1
 40
1
 10
147.978707
 20
87.923793
 30
0.0
 10
147.978707
 20
88.475820
 30
0.0
 10
148.426593
 20
88.923707
 30
0.0
 10
148.980313
 20
88.923707
 30
0.0
  0
SPLINE
  5
130
100
AcDbEntity
  8
0
 62
1
100
AcDbSpline
 70
8
 71
3
 72
8
 73
4
 74
0
 40
0
 40
0
 40
0
 40
0
 40
1
 40
1
 40
1
 40
1
 10
148.980313
 20
88.923707
 30
0.0
 10
149.529800
 20
88.923707
 30
0.0
 10
149.978533
 20
88.475820
 30
0.0
 10
149.978533
 20
87.923793
 30
0.0
  0
SPLINE
  5
131
100
AcDbEntity
  8
0
 62
1
100
AcDbSpline
 70
8
 71
3
 72
8
 73
4
 74
0
 40
0
 40
0
 40
0
 40
0
 40
1
 40
1
 40
1
 40
1
 10
149.978533
 20
87.923793
 30
0.0
 10
149.978533
 20
87.370920
 30
0.0
 10
149.529800
 20
86.923033
 30
0.0
 10
148.980313
 20
86.923033
 30
0.0
  0
LWPOLYLINE
  5
132
100
AcDbEntity
  8
0
 62
1
100
AcDbPolyline
 90
1
 70
1
 10
73.711562
 20
77.831527
 30
0.0
  0
SPLINE
  5
133
100
AcDbEntity
  8
0
 62
1
100
AcDbSpline
 70
8
 71
3
 72
8
 73
4
 74
0
 40
0
 40
0
 40
0
 40
0
 40
1
 40
1
 40
1
 40
1
 10
65.267501
 20
114.289840
 30
0.0
 10
64.714120
 20
114.289840
 30
0.0
 10
64.265725
 20
114.737727
 30
0.0
 10
64.265725
 20
115.290600
 30
0.0
  0
SPLINE
  5
134
100
AcDbEntity
  8
0
 62
1
100
AcDbSpline
 70
8
 71
3
 72
8
 73
4
 74
0
 40
0
 40
0
 40
0
 40
0
 40
1
 40
1
 40
1
 40
1
 10
64.265725
 20
115.290600
 30
0.0
 10
64.265725
 20
115.841780
 30
0.0
 10
64.714120
 20
116.290513
 30
0.0
 10
65.267501
 20
116.290513
 30
0.0
  0
SPLINE
  5
135
100
AcDbEntity
  8
0
 62
1
100
AcDbSpline
 70
8
 71
3
 72
8
 73
4
 74
0
 40
0
 40
0
 40
0
 40
0
 40
1
 40
1
 40
1
 40
1
 10
65.267501
 20
116.290513
 30
0.0
 10
65.817242
 20
116.290513
 30
0.0
 10
66.265721
 20
115.841780
 30
0.0
 10
66.265721
 20
115.290600
 30
0.0
  0
SPLINE
  5
136
100
AcDbEntity
  8
0
 62
1
100
AcDbSpline
 70
8
 71
3
 72
8
 73
4
 74
0
 40
0
 40
0
 40
0
 40
0
 40
1
 40
1
 40
1
 40
1
 10
66.265721
 20
115.290600
 30
0.0
 10
66.265721
 20
114.737727
 30
0.0
 10
65.817242
 20
114.289840
 30
0.0
 10
65.267501
 20
114.289840
 30
0.0
  0
LWPOLYLINE
  5
137
100
AcDbEntity
  8
0
 62
1
100
AcDbPolyline
 90
1
 70
1
 10
148.980313
 20
86.923033
 30
0.0
  0
SPLINE
  5
138
100
AcDbEntity
  8
0
 62
1
100
AcDbSpline
 70
8
 71
3
 72
8
 73
4
 74
0
 40
0
 40
0
 40
0
 40
0
 40
1
 40
1
 40
1
 40
1
 10
70.177575
 20
165.249183
 30
0.0
 10
72.247252
 20
165.249183
 30
0.0
 10
73.927547
 20
163.568888
 30
0.0
 10
73.927547
 20
161.499211
 30
0.0
  0
SPLINE
  5
139
100
AcDbEntity
  8
0
 62
1
100
AcDbSpline
 70
8
 71
3
 72
8
 73
4
 74
0
 40
0
 40
0
 40
0
 40
0
 40
1
 40
1
 40
1
 40
1
 10
73.927547
 20
161.499211
 30
0.0
 10
73.927547
 20
159.429535
 30
0.0
 10
72.247252
 20
157.749240
 30
0.0
 10
70.177575
 20
157.749240
 30
0.0
  0
SPLINE
  5
13a
100
AcDbEntity
  8
0
 62
1
100
AcDbSpline
 70
8
 71
3
 72
8
 73
4
 74
0
 40
0
 40
0
 40
0
 40
0
 40
1
 40
1
 40
1
 40
1
 10
70.177575
 20
157.749240
 30
0.0
 10
68.107899
 20
157.749240
 30
0.0
 10
66.427604
 20
159.429535
 30
0.0
 10
66.427604
 20
161.499211
 30
0.0
  0
SPLINE
  5
13b
100
AcDbEntity
  8
0
 62
1
100
AcDbSpline
 70
8
 71
3
 72
8
 73
4
 74
0
 40
0
 40
0
 40
0
 40
0
 40
1
 40
1
 40
1
 40
1
 10
66.427604
 20
161.499211
 30
0.0
 10
66.427604
 20
163.568888
 30
0.0
 10
68.107899
 20
165.249183
 30
0.0
 10
70.177575
 20
165.249183
 30
0.0
  0
LWPOLYLINE
  5
13c
100
AcDbEntity
  8
0
 62
1
100
AcDbPolyline
 90
1
 70
1
 10
65.267501
 20
114.289840
 30
0.0
  0
SPLINE
  5
13d
100
AcDbEntity
  8
0
 62
1
100
AcDbSpline
 70
8
 71
3
 72
8
 73
4
 74
0
 40
0
 40
0
 40
0
 40
0
 40
1
 40
1
 40
1
 40
1
 10
151.320500
 20
163.548483
 30
0.0
 10
150.766780
 20
163.548483
 30
0.0
 10
150.318047
 20
163.995777
 30
0.0
 10
150.318047
 20
164.548651
 30
0.0
  0
SPLINE
  5
13e
100
AcDbEntity
  8
0
 62
1
100
AcDbSpline
 70
8
 71
3
 72
8
 73
4
 74
0
 40
0
 40
0
 40
0
 40
0
 40
1
 40
1
 40
1
 40
1
 10
150.318047
 20
164.548651
 30
0.0
 10
150.318047
 20
165.100508
 30
0.0
 10
150.766780
 20
165.548479
 30
0.0
 10
151.320500
 20
165.548479
 30
0.0
  0
SPLINE
  5
13f
100
AcDbEntity
  8
0
 62
1
100
AcDbSpline
 70
8
 71
3
 72
8
 73
4
 74
0
 40
0
 40
0
 40
0
 40
0
 40
1
 40
1
 40
1
 40
1
 10
151.320500
 20
165.548479
 30
0.0
 10
151.869987
 20
165.548479
 30
0.0
 10
152.318720
 20
165.100508
 30
0.0
 10
152.318720
 20
164.548651
 30
0.0
  0
SPLINE
  5
140
100
AcDbEntity
  8
0
 62
1
100
AcDbSpline
 70
8
 71
3
 72
8
 73
4
 74
0
 40
0
 40
0
 40
0
 40
0
 40
1
 40
1
 40
1
 40
1
 10
152.318720
 20
164.548651
 30
0.0
 10
152.318720
 20
163.995777
 30
0.0
 10
151.869987
 20
163.548483
 30
0.0
 10
151.320500
 20
163.548483
 30
0.0
  0
LWPOLYLINE
  5
141
100
AcDbEntity
  8
0
 62
1
100
AcDbPolyline
 90
1
 70
1
 10
70.177575
 20
165.249183
 30
0.0
  0
SPLINE
  5
142
100
AcDbEntity
  8
0
 62
1
100
AcDbSpline
 70
8
 71
3
 72
8
 73
4
 74
0
 40
0
 40
0
 40
0
 40
0
 40
1
 40
1
 40
1
 40
1
 10
78.229121
 20
174.803393
 30
0.0
 10
77.675825
 20
174.803393
 30
0.0
 10
77.227345
 20
175.250687
 30
0.0
 10
77.227345
 20
175.803560
 30
0.0
  0
SPLINE
  5
143
100
AcDbEntity
  8
0
 62
1
100
AcDbSpline
 70
8
 71
3
 72
8
 73
4
 74
0
 40
0
 40
0
 40
0
 40
0
 40
1
 40
1
 40
1
 40
1
 10
77.227345
 20
175.803560
 30
0.0
 10
77.227345
 20
176.355417
 30
0.0
 10
77.675825
 20
176.803389
 30
0.0
 10
78.229121
 20
176.803389
 30
0.0
  0
SPLINE
  5
144
100
AcDbEntity
  8
0
 62
1
100
AcDbSpline
 70
8
 71
3
 72
8
 73
4
 74
0
 40
0
 40
0
 40
0
 40
0
 40
1
 40
1
 40
1
 40
1
 10
78.229121
 20
176.803389
 30
0.0
 10
78.778862
 20
176.803389
 30
0.0
 10
79.227341
 20
176.355417
 30
0.0
 10
79.227341
 20
175.803560
 30
0.0
  0
SPLINE
  5
145
100
AcDbEntity
  8
0
 62
1
100
AcDbSpline
 70
8
 71
3
 72
8
 73
4
 74
0
 40
0
 40
0
 40
0
 40
0
 40
1
 40
1
 40
1
 40
1
 10
79.227341
 20
175.803560
 30
0.0
 10
79.227341
 20
175.250687
 30
0.0
 10
78.778862
 20
174.803393
 30
0.0
 10
78.229121
 20
174.803393
 30
0.0
  0
LWPOLYLINE
  5
146
100
AcDbEntity
  8
0
 62
1
100
AcDbPolyline
 90
1
 70
1
 10
151.320500
 20
163.548483
 30
0.0
  0
SPLINE
  5
147
100
AcDbEntity
  8
0
 62
1
100
AcDbSpline
 70
8
 71
3
 72
8
 73
4
 74
0
 40
0
 40
0
 40
0
 40
0
 40
1
 40
1
 40
1
 40
1
 10
136.453880
 20
182.624391
 30
0.0
 10
135.900160
 20
182.624391
 30
0.0
 10
135.452273
 20
183.071685
 30
0.0
 10
135.452273
 20
183.624559
 30
0.0
  0
SPLINE
  5
148
100
AcDbEntity
  8
0
 62
1
100
AcDbSpline
 70
8
 71
3
 72
8
 73
4
 74
0
 40
0
 40
0
 40
0
 40
0
 40
1
 40
1
 40
1
 40
1
 10
135.452273
 20
183.624559
 30
0.0
 10
135.452273
 20
184.176416
 30
0.0
 10
135.900160
 20
184.624387
 30
0.0
 10
136.453880
 20
184.624387
 30
0.0
  0
SPLINE
  5
149
100
AcDbEntity
  8
0
 62
1
100
AcDbSpline
 70
8
 71
3
 72
8
 73
4
 74
0
 40
0
 40
0
 40
0
 40
0
 40
1
 40
1
 40
1
 40
1
 10
136.453880
 20
184.624387
 30
0.0
 10
137.003367
 20
184.624387
 30
0.0
 10
137.452100
 20
184.176416
 30
0.0
 10
137.452100
 20
183.624559
 30
0.0
  0
SPLINE
  5
14a
100
AcDbEntity
  8
0
 62
1
100
AcDbSpline
 70
8
 71
3
 72
8
 73
4
 74
0
 40
0
 40
0
 40
0
 40
0
 40
1
 40
1
 40
1
 40
1
 10
137.452100
 20
183.624559
 30
0.0
 10
137.452100
 20
183.071685
 30
0.0
 10
137.003367
 20
182.624391
 30
0.0
 10
136.453880
 20
182.624391
 30
0.0
  0
LWPOLYLINE
  5
14b
100
AcDbEntity
  8
0
 62
1
100
AcDbPolyline
 90
1
 70
1
 10
78.229121
 20
174.803393
 30
0.0
  0
SPLINE
  5
14c
100
AcDbEntity
  8
0
 62
1
100
AcDbSpline
 70
8
 71
3
 72
8
 73
4
 74
0
 40
0
 40
0
 40
0
 40
0
 40
1
 40
1
 40
1
 40
1
 10
65.267501
 20
192.548510
 30
0.0
 10
64.714120
 20
192.548510
 30
0.0
 10
64.265725
 20
192.995804
 30
0.0
 10
64.265725
 20
193.548677
 30
0.0
  0
SPLINE
  5
14d
100
AcDbEntity
  8
0
 62
1
100
AcDbSpline
 70
8
 71
3
 72
8
 73
4
 74
0
 40
0
 40
0
 40
0
 40
0
 40
1
 40
1
 40
1
 40
1
 10
64.265725
 20
193.548677
 30
0.0
 10
64.265725
 20
194.100535
 30
0.0
 10
64.714120
 20
194.548506
 30
0.0
 10
65.267501
 20
194.548506
 30
0.0
  0
SPLINE
  5
14e
100
AcDbEntity
  8
0
 62
1
100
AcDbSpline
 70
8
 71
3
 72
8
 73
4
 74
0
 40
0
 40
0
 40
0
 40
0
 40
1
 40
1
 40
1
 40
1
 10
65.267501
 20
194.548506
 30
0.0
 10
65.817242
 20
194.548506
 30
0.0
 10
66.265721
 20
194.100535
 30
0.0
 10
66.265721
 20
193.548677
 30
0.0
  0
SPLINE
  5
14f
100
AcDbEntity
  8
0
 62
1
100
AcDbSpline
 70
8
 71
3
 72
8
 73
4
 74
0
 40
0
 40
0
 40
0
 40
0
 40
1
 40
1
 40
1
 40
1
 10
66.265721
 20
193.548677
 30
0.0
 10
66.265721
 20
192.995804
 30
0.0
 10
65.817242
 20
192.548510
 30
0.0
 10
65.267501
 20
192.548510
 30
0.0
  0
LWPOLYLINE
  5
150
100
AcDbEntity
  8
0
 62
1
100
AcDbPolyline
 90
1
 70
1
 10
136.453880
 20
182.624391
 30
0.0
  0
SPLINE
  5
151
100
AcDbEntity
  8
0
 62
1
100
AcDbSpline
 70
8
 71
3
 72
8
 73
4
 74
0
 40
0
 40
0
 40
0
 40
0
 40
1
 40
1
 40
1
 40
1
 10
151.320500
 20
192.548510
 30
0.0
 10
150.766780
 20
192.548510
 30
0.0
 10
150.318047
 20
192.995804
 30
0.0
 10
150.318047
 20
193.548677
 30
0.0
  0
SPLINE
  5
152
100
AcDbEntity
  8
0
 62
1
100
AcDbSpline
 70
8
 71
3
 72
8
 73
4
 74
0
 40
0
 40
0
 40
0
 40
0
 40
1
 40
1
 40
1
 40
1
 10
150.318047
 20
193.548677
 30
0.0
 10
150.318047
 20
194.100535
 30
0.0
 10
150.766780
 20
194.548506
 30
0.0
 10
151.320500
 20
194.548506
 30
0.0
  0
SPLINE
  5
153
100
AcDbEntity
  8
0
 62
1
100
AcDbSpline
 70
8
 71
3
 72
8
 73
4
 74
0
 40
0
 40
0
 40
0
 40
0
 40
1
 40
1
 40
1
 40
1
 10
151.320500
 20
194.548506
 30
0.0
 10
151.869987
 20
194.548506
 30
0.0
 10
152.318720
 20
194.100535
 30
0.0
 10
152.318720
 20
193.548677
 30
0.0
  0
SPLINE
  5
154
100
AcDbEntity
  8
0
 62
1
100
AcDbSpline
 70
8
 71
3
 72
8
 73
4
 74
0
 40
0
 40
0
 40
0
 40
0
 40
1
 40
1
 40
1
 40
1
 10
152.318720
 20
193.548677
 30
0.0
 10
152.318720
 20
192.995804
 30
0.0
 10
151.869987
 20
192.548510
 30
0.0
 10
151.320500
 20
192.548510
 30
0.0
  0
LWPOLYLINE
  5
155
100
AcDbEntity
  8
0
 62
1
100
AcDbPolyline
 90
1
 70
1
 10
65.267501
 20
192.548510
 30
0.0
  0
LWPOLYLINE
  5
156
100
AcDbEntity
  8
0
 62
1
100
AcDbPolyline
 90
1
 70
1
 10
151.320500
 20
192.548510
 30
0.0
  0
ENDSEC
  0
SECTION
  2
OBJECTS
  0
DICTIONARY
  5
C
330
0
100
AcDbDictionary
  3
ACAD_GROUP
350
D
  3
ACAD_MLINESTYLE
350
17
  0
DICTIONARY
  5
D
330
C
100
AcDbDictionary
  0
DICTIONARY
  5
1A
330
C
100
AcDbDictionary
  0
DICTIONARY
  5
17
330
C
100
AcDbDictionary
  3
STANDARD
350
18
  0
DICTIONARY
  5
19
330
C
100
AcDbDictionary
  0
ENDSEC
  0
EOF
