G04 #@! TF.GenerationSoftware,KiCad,Pcbnew,(5.1.5-0-10_14)*
G04 #@! TF.CreationDate,2020-05-14T05:20:06+09:00*
G04 #@! TF.ProjectId,R-top-v2,522d746f-702d-4763-922e-6b696361645f,rev?*
G04 #@! TF.SameCoordinates,Original*
G04 #@! TF.FileFunction,Copper,L1,Top*
G04 #@! TF.FilePolarity,Positive*
%FSLAX46Y46*%
G04 Gerber Fmt 4.6, Leading zero omitted, Abs format (unit mm)*
G04 Created by KiCad (PCBNEW (5.1.5-0-10_14)) date 2020-05-14 05:20:06*
%MOMM*%
%LPD*%
G04 APERTURE LIST*
%ADD10C,0.254000*%
G04 APERTURE END LIST*
D10*
G36*
X232557915Y-34149149D02*
G01*
X232589728Y-34150018D01*
X232618377Y-34151677D01*
X232647009Y-34154212D01*
X232673440Y-34157341D01*
X232699806Y-34161223D01*
X232724537Y-34165565D01*
X232750101Y-34170776D01*
X232775109Y-34176590D01*
X232798416Y-34182662D01*
X232821331Y-34189263D01*
X232844152Y-34196467D01*
X232866324Y-34204084D01*
X232887871Y-34212084D01*
X232909185Y-34220597D01*
X232930416Y-34229681D01*
X232950580Y-34238885D01*
X232970589Y-34248596D01*
X232990671Y-34258938D01*
X233009674Y-34269295D01*
X233028415Y-34280073D01*
X233046678Y-34291138D01*
X233064698Y-34302624D01*
X233083052Y-34314925D01*
X233101085Y-34327632D01*
X233118555Y-34340557D01*
X233135252Y-34353511D01*
X233152833Y-34367816D01*
X233168931Y-34381542D01*
X233184384Y-34395327D01*
X233200472Y-34410345D01*
X233215206Y-34424733D01*
X233229621Y-34439509D01*
X233244067Y-34454995D01*
X233259107Y-34471885D01*
X233273165Y-34488442D01*
X233286295Y-34504642D01*
X233301291Y-34524077D01*
X233313380Y-34540541D01*
X233326110Y-34558744D01*
X233338951Y-34578069D01*
X233350322Y-34596094D01*
X233361378Y-34614546D01*
X233372111Y-34633429D01*
X233382614Y-34652948D01*
X233392416Y-34672232D01*
X233402360Y-34693005D01*
X233411737Y-34713876D01*
X233420659Y-34735105D01*
X233429233Y-34757012D01*
X233437350Y-34779392D01*
X233445106Y-34802611D01*
X233452245Y-34825983D01*
X233458603Y-34848894D01*
X233464573Y-34872783D01*
X233470272Y-34898512D01*
X233475135Y-34923766D01*
X233479514Y-34950518D01*
X233482983Y-34976261D01*
X233485811Y-35002884D01*
X233487924Y-35030296D01*
X233489275Y-35059005D01*
X233489839Y-35094367D01*
X233489839Y-150601969D01*
X233489531Y-150627466D01*
X233488359Y-150657277D01*
X233486420Y-150685178D01*
X233483645Y-150713087D01*
X233480247Y-150739460D01*
X233476134Y-150765550D01*
X233471475Y-150790597D01*
X233466190Y-150815271D01*
X233460458Y-150838969D01*
X233454212Y-150862160D01*
X233447353Y-150885262D01*
X233440056Y-150907735D01*
X233432222Y-150929947D01*
X233423715Y-150952266D01*
X233414946Y-150973655D01*
X233406061Y-150993917D01*
X233395975Y-151015474D01*
X233386246Y-151035012D01*
X233374296Y-151057574D01*
X233363416Y-151076921D01*
X233351799Y-151096465D01*
X233340319Y-151114776D01*
X233327426Y-151134286D01*
X233315265Y-151151771D01*
X233302802Y-151168850D01*
X233290062Y-151185505D01*
X233276499Y-151202422D01*
X233262902Y-151218609D01*
X233247719Y-151235838D01*
X233232679Y-151252095D01*
X233213876Y-151271413D01*
X233203428Y-151281673D01*
X233187795Y-151296428D01*
X233172061Y-151310632D01*
X233156556Y-151324008D01*
X233136560Y-151340432D01*
X233120412Y-151353047D01*
X233103549Y-151365618D01*
X233082356Y-151380618D01*
X233064414Y-151392656D01*
X233046507Y-151404082D01*
X233028149Y-151415218D01*
X233009619Y-151425884D01*
X232989502Y-151436844D01*
X232969770Y-151446992D01*
X232949992Y-151456582D01*
X232929734Y-151465820D01*
X232907396Y-151475349D01*
X232885176Y-151484164D01*
X232863560Y-151492121D01*
X232842490Y-151499293D01*
X232812765Y-151508494D01*
X232789663Y-151514922D01*
X232764950Y-151521095D01*
X232741176Y-151526367D01*
X232716319Y-151531190D01*
X232690453Y-151535473D01*
X232663396Y-151539169D01*
X232636121Y-151542089D01*
X232608339Y-151544238D01*
X232579714Y-151545586D01*
X232544385Y-151546149D01*
X119015627Y-151546149D01*
X119014611Y-151546249D01*
X119005897Y-151546276D01*
X119005735Y-151546292D01*
X119000964Y-151546310D01*
X118946161Y-151546889D01*
X118946005Y-151546906D01*
X118940573Y-151546972D01*
X118888455Y-151547964D01*
X118888302Y-151547982D01*
X118883097Y-151548087D01*
X118830994Y-151549502D01*
X118830834Y-151549522D01*
X118825787Y-151549664D01*
X118777042Y-151551373D01*
X118776882Y-151551394D01*
X118771952Y-151551571D01*
X118723225Y-151553656D01*
X118723059Y-151553679D01*
X118718247Y-151553888D01*
X118670209Y-151556307D01*
X118670044Y-151556332D01*
X118665297Y-151556573D01*
X118617278Y-151559350D01*
X118617120Y-151559375D01*
X118611766Y-151559692D01*
X118553108Y-151563577D01*
X118552954Y-151563603D01*
X118547510Y-151563972D01*
X118498217Y-151567658D01*
X118498057Y-151567686D01*
X118493315Y-151568043D01*
X118446716Y-151571877D01*
X118446561Y-151571905D01*
X118441850Y-151572295D01*
X118393950Y-151576593D01*
X118393793Y-151576623D01*
X118388756Y-151577080D01*
X118335574Y-151582276D01*
X118335419Y-151582307D01*
X118330354Y-151582807D01*
X118282527Y-151587864D01*
X118282375Y-151587895D01*
X118277669Y-151588395D01*
X118229881Y-151593806D01*
X118229716Y-151593841D01*
X118224894Y-151594390D01*
X118175819Y-151600325D01*
X118175656Y-151600361D01*
X118170898Y-151600939D01*
X118124519Y-151606902D01*
X118124361Y-151606938D01*
X118119182Y-151607611D01*
X118060938Y-151615583D01*
X118060794Y-151615617D01*
X118054932Y-151616433D01*
X117995765Y-151625086D01*
X117995609Y-151625125D01*
X117990317Y-151625906D01*
X117943768Y-151633111D01*
X117943611Y-151633151D01*
X117939198Y-151633835D01*
X117895666Y-151640886D01*
X117895512Y-151640927D01*
X117891125Y-151641637D01*
X117846320Y-151649215D01*
X117846162Y-151649258D01*
X117841825Y-151649991D01*
X117798387Y-151657647D01*
X117798227Y-151657692D01*
X117793736Y-151658484D01*
X117746405Y-151667176D01*
X117746241Y-151667223D01*
X117741661Y-151668066D01*
X117695702Y-151676854D01*
X117695549Y-151676899D01*
X117691118Y-151677747D01*
X117647841Y-151686340D01*
X117647687Y-151686387D01*
X117643516Y-151687214D01*
X117601602Y-151695828D01*
X117601449Y-151695876D01*
X117597147Y-151696759D01*
X117552674Y-151706219D01*
X117552543Y-151706260D01*
X117549968Y-151706801D01*
X117437960Y-151731118D01*
X117437959Y-151731118D01*
X117437956Y-151731119D01*
X117186593Y-151785692D01*
X116976200Y-151831370D01*
X116976123Y-151831386D01*
X116826730Y-151863820D01*
X116589281Y-151915371D01*
X116589277Y-151915372D01*
X116066255Y-152028921D01*
X116066178Y-152028937D01*
X115265578Y-152202746D01*
X115265576Y-152202747D01*
X113882819Y-152502938D01*
X113882815Y-152502939D01*
X112547615Y-152792803D01*
X111982700Y-152915442D01*
X111101621Y-153106718D01*
X111101619Y-153106719D01*
X110176201Y-153307620D01*
X110176124Y-153307636D01*
X109540165Y-153445696D01*
X109540135Y-153445702D01*
X108559761Y-153658532D01*
X108559759Y-153658533D01*
X107203126Y-153953045D01*
X107203124Y-153953046D01*
X105800501Y-154257540D01*
X105800499Y-154257541D01*
X104360248Y-154570203D01*
X102890728Y-154889219D01*
X100650910Y-155375457D01*
X100650908Y-155375458D01*
X97636606Y-156029825D01*
X95396772Y-156516062D01*
X93927238Y-156835079D01*
X93927236Y-156835080D01*
X92486966Y-157147742D01*
X91084316Y-157452236D01*
X89061858Y-157891282D01*
X86582738Y-158429461D01*
X86582631Y-158429483D01*
X84404395Y-158902342D01*
X82594043Y-159295338D01*
X82594041Y-159295339D01*
X81218465Y-159593949D01*
X81218463Y-159593950D01*
X80737794Y-159698293D01*
X80734884Y-159698921D01*
X80695678Y-159707237D01*
X80657829Y-159715003D01*
X80612368Y-159723988D01*
X80574329Y-159731217D01*
X80536578Y-159738131D01*
X80489745Y-159746353D01*
X80450519Y-159752934D01*
X80402730Y-159760579D01*
X80362796Y-159766655D01*
X80319316Y-159772945D01*
X80277904Y-159778622D01*
X80237419Y-159783877D01*
X80194624Y-159789116D01*
X80154261Y-159793762D01*
X80111876Y-159798329D01*
X80070871Y-159802444D01*
X80029193Y-159806322D01*
X79987355Y-159809910D01*
X79944552Y-159813259D01*
X79896514Y-159816635D01*
X79852440Y-159819378D01*
X79805865Y-159821905D01*
X79761776Y-159823943D01*
X79709933Y-159825907D01*
X79665878Y-159827207D01*
X79619079Y-159828215D01*
X79573924Y-159828823D01*
X79518054Y-159829089D01*
X60735173Y-159829089D01*
X60735173Y-156324042D01*
X62395000Y-156324042D01*
X62395000Y-156655958D01*
X62459754Y-156981496D01*
X62586772Y-157288147D01*
X62771175Y-157564125D01*
X63005875Y-157798825D01*
X63281853Y-157983228D01*
X63588504Y-158110246D01*
X63914042Y-158175000D01*
X64245958Y-158175000D01*
X64571496Y-158110246D01*
X64878147Y-157983228D01*
X65154125Y-157798825D01*
X65388825Y-157564125D01*
X65573228Y-157288147D01*
X65700246Y-156981496D01*
X65765000Y-156655958D01*
X65765000Y-156324042D01*
X65700246Y-155998504D01*
X65573228Y-155691853D01*
X65388825Y-155415875D01*
X65154125Y-155181175D01*
X64878147Y-154996772D01*
X64571496Y-154869754D01*
X64245958Y-154805000D01*
X63914042Y-154805000D01*
X63588504Y-154869754D01*
X63281853Y-154996772D01*
X63005875Y-155181175D01*
X62771175Y-155415875D01*
X62586772Y-155691853D01*
X62459754Y-155998504D01*
X62395000Y-156324042D01*
X60735173Y-156324042D01*
X60735173Y-96264042D01*
X62385000Y-96264042D01*
X62385000Y-96595958D01*
X62449754Y-96921496D01*
X62576772Y-97228147D01*
X62761175Y-97504125D01*
X62995875Y-97738825D01*
X63271853Y-97923228D01*
X63578504Y-98050246D01*
X63904042Y-98115000D01*
X64235958Y-98115000D01*
X64561496Y-98050246D01*
X64868147Y-97923228D01*
X65144125Y-97738825D01*
X65378825Y-97504125D01*
X65563228Y-97228147D01*
X65690246Y-96921496D01*
X65755000Y-96595958D01*
X65755000Y-96264042D01*
X65690246Y-95938504D01*
X65563228Y-95631853D01*
X65378825Y-95355875D01*
X65144125Y-95121175D01*
X64868147Y-94936772D01*
X64561496Y-94809754D01*
X64235958Y-94745000D01*
X63904042Y-94745000D01*
X63578504Y-94809754D01*
X63271853Y-94936772D01*
X62995875Y-95121175D01*
X62761175Y-95355875D01*
X62576772Y-95631853D01*
X62449754Y-95938504D01*
X62385000Y-96264042D01*
X60735173Y-96264042D01*
X60735173Y-79309696D01*
X63886730Y-79309696D01*
X63899462Y-79369086D01*
X63899466Y-79369106D01*
X63922411Y-79476141D01*
X63922413Y-79476147D01*
X63922415Y-79476157D01*
X63938657Y-79551915D01*
X63938659Y-79551920D01*
X63982230Y-79755155D01*
X63982258Y-79755293D01*
X64062971Y-80131781D01*
X64062972Y-80131784D01*
X64155787Y-80564711D01*
X64155793Y-80564741D01*
X64315390Y-81309161D01*
X64315391Y-81309163D01*
X64568414Y-82489343D01*
X64861951Y-83858486D01*
X64861972Y-83858585D01*
X65192552Y-85400497D01*
X65192558Y-85400526D01*
X65556663Y-87098805D01*
X66154903Y-89889136D01*
X67042134Y-94027386D01*
X68000300Y-98496486D01*
X68749274Y-101989872D01*
X69255248Y-104349850D01*
X69817929Y-106974330D01*
X69758825Y-106885875D01*
X69524125Y-106651175D01*
X69248147Y-106466772D01*
X68941496Y-106339754D01*
X68615958Y-106275000D01*
X68284042Y-106275000D01*
X67958504Y-106339754D01*
X67651853Y-106466772D01*
X67375875Y-106651175D01*
X67141175Y-106885875D01*
X66956772Y-107161853D01*
X66829754Y-107468504D01*
X66765000Y-107794042D01*
X66765000Y-108125958D01*
X66829754Y-108451496D01*
X66956772Y-108758147D01*
X67141175Y-109034125D01*
X67375875Y-109268825D01*
X67651853Y-109453228D01*
X67958504Y-109580246D01*
X68284042Y-109645000D01*
X68615958Y-109645000D01*
X68941496Y-109580246D01*
X69248147Y-109453228D01*
X69524125Y-109268825D01*
X69758825Y-109034125D01*
X69943228Y-108758147D01*
X70070246Y-108451496D01*
X70101231Y-108295723D01*
X70770819Y-111418856D01*
X71140994Y-113145456D01*
X71141000Y-113145485D01*
X71384557Y-114281495D01*
X71614590Y-115354435D01*
X71588825Y-115315875D01*
X71354125Y-115081175D01*
X71078147Y-114896772D01*
X70771496Y-114769754D01*
X70445958Y-114705000D01*
X70114042Y-114705000D01*
X69788504Y-114769754D01*
X69481853Y-114896772D01*
X69205875Y-115081175D01*
X68971175Y-115315875D01*
X68786772Y-115591853D01*
X68659754Y-115898504D01*
X68595000Y-116224042D01*
X68595000Y-116555958D01*
X68659754Y-116881496D01*
X68786772Y-117188147D01*
X68971175Y-117464125D01*
X69205875Y-117698825D01*
X69481853Y-117883228D01*
X69788504Y-118010246D01*
X70114042Y-118075000D01*
X70445958Y-118075000D01*
X70771496Y-118010246D01*
X71078147Y-117883228D01*
X71354125Y-117698825D01*
X71588825Y-117464125D01*
X71773228Y-117188147D01*
X71900246Y-116881496D01*
X71920333Y-116780515D01*
X72209202Y-118127886D01*
X72489519Y-119435376D01*
X72489541Y-119435484D01*
X72599694Y-119949276D01*
X72599697Y-119949286D01*
X72762494Y-120708624D01*
X73078431Y-122182262D01*
X73078468Y-122182440D01*
X73196206Y-122731616D01*
X73098825Y-122585875D01*
X72864125Y-122351175D01*
X72588147Y-122166772D01*
X72281496Y-122039754D01*
X71955958Y-121975000D01*
X71624042Y-121975000D01*
X71298504Y-122039754D01*
X70991853Y-122166772D01*
X70715875Y-122351175D01*
X70481175Y-122585875D01*
X70296772Y-122861853D01*
X70169754Y-123168504D01*
X70105000Y-123494042D01*
X70105000Y-123825958D01*
X70169754Y-124151496D01*
X70296772Y-124458147D01*
X70481175Y-124734125D01*
X70715875Y-124968825D01*
X70991853Y-125153228D01*
X71298504Y-125280246D01*
X71624042Y-125345000D01*
X71955958Y-125345000D01*
X72281496Y-125280246D01*
X72588147Y-125153228D01*
X72864125Y-124968825D01*
X73098825Y-124734125D01*
X73283228Y-124458147D01*
X73410246Y-124151496D01*
X73453739Y-123932846D01*
X73569538Y-124472985D01*
X73753324Y-125330246D01*
X73753331Y-125330279D01*
X73929062Y-126149964D01*
X74096259Y-126929856D01*
X74096288Y-126929994D01*
X74254559Y-127668246D01*
X74254575Y-127668325D01*
X74403483Y-128362911D01*
X74542566Y-129011680D01*
X74542572Y-129011710D01*
X74671401Y-129612650D01*
X74671405Y-129612670D01*
X74789542Y-130163752D01*
X74896542Y-130662887D01*
X74896546Y-130662907D01*
X74991978Y-131108091D01*
X75075395Y-131497241D01*
X75075399Y-131497261D01*
X75129404Y-131749208D01*
X75129420Y-131749286D01*
X75160855Y-131895942D01*
X75145853Y-131899109D01*
X75145824Y-131899115D01*
X75041388Y-131921161D01*
X75041385Y-131921162D01*
X74873641Y-131956569D01*
X74873638Y-131956570D01*
X74628206Y-132008373D01*
X74628156Y-132008383D01*
X74360849Y-132064802D01*
X74360847Y-132064803D01*
X74073833Y-132125381D01*
X74073812Y-132125385D01*
X73769137Y-132189689D01*
X73769116Y-132189693D01*
X73448835Y-132257288D01*
X73448829Y-132257290D01*
X73115054Y-132327731D01*
X72769872Y-132400580D01*
X72769851Y-132400584D01*
X72415351Y-132475397D01*
X72415300Y-132475407D01*
X72144354Y-132532586D01*
X72144317Y-132532593D01*
X71961979Y-132571074D01*
X71961972Y-132571076D01*
X71778482Y-132609798D01*
X71594067Y-132648715D01*
X71316345Y-132707323D01*
X71316342Y-132707324D01*
X70945193Y-132785645D01*
X70945191Y-132785646D01*
X70575086Y-132863746D01*
X70208094Y-132941185D01*
X69936360Y-132998524D01*
X69936358Y-132998525D01*
X69757156Y-133036338D01*
X69579899Y-133073741D01*
X69579893Y-133073743D01*
X69404936Y-133110660D01*
X69404856Y-133110676D01*
X69146666Y-133165155D01*
X69146644Y-133165159D01*
X68812919Y-133235573D01*
X68812916Y-133235574D01*
X68571857Y-133286434D01*
X68571855Y-133286435D01*
X68571853Y-133286435D01*
X68415515Y-133319421D01*
X68415514Y-133319421D01*
X68263295Y-133351536D01*
X68263216Y-133351552D01*
X68115192Y-133382781D01*
X68115189Y-133382782D01*
X68007351Y-133405532D01*
X68007301Y-133405542D01*
X67936809Y-133420414D01*
X67936735Y-133420429D01*
X67833089Y-133442296D01*
X67833054Y-133442303D01*
X67699555Y-133470467D01*
X67699455Y-133470487D01*
X67571183Y-133497546D01*
X67448491Y-133523427D01*
X67448488Y-133523428D01*
X67331691Y-133548066D01*
X67331656Y-133548073D01*
X67220916Y-133571431D01*
X67220914Y-133571431D01*
X67116555Y-133593441D01*
X67116552Y-133593442D01*
X67018824Y-133614054D01*
X67018817Y-133614055D01*
X66927951Y-133633216D01*
X66927942Y-133633219D01*
X66844340Y-133650848D01*
X66844255Y-133650865D01*
X66767937Y-133666956D01*
X66767934Y-133666957D01*
X66699330Y-133681421D01*
X66699324Y-133681422D01*
X66611630Y-133699906D01*
X66597108Y-133704486D01*
X66592256Y-133705249D01*
X66589641Y-133705564D01*
X66589072Y-133705750D01*
X66582058Y-133706853D01*
X66573155Y-133709229D01*
X66557578Y-133713502D01*
X66512783Y-133730643D01*
X66467186Y-133745522D01*
X66458772Y-133749281D01*
X66424123Y-133765051D01*
X66419898Y-133767497D01*
X66415303Y-133769144D01*
X66364195Y-133799751D01*
X66312652Y-133829596D01*
X66308984Y-133832816D01*
X66304795Y-133835324D01*
X66297427Y-133840859D01*
X66268793Y-133862685D01*
X66263903Y-133867232D01*
X66258299Y-133870853D01*
X66216784Y-133911042D01*
X66174459Y-133950395D01*
X66170548Y-133955802D01*
X66165751Y-133960445D01*
X66159836Y-133967512D01*
X66137096Y-133995069D01*
X66133843Y-133999905D01*
X66129789Y-134004085D01*
X66097918Y-134053309D01*
X66065199Y-134101946D01*
X66062950Y-134107315D01*
X66059781Y-134112209D01*
X66055609Y-134120426D01*
X66039724Y-134152256D01*
X66035877Y-134162320D01*
X66030445Y-134171631D01*
X66012900Y-134222421D01*
X65993727Y-134272574D01*
X65991908Y-134283191D01*
X65988388Y-134293381D01*
X65986306Y-134302358D01*
X65977041Y-134343616D01*
X65973878Y-134369170D01*
X65967739Y-134394176D01*
X65965983Y-134432945D01*
X65961217Y-134471450D01*
X65963077Y-134497128D01*
X65961912Y-134522854D01*
X65962460Y-134532053D01*
X65965597Y-134579192D01*
X65972521Y-134620985D01*
X65976631Y-134663167D01*
X65978479Y-134672195D01*
X65987500Y-134714766D01*
X65987514Y-134714833D01*
X66009146Y-134816905D01*
X66009149Y-134816913D01*
X66009150Y-134816920D01*
X66048852Y-135004239D01*
X66048854Y-135004244D01*
X66048854Y-135004246D01*
X66116216Y-135322046D01*
X66116228Y-135322104D01*
X66198311Y-135709346D01*
X66198312Y-135709348D01*
X66294002Y-136160778D01*
X66294014Y-136160836D01*
X66402246Y-136671423D01*
X66402247Y-136671427D01*
X66521916Y-137235954D01*
X66521922Y-137235983D01*
X66651948Y-137849364D01*
X66651949Y-137849366D01*
X66791214Y-138506320D01*
X66791237Y-138506431D01*
X66882802Y-138938377D01*
X66882803Y-138938379D01*
X66920124Y-139114434D01*
X66920136Y-139114492D01*
X66976907Y-139382292D01*
X66976924Y-139382375D01*
X67093242Y-139931069D01*
X67093245Y-139931079D01*
X67253776Y-140688328D01*
X67253782Y-140688358D01*
X67419226Y-141468773D01*
X67545953Y-142066556D01*
X67545965Y-142066614D01*
X67631344Y-142469349D01*
X67631345Y-142469351D01*
X67717338Y-142874976D01*
X67803808Y-143282851D01*
X67890613Y-143692305D01*
X67890619Y-143692334D01*
X67977623Y-144102723D01*
X67977635Y-144102781D01*
X68108262Y-144718928D01*
X68108264Y-144718936D01*
X68281883Y-145537862D01*
X68281889Y-145537891D01*
X68411008Y-146146917D01*
X68411020Y-146146975D01*
X68496405Y-146549710D01*
X68496406Y-146549712D01*
X68559930Y-146849329D01*
X68559934Y-146849350D01*
X68602032Y-147047916D01*
X68602040Y-147047953D01*
X68664796Y-147343942D01*
X68747522Y-147734122D01*
X68747528Y-147734151D01*
X68829102Y-148118896D01*
X68829103Y-148118898D01*
X68909371Y-148497474D01*
X68909385Y-148497543D01*
X68988236Y-148869437D01*
X68988238Y-148869445D01*
X69065520Y-149233927D01*
X69065526Y-149233956D01*
X69141091Y-149590334D01*
X69141112Y-149590437D01*
X69214849Y-149938187D01*
X69214861Y-149938246D01*
X69286634Y-150276734D01*
X69286636Y-150276742D01*
X69356296Y-150605250D01*
X69356300Y-150605271D01*
X69407006Y-150844402D01*
X69407008Y-150844407D01*
X69407008Y-150844409D01*
X69440112Y-151000520D01*
X69440130Y-151000608D01*
X69472648Y-151153952D01*
X69504537Y-151304333D01*
X69504545Y-151304371D01*
X69551272Y-151524712D01*
X69551273Y-151524714D01*
X69611123Y-151806935D01*
X69611135Y-151806993D01*
X69668205Y-152076101D01*
X69668207Y-152076109D01*
X69722351Y-152331403D01*
X69722352Y-152331407D01*
X69760857Y-152512961D01*
X69760859Y-152512966D01*
X69785607Y-152629647D01*
X69785609Y-152629657D01*
X69821309Y-152797969D01*
X69821317Y-152798007D01*
X69865861Y-153008002D01*
X69865864Y-153008019D01*
X69896848Y-153154078D01*
X69896891Y-153154286D01*
X69916534Y-153246879D01*
X69916536Y-153246887D01*
X69935262Y-153335149D01*
X69935271Y-153335195D01*
X69953065Y-153419060D01*
X69953078Y-153419122D01*
X69969939Y-153498587D01*
X69969941Y-153498596D01*
X69985840Y-153573522D01*
X69985841Y-153573527D01*
X69985844Y-153573539D01*
X70007979Y-153677840D01*
X70007983Y-153677858D01*
X70027607Y-153770313D01*
X70027612Y-153770336D01*
X70039495Y-153826310D01*
X70039499Y-153826329D01*
X70050335Y-153877365D01*
X70050343Y-153877404D01*
X70064553Y-153944311D01*
X70067433Y-153953394D01*
X70068765Y-153962828D01*
X70071000Y-153971768D01*
X70074879Y-153986832D01*
X70093066Y-154036695D01*
X70109530Y-154087173D01*
X70113288Y-154095587D01*
X70129225Y-154130615D01*
X70133629Y-154138223D01*
X70136686Y-154146450D01*
X70165852Y-154193889D01*
X70193756Y-154242094D01*
X70199545Y-154248692D01*
X70204149Y-154256180D01*
X70209770Y-154263483D01*
X70231764Y-154291650D01*
X70235174Y-154295232D01*
X70237878Y-154299359D01*
X70279529Y-154341835D01*
X70320569Y-154384954D01*
X70324603Y-154387801D01*
X70328063Y-154391330D01*
X70335167Y-154397199D01*
X70362784Y-154419693D01*
X70416159Y-154455103D01*
X70469202Y-154490414D01*
X70470074Y-154490871D01*
X70470121Y-154490902D01*
X70470179Y-154490926D01*
X70477365Y-154494691D01*
X70508279Y-154510614D01*
X70520717Y-154515552D01*
X70532244Y-154522351D01*
X70580487Y-154539279D01*
X70628000Y-154558140D01*
X70641159Y-154560567D01*
X70653789Y-154564999D01*
X70662756Y-154567124D01*
X70704685Y-154576754D01*
X70728649Y-154579839D01*
X70752054Y-154585825D01*
X70792385Y-154588043D01*
X70832441Y-154593199D01*
X70856540Y-154591571D01*
X70880670Y-154592898D01*
X70889873Y-154592439D01*
X70937256Y-154589746D01*
X70982831Y-154582647D01*
X71028718Y-154578097D01*
X71037743Y-154576234D01*
X71059778Y-154571525D01*
X71108615Y-154561092D01*
X71108616Y-154561092D01*
X71191968Y-154543288D01*
X71191988Y-154543284D01*
X71323996Y-154515089D01*
X71323997Y-154515089D01*
X71478329Y-154482128D01*
X71478349Y-154482124D01*
X71654710Y-154444460D01*
X71654711Y-154444460D01*
X71852672Y-154402184D01*
X71852692Y-154402180D01*
X72071898Y-154355369D01*
X72071948Y-154355359D01*
X72312112Y-154304074D01*
X72312114Y-154304073D01*
X72708257Y-154219481D01*
X72708259Y-154219480D01*
X73154334Y-154124226D01*
X73154384Y-154124216D01*
X73474528Y-154055855D01*
X73988019Y-153946209D01*
X73988098Y-153946193D01*
X74740721Y-153785488D01*
X74740723Y-153785487D01*
X75564599Y-153609570D01*
X75564601Y-153609569D01*
X76456715Y-153419083D01*
X76456822Y-153419061D01*
X77414485Y-153214580D01*
X77414489Y-153214579D01*
X78434678Y-152996750D01*
X79514492Y-152766191D01*
X79514494Y-152766190D01*
X80651018Y-152523524D01*
X81841349Y-152269370D01*
X81841351Y-152269369D01*
X83082574Y-152004352D01*
X83082584Y-152004349D01*
X85027891Y-151588999D01*
X85028027Y-151588971D01*
X87082434Y-151150326D01*
X87082541Y-151150304D01*
X88498266Y-150848030D01*
X89950343Y-150537994D01*
X91435866Y-150220818D01*
X92951925Y-149897122D01*
X94495611Y-149567529D01*
X96854008Y-149063986D01*
X96854038Y-149063980D01*
X100072278Y-148376853D01*
X100072280Y-148376852D01*
X101677877Y-148034042D01*
X139765000Y-148034042D01*
X139765000Y-148365958D01*
X139829754Y-148691496D01*
X139956772Y-148998147D01*
X140141175Y-149274125D01*
X140375875Y-149508825D01*
X140651853Y-149693228D01*
X140958504Y-149820246D01*
X141284042Y-149885000D01*
X141615958Y-149885000D01*
X141941496Y-149820246D01*
X142248147Y-149693228D01*
X142524125Y-149508825D01*
X142758825Y-149274125D01*
X142943228Y-148998147D01*
X143070246Y-148691496D01*
X143135000Y-148365958D01*
X143135000Y-148034042D01*
X143070246Y-147708504D01*
X142943228Y-147401853D01*
X142758825Y-147125875D01*
X142524125Y-146891175D01*
X142248147Y-146706772D01*
X141941496Y-146579754D01*
X141615958Y-146515000D01*
X141284042Y-146515000D01*
X140958504Y-146579754D01*
X140651853Y-146706772D01*
X140375875Y-146891175D01*
X140141175Y-147125875D01*
X139956772Y-147401853D01*
X139829754Y-147708504D01*
X139765000Y-148034042D01*
X101677877Y-148034042D01*
X104998510Y-147325056D01*
X114967245Y-145196638D01*
X122925402Y-143497495D01*
X122925432Y-143497489D01*
X125957451Y-142850122D01*
X128861487Y-142230080D01*
X131614246Y-141642337D01*
X131614275Y-141642331D01*
X133559582Y-141226985D01*
X133559611Y-141226979D01*
X134800752Y-140961980D01*
X136572998Y-140583583D01*
X136573027Y-140583577D01*
X138732428Y-140122514D01*
X138732458Y-140122508D01*
X140647509Y-139713614D01*
X140647568Y-139713602D01*
X141900660Y-139446044D01*
X141900665Y-139446042D01*
X142653133Y-139285374D01*
X142653163Y-139285368D01*
X143331495Y-139140528D01*
X143932750Y-139012146D01*
X143932755Y-139012145D01*
X144454024Y-138900837D01*
X144454027Y-138900836D01*
X144788081Y-138829503D01*
X144985888Y-138787264D01*
X144986004Y-138787240D01*
X145113596Y-138759994D01*
X145117013Y-138775973D01*
X145139301Y-138880185D01*
X145162945Y-138990742D01*
X145187888Y-139107389D01*
X145187892Y-139107409D01*
X145214069Y-139229828D01*
X145214087Y-139229916D01*
X145241475Y-139357998D01*
X145241477Y-139358005D01*
X145284536Y-139559384D01*
X145345786Y-139845852D01*
X145345794Y-139845892D01*
X145394338Y-140072947D01*
X145394342Y-140072967D01*
X145419317Y-140189787D01*
X145419321Y-140189806D01*
X145436211Y-140268801D01*
X145479151Y-140469651D01*
X145479173Y-140469759D01*
X145550408Y-140802965D01*
X145624078Y-141147564D01*
X145624082Y-141147584D01*
X145738029Y-141680598D01*
X145894688Y-142413421D01*
X146053120Y-143154545D01*
X146209760Y-143887285D01*
X146209778Y-143887372D01*
X146323725Y-144420387D01*
X146323726Y-144420389D01*
X146397400Y-144765011D01*
X146397401Y-144765015D01*
X146468619Y-145098138D01*
X146468637Y-145098227D01*
X146536991Y-145417947D01*
X146536992Y-145417951D01*
X146602020Y-145722106D01*
X146602021Y-145722109D01*
X146663254Y-146008505D01*
X146663280Y-146008632D01*
X146706333Y-146209984D01*
X146706344Y-146210038D01*
X146733732Y-146338120D01*
X146733733Y-146338122D01*
X146759920Y-146460586D01*
X146759930Y-146460633D01*
X146784877Y-146577294D01*
X146784881Y-146577313D01*
X146808524Y-146687866D01*
X146808526Y-146687876D01*
X146825327Y-146766443D01*
X146825332Y-146766466D01*
X146838748Y-146829192D01*
X146838760Y-146829250D01*
X146851694Y-146889720D01*
X146851696Y-146889730D01*
X146871103Y-146980460D01*
X146871105Y-146980466D01*
X146871107Y-146980476D01*
X146888989Y-147064066D01*
X146888991Y-147064076D01*
X146905282Y-147140225D01*
X146905298Y-147140303D01*
X146923308Y-147224470D01*
X146923329Y-147224573D01*
X146938721Y-147296476D01*
X146940461Y-147301934D01*
X146941206Y-147307613D01*
X146943353Y-147316575D01*
X146946360Y-147328750D01*
X146962617Y-147374725D01*
X146976664Y-147421414D01*
X146980227Y-147429913D01*
X146995256Y-147465071D01*
X146999700Y-147473173D01*
X147002731Y-147481905D01*
X147030650Y-147529600D01*
X147057202Y-147578008D01*
X147063131Y-147585088D01*
X147067803Y-147593069D01*
X147073265Y-147600492D01*
X147094772Y-147629300D01*
X147098451Y-147633337D01*
X147101349Y-147637959D01*
X147141818Y-147680923D01*
X147181536Y-147724505D01*
X147185920Y-147727744D01*
X147189668Y-147731723D01*
X147196654Y-147737733D01*
X147223710Y-147760689D01*
X147229178Y-147764477D01*
X147233898Y-147769158D01*
X147282089Y-147801130D01*
X147329595Y-147834040D01*
X147335687Y-147836690D01*
X147341233Y-147840370D01*
X147349403Y-147844634D01*
X147383116Y-147861932D01*
X147396696Y-147867298D01*
X147409310Y-147874650D01*
X147456493Y-147890928D01*
X147502912Y-147909271D01*
X147517274Y-147911897D01*
X147531077Y-147916659D01*
X147540055Y-147918737D01*
X147582080Y-147928157D01*
X147606821Y-147931210D01*
X147631015Y-147937203D01*
X147670596Y-147939079D01*
X147709920Y-147943931D01*
X147734776Y-147942121D01*
X147759681Y-147943301D01*
X147768881Y-147942772D01*
X147816196Y-147939723D01*
X147858803Y-147932756D01*
X147901773Y-147928554D01*
X147910801Y-147926703D01*
X147933709Y-147921841D01*
X147933717Y-147921839D01*
X147998423Y-147908103D01*
X147998511Y-147908085D01*
X148041620Y-147898934D01*
X148041629Y-147898931D01*
X148104553Y-147885573D01*
X148104554Y-147885573D01*
X148104562Y-147885571D01*
X148209158Y-147863365D01*
X148209187Y-147863359D01*
X148369581Y-147829306D01*
X148369582Y-147829306D01*
X148369595Y-147829303D01*
X148551990Y-147790575D01*
X148552048Y-147790563D01*
X148755785Y-147747303D01*
X148755786Y-147747303D01*
X148755794Y-147747301D01*
X148980041Y-147699683D01*
X149224024Y-147647874D01*
X149224029Y-147647873D01*
X149486975Y-147592035D01*
X149486977Y-147592034D01*
X149486979Y-147592034D01*
X149696688Y-147547500D01*
X149696717Y-147547494D01*
X149841658Y-147516714D01*
X149841687Y-147516708D01*
X150066663Y-147468931D01*
X150381852Y-147401996D01*
X150381855Y-147401995D01*
X150882307Y-147295714D01*
X150882312Y-147295712D01*
X151419524Y-147181624D01*
X151419526Y-147181623D01*
X151793533Y-147102195D01*
X151793538Y-147102194D01*
X152376804Y-146978321D01*
X152376809Y-146978319D01*
X153196800Y-146804168D01*
X154056983Y-146621480D01*
X154057042Y-146621468D01*
X154951305Y-146431540D01*
X154951334Y-146431534D01*
X156340752Y-146136440D01*
X156340755Y-146136439D01*
X157776603Y-145831480D01*
X158745153Y-145625769D01*
X158745182Y-145625763D01*
X160202627Y-145316213D01*
X160202686Y-145316201D01*
X161644694Y-145009926D01*
X162588484Y-144809470D01*
X162588492Y-144809468D01*
X163965459Y-144517005D01*
X165685763Y-144151617D01*
X165685822Y-144151605D01*
X167232752Y-143823038D01*
X167232781Y-143823032D01*
X168556775Y-143541815D01*
X168556804Y-143541809D01*
X169364039Y-143370350D01*
X169364044Y-143370348D01*
X169812407Y-143275114D01*
X169812409Y-143275113D01*
X170062186Y-143222060D01*
X170073607Y-143275113D01*
X170073613Y-143275141D01*
X170101620Y-143405251D01*
X170131289Y-143543089D01*
X170131291Y-143543095D01*
X170178366Y-143761817D01*
X170245571Y-144074084D01*
X170298396Y-144319542D01*
X170298422Y-144319669D01*
X170334385Y-144486784D01*
X170334387Y-144486791D01*
X170389075Y-144740914D01*
X170499310Y-145253155D01*
X170499328Y-145253244D01*
X170606082Y-145749304D01*
X170606084Y-145749309D01*
X170606084Y-145749311D01*
X170656733Y-145984649D01*
X170656751Y-145984738D01*
X170689217Y-146135588D01*
X170689218Y-146135591D01*
X170712659Y-146244503D01*
X170712671Y-146244562D01*
X170727887Y-146315259D01*
X170727889Y-146315268D01*
X170750042Y-146418188D01*
X170750043Y-146418192D01*
X170771153Y-146516268D01*
X170771160Y-146516299D01*
X170784716Y-146579270D01*
X170784718Y-146579275D01*
X170797800Y-146640049D01*
X170797803Y-146640063D01*
X170810390Y-146698528D01*
X170810398Y-146698568D01*
X170828385Y-146782112D01*
X170828389Y-146782133D01*
X170845011Y-146859332D01*
X170845015Y-146859350D01*
X170855423Y-146907683D01*
X170855428Y-146907705D01*
X170869985Y-146975293D01*
X170869987Y-146975304D01*
X170882950Y-147035488D01*
X170882970Y-147035586D01*
X170894494Y-147089066D01*
X170896937Y-147096694D01*
X170897148Y-147098621D01*
X170897666Y-147100269D01*
X170898647Y-147107106D01*
X170900903Y-147116041D01*
X170904320Y-147129190D01*
X170921136Y-147174977D01*
X170935755Y-147221509D01*
X170939421Y-147229964D01*
X170954761Y-147264676D01*
X170958542Y-147271374D01*
X170961118Y-147278621D01*
X170990172Y-147327415D01*
X171018075Y-147376852D01*
X171023082Y-147382686D01*
X171027019Y-147389297D01*
X171032535Y-147396678D01*
X171054178Y-147425222D01*
X171057231Y-147428522D01*
X171059632Y-147432313D01*
X171100946Y-147475776D01*
X171141651Y-147519776D01*
X171145278Y-147522414D01*
X171148377Y-147525674D01*
X171155390Y-147531653D01*
X171182623Y-147554547D01*
X171187418Y-147557836D01*
X171191549Y-147561917D01*
X171240474Y-147594235D01*
X171288840Y-147627416D01*
X171294176Y-147629709D01*
X171299027Y-147632913D01*
X171307205Y-147637160D01*
X171340692Y-147654257D01*
X171352766Y-147659000D01*
X171363950Y-147665562D01*
X171412622Y-147682514D01*
X171460583Y-147701354D01*
X171473340Y-147703660D01*
X171485594Y-147707928D01*
X171494566Y-147710032D01*
X171535643Y-147719366D01*
X171560322Y-147722484D01*
X171584449Y-147728540D01*
X171624076Y-147730540D01*
X171663437Y-147735514D01*
X171688247Y-147733780D01*
X171713095Y-147735034D01*
X171722296Y-147734534D01*
X171770598Y-147731571D01*
X171814576Y-147724518D01*
X171858900Y-147720137D01*
X171867925Y-147718276D01*
X171953809Y-147699949D01*
X172187750Y-147650032D01*
X172187819Y-147650018D01*
X172411863Y-147602216D01*
X172411867Y-147602215D01*
X172580628Y-147566208D01*
X172580727Y-147566188D01*
X172862086Y-147506161D01*
X172862096Y-147506158D01*
X173292576Y-147414316D01*
X173292625Y-147414306D01*
X173778968Y-147310548D01*
X173778972Y-147310547D01*
X174316152Y-147195944D01*
X174316260Y-147195922D01*
X174899655Y-147071461D01*
X175524303Y-146938200D01*
X175524307Y-146938199D01*
X176185347Y-146797175D01*
X177231524Y-146573988D01*
X179474384Y-146095507D01*
X181814476Y-145596283D01*
X183355182Y-145267594D01*
X183355241Y-145267582D01*
X184472072Y-145029319D01*
X184472074Y-145029318D01*
X185191591Y-144875818D01*
X185884456Y-144728003D01*
X185884464Y-144728001D01*
X186545788Y-144586913D01*
X186545817Y-144586907D01*
X187170764Y-144453579D01*
X187170823Y-144453567D01*
X187754621Y-144329016D01*
X187754629Y-144329014D01*
X188292306Y-144214301D01*
X188292365Y-144214289D01*
X188779199Y-144110423D01*
X188779201Y-144110423D01*
X188779203Y-144110422D01*
X189053139Y-144051976D01*
X189053177Y-144051968D01*
X189157271Y-144029758D01*
X189157273Y-144029757D01*
X189306732Y-143997868D01*
X189306840Y-143997846D01*
X189492074Y-143958324D01*
X189492076Y-143958324D01*
X189492078Y-143958323D01*
X189661251Y-143922227D01*
X189661256Y-143922226D01*
X189714576Y-143910849D01*
X189764371Y-144152586D01*
X189764372Y-144152588D01*
X189823619Y-144440204D01*
X189823625Y-144440233D01*
X189887507Y-144750348D01*
X189887514Y-144750381D01*
X189954715Y-145076591D01*
X189954716Y-145076595D01*
X190023904Y-145412440D01*
X190023905Y-145412443D01*
X190093754Y-145751493D01*
X190093755Y-145751496D01*
X190145722Y-146003738D01*
X190145728Y-146003767D01*
X190179896Y-146169613D01*
X190179908Y-146169674D01*
X190230143Y-146413496D01*
X190230144Y-146413500D01*
X190278309Y-146647268D01*
X190278311Y-146647278D01*
X190309175Y-146797065D01*
X190309181Y-146797094D01*
X190338808Y-146940876D01*
X190338810Y-146940881D01*
X190367029Y-147077829D01*
X190367031Y-147077837D01*
X190393676Y-147207139D01*
X190393678Y-147207148D01*
X190418569Y-147327933D01*
X190418587Y-147328022D01*
X190441591Y-147439642D01*
X190441593Y-147439651D01*
X190462527Y-147541220D01*
X190462529Y-147541229D01*
X190476682Y-147609891D01*
X190476701Y-147609988D01*
X190493595Y-147691931D01*
X190493618Y-147692049D01*
X190504626Y-147745431D01*
X190507764Y-147755535D01*
X190509214Y-147766011D01*
X190511425Y-147774957D01*
X190515452Y-147790777D01*
X190533519Y-147840735D01*
X190549851Y-147891262D01*
X190553586Y-147899686D01*
X190569406Y-147934703D01*
X190573808Y-147942355D01*
X190576859Y-147950629D01*
X190605882Y-147998104D01*
X190633641Y-148046354D01*
X190639441Y-148053000D01*
X190644044Y-148060529D01*
X190649647Y-148067846D01*
X190671524Y-148096010D01*
X190675314Y-148100013D01*
X190678333Y-148104627D01*
X190719577Y-148146756D01*
X190760091Y-148189540D01*
X190764584Y-148192729D01*
X190768444Y-148196671D01*
X190775544Y-148202545D01*
X190803247Y-148225145D01*
X190855635Y-148259961D01*
X190908040Y-148295113D01*
X190910424Y-148296373D01*
X190910527Y-148296441D01*
X190910648Y-148296491D01*
X190916188Y-148299418D01*
X190947102Y-148315478D01*
X190957773Y-148319757D01*
X190967614Y-148325685D01*
X191017459Y-148343693D01*
X191066657Y-148363422D01*
X191077948Y-148365546D01*
X191088761Y-148369452D01*
X191097708Y-148371660D01*
X191138422Y-148381406D01*
X191166603Y-148385298D01*
X191194188Y-148392242D01*
X191230251Y-148394088D01*
X191266021Y-148399028D01*
X191294414Y-148397372D01*
X191322829Y-148398827D01*
X191332031Y-148398333D01*
X191380629Y-148395386D01*
X191424417Y-148388395D01*
X191468572Y-148384087D01*
X191477600Y-148382238D01*
X191519011Y-148373455D01*
X191519065Y-148373444D01*
X191617849Y-148352498D01*
X191617891Y-148352489D01*
X191798410Y-148314214D01*
X191798431Y-148314210D01*
X192103415Y-148249547D01*
X192103436Y-148249543D01*
X192473880Y-148171003D01*
X192473939Y-148170991D01*
X192905058Y-148079589D01*
X192905087Y-148079583D01*
X193266954Y-148002863D01*
X193266956Y-148002862D01*
X193523353Y-147948504D01*
X193523461Y-147948482D01*
X193792264Y-147891493D01*
X193792401Y-147891465D01*
X194073166Y-147831941D01*
X194073172Y-147831939D01*
X194513814Y-147738522D01*
X194513872Y-147738510D01*
X195139079Y-147605963D01*
X195800672Y-147465702D01*
X195800678Y-147465700D01*
X196847610Y-147243749D01*
X196847639Y-147243743D01*
X198330925Y-146929284D01*
X198330927Y-146929283D01*
X199872428Y-146602484D01*
X202213765Y-146106119D01*
X202213794Y-146106113D01*
X204458126Y-145630310D01*
X205844355Y-145336427D01*
X205844384Y-145336421D01*
X207094771Y-145071334D01*
X207094800Y-145071328D01*
X208170561Y-144843260D01*
X208170567Y-144843258D01*
X208831783Y-144703074D01*
X208831841Y-144703062D01*
X209202318Y-144624515D01*
X209202347Y-144624509D01*
X209335999Y-144596173D01*
X209346397Y-144646630D01*
X209346398Y-144646634D01*
X209373293Y-144777143D01*
X209373295Y-144777151D01*
X209401782Y-144915377D01*
X209401785Y-144915391D01*
X209446992Y-145134738D01*
X209446994Y-145134743D01*
X209446994Y-145134745D01*
X209511503Y-145447729D01*
X209511520Y-145447814D01*
X209614012Y-145945067D01*
X209614014Y-145945075D01*
X209719853Y-146458556D01*
X209719859Y-146458585D01*
X209789724Y-146797533D01*
X209789752Y-146797672D01*
X209857616Y-147126925D01*
X209857631Y-147127000D01*
X209906277Y-147363018D01*
X209937439Y-147514210D01*
X209937449Y-147514262D01*
X209967362Y-147659399D01*
X209995850Y-147797633D01*
X209995852Y-147797639D01*
X210022728Y-147928053D01*
X210022743Y-147928130D01*
X210047875Y-148050089D01*
X210071077Y-148162691D01*
X210087042Y-148240178D01*
X210097029Y-148288654D01*
X210097039Y-148288706D01*
X210106461Y-148334442D01*
X210106464Y-148334451D01*
X210123480Y-148417069D01*
X210123486Y-148417097D01*
X210134563Y-148470876D01*
X210137720Y-148481050D01*
X210139181Y-148491604D01*
X210141392Y-148500550D01*
X210145419Y-148516370D01*
X210163486Y-148566328D01*
X210179818Y-148616855D01*
X210183553Y-148625279D01*
X210199373Y-148660296D01*
X210203775Y-148667948D01*
X210206826Y-148676222D01*
X210235849Y-148723697D01*
X210263608Y-148771947D01*
X210269408Y-148778593D01*
X210274011Y-148786122D01*
X210279614Y-148793439D01*
X210301491Y-148821603D01*
X210305281Y-148825606D01*
X210308300Y-148830220D01*
X210349544Y-148872349D01*
X210390058Y-148915133D01*
X210394551Y-148918322D01*
X210398411Y-148922264D01*
X210405511Y-148928138D01*
X210433214Y-148950738D01*
X210434815Y-148951802D01*
X210436185Y-148953147D01*
X210488501Y-148987480D01*
X210540494Y-149022034D01*
X210542264Y-149022764D01*
X210543875Y-149023821D01*
X210552065Y-149028043D01*
X210584835Y-149044650D01*
X210598208Y-149049857D01*
X210610636Y-149057030D01*
X210658122Y-149073187D01*
X210704866Y-149091389D01*
X210718994Y-149093899D01*
X210732580Y-149098522D01*
X210741566Y-149100562D01*
X210782577Y-149109572D01*
X210803934Y-149112115D01*
X210824781Y-149117415D01*
X210867761Y-149119716D01*
X210910484Y-149124803D01*
X210931922Y-149123150D01*
X210953407Y-149124300D01*
X210962610Y-149123827D01*
X211009903Y-149121070D01*
X211054926Y-149113990D01*
X211100290Y-149109500D01*
X211109315Y-149107638D01*
X211130189Y-149103181D01*
X211175994Y-149093403D01*
X211176104Y-149093380D01*
X211227008Y-149082513D01*
X211227039Y-149082507D01*
X211297765Y-149067412D01*
X211297769Y-149067411D01*
X211343559Y-149057639D01*
X211343560Y-149057639D01*
X211408856Y-149043704D01*
X211408965Y-149043682D01*
X211515261Y-149021001D01*
X211515267Y-149020999D01*
X211673554Y-148987225D01*
X211673623Y-148987211D01*
X211849542Y-148949677D01*
X211849543Y-148949677D01*
X212042362Y-148908540D01*
X212042367Y-148908539D01*
X212251432Y-148863938D01*
X212251452Y-148863934D01*
X212476188Y-148815992D01*
X212715917Y-148764851D01*
X212715920Y-148764850D01*
X212969916Y-148710668D01*
X212969995Y-148710652D01*
X213237801Y-148653525D01*
X213237805Y-148653524D01*
X213518632Y-148593620D01*
X213518681Y-148593610D01*
X213812009Y-148531041D01*
X213812010Y-148531041D01*
X214272574Y-148432803D01*
X214926194Y-148293387D01*
X214926223Y-148293381D01*
X215355885Y-148201734D01*
X215355891Y-148201732D01*
X215530924Y-148164398D01*
X215531051Y-148164372D01*
X215797501Y-148107542D01*
X215797506Y-148107540D01*
X215797508Y-148107540D01*
X216095206Y-148044042D01*
X228465000Y-148044042D01*
X228465000Y-148375958D01*
X228529754Y-148701496D01*
X228656772Y-149008147D01*
X228841175Y-149284125D01*
X229075875Y-149518825D01*
X229351853Y-149703228D01*
X229658504Y-149830246D01*
X229984042Y-149895000D01*
X230315958Y-149895000D01*
X230641496Y-149830246D01*
X230948147Y-149703228D01*
X231224125Y-149518825D01*
X231458825Y-149284125D01*
X231643228Y-149008147D01*
X231770246Y-148701496D01*
X231835000Y-148375958D01*
X231835000Y-148044042D01*
X231770246Y-147718504D01*
X231643228Y-147411853D01*
X231458825Y-147135875D01*
X231224125Y-146901175D01*
X230948147Y-146716772D01*
X230641496Y-146589754D01*
X230315958Y-146525000D01*
X229984042Y-146525000D01*
X229658504Y-146589754D01*
X229351853Y-146716772D01*
X229075875Y-146901175D01*
X228841175Y-147135875D01*
X228656772Y-147411853D01*
X228529754Y-147718504D01*
X228465000Y-148044042D01*
X216095206Y-148044042D01*
X216159976Y-148030227D01*
X216160055Y-148030211D01*
X216529889Y-147951329D01*
X216529938Y-147951319D01*
X216906522Y-147870999D01*
X217289165Y-147789387D01*
X217289169Y-147789386D01*
X217872506Y-147664970D01*
X217872535Y-147664964D01*
X218467064Y-147538160D01*
X218467066Y-147538159D01*
X218867560Y-147452741D01*
X218867564Y-147452740D01*
X219473134Y-147323584D01*
X219473242Y-147323562D01*
X220287616Y-147149874D01*
X221512973Y-146888533D01*
X221512975Y-146888532D01*
X222725519Y-146629926D01*
X222725521Y-146629925D01*
X223321885Y-146502736D01*
X223321889Y-146502735D01*
X223714669Y-146418966D01*
X223714671Y-146418965D01*
X224295353Y-146295122D01*
X224295383Y-146295116D01*
X224861644Y-146174348D01*
X224861722Y-146174332D01*
X225231512Y-146095467D01*
X225773267Y-145979927D01*
X225773271Y-145979926D01*
X226464950Y-145832413D01*
X227434788Y-145625578D01*
X227434790Y-145625577D01*
X228557554Y-145386131D01*
X228557633Y-145386115D01*
X229455739Y-145194583D01*
X229455745Y-145194581D01*
X229947998Y-145089605D01*
X230134435Y-145049847D01*
X230134438Y-145049846D01*
X230236053Y-145028178D01*
X230236058Y-145028177D01*
X230278509Y-145019125D01*
X230286714Y-145016516D01*
X230295249Y-145015328D01*
X230304194Y-145013110D01*
X230316002Y-145010094D01*
X230360146Y-144994090D01*
X230405071Y-144980456D01*
X230413561Y-144976873D01*
X230448661Y-144961769D01*
X230455747Y-144957860D01*
X230463382Y-144955219D01*
X230512048Y-144926802D01*
X230561448Y-144899551D01*
X230567636Y-144894343D01*
X230574617Y-144890267D01*
X230582046Y-144884814D01*
X230611103Y-144863170D01*
X230614894Y-144859722D01*
X230619234Y-144857014D01*
X230662508Y-144816424D01*
X230706402Y-144776509D01*
X230709446Y-144772398D01*
X230713184Y-144768892D01*
X230719209Y-144761919D01*
X230742275Y-144734848D01*
X230746036Y-144729443D01*
X230750679Y-144724783D01*
X230782787Y-144676629D01*
X230815849Y-144629118D01*
X230818486Y-144623091D01*
X230822139Y-144617613D01*
X230826422Y-144609453D01*
X230843723Y-144575925D01*
X230849054Y-144562524D01*
X230856351Y-144550086D01*
X230872822Y-144502782D01*
X230891338Y-144456239D01*
X230893965Y-144442059D01*
X230898707Y-144428439D01*
X230900811Y-144419467D01*
X230910252Y-144377904D01*
X230913434Y-144352709D01*
X230919575Y-144328068D01*
X230921485Y-144288951D01*
X230926390Y-144250109D01*
X230924618Y-144224786D01*
X230925857Y-144199412D01*
X230925341Y-144190211D01*
X230922334Y-144142482D01*
X230915337Y-144099309D01*
X230911066Y-144055761D01*
X230909212Y-144046734D01*
X230900198Y-144004335D01*
X230900196Y-144004329D01*
X230878629Y-143902877D01*
X230878627Y-143902872D01*
X230839063Y-143716772D01*
X230839062Y-143716765D01*
X230789678Y-143484489D01*
X230752400Y-143309153D01*
X230690221Y-143016696D01*
X230690218Y-143016687D01*
X230594943Y-142568581D01*
X230487211Y-142061880D01*
X230487209Y-142061872D01*
X230368102Y-141501683D01*
X230368102Y-141501682D01*
X230238702Y-140893085D01*
X230238702Y-140893084D01*
X230028622Y-139905042D01*
X230028622Y-139905041D01*
X229721071Y-138458586D01*
X229721069Y-138458578D01*
X229475240Y-137302420D01*
X229475240Y-137302419D01*
X229306839Y-136510416D01*
X229306838Y-136510414D01*
X229135731Y-135705679D01*
X229135731Y-135705677D01*
X228962997Y-134893299D01*
X228789721Y-134078375D01*
X228616987Y-133266001D01*
X228616987Y-133266000D01*
X228360865Y-132061457D01*
X228360865Y-132061456D01*
X228112868Y-130895131D01*
X227953134Y-130143907D01*
X227953132Y-130143899D01*
X227724095Y-129066754D01*
X227514016Y-128078769D01*
X227514016Y-128078767D01*
X227384616Y-127470215D01*
X227384616Y-127470214D01*
X227208661Y-126642731D01*
X227208659Y-126642726D01*
X227062498Y-125955368D01*
X227062498Y-125955366D01*
X226980765Y-125571005D01*
X226980764Y-125571001D01*
X226929485Y-125329862D01*
X226899791Y-125190226D01*
X226899790Y-125190220D01*
X226862257Y-125013728D01*
X226862256Y-125013724D01*
X226843509Y-124925572D01*
X226841559Y-124919426D01*
X226841507Y-124918925D01*
X226840535Y-124915763D01*
X226839322Y-124907180D01*
X226837086Y-124898240D01*
X226833870Y-124885754D01*
X226817602Y-124841164D01*
X226803657Y-124795802D01*
X226800043Y-124787325D01*
X226784893Y-124752463D01*
X226780911Y-124745306D01*
X226778206Y-124737583D01*
X226749637Y-124689090D01*
X226722271Y-124639900D01*
X226716980Y-124633658D01*
X226712822Y-124626601D01*
X226707340Y-124619194D01*
X226685323Y-124589875D01*
X226681839Y-124586073D01*
X226679094Y-124581714D01*
X226638368Y-124538640D01*
X226598293Y-124494914D01*
X226594139Y-124491863D01*
X226590597Y-124488117D01*
X226583601Y-124482120D01*
X226556478Y-124459196D01*
X226551819Y-124455981D01*
X226547807Y-124451994D01*
X226498835Y-124419425D01*
X226450455Y-124386045D01*
X226445267Y-124383800D01*
X226440551Y-124380663D01*
X226432386Y-124376390D01*
X226399022Y-124359225D01*
X226387061Y-124354483D01*
X226375995Y-124347939D01*
X226327292Y-124330788D01*
X226279279Y-124311754D01*
X226266633Y-124309427D01*
X226254498Y-124305154D01*
X226245534Y-124303019D01*
X226204476Y-124293541D01*
X226180776Y-124290463D01*
X226157637Y-124284498D01*
X226117049Y-124282188D01*
X226076739Y-124276954D01*
X226052898Y-124278538D01*
X226029035Y-124277180D01*
X226019830Y-124277621D01*
X225972102Y-124280242D01*
X225926893Y-124287195D01*
X225881370Y-124291568D01*
X225872339Y-124293403D01*
X225837741Y-124300686D01*
X225837739Y-124300687D01*
X225778337Y-124313191D01*
X225778287Y-124313201D01*
X225734809Y-124322353D01*
X225734804Y-124322354D01*
X225663965Y-124337265D01*
X225557981Y-124359570D01*
X225557937Y-124359579D01*
X225439726Y-124384456D01*
X225309828Y-124411790D01*
X225309749Y-124411806D01*
X225095110Y-124456972D01*
X225095015Y-124456991D01*
X224853546Y-124507797D01*
X224853541Y-124507798D01*
X224680814Y-124544139D01*
X224404951Y-124602179D01*
X224404929Y-124602183D01*
X224004297Y-124686470D01*
X224004294Y-124686471D01*
X223571254Y-124777572D01*
X223571175Y-124777588D01*
X223108997Y-124874818D01*
X223108975Y-124874822D01*
X222744575Y-124951479D01*
X222744571Y-124951480D01*
X222494902Y-125004001D01*
X222494873Y-125004007D01*
X222111072Y-125084745D01*
X222111021Y-125084755D01*
X221582111Y-125196016D01*
X221582109Y-125196017D01*
X220762233Y-125368483D01*
X220762231Y-125368484D01*
X219916778Y-125546329D01*
X219916698Y-125546345D01*
X219346732Y-125666238D01*
X218489214Y-125846618D01*
X218489210Y-125846619D01*
X217359558Y-126084240D01*
X217359529Y-126084246D01*
X216270879Y-126313243D01*
X215250655Y-126527848D01*
X215250626Y-126527854D01*
X214550418Y-126675144D01*
X214550410Y-126675146D01*
X214117298Y-126766253D01*
X214117240Y-126766265D01*
X213716614Y-126850539D01*
X213716556Y-126850551D01*
X213440628Y-126908595D01*
X213440621Y-126908596D01*
X213267856Y-126944940D01*
X213267853Y-126944941D01*
X213026368Y-126995742D01*
X213026339Y-126995748D01*
X212811576Y-127040928D01*
X212811539Y-127040935D01*
X212736875Y-127056643D01*
X212735754Y-127051360D01*
X212735753Y-127051357D01*
X212735751Y-127051347D01*
X212721595Y-126984629D01*
X212721591Y-126984609D01*
X212711827Y-126938597D01*
X212711826Y-126938594D01*
X212696700Y-126867312D01*
X212696699Y-126867308D01*
X212675532Y-126767558D01*
X212675530Y-126767547D01*
X212653291Y-126662752D01*
X212653290Y-126662745D01*
X212635888Y-126580749D01*
X212635886Y-126580742D01*
X212624004Y-126524759D01*
X212623984Y-126524660D01*
X212605680Y-126438418D01*
X212605679Y-126438412D01*
X212580350Y-126319070D01*
X212580349Y-126319063D01*
X212554029Y-126195057D01*
X212554028Y-126195054D01*
X212512872Y-126001151D01*
X212512852Y-126001056D01*
X212454510Y-125726203D01*
X212454509Y-125726199D01*
X212392567Y-125434395D01*
X212392565Y-125434388D01*
X212343760Y-125204482D01*
X212343738Y-125204375D01*
X212310240Y-125046580D01*
X212310216Y-125046463D01*
X212275884Y-124884740D01*
X212275883Y-124884735D01*
X212240760Y-124719292D01*
X212240760Y-124719291D01*
X212186731Y-124464793D01*
X212186729Y-124464788D01*
X212111984Y-124112714D01*
X212111983Y-124112710D01*
X212034436Y-123747450D01*
X212034435Y-123747446D01*
X211991250Y-123544042D01*
X213455000Y-123544042D01*
X213455000Y-123875958D01*
X213519754Y-124201496D01*
X213646772Y-124508147D01*
X213831175Y-124784125D01*
X214065875Y-125018825D01*
X214341853Y-125203228D01*
X214648504Y-125330246D01*
X214974042Y-125395000D01*
X215305958Y-125395000D01*
X215631496Y-125330246D01*
X215938147Y-125203228D01*
X216214125Y-125018825D01*
X216448825Y-124784125D01*
X216633228Y-124508147D01*
X216760246Y-124201496D01*
X216825000Y-123875958D01*
X216825000Y-123544042D01*
X216760246Y-123218504D01*
X216633228Y-122911853D01*
X216448825Y-122635875D01*
X216214125Y-122401175D01*
X215938147Y-122216772D01*
X215631496Y-122089754D01*
X215305958Y-122025000D01*
X214974042Y-122025000D01*
X214648504Y-122089754D01*
X214341853Y-122216772D01*
X214065875Y-122401175D01*
X213831175Y-122635875D01*
X213646772Y-122911853D01*
X213519754Y-123218504D01*
X213455000Y-123544042D01*
X211991250Y-123544042D01*
X211954264Y-123369838D01*
X211954246Y-123369750D01*
X211871576Y-122980379D01*
X211871576Y-122980378D01*
X211807973Y-122680815D01*
X211807972Y-122680812D01*
X211764926Y-122478074D01*
X211764926Y-122478073D01*
X211699432Y-122169612D01*
X211699431Y-122169608D01*
X211610280Y-121749727D01*
X211610278Y-121749720D01*
X211542142Y-121428827D01*
X211542141Y-121428823D01*
X211496215Y-121212531D01*
X211496215Y-121212529D01*
X211426609Y-120884714D01*
X211426607Y-120884709D01*
X211332412Y-120441095D01*
X211332412Y-120441094D01*
X211236855Y-119991072D01*
X211236854Y-119991069D01*
X211140095Y-119535396D01*
X211140095Y-119535395D01*
X211042295Y-119074824D01*
X211042295Y-119074822D01*
X210943614Y-118610109D01*
X210881538Y-118317778D01*
X210881537Y-118317774D01*
X210856647Y-118200564D01*
X210819268Y-118024543D01*
X210819250Y-118024455D01*
X210744247Y-117671258D01*
X210744246Y-117671256D01*
X210643883Y-117198632D01*
X210643883Y-117198631D01*
X210543278Y-116724875D01*
X210543277Y-116724871D01*
X210442589Y-116250738D01*
X210341981Y-115776980D01*
X210341980Y-115776976D01*
X210241609Y-115304347D01*
X210241609Y-115304346D01*
X210141656Y-114833687D01*
X210141638Y-114833600D01*
X210042225Y-114365492D01*
X209943532Y-113900774D01*
X209943531Y-113900771D01*
X209845716Y-113440196D01*
X209748941Y-112984518D01*
X209748940Y-112984514D01*
X209605893Y-112310978D01*
X209605893Y-112310976D01*
X209489518Y-111763035D01*
X209489517Y-111763032D01*
X209443576Y-111546728D01*
X209375420Y-111225828D01*
X209375420Y-111225827D01*
X209286238Y-110805932D01*
X209286237Y-110805929D01*
X209220719Y-110497458D01*
X209177657Y-110294715D01*
X209177656Y-110294711D01*
X209114049Y-109995250D01*
X209114027Y-109995141D01*
X209031321Y-109605757D01*
X209031319Y-109605752D01*
X208970989Y-109321720D01*
X208970988Y-109321717D01*
X208931523Y-109135923D01*
X208931523Y-109135922D01*
X208873501Y-108862767D01*
X208873500Y-108862762D01*
X208798708Y-108510671D01*
X208798708Y-108510670D01*
X208726876Y-108172514D01*
X208726875Y-108172508D01*
X208658161Y-107849044D01*
X208658160Y-107849039D01*
X208608873Y-107617035D01*
X208608873Y-107617033D01*
X208577004Y-107467025D01*
X208577003Y-107467020D01*
X208530725Y-107249190D01*
X208530725Y-107249189D01*
X208472328Y-106974317D01*
X208472326Y-106974307D01*
X208417686Y-106717139D01*
X208417686Y-106717138D01*
X208417684Y-106717130D01*
X208366962Y-106478419D01*
X208366961Y-106478416D01*
X208366960Y-106478411D01*
X208331735Y-106312642D01*
X208331716Y-106312550D01*
X208309443Y-106207744D01*
X208309442Y-106207739D01*
X208288243Y-106107984D01*
X208288241Y-106107974D01*
X208268129Y-106013339D01*
X208268126Y-106013324D01*
X208249123Y-105923918D01*
X208249122Y-105923915D01*
X208248034Y-105918796D01*
X209015091Y-105755621D01*
X209015120Y-105755615D01*
X213505180Y-104800454D01*
X216276506Y-104210914D01*
X218215945Y-103798340D01*
X220180437Y-103380435D01*
X222119855Y-102967861D01*
X223984073Y-102571284D01*
X223984081Y-102571282D01*
X225297642Y-102291845D01*
X226126358Y-102115552D01*
X226126361Y-102115551D01*
X227286408Y-101868769D01*
X228305439Y-101651985D01*
X228305468Y-101651979D01*
X228908606Y-101523669D01*
X228908609Y-101523668D01*
X229439685Y-101410686D01*
X229892353Y-101314385D01*
X229892440Y-101314367D01*
X230260601Y-101236042D01*
X230260606Y-101236040D01*
X230260608Y-101236040D01*
X230537912Y-101177042D01*
X230636358Y-101156097D01*
X230642916Y-101154015D01*
X230643927Y-101153910D01*
X230646245Y-101153195D01*
X230653813Y-101152136D01*
X230662755Y-101149912D01*
X230675540Y-101146638D01*
X230720907Y-101130157D01*
X230767011Y-101115931D01*
X230775484Y-101112308D01*
X230810465Y-101097063D01*
X230817714Y-101093020D01*
X230825542Y-101090266D01*
X230873901Y-101061684D01*
X230922962Y-101034323D01*
X230929286Y-101028950D01*
X230936432Y-101024727D01*
X230943831Y-101019235D01*
X230972770Y-100997440D01*
X230976412Y-100994093D01*
X230980593Y-100991456D01*
X231023784Y-100950556D01*
X231067610Y-100910278D01*
X231070533Y-100906287D01*
X231074122Y-100902888D01*
X231080114Y-100895887D01*
X231103044Y-100868715D01*
X231106316Y-100863964D01*
X231110377Y-100859870D01*
X231142835Y-100810949D01*
X231176114Y-100762637D01*
X231178399Y-100757348D01*
X231181591Y-100752536D01*
X231185854Y-100744367D01*
X231203012Y-100710929D01*
X231207526Y-100699507D01*
X231213782Y-100688944D01*
X231231162Y-100639694D01*
X231250352Y-100591134D01*
X231252560Y-100579061D01*
X231256648Y-100567476D01*
X231258789Y-100558513D01*
X231268194Y-100517897D01*
X231271262Y-100494390D01*
X231277207Y-100471453D01*
X231279580Y-100430676D01*
X231284867Y-100390171D01*
X231283312Y-100366525D01*
X231284689Y-100342861D01*
X231284260Y-100333655D01*
X231281679Y-100285540D01*
X231274646Y-100239425D01*
X231270115Y-100192991D01*
X231268266Y-100183963D01*
X231263962Y-100163669D01*
X231263961Y-100163665D01*
X231254518Y-100119123D01*
X231238578Y-100043929D01*
X231238577Y-100043926D01*
X231220185Y-99957160D01*
X231220184Y-99957157D01*
X231206806Y-99894039D01*
X231206806Y-99894038D01*
X231185092Y-99791586D01*
X231152780Y-99639123D01*
X231116930Y-99469956D01*
X231077666Y-99284681D01*
X231077666Y-99284680D01*
X231035124Y-99083923D01*
X231035123Y-99083919D01*
X230989426Y-98868270D01*
X230989425Y-98868268D01*
X230940702Y-98638336D01*
X230889084Y-98394737D01*
X230889082Y-98394731D01*
X230834698Y-98138074D01*
X230748520Y-97731358D01*
X230748519Y-97731356D01*
X230624690Y-97146944D01*
X230492110Y-96521217D01*
X230492109Y-96521213D01*
X230351831Y-95859146D01*
X230351809Y-95859038D01*
X230204815Y-95165266D01*
X230204814Y-95165264D01*
X230052159Y-94444767D01*
X230052158Y-94444765D01*
X229934450Y-93889206D01*
X229934449Y-93889204D01*
X229854841Y-93513466D01*
X229854840Y-93513464D01*
X229734004Y-92943134D01*
X229733982Y-92943026D01*
X229488276Y-91783318D01*
X229488275Y-91783316D01*
X229157242Y-90220866D01*
X228830337Y-88677891D01*
X228830336Y-88677887D01*
X228362657Y-86470437D01*
X228362656Y-86470435D01*
X227965118Y-84594042D01*
X228465000Y-84594042D01*
X228465000Y-84925958D01*
X228529754Y-85251496D01*
X228656772Y-85558147D01*
X228841175Y-85834125D01*
X229075875Y-86068825D01*
X229351853Y-86253228D01*
X229658504Y-86380246D01*
X229984042Y-86445000D01*
X230315958Y-86445000D01*
X230641496Y-86380246D01*
X230948147Y-86253228D01*
X231224125Y-86068825D01*
X231458825Y-85834125D01*
X231643228Y-85558147D01*
X231770246Y-85251496D01*
X231835000Y-84925958D01*
X231835000Y-84594042D01*
X231770246Y-84268504D01*
X231643228Y-83961853D01*
X231458825Y-83685875D01*
X231224125Y-83451175D01*
X230948147Y-83266772D01*
X230641496Y-83139754D01*
X230315958Y-83075000D01*
X229984042Y-83075000D01*
X229658504Y-83139754D01*
X229351853Y-83266772D01*
X229075875Y-83451175D01*
X228841175Y-83685875D01*
X228656772Y-83961853D01*
X228529754Y-84268504D01*
X228465000Y-84594042D01*
X227965118Y-84594042D01*
X227832491Y-83968042D01*
X227546119Y-82616361D01*
X227481049Y-82309233D01*
X227537404Y-82297043D01*
X227537430Y-82297038D01*
X227735667Y-82254164D01*
X227735685Y-82254160D01*
X228026800Y-82191200D01*
X228026819Y-82191196D01*
X228340924Y-82123266D01*
X228340927Y-82123265D01*
X228671377Y-82051803D01*
X228671436Y-82051791D01*
X228926297Y-81996675D01*
X228926304Y-81996673D01*
X229097596Y-81959632D01*
X229097704Y-81959609D01*
X229355445Y-81903874D01*
X229355448Y-81903873D01*
X229695832Y-81830265D01*
X229695833Y-81830265D01*
X230188383Y-81723755D01*
X230188385Y-81723754D01*
X230770816Y-81597809D01*
X231222100Y-81500223D01*
X231373416Y-81467502D01*
X231380182Y-81465329D01*
X231381419Y-81465195D01*
X231383908Y-81464415D01*
X231391559Y-81463310D01*
X231400492Y-81461046D01*
X231413033Y-81457775D01*
X231458297Y-81441105D01*
X231504335Y-81426678D01*
X231512792Y-81423018D01*
X231547601Y-81407666D01*
X231554328Y-81403875D01*
X231561604Y-81401294D01*
X231610392Y-81372286D01*
X231659823Y-81344434D01*
X231665684Y-81339411D01*
X231672322Y-81335464D01*
X231679707Y-81329952D01*
X231708189Y-81308384D01*
X231711566Y-81305264D01*
X231715453Y-81302804D01*
X231758855Y-81261573D01*
X231802800Y-81220973D01*
X231805507Y-81217256D01*
X231808842Y-81214088D01*
X231814823Y-81207078D01*
X231837921Y-81179618D01*
X231841089Y-81175003D01*
X231845027Y-81171024D01*
X231877525Y-81121929D01*
X231910824Y-81073424D01*
X231913034Y-81068285D01*
X231916126Y-81063614D01*
X231920381Y-81055440D01*
X231937389Y-81022206D01*
X231941908Y-81010734D01*
X231948174Y-81000126D01*
X231965479Y-80950901D01*
X231984601Y-80902361D01*
X231986804Y-80890242D01*
X231990894Y-80878607D01*
X231993024Y-80869641D01*
X232002472Y-80828614D01*
X232005517Y-80805066D01*
X232011442Y-80782078D01*
X232013758Y-80741334D01*
X232018991Y-80700868D01*
X232017405Y-80677187D01*
X232018753Y-80653476D01*
X232018311Y-80644271D01*
X232015691Y-80596614D01*
X232008638Y-80550777D01*
X232004110Y-80504615D01*
X232002256Y-80495588D01*
X231997849Y-80474861D01*
X231988152Y-80429239D01*
X231988152Y-80429238D01*
X231974520Y-80365086D01*
X231965619Y-80323186D01*
X231946146Y-80231523D01*
X231924190Y-80128153D01*
X231924189Y-80128149D01*
X231908422Y-80053906D01*
X231891701Y-79975166D01*
X231891699Y-79975158D01*
X231874039Y-79891999D01*
X231855463Y-79804515D01*
X231855461Y-79804509D01*
X231840908Y-79735971D01*
X231840907Y-79735969D01*
X231830973Y-79689181D01*
X231830948Y-79689061D01*
X231815619Y-79616863D01*
X231815617Y-79616855D01*
X231794383Y-79516848D01*
X231761048Y-79359829D01*
X231725643Y-79193061D01*
X231701103Y-79077471D01*
X231662927Y-78897637D01*
X231662927Y-78897636D01*
X231622851Y-78708853D01*
X231622851Y-78708852D01*
X231595280Y-78578967D01*
X231566990Y-78445694D01*
X231566990Y-78445693D01*
X231538000Y-78309122D01*
X231538000Y-78309121D01*
X231493324Y-78098647D01*
X231431350Y-77806670D01*
X231366903Y-77503039D01*
X231366881Y-77502931D01*
X231316901Y-77267454D01*
X231316900Y-77267450D01*
X231282938Y-77107440D01*
X231282922Y-77107361D01*
X231230995Y-76862703D01*
X231230994Y-76862699D01*
X231159848Y-76527486D01*
X231086747Y-76183050D01*
X231086745Y-76183042D01*
X231011822Y-75830027D01*
X231011822Y-75830026D01*
X230896534Y-75286803D01*
X230896506Y-75286666D01*
X230777476Y-74725813D01*
X230696636Y-74344894D01*
X230696620Y-74344815D01*
X230573344Y-73763928D01*
X230573343Y-73763924D01*
X230405559Y-72973301D01*
X230405558Y-72973297D01*
X230277855Y-72371532D01*
X230277833Y-72371424D01*
X230192118Y-71967518D01*
X230106069Y-71562026D01*
X230106068Y-71562024D01*
X230019817Y-71155575D01*
X229890337Y-70545415D01*
X229718252Y-69734483D01*
X229718236Y-69734404D01*
X229590239Y-69131221D01*
X229505604Y-68732381D01*
X229505603Y-68732377D01*
X229379968Y-68140317D01*
X229379967Y-68140315D01*
X229215961Y-67367415D01*
X229215960Y-67367413D01*
X229056808Y-66617386D01*
X228903589Y-65895320D01*
X228903587Y-65895314D01*
X228757385Y-65206300D01*
X228619289Y-64555490D01*
X228619273Y-64555411D01*
X228490332Y-63947736D01*
X228490331Y-63947734D01*
X228371641Y-63388366D01*
X228371640Y-63388364D01*
X228290378Y-63005384D01*
X228239734Y-62766697D01*
X228239734Y-62766696D01*
X228169329Y-62434879D01*
X228169328Y-62434875D01*
X228107353Y-62142785D01*
X228070196Y-61967657D01*
X228070195Y-61967652D01*
X228020969Y-61735634D01*
X228020968Y-61735632D01*
X227981518Y-61549687D01*
X227960008Y-61448294D01*
X227960007Y-61448291D01*
X227951019Y-61405922D01*
X227948765Y-61398807D01*
X227947769Y-61391408D01*
X227945592Y-61382454D01*
X227942170Y-61368799D01*
X227925178Y-61321260D01*
X227910204Y-61273012D01*
X227906567Y-61264545D01*
X227890938Y-61228844D01*
X227886194Y-61220370D01*
X227882917Y-61211230D01*
X227854769Y-61164240D01*
X227828013Y-61116450D01*
X227821716Y-61109062D01*
X227816724Y-61100729D01*
X227811188Y-61093362D01*
X227789208Y-61064533D01*
X227784705Y-61059691D01*
X227781119Y-61054141D01*
X227740870Y-61012558D01*
X227701486Y-60970210D01*
X227696136Y-60966340D01*
X227691534Y-60961586D01*
X227684468Y-60955671D01*
X227656919Y-60932934D01*
X227652402Y-60929895D01*
X227648506Y-60926107D01*
X227599022Y-60893979D01*
X227550047Y-60861028D01*
X227545033Y-60858927D01*
X227540469Y-60855964D01*
X227532258Y-60851782D01*
X227500603Y-60835935D01*
X227489994Y-60831864D01*
X227480180Y-60826146D01*
X227429946Y-60808822D01*
X227380343Y-60789788D01*
X227369152Y-60787856D01*
X227358408Y-60784151D01*
X227349430Y-60782074D01*
X227307662Y-60772717D01*
X227284454Y-60769856D01*
X227261790Y-60764132D01*
X227220677Y-60761995D01*
X227179820Y-60756959D01*
X227156508Y-60758660D01*
X227133153Y-60757446D01*
X227123951Y-60757933D01*
X227076300Y-60760785D01*
X227032049Y-60767814D01*
X226987443Y-60772194D01*
X226978416Y-60774049D01*
X226951553Y-60779763D01*
X226891086Y-60792625D01*
X226822771Y-60807156D01*
X226822750Y-60807160D01*
X226746826Y-60823309D01*
X226746805Y-60823313D01*
X226620051Y-60850272D01*
X226620049Y-60850273D01*
X226425674Y-60891614D01*
X226425604Y-60891628D01*
X226205356Y-60938469D01*
X226205354Y-60938470D01*
X225961405Y-60990351D01*
X225961384Y-60990355D01*
X225695849Y-61046825D01*
X225695741Y-61046847D01*
X225410495Y-61107508D01*
X225410491Y-61107509D01*
X224952216Y-61204966D01*
X224952195Y-61204970D01*
X224288847Y-61346033D01*
X224288843Y-61346034D01*
X223851100Y-61439120D01*
X223851041Y-61439132D01*
X223672952Y-61477003D01*
X223672950Y-61477004D01*
X223402999Y-61534409D01*
X223402920Y-61534425D01*
X222854857Y-61650969D01*
X222854853Y-61650970D01*
X222117226Y-61807822D01*
X222117222Y-61807823D01*
X221387930Y-61962901D01*
X221387851Y-61962917D01*
X220683234Y-62112746D01*
X220683230Y-62112747D01*
X220019890Y-62253797D01*
X220019886Y-62253798D01*
X219414319Y-62382560D01*
X219414315Y-62382561D01*
X219010696Y-62468382D01*
X219010694Y-62468383D01*
X218766745Y-62520253D01*
X218766724Y-62520257D01*
X218599990Y-62555708D01*
X218599988Y-62555709D01*
X218496185Y-62577779D01*
X218481648Y-62580870D01*
X218452668Y-62445059D01*
X218452667Y-62445052D01*
X218373752Y-62075248D01*
X218373751Y-62075244D01*
X218281899Y-61644831D01*
X218281898Y-61644828D01*
X218204794Y-61283531D01*
X218204794Y-61283530D01*
X218150136Y-61027413D01*
X218150135Y-61027410D01*
X218092847Y-60758976D01*
X218092825Y-60758869D01*
X218032992Y-60478508D01*
X218032990Y-60478503D01*
X217970764Y-60186933D01*
X217970764Y-60186932D01*
X217906273Y-59884753D01*
X217906273Y-59884752D01*
X217805818Y-59414059D01*
X217805818Y-59414058D01*
X217664805Y-58753334D01*
X217664803Y-58753329D01*
X217441640Y-57707699D01*
X217441640Y-57707698D01*
X217125460Y-56226250D01*
X216796861Y-54686622D01*
X216796861Y-54686621D01*
X216297751Y-52348099D01*
X216297749Y-52348091D01*
X215665418Y-49385393D01*
X215665390Y-49385257D01*
X215257358Y-47473470D01*
X215082838Y-46655774D01*
X215082837Y-46655772D01*
X214979084Y-46169642D01*
X214979083Y-46169640D01*
X214887232Y-45739272D01*
X214887231Y-45739270D01*
X214808318Y-45369514D01*
X214808318Y-45369513D01*
X214743378Y-45065222D01*
X214743377Y-45065220D01*
X214704956Y-44885186D01*
X214704954Y-44885181D01*
X214688940Y-44810137D01*
X214675123Y-44745380D01*
X214671857Y-44735112D01*
X214671427Y-44731310D01*
X214671155Y-44730455D01*
X214670241Y-44724213D01*
X214667960Y-44715285D01*
X214664281Y-44701291D01*
X214647241Y-44655303D01*
X214632369Y-44608565D01*
X214628672Y-44600124D01*
X214613236Y-44565538D01*
X214609642Y-44559225D01*
X214607195Y-44552393D01*
X214577810Y-44503308D01*
X214549510Y-44453596D01*
X214544764Y-44448107D01*
X214541032Y-44441874D01*
X214535498Y-44434505D01*
X214513774Y-44405996D01*
X214510686Y-44402674D01*
X214508252Y-44398852D01*
X214466869Y-44355535D01*
X214426077Y-44311649D01*
X214422406Y-44308992D01*
X214419273Y-44305713D01*
X214412246Y-44299752D01*
X214384957Y-44276928D01*
X214380248Y-44273715D01*
X214376181Y-44269715D01*
X214327078Y-44237433D01*
X214278558Y-44204324D01*
X214273314Y-44202086D01*
X214268548Y-44198953D01*
X214260361Y-44194724D01*
X214227168Y-44177868D01*
X214215007Y-44173121D01*
X214203733Y-44166543D01*
X214155100Y-44149737D01*
X214107175Y-44131031D01*
X214094328Y-44128737D01*
X214081987Y-44124473D01*
X214073010Y-44122391D01*
X214031916Y-44113158D01*
X214008042Y-44110200D01*
X213984711Y-44104343D01*
X213944270Y-44102299D01*
X213904083Y-44097320D01*
X213880094Y-44099055D01*
X213856066Y-44097841D01*
X213846864Y-44098341D01*
X213799627Y-44101236D01*
X213756119Y-44108210D01*
X213712261Y-44112479D01*
X213703232Y-44114326D01*
X213640838Y-44127543D01*
X213640792Y-44127552D01*
X213480679Y-44161470D01*
X213480672Y-44161472D01*
X213480673Y-44161472D01*
X213279528Y-44204084D01*
X213279470Y-44204096D01*
X213038525Y-44255140D01*
X213038523Y-44255141D01*
X213038521Y-44255141D01*
X212293122Y-44413057D01*
X212293014Y-44413079D01*
X210615198Y-44768531D01*
X210615190Y-44768533D01*
X208463166Y-45224453D01*
X206579733Y-45623470D01*
X206579704Y-45623476D01*
X205228864Y-45909661D01*
X203081364Y-46364626D01*
X198452322Y-47345326D01*
X198452293Y-47345332D01*
X188763265Y-49398034D01*
X180799204Y-51085287D01*
X177444530Y-51796002D01*
X177231722Y-51841087D01*
X177227570Y-51821858D01*
X177227567Y-51821843D01*
X177214073Y-51759354D01*
X177214070Y-51759342D01*
X177200129Y-51694789D01*
X177200125Y-51694768D01*
X177185758Y-51628253D01*
X177170989Y-51559877D01*
X177170988Y-51559873D01*
X177155838Y-51489735D01*
X177155836Y-51489729D01*
X177155834Y-51489719D01*
X177132481Y-51381617D01*
X177132478Y-51381602D01*
X177114392Y-51297891D01*
X177114391Y-51297888D01*
X177104208Y-51250757D01*
X177104208Y-51250756D01*
X177091849Y-51193552D01*
X177091847Y-51193542D01*
X177075115Y-51116106D01*
X177075115Y-51116105D01*
X177075112Y-51116092D01*
X177058146Y-51037579D01*
X177058130Y-51037501D01*
X177032259Y-50917775D01*
X177032258Y-50917771D01*
X177032255Y-50917758D01*
X176997045Y-50754834D01*
X176997044Y-50754828D01*
X176961223Y-50589084D01*
X176961222Y-50589078D01*
X176924968Y-50421342D01*
X176924962Y-50421311D01*
X176888440Y-50252343D01*
X176888438Y-50252336D01*
X176851842Y-50083034D01*
X176851825Y-50082953D01*
X176815297Y-49913980D01*
X176815295Y-49913975D01*
X176779048Y-49746301D01*
X176779027Y-49746202D01*
X176743192Y-49580447D01*
X176743192Y-49580446D01*
X176743190Y-49580438D01*
X176707961Y-49417496D01*
X176707961Y-49417495D01*
X176707959Y-49417487D01*
X176673510Y-49258163D01*
X176673509Y-49258160D01*
X176640016Y-49103262D01*
X176640015Y-49103257D01*
X176615666Y-48990653D01*
X176615664Y-48990647D01*
X176599800Y-48917281D01*
X176599800Y-48917280D01*
X176599798Y-48917272D01*
X176576616Y-48810071D01*
X176576589Y-48809941D01*
X176547006Y-48673148D01*
X176547003Y-48673138D01*
X176519091Y-48544080D01*
X176519070Y-48543980D01*
X176492964Y-48423280D01*
X176492963Y-48423277D01*
X176492962Y-48423272D01*
X176468856Y-48311826D01*
X176468855Y-48311822D01*
X176468852Y-48311809D01*
X176446920Y-48210421D01*
X176446918Y-48210413D01*
X176446916Y-48210406D01*
X176432101Y-48141931D01*
X176432074Y-48141801D01*
X176422901Y-48099405D01*
X176422900Y-48099402D01*
X176422899Y-48099397D01*
X176402852Y-48006749D01*
X176400315Y-47998853D01*
X176399155Y-47990642D01*
X176396919Y-47981703D01*
X176393722Y-47969291D01*
X176377426Y-47924626D01*
X176363438Y-47879169D01*
X176359822Y-47870693D01*
X176344652Y-47835812D01*
X176340892Y-47829057D01*
X176338348Y-47821770D01*
X176309608Y-47772863D01*
X176281998Y-47723267D01*
X176277003Y-47717378D01*
X176273088Y-47710716D01*
X176267614Y-47703303D01*
X176246053Y-47674525D01*
X176242243Y-47670359D01*
X176239237Y-47665588D01*
X176198810Y-47622862D01*
X176159128Y-47579467D01*
X176154588Y-47576125D01*
X176150707Y-47572023D01*
X176143708Y-47566028D01*
X176116005Y-47542631D01*
X176110416Y-47538778D01*
X176105591Y-47534018D01*
X176057432Y-47502250D01*
X176009955Y-47469519D01*
X176003736Y-47466830D01*
X175998068Y-47463091D01*
X175989887Y-47458849D01*
X175956647Y-47441905D01*
X175944225Y-47437034D01*
X175932711Y-47430306D01*
X175884360Y-47413562D01*
X175836726Y-47394885D01*
X175823602Y-47392521D01*
X175810994Y-47388155D01*
X175802018Y-47386066D01*
X175760962Y-47376813D01*
X175736476Y-47373763D01*
X175712552Y-47367787D01*
X175672721Y-47365821D01*
X175633140Y-47360891D01*
X175608540Y-47362654D01*
X175583899Y-47361438D01*
X175574698Y-47361948D01*
X175526970Y-47364930D01*
X175483044Y-47372025D01*
X175438760Y-47376448D01*
X175429737Y-47378318D01*
X175409499Y-47382658D01*
X175409497Y-47382659D01*
X175409476Y-47382663D01*
X175353001Y-47394776D01*
X175353000Y-47394776D01*
X175352968Y-47394783D01*
X175290014Y-47408289D01*
X175290013Y-47408289D01*
X175173192Y-47433350D01*
X175173191Y-47433350D01*
X175173183Y-47433352D01*
X175038596Y-47462226D01*
X175038508Y-47462244D01*
X174806413Y-47512038D01*
X174806410Y-47512039D01*
X174437305Y-47591229D01*
X174437276Y-47591235D01*
X174007693Y-47683401D01*
X174007664Y-47683407D01*
X173522412Y-47787518D01*
X173522409Y-47787519D01*
X172986354Y-47902532D01*
X172404335Y-48027407D01*
X171781213Y-48161101D01*
X171781184Y-48161107D01*
X171121746Y-48302595D01*
X171121744Y-48302596D01*
X170078151Y-48526506D01*
X170078144Y-48526508D01*
X167840945Y-49006519D01*
X164728890Y-49674236D01*
X164728888Y-49674237D01*
X162491520Y-50154279D01*
X161109559Y-50450787D01*
X161109557Y-50450788D01*
X159863078Y-50718225D01*
X159863029Y-50718235D01*
X159046630Y-50893393D01*
X158561239Y-50997533D01*
X158561220Y-50997537D01*
X158235250Y-51067471D01*
X158235246Y-51067472D01*
X158035171Y-51110396D01*
X158035169Y-51110397D01*
X157762109Y-51168977D01*
X157762105Y-51168978D01*
X157628372Y-51197668D01*
X157616578Y-51142265D01*
X157616577Y-51142260D01*
X157595723Y-51044298D01*
X157595722Y-51044295D01*
X157595721Y-51044290D01*
X157577641Y-50959365D01*
X157577641Y-50959364D01*
X157559035Y-50871967D01*
X157559007Y-50871832D01*
X157527907Y-50725768D01*
X157527899Y-50725727D01*
X157495479Y-50573473D01*
X157495477Y-50573468D01*
X157444880Y-50335847D01*
X157444879Y-50335844D01*
X157444878Y-50335839D01*
X157374259Y-50004216D01*
X157374258Y-50004210D01*
X157301538Y-49662734D01*
X157301536Y-49662727D01*
X157246469Y-49404159D01*
X157246469Y-49404158D01*
X157209845Y-49232190D01*
X157209844Y-49232188D01*
X157155392Y-48976507D01*
X157155392Y-48976505D01*
X157084772Y-48644915D01*
X157084770Y-48644909D01*
X157017673Y-48329852D01*
X157017659Y-48329783D01*
X156955450Y-48037663D01*
X156913085Y-47838720D01*
X156913083Y-47838713D01*
X156886974Y-47716101D01*
X156862890Y-47602987D01*
X156862878Y-47602929D01*
X156846303Y-47525088D01*
X156846301Y-47525082D01*
X156835958Y-47476499D01*
X156835938Y-47476399D01*
X156821435Y-47408269D01*
X156821434Y-47408267D01*
X156808518Y-47347591D01*
X156808517Y-47347588D01*
X156797064Y-47293770D01*
X156795199Y-47287895D01*
X156794396Y-47281781D01*
X156792248Y-47272820D01*
X156789235Y-47260626D01*
X156773034Y-47214827D01*
X156759055Y-47168293D01*
X156755495Y-47159793D01*
X156740465Y-47124592D01*
X156736128Y-47116676D01*
X156733177Y-47108147D01*
X156705215Y-47060261D01*
X156678567Y-47011629D01*
X156672776Y-47004708D01*
X156668224Y-46996913D01*
X156662770Y-46989484D01*
X156641346Y-46960724D01*
X156637750Y-46956769D01*
X156634915Y-46952234D01*
X156594435Y-46909137D01*
X156554685Y-46865425D01*
X156550390Y-46862245D01*
X156546728Y-46858346D01*
X156539751Y-46852326D01*
X156512609Y-46829232D01*
X156507689Y-46825813D01*
X156503448Y-46821579D01*
X156454817Y-46789077D01*
X156406828Y-46755732D01*
X156401342Y-46753336D01*
X156396355Y-46750003D01*
X156388200Y-46745712D01*
X156355053Y-46728561D01*
X156341531Y-46723164D01*
X156328990Y-46715796D01*
X156281834Y-46699340D01*
X156235419Y-46680816D01*
X156221114Y-46678150D01*
X156207373Y-46673355D01*
X156198403Y-46671245D01*
X156155690Y-46661512D01*
X156130477Y-46658310D01*
X156105822Y-46652149D01*
X156066727Y-46650215D01*
X156027907Y-46645286D01*
X156002561Y-46647042D01*
X155977169Y-46645786D01*
X155967968Y-46646296D01*
X155920782Y-46649239D01*
X155877437Y-46656236D01*
X155833730Y-46660517D01*
X155824703Y-46662369D01*
X155738650Y-46680652D01*
X155738645Y-46680654D01*
X155738638Y-46680655D01*
X155567438Y-46717032D01*
X155567334Y-46717053D01*
X155432187Y-46745772D01*
X155432180Y-46745774D01*
X155432181Y-46745774D01*
X155199272Y-46795270D01*
X155199243Y-46795276D01*
X154828819Y-46873996D01*
X154828731Y-46874014D01*
X154397487Y-46965661D01*
X154397485Y-46965662D01*
X153910365Y-47069183D01*
X153910356Y-47069186D01*
X153091009Y-47243317D01*
X153091001Y-47243319D01*
X151839848Y-47509223D01*
X151839819Y-47509229D01*
X150452619Y-47804049D01*
X150452590Y-47804055D01*
X148968199Y-48119534D01*
X147425515Y-48447404D01*
X147425507Y-48447406D01*
X145082369Y-48945402D01*
X142113744Y-49576336D01*
X139611684Y-50108110D01*
X137953769Y-50460475D01*
X137915616Y-50282508D01*
X137915594Y-50282400D01*
X137872183Y-50079901D01*
X137841235Y-49935528D01*
X137841234Y-49935526D01*
X137808640Y-49783472D01*
X137808639Y-49783469D01*
X137774475Y-49624084D01*
X137774475Y-49624083D01*
X137738810Y-49457696D01*
X137701721Y-49284660D01*
X137643730Y-49014100D01*
X137643729Y-49014096D01*
X137561874Y-48632197D01*
X137561873Y-48632193D01*
X137475632Y-48229826D01*
X137385591Y-47809716D01*
X137385590Y-47809712D01*
X137292354Y-47374689D01*
X137292334Y-47374594D01*
X137147915Y-46700758D01*
X137050031Y-46244042D01*
X189165000Y-46244042D01*
X189165000Y-46575958D01*
X189229754Y-46901496D01*
X189356772Y-47208147D01*
X189541175Y-47484125D01*
X189775875Y-47718825D01*
X190051853Y-47903228D01*
X190358504Y-48030246D01*
X190684042Y-48095000D01*
X191015958Y-48095000D01*
X191341496Y-48030246D01*
X191648147Y-47903228D01*
X191924125Y-47718825D01*
X192158825Y-47484125D01*
X192343228Y-47208147D01*
X192470246Y-46901496D01*
X192535000Y-46575958D01*
X192535000Y-46244042D01*
X192470246Y-45918504D01*
X192343228Y-45611853D01*
X192158825Y-45335875D01*
X191924125Y-45101175D01*
X191648147Y-44916772D01*
X191341496Y-44789754D01*
X191015958Y-44725000D01*
X190684042Y-44725000D01*
X190358504Y-44789754D01*
X190051853Y-44916772D01*
X189775875Y-45101175D01*
X189541175Y-45335875D01*
X189356772Y-45611853D01*
X189229754Y-45918504D01*
X189165000Y-46244042D01*
X137050031Y-46244042D01*
X136949118Y-45773199D01*
X136747982Y-44834728D01*
X136747981Y-44834725D01*
X136598590Y-44137701D01*
X136598590Y-44137700D01*
X136500653Y-43680752D01*
X136500653Y-43680751D01*
X136404763Y-43233359D01*
X136404761Y-43233354D01*
X136311522Y-42798335D01*
X136311504Y-42798247D01*
X136221462Y-42378154D01*
X136221461Y-42378151D01*
X136135220Y-41975802D01*
X136135219Y-41975797D01*
X136053363Y-41593921D01*
X136053361Y-41593914D01*
X135976475Y-41235242D01*
X135976474Y-41235237D01*
X135922611Y-40983976D01*
X135922610Y-40983972D01*
X135896907Y-40864078D01*
X135896889Y-40863989D01*
X135880194Y-40786114D01*
X135880193Y-40786112D01*
X135855866Y-40672637D01*
X135855850Y-40672558D01*
X135832534Y-40563796D01*
X135832533Y-40563793D01*
X135832531Y-40563783D01*
X135817481Y-40493586D01*
X135817480Y-40493583D01*
X135802864Y-40425412D01*
X135802863Y-40425408D01*
X135788714Y-40359419D01*
X135788690Y-40359301D01*
X135768222Y-40263846D01*
X135768220Y-40263836D01*
X135742642Y-40144553D01*
X135742641Y-40144547D01*
X135719001Y-40034307D01*
X135719001Y-40034306D01*
X135718999Y-40034298D01*
X135702649Y-39958059D01*
X135702646Y-39958044D01*
X135692347Y-39910025D01*
X135692345Y-39910015D01*
X135677817Y-39842283D01*
X135677816Y-39842279D01*
X135677812Y-39842261D01*
X135664631Y-39780820D01*
X135664630Y-39780817D01*
X135648908Y-39707533D01*
X135648907Y-39707530D01*
X135648901Y-39707501D01*
X135638629Y-39659633D01*
X135636869Y-39654123D01*
X135636864Y-39654071D01*
X135635897Y-39650927D01*
X135634695Y-39642424D01*
X135632459Y-39633485D01*
X135629262Y-39621073D01*
X135612967Y-39576410D01*
X135598981Y-39530958D01*
X135595364Y-39522482D01*
X135580194Y-39487600D01*
X135575799Y-39479704D01*
X135572788Y-39471187D01*
X135544510Y-39423499D01*
X135517542Y-39375054D01*
X135511699Y-39368165D01*
X135507089Y-39360391D01*
X135501586Y-39353000D01*
X135479113Y-39323250D01*
X135474952Y-39318736D01*
X135471653Y-39313563D01*
X135431331Y-39271410D01*
X135391813Y-39228536D01*
X135386860Y-39224920D01*
X135382615Y-39220482D01*
X135375584Y-39214525D01*
X135348295Y-39191732D01*
X135343592Y-39188528D01*
X135339538Y-39184545D01*
X135290418Y-39152293D01*
X135241849Y-39119197D01*
X135236620Y-39116970D01*
X135231864Y-39113847D01*
X135223674Y-39109623D01*
X135190481Y-39092792D01*
X135178417Y-39088091D01*
X135167233Y-39081570D01*
X135118500Y-39064745D01*
X135070460Y-39046027D01*
X135057714Y-39043759D01*
X135045475Y-39039534D01*
X135036498Y-39037454D01*
X134995403Y-39028233D01*
X134971795Y-39025315D01*
X134948721Y-39019509D01*
X134908008Y-39017430D01*
X134867566Y-39012431D01*
X134843844Y-39014154D01*
X134820079Y-39012940D01*
X134810877Y-39013435D01*
X134763640Y-39016305D01*
X134720082Y-39023264D01*
X134676165Y-39027522D01*
X134667136Y-39029366D01*
X134581413Y-39047491D01*
X134581384Y-39047497D01*
X134410701Y-39083586D01*
X134410698Y-39083587D01*
X134276043Y-39112057D01*
X134276041Y-39112058D01*
X134043943Y-39161130D01*
X134043940Y-39161131D01*
X133674802Y-39239174D01*
X133674773Y-39239180D01*
X133245090Y-39330024D01*
X132884454Y-39406267D01*
X132884396Y-39406279D01*
X132693453Y-39446647D01*
X132693416Y-39446655D01*
X132562438Y-39474347D01*
X132223536Y-39545996D01*
X131641351Y-39669078D01*
X131641349Y-39669079D01*
X131018014Y-39800859D01*
X131018012Y-39800860D01*
X130358476Y-39940293D01*
X130358368Y-39940315D01*
X129314455Y-40161008D01*
X129314426Y-40161014D01*
X127076444Y-40634147D01*
X127076442Y-40634148D01*
X124741577Y-41127760D01*
X123586219Y-41372014D01*
X122829686Y-41531954D01*
X122090088Y-41688313D01*
X121372294Y-41840063D01*
X121372265Y-41840069D01*
X120681113Y-41986187D01*
X120681055Y-41986199D01*
X120021303Y-42125681D01*
X120021297Y-42125683D01*
X119397927Y-42257475D01*
X119397848Y-42257491D01*
X118815528Y-42380603D01*
X118815525Y-42380604D01*
X118279183Y-42493998D01*
X117911743Y-42571682D01*
X117911706Y-42571690D01*
X117682557Y-42620139D01*
X117682555Y-42620140D01*
X117363872Y-42687518D01*
X117363785Y-42687536D01*
X117082830Y-42746939D01*
X117082822Y-42746941D01*
X116914169Y-42782601D01*
X116914167Y-42782602D01*
X116914165Y-42782602D01*
X116859911Y-42794074D01*
X116855787Y-42774509D01*
X116855785Y-42774502D01*
X116845981Y-42727987D01*
X116834213Y-42672123D01*
X116834212Y-42672120D01*
X116819450Y-42602040D01*
X116819449Y-42602037D01*
X116804489Y-42530990D01*
X116804468Y-42530889D01*
X116793105Y-42476918D01*
X116793104Y-42476916D01*
X116777836Y-42404383D01*
X116758645Y-42313192D01*
X116758645Y-42313191D01*
X116747114Y-42258394D01*
X116747113Y-42258390D01*
X116731768Y-42185458D01*
X116716507Y-42112916D01*
X116701390Y-42041046D01*
X116679060Y-41934873D01*
X116679060Y-41934872D01*
X116657426Y-41832003D01*
X116643424Y-41765415D01*
X116643423Y-41765412D01*
X116623155Y-41669022D01*
X116623153Y-41669017D01*
X116623152Y-41669010D01*
X116597977Y-41549296D01*
X116597976Y-41549290D01*
X116580782Y-41467529D01*
X116580761Y-41467427D01*
X116570091Y-41416695D01*
X116570091Y-41416694D01*
X116570088Y-41416681D01*
X116560168Y-41369520D01*
X116560166Y-41369513D01*
X116560163Y-41369499D01*
X116546848Y-41306208D01*
X116543949Y-41297004D01*
X116543628Y-41294037D01*
X116543052Y-41292197D01*
X116542016Y-41284981D01*
X116539760Y-41276046D01*
X116536305Y-41262754D01*
X116519610Y-41217306D01*
X116505149Y-41171108D01*
X116501492Y-41162650D01*
X116486083Y-41127682D01*
X116482451Y-41121232D01*
X116479986Y-41114255D01*
X116450881Y-41065160D01*
X116422886Y-41015440D01*
X116418073Y-41009821D01*
X116414298Y-41003453D01*
X116408796Y-40996061D01*
X116387154Y-40967405D01*
X116384224Y-40964225D01*
X116381923Y-40960573D01*
X116340619Y-40916907D01*
X116299864Y-40872682D01*
X116296376Y-40870135D01*
X116293407Y-40866996D01*
X116286409Y-40861000D01*
X116259286Y-40838086D01*
X116254653Y-40834891D01*
X116250666Y-40830929D01*
X116201663Y-40798348D01*
X116153247Y-40764958D01*
X116148091Y-40762728D01*
X116143402Y-40759610D01*
X116135236Y-40755338D01*
X116101997Y-40738241D01*
X116089322Y-40733218D01*
X116077583Y-40726314D01*
X116029556Y-40709532D01*
X115982248Y-40690784D01*
X115968851Y-40688321D01*
X115955982Y-40683824D01*
X115947013Y-40681711D01*
X115905466Y-40672226D01*
X115881135Y-40669126D01*
X115857366Y-40663108D01*
X115817398Y-40661007D01*
X115777689Y-40655948D01*
X115753228Y-40657633D01*
X115728733Y-40656345D01*
X115719531Y-40656827D01*
X115672294Y-40659626D01*
X115628634Y-40666534D01*
X115584618Y-40670748D01*
X115575587Y-40672581D01*
X115487310Y-40691134D01*
X115487308Y-40691134D01*
X115487301Y-40691136D01*
X115245407Y-40741979D01*
X115245321Y-40741996D01*
X114753629Y-40845345D01*
X114753621Y-40845347D01*
X113856747Y-41033863D01*
X113856718Y-41033869D01*
X112735530Y-41269535D01*
X112735472Y-41269547D01*
X111430666Y-41543812D01*
X111430664Y-41543813D01*
X110352649Y-41770406D01*
X110352620Y-41770412D01*
X109600771Y-41928448D01*
X109600763Y-41928450D01*
X108826076Y-42091289D01*
X108825967Y-42091311D01*
X108033304Y-42257926D01*
X108033298Y-42257928D01*
X106822722Y-42512390D01*
X106822614Y-42512412D01*
X105191299Y-42855312D01*
X105191291Y-42855314D01*
X103580320Y-43193939D01*
X103580291Y-43193945D01*
X102030393Y-43519733D01*
X102030364Y-43519739D01*
X100582294Y-43824126D01*
X99276880Y-44098527D01*
X99276851Y-44098533D01*
X98154812Y-44334391D01*
X98154806Y-44334393D01*
X97466129Y-44479158D01*
X97173116Y-44540752D01*
X97173051Y-44540765D01*
X96997310Y-44577709D01*
X96997308Y-44577710D01*
X96839166Y-44610954D01*
X96839086Y-44610970D01*
X96699040Y-44640411D01*
X96699004Y-44640418D01*
X96577749Y-44665909D01*
X96577713Y-44665916D01*
X96475855Y-44687330D01*
X96475850Y-44687331D01*
X96475828Y-44687336D01*
X96433232Y-44696293D01*
X96421019Y-44700138D01*
X96408346Y-44702030D01*
X96399424Y-44704337D01*
X96383295Y-44708626D01*
X96334525Y-44726853D01*
X96285105Y-44743235D01*
X96276709Y-44747033D01*
X96242459Y-44762815D01*
X96236838Y-44766105D01*
X96230728Y-44768361D01*
X96181297Y-44798612D01*
X96131291Y-44827880D01*
X96126417Y-44832198D01*
X96120860Y-44835599D01*
X96113546Y-44841205D01*
X96085079Y-44863338D01*
X96082959Y-44865348D01*
X96080510Y-44866924D01*
X96036231Y-44909639D01*
X95991592Y-44951950D01*
X95989908Y-44954325D01*
X95987805Y-44956354D01*
X95981879Y-44963411D01*
X95959124Y-44990887D01*
X95954569Y-44997632D01*
X95948937Y-45003501D01*
X95918564Y-45050953D01*
X95887040Y-45097638D01*
X95883885Y-45105134D01*
X95879496Y-45111990D01*
X95875367Y-45120229D01*
X95859795Y-45151845D01*
X95855947Y-45162071D01*
X95850499Y-45171533D01*
X95833299Y-45222255D01*
X95814428Y-45272401D01*
X95812640Y-45283174D01*
X95809132Y-45293520D01*
X95807102Y-45302508D01*
X95797885Y-45344670D01*
X95795388Y-45365822D01*
X95790149Y-45386466D01*
X95787855Y-45429647D01*
X95782786Y-45472591D01*
X95784445Y-45493823D01*
X95783315Y-45515095D01*
X95783791Y-45524298D01*
X95786567Y-45571593D01*
X95793980Y-45618610D01*
X95798979Y-45665953D01*
X95800899Y-45674966D01*
X95801998Y-45679951D01*
X95812616Y-45728142D01*
X95812618Y-45728148D01*
X95822906Y-45774901D01*
X95822923Y-45774979D01*
X95835538Y-45832364D01*
X95835550Y-45832420D01*
X95845994Y-45879963D01*
X95846011Y-45880042D01*
X95858633Y-45937553D01*
X95858637Y-45937573D01*
X95871913Y-45998088D01*
X95871915Y-45998095D01*
X95885738Y-46061135D01*
X95885739Y-46061140D01*
X95900068Y-46126513D01*
X95900093Y-46126631D01*
X95914912Y-46194275D01*
X95930137Y-46263788D01*
X95930140Y-46263797D01*
X95939792Y-46307873D01*
X95939822Y-46308013D01*
X95953558Y-46370745D01*
X95953575Y-46370823D01*
X95969527Y-46443701D01*
X95969530Y-46443713D01*
X95981612Y-46498921D01*
X95981620Y-46498959D01*
X95997875Y-46573244D01*
X96014205Y-46647877D01*
X96014214Y-46647919D01*
X96030562Y-46722651D01*
X96030580Y-46722735D01*
X96046916Y-46797423D01*
X96071251Y-46908691D01*
X96071253Y-46908701D01*
X96095116Y-47017823D01*
X96095142Y-47017944D01*
X96110756Y-47089345D01*
X96110757Y-47089349D01*
X96133599Y-47193804D01*
X96136150Y-47205471D01*
X95831747Y-47270595D01*
X95831718Y-47270601D01*
X94479200Y-47559962D01*
X92641136Y-47953203D01*
X92641107Y-47953209D01*
X91253884Y-48249998D01*
X89769587Y-48567556D01*
X89769577Y-48567559D01*
X88615155Y-48814543D01*
X88615126Y-48814549D01*
X87836604Y-48981113D01*
X87836602Y-48981114D01*
X87055674Y-49148191D01*
X86277248Y-49314733D01*
X86277189Y-49314745D01*
X85122859Y-49561714D01*
X83638878Y-49879213D01*
X83638870Y-49879215D01*
X82591525Y-50103297D01*
X82591517Y-50103299D01*
X81929746Y-50244889D01*
X81304477Y-50378670D01*
X81304418Y-50378682D01*
X80720401Y-50503638D01*
X80720396Y-50503640D01*
X80182608Y-50618706D01*
X80182549Y-50618718D01*
X79814125Y-50697548D01*
X79814086Y-50697556D01*
X79584343Y-50746715D01*
X79584341Y-50746716D01*
X79264783Y-50815092D01*
X79264780Y-50815093D01*
X78894614Y-50894300D01*
X78894575Y-50894308D01*
X78661874Y-50944103D01*
X78661872Y-50944104D01*
X78559546Y-50966000D01*
X78559517Y-50966006D01*
X78496497Y-50979493D01*
X78496458Y-50979501D01*
X78409821Y-50998043D01*
X78409792Y-50998049D01*
X78311307Y-51019128D01*
X78311210Y-51019148D01*
X78269885Y-51027995D01*
X78262803Y-51030253D01*
X78255429Y-51031259D01*
X78246479Y-51033453D01*
X78234787Y-51036405D01*
X78189838Y-51052561D01*
X78144113Y-51066426D01*
X78135622Y-51070008D01*
X78099966Y-51085341D01*
X78091813Y-51089836D01*
X78083028Y-51092909D01*
X78035467Y-51120901D01*
X77987165Y-51147532D01*
X77980046Y-51153520D01*
X77972018Y-51158245D01*
X77964609Y-51163724D01*
X77935246Y-51185754D01*
X77931226Y-51189435D01*
X77926617Y-51192340D01*
X77883742Y-51232915D01*
X77840247Y-51272743D01*
X77837023Y-51277128D01*
X77833060Y-51280879D01*
X77827066Y-51287878D01*
X77804104Y-51315071D01*
X77801052Y-51319499D01*
X77797263Y-51323308D01*
X77764522Y-51372496D01*
X77731001Y-51421128D01*
X77728870Y-51426057D01*
X77725889Y-51430536D01*
X77721613Y-51438699D01*
X77704616Y-51471704D01*
X77699924Y-51483525D01*
X77693444Y-51494462D01*
X77676203Y-51543290D01*
X77657097Y-51591428D01*
X77654792Y-51603930D01*
X77650557Y-51615923D01*
X77648414Y-51624886D01*
X77638850Y-51666157D01*
X77635715Y-51690144D01*
X77629679Y-51713558D01*
X77627387Y-51753855D01*
X77622155Y-51793881D01*
X77623738Y-51818010D01*
X77622364Y-51842160D01*
X77622806Y-51851365D01*
X77625427Y-51899066D01*
X77632392Y-51944345D01*
X77636787Y-51989961D01*
X77638626Y-51998991D01*
X77642813Y-52018854D01*
X77642831Y-52018942D01*
X77651946Y-52062177D01*
X77651957Y-52062229D01*
X77667024Y-52133668D01*
X77667049Y-52133792D01*
X77689809Y-52241708D01*
X77689812Y-52241716D01*
X77689814Y-52241728D01*
X77715019Y-52361220D01*
X77715031Y-52361278D01*
X77742256Y-52490342D01*
X77742258Y-52490347D01*
X77742258Y-52490349D01*
X77771028Y-52626729D01*
X77771047Y-52626823D01*
X77816112Y-52840433D01*
X77816127Y-52840505D01*
X77877720Y-53132473D01*
X77922788Y-53346119D01*
X77922798Y-53346169D01*
X77951585Y-53482636D01*
X77952267Y-53485871D01*
X77940190Y-53488446D01*
X77940091Y-53488466D01*
X77860546Y-53505419D01*
X77860541Y-53505421D01*
X77860539Y-53505421D01*
X77734085Y-53532373D01*
X77734081Y-53532374D01*
X77455578Y-53591733D01*
X77455479Y-53591753D01*
X77029204Y-53682603D01*
X77029200Y-53682604D01*
X76547704Y-53785222D01*
X75737774Y-53957836D01*
X75737724Y-53957846D01*
X74500427Y-54221535D01*
X74500423Y-54221536D01*
X73737879Y-54384045D01*
X73737877Y-54384046D01*
X73564638Y-54420965D01*
X73564521Y-54420989D01*
X73301517Y-54477040D01*
X73301515Y-54477041D01*
X72765257Y-54591326D01*
X72765255Y-54591327D01*
X70903506Y-54988092D01*
X70903504Y-54988093D01*
X67803119Y-55648826D01*
X67803117Y-55648827D01*
X65567173Y-56125336D01*
X65567114Y-56125348D01*
X64181805Y-56420579D01*
X64181776Y-56420585D01*
X62927493Y-56687894D01*
X62234562Y-56835569D01*
X62234553Y-56835571D01*
X61975313Y-56890821D01*
X61728747Y-56943370D01*
X61728727Y-56943374D01*
X61581827Y-56974681D01*
X61581825Y-56974682D01*
X61524343Y-56986932D01*
X61524340Y-56986933D01*
X61524330Y-56986935D01*
X61439662Y-57004981D01*
X61439613Y-57004991D01*
X61169701Y-57062518D01*
X61169651Y-57062528D01*
X60880752Y-57124100D01*
X60880747Y-57124102D01*
X60880745Y-57124102D01*
X60735173Y-57155129D01*
X60735173Y-45244042D01*
X91595000Y-45244042D01*
X91595000Y-45575958D01*
X91659754Y-45901496D01*
X91786772Y-46208147D01*
X91971175Y-46484125D01*
X92205875Y-46718825D01*
X92481853Y-46903228D01*
X92788504Y-47030246D01*
X93114042Y-47095000D01*
X93445958Y-47095000D01*
X93771496Y-47030246D01*
X94078147Y-46903228D01*
X94354125Y-46718825D01*
X94588825Y-46484125D01*
X94773228Y-46208147D01*
X94900246Y-45901496D01*
X94965000Y-45575958D01*
X94965000Y-45244042D01*
X94900246Y-44918504D01*
X94773228Y-44611853D01*
X94588825Y-44335875D01*
X94354125Y-44101175D01*
X94078147Y-43916772D01*
X93771496Y-43789754D01*
X93445958Y-43725000D01*
X93114042Y-43725000D01*
X92788504Y-43789754D01*
X92481853Y-43916772D01*
X92205875Y-44101175D01*
X91971175Y-44335875D01*
X91786772Y-44611853D01*
X91659754Y-44918504D01*
X91595000Y-45244042D01*
X60735173Y-45244042D01*
X60735173Y-37324042D01*
X62395000Y-37324042D01*
X62395000Y-37655958D01*
X62459754Y-37981496D01*
X62586772Y-38288147D01*
X62771175Y-38564125D01*
X63005875Y-38798825D01*
X63281853Y-38983228D01*
X63588504Y-39110246D01*
X63914042Y-39175000D01*
X64245958Y-39175000D01*
X64571496Y-39110246D01*
X64878147Y-38983228D01*
X65154125Y-38798825D01*
X65388825Y-38564125D01*
X65573228Y-38288147D01*
X65700246Y-37981496D01*
X65765000Y-37655958D01*
X65765000Y-37324042D01*
X143615000Y-37324042D01*
X143615000Y-37655958D01*
X143679754Y-37981496D01*
X143806772Y-38288147D01*
X143991175Y-38564125D01*
X144225875Y-38798825D01*
X144501853Y-38983228D01*
X144808504Y-39110246D01*
X145134042Y-39175000D01*
X145465958Y-39175000D01*
X145791496Y-39110246D01*
X146098147Y-38983228D01*
X146374125Y-38798825D01*
X146608825Y-38564125D01*
X146793228Y-38288147D01*
X146920246Y-37981496D01*
X146985000Y-37655958D01*
X146985000Y-37324042D01*
X185735000Y-37324042D01*
X185735000Y-37655958D01*
X185799754Y-37981496D01*
X185926772Y-38288147D01*
X186111175Y-38564125D01*
X186345875Y-38798825D01*
X186621853Y-38983228D01*
X186928504Y-39110246D01*
X187254042Y-39175000D01*
X187585958Y-39175000D01*
X187911496Y-39110246D01*
X188218147Y-38983228D01*
X188494125Y-38798825D01*
X188728825Y-38564125D01*
X188913228Y-38288147D01*
X189040246Y-37981496D01*
X189105000Y-37655958D01*
X189105000Y-37324042D01*
X189103011Y-37314042D01*
X228465000Y-37314042D01*
X228465000Y-37645958D01*
X228529754Y-37971496D01*
X228656772Y-38278147D01*
X228841175Y-38554125D01*
X229075875Y-38788825D01*
X229351853Y-38973228D01*
X229658504Y-39100246D01*
X229984042Y-39165000D01*
X230315958Y-39165000D01*
X230641496Y-39100246D01*
X230948147Y-38973228D01*
X231224125Y-38788825D01*
X231458825Y-38554125D01*
X231643228Y-38278147D01*
X231770246Y-37971496D01*
X231835000Y-37645958D01*
X231835000Y-37314042D01*
X231770246Y-36988504D01*
X231643228Y-36681853D01*
X231458825Y-36405875D01*
X231224125Y-36171175D01*
X230948147Y-35986772D01*
X230641496Y-35859754D01*
X230315958Y-35795000D01*
X229984042Y-35795000D01*
X229658504Y-35859754D01*
X229351853Y-35986772D01*
X229075875Y-36171175D01*
X228841175Y-36405875D01*
X228656772Y-36681853D01*
X228529754Y-36988504D01*
X228465000Y-37314042D01*
X189103011Y-37314042D01*
X189040246Y-36998504D01*
X188913228Y-36691853D01*
X188728825Y-36415875D01*
X188494125Y-36181175D01*
X188218147Y-35996772D01*
X187911496Y-35869754D01*
X187585958Y-35805000D01*
X187254042Y-35805000D01*
X186928504Y-35869754D01*
X186621853Y-35996772D01*
X186345875Y-36181175D01*
X186111175Y-36415875D01*
X185926772Y-36691853D01*
X185799754Y-36998504D01*
X185735000Y-37324042D01*
X146985000Y-37324042D01*
X146920246Y-36998504D01*
X146793228Y-36691853D01*
X146608825Y-36415875D01*
X146374125Y-36181175D01*
X146098147Y-35996772D01*
X145791496Y-35869754D01*
X145465958Y-35805000D01*
X145134042Y-35805000D01*
X144808504Y-35869754D01*
X144501853Y-35996772D01*
X144225875Y-36181175D01*
X143991175Y-36415875D01*
X143806772Y-36691853D01*
X143679754Y-36998504D01*
X143615000Y-37324042D01*
X65765000Y-37324042D01*
X65700246Y-36998504D01*
X65573228Y-36691853D01*
X65388825Y-36415875D01*
X65154125Y-36181175D01*
X64878147Y-35996772D01*
X64571496Y-35869754D01*
X64245958Y-35805000D01*
X63914042Y-35805000D01*
X63588504Y-35869754D01*
X63281853Y-35996772D01*
X63005875Y-36181175D01*
X62771175Y-36415875D01*
X62586772Y-36691853D01*
X62459754Y-36998504D01*
X62395000Y-37324042D01*
X60735173Y-37324042D01*
X60735173Y-34149089D01*
X232547757Y-34149089D01*
X232557915Y-34149149D01*
G37*
X232557915Y-34149149D02*
X232589728Y-34150018D01*
X232618377Y-34151677D01*
X232647009Y-34154212D01*
X232673440Y-34157341D01*
X232699806Y-34161223D01*
X232724537Y-34165565D01*
X232750101Y-34170776D01*
X232775109Y-34176590D01*
X232798416Y-34182662D01*
X232821331Y-34189263D01*
X232844152Y-34196467D01*
X232866324Y-34204084D01*
X232887871Y-34212084D01*
X232909185Y-34220597D01*
X232930416Y-34229681D01*
X232950580Y-34238885D01*
X232970589Y-34248596D01*
X232990671Y-34258938D01*
X233009674Y-34269295D01*
X233028415Y-34280073D01*
X233046678Y-34291138D01*
X233064698Y-34302624D01*
X233083052Y-34314925D01*
X233101085Y-34327632D01*
X233118555Y-34340557D01*
X233135252Y-34353511D01*
X233152833Y-34367816D01*
X233168931Y-34381542D01*
X233184384Y-34395327D01*
X233200472Y-34410345D01*
X233215206Y-34424733D01*
X233229621Y-34439509D01*
X233244067Y-34454995D01*
X233259107Y-34471885D01*
X233273165Y-34488442D01*
X233286295Y-34504642D01*
X233301291Y-34524077D01*
X233313380Y-34540541D01*
X233326110Y-34558744D01*
X233338951Y-34578069D01*
X233350322Y-34596094D01*
X233361378Y-34614546D01*
X233372111Y-34633429D01*
X233382614Y-34652948D01*
X233392416Y-34672232D01*
X233402360Y-34693005D01*
X233411737Y-34713876D01*
X233420659Y-34735105D01*
X233429233Y-34757012D01*
X233437350Y-34779392D01*
X233445106Y-34802611D01*
X233452245Y-34825983D01*
X233458603Y-34848894D01*
X233464573Y-34872783D01*
X233470272Y-34898512D01*
X233475135Y-34923766D01*
X233479514Y-34950518D01*
X233482983Y-34976261D01*
X233485811Y-35002884D01*
X233487924Y-35030296D01*
X233489275Y-35059005D01*
X233489839Y-35094367D01*
X233489839Y-150601969D01*
X233489531Y-150627466D01*
X233488359Y-150657277D01*
X233486420Y-150685178D01*
X233483645Y-150713087D01*
X233480247Y-150739460D01*
X233476134Y-150765550D01*
X233471475Y-150790597D01*
X233466190Y-150815271D01*
X233460458Y-150838969D01*
X233454212Y-150862160D01*
X233447353Y-150885262D01*
X233440056Y-150907735D01*
X233432222Y-150929947D01*
X233423715Y-150952266D01*
X233414946Y-150973655D01*
X233406061Y-150993917D01*
X233395975Y-151015474D01*
X233386246Y-151035012D01*
X233374296Y-151057574D01*
X233363416Y-151076921D01*
X233351799Y-151096465D01*
X233340319Y-151114776D01*
X233327426Y-151134286D01*
X233315265Y-151151771D01*
X233302802Y-151168850D01*
X233290062Y-151185505D01*
X233276499Y-151202422D01*
X233262902Y-151218609D01*
X233247719Y-151235838D01*
X233232679Y-151252095D01*
X233213876Y-151271413D01*
X233203428Y-151281673D01*
X233187795Y-151296428D01*
X233172061Y-151310632D01*
X233156556Y-151324008D01*
X233136560Y-151340432D01*
X233120412Y-151353047D01*
X233103549Y-151365618D01*
X233082356Y-151380618D01*
X233064414Y-151392656D01*
X233046507Y-151404082D01*
X233028149Y-151415218D01*
X233009619Y-151425884D01*
X232989502Y-151436844D01*
X232969770Y-151446992D01*
X232949992Y-151456582D01*
X232929734Y-151465820D01*
X232907396Y-151475349D01*
X232885176Y-151484164D01*
X232863560Y-151492121D01*
X232842490Y-151499293D01*
X232812765Y-151508494D01*
X232789663Y-151514922D01*
X232764950Y-151521095D01*
X232741176Y-151526367D01*
X232716319Y-151531190D01*
X232690453Y-151535473D01*
X232663396Y-151539169D01*
X232636121Y-151542089D01*
X232608339Y-151544238D01*
X232579714Y-151545586D01*
X232544385Y-151546149D01*
X119015627Y-151546149D01*
X119014611Y-151546249D01*
X119005897Y-151546276D01*
X119005735Y-151546292D01*
X119000964Y-151546310D01*
X118946161Y-151546889D01*
X118946005Y-151546906D01*
X118940573Y-151546972D01*
X118888455Y-151547964D01*
X118888302Y-151547982D01*
X118883097Y-151548087D01*
X118830994Y-151549502D01*
X118830834Y-151549522D01*
X118825787Y-151549664D01*
X118777042Y-151551373D01*
X118776882Y-151551394D01*
X118771952Y-151551571D01*
X118723225Y-151553656D01*
X118723059Y-151553679D01*
X118718247Y-151553888D01*
X118670209Y-151556307D01*
X118670044Y-151556332D01*
X118665297Y-151556573D01*
X118617278Y-151559350D01*
X118617120Y-151559375D01*
X118611766Y-151559692D01*
X118553108Y-151563577D01*
X118552954Y-151563603D01*
X118547510Y-151563972D01*
X118498217Y-151567658D01*
X118498057Y-151567686D01*
X118493315Y-151568043D01*
X118446716Y-151571877D01*
X118446561Y-151571905D01*
X118441850Y-151572295D01*
X118393950Y-151576593D01*
X118393793Y-151576623D01*
X118388756Y-151577080D01*
X118335574Y-151582276D01*
X118335419Y-151582307D01*
X118330354Y-151582807D01*
X118282527Y-151587864D01*
X118282375Y-151587895D01*
X118277669Y-151588395D01*
X118229881Y-151593806D01*
X118229716Y-151593841D01*
X118224894Y-151594390D01*
X118175819Y-151600325D01*
X118175656Y-151600361D01*
X118170898Y-151600939D01*
X118124519Y-151606902D01*
X118124361Y-151606938D01*
X118119182Y-151607611D01*
X118060938Y-151615583D01*
X118060794Y-151615617D01*
X118054932Y-151616433D01*
X117995765Y-151625086D01*
X117995609Y-151625125D01*
X117990317Y-151625906D01*
X117943768Y-151633111D01*
X117943611Y-151633151D01*
X117939198Y-151633835D01*
X117895666Y-151640886D01*
X117895512Y-151640927D01*
X117891125Y-151641637D01*
X117846320Y-151649215D01*
X117846162Y-151649258D01*
X117841825Y-151649991D01*
X117798387Y-151657647D01*
X117798227Y-151657692D01*
X117793736Y-151658484D01*
X117746405Y-151667176D01*
X117746241Y-151667223D01*
X117741661Y-151668066D01*
X117695702Y-151676854D01*
X117695549Y-151676899D01*
X117691118Y-151677747D01*
X117647841Y-151686340D01*
X117647687Y-151686387D01*
X117643516Y-151687214D01*
X117601602Y-151695828D01*
X117601449Y-151695876D01*
X117597147Y-151696759D01*
X117552674Y-151706219D01*
X117552543Y-151706260D01*
X117549968Y-151706801D01*
X117437960Y-151731118D01*
X117437959Y-151731118D01*
X117437956Y-151731119D01*
X117186593Y-151785692D01*
X116976200Y-151831370D01*
X116976123Y-151831386D01*
X116826730Y-151863820D01*
X116589281Y-151915371D01*
X116589277Y-151915372D01*
X116066255Y-152028921D01*
X116066178Y-152028937D01*
X115265578Y-152202746D01*
X115265576Y-152202747D01*
X113882819Y-152502938D01*
X113882815Y-152502939D01*
X112547615Y-152792803D01*
X111982700Y-152915442D01*
X111101621Y-153106718D01*
X111101619Y-153106719D01*
X110176201Y-153307620D01*
X110176124Y-153307636D01*
X109540165Y-153445696D01*
X109540135Y-153445702D01*
X108559761Y-153658532D01*
X108559759Y-153658533D01*
X107203126Y-153953045D01*
X107203124Y-153953046D01*
X105800501Y-154257540D01*
X105800499Y-154257541D01*
X104360248Y-154570203D01*
X102890728Y-154889219D01*
X100650910Y-155375457D01*
X100650908Y-155375458D01*
X97636606Y-156029825D01*
X95396772Y-156516062D01*
X93927238Y-156835079D01*
X93927236Y-156835080D01*
X92486966Y-157147742D01*
X91084316Y-157452236D01*
X89061858Y-157891282D01*
X86582738Y-158429461D01*
X86582631Y-158429483D01*
X84404395Y-158902342D01*
X82594043Y-159295338D01*
X82594041Y-159295339D01*
X81218465Y-159593949D01*
X81218463Y-159593950D01*
X80737794Y-159698293D01*
X80734884Y-159698921D01*
X80695678Y-159707237D01*
X80657829Y-159715003D01*
X80612368Y-159723988D01*
X80574329Y-159731217D01*
X80536578Y-159738131D01*
X80489745Y-159746353D01*
X80450519Y-159752934D01*
X80402730Y-159760579D01*
X80362796Y-159766655D01*
X80319316Y-159772945D01*
X80277904Y-159778622D01*
X80237419Y-159783877D01*
X80194624Y-159789116D01*
X80154261Y-159793762D01*
X80111876Y-159798329D01*
X80070871Y-159802444D01*
X80029193Y-159806322D01*
X79987355Y-159809910D01*
X79944552Y-159813259D01*
X79896514Y-159816635D01*
X79852440Y-159819378D01*
X79805865Y-159821905D01*
X79761776Y-159823943D01*
X79709933Y-159825907D01*
X79665878Y-159827207D01*
X79619079Y-159828215D01*
X79573924Y-159828823D01*
X79518054Y-159829089D01*
X60735173Y-159829089D01*
X60735173Y-156324042D01*
X62395000Y-156324042D01*
X62395000Y-156655958D01*
X62459754Y-156981496D01*
X62586772Y-157288147D01*
X62771175Y-157564125D01*
X63005875Y-157798825D01*
X63281853Y-157983228D01*
X63588504Y-158110246D01*
X63914042Y-158175000D01*
X64245958Y-158175000D01*
X64571496Y-158110246D01*
X64878147Y-157983228D01*
X65154125Y-157798825D01*
X65388825Y-157564125D01*
X65573228Y-157288147D01*
X65700246Y-156981496D01*
X65765000Y-156655958D01*
X65765000Y-156324042D01*
X65700246Y-155998504D01*
X65573228Y-155691853D01*
X65388825Y-155415875D01*
X65154125Y-155181175D01*
X64878147Y-154996772D01*
X64571496Y-154869754D01*
X64245958Y-154805000D01*
X63914042Y-154805000D01*
X63588504Y-154869754D01*
X63281853Y-154996772D01*
X63005875Y-155181175D01*
X62771175Y-155415875D01*
X62586772Y-155691853D01*
X62459754Y-155998504D01*
X62395000Y-156324042D01*
X60735173Y-156324042D01*
X60735173Y-96264042D01*
X62385000Y-96264042D01*
X62385000Y-96595958D01*
X62449754Y-96921496D01*
X62576772Y-97228147D01*
X62761175Y-97504125D01*
X62995875Y-97738825D01*
X63271853Y-97923228D01*
X63578504Y-98050246D01*
X63904042Y-98115000D01*
X64235958Y-98115000D01*
X64561496Y-98050246D01*
X64868147Y-97923228D01*
X65144125Y-97738825D01*
X65378825Y-97504125D01*
X65563228Y-97228147D01*
X65690246Y-96921496D01*
X65755000Y-96595958D01*
X65755000Y-96264042D01*
X65690246Y-95938504D01*
X65563228Y-95631853D01*
X65378825Y-95355875D01*
X65144125Y-95121175D01*
X64868147Y-94936772D01*
X64561496Y-94809754D01*
X64235958Y-94745000D01*
X63904042Y-94745000D01*
X63578504Y-94809754D01*
X63271853Y-94936772D01*
X62995875Y-95121175D01*
X62761175Y-95355875D01*
X62576772Y-95631853D01*
X62449754Y-95938504D01*
X62385000Y-96264042D01*
X60735173Y-96264042D01*
X60735173Y-79309696D01*
X63886730Y-79309696D01*
X63899462Y-79369086D01*
X63899466Y-79369106D01*
X63922411Y-79476141D01*
X63922413Y-79476147D01*
X63922415Y-79476157D01*
X63938657Y-79551915D01*
X63938659Y-79551920D01*
X63982230Y-79755155D01*
X63982258Y-79755293D01*
X64062971Y-80131781D01*
X64062972Y-80131784D01*
X64155787Y-80564711D01*
X64155793Y-80564741D01*
X64315390Y-81309161D01*
X64315391Y-81309163D01*
X64568414Y-82489343D01*
X64861951Y-83858486D01*
X64861972Y-83858585D01*
X65192552Y-85400497D01*
X65192558Y-85400526D01*
X65556663Y-87098805D01*
X66154903Y-89889136D01*
X67042134Y-94027386D01*
X68000300Y-98496486D01*
X68749274Y-101989872D01*
X69255248Y-104349850D01*
X69817929Y-106974330D01*
X69758825Y-106885875D01*
X69524125Y-106651175D01*
X69248147Y-106466772D01*
X68941496Y-106339754D01*
X68615958Y-106275000D01*
X68284042Y-106275000D01*
X67958504Y-106339754D01*
X67651853Y-106466772D01*
X67375875Y-106651175D01*
X67141175Y-106885875D01*
X66956772Y-107161853D01*
X66829754Y-107468504D01*
X66765000Y-107794042D01*
X66765000Y-108125958D01*
X66829754Y-108451496D01*
X66956772Y-108758147D01*
X67141175Y-109034125D01*
X67375875Y-109268825D01*
X67651853Y-109453228D01*
X67958504Y-109580246D01*
X68284042Y-109645000D01*
X68615958Y-109645000D01*
X68941496Y-109580246D01*
X69248147Y-109453228D01*
X69524125Y-109268825D01*
X69758825Y-109034125D01*
X69943228Y-108758147D01*
X70070246Y-108451496D01*
X70101231Y-108295723D01*
X70770819Y-111418856D01*
X71140994Y-113145456D01*
X71141000Y-113145485D01*
X71384557Y-114281495D01*
X71614590Y-115354435D01*
X71588825Y-115315875D01*
X71354125Y-115081175D01*
X71078147Y-114896772D01*
X70771496Y-114769754D01*
X70445958Y-114705000D01*
X70114042Y-114705000D01*
X69788504Y-114769754D01*
X69481853Y-114896772D01*
X69205875Y-115081175D01*
X68971175Y-115315875D01*
X68786772Y-115591853D01*
X68659754Y-115898504D01*
X68595000Y-116224042D01*
X68595000Y-116555958D01*
X68659754Y-116881496D01*
X68786772Y-117188147D01*
X68971175Y-117464125D01*
X69205875Y-117698825D01*
X69481853Y-117883228D01*
X69788504Y-118010246D01*
X70114042Y-118075000D01*
X70445958Y-118075000D01*
X70771496Y-118010246D01*
X71078147Y-117883228D01*
X71354125Y-117698825D01*
X71588825Y-117464125D01*
X71773228Y-117188147D01*
X71900246Y-116881496D01*
X71920333Y-116780515D01*
X72209202Y-118127886D01*
X72489519Y-119435376D01*
X72489541Y-119435484D01*
X72599694Y-119949276D01*
X72599697Y-119949286D01*
X72762494Y-120708624D01*
X73078431Y-122182262D01*
X73078468Y-122182440D01*
X73196206Y-122731616D01*
X73098825Y-122585875D01*
X72864125Y-122351175D01*
X72588147Y-122166772D01*
X72281496Y-122039754D01*
X71955958Y-121975000D01*
X71624042Y-121975000D01*
X71298504Y-122039754D01*
X70991853Y-122166772D01*
X70715875Y-122351175D01*
X70481175Y-122585875D01*
X70296772Y-122861853D01*
X70169754Y-123168504D01*
X70105000Y-123494042D01*
X70105000Y-123825958D01*
X70169754Y-124151496D01*
X70296772Y-124458147D01*
X70481175Y-124734125D01*
X70715875Y-124968825D01*
X70991853Y-125153228D01*
X71298504Y-125280246D01*
X71624042Y-125345000D01*
X71955958Y-125345000D01*
X72281496Y-125280246D01*
X72588147Y-125153228D01*
X72864125Y-124968825D01*
X73098825Y-124734125D01*
X73283228Y-124458147D01*
X73410246Y-124151496D01*
X73453739Y-123932846D01*
X73569538Y-124472985D01*
X73753324Y-125330246D01*
X73753331Y-125330279D01*
X73929062Y-126149964D01*
X74096259Y-126929856D01*
X74096288Y-126929994D01*
X74254559Y-127668246D01*
X74254575Y-127668325D01*
X74403483Y-128362911D01*
X74542566Y-129011680D01*
X74542572Y-129011710D01*
X74671401Y-129612650D01*
X74671405Y-129612670D01*
X74789542Y-130163752D01*
X74896542Y-130662887D01*
X74896546Y-130662907D01*
X74991978Y-131108091D01*
X75075395Y-131497241D01*
X75075399Y-131497261D01*
X75129404Y-131749208D01*
X75129420Y-131749286D01*
X75160855Y-131895942D01*
X75145853Y-131899109D01*
X75145824Y-131899115D01*
X75041388Y-131921161D01*
X75041385Y-131921162D01*
X74873641Y-131956569D01*
X74873638Y-131956570D01*
X74628206Y-132008373D01*
X74628156Y-132008383D01*
X74360849Y-132064802D01*
X74360847Y-132064803D01*
X74073833Y-132125381D01*
X74073812Y-132125385D01*
X73769137Y-132189689D01*
X73769116Y-132189693D01*
X73448835Y-132257288D01*
X73448829Y-132257290D01*
X73115054Y-132327731D01*
X72769872Y-132400580D01*
X72769851Y-132400584D01*
X72415351Y-132475397D01*
X72415300Y-132475407D01*
X72144354Y-132532586D01*
X72144317Y-132532593D01*
X71961979Y-132571074D01*
X71961972Y-132571076D01*
X71778482Y-132609798D01*
X71594067Y-132648715D01*
X71316345Y-132707323D01*
X71316342Y-132707324D01*
X70945193Y-132785645D01*
X70945191Y-132785646D01*
X70575086Y-132863746D01*
X70208094Y-132941185D01*
X69936360Y-132998524D01*
X69936358Y-132998525D01*
X69757156Y-133036338D01*
X69579899Y-133073741D01*
X69579893Y-133073743D01*
X69404936Y-133110660D01*
X69404856Y-133110676D01*
X69146666Y-133165155D01*
X69146644Y-133165159D01*
X68812919Y-133235573D01*
X68812916Y-133235574D01*
X68571857Y-133286434D01*
X68571855Y-133286435D01*
X68571853Y-133286435D01*
X68415515Y-133319421D01*
X68415514Y-133319421D01*
X68263295Y-133351536D01*
X68263216Y-133351552D01*
X68115192Y-133382781D01*
X68115189Y-133382782D01*
X68007351Y-133405532D01*
X68007301Y-133405542D01*
X67936809Y-133420414D01*
X67936735Y-133420429D01*
X67833089Y-133442296D01*
X67833054Y-133442303D01*
X67699555Y-133470467D01*
X67699455Y-133470487D01*
X67571183Y-133497546D01*
X67448491Y-133523427D01*
X67448488Y-133523428D01*
X67331691Y-133548066D01*
X67331656Y-133548073D01*
X67220916Y-133571431D01*
X67220914Y-133571431D01*
X67116555Y-133593441D01*
X67116552Y-133593442D01*
X67018824Y-133614054D01*
X67018817Y-133614055D01*
X66927951Y-133633216D01*
X66927942Y-133633219D01*
X66844340Y-133650848D01*
X66844255Y-133650865D01*
X66767937Y-133666956D01*
X66767934Y-133666957D01*
X66699330Y-133681421D01*
X66699324Y-133681422D01*
X66611630Y-133699906D01*
X66597108Y-133704486D01*
X66592256Y-133705249D01*
X66589641Y-133705564D01*
X66589072Y-133705750D01*
X66582058Y-133706853D01*
X66573155Y-133709229D01*
X66557578Y-133713502D01*
X66512783Y-133730643D01*
X66467186Y-133745522D01*
X66458772Y-133749281D01*
X66424123Y-133765051D01*
X66419898Y-133767497D01*
X66415303Y-133769144D01*
X66364195Y-133799751D01*
X66312652Y-133829596D01*
X66308984Y-133832816D01*
X66304795Y-133835324D01*
X66297427Y-133840859D01*
X66268793Y-133862685D01*
X66263903Y-133867232D01*
X66258299Y-133870853D01*
X66216784Y-133911042D01*
X66174459Y-133950395D01*
X66170548Y-133955802D01*
X66165751Y-133960445D01*
X66159836Y-133967512D01*
X66137096Y-133995069D01*
X66133843Y-133999905D01*
X66129789Y-134004085D01*
X66097918Y-134053309D01*
X66065199Y-134101946D01*
X66062950Y-134107315D01*
X66059781Y-134112209D01*
X66055609Y-134120426D01*
X66039724Y-134152256D01*
X66035877Y-134162320D01*
X66030445Y-134171631D01*
X66012900Y-134222421D01*
X65993727Y-134272574D01*
X65991908Y-134283191D01*
X65988388Y-134293381D01*
X65986306Y-134302358D01*
X65977041Y-134343616D01*
X65973878Y-134369170D01*
X65967739Y-134394176D01*
X65965983Y-134432945D01*
X65961217Y-134471450D01*
X65963077Y-134497128D01*
X65961912Y-134522854D01*
X65962460Y-134532053D01*
X65965597Y-134579192D01*
X65972521Y-134620985D01*
X65976631Y-134663167D01*
X65978479Y-134672195D01*
X65987500Y-134714766D01*
X65987514Y-134714833D01*
X66009146Y-134816905D01*
X66009149Y-134816913D01*
X66009150Y-134816920D01*
X66048852Y-135004239D01*
X66048854Y-135004244D01*
X66048854Y-135004246D01*
X66116216Y-135322046D01*
X66116228Y-135322104D01*
X66198311Y-135709346D01*
X66198312Y-135709348D01*
X66294002Y-136160778D01*
X66294014Y-136160836D01*
X66402246Y-136671423D01*
X66402247Y-136671427D01*
X66521916Y-137235954D01*
X66521922Y-137235983D01*
X66651948Y-137849364D01*
X66651949Y-137849366D01*
X66791214Y-138506320D01*
X66791237Y-138506431D01*
X66882802Y-138938377D01*
X66882803Y-138938379D01*
X66920124Y-139114434D01*
X66920136Y-139114492D01*
X66976907Y-139382292D01*
X66976924Y-139382375D01*
X67093242Y-139931069D01*
X67093245Y-139931079D01*
X67253776Y-140688328D01*
X67253782Y-140688358D01*
X67419226Y-141468773D01*
X67545953Y-142066556D01*
X67545965Y-142066614D01*
X67631344Y-142469349D01*
X67631345Y-142469351D01*
X67717338Y-142874976D01*
X67803808Y-143282851D01*
X67890613Y-143692305D01*
X67890619Y-143692334D01*
X67977623Y-144102723D01*
X67977635Y-144102781D01*
X68108262Y-144718928D01*
X68108264Y-144718936D01*
X68281883Y-145537862D01*
X68281889Y-145537891D01*
X68411008Y-146146917D01*
X68411020Y-146146975D01*
X68496405Y-146549710D01*
X68496406Y-146549712D01*
X68559930Y-146849329D01*
X68559934Y-146849350D01*
X68602032Y-147047916D01*
X68602040Y-147047953D01*
X68664796Y-147343942D01*
X68747522Y-147734122D01*
X68747528Y-147734151D01*
X68829102Y-148118896D01*
X68829103Y-148118898D01*
X68909371Y-148497474D01*
X68909385Y-148497543D01*
X68988236Y-148869437D01*
X68988238Y-148869445D01*
X69065520Y-149233927D01*
X69065526Y-149233956D01*
X69141091Y-149590334D01*
X69141112Y-149590437D01*
X69214849Y-149938187D01*
X69214861Y-149938246D01*
X69286634Y-150276734D01*
X69286636Y-150276742D01*
X69356296Y-150605250D01*
X69356300Y-150605271D01*
X69407006Y-150844402D01*
X69407008Y-150844407D01*
X69407008Y-150844409D01*
X69440112Y-151000520D01*
X69440130Y-151000608D01*
X69472648Y-151153952D01*
X69504537Y-151304333D01*
X69504545Y-151304371D01*
X69551272Y-151524712D01*
X69551273Y-151524714D01*
X69611123Y-151806935D01*
X69611135Y-151806993D01*
X69668205Y-152076101D01*
X69668207Y-152076109D01*
X69722351Y-152331403D01*
X69722352Y-152331407D01*
X69760857Y-152512961D01*
X69760859Y-152512966D01*
X69785607Y-152629647D01*
X69785609Y-152629657D01*
X69821309Y-152797969D01*
X69821317Y-152798007D01*
X69865861Y-153008002D01*
X69865864Y-153008019D01*
X69896848Y-153154078D01*
X69896891Y-153154286D01*
X69916534Y-153246879D01*
X69916536Y-153246887D01*
X69935262Y-153335149D01*
X69935271Y-153335195D01*
X69953065Y-153419060D01*
X69953078Y-153419122D01*
X69969939Y-153498587D01*
X69969941Y-153498596D01*
X69985840Y-153573522D01*
X69985841Y-153573527D01*
X69985844Y-153573539D01*
X70007979Y-153677840D01*
X70007983Y-153677858D01*
X70027607Y-153770313D01*
X70027612Y-153770336D01*
X70039495Y-153826310D01*
X70039499Y-153826329D01*
X70050335Y-153877365D01*
X70050343Y-153877404D01*
X70064553Y-153944311D01*
X70067433Y-153953394D01*
X70068765Y-153962828D01*
X70071000Y-153971768D01*
X70074879Y-153986832D01*
X70093066Y-154036695D01*
X70109530Y-154087173D01*
X70113288Y-154095587D01*
X70129225Y-154130615D01*
X70133629Y-154138223D01*
X70136686Y-154146450D01*
X70165852Y-154193889D01*
X70193756Y-154242094D01*
X70199545Y-154248692D01*
X70204149Y-154256180D01*
X70209770Y-154263483D01*
X70231764Y-154291650D01*
X70235174Y-154295232D01*
X70237878Y-154299359D01*
X70279529Y-154341835D01*
X70320569Y-154384954D01*
X70324603Y-154387801D01*
X70328063Y-154391330D01*
X70335167Y-154397199D01*
X70362784Y-154419693D01*
X70416159Y-154455103D01*
X70469202Y-154490414D01*
X70470074Y-154490871D01*
X70470121Y-154490902D01*
X70470179Y-154490926D01*
X70477365Y-154494691D01*
X70508279Y-154510614D01*
X70520717Y-154515552D01*
X70532244Y-154522351D01*
X70580487Y-154539279D01*
X70628000Y-154558140D01*
X70641159Y-154560567D01*
X70653789Y-154564999D01*
X70662756Y-154567124D01*
X70704685Y-154576754D01*
X70728649Y-154579839D01*
X70752054Y-154585825D01*
X70792385Y-154588043D01*
X70832441Y-154593199D01*
X70856540Y-154591571D01*
X70880670Y-154592898D01*
X70889873Y-154592439D01*
X70937256Y-154589746D01*
X70982831Y-154582647D01*
X71028718Y-154578097D01*
X71037743Y-154576234D01*
X71059778Y-154571525D01*
X71108615Y-154561092D01*
X71108616Y-154561092D01*
X71191968Y-154543288D01*
X71191988Y-154543284D01*
X71323996Y-154515089D01*
X71323997Y-154515089D01*
X71478329Y-154482128D01*
X71478349Y-154482124D01*
X71654710Y-154444460D01*
X71654711Y-154444460D01*
X71852672Y-154402184D01*
X71852692Y-154402180D01*
X72071898Y-154355369D01*
X72071948Y-154355359D01*
X72312112Y-154304074D01*
X72312114Y-154304073D01*
X72708257Y-154219481D01*
X72708259Y-154219480D01*
X73154334Y-154124226D01*
X73154384Y-154124216D01*
X73474528Y-154055855D01*
X73988019Y-153946209D01*
X73988098Y-153946193D01*
X74740721Y-153785488D01*
X74740723Y-153785487D01*
X75564599Y-153609570D01*
X75564601Y-153609569D01*
X76456715Y-153419083D01*
X76456822Y-153419061D01*
X77414485Y-153214580D01*
X77414489Y-153214579D01*
X78434678Y-152996750D01*
X79514492Y-152766191D01*
X79514494Y-152766190D01*
X80651018Y-152523524D01*
X81841349Y-152269370D01*
X81841351Y-152269369D01*
X83082574Y-152004352D01*
X83082584Y-152004349D01*
X85027891Y-151588999D01*
X85028027Y-151588971D01*
X87082434Y-151150326D01*
X87082541Y-151150304D01*
X88498266Y-150848030D01*
X89950343Y-150537994D01*
X91435866Y-150220818D01*
X92951925Y-149897122D01*
X94495611Y-149567529D01*
X96854008Y-149063986D01*
X96854038Y-149063980D01*
X100072278Y-148376853D01*
X100072280Y-148376852D01*
X101677877Y-148034042D01*
X139765000Y-148034042D01*
X139765000Y-148365958D01*
X139829754Y-148691496D01*
X139956772Y-148998147D01*
X140141175Y-149274125D01*
X140375875Y-149508825D01*
X140651853Y-149693228D01*
X140958504Y-149820246D01*
X141284042Y-149885000D01*
X141615958Y-149885000D01*
X141941496Y-149820246D01*
X142248147Y-149693228D01*
X142524125Y-149508825D01*
X142758825Y-149274125D01*
X142943228Y-148998147D01*
X143070246Y-148691496D01*
X143135000Y-148365958D01*
X143135000Y-148034042D01*
X143070246Y-147708504D01*
X142943228Y-147401853D01*
X142758825Y-147125875D01*
X142524125Y-146891175D01*
X142248147Y-146706772D01*
X141941496Y-146579754D01*
X141615958Y-146515000D01*
X141284042Y-146515000D01*
X140958504Y-146579754D01*
X140651853Y-146706772D01*
X140375875Y-146891175D01*
X140141175Y-147125875D01*
X139956772Y-147401853D01*
X139829754Y-147708504D01*
X139765000Y-148034042D01*
X101677877Y-148034042D01*
X104998510Y-147325056D01*
X114967245Y-145196638D01*
X122925402Y-143497495D01*
X122925432Y-143497489D01*
X125957451Y-142850122D01*
X128861487Y-142230080D01*
X131614246Y-141642337D01*
X131614275Y-141642331D01*
X133559582Y-141226985D01*
X133559611Y-141226979D01*
X134800752Y-140961980D01*
X136572998Y-140583583D01*
X136573027Y-140583577D01*
X138732428Y-140122514D01*
X138732458Y-140122508D01*
X140647509Y-139713614D01*
X140647568Y-139713602D01*
X141900660Y-139446044D01*
X141900665Y-139446042D01*
X142653133Y-139285374D01*
X142653163Y-139285368D01*
X143331495Y-139140528D01*
X143932750Y-139012146D01*
X143932755Y-139012145D01*
X144454024Y-138900837D01*
X144454027Y-138900836D01*
X144788081Y-138829503D01*
X144985888Y-138787264D01*
X144986004Y-138787240D01*
X145113596Y-138759994D01*
X145117013Y-138775973D01*
X145139301Y-138880185D01*
X145162945Y-138990742D01*
X145187888Y-139107389D01*
X145187892Y-139107409D01*
X145214069Y-139229828D01*
X145214087Y-139229916D01*
X145241475Y-139357998D01*
X145241477Y-139358005D01*
X145284536Y-139559384D01*
X145345786Y-139845852D01*
X145345794Y-139845892D01*
X145394338Y-140072947D01*
X145394342Y-140072967D01*
X145419317Y-140189787D01*
X145419321Y-140189806D01*
X145436211Y-140268801D01*
X145479151Y-140469651D01*
X145479173Y-140469759D01*
X145550408Y-140802965D01*
X145624078Y-141147564D01*
X145624082Y-141147584D01*
X145738029Y-141680598D01*
X145894688Y-142413421D01*
X146053120Y-143154545D01*
X146209760Y-143887285D01*
X146209778Y-143887372D01*
X146323725Y-144420387D01*
X146323726Y-144420389D01*
X146397400Y-144765011D01*
X146397401Y-144765015D01*
X146468619Y-145098138D01*
X146468637Y-145098227D01*
X146536991Y-145417947D01*
X146536992Y-145417951D01*
X146602020Y-145722106D01*
X146602021Y-145722109D01*
X146663254Y-146008505D01*
X146663280Y-146008632D01*
X146706333Y-146209984D01*
X146706344Y-146210038D01*
X146733732Y-146338120D01*
X146733733Y-146338122D01*
X146759920Y-146460586D01*
X146759930Y-146460633D01*
X146784877Y-146577294D01*
X146784881Y-146577313D01*
X146808524Y-146687866D01*
X146808526Y-146687876D01*
X146825327Y-146766443D01*
X146825332Y-146766466D01*
X146838748Y-146829192D01*
X146838760Y-146829250D01*
X146851694Y-146889720D01*
X146851696Y-146889730D01*
X146871103Y-146980460D01*
X146871105Y-146980466D01*
X146871107Y-146980476D01*
X146888989Y-147064066D01*
X146888991Y-147064076D01*
X146905282Y-147140225D01*
X146905298Y-147140303D01*
X146923308Y-147224470D01*
X146923329Y-147224573D01*
X146938721Y-147296476D01*
X146940461Y-147301934D01*
X146941206Y-147307613D01*
X146943353Y-147316575D01*
X146946360Y-147328750D01*
X146962617Y-147374725D01*
X146976664Y-147421414D01*
X146980227Y-147429913D01*
X146995256Y-147465071D01*
X146999700Y-147473173D01*
X147002731Y-147481905D01*
X147030650Y-147529600D01*
X147057202Y-147578008D01*
X147063131Y-147585088D01*
X147067803Y-147593069D01*
X147073265Y-147600492D01*
X147094772Y-147629300D01*
X147098451Y-147633337D01*
X147101349Y-147637959D01*
X147141818Y-147680923D01*
X147181536Y-147724505D01*
X147185920Y-147727744D01*
X147189668Y-147731723D01*
X147196654Y-147737733D01*
X147223710Y-147760689D01*
X147229178Y-147764477D01*
X147233898Y-147769158D01*
X147282089Y-147801130D01*
X147329595Y-147834040D01*
X147335687Y-147836690D01*
X147341233Y-147840370D01*
X147349403Y-147844634D01*
X147383116Y-147861932D01*
X147396696Y-147867298D01*
X147409310Y-147874650D01*
X147456493Y-147890928D01*
X147502912Y-147909271D01*
X147517274Y-147911897D01*
X147531077Y-147916659D01*
X147540055Y-147918737D01*
X147582080Y-147928157D01*
X147606821Y-147931210D01*
X147631015Y-147937203D01*
X147670596Y-147939079D01*
X147709920Y-147943931D01*
X147734776Y-147942121D01*
X147759681Y-147943301D01*
X147768881Y-147942772D01*
X147816196Y-147939723D01*
X147858803Y-147932756D01*
X147901773Y-147928554D01*
X147910801Y-147926703D01*
X147933709Y-147921841D01*
X147933717Y-147921839D01*
X147998423Y-147908103D01*
X147998511Y-147908085D01*
X148041620Y-147898934D01*
X148041629Y-147898931D01*
X148104553Y-147885573D01*
X148104554Y-147885573D01*
X148104562Y-147885571D01*
X148209158Y-147863365D01*
X148209187Y-147863359D01*
X148369581Y-147829306D01*
X148369582Y-147829306D01*
X148369595Y-147829303D01*
X148551990Y-147790575D01*
X148552048Y-147790563D01*
X148755785Y-147747303D01*
X148755786Y-147747303D01*
X148755794Y-147747301D01*
X148980041Y-147699683D01*
X149224024Y-147647874D01*
X149224029Y-147647873D01*
X149486975Y-147592035D01*
X149486977Y-147592034D01*
X149486979Y-147592034D01*
X149696688Y-147547500D01*
X149696717Y-147547494D01*
X149841658Y-147516714D01*
X149841687Y-147516708D01*
X150066663Y-147468931D01*
X150381852Y-147401996D01*
X150381855Y-147401995D01*
X150882307Y-147295714D01*
X150882312Y-147295712D01*
X151419524Y-147181624D01*
X151419526Y-147181623D01*
X151793533Y-147102195D01*
X151793538Y-147102194D01*
X152376804Y-146978321D01*
X152376809Y-146978319D01*
X153196800Y-146804168D01*
X154056983Y-146621480D01*
X154057042Y-146621468D01*
X154951305Y-146431540D01*
X154951334Y-146431534D01*
X156340752Y-146136440D01*
X156340755Y-146136439D01*
X157776603Y-145831480D01*
X158745153Y-145625769D01*
X158745182Y-145625763D01*
X160202627Y-145316213D01*
X160202686Y-145316201D01*
X161644694Y-145009926D01*
X162588484Y-144809470D01*
X162588492Y-144809468D01*
X163965459Y-144517005D01*
X165685763Y-144151617D01*
X165685822Y-144151605D01*
X167232752Y-143823038D01*
X167232781Y-143823032D01*
X168556775Y-143541815D01*
X168556804Y-143541809D01*
X169364039Y-143370350D01*
X169364044Y-143370348D01*
X169812407Y-143275114D01*
X169812409Y-143275113D01*
X170062186Y-143222060D01*
X170073607Y-143275113D01*
X170073613Y-143275141D01*
X170101620Y-143405251D01*
X170131289Y-143543089D01*
X170131291Y-143543095D01*
X170178366Y-143761817D01*
X170245571Y-144074084D01*
X170298396Y-144319542D01*
X170298422Y-144319669D01*
X170334385Y-144486784D01*
X170334387Y-144486791D01*
X170389075Y-144740914D01*
X170499310Y-145253155D01*
X170499328Y-145253244D01*
X170606082Y-145749304D01*
X170606084Y-145749309D01*
X170606084Y-145749311D01*
X170656733Y-145984649D01*
X170656751Y-145984738D01*
X170689217Y-146135588D01*
X170689218Y-146135591D01*
X170712659Y-146244503D01*
X170712671Y-146244562D01*
X170727887Y-146315259D01*
X170727889Y-146315268D01*
X170750042Y-146418188D01*
X170750043Y-146418192D01*
X170771153Y-146516268D01*
X170771160Y-146516299D01*
X170784716Y-146579270D01*
X170784718Y-146579275D01*
X170797800Y-146640049D01*
X170797803Y-146640063D01*
X170810390Y-146698528D01*
X170810398Y-146698568D01*
X170828385Y-146782112D01*
X170828389Y-146782133D01*
X170845011Y-146859332D01*
X170845015Y-146859350D01*
X170855423Y-146907683D01*
X170855428Y-146907705D01*
X170869985Y-146975293D01*
X170869987Y-146975304D01*
X170882950Y-147035488D01*
X170882970Y-147035586D01*
X170894494Y-147089066D01*
X170896937Y-147096694D01*
X170897148Y-147098621D01*
X170897666Y-147100269D01*
X170898647Y-147107106D01*
X170900903Y-147116041D01*
X170904320Y-147129190D01*
X170921136Y-147174977D01*
X170935755Y-147221509D01*
X170939421Y-147229964D01*
X170954761Y-147264676D01*
X170958542Y-147271374D01*
X170961118Y-147278621D01*
X170990172Y-147327415D01*
X171018075Y-147376852D01*
X171023082Y-147382686D01*
X171027019Y-147389297D01*
X171032535Y-147396678D01*
X171054178Y-147425222D01*
X171057231Y-147428522D01*
X171059632Y-147432313D01*
X171100946Y-147475776D01*
X171141651Y-147519776D01*
X171145278Y-147522414D01*
X171148377Y-147525674D01*
X171155390Y-147531653D01*
X171182623Y-147554547D01*
X171187418Y-147557836D01*
X171191549Y-147561917D01*
X171240474Y-147594235D01*
X171288840Y-147627416D01*
X171294176Y-147629709D01*
X171299027Y-147632913D01*
X171307205Y-147637160D01*
X171340692Y-147654257D01*
X171352766Y-147659000D01*
X171363950Y-147665562D01*
X171412622Y-147682514D01*
X171460583Y-147701354D01*
X171473340Y-147703660D01*
X171485594Y-147707928D01*
X171494566Y-147710032D01*
X171535643Y-147719366D01*
X171560322Y-147722484D01*
X171584449Y-147728540D01*
X171624076Y-147730540D01*
X171663437Y-147735514D01*
X171688247Y-147733780D01*
X171713095Y-147735034D01*
X171722296Y-147734534D01*
X171770598Y-147731571D01*
X171814576Y-147724518D01*
X171858900Y-147720137D01*
X171867925Y-147718276D01*
X171953809Y-147699949D01*
X172187750Y-147650032D01*
X172187819Y-147650018D01*
X172411863Y-147602216D01*
X172411867Y-147602215D01*
X172580628Y-147566208D01*
X172580727Y-147566188D01*
X172862086Y-147506161D01*
X172862096Y-147506158D01*
X173292576Y-147414316D01*
X173292625Y-147414306D01*
X173778968Y-147310548D01*
X173778972Y-147310547D01*
X174316152Y-147195944D01*
X174316260Y-147195922D01*
X174899655Y-147071461D01*
X175524303Y-146938200D01*
X175524307Y-146938199D01*
X176185347Y-146797175D01*
X177231524Y-146573988D01*
X179474384Y-146095507D01*
X181814476Y-145596283D01*
X183355182Y-145267594D01*
X183355241Y-145267582D01*
X184472072Y-145029319D01*
X184472074Y-145029318D01*
X185191591Y-144875818D01*
X185884456Y-144728003D01*
X185884464Y-144728001D01*
X186545788Y-144586913D01*
X186545817Y-144586907D01*
X187170764Y-144453579D01*
X187170823Y-144453567D01*
X187754621Y-144329016D01*
X187754629Y-144329014D01*
X188292306Y-144214301D01*
X188292365Y-144214289D01*
X188779199Y-144110423D01*
X188779201Y-144110423D01*
X188779203Y-144110422D01*
X189053139Y-144051976D01*
X189053177Y-144051968D01*
X189157271Y-144029758D01*
X189157273Y-144029757D01*
X189306732Y-143997868D01*
X189306840Y-143997846D01*
X189492074Y-143958324D01*
X189492076Y-143958324D01*
X189492078Y-143958323D01*
X189661251Y-143922227D01*
X189661256Y-143922226D01*
X189714576Y-143910849D01*
X189764371Y-144152586D01*
X189764372Y-144152588D01*
X189823619Y-144440204D01*
X189823625Y-144440233D01*
X189887507Y-144750348D01*
X189887514Y-144750381D01*
X189954715Y-145076591D01*
X189954716Y-145076595D01*
X190023904Y-145412440D01*
X190023905Y-145412443D01*
X190093754Y-145751493D01*
X190093755Y-145751496D01*
X190145722Y-146003738D01*
X190145728Y-146003767D01*
X190179896Y-146169613D01*
X190179908Y-146169674D01*
X190230143Y-146413496D01*
X190230144Y-146413500D01*
X190278309Y-146647268D01*
X190278311Y-146647278D01*
X190309175Y-146797065D01*
X190309181Y-146797094D01*
X190338808Y-146940876D01*
X190338810Y-146940881D01*
X190367029Y-147077829D01*
X190367031Y-147077837D01*
X190393676Y-147207139D01*
X190393678Y-147207148D01*
X190418569Y-147327933D01*
X190418587Y-147328022D01*
X190441591Y-147439642D01*
X190441593Y-147439651D01*
X190462527Y-147541220D01*
X190462529Y-147541229D01*
X190476682Y-147609891D01*
X190476701Y-147609988D01*
X190493595Y-147691931D01*
X190493618Y-147692049D01*
X190504626Y-147745431D01*
X190507764Y-147755535D01*
X190509214Y-147766011D01*
X190511425Y-147774957D01*
X190515452Y-147790777D01*
X190533519Y-147840735D01*
X190549851Y-147891262D01*
X190553586Y-147899686D01*
X190569406Y-147934703D01*
X190573808Y-147942355D01*
X190576859Y-147950629D01*
X190605882Y-147998104D01*
X190633641Y-148046354D01*
X190639441Y-148053000D01*
X190644044Y-148060529D01*
X190649647Y-148067846D01*
X190671524Y-148096010D01*
X190675314Y-148100013D01*
X190678333Y-148104627D01*
X190719577Y-148146756D01*
X190760091Y-148189540D01*
X190764584Y-148192729D01*
X190768444Y-148196671D01*
X190775544Y-148202545D01*
X190803247Y-148225145D01*
X190855635Y-148259961D01*
X190908040Y-148295113D01*
X190910424Y-148296373D01*
X190910527Y-148296441D01*
X190910648Y-148296491D01*
X190916188Y-148299418D01*
X190947102Y-148315478D01*
X190957773Y-148319757D01*
X190967614Y-148325685D01*
X191017459Y-148343693D01*
X191066657Y-148363422D01*
X191077948Y-148365546D01*
X191088761Y-148369452D01*
X191097708Y-148371660D01*
X191138422Y-148381406D01*
X191166603Y-148385298D01*
X191194188Y-148392242D01*
X191230251Y-148394088D01*
X191266021Y-148399028D01*
X191294414Y-148397372D01*
X191322829Y-148398827D01*
X191332031Y-148398333D01*
X191380629Y-148395386D01*
X191424417Y-148388395D01*
X191468572Y-148384087D01*
X191477600Y-148382238D01*
X191519011Y-148373455D01*
X191519065Y-148373444D01*
X191617849Y-148352498D01*
X191617891Y-148352489D01*
X191798410Y-148314214D01*
X191798431Y-148314210D01*
X192103415Y-148249547D01*
X192103436Y-148249543D01*
X192473880Y-148171003D01*
X192473939Y-148170991D01*
X192905058Y-148079589D01*
X192905087Y-148079583D01*
X193266954Y-148002863D01*
X193266956Y-148002862D01*
X193523353Y-147948504D01*
X193523461Y-147948482D01*
X193792264Y-147891493D01*
X193792401Y-147891465D01*
X194073166Y-147831941D01*
X194073172Y-147831939D01*
X194513814Y-147738522D01*
X194513872Y-147738510D01*
X195139079Y-147605963D01*
X195800672Y-147465702D01*
X195800678Y-147465700D01*
X196847610Y-147243749D01*
X196847639Y-147243743D01*
X198330925Y-146929284D01*
X198330927Y-146929283D01*
X199872428Y-146602484D01*
X202213765Y-146106119D01*
X202213794Y-146106113D01*
X204458126Y-145630310D01*
X205844355Y-145336427D01*
X205844384Y-145336421D01*
X207094771Y-145071334D01*
X207094800Y-145071328D01*
X208170561Y-144843260D01*
X208170567Y-144843258D01*
X208831783Y-144703074D01*
X208831841Y-144703062D01*
X209202318Y-144624515D01*
X209202347Y-144624509D01*
X209335999Y-144596173D01*
X209346397Y-144646630D01*
X209346398Y-144646634D01*
X209373293Y-144777143D01*
X209373295Y-144777151D01*
X209401782Y-144915377D01*
X209401785Y-144915391D01*
X209446992Y-145134738D01*
X209446994Y-145134743D01*
X209446994Y-145134745D01*
X209511503Y-145447729D01*
X209511520Y-145447814D01*
X209614012Y-145945067D01*
X209614014Y-145945075D01*
X209719853Y-146458556D01*
X209719859Y-146458585D01*
X209789724Y-146797533D01*
X209789752Y-146797672D01*
X209857616Y-147126925D01*
X209857631Y-147127000D01*
X209906277Y-147363018D01*
X209937439Y-147514210D01*
X209937449Y-147514262D01*
X209967362Y-147659399D01*
X209995850Y-147797633D01*
X209995852Y-147797639D01*
X210022728Y-147928053D01*
X210022743Y-147928130D01*
X210047875Y-148050089D01*
X210071077Y-148162691D01*
X210087042Y-148240178D01*
X210097029Y-148288654D01*
X210097039Y-148288706D01*
X210106461Y-148334442D01*
X210106464Y-148334451D01*
X210123480Y-148417069D01*
X210123486Y-148417097D01*
X210134563Y-148470876D01*
X210137720Y-148481050D01*
X210139181Y-148491604D01*
X210141392Y-148500550D01*
X210145419Y-148516370D01*
X210163486Y-148566328D01*
X210179818Y-148616855D01*
X210183553Y-148625279D01*
X210199373Y-148660296D01*
X210203775Y-148667948D01*
X210206826Y-148676222D01*
X210235849Y-148723697D01*
X210263608Y-148771947D01*
X210269408Y-148778593D01*
X210274011Y-148786122D01*
X210279614Y-148793439D01*
X210301491Y-148821603D01*
X210305281Y-148825606D01*
X210308300Y-148830220D01*
X210349544Y-148872349D01*
X210390058Y-148915133D01*
X210394551Y-148918322D01*
X210398411Y-148922264D01*
X210405511Y-148928138D01*
X210433214Y-148950738D01*
X210434815Y-148951802D01*
X210436185Y-148953147D01*
X210488501Y-148987480D01*
X210540494Y-149022034D01*
X210542264Y-149022764D01*
X210543875Y-149023821D01*
X210552065Y-149028043D01*
X210584835Y-149044650D01*
X210598208Y-149049857D01*
X210610636Y-149057030D01*
X210658122Y-149073187D01*
X210704866Y-149091389D01*
X210718994Y-149093899D01*
X210732580Y-149098522D01*
X210741566Y-149100562D01*
X210782577Y-149109572D01*
X210803934Y-149112115D01*
X210824781Y-149117415D01*
X210867761Y-149119716D01*
X210910484Y-149124803D01*
X210931922Y-149123150D01*
X210953407Y-149124300D01*
X210962610Y-149123827D01*
X211009903Y-149121070D01*
X211054926Y-149113990D01*
X211100290Y-149109500D01*
X211109315Y-149107638D01*
X211130189Y-149103181D01*
X211175994Y-149093403D01*
X211176104Y-149093380D01*
X211227008Y-149082513D01*
X211227039Y-149082507D01*
X211297765Y-149067412D01*
X211297769Y-149067411D01*
X211343559Y-149057639D01*
X211343560Y-149057639D01*
X211408856Y-149043704D01*
X211408965Y-149043682D01*
X211515261Y-149021001D01*
X211515267Y-149020999D01*
X211673554Y-148987225D01*
X211673623Y-148987211D01*
X211849542Y-148949677D01*
X211849543Y-148949677D01*
X212042362Y-148908540D01*
X212042367Y-148908539D01*
X212251432Y-148863938D01*
X212251452Y-148863934D01*
X212476188Y-148815992D01*
X212715917Y-148764851D01*
X212715920Y-148764850D01*
X212969916Y-148710668D01*
X212969995Y-148710652D01*
X213237801Y-148653525D01*
X213237805Y-148653524D01*
X213518632Y-148593620D01*
X213518681Y-148593610D01*
X213812009Y-148531041D01*
X213812010Y-148531041D01*
X214272574Y-148432803D01*
X214926194Y-148293387D01*
X214926223Y-148293381D01*
X215355885Y-148201734D01*
X215355891Y-148201732D01*
X215530924Y-148164398D01*
X215531051Y-148164372D01*
X215797501Y-148107542D01*
X215797506Y-148107540D01*
X215797508Y-148107540D01*
X216095206Y-148044042D01*
X228465000Y-148044042D01*
X228465000Y-148375958D01*
X228529754Y-148701496D01*
X228656772Y-149008147D01*
X228841175Y-149284125D01*
X229075875Y-149518825D01*
X229351853Y-149703228D01*
X229658504Y-149830246D01*
X229984042Y-149895000D01*
X230315958Y-149895000D01*
X230641496Y-149830246D01*
X230948147Y-149703228D01*
X231224125Y-149518825D01*
X231458825Y-149284125D01*
X231643228Y-149008147D01*
X231770246Y-148701496D01*
X231835000Y-148375958D01*
X231835000Y-148044042D01*
X231770246Y-147718504D01*
X231643228Y-147411853D01*
X231458825Y-147135875D01*
X231224125Y-146901175D01*
X230948147Y-146716772D01*
X230641496Y-146589754D01*
X230315958Y-146525000D01*
X229984042Y-146525000D01*
X229658504Y-146589754D01*
X229351853Y-146716772D01*
X229075875Y-146901175D01*
X228841175Y-147135875D01*
X228656772Y-147411853D01*
X228529754Y-147718504D01*
X228465000Y-148044042D01*
X216095206Y-148044042D01*
X216159976Y-148030227D01*
X216160055Y-148030211D01*
X216529889Y-147951329D01*
X216529938Y-147951319D01*
X216906522Y-147870999D01*
X217289165Y-147789387D01*
X217289169Y-147789386D01*
X217872506Y-147664970D01*
X217872535Y-147664964D01*
X218467064Y-147538160D01*
X218467066Y-147538159D01*
X218867560Y-147452741D01*
X218867564Y-147452740D01*
X219473134Y-147323584D01*
X219473242Y-147323562D01*
X220287616Y-147149874D01*
X221512973Y-146888533D01*
X221512975Y-146888532D01*
X222725519Y-146629926D01*
X222725521Y-146629925D01*
X223321885Y-146502736D01*
X223321889Y-146502735D01*
X223714669Y-146418966D01*
X223714671Y-146418965D01*
X224295353Y-146295122D01*
X224295383Y-146295116D01*
X224861644Y-146174348D01*
X224861722Y-146174332D01*
X225231512Y-146095467D01*
X225773267Y-145979927D01*
X225773271Y-145979926D01*
X226464950Y-145832413D01*
X227434788Y-145625578D01*
X227434790Y-145625577D01*
X228557554Y-145386131D01*
X228557633Y-145386115D01*
X229455739Y-145194583D01*
X229455745Y-145194581D01*
X229947998Y-145089605D01*
X230134435Y-145049847D01*
X230134438Y-145049846D01*
X230236053Y-145028178D01*
X230236058Y-145028177D01*
X230278509Y-145019125D01*
X230286714Y-145016516D01*
X230295249Y-145015328D01*
X230304194Y-145013110D01*
X230316002Y-145010094D01*
X230360146Y-144994090D01*
X230405071Y-144980456D01*
X230413561Y-144976873D01*
X230448661Y-144961769D01*
X230455747Y-144957860D01*
X230463382Y-144955219D01*
X230512048Y-144926802D01*
X230561448Y-144899551D01*
X230567636Y-144894343D01*
X230574617Y-144890267D01*
X230582046Y-144884814D01*
X230611103Y-144863170D01*
X230614894Y-144859722D01*
X230619234Y-144857014D01*
X230662508Y-144816424D01*
X230706402Y-144776509D01*
X230709446Y-144772398D01*
X230713184Y-144768892D01*
X230719209Y-144761919D01*
X230742275Y-144734848D01*
X230746036Y-144729443D01*
X230750679Y-144724783D01*
X230782787Y-144676629D01*
X230815849Y-144629118D01*
X230818486Y-144623091D01*
X230822139Y-144617613D01*
X230826422Y-144609453D01*
X230843723Y-144575925D01*
X230849054Y-144562524D01*
X230856351Y-144550086D01*
X230872822Y-144502782D01*
X230891338Y-144456239D01*
X230893965Y-144442059D01*
X230898707Y-144428439D01*
X230900811Y-144419467D01*
X230910252Y-144377904D01*
X230913434Y-144352709D01*
X230919575Y-144328068D01*
X230921485Y-144288951D01*
X230926390Y-144250109D01*
X230924618Y-144224786D01*
X230925857Y-144199412D01*
X230925341Y-144190211D01*
X230922334Y-144142482D01*
X230915337Y-144099309D01*
X230911066Y-144055761D01*
X230909212Y-144046734D01*
X230900198Y-144004335D01*
X230900196Y-144004329D01*
X230878629Y-143902877D01*
X230878627Y-143902872D01*
X230839063Y-143716772D01*
X230839062Y-143716765D01*
X230789678Y-143484489D01*
X230752400Y-143309153D01*
X230690221Y-143016696D01*
X230690218Y-143016687D01*
X230594943Y-142568581D01*
X230487211Y-142061880D01*
X230487209Y-142061872D01*
X230368102Y-141501683D01*
X230368102Y-141501682D01*
X230238702Y-140893085D01*
X230238702Y-140893084D01*
X230028622Y-139905042D01*
X230028622Y-139905041D01*
X229721071Y-138458586D01*
X229721069Y-138458578D01*
X229475240Y-137302420D01*
X229475240Y-137302419D01*
X229306839Y-136510416D01*
X229306838Y-136510414D01*
X229135731Y-135705679D01*
X229135731Y-135705677D01*
X228962997Y-134893299D01*
X228789721Y-134078375D01*
X228616987Y-133266001D01*
X228616987Y-133266000D01*
X228360865Y-132061457D01*
X228360865Y-132061456D01*
X228112868Y-130895131D01*
X227953134Y-130143907D01*
X227953132Y-130143899D01*
X227724095Y-129066754D01*
X227514016Y-128078769D01*
X227514016Y-128078767D01*
X227384616Y-127470215D01*
X227384616Y-127470214D01*
X227208661Y-126642731D01*
X227208659Y-126642726D01*
X227062498Y-125955368D01*
X227062498Y-125955366D01*
X226980765Y-125571005D01*
X226980764Y-125571001D01*
X226929485Y-125329862D01*
X226899791Y-125190226D01*
X226899790Y-125190220D01*
X226862257Y-125013728D01*
X226862256Y-125013724D01*
X226843509Y-124925572D01*
X226841559Y-124919426D01*
X226841507Y-124918925D01*
X226840535Y-124915763D01*
X226839322Y-124907180D01*
X226837086Y-124898240D01*
X226833870Y-124885754D01*
X226817602Y-124841164D01*
X226803657Y-124795802D01*
X226800043Y-124787325D01*
X226784893Y-124752463D01*
X226780911Y-124745306D01*
X226778206Y-124737583D01*
X226749637Y-124689090D01*
X226722271Y-124639900D01*
X226716980Y-124633658D01*
X226712822Y-124626601D01*
X226707340Y-124619194D01*
X226685323Y-124589875D01*
X226681839Y-124586073D01*
X226679094Y-124581714D01*
X226638368Y-124538640D01*
X226598293Y-124494914D01*
X226594139Y-124491863D01*
X226590597Y-124488117D01*
X226583601Y-124482120D01*
X226556478Y-124459196D01*
X226551819Y-124455981D01*
X226547807Y-124451994D01*
X226498835Y-124419425D01*
X226450455Y-124386045D01*
X226445267Y-124383800D01*
X226440551Y-124380663D01*
X226432386Y-124376390D01*
X226399022Y-124359225D01*
X226387061Y-124354483D01*
X226375995Y-124347939D01*
X226327292Y-124330788D01*
X226279279Y-124311754D01*
X226266633Y-124309427D01*
X226254498Y-124305154D01*
X226245534Y-124303019D01*
X226204476Y-124293541D01*
X226180776Y-124290463D01*
X226157637Y-124284498D01*
X226117049Y-124282188D01*
X226076739Y-124276954D01*
X226052898Y-124278538D01*
X226029035Y-124277180D01*
X226019830Y-124277621D01*
X225972102Y-124280242D01*
X225926893Y-124287195D01*
X225881370Y-124291568D01*
X225872339Y-124293403D01*
X225837741Y-124300686D01*
X225837739Y-124300687D01*
X225778337Y-124313191D01*
X225778287Y-124313201D01*
X225734809Y-124322353D01*
X225734804Y-124322354D01*
X225663965Y-124337265D01*
X225557981Y-124359570D01*
X225557937Y-124359579D01*
X225439726Y-124384456D01*
X225309828Y-124411790D01*
X225309749Y-124411806D01*
X225095110Y-124456972D01*
X225095015Y-124456991D01*
X224853546Y-124507797D01*
X224853541Y-124507798D01*
X224680814Y-124544139D01*
X224404951Y-124602179D01*
X224404929Y-124602183D01*
X224004297Y-124686470D01*
X224004294Y-124686471D01*
X223571254Y-124777572D01*
X223571175Y-124777588D01*
X223108997Y-124874818D01*
X223108975Y-124874822D01*
X222744575Y-124951479D01*
X222744571Y-124951480D01*
X222494902Y-125004001D01*
X222494873Y-125004007D01*
X222111072Y-125084745D01*
X222111021Y-125084755D01*
X221582111Y-125196016D01*
X221582109Y-125196017D01*
X220762233Y-125368483D01*
X220762231Y-125368484D01*
X219916778Y-125546329D01*
X219916698Y-125546345D01*
X219346732Y-125666238D01*
X218489214Y-125846618D01*
X218489210Y-125846619D01*
X217359558Y-126084240D01*
X217359529Y-126084246D01*
X216270879Y-126313243D01*
X215250655Y-126527848D01*
X215250626Y-126527854D01*
X214550418Y-126675144D01*
X214550410Y-126675146D01*
X214117298Y-126766253D01*
X214117240Y-126766265D01*
X213716614Y-126850539D01*
X213716556Y-126850551D01*
X213440628Y-126908595D01*
X213440621Y-126908596D01*
X213267856Y-126944940D01*
X213267853Y-126944941D01*
X213026368Y-126995742D01*
X213026339Y-126995748D01*
X212811576Y-127040928D01*
X212811539Y-127040935D01*
X212736875Y-127056643D01*
X212735754Y-127051360D01*
X212735753Y-127051357D01*
X212735751Y-127051347D01*
X212721595Y-126984629D01*
X212721591Y-126984609D01*
X212711827Y-126938597D01*
X212711826Y-126938594D01*
X212696700Y-126867312D01*
X212696699Y-126867308D01*
X212675532Y-126767558D01*
X212675530Y-126767547D01*
X212653291Y-126662752D01*
X212653290Y-126662745D01*
X212635888Y-126580749D01*
X212635886Y-126580742D01*
X212624004Y-126524759D01*
X212623984Y-126524660D01*
X212605680Y-126438418D01*
X212605679Y-126438412D01*
X212580350Y-126319070D01*
X212580349Y-126319063D01*
X212554029Y-126195057D01*
X212554028Y-126195054D01*
X212512872Y-126001151D01*
X212512852Y-126001056D01*
X212454510Y-125726203D01*
X212454509Y-125726199D01*
X212392567Y-125434395D01*
X212392565Y-125434388D01*
X212343760Y-125204482D01*
X212343738Y-125204375D01*
X212310240Y-125046580D01*
X212310216Y-125046463D01*
X212275884Y-124884740D01*
X212275883Y-124884735D01*
X212240760Y-124719292D01*
X212240760Y-124719291D01*
X212186731Y-124464793D01*
X212186729Y-124464788D01*
X212111984Y-124112714D01*
X212111983Y-124112710D01*
X212034436Y-123747450D01*
X212034435Y-123747446D01*
X211991250Y-123544042D01*
X213455000Y-123544042D01*
X213455000Y-123875958D01*
X213519754Y-124201496D01*
X213646772Y-124508147D01*
X213831175Y-124784125D01*
X214065875Y-125018825D01*
X214341853Y-125203228D01*
X214648504Y-125330246D01*
X214974042Y-125395000D01*
X215305958Y-125395000D01*
X215631496Y-125330246D01*
X215938147Y-125203228D01*
X216214125Y-125018825D01*
X216448825Y-124784125D01*
X216633228Y-124508147D01*
X216760246Y-124201496D01*
X216825000Y-123875958D01*
X216825000Y-123544042D01*
X216760246Y-123218504D01*
X216633228Y-122911853D01*
X216448825Y-122635875D01*
X216214125Y-122401175D01*
X215938147Y-122216772D01*
X215631496Y-122089754D01*
X215305958Y-122025000D01*
X214974042Y-122025000D01*
X214648504Y-122089754D01*
X214341853Y-122216772D01*
X214065875Y-122401175D01*
X213831175Y-122635875D01*
X213646772Y-122911853D01*
X213519754Y-123218504D01*
X213455000Y-123544042D01*
X211991250Y-123544042D01*
X211954264Y-123369838D01*
X211954246Y-123369750D01*
X211871576Y-122980379D01*
X211871576Y-122980378D01*
X211807973Y-122680815D01*
X211807972Y-122680812D01*
X211764926Y-122478074D01*
X211764926Y-122478073D01*
X211699432Y-122169612D01*
X211699431Y-122169608D01*
X211610280Y-121749727D01*
X211610278Y-121749720D01*
X211542142Y-121428827D01*
X211542141Y-121428823D01*
X211496215Y-121212531D01*
X211496215Y-121212529D01*
X211426609Y-120884714D01*
X211426607Y-120884709D01*
X211332412Y-120441095D01*
X211332412Y-120441094D01*
X211236855Y-119991072D01*
X211236854Y-119991069D01*
X211140095Y-119535396D01*
X211140095Y-119535395D01*
X211042295Y-119074824D01*
X211042295Y-119074822D01*
X210943614Y-118610109D01*
X210881538Y-118317778D01*
X210881537Y-118317774D01*
X210856647Y-118200564D01*
X210819268Y-118024543D01*
X210819250Y-118024455D01*
X210744247Y-117671258D01*
X210744246Y-117671256D01*
X210643883Y-117198632D01*
X210643883Y-117198631D01*
X210543278Y-116724875D01*
X210543277Y-116724871D01*
X210442589Y-116250738D01*
X210341981Y-115776980D01*
X210341980Y-115776976D01*
X210241609Y-115304347D01*
X210241609Y-115304346D01*
X210141656Y-114833687D01*
X210141638Y-114833600D01*
X210042225Y-114365492D01*
X209943532Y-113900774D01*
X209943531Y-113900771D01*
X209845716Y-113440196D01*
X209748941Y-112984518D01*
X209748940Y-112984514D01*
X209605893Y-112310978D01*
X209605893Y-112310976D01*
X209489518Y-111763035D01*
X209489517Y-111763032D01*
X209443576Y-111546728D01*
X209375420Y-111225828D01*
X209375420Y-111225827D01*
X209286238Y-110805932D01*
X209286237Y-110805929D01*
X209220719Y-110497458D01*
X209177657Y-110294715D01*
X209177656Y-110294711D01*
X209114049Y-109995250D01*
X209114027Y-109995141D01*
X209031321Y-109605757D01*
X209031319Y-109605752D01*
X208970989Y-109321720D01*
X208970988Y-109321717D01*
X208931523Y-109135923D01*
X208931523Y-109135922D01*
X208873501Y-108862767D01*
X208873500Y-108862762D01*
X208798708Y-108510671D01*
X208798708Y-108510670D01*
X208726876Y-108172514D01*
X208726875Y-108172508D01*
X208658161Y-107849044D01*
X208658160Y-107849039D01*
X208608873Y-107617035D01*
X208608873Y-107617033D01*
X208577004Y-107467025D01*
X208577003Y-107467020D01*
X208530725Y-107249190D01*
X208530725Y-107249189D01*
X208472328Y-106974317D01*
X208472326Y-106974307D01*
X208417686Y-106717139D01*
X208417686Y-106717138D01*
X208417684Y-106717130D01*
X208366962Y-106478419D01*
X208366961Y-106478416D01*
X208366960Y-106478411D01*
X208331735Y-106312642D01*
X208331716Y-106312550D01*
X208309443Y-106207744D01*
X208309442Y-106207739D01*
X208288243Y-106107984D01*
X208288241Y-106107974D01*
X208268129Y-106013339D01*
X208268126Y-106013324D01*
X208249123Y-105923918D01*
X208249122Y-105923915D01*
X208248034Y-105918796D01*
X209015091Y-105755621D01*
X209015120Y-105755615D01*
X213505180Y-104800454D01*
X216276506Y-104210914D01*
X218215945Y-103798340D01*
X220180437Y-103380435D01*
X222119855Y-102967861D01*
X223984073Y-102571284D01*
X223984081Y-102571282D01*
X225297642Y-102291845D01*
X226126358Y-102115552D01*
X226126361Y-102115551D01*
X227286408Y-101868769D01*
X228305439Y-101651985D01*
X228305468Y-101651979D01*
X228908606Y-101523669D01*
X228908609Y-101523668D01*
X229439685Y-101410686D01*
X229892353Y-101314385D01*
X229892440Y-101314367D01*
X230260601Y-101236042D01*
X230260606Y-101236040D01*
X230260608Y-101236040D01*
X230537912Y-101177042D01*
X230636358Y-101156097D01*
X230642916Y-101154015D01*
X230643927Y-101153910D01*
X230646245Y-101153195D01*
X230653813Y-101152136D01*
X230662755Y-101149912D01*
X230675540Y-101146638D01*
X230720907Y-101130157D01*
X230767011Y-101115931D01*
X230775484Y-101112308D01*
X230810465Y-101097063D01*
X230817714Y-101093020D01*
X230825542Y-101090266D01*
X230873901Y-101061684D01*
X230922962Y-101034323D01*
X230929286Y-101028950D01*
X230936432Y-101024727D01*
X230943831Y-101019235D01*
X230972770Y-100997440D01*
X230976412Y-100994093D01*
X230980593Y-100991456D01*
X231023784Y-100950556D01*
X231067610Y-100910278D01*
X231070533Y-100906287D01*
X231074122Y-100902888D01*
X231080114Y-100895887D01*
X231103044Y-100868715D01*
X231106316Y-100863964D01*
X231110377Y-100859870D01*
X231142835Y-100810949D01*
X231176114Y-100762637D01*
X231178399Y-100757348D01*
X231181591Y-100752536D01*
X231185854Y-100744367D01*
X231203012Y-100710929D01*
X231207526Y-100699507D01*
X231213782Y-100688944D01*
X231231162Y-100639694D01*
X231250352Y-100591134D01*
X231252560Y-100579061D01*
X231256648Y-100567476D01*
X231258789Y-100558513D01*
X231268194Y-100517897D01*
X231271262Y-100494390D01*
X231277207Y-100471453D01*
X231279580Y-100430676D01*
X231284867Y-100390171D01*
X231283312Y-100366525D01*
X231284689Y-100342861D01*
X231284260Y-100333655D01*
X231281679Y-100285540D01*
X231274646Y-100239425D01*
X231270115Y-100192991D01*
X231268266Y-100183963D01*
X231263962Y-100163669D01*
X231263961Y-100163665D01*
X231254518Y-100119123D01*
X231238578Y-100043929D01*
X231238577Y-100043926D01*
X231220185Y-99957160D01*
X231220184Y-99957157D01*
X231206806Y-99894039D01*
X231206806Y-99894038D01*
X231185092Y-99791586D01*
X231152780Y-99639123D01*
X231116930Y-99469956D01*
X231077666Y-99284681D01*
X231077666Y-99284680D01*
X231035124Y-99083923D01*
X231035123Y-99083919D01*
X230989426Y-98868270D01*
X230989425Y-98868268D01*
X230940702Y-98638336D01*
X230889084Y-98394737D01*
X230889082Y-98394731D01*
X230834698Y-98138074D01*
X230748520Y-97731358D01*
X230748519Y-97731356D01*
X230624690Y-97146944D01*
X230492110Y-96521217D01*
X230492109Y-96521213D01*
X230351831Y-95859146D01*
X230351809Y-95859038D01*
X230204815Y-95165266D01*
X230204814Y-95165264D01*
X230052159Y-94444767D01*
X230052158Y-94444765D01*
X229934450Y-93889206D01*
X229934449Y-93889204D01*
X229854841Y-93513466D01*
X229854840Y-93513464D01*
X229734004Y-92943134D01*
X229733982Y-92943026D01*
X229488276Y-91783318D01*
X229488275Y-91783316D01*
X229157242Y-90220866D01*
X228830337Y-88677891D01*
X228830336Y-88677887D01*
X228362657Y-86470437D01*
X228362656Y-86470435D01*
X227965118Y-84594042D01*
X228465000Y-84594042D01*
X228465000Y-84925958D01*
X228529754Y-85251496D01*
X228656772Y-85558147D01*
X228841175Y-85834125D01*
X229075875Y-86068825D01*
X229351853Y-86253228D01*
X229658504Y-86380246D01*
X229984042Y-86445000D01*
X230315958Y-86445000D01*
X230641496Y-86380246D01*
X230948147Y-86253228D01*
X231224125Y-86068825D01*
X231458825Y-85834125D01*
X231643228Y-85558147D01*
X231770246Y-85251496D01*
X231835000Y-84925958D01*
X231835000Y-84594042D01*
X231770246Y-84268504D01*
X231643228Y-83961853D01*
X231458825Y-83685875D01*
X231224125Y-83451175D01*
X230948147Y-83266772D01*
X230641496Y-83139754D01*
X230315958Y-83075000D01*
X229984042Y-83075000D01*
X229658504Y-83139754D01*
X229351853Y-83266772D01*
X229075875Y-83451175D01*
X228841175Y-83685875D01*
X228656772Y-83961853D01*
X228529754Y-84268504D01*
X228465000Y-84594042D01*
X227965118Y-84594042D01*
X227832491Y-83968042D01*
X227546119Y-82616361D01*
X227481049Y-82309233D01*
X227537404Y-82297043D01*
X227537430Y-82297038D01*
X227735667Y-82254164D01*
X227735685Y-82254160D01*
X228026800Y-82191200D01*
X228026819Y-82191196D01*
X228340924Y-82123266D01*
X228340927Y-82123265D01*
X228671377Y-82051803D01*
X228671436Y-82051791D01*
X228926297Y-81996675D01*
X228926304Y-81996673D01*
X229097596Y-81959632D01*
X229097704Y-81959609D01*
X229355445Y-81903874D01*
X229355448Y-81903873D01*
X229695832Y-81830265D01*
X229695833Y-81830265D01*
X230188383Y-81723755D01*
X230188385Y-81723754D01*
X230770816Y-81597809D01*
X231222100Y-81500223D01*
X231373416Y-81467502D01*
X231380182Y-81465329D01*
X231381419Y-81465195D01*
X231383908Y-81464415D01*
X231391559Y-81463310D01*
X231400492Y-81461046D01*
X231413033Y-81457775D01*
X231458297Y-81441105D01*
X231504335Y-81426678D01*
X231512792Y-81423018D01*
X231547601Y-81407666D01*
X231554328Y-81403875D01*
X231561604Y-81401294D01*
X231610392Y-81372286D01*
X231659823Y-81344434D01*
X231665684Y-81339411D01*
X231672322Y-81335464D01*
X231679707Y-81329952D01*
X231708189Y-81308384D01*
X231711566Y-81305264D01*
X231715453Y-81302804D01*
X231758855Y-81261573D01*
X231802800Y-81220973D01*
X231805507Y-81217256D01*
X231808842Y-81214088D01*
X231814823Y-81207078D01*
X231837921Y-81179618D01*
X231841089Y-81175003D01*
X231845027Y-81171024D01*
X231877525Y-81121929D01*
X231910824Y-81073424D01*
X231913034Y-81068285D01*
X231916126Y-81063614D01*
X231920381Y-81055440D01*
X231937389Y-81022206D01*
X231941908Y-81010734D01*
X231948174Y-81000126D01*
X231965479Y-80950901D01*
X231984601Y-80902361D01*
X231986804Y-80890242D01*
X231990894Y-80878607D01*
X231993024Y-80869641D01*
X232002472Y-80828614D01*
X232005517Y-80805066D01*
X232011442Y-80782078D01*
X232013758Y-80741334D01*
X232018991Y-80700868D01*
X232017405Y-80677187D01*
X232018753Y-80653476D01*
X232018311Y-80644271D01*
X232015691Y-80596614D01*
X232008638Y-80550777D01*
X232004110Y-80504615D01*
X232002256Y-80495588D01*
X231997849Y-80474861D01*
X231988152Y-80429239D01*
X231988152Y-80429238D01*
X231974520Y-80365086D01*
X231965619Y-80323186D01*
X231946146Y-80231523D01*
X231924190Y-80128153D01*
X231924189Y-80128149D01*
X231908422Y-80053906D01*
X231891701Y-79975166D01*
X231891699Y-79975158D01*
X231874039Y-79891999D01*
X231855463Y-79804515D01*
X231855461Y-79804509D01*
X231840908Y-79735971D01*
X231840907Y-79735969D01*
X231830973Y-79689181D01*
X231830948Y-79689061D01*
X231815619Y-79616863D01*
X231815617Y-79616855D01*
X231794383Y-79516848D01*
X231761048Y-79359829D01*
X231725643Y-79193061D01*
X231701103Y-79077471D01*
X231662927Y-78897637D01*
X231662927Y-78897636D01*
X231622851Y-78708853D01*
X231622851Y-78708852D01*
X231595280Y-78578967D01*
X231566990Y-78445694D01*
X231566990Y-78445693D01*
X231538000Y-78309122D01*
X231538000Y-78309121D01*
X231493324Y-78098647D01*
X231431350Y-77806670D01*
X231366903Y-77503039D01*
X231366881Y-77502931D01*
X231316901Y-77267454D01*
X231316900Y-77267450D01*
X231282938Y-77107440D01*
X231282922Y-77107361D01*
X231230995Y-76862703D01*
X231230994Y-76862699D01*
X231159848Y-76527486D01*
X231086747Y-76183050D01*
X231086745Y-76183042D01*
X231011822Y-75830027D01*
X231011822Y-75830026D01*
X230896534Y-75286803D01*
X230896506Y-75286666D01*
X230777476Y-74725813D01*
X230696636Y-74344894D01*
X230696620Y-74344815D01*
X230573344Y-73763928D01*
X230573343Y-73763924D01*
X230405559Y-72973301D01*
X230405558Y-72973297D01*
X230277855Y-72371532D01*
X230277833Y-72371424D01*
X230192118Y-71967518D01*
X230106069Y-71562026D01*
X230106068Y-71562024D01*
X230019817Y-71155575D01*
X229890337Y-70545415D01*
X229718252Y-69734483D01*
X229718236Y-69734404D01*
X229590239Y-69131221D01*
X229505604Y-68732381D01*
X229505603Y-68732377D01*
X229379968Y-68140317D01*
X229379967Y-68140315D01*
X229215961Y-67367415D01*
X229215960Y-67367413D01*
X229056808Y-66617386D01*
X228903589Y-65895320D01*
X228903587Y-65895314D01*
X228757385Y-65206300D01*
X228619289Y-64555490D01*
X228619273Y-64555411D01*
X228490332Y-63947736D01*
X228490331Y-63947734D01*
X228371641Y-63388366D01*
X228371640Y-63388364D01*
X228290378Y-63005384D01*
X228239734Y-62766697D01*
X228239734Y-62766696D01*
X228169329Y-62434879D01*
X228169328Y-62434875D01*
X228107353Y-62142785D01*
X228070196Y-61967657D01*
X228070195Y-61967652D01*
X228020969Y-61735634D01*
X228020968Y-61735632D01*
X227981518Y-61549687D01*
X227960008Y-61448294D01*
X227960007Y-61448291D01*
X227951019Y-61405922D01*
X227948765Y-61398807D01*
X227947769Y-61391408D01*
X227945592Y-61382454D01*
X227942170Y-61368799D01*
X227925178Y-61321260D01*
X227910204Y-61273012D01*
X227906567Y-61264545D01*
X227890938Y-61228844D01*
X227886194Y-61220370D01*
X227882917Y-61211230D01*
X227854769Y-61164240D01*
X227828013Y-61116450D01*
X227821716Y-61109062D01*
X227816724Y-61100729D01*
X227811188Y-61093362D01*
X227789208Y-61064533D01*
X227784705Y-61059691D01*
X227781119Y-61054141D01*
X227740870Y-61012558D01*
X227701486Y-60970210D01*
X227696136Y-60966340D01*
X227691534Y-60961586D01*
X227684468Y-60955671D01*
X227656919Y-60932934D01*
X227652402Y-60929895D01*
X227648506Y-60926107D01*
X227599022Y-60893979D01*
X227550047Y-60861028D01*
X227545033Y-60858927D01*
X227540469Y-60855964D01*
X227532258Y-60851782D01*
X227500603Y-60835935D01*
X227489994Y-60831864D01*
X227480180Y-60826146D01*
X227429946Y-60808822D01*
X227380343Y-60789788D01*
X227369152Y-60787856D01*
X227358408Y-60784151D01*
X227349430Y-60782074D01*
X227307662Y-60772717D01*
X227284454Y-60769856D01*
X227261790Y-60764132D01*
X227220677Y-60761995D01*
X227179820Y-60756959D01*
X227156508Y-60758660D01*
X227133153Y-60757446D01*
X227123951Y-60757933D01*
X227076300Y-60760785D01*
X227032049Y-60767814D01*
X226987443Y-60772194D01*
X226978416Y-60774049D01*
X226951553Y-60779763D01*
X226891086Y-60792625D01*
X226822771Y-60807156D01*
X226822750Y-60807160D01*
X226746826Y-60823309D01*
X226746805Y-60823313D01*
X226620051Y-60850272D01*
X226620049Y-60850273D01*
X226425674Y-60891614D01*
X226425604Y-60891628D01*
X226205356Y-60938469D01*
X226205354Y-60938470D01*
X225961405Y-60990351D01*
X225961384Y-60990355D01*
X225695849Y-61046825D01*
X225695741Y-61046847D01*
X225410495Y-61107508D01*
X225410491Y-61107509D01*
X224952216Y-61204966D01*
X224952195Y-61204970D01*
X224288847Y-61346033D01*
X224288843Y-61346034D01*
X223851100Y-61439120D01*
X223851041Y-61439132D01*
X223672952Y-61477003D01*
X223672950Y-61477004D01*
X223402999Y-61534409D01*
X223402920Y-61534425D01*
X222854857Y-61650969D01*
X222854853Y-61650970D01*
X222117226Y-61807822D01*
X222117222Y-61807823D01*
X221387930Y-61962901D01*
X221387851Y-61962917D01*
X220683234Y-62112746D01*
X220683230Y-62112747D01*
X220019890Y-62253797D01*
X220019886Y-62253798D01*
X219414319Y-62382560D01*
X219414315Y-62382561D01*
X219010696Y-62468382D01*
X219010694Y-62468383D01*
X218766745Y-62520253D01*
X218766724Y-62520257D01*
X218599990Y-62555708D01*
X218599988Y-62555709D01*
X218496185Y-62577779D01*
X218481648Y-62580870D01*
X218452668Y-62445059D01*
X218452667Y-62445052D01*
X218373752Y-62075248D01*
X218373751Y-62075244D01*
X218281899Y-61644831D01*
X218281898Y-61644828D01*
X218204794Y-61283531D01*
X218204794Y-61283530D01*
X218150136Y-61027413D01*
X218150135Y-61027410D01*
X218092847Y-60758976D01*
X218092825Y-60758869D01*
X218032992Y-60478508D01*
X218032990Y-60478503D01*
X217970764Y-60186933D01*
X217970764Y-60186932D01*
X217906273Y-59884753D01*
X217906273Y-59884752D01*
X217805818Y-59414059D01*
X217805818Y-59414058D01*
X217664805Y-58753334D01*
X217664803Y-58753329D01*
X217441640Y-57707699D01*
X217441640Y-57707698D01*
X217125460Y-56226250D01*
X216796861Y-54686622D01*
X216796861Y-54686621D01*
X216297751Y-52348099D01*
X216297749Y-52348091D01*
X215665418Y-49385393D01*
X215665390Y-49385257D01*
X215257358Y-47473470D01*
X215082838Y-46655774D01*
X215082837Y-46655772D01*
X214979084Y-46169642D01*
X214979083Y-46169640D01*
X214887232Y-45739272D01*
X214887231Y-45739270D01*
X214808318Y-45369514D01*
X214808318Y-45369513D01*
X214743378Y-45065222D01*
X214743377Y-45065220D01*
X214704956Y-44885186D01*
X214704954Y-44885181D01*
X214688940Y-44810137D01*
X214675123Y-44745380D01*
X214671857Y-44735112D01*
X214671427Y-44731310D01*
X214671155Y-44730455D01*
X214670241Y-44724213D01*
X214667960Y-44715285D01*
X214664281Y-44701291D01*
X214647241Y-44655303D01*
X214632369Y-44608565D01*
X214628672Y-44600124D01*
X214613236Y-44565538D01*
X214609642Y-44559225D01*
X214607195Y-44552393D01*
X214577810Y-44503308D01*
X214549510Y-44453596D01*
X214544764Y-44448107D01*
X214541032Y-44441874D01*
X214535498Y-44434505D01*
X214513774Y-44405996D01*
X214510686Y-44402674D01*
X214508252Y-44398852D01*
X214466869Y-44355535D01*
X214426077Y-44311649D01*
X214422406Y-44308992D01*
X214419273Y-44305713D01*
X214412246Y-44299752D01*
X214384957Y-44276928D01*
X214380248Y-44273715D01*
X214376181Y-44269715D01*
X214327078Y-44237433D01*
X214278558Y-44204324D01*
X214273314Y-44202086D01*
X214268548Y-44198953D01*
X214260361Y-44194724D01*
X214227168Y-44177868D01*
X214215007Y-44173121D01*
X214203733Y-44166543D01*
X214155100Y-44149737D01*
X214107175Y-44131031D01*
X214094328Y-44128737D01*
X214081987Y-44124473D01*
X214073010Y-44122391D01*
X214031916Y-44113158D01*
X214008042Y-44110200D01*
X213984711Y-44104343D01*
X213944270Y-44102299D01*
X213904083Y-44097320D01*
X213880094Y-44099055D01*
X213856066Y-44097841D01*
X213846864Y-44098341D01*
X213799627Y-44101236D01*
X213756119Y-44108210D01*
X213712261Y-44112479D01*
X213703232Y-44114326D01*
X213640838Y-44127543D01*
X213640792Y-44127552D01*
X213480679Y-44161470D01*
X213480672Y-44161472D01*
X213480673Y-44161472D01*
X213279528Y-44204084D01*
X213279470Y-44204096D01*
X213038525Y-44255140D01*
X213038523Y-44255141D01*
X213038521Y-44255141D01*
X212293122Y-44413057D01*
X212293014Y-44413079D01*
X210615198Y-44768531D01*
X210615190Y-44768533D01*
X208463166Y-45224453D01*
X206579733Y-45623470D01*
X206579704Y-45623476D01*
X205228864Y-45909661D01*
X203081364Y-46364626D01*
X198452322Y-47345326D01*
X198452293Y-47345332D01*
X188763265Y-49398034D01*
X180799204Y-51085287D01*
X177444530Y-51796002D01*
X177231722Y-51841087D01*
X177227570Y-51821858D01*
X177227567Y-51821843D01*
X177214073Y-51759354D01*
X177214070Y-51759342D01*
X177200129Y-51694789D01*
X177200125Y-51694768D01*
X177185758Y-51628253D01*
X177170989Y-51559877D01*
X177170988Y-51559873D01*
X177155838Y-51489735D01*
X177155836Y-51489729D01*
X177155834Y-51489719D01*
X177132481Y-51381617D01*
X177132478Y-51381602D01*
X177114392Y-51297891D01*
X177114391Y-51297888D01*
X177104208Y-51250757D01*
X177104208Y-51250756D01*
X177091849Y-51193552D01*
X177091847Y-51193542D01*
X177075115Y-51116106D01*
X177075115Y-51116105D01*
X177075112Y-51116092D01*
X177058146Y-51037579D01*
X177058130Y-51037501D01*
X177032259Y-50917775D01*
X177032258Y-50917771D01*
X177032255Y-50917758D01*
X176997045Y-50754834D01*
X176997044Y-50754828D01*
X176961223Y-50589084D01*
X176961222Y-50589078D01*
X176924968Y-50421342D01*
X176924962Y-50421311D01*
X176888440Y-50252343D01*
X176888438Y-50252336D01*
X176851842Y-50083034D01*
X176851825Y-50082953D01*
X176815297Y-49913980D01*
X176815295Y-49913975D01*
X176779048Y-49746301D01*
X176779027Y-49746202D01*
X176743192Y-49580447D01*
X176743192Y-49580446D01*
X176743190Y-49580438D01*
X176707961Y-49417496D01*
X176707961Y-49417495D01*
X176707959Y-49417487D01*
X176673510Y-49258163D01*
X176673509Y-49258160D01*
X176640016Y-49103262D01*
X176640015Y-49103257D01*
X176615666Y-48990653D01*
X176615664Y-48990647D01*
X176599800Y-48917281D01*
X176599800Y-48917280D01*
X176599798Y-48917272D01*
X176576616Y-48810071D01*
X176576589Y-48809941D01*
X176547006Y-48673148D01*
X176547003Y-48673138D01*
X176519091Y-48544080D01*
X176519070Y-48543980D01*
X176492964Y-48423280D01*
X176492963Y-48423277D01*
X176492962Y-48423272D01*
X176468856Y-48311826D01*
X176468855Y-48311822D01*
X176468852Y-48311809D01*
X176446920Y-48210421D01*
X176446918Y-48210413D01*
X176446916Y-48210406D01*
X176432101Y-48141931D01*
X176432074Y-48141801D01*
X176422901Y-48099405D01*
X176422900Y-48099402D01*
X176422899Y-48099397D01*
X176402852Y-48006749D01*
X176400315Y-47998853D01*
X176399155Y-47990642D01*
X176396919Y-47981703D01*
X176393722Y-47969291D01*
X176377426Y-47924626D01*
X176363438Y-47879169D01*
X176359822Y-47870693D01*
X176344652Y-47835812D01*
X176340892Y-47829057D01*
X176338348Y-47821770D01*
X176309608Y-47772863D01*
X176281998Y-47723267D01*
X176277003Y-47717378D01*
X176273088Y-47710716D01*
X176267614Y-47703303D01*
X176246053Y-47674525D01*
X176242243Y-47670359D01*
X176239237Y-47665588D01*
X176198810Y-47622862D01*
X176159128Y-47579467D01*
X176154588Y-47576125D01*
X176150707Y-47572023D01*
X176143708Y-47566028D01*
X176116005Y-47542631D01*
X176110416Y-47538778D01*
X176105591Y-47534018D01*
X176057432Y-47502250D01*
X176009955Y-47469519D01*
X176003736Y-47466830D01*
X175998068Y-47463091D01*
X175989887Y-47458849D01*
X175956647Y-47441905D01*
X175944225Y-47437034D01*
X175932711Y-47430306D01*
X175884360Y-47413562D01*
X175836726Y-47394885D01*
X175823602Y-47392521D01*
X175810994Y-47388155D01*
X175802018Y-47386066D01*
X175760962Y-47376813D01*
X175736476Y-47373763D01*
X175712552Y-47367787D01*
X175672721Y-47365821D01*
X175633140Y-47360891D01*
X175608540Y-47362654D01*
X175583899Y-47361438D01*
X175574698Y-47361948D01*
X175526970Y-47364930D01*
X175483044Y-47372025D01*
X175438760Y-47376448D01*
X175429737Y-47378318D01*
X175409499Y-47382658D01*
X175409497Y-47382659D01*
X175409476Y-47382663D01*
X175353001Y-47394776D01*
X175353000Y-47394776D01*
X175352968Y-47394783D01*
X175290014Y-47408289D01*
X175290013Y-47408289D01*
X175173192Y-47433350D01*
X175173191Y-47433350D01*
X175173183Y-47433352D01*
X175038596Y-47462226D01*
X175038508Y-47462244D01*
X174806413Y-47512038D01*
X174806410Y-47512039D01*
X174437305Y-47591229D01*
X174437276Y-47591235D01*
X174007693Y-47683401D01*
X174007664Y-47683407D01*
X173522412Y-47787518D01*
X173522409Y-47787519D01*
X172986354Y-47902532D01*
X172404335Y-48027407D01*
X171781213Y-48161101D01*
X171781184Y-48161107D01*
X171121746Y-48302595D01*
X171121744Y-48302596D01*
X170078151Y-48526506D01*
X170078144Y-48526508D01*
X167840945Y-49006519D01*
X164728890Y-49674236D01*
X164728888Y-49674237D01*
X162491520Y-50154279D01*
X161109559Y-50450787D01*
X161109557Y-50450788D01*
X159863078Y-50718225D01*
X159863029Y-50718235D01*
X159046630Y-50893393D01*
X158561239Y-50997533D01*
X158561220Y-50997537D01*
X158235250Y-51067471D01*
X158235246Y-51067472D01*
X158035171Y-51110396D01*
X158035169Y-51110397D01*
X157762109Y-51168977D01*
X157762105Y-51168978D01*
X157628372Y-51197668D01*
X157616578Y-51142265D01*
X157616577Y-51142260D01*
X157595723Y-51044298D01*
X157595722Y-51044295D01*
X157595721Y-51044290D01*
X157577641Y-50959365D01*
X157577641Y-50959364D01*
X157559035Y-50871967D01*
X157559007Y-50871832D01*
X157527907Y-50725768D01*
X157527899Y-50725727D01*
X157495479Y-50573473D01*
X157495477Y-50573468D01*
X157444880Y-50335847D01*
X157444879Y-50335844D01*
X157444878Y-50335839D01*
X157374259Y-50004216D01*
X157374258Y-50004210D01*
X157301538Y-49662734D01*
X157301536Y-49662727D01*
X157246469Y-49404159D01*
X157246469Y-49404158D01*
X157209845Y-49232190D01*
X157209844Y-49232188D01*
X157155392Y-48976507D01*
X157155392Y-48976505D01*
X157084772Y-48644915D01*
X157084770Y-48644909D01*
X157017673Y-48329852D01*
X157017659Y-48329783D01*
X156955450Y-48037663D01*
X156913085Y-47838720D01*
X156913083Y-47838713D01*
X156886974Y-47716101D01*
X156862890Y-47602987D01*
X156862878Y-47602929D01*
X156846303Y-47525088D01*
X156846301Y-47525082D01*
X156835958Y-47476499D01*
X156835938Y-47476399D01*
X156821435Y-47408269D01*
X156821434Y-47408267D01*
X156808518Y-47347591D01*
X156808517Y-47347588D01*
X156797064Y-47293770D01*
X156795199Y-47287895D01*
X156794396Y-47281781D01*
X156792248Y-47272820D01*
X156789235Y-47260626D01*
X156773034Y-47214827D01*
X156759055Y-47168293D01*
X156755495Y-47159793D01*
X156740465Y-47124592D01*
X156736128Y-47116676D01*
X156733177Y-47108147D01*
X156705215Y-47060261D01*
X156678567Y-47011629D01*
X156672776Y-47004708D01*
X156668224Y-46996913D01*
X156662770Y-46989484D01*
X156641346Y-46960724D01*
X156637750Y-46956769D01*
X156634915Y-46952234D01*
X156594435Y-46909137D01*
X156554685Y-46865425D01*
X156550390Y-46862245D01*
X156546728Y-46858346D01*
X156539751Y-46852326D01*
X156512609Y-46829232D01*
X156507689Y-46825813D01*
X156503448Y-46821579D01*
X156454817Y-46789077D01*
X156406828Y-46755732D01*
X156401342Y-46753336D01*
X156396355Y-46750003D01*
X156388200Y-46745712D01*
X156355053Y-46728561D01*
X156341531Y-46723164D01*
X156328990Y-46715796D01*
X156281834Y-46699340D01*
X156235419Y-46680816D01*
X156221114Y-46678150D01*
X156207373Y-46673355D01*
X156198403Y-46671245D01*
X156155690Y-46661512D01*
X156130477Y-46658310D01*
X156105822Y-46652149D01*
X156066727Y-46650215D01*
X156027907Y-46645286D01*
X156002561Y-46647042D01*
X155977169Y-46645786D01*
X155967968Y-46646296D01*
X155920782Y-46649239D01*
X155877437Y-46656236D01*
X155833730Y-46660517D01*
X155824703Y-46662369D01*
X155738650Y-46680652D01*
X155738645Y-46680654D01*
X155738638Y-46680655D01*
X155567438Y-46717032D01*
X155567334Y-46717053D01*
X155432187Y-46745772D01*
X155432180Y-46745774D01*
X155432181Y-46745774D01*
X155199272Y-46795270D01*
X155199243Y-46795276D01*
X154828819Y-46873996D01*
X154828731Y-46874014D01*
X154397487Y-46965661D01*
X154397485Y-46965662D01*
X153910365Y-47069183D01*
X153910356Y-47069186D01*
X153091009Y-47243317D01*
X153091001Y-47243319D01*
X151839848Y-47509223D01*
X151839819Y-47509229D01*
X150452619Y-47804049D01*
X150452590Y-47804055D01*
X148968199Y-48119534D01*
X147425515Y-48447404D01*
X147425507Y-48447406D01*
X145082369Y-48945402D01*
X142113744Y-49576336D01*
X139611684Y-50108110D01*
X137953769Y-50460475D01*
X137915616Y-50282508D01*
X137915594Y-50282400D01*
X137872183Y-50079901D01*
X137841235Y-49935528D01*
X137841234Y-49935526D01*
X137808640Y-49783472D01*
X137808639Y-49783469D01*
X137774475Y-49624084D01*
X137774475Y-49624083D01*
X137738810Y-49457696D01*
X137701721Y-49284660D01*
X137643730Y-49014100D01*
X137643729Y-49014096D01*
X137561874Y-48632197D01*
X137561873Y-48632193D01*
X137475632Y-48229826D01*
X137385591Y-47809716D01*
X137385590Y-47809712D01*
X137292354Y-47374689D01*
X137292334Y-47374594D01*
X137147915Y-46700758D01*
X137050031Y-46244042D01*
X189165000Y-46244042D01*
X189165000Y-46575958D01*
X189229754Y-46901496D01*
X189356772Y-47208147D01*
X189541175Y-47484125D01*
X189775875Y-47718825D01*
X190051853Y-47903228D01*
X190358504Y-48030246D01*
X190684042Y-48095000D01*
X191015958Y-48095000D01*
X191341496Y-48030246D01*
X191648147Y-47903228D01*
X191924125Y-47718825D01*
X192158825Y-47484125D01*
X192343228Y-47208147D01*
X192470246Y-46901496D01*
X192535000Y-46575958D01*
X192535000Y-46244042D01*
X192470246Y-45918504D01*
X192343228Y-45611853D01*
X192158825Y-45335875D01*
X191924125Y-45101175D01*
X191648147Y-44916772D01*
X191341496Y-44789754D01*
X191015958Y-44725000D01*
X190684042Y-44725000D01*
X190358504Y-44789754D01*
X190051853Y-44916772D01*
X189775875Y-45101175D01*
X189541175Y-45335875D01*
X189356772Y-45611853D01*
X189229754Y-45918504D01*
X189165000Y-46244042D01*
X137050031Y-46244042D01*
X136949118Y-45773199D01*
X136747982Y-44834728D01*
X136747981Y-44834725D01*
X136598590Y-44137701D01*
X136598590Y-44137700D01*
X136500653Y-43680752D01*
X136500653Y-43680751D01*
X136404763Y-43233359D01*
X136404761Y-43233354D01*
X136311522Y-42798335D01*
X136311504Y-42798247D01*
X136221462Y-42378154D01*
X136221461Y-42378151D01*
X136135220Y-41975802D01*
X136135219Y-41975797D01*
X136053363Y-41593921D01*
X136053361Y-41593914D01*
X135976475Y-41235242D01*
X135976474Y-41235237D01*
X135922611Y-40983976D01*
X135922610Y-40983972D01*
X135896907Y-40864078D01*
X135896889Y-40863989D01*
X135880194Y-40786114D01*
X135880193Y-40786112D01*
X135855866Y-40672637D01*
X135855850Y-40672558D01*
X135832534Y-40563796D01*
X135832533Y-40563793D01*
X135832531Y-40563783D01*
X135817481Y-40493586D01*
X135817480Y-40493583D01*
X135802864Y-40425412D01*
X135802863Y-40425408D01*
X135788714Y-40359419D01*
X135788690Y-40359301D01*
X135768222Y-40263846D01*
X135768220Y-40263836D01*
X135742642Y-40144553D01*
X135742641Y-40144547D01*
X135719001Y-40034307D01*
X135719001Y-40034306D01*
X135718999Y-40034298D01*
X135702649Y-39958059D01*
X135702646Y-39958044D01*
X135692347Y-39910025D01*
X135692345Y-39910015D01*
X135677817Y-39842283D01*
X135677816Y-39842279D01*
X135677812Y-39842261D01*
X135664631Y-39780820D01*
X135664630Y-39780817D01*
X135648908Y-39707533D01*
X135648907Y-39707530D01*
X135648901Y-39707501D01*
X135638629Y-39659633D01*
X135636869Y-39654123D01*
X135636864Y-39654071D01*
X135635897Y-39650927D01*
X135634695Y-39642424D01*
X135632459Y-39633485D01*
X135629262Y-39621073D01*
X135612967Y-39576410D01*
X135598981Y-39530958D01*
X135595364Y-39522482D01*
X135580194Y-39487600D01*
X135575799Y-39479704D01*
X135572788Y-39471187D01*
X135544510Y-39423499D01*
X135517542Y-39375054D01*
X135511699Y-39368165D01*
X135507089Y-39360391D01*
X135501586Y-39353000D01*
X135479113Y-39323250D01*
X135474952Y-39318736D01*
X135471653Y-39313563D01*
X135431331Y-39271410D01*
X135391813Y-39228536D01*
X135386860Y-39224920D01*
X135382615Y-39220482D01*
X135375584Y-39214525D01*
X135348295Y-39191732D01*
X135343592Y-39188528D01*
X135339538Y-39184545D01*
X135290418Y-39152293D01*
X135241849Y-39119197D01*
X135236620Y-39116970D01*
X135231864Y-39113847D01*
X135223674Y-39109623D01*
X135190481Y-39092792D01*
X135178417Y-39088091D01*
X135167233Y-39081570D01*
X135118500Y-39064745D01*
X135070460Y-39046027D01*
X135057714Y-39043759D01*
X135045475Y-39039534D01*
X135036498Y-39037454D01*
X134995403Y-39028233D01*
X134971795Y-39025315D01*
X134948721Y-39019509D01*
X134908008Y-39017430D01*
X134867566Y-39012431D01*
X134843844Y-39014154D01*
X134820079Y-39012940D01*
X134810877Y-39013435D01*
X134763640Y-39016305D01*
X134720082Y-39023264D01*
X134676165Y-39027522D01*
X134667136Y-39029366D01*
X134581413Y-39047491D01*
X134581384Y-39047497D01*
X134410701Y-39083586D01*
X134410698Y-39083587D01*
X134276043Y-39112057D01*
X134276041Y-39112058D01*
X134043943Y-39161130D01*
X134043940Y-39161131D01*
X133674802Y-39239174D01*
X133674773Y-39239180D01*
X133245090Y-39330024D01*
X132884454Y-39406267D01*
X132884396Y-39406279D01*
X132693453Y-39446647D01*
X132693416Y-39446655D01*
X132562438Y-39474347D01*
X132223536Y-39545996D01*
X131641351Y-39669078D01*
X131641349Y-39669079D01*
X131018014Y-39800859D01*
X131018012Y-39800860D01*
X130358476Y-39940293D01*
X130358368Y-39940315D01*
X129314455Y-40161008D01*
X129314426Y-40161014D01*
X127076444Y-40634147D01*
X127076442Y-40634148D01*
X124741577Y-41127760D01*
X123586219Y-41372014D01*
X122829686Y-41531954D01*
X122090088Y-41688313D01*
X121372294Y-41840063D01*
X121372265Y-41840069D01*
X120681113Y-41986187D01*
X120681055Y-41986199D01*
X120021303Y-42125681D01*
X120021297Y-42125683D01*
X119397927Y-42257475D01*
X119397848Y-42257491D01*
X118815528Y-42380603D01*
X118815525Y-42380604D01*
X118279183Y-42493998D01*
X117911743Y-42571682D01*
X117911706Y-42571690D01*
X117682557Y-42620139D01*
X117682555Y-42620140D01*
X117363872Y-42687518D01*
X117363785Y-42687536D01*
X117082830Y-42746939D01*
X117082822Y-42746941D01*
X116914169Y-42782601D01*
X116914167Y-42782602D01*
X116914165Y-42782602D01*
X116859911Y-42794074D01*
X116855787Y-42774509D01*
X116855785Y-42774502D01*
X116845981Y-42727987D01*
X116834213Y-42672123D01*
X116834212Y-42672120D01*
X116819450Y-42602040D01*
X116819449Y-42602037D01*
X116804489Y-42530990D01*
X116804468Y-42530889D01*
X116793105Y-42476918D01*
X116793104Y-42476916D01*
X116777836Y-42404383D01*
X116758645Y-42313192D01*
X116758645Y-42313191D01*
X116747114Y-42258394D01*
X116747113Y-42258390D01*
X116731768Y-42185458D01*
X116716507Y-42112916D01*
X116701390Y-42041046D01*
X116679060Y-41934873D01*
X116679060Y-41934872D01*
X116657426Y-41832003D01*
X116643424Y-41765415D01*
X116643423Y-41765412D01*
X116623155Y-41669022D01*
X116623153Y-41669017D01*
X116623152Y-41669010D01*
X116597977Y-41549296D01*
X116597976Y-41549290D01*
X116580782Y-41467529D01*
X116580761Y-41467427D01*
X116570091Y-41416695D01*
X116570091Y-41416694D01*
X116570088Y-41416681D01*
X116560168Y-41369520D01*
X116560166Y-41369513D01*
X116560163Y-41369499D01*
X116546848Y-41306208D01*
X116543949Y-41297004D01*
X116543628Y-41294037D01*
X116543052Y-41292197D01*
X116542016Y-41284981D01*
X116539760Y-41276046D01*
X116536305Y-41262754D01*
X116519610Y-41217306D01*
X116505149Y-41171108D01*
X116501492Y-41162650D01*
X116486083Y-41127682D01*
X116482451Y-41121232D01*
X116479986Y-41114255D01*
X116450881Y-41065160D01*
X116422886Y-41015440D01*
X116418073Y-41009821D01*
X116414298Y-41003453D01*
X116408796Y-40996061D01*
X116387154Y-40967405D01*
X116384224Y-40964225D01*
X116381923Y-40960573D01*
X116340619Y-40916907D01*
X116299864Y-40872682D01*
X116296376Y-40870135D01*
X116293407Y-40866996D01*
X116286409Y-40861000D01*
X116259286Y-40838086D01*
X116254653Y-40834891D01*
X116250666Y-40830929D01*
X116201663Y-40798348D01*
X116153247Y-40764958D01*
X116148091Y-40762728D01*
X116143402Y-40759610D01*
X116135236Y-40755338D01*
X116101997Y-40738241D01*
X116089322Y-40733218D01*
X116077583Y-40726314D01*
X116029556Y-40709532D01*
X115982248Y-40690784D01*
X115968851Y-40688321D01*
X115955982Y-40683824D01*
X115947013Y-40681711D01*
X115905466Y-40672226D01*
X115881135Y-40669126D01*
X115857366Y-40663108D01*
X115817398Y-40661007D01*
X115777689Y-40655948D01*
X115753228Y-40657633D01*
X115728733Y-40656345D01*
X115719531Y-40656827D01*
X115672294Y-40659626D01*
X115628634Y-40666534D01*
X115584618Y-40670748D01*
X115575587Y-40672581D01*
X115487310Y-40691134D01*
X115487308Y-40691134D01*
X115487301Y-40691136D01*
X115245407Y-40741979D01*
X115245321Y-40741996D01*
X114753629Y-40845345D01*
X114753621Y-40845347D01*
X113856747Y-41033863D01*
X113856718Y-41033869D01*
X112735530Y-41269535D01*
X112735472Y-41269547D01*
X111430666Y-41543812D01*
X111430664Y-41543813D01*
X110352649Y-41770406D01*
X110352620Y-41770412D01*
X109600771Y-41928448D01*
X109600763Y-41928450D01*
X108826076Y-42091289D01*
X108825967Y-42091311D01*
X108033304Y-42257926D01*
X108033298Y-42257928D01*
X106822722Y-42512390D01*
X106822614Y-42512412D01*
X105191299Y-42855312D01*
X105191291Y-42855314D01*
X103580320Y-43193939D01*
X103580291Y-43193945D01*
X102030393Y-43519733D01*
X102030364Y-43519739D01*
X100582294Y-43824126D01*
X99276880Y-44098527D01*
X99276851Y-44098533D01*
X98154812Y-44334391D01*
X98154806Y-44334393D01*
X97466129Y-44479158D01*
X97173116Y-44540752D01*
X97173051Y-44540765D01*
X96997310Y-44577709D01*
X96997308Y-44577710D01*
X96839166Y-44610954D01*
X96839086Y-44610970D01*
X96699040Y-44640411D01*
X96699004Y-44640418D01*
X96577749Y-44665909D01*
X96577713Y-44665916D01*
X96475855Y-44687330D01*
X96475850Y-44687331D01*
X96475828Y-44687336D01*
X96433232Y-44696293D01*
X96421019Y-44700138D01*
X96408346Y-44702030D01*
X96399424Y-44704337D01*
X96383295Y-44708626D01*
X96334525Y-44726853D01*
X96285105Y-44743235D01*
X96276709Y-44747033D01*
X96242459Y-44762815D01*
X96236838Y-44766105D01*
X96230728Y-44768361D01*
X96181297Y-44798612D01*
X96131291Y-44827880D01*
X96126417Y-44832198D01*
X96120860Y-44835599D01*
X96113546Y-44841205D01*
X96085079Y-44863338D01*
X96082959Y-44865348D01*
X96080510Y-44866924D01*
X96036231Y-44909639D01*
X95991592Y-44951950D01*
X95989908Y-44954325D01*
X95987805Y-44956354D01*
X95981879Y-44963411D01*
X95959124Y-44990887D01*
X95954569Y-44997632D01*
X95948937Y-45003501D01*
X95918564Y-45050953D01*
X95887040Y-45097638D01*
X95883885Y-45105134D01*
X95879496Y-45111990D01*
X95875367Y-45120229D01*
X95859795Y-45151845D01*
X95855947Y-45162071D01*
X95850499Y-45171533D01*
X95833299Y-45222255D01*
X95814428Y-45272401D01*
X95812640Y-45283174D01*
X95809132Y-45293520D01*
X95807102Y-45302508D01*
X95797885Y-45344670D01*
X95795388Y-45365822D01*
X95790149Y-45386466D01*
X95787855Y-45429647D01*
X95782786Y-45472591D01*
X95784445Y-45493823D01*
X95783315Y-45515095D01*
X95783791Y-45524298D01*
X95786567Y-45571593D01*
X95793980Y-45618610D01*
X95798979Y-45665953D01*
X95800899Y-45674966D01*
X95801998Y-45679951D01*
X95812616Y-45728142D01*
X95812618Y-45728148D01*
X95822906Y-45774901D01*
X95822923Y-45774979D01*
X95835538Y-45832364D01*
X95835550Y-45832420D01*
X95845994Y-45879963D01*
X95846011Y-45880042D01*
X95858633Y-45937553D01*
X95858637Y-45937573D01*
X95871913Y-45998088D01*
X95871915Y-45998095D01*
X95885738Y-46061135D01*
X95885739Y-46061140D01*
X95900068Y-46126513D01*
X95900093Y-46126631D01*
X95914912Y-46194275D01*
X95930137Y-46263788D01*
X95930140Y-46263797D01*
X95939792Y-46307873D01*
X95939822Y-46308013D01*
X95953558Y-46370745D01*
X95953575Y-46370823D01*
X95969527Y-46443701D01*
X95969530Y-46443713D01*
X95981612Y-46498921D01*
X95981620Y-46498959D01*
X95997875Y-46573244D01*
X96014205Y-46647877D01*
X96014214Y-46647919D01*
X96030562Y-46722651D01*
X96030580Y-46722735D01*
X96046916Y-46797423D01*
X96071251Y-46908691D01*
X96071253Y-46908701D01*
X96095116Y-47017823D01*
X96095142Y-47017944D01*
X96110756Y-47089345D01*
X96110757Y-47089349D01*
X96133599Y-47193804D01*
X96136150Y-47205471D01*
X95831747Y-47270595D01*
X95831718Y-47270601D01*
X94479200Y-47559962D01*
X92641136Y-47953203D01*
X92641107Y-47953209D01*
X91253884Y-48249998D01*
X89769587Y-48567556D01*
X89769577Y-48567559D01*
X88615155Y-48814543D01*
X88615126Y-48814549D01*
X87836604Y-48981113D01*
X87836602Y-48981114D01*
X87055674Y-49148191D01*
X86277248Y-49314733D01*
X86277189Y-49314745D01*
X85122859Y-49561714D01*
X83638878Y-49879213D01*
X83638870Y-49879215D01*
X82591525Y-50103297D01*
X82591517Y-50103299D01*
X81929746Y-50244889D01*
X81304477Y-50378670D01*
X81304418Y-50378682D01*
X80720401Y-50503638D01*
X80720396Y-50503640D01*
X80182608Y-50618706D01*
X80182549Y-50618718D01*
X79814125Y-50697548D01*
X79814086Y-50697556D01*
X79584343Y-50746715D01*
X79584341Y-50746716D01*
X79264783Y-50815092D01*
X79264780Y-50815093D01*
X78894614Y-50894300D01*
X78894575Y-50894308D01*
X78661874Y-50944103D01*
X78661872Y-50944104D01*
X78559546Y-50966000D01*
X78559517Y-50966006D01*
X78496497Y-50979493D01*
X78496458Y-50979501D01*
X78409821Y-50998043D01*
X78409792Y-50998049D01*
X78311307Y-51019128D01*
X78311210Y-51019148D01*
X78269885Y-51027995D01*
X78262803Y-51030253D01*
X78255429Y-51031259D01*
X78246479Y-51033453D01*
X78234787Y-51036405D01*
X78189838Y-51052561D01*
X78144113Y-51066426D01*
X78135622Y-51070008D01*
X78099966Y-51085341D01*
X78091813Y-51089836D01*
X78083028Y-51092909D01*
X78035467Y-51120901D01*
X77987165Y-51147532D01*
X77980046Y-51153520D01*
X77972018Y-51158245D01*
X77964609Y-51163724D01*
X77935246Y-51185754D01*
X77931226Y-51189435D01*
X77926617Y-51192340D01*
X77883742Y-51232915D01*
X77840247Y-51272743D01*
X77837023Y-51277128D01*
X77833060Y-51280879D01*
X77827066Y-51287878D01*
X77804104Y-51315071D01*
X77801052Y-51319499D01*
X77797263Y-51323308D01*
X77764522Y-51372496D01*
X77731001Y-51421128D01*
X77728870Y-51426057D01*
X77725889Y-51430536D01*
X77721613Y-51438699D01*
X77704616Y-51471704D01*
X77699924Y-51483525D01*
X77693444Y-51494462D01*
X77676203Y-51543290D01*
X77657097Y-51591428D01*
X77654792Y-51603930D01*
X77650557Y-51615923D01*
X77648414Y-51624886D01*
X77638850Y-51666157D01*
X77635715Y-51690144D01*
X77629679Y-51713558D01*
X77627387Y-51753855D01*
X77622155Y-51793881D01*
X77623738Y-51818010D01*
X77622364Y-51842160D01*
X77622806Y-51851365D01*
X77625427Y-51899066D01*
X77632392Y-51944345D01*
X77636787Y-51989961D01*
X77638626Y-51998991D01*
X77642813Y-52018854D01*
X77642831Y-52018942D01*
X77651946Y-52062177D01*
X77651957Y-52062229D01*
X77667024Y-52133668D01*
X77667049Y-52133792D01*
X77689809Y-52241708D01*
X77689812Y-52241716D01*
X77689814Y-52241728D01*
X77715019Y-52361220D01*
X77715031Y-52361278D01*
X77742256Y-52490342D01*
X77742258Y-52490347D01*
X77742258Y-52490349D01*
X77771028Y-52626729D01*
X77771047Y-52626823D01*
X77816112Y-52840433D01*
X77816127Y-52840505D01*
X77877720Y-53132473D01*
X77922788Y-53346119D01*
X77922798Y-53346169D01*
X77951585Y-53482636D01*
X77952267Y-53485871D01*
X77940190Y-53488446D01*
X77940091Y-53488466D01*
X77860546Y-53505419D01*
X77860541Y-53505421D01*
X77860539Y-53505421D01*
X77734085Y-53532373D01*
X77734081Y-53532374D01*
X77455578Y-53591733D01*
X77455479Y-53591753D01*
X77029204Y-53682603D01*
X77029200Y-53682604D01*
X76547704Y-53785222D01*
X75737774Y-53957836D01*
X75737724Y-53957846D01*
X74500427Y-54221535D01*
X74500423Y-54221536D01*
X73737879Y-54384045D01*
X73737877Y-54384046D01*
X73564638Y-54420965D01*
X73564521Y-54420989D01*
X73301517Y-54477040D01*
X73301515Y-54477041D01*
X72765257Y-54591326D01*
X72765255Y-54591327D01*
X70903506Y-54988092D01*
X70903504Y-54988093D01*
X67803119Y-55648826D01*
X67803117Y-55648827D01*
X65567173Y-56125336D01*
X65567114Y-56125348D01*
X64181805Y-56420579D01*
X64181776Y-56420585D01*
X62927493Y-56687894D01*
X62234562Y-56835569D01*
X62234553Y-56835571D01*
X61975313Y-56890821D01*
X61728747Y-56943370D01*
X61728727Y-56943374D01*
X61581827Y-56974681D01*
X61581825Y-56974682D01*
X61524343Y-56986932D01*
X61524340Y-56986933D01*
X61524330Y-56986935D01*
X61439662Y-57004981D01*
X61439613Y-57004991D01*
X61169701Y-57062518D01*
X61169651Y-57062528D01*
X60880752Y-57124100D01*
X60880747Y-57124102D01*
X60880745Y-57124102D01*
X60735173Y-57155129D01*
X60735173Y-45244042D01*
X91595000Y-45244042D01*
X91595000Y-45575958D01*
X91659754Y-45901496D01*
X91786772Y-46208147D01*
X91971175Y-46484125D01*
X92205875Y-46718825D01*
X92481853Y-46903228D01*
X92788504Y-47030246D01*
X93114042Y-47095000D01*
X93445958Y-47095000D01*
X93771496Y-47030246D01*
X94078147Y-46903228D01*
X94354125Y-46718825D01*
X94588825Y-46484125D01*
X94773228Y-46208147D01*
X94900246Y-45901496D01*
X94965000Y-45575958D01*
X94965000Y-45244042D01*
X94900246Y-44918504D01*
X94773228Y-44611853D01*
X94588825Y-44335875D01*
X94354125Y-44101175D01*
X94078147Y-43916772D01*
X93771496Y-43789754D01*
X93445958Y-43725000D01*
X93114042Y-43725000D01*
X92788504Y-43789754D01*
X92481853Y-43916772D01*
X92205875Y-44101175D01*
X91971175Y-44335875D01*
X91786772Y-44611853D01*
X91659754Y-44918504D01*
X91595000Y-45244042D01*
X60735173Y-45244042D01*
X60735173Y-37324042D01*
X62395000Y-37324042D01*
X62395000Y-37655958D01*
X62459754Y-37981496D01*
X62586772Y-38288147D01*
X62771175Y-38564125D01*
X63005875Y-38798825D01*
X63281853Y-38983228D01*
X63588504Y-39110246D01*
X63914042Y-39175000D01*
X64245958Y-39175000D01*
X64571496Y-39110246D01*
X64878147Y-38983228D01*
X65154125Y-38798825D01*
X65388825Y-38564125D01*
X65573228Y-38288147D01*
X65700246Y-37981496D01*
X65765000Y-37655958D01*
X65765000Y-37324042D01*
X143615000Y-37324042D01*
X143615000Y-37655958D01*
X143679754Y-37981496D01*
X143806772Y-38288147D01*
X143991175Y-38564125D01*
X144225875Y-38798825D01*
X144501853Y-38983228D01*
X144808504Y-39110246D01*
X145134042Y-39175000D01*
X145465958Y-39175000D01*
X145791496Y-39110246D01*
X146098147Y-38983228D01*
X146374125Y-38798825D01*
X146608825Y-38564125D01*
X146793228Y-38288147D01*
X146920246Y-37981496D01*
X146985000Y-37655958D01*
X146985000Y-37324042D01*
X185735000Y-37324042D01*
X185735000Y-37655958D01*
X185799754Y-37981496D01*
X185926772Y-38288147D01*
X186111175Y-38564125D01*
X186345875Y-38798825D01*
X186621853Y-38983228D01*
X186928504Y-39110246D01*
X187254042Y-39175000D01*
X187585958Y-39175000D01*
X187911496Y-39110246D01*
X188218147Y-38983228D01*
X188494125Y-38798825D01*
X188728825Y-38564125D01*
X188913228Y-38288147D01*
X189040246Y-37981496D01*
X189105000Y-37655958D01*
X189105000Y-37324042D01*
X189103011Y-37314042D01*
X228465000Y-37314042D01*
X228465000Y-37645958D01*
X228529754Y-37971496D01*
X228656772Y-38278147D01*
X228841175Y-38554125D01*
X229075875Y-38788825D01*
X229351853Y-38973228D01*
X229658504Y-39100246D01*
X229984042Y-39165000D01*
X230315958Y-39165000D01*
X230641496Y-39100246D01*
X230948147Y-38973228D01*
X231224125Y-38788825D01*
X231458825Y-38554125D01*
X231643228Y-38278147D01*
X231770246Y-37971496D01*
X231835000Y-37645958D01*
X231835000Y-37314042D01*
X231770246Y-36988504D01*
X231643228Y-36681853D01*
X231458825Y-36405875D01*
X231224125Y-36171175D01*
X230948147Y-35986772D01*
X230641496Y-35859754D01*
X230315958Y-35795000D01*
X229984042Y-35795000D01*
X229658504Y-35859754D01*
X229351853Y-35986772D01*
X229075875Y-36171175D01*
X228841175Y-36405875D01*
X228656772Y-36681853D01*
X228529754Y-36988504D01*
X228465000Y-37314042D01*
X189103011Y-37314042D01*
X189040246Y-36998504D01*
X188913228Y-36691853D01*
X188728825Y-36415875D01*
X188494125Y-36181175D01*
X188218147Y-35996772D01*
X187911496Y-35869754D01*
X187585958Y-35805000D01*
X187254042Y-35805000D01*
X186928504Y-35869754D01*
X186621853Y-35996772D01*
X186345875Y-36181175D01*
X186111175Y-36415875D01*
X185926772Y-36691853D01*
X185799754Y-36998504D01*
X185735000Y-37324042D01*
X146985000Y-37324042D01*
X146920246Y-36998504D01*
X146793228Y-36691853D01*
X146608825Y-36415875D01*
X146374125Y-36181175D01*
X146098147Y-35996772D01*
X145791496Y-35869754D01*
X145465958Y-35805000D01*
X145134042Y-35805000D01*
X144808504Y-35869754D01*
X144501853Y-35996772D01*
X144225875Y-36181175D01*
X143991175Y-36415875D01*
X143806772Y-36691853D01*
X143679754Y-36998504D01*
X143615000Y-37324042D01*
X65765000Y-37324042D01*
X65700246Y-36998504D01*
X65573228Y-36691853D01*
X65388825Y-36415875D01*
X65154125Y-36181175D01*
X64878147Y-35996772D01*
X64571496Y-35869754D01*
X64245958Y-35805000D01*
X63914042Y-35805000D01*
X63588504Y-35869754D01*
X63281853Y-35996772D01*
X63005875Y-36181175D01*
X62771175Y-36415875D01*
X62586772Y-36691853D01*
X62459754Y-36998504D01*
X62395000Y-37324042D01*
X60735173Y-37324042D01*
X60735173Y-34149089D01*
X232547757Y-34149089D01*
X232557915Y-34149149D01*
M02*
