G04 #@! TF.GenerationSoftware,KiCad,Pcbnew,(5.1.5-0-10_14)*
G04 #@! TF.CreationDate,2020-05-14T05:20:06+09:00*
G04 #@! TF.ProjectId,R-top-v2,522d746f-702d-4763-922e-6b696361645f,rev?*
G04 #@! TF.SameCoordinates,Original*
G04 #@! TF.FileFunction,Soldermask,Bot*
G04 #@! TF.FilePolarity,Negative*
%FSLAX46Y46*%
G04 Gerber Fmt 4.6, Leading zero omitted, Abs format (unit mm)*
G04 Created by KiCad (PCBNEW (5.1.5-0-10_14)) date 2020-05-14 05:20:06*
%MOMM*%
%LPD*%
G04 APERTURE LIST*
%ADD10C,0.100000*%
G04 APERTURE END LIST*
D10*
G36*
X64294794Y-155410155D02*
G01*
X64401150Y-155431311D01*
X64501334Y-155472809D01*
X64601520Y-155514307D01*
X64781844Y-155634795D01*
X64935205Y-155788156D01*
X65055693Y-155968480D01*
X65138689Y-156168851D01*
X65181000Y-156381560D01*
X65181000Y-156598440D01*
X65138689Y-156811149D01*
X65055693Y-157011520D01*
X64935205Y-157191844D01*
X64781844Y-157345205D01*
X64601520Y-157465693D01*
X64401150Y-157548689D01*
X64294795Y-157569844D01*
X64188440Y-157591000D01*
X63971560Y-157591000D01*
X63865205Y-157569844D01*
X63758850Y-157548689D01*
X63558480Y-157465693D01*
X63378156Y-157345205D01*
X63224795Y-157191844D01*
X63104307Y-157011520D01*
X63021311Y-156811149D01*
X62979000Y-156598440D01*
X62979000Y-156381560D01*
X63021311Y-156168851D01*
X63104307Y-155968480D01*
X63224795Y-155788156D01*
X63378156Y-155634795D01*
X63558480Y-155514307D01*
X63658666Y-155472809D01*
X63758850Y-155431311D01*
X63865206Y-155410155D01*
X63971560Y-155389000D01*
X64188440Y-155389000D01*
X64294794Y-155410155D01*
G37*
G36*
X230364794Y-147130155D02*
G01*
X230471150Y-147151311D01*
X230571334Y-147192809D01*
X230671520Y-147234307D01*
X230851844Y-147354795D01*
X231005205Y-147508156D01*
X231125693Y-147688480D01*
X231125693Y-147688481D01*
X231204547Y-147878850D01*
X231208689Y-147888851D01*
X231251000Y-148101560D01*
X231251000Y-148318440D01*
X231208689Y-148531149D01*
X231125693Y-148731520D01*
X231005205Y-148911844D01*
X230851844Y-149065205D01*
X230671520Y-149185693D01*
X230471150Y-149268689D01*
X230364795Y-149289844D01*
X230258440Y-149311000D01*
X230041560Y-149311000D01*
X229935205Y-149289844D01*
X229828850Y-149268689D01*
X229628480Y-149185693D01*
X229448156Y-149065205D01*
X229294795Y-148911844D01*
X229174307Y-148731520D01*
X229091311Y-148531149D01*
X229049000Y-148318440D01*
X229049000Y-148101560D01*
X229091311Y-147888851D01*
X229095454Y-147878850D01*
X229174307Y-147688481D01*
X229174307Y-147688480D01*
X229294795Y-147508156D01*
X229448156Y-147354795D01*
X229628480Y-147234307D01*
X229728666Y-147192809D01*
X229828850Y-147151311D01*
X229935206Y-147130155D01*
X230041560Y-147109000D01*
X230258440Y-147109000D01*
X230364794Y-147130155D01*
G37*
G36*
X141664794Y-147120155D02*
G01*
X141771150Y-147141311D01*
X141971520Y-147224307D01*
X142151844Y-147344795D01*
X142305205Y-147498156D01*
X142425693Y-147678480D01*
X142508689Y-147878850D01*
X142551000Y-148091561D01*
X142551000Y-148308439D01*
X142508689Y-148521150D01*
X142425693Y-148721520D01*
X142305205Y-148901844D01*
X142151844Y-149055205D01*
X141971520Y-149175693D01*
X141871334Y-149217191D01*
X141771150Y-149258689D01*
X141664795Y-149279844D01*
X141558440Y-149301000D01*
X141341560Y-149301000D01*
X141235205Y-149279844D01*
X141128850Y-149258689D01*
X141028666Y-149217191D01*
X140928480Y-149175693D01*
X140748156Y-149055205D01*
X140594795Y-148901844D01*
X140474307Y-148721520D01*
X140432809Y-148621334D01*
X140391311Y-148521150D01*
X140349000Y-148308439D01*
X140349000Y-148091561D01*
X140391311Y-147878850D01*
X140474307Y-147678480D01*
X140594795Y-147498156D01*
X140748156Y-147344795D01*
X140928480Y-147224307D01*
X141128850Y-147141311D01*
X141235206Y-147120155D01*
X141341560Y-147099000D01*
X141558440Y-147099000D01*
X141664794Y-147120155D01*
G37*
G36*
X215354795Y-122630156D02*
G01*
X215461150Y-122651311D01*
X215540809Y-122684307D01*
X215661520Y-122734307D01*
X215841844Y-122854795D01*
X215995205Y-123008156D01*
X216115693Y-123188480D01*
X216115693Y-123188481D01*
X216177979Y-123338851D01*
X216198689Y-123388851D01*
X216241000Y-123601560D01*
X216241000Y-123818440D01*
X216198689Y-124031149D01*
X216115693Y-124231520D01*
X215995205Y-124411844D01*
X215841844Y-124565205D01*
X215661520Y-124685693D01*
X215581860Y-124718689D01*
X215461150Y-124768689D01*
X215354794Y-124789845D01*
X215248440Y-124811000D01*
X215031560Y-124811000D01*
X214925206Y-124789845D01*
X214818850Y-124768689D01*
X214698140Y-124718689D01*
X214618480Y-124685693D01*
X214438156Y-124565205D01*
X214284795Y-124411844D01*
X214164307Y-124231520D01*
X214081311Y-124031149D01*
X214039000Y-123818440D01*
X214039000Y-123601560D01*
X214081311Y-123388851D01*
X214102022Y-123338851D01*
X214164307Y-123188481D01*
X214164307Y-123188480D01*
X214284795Y-123008156D01*
X214438156Y-122854795D01*
X214618480Y-122734307D01*
X214739191Y-122684307D01*
X214818850Y-122651311D01*
X214925205Y-122630156D01*
X215031560Y-122609000D01*
X215248440Y-122609000D01*
X215354795Y-122630156D01*
G37*
G36*
X72004794Y-122580155D02*
G01*
X72111150Y-122601311D01*
X72311520Y-122684307D01*
X72491844Y-122804795D01*
X72645205Y-122958156D01*
X72765693Y-123138480D01*
X72786404Y-123188481D01*
X72848689Y-123338850D01*
X72891000Y-123551561D01*
X72891000Y-123768439D01*
X72848689Y-123981150D01*
X72827978Y-124031150D01*
X72765693Y-124181520D01*
X72645205Y-124361844D01*
X72491844Y-124515205D01*
X72311520Y-124635693D01*
X72211334Y-124677191D01*
X72111150Y-124718689D01*
X72004795Y-124739844D01*
X71898440Y-124761000D01*
X71681560Y-124761000D01*
X71575205Y-124739844D01*
X71468850Y-124718689D01*
X71368666Y-124677191D01*
X71268480Y-124635693D01*
X71088156Y-124515205D01*
X70934795Y-124361844D01*
X70814307Y-124181520D01*
X70752022Y-124031150D01*
X70731311Y-123981150D01*
X70689000Y-123768439D01*
X70689000Y-123551561D01*
X70731311Y-123338850D01*
X70793596Y-123188481D01*
X70814307Y-123138480D01*
X70934795Y-122958156D01*
X71088156Y-122804795D01*
X71268480Y-122684307D01*
X71468850Y-122601311D01*
X71575206Y-122580155D01*
X71681560Y-122559000D01*
X71898440Y-122559000D01*
X72004794Y-122580155D01*
G37*
G36*
X70494795Y-115310156D02*
G01*
X70601150Y-115331311D01*
X70801520Y-115414307D01*
X70981844Y-115534795D01*
X71135205Y-115688156D01*
X71255693Y-115868480D01*
X71338689Y-116068851D01*
X71381000Y-116281560D01*
X71381000Y-116498440D01*
X71338689Y-116711149D01*
X71255693Y-116911520D01*
X71135205Y-117091844D01*
X70981844Y-117245205D01*
X70801520Y-117365693D01*
X70701334Y-117407191D01*
X70601150Y-117448689D01*
X70494794Y-117469845D01*
X70388440Y-117491000D01*
X70171560Y-117491000D01*
X70065206Y-117469845D01*
X69958850Y-117448689D01*
X69858666Y-117407191D01*
X69758480Y-117365693D01*
X69578156Y-117245205D01*
X69424795Y-117091844D01*
X69304307Y-116911520D01*
X69221311Y-116711149D01*
X69179000Y-116498440D01*
X69179000Y-116281560D01*
X69221311Y-116068851D01*
X69304307Y-115868480D01*
X69424795Y-115688156D01*
X69578156Y-115534795D01*
X69758480Y-115414307D01*
X69958850Y-115331311D01*
X70065205Y-115310156D01*
X70171560Y-115289000D01*
X70388440Y-115289000D01*
X70494795Y-115310156D01*
G37*
G36*
X68664795Y-106880156D02*
G01*
X68771150Y-106901311D01*
X68871334Y-106942809D01*
X68971520Y-106984307D01*
X69151844Y-107104795D01*
X69305205Y-107258156D01*
X69425693Y-107438480D01*
X69508689Y-107638851D01*
X69551000Y-107851560D01*
X69551000Y-108068440D01*
X69508689Y-108281149D01*
X69425693Y-108481520D01*
X69305205Y-108661844D01*
X69151844Y-108815205D01*
X68971520Y-108935693D01*
X68771150Y-109018689D01*
X68664795Y-109039844D01*
X68558440Y-109061000D01*
X68341560Y-109061000D01*
X68235205Y-109039844D01*
X68128850Y-109018689D01*
X67928480Y-108935693D01*
X67748156Y-108815205D01*
X67594795Y-108661844D01*
X67474307Y-108481520D01*
X67391311Y-108281149D01*
X67349000Y-108068440D01*
X67349000Y-107851560D01*
X67391311Y-107638851D01*
X67474307Y-107438480D01*
X67594795Y-107258156D01*
X67748156Y-107104795D01*
X67928480Y-106984307D01*
X68028666Y-106942809D01*
X68128850Y-106901311D01*
X68235205Y-106880156D01*
X68341560Y-106859000D01*
X68558440Y-106859000D01*
X68664795Y-106880156D01*
G37*
G36*
X64284794Y-95350155D02*
G01*
X64391150Y-95371311D01*
X64591520Y-95454307D01*
X64771844Y-95574795D01*
X64925205Y-95728156D01*
X65045693Y-95908480D01*
X65128689Y-96108851D01*
X65171000Y-96321560D01*
X65171000Y-96538440D01*
X65128689Y-96751149D01*
X65045693Y-96951520D01*
X64925205Y-97131844D01*
X64771844Y-97285205D01*
X64591520Y-97405693D01*
X64491334Y-97447191D01*
X64391150Y-97488689D01*
X64284795Y-97509844D01*
X64178440Y-97531000D01*
X63961560Y-97531000D01*
X63855205Y-97509844D01*
X63748850Y-97488689D01*
X63648666Y-97447191D01*
X63548480Y-97405693D01*
X63368156Y-97285205D01*
X63214795Y-97131844D01*
X63094307Y-96951520D01*
X63011311Y-96751149D01*
X62969000Y-96538440D01*
X62969000Y-96321560D01*
X63011311Y-96108851D01*
X63094307Y-95908480D01*
X63214795Y-95728156D01*
X63368156Y-95574795D01*
X63548480Y-95454307D01*
X63748850Y-95371311D01*
X63855206Y-95350155D01*
X63961560Y-95329000D01*
X64178440Y-95329000D01*
X64284794Y-95350155D01*
G37*
G36*
X230364795Y-83680156D02*
G01*
X230471150Y-83701311D01*
X230671520Y-83784307D01*
X230851844Y-83904795D01*
X231005205Y-84058156D01*
X231125693Y-84238480D01*
X231208689Y-84438851D01*
X231251000Y-84651560D01*
X231251000Y-84868440D01*
X231208689Y-85081149D01*
X231125693Y-85281520D01*
X231005205Y-85461844D01*
X230851844Y-85615205D01*
X230671520Y-85735693D01*
X230571334Y-85777191D01*
X230471150Y-85818689D01*
X230364794Y-85839845D01*
X230258440Y-85861000D01*
X230041560Y-85861000D01*
X229935206Y-85839845D01*
X229828850Y-85818689D01*
X229728666Y-85777191D01*
X229628480Y-85735693D01*
X229448156Y-85615205D01*
X229294795Y-85461844D01*
X229174307Y-85281520D01*
X229091311Y-85081149D01*
X229049000Y-84868440D01*
X229049000Y-84651560D01*
X229091311Y-84438851D01*
X229174307Y-84238480D01*
X229294795Y-84058156D01*
X229448156Y-83904795D01*
X229628480Y-83784307D01*
X229828850Y-83701311D01*
X229935205Y-83680156D01*
X230041560Y-83659000D01*
X230258440Y-83659000D01*
X230364795Y-83680156D01*
G37*
G36*
X191064795Y-45330156D02*
G01*
X191171150Y-45351311D01*
X191371520Y-45434307D01*
X191551844Y-45554795D01*
X191705205Y-45708156D01*
X191825693Y-45888480D01*
X191908689Y-46088851D01*
X191951000Y-46301560D01*
X191951000Y-46518440D01*
X191908689Y-46731149D01*
X191825693Y-46931520D01*
X191705205Y-47111844D01*
X191551844Y-47265205D01*
X191371520Y-47385693D01*
X191171150Y-47468689D01*
X191064795Y-47489844D01*
X190958440Y-47511000D01*
X190741560Y-47511000D01*
X190635206Y-47489845D01*
X190528850Y-47468689D01*
X190328480Y-47385693D01*
X190148156Y-47265205D01*
X189994795Y-47111844D01*
X189874307Y-46931520D01*
X189791311Y-46731149D01*
X189749000Y-46518440D01*
X189749000Y-46301560D01*
X189791311Y-46088851D01*
X189874307Y-45888480D01*
X189994795Y-45708156D01*
X190148156Y-45554795D01*
X190328480Y-45434307D01*
X190428666Y-45392809D01*
X190528850Y-45351311D01*
X190635206Y-45330155D01*
X190741560Y-45309000D01*
X190958440Y-45309000D01*
X191064795Y-45330156D01*
G37*
G36*
X93494795Y-44330156D02*
G01*
X93601150Y-44351311D01*
X93701334Y-44392809D01*
X93801520Y-44434307D01*
X93981844Y-44554795D01*
X94135205Y-44708156D01*
X94255693Y-44888480D01*
X94338689Y-45088851D01*
X94381000Y-45301560D01*
X94381000Y-45518440D01*
X94338689Y-45731149D01*
X94255693Y-45931520D01*
X94135205Y-46111844D01*
X93981844Y-46265205D01*
X93801520Y-46385693D01*
X93601150Y-46468689D01*
X93494794Y-46489845D01*
X93388440Y-46511000D01*
X93171560Y-46511000D01*
X93065205Y-46489844D01*
X92958850Y-46468689D01*
X92758480Y-46385693D01*
X92578156Y-46265205D01*
X92424795Y-46111844D01*
X92304307Y-45931520D01*
X92221311Y-45731149D01*
X92179000Y-45518440D01*
X92179000Y-45301560D01*
X92221311Y-45088851D01*
X92304307Y-44888480D01*
X92424795Y-44708156D01*
X92578156Y-44554795D01*
X92758480Y-44434307D01*
X92858666Y-44392809D01*
X92958850Y-44351311D01*
X93065205Y-44330156D01*
X93171560Y-44309000D01*
X93388440Y-44309000D01*
X93494795Y-44330156D01*
G37*
G36*
X187634794Y-36410155D02*
G01*
X187741150Y-36431311D01*
X187841334Y-36472809D01*
X187941520Y-36514307D01*
X188121844Y-36634795D01*
X188275205Y-36788156D01*
X188395693Y-36968480D01*
X188395693Y-36968481D01*
X188474547Y-37158850D01*
X188478689Y-37168851D01*
X188521000Y-37381560D01*
X188521000Y-37598440D01*
X188478689Y-37811149D01*
X188395693Y-38011520D01*
X188275205Y-38191844D01*
X188121844Y-38345205D01*
X187941520Y-38465693D01*
X187741150Y-38548689D01*
X187634795Y-38569844D01*
X187528440Y-38591000D01*
X187311560Y-38591000D01*
X187205205Y-38569844D01*
X187098850Y-38548689D01*
X186898480Y-38465693D01*
X186718156Y-38345205D01*
X186564795Y-38191844D01*
X186444307Y-38011520D01*
X186361311Y-37811149D01*
X186319000Y-37598440D01*
X186319000Y-37381560D01*
X186361311Y-37168851D01*
X186365454Y-37158850D01*
X186444307Y-36968481D01*
X186444307Y-36968480D01*
X186564795Y-36788156D01*
X186718156Y-36634795D01*
X186898480Y-36514307D01*
X187098850Y-36431311D01*
X187205206Y-36410155D01*
X187311560Y-36389000D01*
X187528440Y-36389000D01*
X187634794Y-36410155D01*
G37*
G36*
X145514794Y-36410155D02*
G01*
X145621150Y-36431311D01*
X145721334Y-36472809D01*
X145821520Y-36514307D01*
X146001844Y-36634795D01*
X146155205Y-36788156D01*
X146275693Y-36968480D01*
X146275693Y-36968481D01*
X146354547Y-37158850D01*
X146358689Y-37168851D01*
X146401000Y-37381560D01*
X146401000Y-37598440D01*
X146358689Y-37811149D01*
X146275693Y-38011520D01*
X146155205Y-38191844D01*
X146001844Y-38345205D01*
X145821520Y-38465693D01*
X145621150Y-38548689D01*
X145514795Y-38569844D01*
X145408440Y-38591000D01*
X145191560Y-38591000D01*
X145085205Y-38569844D01*
X144978850Y-38548689D01*
X144778480Y-38465693D01*
X144598156Y-38345205D01*
X144444795Y-38191844D01*
X144324307Y-38011520D01*
X144241311Y-37811149D01*
X144199000Y-37598440D01*
X144199000Y-37381560D01*
X144241311Y-37168851D01*
X144245454Y-37158850D01*
X144324307Y-36968481D01*
X144324307Y-36968480D01*
X144444795Y-36788156D01*
X144598156Y-36634795D01*
X144778480Y-36514307D01*
X144978850Y-36431311D01*
X145085206Y-36410155D01*
X145191560Y-36389000D01*
X145408440Y-36389000D01*
X145514794Y-36410155D01*
G37*
G36*
X64294794Y-36410155D02*
G01*
X64401150Y-36431311D01*
X64501334Y-36472809D01*
X64601520Y-36514307D01*
X64781844Y-36634795D01*
X64935205Y-36788156D01*
X65055693Y-36968480D01*
X65055693Y-36968481D01*
X65134547Y-37158850D01*
X65138689Y-37168851D01*
X65181000Y-37381560D01*
X65181000Y-37598440D01*
X65138689Y-37811149D01*
X65055693Y-38011520D01*
X64935205Y-38191844D01*
X64781844Y-38345205D01*
X64601520Y-38465693D01*
X64401150Y-38548689D01*
X64294795Y-38569844D01*
X64188440Y-38591000D01*
X63971560Y-38591000D01*
X63865205Y-38569844D01*
X63758850Y-38548689D01*
X63558480Y-38465693D01*
X63378156Y-38345205D01*
X63224795Y-38191844D01*
X63104307Y-38011520D01*
X63021311Y-37811149D01*
X62979000Y-37598440D01*
X62979000Y-37381560D01*
X63021311Y-37168851D01*
X63025454Y-37158850D01*
X63104307Y-36968481D01*
X63104307Y-36968480D01*
X63224795Y-36788156D01*
X63378156Y-36634795D01*
X63558480Y-36514307D01*
X63758850Y-36431311D01*
X63865206Y-36410155D01*
X63971560Y-36389000D01*
X64188440Y-36389000D01*
X64294794Y-36410155D01*
G37*
G36*
X230364795Y-36400156D02*
G01*
X230471150Y-36421311D01*
X230671520Y-36504307D01*
X230851844Y-36624795D01*
X231005205Y-36778156D01*
X231125693Y-36958480D01*
X231208689Y-37158850D01*
X231251000Y-37371561D01*
X231251000Y-37588439D01*
X231208689Y-37801150D01*
X231125693Y-38001520D01*
X231005205Y-38181844D01*
X230851844Y-38335205D01*
X230671520Y-38455693D01*
X230571334Y-38497191D01*
X230471150Y-38538689D01*
X230364795Y-38559844D01*
X230258440Y-38581000D01*
X230041560Y-38581000D01*
X229935205Y-38559844D01*
X229828850Y-38538689D01*
X229728666Y-38497191D01*
X229628480Y-38455693D01*
X229448156Y-38335205D01*
X229294795Y-38181844D01*
X229174307Y-38001520D01*
X229091311Y-37801150D01*
X229049000Y-37588439D01*
X229049000Y-37371561D01*
X229091311Y-37158850D01*
X229174307Y-36958480D01*
X229294795Y-36778156D01*
X229448156Y-36624795D01*
X229628480Y-36504307D01*
X229828850Y-36421311D01*
X229935206Y-36400155D01*
X230041560Y-36379000D01*
X230258440Y-36379000D01*
X230364795Y-36400156D01*
G37*
M02*
