G04 #@! TF.GenerationSoftware,KiCad,Pcbnew,(5.1.5-0-10_14)*
G04 #@! TF.CreationDate,2020-05-14T05:20:06+09:00*
G04 #@! TF.ProjectId,R-top-v2,522d746f-702d-4763-922e-6b696361645f,rev?*
G04 #@! TF.SameCoordinates,Original*
G04 #@! TF.FileFunction,Legend,Bot*
G04 #@! TF.FilePolarity,Positive*
%FSLAX46Y46*%
G04 Gerber Fmt 4.6, Leading zero omitted, Abs format (unit mm)*
G04 Created by KiCad (PCBNEW (5.1.5-0-10_14)) date 2020-05-14 05:20:06*
%MOMM*%
%LPD*%
G04 APERTURE LIST*
%ADD10C,0.300000*%
G04 APERTURE END LIST*
D10*
X85724285Y-35213571D02*
X84652857Y-35213571D01*
X85295714Y-34570714D02*
X85724285Y-36499285D01*
X84795714Y-35856428D02*
X85867142Y-35856428D01*
X85224285Y-36499285D02*
X84795714Y-34570714D01*
X83295714Y-36070714D02*
X83367142Y-36142142D01*
X83581428Y-36213571D01*
X83724285Y-36213571D01*
X83938571Y-36142142D01*
X84081428Y-35999285D01*
X84152857Y-35856428D01*
X84224285Y-35570714D01*
X84224285Y-35356428D01*
X84152857Y-35070714D01*
X84081428Y-34927857D01*
X83938571Y-34785000D01*
X83724285Y-34713571D01*
X83581428Y-34713571D01*
X83367142Y-34785000D01*
X83295714Y-34856428D01*
X82438571Y-36213571D02*
X82581428Y-36142142D01*
X82652857Y-36070714D01*
X82724285Y-35927857D01*
X82724285Y-35499285D01*
X82652857Y-35356428D01*
X82581428Y-35285000D01*
X82438571Y-35213571D01*
X82224285Y-35213571D01*
X82081428Y-35285000D01*
X82010000Y-35356428D01*
X81938571Y-35499285D01*
X81938571Y-35927857D01*
X82010000Y-36070714D01*
X82081428Y-36142142D01*
X82224285Y-36213571D01*
X82438571Y-36213571D01*
X81081428Y-36213571D02*
X81224285Y-36142142D01*
X81295714Y-35999285D01*
X81295714Y-34713571D01*
X80510000Y-36213571D02*
X80510000Y-35213571D01*
X80510000Y-34713571D02*
X80581428Y-34785000D01*
X80510000Y-34856428D01*
X80438571Y-34785000D01*
X80510000Y-34713571D01*
X80510000Y-34856428D01*
X79152857Y-36142142D02*
X79295714Y-36213571D01*
X79581428Y-36213571D01*
X79724285Y-36142142D01*
X79795714Y-36070714D01*
X79867142Y-35927857D01*
X79867142Y-35499285D01*
X79795714Y-35356428D01*
X79724285Y-35285000D01*
X79581428Y-35213571D01*
X79295714Y-35213571D01*
X79152857Y-35285000D01*
X77938571Y-36142142D02*
X78081428Y-36213571D01*
X78367142Y-36213571D01*
X78510000Y-36142142D01*
X78581428Y-35999285D01*
X78581428Y-35427857D01*
X78510000Y-35285000D01*
X78367142Y-35213571D01*
X78081428Y-35213571D01*
X77938571Y-35285000D01*
X77867142Y-35427857D01*
X77867142Y-35570714D01*
X78581428Y-35713571D01*
X75152857Y-35499285D02*
X75224285Y-35427857D01*
X75367142Y-35356428D01*
X75510000Y-35356428D01*
X75652857Y-35427857D01*
X75724285Y-35499285D01*
X75795714Y-35642142D01*
X75795714Y-35785000D01*
X75724285Y-35927857D01*
X75652857Y-35999285D01*
X75510000Y-36070714D01*
X75367142Y-36070714D01*
X75224285Y-35999285D01*
X75152857Y-35927857D01*
X75152857Y-35356428D02*
X75152857Y-35927857D01*
X75081428Y-35999285D01*
X75010000Y-35999285D01*
X74867142Y-35927857D01*
X74795714Y-35785000D01*
X74795714Y-35427857D01*
X74938571Y-35213571D01*
X75152857Y-35070714D01*
X75438571Y-34999285D01*
X75724285Y-35070714D01*
X75938571Y-35213571D01*
X76081428Y-35427857D01*
X76152857Y-35713571D01*
X76081428Y-35999285D01*
X75938571Y-36213571D01*
X75724285Y-36356428D01*
X75438571Y-36427857D01*
X75152857Y-36356428D01*
X74938571Y-36213571D01*
X74152857Y-35213571D02*
X74152857Y-36499285D01*
X74224285Y-36642142D01*
X74367142Y-36713571D01*
X74438571Y-36713571D01*
X74152857Y-34713571D02*
X74224285Y-34785000D01*
X74152857Y-34856428D01*
X74081428Y-34785000D01*
X74152857Y-34713571D01*
X74152857Y-34856428D01*
X73438571Y-35213571D02*
X73438571Y-36713571D01*
X73438571Y-35285000D02*
X73295714Y-35213571D01*
X73010000Y-35213571D01*
X72867142Y-35285000D01*
X72795714Y-35356428D01*
X72724285Y-35499285D01*
X72724285Y-35927857D01*
X72795714Y-36070714D01*
X72867142Y-36142142D01*
X73010000Y-36213571D01*
X73295714Y-36213571D01*
X73438571Y-36142142D01*
X72152857Y-36142142D02*
X72010000Y-36213571D01*
X71724285Y-36213571D01*
X71581428Y-36142142D01*
X71510000Y-35999285D01*
X71510000Y-35927857D01*
X71581428Y-35785000D01*
X71724285Y-35713571D01*
X71938571Y-35713571D01*
X72081428Y-35642142D01*
X72152857Y-35499285D01*
X72152857Y-35427857D01*
X72081428Y-35285000D01*
X71938571Y-35213571D01*
X71724285Y-35213571D01*
X71581428Y-35285000D01*
X70867142Y-36213571D02*
X70867142Y-34713571D01*
X70724285Y-35642142D02*
X70295714Y-36213571D01*
X70295714Y-35213571D02*
X70867142Y-35785000D01*
X69081428Y-36142142D02*
X69224285Y-36213571D01*
X69510000Y-36213571D01*
X69652857Y-36142142D01*
X69724285Y-35999285D01*
X69724285Y-35427857D01*
X69652857Y-35285000D01*
X69510000Y-35213571D01*
X69224285Y-35213571D01*
X69081428Y-35285000D01*
X69010000Y-35427857D01*
X69010000Y-35570714D01*
X69724285Y-35713571D01*
X68367142Y-35213571D02*
X68367142Y-36213571D01*
X68367142Y-35356428D02*
X68295714Y-35285000D01*
X68152857Y-35213571D01*
X67938571Y-35213571D01*
X67795714Y-35285000D01*
X67724285Y-35427857D01*
X67724285Y-36213571D01*
X67010000Y-35213571D02*
X67010000Y-36213571D01*
X67010000Y-35356428D02*
X66938571Y-35285000D01*
X66795714Y-35213571D01*
X66581428Y-35213571D01*
X66438571Y-35285000D01*
X66367142Y-35427857D01*
X66367142Y-36213571D01*
X84224285Y-38763571D02*
X84724285Y-38049285D01*
X85081428Y-38763571D02*
X85081428Y-37263571D01*
X84510000Y-37263571D01*
X84367142Y-37335000D01*
X84295714Y-37406428D01*
X84224285Y-37549285D01*
X84224285Y-37763571D01*
X84295714Y-37906428D01*
X84367142Y-37977857D01*
X84510000Y-38049285D01*
X85081428Y-38049285D01*
X82652857Y-37263571D02*
X81795714Y-37263571D01*
X82224285Y-38763571D02*
X82224285Y-37263571D01*
X81081428Y-38763571D02*
X81224285Y-38692142D01*
X81295714Y-38620714D01*
X81367142Y-38477857D01*
X81367142Y-38049285D01*
X81295714Y-37906428D01*
X81224285Y-37835000D01*
X81081428Y-37763571D01*
X80867142Y-37763571D01*
X80724285Y-37835000D01*
X80652857Y-37906428D01*
X80581428Y-38049285D01*
X80581428Y-38477857D01*
X80652857Y-38620714D01*
X80724285Y-38692142D01*
X80867142Y-38763571D01*
X81081428Y-38763571D01*
X79938571Y-37763571D02*
X79938571Y-39263571D01*
X79938571Y-37835000D02*
X79795714Y-37763571D01*
X79510000Y-37763571D01*
X79367142Y-37835000D01*
X79295714Y-37906428D01*
X79224285Y-38049285D01*
X79224285Y-38477857D01*
X79295714Y-38620714D01*
X79367142Y-38692142D01*
X79510000Y-38763571D01*
X79795714Y-38763571D01*
X79938571Y-38692142D01*
X78581428Y-38763571D02*
X78581428Y-37263571D01*
X78010000Y-37263571D01*
X77867142Y-37335000D01*
X77795714Y-37406428D01*
X77724285Y-37549285D01*
X77724285Y-37763571D01*
X77795714Y-37906428D01*
X77867142Y-37977857D01*
X78010000Y-38049285D01*
X78581428Y-38049285D01*
X76867142Y-38763571D02*
X77010000Y-38692142D01*
X77081428Y-38549285D01*
X77081428Y-37263571D01*
X75652857Y-38763571D02*
X75652857Y-37977857D01*
X75724285Y-37835000D01*
X75867142Y-37763571D01*
X76152857Y-37763571D01*
X76295714Y-37835000D01*
X75652857Y-38692142D02*
X75795714Y-38763571D01*
X76152857Y-38763571D01*
X76295714Y-38692142D01*
X76367142Y-38549285D01*
X76367142Y-38406428D01*
X76295714Y-38263571D01*
X76152857Y-38192142D01*
X75795714Y-38192142D01*
X75652857Y-38120714D01*
X75152857Y-37763571D02*
X74581428Y-37763571D01*
X74938571Y-37263571D02*
X74938571Y-38549285D01*
X74867142Y-38692142D01*
X74724285Y-38763571D01*
X74581428Y-38763571D01*
X73510000Y-38692142D02*
X73652857Y-38763571D01*
X73938571Y-38763571D01*
X74081428Y-38692142D01*
X74152857Y-38549285D01*
X74152857Y-37977857D01*
X74081428Y-37835000D01*
X73938571Y-37763571D01*
X73652857Y-37763571D01*
X73510000Y-37835000D01*
X73438571Y-37977857D01*
X73438571Y-38120714D01*
X74152857Y-38263571D01*
X71795714Y-37763571D02*
X71438571Y-38763571D01*
X71081428Y-37763571D01*
X70510000Y-38620714D02*
X70438571Y-38692142D01*
X70510000Y-38763571D01*
X70581428Y-38692142D01*
X70510000Y-38620714D01*
X70510000Y-38763571D01*
X69510000Y-37263571D02*
X69367142Y-37263571D01*
X69224285Y-37335000D01*
X69152857Y-37406428D01*
X69081428Y-37549285D01*
X69010000Y-37835000D01*
X69010000Y-38192142D01*
X69081428Y-38477857D01*
X69152857Y-38620714D01*
X69224285Y-38692142D01*
X69367142Y-38763571D01*
X69510000Y-38763571D01*
X69652857Y-38692142D01*
X69724285Y-38620714D01*
X69795714Y-38477857D01*
X69867142Y-38192142D01*
X69867142Y-37835000D01*
X69795714Y-37549285D01*
X69724285Y-37406428D01*
X69652857Y-37335000D01*
X69510000Y-37263571D01*
X68367142Y-38620714D02*
X68295714Y-38692142D01*
X68367142Y-38763571D01*
X68438571Y-38692142D01*
X68367142Y-38620714D01*
X68367142Y-38763571D01*
X67724285Y-37406428D02*
X67652857Y-37335000D01*
X67510000Y-37263571D01*
X67152857Y-37263571D01*
X67010000Y-37335000D01*
X66938571Y-37406428D01*
X66867142Y-37549285D01*
X66867142Y-37692142D01*
X66938571Y-37906428D01*
X67795714Y-38763571D01*
X66867142Y-38763571D01*
M02*
