<?xml version="1.0" encoding="UTF-8" standalone="no"?>
<!DOCTYPE svg PUBLIC "-//W3C//DTD SVG 1.1//EN" "http://www.w3.org/Graphics/SVG/1.1/DTD/svg11.dtd">
<svg width="100%" height="100%" viewBox="0 0 755 559" version="1.1" xmlns="http://www.w3.org/2000/svg" xmlns:xlink="http://www.w3.org/1999/xlink" xml:space="preserve" xmlns:serif="http://www.serif.com/" style="fill-rule:evenodd;clip-rule:evenodd;stroke-linecap:round;stroke-linejoin:round;stroke-miterlimit:2;">
    <g id="アートボード1" transform="matrix(1.12519,0,0,1.18182,-69.7615,-46.0909)">
        <rect x="62" y="39" width="671" height="473" style="fill:none;"/>
        <g id="Split-Left-Bottom" serif:id="Split Left Bottom" transform="matrix(0.888742,0,0,0.846154,109.992,39)">
            <g transform="matrix(6.80956e-17,1.36766,-1.36692,5.23334e-16,2083.61,-461.596)">
                <path d="M391.454,1090.15C391.454,1091.68 390.218,1092.92 388.69,1092.92C387.165,1092.92 385.927,1091.68 385.927,1090.15C385.927,1088.63 387.165,1087.39 388.69,1087.39C390.218,1087.39 391.454,1088.63 391.454,1090.15Z" style="fill:none;stroke:rgb(0,126,66);stroke-width:1.38px;"/>
            </g>
            <g transform="matrix(6.80956e-17,1.36766,-1.36692,5.23334e-16,1510.57,-461.596)">
                <path d="M391.454,1090.15C391.454,1091.68 390.218,1092.92 388.69,1092.92C387.165,1092.92 385.927,1091.68 385.927,1090.15C385.927,1088.63 387.165,1087.39 388.69,1087.39C390.218,1087.39 391.454,1088.63 391.454,1090.15Z" style="fill:none;stroke:rgb(0,126,66);stroke-width:1.38px;"/>
            </g>
            <g transform="matrix(6.80956e-17,1.36766,-1.36692,5.23334e-16,1510.57,-43.9155)">
                <path d="M391.454,1090.15C391.454,1091.68 390.218,1092.92 388.69,1092.92C387.165,1092.92 385.927,1091.68 385.927,1090.15C385.927,1088.63 387.165,1087.39 388.69,1087.39C390.218,1087.39 391.454,1088.63 391.454,1090.15Z" style="fill:none;stroke:rgb(0,126,66);stroke-width:1.38px;"/>
            </g>
            <g transform="matrix(6.80956e-17,1.36766,-1.36692,5.23334e-16,2083.61,-23.5632)">
                <path d="M391.454,1090.15C391.454,1091.68 390.218,1092.92 388.69,1092.92C387.165,1092.92 385.927,1091.68 385.927,1090.15C385.927,1088.63 387.165,1087.39 388.69,1087.39C390.218,1087.39 391.454,1088.63 391.454,1090.15Z" style="fill:none;stroke:rgb(0,126,66);stroke-width:1.38px;"/>
            </g>
            <g transform="matrix(6.80956e-17,1.36766,-1.36692,5.23334e-16,2083.61,-223.878)">
                <path d="M391.454,1090.15C391.454,1091.68 390.218,1092.92 388.69,1092.92C387.165,1092.92 385.927,1091.68 385.927,1090.15C385.927,1088.63 387.165,1087.39 388.69,1087.39C390.218,1087.39 391.454,1088.63 391.454,1090.15Z" style="fill:none;stroke:rgb(0,126,66);stroke-width:1.38px;"/>
            </g>
            <path id="外形" d="M118.601,48.459L89.739,186.135L164.378,202L185,104.983L204.701,109.17L217.204,48.459L482.832,48.459L463.435,141.605L498.226,149L519.195,48.459L577.268,48.459C596.658,48.459 612.385,64.161 612.418,83.551C612.418,83.551 612.418,83.551 612.418,83.551L557.11,82.551L556.586,147.449L612.359,147.449C612.359,147.449 612.359,405.517 612.359,504.252C612.359,525.126 595.438,542.047 574.564,542.047C555.588,542.047 534.295,542.047 523.054,542.047C517.772,542.047 512.505,541.494 507.338,540.395C480.984,534.794 395.185,516.557 368.831,510.955C363.664,509.857 358.396,509.303 353.114,509.303C311.629,509.303 118.635,509.303 35.921,509.303C25.897,509.303 16.284,505.321 9.196,498.233C2.108,491.145 -1.874,481.532 -1.874,471.508C-1.874,384.893 -1.874,172.869 -1.874,86.254C-1.874,76.23 2.108,66.617 9.196,59.529C16.284,52.441 25.897,48.459 35.921,48.459C71.252,48.459 118.601,48.459 118.601,48.459Z" style="fill:rgb(147,37,0);fill-opacity:0.38;stroke:rgb(0,126,66);stroke-width:0.76px;stroke-linecap:square;stroke-miterlimit:1.5;"/>
        </g>
    </g>
</svg>
