<?xml version="1.0" encoding="UTF-8" standalone="no"?>
<!DOCTYPE svg PUBLIC "-//W3C//DTD SVG 1.1//EN" "http://www.w3.org/Graphics/SVG/1.1/DTD/svg11.dtd">
<svg width="100%" height="100%" viewBox="0 0 662 559" version="1.1" xmlns="http://www.w3.org/2000/svg" xmlns:xlink="http://www.w3.org/1999/xlink" xml:space="preserve" xmlns:serif="http://www.serif.com/" style="fill-rule:evenodd;clip-rule:evenodd;stroke-linecap:round;stroke-linejoin:round;stroke-miterlimit:2;">
    <g id="アートボード1" transform="matrix(0.986587,0,0,1.18182,-61.1684,-46.0909)">
        <rect x="62" y="39" width="671" height="473" style="fill:none;"/>
        <g id="Split-Left-Bottom" serif:id="Split Left Bottom" transform="matrix(1.0136,0,0,0.846154,62,39)">
            <g transform="matrix(6.80956e-17,1.36766,-1.36692,5.23334e-16,2083.61,-461.596)">
                <path d="M391.454,1090.15C391.454,1091.68 390.218,1092.92 388.69,1092.92C387.165,1092.92 385.927,1091.68 385.927,1090.15C385.927,1088.63 387.165,1087.39 388.69,1087.39C390.218,1087.39 391.454,1088.63 391.454,1090.15Z" style="fill:none;stroke:rgb(0,126,66);stroke-width:1.38px;"/>
            </g>
            <g transform="matrix(6.80956e-17,1.36766,-1.36692,5.23334e-16,1510.57,-461.596)">
                <path d="M391.454,1090.15C391.454,1091.68 390.218,1092.92 388.69,1092.92C387.165,1092.92 385.927,1091.68 385.927,1090.15C385.927,1088.63 387.165,1087.39 388.69,1087.39C390.218,1087.39 391.454,1088.63 391.454,1090.15Z" style="fill:none;stroke:rgb(0,126,66);stroke-width:1.38px;"/>
            </g>
            <g transform="matrix(6.80956e-17,1.36766,-1.36692,5.23334e-16,1510.57,-43.9155)">
                <path d="M391.454,1090.15C391.454,1091.68 390.218,1092.92 388.69,1092.92C387.165,1092.92 385.927,1091.68 385.927,1090.15C385.927,1088.63 387.165,1087.39 388.69,1087.39C390.218,1087.39 391.454,1088.63 391.454,1090.15Z" style="fill:none;stroke:rgb(0,126,66);stroke-width:1.38px;"/>
            </g>
            <g transform="matrix(6.80956e-17,1.36766,-1.36692,5.23334e-16,2083.61,-23.5632)">
                <path d="M391.454,1090.15C391.454,1091.68 390.218,1092.92 388.69,1092.92C387.165,1092.92 385.927,1091.68 385.927,1090.15C385.927,1088.63 387.165,1087.39 388.69,1087.39C390.218,1087.39 391.454,1088.63 391.454,1090.15Z" style="fill:none;stroke:rgb(0,126,66);stroke-width:1.38px;"/>
            </g>
            <g transform="matrix(6.80956e-17,1.36766,-1.36692,5.23334e-16,2083.61,-223.878)">
                <path d="M391.454,1090.15C391.454,1091.68 390.218,1092.92 388.69,1092.92C387.165,1092.92 385.927,1091.68 385.927,1090.15C385.927,1088.63 387.165,1087.39 388.69,1087.39C390.218,1087.39 391.454,1088.63 391.454,1090.15Z" style="fill:none;stroke:rgb(0,126,66);stroke-width:1.38px;"/>
            </g>
            <path id="外形" d="M118.601,50.349L89.739,186.135L164.378,202L185,104.983L204.701,109.17L217.204,50.349L482.832,50.349L463.435,141.605L498.226,149L519.195,50.349L579.158,50.349C597.504,50.349 612.385,65.204 612.418,83.55C612.418,83.551 612.418,83.551 612.418,83.551L557.11,82.551L556.586,147.449L612.359,147.449C612.359,147.449 612.359,399.319 612.359,496.693C612.359,517.567 595.438,534.488 574.564,534.488C558.485,534.488 541.254,534.488 531.633,534.488C526.557,534.488 521.495,533.977 516.521,532.962C493.217,528.208 422.078,513.694 398.774,508.939C393.801,507.924 388.738,507.413 383.663,507.413C340.659,507.413 127.424,507.413 39.701,507.413C18.827,507.413 1.906,490.492 1.906,469.618C1.906,383.622 1.906,174.14 1.906,88.144C1.906,67.27 18.827,50.349 39.701,50.349L118.601,50.349Z" style="fill:rgb(147,37,0);fill-opacity:0.38;stroke:rgb(0,126,66);stroke-width:0.76px;stroke-linecap:square;stroke-miterlimit:1.5;"/>
        </g>
    </g>
</svg>
