  0
SECTION
  2
HEADER
  9
$ACADVER
  1
AC1014
  9
$HANDSEED
  5
FFFF
  9
$MEASUREMENT
 70
     1
  0
ENDSEC
  0
SECTION
  2
TABLES
  0
TABLE
  2
VPORT
  5
8
330
0
100
AcDbSymbolTable
 70
     4
  0
VPORT
  5
2E
330
8
100
AcDbSymbolTableRecord
100
AcDbViewportTableRecord
  2
*ACTIVE
 70
     0
 10
0.0
 20
0.0
 11
1.0
 21
1.0
 12
210.0
 22
148.5
 13
0.0
 23
0.0
 14
10.0
 24
10.0
 15
10.0
 25
10.0
 16
0.0
 26
0.0
 36
1.0
 17
0.0
 27
0.0
 37
0.0
 40
341.0
 41
1.24
 42
50.0
 43
0.0
 44
0.0
 50
0.0
 51
0.0
 71
     0
 72
   100
 73
     1
 74
     3
 75
     0
 76
     0
 77
     0
 78
     0
  0
ENDTAB
  0
TABLE
  2
LTYPE
  5
5
330
0
100
AcDbSymbolTable
 70
     1
  0
LTYPE
  5
14
330
5
100
AcDbSymbolTableRecord
100
AcDbLinetypeTableRecord
  2
BYBLOCK
 70
     0
  3

 72
    65
 73
     0
 40
0.0
  0
LTYPE
  5
15
330
5
100
AcDbSymbolTableRecord
100
AcDbLinetypeTableRecord
  2
BYLAYER
 70
     0
  3

 72
    65
 73
     0
 40
0.0
  0
LTYPE
  5
16
330
5
100
AcDbSymbolTableRecord
100
AcDbLinetypeTableRecord
  2
CONTINUOUS
 70
     0
  3
Solid line
 72
    65
 73
     0
 40
0.0
  0
ENDTAB
  0
TABLE
  2
LAYER
  5
2
100
AcDbSymbolTable
 70
1
  0
LAYER
  5
50
100
AcDbSymbolTableRecord
100
AcDbLayerTableRecord
  2
0
 70
0
  6
CONTINUOUS
  0
ENDTAB
  0
TABLE
  2
STYLE
  5
3
330
0
100
AcDbSymbolTable
 70
     1
  0
STYLE
  5
11
330
3
100
AcDbSymbolTableRecord
100
AcDbTextStyleTableRecord
  2
STANDARD
 70
     0
 40
0.0
 41
1.0
 50
0.0
 71
     0
 42
2.5
  3
txt
  4

  0
ENDTAB
  0
TABLE
  2
VIEW
  5
6
330
0
100
AcDbSymbolTable
 70
     0
  0
ENDTAB
  0
TABLE
  2
UCS
  5
7
330
0
100
AcDbSymbolTable
 70
     0
  0
ENDTAB
  0
TABLE
  2
APPID
  5
9
330
0
100
AcDbSymbolTable
 70
     2
  0
APPID
  5
12
330
9
100
AcDbSymbolTableRecord
100
AcDbRegAppTableRecord
  2
ACAD
 70
     0
  0
ENDTAB
  0
TABLE
  2
DIMSTYLE
  5
A
330
0
100
AcDbSymbolTable
 70
     1
  0
DIMSTYLE
105
27
330
A
100
AcDbSymbolTableRecord
100
AcDbDimStyleTableRecord
  2
ISO-25
 70
     0
  3

  4

  5

  6

  7

 40
1.0
 41
2.5
 42
0.625
 43
3.75
 44
1.25
 45
0.0
 46
0.0
 47
0.0
 48
0.0
140
2.5
141
2.5
142
0.0
143
0.03937007874016
144
1.0
145
0.0
146
1.0
147
0.625
 71
     0
 72
     0
 73
     0
 74
     0
 75
     0
 76
     0
 77
     1
 78
     8
170
     0
171
     3
172
     1
173
     0
174
     0
175
     0
176
     0
177
     0
178
     0
270
     2
271
     2
272
     2
273
     2
274
     3
340
11
275
     0
280
     0
281
     0
282
     0
283
     0
284
     8
285
     0
286
     0
287
     3
288
     0
  0
ENDTAB
  0
TABLE
  2
BLOCK_RECORD
  5
1
330
0
100
AcDbSymbolTable
 70
     1
  0
BLOCK_RECORD
  5
1F
330
1
100
AcDbSymbolTableRecord
100
AcDbBlockTableRecord
  2
*MODEL_SPACE
  0
BLOCK_RECORD
  5
1B
330
1
100
AcDbSymbolTableRecord
100
AcDbBlockTableRecord
  2
*PAPER_SPACE
  0
ENDTAB
  0
ENDSEC
  0
SECTION
  2
BLOCKS
  0
BLOCK
  5
20
330
1F
100
AcDbEntity
  8
0
100
AcDbBlockBegin
  2
*MODEL_SPACE
 70
     0
 10
0.0
 20
0.0
 30
0.0
  3
*MODEL_SPACE
  1

  0
ENDBLK
  5
21
330
1F
100
AcDbEntity
  8
0
100
AcDbBlockEnd
  0
BLOCK
  5
1C
330
1B
100
AcDbEntity
 67
     1
  8
0
100
AcDbBlockBegin
  2
*PAPER_SPACE
  1

  0
ENDBLK
  5
1D
330
1B
100
AcDbEntity
 67
     1
  8
0
100
AcDbBlockEnd
  0
ENDSEC
  0
SECTION
  2
ENTITIES
  0
SPLINE
  5
100
100
AcDbEntity
  8
0
 62
4
100
AcDbSpline
 70
8
 71
3
 72
8
 73
4
 74
0
 40
0
 40
0
 40
0
 40
0
 40
1
 40
1
 40
1
 40
1
 10
185.953213
 20
184.309752
 30
0.0
 10
185.297905
 20
184.309752
 30
0.0
 10
184.766806
 20
184.839423
 30
0.0
 10
184.766806
 20
185.494227
 30
0.0
  0
SPLINE
  5
101
100
AcDbEntity
  8
0
 62
4
100
AcDbSpline
 70
8
 71
3
 72
8
 73
4
 74
0
 40
0
 40
0
 40
0
 40
0
 40
1
 40
1
 40
1
 40
1
 10
184.766806
 20
185.494227
 30
0.0
 10
184.766806
 20
186.147744
 30
0.0
 10
185.297905
 20
186.678272
 30
0.0
 10
185.953213
 20
186.678272
 30
0.0
  0
SPLINE
  5
102
100
AcDbEntity
  8
0
 62
4
100
AcDbSpline
 70
8
 71
3
 72
8
 73
4
 74
0
 40
0
 40
0
 40
0
 40
0
 40
1
 40
1
 40
1
 40
1
 10
185.953213
 20
186.678272
 30
0.0
 10
186.604237
 20
186.678272
 30
0.0
 10
187.135336
 20
186.147744
 30
0.0
 10
187.135336
 20
185.494227
 30
0.0
  0
SPLINE
  5
103
100
AcDbEntity
  8
0
 62
4
100
AcDbSpline
 70
8
 71
3
 72
8
 73
4
 74
0
 40
0
 40
0
 40
0
 40
0
 40
1
 40
1
 40
1
 40
1
 10
187.135336
 20
185.494227
 30
0.0
 10
187.135336
 20
184.839423
 30
0.0
 10
186.604237
 20
184.309752
 30
0.0
 10
185.953213
 20
184.309752
 30
0.0
  0
LWPOLYLINE
  5
104
100
AcDbEntity
  8
0
 62
7
100
AcDbPolyline
 90
4
 70
1
 10
-0.000002
 20
207.427628
 30
0.0
 10
207.427613
 20
207.427628
 30
0.0
 10
207.427613
 20
32.273192
 30
0.0
 10
-0.000002
 20
32.273192
 30
0.0
  0
SPLINE
  5
105
100
AcDbEntity
  8
0
 62
4
100
AcDbSpline
 70
8
 71
3
 72
8
 73
4
 74
0
 40
0
 40
0
 40
0
 40
0
 40
1
 40
1
 40
1
 40
1
 10
6.399002
 20
184.309752
 30
0.0
 10
5.743694
 20
184.309752
 30
0.0
 10
5.212595
 20
184.839423
 30
0.0
 10
5.212595
 20
185.494227
 30
0.0
  0
SPLINE
  5
106
100
AcDbEntity
  8
0
 62
4
100
AcDbSpline
 70
8
 71
3
 72
8
 73
4
 74
0
 40
0
 40
0
 40
0
 40
0
 40
1
 40
1
 40
1
 40
1
 10
5.212595
 20
185.494227
 30
0.0
 10
5.212595
 20
186.147744
 30
0.0
 10
5.743694
 20
186.678272
 30
0.0
 10
6.399002
 20
186.678272
 30
0.0
  0
SPLINE
  5
107
100
AcDbEntity
  8
0
 62
4
100
AcDbSpline
 70
8
 71
3
 72
8
 73
4
 74
0
 40
0
 40
0
 40
0
 40
0
 40
1
 40
1
 40
1
 40
1
 10
6.399002
 20
186.678272
 30
0.0
 10
7.050026
 20
186.678272
 30
0.0
 10
7.581125
 20
186.147744
 30
0.0
 10
7.581125
 20
185.494227
 30
0.0
  0
SPLINE
  5
108
100
AcDbEntity
  8
0
 62
4
100
AcDbSpline
 70
8
 71
3
 72
8
 73
4
 74
0
 40
0
 40
0
 40
0
 40
0
 40
1
 40
1
 40
1
 40
1
 10
7.581125
 20
185.494227
 30
0.0
 10
7.581125
 20
184.839423
 30
0.0
 10
7.050026
 20
184.309752
 30
0.0
 10
6.399002
 20
184.309752
 30
0.0
  0
LWPOLYLINE
  5
109
100
AcDbEntity
  8
0
 62
4
100
AcDbPolyline
 90
1
 70
1
 10
185.953213
 20
184.309752
 30
0.0
  0
SPLINE
  5
10a
100
AcDbEntity
  8
0
 62
4
100
AcDbSpline
 70
8
 71
3
 72
8
 73
4
 74
0
 40
0
 40
0
 40
0
 40
0
 40
1
 40
1
 40
1
 40
1
 10
6.399002
 20
53.435681
 30
0.0
 10
5.743694
 20
53.435681
 30
0.0
 10
5.212595
 20
53.965352
 30
0.0
 10
5.212595
 20
54.620155
 30
0.0
  0
SPLINE
  5
10b
100
AcDbEntity
  8
0
 62
4
100
AcDbSpline
 70
8
 71
3
 72
8
 73
4
 74
0
 40
0
 40
0
 40
0
 40
0
 40
1
 40
1
 40
1
 40
1
 10
5.212595
 20
54.620155
 30
0.0
 10
5.212595
 20
55.273673
 30
0.0
 10
5.743694
 20
55.804201
 30
0.0
 10
6.399002
 20
55.804201
 30
0.0
  0
SPLINE
  5
10c
100
AcDbEntity
  8
0
 62
4
100
AcDbSpline
 70
8
 71
3
 72
8
 73
4
 74
0
 40
0
 40
0
 40
0
 40
0
 40
1
 40
1
 40
1
 40
1
 10
6.399002
 20
55.804201
 30
0.0
 10
7.050026
 20
55.804201
 30
0.0
 10
7.581125
 20
55.273673
 30
0.0
 10
7.581125
 20
54.620155
 30
0.0
  0
SPLINE
  5
10d
100
AcDbEntity
  8
0
 62
4
100
AcDbSpline
 70
8
 71
3
 72
8
 73
4
 74
0
 40
0
 40
0
 40
0
 40
0
 40
1
 40
1
 40
1
 40
1
 10
7.581125
 20
54.620155
 30
0.0
 10
7.581125
 20
53.965352
 30
0.0
 10
7.050026
 20
53.435681
 30
0.0
 10
6.399002
 20
53.435681
 30
0.0
  0
LWPOLYLINE
  5
10e
100
AcDbEntity
  8
0
 62
4
100
AcDbPolyline
 90
1
 70
1
 10
6.399002
 20
184.309752
 30
0.0
  0
SPLINE
  5
10f
100
AcDbEntity
  8
0
 62
4
100
AcDbSpline
 70
8
 71
3
 72
8
 73
4
 74
0
 40
0
 40
0
 40
0
 40
0
 40
1
 40
1
 40
1
 40
1
 10
185.953213
 20
47.058586
 30
0.0
 10
185.297905
 20
47.058586
 30
0.0
 10
184.766806
 20
47.588257
 30
0.0
 10
184.766806
 20
48.243060
 30
0.0
  0
SPLINE
  5
110
100
AcDbEntity
  8
0
 62
4
100
AcDbSpline
 70
8
 71
3
 72
8
 73
4
 74
0
 40
0
 40
0
 40
0
 40
0
 40
1
 40
1
 40
1
 40
1
 10
184.766806
 20
48.243060
 30
0.0
 10
184.766806
 20
48.896578
 30
0.0
 10
185.297905
 20
49.427106
 30
0.0
 10
185.953213
 20
49.427106
 30
0.0
  0
SPLINE
  5
111
100
AcDbEntity
  8
0
 62
4
100
AcDbSpline
 70
8
 71
3
 72
8
 73
4
 74
0
 40
0
 40
0
 40
0
 40
0
 40
1
 40
1
 40
1
 40
1
 10
185.953213
 20
49.427106
 30
0.0
 10
186.604237
 20
49.427106
 30
0.0
 10
187.135336
 20
48.896578
 30
0.0
 10
187.135336
 20
48.243060
 30
0.0
  0
SPLINE
  5
112
100
AcDbEntity
  8
0
 62
4
100
AcDbSpline
 70
8
 71
3
 72
8
 73
4
 74
0
 40
0
 40
0
 40
0
 40
0
 40
1
 40
1
 40
1
 40
1
 10
187.135336
 20
48.243060
 30
0.0
 10
187.135336
 20
47.588257
 30
0.0
 10
186.604237
 20
47.058586
 30
0.0
 10
185.953213
 20
47.058586
 30
0.0
  0
LWPOLYLINE
  5
113
100
AcDbEntity
  8
0
 62
4
100
AcDbPolyline
 90
1
 70
1
 10
6.399002
 20
53.435681
 30
0.0
  0
SPLINE
  5
114
100
AcDbEntity
  8
0
 62
4
100
AcDbSpline
 70
8
 71
3
 72
8
 73
4
 74
0
 40
0
 40
0
 40
0
 40
0
 40
1
 40
1
 40
1
 40
1
 10
185.953213
 20
109.824297
 30
0.0
 10
185.297905
 20
109.824297
 30
0.0
 10
184.766806
 20
110.353967
 30
0.0
 10
184.766806
 20
111.008771
 30
0.0
  0
SPLINE
  5
115
100
AcDbEntity
  8
0
 62
4
100
AcDbSpline
 70
8
 71
3
 72
8
 73
4
 74
0
 40
0
 40
0
 40
0
 40
0
 40
1
 40
1
 40
1
 40
1
 10
184.766806
 20
111.008771
 30
0.0
 10
184.766806
 20
111.662288
 30
0.0
 10
185.297905
 20
112.192816
 30
0.0
 10
185.953213
 20
112.192816
 30
0.0
  0
SPLINE
  5
116
100
AcDbEntity
  8
0
 62
4
100
AcDbSpline
 70
8
 71
3
 72
8
 73
4
 74
0
 40
0
 40
0
 40
0
 40
0
 40
1
 40
1
 40
1
 40
1
 10
185.953213
 20
112.192816
 30
0.0
 10
186.604237
 20
112.192816
 30
0.0
 10
187.135336
 20
111.662288
 30
0.0
 10
187.135336
 20
111.008771
 30
0.0
  0
SPLINE
  5
117
100
AcDbEntity
  8
0
 62
4
100
AcDbSpline
 70
8
 71
3
 72
8
 73
4
 74
0
 40
0
 40
0
 40
0
 40
0
 40
1
 40
1
 40
1
 40
1
 10
187.135336
 20
111.008771
 30
0.0
 10
187.135336
 20
110.353967
 30
0.0
 10
186.604237
 20
109.824297
 30
0.0
 10
185.953213
 20
109.824297
 30
0.0
  0
LWPOLYLINE
  5
118
100
AcDbEntity
  8
0
 62
4
100
AcDbPolyline
 90
1
 70
1
 10
185.953213
 20
47.058586
 30
0.0
  0
LWPOLYLINE
  5
119
100
AcDbEntity
  8
0
 62
4
100
AcDbPolyline
 90
1
 70
1
 10
185.953213
 20
109.824297
 30
0.0
  0
SPLINE
  5
11a
100
AcDbEntity
  8
0
 62
4
100
AcDbSpline
 70
8
 71
3
 72
8
 73
4
 74
0
 40
0
 40
0
 40
0
 40
0
 40
1
 40
1
 40
1
 40
1
 10
181.471200
 20
191.651506
 30
0.0
 10
187.219667
 20
191.651506
 30
0.0
 10
191.882424
 20
186.996909
 30
0.0
 10
191.892764
 20
181.248459
 30
0.0
  0
LWPOLYLINE
  5
11b
100
AcDbEntity
  8
0
 62
4
100
AcDbPolyline
 90
11
 70
0
 10
37.161992
 20
191.651506
 30
0.0
 10
28.118481
 20
149.104951
 30
0.0
 10
51.505586
 20
144.133885
 30
0.0
 10
57.967206
 20
174.532742
 30
0.0
 10
64.140244
 20
173.220807
 30
0.0
 10
68.057887
 20
191.651506
 30
0.0
 10
151.288771
 20
191.651506
 30
0.0
 10
145.210988
 20
163.057774
 30
0.0
 10
156.112270
 20
160.740659
 30
0.0
 10
162.682618
 20
191.651506
 30
0.0
 10
181.471200
 20
191.651506
 30
0.0
  0
SPLINE
  5
11c
100
AcDbEntity
  8
0
 62
4
100
AcDbSpline
 70
8
 71
3
 72
8
 73
4
 74
0
 40
0
 40
0
 40
0
 40
0
 40
1
 40
1
 40
1
 40
1
 10
191.874277
 20
161.226643
 30
0.0
 10
191.874277
 20
161.226643
 30
0.0
 10
191.874277
 20
82.306865
 30
0.0
 10
191.874277
 20
51.796147
 30
0.0
  0
SPLINE
  5
11d
100
AcDbEntity
  8
0
 62
4
100
AcDbSpline
 70
8
 71
3
 72
8
 73
4
 74
0
 40
0
 40
0
 40
0
 40
0
 40
1
 40
1
 40
1
 40
1
 10
191.874277
 20
51.796147
 30
0.0
 10
191.874277
 20
45.255585
 30
0.0
 10
186.572314
 20
39.953637
 30
0.0
 10
180.031733
 20
39.953637
 30
0.0
  0
SPLINE
  5
11e
100
AcDbEntity
  8
0
 62
4
100
AcDbSpline
 70
8
 71
3
 72
8
 73
4
 74
0
 40
0
 40
0
 40
0
 40
0
 40
1
 40
1
 40
1
 40
1
 10
180.031733
 20
39.953637
 30
0.0
 10
174.993599
 20
39.953637
 30
0.0
 10
169.594502
 20
39.953637
 30
0.0
 10
166.579894
 20
39.953637
 30
0.0
  0
SPLINE
  5
11f
100
AcDbEntity
  8
0
 62
4
100
AcDbSpline
 70
8
 71
3
 72
8
 73
4
 74
0
 40
0
 40
0
 40
0
 40
0
 40
1
 40
1
 40
1
 40
1
 10
166.579894
 20
39.953637
 30
0.0
 10
164.989399
 20
39.953637
 30
0.0
 10
163.403291
 20
40.113751
 30
0.0
 10
161.844757
 20
40.431787
 30
0.0
  0
SPLINE
  5
120
100
AcDbEntity
  8
0
 62
4
100
AcDbSpline
 70
8
 71
3
 72
8
 73
4
 74
0
 40
0
 40
0
 40
0
 40
0
 40
1
 40
1
 40
1
 40
1
 10
161.844757
 20
40.431787
 30
0.0
 10
154.542768
 20
41.921383
 30
0.0
 10
132.252340
 20
46.469132
 30
0.0
 10
124.950352
 20
47.959042
 30
0.0
  0
SPLINE
  5
121
100
AcDbEntity
  8
0
 62
4
100
AcDbSpline
 70
8
 71
3
 72
8
 73
4
 74
0
 40
0
 40
0
 40
0
 40
0
 40
1
 40
1
 40
1
 40
1
 10
124.950352
 20
47.959042
 30
0.0
 10
123.392131
 20
48.277078
 30
0.0
 10
121.805709
 20
48.437192
 30
0.0
 10
120.215528
 20
48.437192
 30
0.0
  0
SPLINE
  5
122
100
AcDbEntity
  8
0
 62
4
100
AcDbSpline
 70
8
 71
3
 72
8
 73
4
 74
0
 40
0
 40
0
 40
0
 40
0
 40
1
 40
1
 40
1
 40
1
 10
120.215528
 20
48.437192
 30
0.0
 10
106.740815
 20
48.437192
 30
0.0
 10
39.926558
 20
48.437192
 30
0.0
 10
12.439761
 20
48.437192
 30
0.0
  0
SPLINE
  5
123
100
AcDbEntity
  8
0
 62
4
100
AcDbSpline
 70
8
 71
3
 72
8
 73
4
 74
0
 40
0
 40
0
 40
0
 40
0
 40
1
 40
1
 40
1
 40
1
 10
12.439761
 20
48.437192
 30
0.0
 10
5.899180
 20
48.437192
 30
0.0
 10
0.597217
 20
53.739140
 30
0.0
 10
0.597217
 20
60.279702
 30
0.0
  0
SPLINE
  5
124
100
AcDbEntity
  8
0
 62
4
100
AcDbSpline
 70
8
 71
3
 72
8
 73
4
 74
0
 40
0
 40
0
 40
0
 40
0
 40
1
 40
1
 40
1
 40
1
 10
0.597217
 20
60.279702
 30
0.0
 10
0.597217
 20
87.225290
 30
0.0
 10
0.597217
 20
152.863408
 30
0.0
 10
0.597217
 20
179.808996
 30
0.0
  0
SPLINE
  5
125
100
AcDbEntity
  8
0
 62
4
100
AcDbSpline
 70
8
 71
3
 72
8
 73
4
 74
0
 40
0
 40
0
 40
0
 40
0
 40
1
 40
1
 40
1
 40
1
 10
0.597217
 20
179.808996
 30
0.0
 10
0.597217
 20
186.349559
 30
0.0
 10
5.899180
 20
191.651506
 30
0.0
 10
12.439761
 20
191.651506
 30
0.0
  0
LWPOLYLINE
  5
126
100
AcDbEntity
  8
0
 62
4
100
AcDbPolyline
 90
5
 70
0
 10
191.892764
 20
181.248459
 30
0.0
 10
191.892764
 20
181.248146
 30
0.0
 10
174.562762
 20
181.561481
 30
0.0
 10
174.398574
 20
161.226643
 30
0.0
 10
191.874277
 20
161.226643
 30
0.0
  0
LWPOLYLINE
  5
127
100
AcDbEntity
  8
0
 62
4
100
AcDbPolyline
 90
3
 70
0
 10
12.439761
 20
191.651506
 30
0.0
 10
37.161992
 20
191.651506
 30
0.0
 10
37.161992
 20
191.651506
 30
0.0
  0
ENDSEC
  0
SECTION
  2
OBJECTS
  0
DICTIONARY
  5
C
330
0
100
AcDbDictionary
  3
ACAD_GROUP
350
D
  3
ACAD_MLINESTYLE
350
17
  0
DICTIONARY
  5
D
330
C
100
AcDbDictionary
  0
DICTIONARY
  5
1A
330
C
100
AcDbDictionary
  0
DICTIONARY
  5
17
330
C
100
AcDbDictionary
  3
STANDARD
350
18
  0
DICTIONARY
  5
19
330
C
100
AcDbDictionary
  0
ENDSEC
  0
EOF
