G04 #@! TF.GenerationSoftware,KiCad,Pcbnew,(5.1.5-0-10_14)*
G04 #@! TF.CreationDate,2020-05-14T05:30:03+09:00*
G04 #@! TF.ProjectId,LR-bottom-v02,4c522d62-6f74-4746-9f6d-2d7630322e6b,rev?*
G04 #@! TF.SameCoordinates,Original*
G04 #@! TF.FileFunction,Legend,Top*
G04 #@! TF.FilePolarity,Positive*
%FSLAX46Y46*%
G04 Gerber Fmt 4.6, Leading zero omitted, Abs format (unit mm)*
G04 Created by KiCad (PCBNEW (5.1.5-0-10_14)) date 2020-05-14 05:30:03*
%MOMM*%
%LPD*%
G04 APERTURE LIST*
%ADD10C,0.300000*%
G04 APERTURE END LIST*
D10*
X76935714Y-30863571D02*
X78007142Y-30863571D01*
X77364285Y-30220714D02*
X76935714Y-32149285D01*
X77864285Y-31506428D02*
X76792857Y-31506428D01*
X77435714Y-32149285D02*
X77864285Y-30220714D01*
X79364285Y-31720714D02*
X79292857Y-31792142D01*
X79078571Y-31863571D01*
X78935714Y-31863571D01*
X78721428Y-31792142D01*
X78578571Y-31649285D01*
X78507142Y-31506428D01*
X78435714Y-31220714D01*
X78435714Y-31006428D01*
X78507142Y-30720714D01*
X78578571Y-30577857D01*
X78721428Y-30435000D01*
X78935714Y-30363571D01*
X79078571Y-30363571D01*
X79292857Y-30435000D01*
X79364285Y-30506428D01*
X80221428Y-31863571D02*
X80078571Y-31792142D01*
X80007142Y-31720714D01*
X79935714Y-31577857D01*
X79935714Y-31149285D01*
X80007142Y-31006428D01*
X80078571Y-30935000D01*
X80221428Y-30863571D01*
X80435714Y-30863571D01*
X80578571Y-30935000D01*
X80650000Y-31006428D01*
X80721428Y-31149285D01*
X80721428Y-31577857D01*
X80650000Y-31720714D01*
X80578571Y-31792142D01*
X80435714Y-31863571D01*
X80221428Y-31863571D01*
X81578571Y-31863571D02*
X81435714Y-31792142D01*
X81364285Y-31649285D01*
X81364285Y-30363571D01*
X82150000Y-31863571D02*
X82150000Y-30863571D01*
X82150000Y-30363571D02*
X82078571Y-30435000D01*
X82150000Y-30506428D01*
X82221428Y-30435000D01*
X82150000Y-30363571D01*
X82150000Y-30506428D01*
X83507142Y-31792142D02*
X83364285Y-31863571D01*
X83078571Y-31863571D01*
X82935714Y-31792142D01*
X82864285Y-31720714D01*
X82792857Y-31577857D01*
X82792857Y-31149285D01*
X82864285Y-31006428D01*
X82935714Y-30935000D01*
X83078571Y-30863571D01*
X83364285Y-30863571D01*
X83507142Y-30935000D01*
X84721428Y-31792142D02*
X84578571Y-31863571D01*
X84292857Y-31863571D01*
X84150000Y-31792142D01*
X84078571Y-31649285D01*
X84078571Y-31077857D01*
X84150000Y-30935000D01*
X84292857Y-30863571D01*
X84578571Y-30863571D01*
X84721428Y-30935000D01*
X84792857Y-31077857D01*
X84792857Y-31220714D01*
X84078571Y-31363571D01*
X87507142Y-31149285D02*
X87435714Y-31077857D01*
X87292857Y-31006428D01*
X87150000Y-31006428D01*
X87007142Y-31077857D01*
X86935714Y-31149285D01*
X86864285Y-31292142D01*
X86864285Y-31435000D01*
X86935714Y-31577857D01*
X87007142Y-31649285D01*
X87150000Y-31720714D01*
X87292857Y-31720714D01*
X87435714Y-31649285D01*
X87507142Y-31577857D01*
X87507142Y-31006428D02*
X87507142Y-31577857D01*
X87578571Y-31649285D01*
X87650000Y-31649285D01*
X87792857Y-31577857D01*
X87864285Y-31435000D01*
X87864285Y-31077857D01*
X87721428Y-30863571D01*
X87507142Y-30720714D01*
X87221428Y-30649285D01*
X86935714Y-30720714D01*
X86721428Y-30863571D01*
X86578571Y-31077857D01*
X86507142Y-31363571D01*
X86578571Y-31649285D01*
X86721428Y-31863571D01*
X86935714Y-32006428D01*
X87221428Y-32077857D01*
X87507142Y-32006428D01*
X87721428Y-31863571D01*
X88507142Y-30863571D02*
X88507142Y-32149285D01*
X88435714Y-32292142D01*
X88292857Y-32363571D01*
X88221428Y-32363571D01*
X88507142Y-30363571D02*
X88435714Y-30435000D01*
X88507142Y-30506428D01*
X88578571Y-30435000D01*
X88507142Y-30363571D01*
X88507142Y-30506428D01*
X89221428Y-30863571D02*
X89221428Y-32363571D01*
X89221428Y-30935000D02*
X89364285Y-30863571D01*
X89650000Y-30863571D01*
X89792857Y-30935000D01*
X89864285Y-31006428D01*
X89935714Y-31149285D01*
X89935714Y-31577857D01*
X89864285Y-31720714D01*
X89792857Y-31792142D01*
X89650000Y-31863571D01*
X89364285Y-31863571D01*
X89221428Y-31792142D01*
X90507142Y-31792142D02*
X90650000Y-31863571D01*
X90935714Y-31863571D01*
X91078571Y-31792142D01*
X91150000Y-31649285D01*
X91150000Y-31577857D01*
X91078571Y-31435000D01*
X90935714Y-31363571D01*
X90721428Y-31363571D01*
X90578571Y-31292142D01*
X90507142Y-31149285D01*
X90507142Y-31077857D01*
X90578571Y-30935000D01*
X90721428Y-30863571D01*
X90935714Y-30863571D01*
X91078571Y-30935000D01*
X91792857Y-31863571D02*
X91792857Y-30363571D01*
X91935714Y-31292142D02*
X92364285Y-31863571D01*
X92364285Y-30863571D02*
X91792857Y-31435000D01*
X93578571Y-31792142D02*
X93435714Y-31863571D01*
X93150000Y-31863571D01*
X93007142Y-31792142D01*
X92935714Y-31649285D01*
X92935714Y-31077857D01*
X93007142Y-30935000D01*
X93150000Y-30863571D01*
X93435714Y-30863571D01*
X93578571Y-30935000D01*
X93650000Y-31077857D01*
X93650000Y-31220714D01*
X92935714Y-31363571D01*
X94292857Y-30863571D02*
X94292857Y-31863571D01*
X94292857Y-31006428D02*
X94364285Y-30935000D01*
X94507142Y-30863571D01*
X94721428Y-30863571D01*
X94864285Y-30935000D01*
X94935714Y-31077857D01*
X94935714Y-31863571D01*
X95650000Y-30863571D02*
X95650000Y-31863571D01*
X95650000Y-31006428D02*
X95721428Y-30935000D01*
X95864285Y-30863571D01*
X96078571Y-30863571D01*
X96221428Y-30935000D01*
X96292857Y-31077857D01*
X96292857Y-31863571D01*
X77614285Y-34413571D02*
X76899999Y-34413571D01*
X76899999Y-32913571D01*
X78114285Y-33842142D02*
X79257142Y-33842142D01*
X78685714Y-34413571D02*
X78685714Y-33270714D01*
X80828571Y-34413571D02*
X80328571Y-33699285D01*
X79971428Y-34413571D02*
X79971428Y-32913571D01*
X80542857Y-32913571D01*
X80685714Y-32985000D01*
X80757142Y-33056428D01*
X80828571Y-33199285D01*
X80828571Y-33413571D01*
X80757142Y-33556428D01*
X80685714Y-33627857D01*
X80542857Y-33699285D01*
X79971428Y-33699285D01*
X83114285Y-33627857D02*
X83328571Y-33699285D01*
X83399999Y-33770714D01*
X83471428Y-33913571D01*
X83471428Y-34127857D01*
X83399999Y-34270714D01*
X83328571Y-34342142D01*
X83185714Y-34413571D01*
X82614285Y-34413571D01*
X82614285Y-32913571D01*
X83114285Y-32913571D01*
X83257142Y-32985000D01*
X83328571Y-33056428D01*
X83399999Y-33199285D01*
X83399999Y-33342142D01*
X83328571Y-33485000D01*
X83257142Y-33556428D01*
X83114285Y-33627857D01*
X82614285Y-33627857D01*
X84328571Y-34413571D02*
X84185714Y-34342142D01*
X84114285Y-34270714D01*
X84042857Y-34127857D01*
X84042857Y-33699285D01*
X84114285Y-33556428D01*
X84185714Y-33485000D01*
X84328571Y-33413571D01*
X84542857Y-33413571D01*
X84685714Y-33485000D01*
X84757142Y-33556428D01*
X84828571Y-33699285D01*
X84828571Y-34127857D01*
X84757142Y-34270714D01*
X84685714Y-34342142D01*
X84542857Y-34413571D01*
X84328571Y-34413571D01*
X85257142Y-33413571D02*
X85828571Y-33413571D01*
X85471428Y-32913571D02*
X85471428Y-34199285D01*
X85542857Y-34342142D01*
X85685714Y-34413571D01*
X85828571Y-34413571D01*
X86114285Y-33413571D02*
X86685714Y-33413571D01*
X86328571Y-32913571D02*
X86328571Y-34199285D01*
X86399999Y-34342142D01*
X86542857Y-34413571D01*
X86685714Y-34413571D01*
X87399999Y-34413571D02*
X87257142Y-34342142D01*
X87185714Y-34270714D01*
X87114285Y-34127857D01*
X87114285Y-33699285D01*
X87185714Y-33556428D01*
X87257142Y-33485000D01*
X87399999Y-33413571D01*
X87614285Y-33413571D01*
X87757142Y-33485000D01*
X87828571Y-33556428D01*
X87899999Y-33699285D01*
X87899999Y-34127857D01*
X87828571Y-34270714D01*
X87757142Y-34342142D01*
X87614285Y-34413571D01*
X87399999Y-34413571D01*
X88542857Y-34413571D02*
X88542857Y-33413571D01*
X88542857Y-33556428D02*
X88614285Y-33485000D01*
X88757142Y-33413571D01*
X88971428Y-33413571D01*
X89114285Y-33485000D01*
X89185714Y-33627857D01*
X89185714Y-34413571D01*
X89185714Y-33627857D02*
X89257142Y-33485000D01*
X89399999Y-33413571D01*
X89614285Y-33413571D01*
X89757142Y-33485000D01*
X89828571Y-33627857D01*
X89828571Y-34413571D01*
X91542857Y-33413571D02*
X91899999Y-34413571D01*
X92257142Y-33413571D01*
X92828571Y-34270714D02*
X92899999Y-34342142D01*
X92828571Y-34413571D01*
X92757142Y-34342142D01*
X92828571Y-34270714D01*
X92828571Y-34413571D01*
X93828571Y-32913571D02*
X93971428Y-32913571D01*
X94114285Y-32985000D01*
X94185714Y-33056428D01*
X94257142Y-33199285D01*
X94328571Y-33485000D01*
X94328571Y-33842142D01*
X94257142Y-34127857D01*
X94185714Y-34270714D01*
X94114285Y-34342142D01*
X93971428Y-34413571D01*
X93828571Y-34413571D01*
X93685714Y-34342142D01*
X93614285Y-34270714D01*
X93542857Y-34127857D01*
X93471428Y-33842142D01*
X93471428Y-33485000D01*
X93542857Y-33199285D01*
X93614285Y-33056428D01*
X93685714Y-32985000D01*
X93828571Y-32913571D01*
X94971428Y-34270714D02*
X95042857Y-34342142D01*
X94971428Y-34413571D01*
X94899999Y-34342142D01*
X94971428Y-34270714D01*
X94971428Y-34413571D01*
X95614285Y-33056428D02*
X95685714Y-32985000D01*
X95828571Y-32913571D01*
X96185714Y-32913571D01*
X96328571Y-32985000D01*
X96399999Y-33056428D01*
X96471428Y-33199285D01*
X96471428Y-33342142D01*
X96399999Y-33556428D01*
X95542857Y-34413571D01*
X96471428Y-34413571D01*
M02*
