<?xml version="1.0" encoding="UTF-8" standalone="no"?>
<!DOCTYPE svg PUBLIC "-//W3C//DTD SVG 1.1//EN" "http://www.w3.org/Graphics/SVG/1.1/DTD/svg11.dtd">
<svg width="100%" height="100%" viewBox="0 0 870 809" version="1.1" xmlns="http://www.w3.org/2000/svg" xmlns:xlink="http://www.w3.org/1999/xlink" xml:space="preserve" xmlns:serif="http://www.serif.com/" style="fill-rule:evenodd;clip-rule:evenodd;stroke-linecap:round;stroke-linejoin:round;stroke-miterlimit:1.5;">
    <g id="アートボード1" transform="matrix(1.29657,0,0,1.71036,-80.3875,-66.704)">
        <rect x="62" y="39" width="671" height="473" style="fill:none;"/>
        <g transform="matrix(0.771264,0,0,0.584672,62,39)">
            <g id="Split-Left-v02" serif:id="Split Left v02">
                <g id="Split-Left-Keyplate" serif:id="Split Left Keyplate">
                    <path id="Split-Left-Keyplate1" serif:id="Split Left Keyplate" d="M690.65,406.883C690.377,406.462 690.282,405.951 690.386,405.46C692.049,397.635 705.945,332.259 708.233,321.497C708.419,320.624 709.189,320 710.081,320C712.64,320 717.778,320 720.558,320C721.059,320 721.54,319.801 721.894,319.447C722.249,319.092 722.448,318.611 722.448,318.11L722.448,224.539C722.448,223.643 721.818,222.87 720.941,222.688C702.303,218.834 516.945,180.497 510.189,179.1C510.063,179.073 509.935,179.06 509.807,179.06C505.112,179.06 416.471,179.06 411.714,179.06C411.582,179.06 411.451,179.046 411.321,179.019C408.592,178.439 377.912,171.918 371.521,170.559C370.811,170.408 370.077,170.678 369.633,171.252C368.278,173.006 365.392,176.742 364.168,178.326C363.81,178.789 363.258,179.06 362.673,179.06C347.404,179.06 148.574,179.06 127.027,179.06C125.983,179.06 125.137,179.906 125.137,180.95C125.137,191.483 125.137,242.649 125.137,247.59C125.137,247.843 125.188,248.093 125.287,248.327C126.223,250.536 131.261,262.431 132.199,264.645C132.298,264.879 132.349,265.131 132.348,265.385C132.34,270.513 132.251,325.163 132.245,328.861C132.245,328.992 132.231,329.122 132.204,329.25C130.982,335.013 102.7,468.319 101.473,474.104C101.446,474.233 101.432,474.365 101.432,474.496C101.432,478.912 101.432,555.71 101.432,567.415C101.432,568.289 102.031,569.049 102.881,569.253C108.071,570.496 125.53,574.678 127.676,575.192C127.821,575.227 127.968,575.244 128.117,575.244C135.534,575.244 325.396,575.244 331.056,575.244C331.142,575.244 331.227,575.238 331.313,575.227C333.413,574.938 360.702,571.192 362.803,570.903C362.888,570.892 362.974,570.886 363.06,570.886C367.066,570.886 463.031,570.886 467.995,570.886C468.127,570.886 468.26,570.9 468.389,570.927C474.604,572.254 627.242,604.847 633.297,606.14C633.42,606.167 633.546,606.18 633.671,606.182C636.153,606.208 662.282,606.488 667.384,606.543C667.931,606.549 668.453,606.317 668.817,605.908C673.083,601.107 699.881,570.943 703.797,566.537C704.104,566.191 704.274,565.744 704.274,565.282C704.274,554.995 704.274,437.529 704.274,428.414C704.274,428.049 704.168,427.691 703.968,427.385C702.152,424.589 692.771,410.148 690.65,406.883ZM539.517,521.182L528.219,518.781L517.218,570.54L517.354,570.569L552.707,578.107L552.707,578.109L554.748,578.542L639.543,596.624L650.545,544.865L650.529,544.862L650.546,544.782L639.667,542.47L640.424,538.91L628.224,536.317L627.467,539.877L551.717,523.775L552.474,520.216L540.274,517.622L539.517,521.182ZM500.885,512.971L449.126,501.969L438.124,553.728L489.883,564.729L500.885,512.971ZM281.175,510.707L281.175,506.246L268.703,506.246L268.703,510.707L191.261,510.707L191.261,506.246L178.788,506.246L178.788,510.707L140.535,510.707L140.535,563.632L149.548,563.632L149.548,563.765L301.463,563.765L301.463,510.707L281.175,510.707ZM412.851,494.259L361.093,483.257L350.091,535.016L401.85,546.017L412.851,494.259ZM423.968,522.53C426.009,522.964 427.313,524.972 426.879,527.013C426.446,529.053 424.437,530.357 422.397,529.924C420.356,529.49 419.052,527.481 419.486,525.441C419.919,523.401 421.928,522.096 423.968,522.53ZM665.515,474.356L613.756,463.354L602.755,515.113L654.513,526.114L665.515,474.356ZM595.089,459.386L543.33,448.384L532.328,500.143L584.087,511.145L595.089,459.386ZM679.296,506.864C677.205,506.864 675.51,505.174 675.51,503.084C675.51,500.999 677.205,499.305 679.296,499.305C681.374,499.305 683.069,500.999 683.069,503.084C683.069,505.174 681.374,506.864 679.296,506.864ZM117.996,493.615C115.905,493.615 114.21,491.924 114.21,489.834C114.21,487.749 115.905,486.056 117.996,486.056C120.074,486.056 121.769,487.749 121.769,489.834C121.769,491.924 120.074,493.615 117.996,493.615ZM526.532,435.618L474.774,424.616L463.772,476.375L515.531,487.377L526.532,435.618ZM305.893,434.743L254.135,423.742L243.133,475.501L294.892,486.502L305.893,434.743ZM205.32,431.768L153.561,420.766L142.559,472.525L194.318,483.527L205.32,431.768ZM690.331,466.302L681.135,464.348L678.777,475.439L687.973,477.393L690.331,466.302ZM457.978,411.84L406.219,400.839L395.218,452.597L446.976,463.599L457.978,411.84ZM385.679,405.679L333.921,394.677L322.919,446.436L374.678,457.437L385.679,405.679ZM680.485,403.929L628.726,392.928L617.724,444.686L669.483,455.688L680.485,403.929ZM697.111,434.402L687.916,432.447L685.558,443.538L694.754,445.492L697.111,434.402ZM610.058,388.96L558.299,377.958L547.298,429.717L599.056,440.718L610.058,388.96ZM611.187,431.301C613.227,431.735 614.532,433.744 614.098,435.784C613.664,437.824 611.656,439.129 609.615,438.695C607.575,438.262 606.27,436.253 606.704,434.212C607.138,432.172 609.146,430.868 611.187,431.301ZM541.502,365.191L489.743,354.19L478.742,405.948L530.5,416.95L541.502,365.191ZM320.863,364.317L269.104,353.315L258.103,405.074L309.861,416.076L320.863,364.317ZM220.28,361.339L168.544,350.343L157.543,402.102L209.278,413.098L220.28,361.339ZM472.948,341.414L421.189,330.412L410.187,382.171L461.946,393.172L472.948,341.414ZM228.422,382.821C230.463,383.254 231.767,385.263 231.334,387.303C230.9,389.344 228.891,390.648 226.851,390.215C224.81,389.781 223.506,387.772 223.94,385.732C224.373,383.691 226.382,382.387 228.422,382.821ZM400.649,335.252L348.89,324.25L337.889,376.009L389.647,387.011L400.649,335.252ZM695.454,333.503L643.695,322.501L632.694,374.26L684.453,385.261L695.454,333.503ZM625.028,318.533L573.269,307.531L562.267,359.29L614.026,370.292L625.028,318.533ZM556.472,294.765L504.713,283.763L493.711,335.522L545.47,346.524L556.472,294.765ZM335.833,293.891L284.074,282.889L273.072,334.648L324.831,345.649L335.833,293.891ZM244.057,292.785L192.298,281.784L181.297,333.542L233.055,344.544L244.057,292.785ZM487.917,270.987L436.159,259.986L425.157,311.744L476.916,322.746L487.917,270.987ZM415.619,264.826L363.86,253.824L352.858,305.583L404.617,316.584L415.619,264.826ZM710.424,263.076L658.665,252.075L647.663,303.833L699.422,314.835L710.424,263.076ZM639.997,248.107L588.239,237.105L577.237,288.864L628.996,299.865L639.997,248.107ZM276.633,226.101L224.875,215.099L213.873,266.858L265.632,277.86L276.633,226.101ZM571.441,224.338L519.682,213.337L508.681,265.096L560.439,276.097L571.441,224.338ZM350.802,223.464L299.043,212.462L288.042,264.221L339.801,275.223L350.802,223.464ZM206.207,211.132L154.448,200.13L143.446,251.889L195.205,262.89L206.207,211.132ZM502.887,200.561L451.128,189.559L440.126,241.318L491.885,252.32L502.887,200.561ZM430.588,194.399L378.829,183.398L367.828,235.156L419.587,246.158L430.588,194.399ZM435.136,220.655C437.176,221.089 438.48,223.098 438.047,225.138C437.613,227.178 435.604,228.483 433.564,228.049C431.524,227.615 430.219,225.607 430.653,223.566C431.087,221.526 433.095,220.222 435.136,220.655ZM596.259,219.524C594.167,219.524 592.472,217.834 592.472,215.744C592.472,213.658 594.167,211.965 596.259,211.965C598.337,211.965 600.031,213.658 600.031,215.744C600.031,217.834 598.337,219.524 596.259,219.524ZM210.212,192.207C208.12,192.207 206.425,190.517 206.425,188.427C206.425,186.341 208.12,184.648 210.212,184.648C212.29,184.648 213.984,186.341 213.984,188.427C213.984,190.517 212.29,192.207 210.212,192.207Z" style="fill:rgb(60,226,255);fill-opacity:0.24;stroke:rgb(13,151,242);stroke-width:0.94px;"/>
                </g>
            </g>
        </g>
    </g>
</svg>
