<?xml version="1.0" encoding="UTF-8" standalone="no"?>
<!DOCTYPE svg PUBLIC "-//W3C//DTD SVG 1.1//EN" "http://www.w3.org/Graphics/SVG/1.1/DTD/svg11.dtd">
<svg width="100%" height="100%" viewBox="0 0 870 809" version="1.1" xmlns="http://www.w3.org/2000/svg" xmlns:xlink="http://www.w3.org/1999/xlink" xml:space="preserve" xmlns:serif="http://www.serif.com/" style="fill-rule:evenodd;clip-rule:evenodd;stroke-linecap:square;stroke-linejoin:round;stroke-miterlimit:1.5;">
    <g id="アートボード1" transform="matrix(1.29657,0,0,1.71036,-80.3875,-66.704)">
        <rect x="62" y="39" width="671" height="473" style="fill:none;"/>
        <g transform="matrix(0.771264,0,0,0.584672,62,39)">
            <g id="Split-Left-v02" serif:id="Split Left v02">
                <g id="Split-Left-Top" serif:id="Split Left Top">
                    <g>
                        <path id="内形（丸かど）" d="M722.448,254.276C722.448,254.276 601.116,228.437 584.625,224.925C583.604,224.708 582.953,223.704 583.17,222.684C583.488,221.185 583.935,219.082 584.254,217.583C584.358,217.093 584.263,216.581 583.99,216.16C583.717,215.74 583.288,215.445 582.798,215.341C572.882,213.238 526.09,203.314 516.102,201.196C515.606,201.091 515.174,200.791 514.901,200.364C514.629,199.937 514.539,199.419 514.652,198.925C514.991,197.445 515.462,195.388 515.801,193.907C515.915,193.413 515.825,192.894 515.551,192.467C515.278,192.039 514.845,191.74 514.349,191.636C504.033,189.464 454.451,179.024 444.229,176.872C443.209,176.657 442.208,177.308 441.991,178.328C441.675,179.813 441.234,181.892 440.918,183.378C440.701,184.399 439.697,185.051 438.676,184.834C428.774,182.729 382.089,172.805 372.202,170.704C371.183,170.487 370.181,171.136 369.962,172.153C368.434,179.225 362.955,204.596 361.431,211.652C361.212,212.667 360.216,213.315 359.2,213.104C349.41,211.071 303.423,201.522 293.62,199.486C292.601,199.274 291.604,199.926 291.387,200.943C290.659,204.367 289.103,211.68 288.373,215.109C288.156,216.129 287.154,216.78 286.134,216.564C270.677,213.297 163.009,190.542 147.543,187.273C146.522,187.057 145.52,187.71 145.304,188.731C143.139,198.962 132.646,248.562 130.483,258.79C130.267,259.81 130.918,260.813 131.939,261.029C138.029,262.324 157.435,266.449 163.523,267.743C164.543,267.96 165.194,268.961 164.979,269.981C162.956,279.577 153.658,323.685 151.626,333.322C151.522,333.815 151.226,334.246 150.803,334.519C150.38,334.792 149.865,334.886 149.373,334.778C145.948,334.029 138.679,332.438 135.255,331.689C134.764,331.582 134.25,331.675 133.827,331.948C133.404,332.221 133.108,332.651 133.003,333.143C129.679,348.789 106.424,458.262 103.104,473.892C102.999,474.384 103.095,474.896 103.369,475.317C103.644,475.738 104.075,476.032 104.567,476.135C109.497,477.162 122.847,479.945 127.344,480.882C128.219,481.064 128.847,481.835 128.848,482.729C128.864,493.758 128.964,560.867 128.982,573.021C128.983,574.063 129.829,574.907 130.871,574.908C150.082,574.914 309.96,574.968 329.232,574.975C329.735,574.975 330.217,574.775 330.571,574.419C330.926,574.062 331.124,573.58 331.122,573.077C331.098,567.48 331.026,551.059 330.999,544.929C330.997,544.358 331.253,543.816 331.696,543.455C332.14,543.094 332.722,542.954 333.281,543.072C360.517,548.853 621.721,604.289 646.227,609.49C647.246,609.706 648.247,609.058 648.467,608.04C653.795,583.354 710.922,318.686 710.922,318.686L722.448,318.686L722.448,628L646.363,628L502.155,596.694L64.529,596.694L64.529,148L722.448,148L722.448,254.276ZM707.336,616.78C705.245,616.78 703.55,615.089 703.55,612.999C703.55,610.914 705.245,609.22 707.336,609.22C709.414,609.22 711.109,610.914 711.109,612.999C711.109,615.089 709.414,616.78 707.336,616.78ZM79.654,585.355C77.562,585.355 75.867,583.665 75.867,581.575C75.867,579.489 77.562,577.796 79.654,577.796C81.731,577.796 83.426,579.489 83.426,581.575C83.426,583.665 81.731,585.355 79.654,585.355ZM414.91,585.355C412.819,585.355 411.124,583.665 411.124,581.575C411.124,579.489 412.819,577.796 414.91,577.796C416.988,577.796 418.683,579.489 418.683,581.575C418.683,583.665 416.988,585.355 414.91,585.355ZM679.296,506.864C677.205,506.864 675.51,505.174 675.51,503.084C675.51,500.999 677.205,499.305 679.296,499.305C681.374,499.305 683.069,500.999 683.069,503.084C683.069,505.174 681.374,506.864 679.296,506.864ZM117.996,493.615C115.905,493.615 114.21,491.924 114.21,489.834C114.21,487.749 115.905,486.056 117.996,486.056C120.074,486.056 121.769,487.749 121.769,489.834C121.769,491.924 120.074,493.615 117.996,493.615ZM685.93,474.932C683.839,474.932 682.144,473.242 682.144,471.152C682.144,469.066 683.839,467.373 685.93,467.373C688.008,467.373 689.703,469.066 689.703,471.152C689.703,473.242 688.008,474.932 685.93,474.932ZM692.858,443.063C690.767,443.063 689.072,441.372 689.072,439.283C689.072,437.197 690.767,435.504 692.858,435.504C694.936,435.504 696.631,437.197 696.631,439.283C696.631,441.372 694.936,443.063 692.858,443.063ZM707.336,389.668C705.245,389.668 703.55,387.978 703.55,385.888C703.55,383.803 705.245,382.109 707.336,382.109C709.414,382.109 711.109,383.803 711.109,385.888C711.109,387.978 709.414,389.668 707.336,389.668ZM79.654,345.559C77.562,345.559 75.867,343.869 75.867,341.779C75.867,339.693 77.562,338 79.654,338C81.731,338 83.426,339.693 83.426,341.779C83.426,343.869 81.731,345.559 79.654,345.559ZM105.616,283.386C113.438,283.386 119.789,289.737 119.789,297.559C119.789,305.381 113.438,311.732 105.616,311.732C97.793,311.732 91.443,305.381 91.443,297.559C91.443,289.737 97.793,283.386 105.616,283.386ZM596.259,219.524C594.167,219.524 592.472,217.834 592.472,215.744C592.472,213.658 594.167,211.965 596.259,211.965C598.337,211.965 600.031,213.658 600.031,215.744C600.031,217.834 598.337,219.524 596.259,219.524ZM210.212,192.207C208.12,192.207 206.425,190.517 206.425,188.427C206.425,186.341 208.12,184.648 210.212,184.648C212.29,184.648 213.984,186.341 213.984,188.427C213.984,190.517 212.29,192.207 210.212,192.207ZM707.336,166.898C705.245,166.898 703.55,165.207 703.55,163.117C703.55,161.032 705.245,159.339 707.336,159.339C709.414,159.339 711.109,161.032 711.109,163.117C711.109,165.207 709.414,166.898 707.336,166.898ZM79.654,166.898C77.562,166.898 75.867,165.207 75.867,163.117C75.867,161.032 77.562,159.339 79.654,159.339C81.731,159.339 83.426,161.032 83.426,163.117C83.426,165.207 81.731,166.898 79.654,166.898ZM241.178,166.898C239.086,166.898 237.392,165.207 237.392,163.117C237.392,161.032 239.086,159.339 241.178,159.339C243.256,159.339 244.951,161.032 244.951,163.117C244.951,165.207 243.256,166.898 241.178,166.898ZM400.32,166.898C398.228,166.898 396.533,165.207 396.533,163.117C396.533,161.032 398.228,159.339 400.32,159.339C402.397,159.339 404.092,161.032 404.092,163.117C404.092,165.207 402.397,166.898 400.32,166.898Z" style="fill:rgb(255,128,255);fill-opacity:0.45;stroke:rgb(250,66,0);stroke-width:1.32px;"/>
                    </g>
                </g>
            </g>
        </g>
    </g>
</svg>
