<?xml version="1.0" encoding="UTF-8" standalone="no"?>
<!DOCTYPE svg PUBLIC "-//W3C//DTD SVG 1.1//EN" "http://www.w3.org/Graphics/SVG/1.1/DTD/svg11.dtd">
<svg width="100%" height="100%" viewBox="0 0 870 809" version="1.1" xmlns="http://www.w3.org/2000/svg" xmlns:xlink="http://www.w3.org/1999/xlink" xml:space="preserve" xmlns:serif="http://www.serif.com/" style="fill-rule:evenodd;clip-rule:evenodd;stroke-linecap:square;stroke-linejoin:round;stroke-miterlimit:1.5;">
    <g id="アートボード1" transform="matrix(1.29657,0,0,1.71036,-80.3875,-66.704)">
        <rect x="62" y="39" width="671" height="473" style="fill:none;"/>
        <g transform="matrix(0.771264,0,0,0.584672,62,39)">
            <g id="Split-Left-v02" serif:id="Split Left v02">
                <g id="Under">
                    <path id="外形" d="M64.529,148L722.448,148L722.448,628L646.363,628L502.155,596.694L64.529,596.694L64.529,148ZM707.336,616.661C705.245,616.661 703.55,614.971 703.55,612.881C703.55,610.796 705.245,609.102 707.336,609.102C709.414,609.102 711.109,610.796 711.109,612.881C711.109,614.971 709.414,616.661 707.336,616.661ZM79.654,585.355C77.562,585.355 75.867,583.665 75.867,581.575C75.867,579.489 77.562,577.796 79.654,577.796C81.731,577.796 83.426,579.489 83.426,581.575C83.426,583.665 81.731,585.355 79.654,585.355ZM414.91,585.355C412.819,585.355 411.124,583.665 411.124,581.575C411.124,579.489 412.819,577.796 414.91,577.796C416.988,577.796 418.683,579.489 418.683,581.575C418.683,583.665 416.988,585.355 414.91,585.355ZM707.336,389.668C705.245,389.668 703.55,387.978 703.55,385.888C703.55,383.803 705.245,382.109 707.336,382.109C709.414,382.109 711.109,383.803 711.109,385.888C711.109,387.978 709.414,389.668 707.336,389.668ZM79.654,345.559C77.562,345.559 75.867,343.869 75.867,341.779C75.867,339.693 77.562,338 79.654,338C81.731,338 83.426,339.693 83.426,341.779C83.426,343.869 81.731,345.559 79.654,345.559ZM79.654,166.898C77.562,166.898 75.867,165.207 75.867,163.117C75.867,161.032 77.562,159.339 79.654,159.339C81.731,159.339 83.426,161.032 83.426,163.117C83.426,165.207 81.731,166.898 79.654,166.898ZM707.336,166.898C705.245,166.898 703.55,165.207 703.55,163.117C703.55,161.032 705.245,159.339 707.336,159.339C709.414,159.339 711.109,161.032 711.109,163.117C711.109,165.207 709.414,166.898 707.336,166.898ZM400.32,166.898C398.228,166.898 396.533,165.207 396.533,163.117C396.533,161.032 398.228,159.339 400.32,159.339C402.397,159.339 404.092,161.032 404.092,163.117C404.092,165.207 402.397,166.898 400.32,166.898ZM241.178,166.898C239.086,166.898 237.392,165.207 237.392,163.117C237.392,161.032 239.086,159.339 241.178,159.339C243.256,159.339 244.951,161.032 244.951,163.117C244.951,165.207 243.256,166.898 241.178,166.898Z" style="fill:rgb(147,37,0);fill-opacity:0.21;stroke:rgb(0,126,66);stroke-width:0.76px;"/>
                </g>
            </g>
        </g>
    </g>
</svg>
