%FSLAX45Y45*%
G04 Gerber Fmt 4.5, Leading zero omitted, Abs format (unit mm)*
G04 Created by KiCad (PCBNEW (5.1.5-0-10_14)) date 2020-05-14 05:52:16*
%MOMM*%
%LPD*%
G04 APERTURE LIST*
%TA.AperFunction,Profile*%
%ADD10C,0.050000*%
%TD*%
%ADD11C,0.200000*%
%ADD12C,0.300000*%
G04 APERTURE END LIST*
D10*
X8298588Y-3355853D02*
X8298588Y-3355853D01*
X18055490Y-3455887D02*
X18055490Y-3455887D01*
X8417206Y-3432875D02*
X8416229Y-3428723D01*
X8416229Y-3428723D02*
X8415106Y-3424709D01*
X8415106Y-3424709D02*
X8413803Y-3420703D01*
X8413803Y-3420703D02*
X8412422Y-3416984D01*
X8412422Y-3416984D02*
X8410858Y-3413239D01*
X8410858Y-3413239D02*
X8409221Y-3409721D01*
X8409221Y-3409721D02*
X8407476Y-3406321D01*
X8407476Y-3406321D02*
X8405648Y-3403073D01*
X8405648Y-3403073D02*
X8403708Y-3399907D01*
X8403708Y-3399907D02*
X8401616Y-3396764D01*
X8401616Y-3396764D02*
X8399481Y-3393804D01*
X8399481Y-3393804D02*
X8397268Y-3390961D01*
X8397268Y-3390961D02*
X8394911Y-3388149D01*
X8394911Y-3388149D02*
X8392483Y-3385458D01*
X8392483Y-3385458D02*
X8389964Y-3382862D01*
X8389964Y-3382862D02*
X8387357Y-3380361D01*
X8387357Y-3380361D02*
X8384693Y-3377983D01*
X8384693Y-3377983D02*
X8381935Y-3375692D01*
X8381935Y-3375692D02*
X8379113Y-3373512D01*
X8379113Y-3373512D02*
X8376017Y-3371297D01*
X8376017Y-3371297D02*
X8372983Y-3369291D01*
X8372983Y-3369291D02*
X8369522Y-3367187D01*
X8369522Y-3367187D02*
X8366110Y-3365294D01*
X8366110Y-3365294D02*
X8362761Y-3363598D01*
X8362761Y-3363598D02*
X8359245Y-3361983D01*
X8359245Y-3361983D02*
X8355437Y-3360413D01*
X8355437Y-3360413D02*
X8351776Y-3359073D01*
X8351776Y-3359073D02*
X8347950Y-3357841D01*
X8347950Y-3357841D02*
X8343958Y-3356734D01*
X8343958Y-3356734D02*
X8339820Y-3355772D01*
X8339820Y-3355772D02*
X8335481Y-3354960D01*
X8335481Y-3354960D02*
X8331054Y-3354336D01*
X8331054Y-3354336D02*
X8326352Y-3353894D01*
X8326352Y-3353894D02*
X8321472Y-3353673D01*
X8321472Y-3353673D02*
X8316437Y-3353697D01*
X8316437Y-3353697D02*
X8311587Y-3353961D01*
X8311587Y-3353961D02*
X8307029Y-3354427D01*
X8307029Y-3354427D02*
X8302615Y-3355081D01*
X8302615Y-3355081D02*
X8298588Y-3355853D01*
X8340159Y-3551484D02*
X8344326Y-3550504D01*
X8344326Y-3550504D02*
X8348298Y-3549395D01*
X8348298Y-3549395D02*
X8352209Y-3548127D01*
X8352209Y-3548127D02*
X8355891Y-3546768D01*
X8355891Y-3546768D02*
X8359459Y-3545290D01*
X8359459Y-3545290D02*
X8363016Y-3543649D01*
X8363016Y-3543649D02*
X8366353Y-3541952D01*
X8366353Y-3541952D02*
X8369642Y-3540119D01*
X8369642Y-3540119D02*
X8372814Y-3538192D01*
X8372814Y-3538192D02*
X8375885Y-3536165D01*
X8375885Y-3536165D02*
X8379083Y-3533874D01*
X8379083Y-3533874D02*
X8382194Y-3531454D01*
X8382194Y-3531454D02*
X8384973Y-3529118D01*
X8384973Y-3529118D02*
X8387659Y-3526688D01*
X8387659Y-3526688D02*
X8390212Y-3524206D01*
X8390212Y-3524206D02*
X8392748Y-3521556D01*
X8392748Y-3521556D02*
X8395147Y-3518862D01*
X8395147Y-3518862D02*
X8397609Y-3515880D01*
X8397609Y-3515880D02*
X8399821Y-3512989D01*
X8399821Y-3512989D02*
X8401925Y-3510021D01*
X8401925Y-3510021D02*
X8403961Y-3506917D01*
X8403961Y-3506917D02*
X8405901Y-3503707D01*
X8405901Y-3503707D02*
X8407790Y-3500292D01*
X8407790Y-3500292D02*
X8409482Y-3496941D01*
X8409482Y-3496941D02*
X8411110Y-3493388D01*
X8411110Y-3493388D02*
X8412633Y-3489682D01*
X8412633Y-3489682D02*
X8413998Y-3485948D01*
X8413998Y-3485948D02*
X8415231Y-3482101D01*
X8415231Y-3482101D02*
X8416329Y-3478124D01*
X8416329Y-3478124D02*
X8417288Y-3473983D01*
X8417288Y-3473983D02*
X8418096Y-3469641D01*
X8418096Y-3469641D02*
X8418712Y-3465248D01*
X8418712Y-3465248D02*
X8419147Y-3460620D01*
X8419147Y-3460620D02*
X8419370Y-3455718D01*
X8419370Y-3455718D02*
X8419348Y-3450738D01*
X8419348Y-3450738D02*
X8419087Y-3445884D01*
X8419087Y-3445884D02*
X8418625Y-3441323D01*
X8418625Y-3441323D02*
X8417975Y-3436905D01*
X8417975Y-3436905D02*
X8417206Y-3432875D01*
X8221541Y-3474454D02*
X8222511Y-3478606D01*
X8222511Y-3478606D02*
X8223623Y-3482601D01*
X8223623Y-3482601D02*
X8224874Y-3486478D01*
X8224874Y-3486478D02*
X8226286Y-3490310D01*
X8226286Y-3490310D02*
X8227797Y-3493950D01*
X8227797Y-3493950D02*
X8229399Y-3497419D01*
X8229399Y-3497419D02*
X8231107Y-3500772D01*
X8231107Y-3500772D02*
X8232902Y-3503995D01*
X8232902Y-3503995D02*
X8234871Y-3507232D01*
X8234871Y-3507232D02*
X8236911Y-3510318D01*
X8236911Y-3510318D02*
X8239102Y-3513377D01*
X8239102Y-3513377D02*
X8241354Y-3516284D01*
X8241354Y-3516284D02*
X8243656Y-3519042D01*
X8243656Y-3519042D02*
X8246038Y-3521696D01*
X8246038Y-3521696D02*
X8248510Y-3524260D01*
X8248510Y-3524260D02*
X8251219Y-3526871D01*
X8251219Y-3526871D02*
X8253906Y-3529278D01*
X8253906Y-3529278D02*
X8256881Y-3531749D01*
X8256881Y-3531749D02*
X8259766Y-3533968D01*
X8259766Y-3533968D02*
X8262697Y-3536060D01*
X8262697Y-3536060D02*
X8265827Y-3538125D01*
X8265827Y-3538125D02*
X8269032Y-3540073D01*
X8269032Y-3540073D02*
X8272259Y-3541874D01*
X8272259Y-3541874D02*
X8275788Y-3543672D01*
X8275788Y-3543672D02*
X8279338Y-3545308D01*
X8279338Y-3545308D02*
X8283092Y-3546861D01*
X8283092Y-3546861D02*
X8286807Y-3548227D01*
X8286807Y-3548227D02*
X8290651Y-3549468D01*
X8290651Y-3549468D02*
X8294589Y-3550565D01*
X8294589Y-3550565D02*
X8298728Y-3551533D01*
X8298728Y-3551533D02*
X8303070Y-3552351D01*
X8303070Y-3552351D02*
X8307499Y-3552982D01*
X8307499Y-3552982D02*
X8312320Y-3553440D01*
X8312320Y-3553440D02*
X8317146Y-3553662D01*
X8317146Y-3553662D02*
X8322284Y-3553640D01*
X8322284Y-3553640D02*
X8327141Y-3553375D01*
X8327141Y-3553375D02*
X8331705Y-3552909D01*
X8331705Y-3552909D02*
X8336284Y-3552229D01*
X8336284Y-3552229D02*
X8340159Y-3551484D01*
X8298588Y-3355853D02*
X8294414Y-3356831D01*
X8294414Y-3356831D02*
X8290284Y-3357986D01*
X8290284Y-3357986D02*
X8286371Y-3359259D01*
X8286371Y-3359259D02*
X8282650Y-3360638D01*
X8282650Y-3360638D02*
X8278797Y-3362248D01*
X8278797Y-3362248D02*
X8275367Y-3363845D01*
X8275367Y-3363845D02*
X8272017Y-3365562D01*
X8272017Y-3365562D02*
X8268370Y-3367621D01*
X8268370Y-3367621D02*
X8264988Y-3369717D01*
X8264988Y-3369717D02*
X8261985Y-3371742D01*
X8261985Y-3371742D02*
X8258644Y-3374189D01*
X8258644Y-3374189D02*
X8255781Y-3376464D01*
X8255781Y-3376464D02*
X8252812Y-3379012D01*
X8252812Y-3379012D02*
X8250155Y-3381473D01*
X8250155Y-3381473D02*
X8247579Y-3384038D01*
X8247579Y-3384038D02*
X8245026Y-3386774D01*
X8245026Y-3386774D02*
X8242687Y-3389471D01*
X8242687Y-3389471D02*
X8240437Y-3392261D01*
X8240437Y-3392261D02*
X8238189Y-3395265D01*
X8238189Y-3395265D02*
X8236108Y-3398272D01*
X8236108Y-3398272D02*
X8234088Y-3401432D01*
X8234088Y-3401432D02*
X8232187Y-3404665D01*
X8232187Y-3404665D02*
X8230339Y-3408101D01*
X8230339Y-3408101D02*
X8228688Y-3411474D01*
X8228688Y-3411474D02*
X8226988Y-3415325D01*
X8226988Y-3415325D02*
X8225553Y-3418967D01*
X8225553Y-3418967D02*
X8224249Y-3422704D01*
X8224249Y-3422704D02*
X8223071Y-3426571D01*
X8223071Y-3426571D02*
X8221874Y-3431230D01*
X8221874Y-3431230D02*
X8220998Y-3435435D01*
X8220998Y-3435435D02*
X8220286Y-3439802D01*
X8220286Y-3439802D02*
X8219754Y-3444369D01*
X8219754Y-3444369D02*
X8219419Y-3449289D01*
X8219419Y-3449289D02*
X8219329Y-3454252D01*
X8219329Y-3454252D02*
X8219490Y-3459249D01*
X8219490Y-3459249D02*
X8219873Y-3463958D01*
X8219873Y-3463958D02*
X8220460Y-3468529D01*
X8220460Y-3468529D02*
X8221201Y-3472794D01*
X8221201Y-3472794D02*
X8221541Y-3474454D01*
X12752563Y-4399353D02*
X12752563Y-4399353D01*
X18174108Y-3532908D02*
X18173162Y-3528853D01*
X18173162Y-3528853D02*
X18172072Y-3524914D01*
X18172072Y-3524914D02*
X18170851Y-3521109D01*
X18170851Y-3521109D02*
X18169476Y-3517345D01*
X18169476Y-3517345D02*
X18167991Y-3513736D01*
X18167991Y-3513736D02*
X18166359Y-3510173D01*
X18166359Y-3510173D02*
X18164614Y-3506729D01*
X18164614Y-3506729D02*
X18162746Y-3503371D01*
X18162746Y-3503371D02*
X18160849Y-3500247D01*
X18160849Y-3500247D02*
X18158824Y-3497174D01*
X18158824Y-3497174D02*
X18156705Y-3494203D01*
X18156705Y-3494203D02*
X18154508Y-3491349D01*
X18154508Y-3491349D02*
X18151968Y-3488297D01*
X18151968Y-3488297D02*
X18149340Y-3485382D01*
X18149340Y-3485382D02*
X18146845Y-3482816D01*
X18146845Y-3482816D02*
X18144209Y-3480293D01*
X18144209Y-3480293D02*
X18141515Y-3477895D01*
X18141515Y-3477895D02*
X18138738Y-3475597D01*
X18138738Y-3475597D02*
X18135762Y-3473311D01*
X18135762Y-3473311D02*
X18132735Y-3471161D01*
X18132735Y-3471161D02*
X18129346Y-3468944D01*
X18129346Y-3468944D02*
X18126097Y-3466996D01*
X18126097Y-3466996D02*
X18122859Y-3465213D01*
X18122859Y-3465213D02*
X18119454Y-3463502D01*
X18119454Y-3463502D02*
X18115897Y-3461882D01*
X18115897Y-3461882D02*
X18112310Y-3460413D01*
X18112310Y-3460413D02*
X18108628Y-3459069D01*
X18108628Y-3459069D02*
X18104744Y-3457826D01*
X18104744Y-3457826D02*
X18100766Y-3456730D01*
X18100766Y-3456730D02*
X18096660Y-3455782D01*
X18096660Y-3455782D02*
X18092277Y-3454970D01*
X18092277Y-3454970D02*
X18087883Y-3454356D01*
X18087883Y-3454356D02*
X18083290Y-3453928D01*
X18083290Y-3453928D02*
X18078347Y-3453705D01*
X18078347Y-3453705D02*
X18073364Y-3453730D01*
X18073364Y-3453730D02*
X18068508Y-3453995D01*
X18068508Y-3453995D02*
X18063943Y-3454461D01*
X18063943Y-3454461D02*
X18059523Y-3455115D01*
X18059523Y-3455115D02*
X18055490Y-3455887D01*
X18097146Y-3651518D02*
X18101313Y-3650538D01*
X18101313Y-3650538D02*
X18105285Y-3649428D01*
X18105285Y-3649428D02*
X18109195Y-3648161D01*
X18109195Y-3648161D02*
X18112877Y-3646801D01*
X18112877Y-3646801D02*
X18116445Y-3645323D01*
X18116445Y-3645323D02*
X18120003Y-3643683D01*
X18120003Y-3643683D02*
X18123339Y-3641986D01*
X18123339Y-3641986D02*
X18126628Y-3640153D01*
X18126628Y-3640153D02*
X18129799Y-3638225D01*
X18129799Y-3638225D02*
X18132870Y-3636199D01*
X18132870Y-3636199D02*
X18135946Y-3633998D01*
X18135946Y-3633998D02*
X18138825Y-3631772D01*
X18138825Y-3631772D02*
X18141614Y-3629449D01*
X18141614Y-3629449D02*
X18144312Y-3627030D01*
X18144312Y-3627030D02*
X18146875Y-3624559D01*
X18146875Y-3624559D02*
X18149423Y-3621921D01*
X18149423Y-3621921D02*
X18151809Y-3619265D01*
X18151809Y-3619265D02*
X18154238Y-3616354D01*
X18154238Y-3616354D02*
X18156531Y-3613385D01*
X18156531Y-3613385D02*
X18158627Y-3610457D01*
X18158627Y-3610457D02*
X18160857Y-3607077D01*
X18160857Y-3607077D02*
X18162799Y-3603870D01*
X18162799Y-3603870D02*
X18164622Y-3600591D01*
X18164622Y-3600591D02*
X18166321Y-3597245D01*
X18166321Y-3597245D02*
X18168122Y-3593318D01*
X18168122Y-3593318D02*
X18169619Y-3589663D01*
X18169619Y-3589663D02*
X18170960Y-3585981D01*
X18170960Y-3585981D02*
X18172201Y-3582098D01*
X18172201Y-3582098D02*
X18173313Y-3578048D01*
X18173313Y-3578048D02*
X18174302Y-3573719D01*
X18174302Y-3573719D02*
X18175092Y-3569373D01*
X18175092Y-3569373D02*
X18175708Y-3564825D01*
X18175708Y-3564825D02*
X18176114Y-3560231D01*
X18176114Y-3560231D02*
X18176311Y-3555286D01*
X18176311Y-3555286D02*
X18176260Y-3550303D01*
X18176260Y-3550303D02*
X18175969Y-3545447D01*
X18175969Y-3545447D02*
X18175478Y-3540883D01*
X18175478Y-3540883D02*
X18174800Y-3536465D01*
X18174800Y-3536465D02*
X18174108Y-3532908D01*
X17978528Y-3574488D02*
X17979498Y-3578640D01*
X17979498Y-3578640D02*
X17980609Y-3582635D01*
X17980609Y-3582635D02*
X17981861Y-3586512D01*
X17981861Y-3586512D02*
X17983273Y-3590344D01*
X17983273Y-3590344D02*
X17984784Y-3593984D01*
X17984784Y-3593984D02*
X17986386Y-3597453D01*
X17986386Y-3597453D02*
X17988093Y-3600806D01*
X17988093Y-3600806D02*
X17989889Y-3604028D01*
X17989889Y-3604028D02*
X17991858Y-3607266D01*
X17991858Y-3607266D02*
X17993897Y-3610352D01*
X17993897Y-3610352D02*
X17996089Y-3613411D01*
X17996089Y-3613411D02*
X17998341Y-3616318D01*
X17998341Y-3616318D02*
X18000643Y-3619076D01*
X18000643Y-3619076D02*
X18003025Y-3621730D01*
X18003025Y-3621730D02*
X18005497Y-3624293D01*
X18005497Y-3624293D02*
X18008205Y-3626905D01*
X18008205Y-3626905D02*
X18010893Y-3629311D01*
X18010893Y-3629311D02*
X18013868Y-3631782D01*
X18013868Y-3631782D02*
X18016752Y-3634002D01*
X18016752Y-3634002D02*
X18019683Y-3636093D01*
X18019683Y-3636093D02*
X18022814Y-3638159D01*
X18022814Y-3638159D02*
X18026019Y-3640107D01*
X18026019Y-3640107D02*
X18029246Y-3641908D01*
X18029246Y-3641908D02*
X18032775Y-3643706D01*
X18032775Y-3643706D02*
X18036324Y-3645342D01*
X18036324Y-3645342D02*
X18040079Y-3646895D01*
X18040079Y-3646895D02*
X18043793Y-3648260D01*
X18043793Y-3648260D02*
X18047638Y-3649502D01*
X18047638Y-3649502D02*
X18051576Y-3650598D01*
X18051576Y-3650598D02*
X18055715Y-3651567D01*
X18055715Y-3651567D02*
X18060057Y-3652385D01*
X18060057Y-3652385D02*
X18064486Y-3653016D01*
X18064486Y-3653016D02*
X18069306Y-3653474D01*
X18069306Y-3653474D02*
X18074133Y-3653695D01*
X18074133Y-3653695D02*
X18079271Y-3653673D01*
X18079271Y-3653673D02*
X18084128Y-3653409D01*
X18084128Y-3653409D02*
X18088692Y-3652943D01*
X18088692Y-3652943D02*
X18093271Y-3652262D01*
X18093271Y-3652262D02*
X18097146Y-3651518D01*
X18055490Y-3455887D02*
X18051342Y-3456860D01*
X18051342Y-3456860D02*
X18047351Y-3457974D01*
X18047351Y-3457974D02*
X18043328Y-3459280D01*
X18043328Y-3459280D02*
X18039467Y-3460715D01*
X18039467Y-3460715D02*
X18035870Y-3462219D01*
X18035870Y-3462219D02*
X18032354Y-3463853D01*
X18032354Y-3463853D02*
X18028923Y-3465614D01*
X18028923Y-3465614D02*
X18025710Y-3467421D01*
X18025710Y-3467421D02*
X18022546Y-3469358D01*
X18022546Y-3469358D02*
X18019514Y-3471373D01*
X18019514Y-3471373D02*
X18016567Y-3473491D01*
X18016567Y-3473491D02*
X18013677Y-3475733D01*
X18013677Y-3475733D02*
X18010906Y-3478048D01*
X18010906Y-3478048D02*
X18008213Y-3480470D01*
X18008213Y-3480470D02*
X18005613Y-3482984D01*
X18005613Y-3482984D02*
X18003109Y-3485586D01*
X18003109Y-3485586D02*
X18000691Y-3488288D01*
X18000691Y-3488288D02*
X17998397Y-3491043D01*
X17998397Y-3491043D02*
X17996104Y-3494012D01*
X17996104Y-3494012D02*
X17993987Y-3496970D01*
X17993987Y-3496970D02*
X17991939Y-3500066D01*
X17991939Y-3500066D02*
X17989911Y-3503397D01*
X17989911Y-3503397D02*
X17988102Y-3506639D01*
X17988102Y-3506639D02*
X17986379Y-3510016D01*
X17986379Y-3510016D02*
X17984498Y-3514112D01*
X17984498Y-3514112D02*
X17983016Y-3517733D01*
X17983016Y-3517733D02*
X17981663Y-3521450D01*
X17981663Y-3521450D02*
X17980434Y-3525297D01*
X17980434Y-3525297D02*
X17979354Y-3529219D01*
X17979354Y-3529219D02*
X17978395Y-3533378D01*
X17978395Y-3533378D02*
X17977591Y-3537721D01*
X17977591Y-3537721D02*
X17976979Y-3542113D01*
X17976979Y-3542113D02*
X17976542Y-3546857D01*
X17976542Y-3546857D02*
X17976329Y-3551799D01*
X17976329Y-3551799D02*
X17976365Y-3556780D01*
X17976365Y-3556780D02*
X17976640Y-3561634D01*
X17976640Y-3561634D02*
X17977116Y-3566196D01*
X17977116Y-3566196D02*
X17977780Y-3570615D01*
X17977780Y-3570615D02*
X17978528Y-3574488D01*
X10894553Y-3514840D02*
X10894553Y-3514840D01*
X11185637Y-4884298D02*
X10894553Y-3514840D01*
X12555035Y-4593206D02*
X11185637Y-4884298D01*
X12263951Y-3223756D02*
X12555035Y-4593206D01*
X10894553Y-3514840D02*
X12263951Y-3223756D01*
X12652741Y-4299336D02*
X12652867Y-4304407D01*
X12652867Y-4304407D02*
X12653214Y-4309136D01*
X12653214Y-4309136D02*
X12653751Y-4313607D01*
X12653751Y-4313607D02*
X12654460Y-4317899D01*
X12654460Y-4317899D02*
X12655332Y-4322052D01*
X12655332Y-4322052D02*
X12656363Y-4326103D01*
X12656363Y-4326103D02*
X12657581Y-4330158D01*
X12657581Y-4330158D02*
X12658903Y-4333978D01*
X12658903Y-4333978D02*
X12660345Y-4337656D01*
X12660345Y-4337656D02*
X12661934Y-4341278D01*
X12661934Y-4341278D02*
X12663660Y-4344823D01*
X12663660Y-4344823D02*
X12665445Y-4348157D01*
X12665445Y-4348157D02*
X12667430Y-4351542D01*
X12667430Y-4351542D02*
X12669459Y-4354716D01*
X12669459Y-4354716D02*
X12671513Y-4357684D01*
X12671513Y-4357684D02*
X12673948Y-4360929D01*
X12673948Y-4360929D02*
X12676218Y-4363726D01*
X12676218Y-4363726D02*
X12678559Y-4366410D01*
X12678559Y-4366410D02*
X12681046Y-4369063D01*
X12681046Y-4369063D02*
X12683572Y-4371572D01*
X12683572Y-4371572D02*
X12686240Y-4374040D01*
X12686240Y-4374040D02*
X12688968Y-4376386D01*
X12688968Y-4376386D02*
X12691780Y-4378635D01*
X12691780Y-4378635D02*
X12694871Y-4380925D01*
X12694871Y-4380925D02*
X12697894Y-4382993D01*
X12697894Y-4382993D02*
X12701075Y-4385002D01*
X12701075Y-4385002D02*
X12704334Y-4386891D01*
X12704334Y-4386891D02*
X12707771Y-4388711D01*
X12707771Y-4388711D02*
X12711180Y-4390352D01*
X12711180Y-4390352D02*
X12714695Y-4391881D01*
X12714695Y-4391881D02*
X12718384Y-4393316D01*
X12718384Y-4393316D02*
X12722252Y-4394641D01*
X12722252Y-4394641D02*
X12726132Y-4395795D01*
X12726132Y-4395795D02*
X12730151Y-4396812D01*
X12730151Y-4396812D02*
X12734518Y-4397716D01*
X12734518Y-4397716D02*
X12738854Y-4398413D01*
X12738854Y-4398413D02*
X12743368Y-4398932D01*
X12743368Y-4398932D02*
X12748277Y-4399262D01*
X12748277Y-4399262D02*
X12752563Y-4399353D01*
X12752563Y-4199353D02*
X12747362Y-4199488D01*
X12747362Y-4199488D02*
X12742621Y-4199846D01*
X12742621Y-4199846D02*
X12738098Y-4200402D01*
X12738098Y-4200402D02*
X12733792Y-4201129D01*
X12733792Y-4201129D02*
X12729548Y-4202039D01*
X12729548Y-4202039D02*
X12725521Y-4203085D01*
X12725521Y-4203085D02*
X12721560Y-4204295D01*
X12721560Y-4204295D02*
X12717669Y-4205663D01*
X12717669Y-4205663D02*
X12714028Y-4207112D01*
X12714028Y-4207112D02*
X12710527Y-4208666D01*
X12710527Y-4208666D02*
X12707131Y-4210332D01*
X12707131Y-4210332D02*
X12703676Y-4212196D01*
X12703676Y-4212196D02*
X12700432Y-4214111D01*
X12700432Y-4214111D02*
X12697361Y-4216081D01*
X12697361Y-4216081D02*
X12694184Y-4218291D01*
X12694184Y-4218291D02*
X12691187Y-4220549D01*
X12691187Y-4220549D02*
X12688393Y-4222820D01*
X12688393Y-4222820D02*
X12685697Y-4225175D01*
X12685697Y-4225175D02*
X12683086Y-4227624D01*
X12683086Y-4227624D02*
X12680525Y-4230204D01*
X12680525Y-4230204D02*
X12677984Y-4232960D01*
X12677984Y-4232960D02*
X12675641Y-4235694D01*
X12675641Y-4235694D02*
X12673407Y-4238496D01*
X12673407Y-4238496D02*
X12671273Y-4241380D01*
X12671273Y-4241380D02*
X12669044Y-4244640D01*
X12669044Y-4244640D02*
X12667039Y-4247828D01*
X12667039Y-4247828D02*
X12665206Y-4250997D01*
X12665206Y-4250997D02*
X12663445Y-4254322D01*
X12663445Y-4254322D02*
X12661791Y-4257754D01*
X12661791Y-4257754D02*
X12660243Y-4261310D01*
X12660243Y-4261310D02*
X12658837Y-4264918D01*
X12658837Y-4264918D02*
X12657498Y-4268811D01*
X12657498Y-4268811D02*
X12656342Y-4272681D01*
X12656342Y-4272681D02*
X12655323Y-4276691D01*
X12655323Y-4276691D02*
X12654431Y-4280955D01*
X12654431Y-4280955D02*
X12653723Y-4285283D01*
X12653723Y-4285283D02*
X12653188Y-4289828D01*
X12653188Y-4289828D02*
X12652850Y-4294613D01*
X12652850Y-4294613D02*
X12652741Y-4299336D01*
X12852723Y-4299336D02*
X12852603Y-4294393D01*
X12852603Y-4294393D02*
X12852261Y-4289670D01*
X12852261Y-4289670D02*
X12851725Y-4285166D01*
X12851725Y-4285166D02*
X12851005Y-4280801D01*
X12851005Y-4280801D02*
X12850104Y-4276521D01*
X12850104Y-4276521D02*
X12849084Y-4272533D01*
X12849084Y-4272533D02*
X12847887Y-4268555D01*
X12847887Y-4268555D02*
X12846572Y-4264757D01*
X12846572Y-4264757D02*
X12845146Y-4261117D01*
X12845146Y-4261117D02*
X12843600Y-4257582D01*
X12843600Y-4257582D02*
X12841948Y-4254170D01*
X12841948Y-4254170D02*
X12840089Y-4250684D01*
X12840089Y-4250684D02*
X12838196Y-4247442D01*
X12838196Y-4247442D02*
X12836176Y-4244262D01*
X12836176Y-4244262D02*
X12834128Y-4241288D01*
X12834128Y-4241288D02*
X12831977Y-4238392D01*
X12831977Y-4238392D02*
X12829725Y-4235578D01*
X12829725Y-4235578D02*
X12827275Y-4232736D01*
X12827275Y-4232736D02*
X12824826Y-4230096D01*
X12824826Y-4230096D02*
X12822284Y-4227545D01*
X12822284Y-4227545D02*
X12819651Y-4225087D01*
X12819651Y-4225087D02*
X12816817Y-4222627D01*
X12816817Y-4222627D02*
X12814009Y-4220365D01*
X12814009Y-4220365D02*
X12811119Y-4218203D01*
X12811119Y-4218203D02*
X12808118Y-4216123D01*
X12808118Y-4216123D02*
X12804974Y-4214111D01*
X12804974Y-4214111D02*
X12801439Y-4212038D01*
X12801439Y-4212038D02*
X12797982Y-4210194D01*
X12797982Y-4210194D02*
X12794428Y-4208474D01*
X12794428Y-4208474D02*
X12790939Y-4206950D01*
X12790939Y-4206950D02*
X12787238Y-4205503D01*
X12787238Y-4205503D02*
X12783468Y-4204200D01*
X12783468Y-4204200D02*
X12779481Y-4203002D01*
X12779481Y-4203002D02*
X12775464Y-4201976D01*
X12775464Y-4201976D02*
X12771307Y-4201099D01*
X12771307Y-4201099D02*
X12767011Y-4200385D01*
X12767011Y-4200385D02*
X12762259Y-4199815D01*
X12762259Y-4199815D02*
X12757481Y-4199472D01*
X12757481Y-4199472D02*
X12752563Y-4199353D01*
X12752563Y-4399353D02*
X12757481Y-4399235D01*
X12757481Y-4399235D02*
X12762259Y-4398891D01*
X12762259Y-4398891D02*
X12766835Y-4398347D01*
X12766835Y-4398347D02*
X12771154Y-4397638D01*
X12771154Y-4397638D02*
X12775445Y-4396737D01*
X12775445Y-4396737D02*
X12779593Y-4395677D01*
X12779593Y-4395677D02*
X12783486Y-4394506D01*
X12783486Y-4394506D02*
X12787382Y-4393157D01*
X12787382Y-4393157D02*
X12791080Y-4391706D01*
X12791080Y-4391706D02*
X12794567Y-4390178D01*
X12794567Y-4390178D02*
X12797982Y-4388523D01*
X12797982Y-4388523D02*
X12801323Y-4386745D01*
X12801323Y-4386745D02*
X12804556Y-4384865D01*
X12804556Y-4384865D02*
X12807647Y-4382911D01*
X12807647Y-4382911D02*
X12810629Y-4380870D01*
X12810629Y-4380870D02*
X12813532Y-4378726D01*
X12813532Y-4378726D02*
X12816354Y-4376482D01*
X12816354Y-4376482D02*
X12819092Y-4374139D01*
X12819092Y-4374139D02*
X12821715Y-4371727D01*
X12821715Y-4371727D02*
X12824304Y-4369170D01*
X12824304Y-4369170D02*
X12826773Y-4366549D01*
X12826773Y-4366549D02*
X12829122Y-4363869D01*
X12829122Y-4363869D02*
X12831516Y-4360929D01*
X12831516Y-4360929D02*
X12833865Y-4357806D01*
X12833865Y-4357806D02*
X12835925Y-4354841D01*
X12835925Y-4354841D02*
X12837960Y-4351671D01*
X12837960Y-4351671D02*
X12839848Y-4348469D01*
X12839848Y-4348469D02*
X12841672Y-4345093D01*
X12841672Y-4345093D02*
X12843408Y-4341553D01*
X12843408Y-4341553D02*
X12844948Y-4338077D01*
X12844948Y-4338077D02*
X12846466Y-4334247D01*
X12846466Y-4334247D02*
X12847781Y-4330487D01*
X12847781Y-4330487D02*
X12848959Y-4326623D01*
X12848959Y-4326623D02*
X12849992Y-4322656D01*
X12849992Y-4322656D02*
X12850911Y-4318398D01*
X12850911Y-4318398D02*
X12851652Y-4314035D01*
X12851652Y-4314035D02*
X12852211Y-4309531D01*
X12852211Y-4309531D02*
X12852580Y-4304727D01*
X12852580Y-4304727D02*
X12852722Y-4299842D01*
X12852722Y-4299842D02*
X12852723Y-4299336D01*
X8981594Y-3677866D02*
X8981594Y-3677866D01*
X9272678Y-5047324D02*
X8981594Y-3677866D01*
X10642161Y-4756232D02*
X9272678Y-5047324D01*
X10351077Y-3386782D02*
X10642161Y-4756232D01*
X8981594Y-3677866D02*
X10351077Y-3386782D01*
X13005208Y-4282157D02*
X13005208Y-4282157D01*
X13296292Y-5651607D02*
X13005208Y-4282157D01*
X14665775Y-5360514D02*
X13296292Y-5651607D01*
X14374607Y-3991065D02*
X14665775Y-5360514D01*
X13005208Y-4282157D02*
X14374607Y-3991065D01*
X7167780Y-4306982D02*
X7167780Y-4306982D01*
X7458864Y-5676440D02*
X7167780Y-4306982D01*
X8828347Y-5385347D02*
X7458864Y-5676440D01*
X6036803Y-9835927D02*
X5793471Y-9887641D01*
X5974403Y-9542481D02*
X6036803Y-9835927D01*
X5731156Y-9594203D02*
X5974403Y-9542481D01*
X6146023Y-8662582D02*
X6146023Y-8662582D01*
X6437107Y-10032032D02*
X6146023Y-8662582D01*
X7806590Y-9740948D02*
X6437107Y-10032032D01*
X7515506Y-8371498D02*
X7806590Y-9740948D01*
X6146023Y-8662582D02*
X7515506Y-8371498D01*
X5536084Y-9492070D02*
X5536685Y-9487660D01*
X5536685Y-9487660D02*
X5538168Y-9484100D01*
X5538168Y-9484100D02*
X5539301Y-9482384D01*
X5437363Y-6825349D02*
X5436018Y-6821552D01*
X5436018Y-6821552D02*
X5434027Y-6818512D01*
X5434027Y-6818512D02*
X5431483Y-6816055D01*
X5431483Y-6816055D02*
X5428366Y-6814166D01*
X5428366Y-6814166D02*
X5424565Y-6812963D01*
X5424565Y-6812963D02*
X5421699Y-6812700D01*
X18119329Y-10010865D02*
X19488727Y-9719739D01*
X6267943Y-11257158D02*
X6266935Y-11252887D01*
X6266935Y-11252887D02*
X6265831Y-11248950D01*
X6265831Y-11248950D02*
X6264528Y-11244943D01*
X6264528Y-11244943D02*
X6263147Y-11241223D01*
X6263147Y-11241223D02*
X6261661Y-11237656D01*
X6261661Y-11237656D02*
X6259980Y-11234029D01*
X6259980Y-11234029D02*
X6258283Y-11230713D01*
X6258283Y-11230713D02*
X6256471Y-11227477D01*
X6256471Y-11227477D02*
X6254558Y-11224340D01*
X6254558Y-11224340D02*
X6252537Y-11221286D01*
X6252537Y-11221286D02*
X6250413Y-11218319D01*
X6250413Y-11218319D02*
X6248175Y-11215424D01*
X6248175Y-11215424D02*
X6245765Y-11212535D01*
X6245765Y-11212535D02*
X6243137Y-11209620D01*
X6243137Y-11209620D02*
X6240642Y-11207054D01*
X6240642Y-11207054D02*
X6238007Y-11204531D01*
X6238007Y-11204531D02*
X6235313Y-11202133D01*
X6235313Y-11202133D02*
X6232332Y-11199672D01*
X6232332Y-11199672D02*
X6229321Y-11197373D01*
X6229321Y-11197373D02*
X6226119Y-11195117D01*
X6226119Y-11195117D02*
X6223086Y-11193145D01*
X6223086Y-11193145D02*
X6219902Y-11191237D01*
X6219902Y-11191237D02*
X6216666Y-11189455D01*
X6216666Y-11189455D02*
X6213297Y-11187760D01*
X6213297Y-11187760D02*
X6209846Y-11186183D01*
X6209846Y-11186183D02*
X6206211Y-11184689D01*
X6206211Y-11184689D02*
X6202550Y-11183349D01*
X6202550Y-11183349D02*
X6198670Y-11182101D01*
X6198670Y-11182101D02*
X6194732Y-11181010D01*
X6194732Y-11181010D02*
X6190593Y-11180047D01*
X6190593Y-11180047D02*
X6186384Y-11179257D01*
X6186384Y-11179257D02*
X6181861Y-11178615D01*
X6181861Y-11178615D02*
X6177272Y-11178177D01*
X6177272Y-11178177D02*
X6172487Y-11177950D01*
X6172487Y-11177950D02*
X6167352Y-11177961D01*
X6167352Y-11177961D02*
X6162341Y-11178228D01*
X6162341Y-11178228D02*
X6157777Y-11178692D01*
X6157777Y-11178692D02*
X6153357Y-11179342D01*
X6153357Y-11179342D02*
X6149325Y-11180112D01*
X6190896Y-11375776D02*
X6195050Y-11374799D01*
X6195050Y-11374799D02*
X6199046Y-11373682D01*
X6199046Y-11373682D02*
X6202850Y-11372452D01*
X6202850Y-11372452D02*
X6206648Y-11371052D01*
X6206648Y-11371052D02*
X6210255Y-11369558D01*
X6210255Y-11369558D02*
X6213798Y-11367924D01*
X6213798Y-11367924D02*
X6217119Y-11366234D01*
X6217119Y-11366234D02*
X6220411Y-11364401D01*
X6220411Y-11364401D02*
X6223584Y-11362473D01*
X6223584Y-11362473D02*
X6226657Y-11360446D01*
X6226657Y-11360446D02*
X6229826Y-11358178D01*
X6229826Y-11358178D02*
X6232983Y-11355723D01*
X6232983Y-11355723D02*
X6235747Y-11353400D01*
X6235747Y-11353400D02*
X6238433Y-11350970D01*
X6238433Y-11350970D02*
X6240986Y-11348489D01*
X6240986Y-11348489D02*
X6243522Y-11345840D01*
X6243522Y-11345840D02*
X6246115Y-11342918D01*
X6246115Y-11342918D02*
X6248381Y-11340166D01*
X6248381Y-11340166D02*
X6250768Y-11337034D01*
X6250768Y-11337034D02*
X6252842Y-11334092D01*
X6252842Y-11334092D02*
X6254828Y-11331046D01*
X6254828Y-11331046D02*
X6256816Y-11327736D01*
X6256816Y-11327736D02*
X6258624Y-11324450D01*
X6258624Y-11324450D02*
X6260374Y-11320961D01*
X6260374Y-11320961D02*
X6261944Y-11317507D01*
X6261944Y-11317507D02*
X6263412Y-11313922D01*
X6263412Y-11313922D02*
X6264754Y-11310241D01*
X6264754Y-11310241D02*
X6265985Y-11306395D01*
X6265985Y-11306395D02*
X6267109Y-11302309D01*
X6267109Y-11302309D02*
X6268068Y-11298129D01*
X6268068Y-11298129D02*
X6268867Y-11293784D01*
X6268867Y-11293784D02*
X6269477Y-11289371D01*
X6269477Y-11289371D02*
X6269918Y-11284491D01*
X6269918Y-11284491D02*
X6270119Y-11279545D01*
X6270119Y-11279545D02*
X6270072Y-11274561D01*
X6270072Y-11274561D02*
X6269774Y-11269546D01*
X6269774Y-11269546D02*
X6269260Y-11264823D01*
X6269260Y-11264823D02*
X6268574Y-11260401D01*
X6268574Y-11260401D02*
X6267943Y-11257158D01*
X6072278Y-11298730D02*
X6073284Y-11303000D01*
X6073284Y-11303000D02*
X6074498Y-11307298D01*
X6074498Y-11307298D02*
X6075738Y-11311076D01*
X6075738Y-11311076D02*
X6077173Y-11314921D01*
X6077173Y-11314921D02*
X6078732Y-11318627D01*
X6078732Y-11318627D02*
X6080470Y-11322331D01*
X6080470Y-11322331D02*
X6082184Y-11325638D01*
X6082184Y-11325638D02*
X6084060Y-11328947D01*
X6084060Y-11328947D02*
X6085992Y-11332072D01*
X6085992Y-11332072D02*
X6088030Y-11335113D01*
X6088030Y-11335113D02*
X6090240Y-11338159D01*
X6090240Y-11338159D02*
X6092449Y-11340979D01*
X6092449Y-11340979D02*
X6094753Y-11343712D01*
X6094753Y-11343712D02*
X6097264Y-11346479D01*
X6097264Y-11346479D02*
X6100033Y-11349304D01*
X6100033Y-11349304D02*
X6102656Y-11351786D01*
X6102656Y-11351786D02*
X6105364Y-11354169D01*
X6105364Y-11354169D02*
X6108153Y-11356452D01*
X6108153Y-11356452D02*
X6111110Y-11358698D01*
X6111110Y-11358698D02*
X6114101Y-11360801D01*
X6114101Y-11360801D02*
X6117230Y-11362834D01*
X6117230Y-11362834D02*
X6120708Y-11364908D01*
X6120708Y-11364908D02*
X6123969Y-11366685D01*
X6123969Y-11366685D02*
X6127380Y-11368381D01*
X6127380Y-11368381D02*
X6130926Y-11369978D01*
X6130926Y-11369978D02*
X6134553Y-11371445D01*
X6134553Y-11371445D02*
X6138276Y-11372782D01*
X6138276Y-11372782D02*
X6142112Y-11373990D01*
X6142112Y-11373990D02*
X6146075Y-11375062D01*
X6146075Y-11375062D02*
X6150222Y-11375999D01*
X6150222Y-11375999D02*
X6154476Y-11376769D01*
X6154476Y-11376769D02*
X6159120Y-11377392D01*
X6159120Y-11377392D02*
X6163870Y-11377801D01*
X6163870Y-11377801D02*
X6168818Y-11377983D01*
X6168818Y-11377983D02*
X6173805Y-11377916D01*
X6173805Y-11377916D02*
X6178664Y-11377610D01*
X6178664Y-11377610D02*
X6183389Y-11377084D01*
X6183389Y-11377084D02*
X6187811Y-11376384D01*
X6187811Y-11376384D02*
X6190896Y-11375776D01*
X6149325Y-11180112D02*
X6145209Y-11181078D01*
X6145209Y-11181078D02*
X6140907Y-11182286D01*
X6140907Y-11182286D02*
X6137109Y-11183527D01*
X6137109Y-11183527D02*
X6133426Y-11184894D01*
X6133426Y-11184894D02*
X6129680Y-11186459D01*
X6129680Y-11186459D02*
X6126161Y-11188095D01*
X6126161Y-11188095D02*
X6121949Y-11190282D01*
X6121949Y-11190282D02*
X6118753Y-11192118D01*
X6118753Y-11192118D02*
X6115479Y-11194168D01*
X6115479Y-11194168D02*
X6112454Y-11196225D01*
X6112454Y-11196225D02*
X6109545Y-11198362D01*
X6109545Y-11198362D02*
X6106665Y-11200646D01*
X6106665Y-11200646D02*
X6103934Y-11202978D01*
X6103934Y-11202978D02*
X6101238Y-11205454D01*
X6101238Y-11205454D02*
X6098705Y-11207955D01*
X6098705Y-11207955D02*
X6096089Y-11210736D01*
X6096089Y-11210736D02*
X6093716Y-11213452D01*
X6093716Y-11213452D02*
X6091455Y-11216235D01*
X6091455Y-11216235D02*
X6089296Y-11219095D01*
X6089296Y-11219095D02*
X6087199Y-11222090D01*
X6087199Y-11222090D02*
X6085173Y-11225223D01*
X6085173Y-11225223D02*
X6083254Y-11228445D01*
X6083254Y-11228445D02*
X6081456Y-11231738D01*
X6081456Y-11231738D02*
X6079781Y-11235097D01*
X6079781Y-11235097D02*
X6078164Y-11238675D01*
X6078164Y-11238675D02*
X6076700Y-11242284D01*
X6076700Y-11242284D02*
X6075369Y-11245969D01*
X6075369Y-11245969D02*
X6074154Y-11249802D01*
X6074154Y-11249802D02*
X6072928Y-11254351D01*
X6072928Y-11254351D02*
X6072000Y-11258539D01*
X6072000Y-11258539D02*
X6071211Y-11263042D01*
X6071211Y-11263042D02*
X6070626Y-11267615D01*
X6070626Y-11267615D02*
X6070245Y-11272349D01*
X6070245Y-11272349D02*
X6070090Y-11277299D01*
X6070090Y-11277299D02*
X6070184Y-11282285D01*
X6070184Y-11282285D02*
X6070501Y-11286986D01*
X6070501Y-11286986D02*
X6071023Y-11291548D01*
X6071023Y-11291548D02*
X6071732Y-11295965D01*
X6071732Y-11295965D02*
X6072278Y-11298730D01*
X20483815Y-11185700D02*
X20483815Y-11185700D01*
X18410413Y-11380264D02*
X18119329Y-10010865D01*
X19779811Y-11089180D02*
X18410413Y-11380264D01*
X19488727Y-9719739D02*
X19779811Y-11089180D01*
X15551389Y-12962514D02*
X14181905Y-13253598D01*
X15260305Y-11593031D02*
X15551389Y-12962514D01*
X13890821Y-11884115D02*
X15260305Y-11593031D01*
X15363683Y-6215292D02*
X15363683Y-6215292D01*
X15654767Y-7584742D02*
X15363683Y-6215292D01*
X17024165Y-7293658D02*
X15654767Y-7584742D01*
X16733081Y-5924208D02*
X17024165Y-7293658D01*
X16156417Y-9941862D02*
X17525900Y-9650803D01*
X6149325Y-11180112D02*
X6149325Y-11180112D01*
X18119329Y-10010865D02*
X18119329Y-10010865D01*
X15760346Y-8078526D02*
X17129152Y-7787569D01*
X5731156Y-9594203D02*
X5731156Y-9594203D01*
X5793471Y-9887641D02*
X5731156Y-9594203D01*
X15562903Y-9581165D02*
X15853987Y-10950580D01*
X14193420Y-9872249D02*
X15562903Y-9581165D01*
X8355992Y-9897081D02*
X8355992Y-9897081D01*
X14193420Y-9872249D02*
X14193420Y-9872249D01*
X14484504Y-11241664D02*
X14193420Y-9872249D01*
X15853987Y-10950580D02*
X14484504Y-11241664D01*
X19079703Y-8809301D02*
X18931028Y-8840907D01*
X19177493Y-9269033D02*
X19079703Y-8809301D01*
X20546891Y-8977957D02*
X19177493Y-9269033D01*
X20449186Y-8518226D02*
X20546891Y-8977957D01*
X20274349Y-10984108D02*
X19983265Y-9614625D01*
X21643833Y-10693024D02*
X20274349Y-10984108D01*
X21352749Y-9323541D02*
X21643833Y-10693024D01*
X19983265Y-9614625D02*
X21352749Y-9323541D01*
X6153812Y-10386531D02*
X6216211Y-10679986D01*
X5910480Y-10438262D02*
X6153812Y-10386531D01*
X19983265Y-9614625D02*
X19983265Y-9614625D01*
X5910480Y-10438262D02*
X5910480Y-10438262D01*
X5972879Y-10731717D02*
X5910480Y-10438262D01*
X6216211Y-10679986D02*
X5972879Y-10731717D01*
X11830373Y-10346314D02*
X10460890Y-10637398D01*
X11539289Y-8976882D02*
X11830373Y-10346314D01*
X10169806Y-9267966D02*
X11539289Y-8976882D01*
X17832563Y-5663342D02*
X17852544Y-5757533D01*
X19836792Y-5237333D02*
X17832563Y-5663342D01*
X19856773Y-5331525D02*
X19836792Y-5237333D01*
X20179607Y-5262911D02*
X19856773Y-5331525D01*
X8647076Y-11266556D02*
X8355992Y-9897081D01*
X10016559Y-10975472D02*
X8647076Y-11266556D01*
X9725475Y-9605998D02*
X10016559Y-10975472D01*
X8355992Y-9897081D02*
X9725475Y-9605998D01*
X12082765Y-9104940D02*
X13452163Y-8813856D01*
X10169806Y-9267966D02*
X10169806Y-9267966D01*
X10460890Y-10637398D02*
X10169806Y-9267966D01*
X6723365Y-4644768D02*
X7014449Y-6014217D01*
X5353881Y-4935852D02*
X6723365Y-4644768D01*
X11290623Y-5378210D02*
X11290623Y-5378210D01*
X11581707Y-6747659D02*
X11290623Y-5378210D01*
X20597776Y-8486628D02*
X20449186Y-8518226D01*
X20665001Y-8802570D02*
X20597776Y-8486628D01*
X21325232Y-8662227D02*
X20665001Y-8802570D01*
X13024343Y-12526989D02*
X11654859Y-12818073D01*
X12733259Y-11157506D02*
X13024343Y-12526989D01*
X11363775Y-11448590D02*
X12733259Y-11157506D01*
X12082765Y-9104940D02*
X12082765Y-9104940D01*
X12373849Y-10474415D02*
X12082765Y-9104940D01*
X13743247Y-10183331D02*
X12373849Y-10474415D01*
X13452163Y-8813856D02*
X13743247Y-10183331D01*
X13511684Y-12057089D02*
X13511684Y-12057089D01*
X11363775Y-11448590D02*
X11363775Y-11448590D01*
X11654859Y-12818073D02*
X11363775Y-11448590D01*
X21258091Y-8346284D02*
X21325232Y-8662227D01*
X21339287Y-8329029D02*
X21258091Y-8346284D01*
X21281375Y-8056614D02*
X21339287Y-8329029D01*
X21200179Y-8073869D02*
X21281375Y-8056614D01*
X20525386Y-11381364D02*
X20529540Y-11380393D01*
X20529540Y-11380393D02*
X20533537Y-11379282D01*
X20533537Y-11379282D02*
X20537714Y-11377927D01*
X20537714Y-11377927D02*
X20541432Y-11376547D01*
X20541432Y-11376547D02*
X20545851Y-11374681D01*
X20545851Y-11374681D02*
X20549386Y-11373002D01*
X20549386Y-11373002D02*
X20552801Y-11371212D01*
X20552801Y-11371212D02*
X20555998Y-11369379D01*
X20555998Y-11369379D02*
X20559369Y-11367269D01*
X20559369Y-11367269D02*
X20562361Y-11365232D01*
X20562361Y-11365232D02*
X20565299Y-11363071D01*
X20565299Y-11363071D02*
X20568177Y-11360786D01*
X20568177Y-11360786D02*
X20570907Y-11358452D01*
X20570907Y-11358452D02*
X20573519Y-11356052D01*
X20573519Y-11356052D02*
X20576053Y-11353552D01*
X20576053Y-11353552D02*
X20579047Y-11350353D01*
X20579047Y-11350353D02*
X20581598Y-11347393D01*
X20581598Y-11347393D02*
X20583938Y-11344457D01*
X20583938Y-11344457D02*
X20586079Y-11341561D01*
X20586079Y-11341561D02*
X20588114Y-11338590D01*
X20588114Y-11338590D02*
X20590119Y-11335420D01*
X20590119Y-11335420D02*
X20592006Y-11332178D01*
X20592006Y-11332178D02*
X20593771Y-11328865D01*
X20593771Y-11328865D02*
X20595460Y-11325384D01*
X20595460Y-11325384D02*
X20597043Y-11321768D01*
X20597043Y-11321768D02*
X20598472Y-11318122D01*
X20598472Y-11318122D02*
X20599788Y-11314327D01*
X20599788Y-11314327D02*
X20600959Y-11310455D01*
X20600959Y-11310455D02*
X20602004Y-11306401D01*
X20602004Y-11306401D02*
X20602891Y-11302237D01*
X20602891Y-11302237D02*
X20603623Y-11297872D01*
X20603623Y-11297872D02*
X20604176Y-11293307D01*
X20604176Y-11293307D02*
X20604526Y-11288543D01*
X20604526Y-11288543D02*
X20604646Y-11283428D01*
X20604646Y-11283428D02*
X20604509Y-11278431D01*
X20604509Y-11278431D02*
X20604149Y-11273720D01*
X20604149Y-11273720D02*
X20603561Y-11268991D01*
X20603561Y-11268991D02*
X20602803Y-11264565D01*
X20602803Y-11264565D02*
X20602433Y-11262746D01*
X20406768Y-11304318D02*
X20407745Y-11308471D01*
X20407745Y-11308471D02*
X20408862Y-11312468D01*
X20408862Y-11312468D02*
X20410184Y-11316534D01*
X20410184Y-11316534D02*
X20411551Y-11320218D01*
X20411551Y-11320218D02*
X20413052Y-11323823D01*
X20413052Y-11323823D02*
X20414820Y-11327624D01*
X20414820Y-11327624D02*
X20416589Y-11331057D01*
X20416589Y-11331057D02*
X20418539Y-11334502D01*
X20418539Y-11334502D02*
X20420554Y-11337756D01*
X20420554Y-11337756D02*
X20422597Y-11340795D01*
X20422597Y-11340795D02*
X20424767Y-11343777D01*
X20424767Y-11343777D02*
X20427015Y-11346641D01*
X20427015Y-11346641D02*
X20429360Y-11349414D01*
X20429360Y-11349414D02*
X20431774Y-11352067D01*
X20431774Y-11352067D02*
X20434437Y-11354787D01*
X20434437Y-11354787D02*
X20437059Y-11357272D01*
X20437059Y-11357272D02*
X20439736Y-11359635D01*
X20439736Y-11359635D02*
X20442567Y-11361958D01*
X20442567Y-11361958D02*
X20445630Y-11364286D01*
X20445630Y-11364286D02*
X20448622Y-11366389D01*
X20448622Y-11366389D02*
X20451657Y-11368362D01*
X20451657Y-11368362D02*
X20454841Y-11370272D01*
X20454841Y-11370272D02*
X20458128Y-11372081D01*
X20458128Y-11372081D02*
X20461517Y-11373783D01*
X20461517Y-11373783D02*
X20465004Y-11375373D01*
X20465004Y-11375373D02*
X20468905Y-11376965D01*
X20468905Y-11376965D02*
X20472626Y-11378310D01*
X20472626Y-11378310D02*
X20476476Y-11379530D01*
X20476476Y-11379530D02*
X20480455Y-11380614D01*
X20480455Y-11380614D02*
X20484599Y-11381557D01*
X20484599Y-11381557D02*
X20488963Y-11382350D01*
X20488963Y-11382350D02*
X20493643Y-11382980D01*
X20493643Y-11382980D02*
X20498544Y-11383398D01*
X20498544Y-11383398D02*
X20503606Y-11383574D01*
X20503606Y-11383574D02*
X20508629Y-11383492D01*
X20508629Y-11383492D02*
X20513328Y-11383184D01*
X20513328Y-11383184D02*
X20517889Y-11382672D01*
X20517889Y-11382672D02*
X20522306Y-11381972D01*
X20522306Y-11381972D02*
X20525386Y-11381364D01*
X20483815Y-11185700D02*
X20479667Y-11186676D01*
X20479667Y-11186676D02*
X20475675Y-11187793D01*
X20475675Y-11187793D02*
X20471765Y-11189063D01*
X20471765Y-11189063D02*
X20468082Y-11190425D01*
X20468082Y-11190425D02*
X20464515Y-11191906D01*
X20464515Y-11191906D02*
X20460957Y-11193548D01*
X20460957Y-11193548D02*
X20457620Y-11195247D01*
X20457620Y-11195247D02*
X20454331Y-11197082D01*
X20454331Y-11197082D02*
X20451192Y-11198991D01*
X20451192Y-11198991D02*
X20448151Y-11200997D01*
X20448151Y-11200997D02*
X20444890Y-11203333D01*
X20444890Y-11203333D02*
X20442000Y-11205576D01*
X20442000Y-11205576D02*
X20439000Y-11208092D01*
X20439000Y-11208092D02*
X20436314Y-11210524D01*
X20436314Y-11210524D02*
X20433708Y-11213060D01*
X20433708Y-11213060D02*
X20431225Y-11215658D01*
X20431225Y-11215658D02*
X20428826Y-11218354D01*
X20428826Y-11218354D02*
X20426364Y-11221337D01*
X20426364Y-11221337D02*
X20424153Y-11224229D01*
X20424153Y-11224229D02*
X20422048Y-11227197D01*
X20422048Y-11227197D02*
X20420062Y-11230223D01*
X20420062Y-11230223D02*
X20418148Y-11233383D01*
X20418148Y-11233383D02*
X20416341Y-11236629D01*
X20416341Y-11236629D02*
X20414638Y-11239974D01*
X20414638Y-11239974D02*
X20413029Y-11243453D01*
X20413029Y-11243453D02*
X20411539Y-11247029D01*
X20411539Y-11247029D02*
X20410173Y-11250702D01*
X20410173Y-11250702D02*
X20408906Y-11254575D01*
X20408906Y-11254575D02*
X20407757Y-11258653D01*
X20407757Y-11258653D02*
X20406788Y-11262750D01*
X20406788Y-11262750D02*
X20405981Y-11266954D01*
X20405981Y-11266954D02*
X20405335Y-11271357D01*
X20405335Y-11271357D02*
X20404878Y-11275900D01*
X20404878Y-11275900D02*
X20404623Y-11280716D01*
X20404623Y-11280716D02*
X20404609Y-11285843D01*
X20404609Y-11285843D02*
X20404839Y-11290691D01*
X20404839Y-11290691D02*
X20405291Y-11295404D01*
X20405291Y-11295404D02*
X20405946Y-11299975D01*
X20405946Y-11299975D02*
X20406751Y-11304238D01*
X20406751Y-11304238D02*
X20406768Y-11304318D01*
X16156417Y-9941862D02*
X16156417Y-9941862D01*
X16447501Y-11311345D02*
X16156417Y-9941862D01*
X17816984Y-11020261D02*
X16447501Y-11311345D01*
X17525900Y-9650803D02*
X17816984Y-11020261D01*
X7911577Y-10234893D02*
X8202661Y-11604292D01*
X6542093Y-10525977D02*
X7911577Y-10234893D01*
X20602433Y-11262746D02*
X20601456Y-11258598D01*
X20601456Y-11258598D02*
X20600339Y-11254607D01*
X20600339Y-11254607D02*
X20599108Y-11250808D01*
X20599108Y-11250808D02*
X20597709Y-11247014D01*
X20597709Y-11247014D02*
X20596230Y-11243446D01*
X20596230Y-11243446D02*
X20594588Y-11239889D01*
X20594588Y-11239889D02*
X20592764Y-11236314D01*
X20592764Y-11236314D02*
X20590961Y-11233097D01*
X20590961Y-11233097D02*
X20589048Y-11229962D01*
X20589048Y-11229962D02*
X20587016Y-11226894D01*
X20587016Y-11226894D02*
X20584812Y-11223822D01*
X20584812Y-11223822D02*
X20582582Y-11220946D01*
X20582582Y-11220946D02*
X20580255Y-11218160D01*
X20580255Y-11218160D02*
X20577627Y-11215246D01*
X20577627Y-11215246D02*
X20575132Y-11212679D01*
X20575132Y-11212679D02*
X20572497Y-11210156D01*
X20572497Y-11210156D02*
X20569803Y-11207758D01*
X20569803Y-11207758D02*
X20567028Y-11205459D01*
X20567028Y-11205459D02*
X20564053Y-11203173D01*
X20564053Y-11203173D02*
X20561120Y-11201086D01*
X20561120Y-11201086D02*
X20557989Y-11199024D01*
X20557989Y-11199024D02*
X20554782Y-11197080D01*
X20554782Y-11197080D02*
X20551504Y-11195255D01*
X20551504Y-11195255D02*
X20548159Y-11193553D01*
X20548159Y-11193553D02*
X20544508Y-11191870D01*
X20544508Y-11191870D02*
X20540859Y-11190360D01*
X20540859Y-11190360D02*
X20537183Y-11189005D01*
X20537183Y-11189005D02*
X20533305Y-11187750D01*
X20533305Y-11187750D02*
X20529369Y-11186651D01*
X20529369Y-11186651D02*
X20525232Y-11185680D01*
X20525232Y-11185680D02*
X20520874Y-11184855D01*
X20520874Y-11184855D02*
X20516199Y-11184193D01*
X20516199Y-11184193D02*
X20511301Y-11183740D01*
X20511301Y-11183740D02*
X20506473Y-11183532D01*
X20506473Y-11183532D02*
X20501374Y-11183567D01*
X20501374Y-11183567D02*
X20496517Y-11183843D01*
X20496517Y-11183843D02*
X20491952Y-11184320D01*
X20491952Y-11184320D02*
X20487531Y-11184985D01*
X20487531Y-11184985D02*
X20483815Y-11185700D01*
X6542093Y-10525977D02*
X6542093Y-10525977D01*
X6833177Y-11895376D02*
X6542093Y-10525977D01*
X8202661Y-11604292D02*
X6833177Y-11895376D01*
X21069454Y-7459105D02*
X21200179Y-8073869D01*
X20900798Y-7494970D02*
X21069454Y-7459105D01*
X20875821Y-7377588D02*
X20900798Y-7494970D01*
X20159541Y-5168719D02*
X20179607Y-5262911D01*
X5353881Y-4935852D02*
X5353881Y-4935852D01*
X5644965Y-6305301D02*
X5353881Y-4935852D01*
X7014449Y-6014217D02*
X5644965Y-6305301D01*
X8537263Y-4015898D02*
X8828347Y-5385347D01*
X7167780Y-4306982D02*
X8537263Y-4015898D01*
X14967612Y-4351923D02*
X14967612Y-4351923D01*
X15258696Y-5721372D02*
X14967612Y-4351923D01*
X16628095Y-5430288D02*
X15258696Y-5721372D01*
X16337011Y-4060839D02*
X16628095Y-5430288D01*
X14967612Y-4351923D02*
X16337011Y-4060839D01*
X20159541Y-5168719D02*
X20159541Y-5168719D01*
X20454859Y-5105947D02*
X20159541Y-5168719D01*
X20163775Y-3736498D02*
X20454859Y-5105947D01*
X16930016Y-4421654D02*
X20163775Y-3736498D01*
X17221100Y-5791112D02*
X16930016Y-4421654D01*
X17509729Y-5731956D02*
X17221100Y-5791112D01*
X17529795Y-5826147D02*
X17509729Y-5731956D01*
X17852544Y-5757533D02*
X17529795Y-5826147D01*
X18250985Y-8058206D02*
X18226009Y-7940824D01*
X18082245Y-8094071D02*
X18250985Y-8058206D01*
X18212885Y-8708836D02*
X18082245Y-8094071D01*
X20011629Y-12044558D02*
X21381112Y-11753474D01*
X6472328Y-12488296D02*
X6472328Y-12488296D01*
X6763412Y-13857780D02*
X6472328Y-12488296D01*
X9668749Y-6910685D02*
X9377665Y-5541235D01*
X11038232Y-6619601D02*
X9668749Y-6910685D01*
X10747148Y-5250151D02*
X11038232Y-6619601D01*
X9377665Y-5541235D02*
X10747148Y-5250151D01*
X19655605Y-5790274D02*
X19655605Y-5790274D01*
X18131690Y-8726091D02*
X18212885Y-8708836D01*
X18189602Y-8998506D02*
X18131690Y-8726091D01*
X18270797Y-8981251D02*
X18189602Y-8998506D01*
X18340224Y-13342752D02*
X18049140Y-11973269D01*
X19709707Y-13051668D02*
X18340224Y-13342752D01*
X19418623Y-11682185D02*
X19709707Y-13051668D01*
X18049140Y-11973269D02*
X19418623Y-11682185D01*
X20011629Y-12044558D02*
X20011629Y-12044558D01*
X20302713Y-13414042D02*
X20011629Y-12044558D01*
X21672196Y-13122958D02*
X20302713Y-13414042D01*
X21381112Y-11753474D02*
X21672196Y-13122958D01*
X18337938Y-9297193D02*
X18270797Y-8981251D01*
X18998253Y-9156849D02*
X18337938Y-9297193D01*
X18931028Y-8840907D02*
X18998253Y-9156849D01*
X17455711Y-11613266D02*
X17746795Y-12982750D01*
X16086313Y-11904350D02*
X17455711Y-11613266D01*
X9034595Y-11943720D02*
X9034595Y-11943720D01*
X9325679Y-13313204D02*
X9034595Y-11943720D01*
X10695163Y-13022035D02*
X9325679Y-13313204D01*
X10404079Y-11652636D02*
X10695163Y-13022035D01*
X9034595Y-11943720D02*
X10404079Y-11652636D01*
X18049140Y-11973269D02*
X18049140Y-11973269D01*
X12951106Y-6456575D02*
X11581707Y-6747659D01*
X12660022Y-5087126D02*
X12951106Y-6456575D01*
X11290623Y-5378210D02*
X12660022Y-5087126D01*
X9377665Y-5541235D02*
X9377665Y-5541235D01*
X16086313Y-11904350D02*
X16086313Y-11904350D01*
X16377312Y-13273834D02*
X16086313Y-11904350D01*
X17746795Y-12982750D02*
X16377312Y-13273834D01*
X19946689Y-7159723D02*
X19655605Y-5790274D01*
X21316088Y-6868639D02*
X19946689Y-7159723D01*
X21025004Y-5499190D02*
X21316088Y-6868639D01*
X19655605Y-5790274D02*
X21025004Y-5499190D01*
X21384245Y-7221894D02*
X21384245Y-7221894D01*
X13401279Y-6145518D02*
X13401279Y-6145518D01*
X13692363Y-7514968D02*
X13401279Y-6145518D01*
X15061846Y-7223884D02*
X13692363Y-7514968D01*
X14770762Y-5854434D02*
X15061846Y-7223884D01*
X13401279Y-6145518D02*
X14770762Y-5854434D01*
X21284423Y-7121877D02*
X21284549Y-7126948D01*
X21284549Y-7126948D02*
X21284896Y-7131677D01*
X21284896Y-7131677D02*
X21285433Y-7136148D01*
X21285433Y-7136148D02*
X21286142Y-7140440D01*
X21286142Y-7140440D02*
X21287014Y-7144593D01*
X21287014Y-7144593D02*
X21288045Y-7148644D01*
X21288045Y-7148644D02*
X21289263Y-7152699D01*
X21289263Y-7152699D02*
X21290586Y-7156519D01*
X21290586Y-7156519D02*
X21292027Y-7160197D01*
X21292027Y-7160197D02*
X21293616Y-7163819D01*
X21293616Y-7163819D02*
X21295342Y-7167364D01*
X21295342Y-7167364D02*
X21297128Y-7170698D01*
X21297128Y-7170698D02*
X21299112Y-7174083D01*
X21299112Y-7174083D02*
X21301141Y-7177257D01*
X21301141Y-7177257D02*
X21303196Y-7180225D01*
X21303196Y-7180225D02*
X21305630Y-7183470D01*
X21305630Y-7183470D02*
X21307900Y-7186267D01*
X21307900Y-7186267D02*
X21310241Y-7188951D01*
X21310241Y-7188951D02*
X21312728Y-7191604D01*
X21312728Y-7191604D02*
X21315254Y-7194113D01*
X21315254Y-7194113D02*
X21317922Y-7196581D01*
X21317922Y-7196581D02*
X21320650Y-7198927D01*
X21320650Y-7198927D02*
X21323462Y-7201176D01*
X21323462Y-7201176D02*
X21326553Y-7203466D01*
X21326553Y-7203466D02*
X21329576Y-7205535D01*
X21329576Y-7205535D02*
X21332757Y-7207543D01*
X21332757Y-7207543D02*
X21336016Y-7209433D01*
X21336016Y-7209433D02*
X21339453Y-7211252D01*
X21339453Y-7211252D02*
X21342862Y-7212893D01*
X21342862Y-7212893D02*
X21346377Y-7214422D01*
X21346377Y-7214422D02*
X21350067Y-7215857D01*
X21350067Y-7215857D02*
X21353934Y-7217182D01*
X21353934Y-7217182D02*
X21357814Y-7218336D01*
X21357814Y-7218336D02*
X21361833Y-7219353D01*
X21361833Y-7219353D02*
X21366200Y-7220257D01*
X21366200Y-7220257D02*
X21370536Y-7220954D01*
X21370536Y-7220954D02*
X21375050Y-7221473D01*
X21375050Y-7221473D02*
X21379959Y-7221803D01*
X21379959Y-7221803D02*
X21384245Y-7221894D01*
X21384245Y-7021895D02*
X21379044Y-7022029D01*
X21379044Y-7022029D02*
X21374303Y-7022387D01*
X21374303Y-7022387D02*
X21369780Y-7022943D01*
X21369780Y-7022943D02*
X21365474Y-7023670D01*
X21365474Y-7023670D02*
X21361230Y-7024580D01*
X21361230Y-7024580D02*
X21357203Y-7025627D01*
X21357203Y-7025627D02*
X21353242Y-7026836D01*
X21353242Y-7026836D02*
X21349352Y-7028204D01*
X21349352Y-7028204D02*
X21345711Y-7029653D01*
X21345711Y-7029653D02*
X21342209Y-7031207D01*
X21342209Y-7031207D02*
X21338813Y-7032873D01*
X21338813Y-7032873D02*
X21335358Y-7034737D01*
X21335358Y-7034737D02*
X21332114Y-7036652D01*
X21332114Y-7036652D02*
X21329043Y-7038622D01*
X21329043Y-7038622D02*
X21325866Y-7040832D01*
X21325866Y-7040832D02*
X21322869Y-7043090D01*
X21322869Y-7043090D02*
X21320075Y-7045361D01*
X21320075Y-7045361D02*
X21317379Y-7047716D01*
X21317379Y-7047716D02*
X21314768Y-7050165D01*
X21314768Y-7050165D02*
X21312207Y-7052745D01*
X21312207Y-7052745D02*
X21309666Y-7055501D01*
X21309666Y-7055501D02*
X21307323Y-7058235D01*
X21307323Y-7058235D02*
X21305089Y-7061037D01*
X21305089Y-7061037D02*
X21302955Y-7063921D01*
X21302955Y-7063921D02*
X21300726Y-7067181D01*
X21300726Y-7067181D02*
X21298721Y-7070369D01*
X21298721Y-7070369D02*
X21296889Y-7073538D01*
X21296889Y-7073538D02*
X21295127Y-7076863D01*
X21295127Y-7076863D02*
X21293473Y-7080295D01*
X21293473Y-7080295D02*
X21291925Y-7083851D01*
X21291925Y-7083851D02*
X21290520Y-7087459D01*
X21290520Y-7087459D02*
X21289180Y-7091352D01*
X21289180Y-7091352D02*
X21288024Y-7095222D01*
X21288024Y-7095222D02*
X21287005Y-7099232D01*
X21287005Y-7099232D02*
X21286114Y-7103496D01*
X21286114Y-7103496D02*
X21285405Y-7107824D01*
X21285405Y-7107824D02*
X21284870Y-7112369D01*
X21284870Y-7112369D02*
X21284532Y-7117154D01*
X21284532Y-7117154D02*
X21284423Y-7121877D01*
X21484405Y-7121877D02*
X21484285Y-7116934D01*
X21484285Y-7116934D02*
X21483943Y-7112211D01*
X21483943Y-7112211D02*
X21483407Y-7107707D01*
X21483407Y-7107707D02*
X21482687Y-7103342D01*
X21482687Y-7103342D02*
X21481786Y-7099062D01*
X21481786Y-7099062D02*
X21480766Y-7095074D01*
X21480766Y-7095074D02*
X21479570Y-7091096D01*
X21479570Y-7091096D02*
X21478254Y-7087298D01*
X21478254Y-7087298D02*
X21476828Y-7083658D01*
X21476828Y-7083658D02*
X21475282Y-7080123D01*
X21475282Y-7080123D02*
X21473630Y-7076711D01*
X21473630Y-7076711D02*
X21471771Y-7073225D01*
X21471771Y-7073225D02*
X21469878Y-7069983D01*
X21469878Y-7069983D02*
X21467858Y-7066803D01*
X21467858Y-7066803D02*
X21465810Y-7063829D01*
X21465810Y-7063829D02*
X21463659Y-7060933D01*
X21463659Y-7060933D02*
X21461407Y-7058119D01*
X21461407Y-7058119D02*
X21458957Y-7055277D01*
X21458957Y-7055277D02*
X21456508Y-7052637D01*
X21456508Y-7052637D02*
X21453966Y-7050086D01*
X21453966Y-7050086D02*
X21451334Y-7047628D01*
X21451334Y-7047628D02*
X21448499Y-7045168D01*
X21448499Y-7045168D02*
X21445691Y-7042906D01*
X21445691Y-7042906D02*
X21442801Y-7040744D01*
X21442801Y-7040744D02*
X21439800Y-7038664D01*
X21439800Y-7038664D02*
X21436656Y-7036652D01*
X21436656Y-7036652D02*
X21433121Y-7034579D01*
X21433121Y-7034579D02*
X21429664Y-7032735D01*
X21429664Y-7032735D02*
X21426111Y-7031015D01*
X21426111Y-7031015D02*
X21422621Y-7029491D01*
X21422621Y-7029491D02*
X21418921Y-7028044D01*
X21418921Y-7028044D02*
X21415150Y-7026741D01*
X21415150Y-7026741D02*
X21411163Y-7025543D01*
X21411163Y-7025543D02*
X21407146Y-7024518D01*
X21407146Y-7024518D02*
X21402989Y-7023641D01*
X21402989Y-7023641D02*
X21398693Y-7022926D01*
X21398693Y-7022926D02*
X21393941Y-7022356D01*
X21393941Y-7022356D02*
X21389163Y-7022013D01*
X21389163Y-7022013D02*
X21384245Y-7021895D01*
X21384245Y-7221894D02*
X21389163Y-7221776D01*
X21389163Y-7221776D02*
X21393941Y-7221433D01*
X21393941Y-7221433D02*
X21398517Y-7220889D01*
X21398517Y-7220889D02*
X21402836Y-7220179D01*
X21402836Y-7220179D02*
X21407127Y-7219278D01*
X21407127Y-7219278D02*
X21411275Y-7218218D01*
X21411275Y-7218218D02*
X21415168Y-7217047D01*
X21415168Y-7217047D02*
X21419064Y-7215698D01*
X21419064Y-7215698D02*
X21422762Y-7214247D01*
X21422762Y-7214247D02*
X21426249Y-7212719D01*
X21426249Y-7212719D02*
X21429664Y-7211064D01*
X21429664Y-7211064D02*
X21433005Y-7209286D01*
X21433005Y-7209286D02*
X21436238Y-7207406D01*
X21436238Y-7207406D02*
X21439329Y-7205452D01*
X21439329Y-7205452D02*
X21442311Y-7203411D01*
X21442311Y-7203411D02*
X21445215Y-7201268D01*
X21445215Y-7201268D02*
X21448037Y-7199023D01*
X21448037Y-7199023D02*
X21450774Y-7196680D01*
X21450774Y-7196680D02*
X21453398Y-7194268D01*
X21453398Y-7194268D02*
X21455986Y-7191711D01*
X21455986Y-7191711D02*
X21458455Y-7189090D01*
X21458455Y-7189090D02*
X21460804Y-7186410D01*
X21460804Y-7186410D02*
X21463198Y-7183470D01*
X21463198Y-7183470D02*
X21465547Y-7180347D01*
X21465547Y-7180347D02*
X21467608Y-7177382D01*
X21467608Y-7177382D02*
X21469642Y-7174212D01*
X21469642Y-7174212D02*
X21471530Y-7171010D01*
X21471530Y-7171010D02*
X21473354Y-7167634D01*
X21473354Y-7167634D02*
X21475090Y-7164094D01*
X21475090Y-7164094D02*
X21476630Y-7160619D01*
X21476630Y-7160619D02*
X21478148Y-7156788D01*
X21478148Y-7156788D02*
X21479463Y-7153028D01*
X21479463Y-7153028D02*
X21480641Y-7149164D01*
X21480641Y-7149164D02*
X21481674Y-7145197D01*
X21481674Y-7145197D02*
X21482593Y-7140939D01*
X21482593Y-7140939D02*
X21483334Y-7136576D01*
X21483334Y-7136576D02*
X21483893Y-7132072D01*
X21483893Y-7132072D02*
X21484263Y-7127268D01*
X21484263Y-7127268D02*
X21484404Y-7122383D01*
X21484404Y-7122383D02*
X21484405Y-7121877D01*
X7563851Y-6170351D02*
X7563851Y-6170351D01*
X7854935Y-7539801D02*
X7563851Y-6170351D01*
X9224418Y-7248717D02*
X7854935Y-7539801D01*
X8933334Y-5879267D02*
X9224418Y-7248717D01*
X7563851Y-6170351D02*
X8933334Y-5879267D01*
X20552987Y-7446202D02*
X20875821Y-7377588D01*
X20577964Y-7563583D02*
X20552987Y-7446202D01*
X20409223Y-7599448D02*
X20577964Y-7563583D01*
X20502187Y-8036675D02*
X20409223Y-7599448D01*
X20353513Y-8068281D02*
X20502187Y-8036675D01*
X20255807Y-7608550D02*
X20353513Y-8068281D01*
X18886409Y-7899625D02*
X20255807Y-7608550D01*
X13797349Y-8008888D02*
X13797349Y-8008888D01*
X14088433Y-9378337D02*
X13797349Y-8008888D01*
X15457917Y-9087253D02*
X14088433Y-9378337D01*
X15166748Y-7717804D02*
X15457917Y-9087253D01*
X13797349Y-8008888D02*
X15166748Y-7717804D01*
X7959921Y-8033720D02*
X7959921Y-8033720D01*
X8251005Y-9403170D02*
X7959921Y-8033720D01*
X9620489Y-9112086D02*
X8251005Y-9403170D01*
X9329405Y-7742636D02*
X9620489Y-9112086D01*
X7959921Y-8033720D02*
X9329405Y-7742636D01*
X15760346Y-8078526D02*
X15760346Y-8078526D01*
X13411862Y-11957013D02*
X13411996Y-11962244D01*
X13411996Y-11962244D02*
X13412354Y-11967011D01*
X13412354Y-11967011D02*
X13412933Y-11971713D01*
X13412933Y-11971713D02*
X13413659Y-11976000D01*
X13413659Y-11976000D02*
X13414546Y-11980148D01*
X13414546Y-11980148D02*
X13415592Y-11984193D01*
X13415592Y-11984193D02*
X13416849Y-11988315D01*
X13416849Y-11988315D02*
X13418202Y-11992164D01*
X13418202Y-11992164D02*
X13419631Y-11995763D01*
X13419631Y-11995763D02*
X13421170Y-11999241D01*
X13421170Y-11999241D02*
X13422973Y-12002916D01*
X13422973Y-12002916D02*
X13424771Y-12006243D01*
X13424771Y-12006243D02*
X13426630Y-12009396D01*
X13426630Y-12009396D02*
X13428642Y-12012536D01*
X13428642Y-12012536D02*
X13430710Y-12015518D01*
X13430710Y-12015518D02*
X13432859Y-12018391D01*
X13432859Y-12018391D02*
X13435094Y-12021168D01*
X13435094Y-12021168D02*
X13437438Y-12023877D01*
X13437438Y-12023877D02*
X13439902Y-12026526D01*
X13439902Y-12026526D02*
X13442471Y-12029097D01*
X13442471Y-12029097D02*
X13445062Y-12031511D01*
X13445062Y-12031511D02*
X13447795Y-12033882D01*
X13447795Y-12033882D02*
X13450628Y-12036165D01*
X13450628Y-12036165D02*
X13453513Y-12038324D01*
X13453513Y-12038324D02*
X13456507Y-12040400D01*
X13456507Y-12040400D02*
X13459772Y-12042486D01*
X13459772Y-12042486D02*
X13463023Y-12044393D01*
X13463023Y-12044393D02*
X13466349Y-12046178D01*
X13466349Y-12046178D02*
X13469904Y-12047911D01*
X13469904Y-12047911D02*
X13473465Y-12049477D01*
X13473465Y-12049477D02*
X13477185Y-12050939D01*
X13477185Y-12050939D02*
X13481232Y-12052336D01*
X13481232Y-12052336D02*
X13485205Y-12053522D01*
X13485205Y-12053522D02*
X13489208Y-12054536D01*
X13489208Y-12054536D02*
X13493387Y-12055407D01*
X13493387Y-12055407D02*
X13497822Y-12056129D01*
X13497822Y-12056129D02*
X13502516Y-12056671D01*
X13502516Y-12056671D02*
X13507273Y-12056992D01*
X13507273Y-12056992D02*
X13511684Y-12057089D01*
X13511684Y-11857022D02*
X13506794Y-11857140D01*
X13506794Y-11857140D02*
X13502083Y-11857479D01*
X13502083Y-11857479D02*
X13497511Y-11858025D01*
X13497511Y-11858025D02*
X13493043Y-11858767D01*
X13493043Y-11858767D02*
X13488681Y-11859697D01*
X13488681Y-11859697D02*
X13484649Y-11860742D01*
X13484649Y-11860742D02*
X13480794Y-11861914D01*
X13480794Y-11861914D02*
X13477042Y-11863223D01*
X13477042Y-11863223D02*
X13473360Y-11864676D01*
X13473360Y-11864676D02*
X13469852Y-11866220D01*
X13469852Y-11866220D02*
X13466349Y-11867929D01*
X13466349Y-11867929D02*
X13463023Y-11869714D01*
X13463023Y-11869714D02*
X13459772Y-11871620D01*
X13459772Y-11871620D02*
X13456633Y-11873622D01*
X13456633Y-11873622D02*
X13453635Y-11875693D01*
X13453635Y-11875693D02*
X13450746Y-11877847D01*
X13450746Y-11877847D02*
X13447365Y-11880582D01*
X13447365Y-11880582D02*
X13444645Y-11882967D01*
X13444645Y-11882967D02*
X13442041Y-11885420D01*
X13442041Y-11885420D02*
X13439512Y-11887978D01*
X13439512Y-11887978D02*
X13437076Y-11890626D01*
X13437076Y-11890626D02*
X13434354Y-11893823D01*
X13434354Y-11893823D02*
X13432127Y-11896655D01*
X13432127Y-11896655D02*
X13430002Y-11899568D01*
X13430002Y-11899568D02*
X13427979Y-11902558D01*
X13427979Y-11902558D02*
X13425985Y-11905754D01*
X13425985Y-11905754D02*
X13424110Y-11909028D01*
X13424110Y-11909028D02*
X13422356Y-11912379D01*
X13422356Y-11912379D02*
X13420734Y-11915785D01*
X13420734Y-11915785D02*
X13419223Y-11919296D01*
X13419223Y-11919296D02*
X13417799Y-11923000D01*
X13417799Y-11923000D02*
X13416467Y-11926938D01*
X13416467Y-11926938D02*
X13415315Y-11930872D01*
X13415315Y-11930872D02*
X13414302Y-11934967D01*
X13414302Y-11934967D02*
X13413458Y-11939125D01*
X13413458Y-11939125D02*
X13412757Y-11943579D01*
X13412757Y-11943579D02*
X13412237Y-11948292D01*
X13412237Y-11948292D02*
X13411940Y-11953029D01*
X13411940Y-11953029D02*
X13411862Y-11957013D01*
X13611845Y-11957013D02*
X13611724Y-11952069D01*
X13611724Y-11952069D02*
X13611381Y-11947344D01*
X13611381Y-11947344D02*
X13610816Y-11942644D01*
X13610816Y-11942644D02*
X13610073Y-11938204D01*
X13610073Y-11938204D02*
X13609190Y-11934060D01*
X13609190Y-11934060D02*
X13608147Y-11930017D01*
X13608147Y-11930017D02*
X13606978Y-11926151D01*
X13606978Y-11926151D02*
X13605684Y-11922425D01*
X13605684Y-11922425D02*
X13604256Y-11918785D01*
X13604256Y-11918785D02*
X13602707Y-11915250D01*
X13602707Y-11915250D02*
X13601053Y-11911838D01*
X13601053Y-11911838D02*
X13599275Y-11908499D01*
X13599275Y-11908499D02*
X13597395Y-11905269D01*
X13597395Y-11905269D02*
X13595441Y-11902180D01*
X13595441Y-11902180D02*
X13593400Y-11899199D01*
X13593400Y-11899199D02*
X13591256Y-11896297D01*
X13591256Y-11896297D02*
X13589034Y-11893504D01*
X13589034Y-11893504D02*
X13586667Y-11890738D01*
X13586667Y-11890738D02*
X13584253Y-11888114D01*
X13584253Y-11888114D02*
X13581695Y-11885525D01*
X13581695Y-11885525D02*
X13578990Y-11882979D01*
X13578990Y-11882979D02*
X13576248Y-11880582D01*
X13576248Y-11880582D02*
X13573449Y-11878308D01*
X13573449Y-11878308D02*
X13570569Y-11876133D01*
X13570569Y-11876133D02*
X13567358Y-11873894D01*
X13567358Y-11873894D02*
X13564315Y-11871936D01*
X13564315Y-11871936D02*
X13561165Y-11870067D01*
X13561165Y-11870067D02*
X13557875Y-11868277D01*
X13557875Y-11868277D02*
X13554477Y-11866591D01*
X13554477Y-11866591D02*
X13550904Y-11864986D01*
X13550904Y-11864986D02*
X13546881Y-11863376D01*
X13546881Y-11863376D02*
X13543159Y-11862064D01*
X13543159Y-11862064D02*
X13539279Y-11860869D01*
X13539279Y-11860869D02*
X13535314Y-11859823D01*
X13535314Y-11859823D02*
X13531058Y-11858893D01*
X13531058Y-11858893D02*
X13526697Y-11858139D01*
X13526697Y-11858139D02*
X13522195Y-11857566D01*
X13522195Y-11857566D02*
X13517515Y-11857188D01*
X13517515Y-11857188D02*
X13512574Y-11857025D01*
X13512574Y-11857025D02*
X13511684Y-11857022D01*
X13511684Y-12057089D02*
X13516635Y-12056968D01*
X13516635Y-12056968D02*
X13521327Y-12056631D01*
X13521327Y-12056631D02*
X13525802Y-12056101D01*
X13525802Y-12056101D02*
X13530406Y-12055342D01*
X13530406Y-12055342D02*
X13534540Y-12054470D01*
X13534540Y-12054470D02*
X13538554Y-12053445D01*
X13538554Y-12053445D02*
X13542411Y-12052289D01*
X13542411Y-12052289D02*
X13546146Y-12051005D01*
X13546146Y-12051005D02*
X13550025Y-12049491D01*
X13550025Y-12049491D02*
X13553513Y-12047967D01*
X13553513Y-12047967D02*
X13556931Y-12046315D01*
X13556931Y-12046315D02*
X13560275Y-12044540D01*
X13560275Y-12044540D02*
X13563543Y-12042643D01*
X13563543Y-12042643D02*
X13566731Y-12040629D01*
X13566731Y-12040629D02*
X13569959Y-12038411D01*
X13569959Y-12038411D02*
X13572886Y-12036234D01*
X13572886Y-12036234D02*
X13575788Y-12033906D01*
X13575788Y-12033906D02*
X13578487Y-12031574D01*
X13578487Y-12031574D02*
X13581156Y-12029097D01*
X13581156Y-12029097D02*
X13583812Y-12026445D01*
X13583812Y-12026445D02*
X13586442Y-12023611D01*
X13586442Y-12023611D02*
X13588819Y-12020851D01*
X13588819Y-12020851D02*
X13591256Y-12017796D01*
X13591256Y-12017796D02*
X13593574Y-12014646D01*
X13593574Y-12014646D02*
X13595668Y-12011561D01*
X13595668Y-12011561D02*
X13597610Y-12008461D01*
X13597610Y-12008461D02*
X13599641Y-12004921D01*
X13599641Y-12004921D02*
X13601470Y-12001412D01*
X13601470Y-12001412D02*
X13603086Y-11997997D01*
X13603086Y-11997997D02*
X13604588Y-11994477D01*
X13604588Y-11994477D02*
X13606101Y-11990492D01*
X13606101Y-11990492D02*
X13607356Y-11986723D01*
X13607356Y-11986723D02*
X13608483Y-11982814D01*
X13608483Y-11982814D02*
X13609471Y-11978766D01*
X13609471Y-11978766D02*
X13610320Y-11974501D01*
X13610320Y-11974501D02*
X13610988Y-11970153D01*
X13610988Y-11970153D02*
X13611478Y-11965627D01*
X13611478Y-11965627D02*
X13611772Y-11960842D01*
X13611772Y-11960842D02*
X13611845Y-11957013D01*
X13890821Y-11884115D02*
X13890821Y-11884115D01*
X14181905Y-13253598D02*
X13890821Y-11884115D01*
X15363683Y-6215292D02*
X16733081Y-5924208D01*
X17326002Y-6285057D02*
X17326002Y-6285057D01*
X17617086Y-7654515D02*
X17326002Y-6285057D01*
X18986569Y-7363423D02*
X17617086Y-7654515D01*
X18695485Y-5993973D02*
X18986569Y-7363423D01*
X17326002Y-6285057D02*
X18695485Y-5993973D01*
X7878557Y-7892395D02*
X7878557Y-7892395D01*
X5749952Y-6799221D02*
X5749952Y-6799221D01*
X6041036Y-8168671D02*
X5749952Y-6799221D01*
X7410519Y-7877587D02*
X6041036Y-8168671D01*
X7119435Y-6508137D02*
X7410519Y-7877587D01*
X5749952Y-6799221D02*
X7119435Y-6508137D01*
X7778735Y-7792378D02*
X7778861Y-7797450D01*
X7778861Y-7797450D02*
X7779208Y-7802179D01*
X7779208Y-7802179D02*
X7779745Y-7806650D01*
X7779745Y-7806650D02*
X7780476Y-7811059D01*
X7780476Y-7811059D02*
X7781352Y-7815210D01*
X7781352Y-7815210D02*
X7782372Y-7819203D01*
X7782372Y-7819203D02*
X7783575Y-7823203D01*
X7783575Y-7823203D02*
X7784897Y-7827023D01*
X7784897Y-7827023D02*
X7786339Y-7830701D01*
X7786339Y-7830701D02*
X7787928Y-7834323D01*
X7787928Y-7834323D02*
X7789654Y-7837869D01*
X7789654Y-7837869D02*
X7791439Y-7841202D01*
X7791439Y-7841202D02*
X7793424Y-7844588D01*
X7793424Y-7844588D02*
X7795453Y-7847761D01*
X7795453Y-7847761D02*
X7797507Y-7850729D01*
X7797507Y-7850729D02*
X7799942Y-7853974D01*
X7799942Y-7853974D02*
X7802212Y-7856771D01*
X7802212Y-7856771D02*
X7804553Y-7859455D01*
X7804553Y-7859455D02*
X7807040Y-7862108D01*
X7807040Y-7862108D02*
X7809566Y-7864617D01*
X7809566Y-7864617D02*
X7812234Y-7867084D01*
X7812234Y-7867084D02*
X7814962Y-7869431D01*
X7814962Y-7869431D02*
X7817774Y-7871679D01*
X7817774Y-7871679D02*
X7820865Y-7873969D01*
X7820865Y-7873969D02*
X7823888Y-7876038D01*
X7823888Y-7876038D02*
X7827069Y-7878045D01*
X7827069Y-7878045D02*
X7830328Y-7879935D01*
X7830328Y-7879935D02*
X7833765Y-7881755D01*
X7833765Y-7881755D02*
X7837174Y-7883395D01*
X7837174Y-7883395D02*
X7840689Y-7884924D01*
X7840689Y-7884924D02*
X7844378Y-7886358D01*
X7844378Y-7886358D02*
X7848246Y-7887684D01*
X7848246Y-7887684D02*
X7852126Y-7888838D01*
X7852126Y-7888838D02*
X7856145Y-7889854D01*
X7856145Y-7889854D02*
X7860512Y-7890758D01*
X7860512Y-7890758D02*
X7864848Y-7891455D01*
X7864848Y-7891455D02*
X7869362Y-7891974D01*
X7869362Y-7891974D02*
X7874271Y-7892304D01*
X7874271Y-7892304D02*
X7878557Y-7892395D01*
X7878557Y-7692395D02*
X7873356Y-7692529D01*
X7873356Y-7692529D02*
X7868615Y-7692888D01*
X7868615Y-7692888D02*
X7864092Y-7693444D01*
X7864092Y-7693444D02*
X7859786Y-7694171D01*
X7859786Y-7694171D02*
X7855542Y-7695081D01*
X7855542Y-7695081D02*
X7851515Y-7696128D01*
X7851515Y-7696128D02*
X7847554Y-7697337D01*
X7847554Y-7697337D02*
X7843663Y-7698705D01*
X7843663Y-7698705D02*
X7840022Y-7700154D01*
X7840022Y-7700154D02*
X7836521Y-7701709D01*
X7836521Y-7701709D02*
X7833125Y-7703375D01*
X7833125Y-7703375D02*
X7829703Y-7705221D01*
X7829703Y-7705221D02*
X7826554Y-7707076D01*
X7826554Y-7707076D02*
X7823480Y-7709041D01*
X7823480Y-7709041D02*
X7820422Y-7711159D01*
X7820422Y-7711159D02*
X7817181Y-7713594D01*
X7817181Y-7713594D02*
X7814387Y-7715864D01*
X7814387Y-7715864D02*
X7811691Y-7718219D01*
X7811691Y-7718219D02*
X7809080Y-7720668D01*
X7809080Y-7720668D02*
X7806519Y-7723249D01*
X7806519Y-7723249D02*
X7803978Y-7726005D01*
X7803978Y-7726005D02*
X7801635Y-7728739D01*
X7801635Y-7728739D02*
X7799401Y-7731542D01*
X7799401Y-7731542D02*
X7797267Y-7734425D01*
X7797267Y-7734425D02*
X7795038Y-7737685D01*
X7795038Y-7737685D02*
X7793033Y-7740874D01*
X7793033Y-7740874D02*
X7791200Y-7744043D01*
X7791200Y-7744043D02*
X7789439Y-7747368D01*
X7789439Y-7747368D02*
X7787785Y-7750800D01*
X7787785Y-7750800D02*
X7786237Y-7754355D01*
X7786237Y-7754355D02*
X7784831Y-7757963D01*
X7784831Y-7757963D02*
X7783492Y-7761856D01*
X7783492Y-7761856D02*
X7782306Y-7765838D01*
X7782306Y-7765838D02*
X7781247Y-7770038D01*
X7781247Y-7770038D02*
X7780369Y-7774306D01*
X7780369Y-7774306D02*
X7779668Y-7778677D01*
X7779668Y-7778677D02*
X7779149Y-7783226D01*
X7779149Y-7783226D02*
X7778831Y-7787956D01*
X7778831Y-7787956D02*
X7778735Y-7792378D01*
X7978717Y-7792378D02*
X7978597Y-7787436D01*
X7978597Y-7787436D02*
X7978254Y-7782714D01*
X7978254Y-7782714D02*
X7977712Y-7778170D01*
X7977712Y-7778170D02*
X7976996Y-7773845D01*
X7976996Y-7773845D02*
X7976093Y-7769565D01*
X7976093Y-7769565D02*
X7975072Y-7765577D01*
X7975072Y-7765577D02*
X7973909Y-7761710D01*
X7973909Y-7761710D02*
X7972616Y-7757963D01*
X7972616Y-7757963D02*
X7971165Y-7754250D01*
X7971165Y-7754250D02*
X7969644Y-7750765D01*
X7969644Y-7750765D02*
X7968003Y-7747368D01*
X7968003Y-7747368D02*
X7966148Y-7743878D01*
X7966148Y-7743878D02*
X7964249Y-7740616D01*
X7964249Y-7740616D02*
X7962231Y-7737434D01*
X7962231Y-7737434D02*
X7960164Y-7734425D01*
X7960164Y-7734425D02*
X7957945Y-7731437D01*
X7957945Y-7731437D02*
X7955595Y-7728508D01*
X7955595Y-7728508D02*
X7953039Y-7725558D01*
X7953039Y-7725558D02*
X7950580Y-7722925D01*
X7950580Y-7722925D02*
X7947812Y-7720174D01*
X7947812Y-7720174D02*
X7944939Y-7717532D01*
X7944939Y-7717532D02*
X7942226Y-7715216D01*
X7942226Y-7715216D02*
X7939416Y-7712984D01*
X7939416Y-7712984D02*
X7936464Y-7710809D01*
X7936464Y-7710809D02*
X7933477Y-7708772D01*
X7933477Y-7708772D02*
X7930286Y-7706762D01*
X7930286Y-7706762D02*
X7927048Y-7704889D01*
X7927048Y-7704889D02*
X7923668Y-7703100D01*
X7923668Y-7703100D02*
X7920248Y-7701454D01*
X7920248Y-7701454D02*
X7916757Y-7699935D01*
X7916757Y-7699935D02*
X7913091Y-7698506D01*
X7913091Y-7698506D02*
X7909283Y-7697195D01*
X7909283Y-7697195D02*
X7905427Y-7696039D01*
X7905427Y-7696039D02*
X7901432Y-7695019D01*
X7901432Y-7695019D02*
X7897278Y-7694141D01*
X7897278Y-7694141D02*
X7892947Y-7693421D01*
X7892947Y-7693421D02*
X7888397Y-7692872D01*
X7888397Y-7692872D02*
X7883308Y-7692506D01*
X7883308Y-7692506D02*
X7878557Y-7692395D01*
X7878557Y-7892395D02*
X7883508Y-7892275D01*
X7883508Y-7892275D02*
X7888200Y-7891937D01*
X7888200Y-7891937D02*
X7892674Y-7891409D01*
X7892674Y-7891409D02*
X7897278Y-7890651D01*
X7897278Y-7890651D02*
X7901413Y-7889779D01*
X7901413Y-7889779D02*
X7905446Y-7888750D01*
X7905446Y-7888750D02*
X7909429Y-7887555D01*
X7909429Y-7887555D02*
X7913772Y-7886040D01*
X7913772Y-7886040D02*
X7917355Y-7884617D01*
X7917355Y-7884617D02*
X7920903Y-7883045D01*
X7920903Y-7883045D02*
X7924344Y-7881360D01*
X7924344Y-7881360D02*
X7927676Y-7879567D01*
X7927676Y-7879567D02*
X7930931Y-7877653D01*
X7930931Y-7877653D02*
X7934106Y-7875622D01*
X7934106Y-7875622D02*
X7937198Y-7873476D01*
X7937198Y-7873476D02*
X7940115Y-7871288D01*
X7940115Y-7871288D02*
X7942891Y-7869046D01*
X7942891Y-7869046D02*
X7945612Y-7866684D01*
X7945612Y-7866684D02*
X7948218Y-7864252D01*
X7948218Y-7864252D02*
X7950789Y-7861677D01*
X7950789Y-7861677D02*
X7953240Y-7859037D01*
X7953240Y-7859037D02*
X7955571Y-7856339D01*
X7955571Y-7856339D02*
X7957853Y-7853500D01*
X7957853Y-7853500D02*
X7960010Y-7850607D01*
X7960010Y-7850607D02*
X7962148Y-7847510D01*
X7962148Y-7847510D02*
X7964170Y-7844330D01*
X7964170Y-7844330D02*
X7966074Y-7841070D01*
X7966074Y-7841070D02*
X7967857Y-7837734D01*
X7967857Y-7837734D02*
X7969516Y-7834323D01*
X7969516Y-7834323D02*
X7971048Y-7830842D01*
X7971048Y-7830842D02*
X7972504Y-7827149D01*
X7972504Y-7827149D02*
X7973797Y-7823441D01*
X7973797Y-7823441D02*
X7974978Y-7819556D01*
X7974978Y-7819556D02*
X7976027Y-7815512D01*
X7976027Y-7815512D02*
X7976916Y-7811365D01*
X7976916Y-7811365D02*
X7977650Y-7807040D01*
X7977650Y-7807040D02*
X7978204Y-7802574D01*
X7978204Y-7802574D02*
X7978574Y-7797770D01*
X7978574Y-7797770D02*
X7978716Y-7792884D01*
X7978716Y-7792884D02*
X7978717Y-7792378D01*
X11686694Y-7241579D02*
X11686694Y-7241579D01*
X11977778Y-8611029D02*
X11686694Y-7241579D01*
X13347177Y-8319945D02*
X11977778Y-8611029D01*
X13056093Y-6950495D02*
X13347177Y-8319945D01*
X11686694Y-7241579D02*
X13056093Y-6950495D01*
X9773735Y-7404605D02*
X9773735Y-7404605D01*
X10064819Y-8774054D02*
X9773735Y-7404605D01*
X11434303Y-8482970D02*
X10064819Y-8774054D01*
X11143219Y-7113521D02*
X11434303Y-8482970D01*
X9773735Y-7404605D02*
X11143219Y-7113521D01*
X18886409Y-7899625D02*
X18886409Y-7899625D01*
X16051430Y-9447976D02*
X15760346Y-8078526D01*
X17420236Y-9157019D02*
X16051430Y-9447976D01*
X17129152Y-7787569D02*
X17420236Y-9157019D01*
X18984114Y-8359357D02*
X18886409Y-7899625D01*
X18835439Y-8390955D02*
X18984114Y-8359357D01*
X18742475Y-7953727D02*
X18835439Y-8390955D01*
X20108995Y-13750253D02*
X20105693Y-13750592D01*
X18573735Y-7989592D02*
X18742475Y-7953727D01*
X18548843Y-7872210D02*
X18573735Y-7989592D01*
X18226009Y-7940824D02*
X18548843Y-7872210D01*
X10088187Y-13450194D02*
X10084885Y-13450533D01*
X13415503Y-13450194D02*
X10088187Y-13450194D01*
X13426255Y-13454343D02*
X13423357Y-13452219D01*
X13423357Y-13452219D02*
X13419802Y-13450767D01*
X13419802Y-13450767D02*
X13415503Y-13450194D01*
X13746888Y-13746443D02*
X13743975Y-13743786D01*
X13743975Y-13743786D02*
X13741022Y-13741093D01*
X13741022Y-13741093D02*
X13736911Y-13737344D01*
X13736911Y-13737344D02*
X13733032Y-13733808D01*
X13733032Y-13733808D02*
X13729634Y-13730711D01*
X13729634Y-13730711D02*
X13725991Y-13727391D01*
X13725991Y-13727391D02*
X13722112Y-13723855D01*
X13722112Y-13723855D02*
X13718007Y-13720114D01*
X13718007Y-13720114D02*
X13714779Y-13717172D01*
X13714779Y-13717172D02*
X13709156Y-13712048D01*
X13709156Y-13712048D02*
X13704430Y-13707741D01*
X13704430Y-13707741D02*
X13699516Y-13703263D01*
X13699516Y-13703263D02*
X13691834Y-13696264D01*
X13691834Y-13696264D02*
X13680995Y-13686388D01*
X13680995Y-13686388D02*
X13672466Y-13678617D01*
X13672466Y-13678617D02*
X13666628Y-13673297D01*
X13666628Y-13673297D02*
X13657661Y-13665127D01*
X13657661Y-13665127D02*
X13645319Y-13653883D01*
X13645319Y-13653883D02*
X13635822Y-13645231D01*
X13635822Y-13645231D02*
X13629406Y-13639386D01*
X13629406Y-13639386D02*
X13622927Y-13633483D01*
X13622927Y-13633483D02*
X13616395Y-13627532D01*
X13616395Y-13627532D02*
X13606522Y-13618539D01*
X13606522Y-13618539D02*
X13596577Y-13609479D01*
X13596577Y-13609479D02*
X13592423Y-13605694D01*
X13592423Y-13605694D02*
X13588266Y-13601908D01*
X13588266Y-13601908D02*
X13579951Y-13594333D01*
X13579951Y-13594333D02*
X13566683Y-13582247D01*
X13566683Y-13582247D02*
X13556810Y-13573253D01*
X13556810Y-13573253D02*
X13550277Y-13567302D01*
X13550277Y-13567302D02*
X13540572Y-13558462D01*
X13540572Y-13558462D02*
X13521614Y-13541193D01*
X13521614Y-13541193D02*
X13503617Y-13524800D01*
X13503617Y-13524800D02*
X13495018Y-13516968D01*
X13495018Y-13516968D02*
X13489448Y-13511894D01*
X13489448Y-13511894D02*
X13481354Y-13504522D01*
X13481354Y-13504522D02*
X13471165Y-13495242D01*
X13471165Y-13495242D02*
X13464024Y-13488737D01*
X13464024Y-13488737D02*
X13459492Y-13484610D01*
X13459492Y-13484610D02*
X13453058Y-13478751D01*
X13453058Y-13478751D02*
X13447178Y-13473395D01*
X13447178Y-13473395D02*
X13443531Y-13470074D01*
X13443531Y-13470074D02*
X13440130Y-13466977D01*
X13440130Y-13466977D02*
X13436985Y-13464112D01*
X13436985Y-13464112D02*
X13434103Y-13461489D01*
X13434103Y-13461489D02*
X13429174Y-13457000D01*
X13429174Y-13457000D02*
X13426255Y-13454343D01*
X13757641Y-13750592D02*
X13753216Y-13749977D01*
X13753216Y-13749977D02*
X13749673Y-13748481D01*
X13749673Y-13748481D02*
X13746888Y-13746443D01*
X20105693Y-13750592D02*
X13757641Y-13750592D01*
X8598731Y-13467720D02*
X6763412Y-13857780D01*
X8307647Y-12098237D02*
X8598731Y-13467720D01*
X6472328Y-12488296D02*
X8307647Y-12098237D01*
X5539809Y-13454597D02*
X5539809Y-13454597D01*
X21706740Y-5085348D02*
X21706740Y-7307026D01*
X6222646Y-14265450D02*
X6217250Y-14259044D01*
X6217250Y-14259044D02*
X6212756Y-14253708D01*
X6212756Y-14253708D02*
X6207587Y-14247571D01*
X6207587Y-14247571D02*
X6201767Y-14240661D01*
X6201767Y-14240661D02*
X6195319Y-14233004D01*
X6195319Y-14233004D02*
X6184591Y-14220267D01*
X6184591Y-14220267D02*
X6168206Y-14200810D01*
X6168206Y-14200810D02*
X6149726Y-14178866D01*
X6149726Y-14178866D02*
X6129337Y-14154656D01*
X6129337Y-14154656D02*
X6107225Y-14128399D01*
X6107225Y-14128399D02*
X6083577Y-14100316D01*
X6083577Y-14100316D02*
X6058576Y-14070629D01*
X6058576Y-14070629D02*
X6019059Y-14023702D01*
X6019059Y-14023702D02*
X5977323Y-13974141D01*
X5977323Y-13974141D02*
X5948774Y-13940239D01*
X5948774Y-13940239D02*
X5905232Y-13888533D01*
X5905232Y-13888533D02*
X5817489Y-13784337D01*
X5817489Y-13784337D02*
X5733871Y-13685040D01*
X5733871Y-13685040D02*
X5682527Y-13624068D01*
X5682527Y-13624068D02*
X5636547Y-13569467D01*
X5636547Y-13569467D02*
X5606724Y-13534054D01*
X5606724Y-13534054D02*
X5593414Y-13518247D01*
X5593414Y-13518247D02*
X5585159Y-13508446D01*
X5585159Y-13508446D02*
X5577460Y-13499303D01*
X5577460Y-13499303D02*
X5570341Y-13490849D01*
X5570341Y-13490849D02*
X5560718Y-13479423D01*
X5560718Y-13479423D02*
X5552687Y-13469887D01*
X5552687Y-13469887D02*
X5548116Y-13464459D01*
X5548116Y-13464459D02*
X5544239Y-13459856D01*
X5544239Y-13459856D02*
X5541080Y-13456106D01*
X5541080Y-13456106D02*
X5539809Y-13454597D01*
X6238225Y-14270784D02*
X6233492Y-14271052D01*
X6233492Y-14271052D02*
X6229390Y-14270144D01*
X6229390Y-14270144D02*
X6226060Y-14268473D01*
X6226060Y-14268473D02*
X6223313Y-14266188D01*
X6223313Y-14266188D02*
X6222646Y-14265450D01*
X10084885Y-13450533D02*
X10080440Y-13451482D01*
X10080440Y-13451482D02*
X10075887Y-13452453D01*
X10075887Y-13452453D02*
X10070115Y-13453684D01*
X10070115Y-13453684D02*
X10063142Y-13455172D01*
X10063142Y-13455172D02*
X10054987Y-13456911D01*
X10054987Y-13456911D02*
X10040726Y-13459953D01*
X10040726Y-13459953D02*
X10017564Y-13464892D01*
X10017564Y-13464892D02*
X9990029Y-13470765D01*
X9990029Y-13470765D02*
X9966473Y-13475788D01*
X9966473Y-13475788D02*
X9949571Y-13479392D01*
X9949571Y-13479392D02*
X9922461Y-13485174D01*
X9922461Y-13485174D02*
X9882740Y-13493644D01*
X9882740Y-13493644D02*
X9839269Y-13502914D01*
X9839269Y-13502914D02*
X9804190Y-13510395D01*
X9804190Y-13510395D02*
X9779787Y-13515598D01*
X9779787Y-13515598D02*
X9741699Y-13523720D01*
X9741699Y-13523720D02*
X9687912Y-13535190D01*
X9687912Y-13535190D02*
X9630999Y-13547326D01*
X9630999Y-13547326D02*
X9571114Y-13560095D01*
X9571114Y-13560095D02*
X9524261Y-13570086D01*
X9524261Y-13570086D02*
X9492237Y-13576915D01*
X9492237Y-13576915D02*
X9409732Y-13594508D01*
X9409732Y-13594508D02*
X9269313Y-13624450D01*
X9269313Y-13624450D02*
X9120440Y-13656194D01*
X9120440Y-13656194D02*
X8964360Y-13689476D01*
X8964360Y-13689476D02*
X8719964Y-13741589D01*
X8719964Y-13741589D02*
X8379523Y-13814181D01*
X8379523Y-13814181D02*
X8032698Y-13888135D01*
X8032698Y-13888135D02*
X7774737Y-13943140D01*
X7774737Y-13943140D02*
X7605889Y-13979143D01*
X7605889Y-13979143D02*
X7441056Y-14014291D01*
X7441056Y-14014291D02*
X7281486Y-14048317D01*
X7281486Y-14048317D02*
X7128425Y-14080954D01*
X7128425Y-14080954D02*
X7018923Y-14104304D01*
X7018923Y-14104304D02*
X6948443Y-14119332D01*
X6948443Y-14119332D02*
X6846819Y-14141002D01*
X6846819Y-14141002D02*
X6720768Y-14167881D01*
X6720768Y-14167881D02*
X6606214Y-14192308D01*
X6606214Y-14192308D02*
X6529022Y-14208768D01*
X6529022Y-14208768D02*
X6481537Y-14218894D01*
X6481537Y-14218894D02*
X6437628Y-14228258D01*
X6437628Y-14228258D02*
X6397450Y-14236825D01*
X6397450Y-14236825D02*
X6369985Y-14242682D01*
X6369985Y-14242682D02*
X6352841Y-14246338D01*
X6352841Y-14246338D02*
X6336718Y-14249777D01*
X6336718Y-14249777D02*
X6321635Y-14252993D01*
X6321635Y-14252993D02*
X6300867Y-14257423D01*
X6300867Y-14257423D02*
X6282820Y-14261271D01*
X6282820Y-14261271D02*
X6272092Y-14263559D01*
X6272092Y-14263559D02*
X6257993Y-14266567D01*
X6257993Y-14266567D02*
X6246811Y-14268952D01*
X6246811Y-14268952D02*
X6242189Y-14269938D01*
X6242189Y-14269938D02*
X6238225Y-14270784D01*
X5902437Y-8995475D02*
X5901307Y-8990200D01*
X5901307Y-8990200D02*
X5900384Y-8985888D01*
X5900384Y-8985888D02*
X5899329Y-8980963D01*
X5899329Y-8980963D02*
X5898146Y-8975437D01*
X5898146Y-8975437D02*
X5896835Y-8969319D01*
X5896835Y-8969319D02*
X5895400Y-8962619D01*
X5895400Y-8962619D02*
X5893842Y-8955346D01*
X5893842Y-8955346D02*
X5892163Y-8947511D01*
X5892163Y-8947511D02*
X5890366Y-8939123D01*
X5890366Y-8939123D02*
X5887467Y-8925592D01*
X5887467Y-8925592D02*
X5884285Y-8910741D01*
X5884285Y-8910741D02*
X5882035Y-8900240D01*
X5882035Y-8900240D02*
X5878471Y-8883609D01*
X5878471Y-8883609D02*
X5873336Y-8859645D01*
X5873336Y-8859645D02*
X5869208Y-8840380D01*
X5869208Y-8840380D02*
X5866341Y-8827005D01*
X5866341Y-8827005D02*
X5861875Y-8806166D01*
X5861875Y-8806166D02*
X5855584Y-8776807D01*
X5855584Y-8776807D02*
X5848940Y-8745807D01*
X5848940Y-8745807D02*
X5841961Y-8713245D01*
X5841961Y-8713245D02*
X5836508Y-8687800D01*
X5836508Y-8687800D02*
X5832783Y-8670421D01*
X5832783Y-8670421D02*
X5827067Y-8643747D01*
X5827067Y-8643747D02*
X5815174Y-8588257D01*
X5815174Y-8588257D02*
X5798373Y-8509864D01*
X5798373Y-8509864D02*
X5785147Y-8448158D01*
X5785147Y-8448158D02*
X5776095Y-8405924D01*
X5776095Y-8405924D02*
X5762199Y-8341087D01*
X5762199Y-8341087D02*
X5743096Y-8251959D01*
X5743096Y-8251959D02*
X5723496Y-8160510D01*
X5723496Y-8160510D02*
X5693477Y-8020454D01*
X5693477Y-8020454D02*
X5663057Y-7878525D01*
X5663057Y-7878525D02*
X5642814Y-7784079D01*
X5642814Y-7784079D02*
X5622748Y-7690456D01*
X5622748Y-7690456D02*
X5602993Y-7598283D01*
X5602993Y-7598283D02*
X5583684Y-7508190D01*
X5583684Y-7508190D02*
X5569597Y-7442463D01*
X5569597Y-7442463D02*
X5560403Y-7399566D01*
X5560403Y-7399566D02*
X5546942Y-7336758D01*
X5546942Y-7336758D02*
X5534013Y-7276429D01*
X5534013Y-7276429D02*
X5525669Y-7237498D01*
X5525669Y-7237498D02*
X5517581Y-7199754D01*
X5517581Y-7199754D02*
X5511700Y-7172314D01*
X5511700Y-7172314D02*
X5507862Y-7154407D01*
X5507862Y-7154407D02*
X5502234Y-7128145D01*
X5502234Y-7128145D02*
X5495011Y-7094436D01*
X5495011Y-7094436D02*
X5488109Y-7062230D01*
X5488109Y-7062230D02*
X5481547Y-7031604D01*
X5481547Y-7031604D02*
X5476869Y-7009773D01*
X5476869Y-7009773D02*
X5474604Y-6999206D01*
X5474604Y-6999206D02*
X5473491Y-6994011D01*
X5473491Y-6994011D02*
X5469506Y-6975410D01*
X5469506Y-6975410D02*
X5465397Y-6956235D01*
X5465397Y-6956235D02*
X5463424Y-6947028D01*
X5463424Y-6947028D02*
X5462139Y-6941028D01*
X5462139Y-6941028D02*
X5460879Y-6935149D01*
X5460879Y-6935149D02*
X5459646Y-6929392D01*
X5459646Y-6929392D02*
X5457842Y-6920970D01*
X5457842Y-6920970D02*
X5454407Y-6904939D01*
X5454407Y-6904939D02*
X5451762Y-6892594D01*
X5451762Y-6892594D02*
X5450747Y-6887853D01*
X5450747Y-6887853D02*
X5449273Y-6880973D01*
X5449273Y-6880973D02*
X5447871Y-6874429D01*
X5447871Y-6874429D02*
X5446971Y-6870225D01*
X5446971Y-6870225D02*
X5445672Y-6864161D01*
X5445672Y-6864161D02*
X5444448Y-6858444D01*
X5444448Y-6858444D02*
X5442549Y-6849578D01*
X5442549Y-6849578D02*
X5441172Y-6843147D01*
X5441172Y-6843147D02*
X5440226Y-6838727D01*
X5440226Y-6838727D02*
X5438798Y-6832055D01*
X5438798Y-6832055D02*
X5437581Y-6826368D01*
X5437581Y-6826368D02*
X5437363Y-6825349D01*
X5899558Y-9008513D02*
X5901450Y-9005280D01*
X5901450Y-9005280D02*
X5902603Y-9001393D01*
X5902603Y-9001393D02*
X5902607Y-8996359D01*
X5902607Y-8996359D02*
X5902437Y-8995475D01*
X12462241Y-2898315D02*
X12467289Y-2901177D01*
X12467289Y-2901177D02*
X12472755Y-2904274D01*
X12472755Y-2904274D02*
X12479388Y-2908032D01*
X12479388Y-2908032D02*
X12483116Y-2910143D01*
X12483116Y-2910143D02*
X12487103Y-2912402D01*
X12487103Y-2912402D02*
X12491340Y-2914801D01*
X12491340Y-2914801D02*
X12495815Y-2917335D01*
X12495815Y-2917335D02*
X12500519Y-2919999D01*
X12500519Y-2919999D02*
X12507954Y-2924209D01*
X12507954Y-2924209D02*
X12518602Y-2930238D01*
X12518602Y-2930238D02*
X12527088Y-2935043D01*
X12527088Y-2935043D02*
X12532937Y-2938354D01*
X12532937Y-2938354D02*
X12538940Y-2941753D01*
X12538940Y-2941753D02*
X12545087Y-2945233D01*
X12545087Y-2945233D02*
X12551366Y-2948788D01*
X12551366Y-2948788D02*
X12557767Y-2952412D01*
X12557767Y-2952412D02*
X12567563Y-2957957D01*
X12567563Y-2957957D02*
X12580970Y-2965547D01*
X12580970Y-2965547D02*
X12594674Y-2973305D01*
X12594674Y-2973305D02*
X12608591Y-2981183D01*
X12608591Y-2981183D02*
X12622636Y-2989133D01*
X12622636Y-2989133D02*
X12633201Y-2995113D01*
X12633201Y-2995113D02*
X12640239Y-2999097D01*
X12640239Y-2999097D02*
X12650768Y-3005057D01*
X12650768Y-3005057D02*
X12664686Y-3012935D01*
X12664686Y-3012935D02*
X12678392Y-3020693D01*
X12678392Y-3020693D02*
X12691801Y-3028283D01*
X12691801Y-3028283D02*
X12704829Y-3035656D01*
X12704829Y-3035656D02*
X12717390Y-3042766D01*
X12717390Y-3042766D02*
X12729400Y-3049564D01*
X12729400Y-3049564D02*
X12740774Y-3056001D01*
X12740774Y-3056001D02*
X12751427Y-3062031D01*
X12751427Y-3062031D02*
X12765986Y-3070271D01*
X12765986Y-3070271D02*
X12778212Y-3077190D01*
X12778212Y-3077190D02*
X12785132Y-3081107D01*
X12785132Y-3081107D02*
X12790908Y-3084375D01*
X12790908Y-3084375D02*
X12795453Y-3086947D01*
X12795453Y-3086947D02*
X12797182Y-3087926D01*
X12454282Y-2896240D02*
X12458703Y-2896852D01*
X12458703Y-2896852D02*
X12462241Y-2898315D01*
X21921201Y-8321071D02*
X21921539Y-8324390D01*
X21707079Y-7310345D02*
X21708249Y-7315890D01*
X21708249Y-7315890D02*
X21709277Y-7320753D01*
X21709277Y-7320753D02*
X21710205Y-7325138D01*
X21710205Y-7325138D02*
X21711284Y-7330238D01*
X21711284Y-7330238D02*
X21713357Y-7340033D01*
X21713357Y-7340033D02*
X21715276Y-7349099D01*
X21715276Y-7349099D02*
X21717412Y-7359190D01*
X21717412Y-7359190D02*
X21719757Y-7370266D01*
X21719757Y-7370266D02*
X21722302Y-7382286D01*
X21722302Y-7382286D02*
X21725039Y-7395211D01*
X21725039Y-7395211D02*
X21727217Y-7405500D01*
X21727217Y-7405500D02*
X21728722Y-7412604D01*
X21728722Y-7412604D02*
X21731053Y-7423614D01*
X21731053Y-7423614D02*
X21734314Y-7439011D01*
X21734314Y-7439011D02*
X21736868Y-7451072D01*
X21736868Y-7451072D02*
X21738615Y-7459321D01*
X21738615Y-7459321D02*
X21741300Y-7471997D01*
X21741300Y-7471997D02*
X21745008Y-7489505D01*
X21745008Y-7489505D02*
X21748848Y-7507636D01*
X21748848Y-7507636D02*
X21752812Y-7526350D01*
X21752812Y-7526350D02*
X21756890Y-7545607D01*
X21756890Y-7545607D02*
X21763194Y-7575366D01*
X21763194Y-7575366D02*
X21769732Y-7606231D01*
X21769732Y-7606231D02*
X21774185Y-7627256D01*
X21774185Y-7627256D02*
X21778712Y-7648623D01*
X21778712Y-7648623D02*
X21783302Y-7670292D01*
X21783302Y-7670292D02*
X21787947Y-7692222D01*
X21787947Y-7692222D02*
X21792640Y-7714373D01*
X21792640Y-7714373D02*
X21799744Y-7747911D01*
X21799744Y-7747911D02*
X21809309Y-7793058D01*
X21809309Y-7793058D02*
X21816507Y-7827038D01*
X21816507Y-7827038D02*
X21821302Y-7849671D01*
X21821302Y-7849671D02*
X21828472Y-7883511D01*
X21828472Y-7883511D02*
X21837934Y-7928174D01*
X21837934Y-7928174D02*
X21847227Y-7972034D01*
X21847227Y-7972034D02*
X21856281Y-8014768D01*
X21856281Y-8014768D02*
X21862863Y-8045834D01*
X21862863Y-8045834D02*
X21867148Y-8066055D01*
X21867148Y-8066055D02*
X21871335Y-8085814D01*
X21871335Y-8085814D02*
X21875415Y-8105071D01*
X21875415Y-8105071D02*
X21881333Y-8133001D01*
X21881333Y-8133001D02*
X21886932Y-8159423D01*
X21886932Y-8159423D02*
X21890502Y-8176267D01*
X21890502Y-8176267D02*
X21893923Y-8192408D01*
X21893923Y-8192408D02*
X21897186Y-8207805D01*
X21897186Y-8207805D02*
X21900283Y-8222419D01*
X21900283Y-8222419D02*
X21903205Y-8236208D01*
X21903205Y-8236208D02*
X21905271Y-8245957D01*
X21905271Y-8245957D02*
X21906594Y-8252195D01*
X21906594Y-8252195D02*
X21908493Y-8261153D01*
X21908493Y-8261153D02*
X21910841Y-8272228D01*
X21910841Y-8272228D02*
X21912980Y-8282319D01*
X21912980Y-8282319D02*
X21914902Y-8291384D01*
X21914902Y-8291384D02*
X21916189Y-8297452D01*
X21916189Y-8297452D02*
X21917165Y-8302058D01*
X21917165Y-8302058D02*
X21918381Y-8307789D01*
X21918381Y-8307789D02*
X21919280Y-8312028D01*
X21919280Y-8312028D02*
X21920442Y-8317503D01*
X21920442Y-8317503D02*
X21921201Y-8321071D01*
X21706740Y-7307026D02*
X21707079Y-7310345D01*
X21722742Y-5069346D02*
X21718319Y-5069959D01*
X21718319Y-5069959D02*
X21714761Y-5071461D01*
X21714761Y-5071461D02*
X21711869Y-5073587D01*
X21711869Y-5073587D02*
X21709533Y-5076291D01*
X21709533Y-5076291D02*
X21707799Y-5079593D01*
X21707799Y-5079593D02*
X21706826Y-5083673D01*
X21706826Y-5083673D02*
X21706740Y-5085348D01*
X21908839Y-13367052D02*
X21902723Y-13368353D01*
X21902723Y-13368353D02*
X21897993Y-13369359D01*
X21897993Y-13369359D02*
X21892762Y-13370472D01*
X21892762Y-13370472D02*
X21884055Y-13372326D01*
X21884055Y-13372326D02*
X21870688Y-13375171D01*
X21870688Y-13375171D02*
X21855469Y-13378410D01*
X21855469Y-13378410D02*
X21838467Y-13382030D01*
X21838467Y-13382030D02*
X21819747Y-13386015D01*
X21819747Y-13386015D02*
X21799378Y-13390351D01*
X21799378Y-13390351D02*
X21777427Y-13395025D01*
X21777427Y-13395025D02*
X21753962Y-13400020D01*
X21753962Y-13400020D02*
X21716241Y-13408051D01*
X21716241Y-13408051D02*
X21675157Y-13416799D01*
X21675157Y-13416799D02*
X21646311Y-13422940D01*
X21646311Y-13422940D02*
X21600991Y-13432590D01*
X21600991Y-13432590D02*
X21552983Y-13442812D01*
X21552983Y-13442812D02*
X21519836Y-13449869D01*
X21519836Y-13449869D02*
X21468538Y-13460792D01*
X21468538Y-13460792D02*
X21397211Y-13475979D01*
X21397211Y-13475979D02*
X21323205Y-13491737D01*
X21323205Y-13491737D02*
X21208519Y-13516157D01*
X21208519Y-13516157D02*
X21050913Y-13549716D01*
X21050913Y-13549716D02*
X20931890Y-13575059D01*
X20931890Y-13575059D02*
X20853153Y-13591824D01*
X20853153Y-13591824D02*
X20775518Y-13608354D01*
X20775518Y-13608354D02*
X20699527Y-13624535D01*
X20699527Y-13624535D02*
X20625719Y-13640250D01*
X20625719Y-13640250D02*
X20554635Y-13655385D01*
X20554635Y-13655385D02*
X20503548Y-13666262D01*
X20503548Y-13666262D02*
X20470555Y-13673287D01*
X20470555Y-13673287D02*
X20422798Y-13683455D01*
X20422798Y-13683455D02*
X20377757Y-13693045D01*
X20377757Y-13693045D02*
X20349108Y-13699144D01*
X20349108Y-13699144D02*
X20321715Y-13704976D01*
X20321715Y-13704976D02*
X20295645Y-13710527D01*
X20295645Y-13710527D02*
X20270965Y-13715781D01*
X20270965Y-13715781D02*
X20247742Y-13720725D01*
X20247742Y-13720725D02*
X20226044Y-13725344D01*
X20226044Y-13725344D02*
X20205940Y-13729623D01*
X20205940Y-13729623D02*
X20187495Y-13733550D01*
X20187495Y-13733550D02*
X20174848Y-13736242D01*
X20174848Y-13736242D02*
X20166934Y-13737926D01*
X20166934Y-13737926D02*
X20159474Y-13739514D01*
X20159474Y-13739514D02*
X20152475Y-13741003D01*
X20152475Y-13741003D02*
X20145945Y-13742393D01*
X20145945Y-13742393D02*
X20139895Y-13743681D01*
X20139895Y-13743681D02*
X20134331Y-13744865D01*
X20134331Y-13744865D02*
X20129262Y-13745943D01*
X20129262Y-13745943D02*
X20124697Y-13746914D01*
X20124697Y-13746914D02*
X20117963Y-13748347D01*
X20117963Y-13748347D02*
X20112226Y-13749566D01*
X20112226Y-13749566D02*
X20108995Y-13750253D01*
X21921539Y-13351388D02*
X21920921Y-13355809D01*
X21920921Y-13355809D02*
X21919439Y-13359336D01*
X21919439Y-13359336D02*
X21917314Y-13362252D01*
X21917314Y-13362252D02*
X21914603Y-13364606D01*
X21914603Y-13364606D02*
X21911302Y-13366336D01*
X21911302Y-13366336D02*
X21908839Y-13367052D01*
X21921539Y-8324390D02*
X21921539Y-13351388D01*
X5010558Y-4050941D02*
X5016948Y-4049301D01*
X5016948Y-4049301D02*
X5034385Y-4044826D01*
X5034385Y-4044826D02*
X5070012Y-4035683D01*
X5070012Y-4035683D02*
X5118521Y-4023233D01*
X5118521Y-4023233D02*
X5156569Y-4013468D01*
X5156569Y-4013468D02*
X5199317Y-4002497D01*
X5199317Y-4002497D02*
X5246582Y-3990366D01*
X5246582Y-3990366D02*
X5325046Y-3970229D01*
X5325046Y-3970229D02*
X5444505Y-3939569D01*
X5444505Y-3939569D02*
X5649421Y-3886978D01*
X5649421Y-3886978D02*
X5968458Y-3805096D01*
X5968458Y-3805096D02*
X6326390Y-3713231D01*
X6326390Y-3713231D02*
X6909584Y-3563553D01*
X6909584Y-3563553D02*
X7719471Y-3355693D01*
X7719471Y-3355693D02*
X8293043Y-3208484D01*
X8293043Y-3208484D02*
X8555908Y-3141019D01*
X8555908Y-3141019D02*
X8719754Y-3098968D01*
X8719754Y-3098968D02*
X8945524Y-3041023D01*
X8945524Y-3041023D02*
X9137539Y-2991743D01*
X9137539Y-2991743D02*
X9247378Y-2963553D01*
X9247378Y-2963553D02*
X9340085Y-2939759D01*
X9340085Y-2939759D02*
X9396886Y-2925182D01*
X9396886Y-2925182D02*
X9429031Y-2916932D01*
X9429031Y-2916932D02*
X9468301Y-2906853D01*
X9468301Y-2906853D02*
X9494143Y-2900222D01*
X9494143Y-2900222D02*
X9502496Y-2898078D01*
X9502496Y-2898078D02*
X9507713Y-2896740D01*
X4998535Y-4066435D02*
X4999170Y-4061988D01*
X4999170Y-4061988D02*
X5000675Y-4058466D01*
X5000675Y-4058466D02*
X5002797Y-4055586D01*
X5002797Y-4055586D02*
X5005498Y-4053246D01*
X5005498Y-4053246D02*
X5008812Y-4051499D01*
X5008812Y-4051499D02*
X5010558Y-4050941D01*
X5421699Y-6812700D02*
X5347986Y-6812591D01*
X5347986Y-6812591D02*
X5156502Y-6812308D01*
X5156502Y-6812308D02*
X5071998Y-6812183D01*
X5071998Y-6812183D02*
X5029159Y-6812120D01*
X5029159Y-6812120D02*
X5014537Y-6812099D01*
X12805056Y-3090000D02*
X22390000Y-3090000D01*
X12797182Y-3087926D02*
X12800743Y-3089415D01*
X12800743Y-3089415D02*
X12805056Y-3090000D01*
X5536084Y-13444268D02*
X5536084Y-9492070D01*
X9511692Y-2896240D02*
X12454282Y-2896240D01*
X9507713Y-2896740D02*
X9511692Y-2896240D01*
X5539301Y-9482384D02*
X5541573Y-9479402D01*
X5541573Y-9479402D02*
X5543795Y-9476483D01*
X5543795Y-9476483D02*
X5546362Y-9473110D01*
X5546362Y-9473110D02*
X5549263Y-9469298D01*
X5549263Y-9469298D02*
X5552068Y-9465611D01*
X5552068Y-9465611D02*
X5556940Y-9459207D01*
X5556940Y-9459207D02*
X5560845Y-9454072D01*
X5560845Y-9454072D02*
X5565036Y-9448563D01*
X5565036Y-9448563D02*
X5569499Y-9442694D01*
X5569499Y-9442694D02*
X5574225Y-9436480D01*
X5574225Y-9436480D02*
X5579201Y-9429937D01*
X5579201Y-9429937D02*
X5584415Y-9423079D01*
X5584415Y-9423079D02*
X5588483Y-9417730D01*
X5588483Y-9417730D02*
X5591259Y-9414080D01*
X5591259Y-9414080D02*
X5598397Y-9404692D01*
X5598397Y-9404692D02*
X5607433Y-9392806D01*
X5607433Y-9392806D02*
X5613670Y-9384603D01*
X5613670Y-9384603D02*
X5620078Y-9376175D01*
X5620078Y-9376175D02*
X5626644Y-9367539D01*
X5626644Y-9367539D02*
X5633357Y-9358709D01*
X5633357Y-9358709D02*
X5640205Y-9349700D01*
X5640205Y-9349700D02*
X5650695Y-9335903D01*
X5650695Y-9335903D02*
X5665069Y-9316994D01*
X5665069Y-9316994D02*
X5679780Y-9297643D01*
X5679780Y-9297643D02*
X5694736Y-9277968D01*
X5694736Y-9277968D02*
X5709845Y-9258092D01*
X5709845Y-9258092D02*
X5725016Y-9238135D01*
X5725016Y-9238135D02*
X5740156Y-9218217D01*
X5740156Y-9218217D02*
X5755174Y-9198460D01*
X5755174Y-9198460D02*
X5769979Y-9178983D01*
X5769979Y-9178983D02*
X5791641Y-9150486D01*
X5791641Y-9150486D02*
X5818868Y-9114665D01*
X5818868Y-9114665D02*
X5843590Y-9082141D01*
X5843590Y-9082141D02*
X5865074Y-9053877D01*
X5865074Y-9053877D02*
X5876358Y-9039033D01*
X5876358Y-9039033D02*
X5880458Y-9033638D01*
X5880458Y-9033638D02*
X5886104Y-9026211D01*
X5886104Y-9026211D02*
X5892507Y-9017788D01*
X5892507Y-9017788D02*
X5896408Y-9012656D01*
X5896408Y-9012656D02*
X5899090Y-9009129D01*
X5899090Y-9009129D02*
X5899558Y-9008513D01*
X5539809Y-13454597D02*
X5537793Y-13451437D01*
X5537793Y-13451437D02*
X5536477Y-13447749D01*
X5536477Y-13447749D02*
X5536084Y-13444268D01*
X22390000Y-5069346D02*
X21722742Y-5069346D01*
X22406002Y-5053344D02*
X22405389Y-5057737D01*
X22405389Y-5057737D02*
X22403886Y-5061288D01*
X22403886Y-5061288D02*
X22401752Y-5064192D01*
X22401752Y-5064192D02*
X22399071Y-5066518D01*
X22399071Y-5066518D02*
X22395786Y-5068262D01*
X22395786Y-5068262D02*
X22391756Y-5069250D01*
X22391756Y-5069250D02*
X22390000Y-5069346D01*
X22406002Y-3106002D02*
X22406002Y-5053344D01*
X4998535Y-6796097D02*
X4998535Y-4066435D01*
X5014537Y-6812099D02*
X5010144Y-6811478D01*
X5010144Y-6811478D02*
X5006594Y-6809974D01*
X5006594Y-6809974D02*
X5003702Y-6807851D01*
X5003702Y-6807851D02*
X5001365Y-6805165D01*
X5001365Y-6805165D02*
X4999622Y-6801891D01*
X4999622Y-6801891D02*
X4998617Y-6797719D01*
X4998617Y-6797719D02*
X4998535Y-6796097D01*
X22401345Y-3094690D02*
X22403599Y-3097558D01*
X22403599Y-3097558D02*
X22405199Y-3101000D01*
X22405199Y-3101000D02*
X22405982Y-3105221D01*
X22405982Y-3105221D02*
X22406002Y-3106002D01*
X22390000Y-3090000D02*
X22394388Y-3090615D01*
X22394388Y-3090615D02*
X22397940Y-3092110D01*
X22397940Y-3092110D02*
X22400882Y-3094251D01*
X22400882Y-3094251D02*
X22401345Y-3094690D01*
D11*
X13407000Y-11852000D02*
X13617000Y-12062000D01*
X13617000Y-11852000D02*
X13407000Y-12062000D01*
X20400000Y-11178000D02*
X20610000Y-11388000D01*
X20610000Y-11178000D02*
X20400000Y-11388000D01*
X6065000Y-11173000D02*
X6275000Y-11383000D01*
X6275000Y-11173000D02*
X6065000Y-11383000D01*
X21280000Y-7017000D02*
X21490000Y-7227000D01*
X21490000Y-7017000D02*
X21280000Y-7227000D01*
X7775000Y-7687000D02*
X7985000Y-7897000D01*
X7985000Y-7687000D02*
X7775000Y-7897000D01*
X8215000Y-3349000D02*
X8425000Y-3559000D01*
X8425000Y-3349000D02*
X8215000Y-3559000D01*
X12648000Y-4194000D02*
X12858000Y-4404000D01*
X12858000Y-4194000D02*
X12648000Y-4404000D01*
X17971000Y-3449000D02*
X18181000Y-3659000D01*
X18181000Y-3449000D02*
X17971000Y-3659000D01*
D12*
X5282464Y-14740183D02*
X5282464Y-14440183D01*
X5353892Y-14440183D01*
X5396749Y-14454469D01*
X5425321Y-14483040D01*
X5439607Y-14511612D01*
X5453892Y-14568755D01*
X5453892Y-14611612D01*
X5439607Y-14668755D01*
X5425321Y-14697326D01*
X5396749Y-14725898D01*
X5353892Y-14740183D01*
X5282464Y-14740183D01*
X5582464Y-14740183D02*
X5582464Y-14540183D01*
X5582464Y-14597326D02*
X5596749Y-14568755D01*
X5611035Y-14554469D01*
X5639607Y-14540183D01*
X5668178Y-14540183D01*
X5768178Y-14740183D02*
X5768178Y-14540183D01*
X5768178Y-14440183D02*
X5753892Y-14454469D01*
X5768178Y-14468755D01*
X5782464Y-14454469D01*
X5768178Y-14440183D01*
X5768178Y-14468755D01*
X5953892Y-14740183D02*
X5925321Y-14725898D01*
X5911035Y-14697326D01*
X5911035Y-14440183D01*
X6111035Y-14740183D02*
X6082464Y-14725898D01*
X6068178Y-14697326D01*
X6068178Y-14440183D01*
X6453892Y-14740183D02*
X6453892Y-14440183D01*
X6553892Y-14654469D01*
X6653892Y-14440183D01*
X6653892Y-14740183D01*
X6925321Y-14740183D02*
X6925321Y-14583040D01*
X6911035Y-14554469D01*
X6882464Y-14540183D01*
X6825321Y-14540183D01*
X6796749Y-14554469D01*
X6925321Y-14725898D02*
X6896749Y-14740183D01*
X6825321Y-14740183D01*
X6796749Y-14725898D01*
X6782464Y-14697326D01*
X6782464Y-14668755D01*
X6796749Y-14640183D01*
X6825321Y-14625898D01*
X6896749Y-14625898D01*
X6925321Y-14611612D01*
X7068178Y-14540183D02*
X7068178Y-14840183D01*
X7068178Y-14554469D02*
X7096749Y-14540183D01*
X7153892Y-14540183D01*
X7182464Y-14554469D01*
X7196749Y-14568755D01*
X7211035Y-14597326D01*
X7211035Y-14683040D01*
X7196749Y-14711612D01*
X7182464Y-14725898D01*
X7153892Y-14740183D01*
X7096749Y-14740183D01*
X7068178Y-14725898D01*
X7339607Y-14711612D02*
X7353892Y-14725898D01*
X7339607Y-14740183D01*
X7325321Y-14725898D01*
X7339607Y-14711612D01*
X7339607Y-14740183D01*
X7339607Y-14554469D02*
X7353892Y-14568755D01*
X7339607Y-14583040D01*
X7325321Y-14568755D01*
X7339607Y-14554469D01*
X7339607Y-14583040D01*
X4786035Y-15129469D02*
X4996035Y-15339469D01*
X4996035Y-15129469D02*
X4786035Y-15339469D01*
X5268178Y-15098755D02*
X5282464Y-15084469D01*
X5311035Y-15070183D01*
X5382464Y-15070183D01*
X5411035Y-15084469D01*
X5425321Y-15098755D01*
X5439607Y-15127326D01*
X5439607Y-15155898D01*
X5425321Y-15198755D01*
X5253892Y-15370183D01*
X5439607Y-15370183D01*
X5568178Y-15341612D02*
X5582464Y-15355898D01*
X5568178Y-15370183D01*
X5553892Y-15355898D01*
X5568178Y-15341612D01*
X5568178Y-15370183D01*
X5868178Y-15370183D02*
X5696749Y-15370183D01*
X5782464Y-15370183D02*
X5782464Y-15070183D01*
X5753892Y-15113040D01*
X5725321Y-15141612D01*
X5696749Y-15155898D01*
X6053892Y-15070183D02*
X6082464Y-15070183D01*
X6111035Y-15084469D01*
X6125321Y-15098755D01*
X6139607Y-15127326D01*
X6153892Y-15184469D01*
X6153892Y-15255898D01*
X6139607Y-15313040D01*
X6125321Y-15341612D01*
X6111035Y-15355898D01*
X6082464Y-15370183D01*
X6053892Y-15370183D01*
X6025321Y-15355898D01*
X6011035Y-15341612D01*
X5996749Y-15313040D01*
X5982464Y-15255898D01*
X5982464Y-15184469D01*
X5996749Y-15127326D01*
X6011035Y-15098755D01*
X6025321Y-15084469D01*
X6053892Y-15070183D01*
X6282464Y-15370183D02*
X6282464Y-15170183D01*
X6282464Y-15198755D02*
X6296749Y-15184469D01*
X6325321Y-15170183D01*
X6368178Y-15170183D01*
X6396749Y-15184469D01*
X6411035Y-15213040D01*
X6411035Y-15370183D01*
X6411035Y-15213040D02*
X6425321Y-15184469D01*
X6453892Y-15170183D01*
X6496749Y-15170183D01*
X6525321Y-15184469D01*
X6539607Y-15213040D01*
X6539607Y-15370183D01*
X6682464Y-15370183D02*
X6682464Y-15170183D01*
X6682464Y-15198755D02*
X6696749Y-15184469D01*
X6725321Y-15170183D01*
X6768178Y-15170183D01*
X6796749Y-15184469D01*
X6811035Y-15213040D01*
X6811035Y-15370183D01*
X6811035Y-15213040D02*
X6825321Y-15184469D01*
X6853892Y-15170183D01*
X6896749Y-15170183D01*
X6925321Y-15184469D01*
X6939607Y-15213040D01*
X6939607Y-15370183D01*
X7525321Y-15055898D02*
X7268178Y-15441612D01*
X7911035Y-15070183D02*
X7939607Y-15070183D01*
X7968178Y-15084469D01*
X7982464Y-15098755D01*
X7996749Y-15127326D01*
X8011035Y-15184469D01*
X8011035Y-15255898D01*
X7996749Y-15313040D01*
X7982464Y-15341612D01*
X7968178Y-15355898D01*
X7939607Y-15370183D01*
X7911035Y-15370183D01*
X7882464Y-15355898D01*
X7868178Y-15341612D01*
X7853892Y-15313040D01*
X7839607Y-15255898D01*
X7839607Y-15184469D01*
X7853892Y-15127326D01*
X7868178Y-15098755D01*
X7882464Y-15084469D01*
X7911035Y-15070183D01*
X8139607Y-15341612D02*
X8153892Y-15355898D01*
X8139607Y-15370183D01*
X8125321Y-15355898D01*
X8139607Y-15341612D01*
X8139607Y-15370183D01*
X8339607Y-15070183D02*
X8368178Y-15070183D01*
X8396749Y-15084469D01*
X8411035Y-15098755D01*
X8425321Y-15127326D01*
X8439607Y-15184469D01*
X8439607Y-15255898D01*
X8425321Y-15313040D01*
X8411035Y-15341612D01*
X8396749Y-15355898D01*
X8368178Y-15370183D01*
X8339607Y-15370183D01*
X8311035Y-15355898D01*
X8296749Y-15341612D01*
X8282464Y-15313040D01*
X8268178Y-15255898D01*
X8268178Y-15184469D01*
X8282464Y-15127326D01*
X8296749Y-15098755D01*
X8311035Y-15084469D01*
X8339607Y-15070183D01*
X8611035Y-15198755D02*
X8582464Y-15184469D01*
X8568178Y-15170183D01*
X8553892Y-15141612D01*
X8553892Y-15127326D01*
X8568178Y-15098755D01*
X8582464Y-15084469D01*
X8611035Y-15070183D01*
X8668178Y-15070183D01*
X8696749Y-15084469D01*
X8711035Y-15098755D01*
X8725321Y-15127326D01*
X8725321Y-15141612D01*
X8711035Y-15170183D01*
X8696749Y-15184469D01*
X8668178Y-15198755D01*
X8611035Y-15198755D01*
X8582464Y-15213040D01*
X8568178Y-15227326D01*
X8553892Y-15255898D01*
X8553892Y-15313040D01*
X8568178Y-15341612D01*
X8582464Y-15355898D01*
X8611035Y-15370183D01*
X8668178Y-15370183D01*
X8696749Y-15355898D01*
X8711035Y-15341612D01*
X8725321Y-15313040D01*
X8725321Y-15255898D01*
X8711035Y-15227326D01*
X8696749Y-15213040D01*
X8668178Y-15198755D01*
X8825321Y-15070183D02*
X9011035Y-15070183D01*
X8911035Y-15184469D01*
X8953892Y-15184469D01*
X8982464Y-15198755D01*
X8996749Y-15213040D01*
X9011035Y-15241612D01*
X9011035Y-15313040D01*
X8996749Y-15341612D01*
X8982464Y-15355898D01*
X8953892Y-15370183D01*
X8868178Y-15370183D01*
X8839607Y-15355898D01*
X8825321Y-15341612D01*
X9125321Y-15070183D02*
X9125321Y-15127326D01*
X9239607Y-15070183D02*
X9239607Y-15127326D01*
X9682464Y-15484469D02*
X9668178Y-15470183D01*
X9639607Y-15427326D01*
X9625321Y-15398755D01*
X9611035Y-15355898D01*
X9596749Y-15284469D01*
X9596749Y-15227326D01*
X9611035Y-15155898D01*
X9625321Y-15113040D01*
X9639607Y-15084469D01*
X9668178Y-15041612D01*
X9682464Y-15027326D01*
X9839607Y-15198755D02*
X9811035Y-15184469D01*
X9796749Y-15170183D01*
X9782464Y-15141612D01*
X9782464Y-15127326D01*
X9796749Y-15098755D01*
X9811035Y-15084469D01*
X9839607Y-15070183D01*
X9896749Y-15070183D01*
X9925321Y-15084469D01*
X9939607Y-15098755D01*
X9953892Y-15127326D01*
X9953892Y-15141612D01*
X9939607Y-15170183D01*
X9925321Y-15184469D01*
X9896749Y-15198755D01*
X9839607Y-15198755D01*
X9811035Y-15213040D01*
X9796749Y-15227326D01*
X9782464Y-15255898D01*
X9782464Y-15313040D01*
X9796749Y-15341612D01*
X9811035Y-15355898D01*
X9839607Y-15370183D01*
X9896749Y-15370183D01*
X9925321Y-15355898D01*
X9939607Y-15341612D01*
X9953892Y-15313040D01*
X9953892Y-15255898D01*
X9939607Y-15227326D01*
X9925321Y-15213040D01*
X9896749Y-15198755D01*
X10311035Y-15370183D02*
X10311035Y-15070183D01*
X10439607Y-15370183D02*
X10439607Y-15213040D01*
X10425321Y-15184469D01*
X10396749Y-15170183D01*
X10353892Y-15170183D01*
X10325321Y-15184469D01*
X10311035Y-15198755D01*
X10625321Y-15370183D02*
X10596749Y-15355898D01*
X10582464Y-15341612D01*
X10568178Y-15313040D01*
X10568178Y-15227326D01*
X10582464Y-15198755D01*
X10596749Y-15184469D01*
X10625321Y-15170183D01*
X10668178Y-15170183D01*
X10696749Y-15184469D01*
X10711035Y-15198755D01*
X10725321Y-15227326D01*
X10725321Y-15313040D01*
X10711035Y-15341612D01*
X10696749Y-15355898D01*
X10668178Y-15370183D01*
X10625321Y-15370183D01*
X10896749Y-15370183D02*
X10868178Y-15355898D01*
X10853892Y-15327326D01*
X10853892Y-15070183D01*
X11125321Y-15355898D02*
X11096749Y-15370183D01*
X11039607Y-15370183D01*
X11011035Y-15355898D01*
X10996749Y-15327326D01*
X10996749Y-15213040D01*
X11011035Y-15184469D01*
X11039607Y-15170183D01*
X11096749Y-15170183D01*
X11125321Y-15184469D01*
X11139607Y-15213040D01*
X11139607Y-15241612D01*
X10996749Y-15270183D01*
X11253892Y-15355898D02*
X11282464Y-15370183D01*
X11339607Y-15370183D01*
X11368178Y-15355898D01*
X11382464Y-15327326D01*
X11382464Y-15313040D01*
X11368178Y-15284469D01*
X11339607Y-15270183D01*
X11296749Y-15270183D01*
X11268178Y-15255898D01*
X11253892Y-15227326D01*
X11253892Y-15213040D01*
X11268178Y-15184469D01*
X11296749Y-15170183D01*
X11339607Y-15170183D01*
X11368178Y-15184469D01*
X11482464Y-15484469D02*
X11496749Y-15470183D01*
X11525321Y-15427326D01*
X11539607Y-15398755D01*
X11553892Y-15355898D01*
X11568178Y-15284469D01*
X11568178Y-15227326D01*
X11553892Y-15155898D01*
X11539607Y-15113040D01*
X11525321Y-15084469D01*
X11496749Y-15041612D01*
X11482464Y-15027326D01*
X12025321Y-15484469D02*
X12011035Y-15470183D01*
X11982464Y-15427326D01*
X11968178Y-15398755D01*
X11953892Y-15355898D01*
X11939607Y-15284469D01*
X11939607Y-15227326D01*
X11953892Y-15155898D01*
X11968178Y-15113040D01*
X11982464Y-15084469D01*
X12011035Y-15041612D01*
X12025321Y-15027326D01*
X12139607Y-15170183D02*
X12139607Y-15370183D01*
X12139607Y-15198755D02*
X12153892Y-15184469D01*
X12182464Y-15170183D01*
X12225321Y-15170183D01*
X12253892Y-15184469D01*
X12268178Y-15213040D01*
X12268178Y-15370183D01*
X12453892Y-15370183D02*
X12425321Y-15355898D01*
X12411035Y-15341612D01*
X12396749Y-15313040D01*
X12396749Y-15227326D01*
X12411035Y-15198755D01*
X12425321Y-15184469D01*
X12453892Y-15170183D01*
X12496749Y-15170183D01*
X12525321Y-15184469D01*
X12539607Y-15198755D01*
X12553892Y-15227326D01*
X12553892Y-15313040D01*
X12539607Y-15341612D01*
X12525321Y-15355898D01*
X12496749Y-15370183D01*
X12453892Y-15370183D01*
X12639607Y-15170183D02*
X12753892Y-15170183D01*
X12682464Y-15070183D02*
X12682464Y-15327326D01*
X12696749Y-15355898D01*
X12725321Y-15370183D01*
X12753892Y-15370183D01*
X13082464Y-15170183D02*
X13082464Y-15470183D01*
X13082464Y-15184469D02*
X13111035Y-15170183D01*
X13168178Y-15170183D01*
X13196749Y-15184469D01*
X13211035Y-15198755D01*
X13225321Y-15227326D01*
X13225321Y-15313040D01*
X13211035Y-15341612D01*
X13196749Y-15355898D01*
X13168178Y-15370183D01*
X13111035Y-15370183D01*
X13082464Y-15355898D01*
X13396749Y-15370183D02*
X13368178Y-15355898D01*
X13353892Y-15327326D01*
X13353892Y-15070183D01*
X13639607Y-15370183D02*
X13639607Y-15213040D01*
X13625321Y-15184469D01*
X13596749Y-15170183D01*
X13539607Y-15170183D01*
X13511035Y-15184469D01*
X13639607Y-15355898D02*
X13611035Y-15370183D01*
X13539607Y-15370183D01*
X13511035Y-15355898D01*
X13496749Y-15327326D01*
X13496749Y-15298755D01*
X13511035Y-15270183D01*
X13539607Y-15255898D01*
X13611035Y-15255898D01*
X13639607Y-15241612D01*
X13739607Y-15170183D02*
X13853892Y-15170183D01*
X13782464Y-15070183D02*
X13782464Y-15327326D01*
X13796749Y-15355898D01*
X13825321Y-15370183D01*
X13853892Y-15370183D01*
X14068178Y-15355898D02*
X14039607Y-15370183D01*
X13982464Y-15370183D01*
X13953892Y-15355898D01*
X13939607Y-15327326D01*
X13939607Y-15213040D01*
X13953892Y-15184469D01*
X13982464Y-15170183D01*
X14039607Y-15170183D01*
X14068178Y-15184469D01*
X14082464Y-15213040D01*
X14082464Y-15241612D01*
X13939607Y-15270183D01*
X14339607Y-15370183D02*
X14339607Y-15070183D01*
X14339607Y-15355898D02*
X14311035Y-15370183D01*
X14253892Y-15370183D01*
X14225321Y-15355898D01*
X14211035Y-15341612D01*
X14196749Y-15313040D01*
X14196749Y-15227326D01*
X14211035Y-15198755D01*
X14225321Y-15184469D01*
X14253892Y-15170183D01*
X14311035Y-15170183D01*
X14339607Y-15184469D01*
X14453892Y-15484469D02*
X14468178Y-15470183D01*
X14496749Y-15427326D01*
X14511035Y-15398755D01*
X14525321Y-15355898D01*
X14539607Y-15284469D01*
X14539607Y-15227326D01*
X14525321Y-15155898D01*
X14511035Y-15113040D01*
X14496749Y-15084469D01*
X14468178Y-15041612D01*
X14453892Y-15027326D01*
M02*
