  0
SECTION
  2
HEADER
  9
$ACADVER
  1
AC1014
  9
$HANDSEED
  5
FFFF
  9
$MEASUREMENT
 70
     1
  0
ENDSEC
  0
SECTION
  2
TABLES
  0
TABLE
  2
VPORT
  5
8
330
0
100
AcDbSymbolTable
 70
     4
  0
VPORT
  5
2E
330
8
100
AcDbSymbolTableRecord
100
AcDbViewportTableRecord
  2
*ACTIVE
 70
     0
 10
0.0
 20
0.0
 11
1.0
 21
1.0
 12
210.0
 22
148.5
 13
0.0
 23
0.0
 14
10.0
 24
10.0
 15
10.0
 25
10.0
 16
0.0
 26
0.0
 36
1.0
 17
0.0
 27
0.0
 37
0.0
 40
341.0
 41
1.24
 42
50.0
 43
0.0
 44
0.0
 50
0.0
 51
0.0
 71
     0
 72
   100
 73
     1
 74
     3
 75
     0
 76
     0
 77
     0
 78
     0
  0
ENDTAB
  0
TABLE
  2
LTYPE
  5
5
330
0
100
AcDbSymbolTable
 70
     1
  0
LTYPE
  5
14
330
5
100
AcDbSymbolTableRecord
100
AcDbLinetypeTableRecord
  2
BYBLOCK
 70
     0
  3

 72
    65
 73
     0
 40
0.0
  0
LTYPE
  5
15
330
5
100
AcDbSymbolTableRecord
100
AcDbLinetypeTableRecord
  2
BYLAYER
 70
     0
  3

 72
    65
 73
     0
 40
0.0
  0
LTYPE
  5
16
330
5
100
AcDbSymbolTableRecord
100
AcDbLinetypeTableRecord
  2
CONTINUOUS
 70
     0
  3
Solid line
 72
    65
 73
     0
 40
0.0
  0
ENDTAB
  0
TABLE
  2
LAYER
  5
2
100
AcDbSymbolTable
 70
1
  0
LAYER
  5
50
100
AcDbSymbolTableRecord
100
AcDbLayerTableRecord
  2
0
 70
0
  6
CONTINUOUS
  0
ENDTAB
  0
TABLE
  2
STYLE
  5
3
330
0
100
AcDbSymbolTable
 70
     1
  0
STYLE
  5
11
330
3
100
AcDbSymbolTableRecord
100
AcDbTextStyleTableRecord
  2
STANDARD
 70
     0
 40
0.0
 41
1.0
 50
0.0
 71
     0
 42
2.5
  3
txt
  4

  0
ENDTAB
  0
TABLE
  2
VIEW
  5
6
330
0
100
AcDbSymbolTable
 70
     0
  0
ENDTAB
  0
TABLE
  2
UCS
  5
7
330
0
100
AcDbSymbolTable
 70
     0
  0
ENDTAB
  0
TABLE
  2
APPID
  5
9
330
0
100
AcDbSymbolTable
 70
     2
  0
APPID
  5
12
330
9
100
AcDbSymbolTableRecord
100
AcDbRegAppTableRecord
  2
ACAD
 70
     0
  0
ENDTAB
  0
TABLE
  2
DIMSTYLE
  5
A
330
0
100
AcDbSymbolTable
 70
     1
  0
DIMSTYLE
105
27
330
A
100
AcDbSymbolTableRecord
100
AcDbDimStyleTableRecord
  2
ISO-25
 70
     0
  3

  4

  5

  6

  7

 40
1.0
 41
2.5
 42
0.625
 43
3.75
 44
1.25
 45
0.0
 46
0.0
 47
0.0
 48
0.0
140
2.5
141
2.5
142
0.0
143
0.03937007874016
144
1.0
145
0.0
146
1.0
147
0.625
 71
     0
 72
     0
 73
     0
 74
     0
 75
     0
 76
     0
 77
     1
 78
     8
170
     0
171
     3
172
     1
173
     0
174
     0
175
     0
176
     0
177
     0
178
     0
270
     2
271
     2
272
     2
273
     2
274
     3
340
11
275
     0
280
     0
281
     0
282
     0
283
     0
284
     8
285
     0
286
     0
287
     3
288
     0
  0
ENDTAB
  0
TABLE
  2
BLOCK_RECORD
  5
1
330
0
100
AcDbSymbolTable
 70
     1
  0
BLOCK_RECORD
  5
1F
330
1
100
AcDbSymbolTableRecord
100
AcDbBlockTableRecord
  2
*MODEL_SPACE
  0
BLOCK_RECORD
  5
1B
330
1
100
AcDbSymbolTableRecord
100
AcDbBlockTableRecord
  2
*PAPER_SPACE
  0
ENDTAB
  0
ENDSEC
  0
SECTION
  2
BLOCKS
  0
BLOCK
  5
20
330
1F
100
AcDbEntity
  8
0
100
AcDbBlockBegin
  2
*MODEL_SPACE
 70
     0
 10
0.0
 20
0.0
 30
0.0
  3
*MODEL_SPACE
  1

  0
ENDBLK
  5
21
330
1F
100
AcDbEntity
  8
0
100
AcDbBlockEnd
  0
BLOCK
  5
1C
330
1B
100
AcDbEntity
 67
     1
  8
0
100
AcDbBlockBegin
  2
*PAPER_SPACE
  1

  0
ENDBLK
  5
1D
330
1B
100
AcDbEntity
 67
     1
  8
0
100
AcDbBlockEnd
  0
ENDSEC
  0
SECTION
  2
ENTITIES
  0
SPLINE
  5
100
100
AcDbEntity
  8
0
 62
1
100
AcDbSpline
 70
8
 71
3
 72
8
 73
4
 74
0
 40
0
 40
0
 40
0
 40
0
 40
1
 40
1
 40
1
 40
1
 10
176.308705
 20
103.517602
 30
0.0
 10
176.308705
 20
103.366790
 30
0.0
 10
176.240442
 20
103.223914
 30
0.0
 10
176.123231
 20
103.129193
 30
0.0
  0
SPLINE
  5
101
100
AcDbEntity
  8
0
 62
1
100
AcDbSpline
 70
8
 71
3
 72
8
 73
4
 74
0
 40
0
 40
0
 40
0
 40
0
 40
1
 40
1
 40
1
 40
1
 10
176.123231
 20
103.129193
 30
0.0
 10
176.006021
 20
103.034208
 30
0.0
 10
175.852297
 20
102.997431
 30
0.0
 10
175.704659
 20
103.028652
 30
0.0
  0
SPLINE
  5
102
100
AcDbEntity
  8
0
 62
1
100
AcDbSpline
 70
8
 71
3
 72
8
 73
4
 74
0
 40
0
 40
0
 40
0
 40
0
 40
1
 40
1
 40
1
 40
1
 10
175.704659
 20
103.028652
 30
0.0
 10
171.242710
 20
103.977185
 30
0.0
 10
143.435166
 20
109.887722
 30
0.0
 10
139.395757
 20
110.746296
 30
0.0
  0
SPLINE
  5
103
100
AcDbEntity
  8
0
 62
1
100
AcDbSpline
 70
8
 71
3
 72
8
 73
4
 74
0
 40
0
 40
0
 40
0
 40
0
 40
1
 40
1
 40
1
 40
1
 10
139.395757
 20
110.746296
 30
0.0
 10
139.266111
 20
110.774077
 30
0.0
 10
139.152604
 20
110.851865
 30
0.0
 10
139.080373
 20
110.963255
 30
0.0
  0
SPLINE
  5
104
100
AcDbEntity
  8
0
 62
1
100
AcDbSpline
 70
8
 71
3
 72
8
 73
4
 74
0
 40
0
 40
0
 40
0
 40
0
 40
1
 40
1
 40
1
 40
1
 10
139.080373
 20
110.963255
 30
0.0
 10
139.008406
 20
111.074380
 30
0.0
 10
138.983270
 20
111.209847
 30
0.0
 10
139.010787
 20
111.339493
 30
0.0
  0
SPLINE
  5
105
100
AcDbEntity
  8
0
 62
1
100
AcDbSpline
 70
8
 71
3
 72
8
 73
4
 74
0
 40
0
 40
0
 40
0
 40
0
 40
1
 40
1
 40
1
 40
1
 10
139.010787
 20
111.339493
 30
0.0
 10
139.095983
 20
111.740073
 30
0.0
 10
139.215840
 20
112.304166
 30
0.0
 10
139.301036
 20
112.704481
 30
0.0
  0
SPLINE
  5
106
100
AcDbEntity
  8
0
 62
1
100
AcDbSpline
 70
8
 71
3
 72
8
 73
4
 74
0
 40
0
 40
0
 40
0
 40
0
 40
1
 40
1
 40
1
 40
1
 10
139.301036
 20
112.704481
 30
0.0
 10
139.358451
 20
112.974621
 30
0.0
 10
139.185942
 20
113.240263
 30
0.0
 10
138.915801
 20
113.297678
 30
0.0
  0
SPLINE
  5
107
100
AcDbEntity
  8
0
 62
1
100
AcDbSpline
 70
8
 71
3
 72
8
 73
4
 74
0
 40
0
 40
0
 40
0
 40
0
 40
1
 40
1
 40
1
 40
1
 10
138.915801
 20
113.297678
 30
0.0
 10
136.290067
 20
113.855685
 30
0.0
 10
123.885297
 20
116.492527
 30
0.0
 10
121.259563
 20
117.050534
 30
0.0
  0
SPLINE
  5
108
100
AcDbEntity
  8
0
 62
1
100
AcDbSpline
 70
8
 71
3
 72
8
 73
4
 74
0
 40
0
 40
0
 40
0
 40
0
 40
1
 40
1
 40
1
 40
1
 10
121.259563
 20
117.050534
 30
0.0
 10
120.989422
 20
117.107949
 30
0.0
 10
120.816913
 20
117.373591
 30
0.0
 10
120.874328
 20
117.643731
 30
0.0
  0
SPLINE
  5
109
100
AcDbEntity
  8
0
 62
1
100
AcDbSpline
 70
8
 71
3
 72
8
 73
4
 74
0
 40
0
 40
0
 40
0
 40
0
 40
1
 40
1
 40
1
 40
1
 10
120.874328
 20
117.643731
 30
0.0
 10
120.950264
 20
118.000125
 30
0.0
 10
121.052393
 20
118.481403
 30
0.0
 10
121.128329
 20
118.838062
 30
0.0
  0
SPLINE
  5
10a
100
AcDbEntity
  8
0
 62
1
100
AcDbSpline
 70
8
 71
3
 72
8
 73
4
 74
0
 40
0
 40
0
 40
0
 40
0
 40
1
 40
1
 40
1
 40
1
 10
121.128329
 20
118.838062
 30
0.0
 10
121.185744
 20
119.107938
 30
0.0
 10
121.013235
 20
119.373580
 30
0.0
 10
120.743094
 20
119.430994
 30
0.0
  0
SPLINE
  5
10b
100
AcDbEntity
  8
0
 62
1
100
AcDbSpline
 70
8
 71
3
 72
8
 73
4
 74
0
 40
0
 40
0
 40
0
 40
0
 40
1
 40
1
 40
1
 40
1
 10
120.743094
 20
119.430994
 30
0.0
 10
118.073968
 20
119.998262
 30
0.0
 10
105.287932
 20
122.716067
 30
0.0
 10
102.618541
 20
123.283334
 30
0.0
  0
SPLINE
  5
10c
100
AcDbEntity
  8
0
 62
1
100
AcDbSpline
 70
8
 71
3
 72
8
 73
4
 74
0
 40
0
 40
0
 40
0
 40
0
 40
1
 40
1
 40
1
 40
1
 10
102.618541
 20
123.283334
 30
0.0
 10
102.348665
 20
123.340749
 30
0.0
 10
102.083022
 20
123.168505
 30
0.0
 10
102.025608
 20
122.898365
 30
0.0
  0
SPLINE
  5
10d
100
AcDbEntity
  8
0
 62
1
100
AcDbSpline
 70
8
 71
3
 72
8
 73
4
 74
0
 40
0
 40
0
 40
0
 40
0
 40
1
 40
1
 40
1
 40
1
 10
102.025608
 20
122.898365
 30
0.0
 10
101.942264
 20
122.506252
 30
0.0
 10
101.825847
 20
121.958828
 30
0.0
 10
101.742502
 20
121.566715
 30
0.0
  0
SPLINE
  5
10e
100
AcDbEntity
  8
0
 62
1
100
AcDbSpline
 70
8
 71
3
 72
8
 73
4
 74
0
 40
0
 40
0
 40
0
 40
0
 40
1
 40
1
 40
1
 40
1
 10
101.742502
 20
121.566715
 30
0.0
 10
101.685088
 20
121.296575
 30
0.0
 10
101.419710
 20
121.124066
 30
0.0
 10
101.149569
 20
121.181481
 30
0.0
  0
SPLINE
  5
10f
100
AcDbEntity
  8
0
 62
1
100
AcDbSpline
 70
8
 71
3
 72
8
 73
4
 74
0
 40
0
 40
0
 40
0
 40
0
 40
1
 40
1
 40
1
 40
1
 10
101.149569
 20
121.181481
 30
0.0
 10
98.521718
 20
121.740017
 30
0.0
 10
86.100808
 20
124.380299
 30
0.0
 10
83.473222
 20
124.938835
 30
0.0
  0
SPLINE
  5
110
100
AcDbEntity
  8
0
 62
1
100
AcDbSpline
 70
8
 71
3
 72
8
 73
4
 74
0
 40
0
 40
0
 40
0
 40
0
 40
1
 40
1
 40
1
 40
1
 10
83.473222
 20
124.938835
 30
0.0
 10
83.203081
 20
124.996250
 30
0.0
 10
82.937439
 20
124.823741
 30
0.0
 10
82.880024
 20
124.553601
 30
0.0
  0
SPLINE
  5
111
100
AcDbEntity
  8
0
 62
1
100
AcDbSpline
 70
8
 71
3
 72
8
 73
4
 74
0
 40
0
 40
0
 40
0
 40
0
 40
1
 40
1
 40
1
 40
1
 10
82.880024
 20
124.553601
 30
0.0
 10
82.538446
 20
122.946519
 30
0.0
 10
81.452592
 20
117.837935
 30
0.0
 10
81.111013
 20
116.230589
 30
0.0
  0
SPLINE
  5
112
100
AcDbEntity
  8
0
 62
1
100
AcDbSpline
 70
8
 71
3
 72
8
 73
4
 74
0
 40
0
 40
0
 40
0
 40
0
 40
1
 40
1
 40
1
 40
1
 10
81.111013
 20
116.230589
 30
0.0
 10
81.053599
 20
115.960449
 30
0.0
 10
80.787956
 20
115.788205
 30
0.0
 10
80.517815
 20
115.845620
 30
0.0
  0
SPLINE
  5
113
100
AcDbEntity
  8
0
 62
1
100
AcDbSpline
 70
8
 71
3
 72
8
 73
4
 74
0
 40
0
 40
0
 40
0
 40
0
 40
1
 40
1
 40
1
 40
1
 10
80.517815
 20
115.845620
 30
0.0
 10
77.876206
 20
116.407066
 30
0.0
 10
65.333323
 20
119.073013
 30
0.0
 10
62.691714
 20
119.634724
 30
0.0
  0
SPLINE
  5
114
100
AcDbEntity
  8
0
 62
1
100
AcDbSpline
 70
8
 71
3
 72
8
 73
4
 74
0
 40
0
 40
0
 40
0
 40
0
 40
1
 40
1
 40
1
 40
1
 10
62.691714
 20
119.634724
 30
0.0
 10
62.421573
 20
119.692139
 30
0.0
 10
62.156195
 20
119.519630
 30
0.0
 10
62.098780
 20
119.249490
 30
0.0
  0
SPLINE
  5
115
100
AcDbEntity
  8
0
 62
1
100
AcDbSpline
 70
8
 71
3
 72
8
 73
4
 74
0
 40
0
 40
0
 40
0
 40
0
 40
1
 40
1
 40
1
 40
1
 10
62.098780
 20
119.249490
 30
0.0
 10
61.955111
 20
118.574801
 30
0.0
 10
61.698200
 20
117.365653
 30
0.0
 10
61.554795
 20
116.690965
 30
0.0
  0
SPLINE
  5
116
100
AcDbEntity
  8
0
 62
1
100
AcDbSpline
 70
8
 71
3
 72
8
 73
4
 74
0
 40
0
 40
0
 40
0
 40
0
 40
1
 40
1
 40
1
 40
1
 10
61.554795
 20
116.690965
 30
0.0
 10
61.497380
 20
116.420825
 30
0.0
 10
61.231737
 20
116.248316
 30
0.0
 10
60.961861
 20
116.305731
 30
0.0
  0
SPLINE
  5
117
100
AcDbEntity
  8
0
 62
1
100
AcDbSpline
 70
8
 71
3
 72
8
 73
4
 74
0
 40
0
 40
0
 40
0
 40
0
 40
1
 40
1
 40
1
 40
1
 10
60.961861
 20
116.305731
 30
0.0
 10
56.905520
 20
117.168009
 30
0.0
 10
28.887102
 20
123.123261
 30
0.0
 10
24.830760
 20
123.985540
 30
0.0
  0
SPLINE
  5
118
100
AcDbEntity
  8
0
 62
1
100
AcDbSpline
 70
8
 71
3
 72
8
 73
4
 74
0
 40
0
 40
0
 40
0
 40
0
 40
1
 40
1
 40
1
 40
1
 10
24.830760
 20
123.985540
 30
0.0
 10
24.560884
 20
124.042954
 30
0.0
 10
24.295242
 20
123.870446
 30
0.0
 10
24.237827
 20
123.600570
 30
0.0
  0
SPLINE
  5
119
100
AcDbEntity
  8
0
 62
1
100
AcDbSpline
 70
8
 71
3
 72
8
 73
4
 74
0
 40
0
 40
0
 40
0
 40
0
 40
1
 40
1
 40
1
 40
1
 10
24.237827
 20
123.600570
 30
0.0
 10
23.671616
 20
120.935947
 30
0.0
 10
20.962802
 20
108.193063
 30
0.0
 10
20.396592
 20
105.528439
 30
0.0
  0
SPLINE
  5
11a
100
AcDbEntity
  8
0
 62
1
100
AcDbSpline
 70
8
 71
3
 72
8
 73
4
 74
0
 40
0
 40
0
 40
0
 40
0
 40
1
 40
1
 40
1
 40
1
 10
20.396592
 20
105.528439
 30
0.0
 10
20.339177
 20
105.258564
 30
0.0
 10
20.511686
 20
104.992922
 30
0.0
 10
20.781562
 20
104.935507
 30
0.0
  0
SPLINE
  5
11b
100
AcDbEntity
  8
0
 62
1
100
AcDbSpline
 70
8
 71
3
 72
8
 73
4
 74
0
 40
0
 40
0
 40
0
 40
0
 40
1
 40
1
 40
1
 40
1
 10
20.781562
 20
104.935507
 30
0.0
 10
22.394203
 20
104.592871
 30
0.0
 10
27.531901
 20
103.500669
 30
0.0
 10
29.144542
 20
103.158033
 30
0.0
  0
SPLINE
  5
11c
100
AcDbEntity
  8
0
 62
1
100
AcDbSpline
 70
8
 71
3
 72
8
 73
4
 74
0
 40
0
 40
0
 40
0
 40
0
 40
1
 40
1
 40
1
 40
1
 10
29.144542
 20
103.158033
 30
0.0
 10
29.414418
 20
103.100618
 30
0.0
 10
29.586927
 20
102.834976
 30
0.0
 10
29.529513
 20
102.564836
 30
0.0
  0
SPLINE
  5
11d
100
AcDbEntity
  8
0
 62
1
100
AcDbSpline
 70
8
 71
3
 72
8
 73
4
 74
0
 40
0
 40
0
 40
0
 40
0
 40
1
 40
1
 40
1
 40
1
 10
29.529513
 20
102.564836
 30
0.0
 10
28.981558
 20
99.986996
 30
0.0
 10
26.433347
 20
87.997911
 30
0.0
 10
25.885393
 20
85.420071
 30
0.0
  0
SPLINE
  5
11e
100
AcDbEntity
  8
0
 62
1
100
AcDbSpline
 70
8
 71
3
 72
8
 73
4
 74
0
 40
0
 40
0
 40
0
 40
0
 40
1
 40
1
 40
1
 40
1
 10
25.885393
 20
85.420071
 30
0.0
 10
25.827978
 20
85.150196
 30
0.0
 10
25.562336
 20
84.977687
 30
0.0
 10
25.292195
 20
85.035102
 30
0.0
  0
SPLINE
  5
11f
100
AcDbEntity
  8
0
 62
1
100
AcDbSpline
 70
8
 71
3
 72
8
 73
4
 74
0
 40
0
 40
0
 40
0
 40
0
 40
1
 40
1
 40
1
 40
1
 10
25.292195
 20
85.035102
 30
0.0
 10
24.406102
 20
85.223486
 30
0.0
 10
22.544752
 20
85.619038
 30
0.0
 10
21.657336
 20
85.807687
 30
0.0
  0
SPLINE
  5
120
100
AcDbEntity
  8
0
 62
1
100
AcDbSpline
 70
8
 71
3
 72
8
 73
4
 74
0
 40
0
 40
0
 40
0
 40
0
 40
1
 40
1
 40
1
 40
1
 10
21.657336
 20
85.807687
 30
0.0
 10
21.527425
 20
85.835203
 30
0.0
 10
21.391958
 20
85.810068
 30
0.0
 10
21.280568
 20
85.737572
 30
0.0
  0
SPLINE
  5
121
100
AcDbEntity
  8
0
 62
1
100
AcDbSpline
 70
8
 71
3
 72
8
 73
4
 74
0
 40
0
 40
0
 40
0
 40
0
 40
1
 40
1
 40
1
 40
1
 10
21.280568
 20
85.737572
 30
0.0
 10
21.169178
 20
85.665076
 30
0.0
 10
21.091390
 20
85.551040
 30
0.0
 10
21.064138
 20
85.420865
 30
0.0
  0
SPLINE
  5
122
100
AcDbEntity
  8
0
 62
1
100
AcDbSpline
 70
8
 71
3
 72
8
 73
4
 74
0
 40
0
 40
0
 40
0
 40
0
 40
1
 40
1
 40
1
 40
1
 10
21.064138
 20
85.420865
 30
0.0
 10
20.507188
 20
82.759152
 30
0.0
 10
17.855260
 20
70.081091
 30
0.0
 10
17.300162
 20
67.427315
 30
0.0
  0
SPLINE
  5
123
100
AcDbEntity
  8
0
 62
1
100
AcDbSpline
 70
8
 71
3
 72
8
 73
4
 74
0
 40
0
 40
0
 40
0
 40
0
 40
1
 40
1
 40
1
 40
1
 10
17.300162
 20
67.427315
 30
0.0
 10
17.243541
 20
67.157705
 30
0.0
 10
17.416050
 20
66.893121
 30
0.0
 10
17.685661
 20
66.835706
 30
0.0
  0
SPLINE
  5
124
100
AcDbEntity
  8
0
 62
1
100
AcDbSpline
 70
8
 71
3
 72
8
 73
4
 74
0
 40
0
 40
0
 40
0
 40
0
 40
1
 40
1
 40
1
 40
1
 10
17.685661
 20
66.835706
 30
0.0
 10
18.560113
 20
66.649968
 30
0.0
 10
20.386538
 20
66.261824
 30
0.0
 10
21.262312
 20
66.075557
 30
0.0
  0
SPLINE
  5
125
100
AcDbEntity
  8
0
 62
1
100
AcDbSpline
 70
8
 71
3
 72
8
 73
4
 74
0
 40
0
 40
0
 40
0
 40
0
 40
1
 40
1
 40
1
 40
1
 10
21.262312
 20
66.075557
 30
0.0
 10
21.391958
 20
66.048040
 30
0.0
 10
21.505465
 20
65.969988
 30
0.0
 10
21.577696
 20
65.858863
 30
0.0
  0
SPLINE
  5
126
100
AcDbEntity
  8
0
 62
1
100
AcDbSpline
 70
8
 71
3
 72
8
 73
4
 74
0
 40
0
 40
0
 40
0
 40
0
 40
1
 40
1
 40
1
 40
1
 10
21.577696
 20
65.858863
 30
0.0
 10
21.649928
 20
65.747473
 30
0.0
 10
21.675063
 20
65.612271
 30
0.0
 10
21.647282
 20
65.482625
 30
0.0
  0
SPLINE
  5
127
100
AcDbEntity
  8
0
 62
1
100
AcDbSpline
 70
8
 71
3
 72
8
 73
4
 74
0
 40
0
 40
0
 40
0
 40
0
 40
1
 40
1
 40
1
 40
1
 10
21.647282
 20
65.482625
 30
0.0
 10
21.084511
 20
62.834141
 30
0.0
 10
18.406124
 20
50.233073
 30
0.0
 10
17.843089
 20
47.584590
 30
0.0
  0
SPLINE
  5
128
100
AcDbEntity
  8
0
 62
1
100
AcDbSpline
 70
8
 71
3
 72
8
 73
4
 74
0
 40
0
 40
0
 40
0
 40
0
 40
1
 40
1
 40
1
 40
1
 10
17.843089
 20
47.584590
 30
0.0
 10
17.815572
 20
47.454944
 30
0.0
 10
17.840708
 20
47.319741
 30
0.0
 10
17.912939
 20
47.208351
 30
0.0
  0
SPLINE
  5
129
100
AcDbEntity
  8
0
 62
1
100
AcDbSpline
 70
8
 71
3
 72
8
 73
4
 74
0
 40
0
 40
0
 40
0
 40
0
 40
1
 40
1
 40
1
 40
1
 10
17.912939
 20
47.208351
 30
0.0
 10
17.985171
 20
47.097226
 30
0.0
 10
18.098413
 20
47.019174
 30
0.0
 10
18.228324
 20
46.991657
 30
0.0
  0
SPLINE
  5
12a
100
AcDbEntity
  8
0
 62
1
100
AcDbSpline
 70
8
 71
3
 72
8
 73
4
 74
0
 40
0
 40
0
 40
0
 40
0
 40
1
 40
1
 40
1
 40
1
 10
18.228324
 20
46.991657
 30
0.0
 10
19.073141
 20
46.812005
 30
0.0
 10
20.789500
 20
46.447144
 30
0.0
 10
21.564732
 20
46.282573
 30
0.0
  0
SPLINE
  5
12b
100
AcDbEntity
  8
0
 62
1
100
AcDbSpline
 70
8
 71
3
 72
8
 73
4
 74
0
 40
0
 40
0
 40
0
 40
0
 40
1
 40
1
 40
1
 40
1
 10
21.564732
 20
46.282573
 30
0.0
 10
21.795449
 20
46.233360
 30
0.0
 10
21.960550
 20
46.029631
 30
0.0
 10
21.960814
 20
45.793622
 30
0.0
  0
SPLINE
  5
12c
100
AcDbEntity
  8
0
 62
1
100
AcDbSpline
 70
8
 71
3
 72
8
 73
4
 74
0
 40
0
 40
0
 40
0
 40
0
 40
1
 40
1
 40
1
 40
1
 10
21.960814
 20
45.793622
 30
0.0
 10
21.962666
 20
42.886904
 30
0.0
 10
21.973779
 20
25.210855
 30
0.0
 10
21.975896
 20
22.003306
 30
0.0
  0
SPLINE
  5
12d
100
AcDbEntity
  8
0
 62
1
100
AcDbSpline
 70
8
 71
3
 72
8
 73
4
 74
0
 40
0
 40
0
 40
0
 40
0
 40
1
 40
1
 40
1
 40
1
 10
21.975896
 20
22.003306
 30
0.0
 10
21.976160
 20
21.727610
 30
0.0
 10
22.199469
 20
21.504036
 30
0.0
 10
22.475166
 20
21.503772
 30
0.0
  0
SPLINE
  5
12e
100
AcDbEntity
  8
0
 62
1
100
AcDbSpline
 70
8
 71
3
 72
8
 73
4
 74
0
 40
0
 40
0
 40
0
 40
0
 40
1
 40
1
 40
1
 40
1
 10
22.475166
 20
21.503772
 30
0.0
 10
27.510999
 20
21.496628
 30
0.0
 10
69.068195
 20
21.438684
 30
0.0
 10
74.112230
 20
21.431540
 30
0.0
  0
SPLINE
  5
12f
100
AcDbEntity
  8
0
 62
1
100
AcDbSpline
 70
8
 71
3
 72
8
 73
4
 74
0
 40
0
 40
0
 40
0
 40
0
 40
1
 40
1
 40
1
 40
1
 10
74.112230
 20
21.431540
 30
0.0
 10
74.244787
 20
21.431276
 30
0.0
 10
74.372316
 20
21.483928
 30
0.0
 10
74.466244
 20
21.577855
 30
0.0
  0
SPLINE
  5
130
100
AcDbEntity
  8
0
 62
1
100
AcDbSpline
 70
8
 71
3
 72
8
 73
4
 74
0
 40
0
 40
0
 40
0
 40
0
 40
1
 40
1
 40
1
 40
1
 10
74.466244
 20
21.577855
 30
0.0
 10
74.560171
 20
21.671518
 30
0.0
 10
74.612823
 20
21.798783
 30
0.0
 10
74.612823
 20
21.931604
 30
0.0
  0
SPLINE
  5
131
100
AcDbEntity
  8
0
 62
1
100
AcDbSpline
 70
8
 71
3
 72
8
 73
4
 74
0
 40
0
 40
0
 40
0
 40
0
 40
1
 40
1
 40
1
 40
1
 10
74.612823
 20
21.931604
 30
0.0
 10
74.612823
 20
22.885164
 30
0.0
 10
74.612823
 20
24.959236
 30
0.0
 10
74.612823
 20
25.997463
 30
0.0
  0
SPLINE
  5
132
100
AcDbEntity
  8
0
 62
1
100
AcDbSpline
 70
8
 71
3
 72
8
 73
4
 74
0
 40
0
 40
0
 40
0
 40
0
 40
1
 40
1
 40
1
 40
1
 10
74.612823
 20
25.997463
 30
0.0
 10
74.612823
 20
26.148540
 30
0.0
 10
74.681086
 20
26.291415
 30
0.0
 10
74.798297
 20
26.386136
 30
0.0
  0
SPLINE
  5
133
100
AcDbEntity
  8
0
 62
1
100
AcDbSpline
 70
8
 71
3
 72
8
 73
4
 74
0
 40
0
 40
0
 40
0
 40
0
 40
1
 40
1
 40
1
 40
1
 10
74.798297
 20
26.386136
 30
0.0
 10
74.915772
 20
26.481122
 30
0.0
 10
75.069760
 20
26.517899
 30
0.0
 10
75.217398
 20
26.486414
 30
0.0
  0
SPLINE
  5
134
100
AcDbEntity
  8
0
 62
1
100
AcDbSpline
 70
8
 71
3
 72
8
 73
4
 74
0
 40
0
 40
0
 40
0
 40
0
 40
1
 40
1
 40
1
 40
1
 10
75.217398
 20
26.486414
 30
0.0
 10
82.539239
 20
24.922194
 30
0.0
 10
154.030443
 20
9.647508
 30
0.0
 10
160.642405
 20
8.234895
 30
0.0
  0
SPLINE
  5
135
100
AcDbEntity
  8
0
 62
1
100
AcDbSpline
 70
8
 71
3
 72
8
 73
4
 74
0
 40
0
 40
0
 40
0
 40
0
 40
1
 40
1
 40
1
 40
1
 10
160.642405
 20
8.234895
 30
0.0
 10
160.772051
 20
8.207114
 30
0.0
 10
160.907518
 20
8.231984
 30
0.0
 10
161.018908
 20
8.304216
 30
0.0
  0
SPLINE
  5
136
100
AcDbEntity
  8
0
 62
1
100
AcDbSpline
 70
8
 71
3
 72
8
 73
4
 74
0
 40
0
 40
0
 40
0
 40
0
 40
1
 40
1
 40
1
 40
1
 10
161.018908
 20
8.304216
 30
0.0
 10
161.130298
 20
8.376447
 30
0.0
 10
161.208351
 20
8.489954
 30
0.0
 10
161.235867
 20
8.619864
 30
0.0
  0
SPLINE
  5
137
100
AcDbEntity
  8
0
 62
1
100
AcDbSpline
 70
8
 71
3
 72
8
 73
4
 74
0
 40
0
 40
0
 40
0
 40
0
 40
1
 40
1
 40
1
 40
1
 10
161.235867
 20
8.619864
 30
0.0
 10
161.803930
 20
11.291896
 30
0.0
 10
164.524650
 20
24.091930
 30
0.0
 10
165.092448
 20
26.762904
 30
0.0
  0
SPLINE
  5
138
100
AcDbEntity
  8
0
 62
1
100
AcDbSpline
 70
8
 71
3
 72
8
 73
4
 74
0
 40
0
 40
0
 40
0
 40
0
 40
1
 40
1
 40
1
 40
1
 10
165.092448
 20
26.762904
 30
0.0
 10
165.149863
 20
27.032779
 30
0.0
 10
164.977354
 20
27.298421
 30
0.0
 10
164.707213
 20
27.355836
 30
0.0
  0
SPLINE
  5
139
100
AcDbEntity
  8
0
 62
1
100
AcDbSpline
 70
8
 71
3
 72
8
 73
4
 74
0
 40
0
 40
0
 40
0
 40
0
 40
1
 40
1
 40
1
 40
1
 10
164.707213
 20
27.355836
 30
0.0
 10
163.776141
 20
27.553745
 30
0.0
 10
161.758421
 20
27.982635
 30
0.0
 10
160.827085
 20
28.180544
 30
0.0
  0
SPLINE
  5
13a
100
AcDbEntity
  8
0
 62
1
100
AcDbSpline
 70
8
 71
3
 72
8
 73
4
 74
0
 40
0
 40
0
 40
0
 40
0
 40
1
 40
1
 40
1
 40
1
 10
160.827085
 20
28.180544
 30
0.0
 10
160.697438
 20
28.208060
 30
0.0
 10
160.583932
 20
28.286113
 30
0.0
 10
160.511700
 20
28.397238
 30
0.0
  0
SPLINE
  5
13b
100
AcDbEntity
  8
0
 62
1
100
AcDbSpline
 70
8
 71
3
 72
8
 73
4
 74
0
 40
0
 40
0
 40
0
 40
0
 40
1
 40
1
 40
1
 40
1
 10
160.511700
 20
28.397238
 30
0.0
 10
160.439733
 20
28.508628
 30
0.0
 10
160.414598
 20
28.643830
 30
0.0
 10
160.442114
 20
28.773476
 30
0.0
  0
SPLINE
  5
13c
100
AcDbEntity
  8
0
 62
1
100
AcDbSpline
 70
8
 71
3
 72
8
 73
4
 74
0
 40
0
 40
0
 40
0
 40
0
 40
1
 40
1
 40
1
 40
1
 10
160.442114
 20
28.773476
 30
0.0
 10
161.576652
 20
34.111454
 30
0.0
 10
171.636940
 20
81.441260
 30
0.0
 10
172.661940
 20
86.263300
 30
0.0
  0
SPLINE
  5
13d
100
AcDbEntity
  8
0
 62
1
100
AcDbSpline
 70
8
 71
3
 72
8
 73
4
 74
0
 40
0
 40
0
 40
0
 40
0
 40
1
 40
1
 40
1
 40
1
 10
172.661940
 20
86.263300
 30
0.0
 10
172.711152
 20
86.494282
 30
0.0
 10
172.914882
 20
86.659382
 30
0.0
 10
173.151156
 20
86.659382
 30
0.0
  0
SPLINE
  5
13e
100
AcDbEntity
  8
0
 62
1
100
AcDbSpline
 70
8
 71
3
 72
8
 73
4
 74
0
 40
0
 40
0
 40
0
 40
0
 40
1
 40
1
 40
1
 40
1
 10
173.151156
 20
86.659382
 30
0.0
 10
173.806267
 20
86.659382
 30
0.0
 10
175.096909
 20
86.659382
 30
0.0
 10
175.808376
 20
86.659382
 30
0.0
  0
SPLINE
  5
13f
100
AcDbEntity
  8
0
 62
1
100
AcDbSpline
 70
8
 71
3
 72
8
 73
4
 74
0
 40
0
 40
0
 40
0
 40
0
 40
1
 40
1
 40
1
 40
1
 10
175.808376
 20
86.659382
 30
0.0
 10
176.084338
 20
86.659382
 30
0.0
 10
176.308176
 20
86.435544
 30
0.0
 10
176.308176
 20
86.159318
 30
0.0
  0
SPLINE
  5
140
100
AcDbEntity
  8
0
 62
1
100
AcDbSpline
 70
8
 71
3
 72
8
 73
4
 74
0
 40
0
 40
0
 40
0
 40
0
 40
1
 40
1
 40
1
 40
1
 10
176.308176
 20
86.159318
 30
0.0
 10
176.308176
 20
80.876903
 30
0.0
 10
176.308176
 20
35.107083
 30
0.0
 10
176.308176
 20
14.485158
 30
0.0
  0
SPLINE
  5
141
100
AcDbEntity
  8
0
 62
1
100
AcDbSpline
 70
8
 71
3
 72
8
 73
4
 74
0
 40
0
 40
0
 40
0
 40
0
 40
1
 40
1
 40
1
 40
1
 10
176.308176
 20
14.485158
 30
0.0
 10
176.308176
 20
11.832970
 30
0.0
 10
175.254601
 20
9.289526
 30
0.0
 10
173.379228
 20
7.414156
 30
0.0
  0
SPLINE
  5
142
100
AcDbEntity
  8
0
 62
1
100
AcDbSpline
 70
8
 71
3
 72
8
 73
4
 74
0
 40
0
 40
0
 40
0
 40
0
 40
1
 40
1
 40
1
 40
1
 10
173.379228
 20
7.414156
 30
0.0
 10
171.503854
 20
5.538786
 30
0.0
 10
168.960406
 20
4.485213
 30
0.0
 10
166.308213
 20
4.485213
 30
0.0
  0
SPLINE
  5
143
100
AcDbEntity
  8
0
 62
1
100
AcDbSpline
 70
8
 71
3
 72
8
 73
4
 74
0
 40
0
 40
0
 40
0
 40
0
 40
1
 40
1
 40
1
 40
1
 10
166.308213
 20
4.485213
 30
0.0
 10
161.287461
 20
4.485213
 30
0.0
 10
155.653668
 20
4.485213
 30
0.0
 10
152.679476
 20
4.485213
 30
0.0
  0
SPLINE
  5
144
100
AcDbEntity
  8
0
 62
1
100
AcDbSpline
 70
8
 71
3
 72
8
 73
4
 74
0
 40
0
 40
0
 40
0
 40
0
 40
1
 40
1
 40
1
 40
1
 10
152.679476
 20
4.485213
 30
0.0
 10
151.281942
 20
4.485213
 30
0.0
 10
149.888376
 20
4.631528
 30
0.0
 10
148.521269
 20
4.922306
 30
0.0
  0
SPLINE
  5
145
100
AcDbEntity
  8
0
 62
1
100
AcDbSpline
 70
8
 71
3
 72
8
 73
4
 74
0
 40
0
 40
0
 40
0
 40
0
 40
1
 40
1
 40
1
 40
1
 10
148.521269
 20
4.922306
 30
0.0
 10
141.548415
 20
6.404240
 30
0.0
 10
118.847348
 20
11.229454
 30
0.0
 10
111.874493
 20
12.711653
 30
0.0
  0
SPLINE
  5
146
100
AcDbEntity
  8
0
 62
1
100
AcDbSpline
 70
8
 71
3
 72
8
 73
4
 74
0
 40
0
 40
0
 40
0
 40
0
 40
1
 40
1
 40
1
 40
1
 10
111.874493
 20
12.711653
 30
0.0
 10
110.507386
 20
13.002166
 30
0.0
 10
109.113556
 20
13.148745
 30
0.0
 10
107.716022
 20
13.148745
 30
0.0
  0
SPLINE
  5
147
100
AcDbEntity
  8
0
 62
1
100
AcDbSpline
 70
8
 71
3
 72
8
 73
4
 74
0
 40
0
 40
0
 40
0
 40
0
 40
1
 40
1
 40
1
 40
1
 10
107.716022
 20
13.148745
 30
0.0
 10
96.739743
 20
13.148745
 30
0.0
 10
45.676563
 20
13.148745
 30
0.0
 10
23.791738
 20
13.148745
 30
0.0
  0
SPLINE
  5
148
100
AcDbEntity
  8
0
 62
1
100
AcDbSpline
 70
8
 71
3
 72
8
 73
4
 74
0
 40
0
 40
0
 40
0
 40
0
 40
1
 40
1
 40
1
 40
1
 10
23.791738
 20
13.148745
 30
0.0
 10
21.139545
 20
13.148745
 30
0.0
 10
18.596096
 20
14.202318
 30
0.0
 10
16.720723
 20
16.077687
 30
0.0
  0
SPLINE
  5
149
100
AcDbEntity
  8
0
 62
1
100
AcDbSpline
 70
8
 71
3
 72
8
 73
4
 74
0
 40
0
 40
0
 40
0
 40
0
 40
1
 40
1
 40
1
 40
1
 10
16.720723
 20
16.077687
 30
0.0
 10
14.845349
 20
17.953057
 30
0.0
 10
13.791774
 20
20.496501
 30
0.0
 10
13.791774
 20
23.148689
 30
0.0
  0
SPLINE
  5
14a
100
AcDbEntity
  8
0
 62
1
100
AcDbSpline
 70
8
 71
3
 72
8
 73
4
 74
0
 40
0
 40
0
 40
0
 40
0
 40
1
 40
1
 40
1
 40
1
 10
13.791774
 20
23.148689
 30
0.0
 10
13.791774
 20
46.065614
 30
0.0
 10
13.791774
 20
102.163727
 30
0.0
 10
13.791774
 20
125.080652
 30
0.0
  0
SPLINE
  5
14b
100
AcDbEntity
  8
0
 62
1
100
AcDbSpline
 70
8
 71
3
 72
8
 73
4
 74
0
 40
0
 40
0
 40
0
 40
0
 40
1
 40
1
 40
1
 40
1
 10
13.791774
 20
125.080652
 30
0.0
 10
13.791774
 20
127.732840
 30
0.0
 10
14.845349
 20
130.276284
 30
0.0
 10
16.720723
 20
132.151654
 30
0.0
  0
SPLINE
  5
14c
100
AcDbEntity
  8
0
 62
1
100
AcDbSpline
 70
8
 71
3
 72
8
 73
4
 74
0
 40
0
 40
0
 40
0
 40
0
 40
1
 40
1
 40
1
 40
1
 10
16.720723
 20
132.151654
 30
0.0
 10
18.596096
 20
134.027024
 30
0.0
 10
21.139545
 20
135.080596
 30
0.0
 10
23.791738
 20
135.080596
 30
0.0
  0
SPLINE
  5
14d
100
AcDbEntity
  8
0
 62
1
100
AcDbSpline
 70
8
 71
3
 72
8
 73
4
 74
0
 40
0
 40
0
 40
0
 40
0
 40
1
 40
1
 40
1
 40
1
 10
23.791738
 20
135.080596
 30
0.0
 10
53.122758
 20
135.080596
 30
0.0
 10
138.644073
 20
135.080596
 30
0.0
 10
167.038995
 20
135.080596
 30
0.0
  0
SPLINE
  5
14e
100
AcDbEntity
  8
0
 62
1
100
AcDbSpline
 70
8
 71
3
 72
8
 73
4
 74
0
 40
0
 40
0
 40
0
 40
0
 40
1
 40
1
 40
1
 40
1
 10
167.038995
 20
135.080596
 30
0.0
 10
169.501480
 20
135.080596
 30
0.0
 10
171.862895
 20
134.102430
 30
0.0
 10
173.604124
 20
132.361204
 30
0.0
  0
SPLINE
  5
14f
100
AcDbEntity
  8
0
 62
1
100
AcDbSpline
 70
8
 71
3
 72
8
 73
4
 74
0
 40
0
 40
0
 40
0
 40
0
 40
1
 40
1
 40
1
 40
1
 10
173.604124
 20
132.361204
 30
0.0
 10
175.345618
 20
130.619978
 30
0.0
 10
176.323786
 20
128.258303
 30
0.0
 10
176.323786
 20
125.795822
 30
0.0
  0
LWPOLYLINE
  5
150
100
AcDbEntity
  8
0
 62
7
100
AcDbPolyline
 90
4
 70
1
 10
0.000074
 20
147.902062
 30
0.0
 10
199.761150
 20
147.902062
 30
0.0
 10
199.761150
 20
-0.000249
 30
0.0
 10
0.000074
 20
-0.000249
 30
0.0
  0
SPLINE
  5
151
100
AcDbEntity
  8
0
 62
1
100
AcDbSpline
 70
8
 71
3
 72
8
 73
4
 74
0
 40
0
 40
0
 40
0
 40
0
 40
1
 40
1
 40
1
 40
1
 10
176.323786
 20
125.795822
 30
0.0
 10
176.323786
 20
125.795822
 30
0.0
 10
176.311086
 20
107.169653
 30
0.0
 10
176.308705
 20
103.517602
 30
0.0
  0
LWPOLYLINE
  5
152
100
AcDbEntity
  8
0
 62
1
100
AcDbPolyline
 90
1
 70
1
 10
176.323786
 20
125.795822
 30
0.0
  0
SPLINE
  5
153
100
AcDbEntity
  8
0
 62
1
100
AcDbSpline
 70
8
 71
3
 72
8
 73
4
 74
0
 40
0
 40
0
 40
0
 40
0
 40
1
 40
1
 40
1
 40
1
 10
171.308369
 20
128.381076
 30
0.0
 10
170.755021
 20
128.381076
 30
0.0
 10
170.306556
 20
128.828336
 30
0.0
 10
170.306556
 20
129.381259
 30
0.0
  0
SPLINE
  5
154
100
AcDbEntity
  8
0
 62
1
100
AcDbSpline
 70
8
 71
3
 72
8
 73
4
 74
0
 40
0
 40
0
 40
0
 40
0
 40
1
 40
1
 40
1
 40
1
 10
170.306556
 20
129.381259
 30
0.0
 10
170.306556
 20
129.933097
 30
0.0
 10
170.755021
 20
130.381080
 30
0.0
 10
171.308369
 20
130.381080
 30
0.0
  0
SPLINE
  5
155
100
AcDbEntity
  8
0
 62
1
100
AcDbSpline
 70
8
 71
3
 72
8
 73
4
 74
0
 40
0
 40
0
 40
0
 40
0
 40
1
 40
1
 40
1
 40
1
 10
171.308369
 20
130.381080
 30
0.0
 10
171.858101
 20
130.381080
 30
0.0
 10
172.306566
 20
129.933097
 30
0.0
 10
172.306566
 20
129.381259
 30
0.0
  0
SPLINE
  5
156
100
AcDbEntity
  8
0
 62
1
100
AcDbSpline
 70
8
 71
3
 72
8
 73
4
 74
0
 40
0
 40
0
 40
0
 40
0
 40
1
 40
1
 40
1
 40
1
 10
172.306566
 20
129.381259
 30
0.0
 10
172.306566
 20
128.828336
 30
0.0
 10
171.858101
 20
128.381076
 30
0.0
 10
171.308369
 20
128.381076
 30
0.0
  0
LWPOLYLINE
  5
157
100
AcDbEntity
  8
0
 62
1
100
AcDbPolyline
 90
1
 70
1
 10
176.308705
 20
103.517602
 30
0.0
  0
SPLINE
  5
158
100
AcDbEntity
  8
0
 62
1
100
AcDbSpline
 70
8
 71
3
 72
8
 73
4
 74
0
 40
0
 40
0
 40
0
 40
0
 40
1
 40
1
 40
1
 40
1
 10
19.690989
 20
128.381076
 30
0.0
 10
19.137640
 20
128.381076
 30
0.0
 10
18.689175
 20
128.828336
 30
0.0
 10
18.689175
 20
129.381259
 30
0.0
  0
SPLINE
  5
159
100
AcDbEntity
  8
0
 62
1
100
AcDbSpline
 70
8
 71
3
 72
8
 73
4
 74
0
 40
0
 40
0
 40
0
 40
0
 40
1
 40
1
 40
1
 40
1
 10
18.689175
 20
129.381259
 30
0.0
 10
18.689175
 20
129.933097
 30
0.0
 10
19.137640
 20
130.381080
 30
0.0
 10
19.690989
 20
130.381080
 30
0.0
  0
SPLINE
  5
15a
100
AcDbEntity
  8
0
 62
1
100
AcDbSpline
 70
8
 71
3
 72
8
 73
4
 74
0
 40
0
 40
0
 40
0
 40
0
 40
1
 40
1
 40
1
 40
1
 10
19.690989
 20
130.381080
 30
0.0
 10
20.240720
 20
130.381080
 30
0.0
 10
20.689186
 20
129.933097
 30
0.0
 10
20.689186
 20
129.381259
 30
0.0
  0
SPLINE
  5
15b
100
AcDbEntity
  8
0
 62
1
100
AcDbSpline
 70
8
 71
3
 72
8
 73
4
 74
0
 40
0
 40
0
 40
0
 40
0
 40
1
 40
1
 40
1
 40
1
 10
20.689186
 20
129.381259
 30
0.0
 10
20.689186
 20
128.828336
 30
0.0
 10
20.240720
 20
128.381076
 30
0.0
 10
19.690989
 20
128.381076
 30
0.0
  0
LWPOLYLINE
  5
15c
100
AcDbEntity
  8
0
 62
1
100
AcDbPolyline
 90
1
 70
1
 10
171.308369
 20
128.381076
 30
0.0
  0
SPLINE
  5
15d
100
AcDbEntity
  8
0
 62
1
100
AcDbSpline
 70
8
 71
3
 72
8
 73
4
 74
0
 40
0
 40
0
 40
0
 40
0
 40
1
 40
1
 40
1
 40
1
 10
19.690989
 20
17.869587
 30
0.0
 10
19.137640
 20
17.869587
 30
0.0
 10
18.689175
 20
18.316847
 30
0.0
 10
18.689175
 20
18.869770
 30
0.0
  0
SPLINE
  5
15e
100
AcDbEntity
  8
0
 62
1
100
AcDbSpline
 70
8
 71
3
 72
8
 73
4
 74
0
 40
0
 40
0
 40
0
 40
0
 40
1
 40
1
 40
1
 40
1
 10
18.689175
 20
18.869770
 30
0.0
 10
18.689175
 20
19.421607
 30
0.0
 10
19.137640
 20
19.869591
 30
0.0
 10
19.690989
 20
19.869591
 30
0.0
  0
SPLINE
  5
15f
100
AcDbEntity
  8
0
 62
1
100
AcDbSpline
 70
8
 71
3
 72
8
 73
4
 74
0
 40
0
 40
0
 40
0
 40
0
 40
1
 40
1
 40
1
 40
1
 10
19.690989
 20
19.869591
 30
0.0
 10
20.240720
 20
19.869591
 30
0.0
 10
20.689186
 20
19.421607
 30
0.0
 10
20.689186
 20
18.869770
 30
0.0
  0
SPLINE
  5
160
100
AcDbEntity
  8
0
 62
1
100
AcDbSpline
 70
8
 71
3
 72
8
 73
4
 74
0
 40
0
 40
0
 40
0
 40
0
 40
1
 40
1
 40
1
 40
1
 10
20.689186
 20
18.869770
 30
0.0
 10
20.689186
 20
18.316847
 30
0.0
 10
20.240720
 20
17.869587
 30
0.0
 10
19.690989
 20
17.869587
 30
0.0
  0
LWPOLYLINE
  5
161
100
AcDbEntity
  8
0
 62
1
100
AcDbPolyline
 90
1
 70
1
 10
19.690989
 20
128.381076
 30
0.0
  0
SPLINE
  5
162
100
AcDbEntity
  8
0
 62
1
100
AcDbSpline
 70
8
 71
3
 72
8
 73
4
 74
0
 40
0
 40
0
 40
0
 40
0
 40
1
 40
1
 40
1
 40
1
 10
171.308369
 20
12.484698
 30
0.0
 10
170.755021
 20
12.484698
 30
0.0
 10
170.306556
 20
12.931958
 30
0.0
 10
170.306556
 20
13.484881
 30
0.0
  0
SPLINE
  5
163
100
AcDbEntity
  8
0
 62
1
100
AcDbSpline
 70
8
 71
3
 72
8
 73
4
 74
0
 40
0
 40
0
 40
0
 40
0
 40
1
 40
1
 40
1
 40
1
 10
170.306556
 20
13.484881
 30
0.0
 10
170.306556
 20
14.036719
 30
0.0
 10
170.755021
 20
14.484702
 30
0.0
 10
171.308369
 20
14.484702
 30
0.0
  0
SPLINE
  5
164
100
AcDbEntity
  8
0
 62
1
100
AcDbSpline
 70
8
 71
3
 72
8
 73
4
 74
0
 40
0
 40
0
 40
0
 40
0
 40
1
 40
1
 40
1
 40
1
 10
171.308369
 20
14.484702
 30
0.0
 10
171.858101
 20
14.484702
 30
0.0
 10
172.306566
 20
14.036719
 30
0.0
 10
172.306566
 20
13.484881
 30
0.0
  0
SPLINE
  5
165
100
AcDbEntity
  8
0
 62
1
100
AcDbSpline
 70
8
 71
3
 72
8
 73
4
 74
0
 40
0
 40
0
 40
0
 40
0
 40
1
 40
1
 40
1
 40
1
 10
172.306566
 20
13.484881
 30
0.0
 10
172.306566
 20
12.931958
 30
0.0
 10
171.858101
 20
12.484698
 30
0.0
 10
171.308369
 20
12.484698
 30
0.0
  0
LWPOLYLINE
  5
166
100
AcDbEntity
  8
0
 62
1
100
AcDbPolyline
 90
1
 70
1
 10
19.690989
 20
17.869587
 30
0.0
  0
SPLINE
  5
167
100
AcDbEntity
  8
0
 62
1
100
AcDbSpline
 70
8
 71
3
 72
8
 73
4
 74
0
 40
0
 40
0
 40
0
 40
0
 40
1
 40
1
 40
1
 40
1
 10
167.588314
 20
53.412053
 30
0.0
 10
167.034966
 20
53.412053
 30
0.0
 10
166.586501
 20
53.859313
 30
0.0
 10
166.586501
 20
54.412236
 30
0.0
  0
SPLINE
  5
168
100
AcDbEntity
  8
0
 62
1
100
AcDbSpline
 70
8
 71
3
 72
8
 73
4
 74
0
 40
0
 40
0
 40
0
 40
0
 40
1
 40
1
 40
1
 40
1
 10
166.586501
 20
54.412236
 30
0.0
 10
166.586501
 20
54.964074
 30
0.0
 10
167.034966
 20
55.412057
 30
0.0
 10
167.588314
 20
55.412057
 30
0.0
  0
SPLINE
  5
169
100
AcDbEntity
  8
0
 62
1
100
AcDbSpline
 70
8
 71
3
 72
8
 73
4
 74
0
 40
0
 40
0
 40
0
 40
0
 40
1
 40
1
 40
1
 40
1
 10
167.588314
 20
55.412057
 30
0.0
 10
168.138046
 20
55.412057
 30
0.0
 10
168.586511
 20
54.964074
 30
0.0
 10
168.586511
 20
54.412236
 30
0.0
  0
SPLINE
  5
16a
100
AcDbEntity
  8
0
 62
1
100
AcDbSpline
 70
8
 71
3
 72
8
 73
4
 74
0
 40
0
 40
0
 40
0
 40
0
 40
1
 40
1
 40
1
 40
1
 10
168.586511
 20
54.412236
 30
0.0
 10
168.586511
 20
53.859313
 30
0.0
 10
168.138046
 20
53.412053
 30
0.0
 10
167.588314
 20
53.412053
 30
0.0
  0
LWPOLYLINE
  5
16b
100
AcDbEntity
  8
0
 62
1
100
AcDbPolyline
 90
1
 70
1
 10
171.308369
 20
12.484698
 30
0.0
  0
SPLINE
  5
16c
100
AcDbEntity
  8
0
 62
1
100
AcDbSpline
 70
8
 71
3
 72
8
 73
4
 74
0
 40
0
 40
0
 40
0
 40
0
 40
1
 40
1
 40
1
 40
1
 10
165.754745
 20
44.980033
 30
0.0
 10
165.201397
 20
44.980033
 30
0.0
 10
164.752932
 20
45.427292
 30
0.0
 10
164.752932
 20
45.980216
 30
0.0
  0
SPLINE
  5
16d
100
AcDbEntity
  8
0
 62
1
100
AcDbSpline
 70
8
 71
3
 72
8
 73
4
 74
0
 40
0
 40
0
 40
0
 40
0
 40
1
 40
1
 40
1
 40
1
 10
164.752932
 20
45.980216
 30
0.0
 10
164.752932
 20
46.532053
 30
0.0
 10
165.201397
 20
46.980037
 30
0.0
 10
165.754745
 20
46.980037
 30
0.0
  0
SPLINE
  5
16e
100
AcDbEntity
  8
0
 62
1
100
AcDbSpline
 70
8
 71
3
 72
8
 73
4
 74
0
 40
0
 40
0
 40
0
 40
0
 40
1
 40
1
 40
1
 40
1
 10
165.754745
 20
46.980037
 30
0.0
 10
166.304477
 20
46.980037
 30
0.0
 10
166.752942
 20
46.532053
 30
0.0
 10
166.752942
 20
45.980216
 30
0.0
  0
SPLINE
  5
16f
100
AcDbEntity
  8
0
 62
1
100
AcDbSpline
 70
8
 71
3
 72
8
 73
4
 74
0
 40
0
 40
0
 40
0
 40
0
 40
1
 40
1
 40
1
 40
1
 10
166.752942
 20
45.980216
 30
0.0
 10
166.752942
 20
45.427292
 30
0.0
 10
166.304477
 20
44.980033
 30
0.0
 10
165.754745
 20
44.980033
 30
0.0
  0
LWPOLYLINE
  5
170
100
AcDbEntity
  8
0
 62
1
100
AcDbPolyline
 90
1
 70
1
 10
167.588314
 20
53.412053
 30
0.0
  0
SPLINE
  5
171
100
AcDbEntity
  8
0
 62
1
100
AcDbSpline
 70
8
 71
3
 72
8
 73
4
 74
0
 40
0
 40
0
 40
0
 40
0
 40
1
 40
1
 40
1
 40
1
 10
164.310115
 20
12.484698
 30
0.0
 10
163.756767
 20
12.484698
 30
0.0
 10
163.308301
 20
12.931958
 30
0.0
 10
163.308301
 20
13.484881
 30
0.0
  0
SPLINE
  5
172
100
AcDbEntity
  8
0
 62
1
100
AcDbSpline
 70
8
 71
3
 72
8
 73
4
 74
0
 40
0
 40
0
 40
0
 40
0
 40
1
 40
1
 40
1
 40
1
 10
163.308301
 20
13.484881
 30
0.0
 10
163.308301
 20
14.036719
 30
0.0
 10
163.756767
 20
14.484702
 30
0.0
 10
164.310115
 20
14.484702
 30
0.0
  0
SPLINE
  5
173
100
AcDbEntity
  8
0
 62
1
100
AcDbSpline
 70
8
 71
3
 72
8
 73
4
 74
0
 40
0
 40
0
 40
0
 40
0
 40
1
 40
1
 40
1
 40
1
 10
164.310115
 20
14.484702
 30
0.0
 10
164.859847
 20
14.484702
 30
0.0
 10
165.308312
 20
14.036719
 30
0.0
 10
165.308312
 20
13.484881
 30
0.0
  0
SPLINE
  5
174
100
AcDbEntity
  8
0
 62
1
100
AcDbSpline
 70
8
 71
3
 72
8
 73
4
 74
0
 40
0
 40
0
 40
0
 40
0
 40
1
 40
1
 40
1
 40
1
 10
165.308312
 20
13.484881
 30
0.0
 10
165.308312
 20
12.931958
 30
0.0
 10
164.859847
 20
12.484698
 30
0.0
 10
164.310115
 20
12.484698
 30
0.0
  0
LWPOLYLINE
  5
175
100
AcDbEntity
  8
0
 62
1
100
AcDbPolyline
 90
1
 70
1
 10
165.754745
 20
44.980033
 30
0.0
  0
SPLINE
  5
176
100
AcDbEntity
  8
0
 62
1
100
AcDbSpline
 70
8
 71
3
 72
8
 73
4
 74
0
 40
0
 40
0
 40
0
 40
0
 40
1
 40
1
 40
1
 40
1
 10
164.310115
 20
128.381076
 30
0.0
 10
163.756767
 20
128.381076
 30
0.0
 10
163.308301
 20
128.828336
 30
0.0
 10
163.308301
 20
129.381259
 30
0.0
  0
SPLINE
  5
177
100
AcDbEntity
  8
0
 62
1
100
AcDbSpline
 70
8
 71
3
 72
8
 73
4
 74
0
 40
0
 40
0
 40
0
 40
0
 40
1
 40
1
 40
1
 40
1
 10
163.308301
 20
129.381259
 30
0.0
 10
163.308301
 20
129.933097
 30
0.0
 10
163.756767
 20
130.381080
 30
0.0
 10
164.310115
 20
130.381080
 30
0.0
  0
SPLINE
  5
178
100
AcDbEntity
  8
0
 62
1
100
AcDbSpline
 70
8
 71
3
 72
8
 73
4
 74
0
 40
0
 40
0
 40
0
 40
0
 40
1
 40
1
 40
1
 40
1
 10
164.310115
 20
130.381080
 30
0.0
 10
164.859847
 20
130.381080
 30
0.0
 10
165.308312
 20
129.933097
 30
0.0
 10
165.308312
 20
129.381259
 30
0.0
  0
SPLINE
  5
179
100
AcDbEntity
  8
0
 62
1
100
AcDbSpline
 70
8
 71
3
 72
8
 73
4
 74
0
 40
0
 40
0
 40
0
 40
0
 40
1
 40
1
 40
1
 40
1
 10
165.308312
 20
129.381259
 30
0.0
 10
165.308312
 20
128.828336
 30
0.0
 10
164.859847
 20
128.381076
 30
0.0
 10
164.310115
 20
128.381076
 30
0.0
  0
LWPOLYLINE
  5
17a
100
AcDbEntity
  8
0
 62
1
100
AcDbPolyline
 90
1
 70
1
 10
164.310115
 20
12.484698
 30
0.0
  0
SPLINE
  5
17b
100
AcDbEntity
  8
0
 62
1
100
AcDbSpline
 70
8
 71
3
 72
8
 73
4
 74
0
 40
0
 40
0
 40
0
 40
0
 40
1
 40
1
 40
1
 40
1
 10
26.638972
 20
128.381076
 30
0.0
 10
26.085624
 20
128.381076
 30
0.0
 10
25.637158
 20
128.828336
 30
0.0
 10
25.637158
 20
129.381259
 30
0.0
  0
SPLINE
  5
17c
100
AcDbEntity
  8
0
 62
1
100
AcDbSpline
 70
8
 71
3
 72
8
 73
4
 74
0
 40
0
 40
0
 40
0
 40
0
 40
1
 40
1
 40
1
 40
1
 10
25.637158
 20
129.381259
 30
0.0
 10
25.637158
 20
129.933097
 30
0.0
 10
26.085624
 20
130.381080
 30
0.0
 10
26.638972
 20
130.381080
 30
0.0
  0
SPLINE
  5
17d
100
AcDbEntity
  8
0
 62
1
100
AcDbSpline
 70
8
 71
3
 72
8
 73
4
 74
0
 40
0
 40
0
 40
0
 40
0
 40
1
 40
1
 40
1
 40
1
 10
26.638972
 20
130.381080
 30
0.0
 10
27.188704
 20
130.381080
 30
0.0
 10
27.637169
 20
129.933097
 30
0.0
 10
27.637169
 20
129.381259
 30
0.0
  0
SPLINE
  5
17e
100
AcDbEntity
  8
0
 62
1
100
AcDbSpline
 70
8
 71
3
 72
8
 73
4
 74
0
 40
0
 40
0
 40
0
 40
0
 40
1
 40
1
 40
1
 40
1
 10
27.637169
 20
129.381259
 30
0.0
 10
27.637169
 20
128.828336
 30
0.0
 10
27.188704
 20
128.381076
 30
0.0
 10
26.638972
 20
128.381076
 30
0.0
  0
LWPOLYLINE
  5
17f
100
AcDbEntity
  8
0
 62
1
100
AcDbPolyline
 90
1
 70
1
 10
164.310115
 20
128.381076
 30
0.0
  0
SPLINE
  5
180
100
AcDbEntity
  8
0
 62
1
100
AcDbSpline
 70
8
 71
3
 72
8
 73
4
 74
0
 40
0
 40
0
 40
0
 40
0
 40
1
 40
1
 40
1
 40
1
 10
26.638972
 20
17.869587
 30
0.0
 10
26.085624
 20
17.869587
 30
0.0
 10
25.637158
 20
18.316847
 30
0.0
 10
25.637158
 20
18.869770
 30
0.0
  0
SPLINE
  5
181
100
AcDbEntity
  8
0
 62
1
100
AcDbSpline
 70
8
 71
3
 72
8
 73
4
 74
0
 40
0
 40
0
 40
0
 40
0
 40
1
 40
1
 40
1
 40
1
 10
25.637158
 20
18.869770
 30
0.0
 10
25.637158
 20
19.421607
 30
0.0
 10
26.085624
 20
19.869591
 30
0.0
 10
26.638972
 20
19.869591
 30
0.0
  0
SPLINE
  5
182
100
AcDbEntity
  8
0
 62
1
100
AcDbSpline
 70
8
 71
3
 72
8
 73
4
 74
0
 40
0
 40
0
 40
0
 40
0
 40
1
 40
1
 40
1
 40
1
 10
26.638972
 20
19.869591
 30
0.0
 10
27.188704
 20
19.869591
 30
0.0
 10
27.637169
 20
19.421607
 30
0.0
 10
27.637169
 20
18.869770
 30
0.0
  0
SPLINE
  5
183
100
AcDbEntity
  8
0
 62
1
100
AcDbSpline
 70
8
 71
3
 72
8
 73
4
 74
0
 40
0
 40
0
 40
0
 40
0
 40
1
 40
1
 40
1
 40
1
 10
27.637169
 20
18.869770
 30
0.0
 10
27.637169
 20
18.316847
 30
0.0
 10
27.188704
 20
17.869587
 30
0.0
 10
26.638972
 20
17.869587
 30
0.0
  0
LWPOLYLINE
  5
184
100
AcDbEntity
  8
0
 62
1
100
AcDbPolyline
 90
1
 70
1
 10
26.638972
 20
128.381076
 30
0.0
  0
SPLINE
  5
185
100
AcDbEntity
  8
0
 62
1
100
AcDbSpline
 70
8
 71
3
 72
8
 73
4
 74
0
 40
0
 40
0
 40
0
 40
0
 40
1
 40
1
 40
1
 40
1
 10
171.308369
 20
65.484747
 30
0.0
 10
170.755021
 20
65.484747
 30
0.0
 10
170.306556
 20
65.932007
 30
0.0
 10
170.306556
 20
66.484930
 30
0.0
  0
SPLINE
  5
186
100
AcDbEntity
  8
0
 62
1
100
AcDbSpline
 70
8
 71
3
 72
8
 73
4
 74
0
 40
0
 40
0
 40
0
 40
0
 40
1
 40
1
 40
1
 40
1
 10
170.306556
 20
66.484930
 30
0.0
 10
170.306556
 20
67.036768
 30
0.0
 10
170.755021
 20
67.484751
 30
0.0
 10
171.308369
 20
67.484751
 30
0.0
  0
SPLINE
  5
187
100
AcDbEntity
  8
0
 62
1
100
AcDbSpline
 70
8
 71
3
 72
8
 73
4
 74
0
 40
0
 40
0
 40
0
 40
0
 40
1
 40
1
 40
1
 40
1
 10
171.308369
 20
67.484751
 30
0.0
 10
171.858101
 20
67.484751
 30
0.0
 10
172.306566
 20
67.036768
 30
0.0
 10
172.306566
 20
66.484930
 30
0.0
  0
SPLINE
  5
188
100
AcDbEntity
  8
0
 62
1
100
AcDbSpline
 70
8
 71
3
 72
8
 73
4
 74
0
 40
0
 40
0
 40
0
 40
0
 40
1
 40
1
 40
1
 40
1
 10
172.306566
 20
66.484930
 30
0.0
 10
172.306566
 20
65.932007
 30
0.0
 10
171.858101
 20
65.484747
 30
0.0
 10
171.308369
 20
65.484747
 30
0.0
  0
LWPOLYLINE
  5
189
100
AcDbEntity
  8
0
 62
1
100
AcDbPolyline
 90
1
 70
1
 10
26.638972
 20
17.869587
 30
0.0
  0
LWPOLYLINE
  5
18a
100
AcDbEntity
  8
0
 62
1
100
AcDbPolyline
 90
1
 70
1
 10
171.308369
 20
65.484747
 30
0.0
  0
ENDSEC
  0
SECTION
  2
OBJECTS
  0
DICTIONARY
  5
C
330
0
100
AcDbDictionary
  3
ACAD_GROUP
350
D
  3
ACAD_MLINESTYLE
350
17
  0
DICTIONARY
  5
D
330
C
100
AcDbDictionary
  0
DICTIONARY
  5
1A
330
C
100
AcDbDictionary
  0
DICTIONARY
  5
17
330
C
100
AcDbDictionary
  3
STANDARD
350
18
  0
DICTIONARY
  5
19
330
C
100
AcDbDictionary
  0
ENDSEC
  0
EOF
