<?xml version="1.0" encoding="UTF-8" standalone="no"?>
<!DOCTYPE svg PUBLIC "-//W3C//DTD SVG 1.1//EN" "http://www.w3.org/Graphics/SVG/1.1/DTD/svg11.dtd">
<svg width="100%" height="100%" viewBox="0 0 662 559" version="1.1" xmlns="http://www.w3.org/2000/svg" xmlns:xlink="http://www.w3.org/1999/xlink" xml:space="preserve" xmlns:serif="http://www.serif.com/" style="fill-rule:evenodd;clip-rule:evenodd;stroke-linecap:square;stroke-linejoin:round;stroke-miterlimit:1.5;">
    <g id="アートボード1" transform="matrix(0.986587,0,0,1.18182,-61.1684,-46.0909)">
        <rect x="62" y="39" width="671" height="473" style="fill:none;"/>
        <g id="Split-Left-Top" serif:id="Split Left Top" transform="matrix(1.0136,0,0,0.846154,62,39)">
            <g opacity="0.59">
                <path id="内形（丸かど）" d="M612.359,167.751C612.359,168.321 612.102,168.861 611.659,169.22C611.216,169.578 610.634,169.718 610.077,169.599C593.207,166.014 488.115,143.676 472.848,140.431C472.358,140.326 471.929,140.032 471.656,139.611C471.384,139.191 471.289,138.679 471.393,138.189C471.715,136.675 472.168,134.543 472.49,133.03C472.707,132.009 472.055,131.005 471.034,130.788C461.11,128.679 414.226,118.713 404.302,116.604C403.281,116.387 402.629,115.383 402.846,114.362C403.133,113.015 403.519,111.196 403.806,109.848C404.023,108.828 403.371,107.824 402.35,107.607C392.262,105.463 343.937,95.191 333.848,93.047C332.828,92.83 331.824,93.481 331.607,94.502C331.292,95.984 330.852,98.053 330.537,99.535C330.32,100.556 329.317,101.208 328.296,100.991C318.364,98.88 271.419,88.901 261.488,86.79C260.467,86.573 259.463,87.225 259.246,88.246C257.955,94.32 253.851,113.628 252.56,119.703C252.343,120.724 251.339,121.375 250.318,121.158C240.334,119.036 192.928,108.96 182.944,106.837C181.923,106.62 180.92,107.272 180.703,108.293C180.16,110.843 179.189,115.413 178.647,117.963C178.43,118.984 177.426,119.636 176.406,119.419C161.075,116.16 55.179,93.652 39.848,90.393C38.828,90.176 37.824,90.828 37.607,91.848C35.467,101.919 25.229,150.081 23.089,160.152C22.872,161.172 23.524,162.176 24.544,162.393C30.639,163.688 50.057,167.816 56.152,169.111C57.172,169.328 57.824,170.332 57.607,171.353C55.536,181.096 45.905,226.409 43.834,236.152C43.617,237.172 42.613,237.824 41.592,237.607C38.243,236.895 31.208,235.4 27.854,234.687C27.363,234.583 26.851,234.678 26.43,234.952C26.009,235.226 25.715,235.657 25.612,236.149C23.507,246.209 13.484,294.126 11.386,304.156C11.172,305.175 11.824,306.175 12.843,306.392C16.148,307.094 23.051,308.561 26.361,309.265C26.851,309.369 27.28,309.664 27.553,310.084C27.826,310.505 27.921,311.016 27.816,311.506C25.689,321.516 15.566,369.142 13.438,379.152C13.334,379.642 13.429,380.153 13.702,380.574C13.975,380.994 14.403,381.289 14.894,381.393C18.087,382.072 24.574,383.451 27.504,384.073C28.376,384.259 29,385.029 29.001,385.921C29.008,396.907 29.05,463.714 29.058,475.837C29.059,476.879 29.903,477.724 30.945,477.725C49.978,477.752 207.044,477.971 226.108,477.998C226.609,477.999 227.091,477.8 227.446,477.445C227.801,477.091 228,476.61 228,476.108C228,472.504 228,464.665 228,460.741C228,460.17 228.258,459.63 228.701,459.272C229.145,458.913 229.727,458.774 230.285,458.893C257.958,464.805 528.16,522.536 553.15,527.875C553.64,527.98 554.152,527.886 554.573,527.613C554.994,527.34 555.289,526.911 555.393,526.42C557.54,516.321 567.823,467.943 569.969,457.848C570.186,456.828 569.534,455.824 568.513,455.607C564.995,454.859 557.374,453.239 553.853,452.491C553.362,452.387 552.933,452.091 552.66,451.67C552.387,451.249 552.293,450.736 552.398,450.245C557.064,428.543 601.247,223.048 605.451,203.493C605.638,202.622 606.408,202 607.299,202C608.244,202 609.464,202 610.47,202C611.513,202 612.359,202.846 612.359,203.89C612.359,224.837 612.359,414.433 612.359,496.693C612.359,517.567 595.438,534.488 574.564,534.488C558.485,534.488 541.254,534.488 531.633,534.488C526.557,534.488 521.495,533.977 516.521,532.962C493.217,528.208 422.078,513.694 398.774,508.939C393.801,507.924 388.738,507.413 383.663,507.413C340.659,507.413 127.424,507.413 39.701,507.413C18.827,507.413 1.906,490.492 1.906,469.618C1.906,383.622 1.906,174.14 1.906,88.144C1.906,78.12 5.888,68.507 12.976,61.419C20.063,54.331 29.677,50.349 39.701,50.349C149.095,50.349 465.169,50.349 574.564,50.349C584.588,50.349 594.201,54.331 601.289,61.419C608.377,68.507 612.359,78.12 612.359,88.144C612.359,118.581 612.359,157.869 612.359,167.751Z" style="fill:rgb(255,191,253);stroke:rgb(250,66,0);stroke-width:1.89px;"/>
                <g transform="matrix(6.80956e-17,1.36766,-1.36692,5.23334e-16,2083.61,-461.596)">
                    <path d="M391.454,1090.15C391.454,1091.68 390.218,1092.92 388.69,1092.92C387.165,1092.92 385.927,1091.68 385.927,1090.15C385.927,1088.63 387.165,1087.39 388.69,1087.39C390.218,1087.39 391.454,1088.63 391.454,1090.15Z" style="fill:none;stroke:rgb(250,66,0);stroke-width:1.38px;stroke-linecap:round;stroke-miterlimit:2;"/>
                </g>
                <g transform="matrix(6.80956e-17,1.36766,-1.36692,5.23334e-16,1510.57,-461.596)">
                    <path d="M391.454,1090.15C391.454,1091.68 390.218,1092.92 388.69,1092.92C387.165,1092.92 385.927,1091.68 385.927,1090.15C385.927,1088.63 387.165,1087.39 388.69,1087.39C390.218,1087.39 391.454,1088.63 391.454,1090.15Z" style="fill:none;stroke:rgb(250,66,0);stroke-width:1.38px;stroke-linecap:round;stroke-miterlimit:2;"/>
                </g>
                <g transform="matrix(6.80956e-17,1.36766,-1.36692,5.23334e-16,1510.57,-43.9155)">
                    <path d="M391.454,1090.15C391.454,1091.68 390.218,1092.92 388.69,1092.92C387.165,1092.92 385.927,1091.68 385.927,1090.15C385.927,1088.63 387.165,1087.39 388.69,1087.39C390.218,1087.39 391.454,1088.63 391.454,1090.15Z" style="fill:none;stroke:rgb(250,66,0);stroke-width:1.38px;stroke-linecap:round;stroke-miterlimit:2;"/>
                </g>
                <g transform="matrix(6.80956e-17,1.36766,-1.36692,5.23334e-16,2083.61,-23.5632)">
                    <path d="M391.454,1090.15C391.454,1091.68 390.218,1092.92 388.69,1092.92C387.165,1092.92 385.927,1091.68 385.927,1090.15C385.927,1088.63 387.165,1087.39 388.69,1087.39C390.218,1087.39 391.454,1088.63 391.454,1090.15Z" style="fill:none;stroke:rgb(250,66,0);stroke-width:1.38px;stroke-linecap:round;stroke-miterlimit:2;"/>
                </g>
                <g transform="matrix(6.80956e-17,1.36766,-1.36692,5.23334e-16,2069.55,-178.249)">
                    <path d="M391.454,1090.15C391.454,1091.68 390.218,1092.92 388.69,1092.92C387.165,1092.92 385.927,1091.68 385.927,1090.15C385.927,1088.63 387.165,1087.39 388.69,1087.39C390.218,1087.39 391.454,1088.63 391.454,1090.15Z" style="fill:none;stroke:rgb(250,66,0);stroke-width:1.38px;stroke-linecap:round;stroke-miterlimit:2;"/>
                </g>
                <g transform="matrix(6.80956e-17,1.36766,-1.36692,5.23334e-16,2062.62,-146.38)">
                    <path d="M391.454,1090.15C391.454,1091.68 390.218,1092.92 388.69,1092.92C387.165,1092.92 385.927,1091.68 385.927,1090.15C385.927,1088.63 387.165,1087.39 388.69,1087.39C390.218,1087.39 391.454,1088.63 391.454,1090.15Z" style="fill:none;stroke:rgb(250,66,0);stroke-width:1.38px;stroke-linecap:round;stroke-miterlimit:2;"/>
                </g>
                <g transform="matrix(6.80956e-17,1.36766,-1.36692,5.23334e-16,2057.16,-23.5632)">
                    <path d="M391.454,1090.15C391.454,1091.68 390.218,1092.92 388.69,1092.92C387.165,1092.92 385.927,1091.68 385.927,1090.15C385.927,1088.63 387.165,1087.39 388.69,1087.39C390.218,1087.39 391.454,1088.63 391.454,1090.15Z" style="fill:none;stroke:rgb(250,66,0);stroke-width:1.38px;stroke-linecap:round;stroke-miterlimit:2;"/>
                </g>
                <g transform="matrix(6.80956e-17,1.36766,-1.36692,5.23334e-16,2057.16,-461.596)">
                    <path d="M391.454,1090.15C391.454,1091.68 390.218,1092.92 388.69,1092.92C387.165,1092.92 385.927,1091.68 385.927,1090.15C385.927,1088.63 387.165,1087.39 388.69,1087.39C390.218,1087.39 391.454,1088.63 391.454,1090.15Z" style="fill:none;stroke:rgb(250,66,0);stroke-width:1.38px;stroke-linecap:round;stroke-miterlimit:2;"/>
                </g>
                <g transform="matrix(6.80956e-17,1.36766,-1.36692,5.23334e-16,1536.83,-461.596)">
                    <path d="M391.454,1090.15C391.454,1091.68 390.218,1092.92 388.69,1092.92C387.165,1092.92 385.927,1091.68 385.927,1090.15C385.927,1088.63 387.165,1087.39 388.69,1087.39C390.218,1087.39 391.454,1088.63 391.454,1090.15Z" style="fill:none;stroke:rgb(250,66,0);stroke-width:1.38px;stroke-linecap:round;stroke-miterlimit:2;"/>
                </g>
                <g transform="matrix(6.80956e-17,1.36766,-1.36692,5.23334e-16,1536.83,-43.9155)">
                    <path d="M391.454,1090.15C391.454,1091.68 390.218,1092.92 388.69,1092.92C387.165,1092.92 385.927,1091.68 385.927,1090.15C385.927,1088.63 387.165,1087.39 388.69,1087.39C390.218,1087.39 391.454,1088.63 391.454,1090.15Z" style="fill:none;stroke:rgb(250,66,0);stroke-width:1.38px;stroke-linecap:round;stroke-miterlimit:2;"/>
                </g>
                <g transform="matrix(6.80956e-17,1.36766,-1.36692,5.23334e-16,2083.61,-223.878)">
                    <path d="M391.454,1090.15C391.454,1091.68 390.218,1092.92 388.69,1092.92C387.165,1092.92 385.927,1091.68 385.927,1090.15C385.927,1088.63 387.165,1087.39 388.69,1087.39C390.218,1087.39 391.454,1088.63 391.454,1090.15Z" style="fill:none;stroke:rgb(250,66,0);stroke-width:1.38px;stroke-linecap:round;stroke-miterlimit:2;"/>
                </g>
            </g>
        </g>
    </g>
</svg>
