  0
SECTION
  2
HEADER
  9
$ACADVER
  1
AC1014
  9
$HANDSEED
  5
FFFF
  9
$MEASUREMENT
 70
     1
  0
ENDSEC
  0
SECTION
  2
TABLES
  0
TABLE
  2
VPORT
  5
8
330
0
100
AcDbSymbolTable
 70
     4
  0
VPORT
  5
2E
330
8
100
AcDbSymbolTableRecord
100
AcDbViewportTableRecord
  2
*ACTIVE
 70
     0
 10
0.0
 20
0.0
 11
1.0
 21
1.0
 12
210.0
 22
148.5
 13
0.0
 23
0.0
 14
10.0
 24
10.0
 15
10.0
 25
10.0
 16
0.0
 26
0.0
 36
1.0
 17
0.0
 27
0.0
 37
0.0
 40
341.0
 41
1.24
 42
50.0
 43
0.0
 44
0.0
 50
0.0
 51
0.0
 71
     0
 72
   100
 73
     1
 74
     3
 75
     0
 76
     0
 77
     0
 78
     0
  0
ENDTAB
  0
TABLE
  2
LTYPE
  5
5
330
0
100
AcDbSymbolTable
 70
     1
  0
LTYPE
  5
14
330
5
100
AcDbSymbolTableRecord
100
AcDbLinetypeTableRecord
  2
BYBLOCK
 70
     0
  3

 72
    65
 73
     0
 40
0.0
  0
LTYPE
  5
15
330
5
100
AcDbSymbolTableRecord
100
AcDbLinetypeTableRecord
  2
BYLAYER
 70
     0
  3

 72
    65
 73
     0
 40
0.0
  0
LTYPE
  5
16
330
5
100
AcDbSymbolTableRecord
100
AcDbLinetypeTableRecord
  2
CONTINUOUS
 70
     0
  3
Solid line
 72
    65
 73
     0
 40
0.0
  0
ENDTAB
  0
TABLE
  2
LAYER
  5
2
100
AcDbSymbolTable
 70
1
  0
LAYER
  5
50
100
AcDbSymbolTableRecord
100
AcDbLayerTableRecord
  2
0
 70
0
  6
CONTINUOUS
  0
ENDTAB
  0
TABLE
  2
STYLE
  5
3
330
0
100
AcDbSymbolTable
 70
     1
  0
STYLE
  5
11
330
3
100
AcDbSymbolTableRecord
100
AcDbTextStyleTableRecord
  2
STANDARD
 70
     0
 40
0.0
 41
1.0
 50
0.0
 71
     0
 42
2.5
  3
txt
  4

  0
ENDTAB
  0
TABLE
  2
VIEW
  5
6
330
0
100
AcDbSymbolTable
 70
     0
  0
ENDTAB
  0
TABLE
  2
UCS
  5
7
330
0
100
AcDbSymbolTable
 70
     0
  0
ENDTAB
  0
TABLE
  2
APPID
  5
9
330
0
100
AcDbSymbolTable
 70
     2
  0
APPID
  5
12
330
9
100
AcDbSymbolTableRecord
100
AcDbRegAppTableRecord
  2
ACAD
 70
     0
  0
ENDTAB
  0
TABLE
  2
DIMSTYLE
  5
A
330
0
100
AcDbSymbolTable
 70
     1
  0
DIMSTYLE
105
27
330
A
100
AcDbSymbolTableRecord
100
AcDbDimStyleTableRecord
  2
ISO-25
 70
     0
  3

  4

  5

  6

  7

 40
1.0
 41
2.5
 42
0.625
 43
3.75
 44
1.25
 45
0.0
 46
0.0
 47
0.0
 48
0.0
140
2.5
141
2.5
142
0.0
143
0.03937007874016
144
1.0
145
0.0
146
1.0
147
0.625
 71
     0
 72
     0
 73
     0
 74
     0
 75
     0
 76
     0
 77
     1
 78
     8
170
     0
171
     3
172
     1
173
     0
174
     0
175
     0
176
     0
177
     0
178
     0
270
     2
271
     2
272
     2
273
     2
274
     3
340
11
275
     0
280
     0
281
     0
282
     0
283
     0
284
     8
285
     0
286
     0
287
     3
288
     0
  0
ENDTAB
  0
TABLE
  2
BLOCK_RECORD
  5
1
330
0
100
AcDbSymbolTable
 70
     1
  0
BLOCK_RECORD
  5
1F
330
1
100
AcDbSymbolTableRecord
100
AcDbBlockTableRecord
  2
*MODEL_SPACE
  0
BLOCK_RECORD
  5
1B
330
1
100
AcDbSymbolTableRecord
100
AcDbBlockTableRecord
  2
*PAPER_SPACE
  0
ENDTAB
  0
ENDSEC
  0
SECTION
  2
BLOCKS
  0
BLOCK
  5
20
330
1F
100
AcDbEntity
  8
0
100
AcDbBlockBegin
  2
*MODEL_SPACE
 70
     0
 10
0.0
 20
0.0
 30
0.0
  3
*MODEL_SPACE
  1

  0
ENDBLK
  5
21
330
1F
100
AcDbEntity
  8
0
100
AcDbBlockEnd
  0
BLOCK
  5
1C
330
1B
100
AcDbEntity
 67
     1
  8
0
100
AcDbBlockBegin
  2
*PAPER_SPACE
  1

  0
ENDBLK
  5
1D
330
1B
100
AcDbEntity
 67
     1
  8
0
100
AcDbBlockEnd
  0
ENDSEC
  0
SECTION
  2
ENTITIES
  0
SPLINE
  5
100
100
AcDbEntity
  8
0
 62
1
100
AcDbSpline
 70
8
 71
3
 72
8
 73
4
 74
0
 40
0
 40
0
 40
0
 40
0
 40
1
 40
1
 40
1
 40
1
 10
191.874277
 20
154.865308
 30
0.0
 10
191.874277
 20
154.686707
 30
0.0
 10
191.793750
 20
154.517506
 30
0.0
 10
191.654942
 20
154.405018
 30
0.0
  0
SPLINE
  5
101
100
AcDbEntity
  8
0
 62
1
100
AcDbSpline
 70
8
 71
3
 72
8
 73
4
 74
0
 40
0
 40
0
 40
0
 40
0
 40
1
 40
1
 40
1
 40
1
 10
191.654942
 20
154.405018
 30
0.0
 10
191.516134
 20
154.292844
 30
0.0
 10
191.333772
 20
154.248977
 30
0.0
 10
191.159244
 20
154.286264
 30
0.0
  0
SPLINE
  5
102
100
AcDbEntity
  8
0
 62
1
100
AcDbSpline
 70
8
 71
3
 72
8
 73
4
 74
0
 40
0
 40
0
 40
0
 40
0
 40
1
 40
1
 40
1
 40
1
 10
191.159244
 20
154.286264
 30
0.0
 10
185.873261
 20
155.409572
 30
0.0
 10
152.944127
 20
162.408857
 30
0.0
 10
148.160422
 20
163.425630
 30
0.0
  0
SPLINE
  5
103
100
AcDbEntity
  8
0
 62
1
100
AcDbSpline
 70
8
 71
3
 72
8
 73
4
 74
0
 40
0
 40
0
 40
0
 40
0
 40
1
 40
1
 40
1
 40
1
 10
148.160422
 20
163.425630
 30
0.0
 10
148.006887
 20
163.458530
 30
0.0
 10
147.872466
 20
163.550651
 30
0.0
 10
147.786925
 20
163.682565
 30
0.0
  0
SPLINE
  5
104
100
AcDbEntity
  8
0
 62
1
100
AcDbSpline
 70
8
 71
3
 72
8
 73
4
 74
0
 40
0
 40
0
 40
0
 40
0
 40
1
 40
1
 40
1
 40
1
 10
147.786925
 20
163.682565
 30
0.0
 10
147.701698
 20
163.814166
 30
0.0
 10
147.671931
 20
163.974594
 30
0.0
 10
147.704518
 20
164.128128
 30
0.0
  0
SPLINE
  5
105
100
AcDbEntity
  8
0
 62
1
100
AcDbSpline
 70
8
 71
3
 72
8
 73
4
 74
0
 40
0
 40
0
 40
0
 40
0
 40
1
 40
1
 40
1
 40
1
 10
147.704518
 20
164.128128
 30
0.0
 10
147.805412
 20
164.602518
 30
0.0
 10
147.947353
 20
165.270549
 30
0.0
 10
148.048248
 20
165.744625
 30
0.0
  0
SPLINE
  5
106
100
AcDbEntity
  8
0
 62
1
100
AcDbSpline
 70
8
 71
3
 72
8
 73
4
 74
0
 40
0
 40
0
 40
0
 40
0
 40
1
 40
1
 40
1
 40
1
 10
148.048248
 20
165.744625
 30
0.0
 10
148.116242
 20
166.064541
 30
0.0
 10
147.911946
 20
166.379129
 30
0.0
 10
147.592030
 20
166.447123
 30
0.0
  0
SPLINE
  5
107
100
AcDbEntity
  8
0
 62
1
100
AcDbSpline
 70
8
 71
3
 72
8
 73
4
 74
0
 40
0
 40
0
 40
0
 40
0
 40
1
 40
1
 40
1
 40
1
 10
147.592030
 20
166.447123
 30
0.0
 10
144.482481
 20
167.107947
 30
0.0
 10
129.792024
 20
170.230648
 30
0.0
 10
126.682475
 20
170.891472
 30
0.0
  0
SPLINE
  5
108
100
AcDbEntity
  8
0
 62
1
100
AcDbSpline
 70
8
 71
3
 72
8
 73
4
 74
0
 40
0
 40
0
 40
0
 40
0
 40
1
 40
1
 40
1
 40
1
 10
126.682475
 20
170.891472
 30
0.0
 10
126.362558
 20
170.959466
 30
0.0
 10
126.158263
 20
171.274054
 30
0.0
 10
126.226257
 20
171.593970
 30
0.0
  0
SPLINE
  5
109
100
AcDbEntity
  8
0
 62
1
100
AcDbSpline
 70
8
 71
3
 72
8
 73
4
 74
0
 40
0
 40
0
 40
0
 40
0
 40
1
 40
1
 40
1
 40
1
 10
126.226257
 20
171.593970
 30
0.0
 10
126.316185
 20
172.016032
 30
0.0
 10
126.437132
 20
172.585989
 30
0.0
 10
126.527060
 20
173.008366
 30
0.0
  0
SPLINE
  5
10a
100
AcDbEntity
  8
0
 62
1
100
AcDbSpline
 70
8
 71
3
 72
8
 73
4
 74
0
 40
0
 40
0
 40
0
 40
0
 40
1
 40
1
 40
1
 40
1
 10
126.527060
 20
173.008366
 30
0.0
 10
126.595054
 20
173.327968
 30
0.0
 10
126.390759
 20
173.642556
 30
0.0
 10
126.070842
 20
173.710550
 30
0.0
  0
SPLINE
  5
10b
100
AcDbEntity
  8
0
 62
1
100
AcDbSpline
 70
8
 71
3
 72
8
 73
4
 74
0
 40
0
 40
0
 40
0
 40
0
 40
1
 40
1
 40
1
 40
1
 10
126.070842
 20
173.710550
 30
0.0
 10
122.909906
 20
174.382341
 30
0.0
 10
107.767931
 20
177.600922
 30
0.0
 10
104.606682
 20
178.272713
 30
0.0
  0
SPLINE
  5
10c
100
AcDbEntity
  8
0
 62
1
100
AcDbSpline
 70
8
 71
3
 72
8
 73
4
 74
0
 40
0
 40
0
 40
0
 40
0
 40
1
 40
1
 40
1
 40
1
 10
104.606682
 20
178.272713
 30
0.0
 10
104.287079
 20
178.340707
 30
0.0
 10
103.972489
 20
178.136725
 30
0.0
 10
103.904495
 20
177.816810
 30
0.0
  0
SPLINE
  5
10d
100
AcDbEntity
  8
0
 62
1
100
AcDbSpline
 70
8
 71
3
 72
8
 73
4
 74
0
 40
0
 40
0
 40
0
 40
0
 40
1
 40
1
 40
1
 40
1
 10
103.904495
 20
177.816810
 30
0.0
 10
103.805794
 20
177.352447
 30
0.0
 10
103.667926
 20
176.704156
 30
0.0
 10
103.569226
 20
176.239793
 30
0.0
  0
SPLINE
  5
10e
100
AcDbEntity
  8
0
 62
1
100
AcDbSpline
 70
8
 71
3
 72
8
 73
4
 74
0
 40
0
 40
0
 40
0
 40
0
 40
1
 40
1
 40
1
 40
1
 10
103.569226
 20
176.239793
 30
0.0
 10
103.501232
 20
175.919878
 30
0.0
 10
103.186955
 20
175.715583
 30
0.0
 10
102.867039
 20
175.783577
 30
0.0
  0
SPLINE
  5
10f
100
AcDbEntity
  8
0
 62
1
100
AcDbSpline
 70
8
 71
3
 72
8
 73
4
 74
0
 40
0
 40
0
 40
0
 40
0
 40
1
 40
1
 40
1
 40
1
 10
102.867039
 20
175.783577
 30
0.0
 10
99.754983
 20
176.445028
 30
0.0
 10
85.045413
 20
179.571801
 30
0.0
 10
81.933670
 20
180.233252
 30
0.0
  0
SPLINE
  5
110
100
AcDbEntity
  8
0
 62
1
100
AcDbSpline
 70
8
 71
3
 72
8
 73
4
 74
0
 40
0
 40
0
 40
0
 40
0
 40
1
 40
1
 40
1
 40
1
 10
81.933670
 20
180.233252
 30
0.0
 10
81.613754
 20
180.301246
 30
0.0
 10
81.299164
 20
180.096951
 30
0.0
 10
81.231170
 20
179.777036
 30
0.0
  0
SPLINE
  5
111
100
AcDbEntity
  8
0
 62
1
100
AcDbSpline
 70
8
 71
3
 72
8
 73
4
 74
0
 40
0
 40
0
 40
0
 40
0
 40
1
 40
1
 40
1
 40
1
 10
81.231170
 20
179.777036
 30
0.0
 10
80.826653
 20
177.873837
 30
0.0
 10
79.540721
 20
171.823958
 30
0.0
 10
79.136204
 20
169.920446
 30
0.0
  0
SPLINE
  5
112
100
AcDbEntity
  8
0
 62
1
100
AcDbSpline
 70
8
 71
3
 72
8
 73
4
 74
0
 40
0
 40
0
 40
0
 40
0
 40
1
 40
1
 40
1
 40
1
 10
79.136204
 20
169.920446
 30
0.0
 10
79.068210
 20
169.600530
 30
0.0
 10
78.753620
 20
169.396549
 30
0.0
 10
78.433704
 20
169.464543
 30
0.0
  0
SPLINE
  5
113
100
AcDbEntity
  8
0
 62
1
100
AcDbSpline
 70
8
 71
3
 72
8
 73
4
 74
0
 40
0
 40
0
 40
0
 40
0
 40
1
 40
1
 40
1
 40
1
 10
78.433704
 20
169.464543
 30
0.0
 10
75.305355
 20
170.129440
 30
0.0
 10
60.451336
 20
173.286607
 30
0.0
 10
57.322987
 20
173.951818
 30
0.0
  0
SPLINE
  5
114
100
AcDbEntity
  8
0
 62
1
100
AcDbSpline
 70
8
 71
3
 72
8
 73
4
 74
0
 40
0
 40
0
 40
0
 40
0
 40
1
 40
1
 40
1
 40
1
 10
57.322987
 20
173.951818
 30
0.0
 10
57.003071
 20
174.019812
 30
0.0
 10
56.688794
 20
173.815517
 30
0.0
 10
56.620800
 20
173.495602
 30
0.0
  0
SPLINE
  5
115
100
AcDbEntity
  8
0
 62
1
100
AcDbSpline
 70
8
 71
3
 72
8
 73
4
 74
0
 40
0
 40
0
 40
0
 40
0
 40
1
 40
1
 40
1
 40
1
 10
56.620800
 20
173.495602
 30
0.0
 10
56.450659
 20
172.696597
 30
0.0
 10
56.146409
 20
171.264654
 30
0.0
 10
55.976581
 20
170.465649
 30
0.0
  0
SPLINE
  5
116
100
AcDbEntity
  8
0
 62
1
100
AcDbSpline
 70
8
 71
3
 72
8
 73
4
 74
0
 40
0
 40
0
 40
0
 40
0
 40
1
 40
1
 40
1
 40
1
 10
55.976581
 20
170.465649
 30
0.0
 10
55.908587
 20
170.145734
 30
0.0
 10
55.593997
 20
169.941439
 30
0.0
 10
55.274394
 20
170.009433
 30
0.0
  0
SPLINE
  5
117
100
AcDbEntity
  8
0
 62
1
100
AcDbSpline
 70
8
 71
3
 72
8
 73
4
 74
0
 40
0
 40
0
 40
0
 40
0
 40
1
 40
1
 40
1
 40
1
 10
55.274394
 20
170.009433
 30
0.0
 10
50.470636
 20
171.030593
 30
0.0
 10
17.289580
 20
178.083145
 30
0.0
 10
12.485821
 20
179.104305
 30
0.0
  0
SPLINE
  5
118
100
AcDbEntity
  8
0
 62
1
100
AcDbSpline
 70
8
 71
3
 72
8
 73
4
 74
0
 40
0
 40
0
 40
0
 40
0
 40
1
 40
1
 40
1
 40
1
 10
12.485821
 20
179.104305
 30
0.0
 10
12.166218
 20
179.172299
 30
0.0
 10
11.851629
 20
178.968004
 30
0.0
 10
11.783635
 20
178.648402
 30
0.0
  0
SPLINE
  5
119
100
AcDbEntity
  8
0
 62
1
100
AcDbSpline
 70
8
 71
3
 72
8
 73
4
 74
0
 40
0
 40
0
 40
0
 40
0
 40
1
 40
1
 40
1
 40
1
 10
11.783635
 20
178.648402
 30
0.0
 10
11.113095
 20
175.492802
 30
0.0
 10
7.905159
 20
160.401944
 30
0.0
 10
7.234619
 20
157.246343
 30
0.0
  0
SPLINE
  5
11a
100
AcDbEntity
  8
0
 62
1
100
AcDbSpline
 70
8
 71
3
 72
8
 73
4
 74
0
 40
0
 40
0
 40
0
 40
0
 40
1
 40
1
 40
1
 40
1
 10
7.234619
 20
157.246343
 30
0.0
 10
7.166625
 20
156.926741
 30
0.0
 10
7.370920
 20
156.612153
 30
0.0
 10
7.690523
 20
156.544159
 30
0.0
  0
SPLINE
  5
11b
100
AcDbEntity
  8
0
 62
1
100
AcDbSpline
 70
8
 71
3
 72
8
 73
4
 74
0
 40
0
 40
0
 40
0
 40
0
 40
1
 40
1
 40
1
 40
1
 10
7.690523
 20
156.544159
 30
0.0
 10
9.600308
 20
156.138390
 30
0.0
 10
15.684671
 20
154.844941
 30
0.0
 10
17.594456
 20
154.439172
 30
0.0
  0
SPLINE
  5
11c
100
AcDbEntity
  8
0
 62
1
100
AcDbSpline
 70
8
 71
3
 72
8
 73
4
 74
0
 40
0
 40
0
 40
0
 40
0
 40
1
 40
1
 40
1
 40
1
 10
17.594456
 20
154.439172
 30
0.0
 10
17.914059
 20
154.371178
 30
0.0
 10
18.118354
 20
154.056589
 30
0.0
 10
18.050360
 20
153.736674
 30
0.0
  0
SPLINE
  5
11d
100
AcDbEntity
  8
0
 62
1
100
AcDbSpline
 70
8
 71
3
 72
8
 73
4
 74
0
 40
0
 40
0
 40
0
 40
0
 40
1
 40
1
 40
1
 40
1
 10
18.050360
 20
153.736674
 30
0.0
 10
17.401441
 20
150.683848
 30
0.0
 10
14.383699
 20
136.485682
 30
0.0
 10
13.734780
 20
133.432856
 30
0.0
  0
SPLINE
  5
11e
100
AcDbEntity
  8
0
 62
1
100
AcDbSpline
 70
8
 71
3
 72
8
 73
4
 74
0
 40
0
 40
0
 40
0
 40
0
 40
1
 40
1
 40
1
 40
1
 10
13.734780
 20
133.432856
 30
0.0
 10
13.666786
 20
133.113254
 30
0.0
 10
13.352196
 20
132.908959
 30
0.0
 10
13.032280
 20
132.976953
 30
0.0
  0
SPLINE
  5
11f
100
AcDbEntity
  8
0
 62
1
100
AcDbSpline
 70
8
 71
3
 72
8
 73
4
 74
0
 40
0
 40
0
 40
0
 40
0
 40
1
 40
1
 40
1
 40
1
 10
13.032280
 20
132.976953
 30
0.0
 10
11.982917
 20
133.200048
 30
0.0
 10
9.778596
 20
133.668484
 30
0.0
 10
8.727666
 20
133.891892
 30
0.0
  0
SPLINE
  5
120
100
AcDbEntity
  8
0
 62
1
100
AcDbSpline
 70
8
 71
3
 72
8
 73
4
 74
0
 40
0
 40
0
 40
0
 40
0
 40
1
 40
1
 40
1
 40
1
 10
8.727666
 20
133.891892
 30
0.0
 10
8.573818
 20
133.924479
 30
0.0
 10
8.413390
 20
133.894712
 30
0.0
 10
8.281475
 20
133.808858
 30
0.0
  0
SPLINE
  5
121
100
AcDbEntity
  8
0
 62
1
100
AcDbSpline
 70
8
 71
3
 72
8
 73
4
 74
0
 40
0
 40
0
 40
0
 40
0
 40
1
 40
1
 40
1
 40
1
 10
8.281475
 20
133.808858
 30
0.0
 10
8.149561
 20
133.723004
 30
0.0
 10
8.057440
 20
133.587957
 30
0.0
 10
8.025166
 20
133.433796
 30
0.0
  0
SPLINE
  5
122
100
AcDbEntity
  8
0
 62
1
100
AcDbSpline
 70
8
 71
3
 72
8
 73
4
 74
0
 40
0
 40
0
 40
0
 40
0
 40
1
 40
1
 40
1
 40
1
 10
8.025166
 20
133.433796
 30
0.0
 10
7.365594
 20
130.281642
 30
0.0
 10
4.225024
 20
115.267551
 30
0.0
 10
3.567645
 20
112.124798
 30
0.0
  0
SPLINE
  5
123
100
AcDbEntity
  8
0
 62
1
100
AcDbSpline
 70
8
 71
3
 72
8
 73
4
 74
0
 40
0
 40
0
 40
0
 40
0
 40
1
 40
1
 40
1
 40
1
 10
3.567645
 20
112.124798
 30
0.0
 10
3.500591
 20
111.805509
 30
0.0
 10
3.704886
 20
111.492174
 30
0.0
 10
4.024176
 20
111.424180
 30
0.0
  0
SPLINE
  5
124
100
AcDbEntity
  8
0
 62
1
100
AcDbSpline
 70
8
 71
3
 72
8
 73
4
 74
0
 40
0
 40
0
 40
0
 40
0
 40
1
 40
1
 40
1
 40
1
 10
4.024176
 20
111.424180
 30
0.0
 10
5.059752
 20
111.204218
 30
0.0
 10
7.222712
 20
110.744556
 30
0.0
 10
8.259855
 20
110.523967
 30
0.0
  0
SPLINE
  5
125
100
AcDbEntity
  8
0
 62
1
100
AcDbSpline
 70
8
 71
3
 72
8
 73
4
 74
0
 40
0
 40
0
 40
0
 40
0
 40
1
 40
1
 40
1
 40
1
 10
8.259855
 20
110.523967
 30
0.0
 10
8.413390
 20
110.491381
 30
0.0
 10
8.547811
 20
110.398947
 30
0.0
 10
8.633352
 20
110.267346
 30
0.0
  0
SPLINE
  5
126
100
AcDbEntity
  8
0
 62
1
100
AcDbSpline
 70
8
 71
3
 72
8
 73
4
 74
0
 40
0
 40
0
 40
0
 40
0
 40
1
 40
1
 40
1
 40
1
 10
8.633352
 20
110.267346
 30
0.0
 10
8.718893
 20
110.135432
 30
0.0
 10
8.748660
 20
109.975317
 30
0.0
 10
8.715760
 20
109.821783
 30
0.0
  0
SPLINE
  5
127
100
AcDbEntity
  8
0
 62
1
100
AcDbSpline
 70
8
 71
3
 72
8
 73
4
 74
0
 40
0
 40
0
 40
0
 40
0
 40
1
 40
1
 40
1
 40
1
 10
8.715760
 20
109.821783
 30
0.0
 10
8.049293
 20
106.685296
 30
0.0
 10
4.877390
 20
91.762386
 30
0.0
 10
4.210611
 20
88.625899
 30
0.0
  0
SPLINE
  5
128
100
AcDbEntity
  8
0
 62
1
100
AcDbSpline
 70
8
 71
3
 72
8
 73
4
 74
0
 40
0
 40
0
 40
0
 40
0
 40
1
 40
1
 40
1
 40
1
 10
4.210611
 20
88.625899
 30
0.0
 10
4.178024
 20
88.472365
 30
0.0
 10
4.207791
 20
88.312250
 30
0.0
 10
4.293332
 20
88.180336
 30
0.0
  0
SPLINE
  5
129
100
AcDbEntity
  8
0
 62
1
100
AcDbSpline
 70
8
 71
3
 72
8
 73
4
 74
0
 40
0
 40
0
 40
0
 40
0
 40
1
 40
1
 40
1
 40
1
 10
4.293332
 20
88.180336
 30
0.0
 10
4.378872
 20
88.048735
 30
0.0
 10
4.512980
 20
87.956301
 30
0.0
 10
4.666828
 20
87.923714
 30
0.0
  0
SPLINE
  5
12a
100
AcDbEntity
  8
0
 62
1
100
AcDbSpline
 70
8
 71
3
 72
8
 73
4
 74
0
 40
0
 40
0
 40
0
 40
0
 40
1
 40
1
 40
1
 40
1
 10
4.666828
 20
87.923714
 30
0.0
 10
5.667311
 20
87.710960
 30
0.0
 10
7.699923
 20
87.278870
 30
0.0
 10
8.617999
 20
87.083976
 30
0.0
  0
SPLINE
  5
12b
100
AcDbEntity
  8
0
 62
1
100
AcDbSpline
 70
8
 71
3
 72
8
 73
4
 74
0
 40
0
 40
0
 40
0
 40
0
 40
1
 40
1
 40
1
 40
1
 10
8.617999
 20
87.083976
 30
0.0
 10
8.891228
 20
87.025695
 30
0.0
 10
9.086750
 20
86.784427
 30
0.0
 10
9.087063
 20
86.504932
 30
0.0
  0
SPLINE
  5
12c
100
AcDbEntity
  8
0
 62
1
100
AcDbSpline
 70
8
 71
3
 72
8
 73
4
 74
0
 40
0
 40
0
 40
0
 40
0
 40
1
 40
1
 40
1
 40
1
 10
9.087063
 20
86.504932
 30
0.0
 10
9.089256
 20
83.062630
 30
0.0
 10
9.102416
 20
62.129634
 30
0.0
 10
9.104923
 20
58.331069
 30
0.0
  0
SPLINE
  5
12d
100
AcDbEntity
  8
0
 62
1
100
AcDbSpline
 70
8
 71
3
 72
8
 73
4
 74
0
 40
0
 40
0
 40
0
 40
0
 40
1
 40
1
 40
1
 40
1
 10
9.104923
 20
58.331069
 30
0.0
 10
9.105237
 20
58.004574
 30
0.0
 10
9.369692
 20
57.739805
 30
0.0
 10
9.696189
 20
57.739492
 30
0.0
  0
SPLINE
  5
12e
100
AcDbEntity
  8
0
 62
1
100
AcDbSpline
 70
8
 71
3
 72
8
 73
4
 74
0
 40
0
 40
0
 40
0
 40
0
 40
1
 40
1
 40
1
 40
1
 10
9.696189
 20
57.739492
 30
0.0
 10
15.659918
 20
57.731032
 30
0.0
 10
64.874391
 20
57.662412
 30
0.0
 10
70.847833
 20
57.653952
 30
0.0
  0
SPLINE
  5
12f
100
AcDbEntity
  8
0
 62
1
100
AcDbSpline
 70
8
 71
3
 72
8
 73
4
 74
0
 40
0
 40
0
 40
0
 40
0
 40
1
 40
1
 40
1
 40
1
 10
70.847833
 20
57.653952
 30
0.0
 10
71.004815
 20
57.653638
 30
0.0
 10
71.155843
 20
57.715992
 30
0.0
 10
71.267077
 20
57.827226
 30
0.0
  0
SPLINE
  5
130
100
AcDbEntity
  8
0
 62
1
100
AcDbSpline
 70
8
 71
3
 72
8
 73
4
 74
0
 40
0
 40
0
 40
0
 40
0
 40
1
 40
1
 40
1
 40
1
 10
71.267077
 20
57.827226
 30
0.0
 10
71.378312
 20
57.938147
 30
0.0
 10
71.440665
 20
58.088861
 30
0.0
 10
71.440665
 20
58.246155
 30
0.0
  0
SPLINE
  5
131
100
AcDbEntity
  8
0
 62
1
100
AcDbSpline
 70
8
 71
3
 72
8
 73
4
 74
0
 40
0
 40
0
 40
0
 40
0
 40
1
 40
1
 40
1
 40
1
 10
71.440665
 20
58.246155
 30
0.0
 10
71.440665
 20
59.375416
 30
0.0
 10
71.440665
 20
61.831652
 30
0.0
 10
71.440665
 20
63.061180
 30
0.0
  0
SPLINE
  5
132
100
AcDbEntity
  8
0
 62
1
100
AcDbSpline
 70
8
 71
3
 72
8
 73
4
 74
0
 40
0
 40
0
 40
0
 40
0
 40
1
 40
1
 40
1
 40
1
 10
71.440665
 20
63.061180
 30
0.0
 10
71.440665
 20
63.240094
 30
0.0
 10
71.521506
 20
63.409296
 30
0.0
 10
71.660314
 20
63.521470
 30
0.0
  0
SPLINE
  5
133
100
AcDbEntity
  8
0
 62
1
100
AcDbSpline
 70
8
 71
3
 72
8
 73
4
 74
0
 40
0
 40
0
 40
0
 40
0
 40
1
 40
1
 40
1
 40
1
 10
71.660314
 20
63.521470
 30
0.0
 10
71.799435
 20
63.633957
 30
0.0
 10
71.981797
 20
63.677511
 30
0.0
 10
72.156639
 20
63.640224
 30
0.0
  0
SPLINE
  5
134
100
AcDbEntity
  8
0
 62
1
100
AcDbSpline
 70
8
 71
3
 72
8
 73
4
 74
0
 40
0
 40
0
 40
0
 40
0
 40
1
 40
1
 40
1
 40
1
 10
72.156639
 20
63.640224
 30
0.0
 10
80.827593
 20
61.787785
 30
0.0
 10
165.491677
 20
43.698621
 30
0.0
 10
173.321950
 20
42.025724
 30
0.0
  0
SPLINE
  5
135
100
AcDbEntity
  8
0
 62
1
100
AcDbSpline
 70
8
 71
3
 72
8
 73
4
 74
0
 40
0
 40
0
 40
0
 40
0
 40
1
 40
1
 40
1
 40
1
 10
173.321950
 20
42.025724
 30
0.0
 10
173.475485
 20
41.992823
 30
0.0
 10
173.635913
 20
42.022277
 30
0.0
 10
173.767828
 20
42.107818
 30
0.0
  0
SPLINE
  5
136
100
AcDbEntity
  8
0
 62
1
100
AcDbSpline
 70
8
 71
3
 72
8
 73
4
 74
0
 40
0
 40
0
 40
0
 40
0
 40
1
 40
1
 40
1
 40
1
 10
173.767828
 20
42.107818
 30
0.0
 10
173.899742
 20
42.193358
 30
0.0
 10
173.992177
 20
42.327779
 30
0.0
 10
174.024764
 20
42.481627
 30
0.0
  0
SPLINE
  5
137
100
AcDbEntity
  8
0
 62
1
100
AcDbSpline
 70
8
 71
3
 72
8
 73
4
 74
0
 40
0
 40
0
 40
0
 40
0
 40
1
 40
1
 40
1
 40
1
 10
174.024764
 20
42.481627
 30
0.0
 10
174.697497
 20
45.646000
 30
0.0
 10
177.919533
 20
60.804539
 30
0.0
 10
178.591953
 20
63.967659
 30
0.0
  0
SPLINE
  5
138
100
AcDbEntity
  8
0
 62
1
100
AcDbSpline
 70
8
 71
3
 72
8
 73
4
 74
0
 40
0
 40
0
 40
0
 40
0
 40
1
 40
1
 40
1
 40
1
 10
178.591953
 20
63.967659
 30
0.0
 10
178.659947
 20
64.287261
 30
0.0
 10
178.455652
 20
64.601850
 30
0.0
 10
178.135735
 20
64.669844
 30
0.0
  0
SPLINE
  5
139
100
AcDbEntity
  8
0
 62
1
100
AcDbSpline
 70
8
 71
3
 72
8
 73
4
 74
0
 40
0
 40
0
 40
0
 40
0
 40
1
 40
1
 40
1
 40
1
 10
178.135735
 20
64.669844
 30
0.0
 10
177.033418
 20
64.904219
 30
0.0
 10
174.645483
 20
65.411822
 30
0.0
 10
173.542226
 20
65.646197
 30
0.0
  0
SPLINE
  5
13a
100
AcDbEntity
  8
0
 62
1
100
AcDbSpline
 70
8
 71
3
 72
8
 73
4
 74
0
 40
0
 40
0
 40
0
 40
0
 40
1
 40
1
 40
1
 40
1
 10
173.542226
 20
65.646197
 30
0.0
 10
173.388378
 20
65.678784
 30
0.0
 10
173.253956
 20
65.771531
 30
0.0
 10
173.168416
 20
65.903445
 30
0.0
  0
SPLINE
  5
13b
100
AcDbEntity
  8
0
 62
1
100
AcDbSpline
 70
8
 71
3
 72
8
 73
4
 74
0
 40
0
 40
0
 40
0
 40
0
 40
1
 40
1
 40
1
 40
1
 10
173.168416
 20
65.903445
 30
0.0
 10
173.082875
 20
66.035359
 30
0.0
 10
173.053421
 20
66.196100
 30
0.0
 10
173.086322
 20
66.349948
 30
0.0
  0
SPLINE
  5
13c
100
AcDbEntity
  8
0
 62
1
100
AcDbSpline
 70
8
 71
3
 72
8
 73
4
 74
0
 40
0
 40
0
 40
0
 40
0
 40
1
 40
1
 40
1
 40
1
 10
173.086322
 20
66.349948
 30
0.0
 10
174.548349
 20
73.149952
 30
0.0
 10
188.392485
 20
137.538802
 30
0.0
 10
189.709750
 20
143.666075
 30
0.0
  0
SPLINE
  5
13d
100
AcDbEntity
  8
0
 62
1
100
AcDbSpline
 70
8
 71
3
 72
8
 73
4
 74
0
 40
0
 40
0
 40
0
 40
0
 40
1
 40
1
 40
1
 40
1
 10
189.709750
 20
143.666075
 30
0.0
 10
189.768344
 20
143.938991
 30
0.0
 10
190.009613
 20
144.133885
 30
0.0
 10
190.288796
 20
144.133885
 30
0.0
  0
SPLINE
  5
13e
100
AcDbEntity
  8
0
 62
1
100
AcDbSpline
 70
8
 71
3
 72
8
 73
4
 74
0
 40
0
 40
0
 40
0
 40
0
 40
1
 40
1
 40
1
 40
1
 10
190.288796
 20
144.133885
 30
0.0
 10
190.584898
 20
144.133885
 30
0.0
 10
190.967169
 20
144.133885
 30
0.0
 10
191.282385
 20
144.133885
 30
0.0
  0
SPLINE
  5
13f
100
AcDbEntity
  8
0
 62
1
100
AcDbSpline
 70
8
 71
3
 72
8
 73
4
 74
0
 40
0
 40
0
 40
0
 40
0
 40
1
 40
1
 40
1
 40
1
 10
191.282385
 20
144.133885
 30
0.0
 10
191.609195
 20
144.133885
 30
0.0
 10
191.874277
 20
143.868803
 30
0.0
 10
191.874277
 20
143.541681
 30
0.0
  0
SPLINE
  5
140
100
AcDbEntity
  8
0
 62
1
100
AcDbSpline
 70
8
 71
3
 72
8
 73
4
 74
0
 40
0
 40
0
 40
0
 40
0
 40
1
 40
1
 40
1
 40
1
 10
191.874277
 20
143.541681
 30
0.0
 10
191.874277
 20
136.978245
 30
0.0
 10
191.874277
 20
77.571114
 30
0.0
 10
191.874277
 20
51.796147
 30
0.0
  0
SPLINE
  5
141
100
AcDbEntity
  8
0
 62
1
100
AcDbSpline
 70
8
 71
3
 72
8
 73
4
 74
0
 40
0
 40
0
 40
0
 40
0
 40
1
 40
1
 40
1
 40
1
 10
191.874277
 20
51.796147
 30
0.0
 10
191.874277
 20
45.255585
 30
0.0
 10
186.572314
 20
39.953637
 30
0.0
 10
180.031733
 20
39.953637
 30
0.0
  0
SPLINE
  5
142
100
AcDbEntity
  8
0
 62
1
100
AcDbSpline
 70
8
 71
3
 72
8
 73
4
 74
0
 40
0
 40
0
 40
0
 40
0
 40
1
 40
1
 40
1
 40
1
 10
180.031733
 20
39.953637
 30
0.0
 10
174.993599
 20
39.953637
 30
0.0
 10
169.594502
 20
39.953637
 30
0.0
 10
166.579894
 20
39.953637
 30
0.0
  0
SPLINE
  5
143
100
AcDbEntity
  8
0
 62
1
100
AcDbSpline
 70
8
 71
3
 72
8
 73
4
 74
0
 40
0
 40
0
 40
0
 40
0
 40
1
 40
1
 40
1
 40
1
 10
166.579894
 20
39.953637
 30
0.0
 10
164.989399
 20
39.953637
 30
0.0
 10
163.403291
 20
40.113751
 30
0.0
 10
161.844757
 20
40.431787
 30
0.0
  0
SPLINE
  5
144
100
AcDbEntity
  8
0
 62
1
100
AcDbSpline
 70
8
 71
3
 72
8
 73
4
 74
0
 40
0
 40
0
 40
0
 40
0
 40
1
 40
1
 40
1
 40
1
 10
161.844757
 20
40.431787
 30
0.0
 10
154.542768
 20
41.921383
 30
0.0
 10
132.252340
 20
46.469132
 30
0.0
 10
124.950352
 20
47.959042
 30
0.0
  0
SPLINE
  5
145
100
AcDbEntity
  8
0
 62
1
100
AcDbSpline
 70
8
 71
3
 72
8
 73
4
 74
0
 40
0
 40
0
 40
0
 40
0
 40
1
 40
1
 40
1
 40
1
 10
124.950352
 20
47.959042
 30
0.0
 10
123.392131
 20
48.277078
 30
0.0
 10
121.805709
 20
48.437192
 30
0.0
 10
120.215528
 20
48.437192
 30
0.0
  0
SPLINE
  5
146
100
AcDbEntity
  8
0
 62
1
100
AcDbSpline
 70
8
 71
3
 72
8
 73
4
 74
0
 40
0
 40
0
 40
0
 40
0
 40
1
 40
1
 40
1
 40
1
 10
120.215528
 20
48.437192
 30
0.0
 10
106.740815
 20
48.437192
 30
0.0
 10
39.926558
 20
48.437192
 30
0.0
 10
12.439761
 20
48.437192
 30
0.0
  0
SPLINE
  5
147
100
AcDbEntity
  8
0
 62
1
100
AcDbSpline
 70
8
 71
3
 72
8
 73
4
 74
0
 40
0
 40
0
 40
0
 40
0
 40
1
 40
1
 40
1
 40
1
 10
12.439761
 20
48.437192
 30
0.0
 10
5.899180
 20
48.437192
 30
0.0
 10
0.597217
 20
53.739140
 30
0.0
 10
0.597217
 20
60.279702
 30
0.0
  0
SPLINE
  5
148
100
AcDbEntity
  8
0
 62
1
100
AcDbSpline
 70
8
 71
3
 72
8
 73
4
 74
0
 40
0
 40
0
 40
0
 40
0
 40
1
 40
1
 40
1
 40
1
 10
0.597217
 20
60.279702
 30
0.0
 10
0.597217
 20
87.225290
 30
0.0
 10
0.597217
 20
152.863408
 30
0.0
 10
0.597217
 20
179.808996
 30
0.0
  0
SPLINE
  5
149
100
AcDbEntity
  8
0
 62
1
100
AcDbSpline
 70
8
 71
3
 72
8
 73
4
 74
0
 40
0
 40
0
 40
0
 40
0
 40
1
 40
1
 40
1
 40
1
 10
0.597217
 20
179.808996
 30
0.0
 10
0.597217
 20
182.949870
 30
0.0
 10
1.844922
 20
185.961963
 30
0.0
 10
4.065849
 20
188.182884
 30
0.0
  0
SPLINE
  5
14a
100
AcDbEntity
  8
0
 62
1
100
AcDbSpline
 70
8
 71
3
 72
8
 73
4
 74
0
 40
0
 40
0
 40
0
 40
0
 40
1
 40
1
 40
1
 40
1
 10
4.065849
 20
188.182884
 30
0.0
 10
6.286464
 20
190.403805
 30
0.0
 10
9.298878
 20
191.651506
 30
0.0
 10
12.439761
 20
191.651506
 30
0.0
  0
SPLINE
  5
14b
100
AcDbEntity
  8
0
 62
1
100
AcDbSpline
 70
8
 71
3
 72
8
 73
4
 74
0
 40
0
 40
0
 40
0
 40
0
 40
1
 40
1
 40
1
 40
1
 10
12.439761
 20
191.651506
 30
0.0
 10
46.716868
 20
191.651506
 30
0.0
 10
145.754313
 20
191.651506
 30
0.0
 10
180.031733
 20
191.651506
 30
0.0
  0
SPLINE
  5
14c
100
AcDbEntity
  8
0
 62
1
100
AcDbSpline
 70
8
 71
3
 72
8
 73
4
 74
0
 40
0
 40
0
 40
0
 40
0
 40
1
 40
1
 40
1
 40
1
 10
180.031733
 20
191.651506
 30
0.0
 10
183.172616
 20
191.651506
 30
0.0
 10
186.184717
 20
190.403805
 30
0.0
 10
188.405645
 20
188.182884
 30
0.0
  0
SPLINE
  5
14d
100
AcDbEntity
  8
0
 62
1
100
AcDbSpline
 70
8
 71
3
 72
8
 73
4
 74
0
 40
0
 40
0
 40
0
 40
0
 40
1
 40
1
 40
1
 40
1
 10
188.405645
 20
188.182884
 30
0.0
 10
190.626572
 20
185.961963
 30
0.0
 10
191.874277
 20
182.949870
 30
0.0
 10
191.874277
 20
179.808996
 30
0.0
  0
SPLINE
  5
14e
100
AcDbEntity
  8
0
 62
1
100
AcDbSpline
 70
8
 71
3
 72
8
 73
4
 74
0
 40
0
 40
0
 40
0
 40
0
 40
1
 40
1
 40
1
 40
1
 10
191.874277
 20
179.808996
 30
0.0
 10
191.874277
 20
170.272008
 30
0.0
 10
191.874277
 20
157.961688
 30
0.0
 10
191.874277
 20
154.865308
 30
0.0
  0
LWPOLYLINE
  5
14f
100
AcDbEntity
  8
0
 62
7
100
AcDbPolyline
 90
4
 70
1
 10
-0.000002
 20
207.427628
 30
0.0
 10
207.427613
 20
207.427628
 30
0.0
 10
207.427613
 20
32.273192
 30
0.0
 10
-0.000002
 20
32.273192
 30
0.0
  0
SPLINE
  5
150
100
AcDbEntity
  8
0
 62
1
100
AcDbSpline
 70
8
 71
3
 72
8
 73
4
 74
0
 40
0
 40
0
 40
0
 40
0
 40
1
 40
1
 40
1
 40
1
 10
185.953213
 20
184.309752
 30
0.0
 10
185.297905
 20
184.309752
 30
0.0
 10
184.766806
 20
184.839423
 30
0.0
 10
184.766806
 20
185.494227
 30
0.0
  0
SPLINE
  5
151
100
AcDbEntity
  8
0
 62
1
100
AcDbSpline
 70
8
 71
3
 72
8
 73
4
 74
0
 40
0
 40
0
 40
0
 40
0
 40
1
 40
1
 40
1
 40
1
 10
184.766806
 20
185.494227
 30
0.0
 10
184.766806
 20
186.147744
 30
0.0
 10
185.297905
 20
186.678272
 30
0.0
 10
185.953213
 20
186.678272
 30
0.0
  0
SPLINE
  5
152
100
AcDbEntity
  8
0
 62
1
100
AcDbSpline
 70
8
 71
3
 72
8
 73
4
 74
0
 40
0
 40
0
 40
0
 40
0
 40
1
 40
1
 40
1
 40
1
 10
185.953213
 20
186.678272
 30
0.0
 10
186.604237
 20
186.678272
 30
0.0
 10
187.135336
 20
186.147744
 30
0.0
 10
187.135336
 20
185.494227
 30
0.0
  0
SPLINE
  5
153
100
AcDbEntity
  8
0
 62
1
100
AcDbSpline
 70
8
 71
3
 72
8
 73
4
 74
0
 40
0
 40
0
 40
0
 40
0
 40
1
 40
1
 40
1
 40
1
 10
187.135336
 20
185.494227
 30
0.0
 10
187.135336
 20
184.839423
 30
0.0
 10
186.604237
 20
184.309752
 30
0.0
 10
185.953213
 20
184.309752
 30
0.0
  0
LWPOLYLINE
  5
154
100
AcDbEntity
  8
0
 62
1
100
AcDbPolyline
 90
1
 70
1
 10
191.874277
 20
154.865308
 30
0.0
  0
SPLINE
  5
155
100
AcDbEntity
  8
0
 62
1
100
AcDbSpline
 70
8
 71
3
 72
8
 73
4
 74
0
 40
0
 40
0
 40
0
 40
0
 40
1
 40
1
 40
1
 40
1
 10
6.399002
 20
184.309752
 30
0.0
 10
5.743694
 20
184.309752
 30
0.0
 10
5.212595
 20
184.839423
 30
0.0
 10
5.212595
 20
185.494227
 30
0.0
  0
SPLINE
  5
156
100
AcDbEntity
  8
0
 62
1
100
AcDbSpline
 70
8
 71
3
 72
8
 73
4
 74
0
 40
0
 40
0
 40
0
 40
0
 40
1
 40
1
 40
1
 40
1
 10
5.212595
 20
185.494227
 30
0.0
 10
5.212595
 20
186.147744
 30
0.0
 10
5.743694
 20
186.678272
 30
0.0
 10
6.399002
 20
186.678272
 30
0.0
  0
SPLINE
  5
157
100
AcDbEntity
  8
0
 62
1
100
AcDbSpline
 70
8
 71
3
 72
8
 73
4
 74
0
 40
0
 40
0
 40
0
 40
0
 40
1
 40
1
 40
1
 40
1
 10
6.399002
 20
186.678272
 30
0.0
 10
7.050026
 20
186.678272
 30
0.0
 10
7.581125
 20
186.147744
 30
0.0
 10
7.581125
 20
185.494227
 30
0.0
  0
SPLINE
  5
158
100
AcDbEntity
  8
0
 62
1
100
AcDbSpline
 70
8
 71
3
 72
8
 73
4
 74
0
 40
0
 40
0
 40
0
 40
0
 40
1
 40
1
 40
1
 40
1
 10
7.581125
 20
185.494227
 30
0.0
 10
7.581125
 20
184.839423
 30
0.0
 10
7.050026
 20
184.309752
 30
0.0
 10
6.399002
 20
184.309752
 30
0.0
  0
LWPOLYLINE
  5
159
100
AcDbEntity
  8
0
 62
1
100
AcDbPolyline
 90
1
 70
1
 10
185.953213
 20
184.309752
 30
0.0
  0
SPLINE
  5
15a
100
AcDbEntity
  8
0
 62
1
100
AcDbSpline
 70
8
 71
3
 72
8
 73
4
 74
0
 40
0
 40
0
 40
0
 40
0
 40
1
 40
1
 40
1
 40
1
 10
6.399002
 20
53.435681
 30
0.0
 10
5.743694
 20
53.435681
 30
0.0
 10
5.212595
 20
53.965352
 30
0.0
 10
5.212595
 20
54.620155
 30
0.0
  0
SPLINE
  5
15b
100
AcDbEntity
  8
0
 62
1
100
AcDbSpline
 70
8
 71
3
 72
8
 73
4
 74
0
 40
0
 40
0
 40
0
 40
0
 40
1
 40
1
 40
1
 40
1
 10
5.212595
 20
54.620155
 30
0.0
 10
5.212595
 20
55.273673
 30
0.0
 10
5.743694
 20
55.804201
 30
0.0
 10
6.399002
 20
55.804201
 30
0.0
  0
SPLINE
  5
15c
100
AcDbEntity
  8
0
 62
1
100
AcDbSpline
 70
8
 71
3
 72
8
 73
4
 74
0
 40
0
 40
0
 40
0
 40
0
 40
1
 40
1
 40
1
 40
1
 10
6.399002
 20
55.804201
 30
0.0
 10
7.050026
 20
55.804201
 30
0.0
 10
7.581125
 20
55.273673
 30
0.0
 10
7.581125
 20
54.620155
 30
0.0
  0
SPLINE
  5
15d
100
AcDbEntity
  8
0
 62
1
100
AcDbSpline
 70
8
 71
3
 72
8
 73
4
 74
0
 40
0
 40
0
 40
0
 40
0
 40
1
 40
1
 40
1
 40
1
 10
7.581125
 20
54.620155
 30
0.0
 10
7.581125
 20
53.965352
 30
0.0
 10
7.050026
 20
53.435681
 30
0.0
 10
6.399002
 20
53.435681
 30
0.0
  0
LWPOLYLINE
  5
15e
100
AcDbEntity
  8
0
 62
1
100
AcDbPolyline
 90
1
 70
1
 10
6.399002
 20
184.309752
 30
0.0
  0
SPLINE
  5
15f
100
AcDbEntity
  8
0
 62
1
100
AcDbSpline
 70
8
 71
3
 72
8
 73
4
 74
0
 40
0
 40
0
 40
0
 40
0
 40
1
 40
1
 40
1
 40
1
 10
185.953213
 20
47.058586
 30
0.0
 10
185.297905
 20
47.058586
 30
0.0
 10
184.766806
 20
47.588257
 30
0.0
 10
184.766806
 20
48.243060
 30
0.0
  0
SPLINE
  5
160
100
AcDbEntity
  8
0
 62
1
100
AcDbSpline
 70
8
 71
3
 72
8
 73
4
 74
0
 40
0
 40
0
 40
0
 40
0
 40
1
 40
1
 40
1
 40
1
 10
184.766806
 20
48.243060
 30
0.0
 10
184.766806
 20
48.896578
 30
0.0
 10
185.297905
 20
49.427106
 30
0.0
 10
185.953213
 20
49.427106
 30
0.0
  0
SPLINE
  5
161
100
AcDbEntity
  8
0
 62
1
100
AcDbSpline
 70
8
 71
3
 72
8
 73
4
 74
0
 40
0
 40
0
 40
0
 40
0
 40
1
 40
1
 40
1
 40
1
 10
185.953213
 20
49.427106
 30
0.0
 10
186.604237
 20
49.427106
 30
0.0
 10
187.135336
 20
48.896578
 30
0.0
 10
187.135336
 20
48.243060
 30
0.0
  0
SPLINE
  5
162
100
AcDbEntity
  8
0
 62
1
100
AcDbSpline
 70
8
 71
3
 72
8
 73
4
 74
0
 40
0
 40
0
 40
0
 40
0
 40
1
 40
1
 40
1
 40
1
 10
187.135336
 20
48.243060
 30
0.0
 10
187.135336
 20
47.588257
 30
0.0
 10
186.604237
 20
47.058586
 30
0.0
 10
185.953213
 20
47.058586
 30
0.0
  0
LWPOLYLINE
  5
163
100
AcDbEntity
  8
0
 62
1
100
AcDbPolyline
 90
1
 70
1
 10
6.399002
 20
53.435681
 30
0.0
  0
SPLINE
  5
164
100
AcDbEntity
  8
0
 62
1
100
AcDbSpline
 70
8
 71
3
 72
8
 73
4
 74
0
 40
0
 40
0
 40
0
 40
0
 40
1
 40
1
 40
1
 40
1
 10
181.547705
 20
95.527117
 30
0.0
 10
180.892397
 20
95.527117
 30
0.0
 10
180.361298
 20
96.056788
 30
0.0
 10
180.361298
 20
96.711591
 30
0.0
  0
SPLINE
  5
165
100
AcDbEntity
  8
0
 62
1
100
AcDbSpline
 70
8
 71
3
 72
8
 73
4
 74
0
 40
0
 40
0
 40
0
 40
0
 40
1
 40
1
 40
1
 40
1
 10
180.361298
 20
96.711591
 30
0.0
 10
180.361298
 20
97.365109
 30
0.0
 10
180.892397
 20
97.895637
 30
0.0
 10
181.547705
 20
97.895637
 30
0.0
  0
SPLINE
  5
166
100
AcDbEntity
  8
0
 62
1
100
AcDbSpline
 70
8
 71
3
 72
8
 73
4
 74
0
 40
0
 40
0
 40
0
 40
0
 40
1
 40
1
 40
1
 40
1
 10
181.547705
 20
97.895637
 30
0.0
 10
182.198729
 20
97.895637
 30
0.0
 10
182.729828
 20
97.365109
 30
0.0
 10
182.729828
 20
96.711591
 30
0.0
  0
SPLINE
  5
167
100
AcDbEntity
  8
0
 62
1
100
AcDbSpline
 70
8
 71
3
 72
8
 73
4
 74
0
 40
0
 40
0
 40
0
 40
0
 40
1
 40
1
 40
1
 40
1
 10
182.729828
 20
96.711591
 30
0.0
 10
182.729828
 20
96.056788
 30
0.0
 10
182.198729
 20
95.527117
 30
0.0
 10
181.547705
 20
95.527117
 30
0.0
  0
LWPOLYLINE
  5
168
100
AcDbEntity
  8
0
 62
1
100
AcDbPolyline
 90
1
 70
1
 10
185.953213
 20
47.058586
 30
0.0
  0
SPLINE
  5
169
100
AcDbEntity
  8
0
 62
1
100
AcDbSpline
 70
8
 71
3
 72
8
 73
4
 74
0
 40
0
 40
0
 40
0
 40
0
 40
1
 40
1
 40
1
 40
1
 10
179.376284
 20
85.541433
 30
0.0
 10
178.720977
 20
85.541433
 30
0.0
 10
178.189878
 20
86.071103
 30
0.0
 10
178.189878
 20
86.725907
 30
0.0
  0
SPLINE
  5
16a
100
AcDbEntity
  8
0
 62
1
100
AcDbSpline
 70
8
 71
3
 72
8
 73
4
 74
0
 40
0
 40
0
 40
0
 40
0
 40
1
 40
1
 40
1
 40
1
 10
178.189878
 20
86.725907
 30
0.0
 10
178.189878
 20
87.379425
 30
0.0
 10
178.720977
 20
87.909952
 30
0.0
 10
179.376284
 20
87.909952
 30
0.0
  0
SPLINE
  5
16b
100
AcDbEntity
  8
0
 62
1
100
AcDbSpline
 70
8
 71
3
 72
8
 73
4
 74
0
 40
0
 40
0
 40
0
 40
0
 40
1
 40
1
 40
1
 40
1
 10
179.376284
 20
87.909952
 30
0.0
 10
180.027309
 20
87.909952
 30
0.0
 10
180.558408
 20
87.379425
 30
0.0
 10
180.558408
 20
86.725907
 30
0.0
  0
SPLINE
  5
16c
100
AcDbEntity
  8
0
 62
1
100
AcDbSpline
 70
8
 71
3
 72
8
 73
4
 74
0
 40
0
 40
0
 40
0
 40
0
 40
1
 40
1
 40
1
 40
1
 10
180.558408
 20
86.725907
 30
0.0
 10
180.558408
 20
86.071103
 30
0.0
 10
180.027309
 20
85.541433
 30
0.0
 10
179.376284
 20
85.541433
 30
0.0
  0
LWPOLYLINE
  5
16d
100
AcDbEntity
  8
0
 62
1
100
AcDbPolyline
 90
1
 70
1
 10
181.547705
 20
95.527117
 30
0.0
  0
SPLINE
  5
16e
100
AcDbEntity
  8
0
 62
1
100
AcDbSpline
 70
8
 71
3
 72
8
 73
4
 74
0
 40
0
 40
0
 40
0
 40
0
 40
1
 40
1
 40
1
 40
1
 10
177.665468
 20
47.058586
 30
0.0
 10
177.010161
 20
47.058586
 30
0.0
 10
176.479062
 20
47.588257
 30
0.0
 10
176.479062
 20
48.243060
 30
0.0
  0
SPLINE
  5
16f
100
AcDbEntity
  8
0
 62
1
100
AcDbSpline
 70
8
 71
3
 72
8
 73
4
 74
0
 40
0
 40
0
 40
0
 40
0
 40
1
 40
1
 40
1
 40
1
 10
176.479062
 20
48.243060
 30
0.0
 10
176.479062
 20
48.896578
 30
0.0
 10
177.010161
 20
49.427106
 30
0.0
 10
177.665468
 20
49.427106
 30
0.0
  0
SPLINE
  5
170
100
AcDbEntity
  8
0
 62
1
100
AcDbSpline
 70
8
 71
3
 72
8
 73
4
 74
0
 40
0
 40
0
 40
0
 40
0
 40
1
 40
1
 40
1
 40
1
 10
177.665468
 20
49.427106
 30
0.0
 10
178.316493
 20
49.427106
 30
0.0
 10
178.847592
 20
48.896578
 30
0.0
 10
178.847592
 20
48.243060
 30
0.0
  0
SPLINE
  5
171
100
AcDbEntity
  8
0
 62
1
100
AcDbSpline
 70
8
 71
3
 72
8
 73
4
 74
0
 40
0
 40
0
 40
0
 40
0
 40
1
 40
1
 40
1
 40
1
 10
178.847592
 20
48.243060
 30
0.0
 10
178.847592
 20
47.588257
 30
0.0
 10
178.316493
 20
47.058586
 30
0.0
 10
177.665468
 20
47.058586
 30
0.0
  0
LWPOLYLINE
  5
172
100
AcDbEntity
  8
0
 62
1
100
AcDbPolyline
 90
1
 70
1
 10
179.376284
 20
85.541433
 30
0.0
  0
SPLINE
  5
173
100
AcDbEntity
  8
0
 62
1
100
AcDbSpline
 70
8
 71
3
 72
8
 73
4
 74
0
 40
0
 40
0
 40
0
 40
0
 40
1
 40
1
 40
1
 40
1
 10
177.665468
 20
184.309752
 30
0.0
 10
177.010161
 20
184.309752
 30
0.0
 10
176.479062
 20
184.839423
 30
0.0
 10
176.479062
 20
185.494227
 30
0.0
  0
SPLINE
  5
174
100
AcDbEntity
  8
0
 62
1
100
AcDbSpline
 70
8
 71
3
 72
8
 73
4
 74
0
 40
0
 40
0
 40
0
 40
0
 40
1
 40
1
 40
1
 40
1
 10
176.479062
 20
185.494227
 30
0.0
 10
176.479062
 20
186.147744
 30
0.0
 10
177.010161
 20
186.678272
 30
0.0
 10
177.665468
 20
186.678272
 30
0.0
  0
SPLINE
  5
175
100
AcDbEntity
  8
0
 62
1
100
AcDbSpline
 70
8
 71
3
 72
8
 73
4
 74
0
 40
0
 40
0
 40
0
 40
0
 40
1
 40
1
 40
1
 40
1
 10
177.665468
 20
186.678272
 30
0.0
 10
178.316493
 20
186.678272
 30
0.0
 10
178.847592
 20
186.147744
 30
0.0
 10
178.847592
 20
185.494227
 30
0.0
  0
SPLINE
  5
176
100
AcDbEntity
  8
0
 62
1
100
AcDbSpline
 70
8
 71
3
 72
8
 73
4
 74
0
 40
0
 40
0
 40
0
 40
0
 40
1
 40
1
 40
1
 40
1
 10
178.847592
 20
185.494227
 30
0.0
 10
178.847592
 20
184.839423
 30
0.0
 10
178.316493
 20
184.309752
 30
0.0
 10
177.665468
 20
184.309752
 30
0.0
  0
LWPOLYLINE
  5
177
100
AcDbEntity
  8
0
 62
1
100
AcDbPolyline
 90
1
 70
1
 10
177.665468
 20
47.058586
 30
0.0
  0
SPLINE
  5
178
100
AcDbEntity
  8
0
 62
1
100
AcDbSpline
 70
8
 71
3
 72
8
 73
4
 74
0
 40
0
 40
0
 40
0
 40
0
 40
1
 40
1
 40
1
 40
1
 10
14.627212
 20
184.309752
 30
0.0
 10
13.971905
 20
184.309752
 30
0.0
 10
13.440806
 20
184.839423
 30
0.0
 10
13.440806
 20
185.494227
 30
0.0
  0
SPLINE
  5
179
100
AcDbEntity
  8
0
 62
1
100
AcDbSpline
 70
8
 71
3
 72
8
 73
4
 74
0
 40
0
 40
0
 40
0
 40
0
 40
1
 40
1
 40
1
 40
1
 10
13.440806
 20
185.494227
 30
0.0
 10
13.440806
 20
186.147744
 30
0.0
 10
13.971905
 20
186.678272
 30
0.0
 10
14.627212
 20
186.678272
 30
0.0
  0
SPLINE
  5
17a
100
AcDbEntity
  8
0
 62
1
100
AcDbSpline
 70
8
 71
3
 72
8
 73
4
 74
0
 40
0
 40
0
 40
0
 40
0
 40
1
 40
1
 40
1
 40
1
 10
14.627212
 20
186.678272
 30
0.0
 10
15.278237
 20
186.678272
 30
0.0
 10
15.809336
 20
186.147744
 30
0.0
 10
15.809336
 20
185.494227
 30
0.0
  0
SPLINE
  5
17b
100
AcDbEntity
  8
0
 62
1
100
AcDbSpline
 70
8
 71
3
 72
8
 73
4
 74
0
 40
0
 40
0
 40
0
 40
0
 40
1
 40
1
 40
1
 40
1
 10
15.809336
 20
185.494227
 30
0.0
 10
15.809336
 20
184.839423
 30
0.0
 10
15.278237
 20
184.309752
 30
0.0
 10
14.627212
 20
184.309752
 30
0.0
  0
LWPOLYLINE
  5
17c
100
AcDbEntity
  8
0
 62
1
100
AcDbPolyline
 90
1
 70
1
 10
177.665468
 20
184.309752
 30
0.0
  0
SPLINE
  5
17d
100
AcDbEntity
  8
0
 62
1
100
AcDbSpline
 70
8
 71
3
 72
8
 73
4
 74
0
 40
0
 40
0
 40
0
 40
0
 40
1
 40
1
 40
1
 40
1
 10
14.627212
 20
53.435681
 30
0.0
 10
13.971905
 20
53.435681
 30
0.0
 10
13.440806
 20
53.965352
 30
0.0
 10
13.440806
 20
54.620155
 30
0.0
  0
SPLINE
  5
17e
100
AcDbEntity
  8
0
 62
1
100
AcDbSpline
 70
8
 71
3
 72
8
 73
4
 74
0
 40
0
 40
0
 40
0
 40
0
 40
1
 40
1
 40
1
 40
1
 10
13.440806
 20
54.620155
 30
0.0
 10
13.440806
 20
55.273673
 30
0.0
 10
13.971905
 20
55.804201
 30
0.0
 10
14.627212
 20
55.804201
 30
0.0
  0
SPLINE
  5
17f
100
AcDbEntity
  8
0
 62
1
100
AcDbSpline
 70
8
 71
3
 72
8
 73
4
 74
0
 40
0
 40
0
 40
0
 40
0
 40
1
 40
1
 40
1
 40
1
 10
14.627212
 20
55.804201
 30
0.0
 10
15.278237
 20
55.804201
 30
0.0
 10
15.809336
 20
55.273673
 30
0.0
 10
15.809336
 20
54.620155
 30
0.0
  0
SPLINE
  5
180
100
AcDbEntity
  8
0
 62
1
100
AcDbSpline
 70
8
 71
3
 72
8
 73
4
 74
0
 40
0
 40
0
 40
0
 40
0
 40
1
 40
1
 40
1
 40
1
 10
15.809336
 20
54.620155
 30
0.0
 10
15.809336
 20
53.965352
 30
0.0
 10
15.278237
 20
53.435681
 30
0.0
 10
14.627212
 20
53.435681
 30
0.0
  0
LWPOLYLINE
  5
181
100
AcDbEntity
  8
0
 62
1
100
AcDbPolyline
 90
1
 70
1
 10
14.627212
 20
184.309752
 30
0.0
  0
SPLINE
  5
182
100
AcDbEntity
  8
0
 62
1
100
AcDbSpline
 70
8
 71
3
 72
8
 73
4
 74
0
 40
0
 40
0
 40
0
 40
0
 40
1
 40
1
 40
1
 40
1
 10
185.953213
 20
109.824297
 30
0.0
 10
185.297905
 20
109.824297
 30
0.0
 10
184.766806
 20
110.353967
 30
0.0
 10
184.766806
 20
111.008771
 30
0.0
  0
SPLINE
  5
183
100
AcDbEntity
  8
0
 62
1
100
AcDbSpline
 70
8
 71
3
 72
8
 73
4
 74
0
 40
0
 40
0
 40
0
 40
0
 40
1
 40
1
 40
1
 40
1
 10
184.766806
 20
111.008771
 30
0.0
 10
184.766806
 20
111.662288
 30
0.0
 10
185.297905
 20
112.192816
 30
0.0
 10
185.953213
 20
112.192816
 30
0.0
  0
SPLINE
  5
184
100
AcDbEntity
  8
0
 62
1
100
AcDbSpline
 70
8
 71
3
 72
8
 73
4
 74
0
 40
0
 40
0
 40
0
 40
0
 40
1
 40
1
 40
1
 40
1
 10
185.953213
 20
112.192816
 30
0.0
 10
186.604237
 20
112.192816
 30
0.0
 10
187.135336
 20
111.662288
 30
0.0
 10
187.135336
 20
111.008771
 30
0.0
  0
SPLINE
  5
185
100
AcDbEntity
  8
0
 62
1
100
AcDbSpline
 70
8
 71
3
 72
8
 73
4
 74
0
 40
0
 40
0
 40
0
 40
0
 40
1
 40
1
 40
1
 40
1
 10
187.135336
 20
111.008771
 30
0.0
 10
187.135336
 20
110.353967
 30
0.0
 10
186.604237
 20
109.824297
 30
0.0
 10
185.953213
 20
109.824297
 30
0.0
  0
LWPOLYLINE
  5
186
100
AcDbEntity
  8
0
 62
1
100
AcDbPolyline
 90
1
 70
1
 10
14.627212
 20
53.435681
 30
0.0
  0
LWPOLYLINE
  5
187
100
AcDbEntity
  8
0
 62
1
100
AcDbPolyline
 90
1
 70
1
 10
185.953213
 20
109.824297
 30
0.0
  0
ENDSEC
  0
SECTION
  2
OBJECTS
  0
DICTIONARY
  5
C
330
0
100
AcDbDictionary
  3
ACAD_GROUP
350
D
  3
ACAD_MLINESTYLE
350
17
  0
DICTIONARY
  5
D
330
C
100
AcDbDictionary
  0
DICTIONARY
  5
1A
330
C
100
AcDbDictionary
  0
DICTIONARY
  5
17
330
C
100
AcDbDictionary
  3
STANDARD
350
18
  0
DICTIONARY
  5
19
330
C
100
AcDbDictionary
  0
ENDSEC
  0
EOF
