  0
SECTION
  2
HEADER
  9
$ACADVER
  1
AC1014
  9
$HANDSEED
  5
FFFF
  9
$MEASUREMENT
 70
     1
  0
ENDSEC
  0
SECTION
  2
TABLES
  0
TABLE
  2
VPORT
  5
8
330
0
100
AcDbSymbolTable
 70
     4
  0
VPORT
  5
2E
330
8
100
AcDbSymbolTableRecord
100
AcDbViewportTableRecord
  2
*ACTIVE
 70
     0
 10
0.0
 20
0.0
 11
1.0
 21
1.0
 12
210.0
 22
148.5
 13
0.0
 23
0.0
 14
10.0
 24
10.0
 15
10.0
 25
10.0
 16
0.0
 26
0.0
 36
1.0
 17
0.0
 27
0.0
 37
0.0
 40
341.0
 41
1.24
 42
50.0
 43
0.0
 44
0.0
 50
0.0
 51
0.0
 71
     0
 72
   100
 73
     1
 74
     3
 75
     0
 76
     0
 77
     0
 78
     0
  0
ENDTAB
  0
TABLE
  2
LTYPE
  5
5
330
0
100
AcDbSymbolTable
 70
     1
  0
LTYPE
  5
14
330
5
100
AcDbSymbolTableRecord
100
AcDbLinetypeTableRecord
  2
BYBLOCK
 70
     0
  3

 72
    65
 73
     0
 40
0.0
  0
LTYPE
  5
15
330
5
100
AcDbSymbolTableRecord
100
AcDbLinetypeTableRecord
  2
BYLAYER
 70
     0
  3

 72
    65
 73
     0
 40
0.0
  0
LTYPE
  5
16
330
5
100
AcDbSymbolTableRecord
100
AcDbLinetypeTableRecord
  2
CONTINUOUS
 70
     0
  3
Solid line
 72
    65
 73
     0
 40
0.0
  0
ENDTAB
  0
TABLE
  2
LAYER
  5
2
100
AcDbSymbolTable
 70
1
  0
LAYER
  5
50
100
AcDbSymbolTableRecord
100
AcDbLayerTableRecord
  2
0
 70
0
  6
CONTINUOUS
  0
ENDTAB
  0
TABLE
  2
STYLE
  5
3
330
0
100
AcDbSymbolTable
 70
     1
  0
STYLE
  5
11
330
3
100
AcDbSymbolTableRecord
100
AcDbTextStyleTableRecord
  2
STANDARD
 70
     0
 40
0.0
 41
1.0
 50
0.0
 71
     0
 42
2.5
  3
txt
  4

  0
ENDTAB
  0
TABLE
  2
VIEW
  5
6
330
0
100
AcDbSymbolTable
 70
     0
  0
ENDTAB
  0
TABLE
  2
UCS
  5
7
330
0
100
AcDbSymbolTable
 70
     0
  0
ENDTAB
  0
TABLE
  2
APPID
  5
9
330
0
100
AcDbSymbolTable
 70
     2
  0
APPID
  5
12
330
9
100
AcDbSymbolTableRecord
100
AcDbRegAppTableRecord
  2
ACAD
 70
     0
  0
ENDTAB
  0
TABLE
  2
DIMSTYLE
  5
A
330
0
100
AcDbSymbolTable
 70
     1
  0
DIMSTYLE
105
27
330
A
100
AcDbSymbolTableRecord
100
AcDbDimStyleTableRecord
  2
ISO-25
 70
     0
  3

  4

  5

  6

  7

 40
1.0
 41
2.5
 42
0.625
 43
3.75
 44
1.25
 45
0.0
 46
0.0
 47
0.0
 48
0.0
140
2.5
141
2.5
142
0.0
143
0.03937007874016
144
1.0
145
0.0
146
1.0
147
0.625
 71
     0
 72
     0
 73
     0
 74
     0
 75
     0
 76
     0
 77
     1
 78
     8
170
     0
171
     3
172
     1
173
     0
174
     0
175
     0
176
     0
177
     0
178
     0
270
     2
271
     2
272
     2
273
     2
274
     3
340
11
275
     0
280
     0
281
     0
282
     0
283
     0
284
     8
285
     0
286
     0
287
     3
288
     0
  0
ENDTAB
  0
TABLE
  2
BLOCK_RECORD
  5
1
330
0
100
AcDbSymbolTable
 70
     1
  0
BLOCK_RECORD
  5
1F
330
1
100
AcDbSymbolTableRecord
100
AcDbBlockTableRecord
  2
*MODEL_SPACE
  0
BLOCK_RECORD
  5
1B
330
1
100
AcDbSymbolTableRecord
100
AcDbBlockTableRecord
  2
*PAPER_SPACE
  0
ENDTAB
  0
ENDSEC
  0
SECTION
  2
BLOCKS
  0
BLOCK
  5
20
330
1F
100
AcDbEntity
  8
0
100
AcDbBlockBegin
  2
*MODEL_SPACE
 70
     0
 10
0.0
 20
0.0
 30
0.0
  3
*MODEL_SPACE
  1

  0
ENDBLK
  5
21
330
1F
100
AcDbEntity
  8
0
100
AcDbBlockEnd
  0
BLOCK
  5
1C
330
1B
100
AcDbEntity
 67
     1
  8
0
100
AcDbBlockBegin
  2
*PAPER_SPACE
  1

  0
ENDBLK
  5
1D
330
1B
100
AcDbEntity
 67
     1
  8
0
100
AcDbBlockEnd
  0
ENDSEC
  0
SECTION
  2
ENTITIES
  0
SPLINE
  5
100
100
AcDbEntity
  8
0
 62
1
100
AcDbSpline
 70
8
 71
3
 72
8
 73
4
 74
0
 40
0
 40
0
 40
0
 40
0
 40
1
 40
1
 40
1
 40
1
 10
176.307970
 20
103.517602
 30
0.0
 10
176.307970
 20
103.366790
 30
0.0
 10
176.239707
 20
103.223914
 30
0.0
 10
176.122497
 20
103.129193
 30
0.0
  0
SPLINE
  5
101
100
AcDbEntity
  8
0
 62
1
100
AcDbSpline
 70
8
 71
3
 72
8
 73
4
 74
0
 40
0
 40
0
 40
0
 40
0
 40
1
 40
1
 40
1
 40
1
 10
176.122497
 20
103.129193
 30
0.0
 10
176.005287
 20
103.034208
 30
0.0
 10
175.851564
 20
102.997431
 30
0.0
 10
175.703926
 20
103.028652
 30
0.0
  0
SPLINE
  5
102
100
AcDbEntity
  8
0
 62
1
100
AcDbSpline
 70
8
 71
3
 72
8
 73
4
 74
0
 40
0
 40
0
 40
0
 40
0
 40
1
 40
1
 40
1
 40
1
 10
175.703926
 20
103.028652
 30
0.0
 10
171.241993
 20
103.977185
 30
0.0
 10
143.434548
 20
109.887722
 30
0.0
 10
139.395154
 20
110.746296
 30
0.0
  0
SPLINE
  5
103
100
AcDbEntity
  8
0
 62
1
100
AcDbSpline
 70
8
 71
3
 72
8
 73
4
 74
0
 40
0
 40
0
 40
0
 40
0
 40
1
 40
1
 40
1
 40
1
 10
139.395154
 20
110.746296
 30
0.0
 10
139.265508
 20
110.774077
 30
0.0
 10
139.152002
 20
110.851865
 30
0.0
 10
139.079771
 20
110.963255
 30
0.0
  0
SPLINE
  5
104
100
AcDbEntity
  8
0
 62
1
100
AcDbSpline
 70
8
 71
3
 72
8
 73
4
 74
0
 40
0
 40
0
 40
0
 40
0
 40
1
 40
1
 40
1
 40
1
 10
139.079771
 20
110.963255
 30
0.0
 10
139.007804
 20
111.074380
 30
0.0
 10
138.982669
 20
111.209847
 30
0.0
 10
139.010186
 20
111.339493
 30
0.0
  0
SPLINE
  5
105
100
AcDbEntity
  8
0
 62
1
100
AcDbSpline
 70
8
 71
3
 72
8
 73
4
 74
0
 40
0
 40
0
 40
0
 40
0
 40
1
 40
1
 40
1
 40
1
 10
139.010186
 20
111.339493
 30
0.0
 10
139.095381
 20
111.740073
 30
0.0
 10
139.215238
 20
112.304166
 30
0.0
 10
139.300433
 20
112.704481
 30
0.0
  0
SPLINE
  5
106
100
AcDbEntity
  8
0
 62
1
100
AcDbSpline
 70
8
 71
3
 72
8
 73
4
 74
0
 40
0
 40
0
 40
0
 40
0
 40
1
 40
1
 40
1
 40
1
 10
139.300433
 20
112.704481
 30
0.0
 10
139.357848
 20
112.974621
 30
0.0
 10
139.185340
 20
113.240263
 30
0.0
 10
138.915200
 20
113.297678
 30
0.0
  0
SPLINE
  5
107
100
AcDbEntity
  8
0
 62
1
100
AcDbSpline
 70
8
 71
3
 72
8
 73
4
 74
0
 40
0
 40
0
 40
0
 40
0
 40
1
 40
1
 40
1
 40
1
 10
138.915200
 20
113.297678
 30
0.0
 10
136.289475
 20
113.855685
 30
0.0
 10
123.884750
 20
116.492527
 30
0.0
 10
121.259025
 20
117.050534
 30
0.0
  0
SPLINE
  5
108
100
AcDbEntity
  8
0
 62
1
100
AcDbSpline
 70
8
 71
3
 72
8
 73
4
 74
0
 40
0
 40
0
 40
0
 40
0
 40
1
 40
1
 40
1
 40
1
 10
121.259025
 20
117.050534
 30
0.0
 10
120.988885
 20
117.107949
 30
0.0
 10
120.816377
 20
117.373591
 30
0.0
 10
120.873791
 20
117.643731
 30
0.0
  0
SPLINE
  5
109
100
AcDbEntity
  8
0
 62
1
100
AcDbSpline
 70
8
 71
3
 72
8
 73
4
 74
0
 40
0
 40
0
 40
0
 40
0
 40
1
 40
1
 40
1
 40
1
 10
120.873791
 20
117.643731
 30
0.0
 10
120.949727
 20
118.000125
 30
0.0
 10
121.051856
 20
118.481403
 30
0.0
 10
121.127791
 20
118.838062
 30
0.0
  0
SPLINE
  5
10a
100
AcDbEntity
  8
0
 62
1
100
AcDbSpline
 70
8
 71
3
 72
8
 73
4
 74
0
 40
0
 40
0
 40
0
 40
0
 40
1
 40
1
 40
1
 40
1
 10
121.127791
 20
118.838062
 30
0.0
 10
121.185206
 20
119.107938
 30
0.0
 10
121.012698
 20
119.373580
 30
0.0
 10
120.742558
 20
119.430994
 30
0.0
  0
SPLINE
  5
10b
100
AcDbEntity
  8
0
 62
1
100
AcDbSpline
 70
8
 71
3
 72
8
 73
4
 74
0
 40
0
 40
0
 40
0
 40
0
 40
1
 40
1
 40
1
 40
1
 10
120.742558
 20
119.430994
 30
0.0
 10
118.073441
 20
119.998262
 30
0.0
 10
105.287451
 20
122.716067
 30
0.0
 10
102.618070
 20
123.283334
 30
0.0
  0
SPLINE
  5
10c
100
AcDbEntity
  8
0
 62
1
100
AcDbSpline
 70
8
 71
3
 72
8
 73
4
 74
0
 40
0
 40
0
 40
0
 40
0
 40
1
 40
1
 40
1
 40
1
 10
102.618070
 20
123.283334
 30
0.0
 10
102.348195
 20
123.340749
 30
0.0
 10
102.082553
 20
123.168505
 30
0.0
 10
102.025139
 20
122.898365
 30
0.0
  0
SPLINE
  5
10d
100
AcDbEntity
  8
0
 62
1
100
AcDbSpline
 70
8
 71
3
 72
8
 73
4
 74
0
 40
0
 40
0
 40
0
 40
0
 40
1
 40
1
 40
1
 40
1
 10
102.025139
 20
122.898365
 30
0.0
 10
101.941795
 20
122.506252
 30
0.0
 10
101.825378
 20
121.958828
 30
0.0
 10
101.742034
 20
121.566715
 30
0.0
  0
SPLINE
  5
10e
100
AcDbEntity
  8
0
 62
1
100
AcDbSpline
 70
8
 71
3
 72
8
 73
4
 74
0
 40
0
 40
0
 40
0
 40
0
 40
1
 40
1
 40
1
 40
1
 10
101.742034
 20
121.566715
 30
0.0
 10
101.684620
 20
121.296575
 30
0.0
 10
101.419243
 20
121.124066
 30
0.0
 10
101.149103
 20
121.181481
 30
0.0
  0
SPLINE
  5
10f
100
AcDbEntity
  8
0
 62
1
100
AcDbSpline
 70
8
 71
3
 72
8
 73
4
 74
0
 40
0
 40
0
 40
0
 40
0
 40
1
 40
1
 40
1
 40
1
 10
101.149103
 20
121.181481
 30
0.0
 10
98.521261
 20
121.740017
 30
0.0
 10
86.100396
 20
124.380299
 30
0.0
 10
83.472819
 20
124.938835
 30
0.0
  0
SPLINE
  5
110
100
AcDbEntity
  8
0
 62
1
100
AcDbSpline
 70
8
 71
3
 72
8
 73
4
 74
0
 40
0
 40
0
 40
0
 40
0
 40
1
 40
1
 40
1
 40
1
 10
83.472819
 20
124.938835
 30
0.0
 10
83.202680
 20
124.996250
 30
0.0
 10
82.937038
 20
124.823741
 30
0.0
 10
82.879623
 20
124.553601
 30
0.0
  0
SPLINE
  5
111
100
AcDbEntity
  8
0
 62
1
100
AcDbSpline
 70
8
 71
3
 72
8
 73
4
 74
0
 40
0
 40
0
 40
0
 40
0
 40
1
 40
1
 40
1
 40
1
 10
82.879623
 20
124.553601
 30
0.0
 10
82.538046
 20
122.946519
 30
0.0
 10
81.452196
 20
117.837935
 30
0.0
 10
81.110619
 20
116.230589
 30
0.0
  0
SPLINE
  5
112
100
AcDbEntity
  8
0
 62
1
100
AcDbSpline
 70
8
 71
3
 72
8
 73
4
 74
0
 40
0
 40
0
 40
0
 40
0
 40
1
 40
1
 40
1
 40
1
 10
81.110619
 20
116.230589
 30
0.0
 10
81.053205
 20
115.960449
 30
0.0
 10
80.787563
 20
115.788205
 30
0.0
 10
80.517423
 20
115.845620
 30
0.0
  0
SPLINE
  5
113
100
AcDbEntity
  8
0
 62
1
100
AcDbSpline
 70
8
 71
3
 72
8
 73
4
 74
0
 40
0
 40
0
 40
0
 40
0
 40
1
 40
1
 40
1
 40
1
 10
80.517423
 20
115.845620
 30
0.0
 10
77.875823
 20
116.407066
 30
0.0
 10
65.332985
 20
119.073013
 30
0.0
 10
62.691385
 20
119.634724
 30
0.0
  0
SPLINE
  5
114
100
AcDbEntity
  8
0
 62
1
100
AcDbSpline
 70
8
 71
3
 72
8
 73
4
 74
0
 40
0
 40
0
 40
0
 40
0
 40
1
 40
1
 40
1
 40
1
 10
62.691385
 20
119.634724
 30
0.0
 10
62.421246
 20
119.692139
 30
0.0
 10
62.155869
 20
119.519630
 30
0.0
 10
62.098454
 20
119.249490
 30
0.0
  0
SPLINE
  5
115
100
AcDbEntity
  8
0
 62
1
100
AcDbSpline
 70
8
 71
3
 72
8
 73
4
 74
0
 40
0
 40
0
 40
0
 40
0
 40
1
 40
1
 40
1
 40
1
 10
62.098454
 20
119.249490
 30
0.0
 10
61.954785
 20
118.574801
 30
0.0
 10
61.697875
 20
117.365653
 30
0.0
 10
61.554471
 20
116.690965
 30
0.0
  0
SPLINE
  5
116
100
AcDbEntity
  8
0
 62
1
100
AcDbSpline
 70
8
 71
3
 72
8
 73
4
 74
0
 40
0
 40
0
 40
0
 40
0
 40
1
 40
1
 40
1
 40
1
 10
61.554471
 20
116.690965
 30
0.0
 10
61.497056
 20
116.420825
 30
0.0
 10
61.231415
 20
116.248316
 30
0.0
 10
60.961540
 20
116.305731
 30
0.0
  0
SPLINE
  5
117
100
AcDbEntity
  8
0
 62
1
100
AcDbSpline
 70
8
 71
3
 72
8
 73
4
 74
0
 40
0
 40
0
 40
0
 40
0
 40
1
 40
1
 40
1
 40
1
 10
60.961540
 20
116.305731
 30
0.0
 10
56.905212
 20
117.168009
 30
0.0
 10
28.886895
 20
123.123261
 30
0.0
 10
24.830568
 20
123.985540
 30
0.0
  0
SPLINE
  5
118
100
AcDbEntity
  8
0
 62
1
100
AcDbSpline
 70
8
 71
3
 72
8
 73
4
 74
0
 40
0
 40
0
 40
0
 40
0
 40
1
 40
1
 40
1
 40
1
 10
24.830568
 20
123.985540
 30
0.0
 10
24.560693
 20
124.042954
 30
0.0
 10
24.295051
 20
123.870446
 30
0.0
 10
24.237636
 20
123.600570
 30
0.0
  0
SPLINE
  5
119
100
AcDbEntity
  8
0
 62
1
100
AcDbSpline
 70
8
 71
3
 72
8
 73
4
 74
0
 40
0
 40
0
 40
0
 40
0
 40
1
 40
1
 40
1
 40
1
 10
24.237636
 20
123.600570
 30
0.0
 10
23.671428
 20
120.935947
 30
0.0
 10
20.962624
 20
108.193063
 30
0.0
 10
20.396415
 20
105.528439
 30
0.0
  0
SPLINE
  5
11a
100
AcDbEntity
  8
0
 62
1
100
AcDbSpline
 70
8
 71
3
 72
8
 73
4
 74
0
 40
0
 40
0
 40
0
 40
0
 40
1
 40
1
 40
1
 40
1
 10
20.396415
 20
105.528439
 30
0.0
 10
20.339001
 20
105.258564
 30
0.0
 10
20.511509
 20
104.992922
 30
0.0
 10
20.781384
 20
104.935507
 30
0.0
  0
SPLINE
  5
11b
100
AcDbEntity
  8
0
 62
1
100
AcDbSpline
 70
8
 71
3
 72
8
 73
4
 74
0
 40
0
 40
0
 40
0
 40
0
 40
1
 40
1
 40
1
 40
1
 10
20.781384
 20
104.935507
 30
0.0
 10
22.394020
 20
104.592871
 30
0.0
 10
27.531699
 20
103.500669
 30
0.0
 10
29.144334
 20
103.158033
 30
0.0
  0
SPLINE
  5
11c
100
AcDbEntity
  8
0
 62
1
100
AcDbSpline
 70
8
 71
3
 72
8
 73
4
 74
0
 40
0
 40
0
 40
0
 40
0
 40
1
 40
1
 40
1
 40
1
 10
29.144334
 20
103.158033
 30
0.0
 10
29.414209
 20
103.100618
 30
0.0
 10
29.586718
 20
102.834976
 30
0.0
 10
29.529303
 20
102.564836
 30
0.0
  0
SPLINE
  5
11d
100
AcDbEntity
  8
0
 62
1
100
AcDbSpline
 70
8
 71
3
 72
8
 73
4
 74
0
 40
0
 40
0
 40
0
 40
0
 40
1
 40
1
 40
1
 40
1
 10
29.529303
 20
102.564836
 30
0.0
 10
28.981351
 20
99.986996
 30
0.0
 10
26.433149
 20
87.997911
 30
0.0
 10
25.885197
 20
85.420071
 30
0.0
  0
SPLINE
  5
11e
100
AcDbEntity
  8
0
 62
1
100
AcDbSpline
 70
8
 71
3
 72
8
 73
4
 74
0
 40
0
 40
0
 40
0
 40
0
 40
1
 40
1
 40
1
 40
1
 10
25.885197
 20
85.420071
 30
0.0
 10
25.827782
 20
85.150196
 30
0.0
 10
25.562141
 20
84.977687
 30
0.0
 10
25.292001
 20
85.035102
 30
0.0
  0
SPLINE
  5
11f
100
AcDbEntity
  8
0
 62
1
100
AcDbSpline
 70
8
 71
3
 72
8
 73
4
 74
0
 40
0
 40
0
 40
0
 40
0
 40
1
 40
1
 40
1
 40
1
 10
25.292001
 20
85.035102
 30
0.0
 10
24.405911
 20
85.223486
 30
0.0
 10
22.544568
 20
85.619038
 30
0.0
 10
21.657155
 20
85.807687
 30
0.0
  0
SPLINE
  5
120
100
AcDbEntity
  8
0
 62
1
100
AcDbSpline
 70
8
 71
3
 72
8
 73
4
 74
0
 40
0
 40
0
 40
0
 40
0
 40
1
 40
1
 40
1
 40
1
 10
21.657155
 20
85.807687
 30
0.0
 10
21.527245
 20
85.835203
 30
0.0
 10
21.391778
 20
85.810068
 30
0.0
 10
21.280388
 20
85.737572
 30
0.0
  0
SPLINE
  5
121
100
AcDbEntity
  8
0
 62
1
100
AcDbSpline
 70
8
 71
3
 72
8
 73
4
 74
0
 40
0
 40
0
 40
0
 40
0
 40
1
 40
1
 40
1
 40
1
 10
21.280388
 20
85.737572
 30
0.0
 10
21.168999
 20
85.665076
 30
0.0
 10
21.091211
 20
85.551040
 30
0.0
 10
21.063959
 20
85.420865
 30
0.0
  0
SPLINE
  5
122
100
AcDbEntity
  8
0
 62
1
100
AcDbSpline
 70
8
 71
3
 72
8
 73
4
 74
0
 40
0
 40
0
 40
0
 40
0
 40
1
 40
1
 40
1
 40
1
 10
21.063959
 20
85.420865
 30
0.0
 10
20.507011
 20
82.759152
 30
0.0
 10
17.855092
 20
70.081091
 30
0.0
 10
17.299997
 20
67.427315
 30
0.0
  0
SPLINE
  5
123
100
AcDbEntity
  8
0
 62
1
100
AcDbSpline
 70
8
 71
3
 72
8
 73
4
 74
0
 40
0
 40
0
 40
0
 40
0
 40
1
 40
1
 40
1
 40
1
 10
17.299997
 20
67.427315
 30
0.0
 10
17.243376
 20
67.157705
 30
0.0
 10
17.415884
 20
66.893121
 30
0.0
 10
17.685495
 20
66.835706
 30
0.0
  0
SPLINE
  5
124
100
AcDbEntity
  8
0
 62
1
100
AcDbSpline
 70
8
 71
3
 72
8
 73
4
 74
0
 40
0
 40
0
 40
0
 40
0
 40
1
 40
1
 40
1
 40
1
 10
17.685495
 20
66.835706
 30
0.0
 10
18.559942
 20
66.649968
 30
0.0
 10
20.386361
 20
66.261824
 30
0.0
 10
21.262132
 20
66.075557
 30
0.0
  0
SPLINE
  5
125
100
AcDbEntity
  8
0
 62
1
100
AcDbSpline
 70
8
 71
3
 72
8
 73
4
 74
0
 40
0
 40
0
 40
0
 40
0
 40
1
 40
1
 40
1
 40
1
 10
21.262132
 20
66.075557
 30
0.0
 10
21.391778
 20
66.048040
 30
0.0
 10
21.505284
 20
65.969988
 30
0.0
 10
21.577515
 20
65.858863
 30
0.0
  0
SPLINE
  5
126
100
AcDbEntity
  8
0
 62
1
100
AcDbSpline
 70
8
 71
3
 72
8
 73
4
 74
0
 40
0
 40
0
 40
0
 40
0
 40
1
 40
1
 40
1
 40
1
 10
21.577515
 20
65.858863
 30
0.0
 10
21.649747
 20
65.747473
 30
0.0
 10
21.674882
 20
65.612271
 30
0.0
 10
21.647101
 20
65.482625
 30
0.0
  0
SPLINE
  5
127
100
AcDbEntity
  8
0
 62
1
100
AcDbSpline
 70
8
 71
3
 72
8
 73
4
 74
0
 40
0
 40
0
 40
0
 40
0
 40
1
 40
1
 40
1
 40
1
 10
21.647101
 20
65.482625
 30
0.0
 10
21.084332
 20
62.834141
 30
0.0
 10
18.405955
 20
50.233073
 30
0.0
 10
17.842922
 20
47.584590
 30
0.0
  0
SPLINE
  5
128
100
AcDbEntity
  8
0
 62
1
100
AcDbSpline
 70
8
 71
3
 72
8
 73
4
 74
0
 40
0
 40
0
 40
0
 40
0
 40
1
 40
1
 40
1
 40
1
 10
17.842922
 20
47.584590
 30
0.0
 10
17.815405
 20
47.454944
 30
0.0
 10
17.840540
 20
47.319741
 30
0.0
 10
17.912772
 20
47.208351
 30
0.0
  0
SPLINE
  5
129
100
AcDbEntity
  8
0
 62
1
100
AcDbSpline
 70
8
 71
3
 72
8
 73
4
 74
0
 40
0
 40
0
 40
0
 40
0
 40
1
 40
1
 40
1
 40
1
 10
17.912772
 20
47.208351
 30
0.0
 10
17.985003
 20
47.097226
 30
0.0
 10
18.098245
 20
47.019174
 30
0.0
 10
18.228155
 20
46.991657
 30
0.0
  0
SPLINE
  5
12a
100
AcDbEntity
  8
0
 62
1
100
AcDbSpline
 70
8
 71
3
 72
8
 73
4
 74
0
 40
0
 40
0
 40
0
 40
0
 40
1
 40
1
 40
1
 40
1
 10
18.228155
 20
46.991657
 30
0.0
 10
19.072970
 20
46.812005
 30
0.0
 10
20.789322
 20
46.447144
 30
0.0
 10
21.564551
 20
46.282573
 30
0.0
  0
SPLINE
  5
12b
100
AcDbEntity
  8
0
 62
1
100
AcDbSpline
 70
8
 71
3
 72
8
 73
4
 74
0
 40
0
 40
0
 40
0
 40
0
 40
1
 40
1
 40
1
 40
1
 10
21.564551
 20
46.282573
 30
0.0
 10
21.795268
 20
46.233360
 30
0.0
 10
21.960368
 20
46.029631
 30
0.0
 10
21.960632
 20
45.793622
 30
0.0
  0
SPLINE
  5
12c
100
AcDbEntity
  8
0
 62
1
100
AcDbSpline
 70
8
 71
3
 72
8
 73
4
 74
0
 40
0
 40
0
 40
0
 40
0
 40
1
 40
1
 40
1
 40
1
 10
21.960632
 20
45.793622
 30
0.0
 10
21.962484
 20
42.886904
 30
0.0
 10
21.973597
 20
25.210855
 30
0.0
 10
21.975713
 20
22.003306
 30
0.0
  0
SPLINE
  5
12d
100
AcDbEntity
  8
0
 62
1
100
AcDbSpline
 70
8
 71
3
 72
8
 73
4
 74
0
 40
0
 40
0
 40
0
 40
0
 40
1
 40
1
 40
1
 40
1
 10
21.975713
 20
22.003306
 30
0.0
 10
21.975978
 20
21.727610
 30
0.0
 10
22.199286
 20
21.504036
 30
0.0
 10
22.474982
 20
21.503772
 30
0.0
  0
SPLINE
  5
12e
100
AcDbEntity
  8
0
 62
1
100
AcDbSpline
 70
8
 71
3
 72
8
 73
4
 74
0
 40
0
 40
0
 40
0
 40
0
 40
1
 40
1
 40
1
 40
1
 10
22.474982
 20
21.503772
 30
0.0
 10
27.510797
 20
21.496628
 30
0.0
 10
69.067844
 20
21.438684
 30
0.0
 10
74.111861
 20
21.431540
 30
0.0
  0
SPLINE
  5
12f
100
AcDbEntity
  8
0
 62
1
100
AcDbSpline
 70
8
 71
3
 72
8
 73
4
 74
0
 40
0
 40
0
 40
0
 40
0
 40
1
 40
1
 40
1
 40
1
 10
74.111861
 20
21.431540
 30
0.0
 10
74.244417
 20
21.431276
 30
0.0
 10
74.371946
 20
21.483928
 30
0.0
 10
74.465873
 20
21.577855
 30
0.0
  0
SPLINE
  5
130
100
AcDbEntity
  8
0
 62
1
100
AcDbSpline
 70
8
 71
3
 72
8
 73
4
 74
0
 40
0
 40
0
 40
0
 40
0
 40
1
 40
1
 40
1
 40
1
 10
74.465873
 20
21.577855
 30
0.0
 10
74.559800
 20
21.671518
 30
0.0
 10
74.612452
 20
21.798783
 30
0.0
 10
74.612452
 20
21.931604
 30
0.0
  0
SPLINE
  5
131
100
AcDbEntity
  8
0
 62
1
100
AcDbSpline
 70
8
 71
3
 72
8
 73
4
 74
0
 40
0
 40
0
 40
0
 40
0
 40
1
 40
1
 40
1
 40
1
 10
74.612452
 20
21.931604
 30
0.0
 10
74.612452
 20
22.885164
 30
0.0
 10
74.612452
 20
24.959236
 30
0.0
 10
74.612452
 20
25.997463
 30
0.0
  0
SPLINE
  5
132
100
AcDbEntity
  8
0
 62
1
100
AcDbSpline
 70
8
 71
3
 72
8
 73
4
 74
0
 40
0
 40
0
 40
0
 40
0
 40
1
 40
1
 40
1
 40
1
 10
74.612452
 20
25.997463
 30
0.0
 10
74.612452
 20
26.148540
 30
0.0
 10
74.680715
 20
26.291415
 30
0.0
 10
74.797925
 20
26.386136
 30
0.0
  0
SPLINE
  5
133
100
AcDbEntity
  8
0
 62
1
100
AcDbSpline
 70
8
 71
3
 72
8
 73
4
 74
0
 40
0
 40
0
 40
0
 40
0
 40
1
 40
1
 40
1
 40
1
 10
74.797925
 20
26.386136
 30
0.0
 10
74.915400
 20
26.481122
 30
0.0
 10
75.069388
 20
26.517899
 30
0.0
 10
75.217025
 20
26.486414
 30
0.0
  0
SPLINE
  5
134
100
AcDbEntity
  8
0
 62
1
100
AcDbSpline
 70
8
 71
3
 72
8
 73
4
 74
0
 40
0
 40
0
 40
0
 40
0
 40
1
 40
1
 40
1
 40
1
 10
75.217025
 20
26.486414
 30
0.0
 10
82.538840
 20
24.922194
 30
0.0
 10
154.029788
 20
9.647508
 30
0.0
 10
160.641726
 20
8.234895
 30
0.0
  0
SPLINE
  5
135
100
AcDbEntity
  8
0
 62
1
100
AcDbSpline
 70
8
 71
3
 72
8
 73
4
 74
0
 40
0
 40
0
 40
0
 40
0
 40
1
 40
1
 40
1
 40
1
 10
160.641726
 20
8.234895
 30
0.0
 10
160.771372
 20
8.207114
 30
0.0
 10
160.906838
 20
8.231984
 30
0.0
 10
161.018228
 20
8.304216
 30
0.0
  0
SPLINE
  5
136
100
AcDbEntity
  8
0
 62
1
100
AcDbSpline
 70
8
 71
3
 72
8
 73
4
 74
0
 40
0
 40
0
 40
0
 40
0
 40
1
 40
1
 40
1
 40
1
 10
161.018228
 20
8.304216
 30
0.0
 10
161.129617
 20
8.376447
 30
0.0
 10
161.207670
 20
8.489954
 30
0.0
 10
161.235186
 20
8.619864
 30
0.0
  0
SPLINE
  5
137
100
AcDbEntity
  8
0
 62
1
100
AcDbSpline
 70
8
 71
3
 72
8
 73
4
 74
0
 40
0
 40
0
 40
0
 40
0
 40
1
 40
1
 40
1
 40
1
 10
161.235186
 20
8.619864
 30
0.0
 10
161.803247
 20
11.291896
 30
0.0
 10
164.523957
 20
24.091930
 30
0.0
 10
165.091753
 20
26.762904
 30
0.0
  0
SPLINE
  5
138
100
AcDbEntity
  8
0
 62
1
100
AcDbSpline
 70
8
 71
3
 72
8
 73
4
 74
0
 40
0
 40
0
 40
0
 40
0
 40
1
 40
1
 40
1
 40
1
 10
165.091753
 20
26.762904
 30
0.0
 10
165.149168
 20
27.032779
 30
0.0
 10
164.976659
 20
27.298421
 30
0.0
 10
164.706520
 20
27.355836
 30
0.0
  0
SPLINE
  5
139
100
AcDbEntity
  8
0
 62
1
100
AcDbSpline
 70
8
 71
3
 72
8
 73
4
 74
0
 40
0
 40
0
 40
0
 40
0
 40
1
 40
1
 40
1
 40
1
 10
164.706520
 20
27.355836
 30
0.0
 10
163.775451
 20
27.553745
 30
0.0
 10
161.757738
 20
27.982635
 30
0.0
 10
160.826405
 20
28.180544
 30
0.0
  0
SPLINE
  5
13a
100
AcDbEntity
  8
0
 62
1
100
AcDbSpline
 70
8
 71
3
 72
8
 73
4
 74
0
 40
0
 40
0
 40
0
 40
0
 40
1
 40
1
 40
1
 40
1
 10
160.826405
 20
28.180544
 30
0.0
 10
160.556530
 20
28.237958
 30
0.0
 10
160.384022
 20
28.503336
 30
0.0
 10
160.441436
 20
28.773476
 30
0.0
  0
SPLINE
  5
13b
100
AcDbEntity
  8
0
 62
1
100
AcDbSpline
 70
8
 71
3
 72
8
 73
4
 74
0
 40
0
 40
0
 40
0
 40
0
 40
1
 40
1
 40
1
 40
1
 10
160.441436
 20
28.773476
 30
0.0
 10
161.497917
 20
33.743947
 30
0.0
 10
170.270707
 20
75.016637
 30
0.0
 10
171.225324
 20
79.507947
 30
0.0
  0
SPLINE
  5
13c
100
AcDbEntity
  8
0
 62
1
100
AcDbSpline
 70
8
 71
3
 72
8
 73
4
 74
0
 40
0
 40
0
 40
0
 40
0
 40
1
 40
1
 40
1
 40
1
 10
171.225324
 20
79.507947
 30
0.0
 10
171.274536
 20
79.738928
 30
0.0
 10
171.478266
 20
79.904029
 30
0.0
 10
171.714274
 20
79.904029
 30
0.0
  0
SPLINE
  5
13d
100
AcDbEntity
  8
0
 62
1
100
AcDbSpline
 70
8
 71
3
 72
8
 73
4
 74
0
 40
0
 40
0
 40
0
 40
0
 40
1
 40
1
 40
1
 40
1
 10
171.714274
 20
79.904029
 30
0.0
 10
172.624441
 20
79.904029
 30
0.0
 10
174.829214
 20
79.904029
 30
0.0
 10
175.822989
 20
79.904029
 30
0.0
  0
SPLINE
  5
13e
100
AcDbEntity
  8
0
 62
1
100
AcDbSpline
 70
8
 71
3
 72
8
 73
4
 74
0
 40
0
 40
0
 40
0
 40
0
 40
1
 40
1
 40
1
 40
1
 10
175.822989
 20
79.904029
 30
0.0
 10
175.955545
 20
79.904029
 30
0.0
 10
176.082810
 20
79.851376
 30
0.0
 10
176.176472
 20
79.757449
 30
0.0
  0
SPLINE
  5
13f
100
AcDbEntity
  8
0
 62
1
100
AcDbSpline
 70
8
 71
3
 72
8
 73
4
 74
0
 40
0
 40
0
 40
0
 40
0
 40
1
 40
1
 40
1
 40
1
 10
176.176472
 20
79.757449
 30
0.0
 10
176.270135
 20
79.663786
 30
0.0
 10
176.322787
 20
79.536522
 30
0.0
 10
176.322787
 20
79.403965
 30
0.0
  0
SPLINE
  5
140
100
AcDbEntity
  8
0
 62
1
100
AcDbSpline
 70
8
 71
3
 72
8
 73
4
 74
0
 40
0
 40
0
 40
0
 40
0
 40
1
 40
1
 40
1
 40
1
 10
176.322787
 20
79.403965
 30
0.0
 10
176.321728
 20
74.364702
 30
0.0
 10
176.313526
 20
32.533212
 30
0.0
 10
176.309557
 20
12.983115
 30
0.0
  0
SPLINE
  5
141
100
AcDbEntity
  8
0
 62
1
100
AcDbSpline
 70
8
 71
3
 72
8
 73
4
 74
0
 40
0
 40
0
 40
0
 40
0
 40
1
 40
1
 40
1
 40
1
 10
176.309557
 20
12.983115
 30
0.0
 10
176.308499
 20
7.460987
 30
0.0
 10
171.831484
 20
2.985023
 30
0.0
 10
166.309630
 20
2.985023
 30
0.0
  0
SPLINE
  5
142
100
AcDbEntity
  8
0
 62
1
100
AcDbSpline
 70
8
 71
3
 72
8
 73
4
 74
0
 40
0
 40
0
 40
0
 40
0
 40
1
 40
1
 40
1
 40
1
 10
166.309630
 20
2.985023
 30
0.0
 10
163.816461
 20
2.985023
 30
0.0
 10
161.386792
 20
2.985023
 30
0.0
 10
159.735792
 20
2.985023
 30
0.0
  0
SPLINE
  5
143
100
AcDbEntity
  8
0
 62
1
100
AcDbSpline
 70
8
 71
3
 72
8
 73
4
 74
0
 40
0
 40
0
 40
0
 40
0
 40
1
 40
1
 40
1
 40
1
 10
159.735792
 20
2.985023
 30
0.0
 10
158.338263
 20
2.985023
 30
0.0
 10
156.944703
 20
3.131603
 30
0.0
 10
155.577601
 20
3.422116
 30
0.0
  0
SPLINE
  5
144
100
AcDbEntity
  8
0
 62
1
100
AcDbSpline
 70
8
 71
3
 72
8
 73
4
 74
0
 40
0
 40
0
 40
0
 40
0
 40
1
 40
1
 40
1
 40
1
 10
155.577601
 20
3.422116
 30
0.0
 10
147.731117
 20
5.090052
 30
0.0
 10
119.720208
 20
11.043981
 30
0.0
 10
111.873989
 20
12.711653
 30
0.0
  0
SPLINE
  5
145
100
AcDbEntity
  8
0
 62
1
100
AcDbSpline
 70
8
 71
3
 72
8
 73
4
 74
0
 40
0
 40
0
 40
0
 40
0
 40
1
 40
1
 40
1
 40
1
 10
111.873989
 20
12.711653
 30
0.0
 10
110.506887
 20
13.002166
 30
0.0
 10
109.113062
 20
13.148745
 30
0.0
 10
107.715533
 20
13.148745
 30
0.0
  0
LWPOLYLINE
  5
146
100
AcDbEntity
  8
0
 62
7
100
AcDbPolyline
 90
4
 70
1
 10
-0.000079
 20
147.902062
 30
0.0
 10
523.081396
 20
147.902062
 30
0.0
 10
523.081396
 20
-0.000249
 30
0.0
 10
-0.000079
 20
-0.000249
 30
0.0
  0
SPLINE
  5
147
100
AcDbEntity
  8
0
 62
1
100
AcDbSpline
 70
8
 71
3
 72
8
 73
4
 74
0
 40
0
 40
0
 40
0
 40
0
 40
1
 40
1
 40
1
 40
1
 10
22.291626
 20
13.148745
 30
0.0
 10
19.639442
 20
13.148745
 30
0.0
 10
17.096003
 20
14.202318
 30
0.0
 10
15.220636
 20
16.077687
 30
0.0
  0
SPLINE
  5
148
100
AcDbEntity
  8
0
 62
1
100
AcDbSpline
 70
8
 71
3
 72
8
 73
4
 74
0
 40
0
 40
0
 40
0
 40
0
 40
1
 40
1
 40
1
 40
1
 10
15.220636
 20
16.077687
 30
0.0
 10
13.345269
 20
17.953057
 30
0.0
 10
12.291699
 20
20.496501
 30
0.0
 10
12.291699
 20
23.148689
 30
0.0
  0
SPLINE
  5
149
100
AcDbEntity
  8
0
 62
1
100
AcDbSpline
 70
8
 71
3
 72
8
 73
4
 74
0
 40
0
 40
0
 40
0
 40
0
 40
1
 40
1
 40
1
 40
1
 10
12.291699
 20
23.148689
 30
0.0
 10
12.291699
 20
46.065614
 30
0.0
 10
12.291699
 20
102.163727
 30
0.0
 10
12.291699
 20
125.080652
 30
0.0
  0
SPLINE
  5
14a
100
AcDbEntity
  8
0
 62
1
100
AcDbSpline
 70
8
 71
3
 72
8
 73
4
 74
0
 40
0
 40
0
 40
0
 40
0
 40
1
 40
1
 40
1
 40
1
 10
12.291699
 20
125.080652
 30
0.0
 10
12.291699
 20
130.603309
 30
0.0
 10
16.768713
 20
135.080596
 30
0.0
 10
22.291626
 20
135.080596
 30
0.0
  0
SPLINE
  5
14b
100
AcDbEntity
  8
0
 62
1
100
AcDbSpline
 70
8
 71
3
 72
8
 73
4
 74
0
 40
0
 40
0
 40
0
 40
0
 40
1
 40
1
 40
1
 40
1
 10
22.291626
 20
135.080596
 30
0.0
 10
51.835002
 20
135.080596
 30
0.0
 10
138.438421
 20
135.080596
 30
0.0
 10
167.038293
 20
135.080596
 30
0.0
  0
SPLINE
  5
14c
100
AcDbEntity
  8
0
 62
1
100
AcDbSpline
 70
8
 71
3
 72
8
 73
4
 74
0
 40
0
 40
0
 40
0
 40
0
 40
1
 40
1
 40
1
 40
1
 10
167.038293
 20
135.080596
 30
0.0
 10
169.500770
 20
135.080596
 30
0.0
 10
171.862176
 20
134.102430
 30
0.0
 10
173.603399
 20
132.361204
 30
0.0
  0
SPLINE
  5
14d
100
AcDbEntity
  8
0
 62
1
100
AcDbSpline
 70
8
 71
3
 72
8
 73
4
 74
0
 40
0
 40
0
 40
0
 40
0
 40
1
 40
1
 40
1
 40
1
 10
173.603399
 20
132.361204
 30
0.0
 10
175.344887
 20
130.619978
 30
0.0
 10
176.323051
 20
128.258303
 30
0.0
 10
176.323051
 20
125.795822
 30
0.0
  0
LWPOLYLINE
  5
14e
100
AcDbEntity
  8
0
 62
1
100
AcDbPolyline
 90
2
 70
0
 10
107.715533
 20
13.148745
 30
0.0
 10
22.291626
 20
13.148745
 30
0.0
  0
SPLINE
  5
14f
100
AcDbEntity
  8
0
 62
1
100
AcDbSpline
 70
8
 71
3
 72
8
 73
4
 74
0
 40
0
 40
0
 40
0
 40
0
 40
1
 40
1
 40
1
 40
1
 10
176.323051
 20
125.795822
 30
0.0
 10
176.323051
 20
125.795822
 30
0.0
 10
176.310351
 20
107.169653
 30
0.0
 10
176.307970
 20
103.517602
 30
0.0
  0
LWPOLYLINE
  5
150
100
AcDbEntity
  8
0
 62
1
100
AcDbPolyline
 90
1
 70
1
 10
176.323051
 20
125.795822
 30
0.0
  0
SPLINE
  5
151
100
AcDbEntity
  8
0
 62
1
100
AcDbSpline
 70
8
 71
3
 72
8
 73
4
 74
0
 40
0
 40
0
 40
0
 40
0
 40
1
 40
1
 40
1
 40
1
 10
171.307652
 20
128.381076
 30
0.0
 10
170.754306
 20
128.381076
 30
0.0
 10
170.305842
 20
128.828336
 30
0.0
 10
170.305842
 20
129.381259
 30
0.0
  0
SPLINE
  5
152
100
AcDbEntity
  8
0
 62
1
100
AcDbSpline
 70
8
 71
3
 72
8
 73
4
 74
0
 40
0
 40
0
 40
0
 40
0
 40
1
 40
1
 40
1
 40
1
 10
170.305842
 20
129.381259
 30
0.0
 10
170.305842
 20
129.933097
 30
0.0
 10
170.754306
 20
130.381080
 30
0.0
 10
171.307652
 20
130.381080
 30
0.0
  0
SPLINE
  5
153
100
AcDbEntity
  8
0
 62
1
100
AcDbSpline
 70
8
 71
3
 72
8
 73
4
 74
0
 40
0
 40
0
 40
0
 40
0
 40
1
 40
1
 40
1
 40
1
 10
171.307652
 20
130.381080
 30
0.0
 10
171.857382
 20
130.381080
 30
0.0
 10
172.305846
 20
129.933097
 30
0.0
 10
172.305846
 20
129.381259
 30
0.0
  0
SPLINE
  5
154
100
AcDbEntity
  8
0
 62
1
100
AcDbSpline
 70
8
 71
3
 72
8
 73
4
 74
0
 40
0
 40
0
 40
0
 40
0
 40
1
 40
1
 40
1
 40
1
 10
172.305846
 20
129.381259
 30
0.0
 10
172.305846
 20
128.828336
 30
0.0
 10
171.857382
 20
128.381076
 30
0.0
 10
171.307652
 20
128.381076
 30
0.0
  0
LWPOLYLINE
  5
155
100
AcDbEntity
  8
0
 62
1
100
AcDbPolyline
 90
1
 70
1
 10
176.307970
 20
103.517602
 30
0.0
  0
SPLINE
  5
156
100
AcDbEntity
  8
0
 62
1
100
AcDbSpline
 70
8
 71
3
 72
8
 73
4
 74
0
 40
0
 40
0
 40
0
 40
0
 40
1
 40
1
 40
1
 40
1
 10
19.690815
 20
128.381076
 30
0.0
 10
19.137468
 20
128.381076
 30
0.0
 10
18.689005
 20
128.828336
 30
0.0
 10
18.689005
 20
129.381259
 30
0.0
  0
SPLINE
  5
157
100
AcDbEntity
  8
0
 62
1
100
AcDbSpline
 70
8
 71
3
 72
8
 73
4
 74
0
 40
0
 40
0
 40
0
 40
0
 40
1
 40
1
 40
1
 40
1
 10
18.689005
 20
129.381259
 30
0.0
 10
18.689005
 20
129.933097
 30
0.0
 10
19.137468
 20
130.381080
 30
0.0
 10
19.690815
 20
130.381080
 30
0.0
  0
SPLINE
  5
158
100
AcDbEntity
  8
0
 62
1
100
AcDbSpline
 70
8
 71
3
 72
8
 73
4
 74
0
 40
0
 40
0
 40
0
 40
0
 40
1
 40
1
 40
1
 40
1
 10
19.690815
 20
130.381080
 30
0.0
 10
20.240544
 20
130.381080
 30
0.0
 10
20.689008
 20
129.933097
 30
0.0
 10
20.689008
 20
129.381259
 30
0.0
  0
SPLINE
  5
159
100
AcDbEntity
  8
0
 62
1
100
AcDbSpline
 70
8
 71
3
 72
8
 73
4
 74
0
 40
0
 40
0
 40
0
 40
0
 40
1
 40
1
 40
1
 40
1
 10
20.689008
 20
129.381259
 30
0.0
 10
20.689008
 20
128.828336
 30
0.0
 10
20.240544
 20
128.381076
 30
0.0
 10
19.690815
 20
128.381076
 30
0.0
  0
LWPOLYLINE
  5
15a
100
AcDbEntity
  8
0
 62
1
100
AcDbPolyline
 90
1
 70
1
 10
171.307652
 20
128.381076
 30
0.0
  0
SPLINE
  5
15b
100
AcDbEntity
  8
0
 62
1
100
AcDbSpline
 70
8
 71
3
 72
8
 73
4
 74
0
 40
0
 40
0
 40
0
 40
0
 40
1
 40
1
 40
1
 40
1
 10
19.690815
 20
17.869587
 30
0.0
 10
19.137468
 20
17.869587
 30
0.0
 10
18.689005
 20
18.316847
 30
0.0
 10
18.689005
 20
18.869770
 30
0.0
  0
SPLINE
  5
15c
100
AcDbEntity
  8
0
 62
1
100
AcDbSpline
 70
8
 71
3
 72
8
 73
4
 74
0
 40
0
 40
0
 40
0
 40
0
 40
1
 40
1
 40
1
 40
1
 10
18.689005
 20
18.869770
 30
0.0
 10
18.689005
 20
19.421607
 30
0.0
 10
19.137468
 20
19.869591
 30
0.0
 10
19.690815
 20
19.869591
 30
0.0
  0
SPLINE
  5
15d
100
AcDbEntity
  8
0
 62
1
100
AcDbSpline
 70
8
 71
3
 72
8
 73
4
 74
0
 40
0
 40
0
 40
0
 40
0
 40
1
 40
1
 40
1
 40
1
 10
19.690815
 20
19.869591
 30
0.0
 10
20.240544
 20
19.869591
 30
0.0
 10
20.689008
 20
19.421607
 30
0.0
 10
20.689008
 20
18.869770
 30
0.0
  0
SPLINE
  5
15e
100
AcDbEntity
  8
0
 62
1
100
AcDbSpline
 70
8
 71
3
 72
8
 73
4
 74
0
 40
0
 40
0
 40
0
 40
0
 40
1
 40
1
 40
1
 40
1
 10
20.689008
 20
18.869770
 30
0.0
 10
20.689008
 20
18.316847
 30
0.0
 10
20.240544
 20
17.869587
 30
0.0
 10
19.690815
 20
17.869587
 30
0.0
  0
LWPOLYLINE
  5
15f
100
AcDbEntity
  8
0
 62
1
100
AcDbPolyline
 90
1
 70
1
 10
19.690815
 20
128.381076
 30
0.0
  0
SPLINE
  5
160
100
AcDbEntity
  8
0
 62
1
100
AcDbSpline
 70
8
 71
3
 72
8
 73
4
 74
0
 40
0
 40
0
 40
0
 40
0
 40
1
 40
1
 40
1
 40
1
 10
171.307652
 20
12.484698
 30
0.0
 10
170.754306
 20
12.484698
 30
0.0
 10
170.305842
 20
12.931958
 30
0.0
 10
170.305842
 20
13.484881
 30
0.0
  0
SPLINE
  5
161
100
AcDbEntity
  8
0
 62
1
100
AcDbSpline
 70
8
 71
3
 72
8
 73
4
 74
0
 40
0
 40
0
 40
0
 40
0
 40
1
 40
1
 40
1
 40
1
 10
170.305842
 20
13.484881
 30
0.0
 10
170.305842
 20
14.036719
 30
0.0
 10
170.754306
 20
14.484702
 30
0.0
 10
171.307652
 20
14.484702
 30
0.0
  0
SPLINE
  5
162
100
AcDbEntity
  8
0
 62
1
100
AcDbSpline
 70
8
 71
3
 72
8
 73
4
 74
0
 40
0
 40
0
 40
0
 40
0
 40
1
 40
1
 40
1
 40
1
 10
171.307652
 20
14.484702
 30
0.0
 10
171.857382
 20
14.484702
 30
0.0
 10
172.305846
 20
14.036719
 30
0.0
 10
172.305846
 20
13.484881
 30
0.0
  0
SPLINE
  5
163
100
AcDbEntity
  8
0
 62
1
100
AcDbSpline
 70
8
 71
3
 72
8
 73
4
 74
0
 40
0
 40
0
 40
0
 40
0
 40
1
 40
1
 40
1
 40
1
 10
172.305846
 20
13.484881
 30
0.0
 10
172.305846
 20
12.931958
 30
0.0
 10
171.857382
 20
12.484698
 30
0.0
 10
171.307652
 20
12.484698
 30
0.0
  0
LWPOLYLINE
  5
164
100
AcDbEntity
  8
0
 62
1
100
AcDbPolyline
 90
1
 70
1
 10
19.690815
 20
17.869587
 30
0.0
  0
SPLINE
  5
165
100
AcDbEntity
  8
0
 62
1
100
AcDbSpline
 70
8
 71
3
 72
8
 73
4
 74
0
 40
0
 40
0
 40
0
 40
0
 40
1
 40
1
 40
1
 40
1
 10
168.357548
 20
53.248276
 30
0.0
 10
167.804202
 20
53.248276
 30
0.0
 10
167.355738
 20
53.695536
 30
0.0
 10
167.355738
 20
54.248459
 30
0.0
  0
SPLINE
  5
166
100
AcDbEntity
  8
0
 62
1
100
AcDbSpline
 70
8
 71
3
 72
8
 73
4
 74
0
 40
0
 40
0
 40
0
 40
0
 40
1
 40
1
 40
1
 40
1
 10
167.355738
 20
54.248459
 30
0.0
 10
167.355738
 20
54.800296
 30
0.0
 10
167.804202
 20
55.248280
 30
0.0
 10
168.357548
 20
55.248280
 30
0.0
  0
SPLINE
  5
167
100
AcDbEntity
  8
0
 62
1
100
AcDbSpline
 70
8
 71
3
 72
8
 73
4
 74
0
 40
0
 40
0
 40
0
 40
0
 40
1
 40
1
 40
1
 40
1
 10
168.357548
 20
55.248280
 30
0.0
 10
168.907278
 20
55.248280
 30
0.0
 10
169.355741
 20
54.800296
 30
0.0
 10
169.355741
 20
54.248459
 30
0.0
  0
SPLINE
  5
168
100
AcDbEntity
  8
0
 62
1
100
AcDbSpline
 70
8
 71
3
 72
8
 73
4
 74
0
 40
0
 40
0
 40
0
 40
0
 40
1
 40
1
 40
1
 40
1
 10
169.355741
 20
54.248459
 30
0.0
 10
169.355741
 20
53.695536
 30
0.0
 10
168.907278
 20
53.248276
 30
0.0
 10
168.357548
 20
53.248276
 30
0.0
  0
LWPOLYLINE
  5
169
100
AcDbEntity
  8
0
 62
1
100
AcDbPolyline
 90
1
 70
1
 10
171.307652
 20
12.484698
 30
0.0
  0
SPLINE
  5
16a
100
AcDbEntity
  8
0
 62
1
100
AcDbSpline
 70
8
 71
3
 72
8
 73
4
 74
0
 40
0
 40
0
 40
0
 40
0
 40
1
 40
1
 40
1
 40
1
 10
166.523985
 20
44.816255
 30
0.0
 10
165.970639
 20
44.816255
 30
0.0
 10
165.522175
 20
45.263515
 30
0.0
 10
165.522175
 20
45.816438
 30
0.0
  0
SPLINE
  5
16b
100
AcDbEntity
  8
0
 62
1
100
AcDbSpline
 70
8
 71
3
 72
8
 73
4
 74
0
 40
0
 40
0
 40
0
 40
0
 40
1
 40
1
 40
1
 40
1
 10
165.522175
 20
45.816438
 30
0.0
 10
165.522175
 20
46.368276
 30
0.0
 10
165.970639
 20
46.816259
 30
0.0
 10
166.523985
 20
46.816259
 30
0.0
  0
SPLINE
  5
16c
100
AcDbEntity
  8
0
 62
1
100
AcDbSpline
 70
8
 71
3
 72
8
 73
4
 74
0
 40
0
 40
0
 40
0
 40
0
 40
1
 40
1
 40
1
 40
1
 10
166.523985
 20
46.816259
 30
0.0
 10
167.073715
 20
46.816259
 30
0.0
 10
167.522179
 20
46.368276
 30
0.0
 10
167.522179
 20
45.816438
 30
0.0
  0
SPLINE
  5
16d
100
AcDbEntity
  8
0
 62
1
100
AcDbSpline
 70
8
 71
3
 72
8
 73
4
 74
0
 40
0
 40
0
 40
0
 40
0
 40
1
 40
1
 40
1
 40
1
 10
167.522179
 20
45.816438
 30
0.0
 10
167.522179
 20
45.263515
 30
0.0
 10
167.073715
 20
44.816255
 30
0.0
 10
166.523985
 20
44.816255
 30
0.0
  0
LWPOLYLINE
  5
16e
100
AcDbEntity
  8
0
 62
1
100
AcDbPolyline
 90
1
 70
1
 10
168.357548
 20
53.248276
 30
0.0
  0
SPLINE
  5
16f
100
AcDbEntity
  8
0
 62
1
100
AcDbSpline
 70
8
 71
3
 72
8
 73
4
 74
0
 40
0
 40
0
 40
0
 40
0
 40
1
 40
1
 40
1
 40
1
 10
164.309423
 20
12.484698
 30
0.0
 10
163.756077
 20
12.484698
 30
0.0
 10
163.307613
 20
12.931958
 30
0.0
 10
163.307613
 20
13.484881
 30
0.0
  0
SPLINE
  5
170
100
AcDbEntity
  8
0
 62
1
100
AcDbSpline
 70
8
 71
3
 72
8
 73
4
 74
0
 40
0
 40
0
 40
0
 40
0
 40
1
 40
1
 40
1
 40
1
 10
163.307613
 20
13.484881
 30
0.0
 10
163.307613
 20
14.036719
 30
0.0
 10
163.756077
 20
14.484702
 30
0.0
 10
164.309423
 20
14.484702
 30
0.0
  0
SPLINE
  5
171
100
AcDbEntity
  8
0
 62
1
100
AcDbSpline
 70
8
 71
3
 72
8
 73
4
 74
0
 40
0
 40
0
 40
0
 40
0
 40
1
 40
1
 40
1
 40
1
 10
164.309423
 20
14.484702
 30
0.0
 10
164.859153
 20
14.484702
 30
0.0
 10
165.307616
 20
14.036719
 30
0.0
 10
165.307616
 20
13.484881
 30
0.0
  0
SPLINE
  5
172
100
AcDbEntity
  8
0
 62
1
100
AcDbSpline
 70
8
 71
3
 72
8
 73
4
 74
0
 40
0
 40
0
 40
0
 40
0
 40
1
 40
1
 40
1
 40
1
 10
165.307616
 20
13.484881
 30
0.0
 10
165.307616
 20
12.931958
 30
0.0
 10
164.859153
 20
12.484698
 30
0.0
 10
164.309423
 20
12.484698
 30
0.0
  0
LWPOLYLINE
  5
173
100
AcDbEntity
  8
0
 62
1
100
AcDbPolyline
 90
1
 70
1
 10
166.523985
 20
44.816255
 30
0.0
  0
SPLINE
  5
174
100
AcDbEntity
  8
0
 62
1
100
AcDbSpline
 70
8
 71
3
 72
8
 73
4
 74
0
 40
0
 40
0
 40
0
 40
0
 40
1
 40
1
 40
1
 40
1
 10
164.309423
 20
128.381076
 30
0.0
 10
163.756077
 20
128.381076
 30
0.0
 10
163.307613
 20
128.828336
 30
0.0
 10
163.307613
 20
129.381259
 30
0.0
  0
SPLINE
  5
175
100
AcDbEntity
  8
0
 62
1
100
AcDbSpline
 70
8
 71
3
 72
8
 73
4
 74
0
 40
0
 40
0
 40
0
 40
0
 40
1
 40
1
 40
1
 40
1
 10
163.307613
 20
129.381259
 30
0.0
 10
163.307613
 20
129.933097
 30
0.0
 10
163.756077
 20
130.381080
 30
0.0
 10
164.309423
 20
130.381080
 30
0.0
  0
SPLINE
  5
176
100
AcDbEntity
  8
0
 62
1
100
AcDbSpline
 70
8
 71
3
 72
8
 73
4
 74
0
 40
0
 40
0
 40
0
 40
0
 40
1
 40
1
 40
1
 40
1
 10
164.309423
 20
130.381080
 30
0.0
 10
164.859153
 20
130.381080
 30
0.0
 10
165.307616
 20
129.933097
 30
0.0
 10
165.307616
 20
129.381259
 30
0.0
  0
SPLINE
  5
177
100
AcDbEntity
  8
0
 62
1
100
AcDbSpline
 70
8
 71
3
 72
8
 73
4
 74
0
 40
0
 40
0
 40
0
 40
0
 40
1
 40
1
 40
1
 40
1
 10
165.307616
 20
129.381259
 30
0.0
 10
165.307616
 20
128.828336
 30
0.0
 10
164.859153
 20
128.381076
 30
0.0
 10
164.309423
 20
128.381076
 30
0.0
  0
LWPOLYLINE
  5
178
100
AcDbEntity
  8
0
 62
1
100
AcDbPolyline
 90
1
 70
1
 10
164.309423
 20
12.484698
 30
0.0
  0
SPLINE
  5
179
100
AcDbEntity
  8
0
 62
1
100
AcDbSpline
 70
8
 71
3
 72
8
 73
4
 74
0
 40
0
 40
0
 40
0
 40
0
 40
1
 40
1
 40
1
 40
1
 10
26.638773
 20
128.381076
 30
0.0
 10
26.085427
 20
128.381076
 30
0.0
 10
25.636963
 20
128.828336
 30
0.0
 10
25.636963
 20
129.381259
 30
0.0
  0
SPLINE
  5
17a
100
AcDbEntity
  8
0
 62
1
100
AcDbSpline
 70
8
 71
3
 72
8
 73
4
 74
0
 40
0
 40
0
 40
0
 40
0
 40
1
 40
1
 40
1
 40
1
 10
25.636963
 20
129.381259
 30
0.0
 10
25.636963
 20
129.933097
 30
0.0
 10
26.085427
 20
130.381080
 30
0.0
 10
26.638773
 20
130.381080
 30
0.0
  0
SPLINE
  5
17b
100
AcDbEntity
  8
0
 62
1
100
AcDbSpline
 70
8
 71
3
 72
8
 73
4
 74
0
 40
0
 40
0
 40
0
 40
0
 40
1
 40
1
 40
1
 40
1
 10
26.638773
 20
130.381080
 30
0.0
 10
27.188503
 20
130.381080
 30
0.0
 10
27.636966
 20
129.933097
 30
0.0
 10
27.636966
 20
129.381259
 30
0.0
  0
SPLINE
  5
17c
100
AcDbEntity
  8
0
 62
1
100
AcDbSpline
 70
8
 71
3
 72
8
 73
4
 74
0
 40
0
 40
0
 40
0
 40
0
 40
1
 40
1
 40
1
 40
1
 10
27.636966
 20
129.381259
 30
0.0
 10
27.636966
 20
128.828336
 30
0.0
 10
27.188503
 20
128.381076
 30
0.0
 10
26.638773
 20
128.381076
 30
0.0
  0
LWPOLYLINE
  5
17d
100
AcDbEntity
  8
0
 62
1
100
AcDbPolyline
 90
1
 70
1
 10
164.309423
 20
128.381076
 30
0.0
  0
SPLINE
  5
17e
100
AcDbEntity
  8
0
 62
1
100
AcDbSpline
 70
8
 71
3
 72
8
 73
4
 74
0
 40
0
 40
0
 40
0
 40
0
 40
1
 40
1
 40
1
 40
1
 10
26.638773
 20
17.869587
 30
0.0
 10
26.085427
 20
17.869587
 30
0.0
 10
25.636963
 20
18.316847
 30
0.0
 10
25.636963
 20
18.869770
 30
0.0
  0
SPLINE
  5
17f
100
AcDbEntity
  8
0
 62
1
100
AcDbSpline
 70
8
 71
3
 72
8
 73
4
 74
0
 40
0
 40
0
 40
0
 40
0
 40
1
 40
1
 40
1
 40
1
 10
25.636963
 20
18.869770
 30
0.0
 10
25.636963
 20
19.421607
 30
0.0
 10
26.085427
 20
19.869591
 30
0.0
 10
26.638773
 20
19.869591
 30
0.0
  0
SPLINE
  5
180
100
AcDbEntity
  8
0
 62
1
100
AcDbSpline
 70
8
 71
3
 72
8
 73
4
 74
0
 40
0
 40
0
 40
0
 40
0
 40
1
 40
1
 40
1
 40
1
 10
26.638773
 20
19.869591
 30
0.0
 10
27.188503
 20
19.869591
 30
0.0
 10
27.636966
 20
19.421607
 30
0.0
 10
27.636966
 20
18.869770
 30
0.0
  0
SPLINE
  5
181
100
AcDbEntity
  8
0
 62
1
100
AcDbSpline
 70
8
 71
3
 72
8
 73
4
 74
0
 40
0
 40
0
 40
0
 40
0
 40
1
 40
1
 40
1
 40
1
 10
27.636966
 20
18.869770
 30
0.0
 10
27.636966
 20
18.316847
 30
0.0
 10
27.188503
 20
17.869587
 30
0.0
 10
26.638773
 20
17.869587
 30
0.0
  0
LWPOLYLINE
  5
182
100
AcDbEntity
  8
0
 62
1
100
AcDbPolyline
 90
1
 70
1
 10
26.638773
 20
128.381076
 30
0.0
  0
SPLINE
  5
183
100
AcDbEntity
  8
0
 62
1
100
AcDbSpline
 70
8
 71
3
 72
8
 73
4
 74
0
 40
0
 40
0
 40
0
 40
0
 40
1
 40
1
 40
1
 40
1
 10
171.307652
 20
65.484747
 30
0.0
 10
170.754306
 20
65.484747
 30
0.0
 10
170.305842
 20
65.932007
 30
0.0
 10
170.305842
 20
66.484930
 30
0.0
  0
SPLINE
  5
184
100
AcDbEntity
  8
0
 62
1
100
AcDbSpline
 70
8
 71
3
 72
8
 73
4
 74
0
 40
0
 40
0
 40
0
 40
0
 40
1
 40
1
 40
1
 40
1
 10
170.305842
 20
66.484930
 30
0.0
 10
170.305842
 20
67.036768
 30
0.0
 10
170.754306
 20
67.484751
 30
0.0
 10
171.307652
 20
67.484751
 30
0.0
  0
SPLINE
  5
185
100
AcDbEntity
  8
0
 62
1
100
AcDbSpline
 70
8
 71
3
 72
8
 73
4
 74
0
 40
0
 40
0
 40
0
 40
0
 40
1
 40
1
 40
1
 40
1
 10
171.307652
 20
67.484751
 30
0.0
 10
171.857382
 20
67.484751
 30
0.0
 10
172.305846
 20
67.036768
 30
0.0
 10
172.305846
 20
66.484930
 30
0.0
  0
SPLINE
  5
186
100
AcDbEntity
  8
0
 62
1
100
AcDbSpline
 70
8
 71
3
 72
8
 73
4
 74
0
 40
0
 40
0
 40
0
 40
0
 40
1
 40
1
 40
1
 40
1
 10
172.305846
 20
66.484930
 30
0.0
 10
172.305846
 20
65.932007
 30
0.0
 10
171.857382
 20
65.484747
 30
0.0
 10
171.307652
 20
65.484747
 30
0.0
  0
LWPOLYLINE
  5
187
100
AcDbEntity
  8
0
 62
1
100
AcDbPolyline
 90
1
 70
1
 10
26.638773
 20
17.869587
 30
0.0
  0
LWPOLYLINE
  5
188
100
AcDbEntity
  8
0
 62
1
100
AcDbPolyline
 90
1
 70
1
 10
171.307652
 20
65.484747
 30
0.0
  0
ENDSEC
  0
SECTION
  2
OBJECTS
  0
DICTIONARY
  5
C
330
0
100
AcDbDictionary
  3
ACAD_GROUP
350
D
  3
ACAD_MLINESTYLE
350
17
  0
DICTIONARY
  5
D
330
C
100
AcDbDictionary
  0
DICTIONARY
  5
1A
330
C
100
AcDbDictionary
  0
DICTIONARY
  5
17
330
C
100
AcDbDictionary
  3
STANDARD
350
18
  0
DICTIONARY
  5
19
330
C
100
AcDbDictionary
  0
ENDSEC
  0
EOF
