G04 #@! TF.GenerationSoftware,KiCad,Pcbnew,(5.1.5-0-10_14)*
G04 #@! TF.CreationDate,2020-04-19T15:56:36+09:00*
G04 #@! TF.ProjectId,colice_pcb_left_bottom,636f6c69-6365-45f7-9063-625f6c656674,rev?*
G04 #@! TF.SameCoordinates,Original*
G04 #@! TF.FileFunction,Legend,Top*
G04 #@! TF.FilePolarity,Positive*
%FSLAX46Y46*%
G04 Gerber Fmt 4.6, Leading zero omitted, Abs format (unit mm)*
G04 Created by KiCad (PCBNEW (5.1.5-0-10_14)) date 2020-04-19 15:56:36*
%MOMM*%
%LPD*%
G04 APERTURE LIST*
%ADD10C,0.300000*%
G04 APERTURE END LIST*
D10*
X34608714Y-138294071D02*
X35680142Y-138294071D01*
X35037285Y-137651214D02*
X34608714Y-139579785D01*
X35537285Y-138936928D02*
X34465857Y-138936928D01*
X35108714Y-139579785D02*
X35537285Y-137651214D01*
X37037285Y-139151214D02*
X36965857Y-139222642D01*
X36751571Y-139294071D01*
X36608714Y-139294071D01*
X36394428Y-139222642D01*
X36251571Y-139079785D01*
X36180142Y-138936928D01*
X36108714Y-138651214D01*
X36108714Y-138436928D01*
X36180142Y-138151214D01*
X36251571Y-138008357D01*
X36394428Y-137865500D01*
X36608714Y-137794071D01*
X36751571Y-137794071D01*
X36965857Y-137865500D01*
X37037285Y-137936928D01*
X37894428Y-139294071D02*
X37751571Y-139222642D01*
X37680142Y-139151214D01*
X37608714Y-139008357D01*
X37608714Y-138579785D01*
X37680142Y-138436928D01*
X37751571Y-138365500D01*
X37894428Y-138294071D01*
X38108714Y-138294071D01*
X38251571Y-138365500D01*
X38323000Y-138436928D01*
X38394428Y-138579785D01*
X38394428Y-139008357D01*
X38323000Y-139151214D01*
X38251571Y-139222642D01*
X38108714Y-139294071D01*
X37894428Y-139294071D01*
X39251571Y-139294071D02*
X39108714Y-139222642D01*
X39037285Y-139079785D01*
X39037285Y-137794071D01*
X39823000Y-139294071D02*
X39823000Y-138294071D01*
X39823000Y-137794071D02*
X39751571Y-137865500D01*
X39823000Y-137936928D01*
X39894428Y-137865500D01*
X39823000Y-137794071D01*
X39823000Y-137936928D01*
X41180142Y-139222642D02*
X41037285Y-139294071D01*
X40751571Y-139294071D01*
X40608714Y-139222642D01*
X40537285Y-139151214D01*
X40465857Y-139008357D01*
X40465857Y-138579785D01*
X40537285Y-138436928D01*
X40608714Y-138365500D01*
X40751571Y-138294071D01*
X41037285Y-138294071D01*
X41180142Y-138365500D01*
X42394428Y-139222642D02*
X42251571Y-139294071D01*
X41965857Y-139294071D01*
X41823000Y-139222642D01*
X41751571Y-139079785D01*
X41751571Y-138508357D01*
X41823000Y-138365500D01*
X41965857Y-138294071D01*
X42251571Y-138294071D01*
X42394428Y-138365500D01*
X42465857Y-138508357D01*
X42465857Y-138651214D01*
X41751571Y-138794071D01*
X45180142Y-138579785D02*
X45108714Y-138508357D01*
X44965857Y-138436928D01*
X44823000Y-138436928D01*
X44680142Y-138508357D01*
X44608714Y-138579785D01*
X44537285Y-138722642D01*
X44537285Y-138865500D01*
X44608714Y-139008357D01*
X44680142Y-139079785D01*
X44823000Y-139151214D01*
X44965857Y-139151214D01*
X45108714Y-139079785D01*
X45180142Y-139008357D01*
X45180142Y-138436928D02*
X45180142Y-139008357D01*
X45251571Y-139079785D01*
X45323000Y-139079785D01*
X45465857Y-139008357D01*
X45537285Y-138865500D01*
X45537285Y-138508357D01*
X45394428Y-138294071D01*
X45180142Y-138151214D01*
X44894428Y-138079785D01*
X44608714Y-138151214D01*
X44394428Y-138294071D01*
X44251571Y-138508357D01*
X44180142Y-138794071D01*
X44251571Y-139079785D01*
X44394428Y-139294071D01*
X44608714Y-139436928D01*
X44894428Y-139508357D01*
X45180142Y-139436928D01*
X45394428Y-139294071D01*
X46180142Y-138294071D02*
X46180142Y-139579785D01*
X46108714Y-139722642D01*
X45965857Y-139794071D01*
X45894428Y-139794071D01*
X46180142Y-137794071D02*
X46108714Y-137865500D01*
X46180142Y-137936928D01*
X46251571Y-137865500D01*
X46180142Y-137794071D01*
X46180142Y-137936928D01*
X46894428Y-138294071D02*
X46894428Y-139794071D01*
X46894428Y-138365500D02*
X47037285Y-138294071D01*
X47323000Y-138294071D01*
X47465857Y-138365500D01*
X47537285Y-138436928D01*
X47608714Y-138579785D01*
X47608714Y-139008357D01*
X47537285Y-139151214D01*
X47465857Y-139222642D01*
X47323000Y-139294071D01*
X47037285Y-139294071D01*
X46894428Y-139222642D01*
X48180142Y-139222642D02*
X48323000Y-139294071D01*
X48608714Y-139294071D01*
X48751571Y-139222642D01*
X48823000Y-139079785D01*
X48823000Y-139008357D01*
X48751571Y-138865500D01*
X48608714Y-138794071D01*
X48394428Y-138794071D01*
X48251571Y-138722642D01*
X48180142Y-138579785D01*
X48180142Y-138508357D01*
X48251571Y-138365500D01*
X48394428Y-138294071D01*
X48608714Y-138294071D01*
X48751571Y-138365500D01*
X49465857Y-139294071D02*
X49465857Y-137794071D01*
X49608714Y-138722642D02*
X50037285Y-139294071D01*
X50037285Y-138294071D02*
X49465857Y-138865500D01*
X51251571Y-139222642D02*
X51108714Y-139294071D01*
X50823000Y-139294071D01*
X50680142Y-139222642D01*
X50608714Y-139079785D01*
X50608714Y-138508357D01*
X50680142Y-138365500D01*
X50823000Y-138294071D01*
X51108714Y-138294071D01*
X51251571Y-138365500D01*
X51323000Y-138508357D01*
X51323000Y-138651214D01*
X50608714Y-138794071D01*
X51965857Y-138294071D02*
X51965857Y-139294071D01*
X51965857Y-138436928D02*
X52037285Y-138365500D01*
X52180142Y-138294071D01*
X52394428Y-138294071D01*
X52537285Y-138365500D01*
X52608714Y-138508357D01*
X52608714Y-139294071D01*
X53323000Y-138294071D02*
X53323000Y-139294071D01*
X53323000Y-138436928D02*
X53394428Y-138365500D01*
X53537285Y-138294071D01*
X53751571Y-138294071D01*
X53894428Y-138365500D01*
X53965857Y-138508357D01*
X53965857Y-139294071D01*
X35465857Y-141844071D02*
X34751571Y-141844071D01*
X34751571Y-140344071D01*
X36537285Y-141772642D02*
X36394428Y-141844071D01*
X36108714Y-141844071D01*
X35965857Y-141772642D01*
X35894428Y-141629785D01*
X35894428Y-141058357D01*
X35965857Y-140915500D01*
X36108714Y-140844071D01*
X36394428Y-140844071D01*
X36537285Y-140915500D01*
X36608714Y-141058357D01*
X36608714Y-141201214D01*
X35894428Y-141344071D01*
X37037285Y-140844071D02*
X37608714Y-140844071D01*
X37251571Y-141844071D02*
X37251571Y-140558357D01*
X37322999Y-140415500D01*
X37465857Y-140344071D01*
X37608714Y-140344071D01*
X37894428Y-140844071D02*
X38465857Y-140844071D01*
X38108714Y-140344071D02*
X38108714Y-141629785D01*
X38180142Y-141772642D01*
X38322999Y-141844071D01*
X38465857Y-141844071D01*
X40608714Y-141058357D02*
X40823000Y-141129785D01*
X40894428Y-141201214D01*
X40965857Y-141344071D01*
X40965857Y-141558357D01*
X40894428Y-141701214D01*
X40823000Y-141772642D01*
X40680142Y-141844071D01*
X40108714Y-141844071D01*
X40108714Y-140344071D01*
X40608714Y-140344071D01*
X40751571Y-140415500D01*
X40823000Y-140486928D01*
X40894428Y-140629785D01*
X40894428Y-140772642D01*
X40823000Y-140915500D01*
X40751571Y-140986928D01*
X40608714Y-141058357D01*
X40108714Y-141058357D01*
X41823000Y-141844071D02*
X41680142Y-141772642D01*
X41608714Y-141701214D01*
X41537285Y-141558357D01*
X41537285Y-141129785D01*
X41608714Y-140986928D01*
X41680142Y-140915500D01*
X41823000Y-140844071D01*
X42037285Y-140844071D01*
X42180142Y-140915500D01*
X42251571Y-140986928D01*
X42323000Y-141129785D01*
X42323000Y-141558357D01*
X42251571Y-141701214D01*
X42180142Y-141772642D01*
X42037285Y-141844071D01*
X41823000Y-141844071D01*
X42751571Y-140844071D02*
X43323000Y-140844071D01*
X42965857Y-140344071D02*
X42965857Y-141629785D01*
X43037285Y-141772642D01*
X43180142Y-141844071D01*
X43323000Y-141844071D01*
X43608714Y-140844071D02*
X44180142Y-140844071D01*
X43822999Y-140344071D02*
X43822999Y-141629785D01*
X43894428Y-141772642D01*
X44037285Y-141844071D01*
X44180142Y-141844071D01*
X44894428Y-141844071D02*
X44751571Y-141772642D01*
X44680142Y-141701214D01*
X44608714Y-141558357D01*
X44608714Y-141129785D01*
X44680142Y-140986928D01*
X44751571Y-140915500D01*
X44894428Y-140844071D01*
X45108714Y-140844071D01*
X45251571Y-140915500D01*
X45322999Y-140986928D01*
X45394428Y-141129785D01*
X45394428Y-141558357D01*
X45322999Y-141701214D01*
X45251571Y-141772642D01*
X45108714Y-141844071D01*
X44894428Y-141844071D01*
X46037285Y-141844071D02*
X46037285Y-140844071D01*
X46037285Y-140986928D02*
X46108714Y-140915500D01*
X46251571Y-140844071D01*
X46465857Y-140844071D01*
X46608714Y-140915500D01*
X46680142Y-141058357D01*
X46680142Y-141844071D01*
X46680142Y-141058357D02*
X46751571Y-140915500D01*
X46894428Y-140844071D01*
X47108714Y-140844071D01*
X47251571Y-140915500D01*
X47322999Y-141058357D01*
X47322999Y-141844071D01*
X49037285Y-140844071D02*
X49394428Y-141844071D01*
X49751571Y-140844071D01*
X50322999Y-141701214D02*
X50394428Y-141772642D01*
X50322999Y-141844071D01*
X50251571Y-141772642D01*
X50322999Y-141701214D01*
X50322999Y-141844071D01*
X51322999Y-140344071D02*
X51465857Y-140344071D01*
X51608714Y-140415500D01*
X51680142Y-140486928D01*
X51751571Y-140629785D01*
X51822999Y-140915500D01*
X51822999Y-141272642D01*
X51751571Y-141558357D01*
X51680142Y-141701214D01*
X51608714Y-141772642D01*
X51465857Y-141844071D01*
X51322999Y-141844071D01*
X51180142Y-141772642D01*
X51108714Y-141701214D01*
X51037285Y-141558357D01*
X50965857Y-141272642D01*
X50965857Y-140915500D01*
X51037285Y-140629785D01*
X51108714Y-140486928D01*
X51180142Y-140415500D01*
X51322999Y-140344071D01*
X52465857Y-141701214D02*
X52537285Y-141772642D01*
X52465857Y-141844071D01*
X52394428Y-141772642D01*
X52465857Y-141701214D01*
X52465857Y-141844071D01*
X53965857Y-141844071D02*
X53108714Y-141844071D01*
X53537285Y-141844071D02*
X53537285Y-140344071D01*
X53394428Y-140558357D01*
X53251571Y-140701214D01*
X53108714Y-140772642D01*
M02*
