G04 #@! TF.GenerationSoftware,KiCad,Pcbnew,(5.1.5-0-10_14)*
G04 #@! TF.CreationDate,2020-04-19T15:56:36+09:00*
G04 #@! TF.ProjectId,colice_pcb_left_bottom,636f6c69-6365-45f7-9063-625f6c656674,rev?*
G04 #@! TF.SameCoordinates,Original*
G04 #@! TF.FileFunction,Copper,L2,Bot*
G04 #@! TF.FilePolarity,Positive*
%FSLAX46Y46*%
G04 Gerber Fmt 4.6, Leading zero omitted, Abs format (unit mm)*
G04 Created by KiCad (PCBNEW (5.1.5-0-10_14)) date 2020-04-19 15:56:36*
%MOMM*%
%LPD*%
G04 APERTURE LIST*
%ADD10C,0.254000*%
G04 APERTURE END LIST*
D10*
G36*
X42970818Y-59781842D02*
G01*
X42960145Y-59815439D01*
X42956003Y-59852516D01*
X42955791Y-59853525D01*
X42951992Y-59888416D01*
X42944069Y-59959326D01*
X42944157Y-59960360D01*
X42944045Y-59961390D01*
X42950320Y-60032613D01*
X42956373Y-60103584D01*
X42956660Y-60104576D01*
X42956751Y-60105612D01*
X42976822Y-60174315D01*
X42996584Y-60242670D01*
X42997060Y-60243588D01*
X42997351Y-60244586D01*
X43030330Y-60307843D01*
X43063156Y-60371239D01*
X43063805Y-60372051D01*
X43064283Y-60372968D01*
X43108910Y-60428503D01*
X43153532Y-60484350D01*
X43154325Y-60485018D01*
X43154974Y-60485826D01*
X43209741Y-60531724D01*
X43264239Y-60577656D01*
X43265144Y-60578155D01*
X43265941Y-60578823D01*
X43328434Y-60613058D01*
X43391021Y-60647572D01*
X43392015Y-60647888D01*
X43392919Y-60648383D01*
X43461036Y-60669815D01*
X43494431Y-60680424D01*
X43495430Y-60680636D01*
X43531026Y-60691836D01*
X43566077Y-60695653D01*
X63242738Y-64878047D01*
X63277311Y-64889031D01*
X63313365Y-64893059D01*
X63313369Y-64893060D01*
X63369477Y-64899328D01*
X63421198Y-64905107D01*
X63421201Y-64905107D01*
X63461552Y-64901665D01*
X63565455Y-64892804D01*
X63565458Y-64892803D01*
X63565459Y-64892803D01*
X63587212Y-64886514D01*
X63704542Y-64852594D01*
X63718837Y-64845192D01*
X63833114Y-64786020D01*
X63920948Y-64715841D01*
X63946223Y-64695646D01*
X64039529Y-64584940D01*
X64109445Y-64458158D01*
X64109447Y-64458155D01*
X64153285Y-64320169D01*
X64157313Y-64284113D01*
X69453249Y-39369222D01*
X73913861Y-40317222D01*
X73950726Y-40328677D01*
X74020419Y-40336017D01*
X74090053Y-40343795D01*
X74092386Y-40343596D01*
X74094712Y-40343841D01*
X74164449Y-40337448D01*
X74234311Y-40331487D01*
X74236561Y-40330836D01*
X74238889Y-40330623D01*
X74306042Y-40310747D01*
X74373397Y-40291272D01*
X74375475Y-40290196D01*
X74377718Y-40289532D01*
X74439741Y-40256917D01*
X74501964Y-40224695D01*
X74503791Y-40223235D01*
X74505862Y-40222146D01*
X74560317Y-40178068D01*
X74615072Y-40134316D01*
X74616580Y-40132526D01*
X74618398Y-40131055D01*
X74663176Y-40077238D01*
X74708375Y-40023607D01*
X74709506Y-40021555D01*
X74711001Y-40019759D01*
X74744420Y-39958241D01*
X74778287Y-39896823D01*
X74778996Y-39894592D01*
X74780112Y-39892537D01*
X74800890Y-39825670D01*
X74822121Y-39758835D01*
X74826407Y-39720467D01*
X78006854Y-24277156D01*
X146784967Y-24277156D01*
X141844759Y-48000395D01*
X141834234Y-48033524D01*
X141830037Y-48071091D01*
X141829727Y-48072580D01*
X141826025Y-48107001D01*
X141818159Y-48177411D01*
X141818289Y-48178935D01*
X141818125Y-48180460D01*
X141824443Y-48251083D01*
X141830463Y-48321669D01*
X141830889Y-48323141D01*
X141831025Y-48324666D01*
X141850980Y-48392634D01*
X141870674Y-48460755D01*
X141871379Y-48462116D01*
X141871810Y-48463585D01*
X141904655Y-48526381D01*
X141937247Y-48589324D01*
X141938203Y-48590520D01*
X141938913Y-48591878D01*
X141983412Y-48647103D01*
X142027623Y-48702435D01*
X142028793Y-48703421D01*
X142029755Y-48704615D01*
X142084204Y-48750123D01*
X142138330Y-48795741D01*
X142139669Y-48796480D01*
X142140846Y-48797463D01*
X142203101Y-48831459D01*
X142265112Y-48865656D01*
X142266571Y-48866120D01*
X142267916Y-48866854D01*
X142335513Y-48888022D01*
X142368522Y-48898509D01*
X142370013Y-48898826D01*
X142406082Y-48910121D01*
X142440637Y-48913837D01*
X151575055Y-50855400D01*
X151611013Y-50866672D01*
X151681548Y-50874280D01*
X151752137Y-50882166D01*
X151753548Y-50882046D01*
X151754961Y-50882198D01*
X151825710Y-50875891D01*
X151896395Y-50869862D01*
X151897758Y-50869468D01*
X151899170Y-50869342D01*
X151967277Y-50849370D01*
X152035482Y-50829651D01*
X152036741Y-50828999D01*
X152038102Y-50828600D01*
X152101049Y-50795700D01*
X152164050Y-50763078D01*
X152165157Y-50762194D01*
X152166415Y-50761536D01*
X152221749Y-50716976D01*
X152277161Y-50672702D01*
X152278074Y-50671618D01*
X152279180Y-50670728D01*
X152324755Y-50616231D01*
X152370467Y-50561995D01*
X152371152Y-50560754D01*
X152372062Y-50559665D01*
X152406116Y-50497350D01*
X152440382Y-50435213D01*
X152440811Y-50433861D01*
X152441492Y-50432616D01*
X152462721Y-50364898D01*
X152484220Y-50297227D01*
X152488405Y-50259769D01*
X156908417Y-29066980D01*
X175251800Y-29066980D01*
X175251800Y-29403820D01*
X175317514Y-29734189D01*
X175446418Y-30045389D01*
X175633556Y-30325461D01*
X175871739Y-30563644D01*
X176151811Y-30750782D01*
X176463011Y-30879686D01*
X176793380Y-30945400D01*
X177130220Y-30945400D01*
X177460589Y-30879686D01*
X177771789Y-30750782D01*
X178051861Y-30563644D01*
X178290044Y-30325461D01*
X178477182Y-30045389D01*
X178606086Y-29734189D01*
X178671800Y-29403820D01*
X178671800Y-29066980D01*
X178606086Y-28736611D01*
X178477182Y-28425411D01*
X178290044Y-28145339D01*
X178051861Y-27907156D01*
X177771789Y-27720018D01*
X177460589Y-27591114D01*
X177130220Y-27525400D01*
X176793380Y-27525400D01*
X176463011Y-27591114D01*
X176151811Y-27720018D01*
X175871739Y-27907156D01*
X175633556Y-28145339D01*
X175446418Y-28425411D01*
X175317514Y-28736611D01*
X175251800Y-29066980D01*
X156908417Y-29066980D01*
X157907393Y-24277156D01*
X172671044Y-24277156D01*
X172867087Y-24279303D01*
X173052726Y-24285358D01*
X173228641Y-24294769D01*
X173403754Y-24307711D01*
X173574351Y-24323780D01*
X173740546Y-24342739D01*
X173907421Y-24365095D01*
X174073239Y-24390638D01*
X174241550Y-24419988D01*
X174398517Y-24450508D01*
X174551192Y-24483146D01*
X174708018Y-24519743D01*
X174857038Y-24557437D01*
X175003431Y-24597282D01*
X175148953Y-24639693D01*
X175290045Y-24683527D01*
X175430201Y-24729759D01*
X175569201Y-24778300D01*
X175710443Y-24830416D01*
X175844061Y-24882361D01*
X175976798Y-24936561D01*
X176108367Y-24992885D01*
X176238780Y-25051329D01*
X176371132Y-25113357D01*
X176498968Y-25175928D01*
X176634689Y-25245294D01*
X176766093Y-25315402D01*
X176887193Y-25382654D01*
X177014613Y-25456228D01*
X177140411Y-25531773D01*
X177266250Y-25610323D01*
X177387824Y-25689132D01*
X177508187Y-25770074D01*
X177621586Y-25849083D01*
X177733878Y-25930034D01*
X177839452Y-26008691D01*
X177943932Y-26089052D01*
X178047025Y-26170891D01*
X178153737Y-26258360D01*
X178266777Y-26354196D01*
X178368047Y-26442948D01*
X178465625Y-26531168D01*
X178561610Y-26620649D01*
X178668337Y-26723421D01*
X178768305Y-26822967D01*
X178866833Y-26924344D01*
X178956867Y-27019964D01*
X179047847Y-27119629D01*
X179135040Y-27218162D01*
X179220707Y-27318001D01*
X179307053Y-27421843D01*
X179389606Y-27524304D01*
X179470603Y-27628048D01*
X179554151Y-27738589D01*
X179631846Y-27844815D01*
X179709788Y-27954927D01*
X179793565Y-28077522D01*
X179873220Y-28198466D01*
X179950909Y-28320880D01*
X180028408Y-28447743D01*
X180098480Y-28566894D01*
X180173496Y-28699562D01*
X180240461Y-28822864D01*
X180307127Y-28950651D01*
X180370864Y-29077994D01*
X180435462Y-29212770D01*
X180494816Y-29342250D01*
X180557594Y-29485799D01*
X180612582Y-29617814D01*
X180665484Y-29751109D01*
X180716222Y-29885529D01*
X180766403Y-30025735D01*
X180814685Y-30168524D01*
X180861049Y-30314160D01*
X180903403Y-30455838D01*
X180944301Y-30601989D01*
X180983013Y-30750574D01*
X181020711Y-30907060D01*
X181054429Y-31059454D01*
X181085392Y-31212679D01*
X181115364Y-31377017D01*
X181144282Y-31556201D01*
X181168326Y-31727708D01*
X181188992Y-31900498D01*
X181205887Y-32070697D01*
X181206455Y-32077911D01*
X167387293Y-31828053D01*
X167347548Y-31823814D01*
X167279044Y-31830003D01*
X167210619Y-31835495D01*
X167207053Y-31836507D01*
X167203353Y-31836841D01*
X167137345Y-31856284D01*
X167071334Y-31875012D01*
X167068036Y-31876699D01*
X167064471Y-31877749D01*
X167003547Y-31909684D01*
X166942434Y-31940942D01*
X166939525Y-31943242D01*
X166936237Y-31944966D01*
X166882743Y-31988150D01*
X166828874Y-32030753D01*
X166826469Y-32033577D01*
X166823581Y-32035909D01*
X166779547Y-32088689D01*
X166735016Y-32140992D01*
X166733209Y-32144231D01*
X166730831Y-32147081D01*
X166697948Y-32207425D01*
X166664469Y-32267425D01*
X166663328Y-32270956D01*
X166661553Y-32274213D01*
X166641066Y-32339835D01*
X166619944Y-32405190D01*
X166619514Y-32408871D01*
X166618407Y-32412417D01*
X166611117Y-32480771D01*
X166603150Y-32548995D01*
X166606348Y-32588833D01*
X166468234Y-49694235D01*
X166464386Y-49733305D01*
X166471199Y-49802476D01*
X166477438Y-49871536D01*
X166478283Y-49874405D01*
X166478577Y-49877390D01*
X166498762Y-49943931D01*
X166518346Y-50010419D01*
X166519734Y-50013067D01*
X166520605Y-50015938D01*
X166553388Y-50077272D01*
X166585563Y-50138653D01*
X166587441Y-50140979D01*
X166588855Y-50143625D01*
X166632964Y-50197371D01*
X166676505Y-50251309D01*
X166678802Y-50253225D01*
X166680704Y-50255543D01*
X166734426Y-50299631D01*
X166787678Y-50344059D01*
X166790305Y-50345491D01*
X166792622Y-50347392D01*
X166853937Y-50380165D01*
X166914810Y-50413337D01*
X166917663Y-50414228D01*
X166920309Y-50415642D01*
X166986820Y-50435818D01*
X167053014Y-50456483D01*
X167055990Y-50456800D01*
X167058857Y-50457670D01*
X167128015Y-50464481D01*
X167196979Y-50471836D01*
X167236063Y-50468305D01*
X181224602Y-50468305D01*
X181224602Y-144133955D01*
X181222748Y-144323013D01*
X181217401Y-144505600D01*
X181208778Y-144683369D01*
X181196525Y-144864263D01*
X181181572Y-145036497D01*
X181163481Y-145207925D01*
X181142780Y-145374727D01*
X181119697Y-145536907D01*
X181093809Y-145698254D01*
X181065164Y-145858623D01*
X181034512Y-146014489D01*
X181001280Y-146169311D01*
X180965460Y-146323259D01*
X180928005Y-146472703D01*
X180887656Y-146622911D01*
X180845924Y-146768515D01*
X180800209Y-146918466D01*
X180752018Y-147067385D01*
X180703836Y-147208250D01*
X180654667Y-147344817D01*
X180603415Y-147480418D01*
X180549394Y-147616767D01*
X180494796Y-147748487D01*
X180435948Y-147884343D01*
X180375017Y-148019045D01*
X180315158Y-148146049D01*
X180253355Y-148272156D01*
X180189776Y-148397050D01*
X180122704Y-148523938D01*
X180050145Y-148656074D01*
X179977307Y-148783808D01*
X179908119Y-148900938D01*
X179837174Y-149017107D01*
X179762584Y-149135260D01*
X179688522Y-149248796D01*
X179600274Y-149379527D01*
X179522764Y-149490541D01*
X179443365Y-149600787D01*
X179362552Y-149709608D01*
X179273341Y-149826011D01*
X179191562Y-149929478D01*
X179105887Y-150034731D01*
X179021091Y-150135891D01*
X178932449Y-150238607D01*
X178842432Y-150339903D01*
X178748449Y-150442576D01*
X178658033Y-150538512D01*
X178561222Y-150638291D01*
X178460411Y-150739103D01*
X178360575Y-150835970D01*
X178264638Y-150926386D01*
X178161952Y-151020380D01*
X178060583Y-151110463D01*
X177960647Y-151196736D01*
X177859531Y-151281558D01*
X177754190Y-151367372D01*
X177650593Y-151449316D01*
X177545755Y-151529852D01*
X177436962Y-151610958D01*
X177323947Y-151692643D01*
X177212696Y-151770567D01*
X177100219Y-151846923D01*
X176986575Y-151921663D01*
X176871990Y-151994638D01*
X176746791Y-152071714D01*
X176629950Y-152141206D01*
X176502304Y-152214507D01*
X176383155Y-152280524D01*
X176259589Y-152346590D01*
X176131807Y-152412406D01*
X176002787Y-152476337D01*
X175876132Y-152536681D01*
X175744954Y-152596714D01*
X175612893Y-152654667D01*
X175476352Y-152712018D01*
X175338679Y-152767252D01*
X175203589Y-152818966D01*
X175056867Y-152872398D01*
X174916250Y-152920981D01*
X174774401Y-152967429D01*
X174631690Y-153011602D01*
X174484870Y-153054409D01*
X174315131Y-153100624D01*
X174166228Y-153138315D01*
X174014161Y-153174088D01*
X173861312Y-153207319D01*
X173703687Y-153238752D01*
X173545443Y-153267449D01*
X173380405Y-153294358D01*
X173218853Y-153317742D01*
X173033190Y-153341043D01*
X172865880Y-153358802D01*
X172693555Y-153373898D01*
X172516671Y-153386055D01*
X172335145Y-153395040D01*
X172144933Y-153400686D01*
X171956001Y-153402539D01*
X158332799Y-153402539D01*
X158137813Y-153401560D01*
X157932522Y-153398410D01*
X157741525Y-153393517D01*
X157554480Y-153386889D01*
X157367612Y-153378449D01*
X157182659Y-153368303D01*
X156997834Y-153356381D01*
X156815206Y-153342851D01*
X156634734Y-153327759D01*
X156454372Y-153310965D01*
X156274117Y-153292472D01*
X156099913Y-153272967D01*
X155921994Y-153251384D01*
X155750211Y-153228948D01*
X155578639Y-153204966D01*
X155407165Y-153179422D01*
X155235887Y-153152326D01*
X155069874Y-153124550D01*
X154902061Y-153094949D01*
X154731288Y-153063252D01*
X154569015Y-153031649D01*
X154405809Y-152998401D01*
X154324846Y-152981366D01*
X154160148Y-152946362D01*
X153810615Y-152872074D01*
X153810611Y-152872074D01*
X153439181Y-152793133D01*
X153439123Y-152793120D01*
X153046393Y-152709651D01*
X153046389Y-152709651D01*
X152421510Y-152576840D01*
X152421481Y-152576834D01*
X151747967Y-152433685D01*
X151747965Y-152433685D01*
X151277478Y-152333688D01*
X151277474Y-152333688D01*
X150789352Y-152229940D01*
X150789344Y-152229939D01*
X150284304Y-152122596D01*
X150284298Y-152122595D01*
X149763059Y-152011809D01*
X149763057Y-152011809D01*
X149226331Y-151897731D01*
X148395502Y-151721143D01*
X147530503Y-151537291D01*
X147530474Y-151537285D01*
X146939030Y-151411576D01*
X146335764Y-151283354D01*
X146335706Y-151283341D01*
X145721221Y-151152733D01*
X144781315Y-150952957D01*
X143494027Y-150679345D01*
X143494019Y-150679344D01*
X142175059Y-150398999D01*
X142175051Y-150398998D01*
X140830174Y-150113144D01*
X139465159Y-149823008D01*
X139465130Y-149823002D01*
X137393113Y-149382591D01*
X137393084Y-149382585D01*
X135306666Y-148939110D01*
X135306637Y-148939104D01*
X134265212Y-148717744D01*
X134265210Y-148717744D01*
X133573027Y-148570619D01*
X133572969Y-148570606D01*
X132539106Y-148350854D01*
X132539104Y-148350854D01*
X131174060Y-148060707D01*
X129162491Y-147633138D01*
X126587916Y-147085896D01*
X126587908Y-147085895D01*
X124174617Y-146572932D01*
X121968702Y-146104045D01*
X121968673Y-146104039D01*
X120016219Y-145689024D01*
X120016162Y-145689011D01*
X118756251Y-145421201D01*
X118756243Y-145421200D01*
X118013404Y-145263300D01*
X118013270Y-145263270D01*
X117678739Y-145192161D01*
X117678583Y-145192143D01*
X117675662Y-145191514D01*
X117509311Y-145156897D01*
X117509133Y-145156878D01*
X117503035Y-145155620D01*
X117328400Y-145120864D01*
X117328222Y-145120846D01*
X117322086Y-145119636D01*
X117153221Y-145087562D01*
X117153045Y-145087546D01*
X117146882Y-145086387D01*
X116969712Y-145054343D01*
X116969546Y-145054329D01*
X116963107Y-145053179D01*
X116780640Y-145021894D01*
X116780469Y-145021882D01*
X116774074Y-145020799D01*
X116599435Y-144992482D01*
X116599264Y-144992471D01*
X116592859Y-144991446D01*
X116434117Y-144967180D01*
X175251800Y-144967180D01*
X175251800Y-145304020D01*
X175317514Y-145634389D01*
X175446418Y-145945589D01*
X175633556Y-146225661D01*
X175871739Y-146463844D01*
X176151811Y-146650982D01*
X176463011Y-146779886D01*
X176793380Y-146845600D01*
X177130220Y-146845600D01*
X177460589Y-146779886D01*
X177771789Y-146650982D01*
X178051861Y-146463844D01*
X178290044Y-146225661D01*
X178477182Y-145945589D01*
X178606086Y-145634389D01*
X178671800Y-145304020D01*
X178671800Y-144967180D01*
X178606086Y-144636811D01*
X178477182Y-144325611D01*
X178290044Y-144045539D01*
X178051861Y-143807356D01*
X177771789Y-143620218D01*
X177460589Y-143491314D01*
X177130220Y-143425600D01*
X176793380Y-143425600D01*
X176463011Y-143491314D01*
X176151811Y-143620218D01*
X175871739Y-143807356D01*
X175633556Y-144045539D01*
X175446418Y-144325611D01*
X175317514Y-144636811D01*
X175251800Y-144967180D01*
X116434117Y-144967180D01*
X116408892Y-144963324D01*
X116408719Y-144963315D01*
X116402281Y-144962344D01*
X116226180Y-144937061D01*
X116226003Y-144937053D01*
X116219636Y-144936152D01*
X116039276Y-144911910D01*
X116039108Y-144911904D01*
X116032681Y-144911053D01*
X115854146Y-144888699D01*
X115853965Y-144888694D01*
X115847437Y-144887891D01*
X115660590Y-144866239D01*
X115660421Y-144866236D01*
X115653826Y-144865487D01*
X115472889Y-144846216D01*
X115472719Y-144846215D01*
X115466212Y-144845535D01*
X115283068Y-144827719D01*
X115282898Y-144827719D01*
X115276230Y-144827086D01*
X115086813Y-144810445D01*
X115086645Y-144810447D01*
X115079921Y-144809872D01*
X114894426Y-144795333D01*
X114894257Y-144795336D01*
X114887545Y-144794826D01*
X114698848Y-144781817D01*
X114698677Y-144781822D01*
X114691911Y-144781372D01*
X114503084Y-144770147D01*
X114502913Y-144770154D01*
X114496068Y-144769764D01*
X114303035Y-144760140D01*
X114302876Y-144760148D01*
X114295823Y-144759816D01*
X114096547Y-144751842D01*
X114096388Y-144751851D01*
X114089277Y-144751587D01*
X113892965Y-144745677D01*
X113892808Y-144745688D01*
X113885751Y-144745495D01*
X113689354Y-144741512D01*
X113689203Y-144741524D01*
X113681971Y-144741399D01*
X113477316Y-144739305D01*
X113477131Y-144739321D01*
X113471663Y-144739269D01*
X113369315Y-144739009D01*
X113369207Y-144739019D01*
X113367448Y-144739007D01*
X29446810Y-144739007D01*
X29257952Y-144737119D01*
X29074916Y-144731657D01*
X28896173Y-144722824D01*
X28714828Y-144710320D01*
X28543648Y-144695230D01*
X28358855Y-144675335D01*
X28182155Y-144652797D01*
X28020442Y-144629130D01*
X27861060Y-144602937D01*
X27698884Y-144573337D01*
X27520840Y-144537393D01*
X27369050Y-144503865D01*
X27217461Y-144467696D01*
X27066591Y-144429006D01*
X26919933Y-144388788D01*
X26772298Y-144345670D01*
X26625336Y-144300087D01*
X26484504Y-144253876D01*
X26344152Y-144205320D01*
X26207283Y-144155525D01*
X26072091Y-144103923D01*
X25935360Y-144049253D01*
X25788466Y-143987684D01*
X25652740Y-143928133D01*
X25521137Y-143867892D01*
X25391187Y-143805940D01*
X25266992Y-143744393D01*
X25144478Y-143681382D01*
X25019648Y-143614785D01*
X24899023Y-143548077D01*
X24779294Y-143479516D01*
X24658990Y-143408212D01*
X24539744Y-143335078D01*
X24423849Y-143261592D01*
X24307299Y-143185229D01*
X24196521Y-143110287D01*
X24085806Y-143033023D01*
X23975522Y-142953638D01*
X23867001Y-142873084D01*
X23759553Y-142790867D01*
X23653171Y-142706972D01*
X23550758Y-142623780D01*
X23449460Y-142539067D01*
X23348489Y-142452144D01*
X23249367Y-142364306D01*
X23152094Y-142275600D01*
X23055422Y-142184883D01*
X22953780Y-142086654D01*
X22892571Y-142026022D01*
X22797163Y-141929219D01*
X22705911Y-141833926D01*
X22614868Y-141736084D01*
X22525995Y-141637781D01*
X22438618Y-141538313D01*
X22352794Y-141437749D01*
X22268494Y-141336069D01*
X22185764Y-141233336D01*
X22102393Y-141126696D01*
X22020644Y-141018922D01*
X21940581Y-140910104D01*
X21860112Y-140797280D01*
X21781362Y-140683297D01*
X21706456Y-140571388D01*
X21632340Y-140457067D01*
X21552558Y-140329741D01*
X21482625Y-140214220D01*
X21412874Y-140095066D01*
X21345009Y-139975069D01*
X21275934Y-139848472D01*
X21210233Y-139723521D01*
X21142671Y-139589984D01*
X21138971Y-139582380D01*
X23626500Y-139582380D01*
X23626500Y-139919220D01*
X23692214Y-140249589D01*
X23821118Y-140560789D01*
X24008256Y-140840861D01*
X24246439Y-141079044D01*
X24526511Y-141266182D01*
X24837711Y-141395086D01*
X25168080Y-141460800D01*
X25504920Y-141460800D01*
X25835289Y-141395086D01*
X26146489Y-141266182D01*
X26426561Y-141079044D01*
X26664744Y-140840861D01*
X26851882Y-140560789D01*
X26980786Y-140249589D01*
X27046500Y-139919220D01*
X27046500Y-139582380D01*
X26980786Y-139252011D01*
X26851882Y-138940811D01*
X26664744Y-138660739D01*
X26426561Y-138422556D01*
X26146489Y-138235418D01*
X25835289Y-138106514D01*
X25504920Y-138040800D01*
X25168080Y-138040800D01*
X24837711Y-138106514D01*
X24526511Y-138235418D01*
X24246439Y-138422556D01*
X24008256Y-138660739D01*
X23821118Y-138940811D01*
X23692214Y-139252011D01*
X23626500Y-139582380D01*
X21138971Y-139582380D01*
X21082116Y-139465538D01*
X21022590Y-139338375D01*
X20964657Y-139209553D01*
X20908757Y-139080009D01*
X20851036Y-138940228D01*
X20797637Y-138804815D01*
X20746659Y-138669358D01*
X20696592Y-138529660D01*
X20648795Y-138389252D01*
X20602673Y-138246258D01*
X20559188Y-138103590D01*
X20515987Y-137952976D01*
X20475614Y-137802724D01*
X20436894Y-137648180D01*
X20400814Y-137492888D01*
X20367414Y-137337013D01*
X20335696Y-137175185D01*
X20305750Y-137006210D01*
X20280024Y-136843992D01*
X20256792Y-136678376D01*
X20236545Y-136512279D01*
X20218927Y-136341833D01*
X20204462Y-136171099D01*
X20192972Y-135996695D01*
X20183677Y-135791693D01*
X20179138Y-135604258D01*
X20178200Y-135471419D01*
X20178200Y-91970080D01*
X175251800Y-91970080D01*
X175251800Y-92306920D01*
X175317514Y-92637289D01*
X175446418Y-92948489D01*
X175633556Y-93228561D01*
X175871739Y-93466744D01*
X176151811Y-93653882D01*
X176463011Y-93782786D01*
X176793380Y-93848500D01*
X177130220Y-93848500D01*
X177460589Y-93782786D01*
X177771789Y-93653882D01*
X178051861Y-93466744D01*
X178290044Y-93228561D01*
X178477182Y-92948489D01*
X178606086Y-92637289D01*
X178671800Y-92306920D01*
X178671800Y-91970080D01*
X178606086Y-91639711D01*
X178477182Y-91328511D01*
X178290044Y-91048439D01*
X178051861Y-90810256D01*
X177771789Y-90623118D01*
X177460589Y-90494214D01*
X177130220Y-90428500D01*
X176793380Y-90428500D01*
X176463011Y-90494214D01*
X176151811Y-90623118D01*
X175871739Y-90810256D01*
X175633556Y-91048439D01*
X175446418Y-91328511D01*
X175317514Y-91639711D01*
X175251800Y-91970080D01*
X20178200Y-91970080D01*
X20178200Y-33546305D01*
X20180718Y-33327558D01*
X20186726Y-33145239D01*
X20196056Y-32967401D01*
X20209242Y-32784355D01*
X20224808Y-32613903D01*
X20243314Y-32445503D01*
X20264373Y-32281296D01*
X20288070Y-32119381D01*
X20314257Y-31960037D01*
X20344623Y-31793839D01*
X20375671Y-31639363D01*
X20410180Y-31481763D01*
X20446944Y-31326762D01*
X20487308Y-31168865D01*
X20527954Y-31020474D01*
X20570010Y-30876282D01*
X20613794Y-30734689D01*
X20663404Y-30583205D01*
X20711854Y-30443163D01*
X20762580Y-30303799D01*
X20816221Y-30163505D01*
X20869610Y-30030236D01*
X20929521Y-29887393D01*
X20987224Y-29755791D01*
X21046281Y-29626567D01*
X21108571Y-29495665D01*
X21171195Y-29369133D01*
X21235855Y-29243349D01*
X21300633Y-29121875D01*
X21323967Y-29079680D01*
X23626500Y-29079680D01*
X23626500Y-29416520D01*
X23692214Y-29746889D01*
X23821118Y-30058089D01*
X24008256Y-30338161D01*
X24246439Y-30576344D01*
X24526511Y-30763482D01*
X24837711Y-30892386D01*
X25168080Y-30958100D01*
X25504920Y-30958100D01*
X25835289Y-30892386D01*
X26146489Y-30763482D01*
X26426561Y-30576344D01*
X26664744Y-30338161D01*
X26851882Y-30058089D01*
X26980786Y-29746889D01*
X27046500Y-29416520D01*
X27046500Y-29079680D01*
X26980786Y-28749311D01*
X26851882Y-28438111D01*
X26664744Y-28158039D01*
X26426561Y-27919856D01*
X26146489Y-27732718D01*
X25835289Y-27603814D01*
X25504920Y-27538100D01*
X25168080Y-27538100D01*
X24837711Y-27603814D01*
X24526511Y-27732718D01*
X24246439Y-27919856D01*
X24008256Y-28158039D01*
X23821118Y-28438111D01*
X23692214Y-28749311D01*
X23626500Y-29079680D01*
X21323967Y-29079680D01*
X21370913Y-28994790D01*
X21441308Y-28872023D01*
X21511268Y-28754155D01*
X21582108Y-28638712D01*
X21654180Y-28525009D01*
X21728948Y-28410795D01*
X21805483Y-28297553D01*
X21882629Y-28186938D01*
X21961484Y-28077316D01*
X22041876Y-27968926D01*
X22130770Y-27852801D01*
X22216793Y-27743936D01*
X22309482Y-27630279D01*
X22394361Y-27529336D01*
X22480903Y-27429348D01*
X22571257Y-27327962D01*
X22673597Y-27216636D01*
X22764709Y-27120518D01*
X22858791Y-27024073D01*
X22890680Y-26992022D01*
X22985361Y-26898666D01*
X23084028Y-26804155D01*
X23181145Y-26713796D01*
X23278757Y-26625539D01*
X23378911Y-26537551D01*
X23479237Y-26451932D01*
X23592419Y-26358244D01*
X23694871Y-26275996D01*
X23810486Y-26186003D01*
X23918253Y-26104720D01*
X24026570Y-26025463D01*
X24136661Y-25947342D01*
X24248534Y-25870390D01*
X24360628Y-25795674D01*
X24476837Y-25720663D01*
X24590942Y-25649372D01*
X24709043Y-25577977D01*
X24831387Y-25506516D01*
X24951481Y-25438776D01*
X25072558Y-25372843D01*
X25195353Y-25308325D01*
X25323939Y-25243252D01*
X25448486Y-25182591D01*
X25574763Y-25123414D01*
X25707697Y-25063594D01*
X25840628Y-25006265D01*
X25972815Y-24951672D01*
X26105742Y-24899160D01*
X26241201Y-24848063D01*
X26382576Y-24797290D01*
X26523830Y-24749120D01*
X26664117Y-24703777D01*
X26807830Y-24659861D01*
X26953991Y-24617793D01*
X27100714Y-24578159D01*
X27255337Y-24539167D01*
X27408757Y-24503260D01*
X27562883Y-24469942D01*
X27721088Y-24438587D01*
X27889144Y-24408396D01*
X28048518Y-24382707D01*
X28213999Y-24359040D01*
X28386959Y-24337552D01*
X28580996Y-24317363D01*
X28758674Y-24302484D01*
X28936745Y-24291026D01*
X29139768Y-24282156D01*
X29331352Y-24277850D01*
X29445343Y-24277156D01*
X50413932Y-24277156D01*
X42970818Y-59781842D01*
G37*
X42970818Y-59781842D02*
X42960145Y-59815439D01*
X42956003Y-59852516D01*
X42955791Y-59853525D01*
X42951992Y-59888416D01*
X42944069Y-59959326D01*
X42944157Y-59960360D01*
X42944045Y-59961390D01*
X42950320Y-60032613D01*
X42956373Y-60103584D01*
X42956660Y-60104576D01*
X42956751Y-60105612D01*
X42976822Y-60174315D01*
X42996584Y-60242670D01*
X42997060Y-60243588D01*
X42997351Y-60244586D01*
X43030330Y-60307843D01*
X43063156Y-60371239D01*
X43063805Y-60372051D01*
X43064283Y-60372968D01*
X43108910Y-60428503D01*
X43153532Y-60484350D01*
X43154325Y-60485018D01*
X43154974Y-60485826D01*
X43209741Y-60531724D01*
X43264239Y-60577656D01*
X43265144Y-60578155D01*
X43265941Y-60578823D01*
X43328434Y-60613058D01*
X43391021Y-60647572D01*
X43392015Y-60647888D01*
X43392919Y-60648383D01*
X43461036Y-60669815D01*
X43494431Y-60680424D01*
X43495430Y-60680636D01*
X43531026Y-60691836D01*
X43566077Y-60695653D01*
X63242738Y-64878047D01*
X63277311Y-64889031D01*
X63313365Y-64893059D01*
X63313369Y-64893060D01*
X63369477Y-64899328D01*
X63421198Y-64905107D01*
X63421201Y-64905107D01*
X63461552Y-64901665D01*
X63565455Y-64892804D01*
X63565458Y-64892803D01*
X63565459Y-64892803D01*
X63587212Y-64886514D01*
X63704542Y-64852594D01*
X63718837Y-64845192D01*
X63833114Y-64786020D01*
X63920948Y-64715841D01*
X63946223Y-64695646D01*
X64039529Y-64584940D01*
X64109445Y-64458158D01*
X64109447Y-64458155D01*
X64153285Y-64320169D01*
X64157313Y-64284113D01*
X69453249Y-39369222D01*
X73913861Y-40317222D01*
X73950726Y-40328677D01*
X74020419Y-40336017D01*
X74090053Y-40343795D01*
X74092386Y-40343596D01*
X74094712Y-40343841D01*
X74164449Y-40337448D01*
X74234311Y-40331487D01*
X74236561Y-40330836D01*
X74238889Y-40330623D01*
X74306042Y-40310747D01*
X74373397Y-40291272D01*
X74375475Y-40290196D01*
X74377718Y-40289532D01*
X74439741Y-40256917D01*
X74501964Y-40224695D01*
X74503791Y-40223235D01*
X74505862Y-40222146D01*
X74560317Y-40178068D01*
X74615072Y-40134316D01*
X74616580Y-40132526D01*
X74618398Y-40131055D01*
X74663176Y-40077238D01*
X74708375Y-40023607D01*
X74709506Y-40021555D01*
X74711001Y-40019759D01*
X74744420Y-39958241D01*
X74778287Y-39896823D01*
X74778996Y-39894592D01*
X74780112Y-39892537D01*
X74800890Y-39825670D01*
X74822121Y-39758835D01*
X74826407Y-39720467D01*
X78006854Y-24277156D01*
X146784967Y-24277156D01*
X141844759Y-48000395D01*
X141834234Y-48033524D01*
X141830037Y-48071091D01*
X141829727Y-48072580D01*
X141826025Y-48107001D01*
X141818159Y-48177411D01*
X141818289Y-48178935D01*
X141818125Y-48180460D01*
X141824443Y-48251083D01*
X141830463Y-48321669D01*
X141830889Y-48323141D01*
X141831025Y-48324666D01*
X141850980Y-48392634D01*
X141870674Y-48460755D01*
X141871379Y-48462116D01*
X141871810Y-48463585D01*
X141904655Y-48526381D01*
X141937247Y-48589324D01*
X141938203Y-48590520D01*
X141938913Y-48591878D01*
X141983412Y-48647103D01*
X142027623Y-48702435D01*
X142028793Y-48703421D01*
X142029755Y-48704615D01*
X142084204Y-48750123D01*
X142138330Y-48795741D01*
X142139669Y-48796480D01*
X142140846Y-48797463D01*
X142203101Y-48831459D01*
X142265112Y-48865656D01*
X142266571Y-48866120D01*
X142267916Y-48866854D01*
X142335513Y-48888022D01*
X142368522Y-48898509D01*
X142370013Y-48898826D01*
X142406082Y-48910121D01*
X142440637Y-48913837D01*
X151575055Y-50855400D01*
X151611013Y-50866672D01*
X151681548Y-50874280D01*
X151752137Y-50882166D01*
X151753548Y-50882046D01*
X151754961Y-50882198D01*
X151825710Y-50875891D01*
X151896395Y-50869862D01*
X151897758Y-50869468D01*
X151899170Y-50869342D01*
X151967277Y-50849370D01*
X152035482Y-50829651D01*
X152036741Y-50828999D01*
X152038102Y-50828600D01*
X152101049Y-50795700D01*
X152164050Y-50763078D01*
X152165157Y-50762194D01*
X152166415Y-50761536D01*
X152221749Y-50716976D01*
X152277161Y-50672702D01*
X152278074Y-50671618D01*
X152279180Y-50670728D01*
X152324755Y-50616231D01*
X152370467Y-50561995D01*
X152371152Y-50560754D01*
X152372062Y-50559665D01*
X152406116Y-50497350D01*
X152440382Y-50435213D01*
X152440811Y-50433861D01*
X152441492Y-50432616D01*
X152462721Y-50364898D01*
X152484220Y-50297227D01*
X152488405Y-50259769D01*
X156908417Y-29066980D01*
X175251800Y-29066980D01*
X175251800Y-29403820D01*
X175317514Y-29734189D01*
X175446418Y-30045389D01*
X175633556Y-30325461D01*
X175871739Y-30563644D01*
X176151811Y-30750782D01*
X176463011Y-30879686D01*
X176793380Y-30945400D01*
X177130220Y-30945400D01*
X177460589Y-30879686D01*
X177771789Y-30750782D01*
X178051861Y-30563644D01*
X178290044Y-30325461D01*
X178477182Y-30045389D01*
X178606086Y-29734189D01*
X178671800Y-29403820D01*
X178671800Y-29066980D01*
X178606086Y-28736611D01*
X178477182Y-28425411D01*
X178290044Y-28145339D01*
X178051861Y-27907156D01*
X177771789Y-27720018D01*
X177460589Y-27591114D01*
X177130220Y-27525400D01*
X176793380Y-27525400D01*
X176463011Y-27591114D01*
X176151811Y-27720018D01*
X175871739Y-27907156D01*
X175633556Y-28145339D01*
X175446418Y-28425411D01*
X175317514Y-28736611D01*
X175251800Y-29066980D01*
X156908417Y-29066980D01*
X157907393Y-24277156D01*
X172671044Y-24277156D01*
X172867087Y-24279303D01*
X173052726Y-24285358D01*
X173228641Y-24294769D01*
X173403754Y-24307711D01*
X173574351Y-24323780D01*
X173740546Y-24342739D01*
X173907421Y-24365095D01*
X174073239Y-24390638D01*
X174241550Y-24419988D01*
X174398517Y-24450508D01*
X174551192Y-24483146D01*
X174708018Y-24519743D01*
X174857038Y-24557437D01*
X175003431Y-24597282D01*
X175148953Y-24639693D01*
X175290045Y-24683527D01*
X175430201Y-24729759D01*
X175569201Y-24778300D01*
X175710443Y-24830416D01*
X175844061Y-24882361D01*
X175976798Y-24936561D01*
X176108367Y-24992885D01*
X176238780Y-25051329D01*
X176371132Y-25113357D01*
X176498968Y-25175928D01*
X176634689Y-25245294D01*
X176766093Y-25315402D01*
X176887193Y-25382654D01*
X177014613Y-25456228D01*
X177140411Y-25531773D01*
X177266250Y-25610323D01*
X177387824Y-25689132D01*
X177508187Y-25770074D01*
X177621586Y-25849083D01*
X177733878Y-25930034D01*
X177839452Y-26008691D01*
X177943932Y-26089052D01*
X178047025Y-26170891D01*
X178153737Y-26258360D01*
X178266777Y-26354196D01*
X178368047Y-26442948D01*
X178465625Y-26531168D01*
X178561610Y-26620649D01*
X178668337Y-26723421D01*
X178768305Y-26822967D01*
X178866833Y-26924344D01*
X178956867Y-27019964D01*
X179047847Y-27119629D01*
X179135040Y-27218162D01*
X179220707Y-27318001D01*
X179307053Y-27421843D01*
X179389606Y-27524304D01*
X179470603Y-27628048D01*
X179554151Y-27738589D01*
X179631846Y-27844815D01*
X179709788Y-27954927D01*
X179793565Y-28077522D01*
X179873220Y-28198466D01*
X179950909Y-28320880D01*
X180028408Y-28447743D01*
X180098480Y-28566894D01*
X180173496Y-28699562D01*
X180240461Y-28822864D01*
X180307127Y-28950651D01*
X180370864Y-29077994D01*
X180435462Y-29212770D01*
X180494816Y-29342250D01*
X180557594Y-29485799D01*
X180612582Y-29617814D01*
X180665484Y-29751109D01*
X180716222Y-29885529D01*
X180766403Y-30025735D01*
X180814685Y-30168524D01*
X180861049Y-30314160D01*
X180903403Y-30455838D01*
X180944301Y-30601989D01*
X180983013Y-30750574D01*
X181020711Y-30907060D01*
X181054429Y-31059454D01*
X181085392Y-31212679D01*
X181115364Y-31377017D01*
X181144282Y-31556201D01*
X181168326Y-31727708D01*
X181188992Y-31900498D01*
X181205887Y-32070697D01*
X181206455Y-32077911D01*
X167387293Y-31828053D01*
X167347548Y-31823814D01*
X167279044Y-31830003D01*
X167210619Y-31835495D01*
X167207053Y-31836507D01*
X167203353Y-31836841D01*
X167137345Y-31856284D01*
X167071334Y-31875012D01*
X167068036Y-31876699D01*
X167064471Y-31877749D01*
X167003547Y-31909684D01*
X166942434Y-31940942D01*
X166939525Y-31943242D01*
X166936237Y-31944966D01*
X166882743Y-31988150D01*
X166828874Y-32030753D01*
X166826469Y-32033577D01*
X166823581Y-32035909D01*
X166779547Y-32088689D01*
X166735016Y-32140992D01*
X166733209Y-32144231D01*
X166730831Y-32147081D01*
X166697948Y-32207425D01*
X166664469Y-32267425D01*
X166663328Y-32270956D01*
X166661553Y-32274213D01*
X166641066Y-32339835D01*
X166619944Y-32405190D01*
X166619514Y-32408871D01*
X166618407Y-32412417D01*
X166611117Y-32480771D01*
X166603150Y-32548995D01*
X166606348Y-32588833D01*
X166468234Y-49694235D01*
X166464386Y-49733305D01*
X166471199Y-49802476D01*
X166477438Y-49871536D01*
X166478283Y-49874405D01*
X166478577Y-49877390D01*
X166498762Y-49943931D01*
X166518346Y-50010419D01*
X166519734Y-50013067D01*
X166520605Y-50015938D01*
X166553388Y-50077272D01*
X166585563Y-50138653D01*
X166587441Y-50140979D01*
X166588855Y-50143625D01*
X166632964Y-50197371D01*
X166676505Y-50251309D01*
X166678802Y-50253225D01*
X166680704Y-50255543D01*
X166734426Y-50299631D01*
X166787678Y-50344059D01*
X166790305Y-50345491D01*
X166792622Y-50347392D01*
X166853937Y-50380165D01*
X166914810Y-50413337D01*
X166917663Y-50414228D01*
X166920309Y-50415642D01*
X166986820Y-50435818D01*
X167053014Y-50456483D01*
X167055990Y-50456800D01*
X167058857Y-50457670D01*
X167128015Y-50464481D01*
X167196979Y-50471836D01*
X167236063Y-50468305D01*
X181224602Y-50468305D01*
X181224602Y-144133955D01*
X181222748Y-144323013D01*
X181217401Y-144505600D01*
X181208778Y-144683369D01*
X181196525Y-144864263D01*
X181181572Y-145036497D01*
X181163481Y-145207925D01*
X181142780Y-145374727D01*
X181119697Y-145536907D01*
X181093809Y-145698254D01*
X181065164Y-145858623D01*
X181034512Y-146014489D01*
X181001280Y-146169311D01*
X180965460Y-146323259D01*
X180928005Y-146472703D01*
X180887656Y-146622911D01*
X180845924Y-146768515D01*
X180800209Y-146918466D01*
X180752018Y-147067385D01*
X180703836Y-147208250D01*
X180654667Y-147344817D01*
X180603415Y-147480418D01*
X180549394Y-147616767D01*
X180494796Y-147748487D01*
X180435948Y-147884343D01*
X180375017Y-148019045D01*
X180315158Y-148146049D01*
X180253355Y-148272156D01*
X180189776Y-148397050D01*
X180122704Y-148523938D01*
X180050145Y-148656074D01*
X179977307Y-148783808D01*
X179908119Y-148900938D01*
X179837174Y-149017107D01*
X179762584Y-149135260D01*
X179688522Y-149248796D01*
X179600274Y-149379527D01*
X179522764Y-149490541D01*
X179443365Y-149600787D01*
X179362552Y-149709608D01*
X179273341Y-149826011D01*
X179191562Y-149929478D01*
X179105887Y-150034731D01*
X179021091Y-150135891D01*
X178932449Y-150238607D01*
X178842432Y-150339903D01*
X178748449Y-150442576D01*
X178658033Y-150538512D01*
X178561222Y-150638291D01*
X178460411Y-150739103D01*
X178360575Y-150835970D01*
X178264638Y-150926386D01*
X178161952Y-151020380D01*
X178060583Y-151110463D01*
X177960647Y-151196736D01*
X177859531Y-151281558D01*
X177754190Y-151367372D01*
X177650593Y-151449316D01*
X177545755Y-151529852D01*
X177436962Y-151610958D01*
X177323947Y-151692643D01*
X177212696Y-151770567D01*
X177100219Y-151846923D01*
X176986575Y-151921663D01*
X176871990Y-151994638D01*
X176746791Y-152071714D01*
X176629950Y-152141206D01*
X176502304Y-152214507D01*
X176383155Y-152280524D01*
X176259589Y-152346590D01*
X176131807Y-152412406D01*
X176002787Y-152476337D01*
X175876132Y-152536681D01*
X175744954Y-152596714D01*
X175612893Y-152654667D01*
X175476352Y-152712018D01*
X175338679Y-152767252D01*
X175203589Y-152818966D01*
X175056867Y-152872398D01*
X174916250Y-152920981D01*
X174774401Y-152967429D01*
X174631690Y-153011602D01*
X174484870Y-153054409D01*
X174315131Y-153100624D01*
X174166228Y-153138315D01*
X174014161Y-153174088D01*
X173861312Y-153207319D01*
X173703687Y-153238752D01*
X173545443Y-153267449D01*
X173380405Y-153294358D01*
X173218853Y-153317742D01*
X173033190Y-153341043D01*
X172865880Y-153358802D01*
X172693555Y-153373898D01*
X172516671Y-153386055D01*
X172335145Y-153395040D01*
X172144933Y-153400686D01*
X171956001Y-153402539D01*
X158332799Y-153402539D01*
X158137813Y-153401560D01*
X157932522Y-153398410D01*
X157741525Y-153393517D01*
X157554480Y-153386889D01*
X157367612Y-153378449D01*
X157182659Y-153368303D01*
X156997834Y-153356381D01*
X156815206Y-153342851D01*
X156634734Y-153327759D01*
X156454372Y-153310965D01*
X156274117Y-153292472D01*
X156099913Y-153272967D01*
X155921994Y-153251384D01*
X155750211Y-153228948D01*
X155578639Y-153204966D01*
X155407165Y-153179422D01*
X155235887Y-153152326D01*
X155069874Y-153124550D01*
X154902061Y-153094949D01*
X154731288Y-153063252D01*
X154569015Y-153031649D01*
X154405809Y-152998401D01*
X154324846Y-152981366D01*
X154160148Y-152946362D01*
X153810615Y-152872074D01*
X153810611Y-152872074D01*
X153439181Y-152793133D01*
X153439123Y-152793120D01*
X153046393Y-152709651D01*
X153046389Y-152709651D01*
X152421510Y-152576840D01*
X152421481Y-152576834D01*
X151747967Y-152433685D01*
X151747965Y-152433685D01*
X151277478Y-152333688D01*
X151277474Y-152333688D01*
X150789352Y-152229940D01*
X150789344Y-152229939D01*
X150284304Y-152122596D01*
X150284298Y-152122595D01*
X149763059Y-152011809D01*
X149763057Y-152011809D01*
X149226331Y-151897731D01*
X148395502Y-151721143D01*
X147530503Y-151537291D01*
X147530474Y-151537285D01*
X146939030Y-151411576D01*
X146335764Y-151283354D01*
X146335706Y-151283341D01*
X145721221Y-151152733D01*
X144781315Y-150952957D01*
X143494027Y-150679345D01*
X143494019Y-150679344D01*
X142175059Y-150398999D01*
X142175051Y-150398998D01*
X140830174Y-150113144D01*
X139465159Y-149823008D01*
X139465130Y-149823002D01*
X137393113Y-149382591D01*
X137393084Y-149382585D01*
X135306666Y-148939110D01*
X135306637Y-148939104D01*
X134265212Y-148717744D01*
X134265210Y-148717744D01*
X133573027Y-148570619D01*
X133572969Y-148570606D01*
X132539106Y-148350854D01*
X132539104Y-148350854D01*
X131174060Y-148060707D01*
X129162491Y-147633138D01*
X126587916Y-147085896D01*
X126587908Y-147085895D01*
X124174617Y-146572932D01*
X121968702Y-146104045D01*
X121968673Y-146104039D01*
X120016219Y-145689024D01*
X120016162Y-145689011D01*
X118756251Y-145421201D01*
X118756243Y-145421200D01*
X118013404Y-145263300D01*
X118013270Y-145263270D01*
X117678739Y-145192161D01*
X117678583Y-145192143D01*
X117675662Y-145191514D01*
X117509311Y-145156897D01*
X117509133Y-145156878D01*
X117503035Y-145155620D01*
X117328400Y-145120864D01*
X117328222Y-145120846D01*
X117322086Y-145119636D01*
X117153221Y-145087562D01*
X117153045Y-145087546D01*
X117146882Y-145086387D01*
X116969712Y-145054343D01*
X116969546Y-145054329D01*
X116963107Y-145053179D01*
X116780640Y-145021894D01*
X116780469Y-145021882D01*
X116774074Y-145020799D01*
X116599435Y-144992482D01*
X116599264Y-144992471D01*
X116592859Y-144991446D01*
X116434117Y-144967180D01*
X175251800Y-144967180D01*
X175251800Y-145304020D01*
X175317514Y-145634389D01*
X175446418Y-145945589D01*
X175633556Y-146225661D01*
X175871739Y-146463844D01*
X176151811Y-146650982D01*
X176463011Y-146779886D01*
X176793380Y-146845600D01*
X177130220Y-146845600D01*
X177460589Y-146779886D01*
X177771789Y-146650982D01*
X178051861Y-146463844D01*
X178290044Y-146225661D01*
X178477182Y-145945589D01*
X178606086Y-145634389D01*
X178671800Y-145304020D01*
X178671800Y-144967180D01*
X178606086Y-144636811D01*
X178477182Y-144325611D01*
X178290044Y-144045539D01*
X178051861Y-143807356D01*
X177771789Y-143620218D01*
X177460589Y-143491314D01*
X177130220Y-143425600D01*
X176793380Y-143425600D01*
X176463011Y-143491314D01*
X176151811Y-143620218D01*
X175871739Y-143807356D01*
X175633556Y-144045539D01*
X175446418Y-144325611D01*
X175317514Y-144636811D01*
X175251800Y-144967180D01*
X116434117Y-144967180D01*
X116408892Y-144963324D01*
X116408719Y-144963315D01*
X116402281Y-144962344D01*
X116226180Y-144937061D01*
X116226003Y-144937053D01*
X116219636Y-144936152D01*
X116039276Y-144911910D01*
X116039108Y-144911904D01*
X116032681Y-144911053D01*
X115854146Y-144888699D01*
X115853965Y-144888694D01*
X115847437Y-144887891D01*
X115660590Y-144866239D01*
X115660421Y-144866236D01*
X115653826Y-144865487D01*
X115472889Y-144846216D01*
X115472719Y-144846215D01*
X115466212Y-144845535D01*
X115283068Y-144827719D01*
X115282898Y-144827719D01*
X115276230Y-144827086D01*
X115086813Y-144810445D01*
X115086645Y-144810447D01*
X115079921Y-144809872D01*
X114894426Y-144795333D01*
X114894257Y-144795336D01*
X114887545Y-144794826D01*
X114698848Y-144781817D01*
X114698677Y-144781822D01*
X114691911Y-144781372D01*
X114503084Y-144770147D01*
X114502913Y-144770154D01*
X114496068Y-144769764D01*
X114303035Y-144760140D01*
X114302876Y-144760148D01*
X114295823Y-144759816D01*
X114096547Y-144751842D01*
X114096388Y-144751851D01*
X114089277Y-144751587D01*
X113892965Y-144745677D01*
X113892808Y-144745688D01*
X113885751Y-144745495D01*
X113689354Y-144741512D01*
X113689203Y-144741524D01*
X113681971Y-144741399D01*
X113477316Y-144739305D01*
X113477131Y-144739321D01*
X113471663Y-144739269D01*
X113369315Y-144739009D01*
X113369207Y-144739019D01*
X113367448Y-144739007D01*
X29446810Y-144739007D01*
X29257952Y-144737119D01*
X29074916Y-144731657D01*
X28896173Y-144722824D01*
X28714828Y-144710320D01*
X28543648Y-144695230D01*
X28358855Y-144675335D01*
X28182155Y-144652797D01*
X28020442Y-144629130D01*
X27861060Y-144602937D01*
X27698884Y-144573337D01*
X27520840Y-144537393D01*
X27369050Y-144503865D01*
X27217461Y-144467696D01*
X27066591Y-144429006D01*
X26919933Y-144388788D01*
X26772298Y-144345670D01*
X26625336Y-144300087D01*
X26484504Y-144253876D01*
X26344152Y-144205320D01*
X26207283Y-144155525D01*
X26072091Y-144103923D01*
X25935360Y-144049253D01*
X25788466Y-143987684D01*
X25652740Y-143928133D01*
X25521137Y-143867892D01*
X25391187Y-143805940D01*
X25266992Y-143744393D01*
X25144478Y-143681382D01*
X25019648Y-143614785D01*
X24899023Y-143548077D01*
X24779294Y-143479516D01*
X24658990Y-143408212D01*
X24539744Y-143335078D01*
X24423849Y-143261592D01*
X24307299Y-143185229D01*
X24196521Y-143110287D01*
X24085806Y-143033023D01*
X23975522Y-142953638D01*
X23867001Y-142873084D01*
X23759553Y-142790867D01*
X23653171Y-142706972D01*
X23550758Y-142623780D01*
X23449460Y-142539067D01*
X23348489Y-142452144D01*
X23249367Y-142364306D01*
X23152094Y-142275600D01*
X23055422Y-142184883D01*
X22953780Y-142086654D01*
X22892571Y-142026022D01*
X22797163Y-141929219D01*
X22705911Y-141833926D01*
X22614868Y-141736084D01*
X22525995Y-141637781D01*
X22438618Y-141538313D01*
X22352794Y-141437749D01*
X22268494Y-141336069D01*
X22185764Y-141233336D01*
X22102393Y-141126696D01*
X22020644Y-141018922D01*
X21940581Y-140910104D01*
X21860112Y-140797280D01*
X21781362Y-140683297D01*
X21706456Y-140571388D01*
X21632340Y-140457067D01*
X21552558Y-140329741D01*
X21482625Y-140214220D01*
X21412874Y-140095066D01*
X21345009Y-139975069D01*
X21275934Y-139848472D01*
X21210233Y-139723521D01*
X21142671Y-139589984D01*
X21138971Y-139582380D01*
X23626500Y-139582380D01*
X23626500Y-139919220D01*
X23692214Y-140249589D01*
X23821118Y-140560789D01*
X24008256Y-140840861D01*
X24246439Y-141079044D01*
X24526511Y-141266182D01*
X24837711Y-141395086D01*
X25168080Y-141460800D01*
X25504920Y-141460800D01*
X25835289Y-141395086D01*
X26146489Y-141266182D01*
X26426561Y-141079044D01*
X26664744Y-140840861D01*
X26851882Y-140560789D01*
X26980786Y-140249589D01*
X27046500Y-139919220D01*
X27046500Y-139582380D01*
X26980786Y-139252011D01*
X26851882Y-138940811D01*
X26664744Y-138660739D01*
X26426561Y-138422556D01*
X26146489Y-138235418D01*
X25835289Y-138106514D01*
X25504920Y-138040800D01*
X25168080Y-138040800D01*
X24837711Y-138106514D01*
X24526511Y-138235418D01*
X24246439Y-138422556D01*
X24008256Y-138660739D01*
X23821118Y-138940811D01*
X23692214Y-139252011D01*
X23626500Y-139582380D01*
X21138971Y-139582380D01*
X21082116Y-139465538D01*
X21022590Y-139338375D01*
X20964657Y-139209553D01*
X20908757Y-139080009D01*
X20851036Y-138940228D01*
X20797637Y-138804815D01*
X20746659Y-138669358D01*
X20696592Y-138529660D01*
X20648795Y-138389252D01*
X20602673Y-138246258D01*
X20559188Y-138103590D01*
X20515987Y-137952976D01*
X20475614Y-137802724D01*
X20436894Y-137648180D01*
X20400814Y-137492888D01*
X20367414Y-137337013D01*
X20335696Y-137175185D01*
X20305750Y-137006210D01*
X20280024Y-136843992D01*
X20256792Y-136678376D01*
X20236545Y-136512279D01*
X20218927Y-136341833D01*
X20204462Y-136171099D01*
X20192972Y-135996695D01*
X20183677Y-135791693D01*
X20179138Y-135604258D01*
X20178200Y-135471419D01*
X20178200Y-91970080D01*
X175251800Y-91970080D01*
X175251800Y-92306920D01*
X175317514Y-92637289D01*
X175446418Y-92948489D01*
X175633556Y-93228561D01*
X175871739Y-93466744D01*
X176151811Y-93653882D01*
X176463011Y-93782786D01*
X176793380Y-93848500D01*
X177130220Y-93848500D01*
X177460589Y-93782786D01*
X177771789Y-93653882D01*
X178051861Y-93466744D01*
X178290044Y-93228561D01*
X178477182Y-92948489D01*
X178606086Y-92637289D01*
X178671800Y-92306920D01*
X178671800Y-91970080D01*
X178606086Y-91639711D01*
X178477182Y-91328511D01*
X178290044Y-91048439D01*
X178051861Y-90810256D01*
X177771789Y-90623118D01*
X177460589Y-90494214D01*
X177130220Y-90428500D01*
X176793380Y-90428500D01*
X176463011Y-90494214D01*
X176151811Y-90623118D01*
X175871739Y-90810256D01*
X175633556Y-91048439D01*
X175446418Y-91328511D01*
X175317514Y-91639711D01*
X175251800Y-91970080D01*
X20178200Y-91970080D01*
X20178200Y-33546305D01*
X20180718Y-33327558D01*
X20186726Y-33145239D01*
X20196056Y-32967401D01*
X20209242Y-32784355D01*
X20224808Y-32613903D01*
X20243314Y-32445503D01*
X20264373Y-32281296D01*
X20288070Y-32119381D01*
X20314257Y-31960037D01*
X20344623Y-31793839D01*
X20375671Y-31639363D01*
X20410180Y-31481763D01*
X20446944Y-31326762D01*
X20487308Y-31168865D01*
X20527954Y-31020474D01*
X20570010Y-30876282D01*
X20613794Y-30734689D01*
X20663404Y-30583205D01*
X20711854Y-30443163D01*
X20762580Y-30303799D01*
X20816221Y-30163505D01*
X20869610Y-30030236D01*
X20929521Y-29887393D01*
X20987224Y-29755791D01*
X21046281Y-29626567D01*
X21108571Y-29495665D01*
X21171195Y-29369133D01*
X21235855Y-29243349D01*
X21300633Y-29121875D01*
X21323967Y-29079680D01*
X23626500Y-29079680D01*
X23626500Y-29416520D01*
X23692214Y-29746889D01*
X23821118Y-30058089D01*
X24008256Y-30338161D01*
X24246439Y-30576344D01*
X24526511Y-30763482D01*
X24837711Y-30892386D01*
X25168080Y-30958100D01*
X25504920Y-30958100D01*
X25835289Y-30892386D01*
X26146489Y-30763482D01*
X26426561Y-30576344D01*
X26664744Y-30338161D01*
X26851882Y-30058089D01*
X26980786Y-29746889D01*
X27046500Y-29416520D01*
X27046500Y-29079680D01*
X26980786Y-28749311D01*
X26851882Y-28438111D01*
X26664744Y-28158039D01*
X26426561Y-27919856D01*
X26146489Y-27732718D01*
X25835289Y-27603814D01*
X25504920Y-27538100D01*
X25168080Y-27538100D01*
X24837711Y-27603814D01*
X24526511Y-27732718D01*
X24246439Y-27919856D01*
X24008256Y-28158039D01*
X23821118Y-28438111D01*
X23692214Y-28749311D01*
X23626500Y-29079680D01*
X21323967Y-29079680D01*
X21370913Y-28994790D01*
X21441308Y-28872023D01*
X21511268Y-28754155D01*
X21582108Y-28638712D01*
X21654180Y-28525009D01*
X21728948Y-28410795D01*
X21805483Y-28297553D01*
X21882629Y-28186938D01*
X21961484Y-28077316D01*
X22041876Y-27968926D01*
X22130770Y-27852801D01*
X22216793Y-27743936D01*
X22309482Y-27630279D01*
X22394361Y-27529336D01*
X22480903Y-27429348D01*
X22571257Y-27327962D01*
X22673597Y-27216636D01*
X22764709Y-27120518D01*
X22858791Y-27024073D01*
X22890680Y-26992022D01*
X22985361Y-26898666D01*
X23084028Y-26804155D01*
X23181145Y-26713796D01*
X23278757Y-26625539D01*
X23378911Y-26537551D01*
X23479237Y-26451932D01*
X23592419Y-26358244D01*
X23694871Y-26275996D01*
X23810486Y-26186003D01*
X23918253Y-26104720D01*
X24026570Y-26025463D01*
X24136661Y-25947342D01*
X24248534Y-25870390D01*
X24360628Y-25795674D01*
X24476837Y-25720663D01*
X24590942Y-25649372D01*
X24709043Y-25577977D01*
X24831387Y-25506516D01*
X24951481Y-25438776D01*
X25072558Y-25372843D01*
X25195353Y-25308325D01*
X25323939Y-25243252D01*
X25448486Y-25182591D01*
X25574763Y-25123414D01*
X25707697Y-25063594D01*
X25840628Y-25006265D01*
X25972815Y-24951672D01*
X26105742Y-24899160D01*
X26241201Y-24848063D01*
X26382576Y-24797290D01*
X26523830Y-24749120D01*
X26664117Y-24703777D01*
X26807830Y-24659861D01*
X26953991Y-24617793D01*
X27100714Y-24578159D01*
X27255337Y-24539167D01*
X27408757Y-24503260D01*
X27562883Y-24469942D01*
X27721088Y-24438587D01*
X27889144Y-24408396D01*
X28048518Y-24382707D01*
X28213999Y-24359040D01*
X28386959Y-24337552D01*
X28580996Y-24317363D01*
X28758674Y-24302484D01*
X28936745Y-24291026D01*
X29139768Y-24282156D01*
X29331352Y-24277850D01*
X29445343Y-24277156D01*
X50413932Y-24277156D01*
X42970818Y-59781842D01*
M02*
