G04 #@! TF.GenerationSoftware,KiCad,Pcbnew,(5.1.5-0-10_14)*
G04 #@! TF.CreationDate,2020-04-19T15:56:36+09:00*
G04 #@! TF.ProjectId,colice_pcb_left_bottom,636f6c69-6365-45f7-9063-625f6c656674,rev?*
G04 #@! TF.SameCoordinates,Original*
G04 #@! TF.FileFunction,Soldermask,Top*
G04 #@! TF.FilePolarity,Negative*
%FSLAX46Y46*%
G04 Gerber Fmt 4.6, Leading zero omitted, Abs format (unit mm)*
G04 Created by KiCad (PCBNEW (5.1.5-0-10_14)) date 2020-04-19 15:56:36*
%MOMM*%
%LPD*%
G04 APERTURE LIST*
%ADD10C,0.150000*%
%ADD11C,0.100000*%
G04 APERTURE END LIST*
D10*
X32575500Y-142367000D02*
X56070500Y-142367000D01*
D11*
G36*
X177290241Y-144052871D02*
G01*
X177495159Y-144137751D01*
X177495161Y-144137752D01*
X177679583Y-144260979D01*
X177836421Y-144417817D01*
X177836422Y-144417819D01*
X177959649Y-144602241D01*
X178044529Y-144807159D01*
X178087800Y-145024697D01*
X178087800Y-145246503D01*
X178044529Y-145464041D01*
X177959649Y-145668959D01*
X177959648Y-145668961D01*
X177836421Y-145853383D01*
X177679583Y-146010221D01*
X177495161Y-146133448D01*
X177495160Y-146133449D01*
X177495159Y-146133449D01*
X177290241Y-146218329D01*
X177072703Y-146261600D01*
X176850897Y-146261600D01*
X176633359Y-146218329D01*
X176428441Y-146133449D01*
X176428440Y-146133449D01*
X176428439Y-146133448D01*
X176244017Y-146010221D01*
X176087179Y-145853383D01*
X175963952Y-145668961D01*
X175963951Y-145668959D01*
X175879071Y-145464041D01*
X175835800Y-145246503D01*
X175835800Y-145024697D01*
X175879071Y-144807159D01*
X175963951Y-144602241D01*
X176087178Y-144417819D01*
X176087179Y-144417817D01*
X176244017Y-144260979D01*
X176428439Y-144137752D01*
X176428441Y-144137751D01*
X176633359Y-144052871D01*
X176850897Y-144009600D01*
X177072703Y-144009600D01*
X177290241Y-144052871D01*
G37*
G36*
X25664941Y-138668071D02*
G01*
X25869859Y-138752951D01*
X25869861Y-138752952D01*
X26054283Y-138876179D01*
X26211121Y-139033017D01*
X26211122Y-139033019D01*
X26334349Y-139217441D01*
X26419229Y-139422359D01*
X26462500Y-139639897D01*
X26462500Y-139861703D01*
X26419229Y-140079241D01*
X26334349Y-140284159D01*
X26334348Y-140284161D01*
X26211121Y-140468583D01*
X26054283Y-140625421D01*
X25869861Y-140748648D01*
X25869860Y-140748649D01*
X25869859Y-140748649D01*
X25664941Y-140833529D01*
X25447403Y-140876800D01*
X25225597Y-140876800D01*
X25008059Y-140833529D01*
X24803141Y-140748649D01*
X24803140Y-140748649D01*
X24803139Y-140748648D01*
X24618717Y-140625421D01*
X24461879Y-140468583D01*
X24338652Y-140284161D01*
X24338651Y-140284159D01*
X24253771Y-140079241D01*
X24210500Y-139861703D01*
X24210500Y-139639897D01*
X24253771Y-139422359D01*
X24338651Y-139217441D01*
X24461878Y-139033019D01*
X24461879Y-139033017D01*
X24618717Y-138876179D01*
X24803139Y-138752952D01*
X24803141Y-138752951D01*
X25008059Y-138668071D01*
X25225597Y-138624800D01*
X25447403Y-138624800D01*
X25664941Y-138668071D01*
G37*
G36*
X177290241Y-91055771D02*
G01*
X177495159Y-91140651D01*
X177495161Y-91140652D01*
X177679583Y-91263879D01*
X177836421Y-91420717D01*
X177836422Y-91420719D01*
X177959649Y-91605141D01*
X178044529Y-91810059D01*
X178087800Y-92027597D01*
X178087800Y-92249403D01*
X178044529Y-92466941D01*
X177959649Y-92671859D01*
X177959648Y-92671861D01*
X177836421Y-92856283D01*
X177679583Y-93013121D01*
X177495161Y-93136348D01*
X177495160Y-93136349D01*
X177495159Y-93136349D01*
X177290241Y-93221229D01*
X177072703Y-93264500D01*
X176850897Y-93264500D01*
X176633359Y-93221229D01*
X176428441Y-93136349D01*
X176428440Y-93136349D01*
X176428439Y-93136348D01*
X176244017Y-93013121D01*
X176087179Y-92856283D01*
X175963952Y-92671861D01*
X175963951Y-92671859D01*
X175879071Y-92466941D01*
X175835800Y-92249403D01*
X175835800Y-92027597D01*
X175879071Y-91810059D01*
X175963951Y-91605141D01*
X176087178Y-91420719D01*
X176087179Y-91420717D01*
X176244017Y-91263879D01*
X176428439Y-91140652D01*
X176428441Y-91140651D01*
X176633359Y-91055771D01*
X176850897Y-91012500D01*
X177072703Y-91012500D01*
X177290241Y-91055771D01*
G37*
G36*
X25664941Y-28165371D02*
G01*
X25869859Y-28250251D01*
X25869861Y-28250252D01*
X26054283Y-28373479D01*
X26211121Y-28530317D01*
X26211122Y-28530319D01*
X26334349Y-28714741D01*
X26419229Y-28919659D01*
X26462500Y-29137197D01*
X26462500Y-29359003D01*
X26419229Y-29576541D01*
X26334349Y-29781459D01*
X26334348Y-29781461D01*
X26211121Y-29965883D01*
X26054283Y-30122721D01*
X25869861Y-30245948D01*
X25869860Y-30245949D01*
X25869859Y-30245949D01*
X25664941Y-30330829D01*
X25447403Y-30374100D01*
X25225597Y-30374100D01*
X25008059Y-30330829D01*
X24803141Y-30245949D01*
X24803140Y-30245949D01*
X24803139Y-30245948D01*
X24618717Y-30122721D01*
X24461879Y-29965883D01*
X24338652Y-29781461D01*
X24338651Y-29781459D01*
X24253771Y-29576541D01*
X24210500Y-29359003D01*
X24210500Y-29137197D01*
X24253771Y-28919659D01*
X24338651Y-28714741D01*
X24461878Y-28530319D01*
X24461879Y-28530317D01*
X24618717Y-28373479D01*
X24803139Y-28250252D01*
X24803141Y-28250251D01*
X25008059Y-28165371D01*
X25225597Y-28122100D01*
X25447403Y-28122100D01*
X25664941Y-28165371D01*
G37*
G36*
X177290241Y-28152671D02*
G01*
X177495159Y-28237551D01*
X177495161Y-28237552D01*
X177679583Y-28360779D01*
X177836421Y-28517617D01*
X177836422Y-28517619D01*
X177959649Y-28702041D01*
X178044529Y-28906959D01*
X178087800Y-29124497D01*
X178087800Y-29346303D01*
X178044529Y-29563841D01*
X178039268Y-29576541D01*
X177959648Y-29768761D01*
X177836421Y-29953183D01*
X177679583Y-30110021D01*
X177495161Y-30233248D01*
X177495160Y-30233249D01*
X177495159Y-30233249D01*
X177290241Y-30318129D01*
X177072703Y-30361400D01*
X176850897Y-30361400D01*
X176633359Y-30318129D01*
X176428441Y-30233249D01*
X176428440Y-30233249D01*
X176428439Y-30233248D01*
X176244017Y-30110021D01*
X176087179Y-29953183D01*
X175963952Y-29768761D01*
X175884332Y-29576541D01*
X175879071Y-29563841D01*
X175835800Y-29346303D01*
X175835800Y-29124497D01*
X175879071Y-28906959D01*
X175963951Y-28702041D01*
X176087178Y-28517619D01*
X176087179Y-28517617D01*
X176244017Y-28360779D01*
X176428439Y-28237552D01*
X176428441Y-28237551D01*
X176633359Y-28152671D01*
X176850897Y-28109400D01*
X177072703Y-28109400D01*
X177290241Y-28152671D01*
G37*
M02*
