  0
SECTION
  2
HEADER
  9
$ACADVER
  1
AC1014
  9
$HANDSEED
  5
FFFF
  9
$MEASUREMENT
 70
     1
  0
ENDSEC
  0
SECTION
  2
TABLES
  0
TABLE
  2
VPORT
  5
8
330
0
100
AcDbSymbolTable
 70
     4
  0
VPORT
  5
2E
330
8
100
AcDbSymbolTableRecord
100
AcDbViewportTableRecord
  2
*ACTIVE
 70
     0
 10
0.0
 20
0.0
 11
1.0
 21
1.0
 12
210.0
 22
148.5
 13
0.0
 23
0.0
 14
10.0
 24
10.0
 15
10.0
 25
10.0
 16
0.0
 26
0.0
 36
1.0
 17
0.0
 27
0.0
 37
0.0
 40
341.0
 41
1.24
 42
50.0
 43
0.0
 44
0.0
 50
0.0
 51
0.0
 71
     0
 72
   100
 73
     1
 74
     3
 75
     0
 76
     0
 77
     0
 78
     0
  0
ENDTAB
  0
TABLE
  2
LTYPE
  5
5
330
0
100
AcDbSymbolTable
 70
     1
  0
LTYPE
  5
14
330
5
100
AcDbSymbolTableRecord
100
AcDbLinetypeTableRecord
  2
BYBLOCK
 70
     0
  3

 72
    65
 73
     0
 40
0.0
  0
LTYPE
  5
15
330
5
100
AcDbSymbolTableRecord
100
AcDbLinetypeTableRecord
  2
BYLAYER
 70
     0
  3

 72
    65
 73
     0
 40
0.0
  0
LTYPE
  5
16
330
5
100
AcDbSymbolTableRecord
100
AcDbLinetypeTableRecord
  2
CONTINUOUS
 70
     0
  3
Solid line
 72
    65
 73
     0
 40
0.0
  0
ENDTAB
  0
TABLE
  2
LAYER
  5
2
100
AcDbSymbolTable
 70
1
  0
LAYER
  5
50
100
AcDbSymbolTableRecord
100
AcDbLayerTableRecord
  2
0
 70
0
  6
CONTINUOUS
  0
ENDTAB
  0
TABLE
  2
STYLE
  5
3
330
0
100
AcDbSymbolTable
 70
     1
  0
STYLE
  5
11
330
3
100
AcDbSymbolTableRecord
100
AcDbTextStyleTableRecord
  2
STANDARD
 70
     0
 40
0.0
 41
1.0
 50
0.0
 71
     0
 42
2.5
  3
txt
  4

  0
ENDTAB
  0
TABLE
  2
VIEW
  5
6
330
0
100
AcDbSymbolTable
 70
     0
  0
ENDTAB
  0
TABLE
  2
UCS
  5
7
330
0
100
AcDbSymbolTable
 70
     0
  0
ENDTAB
  0
TABLE
  2
APPID
  5
9
330
0
100
AcDbSymbolTable
 70
     2
  0
APPID
  5
12
330
9
100
AcDbSymbolTableRecord
100
AcDbRegAppTableRecord
  2
ACAD
 70
     0
  0
ENDTAB
  0
TABLE
  2
DIMSTYLE
  5
A
330
0
100
AcDbSymbolTable
 70
     1
  0
DIMSTYLE
105
27
330
A
100
AcDbSymbolTableRecord
100
AcDbDimStyleTableRecord
  2
ISO-25
 70
     0
  3

  4

  5

  6

  7

 40
1.0
 41
2.5
 42
0.625
 43
3.75
 44
1.25
 45
0.0
 46
0.0
 47
0.0
 48
0.0
140
2.5
141
2.5
142
0.0
143
0.03937007874016
144
1.0
145
0.0
146
1.0
147
0.625
 71
     0
 72
     0
 73
     0
 74
     0
 75
     0
 76
     0
 77
     1
 78
     8
170
     0
171
     3
172
     1
173
     0
174
     0
175
     0
176
     0
177
     0
178
     0
270
     2
271
     2
272
     2
273
     2
274
     3
340
11
275
     0
280
     0
281
     0
282
     0
283
     0
284
     8
285
     0
286
     0
287
     3
288
     0
  0
ENDTAB
  0
TABLE
  2
BLOCK_RECORD
  5
1
330
0
100
AcDbSymbolTable
 70
     1
  0
BLOCK_RECORD
  5
1F
330
1
100
AcDbSymbolTableRecord
100
AcDbBlockTableRecord
  2
*MODEL_SPACE
  0
BLOCK_RECORD
  5
1B
330
1
100
AcDbSymbolTableRecord
100
AcDbBlockTableRecord
  2
*PAPER_SPACE
  0
ENDTAB
  0
ENDSEC
  0
SECTION
  2
BLOCKS
  0
BLOCK
  5
20
330
1F
100
AcDbEntity
  8
0
100
AcDbBlockBegin
  2
*MODEL_SPACE
 70
     0
 10
0.0
 20
0.0
 30
0.0
  3
*MODEL_SPACE
  1

  0
ENDBLK
  5
21
330
1F
100
AcDbEntity
  8
0
100
AcDbBlockEnd
  0
BLOCK
  5
1C
330
1B
100
AcDbEntity
 67
     1
  8
0
100
AcDbBlockBegin
  2
*PAPER_SPACE
  1

  0
ENDBLK
  5
1D
330
1B
100
AcDbEntity
 67
     1
  8
0
100
AcDbBlockEnd
  0
ENDSEC
  0
SECTION
  2
ENTITIES
  0
LWPOLYLINE
  5
100
100
AcDbEntity
  8
0
 62
7
100
AcDbPolyline
 90
4
 70
1
 10
-0.000002
 20
207.427628
 30
0.0
 10
207.427613
 20
207.427628
 30
0.0
 10
207.427613
 20
32.273192
 30
0.0
 10
-0.000002
 20
32.273192
 30
0.0
  0
SPLINE
  5
101
100
AcDbEntity
  8
0
 62
2
100
AcDbSpline
 70
8
 71
3
 72
8
 73
4
 74
0
 40
0
 40
0
 40
0
 40
0
 40
1
 40
1
 40
1
 40
1
 10
191.874277
 20
51.796147
 30
0.0
 10
191.874277
 20
45.255585
 30
0.0
 10
186.572314
 20
39.953637
 30
0.0
 10
180.031733
 20
39.953637
 30
0.0
  0
SPLINE
  5
102
100
AcDbEntity
  8
0
 62
2
100
AcDbSpline
 70
8
 71
3
 72
8
 73
4
 74
0
 40
0
 40
0
 40
0
 40
0
 40
1
 40
1
 40
1
 40
1
 10
180.031733
 20
39.953637
 30
0.0
 10
174.993599
 20
39.953637
 30
0.0
 10
169.594502
 20
39.953637
 30
0.0
 10
166.579894
 20
39.953637
 30
0.0
  0
SPLINE
  5
103
100
AcDbEntity
  8
0
 62
2
100
AcDbSpline
 70
8
 71
3
 72
8
 73
4
 74
0
 40
0
 40
0
 40
0
 40
0
 40
1
 40
1
 40
1
 40
1
 10
166.579894
 20
39.953637
 30
0.0
 10
164.989399
 20
39.953637
 30
0.0
 10
163.403291
 20
40.113751
 30
0.0
 10
161.844757
 20
40.431787
 30
0.0
  0
SPLINE
  5
104
100
AcDbEntity
  8
0
 62
2
100
AcDbSpline
 70
8
 71
3
 72
8
 73
4
 74
0
 40
0
 40
0
 40
0
 40
0
 40
1
 40
1
 40
1
 40
1
 10
161.844757
 20
40.431787
 30
0.0
 10
154.542768
 20
41.921383
 30
0.0
 10
132.252340
 20
46.469132
 30
0.0
 10
124.950352
 20
47.959042
 30
0.0
  0
SPLINE
  5
105
100
AcDbEntity
  8
0
 62
2
100
AcDbSpline
 70
8
 71
3
 72
8
 73
4
 74
0
 40
0
 40
0
 40
0
 40
0
 40
1
 40
1
 40
1
 40
1
 10
124.950352
 20
47.959042
 30
0.0
 10
123.392131
 20
48.277078
 30
0.0
 10
121.805709
 20
48.437192
 30
0.0
 10
120.215528
 20
48.437192
 30
0.0
  0
SPLINE
  5
106
100
AcDbEntity
  8
0
 62
2
100
AcDbSpline
 70
8
 71
3
 72
8
 73
4
 74
0
 40
0
 40
0
 40
0
 40
0
 40
1
 40
1
 40
1
 40
1
 10
120.215528
 20
48.437192
 30
0.0
 10
106.740815
 20
48.437192
 30
0.0
 10
39.926558
 20
48.437192
 30
0.0
 10
12.439761
 20
48.437192
 30
0.0
  0
SPLINE
  5
107
100
AcDbEntity
  8
0
 62
2
100
AcDbSpline
 70
8
 71
3
 72
8
 73
4
 74
0
 40
0
 40
0
 40
0
 40
0
 40
1
 40
1
 40
1
 40
1
 10
12.439761
 20
48.437192
 30
0.0
 10
5.899180
 20
48.437192
 30
0.0
 10
0.597217
 20
53.739140
 30
0.0
 10
0.597217
 20
60.279702
 30
0.0
  0
SPLINE
  5
108
100
AcDbEntity
  8
0
 62
2
100
AcDbSpline
 70
8
 71
3
 72
8
 73
4
 74
0
 40
0
 40
0
 40
0
 40
0
 40
1
 40
1
 40
1
 40
1
 10
0.597217
 20
60.279702
 30
0.0
 10
0.597217
 20
87.225290
 30
0.0
 10
0.597217
 20
152.863408
 30
0.0
 10
0.597217
 20
179.808996
 30
0.0
  0
SPLINE
  5
109
100
AcDbEntity
  8
0
 62
2
100
AcDbSpline
 70
8
 71
3
 72
8
 73
4
 74
0
 40
0
 40
0
 40
0
 40
0
 40
1
 40
1
 40
1
 40
1
 10
0.597217
 20
179.808996
 30
0.0
 10
0.597217
 20
182.949870
 30
0.0
 10
1.844922
 20
185.961963
 30
0.0
 10
4.065849
 20
188.182884
 30
0.0
  0
SPLINE
  5
10a
100
AcDbEntity
  8
0
 62
2
100
AcDbSpline
 70
8
 71
3
 72
8
 73
4
 74
0
 40
0
 40
0
 40
0
 40
0
 40
1
 40
1
 40
1
 40
1
 10
4.065849
 20
188.182884
 30
0.0
 10
6.286464
 20
190.403805
 30
0.0
 10
9.298878
 20
191.651506
 30
0.0
 10
12.439761
 20
191.651506
 30
0.0
  0
SPLINE
  5
10b
100
AcDbEntity
  8
0
 62
2
100
AcDbSpline
 70
8
 71
3
 72
8
 73
4
 74
0
 40
0
 40
0
 40
0
 40
0
 40
1
 40
1
 40
1
 40
1
 10
12.439761
 20
191.651506
 30
0.0
 10
46.716868
 20
191.651506
 30
0.0
 10
145.754313
 20
191.651506
 30
0.0
 10
180.031733
 20
191.651506
 30
0.0
  0
SPLINE
  5
10c
100
AcDbEntity
  8
0
 62
2
100
AcDbSpline
 70
8
 71
3
 72
8
 73
4
 74
0
 40
0
 40
0
 40
0
 40
0
 40
1
 40
1
 40
1
 40
1
 10
180.031733
 20
191.651506
 30
0.0
 10
183.172616
 20
191.651506
 30
0.0
 10
186.184717
 20
190.403805
 30
0.0
 10
188.405645
 20
188.182884
 30
0.0
  0
SPLINE
  5
10d
100
AcDbEntity
  8
0
 62
2
100
AcDbSpline
 70
8
 71
3
 72
8
 73
4
 74
0
 40
0
 40
0
 40
0
 40
0
 40
1
 40
1
 40
1
 40
1
 10
188.405645
 20
188.182884
 30
0.0
 10
190.626572
 20
185.961963
 30
0.0
 10
191.874277
 20
182.949870
 30
0.0
 10
191.874277
 20
179.808996
 30
0.0
  0
SPLINE
  5
10e
100
AcDbEntity
  8
0
 62
2
100
AcDbSpline
 70
8
 71
3
 72
8
 73
4
 74
0
 40
0
 40
0
 40
0
 40
0
 40
1
 40
1
 40
1
 40
1
 10
191.874277
 20
179.808996
 30
0.0
 10
191.874277
 20
177.178546
 30
0.0
 10
191.874277
 20
175.154086
 30
0.0
 10
191.874277
 20
175.154086
 30
0.0
  0
LWPOLYLINE
  5
10f
100
AcDbEntity
  8
0
 62
2
100
AcDbPolyline
 90
28
 70
0
 10
191.874277
 20
175.154086
 30
0.0
 10
182.629917
 20
183.614141
 30
0.0
 10
182.629917
 20
188.627507
 30
0.0
 10
172.519496
 20
188.627507
 30
0.0
 10
172.519496
 20
184.067850
 30
0.0
 10
18.805187
 20
184.067850
 30
0.0
 10
18.806754
 20
188.627507
 30
0.0
 10
10.653431
 20
188.627507
 30
0.0
 10
10.653744
 20
183.614141
 30
0.0
 10
6.580060
 20
166.520130
 30
0.0
 10
6.580060
 20
131.106027
 30
0.0
 10
3.364290
 20
115.976316
 30
0.0
 10
3.386223
 20
85.838154
 30
0.0
 10
7.546389
 20
79.602467
 30
0.0
 10
7.546389
 20
57.691865
 30
0.0
 10
10.966767
 20
55.553978
 30
0.0
 10
10.971781
 20
51.699953
 30
0.0
 10
18.486837
 20
51.699953
 30
0.0
 10
18.486837
 20
54.833307
 30
0.0
 10
109.301712
 20
54.824533
 30
0.0
 10
159.488155
 20
44.601967
 30
0.0
 10
179.541675
 20
44.601967
 30
0.0
 10
180.915968
 20
51.067329
 30
0.0
 10
186.780056
 20
102.460282
 30
0.0
 10
182.351048
 20
109.040324
 30
0.0
 10
189.810331
 20
144.133885
 30
0.0
 10
191.874277
 20
144.133885
 30
0.0
 10
191.874277
 20
51.796147
 30
0.0
  0
SPLINE
  5
110
100
AcDbEntity
  8
0
 62
2
100
AcDbSpline
 70
8
 71
3
 72
8
 73
4
 74
0
 40
0
 40
0
 40
0
 40
0
 40
1
 40
1
 40
1
 40
1
 10
185.957023
 20
183.125038
 30
0.0
 10
184.646408
 20
183.125038
 30
0.0
 10
183.584210
 20
184.184380
 30
0.0
 10
183.584210
 20
185.493987
 30
0.0
  0
SPLINE
  5
111
100
AcDbEntity
  8
0
 62
2
100
AcDbSpline
 70
8
 71
3
 72
8
 73
4
 74
0
 40
0
 40
0
 40
0
 40
0
 40
1
 40
1
 40
1
 40
1
 10
183.584210
 20
185.493987
 30
0.0
 10
183.584210
 20
186.801022
 30
0.0
 10
184.646408
 20
187.862078
 30
0.0
 10
185.957023
 20
187.862078
 30
0.0
  0
SPLINE
  5
112
100
AcDbEntity
  8
0
 62
2
100
AcDbSpline
 70
8
 71
3
 72
8
 73
4
 74
0
 40
0
 40
0
 40
0
 40
0
 40
1
 40
1
 40
1
 40
1
 10
185.957023
 20
187.862078
 30
0.0
 10
187.259072
 20
187.862078
 30
0.0
 10
188.321270
 20
186.801022
 30
0.0
 10
188.321270
 20
185.493987
 30
0.0
  0
SPLINE
  5
113
100
AcDbEntity
  8
0
 62
2
100
AcDbSpline
 70
8
 71
3
 72
8
 73
4
 74
0
 40
0
 40
0
 40
0
 40
0
 40
1
 40
1
 40
1
 40
1
 10
188.321270
 20
185.493987
 30
0.0
 10
188.321270
 20
184.184380
 30
0.0
 10
187.259072
 20
183.125038
 30
0.0
 10
185.957023
 20
183.125038
 30
0.0
  0
LWPOLYLINE
  5
114
100
AcDbEntity
  8
0
 62
2
100
AcDbPolyline
 90
1
 70
1
 10
191.874277
 20
175.154086
 30
0.0
  0
SPLINE
  5
115
100
AcDbEntity
  8
0
 62
2
100
AcDbSpline
 70
8
 71
3
 72
8
 73
4
 74
0
 40
0
 40
0
 40
0
 40
0
 40
1
 40
1
 40
1
 40
1
 10
6.399679
 20
183.125038
 30
0.0
 10
5.089064
 20
183.125038
 30
0.0
 10
4.026866
 20
184.184380
 30
0.0
 10
4.026866
 20
185.493987
 30
0.0
  0
SPLINE
  5
116
100
AcDbEntity
  8
0
 62
2
100
AcDbSpline
 70
8
 71
3
 72
8
 73
4
 74
0
 40
0
 40
0
 40
0
 40
0
 40
1
 40
1
 40
1
 40
1
 10
4.026866
 20
185.493987
 30
0.0
 10
4.026866
 20
186.801022
 30
0.0
 10
5.089064
 20
187.862078
 30
0.0
 10
6.399679
 20
187.862078
 30
0.0
  0
SPLINE
  5
117
100
AcDbEntity
  8
0
 62
2
100
AcDbSpline
 70
8
 71
3
 72
8
 73
4
 74
0
 40
0
 40
0
 40
0
 40
0
 40
1
 40
1
 40
1
 40
1
 10
6.399679
 20
187.862078
 30
0.0
 10
7.701728
 20
187.862078
 30
0.0
 10
8.763926
 20
186.801022
 30
0.0
 10
8.763926
 20
185.493987
 30
0.0
  0
SPLINE
  5
118
100
AcDbEntity
  8
0
 62
2
100
AcDbSpline
 70
8
 71
3
 72
8
 73
4
 74
0
 40
0
 40
0
 40
0
 40
0
 40
1
 40
1
 40
1
 40
1
 10
8.763926
 20
185.493987
 30
0.0
 10
8.763926
 20
184.184380
 30
0.0
 10
7.701728
 20
183.125038
 30
0.0
 10
6.399679
 20
183.125038
 30
0.0
  0
LWPOLYLINE
  5
119
100
AcDbEntity
  8
0
 62
2
100
AcDbPolyline
 90
1
 70
1
 10
185.957023
 20
183.125038
 30
0.0
  0
SPLINE
  5
11a
100
AcDbEntity
  8
0
 62
2
100
AcDbSpline
 70
8
 71
3
 72
8
 73
4
 74
0
 40
0
 40
0
 40
0
 40
0
 40
1
 40
1
 40
1
 40
1
 10
6.399679
 20
52.251124
 30
0.0
 10
5.089064
 20
52.251124
 30
0.0
 10
4.026866
 20
53.310466
 30
0.0
 10
4.026866
 20
54.620072
 30
0.0
  0
SPLINE
  5
11b
100
AcDbEntity
  8
0
 62
2
100
AcDbSpline
 70
8
 71
3
 72
8
 73
4
 74
0
 40
0
 40
0
 40
0
 40
0
 40
1
 40
1
 40
1
 40
1
 10
4.026866
 20
54.620072
 30
0.0
 10
4.026866
 20
55.927108
 30
0.0
 10
5.089064
 20
56.988164
 30
0.0
 10
6.399679
 20
56.988164
 30
0.0
  0
SPLINE
  5
11c
100
AcDbEntity
  8
0
 62
2
100
AcDbSpline
 70
8
 71
3
 72
8
 73
4
 74
0
 40
0
 40
0
 40
0
 40
0
 40
1
 40
1
 40
1
 40
1
 10
6.399679
 20
56.988164
 30
0.0
 10
7.701728
 20
56.988164
 30
0.0
 10
8.763926
 20
55.927108
 30
0.0
 10
8.763926
 20
54.620072
 30
0.0
  0
SPLINE
  5
11d
100
AcDbEntity
  8
0
 62
2
100
AcDbSpline
 70
8
 71
3
 72
8
 73
4
 74
0
 40
0
 40
0
 40
0
 40
0
 40
1
 40
1
 40
1
 40
1
 10
8.763926
 20
54.620072
 30
0.0
 10
8.763926
 20
53.310466
 30
0.0
 10
7.701728
 20
52.251124
 30
0.0
 10
6.399679
 20
52.251124
 30
0.0
  0
LWPOLYLINE
  5
11e
100
AcDbEntity
  8
0
 62
2
100
AcDbPolyline
 90
1
 70
1
 10
6.399679
 20
183.125038
 30
0.0
  0
SPLINE
  5
11f
100
AcDbEntity
  8
0
 62
2
100
AcDbSpline
 70
8
 71
3
 72
8
 73
4
 74
0
 40
0
 40
0
 40
0
 40
0
 40
1
 40
1
 40
1
 40
1
 10
185.957023
 20
45.874123
 30
0.0
 10
184.646408
 20
45.874123
 30
0.0
 10
183.584210
 20
46.933464
 30
0.0
 10
183.584210
 20
48.243071
 30
0.0
  0
SPLINE
  5
120
100
AcDbEntity
  8
0
 62
2
100
AcDbSpline
 70
8
 71
3
 72
8
 73
4
 74
0
 40
0
 40
0
 40
0
 40
0
 40
1
 40
1
 40
1
 40
1
 10
183.584210
 20
48.243071
 30
0.0
 10
183.584210
 20
49.550107
 30
0.0
 10
184.646408
 20
50.611162
 30
0.0
 10
185.957023
 20
50.611162
 30
0.0
  0
SPLINE
  5
121
100
AcDbEntity
  8
0
 62
2
100
AcDbSpline
 70
8
 71
3
 72
8
 73
4
 74
0
 40
0
 40
0
 40
0
 40
0
 40
1
 40
1
 40
1
 40
1
 10
185.957023
 20
50.611162
 30
0.0
 10
187.259072
 20
50.611162
 30
0.0
 10
188.321270
 20
49.550107
 30
0.0
 10
188.321270
 20
48.243071
 30
0.0
  0
SPLINE
  5
122
100
AcDbEntity
  8
0
 62
2
100
AcDbSpline
 70
8
 71
3
 72
8
 73
4
 74
0
 40
0
 40
0
 40
0
 40
0
 40
1
 40
1
 40
1
 40
1
 10
188.321270
 20
48.243071
 30
0.0
 10
188.321270
 20
46.933464
 30
0.0
 10
187.259072
 20
45.874123
 30
0.0
 10
185.957023
 20
45.874123
 30
0.0
  0
LWPOLYLINE
  5
123
100
AcDbEntity
  8
0
 62
2
100
AcDbPolyline
 90
1
 70
1
 10
6.399679
 20
52.251124
 30
0.0
  0
SPLINE
  5
124
100
AcDbEntity
  8
0
 62
2
100
AcDbSpline
 70
8
 71
3
 72
8
 73
4
 74
0
 40
0
 40
0
 40
0
 40
0
 40
1
 40
1
 40
1
 40
1
 10
185.957023
 20
108.639896
 30
0.0
 10
184.646408
 20
108.639896
 30
0.0
 10
183.584210
 20
109.699237
 30
0.0
 10
183.584210
 20
111.008844
 30
0.0
  0
SPLINE
  5
125
100
AcDbEntity
  8
0
 62
2
100
AcDbSpline
 70
8
 71
3
 72
8
 73
4
 74
0
 40
0
 40
0
 40
0
 40
0
 40
1
 40
1
 40
1
 40
1
 10
183.584210
 20
111.008844
 30
0.0
 10
183.584210
 20
112.315880
 30
0.0
 10
184.646408
 20
113.376936
 30
0.0
 10
185.957023
 20
113.376936
 30
0.0
  0
SPLINE
  5
126
100
AcDbEntity
  8
0
 62
2
100
AcDbSpline
 70
8
 71
3
 72
8
 73
4
 74
0
 40
0
 40
0
 40
0
 40
0
 40
1
 40
1
 40
1
 40
1
 10
185.957023
 20
113.376936
 30
0.0
 10
187.259072
 20
113.376936
 30
0.0
 10
188.321270
 20
112.315880
 30
0.0
 10
188.321270
 20
111.008844
 30
0.0
  0
SPLINE
  5
127
100
AcDbEntity
  8
0
 62
2
100
AcDbSpline
 70
8
 71
3
 72
8
 73
4
 74
0
 40
0
 40
0
 40
0
 40
0
 40
1
 40
1
 40
1
 40
1
 10
188.321270
 20
111.008844
 30
0.0
 10
188.321270
 20
109.699237
 30
0.0
 10
187.259072
 20
108.639896
 30
0.0
 10
185.957023
 20
108.639896
 30
0.0
  0
LWPOLYLINE
  5
128
100
AcDbEntity
  8
0
 62
2
100
AcDbPolyline
 90
1
 70
1
 10
185.957023
 20
45.874123
 30
0.0
  0
LWPOLYLINE
  5
129
100
AcDbEntity
  8
0
 62
2
100
AcDbPolyline
 90
1
 70
1
 10
185.957023
 20
108.639896
 30
0.0
  0
ENDSEC
  0
SECTION
  2
OBJECTS
  0
DICTIONARY
  5
C
330
0
100
AcDbDictionary
  3
ACAD_GROUP
350
D
  3
ACAD_MLINESTYLE
350
17
  0
DICTIONARY
  5
D
330
C
100
AcDbDictionary
  0
DICTIONARY
  5
1A
330
C
100
AcDbDictionary
  0
DICTIONARY
  5
17
330
C
100
AcDbDictionary
  3
STANDARD
350
18
  0
DICTIONARY
  5
19
330
C
100
AcDbDictionary
  0
ENDSEC
  0
EOF
