<?xml version="1.0" encoding="UTF-8" standalone="no"?>
<!DOCTYPE svg PUBLIC "-//W3C//DTD SVG 1.1//EN" "http://www.w3.org/Graphics/SVG/1.1/DTD/svg11.dtd">
<svg width="100%" height="100%" viewBox="0 0 662 559" version="1.1" xmlns="http://www.w3.org/2000/svg" xmlns:xlink="http://www.w3.org/1999/xlink" xml:space="preserve" xmlns:serif="http://www.serif.com/" style="fill-rule:evenodd;clip-rule:evenodd;stroke-linecap:square;stroke-linejoin:round;stroke-miterlimit:1.5;">
    <g id="アートボード1" transform="matrix(0.986587,0,0,1.18182,-61.1684,-46.0909)">
        <rect x="62" y="39" width="671" height="473" style="fill:none;"/>
        <g id="Split-Left-Mid" serif:id="Split Left Mid" transform="matrix(1.0136,0,0,0.846154,62,39)">
            <g opacity="0.59">
                <path d="M612.359,103L582.856,76L582.856,60L550.589,60L550.589,74.552L60.016,74.552L60.021,60L34,60L34.001,76L21,130.555L21,243.578L10.737,291.864L10.807,388.049L24.084,407.95L24.084,477.877L35,484.7L35.016,497L59,497L59,487L348.832,487.028L509,519.653L573,519.653L577.386,499.019L596.101,335L581.966,314L605.772,202L612.359,202L612.359,496.693C612.359,517.567 595.438,534.488 574.564,534.488C558.485,534.488 541.254,534.488 531.633,534.488C526.557,534.488 521.495,533.977 516.521,532.962C493.217,528.208 422.078,513.694 398.774,508.939C393.801,507.924 388.738,507.413 383.663,507.413C340.659,507.413 127.424,507.413 39.701,507.413C18.827,507.413 1.906,490.492 1.906,469.618C1.906,383.622 1.906,174.14 1.906,88.144C1.906,78.12 5.888,68.507 12.976,61.419C20.063,54.331 29.677,50.349 39.701,50.349C149.095,50.349 465.169,50.349 574.564,50.349C584.588,50.349 594.201,54.331 601.289,61.419C608.377,68.507 612.359,78.12 612.359,88.144C612.359,96.539 612.359,103 612.359,103Z" style="fill:rgb(255,255,160);stroke:rgb(255,149,0);stroke-width:0.94px;"/>
                <g transform="matrix(1.36191e-16,2.73532,-2.73384,1.04667e-15,3573.77,-993.191)">
                    <path d="M391.454,1090.15C391.454,1091.68 390.218,1092.92 388.69,1092.92C387.165,1092.92 385.927,1091.68 385.927,1090.15C385.927,1088.63 387.165,1087.39 388.69,1087.39C390.218,1087.39 391.454,1088.63 391.454,1090.15Z" style="fill:none;stroke:rgb(255,174,0);stroke-width:0.35px;stroke-linecap:round;stroke-miterlimit:2;"/>
                </g>
                <g transform="matrix(1.36191e-16,2.73532,-2.73384,1.04667e-15,3000.72,-993.191)">
                    <path d="M391.454,1090.15C391.454,1091.68 390.218,1092.92 388.69,1092.92C387.165,1092.92 385.927,1091.68 385.927,1090.15C385.927,1088.63 387.165,1087.39 388.69,1087.39C390.218,1087.39 391.454,1088.63 391.454,1090.15Z" style="fill:none;stroke:rgb(255,174,0);stroke-width:0.35px;stroke-linecap:round;stroke-miterlimit:2;"/>
                </g>
                <g transform="matrix(1.36191e-16,2.73532,-2.73384,1.04667e-15,3000.72,-575.511)">
                    <path d="M391.454,1090.15C391.454,1091.68 390.218,1092.92 388.69,1092.92C387.165,1092.92 385.927,1091.68 385.927,1090.15C385.927,1088.63 387.165,1087.39 388.69,1087.39C390.218,1087.39 391.454,1088.63 391.454,1090.15Z" style="fill:none;stroke:rgb(255,174,0);stroke-width:0.35px;stroke-linecap:round;stroke-miterlimit:2;"/>
                </g>
                <g transform="matrix(1.36191e-16,2.73532,-2.73384,1.04667e-15,3573.77,-555.159)">
                    <path d="M391.454,1090.15C391.454,1091.68 390.218,1092.92 388.69,1092.92C387.165,1092.92 385.927,1091.68 385.927,1090.15C385.927,1088.63 387.165,1087.39 388.69,1087.39C390.218,1087.39 391.454,1088.63 391.454,1090.15Z" style="fill:none;stroke:rgb(255,174,0);stroke-width:0.35px;stroke-linecap:round;stroke-miterlimit:2;"/>
                </g>
                <g transform="matrix(1.36191e-16,2.73532,-2.73384,1.04667e-15,3573.77,-755.474)">
                    <path d="M391.454,1090.15C391.454,1091.68 390.218,1092.92 388.69,1092.92C387.165,1092.92 385.927,1091.68 385.927,1090.15C385.927,1088.63 387.165,1087.39 388.69,1087.39C390.218,1087.39 391.454,1088.63 391.454,1090.15Z" style="fill:none;stroke:rgb(255,174,0);stroke-width:0.35px;stroke-linecap:round;stroke-miterlimit:2;"/>
                </g>
            </g>
        </g>
    </g>
</svg>
