  0
SECTION
  2
HEADER
  9
$ACADVER
  1
AC1014
  9
$HANDSEED
  5
FFFF
  9
$MEASUREMENT
 70
     1
  0
ENDSEC
  0
SECTION
  2
TABLES
  0
TABLE
  2
VPORT
  5
8
330
0
100
AcDbSymbolTable
 70
     4
  0
VPORT
  5
2E
330
8
100
AcDbSymbolTableRecord
100
AcDbViewportTableRecord
  2
*ACTIVE
 70
     0
 10
0.0
 20
0.0
 11
1.0
 21
1.0
 12
210.0
 22
148.5
 13
0.0
 23
0.0
 14
10.0
 24
10.0
 15
10.0
 25
10.0
 16
0.0
 26
0.0
 36
1.0
 17
0.0
 27
0.0
 37
0.0
 40
341.0
 41
1.24
 42
50.0
 43
0.0
 44
0.0
 50
0.0
 51
0.0
 71
     0
 72
   100
 73
     1
 74
     3
 75
     0
 76
     0
 77
     0
 78
     0
  0
ENDTAB
  0
TABLE
  2
LTYPE
  5
5
330
0
100
AcDbSymbolTable
 70
     1
  0
LTYPE
  5
14
330
5
100
AcDbSymbolTableRecord
100
AcDbLinetypeTableRecord
  2
BYBLOCK
 70
     0
  3

 72
    65
 73
     0
 40
0.0
  0
LTYPE
  5
15
330
5
100
AcDbSymbolTableRecord
100
AcDbLinetypeTableRecord
  2
BYLAYER
 70
     0
  3

 72
    65
 73
     0
 40
0.0
  0
LTYPE
  5
16
330
5
100
AcDbSymbolTableRecord
100
AcDbLinetypeTableRecord
  2
CONTINUOUS
 70
     0
  3
Solid line
 72
    65
 73
     0
 40
0.0
  0
ENDTAB
  0
TABLE
  2
LAYER
  5
2
100
AcDbSymbolTable
 70
1
  0
LAYER
  5
50
100
AcDbSymbolTableRecord
100
AcDbLayerTableRecord
  2
0
 70
0
  6
CONTINUOUS
  0
ENDTAB
  0
TABLE
  2
STYLE
  5
3
330
0
100
AcDbSymbolTable
 70
     1
  0
STYLE
  5
11
330
3
100
AcDbSymbolTableRecord
100
AcDbTextStyleTableRecord
  2
STANDARD
 70
     0
 40
0.0
 41
1.0
 50
0.0
 71
     0
 42
2.5
  3
txt
  4

  0
ENDTAB
  0
TABLE
  2
VIEW
  5
6
330
0
100
AcDbSymbolTable
 70
     0
  0
ENDTAB
  0
TABLE
  2
UCS
  5
7
330
0
100
AcDbSymbolTable
 70
     0
  0
ENDTAB
  0
TABLE
  2
APPID
  5
9
330
0
100
AcDbSymbolTable
 70
     2
  0
APPID
  5
12
330
9
100
AcDbSymbolTableRecord
100
AcDbRegAppTableRecord
  2
ACAD
 70
     0
  0
ENDTAB
  0
TABLE
  2
DIMSTYLE
  5
A
330
0
100
AcDbSymbolTable
 70
     1
  0
DIMSTYLE
105
27
330
A
100
AcDbSymbolTableRecord
100
AcDbDimStyleTableRecord
  2
ISO-25
 70
     0
  3

  4

  5

  6

  7

 40
1.0
 41
2.5
 42
0.625
 43
3.75
 44
1.25
 45
0.0
 46
0.0
 47
0.0
 48
0.0
140
2.5
141
2.5
142
0.0
143
0.03937007874016
144
1.0
145
0.0
146
1.0
147
0.625
 71
     0
 72
     0
 73
     0
 74
     0
 75
     0
 76
     0
 77
     1
 78
     8
170
     0
171
     3
172
     1
173
     0
174
     0
175
     0
176
     0
177
     0
178
     0
270
     2
271
     2
272
     2
273
     2
274
     3
340
11
275
     0
280
     0
281
     0
282
     0
283
     0
284
     8
285
     0
286
     0
287
     3
288
     0
  0
ENDTAB
  0
TABLE
  2
BLOCK_RECORD
  5
1
330
0
100
AcDbSymbolTable
 70
     1
  0
BLOCK_RECORD
  5
1F
330
1
100
AcDbSymbolTableRecord
100
AcDbBlockTableRecord
  2
*MODEL_SPACE
  0
BLOCK_RECORD
  5
1B
330
1
100
AcDbSymbolTableRecord
100
AcDbBlockTableRecord
  2
*PAPER_SPACE
  0
ENDTAB
  0
ENDSEC
  0
SECTION
  2
BLOCKS
  0
BLOCK
  5
20
330
1F
100
AcDbEntity
  8
0
100
AcDbBlockBegin
  2
*MODEL_SPACE
 70
     0
 10
0.0
 20
0.0
 30
0.0
  3
*MODEL_SPACE
  1

  0
ENDBLK
  5
21
330
1F
100
AcDbEntity
  8
0
100
AcDbBlockEnd
  0
BLOCK
  5
1C
330
1B
100
AcDbEntity
 67
     1
  8
0
100
AcDbBlockBegin
  2
*PAPER_SPACE
  1

  0
ENDBLK
  5
1D
330
1B
100
AcDbEntity
 67
     1
  8
0
100
AcDbBlockEnd
  0
ENDSEC
  0
SECTION
  2
ENTITIES
  0
SPLINE
  5
100
100
AcDbEntity
  8
0
 62
4
100
AcDbSpline
 70
8
 71
3
 72
8
 73
4
 74
0
 40
0
 40
0
 40
0
 40
0
 40
1
 40
1
 40
1
 40
1
 10
235.181987
 20
128.678093
 30
0.0
 10
234.077087
 20
128.678093
 30
0.0
 10
233.181313
 20
127.783167
 30
0.0
 10
233.181313
 20
126.678267
 30
0.0
  0
SPLINE
  5
101
100
AcDbEntity
  8
0
 62
4
100
AcDbSpline
 70
8
 71
3
 72
8
 73
4
 74
0
 40
0
 40
0
 40
0
 40
0
 40
1
 40
1
 40
1
 40
1
 10
233.181313
 20
126.507240
 30
0.0
 10
233.181313
 20
126.497080
 30
0.0
 10
233.180467
 20
126.486073
 30
0.0
 10
233.178773
 20
126.475067
 30
0.0
  0
SPLINE
  5
102
100
AcDbEntity
  8
0
 62
4
100
AcDbSpline
 70
8
 71
3
 72
8
 73
4
 74
0
 40
0
 40
0
 40
0
 40
0
 40
1
 40
1
 40
1
 40
1
 10
233.178773
 20
126.475067
 30
0.0
 10
232.961180
 20
125.426893
 30
0.0
 10
222.186500
 20
72.329887
 30
0.0
 10
221.581980
 20
69.408887
 30
0.0
  0
SPLINE
  5
103
100
AcDbEntity
  8
0
 62
4
100
AcDbSpline
 70
8
 71
3
 72
8
 73
4
 74
0
 40
0
 40
0
 40
0
 40
0
 40
1
 40
1
 40
1
 40
1
 10
221.581980
 20
69.408887
 30
0.0
 10
221.566740
 20
69.334380
 30
0.0
 10
221.501547
 20
69.281040
 30
0.0
 10
221.425347
 20
69.281040
 30
0.0
  0
SPLINE
  5
104
100
AcDbEntity
  8
0
 62
4
100
AcDbSpline
 70
8
 71
3
 72
8
 73
4
 74
0
 40
0
 40
0
 40
0
 40
0
 40
1
 40
1
 40
1
 40
1
 10
221.425347
 20
69.281040
 30
0.0
 10
219.554213
 20
69.281040
 30
0.0
 10
198.118307
 20
69.281040
 30
0.0
 10
196.051593
 20
69.281040
 30
0.0
  0
SPLINE
  5
105
100
AcDbEntity
  8
0
 62
4
100
AcDbSpline
 70
8
 71
3
 72
8
 73
4
 74
0
 40
0
 40
0
 40
0
 40
0
 40
1
 40
1
 40
1
 40
1
 10
196.051593
 20
69.281040
 30
0.0
 10
195.962693
 20
69.281040
 30
0.0
 10
195.891573
 20
69.353007
 30
0.0
 10
195.891573
 20
69.441060
 30
0.0
  0
SPLINE
  5
106
100
AcDbEntity
  8
0
 62
4
100
AcDbSpline
 70
8
 71
3
 72
8
 73
4
 74
0
 40
0
 40
0
 40
0
 40
0
 40
1
 40
1
 40
1
 40
1
 10
195.891573
 20
69.441060
 30
0.0
 10
195.891573
 20
70.057433
 30
0.0
 10
195.891573
 20
72.268080
 30
0.0
 10
195.891573
 20
72.828573
 30
0.0
  0
SPLINE
  5
107
100
AcDbEntity
  8
0
 62
4
100
AcDbSpline
 70
8
 71
3
 72
8
 73
4
 74
0
 40
0
 40
0
 40
0
 40
0
 40
1
 40
1
 40
1
 40
1
 10
195.891573
 20
72.828573
 30
0.0
 10
195.891573
 20
72.903927
 30
0.0
 10
195.838233
 20
72.969120
 30
0.0
 10
195.764573
 20
72.985207
 30
0.0
  0
SPLINE
  5
108
100
AcDbEntity
  8
0
 62
4
100
AcDbSpline
 70
8
 71
3
 72
8
 73
4
 74
0
 40
0
 40
0
 40
0
 40
0
 40
1
 40
1
 40
1
 40
1
 10
195.764573
 20
72.985207
 30
0.0
 10
194.001813
 20
73.359433
 30
0.0
 10
174.414180
 20
77.523340
 30
0.0
 10
173.142487
 20
77.793427
 30
0.0
  0
SPLINE
  5
109
100
AcDbEntity
  8
0
 62
4
100
AcDbSpline
 70
8
 71
3
 72
8
 73
4
 74
0
 40
0
 40
0
 40
0
 40
0
 40
1
 40
1
 40
1
 40
1
 10
173.142487
 20
77.793427
 30
0.0
 10
173.101000
 20
77.801893
 30
0.0
 10
173.057820
 20
77.794273
 30
0.0
 10
173.021413
 20
77.771413
 30
0.0
  0
SPLINE
  5
10a
100
AcDbEntity
  8
0
 62
4
100
AcDbSpline
 70
8
 71
3
 72
8
 73
4
 74
0
 40
0
 40
0
 40
0
 40
0
 40
1
 40
1
 40
1
 40
1
 10
173.021413
 20
77.771413
 30
0.0
 10
172.463460
 20
77.408193
 30
0.0
 10
167.870293
 20
74.424540
 30
0.0
 10
167.394467
 20
74.115507
 30
0.0
  0
SPLINE
  5
10b
100
AcDbEntity
  8
0
 62
4
100
AcDbSpline
 70
8
 71
3
 72
8
 73
4
 74
0
 40
0
 40
0
 40
0
 40
0
 40
1
 40
1
 40
1
 40
1
 10
167.394467
 20
74.115507
 30
0.0
 10
167.369067
 20
74.098573
 30
0.0
 10
167.338587
 20
74.090107
 30
0.0
 10
167.307260
 20
74.090107
 30
0.0
  0
SPLINE
  5
10c
100
AcDbEntity
  8
0
 62
4
100
AcDbSpline
 70
8
 71
3
 72
8
 73
4
 74
0
 40
0
 40
0
 40
0
 40
0
 40
1
 40
1
 40
1
 40
1
 10
167.307260
 20
74.090107
 30
0.0
 10
165.875547
 20
74.090107
 30
0.0
 10
132.483013
 20
74.090107
 30
0.0
 10
130.865033
 20
74.090107
 30
0.0
  0
SPLINE
  5
10d
100
AcDbEntity
  8
0
 62
4
100
AcDbSpline
 70
8
 71
3
 72
8
 73
4
 74
0
 40
0
 40
0
 40
0
 40
0
 40
1
 40
1
 40
1
 40
1
 10
130.865033
 20
74.090107
 30
0.0
 10
130.825240
 20
74.090107
 30
0.0
 10
130.787987
 20
74.104500
 30
0.0
 10
130.758353
 20
74.129900
 30
0.0
  0
SPLINE
  5
10e
100
AcDbEntity
  8
0
 62
4
100
AcDbSpline
 70
8
 71
3
 72
8
 73
4
 74
0
 40
0
 40
0
 40
0
 40
0
 40
1
 40
1
 40
1
 40
1
 10
130.758353
 20
74.129900
 30
0.0
 10
130.035300
 20
74.772520
 30
0.0
 10
120.918393
 20
82.872580
 30
0.0
 10
120.129300
 20
83.573620
 30
0.0
  0
SPLINE
  5
10f
100
AcDbEntity
  8
0
 62
4
100
AcDbSpline
 70
8
 71
3
 72
8
 73
4
 74
0
 40
0
 40
0
 40
0
 40
0
 40
1
 40
1
 40
1
 40
1
 10
120.129300
 20
83.573620
 30
0.0
 10
120.094587
 20
83.604947
 30
0.0
 10
120.074267
 20
83.648973
 30
0.0
 10
120.075113
 20
83.695540
 30
0.0
  0
SPLINE
  5
110
100
AcDbEntity
  8
0
 62
4
100
AcDbSpline
 70
8
 71
3
 72
8
 73
4
 74
0
 40
0
 40
0
 40
0
 40
0
 40
1
 40
1
 40
1
 40
1
 10
120.075113
 20
83.695540
 30
0.0
 10
120.084427
 20
84.537127
 30
0.0
 10
120.168247
 20
92.400967
 30
0.0
 10
120.172480
 20
92.803980
 30
0.0
  0
SPLINE
  5
111
100
AcDbEntity
  8
0
 62
4
100
AcDbSpline
 70
8
 71
3
 72
8
 73
4
 74
0
 40
0
 40
0
 40
0
 40
0
 40
1
 40
1
 40
1
 40
1
 10
120.172480
 20
92.803980
 30
0.0
 10
120.173327
 20
92.814987
 30
0.0
 10
120.174173
 20
92.825147
 30
0.0
 10
120.175867
 20
92.835307
 30
0.0
  0
SPLINE
  5
112
100
AcDbEntity
  8
0
 62
4
100
AcDbSpline
 70
8
 71
3
 72
8
 73
4
 74
0
 40
0
 40
0
 40
0
 40
0
 40
1
 40
1
 40
1
 40
1
 10
120.175867
 20
92.835307
 30
0.0
 10
120.374833
 20
93.763253
 30
0.0
 10
129.304627
 20
136.583420
 30
0.0
 10
129.507827
 20
137.535920
 30
0.0
  0
SPLINE
  5
113
100
AcDbEntity
  8
0
 62
4
100
AcDbSpline
 70
8
 71
3
 72
8
 73
4
 74
0
 40
0
 40
0
 40
0
 40
0
 40
1
 40
1
 40
1
 40
1
 10
129.507827
 20
137.535920
 30
0.0
 10
129.510367
 20
137.546927
 30
0.0
 10
129.511213
 20
137.557933
 30
0.0
 10
129.511213
 20
137.569787
 30
0.0
  0
LWPOLYLINE
  5
114
100
AcDbEntity
  8
0
 62
4
100
AcDbPolyline
 90
2
 70
0
 10
233.181313
 20
126.678267
 30
0.0
 10
233.181313
 20
126.507240
 30
0.0
  0
SPLINE
  5
115
100
AcDbEntity
  8
0
 62
4
100
AcDbSpline
 70
8
 71
3
 72
8
 73
4
 74
0
 40
0
 40
0
 40
0
 40
0
 40
1
 40
1
 40
1
 40
1
 10
129.511213
 20
138.255587
 30
0.0
 10
129.511213
 20
139.359640
 30
0.0
 10
128.615440
 20
140.255413
 30
0.0
 10
127.511387
 20
140.255413
 30
0.0
  0
SPLINE
  5
116
100
AcDbEntity
  8
0
 62
4
100
AcDbSpline
 70
8
 71
3
 72
8
 73
4
 74
0
 40
0
 40
0
 40
0
 40
0
 40
1
 40
1
 40
1
 40
1
 10
127.511387
 20
140.255413
 30
0.0
 10
124.155200
 20
140.255413
 30
0.0
 10
117.430973
 20
140.255413
 30
0.0
 10
114.075633
 20
140.255413
 30
0.0
  0
SPLINE
  5
117
100
AcDbEntity
  8
0
 62
4
100
AcDbSpline
 70
8
 71
3
 72
8
 73
4
 74
0
 40
0
 40
0
 40
0
 40
0
 40
1
 40
1
 40
1
 40
1
 10
114.075633
 20
140.255413
 30
0.0
 10
113.544773
 20
140.255413
 30
0.0
 10
113.035927
 20
140.044593
 30
0.0
 10
112.660853
 20
139.669520
 30
0.0
  0
SPLINE
  5
118
100
AcDbEntity
  8
0
 62
4
100
AcDbSpline
 70
8
 71
3
 72
8
 73
4
 74
0
 40
0
 40
0
 40
0
 40
0
 40
1
 40
1
 40
1
 40
1
 10
112.660853
 20
139.669520
 30
0.0
 10
112.285780
 20
139.294447
 30
0.0
 10
112.074960
 20
138.785600
 30
0.0
 10
112.074960
 20
138.255587
 30
0.0
  0
SPLINE
  5
119
100
AcDbEntity
  8
0
 62
4
100
AcDbSpline
 70
8
 71
3
 72
8
 73
4
 74
0
 40
0
 40
0
 40
0
 40
0
 40
1
 40
1
 40
1
 40
1
 10
112.074960
 20
138.255587
 30
0.0
 10
112.074960
 20
128.110827
 30
0.0
 10
112.074960
 20
81.426473
 30
0.0
 10
112.074960
 20
71.280867
 30
0.0
  0
SPLINE
  5
11a
100
AcDbEntity
  8
0
 62
4
100
AcDbSpline
 70
8
 71
3
 72
8
 73
4
 74
0
 40
0
 40
0
 40
0
 40
0
 40
1
 40
1
 40
1
 40
1
 10
112.074960
 20
71.280867
 30
0.0
 10
112.074960
 20
70.750853
 30
0.0
 10
111.864140
 20
70.242007
 30
0.0
 10
111.489067
 20
69.866933
 30
0.0
  0
SPLINE
  5
11b
100
AcDbEntity
  8
0
 62
4
100
AcDbSpline
 70
8
 71
3
 72
8
 73
4
 74
0
 40
0
 40
0
 40
0
 40
0
 40
1
 40
1
 40
1
 40
1
 10
111.489067
 20
69.866933
 30
0.0
 10
111.113993
 20
69.491860
 30
0.0
 10
110.605993
 20
69.281040
 30
0.0
 10
110.075133
 20
69.281040
 30
0.0
  0
SPLINE
  5
11c
100
AcDbEntity
  8
0
 62
4
100
AcDbSpline
 70
8
 71
3
 72
8
 73
4
 74
0
 40
0
 40
0
 40
0
 40
0
 40
1
 40
1
 40
1
 40
1
 10
110.075133
 20
69.281040
 30
0.0
 10
108.332693
 20
69.281040
 30
0.0
 10
105.818093
 20
69.281040
 30
0.0
 10
104.075653
 20
69.281040
 30
0.0
  0
SPLINE
  5
11d
100
AcDbEntity
  8
0
 62
4
100
AcDbSpline
 70
8
 71
3
 72
8
 73
4
 74
0
 40
0
 40
0
 40
0
 40
0
 40
1
 40
1
 40
1
 40
1
 10
104.075653
 20
69.281040
 30
0.0
 10
103.544793
 20
69.281040
 30
0.0
 10
103.035947
 20
69.491860
 30
0.0
 10
102.660873
 20
69.866933
 30
0.0
  0
SPLINE
  5
11e
100
AcDbEntity
  8
0
 62
4
100
AcDbSpline
 70
8
 71
3
 72
8
 73
4
 74
0
 40
0
 40
0
 40
0
 40
0
 40
1
 40
1
 40
1
 40
1
 10
102.660873
 20
69.866933
 30
0.0
 10
102.285800
 20
70.242007
 30
0.0
 10
102.074980
 20
70.750853
 30
0.0
 10
102.074980
 20
71.280867
 30
0.0
  0
LWPOLYLINE
  5
11f
100
AcDbEntity
  8
0
 62
4
100
AcDbPolyline
 90
2
 70
0
 10
129.511213
 20
137.569787
 30
0.0
 10
129.511213
 20
138.255587
 30
0.0
  0
SPLINE
  5
120
100
AcDbEntity
  8
0
 62
4
100
AcDbSpline
 70
8
 71
3
 72
8
 73
4
 74
0
 40
0
 40
0
 40
0
 40
0
 40
1
 40
1
 40
1
 40
1
 10
102.074980
 20
407.008415
 30
0.0
 10
102.074980
 20
407.538851
 30
0.0
 10
102.285800
 20
408.047529
 30
0.0
 10
102.660873
 20
408.422602
 30
0.0
  0
SPLINE
  5
121
100
AcDbEntity
  8
0
 62
4
100
AcDbSpline
 70
8
 71
3
 72
8
 73
4
 74
0
 40
0
 40
0
 40
0
 40
0
 40
1
 40
1
 40
1
 40
1
 10
102.660873
 20
408.422602
 30
0.0
 10
103.035947
 20
408.797675
 30
0.0
 10
103.544793
 20
409.008411
 30
0.0
 10
104.075653
 20
409.008411
 30
0.0
  0
LWPOLYLINE
  5
122
100
AcDbEntity
  8
0
 62
4
100
AcDbPolyline
 90
2
 70
0
 10
102.074980
 20
71.280867
 30
0.0
 10
102.074980
 20
407.008415
 30
0.0
  0
SPLINE
  5
123
100
AcDbEntity
  8
0
 62
4
100
AcDbSpline
 70
8
 71
3
 72
8
 73
4
 74
0
 40
0
 40
0
 40
0
 40
0
 40
1
 40
1
 40
1
 40
1
 10
110.075133
 20
409.008411
 30
0.0
 10
111.180033
 20
409.008411
 30
0.0
 10
112.074960
 20
408.112976
 30
0.0
 10
112.074960
 20
407.008415
 30
0.0
  0
LWPOLYLINE
  5
124
100
AcDbEntity
  8
0
 62
4
100
AcDbPolyline
 90
2
 70
0
 10
104.075653
 20
409.008411
 30
0.0
 10
110.075133
 20
409.008411
 30
0.0
  0
SPLINE
  5
125
100
AcDbEntity
  8
0
 62
4
100
AcDbSpline
 70
8
 71
3
 72
8
 73
4
 74
0
 40
0
 40
0
 40
0
 40
0
 40
1
 40
1
 40
1
 40
1
 10
112.074960
 20
351.816331
 30
0.0
 10
112.074960
 20
350.711770
 30
0.0
 10
112.970733
 20
349.816335
 30
0.0
 10
114.075633
 20
349.816335
 30
0.0
  0
LWPOLYLINE
  5
126
100
AcDbEntity
  8
0
 62
4
100
AcDbPolyline
 90
2
 70
0
 10
112.074960
 20
407.008415
 30
0.0
 10
112.074960
 20
351.816331
 30
0.0
  0
SPLINE
  5
127
100
AcDbEntity
  8
0
 62
4
100
AcDbSpline
 70
8
 71
3
 72
8
 73
4
 74
0
 40
0
 40
0
 40
0
 40
0
 40
1
 40
1
 40
1
 40
1
 10
127.496147
 20
349.816335
 30
0.0
 10
128.601047
 20
349.816335
 30
0.0
 10
129.496820
 20
350.711770
 30
0.0
 10
129.496820
 20
351.816331
 30
0.0
  0
SPLINE
  5
128
100
AcDbEntity
  8
0
 62
4
100
AcDbSpline
 70
8
 71
3
 72
8
 73
4
 74
0
 40
0
 40
0
 40
0
 40
0
 40
1
 40
1
 40
1
 40
1
 10
129.496820
 20
351.816331
 30
0.0
 10
129.496820
 20
353.976178
 30
0.0
 10
129.496820
 20
358.111721
 30
0.0
 10
129.496820
 20
358.111721
 30
0.0
  0
SPLINE
  5
129
100
AcDbEntity
  8
0
 62
4
100
AcDbSpline
 70
8
 71
3
 72
8
 73
4
 74
0
 40
0
 40
0
 40
0
 40
0
 40
1
 40
1
 40
1
 40
1
 10
129.496820
 20
358.111721
 30
0.0
 10
129.496820
 20
358.122897
 30
0.0
 10
129.495127
 20
358.134073
 30
0.0
 10
129.492587
 20
358.145080
 30
0.0
  0
SPLINE
  5
12a
100
AcDbEntity
  8
0
 62
4
100
AcDbSpline
 70
8
 71
3
 72
8
 73
4
 74
0
 40
0
 40
0
 40
0
 40
0
 40
1
 40
1
 40
1
 40
1
 10
129.492587
 20
358.145080
 30
0.0
 10
129.306320
 20
359.021634
 30
0.0
 10
121.731193
 20
394.544550
 30
0.0
 10
121.290927
 20
396.612110
 30
0.0
  0
SPLINE
  5
12b
100
AcDbEntity
  8
0
 62
4
100
AcDbSpline
 70
8
 71
3
 72
8
 73
4
 74
0
 40
0
 40
0
 40
0
 40
0
 40
1
 40
1
 40
1
 40
1
 10
121.290927
 20
396.612110
 30
0.0
 10
121.278227
 20
396.669937
 30
0.0
 10
121.298547
 20
396.729797
 30
0.0
 10
121.344267
 20
396.767812
 30
0.0
  0
SPLINE
  5
12c
100
AcDbEntity
  8
0
 62
4
100
AcDbSpline
 70
8
 71
3
 72
8
 73
4
 74
0
 40
0
 40
0
 40
0
 40
0
 40
1
 40
1
 40
1
 40
1
 10
121.344267
 20
396.767812
 30
0.0
 10
122.122353
 20
397.423386
 30
0.0
 10
128.839807
 20
403.079966
 30
0.0
 10
129.452793
 20
403.595671
 30
0.0
  0
SPLINE
  5
12d
100
AcDbEntity
  8
0
 62
4
100
AcDbSpline
 70
8
 71
3
 72
8
 73
4
 74
0
 40
0
 40
0
 40
0
 40
0
 40
1
 40
1
 40
1
 40
1
 10
129.452793
 20
403.595671
 30
0.0
 10
129.481580
 20
403.619970
 30
0.0
 10
129.517987
 20
403.633263
 30
0.0
 10
129.555240
 20
403.633263
 30
0.0
  0
SPLINE
  5
12e
100
AcDbEntity
  8
0
 62
4
100
AcDbSpline
 70
8
 71
3
 72
8
 73
4
 74
0
 40
0
 40
0
 40
0
 40
0
 40
1
 40
1
 40
1
 40
1
 10
129.555240
 20
403.633263
 30
0.0
 10
131.210473
 20
403.633263
 30
0.0
 10
167.486753
 20
403.633263
 30
0.0
 10
169.077640
 20
403.633263
 30
0.0
  0
SPLINE
  5
12f
100
AcDbEntity
  8
0
 62
4
100
AcDbSpline
 70
8
 71
3
 72
8
 73
4
 74
0
 40
0
 40
0
 40
0
 40
0
 40
1
 40
1
 40
1
 40
1
 10
169.077640
 20
403.633263
 30
0.0
 10
169.112353
 20
403.633263
 30
0.0
 10
169.146220
 20
403.621833
 30
0.0
 10
169.174160
 20
403.600666
 30
0.0
  0
SPLINE
  5
130
100
AcDbEntity
  8
0
 62
4
100
AcDbSpline
 70
8
 71
3
 72
8
 73
4
 74
0
 40
0
 40
0
 40
0
 40
0
 40
1
 40
1
 40
1
 40
1
 10
169.174160
 20
403.600666
 30
0.0
 10
169.620353
 20
403.261915
 30
0.0
 10
173.396487
 20
400.391207
 30
0.0
 10
173.912953
 20
399.998353
 30
0.0
  0
SPLINE
  5
131
100
AcDbEntity
  8
0
 62
4
100
AcDbSpline
 70
8
 71
3
 72
8
 73
4
 74
0
 40
0
 40
0
 40
0
 40
0
 40
1
 40
1
 40
1
 40
1
 10
173.912953
 20
399.998353
 30
0.0
 10
173.950207
 20
399.970075
 30
0.0
 10
173.997620
 20
399.959491
 30
0.0
 10
174.043340
 20
399.969228
 30
0.0
  0
SPLINE
  5
132
100
AcDbEntity
  8
0
 62
4
100
AcDbSpline
 70
8
 71
3
 72
8
 73
4
 74
0
 40
0
 40
0
 40
0
 40
0
 40
1
 40
1
 40
1
 40
1
 10
174.043340
 20
399.969228
 30
0.0
 10
175.348900
 20
400.249051
 30
0.0
 10
194.027213
 20
404.252515
 30
0.0
 10
195.745100
 20
404.620645
 30
0.0
  0
SPLINE
  5
133
100
AcDbEntity
  8
0
 62
4
100
AcDbSpline
 70
8
 71
3
 72
8
 73
4
 74
0
 40
0
 40
0
 40
0
 40
0
 40
1
 40
1
 40
1
 40
1
 10
195.745100
 20
404.620645
 30
0.0
 10
195.818760
 20
404.636393
 30
0.0
 10
195.871253
 20
404.701502
 30
0.0
 10
195.871253
 20
404.776855
 30
0.0
  0
SPLINE
  5
134
100
AcDbEntity
  8
0
 62
4
100
AcDbSpline
 70
8
 71
3
 72
8
 73
4
 74
0
 40
0
 40
0
 40
0
 40
0
 40
1
 40
1
 40
1
 40
1
 10
195.871253
 20
404.776855
 30
0.0
 10
195.872100
 20
405.406691
 30
0.0
 10
195.876333
 20
408.154463
 30
0.0
 10
195.877180
 20
408.848645
 30
0.0
  0
SPLINE
  5
135
100
AcDbEntity
  8
0
 62
4
100
AcDbSpline
 70
8
 71
3
 72
8
 73
4
 74
0
 40
0
 40
0
 40
0
 40
0
 40
1
 40
1
 40
1
 40
1
 10
195.877180
 20
408.848645
 30
0.0
 10
195.877180
 20
408.936867
 30
0.0
 10
195.949147
 20
409.008411
 30
0.0
 10
196.037200
 20
409.008411
 30
0.0
  0
SPLINE
  5
136
100
AcDbEntity
  8
0
 62
4
100
AcDbSpline
 70
8
 71
3
 72
8
 73
4
 74
0
 40
0
 40
0
 40
0
 40
0
 40
1
 40
1
 40
1
 40
1
 10
196.037200
 20
409.008411
 30
0.0
 10
198.191120
 20
409.008411
 30
0.0
 10
221.427887
 20
409.008411
 30
0.0
 10
223.333733
 20
409.008411
 30
0.0
  0
SPLINE
  5
137
100
AcDbEntity
  8
0
 62
4
100
AcDbSpline
 70
8
 71
3
 72
8
 73
4
 74
0
 40
0
 40
0
 40
0
 40
0
 40
1
 40
1
 40
1
 40
1
 10
223.333733
 20
409.008411
 30
0.0
 10
223.406547
 20
409.008411
 30
0.0
 10
223.470893
 20
408.958881
 30
0.0
 10
223.488673
 20
408.888184
 30
0.0
  0
SPLINE
  5
138
100
AcDbEntity
  8
0
 62
4
100
AcDbSpline
 70
8
 71
3
 72
8
 73
4
 74
0
 40
0
 40
0
 40
0
 40
0
 40
1
 40
1
 40
1
 40
1
 10
223.488673
 20
408.888184
 30
0.0
 10
224.136373
 20
406.364609
 30
0.0
 10
234.766273
 20
364.948047
 30
0.0
 10
235.030433
 20
363.917230
 30
0.0
  0
SPLINE
  5
139
100
AcDbEntity
  8
0
 62
4
100
AcDbSpline
 70
8
 71
3
 72
8
 73
4
 74
0
 40
0
 40
0
 40
0
 40
0
 40
1
 40
1
 40
1
 40
1
 10
235.030433
 20
363.917230
 30
0.0
 10
235.033820
 20
363.904276
 30
0.0
 10
235.035513
 20
363.890899
 30
0.0
 10
235.035513
 20
363.877437
 30
0.0
  0
SPLINE
  5
13a
100
AcDbEntity
  8
0
 62
4
100
AcDbSpline
 70
8
 71
3
 72
8
 73
4
 74
0
 40
0
 40
0
 40
0
 40
0
 40
1
 40
1
 40
1
 40
1
 10
235.035513
 20
363.877437
 30
0.0
 10
235.035513
 20
363.877437
 30
0.0
 10
235.035513
 20
357.407972
 30
0.0
 10
235.035513
 20
354.355908
 30
0.0
  0
SPLINE
  5
13b
100
AcDbEntity
  8
0
 62
4
100
AcDbSpline
 70
8
 71
3
 72
8
 73
4
 74
0
 40
0
 40
0
 40
0
 40
0
 40
1
 40
1
 40
1
 40
1
 10
235.035513
 20
354.355908
 30
0.0
 10
235.035513
 20
353.825556
 30
0.0
 10
235.246333
 20
353.316794
 30
0.0
 10
235.621407
 20
352.941721
 30
0.0
  0
SPLINE
  5
13c
100
AcDbEntity
  8
0
 62
4
100
AcDbSpline
 70
8
 71
3
 72
8
 73
4
 74
0
 40
0
 40
0
 40
0
 40
0
 40
1
 40
1
 40
1
 40
1
 10
235.621407
 20
352.941721
 30
0.0
 10
235.996480
 20
352.566647
 30
0.0
 10
236.505327
 20
352.355912
 30
0.0
 10
237.036187
 20
352.355912
 30
0.0
  0
SPLINE
  5
13d
100
AcDbEntity
  8
0
 62
4
100
AcDbSpline
 70
8
 71
3
 72
8
 73
4
 74
0
 40
0
 40
0
 40
0
 40
0
 40
1
 40
1
 40
1
 40
1
 10
237.036187
 20
352.355912
 30
0.0
 10
238.377307
 20
352.355912
 30
0.0
 10
240.137527
 20
352.355912
 30
0.0
 10
241.478647
 20
352.355912
 30
0.0
  0
SPLINE
  5
13e
100
AcDbEntity
  8
0
 62
4
100
AcDbSpline
 70
8
 71
3
 72
8
 73
4
 74
0
 40
0
 40
0
 40
0
 40
0
 40
1
 40
1
 40
1
 40
1
 10
241.478647
 20
352.355912
 30
0.0
 10
242.009507
 20
352.355912
 30
0.0
 10
242.518353
 20
352.566647
 30
0.0
 10
242.893427
 20
352.941721
 30
0.0
  0
SPLINE
  5
13f
100
AcDbEntity
  8
0
 62
4
100
AcDbSpline
 70
8
 71
3
 72
8
 73
4
 74
0
 40
0
 40
0
 40
0
 40
0
 40
1
 40
1
 40
1
 40
1
 10
242.893427
 20
352.941721
 30
0.0
 10
243.268500
 20
353.316794
 30
0.0
 10
243.478473
 20
353.825556
 30
0.0
 10
243.478473
 20
354.355908
 30
0.0
  0
SPLINE
  5
140
100
AcDbEntity
  8
0
 62
4
100
AcDbSpline
 70
8
 71
3
 72
8
 73
4
 74
0
 40
0
 40
0
 40
0
 40
0
 40
1
 40
1
 40
1
 40
1
 10
243.478473
 20
354.355908
 30
0.0
 10
243.478473
 20
363.028569
 30
0.0
 10
243.478473
 20
398.335754
 30
0.0
 10
243.478473
 20
407.008415
 30
0.0
  0
SPLINE
  5
141
100
AcDbEntity
  8
0
 62
4
100
AcDbSpline
 70
8
 71
3
 72
8
 73
4
 74
0
 40
0
 40
0
 40
0
 40
0
 40
1
 40
1
 40
1
 40
1
 10
243.478473
 20
407.008415
 30
0.0
 10
243.478473
 20
407.538851
 30
0.0
 10
243.689293
 20
408.047529
 30
0.0
 10
244.064367
 20
408.422602
 30
0.0
  0
SPLINE
  5
142
100
AcDbEntity
  8
0
 62
4
100
AcDbSpline
 70
8
 71
3
 72
8
 73
4
 74
0
 40
0
 40
0
 40
0
 40
0
 40
1
 40
1
 40
1
 40
1
 10
244.064367
 20
408.422602
 30
0.0
 10
244.439440
 20
408.797675
 30
0.0
 10
244.948287
 20
409.008411
 30
0.0
 10
245.479147
 20
409.008411
 30
0.0
  0
SPLINE
  5
143
100
AcDbEntity
  8
0
 62
4
100
AcDbSpline
 70
8
 71
3
 72
8
 73
4
 74
0
 40
0
 40
0
 40
0
 40
0
 40
1
 40
1
 40
1
 40
1
 10
245.479147
 20
409.008411
 30
0.0
 10
247.221587
 20
409.008411
 30
0.0
 10
249.736187
 20
409.008411
 30
0.0
 10
251.478627
 20
409.008411
 30
0.0
  0
SPLINE
  5
144
100
AcDbEntity
  8
0
 62
4
100
AcDbSpline
 70
8
 71
3
 72
8
 73
4
 74
0
 40
0
 40
0
 40
0
 40
0
 40
1
 40
1
 40
1
 40
1
 10
251.478627
 20
409.008411
 30
0.0
 10
252.009487
 20
409.008411
 30
0.0
 10
252.518333
 20
408.797675
 30
0.0
 10
252.893407
 20
408.422602
 30
0.0
  0
SPLINE
  5
145
100
AcDbEntity
  8
0
 62
4
100
AcDbSpline
 70
8
 71
3
 72
8
 73
4
 74
0
 40
0
 40
0
 40
0
 40
0
 40
1
 40
1
 40
1
 40
1
 10
252.893407
 20
408.422602
 30
0.0
 10
253.268480
 20
408.047529
 30
0.0
 10
253.479300
 20
407.538851
 30
0.0
 10
253.479300
 20
407.008415
 30
0.0
  0
LWPOLYLINE
  5
146
100
AcDbEntity
  8
0
 62
4
100
AcDbPolyline
 90
2
 70
0
 10
114.075633
 20
349.816335
 30
0.0
 10
127.496147
 20
349.816335
 30
0.0
  0
SPLINE
  5
147
100
AcDbEntity
  8
0
 62
4
100
AcDbSpline
 70
8
 71
3
 72
8
 73
4
 74
0
 40
0
 40
0
 40
0
 40
0
 40
1
 40
1
 40
1
 40
1
 10
253.479300
 20
71.280867
 30
0.0
 10
253.479300
 20
70.750853
 30
0.0
 10
253.268480
 20
70.242007
 30
0.0
 10
252.893407
 20
69.866933
 30
0.0
  0
SPLINE
  5
148
100
AcDbEntity
  8
0
 62
4
100
AcDbSpline
 70
8
 71
3
 72
8
 73
4
 74
0
 40
0
 40
0
 40
0
 40
0
 40
1
 40
1
 40
1
 40
1
 10
252.893407
 20
69.866933
 30
0.0
 10
252.518333
 20
69.491860
 30
0.0
 10
252.009487
 20
69.281040
 30
0.0
 10
251.478627
 20
69.281040
 30
0.0
  0
LWPOLYLINE
  5
149
100
AcDbEntity
  8
0
 62
4
100
AcDbPolyline
 90
2
 70
0
 10
253.479300
 20
407.008415
 30
0.0
 10
253.479300
 20
71.280867
 30
0.0
  0
SPLINE
  5
14a
100
AcDbEntity
  8
0
 62
4
100
AcDbSpline
 70
8
 71
3
 72
8
 73
4
 74
0
 40
0
 40
0
 40
0
 40
0
 40
1
 40
1
 40
1
 40
1
 10
245.479147
 20
69.281040
 30
0.0
 10
244.948287
 20
69.281040
 30
0.0
 10
244.439440
 20
69.491860
 30
0.0
 10
244.064367
 20
69.866933
 30
0.0
  0
SPLINE
  5
14b
100
AcDbEntity
  8
0
 62
4
100
AcDbSpline
 70
8
 71
3
 72
8
 73
4
 74
0
 40
0
 40
0
 40
0
 40
0
 40
1
 40
1
 40
1
 40
1
 10
244.064367
 20
69.866933
 30
0.0
 10
243.689293
 20
70.242007
 30
0.0
 10
243.478473
 20
70.750853
 30
0.0
 10
243.478473
 20
71.280867
 30
0.0
  0
LWPOLYLINE
  5
14c
100
AcDbEntity
  8
0
 62
4
100
AcDbPolyline
 90
2
 70
0
 10
251.478627
 20
69.281040
 30
0.0
 10
245.479147
 20
69.281040
 30
0.0
  0
SPLINE
  5
14d
100
AcDbEntity
  8
0
 62
4
100
AcDbSpline
 70
8
 71
3
 72
8
 73
4
 74
0
 40
0
 40
0
 40
0
 40
0
 40
1
 40
1
 40
1
 40
1
 10
243.478473
 20
126.678267
 30
0.0
 10
243.478473
 20
127.783167
 30
0.0
 10
242.583547
 20
128.678093
 30
0.0
 10
241.478647
 20
128.678093
 30
0.0
  0
SPLINE
  5
14e
100
AcDbEntity
  8
0
 62
4
100
AcDbSpline
 70
8
 71
3
 72
8
 73
4
 74
0
 40
0
 40
0
 40
0
 40
0
 40
1
 40
1
 40
1
 40
1
 10
241.478647
 20
128.678093
 30
0.0
 10
239.662547
 20
128.678093
 30
0.0
 10
236.998087
 20
128.678093
 30
0.0
 10
235.181987
 20
128.678093
 30
0.0
  0
LWPOLYLINE
  5
14f
100
AcDbEntity
  8
0
 62
4
100
AcDbPolyline
 90
2
 70
0
 10
243.478473
 20
71.280867
 30
0.0
 10
243.478473
 20
126.678267
 30
0.0
  0
LWPOLYLINE
  5
150
100
AcDbEntity
  8
0
 62
4
100
AcDbPolyline
 90
1
 70
1
 10
235.181987
 20
128.678093
 30
0.0
  0
LWPOLYLINE
  5
151
100
AcDbEntity
  8
0
 62
4
100
AcDbPolyline
 90
5
 70
1
 10
210.952080
 20
72.462813
 30
0.0
 10
213.862920
 20
86.156800
 30
0.0
 10
200.168933
 20
89.067640
 30
0.0
 10
197.258093
 20
75.373653
 30
0.0
 10
210.952080
 20
72.462813
 30
0.0
  0
LWPOLYLINE
  5
152
100
AcDbEntity
  8
0
 62
4
100
AcDbPolyline
 90
5
 70
1
 10
165.622393
 20
75.984947
 30
0.0
 10
166.139707
 20
78.417420
 30
0.0
 10
163.205160
 20
79.041413
 30
0.0
 10
162.687847
 20
76.608093
 30
0.0
 10
165.622393
 20
75.984947
 30
0.0
  0
LWPOLYLINE
  5
153
100
AcDbEntity
  8
0
 62
4
100
AcDbPolyline
 90
5
 70
1
 10
192.318640
 20
76.423520
 30
0.0
 10
195.229480
 20
90.117507
 30
0.0
 10
181.535493
 20
93.028347
 30
0.0
 10
178.624653
 20
79.334360
 30
0.0
 10
192.318640
 20
76.423520
 30
0.0
  0
SPLINE
  5
154
100
AcDbEntity
  8
0
 62
4
100
AcDbSpline
 70
8
 71
3
 72
8
 73
4
 74
0
 40
0
 40
0
 40
0
 40
0
 40
1
 40
1
 40
1
 40
1
 10
146.450473
 20
80.698340
 30
0.0
 10
146.450473
 20
81.251213
 30
0.0
 10
146.897513
 20
81.699947
 30
0.0
 10
147.450387
 20
81.699947
 30
0.0
  0
SPLINE
  5
155
100
AcDbEntity
  8
0
 62
4
100
AcDbSpline
 70
8
 71
3
 72
8
 73
4
 74
0
 40
0
 40
0
 40
0
 40
0
 40
1
 40
1
 40
1
 40
1
 10
147.450387
 20
81.699947
 30
0.0
 10
148.002413
 20
81.699947
 30
0.0
 10
148.450300
 20
81.251213
 30
0.0
 10
148.450300
 20
80.698340
 30
0.0
  0
SPLINE
  5
156
100
AcDbEntity
  8
0
 62
4
100
AcDbSpline
 70
8
 71
3
 72
8
 73
4
 74
0
 40
0
 40
0
 40
0
 40
0
 40
1
 40
1
 40
1
 40
1
 10
148.450300
 20
80.698340
 30
0.0
 10
148.450300
 20
80.148853
 30
0.0
 10
148.002413
 20
79.700120
 30
0.0
 10
147.450387
 20
79.700120
 30
0.0
  0
SPLINE
  5
157
100
AcDbEntity
  8
0
 62
4
100
AcDbSpline
 70
8
 71
3
 72
8
 73
4
 74
0
 40
0
 40
0
 40
0
 40
0
 40
1
 40
1
 40
1
 40
1
 10
147.450387
 20
79.700120
 30
0.0
 10
146.897513
 20
79.700120
 30
0.0
 10
146.450473
 20
80.148853
 30
0.0
 10
146.450473
 20
80.698340
 30
0.0
  0
LWPOLYLINE
  5
158
100
AcDbEntity
  8
0
 62
4
100
AcDbPolyline
 90
5
 70
1
 10
157.181973
 20
77.779033
 30
0.0
 10
157.699287
 20
80.211507
 30
0.0
 10
154.764740
 20
80.835500
 30
0.0
 10
154.247427
 20
78.402180
 30
0.0
 10
157.181973
 20
77.779033
 30
0.0
  0
LWPOLYLINE
  5
159
100
AcDbEntity
  8
0
 62
4
100
AcDbPolyline
 90
1
 70
1
 10
146.450473
 20
80.698340
 30
0.0
  0
LWPOLYLINE
  5
15a
100
AcDbEntity
  8
0
 62
4
100
AcDbPolyline
 90
5
 70
1
 10
173.685200
 20
80.384227
 30
0.0
 10
176.596040
 20
94.078213
 30
0.0
 10
162.901207
 20
96.989053
 30
0.0
 10
159.990367
 20
83.295067
 30
0.0
 10
173.685200
 20
80.384227
 30
0.0
  0
LWPOLYLINE
  5
15b
100
AcDbEntity
  8
0
 62
4
100
AcDbPolyline
 90
5
 70
1
 10
155.051760
 20
84.344933
 30
0.0
 10
157.962600
 20
98.038920
 30
0.0
 10
144.267767
 20
100.949760
 30
0.0
 10
141.356927
 20
87.255773
 30
0.0
 10
155.051760
 20
84.344933
 30
0.0
  0
LWPOLYLINE
  5
15c
100
AcDbEntity
  8
0
 62
4
100
AcDbPolyline
 90
13
 70
1
 10
142.661640
 20
117.681587
 30
0.0
 10
143.603980
 20
117.481773
 30
0.0
 10
142.917333
 20
114.253433
 30
0.0
 10
141.975840
 20
114.454093
 30
0.0
 10
137.715413
 20
94.411800
 30
0.0
 10
138.657753
 20
94.211140
 30
0.0
 10
137.971107
 20
90.983647
 30
0.0
 10
137.029613
 20
91.183460
 30
0.0
 10
136.395460
 20
88.305640
 30
0.0
 10
122.701473
 20
91.216480
 30
0.0
 10
129.595033
 20
123.545600
 30
0.0
 10
143.289867
 20
120.634760
 30
0.0
 10
142.661640
 20
117.681587
 30
0.0
  0
LWPOLYLINE
  5
15d
100
AcDbEntity
  8
0
 62
4
100
AcDbPolyline
 90
5
 70
1
 10
214.912787
 20
91.096253
 30
0.0
 10
217.823627
 20
104.790240
 30
0.0
 10
204.129640
 20
107.701927
 30
0.0
 10
201.218800
 20
94.007093
 30
0.0
 10
214.912787
 20
91.096253
 30
0.0
  0
SPLINE
  5
15e
100
AcDbEntity
  8
0
 62
4
100
AcDbSpline
 70
8
 71
3
 72
8
 73
4
 74
0
 40
0
 40
0
 40
0
 40
0
 40
1
 40
1
 40
1
 40
1
 10
166.442813
 20
98.718793
 30
0.0
 10
166.328513
 20
98.179467
 30
0.0
 10
165.796807
 20
97.834027
 30
0.0
 10
165.256633
 20
97.949173
 30
0.0
  0
SPLINE
  5
15f
100
AcDbEntity
  8
0
 62
4
100
AcDbSpline
 70
8
 71
3
 72
8
 73
4
 74
0
 40
0
 40
0
 40
0
 40
0
 40
1
 40
1
 40
1
 40
1
 10
165.256633
 20
97.949173
 30
0.0
 10
164.717307
 20
98.063473
 30
0.0
 10
164.371867
 20
98.595180
 30
0.0
 10
164.487013
 20
99.134507
 30
0.0
  0
SPLINE
  5
160
100
AcDbEntity
  8
0
 62
4
100
AcDbSpline
 70
8
 71
3
 72
8
 73
4
 74
0
 40
0
 40
0
 40
0
 40
0
 40
1
 40
1
 40
1
 40
1
 10
164.487013
 20
99.134507
 30
0.0
 10
164.601313
 20
99.674680
 30
0.0
 10
165.133020
 20
100.020120
 30
0.0
 10
165.672347
 20
99.904973
 30
0.0
  0
SPLINE
  5
161
100
AcDbEntity
  8
0
 62
4
100
AcDbSpline
 70
8
 71
3
 72
8
 73
4
 74
0
 40
0
 40
0
 40
0
 40
0
 40
1
 40
1
 40
1
 40
1
 10
165.672347
 20
99.904973
 30
0.0
 10
166.212520
 20
99.789827
 30
0.0
 10
166.557960
 20
99.258967
 30
0.0
 10
166.442813
 20
98.718793
 30
0.0
  0
LWPOLYLINE
  5
162
100
AcDbEntity
  8
0
 62
4
100
AcDbPolyline
 90
5
 70
1
 10
196.279347
 20
95.056960
 30
0.0
 10
199.190187
 20
108.751793
 30
0.0
 10
185.496200
 20
111.661787
 30
0.0
 10
182.584513
 20
97.967800
 30
0.0
 10
196.279347
 20
95.056960
 30
0.0
  0
LWPOLYLINE
  5
163
100
AcDbEntity
  8
0
 62
4
100
AcDbPolyline
 90
1
 70
1
 10
166.442813
 20
98.718793
 30
0.0
  0
SPLINE
  5
164
100
AcDbEntity
  8
0
 62
4
100
AcDbSpline
 70
8
 71
3
 72
8
 73
4
 74
0
 40
0
 40
0
 40
0
 40
0
 40
1
 40
1
 40
1
 40
1
 10
222.475213
 20
102.668493
 30
0.0
 10
222.475213
 20
103.222213
 30
0.0
 10
222.923100
 20
103.670100
 30
0.0
 10
223.475973
 20
103.670100
 30
0.0
  0
SPLINE
  5
165
100
AcDbEntity
  8
0
 62
4
100
AcDbSpline
 70
8
 71
3
 72
8
 73
4
 74
0
 40
0
 40
0
 40
0
 40
0
 40
1
 40
1
 40
1
 40
1
 10
223.475973
 20
103.670100
 30
0.0
 10
224.027153
 20
103.670100
 30
0.0
 10
224.475887
 20
103.222213
 30
0.0
 10
224.475887
 20
102.668493
 30
0.0
  0
SPLINE
  5
166
100
AcDbEntity
  8
0
 62
4
100
AcDbSpline
 70
8
 71
3
 72
8
 73
4
 74
0
 40
0
 40
0
 40
0
 40
0
 40
1
 40
1
 40
1
 40
1
 10
224.475887
 20
102.668493
 30
0.0
 10
224.475887
 20
102.119007
 30
0.0
 10
224.027153
 20
101.670273
 30
0.0
 10
223.475973
 20
101.670273
 30
0.0
  0
SPLINE
  5
167
100
AcDbEntity
  8
0
 62
4
100
AcDbSpline
 70
8
 71
3
 72
8
 73
4
 74
0
 40
0
 40
0
 40
0
 40
0
 40
1
 40
1
 40
1
 40
1
 10
223.475973
 20
101.670273
 30
0.0
 10
222.923100
 20
101.670273
 30
0.0
 10
222.475213
 20
102.119007
 30
0.0
 10
222.475213
 20
102.668493
 30
0.0
  0
LWPOLYLINE
  5
168
100
AcDbEntity
  8
0
 62
4
100
AcDbPolyline
 90
5
 70
1
 10
177.645907
 20
99.017667
 30
0.0
 10
180.556747
 20
112.711653
 30
0.0
 10
166.861913
 20
115.622493
 30
0.0
 10
163.951073
 20
101.928507
 30
0.0
 10
177.645907
 20
99.017667
 30
0.0
  0
LWPOLYLINE
  5
169
100
AcDbEntity
  8
0
 62
4
100
AcDbPolyline
 90
1
 70
1
 10
222.475213
 20
102.668493
 30
0.0
  0
LWPOLYLINE
  5
16a
100
AcDbEntity
  8
0
 62
4
100
AcDbPolyline
 90
5
 70
1
 10
159.012467
 20
102.978373
 30
0.0
 10
161.923307
 20
116.673207
 30
0.0
 10
148.228473
 20
119.583200
 30
0.0
 10
145.317633
 20
105.889213
 30
0.0
 10
159.012467
 20
102.978373
 30
0.0
  0
LWPOLYLINE
  5
16b
100
AcDbEntity
  8
0
 62
4
100
AcDbPolyline
 90
5
 70
1
 10
221.201827
 20
109.235240
 30
0.0
 10
224.112667
 20
122.929227
 30
0.0
 10
210.417833
 20
125.840067
 30
0.0
 10
207.506993
 20
112.146080
 30
0.0
 10
221.201827
 20
109.235240
 30
0.0
  0
LWPOLYLINE
  5
16c
100
AcDbEntity
  8
0
 62
4
100
AcDbPolyline
 90
5
 70
1
 10
202.568387
 20
113.195947
 30
0.0
 10
205.479227
 20
126.889933
 30
0.0
 10
191.784393
 20
129.800773
 30
0.0
 10
188.873553
 20
116.106787
 30
0.0
 10
202.568387
 20
113.195947
 30
0.0
  0
LWPOLYLINE
  5
16d
100
AcDbEntity
  8
0
 62
4
100
AcDbPolyline
 90
5
 70
1
 10
183.934100
 20
117.156653
 30
0.0
 10
186.845787
 20
130.850640
 30
0.0
 10
173.150953
 20
133.761480
 30
0.0
 10
170.240113
 20
120.067493
 30
0.0
 10
183.934100
 20
117.156653
 30
0.0
  0
LWPOLYLINE
  5
16e
100
AcDbEntity
  8
0
 62
4
100
AcDbPolyline
 90
5
 70
1
 10
165.300660
 20
121.117360
 30
0.0
 10
168.211500
 20
134.811347
 30
0.0
 10
154.517513
 20
137.722187
 30
0.0
 10
151.606673
 20
124.028200
 30
0.0
 10
165.300660
 20
121.117360
 30
0.0
  0
LWPOLYLINE
  5
16f
100
AcDbEntity
  8
0
 62
4
100
AcDbPolyline
 90
5
 70
1
 10
227.493407
 20
127.373380
 30
0.0
 10
230.403400
 20
141.067367
 30
0.0
 10
216.709413
 20
143.978207
 30
0.0
 10
213.798573
 20
130.284220
 30
0.0
 10
227.493407
 20
127.373380
 30
0.0
  0
LWPOLYLINE
  5
170
100
AcDbEntity
  8
0
 62
4
100
AcDbPolyline
 90
5
 70
1
 10
144.834187
 20
127.903393
 30
0.0
 10
147.745027
 20
141.597380
 30
0.0
 10
134.051040
 20
144.508220
 30
0.0
 10
131.140200
 20
130.814233
 30
0.0
 10
144.834187
 20
127.903393
 30
0.0
  0
LWPOLYLINE
  5
171
100
AcDbEntity
  8
0
 62
4
100
AcDbPolyline
 90
5
 70
1
 10
208.859120
 20
131.334087
 30
0.0
 10
211.769960
 20
145.028073
 30
0.0
 10
198.075973
 20
147.939760
 30
0.0
 10
195.165133
 20
134.244927
 30
0.0
 10
208.859120
 20
131.334087
 30
0.0
  0
SPLINE
  5
172
100
AcDbEntity
  8
0
 62
4
100
AcDbSpline
 70
8
 71
3
 72
8
 73
4
 74
0
 40
0
 40
0
 40
0
 40
0
 40
1
 40
1
 40
1
 40
1
 10
235.181987
 20
211.745407
 30
0.0
 10
234.651127
 20
211.745407
 30
0.0
 10
234.142280
 20
211.534587
 30
0.0
 10
233.767207
 20
211.159513
 30
0.0
  0
SPLINE
  5
173
100
AcDbEntity
  8
0
 62
4
100
AcDbSpline
 70
8
 71
3
 72
8
 73
4
 74
0
 40
0
 40
0
 40
0
 40
0
 40
1
 40
1
 40
1
 40
1
 10
233.767207
 20
211.159513
 30
0.0
 10
233.392133
 20
210.784440
 30
0.0
 10
233.181313
 20
210.275593
 30
0.0
 10
233.181313
 20
209.745580
 30
0.0
  0
SPLINE
  5
174
100
AcDbEntity
  8
0
 62
4
100
AcDbSpline
 70
8
 71
3
 72
8
 73
4
 74
0
 40
0
 40
0
 40
0
 40
0
 40
1
 40
1
 40
1
 40
1
 10
233.181313
 20
209.745580
 30
0.0
 10
233.181313
 20
200.848807
 30
0.0
 10
233.181313
 20
164.304980
 30
0.0
 10
233.181313
 20
164.304980
 30
0.0
  0
SPLINE
  5
175
100
AcDbEntity
  8
0
 62
4
100
AcDbSpline
 70
8
 71
3
 72
8
 73
4
 74
0
 40
0
 40
0
 40
0
 40
0
 40
1
 40
1
 40
1
 40
1
 10
233.181313
 20
164.304980
 30
0.0
 10
233.181313
 20
164.255027
 30
0.0
 10
233.205020
 20
164.208460
 30
0.0
 10
233.243967
 20
164.177980
 30
0.0
  0
SPLINE
  5
176
100
AcDbEntity
  8
0
 62
4
100
AcDbSpline
 70
8
 71
3
 72
8
 73
4
 74
0
 40
0
 40
0
 40
0
 40
0
 40
1
 40
1
 40
1
 40
1
 10
233.243967
 20
164.177980
 30
0.0
 10
233.567393
 20
163.928213
 30
0.0
 10
235.054987
 20
162.779287
 30
0.0
 10
235.416513
 20
162.499040
 30
0.0
  0
SPLINE
  5
177
100
AcDbEntity
  8
0
 62
4
100
AcDbSpline
 70
8
 71
3
 72
8
 73
4
 74
0
 40
0
 40
0
 40
0
 40
0
 40
1
 40
1
 40
1
 40
1
 10
235.416513
 20
162.499040
 30
0.0
 10
235.465620
 20
162.461787
 30
0.0
 10
235.488480
 20
162.399980
 30
0.0
 10
235.474933
 20
162.339867
 30
0.0
  0
SPLINE
  5
178
100
AcDbEntity
  8
0
 62
4
100
AcDbSpline
 70
8
 71
3
 72
8
 73
4
 74
0
 40
0
 40
0
 40
0
 40
0
 40
1
 40
1
 40
1
 40
1
 10
235.474933
 20
162.339867
 30
0.0
 10
235.249720
 20
161.279840
 30
0.0
 10
233.279527
 20
152.008840
 30
0.0
 10
233.185547
 20
151.565187
 30
0.0
  0
SPLINE
  5
179
100
AcDbEntity
  8
0
 62
4
100
AcDbSpline
 70
8
 71
3
 72
8
 73
4
 74
0
 40
0
 40
0
 40
0
 40
0
 40
1
 40
1
 40
1
 40
1
 10
233.185547
 20
151.565187
 30
0.0
 10
233.183007
 20
151.554180
 30
0.0
 10
233.181313
 20
151.543173
 30
0.0
 10
233.181313
 20
151.531320
 30
0.0
  0
SPLINE
  5
17a
100
AcDbEntity
  8
0
 62
4
100
AcDbSpline
 70
8
 71
3
 72
8
 73
4
 74
0
 40
0
 40
0
 40
0
 40
0
 40
1
 40
1
 40
1
 40
1
 10
233.181313
 20
151.531320
 30
0.0
 10
233.181313
 20
151.531320
 30
0.0
 10
233.181313
 20
140.940367
 30
0.0
 10
233.181313
 20
136.678247
 30
0.0
  0
SPLINE
  5
17b
100
AcDbEntity
  8
0
 62
4
100
AcDbSpline
 70
8
 71
3
 72
8
 73
4
 74
0
 40
0
 40
0
 40
0
 40
0
 40
1
 40
1
 40
1
 40
1
 10
233.181313
 20
136.678247
 30
0.0
 10
233.181313
 20
135.573347
 30
0.0
 10
234.077087
 20
134.678420
 30
0.0
 10
235.181987
 20
134.678420
 30
0.0
  0
SPLINE
  5
17c
100
AcDbEntity
  8
0
 62
4
100
AcDbSpline
 70
8
 71
3
 72
8
 73
4
 74
0
 40
0
 40
0
 40
0
 40
0
 40
1
 40
1
 40
1
 40
1
 10
235.181987
 20
134.678420
 30
0.0
 10
236.998087
 20
134.678420
 30
0.0
 10
239.662547
 20
134.678420
 30
0.0
 10
241.478647
 20
134.678420
 30
0.0
  0
SPLINE
  5
17d
100
AcDbEntity
  8
0
 62
4
100
AcDbSpline
 70
8
 71
3
 72
8
 73
4
 74
0
 40
0
 40
0
 40
0
 40
0
 40
1
 40
1
 40
1
 40
1
 10
241.478647
 20
134.678420
 30
0.0
 10
242.583547
 20
134.678420
 30
0.0
 10
243.478473
 20
135.573347
 30
0.0
 10
243.478473
 20
136.678247
 30
0.0
  0
SPLINE
  5
17e
100
AcDbEntity
  8
0
 62
4
100
AcDbSpline
 70
8
 71
3
 72
8
 73
4
 74
0
 40
0
 40
0
 40
0
 40
0
 40
1
 40
1
 40
1
 40
1
 10
243.478473
 20
136.678247
 30
0.0
 10
243.478473
 20
147.309840
 30
0.0
 10
243.478473
 20
199.113987
 30
0.0
 10
243.478473
 20
209.745580
 30
0.0
  0
SPLINE
  5
17f
100
AcDbEntity
  8
0
 62
4
100
AcDbSpline
 70
8
 71
3
 72
8
 73
4
 74
0
 40
0
 40
0
 40
0
 40
0
 40
1
 40
1
 40
1
 40
1
 10
243.478473
 20
209.745580
 30
0.0
 10
243.478473
 20
210.850480
 30
0.0
 10
242.583547
 20
211.745407
 30
0.0
 10
241.478647
 20
211.745407
 30
0.0
  0
SPLINE
  5
180
100
AcDbEntity
  8
0
 62
4
100
AcDbSpline
 70
8
 71
3
 72
8
 73
4
 74
0
 40
0
 40
0
 40
0
 40
0
 40
1
 40
1
 40
1
 40
1
 10
241.478647
 20
211.745407
 30
0.0
 10
239.662547
 20
211.745407
 30
0.0
 10
236.998087
 20
211.745407
 30
0.0
 10
235.181987
 20
211.745407
 30
0.0
  0
LWPOLYLINE
  5
181
100
AcDbEntity
  8
0
 62
4
100
AcDbPolyline
 90
5
 70
1
 10
190.225680
 20
135.294793
 30
0.0
 10
193.136520
 20
148.989627
 30
0.0
 10
179.441687
 20
151.900467
 30
0.0
 10
176.530847
 20
138.205633
 30
0.0
 10
190.225680
 20
135.294793
 30
0.0
  0
LWPOLYLINE
  5
182
100
AcDbEntity
  8
0
 62
4
100
AcDbPolyline
 90
1
 70
1
 10
235.181987
 20
211.745407
 30
0.0
  0
SPLINE
  5
183
100
AcDbEntity
  8
0
 62
4
100
AcDbSpline
 70
8
 71
3
 72
8
 73
4
 74
0
 40
0
 40
0
 40
0
 40
0
 40
1
 40
1
 40
1
 40
1
 10
222.176340
 20
145.299007
 30
0.0
 10
222.062040
 20
144.759680
 30
0.0
 10
221.530333
 20
144.414240
 30
0.0
 10
220.990160
 20
144.528540
 30
0.0
  0
SPLINE
  5
184
100
AcDbEntity
  8
0
 62
4
100
AcDbSpline
 70
8
 71
3
 72
8
 73
4
 74
0
 40
0
 40
0
 40
0
 40
0
 40
1
 40
1
 40
1
 40
1
 10
220.990160
 20
144.528540
 30
0.0
 10
220.449987
 20
144.643687
 30
0.0
 10
220.105393
 20
145.175393
 30
0.0
 10
220.219693
 20
145.714720
 30
0.0
  0
SPLINE
  5
185
100
AcDbEntity
  8
0
 62
4
100
AcDbSpline
 70
8
 71
3
 72
8
 73
4
 74
0
 40
0
 40
0
 40
0
 40
0
 40
1
 40
1
 40
1
 40
1
 10
220.219693
 20
145.714720
 30
0.0
 10
220.334840
 20
146.254893
 30
0.0
 10
220.866547
 20
146.600333
 30
0.0
 10
221.405873
 20
146.485187
 30
0.0
  0
SPLINE
  5
186
100
AcDbEntity
  8
0
 62
4
100
AcDbSpline
 70
8
 71
3
 72
8
 73
4
 74
0
 40
0
 40
0
 40
0
 40
0
 40
1
 40
1
 40
1
 40
1
 10
221.405873
 20
146.485187
 30
0.0
 10
221.946047
 20
146.370040
 30
0.0
 10
222.291487
 20
145.839180
 30
0.0
 10
222.176340
 20
145.299007
 30
0.0
  0
LWPOLYLINE
  5
187
100
AcDbEntity
  8
0
 62
4
100
AcDbPolyline
 90
5
 70
1
 10
171.592240
 20
139.255500
 30
0.0
 10
174.503080
 20
152.949487
 30
0.0
 10
160.808247
 20
155.861173
 30
0.0
 10
157.897407
 20
142.166340
 30
0.0
 10
171.592240
 20
139.255500
 30
0.0
  0
LWPOLYLINE
  5
188
100
AcDbEntity
  8
0
 62
4
100
AcDbPolyline
 90
1
 70
1
 10
222.176340
 20
145.299007
 30
0.0
  0
SPLINE
  5
189
100
AcDbEntity
  8
0
 62
4
100
AcDbSpline
 70
8
 71
3
 72
8
 73
4
 74
0
 40
0
 40
0
 40
0
 40
0
 40
1
 40
1
 40
1
 40
1
 10
128.358053
 20
212.360933
 30
0.0
 10
128.358053
 20
212.891793
 30
0.0
 10
128.147233
 20
213.399793
 30
0.0
 10
127.772160
 20
213.774867
 30
0.0
  0
SPLINE
  5
18a
100
AcDbEntity
  8
0
 62
4
100
AcDbSpline
 70
8
 71
3
 72
8
 73
4
 74
0
 40
0
 40
0
 40
0
 40
0
 40
1
 40
1
 40
1
 40
1
 10
127.772160
 20
213.774867
 30
0.0
 10
127.397087
 20
214.149940
 30
0.0
 10
126.888240
 20
214.360760
 30
0.0
 10
126.358227
 20
214.360760
 30
0.0
  0
SPLINE
  5
18b
100
AcDbEntity
  8
0
 62
4
100
AcDbSpline
 70
8
 71
3
 72
8
 73
4
 74
0
 40
0
 40
0
 40
0
 40
0
 40
1
 40
1
 40
1
 40
1
 10
126.358227
 20
214.360760
 30
0.0
 10
123.227253
 20
214.360760
 30
0.0
 10
117.205760
 20
214.360760
 30
0.0
 10
114.075633
 20
214.360760
 30
0.0
  0
SPLINE
  5
18c
100
AcDbEntity
  8
0
 62
4
100
AcDbSpline
 70
8
 71
3
 72
8
 73
4
 74
0
 40
0
 40
0
 40
0
 40
0
 40
1
 40
1
 40
1
 40
1
 10
114.075633
 20
214.360760
 30
0.0
 10
113.544773
 20
214.360760
 30
0.0
 10
113.035927
 20
214.149940
 30
0.0
 10
112.660853
 20
213.774867
 30
0.0
  0
SPLINE
  5
18d
100
AcDbEntity
  8
0
 62
4
100
AcDbSpline
 70
8
 71
3
 72
8
 73
4
 74
0
 40
0
 40
0
 40
0
 40
0
 40
1
 40
1
 40
1
 40
1
 10
112.660853
 20
213.774867
 30
0.0
 10
112.285780
 20
213.399793
 30
0.0
 10
112.074960
 20
212.891793
 30
0.0
 10
112.074960
 20
212.360933
 30
0.0
  0
LWPOLYLINE
  5
18e
100
AcDbEntity
  8
0
 62
4
100
AcDbPolyline
 90
5
 70
1
 10
229.123240
 20
146.502120
 30
0.0
 10
232.034080
 20
160.196953
 30
0.0
 10
218.339247
 20
163.107793
 30
0.0
 10
215.428407
 20
149.412960
 30
0.0
 10
229.123240
 20
146.502120
 30
0.0
  0
SPLINE
  5
18f
100
AcDbEntity
  8
0
 62
4
100
AcDbSpline
 70
8
 71
3
 72
8
 73
4
 74
0
 40
0
 40
0
 40
0
 40
0
 40
1
 40
1
 40
1
 40
1
 10
112.074960
 20
148.255567
 30
0.0
 10
112.074960
 20
147.724707
 30
0.0
 10
112.285780
 20
147.216707
 30
0.0
 10
112.660853
 20
146.840787
 30
0.0
  0
SPLINE
  5
190
100
AcDbEntity
  8
0
 62
4
100
AcDbSpline
 70
8
 71
3
 72
8
 73
4
 74
0
 40
0
 40
0
 40
0
 40
0
 40
1
 40
1
 40
1
 40
1
 10
112.660853
 20
146.840787
 30
0.0
 10
113.035927
 20
146.465713
 30
0.0
 10
113.544773
 20
146.255740
 30
0.0
 10
114.075633
 20
146.255740
 30
0.0
  0
SPLINE
  5
191
100
AcDbEntity
  8
0
 62
4
100
AcDbSpline
 70
8
 71
3
 72
8
 73
4
 74
0
 40
0
 40
0
 40
0
 40
0
 40
1
 40
1
 40
1
 40
1
 10
114.075633
 20
146.255740
 30
0.0
 10
117.430973
 20
146.255740
 30
0.0
 10
124.155200
 20
146.255740
 30
0.0
 10
127.511387
 20
146.255740
 30
0.0
  0
SPLINE
  5
192
100
AcDbEntity
  8
0
 62
4
100
AcDbSpline
 70
8
 71
3
 72
8
 73
4
 74
0
 40
0
 40
0
 40
0
 40
0
 40
1
 40
1
 40
1
 40
1
 10
127.511387
 20
146.255740
 30
0.0
 10
128.615440
 20
146.255740
 30
0.0
 10
129.511213
 20
147.150667
 30
0.0
 10
129.511213
 20
148.255567
 30
0.0
  0
SPLINE
  5
193
100
AcDbEntity
  8
0
 62
4
100
AcDbSpline
 70
8
 71
3
 72
8
 73
4
 74
0
 40
0
 40
0
 40
0
 40
0
 40
1
 40
1
 40
1
 40
1
 10
129.511213
 20
148.255567
 30
0.0
 10
129.511213
 20
152.775920
 30
0.0
 10
129.511213
 20
164.392187
 30
0.0
 10
129.511213
 20
164.392187
 30
0.0
  0
SPLINE
  5
194
100
AcDbEntity
  8
0
 62
4
100
AcDbSpline
 70
8
 71
3
 72
8
 73
4
 74
0
 40
0
 40
0
 40
0
 40
0
 40
1
 40
1
 40
1
 40
1
 10
129.511213
 20
164.392187
 30
0.0
 10
129.511213
 20
164.399807
 30
0.0
 10
129.510367
 20
164.407427
 30
0.0
 10
129.509520
 20
164.414200
 30
0.0
  0
SPLINE
  5
195
100
AcDbEntity
  8
0
 62
4
100
AcDbSpline
 70
8
 71
3
 72
8
 73
4
 74
0
 40
0
 40
0
 40
0
 40
0
 40
1
 40
1
 40
1
 40
1
 10
129.509520
 20
164.414200
 30
0.0
 10
129.464647
 20
164.743553
 30
0.0
 10
128.404620
 20
172.462613
 30
0.0
 10
128.359747
 20
172.791967
 30
0.0
  0
SPLINE
  5
196
100
AcDbEntity
  8
0
 62
4
100
AcDbSpline
 70
8
 71
3
 72
8
 73
4
 74
0
 40
0
 40
0
 40
0
 40
0
 40
1
 40
1
 40
1
 40
1
 10
128.359747
 20
172.791967
 30
0.0
 10
128.358900
 20
172.799587
 30
0.0
 10
128.358053
 20
172.806360
 30
0.0
 10
128.358053
 20
172.813980
 30
0.0
  0
SPLINE
  5
197
100
AcDbEntity
  8
0
 62
4
100
AcDbSpline
 70
8
 71
3
 72
8
 73
4
 74
0
 40
0
 40
0
 40
0
 40
0
 40
1
 40
1
 40
1
 40
1
 10
128.358053
 20
172.813980
 30
0.0
 10
128.358053
 20
172.813980
 30
0.0
 10
128.358053
 20
204.195680
 30
0.0
 10
128.358053
 20
212.360933
 30
0.0
  0
LWPOLYLINE
  5
198
100
AcDbEntity
  8
0
 62
4
100
AcDbPolyline
 90
2
 70
0
 10
112.074960
 20
212.360933
 30
0.0
 10
112.074960
 20
148.255567
 30
0.0
  0
SPLINE
  5
199
100
AcDbEntity
  8
0
 62
4
100
AcDbSpline
 70
8
 71
3
 72
8
 73
4
 74
0
 40
0
 40
0
 40
0
 40
0
 40
1
 40
1
 40
1
 40
1
 10
142.305193
 20
148.253873
 30
0.0
 10
142.190893
 20
147.713700
 30
0.0
 10
141.659187
 20
147.369107
 30
0.0
 10
141.119013
 20
147.483407
 30
0.0
  0
SPLINE
  5
19a
100
AcDbEntity
  8
0
 62
4
100
AcDbSpline
 70
8
 71
3
 72
8
 73
4
 74
0
 40
0
 40
0
 40
0
 40
0
 40
1
 40
1
 40
1
 40
1
 10
141.119013
 20
147.483407
 30
0.0
 10
140.579687
 20
147.598553
 30
0.0
 10
140.234247
 20
148.130260
 30
0.0
 10
140.349393
 20
148.669587
 30
0.0
  0
SPLINE
  5
19b
100
AcDbEntity
  8
0
 62
4
100
AcDbSpline
 70
8
 71
3
 72
8
 73
4
 74
0
 40
0
 40
0
 40
0
 40
0
 40
1
 40
1
 40
1
 40
1
 10
140.349393
 20
148.669587
 30
0.0
 10
140.463693
 20
149.209760
 30
0.0
 10
140.995400
 20
149.554353
 30
0.0
 10
141.534727
 20
149.440053
 30
0.0
  0
SPLINE
  5
19c
100
AcDbEntity
  8
0
 62
4
100
AcDbSpline
 70
8
 71
3
 72
8
 73
4
 74
0
 40
0
 40
0
 40
0
 40
0
 40
1
 40
1
 40
1
 40
1
 10
141.534727
 20
149.440053
 30
0.0
 10
142.074900
 20
149.324907
 30
0.0
 10
142.420340
 20
148.794047
 30
0.0
 10
142.305193
 20
148.253873
 30
0.0
  0
LWPOLYLINE
  5
19d
100
AcDbEntity
  8
0
 62
4
100
AcDbPolyline
 90
1
 70
1
 10
128.358053
 20
212.360933
 30
0.0
  0
LWPOLYLINE
  5
19e
100
AcDbEntity
  8
0
 62
4
100
AcDbPolyline
 90
1
 70
1
 10
142.305193
 20
148.253873
 30
0.0
  0
LWPOLYLINE
  5
19f
100
AcDbEntity
  8
0
 62
4
100
AcDbPolyline
 90
5
 70
1
 10
210.489800
 20
150.462827
 30
0.0
 10
213.400640
 20
164.157660
 30
0.0
 10
199.705807
 20
167.068500
 30
0.0
 10
196.794967
 20
153.373667
 30
0.0
 10
210.489800
 20
150.462827
 30
0.0
  0
LWPOLYLINE
  5
1a0
100
AcDbEntity
  8
0
 62
4
100
AcDbPolyline
 90
5
 70
1
 10
149.785493
 20
151.195193
 30
0.0
 10
152.696333
 20
164.890027
 30
0.0
 10
139.001500
 20
167.800867
 30
0.0
 10
136.090660
 20
154.106033
 30
0.0
 10
149.785493
 20
151.195193
 30
0.0
  0
LWPOLYLINE
  5
1a1
100
AcDbEntity
  8
0
 62
4
100
AcDbPolyline
 90
5
 70
1
 10
191.855513
 20
154.423533
 30
0.0
 10
194.766353
 20
168.118367
 30
0.0
 10
181.072367
 20
171.029207
 30
0.0
 10
178.161527
 20
157.334373
 30
0.0
 10
191.855513
 20
154.423533
 30
0.0
  0
LWPOLYLINE
  5
1a2
100
AcDbEntity
  8
0
 62
4
100
AcDbPolyline
 90
5
 70
1
 10
173.222073
 20
158.384240
 30
0.0
 10
176.132913
 20
172.079073
 30
0.0
 10
162.438927
 20
174.989913
 30
0.0
 10
159.528087
 20
161.295080
 30
0.0
 10
173.222073
 20
158.384240
 30
0.0
  0
LWPOLYLINE
  5
1a3
100
AcDbEntity
  8
0
 62
4
100
AcDbPolyline
 90
5
 70
1
 10
221.432967
 20
167.612060
 30
0.0
 10
224.343807
 20
181.306893
 30
0.0
 10
210.649820
 20
184.217733
 30
0.0
 10
207.738980
 20
170.522900
 30
0.0
 10
221.432967
 20
167.612060
 30
0.0
  0
LWPOLYLINE
  5
1a4
100
AcDbEntity
  8
0
 62
4
100
AcDbPolyline
 90
5
 70
1
 10
202.799527
 20
171.572767
 30
0.0
 10
205.710367
 20
185.267600
 30
0.0
 10
192.015533
 20
188.178440
 30
0.0
 10
189.104693
 20
174.483607
 30
0.0
 10
202.799527
 20
171.572767
 30
0.0
  0
LWPOLYLINE
  5
1a5
100
AcDbEntity
  8
0
 62
4
100
AcDbPolyline
 90
5
 70
1
 10
184.166087
 20
175.533473
 30
0.0
 10
187.076927
 20
189.228307
 30
0.0
 10
173.382093
 20
192.139147
 30
0.0
 10
170.471253
 20
178.444313
 30
0.0
 10
184.166087
 20
175.533473
 30
0.0
  0
LWPOLYLINE
  5
1a6
100
AcDbEntity
  8
0
 62
4
100
AcDbPolyline
 90
5
 70
1
 10
165.531800
 20
179.494180
 30
0.0
 10
168.442640
 20
193.189013
 30
0.0
 10
154.748653
 20
196.099853
 30
0.0
 10
151.837813
 20
182.405020
 30
0.0
 10
165.531800
 20
179.494180
 30
0.0
  0
LWPOLYLINE
  5
1a7
100
AcDbEntity
  8
0
 62
4
100
AcDbPolyline
 90
13
 70
1
 10
145.433627
 20
209.824320
 30
0.0
 10
145.433627
 20
189.334140
 30
0.0
 10
146.613880
 20
189.334140
 30
0.0
 10
146.613880
 20
186.034680
 30
0.0
 10
145.433627
 20
186.034680
 30
0.0
 10
145.433627
 20
183.045100
 30
0.0
 10
131.430607
 20
183.045100
 30
0.0
 10
131.430607
 20
223.245680
 30
0.0
 10
145.433627
 20
223.245680
 30
0.0
 10
145.433627
 20
213.124627
 30
0.0
 10
146.613880
 20
213.124627
 30
0.0
 10
146.613880
 20
209.824320
 30
0.0
 10
145.433627
 20
209.824320
 30
0.0
  0
LWPOLYLINE
  5
1a8
100
AcDbEntity
  8
0
 62
4
100
AcDbPolyline
 90
5
 70
1
 10
220.735313
 20
187.236100
 30
0.0
 10
223.646153
 20
200.930933
 30
0.0
 10
209.952167
 20
203.841773
 30
0.0
 10
207.041327
 20
190.146940
 30
0.0
 10
220.735313
 20
187.236100
 30
0.0
  0
SPLINE
  5
1a9
100
AcDbEntity
  8
0
 62
4
100
AcDbSpline
 70
8
 71
3
 72
8
 73
4
 74
0
 40
0
 40
0
 40
0
 40
0
 40
1
 40
1
 40
1
 40
1
 10
179.269813
 20
199.991980
 30
0.0
 10
179.155513
 20
199.451807
 30
0.0
 10
178.623807
 20
199.107213
 30
0.0
 10
178.083633
 20
199.221513
 30
0.0
  0
SPLINE
  5
1aa
100
AcDbEntity
  8
0
 62
4
100
AcDbSpline
 70
8
 71
3
 72
8
 73
4
 74
0
 40
0
 40
0
 40
0
 40
0
 40
1
 40
1
 40
1
 40
1
 10
178.083633
 20
199.221513
 30
0.0
 10
177.544307
 20
199.336660
 30
0.0
 10
177.198867
 20
199.868367
 30
0.0
 10
177.314013
 20
200.407693
 30
0.0
  0
SPLINE
  5
1ab
100
AcDbEntity
  8
0
 62
4
100
AcDbSpline
 70
8
 71
3
 72
8
 73
4
 74
0
 40
0
 40
0
 40
0
 40
0
 40
1
 40
1
 40
1
 40
1
 10
177.314013
 20
200.407693
 30
0.0
 10
177.428313
 20
200.947867
 30
0.0
 10
177.960020
 20
201.292460
 30
0.0
 10
178.500193
 20
201.178160
 30
0.0
  0
SPLINE
  5
1ac
100
AcDbEntity
  8
0
 62
4
100
AcDbSpline
 70
8
 71
3
 72
8
 73
4
 74
0
 40
0
 40
0
 40
0
 40
0
 40
1
 40
1
 40
1
 40
1
 10
178.500193
 20
201.178160
 30
0.0
 10
179.039520
 20
201.063013
 30
0.0
 10
179.384960
 20
200.532153
 30
0.0
 10
179.269813
 20
199.991980
 30
0.0
  0
LWPOLYLINE
  5
1ad
100
AcDbEntity
  8
0
 62
4
100
AcDbPolyline
 90
5
 70
1
 10
203.091627
 20
195.855167
 30
0.0
 10
206.002467
 20
209.550000
 30
0.0
 10
192.308480
 20
212.460840
 30
0.0
 10
189.397640
 20
198.766007
 30
0.0
 10
203.091627
 20
195.855167
 30
0.0
  0
LWPOLYLINE
  5
1ae
100
AcDbEntity
  8
0
 62
4
100
AcDbPolyline
 90
1
 70
1
 10
179.269813
 20
199.991980
 30
0.0
  0
SPLINE
  5
1af
100
AcDbEntity
  8
0
 62
4
100
AcDbSpline
 70
8
 71
3
 72
8
 73
4
 74
0
 40
0
 40
0
 40
0
 40
0
 40
1
 40
1
 40
1
 40
1
 10
229.703207
 20
204.810360
 30
0.0
 10
229.703207
 20
205.363233
 30
0.0
 10
230.150247
 20
205.811967
 30
0.0
 10
230.703120
 20
205.811967
 30
0.0
  0
SPLINE
  5
1b0
100
AcDbEntity
  8
0
 62
4
100
AcDbSpline
 70
8
 71
3
 72
8
 73
4
 74
0
 40
0
 40
0
 40
0
 40
0
 40
1
 40
1
 40
1
 40
1
 10
230.703120
 20
205.811967
 30
0.0
 10
231.255147
 20
205.811967
 30
0.0
 10
231.703033
 20
205.363233
 30
0.0
 10
231.703033
 20
204.810360
 30
0.0
  0
SPLINE
  5
1b1
100
AcDbEntity
  8
0
 62
4
100
AcDbSpline
 70
8
 71
3
 72
8
 73
4
 74
0
 40
0
 40
0
 40
0
 40
0
 40
1
 40
1
 40
1
 40
1
 10
231.703033
 20
204.810360
 30
0.0
 10
231.703033
 20
204.260873
 30
0.0
 10
231.255147
 20
203.812140
 30
0.0
 10
230.703120
 20
203.812140
 30
0.0
  0
SPLINE
  5
1b2
100
AcDbEntity
  8
0
 62
4
100
AcDbSpline
 70
8
 71
3
 72
8
 73
4
 74
0
 40
0
 40
0
 40
0
 40
0
 40
1
 40
1
 40
1
 40
1
 10
230.703120
 20
203.812140
 30
0.0
 10
230.150247
 20
203.812140
 30
0.0
 10
229.703207
 20
204.260873
 30
0.0
 10
229.703207
 20
204.810360
 30
0.0
  0
LWPOLYLINE
  5
1b3
100
AcDbEntity
  8
0
 62
4
100
AcDbPolyline
 90
5
 70
1
 10
184.953487
 20
202.146747
 30
0.0
 10
187.863480
 20
215.834807
 30
0.0
 10
174.168647
 20
218.745647
 30
0.0
 10
171.259500
 20
205.057587
 30
0.0
 10
184.953487
 20
202.146747
 30
0.0
  0
LWPOLYLINE
  5
1b4
100
AcDbEntity
  8
0
 62
4
100
AcDbPolyline
 90
1
 70
1
 10
229.703207
 20
204.810360
 30
0.0
  0
LWPOLYLINE
  5
1b5
100
AcDbEntity
  8
0
 62
4
100
AcDbPolyline
 90
5
 70
1
 10
224.696020
 20
205.869540
 30
0.0
 10
227.606860
 20
219.564373
 30
0.0
 10
213.912873
 20
222.475213
 30
0.0
 10
211.002033
 20
208.780380
 30
0.0
 10
224.696020
 20
205.869540
 30
0.0
  0
SPLINE
  5
1b6
100
AcDbEntity
  8
0
 62
4
100
AcDbSpline
 70
8
 71
3
 72
8
 73
4
 74
0
 40
0
 40
0
 40
0
 40
0
 40
1
 40
1
 40
1
 40
1
 10
235.098167
 20
249.947853
 30
0.0
 10
233.993267
 20
249.947853
 30
0.0
 10
233.098340
 20
249.052080
 30
0.0
 10
233.098340
 20
247.948027
 30
0.0
  0
SPLINE
  5
1b7
100
AcDbEntity
  8
0
 62
4
100
AcDbSpline
 70
8
 71
3
 72
8
 73
4
 74
0
 40
0
 40
0
 40
0
 40
0
 40
1
 40
1
 40
1
 40
1
 10
233.098340
 20
247.948027
 30
0.0
 10
233.098340
 20
244.110933
 30
0.0
 10
233.098340
 20
235.093933
 30
0.0
 10
233.098340
 20
235.093933
 30
0.0
  0
SPLINE
  5
1b8
100
AcDbEntity
  8
0
 62
4
100
AcDbSpline
 70
8
 71
3
 72
8
 73
4
 74
0
 40
0
 40
0
 40
0
 40
0
 40
1
 40
1
 40
1
 40
1
 10
233.098340
 20
235.093933
 30
0.0
 10
233.098340
 20
235.051600
 30
0.0
 10
233.081407
 20
235.010960
 30
0.0
 10
233.051773
 20
234.980480
 30
0.0
  0
SPLINE
  5
1b9
100
AcDbEntity
  8
0
 62
4
100
AcDbSpline
 70
8
 71
3
 72
8
 73
4
 74
0
 40
0
 40
0
 40
0
 40
0
 40
1
 40
1
 40
1
 40
1
 10
233.051773
 20
234.980480
 30
0.0
 10
233.021293
 20
234.950847
 30
0.0
 10
232.980653
 20
234.933913
 30
0.0
 10
232.938320
 20
234.933913
 30
0.0
  0
SPLINE
  5
1ba
100
AcDbEntity
  8
0
 62
4
100
AcDbSpline
 70
8
 71
3
 72
8
 73
4
 74
0
 40
0
 40
0
 40
0
 40
0
 40
1
 40
1
 40
1
 40
1
 10
232.938320
 20
234.933913
 30
0.0
 10
231.166247
 20
234.933913
 30
0.0
 10
215.237060
 20
234.933913
 30
0.0
 10
213.464987
 20
234.933913
 30
0.0
  0
SPLINE
  5
1bb
100
AcDbEntity
  8
0
 62
4
100
AcDbSpline
 70
8
 71
3
 72
8
 73
4
 74
0
 40
0
 40
0
 40
0
 40
0
 40
1
 40
1
 40
1
 40
1
 10
213.464987
 20
234.933913
 30
0.0
 10
213.376087
 20
234.933913
 30
0.0
 10
213.304967
 20
235.005880
 30
0.0
 10
213.304967
 20
235.093933
 30
0.0
  0
SPLINE
  5
1bc
100
AcDbEntity
  8
0
 62
4
100
AcDbSpline
 70
8
 71
3
 72
8
 73
4
 74
0
 40
0
 40
0
 40
0
 40
0
 40
1
 40
1
 40
1
 40
1
 10
213.304967
 20
235.093933
 30
0.0
 10
213.304967
 20
236.033733
 30
0.0
 10
213.304967
 20
240.826713
 30
0.0
 10
213.304967
 20
241.766513
 30
0.0
  0
SPLINE
  5
1bd
100
AcDbEntity
  8
0
 62
4
100
AcDbSpline
 70
8
 71
3
 72
8
 73
4
 74
0
 40
0
 40
0
 40
0
 40
0
 40
1
 40
1
 40
1
 40
1
 10
213.304967
 20
241.766513
 30
0.0
 10
213.304967
 20
241.855413
 30
0.0
 10
213.233000
 20
241.926533
 30
0.0
 10
213.144947
 20
241.926533
 30
0.0
  0
LWPOLYLINE
  5
1be
100
AcDbEntity
  8
0
 62
4
100
AcDbPolyline
 90
5
 70
1
 10
166.319200
 20
206.104913
 30
0.0
 10
169.230040
 20
219.798900
 30
0.0
 10
155.536053
 20
222.709740
 30
0.0
 10
152.625213
 20
209.015753
 30
0.0
 10
166.319200
 20
206.104913
 30
0.0
  0
SPLINE
  5
1bf
100
AcDbEntity
  8
0
 62
4
100
AcDbSpline
 70
8
 71
3
 72
8
 73
4
 74
0
 40
0
 40
0
 40
0
 40
0
 40
1
 40
1
 40
1
 40
1
 10
190.927567
 20
241.926533
 30
0.0
 10
190.916560
 20
241.926533
 30
0.0
 10
190.905553
 20
241.925687
 30
0.0
 10
190.894547
 20
241.923147
 30
0.0
  0
SPLINE
  5
1c0
100
AcDbEntity
  8
0
 62
4
100
AcDbSpline
 70
8
 71
3
 72
8
 73
4
 74
0
 40
0
 40
0
 40
0
 40
0
 40
1
 40
1
 40
1
 40
1
 10
190.894547
 20
241.923147
 30
0.0
 10
190.453433
 20
241.830013
 30
0.0
 10
181.229000
 20
239.875907
 30
0.0
 10
180.787040
 20
239.781927
 30
0.0
  0
SPLINE
  5
1c1
100
AcDbEntity
  8
0
 62
4
100
AcDbSpline
 70
8
 71
3
 72
8
 73
4
 74
0
 40
0
 40
0
 40
0
 40
0
 40
1
 40
1
 40
1
 40
1
 10
180.787040
 20
239.781927
 30
0.0
 10
180.776880
 20
239.779387
 30
0.0
 10
180.765873
 20
239.778540
 30
0.0
 10
180.754020
 20
239.778540
 30
0.0
  0
SPLINE
  5
1c2
100
AcDbEntity
  8
0
 62
4
100
AcDbSpline
 70
8
 71
3
 72
8
 73
4
 74
0
 40
0
 40
0
 40
0
 40
0
 40
1
 40
1
 40
1
 40
1
 10
180.754020
 20
239.778540
 30
0.0
 10
179.742253
 20
239.778540
 30
0.0
 10
133.260253
 20
239.778540
 30
0.0
 10
130.484033
 20
239.778540
 30
0.0
  0
SPLINE
  5
1c3
100
AcDbEntity
  8
0
 62
4
100
AcDbSpline
 70
8
 71
3
 72
8
 73
4
 74
0
 40
0
 40
0
 40
0
 40
0
 40
1
 40
1
 40
1
 40
1
 10
130.484033
 20
239.778540
 30
0.0
 10
130.408680
 20
239.778540
 30
0.0
 10
130.343487
 20
239.831033
 30
0.0
 10
130.327400
 20
239.905540
 30
0.0
  0
SPLINE
  5
1c4
100
AcDbEntity
  8
0
 62
4
100
AcDbSpline
 70
8
 71
3
 72
8
 73
4
 74
0
 40
0
 40
0
 40
0
 40
0
 40
1
 40
1
 40
1
 40
1
 10
130.327400
 20
239.905540
 30
0.0
 10
129.991273
 20
241.485420
 30
0.0
 10
126.619847
 20
258.321387
 30
0.0
 10
126.495387
 20
258.903893
 30
0.0
  0
SPLINE
  5
1c5
100
AcDbEntity
  8
0
 62
4
100
AcDbSpline
 70
8
 71
3
 72
8
 73
4
 74
0
 40
0
 40
0
 40
0
 40
0
 40
1
 40
1
 40
1
 40
1
 10
126.495387
 20
258.903893
 30
0.0
 10
126.492847
 20
258.914900
 30
0.0
 10
126.492000
 20
258.925907
 30
0.0
 10
126.492000
 20
258.936913
 30
0.0
  0
LWPOLYLINE
  5
1c6
100
AcDbEntity
  8
0
 62
4
100
AcDbPolyline
 90
2
 70
0
 10
213.144947
 20
241.926533
 30
0.0
 10
190.927567
 20
241.926533
 30
0.0
  0
SPLINE
  5
1c7
100
AcDbEntity
  8
0
 62
4
100
AcDbSpline
 70
8
 71
3
 72
8
 73
4
 74
0
 40
0
 40
0
 40
0
 40
0
 40
1
 40
1
 40
1
 40
1
 10
126.492000
 20
259.012267
 30
0.0
 10
126.492000
 20
260.117167
 30
0.0
 10
125.596227
 20
261.012093
 30
0.0
 10
124.492173
 20
261.012093
 30
0.0
  0
LWPOLYLINE
  5
1c8
100
AcDbEntity
  8
0
 62
4
100
AcDbPolyline
 90
2
 70
0
 10
126.492000
 20
258.936913
 30
0.0
 10
126.492000
 20
259.012267
 30
0.0
  0
SPLINE
  5
1c9
100
AcDbEntity
  8
0
 62
4
100
AcDbSpline
 70
8
 71
3
 72
8
 73
4
 74
0
 40
0
 40
0
 40
0
 40
0
 40
1
 40
1
 40
1
 40
1
 10
114.075633
 20
261.012093
 30
0.0
 10
112.970733
 20
261.012093
 30
0.0
 10
112.074960
 20
260.117167
 30
0.0
 10
112.074960
 20
259.012267
 30
0.0
  0
SPLINE
  5
1ca
100
AcDbEntity
  8
0
 62
4
100
AcDbSpline
 70
8
 71
3
 72
8
 73
4
 74
0
 40
0
 40
0
 40
0
 40
0
 40
1
 40
1
 40
1
 40
1
 10
112.074960
 20
259.012267
 30
0.0
 10
112.074960
 20
252.359160
 30
0.0
 10
112.074960
 20
229.014867
 30
0.0
 10
112.074960
 20
222.360913
 30
0.0
  0
SPLINE
  5
1cb
100
AcDbEntity
  8
0
 62
4
100
AcDbSpline
 70
8
 71
3
 72
8
 73
4
 74
0
 40
0
 40
0
 40
0
 40
0
 40
1
 40
1
 40
1
 40
1
 10
112.074960
 20
222.360913
 30
0.0
 10
112.074960
 20
221.256013
 30
0.0
 10
112.970733
 20
220.361087
 30
0.0
 10
114.075633
 20
220.361087
 30
0.0
  0
SPLINE
  5
1cc
100
AcDbEntity
  8
0
 62
4
100
AcDbSpline
 70
8
 71
3
 72
8
 73
4
 74
0
 40
0
 40
0
 40
0
 40
0
 40
1
 40
1
 40
1
 40
1
 10
114.075633
 20
220.361087
 30
0.0
 10
117.205760
 20
220.361087
 30
0.0
 10
123.227253
 20
220.361087
 30
0.0
 10
126.358227
 20
220.361087
 30
0.0
  0
SPLINE
  5
1cd
100
AcDbEntity
  8
0
 62
4
100
AcDbSpline
 70
8
 71
3
 72
8
 73
4
 74
0
 40
0
 40
0
 40
0
 40
0
 40
1
 40
1
 40
1
 40
1
 10
126.358227
 20
220.361087
 30
0.0
 10
126.888240
 20
220.361087
 30
0.0
 10
127.397087
 20
220.571907
 30
0.0
 10
127.772160
 20
220.946980
 30
0.0
  0
SPLINE
  5
1ce
100
AcDbEntity
  8
0
 62
4
100
AcDbSpline
 70
8
 71
3
 72
8
 73
4
 74
0
 40
0
 40
0
 40
0
 40
0
 40
1
 40
1
 40
1
 40
1
 10
127.772160
 20
220.946980
 30
0.0
 10
128.147233
 20
221.322053
 30
0.0
 10
128.358053
 20
221.830900
 30
0.0
 10
128.358053
 20
222.360913
 30
0.0
  0
SPLINE
  5
1cf
100
AcDbEntity
  8
0
 62
4
100
AcDbSpline
 70
8
 71
3
 72
8
 73
4
 74
0
 40
0
 40
0
 40
0
 40
0
 40
1
 40
1
 40
1
 40
1
 10
128.358053
 20
222.360913
 30
0.0
 10
128.358053
 20
223.829880
 30
0.0
 10
128.358053
 20
226.571387
 30
0.0
 10
128.358053
 20
226.571387
 30
0.0
  0
SPLINE
  5
1d0
100
AcDbEntity
  8
0
 62
4
100
AcDbSpline
 70
8
 71
3
 72
8
 73
4
 74
0
 40
0
 40
0
 40
0
 40
0
 40
1
 40
1
 40
1
 40
1
 10
128.358053
 20
226.571387
 30
0.0
 10
128.358053
 20
226.584087
 30
0.0
 10
128.359747
 20
226.596787
 30
0.0
 10
128.362287
 20
226.608640
 30
0.0
  0
SPLINE
  5
1d1
100
AcDbEntity
  8
0
 62
4
100
AcDbSpline
 70
8
 71
3
 72
8
 73
4
 74
0
 40
0
 40
0
 40
0
 40
0
 40
1
 40
1
 40
1
 40
1
 10
128.362287
 20
226.608640
 30
0.0
 10
128.449493
 20
226.970167
 30
0.0
 10
129.788920
 20
232.565787
 30
0.0
 10
130.005667
 20
233.469180
 30
0.0
  0
SPLINE
  5
1d2
100
AcDbEntity
  8
0
 62
4
100
AcDbSpline
 70
8
 71
3
 72
8
 73
4
 74
0
 40
0
 40
0
 40
0
 40
0
 40
1
 40
1
 40
1
 40
1
 10
130.005667
 20
233.469180
 30
0.0
 10
130.022600
 20
233.541147
 30
0.0
 10
130.087793
 20
233.591947
 30
0.0
 10
130.161453
 20
233.591947
 30
0.0
  0
SPLINE
  5
1d3
100
AcDbEntity
  8
0
 62
4
100
AcDbSpline
 70
8
 71
3
 72
8
 73
4
 74
0
 40
0
 40
0
 40
0
 40
0
 40
1
 40
1
 40
1
 40
1
 10
130.161453
 20
233.591947
 30
0.0
 10
132.043593
 20
233.591947
 30
0.0
 10
154.350720
 20
233.591947
 30
0.0
 10
155.050067
 20
233.591947
 30
0.0
  0
SPLINE
  5
1d4
100
AcDbEntity
  8
0
 62
4
100
AcDbSpline
 70
8
 71
3
 72
8
 73
4
 74
0
 40
0
 40
0
 40
0
 40
0
 40
1
 40
1
 40
1
 40
1
 10
155.050067
 20
233.591947
 30
0.0
 10
155.061073
 20
233.591947
 30
0.0
 10
155.072080
 20
233.590253
 30
0.0
 10
155.083087
 20
233.587713
 30
0.0
  0
SPLINE
  5
1d5
100
AcDbEntity
  8
0
 62
4
100
AcDbSpline
 70
8
 71
3
 72
8
 73
4
 74
0
 40
0
 40
0
 40
0
 40
0
 40
1
 40
1
 40
1
 40
1
 10
155.083087
 20
233.587713
 30
0.0
 10
155.971240
 20
233.399753
 30
0.0
 10
192.593807
 20
225.629893
 30
0.0
 10
193.478573
 20
225.442780
 30
0.0
  0
SPLINE
  5
1d6
100
AcDbEntity
  8
0
 62
4
100
AcDbSpline
 70
8
 71
3
 72
8
 73
4
 74
0
 40
0
 40
0
 40
0
 40
0
 40
1
 40
1
 40
1
 40
1
 10
193.478573
 20
225.442780
 30
0.0
 10
193.489580
 20
225.440240
 30
0.0
 10
193.500587
 20
225.438547
 30
0.0
 10
193.511593
 20
225.438547
 30
0.0
  0
SPLINE
  5
1d7
100
AcDbEntity
  8
0
 62
4
100
AcDbSpline
 70
8
 71
3
 72
8
 73
4
 74
0
 40
0
 40
0
 40
0
 40
0
 40
1
 40
1
 40
1
 40
1
 10
193.511593
 20
225.438547
 30
0.0
 10
194.090713
 20
225.437700
 30
0.0
 10
209.604187
 20
225.413147
 30
0.0
 10
210.411060
 20
225.411453
 30
0.0
  0
SPLINE
  5
1d8
100
AcDbEntity
  8
0
 62
4
100
AcDbSpline
 70
8
 71
3
 72
8
 73
4
 74
0
 40
0
 40
0
 40
0
 40
0
 40
1
 40
1
 40
1
 40
1
 10
210.411060
 20
225.411453
 30
0.0
 10
210.432227
 20
225.411453
 30
0.0
 10
210.453393
 20
225.415687
 30
0.0
 10
210.473713
 20
225.424153
 30
0.0
  0
SPLINE
  5
1d9
100
AcDbEntity
  8
0
 62
4
100
AcDbSpline
 70
8
 71
3
 72
8
 73
4
 74
0
 40
0
 40
0
 40
0
 40
0
 40
1
 40
1
 40
1
 40
1
 10
210.473713
 20
225.424153
 30
0.0
 10
210.845400
 20
225.581633
 30
0.0
 10
214.547873
 20
227.149660
 30
0.0
 10
214.918713
 20
227.307140
 30
0.0
  0
SPLINE
  5
1da
100
AcDbEntity
  8
0
 62
4
100
AcDbSpline
 70
8
 71
3
 72
8
 73
4
 74
0
 40
0
 40
0
 40
0
 40
0
 40
1
 40
1
 40
1
 40
1
 10
214.918713
 20
227.307140
 30
0.0
 10
214.938187
 20
227.315607
 30
0.0
 10
214.959353
 20
227.319840
 30
0.0
 10
214.980520
 20
227.319840
 30
0.0
  0
SPLINE
  5
1db
100
AcDbEntity
  8
0
 62
4
100
AcDbSpline
 70
8
 71
3
 72
8
 73
4
 74
0
 40
0
 40
0
 40
0
 40
0
 40
1
 40
1
 40
1
 40
1
 10
214.980520
 20
227.319840
 30
0.0
 10
215.785700
 20
227.319840
 30
0.0
 10
231.274620
 20
227.319840
 30
0.0
 10
233.021293
 20
227.319840
 30
0.0
  0
SPLINE
  5
1dc
100
AcDbEntity
  8
0
 62
4
100
AcDbSpline
 70
8
 71
3
 72
8
 73
4
 74
0
 40
0
 40
0
 40
0
 40
0
 40
1
 40
1
 40
1
 40
1
 10
233.021293
 20
227.319840
 30
0.0
 10
233.063627
 20
227.319840
 30
0.0
 10
233.105113
 20
227.302907
 30
0.0
 10
233.134747
 20
227.272427
 30
0.0
  0
SPLINE
  5
1dd
100
AcDbEntity
  8
0
 62
4
100
AcDbSpline
 70
8
 71
3
 72
8
 73
4
 74
0
 40
0
 40
0
 40
0
 40
0
 40
1
 40
1
 40
1
 40
1
 10
233.134747
 20
227.272427
 30
0.0
 10
233.164380
 20
227.242793
 30
0.0
 10
233.181313
 20
227.202153
 30
0.0
 10
233.181313
 20
227.159820
 30
0.0
  0
SPLINE
  5
1de
100
AcDbEntity
  8
0
 62
4
100
AcDbSpline
 70
8
 71
3
 72
8
 73
4
 74
0
 40
0
 40
0
 40
0
 40
0
 40
1
 40
1
 40
1
 40
1
 10
233.181313
 20
227.159820
 30
0.0
 10
233.181313
 20
227.159820
 30
0.0
 10
233.181313
 20
222.233913
 30
0.0
 10
233.181313
 20
219.745560
 30
0.0
  0
SPLINE
  5
1df
100
AcDbEntity
  8
0
 62
4
100
AcDbSpline
 70
8
 71
3
 72
8
 73
4
 74
0
 40
0
 40
0
 40
0
 40
0
 40
1
 40
1
 40
1
 40
1
 10
233.181313
 20
219.745560
 30
0.0
 10
233.181313
 20
219.214700
 30
0.0
 10
233.392133
 20
218.706700
 30
0.0
 10
233.767207
 20
218.331627
 30
0.0
  0
SPLINE
  5
1e0
100
AcDbEntity
  8
0
 62
4
100
AcDbSpline
 70
8
 71
3
 72
8
 73
4
 74
0
 40
0
 40
0
 40
0
 40
0
 40
1
 40
1
 40
1
 40
1
 10
233.767207
 20
218.331627
 30
0.0
 10
234.142280
 20
217.956553
 30
0.0
 10
234.651127
 20
217.745733
 30
0.0
 10
235.181987
 20
217.745733
 30
0.0
  0
LWPOLYLINE
  5
1e1
100
AcDbEntity
  8
0
 62
4
100
AcDbPolyline
 90
2
 70
0
 10
124.492173
 20
261.012093
 30
0.0
 10
114.075633
 20
261.012093
 30
0.0
  0
SPLINE
  5
1e2
100
AcDbEntity
  8
0
 62
4
100
AcDbSpline
 70
8
 71
3
 72
8
 73
4
 74
0
 40
0
 40
0
 40
0
 40
0
 40
1
 40
1
 40
1
 40
1
 10
241.478647
 20
217.745733
 30
0.0
 10
242.583547
 20
217.745733
 30
0.0
 10
243.478473
 20
218.640660
 30
0.0
 10
243.478473
 20
219.745560
 30
0.0
  0
SPLINE
  5
1e3
100
AcDbEntity
  8
0
 62
4
100
AcDbSpline
 70
8
 71
3
 72
8
 73
4
 74
0
 40
0
 40
0
 40
0
 40
0
 40
1
 40
1
 40
1
 40
1
 10
243.478473
 20
219.745560
 30
0.0
 10
243.478473
 20
225.230267
 30
0.0
 10
243.478473
 20
242.463320
 30
0.0
 10
243.478473
 20
247.948027
 30
0.0
  0
SPLINE
  5
1e4
100
AcDbEntity
  8
0
 62
4
100
AcDbSpline
 70
8
 71
3
 72
8
 73
4
 74
0
 40
0
 40
0
 40
0
 40
0
 40
1
 40
1
 40
1
 40
1
 10
243.478473
 20
247.948027
 30
0.0
 10
243.478473
 20
249.052080
 30
0.0
 10
242.583547
 20
249.947853
 30
0.0
 10
241.478647
 20
249.947853
 30
0.0
  0
SPLINE
  5
1e5
100
AcDbEntity
  8
0
 62
4
100
AcDbSpline
 70
8
 71
3
 72
8
 73
4
 74
0
 40
0
 40
0
 40
0
 40
0
 40
1
 40
1
 40
1
 40
1
 10
241.478647
 20
249.947853
 30
0.0
 10
239.642227
 20
249.947853
 30
0.0
 10
236.934587
 20
249.947853
 30
0.0
 10
235.098167
 20
249.947853
 30
0.0
  0
LWPOLYLINE
  5
1e6
100
AcDbEntity
  8
0
 62
4
100
AcDbPolyline
 90
2
 70
0
 10
235.181987
 20
217.745733
 30
0.0
 10
241.478647
 20
217.745733
 30
0.0
  0
SPLINE
  5
1e7
100
AcDbEntity
  8
0
 62
4
100
AcDbSpline
 70
8
 71
3
 72
8
 73
4
 74
0
 40
0
 40
0
 40
0
 40
0
 40
1
 40
1
 40
1
 40
1
 10
149.955673
 20
229.208753
 30
0.0
 10
149.955673
 20
229.762473
 30
0.0
 10
150.402713
 20
230.211207
 30
0.0
 10
150.955587
 20
230.211207
 30
0.0
  0
SPLINE
  5
1e8
100
AcDbEntity
  8
0
 62
4
100
AcDbSpline
 70
8
 71
3
 72
8
 73
4
 74
0
 40
0
 40
0
 40
0
 40
0
 40
1
 40
1
 40
1
 40
1
 10
150.955587
 20
230.211207
 30
0.0
 10
151.507613
 20
230.211207
 30
0.0
 10
151.955500
 20
229.762473
 30
0.0
 10
151.955500
 20
229.208753
 30
0.0
  0
SPLINE
  5
1e9
100
AcDbEntity
  8
0
 62
4
100
AcDbSpline
 70
8
 71
3
 72
8
 73
4
 74
0
 40
0
 40
0
 40
0
 40
0
 40
1
 40
1
 40
1
 40
1
 10
151.955500
 20
229.208753
 30
0.0
 10
151.955500
 20
228.659267
 30
0.0
 10
151.507613
 20
228.210533
 30
0.0
 10
150.955587
 20
228.210533
 30
0.0
  0
SPLINE
  5
1ea
100
AcDbEntity
  8
0
 62
4
100
AcDbSpline
 70
8
 71
3
 72
8
 73
4
 74
0
 40
0
 40
0
 40
0
 40
0
 40
1
 40
1
 40
1
 40
1
 10
150.955587
 20
228.210533
 30
0.0
 10
150.402713
 20
228.210533
 30
0.0
 10
149.955673
 20
228.659267
 30
0.0
 10
149.955673
 20
229.208753
 30
0.0
  0
LWPOLYLINE
  5
1eb
100
AcDbEntity
  8
0
 62
4
100
AcDbPolyline
 90
1
 70
1
 10
235.098167
 20
249.947853
 30
0.0
  0
LWPOLYLINE
  5
1ec
100
AcDbEntity
  8
0
 62
4
100
AcDbPolyline
 90
1
 70
1
 10
149.955673
 20
229.208753
 30
0.0
  0
LWPOLYLINE
  5
1ed
100
AcDbEntity
  8
0
 62
4
100
AcDbPolyline
 90
5
 70
1
 10
143.552333
 20
258.877647
 30
0.0
 10
146.463173
 20
245.182813
 30
0.0
 10
132.769187
 20
242.272820
 30
0.0
 10
129.858347
 20
255.966807
 30
0.0
 10
143.552333
 20
258.877647
 30
0.0
  0
SPLINE
  5
1ee
100
AcDbEntity
  8
0
 62
4
100
AcDbSpline
 70
8
 71
3
 72
8
 73
4
 74
0
 40
0
 40
0
 40
0
 40
0
 40
1
 40
1
 40
1
 40
1
 10
191.779313
 20
245.151487
 30
0.0
 10
191.779313
 20
244.597767
 30
0.0
 10
192.226353
 20
244.149880
 30
0.0
 10
192.779227
 20
244.149880
 30
0.0
  0
SPLINE
  5
1ef
100
AcDbEntity
  8
0
 62
4
100
AcDbSpline
 70
8
 71
3
 72
8
 73
4
 74
0
 40
0
 40
0
 40
0
 40
0
 40
1
 40
1
 40
1
 40
1
 10
192.779227
 20
244.149880
 30
0.0
 10
193.331253
 20
244.149880
 30
0.0
 10
193.779140
 20
244.597767
 30
0.0
 10
193.779140
 20
245.151487
 30
0.0
  0
SPLINE
  5
1f0
100
AcDbEntity
  8
0
 62
4
100
AcDbSpline
 70
8
 71
3
 72
8
 73
4
 74
0
 40
0
 40
0
 40
0
 40
0
 40
1
 40
1
 40
1
 40
1
 10
193.779140
 20
245.151487
 30
0.0
 10
193.779140
 20
245.700973
 30
0.0
 10
193.331253
 20
246.149707
 30
0.0
 10
192.779227
 20
246.149707
 30
0.0
  0
SPLINE
  5
1f1
100
AcDbEntity
  8
0
 62
4
100
AcDbSpline
 70
8
 71
3
 72
8
 73
4
 74
0
 40
0
 40
0
 40
0
 40
0
 40
1
 40
1
 40
1
 40
1
 10
192.779227
 20
246.149707
 30
0.0
 10
192.226353
 20
246.149707
 30
0.0
 10
191.779313
 20
245.700973
 30
0.0
 10
191.779313
 20
245.151487
 30
0.0
  0
LWPOLYLINE
  5
1f2
100
AcDbEntity
  8
0
 62
4
100
AcDbPolyline
 90
5
 70
1
 10
167.851667
 20
259.161280
 30
0.0
 10
170.762507
 20
245.466447
 30
0.0
 10
157.068520
 20
242.555607
 30
0.0
 10
154.157680
 20
256.250440
 30
0.0
 10
167.851667
 20
259.161280
 30
0.0
  0
LWPOLYLINE
  5
1f3
100
AcDbEntity
  8
0
 62
4
100
AcDbPolyline
 90
1
 70
1
 10
191.779313
 20
245.151487
 30
0.0
  0
LWPOLYLINE
  5
1f4
100
AcDbEntity
  8
0
 62
4
100
AcDbPolyline
 90
37
 70
1
 10
185.001747
 20
270.129847
 30
0.0
 10
187.912587
 20
256.435860
 30
0.0
 10
183.315187
 20
255.458807
 30
0.0
 10
183.631840
 20
253.972060
 30
0.0
 10
188.004027
 20
254.901700
 30
0.0
 10
188.362167
 20
253.214293
 30
0.0
 10
189.536493
 20
253.464060
 30
0.0
 10
190.222293
 20
250.235720
 30
0.0
 10
189.048813
 20
249.985953
 30
0.0
 10
189.406953
 20
248.299393
 30
0.0
 10
183.259307
 20
246.992140
 30
0.0
 10
183.432027
 20
246.180187
 30
0.0
 10
180.708300
 20
245.601067
 30
0.0
 10
180.535580
 20
246.413020
 30
0.0
 10
177.375820
 20
245.741613
 30
0.0
 10
175.972893
 20
252.343920
 30
0.0
 10
179.131807
 20
253.016173
 30
0.0
 10
178.816000
 20
254.502073
 30
0.0
 10
174.218600
 20
253.525020
 30
0.0
 10
171.307760
 20
267.219007
 30
0.0
 10
175.905160
 20
268.196907
 30
0.0
 10
175.589353
 20
269.683653
 30
0.0
 10
172.429593
 20
269.012247
 30
0.0
 10
171.026667
 20
275.614553
 30
0.0
 10
174.185580
 20
276.285960
 30
0.0
 10
174.012860
 20
277.097913
 30
0.0
 10
176.737433
 20
277.677033
 30
0.0
 10
176.910153
 20
276.865080
 30
0.0
 10
183.057800
 20
278.171487
 30
0.0
 10
183.415940
 20
276.484080
 30
0.0
 10
184.590267
 20
276.733847
 30
0.0
 10
185.276067
 20
273.505507
 30
0.0
 10
184.102587
 20
273.256587
 30
0.0
 10
184.460727
 20
271.569180
 30
0.0
 10
180.088540
 20
270.639540
 30
0.0
 10
180.404347
 20
269.152793
 30
0.0
 10
185.001747
 20
270.129847
 30
0.0
  0
SPLINE
  5
1f5
100
AcDbEntity
  8
0
 62
4
100
AcDbSpline
 70
8
 71
3
 72
8
 73
4
 74
0
 40
0
 40
0
 40
0
 40
0
 40
1
 40
1
 40
1
 40
1
 10
152.140920
 20
254.155787
 30
0.0
 10
152.025773
 20
254.695960
 30
0.0
 10
151.494913
 20
255.040553
 30
0.0
 10
150.954740
 20
254.926253
 30
0.0
  0
SPLINE
  5
1f6
100
AcDbEntity
  8
0
 62
4
100
AcDbSpline
 70
8
 71
3
 72
8
 73
4
 74
0
 40
0
 40
0
 40
0
 40
0
 40
1
 40
1
 40
1
 40
1
 10
150.954740
 20
254.926253
 30
0.0
 10
150.415413
 20
254.811107
 30
0.0
 10
150.069973
 20
254.280247
 30
0.0
 10
150.184273
 20
253.740073
 30
0.0
  0
SPLINE
  5
1f7
100
AcDbEntity
  8
0
 62
4
100
AcDbSpline
 70
8
 71
3
 72
8
 73
4
 74
0
 40
0
 40
0
 40
0
 40
0
 40
1
 40
1
 40
1
 40
1
 10
150.184273
 20
253.740073
 30
0.0
 10
150.299420
 20
253.199900
 30
0.0
 10
150.831127
 20
252.855307
 30
0.0
 10
151.370453
 20
252.969607
 30
0.0
  0
SPLINE
  5
1f8
100
AcDbEntity
  8
0
 62
4
100
AcDbSpline
 70
8
 71
3
 72
8
 73
4
 74
0
 40
0
 40
0
 40
0
 40
0
 40
1
 40
1
 40
1
 40
1
 10
151.370453
 20
252.969607
 30
0.0
 10
151.910627
 20
253.084753
 30
0.0
 10
152.256067
 20
253.615613
 30
0.0
 10
152.140920
 20
254.155787
 30
0.0
  0
LWPOLYLINE
  5
1f9
100
AcDbEntity
  8
0
 62
4
100
AcDbPolyline
 90
5
 70
1
 10
206.095600
 20
262.437880
 30
0.0
 10
209.006440
 20
248.743893
 30
0.0
 10
195.311607
 20
245.833053
 30
0.0
 10
192.400767
 20
259.527040
 30
0.0
 10
206.095600
 20
262.437880
 30
0.0
  0
LWPOLYLINE
  5
1fa
100
AcDbEntity
  8
0
 62
4
100
AcDbPolyline
 90
1
 70
1
 10
152.140920
 20
254.155787
 30
0.0
  0
SPLINE
  5
1fb
100
AcDbEntity
  8
0
 62
4
100
AcDbSpline
 70
8
 71
3
 72
8
 73
4
 74
0
 40
0
 40
0
 40
0
 40
0
 40
1
 40
1
 40
1
 40
1
 10
237.036187
 20
346.355924
 30
0.0
 10
236.505327
 20
346.355924
 30
0.0
 10
235.996480
 20
346.145273
 30
0.0
 10
235.621407
 20
345.770200
 30
0.0
  0
SPLINE
  5
1fc
100
AcDbEntity
  8
0
 62
4
100
AcDbSpline
 70
8
 71
3
 72
8
 73
4
 74
0
 40
0
 40
0
 40
0
 40
0
 40
1
 40
1
 40
1
 40
1
 10
235.621407
 20
345.770200
 30
0.0
 10
235.246333
 20
345.395127
 30
0.0
 10
235.035513
 20
344.886365
 30
0.0
 10
235.035513
 20
344.355928
 30
0.0
  0
SPLINE
  5
1fd
100
AcDbEntity
  8
0
 62
4
100
AcDbSpline
 70
8
 71
3
 72
8
 73
4
 74
0
 40
0
 40
0
 40
0
 40
0
 40
1
 40
1
 40
1
 40
1
 10
235.035513
 20
344.355928
 30
0.0
 10
235.035513
 20
341.207767
 30
0.0
 10
235.035513
 20
334.451113
 30
0.0
 10
235.035513
 20
334.451113
 30
0.0
  0
SPLINE
  5
1fe
100
AcDbEntity
  8
0
 62
4
100
AcDbSpline
 70
8
 71
3
 72
8
 73
4
 74
0
 40
0
 40
0
 40
0
 40
0
 40
1
 40
1
 40
1
 40
1
 10
235.035513
 20
334.451113
 30
0.0
 10
235.035513
 20
334.423173
 30
0.0
 10
235.028740
 20
334.396080
 30
0.0
 10
235.015193
 20
334.371527
 30
0.0
  0
SPLINE
  5
1ff
100
AcDbEntity
  8
0
 62
4
100
AcDbSpline
 70
8
 71
3
 72
8
 73
4
 74
0
 40
0
 40
0
 40
0
 40
0
 40
1
 40
1
 40
1
 40
1
 10
235.015193
 20
334.371527
 30
0.0
 10
234.820460
 20
334.027780
 30
0.0
 10
233.314240
 20
331.366707
 30
0.0
 10
233.118660
 20
331.022113
 30
0.0
  0
SPLINE
  5
200
100
AcDbEntity
  8
0
 62
4
100
AcDbSpline
 70
8
 71
3
 72
8
 73
4
 74
0
 40
0
 40
0
 40
0
 40
0
 40
1
 40
1
 40
1
 40
1
 10
233.118660
 20
331.022113
 30
0.0
 10
233.105113
 20
330.998407
 30
0.0
 10
233.098340
 20
330.971313
 30
0.0
 10
233.098340
 20
330.943373
 30
0.0
  0
SPLINE
  5
201
100
AcDbEntity
  8
0
 62
4
100
AcDbSpline
 70
8
 71
3
 72
8
 73
4
 74
0
 40
0
 40
0
 40
0
 40
0
 40
1
 40
1
 40
1
 40
1
 10
233.098340
 20
330.943373
 30
0.0
 10
233.098340
 20
330.943373
 30
0.0
 10
233.098340
 20
269.764933
 30
0.0
 10
233.098340
 20
257.948007
 30
0.0
  0
SPLINE
  5
202
100
AcDbEntity
  8
0
 62
4
100
AcDbSpline
 70
8
 71
3
 72
8
 73
4
 74
0
 40
0
 40
0
 40
0
 40
0
 40
1
 40
1
 40
1
 40
1
 10
233.098340
 20
257.948007
 30
0.0
 10
233.098340
 20
256.843107
 30
0.0
 10
233.993267
 20
255.947333
 30
0.0
 10
235.098167
 20
255.947333
 30
0.0
  0
SPLINE
  5
203
100
AcDbEntity
  8
0
 62
4
100
AcDbSpline
 70
8
 71
3
 72
8
 73
4
 74
0
 40
0
 40
0
 40
0
 40
0
 40
1
 40
1
 40
1
 40
1
 10
235.098167
 20
255.947333
 30
0.0
 10
236.934587
 20
255.947333
 30
0.0
 10
239.642227
 20
255.947333
 30
0.0
 10
241.478647
 20
255.947333
 30
0.0
  0
SPLINE
  5
204
100
AcDbEntity
  8
0
 62
4
100
AcDbSpline
 70
8
 71
3
 72
8
 73
4
 74
0
 40
0
 40
0
 40
0
 40
0
 40
1
 40
1
 40
1
 40
1
 10
241.478647
 20
255.947333
 30
0.0
 10
242.583547
 20
255.947333
 30
0.0
 10
243.478473
 20
256.843107
 30
0.0
 10
243.478473
 20
257.948007
 30
0.0
  0
SPLINE
  5
205
100
AcDbEntity
  8
0
 62
4
100
AcDbSpline
 70
8
 71
3
 72
8
 73
4
 74
0
 40
0
 40
0
 40
0
 40
0
 40
1
 40
1
 40
1
 40
1
 10
243.478473
 20
257.948007
 30
0.0
 10
243.478473
 20
269.781867
 30
0.0
 10
243.478473
 20
332.521560
 30
0.0
 10
243.478473
 20
344.355928
 30
0.0
  0
SPLINE
  5
206
100
AcDbEntity
  8
0
 62
4
100
AcDbSpline
 70
8
 71
3
 72
8
 73
4
 74
0
 40
0
 40
0
 40
0
 40
0
 40
1
 40
1
 40
1
 40
1
 10
243.478473
 20
344.355928
 30
0.0
 10
243.478473
 20
345.460489
 30
0.0
 10
242.583547
 20
346.355924
 30
0.0
 10
241.478647
 20
346.355924
 30
0.0
  0
SPLINE
  5
207
100
AcDbEntity
  8
0
 62
4
100
AcDbSpline
 70
8
 71
3
 72
8
 73
4
 74
0
 40
0
 40
0
 40
0
 40
0
 40
1
 40
1
 40
1
 40
1
 10
241.478647
 20
346.355924
 30
0.0
 10
240.137527
 20
346.355924
 30
0.0
 10
238.377307
 20
346.355924
 30
0.0
 10
237.036187
 20
346.355924
 30
0.0
  0
LWPOLYLINE
  5
208
100
AcDbEntity
  8
0
 62
4
100
AcDbPolyline
 90
13
 70
1
 10
212.310980
 20
257.398520
 30
0.0
 10
211.369487
 20
257.197860
 30
0.0
 10
210.682840
 20
260.426200
 30
0.0
 10
211.625180
 20
260.626013
 30
0.0
 10
207.364753
 20
280.668307
 30
0.0
 10
206.423260
 20
280.468493
 30
0.0
 10
205.736613
 20
283.695987
 30
0.0
 10
206.678953
 20
283.896647
 30
0.0
 10
206.087133
 20
286.782933
 30
0.0
 10
219.781967
 20
289.693773
 30
0.0
 10
226.633193
 20
257.356187
 30
0.0
 10
212.938360
 20
254.445347
 30
0.0
 10
212.310980
 20
257.398520
 30
0.0
  0
LWPOLYLINE
  5
209
100
AcDbEntity
  8
0
 62
4
100
AcDbPolyline
 90
1
 70
1
 10
237.036187
 20
346.355924
 30
0.0
  0
LWPOLYLINE
  5
20a
100
AcDbEntity
  8
0
 62
4
100
AcDbPolyline
 90
5
 70
1
 10
163.890113
 20
277.801493
 30
0.0
 10
166.800953
 20
264.106660
 30
0.0
 10
153.106120
 20
261.195820
 30
0.0
 10
150.195280
 20
274.889807
 30
0.0
 10
163.890113
 20
277.801493
 30
0.0
  0
SPLINE
  5
20b
100
AcDbEntity
  8
0
 62
4
100
AcDbSpline
 70
8
 71
3
 72
8
 73
4
 74
0
 40
0
 40
0
 40
0
 40
0
 40
1
 40
1
 40
1
 40
1
 10
129.496820
 20
341.816351
 30
0.0
 10
129.496820
 20
342.920913
 30
0.0
 10
128.601047
 20
343.816347
 30
0.0
 10
127.496147
 20
343.816347
 30
0.0
  0
LWPOLYLINE
  5
20c
100
AcDbEntity
  8
0
 62
4
100
AcDbPolyline
 90
5
 70
1
 10
144.265227
 20
278.502533
 30
0.0
 10
147.176067
 20
264.807700
 30
0.0
 10
133.482080
 20
261.896860
 30
0.0
 10
130.570393
 20
275.591693
 30
0.0
 10
144.265227
 20
278.502533
 30
0.0
  0
SPLINE
  5
20d
100
AcDbEntity
  8
0
 62
4
100
AcDbSpline
 70
8
 71
3
 72
8
 73
4
 74
0
 40
0
 40
0
 40
0
 40
0
 40
1
 40
1
 40
1
 40
1
 10
114.075633
 20
343.816347
 30
0.0
 10
112.970733
 20
343.816347
 30
0.0
 10
112.074960
 20
342.920913
 30
0.0
 10
112.074960
 20
341.816351
 30
0.0
  0
SPLINE
  5
20e
100
AcDbEntity
  8
0
 62
4
100
AcDbSpline
 70
8
 71
3
 72
8
 73
4
 74
0
 40
0
 40
0
 40
0
 40
0
 40
1
 40
1
 40
1
 40
1
 10
112.074960
 20
341.816351
 30
0.0
 10
112.074960
 20
331.209227
 30
0.0
 10
112.074960
 20
279.619287
 30
0.0
 10
112.074960
 20
269.012247
 30
0.0
  0
SPLINE
  5
20f
100
AcDbEntity
  8
0
 62
4
100
AcDbSpline
 70
8
 71
3
 72
8
 73
4
 74
0
 40
0
 40
0
 40
0
 40
0
 40
1
 40
1
 40
1
 40
1
 10
112.074960
 20
269.012247
 30
0.0
 10
112.074960
 20
267.907347
 30
0.0
 10
112.970733
 20
267.012420
 30
0.0
 10
114.075633
 20
267.012420
 30
0.0
  0
SPLINE
  5
210
100
AcDbEntity
  8
0
 62
4
100
AcDbSpline
 70
8
 71
3
 72
8
 73
4
 74
0
 40
0
 40
0
 40
0
 40
0
 40
1
 40
1
 40
1
 40
1
 10
114.075633
 20
267.012420
 30
0.0
 10
116.824760
 20
267.012420
 30
0.0
 10
121.743047
 20
267.012420
 30
0.0
 10
124.492173
 20
267.012420
 30
0.0
  0
SPLINE
  5
211
100
AcDbEntity
  8
0
 62
4
100
AcDbSpline
 70
8
 71
3
 72
8
 73
4
 74
0
 40
0
 40
0
 40
0
 40
0
 40
1
 40
1
 40
1
 40
1
 10
124.492173
 20
267.012420
 30
0.0
 10
125.596227
 20
267.012420
 30
0.0
 10
126.492000
 20
267.907347
 30
0.0
 10
126.492000
 20
269.012247
 30
0.0
  0
SPLINE
  5
212
100
AcDbEntity
  8
0
 62
4
100
AcDbSpline
 70
8
 71
3
 72
8
 73
4
 74
0
 40
0
 40
0
 40
0
 40
0
 40
1
 40
1
 40
1
 40
1
 10
126.492000
 20
269.012247
 30
0.0
 10
126.492000
 20
278.715047
 30
0.0
 10
126.492000
 20
321.417527
 30
0.0
 10
126.492000
 20
321.417527
 30
0.0
  0
SPLINE
  5
213
100
AcDbEntity
  8
0
 62
4
100
AcDbSpline
 70
8
 71
3
 72
8
 73
4
 74
0
 40
0
 40
0
 40
0
 40
0
 40
1
 40
1
 40
1
 40
1
 10
126.492000
 20
321.417527
 30
0.0
 10
126.492000
 20
321.457320
 30
0.0
 10
126.507240
 20
321.495420
 30
0.0
 10
126.533487
 20
321.525053
 30
0.0
  0
SPLINE
  5
214
100
AcDbEntity
  8
0
 62
4
100
AcDbSpline
 70
8
 71
3
 72
8
 73
4
 74
0
 40
0
 40
0
 40
0
 40
0
 40
1
 40
1
 40
1
 40
1
 10
126.533487
 20
321.525053
 30
0.0
 10
126.868767
 20
321.892507
 30
0.0
 10
129.119207
 20
324.363080
 30
0.0
 10
129.454487
 20
324.731380
 30
0.0
  0
SPLINE
  5
215
100
AcDbEntity
  8
0
 62
4
100
AcDbSpline
 70
8
 71
3
 72
8
 73
4
 74
0
 40
0
 40
0
 40
0
 40
0
 40
1
 40
1
 40
1
 40
1
 10
129.454487
 20
324.731380
 30
0.0
 10
129.481580
 20
324.760167
 30
0.0
 10
129.496820
 20
324.799113
 30
0.0
 10
129.496820
 20
324.838907
 30
0.0
  0
SPLINE
  5
216
100
AcDbEntity
  8
0
 62
4
100
AcDbSpline
 70
8
 71
3
 72
8
 73
4
 74
0
 40
0
 40
0
 40
0
 40
0
 40
1
 40
1
 40
1
 40
1
 10
129.496820
 20
324.838907
 30
0.0
 10
129.496820
 20
324.838907
 30
0.0
 10
129.496820
 20
337.131152
 30
0.0
 10
129.496820
 20
341.816351
 30
0.0
  0
LWPOLYLINE
  5
217
100
AcDbEntity
  8
0
 62
4
100
AcDbPolyline
 90
2
 70
0
 10
127.496147
 20
343.816347
 30
0.0
 10
114.075633
 20
343.816347
 30
0.0
  0
LWPOLYLINE
  5
218
100
AcDbEntity
  8
0
 62
4
100
AcDbPolyline
 90
1
 70
1
 10
129.496820
 20
341.816351
 30
0.0
  0
SPLINE
  5
219
100
AcDbEntity
  8
0
 62
4
100
AcDbSpline
 70
8
 71
3
 72
8
 73
4
 74
0
 40
0
 40
0
 40
0
 40
0
 40
1
 40
1
 40
1
 40
1
 10
229.439047
 20
278.439033
 30
0.0
 10
229.324747
 20
278.978360
 30
0.0
 10
228.793040
 20
279.323800
 30
0.0
 10
228.253713
 20
279.208653
 30
0.0
  0
SPLINE
  5
21a
100
AcDbEntity
  8
0
 62
4
100
AcDbSpline
 70
8
 71
3
 72
8
 73
4
 74
0
 40
0
 40
0
 40
0
 40
0
 40
1
 40
1
 40
1
 40
1
 10
228.253713
 20
279.208653
 30
0.0
 10
227.713540
 20
279.094353
 30
0.0
 10
227.368100
 20
278.562647
 30
0.0
 10
227.483247
 20
278.022473
 30
0.0
  0
SPLINE
  5
21b
100
AcDbEntity
  8
0
 62
4
100
AcDbSpline
 70
8
 71
3
 72
8
 73
4
 74
0
 40
0
 40
0
 40
0
 40
0
 40
1
 40
1
 40
1
 40
1
 10
227.483247
 20
278.022473
 30
0.0
 10
227.597547
 20
277.483147
 30
0.0
 10
228.129253
 20
277.137707
 30
0.0
 10
228.669427
 20
277.252853
 30
0.0
  0
SPLINE
  5
21c
100
AcDbEntity
  8
0
 62
4
100
AcDbSpline
 70
8
 71
3
 72
8
 73
4
 74
0
 40
0
 40
0
 40
0
 40
0
 40
1
 40
1
 40
1
 40
1
 10
228.669427
 20
277.252853
 30
0.0
 10
229.208753
 20
277.367153
 30
0.0
 10
229.554193
 20
277.898860
 30
0.0
 10
229.439047
 20
278.439033
 30
0.0
  0
LWPOLYLINE
  5
21d
100
AcDbEntity
  8
0
 62
4
100
AcDbPolyline
 90
5
 70
1
 10
201.147680
 20
285.733913
 30
0.0
 10
204.058520
 20
272.039080
 30
0.0
 10
190.363687
 20
269.128240
 30
0.0
 10
187.452847
 20
282.823073
 30
0.0
 10
201.147680
 20
285.733913
 30
0.0
  0
LWPOLYLINE
  5
21e
100
AcDbEntity
  8
0
 62
4
100
AcDbPolyline
 90
1
 70
1
 10
229.439047
 20
278.439033
 30
0.0
  0
LWPOLYLINE
  5
21f
100
AcDbEntity
  8
0
 62
4
100
AcDbPolyline
 90
5
 70
1
 10
164.579300
 20
297.429767
 30
0.0
 10
167.490140
 20
283.734933
 30
0.0
 10
153.795307
 20
280.824093
 30
0.0
 10
150.884467
 20
294.518927
 30
0.0
 10
164.579300
 20
297.429767
 30
0.0
  0
LWPOLYLINE
  5
220
100
AcDbEntity
  8
0
 62
4
100
AcDbPolyline
 90
5
 70
1
 10
144.954413
 20
298.130807
 30
0.0
 10
147.865253
 20
284.436820
 30
0.0
 10
134.171267
 20
281.525980
 30
0.0
 10
131.260427
 20
295.220813
 30
0.0
 10
144.954413
 20
298.130807
 30
0.0
  0
LWPOLYLINE
  5
221
100
AcDbEntity
  8
0
 62
4
100
AcDbPolyline
 90
5
 70
1
 10
183.212740
 20
301.390473
 30
0.0
 10
186.122733
 20
287.702413
 30
0.0
 10
172.427900
 20
284.791573
 30
0.0
 10
169.518753
 20
298.479633
 30
0.0
 10
183.212740
 20
301.390473
 30
0.0
  0
LWPOLYLINE
  5
222
100
AcDbEntity
  8
0
 62
4
100
AcDbPolyline
 90
5
 70
1
 10
201.845333
 20
305.357107
 30
0.0
 10
204.756173
 20
291.663120
 30
0.0
 10
191.061340
 20
288.752280
 30
0.0
 10
188.150500
 20
302.446267
 30
0.0
 10
201.845333
 20
305.357107
 30
0.0
  0
LWPOLYLINE
  5
223
100
AcDbEntity
  8
0
 62
4
100
AcDbPolyline
 90
5
 70
1
 10
220.478773
 20
309.317813
 30
0.0
 10
223.389613
 20
295.623827
 30
0.0
 10
209.695627
 20
292.712987
 30
0.0
 10
206.784787
 20
306.406973
 30
0.0
 10
220.478773
 20
309.317813
 30
0.0
  0
LWPOLYLINE
  5
224
100
AcDbEntity
  8
0
 62
4
100
AcDbPolyline
 90
5
 70
1
 10
165.276107
 20
317.059733
 30
0.0
 10
168.186947
 20
303.365747
 30
0.0
 10
154.492113
 20
300.454060
 30
0.0
 10
151.581273
 20
314.148893
 30
0.0
 10
165.276107
 20
317.059733
 30
0.0
  0
LWPOLYLINE
  5
225
100
AcDbEntity
  8
0
 62
4
100
AcDbPolyline
 90
5
 70
1
 10
145.156767
 20
320.085720
 30
0.0
 10
148.067607
 20
306.390887
 30
0.0
 10
134.373620
 20
303.480047
 30
0.0
 10
131.462780
 20
317.174880
 30
0.0
 10
145.156767
 20
320.085720
 30
0.0
  0
LWPOLYLINE
  5
226
100
AcDbEntity
  8
0
 62
4
100
AcDbPolyline
 90
5
 70
1
 10
183.909547
 20
321.020440
 30
0.0
 10
186.820387
 20
307.326453
 30
0.0
 10
173.125553
 20
304.414767
 30
0.0
 10
170.214713
 20
318.109600
 30
0.0
 10
183.909547
 20
321.020440
 30
0.0
  0
LWPOLYLINE
  5
227
100
AcDbEntity
  8
0
 62
4
100
AcDbPolyline
 90
5
 70
1
 10
202.542987
 20
324.981147
 30
0.0
 10
205.453827
 20
311.287160
 30
0.0
 10
191.758993
 20
308.375473
 30
0.0
 10
188.848153
 20
322.070307
 30
0.0
 10
202.542987
 20
324.981147
 30
0.0
  0
LWPOLYLINE
  5
228
100
AcDbEntity
  8
0
 62
4
100
AcDbPolyline
 90
5
 70
1
 10
221.176427
 20
328.941853
 30
0.0
 10
224.087267
 20
315.247020
 30
0.0
 10
210.393280
 20
312.336180
 30
0.0
 10
207.482440
 20
326.031013
 30
0.0
 10
221.176427
 20
328.941853
 30
0.0
  0
SPLINE
  5
229
100
AcDbEntity
  8
0
 62
4
100
AcDbSpline
 70
8
 71
3
 72
8
 73
4
 74
0
 40
0
 40
0
 40
0
 40
0
 40
1
 40
1
 40
1
 40
1
 10
143.427873
 20
323.877093
 30
0.0
 10
143.427873
 20
323.324220
 30
0.0
 10
143.874913
 20
322.875487
 30
0.0
 10
144.427787
 20
322.875487
 30
0.0
  0
SPLINE
  5
22a
100
AcDbEntity
  8
0
 62
4
100
AcDbSpline
 70
8
 71
3
 72
8
 73
4
 74
0
 40
0
 40
0
 40
0
 40
0
 40
1
 40
1
 40
1
 40
1
 10
144.427787
 20
322.875487
 30
0.0
 10
144.979813
 20
322.875487
 30
0.0
 10
145.427700
 20
323.324220
 30
0.0
 10
145.427700
 20
323.877093
 30
0.0
  0
SPLINE
  5
22b
100
AcDbEntity
  8
0
 62
4
100
AcDbSpline
 70
8
 71
3
 72
8
 73
4
 74
0
 40
0
 40
0
 40
0
 40
0
 40
1
 40
1
 40
1
 40
1
 10
145.427700
 20
323.877093
 30
0.0
 10
145.427700
 20
324.427427
 30
0.0
 10
144.979813
 20
324.875313
 30
0.0
 10
144.427787
 20
324.875313
 30
0.0
  0
SPLINE
  5
22c
100
AcDbEntity
  8
0
 62
4
100
AcDbSpline
 70
8
 71
3
 72
8
 73
4
 74
0
 40
0
 40
0
 40
0
 40
0
 40
1
 40
1
 40
1
 40
1
 10
144.427787
 20
324.875313
 30
0.0
 10
143.874913
 20
324.875313
 30
0.0
 10
143.427873
 20
324.427427
 30
0.0
 10
143.427873
 20
323.877093
 30
0.0
  0
LWPOLYLINE
  5
22d
100
AcDbEntity
  8
0
 62
4
100
AcDbPolyline
 90
5
 70
1
 10
172.948600
 20
338.166710
 30
0.0
 10
175.859440
 20
324.472300
 30
0.0
 10
162.165453
 20
321.561460
 30
0.0
 10
159.254613
 20
335.255447
 30
0.0
 10
172.948600
 20
338.166710
 30
0.0
  0
LWPOLYLINE
  5
22e
100
AcDbEntity
  8
0
 62
4
100
AcDbPolyline
 90
1
 70
1
 10
143.427873
 20
323.877093
 30
0.0
  0
LWPOLYLINE
  5
22f
100
AcDbEntity
  8
0
 62
4
100
AcDbPolyline
 90
5
 70
1
 10
191.582040
 20
342.127417
 30
0.0
 10
194.492880
 20
328.433007
 30
0.0
 10
180.798893
 20
325.522167
 30
0.0
 10
177.888053
 20
339.216492
 30
0.0
 10
191.582040
 20
342.127417
 30
0.0
  0
LWPOLYLINE
  5
230
100
AcDbEntity
  8
0
 62
4
100
AcDbPolyline
 90
5
 70
1
 10
149.512020
 20
345.355926
 30
0.0
 10
152.422860
 20
331.661347
 30
0.0
 10
138.728027
 20
328.750507
 30
0.0
 10
135.817187
 20
342.445086
 30
0.0
 10
149.512020
 20
345.355926
 30
0.0
  0
SPLINE
  5
231
100
AcDbEntity
  8
0
 62
4
100
AcDbSpline
 70
8
 71
3
 72
8
 73
4
 74
0
 40
0
 40
0
 40
0
 40
0
 40
1
 40
1
 40
1
 40
1
 10
220.004640
 20
331.468307
 30
0.0
 10
220.004640
 20
330.914587
 30
0.0
 10
220.451680
 20
330.466700
 30
0.0
 10
221.004553
 20
330.466700
 30
0.0
  0
SPLINE
  5
232
100
AcDbEntity
  8
0
 62
4
100
AcDbSpline
 70
8
 71
3
 72
8
 73
4
 74
0
 40
0
 40
0
 40
0
 40
0
 40
1
 40
1
 40
1
 40
1
 10
221.004553
 20
330.466700
 30
0.0
 10
221.556580
 20
330.466700
 30
0.0
 10
222.004467
 20
330.914587
 30
0.0
 10
222.004467
 20
331.468307
 30
0.0
  0
SPLINE
  5
233
100
AcDbEntity
  8
0
 62
4
100
AcDbSpline
 70
8
 71
3
 72
8
 73
4
 74
0
 40
0
 40
0
 40
0
 40
0
 40
1
 40
1
 40
1
 40
1
 10
222.004467
 20
331.468307
 30
0.0
 10
222.004467
 20
332.017793
 30
0.0
 10
221.556580
 20
332.466527
 30
0.0
 10
221.004553
 20
332.466527
 30
0.0
  0
SPLINE
  5
234
100
AcDbEntity
  8
0
 62
4
100
AcDbSpline
 70
8
 71
3
 72
8
 73
4
 74
0
 40
0
 40
0
 40
0
 40
0
 40
1
 40
1
 40
1
 40
1
 10
221.004553
 20
332.466527
 30
0.0
 10
220.451680
 20
332.466527
 30
0.0
 10
220.004640
 20
332.017793
 30
0.0
 10
220.004640
 20
331.468307
 30
0.0
  0
LWPOLYLINE
  5
235
100
AcDbEntity
  8
0
 62
4
100
AcDbPolyline
 90
5
 70
1
 10
210.216327
 20
346.088123
 30
0.0
 10
213.127167
 20
332.393713
 30
0.0
 10
199.432333
 20
329.482873
 30
0.0
 10
196.521493
 20
343.177283
 30
0.0
 10
210.216327
 20
346.088123
 30
0.0
  0
LWPOLYLINE
  5
236
100
AcDbEntity
  8
0
 62
4
100
AcDbPolyline
 90
1
 70
1
 10
220.004640
 20
331.468307
 30
0.0
  0
LWPOLYLINE
  5
237
100
AcDbEntity
  8
0
 62
4
100
AcDbPolyline
 90
5
 70
1
 10
228.849767
 20
350.048830
 30
0.0
 10
231.760607
 20
336.354335
 30
0.0
 10
218.065773
 20
333.443580
 30
0.0
 10
215.154933
 20
347.137990
 30
0.0
 10
228.849767
 20
350.048830
 30
0.0
  0
LWPOLYLINE
  5
238
100
AcDbEntity
  8
0
 62
4
100
AcDbPolyline
 90
5
 70
1
 10
171.318767
 20
357.295704
 30
0.0
 10
174.229607
 20
343.601209
 30
0.0
 10
160.534773
 20
340.690369
 30
0.0
 10
157.623933
 20
354.384864
 30
0.0
 10
171.318767
 20
357.295704
 30
0.0
  0
LWPOLYLINE
  5
239
100
AcDbEntity
  8
0
 62
4
100
AcDbPolyline
 90
5
 70
1
 10
189.952207
 20
361.256411
 30
0.0
 10
192.863047
 20
347.561916
 30
0.0
 10
179.168213
 20
344.651076
 30
0.0
 10
176.257373
 20
358.345571
 30
0.0
 10
189.952207
 20
361.256411
 30
0.0
  0
LWPOLYLINE
  5
23a
100
AcDbEntity
  8
0
 62
4
100
AcDbPolyline
 90
5
 70
1
 10
208.585647
 20
365.217117
 30
0.0
 10
211.496487
 20
351.522623
 30
0.0
 10
197.802500
 20
348.611783
 30
0.0
 10
194.891660
 20
362.306277
 30
0.0
 10
208.585647
 20
365.217117
 30
0.0
  0
LWPOLYLINE
  5
23b
100
AcDbEntity
  8
0
 62
4
100
AcDbPolyline
 90
5
 70
1
 10
144.560713
 20
368.648065
 30
0.0
 10
147.472400
 20
354.953570
 30
0.0
 10
133.777567
 20
352.042645
 30
0.0
 10
130.866727
 20
365.737140
 30
0.0
 10
144.560713
 20
368.648065
 30
0.0
  0
LWPOLYLINE
  5
23c
100
AcDbEntity
  8
0
 62
4
100
AcDbPolyline
 90
5
 70
1
 10
227.219933
 20
369.177824
 30
0.0
 10
230.130773
 20
355.483329
 30
0.0
 10
216.435940
 20
352.572489
 30
0.0
 10
213.525100
 20
366.266984
 30
0.0
 10
227.219933
 20
369.177824
 30
0.0
  0
LWPOLYLINE
  5
23d
100
AcDbEntity
  8
0
 62
4
100
AcDbPolyline
 90
5
 70
1
 10
165.027187
 20
375.434013
 30
0.0
 10
167.938027
 20
361.739519
 30
0.0
 10
154.244040
 20
358.828679
 30
0.0
 10
151.333200
 20
372.523173
 30
0.0
 10
165.027187
 20
375.434013
 30
0.0
  0
LWPOLYLINE
  5
23e
100
AcDbEntity
  8
0
 62
4
100
AcDbPolyline
 90
5
 70
1
 10
183.660627
 20
379.394720
 30
0.0
 10
186.572313
 20
365.700225
 30
0.0
 10
172.877480
 20
362.789385
 30
0.0
 10
169.966640
 20
376.483880
 30
0.0
 10
183.660627
 20
379.394720
 30
0.0
  0
LWPOLYLINE
  5
23f
100
AcDbEntity
  8
0
 62
4
100
AcDbPolyline
 90
5
 70
1
 10
202.294913
 20
383.355427
 30
0.0
 10
205.205753
 20
369.660932
 30
0.0
 10
191.510920
 20
366.750092
 30
0.0
 10
188.600080
 20
380.444587
 30
0.0
 10
202.294913
 20
383.355427
 30
0.0
  0
LWPOLYLINE
  5
240
100
AcDbEntity
  8
0
 62
4
100
AcDbPolyline
 90
5
 70
1
 10
220.928353
 20
387.316133
 30
0.0
 10
223.839193
 20
373.621639
 30
0.0
 10
210.144360
 20
370.710799
 30
0.0
 10
207.233520
 20
384.405293
 30
0.0
 10
220.928353
 20
387.316133
 30
0.0
  0
SPLINE
  5
241
100
AcDbEntity
  8
0
 62
4
100
AcDbSpline
 70
8
 71
3
 72
8
 73
4
 74
0
 40
0
 40
0
 40
0
 40
0
 40
1
 40
1
 40
1
 40
1
 10
230.439807
 20
376.008392
 30
0.0
 10
230.324660
 20
376.548227
 30
0.0
 10
229.793800
 20
376.893413
 30
0.0
 10
229.253627
 20
376.778605
 30
0.0
  0
SPLINE
  5
242
100
AcDbEntity
  8
0
 62
4
100
AcDbSpline
 70
8
 71
3
 72
8
 73
4
 74
0
 40
0
 40
0
 40
0
 40
0
 40
1
 40
1
 40
1
 40
1
 10
229.253627
 20
376.778605
 30
0.0
 10
228.713453
 20
376.663881
 30
0.0
 10
228.368860
 20
376.132429
 30
0.0
 10
228.483160
 20
375.592594
 30
0.0
  0
SPLINE
  5
243
100
AcDbEntity
  8
0
 62
4
100
AcDbSpline
 70
8
 71
3
 72
8
 73
4
 74
0
 40
0
 40
0
 40
0
 40
0
 40
1
 40
1
 40
1
 40
1
 10
228.483160
 20
375.592594
 30
0.0
 10
228.598307
 20
375.052759
 30
0.0
 10
229.130013
 20
374.707573
 30
0.0
 10
229.669340
 20
374.822381
 30
0.0
  0
SPLINE
  5
244
100
AcDbEntity
  8
0
 62
4
100
AcDbSpline
 70
8
 71
3
 72
8
 73
4
 74
0
 40
0
 40
0
 40
0
 40
0
 40
1
 40
1
 40
1
 40
1
 10
229.669340
 20
374.822381
 30
0.0
 10
230.209513
 20
374.937105
 30
0.0
 10
230.554107
 20
375.468557
 30
0.0
 10
230.439807
 20
376.008392
 30
0.0
  0
LWPOLYLINE
  5
245
100
AcDbEntity
  8
0
 62
4
100
AcDbPolyline
 90
5
 70
1
 10
139.114953
 20
394.270653
 30
0.0
 10
143.015547
 20
375.917629
 30
0.0
 10
129.321560
 20
373.006789
 30
0.0
 10
125.420120
 20
391.359813
 30
0.0
 10
139.114953
 20
394.270653
 30
0.0
  0
LWPOLYLINE
  5
246
100
AcDbEntity
  8
0
 62
4
100
AcDbPolyline
 90
1
 70
1
 10
230.439807
 20
376.008392
 30
0.0
  0
SPLINE
  5
247
100
AcDbEntity
  8
0
 62
4
100
AcDbSpline
 70
8
 71
3
 72
8
 73
4
 74
0
 40
0
 40
0
 40
0
 40
0
 40
1
 40
1
 40
1
 40
1
 10
185.074560
 20
380.208536
 30
0.0
 10
185.074560
 20
379.655155
 30
0.0
 10
185.521600
 20
379.206760
 30
0.0
 10
186.074473
 20
379.206760
 30
0.0
  0
SPLINE
  5
248
100
AcDbEntity
  8
0
 62
4
100
AcDbSpline
 70
8
 71
3
 72
8
 73
4
 74
0
 40
0
 40
0
 40
0
 40
0
 40
1
 40
1
 40
1
 40
1
 10
186.074473
 20
379.206760
 30
0.0
 10
186.626500
 20
379.206760
 30
0.0
 10
187.074387
 20
379.655155
 30
0.0
 10
187.074387
 20
380.208536
 30
0.0
  0
SPLINE
  5
249
100
AcDbEntity
  8
0
 62
4
100
AcDbSpline
 70
8
 71
3
 72
8
 73
4
 74
0
 40
0
 40
0
 40
0
 40
0
 40
1
 40
1
 40
1
 40
1
 10
187.074387
 20
380.208536
 30
0.0
 10
187.074387
 20
380.758277
 30
0.0
 10
186.626500
 20
381.206756
 30
0.0
 10
186.074473
 20
381.206756
 30
0.0
  0
SPLINE
  5
24a
100
AcDbEntity
  8
0
 62
4
100
AcDbSpline
 70
8
 71
3
 72
8
 73
4
 74
0
 40
0
 40
0
 40
0
 40
0
 40
1
 40
1
 40
1
 40
1
 10
186.074473
 20
381.206756
 30
0.0
 10
185.521600
 20
381.206756
 30
0.0
 10
185.074560
 20
380.758277
 30
0.0
 10
185.074560
 20
380.208536
 30
0.0
  0
LWPOLYLINE
  5
24b
100
AcDbEntity
  8
0
 62
4
100
AcDbPolyline
 90
5
 70
1
 10
158.738993
 20
393.572831
 30
0.0
 10
161.649833
 20
379.878336
 30
0.0
 10
147.955000
 20
376.967496
 30
0.0
 10
145.044160
 20
390.661991
 30
0.0
 10
158.738993
 20
393.572831
 30
0.0
  0
LWPOLYLINE
  5
24c
100
AcDbEntity
  8
0
 62
4
100
AcDbPolyline
 90
1
 70
1
 10
185.074560
 20
380.208536
 30
0.0
  0
LWPOLYLINE
  5
24d
100
AcDbEntity
  8
0
 62
4
100
AcDbPolyline
 90
5
 70
1
 10
177.372433
 20
397.533537
 30
0.0
 10
180.283273
 20
383.839043
 30
0.0
 10
166.588440
 20
380.928203
 30
0.0
 10
163.677600
 20
394.622697
 30
0.0
 10
177.372433
 20
397.533537
 30
0.0
  0
LWPOLYLINE
  5
24e
100
AcDbEntity
  8
0
 62
4
100
AcDbPolyline
 90
5
 70
1
 10
196.005873
 20
401.494244
 30
0.0
 10
198.916713
 20
387.799749
 30
0.0
 10
185.222727
 20
384.888909
 30
0.0
 10
182.311887
 20
398.583404
 30
0.0
 10
196.005873
 20
401.494244
 30
0.0
  0
SPLINE
  5
24f
100
AcDbEntity
  8
0
 62
4
100
AcDbSpline
 70
8
 71
3
 72
8
 73
4
 74
0
 40
0
 40
0
 40
0
 40
0
 40
1
 40
1
 40
1
 40
1
 10
152.196800
 20
397.500771
 30
0.0
 10
152.081653
 20
398.040606
 30
0.0
 10
151.550793
 20
398.385792
 30
0.0
 10
151.010620
 20
398.270984
 30
0.0
  0
SPLINE
  5
250
100
AcDbEntity
  8
0
 62
4
100
AcDbSpline
 70
8
 71
3
 72
8
 73
4
 74
0
 40
0
 40
0
 40
0
 40
0
 40
1
 40
1
 40
1
 40
1
 10
151.010620
 20
398.270984
 30
0.0
 10
150.471293
 20
398.156261
 30
0.0
 10
150.125853
 20
397.624808
 30
0.0
 10
150.240153
 20
397.084973
 30
0.0
  0
SPLINE
  5
251
100
AcDbEntity
  8
0
 62
4
100
AcDbSpline
 70
8
 71
3
 72
8
 73
4
 74
0
 40
0
 40
0
 40
0
 40
0
 40
1
 40
1
 40
1
 40
1
 10
150.240153
 20
397.084973
 30
0.0
 10
150.355300
 20
396.545139
 30
0.0
 10
150.887007
 20
396.199953
 30
0.0
 10
151.426333
 20
396.314761
 30
0.0
  0
SPLINE
  5
252
100
AcDbEntity
  8
0
 62
4
100
AcDbSpline
 70
8
 71
3
 72
8
 73
4
 74
0
 40
0
 40
0
 40
0
 40
0
 40
1
 40
1
 40
1
 40
1
 10
151.426333
 20
396.314761
 30
0.0
 10
151.966507
 20
396.429484
 30
0.0
 10
152.311100
 20
396.960937
 30
0.0
 10
152.196800
 20
397.500771
 30
0.0
  0
LWPOLYLINE
  5
253
100
AcDbEntity
  8
0
 62
4
100
AcDbPolyline
 90
5
 70
1
 10
214.639313
 20
405.454951
 30
0.0
 10
217.550153
 20
391.760456
 30
0.0
 10
203.856167
 20
388.849616
 30
0.0
 10
200.945327
 20
402.544111
 30
0.0
 10
214.639313
 20
405.454951
 30
0.0
  0
LWPOLYLINE
  5
254
100
AcDbEntity
  8
0
 62
4
100
AcDbPolyline
 90
1
 70
1
 10
152.196800
 20
397.500771
 30
0.0
  0
LWPOLYLINE
  5
255
100
AcDbEntity
  8
0
 62
4
100
AcDbPolyline
 90
5
 70
1
 10
159.616140
 20
399.888795
 30
0.0
 10
160.132607
 20
397.455729
 30
0.0
 10
157.198060
 20
396.831989
 30
0.0
 10
156.681593
 20
399.265055
 30
0.0
 10
159.616140
 20
399.888795
 30
0.0
  0
LWPOLYLINE
  5
256
100
AcDbEntity
  8
0
 62
4
100
AcDbPolyline
 90
5
 70
1
 10
168.056560
 20
401.682797
 30
0.0
 10
168.573027
 20
399.249731
 30
0.0
 10
165.639327
 20
398.626076
 30
0.0
 10
165.122013
 20
401.059057
 30
0.0
 10
168.056560
 20
401.682797
 30
0.0
  0
ENDSEC
  0
SECTION
  2
OBJECTS
  0
DICTIONARY
  5
C
330
0
100
AcDbDictionary
  3
ACAD_GROUP
350
D
  3
ACAD_MLINESTYLE
350
17
  0
DICTIONARY
  5
D
330
C
100
AcDbDictionary
  0
DICTIONARY
  5
1A
330
C
100
AcDbDictionary
  0
DICTIONARY
  5
17
330
C
100
AcDbDictionary
  3
STANDARD
350
18
  0
DICTIONARY
  5
19
330
C
100
AcDbDictionary
  0
ENDSEC
  0
EOF
