<?xml version="1.0" encoding="UTF-8" standalone="no"?>
<!DOCTYPE svg PUBLIC "-//W3C//DTD SVG 1.1//EN" "http://www.w3.org/Graphics/SVG/1.1/DTD/svg11.dtd">
<svg width="100%" height="100%" viewBox="0 0 1123 1588" version="1.1" xmlns="http://www.w3.org/2000/svg" xmlns:xlink="http://www.w3.org/1999/xlink" xml:space="preserve" xmlns:serif="http://www.serif.com/" style="fill-rule:evenodd;clip-rule:evenodd;stroke-linecap:round;stroke-linejoin:round;stroke-miterlimit:1.5;">
    <g transform="matrix(0.32,0,0,0.32,0,0)">
        <path id="Split-Left-Keyplate" serif:id="Split Left Keyplate" d="M2777.74,3442.68C2764.69,3442.68 2754.11,3453.25 2754.11,3466.3L2754.11,3468.32C2754.11,3468.44 2754.1,3468.57 2754.08,3468.7C2751.51,3481.08 2624.25,4108.21 2617.11,4142.71C2616.93,4143.59 2616.16,4144.22 2615.26,4144.22C2593.16,4144.22 2339.98,4144.22 2315.57,4144.22C2314.52,4144.22 2313.68,4143.37 2313.68,4142.33C2313.68,4135.05 2313.68,4108.94 2313.68,4102.32C2313.68,4101.43 2313.05,4100.66 2312.18,4100.47C2291.36,4096.05 2060.01,4046.87 2044.99,4043.68C2044.5,4043.58 2043.99,4043.67 2043.56,4043.94C2036.97,4048.23 1982.72,4083.47 1977.1,4087.12C1976.8,4087.32 1976.44,4087.42 1976.07,4087.42C1959.16,4087.42 1564.76,4087.42 1545.65,4087.42C1545.18,4087.42 1544.74,4087.25 1544.39,4086.95C1535.85,4079.36 1428.17,3983.69 1418.85,3975.41C1418.44,3975.04 1418.2,3974.52 1418.21,3973.97C1418.32,3964.03 1419.31,3871.15 1419.36,3866.39C1419.37,3866.26 1419.38,3866.14 1419.4,3866.02C1421.75,3855.06 1527.22,3349.31 1529.62,3338.06C1529.65,3337.93 1529.66,3337.8 1529.66,3337.66L1529.66,3329.56C1529.66,3316.52 1519.08,3305.94 1506.04,3305.94C1466.4,3305.94 1386.98,3305.94 1347.35,3305.94C1341.08,3305.94 1335.07,3308.43 1330.64,3312.86C1326.21,3317.29 1323.72,3323.3 1323.72,3329.56C1323.72,3449.38 1323.72,4000.77 1323.72,4120.6C1323.72,4126.86 1321.23,4132.87 1316.8,4137.3C1312.37,4141.73 1306.37,4144.22 1300.1,4144.22C1279.52,4144.22 1249.82,4144.22 1229.24,4144.22C1222.97,4144.22 1216.96,4141.73 1212.53,4137.3C1208.1,4132.87 1205.61,4126.86 1205.61,4120.6L1205.61,155.314C1205.61,149.049 1208.1,143.041 1212.53,138.611C1216.96,134.181 1222.97,131.692 1229.24,131.692L1300.1,131.692C1313.15,131.692 1323.72,142.268 1323.72,155.314L1323.72,807.189C1323.72,820.235 1334.3,830.811 1347.35,830.811L1505.86,830.811C1518.91,830.811 1529.49,820.235 1529.49,807.189C1529.49,781.679 1529.49,732.834 1529.49,732.834C1529.49,732.702 1529.47,732.57 1529.44,732.44C1527.24,722.087 1437.77,302.525 1432.57,278.105C1432.42,277.422 1432.66,276.715 1433.2,276.266C1442.39,268.523 1521.73,201.713 1528.97,195.622C1529.31,195.335 1529.74,195.178 1530.18,195.178C1549.73,195.178 1978.19,195.178 1996.98,195.178C1997.39,195.178 1997.79,195.313 1998.12,195.563C2003.39,199.564 2047.99,233.47 2054.09,238.11C2054.53,238.444 2055.09,238.569 2055.63,238.454C2071.05,235.149 2291.66,187.864 2311.95,183.516C2312.82,183.33 2313.44,182.561 2313.44,181.671C2313.45,174.232 2313.5,141.778 2313.51,133.579C2313.51,132.537 2314.36,131.692 2315.4,131.692C2340.84,131.692 2615.29,131.692 2637.8,131.692C2638.66,131.692 2639.42,132.277 2639.63,133.112C2647.28,162.918 2772.83,652.09 2775.95,664.265C2775.99,664.418 2776.01,664.576 2776.01,664.735C2776.01,664.735 2776.01,741.146 2776.01,777.194C2776.01,783.458 2778.5,789.467 2782.93,793.897C2787.36,798.327 2793.37,800.816 2799.64,800.816C2815.48,800.816 2836.27,800.816 2852.11,800.816C2858.38,800.816 2864.39,798.327 2868.82,793.897C2873.25,789.467 2875.73,783.458 2875.73,777.194C2875.73,674.761 2875.73,257.747 2875.73,155.314C2875.73,149.049 2878.22,143.041 2882.65,138.611C2887.08,134.181 2893.09,131.692 2899.36,131.692C2919.94,131.692 2949.64,131.692 2970.22,131.692C2976.49,131.692 2982.5,134.181 2986.93,138.611C2991.36,143.041 2993.85,149.049 2993.85,155.314L2993.85,4120.6C2993.85,4126.86 2991.36,4132.87 2986.93,4137.3C2982.5,4141.73 2976.49,4144.22 2970.22,4144.22L2899.36,4144.22C2893.09,4144.22 2887.08,4141.73 2882.65,4137.3C2878.22,4132.87 2875.73,4126.86 2875.73,4120.6L2875.73,3466.3C2875.73,3453.25 2865.16,3442.68 2852.11,3442.68C2830.66,3442.68 2799.19,3442.68 2777.74,3442.68ZM2491.56,4106.64L2525.94,3944.9L2364.2,3910.52L2329.82,4072.26L2491.56,4106.64ZM1956.17,4065.04L1962.28,4036.31L1927.62,4028.94L1921.51,4057.68L1956.17,4065.04ZM2271.48,4059.86L2305.86,3898.12L2144.12,3863.74L2109.74,4025.48L2271.48,4059.86ZM1856.48,4043.85L1862.59,4015.12L1827.93,4007.75L1821.82,4036.49L1856.48,4043.85ZM1729.73,4009.37C1729.73,4002.84 1735.01,3997.54 1741.54,3997.54C1748.06,3997.54 1753.35,4002.84 1753.35,4009.37C1753.35,4015.86 1748.06,4021.16 1741.54,4021.16C1735.01,4021.16 1729.73,4015.86 1729.73,4009.37ZM2051.4,4013.08L2085.78,3851.34L1924.03,3816.96L1889.65,3978.7L2051.4,4013.08ZM1831.32,3966.3L1865.7,3804.56L1703.95,3770.18L1669.57,3931.92L1831.32,3966.3ZM1684.98,3572.56L1696.11,3574.92L1688,3613.05L1676.88,3610.68L1626.56,3847.4L1637.69,3849.77L1629.58,3887.89L1618.46,3885.53L1610.97,3919.52L1449.23,3885.14L1530.65,3503.3L1692.4,3537.68L1684.98,3572.56ZM2538.34,3886.56L2572.72,3724.82L2410.98,3690.43L2376.6,3852.18L2538.34,3886.56ZM2318.26,3839.78L2352.64,3678.03L2190.9,3643.66L2156.51,3805.4L2318.26,3839.78ZM1965.86,3796.53C1964.51,3802.9 1958.23,3806.98 1951.85,3805.62C1945.48,3804.27 1941.4,3797.99 1942.76,3791.62C1944.11,3785.24 1950.39,3781.16 1956.76,3782.52C1963.14,3783.88 1967.22,3790.15 1965.86,3796.53ZM2098.18,3793L2132.56,3631.26L1970.81,3596.88L1936.43,3758.62L2098.18,3793ZM2627.66,3749.88C2627.66,3743.34 2632.95,3738.05 2639.48,3738.05C2645.99,3738.05 2651.29,3743.34 2651.29,3749.88C2651.29,3756.37 2645.99,3761.67 2639.48,3761.67C2632.95,3761.67 2627.66,3756.37 2627.66,3749.88ZM1878.1,3746.22L1912.48,3584.47L1750.73,3550.1L1716.35,3711.84L1878.1,3746.22ZM2612.62,3672.32L2647,3510.58L2485.25,3476.2L2450.87,3637.94L2612.62,3672.32ZM2392.54,3625.54L2426.92,3463.8L2265.17,3429.42L2230.79,3591.16L2392.54,3625.54ZM2172.45,3578.76L2206.84,3417.02L2045.09,3382.64L2010.71,3544.38L2172.45,3578.76ZM1952.37,3531.98L1986.75,3370.24L1825.01,3335.86L1790.63,3497.6L1952.37,3531.98ZM2686.93,3458.09L2721.3,3296.35L2559.56,3261.97L2525.18,3423.71L2686.93,3458.09ZM1710.64,3451.83L1745.02,3290.09L1583.28,3255.71L1548.9,3417.45L1710.64,3451.83ZM2466.84,3411.31L2501.22,3249.57L2339.48,3215.18L2305.1,3376.93L2466.84,3411.31ZM2246.76,3364.53L2281.14,3202.78L2119.39,3168.4L2085.01,3330.15L2246.76,3364.53ZM2777.74,2461.57C2771.47,2461.57 2765.46,2464.06 2761.03,2468.49C2756.6,2472.92 2754.11,2478.93 2754.11,2485.19C2754.11,2590.27 2754.11,3021.89 2754.11,3021.89C2754.11,3022.48 2754.39,3023.03 2754.85,3023.39C2758.67,3026.34 2776.24,3039.91 2780.51,3043.22C2781.09,3043.66 2781.36,3044.39 2781.2,3045.1C2778.54,3057.62 2755.27,3167.12 2754.16,3172.36C2754.13,3172.49 2754.11,3172.62 2754.11,3172.76C2754.11,3172.76 2754.11,3297.85 2754.11,3348.19C2754.11,3361.24 2764.69,3371.81 2777.74,3371.81C2799.19,3371.81 2830.66,3371.81 2852.11,3371.81C2865.16,3371.81 2875.73,3361.24 2875.73,3348.19C2875.73,3222.62 2875.73,2610.76 2875.73,2485.19C2875.73,2472.14 2865.16,2461.57 2852.11,2461.57C2830.66,2461.57 2799.19,2461.57 2777.74,2461.57ZM2026.68,3317.75L2061.06,3156.01L1899.31,3121.62L1864.93,3283.37L2026.68,3317.75ZM2624.13,3246.37C2622.78,3252.74 2616.5,3256.82 2610.12,3255.47C2603.74,3254.11 2599.67,3247.83 2601.02,3241.46C2602.38,3235.08 2608.66,3231 2615.03,3232.36C2621.41,3233.72 2625.49,3239.99 2624.13,3246.37ZM2706.18,3232.16L2740.56,3070.41L2578.81,3036.03L2544.43,3197.78L2706.18,3232.16ZM1516.04,2454.3C1516.04,2448.03 1513.55,2442.03 1509.12,2437.6C1504.69,2433.17 1498.68,2430.68 1492.42,2430.68C1455.44,2430.68 1384.32,2430.68 1347.35,2430.68C1341.08,2430.68 1335.07,2433.17 1330.64,2437.6C1326.21,2442.03 1323.72,2448.03 1323.72,2454.3L1323.72,3211.45C1323.72,3217.72 1326.21,3223.72 1330.64,3228.16C1335.07,3232.59 1341.08,3235.07 1347.35,3235.07C1386.98,3235.07 1466.4,3235.07 1506.04,3235.07C1519.08,3235.07 1529.66,3224.5 1529.66,3211.45C1529.66,3158.06 1529.66,3020.86 1529.66,3020.86C1529.66,3020.77 1529.65,3020.68 1529.64,3020.6C1529.11,3016.71 1516.59,2925.54 1516.06,2921.65C1516.05,2921.56 1516.04,2921.48 1516.04,2921.39C1516.04,2921.39 1516.04,2550.74 1516.04,2454.3ZM1680.77,3211.47C1679.42,3217.85 1673.14,3221.92 1666.76,3220.57C1660.39,3219.21 1656.31,3212.93 1657.67,3206.56C1659.02,3200.18 1665.3,3196.11 1671.67,3197.46C1678.05,3198.82 1682.13,3205.09 1680.77,3211.47ZM2486.1,3185.38L2520.48,3023.63L2358.73,2989.25L2324.35,3151L2486.1,3185.38ZM1769.12,3176.73L1803.5,3014.98L1641.75,2980.6L1607.37,3142.35L1769.12,3176.73ZM2266.01,3138.6L2300.39,2976.85L2138.65,2942.47L2104.27,3104.22L2266.01,3138.6ZM2045.93,3091.82L2080.31,2930.07L1918.57,2895.69L1884.19,3057.44L2045.93,3091.82ZM2615.35,2982.83L2649.73,2821.08L2487.99,2786.7L2453.61,2948.45L2615.35,2982.83ZM2395.27,2936.05L2429.65,2774.3L2267.9,2739.92L2233.52,2901.67L2395.27,2936.05ZM2175.19,2889.27L2209.57,2727.52L2047.82,2693.14L2013.44,2854.89L2175.19,2889.27ZM1955.1,2842.49L1989.48,2680.74L1827.74,2646.36L1793.36,2808.11L1955.1,2842.49ZM1717.72,2484.26L1717.72,2726.27L1731.66,2726.27L1731.66,2765.24L1717.72,2765.24L1717.72,2800.55L1552.33,2800.55L1552.33,2325.74L1717.72,2325.74L1717.72,2445.28L1731.66,2445.28L1731.66,2484.26L1717.72,2484.26ZM2607.11,2751.05L2641.49,2589.3L2479.75,2554.92L2445.37,2716.67L2607.11,2751.05ZM2398.72,2649.25L2433.1,2487.5L2271.36,2453.12L2236.98,2614.87L2398.72,2649.25ZM2117.36,2600.39C2116.01,2606.77 2109.73,2610.84 2103.35,2609.49C2096.98,2608.13 2092.9,2601.85 2094.26,2595.48C2095.61,2589.1 2101.89,2585.03 2108.27,2586.38C2114.64,2587.74 2118.72,2594.01 2117.36,2600.39ZM2184.49,2574.94L2218.86,2413.27L2057.11,2378.89L2022.75,2540.56L2184.49,2574.94ZM2713.03,2543.48C2713.03,2536.95 2718.31,2531.65 2724.84,2531.65C2731.36,2531.65 2736.65,2536.95 2736.65,2543.48C2736.65,2549.97 2731.36,2555.27 2724.84,2555.27C2718.31,2555.27 2713.03,2549.97 2713.03,2543.48ZM2653.89,2530.97L2688.27,2369.22L2526.53,2334.84L2492.15,2496.59L2653.89,2530.97ZM1964.4,2528.19L1998.78,2366.45L1837.04,2332.07L1802.66,2493.81L1964.4,2528.19ZM2776.75,2010.36C2763.7,2010.36 2753.13,2020.94 2753.13,2033.98C2753.13,2079.3 2753.13,2185.8 2753.13,2185.8C2753.13,2186.3 2752.93,2186.78 2752.58,2187.14C2752.22,2187.49 2751.74,2187.69 2751.24,2187.69C2730.31,2187.69 2542.17,2187.69 2521.24,2187.69C2520.19,2187.69 2519.35,2186.84 2519.35,2185.8C2519.35,2174.7 2519.35,2118.09 2519.35,2106.99C2519.35,2105.94 2518.5,2105.1 2517.46,2105.1L2255.05,2105.1C2254.92,2105.1 2254.79,2105.11 2254.66,2105.14C2249.45,2106.24 2140.5,2129.32 2135.28,2130.43C2135.16,2130.46 2135.03,2130.47 2134.89,2130.47C2122.94,2130.47 1573.94,2130.47 1541.15,2130.47C1540.26,2130.47 1539.49,2129.85 1539.3,2128.97C1535.33,2110.31 1495.51,1911.46 1494.04,1904.58C1494.01,1904.45 1494,1904.32 1494,1904.19L1494,1903.3C1494,1890.25 1483.42,1879.68 1470.38,1879.68L1347.35,1879.68C1334.3,1879.68 1323.72,1890.25 1323.72,1903.3C1323.72,1981.88 1323.72,2257.6 1323.72,2336.19C1323.72,2349.24 1334.3,2359.81 1347.35,2359.81C1384.32,2359.81 1455.44,2359.81 1492.42,2359.81C1498.68,2359.81 1504.69,2357.32 1509.12,2352.89C1513.55,2348.46 1516.04,2342.45 1516.04,2336.19C1516.04,2318.84 1516.04,2286.46 1516.04,2286.46C1516.04,2286.31 1516.06,2286.16 1516.09,2286.02C1517.12,2281.75 1532.94,2215.66 1535.5,2204.99C1535.7,2204.14 1536.47,2203.54 1537.34,2203.54C1559.57,2203.54 1823.04,2203.54 1831.3,2203.54C1831.43,2203.54 1831.56,2203.56 1831.69,2203.59C1842.18,2205.81 2274.73,2297.58 2285.18,2299.79C2285.31,2299.82 2285.44,2299.84 2285.57,2299.84C2292.41,2299.85 2475.64,2300.14 2485.17,2300.16C2485.42,2300.16 2485.67,2300.11 2485.91,2300.01C2490.3,2298.15 2534.03,2279.63 2538.41,2277.77C2538.64,2277.67 2538.89,2277.62 2539.14,2277.62C2548.65,2277.62 2731.59,2277.62 2752.22,2277.62C2752.72,2277.62 2753.21,2277.82 2753.56,2278.18C2753.91,2278.53 2754.11,2279.01 2754.11,2279.51C2754.11,2279.51 2754.11,2337.69 2754.11,2367.08C2754.11,2373.35 2756.6,2379.35 2761.03,2383.78C2765.46,2388.21 2771.47,2390.7 2777.74,2390.7L2852.11,2390.7C2865.16,2390.7 2875.73,2380.13 2875.73,2367.08C2875.73,2302.3 2875.73,2098.76 2875.73,2033.98C2875.73,2020.94 2865.16,2010.36 2852.11,2010.36C2830.42,2010.36 2798.44,2010.36 2776.75,2010.36ZM1771.13,2255.31C1771.13,2248.77 1776.41,2243.47 1782.94,2243.47C1789.46,2243.47 1794.75,2248.77 1794.75,2255.31C1794.75,2261.8 1789.46,2267.1 1782.94,2267.1C1776.41,2267.1 1771.13,2261.8 1771.13,2255.31ZM1695.5,1904.89L1729.88,2066.64L1568.14,2101.01L1533.76,1939.27L1695.5,1904.89ZM1982.5,1901.54L2016.88,2063.29L1855.14,2097.67L1820.76,1935.92L1982.5,1901.54ZM2265.11,2067.01C2265.11,2073.55 2270.39,2078.84 2276.92,2078.84C2283.44,2078.84 2288.73,2073.55 2288.73,2067.01C2288.73,2060.52 2283.44,2055.22 2276.92,2055.22C2270.39,2055.22 2265.11,2060.52 2265.11,2067.01ZM2185.06,1771.99L2219.44,1933.73L2165.14,1945.27L2168.88,1962.83L2220.52,1951.85L2224.75,1971.78L2238.62,1968.83L2246.72,2006.96L2232.86,2009.91L2237.09,2029.83L2164.48,2045.27L2166.52,2054.86L2134.35,2061.7L2132.31,2052.11L2094.99,2060.04L2078.42,1982.06L2115.73,1974.12L2112,1956.57L2057.7,1968.11L2023.32,1806.37L2077.62,1794.82L2073.89,1777.26L2036.57,1785.19L2020,1707.21L2057.31,1699.28L2055.27,1689.69L2087.45,1682.85L2089.49,1692.44L2162.1,1677.01L2166.33,1696.94L2180.2,1693.99L2188.3,1732.12L2174.44,1735.06L2178.67,1754.99L2127.03,1765.97L2130.76,1783.53L2185.06,1771.99ZM2434.2,1862.84L2468.58,2024.58L2306.83,2058.96L2272.45,1897.22L2434.2,1862.84ZM1796.94,1960.66C1795.58,1954.28 1789.31,1950.21 1782.93,1951.56C1776.56,1952.92 1772.48,1959.19 1773.83,1965.57C1775.19,1971.95 1781.47,1976.02 1787.84,1974.67C1794.22,1973.31 1798.3,1967.04 1796.94,1960.66ZM2507.61,1922.36L2496.49,1924.73L2488.38,1886.6L2499.51,1884.24L2449.19,1647.52L2438.07,1649.88L2429.96,1611.76L2441.09,1609.39L2434.1,1575.3L2595.85,1540.92L2676.77,1922.86L2515.02,1957.24L2507.61,1922.36ZM2799.64,871.682C2793.37,871.682 2787.36,874.17 2782.93,878.6C2778.5,883.03 2776.01,889.039 2776.01,895.304C2776.01,932.487 2776.01,1012.29 2776.01,1012.29C2776.01,1012.62 2775.93,1012.94 2775.77,1013.23C2773.47,1017.29 2755.68,1048.72 2753.37,1052.79C2753.21,1053.07 2753.13,1053.39 2753.13,1053.72C2753.13,1053.72 2753.13,1776.3 2753.13,1915.87C2753.13,1928.92 2763.7,1939.5 2776.75,1939.5C2798.44,1939.5 2830.42,1939.5 2852.11,1939.5C2865.16,1939.5 2875.73,1928.92 2875.73,1915.87C2875.73,1776.1 2875.73,1035.08 2875.73,895.304C2875.73,882.258 2865.16,871.682 2852.11,871.682C2836.27,871.682 2815.48,871.682 2799.64,871.682ZM1935.71,1681.38L1970.09,1843.13L1808.34,1877.51L1773.96,1715.77L1935.71,1681.38ZM1703.92,1673.1L1738.3,1834.85L1576.56,1869.23L1542.17,1707.48L1703.92,1673.1ZM1529.49,925.299C1529.49,912.253 1518.91,901.677 1505.86,901.677L1347.35,901.677C1334.3,901.677 1323.72,912.253 1323.72,925.299C1323.72,1050.58 1323.72,1659.91 1323.72,1785.19C1323.72,1798.24 1334.3,1808.81 1347.35,1808.81C1379.82,1808.81 1437.91,1808.81 1470.38,1808.81C1483.42,1808.81 1494,1798.24 1494,1785.19C1494,1670.59 1494,1166.23 1494,1166.23C1494,1165.76 1494.18,1165.31 1494.49,1164.96C1498.45,1160.62 1525.03,1131.44 1528.99,1127.09C1529.31,1126.75 1529.49,1126.29 1529.49,1125.82C1529.49,1125.82 1529.49,980.636 1529.49,925.299ZM2375.76,1587.69L2410.14,1749.44L2248.39,1783.82L2214.01,1622.07L2375.76,1587.69ZM2709.91,1673.85C2708.56,1667.48 2702.28,1663.4 2695.91,1664.76C2689.53,1666.11 2685.45,1672.39 2686.81,1678.77C2688.16,1685.14 2694.44,1689.22 2700.82,1687.86C2707.19,1686.51 2711.27,1680.23 2709.91,1673.85ZM1943.85,1449.55L1978.23,1611.3L1816.48,1645.68L1782.1,1483.93L1943.85,1449.55ZM1712.06,1441.27L1746.44,1603.01L1584.7,1637.39L1550.32,1475.64L1712.06,1441.27ZM2163.93,1402.77L2198.3,1564.44L2036.55,1598.82L2002.19,1437.15L2163.93,1402.77ZM2384,1355.92L2418.38,1517.66L2256.63,1552.04L2222.25,1390.3L2384,1355.92ZM2604.08,1309.14L2638.46,1470.88L2476.72,1505.26L2442.34,1343.52L2604.08,1309.14ZM1952.08,1217.7L1986.46,1379.44L1824.71,1413.83L1790.33,1252.08L1952.08,1217.7ZM1714.45,1181.96L1748.83,1343.71L1587.09,1378.09L1552.71,1216.34L1714.45,1181.96ZM2172.16,1170.92L2206.54,1332.66L2044.79,1367.05L2010.41,1205.3L2172.16,1170.92ZM2392.24,1124.14L2426.62,1285.88L2264.87,1320.27L2230.49,1158.52L2392.24,1124.14ZM2612.32,1077.36L2646.7,1239.11L2484.96,1273.49L2450.58,1111.74L2612.32,1077.36ZM2042.7,968.405L2077.08,1130.15L1915.34,1164.53L1880.96,1002.79L2042.7,968.405ZM1694.03,1137.18C1694.03,1143.71 1699.31,1149.01 1705.84,1149.01C1712.36,1149.01 1717.65,1143.71 1717.65,1137.18C1717.65,1130.68 1712.36,1125.39 1705.84,1125.39C1699.31,1125.39 1694.03,1130.68 1694.03,1137.18ZM2262.78,921.625L2297.16,1083.37L2135.42,1117.75L2101.04,956.006L2262.78,921.625ZM1765.89,883.493L1800.27,1045.24L1638.52,1079.62L1604.14,917.873L1765.89,883.493ZM2482.87,874.845L2517.25,1036.59L2355.5,1070.97L2321.12,909.225L2482.87,874.845ZM2598.48,1047.52C2598.48,1054.06 2603.76,1059.35 2610.29,1059.35C2616.81,1059.35 2622.1,1054.06 2622.1,1047.52C2622.1,1041.03 2616.81,1035.73 2610.29,1035.73C2603.76,1035.73 2598.48,1041.03 2598.48,1047.52ZM2702.95,828.065L2737.33,989.811L2575.58,1024.19L2541.2,862.445L2702.95,828.065ZM2023.45,742.472L2057.83,904.218L1896.08,938.598L1861.7,776.852L2023.45,742.472ZM2243.53,695.692L2277.91,857.438L2116.16,891.818L2081.78,730.072L2243.53,695.692ZM2463.61,648.912L2497.99,810.658L2336.25,845.038L2301.87,683.292L2463.61,648.912ZM1707.41,608.389L1741.8,770.135L1580.05,804.516L1545.67,642.77L1707.41,608.389ZM2683.7,602.132L2718.08,763.878L2556.33,798.258L2521.95,636.512L2683.7,602.132ZM1949.14,528.24L1983.52,689.986L1821.78,724.366L1787.4,562.62L1949.14,528.24ZM2169.22,481.46L2203.61,643.206L2041.86,677.586L2007.48,515.84L2169.22,481.46ZM2389.31,434.68L2423.69,596.426L2261.94,630.806L2227.56,469.06L2389.31,434.68ZM2609.39,387.9L2643.77,549.646L2482.02,584.026L2447.64,422.28L2609.39,387.9ZM1643.09,305.76L1689.16,522.528L1527.42,556.908L1481.34,340.14L1643.09,305.76ZM2721.73,521.456C2720.37,515.08 2714.1,511.003 2707.72,512.359C2701.34,513.714 2697.27,519.991 2698.62,526.367C2699.98,532.743 2706.26,536.82 2712.63,535.464C2719.01,534.109 2723.08,527.832 2721.73,521.456ZM1874.87,314.002L1909.25,475.748L1747.5,510.128L1713.12,348.382L1874.87,314.002ZM2185.92,471.848C2185.92,478.384 2191.2,483.68 2197.73,483.68C2204.25,483.68 2209.54,478.384 2209.54,471.848C2209.54,465.355 2204.25,460.058 2197.73,460.058C2191.2,460.058 2185.92,465.355 2185.92,471.848ZM2094.95,267.222L2129.33,428.968L1967.58,463.348L1933.2,301.602L2094.95,267.222ZM2315.03,220.442L2349.41,382.188L2187.67,416.568L2153.29,254.822L2315.03,220.442ZM2535.11,173.662L2569.49,335.408L2407.75,369.788L2373.37,208.042L2535.11,173.662ZM1797.6,267.609C1796.24,261.233 1789.97,257.156 1783.59,258.512C1777.22,259.867 1773.14,266.144 1774.49,272.52C1775.85,278.896 1782.13,282.973 1788.5,281.617C1794.88,280.262 1798.95,273.985 1797.6,267.609ZM1885.23,239.404L1891.33,268.141L1856.67,275.508L1850.57,246.771L1885.23,239.404ZM1984.92,218.215L1991.02,246.952L1956.37,254.318L1950.26,225.582L1984.92,218.215Z" style="fill:rgb(60,226,255);fill-opacity:0.42;stroke:rgb(13,151,242);stroke-width:0.94px;"/>
    </g>
</svg>
