  0
SECTION
  2
HEADER
  9
$ACADVER
  1
AC1014
  9
$HANDSEED
  5
FFFF
  9
$MEASUREMENT
 70
     1
  0
ENDSEC
  0
SECTION
  2
TABLES
  0
TABLE
  2
VPORT
  5
8
330
0
100
AcDbSymbolTable
 70
     4
  0
VPORT
  5
2E
330
8
100
AcDbSymbolTableRecord
100
AcDbViewportTableRecord
  2
*ACTIVE
 70
     0
 10
0.0
 20
0.0
 11
1.0
 21
1.0
 12
210.0
 22
148.5
 13
0.0
 23
0.0
 14
10.0
 24
10.0
 15
10.0
 25
10.0
 16
0.0
 26
0.0
 36
1.0
 17
0.0
 27
0.0
 37
0.0
 40
341.0
 41
1.24
 42
50.0
 43
0.0
 44
0.0
 50
0.0
 51
0.0
 71
     0
 72
   100
 73
     1
 74
     3
 75
     0
 76
     0
 77
     0
 78
     0
  0
ENDTAB
  0
TABLE
  2
LTYPE
  5
5
330
0
100
AcDbSymbolTable
 70
     1
  0
LTYPE
  5
14
330
5
100
AcDbSymbolTableRecord
100
AcDbLinetypeTableRecord
  2
BYBLOCK
 70
     0
  3

 72
    65
 73
     0
 40
0.0
  0
LTYPE
  5
15
330
5
100
AcDbSymbolTableRecord
100
AcDbLinetypeTableRecord
  2
BYLAYER
 70
     0
  3

 72
    65
 73
     0
 40
0.0
  0
LTYPE
  5
16
330
5
100
AcDbSymbolTableRecord
100
AcDbLinetypeTableRecord
  2
CONTINUOUS
 70
     0
  3
Solid line
 72
    65
 73
     0
 40
0.0
  0
ENDTAB
  0
TABLE
  2
LAYER
  5
2
100
AcDbSymbolTable
 70
1
  0
LAYER
  5
50
100
AcDbSymbolTableRecord
100
AcDbLayerTableRecord
  2
0
 70
0
  6
CONTINUOUS
  0
ENDTAB
  0
TABLE
  2
STYLE
  5
3
330
0
100
AcDbSymbolTable
 70
     1
  0
STYLE
  5
11
330
3
100
AcDbSymbolTableRecord
100
AcDbTextStyleTableRecord
  2
STANDARD
 70
     0
 40
0.0
 41
1.0
 50
0.0
 71
     0
 42
2.5
  3
txt
  4

  0
ENDTAB
  0
TABLE
  2
VIEW
  5
6
330
0
100
AcDbSymbolTable
 70
     0
  0
ENDTAB
  0
TABLE
  2
UCS
  5
7
330
0
100
AcDbSymbolTable
 70
     0
  0
ENDTAB
  0
TABLE
  2
APPID
  5
9
330
0
100
AcDbSymbolTable
 70
     2
  0
APPID
  5
12
330
9
100
AcDbSymbolTableRecord
100
AcDbRegAppTableRecord
  2
ACAD
 70
     0
  0
ENDTAB
  0
TABLE
  2
DIMSTYLE
  5
A
330
0
100
AcDbSymbolTable
 70
     1
  0
DIMSTYLE
105
27
330
A
100
AcDbSymbolTableRecord
100
AcDbDimStyleTableRecord
  2
ISO-25
 70
     0
  3

  4

  5

  6

  7

 40
1.0
 41
2.5
 42
0.625
 43
3.75
 44
1.25
 45
0.0
 46
0.0
 47
0.0
 48
0.0
140
2.5
141
2.5
142
0.0
143
0.03937007874016
144
1.0
145
0.0
146
1.0
147
0.625
 71
     0
 72
     0
 73
     0
 74
     0
 75
     0
 76
     0
 77
     1
 78
     8
170
     0
171
     3
172
     1
173
     0
174
     0
175
     0
176
     0
177
     0
178
     0
270
     2
271
     2
272
     2
273
     2
274
     3
340
11
275
     0
280
     0
281
     0
282
     0
283
     0
284
     8
285
     0
286
     0
287
     3
288
     0
  0
ENDTAB
  0
TABLE
  2
BLOCK_RECORD
  5
1
330
0
100
AcDbSymbolTable
 70
     1
  0
BLOCK_RECORD
  5
1F
330
1
100
AcDbSymbolTableRecord
100
AcDbBlockTableRecord
  2
*MODEL_SPACE
  0
BLOCK_RECORD
  5
1B
330
1
100
AcDbSymbolTableRecord
100
AcDbBlockTableRecord
  2
*PAPER_SPACE
  0
ENDTAB
  0
ENDSEC
  0
SECTION
  2
BLOCKS
  0
BLOCK
  5
20
330
1F
100
AcDbEntity
  8
0
100
AcDbBlockBegin
  2
*MODEL_SPACE
 70
     0
 10
0.0
 20
0.0
 30
0.0
  3
*MODEL_SPACE
  1

  0
ENDBLK
  5
21
330
1F
100
AcDbEntity
  8
0
100
AcDbBlockEnd
  0
BLOCK
  5
1C
330
1B
100
AcDbEntity
 67
     1
  8
0
100
AcDbBlockBegin
  2
*PAPER_SPACE
  1

  0
ENDBLK
  5
1D
330
1B
100
AcDbEntity
 67
     1
  8
0
100
AcDbBlockEnd
  0
ENDSEC
  0
SECTION
  2
ENTITIES
  0
SPLINE
  5
100
100
AcDbEntity
  8
0
 62
4
100
AcDbSpline
 70
8
 71
3
 72
8
 73
4
 74
0
 40
0
 40
0
 40
0
 40
0
 40
1
 40
1
 40
1
 40
1
 10
96.979740
 20
89.932933
 30
0.0
 10
96.956033
 20
89.962567
 30
0.0
 10
96.942487
 20
89.998973
 30
0.0
 10
96.942487
 20
90.036227
 30
0.0
  0
SPLINE
  5
101
100
AcDbEntity
  8
0
 62
4
100
AcDbSpline
 70
8
 71
3
 72
8
 73
4
 74
0
 40
0
 40
0
 40
0
 40
0
 40
1
 40
1
 40
1
 40
1
 10
96.942487
 20
90.036227
 30
0.0
 10
96.942487
 20
91.690613
 30
0.0
 10
96.942487
 20
127.967486
 30
0.0
 10
96.942487
 20
129.558203
 30
0.0
  0
SPLINE
  5
102
100
AcDbEntity
  8
0
 62
4
100
AcDbSpline
 70
8
 71
3
 72
8
 73
4
 74
0
 40
0
 40
0
 40
0
 40
0
 40
1
 40
1
 40
1
 40
1
 10
96.942487
 20
129.558203
 30
0.0
 10
96.942487
 20
129.593171
 30
0.0
 10
96.953493
 20
129.627207
 30
0.0
 10
96.974660
 20
129.655062
 30
0.0
  0
SPLINE
  5
103
100
AcDbEntity
  8
0
 62
4
100
AcDbSpline
 70
8
 71
3
 72
8
 73
4
 74
0
 40
0
 40
0
 40
0
 40
0
 40
1
 40
1
 40
1
 40
1
 10
96.974660
 20
129.655062
 30
0.0
 10
97.314173
 20
130.100663
 30
0.0
 10
100.184373
 20
133.877050
 30
0.0
 10
100.577227
 20
134.393771
 30
0.0
  0
SPLINE
  5
104
100
AcDbEntity
  8
0
 62
4
100
AcDbSpline
 70
8
 71
3
 72
8
 73
4
 74
0
 40
0
 40
0
 40
0
 40
0
 40
1
 40
1
 40
1
 40
1
 10
100.577227
 20
134.393771
 30
0.0
 10
100.605167
 20
134.430939
 30
0.0
 10
100.616173
 20
134.478522
 30
0.0
 10
100.606013
 20
134.524157
 30
0.0
  0
SPLINE
  5
105
100
AcDbEntity
  8
0
 62
4
100
AcDbSpline
 70
8
 71
3
 72
8
 73
4
 74
0
 40
0
 40
0
 40
0
 40
0
 40
1
 40
1
 40
1
 40
1
 10
100.606013
 20
134.524157
 30
0.0
 10
100.326613
 20
135.829717
 30
0.0
 10
96.322727
 20
154.508031
 30
0.0
 10
95.955273
 20
156.225409
 30
0.0
  0
SPLINE
  5
106
100
AcDbEntity
  8
0
 62
4
100
AcDbSpline
 70
8
 71
3
 72
8
 73
4
 74
0
 40
0
 40
0
 40
0
 40
0
 40
1
 40
1
 40
1
 40
1
 10
95.955273
 20
156.225409
 30
0.0
 10
95.939187
 20
156.299069
 30
0.0
 10
95.873993
 20
156.351732
 30
0.0
 10
95.798640
 20
156.351901
 30
0.0
  0
SPLINE
  5
107
100
AcDbEntity
  8
0
 62
4
100
AcDbSpline
 70
8
 71
3
 72
8
 73
4
 74
0
 40
0
 40
0
 40
0
 40
0
 40
1
 40
1
 40
1
 40
1
 10
95.798640
 20
156.351901
 30
0.0
 10
95.168720
 20
156.352833
 30
0.0
 10
92.421287
 20
156.356897
 30
0.0
 10
91.727020
 20
156.357913
 30
0.0
  0
SPLINE
  5
108
100
AcDbEntity
  8
0
 62
4
100
AcDbSpline
 70
8
 71
3
 72
8
 73
4
 74
0
 40
0
 40
0
 40
0
 40
0
 40
1
 40
1
 40
1
 40
1
 10
91.727020
 20
156.357913
 30
0.0
 10
91.638967
 20
156.358082
 30
0.0
 10
91.567000
 20
156.429625
 30
0.0
 10
91.567000
 20
156.517933
 30
0.0
  0
SPLINE
  5
109
100
AcDbEntity
  8
0
 62
4
100
AcDbSpline
 70
8
 71
3
 72
8
 73
4
 74
0
 40
0
 40
0
 40
0
 40
0
 40
1
 40
1
 40
1
 40
1
 10
91.567000
 20
156.517933
 30
0.0
 10
91.567000
 20
158.671768
 30
0.0
 10
91.567000
 20
181.908958
 30
0.0
 10
91.567000
 20
183.814551
 30
0.0
  0
SPLINE
  5
10a
100
AcDbEntity
  8
0
 62
4
100
AcDbSpline
 70
8
 71
3
 72
8
 73
4
 74
0
 40
0
 40
0
 40
0
 40
0
 40
1
 40
1
 40
1
 40
1
 10
91.567000
 20
183.814551
 30
0.0
 10
91.567000
 20
183.887533
 30
0.0
 10
91.616953
 20
183.951372
 30
0.0
 10
91.687227
 20
183.969491
 30
0.0
  0
SPLINE
  5
10b
100
AcDbEntity
  8
0
 62
4
100
AcDbSpline
 70
8
 71
3
 72
8
 73
4
 74
0
 40
0
 40
0
 40
0
 40
0
 40
1
 40
1
 40
1
 40
1
 10
91.687227
 20
183.969491
 30
0.0
 10
94.211140
 20
184.617191
 30
0.0
 10
135.627533
 20
195.246921
 30
0.0
 10
136.658773
 20
195.511505
 30
0.0
  0
SPLINE
  5
10c
100
AcDbEntity
  8
0
 62
4
100
AcDbSpline
 70
8
 71
3
 72
8
 73
4
 74
0
 40
0
 40
0
 40
0
 40
0
 40
1
 40
1
 40
1
 40
1
 10
136.658773
 20
195.511505
 30
0.0
 10
136.671473
 20
195.514807
 30
0.0
 10
136.685020
 20
195.516500
 30
0.0
 10
136.698567
 20
195.516500
 30
0.0
  0
SPLINE
  5
10d
100
AcDbEntity
  8
0
 62
4
100
AcDbSpline
 70
8
 71
3
 72
8
 73
4
 74
0
 40
0
 40
0
 40
0
 40
0
 40
1
 40
1
 40
1
 40
1
 10
136.698567
 20
195.516500
 30
0.0
 10
137.547773
 20
195.516500
 30
0.0
 10
164.903573
 20
195.516500
 30
0.0
 10
166.124467
 20
195.516500
 30
0.0
  0
SPLINE
  5
10e
100
AcDbEntity
  8
0
 62
4
100
AcDbSpline
 70
8
 71
3
 72
8
 73
4
 74
0
 40
0
 40
0
 40
0
 40
0
 40
1
 40
1
 40
1
 40
1
 10
166.124467
 20
195.516500
 30
0.0
 10
166.152407
 20
195.516500
 30
0.0
 10
166.179500
 20
195.509388
 30
0.0
 10
166.204053
 20
195.495757
 30
0.0
  0
SPLINE
  5
10f
100
AcDbEntity
  8
0
 62
4
100
AcDbSpline
 70
8
 71
3
 72
8
 73
4
 74
0
 40
0
 40
0
 40
0
 40
0
 40
1
 40
1
 40
1
 40
1
 10
166.204053
 20
195.495757
 30
0.0
 10
166.547800
 20
195.300769
 30
0.0
 10
169.208873
 20
193.794634
 30
0.0
 10
169.553467
 20
193.599647
 30
0.0
  0
SPLINE
  5
110
100
AcDbEntity
  8
0
 62
4
100
AcDbSpline
 70
8
 71
3
 72
8
 73
4
 74
0
 40
0
 40
0
 40
0
 40
0
 40
1
 40
1
 40
1
 40
1
 10
169.553467
 20
193.599647
 30
0.0
 10
169.577173
 20
193.586015
 30
0.0
 10
169.604267
 20
193.578903
 30
0.0
 10
169.632207
 20
193.578903
 30
0.0
  0
SPLINE
  5
111
100
AcDbEntity
  8
0
 62
4
100
AcDbSpline
 70
8
 71
3
 72
8
 73
4
 74
0
 40
0
 40
0
 40
0
 40
0
 40
1
 40
1
 40
1
 40
1
 10
169.632207
 20
193.578903
 30
0.0
 10
171.853860
 20
193.578903
 30
0.0
 10
261.187353
 20
193.578903
 30
0.0
 10
265.481647
 20
193.578903
 30
0.0
  0
SPLINE
  5
112
100
AcDbEntity
  8
0
 62
4
100
AcDbSpline
 70
8
 71
3
 72
8
 73
4
 74
0
 40
0
 40
0
 40
0
 40
0
 40
1
 40
1
 40
1
 40
1
 10
265.481647
 20
193.578903
 30
0.0
 10
265.523980
 20
193.578903
 30
0.0
 10
265.564620
 20
193.562055
 30
0.0
 10
265.595100
 20
193.531998
 30
0.0
  0
SPLINE
  5
113
100
AcDbEntity
  8
0
 62
4
100
AcDbSpline
 70
8
 71
3
 72
8
 73
4
 74
0
 40
0
 40
0
 40
0
 40
0
 40
1
 40
1
 40
1
 40
1
 10
265.595100
 20
193.531998
 30
0.0
 10
265.624733
 20
193.502026
 30
0.0
 10
265.641667
 20
193.461301
 30
0.0
 10
265.641667
 20
193.418883
 30
0.0
  0
SPLINE
  5
114
100
AcDbEntity
  8
0
 62
4
100
AcDbSpline
 70
8
 71
3
 72
8
 73
4
 74
0
 40
0
 40
0
 40
0
 40
0
 40
1
 40
1
 40
1
 40
1
 10
265.641667
 20
193.418883
 30
0.0
 10
265.641667
 20
191.646810
 30
0.0
 10
265.641667
 20
175.717539
 30
0.0
 10
265.641667
 20
173.945465
 30
0.0
  0
SPLINE
  5
115
100
AcDbEntity
  8
0
 62
4
100
AcDbSpline
 70
8
 71
3
 72
8
 73
4
 74
0
 40
0
 40
0
 40
0
 40
0
 40
1
 40
1
 40
1
 40
1
 10
265.641667
 20
173.945465
 30
0.0
 10
265.641667
 20
173.857073
 30
0.0
 10
265.569700
 20
173.785445
 30
0.0
 10
265.481647
 20
173.785445
 30
0.0
  0
SPLINE
  5
116
100
AcDbEntity
  8
0
 62
4
100
AcDbSpline
 70
8
 71
3
 72
8
 73
4
 74
0
 40
0
 40
0
 40
0
 40
0
 40
1
 40
1
 40
1
 40
1
 10
265.481647
 20
173.785445
 30
0.0
 10
264.541847
 20
173.785445
 30
0.0
 10
259.748867
 20
173.785445
 30
0.0
 10
258.809067
 20
173.785445
 30
0.0
  0
SPLINE
  5
117
100
AcDbEntity
  8
0
 62
4
100
AcDbSpline
 70
8
 71
3
 72
8
 73
4
 74
0
 40
0
 40
0
 40
0
 40
0
 40
1
 40
1
 40
1
 40
1
 10
258.809067
 20
173.785445
 30
0.0
 10
258.720167
 20
173.785445
 30
0.0
 10
258.649047
 20
173.713817
 30
0.0
 10
258.649047
 20
173.625425
 30
0.0
  0
SPLINE
  5
118
100
AcDbEntity
  8
0
 62
4
100
AcDbSpline
 70
8
 71
3
 72
8
 73
4
 74
0
 40
0
 40
0
 40
0
 40
0
 40
1
 40
1
 40
1
 40
1
 10
258.649047
 20
151.408638
 30
0.0
 10
258.649047
 20
151.397462
 30
0.0
 10
258.649893
 20
151.386371
 30
0.0
 10
258.652433
 20
151.375449
 30
0.0
  0
SPLINE
  5
119
100
AcDbEntity
  8
0
 62
4
100
AcDbSpline
 70
8
 71
3
 72
8
 73
4
 74
0
 40
0
 40
0
 40
0
 40
0
 40
1
 40
1
 40
1
 40
1
 10
258.652433
 20
151.375449
 30
0.0
 10
258.745567
 20
150.933658
 30
0.0
 10
260.699673
 20
141.709902
 30
0.0
 10
260.793653
 20
141.268196
 30
0.0
  0
SPLINE
  5
11a
100
AcDbEntity
  8
0
 62
4
100
AcDbSpline
 70
8
 71
3
 72
8
 73
4
 74
0
 40
0
 40
0
 40
0
 40
0
 40
1
 40
1
 40
1
 40
1
 10
260.793653
 20
141.268196
 30
0.0
 10
260.796193
 20
141.257274
 30
0.0
 10
260.797040
 20
141.246183
 30
0.0
 10
260.797040
 20
141.235007
 30
0.0
  0
SPLINE
  5
11b
100
AcDbEntity
  8
0
 62
4
100
AcDbSpline
 70
8
 71
3
 72
8
 73
4
 74
0
 40
0
 40
0
 40
0
 40
0
 40
1
 40
1
 40
1
 40
1
 10
260.797040
 20
141.235007
 30
0.0
 10
260.797040
 20
140.223240
 30
0.0
 10
260.797040
 20
93.741240
 30
0.0
 10
260.797040
 20
90.965020
 30
0.0
  0
SPLINE
  5
11c
100
AcDbEntity
  8
0
 62
4
100
AcDbSpline
 70
8
 71
3
 72
8
 73
4
 74
0
 40
0
 40
0
 40
0
 40
0
 40
1
 40
1
 40
1
 40
1
 10
260.797040
 20
90.965020
 30
0.0
 10
260.797040
 20
90.889667
 30
0.0
 10
260.744547
 20
90.823627
 30
0.0
 10
260.670040
 20
90.808387
 30
0.0
  0
SPLINE
  5
11d
100
AcDbEntity
  8
0
 62
4
100
AcDbSpline
 70
8
 71
3
 72
8
 73
4
 74
0
 40
0
 40
0
 40
0
 40
0
 40
1
 40
1
 40
1
 40
1
 10
260.670040
 20
90.808387
 30
0.0
 10
259.090160
 20
90.472260
 30
0.0
 10
243.254107
 20
87.099987
 30
0.0
 10
242.671600
 20
86.976373
 30
0.0
  0
SPLINE
  5
11e
100
AcDbEntity
  8
0
 62
4
100
AcDbSpline
 70
8
 71
3
 72
8
 73
4
 74
0
 40
0
 40
0
 40
0
 40
0
 40
1
 40
1
 40
1
 40
1
 10
242.671600
 20
86.976373
 30
0.0
 10
242.660593
 20
86.973833
 30
0.0
 10
242.649587
 20
86.972987
 30
0.0
 10
242.638580
 20
86.972987
 30
0.0
  0
SPLINE
  5
11f
100
AcDbEntity
  8
0
 62
4
100
AcDbSpline
 70
8
 71
3
 72
8
 73
4
 74
0
 40
0
 40
0
 40
0
 40
0
 40
1
 40
1
 40
1
 40
1
 10
242.638580
 20
86.972987
 30
0.0
 10
241.483727
 20
86.972987
 30
0.0
 10
181.359387
 20
86.972987
 30
0.0
 10
179.158053
 20
86.972987
 30
0.0
  0
SPLINE
  5
120
100
AcDbEntity
  8
0
 62
4
100
AcDbSpline
 70
8
 71
3
 72
8
 73
4
 74
0
 40
0
 40
0
 40
0
 40
0
 40
1
 40
1
 40
1
 40
1
 10
179.158053
 20
86.972987
 30
0.0
 10
179.118260
 20
86.972987
 30
0.0
 10
179.080160
 20
86.987380
 30
0.0
 10
179.050527
 20
87.014473
 30
0.0
  0
SPLINE
  5
121
100
AcDbEntity
  8
0
 62
4
100
AcDbSpline
 70
8
 71
3
 72
8
 73
4
 74
0
 40
0
 40
0
 40
0
 40
0
 40
1
 40
1
 40
1
 40
1
 10
179.050527
 20
87.014473
 30
0.0
 10
178.683073
 20
87.349753
 30
0.0
 10
176.212500
 20
89.600193
 30
0.0
 10
175.844200
 20
89.935473
 30
0.0
  0
SPLINE
  5
122
100
AcDbEntity
  8
0
 62
4
100
AcDbSpline
 70
8
 71
3
 72
8
 73
4
 74
0
 40
0
 40
0
 40
0
 40
0
 40
1
 40
1
 40
1
 40
1
 10
175.844200
 20
89.935473
 30
0.0
 10
175.815413
 20
89.962567
 30
0.0
 10
175.776467
 20
89.976960
 30
0.0
 10
175.736673
 20
89.976960
 30
0.0
  0
SPLINE
  5
123
100
AcDbEntity
  8
0
 62
4
100
AcDbSpline
 70
8
 71
3
 72
8
 73
4
 74
0
 40
0
 40
0
 40
0
 40
0
 40
1
 40
1
 40
1
 40
1
 10
175.736673
 20
89.976960
 30
0.0
 10
174.166953
 20
89.976960
 30
0.0
 10
143.289867
 20
89.976960
 30
0.0
 10
142.463520
 20
89.976960
 30
0.0
  0
SPLINE
  5
124
100
AcDbEntity
  8
0
 62
4
100
AcDbSpline
 70
8
 71
3
 72
8
 73
4
 74
0
 40
0
 40
0
 40
0
 40
0
 40
1
 40
1
 40
1
 40
1
 10
142.463520
 20
89.976960
 30
0.0
 10
142.452513
 20
89.976960
 30
0.0
 10
142.441507
 20
89.976113
 30
0.0
 10
142.430500
 20
89.973573
 30
0.0
  0
SPLINE
  5
125
100
AcDbEntity
  8
0
 62
4
100
AcDbSpline
 70
8
 71
3
 72
8
 73
4
 74
0
 40
0
 40
0
 40
0
 40
0
 40
1
 40
1
 40
1
 40
1
 10
142.430500
 20
89.973573
 30
0.0
 10
141.554200
 20
89.786460
 30
0.0
 10
106.031453
 20
82.212180
 30
0.0
 10
103.963893
 20
81.771067
 30
0.0
  0
SPLINE
  5
126
100
AcDbEntity
  8
0
 62
4
100
AcDbSpline
 70
8
 71
3
 72
8
 73
4
 74
0
 40
0
 40
0
 40
0
 40
0
 40
1
 40
1
 40
1
 40
1
 10
103.963893
 20
81.771067
 30
0.0
 10
103.905473
 20
81.759213
 30
0.0
 10
103.846207
 20
81.779533
 30
0.0
 10
103.808107
 20
81.824407
 30
0.0
  0
SPLINE
  5
127
100
AcDbEntity
  8
0
 62
4
100
AcDbSpline
 70
8
 71
3
 72
8
 73
4
 74
0
 40
0
 40
0
 40
0
 40
0
 40
1
 40
1
 40
1
 40
1
 10
103.808107
 20
81.824407
 30
0.0
 10
103.151940
 20
82.603340
 30
0.0
 10
97.495360
 20
89.320793
 30
0.0
 10
96.979740
 20
89.932933
 30
0.0
  0
LWPOLYLINE
  5
128
100
AcDbEntity
  8
0
 62
4
100
AcDbPolyline
 90
2
 70
0
 10
258.649047
 20
173.625425
 30
0.0
 10
258.649047
 20
151.408638
 30
0.0
  0
LWPOLYLINE
  5
129
100
AcDbEntity
  8
0
 62
4
100
AcDbPolyline
 90
1
 70
1
 10
96.979740
 20
89.932933
 30
0.0
  0
LWPOLYLINE
  5
12a
100
AcDbEntity
  8
0
 62
4
100
AcDbPolyline
 90
5
 70
1
 10
106.304927
 20
99.595940
 30
0.0
 10
124.658120
 20
103.496533
 30
0.0
 10
127.568960
 20
89.801700
 30
0.0
 10
109.215767
 20
85.901107
 30
0.0
 10
106.304927
 20
99.595940
 30
0.0
  0
LWPOLYLINE
  5
12b
100
AcDbEntity
  8
0
 62
4
100
AcDbPolyline
 90
5
 70
1
 10
241.697933
 20
104.033320
 30
0.0
 10
255.392767
 20
106.944160
 30
0.0
 10
258.303607
 20
93.249327
 30
0.0
 10
244.608773
 20
90.338487
 30
0.0
 10
241.697933
 20
104.033320
 30
0.0
  0
LWPOLYLINE
  5
12c
100
AcDbEntity
  8
0
 62
4
100
AcDbPolyline
 90
5
 70
1
 10
222.073047
 20
104.746213
 30
0.0
 10
235.767880
 20
107.657053
 30
0.0
 10
238.678720
 20
93.962220
 30
0.0
 10
224.983887
 20
91.051380
 30
0.0
 10
222.073047
 20
104.746213
 30
0.0
  0
LWPOLYLINE
  5
12d
100
AcDbEntity
  8
0
 62
4
100
AcDbPolyline
 90
5
 70
1
 10
131.927600
 20
105.041700
 30
0.0
 10
145.622433
 20
107.952540
 30
0.0
 10
148.533273
 20
94.258553
 30
0.0
 10
134.838440
 20
91.346867
 30
0.0
 10
131.927600
 20
105.041700
 30
0.0
  0
LWPOLYLINE
  5
12e
100
AcDbEntity
  8
0
 62
4
100
AcDbPolyline
 90
5
 70
1
 10
202.444773
 20
105.435400
 30
0.0
 10
216.138760
 20
108.346240
 30
0.0
 10
219.049600
 20
94.651407
 30
0.0
 10
205.354767
 20
91.740567
 30
0.0
 10
202.444773
 20
105.435400
 30
0.0
  0
LWPOLYLINE
  5
12f
100
AcDbEntity
  8
0
 62
4
100
AcDbPolyline
 90
5
 70
1
 10
180.489860
 20
105.637753
 30
0.0
 10
194.184693
 20
108.548593
 30
0.0
 10
197.095533
 20
94.853760
 30
0.0
 10
183.400700
 20
91.942920
 30
0.0
 10
180.489860
 20
105.637753
 30
0.0
  0
SPLINE
  5
130
100
AcDbEntity
  8
0
 62
4
100
AcDbSpline
 70
8
 71
3
 72
8
 73
4
 74
0
 40
0
 40
0
 40
0
 40
0
 40
1
 40
1
 40
1
 40
1
 10
176.698487
 20
103.908013
 30
0.0
 10
177.251360
 20
103.908013
 30
0.0
 10
177.700093
 20
104.355900
 30
0.0
 10
177.700093
 20
104.908773
 30
0.0
  0
SPLINE
  5
131
100
AcDbEntity
  8
0
 62
4
100
AcDbSpline
 70
8
 71
3
 72
8
 73
4
 74
0
 40
0
 40
0
 40
0
 40
0
 40
1
 40
1
 40
1
 40
1
 10
177.700093
 20
104.908773
 30
0.0
 10
177.700093
 20
105.460800
 30
0.0
 10
177.251360
 20
105.908687
 30
0.0
 10
176.698487
 20
105.908687
 30
0.0
  0
SPLINE
  5
132
100
AcDbEntity
  8
0
 62
4
100
AcDbSpline
 70
8
 71
3
 72
8
 73
4
 74
0
 40
0
 40
0
 40
0
 40
0
 40
1
 40
1
 40
1
 40
1
 10
176.698487
 20
105.908687
 30
0.0
 10
176.148153
 20
105.908687
 30
0.0
 10
175.700267
 20
105.460800
 30
0.0
 10
175.700267
 20
104.908773
 30
0.0
  0
SPLINE
  5
133
100
AcDbEntity
  8
0
 62
4
100
AcDbSpline
 70
8
 71
3
 72
8
 73
4
 74
0
 40
0
 40
0
 40
0
 40
0
 40
1
 40
1
 40
1
 40
1
 10
175.700267
 20
104.908773
 30
0.0
 10
175.700267
 20
104.355900
 30
0.0
 10
176.148153
 20
103.908013
 30
0.0
 10
176.698487
 20
103.908013
 30
0.0
  0
LWPOLYLINE
  5
134
100
AcDbEntity
  8
0
 62
4
100
AcDbPolyline
 90
5
 70
1
 10
155.219400
 20
109.993007
 30
0.0
 10
168.914233
 20
112.903847
 30
0.0
 10
171.825073
 20
99.209013
 30
0.0
 10
158.130240
 20
96.298173
 30
0.0
 10
155.219400
 20
109.993007
 30
0.0
  0
LWPOLYLINE
  5
135
100
AcDbEntity
  8
0
 62
4
100
AcDbPolyline
 90
1
 70
1
 10
176.698487
 20
103.908013
 30
0.0
  0
SPLINE
  5
136
100
AcDbEntity
  8
0
 62
4
100
AcDbSpline
 70
8
 71
3
 72
8
 73
4
 74
0
 40
0
 40
0
 40
0
 40
0
 40
1
 40
1
 40
1
 40
1
 10
246.419793
 20
112.621907
 30
0.0
 10
245.880467
 20
112.506760
 30
0.0
 10
245.535027
 20
111.975053
 30
0.0
 10
245.649327
 20
111.435727
 30
0.0
  0
SPLINE
  5
137
100
AcDbEntity
  8
0
 62
4
100
AcDbSpline
 70
8
 71
3
 72
8
 73
4
 74
0
 40
0
 40
0
 40
0
 40
0
 40
1
 40
1
 40
1
 40
1
 10
245.649327
 20
111.435727
 30
0.0
 10
245.764473
 20
110.895553
 30
0.0
 10
246.296180
 20
110.550113
 30
0.0
 10
246.835507
 20
110.665260
 30
0.0
  0
SPLINE
  5
138
100
AcDbEntity
  8
0
 62
4
100
AcDbSpline
 70
8
 71
3
 72
8
 73
4
 74
0
 40
0
 40
0
 40
0
 40
0
 40
1
 40
1
 40
1
 40
1
 10
246.835507
 20
110.665260
 30
0.0
 10
247.375680
 20
110.779560
 30
0.0
 10
247.721120
 20
111.311267
 30
0.0
 10
247.605973
 20
111.851440
 30
0.0
  0
SPLINE
  5
139
100
AcDbEntity
  8
0
 62
4
100
AcDbSpline
 70
8
 71
3
 72
8
 73
4
 74
0
 40
0
 40
0
 40
0
 40
0
 40
1
 40
1
 40
1
 40
1
 10
247.605973
 20
111.851440
 30
0.0
 10
247.490827
 20
112.390767
 30
0.0
 10
246.959967
 20
112.736207
 30
0.0
 10
246.419793
 20
112.621907
 30
0.0
  0
LWPOLYLINE
  5
13a
100
AcDbEntity
  8
0
 62
4
100
AcDbPolyline
 90
5
 70
1
 10
107.002580
 20
119.219133
 30
0.0
 10
120.697413
 20
122.129973
 30
0.0
 10
123.608253
 20
108.435987
 30
0.0
 10
109.913420
 20
105.525147
 30
0.0
 10
107.002580
 20
119.219133
 30
0.0
  0
LWPOLYLINE
  5
13b
100
AcDbEntity
  8
0
 62
4
100
AcDbPolyline
 90
1
 70
1
 10
246.419793
 20
112.621907
 30
0.0
  0
SPLINE
  5
13c
100
AcDbEntity
  8
0
 62
4
100
AcDbSpline
 70
8
 71
3
 72
8
 73
4
 74
0
 40
0
 40
0
 40
0
 40
0
 40
1
 40
1
 40
1
 40
1
 10
103.074893
 20
112.677787
 30
0.0
 10
102.534720
 20
112.562640
 30
0.0
 10
102.190127
 20
112.030933
 30
0.0
 10
102.304427
 20
111.491607
 30
0.0
  0
SPLINE
  5
13d
100
AcDbEntity
  8
0
 62
4
100
AcDbSpline
 70
8
 71
3
 72
8
 73
4
 74
0
 40
0
 40
0
 40
0
 40
0
 40
1
 40
1
 40
1
 40
1
 10
102.304427
 20
111.491607
 30
0.0
 10
102.419573
 20
110.951433
 30
0.0
 10
102.950433
 20
110.605993
 30
0.0
 10
103.490607
 20
110.721140
 30
0.0
  0
SPLINE
  5
13e
100
AcDbEntity
  8
0
 62
4
100
AcDbSpline
 70
8
 71
3
 72
8
 73
4
 74
0
 40
0
 40
0
 40
0
 40
0
 40
1
 40
1
 40
1
 40
1
 10
103.490607
 20
110.721140
 30
0.0
 10
104.030780
 20
110.836287
 30
0.0
 10
104.375373
 20
111.367147
 30
0.0
 10
104.261073
 20
111.907320
 30
0.0
  0
SPLINE
  5
13f
100
AcDbEntity
  8
0
 62
4
100
AcDbSpline
 70
8
 71
3
 72
8
 73
4
 74
0
 40
0
 40
0
 40
0
 40
0
 40
1
 40
1
 40
1
 40
1
 10
104.261073
 20
111.907320
 30
0.0
 10
104.145927
 20
112.447493
 30
0.0
 10
103.615067
 20
112.792087
 30
0.0
 10
103.074893
 20
112.677787
 30
0.0
  0
LWPOLYLINE
  5
140
100
AcDbEntity
  8
0
 62
4
100
AcDbPolyline
 90
5
 70
1
 10
222.774933
 20
124.370253
 30
0.0
 10
236.468920
 20
127.281517
 30
0.0
 10
239.379760
 20
113.587107
 30
0.0
 10
225.685773
 20
110.676267
 30
0.0
 10
222.774933
 20
124.370253
 30
0.0
  0
LWPOLYLINE
  5
141
100
AcDbEntity
  8
0
 62
4
100
AcDbPolyline
 90
1
 70
1
 10
103.074893
 20
112.677787
 30
0.0
  0
LWPOLYLINE
  5
142
100
AcDbEntity
  8
0
 62
4
100
AcDbPolyline
 90
5
 70
1
 10
203.145813
 20
125.060287
 30
0.0
 10
216.840647
 20
127.970873
 30
0.0
 10
219.751487
 20
114.276293
 30
0.0
 10
206.056653
 20
111.365453
 30
0.0
 10
203.145813
 20
125.060287
 30
0.0
  0
LWPOLYLINE
  5
143
100
AcDbEntity
  8
0
 62
4
100
AcDbPolyline
 90
5
 70
1
 10
125.141567
 20
125.508089
 30
0.0
 10
138.836400
 20
128.418929
 30
0.0
 10
141.747240
 20
114.724180
 30
0.0
 10
128.052407
 20
111.813340
 30
0.0
 10
125.141567
 20
125.508089
 30
0.0
  0
LWPOLYLINE
  5
144
100
AcDbEntity
  8
0
 62
4
100
AcDbPolyline
 90
5
 70
1
 10
183.515847
 20
125.756416
 30
0.0
 10
197.210680
 20
128.667256
 30
0.0
 10
200.121520
 20
114.973100
 30
0.0
 10
186.426687
 20
112.062260
 30
0.0
 10
183.515847
 20
125.756416
 30
0.0
  0
LWPOLYLINE
  5
145
100
AcDbEntity
  8
0
 62
4
100
AcDbPolyline
 90
5
 70
1
 10
241.414300
 20
128.332653
 30
0.0
 10
255.109133
 20
131.243493
 30
0.0
 10
258.019973
 20
117.548660
 30
0.0
 10
244.325140
 20
114.637820
 30
0.0
 10
241.414300
 20
128.332653
 30
0.0
  0
LWPOLYLINE
  5
146
100
AcDbEntity
  8
0
 62
4
100
AcDbPolyline
 90
5
 70
1
 10
100.686447
 20
120.096280
 30
0.0
 10
103.119767
 20
120.613593
 30
0.0
 10
103.743760
 20
117.679047
 30
0.0
 10
101.310440
 20
117.161733
 30
0.0
 10
100.686447
 20
120.096280
 30
0.0
  0
LWPOLYLINE
  5
147
100
AcDbEntity
  8
0
 62
4
100
AcDbPolyline
 90
5
 70
1
 10
143.279707
 20
131.799245
 30
0.0
 10
156.974540
 20
134.710085
 30
0.0
 10
159.885380
 20
121.015760
 30
0.0
 10
146.190547
 20
118.104920
 30
0.0
 10
143.279707
 20
131.799245
 30
0.0
  0
LWPOLYLINE
  5
148
100
AcDbEntity
  8
0
 62
4
100
AcDbPolyline
 90
5
 70
1
 10
162.409293
 20
133.429502
 30
0.0
 10
176.103280
 20
136.340342
 30
0.0
 10
179.014120
 20
122.645593
 30
0.0
 10
165.320133
 20
119.734753
 30
0.0
 10
162.409293
 20
133.429502
 30
0.0
  0
LWPOLYLINE
  5
149
100
AcDbEntity
  8
0
 62
4
100
AcDbPolyline
 90
5
 70
1
 10
103.041873
 20
137.853081
 30
0.0
 10
116.736707
 20
140.763921
 30
0.0
 10
119.647547
 20
127.069427
 30
0.0
 10
105.952713
 20
124.158587
 30
0.0
 10
103.041873
 20
137.853081
 30
0.0
  0
LWPOLYLINE
  5
14a
100
AcDbEntity
  8
0
 62
4
100
AcDbPolyline
 90
5
 70
1
 10
98.893207
 20
128.536869
 30
0.0
 10
101.325680
 20
129.054098
 30
0.0
 10
101.949673
 20
126.119636
 30
0.0
 10
99.516353
 20
125.602492
 30
0.0
 10
98.893207
 20
128.536869
 30
0.0
  0
LWPOLYLINE
  5
14b
100
AcDbEntity
  8
0
 62
4
100
AcDbPolyline
 90
5
 70
1
 10
199.185107
 20
143.693642
 30
0.0
 10
212.873167
 20
146.603212
 30
0.0
 10
215.784007
 20
132.908717
 30
0.0
 10
202.095947
 20
129.999147
 30
0.0
 10
199.185107
 20
143.693642
 30
0.0
  0
LWPOLYLINE
  5
14c
100
AcDbEntity
  8
0
 62
4
100
AcDbPolyline
 90
5
 70
1
 10
121.180860
 20
144.141698
 30
0.0
 10
134.875693
 20
147.052538
 30
0.0
 10
137.786533
 20
133.358043
 30
0.0
 10
124.091700
 20
130.447203
 30
0.0
 10
121.180860
 20
144.141698
 30
0.0
  0
LWPOLYLINE
  5
14d
100
AcDbEntity
  8
0
 62
4
100
AcDbPolyline
 90
5
 70
1
 10
179.555140
 20
144.390025
 30
0.0
 10
193.249127
 20
147.300865
 30
0.0
 10
196.160813
 20
133.606371
 30
0.0
 10
182.465980
 20
130.695531
 30
0.0
 10
179.555140
 20
144.390025
 30
0.0
  0
LWPOLYLINE
  5
14e
100
AcDbEntity
  8
0
 62
4
100
AcDbPolyline
 90
37
 70
1
 10
230.445733
 20
145.482649
 30
0.0
 10
244.139720
 20
148.393404
 30
0.0
 10
245.116773
 20
143.796089
 30
0.0
 10
246.603520
 20
144.112149
 30
0.0
 10
245.673880
 20
148.484421
 30
0.0
 10
247.361287
 20
148.843069
 30
0.0
 10
247.111520
 20
150.016887
 30
0.0
 10
250.339860
 20
150.703026
 30
0.0
 10
250.589627
 20
149.529207
 30
0.0
 10
252.276187
 20
149.887855
 30
0.0
 10
253.583440
 20
143.740209
 30
0.0
 10
254.395393
 20
143.912759
 30
0.0
 10
254.974513
 20
141.188609
 30
0.0
 10
254.162560
 20
141.016059
 30
0.0
 10
254.833967
 20
137.856637
 30
0.0
 10
248.231660
 20
136.453203
 30
0.0
 10
247.559407
 20
139.612624
 30
0.0
 10
246.073507
 20
139.296648
 30
0.0
 10
247.050560
 20
134.699333
 30
0.0
 10
233.356573
 20
131.788577
 30
0.0
 10
232.378673
 20
136.385893
 30
0.0
 10
230.891927
 20
136.069832
 30
0.0
 10
231.564180
 20
132.910411
 30
0.0
 10
224.961027
 20
131.506976
 30
0.0
 10
224.289620
 20
134.666397
 30
0.0
 10
223.477667
 20
134.493847
 30
0.0
 10
222.898547
 20
137.217997
 30
0.0
 10
223.710500
 20
137.390547
 30
0.0
 10
222.404093
 20
143.538194
 30
0.0
 10
224.091500
 20
143.896842
 30
0.0
 10
223.841733
 20
145.070661
 30
0.0
 10
227.070073
 20
145.756799
 30
0.0
 10
227.318993
 20
144.582981
 30
0.0
 10
229.006400
 20
144.941629
 30
0.0
 10
229.936040
 20
140.569357
 30
0.0
 10
231.422787
 20
140.885333
 30
0.0
 10
230.445733
 20
145.482649
 30
0.0
  0
LWPOLYLINE
  5
14f
100
AcDbEntity
  8
0
 62
4
100
AcDbPolyline
 90
5
 70
1
 10
139.319000
 20
150.432855
 30
0.0
 10
153.013833
 20
153.343695
 30
0.0
 10
155.924673
 20
139.649200
 30
0.0
 10
142.229840
 20
136.738360
 30
0.0
 10
139.319000
 20
150.432855
 30
0.0
  0
LWPOLYLINE
  5
150
100
AcDbEntity
  8
0
 62
4
100
AcDbPolyline
 90
5
 70
1
 10
158.448587
 20
152.063111
 30
0.0
 10
172.142573
 20
154.973951
 30
0.0
 10
175.053413
 20
141.279457
 30
0.0
 10
161.359427
 20
138.368617
 30
0.0
 10
158.448587
 20
152.063111
 30
0.0
  0
SPLINE
  5
151
100
AcDbEntity
  8
0
 62
4
100
AcDbSpline
 70
8
 71
3
 72
8
 73
4
 74
0
 40
0
 40
0
 40
0
 40
0
 40
1
 40
1
 40
1
 40
1
 10
120.367213
 20
145.554954
 30
0.0
 10
120.920087
 20
145.554954
 30
0.0
 10
121.368820
 20
146.002163
 30
0.0
 10
121.368820
 20
146.555121
 30
0.0
  0
SPLINE
  5
152
100
AcDbEntity
  8
0
 62
4
100
AcDbSpline
 70
8
 71
3
 72
8
 73
4
 74
0
 40
0
 40
0
 40
0
 40
0
 40
1
 40
1
 40
1
 40
1
 10
121.368820
 20
146.555121
 30
0.0
 10
121.368820
 20
147.106894
 30
0.0
 10
120.920087
 20
147.554950
 30
0.0
 10
120.367213
 20
147.554950
 30
0.0
  0
SPLINE
  5
153
100
AcDbEntity
  8
0
 62
4
100
AcDbSpline
 70
8
 71
3
 72
8
 73
4
 74
0
 40
0
 40
0
 40
0
 40
0
 40
1
 40
1
 40
1
 40
1
 10
120.367213
 20
147.554950
 30
0.0
 10
119.817727
 20
147.554950
 30
0.0
 10
119.368993
 20
147.106894
 30
0.0
 10
119.368993
 20
146.555121
 30
0.0
  0
SPLINE
  5
154
100
AcDbEntity
  8
0
 62
4
100
AcDbSpline
 70
8
 71
3
 72
8
 73
4
 74
0
 40
0
 40
0
 40
0
 40
0
 40
1
 40
1
 40
1
 40
1
 10
119.368993
 20
146.555121
 30
0.0
 10
119.368993
 20
146.002163
 30
0.0
 10
119.817727
 20
145.554954
 30
0.0
 10
120.367213
 20
145.554954
 30
0.0
  0
LWPOLYLINE
  5
155
100
AcDbEntity
  8
0
 62
4
100
AcDbPolyline
 90
5
 70
1
 10
99.081167
 20
156.486691
 30
0.0
 10
112.776000
 20
159.397531
 30
0.0
 10
115.686840
 20
145.703036
 30
0.0
 10
101.992007
 20
142.792196
 30
0.0
 10
99.081167
 20
156.486691
 30
0.0
  0
LWPOLYLINE
  5
156
100
AcDbEntity
  8
0
 62
4
100
AcDbPolyline
 90
1
 70
1
 10
120.367213
 20
145.554954
 30
0.0
  0
LWPOLYLINE
  5
157
100
AcDbEntity
  8
0
 62
4
100
AcDbPolyline
 90
5
 70
1
 10
214.841667
 20
161.628328
 30
0.0
 10
228.536500
 20
164.539168
 30
0.0
 10
231.447340
 20
150.844673
 30
0.0
 10
217.752507
 20
147.933749
 30
0.0
 10
214.841667
 20
161.628328
 30
0.0
  0
LWPOLYLINE
  5
158
100
AcDbEntity
  8
0
 62
4
100
AcDbPolyline
 90
5
 70
1
 10
195.218473
 20
162.325981
 30
0.0
 10
208.912460
 20
165.236821
 30
0.0
 10
211.823300
 20
151.542327
 30
0.0
 10
198.129313
 20
148.631487
 30
0.0
 10
195.218473
 20
162.325981
 30
0.0
  0
LWPOLYLINE
  5
159
100
AcDbEntity
  8
0
 62
4
100
AcDbPolyline
 90
5
 70
1
 10
117.220153
 20
162.775392
 30
0.0
 10
130.914987
 20
165.686232
 30
0.0
 10
133.825827
 20
151.991737
 30
0.0
 10
120.130993
 20
149.080897
 30
0.0
 10
117.220153
 20
162.775392
 30
0.0
  0
SPLINE
  5
15a
100
AcDbEntity
  8
0
 62
4
100
AcDbSpline
 70
8
 71
3
 72
8
 73
4
 74
0
 40
0
 40
0
 40
0
 40
0
 40
1
 40
1
 40
1
 40
1
 10
255.424093
 20
152.259961
 30
0.0
 10
255.977813
 20
152.259961
 30
0.0
 10
256.425700
 20
152.707255
 30
0.0
 10
256.425700
 20
153.260129
 30
0.0
  0
SPLINE
  5
15b
100
AcDbEntity
  8
0
 62
4
100
AcDbSpline
 70
8
 71
3
 72
8
 73
4
 74
0
 40
0
 40
0
 40
0
 40
0
 40
1
 40
1
 40
1
 40
1
 10
256.425700
 20
153.260129
 30
0.0
 10
256.425700
 20
153.811986
 30
0.0
 10
255.977813
 20
154.259957
 30
0.0
 10
255.424093
 20
154.259957
 30
0.0
  0
SPLINE
  5
15c
100
AcDbEntity
  8
0
 62
4
100
AcDbSpline
 70
8
 71
3
 72
8
 73
4
 74
0
 40
0
 40
0
 40
0
 40
0
 40
1
 40
1
 40
1
 40
1
 10
255.424093
 20
154.259957
 30
0.0
 10
254.874607
 20
154.259957
 30
0.0
 10
254.425873
 20
153.811986
 30
0.0
 10
254.425873
 20
153.260129
 30
0.0
  0
SPLINE
  5
15d
100
AcDbEntity
  8
0
 62
4
100
AcDbSpline
 70
8
 71
3
 72
8
 73
4
 74
0
 40
0
 40
0
 40
0
 40
0
 40
1
 40
1
 40
1
 40
1
 10
254.425873
 20
153.260129
 30
0.0
 10
254.425873
 20
152.707255
 30
0.0
 10
254.874607
 20
152.259961
 30
0.0
 10
255.424093
 20
152.259961
 30
0.0
  0
LWPOLYLINE
  5
15e
100
AcDbEntity
  8
0
 62
4
100
AcDbPolyline
 90
5
 70
1
 10
175.594433
 20
163.023719
 30
0.0
 10
189.289267
 20
165.934559
 30
0.0
 10
192.200107
 20
152.240065
 30
0.0
 10
178.505273
 20
149.329225
 30
0.0
 10
175.594433
 20
163.023719
 30
0.0
  0
LWPOLYLINE
  5
15f
100
AcDbEntity
  8
0
 62
4
100
AcDbPolyline
 90
1
 70
1
 10
255.424093
 20
152.259961
 30
0.0
  0
LWPOLYLINE
  5
160
100
AcDbEntity
  8
0
 62
4
100
AcDbPolyline
 90
5
 70
1
 10
238.137700
 20
166.576163
 30
0.0
 10
251.831687
 20
169.487003
 30
0.0
 10
254.742527
 20
155.792509
 30
0.0
 10
241.048540
 20
152.881669
 30
0.0
 10
238.137700
 20
166.576163
 30
0.0
  0
LWPOLYLINE
  5
161
100
AcDbEntity
  8
0
 62
4
100
AcDbPolyline
 90
5
 70
1
 10
135.358293
 20
169.066549
 30
0.0
 10
149.053127
 20
171.977389
 30
0.0
 10
151.963967
 20
158.282894
 30
0.0
 10
138.269133
 20
155.372054
 30
0.0
 10
135.358293
 20
169.066549
 30
0.0
  0
LWPOLYLINE
  5
162
100
AcDbEntity
  8
0
 62
4
100
AcDbPolyline
 90
5
 70
1
 10
154.487880
 20
170.696805
 30
0.0
 10
168.181867
 20
173.607645
 30
0.0
 10
171.092707
 20
159.913151
 30
0.0
 10
157.398720
 20
157.002311
 30
0.0
 10
154.487880
 20
170.696805
 30
0.0
  0
LWPOLYLINE
  5
163
100
AcDbEntity
  8
0
 62
4
100
AcDbPolyline
 90
5
 70
1
 10
95.120460
 20
175.120385
 30
0.0
 10
108.815293
 20
178.031225
 30
0.0
 10
111.726133
 20
164.336730
 30
0.0
 10
98.031300
 20
161.425890
 30
0.0
 10
95.120460
 20
175.120385
 30
0.0
  0
LWPOLYLINE
  5
164
100
AcDbEntity
  8
0
 62
4
100
AcDbPolyline
 90
13
 70
1
 10
243.177060
 20
172.791713
 30
0.0
 10
243.377720
 20
171.849796
 30
0.0
 10
240.149380
 20
171.163657
 30
0.0
 10
239.949567
 20
172.105574
 30
0.0
 10
219.907273
 20
167.845486
 30
0.0
 10
220.107087
 20
166.903569
 30
0.0
 10
216.879593
 20
166.217431
 30
0.0
 10
216.678933
 20
167.159347
 30
0.0
 10
213.792647
 20
166.567781
 30
0.0
 10
210.881807
 20
180.262361
 30
0.0
 10
243.219393
 20
187.113926
 30
0.0
 10
246.130233
 20
173.419431
 30
0.0
 10
243.177060
 20
172.791713
 30
0.0
  0
LWPOLYLINE
  5
165
100
AcDbEntity
  8
0
 62
4
100
AcDbPolyline
 90
5
 70
1
 10
191.257767
 20
180.959675
 30
0.0
 10
204.951753
 20
183.870515
 30
0.0
 10
207.862593
 20
170.176021
 30
0.0
 10
194.168607
 20
167.265181
 30
0.0
 10
191.257767
 20
180.959675
 30
0.0
  0
LWPOLYLINE
  5
166
100
AcDbEntity
  8
0
 62
4
100
AcDbPolyline
 90
5
 70
1
 10
113.259447
 20
181.409086
 30
0.0
 10
126.954280
 20
184.319926
 30
0.0
 10
129.865120
 20
170.625431
 30
0.0
 10
116.170287
 20
167.714507
 30
0.0
 10
113.259447
 20
181.409086
 30
0.0
  0
LWPOLYLINE
  5
167
100
AcDbEntity
  8
0
 62
4
100
AcDbPolyline
 90
5
 70
1
 10
171.633727
 20
181.657329
 30
0.0
 10
185.327713
 20
184.568253
 30
0.0
 10
188.239400
 20
170.873759
 30
0.0
 10
174.544567
 20
167.962834
 30
0.0
 10
171.633727
 20
181.657329
 30
0.0
  0
LWPOLYLINE
  5
168
100
AcDbEntity
  8
0
 62
4
100
AcDbPolyline
 90
5
 70
1
 10
131.397587
 20
187.700243
 30
0.0
 10
145.092420
 20
190.611083
 30
0.0
 10
148.003260
 20
176.916588
 30
0.0
 10
134.308427
 20
174.005663
 30
0.0
 10
131.397587
 20
187.700243
 30
0.0
  0
SPLINE
  5
169
100
AcDbEntity
  8
0
 62
4
100
AcDbSpline
 70
8
 71
3
 72
8
 73
4
 74
0
 40
0
 40
0
 40
0
 40
0
 40
1
 40
1
 40
1
 40
1
 10
169.107273
 20
180.485373
 30
0.0
 10
169.660993
 20
180.485373
 30
0.0
 10
170.108880
 20
180.932667
 30
0.0
 10
170.108880
 20
181.485540
 30
0.0
  0
SPLINE
  5
16a
100
AcDbEntity
  8
0
 62
4
100
AcDbSpline
 70
8
 71
3
 72
8
 73
4
 74
0
 40
0
 40
0
 40
0
 40
0
 40
1
 40
1
 40
1
 40
1
 10
170.108880
 20
181.485540
 30
0.0
 10
170.108880
 20
182.037397
 30
0.0
 10
169.660993
 20
182.485369
 30
0.0
 10
169.107273
 20
182.485369
 30
0.0
  0
SPLINE
  5
16b
100
AcDbEntity
  8
0
 62
4
100
AcDbSpline
 70
8
 71
3
 72
8
 73
4
 74
0
 40
0
 40
0
 40
0
 40
0
 40
1
 40
1
 40
1
 40
1
 10
169.107273
 20
182.485369
 30
0.0
 10
168.557787
 20
182.485369
 30
0.0
 10
168.109053
 20
182.037397
 30
0.0
 10
168.109053
 20
181.485540
 30
0.0
  0
SPLINE
  5
16c
100
AcDbEntity
  8
0
 62
4
100
AcDbSpline
 70
8
 71
3
 72
8
 73
4
 74
0
 40
0
 40
0
 40
0
 40
0
 40
1
 40
1
 40
1
 40
1
 10
168.109053
 20
181.485540
 30
0.0
 10
168.109053
 20
180.932667
 30
0.0
 10
168.557787
 20
180.485373
 30
0.0
 10
169.107273
 20
180.485373
 30
0.0
  0
LWPOLYLINE
  5
16d
100
AcDbEntity
  8
0
 62
4
100
AcDbPolyline
 90
5
 70
1
 10
150.527173
 20
189.330499
 30
0.0
 10
164.221160
 20
192.241339
 30
0.0
 10
167.132000
 20
178.546845
 30
0.0
 10
153.438013
 20
175.635920
 30
0.0
 10
150.527173
 20
189.330499
 30
0.0
  0
SPLINE
  5
16e
100
AcDbEntity
  8
0
 62
4
100
AcDbSpline
 70
8
 71
3
 72
8
 73
4
 74
0
 40
0
 40
0
 40
0
 40
0
 40
1
 40
1
 40
1
 40
1
 10
222.136547
 20
189.920033
 30
0.0
 10
221.597220
 20
189.805310
 30
0.0
 10
221.251780
 20
189.273857
 30
0.0
 10
221.366927
 20
188.734023
 30
0.0
  0
SPLINE
  5
16f
100
AcDbEntity
  8
0
 62
4
100
AcDbSpline
 70
8
 71
3
 72
8
 73
4
 74
0
 40
0
 40
0
 40
0
 40
0
 40
1
 40
1
 40
1
 40
1
 10
221.366927
 20
188.734023
 30
0.0
 10
221.481227
 20
188.194103
 30
0.0
 10
222.012933
 20
187.849002
 30
0.0
 10
222.553107
 20
187.963725
 30
0.0
  0
SPLINE
  5
170
100
AcDbEntity
  8
0
 62
4
100
AcDbSpline
 70
8
 71
3
 72
8
 73
4
 74
0
 40
0
 40
0
 40
0
 40
0
 40
1
 40
1
 40
1
 40
1
 10
222.553107
 20
187.963725
 30
0.0
 10
223.092433
 20
188.078533
 30
0.0
 10
223.437873
 20
188.609986
 30
0.0
 10
223.322727
 20
189.149821
 30
0.0
  0
SPLINE
  5
171
100
AcDbEntity
  8
0
 62
4
100
AcDbSpline
 70
8
 71
3
 72
8
 73
4
 74
0
 40
0
 40
0
 40
0
 40
0
 40
1
 40
1
 40
1
 40
1
 10
223.322727
 20
189.149821
 30
0.0
 10
223.208427
 20
189.689655
 30
0.0
 10
222.676720
 20
190.034757
 30
0.0
 10
222.136547
 20
189.920033
 30
0.0
  0
LWPOLYLINE
  5
172
100
AcDbEntity
  8
0
 62
4
100
AcDbPolyline
 90
1
 70
1
 10
169.107273
 20
180.485373
 30
0.0
  0
SPLINE
  5
173
100
AcDbEntity
  8
0
 62
4
100
AcDbSpline
 70
8
 71
3
 72
8
 73
4
 74
0
 40
0
 40
0
 40
0
 40
0
 40
1
 40
1
 40
1
 40
1
 10
124.567527
 20
190.920370
 30
0.0
 10
124.027353
 20
190.805647
 30
0.0
 10
123.681913
 20
190.274194
 30
0.0
 10
123.797060
 20
189.734359
 30
0.0
  0
SPLINE
  5
174
100
AcDbEntity
  8
0
 62
4
100
AcDbSpline
 70
8
 71
3
 72
8
 73
4
 74
0
 40
0
 40
0
 40
0
 40
0
 40
1
 40
1
 40
1
 40
1
 10
123.797060
 20
189.734359
 30
0.0
 10
123.911360
 20
189.194440
 30
0.0
 10
124.443067
 20
188.849339
 30
0.0
 10
124.983240
 20
188.964062
 30
0.0
  0
SPLINE
  5
175
100
AcDbEntity
  8
0
 62
4
100
AcDbSpline
 70
8
 71
3
 72
8
 73
4
 74
0
 40
0
 40
0
 40
0
 40
0
 40
1
 40
1
 40
1
 40
1
 10
124.983240
 20
188.964062
 30
0.0
 10
125.522567
 20
189.078870
 30
0.0
 10
125.868007
 20
189.610323
 30
0.0
 10
125.753707
 20
190.150157
 30
0.0
  0
SPLINE
  5
176
100
AcDbEntity
  8
0
 62
4
100
AcDbSpline
 70
8
 71
3
 72
8
 73
4
 74
0
 40
0
 40
0
 40
0
 40
0
 40
1
 40
1
 40
1
 40
1
 10
125.753707
 20
190.150157
 30
0.0
 10
125.638560
 20
190.689992
 30
0.0
 10
125.106853
 20
191.035093
 30
0.0
 10
124.567527
 20
190.920370
 30
0.0
  0
LWPOLYLINE
  5
177
100
AcDbEntity
  8
0
 62
4
100
AcDbPolyline
 90
1
 70
1
 10
222.136547
 20
189.920033
 30
0.0
  0
LWPOLYLINE
  5
178
100
AcDbEntity
  8
0
 62
4
100
AcDbPolyline
 90
1
 70
1
 10
124.567527
 20
190.920370
 30
0.0
  0
ENDSEC
  0
SECTION
  2
OBJECTS
  0
DICTIONARY
  5
C
330
0
100
AcDbDictionary
  3
ACAD_GROUP
350
D
  3
ACAD_MLINESTYLE
350
17
  0
DICTIONARY
  5
D
330
C
100
AcDbDictionary
  0
DICTIONARY
  5
1A
330
C
100
AcDbDictionary
  0
DICTIONARY
  5
17
330
C
100
AcDbDictionary
  3
STANDARD
350
18
  0
DICTIONARY
  5
19
330
C
100
AcDbDictionary
  0
ENDSEC
  0
EOF
