<?xml version="1.0" encoding="UTF-8" standalone="no"?>
<!DOCTYPE svg PUBLIC "-//W3C//DTD SVG 1.1//EN" "http://www.w3.org/Graphics/SVG/1.1/DTD/svg11.dtd">
<svg width="100%" height="100%" viewBox="0 0 1123 794" version="1.1" xmlns="http://www.w3.org/2000/svg" xmlns:xlink="http://www.w3.org/1999/xlink" xml:space="preserve" xmlns:serif="http://www.serif.com/" style="fill-rule:evenodd;clip-rule:evenodd;stroke-linecap:round;stroke-linejoin:round;stroke-miterlimit:1.5;">
    <g transform="matrix(0.32,0,0,0.32,0,0)">
        <g id="Split-Left-Keyplate" serif:id="Split Left Keyplate">
            <path id="Split-Left-Keyplate1" serif:id="Split Left Keyplate" d="M1145.43,1419.05C1145.15,1418.7 1144.99,1418.27 1144.99,1417.83C1144.99,1398.29 1144.99,969.823 1144.99,951.035C1144.99,950.622 1145.12,950.22 1145.37,949.891C1149.38,944.628 1183.28,900.025 1187.92,893.922C1188.25,893.483 1188.38,892.921 1188.26,892.382C1184.96,876.962 1137.67,656.352 1133.33,636.068C1133.14,635.198 1132.37,634.576 1131.48,634.574C1124.04,634.563 1091.59,634.515 1083.39,634.503C1082.35,634.501 1081.5,633.656 1081.5,632.613C1081.5,607.174 1081.5,332.719 1081.5,310.212C1081.5,309.35 1082.09,308.596 1082.92,308.382C1112.73,300.732 1601.9,175.184 1614.08,172.059C1614.23,172.02 1614.39,172 1614.55,172C1624.58,172 1947.68,172 1962.1,172C1962.43,172 1962.75,172.084 1963.04,172.245C1967.1,174.548 1998.53,192.337 2002.6,194.64C2002.88,194.801 2003.2,194.885 2003.53,194.885C2029.77,194.885 3084.89,194.885 3135.61,194.885C3136.11,194.885 3136.59,195.084 3136.95,195.439C3137.3,195.793 3137.5,196.274 3137.5,196.775C3137.5,217.705 3137.5,405.846 3137.5,426.776C3137.5,427.82 3136.65,428.666 3135.61,428.666C3124.51,428.666 3067.9,428.666 3056.8,428.666C3055.75,428.666 3054.91,429.512 3054.91,430.556L3054.91,692.959C3054.91,693.091 3054.92,693.222 3054.95,693.351C3056.05,698.569 3079.13,807.511 3080.24,812.728C3080.27,812.857 3080.28,812.988 3080.28,813.12C3080.28,825.07 3080.28,1374.07 3080.28,1406.86C3080.28,1407.75 3079.66,1408.53 3078.78,1408.71C3060.12,1412.68 2873.08,1452.51 2866.2,1453.97C2866.07,1454 2865.94,1454.01 2865.81,1454.01C2852.17,1454.01 2142.04,1454.01 2116.04,1454.01C2115.57,1454.01 2115.12,1453.84 2114.77,1453.52C2110.43,1449.56 2081.25,1422.98 2076.9,1419.02C2076.56,1418.7 2076.1,1418.53 2075.63,1418.53C2057.09,1418.53 1692.4,1418.53 1682.64,1418.53C1682.51,1418.53 1682.38,1418.54 1682.25,1418.57C1671.9,1420.78 1252.34,1510.24 1227.92,1515.45C1227.23,1515.59 1226.53,1515.35 1226.08,1514.82C1218.33,1505.62 1151.52,1426.28 1145.43,1419.05ZM1255.57,1304.92L1472.34,1258.85L1506.72,1420.6L1289.95,1466.67L1255.57,1304.92ZM2854.7,1252.51L3016.45,1218.13L3050.83,1379.88L2889.08,1414.26L2854.7,1252.51ZM2622.91,1244.09L2784.66,1209.71L2819.04,1371.46L2657.29,1405.84L2622.91,1244.09ZM1558.2,1240.6L1719.95,1206.22L1754.33,1367.96L1592.58,1402.35L1558.2,1240.6ZM2391.08,1235.95L2552.82,1201.57L2587.2,1363.32L2425.45,1397.7L2391.08,1235.95ZM2131.77,1233.56L2293.52,1199.18L2327.9,1360.93L2166.15,1395.31L2131.77,1233.56ZM1833.3,1182.12L1995.05,1147.74L2029.43,1309.49L1867.68,1343.87L1833.3,1182.12ZM2086.99,1253.99C2093.52,1253.99 2098.82,1248.7 2098.82,1242.17C2098.82,1235.65 2093.52,1230.36 2086.99,1230.36C2080.49,1230.36 2075.2,1235.65 2075.2,1242.17C2075.2,1248.7 2080.49,1253.99 2086.99,1253.99ZM1263.81,1073.15L1425.56,1038.77L1459.94,1200.51L1298.19,1234.89L1263.81,1073.15ZM2910.47,1151.07C2904.1,1152.43 2900.02,1158.71 2901.37,1165.08C2902.73,1171.46 2909.01,1175.54 2915.38,1174.18C2921.76,1172.83 2925.84,1166.55 2924.48,1160.17C2923.12,1153.8 2916.85,1149.72 2910.47,1151.07ZM2631.2,1012.31L2792.94,977.925L2827.32,1139.67L2665.58,1174.05L2631.2,1012.31ZM1217.42,1150.41C1211.04,1151.77 1206.97,1158.05 1208.32,1164.42C1209.68,1170.8 1215.95,1174.88 1222.33,1173.52C1228.71,1172.16 1232.78,1165.89 1231.43,1159.51C1230.07,1153.13 1223.8,1149.06 1217.42,1150.41ZM2399.36,1004.16L2561.11,969.783L2595.49,1131.53L2433.74,1165.91L2399.36,1004.16ZM1478.05,998.871L1639.8,964.491L1674.18,1126.24L1512.43,1160.62L1478.05,998.871ZM2167.51,995.938L2329.26,961.558L2363.64,1123.3L2201.89,1157.68L2167.51,995.938ZM2851.35,965.51L3013.1,931.13L3047.48,1092.88L2885.73,1127.26L2851.35,965.51ZM1189.21,1062.79L1217.95,1056.68L1225.32,1091.34L1196.58,1097.45L1189.21,1062.79ZM1692.28,924.566L1854.03,890.186L1888.41,1051.93L1726.66,1086.31L1692.28,924.566ZM1918.22,905.311L2079.96,870.931L2114.34,1032.68L1952.6,1067.06L1918.22,905.311ZM1217.03,853.064L1378.78,818.684L1413.16,980.43L1251.41,1014.81L1217.03,853.064ZM1168.03,963.098L1196.76,956.989L1204.13,991.648L1175.39,997.756L1168.03,963.098ZM2352.58,784.081L2514.25,749.716L2548.63,911.462L2386.96,945.827L2352.58,784.081ZM1431.27,778.789L1593.02,744.409L1627.4,906.155L1465.65,940.535L1431.27,778.789ZM2120.73,775.856L2282.47,741.476L2316.86,903.222L2155.11,937.602L2120.73,775.856ZM2721.8,762.951L2883.54,728.572L2895.08,782.871L2912.64,779.138L2901.66,727.497L2921.59,723.261L2918.64,709.397L2956.77,701.293L2959.72,715.157L2979.64,710.921L2995.08,783.531L3004.67,781.493L3011.51,813.668L3001.92,815.706L3009.85,853.022L2931.87,869.598L2923.93,832.282L2906.38,836.014L2917.92,890.313L2756.18,924.692L2744.63,870.393L2727.07,874.126L2735.01,911.442L2657.02,928.018L2649.09,890.702L2639.5,892.74L2632.66,860.565L2642.25,858.527L2626.82,785.917L2646.75,781.681L2643.8,767.817L2681.93,759.713L2684.87,773.577L2704.8,769.341L2715.78,820.982L2733.34,817.25L2721.8,762.951ZM1645.5,704.484L1807.25,670.104L1841.63,831.85L1679.88,866.23L1645.5,704.484ZM1871.44,685.229L2033.18,650.849L2067.56,812.595L1905.82,846.975L1871.44,685.229ZM1170.25,632.982L1332,598.602L1366.38,760.348L1204.63,794.728L1170.25,632.982ZM1421.66,762.097C1428.19,762.097 1433.49,756.815 1433.49,750.284C1433.49,743.767 1428.19,738.475 1421.66,738.475C1415.17,738.475 1409.87,743.767 1409.87,750.284C1409.87,756.815 1415.17,762.097 1421.66,762.097ZM2537.5,572.254L2699.25,537.874L2733.63,699.62L2571.88,734.001L2537.5,572.254ZM2305.73,564.014L2467.47,529.634L2501.85,691.38L2340.11,725.76L2305.73,564.014ZM1384.49,558.706L1546.24,524.326L1580.62,686.072L1418.87,720.452L1384.49,558.706ZM2073.95,555.773L2235.7,521.393L2270.08,683.139L2108.33,717.519L2073.95,555.773ZM3016.82,682.904C3023.36,682.904 3028.65,677.621 3028.65,671.091C3028.65,664.573 3023.36,659.282 3016.82,659.282C3010.33,659.282 3005.03,664.573 3005.03,671.091C3005.03,677.621 3010.33,682.904 3016.82,682.904ZM2812.65,513.815L2974.39,479.435L3008.77,641.181L2847.03,675.561L2812.65,513.815ZM1598.72,484.401L1760.47,450.021L1794.85,611.767L1633.1,646.147L1598.72,484.401ZM1824.66,465.146L1986.4,430.766L2020.78,592.512L1859.04,626.892L1824.66,465.146ZM1123.47,412.899L1285.22,378.519L1319.6,540.265L1157.85,574.645L1123.47,412.899ZM2872.17,440.403L2874.54,451.528L2836.41,459.632L2834.05,448.507L2597.33,498.823L2599.69,509.948L2561.57,518.052L2559.2,506.927L2525.11,513.914L2490.73,352.167L2872.67,271.243L2907.05,432.989L2872.17,440.403ZM2258.95,343.931L2420.69,309.551L2455.07,471.297L2293.33,505.677L2258.95,343.931ZM1337.71,338.623L1499.46,304.243L1533.84,465.989L1372.09,500.37L1337.71,338.623ZM2027.17,335.691L2188.91,301.31L2223.3,463.056L2061.55,497.437L2027.17,335.691ZM1551.94,264.318L1713.69,229.938L1748.07,391.684L1586.32,426.065L1551.94,264.318ZM1777.88,245.063L1939.62,210.683L1974,372.429L1812.26,406.81L1777.88,245.063ZM1997.33,349.533C2003.87,349.533 2009.16,344.25 2009.16,337.72C2009.16,331.202 2003.87,325.911 1997.33,325.911C1990.84,325.911 1985.54,331.202 1985.54,337.72C1985.54,344.25 1990.84,349.533 1997.33,349.533ZM2623.66,238.1C2617.29,239.455 2613.21,245.732 2614.57,252.108C2615.92,258.485 2622.2,262.561 2628.58,261.206C2634.95,259.85 2639.03,253.573 2637.67,247.197C2636.32,240.821 2630.04,236.745 2623.66,238.1ZM1471.27,226.285C1464.89,227.64 1460.81,233.917 1462.17,240.293C1463.52,246.67 1469.8,250.746 1476.18,249.391C1482.55,248.035 1486.63,241.758 1485.28,235.382C1483.92,229.006 1477.64,224.93 1471.27,226.285Z" style="fill:rgb(60,226,255);fill-opacity:0.42;stroke:rgb(13,151,242);stroke-width:0.94px;"/>
        </g>
    </g>
</svg>
