G04 #@! TF.GenerationSoftware,KiCad,Pcbnew,(5.1.5-0-10_14)*
G04 #@! TF.CreationDate,2020-05-14T05:34:13+09:00*
G04 #@! TF.ProjectId,N-bottom-v02,4e2d626f-7474-46f6-9d2d-7630322e6b69,rev?*
G04 #@! TF.SameCoordinates,Original*
G04 #@! TF.FileFunction,Profile,NP*
%FSLAX46Y46*%
G04 Gerber Fmt 4.6, Leading zero omitted, Abs format (unit mm)*
G04 Created by KiCad (PCBNEW (5.1.5-0-10_14)) date 2020-05-14 05:34:13*
%MOMM*%
%LPD*%
G04 APERTURE LIST*
%ADD10C,0.050000*%
G04 APERTURE END LIST*
D10*
X81565227Y-30459983D02*
X81516214Y-30461856D01*
X81516214Y-30461856D02*
X81471191Y-30466920D01*
X81471191Y-30466920D02*
X81427061Y-30475058D01*
X81427061Y-30475058D02*
X81387025Y-30485272D01*
X81387025Y-30485272D02*
X81348026Y-30497941D01*
X81348026Y-30497941D02*
X81312183Y-30512100D01*
X81312183Y-30512100D02*
X81277902Y-30528064D01*
X81277902Y-30528064D02*
X81244591Y-30546043D01*
X81244591Y-30546043D02*
X81212955Y-30565597D01*
X81212955Y-30565597D02*
X81183217Y-30586428D01*
X81183217Y-30586428D02*
X81155180Y-30608520D01*
X81155180Y-30608520D02*
X81128486Y-30632078D01*
X81128486Y-30632078D02*
X81112599Y-30647435D01*
X80925147Y-38276156D02*
X80931288Y-38320203D01*
X80931288Y-38320203D02*
X80946314Y-38355731D01*
X80946314Y-38355731D02*
X80967628Y-38384725D01*
X80967628Y-38384725D02*
X80994730Y-38408170D01*
X80994730Y-38408170D02*
X81027654Y-38425518D01*
X81027654Y-38425518D02*
X81069068Y-38435374D01*
X81069068Y-38435374D02*
X81085167Y-38436176D01*
X174817940Y-38436176D02*
X174861982Y-38430000D01*
X174861982Y-38430000D02*
X174897365Y-38415020D01*
X174897365Y-38415020D02*
X174926242Y-38393837D01*
X174926242Y-38393837D02*
X174949588Y-38367020D01*
X174949588Y-38367020D02*
X174967040Y-38334265D01*
X174967040Y-38334265D02*
X174976999Y-38293713D01*
X174976999Y-38293713D02*
X174977960Y-38276156D01*
X174977960Y-58401253D02*
X174971829Y-58357318D01*
X174971829Y-58357318D02*
X174956806Y-58321801D01*
X174956806Y-58321801D02*
X174935461Y-58292765D01*
X174935461Y-58292765D02*
X174908555Y-58269436D01*
X174908555Y-58269436D02*
X174875796Y-58252060D01*
X174875796Y-58252060D02*
X174834998Y-58242136D01*
X174834998Y-58242136D02*
X174817940Y-58241233D01*
X81112599Y-30647435D02*
X81087744Y-30673746D01*
X81087744Y-30673746D02*
X81064830Y-30700898D01*
X81064830Y-30700898D02*
X81040709Y-30733178D01*
X81040709Y-30733178D02*
X81020655Y-30763664D01*
X81020655Y-30763664D02*
X81002179Y-30795606D01*
X81002179Y-30795606D02*
X80984665Y-30830501D01*
X80984665Y-30830501D02*
X80969319Y-30866376D01*
X80969319Y-30866376D02*
X80955882Y-30904058D01*
X80955882Y-30904058D02*
X80944500Y-30943797D01*
X80944500Y-30943797D02*
X80935187Y-30987057D01*
X80935187Y-30987057D02*
X80928822Y-31031444D01*
X80928822Y-31031444D02*
X80925468Y-31079620D01*
X80925468Y-31079620D02*
X80925147Y-31099978D01*
X80925147Y-31099978D02*
X80925147Y-38276156D01*
X84927000Y-154491570D02*
X84877838Y-154490385D01*
X84877838Y-154490385D02*
X84830081Y-154486948D01*
X84830081Y-154486948D02*
X84784531Y-154481530D01*
X84784531Y-154481530D02*
X84741550Y-154474463D01*
X84741550Y-154474463D02*
X84699965Y-154465774D01*
X84699965Y-154465774D02*
X84658470Y-154455229D01*
X84658470Y-154455229D02*
X84617871Y-154443041D01*
X84617871Y-154443041D02*
X84580350Y-154430068D01*
X84580350Y-154430068D02*
X84543695Y-154415740D01*
X84543695Y-154415740D02*
X84508450Y-154400350D01*
X84508450Y-154400350D02*
X84474264Y-154383834D01*
X84474264Y-154383834D02*
X84438667Y-154364884D01*
X84438667Y-154364884D02*
X84406843Y-154346330D01*
X84406843Y-154346330D02*
X84374989Y-154326136D01*
X84374989Y-154326136D02*
X84344883Y-154305449D01*
X84344883Y-154305449D02*
X84314988Y-154283249D01*
X84314988Y-154283249D02*
X84286830Y-154260701D01*
X84286830Y-154260701D02*
X84258676Y-154236420D01*
X84258676Y-154236420D02*
X84232396Y-154212041D01*
X84232396Y-154212041D02*
X84207265Y-154187017D01*
X84207265Y-154187017D02*
X84182147Y-154160143D01*
X84182147Y-154160143D02*
X84158142Y-154132504D01*
X84158142Y-154132504D02*
X84135607Y-154104588D01*
X84135607Y-154104588D02*
X84114175Y-154076014D01*
X84114175Y-154076014D02*
X84091665Y-154043532D01*
X84091665Y-154043532D02*
X84071599Y-154012066D01*
X84071599Y-154012066D02*
X84051583Y-153977838D01*
X84051583Y-153977838D02*
X84033758Y-153944454D01*
X84033758Y-153944454D02*
X84015902Y-153907570D01*
X84015902Y-153907570D02*
X84000695Y-153872685D01*
X84000695Y-153872685D02*
X83986392Y-153836046D01*
X83986392Y-153836046D02*
X83973267Y-153797992D01*
X83973267Y-153797992D02*
X83961699Y-153759448D01*
X83961699Y-153759448D02*
X83951395Y-153719136D01*
X83951395Y-153719136D02*
X83942631Y-153677613D01*
X83942631Y-153677613D02*
X83935490Y-153634695D01*
X83935490Y-153634695D02*
X83930039Y-153589605D01*
X83930039Y-153589605D02*
X83926485Y-153541521D01*
X83926485Y-153541521D02*
X83925225Y-153490810D01*
X171978220Y-153459483D02*
X171977013Y-153508992D01*
X171977013Y-153508992D02*
X171973590Y-153556304D01*
X171973590Y-153556304D02*
X171968219Y-153601421D01*
X171968219Y-153601421D02*
X171960728Y-153646670D01*
X171960728Y-153646670D02*
X171951813Y-153688753D01*
X171951813Y-153688753D02*
X171941261Y-153729795D01*
X171941261Y-153729795D02*
X171929574Y-153768493D01*
X171929574Y-153768493D02*
X171916516Y-153806155D01*
X171916516Y-153806155D02*
X171902167Y-153842767D01*
X171902167Y-153842767D02*
X171886278Y-153879004D01*
X171886278Y-153879004D02*
X171869707Y-153913127D01*
X171869707Y-153913127D02*
X171851807Y-153946675D01*
X171851807Y-153946675D02*
X171832100Y-153980418D01*
X171832100Y-153980418D02*
X171811864Y-154012205D01*
X171811864Y-154012205D02*
X171791358Y-154041939D01*
X171791358Y-154041939D02*
X171769135Y-154071776D01*
X171769135Y-154071776D02*
X171746331Y-154100170D01*
X171746331Y-154100170D02*
X171722782Y-154127421D01*
X171722782Y-154127421D02*
X171698547Y-154153530D01*
X171698547Y-154153530D02*
X171671795Y-154180325D01*
X171671795Y-154180325D02*
X171645869Y-154204468D01*
X171645869Y-154204468D02*
X171618242Y-154228414D01*
X171618242Y-154228414D02*
X171590046Y-154251117D01*
X171590046Y-154251117D02*
X171561032Y-154272809D01*
X171561032Y-154272809D02*
X171531383Y-154293352D01*
X171531383Y-154293352D02*
X171500015Y-154313429D01*
X171500015Y-154313429D02*
X171468527Y-154331983D01*
X171468527Y-154331983D02*
X171435653Y-154349749D01*
X171435653Y-154349749D02*
X171401719Y-154366465D01*
X171401719Y-154366465D02*
X171366034Y-154382359D01*
X171366034Y-154382359D02*
X171328923Y-154397143D01*
X171328923Y-154397143D02*
X171288928Y-154411180D01*
X171288928Y-154411180D02*
X171250410Y-154422916D01*
X171250410Y-154422916D02*
X171208628Y-154433741D01*
X171208628Y-154433741D02*
X171166171Y-154442776D01*
X171166171Y-154442776D02*
X171122695Y-154450036D01*
X171122695Y-154450036D02*
X171077835Y-154455468D01*
X171077835Y-154455468D02*
X171030410Y-154458980D01*
X171030410Y-154458980D02*
X170980804Y-154460242D01*
X170980804Y-154460242D02*
X170980000Y-154460243D01*
X174977960Y-38276156D02*
X174977960Y-31099978D01*
X160403440Y-38436176D02*
X174817940Y-38436176D01*
X174977960Y-156819903D02*
X174977960Y-58401253D01*
X160403440Y-58241233D02*
X160403440Y-38436176D01*
X83925225Y-112717883D02*
X83926406Y-112668911D01*
X83926406Y-112668911D02*
X83930000Y-112619754D01*
X83930000Y-112619754D02*
X83935490Y-112574382D01*
X83935490Y-112574382D02*
X83942775Y-112530796D01*
X83942775Y-112530796D02*
X83951749Y-112488618D01*
X83951749Y-112488618D02*
X83962167Y-112448220D01*
X83962167Y-112448220D02*
X83974096Y-112408861D01*
X83974096Y-112408861D02*
X83987318Y-112370913D01*
X83987318Y-112370913D02*
X84002452Y-112332621D01*
X84002452Y-112332621D02*
X84017813Y-112297861D01*
X84017813Y-112297861D02*
X84034448Y-112263806D01*
X84034448Y-112263806D02*
X84052321Y-112230484D01*
X84052321Y-112230484D02*
X84070813Y-112198890D01*
X84070813Y-112198890D02*
X84091665Y-112166161D01*
X84091665Y-112166161D02*
X84112198Y-112136441D01*
X84112198Y-112136441D02*
X84133993Y-112107212D01*
X84133993Y-112107212D02*
X84157299Y-112078236D01*
X84157299Y-112078236D02*
X84180893Y-112050991D01*
X84180893Y-112050991D02*
X84205439Y-112024616D01*
X84205439Y-112024616D02*
X84234158Y-111996012D01*
X84234158Y-111996012D02*
X84260637Y-111971567D01*
X84260637Y-111971567D02*
X84287988Y-111948075D01*
X84287988Y-111948075D02*
X84316180Y-111925561D01*
X84316180Y-111925561D02*
X84348873Y-111901433D01*
X84348873Y-111901433D02*
X84378768Y-111881086D01*
X84378768Y-111881086D02*
X84410718Y-111861018D01*
X84410718Y-111861018D02*
X84443464Y-111842134D01*
X84443464Y-111842134D02*
X84476633Y-111824633D01*
X84476633Y-111824633D02*
X84513640Y-111806929D01*
X84513640Y-111806929D02*
X84548990Y-111791721D01*
X84548990Y-111791721D02*
X84587547Y-111776928D01*
X84587547Y-111776928D02*
X84625382Y-111764161D01*
X84625382Y-111764161D02*
X84666864Y-111752067D01*
X84666864Y-111752067D02*
X84707548Y-111742075D01*
X84707548Y-111742075D02*
X84751563Y-111733274D01*
X84751563Y-111733274D02*
X84795467Y-111726523D01*
X84795467Y-111726523D02*
X84841167Y-111721591D01*
X84841167Y-111721591D02*
X84889067Y-111718672D01*
X84889067Y-111718672D02*
X84927000Y-111717970D01*
X174337880Y-157459983D02*
X174388590Y-157457998D01*
X174388590Y-157457998D02*
X174433761Y-157452840D01*
X174433761Y-157452840D02*
X174477933Y-157444599D01*
X174477933Y-157444599D02*
X174518156Y-157434224D01*
X174518156Y-157434224D02*
X174556514Y-157421645D01*
X174556514Y-157421645D02*
X174592652Y-157407243D01*
X174592652Y-157407243D02*
X174626918Y-157391128D01*
X174626918Y-157391128D02*
X174660876Y-157372595D01*
X174660876Y-157372595D02*
X174691954Y-157353181D01*
X174691954Y-157353181D02*
X174721615Y-157332214D01*
X174721615Y-157332214D02*
X174749638Y-157309950D01*
X174749638Y-157309950D02*
X174776883Y-157285688D01*
X174776883Y-157285688D02*
X174802041Y-157260628D01*
X174802041Y-157260628D02*
X174826254Y-157233661D01*
X174826254Y-157233661D02*
X174849073Y-157205154D01*
X174849073Y-157205154D02*
X174870404Y-157175152D01*
X174870404Y-157175152D02*
X174889773Y-157144315D01*
X174889773Y-157144315D02*
X174908069Y-157111042D01*
X174908069Y-157111042D02*
X174924315Y-157076821D01*
X174924315Y-157076821D02*
X174939235Y-157039681D01*
X174939235Y-157039681D02*
X174952135Y-157000484D01*
X174952135Y-157000484D02*
X174962751Y-156959243D01*
X174962751Y-156959243D02*
X174970798Y-156915978D01*
X174970798Y-156915978D02*
X174975970Y-156870723D01*
X174975970Y-156870723D02*
X174977953Y-156822491D01*
X174977953Y-156822491D02*
X174977960Y-156819903D01*
X170980000Y-152459570D02*
X171028819Y-152460752D01*
X171028819Y-152460752D02*
X171075871Y-152464157D01*
X171075871Y-152464157D02*
X171121532Y-152469619D01*
X171121532Y-152469619D02*
X171164643Y-152476768D01*
X171164643Y-152476768D02*
X171205994Y-152485487D01*
X171205994Y-152485487D02*
X171246338Y-152495802D01*
X171246338Y-152495802D02*
X171285652Y-152507630D01*
X171285652Y-152507630D02*
X171322849Y-152520492D01*
X171322849Y-152520492D02*
X171359020Y-152534622D01*
X171359020Y-152534622D02*
X171395878Y-152550741D01*
X171395878Y-152550741D02*
X171430272Y-152567430D01*
X171430272Y-152567430D02*
X171464911Y-152585937D01*
X171464911Y-152585937D02*
X171497447Y-152604965D01*
X171497447Y-152604965D02*
X171529192Y-152625172D01*
X171529192Y-152625172D02*
X171560119Y-152646526D01*
X171560119Y-152646526D02*
X171589009Y-152668079D01*
X171589009Y-152668079D02*
X171622548Y-152695214D01*
X171622548Y-152695214D02*
X171650040Y-152719318D01*
X171650040Y-152719318D02*
X171676100Y-152743869D01*
X171676100Y-152743869D02*
X171701401Y-152769465D01*
X171701401Y-152769465D02*
X171725901Y-152796089D01*
X171725901Y-152796089D02*
X171749208Y-152823303D01*
X171749208Y-152823303D02*
X171772572Y-152852681D01*
X171772572Y-152852681D02*
X171794195Y-152882021D01*
X171794195Y-152882021D02*
X171816004Y-152914049D01*
X171816004Y-152914049D02*
X171835423Y-152945004D01*
X171835423Y-152945004D02*
X171854831Y-152978688D01*
X171854831Y-152978688D02*
X171872442Y-153012158D01*
X171872442Y-153012158D02*
X171888812Y-153046357D01*
X171888812Y-153046357D02*
X171904486Y-153082664D01*
X171904486Y-153082664D02*
X171918749Y-153119688D01*
X171918749Y-153119688D02*
X171931452Y-153157035D01*
X171931452Y-153157035D02*
X171942908Y-153195764D01*
X171942908Y-153195764D02*
X171953085Y-153236258D01*
X171953085Y-153236258D02*
X171961872Y-153278913D01*
X171961872Y-153278913D02*
X171968820Y-153322202D01*
X171968820Y-153322202D02*
X171974142Y-153368844D01*
X171974142Y-153368844D02*
X171977322Y-153416899D01*
X171977322Y-153416899D02*
X171978220Y-153459483D01*
X84927000Y-113718643D02*
X84877838Y-113717458D01*
X84877838Y-113717458D02*
X84830081Y-113714021D01*
X84830081Y-113714021D02*
X84784531Y-113708603D01*
X84784531Y-113708603D02*
X84741550Y-113701536D01*
X84741550Y-113701536D02*
X84699965Y-113692847D01*
X84699965Y-113692847D02*
X84658470Y-113682302D01*
X84658470Y-113682302D02*
X84617871Y-113670114D01*
X84617871Y-113670114D02*
X84580350Y-113657141D01*
X84580350Y-113657141D02*
X84543695Y-113642813D01*
X84543695Y-113642813D02*
X84508450Y-113627423D01*
X84508450Y-113627423D02*
X84474264Y-113610907D01*
X84474264Y-113610907D02*
X84438667Y-113591957D01*
X84438667Y-113591957D02*
X84406843Y-113573403D01*
X84406843Y-113573403D02*
X84374989Y-113553209D01*
X84374989Y-113553209D02*
X84344883Y-113532522D01*
X84344883Y-113532522D02*
X84314988Y-113510322D01*
X84314988Y-113510322D02*
X84286830Y-113487774D01*
X84286830Y-113487774D02*
X84258676Y-113463493D01*
X84258676Y-113463493D02*
X84232396Y-113439114D01*
X84232396Y-113439114D02*
X84207265Y-113414090D01*
X84207265Y-113414090D02*
X84182147Y-113387216D01*
X84182147Y-113387216D02*
X84158142Y-113359577D01*
X84158142Y-113359577D02*
X84135607Y-113331661D01*
X84135607Y-113331661D02*
X84114175Y-113303087D01*
X84114175Y-113303087D02*
X84091665Y-113270605D01*
X84091665Y-113270605D02*
X84071599Y-113239139D01*
X84071599Y-113239139D02*
X84051583Y-113204911D01*
X84051583Y-113204911D02*
X84033758Y-113171527D01*
X84033758Y-113171527D02*
X84015902Y-113134643D01*
X84015902Y-113134643D02*
X84000695Y-113099758D01*
X84000695Y-113099758D02*
X83986392Y-113063119D01*
X83986392Y-113063119D02*
X83973267Y-113025065D01*
X83973267Y-113025065D02*
X83961699Y-112986521D01*
X83961699Y-112986521D02*
X83951395Y-112946209D01*
X83951395Y-112946209D02*
X83942631Y-112904686D01*
X83942631Y-112904686D02*
X83935490Y-112861768D01*
X83935490Y-112861768D02*
X83930039Y-112816678D01*
X83930039Y-112816678D02*
X83926485Y-112768594D01*
X83926485Y-112768594D02*
X83925225Y-112717883D01*
X169977547Y-153459483D02*
X169978729Y-153410511D01*
X169978729Y-153410511D02*
X169982325Y-153361354D01*
X169982325Y-153361354D02*
X169987820Y-153315982D01*
X169987820Y-153315982D02*
X169995111Y-153272396D01*
X169995111Y-153272396D02*
X170004090Y-153230218D01*
X170004090Y-153230218D02*
X170014517Y-153189820D01*
X170014517Y-153189820D02*
X170026455Y-153150461D01*
X170026455Y-153150461D02*
X170039554Y-153112871D01*
X170039554Y-153112871D02*
X170054831Y-153074221D01*
X170054831Y-153074221D02*
X170070205Y-153039461D01*
X170070205Y-153039461D02*
X170086850Y-153005406D01*
X170086850Y-153005406D02*
X170104826Y-152971919D01*
X170104826Y-152971919D02*
X170123832Y-152939525D01*
X170123832Y-152939525D02*
X170144943Y-152906507D01*
X170144943Y-152906507D02*
X170166416Y-152875600D01*
X170166416Y-152875600D02*
X170187852Y-152847031D01*
X170187852Y-152847031D02*
X170210755Y-152818684D01*
X170210755Y-152818684D02*
X170237429Y-152788136D01*
X170237429Y-152788136D02*
X170262149Y-152761906D01*
X170262149Y-152761906D02*
X170291057Y-152733473D01*
X170291057Y-152733473D02*
X170321095Y-152706215D01*
X170321095Y-152706215D02*
X170348419Y-152683243D01*
X170348419Y-152683243D02*
X170377165Y-152660782D01*
X170377165Y-152660782D02*
X170407665Y-152638708D01*
X170407665Y-152638708D02*
X170437743Y-152618580D01*
X170437743Y-152618580D02*
X170468899Y-152599323D01*
X170468899Y-152599323D02*
X170501467Y-152580825D01*
X170501467Y-152580825D02*
X170535116Y-152563349D01*
X170535116Y-152563349D02*
X170569498Y-152547122D01*
X170569498Y-152547122D02*
X170605997Y-152531600D01*
X170605997Y-152531600D02*
X170643219Y-152517494D01*
X170643219Y-152517494D02*
X170680764Y-152504955D01*
X170680764Y-152504955D02*
X170722317Y-152492969D01*
X170722317Y-152492969D02*
X170763452Y-152483001D01*
X170763452Y-152483001D02*
X170805225Y-152474738D01*
X170805225Y-152474738D02*
X170850148Y-152467893D01*
X170850148Y-152467893D02*
X170896100Y-152463025D01*
X170896100Y-152463025D02*
X170945261Y-152460157D01*
X170945261Y-152460157D02*
X170980000Y-152459570D01*
X174337880Y-30459983D02*
X81565227Y-30459983D01*
X83925225Y-153490810D02*
X83926406Y-153441838D01*
X83926406Y-153441838D02*
X83930000Y-153392681D01*
X83930000Y-153392681D02*
X83935490Y-153347309D01*
X83935490Y-153347309D02*
X83942775Y-153303723D01*
X83942775Y-153303723D02*
X83951749Y-153261545D01*
X83951749Y-153261545D02*
X83962167Y-153221147D01*
X83962167Y-153221147D02*
X83974096Y-153181788D01*
X83974096Y-153181788D02*
X83987318Y-153143840D01*
X83987318Y-153143840D02*
X84002452Y-153105548D01*
X84002452Y-153105548D02*
X84017813Y-153070788D01*
X84017813Y-153070788D02*
X84034448Y-153036733D01*
X84034448Y-153036733D02*
X84052321Y-153003411D01*
X84052321Y-153003411D02*
X84070813Y-152971817D01*
X84070813Y-152971817D02*
X84091665Y-152939088D01*
X84091665Y-152939088D02*
X84112198Y-152909368D01*
X84112198Y-152909368D02*
X84133993Y-152880139D01*
X84133993Y-152880139D02*
X84157299Y-152851163D01*
X84157299Y-152851163D02*
X84180893Y-152823918D01*
X84180893Y-152823918D02*
X84205439Y-152797543D01*
X84205439Y-152797543D02*
X84234158Y-152768939D01*
X84234158Y-152768939D02*
X84260637Y-152744493D01*
X84260637Y-152744493D02*
X84287988Y-152721001D01*
X84287988Y-152721001D02*
X84316180Y-152698487D01*
X84316180Y-152698487D02*
X84348873Y-152674359D01*
X84348873Y-152674359D02*
X84378768Y-152654012D01*
X84378768Y-152654012D02*
X84410718Y-152633944D01*
X84410718Y-152633944D02*
X84443464Y-152615060D01*
X84443464Y-152615060D02*
X84476633Y-152597559D01*
X84476633Y-152597559D02*
X84513640Y-152579855D01*
X84513640Y-152579855D02*
X84548990Y-152564647D01*
X84548990Y-152564647D02*
X84587547Y-152549854D01*
X84587547Y-152549854D02*
X84625382Y-152537087D01*
X84625382Y-152537087D02*
X84666864Y-152524993D01*
X84666864Y-152524993D02*
X84707548Y-152515001D01*
X84707548Y-152515001D02*
X84751563Y-152506200D01*
X84751563Y-152506200D02*
X84795467Y-152499449D01*
X84795467Y-152499449D02*
X84841167Y-152494517D01*
X84841167Y-152494517D02*
X84889067Y-152491598D01*
X84889067Y-152491598D02*
X84927000Y-152490896D01*
X174790847Y-30647435D02*
X174763746Y-30621904D01*
X174763746Y-30621904D02*
X174736312Y-30598873D01*
X174736312Y-30598873D02*
X174707341Y-30577205D01*
X174707341Y-30577205D02*
X174677076Y-30557134D01*
X174677076Y-30557134D02*
X174644073Y-30537910D01*
X174644073Y-30537910D02*
X174610042Y-30520706D01*
X174610042Y-30520706D02*
X174574172Y-30505200D01*
X174574172Y-30505200D02*
X174535798Y-30491370D01*
X174535798Y-30491370D02*
X174496124Y-30479873D01*
X174496124Y-30479873D02*
X174455000Y-30470807D01*
X174455000Y-30470807D02*
X174409591Y-30464019D01*
X174409591Y-30464019D02*
X174363129Y-30460479D01*
X174363129Y-30460479D02*
X174337880Y-30459983D01*
X170980000Y-154460243D02*
X170980000Y-154460243D01*
X170980000Y-154460243D02*
X170930808Y-154459058D01*
X170930808Y-154459058D02*
X170884011Y-154455715D01*
X170884011Y-154455715D02*
X170839004Y-154450424D01*
X170839004Y-154450424D02*
X170795397Y-154443315D01*
X170795397Y-154443315D02*
X170751307Y-154434095D01*
X170751307Y-154434095D02*
X170710742Y-154423748D01*
X170710742Y-154423748D02*
X170670859Y-154411774D01*
X170670859Y-154411774D02*
X170633489Y-154398873D01*
X170633489Y-154398873D02*
X170597509Y-154384850D01*
X170597509Y-154384850D02*
X170562564Y-154369657D01*
X170562564Y-154369657D02*
X170528327Y-154353192D01*
X170528327Y-154353192D02*
X170494825Y-154335486D01*
X170494825Y-154335486D02*
X170461282Y-154316079D01*
X170461282Y-154316079D02*
X170430153Y-154296468D01*
X170430153Y-154296468D02*
X170400268Y-154276088D01*
X170400268Y-154276088D02*
X170370274Y-154253985D01*
X170370274Y-154253985D02*
X170341730Y-154231292D01*
X170341730Y-154231292D02*
X170314325Y-154207843D01*
X170314325Y-154207843D02*
X170286702Y-154182404D01*
X170286702Y-154182404D02*
X170261100Y-154157037D01*
X170261100Y-154157037D02*
X170235412Y-154129653D01*
X170235412Y-154129653D02*
X170211962Y-154102760D01*
X170211962Y-154102760D02*
X170189008Y-154074447D01*
X170189008Y-154074447D02*
X170166636Y-154044687D01*
X170166636Y-154044687D02*
X170145780Y-154014712D01*
X170145780Y-154014712D02*
X170126005Y-153983953D01*
X170126005Y-153983953D02*
X170106404Y-153950794D01*
X170106404Y-153950794D02*
X170088236Y-153917172D01*
X170088236Y-153917172D02*
X170071490Y-153883136D01*
X170071490Y-153883136D02*
X170054831Y-153845581D01*
X170054831Y-153845581D02*
X170040221Y-153808665D01*
X170040221Y-153808665D02*
X170027050Y-153771048D01*
X170027050Y-153771048D02*
X170015250Y-153732395D01*
X170015250Y-153732395D02*
X170004896Y-153692718D01*
X170004896Y-153692718D02*
X169995921Y-153651271D01*
X169995921Y-153651271D02*
X169988505Y-153608038D01*
X169988505Y-153608038D02*
X169982799Y-153562618D01*
X169982799Y-153562618D02*
X169978973Y-153513391D01*
X169978973Y-153513391D02*
X169977553Y-153463528D01*
X169977553Y-153463528D02*
X169977547Y-153459483D01*
X170980000Y-35459973D02*
X170980000Y-35459973D01*
X85925221Y-34459806D02*
X85924015Y-34509314D01*
X85924015Y-34509314D02*
X85920593Y-34556622D01*
X85920593Y-34556622D02*
X85915225Y-34601732D01*
X85915225Y-34601732D02*
X85908027Y-34645435D01*
X85908027Y-34645435D02*
X85899314Y-34686966D01*
X85899314Y-34686966D02*
X85889006Y-34727470D01*
X85889006Y-34727470D02*
X85877189Y-34766929D01*
X85877189Y-34766929D02*
X85864209Y-34804610D01*
X85864209Y-34804610D02*
X85849786Y-34841591D01*
X85849786Y-34841591D02*
X85834432Y-34876805D01*
X85834432Y-34876805D02*
X85817955Y-34910959D01*
X85817955Y-34910959D02*
X85798217Y-34948010D01*
X85798217Y-34948010D02*
X85778373Y-34981863D01*
X85778373Y-34981863D02*
X85758097Y-35013598D01*
X85758097Y-35013598D02*
X85737554Y-35043281D01*
X85737554Y-35043281D02*
X85715985Y-35072174D01*
X85715985Y-35072174D02*
X85693415Y-35100249D01*
X85693415Y-35100249D02*
X85669745Y-35127617D01*
X85669745Y-35127617D02*
X85645381Y-35153838D01*
X85645381Y-35153838D02*
X85619970Y-35179300D01*
X85619970Y-35179300D02*
X85593667Y-35203837D01*
X85593667Y-35203837D02*
X85566498Y-35227424D01*
X85566498Y-35227424D02*
X85538635Y-35249918D01*
X85538635Y-35249918D02*
X85509969Y-35271423D01*
X85509969Y-35271423D02*
X85480059Y-35292222D01*
X85480059Y-35292222D02*
X85448248Y-35312633D01*
X85448248Y-35312633D02*
X85416295Y-35331487D01*
X85416295Y-35331487D02*
X85381253Y-35350384D01*
X85381253Y-35350384D02*
X85347457Y-35366946D01*
X85347457Y-35366946D02*
X85312442Y-35382476D01*
X85312442Y-35382476D02*
X85275848Y-35397016D01*
X85275848Y-35397016D02*
X85236025Y-35410969D01*
X85236025Y-35410969D02*
X85197499Y-35422692D01*
X85197499Y-35422692D02*
X85155708Y-35433504D01*
X85155708Y-35433504D02*
X85113050Y-35442564D01*
X85113050Y-35442564D02*
X85069751Y-35449779D01*
X85069751Y-35449779D02*
X85023106Y-35455375D01*
X85023106Y-35455375D02*
X84974247Y-35458865D01*
X84974247Y-35458865D02*
X84927000Y-35459973D01*
X81085167Y-58241233D02*
X81041261Y-58247333D01*
X81041261Y-58247333D02*
X81005620Y-58262382D01*
X81005620Y-58262382D02*
X80976666Y-58283645D01*
X80976666Y-58283645D02*
X80953169Y-58310780D01*
X80953169Y-58310780D02*
X80935807Y-58343706D01*
X80935807Y-58343706D02*
X80925998Y-58384635D01*
X80925998Y-58384635D02*
X80925147Y-58401253D01*
X81565227Y-157459983D02*
X174337880Y-157459983D01*
X80925147Y-58401253D02*
X80925147Y-156819903D01*
X81085167Y-38436176D02*
X89432030Y-38436176D01*
X174977960Y-31099978D02*
X174977960Y-31099978D01*
X170980000Y-33459977D02*
X171028819Y-33461158D01*
X171028819Y-33461158D02*
X171075871Y-33464556D01*
X171075871Y-33464556D02*
X171123275Y-33470259D01*
X171123275Y-33470259D02*
X171166171Y-33477437D01*
X171166171Y-33477437D02*
X171208628Y-33486473D01*
X171208628Y-33486473D02*
X171248930Y-33496880D01*
X171248930Y-33496880D02*
X171288565Y-33508914D01*
X171288565Y-33508914D02*
X171326067Y-33522001D01*
X171326067Y-33522001D02*
X171363933Y-33536969D01*
X171363933Y-33536969D02*
X171400347Y-33553099D01*
X171400347Y-33553099D02*
X171434310Y-33569761D01*
X171434310Y-33569761D02*
X171467542Y-33587657D01*
X171467542Y-33587657D02*
X171499694Y-33606565D01*
X171499694Y-33606565D02*
X171530444Y-33626209D01*
X171530444Y-33626209D02*
X171560423Y-33646932D01*
X171560423Y-33646932D02*
X171590196Y-33669166D01*
X171590196Y-33669166D02*
X171618242Y-33691746D01*
X171618242Y-33691746D02*
X171645450Y-33715304D01*
X171645450Y-33715304D02*
X171675026Y-33742939D01*
X171675026Y-33742939D02*
X171700364Y-33768481D01*
X171700364Y-33768481D02*
X171724781Y-33794918D01*
X171724781Y-33794918D02*
X171748250Y-33822221D01*
X171748250Y-33822221D02*
X171770512Y-33850065D01*
X171770512Y-33850065D02*
X171792233Y-33879322D01*
X171792233Y-33879322D02*
X171812695Y-33909065D01*
X171812695Y-33909065D02*
X171832886Y-33940858D01*
X171832886Y-33940858D02*
X171851347Y-33972456D01*
X171851347Y-33972456D02*
X171869019Y-34005448D01*
X171869019Y-34005448D02*
X171885639Y-34039505D01*
X171885639Y-34039505D02*
X171901435Y-34075324D01*
X171901435Y-34075324D02*
X171916118Y-34112574D01*
X171916118Y-34112574D02*
X171929217Y-34150170D01*
X171929217Y-34150170D02*
X171940948Y-34188798D01*
X171940948Y-34188798D02*
X171951323Y-34228823D01*
X171951323Y-34228823D02*
X171960364Y-34271007D01*
X171960364Y-34271007D02*
X171967716Y-34314603D01*
X171967716Y-34314603D02*
X171973282Y-34359993D01*
X171973282Y-34359993D02*
X171976873Y-34407583D01*
X171976873Y-34407583D02*
X171978216Y-34457380D01*
X171978216Y-34457380D02*
X171978220Y-34459806D01*
X174977960Y-31099978D02*
X174976071Y-31050969D01*
X174976071Y-31050969D02*
X174970993Y-31005950D01*
X174970993Y-31005950D02*
X174963197Y-30963505D01*
X174963197Y-30963505D02*
X174952868Y-30922740D01*
X174952868Y-30922740D02*
X174940306Y-30883902D01*
X174940306Y-30883902D02*
X174925704Y-30846866D01*
X174925704Y-30846866D02*
X174909798Y-30812707D01*
X174909798Y-30812707D02*
X174891352Y-30778558D01*
X174891352Y-30778558D02*
X174871930Y-30747164D01*
X174871930Y-30747164D02*
X174851127Y-30717453D01*
X174851127Y-30717453D02*
X174827825Y-30687933D01*
X174827825Y-30687933D02*
X174804259Y-30661333D01*
X174804259Y-30661333D02*
X174790847Y-30647435D01*
X89432030Y-58241233D02*
X81085167Y-58241233D01*
X171978220Y-34459806D02*
X171977013Y-34509314D01*
X171977013Y-34509314D02*
X171973590Y-34556622D01*
X171973590Y-34556622D02*
X171968219Y-34601732D01*
X171968219Y-34601732D02*
X171961018Y-34645435D01*
X171961018Y-34645435D02*
X171952299Y-34686966D01*
X171952299Y-34686966D02*
X171942088Y-34727098D01*
X171942088Y-34727098D02*
X171930164Y-34766929D01*
X171930164Y-34766929D02*
X171917178Y-34804610D01*
X171917178Y-34804610D02*
X171902749Y-34841591D01*
X171902749Y-34841591D02*
X171887390Y-34876805D01*
X171887390Y-34876805D02*
X171870907Y-34910959D01*
X171870907Y-34910959D02*
X171851900Y-34946692D01*
X171851900Y-34946692D02*
X171833474Y-34978324D01*
X171833474Y-34978324D02*
X171813733Y-35009518D01*
X171813733Y-35009518D02*
X171793325Y-35039309D01*
X171793325Y-35039309D02*
X171771542Y-35068753D01*
X171771542Y-35068753D02*
X171749208Y-35096786D01*
X171749208Y-35096786D02*
X171725901Y-35123981D01*
X171725901Y-35123981D02*
X171701401Y-35150592D01*
X171701401Y-35150592D02*
X171676100Y-35176168D01*
X171676100Y-35176168D02*
X171650318Y-35200444D01*
X171650318Y-35200444D02*
X171622836Y-35224529D01*
X171622836Y-35224529D02*
X171594927Y-35247264D01*
X171594927Y-35247264D02*
X171566202Y-35268999D01*
X171566202Y-35268999D02*
X171536691Y-35289709D01*
X171536691Y-35289709D02*
X171503858Y-35310953D01*
X171503858Y-35310953D02*
X171471806Y-35329999D01*
X171471806Y-35329999D02*
X171434141Y-35350384D01*
X171434141Y-35350384D02*
X171400347Y-35366946D01*
X171400347Y-35366946D02*
X171365334Y-35382476D01*
X171365334Y-35382476D02*
X171328743Y-35397016D01*
X171328743Y-35397016D02*
X171291473Y-35410135D01*
X171291473Y-35410135D02*
X171252259Y-35422169D01*
X171252259Y-35422169D02*
X171211636Y-35432790D01*
X171211636Y-35432790D02*
X171170370Y-35441723D01*
X171170370Y-35441723D02*
X171123470Y-35449666D01*
X171123470Y-35449666D02*
X171076066Y-35455375D01*
X171076066Y-35455375D02*
X171028819Y-35458790D01*
X171028819Y-35458790D02*
X170980000Y-35459973D01*
X170980000Y-62460004D02*
X171028819Y-62461185D01*
X171028819Y-62461185D02*
X171075871Y-62464583D01*
X171075871Y-62464583D02*
X171123275Y-62470286D01*
X171123275Y-62470286D02*
X171166171Y-62477464D01*
X171166171Y-62477464D02*
X171208628Y-62486500D01*
X171208628Y-62486500D02*
X171248930Y-62496907D01*
X171248930Y-62496907D02*
X171288565Y-62508941D01*
X171288565Y-62508941D02*
X171326067Y-62522028D01*
X171326067Y-62522028D02*
X171363933Y-62536996D01*
X171363933Y-62536996D02*
X171400347Y-62553126D01*
X171400347Y-62553126D02*
X171434310Y-62569788D01*
X171434310Y-62569788D02*
X171467542Y-62587684D01*
X171467542Y-62587684D02*
X171499694Y-62606592D01*
X171499694Y-62606592D02*
X171530444Y-62626236D01*
X171530444Y-62626236D02*
X171560423Y-62646959D01*
X171560423Y-62646959D02*
X171590196Y-62669193D01*
X171590196Y-62669193D02*
X171618242Y-62691773D01*
X171618242Y-62691773D02*
X171645450Y-62715331D01*
X171645450Y-62715331D02*
X171675026Y-62742966D01*
X171675026Y-62742966D02*
X171700364Y-62768508D01*
X171700364Y-62768508D02*
X171724781Y-62794945D01*
X171724781Y-62794945D02*
X171748250Y-62822248D01*
X171748250Y-62822248D02*
X171770512Y-62850092D01*
X171770512Y-62850092D02*
X171792233Y-62879349D01*
X171792233Y-62879349D02*
X171812695Y-62909092D01*
X171812695Y-62909092D02*
X171832886Y-62940885D01*
X171832886Y-62940885D02*
X171851347Y-62972483D01*
X171851347Y-62972483D02*
X171869019Y-63005475D01*
X171869019Y-63005475D02*
X171885639Y-63039532D01*
X171885639Y-63039532D02*
X171901435Y-63075351D01*
X171901435Y-63075351D02*
X171916118Y-63112601D01*
X171916118Y-63112601D02*
X171929217Y-63150197D01*
X171929217Y-63150197D02*
X171940948Y-63188825D01*
X171940948Y-63188825D02*
X171951323Y-63228849D01*
X171951323Y-63228849D02*
X171960364Y-63271033D01*
X171960364Y-63271033D02*
X171967716Y-63314629D01*
X171967716Y-63314629D02*
X171973282Y-63360019D01*
X171973282Y-63360019D02*
X171976873Y-63407609D01*
X171976873Y-63407609D02*
X171978216Y-63457406D01*
X171978216Y-63457406D02*
X171978220Y-63459832D01*
X85925221Y-112717883D02*
X85924015Y-112767392D01*
X85924015Y-112767392D02*
X85920593Y-112814704D01*
X85920593Y-112814704D02*
X85915225Y-112859821D01*
X85915225Y-112859821D02*
X85907447Y-112906605D01*
X85907447Y-112906605D02*
X85898070Y-112950363D01*
X85898070Y-112950363D02*
X85887550Y-112990795D01*
X85887550Y-112990795D02*
X85874927Y-113032001D01*
X85874927Y-113032001D02*
X85861679Y-113069571D01*
X85861679Y-113069571D02*
X85847442Y-113105387D01*
X85847442Y-113105387D02*
X85831881Y-113140504D01*
X85831881Y-113140504D02*
X85813468Y-113177926D01*
X85813468Y-113177926D02*
X85795247Y-113211497D01*
X85795247Y-113211497D02*
X85776001Y-113243957D01*
X85776001Y-113243957D02*
X85755587Y-113275616D01*
X85755587Y-113275616D02*
X85733144Y-113307652D01*
X85733144Y-113307652D02*
X85709737Y-113338459D01*
X85709737Y-113338459D02*
X85686647Y-113366606D01*
X85686647Y-113366606D02*
X85662697Y-113393743D01*
X85662697Y-113393743D02*
X85638327Y-113419459D01*
X85638327Y-113419459D02*
X85612389Y-113444943D01*
X85612389Y-113444943D02*
X85585829Y-113469226D01*
X85585829Y-113469226D02*
X85556091Y-113494453D01*
X85556091Y-113494453D02*
X85527773Y-113516712D01*
X85527773Y-113516712D02*
X85498654Y-113537956D01*
X85498654Y-113537956D02*
X85467812Y-113558775D01*
X85467812Y-113558775D02*
X85432934Y-113580385D01*
X85432934Y-113580385D02*
X85400622Y-113598698D01*
X85400622Y-113598698D02*
X85366565Y-113616328D01*
X85366565Y-113616328D02*
X85328128Y-113634289D01*
X85328128Y-113634289D02*
X85292199Y-113649315D01*
X85292199Y-113649315D02*
X85255581Y-113662958D01*
X85255581Y-113662958D02*
X85216661Y-113675695D01*
X85216661Y-113675695D02*
X85176692Y-113686950D01*
X85176692Y-113686950D02*
X85135883Y-113696601D01*
X85135883Y-113696601D02*
X85093305Y-113704751D01*
X85093305Y-113704751D02*
X85048753Y-113711235D01*
X85048753Y-113711235D02*
X85003205Y-113715753D01*
X85003205Y-113715753D02*
X84953491Y-113718293D01*
X84953491Y-113718293D02*
X84927000Y-113718643D01*
X89432030Y-38436176D02*
X89432030Y-58241233D01*
X171978220Y-63459832D02*
X171977013Y-63509340D01*
X171977013Y-63509340D02*
X171973590Y-63556648D01*
X171973590Y-63556648D02*
X171968219Y-63601758D01*
X171968219Y-63601758D02*
X171961018Y-63645461D01*
X171961018Y-63645461D02*
X171952299Y-63686992D01*
X171952299Y-63686992D02*
X171942088Y-63727125D01*
X171942088Y-63727125D02*
X171930164Y-63766956D01*
X171930164Y-63766956D02*
X171917178Y-63804637D01*
X171917178Y-63804637D02*
X171902749Y-63841618D01*
X171902749Y-63841618D02*
X171887390Y-63876832D01*
X171887390Y-63876832D02*
X171870907Y-63910986D01*
X171870907Y-63910986D02*
X171851900Y-63946719D01*
X171851900Y-63946719D02*
X171833474Y-63978351D01*
X171833474Y-63978351D02*
X171813733Y-64009545D01*
X171813733Y-64009545D02*
X171793325Y-64039336D01*
X171793325Y-64039336D02*
X171771542Y-64068780D01*
X171771542Y-64068780D02*
X171749208Y-64096813D01*
X171749208Y-64096813D02*
X171725901Y-64124008D01*
X171725901Y-64124008D02*
X171701401Y-64150619D01*
X171701401Y-64150619D02*
X171676100Y-64176195D01*
X171676100Y-64176195D02*
X171650318Y-64200471D01*
X171650318Y-64200471D02*
X171622836Y-64224556D01*
X171622836Y-64224556D02*
X171594927Y-64247291D01*
X171594927Y-64247291D02*
X171566202Y-64269026D01*
X171566202Y-64269026D02*
X171536691Y-64289736D01*
X171536691Y-64289736D02*
X171503858Y-64310980D01*
X171503858Y-64310980D02*
X171471806Y-64330026D01*
X171471806Y-64330026D02*
X171434141Y-64350411D01*
X171434141Y-64350411D02*
X171400347Y-64366973D01*
X171400347Y-64366973D02*
X171365334Y-64382503D01*
X171365334Y-64382503D02*
X171328743Y-64397043D01*
X171328743Y-64397043D02*
X171291473Y-64410162D01*
X171291473Y-64410162D02*
X171252259Y-64422196D01*
X171252259Y-64422196D02*
X171211636Y-64432817D01*
X171211636Y-64432817D02*
X171170370Y-64441750D01*
X171170370Y-64441750D02*
X171123470Y-64449693D01*
X171123470Y-64449693D02*
X171076066Y-64455402D01*
X171076066Y-64455402D02*
X171028819Y-64458817D01*
X171028819Y-64458817D02*
X170980000Y-64460000D01*
X169977547Y-34459806D02*
X169978718Y-34410975D01*
X169978718Y-34410975D02*
X169982172Y-34363146D01*
X169982172Y-34363146D02*
X169987541Y-34318101D01*
X169987541Y-34318101D02*
X169994750Y-34274455D01*
X169994750Y-34274455D02*
X170003647Y-34232219D01*
X170003647Y-34232219D02*
X170013998Y-34191769D01*
X170013998Y-34191769D02*
X170025625Y-34153090D01*
X170025625Y-34153090D02*
X170038562Y-34115621D01*
X170038562Y-34115621D02*
X170052636Y-34079544D01*
X170052636Y-34079544D02*
X170067817Y-34044675D01*
X170067817Y-34044675D02*
X170084103Y-34010847D01*
X170084103Y-34010847D02*
X170101791Y-33977407D01*
X170101791Y-33977407D02*
X170120501Y-33945048D01*
X170120501Y-33945048D02*
X170139959Y-33914097D01*
X170139959Y-33914097D02*
X170160290Y-33884224D01*
X170160290Y-33884224D02*
X170181659Y-33855132D01*
X170181659Y-33855132D02*
X170204756Y-33825982D01*
X170204756Y-33825982D02*
X170228402Y-33798284D01*
X170228402Y-33798284D02*
X170252768Y-33771737D01*
X170252768Y-33771737D02*
X170278068Y-33746083D01*
X170278068Y-33746083D02*
X170304271Y-33721342D01*
X170304271Y-33721342D02*
X170333647Y-33695606D01*
X170333647Y-33695606D02*
X170362836Y-33671934D01*
X170362836Y-33671934D02*
X170391393Y-33650451D01*
X170391393Y-33650451D02*
X170422295Y-33628925D01*
X170422295Y-33628925D02*
X170453066Y-33609134D01*
X170453066Y-33609134D02*
X170485581Y-33589886D01*
X170485581Y-33589886D02*
X170518535Y-33572017D01*
X170518535Y-33572017D02*
X170553077Y-33554951D01*
X170553077Y-33554951D02*
X170587657Y-33539484D01*
X170587657Y-33539484D02*
X170625952Y-33524144D01*
X170625952Y-33524144D02*
X170663549Y-33510832D01*
X170663549Y-33510832D02*
X170703304Y-33498560D01*
X170703304Y-33498560D02*
X170743367Y-33488002D01*
X170743367Y-33488002D02*
X170785986Y-33478693D01*
X170785986Y-33478693D02*
X170828676Y-33471293D01*
X170828676Y-33471293D02*
X170873541Y-33465547D01*
X170873541Y-33465547D02*
X170921201Y-33461666D01*
X170921201Y-33461666D02*
X170969871Y-33460024D01*
X170969871Y-33460024D02*
X170980000Y-33459977D01*
X174817940Y-58241233D02*
X160403440Y-58241233D01*
X160403440Y-58241233D02*
X160403440Y-58241233D01*
X84927000Y-152490896D02*
X84976238Y-152492097D01*
X84976238Y-152492097D02*
X85022911Y-152495483D01*
X85022911Y-152495483D02*
X85068588Y-152500945D01*
X85068588Y-152500945D02*
X85111713Y-152508094D01*
X85111713Y-152508094D02*
X85153074Y-152516813D01*
X85153074Y-152516813D02*
X85193426Y-152527128D01*
X85193426Y-152527128D02*
X85232749Y-152538956D01*
X85232749Y-152538956D02*
X85269952Y-152551818D01*
X85269952Y-152551818D02*
X85308235Y-152566821D01*
X85308235Y-152566821D02*
X85343676Y-152582385D01*
X85343676Y-152582385D02*
X85377384Y-152598756D01*
X85377384Y-152598756D02*
X85412024Y-152617263D01*
X85412024Y-152617263D02*
X85444559Y-152636291D01*
X85444559Y-152636291D02*
X85476304Y-152656498D01*
X85476304Y-152656498D02*
X85507229Y-152677852D01*
X85507229Y-152677852D02*
X85536116Y-152699405D01*
X85536116Y-152699405D02*
X85569941Y-152726783D01*
X85569941Y-152726783D02*
X85597142Y-152750644D01*
X85597142Y-152750644D02*
X85623197Y-152775196D01*
X85623197Y-152775196D02*
X85648494Y-152800792D01*
X85648494Y-152800792D02*
X85672990Y-152827416D01*
X85672990Y-152827416D02*
X85697246Y-152855788D01*
X85697246Y-152855788D02*
X85719650Y-152884008D01*
X85719650Y-152884008D02*
X85741266Y-152913348D01*
X85741266Y-152913348D02*
X85763068Y-152945376D01*
X85763068Y-152945376D02*
X85782483Y-152976331D01*
X85782483Y-152976331D02*
X85801885Y-153010015D01*
X85801885Y-153010015D02*
X85819489Y-153043485D01*
X85819489Y-153043485D02*
X85835696Y-153077339D01*
X85835696Y-153077339D02*
X85851522Y-153113991D01*
X85851522Y-153113991D02*
X85865780Y-153151015D01*
X85865780Y-153151015D02*
X85878477Y-153188362D01*
X85878477Y-153188362D02*
X85889927Y-153227091D01*
X85889927Y-153227091D02*
X85900098Y-153267585D01*
X85900098Y-153267585D02*
X85908881Y-153310240D01*
X85908881Y-153310240D02*
X85915826Y-153353529D01*
X85915826Y-153353529D02*
X85921145Y-153400171D01*
X85921145Y-153400171D02*
X85924324Y-153448226D01*
X85924324Y-153448226D02*
X85925221Y-153490810D01*
X84927000Y-111717970D02*
X84976238Y-111719171D01*
X84976238Y-111719171D02*
X85022911Y-111722557D01*
X85022911Y-111722557D02*
X85068588Y-111728019D01*
X85068588Y-111728019D02*
X85111713Y-111735168D01*
X85111713Y-111735168D02*
X85153074Y-111743887D01*
X85153074Y-111743887D02*
X85193426Y-111754202D01*
X85193426Y-111754202D02*
X85232749Y-111766030D01*
X85232749Y-111766030D02*
X85269952Y-111778892D01*
X85269952Y-111778892D02*
X85308235Y-111793895D01*
X85308235Y-111793895D02*
X85343676Y-111809459D01*
X85343676Y-111809459D02*
X85377384Y-111825830D01*
X85377384Y-111825830D02*
X85412024Y-111844337D01*
X85412024Y-111844337D02*
X85444559Y-111863365D01*
X85444559Y-111863365D02*
X85476304Y-111883572D01*
X85476304Y-111883572D02*
X85507229Y-111904926D01*
X85507229Y-111904926D02*
X85536116Y-111926479D01*
X85536116Y-111926479D02*
X85569941Y-111953857D01*
X85569941Y-111953857D02*
X85597142Y-111977718D01*
X85597142Y-111977718D02*
X85623197Y-112002269D01*
X85623197Y-112002269D02*
X85648494Y-112027865D01*
X85648494Y-112027865D02*
X85672990Y-112054489D01*
X85672990Y-112054489D02*
X85697246Y-112082861D01*
X85697246Y-112082861D02*
X85719650Y-112111081D01*
X85719650Y-112111081D02*
X85741266Y-112140421D01*
X85741266Y-112140421D02*
X85763068Y-112172449D01*
X85763068Y-112172449D02*
X85782483Y-112203404D01*
X85782483Y-112203404D02*
X85801885Y-112237088D01*
X85801885Y-112237088D02*
X85819489Y-112270558D01*
X85819489Y-112270558D02*
X85835696Y-112304412D01*
X85835696Y-112304412D02*
X85851522Y-112341064D01*
X85851522Y-112341064D02*
X85865780Y-112378088D01*
X85865780Y-112378088D02*
X85878477Y-112415435D01*
X85878477Y-112415435D02*
X85889927Y-112454164D01*
X85889927Y-112454164D02*
X85900098Y-112494658D01*
X85900098Y-112494658D02*
X85908881Y-112537313D01*
X85908881Y-112537313D02*
X85915826Y-112580602D01*
X85915826Y-112580602D02*
X85921145Y-112627244D01*
X85921145Y-112627244D02*
X85924324Y-112675299D01*
X85924324Y-112675299D02*
X85925221Y-112717883D01*
X85925221Y-153490810D02*
X85924015Y-153540319D01*
X85924015Y-153540319D02*
X85920593Y-153587631D01*
X85920593Y-153587631D02*
X85915225Y-153632748D01*
X85915225Y-153632748D02*
X85907447Y-153679532D01*
X85907447Y-153679532D02*
X85898070Y-153723290D01*
X85898070Y-153723290D02*
X85887550Y-153763722D01*
X85887550Y-153763722D02*
X85874927Y-153804928D01*
X85874927Y-153804928D02*
X85861679Y-153842498D01*
X85861679Y-153842498D02*
X85847442Y-153878314D01*
X85847442Y-153878314D02*
X85831881Y-153913431D01*
X85831881Y-153913431D02*
X85813468Y-153950853D01*
X85813468Y-153950853D02*
X85795247Y-153984424D01*
X85795247Y-153984424D02*
X85776001Y-154016884D01*
X85776001Y-154016884D02*
X85755587Y-154048543D01*
X85755587Y-154048543D02*
X85733144Y-154080579D01*
X85733144Y-154080579D02*
X85709737Y-154111386D01*
X85709737Y-154111386D02*
X85686647Y-154139533D01*
X85686647Y-154139533D02*
X85662697Y-154166670D01*
X85662697Y-154166670D02*
X85638327Y-154192386D01*
X85638327Y-154192386D02*
X85612389Y-154217870D01*
X85612389Y-154217870D02*
X85585829Y-154242153D01*
X85585829Y-154242153D02*
X85556091Y-154267380D01*
X85556091Y-154267380D02*
X85527773Y-154289639D01*
X85527773Y-154289639D02*
X85498654Y-154310883D01*
X85498654Y-154310883D02*
X85467812Y-154331702D01*
X85467812Y-154331702D02*
X85432934Y-154353312D01*
X85432934Y-154353312D02*
X85400622Y-154371625D01*
X85400622Y-154371625D02*
X85366565Y-154389255D01*
X85366565Y-154389255D02*
X85328128Y-154407216D01*
X85328128Y-154407216D02*
X85292199Y-154422242D01*
X85292199Y-154422242D02*
X85255581Y-154435885D01*
X85255581Y-154435885D02*
X85216661Y-154448622D01*
X85216661Y-154448622D02*
X85176692Y-154459877D01*
X85176692Y-154459877D02*
X85135883Y-154469528D01*
X85135883Y-154469528D02*
X85093305Y-154477678D01*
X85093305Y-154477678D02*
X85048753Y-154484162D01*
X85048753Y-154484162D02*
X85003205Y-154488680D01*
X85003205Y-154488680D02*
X84953491Y-154491220D01*
X84953491Y-154491220D02*
X84927000Y-154491570D01*
X170980000Y-35459973D02*
X170930808Y-35458790D01*
X170930808Y-35458790D02*
X170884011Y-35455451D01*
X170884011Y-35455451D02*
X170839004Y-35450167D01*
X170839004Y-35450167D02*
X170795397Y-35443067D01*
X170795397Y-35443067D02*
X170752823Y-35434209D01*
X170752823Y-35434209D02*
X170712233Y-35423935D01*
X170712233Y-35423935D02*
X170672323Y-35412034D01*
X170672323Y-35412034D02*
X170633129Y-35398545D01*
X170633129Y-35398545D02*
X170594689Y-35383504D01*
X170594689Y-35383504D02*
X170559798Y-35368223D01*
X170559798Y-35368223D02*
X170524268Y-35350988D01*
X170524268Y-35350988D02*
X170490856Y-35333153D01*
X170490856Y-35333153D02*
X170457247Y-35313520D01*
X170457247Y-35313520D02*
X170426374Y-35293890D01*
X170426374Y-35293890D02*
X170396586Y-35273398D01*
X170396586Y-35273398D02*
X170366845Y-35251299D01*
X170366845Y-35251299D02*
X170337101Y-35227424D01*
X170337101Y-35227424D02*
X170309840Y-35203837D01*
X170309840Y-35203837D02*
X170283723Y-35179560D01*
X170283723Y-35179560D02*
X170256921Y-35152758D01*
X170256921Y-35152758D02*
X170232397Y-35126362D01*
X170232397Y-35126362D02*
X170206191Y-35095919D01*
X170206191Y-35095919D02*
X170183485Y-35067414D01*
X170183485Y-35067414D02*
X170162031Y-35038389D01*
X170162031Y-35038389D02*
X170141614Y-35008575D01*
X170141614Y-35008575D02*
X170122064Y-34977678D01*
X170122064Y-34977678D02*
X170101974Y-34943058D01*
X170101974Y-34943058D02*
X170084103Y-34909269D01*
X170084103Y-34909269D02*
X170067737Y-34875250D01*
X170067737Y-34875250D02*
X170052491Y-34840182D01*
X170052491Y-34840182D02*
X170037575Y-34801735D01*
X170037575Y-34801735D02*
X170024336Y-34762905D01*
X170024336Y-34762905D02*
X170012614Y-34723188D01*
X170012614Y-34723188D02*
X170002599Y-34683182D01*
X170002599Y-34683182D02*
X169993965Y-34641209D01*
X169993965Y-34641209D02*
X169986941Y-34597444D01*
X169986941Y-34597444D02*
X169981763Y-34552274D01*
X169981763Y-34552274D02*
X169978552Y-34505112D01*
X169978552Y-34505112D02*
X169977547Y-34459806D01*
X84927000Y-113718643D02*
X84927000Y-113718643D01*
X80925147Y-156819903D02*
X80926973Y-156868691D01*
X80926973Y-156868691D02*
X80931961Y-156913738D01*
X80931961Y-156913738D02*
X80939689Y-156956326D01*
X80939689Y-156956326D02*
X80949865Y-156996812D01*
X80949865Y-156996812D02*
X80962031Y-157034727D01*
X80962031Y-157034727D02*
X80976305Y-157071234D01*
X80976305Y-157071234D02*
X80992218Y-157105633D01*
X80992218Y-157105633D02*
X81010253Y-157139204D01*
X81010253Y-157139204D02*
X81029395Y-157170330D01*
X81029395Y-157170330D02*
X81050159Y-157200147D01*
X81050159Y-157200147D02*
X81072309Y-157228418D01*
X81072309Y-157228418D02*
X81095815Y-157255204D01*
X81095815Y-157255204D02*
X81121190Y-157281055D01*
X81121190Y-157281055D02*
X81147437Y-157304969D01*
X81147437Y-157304969D02*
X81175557Y-157327855D01*
X81175557Y-157327855D02*
X81204571Y-157348876D01*
X81204571Y-157348876D02*
X81235082Y-157368465D01*
X81235082Y-157368465D02*
X81267388Y-157386683D01*
X81267388Y-157386683D02*
X81301374Y-157403300D01*
X81301374Y-157403300D02*
X81337364Y-157418278D01*
X81337364Y-157418278D02*
X81375363Y-157431384D01*
X81375363Y-157431384D02*
X81415360Y-157442358D01*
X81415360Y-157442358D02*
X81457349Y-157450938D01*
X81457349Y-157450938D02*
X81501549Y-157456856D01*
X81501549Y-157456856D02*
X81551278Y-157459832D01*
X81551278Y-157459832D02*
X81565227Y-157459983D01*
X84927000Y-35459973D02*
X84877838Y-35458790D01*
X84877838Y-35458790D02*
X84830081Y-35455357D01*
X84830081Y-35455357D02*
X84784531Y-35449946D01*
X84784531Y-35449946D02*
X84741550Y-35442889D01*
X84741550Y-35442889D02*
X84698828Y-35433945D01*
X84698828Y-35433945D02*
X84657912Y-35423523D01*
X84657912Y-35423523D02*
X84617871Y-35411503D01*
X84617871Y-35411503D02*
X84577478Y-35397484D01*
X84577478Y-35397484D02*
X84541405Y-35383283D01*
X84541405Y-35383283D02*
X84504310Y-35366946D01*
X84504310Y-35366946D02*
X84470212Y-35350298D01*
X84470212Y-35350298D02*
X84436852Y-35332414D01*
X84436852Y-35332414D02*
X84404585Y-35313520D01*
X84404585Y-35313520D02*
X84373732Y-35293890D01*
X84373732Y-35293890D02*
X84342741Y-35272522D01*
X84342741Y-35272522D02*
X84313799Y-35250956D01*
X84313799Y-35250956D02*
X84285675Y-35228386D01*
X84285675Y-35228386D02*
X84258676Y-35205088D01*
X84258676Y-35205088D02*
X84232396Y-35180729D01*
X84232396Y-35180729D02*
X84206482Y-35154916D01*
X84206482Y-35154916D02*
X84182147Y-35128873D01*
X84182147Y-35128873D02*
X84158263Y-35101400D01*
X84158263Y-35101400D02*
X84135607Y-35073360D01*
X84135607Y-35073360D02*
X84113955Y-35044501D01*
X84113955Y-35044501D02*
X84092499Y-35013598D01*
X84092499Y-35013598D02*
X84072782Y-34982826D01*
X84072782Y-34982826D02*
X84053989Y-34950972D01*
X84053989Y-34950972D02*
X84035832Y-34917368D01*
X84035832Y-34917368D02*
X84019098Y-34883350D01*
X84019098Y-34883350D02*
X84003635Y-34848622D01*
X84003635Y-34848622D02*
X83988923Y-34811775D01*
X83988923Y-34811775D02*
X83975170Y-34772770D01*
X83975170Y-34772770D02*
X83963110Y-34733414D01*
X83963110Y-34733414D02*
X83952554Y-34693007D01*
X83952554Y-34693007D02*
X83943585Y-34651571D01*
X83943585Y-34651571D02*
X83936232Y-34608736D01*
X83936232Y-34608736D02*
X83930595Y-34564117D01*
X83930595Y-34564117D02*
X83926824Y-34516909D01*
X83926824Y-34516909D02*
X83925252Y-34467490D01*
X83925252Y-34467490D02*
X83925225Y-34459806D01*
X84927000Y-33459977D02*
X84976238Y-33461177D01*
X84976238Y-33461177D02*
X85022911Y-33464556D01*
X85022911Y-33464556D02*
X85070331Y-33470259D01*
X85070331Y-33470259D02*
X85113623Y-33477509D01*
X85113623Y-33477509D02*
X85155708Y-33486473D01*
X85155708Y-33486473D02*
X85196019Y-33496880D01*
X85196019Y-33496880D02*
X85235662Y-33508914D01*
X85235662Y-33508914D02*
X85274600Y-33522534D01*
X85274600Y-33522534D02*
X85311041Y-33536969D01*
X85311041Y-33536969D02*
X85347457Y-33553099D01*
X85347457Y-33553099D02*
X85381422Y-33569761D01*
X85381422Y-33569761D02*
X85414655Y-33587657D01*
X85414655Y-33587657D02*
X85446806Y-33606565D01*
X85446806Y-33606565D02*
X85477556Y-33626209D01*
X85477556Y-33626209D02*
X85507533Y-33646932D01*
X85507533Y-33646932D02*
X85537303Y-33669166D01*
X85537303Y-33669166D02*
X85565348Y-33691746D01*
X85565348Y-33691746D02*
X85592552Y-33715304D01*
X85592552Y-33715304D02*
X85622123Y-33742939D01*
X85622123Y-33742939D02*
X85647457Y-33768481D01*
X85647457Y-33768481D02*
X85671870Y-33794918D01*
X85671870Y-33794918D02*
X85695334Y-33822221D01*
X85695334Y-33822221D02*
X85717591Y-33850065D01*
X85717591Y-33850065D02*
X85739305Y-33879322D01*
X85739305Y-33879322D02*
X85759863Y-33909221D01*
X85759863Y-33909221D02*
X85779946Y-33940858D01*
X85779946Y-33940858D02*
X85798402Y-33972456D01*
X85798402Y-33972456D02*
X85816068Y-34005448D01*
X85816068Y-34005448D02*
X85832681Y-34039505D01*
X85832681Y-34039505D02*
X85848472Y-34075324D01*
X85848472Y-34075324D02*
X85863149Y-34112574D01*
X85863149Y-34112574D02*
X85876242Y-34150170D01*
X85876242Y-34150170D02*
X85887969Y-34188798D01*
X85887969Y-34188798D02*
X85898338Y-34228823D01*
X85898338Y-34228823D02*
X85907374Y-34271007D01*
X85907374Y-34271007D02*
X85914722Y-34314603D01*
X85914722Y-34314603D02*
X85920285Y-34359993D01*
X85920285Y-34359993D02*
X85923875Y-34407583D01*
X85923875Y-34407583D02*
X85925217Y-34457380D01*
X85925217Y-34457380D02*
X85925221Y-34459806D01*
X84927000Y-35459973D02*
X84927000Y-35459973D01*
X83925225Y-34459806D02*
X83926395Y-34410975D01*
X83926395Y-34410975D02*
X83929847Y-34363146D01*
X83929847Y-34363146D02*
X83935211Y-34318101D01*
X83935211Y-34318101D02*
X83942414Y-34274455D01*
X83942414Y-34274455D02*
X83951306Y-34232219D01*
X83951306Y-34232219D02*
X83961648Y-34191769D01*
X83961648Y-34191769D02*
X83973621Y-34151994D01*
X83973621Y-34151994D02*
X83986788Y-34114008D01*
X83986788Y-34114008D02*
X84002452Y-34074271D01*
X84002452Y-34074271D02*
X84017813Y-34039505D01*
X84017813Y-34039505D02*
X84034448Y-34005448D01*
X84034448Y-34005448D02*
X84052321Y-33972126D01*
X84052321Y-33972126D02*
X84070813Y-33940535D01*
X84070813Y-33940535D02*
X84091665Y-33907811D01*
X84091665Y-33907811D02*
X84112198Y-33878098D01*
X84112198Y-33878098D02*
X84133763Y-33849174D01*
X84133763Y-33849174D02*
X84157299Y-33819913D01*
X84157299Y-33819913D02*
X84180893Y-33792682D01*
X84180893Y-33792682D02*
X84205178Y-33766589D01*
X84205178Y-33766589D02*
X84230910Y-33740852D01*
X84230910Y-33740852D02*
X84257280Y-33716306D01*
X84257280Y-33716306D02*
X84284234Y-33692948D01*
X84284234Y-33692948D02*
X84315881Y-33667558D01*
X84315881Y-33667558D02*
X84347644Y-33644094D01*
X84347644Y-33644094D02*
X84377508Y-33623721D01*
X84377508Y-33623721D02*
X84410394Y-33603041D01*
X84410394Y-33603041D02*
X84443464Y-33583980D01*
X84443464Y-33583980D02*
X84476633Y-33566499D01*
X84476633Y-33566499D02*
X84511215Y-33549918D01*
X84511215Y-33549918D02*
X84547577Y-33534202D01*
X84547577Y-33534202D02*
X84584666Y-33519894D01*
X84584666Y-33519894D02*
X84622448Y-33507029D01*
X84622448Y-33507029D02*
X84662010Y-33495337D01*
X84662010Y-33495337D02*
X84702616Y-33485158D01*
X84702616Y-33485158D02*
X84744243Y-33476577D01*
X84744243Y-33476577D02*
X84787652Y-33469571D01*
X84787652Y-33469571D02*
X84834828Y-33464150D01*
X84834828Y-33464150D02*
X84882845Y-33460928D01*
X84882845Y-33460928D02*
X84927000Y-33459977D01*
X169977547Y-63459832D02*
X169978718Y-63411001D01*
X169978718Y-63411001D02*
X169982172Y-63363172D01*
X169982172Y-63363172D02*
X169987541Y-63318127D01*
X169987541Y-63318127D02*
X169994750Y-63274481D01*
X169994750Y-63274481D02*
X170003647Y-63232245D01*
X170003647Y-63232245D02*
X170013998Y-63191796D01*
X170013998Y-63191796D02*
X170025625Y-63153117D01*
X170025625Y-63153117D02*
X170038562Y-63115648D01*
X170038562Y-63115648D02*
X170052636Y-63079571D01*
X170052636Y-63079571D02*
X170067817Y-63044702D01*
X170067817Y-63044702D02*
X170084103Y-63010874D01*
X170084103Y-63010874D02*
X170101791Y-62977434D01*
X170101791Y-62977434D02*
X170120501Y-62945075D01*
X170120501Y-62945075D02*
X170139959Y-62914124D01*
X170139959Y-62914124D02*
X170160290Y-62884251D01*
X170160290Y-62884251D02*
X170181659Y-62855159D01*
X170181659Y-62855159D02*
X170204756Y-62826009D01*
X170204756Y-62826009D02*
X170228402Y-62798311D01*
X170228402Y-62798311D02*
X170252768Y-62771764D01*
X170252768Y-62771764D02*
X170278068Y-62746110D01*
X170278068Y-62746110D02*
X170304271Y-62721369D01*
X170304271Y-62721369D02*
X170333647Y-62695633D01*
X170333647Y-62695633D02*
X170362836Y-62671961D01*
X170362836Y-62671961D02*
X170391393Y-62650478D01*
X170391393Y-62650478D02*
X170422295Y-62628952D01*
X170422295Y-62628952D02*
X170453066Y-62609161D01*
X170453066Y-62609161D02*
X170485581Y-62589913D01*
X170485581Y-62589913D02*
X170518535Y-62572044D01*
X170518535Y-62572044D02*
X170553077Y-62554978D01*
X170553077Y-62554978D02*
X170587657Y-62539511D01*
X170587657Y-62539511D02*
X170625952Y-62524171D01*
X170625952Y-62524171D02*
X170663549Y-62510859D01*
X170663549Y-62510859D02*
X170703304Y-62498587D01*
X170703304Y-62498587D02*
X170743367Y-62488029D01*
X170743367Y-62488029D02*
X170785986Y-62478720D01*
X170785986Y-62478720D02*
X170828676Y-62471320D01*
X170828676Y-62471320D02*
X170873541Y-62465574D01*
X170873541Y-62465574D02*
X170921201Y-62461693D01*
X170921201Y-62461693D02*
X170969871Y-62460051D01*
X170969871Y-62460051D02*
X170980000Y-62460004D01*
X170980000Y-64460000D02*
X170980000Y-64460000D01*
X84927000Y-154491570D02*
X84927000Y-154491570D01*
X170980000Y-64460000D02*
X170930808Y-64458817D01*
X170930808Y-64458817D02*
X170884011Y-64455478D01*
X170884011Y-64455478D02*
X170839004Y-64450194D01*
X170839004Y-64450194D02*
X170795397Y-64443094D01*
X170795397Y-64443094D02*
X170752823Y-64434236D01*
X170752823Y-64434236D02*
X170712233Y-64423962D01*
X170712233Y-64423962D02*
X170672323Y-64412061D01*
X170672323Y-64412061D02*
X170633129Y-64398572D01*
X170633129Y-64398572D02*
X170594689Y-64383531D01*
X170594689Y-64383531D02*
X170559798Y-64368250D01*
X170559798Y-64368250D02*
X170524268Y-64351015D01*
X170524268Y-64351015D02*
X170490856Y-64333180D01*
X170490856Y-64333180D02*
X170457247Y-64313547D01*
X170457247Y-64313547D02*
X170426374Y-64293917D01*
X170426374Y-64293917D02*
X170396586Y-64273425D01*
X170396586Y-64273425D02*
X170366845Y-64251326D01*
X170366845Y-64251326D02*
X170337101Y-64227451D01*
X170337101Y-64227451D02*
X170309840Y-64203864D01*
X170309840Y-64203864D02*
X170283723Y-64179587D01*
X170283723Y-64179587D02*
X170256921Y-64152785D01*
X170256921Y-64152785D02*
X170232397Y-64126389D01*
X170232397Y-64126389D02*
X170206191Y-64095946D01*
X170206191Y-64095946D02*
X170183485Y-64067441D01*
X170183485Y-64067441D02*
X170162031Y-64038416D01*
X170162031Y-64038416D02*
X170141614Y-64008602D01*
X170141614Y-64008602D02*
X170122064Y-63977705D01*
X170122064Y-63977705D02*
X170101974Y-63943085D01*
X170101974Y-63943085D02*
X170084103Y-63909296D01*
X170084103Y-63909296D02*
X170067737Y-63875277D01*
X170067737Y-63875277D02*
X170052491Y-63840209D01*
X170052491Y-63840209D02*
X170037575Y-63801762D01*
X170037575Y-63801762D02*
X170024336Y-63762932D01*
X170024336Y-63762932D02*
X170012614Y-63723215D01*
X170012614Y-63723215D02*
X170002599Y-63683208D01*
X170002599Y-63683208D02*
X169993965Y-63641235D01*
X169993965Y-63641235D02*
X169986941Y-63597470D01*
X169986941Y-63597470D02*
X169981763Y-63552300D01*
X169981763Y-63552300D02*
X169978552Y-63505138D01*
X169978552Y-63505138D02*
X169977547Y-63459832D01*
M02*
