G04 #@! TF.GenerationSoftware,KiCad,Pcbnew,(5.1.5-0-10_14)*
G04 #@! TF.CreationDate,2020-05-14T05:34:13+09:00*
G04 #@! TF.ProjectId,N-bottom-v02,4e2d626f-7474-46f6-9d2d-7630322e6b69,rev?*
G04 #@! TF.SameCoordinates,Original*
G04 #@! TF.FileFunction,Legend,Top*
G04 #@! TF.FilePolarity,Positive*
%FSLAX46Y46*%
G04 Gerber Fmt 4.6, Leading zero omitted, Abs format (unit mm)*
G04 Created by KiCad (PCBNEW (5.1.5-0-10_14)) date 2020-05-14 05:34:13*
%MOMM*%
%LPD*%
G04 APERTURE LIST*
%ADD10C,0.300000*%
G04 APERTURE END LIST*
D10*
X92795714Y-33213571D02*
X93867142Y-33213571D01*
X93224285Y-32570714D02*
X92795714Y-34499285D01*
X93724285Y-33856428D02*
X92652857Y-33856428D01*
X93295714Y-34499285D02*
X93724285Y-32570714D01*
X95224285Y-34070714D02*
X95152857Y-34142142D01*
X94938571Y-34213571D01*
X94795714Y-34213571D01*
X94581428Y-34142142D01*
X94438571Y-33999285D01*
X94367142Y-33856428D01*
X94295714Y-33570714D01*
X94295714Y-33356428D01*
X94367142Y-33070714D01*
X94438571Y-32927857D01*
X94581428Y-32785000D01*
X94795714Y-32713571D01*
X94938571Y-32713571D01*
X95152857Y-32785000D01*
X95224285Y-32856428D01*
X96081428Y-34213571D02*
X95938571Y-34142142D01*
X95867142Y-34070714D01*
X95795714Y-33927857D01*
X95795714Y-33499285D01*
X95867142Y-33356428D01*
X95938571Y-33285000D01*
X96081428Y-33213571D01*
X96295714Y-33213571D01*
X96438571Y-33285000D01*
X96510000Y-33356428D01*
X96581428Y-33499285D01*
X96581428Y-33927857D01*
X96510000Y-34070714D01*
X96438571Y-34142142D01*
X96295714Y-34213571D01*
X96081428Y-34213571D01*
X97438571Y-34213571D02*
X97295714Y-34142142D01*
X97224285Y-33999285D01*
X97224285Y-32713571D01*
X98010000Y-34213571D02*
X98010000Y-33213571D01*
X98010000Y-32713571D02*
X97938571Y-32785000D01*
X98010000Y-32856428D01*
X98081428Y-32785000D01*
X98010000Y-32713571D01*
X98010000Y-32856428D01*
X99367142Y-34142142D02*
X99224285Y-34213571D01*
X98938571Y-34213571D01*
X98795714Y-34142142D01*
X98724285Y-34070714D01*
X98652857Y-33927857D01*
X98652857Y-33499285D01*
X98724285Y-33356428D01*
X98795714Y-33285000D01*
X98938571Y-33213571D01*
X99224285Y-33213571D01*
X99367142Y-33285000D01*
X100581428Y-34142142D02*
X100438571Y-34213571D01*
X100152857Y-34213571D01*
X100010000Y-34142142D01*
X99938571Y-33999285D01*
X99938571Y-33427857D01*
X100010000Y-33285000D01*
X100152857Y-33213571D01*
X100438571Y-33213571D01*
X100581428Y-33285000D01*
X100652857Y-33427857D01*
X100652857Y-33570714D01*
X99938571Y-33713571D01*
X103367142Y-33499285D02*
X103295714Y-33427857D01*
X103152857Y-33356428D01*
X103010000Y-33356428D01*
X102867142Y-33427857D01*
X102795714Y-33499285D01*
X102724285Y-33642142D01*
X102724285Y-33785000D01*
X102795714Y-33927857D01*
X102867142Y-33999285D01*
X103010000Y-34070714D01*
X103152857Y-34070714D01*
X103295714Y-33999285D01*
X103367142Y-33927857D01*
X103367142Y-33356428D02*
X103367142Y-33927857D01*
X103438571Y-33999285D01*
X103510000Y-33999285D01*
X103652857Y-33927857D01*
X103724285Y-33785000D01*
X103724285Y-33427857D01*
X103581428Y-33213571D01*
X103367142Y-33070714D01*
X103081428Y-32999285D01*
X102795714Y-33070714D01*
X102581428Y-33213571D01*
X102438571Y-33427857D01*
X102367142Y-33713571D01*
X102438571Y-33999285D01*
X102581428Y-34213571D01*
X102795714Y-34356428D01*
X103081428Y-34427857D01*
X103367142Y-34356428D01*
X103581428Y-34213571D01*
X104367142Y-33213571D02*
X104367142Y-34499285D01*
X104295714Y-34642142D01*
X104152857Y-34713571D01*
X104081428Y-34713571D01*
X104367142Y-32713571D02*
X104295714Y-32785000D01*
X104367142Y-32856428D01*
X104438571Y-32785000D01*
X104367142Y-32713571D01*
X104367142Y-32856428D01*
X105081428Y-33213571D02*
X105081428Y-34713571D01*
X105081428Y-33285000D02*
X105224285Y-33213571D01*
X105510000Y-33213571D01*
X105652857Y-33285000D01*
X105724285Y-33356428D01*
X105795714Y-33499285D01*
X105795714Y-33927857D01*
X105724285Y-34070714D01*
X105652857Y-34142142D01*
X105510000Y-34213571D01*
X105224285Y-34213571D01*
X105081428Y-34142142D01*
X106367142Y-34142142D02*
X106510000Y-34213571D01*
X106795714Y-34213571D01*
X106938571Y-34142142D01*
X107010000Y-33999285D01*
X107010000Y-33927857D01*
X106938571Y-33785000D01*
X106795714Y-33713571D01*
X106581428Y-33713571D01*
X106438571Y-33642142D01*
X106367142Y-33499285D01*
X106367142Y-33427857D01*
X106438571Y-33285000D01*
X106581428Y-33213571D01*
X106795714Y-33213571D01*
X106938571Y-33285000D01*
X107652857Y-34213571D02*
X107652857Y-32713571D01*
X107795714Y-33642142D02*
X108224285Y-34213571D01*
X108224285Y-33213571D02*
X107652857Y-33785000D01*
X109438571Y-34142142D02*
X109295714Y-34213571D01*
X109010000Y-34213571D01*
X108867142Y-34142142D01*
X108795714Y-33999285D01*
X108795714Y-33427857D01*
X108867142Y-33285000D01*
X109010000Y-33213571D01*
X109295714Y-33213571D01*
X109438571Y-33285000D01*
X109510000Y-33427857D01*
X109510000Y-33570714D01*
X108795714Y-33713571D01*
X110152857Y-33213571D02*
X110152857Y-34213571D01*
X110152857Y-33356428D02*
X110224285Y-33285000D01*
X110367142Y-33213571D01*
X110581428Y-33213571D01*
X110724285Y-33285000D01*
X110795714Y-33427857D01*
X110795714Y-34213571D01*
X111510000Y-33213571D02*
X111510000Y-34213571D01*
X111510000Y-33356428D02*
X111581428Y-33285000D01*
X111724285Y-33213571D01*
X111938571Y-33213571D01*
X112081428Y-33285000D01*
X112152857Y-33427857D01*
X112152857Y-34213571D01*
X94081428Y-36763571D02*
X94081428Y-35263571D01*
X94938571Y-36763571D01*
X94938571Y-35263571D01*
X97295714Y-35977857D02*
X97510000Y-36049285D01*
X97581428Y-36120714D01*
X97652857Y-36263571D01*
X97652857Y-36477857D01*
X97581428Y-36620714D01*
X97510000Y-36692142D01*
X97367142Y-36763571D01*
X96795714Y-36763571D01*
X96795714Y-35263571D01*
X97295714Y-35263571D01*
X97438571Y-35335000D01*
X97510000Y-35406428D01*
X97581428Y-35549285D01*
X97581428Y-35692142D01*
X97510000Y-35835000D01*
X97438571Y-35906428D01*
X97295714Y-35977857D01*
X96795714Y-35977857D01*
X98510000Y-36763571D02*
X98367142Y-36692142D01*
X98295714Y-36620714D01*
X98224285Y-36477857D01*
X98224285Y-36049285D01*
X98295714Y-35906428D01*
X98367142Y-35835000D01*
X98510000Y-35763571D01*
X98724285Y-35763571D01*
X98867142Y-35835000D01*
X98938571Y-35906428D01*
X99010000Y-36049285D01*
X99010000Y-36477857D01*
X98938571Y-36620714D01*
X98867142Y-36692142D01*
X98724285Y-36763571D01*
X98510000Y-36763571D01*
X99438571Y-35763571D02*
X100010000Y-35763571D01*
X99652857Y-35263571D02*
X99652857Y-36549285D01*
X99724285Y-36692142D01*
X99867142Y-36763571D01*
X100010000Y-36763571D01*
X100295714Y-35763571D02*
X100867142Y-35763571D01*
X100510000Y-35263571D02*
X100510000Y-36549285D01*
X100581428Y-36692142D01*
X100724285Y-36763571D01*
X100867142Y-36763571D01*
X101581428Y-36763571D02*
X101438571Y-36692142D01*
X101367142Y-36620714D01*
X101295714Y-36477857D01*
X101295714Y-36049285D01*
X101367142Y-35906428D01*
X101438571Y-35835000D01*
X101581428Y-35763571D01*
X101795714Y-35763571D01*
X101938571Y-35835000D01*
X102010000Y-35906428D01*
X102081428Y-36049285D01*
X102081428Y-36477857D01*
X102010000Y-36620714D01*
X101938571Y-36692142D01*
X101795714Y-36763571D01*
X101581428Y-36763571D01*
X102724285Y-36763571D02*
X102724285Y-35763571D01*
X102724285Y-35906428D02*
X102795714Y-35835000D01*
X102938571Y-35763571D01*
X103152857Y-35763571D01*
X103295714Y-35835000D01*
X103367142Y-35977857D01*
X103367142Y-36763571D01*
X103367142Y-35977857D02*
X103438571Y-35835000D01*
X103581428Y-35763571D01*
X103795714Y-35763571D01*
X103938571Y-35835000D01*
X104010000Y-35977857D01*
X104010000Y-36763571D01*
X105867142Y-36763571D02*
X105867142Y-35263571D01*
X106438571Y-35263571D01*
X106581428Y-35335000D01*
X106652857Y-35406428D01*
X106724285Y-35549285D01*
X106724285Y-35763571D01*
X106652857Y-35906428D01*
X106581428Y-35977857D01*
X106438571Y-36049285D01*
X105867142Y-36049285D01*
X107581428Y-36763571D02*
X107438571Y-36692142D01*
X107367142Y-36549285D01*
X107367142Y-35263571D01*
X108795714Y-36763571D02*
X108795714Y-35977857D01*
X108724285Y-35835000D01*
X108581428Y-35763571D01*
X108295714Y-35763571D01*
X108152857Y-35835000D01*
X108795714Y-36692142D02*
X108652857Y-36763571D01*
X108295714Y-36763571D01*
X108152857Y-36692142D01*
X108081428Y-36549285D01*
X108081428Y-36406428D01*
X108152857Y-36263571D01*
X108295714Y-36192142D01*
X108652857Y-36192142D01*
X108795714Y-36120714D01*
X109295714Y-35763571D02*
X109867142Y-35763571D01*
X109510000Y-35263571D02*
X109510000Y-36549285D01*
X109581428Y-36692142D01*
X109724285Y-36763571D01*
X109867142Y-36763571D01*
X110938571Y-36692142D02*
X110795714Y-36763571D01*
X110510000Y-36763571D01*
X110367142Y-36692142D01*
X110295714Y-36549285D01*
X110295714Y-35977857D01*
X110367142Y-35835000D01*
X110510000Y-35763571D01*
X110795714Y-35763571D01*
X110938571Y-35835000D01*
X111010000Y-35977857D01*
X111010000Y-36120714D01*
X110295714Y-36263571D01*
M02*
