G04 #@! TF.GenerationSoftware,KiCad,Pcbnew,(5.1.5-0-10_14)*
G04 #@! TF.CreationDate,2020-04-18T18:06:01+09:00*
G04 #@! TF.ProjectId,colice_pcb_left_bottom,636f6c69-6365-45f7-9063-625f6c656674,rev?*
G04 #@! TF.SameCoordinates,Original*
G04 #@! TF.FileFunction,Copper,L1,Top*
G04 #@! TF.FilePolarity,Positive*
%FSLAX46Y46*%
G04 Gerber Fmt 4.6, Leading zero omitted, Abs format (unit mm)*
G04 Created by KiCad (PCBNEW (5.1.5-0-10_14)) date 2020-04-18 18:06:01*
%MOMM*%
%LPD*%
G04 APERTURE LIST*
%ADD10C,0.254000*%
G04 APERTURE END LIST*
D10*
G36*
X44185546Y-64055197D02*
G01*
X44174563Y-64089768D01*
X44170535Y-64125816D01*
X44170534Y-64125823D01*
X44160207Y-64218258D01*
X44158487Y-64233654D01*
X44170791Y-64377912D01*
X44211002Y-64516999D01*
X44277575Y-64645567D01*
X44367950Y-64758678D01*
X44384171Y-64772349D01*
X44478657Y-64851984D01*
X44605440Y-64921900D01*
X44743426Y-64965737D01*
X44779482Y-64969765D01*
X68095954Y-69925819D01*
X68130527Y-69936803D01*
X68166581Y-69940831D01*
X68166585Y-69940832D01*
X68233371Y-69948293D01*
X68274414Y-69952879D01*
X68274416Y-69952879D01*
X68304083Y-69950349D01*
X68418671Y-69940576D01*
X68418674Y-69940575D01*
X68418675Y-69940575D01*
X68435549Y-69935696D01*
X68557758Y-69900366D01*
X68686327Y-69833794D01*
X68799439Y-69743418D01*
X68892745Y-69632712D01*
X68962661Y-69505930D01*
X68995514Y-69402521D01*
X68995515Y-69402518D01*
X69006500Y-69367940D01*
X69010528Y-69331887D01*
X75311828Y-39687262D01*
X80730619Y-40838899D01*
X80765184Y-40849881D01*
X80801251Y-40853911D01*
X80801262Y-40853913D01*
X80846375Y-40858952D01*
X80909071Y-40865957D01*
X80909079Y-40865956D01*
X80909094Y-40865958D01*
X80994539Y-40858668D01*
X81053329Y-40853654D01*
X81053339Y-40853651D01*
X81053352Y-40853650D01*
X81127049Y-40832341D01*
X81192415Y-40813444D01*
X81192425Y-40813439D01*
X81192438Y-40813435D01*
X81266720Y-40774969D01*
X81320984Y-40746871D01*
X81320992Y-40746865D01*
X81321005Y-40746858D01*
X81380400Y-40699398D01*
X81434096Y-40656496D01*
X81434105Y-40656486D01*
X81434113Y-40656479D01*
X81479207Y-40602973D01*
X81527402Y-40545790D01*
X81527407Y-40545780D01*
X81527416Y-40545770D01*
X81564146Y-40479160D01*
X81597318Y-40419008D01*
X81597322Y-40418997D01*
X81597328Y-40418985D01*
X81619482Y-40349245D01*
X81630172Y-40315598D01*
X81630175Y-40315586D01*
X81641162Y-40280998D01*
X81645188Y-40244955D01*
X85431573Y-22431766D01*
X167159620Y-22431766D01*
X161278053Y-50102371D01*
X161267069Y-50136946D01*
X161250994Y-50280833D01*
X161263298Y-50425090D01*
X161303509Y-50564177D01*
X161370082Y-50692745D01*
X161460458Y-50805856D01*
X161571165Y-50899162D01*
X161697948Y-50969077D01*
X161801357Y-51001930D01*
X161801361Y-51001931D01*
X161835932Y-51012914D01*
X161871983Y-51016942D01*
X172702641Y-53319045D01*
X172737213Y-53330029D01*
X172773265Y-53334057D01*
X172773270Y-53334058D01*
X172860578Y-53343812D01*
X172881100Y-53346105D01*
X172881101Y-53346105D01*
X172895934Y-53344840D01*
X173025357Y-53333802D01*
X173164444Y-53293591D01*
X173293013Y-53227018D01*
X173293015Y-53227017D01*
X173360654Y-53172973D01*
X173406124Y-53136643D01*
X173499431Y-53025936D01*
X173569346Y-52899154D01*
X173602199Y-52795745D01*
X173602201Y-52795738D01*
X173613184Y-52761165D01*
X173617211Y-52725117D01*
X178938562Y-27690300D01*
X201017560Y-27690300D01*
X201017560Y-28027140D01*
X201083274Y-28357509D01*
X201212178Y-28668709D01*
X201399316Y-28948781D01*
X201637499Y-29186964D01*
X201917571Y-29374102D01*
X202228771Y-29503006D01*
X202559140Y-29568720D01*
X202895980Y-29568720D01*
X203226349Y-29503006D01*
X203537549Y-29374102D01*
X203817621Y-29186964D01*
X204055804Y-28948781D01*
X204242942Y-28668709D01*
X204371846Y-28357509D01*
X204437560Y-28027140D01*
X204437560Y-27690300D01*
X204371846Y-27359931D01*
X204242942Y-27048731D01*
X204055804Y-26768659D01*
X203817621Y-26530476D01*
X203537549Y-26343338D01*
X203226349Y-26214434D01*
X202895980Y-26148720D01*
X202559140Y-26148720D01*
X202228771Y-26214434D01*
X201917571Y-26343338D01*
X201637499Y-26530476D01*
X201399316Y-26768659D01*
X201212178Y-27048731D01*
X201083274Y-27359931D01*
X201017560Y-27690300D01*
X178938562Y-27690300D01*
X180056306Y-22431766D01*
X198246225Y-22431766D01*
X198435330Y-22433538D01*
X198626204Y-22438970D01*
X198812069Y-22447827D01*
X198989148Y-22459564D01*
X199161473Y-22474095D01*
X199337008Y-22492074D01*
X199503604Y-22512125D01*
X199669623Y-22535031D01*
X199830772Y-22560076D01*
X199991091Y-22587772D01*
X200150501Y-22618085D01*
X200305296Y-22650194D01*
X200459051Y-22684726D01*
X200615781Y-22722668D01*
X200763699Y-22761045D01*
X200925755Y-22805995D01*
X201082759Y-22852475D01*
X201238619Y-22901521D01*
X201393486Y-22953161D01*
X201540076Y-23004758D01*
X201682138Y-23057328D01*
X201819780Y-23110711D01*
X201952898Y-23164672D01*
X202085145Y-23220594D01*
X202214480Y-23277557D01*
X202349886Y-23339645D01*
X202478973Y-23401219D01*
X202603741Y-23462991D01*
X202727373Y-23526436D01*
X202853299Y-23593398D01*
X202988054Y-23667725D01*
X203108323Y-23736452D01*
X203227737Y-23806982D01*
X203346013Y-23879141D01*
X203463297Y-23953020D01*
X203576260Y-24026418D01*
X203688032Y-24101272D01*
X203808073Y-24184196D01*
X203917561Y-24262186D01*
X204025966Y-24341690D01*
X204139227Y-24427257D01*
X204248167Y-24512047D01*
X204352996Y-24596020D01*
X204459479Y-24683792D01*
X204567444Y-24775416D01*
X204676942Y-24871151D01*
X204779415Y-24963404D01*
X204877715Y-25054416D01*
X204985783Y-25157428D01*
X205081421Y-25251275D01*
X205175955Y-25346630D01*
X205269195Y-25443306D01*
X205361065Y-25541226D01*
X205451534Y-25640355D01*
X205543167Y-25743618D01*
X205633167Y-25847980D01*
X205724289Y-25956759D01*
X205808971Y-26060813D01*
X205894733Y-26169260D01*
X205976600Y-26275814D01*
X206057000Y-26383510D01*
X206140397Y-26498596D01*
X206217703Y-26608533D01*
X206297847Y-26726028D01*
X206372031Y-26838188D01*
X206446772Y-26954723D01*
X206521887Y-27075657D01*
X206593272Y-27194394D01*
X206663035Y-27314290D01*
X206730967Y-27434986D01*
X206806331Y-27573827D01*
X206870635Y-27696750D01*
X206933372Y-27821004D01*
X206994186Y-27945899D01*
X207061350Y-28089412D01*
X207119861Y-28219706D01*
X207181141Y-28362012D01*
X207235773Y-28494498D01*
X207292648Y-28638736D01*
X207348579Y-28787659D01*
X207399574Y-28930402D01*
X207447182Y-29070536D01*
X207496200Y-29222778D01*
X207541603Y-29372183D01*
X207583632Y-29518918D01*
X207624409Y-29670473D01*
X207663194Y-29824674D01*
X207699513Y-29979910D01*
X207733744Y-30138048D01*
X207764561Y-30292832D01*
X207796322Y-30468248D01*
X207822486Y-30628856D01*
X207846559Y-30794426D01*
X207867810Y-30960728D01*
X207887454Y-31139918D01*
X207903140Y-31311743D01*
X207906020Y-31351170D01*
X191386968Y-31052498D01*
X191347223Y-31048259D01*
X191278766Y-31054444D01*
X191210294Y-31059940D01*
X191206723Y-31060953D01*
X191203028Y-31061287D01*
X191137112Y-31080703D01*
X191071009Y-31099457D01*
X191067706Y-31101146D01*
X191064146Y-31102195D01*
X191003263Y-31134108D01*
X190942109Y-31165387D01*
X190939200Y-31167687D01*
X190935912Y-31169411D01*
X190882418Y-31212595D01*
X190828549Y-31255198D01*
X190826144Y-31258022D01*
X190823256Y-31260354D01*
X190779242Y-31313110D01*
X190734691Y-31365437D01*
X190732882Y-31368679D01*
X190730506Y-31371527D01*
X190697635Y-31431848D01*
X190664144Y-31491870D01*
X190663003Y-31495401D01*
X190661228Y-31498658D01*
X190640746Y-31564267D01*
X190619619Y-31629635D01*
X190619189Y-31633317D01*
X190618082Y-31636863D01*
X190610793Y-31705212D01*
X190602825Y-31773440D01*
X190606023Y-31813278D01*
X190442364Y-52082559D01*
X190438516Y-52121629D01*
X190445329Y-52190800D01*
X190451568Y-52259860D01*
X190452413Y-52262729D01*
X190452707Y-52265714D01*
X190472892Y-52332255D01*
X190492476Y-52398743D01*
X190493864Y-52401391D01*
X190494735Y-52404262D01*
X190527518Y-52465596D01*
X190559693Y-52526977D01*
X190561571Y-52529303D01*
X190562985Y-52531949D01*
X190607094Y-52585695D01*
X190650635Y-52639633D01*
X190652932Y-52641549D01*
X190654834Y-52643867D01*
X190708556Y-52687955D01*
X190761808Y-52732383D01*
X190764435Y-52733815D01*
X190766752Y-52735716D01*
X190828067Y-52768489D01*
X190888940Y-52801661D01*
X190891793Y-52802552D01*
X190894439Y-52803966D01*
X190960950Y-52824142D01*
X191027144Y-52844807D01*
X191030120Y-52845124D01*
X191032987Y-52845994D01*
X191102145Y-52852805D01*
X191171109Y-52860160D01*
X191210193Y-52856629D01*
X207917775Y-52856629D01*
X207917775Y-161548932D01*
X207915983Y-161752126D01*
X207911275Y-161935118D01*
X207903388Y-162122219D01*
X207892742Y-162303832D01*
X207879567Y-162480238D01*
X207863649Y-162655942D01*
X207845562Y-162826043D01*
X207822549Y-163013564D01*
X207798446Y-163186562D01*
X207773111Y-163350016D01*
X207745393Y-163512756D01*
X207715283Y-163674899D01*
X207683784Y-163831645D01*
X207650041Y-163987812D01*
X207614163Y-164142969D01*
X207574992Y-164301747D01*
X207535907Y-164450892D01*
X207492323Y-164607950D01*
X207449095Y-164755464D01*
X207403824Y-164902327D01*
X207357956Y-165044164D01*
X207310200Y-165185288D01*
X207260699Y-165325318D01*
X207207741Y-165468844D01*
X207154561Y-165607124D01*
X207099516Y-165744708D01*
X207042695Y-165881384D01*
X206985859Y-166013148D01*
X206927337Y-166144121D01*
X206867246Y-166274048D01*
X206801655Y-166411036D01*
X206738310Y-166538935D01*
X206669272Y-166673789D01*
X206598478Y-166807534D01*
X206530200Y-166932490D01*
X206455933Y-167064231D01*
X206384379Y-167187321D01*
X206311224Y-167309535D01*
X206238834Y-167427069D01*
X206162734Y-167547206D01*
X206082707Y-167669993D01*
X206005988Y-167784477D01*
X205927898Y-167897941D01*
X205843357Y-168017482D01*
X205762452Y-168128852D01*
X205680166Y-168239226D01*
X205596676Y-168348376D01*
X205501020Y-168470097D01*
X205414732Y-168576991D01*
X205324454Y-168686008D01*
X205224161Y-168803907D01*
X205136668Y-168904115D01*
X205047833Y-169003445D01*
X204957766Y-169101763D01*
X204866560Y-169198975D01*
X204774393Y-169294891D01*
X204665719Y-169405120D01*
X204571171Y-169498581D01*
X204475269Y-169591148D01*
X204378339Y-169682497D01*
X204270748Y-169781388D01*
X204171571Y-169870286D01*
X204071219Y-169958101D01*
X203969869Y-170044676D01*
X203864105Y-170132827D01*
X203760677Y-170216924D01*
X203652885Y-170302416D01*
X203537197Y-170391801D01*
X203423828Y-170477082D01*
X203309416Y-170560886D01*
X203193772Y-170643352D01*
X203077074Y-170724348D01*
X202959296Y-170803883D01*
X202844069Y-170879601D01*
X202727929Y-170953873D01*
X202599697Y-171033552D01*
X202477854Y-171107050D01*
X202354875Y-171179098D01*
X202234693Y-171247480D01*
X202113504Y-171314448D01*
X201991525Y-171379872D01*
X201860846Y-171447810D01*
X201733279Y-171512020D01*
X201604604Y-171574716D01*
X201474980Y-171635810D01*
X201344594Y-171695209D01*
X201213262Y-171752992D01*
X201081218Y-171809049D01*
X200935982Y-171868387D01*
X200798233Y-171922458D01*
X200655325Y-171976317D01*
X200511651Y-172028201D01*
X200362852Y-172079579D01*
X200213132Y-172128894D01*
X200066893Y-172174781D01*
X199910967Y-172221261D01*
X199762843Y-172263110D01*
X199613783Y-172302982D01*
X199464122Y-172340770D01*
X199296240Y-172380525D01*
X199136385Y-172415817D01*
X198971033Y-172449717D01*
X198809424Y-172480320D01*
X198646940Y-172508586D01*
X198470217Y-172536513D01*
X198306177Y-172559828D01*
X198136843Y-172581283D01*
X197962106Y-172600667D01*
X197786907Y-172617304D01*
X197601512Y-172631888D01*
X197424690Y-172642920D01*
X197242318Y-172651369D01*
X197059303Y-172656873D01*
X196868859Y-172659474D01*
X196809349Y-172659635D01*
X183359922Y-172659635D01*
X183161966Y-172658784D01*
X182969691Y-172656334D01*
X182776074Y-172652241D01*
X182586888Y-172646661D01*
X182391682Y-172639264D01*
X182205928Y-172630684D01*
X182019107Y-172620528D01*
X181829984Y-172608691D01*
X181640977Y-172595295D01*
X181461222Y-172581097D01*
X181279392Y-172565288D01*
X181099760Y-172548239D01*
X180922599Y-172530024D01*
X180743314Y-172510176D01*
X180563116Y-172488785D01*
X180387531Y-172466551D01*
X180213212Y-172443113D01*
X180039125Y-172418347D01*
X179867380Y-172392580D01*
X179697924Y-172365848D01*
X179528782Y-172337871D01*
X179360039Y-172308662D01*
X179191181Y-172278133D01*
X179024839Y-172246779D01*
X178853632Y-172213184D01*
X178769205Y-172196121D01*
X178507612Y-172142756D01*
X178507556Y-172142744D01*
X178233306Y-172086796D01*
X178233304Y-172086796D01*
X177651016Y-171968008D01*
X177650933Y-171967990D01*
X176801702Y-171794742D01*
X176801696Y-171794741D01*
X175878403Y-171606382D01*
X175878375Y-171606376D01*
X174886462Y-171404016D01*
X174886434Y-171404010D01*
X173831427Y-171188777D01*
X173831371Y-171188765D01*
X172718810Y-170961788D01*
X172718674Y-170961759D01*
X171553832Y-170724115D01*
X171553824Y-170724114D01*
X170342364Y-170476957D01*
X170342336Y-170476951D01*
X169089669Y-170221386D01*
X167801325Y-169958541D01*
X166482822Y-169689543D01*
X166482794Y-169689537D01*
X165139562Y-169415491D01*
X163777118Y-169137525D01*
X162400952Y-168856759D01*
X162400944Y-168856758D01*
X161016552Y-168574312D01*
X161016544Y-168574311D01*
X159629437Y-168291311D01*
X159629409Y-168291305D01*
X158245009Y-168008855D01*
X156868842Y-167728085D01*
X155506399Y-167450114D01*
X153497038Y-167040155D01*
X151556289Y-166644192D01*
X150303681Y-166388628D01*
X150303626Y-166388616D01*
X148497356Y-166020086D01*
X148497348Y-166020085D01*
X146814616Y-165676758D01*
X146814588Y-165676752D01*
X145759524Y-165461486D01*
X144767641Y-165259110D01*
X144767585Y-165259098D01*
X143844255Y-165070707D01*
X143844249Y-165070706D01*
X143212174Y-164941740D01*
X201022640Y-164941740D01*
X201022640Y-165278580D01*
X201088354Y-165608949D01*
X201217258Y-165920149D01*
X201404396Y-166200221D01*
X201642579Y-166438404D01*
X201922651Y-166625542D01*
X202233851Y-166754446D01*
X202564220Y-166820160D01*
X202901060Y-166820160D01*
X203231429Y-166754446D01*
X203542629Y-166625542D01*
X203822701Y-166438404D01*
X204060884Y-166200221D01*
X204248022Y-165920149D01*
X204376926Y-165608949D01*
X204442640Y-165278580D01*
X204442640Y-164941740D01*
X204376926Y-164611371D01*
X204248022Y-164300171D01*
X204060884Y-164020099D01*
X203822701Y-163781916D01*
X203542629Y-163594778D01*
X203231429Y-163465874D01*
X202901060Y-163400160D01*
X202564220Y-163400160D01*
X202233851Y-163465874D01*
X201922651Y-163594778D01*
X201642579Y-163781916D01*
X201404396Y-164020099D01*
X201217258Y-164300171D01*
X201088354Y-164611371D01*
X201022640Y-164941740D01*
X143212174Y-164941740D01*
X142995055Y-164897440D01*
X142995027Y-164897434D01*
X142225389Y-164740399D01*
X141875789Y-164669068D01*
X141875649Y-164669053D01*
X141873082Y-164668521D01*
X141694918Y-164632865D01*
X141694731Y-164632846D01*
X141689472Y-164631797D01*
X141517939Y-164598814D01*
X141517756Y-164598797D01*
X141512623Y-164597812D01*
X141342025Y-164566309D01*
X141341837Y-164566293D01*
X141336726Y-164565351D01*
X141165924Y-164535103D01*
X141165746Y-164535089D01*
X141160562Y-164534173D01*
X140986122Y-164504611D01*
X140985931Y-164504598D01*
X140980732Y-164503719D01*
X140808392Y-164475829D01*
X140808210Y-164475818D01*
X140802970Y-164474972D01*
X140625848Y-164447664D01*
X140625665Y-164447654D01*
X140620366Y-164446840D01*
X140444208Y-164421039D01*
X140444022Y-164421030D01*
X140438666Y-164420249D01*
X140257720Y-164395153D01*
X140257539Y-164395146D01*
X140251884Y-164394367D01*
X140058069Y-164369067D01*
X140057882Y-164369061D01*
X140052280Y-164368335D01*
X139872131Y-164346272D01*
X139871951Y-164346268D01*
X139866350Y-164345587D01*
X139674484Y-164323630D01*
X139674298Y-164323627D01*
X139668689Y-164322990D01*
X139487071Y-164303664D01*
X139486884Y-164303662D01*
X139481351Y-164303078D01*
X139294954Y-164284717D01*
X139294765Y-164284717D01*
X139289163Y-164284170D01*
X139101469Y-164267180D01*
X139101286Y-164267181D01*
X139095669Y-164266678D01*
X138910159Y-164251366D01*
X138909978Y-164251369D01*
X138904258Y-164250903D01*
X138709344Y-164236394D01*
X138709168Y-164236398D01*
X138703290Y-164235968D01*
X138508250Y-164223068D01*
X138508064Y-164223074D01*
X138502237Y-164222695D01*
X138309409Y-164211528D01*
X138309223Y-164211535D01*
X138303431Y-164211207D01*
X138111664Y-164201668D01*
X138111487Y-164201677D01*
X138105557Y-164201389D01*
X137903230Y-164193011D01*
X137903045Y-164193021D01*
X137897071Y-164192782D01*
X137702800Y-164186369D01*
X137702619Y-164186381D01*
X137696613Y-164186191D01*
X137491796Y-164181156D01*
X137491617Y-164181169D01*
X137485437Y-164181027D01*
X137280550Y-164177764D01*
X137280372Y-164177779D01*
X137274186Y-164177690D01*
X137069242Y-164176201D01*
X137069059Y-164176218D01*
X137064975Y-164176183D01*
X136995099Y-164176081D01*
X136995036Y-164176087D01*
X136994026Y-164176080D01*
X29221270Y-164176080D01*
X29032041Y-164174523D01*
X28839488Y-164169723D01*
X28657221Y-164162147D01*
X28470946Y-164151339D01*
X28290047Y-164137864D01*
X28114431Y-164121954D01*
X27944043Y-164103837D01*
X27774473Y-164083164D01*
X27601152Y-164059295D01*
X27433304Y-164033514D01*
X27261831Y-164004446D01*
X27086778Y-163971902D01*
X26930430Y-163940358D01*
X26761371Y-163903587D01*
X26606527Y-163867463D01*
X26443595Y-163826896D01*
X26294631Y-163787485D01*
X26142051Y-163744794D01*
X25990312Y-163699978D01*
X25843760Y-163654428D01*
X25693696Y-163605452D01*
X25553053Y-163557374D01*
X25412972Y-163507368D01*
X25273951Y-163455616D01*
X25131574Y-163400389D01*
X24994267Y-163344964D01*
X24861907Y-163289490D01*
X24726358Y-163230562D01*
X24587885Y-163168115D01*
X24450543Y-163103895D01*
X24310246Y-163035900D01*
X24178975Y-162970044D01*
X24036835Y-162896252D01*
X23911285Y-162828880D01*
X23786390Y-162759773D01*
X23666328Y-162691340D01*
X23543397Y-162619195D01*
X23421551Y-162545568D01*
X23300707Y-162470418D01*
X23181054Y-162393867D01*
X23055204Y-162310998D01*
X22930648Y-162226544D01*
X22810708Y-162142865D01*
X22698937Y-162062749D01*
X22581231Y-161976092D01*
X22461200Y-161885236D01*
X22352892Y-161801034D01*
X22235189Y-161707069D01*
X22132243Y-161622725D01*
X22030044Y-161536929D01*
X21928913Y-161449954D01*
X21828940Y-161361876D01*
X21730025Y-161272611D01*
X21622717Y-161173315D01*
X21526172Y-161081712D01*
X21430508Y-160988756D01*
X21336062Y-160894765D01*
X21242768Y-160799680D01*
X21147754Y-160700471D01*
X21045135Y-160590522D01*
X20955522Y-160492037D01*
X20867044Y-160392437D01*
X20776881Y-160288428D01*
X20690774Y-160186633D01*
X20605869Y-160083787D01*
X20519612Y-159976687D01*
X20429347Y-159861652D01*
X20345865Y-159752427D01*
X20261072Y-159638557D01*
X20177746Y-159523630D01*
X20095802Y-159407526D01*
X20017789Y-159293989D01*
X19941091Y-159179351D01*
X19865818Y-159063766D01*
X19789658Y-158943532D01*
X19717258Y-158825980D01*
X19644053Y-158703688D01*
X19574568Y-158584206D01*
X19561604Y-158561260D01*
X21464960Y-158561260D01*
X21464960Y-158898100D01*
X21530674Y-159228469D01*
X21659578Y-159539669D01*
X21846716Y-159819741D01*
X22084899Y-160057924D01*
X22364971Y-160245062D01*
X22676171Y-160373966D01*
X23006540Y-160439680D01*
X23343380Y-160439680D01*
X23673749Y-160373966D01*
X23984949Y-160245062D01*
X24265021Y-160057924D01*
X24503204Y-159819741D01*
X24690342Y-159539669D01*
X24819246Y-159228469D01*
X24884960Y-158898100D01*
X24884960Y-158561260D01*
X24819246Y-158230891D01*
X24690342Y-157919691D01*
X24503204Y-157639619D01*
X24265021Y-157401436D01*
X23984949Y-157214298D01*
X23673749Y-157085394D01*
X23343380Y-157019680D01*
X23006540Y-157019680D01*
X22676171Y-157085394D01*
X22364971Y-157214298D01*
X22084899Y-157401436D01*
X21846716Y-157639619D01*
X21659578Y-157919691D01*
X21530674Y-158230891D01*
X21464960Y-158561260D01*
X19561604Y-158561260D01*
X19506580Y-158463872D01*
X19435884Y-158334895D01*
X19366954Y-158205091D01*
X19301618Y-158078060D01*
X19236004Y-157946272D01*
X19172050Y-157813418D01*
X19111670Y-157683645D01*
X19051161Y-157548987D01*
X18992321Y-157413214D01*
X18937055Y-157280930D01*
X18878565Y-157135384D01*
X18823725Y-156993197D01*
X18769231Y-156845770D01*
X18719665Y-156705734D01*
X18670546Y-156560672D01*
X18622051Y-156410504D01*
X18576954Y-156263806D01*
X18532589Y-156111861D01*
X18490353Y-155959090D01*
X18451372Y-155809863D01*
X18413339Y-155655321D01*
X18376566Y-155495870D01*
X18342047Y-155335335D01*
X18310749Y-155178640D01*
X18280059Y-155012107D01*
X18252606Y-154849379D01*
X18226860Y-154681318D01*
X18203065Y-154508043D01*
X18182454Y-154338395D01*
X18164412Y-154168087D01*
X18148191Y-153987862D01*
X18134859Y-153806974D01*
X18124429Y-153625283D01*
X18116762Y-153438204D01*
X18112266Y-153254933D01*
X18110715Y-153065604D01*
X18110715Y-102173260D01*
X201017560Y-102173260D01*
X201017560Y-102510100D01*
X201083274Y-102840469D01*
X201212178Y-103151669D01*
X201399316Y-103431741D01*
X201637499Y-103669924D01*
X201917571Y-103857062D01*
X202228771Y-103985966D01*
X202559140Y-104051680D01*
X202895980Y-104051680D01*
X203226349Y-103985966D01*
X203537549Y-103857062D01*
X203817621Y-103669924D01*
X204055804Y-103431741D01*
X204242942Y-103151669D01*
X204371846Y-102840469D01*
X204437560Y-102510100D01*
X204437560Y-102173260D01*
X204371846Y-101842891D01*
X204242942Y-101531691D01*
X204055804Y-101251619D01*
X203817621Y-101013436D01*
X203537549Y-100826298D01*
X203226349Y-100697394D01*
X202895980Y-100631680D01*
X202559140Y-100631680D01*
X202228771Y-100697394D01*
X201917571Y-100826298D01*
X201637499Y-101013436D01*
X201399316Y-101251619D01*
X201212178Y-101531691D01*
X201083274Y-101842891D01*
X201017560Y-102173260D01*
X18110715Y-102173260D01*
X18110715Y-33542444D01*
X18112421Y-33343788D01*
X18117058Y-33160623D01*
X18124643Y-32978221D01*
X18135446Y-32791998D01*
X18148914Y-32611184D01*
X18165706Y-32426654D01*
X18184453Y-32251986D01*
X18205910Y-32077967D01*
X18229391Y-31909197D01*
X18254660Y-31745755D01*
X18283116Y-31578480D01*
X18313191Y-31416537D01*
X18344705Y-31259712D01*
X18378434Y-31103599D01*
X18414328Y-30948370D01*
X18452393Y-30793954D01*
X18492610Y-30640365D01*
X18534946Y-30487687D01*
X18579413Y-30335838D01*
X18624662Y-30189052D01*
X18670529Y-30047211D01*
X18718282Y-29906094D01*
X18767791Y-29766049D01*
X18820705Y-29622643D01*
X18875460Y-29480350D01*
X18933810Y-29334829D01*
X18990764Y-29198287D01*
X19047747Y-29066590D01*
X19106415Y-28935696D01*
X19166667Y-28805808D01*
X19228615Y-28676678D01*
X19292071Y-28548677D01*
X19361122Y-28413923D01*
X19432022Y-28280102D01*
X19498357Y-28158758D01*
X19566189Y-28038273D01*
X19637620Y-27915068D01*
X19717363Y-27781689D01*
X19779905Y-27680140D01*
X21470040Y-27680140D01*
X21470040Y-28016980D01*
X21535754Y-28347349D01*
X21664658Y-28658549D01*
X21851796Y-28938621D01*
X22089979Y-29176804D01*
X22370051Y-29363942D01*
X22681251Y-29492846D01*
X23011620Y-29558560D01*
X23348460Y-29558560D01*
X23678829Y-29492846D01*
X23990029Y-29363942D01*
X24270101Y-29176804D01*
X24508284Y-28938621D01*
X24695422Y-28658549D01*
X24824326Y-28347349D01*
X24890040Y-28016980D01*
X24890040Y-27680140D01*
X24824326Y-27349771D01*
X24695422Y-27038571D01*
X24508284Y-26758499D01*
X24270101Y-26520316D01*
X23990029Y-26333178D01*
X23678829Y-26204274D01*
X23348460Y-26138560D01*
X23011620Y-26138560D01*
X22681251Y-26204274D01*
X22370051Y-26333178D01*
X22089979Y-26520316D01*
X21851796Y-26758499D01*
X21664658Y-27038571D01*
X21535754Y-27349771D01*
X21470040Y-27680140D01*
X19779905Y-27680140D01*
X19789531Y-27664511D01*
X19872671Y-27533422D01*
X19950376Y-27414444D01*
X20027001Y-27300288D01*
X20115162Y-27172595D01*
X20194796Y-27060433D01*
X20275891Y-26949158D01*
X20358218Y-26839073D01*
X20452608Y-26716241D01*
X20537762Y-26608380D01*
X20621638Y-26504755D01*
X20709590Y-26398748D01*
X20795908Y-26297241D01*
X20883540Y-26196646D01*
X20972252Y-26097232D01*
X21062166Y-25998857D01*
X21156256Y-25898388D01*
X21248480Y-25802269D01*
X21341919Y-25707181D01*
X21436530Y-25613166D01*
X21532028Y-25520507D01*
X21634736Y-25423274D01*
X21758026Y-25309742D01*
X21856941Y-25221077D01*
X21957257Y-25133293D01*
X22058659Y-25046675D01*
X22164384Y-24958559D01*
X22267804Y-24874466D01*
X22375641Y-24788938D01*
X22487912Y-24702157D01*
X22601288Y-24616808D01*
X22712196Y-24535472D01*
X22831183Y-24450521D01*
X22955011Y-24364581D01*
X23069168Y-24287521D01*
X23184338Y-24211837D01*
X23304090Y-24135285D01*
X23432455Y-24055593D01*
X23550663Y-23984316D01*
X23669939Y-23914408D01*
X23790072Y-23845994D01*
X23915015Y-23776925D01*
X24036931Y-23711532D01*
X24167559Y-23643621D01*
X24299118Y-23577433D01*
X24427707Y-23514840D01*
X24557256Y-23453842D01*
X24687803Y-23394428D01*
X24819104Y-23336721D01*
X24951398Y-23280620D01*
X25084329Y-23226277D01*
X25226300Y-23170453D01*
X25373218Y-23115051D01*
X25516979Y-23063136D01*
X25661618Y-23013166D01*
X25803097Y-22966445D01*
X25949500Y-22920319D01*
X26096754Y-22876173D01*
X26249114Y-22832840D01*
X26402294Y-22791644D01*
X26551940Y-22753670D01*
X26711035Y-22715737D01*
X26875421Y-22679140D01*
X27031877Y-22646744D01*
X27189196Y-22616539D01*
X27351563Y-22587832D01*
X27523656Y-22560120D01*
X27691908Y-22535696D01*
X27865738Y-22513219D01*
X28035641Y-22493933D01*
X28211032Y-22476787D01*
X28386696Y-22462411D01*
X28590908Y-22449185D01*
X28772781Y-22440545D01*
X28955659Y-22434827D01*
X29150496Y-22431975D01*
X29219498Y-22431766D01*
X53032841Y-22431766D01*
X44185546Y-64055197D01*
G37*
X44185546Y-64055197D02*
X44174563Y-64089768D01*
X44170535Y-64125816D01*
X44170534Y-64125823D01*
X44160207Y-64218258D01*
X44158487Y-64233654D01*
X44170791Y-64377912D01*
X44211002Y-64516999D01*
X44277575Y-64645567D01*
X44367950Y-64758678D01*
X44384171Y-64772349D01*
X44478657Y-64851984D01*
X44605440Y-64921900D01*
X44743426Y-64965737D01*
X44779482Y-64969765D01*
X68095954Y-69925819D01*
X68130527Y-69936803D01*
X68166581Y-69940831D01*
X68166585Y-69940832D01*
X68233371Y-69948293D01*
X68274414Y-69952879D01*
X68274416Y-69952879D01*
X68304083Y-69950349D01*
X68418671Y-69940576D01*
X68418674Y-69940575D01*
X68418675Y-69940575D01*
X68435549Y-69935696D01*
X68557758Y-69900366D01*
X68686327Y-69833794D01*
X68799439Y-69743418D01*
X68892745Y-69632712D01*
X68962661Y-69505930D01*
X68995514Y-69402521D01*
X68995515Y-69402518D01*
X69006500Y-69367940D01*
X69010528Y-69331887D01*
X75311828Y-39687262D01*
X80730619Y-40838899D01*
X80765184Y-40849881D01*
X80801251Y-40853911D01*
X80801262Y-40853913D01*
X80846375Y-40858952D01*
X80909071Y-40865957D01*
X80909079Y-40865956D01*
X80909094Y-40865958D01*
X80994539Y-40858668D01*
X81053329Y-40853654D01*
X81053339Y-40853651D01*
X81053352Y-40853650D01*
X81127049Y-40832341D01*
X81192415Y-40813444D01*
X81192425Y-40813439D01*
X81192438Y-40813435D01*
X81266720Y-40774969D01*
X81320984Y-40746871D01*
X81320992Y-40746865D01*
X81321005Y-40746858D01*
X81380400Y-40699398D01*
X81434096Y-40656496D01*
X81434105Y-40656486D01*
X81434113Y-40656479D01*
X81479207Y-40602973D01*
X81527402Y-40545790D01*
X81527407Y-40545780D01*
X81527416Y-40545770D01*
X81564146Y-40479160D01*
X81597318Y-40419008D01*
X81597322Y-40418997D01*
X81597328Y-40418985D01*
X81619482Y-40349245D01*
X81630172Y-40315598D01*
X81630175Y-40315586D01*
X81641162Y-40280998D01*
X81645188Y-40244955D01*
X85431573Y-22431766D01*
X167159620Y-22431766D01*
X161278053Y-50102371D01*
X161267069Y-50136946D01*
X161250994Y-50280833D01*
X161263298Y-50425090D01*
X161303509Y-50564177D01*
X161370082Y-50692745D01*
X161460458Y-50805856D01*
X161571165Y-50899162D01*
X161697948Y-50969077D01*
X161801357Y-51001930D01*
X161801361Y-51001931D01*
X161835932Y-51012914D01*
X161871983Y-51016942D01*
X172702641Y-53319045D01*
X172737213Y-53330029D01*
X172773265Y-53334057D01*
X172773270Y-53334058D01*
X172860578Y-53343812D01*
X172881100Y-53346105D01*
X172881101Y-53346105D01*
X172895934Y-53344840D01*
X173025357Y-53333802D01*
X173164444Y-53293591D01*
X173293013Y-53227018D01*
X173293015Y-53227017D01*
X173360654Y-53172973D01*
X173406124Y-53136643D01*
X173499431Y-53025936D01*
X173569346Y-52899154D01*
X173602199Y-52795745D01*
X173602201Y-52795738D01*
X173613184Y-52761165D01*
X173617211Y-52725117D01*
X178938562Y-27690300D01*
X201017560Y-27690300D01*
X201017560Y-28027140D01*
X201083274Y-28357509D01*
X201212178Y-28668709D01*
X201399316Y-28948781D01*
X201637499Y-29186964D01*
X201917571Y-29374102D01*
X202228771Y-29503006D01*
X202559140Y-29568720D01*
X202895980Y-29568720D01*
X203226349Y-29503006D01*
X203537549Y-29374102D01*
X203817621Y-29186964D01*
X204055804Y-28948781D01*
X204242942Y-28668709D01*
X204371846Y-28357509D01*
X204437560Y-28027140D01*
X204437560Y-27690300D01*
X204371846Y-27359931D01*
X204242942Y-27048731D01*
X204055804Y-26768659D01*
X203817621Y-26530476D01*
X203537549Y-26343338D01*
X203226349Y-26214434D01*
X202895980Y-26148720D01*
X202559140Y-26148720D01*
X202228771Y-26214434D01*
X201917571Y-26343338D01*
X201637499Y-26530476D01*
X201399316Y-26768659D01*
X201212178Y-27048731D01*
X201083274Y-27359931D01*
X201017560Y-27690300D01*
X178938562Y-27690300D01*
X180056306Y-22431766D01*
X198246225Y-22431766D01*
X198435330Y-22433538D01*
X198626204Y-22438970D01*
X198812069Y-22447827D01*
X198989148Y-22459564D01*
X199161473Y-22474095D01*
X199337008Y-22492074D01*
X199503604Y-22512125D01*
X199669623Y-22535031D01*
X199830772Y-22560076D01*
X199991091Y-22587772D01*
X200150501Y-22618085D01*
X200305296Y-22650194D01*
X200459051Y-22684726D01*
X200615781Y-22722668D01*
X200763699Y-22761045D01*
X200925755Y-22805995D01*
X201082759Y-22852475D01*
X201238619Y-22901521D01*
X201393486Y-22953161D01*
X201540076Y-23004758D01*
X201682138Y-23057328D01*
X201819780Y-23110711D01*
X201952898Y-23164672D01*
X202085145Y-23220594D01*
X202214480Y-23277557D01*
X202349886Y-23339645D01*
X202478973Y-23401219D01*
X202603741Y-23462991D01*
X202727373Y-23526436D01*
X202853299Y-23593398D01*
X202988054Y-23667725D01*
X203108323Y-23736452D01*
X203227737Y-23806982D01*
X203346013Y-23879141D01*
X203463297Y-23953020D01*
X203576260Y-24026418D01*
X203688032Y-24101272D01*
X203808073Y-24184196D01*
X203917561Y-24262186D01*
X204025966Y-24341690D01*
X204139227Y-24427257D01*
X204248167Y-24512047D01*
X204352996Y-24596020D01*
X204459479Y-24683792D01*
X204567444Y-24775416D01*
X204676942Y-24871151D01*
X204779415Y-24963404D01*
X204877715Y-25054416D01*
X204985783Y-25157428D01*
X205081421Y-25251275D01*
X205175955Y-25346630D01*
X205269195Y-25443306D01*
X205361065Y-25541226D01*
X205451534Y-25640355D01*
X205543167Y-25743618D01*
X205633167Y-25847980D01*
X205724289Y-25956759D01*
X205808971Y-26060813D01*
X205894733Y-26169260D01*
X205976600Y-26275814D01*
X206057000Y-26383510D01*
X206140397Y-26498596D01*
X206217703Y-26608533D01*
X206297847Y-26726028D01*
X206372031Y-26838188D01*
X206446772Y-26954723D01*
X206521887Y-27075657D01*
X206593272Y-27194394D01*
X206663035Y-27314290D01*
X206730967Y-27434986D01*
X206806331Y-27573827D01*
X206870635Y-27696750D01*
X206933372Y-27821004D01*
X206994186Y-27945899D01*
X207061350Y-28089412D01*
X207119861Y-28219706D01*
X207181141Y-28362012D01*
X207235773Y-28494498D01*
X207292648Y-28638736D01*
X207348579Y-28787659D01*
X207399574Y-28930402D01*
X207447182Y-29070536D01*
X207496200Y-29222778D01*
X207541603Y-29372183D01*
X207583632Y-29518918D01*
X207624409Y-29670473D01*
X207663194Y-29824674D01*
X207699513Y-29979910D01*
X207733744Y-30138048D01*
X207764561Y-30292832D01*
X207796322Y-30468248D01*
X207822486Y-30628856D01*
X207846559Y-30794426D01*
X207867810Y-30960728D01*
X207887454Y-31139918D01*
X207903140Y-31311743D01*
X207906020Y-31351170D01*
X191386968Y-31052498D01*
X191347223Y-31048259D01*
X191278766Y-31054444D01*
X191210294Y-31059940D01*
X191206723Y-31060953D01*
X191203028Y-31061287D01*
X191137112Y-31080703D01*
X191071009Y-31099457D01*
X191067706Y-31101146D01*
X191064146Y-31102195D01*
X191003263Y-31134108D01*
X190942109Y-31165387D01*
X190939200Y-31167687D01*
X190935912Y-31169411D01*
X190882418Y-31212595D01*
X190828549Y-31255198D01*
X190826144Y-31258022D01*
X190823256Y-31260354D01*
X190779242Y-31313110D01*
X190734691Y-31365437D01*
X190732882Y-31368679D01*
X190730506Y-31371527D01*
X190697635Y-31431848D01*
X190664144Y-31491870D01*
X190663003Y-31495401D01*
X190661228Y-31498658D01*
X190640746Y-31564267D01*
X190619619Y-31629635D01*
X190619189Y-31633317D01*
X190618082Y-31636863D01*
X190610793Y-31705212D01*
X190602825Y-31773440D01*
X190606023Y-31813278D01*
X190442364Y-52082559D01*
X190438516Y-52121629D01*
X190445329Y-52190800D01*
X190451568Y-52259860D01*
X190452413Y-52262729D01*
X190452707Y-52265714D01*
X190472892Y-52332255D01*
X190492476Y-52398743D01*
X190493864Y-52401391D01*
X190494735Y-52404262D01*
X190527518Y-52465596D01*
X190559693Y-52526977D01*
X190561571Y-52529303D01*
X190562985Y-52531949D01*
X190607094Y-52585695D01*
X190650635Y-52639633D01*
X190652932Y-52641549D01*
X190654834Y-52643867D01*
X190708556Y-52687955D01*
X190761808Y-52732383D01*
X190764435Y-52733815D01*
X190766752Y-52735716D01*
X190828067Y-52768489D01*
X190888940Y-52801661D01*
X190891793Y-52802552D01*
X190894439Y-52803966D01*
X190960950Y-52824142D01*
X191027144Y-52844807D01*
X191030120Y-52845124D01*
X191032987Y-52845994D01*
X191102145Y-52852805D01*
X191171109Y-52860160D01*
X191210193Y-52856629D01*
X207917775Y-52856629D01*
X207917775Y-161548932D01*
X207915983Y-161752126D01*
X207911275Y-161935118D01*
X207903388Y-162122219D01*
X207892742Y-162303832D01*
X207879567Y-162480238D01*
X207863649Y-162655942D01*
X207845562Y-162826043D01*
X207822549Y-163013564D01*
X207798446Y-163186562D01*
X207773111Y-163350016D01*
X207745393Y-163512756D01*
X207715283Y-163674899D01*
X207683784Y-163831645D01*
X207650041Y-163987812D01*
X207614163Y-164142969D01*
X207574992Y-164301747D01*
X207535907Y-164450892D01*
X207492323Y-164607950D01*
X207449095Y-164755464D01*
X207403824Y-164902327D01*
X207357956Y-165044164D01*
X207310200Y-165185288D01*
X207260699Y-165325318D01*
X207207741Y-165468844D01*
X207154561Y-165607124D01*
X207099516Y-165744708D01*
X207042695Y-165881384D01*
X206985859Y-166013148D01*
X206927337Y-166144121D01*
X206867246Y-166274048D01*
X206801655Y-166411036D01*
X206738310Y-166538935D01*
X206669272Y-166673789D01*
X206598478Y-166807534D01*
X206530200Y-166932490D01*
X206455933Y-167064231D01*
X206384379Y-167187321D01*
X206311224Y-167309535D01*
X206238834Y-167427069D01*
X206162734Y-167547206D01*
X206082707Y-167669993D01*
X206005988Y-167784477D01*
X205927898Y-167897941D01*
X205843357Y-168017482D01*
X205762452Y-168128852D01*
X205680166Y-168239226D01*
X205596676Y-168348376D01*
X205501020Y-168470097D01*
X205414732Y-168576991D01*
X205324454Y-168686008D01*
X205224161Y-168803907D01*
X205136668Y-168904115D01*
X205047833Y-169003445D01*
X204957766Y-169101763D01*
X204866560Y-169198975D01*
X204774393Y-169294891D01*
X204665719Y-169405120D01*
X204571171Y-169498581D01*
X204475269Y-169591148D01*
X204378339Y-169682497D01*
X204270748Y-169781388D01*
X204171571Y-169870286D01*
X204071219Y-169958101D01*
X203969869Y-170044676D01*
X203864105Y-170132827D01*
X203760677Y-170216924D01*
X203652885Y-170302416D01*
X203537197Y-170391801D01*
X203423828Y-170477082D01*
X203309416Y-170560886D01*
X203193772Y-170643352D01*
X203077074Y-170724348D01*
X202959296Y-170803883D01*
X202844069Y-170879601D01*
X202727929Y-170953873D01*
X202599697Y-171033552D01*
X202477854Y-171107050D01*
X202354875Y-171179098D01*
X202234693Y-171247480D01*
X202113504Y-171314448D01*
X201991525Y-171379872D01*
X201860846Y-171447810D01*
X201733279Y-171512020D01*
X201604604Y-171574716D01*
X201474980Y-171635810D01*
X201344594Y-171695209D01*
X201213262Y-171752992D01*
X201081218Y-171809049D01*
X200935982Y-171868387D01*
X200798233Y-171922458D01*
X200655325Y-171976317D01*
X200511651Y-172028201D01*
X200362852Y-172079579D01*
X200213132Y-172128894D01*
X200066893Y-172174781D01*
X199910967Y-172221261D01*
X199762843Y-172263110D01*
X199613783Y-172302982D01*
X199464122Y-172340770D01*
X199296240Y-172380525D01*
X199136385Y-172415817D01*
X198971033Y-172449717D01*
X198809424Y-172480320D01*
X198646940Y-172508586D01*
X198470217Y-172536513D01*
X198306177Y-172559828D01*
X198136843Y-172581283D01*
X197962106Y-172600667D01*
X197786907Y-172617304D01*
X197601512Y-172631888D01*
X197424690Y-172642920D01*
X197242318Y-172651369D01*
X197059303Y-172656873D01*
X196868859Y-172659474D01*
X196809349Y-172659635D01*
X183359922Y-172659635D01*
X183161966Y-172658784D01*
X182969691Y-172656334D01*
X182776074Y-172652241D01*
X182586888Y-172646661D01*
X182391682Y-172639264D01*
X182205928Y-172630684D01*
X182019107Y-172620528D01*
X181829984Y-172608691D01*
X181640977Y-172595295D01*
X181461222Y-172581097D01*
X181279392Y-172565288D01*
X181099760Y-172548239D01*
X180922599Y-172530024D01*
X180743314Y-172510176D01*
X180563116Y-172488785D01*
X180387531Y-172466551D01*
X180213212Y-172443113D01*
X180039125Y-172418347D01*
X179867380Y-172392580D01*
X179697924Y-172365848D01*
X179528782Y-172337871D01*
X179360039Y-172308662D01*
X179191181Y-172278133D01*
X179024839Y-172246779D01*
X178853632Y-172213184D01*
X178769205Y-172196121D01*
X178507612Y-172142756D01*
X178507556Y-172142744D01*
X178233306Y-172086796D01*
X178233304Y-172086796D01*
X177651016Y-171968008D01*
X177650933Y-171967990D01*
X176801702Y-171794742D01*
X176801696Y-171794741D01*
X175878403Y-171606382D01*
X175878375Y-171606376D01*
X174886462Y-171404016D01*
X174886434Y-171404010D01*
X173831427Y-171188777D01*
X173831371Y-171188765D01*
X172718810Y-170961788D01*
X172718674Y-170961759D01*
X171553832Y-170724115D01*
X171553824Y-170724114D01*
X170342364Y-170476957D01*
X170342336Y-170476951D01*
X169089669Y-170221386D01*
X167801325Y-169958541D01*
X166482822Y-169689543D01*
X166482794Y-169689537D01*
X165139562Y-169415491D01*
X163777118Y-169137525D01*
X162400952Y-168856759D01*
X162400944Y-168856758D01*
X161016552Y-168574312D01*
X161016544Y-168574311D01*
X159629437Y-168291311D01*
X159629409Y-168291305D01*
X158245009Y-168008855D01*
X156868842Y-167728085D01*
X155506399Y-167450114D01*
X153497038Y-167040155D01*
X151556289Y-166644192D01*
X150303681Y-166388628D01*
X150303626Y-166388616D01*
X148497356Y-166020086D01*
X148497348Y-166020085D01*
X146814616Y-165676758D01*
X146814588Y-165676752D01*
X145759524Y-165461486D01*
X144767641Y-165259110D01*
X144767585Y-165259098D01*
X143844255Y-165070707D01*
X143844249Y-165070706D01*
X143212174Y-164941740D01*
X201022640Y-164941740D01*
X201022640Y-165278580D01*
X201088354Y-165608949D01*
X201217258Y-165920149D01*
X201404396Y-166200221D01*
X201642579Y-166438404D01*
X201922651Y-166625542D01*
X202233851Y-166754446D01*
X202564220Y-166820160D01*
X202901060Y-166820160D01*
X203231429Y-166754446D01*
X203542629Y-166625542D01*
X203822701Y-166438404D01*
X204060884Y-166200221D01*
X204248022Y-165920149D01*
X204376926Y-165608949D01*
X204442640Y-165278580D01*
X204442640Y-164941740D01*
X204376926Y-164611371D01*
X204248022Y-164300171D01*
X204060884Y-164020099D01*
X203822701Y-163781916D01*
X203542629Y-163594778D01*
X203231429Y-163465874D01*
X202901060Y-163400160D01*
X202564220Y-163400160D01*
X202233851Y-163465874D01*
X201922651Y-163594778D01*
X201642579Y-163781916D01*
X201404396Y-164020099D01*
X201217258Y-164300171D01*
X201088354Y-164611371D01*
X201022640Y-164941740D01*
X143212174Y-164941740D01*
X142995055Y-164897440D01*
X142995027Y-164897434D01*
X142225389Y-164740399D01*
X141875789Y-164669068D01*
X141875649Y-164669053D01*
X141873082Y-164668521D01*
X141694918Y-164632865D01*
X141694731Y-164632846D01*
X141689472Y-164631797D01*
X141517939Y-164598814D01*
X141517756Y-164598797D01*
X141512623Y-164597812D01*
X141342025Y-164566309D01*
X141341837Y-164566293D01*
X141336726Y-164565351D01*
X141165924Y-164535103D01*
X141165746Y-164535089D01*
X141160562Y-164534173D01*
X140986122Y-164504611D01*
X140985931Y-164504598D01*
X140980732Y-164503719D01*
X140808392Y-164475829D01*
X140808210Y-164475818D01*
X140802970Y-164474972D01*
X140625848Y-164447664D01*
X140625665Y-164447654D01*
X140620366Y-164446840D01*
X140444208Y-164421039D01*
X140444022Y-164421030D01*
X140438666Y-164420249D01*
X140257720Y-164395153D01*
X140257539Y-164395146D01*
X140251884Y-164394367D01*
X140058069Y-164369067D01*
X140057882Y-164369061D01*
X140052280Y-164368335D01*
X139872131Y-164346272D01*
X139871951Y-164346268D01*
X139866350Y-164345587D01*
X139674484Y-164323630D01*
X139674298Y-164323627D01*
X139668689Y-164322990D01*
X139487071Y-164303664D01*
X139486884Y-164303662D01*
X139481351Y-164303078D01*
X139294954Y-164284717D01*
X139294765Y-164284717D01*
X139289163Y-164284170D01*
X139101469Y-164267180D01*
X139101286Y-164267181D01*
X139095669Y-164266678D01*
X138910159Y-164251366D01*
X138909978Y-164251369D01*
X138904258Y-164250903D01*
X138709344Y-164236394D01*
X138709168Y-164236398D01*
X138703290Y-164235968D01*
X138508250Y-164223068D01*
X138508064Y-164223074D01*
X138502237Y-164222695D01*
X138309409Y-164211528D01*
X138309223Y-164211535D01*
X138303431Y-164211207D01*
X138111664Y-164201668D01*
X138111487Y-164201677D01*
X138105557Y-164201389D01*
X137903230Y-164193011D01*
X137903045Y-164193021D01*
X137897071Y-164192782D01*
X137702800Y-164186369D01*
X137702619Y-164186381D01*
X137696613Y-164186191D01*
X137491796Y-164181156D01*
X137491617Y-164181169D01*
X137485437Y-164181027D01*
X137280550Y-164177764D01*
X137280372Y-164177779D01*
X137274186Y-164177690D01*
X137069242Y-164176201D01*
X137069059Y-164176218D01*
X137064975Y-164176183D01*
X136995099Y-164176081D01*
X136995036Y-164176087D01*
X136994026Y-164176080D01*
X29221270Y-164176080D01*
X29032041Y-164174523D01*
X28839488Y-164169723D01*
X28657221Y-164162147D01*
X28470946Y-164151339D01*
X28290047Y-164137864D01*
X28114431Y-164121954D01*
X27944043Y-164103837D01*
X27774473Y-164083164D01*
X27601152Y-164059295D01*
X27433304Y-164033514D01*
X27261831Y-164004446D01*
X27086778Y-163971902D01*
X26930430Y-163940358D01*
X26761371Y-163903587D01*
X26606527Y-163867463D01*
X26443595Y-163826896D01*
X26294631Y-163787485D01*
X26142051Y-163744794D01*
X25990312Y-163699978D01*
X25843760Y-163654428D01*
X25693696Y-163605452D01*
X25553053Y-163557374D01*
X25412972Y-163507368D01*
X25273951Y-163455616D01*
X25131574Y-163400389D01*
X24994267Y-163344964D01*
X24861907Y-163289490D01*
X24726358Y-163230562D01*
X24587885Y-163168115D01*
X24450543Y-163103895D01*
X24310246Y-163035900D01*
X24178975Y-162970044D01*
X24036835Y-162896252D01*
X23911285Y-162828880D01*
X23786390Y-162759773D01*
X23666328Y-162691340D01*
X23543397Y-162619195D01*
X23421551Y-162545568D01*
X23300707Y-162470418D01*
X23181054Y-162393867D01*
X23055204Y-162310998D01*
X22930648Y-162226544D01*
X22810708Y-162142865D01*
X22698937Y-162062749D01*
X22581231Y-161976092D01*
X22461200Y-161885236D01*
X22352892Y-161801034D01*
X22235189Y-161707069D01*
X22132243Y-161622725D01*
X22030044Y-161536929D01*
X21928913Y-161449954D01*
X21828940Y-161361876D01*
X21730025Y-161272611D01*
X21622717Y-161173315D01*
X21526172Y-161081712D01*
X21430508Y-160988756D01*
X21336062Y-160894765D01*
X21242768Y-160799680D01*
X21147754Y-160700471D01*
X21045135Y-160590522D01*
X20955522Y-160492037D01*
X20867044Y-160392437D01*
X20776881Y-160288428D01*
X20690774Y-160186633D01*
X20605869Y-160083787D01*
X20519612Y-159976687D01*
X20429347Y-159861652D01*
X20345865Y-159752427D01*
X20261072Y-159638557D01*
X20177746Y-159523630D01*
X20095802Y-159407526D01*
X20017789Y-159293989D01*
X19941091Y-159179351D01*
X19865818Y-159063766D01*
X19789658Y-158943532D01*
X19717258Y-158825980D01*
X19644053Y-158703688D01*
X19574568Y-158584206D01*
X19561604Y-158561260D01*
X21464960Y-158561260D01*
X21464960Y-158898100D01*
X21530674Y-159228469D01*
X21659578Y-159539669D01*
X21846716Y-159819741D01*
X22084899Y-160057924D01*
X22364971Y-160245062D01*
X22676171Y-160373966D01*
X23006540Y-160439680D01*
X23343380Y-160439680D01*
X23673749Y-160373966D01*
X23984949Y-160245062D01*
X24265021Y-160057924D01*
X24503204Y-159819741D01*
X24690342Y-159539669D01*
X24819246Y-159228469D01*
X24884960Y-158898100D01*
X24884960Y-158561260D01*
X24819246Y-158230891D01*
X24690342Y-157919691D01*
X24503204Y-157639619D01*
X24265021Y-157401436D01*
X23984949Y-157214298D01*
X23673749Y-157085394D01*
X23343380Y-157019680D01*
X23006540Y-157019680D01*
X22676171Y-157085394D01*
X22364971Y-157214298D01*
X22084899Y-157401436D01*
X21846716Y-157639619D01*
X21659578Y-157919691D01*
X21530674Y-158230891D01*
X21464960Y-158561260D01*
X19561604Y-158561260D01*
X19506580Y-158463872D01*
X19435884Y-158334895D01*
X19366954Y-158205091D01*
X19301618Y-158078060D01*
X19236004Y-157946272D01*
X19172050Y-157813418D01*
X19111670Y-157683645D01*
X19051161Y-157548987D01*
X18992321Y-157413214D01*
X18937055Y-157280930D01*
X18878565Y-157135384D01*
X18823725Y-156993197D01*
X18769231Y-156845770D01*
X18719665Y-156705734D01*
X18670546Y-156560672D01*
X18622051Y-156410504D01*
X18576954Y-156263806D01*
X18532589Y-156111861D01*
X18490353Y-155959090D01*
X18451372Y-155809863D01*
X18413339Y-155655321D01*
X18376566Y-155495870D01*
X18342047Y-155335335D01*
X18310749Y-155178640D01*
X18280059Y-155012107D01*
X18252606Y-154849379D01*
X18226860Y-154681318D01*
X18203065Y-154508043D01*
X18182454Y-154338395D01*
X18164412Y-154168087D01*
X18148191Y-153987862D01*
X18134859Y-153806974D01*
X18124429Y-153625283D01*
X18116762Y-153438204D01*
X18112266Y-153254933D01*
X18110715Y-153065604D01*
X18110715Y-102173260D01*
X201017560Y-102173260D01*
X201017560Y-102510100D01*
X201083274Y-102840469D01*
X201212178Y-103151669D01*
X201399316Y-103431741D01*
X201637499Y-103669924D01*
X201917571Y-103857062D01*
X202228771Y-103985966D01*
X202559140Y-104051680D01*
X202895980Y-104051680D01*
X203226349Y-103985966D01*
X203537549Y-103857062D01*
X203817621Y-103669924D01*
X204055804Y-103431741D01*
X204242942Y-103151669D01*
X204371846Y-102840469D01*
X204437560Y-102510100D01*
X204437560Y-102173260D01*
X204371846Y-101842891D01*
X204242942Y-101531691D01*
X204055804Y-101251619D01*
X203817621Y-101013436D01*
X203537549Y-100826298D01*
X203226349Y-100697394D01*
X202895980Y-100631680D01*
X202559140Y-100631680D01*
X202228771Y-100697394D01*
X201917571Y-100826298D01*
X201637499Y-101013436D01*
X201399316Y-101251619D01*
X201212178Y-101531691D01*
X201083274Y-101842891D01*
X201017560Y-102173260D01*
X18110715Y-102173260D01*
X18110715Y-33542444D01*
X18112421Y-33343788D01*
X18117058Y-33160623D01*
X18124643Y-32978221D01*
X18135446Y-32791998D01*
X18148914Y-32611184D01*
X18165706Y-32426654D01*
X18184453Y-32251986D01*
X18205910Y-32077967D01*
X18229391Y-31909197D01*
X18254660Y-31745755D01*
X18283116Y-31578480D01*
X18313191Y-31416537D01*
X18344705Y-31259712D01*
X18378434Y-31103599D01*
X18414328Y-30948370D01*
X18452393Y-30793954D01*
X18492610Y-30640365D01*
X18534946Y-30487687D01*
X18579413Y-30335838D01*
X18624662Y-30189052D01*
X18670529Y-30047211D01*
X18718282Y-29906094D01*
X18767791Y-29766049D01*
X18820705Y-29622643D01*
X18875460Y-29480350D01*
X18933810Y-29334829D01*
X18990764Y-29198287D01*
X19047747Y-29066590D01*
X19106415Y-28935696D01*
X19166667Y-28805808D01*
X19228615Y-28676678D01*
X19292071Y-28548677D01*
X19361122Y-28413923D01*
X19432022Y-28280102D01*
X19498357Y-28158758D01*
X19566189Y-28038273D01*
X19637620Y-27915068D01*
X19717363Y-27781689D01*
X19779905Y-27680140D01*
X21470040Y-27680140D01*
X21470040Y-28016980D01*
X21535754Y-28347349D01*
X21664658Y-28658549D01*
X21851796Y-28938621D01*
X22089979Y-29176804D01*
X22370051Y-29363942D01*
X22681251Y-29492846D01*
X23011620Y-29558560D01*
X23348460Y-29558560D01*
X23678829Y-29492846D01*
X23990029Y-29363942D01*
X24270101Y-29176804D01*
X24508284Y-28938621D01*
X24695422Y-28658549D01*
X24824326Y-28347349D01*
X24890040Y-28016980D01*
X24890040Y-27680140D01*
X24824326Y-27349771D01*
X24695422Y-27038571D01*
X24508284Y-26758499D01*
X24270101Y-26520316D01*
X23990029Y-26333178D01*
X23678829Y-26204274D01*
X23348460Y-26138560D01*
X23011620Y-26138560D01*
X22681251Y-26204274D01*
X22370051Y-26333178D01*
X22089979Y-26520316D01*
X21851796Y-26758499D01*
X21664658Y-27038571D01*
X21535754Y-27349771D01*
X21470040Y-27680140D01*
X19779905Y-27680140D01*
X19789531Y-27664511D01*
X19872671Y-27533422D01*
X19950376Y-27414444D01*
X20027001Y-27300288D01*
X20115162Y-27172595D01*
X20194796Y-27060433D01*
X20275891Y-26949158D01*
X20358218Y-26839073D01*
X20452608Y-26716241D01*
X20537762Y-26608380D01*
X20621638Y-26504755D01*
X20709590Y-26398748D01*
X20795908Y-26297241D01*
X20883540Y-26196646D01*
X20972252Y-26097232D01*
X21062166Y-25998857D01*
X21156256Y-25898388D01*
X21248480Y-25802269D01*
X21341919Y-25707181D01*
X21436530Y-25613166D01*
X21532028Y-25520507D01*
X21634736Y-25423274D01*
X21758026Y-25309742D01*
X21856941Y-25221077D01*
X21957257Y-25133293D01*
X22058659Y-25046675D01*
X22164384Y-24958559D01*
X22267804Y-24874466D01*
X22375641Y-24788938D01*
X22487912Y-24702157D01*
X22601288Y-24616808D01*
X22712196Y-24535472D01*
X22831183Y-24450521D01*
X22955011Y-24364581D01*
X23069168Y-24287521D01*
X23184338Y-24211837D01*
X23304090Y-24135285D01*
X23432455Y-24055593D01*
X23550663Y-23984316D01*
X23669939Y-23914408D01*
X23790072Y-23845994D01*
X23915015Y-23776925D01*
X24036931Y-23711532D01*
X24167559Y-23643621D01*
X24299118Y-23577433D01*
X24427707Y-23514840D01*
X24557256Y-23453842D01*
X24687803Y-23394428D01*
X24819104Y-23336721D01*
X24951398Y-23280620D01*
X25084329Y-23226277D01*
X25226300Y-23170453D01*
X25373218Y-23115051D01*
X25516979Y-23063136D01*
X25661618Y-23013166D01*
X25803097Y-22966445D01*
X25949500Y-22920319D01*
X26096754Y-22876173D01*
X26249114Y-22832840D01*
X26402294Y-22791644D01*
X26551940Y-22753670D01*
X26711035Y-22715737D01*
X26875421Y-22679140D01*
X27031877Y-22646744D01*
X27189196Y-22616539D01*
X27351563Y-22587832D01*
X27523656Y-22560120D01*
X27691908Y-22535696D01*
X27865738Y-22513219D01*
X28035641Y-22493933D01*
X28211032Y-22476787D01*
X28386696Y-22462411D01*
X28590908Y-22449185D01*
X28772781Y-22440545D01*
X28955659Y-22434827D01*
X29150496Y-22431975D01*
X29219498Y-22431766D01*
X53032841Y-22431766D01*
X44185546Y-64055197D01*
M02*
