G04 #@! TF.GenerationSoftware,KiCad,Pcbnew,(5.1.5-0-10_14)*
G04 #@! TF.CreationDate,2020-04-18T18:06:01+09:00*
G04 #@! TF.ProjectId,colice_pcb_left_bottom,636f6c69-6365-45f7-9063-625f6c656674,rev?*
G04 #@! TF.SameCoordinates,Original*
G04 #@! TF.FileFunction,Legend,Top*
G04 #@! TF.FilePolarity,Positive*
%FSLAX46Y46*%
G04 Gerber Fmt 4.6, Leading zero omitted, Abs format (unit mm)*
G04 Created by KiCad (PCBNEW (5.1.5-0-10_14)) date 2020-04-18 18:06:01*
%MOMM*%
%LPD*%
G04 APERTURE LIST*
%ADD10C,0.300000*%
G04 APERTURE END LIST*
D10*
X35053214Y-155947071D02*
X36124642Y-155947071D01*
X35481785Y-155304214D02*
X35053214Y-157232785D01*
X35981785Y-156589928D02*
X34910357Y-156589928D01*
X35553214Y-157232785D02*
X35981785Y-155304214D01*
X37481785Y-156804214D02*
X37410357Y-156875642D01*
X37196071Y-156947071D01*
X37053214Y-156947071D01*
X36838928Y-156875642D01*
X36696071Y-156732785D01*
X36624642Y-156589928D01*
X36553214Y-156304214D01*
X36553214Y-156089928D01*
X36624642Y-155804214D01*
X36696071Y-155661357D01*
X36838928Y-155518500D01*
X37053214Y-155447071D01*
X37196071Y-155447071D01*
X37410357Y-155518500D01*
X37481785Y-155589928D01*
X38338928Y-156947071D02*
X38196071Y-156875642D01*
X38124642Y-156804214D01*
X38053214Y-156661357D01*
X38053214Y-156232785D01*
X38124642Y-156089928D01*
X38196071Y-156018500D01*
X38338928Y-155947071D01*
X38553214Y-155947071D01*
X38696071Y-156018500D01*
X38767500Y-156089928D01*
X38838928Y-156232785D01*
X38838928Y-156661357D01*
X38767500Y-156804214D01*
X38696071Y-156875642D01*
X38553214Y-156947071D01*
X38338928Y-156947071D01*
X39696071Y-156947071D02*
X39553214Y-156875642D01*
X39481785Y-156732785D01*
X39481785Y-155447071D01*
X40267500Y-156947071D02*
X40267500Y-155947071D01*
X40267500Y-155447071D02*
X40196071Y-155518500D01*
X40267500Y-155589928D01*
X40338928Y-155518500D01*
X40267500Y-155447071D01*
X40267500Y-155589928D01*
X41624642Y-156875642D02*
X41481785Y-156947071D01*
X41196071Y-156947071D01*
X41053214Y-156875642D01*
X40981785Y-156804214D01*
X40910357Y-156661357D01*
X40910357Y-156232785D01*
X40981785Y-156089928D01*
X41053214Y-156018500D01*
X41196071Y-155947071D01*
X41481785Y-155947071D01*
X41624642Y-156018500D01*
X42838928Y-156875642D02*
X42696071Y-156947071D01*
X42410357Y-156947071D01*
X42267500Y-156875642D01*
X42196071Y-156732785D01*
X42196071Y-156161357D01*
X42267500Y-156018500D01*
X42410357Y-155947071D01*
X42696071Y-155947071D01*
X42838928Y-156018500D01*
X42910357Y-156161357D01*
X42910357Y-156304214D01*
X42196071Y-156447071D01*
X45624642Y-156232785D02*
X45553214Y-156161357D01*
X45410357Y-156089928D01*
X45267500Y-156089928D01*
X45124642Y-156161357D01*
X45053214Y-156232785D01*
X44981785Y-156375642D01*
X44981785Y-156518500D01*
X45053214Y-156661357D01*
X45124642Y-156732785D01*
X45267500Y-156804214D01*
X45410357Y-156804214D01*
X45553214Y-156732785D01*
X45624642Y-156661357D01*
X45624642Y-156089928D02*
X45624642Y-156661357D01*
X45696071Y-156732785D01*
X45767500Y-156732785D01*
X45910357Y-156661357D01*
X45981785Y-156518500D01*
X45981785Y-156161357D01*
X45838928Y-155947071D01*
X45624642Y-155804214D01*
X45338928Y-155732785D01*
X45053214Y-155804214D01*
X44838928Y-155947071D01*
X44696071Y-156161357D01*
X44624642Y-156447071D01*
X44696071Y-156732785D01*
X44838928Y-156947071D01*
X45053214Y-157089928D01*
X45338928Y-157161357D01*
X45624642Y-157089928D01*
X45838928Y-156947071D01*
X46624642Y-155947071D02*
X46624642Y-157232785D01*
X46553214Y-157375642D01*
X46410357Y-157447071D01*
X46338928Y-157447071D01*
X46624642Y-155447071D02*
X46553214Y-155518500D01*
X46624642Y-155589928D01*
X46696071Y-155518500D01*
X46624642Y-155447071D01*
X46624642Y-155589928D01*
X47338928Y-155947071D02*
X47338928Y-157447071D01*
X47338928Y-156018500D02*
X47481785Y-155947071D01*
X47767500Y-155947071D01*
X47910357Y-156018500D01*
X47981785Y-156089928D01*
X48053214Y-156232785D01*
X48053214Y-156661357D01*
X47981785Y-156804214D01*
X47910357Y-156875642D01*
X47767500Y-156947071D01*
X47481785Y-156947071D01*
X47338928Y-156875642D01*
X48624642Y-156875642D02*
X48767500Y-156947071D01*
X49053214Y-156947071D01*
X49196071Y-156875642D01*
X49267500Y-156732785D01*
X49267500Y-156661357D01*
X49196071Y-156518500D01*
X49053214Y-156447071D01*
X48838928Y-156447071D01*
X48696071Y-156375642D01*
X48624642Y-156232785D01*
X48624642Y-156161357D01*
X48696071Y-156018500D01*
X48838928Y-155947071D01*
X49053214Y-155947071D01*
X49196071Y-156018500D01*
X49910357Y-156947071D02*
X49910357Y-155447071D01*
X50053214Y-156375642D02*
X50481785Y-156947071D01*
X50481785Y-155947071D02*
X49910357Y-156518500D01*
X51696071Y-156875642D02*
X51553214Y-156947071D01*
X51267500Y-156947071D01*
X51124642Y-156875642D01*
X51053214Y-156732785D01*
X51053214Y-156161357D01*
X51124642Y-156018500D01*
X51267500Y-155947071D01*
X51553214Y-155947071D01*
X51696071Y-156018500D01*
X51767500Y-156161357D01*
X51767500Y-156304214D01*
X51053214Y-156447071D01*
X52410357Y-155947071D02*
X52410357Y-156947071D01*
X52410357Y-156089928D02*
X52481785Y-156018500D01*
X52624642Y-155947071D01*
X52838928Y-155947071D01*
X52981785Y-156018500D01*
X53053214Y-156161357D01*
X53053214Y-156947071D01*
X53767500Y-155947071D02*
X53767500Y-156947071D01*
X53767500Y-156089928D02*
X53838928Y-156018500D01*
X53981785Y-155947071D01*
X54196071Y-155947071D01*
X54338928Y-156018500D01*
X54410357Y-156161357D01*
X54410357Y-156947071D01*
X35910357Y-159497071D02*
X35196071Y-159497071D01*
X35196071Y-157997071D01*
X36981785Y-159425642D02*
X36838928Y-159497071D01*
X36553214Y-159497071D01*
X36410357Y-159425642D01*
X36338928Y-159282785D01*
X36338928Y-158711357D01*
X36410357Y-158568500D01*
X36553214Y-158497071D01*
X36838928Y-158497071D01*
X36981785Y-158568500D01*
X37053214Y-158711357D01*
X37053214Y-158854214D01*
X36338928Y-158997071D01*
X37481785Y-158497071D02*
X38053214Y-158497071D01*
X37696071Y-159497071D02*
X37696071Y-158211357D01*
X37767499Y-158068500D01*
X37910357Y-157997071D01*
X38053214Y-157997071D01*
X38338928Y-158497071D02*
X38910357Y-158497071D01*
X38553214Y-157997071D02*
X38553214Y-159282785D01*
X38624642Y-159425642D01*
X38767499Y-159497071D01*
X38910357Y-159497071D01*
X41053214Y-158711357D02*
X41267500Y-158782785D01*
X41338928Y-158854214D01*
X41410357Y-158997071D01*
X41410357Y-159211357D01*
X41338928Y-159354214D01*
X41267500Y-159425642D01*
X41124642Y-159497071D01*
X40553214Y-159497071D01*
X40553214Y-157997071D01*
X41053214Y-157997071D01*
X41196071Y-158068500D01*
X41267500Y-158139928D01*
X41338928Y-158282785D01*
X41338928Y-158425642D01*
X41267500Y-158568500D01*
X41196071Y-158639928D01*
X41053214Y-158711357D01*
X40553214Y-158711357D01*
X42267500Y-159497071D02*
X42124642Y-159425642D01*
X42053214Y-159354214D01*
X41981785Y-159211357D01*
X41981785Y-158782785D01*
X42053214Y-158639928D01*
X42124642Y-158568500D01*
X42267500Y-158497071D01*
X42481785Y-158497071D01*
X42624642Y-158568500D01*
X42696071Y-158639928D01*
X42767500Y-158782785D01*
X42767500Y-159211357D01*
X42696071Y-159354214D01*
X42624642Y-159425642D01*
X42481785Y-159497071D01*
X42267500Y-159497071D01*
X43196071Y-158497071D02*
X43767500Y-158497071D01*
X43410357Y-157997071D02*
X43410357Y-159282785D01*
X43481785Y-159425642D01*
X43624642Y-159497071D01*
X43767500Y-159497071D01*
X44053214Y-158497071D02*
X44624642Y-158497071D01*
X44267499Y-157997071D02*
X44267499Y-159282785D01*
X44338928Y-159425642D01*
X44481785Y-159497071D01*
X44624642Y-159497071D01*
X45338928Y-159497071D02*
X45196071Y-159425642D01*
X45124642Y-159354214D01*
X45053214Y-159211357D01*
X45053214Y-158782785D01*
X45124642Y-158639928D01*
X45196071Y-158568500D01*
X45338928Y-158497071D01*
X45553214Y-158497071D01*
X45696071Y-158568500D01*
X45767499Y-158639928D01*
X45838928Y-158782785D01*
X45838928Y-159211357D01*
X45767499Y-159354214D01*
X45696071Y-159425642D01*
X45553214Y-159497071D01*
X45338928Y-159497071D01*
X46481785Y-159497071D02*
X46481785Y-158497071D01*
X46481785Y-158639928D02*
X46553214Y-158568500D01*
X46696071Y-158497071D01*
X46910357Y-158497071D01*
X47053214Y-158568500D01*
X47124642Y-158711357D01*
X47124642Y-159497071D01*
X47124642Y-158711357D02*
X47196071Y-158568500D01*
X47338928Y-158497071D01*
X47553214Y-158497071D01*
X47696071Y-158568500D01*
X47767499Y-158711357D01*
X47767499Y-159497071D01*
X49481785Y-158497071D02*
X49838928Y-159497071D01*
X50196071Y-158497071D01*
X50767499Y-159354214D02*
X50838928Y-159425642D01*
X50767499Y-159497071D01*
X50696071Y-159425642D01*
X50767499Y-159354214D01*
X50767499Y-159497071D01*
X51767499Y-157997071D02*
X51910357Y-157997071D01*
X52053214Y-158068500D01*
X52124642Y-158139928D01*
X52196071Y-158282785D01*
X52267499Y-158568500D01*
X52267499Y-158925642D01*
X52196071Y-159211357D01*
X52124642Y-159354214D01*
X52053214Y-159425642D01*
X51910357Y-159497071D01*
X51767499Y-159497071D01*
X51624642Y-159425642D01*
X51553214Y-159354214D01*
X51481785Y-159211357D01*
X51410357Y-158925642D01*
X51410357Y-158568500D01*
X51481785Y-158282785D01*
X51553214Y-158139928D01*
X51624642Y-158068500D01*
X51767499Y-157997071D01*
X52910357Y-159354214D02*
X52981785Y-159425642D01*
X52910357Y-159497071D01*
X52838928Y-159425642D01*
X52910357Y-159354214D01*
X52910357Y-159497071D01*
X54410357Y-159497071D02*
X53553214Y-159497071D01*
X53981785Y-159497071D02*
X53981785Y-157997071D01*
X53838928Y-158211357D01*
X53696071Y-158354214D01*
X53553214Y-158425642D01*
M02*
