%FSLAX45Y45*%
G04 Gerber Fmt 4.5, Leading zero omitted, Abs format (unit mm)*
G04 Created by KiCad (PCBNEW (5.1.5-0-10_14)) date 2020-04-18 18:05:54*
%MOMM*%
%LPD*%
G04 APERTURE LIST*
%TA.AperFunction,Profile*%
%ADD10C,0.200000*%
%TD*%
%ADD11C,0.200000*%
%ADD12C,0.300000*%
G04 APERTURE END LIST*
D10*
X19134126Y-3178679D02*
X19117707Y-5212163D01*
X20867126Y-3210013D02*
X19134126Y-3178679D01*
X20867126Y-3209981D02*
X20867126Y-3210013D01*
X1737571Y-3353928D02*
X1737750Y-3333131D01*
X1737750Y-3333131D02*
X1738244Y-3313610D01*
X1738244Y-3313610D02*
X1739053Y-3294167D01*
X1739053Y-3294167D02*
X1740203Y-3274336D01*
X1740203Y-3274336D02*
X1741639Y-3255063D01*
X1741639Y-3255063D02*
X1743427Y-3235409D01*
X1743427Y-3235409D02*
X1745427Y-3216779D01*
X1745427Y-3216779D02*
X1747713Y-3198235D01*
X1747713Y-3198235D02*
X1750217Y-3180242D01*
X1750217Y-3180242D02*
X1752914Y-3162794D01*
X1752914Y-3162794D02*
X1755945Y-3144975D01*
X1755945Y-3144975D02*
X1759153Y-3127701D01*
X1759153Y-3127701D02*
X1762516Y-3110967D01*
X1762516Y-3110967D02*
X1766113Y-3094319D01*
X1766113Y-3094319D02*
X1769942Y-3077759D01*
X1769942Y-3077759D02*
X1774003Y-3061288D01*
X1774003Y-3061288D02*
X1778292Y-3044908D01*
X1778292Y-3044908D02*
X1782808Y-3028622D01*
X1782808Y-3028622D02*
X1787549Y-3012431D01*
X1787549Y-3012431D02*
X1792377Y-2996770D01*
X1792377Y-2996770D02*
X1797271Y-2981633D01*
X1797271Y-2981633D02*
X1802363Y-2966586D01*
X1802363Y-2966586D02*
X1807650Y-2951631D01*
X1807650Y-2951631D02*
X1813291Y-2936344D01*
X1813291Y-2936344D02*
X1819134Y-2921158D01*
X1819134Y-2921158D02*
X1825351Y-2905655D01*
X1825351Y-2905655D02*
X1831426Y-2891091D01*
X1831426Y-2891091D02*
X1837506Y-2877037D01*
X1837506Y-2877037D02*
X1843763Y-2863078D01*
X1843763Y-2863078D02*
X1850193Y-2849216D01*
X1850193Y-2849216D02*
X1856797Y-2835451D01*
X1856797Y-2835451D02*
X1863572Y-2821784D01*
X1863572Y-2821784D02*
X1870931Y-2807424D01*
X1870931Y-2807424D02*
X1878478Y-2793177D01*
X1878478Y-2793177D02*
X1885562Y-2780220D01*
X1885562Y-2780220D02*
X1892801Y-2767361D01*
X1892801Y-2767361D02*
X1900422Y-2754217D01*
X1900422Y-2754217D02*
X1908901Y-2740035D01*
X1908901Y-2740035D02*
X1916624Y-2727495D01*
X1916624Y-2727495D02*
X1925463Y-2713559D01*
X1925463Y-2713559D02*
X1933750Y-2700870D01*
X1933750Y-2700870D02*
X1941945Y-2688662D01*
X1941945Y-2688662D02*
X1951306Y-2675102D01*
X1951306Y-2675102D02*
X1959810Y-2663124D01*
X1959810Y-2663124D02*
X1968459Y-2651257D01*
X1968459Y-2651257D02*
X1977250Y-2639502D01*
X1977250Y-2639502D02*
X1987275Y-2626456D01*
X1987275Y-2626456D02*
X1996365Y-2614943D01*
X1996365Y-2614943D02*
X2005312Y-2603889D01*
X2005312Y-2603889D02*
X2014674Y-2592605D01*
X2014674Y-2592605D02*
X2023883Y-2581776D01*
X2023883Y-2581776D02*
X2033219Y-2571059D01*
X2033219Y-2571059D02*
X2042680Y-2560456D01*
X2042680Y-2560456D02*
X2052266Y-2549967D01*
X2052266Y-2549967D02*
X2062282Y-2539273D01*
X2062282Y-2539273D02*
X2072118Y-2529022D01*
X2072118Y-2529022D02*
X2082075Y-2518888D01*
X2082075Y-2518888D02*
X2092153Y-2508875D01*
X2092153Y-2508875D02*
X2102349Y-2498982D01*
X2102349Y-2498982D02*
X2113311Y-2488604D01*
X2113311Y-2488604D02*
X2126377Y-2476572D01*
X2126377Y-2476572D02*
X2136958Y-2467087D01*
X2136958Y-2467087D02*
X2147654Y-2457728D01*
X2147654Y-2457728D02*
X2158462Y-2448495D01*
X2158462Y-2448495D02*
X2169725Y-2439108D01*
X2169725Y-2439108D02*
X2180758Y-2430137D01*
X2180758Y-2430137D02*
X2192251Y-2421022D01*
X2192251Y-2421022D02*
X2204212Y-2411777D01*
X2204212Y-2411777D02*
X2216294Y-2402681D01*
X2216294Y-2402681D02*
X2228133Y-2393999D01*
X2228133Y-2393999D02*
X2240812Y-2384946D01*
X2240812Y-2384946D02*
X2253982Y-2375806D01*
X2253982Y-2375806D02*
X2266168Y-2367581D01*
X2266168Y-2367581D02*
X2278460Y-2359503D01*
X2278460Y-2359503D02*
X2291235Y-2351336D01*
X2291235Y-2351336D02*
X2304882Y-2342864D01*
X2304882Y-2342864D02*
X2317500Y-2335256D01*
X2317500Y-2335256D02*
X2330219Y-2327801D01*
X2330219Y-2327801D02*
X2343039Y-2320500D01*
X2343039Y-2320500D02*
X2356351Y-2313141D01*
X2356351Y-2313141D02*
X2369371Y-2306157D01*
X2369371Y-2306157D02*
X2383285Y-2298924D01*
X2383285Y-2298924D02*
X2397306Y-2291870D01*
X2397306Y-2291870D02*
X2411028Y-2285190D01*
X2411028Y-2285190D02*
X2424848Y-2278683D01*
X2424848Y-2278683D02*
X2438764Y-2272350D01*
X2438764Y-2272350D02*
X2452776Y-2266191D01*
X2452776Y-2266191D02*
X2466882Y-2260209D01*
X2466882Y-2260209D02*
X2481081Y-2254405D01*
X2481081Y-2254405D02*
X2496214Y-2248454D01*
X2496214Y-2248454D02*
X2511872Y-2242550D01*
X2511872Y-2242550D02*
X2527208Y-2237012D01*
X2527208Y-2237012D02*
X2542641Y-2231680D01*
X2542641Y-2231680D02*
X2557737Y-2226695D01*
X2557737Y-2226695D02*
X2573356Y-2221774D01*
X2573356Y-2221774D02*
X2589068Y-2217063D01*
X2589068Y-2217063D02*
X2605311Y-2212444D01*
X2605311Y-2212444D02*
X2621648Y-2208050D01*
X2621648Y-2208050D02*
X2637632Y-2203994D01*
X2637632Y-2203994D02*
X2654597Y-2199949D01*
X2654597Y-2199949D02*
X2672105Y-2196051D01*
X2672105Y-2196051D02*
X2688805Y-2192593D01*
X2688805Y-2192593D02*
X2705589Y-2189371D01*
X2705589Y-2189371D02*
X2722914Y-2186308D01*
X2722914Y-2186308D02*
X2741243Y-2183356D01*
X2741243Y-2183356D02*
X2759203Y-2180749D01*
X2759203Y-2180749D02*
X2777712Y-2178356D01*
X2777712Y-2178356D02*
X2795845Y-2176298D01*
X2795845Y-2176298D02*
X2814526Y-2174471D01*
X2814526Y-2174471D02*
X2833292Y-2172935D01*
X2833292Y-2172935D02*
X2854973Y-2171531D01*
X2854973Y-2171531D02*
X2874385Y-2170609D01*
X2874385Y-2170609D02*
X2893878Y-2170000D01*
X2893878Y-2170000D02*
X2914406Y-2169699D01*
X2914406Y-2169699D02*
X2921826Y-2169677D01*
X1737571Y-15306857D02*
X1737571Y-3353928D01*
X17862326Y-17291649D02*
X17836064Y-17286291D01*
X17836064Y-17286291D02*
X17808639Y-17280696D01*
X17808639Y-17280696D02*
X17750401Y-17268816D01*
X17750401Y-17268816D02*
X17665478Y-17251491D01*
X17665478Y-17251491D02*
X17573145Y-17232654D01*
X17573145Y-17232654D02*
X17473951Y-17212418D01*
X17473951Y-17212418D02*
X17368445Y-17190893D01*
X17368445Y-17190893D02*
X17257175Y-17168193D01*
X17257175Y-17168193D02*
X17140691Y-17144428D01*
X17140691Y-17144428D02*
X17019541Y-17119712D01*
X17019541Y-17119712D02*
X16894274Y-17094155D01*
X16894274Y-17094155D02*
X16765440Y-17067871D01*
X16765440Y-17067871D02*
X16633587Y-17040970D01*
X16633587Y-17040970D02*
X16499263Y-17013566D01*
X16499263Y-17013566D02*
X16363019Y-16985769D01*
X16363019Y-16985769D02*
X16225402Y-16957692D01*
X16225402Y-16957692D02*
X16086962Y-16929448D01*
X16086962Y-16929448D02*
X15948248Y-16901147D01*
X15948248Y-16901147D02*
X15809808Y-16872902D01*
X15809808Y-16872902D02*
X15672191Y-16844825D01*
X15672191Y-16844825D02*
X15535947Y-16817028D01*
X15535947Y-16817028D02*
X15335011Y-16776032D01*
X15335011Y-16776032D02*
X15140936Y-16736436D01*
X15140936Y-16736436D02*
X15015669Y-16710878D01*
X15015669Y-16710878D02*
X14835042Y-16674025D01*
X14835042Y-16674025D02*
X14666765Y-16639691D01*
X14666765Y-16639691D02*
X14561259Y-16618165D01*
X14561259Y-16618165D02*
X14462065Y-16597926D01*
X14462065Y-16597926D02*
X14369732Y-16579087D01*
X14369732Y-16579087D02*
X14284809Y-16561760D01*
X14284809Y-16561760D02*
X14207845Y-16546056D01*
X14207845Y-16546056D02*
X14172885Y-16538923D01*
X18335839Y-17339464D02*
X18315572Y-17339376D01*
X18315572Y-17339376D02*
X18295718Y-17339123D01*
X18295718Y-17339123D02*
X18275755Y-17338701D01*
X18275755Y-17338701D02*
X18256206Y-17338125D01*
X18256206Y-17338125D02*
X18236085Y-17337362D01*
X18236085Y-17337362D02*
X18216903Y-17336476D01*
X18216903Y-17336476D02*
X18197614Y-17335428D01*
X18197614Y-17335428D02*
X18178105Y-17334207D01*
X18178105Y-17334207D02*
X18158608Y-17332825D01*
X18158608Y-17332825D02*
X18140051Y-17331359D01*
X18140051Y-17331359D02*
X18121275Y-17329727D01*
X18121275Y-17329727D02*
X18102745Y-17327968D01*
X18102745Y-17327968D02*
X18084461Y-17326088D01*
X18084461Y-17326088D02*
X18065960Y-17324040D01*
X18065960Y-17324040D02*
X18047360Y-17321832D01*
X18047360Y-17321832D02*
X18029238Y-17319537D01*
X18029238Y-17319537D02*
X18011249Y-17317119D01*
X18011249Y-17317119D02*
X17993278Y-17314562D01*
X17993278Y-17314562D02*
X17975555Y-17311903D01*
X17975555Y-17311903D02*
X17958080Y-17309146D01*
X17958080Y-17309146D02*
X17940624Y-17306259D01*
X17940624Y-17306259D02*
X17923188Y-17303241D01*
X17923188Y-17303241D02*
X17905772Y-17300092D01*
X17905772Y-17300092D02*
X17888605Y-17296856D01*
X17888605Y-17296856D02*
X17871004Y-17293402D01*
X17871004Y-17293402D02*
X17862326Y-17291649D01*
X19681023Y-17339464D02*
X18335839Y-17339464D01*
X19824970Y-2169677D02*
X19844924Y-2169864D01*
X19844924Y-2169864D02*
X19865414Y-2170447D01*
X19865414Y-2170447D02*
X19885387Y-2171399D01*
X19885387Y-2171399D02*
X19904435Y-2172661D01*
X19904435Y-2172661D02*
X19922978Y-2174225D01*
X19922978Y-2174225D02*
X19941835Y-2176156D01*
X19941835Y-2176156D02*
X19959779Y-2178316D01*
X19959779Y-2178316D02*
X19977628Y-2180778D01*
X19977628Y-2180778D02*
X19994977Y-2183475D01*
X19994977Y-2183475D02*
X20012230Y-2186455D01*
X20012230Y-2186455D02*
X20029386Y-2189718D01*
X20029386Y-2189718D02*
X20046045Y-2193173D01*
X20046045Y-2193173D02*
X20062606Y-2196893D01*
X20062606Y-2196893D02*
X20079458Y-2200972D01*
X20079458Y-2200972D02*
X20095425Y-2205115D01*
X20095425Y-2205115D02*
X20112835Y-2209944D01*
X20112835Y-2209944D02*
X20129738Y-2214948D01*
X20129738Y-2214948D02*
X20146521Y-2220229D01*
X20146521Y-2220229D02*
X20163180Y-2225784D01*
X20163180Y-2225784D02*
X20178965Y-2231340D01*
X20178965Y-2231340D02*
X20194261Y-2237001D01*
X20194261Y-2237001D02*
X20209074Y-2242746D01*
X20209074Y-2242746D02*
X20223411Y-2248557D01*
X20223411Y-2248557D02*
X20237641Y-2254575D01*
X20237641Y-2254575D02*
X20251582Y-2260715D01*
X20251582Y-2260715D02*
X20266131Y-2267386D01*
X20266131Y-2267386D02*
X20280027Y-2274014D01*
X20280027Y-2274014D02*
X20293457Y-2280663D01*
X20293457Y-2280663D02*
X20306777Y-2287499D01*
X20306777Y-2287499D02*
X20320331Y-2294706D01*
X20320331Y-2294706D02*
X20334794Y-2302683D01*
X20334794Y-2302683D02*
X20347758Y-2310092D01*
X20347758Y-2310092D02*
X20360605Y-2317680D01*
X20360605Y-2317680D02*
X20373333Y-2325445D01*
X20373333Y-2325445D02*
X20385941Y-2333387D01*
X20385941Y-2333387D02*
X20398099Y-2341287D01*
X20398099Y-2341287D02*
X20410140Y-2349351D01*
X20410140Y-2349351D02*
X20423023Y-2358250D01*
X20423023Y-2358250D02*
X20434815Y-2366650D01*
X20434815Y-2366650D02*
X20446484Y-2375208D01*
X20446484Y-2375208D02*
X20458650Y-2384399D01*
X20458650Y-2384399D02*
X20470369Y-2393520D01*
X20470369Y-2393520D02*
X20481651Y-2402558D01*
X20481651Y-2402558D02*
X20493105Y-2411999D01*
X20493105Y-2411999D02*
X20504716Y-2421853D01*
X20504716Y-2421853D02*
X20516473Y-2432132D01*
X20516473Y-2432132D02*
X20527497Y-2442057D01*
X20527497Y-2442057D02*
X20538094Y-2451868D01*
X20538094Y-2451868D02*
X20549677Y-2462909D01*
X20549677Y-2462909D02*
X20559984Y-2473022D01*
X20559984Y-2473022D02*
X20570150Y-2483277D01*
X20570150Y-2483277D02*
X20580174Y-2493670D01*
X20580174Y-2493670D02*
X20590055Y-2504202D01*
X20590055Y-2504202D02*
X20599791Y-2514870D01*
X20599791Y-2514870D02*
X20609637Y-2525966D01*
X20609637Y-2525966D02*
X20619327Y-2537202D01*
X20619327Y-2537202D02*
X20629108Y-2548879D01*
X20629108Y-2548879D02*
X20638231Y-2560089D01*
X20638231Y-2560089D02*
X20647442Y-2571736D01*
X20647442Y-2571736D02*
X20656254Y-2583205D01*
X20656254Y-2583205D02*
X20664909Y-2594799D01*
X20664909Y-2594799D02*
X20673862Y-2607153D01*
X20673862Y-2607153D02*
X20682191Y-2618998D01*
X20682191Y-2618998D02*
X20690797Y-2631614D01*
X20690797Y-2631614D02*
X20698794Y-2643705D01*
X20698794Y-2643705D02*
X20706835Y-2656244D01*
X20706835Y-2656244D02*
X20714907Y-2669239D01*
X20714907Y-2669239D02*
X20722593Y-2682023D01*
X20722593Y-2682023D02*
X20730100Y-2694924D01*
X20730100Y-2694924D02*
X20737427Y-2707943D01*
X20737427Y-2707943D02*
X20745498Y-2722812D01*
X20745498Y-2722812D02*
X20752435Y-2736073D01*
X20752435Y-2736073D02*
X20759187Y-2749445D01*
X20759187Y-2749445D02*
X20765751Y-2762926D01*
X20765751Y-2762926D02*
X20772951Y-2778311D01*
X20772951Y-2778311D02*
X20779270Y-2792382D01*
X20779270Y-2792382D02*
X20785848Y-2807658D01*
X20785848Y-2807658D02*
X20791743Y-2821954D01*
X20791743Y-2821954D02*
X20797861Y-2837468D01*
X20797861Y-2837468D02*
X20803873Y-2853477D01*
X20803873Y-2853477D02*
X20809367Y-2868855D01*
X20809367Y-2868855D02*
X20814500Y-2883965D01*
X20814500Y-2883965D02*
X20819767Y-2900324D01*
X20819767Y-2900324D02*
X20824657Y-2916414D01*
X20824657Y-2916414D02*
X20829186Y-2932226D01*
X20829186Y-2932226D02*
X20833572Y-2948529D01*
X20833572Y-2948529D02*
X20837748Y-2965132D01*
X20837748Y-2965132D02*
X20841657Y-2981840D01*
X20841657Y-2981840D02*
X20845339Y-2998848D01*
X20845339Y-2998848D02*
X20848666Y-3015559D01*
X20848666Y-3015559D02*
X20852073Y-3034372D01*
X20852073Y-3034372D02*
X20854893Y-3051685D01*
X20854893Y-3051685D02*
X20857483Y-3069499D01*
X20857483Y-3069499D02*
X20859772Y-3087408D01*
X20859772Y-3087408D02*
X20861880Y-3106643D01*
X20861880Y-3106643D02*
X20863570Y-3125155D01*
X20863570Y-3125155D02*
X20864990Y-3144589D01*
X20864990Y-3144589D02*
X20866033Y-3163703D01*
X20866033Y-3163703D02*
X20866744Y-3183326D01*
X20866744Y-3183326D02*
X20867094Y-3203460D01*
X20867094Y-3203460D02*
X20867126Y-3209981D01*
X2921826Y-16491108D02*
X2901984Y-16490945D01*
X2901984Y-16490945D02*
X2881508Y-16490434D01*
X2881508Y-16490434D02*
X2862066Y-16489626D01*
X2862066Y-16489626D02*
X2842234Y-16488475D01*
X2842234Y-16488475D02*
X2822961Y-16487040D01*
X2822961Y-16487040D02*
X2804241Y-16485344D01*
X2804241Y-16485344D02*
X2786071Y-16483412D01*
X2786071Y-16483412D02*
X2767984Y-16481207D01*
X2767984Y-16481207D02*
X2749521Y-16478664D01*
X2749521Y-16478664D02*
X2731608Y-16475913D01*
X2731608Y-16475913D02*
X2713329Y-16472814D01*
X2713329Y-16472814D02*
X2694692Y-16469349D01*
X2694692Y-16469349D02*
X2677963Y-16465974D01*
X2677963Y-16465974D02*
X2659973Y-16462061D01*
X2659973Y-16462061D02*
X2643425Y-16458201D01*
X2643425Y-16458201D02*
X2626080Y-16453882D01*
X2626080Y-16453882D02*
X2610158Y-16449670D01*
X2610158Y-16449670D02*
X2593887Y-16445117D01*
X2593887Y-16445117D02*
X2577711Y-16440340D01*
X2577711Y-16440340D02*
X2562066Y-16435477D01*
X2562066Y-16435477D02*
X2546083Y-16430261D01*
X2546083Y-16430261D02*
X2531057Y-16425124D01*
X2531057Y-16425124D02*
X2516123Y-16419793D01*
X2516123Y-16419793D02*
X2501281Y-16414268D01*
X2501281Y-16414268D02*
X2486114Y-16408385D01*
X2486114Y-16408385D02*
X2471466Y-16402472D01*
X2471466Y-16402472D02*
X2457330Y-16396547D01*
X2457330Y-16396547D02*
X2442875Y-16390263D01*
X2442875Y-16390263D02*
X2428113Y-16383606D01*
X2428113Y-16383606D02*
X2413459Y-16376754D01*
X2413459Y-16376754D02*
X2398513Y-16369510D01*
X2398513Y-16369510D02*
X2384483Y-16362471D01*
X2384483Y-16362471D02*
X2369371Y-16354626D01*
X2369371Y-16354626D02*
X2355958Y-16347429D01*
X2355958Y-16347429D02*
X2342649Y-16340065D01*
X2342649Y-16340065D02*
X2329832Y-16332759D01*
X2329832Y-16332759D02*
X2316732Y-16325071D01*
X2316732Y-16325071D02*
X2303740Y-16317221D01*
X2303740Y-16317221D02*
X2290858Y-16309209D01*
X2290858Y-16309209D02*
X2278086Y-16301038D01*
X2278086Y-16301038D02*
X2264685Y-16292214D01*
X2264685Y-16292214D02*
X2251411Y-16283214D01*
X2251411Y-16283214D02*
X2238630Y-16274297D01*
X2238630Y-16274297D02*
X2226692Y-16265740D01*
X2226692Y-16265740D02*
X2214153Y-16256508D01*
X2214153Y-16256508D02*
X2201387Y-16246845D01*
X2201387Y-16246845D02*
X2189803Y-16237840D01*
X2189803Y-16237840D02*
X2177298Y-16227857D01*
X2177298Y-16227857D02*
X2166299Y-16218845D01*
X2166299Y-16218845D02*
X2155411Y-16209704D01*
X2155411Y-16209704D02*
X2144634Y-16200436D01*
X2144634Y-16200436D02*
X2133970Y-16191041D01*
X2133970Y-16191041D02*
X2123421Y-16181521D01*
X2123421Y-16181521D02*
X2112015Y-16170966D01*
X2112015Y-16170966D02*
X2101708Y-16161187D01*
X2101708Y-16161187D02*
X2091519Y-16151287D01*
X2091519Y-16151287D02*
X2081449Y-16141266D01*
X2081449Y-16141266D02*
X2071500Y-16131125D01*
X2071500Y-16131125D02*
X2061366Y-16120544D01*
X2061366Y-16120544D02*
X2050460Y-16108858D01*
X2050460Y-16108858D02*
X2040897Y-16098348D01*
X2040897Y-16098348D02*
X2031458Y-16087724D01*
X2031458Y-16087724D02*
X2021858Y-16076649D01*
X2021858Y-16076649D02*
X2012677Y-16065795D01*
X2012677Y-16065795D02*
X2003625Y-16054830D01*
X2003625Y-16054830D02*
X1994425Y-16043408D01*
X1994425Y-16043408D02*
X1984820Y-16031167D01*
X1984820Y-16031167D02*
X1975909Y-16019508D01*
X1975909Y-16019508D02*
X1966876Y-16007377D01*
X1966876Y-16007377D02*
X1957995Y-15995128D01*
X1957995Y-15995128D02*
X1949267Y-15982762D01*
X1949267Y-15982762D02*
X1940943Y-15970648D01*
X1940943Y-15970648D02*
X1932767Y-15958427D01*
X1932767Y-15958427D02*
X1924739Y-15946099D01*
X1924739Y-15946099D02*
X1916624Y-15933288D01*
X1916624Y-15933288D02*
X1908901Y-15920749D01*
X1908901Y-15920749D02*
X1901102Y-15907721D01*
X1901102Y-15907721D02*
X1893689Y-15894974D01*
X1893689Y-15894974D02*
X1886431Y-15882128D01*
X1886431Y-15882128D02*
X1878903Y-15868394D01*
X1878903Y-15868394D02*
X1871552Y-15854551D01*
X1871552Y-15854551D02*
X1864583Y-15841000D01*
X1864583Y-15841000D02*
X1857585Y-15826946D01*
X1857585Y-15826946D02*
X1850769Y-15812786D01*
X1850769Y-15812786D02*
X1844323Y-15798932D01*
X1844323Y-15798932D02*
X1837870Y-15784570D01*
X1837870Y-15784570D02*
X1831602Y-15770108D01*
X1831602Y-15770108D02*
X1825693Y-15755963D01*
X1825693Y-15755963D02*
X1819465Y-15740466D01*
X1819465Y-15740466D02*
X1813610Y-15725285D01*
X1813610Y-15725285D02*
X1807804Y-15709579D01*
X1807804Y-15709579D02*
X1802511Y-15694626D01*
X1802511Y-15694626D02*
X1797271Y-15679150D01*
X1797271Y-15679150D02*
X1792103Y-15663146D01*
X1792103Y-15663146D02*
X1787287Y-15647480D01*
X1787287Y-15647480D02*
X1782558Y-15631284D01*
X1782558Y-15631284D02*
X1778054Y-15614992D01*
X1778054Y-15614992D02*
X1773890Y-15599052D01*
X1773890Y-15599052D02*
X1769836Y-15582579D01*
X1769836Y-15582579D02*
X1765913Y-15565567D01*
X1765913Y-15565567D02*
X1762235Y-15548463D01*
X1762235Y-15548463D02*
X1758891Y-15531722D01*
X1758891Y-15531722D02*
X1755622Y-15513985D01*
X1755622Y-15513985D02*
X1752692Y-15496615D01*
X1752692Y-15496615D02*
X1749947Y-15478700D01*
X1749947Y-15478700D02*
X1747412Y-15460235D01*
X1747412Y-15460235D02*
X1745214Y-15442146D01*
X1745214Y-15442146D02*
X1743289Y-15423974D01*
X1743289Y-15423974D02*
X1741562Y-15404783D01*
X1741562Y-15404783D02*
X1740141Y-15385505D01*
X1740141Y-15385505D02*
X1739029Y-15366143D01*
X1739029Y-15366143D02*
X1738213Y-15346224D01*
X1738213Y-15346224D02*
X1737734Y-15326698D01*
X1737734Y-15326698D02*
X1737571Y-15306857D01*
X13699403Y-16491108D02*
X2921826Y-16491108D01*
X14172885Y-16538923D02*
X14155069Y-16535357D01*
X14155069Y-16535357D02*
X14137915Y-16532059D01*
X14137915Y-16532059D02*
X14120855Y-16528909D01*
X14120855Y-16528909D02*
X14103775Y-16525884D01*
X14103775Y-16525884D02*
X14086331Y-16522928D01*
X14086331Y-16522928D02*
X14069097Y-16520139D01*
X14069097Y-16520139D02*
X14051385Y-16517408D01*
X14051385Y-16517408D02*
X14033769Y-16514828D01*
X14033769Y-16514828D02*
X14015675Y-16512318D01*
X14015675Y-16512318D02*
X13996293Y-16509788D01*
X13996293Y-16509788D02*
X13978278Y-16507582D01*
X13978278Y-16507582D02*
X13959092Y-16505386D01*
X13959092Y-16505386D02*
X13940930Y-16503454D01*
X13940930Y-16503454D02*
X13922290Y-16501618D01*
X13922290Y-16501618D02*
X13903521Y-16499919D01*
X13903521Y-16499919D02*
X13884970Y-16498387D01*
X13884970Y-16498387D02*
X13865478Y-16496937D01*
X13865478Y-16496937D02*
X13845974Y-16495647D01*
X13845974Y-16495647D02*
X13826691Y-16494530D01*
X13826691Y-16494530D02*
X13807515Y-16493576D01*
X13807515Y-16493576D02*
X13787282Y-16492738D01*
X13787282Y-16492738D02*
X13767855Y-16492097D01*
X13767855Y-16492097D02*
X13747373Y-16491593D01*
X13747373Y-16491593D02*
X13726885Y-16491267D01*
X13726885Y-16491267D02*
X13706390Y-16491118D01*
X13706390Y-16491118D02*
X13699403Y-16491108D01*
X5394049Y-2169677D02*
X5394049Y-2169677D01*
X2921826Y-2169677D02*
X5394049Y-2169677D01*
X19117707Y-5212163D02*
X20865278Y-5212163D01*
X16806727Y-2169677D02*
X16198949Y-5029050D01*
X8483639Y-2169677D02*
X16806727Y-2169677D01*
X8091874Y-4012746D02*
X8483639Y-2169677D01*
X7474570Y-3881553D02*
X8091874Y-4012746D01*
X6828408Y-6921439D02*
X7474570Y-3881553D01*
X4489698Y-6424332D02*
X6828408Y-6921439D01*
X5394049Y-2169677D02*
X4489698Y-6424332D01*
X20865278Y-16155212D02*
X20865090Y-16176485D01*
X20865090Y-16176485D02*
X20864588Y-16196005D01*
X20864588Y-16196005D02*
X20863748Y-16215918D01*
X20863748Y-16215918D02*
X20862614Y-16235274D01*
X20862614Y-16235274D02*
X20861209Y-16254076D01*
X20861209Y-16254076D02*
X20859513Y-16272796D01*
X20859513Y-16272796D02*
X20857581Y-16290966D01*
X20857581Y-16290966D02*
X20855135Y-16310904D01*
X20855135Y-16310904D02*
X20852564Y-16329357D01*
X20852564Y-16329357D02*
X20849860Y-16346803D01*
X20849860Y-16346803D02*
X20846903Y-16364164D01*
X20846903Y-16364164D02*
X20843695Y-16381438D01*
X20843695Y-16381438D02*
X20840332Y-16398172D01*
X20840332Y-16398172D02*
X20836735Y-16414820D01*
X20836735Y-16414820D02*
X20832905Y-16431381D01*
X20832905Y-16431381D02*
X20828733Y-16448295D01*
X20828733Y-16448295D02*
X20824556Y-16464231D01*
X20824556Y-16464231D02*
X20819915Y-16480956D01*
X20819915Y-16480956D02*
X20815299Y-16496708D01*
X20815299Y-16496708D02*
X20810471Y-16512369D01*
X20810471Y-16512369D02*
X20805577Y-16527506D01*
X20805577Y-16527506D02*
X20800485Y-16542553D01*
X20800485Y-16542553D02*
X20795198Y-16557508D01*
X20795198Y-16557508D02*
X20789558Y-16572795D01*
X20789558Y-16572795D02*
X20783879Y-16587561D01*
X20783879Y-16587561D02*
X20778009Y-16602231D01*
X20778009Y-16602231D02*
X20771951Y-16616804D01*
X20771951Y-16616804D02*
X20765885Y-16630866D01*
X20765885Y-16630866D02*
X20759644Y-16644833D01*
X20759644Y-16644833D02*
X20753229Y-16658704D01*
X20753229Y-16658704D02*
X20746248Y-16673285D01*
X20746248Y-16673285D02*
X20739478Y-16686954D01*
X20739478Y-16686954D02*
X20732124Y-16701318D01*
X20732124Y-16701318D02*
X20724582Y-16715567D01*
X20724582Y-16715567D02*
X20717286Y-16728919D01*
X20717286Y-16728919D02*
X20709381Y-16742942D01*
X20709381Y-16742942D02*
X20701745Y-16756077D01*
X20701745Y-16756077D02*
X20693948Y-16769104D01*
X20693948Y-16769104D02*
X20686224Y-16781644D01*
X20686224Y-16781644D02*
X20678109Y-16794455D01*
X20678109Y-16794455D02*
X20669590Y-16807526D01*
X20669590Y-16807526D02*
X20661404Y-16819741D01*
X20661404Y-16819741D02*
X20653072Y-16831848D01*
X20653072Y-16831848D02*
X20644076Y-16844569D01*
X20644076Y-16844569D02*
X20635445Y-16856449D01*
X20635445Y-16856449D02*
X20626671Y-16868218D01*
X20626671Y-16868218D02*
X20617756Y-16879874D01*
X20617756Y-16879874D02*
X20607592Y-16892807D01*
X20607592Y-16892807D02*
X20598380Y-16904219D01*
X20598380Y-16904219D02*
X20588745Y-16915854D01*
X20588745Y-16915854D02*
X20578095Y-16928373D01*
X20578095Y-16928373D02*
X20568748Y-16939079D01*
X20568748Y-16939079D02*
X20559275Y-16949672D01*
X20559275Y-16949672D02*
X20549676Y-16960149D01*
X20549676Y-16960149D02*
X20539955Y-16970510D01*
X20539955Y-16970510D02*
X20530111Y-16980755D01*
X20530111Y-16980755D02*
X20518579Y-16992452D01*
X20518579Y-16992452D02*
X20508475Y-17002439D01*
X20508475Y-17002439D02*
X20498253Y-17012306D01*
X20498253Y-17012306D02*
X20487914Y-17022050D01*
X20487914Y-17022050D02*
X20476472Y-17032567D01*
X20476472Y-17032567D02*
X20465890Y-17042052D01*
X20465890Y-17042052D02*
X20455194Y-17051411D01*
X20455194Y-17051411D02*
X20444386Y-17060644D01*
X20444386Y-17060644D02*
X20433123Y-17070031D01*
X20433123Y-17070031D02*
X20422090Y-17079002D01*
X20422090Y-17079002D02*
X20410597Y-17088117D01*
X20410597Y-17088117D02*
X20398283Y-17097632D01*
X20398283Y-17097632D02*
X20386197Y-17106723D01*
X20386197Y-17106723D02*
X20373993Y-17115662D01*
X20373993Y-17115662D02*
X20361672Y-17124449D01*
X20361672Y-17124449D02*
X20349234Y-17133082D01*
X20349234Y-17133082D02*
X20336681Y-17141559D01*
X20336681Y-17141559D02*
X20324388Y-17149636D01*
X20324388Y-17149636D02*
X20311990Y-17157565D01*
X20311990Y-17157565D02*
X20298347Y-17166043D01*
X20298347Y-17166043D02*
X20285348Y-17173884D01*
X20285348Y-17173884D02*
X20272242Y-17181562D01*
X20272242Y-17181562D02*
X20259419Y-17188858D01*
X20259419Y-17188858D02*
X20246497Y-17195998D01*
X20246497Y-17195998D02*
X20233477Y-17202982D01*
X20233477Y-17202982D02*
X20219563Y-17210215D01*
X20219563Y-17210215D02*
X20205944Y-17217071D01*
X20205944Y-17217071D02*
X20192226Y-17223755D01*
X20192226Y-17223755D02*
X20178409Y-17230267D01*
X20178409Y-17230267D02*
X20164495Y-17236606D01*
X20164495Y-17236606D02*
X20150486Y-17242769D01*
X20150486Y-17242769D02*
X20136382Y-17248757D01*
X20136382Y-17248757D02*
X20120929Y-17255070D01*
X20120929Y-17255070D02*
X20106212Y-17260847D01*
X20106212Y-17260847D02*
X20090976Y-17266589D01*
X20090976Y-17266589D02*
X20075640Y-17272127D01*
X20075640Y-17272127D02*
X20059777Y-17277605D01*
X20059777Y-17277605D02*
X20043814Y-17282863D01*
X20043814Y-17282863D02*
X20028186Y-17287766D01*
X20028186Y-17287766D02*
X20011590Y-17292713D01*
X20011590Y-17292713D02*
X19995775Y-17297182D01*
X19995775Y-17297182D02*
X19979871Y-17301436D01*
X19979871Y-17301436D02*
X19963880Y-17305473D01*
X19963880Y-17305473D02*
X19946012Y-17309704D01*
X19946012Y-17309704D02*
X19928942Y-17313473D01*
X19928942Y-17313473D02*
X19911327Y-17317084D01*
X19911327Y-17317084D02*
X19894074Y-17320352D01*
X19894074Y-17320352D02*
X19876734Y-17323368D01*
X19876734Y-17323368D02*
X19857929Y-17326340D01*
X19857929Y-17326340D02*
X19840413Y-17328829D01*
X19840413Y-17328829D02*
X19822351Y-17331118D01*
X19822351Y-17331118D02*
X19803740Y-17333182D01*
X19803740Y-17333182D02*
X19785044Y-17334958D01*
X19785044Y-17334958D02*
X19765322Y-17336509D01*
X19765322Y-17336509D02*
X19746457Y-17337686D01*
X19746457Y-17337686D02*
X19727039Y-17338586D01*
X19727039Y-17338586D02*
X19707541Y-17339172D01*
X19707541Y-17339172D02*
X19687486Y-17339446D01*
X19687486Y-17339446D02*
X19681023Y-17339464D01*
X20865278Y-5212163D02*
X20865278Y-16155212D01*
X17946112Y-2169677D02*
X19824970Y-2169677D01*
X17289077Y-5260761D02*
X17946112Y-2169677D01*
X16198949Y-5029050D02*
X17289077Y-5260761D01*
D11*
X20165764Y-16403516D02*
X20380764Y-16618516D01*
X20380764Y-16403516D02*
X20165764Y-16618516D01*
X2210504Y-2677356D02*
X2425504Y-2892356D01*
X2425504Y-2677356D02*
X2210504Y-2892356D01*
X20165256Y-2678372D02*
X20380256Y-2893372D01*
X20380256Y-2678372D02*
X20165256Y-2893372D01*
X20165256Y-10126668D02*
X20380256Y-10341668D01*
X20380256Y-10126668D02*
X20165256Y-10341668D01*
X2209996Y-15765468D02*
X2424996Y-15980468D01*
X2424996Y-15765468D02*
X2209996Y-15980468D01*
D12*
X2014000Y-17815178D02*
X2014000Y-17515178D01*
X2085428Y-17515178D01*
X2128286Y-17529464D01*
X2156857Y-17558035D01*
X2171143Y-17586606D01*
X2185429Y-17643749D01*
X2185429Y-17686606D01*
X2171143Y-17743749D01*
X2156857Y-17772321D01*
X2128286Y-17800892D01*
X2085428Y-17815178D01*
X2014000Y-17815178D01*
X2314000Y-17815178D02*
X2314000Y-17615178D01*
X2314000Y-17672321D02*
X2328286Y-17643749D01*
X2342571Y-17629464D01*
X2371143Y-17615178D01*
X2399714Y-17615178D01*
X2499714Y-17815178D02*
X2499714Y-17615178D01*
X2499714Y-17515178D02*
X2485429Y-17529464D01*
X2499714Y-17543749D01*
X2514000Y-17529464D01*
X2499714Y-17515178D01*
X2499714Y-17543749D01*
X2685429Y-17815178D02*
X2656857Y-17800892D01*
X2642571Y-17772321D01*
X2642571Y-17515178D01*
X2842571Y-17815178D02*
X2814000Y-17800892D01*
X2799714Y-17772321D01*
X2799714Y-17515178D01*
X3185428Y-17815178D02*
X3185428Y-17515178D01*
X3285428Y-17729464D01*
X3385428Y-17515178D01*
X3385428Y-17815178D01*
X3656857Y-17815178D02*
X3656857Y-17658035D01*
X3642571Y-17629464D01*
X3614000Y-17615178D01*
X3556857Y-17615178D01*
X3528286Y-17629464D01*
X3656857Y-17800892D02*
X3628286Y-17815178D01*
X3556857Y-17815178D01*
X3528286Y-17800892D01*
X3514000Y-17772321D01*
X3514000Y-17743749D01*
X3528286Y-17715178D01*
X3556857Y-17700892D01*
X3628286Y-17700892D01*
X3656857Y-17686606D01*
X3799714Y-17615178D02*
X3799714Y-17915178D01*
X3799714Y-17629464D02*
X3828286Y-17615178D01*
X3885428Y-17615178D01*
X3914000Y-17629464D01*
X3928286Y-17643749D01*
X3942571Y-17672321D01*
X3942571Y-17758035D01*
X3928286Y-17786606D01*
X3914000Y-17800892D01*
X3885428Y-17815178D01*
X3828286Y-17815178D01*
X3799714Y-17800892D01*
X4071143Y-17786606D02*
X4085428Y-17800892D01*
X4071143Y-17815178D01*
X4056857Y-17800892D01*
X4071143Y-17786606D01*
X4071143Y-17815178D01*
X4071143Y-17629464D02*
X4085428Y-17643749D01*
X4071143Y-17658035D01*
X4056857Y-17643749D01*
X4071143Y-17629464D01*
X4071143Y-17658035D01*
X1512571Y-18201964D02*
X1727571Y-18416964D01*
X1727571Y-18201964D02*
X1512571Y-18416964D01*
X1999714Y-18173749D02*
X2014000Y-18159464D01*
X2042571Y-18145178D01*
X2114000Y-18145178D01*
X2142571Y-18159464D01*
X2156857Y-18173749D01*
X2171143Y-18202321D01*
X2171143Y-18230892D01*
X2156857Y-18273749D01*
X1985428Y-18445178D01*
X2171143Y-18445178D01*
X2299714Y-18416606D02*
X2314000Y-18430892D01*
X2299714Y-18445178D01*
X2285429Y-18430892D01*
X2299714Y-18416606D01*
X2299714Y-18445178D01*
X2599714Y-18445178D02*
X2428286Y-18445178D01*
X2514000Y-18445178D02*
X2514000Y-18145178D01*
X2485429Y-18188035D01*
X2456857Y-18216606D01*
X2428286Y-18230892D01*
X2871143Y-18145178D02*
X2728286Y-18145178D01*
X2714000Y-18288035D01*
X2728286Y-18273749D01*
X2756857Y-18259464D01*
X2828286Y-18259464D01*
X2856857Y-18273749D01*
X2871143Y-18288035D01*
X2885428Y-18316606D01*
X2885428Y-18388035D01*
X2871143Y-18416606D01*
X2856857Y-18430892D01*
X2828286Y-18445178D01*
X2756857Y-18445178D01*
X2728286Y-18430892D01*
X2714000Y-18416606D01*
X3014000Y-18445178D02*
X3014000Y-18245178D01*
X3014000Y-18273749D02*
X3028286Y-18259464D01*
X3056857Y-18245178D01*
X3099714Y-18245178D01*
X3128286Y-18259464D01*
X3142571Y-18288035D01*
X3142571Y-18445178D01*
X3142571Y-18288035D02*
X3156857Y-18259464D01*
X3185428Y-18245178D01*
X3228286Y-18245178D01*
X3256857Y-18259464D01*
X3271143Y-18288035D01*
X3271143Y-18445178D01*
X3414000Y-18445178D02*
X3414000Y-18245178D01*
X3414000Y-18273749D02*
X3428286Y-18259464D01*
X3456857Y-18245178D01*
X3499714Y-18245178D01*
X3528286Y-18259464D01*
X3542571Y-18288035D01*
X3542571Y-18445178D01*
X3542571Y-18288035D02*
X3556857Y-18259464D01*
X3585428Y-18245178D01*
X3628286Y-18245178D01*
X3656857Y-18259464D01*
X3671143Y-18288035D01*
X3671143Y-18445178D01*
X4256857Y-18130892D02*
X3999714Y-18516606D01*
X4642571Y-18145178D02*
X4671143Y-18145178D01*
X4699714Y-18159464D01*
X4714000Y-18173749D01*
X4728286Y-18202321D01*
X4742571Y-18259464D01*
X4742571Y-18330892D01*
X4728286Y-18388035D01*
X4714000Y-18416606D01*
X4699714Y-18430892D01*
X4671143Y-18445178D01*
X4642571Y-18445178D01*
X4614000Y-18430892D01*
X4599714Y-18416606D01*
X4585429Y-18388035D01*
X4571143Y-18330892D01*
X4571143Y-18259464D01*
X4585429Y-18202321D01*
X4599714Y-18173749D01*
X4614000Y-18159464D01*
X4642571Y-18145178D01*
X4871143Y-18416606D02*
X4885429Y-18430892D01*
X4871143Y-18445178D01*
X4856857Y-18430892D01*
X4871143Y-18416606D01*
X4871143Y-18445178D01*
X5071143Y-18145178D02*
X5099714Y-18145178D01*
X5128286Y-18159464D01*
X5142571Y-18173749D01*
X5156857Y-18202321D01*
X5171143Y-18259464D01*
X5171143Y-18330892D01*
X5156857Y-18388035D01*
X5142571Y-18416606D01*
X5128286Y-18430892D01*
X5099714Y-18445178D01*
X5071143Y-18445178D01*
X5042571Y-18430892D01*
X5028286Y-18416606D01*
X5014000Y-18388035D01*
X4999714Y-18330892D01*
X4999714Y-18259464D01*
X5014000Y-18202321D01*
X5028286Y-18173749D01*
X5042571Y-18159464D01*
X5071143Y-18145178D01*
X5342571Y-18273749D02*
X5314000Y-18259464D01*
X5299714Y-18245178D01*
X5285429Y-18216606D01*
X5285429Y-18202321D01*
X5299714Y-18173749D01*
X5314000Y-18159464D01*
X5342571Y-18145178D01*
X5399714Y-18145178D01*
X5428286Y-18159464D01*
X5442571Y-18173749D01*
X5456857Y-18202321D01*
X5456857Y-18216606D01*
X5442571Y-18245178D01*
X5428286Y-18259464D01*
X5399714Y-18273749D01*
X5342571Y-18273749D01*
X5314000Y-18288035D01*
X5299714Y-18302321D01*
X5285429Y-18330892D01*
X5285429Y-18388035D01*
X5299714Y-18416606D01*
X5314000Y-18430892D01*
X5342571Y-18445178D01*
X5399714Y-18445178D01*
X5428286Y-18430892D01*
X5442571Y-18416606D01*
X5456857Y-18388035D01*
X5456857Y-18330892D01*
X5442571Y-18302321D01*
X5428286Y-18288035D01*
X5399714Y-18273749D01*
X5728286Y-18145178D02*
X5585429Y-18145178D01*
X5571143Y-18288035D01*
X5585429Y-18273749D01*
X5614000Y-18259464D01*
X5685428Y-18259464D01*
X5714000Y-18273749D01*
X5728286Y-18288035D01*
X5742571Y-18316606D01*
X5742571Y-18388035D01*
X5728286Y-18416606D01*
X5714000Y-18430892D01*
X5685428Y-18445178D01*
X5614000Y-18445178D01*
X5585429Y-18430892D01*
X5571143Y-18416606D01*
X5856857Y-18145178D02*
X5856857Y-18202321D01*
X5971143Y-18145178D02*
X5971143Y-18202321D01*
X6414000Y-18559464D02*
X6399714Y-18545178D01*
X6371143Y-18502321D01*
X6356857Y-18473749D01*
X6342571Y-18430892D01*
X6328286Y-18359464D01*
X6328286Y-18302321D01*
X6342571Y-18230892D01*
X6356857Y-18188035D01*
X6371143Y-18159464D01*
X6399714Y-18116606D01*
X6414000Y-18102321D01*
X6671143Y-18145178D02*
X6528286Y-18145178D01*
X6514000Y-18288035D01*
X6528286Y-18273749D01*
X6556857Y-18259464D01*
X6628286Y-18259464D01*
X6656857Y-18273749D01*
X6671143Y-18288035D01*
X6685428Y-18316606D01*
X6685428Y-18388035D01*
X6671143Y-18416606D01*
X6656857Y-18430892D01*
X6628286Y-18445178D01*
X6556857Y-18445178D01*
X6528286Y-18430892D01*
X6514000Y-18416606D01*
X7042571Y-18445178D02*
X7042571Y-18145178D01*
X7171143Y-18445178D02*
X7171143Y-18288035D01*
X7156857Y-18259464D01*
X7128286Y-18245178D01*
X7085428Y-18245178D01*
X7056857Y-18259464D01*
X7042571Y-18273749D01*
X7356857Y-18445178D02*
X7328286Y-18430892D01*
X7314000Y-18416606D01*
X7299714Y-18388035D01*
X7299714Y-18302321D01*
X7314000Y-18273749D01*
X7328286Y-18259464D01*
X7356857Y-18245178D01*
X7399714Y-18245178D01*
X7428286Y-18259464D01*
X7442571Y-18273749D01*
X7456857Y-18302321D01*
X7456857Y-18388035D01*
X7442571Y-18416606D01*
X7428286Y-18430892D01*
X7399714Y-18445178D01*
X7356857Y-18445178D01*
X7628286Y-18445178D02*
X7599714Y-18430892D01*
X7585428Y-18402321D01*
X7585428Y-18145178D01*
X7856857Y-18430892D02*
X7828286Y-18445178D01*
X7771143Y-18445178D01*
X7742571Y-18430892D01*
X7728286Y-18402321D01*
X7728286Y-18288035D01*
X7742571Y-18259464D01*
X7771143Y-18245178D01*
X7828286Y-18245178D01*
X7856857Y-18259464D01*
X7871143Y-18288035D01*
X7871143Y-18316606D01*
X7728286Y-18345178D01*
X7985428Y-18430892D02*
X8014000Y-18445178D01*
X8071143Y-18445178D01*
X8099714Y-18430892D01*
X8114000Y-18402321D01*
X8114000Y-18388035D01*
X8099714Y-18359464D01*
X8071143Y-18345178D01*
X8028286Y-18345178D01*
X7999714Y-18330892D01*
X7985428Y-18302321D01*
X7985428Y-18288035D01*
X7999714Y-18259464D01*
X8028286Y-18245178D01*
X8071143Y-18245178D01*
X8099714Y-18259464D01*
X8214000Y-18559464D02*
X8228286Y-18545178D01*
X8256857Y-18502321D01*
X8271143Y-18473749D01*
X8285428Y-18430892D01*
X8299714Y-18359464D01*
X8299714Y-18302321D01*
X8285428Y-18230892D01*
X8271143Y-18188035D01*
X8256857Y-18159464D01*
X8228286Y-18116606D01*
X8214000Y-18102321D01*
X8756857Y-18559464D02*
X8742571Y-18545178D01*
X8714000Y-18502321D01*
X8699714Y-18473749D01*
X8685429Y-18430892D01*
X8671143Y-18359464D01*
X8671143Y-18302321D01*
X8685429Y-18230892D01*
X8699714Y-18188035D01*
X8714000Y-18159464D01*
X8742571Y-18116606D01*
X8756857Y-18102321D01*
X8871143Y-18245178D02*
X8871143Y-18445178D01*
X8871143Y-18273749D02*
X8885429Y-18259464D01*
X8914000Y-18245178D01*
X8956857Y-18245178D01*
X8985429Y-18259464D01*
X8999714Y-18288035D01*
X8999714Y-18445178D01*
X9185429Y-18445178D02*
X9156857Y-18430892D01*
X9142571Y-18416606D01*
X9128286Y-18388035D01*
X9128286Y-18302321D01*
X9142571Y-18273749D01*
X9156857Y-18259464D01*
X9185429Y-18245178D01*
X9228286Y-18245178D01*
X9256857Y-18259464D01*
X9271143Y-18273749D01*
X9285429Y-18302321D01*
X9285429Y-18388035D01*
X9271143Y-18416606D01*
X9256857Y-18430892D01*
X9228286Y-18445178D01*
X9185429Y-18445178D01*
X9371143Y-18245178D02*
X9485429Y-18245178D01*
X9414000Y-18145178D02*
X9414000Y-18402321D01*
X9428286Y-18430892D01*
X9456857Y-18445178D01*
X9485429Y-18445178D01*
X9814000Y-18245178D02*
X9814000Y-18545178D01*
X9814000Y-18259464D02*
X9842571Y-18245178D01*
X9899714Y-18245178D01*
X9928286Y-18259464D01*
X9942571Y-18273749D01*
X9956857Y-18302321D01*
X9956857Y-18388035D01*
X9942571Y-18416606D01*
X9928286Y-18430892D01*
X9899714Y-18445178D01*
X9842571Y-18445178D01*
X9814000Y-18430892D01*
X10128286Y-18445178D02*
X10099714Y-18430892D01*
X10085429Y-18402321D01*
X10085429Y-18145178D01*
X10371143Y-18445178D02*
X10371143Y-18288035D01*
X10356857Y-18259464D01*
X10328286Y-18245178D01*
X10271143Y-18245178D01*
X10242571Y-18259464D01*
X10371143Y-18430892D02*
X10342571Y-18445178D01*
X10271143Y-18445178D01*
X10242571Y-18430892D01*
X10228286Y-18402321D01*
X10228286Y-18373749D01*
X10242571Y-18345178D01*
X10271143Y-18330892D01*
X10342571Y-18330892D01*
X10371143Y-18316606D01*
X10471143Y-18245178D02*
X10585429Y-18245178D01*
X10514000Y-18145178D02*
X10514000Y-18402321D01*
X10528286Y-18430892D01*
X10556857Y-18445178D01*
X10585429Y-18445178D01*
X10799714Y-18430892D02*
X10771143Y-18445178D01*
X10714000Y-18445178D01*
X10685429Y-18430892D01*
X10671143Y-18402321D01*
X10671143Y-18288035D01*
X10685429Y-18259464D01*
X10714000Y-18245178D01*
X10771143Y-18245178D01*
X10799714Y-18259464D01*
X10814000Y-18288035D01*
X10814000Y-18316606D01*
X10671143Y-18345178D01*
X11071143Y-18445178D02*
X11071143Y-18145178D01*
X11071143Y-18430892D02*
X11042571Y-18445178D01*
X10985429Y-18445178D01*
X10956857Y-18430892D01*
X10942571Y-18416606D01*
X10928286Y-18388035D01*
X10928286Y-18302321D01*
X10942571Y-18273749D01*
X10956857Y-18259464D01*
X10985429Y-18245178D01*
X11042571Y-18245178D01*
X11071143Y-18259464D01*
X11185428Y-18559464D02*
X11199714Y-18545178D01*
X11228286Y-18502321D01*
X11242571Y-18473749D01*
X11256857Y-18430892D01*
X11271143Y-18359464D01*
X11271143Y-18302321D01*
X11256857Y-18230892D01*
X11242571Y-18188035D01*
X11228286Y-18159464D01*
X11199714Y-18116606D01*
X11185428Y-18102321D01*
M02*
