G04 #@! TF.GenerationSoftware,KiCad,Pcbnew,(5.1.5-0-10_14)*
G04 #@! TF.CreationDate,2020-05-14T06:06:27+09:00*
G04 #@! TF.ProjectId,Colice,436f6c69-6365-42e6-9b69-6361645f7063,rev?*
G04 #@! TF.SameCoordinates,Original*
G04 #@! TF.FileFunction,Legend,Bot*
G04 #@! TF.FilePolarity,Positive*
%FSLAX46Y46*%
G04 Gerber Fmt 4.6, Leading zero omitted, Abs format (unit mm)*
G04 Created by KiCad (PCBNEW (5.1.5-0-10_14)) date 2020-05-14 06:06:27*
%MOMM*%
%LPD*%
G04 APERTURE LIST*
%ADD10C,0.150000*%
%ADD11C,0.120000*%
%ADD12C,0.125000*%
G04 APERTURE END LIST*
D10*
X109074000Y-51054000D02*
X109974000Y-50554000D01*
X109974000Y-50554000D02*
X109974000Y-51554000D01*
X109974000Y-51554000D02*
X109074000Y-51054000D01*
X108974000Y-50554000D02*
X108974000Y-51554000D01*
X112174000Y-50304000D02*
X106774000Y-50304000D01*
X106774000Y-50304000D02*
X106774000Y-51804000D01*
X106774000Y-51804000D02*
X112174000Y-51804000D01*
X112174000Y-51804000D02*
X112174000Y-50304000D01*
X167546000Y-130594800D02*
X167546000Y-129094800D01*
X162146000Y-130594800D02*
X167546000Y-130594800D01*
X162146000Y-129094800D02*
X162146000Y-130594800D01*
X167546000Y-129094800D02*
X162146000Y-129094800D01*
X164346000Y-129344800D02*
X164346000Y-130344800D01*
X165346000Y-130344800D02*
X164446000Y-129844800D01*
X165346000Y-129344800D02*
X165346000Y-130344800D01*
X164446000Y-129844800D02*
X165346000Y-129344800D01*
D11*
X70624800Y-61701400D02*
X67224800Y-61701400D01*
X72264800Y-61701400D02*
X71724800Y-61701400D01*
X66124800Y-61701400D02*
X65584800Y-61701400D01*
X65584800Y-61701400D02*
X65584800Y-61931400D01*
X72784800Y-58031400D02*
X72784800Y-61931400D01*
X65064800Y-58031400D02*
X65064800Y-61931400D01*
X72784800Y-58031400D02*
X65064800Y-58031400D01*
X72264800Y-61701400D02*
X72264800Y-61931400D01*
D10*
X190406000Y-128004000D02*
X190406000Y-126504000D01*
X185006000Y-128004000D02*
X190406000Y-128004000D01*
X185006000Y-126504000D02*
X185006000Y-128004000D01*
X190406000Y-126504000D02*
X185006000Y-126504000D01*
X187206000Y-126754000D02*
X187206000Y-127754000D01*
X188206000Y-127754000D02*
X187306000Y-127254000D01*
X188206000Y-126754000D02*
X188206000Y-127754000D01*
X187306000Y-127254000D02*
X188206000Y-126754000D01*
X132334000Y-83204000D02*
X131834000Y-82304000D01*
X131834000Y-82304000D02*
X132834000Y-82304000D01*
X132834000Y-82304000D02*
X132334000Y-83204000D01*
X131834000Y-83304000D02*
X132834000Y-83304000D01*
X131584000Y-80104000D02*
X131584000Y-85504000D01*
X131584000Y-85504000D02*
X133084000Y-85504000D01*
X133084000Y-85504000D02*
X133084000Y-80104000D01*
X133084000Y-80104000D02*
X131584000Y-80104000D01*
X140316000Y-51308000D02*
X141216000Y-50808000D01*
X141216000Y-50808000D02*
X141216000Y-51808000D01*
X141216000Y-51808000D02*
X140316000Y-51308000D01*
X140216000Y-50808000D02*
X140216000Y-51808000D01*
X143416000Y-50558000D02*
X138016000Y-50558000D01*
X138016000Y-50558000D02*
X138016000Y-52058000D01*
X138016000Y-52058000D02*
X143416000Y-52058000D01*
X143416000Y-52058000D02*
X143416000Y-50558000D01*
X140062000Y-70358000D02*
X140962000Y-69858000D01*
X140962000Y-69858000D02*
X140962000Y-70858000D01*
X140962000Y-70858000D02*
X140062000Y-70358000D01*
X139962000Y-69858000D02*
X139962000Y-70858000D01*
X143162000Y-69608000D02*
X137762000Y-69608000D01*
X137762000Y-69608000D02*
X137762000Y-71108000D01*
X137762000Y-71108000D02*
X143162000Y-71108000D01*
X143162000Y-71108000D02*
X143162000Y-69608000D01*
X140062000Y-89408000D02*
X140962000Y-88908000D01*
X140962000Y-88908000D02*
X140962000Y-89908000D01*
X140962000Y-89908000D02*
X140062000Y-89408000D01*
X139962000Y-88908000D02*
X139962000Y-89908000D01*
X143162000Y-88658000D02*
X137762000Y-88658000D01*
X137762000Y-88658000D02*
X137762000Y-90158000D01*
X137762000Y-90158000D02*
X143162000Y-90158000D01*
X143162000Y-90158000D02*
X143162000Y-88658000D01*
X143162000Y-109208000D02*
X143162000Y-107708000D01*
X137762000Y-109208000D02*
X143162000Y-109208000D01*
X137762000Y-107708000D02*
X137762000Y-109208000D01*
X143162000Y-107708000D02*
X137762000Y-107708000D01*
X139962000Y-107958000D02*
X139962000Y-108958000D01*
X140962000Y-108958000D02*
X140062000Y-108458000D01*
X140962000Y-107958000D02*
X140962000Y-108958000D01*
X140062000Y-108458000D02*
X140962000Y-107958000D01*
X153068000Y-128258000D02*
X153068000Y-126758000D01*
X147668000Y-128258000D02*
X153068000Y-128258000D01*
X147668000Y-126758000D02*
X147668000Y-128258000D01*
X153068000Y-126758000D02*
X147668000Y-126758000D01*
X149868000Y-127008000D02*
X149868000Y-128008000D01*
X150868000Y-128008000D02*
X149968000Y-127508000D01*
X150868000Y-127008000D02*
X150868000Y-128008000D01*
X149968000Y-127508000D02*
X150868000Y-127008000D01*
X75057000Y-114192000D02*
X74557000Y-113292000D01*
X74557000Y-113292000D02*
X75557000Y-113292000D01*
X75557000Y-113292000D02*
X75057000Y-114192000D01*
X74557000Y-114292000D02*
X75557000Y-114292000D01*
X74307000Y-111092000D02*
X74307000Y-116492000D01*
X74307000Y-116492000D02*
X75807000Y-116492000D01*
X75807000Y-116492000D02*
X75807000Y-111092000D01*
X75807000Y-111092000D02*
X74307000Y-111092000D01*
X86012000Y-64758000D02*
X86012000Y-63258000D01*
X80612000Y-64758000D02*
X86012000Y-64758000D01*
X80612000Y-63258000D02*
X80612000Y-64758000D01*
X86012000Y-63258000D02*
X80612000Y-63258000D01*
X82812000Y-63508000D02*
X82812000Y-64508000D01*
X83812000Y-64508000D02*
X82912000Y-64008000D01*
X83812000Y-63508000D02*
X83812000Y-64508000D01*
X82912000Y-64008000D02*
X83812000Y-63508000D01*
X86012000Y-99302000D02*
X86012000Y-97802000D01*
X80612000Y-99302000D02*
X86012000Y-99302000D01*
X80612000Y-97802000D02*
X80612000Y-99302000D01*
X86012000Y-97802000D02*
X80612000Y-97802000D01*
X82812000Y-98052000D02*
X82812000Y-99052000D01*
X83812000Y-99052000D02*
X82912000Y-98552000D01*
X83812000Y-98052000D02*
X83812000Y-99052000D01*
X82912000Y-98552000D02*
X83812000Y-98052000D01*
X86012000Y-102096000D02*
X86012000Y-100596000D01*
X80612000Y-102096000D02*
X86012000Y-102096000D01*
X80612000Y-100596000D02*
X80612000Y-102096000D01*
X86012000Y-100596000D02*
X80612000Y-100596000D01*
X82812000Y-100846000D02*
X82812000Y-101846000D01*
X83812000Y-101846000D02*
X82912000Y-101346000D01*
X83812000Y-100846000D02*
X83812000Y-101846000D01*
X82912000Y-101346000D02*
X83812000Y-100846000D01*
X86266000Y-121146000D02*
X86266000Y-119646000D01*
X80866000Y-121146000D02*
X86266000Y-121146000D01*
X80866000Y-119646000D02*
X80866000Y-121146000D01*
X86266000Y-119646000D02*
X80866000Y-119646000D01*
X83066000Y-119896000D02*
X83066000Y-120896000D01*
X84066000Y-120896000D02*
X83166000Y-120396000D01*
X84066000Y-119896000D02*
X84066000Y-120896000D01*
X83166000Y-120396000D02*
X84066000Y-119896000D01*
X36830000Y-80918000D02*
X36330000Y-80018000D01*
X36330000Y-80018000D02*
X37330000Y-80018000D01*
X37330000Y-80018000D02*
X36830000Y-80918000D01*
X36330000Y-81018000D02*
X37330000Y-81018000D01*
X36080000Y-77818000D02*
X36080000Y-83218000D01*
X36080000Y-83218000D02*
X37580000Y-83218000D01*
X37580000Y-83218000D02*
X37580000Y-77818000D01*
X37580000Y-77818000D02*
X36080000Y-77818000D01*
X48166000Y-68822000D02*
X48166000Y-67322000D01*
X42766000Y-68822000D02*
X48166000Y-68822000D01*
X42766000Y-67322000D02*
X42766000Y-68822000D01*
X48166000Y-67322000D02*
X42766000Y-67322000D01*
X44966000Y-67572000D02*
X44966000Y-68572000D01*
X45966000Y-68572000D02*
X45066000Y-68072000D01*
X45966000Y-67572000D02*
X45966000Y-68572000D01*
X45066000Y-68072000D02*
X45966000Y-67572000D01*
X105062000Y-90158000D02*
X105062000Y-88658000D01*
X99662000Y-90158000D02*
X105062000Y-90158000D01*
X99662000Y-88658000D02*
X99662000Y-90158000D01*
X105062000Y-88658000D02*
X99662000Y-88658000D01*
X101862000Y-88908000D02*
X101862000Y-89908000D01*
X102862000Y-89908000D02*
X101962000Y-89408000D01*
X102862000Y-88908000D02*
X102862000Y-89908000D01*
X101962000Y-89408000D02*
X102862000Y-88908000D01*
X105062000Y-109208000D02*
X105062000Y-107708000D01*
X99662000Y-109208000D02*
X105062000Y-109208000D01*
X99662000Y-107708000D02*
X99662000Y-109208000D01*
X105062000Y-107708000D02*
X99662000Y-107708000D01*
X101862000Y-107958000D02*
X101862000Y-108958000D01*
X102862000Y-108958000D02*
X101962000Y-108458000D01*
X102862000Y-107958000D02*
X102862000Y-108958000D01*
X101962000Y-108458000D02*
X102862000Y-107958000D01*
X56898932Y-148762249D02*
X56587065Y-147295028D01*
X51616935Y-149884972D02*
X56898932Y-148762249D01*
X51305068Y-148417751D02*
X51616935Y-149884972D01*
X56587065Y-147295028D02*
X51305068Y-148417751D01*
X53508970Y-148204882D02*
X53716882Y-149183030D01*
X54695030Y-148975118D02*
X53710741Y-148673165D01*
X54487118Y-147996970D02*
X54695030Y-148975118D01*
X53710741Y-148673165D02*
X54487118Y-147996970D01*
X94234000Y-86506000D02*
X93734000Y-85606000D01*
X93734000Y-85606000D02*
X94734000Y-85606000D01*
X94734000Y-85606000D02*
X94234000Y-86506000D01*
X93734000Y-86606000D02*
X94734000Y-86606000D01*
X93484000Y-83406000D02*
X93484000Y-88806000D01*
X93484000Y-88806000D02*
X94984000Y-88806000D01*
X94984000Y-88806000D02*
X94984000Y-83406000D01*
X94984000Y-83406000D02*
X93484000Y-83406000D01*
X101962000Y-70358000D02*
X102862000Y-69858000D01*
X102862000Y-69858000D02*
X102862000Y-70858000D01*
X102862000Y-70858000D02*
X101962000Y-70358000D01*
X101862000Y-69858000D02*
X101862000Y-70858000D01*
X105062000Y-69608000D02*
X99662000Y-69608000D01*
X99662000Y-69608000D02*
X99662000Y-71108000D01*
X99662000Y-71108000D02*
X105062000Y-71108000D01*
X105062000Y-71108000D02*
X105062000Y-69608000D01*
X121012000Y-105918000D02*
X121912000Y-105418000D01*
X121912000Y-105418000D02*
X121912000Y-106418000D01*
X121912000Y-106418000D02*
X121012000Y-105918000D01*
X120912000Y-105418000D02*
X120912000Y-106418000D01*
X124112000Y-105168000D02*
X118712000Y-105168000D01*
X118712000Y-105168000D02*
X118712000Y-106668000D01*
X118712000Y-106668000D02*
X124112000Y-106668000D01*
X124112000Y-106668000D02*
X124112000Y-105168000D01*
X113900000Y-129794000D02*
X114800000Y-129294000D01*
X114800000Y-129294000D02*
X114800000Y-130294000D01*
X114800000Y-130294000D02*
X113900000Y-129794000D01*
X113800000Y-129294000D02*
X113800000Y-130294000D01*
X117000000Y-129044000D02*
X111600000Y-129044000D01*
X111600000Y-129044000D02*
X111600000Y-130544000D01*
X111600000Y-130544000D02*
X117000000Y-130544000D01*
X117000000Y-130544000D02*
X117000000Y-129044000D01*
X113030000Y-81045000D02*
X112530000Y-80145000D01*
X112530000Y-80145000D02*
X113530000Y-80145000D01*
X113530000Y-80145000D02*
X113030000Y-81045000D01*
X112530000Y-81145000D02*
X113530000Y-81145000D01*
X112280000Y-77945000D02*
X112280000Y-83345000D01*
X112280000Y-83345000D02*
X113780000Y-83345000D01*
X113780000Y-83345000D02*
X113780000Y-77945000D01*
X113780000Y-77945000D02*
X112280000Y-77945000D01*
X125076000Y-48768000D02*
X125976000Y-48268000D01*
X125976000Y-48268000D02*
X125976000Y-49268000D01*
X125976000Y-49268000D02*
X125076000Y-48768000D01*
X124976000Y-48268000D02*
X124976000Y-49268000D01*
X128176000Y-48018000D02*
X122776000Y-48018000D01*
X122776000Y-48018000D02*
X122776000Y-49518000D01*
X122776000Y-49518000D02*
X128176000Y-49518000D01*
X128176000Y-49518000D02*
X128176000Y-48018000D01*
X121266000Y-68072000D02*
X122166000Y-67572000D01*
X122166000Y-67572000D02*
X122166000Y-68572000D01*
X122166000Y-68572000D02*
X121266000Y-68072000D01*
X121166000Y-67572000D02*
X121166000Y-68572000D01*
X124366000Y-67322000D02*
X118966000Y-67322000D01*
X118966000Y-67322000D02*
X118966000Y-68822000D01*
X118966000Y-68822000D02*
X124366000Y-68822000D01*
X124366000Y-68822000D02*
X124366000Y-67322000D01*
X121012000Y-87122000D02*
X121912000Y-86622000D01*
X121912000Y-86622000D02*
X121912000Y-87622000D01*
X121912000Y-87622000D02*
X121012000Y-87122000D01*
X120912000Y-86622000D02*
X120912000Y-87622000D01*
X124112000Y-86372000D02*
X118712000Y-86372000D01*
X118712000Y-86372000D02*
X118712000Y-87872000D01*
X118712000Y-87872000D02*
X124112000Y-87872000D01*
X124112000Y-87872000D02*
X124112000Y-86372000D01*
X137776000Y-129794000D02*
X138676000Y-129294000D01*
X138676000Y-129294000D02*
X138676000Y-130294000D01*
X138676000Y-130294000D02*
X137776000Y-129794000D01*
X137676000Y-129294000D02*
X137676000Y-130294000D01*
X140876000Y-129044000D02*
X135476000Y-129044000D01*
X135476000Y-129044000D02*
X135476000Y-130544000D01*
X135476000Y-130544000D02*
X140876000Y-130544000D01*
X140876000Y-130544000D02*
X140876000Y-129044000D01*
X170930000Y-82390000D02*
X169430000Y-82390000D01*
X170930000Y-87790000D02*
X170930000Y-82390000D01*
X169430000Y-87790000D02*
X170930000Y-87790000D01*
X169430000Y-82390000D02*
X169430000Y-87790000D01*
X169680000Y-85590000D02*
X170680000Y-85590000D01*
X170680000Y-84590000D02*
X170180000Y-85490000D01*
X169680000Y-84590000D02*
X170680000Y-84590000D01*
X170180000Y-85490000D02*
X169680000Y-84590000D01*
X178162000Y-70104000D02*
X179062000Y-69604000D01*
X179062000Y-69604000D02*
X179062000Y-70604000D01*
X179062000Y-70604000D02*
X178162000Y-70104000D01*
X178062000Y-69604000D02*
X178062000Y-70604000D01*
X181262000Y-69354000D02*
X175862000Y-69354000D01*
X175862000Y-69354000D02*
X175862000Y-70854000D01*
X175862000Y-70854000D02*
X181262000Y-70854000D01*
X181262000Y-70854000D02*
X181262000Y-69354000D01*
X178162000Y-72644000D02*
X179062000Y-72144000D01*
X179062000Y-72144000D02*
X179062000Y-73144000D01*
X179062000Y-73144000D02*
X178162000Y-72644000D01*
X178062000Y-72144000D02*
X178062000Y-73144000D01*
X181262000Y-71894000D02*
X175862000Y-71894000D01*
X175862000Y-71894000D02*
X175862000Y-73394000D01*
X175862000Y-73394000D02*
X181262000Y-73394000D01*
X181262000Y-73394000D02*
X181262000Y-71894000D01*
X178162000Y-91694000D02*
X179062000Y-91194000D01*
X179062000Y-91194000D02*
X179062000Y-92194000D01*
X179062000Y-92194000D02*
X178162000Y-91694000D01*
X178062000Y-91194000D02*
X178062000Y-92194000D01*
X181262000Y-90944000D02*
X175862000Y-90944000D01*
X175862000Y-90944000D02*
X175862000Y-92444000D01*
X175862000Y-92444000D02*
X181262000Y-92444000D01*
X181262000Y-92444000D02*
X181262000Y-90944000D01*
X181083000Y-110744000D02*
X181983000Y-110244000D01*
X181983000Y-110244000D02*
X181983000Y-111244000D01*
X181983000Y-111244000D02*
X181083000Y-110744000D01*
X180983000Y-110244000D02*
X180983000Y-111244000D01*
X184183000Y-109994000D02*
X178783000Y-109994000D01*
X178783000Y-109994000D02*
X178783000Y-111494000D01*
X178783000Y-111494000D02*
X184183000Y-111494000D01*
X184183000Y-111494000D02*
X184183000Y-109994000D01*
X47404000Y-102350000D02*
X47404000Y-100850000D01*
X42004000Y-102350000D02*
X47404000Y-102350000D01*
X42004000Y-100850000D02*
X42004000Y-102350000D01*
X47404000Y-100850000D02*
X42004000Y-100850000D01*
X44204000Y-101100000D02*
X44204000Y-102100000D01*
X45204000Y-102100000D02*
X44304000Y-101600000D01*
X45204000Y-101100000D02*
X45204000Y-102100000D01*
X44304000Y-101600000D02*
X45204000Y-101100000D01*
X46228000Y-109874000D02*
X45728000Y-108974000D01*
X45728000Y-108974000D02*
X46728000Y-108974000D01*
X46728000Y-108974000D02*
X46228000Y-109874000D01*
X45728000Y-109974000D02*
X46728000Y-109974000D01*
X45478000Y-106774000D02*
X45478000Y-112174000D01*
X45478000Y-112174000D02*
X46978000Y-112174000D01*
X46978000Y-112174000D02*
X46978000Y-106774000D01*
X46978000Y-106774000D02*
X45478000Y-106774000D01*
X66962000Y-68822000D02*
X66962000Y-67322000D01*
X61562000Y-68822000D02*
X66962000Y-68822000D01*
X61562000Y-67322000D02*
X61562000Y-68822000D01*
X66962000Y-67322000D02*
X61562000Y-67322000D01*
X63762000Y-67572000D02*
X63762000Y-68572000D01*
X64762000Y-68572000D02*
X63862000Y-68072000D01*
X64762000Y-67572000D02*
X64762000Y-68572000D01*
X63862000Y-68072000D02*
X64762000Y-67572000D01*
X62136000Y-87618000D02*
X62136000Y-86118000D01*
X56736000Y-87618000D02*
X62136000Y-87618000D01*
X56736000Y-86118000D02*
X56736000Y-87618000D01*
X62136000Y-86118000D02*
X56736000Y-86118000D01*
X58936000Y-86368000D02*
X58936000Y-87368000D01*
X59936000Y-87368000D02*
X59036000Y-86868000D01*
X59936000Y-86368000D02*
X59936000Y-87368000D01*
X59036000Y-86868000D02*
X59936000Y-86368000D01*
X59850000Y-106668000D02*
X59850000Y-105168000D01*
X54450000Y-106668000D02*
X59850000Y-106668000D01*
X54450000Y-105168000D02*
X54450000Y-106668000D01*
X59850000Y-105168000D02*
X54450000Y-105168000D01*
X56650000Y-105418000D02*
X56650000Y-106418000D01*
X57650000Y-106418000D02*
X56750000Y-105918000D01*
X57650000Y-105418000D02*
X57650000Y-106418000D01*
X56750000Y-105918000D02*
X57650000Y-105418000D01*
X59596000Y-125972000D02*
X59596000Y-124472000D01*
X54196000Y-125972000D02*
X59596000Y-125972000D01*
X54196000Y-124472000D02*
X54196000Y-125972000D01*
X59596000Y-124472000D02*
X54196000Y-124472000D01*
X56396000Y-124722000D02*
X56396000Y-125722000D01*
X57396000Y-125722000D02*
X56496000Y-125222000D01*
X57396000Y-124722000D02*
X57396000Y-125722000D01*
X56496000Y-125222000D02*
X57396000Y-124722000D01*
X77472932Y-144190249D02*
X77161065Y-142723028D01*
X72190935Y-145312972D02*
X77472932Y-144190249D01*
X71879068Y-143845751D02*
X72190935Y-145312972D01*
X77161065Y-142723028D02*
X71879068Y-143845751D01*
X74082970Y-143632882D02*
X74290882Y-144611030D01*
X75269030Y-144403118D02*
X74284741Y-144101165D01*
X75061118Y-143424970D02*
X75269030Y-144403118D01*
X74284741Y-144101165D02*
X75061118Y-143424970D01*
X163736000Y-54344000D02*
X163736000Y-52844000D01*
X158336000Y-54344000D02*
X163736000Y-54344000D01*
X158336000Y-52844000D02*
X158336000Y-54344000D01*
X163736000Y-52844000D02*
X158336000Y-52844000D01*
X160536000Y-53094000D02*
X160536000Y-54094000D01*
X161536000Y-54094000D02*
X160636000Y-53594000D01*
X161536000Y-53094000D02*
X161536000Y-54094000D01*
X160636000Y-53594000D02*
X161536000Y-53094000D01*
X162466000Y-73394000D02*
X162466000Y-71894000D01*
X157066000Y-73394000D02*
X162466000Y-73394000D01*
X157066000Y-71894000D02*
X157066000Y-73394000D01*
X162466000Y-71894000D02*
X157066000Y-71894000D01*
X159266000Y-72144000D02*
X159266000Y-73144000D01*
X160266000Y-73144000D02*
X159366000Y-72644000D01*
X160266000Y-72144000D02*
X160266000Y-73144000D01*
X159366000Y-72644000D02*
X160266000Y-72144000D01*
X162212000Y-92444000D02*
X162212000Y-90944000D01*
X156812000Y-92444000D02*
X162212000Y-92444000D01*
X156812000Y-90944000D02*
X156812000Y-92444000D01*
X162212000Y-90944000D02*
X156812000Y-90944000D01*
X159012000Y-91194000D02*
X159012000Y-92194000D01*
X160012000Y-92194000D02*
X159112000Y-91694000D01*
X160012000Y-91194000D02*
X160012000Y-92194000D01*
X159112000Y-91694000D02*
X160012000Y-91194000D01*
X162212000Y-111494000D02*
X162212000Y-109994000D01*
X156812000Y-111494000D02*
X162212000Y-111494000D01*
X156812000Y-109994000D02*
X156812000Y-111494000D01*
X162212000Y-109994000D02*
X156812000Y-109994000D01*
X159012000Y-110244000D02*
X159012000Y-111244000D01*
X160012000Y-111244000D02*
X159112000Y-110744000D01*
X160012000Y-110244000D02*
X160012000Y-111244000D01*
X159112000Y-110744000D02*
X160012000Y-110244000D01*
D11*
X179176284Y-52299474D02*
X175454665Y-34790632D01*
X175454665Y-34790632D02*
X178056537Y-34237587D01*
X178056537Y-34237587D02*
X181778157Y-51746429D01*
X181778157Y-51746429D02*
X179176284Y-52299474D01*
X181580641Y-50817188D02*
X187449526Y-49569718D01*
X187449526Y-49569718D02*
X187291513Y-48826326D01*
X187291513Y-48826326D02*
X181422628Y-50073796D01*
X181568166Y-50758500D02*
X187437051Y-49511029D01*
X181543216Y-50641122D02*
X187412102Y-49393652D01*
X181518267Y-50523744D02*
X187387153Y-49276274D01*
X181493318Y-50406366D02*
X187362203Y-49158896D01*
X181468368Y-50288989D02*
X187337254Y-49041519D01*
X181443419Y-50171611D02*
X187312304Y-48924141D01*
X178590374Y-51452789D02*
X178978768Y-51370234D01*
X178432361Y-50709397D02*
X178820755Y-50626841D01*
X176171484Y-51966940D02*
X176550097Y-51886464D01*
X176013471Y-51223548D02*
X176392084Y-51143071D01*
X178635714Y-49756290D02*
X181237586Y-49203245D01*
X181052545Y-48332694D02*
X186921430Y-47085223D01*
X186921430Y-47085223D02*
X186763418Y-46341831D01*
X186763418Y-46341831D02*
X180894532Y-47589301D01*
X178062278Y-48968294D02*
X178450672Y-48885739D01*
X177904265Y-48224902D02*
X178292659Y-48142346D01*
X175577783Y-49496390D02*
X176022001Y-49401969D01*
X175419770Y-48752998D02*
X175863988Y-48658576D01*
X178107618Y-47271795D02*
X180709491Y-46718750D01*
X180524449Y-45848199D02*
X186393335Y-44600729D01*
X186393335Y-44600729D02*
X186235322Y-43857336D01*
X186235322Y-43857336D02*
X180366436Y-45104806D01*
X177534182Y-46483799D02*
X177922577Y-46401244D01*
X177376170Y-45740407D02*
X177764564Y-45657852D01*
X175049688Y-47011895D02*
X175493905Y-46917474D01*
X174891675Y-46268503D02*
X175335893Y-46174082D01*
X177579522Y-44787300D02*
X180181395Y-44234255D01*
X179996353Y-43363704D02*
X185865239Y-42116234D01*
X185865239Y-42116234D02*
X185707226Y-41372841D01*
X185707226Y-41372841D02*
X179838341Y-42620312D01*
X177006087Y-43999305D02*
X177394481Y-43916749D01*
X176848074Y-43255912D02*
X177236468Y-43173357D01*
X174521592Y-44527400D02*
X174965810Y-44432979D01*
X174363579Y-43784008D02*
X174807797Y-43689587D01*
X177051427Y-42302805D02*
X179653299Y-41749760D01*
X179468258Y-40879209D02*
X185337143Y-39631739D01*
X185337143Y-39631739D02*
X185179130Y-38888347D01*
X185179130Y-38888347D02*
X179310245Y-40135817D01*
X176477991Y-41514810D02*
X176866385Y-41432254D01*
X176319978Y-40771417D02*
X176708372Y-40688862D01*
X173993496Y-42042905D02*
X174437714Y-41948484D01*
X173835483Y-41299513D02*
X174279701Y-41205092D01*
X176523331Y-39818310D02*
X179125203Y-39265265D01*
X178940162Y-38394714D02*
X184809048Y-37147244D01*
X184809048Y-37147244D02*
X184651035Y-36403852D01*
X184651035Y-36403852D02*
X178782149Y-37651322D01*
X175949895Y-39030315D02*
X176338289Y-38947759D01*
X175791882Y-38286923D02*
X176180277Y-38204367D01*
X173465400Y-39558410D02*
X173909618Y-39463989D01*
X173307388Y-38815018D02*
X173751605Y-38720597D01*
X175995235Y-37333815D02*
X178597108Y-36780770D01*
X178412066Y-35910219D02*
X184280952Y-34662749D01*
X184280952Y-34662749D02*
X184122939Y-33919357D01*
X184122939Y-33919357D02*
X178254053Y-35166827D01*
X175421800Y-36545820D02*
X175810194Y-36463264D01*
X175263787Y-35802428D02*
X175652181Y-35719872D01*
X172937305Y-37073916D02*
X173381523Y-36979494D01*
X172779292Y-36330523D02*
X173223510Y-36236102D01*
X173764487Y-52090074D02*
X174028534Y-53332321D01*
X174028534Y-53332321D02*
X175270782Y-53068273D01*
D10*
X74412000Y-87013000D02*
X75422000Y-87013000D01*
X92212000Y-87013000D02*
X91212000Y-87013000D01*
X74412000Y-86013000D02*
X74412000Y-87013000D01*
X92212000Y-85963000D02*
X92212000Y-87013000D01*
X74412000Y-53963000D02*
X75362000Y-53963000D01*
X92212000Y-53963000D02*
X91212000Y-53963000D01*
X74412000Y-53963000D02*
X74412000Y-54963000D01*
X92212000Y-53963000D02*
X92212000Y-54963000D01*
X87062000Y-51063000D02*
X87062000Y-52363000D01*
X87062000Y-52363000D02*
X79562000Y-52363000D01*
X79562000Y-52363000D02*
X79562000Y-51063000D01*
X79562000Y-51063000D02*
X87062000Y-51063000D01*
X83812000Y-51413000D02*
X82812000Y-51413000D01*
X82812000Y-51413000D02*
X83312000Y-52063000D01*
X83312000Y-52063000D02*
X83812000Y-51413000D01*
X83662000Y-51563000D02*
X82962000Y-51563000D01*
X83562000Y-51713000D02*
X83062000Y-51713000D01*
X83462000Y-51863000D02*
X83162000Y-51863000D01*
X70734323Y-62816161D02*
X70591466Y-62863780D01*
X70353371Y-62863780D01*
X70258133Y-62816161D01*
X70210514Y-62768542D01*
X70162895Y-62673304D01*
X70162895Y-62578066D01*
X70210514Y-62482828D01*
X70258133Y-62435209D01*
X70353371Y-62387590D01*
X70543847Y-62339971D01*
X70639085Y-62292352D01*
X70686704Y-62244733D01*
X70734323Y-62149495D01*
X70734323Y-62054257D01*
X70686704Y-61959019D01*
X70639085Y-61911400D01*
X70543847Y-61863780D01*
X70305752Y-61863780D01*
X70162895Y-61911400D01*
X69829561Y-61863780D02*
X69591466Y-62863780D01*
X69400990Y-62149495D01*
X69210514Y-62863780D01*
X68972419Y-61863780D01*
X68686704Y-61863780D02*
X68067657Y-61863780D01*
X68400990Y-62244733D01*
X68258133Y-62244733D01*
X68162895Y-62292352D01*
X68115276Y-62339971D01*
X68067657Y-62435209D01*
X68067657Y-62673304D01*
X68115276Y-62768542D01*
X68162895Y-62816161D01*
X68258133Y-62863780D01*
X68543847Y-62863780D01*
X68639085Y-62816161D01*
X68686704Y-62768542D01*
X67496228Y-62292352D02*
X67591466Y-62244733D01*
X67639085Y-62197114D01*
X67686704Y-62101876D01*
X67686704Y-62054257D01*
X67639085Y-61959019D01*
X67591466Y-61911400D01*
X67496228Y-61863780D01*
X67305752Y-61863780D01*
X67210514Y-61911400D01*
X67162895Y-61959019D01*
X67115276Y-62054257D01*
X67115276Y-62101876D01*
X67162895Y-62197114D01*
X67210514Y-62244733D01*
X67305752Y-62292352D01*
X67496228Y-62292352D01*
X67591466Y-62339971D01*
X67639085Y-62387590D01*
X67686704Y-62482828D01*
X67686704Y-62673304D01*
X67639085Y-62768542D01*
X67591466Y-62816161D01*
X67496228Y-62863780D01*
X67305752Y-62863780D01*
X67210514Y-62816161D01*
X67162895Y-62768542D01*
X67115276Y-62673304D01*
X67115276Y-62482828D01*
X67162895Y-62387590D01*
X67210514Y-62339971D01*
X67305752Y-62292352D01*
X181222310Y-52265723D02*
X181370819Y-52964400D01*
X181447099Y-53094235D01*
X181560057Y-53167591D01*
X181709693Y-53184468D01*
X181802850Y-53164666D01*
X180452074Y-53451783D02*
X181011016Y-53332976D01*
X180731545Y-53392379D02*
X180523633Y-52414232D01*
X180646492Y-52534166D01*
X180759450Y-52607522D01*
X180862508Y-52634299D01*
D12*
X87844380Y-57423714D02*
X87621047Y-57780857D01*
X87461523Y-57423714D02*
X87461523Y-58173714D01*
X87716761Y-58173714D01*
X87780571Y-58138000D01*
X87812476Y-58102285D01*
X87844380Y-58030857D01*
X87844380Y-57923714D01*
X87812476Y-57852285D01*
X87780571Y-57816571D01*
X87716761Y-57780857D01*
X87461523Y-57780857D01*
X88099619Y-57638000D02*
X88418666Y-57638000D01*
X88035809Y-57423714D02*
X88259142Y-58173714D01*
X88482476Y-57423714D01*
X88642000Y-58173714D02*
X88801523Y-57423714D01*
X88929142Y-57959428D01*
X89056761Y-57423714D01*
X89216285Y-58173714D01*
X87796523Y-60688000D02*
X87732714Y-60723714D01*
X87637000Y-60723714D01*
X87541285Y-60688000D01*
X87477476Y-60616571D01*
X87445571Y-60545142D01*
X87413666Y-60402285D01*
X87413666Y-60295142D01*
X87445571Y-60152285D01*
X87477476Y-60080857D01*
X87541285Y-60009428D01*
X87637000Y-59973714D01*
X87700809Y-59973714D01*
X87796523Y-60009428D01*
X87828428Y-60045142D01*
X87828428Y-60295142D01*
X87700809Y-60295142D01*
X88115571Y-59973714D02*
X88115571Y-60723714D01*
X88498428Y-59973714D01*
X88498428Y-60723714D01*
X88817476Y-59973714D02*
X88817476Y-60723714D01*
X88977000Y-60723714D01*
X89072714Y-60688000D01*
X89136523Y-60616571D01*
X89168428Y-60545142D01*
X89200333Y-60402285D01*
X89200333Y-60295142D01*
X89168428Y-60152285D01*
X89136523Y-60080857D01*
X89072714Y-60009428D01*
X88977000Y-59973714D01*
X88817476Y-59973714D01*
X87940095Y-62523714D02*
X87716761Y-62880857D01*
X87557238Y-62523714D02*
X87557238Y-63273714D01*
X87812476Y-63273714D01*
X87876285Y-63238000D01*
X87908190Y-63202285D01*
X87940095Y-63130857D01*
X87940095Y-63023714D01*
X87908190Y-62952285D01*
X87876285Y-62916571D01*
X87812476Y-62880857D01*
X87557238Y-62880857D01*
X88195333Y-62559428D02*
X88291047Y-62523714D01*
X88450571Y-62523714D01*
X88514380Y-62559428D01*
X88546285Y-62595142D01*
X88578190Y-62666571D01*
X88578190Y-62738000D01*
X88546285Y-62809428D01*
X88514380Y-62845142D01*
X88450571Y-62880857D01*
X88322952Y-62916571D01*
X88259142Y-62952285D01*
X88227238Y-62988000D01*
X88195333Y-63059428D01*
X88195333Y-63130857D01*
X88227238Y-63202285D01*
X88259142Y-63238000D01*
X88322952Y-63273714D01*
X88482476Y-63273714D01*
X88578190Y-63238000D01*
X88769619Y-63273714D02*
X89152476Y-63273714D01*
X88961047Y-62523714D02*
X88961047Y-63273714D01*
X87413666Y-65723714D02*
X87637000Y-64973714D01*
X87860333Y-65723714D01*
X88466523Y-65045142D02*
X88434619Y-65009428D01*
X88338904Y-64973714D01*
X88275095Y-64973714D01*
X88179380Y-65009428D01*
X88115571Y-65080857D01*
X88083666Y-65152285D01*
X88051761Y-65295142D01*
X88051761Y-65402285D01*
X88083666Y-65545142D01*
X88115571Y-65616571D01*
X88179380Y-65688000D01*
X88275095Y-65723714D01*
X88338904Y-65723714D01*
X88434619Y-65688000D01*
X88466523Y-65652285D01*
X89136523Y-65045142D02*
X89104619Y-65009428D01*
X89008904Y-64973714D01*
X88945095Y-64973714D01*
X88849380Y-65009428D01*
X88785571Y-65080857D01*
X88753666Y-65152285D01*
X88721761Y-65295142D01*
X88721761Y-65402285D01*
X88753666Y-65545142D01*
X88785571Y-65616571D01*
X88849380Y-65688000D01*
X88945095Y-65723714D01*
X89008904Y-65723714D01*
X89104619Y-65688000D01*
X89136523Y-65652285D01*
X86271285Y-67888000D02*
X86590333Y-67888000D01*
X86207476Y-67673714D02*
X86430809Y-68423714D01*
X86654142Y-67673714D01*
X86813666Y-68423714D02*
X87228428Y-68423714D01*
X87005095Y-68138000D01*
X87100809Y-68138000D01*
X87164619Y-68102285D01*
X87196523Y-68066571D01*
X87228428Y-67995142D01*
X87228428Y-67816571D01*
X87196523Y-67745142D01*
X87164619Y-67709428D01*
X87100809Y-67673714D01*
X86909380Y-67673714D01*
X86845571Y-67709428D01*
X86813666Y-67745142D01*
X87994142Y-68459428D02*
X87419857Y-67495142D01*
X88440809Y-68066571D02*
X88217476Y-68066571D01*
X88217476Y-67673714D02*
X88217476Y-68423714D01*
X88536523Y-68423714D01*
X89078904Y-68173714D02*
X89078904Y-67673714D01*
X88919380Y-68459428D02*
X88759857Y-67923714D01*
X89174619Y-67923714D01*
X86271285Y-70388000D02*
X86590333Y-70388000D01*
X86207476Y-70173714D02*
X86430809Y-70923714D01*
X86654142Y-70173714D01*
X86845571Y-70852285D02*
X86877476Y-70888000D01*
X86941285Y-70923714D01*
X87100809Y-70923714D01*
X87164619Y-70888000D01*
X87196523Y-70852285D01*
X87228428Y-70780857D01*
X87228428Y-70709428D01*
X87196523Y-70602285D01*
X86813666Y-70173714D01*
X87228428Y-70173714D01*
X87994142Y-70959428D02*
X87419857Y-69995142D01*
X88440809Y-70566571D02*
X88217476Y-70566571D01*
X88217476Y-70173714D02*
X88217476Y-70923714D01*
X88536523Y-70923714D01*
X89110809Y-70923714D02*
X88791761Y-70923714D01*
X88759857Y-70566571D01*
X88791761Y-70602285D01*
X88855571Y-70638000D01*
X89015095Y-70638000D01*
X89078904Y-70602285D01*
X89110809Y-70566571D01*
X89142714Y-70495142D01*
X89142714Y-70316571D01*
X89110809Y-70245142D01*
X89078904Y-70209428D01*
X89015095Y-70173714D01*
X88855571Y-70173714D01*
X88791761Y-70209428D01*
X88759857Y-70245142D01*
X86271285Y-72888000D02*
X86590333Y-72888000D01*
X86207476Y-72673714D02*
X86430809Y-73423714D01*
X86654142Y-72673714D01*
X87228428Y-72673714D02*
X86845571Y-72673714D01*
X87037000Y-72673714D02*
X87037000Y-73423714D01*
X86973190Y-73316571D01*
X86909380Y-73245142D01*
X86845571Y-73209428D01*
X87994142Y-73459428D02*
X87419857Y-72495142D01*
X88440809Y-73066571D02*
X88217476Y-73066571D01*
X88217476Y-72673714D02*
X88217476Y-73423714D01*
X88536523Y-73423714D01*
X89078904Y-73423714D02*
X88951285Y-73423714D01*
X88887476Y-73388000D01*
X88855571Y-73352285D01*
X88791761Y-73245142D01*
X88759857Y-73102285D01*
X88759857Y-72816571D01*
X88791761Y-72745142D01*
X88823666Y-72709428D01*
X88887476Y-72673714D01*
X89015095Y-72673714D01*
X89078904Y-72709428D01*
X89110809Y-72745142D01*
X89142714Y-72816571D01*
X89142714Y-72995142D01*
X89110809Y-73066571D01*
X89078904Y-73102285D01*
X89015095Y-73138000D01*
X88887476Y-73138000D01*
X88823666Y-73102285D01*
X88791761Y-73066571D01*
X88759857Y-72995142D01*
X86271285Y-75438000D02*
X86590333Y-75438000D01*
X86207476Y-75223714D02*
X86430809Y-75973714D01*
X86654142Y-75223714D01*
X87005095Y-75973714D02*
X87068904Y-75973714D01*
X87132714Y-75938000D01*
X87164619Y-75902285D01*
X87196523Y-75830857D01*
X87228428Y-75688000D01*
X87228428Y-75509428D01*
X87196523Y-75366571D01*
X87164619Y-75295142D01*
X87132714Y-75259428D01*
X87068904Y-75223714D01*
X87005095Y-75223714D01*
X86941285Y-75259428D01*
X86909380Y-75295142D01*
X86877476Y-75366571D01*
X86845571Y-75509428D01*
X86845571Y-75688000D01*
X86877476Y-75830857D01*
X86909380Y-75902285D01*
X86941285Y-75938000D01*
X87005095Y-75973714D01*
X87994142Y-76009428D02*
X87419857Y-75045142D01*
X88440809Y-75616571D02*
X88217476Y-75616571D01*
X88217476Y-75223714D02*
X88217476Y-75973714D01*
X88536523Y-75973714D01*
X88727952Y-75973714D02*
X89174619Y-75973714D01*
X88887476Y-75223714D01*
X86574380Y-77773714D02*
X86191523Y-77773714D01*
X86382952Y-77773714D02*
X86382952Y-78523714D01*
X86319142Y-78416571D01*
X86255333Y-78345142D01*
X86191523Y-78309428D01*
X87180571Y-78523714D02*
X86861523Y-78523714D01*
X86829619Y-78166571D01*
X86861523Y-78202285D01*
X86925333Y-78238000D01*
X87084857Y-78238000D01*
X87148666Y-78202285D01*
X87180571Y-78166571D01*
X87212476Y-78095142D01*
X87212476Y-77916571D01*
X87180571Y-77845142D01*
X87148666Y-77809428D01*
X87084857Y-77773714D01*
X86925333Y-77773714D01*
X86861523Y-77809428D01*
X86829619Y-77845142D01*
X87978190Y-78559428D02*
X87403904Y-77595142D01*
X88424857Y-78166571D02*
X88520571Y-78130857D01*
X88552476Y-78095142D01*
X88584380Y-78023714D01*
X88584380Y-77916571D01*
X88552476Y-77845142D01*
X88520571Y-77809428D01*
X88456761Y-77773714D01*
X88201523Y-77773714D01*
X88201523Y-78523714D01*
X88424857Y-78523714D01*
X88488666Y-78488000D01*
X88520571Y-78452285D01*
X88552476Y-78380857D01*
X88552476Y-78309428D01*
X88520571Y-78238000D01*
X88488666Y-78202285D01*
X88424857Y-78166571D01*
X88201523Y-78166571D01*
X89222476Y-77773714D02*
X88839619Y-77773714D01*
X89031047Y-77773714D02*
X89031047Y-78523714D01*
X88967238Y-78416571D01*
X88903428Y-78345142D01*
X88839619Y-78309428D01*
X86574380Y-80323714D02*
X86191523Y-80323714D01*
X86382952Y-80323714D02*
X86382952Y-81073714D01*
X86319142Y-80966571D01*
X86255333Y-80895142D01*
X86191523Y-80859428D01*
X87148666Y-80823714D02*
X87148666Y-80323714D01*
X86989142Y-81109428D02*
X86829619Y-80573714D01*
X87244380Y-80573714D01*
X87978190Y-81109428D02*
X87403904Y-80145142D01*
X88424857Y-80716571D02*
X88520571Y-80680857D01*
X88552476Y-80645142D01*
X88584380Y-80573714D01*
X88584380Y-80466571D01*
X88552476Y-80395142D01*
X88520571Y-80359428D01*
X88456761Y-80323714D01*
X88201523Y-80323714D01*
X88201523Y-81073714D01*
X88424857Y-81073714D01*
X88488666Y-81038000D01*
X88520571Y-81002285D01*
X88552476Y-80930857D01*
X88552476Y-80859428D01*
X88520571Y-80788000D01*
X88488666Y-80752285D01*
X88424857Y-80716571D01*
X88201523Y-80716571D01*
X88807714Y-81073714D02*
X89222476Y-81073714D01*
X88999142Y-80788000D01*
X89094857Y-80788000D01*
X89158666Y-80752285D01*
X89190571Y-80716571D01*
X89222476Y-80645142D01*
X89222476Y-80466571D01*
X89190571Y-80395142D01*
X89158666Y-80359428D01*
X89094857Y-80323714D01*
X88903428Y-80323714D01*
X88839619Y-80359428D01*
X88807714Y-80395142D01*
X86574380Y-85373714D02*
X86191523Y-85373714D01*
X86382952Y-85373714D02*
X86382952Y-86123714D01*
X86319142Y-86016571D01*
X86255333Y-85945142D01*
X86191523Y-85909428D01*
X86989142Y-86123714D02*
X87052952Y-86123714D01*
X87116761Y-86088000D01*
X87148666Y-86052285D01*
X87180571Y-85980857D01*
X87212476Y-85838000D01*
X87212476Y-85659428D01*
X87180571Y-85516571D01*
X87148666Y-85445142D01*
X87116761Y-85409428D01*
X87052952Y-85373714D01*
X86989142Y-85373714D01*
X86925333Y-85409428D01*
X86893428Y-85445142D01*
X86861523Y-85516571D01*
X86829619Y-85659428D01*
X86829619Y-85838000D01*
X86861523Y-85980857D01*
X86893428Y-86052285D01*
X86925333Y-86088000D01*
X86989142Y-86123714D01*
X87978190Y-86159428D02*
X87403904Y-85195142D01*
X88424857Y-85766571D02*
X88520571Y-85730857D01*
X88552476Y-85695142D01*
X88584380Y-85623714D01*
X88584380Y-85516571D01*
X88552476Y-85445142D01*
X88520571Y-85409428D01*
X88456761Y-85373714D01*
X88201523Y-85373714D01*
X88201523Y-86123714D01*
X88424857Y-86123714D01*
X88488666Y-86088000D01*
X88520571Y-86052285D01*
X88552476Y-85980857D01*
X88552476Y-85909428D01*
X88520571Y-85838000D01*
X88488666Y-85802285D01*
X88424857Y-85766571D01*
X88201523Y-85766571D01*
X89158666Y-86123714D02*
X89031047Y-86123714D01*
X88967238Y-86088000D01*
X88935333Y-86052285D01*
X88871523Y-85945142D01*
X88839619Y-85802285D01*
X88839619Y-85516571D01*
X88871523Y-85445142D01*
X88903428Y-85409428D01*
X88967238Y-85373714D01*
X89094857Y-85373714D01*
X89158666Y-85409428D01*
X89190571Y-85445142D01*
X89222476Y-85516571D01*
X89222476Y-85695142D01*
X89190571Y-85766571D01*
X89158666Y-85802285D01*
X89094857Y-85838000D01*
X88967238Y-85838000D01*
X88903428Y-85802285D01*
X88871523Y-85766571D01*
X88839619Y-85695142D01*
X86574380Y-82873714D02*
X86191523Y-82873714D01*
X86382952Y-82873714D02*
X86382952Y-83623714D01*
X86319142Y-83516571D01*
X86255333Y-83445142D01*
X86191523Y-83409428D01*
X87148666Y-83623714D02*
X87021047Y-83623714D01*
X86957238Y-83588000D01*
X86925333Y-83552285D01*
X86861523Y-83445142D01*
X86829619Y-83302285D01*
X86829619Y-83016571D01*
X86861523Y-82945142D01*
X86893428Y-82909428D01*
X86957238Y-82873714D01*
X87084857Y-82873714D01*
X87148666Y-82909428D01*
X87180571Y-82945142D01*
X87212476Y-83016571D01*
X87212476Y-83195142D01*
X87180571Y-83266571D01*
X87148666Y-83302285D01*
X87084857Y-83338000D01*
X86957238Y-83338000D01*
X86893428Y-83302285D01*
X86861523Y-83266571D01*
X86829619Y-83195142D01*
X87978190Y-83659428D02*
X87403904Y-82695142D01*
X88424857Y-83266571D02*
X88520571Y-83230857D01*
X88552476Y-83195142D01*
X88584380Y-83123714D01*
X88584380Y-83016571D01*
X88552476Y-82945142D01*
X88520571Y-82909428D01*
X88456761Y-82873714D01*
X88201523Y-82873714D01*
X88201523Y-83623714D01*
X88424857Y-83623714D01*
X88488666Y-83588000D01*
X88520571Y-83552285D01*
X88552476Y-83480857D01*
X88552476Y-83409428D01*
X88520571Y-83338000D01*
X88488666Y-83302285D01*
X88424857Y-83266571D01*
X88201523Y-83266571D01*
X88839619Y-83552285D02*
X88871523Y-83588000D01*
X88935333Y-83623714D01*
X89094857Y-83623714D01*
X89158666Y-83588000D01*
X89190571Y-83552285D01*
X89222476Y-83480857D01*
X89222476Y-83409428D01*
X89190571Y-83302285D01*
X88807714Y-82873714D01*
X89222476Y-82873714D01*
X77474380Y-80566571D02*
X77697714Y-80566571D01*
X77793428Y-80173714D02*
X77474380Y-80173714D01*
X77474380Y-80923714D01*
X77793428Y-80923714D01*
X78367714Y-80923714D02*
X78240095Y-80923714D01*
X78176285Y-80888000D01*
X78144380Y-80852285D01*
X78080571Y-80745142D01*
X78048666Y-80602285D01*
X78048666Y-80316571D01*
X78080571Y-80245142D01*
X78112476Y-80209428D01*
X78176285Y-80173714D01*
X78303904Y-80173714D01*
X78367714Y-80209428D01*
X78399619Y-80245142D01*
X78431523Y-80316571D01*
X78431523Y-80495142D01*
X78399619Y-80566571D01*
X78367714Y-80602285D01*
X78303904Y-80638000D01*
X78176285Y-80638000D01*
X78112476Y-80602285D01*
X78080571Y-80566571D01*
X78048666Y-80495142D01*
X79197238Y-80959428D02*
X78622952Y-79995142D01*
X79356761Y-80923714D02*
X79803428Y-80923714D01*
X79516285Y-80173714D01*
X77442476Y-77623714D02*
X77442476Y-78373714D01*
X77602000Y-78373714D01*
X77697714Y-78338000D01*
X77761523Y-78266571D01*
X77793428Y-78195142D01*
X77825333Y-78052285D01*
X77825333Y-77945142D01*
X77793428Y-77802285D01*
X77761523Y-77730857D01*
X77697714Y-77659428D01*
X77602000Y-77623714D01*
X77442476Y-77623714D01*
X78048666Y-78373714D02*
X78495333Y-78373714D01*
X78208190Y-77623714D01*
X79229142Y-78409428D02*
X78654857Y-77445142D01*
X79739619Y-78373714D02*
X79612000Y-78373714D01*
X79548190Y-78338000D01*
X79516285Y-78302285D01*
X79452476Y-78195142D01*
X79420571Y-78052285D01*
X79420571Y-77766571D01*
X79452476Y-77695142D01*
X79484380Y-77659428D01*
X79548190Y-77623714D01*
X79675809Y-77623714D01*
X79739619Y-77659428D01*
X79771523Y-77695142D01*
X79803428Y-77766571D01*
X79803428Y-77945142D01*
X79771523Y-78016571D01*
X79739619Y-78052285D01*
X79675809Y-78088000D01*
X79548190Y-78088000D01*
X79484380Y-78052285D01*
X79452476Y-78016571D01*
X79420571Y-77945142D01*
X77846523Y-63288000D02*
X77782714Y-63323714D01*
X77687000Y-63323714D01*
X77591285Y-63288000D01*
X77527476Y-63216571D01*
X77495571Y-63145142D01*
X77463666Y-63002285D01*
X77463666Y-62895142D01*
X77495571Y-62752285D01*
X77527476Y-62680857D01*
X77591285Y-62609428D01*
X77687000Y-62573714D01*
X77750809Y-62573714D01*
X77846523Y-62609428D01*
X77878428Y-62645142D01*
X77878428Y-62895142D01*
X77750809Y-62895142D01*
X78165571Y-62573714D02*
X78165571Y-63323714D01*
X78548428Y-62573714D01*
X78548428Y-63323714D01*
X78867476Y-62573714D02*
X78867476Y-63323714D01*
X79027000Y-63323714D01*
X79122714Y-63288000D01*
X79186523Y-63216571D01*
X79218428Y-63145142D01*
X79250333Y-63002285D01*
X79250333Y-62895142D01*
X79218428Y-62752285D01*
X79186523Y-62680857D01*
X79122714Y-62609428D01*
X79027000Y-62573714D01*
X78867476Y-62573714D01*
X77846523Y-65738000D02*
X77782714Y-65773714D01*
X77687000Y-65773714D01*
X77591285Y-65738000D01*
X77527476Y-65666571D01*
X77495571Y-65595142D01*
X77463666Y-65452285D01*
X77463666Y-65345142D01*
X77495571Y-65202285D01*
X77527476Y-65130857D01*
X77591285Y-65059428D01*
X77687000Y-65023714D01*
X77750809Y-65023714D01*
X77846523Y-65059428D01*
X77878428Y-65095142D01*
X77878428Y-65345142D01*
X77750809Y-65345142D01*
X78165571Y-65023714D02*
X78165571Y-65773714D01*
X78548428Y-65023714D01*
X78548428Y-65773714D01*
X78867476Y-65023714D02*
X78867476Y-65773714D01*
X79027000Y-65773714D01*
X79122714Y-65738000D01*
X79186523Y-65666571D01*
X79218428Y-65595142D01*
X79250333Y-65452285D01*
X79250333Y-65345142D01*
X79218428Y-65202285D01*
X79186523Y-65130857D01*
X79122714Y-65059428D01*
X79027000Y-65023714D01*
X78867476Y-65023714D01*
X77418190Y-57473714D02*
X77418190Y-58223714D01*
X77577714Y-58223714D01*
X77673428Y-58188000D01*
X77737238Y-58116571D01*
X77769142Y-58045142D01*
X77801047Y-57902285D01*
X77801047Y-57795142D01*
X77769142Y-57652285D01*
X77737238Y-57580857D01*
X77673428Y-57509428D01*
X77577714Y-57473714D01*
X77418190Y-57473714D01*
X78024380Y-58223714D02*
X78439142Y-58223714D01*
X78215809Y-57938000D01*
X78311523Y-57938000D01*
X78375333Y-57902285D01*
X78407238Y-57866571D01*
X78439142Y-57795142D01*
X78439142Y-57616571D01*
X78407238Y-57545142D01*
X78375333Y-57509428D01*
X78311523Y-57473714D01*
X78120095Y-57473714D01*
X78056285Y-57509428D01*
X78024380Y-57545142D01*
X79204857Y-58259428D02*
X78630571Y-57295142D01*
X79332476Y-58223714D02*
X79715333Y-58223714D01*
X79523904Y-57473714D02*
X79523904Y-58223714D01*
X79874857Y-58223714D02*
X80321523Y-57473714D01*
X80321523Y-58223714D02*
X79874857Y-57473714D01*
X80704380Y-58223714D02*
X80768190Y-58223714D01*
X80832000Y-58188000D01*
X80863904Y-58152285D01*
X80895809Y-58080857D01*
X80927714Y-57938000D01*
X80927714Y-57759428D01*
X80895809Y-57616571D01*
X80863904Y-57545142D01*
X80832000Y-57509428D01*
X80768190Y-57473714D01*
X80704380Y-57473714D01*
X80640571Y-57509428D01*
X80608666Y-57545142D01*
X80576761Y-57616571D01*
X80544857Y-57759428D01*
X80544857Y-57938000D01*
X80576761Y-58080857D01*
X80608666Y-58152285D01*
X80640571Y-58188000D01*
X80704380Y-58223714D01*
X77442476Y-72523714D02*
X77442476Y-73273714D01*
X77602000Y-73273714D01*
X77697714Y-73238000D01*
X77761523Y-73166571D01*
X77793428Y-73095142D01*
X77825333Y-72952285D01*
X77825333Y-72845142D01*
X77793428Y-72702285D01*
X77761523Y-72630857D01*
X77697714Y-72559428D01*
X77602000Y-72523714D01*
X77442476Y-72523714D01*
X78399619Y-73023714D02*
X78399619Y-72523714D01*
X78240095Y-73309428D02*
X78080571Y-72773714D01*
X78495333Y-72773714D01*
X79229142Y-73309428D02*
X78654857Y-72345142D01*
X79739619Y-73023714D02*
X79739619Y-72523714D01*
X79580095Y-73309428D02*
X79420571Y-72773714D01*
X79835333Y-72773714D01*
X77368428Y-67559428D02*
X77464142Y-67523714D01*
X77623666Y-67523714D01*
X77687476Y-67559428D01*
X77719380Y-67595142D01*
X77751285Y-67666571D01*
X77751285Y-67738000D01*
X77719380Y-67809428D01*
X77687476Y-67845142D01*
X77623666Y-67880857D01*
X77496047Y-67916571D01*
X77432238Y-67952285D01*
X77400333Y-67988000D01*
X77368428Y-68059428D01*
X77368428Y-68130857D01*
X77400333Y-68202285D01*
X77432238Y-68238000D01*
X77496047Y-68273714D01*
X77655571Y-68273714D01*
X77751285Y-68238000D01*
X78038428Y-67523714D02*
X78038428Y-68273714D01*
X78197952Y-68273714D01*
X78293666Y-68238000D01*
X78357476Y-68166571D01*
X78389380Y-68095142D01*
X78421285Y-67952285D01*
X78421285Y-67845142D01*
X78389380Y-67702285D01*
X78357476Y-67630857D01*
X78293666Y-67559428D01*
X78197952Y-67523714D01*
X78038428Y-67523714D01*
X78676523Y-67738000D02*
X78995571Y-67738000D01*
X78612714Y-67523714D02*
X78836047Y-68273714D01*
X79059380Y-67523714D01*
X79761285Y-68309428D02*
X79187000Y-67345142D01*
X79984619Y-67523714D02*
X79984619Y-68273714D01*
X80144142Y-68273714D01*
X80239857Y-68238000D01*
X80303666Y-68166571D01*
X80335571Y-68095142D01*
X80367476Y-67952285D01*
X80367476Y-67845142D01*
X80335571Y-67702285D01*
X80303666Y-67630857D01*
X80239857Y-67559428D01*
X80144142Y-67523714D01*
X79984619Y-67523714D01*
X81005571Y-67523714D02*
X80622714Y-67523714D01*
X80814142Y-67523714D02*
X80814142Y-68273714D01*
X80750333Y-68166571D01*
X80686523Y-68095142D01*
X80622714Y-68059428D01*
X81771285Y-68309428D02*
X81197000Y-67345142D01*
X81962714Y-68202285D02*
X81994619Y-68238000D01*
X82058428Y-68273714D01*
X82217952Y-68273714D01*
X82281761Y-68238000D01*
X82313666Y-68202285D01*
X82345571Y-68130857D01*
X82345571Y-68059428D01*
X82313666Y-67952285D01*
X81930809Y-67523714D01*
X82345571Y-67523714D01*
X77384380Y-70059428D02*
X77480095Y-70023714D01*
X77639619Y-70023714D01*
X77703428Y-70059428D01*
X77735333Y-70095142D01*
X77767238Y-70166571D01*
X77767238Y-70238000D01*
X77735333Y-70309428D01*
X77703428Y-70345142D01*
X77639619Y-70380857D01*
X77512000Y-70416571D01*
X77448190Y-70452285D01*
X77416285Y-70488000D01*
X77384380Y-70559428D01*
X77384380Y-70630857D01*
X77416285Y-70702285D01*
X77448190Y-70738000D01*
X77512000Y-70773714D01*
X77671523Y-70773714D01*
X77767238Y-70738000D01*
X78437238Y-70095142D02*
X78405333Y-70059428D01*
X78309619Y-70023714D01*
X78245809Y-70023714D01*
X78150095Y-70059428D01*
X78086285Y-70130857D01*
X78054380Y-70202285D01*
X78022476Y-70345142D01*
X78022476Y-70452285D01*
X78054380Y-70595142D01*
X78086285Y-70666571D01*
X78150095Y-70738000D01*
X78245809Y-70773714D01*
X78309619Y-70773714D01*
X78405333Y-70738000D01*
X78437238Y-70702285D01*
X79043428Y-70023714D02*
X78724380Y-70023714D01*
X78724380Y-70773714D01*
X79745333Y-70809428D02*
X79171047Y-69845142D01*
X79968666Y-70023714D02*
X79968666Y-70773714D01*
X80128190Y-70773714D01*
X80223904Y-70738000D01*
X80287714Y-70666571D01*
X80319619Y-70595142D01*
X80351523Y-70452285D01*
X80351523Y-70345142D01*
X80319619Y-70202285D01*
X80287714Y-70130857D01*
X80223904Y-70059428D01*
X80128190Y-70023714D01*
X79968666Y-70023714D01*
X80766285Y-70773714D02*
X80830095Y-70773714D01*
X80893904Y-70738000D01*
X80925809Y-70702285D01*
X80957714Y-70630857D01*
X80989619Y-70488000D01*
X80989619Y-70309428D01*
X80957714Y-70166571D01*
X80925809Y-70095142D01*
X80893904Y-70059428D01*
X80830095Y-70023714D01*
X80766285Y-70023714D01*
X80702476Y-70059428D01*
X80670571Y-70095142D01*
X80638666Y-70166571D01*
X80606761Y-70309428D01*
X80606761Y-70488000D01*
X80638666Y-70630857D01*
X80670571Y-70702285D01*
X80702476Y-70738000D01*
X80766285Y-70773714D01*
X81755333Y-70809428D02*
X81181047Y-69845142D01*
X81914857Y-70773714D02*
X82329619Y-70773714D01*
X82106285Y-70488000D01*
X82202000Y-70488000D01*
X82265809Y-70452285D01*
X82297714Y-70416571D01*
X82329619Y-70345142D01*
X82329619Y-70166571D01*
X82297714Y-70095142D01*
X82265809Y-70059428D01*
X82202000Y-70023714D01*
X82010571Y-70023714D01*
X81946761Y-70059428D01*
X81914857Y-70095142D01*
X77825333Y-75145142D02*
X77793428Y-75109428D01*
X77697714Y-75073714D01*
X77633904Y-75073714D01*
X77538190Y-75109428D01*
X77474380Y-75180857D01*
X77442476Y-75252285D01*
X77410571Y-75395142D01*
X77410571Y-75502285D01*
X77442476Y-75645142D01*
X77474380Y-75716571D01*
X77538190Y-75788000D01*
X77633904Y-75823714D01*
X77697714Y-75823714D01*
X77793428Y-75788000D01*
X77825333Y-75752285D01*
X78399619Y-75823714D02*
X78272000Y-75823714D01*
X78208190Y-75788000D01*
X78176285Y-75752285D01*
X78112476Y-75645142D01*
X78080571Y-75502285D01*
X78080571Y-75216571D01*
X78112476Y-75145142D01*
X78144380Y-75109428D01*
X78208190Y-75073714D01*
X78335809Y-75073714D01*
X78399619Y-75109428D01*
X78431523Y-75145142D01*
X78463428Y-75216571D01*
X78463428Y-75395142D01*
X78431523Y-75466571D01*
X78399619Y-75502285D01*
X78335809Y-75538000D01*
X78208190Y-75538000D01*
X78144380Y-75502285D01*
X78112476Y-75466571D01*
X78080571Y-75395142D01*
X79229142Y-75859428D02*
X78654857Y-74895142D01*
X79771523Y-75823714D02*
X79452476Y-75823714D01*
X79420571Y-75466571D01*
X79452476Y-75502285D01*
X79516285Y-75538000D01*
X79675809Y-75538000D01*
X79739619Y-75502285D01*
X79771523Y-75466571D01*
X79803428Y-75395142D01*
X79803428Y-75216571D01*
X79771523Y-75145142D01*
X79739619Y-75109428D01*
X79675809Y-75073714D01*
X79516285Y-75073714D01*
X79452476Y-75109428D01*
X79420571Y-75145142D01*
X77665809Y-85616571D02*
X77761523Y-85580857D01*
X77793428Y-85545142D01*
X77825333Y-85473714D01*
X77825333Y-85366571D01*
X77793428Y-85295142D01*
X77761523Y-85259428D01*
X77697714Y-85223714D01*
X77442476Y-85223714D01*
X77442476Y-85973714D01*
X77665809Y-85973714D01*
X77729619Y-85938000D01*
X77761523Y-85902285D01*
X77793428Y-85830857D01*
X77793428Y-85759428D01*
X77761523Y-85688000D01*
X77729619Y-85652285D01*
X77665809Y-85616571D01*
X77442476Y-85616571D01*
X78431523Y-85973714D02*
X78112476Y-85973714D01*
X78080571Y-85616571D01*
X78112476Y-85652285D01*
X78176285Y-85688000D01*
X78335809Y-85688000D01*
X78399619Y-85652285D01*
X78431523Y-85616571D01*
X78463428Y-85545142D01*
X78463428Y-85366571D01*
X78431523Y-85295142D01*
X78399619Y-85259428D01*
X78335809Y-85223714D01*
X78176285Y-85223714D01*
X78112476Y-85259428D01*
X78080571Y-85295142D01*
X79229142Y-86009428D02*
X78654857Y-85045142D01*
X79484380Y-85223714D02*
X79612000Y-85223714D01*
X79675809Y-85259428D01*
X79707714Y-85295142D01*
X79771523Y-85402285D01*
X79803428Y-85545142D01*
X79803428Y-85830857D01*
X79771523Y-85902285D01*
X79739619Y-85938000D01*
X79675809Y-85973714D01*
X79548190Y-85973714D01*
X79484380Y-85938000D01*
X79452476Y-85902285D01*
X79420571Y-85830857D01*
X79420571Y-85652285D01*
X79452476Y-85580857D01*
X79484380Y-85545142D01*
X79548190Y-85509428D01*
X79675809Y-85509428D01*
X79739619Y-85545142D01*
X79771523Y-85580857D01*
X79803428Y-85652285D01*
X77338428Y-60023714D02*
X77338428Y-60773714D01*
X77497952Y-60773714D01*
X77593666Y-60738000D01*
X77657476Y-60666571D01*
X77689380Y-60595142D01*
X77721285Y-60452285D01*
X77721285Y-60345142D01*
X77689380Y-60202285D01*
X77657476Y-60130857D01*
X77593666Y-60059428D01*
X77497952Y-60023714D01*
X77338428Y-60023714D01*
X77976523Y-60702285D02*
X78008428Y-60738000D01*
X78072238Y-60773714D01*
X78231761Y-60773714D01*
X78295571Y-60738000D01*
X78327476Y-60702285D01*
X78359380Y-60630857D01*
X78359380Y-60559428D01*
X78327476Y-60452285D01*
X77944619Y-60023714D01*
X78359380Y-60023714D01*
X79125095Y-60809428D02*
X78550809Y-59845142D01*
X79731285Y-60023714D02*
X79507952Y-60380857D01*
X79348428Y-60023714D02*
X79348428Y-60773714D01*
X79603666Y-60773714D01*
X79667476Y-60738000D01*
X79699380Y-60702285D01*
X79731285Y-60630857D01*
X79731285Y-60523714D01*
X79699380Y-60452285D01*
X79667476Y-60416571D01*
X79603666Y-60380857D01*
X79348428Y-60380857D01*
X79954619Y-60773714D02*
X80401285Y-60023714D01*
X80401285Y-60773714D02*
X79954619Y-60023714D01*
X81007476Y-60023714D02*
X80624619Y-60023714D01*
X80816047Y-60023714D02*
X80816047Y-60773714D01*
X80752238Y-60666571D01*
X80688428Y-60595142D01*
X80624619Y-60559428D01*
X77665809Y-83116571D02*
X77761523Y-83080857D01*
X77793428Y-83045142D01*
X77825333Y-82973714D01*
X77825333Y-82866571D01*
X77793428Y-82795142D01*
X77761523Y-82759428D01*
X77697714Y-82723714D01*
X77442476Y-82723714D01*
X77442476Y-83473714D01*
X77665809Y-83473714D01*
X77729619Y-83438000D01*
X77761523Y-83402285D01*
X77793428Y-83330857D01*
X77793428Y-83259428D01*
X77761523Y-83188000D01*
X77729619Y-83152285D01*
X77665809Y-83116571D01*
X77442476Y-83116571D01*
X78399619Y-83223714D02*
X78399619Y-82723714D01*
X78240095Y-83509428D02*
X78080571Y-82973714D01*
X78495333Y-82973714D01*
X79229142Y-83509428D02*
X78654857Y-82545142D01*
X79548190Y-83152285D02*
X79484380Y-83188000D01*
X79452476Y-83223714D01*
X79420571Y-83295142D01*
X79420571Y-83330857D01*
X79452476Y-83402285D01*
X79484380Y-83438000D01*
X79548190Y-83473714D01*
X79675809Y-83473714D01*
X79739619Y-83438000D01*
X79771523Y-83402285D01*
X79803428Y-83330857D01*
X79803428Y-83295142D01*
X79771523Y-83223714D01*
X79739619Y-83188000D01*
X79675809Y-83152285D01*
X79548190Y-83152285D01*
X79484380Y-83116571D01*
X79452476Y-83080857D01*
X79420571Y-83009428D01*
X79420571Y-82866571D01*
X79452476Y-82795142D01*
X79484380Y-82759428D01*
X79548190Y-82723714D01*
X79675809Y-82723714D01*
X79739619Y-82759428D01*
X79771523Y-82795142D01*
X79803428Y-82866571D01*
X79803428Y-83009428D01*
X79771523Y-83080857D01*
X79739619Y-83116571D01*
X79675809Y-83152285D01*
D11*
X85808428Y-53652285D02*
X85808428Y-52902285D01*
X85558428Y-53438000D01*
X85308428Y-52902285D01*
X85308428Y-53652285D01*
X84951285Y-53652285D02*
X84951285Y-53152285D01*
X84951285Y-52902285D02*
X84987000Y-52938000D01*
X84951285Y-52973714D01*
X84915571Y-52938000D01*
X84951285Y-52902285D01*
X84951285Y-52973714D01*
X84272714Y-53616571D02*
X84344142Y-53652285D01*
X84487000Y-53652285D01*
X84558428Y-53616571D01*
X84594142Y-53580857D01*
X84629857Y-53509428D01*
X84629857Y-53295142D01*
X84594142Y-53223714D01*
X84558428Y-53188000D01*
X84487000Y-53152285D01*
X84344142Y-53152285D01*
X84272714Y-53188000D01*
X83951285Y-53652285D02*
X83951285Y-53152285D01*
X83951285Y-53295142D02*
X83915571Y-53223714D01*
X83879857Y-53188000D01*
X83808428Y-53152285D01*
X83737000Y-53152285D01*
X83379857Y-53652285D02*
X83451285Y-53616571D01*
X83487000Y-53580857D01*
X83522714Y-53509428D01*
X83522714Y-53295142D01*
X83487000Y-53223714D01*
X83451285Y-53188000D01*
X83379857Y-53152285D01*
X83272714Y-53152285D01*
X83201285Y-53188000D01*
X83165571Y-53223714D01*
X83129857Y-53295142D01*
X83129857Y-53509428D01*
X83165571Y-53580857D01*
X83201285Y-53616571D01*
X83272714Y-53652285D01*
X83379857Y-53652285D01*
X82808428Y-52902285D02*
X82808428Y-53509428D01*
X82772714Y-53580857D01*
X82737000Y-53616571D01*
X82665571Y-53652285D01*
X82522714Y-53652285D01*
X82451285Y-53616571D01*
X82415571Y-53580857D01*
X82379857Y-53509428D01*
X82379857Y-52902285D01*
X82058428Y-53616571D02*
X81951285Y-53652285D01*
X81772714Y-53652285D01*
X81701285Y-53616571D01*
X81665571Y-53580857D01*
X81629857Y-53509428D01*
X81629857Y-53438000D01*
X81665571Y-53366571D01*
X81701285Y-53330857D01*
X81772714Y-53295142D01*
X81915571Y-53259428D01*
X81987000Y-53223714D01*
X82022714Y-53188000D01*
X82058428Y-53116571D01*
X82058428Y-53045142D01*
X82022714Y-52973714D01*
X81987000Y-52938000D01*
X81915571Y-52902285D01*
X81737000Y-52902285D01*
X81629857Y-52938000D01*
X81058428Y-53259428D02*
X80951285Y-53295142D01*
X80915571Y-53330857D01*
X80879857Y-53402285D01*
X80879857Y-53509428D01*
X80915571Y-53580857D01*
X80951285Y-53616571D01*
X81022714Y-53652285D01*
X81308428Y-53652285D01*
X81308428Y-52902285D01*
X81058428Y-52902285D01*
X80987000Y-52938000D01*
X80951285Y-52973714D01*
X80915571Y-53045142D01*
X80915571Y-53116571D01*
X80951285Y-53188000D01*
X80987000Y-53223714D01*
X81058428Y-53259428D01*
X81308428Y-53259428D01*
M02*
