M48
; DRILL file {KiCad (5.1.5-0-10_14)} date 2020 May 14, Thursday 06:06:29
; FORMAT={-:-/ absolute / metric / decimal}
; #@! TF.CreationDate,2020-05-14T06:06:29+09:00
; #@! TF.GenerationSoftware,Kicad,Pcbnew,(5.1.5-0-10_14)
FMAT,2
METRIC
T1C0.400
T2C0.600
T3C0.800
T4C0.813
T5C0.990
T6C1.000
T7C1.300
T8C1.500
T9C2.200
T10C3.000
T11C1.200
T12C1.700
T13C1.750
T14C3.048
T15C3.988
T16C4.000
%
G90
G05
T1
X169.704Y-115.561
X169.704Y-117.485
X186.214Y-113.021
X186.214Y-114.945
X131.604Y-113.18
X131.604Y-115.104
X148.114Y-110.64
X148.114Y-112.564
X112.554Y-53.648
X112.554Y-55.572
X129.064Y-51.108
X129.064Y-53.032
X112.554Y-72.698
X112.554Y-74.622
X129.064Y-70.158
X129.064Y-72.082
X93.504Y-75.08
X93.504Y-77.004
X110.014Y-72.54
X110.014Y-74.464
X79.058Y-155.902
X79.458Y-157.784
X94.679Y-149.985
X95.079Y-151.867
X112.554Y-91.748
X112.554Y-93.672
X129.064Y-89.208
X129.064Y-91.132
X93.504Y-94.13
X93.504Y-96.054
X110.014Y-91.59
X110.014Y-93.514
X93.504Y-113.18
X93.504Y-115.104
X110.014Y-110.64
X110.014Y-112.564
X53.437Y-161.348
X53.837Y-163.23
X69.058Y-155.431
X69.458Y-157.312
X65.787Y-113.411
X66.27Y-112.244
X66.27Y-114.578
X67.437Y-111.761
X67.437Y-115.061
X68.604Y-112.244
X68.604Y-114.578
X69.087Y-113.411
X150.654Y-96.511
X150.654Y-98.435
X167.164Y-93.971
X167.164Y-95.895
X169.704Y-96.511
X169.704Y-98.435
X186.214Y-93.971
X186.214Y-95.895
X167.514Y-104.902
X167.997Y-103.735
X167.997Y-106.069
X169.164Y-103.252
X169.164Y-106.552
X170.331Y-103.735
X170.331Y-106.069
X170.814Y-104.902
X160.179Y-134.611
X160.179Y-136.535
X176.689Y-132.071
X176.689Y-133.995
X169.704Y-77.461
X169.704Y-79.385
X186.214Y-74.921
X186.214Y-76.845
X131.604Y-56.029
X131.604Y-57.953
X148.114Y-53.489
X148.114Y-55.413
X170.974Y-142.231
X170.974Y-144.155
X187.484Y-139.691
X187.484Y-141.615
X48.26Y-129.849
X48.26Y-131.773
X64.77Y-127.309
X64.77Y-129.233
X169.704Y-58.411
X169.704Y-60.335
X186.214Y-55.871
X186.214Y-57.795
X112.554Y-110.798
X112.554Y-112.722
X129.064Y-108.258
X129.064Y-110.182
X150.654Y-77.461
X150.654Y-79.385
X167.164Y-74.921
X167.164Y-76.845
X131.604Y-94.13
X131.604Y-96.054
X148.114Y-91.59
X148.114Y-93.514
X93.504Y-56.029
X93.504Y-57.953
X110.014Y-53.489
X110.014Y-55.413
X151.924Y-142.231
X151.924Y-144.155
X168.434Y-139.691
X168.434Y-141.615
X74.454Y-106.036
X74.454Y-107.96
X90.964Y-103.496
X90.964Y-105.42
X55.404Y-72.698
X55.404Y-74.622
X71.914Y-70.158
X71.914Y-72.082
X50.641Y-91.748
X50.641Y-93.672
X67.151Y-89.208
X67.151Y-91.132
X124.08Y-138.811
X124.563Y-137.644
X124.563Y-139.978
X125.73Y-137.161
X125.73Y-140.461
X126.897Y-137.644
X126.897Y-139.978
X127.38Y-138.811
X150.654Y-115.561
X150.654Y-117.485
X167.164Y-113.021
X167.164Y-114.945
X110.364Y-60.071
X110.847Y-58.904
X110.847Y-61.238
X112.014Y-58.421
X112.014Y-61.721
X113.181Y-58.904
X113.181Y-61.238
X113.664Y-60.071
X129.222Y-134.611
X129.222Y-136.535
X145.732Y-132.071
X145.732Y-133.995
X36.354Y-72.698
X36.354Y-74.622
X52.864Y-70.158
X52.864Y-72.082
X48.26Y-110.798
X48.26Y-112.722
X64.77Y-108.258
X64.77Y-110.182
X150.654Y-58.411
X150.654Y-60.335
X167.164Y-55.871
X167.164Y-57.795
X74.454Y-125.086
X74.454Y-127.01
X90.964Y-122.546
X90.964Y-124.47
X66.915Y-150.693
X67.315Y-152.575
X82.536Y-144.775
X82.936Y-146.657
X105.41Y-134.611
X105.41Y-136.535
X121.92Y-132.071
X121.92Y-133.995
X131.604Y-75.08
X131.604Y-77.004
X148.114Y-72.54
X148.114Y-74.464
T2
X43.409Y-106.985
X43.815Y-118.618
X49.276Y-87.376
X51.308Y-89.408
X60.223Y-102.083
X61.087Y-69.571
X69.85Y-82.55
X70.104Y-73.533
X70.141Y-120.769
X70.551Y-100.975
X71.149Y-83.761
X71.374Y-141.224
X71.501Y-119.701
X71.948Y-86.531
X72.136Y-91.44
X72.451Y-108.489
X72.525Y-120.875
X72.68Y-79.818
X73.093Y-69.347
X73.171Y-74.268
X73.511Y-82.191
X73.787Y-104.292
X74.751Y-89.916
X76.2Y-93.345
X77.851Y-59.055
X78.679Y-82.905
X80.772Y-73.025
X82.296Y-74.168
X82.296Y-87.503
X83.135Y-86.364
X86.36Y-96.393
X87.31Y-93.896
X89.535Y-87.63
X90.11Y-120.207
X91.948Y-132.08
X92.202Y-108.458
X92.524Y-121.157
X93.472Y-67.818
X95.123Y-63.881
X95.8Y-118.627
X96.012Y-85.344
X96.52Y-153.162
X97.282Y-67.056
X97.47Y-129.54
X99.06Y-86.614
X100.157Y-64.771
X102.164Y-65.371
X104.902Y-126.746
X105.029Y-95.25
X105.41Y-128.778
X109.982Y-84.074
X111.506Y-100.33
X117.588Y-85.023
X117.602Y-83.536
X127.387Y-62.926
X128.016Y-73.914
X128.802Y-62.926
X129.032Y-85.344
X129.112Y-74.613
X129.286Y-104.769
X129.921Y-60.96
X130.048Y-81.026
X132.08Y-129.794
X132.558Y-68.071
X133.858Y-64.262
X133.858Y-68.072
X135.102Y-64.639
X135.128Y-90.678
X141.478Y-141.986
X146.05Y-81.915
X146.214Y-137.504
X147.563Y-75.884
X148.209Y-64.577
X148.336Y-46.99
X149.352Y-81.534
X149.352Y-89.21
X149.606Y-67.056
X149.733Y-63.627
X149.887Y-102.174
X150.622Y-48.284
X150.654Y-81.502
X150.654Y-89.21
X151.636Y-120.37
X151.883Y-49.784
X152.212Y-134.62
X152.781Y-57.173
X152.781Y-61.573
X152.908Y-44.932
X152.908Y-73.406
X153.997Y-124.209
X154.178Y-91.821
X154.208Y-44.932
X154.94Y-140.97
X155.194Y-88.773
X155.508Y-44.932
X155.706Y-69.209
X158.369Y-51.689
X158.496Y-55.88
X160.655Y-51.689
X162.56Y-79.121
X164.211Y-97.282
X164.465Y-92.733
X164.846Y-111.633
X165.096Y-66.407
X165.989Y-116.459
X166.098Y-109.636
X166.878Y-123.825
X167.513Y-45.466
X167.603Y-80.555
X168.148Y-122.555
X169.799Y-54.483
X170.688Y-69.088
X172.974Y-75.438
X176.149Y-55.753
X177.165Y-127.0
X178.816Y-65.664
X178.816Y-67.691
X179.324Y-43.434
X179.358Y-41.876
X179.391Y-47.431
X179.422Y-40.288
X182.551Y-64.261
X182.597Y-43.463
X182.626Y-45.212
X182.88Y-132.588
X183.794Y-134.508
X184.658Y-107.569
X185.166Y-65.532
X188.468Y-105.537
X188.595Y-117.729
X189.36Y-114.131
X189.484Y-100.838
X191.752Y-110.492
T3
X40.259Y-90.297
X40.767Y-85.979
X69.123Y-79.94
X79.248Y-60.325
X79.375Y-57.785
X88.265Y-56.388
X93.679Y-60.954
X95.25Y-67.189
X107.823Y-84.455
X110.49Y-89.789
X115.951Y-61.595
X125.857Y-59.182
X128.905Y-93.091
X130.556Y-101.854
X166.243Y-63.373
X172.428Y-56.803
T4
X110.49Y-129.794
X118.11Y-129.794
X183.896Y-127.254
X191.516Y-127.254
X174.752Y-91.694
X182.372Y-91.694
X79.502Y-98.552
X87.122Y-98.552
X117.602Y-105.918
X125.222Y-105.918
X136.652Y-89.408
X144.272Y-89.408
X75.701Y-57.785
X75.701Y-60.325
X75.701Y-62.865
X75.701Y-65.405
X75.701Y-67.945
X75.701Y-70.485
X75.701Y-73.025
X75.701Y-75.565
X75.701Y-78.105
X75.701Y-80.645
X75.701Y-83.185
X75.701Y-85.725
X90.921Y-57.785
X90.921Y-60.325
X90.921Y-62.865
X90.921Y-65.405
X90.921Y-67.945
X90.921Y-70.485
X90.921Y-73.025
X90.921Y-75.565
X90.921Y-78.105
X90.921Y-80.645
X90.921Y-83.185
X90.921Y-85.725
X98.552Y-108.458
X106.172Y-108.458
X53.34Y-105.918
X60.96Y-105.918
X40.894Y-101.6
X48.514Y-101.6
X174.752Y-72.644
X182.372Y-72.644
X55.626Y-86.868
X63.246Y-86.868
X75.057Y-109.982
X75.057Y-117.602
X117.602Y-87.122
X125.222Y-87.122
X79.502Y-64.008
X87.122Y-64.008
X98.552Y-70.358
X106.172Y-70.358
X136.652Y-70.358
X144.272Y-70.358
X174.752Y-70.104
X182.372Y-70.104
X70.949Y-144.81
X78.403Y-143.226
X155.956Y-72.644
X163.576Y-72.644
X134.366Y-129.794
X141.986Y-129.794
X60.452Y-68.072
X68.072Y-68.072
X146.558Y-127.508
X154.178Y-127.508
X117.856Y-68.072
X125.476Y-68.072
X173.863Y-124.46
X176.403Y-124.46
X178.943Y-124.46
X181.483Y-124.46
X94.234Y-82.296
X94.234Y-89.916
X136.906Y-51.308
X144.526Y-51.308
X98.552Y-89.408
X106.172Y-89.408
X161.036Y-129.845
X168.656Y-129.845
X157.226Y-53.594
X164.846Y-53.594
X46.228Y-105.664
X46.228Y-113.284
X136.652Y-108.458
X144.272Y-108.458
X121.666Y-48.768
X129.286Y-48.768
X155.702Y-110.744
X163.322Y-110.744
X50.375Y-149.382
X57.829Y-147.798
X170.18Y-81.28
X170.18Y-88.9
X132.334Y-78.994
X132.334Y-86.614
X177.673Y-110.744
X185.293Y-110.744
X41.656Y-68.072
X49.276Y-68.072
X105.664Y-51.054
X113.284Y-51.054
X79.756Y-120.396
X87.376Y-120.396
X113.03Y-76.835
X113.03Y-84.455
X155.702Y-91.694
X163.322Y-91.694
X53.086Y-125.222
X60.706Y-125.222
X36.83Y-76.708
X36.83Y-84.328
X79.502Y-101.346
X87.122Y-101.346
T5
X66.425Y-60.731
X71.425Y-60.731
T6
X190.5Y-116.586
X190.5Y-119.126
X190.5Y-121.666
X190.5Y-130.302
X190.5Y-132.842
X190.5Y-135.382
X190.5Y-137.922
X190.5Y-140.462
X190.5Y-143.002
X26.927Y-90.262
X29.373Y-89.743
X29.942Y-104.446
X31.818Y-89.223
X34.833Y-103.406
X56.642Y-64.262
X59.182Y-64.262
X61.722Y-64.262
X171.838Y-36.919
X172.366Y-39.404
X172.894Y-41.888
X173.422Y-44.373
X173.951Y-46.857
X174.323Y-36.391
X174.479Y-49.342
X174.851Y-38.875
X175.007Y-51.826
X175.379Y-41.36
X175.907Y-43.844
X176.435Y-46.329
X176.963Y-48.813
X177.491Y-51.298
T7
X65.415Y-63.221
X72.425Y-63.221
T8
X79.534Y-87.948
X85.884Y-85.408
X79.534Y-68.898
X85.884Y-66.358
T9
X112.014Y-60.071
X67.437Y-113.411
X169.164Y-104.902
X125.73Y-138.811
T10
X136.684Y-56.991
X143.034Y-54.451
X176.054Y-143.193
X182.404Y-140.653
X53.34Y-130.811
X59.69Y-128.271
X174.784Y-59.373
X181.134Y-56.833
X117.634Y-111.76
X123.984Y-109.22
X155.734Y-78.423
X162.084Y-75.883
X136.684Y-95.092
X143.034Y-92.552
X98.584Y-56.991
X104.934Y-54.451
X157.004Y-143.193
X163.354Y-140.653
X79.534Y-106.998
X85.884Y-104.458
X60.484Y-73.66
X66.834Y-71.12
X55.721Y-92.71
X62.071Y-90.17
X155.734Y-116.523
X162.084Y-113.983
X134.302Y-135.573
X140.653Y-133.033
X41.434Y-73.66
X47.784Y-71.12
X53.34Y-111.76
X59.69Y-109.22
X155.734Y-59.373
X162.084Y-56.833
X79.534Y-126.048
X85.884Y-123.508
X72.084Y-150.577
X77.767Y-146.773
X110.49Y-135.573
X116.84Y-133.033
X136.684Y-76.042
X143.034Y-73.502
X174.784Y-116.523
X181.134Y-113.983
X136.684Y-114.142
X143.034Y-111.602
X117.634Y-54.61
X123.984Y-52.07
X117.634Y-73.66
X123.984Y-71.12
X98.584Y-76.042
X104.934Y-73.502
X84.227Y-155.786
X89.91Y-151.982
X117.634Y-92.71
X123.984Y-90.17
X98.584Y-95.092
X104.934Y-92.552
X98.584Y-114.142
X104.934Y-111.602
X58.606Y-161.232
X64.289Y-157.428
X155.734Y-97.473
X162.084Y-94.933
X174.784Y-97.473
X181.134Y-94.933
X165.259Y-135.573
X171.609Y-133.033
X174.784Y-78.423
X181.134Y-75.883
T11
X68.925Y-59.521
T12
X78.264Y-90.488
X88.424Y-90.488
X78.264Y-71.438
X88.424Y-71.438
T13
X135.414Y-78.582
X145.574Y-78.582
X173.514Y-119.063
X183.674Y-119.063
X135.414Y-116.682
X145.574Y-116.682
X116.364Y-57.15
X126.524Y-57.15
X116.364Y-76.2
X126.524Y-76.2
X97.314Y-78.582
X107.474Y-78.582
X80.686Y-151.346
X90.624Y-149.233
X116.364Y-95.25
X126.524Y-95.25
X97.314Y-97.632
X107.474Y-97.632
X97.314Y-116.682
X107.474Y-116.682
X55.065Y-156.792
X65.003Y-154.679
X154.464Y-100.013
X164.624Y-100.013
X173.514Y-100.013
X183.674Y-100.013
X163.989Y-138.113
X174.149Y-138.113
X173.514Y-80.963
X183.674Y-80.963
X135.414Y-59.531
X145.574Y-59.531
X173.514Y-138.113
X183.674Y-138.113
X52.07Y-133.351
X62.23Y-133.351
X173.514Y-61.913
X183.674Y-61.913
X116.364Y-114.3
X126.524Y-114.3
X154.464Y-80.963
X164.624Y-80.963
X135.414Y-97.632
X145.574Y-97.632
X97.314Y-59.531
X107.474Y-59.531
X154.464Y-138.113
X164.624Y-138.113
X78.264Y-109.538
X88.424Y-109.538
X59.214Y-76.2
X69.374Y-76.2
X54.451Y-95.25
X64.611Y-95.25
X154.464Y-119.063
X164.624Y-119.063
X133.032Y-138.113
X143.192Y-138.113
X40.164Y-76.2
X50.324Y-76.2
X52.07Y-114.3
X62.23Y-114.3
X154.464Y-61.913
X164.624Y-61.913
X78.264Y-128.588
X88.424Y-128.588
X71.37Y-153.326
X81.308Y-151.214
X109.22Y-138.113
X119.38Y-138.113
T14
X157.131Y-145.098
X181.007Y-145.098
X66.114Y-161.584
X89.468Y-156.62
T15
X114.3Y-138.113
X140.494Y-78.582
X178.594Y-119.063
X140.494Y-116.682
X121.444Y-57.15
X121.444Y-76.2
X102.394Y-78.582
X85.655Y-150.289
X121.444Y-95.25
X102.394Y-97.632
X102.394Y-116.682
X60.034Y-155.735
X159.544Y-100.013
X178.594Y-100.013
X169.069Y-138.113
X178.594Y-80.963
X140.494Y-59.531
X178.594Y-138.113
X57.15Y-133.351
X178.594Y-61.913
X121.444Y-114.3
X159.544Y-80.963
X140.494Y-97.632
X102.394Y-59.531
X159.544Y-138.113
X83.344Y-109.538
X64.294Y-76.2
X59.531Y-95.25
X157.131Y-129.858
X181.007Y-129.858
X62.945Y-146.677
X86.299Y-141.713
X159.544Y-119.063
X138.112Y-138.113
X45.244Y-76.2
X57.15Y-114.3
X159.544Y-61.913
X83.344Y-128.588
X76.339Y-152.27
T16
X83.344Y-90.488
X83.344Y-71.438
T8
G00X25.319Y-97.607
M15
G01X25.59Y-98.879
M16
G05
G00X36.275Y-95.279
M15
G01X36.545Y-96.55
M16
G05
T0
M30
