G04 #@! TF.GenerationSoftware,KiCad,Pcbnew,(5.1.5-0-10_14)*
G04 #@! TF.CreationDate,2020-05-14T06:06:27+09:00*
G04 #@! TF.ProjectId,Colice,436f6c69-6365-42e6-9b69-6361645f7063,rev?*
G04 #@! TF.SameCoordinates,Original*
G04 #@! TF.FileFunction,Legend,Top*
G04 #@! TF.FilePolarity,Positive*
%FSLAX46Y46*%
G04 Gerber Fmt 4.6, Leading zero omitted, Abs format (unit mm)*
G04 Created by KiCad (PCBNEW (5.1.5-0-10_14)) date 2020-05-14 06:06:27*
%MOMM*%
%LPD*%
G04 APERTURE LIST*
%ADD10C,0.150000*%
%ADD11C,0.300000*%
%ADD12C,0.120000*%
G04 APERTURE END LIST*
D10*
X78397714Y-59505809D02*
X78512000Y-59543904D01*
X78702476Y-59543904D01*
X78778666Y-59505809D01*
X78816761Y-59467714D01*
X78854857Y-59391523D01*
X78854857Y-59315333D01*
X78816761Y-59239142D01*
X78778666Y-59201047D01*
X78702476Y-59162952D01*
X78550095Y-59124857D01*
X78473904Y-59086761D01*
X78435809Y-59048666D01*
X78397714Y-58972476D01*
X78397714Y-58896285D01*
X78435809Y-58820095D01*
X78473904Y-58782000D01*
X78550095Y-58743904D01*
X78740571Y-58743904D01*
X78854857Y-58782000D01*
X79312000Y-59543904D02*
X79235809Y-59505809D01*
X79197714Y-59467714D01*
X79159619Y-59391523D01*
X79159619Y-59162952D01*
X79197714Y-59086761D01*
X79235809Y-59048666D01*
X79312000Y-59010571D01*
X79426285Y-59010571D01*
X79502476Y-59048666D01*
X79540571Y-59086761D01*
X79578666Y-59162952D01*
X79578666Y-59391523D01*
X79540571Y-59467714D01*
X79502476Y-59505809D01*
X79426285Y-59543904D01*
X79312000Y-59543904D01*
X80035809Y-59543904D02*
X79959619Y-59505809D01*
X79921523Y-59429619D01*
X79921523Y-58743904D01*
X80683428Y-59543904D02*
X80683428Y-58743904D01*
X80683428Y-59505809D02*
X80607238Y-59543904D01*
X80454857Y-59543904D01*
X80378666Y-59505809D01*
X80340571Y-59467714D01*
X80302476Y-59391523D01*
X80302476Y-59162952D01*
X80340571Y-59086761D01*
X80378666Y-59048666D01*
X80454857Y-59010571D01*
X80607238Y-59010571D01*
X80683428Y-59048666D01*
X81369142Y-59505809D02*
X81292952Y-59543904D01*
X81140571Y-59543904D01*
X81064380Y-59505809D01*
X81026285Y-59429619D01*
X81026285Y-59124857D01*
X81064380Y-59048666D01*
X81140571Y-59010571D01*
X81292952Y-59010571D01*
X81369142Y-59048666D01*
X81407238Y-59124857D01*
X81407238Y-59201047D01*
X81026285Y-59277238D01*
X81750095Y-59543904D02*
X81750095Y-59010571D01*
X81750095Y-59162952D02*
X81788190Y-59086761D01*
X81826285Y-59048666D01*
X81902476Y-59010571D01*
X81978666Y-59010571D01*
X82740571Y-59010571D02*
X83045333Y-59010571D01*
X82854857Y-58743904D02*
X82854857Y-59429619D01*
X82892952Y-59505809D01*
X82969142Y-59543904D01*
X83045333Y-59543904D01*
X83426285Y-59543904D02*
X83350095Y-59505809D01*
X83312000Y-59467714D01*
X83273904Y-59391523D01*
X83273904Y-59162952D01*
X83312000Y-59086761D01*
X83350095Y-59048666D01*
X83426285Y-59010571D01*
X83540571Y-59010571D01*
X83616761Y-59048666D01*
X83654857Y-59086761D01*
X83692952Y-59162952D01*
X83692952Y-59391523D01*
X83654857Y-59467714D01*
X83616761Y-59505809D01*
X83540571Y-59543904D01*
X83426285Y-59543904D01*
X84797714Y-58743904D02*
X84950095Y-58743904D01*
X85026285Y-58782000D01*
X85102476Y-58858190D01*
X85140571Y-59010571D01*
X85140571Y-59277238D01*
X85102476Y-59429619D01*
X85026285Y-59505809D01*
X84950095Y-59543904D01*
X84797714Y-59543904D01*
X84721523Y-59505809D01*
X84645333Y-59429619D01*
X84607238Y-59277238D01*
X84607238Y-59010571D01*
X84645333Y-58858190D01*
X84721523Y-58782000D01*
X84797714Y-58743904D01*
X85826285Y-59010571D02*
X85826285Y-59543904D01*
X85483428Y-59010571D02*
X85483428Y-59429619D01*
X85521523Y-59505809D01*
X85597714Y-59543904D01*
X85712000Y-59543904D01*
X85788190Y-59505809D01*
X85826285Y-59467714D01*
X86092952Y-59010571D02*
X86397714Y-59010571D01*
X86207238Y-58743904D02*
X86207238Y-59429619D01*
X86245333Y-59505809D01*
X86321523Y-59543904D01*
X86397714Y-59543904D01*
X86664380Y-59010571D02*
X86664380Y-59810571D01*
X86664380Y-59048666D02*
X86740571Y-59010571D01*
X86892952Y-59010571D01*
X86969142Y-59048666D01*
X87007238Y-59086761D01*
X87045333Y-59162952D01*
X87045333Y-59391523D01*
X87007238Y-59467714D01*
X86969142Y-59505809D01*
X86892952Y-59543904D01*
X86740571Y-59543904D01*
X86664380Y-59505809D01*
X87731047Y-59010571D02*
X87731047Y-59543904D01*
X87388190Y-59010571D02*
X87388190Y-59429619D01*
X87426285Y-59505809D01*
X87502476Y-59543904D01*
X87616761Y-59543904D01*
X87692952Y-59505809D01*
X87731047Y-59467714D01*
X87997714Y-59010571D02*
X88302476Y-59010571D01*
X88112000Y-58743904D02*
X88112000Y-59429619D01*
X88150095Y-59505809D01*
X88226285Y-59543904D01*
X88302476Y-59543904D01*
D11*
X144103859Y-42904013D02*
X145361477Y-42636698D01*
X144446517Y-42042516D02*
X144424637Y-44413155D01*
X145354184Y-43426911D02*
X144096565Y-43694226D01*
X145011525Y-44288408D02*
X145033406Y-41917769D01*
X147168312Y-43304194D02*
X147102292Y-43405856D01*
X146868589Y-43543160D01*
X146700907Y-43578802D01*
X146431562Y-43548424D01*
X146228238Y-43416384D01*
X146108755Y-43266522D01*
X145953629Y-42948978D01*
X145900166Y-42697455D01*
X145912724Y-42344269D01*
X145960923Y-42158765D01*
X146092963Y-41955441D01*
X146326666Y-41818137D01*
X146494348Y-41782495D01*
X146763693Y-41812873D01*
X146865355Y-41878893D01*
X148210049Y-43258024D02*
X148024546Y-43209825D01*
X147922883Y-43143805D01*
X147803400Y-42993943D01*
X147696474Y-42490896D01*
X147744673Y-42305393D01*
X147810693Y-42203730D01*
X147960555Y-42084247D01*
X148212079Y-42030784D01*
X148397582Y-42078983D01*
X148499244Y-42145004D01*
X148618728Y-42294865D01*
X148725654Y-42797912D01*
X148677454Y-42983416D01*
X148611434Y-43085078D01*
X148461573Y-43204561D01*
X148210049Y-43258024D01*
X149803032Y-42919425D02*
X149617529Y-42871226D01*
X149498046Y-42721365D01*
X149177267Y-41212223D01*
X150473762Y-42776857D02*
X150224268Y-41603080D01*
X150099521Y-41016192D02*
X150033501Y-41117854D01*
X150135163Y-41183874D01*
X150201183Y-41082212D01*
X150099521Y-41016192D01*
X150135163Y-41183874D01*
X152048924Y-42354417D02*
X151899063Y-42473900D01*
X151563698Y-42545184D01*
X151378194Y-42496985D01*
X151276532Y-42430965D01*
X151157049Y-42281103D01*
X151050123Y-41778056D01*
X151098322Y-41592553D01*
X151164342Y-41490890D01*
X151314204Y-41371407D01*
X151649569Y-41300123D01*
X151835072Y-41348322D01*
X153474225Y-42051460D02*
X153324364Y-42170943D01*
X152988999Y-42242227D01*
X152803495Y-42194028D01*
X152684012Y-42044167D01*
X152541444Y-41373437D01*
X152589643Y-41187933D01*
X152739505Y-41068450D01*
X153074870Y-40997166D01*
X153260373Y-41045365D01*
X153379856Y-41195227D01*
X153415498Y-41362909D01*
X152612728Y-41708802D01*
X156583644Y-40601870D02*
X156481981Y-40535850D01*
X156296478Y-40487650D01*
X156128796Y-40523292D01*
X155978934Y-40642776D01*
X155912914Y-40744438D01*
X155864715Y-40929941D01*
X155900357Y-41097624D01*
X156019840Y-41247485D01*
X156121502Y-41313506D01*
X156307006Y-41361705D01*
X156474688Y-41326063D01*
X156624549Y-41206579D01*
X156690570Y-41104917D01*
X156548002Y-40434187D02*
X156690570Y-41104917D01*
X156792232Y-41170937D01*
X156876073Y-41153116D01*
X157025935Y-41033633D01*
X157074134Y-40848130D01*
X156985029Y-40428924D01*
X156763883Y-40213042D01*
X156476718Y-40098823D01*
X156123532Y-40086265D01*
X155805988Y-40241391D01*
X155590106Y-40462536D01*
X155475887Y-40749702D01*
X155463330Y-41102888D01*
X155618455Y-41420432D01*
X155839600Y-41636313D01*
X156126766Y-41750533D01*
X156479952Y-41763090D01*
X156797496Y-41607965D01*
X157013377Y-41386819D01*
X157686137Y-40017011D02*
X158006915Y-41526153D01*
X157958716Y-41711656D01*
X157808854Y-41831140D01*
X157725013Y-41848961D01*
X157561390Y-39430122D02*
X157495370Y-39531785D01*
X157597032Y-39597805D01*
X157663052Y-39496143D01*
X157561390Y-39430122D01*
X157597032Y-39597805D01*
X158524549Y-39838801D02*
X158898790Y-41599467D01*
X158542370Y-39922642D02*
X158692231Y-39803159D01*
X159027596Y-39731875D01*
X159213100Y-39780074D01*
X159314762Y-39846094D01*
X159434245Y-39995956D01*
X159541171Y-40499003D01*
X159492972Y-40684507D01*
X159426952Y-40786169D01*
X159277090Y-40905652D01*
X158941725Y-40976936D01*
X158756222Y-40928737D01*
X160265364Y-40607959D02*
X160450868Y-40656158D01*
X160786232Y-40584874D01*
X160936094Y-40465391D01*
X160984293Y-40279887D01*
X160966472Y-40196046D01*
X160846989Y-40046185D01*
X160661485Y-39997986D01*
X160409962Y-40051449D01*
X160224458Y-40003249D01*
X160104975Y-39853388D01*
X160087154Y-39769547D01*
X160135353Y-39584043D01*
X160285215Y-39464560D01*
X160536738Y-39411097D01*
X160722242Y-39459296D01*
X161792327Y-40371022D02*
X161418086Y-38610356D01*
X161817442Y-39664650D02*
X162463057Y-40228454D01*
X162213563Y-39054677D02*
X161685401Y-39867975D01*
X163870537Y-39841656D02*
X163720675Y-39961139D01*
X163385310Y-40032423D01*
X163199807Y-39984224D01*
X163080324Y-39834362D01*
X162937756Y-39163633D01*
X162985955Y-38978129D01*
X163135816Y-38858646D01*
X163471181Y-38787362D01*
X163656685Y-38835561D01*
X163776168Y-38985423D01*
X163811810Y-39153105D01*
X163009040Y-39498997D01*
X164477276Y-38573510D02*
X164726770Y-39747287D01*
X164512918Y-38741192D02*
X164578938Y-38639530D01*
X164728800Y-38520047D01*
X164980323Y-38466584D01*
X165165827Y-38514783D01*
X165285310Y-38664644D01*
X165481341Y-39586898D01*
X166070259Y-38234911D02*
X166319753Y-39408688D01*
X166105901Y-38402593D02*
X166171921Y-38300931D01*
X166321783Y-38181448D01*
X166573306Y-38127985D01*
X166758810Y-38176184D01*
X166878293Y-38326045D01*
X167074324Y-39248299D01*
X156714859Y-44517293D02*
X155876447Y-44695503D01*
X155502206Y-42934838D01*
X157954656Y-44166137D02*
X157804795Y-44285620D01*
X157469430Y-44356904D01*
X157283926Y-44308705D01*
X157164443Y-44158843D01*
X157021875Y-43488114D01*
X157070074Y-43302610D01*
X157219936Y-43183127D01*
X157555301Y-43111843D01*
X157740804Y-43160042D01*
X157860287Y-43309904D01*
X157895929Y-43477586D01*
X157093159Y-43823479D01*
X158309872Y-42951454D02*
X158980602Y-42808886D01*
X158810889Y-44071768D02*
X158490111Y-42562626D01*
X158538311Y-42377123D01*
X158688172Y-42257639D01*
X158855855Y-42221997D01*
X159315966Y-42737602D02*
X159986696Y-42595034D01*
X159442743Y-42097250D02*
X159763521Y-43606392D01*
X159883004Y-43756254D01*
X160068508Y-43804453D01*
X160236190Y-43768811D01*
X161747362Y-42220793D02*
X162416062Y-43305465D01*
X162585774Y-42042583D01*
X163470356Y-42906110D02*
X163572018Y-42972130D01*
X163505998Y-43073792D01*
X163404336Y-43007772D01*
X163470356Y-42906110D01*
X163505998Y-43073792D01*
X164305534Y-41063632D02*
X164473217Y-41027990D01*
X164658720Y-41076190D01*
X164760382Y-41142210D01*
X164879865Y-41292071D01*
X165034991Y-41609615D01*
X165124096Y-42028821D01*
X165111538Y-42382007D01*
X165063339Y-42567511D01*
X164997319Y-42669173D01*
X164847458Y-42788656D01*
X164679775Y-42824298D01*
X164494272Y-42776099D01*
X164392609Y-42710079D01*
X164273126Y-42560217D01*
X164118001Y-42242673D01*
X164028896Y-41823467D01*
X164041453Y-41470281D01*
X164089652Y-41284778D01*
X164155673Y-41183116D01*
X164305534Y-41063632D01*
X165985593Y-42371480D02*
X166087255Y-42437500D01*
X166021235Y-42539162D01*
X165919572Y-42473142D01*
X165985593Y-42371480D01*
X166021235Y-42539162D01*
X166317723Y-40635928D02*
X167407659Y-40404255D01*
X166963339Y-41199732D01*
X167214862Y-41146269D01*
X167400366Y-41194468D01*
X167502028Y-41260488D01*
X167621511Y-41410350D01*
X167710616Y-41829556D01*
X167662417Y-42015059D01*
X167596397Y-42116722D01*
X167446535Y-42236205D01*
X166943488Y-42343131D01*
X166757985Y-42294932D01*
X166656322Y-42228911D01*
D12*
X37971452Y-101818821D02*
X36406416Y-102151480D01*
X25457824Y-92006120D02*
X23892788Y-92338779D01*
X33932120Y-97078800D02*
G75*
G03X33932120Y-97078800I-3000000J0D01*
G01*
X37638793Y-100253785D02*
X37971452Y-101818821D01*
X26429310Y-104272179D02*
X26096652Y-102707143D01*
X24225447Y-93903815D02*
X23892788Y-92338779D01*
X35767588Y-91450457D02*
X35434930Y-89885421D01*
X35434930Y-89885421D02*
X33869893Y-90218079D01*
X27994347Y-103939521D02*
X26429310Y-104272179D01*
D10*
X52531250Y-88250400D02*
X52531250Y-89250400D01*
X53531250Y-88250400D02*
X52531250Y-88250400D01*
X52531250Y-102250400D02*
X53531250Y-102250400D01*
X52531250Y-101250400D02*
X52531250Y-102250400D01*
X66531250Y-102250400D02*
X66531250Y-101250400D01*
X65531250Y-102250400D02*
X66531250Y-102250400D01*
X66531250Y-88250400D02*
X66531250Y-89250400D01*
X65531250Y-88250400D02*
X66531250Y-88250400D01*
X175068750Y-131113080D02*
X176068750Y-131113080D01*
X176068750Y-131113080D02*
X176068750Y-132113080D01*
X175068750Y-145113080D02*
X176068750Y-145113080D01*
X176068750Y-145113080D02*
X176068750Y-144113080D01*
X162068750Y-144113080D02*
X162068750Y-145113080D01*
X162068750Y-145113080D02*
X163068750Y-145113080D01*
X163068750Y-131113080D02*
X162068750Y-131113080D01*
X162068750Y-131113080D02*
X162068750Y-132113080D01*
X152543750Y-112063000D02*
X152543750Y-113063000D01*
X153543750Y-112063000D02*
X152543750Y-112063000D01*
X152543750Y-126063000D02*
X153543750Y-126063000D01*
X152543750Y-125063000D02*
X152543750Y-126063000D01*
X166543750Y-126063000D02*
X166543750Y-125063000D01*
X165543750Y-126063000D02*
X166543750Y-126063000D01*
X166543750Y-112063000D02*
X166543750Y-113063000D01*
X165543750Y-112063000D02*
X166543750Y-112063000D01*
X131112500Y-131113080D02*
X131112500Y-132113080D01*
X132112500Y-131113080D02*
X131112500Y-131113080D01*
X131112500Y-145113080D02*
X132112500Y-145113080D01*
X131112500Y-144113080D02*
X131112500Y-145113080D01*
X145112500Y-145113080D02*
X145112500Y-144113080D01*
X144112500Y-145113080D02*
X145112500Y-145113080D01*
X145112500Y-131113080D02*
X145112500Y-132113080D01*
X144112500Y-131113080D02*
X145112500Y-131113080D01*
X109074000Y-51054000D02*
X109974000Y-50554000D01*
X109974000Y-50554000D02*
X109974000Y-51554000D01*
X109974000Y-51554000D02*
X109074000Y-51054000D01*
X108974000Y-50554000D02*
X108974000Y-51554000D01*
X112174000Y-50304000D02*
X106774000Y-50304000D01*
X106774000Y-50304000D02*
X106774000Y-51804000D01*
X106774000Y-51804000D02*
X112174000Y-51804000D01*
X112174000Y-51804000D02*
X112174000Y-50304000D01*
X167546000Y-130594800D02*
X167546000Y-129094800D01*
X162146000Y-130594800D02*
X167546000Y-130594800D01*
X162146000Y-129094800D02*
X162146000Y-130594800D01*
X167546000Y-129094800D02*
X162146000Y-129094800D01*
X164346000Y-129344800D02*
X164346000Y-130344800D01*
X165346000Y-130344800D02*
X164446000Y-129844800D01*
X165346000Y-129344800D02*
X165346000Y-130344800D01*
X164446000Y-129844800D02*
X165346000Y-129344800D01*
X152543750Y-73962840D02*
X152543750Y-74962840D01*
X153543750Y-73962840D02*
X152543750Y-73962840D01*
X152543750Y-87962840D02*
X153543750Y-87962840D01*
X152543750Y-86962840D02*
X152543750Y-87962840D01*
X166543750Y-87962840D02*
X166543750Y-86962840D01*
X165543750Y-87962840D02*
X166543750Y-87962840D01*
X166543750Y-73962840D02*
X166543750Y-74962840D01*
X165543750Y-73962840D02*
X166543750Y-73962840D01*
X89343750Y-121588040D02*
X90343750Y-121588040D01*
X90343750Y-121588040D02*
X90343750Y-122588040D01*
X89343750Y-135588040D02*
X90343750Y-135588040D01*
X90343750Y-135588040D02*
X90343750Y-134588040D01*
X76343750Y-134588040D02*
X76343750Y-135588040D01*
X76343750Y-135588040D02*
X77343750Y-135588040D01*
X77343750Y-121588040D02*
X76343750Y-121588040D01*
X76343750Y-121588040D02*
X76343750Y-122588040D01*
X50150000Y-126350560D02*
X50150000Y-127350560D01*
X51150000Y-126350560D02*
X50150000Y-126350560D01*
X50150000Y-140350560D02*
X51150000Y-140350560D01*
X50150000Y-139350560D02*
X50150000Y-140350560D01*
X64150000Y-140350560D02*
X64150000Y-139350560D01*
X63150000Y-140350560D02*
X64150000Y-140350560D01*
X64150000Y-126350560D02*
X64150000Y-127350560D01*
X63150000Y-126350560D02*
X64150000Y-126350560D01*
X80752132Y-144175217D02*
X81730279Y-143967305D01*
X81730279Y-143967305D02*
X81938191Y-144945453D01*
X83662895Y-157869283D02*
X84641043Y-157661371D01*
X84641043Y-157661371D02*
X84433131Y-156683224D01*
X70739065Y-159593987D02*
X70946977Y-160572135D01*
X70946977Y-160572135D02*
X71925124Y-160364223D01*
X69014361Y-146670157D02*
X68036213Y-146878069D01*
X68036213Y-146878069D02*
X68244125Y-147856216D01*
X81241980Y-158383865D02*
X80263833Y-158591777D01*
X80263833Y-158591777D02*
X80055921Y-157613629D01*
X78331217Y-144689799D02*
X77353069Y-144897711D01*
X77353069Y-144897711D02*
X77560981Y-145875858D01*
X91255047Y-142965095D02*
X91047135Y-141986947D01*
X91047135Y-141986947D02*
X90068988Y-142194859D01*
X92979751Y-155888925D02*
X93957899Y-155681013D01*
X93957899Y-155681013D02*
X93749987Y-154702866D01*
X55620626Y-163829851D02*
X54642479Y-164037763D01*
X54642479Y-164037763D02*
X54434567Y-163059615D01*
X52709863Y-150135785D02*
X51731715Y-150343697D01*
X51731715Y-150343697D02*
X51939627Y-151321844D01*
X65633693Y-148411081D02*
X65425781Y-147432933D01*
X65425781Y-147432933D02*
X64447634Y-147640845D01*
X67358397Y-161334911D02*
X68336545Y-161126999D01*
X68336545Y-161126999D02*
X68128633Y-160148852D01*
X90396427Y-149687384D02*
X90231397Y-148910979D01*
X90561457Y-150463789D02*
X90726487Y-151240193D01*
X90891517Y-152016598D02*
X91056546Y-152793003D01*
X91221576Y-153569407D02*
X91386606Y-154345812D01*
X91551636Y-155122217D02*
X91716666Y-155898621D01*
X90066367Y-148134575D02*
X89901337Y-147358170D01*
X89736307Y-146581765D02*
X89571277Y-145805361D01*
X89406247Y-145028956D02*
X89241217Y-144252551D01*
X89076188Y-143476147D02*
X88911158Y-142699742D01*
X88562303Y-152511688D02*
X88727332Y-153288092D01*
X88067213Y-150182474D02*
X87902183Y-149406069D01*
X88232243Y-150958878D02*
X88397273Y-151735283D01*
X88892362Y-154064497D02*
X89057392Y-154840902D01*
X89222422Y-155617306D02*
X89387452Y-156393711D01*
X87737153Y-148629664D02*
X87572123Y-147853260D01*
X87407093Y-147076855D02*
X87242063Y-146300450D01*
X86746974Y-143971236D02*
X86581944Y-143194832D01*
X87077033Y-145524046D02*
X86912003Y-144747641D01*
X93220730Y-151521508D02*
X93385760Y-152297913D01*
X93550790Y-153074318D02*
X93715820Y-153850722D01*
X93880850Y-154627127D02*
X94045880Y-155403532D01*
X92890671Y-149968699D02*
X93055701Y-150745104D01*
X92065521Y-146086676D02*
X91900491Y-145310271D01*
X91405402Y-142981057D02*
X91240372Y-142204652D01*
X92395581Y-147639485D02*
X92230551Y-146863080D01*
X92725641Y-149192294D02*
X92560611Y-148415890D01*
X91735461Y-144533866D02*
X91570431Y-143757462D01*
X95549944Y-151026419D02*
X95714974Y-151802823D01*
X95880004Y-152579228D02*
X96045034Y-153355633D01*
X96210064Y-154132037D02*
X96375094Y-154908442D01*
X95219885Y-149473609D02*
X95384915Y-150250014D01*
X94394735Y-145591586D02*
X94229705Y-144815181D01*
X94724795Y-147144395D02*
X94559765Y-146367991D01*
X95054855Y-148697205D02*
X94889825Y-147920800D01*
X93734616Y-142485967D02*
X93569586Y-141709563D01*
X94064675Y-144038777D02*
X93899645Y-143262372D01*
X98209218Y-152084138D02*
X98374248Y-152860543D01*
X98539278Y-153636948D02*
X98704308Y-154413352D01*
X96723949Y-145096496D02*
X96558919Y-144320092D01*
X97384069Y-148202115D02*
X97219039Y-147425710D01*
X97879158Y-150531329D02*
X98044188Y-151307734D01*
X97549099Y-148978520D02*
X97714129Y-149754924D01*
X97054009Y-146649306D02*
X96888979Y-145872901D01*
X96063829Y-141990878D02*
X95898800Y-141214473D01*
X96393889Y-143543687D02*
X96228859Y-142767282D01*
X103197706Y-152646768D02*
X103362736Y-153423173D01*
X101382377Y-144106317D02*
X101217347Y-143329912D01*
X100722257Y-141000698D02*
X100557228Y-140224294D01*
X102207527Y-147988340D02*
X102372556Y-148764745D01*
X102537586Y-149541149D02*
X102702616Y-150317554D01*
X102042497Y-147211935D02*
X101877467Y-146435531D01*
X101712437Y-145659126D02*
X101547407Y-144882722D01*
X102867646Y-151093959D02*
X103032676Y-151870363D01*
X101052317Y-142553508D02*
X100887287Y-141777103D01*
X64114953Y-152027752D02*
X63949924Y-151251348D01*
X63454834Y-148922134D02*
X63289804Y-148145729D01*
X65600223Y-159015394D02*
X65765253Y-159791799D01*
X64775073Y-155133371D02*
X64610043Y-154356966D01*
X63784894Y-150474943D02*
X63619864Y-149698538D01*
X64940103Y-155909776D02*
X65105133Y-156686180D01*
X65270163Y-157462585D02*
X65435193Y-158238990D01*
X65930282Y-160568204D02*
X66095312Y-161344608D01*
X64445013Y-153580562D02*
X64279983Y-152804157D01*
X62115799Y-154075651D02*
X61950769Y-153299247D01*
X63271009Y-159510484D02*
X63436039Y-160286889D01*
X61125620Y-149417223D02*
X60960590Y-148640819D01*
X61455680Y-150970033D02*
X61290650Y-150193628D01*
X62445859Y-155628461D02*
X62280829Y-154852056D01*
X61785739Y-152522842D02*
X61620710Y-151746437D01*
X62610889Y-156404865D02*
X62775919Y-157181270D01*
X62940949Y-157957675D02*
X63105979Y-158734079D01*
X63601068Y-161063293D02*
X63766098Y-161839698D01*
X60281675Y-156899955D02*
X60446705Y-157676360D01*
X60116645Y-156123550D02*
X59951615Y-155347146D01*
X59456526Y-153017932D02*
X59291496Y-152241527D01*
X61271854Y-161558383D02*
X61436884Y-162334788D01*
X60611735Y-158452764D02*
X60776765Y-159229169D01*
X58796406Y-149912313D02*
X58631376Y-149135908D01*
X60941795Y-160005574D02*
X61106825Y-160781978D01*
X59126466Y-151465122D02*
X58961436Y-150688718D01*
X59786585Y-154570741D02*
X59621555Y-153794336D01*
X57127312Y-153513021D02*
X56962282Y-152736617D01*
X58942640Y-162053473D02*
X59107670Y-162829877D01*
X58282521Y-158947854D02*
X58447551Y-159724259D01*
X57952461Y-157395045D02*
X58117491Y-158171449D01*
X57787431Y-156618640D02*
X57622401Y-155842235D01*
X57457371Y-155065831D02*
X57292341Y-154289426D01*
X56797252Y-151960212D02*
X56632222Y-151183807D01*
X56467192Y-150407403D02*
X56302162Y-149630998D01*
X58612581Y-160500663D02*
X58777611Y-161277068D01*
X54468038Y-152455302D02*
X54303008Y-151678897D01*
X55128157Y-155560920D02*
X54963127Y-154784516D01*
X56283367Y-160995753D02*
X56448397Y-161772158D01*
X55623247Y-157890134D02*
X55788277Y-158666539D01*
X55953307Y-159442944D02*
X56118337Y-160219348D01*
X54798098Y-154008111D02*
X54633068Y-153231706D01*
X54137978Y-150902492D02*
X53972948Y-150126088D01*
X56613427Y-162548562D02*
X56778456Y-163324967D01*
X55458217Y-157113730D02*
X55293187Y-156337325D01*
X49809610Y-153445481D02*
X49644580Y-152669077D01*
X50469729Y-156551100D02*
X50304700Y-155774695D01*
X51624939Y-161985932D02*
X51789969Y-162762337D01*
X51294879Y-160433123D02*
X51459909Y-161209528D01*
X50139670Y-154998291D02*
X49974640Y-154221886D01*
X49479550Y-151892672D02*
X49314520Y-151116267D01*
X51954999Y-163538742D02*
X52120028Y-164315146D01*
X50799789Y-158103909D02*
X50634759Y-157327505D01*
X50964819Y-158880314D02*
X51129849Y-159656718D01*
D12*
X187242000Y-113505000D02*
X187242000Y-106205000D01*
X192742000Y-113505000D02*
X192742000Y-106205000D01*
X192742000Y-106205000D02*
X191592000Y-106205000D01*
X192742000Y-97696000D02*
X191592000Y-97696000D01*
X192742000Y-104996000D02*
X192742000Y-97696000D01*
X187242000Y-104996000D02*
X187242000Y-97696000D01*
X189170000Y-144332000D02*
X191830000Y-144332000D01*
X189170000Y-131572000D02*
X189170000Y-144332000D01*
X191830000Y-131572000D02*
X191830000Y-144332000D01*
X189170000Y-131572000D02*
X191830000Y-131572000D01*
X189170000Y-130302000D02*
X189170000Y-128972000D01*
X189170000Y-128972000D02*
X190500000Y-128972000D01*
D10*
X188118750Y-139303705D02*
X188118750Y-140097455D01*
X188118750Y-136922455D02*
X188118750Y-136128705D01*
X188118750Y-138509955D02*
X188118750Y-137716205D01*
X188118750Y-142478705D02*
X188118750Y-143272455D01*
X188118750Y-140891205D02*
X188118750Y-141684955D01*
X188118750Y-144066205D02*
X188118750Y-144859955D01*
X188118750Y-135334955D02*
X188118750Y-134541205D01*
X188118750Y-133747455D02*
X188118750Y-132953705D01*
X188118750Y-132159955D02*
X188118750Y-131366205D01*
X185737500Y-140891205D02*
X185737500Y-141684955D01*
X185737500Y-139303705D02*
X185737500Y-140097455D01*
X185737500Y-144066205D02*
X185737500Y-144859955D01*
X185737500Y-138509955D02*
X185737500Y-137716205D01*
X185737500Y-132159955D02*
X185737500Y-131366205D01*
X185737500Y-136922455D02*
X185737500Y-136128705D01*
X185737500Y-135334955D02*
X185737500Y-134541205D01*
X185737500Y-142478705D02*
X185737500Y-143272455D01*
X185737500Y-133747455D02*
X185737500Y-132953705D01*
X183356250Y-144066205D02*
X183356250Y-144859955D01*
X183356250Y-136922455D02*
X183356250Y-136128705D01*
X183356250Y-142478705D02*
X183356250Y-143272455D01*
X183356250Y-133747455D02*
X183356250Y-132953705D01*
X183356250Y-140891205D02*
X183356250Y-141684955D01*
X183356250Y-139303705D02*
X183356250Y-140097455D01*
X183356250Y-138509955D02*
X183356250Y-137716205D01*
X183356250Y-132159955D02*
X183356250Y-131366205D01*
X183356250Y-135334955D02*
X183356250Y-134541205D01*
X180975000Y-138509955D02*
X180975000Y-137716205D01*
X180975000Y-139303705D02*
X180975000Y-140097455D01*
X180975000Y-133747455D02*
X180975000Y-132953705D01*
X180975000Y-144066205D02*
X180975000Y-144859955D01*
X180975000Y-142478705D02*
X180975000Y-143272455D01*
X180975000Y-132159955D02*
X180975000Y-131366205D01*
X180975000Y-140891205D02*
X180975000Y-141684955D01*
X180975000Y-135334955D02*
X180975000Y-134541205D01*
X180975000Y-136922455D02*
X180975000Y-136128705D01*
X157162500Y-139303705D02*
X157162500Y-140097455D01*
X157162500Y-133747455D02*
X157162500Y-132953705D01*
X157162500Y-144066205D02*
X157162500Y-144859955D01*
X157162500Y-142478705D02*
X157162500Y-143272455D01*
X157162500Y-140891205D02*
X157162500Y-141684955D01*
X157162500Y-136922455D02*
X157162500Y-136128705D01*
X157162500Y-132159955D02*
X157162500Y-131366205D01*
X157162500Y-138509955D02*
X157162500Y-137716205D01*
X157162500Y-135334955D02*
X157162500Y-134541205D01*
X154781250Y-133747455D02*
X154781250Y-132953705D01*
X154781250Y-140891205D02*
X154781250Y-141684955D01*
X154781250Y-144066205D02*
X154781250Y-144859955D01*
X154781250Y-135334955D02*
X154781250Y-134541205D01*
X154781250Y-139303705D02*
X154781250Y-140097455D01*
X154781250Y-132159955D02*
X154781250Y-131366205D01*
X154781250Y-138509955D02*
X154781250Y-137716205D01*
X154781250Y-136922455D02*
X154781250Y-136128705D01*
X154781250Y-142478705D02*
X154781250Y-143272455D01*
X152400000Y-140891205D02*
X152400000Y-141684955D01*
X152400000Y-133747455D02*
X152400000Y-132953705D01*
X152400000Y-144066205D02*
X152400000Y-144859955D01*
X152400000Y-135334955D02*
X152400000Y-134541205D01*
X152400000Y-139303705D02*
X152400000Y-140097455D01*
X152400000Y-132159955D02*
X152400000Y-131366205D01*
X152400000Y-138509955D02*
X152400000Y-137716205D01*
X152400000Y-142478705D02*
X152400000Y-143272455D01*
X152400000Y-136922455D02*
X152400000Y-136128705D01*
X150018750Y-142478705D02*
X150018750Y-143272455D01*
X150018750Y-140891205D02*
X150018750Y-141684955D01*
X150018750Y-135334955D02*
X150018750Y-134541205D01*
X150018750Y-139303705D02*
X150018750Y-140097455D01*
X150018750Y-133747455D02*
X150018750Y-132953705D01*
X150018750Y-138509955D02*
X150018750Y-137716205D01*
X150018750Y-132159955D02*
X150018750Y-131366205D01*
X150018750Y-144066205D02*
X150018750Y-144859955D01*
X150018750Y-136922455D02*
X150018750Y-136128705D01*
X190406000Y-128004000D02*
X190406000Y-126504000D01*
X185006000Y-128004000D02*
X190406000Y-128004000D01*
X185006000Y-126504000D02*
X185006000Y-128004000D01*
X190406000Y-126504000D02*
X185006000Y-126504000D01*
X187206000Y-126754000D02*
X187206000Y-127754000D01*
X188206000Y-127754000D02*
X187306000Y-127254000D01*
X188206000Y-126754000D02*
X188206000Y-127754000D01*
X187306000Y-127254000D02*
X188206000Y-126754000D01*
X132334000Y-83204000D02*
X131834000Y-82304000D01*
X131834000Y-82304000D02*
X132834000Y-82304000D01*
X132834000Y-82304000D02*
X132334000Y-83204000D01*
X131834000Y-83304000D02*
X132834000Y-83304000D01*
X131584000Y-80104000D02*
X131584000Y-85504000D01*
X131584000Y-85504000D02*
X133084000Y-85504000D01*
X133084000Y-85504000D02*
X133084000Y-80104000D01*
X133084000Y-80104000D02*
X131584000Y-80104000D01*
X140316000Y-51308000D02*
X141216000Y-50808000D01*
X141216000Y-50808000D02*
X141216000Y-51808000D01*
X141216000Y-51808000D02*
X140316000Y-51308000D01*
X140216000Y-50808000D02*
X140216000Y-51808000D01*
X143416000Y-50558000D02*
X138016000Y-50558000D01*
X138016000Y-50558000D02*
X138016000Y-52058000D01*
X138016000Y-52058000D02*
X143416000Y-52058000D01*
X143416000Y-52058000D02*
X143416000Y-50558000D01*
X140062000Y-70358000D02*
X140962000Y-69858000D01*
X140962000Y-69858000D02*
X140962000Y-70858000D01*
X140962000Y-70858000D02*
X140062000Y-70358000D01*
X139962000Y-69858000D02*
X139962000Y-70858000D01*
X143162000Y-69608000D02*
X137762000Y-69608000D01*
X137762000Y-69608000D02*
X137762000Y-71108000D01*
X137762000Y-71108000D02*
X143162000Y-71108000D01*
X143162000Y-71108000D02*
X143162000Y-69608000D01*
X140062000Y-89408000D02*
X140962000Y-88908000D01*
X140962000Y-88908000D02*
X140962000Y-89908000D01*
X140962000Y-89908000D02*
X140062000Y-89408000D01*
X139962000Y-88908000D02*
X139962000Y-89908000D01*
X143162000Y-88658000D02*
X137762000Y-88658000D01*
X137762000Y-88658000D02*
X137762000Y-90158000D01*
X137762000Y-90158000D02*
X143162000Y-90158000D01*
X143162000Y-90158000D02*
X143162000Y-88658000D01*
X143162000Y-109208000D02*
X143162000Y-107708000D01*
X137762000Y-109208000D02*
X143162000Y-109208000D01*
X137762000Y-107708000D02*
X137762000Y-109208000D01*
X143162000Y-107708000D02*
X137762000Y-107708000D01*
X139962000Y-107958000D02*
X139962000Y-108958000D01*
X140962000Y-108958000D02*
X140062000Y-108458000D01*
X140962000Y-107958000D02*
X140962000Y-108958000D01*
X140062000Y-108458000D02*
X140962000Y-107958000D01*
X153068000Y-128258000D02*
X153068000Y-126758000D01*
X147668000Y-128258000D02*
X153068000Y-128258000D01*
X147668000Y-126758000D02*
X147668000Y-128258000D01*
X153068000Y-126758000D02*
X147668000Y-126758000D01*
X149868000Y-127008000D02*
X149868000Y-128008000D01*
X150868000Y-128008000D02*
X149968000Y-127508000D01*
X150868000Y-127008000D02*
X150868000Y-128008000D01*
X149968000Y-127508000D02*
X150868000Y-127008000D01*
X75057000Y-114192000D02*
X74557000Y-113292000D01*
X74557000Y-113292000D02*
X75557000Y-113292000D01*
X75557000Y-113292000D02*
X75057000Y-114192000D01*
X74557000Y-114292000D02*
X75557000Y-114292000D01*
X74307000Y-111092000D02*
X74307000Y-116492000D01*
X74307000Y-116492000D02*
X75807000Y-116492000D01*
X75807000Y-116492000D02*
X75807000Y-111092000D01*
X75807000Y-111092000D02*
X74307000Y-111092000D01*
X86012000Y-64758000D02*
X86012000Y-63258000D01*
X80612000Y-64758000D02*
X86012000Y-64758000D01*
X80612000Y-63258000D02*
X80612000Y-64758000D01*
X86012000Y-63258000D02*
X80612000Y-63258000D01*
X82812000Y-63508000D02*
X82812000Y-64508000D01*
X83812000Y-64508000D02*
X82912000Y-64008000D01*
X83812000Y-63508000D02*
X83812000Y-64508000D01*
X82912000Y-64008000D02*
X83812000Y-63508000D01*
X86012000Y-99302000D02*
X86012000Y-97802000D01*
X80612000Y-99302000D02*
X86012000Y-99302000D01*
X80612000Y-97802000D02*
X80612000Y-99302000D01*
X86012000Y-97802000D02*
X80612000Y-97802000D01*
X82812000Y-98052000D02*
X82812000Y-99052000D01*
X83812000Y-99052000D02*
X82912000Y-98552000D01*
X83812000Y-98052000D02*
X83812000Y-99052000D01*
X82912000Y-98552000D02*
X83812000Y-98052000D01*
X86012000Y-102096000D02*
X86012000Y-100596000D01*
X80612000Y-102096000D02*
X86012000Y-102096000D01*
X80612000Y-100596000D02*
X80612000Y-102096000D01*
X86012000Y-100596000D02*
X80612000Y-100596000D01*
X82812000Y-100846000D02*
X82812000Y-101846000D01*
X83812000Y-101846000D02*
X82912000Y-101346000D01*
X83812000Y-100846000D02*
X83812000Y-101846000D01*
X82912000Y-101346000D02*
X83812000Y-100846000D01*
X86266000Y-121146000D02*
X86266000Y-119646000D01*
X80866000Y-121146000D02*
X86266000Y-121146000D01*
X80866000Y-119646000D02*
X80866000Y-121146000D01*
X86266000Y-119646000D02*
X80866000Y-119646000D01*
X83066000Y-119896000D02*
X83066000Y-120896000D01*
X84066000Y-120896000D02*
X83166000Y-120396000D01*
X84066000Y-119896000D02*
X84066000Y-120896000D01*
X83166000Y-120396000D02*
X84066000Y-119896000D01*
X36830000Y-80918000D02*
X36330000Y-80018000D01*
X36330000Y-80018000D02*
X37330000Y-80018000D01*
X37330000Y-80018000D02*
X36830000Y-80918000D01*
X36330000Y-81018000D02*
X37330000Y-81018000D01*
X36080000Y-77818000D02*
X36080000Y-83218000D01*
X36080000Y-83218000D02*
X37580000Y-83218000D01*
X37580000Y-83218000D02*
X37580000Y-77818000D01*
X37580000Y-77818000D02*
X36080000Y-77818000D01*
X48166000Y-68822000D02*
X48166000Y-67322000D01*
X42766000Y-68822000D02*
X48166000Y-68822000D01*
X42766000Y-67322000D02*
X42766000Y-68822000D01*
X48166000Y-67322000D02*
X42766000Y-67322000D01*
X44966000Y-67572000D02*
X44966000Y-68572000D01*
X45966000Y-68572000D02*
X45066000Y-68072000D01*
X45966000Y-67572000D02*
X45966000Y-68572000D01*
X45066000Y-68072000D02*
X45966000Y-67572000D01*
X105062000Y-90158000D02*
X105062000Y-88658000D01*
X99662000Y-90158000D02*
X105062000Y-90158000D01*
X99662000Y-88658000D02*
X99662000Y-90158000D01*
X105062000Y-88658000D02*
X99662000Y-88658000D01*
X101862000Y-88908000D02*
X101862000Y-89908000D01*
X102862000Y-89908000D02*
X101962000Y-89408000D01*
X102862000Y-88908000D02*
X102862000Y-89908000D01*
X101962000Y-89408000D02*
X102862000Y-88908000D01*
X105062000Y-109208000D02*
X105062000Y-107708000D01*
X99662000Y-109208000D02*
X105062000Y-109208000D01*
X99662000Y-107708000D02*
X99662000Y-109208000D01*
X105062000Y-107708000D02*
X99662000Y-107708000D01*
X101862000Y-107958000D02*
X101862000Y-108958000D01*
X102862000Y-108958000D02*
X101962000Y-108458000D01*
X102862000Y-107958000D02*
X102862000Y-108958000D01*
X101962000Y-108458000D02*
X102862000Y-107958000D01*
X56898932Y-148762249D02*
X56587065Y-147295028D01*
X51616935Y-149884972D02*
X56898932Y-148762249D01*
X51305068Y-148417751D02*
X51616935Y-149884972D01*
X56587065Y-147295028D02*
X51305068Y-148417751D01*
X53508970Y-148204882D02*
X53716882Y-149183030D01*
X54695030Y-148975118D02*
X53710741Y-148673165D01*
X54487118Y-147996970D02*
X54695030Y-148975118D01*
X53710741Y-148673165D02*
X54487118Y-147996970D01*
X94234000Y-86506000D02*
X93734000Y-85606000D01*
X93734000Y-85606000D02*
X94734000Y-85606000D01*
X94734000Y-85606000D02*
X94234000Y-86506000D01*
X93734000Y-86606000D02*
X94734000Y-86606000D01*
X93484000Y-83406000D02*
X93484000Y-88806000D01*
X93484000Y-88806000D02*
X94984000Y-88806000D01*
X94984000Y-88806000D02*
X94984000Y-83406000D01*
X94984000Y-83406000D02*
X93484000Y-83406000D01*
X101962000Y-70358000D02*
X102862000Y-69858000D01*
X102862000Y-69858000D02*
X102862000Y-70858000D01*
X102862000Y-70858000D02*
X101962000Y-70358000D01*
X101862000Y-69858000D02*
X101862000Y-70858000D01*
X105062000Y-69608000D02*
X99662000Y-69608000D01*
X99662000Y-69608000D02*
X99662000Y-71108000D01*
X99662000Y-71108000D02*
X105062000Y-71108000D01*
X105062000Y-71108000D02*
X105062000Y-69608000D01*
X121012000Y-105918000D02*
X121912000Y-105418000D01*
X121912000Y-105418000D02*
X121912000Y-106418000D01*
X121912000Y-106418000D02*
X121012000Y-105918000D01*
X120912000Y-105418000D02*
X120912000Y-106418000D01*
X124112000Y-105168000D02*
X118712000Y-105168000D01*
X118712000Y-105168000D02*
X118712000Y-106668000D01*
X118712000Y-106668000D02*
X124112000Y-106668000D01*
X124112000Y-106668000D02*
X124112000Y-105168000D01*
X113900000Y-129794000D02*
X114800000Y-129294000D01*
X114800000Y-129294000D02*
X114800000Y-130294000D01*
X114800000Y-130294000D02*
X113900000Y-129794000D01*
X113800000Y-129294000D02*
X113800000Y-130294000D01*
X117000000Y-129044000D02*
X111600000Y-129044000D01*
X111600000Y-129044000D02*
X111600000Y-130544000D01*
X111600000Y-130544000D02*
X117000000Y-130544000D01*
X117000000Y-130544000D02*
X117000000Y-129044000D01*
X113030000Y-81045000D02*
X112530000Y-80145000D01*
X112530000Y-80145000D02*
X113530000Y-80145000D01*
X113530000Y-80145000D02*
X113030000Y-81045000D01*
X112530000Y-81145000D02*
X113530000Y-81145000D01*
X112280000Y-77945000D02*
X112280000Y-83345000D01*
X112280000Y-83345000D02*
X113780000Y-83345000D01*
X113780000Y-83345000D02*
X113780000Y-77945000D01*
X113780000Y-77945000D02*
X112280000Y-77945000D01*
X125076000Y-48768000D02*
X125976000Y-48268000D01*
X125976000Y-48268000D02*
X125976000Y-49268000D01*
X125976000Y-49268000D02*
X125076000Y-48768000D01*
X124976000Y-48268000D02*
X124976000Y-49268000D01*
X128176000Y-48018000D02*
X122776000Y-48018000D01*
X122776000Y-48018000D02*
X122776000Y-49518000D01*
X122776000Y-49518000D02*
X128176000Y-49518000D01*
X128176000Y-49518000D02*
X128176000Y-48018000D01*
X121266000Y-68072000D02*
X122166000Y-67572000D01*
X122166000Y-67572000D02*
X122166000Y-68572000D01*
X122166000Y-68572000D02*
X121266000Y-68072000D01*
X121166000Y-67572000D02*
X121166000Y-68572000D01*
X124366000Y-67322000D02*
X118966000Y-67322000D01*
X118966000Y-67322000D02*
X118966000Y-68822000D01*
X118966000Y-68822000D02*
X124366000Y-68822000D01*
X124366000Y-68822000D02*
X124366000Y-67322000D01*
X121012000Y-87122000D02*
X121912000Y-86622000D01*
X121912000Y-86622000D02*
X121912000Y-87622000D01*
X121912000Y-87622000D02*
X121012000Y-87122000D01*
X120912000Y-86622000D02*
X120912000Y-87622000D01*
X124112000Y-86372000D02*
X118712000Y-86372000D01*
X118712000Y-86372000D02*
X118712000Y-87872000D01*
X118712000Y-87872000D02*
X124112000Y-87872000D01*
X124112000Y-87872000D02*
X124112000Y-86372000D01*
X137776000Y-129794000D02*
X138676000Y-129294000D01*
X138676000Y-129294000D02*
X138676000Y-130294000D01*
X138676000Y-130294000D02*
X137776000Y-129794000D01*
X137676000Y-129294000D02*
X137676000Y-130294000D01*
X140876000Y-129044000D02*
X135476000Y-129044000D01*
X135476000Y-129044000D02*
X135476000Y-130544000D01*
X135476000Y-130544000D02*
X140876000Y-130544000D01*
X140876000Y-130544000D02*
X140876000Y-129044000D01*
X170930000Y-82390000D02*
X169430000Y-82390000D01*
X170930000Y-87790000D02*
X170930000Y-82390000D01*
X169430000Y-87790000D02*
X170930000Y-87790000D01*
X169430000Y-82390000D02*
X169430000Y-87790000D01*
X169680000Y-85590000D02*
X170680000Y-85590000D01*
X170680000Y-84590000D02*
X170180000Y-85490000D01*
X169680000Y-84590000D02*
X170680000Y-84590000D01*
X170180000Y-85490000D02*
X169680000Y-84590000D01*
X178162000Y-70104000D02*
X179062000Y-69604000D01*
X179062000Y-69604000D02*
X179062000Y-70604000D01*
X179062000Y-70604000D02*
X178162000Y-70104000D01*
X178062000Y-69604000D02*
X178062000Y-70604000D01*
X181262000Y-69354000D02*
X175862000Y-69354000D01*
X175862000Y-69354000D02*
X175862000Y-70854000D01*
X175862000Y-70854000D02*
X181262000Y-70854000D01*
X181262000Y-70854000D02*
X181262000Y-69354000D01*
X178162000Y-72644000D02*
X179062000Y-72144000D01*
X179062000Y-72144000D02*
X179062000Y-73144000D01*
X179062000Y-73144000D02*
X178162000Y-72644000D01*
X178062000Y-72144000D02*
X178062000Y-73144000D01*
X181262000Y-71894000D02*
X175862000Y-71894000D01*
X175862000Y-71894000D02*
X175862000Y-73394000D01*
X175862000Y-73394000D02*
X181262000Y-73394000D01*
X181262000Y-73394000D02*
X181262000Y-71894000D01*
X178162000Y-91694000D02*
X179062000Y-91194000D01*
X179062000Y-91194000D02*
X179062000Y-92194000D01*
X179062000Y-92194000D02*
X178162000Y-91694000D01*
X178062000Y-91194000D02*
X178062000Y-92194000D01*
X181262000Y-90944000D02*
X175862000Y-90944000D01*
X175862000Y-90944000D02*
X175862000Y-92444000D01*
X175862000Y-92444000D02*
X181262000Y-92444000D01*
X181262000Y-92444000D02*
X181262000Y-90944000D01*
X181083000Y-110744000D02*
X181983000Y-110244000D01*
X181983000Y-110244000D02*
X181983000Y-111244000D01*
X181983000Y-111244000D02*
X181083000Y-110744000D01*
X180983000Y-110244000D02*
X180983000Y-111244000D01*
X184183000Y-109994000D02*
X178783000Y-109994000D01*
X178783000Y-109994000D02*
X178783000Y-111494000D01*
X178783000Y-111494000D02*
X184183000Y-111494000D01*
X184183000Y-111494000D02*
X184183000Y-109994000D01*
X47404000Y-102350000D02*
X47404000Y-100850000D01*
X42004000Y-102350000D02*
X47404000Y-102350000D01*
X42004000Y-100850000D02*
X42004000Y-102350000D01*
X47404000Y-100850000D02*
X42004000Y-100850000D01*
X44204000Y-101100000D02*
X44204000Y-102100000D01*
X45204000Y-102100000D02*
X44304000Y-101600000D01*
X45204000Y-101100000D02*
X45204000Y-102100000D01*
X44304000Y-101600000D02*
X45204000Y-101100000D01*
X46228000Y-109874000D02*
X45728000Y-108974000D01*
X45728000Y-108974000D02*
X46728000Y-108974000D01*
X46728000Y-108974000D02*
X46228000Y-109874000D01*
X45728000Y-109974000D02*
X46728000Y-109974000D01*
X45478000Y-106774000D02*
X45478000Y-112174000D01*
X45478000Y-112174000D02*
X46978000Y-112174000D01*
X46978000Y-112174000D02*
X46978000Y-106774000D01*
X46978000Y-106774000D02*
X45478000Y-106774000D01*
X66962000Y-68822000D02*
X66962000Y-67322000D01*
X61562000Y-68822000D02*
X66962000Y-68822000D01*
X61562000Y-67322000D02*
X61562000Y-68822000D01*
X66962000Y-67322000D02*
X61562000Y-67322000D01*
X63762000Y-67572000D02*
X63762000Y-68572000D01*
X64762000Y-68572000D02*
X63862000Y-68072000D01*
X64762000Y-67572000D02*
X64762000Y-68572000D01*
X63862000Y-68072000D02*
X64762000Y-67572000D01*
X62136000Y-87618000D02*
X62136000Y-86118000D01*
X56736000Y-87618000D02*
X62136000Y-87618000D01*
X56736000Y-86118000D02*
X56736000Y-87618000D01*
X62136000Y-86118000D02*
X56736000Y-86118000D01*
X58936000Y-86368000D02*
X58936000Y-87368000D01*
X59936000Y-87368000D02*
X59036000Y-86868000D01*
X59936000Y-86368000D02*
X59936000Y-87368000D01*
X59036000Y-86868000D02*
X59936000Y-86368000D01*
X59850000Y-106668000D02*
X59850000Y-105168000D01*
X54450000Y-106668000D02*
X59850000Y-106668000D01*
X54450000Y-105168000D02*
X54450000Y-106668000D01*
X59850000Y-105168000D02*
X54450000Y-105168000D01*
X56650000Y-105418000D02*
X56650000Y-106418000D01*
X57650000Y-106418000D02*
X56750000Y-105918000D01*
X57650000Y-105418000D02*
X57650000Y-106418000D01*
X56750000Y-105918000D02*
X57650000Y-105418000D01*
X59596000Y-125972000D02*
X59596000Y-124472000D01*
X54196000Y-125972000D02*
X59596000Y-125972000D01*
X54196000Y-124472000D02*
X54196000Y-125972000D01*
X59596000Y-124472000D02*
X54196000Y-124472000D01*
X56396000Y-124722000D02*
X56396000Y-125722000D01*
X57396000Y-125722000D02*
X56496000Y-125222000D01*
X57396000Y-124722000D02*
X57396000Y-125722000D01*
X56496000Y-125222000D02*
X57396000Y-124722000D01*
X77472932Y-144190249D02*
X77161065Y-142723028D01*
X72190935Y-145312972D02*
X77472932Y-144190249D01*
X71879068Y-143845751D02*
X72190935Y-145312972D01*
X77161065Y-142723028D02*
X71879068Y-143845751D01*
X74082970Y-143632882D02*
X74290882Y-144611030D01*
X75269030Y-144403118D02*
X74284741Y-144101165D01*
X75061118Y-143424970D02*
X75269030Y-144403118D01*
X74284741Y-144101165D02*
X75061118Y-143424970D01*
X163736000Y-54344000D02*
X163736000Y-52844000D01*
X158336000Y-54344000D02*
X163736000Y-54344000D01*
X158336000Y-52844000D02*
X158336000Y-54344000D01*
X163736000Y-52844000D02*
X158336000Y-52844000D01*
X160536000Y-53094000D02*
X160536000Y-54094000D01*
X161536000Y-54094000D02*
X160636000Y-53594000D01*
X161536000Y-53094000D02*
X161536000Y-54094000D01*
X160636000Y-53594000D02*
X161536000Y-53094000D01*
X162466000Y-73394000D02*
X162466000Y-71894000D01*
X157066000Y-73394000D02*
X162466000Y-73394000D01*
X157066000Y-71894000D02*
X157066000Y-73394000D01*
X162466000Y-71894000D02*
X157066000Y-71894000D01*
X159266000Y-72144000D02*
X159266000Y-73144000D01*
X160266000Y-73144000D02*
X159366000Y-72644000D01*
X160266000Y-72144000D02*
X160266000Y-73144000D01*
X159366000Y-72644000D02*
X160266000Y-72144000D01*
X162212000Y-92444000D02*
X162212000Y-90944000D01*
X156812000Y-92444000D02*
X162212000Y-92444000D01*
X156812000Y-90944000D02*
X156812000Y-92444000D01*
X162212000Y-90944000D02*
X156812000Y-90944000D01*
X159012000Y-91194000D02*
X159012000Y-92194000D01*
X160012000Y-92194000D02*
X159112000Y-91694000D01*
X160012000Y-91194000D02*
X160012000Y-92194000D01*
X159112000Y-91694000D02*
X160012000Y-91194000D01*
X162212000Y-111494000D02*
X162212000Y-109994000D01*
X156812000Y-111494000D02*
X162212000Y-111494000D01*
X156812000Y-109994000D02*
X156812000Y-111494000D01*
X162212000Y-109994000D02*
X156812000Y-109994000D01*
X159012000Y-110244000D02*
X159012000Y-111244000D01*
X160012000Y-111244000D02*
X159112000Y-110744000D01*
X160012000Y-110244000D02*
X160012000Y-111244000D01*
X159112000Y-110744000D02*
X160012000Y-110244000D01*
X146493750Y-52531500D02*
X147493750Y-52531500D01*
X147493750Y-52531500D02*
X147493750Y-53531500D01*
X146493750Y-66531500D02*
X147493750Y-66531500D01*
X147493750Y-66531500D02*
X147493750Y-65531500D01*
X133493750Y-65531500D02*
X133493750Y-66531500D01*
X133493750Y-66531500D02*
X134493750Y-66531500D01*
X134493750Y-52531500D02*
X133493750Y-52531500D01*
X133493750Y-52531500D02*
X133493750Y-53531500D01*
X146493750Y-71581580D02*
X147493750Y-71581580D01*
X147493750Y-71581580D02*
X147493750Y-72581580D01*
X146493750Y-85581580D02*
X147493750Y-85581580D01*
X147493750Y-85581580D02*
X147493750Y-84581580D01*
X133493750Y-84581580D02*
X133493750Y-85581580D01*
X133493750Y-85581580D02*
X134493750Y-85581580D01*
X134493750Y-71581580D02*
X133493750Y-71581580D01*
X133493750Y-71581580D02*
X133493750Y-72581580D01*
X146493750Y-90631660D02*
X147493750Y-90631660D01*
X147493750Y-90631660D02*
X147493750Y-91631660D01*
X146493750Y-104631660D02*
X147493750Y-104631660D01*
X147493750Y-104631660D02*
X147493750Y-103631660D01*
X133493750Y-103631660D02*
X133493750Y-104631660D01*
X133493750Y-104631660D02*
X134493750Y-104631660D01*
X134493750Y-90631660D02*
X133493750Y-90631660D01*
X133493750Y-90631660D02*
X133493750Y-91631660D01*
X146493750Y-109681740D02*
X147493750Y-109681740D01*
X147493750Y-109681740D02*
X147493750Y-110681740D01*
X146493750Y-123681740D02*
X147493750Y-123681740D01*
X147493750Y-123681740D02*
X147493750Y-122681740D01*
X133493750Y-122681740D02*
X133493750Y-123681740D01*
X133493750Y-123681740D02*
X134493750Y-123681740D01*
X134493750Y-109681740D02*
X133493750Y-109681740D01*
X133493750Y-109681740D02*
X133493750Y-110681740D01*
X89343750Y-102537960D02*
X90343750Y-102537960D01*
X90343750Y-102537960D02*
X90343750Y-103537960D01*
X89343750Y-116537960D02*
X90343750Y-116537960D01*
X90343750Y-116537960D02*
X90343750Y-115537960D01*
X76343750Y-115537960D02*
X76343750Y-116537960D01*
X76343750Y-116537960D02*
X77343750Y-116537960D01*
X77343750Y-102537960D02*
X76343750Y-102537960D01*
X76343750Y-102537960D02*
X76343750Y-103537960D01*
X51243750Y-69200320D02*
X52243750Y-69200320D01*
X52243750Y-69200320D02*
X52243750Y-70200320D01*
X51243750Y-83200320D02*
X52243750Y-83200320D01*
X52243750Y-83200320D02*
X52243750Y-82200320D01*
X38243750Y-82200320D02*
X38243750Y-83200320D01*
X38243750Y-83200320D02*
X39243750Y-83200320D01*
X39243750Y-69200320D02*
X38243750Y-69200320D01*
X38243750Y-69200320D02*
X38243750Y-70200320D01*
X108393750Y-90631660D02*
X109393750Y-90631660D01*
X109393750Y-90631660D02*
X109393750Y-91631660D01*
X108393750Y-104631660D02*
X109393750Y-104631660D01*
X109393750Y-104631660D02*
X109393750Y-103631660D01*
X95393750Y-103631660D02*
X95393750Y-104631660D01*
X95393750Y-104631660D02*
X96393750Y-104631660D01*
X96393750Y-90631660D02*
X95393750Y-90631660D01*
X95393750Y-90631660D02*
X95393750Y-91631660D01*
X108393750Y-109681740D02*
X109393750Y-109681740D01*
X109393750Y-109681740D02*
X109393750Y-110681740D01*
X108393750Y-123681740D02*
X109393750Y-123681740D01*
X109393750Y-123681740D02*
X109393750Y-122681740D01*
X95393750Y-122681740D02*
X95393750Y-123681740D01*
X95393750Y-123681740D02*
X96393750Y-123681740D01*
X96393750Y-109681740D02*
X95393750Y-109681740D01*
X95393750Y-109681740D02*
X95393750Y-110681740D01*
X108393750Y-52531500D02*
X109393750Y-52531500D01*
X109393750Y-52531500D02*
X109393750Y-53531500D01*
X108393750Y-66531500D02*
X109393750Y-66531500D01*
X109393750Y-66531500D02*
X109393750Y-65531500D01*
X95393750Y-65531500D02*
X95393750Y-66531500D01*
X95393750Y-66531500D02*
X96393750Y-66531500D01*
X96393750Y-52531500D02*
X95393750Y-52531500D01*
X95393750Y-52531500D02*
X95393750Y-53531500D01*
X95393750Y-71581580D02*
X95393750Y-72581580D01*
X96393750Y-71581580D02*
X95393750Y-71581580D01*
X95393750Y-85581580D02*
X96393750Y-85581580D01*
X95393750Y-84581580D02*
X95393750Y-85581580D01*
X109393750Y-85581580D02*
X109393750Y-84581580D01*
X108393750Y-85581580D02*
X109393750Y-85581580D01*
X109393750Y-71581580D02*
X109393750Y-72581580D01*
X108393750Y-71581580D02*
X109393750Y-71581580D01*
X114443750Y-107300480D02*
X114443750Y-108300480D01*
X115443750Y-107300480D02*
X114443750Y-107300480D01*
X114443750Y-121300480D02*
X115443750Y-121300480D01*
X114443750Y-120300480D02*
X114443750Y-121300480D01*
X128443750Y-121300480D02*
X128443750Y-120300480D01*
X127443750Y-121300480D02*
X128443750Y-121300480D01*
X128443750Y-107300480D02*
X128443750Y-108300480D01*
X127443750Y-107300480D02*
X128443750Y-107300480D01*
X107300000Y-131113080D02*
X107300000Y-132113080D01*
X108300000Y-131113080D02*
X107300000Y-131113080D01*
X107300000Y-145113080D02*
X108300000Y-145113080D01*
X107300000Y-144113080D02*
X107300000Y-145113080D01*
X121300000Y-145113080D02*
X121300000Y-144113080D01*
X120300000Y-145113080D02*
X121300000Y-145113080D01*
X121300000Y-131113080D02*
X121300000Y-132113080D01*
X120300000Y-131113080D02*
X121300000Y-131113080D01*
X114443750Y-50150240D02*
X114443750Y-51150240D01*
X115443750Y-50150240D02*
X114443750Y-50150240D01*
X114443750Y-64150240D02*
X115443750Y-64150240D01*
X114443750Y-63150240D02*
X114443750Y-64150240D01*
X128443750Y-64150240D02*
X128443750Y-63150240D01*
X127443750Y-64150240D02*
X128443750Y-64150240D01*
X128443750Y-50150240D02*
X128443750Y-51150240D01*
X127443750Y-50150240D02*
X128443750Y-50150240D01*
X114443750Y-69200320D02*
X114443750Y-70200320D01*
X115443750Y-69200320D02*
X114443750Y-69200320D01*
X114443750Y-83200320D02*
X115443750Y-83200320D01*
X114443750Y-82200320D02*
X114443750Y-83200320D01*
X128443750Y-83200320D02*
X128443750Y-82200320D01*
X127443750Y-83200320D02*
X128443750Y-83200320D01*
X128443750Y-69200320D02*
X128443750Y-70200320D01*
X127443750Y-69200320D02*
X128443750Y-69200320D01*
X114443750Y-88250400D02*
X114443750Y-89250400D01*
X115443750Y-88250400D02*
X114443750Y-88250400D01*
X114443750Y-102250400D02*
X115443750Y-102250400D01*
X114443750Y-101250400D02*
X114443750Y-102250400D01*
X128443750Y-102250400D02*
X128443750Y-101250400D01*
X127443750Y-102250400D02*
X128443750Y-102250400D01*
X128443750Y-88250400D02*
X128443750Y-89250400D01*
X127443750Y-88250400D02*
X128443750Y-88250400D01*
X171593750Y-54912760D02*
X171593750Y-55912760D01*
X172593750Y-54912760D02*
X171593750Y-54912760D01*
X171593750Y-68912760D02*
X172593750Y-68912760D01*
X171593750Y-67912760D02*
X171593750Y-68912760D01*
X185593750Y-68912760D02*
X185593750Y-67912760D01*
X184593750Y-68912760D02*
X185593750Y-68912760D01*
X185593750Y-54912760D02*
X185593750Y-55912760D01*
X184593750Y-54912760D02*
X185593750Y-54912760D01*
X171593750Y-73962840D02*
X171593750Y-74962840D01*
X172593750Y-73962840D02*
X171593750Y-73962840D01*
X171593750Y-87962840D02*
X172593750Y-87962840D01*
X171593750Y-86962840D02*
X171593750Y-87962840D01*
X185593750Y-87962840D02*
X185593750Y-86962840D01*
X184593750Y-87962840D02*
X185593750Y-87962840D01*
X185593750Y-73962840D02*
X185593750Y-74962840D01*
X184593750Y-73962840D02*
X185593750Y-73962840D01*
X171593750Y-93012920D02*
X171593750Y-94012920D01*
X172593750Y-93012920D02*
X171593750Y-93012920D01*
X171593750Y-107012920D02*
X172593750Y-107012920D01*
X171593750Y-106012920D02*
X171593750Y-107012920D01*
X185593750Y-107012920D02*
X185593750Y-106012920D01*
X184593750Y-107012920D02*
X185593750Y-107012920D01*
X185593750Y-93012920D02*
X185593750Y-94012920D01*
X184593750Y-93012920D02*
X185593750Y-93012920D01*
X171593750Y-112063000D02*
X171593750Y-113063000D01*
X172593750Y-112063000D02*
X171593750Y-112063000D01*
X171593750Y-126063000D02*
X172593750Y-126063000D01*
X171593750Y-125063000D02*
X171593750Y-126063000D01*
X185593750Y-126063000D02*
X185593750Y-125063000D01*
X184593750Y-126063000D02*
X185593750Y-126063000D01*
X185593750Y-112063000D02*
X185593750Y-113063000D01*
X184593750Y-112063000D02*
X185593750Y-112063000D01*
X57293750Y-69200320D02*
X57293750Y-70200320D01*
X58293750Y-69200320D02*
X57293750Y-69200320D01*
X57293750Y-83200320D02*
X58293750Y-83200320D01*
X57293750Y-82200320D02*
X57293750Y-83200320D01*
X71293750Y-83200320D02*
X71293750Y-82200320D01*
X70293750Y-83200320D02*
X71293750Y-83200320D01*
X71293750Y-69200320D02*
X71293750Y-70200320D01*
X70293750Y-69200320D02*
X71293750Y-69200320D01*
X63150000Y-107300480D02*
X64150000Y-107300480D01*
X64150000Y-107300480D02*
X64150000Y-108300480D01*
X63150000Y-121300480D02*
X64150000Y-121300480D01*
X64150000Y-121300480D02*
X64150000Y-120300480D01*
X50150000Y-120300480D02*
X50150000Y-121300480D01*
X50150000Y-121300480D02*
X51150000Y-121300480D01*
X51150000Y-107300480D02*
X50150000Y-107300480D01*
X50150000Y-107300480D02*
X50150000Y-108300480D01*
X152543750Y-54912760D02*
X152543750Y-55912760D01*
X153543750Y-54912760D02*
X152543750Y-54912760D01*
X152543750Y-68912760D02*
X153543750Y-68912760D01*
X152543750Y-67912760D02*
X152543750Y-68912760D01*
X166543750Y-68912760D02*
X166543750Y-67912760D01*
X165543750Y-68912760D02*
X166543750Y-68912760D01*
X166543750Y-54912760D02*
X166543750Y-55912760D01*
X165543750Y-54912760D02*
X166543750Y-54912760D01*
X152543750Y-93012920D02*
X152543750Y-94012920D01*
X153543750Y-93012920D02*
X152543750Y-93012920D01*
X152543750Y-107012920D02*
X153543750Y-107012920D01*
X152543750Y-106012920D02*
X152543750Y-107012920D01*
X166543750Y-107012920D02*
X166543750Y-106012920D01*
X165543750Y-107012920D02*
X166543750Y-107012920D01*
X166543750Y-93012920D02*
X166543750Y-94012920D01*
X165543750Y-93012920D02*
X166543750Y-93012920D01*
X185593750Y-145113080D02*
X185593750Y-144113080D01*
X184593750Y-145113080D02*
X185593750Y-145113080D01*
X185593750Y-131113080D02*
X184593750Y-131113080D01*
X185593750Y-132113080D02*
X185593750Y-131113080D01*
X171593750Y-131113080D02*
X171593750Y-132113080D01*
X172593750Y-131113080D02*
X171593750Y-131113080D01*
X171593750Y-145113080D02*
X171593750Y-144113080D01*
X172593750Y-145113080D02*
X171593750Y-145113080D01*
D12*
X55312000Y-62932000D02*
X55312000Y-65592000D01*
X60452000Y-62932000D02*
X55312000Y-62932000D01*
X60452000Y-65592000D02*
X55312000Y-65592000D01*
X60452000Y-62932000D02*
X60452000Y-65592000D01*
X61722000Y-62932000D02*
X63052000Y-62932000D01*
X63052000Y-62932000D02*
X63052000Y-64262000D01*
X189170000Y-115256000D02*
X190500000Y-115256000D01*
X189170000Y-116586000D02*
X189170000Y-115256000D01*
X189170000Y-117856000D02*
X191830000Y-117856000D01*
X191830000Y-117856000D02*
X191830000Y-122996000D01*
X189170000Y-117856000D02*
X189170000Y-122996000D01*
X189170000Y-122996000D02*
X191830000Y-122996000D01*
D10*
X166543750Y-145113080D02*
X166543750Y-144113080D01*
X165543750Y-145113080D02*
X166543750Y-145113080D01*
X166543750Y-131113080D02*
X165543750Y-131113080D01*
X166543750Y-132113080D02*
X166543750Y-131113080D01*
X152543750Y-131113080D02*
X152543750Y-132113080D01*
X153543750Y-131113080D02*
X152543750Y-131113080D01*
X152543750Y-145113080D02*
X152543750Y-144113080D01*
X153543750Y-145113080D02*
X152543750Y-145113080D01*
D12*
X86217000Y-55628001D02*
X86217000Y-58428001D01*
X86217000Y-58428001D02*
X84217000Y-58428001D01*
X84217000Y-58428001D02*
X84217000Y-55628001D01*
X84217000Y-55628001D02*
X86217000Y-55628001D01*
X80153000Y-55638000D02*
X82153000Y-55638000D01*
X80153000Y-58438000D02*
X80153000Y-55638000D01*
X82153000Y-58438000D02*
X80153000Y-58438000D01*
X82153000Y-55638000D02*
X82153000Y-58438000D01*
D10*
X172593000Y-125730000D02*
X182753000Y-125730000D01*
X172593000Y-123190000D02*
X182753000Y-123190000D01*
X182753000Y-123190000D02*
X182753000Y-125730000D01*
X172593000Y-125730000D02*
X172593000Y-123190000D01*
D12*
X159325000Y-51206460D02*
X159625000Y-51506460D01*
X159025000Y-51506460D02*
X159625000Y-51506460D01*
X159325000Y-51206460D02*
X159025000Y-51506460D01*
X158575000Y-51006460D02*
X158575000Y-49006460D01*
X162675000Y-51006460D02*
X158575000Y-51006460D01*
X162675000Y-49006460D02*
X162675000Y-51006460D01*
X158575000Y-49006460D02*
X162675000Y-49006460D01*
X166479000Y-49006460D02*
X170579000Y-49006460D01*
X170579000Y-49006460D02*
X170579000Y-51006460D01*
X170579000Y-51006460D02*
X166479000Y-51006460D01*
X166479000Y-51006460D02*
X166479000Y-49006460D01*
X167229000Y-51206460D02*
X166929000Y-51506460D01*
X166929000Y-51506460D02*
X167529000Y-51506460D01*
X167229000Y-51206460D02*
X167529000Y-51506460D01*
D10*
X82010416Y-64142561D02*
X82153273Y-64190180D01*
X82391369Y-64190180D01*
X82486607Y-64142561D01*
X82534226Y-64094942D01*
X82581845Y-63999704D01*
X82581845Y-63904466D01*
X82534226Y-63809228D01*
X82486607Y-63761609D01*
X82391369Y-63713990D01*
X82200892Y-63666371D01*
X82105654Y-63618752D01*
X82058035Y-63571133D01*
X82010416Y-63475895D01*
X82010416Y-63380657D01*
X82058035Y-63285419D01*
X82105654Y-63237800D01*
X82200892Y-63190180D01*
X82438988Y-63190180D01*
X82581845Y-63237800D01*
X82915178Y-63190180D02*
X83153273Y-64190180D01*
X83343750Y-63475895D01*
X83534226Y-64190180D01*
X83772321Y-63190180D01*
X84581845Y-63190180D02*
X84391369Y-63190180D01*
X84296130Y-63237800D01*
X84248511Y-63285419D01*
X84153273Y-63428276D01*
X84105654Y-63618752D01*
X84105654Y-63999704D01*
X84153273Y-64094942D01*
X84200892Y-64142561D01*
X84296130Y-64190180D01*
X84486607Y-64190180D01*
X84581845Y-64142561D01*
X84629464Y-64094942D01*
X84677083Y-63999704D01*
X84677083Y-63761609D01*
X84629464Y-63666371D01*
X84581845Y-63618752D01*
X84486607Y-63571133D01*
X84296130Y-63571133D01*
X84200892Y-63618752D01*
X84153273Y-63666371D01*
X84105654Y-63761609D01*
X66448774Y-155540262D02*
X66543819Y-155987415D01*
X66496297Y-155763839D02*
X65713779Y-155930168D01*
X65841408Y-155980932D01*
X65931774Y-156039617D01*
X65984878Y-156106222D01*
X66302965Y-155220738D02*
X66332307Y-155175555D01*
X66377490Y-155204897D01*
X66348148Y-155250081D01*
X66302965Y-155220738D01*
X66377490Y-155204897D01*
X65598214Y-155020021D02*
X65553030Y-154990679D01*
X65499927Y-154924074D01*
X65460324Y-154737760D01*
X65481746Y-154655314D01*
X65511089Y-154610130D01*
X65577694Y-154557027D01*
X65652219Y-154541186D01*
X65771928Y-154554687D01*
X66314127Y-154906795D01*
X66211161Y-154422379D01*
X65278154Y-153880716D02*
X65357359Y-154253344D01*
X65737907Y-154211402D01*
X65692724Y-154182060D01*
X65639620Y-154115455D01*
X65600018Y-153929141D01*
X65621440Y-153846695D01*
X65650782Y-153801512D01*
X65717387Y-153748408D01*
X65903701Y-153708806D01*
X65986147Y-153730228D01*
X66031330Y-153759570D01*
X66084434Y-153826175D01*
X66124036Y-154012489D01*
X66102614Y-154094935D01*
X66073272Y-154140118D01*
X65198950Y-153508088D02*
X65832417Y-153373441D01*
X65899022Y-153320337D01*
X65928364Y-153275154D01*
X65949786Y-153192708D01*
X65918104Y-153043657D01*
X65865001Y-152977052D01*
X65819817Y-152947710D01*
X65737371Y-152926288D01*
X65103904Y-153060935D01*
X61790346Y-156530441D02*
X61885391Y-156977594D01*
X61837869Y-156754018D02*
X61055351Y-156920347D01*
X61182980Y-156971111D01*
X61273346Y-157029796D01*
X61326450Y-157096401D01*
X61644537Y-156210917D02*
X61673879Y-156165734D01*
X61719062Y-156195076D01*
X61689720Y-156240260D01*
X61644537Y-156210917D01*
X61719062Y-156195076D01*
X60873180Y-156063304D02*
X60762294Y-155541625D01*
X61616096Y-155710660D01*
X60619726Y-154870895D02*
X60698931Y-155243523D01*
X61079479Y-155201581D01*
X61034296Y-155172239D01*
X60981192Y-155105634D01*
X60941590Y-154919320D01*
X60963012Y-154836874D01*
X60992354Y-154791691D01*
X61058959Y-154738587D01*
X61245273Y-154698985D01*
X61327719Y-154720407D01*
X61372902Y-154749749D01*
X61426006Y-154816354D01*
X61465608Y-155002668D01*
X61444186Y-155085114D01*
X61414844Y-155130297D01*
X60540522Y-154498267D02*
X61173989Y-154363620D01*
X61240594Y-154310516D01*
X61269936Y-154265333D01*
X61291358Y-154182887D01*
X61259676Y-154033836D01*
X61206573Y-153967231D01*
X61161389Y-153937889D01*
X61078943Y-153916467D01*
X60445476Y-154051114D01*
X64040356Y-155662724D02*
X64135401Y-156109877D01*
X64087878Y-155886300D02*
X63305360Y-156052630D01*
X63432989Y-156103394D01*
X63523356Y-156162078D01*
X63576460Y-156228683D01*
X63894546Y-155343200D02*
X63923888Y-155298016D01*
X63969072Y-155327359D01*
X63939729Y-155372542D01*
X63894546Y-155343200D01*
X63969072Y-155327359D01*
X63028145Y-154748433D02*
X63107349Y-155121060D01*
X63487897Y-155079119D01*
X63442714Y-155049776D01*
X63389610Y-154983171D01*
X63350008Y-154796857D01*
X63371430Y-154714411D01*
X63400772Y-154669228D01*
X63467377Y-154616125D01*
X63653691Y-154576522D01*
X63736137Y-154597944D01*
X63781320Y-154627287D01*
X63834424Y-154693892D01*
X63874026Y-154880206D01*
X63852604Y-154962651D01*
X63823262Y-155007835D01*
X62948940Y-154375805D02*
X63582407Y-154241158D01*
X63649012Y-154188054D01*
X63678355Y-154142871D01*
X63699777Y-154060425D01*
X63668095Y-153911374D01*
X63614991Y-153844769D01*
X63569808Y-153815426D01*
X63487362Y-153794004D01*
X62853895Y-153928652D01*
X58650174Y-156691604D02*
X58604991Y-156662261D01*
X58551887Y-156595656D01*
X58512285Y-156409343D01*
X58533707Y-156326897D01*
X58563049Y-156281713D01*
X58629654Y-156228610D01*
X58704180Y-156212769D01*
X58823888Y-156226270D01*
X59366087Y-156578378D01*
X59263121Y-156093962D01*
X58409319Y-155924927D02*
X59042786Y-155790279D01*
X59109391Y-155737175D01*
X59138733Y-155691992D01*
X59160155Y-155609546D01*
X59128473Y-155460495D01*
X59075370Y-155393890D01*
X59030187Y-155364548D01*
X58947741Y-155343126D01*
X58314274Y-155477773D01*
X56518971Y-158118263D02*
X56473788Y-158088921D01*
X56420684Y-158022315D01*
X56381082Y-157836002D01*
X56402504Y-157753556D01*
X56431846Y-157708372D01*
X56498451Y-157655269D01*
X56572977Y-157639428D01*
X56692685Y-157652929D01*
X57234884Y-158005037D01*
X57131918Y-157520621D01*
X56986109Y-157201097D02*
X57015451Y-157155914D01*
X57060634Y-157185256D01*
X57031292Y-157230440D01*
X56986109Y-157201097D01*
X57060634Y-157185256D01*
X56281358Y-157000380D02*
X56236174Y-156971038D01*
X56183071Y-156904433D01*
X56143468Y-156718119D01*
X56164890Y-156635673D01*
X56194233Y-156590489D01*
X56260838Y-156537386D01*
X56335363Y-156521545D01*
X56455072Y-156535046D01*
X56997271Y-156887154D01*
X56894305Y-156402738D01*
X55961298Y-155861075D02*
X56040503Y-156233703D01*
X56421051Y-156191761D01*
X56375868Y-156162419D01*
X56322764Y-156095814D01*
X56283162Y-155909500D01*
X56304584Y-155827054D01*
X56333926Y-155781871D01*
X56400531Y-155728767D01*
X56586845Y-155689165D01*
X56669291Y-155710587D01*
X56714474Y-155739929D01*
X56767578Y-155806534D01*
X56807180Y-155992848D01*
X56785758Y-156075294D01*
X56756416Y-156120477D01*
X55882094Y-155488447D02*
X56515561Y-155353800D01*
X56582166Y-155300696D01*
X56611508Y-155255513D01*
X56632930Y-155173067D01*
X56601248Y-155024016D01*
X56548145Y-154957411D01*
X56502961Y-154928069D01*
X56420515Y-154906647D01*
X55787048Y-155041294D01*
X51860543Y-159108442D02*
X51815360Y-159079100D01*
X51762256Y-159012494D01*
X51722654Y-158826181D01*
X51744076Y-158743735D01*
X51773418Y-158698551D01*
X51840023Y-158645448D01*
X51914549Y-158629607D01*
X52034257Y-158643108D01*
X52576456Y-158995216D01*
X52473490Y-158510800D01*
X52327681Y-158191276D02*
X52357023Y-158146093D01*
X52402206Y-158175435D01*
X52372864Y-158220619D01*
X52327681Y-158191276D01*
X52402206Y-158175435D01*
X51556324Y-158043663D02*
X51445438Y-157521984D01*
X52299240Y-157691019D01*
X51302870Y-156851254D02*
X51382075Y-157223882D01*
X51762623Y-157181940D01*
X51717440Y-157152598D01*
X51664336Y-157085993D01*
X51624734Y-156899679D01*
X51646156Y-156817233D01*
X51675498Y-156772050D01*
X51742103Y-156718946D01*
X51928417Y-156679344D01*
X52010863Y-156700766D01*
X52056046Y-156730108D01*
X52109150Y-156796713D01*
X52148752Y-156983027D01*
X52127330Y-157065473D01*
X52097988Y-157110656D01*
X51223666Y-156478626D02*
X51857133Y-156343979D01*
X51923738Y-156290875D01*
X51953080Y-156245692D01*
X51974502Y-156163246D01*
X51942820Y-156014195D01*
X51889717Y-155947590D01*
X51844533Y-155918248D01*
X51762087Y-155896826D01*
X51128620Y-156031473D01*
X86228481Y-148999177D02*
X86133436Y-148552024D01*
X86180958Y-148775600D02*
X86963476Y-148609271D01*
X86835847Y-148558507D01*
X86745481Y-148499822D01*
X86692377Y-148433217D01*
X86374290Y-149318701D02*
X86344948Y-149363884D01*
X86299765Y-149334542D01*
X86329107Y-149289358D01*
X86374290Y-149318701D01*
X86299765Y-149334542D01*
X87079041Y-149519418D02*
X87124225Y-149548760D01*
X87177328Y-149615365D01*
X87216931Y-149801679D01*
X87195509Y-149884125D01*
X87166166Y-149929309D01*
X87099561Y-149982412D01*
X87025036Y-149998253D01*
X86905327Y-149984752D01*
X86363128Y-149632644D01*
X86466094Y-150117060D01*
X87399101Y-150658723D02*
X87319896Y-150286095D01*
X86939348Y-150328037D01*
X86984531Y-150357379D01*
X87037635Y-150423984D01*
X87077237Y-150610298D01*
X87055815Y-150692744D01*
X87026473Y-150737927D01*
X86959868Y-150791031D01*
X86773554Y-150830633D01*
X86691108Y-150809211D01*
X86645925Y-150779869D01*
X86592821Y-150713264D01*
X86553219Y-150526950D01*
X86574641Y-150444504D01*
X86603983Y-150399321D01*
X87478305Y-151031351D02*
X86844838Y-151165998D01*
X86778233Y-151219102D01*
X86748891Y-151264285D01*
X86727469Y-151346731D01*
X86759151Y-151495782D01*
X86812254Y-151562387D01*
X86857438Y-151591729D01*
X86939884Y-151613151D01*
X87573351Y-151478504D01*
X88636899Y-148876715D02*
X88541854Y-148429562D01*
X88589377Y-148653139D02*
X89371895Y-148486809D01*
X89244266Y-148436045D01*
X89153899Y-148377361D01*
X89100795Y-148310756D01*
X88782709Y-149196239D02*
X88753367Y-149241423D01*
X88708183Y-149212080D01*
X88737526Y-149166897D01*
X88782709Y-149196239D01*
X88708183Y-149212080D01*
X89649110Y-149791006D02*
X89569906Y-149418379D01*
X89189358Y-149460320D01*
X89234541Y-149489663D01*
X89287645Y-149556268D01*
X89327247Y-149742582D01*
X89305825Y-149825028D01*
X89276483Y-149870211D01*
X89209878Y-149923314D01*
X89023564Y-149962917D01*
X88941118Y-149941495D01*
X88895935Y-149912152D01*
X88842831Y-149845547D01*
X88803229Y-149659233D01*
X88824651Y-149576788D01*
X88853993Y-149531604D01*
X89728315Y-150163634D02*
X89094848Y-150298281D01*
X89028243Y-150351385D01*
X88998900Y-150396568D01*
X88977478Y-150479014D01*
X89009160Y-150628065D01*
X89062264Y-150694670D01*
X89107447Y-150724013D01*
X89189893Y-150745435D01*
X89823360Y-150610787D01*
X90886909Y-148008998D02*
X90791864Y-147561845D01*
X90839386Y-147785421D02*
X91621904Y-147619092D01*
X91494275Y-147568328D01*
X91403909Y-147509643D01*
X91350805Y-147443038D01*
X91032718Y-148328522D02*
X91003376Y-148373705D01*
X90958193Y-148344363D01*
X90987535Y-148299179D01*
X91032718Y-148328522D01*
X90958193Y-148344363D01*
X91804075Y-148476135D02*
X91914961Y-148997814D01*
X91061159Y-148828779D01*
X92057529Y-149668544D02*
X91978324Y-149295916D01*
X91597776Y-149337858D01*
X91642959Y-149367200D01*
X91696063Y-149433805D01*
X91735665Y-149620119D01*
X91714243Y-149702565D01*
X91684901Y-149747748D01*
X91618296Y-149800852D01*
X91431982Y-149840454D01*
X91349536Y-149819032D01*
X91304353Y-149789690D01*
X91251249Y-149723085D01*
X91211647Y-149536771D01*
X91233069Y-149454325D01*
X91262411Y-149409142D01*
X92136733Y-150041172D02*
X91503266Y-150175819D01*
X91436661Y-150228923D01*
X91407319Y-150274106D01*
X91385897Y-150356552D01*
X91417579Y-150505603D01*
X91470682Y-150572208D01*
X91515866Y-150601550D01*
X91598312Y-150622972D01*
X92231779Y-150488325D01*
X94027081Y-147847835D02*
X94072264Y-147877178D01*
X94125368Y-147943783D01*
X94164970Y-148130096D01*
X94143548Y-148212542D01*
X94114206Y-148257726D01*
X94047601Y-148310829D01*
X93973075Y-148326670D01*
X93853367Y-148313169D01*
X93311168Y-147961061D01*
X93414134Y-148445477D01*
X94267936Y-148614512D02*
X93634469Y-148749160D01*
X93567864Y-148802264D01*
X93538522Y-148847447D01*
X93517100Y-148929893D01*
X93548782Y-149078944D01*
X93601885Y-149145549D01*
X93647068Y-149174891D01*
X93729514Y-149196313D01*
X94362981Y-149061666D01*
X96158284Y-146421176D02*
X96203467Y-146450518D01*
X96256571Y-146517124D01*
X96296173Y-146703437D01*
X96274751Y-146785883D01*
X96245409Y-146831067D01*
X96178804Y-146884170D01*
X96104278Y-146900011D01*
X95984570Y-146886510D01*
X95442371Y-146534402D01*
X95545337Y-147018818D01*
X95691146Y-147338342D02*
X95661804Y-147383525D01*
X95616621Y-147354183D01*
X95645963Y-147308999D01*
X95691146Y-147338342D01*
X95616621Y-147354183D01*
X96395897Y-147539059D02*
X96441081Y-147568401D01*
X96494184Y-147635006D01*
X96533787Y-147821320D01*
X96512365Y-147903766D01*
X96483022Y-147948950D01*
X96416417Y-148002053D01*
X96341892Y-148017894D01*
X96222183Y-148004393D01*
X95679984Y-147652285D01*
X95782950Y-148136701D01*
X96715957Y-148678364D02*
X96636752Y-148305736D01*
X96256204Y-148347678D01*
X96301387Y-148377020D01*
X96354491Y-148443625D01*
X96394093Y-148629939D01*
X96372671Y-148712385D01*
X96343329Y-148757568D01*
X96276724Y-148810672D01*
X96090410Y-148850274D01*
X96007964Y-148828852D01*
X95962781Y-148799510D01*
X95909677Y-148732905D01*
X95870075Y-148546591D01*
X95891497Y-148464145D01*
X95920839Y-148418962D01*
X96795161Y-149050992D02*
X96161694Y-149185639D01*
X96095089Y-149238743D01*
X96065747Y-149283926D01*
X96044325Y-149366372D01*
X96076007Y-149515423D01*
X96129110Y-149582028D01*
X96174294Y-149611370D01*
X96256740Y-149632792D01*
X96890207Y-149498145D01*
X100816712Y-145430997D02*
X100861895Y-145460339D01*
X100914999Y-145526945D01*
X100954601Y-145713258D01*
X100933179Y-145795704D01*
X100903837Y-145840888D01*
X100837232Y-145893991D01*
X100762706Y-145909832D01*
X100642998Y-145896331D01*
X100100799Y-145544223D01*
X100203765Y-146028639D01*
X100349574Y-146348163D02*
X100320232Y-146393346D01*
X100275049Y-146364004D01*
X100304391Y-146318820D01*
X100349574Y-146348163D01*
X100275049Y-146364004D01*
X101120931Y-146495776D02*
X101231817Y-147017455D01*
X100378015Y-146848420D01*
X101374385Y-147688185D02*
X101295180Y-147315557D01*
X100914632Y-147357499D01*
X100959815Y-147386841D01*
X101012919Y-147453446D01*
X101052521Y-147639760D01*
X101031099Y-147722206D01*
X101001757Y-147767389D01*
X100935152Y-147820493D01*
X100748838Y-147860095D01*
X100666392Y-147838673D01*
X100621209Y-147809331D01*
X100568105Y-147742726D01*
X100528503Y-147556412D01*
X100549925Y-147473966D01*
X100579267Y-147428783D01*
X101453589Y-148060813D02*
X100820122Y-148195460D01*
X100753517Y-148248564D01*
X100724175Y-148293747D01*
X100702753Y-148376193D01*
X100734435Y-148525244D01*
X100787538Y-148591849D01*
X100832722Y-148621191D01*
X100915168Y-148642613D01*
X101548635Y-148507966D01*
X186944380Y-111069285D02*
X185944380Y-111069285D01*
X185944380Y-110831190D01*
X185992000Y-110688333D01*
X186087238Y-110593095D01*
X186182476Y-110545476D01*
X186372952Y-110497857D01*
X186515809Y-110497857D01*
X186706285Y-110545476D01*
X186801523Y-110593095D01*
X186896761Y-110688333D01*
X186944380Y-110831190D01*
X186944380Y-111069285D01*
X186277714Y-109640714D02*
X186944380Y-109640714D01*
X185896761Y-109878809D02*
X186611047Y-110116904D01*
X186611047Y-109497857D01*
X185944380Y-108640714D02*
X185944380Y-109116904D01*
X186420571Y-109164523D01*
X186372952Y-109116904D01*
X186325333Y-109021666D01*
X186325333Y-108783571D01*
X186372952Y-108688333D01*
X186420571Y-108640714D01*
X186515809Y-108593095D01*
X186753904Y-108593095D01*
X186849142Y-108640714D01*
X186896761Y-108688333D01*
X186944380Y-108783571D01*
X186944380Y-109021666D01*
X186896761Y-109116904D01*
X186849142Y-109164523D01*
X188844380Y-113719285D02*
X188844380Y-114290714D01*
X188844380Y-114005000D02*
X187844380Y-114005000D01*
X187987238Y-114100238D01*
X188082476Y-114195476D01*
X188130095Y-114290714D01*
X186944380Y-102560285D02*
X185944380Y-102560285D01*
X185944380Y-102322190D01*
X185992000Y-102179333D01*
X186087238Y-102084095D01*
X186182476Y-102036476D01*
X186372952Y-101988857D01*
X186515809Y-101988857D01*
X186706285Y-102036476D01*
X186801523Y-102084095D01*
X186896761Y-102179333D01*
X186944380Y-102322190D01*
X186944380Y-102560285D01*
X186277714Y-101131714D02*
X186944380Y-101131714D01*
X185896761Y-101369809D02*
X186611047Y-101607904D01*
X186611047Y-100988857D01*
X185944380Y-100179333D02*
X185944380Y-100369809D01*
X185992000Y-100465047D01*
X186039619Y-100512666D01*
X186182476Y-100607904D01*
X186372952Y-100655523D01*
X186753904Y-100655523D01*
X186849142Y-100607904D01*
X186896761Y-100560285D01*
X186944380Y-100465047D01*
X186944380Y-100274571D01*
X186896761Y-100179333D01*
X186849142Y-100131714D01*
X186753904Y-100084095D01*
X186515809Y-100084095D01*
X186420571Y-100131714D01*
X186372952Y-100179333D01*
X186325333Y-100274571D01*
X186325333Y-100465047D01*
X186372952Y-100560285D01*
X186420571Y-100607904D01*
X186515809Y-100655523D01*
X188844380Y-105210285D02*
X188844380Y-105781714D01*
X188844380Y-105496000D02*
X187844380Y-105496000D01*
X187987238Y-105591238D01*
X188082476Y-105686476D01*
X188130095Y-105781714D01*
X111252095Y-57323380D02*
X111252095Y-56323380D01*
X111252095Y-56799571D02*
X111823523Y-56799571D01*
X111823523Y-57323380D02*
X111823523Y-56323380D01*
X112204476Y-56323380D02*
X112823523Y-56323380D01*
X112490190Y-56704333D01*
X112633047Y-56704333D01*
X112728285Y-56751952D01*
X112775904Y-56799571D01*
X112823523Y-56894809D01*
X112823523Y-57132904D01*
X112775904Y-57228142D01*
X112728285Y-57275761D01*
X112633047Y-57323380D01*
X112347333Y-57323380D01*
X112252095Y-57275761D01*
X112204476Y-57228142D01*
X66675095Y-110663380D02*
X66675095Y-109663380D01*
X66675095Y-110139571D02*
X67246523Y-110139571D01*
X67246523Y-110663380D02*
X67246523Y-109663380D01*
X68151285Y-109996714D02*
X68151285Y-110663380D01*
X67913190Y-109615761D02*
X67675095Y-110330047D01*
X68294142Y-110330047D01*
X124968095Y-136063380D02*
X124968095Y-135063380D01*
X124968095Y-135539571D02*
X125539523Y-135539571D01*
X125539523Y-136063380D02*
X125539523Y-135063380D01*
X126491904Y-135063380D02*
X126015714Y-135063380D01*
X125968095Y-135539571D01*
X126015714Y-135491952D01*
X126110952Y-135444333D01*
X126349047Y-135444333D01*
X126444285Y-135491952D01*
X126491904Y-135539571D01*
X126539523Y-135634809D01*
X126539523Y-135872904D01*
X126491904Y-135968142D01*
X126444285Y-136015761D01*
X126349047Y-136063380D01*
X126110952Y-136063380D01*
X126015714Y-136015761D01*
X125968095Y-135968142D01*
X168402095Y-102154380D02*
X168402095Y-101154380D01*
X168402095Y-101630571D02*
X168973523Y-101630571D01*
X168973523Y-102154380D02*
X168973523Y-101154380D01*
X169878285Y-101154380D02*
X169687809Y-101154380D01*
X169592571Y-101202000D01*
X169544952Y-101249619D01*
X169449714Y-101392476D01*
X169402095Y-101582952D01*
X169402095Y-101963904D01*
X169449714Y-102059142D01*
X169497333Y-102106761D01*
X169592571Y-102154380D01*
X169783047Y-102154380D01*
X169878285Y-102106761D01*
X169925904Y-102059142D01*
X169973523Y-101963904D01*
X169973523Y-101725809D01*
X169925904Y-101630571D01*
X169878285Y-101582952D01*
X169783047Y-101535333D01*
X169592571Y-101535333D01*
X169497333Y-101582952D01*
X169449714Y-101630571D01*
X169402095Y-101725809D01*
X190166666Y-127424380D02*
X190166666Y-128138666D01*
X190119047Y-128281523D01*
X190023809Y-128376761D01*
X189880952Y-128424380D01*
X189785714Y-128424380D01*
X190595238Y-127519619D02*
X190642857Y-127472000D01*
X190738095Y-127424380D01*
X190976190Y-127424380D01*
X191071428Y-127472000D01*
X191119047Y-127519619D01*
X191166666Y-127614857D01*
X191166666Y-127710095D01*
X191119047Y-127852952D01*
X190547619Y-128424380D01*
X191166666Y-128424380D01*
X158715029Y-139198794D02*
X158715029Y-139655937D01*
X158715029Y-139427365D02*
X157915029Y-139427365D01*
X158029315Y-139503556D01*
X158105505Y-139579746D01*
X158143601Y-139655937D01*
X158638839Y-138855937D02*
X158676934Y-138817841D01*
X158715029Y-138855937D01*
X158676934Y-138894032D01*
X158638839Y-138855937D01*
X158715029Y-138855937D01*
X157991220Y-138513080D02*
X157953125Y-138474984D01*
X157915029Y-138398794D01*
X157915029Y-138208318D01*
X157953125Y-138132127D01*
X157991220Y-138094032D01*
X158067410Y-138055937D01*
X158143601Y-138055937D01*
X158257886Y-138094032D01*
X158715029Y-138551175D01*
X158715029Y-138055937D01*
X157915029Y-137332127D02*
X157915029Y-137713080D01*
X158295982Y-137751175D01*
X158257886Y-137713080D01*
X158219791Y-137636889D01*
X158219791Y-137446413D01*
X158257886Y-137370222D01*
X158295982Y-137332127D01*
X158372172Y-137294032D01*
X158562648Y-137294032D01*
X158638839Y-137332127D01*
X158676934Y-137370222D01*
X158715029Y-137446413D01*
X158715029Y-137636889D01*
X158676934Y-137713080D01*
X158638839Y-137751175D01*
X158181696Y-136608318D02*
X158715029Y-136608318D01*
X158181696Y-136951175D02*
X158600744Y-136951175D01*
X158676934Y-136913080D01*
X158715029Y-136836889D01*
X158715029Y-136722603D01*
X158676934Y-136646413D01*
X158638839Y-136608318D01*
X153952529Y-139198794D02*
X153952529Y-139655937D01*
X153952529Y-139427365D02*
X153152529Y-139427365D01*
X153266815Y-139503556D01*
X153343005Y-139579746D01*
X153381101Y-139655937D01*
X153876339Y-138855937D02*
X153914434Y-138817841D01*
X153952529Y-138855937D01*
X153914434Y-138894032D01*
X153876339Y-138855937D01*
X153952529Y-138855937D01*
X153152529Y-138551175D02*
X153152529Y-138017841D01*
X153952529Y-138360699D01*
X153152529Y-137332127D02*
X153152529Y-137713080D01*
X153533482Y-137751175D01*
X153495386Y-137713080D01*
X153457291Y-137636889D01*
X153457291Y-137446413D01*
X153495386Y-137370222D01*
X153533482Y-137332127D01*
X153609672Y-137294032D01*
X153800148Y-137294032D01*
X153876339Y-137332127D01*
X153914434Y-137370222D01*
X153952529Y-137446413D01*
X153952529Y-137636889D01*
X153914434Y-137713080D01*
X153876339Y-137751175D01*
X153419196Y-136608318D02*
X153952529Y-136608318D01*
X153419196Y-136951175D02*
X153838244Y-136951175D01*
X153914434Y-136913080D01*
X153952529Y-136836889D01*
X153952529Y-136722603D01*
X153914434Y-136646413D01*
X153876339Y-136608318D01*
X156333779Y-138817841D02*
X156333779Y-139274984D01*
X156333779Y-139046413D02*
X155533779Y-139046413D01*
X155648065Y-139122603D01*
X155724255Y-139198794D01*
X155762351Y-139274984D01*
X156257589Y-138474984D02*
X156295684Y-138436889D01*
X156333779Y-138474984D01*
X156295684Y-138513080D01*
X156257589Y-138474984D01*
X156333779Y-138474984D01*
X155533779Y-137713080D02*
X155533779Y-138094032D01*
X155914732Y-138132127D01*
X155876636Y-138094032D01*
X155838541Y-138017841D01*
X155838541Y-137827365D01*
X155876636Y-137751175D01*
X155914732Y-137713080D01*
X155990922Y-137674984D01*
X156181398Y-137674984D01*
X156257589Y-137713080D01*
X156295684Y-137751175D01*
X156333779Y-137827365D01*
X156333779Y-138017841D01*
X156295684Y-138094032D01*
X156257589Y-138132127D01*
X155800446Y-136989270D02*
X156333779Y-136989270D01*
X155800446Y-137332127D02*
X156219494Y-137332127D01*
X156295684Y-137294032D01*
X156333779Y-137217841D01*
X156333779Y-137103556D01*
X156295684Y-137027365D01*
X156257589Y-136989270D01*
X150847470Y-138703556D02*
X150809375Y-138665460D01*
X150771279Y-138589270D01*
X150771279Y-138398794D01*
X150809375Y-138322603D01*
X150847470Y-138284508D01*
X150923660Y-138246413D01*
X150999851Y-138246413D01*
X151114136Y-138284508D01*
X151571279Y-138741651D01*
X151571279Y-138246413D01*
X151037946Y-137560699D02*
X151571279Y-137560699D01*
X151037946Y-137903556D02*
X151456994Y-137903556D01*
X151533184Y-137865460D01*
X151571279Y-137789270D01*
X151571279Y-137674984D01*
X151533184Y-137598794D01*
X151495089Y-137560699D01*
X179422470Y-137027365D02*
X179422470Y-136570222D01*
X179422470Y-136798794D02*
X180222470Y-136798794D01*
X180108184Y-136722603D01*
X180031994Y-136646413D01*
X179993898Y-136570222D01*
X179498660Y-137370222D02*
X179460565Y-137408318D01*
X179422470Y-137370222D01*
X179460565Y-137332127D01*
X179498660Y-137370222D01*
X179422470Y-137370222D01*
X180146279Y-137713080D02*
X180184375Y-137751175D01*
X180222470Y-137827365D01*
X180222470Y-138017841D01*
X180184375Y-138094032D01*
X180146279Y-138132127D01*
X180070089Y-138170222D01*
X179993898Y-138170222D01*
X179879613Y-138132127D01*
X179422470Y-137674984D01*
X179422470Y-138170222D01*
X180222470Y-138894032D02*
X180222470Y-138513080D01*
X179841517Y-138474984D01*
X179879613Y-138513080D01*
X179917708Y-138589270D01*
X179917708Y-138779746D01*
X179879613Y-138855937D01*
X179841517Y-138894032D01*
X179765327Y-138932127D01*
X179574851Y-138932127D01*
X179498660Y-138894032D01*
X179460565Y-138855937D01*
X179422470Y-138779746D01*
X179422470Y-138589270D01*
X179460565Y-138513080D01*
X179498660Y-138474984D01*
X179955803Y-139617841D02*
X179422470Y-139617841D01*
X179955803Y-139274984D02*
X179536755Y-139274984D01*
X179460565Y-139313080D01*
X179422470Y-139389270D01*
X179422470Y-139503556D01*
X179460565Y-139579746D01*
X179498660Y-139617841D01*
X181803720Y-137408318D02*
X181803720Y-136951175D01*
X181803720Y-137179746D02*
X182603720Y-137179746D01*
X182489434Y-137103556D01*
X182413244Y-137027365D01*
X182375148Y-136951175D01*
X181879910Y-137751175D02*
X181841815Y-137789270D01*
X181803720Y-137751175D01*
X181841815Y-137713080D01*
X181879910Y-137751175D01*
X181803720Y-137751175D01*
X182603720Y-138513080D02*
X182603720Y-138132127D01*
X182222767Y-138094032D01*
X182260863Y-138132127D01*
X182298958Y-138208318D01*
X182298958Y-138398794D01*
X182260863Y-138474984D01*
X182222767Y-138513080D01*
X182146577Y-138551175D01*
X181956101Y-138551175D01*
X181879910Y-138513080D01*
X181841815Y-138474984D01*
X181803720Y-138398794D01*
X181803720Y-138208318D01*
X181841815Y-138132127D01*
X181879910Y-138094032D01*
X182337053Y-139236889D02*
X181803720Y-139236889D01*
X182337053Y-138894032D02*
X181918005Y-138894032D01*
X181841815Y-138932127D01*
X181803720Y-139008318D01*
X181803720Y-139122603D01*
X181841815Y-139198794D01*
X181879910Y-139236889D01*
X184184970Y-137027365D02*
X184184970Y-136570222D01*
X184184970Y-136798794D02*
X184984970Y-136798794D01*
X184870684Y-136722603D01*
X184794494Y-136646413D01*
X184756398Y-136570222D01*
X184261160Y-137370222D02*
X184223065Y-137408318D01*
X184184970Y-137370222D01*
X184223065Y-137332127D01*
X184261160Y-137370222D01*
X184184970Y-137370222D01*
X184984970Y-137674984D02*
X184984970Y-138208318D01*
X184184970Y-137865460D01*
X184984970Y-138894032D02*
X184984970Y-138513080D01*
X184604017Y-138474984D01*
X184642113Y-138513080D01*
X184680208Y-138589270D01*
X184680208Y-138779746D01*
X184642113Y-138855937D01*
X184604017Y-138894032D01*
X184527827Y-138932127D01*
X184337351Y-138932127D01*
X184261160Y-138894032D01*
X184223065Y-138855937D01*
X184184970Y-138779746D01*
X184184970Y-138589270D01*
X184223065Y-138513080D01*
X184261160Y-138474984D01*
X184718303Y-139617841D02*
X184184970Y-139617841D01*
X184718303Y-139274984D02*
X184299255Y-139274984D01*
X184223065Y-139313080D01*
X184184970Y-139389270D01*
X184184970Y-139503556D01*
X184223065Y-139579746D01*
X184261160Y-139617841D01*
X187290029Y-137522603D02*
X187328125Y-137560699D01*
X187366220Y-137636889D01*
X187366220Y-137827365D01*
X187328125Y-137903556D01*
X187290029Y-137941651D01*
X187213839Y-137979746D01*
X187137648Y-137979746D01*
X187023363Y-137941651D01*
X186566220Y-137484508D01*
X186566220Y-137979746D01*
X187099553Y-138665460D02*
X186566220Y-138665460D01*
X187099553Y-138322603D02*
X186680505Y-138322603D01*
X186604315Y-138360699D01*
X186566220Y-138436889D01*
X186566220Y-138551175D01*
X186604315Y-138627365D01*
X186642410Y-138665460D01*
X81534226Y-83192641D02*
X81677083Y-83240260D01*
X81915178Y-83240260D01*
X82010416Y-83192641D01*
X82058035Y-83145022D01*
X82105654Y-83049784D01*
X82105654Y-82954546D01*
X82058035Y-82859308D01*
X82010416Y-82811689D01*
X81915178Y-82764070D01*
X81724702Y-82716451D01*
X81629464Y-82668832D01*
X81581845Y-82621213D01*
X81534226Y-82525975D01*
X81534226Y-82430737D01*
X81581845Y-82335499D01*
X81629464Y-82287880D01*
X81724702Y-82240260D01*
X81962797Y-82240260D01*
X82105654Y-82287880D01*
X82438988Y-82240260D02*
X82677083Y-83240260D01*
X82867559Y-82525975D01*
X83058035Y-83240260D01*
X83296130Y-82240260D01*
X84105654Y-82573594D02*
X84105654Y-83240260D01*
X83867559Y-82192641D02*
X83629464Y-82906927D01*
X84248511Y-82906927D01*
X84819940Y-82240260D02*
X84915178Y-82240260D01*
X85010416Y-82287880D01*
X85058035Y-82335499D01*
X85105654Y-82430737D01*
X85153273Y-82621213D01*
X85153273Y-82859308D01*
X85105654Y-83049784D01*
X85058035Y-83145022D01*
X85010416Y-83192641D01*
X84915178Y-83240260D01*
X84819940Y-83240260D01*
X84724702Y-83192641D01*
X84677083Y-83145022D01*
X84629464Y-83049784D01*
X84581845Y-82859308D01*
X84581845Y-82621213D01*
X84629464Y-82430737D01*
X84677083Y-82335499D01*
X84724702Y-82287880D01*
X84819940Y-82240260D01*
X63504380Y-64595333D02*
X64218666Y-64595333D01*
X64361523Y-64642952D01*
X64456761Y-64738190D01*
X64504380Y-64881047D01*
X64504380Y-64976285D01*
X63504380Y-64214380D02*
X63504380Y-63595333D01*
X63885333Y-63928666D01*
X63885333Y-63785809D01*
X63932952Y-63690571D01*
X63980571Y-63642952D01*
X64075809Y-63595333D01*
X64313904Y-63595333D01*
X64409142Y-63642952D01*
X64456761Y-63690571D01*
X64504380Y-63785809D01*
X64504380Y-64071523D01*
X64456761Y-64166761D01*
X64409142Y-64214380D01*
X190166666Y-113708380D02*
X190166666Y-114422666D01*
X190119047Y-114565523D01*
X190023809Y-114660761D01*
X189880952Y-114708380D01*
X189785714Y-114708380D01*
X191071428Y-114041714D02*
X191071428Y-114708380D01*
X190833333Y-113660761D02*
X190595238Y-114375047D01*
X191214285Y-114375047D01*
X86469380Y-58361334D02*
X87469380Y-58028001D01*
X86469380Y-57694667D01*
X87374142Y-56789905D02*
X87421761Y-56837524D01*
X87469380Y-56980381D01*
X87469380Y-57075620D01*
X87421761Y-57218477D01*
X87326523Y-57313715D01*
X87231285Y-57361334D01*
X87040809Y-57408953D01*
X86897952Y-57408953D01*
X86707476Y-57361334D01*
X86612238Y-57313715D01*
X86517000Y-57218477D01*
X86469380Y-57075620D01*
X86469380Y-56980381D01*
X86517000Y-56837524D01*
X86564619Y-56789905D01*
X87374142Y-55789905D02*
X87421761Y-55837524D01*
X87469380Y-55980381D01*
X87469380Y-56075620D01*
X87421761Y-56218477D01*
X87326523Y-56313715D01*
X87231285Y-56361334D01*
X87040809Y-56408953D01*
X86897952Y-56408953D01*
X86707476Y-56361334D01*
X86612238Y-56313715D01*
X86517000Y-56218477D01*
X86469380Y-56075620D01*
X86469380Y-55980381D01*
X86517000Y-55837524D01*
X86564619Y-55789905D01*
X82453000Y-57799904D02*
X82405380Y-57895142D01*
X82405380Y-58038000D01*
X82453000Y-58180857D01*
X82548238Y-58276095D01*
X82643476Y-58323714D01*
X82833952Y-58371333D01*
X82976809Y-58371333D01*
X83167285Y-58323714D01*
X83262523Y-58276095D01*
X83357761Y-58180857D01*
X83405380Y-58038000D01*
X83405380Y-57942761D01*
X83357761Y-57799904D01*
X83310142Y-57752285D01*
X82976809Y-57752285D01*
X82976809Y-57942761D01*
X83405380Y-57323714D02*
X82405380Y-57323714D01*
X83405380Y-56752285D01*
X82405380Y-56752285D01*
X83405380Y-56276095D02*
X82405380Y-56276095D01*
X82405380Y-56038000D01*
X82453000Y-55895142D01*
X82548238Y-55799904D01*
X82643476Y-55752285D01*
X82833952Y-55704666D01*
X82976809Y-55704666D01*
X83167285Y-55752285D01*
X83262523Y-55799904D01*
X83357761Y-55895142D01*
X83405380Y-56038000D01*
X83405380Y-56276095D01*
X176210619Y-121812380D02*
X176401095Y-121812380D01*
X176496333Y-121860000D01*
X176591571Y-121955238D01*
X176639190Y-122145714D01*
X176639190Y-122479047D01*
X176591571Y-122669523D01*
X176496333Y-122764761D01*
X176401095Y-122812380D01*
X176210619Y-122812380D01*
X176115380Y-122764761D01*
X176020142Y-122669523D01*
X175972523Y-122479047D01*
X175972523Y-122145714D01*
X176020142Y-121955238D01*
X176115380Y-121860000D01*
X176210619Y-121812380D01*
X177543952Y-122812380D02*
X177067761Y-122812380D01*
X177067761Y-121812380D01*
X177877285Y-122288571D02*
X178210619Y-122288571D01*
X178353476Y-122812380D02*
X177877285Y-122812380D01*
X177877285Y-121812380D01*
X178353476Y-121812380D01*
X178782047Y-122812380D02*
X178782047Y-121812380D01*
X179020142Y-121812380D01*
X179163000Y-121860000D01*
X179258238Y-121955238D01*
X179305857Y-122050476D01*
X179353476Y-122240952D01*
X179353476Y-122383809D01*
X179305857Y-122574285D01*
X179258238Y-122669523D01*
X179163000Y-122764761D01*
X179020142Y-122812380D01*
X178782047Y-122812380D01*
X157767857Y-48611221D02*
X157863095Y-48658840D01*
X158053571Y-48658840D01*
X158148809Y-48611221D01*
X158196428Y-48515983D01*
X158196428Y-48468364D01*
X158148809Y-48373126D01*
X158053571Y-48325507D01*
X157910714Y-48325507D01*
X157815476Y-48277888D01*
X157767857Y-48182650D01*
X157767857Y-48135031D01*
X157815476Y-48039793D01*
X157910714Y-47992174D01*
X158053571Y-47992174D01*
X158148809Y-48039793D01*
X159053571Y-48658840D02*
X159053571Y-47658840D01*
X159053571Y-48611221D02*
X158958333Y-48658840D01*
X158767857Y-48658840D01*
X158672619Y-48611221D01*
X158625000Y-48563602D01*
X158577380Y-48468364D01*
X158577380Y-48182650D01*
X158625000Y-48087412D01*
X158672619Y-48039793D01*
X158767857Y-47992174D01*
X158958333Y-47992174D01*
X159053571Y-48039793D01*
X159958333Y-48658840D02*
X159958333Y-48135031D01*
X159910714Y-48039793D01*
X159815476Y-47992174D01*
X159625000Y-47992174D01*
X159529761Y-48039793D01*
X159958333Y-48611221D02*
X159863095Y-48658840D01*
X159625000Y-48658840D01*
X159529761Y-48611221D01*
X159482142Y-48515983D01*
X159482142Y-48420745D01*
X159529761Y-48325507D01*
X159625000Y-48277888D01*
X159863095Y-48277888D01*
X159958333Y-48230269D01*
X160672619Y-48992174D02*
X160672619Y-47563602D01*
X161815476Y-48658840D02*
X161815476Y-47658840D01*
X161815476Y-48611221D02*
X161720238Y-48658840D01*
X161529761Y-48658840D01*
X161434523Y-48611221D01*
X161386904Y-48563602D01*
X161339285Y-48468364D01*
X161339285Y-48182650D01*
X161386904Y-48087412D01*
X161434523Y-48039793D01*
X161529761Y-47992174D01*
X161720238Y-47992174D01*
X161815476Y-48039793D01*
X162720238Y-48658840D02*
X162720238Y-48135031D01*
X162672619Y-48039793D01*
X162577380Y-47992174D01*
X162386904Y-47992174D01*
X162291666Y-48039793D01*
X162720238Y-48611221D02*
X162625000Y-48658840D01*
X162386904Y-48658840D01*
X162291666Y-48611221D01*
X162244047Y-48515983D01*
X162244047Y-48420745D01*
X162291666Y-48325507D01*
X162386904Y-48277888D01*
X162625000Y-48277888D01*
X162720238Y-48230269D01*
X163053571Y-47992174D02*
X163434523Y-47992174D01*
X163196428Y-47658840D02*
X163196428Y-48515983D01*
X163244047Y-48611221D01*
X163339285Y-48658840D01*
X163434523Y-48658840D01*
X164196428Y-48658840D02*
X164196428Y-48135031D01*
X164148809Y-48039793D01*
X164053571Y-47992174D01*
X163863095Y-47992174D01*
X163767857Y-48039793D01*
X164196428Y-48611221D02*
X164101190Y-48658840D01*
X163863095Y-48658840D01*
X163767857Y-48611221D01*
X163720238Y-48515983D01*
X163720238Y-48420745D01*
X163767857Y-48325507D01*
X163863095Y-48277888D01*
X164101190Y-48277888D01*
X164196428Y-48230269D01*
X166029000Y-48611221D02*
X166124238Y-48658840D01*
X166314714Y-48658840D01*
X166409952Y-48611221D01*
X166457571Y-48515983D01*
X166457571Y-48468364D01*
X166409952Y-48373126D01*
X166314714Y-48325507D01*
X166171857Y-48325507D01*
X166076619Y-48277888D01*
X166029000Y-48182650D01*
X166029000Y-48135031D01*
X166076619Y-48039793D01*
X166171857Y-47992174D01*
X166314714Y-47992174D01*
X166409952Y-48039793D01*
X167314714Y-48611221D02*
X167219476Y-48658840D01*
X167029000Y-48658840D01*
X166933761Y-48611221D01*
X166886142Y-48563602D01*
X166838523Y-48468364D01*
X166838523Y-48182650D01*
X166886142Y-48087412D01*
X166933761Y-48039793D01*
X167029000Y-47992174D01*
X167219476Y-47992174D01*
X167314714Y-48039793D01*
X167886142Y-48658840D02*
X167790904Y-48611221D01*
X167743285Y-48515983D01*
X167743285Y-47658840D01*
X168505190Y-48992174D02*
X168505190Y-47563602D01*
X169600428Y-48611221D02*
X169505190Y-48658840D01*
X169314714Y-48658840D01*
X169219476Y-48611221D01*
X169171857Y-48515983D01*
X169171857Y-48135031D01*
X169219476Y-48039793D01*
X169314714Y-47992174D01*
X169505190Y-47992174D01*
X169600428Y-48039793D01*
X169648047Y-48135031D01*
X169648047Y-48230269D01*
X169171857Y-48325507D01*
X169981380Y-48658840D02*
X170505190Y-47992174D01*
X169981380Y-47992174D02*
X170505190Y-48658840D01*
X170743285Y-47992174D02*
X171124238Y-47992174D01*
X170886142Y-47658840D02*
X170886142Y-48515983D01*
X170933761Y-48611221D01*
X171029000Y-48658840D01*
X171124238Y-48658840D01*
X171457571Y-48658840D02*
X171457571Y-47992174D01*
X171457571Y-48182650D02*
X171505190Y-48087412D01*
X171552809Y-48039793D01*
X171648047Y-47992174D01*
X171743285Y-47992174D01*
X172505190Y-48658840D02*
X172505190Y-48135031D01*
X172457571Y-48039793D01*
X172362333Y-47992174D01*
X172171857Y-47992174D01*
X172076619Y-48039793D01*
X172505190Y-48611221D02*
X172409952Y-48658840D01*
X172171857Y-48658840D01*
X172076619Y-48611221D01*
X172029000Y-48515983D01*
X172029000Y-48420745D01*
X172076619Y-48325507D01*
X172171857Y-48277888D01*
X172409952Y-48277888D01*
X172505190Y-48230269D01*
M02*
