G04 #@! TF.GenerationSoftware,KiCad,Pcbnew,(5.1.5-0-10_14)*
G04 #@! TF.CreationDate,2020-05-14T06:06:27+09:00*
G04 #@! TF.ProjectId,Colice,436f6c69-6365-42e6-9b69-6361645f7063,rev?*
G04 #@! TF.SameCoordinates,Original*
G04 #@! TF.FileFunction,Paste,Bot*
G04 #@! TF.FilePolarity,Positive*
%FSLAX46Y46*%
G04 Gerber Fmt 4.6, Leading zero omitted, Abs format (unit mm)*
G04 Created by KiCad (PCBNEW (5.1.5-0-10_14)) date 2020-05-14 06:06:27*
%MOMM*%
%LPD*%
G04 APERTURE LIST*
%ADD10R,2.550000X2.800000*%
%ADD11R,1.300000X0.950000*%
%ADD12C,0.100000*%
%ADD13R,0.950000X1.300000*%
G04 APERTURE END LIST*
D10*
X65346250Y-90170400D03*
X52446250Y-92710400D03*
X161983750Y-135573080D03*
X174883750Y-133033080D03*
X165358750Y-113983000D03*
X152458750Y-116523000D03*
X143927500Y-133033080D03*
X131027500Y-135573080D03*
D11*
X111249000Y-51054000D03*
X107699000Y-51054000D03*
X163071000Y-129844800D03*
X166621000Y-129844800D03*
D10*
X165358750Y-75882840D03*
X152458750Y-78422840D03*
X76258750Y-126048040D03*
X89158750Y-123508040D03*
X62965000Y-128270560D03*
X50065000Y-130810560D03*
D12*
G36*
X67924296Y-152892773D02*
G01*
X67342143Y-150153960D01*
X69836420Y-149623785D01*
X70418573Y-152362598D01*
X67924296Y-152892773D01*
G37*
G36*
X80014303Y-147726218D02*
G01*
X79432150Y-144987405D01*
X81926427Y-144457230D01*
X82508580Y-147196043D01*
X80014303Y-147726218D01*
G37*
G36*
X94069816Y-149666309D02*
G01*
X94651969Y-152405122D01*
X92157692Y-152935297D01*
X91575539Y-150196484D01*
X94069816Y-149666309D01*
G37*
G36*
X81979809Y-154832864D02*
G01*
X82561962Y-157571677D01*
X80067685Y-158101852D01*
X79485532Y-155363039D01*
X81979809Y-154832864D01*
G37*
G36*
X68448462Y-155112295D02*
G01*
X69030615Y-157851108D01*
X66536338Y-158381283D01*
X65954185Y-155642470D01*
X68448462Y-155112295D01*
G37*
G36*
X56358455Y-160278850D02*
G01*
X56940608Y-163017663D01*
X54446331Y-163547838D01*
X53864178Y-160809025D01*
X56358455Y-160278850D01*
G37*
D11*
X185931000Y-127254000D03*
X189481000Y-127254000D03*
D13*
X132334000Y-81029000D03*
X132334000Y-84579000D03*
D11*
X142491000Y-51308000D03*
X138941000Y-51308000D03*
X142237000Y-70358000D03*
X138687000Y-70358000D03*
X142237000Y-89408000D03*
X138687000Y-89408000D03*
X138687000Y-108458000D03*
X142237000Y-108458000D03*
X148593000Y-127508000D03*
X152143000Y-127508000D03*
D13*
X75057000Y-112017000D03*
X75057000Y-115567000D03*
D11*
X81537000Y-64008000D03*
X85087000Y-64008000D03*
X81537000Y-98552000D03*
X85087000Y-98552000D03*
X81537000Y-101346000D03*
X85087000Y-101346000D03*
X81791000Y-120396000D03*
X85341000Y-120396000D03*
D13*
X36830000Y-78743000D03*
X36830000Y-82293000D03*
D11*
X43691000Y-68072000D03*
X47241000Y-68072000D03*
X100587000Y-89408000D03*
X104137000Y-89408000D03*
X100587000Y-108458000D03*
X104137000Y-108458000D03*
D12*
G36*
X51828750Y-149558806D02*
G01*
X51631234Y-148629565D01*
X52902826Y-148359280D01*
X53100342Y-149288521D01*
X51828750Y-149558806D01*
G37*
G36*
X55301174Y-148820720D02*
G01*
X55103658Y-147891479D01*
X56375250Y-147621194D01*
X56572766Y-148550435D01*
X55301174Y-148820720D01*
G37*
D13*
X94234000Y-84331000D03*
X94234000Y-87881000D03*
D11*
X104137000Y-70358000D03*
X100587000Y-70358000D03*
X123187000Y-105918000D03*
X119637000Y-105918000D03*
X116075000Y-129794000D03*
X112525000Y-129794000D03*
D13*
X113030000Y-78870000D03*
X113030000Y-82420000D03*
D11*
X127251000Y-48768000D03*
X123701000Y-48768000D03*
X123441000Y-68072000D03*
X119891000Y-68072000D03*
X123187000Y-87122000D03*
X119637000Y-87122000D03*
X139951000Y-129794000D03*
X136401000Y-129794000D03*
D13*
X170180000Y-86865000D03*
X170180000Y-83315000D03*
D11*
X180337000Y-70104000D03*
X176787000Y-70104000D03*
X180337000Y-72644000D03*
X176787000Y-72644000D03*
X180337000Y-91694000D03*
X176787000Y-91694000D03*
X183258000Y-110744000D03*
X179708000Y-110744000D03*
X42929000Y-101600000D03*
X46479000Y-101600000D03*
D13*
X46228000Y-107699000D03*
X46228000Y-111249000D03*
D11*
X62487000Y-68072000D03*
X66037000Y-68072000D03*
X57661000Y-86868000D03*
X61211000Y-86868000D03*
X55375000Y-105918000D03*
X58925000Y-105918000D03*
X55121000Y-125222000D03*
X58671000Y-125222000D03*
D12*
G36*
X72402750Y-144986806D02*
G01*
X72205234Y-144057565D01*
X73476826Y-143787280D01*
X73674342Y-144716521D01*
X72402750Y-144986806D01*
G37*
G36*
X75875174Y-144248720D02*
G01*
X75677658Y-143319479D01*
X76949250Y-143049194D01*
X77146766Y-143978435D01*
X75875174Y-144248720D01*
G37*
D11*
X159261000Y-53594000D03*
X162811000Y-53594000D03*
X157991000Y-72644000D03*
X161541000Y-72644000D03*
X157737000Y-91694000D03*
X161287000Y-91694000D03*
X157737000Y-110744000D03*
X161287000Y-110744000D03*
D10*
X133408750Y-56991500D03*
X146308750Y-54451500D03*
X133408750Y-76041580D03*
X146308750Y-73501580D03*
X133408750Y-95091660D03*
X146308750Y-92551660D03*
X133408750Y-114141740D03*
X146308750Y-111601740D03*
X76258750Y-106997960D03*
X89158750Y-104457960D03*
X38158750Y-73660320D03*
X51058750Y-71120320D03*
X95308750Y-95091660D03*
X108208750Y-92551660D03*
X95308750Y-114141740D03*
X108208750Y-111601740D03*
X95308750Y-56991500D03*
X108208750Y-54451500D03*
X108208750Y-73501580D03*
X95308750Y-76041580D03*
X127258750Y-109220480D03*
X114358750Y-111760480D03*
X120115000Y-133033080D03*
X107215000Y-135573080D03*
X127258750Y-52070240D03*
X114358750Y-54610240D03*
X127258750Y-71120320D03*
X114358750Y-73660320D03*
X127258750Y-90170400D03*
X114358750Y-92710400D03*
X184408750Y-56832760D03*
X171508750Y-59372760D03*
X184408750Y-75882840D03*
X171508750Y-78422840D03*
X184408750Y-94932920D03*
X171508750Y-97472920D03*
X184408750Y-113983000D03*
X171508750Y-116523000D03*
X70108750Y-71120320D03*
X57208750Y-73660320D03*
X50065000Y-111760480D03*
X62965000Y-109220480D03*
X165358750Y-56832760D03*
X152458750Y-59372760D03*
X165358750Y-94932920D03*
X152458750Y-97472920D03*
X172778750Y-143193080D03*
X185678750Y-140653080D03*
X153728750Y-143193080D03*
X166628750Y-140653080D03*
M02*
