<?xml version="1.0" encoding="UTF-8" standalone="no"?>
<!DOCTYPE svg PUBLIC "-//W3C//DTD SVG 1.1//EN" "http://www.w3.org/Graphics/SVG/1.1/DTD/svg11.dtd">
<svg width="100%" height="100%" viewBox="0 0 1645 487" version="1.1" xmlns="http://www.w3.org/2000/svg" xmlns:xlink="http://www.w3.org/1999/xlink" xml:space="preserve" xmlns:serif="http://www.serif.com/" style="fill-rule:evenodd;clip-rule:evenodd;stroke-linecap:round;stroke-linejoin:round;stroke-miterlimit:1.5;">
    <g transform="matrix(1,0,0,1,-25,-42)">
        <g id="アートボード1" transform="matrix(2.52012,0,0,1.18182,-156.247,-46.0909)">
            <rect x="62" y="39" width="671" height="473" style="fill:none;"/>
            <g id="keyplate" transform="matrix(0.396807,0,0,0.846154,10.4151,45.7692)">
                <g id="L-v2" serif:id="L v2" transform="matrix(0.95882,0.284015,-0.284015,0.95882,-264.388,-182.236)">
                    <g transform="matrix(-1,1.11022e-16,-4.996e-16,1,760.139,359.752)">
                        <path d="M112.8,48L112.8,52.992L118.544,52.992L118.544,49.92L143.696,49.92L143.696,62.784L147.038,62.784L147.038,73.344L143.696,73.344L143.696,96.384L136.88,96.384L136.88,100.8L125.36,100.8L125.36,96.384L118.544,96.384L118.544,93.408L112.8,93.408L112.8,100.8L59.165,100.8L59.165,93.408L53.421,93.408L53.421,96.384L46.605,96.384L46.605,100.8L35.085,100.8L35.085,96.384L28.269,96.384L28.269,73.344L24.926,73.344L24.926,62.784L28.269,62.784L28.269,49.92L53.421,49.92L53.421,52.992L59.165,52.992L59.165,48L112.8,48Z" style="fill:none;stroke:rgb(15,137,49);stroke-width:0.38px;"/>
                    </g>
                    <g transform="matrix(1.33804,1.48291e-16,7.42761e-17,1.33804,-218.236,-577.176)">
                        <rect x="553.279" y="521.745" width="39.263" height="39.263" style="fill:none;stroke:rgb(15,137,49);stroke-width:0.28px;stroke-miterlimit:10;"/>
                    </g>
                    <g transform="matrix(1,-7.39557e-32,0,1,-143.632,66.2729)">
                        <g transform="matrix(1.33804,2.97104e-16,1.11414e-16,1.33804,-20.6037,-283.865)">
                            <rect x="553.279" y="414.022" width="39.263" height="39.263" style="fill:none;stroke:rgb(15,137,49);stroke-width:0.28px;stroke-miterlimit:10;"/>
                        </g>
                        <g transform="matrix(1.33804,1.48291e-16,7.42761e-17,1.33804,-2.60366,-643.449)">
                            <rect x="553.279" y="521.745" width="39.263" height="39.263" style="fill:none;stroke:rgb(15,137,49);stroke-width:0.28px;stroke-miterlimit:10;"/>
                        </g>
                        <g transform="matrix(1.33804,2.97104e-16,0,1.33804,-20.6037,-499.563)">
                            <rect x="553.279" y="467.883" width="39.263" height="39.263" style="fill:none;stroke:rgb(15,137,49);stroke-width:0.28px;stroke-miterlimit:10;"/>
                        </g>
                        <g transform="matrix(1.33804,2.97104e-16,0,1.33804,-29.6037,-355.68)">
                            <rect x="553.279" y="414.022" width="39.263" height="39.263" style="fill:none;stroke:rgb(15,137,49);stroke-width:0.28px;stroke-miterlimit:10;"/>
                        </g>
                    </g>
                    <g transform="matrix(1.00353,-6.16298e-32,0,1,-74.4197,45)">
                        <g transform="matrix(1.33333,2.61228e-19,3.70074e-17,1.33804,-4.11939e-14,-283.865)">
                            <rect x="553.279" y="414.022" width="39.263" height="39.263" style="fill:none;stroke:rgb(15,137,49);stroke-width:0.28px;stroke-miterlimit:10;"/>
                        </g>
                        <g transform="matrix(1.33333,7.42761e-17,-1.4803e-16,1.33804,-2.13053e-13,-643.449)">
                            <rect x="553.279" y="521.745" width="39.263" height="39.263" style="fill:none;stroke:rgb(15,137,49);stroke-width:0.28px;stroke-miterlimit:10;"/>
                        </g>
                        <g transform="matrix(1.33333,2.61228e-19,-7.40149e-17,1.33804,-8.60777e-14,-499.563)">
                            <rect x="553.279" y="467.883" width="39.263" height="39.263" style="fill:none;stroke:rgb(15,137,49);stroke-width:0.28px;stroke-miterlimit:10;"/>
                        </g>
                        <g transform="matrix(1.33333,2.61228e-19,-7.40149e-17,1.33804,-3.72073e-14,-355.68)">
                            <rect x="553.279" y="414.022" width="39.263" height="39.263" style="fill:none;stroke:rgb(15,137,49);stroke-width:0.28px;stroke-miterlimit:10;"/>
                        </g>
                    </g>
                    <g transform="matrix(1.00353,0,0,1,-2.60366,7.10543e-15)">
                        <g transform="matrix(1.33333,7.40149e-17,3.70074e-17,1.33804,7.24929e-14,-283.865)">
                            <rect x="553.279" y="414.022" width="39.263" height="39.263" style="fill:none;stroke:rgb(15,137,49);stroke-width:0.28px;stroke-miterlimit:10;"/>
                        </g>
                        <g transform="matrix(1.33333,0,-1.4803e-16,1.33804,1.43211e-14,-643.449)">
                            <rect x="553.279" y="521.745" width="39.263" height="39.263" style="fill:none;stroke:rgb(15,137,49);stroke-width:0.28px;stroke-miterlimit:10;"/>
                        </g>
                        <g transform="matrix(1.33333,7.40149e-17,-7.40149e-17,1.33804,1.41296e-13,-499.563)">
                            <rect x="553.279" y="467.883" width="39.263" height="39.263" style="fill:none;stroke:rgb(15,137,49);stroke-width:0.28px;stroke-miterlimit:10;"/>
                        </g>
                        <g transform="matrix(1.33333,0,0,1.33804,0,-355.68)">
                            <rect x="553.279" y="414.022" width="39.263" height="39.263" style="fill:none;stroke:rgb(15,137,49);stroke-width:0.28px;stroke-miterlimit:10;"/>
                        </g>
                    </g>
                    <g transform="matrix(1.00353,1.11022e-16,0,1,-2.85712,-6.39488e-14)">
                        <g transform="matrix(1.33333,-7.40149e-17,0,1.33804,-5.68434e-14,-670.414)">
                            <rect x="607.141" y="528.479" width="39.263" height="39.263" style="fill:none;stroke:rgb(15,137,49);stroke-width:0.28px;stroke-miterlimit:10;"/>
                        </g>
                        <g transform="matrix(1.33333,-7.40149e-17,-7.40149e-17,1.33804,-2.77394e-14,-526.525)">
                            <rect x="607.141" y="474.616" width="39.263" height="39.263" style="fill:none;stroke:rgb(15,137,49);stroke-width:0.28px;stroke-miterlimit:10;"/>
                        </g>
                        <g transform="matrix(1.33333,-7.40149e-17,-7.40149e-17,1.33804,-9.2556e-14,-382.64)">
                            <rect x="607.141" y="420.754" width="39.263" height="39.263" style="fill:none;stroke:rgb(15,137,49);stroke-width:0.28px;stroke-miterlimit:10;"/>
                        </g>
                        <g transform="matrix(1.33333,-7.40149e-17,-7.40149e-17,1.33804,-9.65425e-14,-310.825)">
                            <rect x="607.141" y="420.754" width="39.263" height="39.263" style="fill:none;stroke:rgb(15,137,49);stroke-width:0.28px;stroke-miterlimit:10;"/>
                        </g>
                    </g>
                    <g transform="matrix(1.00353,1.11022e-16,0,1,-3.11059,-7.81597e-14)">
                        <g transform="matrix(1.33333,-7.40149e-17,-7.40149e-17,1.33804,-2.07629e-14,-652.425)">
                            <rect x="661.003" y="521.745" width="39.263" height="39.263" style="fill:none;stroke:rgb(15,137,49);stroke-width:0.28px;stroke-miterlimit:10;"/>
                        </g>
                        <g transform="matrix(1.33333,-7.40149e-17,0,1.33804,0,-508.539)">
                            <rect x="661.003" y="467.883" width="39.263" height="39.263" style="fill:none;stroke:rgb(15,137,49);stroke-width:0.28px;stroke-miterlimit:10;"/>
                        </g>
                        <g transform="matrix(1.33333,-7.40149e-17,0,1.33804,0,-364.656)">
                            <rect x="661.003" y="414.022" width="39.263" height="39.263" style="fill:none;stroke:rgb(15,137,49);stroke-width:0.28px;stroke-miterlimit:10;"/>
                        </g>
                        <g transform="matrix(1.33333,-7.40149e-17,0,1.33804,0,-292.841)">
                            <rect x="661.003" y="414.022" width="39.263" height="39.263" style="fill:none;stroke:rgb(15,137,49);stroke-width:0.28px;stroke-miterlimit:10;"/>
                        </g>
                    </g>
                    <g transform="matrix(1.00353,1.11022e-16,0,1,-3.36406,-4.9738e-14)">
                        <g transform="matrix(1.33333,-7.40149e-17,0,1.33804,-5.68434e-14,-634.441)">
                            <rect x="714.865" y="515.013" width="39.263" height="39.263" style="fill:none;stroke:rgb(15,137,49);stroke-width:0.28px;stroke-miterlimit:10;"/>
                        </g>
                        <g transform="matrix(1.33333,-7.40149e-17,0,1.33804,-1.13687e-13,-490.553)">
                            <rect x="714.865" y="461.15" width="39.263" height="39.263" style="fill:none;stroke:rgb(15,137,49);stroke-width:0.28px;stroke-miterlimit:10;"/>
                        </g>
                        <g transform="matrix(1.33333,-7.40149e-17,0,1.33804,-1.13687e-13,-346.667)">
                            <rect x="714.865" y="407.288" width="39.263" height="39.263" style="fill:none;stroke:rgb(15,137,49);stroke-width:0.28px;stroke-miterlimit:10;"/>
                        </g>
                        <g transform="matrix(1.33333,-7.40149e-17,0,1.33804,0,-274.852)">
                            <rect x="714.865" y="407.288" width="39.263" height="39.263" style="fill:none;stroke:rgb(15,137,49);stroke-width:0.28px;stroke-miterlimit:10;"/>
                        </g>
                    </g>
                    <g transform="matrix(1,0,0,1.00347,-1.13687e-13,-1.1856)">
                        <g transform="matrix(1.56747,-2.61228e-19,3.82789e-16,1.33342,-86.1986,-210.136)">
                            <rect x="553.279" y="414.022" width="39.263" height="39.263" style="fill:none;stroke:rgb(15,137,49);stroke-width:0.26px;stroke-miterlimit:10;"/>
                        </g>
                        <g transform="matrix(1.33804,7.40194e-17,7.40149e-17,1.33342,130.562,-210.133)">
                            <rect x="553.279" y="414.022" width="39.263" height="39.263" style="fill:none;stroke:rgb(15,137,49);stroke-width:0.28px;stroke-miterlimit:10;"/>
                        </g>
                        <g transform="matrix(1,0.000809051,-0.000811856,0.996544,938.529,293.812)">
                            <path d="M112.8,48L112.8,52.992L118.544,52.992L118.544,49.92L143.696,49.92L143.696,62.784L147.038,62.784L147.038,73.344L143.696,73.344L143.696,96.384L136.88,96.384L136.88,100.8L125.36,100.8L125.36,96.384L118.544,96.384L118.544,93.408L112.8,93.408L112.8,100.8L59.165,100.8L59.165,93.408L53.421,93.408L53.421,96.384L46.605,96.384L46.605,100.8L35.085,100.8L35.085,96.384L28.269,96.384L28.269,73.344L24.926,73.344L24.926,62.784L28.269,62.784L28.269,49.92L53.421,49.92L53.421,52.992L59.165,52.992L59.165,48L112.8,48Z" style="fill:none;stroke:rgb(15,137,49);stroke-width:0.38px;"/>
                        </g>
                    </g>
                    <g transform="matrix(1.00353,1.11022e-16,0,1,68.6359,-3.4639e-14)">
                        <g transform="matrix(1.33333,-7.40149e-17,9.86076e-32,1.33804,5.68434e-14,-634.441)">
                            <rect x="714.865" y="515.013" width="39.263" height="39.263" style="fill:none;stroke:rgb(15,137,49);stroke-width:0.28px;stroke-miterlimit:10;"/>
                        </g>
                        <g transform="matrix(1.33333,-7.40149e-17,9.86076e-32,1.33804,-5.68434e-14,-490.553)">
                            <rect x="714.865" y="461.15" width="39.263" height="39.263" style="fill:none;stroke:rgb(15,137,49);stroke-width:0.28px;stroke-miterlimit:10;"/>
                        </g>
                        <g transform="matrix(1.33333,-7.40149e-17,9.86076e-32,1.33804,-5.68434e-14,-346.667)">
                            <rect x="714.865" y="407.288" width="39.263" height="39.263" style="fill:none;stroke:rgb(15,137,49);stroke-width:0.28px;stroke-miterlimit:10;"/>
                        </g>
                        <g transform="matrix(1.33333,-7.40149e-17,9.86076e-32,1.33804,-5.68434e-14,-274.852)">
                            <rect x="714.865" y="407.288" width="39.263" height="39.263" style="fill:none;stroke:rgb(15,137,49);stroke-width:0.28px;stroke-miterlimit:10;"/>
                        </g>
                    </g>
                </g>
                <g id="Num" transform="matrix(0.927184,-0.374607,0.374607,0.927184,-45.9928,442.153)">
                    <g transform="matrix(1.33804,-7.40149e-17,7.42761e-17,1.33804,356.732,-625.432)">
                        <rect x="499.417" y="508.28" width="39.263" height="39.262" style="fill:none;stroke:rgb(255,0,0);stroke-width:0.28px;stroke-miterlimit:10;"/>
                    </g>
                    <g transform="matrix(1.33804,-2.22045e-16,0,1.33797,356.732,-481.517)">
                        <rect x="499.417" y="454.418" width="39.263" height="39.263" style="fill:none;stroke:rgb(255,0,0);stroke-width:0.28px;stroke-miterlimit:10;"/>
                    </g>
                    <g transform="matrix(1.33804,-2.22045e-16,0,1.33797,356.732,-337.635)">
                        <rect x="499.417" y="400.556" width="39.263" height="39.263" style="fill:none;stroke:rgb(255,0,0);stroke-width:0.28px;stroke-miterlimit:10;"/>
                    </g>
                    <g transform="matrix(1.33804,7.40149e-17,1.48552e-16,1.33804,-3.36406,-634.441)">
                        <rect x="714.865" y="515.013" width="39.263" height="39.263" style="fill:none;stroke:rgb(255,0,0);stroke-width:0.28px;stroke-miterlimit:10;"/>
                    </g>
                    <g transform="matrix(1.33804,-7.40149e-17,7.42723e-17,1.33797,-3.36406,-490.521)">
                        <rect x="714.865" y="461.15" width="39.263" height="39.263" style="fill:none;stroke:rgb(255,0,0);stroke-width:0.28px;stroke-miterlimit:10;"/>
                    </g>
                    <g transform="matrix(1.33804,-7.40149e-17,7.42723e-17,1.33797,-3.36406,-346.64)">
                        <rect x="714.865" y="407.288" width="39.263" height="39.263" style="fill:none;stroke:rgb(255,0,0);stroke-width:0.28px;stroke-miterlimit:10;"/>
                    </g>
                    <g transform="matrix(1.33804,-7.40149e-17,-3.78332e-21,1.33797,-3.36406,-274.824)">
                        <rect x="714.865" y="407.288" width="39.263" height="39.263" style="fill:none;stroke:rgb(255,0,0);stroke-width:0.28px;stroke-miterlimit:10;"/>
                    </g>
                    <g transform="matrix(1.33804,-8.2173e-33,7.40149e-17,1.33333,-3.36406,-201.12)">
                        <rect x="714.865" y="407.288" width="39.263" height="39.263" style="fill:none;stroke:rgb(255,0,0);stroke-width:0.28px;stroke-miterlimit:10;"/>
                    </g>
                    <g transform="matrix(1.33804,-7.40149e-17,7.42761e-17,1.33804,213.095,-625.432)">
                        <rect x="499.417" y="508.28" width="39.263" height="39.262" style="fill:none;stroke:rgb(255,0,0);stroke-width:0.28px;stroke-miterlimit:10;"/>
                    </g>
                    <g transform="matrix(1.33804,-2.22045e-16,0,1.33797,213.095,-481.517)">
                        <rect x="499.417" y="454.418" width="39.263" height="39.263" style="fill:none;stroke:rgb(255,0,0);stroke-width:0.28px;stroke-miterlimit:10;"/>
                    </g>
                    <g transform="matrix(1.33804,-2.22045e-16,0,1.33797,213.095,-337.635)">
                        <rect x="499.417" y="400.556" width="39.263" height="39.263" style="fill:none;stroke:rgb(255,0,0);stroke-width:0.28px;stroke-miterlimit:10;"/>
                    </g>
                    <g transform="matrix(1.33804,-7.42761e-17,0,1.33797,-147.001,-490.521)">
                        <rect x="714.865" y="461.15" width="39.263" height="39.263" style="fill:none;stroke:rgb(255,0,0);stroke-width:0.28px;stroke-miterlimit:10;"/>
                    </g>
                    <g transform="matrix(1.33804,-7.42761e-17,0,1.33797,-147.001,-346.64)">
                        <rect x="714.865" y="407.288" width="39.263" height="39.263" style="fill:none;stroke:rgb(255,0,0);stroke-width:0.28px;stroke-miterlimit:10;"/>
                    </g>
                    <g transform="matrix(1.33804,-2.22045e-16,-7.42761e-17,1.33797,213.095,-265.82)">
                        <rect x="499.417" y="400.556" width="39.263" height="39.263" style="fill:none;stroke:rgb(255,0,0);stroke-width:0.28px;stroke-miterlimit:10;"/>
                    </g>
                    <g transform="matrix(1.33804,-7.42761e-17,-7.40149e-17,1.33797,-147.001,-274.824)">
                        <rect x="714.865" y="407.288" width="39.263" height="39.263" style="fill:none;stroke:rgb(255,0,0);stroke-width:0.28px;stroke-miterlimit:10;"/>
                    </g>
                    <g transform="matrix(1,1.11022e-16,1.66533e-16,1,785.413,293.708)">
                        <path d="M112.8,48L112.8,52.992L118.544,52.992L118.544,49.92L143.696,49.92L143.696,62.784L147.038,62.784L147.038,73.344L143.696,73.344L143.696,96.384L136.88,96.384L136.88,100.8L125.36,100.8L125.36,96.384L118.544,96.384L118.544,93.408L112.8,93.408L112.8,100.8L59.165,100.8L59.165,93.408L53.421,93.408L53.421,96.384L46.605,96.384L46.605,100.8L35.085,100.8L35.085,96.384L28.269,96.384L28.269,73.344L24.926,73.344L24.926,62.784L28.269,62.784L28.269,49.92L53.421,49.92L53.421,52.992L59.165,52.992L59.165,48L112.8,48Z" style="fill:none;stroke:rgb(255,0,0);stroke-width:0.38px;"/>
                    </g>
                    <g transform="matrix(-1.11022e-16,-1,1,1.66533e-16,976.654,418.166)">
                        <path d="M112.8,48L112.8,52.992L118.544,52.992L118.544,49.92L143.696,49.92L143.696,62.784L147.038,62.784L147.038,73.344L143.696,73.344L143.696,96.384L136.88,96.384L136.88,100.8L125.36,100.8L125.36,96.384L118.544,96.384L118.544,93.408L112.8,93.408L112.8,100.8L59.165,100.8L59.165,93.408L53.421,93.408L53.421,96.384L46.605,96.384L46.605,100.8L35.085,100.8L35.085,96.384L28.269,96.384L28.269,73.344L24.926,73.344L24.926,62.784L28.269,62.784L28.269,49.92L53.421,49.92L53.421,52.992L59.165,52.992L59.165,48L112.8,48Z" style="fill:none;stroke:rgb(255,0,0);stroke-width:0.38px;"/>
                    </g>
                </g>
                <g id="R-v2" serif:id="R v2" transform="matrix(-0.95882,0.284015,0.284015,0.95882,2086.29,-182.136)">
                    <g transform="matrix(1,-1.97215e-31,0,1,-287.264,87.5457)">
                        <g transform="matrix(1.33804,1.48552e-16,1.11414e-16,1.33804,5.93638,-212.049)">
                            <rect x="553.279" y="414.022" width="39.263" height="39.263" style="fill:none;stroke:rgb(255,179,0);stroke-width:0.28px;stroke-miterlimit:10;"/>
                        </g>
                        <g transform="matrix(1.33804,1.48552e-16,-7.40149e-17,1.33804,-20.7884,-499.563)">
                            <rect x="553.279" y="467.883" width="39.263" height="39.263" style="fill:none;stroke:rgb(255,179,0);stroke-width:0.28px;stroke-miterlimit:10;"/>
                        </g>
                    </g>
                    <g transform="matrix(1,-1.72563e-31,0,1,-215.448,87.5457)">
                        <g transform="matrix(1.33804,1.8569e-16,3.73993e-17,1.33804,15.2116,-212.049)">
                            <rect x="553.279" y="414.022" width="39.263" height="39.263" style="fill:none;stroke:rgb(255,179,0);stroke-width:0.28px;stroke-miterlimit:10;"/>
                        </g>
                        <g transform="matrix(-1,1.11022e-16,-4.996e-16,1,804.955,221.93)">
                            <path d="M112.8,48L112.8,52.992L118.544,52.992L118.544,49.92L143.696,49.92L143.696,62.784L147.038,62.784L147.038,73.344L143.696,73.344L143.696,96.384L136.88,96.384L136.88,100.8L125.36,100.8L125.36,96.384L118.544,96.384L118.544,93.408L112.8,93.408L112.8,100.8L59.165,100.8L59.165,93.408L53.421,93.408L53.421,96.384L46.605,96.384L46.605,100.8L35.085,100.8L35.085,96.384L28.269,96.384L28.269,73.344L24.926,73.344L24.926,62.784L28.269,62.784L28.269,49.92L53.421,49.92L53.421,52.992L59.165,52.992L59.165,48L112.8,48Z" style="fill:none;stroke:rgb(115,179,0);stroke-width:0.38px;"/>
                        </g>
                        <g transform="matrix(-1,1.11022e-16,-4.996e-16,1,804.955,150.074)">
                            <path d="M112.8,48L112.8,52.992L118.544,52.992L118.544,49.92L143.696,49.92L143.696,62.784L147.038,62.784L147.038,73.344L143.696,73.344L143.696,96.384L136.88,96.384L136.88,100.8L125.36,100.8L125.36,96.384L118.544,96.384L118.544,93.408L112.8,93.408L112.8,100.8L59.165,100.8L59.165,93.408L53.421,93.408L53.421,96.384L46.605,96.384L46.605,100.8L35.085,100.8L35.085,96.384L28.269,96.384L28.269,73.344L24.926,73.344L24.926,62.784L28.269,62.784L28.269,49.92L53.421,49.92L53.421,52.992L59.165,52.992L59.165,48L112.8,48Z" style="fill:none;stroke:rgb(115,179,0);stroke-width:0.38px;"/>
                        </g>
                        <g transform="matrix(1.33804,1.48552e-16,-7.40149e-17,1.33804,-2.78842,-499.563)">
                            <rect x="553.279" y="467.883" width="39.263" height="39.263" style="fill:none;stroke:rgb(255,179,0);stroke-width:0.28px;stroke-miterlimit:10;"/>
                        </g>
                        <g transform="matrix(-1,1.66533e-16,-4.996e-16,1,813.955,6.442)">
                            <path d="M112.8,48L112.8,52.992L118.544,52.992L118.544,49.92L143.696,49.92L143.696,62.784L147.038,62.784L147.038,73.344L143.696,73.344L143.696,96.384L136.88,96.384L136.88,100.8L125.36,100.8L125.36,96.384L118.544,96.384L118.544,93.408L112.8,93.408L112.8,100.8L59.165,100.8L59.165,93.408L53.421,93.408L53.421,96.384L46.605,96.384L46.605,100.8L35.085,100.8L35.085,96.384L28.269,96.384L28.269,73.344L24.926,73.344L24.926,62.784L28.269,62.784L28.269,49.92L53.421,49.92L53.421,52.992L59.165,52.992L59.165,48L112.8,48Z" style="fill:none;stroke:rgb(255,179,0);stroke-width:0.38px;"/>
                        </g>
                    </g>
                    <g transform="matrix(1,-1.2326e-31,0,1,-143.632,66.2729)">
                        <g transform="matrix(1.33804,7.42761e-17,3.7138e-17,1.33804,15.2116,-212.049)">
                            <rect x="553.279" y="414.022" width="39.263" height="39.263" style="fill:none;stroke:rgb(255,179,0);stroke-width:0.28px;stroke-miterlimit:10;"/>
                        </g>
                        <g transform="matrix(1.33804,1.48552e-16,1.11414e-16,1.33804,-2.78842,-283.865)">
                            <rect x="553.279" y="414.022" width="39.263" height="39.263" style="fill:none;stroke:rgb(255,179,0);stroke-width:0.28px;stroke-miterlimit:10;"/>
                        </g>
                        <g transform="matrix(1.33804,1.48552e-16,0,1.33804,-2.78842,-643.449)">
                            <rect x="553.279" y="521.745" width="39.263" height="39.263" style="fill:none;stroke:rgb(255,179,0);stroke-width:0.28px;stroke-miterlimit:10;"/>
                        </g>
                        <g transform="matrix(1.33804,1.48552e-16,0,1.33804,-2.78842,-499.563)">
                            <rect x="553.279" y="467.883" width="39.263" height="39.263" style="fill:none;stroke:rgb(255,179,0);stroke-width:0.28px;stroke-miterlimit:10;"/>
                        </g>
                        <g transform="matrix(1.33804,7.42761e-17,0,1.33804,-2.78842,-355.68)">
                            <rect x="553.279" y="414.022" width="39.263" height="39.263" style="fill:none;stroke:rgb(255,179,0);stroke-width:0.28px;stroke-miterlimit:10;"/>
                        </g>
                    </g>
                    <g transform="matrix(1,-1.10934e-31,0,1,-71.816,45)">
                        <g transform="matrix(1.33804,1.48552e-16,1.11414e-16,1.33804,15.2116,-212.049)">
                            <rect x="553.279" y="414.022" width="39.263" height="39.263" style="fill:none;stroke:rgb(255,179,0);stroke-width:0.28px;stroke-miterlimit:10;"/>
                        </g>
                        <g transform="matrix(1.33804,1.48552e-16,1.11414e-16,1.33804,-2.78842,-283.865)">
                            <rect x="553.279" y="414.022" width="39.263" height="39.263" style="fill:none;stroke:rgb(255,179,0);stroke-width:0.28px;stroke-miterlimit:10;"/>
                        </g>
                        <g transform="matrix(1.33804,1.48552e-16,0,1.33804,-2.78842,-643.449)">
                            <rect x="553.279" y="521.745" width="39.263" height="39.263" style="fill:none;stroke:rgb(255,179,0);stroke-width:0.28px;stroke-miterlimit:10;"/>
                        </g>
                        <g transform="matrix(1.33804,1.48552e-16,0,1.33804,-2.78842,-499.563)">
                            <rect x="553.279" y="467.883" width="39.263" height="39.263" style="fill:none;stroke:rgb(255,179,0);stroke-width:0.28px;stroke-miterlimit:10;"/>
                        </g>
                        <g transform="matrix(1.33804,7.42761e-17,0,1.33804,-2.78842,-355.68)">
                            <rect x="553.279" y="414.022" width="39.263" height="39.263" style="fill:none;stroke:rgb(255,179,0);stroke-width:0.28px;stroke-miterlimit:10;"/>
                        </g>
                    </g>
                    <g transform="matrix(1.00353,0,-5.55112e-17,1,-2.78842,5.68434e-14)">
                        <g transform="matrix(1.33333,0,1.85037e-16,1.33804,2.11724e-13,-283.865)">
                            <rect x="553.279" y="414.022" width="39.263" height="39.263" style="fill:none;stroke:rgb(255,179,0);stroke-width:0.28px;stroke-miterlimit:10;"/>
                        </g>
                        <g transform="matrix(1.33333,7.40149e-17,0,1.33804,-2.52435e-29,-643.449)">
                            <rect x="553.279" y="521.745" width="39.263" height="39.263" style="fill:none;stroke:rgb(255,179,0);stroke-width:0.28px;stroke-miterlimit:10;"/>
                        </g>
                        <g transform="matrix(1.33333,0,7.40149e-17,1.33804,1.99765e-13,-499.563)">
                            <rect x="553.279" y="467.883" width="39.263" height="39.263" style="fill:none;stroke:rgb(255,179,0);stroke-width:0.28px;stroke-miterlimit:10;"/>
                        </g>
                        <g transform="matrix(1.33333,0,0,1.33804,2.27374e-13,-355.68)">
                            <rect x="553.279" y="414.022" width="39.263" height="39.263" style="fill:none;stroke:rgb(255,179,0);stroke-width:0.28px;stroke-miterlimit:10;"/>
                        </g>
                    </g>
                    <g transform="matrix(1.00353,0,0,1,-3.04189,0)">
                        <g transform="matrix(1.33333,7.40149e-17,7.40149e-17,1.33804,4.1767e-13,-670.414)">
                            <rect x="607.141" y="528.479" width="39.263" height="39.263" style="fill:none;stroke:rgb(255,179,0);stroke-width:0.28px;stroke-miterlimit:10;"/>
                        </g>
                        <g transform="matrix(1.33333,0,0,1.33804,4.54747e-13,-526.525)">
                            <rect x="607.141" y="474.616" width="39.263" height="39.263" style="fill:none;stroke:rgb(255,179,0);stroke-width:0.28px;stroke-miterlimit:10;"/>
                        </g>
                        <g transform="matrix(1.33333,0,0,1.33804,4.54747e-13,-382.64)">
                            <rect x="607.141" y="420.754" width="39.263" height="39.263" style="fill:none;stroke:rgb(255,179,0);stroke-width:0.28px;stroke-miterlimit:10;"/>
                        </g>
                        <g transform="matrix(1.33333,0,0,1.33804,4.54747e-13,-310.825)">
                            <rect x="607.141" y="420.754" width="39.263" height="39.263" style="fill:none;stroke:rgb(255,179,0);stroke-width:0.28px;stroke-miterlimit:10;"/>
                        </g>
                    </g>
                    <g transform="matrix(1.00353,0,0,1,-3.29536,5.68434e-14)">
                        <g transform="matrix(1.33333,0,0,1.33804,4.54747e-13,-652.425)">
                            <rect x="661.003" y="521.745" width="39.263" height="39.263" style="fill:none;stroke:rgb(255,179,0);stroke-width:0.28px;stroke-miterlimit:10;"/>
                        </g>
                        <g transform="matrix(1.33333,7.40149e-17,7.40149e-17,1.33804,1.99266e-13,-508.539)">
                            <rect x="661.003" y="467.883" width="39.263" height="39.263" style="fill:none;stroke:rgb(255,179,0);stroke-width:0.28px;stroke-miterlimit:10;"/>
                        </g>
                        <g transform="matrix(1.33333,7.40149e-17,7.40149e-17,1.33804,-2.01343e-14,-364.656)">
                            <rect x="661.003" y="414.022" width="39.263" height="39.263" style="fill:none;stroke:rgb(255,179,0);stroke-width:0.28px;stroke-miterlimit:10;"/>
                        </g>
                        <g transform="matrix(1.33333,7.40149e-17,7.40149e-17,1.33804,2.11226e-13,-292.841)">
                            <rect x="661.003" y="414.022" width="39.263" height="39.263" style="fill:none;stroke:rgb(255,179,0);stroke-width:0.28px;stroke-miterlimit:10;"/>
                        </g>
                    </g>
                    <g transform="matrix(1.00353,0,0,1,-3.54883,0)">
                        <g transform="matrix(1.33333,7.40149e-17,7.40149e-17,1.33804,4.19663e-13,-634.441)">
                            <rect x="714.865" y="515.013" width="39.263" height="39.263" style="fill:none;stroke:rgb(255,179,0);stroke-width:0.28px;stroke-miterlimit:10;"/>
                        </g>
                        <g transform="matrix(1.33333,7.40149e-17,7.40149e-17,1.33804,4.27637e-13,-490.553)">
                            <rect x="714.865" y="461.15" width="39.263" height="39.263" style="fill:none;stroke:rgb(255,179,0);stroke-width:0.28px;stroke-miterlimit:10;"/>
                        </g>
                        <g transform="matrix(1.33333,7.40149e-17,7.40149e-17,1.33804,2.08236e-13,-346.667)">
                            <rect x="714.865" y="407.288" width="39.263" height="39.263" style="fill:none;stroke:rgb(255,179,0);stroke-width:0.28px;stroke-miterlimit:10;"/>
                        </g>
                        <g transform="matrix(1.33333,7.40149e-17,7.40149e-17,1.33804,4.39596e-13,-274.852)">
                            <rect x="714.865" y="407.288" width="39.263" height="39.263" style="fill:none;stroke:rgb(255,179,0);stroke-width:0.28px;stroke-miterlimit:10;"/>
                        </g>
                    </g>
                    <g transform="matrix(1,-5.55112e-17,-5.55112e-17,1.00347,0,-1.1856)">
                        <g transform="matrix(1.56726,-7.42761e-17,6.17149e-17,1.33342,-86.2623,-210.136)">
                            <rect x="553.279" y="414.022" width="39.263" height="39.263" style="fill:none;stroke:rgb(255,179,0);stroke-width:0.26px;stroke-miterlimit:10;"/>
                        </g>
                        <g transform="matrix(1.33804,7.42761e-17,-7.40149e-17,1.33342,130.377,-210.133)">
                            <rect x="553.279" y="414.022" width="39.263" height="39.263" style="fill:none;stroke:rgb(255,179,0);stroke-width:0.28px;stroke-miterlimit:10;"/>
                        </g>
                        <g transform="matrix(1.33804,7.42761e-17,-3.82282e-16,1.33342,14.4512,-201.154)">
                            <rect x="714.865" y="407.288" width="39.263" height="39.263" style="fill:none;stroke:rgb(255,179,0);stroke-width:0.28px;stroke-miterlimit:10;"/>
                        </g>
                    </g>
                </g>
                <g id="ねじ穴">
                    <g transform="matrix(6.80956e-17,1.36766,-1.36692,5.23334e-16,1705.59,-469.596)">
                        <path d="M391.454,1090.15C391.454,1091.68 390.218,1092.92 388.69,1092.92C387.165,1092.92 385.927,1091.68 385.927,1090.15C385.927,1088.63 387.165,1087.39 388.69,1087.39C390.218,1087.39 391.454,1088.63 391.454,1090.15Z" style="fill:none;stroke:rgb(255,0,0);stroke-width:0.28px;stroke-miterlimit:2;"/>
                    </g>
                    <g transform="matrix(6.80956e-17,1.36766,-1.36692,5.23334e-16,2054.19,-473.596)">
                        <path d="M394.379,1086.64C394.379,1088.17 393.143,1089.41 391.615,1089.41C390.09,1089.41 388.852,1088.17 388.852,1086.64C388.852,1085.12 390.09,1083.88 391.615,1083.88C393.143,1083.88 394.379,1085.12 394.379,1086.64Z" style="fill:none;stroke:rgb(255,0,0);stroke-width:0.28px;stroke-miterlimit:2;"/>
                    </g>
                    <g transform="matrix(6.80956e-17,1.36766,-1.36692,5.23334e-16,2425.32,-468.566)">
                        <path d="M390.701,1086.85C390.701,1088.38 389.465,1089.62 387.937,1089.62C386.412,1089.62 385.174,1088.38 385.174,1086.85C385.174,1085.33 386.412,1084.09 387.937,1084.09C389.465,1084.09 390.701,1085.33 390.701,1086.85Z" style="fill:none;stroke:rgb(255,0,0);stroke-width:0.28px;stroke-miterlimit:2;"/>
                    </g>
                    <g transform="matrix(6.80956e-17,1.36766,-1.36692,5.23334e-16,2739.15,-468.567)">
                        <path d="M390.702,1085.76C390.702,1087.29 389.466,1088.53 387.938,1088.53C386.413,1088.53 385.175,1087.29 385.175,1085.76C385.175,1084.24 386.413,1083 387.938,1083C389.466,1083 390.702,1084.24 390.702,1085.76Z" style="fill:none;stroke:rgb(255,0,0);stroke-width:0.28px;stroke-miterlimit:2;"/>
                    </g>
                    <g transform="matrix(6.80956e-17,1.36766,-1.36692,5.23334e-16,3221.55,-469.596)">
                        <path d="M391.454,1090.15C391.454,1091.68 390.218,1092.92 388.69,1092.92C387.165,1092.92 385.927,1091.68 385.927,1090.15C385.927,1088.63 387.165,1087.39 388.69,1087.39C390.218,1087.39 391.454,1088.63 391.454,1090.15Z" style="fill:none;stroke:rgb(255,0,0);stroke-width:0.28px;stroke-miterlimit:2;"/>
                    </g>
                    <g transform="matrix(6.80956e-17,1.36766,-1.36692,5.23334e-16,3221.55,-26.2523)">
                        <path d="M391.454,1090.15C391.454,1091.68 390.218,1092.92 388.69,1092.92C387.165,1092.92 385.927,1091.68 385.927,1090.15C385.927,1088.63 387.165,1087.39 388.69,1087.39C390.218,1087.39 391.454,1088.63 391.454,1090.15Z" style="fill:none;stroke:rgb(255,0,0);stroke-width:0.28px;stroke-miterlimit:2;"/>
                    </g>
                    <g transform="matrix(6.80956e-17,1.36766,-1.36692,5.23334e-16,2764.42,-26.2523)">
                        <path d="M391.454,1090.15C391.454,1091.68 390.218,1092.92 388.69,1092.92C387.165,1092.92 385.927,1091.68 385.927,1090.15C385.927,1088.63 387.165,1087.39 388.69,1087.39C390.218,1087.39 391.454,1088.63 391.454,1090.15Z" style="fill:none;stroke:rgb(255,0,0);stroke-width:0.28px;stroke-miterlimit:2;"/>
                    </g>
                    <g transform="matrix(6.80956e-17,1.36766,-1.36692,5.23334e-16,2426.76,-26.2523)">
                        <path d="M391.454,1090.15C391.454,1091.68 390.218,1092.92 388.69,1092.92C387.165,1092.92 385.927,1091.68 385.927,1090.15C385.927,1088.63 387.165,1087.39 388.69,1087.39C390.218,1087.39 391.454,1088.63 391.454,1090.15Z" style="fill:none;stroke:rgb(255,0,0);stroke-width:0.28px;stroke-miterlimit:2;"/>
                    </g>
                    <g transform="matrix(6.80956e-17,1.36766,-1.36692,5.23334e-16,2054.19,-26.2523)">
                        <path d="M391.454,1090.15C391.454,1091.68 390.218,1092.92 388.69,1092.92C387.165,1092.92 385.927,1091.68 385.927,1090.15C385.927,1088.63 387.165,1087.39 388.69,1087.39C390.218,1087.39 391.454,1088.63 391.454,1090.15Z" style="fill:none;stroke:rgb(255,0,0);stroke-width:0.28px;stroke-miterlimit:2;"/>
                    </g>
                    <g transform="matrix(6.80956e-17,1.36766,-1.36692,5.23334e-16,1705.59,-26.2523)">
                        <path d="M391.454,1090.15C391.454,1091.68 390.218,1092.92 388.69,1092.92C387.165,1092.92 385.927,1091.68 385.927,1090.15C385.927,1088.63 387.165,1087.39 388.69,1087.39C390.218,1087.39 391.454,1088.63 391.454,1090.15Z" style="fill:none;stroke:rgb(255,0,0);stroke-width:0.28px;stroke-miterlimit:2;"/>
                    </g>
                </g>
                <g id="内側穴" transform="matrix(1,0,0,1,130,-8)">
                    <g id="LED穴" transform="matrix(0.984439,-5.55112e-17,-2.04927e-16,1.33333,-108.928,-213.791)">
                        <path d="M817.076,529.178L731.092,370.107L682.474,497.997L701.898,502.343L691.364,529.178L817.076,529.178Z" style="fill:none;stroke:rgb(255,0,0);stroke-width:0.32px;stroke-miterlimit:10;"/>
                    </g>
                    <g transform="matrix(-1.28294,0.380024,0.380024,1.28294,1725.05,-701.398)">
                        <path d="M782.764,438.135L708.56,460.116L709.877,668.929L759.97,668.782L782.764,438.135Z" style="fill:none;stroke:rgb(255,179,0);stroke-width:0.28px;stroke-miterlimit:10;"/>
                    </g>
                </g>
                <g id="外形" transform="matrix(0.985565,0,0,0.958937,37.1027,31.93)">
                    <path d="M1754.74,478.728L1781.52,451.009L1781.52,65.195L1762.98,45.957L1734.45,45.957L1734.45,23.015L1703.63,23.015L1703.63,45.957L1691.8,45.957L1691.8,23.015L1260.99,23.015L1260.99,45.957L1250.64,45.957L1250.64,23.015L1219.96,23.015L1219.96,45.957L1208.95,45.957L1208.95,23.015L1024.46,23.015L1024.46,45.957L931.035,45.957L931.035,23.015L900.723,23.015L893.419,65.855L732.653,133.738L618.071,99.315L560.699,65.855L554.844,23.015L524.165,23.015L524.165,45.957L515.683,45.957L515.683,23.015L201.222,23.015L201.222,45.957L196.282,45.957L196.282,23.015L165.603,23.015L130.238,65.078L129.581,462.558L144.804,478.748L165.612,478.748L165.612,501.547L196.291,501.547L196.291,478.758L208.154,478.758L208.154,501.568L507.077,501.568L507.077,478.772L519.308,478.773L519.308,501.547L549.987,501.547L549.987,478.783L554.844,478.783L629.371,501.568L833.27,501.568L889.335,478.728L897.34,478.728L897.34,501.568L928.019,501.568L928.019,478.728L1029.81,478.728L1029.81,501.568L1143.29,501.568L1218.28,478.728L1239.83,478.728L1239.83,501.568L1270.51,501.568L1270.51,478.74L1284.33,478.74L1284.33,501.568L1692.94,501.568L1692.94,478.728L1703.77,478.728L1703.77,501.568L1734.45,501.568L1734.45,478.728L1754.74,478.728Z" style="fill:none;stroke:rgb(255,0,0);stroke-width:0.39px;"/>
                </g>
            </g>
        </g>
    </g>
</svg>
