999
"DXF R12 Output" (www.mydxf.blogspot.com)
 0 
SECTION
 2 
HEADER
 9 
$ACADVER
 1 
AC1009
 9 
$EXTMIN
 10 
 0 
 20 
 0 
 9 
$EXTMAX
 10 
 8.5 
 20 
 11 
 0 
ENDSEC
 0 
SECTION
 2 
ENTITIES
0
LINE
8
Layer 1
10
112.800000
20
48.000000
11
112.800000
21
52.992000
0
LINE
8
Layer 1
10
112.800000
20
52.992000
11
118.544000
21
52.992000
0
LINE
8
Layer 1
10
118.544000
20
52.992000
11
118.544000
21
49.920000
0
LINE
8
Layer 1
10
118.544000
20
49.920000
11
143.696000
21
49.920000
0
LINE
8
Layer 1
10
143.696000
20
49.920000
11
143.696000
21
62.784000
0
LINE
8
Layer 1
10
143.696000
20
62.784000
11
147.038000
21
62.784000
0
LINE
8
Layer 1
10
147.038000
20
62.784000
11
147.038000
21
73.344000
0
LINE
8
Layer 1
10
147.038000
20
73.344000
11
143.696000
21
73.344000
0
LINE
8
Layer 1
10
143.696000
20
73.344000
11
143.696000
21
96.384000
0
LINE
8
Layer 1
10
143.696000
20
96.384000
11
136.880000
21
96.384000
0
LINE
8
Layer 1
10
136.880000
20
96.384000
11
136.880000
21
100.800000
0
LINE
8
Layer 1
10
136.880000
20
100.800000
11
125.360000
21
100.800000
0
LINE
8
Layer 1
10
125.360000
20
100.800000
11
125.360000
21
96.384000
0
LINE
8
Layer 1
10
125.360000
20
96.384000
11
118.544000
21
96.384000
0
LINE
8
Layer 1
10
118.544000
20
96.384000
11
118.544000
21
93.408000
0
LINE
8
Layer 1
10
118.544000
20
93.408000
11
112.800000
21
93.408000
0
LINE
8
Layer 1
10
112.800000
20
93.408000
11
112.800000
21
100.800000
0
LINE
8
Layer 1
10
112.800000
20
100.800000
11
59.165000
21
100.800000
0
LINE
8
Layer 1
10
59.165000
20
100.800000
11
59.165000
21
93.408000
0
LINE
8
Layer 1
10
59.165000
20
93.408000
11
53.421000
21
93.408000
0
LINE
8
Layer 1
10
53.421000
20
93.408000
11
53.421000
21
96.384000
0
LINE
8
Layer 1
10
53.421000
20
96.384000
11
46.605000
21
96.384000
0
LINE
8
Layer 1
10
46.605000
20
96.384000
11
46.605000
21
100.800000
0
LINE
8
Layer 1
10
46.605000
20
100.800000
11
35.085000
21
100.800000
0
LINE
8
Layer 1
10
35.085000
20
100.800000
11
35.085000
21
96.384000
0
LINE
8
Layer 1
10
35.085000
20
96.384000
11
28.269000
21
96.384000
0
LINE
8
Layer 1
10
28.269000
20
96.384000
11
28.269000
21
73.344000
0
LINE
8
Layer 1
10
28.269000
20
73.344000
11
24.926000
21
73.344000
0
LINE
8
Layer 1
10
24.926000
20
73.344000
11
24.926000
21
62.784000
0
LINE
8
Layer 1
10
24.926000
20
62.784000
11
28.269000
21
62.784000
0
LINE
8
Layer 1
10
28.269000
20
62.784000
11
28.269000
21
49.920000
0
LINE
8
Layer 1
10
28.269000
20
49.920000
11
53.421000
21
49.920000
0
LINE
8
Layer 1
10
53.421000
20
49.920000
11
53.421000
21
52.992000
0
LINE
8
Layer 1
10
53.421000
20
52.992000
11
59.165000
21
52.992000
0
LINE
8
Layer 1
10
59.165000
20
52.992000
11
59.165000
21
48.000000
0
LINE
8
Layer 1
10
59.165000
20
48.000000
11
112.800000
21
48.000000
0
LINE
8
Layer 1
10
112.800000
20
48.000000
11
112.800000
21
48.000000
0
LINE
8
Layer 1
10
112.800000
20
48.000000
11
112.800000
21
52.992000
0
LINE
8
Layer 1
10
112.800000
20
52.992000
11
118.544000
21
52.992000
0
LINE
8
Layer 1
10
118.544000
20
52.992000
11
118.544000
21
49.920000
0
LINE
8
Layer 1
10
118.544000
20
49.920000
11
143.696000
21
49.920000
0
LINE
8
Layer 1
10
143.696000
20
49.920000
11
143.696000
21
62.784000
0
LINE
8
Layer 1
10
143.696000
20
62.784000
11
147.038000
21
62.784000
0
LINE
8
Layer 1
10
147.038000
20
62.784000
11
147.038000
21
73.344000
0
LINE
8
Layer 1
10
147.038000
20
73.344000
11
143.696000
21
73.344000
0
LINE
8
Layer 1
10
143.696000
20
73.344000
11
143.696000
21
96.384000
0
LINE
8
Layer 1
10
143.696000
20
96.384000
11
136.880000
21
96.384000
0
LINE
8
Layer 1
10
136.880000
20
96.384000
11
136.880000
21
100.800000
0
LINE
8
Layer 1
10
136.880000
20
100.800000
11
125.360000
21
100.800000
0
LINE
8
Layer 1
10
125.360000
20
100.800000
11
125.360000
21
96.384000
0
LINE
8
Layer 1
10
125.360000
20
96.384000
11
118.544000
21
96.384000
0
LINE
8
Layer 1
10
118.544000
20
96.384000
11
118.544000
21
93.408000
0
LINE
8
Layer 1
10
118.544000
20
93.408000
11
112.800000
21
93.408000
0
LINE
8
Layer 1
10
112.800000
20
93.408000
11
112.800000
21
100.800000
0
LINE
8
Layer 1
10
112.800000
20
100.800000
11
59.165000
21
100.800000
0
LINE
8
Layer 1
10
59.165000
20
100.800000
11
59.165000
21
93.408000
0
LINE
8
Layer 1
10
59.165000
20
93.408000
11
53.421000
21
93.408000
0
LINE
8
Layer 1
10
53.421000
20
93.408000
11
53.421000
21
96.384000
0
LINE
8
Layer 1
10
53.421000
20
96.384000
11
46.605000
21
96.384000
0
LINE
8
Layer 1
10
46.605000
20
96.384000
11
46.605000
21
100.800000
0
LINE
8
Layer 1
10
46.605000
20
100.800000
11
35.085000
21
100.800000
0
LINE
8
Layer 1
10
35.085000
20
100.800000
11
35.085000
21
96.384000
0
LINE
8
Layer 1
10
35.085000
20
96.384000
11
28.269000
21
96.384000
0
LINE
8
Layer 1
10
28.269000
20
96.384000
11
28.269000
21
73.344000
0
LINE
8
Layer 1
10
28.269000
20
73.344000
11
24.926000
21
73.344000
0
LINE
8
Layer 1
10
24.926000
20
73.344000
11
24.926000
21
62.784000
0
LINE
8
Layer 1
10
24.926000
20
62.784000
11
28.269000
21
62.784000
0
LINE
8
Layer 1
10
28.269000
20
62.784000
11
28.269000
21
49.920000
0
LINE
8
Layer 1
10
28.269000
20
49.920000
11
53.421000
21
49.920000
0
LINE
8
Layer 1
10
53.421000
20
49.920000
11
53.421000
21
52.992000
0
LINE
8
Layer 1
10
53.421000
20
52.992000
11
59.165000
21
52.992000
0
LINE
8
Layer 1
10
59.165000
20
52.992000
11
59.165000
21
48.000000
0
LINE
8
Layer 1
10
59.165000
20
48.000000
11
112.800000
21
48.000000
0
LINE
8
Layer 1
10
112.800000
20
48.000000
11
112.800000
21
48.000000
0
LINE
8
Layer 1
10
112.800000
20
48.000000
11
112.800000
21
52.992000
0
LINE
8
Layer 1
10
112.800000
20
52.992000
11
118.544000
21
52.992000
0
LINE
8
Layer 1
10
118.544000
20
52.992000
11
118.544000
21
49.920000
0
LINE
8
Layer 1
10
118.544000
20
49.920000
11
143.696000
21
49.920000
0
LINE
8
Layer 1
10
143.696000
20
49.920000
11
143.696000
21
62.784000
0
LINE
8
Layer 1
10
143.696000
20
62.784000
11
147.038000
21
62.784000
0
LINE
8
Layer 1
10
147.038000
20
62.784000
11
147.038000
21
73.344000
0
LINE
8
Layer 1
10
147.038000
20
73.344000
11
143.696000
21
73.344000
0
LINE
8
Layer 1
10
143.696000
20
73.344000
11
143.696000
21
96.384000
0
LINE
8
Layer 1
10
143.696000
20
96.384000
11
136.880000
21
96.384000
0
LINE
8
Layer 1
10
136.880000
20
96.384000
11
136.880000
21
100.800000
0
LINE
8
Layer 1
10
136.880000
20
100.800000
11
125.360000
21
100.800000
0
LINE
8
Layer 1
10
125.360000
20
100.800000
11
125.360000
21
96.384000
0
LINE
8
Layer 1
10
125.360000
20
96.384000
11
118.544000
21
96.384000
0
LINE
8
Layer 1
10
118.544000
20
96.384000
11
118.544000
21
93.408000
0
LINE
8
Layer 1
10
118.544000
20
93.408000
11
112.800000
21
93.408000
0
LINE
8
Layer 1
10
112.800000
20
93.408000
11
112.800000
21
100.800000
0
LINE
8
Layer 1
10
112.800000
20
100.800000
11
59.165000
21
100.800000
0
LINE
8
Layer 1
10
59.165000
20
100.800000
11
59.165000
21
93.408000
0
LINE
8
Layer 1
10
59.165000
20
93.408000
11
53.421000
21
93.408000
0
LINE
8
Layer 1
10
53.421000
20
93.408000
11
53.421000
21
96.384000
0
LINE
8
Layer 1
10
53.421000
20
96.384000
11
46.605000
21
96.384000
0
LINE
8
Layer 1
10
46.605000
20
96.384000
11
46.605000
21
100.800000
0
LINE
8
Layer 1
10
46.605000
20
100.800000
11
35.085000
21
100.800000
0
LINE
8
Layer 1
10
35.085000
20
100.800000
11
35.085000
21
96.384000
0
LINE
8
Layer 1
10
35.085000
20
96.384000
11
28.269000
21
96.384000
0
LINE
8
Layer 1
10
28.269000
20
96.384000
11
28.269000
21
73.344000
0
LINE
8
Layer 1
10
28.269000
20
73.344000
11
24.926000
21
73.344000
0
LINE
8
Layer 1
10
24.926000
20
73.344000
11
24.926000
21
62.784000
0
LINE
8
Layer 1
10
24.926000
20
62.784000
11
28.269000
21
62.784000
0
LINE
8
Layer 1
10
28.269000
20
62.784000
11
28.269000
21
49.920000
0
LINE
8
Layer 1
10
28.269000
20
49.920000
11
53.421000
21
49.920000
0
LINE
8
Layer 1
10
53.421000
20
49.920000
11
53.421000
21
52.992000
0
LINE
8
Layer 1
10
53.421000
20
52.992000
11
59.165000
21
52.992000
0
LINE
8
Layer 1
10
59.165000
20
52.992000
11
59.165000
21
48.000000
0
LINE
8
Layer 1
10
59.165000
20
48.000000
11
112.800000
21
48.000000
0
LINE
8
Layer 1
10
112.800000
20
48.000000
11
112.800000
21
48.000000
0
LINE
8
Layer 1
10
112.800000
20
48.000000
11
112.800000
21
52.992000
0
LINE
8
Layer 1
10
112.800000
20
52.992000
11
118.544000
21
52.992000
0
LINE
8
Layer 1
10
118.544000
20
52.992000
11
118.544000
21
49.920000
0
LINE
8
Layer 1
10
118.544000
20
49.920000
11
143.696000
21
49.920000
0
LINE
8
Layer 1
10
143.696000
20
49.920000
11
143.696000
21
62.784000
0
LINE
8
Layer 1
10
143.696000
20
62.784000
11
147.038000
21
62.784000
0
LINE
8
Layer 1
10
147.038000
20
62.784000
11
147.038000
21
73.344000
0
LINE
8
Layer 1
10
147.038000
20
73.344000
11
143.696000
21
73.344000
0
LINE
8
Layer 1
10
143.696000
20
73.344000
11
143.696000
21
96.384000
0
LINE
8
Layer 1
10
143.696000
20
96.384000
11
136.880000
21
96.384000
0
LINE
8
Layer 1
10
136.880000
20
96.384000
11
136.880000
21
100.800000
0
LINE
8
Layer 1
10
136.880000
20
100.800000
11
125.360000
21
100.800000
0
LINE
8
Layer 1
10
125.360000
20
100.800000
11
125.360000
21
96.384000
0
LINE
8
Layer 1
10
125.360000
20
96.384000
11
118.544000
21
96.384000
0
LINE
8
Layer 1
10
118.544000
20
96.384000
11
118.544000
21
93.408000
0
LINE
8
Layer 1
10
118.544000
20
93.408000
11
112.800000
21
93.408000
0
LINE
8
Layer 1
10
112.800000
20
93.408000
11
112.800000
21
100.800000
0
LINE
8
Layer 1
10
112.800000
20
100.800000
11
59.165000
21
100.800000
0
LINE
8
Layer 1
10
59.165000
20
100.800000
11
59.165000
21
93.408000
0
LINE
8
Layer 1
10
59.165000
20
93.408000
11
53.421000
21
93.408000
0
LINE
8
Layer 1
10
53.421000
20
93.408000
11
53.421000
21
96.384000
0
LINE
8
Layer 1
10
53.421000
20
96.384000
11
46.605000
21
96.384000
0
LINE
8
Layer 1
10
46.605000
20
96.384000
11
46.605000
21
100.800000
0
LINE
8
Layer 1
10
46.605000
20
100.800000
11
35.085000
21
100.800000
0
LINE
8
Layer 1
10
35.085000
20
100.800000
11
35.085000
21
96.384000
0
LINE
8
Layer 1
10
35.085000
20
96.384000
11
28.269000
21
96.384000
0
LINE
8
Layer 1
10
28.269000
20
96.384000
11
28.269000
21
73.344000
0
LINE
8
Layer 1
10
28.269000
20
73.344000
11
24.926000
21
73.344000
0
LINE
8
Layer 1
10
24.926000
20
73.344000
11
24.926000
21
62.784000
0
LINE
8
Layer 1
10
24.926000
20
62.784000
11
28.269000
21
62.784000
0
LINE
8
Layer 1
10
28.269000
20
62.784000
11
28.269000
21
49.920000
0
LINE
8
Layer 1
10
28.269000
20
49.920000
11
53.421000
21
49.920000
0
LINE
8
Layer 1
10
53.421000
20
49.920000
11
53.421000
21
52.992000
0
LINE
8
Layer 1
10
53.421000
20
52.992000
11
59.165000
21
52.992000
0
LINE
8
Layer 1
10
59.165000
20
52.992000
11
59.165000
21
48.000000
0
LINE
8
Layer 1
10
59.165000
20
48.000000
11
112.800000
21
48.000000
0
LINE
8
Layer 1
10
112.800000
20
48.000000
11
112.800000
21
48.000000
0
LINE
8
Layer 1
10
112.800000
20
48.000000
11
112.800000
21
52.992000
0
LINE
8
Layer 1
10
112.800000
20
52.992000
11
118.544000
21
52.992000
0
LINE
8
Layer 1
10
118.544000
20
52.992000
11
118.544000
21
49.920000
0
LINE
8
Layer 1
10
118.544000
20
49.920000
11
143.696000
21
49.920000
0
LINE
8
Layer 1
10
143.696000
20
49.920000
11
143.696000
21
62.784000
0
LINE
8
Layer 1
10
143.696000
20
62.784000
11
147.038000
21
62.784000
0
LINE
8
Layer 1
10
147.038000
20
62.784000
11
147.038000
21
73.344000
0
LINE
8
Layer 1
10
147.038000
20
73.344000
11
143.696000
21
73.344000
0
LINE
8
Layer 1
10
143.696000
20
73.344000
11
143.696000
21
96.384000
0
LINE
8
Layer 1
10
143.696000
20
96.384000
11
136.880000
21
96.384000
0
LINE
8
Layer 1
10
136.880000
20
96.384000
11
136.880000
21
100.800000
0
LINE
8
Layer 1
10
136.880000
20
100.800000
11
125.360000
21
100.800000
0
LINE
8
Layer 1
10
125.360000
20
100.800000
11
125.360000
21
96.384000
0
LINE
8
Layer 1
10
125.360000
20
96.384000
11
118.544000
21
96.384000
0
LINE
8
Layer 1
10
118.544000
20
96.384000
11
118.544000
21
93.408000
0
LINE
8
Layer 1
10
118.544000
20
93.408000
11
112.800000
21
93.408000
0
LINE
8
Layer 1
10
112.800000
20
93.408000
11
112.800000
21
100.800000
0
LINE
8
Layer 1
10
112.800000
20
100.800000
11
59.165000
21
100.800000
0
LINE
8
Layer 1
10
59.165000
20
100.800000
11
59.165000
21
93.408000
0
LINE
8
Layer 1
10
59.165000
20
93.408000
11
53.421000
21
93.408000
0
LINE
8
Layer 1
10
53.421000
20
93.408000
11
53.421000
21
96.384000
0
LINE
8
Layer 1
10
53.421000
20
96.384000
11
46.605000
21
96.384000
0
LINE
8
Layer 1
10
46.605000
20
96.384000
11
46.605000
21
100.800000
0
LINE
8
Layer 1
10
46.605000
20
100.800000
11
35.085000
21
100.800000
0
LINE
8
Layer 1
10
35.085000
20
100.800000
11
35.085000
21
96.384000
0
LINE
8
Layer 1
10
35.085000
20
96.384000
11
28.269000
21
96.384000
0
LINE
8
Layer 1
10
28.269000
20
96.384000
11
28.269000
21
73.344000
0
LINE
8
Layer 1
10
28.269000
20
73.344000
11
24.926000
21
73.344000
0
LINE
8
Layer 1
10
24.926000
20
73.344000
11
24.926000
21
62.784000
0
LINE
8
Layer 1
10
24.926000
20
62.784000
11
28.269000
21
62.784000
0
LINE
8
Layer 1
10
28.269000
20
62.784000
11
28.269000
21
49.920000
0
LINE
8
Layer 1
10
28.269000
20
49.920000
11
53.421000
21
49.920000
0
LINE
8
Layer 1
10
53.421000
20
49.920000
11
53.421000
21
52.992000
0
LINE
8
Layer 1
10
53.421000
20
52.992000
11
59.165000
21
52.992000
0
LINE
8
Layer 1
10
59.165000
20
52.992000
11
59.165000
21
48.000000
0
LINE
8
Layer 1
10
59.165000
20
48.000000
11
112.800000
21
48.000000
0
LINE
8
Layer 1
10
112.800000
20
48.000000
11
112.800000
21
48.000000
0
LINE
8
Layer 1
10
112.800000
20
48.000000
11
112.800000
21
52.992000
0
LINE
8
Layer 1
10
112.800000
20
52.992000
11
118.544000
21
52.992000
0
LINE
8
Layer 1
10
118.544000
20
52.992000
11
118.544000
21
49.920000
0
LINE
8
Layer 1
10
118.544000
20
49.920000
11
143.696000
21
49.920000
0
LINE
8
Layer 1
10
143.696000
20
49.920000
11
143.696000
21
62.784000
0
LINE
8
Layer 1
10
143.696000
20
62.784000
11
147.038000
21
62.784000
0
LINE
8
Layer 1
10
147.038000
20
62.784000
11
147.038000
21
73.344000
0
LINE
8
Layer 1
10
147.038000
20
73.344000
11
143.696000
21
73.344000
0
LINE
8
Layer 1
10
143.696000
20
73.344000
11
143.696000
21
96.384000
0
LINE
8
Layer 1
10
143.696000
20
96.384000
11
136.880000
21
96.384000
0
LINE
8
Layer 1
10
136.880000
20
96.384000
11
136.880000
21
100.800000
0
LINE
8
Layer 1
10
136.880000
20
100.800000
11
125.360000
21
100.800000
0
LINE
8
Layer 1
10
125.360000
20
100.800000
11
125.360000
21
96.384000
0
LINE
8
Layer 1
10
125.360000
20
96.384000
11
118.544000
21
96.384000
0
LINE
8
Layer 1
10
118.544000
20
96.384000
11
118.544000
21
93.408000
0
LINE
8
Layer 1
10
118.544000
20
93.408000
11
112.800000
21
93.408000
0
LINE
8
Layer 1
10
112.800000
20
93.408000
11
112.800000
21
100.800000
0
LINE
8
Layer 1
10
112.800000
20
100.800000
11
59.165000
21
100.800000
0
LINE
8
Layer 1
10
59.165000
20
100.800000
11
59.165000
21
93.408000
0
LINE
8
Layer 1
10
59.165000
20
93.408000
11
53.421000
21
93.408000
0
LINE
8
Layer 1
10
53.421000
20
93.408000
11
53.421000
21
96.384000
0
LINE
8
Layer 1
10
53.421000
20
96.384000
11
46.605000
21
96.384000
0
LINE
8
Layer 1
10
46.605000
20
96.384000
11
46.605000
21
100.800000
0
LINE
8
Layer 1
10
46.605000
20
100.800000
11
35.085000
21
100.800000
0
LINE
8
Layer 1
10
35.085000
20
100.800000
11
35.085000
21
96.384000
0
LINE
8
Layer 1
10
35.085000
20
96.384000
11
28.269000
21
96.384000
0
LINE
8
Layer 1
10
28.269000
20
96.384000
11
28.269000
21
73.344000
0
LINE
8
Layer 1
10
28.269000
20
73.344000
11
24.926000
21
73.344000
0
LINE
8
Layer 1
10
24.926000
20
73.344000
11
24.926000
21
62.784000
0
LINE
8
Layer 1
10
24.926000
20
62.784000
11
28.269000
21
62.784000
0
LINE
8
Layer 1
10
28.269000
20
62.784000
11
28.269000
21
49.920000
0
LINE
8
Layer 1
10
28.269000
20
49.920000
11
53.421000
21
49.920000
0
LINE
8
Layer 1
10
53.421000
20
49.920000
11
53.421000
21
52.992000
0
LINE
8
Layer 1
10
53.421000
20
52.992000
11
59.165000
21
52.992000
0
LINE
8
Layer 1
10
59.165000
20
52.992000
11
59.165000
21
48.000000
0
LINE
8
Layer 1
10
59.165000
20
48.000000
11
112.800000
21
48.000000
0
LINE
8
Layer 1
10
112.800000
20
48.000000
11
112.800000
21
48.000000
0
LINE
8
Layer 1
10
112.800000
20
48.000000
11
112.800000
21
52.992000
0
LINE
8
Layer 1
10
112.800000
20
52.992000
11
118.544000
21
52.992000
0
LINE
8
Layer 1
10
118.544000
20
52.992000
11
118.544000
21
49.920000
0
LINE
8
Layer 1
10
118.544000
20
49.920000
11
143.696000
21
49.920000
0
LINE
8
Layer 1
10
143.696000
20
49.920000
11
143.696000
21
62.784000
0
LINE
8
Layer 1
10
143.696000
20
62.784000
11
147.038000
21
62.784000
0
LINE
8
Layer 1
10
147.038000
20
62.784000
11
147.038000
21
73.344000
0
LINE
8
Layer 1
10
147.038000
20
73.344000
11
143.696000
21
73.344000
0
LINE
8
Layer 1
10
143.696000
20
73.344000
11
143.696000
21
96.384000
0
LINE
8
Layer 1
10
143.696000
20
96.384000
11
136.880000
21
96.384000
0
LINE
8
Layer 1
10
136.880000
20
96.384000
11
136.880000
21
100.800000
0
LINE
8
Layer 1
10
136.880000
20
100.800000
11
125.360000
21
100.800000
0
LINE
8
Layer 1
10
125.360000
20
100.800000
11
125.360000
21
96.384000
0
LINE
8
Layer 1
10
125.360000
20
96.384000
11
118.544000
21
96.384000
0
LINE
8
Layer 1
10
118.544000
20
96.384000
11
118.544000
21
93.408000
0
LINE
8
Layer 1
10
118.544000
20
93.408000
11
112.800000
21
93.408000
0
LINE
8
Layer 1
10
112.800000
20
93.408000
11
112.800000
21
100.800000
0
LINE
8
Layer 1
10
112.800000
20
100.800000
11
59.165000
21
100.800000
0
LINE
8
Layer 1
10
59.165000
20
100.800000
11
59.165000
21
93.408000
0
LINE
8
Layer 1
10
59.165000
20
93.408000
11
53.421000
21
93.408000
0
LINE
8
Layer 1
10
53.421000
20
93.408000
11
53.421000
21
96.384000
0
LINE
8
Layer 1
10
53.421000
20
96.384000
11
46.605000
21
96.384000
0
LINE
8
Layer 1
10
46.605000
20
96.384000
11
46.605000
21
100.800000
0
LINE
8
Layer 1
10
46.605000
20
100.800000
11
35.085000
21
100.800000
0
LINE
8
Layer 1
10
35.085000
20
100.800000
11
35.085000
21
96.384000
0
LINE
8
Layer 1
10
35.085000
20
96.384000
11
28.269000
21
96.384000
0
LINE
8
Layer 1
10
28.269000
20
96.384000
11
28.269000
21
73.344000
0
LINE
8
Layer 1
10
28.269000
20
73.344000
11
24.926000
21
73.344000
0
LINE
8
Layer 1
10
24.926000
20
73.344000
11
24.926000
21
62.784000
0
LINE
8
Layer 1
10
24.926000
20
62.784000
11
28.269000
21
62.784000
0
LINE
8
Layer 1
10
28.269000
20
62.784000
11
28.269000
21
49.920000
0
LINE
8
Layer 1
10
28.269000
20
49.920000
11
53.421000
21
49.920000
0
LINE
8
Layer 1
10
53.421000
20
49.920000
11
53.421000
21
52.992000
0
LINE
8
Layer 1
10
53.421000
20
52.992000
11
59.165000
21
52.992000
0
LINE
8
Layer 1
10
59.165000
20
52.992000
11
59.165000
21
48.000000
0
LINE
8
Layer 1
10
59.165000
20
48.000000
11
112.800000
21
48.000000
0
LINE
8
Layer 1
10
112.800000
20
48.000000
11
112.800000
21
48.000000
0
LINE
8
Layer 1
10
391.454000
20
1090.150000
11
391.237000
21
1091.228281
0
LINE
8
Layer 1
10
391.237000
20
1091.228281
11
390.645000
21
1092.108750
0
LINE
8
Layer 1
10
390.645000
20
1092.108750
11
389.766500
21
1092.702344
0
LINE
8
Layer 1
10
389.766500
20
1092.702344
11
388.690000
21
1092.920000
0
LINE
8
Layer 1
10
388.690000
20
1092.920000
11
387.614922
21
1092.702344
0
LINE
8
Layer 1
10
387.614922
20
1092.702344
11
386.736625
21
1092.108750
0
LINE
8
Layer 1
10
386.736625
20
1092.108750
11
386.144266
21
1091.228281
0
LINE
8
Layer 1
10
386.144266
20
1091.228281
11
385.927000
21
1090.150000
0
LINE
8
Layer 1
10
385.927000
20
1090.150000
11
386.144266
21
1089.077500
0
LINE
8
Layer 1
10
386.144266
20
1089.077500
11
386.736625
21
1088.200000
0
LINE
8
Layer 1
10
386.736625
20
1088.200000
11
387.614922
21
1087.607500
0
LINE
8
Layer 1
10
387.614922
20
1087.607500
11
388.690000
21
1087.390000
0
LINE
8
Layer 1
10
388.690000
20
1087.390000
11
389.766500
21
1087.607500
0
LINE
8
Layer 1
10
389.766500
20
1087.607500
11
390.645000
21
1088.200000
0
LINE
8
Layer 1
10
390.645000
20
1088.200000
11
391.237000
21
1089.077500
0
LINE
8
Layer 1
10
391.237000
20
1089.077500
11
391.454000
21
1090.150000
0
LINE
8
Layer 1
10
391.454000
20
1090.150000
11
391.454000
21
1090.150000
0
LINE
8
Layer 1
10
394.379000
20
1086.640000
11
394.162000
21
1087.718281
0
LINE
8
Layer 1
10
394.162000
20
1087.718281
11
393.570000
21
1088.598750
0
LINE
8
Layer 1
10
393.570000
20
1088.598750
11
392.691500
21
1089.192344
0
LINE
8
Layer 1
10
392.691500
20
1089.192344
11
391.615000
21
1089.410000
0
LINE
8
Layer 1
10
391.615000
20
1089.410000
11
390.539922
21
1089.192344
0
LINE
8
Layer 1
10
390.539922
20
1089.192344
11
389.661625
21
1088.598750
0
LINE
8
Layer 1
10
389.661625
20
1088.598750
11
389.069266
21
1087.718281
0
LINE
8
Layer 1
10
389.069266
20
1087.718281
11
388.852000
21
1086.640000
0
LINE
8
Layer 1
10
388.852000
20
1086.640000
11
389.069266
21
1085.567500
0
LINE
8
Layer 1
10
389.069266
20
1085.567500
11
389.661625
21
1084.690000
0
LINE
8
Layer 1
10
389.661625
20
1084.690000
11
390.539922
21
1084.097500
0
LINE
8
Layer 1
10
390.539922
20
1084.097500
11
391.615000
21
1083.880000
0
LINE
8
Layer 1
10
391.615000
20
1083.880000
11
392.691500
21
1084.097500
0
LINE
8
Layer 1
10
392.691500
20
1084.097500
11
393.570000
21
1084.690000
0
LINE
8
Layer 1
10
393.570000
20
1084.690000
11
394.162000
21
1085.567500
0
LINE
8
Layer 1
10
394.162000
20
1085.567500
11
394.379000
21
1086.640000
0
LINE
8
Layer 1
10
394.379000
20
1086.640000
11
394.379000
21
1086.640000
0
LINE
8
Layer 1
10
390.701000
20
1086.850000
11
390.484000
21
1087.928281
0
LINE
8
Layer 1
10
390.484000
20
1087.928281
11
389.892000
21
1088.808750
0
LINE
8
Layer 1
10
389.892000
20
1088.808750
11
389.013500
21
1089.402344
0
LINE
8
Layer 1
10
389.013500
20
1089.402344
11
387.937000
21
1089.620000
0
LINE
8
Layer 1
10
387.937000
20
1089.620000
11
386.861922
21
1089.402344
0
LINE
8
Layer 1
10
386.861922
20
1089.402344
11
385.983625
21
1088.808750
0
LINE
8
Layer 1
10
385.983625
20
1088.808750
11
385.391266
21
1087.928281
0
LINE
8
Layer 1
10
385.391266
20
1087.928281
11
385.174000
21
1086.850000
0
LINE
8
Layer 1
10
385.174000
20
1086.850000
11
385.391266
21
1085.777500
0
LINE
8
Layer 1
10
385.391266
20
1085.777500
11
385.983625
21
1084.900000
0
LINE
8
Layer 1
10
385.983625
20
1084.900000
11
386.861922
21
1084.307500
0
LINE
8
Layer 1
10
386.861922
20
1084.307500
11
387.937000
21
1084.090000
0
LINE
8
Layer 1
10
387.937000
20
1084.090000
11
389.013500
21
1084.307500
0
LINE
8
Layer 1
10
389.013500
20
1084.307500
11
389.892000
21
1084.900000
0
LINE
8
Layer 1
10
389.892000
20
1084.900000
11
390.484000
21
1085.777500
0
LINE
8
Layer 1
10
390.484000
20
1085.777500
11
390.701000
21
1086.850000
0
LINE
8
Layer 1
10
390.701000
20
1086.850000
11
390.701000
21
1086.850000
0
LINE
8
Layer 1
10
390.702000
20
1085.760000
11
390.485000
21
1086.838281
0
LINE
8
Layer 1
10
390.485000
20
1086.838281
11
389.893000
21
1087.718750
0
LINE
8
Layer 1
10
389.893000
20
1087.718750
11
389.014500
21
1088.312344
0
LINE
8
Layer 1
10
389.014500
20
1088.312344
11
387.938000
21
1088.530000
0
LINE
8
Layer 1
10
387.938000
20
1088.530000
11
386.862922
21
1088.312344
0
LINE
8
Layer 1
10
386.862922
20
1088.312344
11
385.984625
21
1087.718750
0
LINE
8
Layer 1
10
385.984625
20
1087.718750
11
385.392266
21
1086.838281
0
LINE
8
Layer 1
10
385.392266
20
1086.838281
11
385.175000
21
1085.760000
0
LINE
8
Layer 1
10
385.175000
20
1085.760000
11
385.392266
21
1084.687500
0
LINE
8
Layer 1
10
385.392266
20
1084.687500
11
385.984625
21
1083.810000
0
LINE
8
Layer 1
10
385.984625
20
1083.810000
11
386.862922
21
1083.217500
0
LINE
8
Layer 1
10
386.862922
20
1083.217500
11
387.938000
21
1083.000000
0
LINE
8
Layer 1
10
387.938000
20
1083.000000
11
389.014500
21
1083.217500
0
LINE
8
Layer 1
10
389.014500
20
1083.217500
11
389.893000
21
1083.810000
0
LINE
8
Layer 1
10
389.893000
20
1083.810000
11
390.485000
21
1084.687500
0
LINE
8
Layer 1
10
390.485000
20
1084.687500
11
390.702000
21
1085.760000
0
LINE
8
Layer 1
10
390.702000
20
1085.760000
11
390.702000
21
1085.760000
0
LINE
8
Layer 1
10
391.454000
20
1090.150000
11
391.237000
21
1091.228281
0
LINE
8
Layer 1
10
391.237000
20
1091.228281
11
390.645000
21
1092.108750
0
LINE
8
Layer 1
10
390.645000
20
1092.108750
11
389.766500
21
1092.702344
0
LINE
8
Layer 1
10
389.766500
20
1092.702344
11
388.690000
21
1092.920000
0
LINE
8
Layer 1
10
388.690000
20
1092.920000
11
387.614922
21
1092.702344
0
LINE
8
Layer 1
10
387.614922
20
1092.702344
11
386.736625
21
1092.108750
0
LINE
8
Layer 1
10
386.736625
20
1092.108750
11
386.144266
21
1091.228281
0
LINE
8
Layer 1
10
386.144266
20
1091.228281
11
385.927000
21
1090.150000
0
LINE
8
Layer 1
10
385.927000
20
1090.150000
11
386.144266
21
1089.077500
0
LINE
8
Layer 1
10
386.144266
20
1089.077500
11
386.736625
21
1088.200000
0
LINE
8
Layer 1
10
386.736625
20
1088.200000
11
387.614922
21
1087.607500
0
LINE
8
Layer 1
10
387.614922
20
1087.607500
11
388.690000
21
1087.390000
0
LINE
8
Layer 1
10
388.690000
20
1087.390000
11
389.766500
21
1087.607500
0
LINE
8
Layer 1
10
389.766500
20
1087.607500
11
390.645000
21
1088.200000
0
LINE
8
Layer 1
10
390.645000
20
1088.200000
11
391.237000
21
1089.077500
0
LINE
8
Layer 1
10
391.237000
20
1089.077500
11
391.454000
21
1090.150000
0
LINE
8
Layer 1
10
391.454000
20
1090.150000
11
391.454000
21
1090.150000
0
LINE
8
Layer 1
10
391.454000
20
1090.150000
11
391.237000
21
1091.228281
0
LINE
8
Layer 1
10
391.237000
20
1091.228281
11
390.645000
21
1092.108750
0
LINE
8
Layer 1
10
390.645000
20
1092.108750
11
389.766500
21
1092.702344
0
LINE
8
Layer 1
10
389.766500
20
1092.702344
11
388.690000
21
1092.920000
0
LINE
8
Layer 1
10
388.690000
20
1092.920000
11
387.614922
21
1092.702344
0
LINE
8
Layer 1
10
387.614922
20
1092.702344
11
386.736625
21
1092.108750
0
LINE
8
Layer 1
10
386.736625
20
1092.108750
11
386.144266
21
1091.228281
0
LINE
8
Layer 1
10
386.144266
20
1091.228281
11
385.927000
21
1090.150000
0
LINE
8
Layer 1
10
385.927000
20
1090.150000
11
386.144266
21
1089.077500
0
LINE
8
Layer 1
10
386.144266
20
1089.077500
11
386.736625
21
1088.200000
0
LINE
8
Layer 1
10
386.736625
20
1088.200000
11
387.614922
21
1087.607500
0
LINE
8
Layer 1
10
387.614922
20
1087.607500
11
388.690000
21
1087.390000
0
LINE
8
Layer 1
10
388.690000
20
1087.390000
11
389.766500
21
1087.607500
0
LINE
8
Layer 1
10
389.766500
20
1087.607500
11
390.645000
21
1088.200000
0
LINE
8
Layer 1
10
390.645000
20
1088.200000
11
391.237000
21
1089.077500
0
LINE
8
Layer 1
10
391.237000
20
1089.077500
11
391.454000
21
1090.150000
0
LINE
8
Layer 1
10
391.454000
20
1090.150000
11
391.454000
21
1090.150000
0
LINE
8
Layer 1
10
391.454000
20
1090.150000
11
391.237000
21
1091.228281
0
LINE
8
Layer 1
10
391.237000
20
1091.228281
11
390.645000
21
1092.108750
0
LINE
8
Layer 1
10
390.645000
20
1092.108750
11
389.766500
21
1092.702344
0
LINE
8
Layer 1
10
389.766500
20
1092.702344
11
388.690000
21
1092.920000
0
LINE
8
Layer 1
10
388.690000
20
1092.920000
11
387.614922
21
1092.702344
0
LINE
8
Layer 1
10
387.614922
20
1092.702344
11
386.736625
21
1092.108750
0
LINE
8
Layer 1
10
386.736625
20
1092.108750
11
386.144266
21
1091.228281
0
LINE
8
Layer 1
10
386.144266
20
1091.228281
11
385.927000
21
1090.150000
0
LINE
8
Layer 1
10
385.927000
20
1090.150000
11
386.144266
21
1089.077500
0
LINE
8
Layer 1
10
386.144266
20
1089.077500
11
386.736625
21
1088.200000
0
LINE
8
Layer 1
10
386.736625
20
1088.200000
11
387.614922
21
1087.607500
0
LINE
8
Layer 1
10
387.614922
20
1087.607500
11
388.690000
21
1087.390000
0
LINE
8
Layer 1
10
388.690000
20
1087.390000
11
389.766500
21
1087.607500
0
LINE
8
Layer 1
10
389.766500
20
1087.607500
11
390.645000
21
1088.200000
0
LINE
8
Layer 1
10
390.645000
20
1088.200000
11
391.237000
21
1089.077500
0
LINE
8
Layer 1
10
391.237000
20
1089.077500
11
391.454000
21
1090.150000
0
LINE
8
Layer 1
10
391.454000
20
1090.150000
11
391.454000
21
1090.150000
0
LINE
8
Layer 1
10
391.454000
20
1090.150000
11
391.237000
21
1091.228281
0
LINE
8
Layer 1
10
391.237000
20
1091.228281
11
390.645000
21
1092.108750
0
LINE
8
Layer 1
10
390.645000
20
1092.108750
11
389.766500
21
1092.702344
0
LINE
8
Layer 1
10
389.766500
20
1092.702344
11
388.690000
21
1092.920000
0
LINE
8
Layer 1
10
388.690000
20
1092.920000
11
387.614922
21
1092.702344
0
LINE
8
Layer 1
10
387.614922
20
1092.702344
11
386.736625
21
1092.108750
0
LINE
8
Layer 1
10
386.736625
20
1092.108750
11
386.144266
21
1091.228281
0
LINE
8
Layer 1
10
386.144266
20
1091.228281
11
385.927000
21
1090.150000
0
LINE
8
Layer 1
10
385.927000
20
1090.150000
11
386.144266
21
1089.077500
0
LINE
8
Layer 1
10
386.144266
20
1089.077500
11
386.736625
21
1088.200000
0
LINE
8
Layer 1
10
386.736625
20
1088.200000
11
387.614922
21
1087.607500
0
LINE
8
Layer 1
10
387.614922
20
1087.607500
11
388.690000
21
1087.390000
0
LINE
8
Layer 1
10
388.690000
20
1087.390000
11
389.766500
21
1087.607500
0
LINE
8
Layer 1
10
389.766500
20
1087.607500
11
390.645000
21
1088.200000
0
LINE
8
Layer 1
10
390.645000
20
1088.200000
11
391.237000
21
1089.077500
0
LINE
8
Layer 1
10
391.237000
20
1089.077500
11
391.454000
21
1090.150000
0
LINE
8
Layer 1
10
391.454000
20
1090.150000
11
391.454000
21
1090.150000
0
LINE
8
Layer 1
10
391.454000
20
1090.150000
11
391.237000
21
1091.228281
0
LINE
8
Layer 1
10
391.237000
20
1091.228281
11
390.645000
21
1092.108750
0
LINE
8
Layer 1
10
390.645000
20
1092.108750
11
389.766500
21
1092.702344
0
LINE
8
Layer 1
10
389.766500
20
1092.702344
11
388.690000
21
1092.920000
0
LINE
8
Layer 1
10
388.690000
20
1092.920000
11
387.614922
21
1092.702344
0
LINE
8
Layer 1
10
387.614922
20
1092.702344
11
386.736625
21
1092.108750
0
LINE
8
Layer 1
10
386.736625
20
1092.108750
11
386.144266
21
1091.228281
0
LINE
8
Layer 1
10
386.144266
20
1091.228281
11
385.927000
21
1090.150000
0
LINE
8
Layer 1
10
385.927000
20
1090.150000
11
386.144266
21
1089.077500
0
LINE
8
Layer 1
10
386.144266
20
1089.077500
11
386.736625
21
1088.200000
0
LINE
8
Layer 1
10
386.736625
20
1088.200000
11
387.614922
21
1087.607500
0
LINE
8
Layer 1
10
387.614922
20
1087.607500
11
388.690000
21
1087.390000
0
LINE
8
Layer 1
10
388.690000
20
1087.390000
11
389.766500
21
1087.607500
0
LINE
8
Layer 1
10
389.766500
20
1087.607500
11
390.645000
21
1088.200000
0
LINE
8
Layer 1
10
390.645000
20
1088.200000
11
391.237000
21
1089.077500
0
LINE
8
Layer 1
10
391.237000
20
1089.077500
11
391.454000
21
1090.150000
0
LINE
8
Layer 1
10
391.454000
20
1090.150000
11
391.454000
21
1090.150000
0
LINE
8
Layer 1
10
391.454000
20
1090.150000
11
391.237000
21
1091.228281
0
LINE
8
Layer 1
10
391.237000
20
1091.228281
11
390.645000
21
1092.108750
0
LINE
8
Layer 1
10
390.645000
20
1092.108750
11
389.766500
21
1092.702344
0
LINE
8
Layer 1
10
389.766500
20
1092.702344
11
388.690000
21
1092.920000
0
LINE
8
Layer 1
10
388.690000
20
1092.920000
11
387.614922
21
1092.702344
0
LINE
8
Layer 1
10
387.614922
20
1092.702344
11
386.736625
21
1092.108750
0
LINE
8
Layer 1
10
386.736625
20
1092.108750
11
386.144266
21
1091.228281
0
LINE
8
Layer 1
10
386.144266
20
1091.228281
11
385.927000
21
1090.150000
0
LINE
8
Layer 1
10
385.927000
20
1090.150000
11
386.144266
21
1089.077500
0
LINE
8
Layer 1
10
386.144266
20
1089.077500
11
386.736625
21
1088.200000
0
LINE
8
Layer 1
10
386.736625
20
1088.200000
11
387.614922
21
1087.607500
0
LINE
8
Layer 1
10
387.614922
20
1087.607500
11
388.690000
21
1087.390000
0
LINE
8
Layer 1
10
388.690000
20
1087.390000
11
389.766500
21
1087.607500
0
LINE
8
Layer 1
10
389.766500
20
1087.607500
11
390.645000
21
1088.200000
0
LINE
8
Layer 1
10
390.645000
20
1088.200000
11
391.237000
21
1089.077500
0
LINE
8
Layer 1
10
391.237000
20
1089.077500
11
391.454000
21
1090.150000
0
LINE
8
Layer 1
10
391.454000
20
1090.150000
11
391.454000
21
1090.150000
0
LINE
8
Layer 1
10
817.076000
20
529.178000
11
731.092000
21
370.107000
0
LINE
8
Layer 1
10
731.092000
20
370.107000
11
682.474000
21
497.997000
0
LINE
8
Layer 1
10
682.474000
20
497.997000
11
701.898000
21
502.343000
0
LINE
8
Layer 1
10
701.898000
20
502.343000
11
691.364000
21
529.178000
0
LINE
8
Layer 1
10
691.364000
20
529.178000
11
817.076000
21
529.178000
0
LINE
8
Layer 1
10
817.076000
20
529.178000
11
817.076000
21
529.178000
0
LINE
8
Layer 1
10
782.764000
20
438.135000
11
708.560000
21
460.116000
0
LINE
8
Layer 1
10
708.560000
20
460.116000
11
709.877000
21
668.929000
0
LINE
8
Layer 1
10
709.877000
20
668.929000
11
759.970000
21
668.782000
0
LINE
8
Layer 1
10
759.970000
20
668.782000
11
782.764000
21
438.135000
0
LINE
8
Layer 1
10
782.764000
20
438.135000
11
782.764000
21
438.135000
0
LINE
8
Layer 1
10
1754.740000
20
478.728000
11
1781.520000
21
451.009000
0
LINE
8
Layer 1
10
1781.520000
20
451.009000
11
1781.520000
21
65.195000
0
LINE
8
Layer 1
10
1781.520000
20
65.195000
11
1762.980000
21
45.957000
0
LINE
8
Layer 1
10
1762.980000
20
45.957000
11
1734.450000
21
45.957000
0
LINE
8
Layer 1
10
1734.450000
20
45.957000
11
1734.450000
21
23.015000
0
LINE
8
Layer 1
10
1734.450000
20
23.015000
11
1703.630000
21
23.015000
0
LINE
8
Layer 1
10
1703.630000
20
23.015000
11
1703.630000
21
45.957000
0
LINE
8
Layer 1
10
1703.630000
20
45.957000
11
1691.800000
21
45.957000
0
LINE
8
Layer 1
10
1691.800000
20
45.957000
11
1691.800000
21
23.015000
0
LINE
8
Layer 1
10
1691.800000
20
23.015000
11
1260.990000
21
23.015000
0
LINE
8
Layer 1
10
1260.990000
20
23.015000
11
1260.990000
21
45.957000
0
LINE
8
Layer 1
10
1260.990000
20
45.957000
11
1250.640000
21
45.957000
0
LINE
8
Layer 1
10
1250.640000
20
45.957000
11
1250.640000
21
23.015000
0
LINE
8
Layer 1
10
1250.640000
20
23.015000
11
1219.960000
21
23.015000
0
LINE
8
Layer 1
10
1219.960000
20
23.015000
11
1219.960000
21
45.957000
0
LINE
8
Layer 1
10
1219.960000
20
45.957000
11
1208.950000
21
45.957000
0
LINE
8
Layer 1
10
1208.950000
20
45.957000
11
1208.950000
21
23.015000
0
LINE
8
Layer 1
10
1208.950000
20
23.015000
11
1024.460000
21
23.015000
0
LINE
8
Layer 1
10
1024.460000
20
23.015000
11
1024.460000
21
45.957000
0
LINE
8
Layer 1
10
1024.460000
20
45.957000
11
931.035000
21
45.957000
0
LINE
8
Layer 1
10
931.035000
20
45.957000
11
931.035000
21
23.015000
0
LINE
8
Layer 1
10
931.035000
20
23.015000
11
900.723000
21
23.015000
0
LINE
8
Layer 1
10
900.723000
20
23.015000
11
893.419000
21
65.855000
0
LINE
8
Layer 1
10
893.419000
20
65.855000
11
732.653000
21
133.738000
0
LINE
8
Layer 1
10
732.653000
20
133.738000
11
618.071000
21
99.315000
0
LINE
8
Layer 1
10
618.071000
20
99.315000
11
560.699000
21
65.855000
0
LINE
8
Layer 1
10
560.699000
20
65.855000
11
554.844000
21
23.015000
0
LINE
8
Layer 1
10
554.844000
20
23.015000
11
524.165000
21
23.015000
0
LINE
8
Layer 1
10
524.165000
20
23.015000
11
524.165000
21
45.957000
0
LINE
8
Layer 1
10
524.165000
20
45.957000
11
515.683000
21
45.957000
0
LINE
8
Layer 1
10
515.683000
20
45.957000
11
515.683000
21
23.015000
0
LINE
8
Layer 1
10
515.683000
20
23.015000
11
201.222000
21
23.015000
0
LINE
8
Layer 1
10
201.222000
20
23.015000
11
201.222000
21
45.957000
0
LINE
8
Layer 1
10
201.222000
20
45.957000
11
196.282000
21
45.957000
0
LINE
8
Layer 1
10
196.282000
20
45.957000
11
196.282000
21
23.015000
0
LINE
8
Layer 1
10
196.282000
20
23.015000
11
165.603000
21
23.015000
0
LINE
8
Layer 1
10
165.603000
20
23.015000
11
130.238000
21
65.078000
0
LINE
8
Layer 1
10
130.238000
20
65.078000
11
129.581000
21
462.558000
0
LINE
8
Layer 1
10
129.581000
20
462.558000
11
144.804000
21
478.748000
0
LINE
8
Layer 1
10
144.804000
20
478.748000
11
165.612000
21
478.748000
0
LINE
8
Layer 1
10
165.612000
20
478.748000
11
165.612000
21
501.547000
0
LINE
8
Layer 1
10
165.612000
20
501.547000
11
196.291000
21
501.547000
0
LINE
8
Layer 1
10
196.291000
20
501.547000
11
196.291000
21
478.758000
0
LINE
8
Layer 1
10
196.291000
20
478.758000
11
208.154000
21
478.758000
0
LINE
8
Layer 1
10
208.154000
20
478.758000
11
208.154000
21
501.568000
0
LINE
8
Layer 1
10
208.154000
20
501.568000
11
507.077000
21
501.568000
0
LINE
8
Layer 1
10
507.077000
20
501.568000
11
507.077000
21
478.772000
0
LINE
8
Layer 1
10
507.077000
20
478.772000
11
519.308000
21
478.773000
0
LINE
8
Layer 1
10
519.308000
20
478.773000
11
519.308000
21
501.547000
0
LINE
8
Layer 1
10
519.308000
20
501.547000
11
549.987000
21
501.547000
0
LINE
8
Layer 1
10
549.987000
20
501.547000
11
549.987000
21
478.783000
0
LINE
8
Layer 1
10
549.987000
20
478.783000
11
554.844000
21
478.783000
0
LINE
8
Layer 1
10
554.844000
20
478.783000
11
629.371000
21
501.568000
0
LINE
8
Layer 1
10
629.371000
20
501.568000
11
833.270000
21
501.568000
0
LINE
8
Layer 1
10
833.270000
20
501.568000
11
889.335000
21
478.728000
0
LINE
8
Layer 1
10
889.335000
20
478.728000
11
897.340000
21
478.728000
0
LINE
8
Layer 1
10
897.340000
20
478.728000
11
897.340000
21
501.568000
0
LINE
8
Layer 1
10
897.340000
20
501.568000
11
928.019000
21
501.568000
0
LINE
8
Layer 1
10
928.019000
20
501.568000
11
928.019000
21
478.728000
0
LINE
8
Layer 1
10
928.019000
20
478.728000
11
1029.810000
21
478.728000
0
LINE
8
Layer 1
10
1029.810000
20
478.728000
11
1029.810000
21
501.568000
0
LINE
8
Layer 1
10
1029.810000
20
501.568000
11
1143.290000
21
501.568000
0
LINE
8
Layer 1
10
1143.290000
20
501.568000
11
1218.280000
21
478.728000
0
LINE
8
Layer 1
10
1218.280000
20
478.728000
11
1239.830000
21
478.728000
0
LINE
8
Layer 1
10
1239.830000
20
478.728000
11
1239.830000
21
501.568000
0
LINE
8
Layer 1
10
1239.830000
20
501.568000
11
1270.510000
21
501.568000
0
LINE
8
Layer 1
10
1270.510000
20
501.568000
11
1270.510000
21
478.740000
0
LINE
8
Layer 1
10
1270.510000
20
478.740000
11
1284.330000
21
478.740000
0
LINE
8
Layer 1
10
1284.330000
20
478.740000
11
1284.330000
21
501.568000
0
LINE
8
Layer 1
10
1284.330000
20
501.568000
11
1692.940000
21
501.568000
0
LINE
8
Layer 1
10
1692.940000
20
501.568000
11
1692.940000
21
478.728000
0
LINE
8
Layer 1
10
1692.940000
20
478.728000
11
1703.770000
21
478.728000
0
LINE
8
Layer 1
10
1703.770000
20
478.728000
11
1703.770000
21
501.568000
0
LINE
8
Layer 1
10
1703.770000
20
501.568000
11
1734.450000
21
501.568000
0
LINE
8
Layer 1
10
1734.450000
20
501.568000
11
1734.450000
21
478.728000
0
LINE
8
Layer 1
10
1734.450000
20
478.728000
11
1754.740000
21
478.728000
0
LINE
8
Layer 1
10
1754.740000
20
478.728000
11
1754.740000
21
478.728000
 0 
ENDSEC
 0 
EOF