<?xml version="1.0" encoding="UTF-8" standalone="no"?>
<!DOCTYPE svg PUBLIC "-//W3C//DTD SVG 1.1//EN" "http://www.w3.org/Graphics/SVG/1.1/DTD/svg11.dtd">
<svg width="100%" height="100%" viewBox="0 0 1663 490" version="1.1" xmlns="http://www.w3.org/2000/svg" xmlns:xlink="http://www.w3.org/1999/xlink" xml:space="preserve" xmlns:serif="http://www.serif.com/" style="fill-rule:evenodd;clip-rule:evenodd;stroke-linecap:round;stroke-linejoin:round;stroke-miterlimit:10;">
    <g transform="matrix(1,0,0,1,-142,-40)">
        <g id="アートボード1" transform="matrix(2.76751,0,0,1.20085,-171.586,-46.833)">
            <rect x="62" y="39" width="671" height="473" style="fill:none;"/>
            <g id="keyplate" transform="matrix(0.361335,0,0,0.832746,62,39)">
                <g id="L-col" serif:id="L col" transform="matrix(0.95905,0.283237,-0.283237,0.95905,-264.493,-181.348)">
                    <g transform="matrix(1.33333,0,0,1.33333,359.083,-623.04)">
                        <rect x="499.417" y="508.28" width="39.263" height="39.262" style="fill:none;stroke:rgb(255,0,0);stroke-width:0.28px;"/>
                    </g>
                    <g transform="matrix(1.33333,0,0,1.33333,359.083,-479.409)">
                        <rect x="499.417" y="454.418" width="39.263" height="39.263" style="fill:none;stroke:rgb(255,0,0);stroke-width:0.28px;"/>
                    </g>
                    <g transform="matrix(1.33333,0,0,1.33333,359.083,-335.777)">
                        <rect x="499.417" y="400.556" width="39.263" height="39.263" style="fill:none;stroke:rgb(255,0,0);stroke-width:0.28px;"/>
                    </g>
                    <g transform="matrix(1.33333,0,0,1.33333,0,-640.993)">
                        <rect x="553.279" y="521.745" width="39.263" height="39.263" style="fill:none;stroke:rgb(255,0,0);stroke-width:0.28px;"/>
                    </g>
                    <g transform="matrix(1.33333,0,0,1.33333,0,-497.361)">
                        <rect x="553.279" y="467.883" width="39.263" height="39.263" style="fill:none;stroke:rgb(255,0,0);stroke-width:0.28px;"/>
                    </g>
                    <g transform="matrix(1.33333,0,0,1.33333,0,-353.732)">
                        <rect x="553.279" y="414.022" width="39.263" height="39.263" style="fill:none;stroke:rgb(255,0,0);stroke-width:0.28px;"/>
                    </g>
                    <g transform="matrix(1.33333,0,0,1.33333,0,-667.927)">
                        <rect x="607.141" y="528.479" width="39.263" height="39.263" style="fill:none;stroke:rgb(255,0,0);stroke-width:0.28px;"/>
                    </g>
                    <g transform="matrix(1.33333,0,0,1.33333,0,-524.292)">
                        <rect x="607.141" y="474.616" width="39.263" height="39.263" style="fill:none;stroke:rgb(255,0,0);stroke-width:0.28px;"/>
                    </g>
                    <g transform="matrix(1.33333,0,0,1.33333,0,-380.66)">
                        <rect x="607.141" y="420.754" width="39.263" height="39.263" style="fill:none;stroke:rgb(255,0,0);stroke-width:0.28px;"/>
                    </g>
                    <g transform="matrix(1.33333,0,0,1.33333,0,-649.969)">
                        <rect x="661.003" y="521.745" width="39.263" height="39.263" style="fill:none;stroke:rgb(255,0,0);stroke-width:0.28px;"/>
                    </g>
                    <g transform="matrix(1.33333,0,0,1.33333,0,-506.337)">
                        <rect x="661.003" y="467.883" width="39.263" height="39.263" style="fill:none;stroke:rgb(255,0,0);stroke-width:0.28px;"/>
                    </g>
                    <g transform="matrix(1.33333,0,0,1.33333,0,-362.708)">
                        <rect x="661.003" y="414.022" width="39.263" height="39.263" style="fill:none;stroke:rgb(255,0,0);stroke-width:0.28px;"/>
                    </g>
                    <g transform="matrix(1.33333,0,0,1.33333,0,-632.017)">
                        <rect x="714.865" y="515.013" width="39.263" height="39.263" style="fill:none;stroke:rgb(255,0,0);stroke-width:0.28px;"/>
                    </g>
                    <g transform="matrix(1.33333,0,0,1.33333,0,-488.383)">
                        <rect x="714.865" y="461.15" width="39.263" height="39.263" style="fill:none;stroke:rgb(255,0,0);stroke-width:0.28px;"/>
                    </g>
                    <g transform="matrix(1.33333,0,0,1.33333,0,-344.751)">
                        <rect x="714.865" y="407.288" width="39.263" height="39.263" style="fill:none;stroke:rgb(255,0,0);stroke-width:0.28px;"/>
                    </g>
                    <g transform="matrix(1.33333,0,0,1.33333,359.083,-263.962)">
                        <rect x="499.417" y="400.556" width="39.263" height="39.263" style="fill:none;stroke:rgb(255,0,0);stroke-width:0.28px;"/>
                    </g>
                    <g transform="matrix(1.33333,0,0,1.33333,0,-281.917)">
                        <rect x="553.279" y="414.022" width="39.263" height="39.263" style="fill:none;stroke:rgb(255,0,0);stroke-width:0.28px;"/>
                    </g>
                    <g transform="matrix(1.33333,0,0,1.33333,52.3507,-210.102)">
                        <rect x="553.279" y="414.022" width="39.263" height="39.263" style="fill:none;stroke:rgb(255,0,0);stroke-width:0.28px;"/>
                    </g>
                    <g transform="matrix(1.33333,0,0,1.33333,133.166,-210.099)">
                        <rect x="553.279" y="414.022" width="39.263" height="39.263" style="fill:none;stroke:rgb(255,0,0);stroke-width:0.28px;"/>
                    </g>
                    <g transform="matrix(1.33333,0,0,1.33333,0,-308.845)">
                        <rect x="607.141" y="420.754" width="39.263" height="39.263" style="fill:none;stroke:rgb(255,0,0);stroke-width:0.28px;"/>
                    </g>
                    <g transform="matrix(1.33333,0,0,1.33333,0,-290.893)">
                        <rect x="661.003" y="414.022" width="39.263" height="39.263" style="fill:none;stroke:rgb(255,0,0);stroke-width:0.28px;"/>
                    </g>
                    <g transform="matrix(1.33333,0,0,1.33333,0,-272.935)">
                        <rect x="714.865" y="407.288" width="39.263" height="39.263" style="fill:none;stroke:rgb(255,0,0);stroke-width:0.28px;"/>
                    </g>
                    <g transform="matrix(1,0.000811856,-0.000811856,1,938.347,293.645)">
                        <path d="M112.8,48L112.8,52.992L118.544,52.992L118.544,49.92L143.696,49.92L143.696,62.784L147.038,62.784L147.038,73.344L143.696,73.344L143.696,96.384L136.88,96.384L136.88,100.8L125.36,100.8L125.36,96.384L118.544,96.384L118.544,93.408L112.8,93.408L112.8,100.8L59.165,100.8L59.165,93.408L53.421,93.408L53.421,96.384L46.605,96.384L46.605,100.8L35.085,100.8L35.085,96.384L28.269,96.384L28.269,93.408L28.269,73.344L24.926,73.344L24.926,62.784L28.269,62.784L28.269,52.992L28.269,49.92L53.421,49.92L53.421,52.992L59.165,52.992L59.165,48L112.8,48Z" style="fill:none;stroke:rgb(255,0,0);stroke-width:0.38px;stroke-miterlimit:1.5;"/>
                    </g>
                </g>
                <g id="L-row" serif:id="L row" transform="matrix(1,0,0,1,43.748,5)">
                    <g transform="matrix(1.33333,0,0,1.33333,-402.917,-433.189)">
                        <rect x="499.417" y="454.418" width="39.263" height="39.263" style="fill:none;stroke:rgb(255,0,0);stroke-width:0.28px;"/>
                    </g>
                    <g transform="matrix(1.33333,0,0,1.33333,-420.917,-289.557)">
                        <rect x="499.417" y="400.556" width="39.263" height="39.263" style="fill:none;stroke:rgb(255,0,0);stroke-width:0.28px;"/>
                    </g>
                    <g transform="matrix(1.33333,0,0,1.33333,-384.917,-576.819)">
                        <rect x="499.417" y="508.28" width="39.263" height="39.262" style="fill:none;stroke:rgb(255,0,0);stroke-width:0.28px;"/>
                    </g>
                    <g transform="matrix(1.33333,0,0,1.33333,-456.736,-576.821)">
                        <rect x="499.417" y="508.28" width="39.263" height="39.262" style="fill:none;stroke:rgb(255,0,0);stroke-width:0.28px;"/>
                    </g>
                    <g transform="matrix(1.33333,0,0,1.33333,-519.736,-433.193)">
                        <rect x="499.417" y="508.28" width="39.263" height="39.262" style="fill:none;stroke:rgb(255,0,0);stroke-width:0.28px;"/>
                    </g>
                    <g transform="matrix(1.33333,0,0,1.33333,-833.819,-585.798)">
                        <rect x="714.865" y="515.013" width="39.263" height="39.263" style="fill:none;stroke:rgb(255,0,0);stroke-width:0.28px;"/>
                    </g>
                    <g transform="matrix(1.33333,0,0,1.33333,-780,-442.162)">
                        <rect x="714.865" y="461.15" width="39.263" height="39.263" style="fill:none;stroke:rgb(255,0,0);stroke-width:0.28px;"/>
                    </g>
                    <g transform="matrix(1.33333,0,0,1.33333,-438.917,-217.741)">
                        <rect x="499.417" y="400.556" width="39.263" height="39.263" style="fill:none;stroke:rgb(255,0,0);stroke-width:0.28px;"/>
                    </g>
                    <g transform="matrix(1.33333,0,0,1.33333,-816,-226.715)">
                        <rect x="714.865" y="407.288" width="39.263" height="39.263" style="fill:none;stroke:rgb(255,0,0);stroke-width:0.28px;"/>
                    </g>
                    <g transform="matrix(1,0,-5.55112e-17,1,122.192,339.926)">
                        <path d="M112.8,48L112.8,52.992L118.544,52.992L118.544,49.92L143.696,49.92L143.696,62.784L147.038,62.784L147.038,73.344L143.696,73.344L143.696,96.384L136.88,96.384L136.88,100.8L125.36,100.8L125.36,96.384L118.544,96.384L118.544,93.408L112.8,93.408L112.8,100.8L59.165,100.8L59.165,93.408L53.421,93.408L53.421,96.384L46.605,96.384L46.605,100.8L35.085,100.8L35.085,96.384L28.269,96.384L28.269,93.408L28.269,73.344L24.926,73.344L24.926,62.784L28.269,62.784L28.269,52.992L28.269,49.92L53.421,49.92L53.421,52.992L59.165,52.992L59.165,48L112.8,48Z" style="fill:none;stroke:rgb(255,0,0);stroke-width:0.38px;stroke-miterlimit:1.5;"/>
                    </g>
                </g>
                <g id="Num" transform="matrix(0.927184,-0.374607,0.374607,0.927184,-45.9928,442.153)">
                    <g transform="matrix(1.33333,0,0,1.33333,359.083,-623.04)">
                        <rect x="499.417" y="508.28" width="39.263" height="39.262" style="fill:none;stroke:rgb(255,0,0);stroke-width:0.28px;"/>
                    </g>
                    <g transform="matrix(1.33333,0,0,1.33333,359.083,-479.409)">
                        <rect x="499.417" y="454.418" width="39.263" height="39.263" style="fill:none;stroke:rgb(255,0,0);stroke-width:0.28px;"/>
                    </g>
                    <g transform="matrix(1.33333,0,0,1.33333,359.083,-335.777)">
                        <rect x="499.417" y="400.556" width="39.263" height="39.263" style="fill:none;stroke:rgb(255,0,0);stroke-width:0.28px;"/>
                    </g>
                    <g transform="matrix(1.33333,0,0,1.33333,0,-632.017)">
                        <rect x="714.865" y="515.013" width="39.263" height="39.263" style="fill:none;stroke:rgb(255,0,0);stroke-width:0.28px;"/>
                    </g>
                    <g transform="matrix(1.33333,0,0,1.33333,0,-488.383)">
                        <rect x="714.865" y="461.15" width="39.263" height="39.263" style="fill:none;stroke:rgb(255,0,0);stroke-width:0.28px;"/>
                    </g>
                    <g transform="matrix(1.33333,0,0,1.33333,0,-344.751)">
                        <rect x="714.865" y="407.288" width="39.263" height="39.263" style="fill:none;stroke:rgb(255,0,0);stroke-width:0.28px;"/>
                    </g>
                    <g transform="matrix(1.33333,0,0,1.33333,0,-272.935)">
                        <rect x="714.865" y="407.288" width="39.263" height="39.263" style="fill:none;stroke:rgb(255,0,0);stroke-width:0.28px;"/>
                    </g>
                    <g transform="matrix(1.33333,-8.2173e-33,0,1.33333,3.33955e-13,-201.12)">
                        <rect x="714.865" y="407.288" width="39.263" height="39.263" style="fill:none;stroke:rgb(255,0,0);stroke-width:0.28px;"/>
                    </g>
                    <g transform="matrix(1.33333,-8.2173e-33,0,1.33333,215.445,-623.04)">
                        <rect x="499.417" y="508.28" width="39.263" height="39.262" style="fill:none;stroke:rgb(255,0,0);stroke-width:0.28px;"/>
                    </g>
                    <g transform="matrix(1.33333,-8.2173e-33,0,1.33333,215.445,-479.409)">
                        <rect x="499.417" y="454.418" width="39.263" height="39.263" style="fill:none;stroke:rgb(255,0,0);stroke-width:0.28px;"/>
                    </g>
                    <g transform="matrix(1.33333,-8.2173e-33,0,1.33333,215.445,-335.777)">
                        <rect x="499.417" y="400.556" width="39.263" height="39.263" style="fill:none;stroke:rgb(255,0,0);stroke-width:0.28px;"/>
                    </g>
                    <g transform="matrix(1.33333,-8.2173e-33,0,1.33333,-143.637,-488.383)">
                        <rect x="714.865" y="461.15" width="39.263" height="39.263" style="fill:none;stroke:rgb(255,0,0);stroke-width:0.28px;"/>
                    </g>
                    <g transform="matrix(1.33333,-8.2173e-33,0,1.33333,-143.637,-344.751)">
                        <rect x="714.865" y="407.288" width="39.263" height="39.263" style="fill:none;stroke:rgb(255,0,0);stroke-width:0.28px;"/>
                    </g>
                    <g transform="matrix(1.33333,-8.2173e-33,0,1.33333,215.445,-263.962)">
                        <rect x="499.417" y="400.556" width="39.263" height="39.263" style="fill:none;stroke:rgb(255,0,0);stroke-width:0.28px;"/>
                    </g>
                    <g transform="matrix(1.33333,-8.2173e-33,0,1.33333,-143.637,-272.935)">
                        <rect x="714.865" y="407.288" width="39.263" height="39.263" style="fill:none;stroke:rgb(255,0,0);stroke-width:0.28px;"/>
                    </g>
                    <g transform="matrix(1,1.11022e-16,1.66533e-16,1,785.413,293.708)">
                        <path d="M112.8,48L112.8,52.992L118.544,52.992L118.544,49.92L143.696,49.92L143.696,62.784L147.038,62.784L147.038,73.344L143.696,73.344L143.696,96.384L136.88,96.384L136.88,100.8L125.36,100.8L125.36,96.384L118.544,96.384L118.544,93.408L112.8,93.408L112.8,100.8L59.165,100.8L59.165,93.408L53.421,93.408L53.421,96.384L46.605,96.384L46.605,100.8L35.085,100.8L35.085,96.384L28.269,96.384L28.269,93.408L28.269,73.344L24.926,73.344L24.926,62.784L28.269,62.784L28.269,52.992L28.269,49.92L53.421,49.92L53.421,52.992L59.165,52.992L59.165,48L112.8,48Z" style="fill:none;stroke:rgb(255,0,0);stroke-width:0.38px;stroke-miterlimit:1.5;"/>
                    </g>
                    <g transform="matrix(-1.11022e-16,-1,1,1.66533e-16,976.654,418.166)">
                        <path d="M112.8,48L112.8,52.992L118.544,52.992L118.544,49.92L143.696,49.92L143.696,62.784L147.038,62.784L147.038,73.344L143.696,73.344L143.696,96.384L136.88,96.384L136.88,100.8L125.36,100.8L125.36,96.384L118.544,96.384L118.544,93.408L112.8,93.408L112.8,100.8L59.165,100.8L59.165,93.408L53.421,93.408L53.421,96.384L46.605,96.384L46.605,100.8L35.085,100.8L35.085,96.384L28.269,96.384L28.269,93.408L28.269,73.344L24.926,73.344L24.926,62.784L28.269,62.784L28.269,52.992L28.269,49.92L53.421,49.92L53.421,52.992L59.165,52.992L59.165,48L112.8,48Z" style="fill:none;stroke:rgb(255,0,0);stroke-width:0.38px;stroke-miterlimit:1.5;"/>
                    </g>
                </g>
                <g id="R-row" serif:id="R row" transform="matrix(-1,0,0,1,1828.31,5)">
                    <g transform="matrix(1.33333,0,0,1.33333,-352.917,-433.189)">
                        <rect x="499.417" y="454.418" width="39.263" height="39.263" style="fill:none;stroke:rgb(255,0,0);stroke-width:0.28px;"/>
                    </g>
                    <g transform="matrix(1.33333,0,0,1.33333,-370.917,-289.557)">
                        <rect x="499.417" y="400.556" width="39.263" height="39.263" style="fill:none;stroke:rgb(255,0,0);stroke-width:0.28px;"/>
                    </g>
                    <g transform="matrix(1.33333,0,0,1.33333,-334.917,-576.819)">
                        <rect x="499.417" y="508.28" width="39.263" height="39.262" style="fill:none;stroke:rgb(255,0,0);stroke-width:0.28px;"/>
                    </g>
                    <g transform="matrix(1.33333,0,0,1.33333,-406.736,-576.821)">
                        <rect x="499.417" y="508.28" width="39.263" height="39.262" style="fill:none;stroke:rgb(255,0,0);stroke-width:0.28px;"/>
                    </g>
                    <g transform="matrix(1.33333,0,0,1.33333,-424.736,-505.016)">
                        <rect x="499.417" y="508.28" width="39.263" height="39.262" style="fill:none;stroke:rgb(255,0,0);stroke-width:0.28px;"/>
                    </g>
                    <g transform="matrix(1.33333,0,0,1.33333,-442.736,-433.189)">
                        <rect x="499.417" y="508.28" width="39.263" height="39.262" style="fill:none;stroke:rgb(255,0,0);stroke-width:0.28px;"/>
                    </g>
                    <g transform="matrix(1.33333,0,0,1.33333,-496.555,-505.017)">
                        <rect x="499.417" y="508.28" width="39.263" height="39.262" style="fill:none;stroke:rgb(255,0,0);stroke-width:0.28px;"/>
                    </g>
                    <g transform="matrix(1.33333,0,0,1.33333,-478.729,-217.718)">
                        <rect x="499.417" y="454.418" width="39.263" height="39.263" style="fill:none;stroke:rgb(255,0,0);stroke-width:0.28px;"/>
                    </g>
                    <g transform="matrix(1.33333,0,0,1.33333,-550.548,-289.545)">
                        <rect x="499.417" y="508.28" width="39.263" height="39.262" style="fill:none;stroke:rgb(255,0,0);stroke-width:0.28px;"/>
                    </g>
                    <g transform="matrix(1.33333,0,0,1.33333,-622.366,-289.546)">
                        <rect x="499.417" y="508.28" width="39.263" height="39.262" style="fill:none;stroke:rgb(255,0,0);stroke-width:0.28px;"/>
                    </g>
                    <g transform="matrix(1.33333,0,0,1.33333,-586.373,-505.017)">
                        <rect x="499.417" y="508.28" width="39.263" height="39.262" style="fill:none;stroke:rgb(255,0,0);stroke-width:0.28px;"/>
                    </g>
                    <g transform="matrix(1.33333,0,0,1.33333,-388.917,-217.741)">
                        <rect x="499.417" y="400.556" width="39.263" height="39.263" style="fill:none;stroke:rgb(255,0,0);stroke-width:0.28px;"/>
                    </g>
                    <g transform="matrix(1.33333,0,0,1.33333,-388.917,-145.902)">
                        <rect x="499.417" y="400.556" width="39.263" height="39.263" style="fill:none;stroke:rgb(255,0,0);stroke-width:0.28px;"/>
                    </g>
                    <g transform="matrix(1.33333,0,0,1.33333,-756.997,-226.705)">
                        <rect x="714.865" y="407.288" width="39.263" height="39.263" style="fill:none;stroke:rgb(255,0,0);stroke-width:0.28px;"/>
                    </g>
                    <g transform="matrix(1.33333,0,0,1.33333,-837.812,-226.717)">
                        <rect x="714.865" y="407.288" width="39.263" height="39.263" style="fill:none;stroke:rgb(255,0,0);stroke-width:0.28px;"/>
                    </g>
                    <g transform="matrix(-1,0,5.55112e-17,1,263.571,52.6733)">
                        <path d="M112.8,48L112.8,52.992L118.544,52.992L118.544,49.92L143.696,49.92L143.696,62.784L147.038,62.784L147.038,73.344L143.696,73.344L143.696,96.384L136.88,96.384L136.88,100.8L125.36,100.8L125.36,96.384L118.544,96.384L118.544,93.408L112.8,93.408L112.8,100.8L59.165,100.8L59.165,93.408L53.421,93.408L53.421,96.384L46.605,96.384L46.605,100.8L35.085,100.8L35.085,96.384L28.269,96.384L28.269,93.408L28.269,73.344L24.926,73.344L24.926,62.784L28.269,62.784L28.269,52.992L28.269,49.92L53.421,49.92L53.421,52.992L59.165,52.992L59.165,48L112.8,48Z" style="fill:none;stroke:rgb(255,0,0);stroke-width:0.38px;stroke-miterlimit:1.5;"/>
                    </g>
                    <g transform="matrix(-1,0,5.55112e-17,1,218.665,196.322)">
                        <path d="M112.8,48L112.8,52.992L118.544,52.992L118.544,49.92L143.696,49.92L143.696,62.784L147.038,62.784L147.038,73.344L143.696,73.344L143.696,96.384L136.88,96.384L136.88,100.8L125.36,100.8L125.36,96.384L118.544,96.384L118.544,93.408L112.8,93.408L112.8,100.8L59.165,100.8L59.165,93.408L53.421,93.408L53.421,96.384L46.605,96.384L46.605,100.8L35.085,100.8L35.085,96.384L28.269,96.384L28.269,93.408L28.269,73.344L24.926,73.344L24.926,62.784L28.269,62.784L28.269,52.992L28.269,49.92L53.421,49.92L53.421,52.992L59.165,52.992L59.165,48L112.8,48Z" style="fill:none;stroke:rgb(255,0,0);stroke-width:0.38px;stroke-miterlimit:1.5;"/>
                    </g>
                </g>
                <g id="R-col" serif:id="R col" transform="matrix(-0.95905,0.283237,0.283237,0.95905,2086.55,-181.348)">
                    <g transform="matrix(1.33333,0,0,1.33333,0,-640.993)">
                        <rect x="553.279" y="521.745" width="39.263" height="39.263" style="fill:none;stroke:rgb(255,0,0);stroke-width:0.28px;"/>
                    </g>
                    <g transform="matrix(1.33333,0,0,1.33333,0,-497.361)">
                        <rect x="553.279" y="467.883" width="39.263" height="39.263" style="fill:none;stroke:rgb(255,0,0);stroke-width:0.28px;"/>
                    </g>
                    <g transform="matrix(1.33333,0,0,1.33333,0,-353.732)">
                        <rect x="553.279" y="414.022" width="39.263" height="39.263" style="fill:none;stroke:rgb(255,0,0);stroke-width:0.28px;"/>
                    </g>
                    <g transform="matrix(1.33333,0,0,1.33333,0,-667.927)">
                        <rect x="607.141" y="528.479" width="39.263" height="39.263" style="fill:none;stroke:rgb(255,0,0);stroke-width:0.28px;"/>
                    </g>
                    <g transform="matrix(1.33333,0,0,1.33333,0,-524.292)">
                        <rect x="607.141" y="474.616" width="39.263" height="39.263" style="fill:none;stroke:rgb(255,0,0);stroke-width:0.28px;"/>
                    </g>
                    <g transform="matrix(1.33333,0,0,1.33333,0,-380.66)">
                        <rect x="607.141" y="420.754" width="39.263" height="39.263" style="fill:none;stroke:rgb(255,0,0);stroke-width:0.28px;"/>
                    </g>
                    <g transform="matrix(1.33333,0,0,1.33333,0,-649.969)">
                        <rect x="661.003" y="521.745" width="39.263" height="39.263" style="fill:none;stroke:rgb(255,0,0);stroke-width:0.28px;"/>
                    </g>
                    <g transform="matrix(1.33333,0,0,1.33333,0,-506.337)">
                        <rect x="661.003" y="467.883" width="39.263" height="39.263" style="fill:none;stroke:rgb(255,0,0);stroke-width:0.28px;"/>
                    </g>
                    <g transform="matrix(1.33333,0,0,1.33333,0,-362.708)">
                        <rect x="661.003" y="414.022" width="39.263" height="39.263" style="fill:none;stroke:rgb(255,0,0);stroke-width:0.28px;"/>
                    </g>
                    <g transform="matrix(1.33333,0,0,1.33333,0,-632.017)">
                        <rect x="714.865" y="515.013" width="39.263" height="39.263" style="fill:none;stroke:rgb(255,0,0);stroke-width:0.28px;"/>
                    </g>
                    <g transform="matrix(1.33333,0,0,1.33333,0,-488.383)">
                        <rect x="714.865" y="461.15" width="39.263" height="39.263" style="fill:none;stroke:rgb(255,0,0);stroke-width:0.28px;"/>
                    </g>
                    <g transform="matrix(1.33333,0,0,1.33333,0,-344.751)">
                        <rect x="714.865" y="407.288" width="39.263" height="39.263" style="fill:none;stroke:rgb(255,0,0);stroke-width:0.28px;"/>
                    </g>
                    <g transform="matrix(1.33333,0,0,1.33333,0,-281.917)">
                        <rect x="553.279" y="414.022" width="39.263" height="39.263" style="fill:none;stroke:rgb(255,0,0);stroke-width:0.28px;"/>
                    </g>
                    <g transform="matrix(1.33333,0,0,1.33333,52.3507,-210.102)">
                        <rect x="553.279" y="414.022" width="39.263" height="39.263" style="fill:none;stroke:rgb(255,0,0);stroke-width:0.28px;"/>
                    </g>
                    <g transform="matrix(1.33333,0,0,1.33333,133.166,-210.099)">
                        <rect x="553.279" y="414.022" width="39.263" height="39.263" style="fill:none;stroke:rgb(255,0,0);stroke-width:0.28px;"/>
                    </g>
                    <g transform="matrix(1.33333,0,0,1.33333,0,-308.845)">
                        <rect x="607.141" y="420.754" width="39.263" height="39.263" style="fill:none;stroke:rgb(255,0,0);stroke-width:0.28px;"/>
                    </g>
                    <g transform="matrix(1.33333,0,0,1.33333,0,-290.893)">
                        <rect x="661.003" y="414.022" width="39.263" height="39.263" style="fill:none;stroke:rgb(255,0,0);stroke-width:0.28px;"/>
                    </g>
                    <g transform="matrix(1.33333,0,0,1.33333,0,-272.935)">
                        <rect x="714.865" y="407.288" width="39.263" height="39.263" style="fill:none;stroke:rgb(255,0,0);stroke-width:0.28px;"/>
                    </g>
                    <g transform="matrix(1.33329,0,-3.80924e-16,1.33333,18.0363,-201.12)">
                        <rect x="714.865" y="407.288" width="39.263" height="39.263" style="fill:none;stroke:rgb(255,0,0);stroke-width:0.28px;"/>
                    </g>
                </g>
                <g id="ねじ穴">
                    <g transform="matrix(6.80956e-17,1.36766,-1.36692,5.23334e-16,1705.59,-469.596)">
                        <path d="M391.454,1090.15C391.454,1091.68 390.218,1092.92 388.69,1092.92C387.165,1092.92 385.927,1091.68 385.927,1090.15C385.927,1088.63 387.165,1087.39 388.69,1087.39C390.218,1087.39 391.454,1088.63 391.454,1090.15Z" style="fill:none;stroke:rgb(255,0,0);stroke-width:0.28px;stroke-miterlimit:2;"/>
                    </g>
                    <g transform="matrix(6.80956e-17,1.36766,-1.36692,5.23334e-16,2054.19,-473.596)">
                        <path d="M394.379,1086.64C394.379,1088.17 393.143,1089.41 391.615,1089.41C390.09,1089.41 388.852,1088.17 388.852,1086.64C388.852,1085.12 390.09,1083.88 391.615,1083.88C393.143,1083.88 394.379,1085.12 394.379,1086.64Z" style="fill:none;stroke:rgb(255,0,0);stroke-width:0.28px;stroke-miterlimit:2;"/>
                    </g>
                    <g transform="matrix(6.80956e-17,1.36766,-1.36692,5.23334e-16,2425.32,-468.566)">
                        <path d="M390.701,1086.85C390.701,1088.38 389.465,1089.62 387.937,1089.62C386.412,1089.62 385.174,1088.38 385.174,1086.85C385.174,1085.33 386.412,1084.09 387.937,1084.09C389.465,1084.09 390.701,1085.33 390.701,1086.85Z" style="fill:none;stroke:rgb(255,0,0);stroke-width:0.28px;stroke-miterlimit:2;"/>
                    </g>
                    <g transform="matrix(6.80956e-17,1.36766,-1.36692,5.23334e-16,2739.15,-468.567)">
                        <path d="M390.702,1085.76C390.702,1087.29 389.466,1088.53 387.938,1088.53C386.413,1088.53 385.175,1087.29 385.175,1085.76C385.175,1084.24 386.413,1083 387.938,1083C389.466,1083 390.702,1084.24 390.702,1085.76Z" style="fill:none;stroke:rgb(255,0,0);stroke-width:0.28px;stroke-miterlimit:2;"/>
                    </g>
                    <g transform="matrix(6.80956e-17,1.36766,-1.36692,5.23334e-16,3221.55,-469.596)">
                        <path d="M391.454,1090.15C391.454,1091.68 390.218,1092.92 388.69,1092.92C387.165,1092.92 385.927,1091.68 385.927,1090.15C385.927,1088.63 387.165,1087.39 388.69,1087.39C390.218,1087.39 391.454,1088.63 391.454,1090.15Z" style="fill:none;stroke:rgb(255,0,0);stroke-width:0.28px;stroke-miterlimit:2;"/>
                    </g>
                    <g transform="matrix(6.80956e-17,1.36766,-1.36692,5.23334e-16,3221.55,-26.2523)">
                        <path d="M391.454,1090.15C391.454,1091.68 390.218,1092.92 388.69,1092.92C387.165,1092.92 385.927,1091.68 385.927,1090.15C385.927,1088.63 387.165,1087.39 388.69,1087.39C390.218,1087.39 391.454,1088.63 391.454,1090.15Z" style="fill:none;stroke:rgb(255,0,0);stroke-width:0.28px;stroke-miterlimit:2;"/>
                    </g>
                    <g transform="matrix(6.80956e-17,1.36766,-1.36692,5.23334e-16,2764.42,-26.2523)">
                        <path d="M391.454,1090.15C391.454,1091.68 390.218,1092.92 388.69,1092.92C387.165,1092.92 385.927,1091.68 385.927,1090.15C385.927,1088.63 387.165,1087.39 388.69,1087.39C390.218,1087.39 391.454,1088.63 391.454,1090.15Z" style="fill:none;stroke:rgb(255,0,0);stroke-width:0.28px;stroke-miterlimit:2;"/>
                    </g>
                    <g transform="matrix(6.80956e-17,1.36766,-1.36692,5.23334e-16,2426.76,-26.2523)">
                        <path d="M391.454,1090.15C391.454,1091.68 390.218,1092.92 388.69,1092.92C387.165,1092.92 385.927,1091.68 385.927,1090.15C385.927,1088.63 387.165,1087.39 388.69,1087.39C390.218,1087.39 391.454,1088.63 391.454,1090.15Z" style="fill:none;stroke:rgb(255,0,0);stroke-width:0.28px;stroke-miterlimit:2;"/>
                    </g>
                    <g transform="matrix(6.80956e-17,1.36766,-1.36692,5.23334e-16,2054.19,-26.2523)">
                        <path d="M391.454,1090.15C391.454,1091.68 390.218,1092.92 388.69,1092.92C387.165,1092.92 385.927,1091.68 385.927,1090.15C385.927,1088.63 387.165,1087.39 388.69,1087.39C390.218,1087.39 391.454,1088.63 391.454,1090.15Z" style="fill:none;stroke:rgb(255,0,0);stroke-width:0.28px;stroke-miterlimit:2;"/>
                    </g>
                    <g transform="matrix(6.80956e-17,1.36766,-1.36692,5.23334e-16,1705.59,-26.2523)">
                        <path d="M391.454,1090.15C391.454,1091.68 390.218,1092.92 388.69,1092.92C387.165,1092.92 385.927,1091.68 385.927,1090.15C385.927,1088.63 387.165,1087.39 388.69,1087.39C390.218,1087.39 391.454,1088.63 391.454,1090.15Z" style="fill:none;stroke:rgb(255,0,0);stroke-width:0.28px;stroke-miterlimit:2;"/>
                    </g>
                </g>
                <g id="LED穴" transform="matrix(0.984439,-5.55112e-17,-2.04927e-16,1.33333,21.0719,-221.791)">
                    <path d="M818.296,529.178L731.092,365.843L679.349,497.997L698.773,502.343L688.86,529.178L818.296,529.178Z" style="fill:none;stroke:rgb(255,0,0);stroke-width:0.32px;"/>
                </g>
                <g id="外形" transform="matrix(0.985565,0,0,0.958937,37.1027,31.93)">
                    <path d="M1761.55,478.728L1782.91,456.924L1782.91,65.617L1762.98,45.957L1734.45,45.957L1734.45,23.015L1703.63,23.015L1703.63,45.957L1691.8,45.957L1691.8,23.015L1260.99,23.015L1260.99,45.957L1250.64,45.957L1250.64,23.015L1219.96,23.015L1219.96,45.957L1208.95,45.957L1208.95,23.015L1024.46,23.015L1024.46,45.957L1009.08,45.957L964.299,45.957L931.035,45.957L931.035,23.015L900.723,23.015L900.75,45.924L893.419,45.957L893.419,23.015L563.619,23.015L563.619,45.957L554.807,45.957L554.844,23.015L524.165,23.015L524.165,45.957L515.683,45.957L515.683,23.015L201.222,23.015L201.222,45.957L196.282,45.957L196.282,23.015L165.603,23.015L165.603,45.957L137.396,45.957L118.288,65.078L117.63,456.324L139.217,478.748L165.612,478.748L165.612,501.547L196.291,501.547L196.291,478.758L208.154,478.758L208.154,501.568L507.077,501.568L507.077,478.772L519.308,478.773L519.308,501.547L549.987,501.547L549.987,478.783L554.844,478.783L648.798,507.508L818.69,507.508L889.335,478.728L897.34,478.728L897.34,501.568L928.019,501.568L928.019,478.728L1029.81,478.728L1029.81,501.568L1143.29,501.568L1218.28,478.728L1239.83,478.728L1239.83,501.568L1270.51,501.568L1270.51,478.74L1284.33,478.74L1284.33,501.568L1692.94,501.568L1692.94,478.728L1703.77,478.728L1703.77,501.568L1734.45,501.568L1734.45,478.728L1761.55,478.728Z" style="fill:none;stroke:rgb(255,0,0);stroke-width:0.39px;stroke-miterlimit:1.5;"/>
                </g>
            </g>
        </g>
    </g>
</svg>
