G04 #@! TF.GenerationSoftware,KiCad,Pcbnew,(5.1.5-0-10_14)*
G04 #@! TF.CreationDate,2020-04-18T19:29:34+09:00*
G04 #@! TF.ProjectId,colice_left_topFrame,636f6c69-6365-45f6-9c65-66745f746f70,rev?*
G04 #@! TF.SameCoordinates,Original*
G04 #@! TF.FileFunction,Legend,Bot*
G04 #@! TF.FilePolarity,Positive*
%FSLAX46Y46*%
G04 Gerber Fmt 4.6, Leading zero omitted, Abs format (unit mm)*
G04 Created by KiCad (PCBNEW (5.1.5-0-10_14)) date 2020-04-18 19:29:34*
%MOMM*%
%LPD*%
G04 APERTURE LIST*
%ADD10C,0.300000*%
G04 APERTURE END LIST*
D10*
X57105605Y-150168571D02*
X56034177Y-150168571D01*
X56677034Y-149525714D02*
X57105605Y-151454285D01*
X56177034Y-150811428D02*
X57248462Y-150811428D01*
X56605605Y-151454285D02*
X56177034Y-149525714D01*
X54677034Y-151025714D02*
X54748462Y-151097142D01*
X54962748Y-151168571D01*
X55105605Y-151168571D01*
X55319891Y-151097142D01*
X55462748Y-150954285D01*
X55534177Y-150811428D01*
X55605605Y-150525714D01*
X55605605Y-150311428D01*
X55534177Y-150025714D01*
X55462748Y-149882857D01*
X55319891Y-149740000D01*
X55105605Y-149668571D01*
X54962748Y-149668571D01*
X54748462Y-149740000D01*
X54677034Y-149811428D01*
X53819891Y-151168571D02*
X53962748Y-151097142D01*
X54034177Y-151025714D01*
X54105605Y-150882857D01*
X54105605Y-150454285D01*
X54034177Y-150311428D01*
X53962748Y-150240000D01*
X53819891Y-150168571D01*
X53605605Y-150168571D01*
X53462748Y-150240000D01*
X53391320Y-150311428D01*
X53319891Y-150454285D01*
X53319891Y-150882857D01*
X53391320Y-151025714D01*
X53462748Y-151097142D01*
X53605605Y-151168571D01*
X53819891Y-151168571D01*
X52462748Y-151168571D02*
X52605605Y-151097142D01*
X52677034Y-150954285D01*
X52677034Y-149668571D01*
X51891320Y-151168571D02*
X51891320Y-150168571D01*
X51891320Y-149668571D02*
X51962748Y-149740000D01*
X51891320Y-149811428D01*
X51819891Y-149740000D01*
X51891320Y-149668571D01*
X51891320Y-149811428D01*
X50534177Y-151097142D02*
X50677034Y-151168571D01*
X50962748Y-151168571D01*
X51105605Y-151097142D01*
X51177034Y-151025714D01*
X51248462Y-150882857D01*
X51248462Y-150454285D01*
X51177034Y-150311428D01*
X51105605Y-150240000D01*
X50962748Y-150168571D01*
X50677034Y-150168571D01*
X50534177Y-150240000D01*
X49319891Y-151097142D02*
X49462748Y-151168571D01*
X49748462Y-151168571D01*
X49891320Y-151097142D01*
X49962748Y-150954285D01*
X49962748Y-150382857D01*
X49891320Y-150240000D01*
X49748462Y-150168571D01*
X49462748Y-150168571D01*
X49319891Y-150240000D01*
X49248462Y-150382857D01*
X49248462Y-150525714D01*
X49962748Y-150668571D01*
X46534177Y-150454285D02*
X46605605Y-150382857D01*
X46748462Y-150311428D01*
X46891320Y-150311428D01*
X47034177Y-150382857D01*
X47105605Y-150454285D01*
X47177034Y-150597142D01*
X47177034Y-150740000D01*
X47105605Y-150882857D01*
X47034177Y-150954285D01*
X46891320Y-151025714D01*
X46748462Y-151025714D01*
X46605605Y-150954285D01*
X46534177Y-150882857D01*
X46534177Y-150311428D02*
X46534177Y-150882857D01*
X46462748Y-150954285D01*
X46391320Y-150954285D01*
X46248462Y-150882857D01*
X46177034Y-150740000D01*
X46177034Y-150382857D01*
X46319891Y-150168571D01*
X46534177Y-150025714D01*
X46819891Y-149954285D01*
X47105605Y-150025714D01*
X47319891Y-150168571D01*
X47462748Y-150382857D01*
X47534177Y-150668571D01*
X47462748Y-150954285D01*
X47319891Y-151168571D01*
X47105605Y-151311428D01*
X46819891Y-151382857D01*
X46534177Y-151311428D01*
X46319891Y-151168571D01*
X45534177Y-150168571D02*
X45534177Y-151454285D01*
X45605605Y-151597142D01*
X45748462Y-151668571D01*
X45819891Y-151668571D01*
X45534177Y-149668571D02*
X45605605Y-149740000D01*
X45534177Y-149811428D01*
X45462748Y-149740000D01*
X45534177Y-149668571D01*
X45534177Y-149811428D01*
X44819891Y-150168571D02*
X44819891Y-151668571D01*
X44819891Y-150240000D02*
X44677034Y-150168571D01*
X44391320Y-150168571D01*
X44248462Y-150240000D01*
X44177034Y-150311428D01*
X44105605Y-150454285D01*
X44105605Y-150882857D01*
X44177034Y-151025714D01*
X44248462Y-151097142D01*
X44391320Y-151168571D01*
X44677034Y-151168571D01*
X44819891Y-151097142D01*
X43534177Y-151097142D02*
X43391320Y-151168571D01*
X43105605Y-151168571D01*
X42962748Y-151097142D01*
X42891320Y-150954285D01*
X42891320Y-150882857D01*
X42962748Y-150740000D01*
X43105605Y-150668571D01*
X43319891Y-150668571D01*
X43462748Y-150597142D01*
X43534177Y-150454285D01*
X43534177Y-150382857D01*
X43462748Y-150240000D01*
X43319891Y-150168571D01*
X43105605Y-150168571D01*
X42962748Y-150240000D01*
X42248462Y-151168571D02*
X42248462Y-149668571D01*
X42105605Y-150597142D02*
X41677034Y-151168571D01*
X41677034Y-150168571D02*
X42248462Y-150740000D01*
X40462748Y-151097142D02*
X40605605Y-151168571D01*
X40891320Y-151168571D01*
X41034177Y-151097142D01*
X41105605Y-150954285D01*
X41105605Y-150382857D01*
X41034177Y-150240000D01*
X40891320Y-150168571D01*
X40605605Y-150168571D01*
X40462748Y-150240000D01*
X40391320Y-150382857D01*
X40391320Y-150525714D01*
X41105605Y-150668571D01*
X39748462Y-150168571D02*
X39748462Y-151168571D01*
X39748462Y-150311428D02*
X39677034Y-150240000D01*
X39534177Y-150168571D01*
X39319891Y-150168571D01*
X39177034Y-150240000D01*
X39105605Y-150382857D01*
X39105605Y-151168571D01*
X38391320Y-150168571D02*
X38391320Y-151168571D01*
X38391320Y-150311428D02*
X38319891Y-150240000D01*
X38177034Y-150168571D01*
X37962748Y-150168571D01*
X37819891Y-150240000D01*
X37748462Y-150382857D01*
X37748462Y-151168571D01*
X57069891Y-153718571D02*
X57784177Y-153718571D01*
X57784177Y-152218571D01*
X55998462Y-153647142D02*
X56141320Y-153718571D01*
X56427034Y-153718571D01*
X56569891Y-153647142D01*
X56641320Y-153504285D01*
X56641320Y-152932857D01*
X56569891Y-152790000D01*
X56427034Y-152718571D01*
X56141320Y-152718571D01*
X55998462Y-152790000D01*
X55927034Y-152932857D01*
X55927034Y-153075714D01*
X56641320Y-153218571D01*
X55498462Y-152718571D02*
X54927034Y-152718571D01*
X55284177Y-153718571D02*
X55284177Y-152432857D01*
X55212748Y-152290000D01*
X55069891Y-152218571D01*
X54927034Y-152218571D01*
X54641320Y-152718571D02*
X54069891Y-152718571D01*
X54427034Y-152218571D02*
X54427034Y-153504285D01*
X54355605Y-153647142D01*
X54212748Y-153718571D01*
X54069891Y-153718571D01*
X52427034Y-153718571D02*
X52427034Y-152218571D01*
X51569891Y-153718571D02*
X52212748Y-152861428D01*
X51569891Y-152218571D02*
X52427034Y-153075714D01*
X50355605Y-153647142D02*
X50498462Y-153718571D01*
X50784177Y-153718571D01*
X50927034Y-153647142D01*
X50998462Y-153504285D01*
X50998462Y-152932857D01*
X50927034Y-152790000D01*
X50784177Y-152718571D01*
X50498462Y-152718571D01*
X50355605Y-152790000D01*
X50284177Y-152932857D01*
X50284177Y-153075714D01*
X50998462Y-153218571D01*
X49784177Y-152718571D02*
X49427034Y-153718571D01*
X49069891Y-152718571D02*
X49427034Y-153718571D01*
X49569891Y-154075714D01*
X49641320Y-154147142D01*
X49784177Y-154218571D01*
X48498462Y-152718571D02*
X48498462Y-154218571D01*
X48498462Y-152790000D02*
X48355605Y-152718571D01*
X48069891Y-152718571D01*
X47927034Y-152790000D01*
X47855605Y-152861428D01*
X47784177Y-153004285D01*
X47784177Y-153432857D01*
X47855605Y-153575714D01*
X47927034Y-153647142D01*
X48069891Y-153718571D01*
X48355605Y-153718571D01*
X48498462Y-153647142D01*
X46927034Y-153718571D02*
X47069891Y-153647142D01*
X47141320Y-153504285D01*
X47141320Y-152218571D01*
X45712748Y-153718571D02*
X45712748Y-152932857D01*
X45784177Y-152790000D01*
X45927034Y-152718571D01*
X46212748Y-152718571D01*
X46355605Y-152790000D01*
X45712748Y-153647142D02*
X45855605Y-153718571D01*
X46212748Y-153718571D01*
X46355605Y-153647142D01*
X46427034Y-153504285D01*
X46427034Y-153361428D01*
X46355605Y-153218571D01*
X46212748Y-153147142D01*
X45855605Y-153147142D01*
X45712748Y-153075714D01*
X45212748Y-152718571D02*
X44641320Y-152718571D01*
X44998462Y-152218571D02*
X44998462Y-153504285D01*
X44927034Y-153647142D01*
X44784177Y-153718571D01*
X44641320Y-153718571D01*
X43569891Y-153647142D02*
X43712748Y-153718571D01*
X43998462Y-153718571D01*
X44141320Y-153647142D01*
X44212748Y-153504285D01*
X44212748Y-152932857D01*
X44141320Y-152790000D01*
X43998462Y-152718571D01*
X43712748Y-152718571D01*
X43569891Y-152790000D01*
X43498462Y-152932857D01*
X43498462Y-153075714D01*
X44212748Y-153218571D01*
X41855605Y-152718571D02*
X41498462Y-153718571D01*
X41141320Y-152718571D01*
X40569891Y-153575714D02*
X40498462Y-153647142D01*
X40569891Y-153718571D01*
X40641320Y-153647142D01*
X40569891Y-153575714D01*
X40569891Y-153718571D01*
X39569891Y-152218571D02*
X39427034Y-152218571D01*
X39284177Y-152290000D01*
X39212748Y-152361428D01*
X39141320Y-152504285D01*
X39069891Y-152790000D01*
X39069891Y-153147142D01*
X39141320Y-153432857D01*
X39212748Y-153575714D01*
X39284177Y-153647142D01*
X39427034Y-153718571D01*
X39569891Y-153718571D01*
X39712748Y-153647142D01*
X39784177Y-153575714D01*
X39855605Y-153432857D01*
X39927034Y-153147142D01*
X39927034Y-152790000D01*
X39855605Y-152504285D01*
X39784177Y-152361428D01*
X39712748Y-152290000D01*
X39569891Y-152218571D01*
X38427034Y-153575714D02*
X38355605Y-153647142D01*
X38427034Y-153718571D01*
X38498462Y-153647142D01*
X38427034Y-153575714D01*
X38427034Y-153718571D01*
X36927034Y-153718571D02*
X37784177Y-153718571D01*
X37355605Y-153718571D02*
X37355605Y-152218571D01*
X37498462Y-152432857D01*
X37641320Y-152575714D01*
X37784177Y-152647142D01*
M02*
