G04 #@! TF.GenerationSoftware,KiCad,Pcbnew,(5.1.5-0-10_14)*
G04 #@! TF.CreationDate,2020-04-18T19:29:34+09:00*
G04 #@! TF.ProjectId,colice_left_topFrame,636f6c69-6365-45f6-9c65-66745f746f70,rev?*
G04 #@! TF.SameCoordinates,Original*
G04 #@! TF.FileFunction,Copper,L2,Bot*
G04 #@! TF.FilePolarity,Positive*
%FSLAX46Y46*%
G04 Gerber Fmt 4.6, Leading zero omitted, Abs format (unit mm)*
G04 Created by KiCad (PCBNEW (5.1.5-0-10_14)) date 2020-04-18 19:29:34*
%MOMM*%
%LPD*%
G04 APERTURE LIST*
%ADD10C,0.254000*%
G04 APERTURE END LIST*
D10*
G36*
X193458757Y-14115559D02*
G01*
X193648107Y-14120512D01*
X193828312Y-14128231D01*
X194007986Y-14138848D01*
X194200821Y-14153500D01*
X194375257Y-14169667D01*
X194545190Y-14188091D01*
X194714785Y-14209128D01*
X194879562Y-14232114D01*
X195043772Y-14257533D01*
X195207540Y-14285400D01*
X195370764Y-14315692D01*
X195528975Y-14347475D01*
X195695387Y-14383498D01*
X195852417Y-14419950D01*
X196009021Y-14458709D01*
X196160453Y-14498501D01*
X196332544Y-14546508D01*
X196490046Y-14593072D01*
X196636527Y-14638666D01*
X196781558Y-14686008D01*
X196921706Y-14733870D01*
X197065378Y-14785112D01*
X197208156Y-14838255D01*
X197349400Y-14893039D01*
X197483787Y-14947234D01*
X197616526Y-15002780D01*
X197748590Y-15060065D01*
X197878859Y-15118578D01*
X198010424Y-15179739D01*
X198140188Y-15242125D01*
X198269192Y-15306218D01*
X198393474Y-15369955D01*
X198517071Y-15435319D01*
X198647507Y-15506481D01*
X198769279Y-15574982D01*
X198894215Y-15647382D01*
X199014373Y-15719082D01*
X199133790Y-15792399D01*
X199252322Y-15867246D01*
X199366376Y-15941267D01*
X199480538Y-16017369D01*
X199592868Y-16094263D01*
X199703504Y-16172002D01*
X199813918Y-16251617D01*
X199930693Y-16338089D01*
X200039247Y-16420624D01*
X200147026Y-16504684D01*
X200251226Y-16588014D01*
X200362163Y-16679018D01*
X200466977Y-16767237D01*
X200568378Y-16854718D01*
X200667870Y-16942658D01*
X200772288Y-17037271D01*
X200870700Y-17128684D01*
X200967384Y-17220685D01*
X201063757Y-17314624D01*
X201115652Y-17366167D01*
X201230477Y-17482676D01*
X201322639Y-17578703D01*
X201413649Y-17675839D01*
X201512262Y-17783776D01*
X201612262Y-17896210D01*
X201701288Y-17998938D01*
X201787624Y-18101042D01*
X201874790Y-18206716D01*
X201960552Y-18313338D01*
X202044914Y-18420907D01*
X202127888Y-18529431D01*
X202209375Y-18638766D01*
X202291445Y-18751794D01*
X202370074Y-18862961D01*
X202447924Y-18975954D01*
X202523766Y-19088981D01*
X202600452Y-19206402D01*
X202677912Y-19328395D01*
X202751473Y-19447595D01*
X202823522Y-19567711D01*
X202895573Y-19691382D01*
X202967060Y-19817826D01*
X203036435Y-19944352D01*
X203101487Y-20066665D01*
X203166119Y-20191965D01*
X203230490Y-20320789D01*
X203293024Y-20450102D01*
X203361355Y-20596492D01*
X203420323Y-20727483D01*
X203477663Y-20859397D01*
X203534987Y-20996159D01*
X203589214Y-21130482D01*
X203644053Y-21271717D01*
X203695794Y-21410483D01*
X203745715Y-21550031D01*
X203793720Y-21690083D01*
X203842531Y-21839124D01*
X203890196Y-21991995D01*
X203933811Y-22139165D01*
X203976293Y-22290222D01*
X204016596Y-22441720D01*
X204057901Y-22606711D01*
X204094717Y-22763659D01*
X204129044Y-22920170D01*
X204163059Y-23087099D01*
X204193136Y-23246889D01*
X204221424Y-23410478D01*
X204247945Y-23579012D01*
X204271280Y-23743545D01*
X204292709Y-23913086D01*
X204311524Y-24082933D01*
X204328115Y-24257556D01*
X204342279Y-24437100D01*
X204353527Y-24616800D01*
X204361875Y-24797037D01*
X204367399Y-24982095D01*
X204369870Y-25169526D01*
X204370000Y-25222317D01*
X204370000Y-49988387D01*
X204202243Y-49952735D01*
X204202214Y-49952729D01*
X203801642Y-49867600D01*
X203801643Y-49867600D01*
X203438134Y-49790345D01*
X203438128Y-49790344D01*
X203038599Y-49705432D01*
X203038595Y-49705432D01*
X202604348Y-49613139D01*
X202604319Y-49613133D01*
X202136565Y-49513719D01*
X202136557Y-49513718D01*
X201636649Y-49407469D01*
X201636620Y-49407463D01*
X201105846Y-49294654D01*
X201105760Y-49294635D01*
X200545258Y-49175505D01*
X200545256Y-49175505D01*
X199655031Y-48986295D01*
X199655023Y-48986294D01*
X198371545Y-48713499D01*
X198371516Y-48713493D01*
X196992427Y-48420374D01*
X195528039Y-48109124D01*
X195527981Y-48109111D01*
X193988390Y-47781874D01*
X192383874Y-47440836D01*
X192383864Y-47440835D01*
X190724645Y-47088168D01*
X190724637Y-47088167D01*
X189449343Y-46817103D01*
X189449314Y-46817097D01*
X188588241Y-46634075D01*
X187282943Y-46356633D01*
X187282914Y-46356627D01*
X184635093Y-45793829D01*
X184635064Y-45793823D01*
X181075971Y-45037329D01*
X181075942Y-45037323D01*
X177563594Y-44290764D01*
X177563565Y-44290758D01*
X172530037Y-43220865D01*
X166766425Y-41995788D01*
X164045333Y-41417410D01*
X163364035Y-41272597D01*
X163364006Y-41272591D01*
X163051015Y-41206063D01*
X163051011Y-41206063D01*
X162852700Y-41163912D01*
X162852593Y-41163888D01*
X162390211Y-41065609D01*
X161781933Y-40936320D01*
X161683847Y-40915472D01*
X161704126Y-40820104D01*
X161704126Y-40820101D01*
X161704131Y-40820080D01*
X161758220Y-40565665D01*
X161758223Y-40565652D01*
X161814656Y-40300190D01*
X161814657Y-40300181D01*
X161882649Y-39980368D01*
X161926671Y-39773352D01*
X161963422Y-39600564D01*
X161997874Y-39438663D01*
X162003945Y-39384654D01*
X162012571Y-39331014D01*
X162013133Y-39320767D01*
X162022278Y-39129399D01*
X162020552Y-39094898D01*
X162022333Y-39060402D01*
X162016977Y-39023440D01*
X162015111Y-38986132D01*
X162006716Y-38952622D01*
X162001763Y-38918438D01*
X161999238Y-38908491D01*
X161957601Y-38749152D01*
X161950740Y-38730549D01*
X161946576Y-38711172D01*
X161925973Y-38663397D01*
X161907964Y-38614567D01*
X161897621Y-38597652D01*
X161889772Y-38579451D01*
X161884746Y-38570504D01*
X161811978Y-38443072D01*
X161804573Y-38432624D01*
X161798937Y-38421129D01*
X161763167Y-38374204D01*
X161729030Y-38326040D01*
X161719735Y-38317228D01*
X161711975Y-38307048D01*
X161704935Y-38299581D01*
X161605963Y-38196078D01*
X161596011Y-38187524D01*
X161587553Y-38177499D01*
X161541714Y-38140849D01*
X161497183Y-38102570D01*
X161485760Y-38096112D01*
X161475514Y-38087920D01*
X161466873Y-38082385D01*
X161343800Y-38004752D01*
X161333973Y-37999822D01*
X161325100Y-37993343D01*
X161269950Y-37967701D01*
X161215585Y-37940426D01*
X161204994Y-37937500D01*
X161195025Y-37932865D01*
X161185318Y-37929535D01*
X161056404Y-37886312D01*
X161020508Y-37878067D01*
X160985569Y-37866446D01*
X160975546Y-37864242D01*
X160738822Y-37813932D01*
X160738793Y-37813926D01*
X160466874Y-37756136D01*
X160466875Y-37756136D01*
X160048128Y-37667138D01*
X160048129Y-37667138D01*
X159694602Y-37591999D01*
X159694573Y-37591993D01*
X159443083Y-37538541D01*
X159443054Y-37538535D01*
X159043170Y-37453542D01*
X159043112Y-37453529D01*
X158465321Y-37330720D01*
X157521234Y-37130055D01*
X157521228Y-37130054D01*
X156481816Y-36909125D01*
X156481729Y-36909106D01*
X155751259Y-36753840D01*
X155751257Y-36753840D01*
X154993251Y-36592722D01*
X154993222Y-36592716D01*
X154211860Y-36426633D01*
X153006949Y-36170522D01*
X151355194Y-35819430D01*
X151355165Y-35819424D01*
X149686413Y-35464718D01*
X148034626Y-35113618D01*
X146829821Y-34857528D01*
X146829714Y-34857504D01*
X146048352Y-34691421D01*
X146048350Y-34691421D01*
X145290315Y-34530297D01*
X144559845Y-34375033D01*
X144559843Y-34375033D01*
X143861182Y-34226531D01*
X143861180Y-34226531D01*
X143198568Y-34085692D01*
X142576292Y-33953427D01*
X142576243Y-33953416D01*
X141998452Y-33830609D01*
X141998448Y-33830609D01*
X141469538Y-33718191D01*
X141469431Y-33718168D01*
X141108979Y-33641557D01*
X141108975Y-33641557D01*
X140885039Y-33593961D01*
X140885019Y-33593957D01*
X140574667Y-33527997D01*
X140574666Y-33527997D01*
X140574662Y-33527996D01*
X140302776Y-33470213D01*
X140302735Y-33470204D01*
X140205639Y-33449570D01*
X140213189Y-33414109D01*
X140213190Y-33414097D01*
X140213217Y-33413976D01*
X140252953Y-33227187D01*
X140252954Y-33227175D01*
X140252970Y-33227104D01*
X140296702Y-33021410D01*
X140296712Y-33021365D01*
X140346089Y-32789045D01*
X140394876Y-32559519D01*
X140430219Y-32393289D01*
X140470317Y-32204829D01*
X140476660Y-32175047D01*
X140482761Y-32120853D01*
X140491399Y-32067020D01*
X140491957Y-32056773D01*
X140501050Y-31865109D01*
X140499302Y-31830406D01*
X140501062Y-31795710D01*
X140495702Y-31758949D01*
X140493833Y-31721844D01*
X140485379Y-31688146D01*
X140480366Y-31653764D01*
X140477832Y-31643820D01*
X140436075Y-31484602D01*
X140429148Y-31465871D01*
X140424930Y-31446365D01*
X140404323Y-31398747D01*
X140386318Y-31350062D01*
X140375887Y-31333038D01*
X140367959Y-31314717D01*
X140362921Y-31305776D01*
X140289792Y-31178090D01*
X140282464Y-31167780D01*
X140276885Y-31156424D01*
X140240968Y-31109390D01*
X140206694Y-31061164D01*
X140197503Y-31052472D01*
X140189824Y-31042417D01*
X140182778Y-31034957D01*
X140084340Y-30932187D01*
X140074605Y-30923834D01*
X140066341Y-30914040D01*
X140020272Y-30877210D01*
X139975479Y-30838773D01*
X139964310Y-30832471D01*
X139954298Y-30824467D01*
X139945656Y-30818932D01*
X139822583Y-30741307D01*
X139812772Y-30736385D01*
X139803912Y-30729916D01*
X139748762Y-30704274D01*
X139694366Y-30676986D01*
X139683786Y-30674064D01*
X139673837Y-30669438D01*
X139664130Y-30666108D01*
X139535216Y-30622885D01*
X139499324Y-30614641D01*
X139464390Y-30603021D01*
X139454367Y-30600817D01*
X138936001Y-30490645D01*
X138936000Y-30490645D01*
X138508038Y-30399684D01*
X138508030Y-30399683D01*
X138020931Y-30296153D01*
X138020844Y-30296134D01*
X137194616Y-30120522D01*
X137194610Y-30120521D01*
X135917478Y-29849066D01*
X134482383Y-29544034D01*
X132924432Y-29212888D01*
X130438354Y-28684465D01*
X130438325Y-28684459D01*
X127864458Y-28137374D01*
X127864456Y-28137374D01*
X126166089Y-27776382D01*
X124927412Y-27513099D01*
X124927410Y-27513099D01*
X124124400Y-27342419D01*
X124124293Y-27342395D01*
X123345307Y-27176822D01*
X123345303Y-27176822D01*
X122594838Y-27017312D01*
X122594836Y-27017312D01*
X121877276Y-26864796D01*
X121877274Y-26864796D01*
X121197005Y-26720207D01*
X121197001Y-26720207D01*
X120558490Y-26584495D01*
X120558412Y-26584478D01*
X119965891Y-26458543D01*
X119965887Y-26458543D01*
X119423870Y-26343344D01*
X119423821Y-26343333D01*
X118936645Y-26239792D01*
X118936596Y-26239781D01*
X118611764Y-26170745D01*
X118611762Y-26170745D01*
X118413398Y-26128587D01*
X118413397Y-26128587D01*
X118413393Y-26128586D01*
X118231252Y-26089878D01*
X118231203Y-26089867D01*
X118027602Y-26046599D01*
X118027577Y-26046594D01*
X117990166Y-26038645D01*
X117936422Y-26032621D01*
X117883058Y-26024015D01*
X117872811Y-26023448D01*
X117681821Y-26014237D01*
X117646909Y-26015968D01*
X117612019Y-26014190D01*
X117575461Y-26019512D01*
X117538551Y-26021342D01*
X117504648Y-26029819D01*
X117470069Y-26034853D01*
X117460123Y-26037384D01*
X117299410Y-26079493D01*
X117280235Y-26086579D01*
X117260271Y-26090918D01*
X117213110Y-26111386D01*
X117164858Y-26129218D01*
X117147426Y-26139893D01*
X117128682Y-26148028D01*
X117119747Y-26153075D01*
X116992171Y-26226319D01*
X116981838Y-26233679D01*
X116970461Y-26239285D01*
X116923517Y-26275219D01*
X116875332Y-26309539D01*
X116866622Y-26318770D01*
X116856554Y-26326476D01*
X116849101Y-26333531D01*
X116746476Y-26432056D01*
X116738087Y-26441855D01*
X116728240Y-26450187D01*
X116691507Y-26496262D01*
X116653186Y-26541024D01*
X116646860Y-26552266D01*
X116638819Y-26562352D01*
X116633295Y-26571000D01*
X116555847Y-26694163D01*
X116551037Y-26703784D01*
X116544704Y-26712471D01*
X116519010Y-26767842D01*
X116491700Y-26822468D01*
X116488851Y-26832839D01*
X116484325Y-26842592D01*
X116481002Y-26852301D01*
X116438169Y-26980374D01*
X116430018Y-27015983D01*
X116418488Y-27050642D01*
X116416283Y-27060665D01*
X116357243Y-27338392D01*
X116357242Y-27338399D01*
X116314738Y-27538325D01*
X116314728Y-27538371D01*
X116270830Y-27744838D01*
X116270830Y-27744839D01*
X116226480Y-27953432D01*
X116226474Y-27953461D01*
X116182583Y-28159897D01*
X116182574Y-28159937D01*
X116129824Y-28408052D01*
X116129823Y-28408060D01*
X116129820Y-28408074D01*
X116110692Y-28498060D01*
X115741564Y-28419602D01*
X115741448Y-28419577D01*
X115322280Y-28330480D01*
X115322278Y-28330480D01*
X114845773Y-28229196D01*
X114845767Y-28229195D01*
X114038674Y-28057640D01*
X114038645Y-28057634D01*
X112792642Y-27792784D01*
X112792584Y-27792771D01*
X111393626Y-27495406D01*
X109875781Y-27172768D01*
X109875752Y-27172762D01*
X108272937Y-26832063D01*
X106619190Y-26480535D01*
X106619161Y-26480529D01*
X104113018Y-25947810D01*
X100907418Y-25266408D01*
X98109563Y-24671677D01*
X95991274Y-24221400D01*
X95991272Y-24221400D01*
X95317214Y-24078119D01*
X95263453Y-24072088D01*
X95210040Y-24063475D01*
X95199793Y-24062909D01*
X95008874Y-24053703D01*
X94973935Y-24055436D01*
X94939010Y-24053659D01*
X94902481Y-24058980D01*
X94865604Y-24060809D01*
X94831668Y-24069295D01*
X94797061Y-24074336D01*
X94787116Y-24076868D01*
X94626094Y-24119074D01*
X94606858Y-24126185D01*
X94586822Y-24130545D01*
X94539724Y-24151001D01*
X94491546Y-24168811D01*
X94474056Y-24179524D01*
X94455250Y-24187692D01*
X94446316Y-24192742D01*
X94318695Y-24266060D01*
X94308374Y-24273416D01*
X94297012Y-24279018D01*
X94250060Y-24314976D01*
X94201880Y-24349313D01*
X94193185Y-24358532D01*
X94183126Y-24366236D01*
X94175675Y-24373293D01*
X94073027Y-24471889D01*
X94064664Y-24481662D01*
X94054851Y-24489968D01*
X94018113Y-24536063D01*
X93979764Y-24580880D01*
X93973457Y-24592094D01*
X93965446Y-24602146D01*
X93959923Y-24610795D01*
X93882467Y-24734009D01*
X93877678Y-24743592D01*
X93871367Y-24752249D01*
X93845658Y-24807659D01*
X93818338Y-24862323D01*
X93815500Y-24872658D01*
X93810993Y-24882372D01*
X93807670Y-24892082D01*
X93764836Y-25020170D01*
X93756687Y-25055780D01*
X93745157Y-25090439D01*
X93742954Y-25100462D01*
X93660220Y-25489705D01*
X93660220Y-25489706D01*
X93436222Y-26543563D01*
X93160579Y-27840397D01*
X93160579Y-27840398D01*
X92853949Y-29283022D01*
X92616228Y-30401446D01*
X92616228Y-30401448D01*
X92459040Y-31140993D01*
X92459040Y-31140994D01*
X92305725Y-31862320D01*
X92305725Y-31862322D01*
X92158888Y-32553177D01*
X92158865Y-32553284D01*
X92054853Y-33042656D01*
X92054852Y-33042662D01*
X92005059Y-33276932D01*
X92005044Y-33277002D01*
X91894841Y-33795520D01*
X91809876Y-34195291D01*
X91809872Y-34195311D01*
X91757908Y-34439818D01*
X91757908Y-34439819D01*
X91710314Y-34663763D01*
X91710299Y-34663833D01*
X91677712Y-34817171D01*
X91501048Y-34779622D01*
X90656867Y-34600197D01*
X90656838Y-34600191D01*
X89589396Y-34373313D01*
X89589338Y-34373300D01*
X88332898Y-34106249D01*
X87283276Y-33883156D01*
X87283218Y-33883143D01*
X86545528Y-33726348D01*
X86545499Y-33726342D01*
X85390613Y-33480872D01*
X85390605Y-33480871D01*
X83773473Y-33137149D01*
X82104862Y-32782484D01*
X82104804Y-32782471D01*
X80418988Y-32424143D01*
X80418959Y-32424137D01*
X79165338Y-32157672D01*
X79165309Y-32157666D01*
X78341738Y-31982610D01*
X78341709Y-31982604D01*
X77533199Y-31810748D01*
X77533141Y-31810735D01*
X76743893Y-31642971D01*
X75978263Y-31480227D01*
X75978257Y-31480226D01*
X75240577Y-31323421D01*
X75240548Y-31323415D01*
X74709265Y-31210482D01*
X74709264Y-31210482D01*
X74365368Y-31137379D01*
X74365366Y-31137379D01*
X73866082Y-31031246D01*
X73866024Y-31031233D01*
X73392175Y-30930505D01*
X73392171Y-30930505D01*
X73089176Y-30866094D01*
X73089070Y-30866071D01*
X72797504Y-30804091D01*
X72797500Y-30804091D01*
X72518019Y-30744678D01*
X72518015Y-30744678D01*
X72120930Y-30660263D01*
X72120931Y-30660263D01*
X71816526Y-30595549D01*
X71816525Y-30595549D01*
X71531669Y-30534989D01*
X71531583Y-30534970D01*
X71320532Y-30490100D01*
X71320526Y-30490099D01*
X71124835Y-30448494D01*
X71124789Y-30448484D01*
X70944899Y-30410235D01*
X70944870Y-30410229D01*
X70706571Y-30359561D01*
X70652770Y-30353523D01*
X70599363Y-30344910D01*
X70589116Y-30344343D01*
X70398230Y-30335137D01*
X70363522Y-30336858D01*
X70328835Y-30335071D01*
X70292074Y-30340401D01*
X70254960Y-30342242D01*
X70221251Y-30350671D01*
X70186872Y-30355656D01*
X70176926Y-30358181D01*
X70016794Y-30400043D01*
X69997757Y-30407067D01*
X69977936Y-30411354D01*
X69930617Y-30431837D01*
X69882214Y-30449694D01*
X69864904Y-30460281D01*
X69846293Y-30468337D01*
X69837352Y-30473375D01*
X69709693Y-30546503D01*
X69699106Y-30554028D01*
X69687462Y-30559764D01*
X69640740Y-30595516D01*
X69592774Y-30629611D01*
X69583854Y-30639045D01*
X69573541Y-30646937D01*
X69566088Y-30653991D01*
X69462802Y-30753121D01*
X69454131Y-30763247D01*
X69443970Y-30771862D01*
X69407554Y-30817635D01*
X69369496Y-30862075D01*
X69362960Y-30873686D01*
X69354662Y-30884116D01*
X69349147Y-30892771D01*
X69271449Y-31016608D01*
X69266695Y-31026141D01*
X69260428Y-31034751D01*
X69234731Y-31090236D01*
X69207432Y-31144978D01*
X69204620Y-31155253D01*
X69200145Y-31164916D01*
X69196829Y-31174628D01*
X69154303Y-31302093D01*
X69146264Y-31337335D01*
X69134841Y-31371635D01*
X69132634Y-31381657D01*
X69090455Y-31579777D01*
X69090454Y-31579785D01*
X69090440Y-31579849D01*
X69048870Y-31775204D01*
X69048861Y-31775245D01*
X69009569Y-31959948D01*
X69009557Y-31960003D01*
X68973681Y-32128684D01*
X68973679Y-32128695D01*
X68936653Y-32302796D01*
X68936643Y-32302843D01*
X68887829Y-32532431D01*
X68887827Y-32532443D01*
X68843682Y-32740088D01*
X68843677Y-32740111D01*
X68799259Y-32949072D01*
X68799242Y-32949150D01*
X68743867Y-33209660D01*
X68743866Y-33209665D01*
X68743864Y-33209676D01*
X68700199Y-33415119D01*
X68700198Y-33415124D01*
X68657520Y-33615930D01*
X68657519Y-33615936D01*
X68595970Y-33905546D01*
X68595968Y-33905554D01*
X68539341Y-34171995D01*
X68539341Y-34171996D01*
X68518045Y-34272200D01*
X68344839Y-34235380D01*
X68344830Y-34235378D01*
X67807551Y-34121171D01*
X67807473Y-34121154D01*
X67244979Y-34001589D01*
X67244975Y-34001589D01*
X66828197Y-33912998D01*
X66828193Y-33912998D01*
X66142947Y-33767343D01*
X65110714Y-33547934D01*
X65110636Y-33547917D01*
X63958818Y-33303092D01*
X63958816Y-33303092D01*
X62697884Y-33035075D01*
X62697882Y-33035075D01*
X61338224Y-32746075D01*
X59890233Y-32438300D01*
X58364300Y-32113958D01*
X58364298Y-32113958D01*
X55958491Y-31602599D01*
X50824717Y-30511410D01*
X43702564Y-28997589D01*
X38568791Y-27906398D01*
X36162982Y-27395038D01*
X34637080Y-27070704D01*
X34637051Y-27070698D01*
X32485848Y-26613453D01*
X30877234Y-26271535D01*
X30877205Y-26271529D01*
X30273367Y-26143180D01*
X29416679Y-25961086D01*
X29416650Y-25961080D01*
X28384401Y-25741670D01*
X28384343Y-25741657D01*
X27699094Y-25596000D01*
X27699090Y-25596000D01*
X27282401Y-25507429D01*
X27282315Y-25507410D01*
X26719824Y-25387845D01*
X26719816Y-25387844D01*
X26251511Y-25288298D01*
X25985418Y-25231735D01*
X25985412Y-25231734D01*
X25869369Y-25207067D01*
X25815543Y-25201029D01*
X25762086Y-25192416D01*
X25751839Y-25191851D01*
X25560849Y-25182669D01*
X25526155Y-25184395D01*
X25491476Y-25182612D01*
X25454705Y-25187948D01*
X25417579Y-25189795D01*
X25383879Y-25198227D01*
X25349517Y-25203214D01*
X25339570Y-25205741D01*
X25179678Y-25247561D01*
X25160529Y-25254628D01*
X25140585Y-25258952D01*
X25093375Y-25279413D01*
X25045104Y-25297228D01*
X25027696Y-25307878D01*
X25008967Y-25315995D01*
X25000029Y-25321038D01*
X24871633Y-25394667D01*
X24861128Y-25402141D01*
X24849563Y-25407841D01*
X24802777Y-25443658D01*
X24754752Y-25477828D01*
X24745895Y-25487204D01*
X24735661Y-25495039D01*
X24728208Y-25502094D01*
X24625582Y-25600632D01*
X24617288Y-25610321D01*
X24607555Y-25618551D01*
X24570717Y-25664726D01*
X24532299Y-25709606D01*
X24526047Y-25720717D01*
X24518095Y-25730685D01*
X24512568Y-25739332D01*
X24435217Y-25862247D01*
X24430417Y-25871840D01*
X24424096Y-25880503D01*
X24398360Y-25935906D01*
X24371027Y-25990530D01*
X24368183Y-26000869D01*
X24363663Y-26010598D01*
X24360336Y-26020306D01*
X24317406Y-26148490D01*
X24309201Y-26184270D01*
X24297616Y-26219100D01*
X24295413Y-26229123D01*
X24244308Y-26469607D01*
X24244295Y-26469665D01*
X24205671Y-26651414D01*
X24205663Y-26651451D01*
X24163603Y-26849361D01*
X24163602Y-26849367D01*
X24094749Y-27173345D01*
X24094737Y-27173400D01*
X24018030Y-27534321D01*
X23963445Y-27791148D01*
X23963426Y-27791235D01*
X23876555Y-28199962D01*
X23783004Y-28640107D01*
X23783004Y-28640109D01*
X23717715Y-28947288D01*
X23650050Y-29265638D01*
X23650044Y-29265667D01*
X23580108Y-29594701D01*
X23580107Y-29594709D01*
X23471478Y-30105783D01*
X23471459Y-30105870D01*
X23319396Y-30821276D01*
X23319390Y-30821305D01*
X23200518Y-31380555D01*
X23200518Y-31380557D01*
X23119433Y-31762039D01*
X22911345Y-32741009D01*
X22911343Y-32741019D01*
X22562610Y-34381662D01*
X22562604Y-34381691D01*
X22202721Y-36074784D01*
X22202715Y-36074813D01*
X21657304Y-38640720D01*
X21216732Y-40713413D01*
X21216732Y-40713414D01*
X21046553Y-41514036D01*
X21046542Y-41514085D01*
X20800321Y-42672472D01*
X20570359Y-43754368D01*
X20570359Y-43754371D01*
X20426199Y-44432609D01*
X20426188Y-44432658D01*
X20290846Y-45069419D01*
X20290846Y-45069422D01*
X20165277Y-45660214D01*
X20165260Y-45660292D01*
X20078388Y-46069023D01*
X20023783Y-46325939D01*
X20023782Y-46325945D01*
X19972150Y-46568882D01*
X19972139Y-46568931D01*
X19923575Y-46797437D01*
X19923575Y-46797440D01*
X19878205Y-47010921D01*
X19878204Y-47010927D01*
X19826269Y-47255308D01*
X19826266Y-47255320D01*
X19762420Y-47555770D01*
X19762419Y-47555778D01*
X19762418Y-47555783D01*
X19746393Y-47631201D01*
X19740368Y-47684949D01*
X19731759Y-47738347D01*
X19731194Y-47748594D01*
X19721998Y-47939459D01*
X19723720Y-47974155D01*
X19721934Y-48008840D01*
X19727267Y-48045611D01*
X19729109Y-48082730D01*
X19737537Y-48116429D01*
X19742522Y-48150802D01*
X19745048Y-48160748D01*
X19786882Y-48320755D01*
X19793962Y-48339942D01*
X19798292Y-48359917D01*
X19818738Y-48407093D01*
X19836537Y-48455333D01*
X19847202Y-48472770D01*
X19855335Y-48491535D01*
X19860378Y-48500472D01*
X19934007Y-48628868D01*
X19941483Y-48639375D01*
X19947184Y-48650943D01*
X19982999Y-48697726D01*
X20017168Y-48745749D01*
X20026546Y-48754608D01*
X20034383Y-48764844D01*
X20041438Y-48772296D01*
X20139976Y-48874920D01*
X20149718Y-48883259D01*
X20157991Y-48893039D01*
X20204106Y-48929816D01*
X20248950Y-48968202D01*
X20260121Y-48974487D01*
X20270141Y-48982478D01*
X20278789Y-48988003D01*
X20401912Y-49065453D01*
X20411494Y-49070245D01*
X20420137Y-49076550D01*
X20475532Y-49102274D01*
X20530207Y-49129619D01*
X20540532Y-49132458D01*
X20550241Y-49136966D01*
X20559949Y-49140292D01*
X20687925Y-49183133D01*
X20723678Y-49191327D01*
X20758461Y-49202895D01*
X20768484Y-49205099D01*
X21062780Y-49267631D01*
X21062786Y-49267632D01*
X21287596Y-49315404D01*
X21287662Y-49315419D01*
X21470578Y-49354291D01*
X21470583Y-49354292D01*
X21797734Y-49423819D01*
X21797849Y-49423844D01*
X22080071Y-49483824D01*
X22080080Y-49483826D01*
X22302839Y-49531170D01*
X22302844Y-49531171D01*
X22691141Y-49613701D01*
X22691170Y-49613707D01*
X23016975Y-49682955D01*
X23354201Y-49754631D01*
X23354238Y-49754639D01*
X23877313Y-49865821D01*
X23877342Y-49865827D01*
X24970944Y-50098278D01*
X24970954Y-50098279D01*
X26095122Y-50337229D01*
X26838458Y-50495231D01*
X26838460Y-50495231D01*
X27383730Y-50611131D01*
X27383732Y-50611131D01*
X27739346Y-50686718D01*
X27739348Y-50686718D01*
X28086509Y-50760508D01*
X28086558Y-50760519D01*
X28423829Y-50832205D01*
X28423833Y-50832205D01*
X28749636Y-50901453D01*
X28749638Y-50901453D01*
X28985104Y-50951500D01*
X28985109Y-50951501D01*
X29360693Y-51031326D01*
X29360742Y-51031337D01*
X29642962Y-51091318D01*
X29642982Y-51091322D01*
X29907603Y-51147561D01*
X29907644Y-51147570D01*
X30093042Y-51186970D01*
X30093045Y-51186970D01*
X30093048Y-51186971D01*
X30378095Y-51247545D01*
X30378107Y-51247548D01*
X30532484Y-51280352D01*
X30475670Y-51547624D01*
X30475668Y-51547636D01*
X30435335Y-51737392D01*
X30435329Y-51737421D01*
X30322959Y-52266088D01*
X30104127Y-53295626D01*
X29913544Y-54192267D01*
X29913544Y-54192269D01*
X29776802Y-54835607D01*
X29558895Y-55860816D01*
X29246374Y-57331161D01*
X29246374Y-57331163D01*
X28748101Y-59675453D01*
X28060607Y-62909984D01*
X28060601Y-62910013D01*
X27400868Y-66013936D01*
X27400862Y-66013965D01*
X26961577Y-68080709D01*
X26961576Y-68080717D01*
X26704590Y-69289774D01*
X26704577Y-69289832D01*
X26485746Y-70319369D01*
X26485745Y-70319375D01*
X26373385Y-70847989D01*
X26373374Y-70848038D01*
X26333041Y-71037792D01*
X26333035Y-71037821D01*
X26278139Y-71296093D01*
X26276298Y-71304756D01*
X26093070Y-71265804D01*
X26093067Y-71265804D01*
X26093055Y-71265801D01*
X25848924Y-71213907D01*
X25848921Y-71213907D01*
X25848918Y-71213906D01*
X25586170Y-71158057D01*
X25586169Y-71158057D01*
X25586165Y-71158056D01*
X25308275Y-71098991D01*
X25308176Y-71098969D01*
X25018340Y-71037367D01*
X25018336Y-71037367D01*
X24569290Y-70941928D01*
X24569183Y-70941904D01*
X23958970Y-70812212D01*
X23958960Y-70812211D01*
X23509714Y-70716729D01*
X23219798Y-70655112D01*
X23219769Y-70655106D01*
X22941640Y-70595993D01*
X22941639Y-70595993D01*
X22743455Y-70553869D01*
X22743397Y-70553856D01*
X22434369Y-70488171D01*
X22434370Y-70488171D01*
X22266104Y-70452404D01*
X22266103Y-70452404D01*
X22111212Y-70419479D01*
X22056952Y-70413392D01*
X22003059Y-70404775D01*
X21992812Y-70404223D01*
X21801706Y-70395263D01*
X21768041Y-70396977D01*
X21734376Y-70395193D01*
X21696579Y-70400617D01*
X21658445Y-70402559D01*
X21625751Y-70410781D01*
X21592383Y-70415569D01*
X21582433Y-70418080D01*
X21423506Y-70459377D01*
X21416045Y-70462117D01*
X21408232Y-70463523D01*
X21348810Y-70486810D01*
X21288853Y-70508830D01*
X21282070Y-70512965D01*
X21274675Y-70515863D01*
X21265563Y-70520585D01*
X21169406Y-70571283D01*
X21168348Y-70571980D01*
X21167182Y-70572461D01*
X21108638Y-70611351D01*
X21049649Y-70650247D01*
X21048746Y-70651138D01*
X21047696Y-70651835D01*
X21039788Y-70658376D01*
X20930546Y-70750028D01*
X20921929Y-70758827D01*
X20912006Y-70766118D01*
X20871815Y-70809994D01*
X20830175Y-70852509D01*
X20823431Y-70862813D01*
X20815113Y-70871894D01*
X20809010Y-70880145D01*
X20724410Y-70996202D01*
X20716294Y-71009985D01*
X20706184Y-71022380D01*
X20679965Y-71071684D01*
X20651626Y-71119812D01*
X20646341Y-71134911D01*
X20638832Y-71149032D01*
X20634987Y-71158547D01*
X20577781Y-71303007D01*
X20563884Y-71351458D01*
X20547192Y-71399010D01*
X20544824Y-71408995D01*
X20539563Y-71431887D01*
X20539296Y-71433959D01*
X20538642Y-71435946D01*
X20536470Y-71445976D01*
X20486212Y-71686162D01*
X20486210Y-71686173D01*
X20448277Y-71867470D01*
X20448249Y-71867600D01*
X20396002Y-72117319D01*
X20396001Y-72117324D01*
X20396001Y-72117326D01*
X20339326Y-72388221D01*
X20264046Y-72748042D01*
X20264045Y-72748047D01*
X20264045Y-72748049D01*
X20210478Y-73004100D01*
X20210472Y-73004128D01*
X20154116Y-73273509D01*
X20154116Y-73273510D01*
X20095091Y-73555650D01*
X20095090Y-73555655D01*
X20002098Y-74000176D01*
X19869424Y-74634383D01*
X19869401Y-74634491D01*
X19728076Y-75310061D01*
X19728076Y-75310063D01*
X19502693Y-76387469D01*
X19502693Y-76387470D01*
X19261417Y-77540856D01*
X19261417Y-77540858D01*
X19094667Y-78337997D01*
X18923833Y-79154665D01*
X18749839Y-79986438D01*
X18749822Y-79986517D01*
X18484958Y-81252712D01*
X18217835Y-82529703D01*
X18217835Y-82529704D01*
X18040222Y-83378796D01*
X18040216Y-83378824D01*
X17863966Y-84221400D01*
X17689995Y-85053086D01*
X17434738Y-86273376D01*
X17434732Y-86273404D01*
X17190846Y-87439331D01*
X17190846Y-87439333D01*
X17035082Y-88183992D01*
X16886139Y-88896031D01*
X16886139Y-88896033D01*
X16744952Y-89571001D01*
X16744929Y-89571108D01*
X16548353Y-90510880D01*
X16323239Y-91587085D01*
X16145417Y-92437204D01*
X16145417Y-92437205D01*
X16078938Y-92755026D01*
X16073057Y-92809033D01*
X16064618Y-92862674D01*
X16064091Y-92872922D01*
X16055558Y-93065190D01*
X16057419Y-93100017D01*
X16055771Y-93134845D01*
X16061236Y-93171453D01*
X16063212Y-93208432D01*
X16071803Y-93242239D01*
X16076951Y-93276720D01*
X16079518Y-93286656D01*
X16121737Y-93445429D01*
X16128872Y-93464521D01*
X16133267Y-93484413D01*
X16153923Y-93531557D01*
X16171951Y-93579800D01*
X16182659Y-93597145D01*
X16190834Y-93615802D01*
X16195912Y-93624720D01*
X16270366Y-93753366D01*
X16278151Y-93764217D01*
X16284117Y-93776163D01*
X16319902Y-93822405D01*
X16353992Y-93869915D01*
X16363736Y-93879047D01*
X16371909Y-93889607D01*
X16379004Y-93897022D01*
X16478562Y-93999630D01*
X16488662Y-94008185D01*
X16497273Y-94018234D01*
X16543301Y-94054464D01*
X16588021Y-94092342D01*
X16599594Y-94098774D01*
X16609990Y-94106957D01*
X16618673Y-94112427D01*
X16742975Y-94189520D01*
X16751573Y-94193752D01*
X16759331Y-94199372D01*
X16815831Y-94225381D01*
X16871675Y-94252869D01*
X16880935Y-94255351D01*
X16889634Y-94259356D01*
X16899354Y-94262650D01*
X17023885Y-94303880D01*
X17058497Y-94311692D01*
X17092160Y-94322885D01*
X17102183Y-94325088D01*
X17336502Y-94374860D01*
X17336505Y-94374860D01*
X17660790Y-94443755D01*
X17919351Y-94498690D01*
X17919368Y-94498694D01*
X18192768Y-94556785D01*
X18192825Y-94556798D01*
X18370193Y-94594485D01*
X18370199Y-94594486D01*
X18550673Y-94632837D01*
X18550751Y-94632854D01*
X18734345Y-94671868D01*
X18734352Y-94671869D01*
X19069323Y-94743056D01*
X19069389Y-94743070D01*
X19369283Y-94806805D01*
X19369320Y-94806813D01*
X19593238Y-94854403D01*
X19593247Y-94854405D01*
X19851463Y-94909286D01*
X19851480Y-94909290D01*
X20032882Y-94947848D01*
X20032891Y-94947849D01*
X20315259Y-95007872D01*
X20315326Y-95007887D01*
X20485684Y-95044102D01*
X20485689Y-95044103D01*
X20714808Y-95092812D01*
X20714815Y-95092813D01*
X20930394Y-95138649D01*
X20930396Y-95138649D01*
X21184827Y-95192753D01*
X21184890Y-95192767D01*
X21197835Y-95195520D01*
X21176775Y-95294625D01*
X21176756Y-95294711D01*
X21118369Y-95569464D01*
X21028363Y-95992994D01*
X20925970Y-96474795D01*
X20812108Y-97010551D01*
X20719427Y-97446631D01*
X20654754Y-97750930D01*
X20553664Y-98226577D01*
X20553645Y-98226663D01*
X20410881Y-98898385D01*
X20260322Y-99606767D01*
X20260316Y-99606796D01*
X20102869Y-100347580D01*
X20102868Y-100347586D01*
X19856376Y-101507314D01*
X19856375Y-101507320D01*
X19511215Y-103131260D01*
X19511202Y-103131318D01*
X19244519Y-104386011D01*
X19244519Y-104386012D01*
X19065049Y-105230388D01*
X19065048Y-105230394D01*
X18930114Y-105865228D01*
X18930101Y-105865286D01*
X18840192Y-106288284D01*
X18840192Y-106288285D01*
X18705658Y-106921237D01*
X18705645Y-106921295D01*
X18438956Y-108175989D01*
X18179160Y-109398251D01*
X18179147Y-109398309D01*
X18010686Y-110190859D01*
X18010680Y-110190888D01*
X17847258Y-110959729D01*
X17847258Y-110959730D01*
X17689801Y-111700512D01*
X17465767Y-112754495D01*
X17295315Y-113556381D01*
X17295314Y-113556389D01*
X17230633Y-113860679D01*
X17137951Y-114296700D01*
X17137938Y-114296758D01*
X17024066Y-114832458D01*
X17024053Y-114832516D01*
X16921636Y-115314322D01*
X16921635Y-115314328D01*
X16831606Y-115737851D01*
X16754892Y-116098723D01*
X16754875Y-116098802D01*
X16722398Y-116251581D01*
X16716273Y-116306178D01*
X16707652Y-116360419D01*
X16707109Y-116370667D01*
X16698282Y-116562745D01*
X16700047Y-116596777D01*
X16698309Y-116630797D01*
X16703752Y-116668216D01*
X16705711Y-116706000D01*
X16714053Y-116739042D01*
X16718956Y-116772751D01*
X16721486Y-116782696D01*
X16763028Y-116941321D01*
X16765529Y-116948090D01*
X16766805Y-116955187D01*
X16790350Y-117015280D01*
X16812737Y-117075879D01*
X16816506Y-117082035D01*
X16819136Y-117088748D01*
X16823858Y-117097859D01*
X16873864Y-117192720D01*
X16874235Y-117193282D01*
X16874488Y-117193900D01*
X16913643Y-117253058D01*
X16952820Y-117312482D01*
X16953290Y-117312959D01*
X16953661Y-117313519D01*
X16960189Y-117321438D01*
X17051414Y-117430542D01*
X17060148Y-117439125D01*
X17067374Y-117448997D01*
X17111225Y-117489318D01*
X17153728Y-117531085D01*
X17163956Y-117537804D01*
X17172968Y-117546090D01*
X17181207Y-117552208D01*
X17297874Y-117637589D01*
X17312179Y-117646048D01*
X17325055Y-117656555D01*
X17373805Y-117682491D01*
X17421347Y-117710605D01*
X17437026Y-117716126D01*
X17451695Y-117723930D01*
X17461209Y-117727777D01*
X17605753Y-117785047D01*
X17653841Y-117798849D01*
X17701037Y-117815479D01*
X17711019Y-117817859D01*
X17732078Y-117822725D01*
X17733399Y-117822897D01*
X17734659Y-117823316D01*
X17744682Y-117825521D01*
X17996831Y-117879137D01*
X17996833Y-117879137D01*
X17996841Y-117879139D01*
X18280360Y-117939421D01*
X18280401Y-117939430D01*
X18463971Y-117978459D01*
X18463991Y-117978463D01*
X18720088Y-118032910D01*
X18720096Y-118032911D01*
X18720101Y-118032912D01*
X18885927Y-118068165D01*
X18885937Y-118068166D01*
X19089319Y-118111402D01*
X19089324Y-118111403D01*
X19261632Y-118148032D01*
X19261646Y-118148035D01*
X19610775Y-118222245D01*
X19610903Y-118222273D01*
X19821331Y-118266999D01*
X19821335Y-118266999D01*
X19821342Y-118267001D01*
X20100121Y-118326250D01*
X20100133Y-118326253D01*
X20374019Y-118384459D01*
X20374033Y-118384462D01*
X20639860Y-118440950D01*
X20639892Y-118440957D01*
X20863330Y-118488433D01*
X20863336Y-118488434D01*
X20863351Y-118488437D01*
X21134894Y-118546126D01*
X21134930Y-118546134D01*
X21357778Y-118593469D01*
X21357814Y-118593477D01*
X21560051Y-118636426D01*
X21560057Y-118636427D01*
X21560086Y-118636433D01*
X21582859Y-118641268D01*
X21583160Y-119117767D01*
X21583160Y-119117768D01*
X21583401Y-119498409D01*
X21583578Y-119777966D01*
X21583867Y-120234411D01*
X21585005Y-122035651D01*
X21587376Y-125794492D01*
X21590143Y-130178679D01*
X21591960Y-133054729D01*
X21592685Y-134203544D01*
X21592685Y-134203545D01*
X21593766Y-135911161D01*
X21595164Y-138119953D01*
X21596160Y-139693828D01*
X21596160Y-139693831D01*
X21596798Y-140696746D01*
X21597405Y-141653157D01*
X21597405Y-141653159D01*
X21597980Y-142556722D01*
X21598518Y-143401099D01*
X21598518Y-143401101D01*
X21599016Y-144179951D01*
X21599016Y-144179952D01*
X21599469Y-144886934D01*
X21599774Y-145363602D01*
X21599774Y-145363610D01*
X21599965Y-145657256D01*
X21600141Y-145929371D01*
X21600141Y-145929373D01*
X21600341Y-146237299D01*
X21600341Y-146237305D01*
X21600585Y-146608601D01*
X21600585Y-146608610D01*
X21600646Y-146699731D01*
X21605546Y-146749358D01*
X21607471Y-146799164D01*
X21608936Y-146809321D01*
X21635501Y-146984691D01*
X21641863Y-147009807D01*
X21645040Y-147035513D01*
X21659432Y-147079169D01*
X21670723Y-147123746D01*
X21681843Y-147147150D01*
X21689952Y-147171748D01*
X21694165Y-147181106D01*
X21757321Y-147318761D01*
X21764655Y-147331339D01*
X21769942Y-147344894D01*
X21800719Y-147393191D01*
X21829576Y-147442681D01*
X21839209Y-147453590D01*
X21847032Y-147465866D01*
X21853422Y-147473896D01*
X21943008Y-147584890D01*
X21951031Y-147593053D01*
X21957611Y-147602419D01*
X22001239Y-147644131D01*
X22043565Y-147687190D01*
X22053025Y-147693641D01*
X22061295Y-147701548D01*
X22069413Y-147707826D01*
X22183003Y-147794401D01*
X22196367Y-147802659D01*
X22208318Y-147812856D01*
X22257285Y-147840303D01*
X22305031Y-147869807D01*
X22319743Y-147875312D01*
X22333449Y-147882994D01*
X22342877Y-147887049D01*
X22485123Y-147947052D01*
X22504884Y-147953196D01*
X22523589Y-147962019D01*
X22573229Y-147974445D01*
X22622102Y-147989640D01*
X22642671Y-147991828D01*
X22662742Y-147996852D01*
X22672903Y-147998290D01*
X22829026Y-148019269D01*
X22872448Y-148020826D01*
X22915613Y-148025729D01*
X22925875Y-148025815D01*
X23412843Y-148026502D01*
X23412845Y-148026502D01*
X24031147Y-148027373D01*
X24031149Y-148027373D01*
X24792992Y-148028444D01*
X25364574Y-148029247D01*
X26313519Y-148030579D01*
X26313521Y-148030579D01*
X27759611Y-148032606D01*
X27759613Y-148032606D01*
X29387860Y-148034886D01*
X31182426Y-148037398D01*
X33127473Y-148040120D01*
X33127474Y-148040120D01*
X36278691Y-148044526D01*
X36278692Y-148044526D01*
X40881625Y-148050958D01*
X40881626Y-148050958D01*
X45801416Y-148057832D01*
X50911367Y-148064971D01*
X58671513Y-148075810D01*
X66115201Y-148086208D01*
X70718817Y-148092642D01*
X70718818Y-148092642D01*
X73870703Y-148097048D01*
X75816261Y-148099769D01*
X77611394Y-148102280D01*
X78843935Y-148104005D01*
X79613837Y-148105083D01*
X80337224Y-148106096D01*
X81012116Y-148107042D01*
X81636535Y-148107918D01*
X82208500Y-148108721D01*
X82970944Y-148109793D01*
X83589877Y-148110664D01*
X83589878Y-148110664D01*
X83932225Y-148111148D01*
X83932227Y-148111148D01*
X84077509Y-148111355D01*
X84127279Y-148106547D01*
X84177238Y-148104701D01*
X84187398Y-148103252D01*
X84362514Y-148077031D01*
X84387342Y-148070787D01*
X84412749Y-148067713D01*
X84456735Y-148053337D01*
X84501629Y-148042047D01*
X84524770Y-148031100D01*
X84549098Y-148023149D01*
X84558466Y-148018959D01*
X84696587Y-147956015D01*
X84707336Y-147949784D01*
X84718938Y-147945370D01*
X84769286Y-147913873D01*
X84820690Y-147884076D01*
X84830019Y-147875880D01*
X84840549Y-147869293D01*
X84848633Y-147862971D01*
X84954640Y-147778862D01*
X84961430Y-147772299D01*
X84969226Y-147766981D01*
X85012928Y-147722515D01*
X85057775Y-147679162D01*
X85063160Y-147671406D01*
X85069776Y-147664674D01*
X85076166Y-147656644D01*
X85164545Y-147543945D01*
X85172781Y-147531019D01*
X85182898Y-147519512D01*
X85211249Y-147470647D01*
X85241628Y-147422969D01*
X85247198Y-147408685D01*
X85254885Y-147395436D01*
X85259080Y-147386070D01*
X85320401Y-147246521D01*
X85327532Y-147224733D01*
X85337490Y-147204092D01*
X85349791Y-147156718D01*
X85365018Y-147110190D01*
X85367780Y-147087435D01*
X85373541Y-147065249D01*
X85375068Y-147055101D01*
X85398955Y-146888420D01*
X85401059Y-146841284D01*
X85406316Y-146794415D01*
X85406388Y-146784153D01*
X85406388Y-142145734D01*
X85446245Y-142154249D01*
X85446303Y-142154262D01*
X85962309Y-142264501D01*
X85962318Y-142264503D01*
X86921534Y-142469436D01*
X87920764Y-142682919D01*
X87920793Y-142682925D01*
X88356716Y-142776058D01*
X88356774Y-142776071D01*
X89052126Y-142924634D01*
X90063492Y-143140714D01*
X90063521Y-143140720D01*
X91163500Y-143375733D01*
X92961926Y-143759972D01*
X95651366Y-144334580D01*
X95651395Y-144334586D01*
X98632198Y-144971447D01*
X98632227Y-144971453D01*
X101876442Y-145664596D01*
X101876450Y-145664597D01*
X105356050Y-146408032D01*
X109043073Y-147195785D01*
X109043081Y-147195786D01*
X114884110Y-148443756D01*
X123166830Y-150213411D01*
X123166832Y-150213411D01*
X131775502Y-152052708D01*
X144839168Y-154843846D01*
X144839170Y-154843846D01*
X157318535Y-157510144D01*
X157318537Y-157510144D01*
X164992329Y-159149700D01*
X164992331Y-159149700D01*
X171872735Y-160619740D01*
X177735779Y-161872412D01*
X177735886Y-161872436D01*
X180730359Y-162512220D01*
X181799550Y-162740657D01*
X181799552Y-162740657D01*
X182778899Y-162949898D01*
X182778928Y-162949904D01*
X183664996Y-163139216D01*
X183664998Y-163139216D01*
X184824246Y-163386893D01*
X184824248Y-163386893D01*
X185994468Y-163636912D01*
X185994545Y-163636929D01*
X186399107Y-163723362D01*
X186453122Y-163729478D01*
X186506775Y-163738149D01*
X186517021Y-163738719D01*
X186708320Y-163748009D01*
X186742625Y-163746319D01*
X186776906Y-163748135D01*
X186814077Y-163742800D01*
X186851593Y-163740952D01*
X186884907Y-163732634D01*
X186918898Y-163727755D01*
X186928848Y-163725243D01*
X187088944Y-163683636D01*
X187096282Y-163680941D01*
X187103970Y-163679560D01*
X187163523Y-163656243D01*
X187223595Y-163634179D01*
X187230268Y-163630111D01*
X187237544Y-163627262D01*
X187246656Y-163622543D01*
X187341139Y-163572766D01*
X187341558Y-163572490D01*
X187342012Y-163572304D01*
X187400975Y-163533338D01*
X187460920Y-163493839D01*
X187461275Y-163493490D01*
X187461687Y-163493217D01*
X187469611Y-163486695D01*
X187578769Y-163395558D01*
X187587217Y-163386973D01*
X187596945Y-163379872D01*
X187637457Y-163335923D01*
X187679386Y-163293317D01*
X187686006Y-163283255D01*
X187694169Y-163274399D01*
X187700298Y-163266168D01*
X187785257Y-163150380D01*
X187793778Y-163136012D01*
X187804349Y-163123084D01*
X187830299Y-163074429D01*
X187858427Y-163026998D01*
X187863993Y-163011252D01*
X187871854Y-162996514D01*
X187875711Y-162987004D01*
X187933663Y-162841175D01*
X187947618Y-162792740D01*
X187964364Y-162745221D01*
X187966745Y-162735239D01*
X187971611Y-162714184D01*
X187971787Y-162712832D01*
X187972217Y-162711539D01*
X187974421Y-162701516D01*
X188084738Y-162182586D01*
X188084739Y-162182580D01*
X188175798Y-161754226D01*
X188175815Y-161754147D01*
X188279494Y-161266419D01*
X188279494Y-161266417D01*
X188394843Y-160723785D01*
X188394843Y-160723783D01*
X188520929Y-160130638D01*
X188520929Y-160130636D01*
X188656816Y-159491375D01*
X188656816Y-159491373D01*
X188801572Y-158810386D01*
X188801572Y-158810382D01*
X188915623Y-158273838D01*
X188915623Y-158273836D01*
X188974113Y-157998675D01*
X188974130Y-157998597D01*
X189013637Y-157812736D01*
X189013637Y-157812732D01*
X189113955Y-157340799D01*
X189113956Y-157340793D01*
X189191200Y-156977398D01*
X189251954Y-157282829D01*
X189380858Y-157594029D01*
X189567996Y-157874101D01*
X189806179Y-158112284D01*
X190086251Y-158299422D01*
X190397451Y-158428326D01*
X190727820Y-158494040D01*
X191064660Y-158494040D01*
X191395029Y-158428326D01*
X191706229Y-158299422D01*
X191986301Y-158112284D01*
X192224484Y-157874101D01*
X192411622Y-157594029D01*
X192540526Y-157282829D01*
X192606240Y-156952460D01*
X192606240Y-156620700D01*
X197471720Y-156620700D01*
X197471720Y-156957540D01*
X197537434Y-157287909D01*
X197666338Y-157599109D01*
X197853476Y-157879181D01*
X198091659Y-158117364D01*
X198371731Y-158304502D01*
X198682931Y-158433406D01*
X199013300Y-158499120D01*
X199350140Y-158499120D01*
X199680509Y-158433406D01*
X199991709Y-158304502D01*
X200271781Y-158117364D01*
X200509964Y-157879181D01*
X200697102Y-157599109D01*
X200826006Y-157287909D01*
X200891720Y-156957540D01*
X200891720Y-156620700D01*
X200826006Y-156290331D01*
X200697102Y-155979131D01*
X200509964Y-155699059D01*
X200271781Y-155460876D01*
X199991709Y-155273738D01*
X199680509Y-155144834D01*
X199350140Y-155079120D01*
X199013300Y-155079120D01*
X198682931Y-155144834D01*
X198371731Y-155273738D01*
X198091659Y-155460876D01*
X197853476Y-155699059D01*
X197666338Y-155979131D01*
X197537434Y-156290331D01*
X197471720Y-156620700D01*
X192606240Y-156620700D01*
X192606240Y-156615620D01*
X192540526Y-156285251D01*
X192411622Y-155974051D01*
X192224484Y-155693979D01*
X191986301Y-155455796D01*
X191706229Y-155268658D01*
X191395029Y-155139754D01*
X191064660Y-155074040D01*
X190727820Y-155074040D01*
X190397451Y-155139754D01*
X190086251Y-155268658D01*
X189806179Y-155455796D01*
X189567996Y-155693979D01*
X189415495Y-155922212D01*
X189893014Y-153675732D01*
X190623254Y-150240303D01*
X191323603Y-146945498D01*
X191789102Y-144755562D01*
X191789102Y-144755560D01*
X191995238Y-143785796D01*
X191995239Y-143785790D01*
X192121302Y-143192734D01*
X192291492Y-142392099D01*
X192291493Y-142392093D01*
X192431315Y-141734323D01*
X192431334Y-141734237D01*
X192508846Y-141369605D01*
X192541610Y-141215487D01*
X192547676Y-141161423D01*
X192556292Y-141107727D01*
X192556850Y-141097480D01*
X192565943Y-140905816D01*
X192564195Y-140871113D01*
X192565955Y-140836417D01*
X192560595Y-140799656D01*
X192558726Y-140762551D01*
X192550272Y-140728853D01*
X192545259Y-140694471D01*
X192542725Y-140684527D01*
X192500968Y-140525309D01*
X192494042Y-140506581D01*
X192489824Y-140487074D01*
X192469215Y-140439452D01*
X192451211Y-140390769D01*
X192440781Y-140373746D01*
X192432853Y-140355426D01*
X192427816Y-140346485D01*
X192354686Y-140218798D01*
X192347358Y-140208487D01*
X192341778Y-140197130D01*
X192305869Y-140150107D01*
X192271589Y-140101871D01*
X192262394Y-140093176D01*
X192254717Y-140083123D01*
X192247671Y-140075663D01*
X192149233Y-139972893D01*
X192139498Y-139964540D01*
X192131234Y-139954746D01*
X192085165Y-139917916D01*
X192040372Y-139879479D01*
X192029203Y-139873177D01*
X192019191Y-139865173D01*
X192010549Y-139859638D01*
X191887476Y-139782013D01*
X191877665Y-139777091D01*
X191868805Y-139770622D01*
X191813655Y-139744980D01*
X191759259Y-139717692D01*
X191748679Y-139714770D01*
X191738730Y-139710144D01*
X191729023Y-139706814D01*
X191600109Y-139663591D01*
X191564249Y-139655355D01*
X191529339Y-139643739D01*
X191519316Y-139641535D01*
X191238909Y-139581915D01*
X191238908Y-139581915D01*
X191238895Y-139581912D01*
X190919141Y-139513933D01*
X190919092Y-139513922D01*
X190638955Y-139454367D01*
X190638954Y-139454367D01*
X190638950Y-139454366D01*
X190341860Y-139391209D01*
X190341859Y-139391209D01*
X190341855Y-139391208D01*
X190031639Y-139325262D01*
X190031569Y-139325247D01*
X189711866Y-139257288D01*
X189711858Y-139257287D01*
X189508889Y-139214142D01*
X189508799Y-139214122D01*
X189304682Y-139170736D01*
X189059256Y-139118569D01*
X189059236Y-139118565D01*
X188733852Y-139049405D01*
X188733844Y-139049404D01*
X188493568Y-138998335D01*
X188493567Y-138998335D01*
X188493563Y-138998334D01*
X188180632Y-138931824D01*
X188180623Y-138931823D01*
X187880026Y-138867939D01*
X187879907Y-138867913D01*
X187526307Y-138792770D01*
X187526295Y-138792768D01*
X187330221Y-138751104D01*
X187330212Y-138751102D01*
X187117748Y-138705958D01*
X187117745Y-138705958D01*
X187117724Y-138705953D01*
X187065714Y-138694904D01*
X187110202Y-138487985D01*
X187317537Y-137523658D01*
X187590582Y-136253715D01*
X187590583Y-136253705D01*
X187924776Y-134699369D01*
X188524527Y-131909919D01*
X189505079Y-127349366D01*
X191231369Y-119320386D01*
X191279956Y-119393101D01*
X191518139Y-119631284D01*
X191798211Y-119818422D01*
X192109411Y-119947326D01*
X192439780Y-120013040D01*
X192776620Y-120013040D01*
X193106989Y-119947326D01*
X193418189Y-119818422D01*
X193698261Y-119631284D01*
X193936444Y-119393101D01*
X194123582Y-119113029D01*
X194252486Y-118801829D01*
X194318200Y-118471460D01*
X194318200Y-118134620D01*
X194252486Y-117804251D01*
X194123582Y-117493051D01*
X193936444Y-117212979D01*
X193698261Y-116974796D01*
X193418189Y-116787658D01*
X193106989Y-116658754D01*
X192776620Y-116593040D01*
X192439780Y-116593040D01*
X192109411Y-116658754D01*
X191798211Y-116787658D01*
X191772185Y-116805048D01*
X193384020Y-109308398D01*
X193449116Y-109405821D01*
X193687299Y-109644004D01*
X193967371Y-109831142D01*
X194278571Y-109960046D01*
X194608940Y-110025760D01*
X194945780Y-110025760D01*
X195276149Y-109960046D01*
X195587349Y-109831142D01*
X195867421Y-109644004D01*
X196105604Y-109405821D01*
X196292742Y-109125749D01*
X196421646Y-108814549D01*
X196487360Y-108484180D01*
X196487360Y-108147340D01*
X196421646Y-107816971D01*
X196292742Y-107505771D01*
X196105604Y-107225699D01*
X195867421Y-106987516D01*
X195587349Y-106800378D01*
X195276149Y-106671474D01*
X194945780Y-106605760D01*
X194608940Y-106605760D01*
X194278571Y-106671474D01*
X193967371Y-106800378D01*
X193915863Y-106834795D01*
X193972888Y-106569569D01*
X196115563Y-96603966D01*
X196707207Y-93852220D01*
X197471720Y-93852220D01*
X197471720Y-94189060D01*
X197537434Y-94519429D01*
X197666338Y-94830629D01*
X197853476Y-95110701D01*
X198091659Y-95348884D01*
X198371731Y-95536022D01*
X198682931Y-95664926D01*
X199013300Y-95730640D01*
X199350140Y-95730640D01*
X199680509Y-95664926D01*
X199991709Y-95536022D01*
X200271781Y-95348884D01*
X200509964Y-95110701D01*
X200697102Y-94830629D01*
X200826006Y-94519429D01*
X200891720Y-94189060D01*
X200891720Y-93852220D01*
X200826006Y-93521851D01*
X200697102Y-93210651D01*
X200509964Y-92930579D01*
X200271781Y-92692396D01*
X199991709Y-92505258D01*
X199680509Y-92376354D01*
X199350140Y-92310640D01*
X199013300Y-92310640D01*
X198682931Y-92376354D01*
X198371731Y-92505258D01*
X198091659Y-92692396D01*
X197853476Y-92930579D01*
X197666338Y-93210651D01*
X197537434Y-93521851D01*
X197471720Y-93852220D01*
X196707207Y-93852220D01*
X197523790Y-90054280D01*
X197523791Y-90054270D01*
X198875560Y-83767167D01*
X198875590Y-83767032D01*
X199826700Y-79343389D01*
X199826700Y-79343387D01*
X200426070Y-76555689D01*
X200990810Y-73929057D01*
X201516357Y-71484704D01*
X201516357Y-71484702D01*
X201998150Y-69243844D01*
X202326422Y-67717021D01*
X202530228Y-66769099D01*
X202530228Y-66769097D01*
X202812234Y-65457457D01*
X202812234Y-65457453D01*
X203058342Y-64312768D01*
X203204689Y-63632082D01*
X203204713Y-63631976D01*
X203335284Y-63024662D01*
X203335299Y-63024595D01*
X203449530Y-62493278D01*
X203449530Y-62493274D01*
X203546837Y-62040675D01*
X203546838Y-62040667D01*
X203626649Y-61669442D01*
X203634823Y-61631423D01*
X204370000Y-61631423D01*
X204370000Y-153230968D01*
X204368208Y-153434162D01*
X204363500Y-153617154D01*
X204355613Y-153804255D01*
X204344967Y-153985868D01*
X204331792Y-154162274D01*
X204315874Y-154337978D01*
X204297787Y-154508079D01*
X204274774Y-154695600D01*
X204250671Y-154868598D01*
X204225336Y-155032052D01*
X204197618Y-155194792D01*
X204167508Y-155356935D01*
X204136009Y-155513681D01*
X204102266Y-155669848D01*
X204066388Y-155825005D01*
X204027217Y-155983783D01*
X203988132Y-156132928D01*
X203944548Y-156289986D01*
X203901320Y-156437500D01*
X203856049Y-156584363D01*
X203810181Y-156726200D01*
X203762425Y-156867324D01*
X203712924Y-157007354D01*
X203659966Y-157150880D01*
X203606786Y-157289160D01*
X203551741Y-157426744D01*
X203494920Y-157563420D01*
X203438084Y-157695184D01*
X203379562Y-157826157D01*
X203319471Y-157956084D01*
X203253880Y-158093072D01*
X203190535Y-158220971D01*
X203121497Y-158355825D01*
X203050703Y-158489570D01*
X202982425Y-158614526D01*
X202908158Y-158746267D01*
X202836604Y-158869357D01*
X202763449Y-158991571D01*
X202691059Y-159109105D01*
X202614959Y-159229242D01*
X202534932Y-159352029D01*
X202458213Y-159466513D01*
X202380123Y-159579977D01*
X202295582Y-159699518D01*
X202214677Y-159810888D01*
X202132391Y-159921262D01*
X202048901Y-160030412D01*
X201953245Y-160152133D01*
X201866957Y-160259027D01*
X201776679Y-160368044D01*
X201676386Y-160485943D01*
X201588893Y-160586151D01*
X201500058Y-160685481D01*
X201409991Y-160783799D01*
X201318785Y-160881011D01*
X201226618Y-160976927D01*
X201117944Y-161087156D01*
X201023396Y-161180617D01*
X200927494Y-161273184D01*
X200830564Y-161364533D01*
X200722973Y-161463424D01*
X200623796Y-161552322D01*
X200523444Y-161640137D01*
X200422094Y-161726712D01*
X200316330Y-161814863D01*
X200212902Y-161898960D01*
X200105118Y-161984446D01*
X199989422Y-162073837D01*
X199876053Y-162159118D01*
X199761641Y-162242922D01*
X199645997Y-162325388D01*
X199529299Y-162406384D01*
X199411521Y-162485919D01*
X199296294Y-162561637D01*
X199180154Y-162635909D01*
X199051922Y-162715588D01*
X198930079Y-162789086D01*
X198807100Y-162861134D01*
X198686918Y-162929516D01*
X198565729Y-162996484D01*
X198443750Y-163061908D01*
X198313071Y-163129846D01*
X198185504Y-163194056D01*
X198056829Y-163256752D01*
X197927205Y-163317846D01*
X197796819Y-163377245D01*
X197665487Y-163435028D01*
X197533443Y-163491085D01*
X197388207Y-163550423D01*
X197250458Y-163604494D01*
X197107550Y-163658353D01*
X196963876Y-163710237D01*
X196815077Y-163761615D01*
X196665357Y-163810930D01*
X196519118Y-163856817D01*
X196363192Y-163903297D01*
X196215068Y-163945146D01*
X196066008Y-163985018D01*
X195916347Y-164022806D01*
X195748465Y-164062561D01*
X195588610Y-164097853D01*
X195423258Y-164131753D01*
X195261649Y-164162356D01*
X195099165Y-164190622D01*
X194922442Y-164218549D01*
X194758402Y-164241864D01*
X194589068Y-164263319D01*
X194414331Y-164282703D01*
X194239132Y-164299340D01*
X194053737Y-164313924D01*
X193876915Y-164324956D01*
X193694543Y-164333405D01*
X193511528Y-164338909D01*
X193321084Y-164341510D01*
X193261574Y-164341671D01*
X179812147Y-164341671D01*
X179614191Y-164340820D01*
X179421916Y-164338370D01*
X179228299Y-164334277D01*
X179039113Y-164328697D01*
X178843907Y-164321300D01*
X178658153Y-164312720D01*
X178471332Y-164302564D01*
X178282209Y-164290727D01*
X178093202Y-164277331D01*
X177913447Y-164263133D01*
X177731617Y-164247324D01*
X177551985Y-164230275D01*
X177374824Y-164212060D01*
X177195539Y-164192212D01*
X177015341Y-164170821D01*
X176839756Y-164148587D01*
X176665437Y-164125149D01*
X176491350Y-164100383D01*
X176319605Y-164074616D01*
X176150149Y-164047884D01*
X175981007Y-164019907D01*
X175812264Y-163990698D01*
X175643406Y-163960169D01*
X175477064Y-163928815D01*
X175305857Y-163895220D01*
X175221430Y-163878157D01*
X174959837Y-163824792D01*
X174959781Y-163824780D01*
X174685531Y-163768832D01*
X174685529Y-163768832D01*
X174103241Y-163650044D01*
X174103158Y-163650026D01*
X173253927Y-163476778D01*
X173253921Y-163476777D01*
X172330628Y-163288418D01*
X172330600Y-163288412D01*
X171338687Y-163086052D01*
X171338659Y-163086046D01*
X170283652Y-162870813D01*
X170283596Y-162870801D01*
X169171035Y-162643824D01*
X169170899Y-162643795D01*
X168006057Y-162406151D01*
X168006049Y-162406150D01*
X166794589Y-162158993D01*
X166794561Y-162158987D01*
X165541894Y-161903422D01*
X164253550Y-161640577D01*
X162935047Y-161371579D01*
X162935019Y-161371573D01*
X161591787Y-161097527D01*
X160229343Y-160819561D01*
X158853177Y-160538795D01*
X158853169Y-160538794D01*
X157468777Y-160256348D01*
X157468769Y-160256347D01*
X156081662Y-159973347D01*
X156081634Y-159973341D01*
X154697234Y-159690891D01*
X153321067Y-159410121D01*
X151958624Y-159132150D01*
X149949263Y-158722191D01*
X148008514Y-158326228D01*
X146755906Y-158070664D01*
X146755851Y-158070652D01*
X144949581Y-157702122D01*
X144949573Y-157702121D01*
X143266841Y-157358794D01*
X143266813Y-157358788D01*
X142211749Y-157143522D01*
X141219866Y-156941146D01*
X141219810Y-156941134D01*
X140296480Y-156752743D01*
X140296474Y-156752742D01*
X139447280Y-156579476D01*
X139447252Y-156579470D01*
X138677614Y-156422435D01*
X138328014Y-156351104D01*
X138327874Y-156351089D01*
X138325307Y-156350557D01*
X138147143Y-156314901D01*
X138146956Y-156314882D01*
X138141697Y-156313833D01*
X137970164Y-156280850D01*
X137969981Y-156280833D01*
X137964848Y-156279848D01*
X137794250Y-156248345D01*
X137794062Y-156248329D01*
X137788951Y-156247387D01*
X137618149Y-156217139D01*
X137617971Y-156217125D01*
X137612787Y-156216209D01*
X137438347Y-156186647D01*
X137438156Y-156186634D01*
X137432957Y-156185755D01*
X137260617Y-156157865D01*
X137260435Y-156157854D01*
X137255195Y-156157008D01*
X137078073Y-156129700D01*
X137077890Y-156129690D01*
X137072591Y-156128876D01*
X136896433Y-156103075D01*
X136896247Y-156103066D01*
X136890891Y-156102285D01*
X136709945Y-156077189D01*
X136709764Y-156077182D01*
X136704109Y-156076403D01*
X136510294Y-156051103D01*
X136510107Y-156051097D01*
X136504505Y-156050371D01*
X136324356Y-156028308D01*
X136324176Y-156028304D01*
X136318575Y-156027623D01*
X136126709Y-156005666D01*
X136126523Y-156005663D01*
X136120914Y-156005026D01*
X135939296Y-155985700D01*
X135939109Y-155985698D01*
X135933576Y-155985114D01*
X135747179Y-155966753D01*
X135746990Y-155966753D01*
X135741388Y-155966206D01*
X135553694Y-155949216D01*
X135553511Y-155949217D01*
X135547894Y-155948714D01*
X135362384Y-155933402D01*
X135362203Y-155933405D01*
X135356483Y-155932939D01*
X135161569Y-155918430D01*
X135161393Y-155918434D01*
X135155515Y-155918004D01*
X134960475Y-155905104D01*
X134960289Y-155905110D01*
X134954462Y-155904731D01*
X134761634Y-155893564D01*
X134761448Y-155893571D01*
X134755656Y-155893243D01*
X134563889Y-155883704D01*
X134563712Y-155883713D01*
X134557782Y-155883425D01*
X134355455Y-155875047D01*
X134355270Y-155875057D01*
X134349296Y-155874818D01*
X134155025Y-155868405D01*
X134154844Y-155868417D01*
X134148838Y-155868227D01*
X133944021Y-155863192D01*
X133943842Y-155863205D01*
X133937662Y-155863063D01*
X133732775Y-155859800D01*
X133732597Y-155859815D01*
X133726411Y-155859726D01*
X133521467Y-155858237D01*
X133521284Y-155858254D01*
X133517200Y-155858219D01*
X133447324Y-155858117D01*
X133447261Y-155858123D01*
X133446251Y-155858116D01*
X25673495Y-155858116D01*
X25484266Y-155856559D01*
X25291713Y-155851759D01*
X25109446Y-155844183D01*
X24923171Y-155833375D01*
X24742272Y-155819900D01*
X24566656Y-155803990D01*
X24396268Y-155785873D01*
X24226698Y-155765200D01*
X24053377Y-155741331D01*
X23885529Y-155715550D01*
X23714056Y-155686482D01*
X23539003Y-155653938D01*
X23382655Y-155622394D01*
X23213596Y-155585623D01*
X23058752Y-155549499D01*
X22895820Y-155508932D01*
X22746856Y-155469521D01*
X22594276Y-155426830D01*
X22442537Y-155382014D01*
X22295985Y-155336464D01*
X22145921Y-155287488D01*
X22005278Y-155239410D01*
X21865197Y-155189404D01*
X21726176Y-155137652D01*
X21583799Y-155082425D01*
X21446492Y-155027000D01*
X21314132Y-154971526D01*
X21178583Y-154912598D01*
X21040110Y-154850151D01*
X20902768Y-154785931D01*
X20762471Y-154717936D01*
X20631200Y-154652080D01*
X20489060Y-154578288D01*
X20363510Y-154510916D01*
X20238615Y-154441809D01*
X20118553Y-154373376D01*
X19995622Y-154301231D01*
X19873776Y-154227604D01*
X19752932Y-154152454D01*
X19633279Y-154075903D01*
X19507429Y-153993034D01*
X19382873Y-153908580D01*
X19262933Y-153824901D01*
X19151162Y-153744785D01*
X19033456Y-153658128D01*
X18913425Y-153567272D01*
X18805117Y-153483070D01*
X18687414Y-153389105D01*
X18584468Y-153304761D01*
X18482269Y-153218965D01*
X18381138Y-153131990D01*
X18281165Y-153043912D01*
X18182250Y-152954647D01*
X18074942Y-152855351D01*
X17978397Y-152763748D01*
X17882733Y-152670792D01*
X17788287Y-152576801D01*
X17694993Y-152481716D01*
X17599979Y-152382507D01*
X17497360Y-152272558D01*
X17407747Y-152174073D01*
X17319269Y-152074473D01*
X17229106Y-151970464D01*
X17142999Y-151868669D01*
X17058094Y-151765823D01*
X16971837Y-151658723D01*
X16881572Y-151543688D01*
X16798090Y-151434463D01*
X16713297Y-151320593D01*
X16629971Y-151205666D01*
X16548027Y-151089562D01*
X16470014Y-150976025D01*
X16393316Y-150861387D01*
X16318043Y-150745802D01*
X16241883Y-150625568D01*
X16169483Y-150508016D01*
X16096278Y-150385724D01*
X16026793Y-150266242D01*
X16012091Y-150240220D01*
X17919120Y-150240220D01*
X17919120Y-150577060D01*
X17984834Y-150907429D01*
X18113738Y-151218629D01*
X18300876Y-151498701D01*
X18539059Y-151736884D01*
X18819131Y-151924022D01*
X19130331Y-152052926D01*
X19460700Y-152118640D01*
X19797540Y-152118640D01*
X20127909Y-152052926D01*
X20439109Y-151924022D01*
X20719181Y-151736884D01*
X20957364Y-151498701D01*
X21144502Y-151218629D01*
X21273406Y-150907429D01*
X21339120Y-150577060D01*
X21339120Y-150240220D01*
X26148720Y-150240220D01*
X26148720Y-150577060D01*
X26214434Y-150907429D01*
X26343338Y-151218629D01*
X26530476Y-151498701D01*
X26768659Y-151736884D01*
X27048731Y-151924022D01*
X27359931Y-152052926D01*
X27690300Y-152118640D01*
X28027140Y-152118640D01*
X28357509Y-152052926D01*
X28668709Y-151924022D01*
X28948781Y-151736884D01*
X29186964Y-151498701D01*
X29374102Y-151218629D01*
X29503006Y-150907429D01*
X29568720Y-150577060D01*
X29568720Y-150240220D01*
X29503006Y-149909851D01*
X29374102Y-149598651D01*
X29186964Y-149318579D01*
X28948781Y-149080396D01*
X28668709Y-148893258D01*
X28357509Y-148764354D01*
X28027140Y-148698640D01*
X27690300Y-148698640D01*
X27359931Y-148764354D01*
X27048731Y-148893258D01*
X26768659Y-149080396D01*
X26530476Y-149318579D01*
X26343338Y-149598651D01*
X26214434Y-149909851D01*
X26148720Y-150240220D01*
X21339120Y-150240220D01*
X21273406Y-149909851D01*
X21144502Y-149598651D01*
X20957364Y-149318579D01*
X20719181Y-149080396D01*
X20439109Y-148893258D01*
X20127909Y-148764354D01*
X19797540Y-148698640D01*
X19460700Y-148698640D01*
X19130331Y-148764354D01*
X18819131Y-148893258D01*
X18539059Y-149080396D01*
X18300876Y-149318579D01*
X18113738Y-149598651D01*
X17984834Y-149909851D01*
X17919120Y-150240220D01*
X16012091Y-150240220D01*
X15958805Y-150145908D01*
X15888109Y-150016931D01*
X15819179Y-149887127D01*
X15753843Y-149760096D01*
X15688229Y-149628308D01*
X15624275Y-149495454D01*
X15563895Y-149365681D01*
X15503386Y-149231023D01*
X15444546Y-149095250D01*
X15389280Y-148962966D01*
X15330790Y-148817420D01*
X15275950Y-148675233D01*
X15221456Y-148527806D01*
X15171890Y-148387770D01*
X15122771Y-148242708D01*
X15074276Y-148092540D01*
X15029179Y-147945842D01*
X14984814Y-147793897D01*
X14942578Y-147641126D01*
X14903597Y-147491899D01*
X14865564Y-147337357D01*
X14828791Y-147177906D01*
X14794272Y-147017371D01*
X14762974Y-146860676D01*
X14732284Y-146694143D01*
X14704831Y-146531415D01*
X14679085Y-146363354D01*
X14655290Y-146190079D01*
X14634679Y-146020431D01*
X14616637Y-145850123D01*
X14600416Y-145669898D01*
X14587084Y-145489010D01*
X14576654Y-145307319D01*
X14568987Y-145120240D01*
X14564491Y-144936969D01*
X14562940Y-144747640D01*
X14562940Y-25224409D01*
X14564543Y-25033904D01*
X14569653Y-24835615D01*
X14577595Y-24651037D01*
X14588217Y-24472309D01*
X14601519Y-24296234D01*
X14618394Y-24112609D01*
X14636743Y-23942763D01*
X14657707Y-23773230D01*
X14680627Y-23608463D01*
X14705993Y-23444182D01*
X14733811Y-23280319D01*
X14763205Y-23121430D01*
X14794890Y-22963071D01*
X14829840Y-22800858D01*
X14865154Y-22647816D01*
X14902605Y-22495378D01*
X14942226Y-22343404D01*
X14982751Y-22196402D01*
X15027784Y-22041608D01*
X15075040Y-21887541D01*
X15121403Y-21743637D01*
X15173349Y-21589871D01*
X15224133Y-21446276D01*
X15276907Y-21303323D01*
X15331691Y-21160980D01*
X15386766Y-21023444D01*
X15441962Y-20890694D01*
X15500708Y-20754479D01*
X15559406Y-20623151D01*
X15619807Y-20492586D01*
X15683876Y-20358733D01*
X15746262Y-20232642D01*
X15813296Y-20101454D01*
X15878992Y-19976905D01*
X15945841Y-19853954D01*
X16013672Y-19732844D01*
X16083034Y-19612554D01*
X16155109Y-19491130D01*
X16228122Y-19371592D01*
X16229586Y-19369260D01*
X17919120Y-19369260D01*
X17919120Y-19706100D01*
X17984834Y-20036469D01*
X18113738Y-20347669D01*
X18300876Y-20627741D01*
X18539059Y-20865924D01*
X18819131Y-21053062D01*
X19130331Y-21181966D01*
X19460700Y-21247680D01*
X19797540Y-21247680D01*
X20127909Y-21181966D01*
X20439109Y-21053062D01*
X20719181Y-20865924D01*
X20957364Y-20627741D01*
X21144502Y-20347669D01*
X21273406Y-20036469D01*
X21339120Y-19706100D01*
X21339120Y-19369260D01*
X21338110Y-19364180D01*
X26148720Y-19364180D01*
X26148720Y-19701020D01*
X26214434Y-20031389D01*
X26343338Y-20342589D01*
X26530476Y-20622661D01*
X26768659Y-20860844D01*
X27048731Y-21047982D01*
X27359931Y-21176886D01*
X27690300Y-21242600D01*
X28027140Y-21242600D01*
X28357509Y-21176886D01*
X28668709Y-21047982D01*
X28948781Y-20860844D01*
X29186964Y-20622661D01*
X29374102Y-20342589D01*
X29503006Y-20031389D01*
X29568720Y-19701020D01*
X29568720Y-19364180D01*
X189186240Y-19364180D01*
X189186240Y-19701020D01*
X189251954Y-20031389D01*
X189380858Y-20342589D01*
X189567996Y-20622661D01*
X189806179Y-20860844D01*
X190086251Y-21047982D01*
X190397451Y-21176886D01*
X190727820Y-21242600D01*
X191064660Y-21242600D01*
X191395029Y-21176886D01*
X191706229Y-21047982D01*
X191986301Y-20860844D01*
X192224484Y-20622661D01*
X192411622Y-20342589D01*
X192540526Y-20031389D01*
X192606240Y-19701020D01*
X192606240Y-19369260D01*
X197476800Y-19369260D01*
X197476800Y-19706100D01*
X197542514Y-20036469D01*
X197671418Y-20347669D01*
X197858556Y-20627741D01*
X198096739Y-20865924D01*
X198376811Y-21053062D01*
X198688011Y-21181966D01*
X199018380Y-21247680D01*
X199355220Y-21247680D01*
X199685589Y-21181966D01*
X199996789Y-21053062D01*
X200276861Y-20865924D01*
X200515044Y-20627741D01*
X200702182Y-20347669D01*
X200831086Y-20036469D01*
X200896800Y-19706100D01*
X200896800Y-19369260D01*
X200831086Y-19038891D01*
X200702182Y-18727691D01*
X200515044Y-18447619D01*
X200276861Y-18209436D01*
X199996789Y-18022298D01*
X199685589Y-17893394D01*
X199355220Y-17827680D01*
X199018380Y-17827680D01*
X198688011Y-17893394D01*
X198376811Y-18022298D01*
X198096739Y-18209436D01*
X197858556Y-18447619D01*
X197671418Y-18727691D01*
X197542514Y-19038891D01*
X197476800Y-19369260D01*
X192606240Y-19369260D01*
X192606240Y-19364180D01*
X192540526Y-19033811D01*
X192411622Y-18722611D01*
X192224484Y-18442539D01*
X191986301Y-18204356D01*
X191706229Y-18017218D01*
X191395029Y-17888314D01*
X191064660Y-17822600D01*
X190727820Y-17822600D01*
X190397451Y-17888314D01*
X190086251Y-18017218D01*
X189806179Y-18204356D01*
X189567996Y-18442539D01*
X189380858Y-18722611D01*
X189251954Y-19033811D01*
X189186240Y-19364180D01*
X29568720Y-19364180D01*
X29503006Y-19033811D01*
X29374102Y-18722611D01*
X29186964Y-18442539D01*
X28948781Y-18204356D01*
X28668709Y-18017218D01*
X28357509Y-17888314D01*
X28027140Y-17822600D01*
X27690300Y-17822600D01*
X27359931Y-17888314D01*
X27048731Y-18017218D01*
X26768659Y-18204356D01*
X26530476Y-18442539D01*
X26343338Y-18722611D01*
X26214434Y-19033811D01*
X26148720Y-19364180D01*
X21338110Y-19364180D01*
X21273406Y-19038891D01*
X21144502Y-18727691D01*
X20957364Y-18447619D01*
X20719181Y-18209436D01*
X20439109Y-18022298D01*
X20127909Y-17893394D01*
X19797540Y-17827680D01*
X19460700Y-17827680D01*
X19130331Y-17893394D01*
X18819131Y-18022298D01*
X18539059Y-18209436D01*
X18300876Y-18447619D01*
X18113738Y-18727691D01*
X17984834Y-19038891D01*
X17919120Y-19369260D01*
X16229586Y-19369260D01*
X16302130Y-19253779D01*
X16376467Y-19138654D01*
X16451546Y-19025454D01*
X16533119Y-18905774D01*
X16613684Y-18790775D01*
X16698438Y-18673044D01*
X16779392Y-18563546D01*
X16864610Y-18451244D01*
X16948525Y-18343480D01*
X17035849Y-18234177D01*
X17128884Y-18120753D01*
X17217044Y-18016026D01*
X17306630Y-17912237D01*
X17397728Y-17809298D01*
X17487090Y-17710761D01*
X17577859Y-17613056D01*
X17669819Y-17516416D01*
X17763807Y-17419992D01*
X17815461Y-17367993D01*
X17922405Y-17262451D01*
X18018445Y-17170052D01*
X18115490Y-17078904D01*
X18223575Y-16979915D01*
X18322519Y-16891557D01*
X18429341Y-16798515D01*
X18533850Y-16709771D01*
X18638447Y-16623139D01*
X18742333Y-16539200D01*
X18849741Y-16454559D01*
X18958076Y-16371328D01*
X19067252Y-16289569D01*
X19177346Y-16209213D01*
X19291933Y-16127749D01*
X19407462Y-16047796D01*
X19521178Y-15971186D01*
X19637666Y-15894796D01*
X19752206Y-15821699D01*
X19868510Y-15749471D01*
X19987434Y-15677648D01*
X20111939Y-15604605D01*
X20237281Y-15533242D01*
X20359676Y-15465619D01*
X20486648Y-15397569D01*
X20618464Y-15329139D01*
X20743157Y-15266448D01*
X20872657Y-15203397D01*
X21002831Y-15142090D01*
X21137869Y-15080652D01*
X21269595Y-15022798D01*
X21402128Y-14966627D01*
X21535234Y-14912234D01*
X21673207Y-14857958D01*
X21811784Y-14805566D01*
X21955182Y-14753559D01*
X22095083Y-14704949D01*
X22243941Y-14655509D01*
X22389322Y-14609458D01*
X22535287Y-14565421D01*
X22686172Y-14522182D01*
X22837664Y-14481073D01*
X22989660Y-14442128D01*
X23146522Y-14404320D01*
X23304015Y-14368775D01*
X23461927Y-14335541D01*
X23629127Y-14302954D01*
X23792521Y-14273667D01*
X23956439Y-14246809D01*
X24119793Y-14222541D01*
X24287004Y-14200264D01*
X24455569Y-14180418D01*
X24625711Y-14163028D01*
X24805024Y-14147560D01*
X24980310Y-14135265D01*
X25160122Y-14125543D01*
X25358252Y-14118209D01*
X25544230Y-14114534D01*
X25672575Y-14113802D01*
X193259167Y-14113802D01*
X193458757Y-14115559D01*
G37*
X193458757Y-14115559D02*
X193648107Y-14120512D01*
X193828312Y-14128231D01*
X194007986Y-14138848D01*
X194200821Y-14153500D01*
X194375257Y-14169667D01*
X194545190Y-14188091D01*
X194714785Y-14209128D01*
X194879562Y-14232114D01*
X195043772Y-14257533D01*
X195207540Y-14285400D01*
X195370764Y-14315692D01*
X195528975Y-14347475D01*
X195695387Y-14383498D01*
X195852417Y-14419950D01*
X196009021Y-14458709D01*
X196160453Y-14498501D01*
X196332544Y-14546508D01*
X196490046Y-14593072D01*
X196636527Y-14638666D01*
X196781558Y-14686008D01*
X196921706Y-14733870D01*
X197065378Y-14785112D01*
X197208156Y-14838255D01*
X197349400Y-14893039D01*
X197483787Y-14947234D01*
X197616526Y-15002780D01*
X197748590Y-15060065D01*
X197878859Y-15118578D01*
X198010424Y-15179739D01*
X198140188Y-15242125D01*
X198269192Y-15306218D01*
X198393474Y-15369955D01*
X198517071Y-15435319D01*
X198647507Y-15506481D01*
X198769279Y-15574982D01*
X198894215Y-15647382D01*
X199014373Y-15719082D01*
X199133790Y-15792399D01*
X199252322Y-15867246D01*
X199366376Y-15941267D01*
X199480538Y-16017369D01*
X199592868Y-16094263D01*
X199703504Y-16172002D01*
X199813918Y-16251617D01*
X199930693Y-16338089D01*
X200039247Y-16420624D01*
X200147026Y-16504684D01*
X200251226Y-16588014D01*
X200362163Y-16679018D01*
X200466977Y-16767237D01*
X200568378Y-16854718D01*
X200667870Y-16942658D01*
X200772288Y-17037271D01*
X200870700Y-17128684D01*
X200967384Y-17220685D01*
X201063757Y-17314624D01*
X201115652Y-17366167D01*
X201230477Y-17482676D01*
X201322639Y-17578703D01*
X201413649Y-17675839D01*
X201512262Y-17783776D01*
X201612262Y-17896210D01*
X201701288Y-17998938D01*
X201787624Y-18101042D01*
X201874790Y-18206716D01*
X201960552Y-18313338D01*
X202044914Y-18420907D01*
X202127888Y-18529431D01*
X202209375Y-18638766D01*
X202291445Y-18751794D01*
X202370074Y-18862961D01*
X202447924Y-18975954D01*
X202523766Y-19088981D01*
X202600452Y-19206402D01*
X202677912Y-19328395D01*
X202751473Y-19447595D01*
X202823522Y-19567711D01*
X202895573Y-19691382D01*
X202967060Y-19817826D01*
X203036435Y-19944352D01*
X203101487Y-20066665D01*
X203166119Y-20191965D01*
X203230490Y-20320789D01*
X203293024Y-20450102D01*
X203361355Y-20596492D01*
X203420323Y-20727483D01*
X203477663Y-20859397D01*
X203534987Y-20996159D01*
X203589214Y-21130482D01*
X203644053Y-21271717D01*
X203695794Y-21410483D01*
X203745715Y-21550031D01*
X203793720Y-21690083D01*
X203842531Y-21839124D01*
X203890196Y-21991995D01*
X203933811Y-22139165D01*
X203976293Y-22290222D01*
X204016596Y-22441720D01*
X204057901Y-22606711D01*
X204094717Y-22763659D01*
X204129044Y-22920170D01*
X204163059Y-23087099D01*
X204193136Y-23246889D01*
X204221424Y-23410478D01*
X204247945Y-23579012D01*
X204271280Y-23743545D01*
X204292709Y-23913086D01*
X204311524Y-24082933D01*
X204328115Y-24257556D01*
X204342279Y-24437100D01*
X204353527Y-24616800D01*
X204361875Y-24797037D01*
X204367399Y-24982095D01*
X204369870Y-25169526D01*
X204370000Y-25222317D01*
X204370000Y-49988387D01*
X204202243Y-49952735D01*
X204202214Y-49952729D01*
X203801642Y-49867600D01*
X203801643Y-49867600D01*
X203438134Y-49790345D01*
X203438128Y-49790344D01*
X203038599Y-49705432D01*
X203038595Y-49705432D01*
X202604348Y-49613139D01*
X202604319Y-49613133D01*
X202136565Y-49513719D01*
X202136557Y-49513718D01*
X201636649Y-49407469D01*
X201636620Y-49407463D01*
X201105846Y-49294654D01*
X201105760Y-49294635D01*
X200545258Y-49175505D01*
X200545256Y-49175505D01*
X199655031Y-48986295D01*
X199655023Y-48986294D01*
X198371545Y-48713499D01*
X198371516Y-48713493D01*
X196992427Y-48420374D01*
X195528039Y-48109124D01*
X195527981Y-48109111D01*
X193988390Y-47781874D01*
X192383874Y-47440836D01*
X192383864Y-47440835D01*
X190724645Y-47088168D01*
X190724637Y-47088167D01*
X189449343Y-46817103D01*
X189449314Y-46817097D01*
X188588241Y-46634075D01*
X187282943Y-46356633D01*
X187282914Y-46356627D01*
X184635093Y-45793829D01*
X184635064Y-45793823D01*
X181075971Y-45037329D01*
X181075942Y-45037323D01*
X177563594Y-44290764D01*
X177563565Y-44290758D01*
X172530037Y-43220865D01*
X166766425Y-41995788D01*
X164045333Y-41417410D01*
X163364035Y-41272597D01*
X163364006Y-41272591D01*
X163051015Y-41206063D01*
X163051011Y-41206063D01*
X162852700Y-41163912D01*
X162852593Y-41163888D01*
X162390211Y-41065609D01*
X161781933Y-40936320D01*
X161683847Y-40915472D01*
X161704126Y-40820104D01*
X161704126Y-40820101D01*
X161704131Y-40820080D01*
X161758220Y-40565665D01*
X161758223Y-40565652D01*
X161814656Y-40300190D01*
X161814657Y-40300181D01*
X161882649Y-39980368D01*
X161926671Y-39773352D01*
X161963422Y-39600564D01*
X161997874Y-39438663D01*
X162003945Y-39384654D01*
X162012571Y-39331014D01*
X162013133Y-39320767D01*
X162022278Y-39129399D01*
X162020552Y-39094898D01*
X162022333Y-39060402D01*
X162016977Y-39023440D01*
X162015111Y-38986132D01*
X162006716Y-38952622D01*
X162001763Y-38918438D01*
X161999238Y-38908491D01*
X161957601Y-38749152D01*
X161950740Y-38730549D01*
X161946576Y-38711172D01*
X161925973Y-38663397D01*
X161907964Y-38614567D01*
X161897621Y-38597652D01*
X161889772Y-38579451D01*
X161884746Y-38570504D01*
X161811978Y-38443072D01*
X161804573Y-38432624D01*
X161798937Y-38421129D01*
X161763167Y-38374204D01*
X161729030Y-38326040D01*
X161719735Y-38317228D01*
X161711975Y-38307048D01*
X161704935Y-38299581D01*
X161605963Y-38196078D01*
X161596011Y-38187524D01*
X161587553Y-38177499D01*
X161541714Y-38140849D01*
X161497183Y-38102570D01*
X161485760Y-38096112D01*
X161475514Y-38087920D01*
X161466873Y-38082385D01*
X161343800Y-38004752D01*
X161333973Y-37999822D01*
X161325100Y-37993343D01*
X161269950Y-37967701D01*
X161215585Y-37940426D01*
X161204994Y-37937500D01*
X161195025Y-37932865D01*
X161185318Y-37929535D01*
X161056404Y-37886312D01*
X161020508Y-37878067D01*
X160985569Y-37866446D01*
X160975546Y-37864242D01*
X160738822Y-37813932D01*
X160738793Y-37813926D01*
X160466874Y-37756136D01*
X160466875Y-37756136D01*
X160048128Y-37667138D01*
X160048129Y-37667138D01*
X159694602Y-37591999D01*
X159694573Y-37591993D01*
X159443083Y-37538541D01*
X159443054Y-37538535D01*
X159043170Y-37453542D01*
X159043112Y-37453529D01*
X158465321Y-37330720D01*
X157521234Y-37130055D01*
X157521228Y-37130054D01*
X156481816Y-36909125D01*
X156481729Y-36909106D01*
X155751259Y-36753840D01*
X155751257Y-36753840D01*
X154993251Y-36592722D01*
X154993222Y-36592716D01*
X154211860Y-36426633D01*
X153006949Y-36170522D01*
X151355194Y-35819430D01*
X151355165Y-35819424D01*
X149686413Y-35464718D01*
X148034626Y-35113618D01*
X146829821Y-34857528D01*
X146829714Y-34857504D01*
X146048352Y-34691421D01*
X146048350Y-34691421D01*
X145290315Y-34530297D01*
X144559845Y-34375033D01*
X144559843Y-34375033D01*
X143861182Y-34226531D01*
X143861180Y-34226531D01*
X143198568Y-34085692D01*
X142576292Y-33953427D01*
X142576243Y-33953416D01*
X141998452Y-33830609D01*
X141998448Y-33830609D01*
X141469538Y-33718191D01*
X141469431Y-33718168D01*
X141108979Y-33641557D01*
X141108975Y-33641557D01*
X140885039Y-33593961D01*
X140885019Y-33593957D01*
X140574667Y-33527997D01*
X140574666Y-33527997D01*
X140574662Y-33527996D01*
X140302776Y-33470213D01*
X140302735Y-33470204D01*
X140205639Y-33449570D01*
X140213189Y-33414109D01*
X140213190Y-33414097D01*
X140213217Y-33413976D01*
X140252953Y-33227187D01*
X140252954Y-33227175D01*
X140252970Y-33227104D01*
X140296702Y-33021410D01*
X140296712Y-33021365D01*
X140346089Y-32789045D01*
X140394876Y-32559519D01*
X140430219Y-32393289D01*
X140470317Y-32204829D01*
X140476660Y-32175047D01*
X140482761Y-32120853D01*
X140491399Y-32067020D01*
X140491957Y-32056773D01*
X140501050Y-31865109D01*
X140499302Y-31830406D01*
X140501062Y-31795710D01*
X140495702Y-31758949D01*
X140493833Y-31721844D01*
X140485379Y-31688146D01*
X140480366Y-31653764D01*
X140477832Y-31643820D01*
X140436075Y-31484602D01*
X140429148Y-31465871D01*
X140424930Y-31446365D01*
X140404323Y-31398747D01*
X140386318Y-31350062D01*
X140375887Y-31333038D01*
X140367959Y-31314717D01*
X140362921Y-31305776D01*
X140289792Y-31178090D01*
X140282464Y-31167780D01*
X140276885Y-31156424D01*
X140240968Y-31109390D01*
X140206694Y-31061164D01*
X140197503Y-31052472D01*
X140189824Y-31042417D01*
X140182778Y-31034957D01*
X140084340Y-30932187D01*
X140074605Y-30923834D01*
X140066341Y-30914040D01*
X140020272Y-30877210D01*
X139975479Y-30838773D01*
X139964310Y-30832471D01*
X139954298Y-30824467D01*
X139945656Y-30818932D01*
X139822583Y-30741307D01*
X139812772Y-30736385D01*
X139803912Y-30729916D01*
X139748762Y-30704274D01*
X139694366Y-30676986D01*
X139683786Y-30674064D01*
X139673837Y-30669438D01*
X139664130Y-30666108D01*
X139535216Y-30622885D01*
X139499324Y-30614641D01*
X139464390Y-30603021D01*
X139454367Y-30600817D01*
X138936001Y-30490645D01*
X138936000Y-30490645D01*
X138508038Y-30399684D01*
X138508030Y-30399683D01*
X138020931Y-30296153D01*
X138020844Y-30296134D01*
X137194616Y-30120522D01*
X137194610Y-30120521D01*
X135917478Y-29849066D01*
X134482383Y-29544034D01*
X132924432Y-29212888D01*
X130438354Y-28684465D01*
X130438325Y-28684459D01*
X127864458Y-28137374D01*
X127864456Y-28137374D01*
X126166089Y-27776382D01*
X124927412Y-27513099D01*
X124927410Y-27513099D01*
X124124400Y-27342419D01*
X124124293Y-27342395D01*
X123345307Y-27176822D01*
X123345303Y-27176822D01*
X122594838Y-27017312D01*
X122594836Y-27017312D01*
X121877276Y-26864796D01*
X121877274Y-26864796D01*
X121197005Y-26720207D01*
X121197001Y-26720207D01*
X120558490Y-26584495D01*
X120558412Y-26584478D01*
X119965891Y-26458543D01*
X119965887Y-26458543D01*
X119423870Y-26343344D01*
X119423821Y-26343333D01*
X118936645Y-26239792D01*
X118936596Y-26239781D01*
X118611764Y-26170745D01*
X118611762Y-26170745D01*
X118413398Y-26128587D01*
X118413397Y-26128587D01*
X118413393Y-26128586D01*
X118231252Y-26089878D01*
X118231203Y-26089867D01*
X118027602Y-26046599D01*
X118027577Y-26046594D01*
X117990166Y-26038645D01*
X117936422Y-26032621D01*
X117883058Y-26024015D01*
X117872811Y-26023448D01*
X117681821Y-26014237D01*
X117646909Y-26015968D01*
X117612019Y-26014190D01*
X117575461Y-26019512D01*
X117538551Y-26021342D01*
X117504648Y-26029819D01*
X117470069Y-26034853D01*
X117460123Y-26037384D01*
X117299410Y-26079493D01*
X117280235Y-26086579D01*
X117260271Y-26090918D01*
X117213110Y-26111386D01*
X117164858Y-26129218D01*
X117147426Y-26139893D01*
X117128682Y-26148028D01*
X117119747Y-26153075D01*
X116992171Y-26226319D01*
X116981838Y-26233679D01*
X116970461Y-26239285D01*
X116923517Y-26275219D01*
X116875332Y-26309539D01*
X116866622Y-26318770D01*
X116856554Y-26326476D01*
X116849101Y-26333531D01*
X116746476Y-26432056D01*
X116738087Y-26441855D01*
X116728240Y-26450187D01*
X116691507Y-26496262D01*
X116653186Y-26541024D01*
X116646860Y-26552266D01*
X116638819Y-26562352D01*
X116633295Y-26571000D01*
X116555847Y-26694163D01*
X116551037Y-26703784D01*
X116544704Y-26712471D01*
X116519010Y-26767842D01*
X116491700Y-26822468D01*
X116488851Y-26832839D01*
X116484325Y-26842592D01*
X116481002Y-26852301D01*
X116438169Y-26980374D01*
X116430018Y-27015983D01*
X116418488Y-27050642D01*
X116416283Y-27060665D01*
X116357243Y-27338392D01*
X116357242Y-27338399D01*
X116314738Y-27538325D01*
X116314728Y-27538371D01*
X116270830Y-27744838D01*
X116270830Y-27744839D01*
X116226480Y-27953432D01*
X116226474Y-27953461D01*
X116182583Y-28159897D01*
X116182574Y-28159937D01*
X116129824Y-28408052D01*
X116129823Y-28408060D01*
X116129820Y-28408074D01*
X116110692Y-28498060D01*
X115741564Y-28419602D01*
X115741448Y-28419577D01*
X115322280Y-28330480D01*
X115322278Y-28330480D01*
X114845773Y-28229196D01*
X114845767Y-28229195D01*
X114038674Y-28057640D01*
X114038645Y-28057634D01*
X112792642Y-27792784D01*
X112792584Y-27792771D01*
X111393626Y-27495406D01*
X109875781Y-27172768D01*
X109875752Y-27172762D01*
X108272937Y-26832063D01*
X106619190Y-26480535D01*
X106619161Y-26480529D01*
X104113018Y-25947810D01*
X100907418Y-25266408D01*
X98109563Y-24671677D01*
X95991274Y-24221400D01*
X95991272Y-24221400D01*
X95317214Y-24078119D01*
X95263453Y-24072088D01*
X95210040Y-24063475D01*
X95199793Y-24062909D01*
X95008874Y-24053703D01*
X94973935Y-24055436D01*
X94939010Y-24053659D01*
X94902481Y-24058980D01*
X94865604Y-24060809D01*
X94831668Y-24069295D01*
X94797061Y-24074336D01*
X94787116Y-24076868D01*
X94626094Y-24119074D01*
X94606858Y-24126185D01*
X94586822Y-24130545D01*
X94539724Y-24151001D01*
X94491546Y-24168811D01*
X94474056Y-24179524D01*
X94455250Y-24187692D01*
X94446316Y-24192742D01*
X94318695Y-24266060D01*
X94308374Y-24273416D01*
X94297012Y-24279018D01*
X94250060Y-24314976D01*
X94201880Y-24349313D01*
X94193185Y-24358532D01*
X94183126Y-24366236D01*
X94175675Y-24373293D01*
X94073027Y-24471889D01*
X94064664Y-24481662D01*
X94054851Y-24489968D01*
X94018113Y-24536063D01*
X93979764Y-24580880D01*
X93973457Y-24592094D01*
X93965446Y-24602146D01*
X93959923Y-24610795D01*
X93882467Y-24734009D01*
X93877678Y-24743592D01*
X93871367Y-24752249D01*
X93845658Y-24807659D01*
X93818338Y-24862323D01*
X93815500Y-24872658D01*
X93810993Y-24882372D01*
X93807670Y-24892082D01*
X93764836Y-25020170D01*
X93756687Y-25055780D01*
X93745157Y-25090439D01*
X93742954Y-25100462D01*
X93660220Y-25489705D01*
X93660220Y-25489706D01*
X93436222Y-26543563D01*
X93160579Y-27840397D01*
X93160579Y-27840398D01*
X92853949Y-29283022D01*
X92616228Y-30401446D01*
X92616228Y-30401448D01*
X92459040Y-31140993D01*
X92459040Y-31140994D01*
X92305725Y-31862320D01*
X92305725Y-31862322D01*
X92158888Y-32553177D01*
X92158865Y-32553284D01*
X92054853Y-33042656D01*
X92054852Y-33042662D01*
X92005059Y-33276932D01*
X92005044Y-33277002D01*
X91894841Y-33795520D01*
X91809876Y-34195291D01*
X91809872Y-34195311D01*
X91757908Y-34439818D01*
X91757908Y-34439819D01*
X91710314Y-34663763D01*
X91710299Y-34663833D01*
X91677712Y-34817171D01*
X91501048Y-34779622D01*
X90656867Y-34600197D01*
X90656838Y-34600191D01*
X89589396Y-34373313D01*
X89589338Y-34373300D01*
X88332898Y-34106249D01*
X87283276Y-33883156D01*
X87283218Y-33883143D01*
X86545528Y-33726348D01*
X86545499Y-33726342D01*
X85390613Y-33480872D01*
X85390605Y-33480871D01*
X83773473Y-33137149D01*
X82104862Y-32782484D01*
X82104804Y-32782471D01*
X80418988Y-32424143D01*
X80418959Y-32424137D01*
X79165338Y-32157672D01*
X79165309Y-32157666D01*
X78341738Y-31982610D01*
X78341709Y-31982604D01*
X77533199Y-31810748D01*
X77533141Y-31810735D01*
X76743893Y-31642971D01*
X75978263Y-31480227D01*
X75978257Y-31480226D01*
X75240577Y-31323421D01*
X75240548Y-31323415D01*
X74709265Y-31210482D01*
X74709264Y-31210482D01*
X74365368Y-31137379D01*
X74365366Y-31137379D01*
X73866082Y-31031246D01*
X73866024Y-31031233D01*
X73392175Y-30930505D01*
X73392171Y-30930505D01*
X73089176Y-30866094D01*
X73089070Y-30866071D01*
X72797504Y-30804091D01*
X72797500Y-30804091D01*
X72518019Y-30744678D01*
X72518015Y-30744678D01*
X72120930Y-30660263D01*
X72120931Y-30660263D01*
X71816526Y-30595549D01*
X71816525Y-30595549D01*
X71531669Y-30534989D01*
X71531583Y-30534970D01*
X71320532Y-30490100D01*
X71320526Y-30490099D01*
X71124835Y-30448494D01*
X71124789Y-30448484D01*
X70944899Y-30410235D01*
X70944870Y-30410229D01*
X70706571Y-30359561D01*
X70652770Y-30353523D01*
X70599363Y-30344910D01*
X70589116Y-30344343D01*
X70398230Y-30335137D01*
X70363522Y-30336858D01*
X70328835Y-30335071D01*
X70292074Y-30340401D01*
X70254960Y-30342242D01*
X70221251Y-30350671D01*
X70186872Y-30355656D01*
X70176926Y-30358181D01*
X70016794Y-30400043D01*
X69997757Y-30407067D01*
X69977936Y-30411354D01*
X69930617Y-30431837D01*
X69882214Y-30449694D01*
X69864904Y-30460281D01*
X69846293Y-30468337D01*
X69837352Y-30473375D01*
X69709693Y-30546503D01*
X69699106Y-30554028D01*
X69687462Y-30559764D01*
X69640740Y-30595516D01*
X69592774Y-30629611D01*
X69583854Y-30639045D01*
X69573541Y-30646937D01*
X69566088Y-30653991D01*
X69462802Y-30753121D01*
X69454131Y-30763247D01*
X69443970Y-30771862D01*
X69407554Y-30817635D01*
X69369496Y-30862075D01*
X69362960Y-30873686D01*
X69354662Y-30884116D01*
X69349147Y-30892771D01*
X69271449Y-31016608D01*
X69266695Y-31026141D01*
X69260428Y-31034751D01*
X69234731Y-31090236D01*
X69207432Y-31144978D01*
X69204620Y-31155253D01*
X69200145Y-31164916D01*
X69196829Y-31174628D01*
X69154303Y-31302093D01*
X69146264Y-31337335D01*
X69134841Y-31371635D01*
X69132634Y-31381657D01*
X69090455Y-31579777D01*
X69090454Y-31579785D01*
X69090440Y-31579849D01*
X69048870Y-31775204D01*
X69048861Y-31775245D01*
X69009569Y-31959948D01*
X69009557Y-31960003D01*
X68973681Y-32128684D01*
X68973679Y-32128695D01*
X68936653Y-32302796D01*
X68936643Y-32302843D01*
X68887829Y-32532431D01*
X68887827Y-32532443D01*
X68843682Y-32740088D01*
X68843677Y-32740111D01*
X68799259Y-32949072D01*
X68799242Y-32949150D01*
X68743867Y-33209660D01*
X68743866Y-33209665D01*
X68743864Y-33209676D01*
X68700199Y-33415119D01*
X68700198Y-33415124D01*
X68657520Y-33615930D01*
X68657519Y-33615936D01*
X68595970Y-33905546D01*
X68595968Y-33905554D01*
X68539341Y-34171995D01*
X68539341Y-34171996D01*
X68518045Y-34272200D01*
X68344839Y-34235380D01*
X68344830Y-34235378D01*
X67807551Y-34121171D01*
X67807473Y-34121154D01*
X67244979Y-34001589D01*
X67244975Y-34001589D01*
X66828197Y-33912998D01*
X66828193Y-33912998D01*
X66142947Y-33767343D01*
X65110714Y-33547934D01*
X65110636Y-33547917D01*
X63958818Y-33303092D01*
X63958816Y-33303092D01*
X62697884Y-33035075D01*
X62697882Y-33035075D01*
X61338224Y-32746075D01*
X59890233Y-32438300D01*
X58364300Y-32113958D01*
X58364298Y-32113958D01*
X55958491Y-31602599D01*
X50824717Y-30511410D01*
X43702564Y-28997589D01*
X38568791Y-27906398D01*
X36162982Y-27395038D01*
X34637080Y-27070704D01*
X34637051Y-27070698D01*
X32485848Y-26613453D01*
X30877234Y-26271535D01*
X30877205Y-26271529D01*
X30273367Y-26143180D01*
X29416679Y-25961086D01*
X29416650Y-25961080D01*
X28384401Y-25741670D01*
X28384343Y-25741657D01*
X27699094Y-25596000D01*
X27699090Y-25596000D01*
X27282401Y-25507429D01*
X27282315Y-25507410D01*
X26719824Y-25387845D01*
X26719816Y-25387844D01*
X26251511Y-25288298D01*
X25985418Y-25231735D01*
X25985412Y-25231734D01*
X25869369Y-25207067D01*
X25815543Y-25201029D01*
X25762086Y-25192416D01*
X25751839Y-25191851D01*
X25560849Y-25182669D01*
X25526155Y-25184395D01*
X25491476Y-25182612D01*
X25454705Y-25187948D01*
X25417579Y-25189795D01*
X25383879Y-25198227D01*
X25349517Y-25203214D01*
X25339570Y-25205741D01*
X25179678Y-25247561D01*
X25160529Y-25254628D01*
X25140585Y-25258952D01*
X25093375Y-25279413D01*
X25045104Y-25297228D01*
X25027696Y-25307878D01*
X25008967Y-25315995D01*
X25000029Y-25321038D01*
X24871633Y-25394667D01*
X24861128Y-25402141D01*
X24849563Y-25407841D01*
X24802777Y-25443658D01*
X24754752Y-25477828D01*
X24745895Y-25487204D01*
X24735661Y-25495039D01*
X24728208Y-25502094D01*
X24625582Y-25600632D01*
X24617288Y-25610321D01*
X24607555Y-25618551D01*
X24570717Y-25664726D01*
X24532299Y-25709606D01*
X24526047Y-25720717D01*
X24518095Y-25730685D01*
X24512568Y-25739332D01*
X24435217Y-25862247D01*
X24430417Y-25871840D01*
X24424096Y-25880503D01*
X24398360Y-25935906D01*
X24371027Y-25990530D01*
X24368183Y-26000869D01*
X24363663Y-26010598D01*
X24360336Y-26020306D01*
X24317406Y-26148490D01*
X24309201Y-26184270D01*
X24297616Y-26219100D01*
X24295413Y-26229123D01*
X24244308Y-26469607D01*
X24244295Y-26469665D01*
X24205671Y-26651414D01*
X24205663Y-26651451D01*
X24163603Y-26849361D01*
X24163602Y-26849367D01*
X24094749Y-27173345D01*
X24094737Y-27173400D01*
X24018030Y-27534321D01*
X23963445Y-27791148D01*
X23963426Y-27791235D01*
X23876555Y-28199962D01*
X23783004Y-28640107D01*
X23783004Y-28640109D01*
X23717715Y-28947288D01*
X23650050Y-29265638D01*
X23650044Y-29265667D01*
X23580108Y-29594701D01*
X23580107Y-29594709D01*
X23471478Y-30105783D01*
X23471459Y-30105870D01*
X23319396Y-30821276D01*
X23319390Y-30821305D01*
X23200518Y-31380555D01*
X23200518Y-31380557D01*
X23119433Y-31762039D01*
X22911345Y-32741009D01*
X22911343Y-32741019D01*
X22562610Y-34381662D01*
X22562604Y-34381691D01*
X22202721Y-36074784D01*
X22202715Y-36074813D01*
X21657304Y-38640720D01*
X21216732Y-40713413D01*
X21216732Y-40713414D01*
X21046553Y-41514036D01*
X21046542Y-41514085D01*
X20800321Y-42672472D01*
X20570359Y-43754368D01*
X20570359Y-43754371D01*
X20426199Y-44432609D01*
X20426188Y-44432658D01*
X20290846Y-45069419D01*
X20290846Y-45069422D01*
X20165277Y-45660214D01*
X20165260Y-45660292D01*
X20078388Y-46069023D01*
X20023783Y-46325939D01*
X20023782Y-46325945D01*
X19972150Y-46568882D01*
X19972139Y-46568931D01*
X19923575Y-46797437D01*
X19923575Y-46797440D01*
X19878205Y-47010921D01*
X19878204Y-47010927D01*
X19826269Y-47255308D01*
X19826266Y-47255320D01*
X19762420Y-47555770D01*
X19762419Y-47555778D01*
X19762418Y-47555783D01*
X19746393Y-47631201D01*
X19740368Y-47684949D01*
X19731759Y-47738347D01*
X19731194Y-47748594D01*
X19721998Y-47939459D01*
X19723720Y-47974155D01*
X19721934Y-48008840D01*
X19727267Y-48045611D01*
X19729109Y-48082730D01*
X19737537Y-48116429D01*
X19742522Y-48150802D01*
X19745048Y-48160748D01*
X19786882Y-48320755D01*
X19793962Y-48339942D01*
X19798292Y-48359917D01*
X19818738Y-48407093D01*
X19836537Y-48455333D01*
X19847202Y-48472770D01*
X19855335Y-48491535D01*
X19860378Y-48500472D01*
X19934007Y-48628868D01*
X19941483Y-48639375D01*
X19947184Y-48650943D01*
X19982999Y-48697726D01*
X20017168Y-48745749D01*
X20026546Y-48754608D01*
X20034383Y-48764844D01*
X20041438Y-48772296D01*
X20139976Y-48874920D01*
X20149718Y-48883259D01*
X20157991Y-48893039D01*
X20204106Y-48929816D01*
X20248950Y-48968202D01*
X20260121Y-48974487D01*
X20270141Y-48982478D01*
X20278789Y-48988003D01*
X20401912Y-49065453D01*
X20411494Y-49070245D01*
X20420137Y-49076550D01*
X20475532Y-49102274D01*
X20530207Y-49129619D01*
X20540532Y-49132458D01*
X20550241Y-49136966D01*
X20559949Y-49140292D01*
X20687925Y-49183133D01*
X20723678Y-49191327D01*
X20758461Y-49202895D01*
X20768484Y-49205099D01*
X21062780Y-49267631D01*
X21062786Y-49267632D01*
X21287596Y-49315404D01*
X21287662Y-49315419D01*
X21470578Y-49354291D01*
X21470583Y-49354292D01*
X21797734Y-49423819D01*
X21797849Y-49423844D01*
X22080071Y-49483824D01*
X22080080Y-49483826D01*
X22302839Y-49531170D01*
X22302844Y-49531171D01*
X22691141Y-49613701D01*
X22691170Y-49613707D01*
X23016975Y-49682955D01*
X23354201Y-49754631D01*
X23354238Y-49754639D01*
X23877313Y-49865821D01*
X23877342Y-49865827D01*
X24970944Y-50098278D01*
X24970954Y-50098279D01*
X26095122Y-50337229D01*
X26838458Y-50495231D01*
X26838460Y-50495231D01*
X27383730Y-50611131D01*
X27383732Y-50611131D01*
X27739346Y-50686718D01*
X27739348Y-50686718D01*
X28086509Y-50760508D01*
X28086558Y-50760519D01*
X28423829Y-50832205D01*
X28423833Y-50832205D01*
X28749636Y-50901453D01*
X28749638Y-50901453D01*
X28985104Y-50951500D01*
X28985109Y-50951501D01*
X29360693Y-51031326D01*
X29360742Y-51031337D01*
X29642962Y-51091318D01*
X29642982Y-51091322D01*
X29907603Y-51147561D01*
X29907644Y-51147570D01*
X30093042Y-51186970D01*
X30093045Y-51186970D01*
X30093048Y-51186971D01*
X30378095Y-51247545D01*
X30378107Y-51247548D01*
X30532484Y-51280352D01*
X30475670Y-51547624D01*
X30475668Y-51547636D01*
X30435335Y-51737392D01*
X30435329Y-51737421D01*
X30322959Y-52266088D01*
X30104127Y-53295626D01*
X29913544Y-54192267D01*
X29913544Y-54192269D01*
X29776802Y-54835607D01*
X29558895Y-55860816D01*
X29246374Y-57331161D01*
X29246374Y-57331163D01*
X28748101Y-59675453D01*
X28060607Y-62909984D01*
X28060601Y-62910013D01*
X27400868Y-66013936D01*
X27400862Y-66013965D01*
X26961577Y-68080709D01*
X26961576Y-68080717D01*
X26704590Y-69289774D01*
X26704577Y-69289832D01*
X26485746Y-70319369D01*
X26485745Y-70319375D01*
X26373385Y-70847989D01*
X26373374Y-70848038D01*
X26333041Y-71037792D01*
X26333035Y-71037821D01*
X26278139Y-71296093D01*
X26276298Y-71304756D01*
X26093070Y-71265804D01*
X26093067Y-71265804D01*
X26093055Y-71265801D01*
X25848924Y-71213907D01*
X25848921Y-71213907D01*
X25848918Y-71213906D01*
X25586170Y-71158057D01*
X25586169Y-71158057D01*
X25586165Y-71158056D01*
X25308275Y-71098991D01*
X25308176Y-71098969D01*
X25018340Y-71037367D01*
X25018336Y-71037367D01*
X24569290Y-70941928D01*
X24569183Y-70941904D01*
X23958970Y-70812212D01*
X23958960Y-70812211D01*
X23509714Y-70716729D01*
X23219798Y-70655112D01*
X23219769Y-70655106D01*
X22941640Y-70595993D01*
X22941639Y-70595993D01*
X22743455Y-70553869D01*
X22743397Y-70553856D01*
X22434369Y-70488171D01*
X22434370Y-70488171D01*
X22266104Y-70452404D01*
X22266103Y-70452404D01*
X22111212Y-70419479D01*
X22056952Y-70413392D01*
X22003059Y-70404775D01*
X21992812Y-70404223D01*
X21801706Y-70395263D01*
X21768041Y-70396977D01*
X21734376Y-70395193D01*
X21696579Y-70400617D01*
X21658445Y-70402559D01*
X21625751Y-70410781D01*
X21592383Y-70415569D01*
X21582433Y-70418080D01*
X21423506Y-70459377D01*
X21416045Y-70462117D01*
X21408232Y-70463523D01*
X21348810Y-70486810D01*
X21288853Y-70508830D01*
X21282070Y-70512965D01*
X21274675Y-70515863D01*
X21265563Y-70520585D01*
X21169406Y-70571283D01*
X21168348Y-70571980D01*
X21167182Y-70572461D01*
X21108638Y-70611351D01*
X21049649Y-70650247D01*
X21048746Y-70651138D01*
X21047696Y-70651835D01*
X21039788Y-70658376D01*
X20930546Y-70750028D01*
X20921929Y-70758827D01*
X20912006Y-70766118D01*
X20871815Y-70809994D01*
X20830175Y-70852509D01*
X20823431Y-70862813D01*
X20815113Y-70871894D01*
X20809010Y-70880145D01*
X20724410Y-70996202D01*
X20716294Y-71009985D01*
X20706184Y-71022380D01*
X20679965Y-71071684D01*
X20651626Y-71119812D01*
X20646341Y-71134911D01*
X20638832Y-71149032D01*
X20634987Y-71158547D01*
X20577781Y-71303007D01*
X20563884Y-71351458D01*
X20547192Y-71399010D01*
X20544824Y-71408995D01*
X20539563Y-71431887D01*
X20539296Y-71433959D01*
X20538642Y-71435946D01*
X20536470Y-71445976D01*
X20486212Y-71686162D01*
X20486210Y-71686173D01*
X20448277Y-71867470D01*
X20448249Y-71867600D01*
X20396002Y-72117319D01*
X20396001Y-72117324D01*
X20396001Y-72117326D01*
X20339326Y-72388221D01*
X20264046Y-72748042D01*
X20264045Y-72748047D01*
X20264045Y-72748049D01*
X20210478Y-73004100D01*
X20210472Y-73004128D01*
X20154116Y-73273509D01*
X20154116Y-73273510D01*
X20095091Y-73555650D01*
X20095090Y-73555655D01*
X20002098Y-74000176D01*
X19869424Y-74634383D01*
X19869401Y-74634491D01*
X19728076Y-75310061D01*
X19728076Y-75310063D01*
X19502693Y-76387469D01*
X19502693Y-76387470D01*
X19261417Y-77540856D01*
X19261417Y-77540858D01*
X19094667Y-78337997D01*
X18923833Y-79154665D01*
X18749839Y-79986438D01*
X18749822Y-79986517D01*
X18484958Y-81252712D01*
X18217835Y-82529703D01*
X18217835Y-82529704D01*
X18040222Y-83378796D01*
X18040216Y-83378824D01*
X17863966Y-84221400D01*
X17689995Y-85053086D01*
X17434738Y-86273376D01*
X17434732Y-86273404D01*
X17190846Y-87439331D01*
X17190846Y-87439333D01*
X17035082Y-88183992D01*
X16886139Y-88896031D01*
X16886139Y-88896033D01*
X16744952Y-89571001D01*
X16744929Y-89571108D01*
X16548353Y-90510880D01*
X16323239Y-91587085D01*
X16145417Y-92437204D01*
X16145417Y-92437205D01*
X16078938Y-92755026D01*
X16073057Y-92809033D01*
X16064618Y-92862674D01*
X16064091Y-92872922D01*
X16055558Y-93065190D01*
X16057419Y-93100017D01*
X16055771Y-93134845D01*
X16061236Y-93171453D01*
X16063212Y-93208432D01*
X16071803Y-93242239D01*
X16076951Y-93276720D01*
X16079518Y-93286656D01*
X16121737Y-93445429D01*
X16128872Y-93464521D01*
X16133267Y-93484413D01*
X16153923Y-93531557D01*
X16171951Y-93579800D01*
X16182659Y-93597145D01*
X16190834Y-93615802D01*
X16195912Y-93624720D01*
X16270366Y-93753366D01*
X16278151Y-93764217D01*
X16284117Y-93776163D01*
X16319902Y-93822405D01*
X16353992Y-93869915D01*
X16363736Y-93879047D01*
X16371909Y-93889607D01*
X16379004Y-93897022D01*
X16478562Y-93999630D01*
X16488662Y-94008185D01*
X16497273Y-94018234D01*
X16543301Y-94054464D01*
X16588021Y-94092342D01*
X16599594Y-94098774D01*
X16609990Y-94106957D01*
X16618673Y-94112427D01*
X16742975Y-94189520D01*
X16751573Y-94193752D01*
X16759331Y-94199372D01*
X16815831Y-94225381D01*
X16871675Y-94252869D01*
X16880935Y-94255351D01*
X16889634Y-94259356D01*
X16899354Y-94262650D01*
X17023885Y-94303880D01*
X17058497Y-94311692D01*
X17092160Y-94322885D01*
X17102183Y-94325088D01*
X17336502Y-94374860D01*
X17336505Y-94374860D01*
X17660790Y-94443755D01*
X17919351Y-94498690D01*
X17919368Y-94498694D01*
X18192768Y-94556785D01*
X18192825Y-94556798D01*
X18370193Y-94594485D01*
X18370199Y-94594486D01*
X18550673Y-94632837D01*
X18550751Y-94632854D01*
X18734345Y-94671868D01*
X18734352Y-94671869D01*
X19069323Y-94743056D01*
X19069389Y-94743070D01*
X19369283Y-94806805D01*
X19369320Y-94806813D01*
X19593238Y-94854403D01*
X19593247Y-94854405D01*
X19851463Y-94909286D01*
X19851480Y-94909290D01*
X20032882Y-94947848D01*
X20032891Y-94947849D01*
X20315259Y-95007872D01*
X20315326Y-95007887D01*
X20485684Y-95044102D01*
X20485689Y-95044103D01*
X20714808Y-95092812D01*
X20714815Y-95092813D01*
X20930394Y-95138649D01*
X20930396Y-95138649D01*
X21184827Y-95192753D01*
X21184890Y-95192767D01*
X21197835Y-95195520D01*
X21176775Y-95294625D01*
X21176756Y-95294711D01*
X21118369Y-95569464D01*
X21028363Y-95992994D01*
X20925970Y-96474795D01*
X20812108Y-97010551D01*
X20719427Y-97446631D01*
X20654754Y-97750930D01*
X20553664Y-98226577D01*
X20553645Y-98226663D01*
X20410881Y-98898385D01*
X20260322Y-99606767D01*
X20260316Y-99606796D01*
X20102869Y-100347580D01*
X20102868Y-100347586D01*
X19856376Y-101507314D01*
X19856375Y-101507320D01*
X19511215Y-103131260D01*
X19511202Y-103131318D01*
X19244519Y-104386011D01*
X19244519Y-104386012D01*
X19065049Y-105230388D01*
X19065048Y-105230394D01*
X18930114Y-105865228D01*
X18930101Y-105865286D01*
X18840192Y-106288284D01*
X18840192Y-106288285D01*
X18705658Y-106921237D01*
X18705645Y-106921295D01*
X18438956Y-108175989D01*
X18179160Y-109398251D01*
X18179147Y-109398309D01*
X18010686Y-110190859D01*
X18010680Y-110190888D01*
X17847258Y-110959729D01*
X17847258Y-110959730D01*
X17689801Y-111700512D01*
X17465767Y-112754495D01*
X17295315Y-113556381D01*
X17295314Y-113556389D01*
X17230633Y-113860679D01*
X17137951Y-114296700D01*
X17137938Y-114296758D01*
X17024066Y-114832458D01*
X17024053Y-114832516D01*
X16921636Y-115314322D01*
X16921635Y-115314328D01*
X16831606Y-115737851D01*
X16754892Y-116098723D01*
X16754875Y-116098802D01*
X16722398Y-116251581D01*
X16716273Y-116306178D01*
X16707652Y-116360419D01*
X16707109Y-116370667D01*
X16698282Y-116562745D01*
X16700047Y-116596777D01*
X16698309Y-116630797D01*
X16703752Y-116668216D01*
X16705711Y-116706000D01*
X16714053Y-116739042D01*
X16718956Y-116772751D01*
X16721486Y-116782696D01*
X16763028Y-116941321D01*
X16765529Y-116948090D01*
X16766805Y-116955187D01*
X16790350Y-117015280D01*
X16812737Y-117075879D01*
X16816506Y-117082035D01*
X16819136Y-117088748D01*
X16823858Y-117097859D01*
X16873864Y-117192720D01*
X16874235Y-117193282D01*
X16874488Y-117193900D01*
X16913643Y-117253058D01*
X16952820Y-117312482D01*
X16953290Y-117312959D01*
X16953661Y-117313519D01*
X16960189Y-117321438D01*
X17051414Y-117430542D01*
X17060148Y-117439125D01*
X17067374Y-117448997D01*
X17111225Y-117489318D01*
X17153728Y-117531085D01*
X17163956Y-117537804D01*
X17172968Y-117546090D01*
X17181207Y-117552208D01*
X17297874Y-117637589D01*
X17312179Y-117646048D01*
X17325055Y-117656555D01*
X17373805Y-117682491D01*
X17421347Y-117710605D01*
X17437026Y-117716126D01*
X17451695Y-117723930D01*
X17461209Y-117727777D01*
X17605753Y-117785047D01*
X17653841Y-117798849D01*
X17701037Y-117815479D01*
X17711019Y-117817859D01*
X17732078Y-117822725D01*
X17733399Y-117822897D01*
X17734659Y-117823316D01*
X17744682Y-117825521D01*
X17996831Y-117879137D01*
X17996833Y-117879137D01*
X17996841Y-117879139D01*
X18280360Y-117939421D01*
X18280401Y-117939430D01*
X18463971Y-117978459D01*
X18463991Y-117978463D01*
X18720088Y-118032910D01*
X18720096Y-118032911D01*
X18720101Y-118032912D01*
X18885927Y-118068165D01*
X18885937Y-118068166D01*
X19089319Y-118111402D01*
X19089324Y-118111403D01*
X19261632Y-118148032D01*
X19261646Y-118148035D01*
X19610775Y-118222245D01*
X19610903Y-118222273D01*
X19821331Y-118266999D01*
X19821335Y-118266999D01*
X19821342Y-118267001D01*
X20100121Y-118326250D01*
X20100133Y-118326253D01*
X20374019Y-118384459D01*
X20374033Y-118384462D01*
X20639860Y-118440950D01*
X20639892Y-118440957D01*
X20863330Y-118488433D01*
X20863336Y-118488434D01*
X20863351Y-118488437D01*
X21134894Y-118546126D01*
X21134930Y-118546134D01*
X21357778Y-118593469D01*
X21357814Y-118593477D01*
X21560051Y-118636426D01*
X21560057Y-118636427D01*
X21560086Y-118636433D01*
X21582859Y-118641268D01*
X21583160Y-119117767D01*
X21583160Y-119117768D01*
X21583401Y-119498409D01*
X21583578Y-119777966D01*
X21583867Y-120234411D01*
X21585005Y-122035651D01*
X21587376Y-125794492D01*
X21590143Y-130178679D01*
X21591960Y-133054729D01*
X21592685Y-134203544D01*
X21592685Y-134203545D01*
X21593766Y-135911161D01*
X21595164Y-138119953D01*
X21596160Y-139693828D01*
X21596160Y-139693831D01*
X21596798Y-140696746D01*
X21597405Y-141653157D01*
X21597405Y-141653159D01*
X21597980Y-142556722D01*
X21598518Y-143401099D01*
X21598518Y-143401101D01*
X21599016Y-144179951D01*
X21599016Y-144179952D01*
X21599469Y-144886934D01*
X21599774Y-145363602D01*
X21599774Y-145363610D01*
X21599965Y-145657256D01*
X21600141Y-145929371D01*
X21600141Y-145929373D01*
X21600341Y-146237299D01*
X21600341Y-146237305D01*
X21600585Y-146608601D01*
X21600585Y-146608610D01*
X21600646Y-146699731D01*
X21605546Y-146749358D01*
X21607471Y-146799164D01*
X21608936Y-146809321D01*
X21635501Y-146984691D01*
X21641863Y-147009807D01*
X21645040Y-147035513D01*
X21659432Y-147079169D01*
X21670723Y-147123746D01*
X21681843Y-147147150D01*
X21689952Y-147171748D01*
X21694165Y-147181106D01*
X21757321Y-147318761D01*
X21764655Y-147331339D01*
X21769942Y-147344894D01*
X21800719Y-147393191D01*
X21829576Y-147442681D01*
X21839209Y-147453590D01*
X21847032Y-147465866D01*
X21853422Y-147473896D01*
X21943008Y-147584890D01*
X21951031Y-147593053D01*
X21957611Y-147602419D01*
X22001239Y-147644131D01*
X22043565Y-147687190D01*
X22053025Y-147693641D01*
X22061295Y-147701548D01*
X22069413Y-147707826D01*
X22183003Y-147794401D01*
X22196367Y-147802659D01*
X22208318Y-147812856D01*
X22257285Y-147840303D01*
X22305031Y-147869807D01*
X22319743Y-147875312D01*
X22333449Y-147882994D01*
X22342877Y-147887049D01*
X22485123Y-147947052D01*
X22504884Y-147953196D01*
X22523589Y-147962019D01*
X22573229Y-147974445D01*
X22622102Y-147989640D01*
X22642671Y-147991828D01*
X22662742Y-147996852D01*
X22672903Y-147998290D01*
X22829026Y-148019269D01*
X22872448Y-148020826D01*
X22915613Y-148025729D01*
X22925875Y-148025815D01*
X23412843Y-148026502D01*
X23412845Y-148026502D01*
X24031147Y-148027373D01*
X24031149Y-148027373D01*
X24792992Y-148028444D01*
X25364574Y-148029247D01*
X26313519Y-148030579D01*
X26313521Y-148030579D01*
X27759611Y-148032606D01*
X27759613Y-148032606D01*
X29387860Y-148034886D01*
X31182426Y-148037398D01*
X33127473Y-148040120D01*
X33127474Y-148040120D01*
X36278691Y-148044526D01*
X36278692Y-148044526D01*
X40881625Y-148050958D01*
X40881626Y-148050958D01*
X45801416Y-148057832D01*
X50911367Y-148064971D01*
X58671513Y-148075810D01*
X66115201Y-148086208D01*
X70718817Y-148092642D01*
X70718818Y-148092642D01*
X73870703Y-148097048D01*
X75816261Y-148099769D01*
X77611394Y-148102280D01*
X78843935Y-148104005D01*
X79613837Y-148105083D01*
X80337224Y-148106096D01*
X81012116Y-148107042D01*
X81636535Y-148107918D01*
X82208500Y-148108721D01*
X82970944Y-148109793D01*
X83589877Y-148110664D01*
X83589878Y-148110664D01*
X83932225Y-148111148D01*
X83932227Y-148111148D01*
X84077509Y-148111355D01*
X84127279Y-148106547D01*
X84177238Y-148104701D01*
X84187398Y-148103252D01*
X84362514Y-148077031D01*
X84387342Y-148070787D01*
X84412749Y-148067713D01*
X84456735Y-148053337D01*
X84501629Y-148042047D01*
X84524770Y-148031100D01*
X84549098Y-148023149D01*
X84558466Y-148018959D01*
X84696587Y-147956015D01*
X84707336Y-147949784D01*
X84718938Y-147945370D01*
X84769286Y-147913873D01*
X84820690Y-147884076D01*
X84830019Y-147875880D01*
X84840549Y-147869293D01*
X84848633Y-147862971D01*
X84954640Y-147778862D01*
X84961430Y-147772299D01*
X84969226Y-147766981D01*
X85012928Y-147722515D01*
X85057775Y-147679162D01*
X85063160Y-147671406D01*
X85069776Y-147664674D01*
X85076166Y-147656644D01*
X85164545Y-147543945D01*
X85172781Y-147531019D01*
X85182898Y-147519512D01*
X85211249Y-147470647D01*
X85241628Y-147422969D01*
X85247198Y-147408685D01*
X85254885Y-147395436D01*
X85259080Y-147386070D01*
X85320401Y-147246521D01*
X85327532Y-147224733D01*
X85337490Y-147204092D01*
X85349791Y-147156718D01*
X85365018Y-147110190D01*
X85367780Y-147087435D01*
X85373541Y-147065249D01*
X85375068Y-147055101D01*
X85398955Y-146888420D01*
X85401059Y-146841284D01*
X85406316Y-146794415D01*
X85406388Y-146784153D01*
X85406388Y-142145734D01*
X85446245Y-142154249D01*
X85446303Y-142154262D01*
X85962309Y-142264501D01*
X85962318Y-142264503D01*
X86921534Y-142469436D01*
X87920764Y-142682919D01*
X87920793Y-142682925D01*
X88356716Y-142776058D01*
X88356774Y-142776071D01*
X89052126Y-142924634D01*
X90063492Y-143140714D01*
X90063521Y-143140720D01*
X91163500Y-143375733D01*
X92961926Y-143759972D01*
X95651366Y-144334580D01*
X95651395Y-144334586D01*
X98632198Y-144971447D01*
X98632227Y-144971453D01*
X101876442Y-145664596D01*
X101876450Y-145664597D01*
X105356050Y-146408032D01*
X109043073Y-147195785D01*
X109043081Y-147195786D01*
X114884110Y-148443756D01*
X123166830Y-150213411D01*
X123166832Y-150213411D01*
X131775502Y-152052708D01*
X144839168Y-154843846D01*
X144839170Y-154843846D01*
X157318535Y-157510144D01*
X157318537Y-157510144D01*
X164992329Y-159149700D01*
X164992331Y-159149700D01*
X171872735Y-160619740D01*
X177735779Y-161872412D01*
X177735886Y-161872436D01*
X180730359Y-162512220D01*
X181799550Y-162740657D01*
X181799552Y-162740657D01*
X182778899Y-162949898D01*
X182778928Y-162949904D01*
X183664996Y-163139216D01*
X183664998Y-163139216D01*
X184824246Y-163386893D01*
X184824248Y-163386893D01*
X185994468Y-163636912D01*
X185994545Y-163636929D01*
X186399107Y-163723362D01*
X186453122Y-163729478D01*
X186506775Y-163738149D01*
X186517021Y-163738719D01*
X186708320Y-163748009D01*
X186742625Y-163746319D01*
X186776906Y-163748135D01*
X186814077Y-163742800D01*
X186851593Y-163740952D01*
X186884907Y-163732634D01*
X186918898Y-163727755D01*
X186928848Y-163725243D01*
X187088944Y-163683636D01*
X187096282Y-163680941D01*
X187103970Y-163679560D01*
X187163523Y-163656243D01*
X187223595Y-163634179D01*
X187230268Y-163630111D01*
X187237544Y-163627262D01*
X187246656Y-163622543D01*
X187341139Y-163572766D01*
X187341558Y-163572490D01*
X187342012Y-163572304D01*
X187400975Y-163533338D01*
X187460920Y-163493839D01*
X187461275Y-163493490D01*
X187461687Y-163493217D01*
X187469611Y-163486695D01*
X187578769Y-163395558D01*
X187587217Y-163386973D01*
X187596945Y-163379872D01*
X187637457Y-163335923D01*
X187679386Y-163293317D01*
X187686006Y-163283255D01*
X187694169Y-163274399D01*
X187700298Y-163266168D01*
X187785257Y-163150380D01*
X187793778Y-163136012D01*
X187804349Y-163123084D01*
X187830299Y-163074429D01*
X187858427Y-163026998D01*
X187863993Y-163011252D01*
X187871854Y-162996514D01*
X187875711Y-162987004D01*
X187933663Y-162841175D01*
X187947618Y-162792740D01*
X187964364Y-162745221D01*
X187966745Y-162735239D01*
X187971611Y-162714184D01*
X187971787Y-162712832D01*
X187972217Y-162711539D01*
X187974421Y-162701516D01*
X188084738Y-162182586D01*
X188084739Y-162182580D01*
X188175798Y-161754226D01*
X188175815Y-161754147D01*
X188279494Y-161266419D01*
X188279494Y-161266417D01*
X188394843Y-160723785D01*
X188394843Y-160723783D01*
X188520929Y-160130638D01*
X188520929Y-160130636D01*
X188656816Y-159491375D01*
X188656816Y-159491373D01*
X188801572Y-158810386D01*
X188801572Y-158810382D01*
X188915623Y-158273838D01*
X188915623Y-158273836D01*
X188974113Y-157998675D01*
X188974130Y-157998597D01*
X189013637Y-157812736D01*
X189013637Y-157812732D01*
X189113955Y-157340799D01*
X189113956Y-157340793D01*
X189191200Y-156977398D01*
X189251954Y-157282829D01*
X189380858Y-157594029D01*
X189567996Y-157874101D01*
X189806179Y-158112284D01*
X190086251Y-158299422D01*
X190397451Y-158428326D01*
X190727820Y-158494040D01*
X191064660Y-158494040D01*
X191395029Y-158428326D01*
X191706229Y-158299422D01*
X191986301Y-158112284D01*
X192224484Y-157874101D01*
X192411622Y-157594029D01*
X192540526Y-157282829D01*
X192606240Y-156952460D01*
X192606240Y-156620700D01*
X197471720Y-156620700D01*
X197471720Y-156957540D01*
X197537434Y-157287909D01*
X197666338Y-157599109D01*
X197853476Y-157879181D01*
X198091659Y-158117364D01*
X198371731Y-158304502D01*
X198682931Y-158433406D01*
X199013300Y-158499120D01*
X199350140Y-158499120D01*
X199680509Y-158433406D01*
X199991709Y-158304502D01*
X200271781Y-158117364D01*
X200509964Y-157879181D01*
X200697102Y-157599109D01*
X200826006Y-157287909D01*
X200891720Y-156957540D01*
X200891720Y-156620700D01*
X200826006Y-156290331D01*
X200697102Y-155979131D01*
X200509964Y-155699059D01*
X200271781Y-155460876D01*
X199991709Y-155273738D01*
X199680509Y-155144834D01*
X199350140Y-155079120D01*
X199013300Y-155079120D01*
X198682931Y-155144834D01*
X198371731Y-155273738D01*
X198091659Y-155460876D01*
X197853476Y-155699059D01*
X197666338Y-155979131D01*
X197537434Y-156290331D01*
X197471720Y-156620700D01*
X192606240Y-156620700D01*
X192606240Y-156615620D01*
X192540526Y-156285251D01*
X192411622Y-155974051D01*
X192224484Y-155693979D01*
X191986301Y-155455796D01*
X191706229Y-155268658D01*
X191395029Y-155139754D01*
X191064660Y-155074040D01*
X190727820Y-155074040D01*
X190397451Y-155139754D01*
X190086251Y-155268658D01*
X189806179Y-155455796D01*
X189567996Y-155693979D01*
X189415495Y-155922212D01*
X189893014Y-153675732D01*
X190623254Y-150240303D01*
X191323603Y-146945498D01*
X191789102Y-144755562D01*
X191789102Y-144755560D01*
X191995238Y-143785796D01*
X191995239Y-143785790D01*
X192121302Y-143192734D01*
X192291492Y-142392099D01*
X192291493Y-142392093D01*
X192431315Y-141734323D01*
X192431334Y-141734237D01*
X192508846Y-141369605D01*
X192541610Y-141215487D01*
X192547676Y-141161423D01*
X192556292Y-141107727D01*
X192556850Y-141097480D01*
X192565943Y-140905816D01*
X192564195Y-140871113D01*
X192565955Y-140836417D01*
X192560595Y-140799656D01*
X192558726Y-140762551D01*
X192550272Y-140728853D01*
X192545259Y-140694471D01*
X192542725Y-140684527D01*
X192500968Y-140525309D01*
X192494042Y-140506581D01*
X192489824Y-140487074D01*
X192469215Y-140439452D01*
X192451211Y-140390769D01*
X192440781Y-140373746D01*
X192432853Y-140355426D01*
X192427816Y-140346485D01*
X192354686Y-140218798D01*
X192347358Y-140208487D01*
X192341778Y-140197130D01*
X192305869Y-140150107D01*
X192271589Y-140101871D01*
X192262394Y-140093176D01*
X192254717Y-140083123D01*
X192247671Y-140075663D01*
X192149233Y-139972893D01*
X192139498Y-139964540D01*
X192131234Y-139954746D01*
X192085165Y-139917916D01*
X192040372Y-139879479D01*
X192029203Y-139873177D01*
X192019191Y-139865173D01*
X192010549Y-139859638D01*
X191887476Y-139782013D01*
X191877665Y-139777091D01*
X191868805Y-139770622D01*
X191813655Y-139744980D01*
X191759259Y-139717692D01*
X191748679Y-139714770D01*
X191738730Y-139710144D01*
X191729023Y-139706814D01*
X191600109Y-139663591D01*
X191564249Y-139655355D01*
X191529339Y-139643739D01*
X191519316Y-139641535D01*
X191238909Y-139581915D01*
X191238908Y-139581915D01*
X191238895Y-139581912D01*
X190919141Y-139513933D01*
X190919092Y-139513922D01*
X190638955Y-139454367D01*
X190638954Y-139454367D01*
X190638950Y-139454366D01*
X190341860Y-139391209D01*
X190341859Y-139391209D01*
X190341855Y-139391208D01*
X190031639Y-139325262D01*
X190031569Y-139325247D01*
X189711866Y-139257288D01*
X189711858Y-139257287D01*
X189508889Y-139214142D01*
X189508799Y-139214122D01*
X189304682Y-139170736D01*
X189059256Y-139118569D01*
X189059236Y-139118565D01*
X188733852Y-139049405D01*
X188733844Y-139049404D01*
X188493568Y-138998335D01*
X188493567Y-138998335D01*
X188493563Y-138998334D01*
X188180632Y-138931824D01*
X188180623Y-138931823D01*
X187880026Y-138867939D01*
X187879907Y-138867913D01*
X187526307Y-138792770D01*
X187526295Y-138792768D01*
X187330221Y-138751104D01*
X187330212Y-138751102D01*
X187117748Y-138705958D01*
X187117745Y-138705958D01*
X187117724Y-138705953D01*
X187065714Y-138694904D01*
X187110202Y-138487985D01*
X187317537Y-137523658D01*
X187590582Y-136253715D01*
X187590583Y-136253705D01*
X187924776Y-134699369D01*
X188524527Y-131909919D01*
X189505079Y-127349366D01*
X191231369Y-119320386D01*
X191279956Y-119393101D01*
X191518139Y-119631284D01*
X191798211Y-119818422D01*
X192109411Y-119947326D01*
X192439780Y-120013040D01*
X192776620Y-120013040D01*
X193106989Y-119947326D01*
X193418189Y-119818422D01*
X193698261Y-119631284D01*
X193936444Y-119393101D01*
X194123582Y-119113029D01*
X194252486Y-118801829D01*
X194318200Y-118471460D01*
X194318200Y-118134620D01*
X194252486Y-117804251D01*
X194123582Y-117493051D01*
X193936444Y-117212979D01*
X193698261Y-116974796D01*
X193418189Y-116787658D01*
X193106989Y-116658754D01*
X192776620Y-116593040D01*
X192439780Y-116593040D01*
X192109411Y-116658754D01*
X191798211Y-116787658D01*
X191772185Y-116805048D01*
X193384020Y-109308398D01*
X193449116Y-109405821D01*
X193687299Y-109644004D01*
X193967371Y-109831142D01*
X194278571Y-109960046D01*
X194608940Y-110025760D01*
X194945780Y-110025760D01*
X195276149Y-109960046D01*
X195587349Y-109831142D01*
X195867421Y-109644004D01*
X196105604Y-109405821D01*
X196292742Y-109125749D01*
X196421646Y-108814549D01*
X196487360Y-108484180D01*
X196487360Y-108147340D01*
X196421646Y-107816971D01*
X196292742Y-107505771D01*
X196105604Y-107225699D01*
X195867421Y-106987516D01*
X195587349Y-106800378D01*
X195276149Y-106671474D01*
X194945780Y-106605760D01*
X194608940Y-106605760D01*
X194278571Y-106671474D01*
X193967371Y-106800378D01*
X193915863Y-106834795D01*
X193972888Y-106569569D01*
X196115563Y-96603966D01*
X196707207Y-93852220D01*
X197471720Y-93852220D01*
X197471720Y-94189060D01*
X197537434Y-94519429D01*
X197666338Y-94830629D01*
X197853476Y-95110701D01*
X198091659Y-95348884D01*
X198371731Y-95536022D01*
X198682931Y-95664926D01*
X199013300Y-95730640D01*
X199350140Y-95730640D01*
X199680509Y-95664926D01*
X199991709Y-95536022D01*
X200271781Y-95348884D01*
X200509964Y-95110701D01*
X200697102Y-94830629D01*
X200826006Y-94519429D01*
X200891720Y-94189060D01*
X200891720Y-93852220D01*
X200826006Y-93521851D01*
X200697102Y-93210651D01*
X200509964Y-92930579D01*
X200271781Y-92692396D01*
X199991709Y-92505258D01*
X199680509Y-92376354D01*
X199350140Y-92310640D01*
X199013300Y-92310640D01*
X198682931Y-92376354D01*
X198371731Y-92505258D01*
X198091659Y-92692396D01*
X197853476Y-92930579D01*
X197666338Y-93210651D01*
X197537434Y-93521851D01*
X197471720Y-93852220D01*
X196707207Y-93852220D01*
X197523790Y-90054280D01*
X197523791Y-90054270D01*
X198875560Y-83767167D01*
X198875590Y-83767032D01*
X199826700Y-79343389D01*
X199826700Y-79343387D01*
X200426070Y-76555689D01*
X200990810Y-73929057D01*
X201516357Y-71484704D01*
X201516357Y-71484702D01*
X201998150Y-69243844D01*
X202326422Y-67717021D01*
X202530228Y-66769099D01*
X202530228Y-66769097D01*
X202812234Y-65457457D01*
X202812234Y-65457453D01*
X203058342Y-64312768D01*
X203204689Y-63632082D01*
X203204713Y-63631976D01*
X203335284Y-63024662D01*
X203335299Y-63024595D01*
X203449530Y-62493278D01*
X203449530Y-62493274D01*
X203546837Y-62040675D01*
X203546838Y-62040667D01*
X203626649Y-61669442D01*
X203634823Y-61631423D01*
X204370000Y-61631423D01*
X204370000Y-153230968D01*
X204368208Y-153434162D01*
X204363500Y-153617154D01*
X204355613Y-153804255D01*
X204344967Y-153985868D01*
X204331792Y-154162274D01*
X204315874Y-154337978D01*
X204297787Y-154508079D01*
X204274774Y-154695600D01*
X204250671Y-154868598D01*
X204225336Y-155032052D01*
X204197618Y-155194792D01*
X204167508Y-155356935D01*
X204136009Y-155513681D01*
X204102266Y-155669848D01*
X204066388Y-155825005D01*
X204027217Y-155983783D01*
X203988132Y-156132928D01*
X203944548Y-156289986D01*
X203901320Y-156437500D01*
X203856049Y-156584363D01*
X203810181Y-156726200D01*
X203762425Y-156867324D01*
X203712924Y-157007354D01*
X203659966Y-157150880D01*
X203606786Y-157289160D01*
X203551741Y-157426744D01*
X203494920Y-157563420D01*
X203438084Y-157695184D01*
X203379562Y-157826157D01*
X203319471Y-157956084D01*
X203253880Y-158093072D01*
X203190535Y-158220971D01*
X203121497Y-158355825D01*
X203050703Y-158489570D01*
X202982425Y-158614526D01*
X202908158Y-158746267D01*
X202836604Y-158869357D01*
X202763449Y-158991571D01*
X202691059Y-159109105D01*
X202614959Y-159229242D01*
X202534932Y-159352029D01*
X202458213Y-159466513D01*
X202380123Y-159579977D01*
X202295582Y-159699518D01*
X202214677Y-159810888D01*
X202132391Y-159921262D01*
X202048901Y-160030412D01*
X201953245Y-160152133D01*
X201866957Y-160259027D01*
X201776679Y-160368044D01*
X201676386Y-160485943D01*
X201588893Y-160586151D01*
X201500058Y-160685481D01*
X201409991Y-160783799D01*
X201318785Y-160881011D01*
X201226618Y-160976927D01*
X201117944Y-161087156D01*
X201023396Y-161180617D01*
X200927494Y-161273184D01*
X200830564Y-161364533D01*
X200722973Y-161463424D01*
X200623796Y-161552322D01*
X200523444Y-161640137D01*
X200422094Y-161726712D01*
X200316330Y-161814863D01*
X200212902Y-161898960D01*
X200105118Y-161984446D01*
X199989422Y-162073837D01*
X199876053Y-162159118D01*
X199761641Y-162242922D01*
X199645997Y-162325388D01*
X199529299Y-162406384D01*
X199411521Y-162485919D01*
X199296294Y-162561637D01*
X199180154Y-162635909D01*
X199051922Y-162715588D01*
X198930079Y-162789086D01*
X198807100Y-162861134D01*
X198686918Y-162929516D01*
X198565729Y-162996484D01*
X198443750Y-163061908D01*
X198313071Y-163129846D01*
X198185504Y-163194056D01*
X198056829Y-163256752D01*
X197927205Y-163317846D01*
X197796819Y-163377245D01*
X197665487Y-163435028D01*
X197533443Y-163491085D01*
X197388207Y-163550423D01*
X197250458Y-163604494D01*
X197107550Y-163658353D01*
X196963876Y-163710237D01*
X196815077Y-163761615D01*
X196665357Y-163810930D01*
X196519118Y-163856817D01*
X196363192Y-163903297D01*
X196215068Y-163945146D01*
X196066008Y-163985018D01*
X195916347Y-164022806D01*
X195748465Y-164062561D01*
X195588610Y-164097853D01*
X195423258Y-164131753D01*
X195261649Y-164162356D01*
X195099165Y-164190622D01*
X194922442Y-164218549D01*
X194758402Y-164241864D01*
X194589068Y-164263319D01*
X194414331Y-164282703D01*
X194239132Y-164299340D01*
X194053737Y-164313924D01*
X193876915Y-164324956D01*
X193694543Y-164333405D01*
X193511528Y-164338909D01*
X193321084Y-164341510D01*
X193261574Y-164341671D01*
X179812147Y-164341671D01*
X179614191Y-164340820D01*
X179421916Y-164338370D01*
X179228299Y-164334277D01*
X179039113Y-164328697D01*
X178843907Y-164321300D01*
X178658153Y-164312720D01*
X178471332Y-164302564D01*
X178282209Y-164290727D01*
X178093202Y-164277331D01*
X177913447Y-164263133D01*
X177731617Y-164247324D01*
X177551985Y-164230275D01*
X177374824Y-164212060D01*
X177195539Y-164192212D01*
X177015341Y-164170821D01*
X176839756Y-164148587D01*
X176665437Y-164125149D01*
X176491350Y-164100383D01*
X176319605Y-164074616D01*
X176150149Y-164047884D01*
X175981007Y-164019907D01*
X175812264Y-163990698D01*
X175643406Y-163960169D01*
X175477064Y-163928815D01*
X175305857Y-163895220D01*
X175221430Y-163878157D01*
X174959837Y-163824792D01*
X174959781Y-163824780D01*
X174685531Y-163768832D01*
X174685529Y-163768832D01*
X174103241Y-163650044D01*
X174103158Y-163650026D01*
X173253927Y-163476778D01*
X173253921Y-163476777D01*
X172330628Y-163288418D01*
X172330600Y-163288412D01*
X171338687Y-163086052D01*
X171338659Y-163086046D01*
X170283652Y-162870813D01*
X170283596Y-162870801D01*
X169171035Y-162643824D01*
X169170899Y-162643795D01*
X168006057Y-162406151D01*
X168006049Y-162406150D01*
X166794589Y-162158993D01*
X166794561Y-162158987D01*
X165541894Y-161903422D01*
X164253550Y-161640577D01*
X162935047Y-161371579D01*
X162935019Y-161371573D01*
X161591787Y-161097527D01*
X160229343Y-160819561D01*
X158853177Y-160538795D01*
X158853169Y-160538794D01*
X157468777Y-160256348D01*
X157468769Y-160256347D01*
X156081662Y-159973347D01*
X156081634Y-159973341D01*
X154697234Y-159690891D01*
X153321067Y-159410121D01*
X151958624Y-159132150D01*
X149949263Y-158722191D01*
X148008514Y-158326228D01*
X146755906Y-158070664D01*
X146755851Y-158070652D01*
X144949581Y-157702122D01*
X144949573Y-157702121D01*
X143266841Y-157358794D01*
X143266813Y-157358788D01*
X142211749Y-157143522D01*
X141219866Y-156941146D01*
X141219810Y-156941134D01*
X140296480Y-156752743D01*
X140296474Y-156752742D01*
X139447280Y-156579476D01*
X139447252Y-156579470D01*
X138677614Y-156422435D01*
X138328014Y-156351104D01*
X138327874Y-156351089D01*
X138325307Y-156350557D01*
X138147143Y-156314901D01*
X138146956Y-156314882D01*
X138141697Y-156313833D01*
X137970164Y-156280850D01*
X137969981Y-156280833D01*
X137964848Y-156279848D01*
X137794250Y-156248345D01*
X137794062Y-156248329D01*
X137788951Y-156247387D01*
X137618149Y-156217139D01*
X137617971Y-156217125D01*
X137612787Y-156216209D01*
X137438347Y-156186647D01*
X137438156Y-156186634D01*
X137432957Y-156185755D01*
X137260617Y-156157865D01*
X137260435Y-156157854D01*
X137255195Y-156157008D01*
X137078073Y-156129700D01*
X137077890Y-156129690D01*
X137072591Y-156128876D01*
X136896433Y-156103075D01*
X136896247Y-156103066D01*
X136890891Y-156102285D01*
X136709945Y-156077189D01*
X136709764Y-156077182D01*
X136704109Y-156076403D01*
X136510294Y-156051103D01*
X136510107Y-156051097D01*
X136504505Y-156050371D01*
X136324356Y-156028308D01*
X136324176Y-156028304D01*
X136318575Y-156027623D01*
X136126709Y-156005666D01*
X136126523Y-156005663D01*
X136120914Y-156005026D01*
X135939296Y-155985700D01*
X135939109Y-155985698D01*
X135933576Y-155985114D01*
X135747179Y-155966753D01*
X135746990Y-155966753D01*
X135741388Y-155966206D01*
X135553694Y-155949216D01*
X135553511Y-155949217D01*
X135547894Y-155948714D01*
X135362384Y-155933402D01*
X135362203Y-155933405D01*
X135356483Y-155932939D01*
X135161569Y-155918430D01*
X135161393Y-155918434D01*
X135155515Y-155918004D01*
X134960475Y-155905104D01*
X134960289Y-155905110D01*
X134954462Y-155904731D01*
X134761634Y-155893564D01*
X134761448Y-155893571D01*
X134755656Y-155893243D01*
X134563889Y-155883704D01*
X134563712Y-155883713D01*
X134557782Y-155883425D01*
X134355455Y-155875047D01*
X134355270Y-155875057D01*
X134349296Y-155874818D01*
X134155025Y-155868405D01*
X134154844Y-155868417D01*
X134148838Y-155868227D01*
X133944021Y-155863192D01*
X133943842Y-155863205D01*
X133937662Y-155863063D01*
X133732775Y-155859800D01*
X133732597Y-155859815D01*
X133726411Y-155859726D01*
X133521467Y-155858237D01*
X133521284Y-155858254D01*
X133517200Y-155858219D01*
X133447324Y-155858117D01*
X133447261Y-155858123D01*
X133446251Y-155858116D01*
X25673495Y-155858116D01*
X25484266Y-155856559D01*
X25291713Y-155851759D01*
X25109446Y-155844183D01*
X24923171Y-155833375D01*
X24742272Y-155819900D01*
X24566656Y-155803990D01*
X24396268Y-155785873D01*
X24226698Y-155765200D01*
X24053377Y-155741331D01*
X23885529Y-155715550D01*
X23714056Y-155686482D01*
X23539003Y-155653938D01*
X23382655Y-155622394D01*
X23213596Y-155585623D01*
X23058752Y-155549499D01*
X22895820Y-155508932D01*
X22746856Y-155469521D01*
X22594276Y-155426830D01*
X22442537Y-155382014D01*
X22295985Y-155336464D01*
X22145921Y-155287488D01*
X22005278Y-155239410D01*
X21865197Y-155189404D01*
X21726176Y-155137652D01*
X21583799Y-155082425D01*
X21446492Y-155027000D01*
X21314132Y-154971526D01*
X21178583Y-154912598D01*
X21040110Y-154850151D01*
X20902768Y-154785931D01*
X20762471Y-154717936D01*
X20631200Y-154652080D01*
X20489060Y-154578288D01*
X20363510Y-154510916D01*
X20238615Y-154441809D01*
X20118553Y-154373376D01*
X19995622Y-154301231D01*
X19873776Y-154227604D01*
X19752932Y-154152454D01*
X19633279Y-154075903D01*
X19507429Y-153993034D01*
X19382873Y-153908580D01*
X19262933Y-153824901D01*
X19151162Y-153744785D01*
X19033456Y-153658128D01*
X18913425Y-153567272D01*
X18805117Y-153483070D01*
X18687414Y-153389105D01*
X18584468Y-153304761D01*
X18482269Y-153218965D01*
X18381138Y-153131990D01*
X18281165Y-153043912D01*
X18182250Y-152954647D01*
X18074942Y-152855351D01*
X17978397Y-152763748D01*
X17882733Y-152670792D01*
X17788287Y-152576801D01*
X17694993Y-152481716D01*
X17599979Y-152382507D01*
X17497360Y-152272558D01*
X17407747Y-152174073D01*
X17319269Y-152074473D01*
X17229106Y-151970464D01*
X17142999Y-151868669D01*
X17058094Y-151765823D01*
X16971837Y-151658723D01*
X16881572Y-151543688D01*
X16798090Y-151434463D01*
X16713297Y-151320593D01*
X16629971Y-151205666D01*
X16548027Y-151089562D01*
X16470014Y-150976025D01*
X16393316Y-150861387D01*
X16318043Y-150745802D01*
X16241883Y-150625568D01*
X16169483Y-150508016D01*
X16096278Y-150385724D01*
X16026793Y-150266242D01*
X16012091Y-150240220D01*
X17919120Y-150240220D01*
X17919120Y-150577060D01*
X17984834Y-150907429D01*
X18113738Y-151218629D01*
X18300876Y-151498701D01*
X18539059Y-151736884D01*
X18819131Y-151924022D01*
X19130331Y-152052926D01*
X19460700Y-152118640D01*
X19797540Y-152118640D01*
X20127909Y-152052926D01*
X20439109Y-151924022D01*
X20719181Y-151736884D01*
X20957364Y-151498701D01*
X21144502Y-151218629D01*
X21273406Y-150907429D01*
X21339120Y-150577060D01*
X21339120Y-150240220D01*
X26148720Y-150240220D01*
X26148720Y-150577060D01*
X26214434Y-150907429D01*
X26343338Y-151218629D01*
X26530476Y-151498701D01*
X26768659Y-151736884D01*
X27048731Y-151924022D01*
X27359931Y-152052926D01*
X27690300Y-152118640D01*
X28027140Y-152118640D01*
X28357509Y-152052926D01*
X28668709Y-151924022D01*
X28948781Y-151736884D01*
X29186964Y-151498701D01*
X29374102Y-151218629D01*
X29503006Y-150907429D01*
X29568720Y-150577060D01*
X29568720Y-150240220D01*
X29503006Y-149909851D01*
X29374102Y-149598651D01*
X29186964Y-149318579D01*
X28948781Y-149080396D01*
X28668709Y-148893258D01*
X28357509Y-148764354D01*
X28027140Y-148698640D01*
X27690300Y-148698640D01*
X27359931Y-148764354D01*
X27048731Y-148893258D01*
X26768659Y-149080396D01*
X26530476Y-149318579D01*
X26343338Y-149598651D01*
X26214434Y-149909851D01*
X26148720Y-150240220D01*
X21339120Y-150240220D01*
X21273406Y-149909851D01*
X21144502Y-149598651D01*
X20957364Y-149318579D01*
X20719181Y-149080396D01*
X20439109Y-148893258D01*
X20127909Y-148764354D01*
X19797540Y-148698640D01*
X19460700Y-148698640D01*
X19130331Y-148764354D01*
X18819131Y-148893258D01*
X18539059Y-149080396D01*
X18300876Y-149318579D01*
X18113738Y-149598651D01*
X17984834Y-149909851D01*
X17919120Y-150240220D01*
X16012091Y-150240220D01*
X15958805Y-150145908D01*
X15888109Y-150016931D01*
X15819179Y-149887127D01*
X15753843Y-149760096D01*
X15688229Y-149628308D01*
X15624275Y-149495454D01*
X15563895Y-149365681D01*
X15503386Y-149231023D01*
X15444546Y-149095250D01*
X15389280Y-148962966D01*
X15330790Y-148817420D01*
X15275950Y-148675233D01*
X15221456Y-148527806D01*
X15171890Y-148387770D01*
X15122771Y-148242708D01*
X15074276Y-148092540D01*
X15029179Y-147945842D01*
X14984814Y-147793897D01*
X14942578Y-147641126D01*
X14903597Y-147491899D01*
X14865564Y-147337357D01*
X14828791Y-147177906D01*
X14794272Y-147017371D01*
X14762974Y-146860676D01*
X14732284Y-146694143D01*
X14704831Y-146531415D01*
X14679085Y-146363354D01*
X14655290Y-146190079D01*
X14634679Y-146020431D01*
X14616637Y-145850123D01*
X14600416Y-145669898D01*
X14587084Y-145489010D01*
X14576654Y-145307319D01*
X14568987Y-145120240D01*
X14564491Y-144936969D01*
X14562940Y-144747640D01*
X14562940Y-25224409D01*
X14564543Y-25033904D01*
X14569653Y-24835615D01*
X14577595Y-24651037D01*
X14588217Y-24472309D01*
X14601519Y-24296234D01*
X14618394Y-24112609D01*
X14636743Y-23942763D01*
X14657707Y-23773230D01*
X14680627Y-23608463D01*
X14705993Y-23444182D01*
X14733811Y-23280319D01*
X14763205Y-23121430D01*
X14794890Y-22963071D01*
X14829840Y-22800858D01*
X14865154Y-22647816D01*
X14902605Y-22495378D01*
X14942226Y-22343404D01*
X14982751Y-22196402D01*
X15027784Y-22041608D01*
X15075040Y-21887541D01*
X15121403Y-21743637D01*
X15173349Y-21589871D01*
X15224133Y-21446276D01*
X15276907Y-21303323D01*
X15331691Y-21160980D01*
X15386766Y-21023444D01*
X15441962Y-20890694D01*
X15500708Y-20754479D01*
X15559406Y-20623151D01*
X15619807Y-20492586D01*
X15683876Y-20358733D01*
X15746262Y-20232642D01*
X15813296Y-20101454D01*
X15878992Y-19976905D01*
X15945841Y-19853954D01*
X16013672Y-19732844D01*
X16083034Y-19612554D01*
X16155109Y-19491130D01*
X16228122Y-19371592D01*
X16229586Y-19369260D01*
X17919120Y-19369260D01*
X17919120Y-19706100D01*
X17984834Y-20036469D01*
X18113738Y-20347669D01*
X18300876Y-20627741D01*
X18539059Y-20865924D01*
X18819131Y-21053062D01*
X19130331Y-21181966D01*
X19460700Y-21247680D01*
X19797540Y-21247680D01*
X20127909Y-21181966D01*
X20439109Y-21053062D01*
X20719181Y-20865924D01*
X20957364Y-20627741D01*
X21144502Y-20347669D01*
X21273406Y-20036469D01*
X21339120Y-19706100D01*
X21339120Y-19369260D01*
X21338110Y-19364180D01*
X26148720Y-19364180D01*
X26148720Y-19701020D01*
X26214434Y-20031389D01*
X26343338Y-20342589D01*
X26530476Y-20622661D01*
X26768659Y-20860844D01*
X27048731Y-21047982D01*
X27359931Y-21176886D01*
X27690300Y-21242600D01*
X28027140Y-21242600D01*
X28357509Y-21176886D01*
X28668709Y-21047982D01*
X28948781Y-20860844D01*
X29186964Y-20622661D01*
X29374102Y-20342589D01*
X29503006Y-20031389D01*
X29568720Y-19701020D01*
X29568720Y-19364180D01*
X189186240Y-19364180D01*
X189186240Y-19701020D01*
X189251954Y-20031389D01*
X189380858Y-20342589D01*
X189567996Y-20622661D01*
X189806179Y-20860844D01*
X190086251Y-21047982D01*
X190397451Y-21176886D01*
X190727820Y-21242600D01*
X191064660Y-21242600D01*
X191395029Y-21176886D01*
X191706229Y-21047982D01*
X191986301Y-20860844D01*
X192224484Y-20622661D01*
X192411622Y-20342589D01*
X192540526Y-20031389D01*
X192606240Y-19701020D01*
X192606240Y-19369260D01*
X197476800Y-19369260D01*
X197476800Y-19706100D01*
X197542514Y-20036469D01*
X197671418Y-20347669D01*
X197858556Y-20627741D01*
X198096739Y-20865924D01*
X198376811Y-21053062D01*
X198688011Y-21181966D01*
X199018380Y-21247680D01*
X199355220Y-21247680D01*
X199685589Y-21181966D01*
X199996789Y-21053062D01*
X200276861Y-20865924D01*
X200515044Y-20627741D01*
X200702182Y-20347669D01*
X200831086Y-20036469D01*
X200896800Y-19706100D01*
X200896800Y-19369260D01*
X200831086Y-19038891D01*
X200702182Y-18727691D01*
X200515044Y-18447619D01*
X200276861Y-18209436D01*
X199996789Y-18022298D01*
X199685589Y-17893394D01*
X199355220Y-17827680D01*
X199018380Y-17827680D01*
X198688011Y-17893394D01*
X198376811Y-18022298D01*
X198096739Y-18209436D01*
X197858556Y-18447619D01*
X197671418Y-18727691D01*
X197542514Y-19038891D01*
X197476800Y-19369260D01*
X192606240Y-19369260D01*
X192606240Y-19364180D01*
X192540526Y-19033811D01*
X192411622Y-18722611D01*
X192224484Y-18442539D01*
X191986301Y-18204356D01*
X191706229Y-18017218D01*
X191395029Y-17888314D01*
X191064660Y-17822600D01*
X190727820Y-17822600D01*
X190397451Y-17888314D01*
X190086251Y-18017218D01*
X189806179Y-18204356D01*
X189567996Y-18442539D01*
X189380858Y-18722611D01*
X189251954Y-19033811D01*
X189186240Y-19364180D01*
X29568720Y-19364180D01*
X29503006Y-19033811D01*
X29374102Y-18722611D01*
X29186964Y-18442539D01*
X28948781Y-18204356D01*
X28668709Y-18017218D01*
X28357509Y-17888314D01*
X28027140Y-17822600D01*
X27690300Y-17822600D01*
X27359931Y-17888314D01*
X27048731Y-18017218D01*
X26768659Y-18204356D01*
X26530476Y-18442539D01*
X26343338Y-18722611D01*
X26214434Y-19033811D01*
X26148720Y-19364180D01*
X21338110Y-19364180D01*
X21273406Y-19038891D01*
X21144502Y-18727691D01*
X20957364Y-18447619D01*
X20719181Y-18209436D01*
X20439109Y-18022298D01*
X20127909Y-17893394D01*
X19797540Y-17827680D01*
X19460700Y-17827680D01*
X19130331Y-17893394D01*
X18819131Y-18022298D01*
X18539059Y-18209436D01*
X18300876Y-18447619D01*
X18113738Y-18727691D01*
X17984834Y-19038891D01*
X17919120Y-19369260D01*
X16229586Y-19369260D01*
X16302130Y-19253779D01*
X16376467Y-19138654D01*
X16451546Y-19025454D01*
X16533119Y-18905774D01*
X16613684Y-18790775D01*
X16698438Y-18673044D01*
X16779392Y-18563546D01*
X16864610Y-18451244D01*
X16948525Y-18343480D01*
X17035849Y-18234177D01*
X17128884Y-18120753D01*
X17217044Y-18016026D01*
X17306630Y-17912237D01*
X17397728Y-17809298D01*
X17487090Y-17710761D01*
X17577859Y-17613056D01*
X17669819Y-17516416D01*
X17763807Y-17419992D01*
X17815461Y-17367993D01*
X17922405Y-17262451D01*
X18018445Y-17170052D01*
X18115490Y-17078904D01*
X18223575Y-16979915D01*
X18322519Y-16891557D01*
X18429341Y-16798515D01*
X18533850Y-16709771D01*
X18638447Y-16623139D01*
X18742333Y-16539200D01*
X18849741Y-16454559D01*
X18958076Y-16371328D01*
X19067252Y-16289569D01*
X19177346Y-16209213D01*
X19291933Y-16127749D01*
X19407462Y-16047796D01*
X19521178Y-15971186D01*
X19637666Y-15894796D01*
X19752206Y-15821699D01*
X19868510Y-15749471D01*
X19987434Y-15677648D01*
X20111939Y-15604605D01*
X20237281Y-15533242D01*
X20359676Y-15465619D01*
X20486648Y-15397569D01*
X20618464Y-15329139D01*
X20743157Y-15266448D01*
X20872657Y-15203397D01*
X21002831Y-15142090D01*
X21137869Y-15080652D01*
X21269595Y-15022798D01*
X21402128Y-14966627D01*
X21535234Y-14912234D01*
X21673207Y-14857958D01*
X21811784Y-14805566D01*
X21955182Y-14753559D01*
X22095083Y-14704949D01*
X22243941Y-14655509D01*
X22389322Y-14609458D01*
X22535287Y-14565421D01*
X22686172Y-14522182D01*
X22837664Y-14481073D01*
X22989660Y-14442128D01*
X23146522Y-14404320D01*
X23304015Y-14368775D01*
X23461927Y-14335541D01*
X23629127Y-14302954D01*
X23792521Y-14273667D01*
X23956439Y-14246809D01*
X24119793Y-14222541D01*
X24287004Y-14200264D01*
X24455569Y-14180418D01*
X24625711Y-14163028D01*
X24805024Y-14147560D01*
X24980310Y-14135265D01*
X25160122Y-14125543D01*
X25358252Y-14118209D01*
X25544230Y-14114534D01*
X25672575Y-14113802D01*
X193259167Y-14113802D01*
X193458757Y-14115559D01*
M02*
