<?xml version="1.0" encoding="UTF-8" standalone="no"?>
<!DOCTYPE svg PUBLIC "-//W3C//DTD SVG 1.1//EN" "http://www.w3.org/Graphics/SVG/1.1/DTD/svg11.dtd">
<svg width="100%" height="100%" viewBox="0 0 662 559" version="1.1" xmlns="http://www.w3.org/2000/svg" xmlns:xlink="http://www.w3.org/1999/xlink" xml:space="preserve" xmlns:serif="http://www.serif.com/" style="fill-rule:evenodd;clip-rule:evenodd;stroke-linecap:round;stroke-linejoin:round;stroke-miterlimit:1.5;">
    <g id="アートボード1" transform="matrix(0.986587,0,0,1.18182,-61.1684,-46.0909)">
        <rect x="62" y="39" width="671" height="473" style="fill:none;"/>
        <g id="Split-Left-Keyplate" serif:id="Split Left Keyplate" transform="matrix(1.0136,0,0,0.846154,62,39)">
            <g id="Split-Left-Keyplate1" serif:id="Split Left Keyplate" transform="matrix(0.985565,-2.77556e-17,0,0.958937,-92.8973,39.93)">
                <path d="M682.633,286.158L713.568,136.581L713.568,65.931L682.738,38.074L682.738,23.015L656.357,23.015L656.357,38.074L152.284,38.074L152.284,23.015L130.351,23.015L130.351,38.074L122.642,74.113L117.949,126.847L118.425,210.723L106.385,273.182L107.632,355.009L120.585,376.099L121.231,455.62L131.558,463.824L131.558,474.959L151.719,474.95L151.719,463.816L450.399,463.816L610.919,498.725L674.12,498.725L678.069,479.627L664.409,476.642L697.3,308.553L682.633,286.158Z" style="fill:none;stroke:rgb(13,151,242);stroke-width:0.97px;"/>
            </g>
            <g transform="matrix(0.999993,-2.77556e-17,0,1,-0.139215,0.0790432)">
                <rect x="48.826" y="414.236" width="151.917" height="53.058" style="fill:none;stroke:rgb(13,151,242);stroke-width:0.94px;stroke-linecap:square;"/>
            </g>
            <g transform="matrix(0.978148,0.207912,-0.207912,0.978148,-3.71967,-12.4567)">
                <rect x="576.345" y="61.219" width="52.915" height="52.915" style="fill:none;stroke:rgb(13,151,242);stroke-width:0.94px;stroke-linecap:square;"/>
            </g>
            <g transform="matrix(0.978148,0.207912,-0.207912,0.978148,-3.71967,-12.4567)">
                <rect x="504.345" y="61.219" width="52.915" height="52.915" style="fill:none;stroke:rgb(13,151,242);stroke-width:0.94px;stroke-linecap:square;"/>
            </g>
            <g transform="matrix(0.978148,0.207912,-0.207912,0.978148,-3.71967,-12.4567)">
                <rect x="432.345" y="52.224" width="52.915" height="52.915" style="fill:none;stroke:rgb(13,151,242);stroke-width:0.94px;stroke-linecap:square;"/>
            </g>
            <g transform="matrix(0.978148,0.207912,-0.207912,0.978148,-3.71967,-12.4567)">
                <rect x="360.345" y="43.219" width="52.915" height="52.915" style="fill:none;stroke:rgb(13,151,242);stroke-width:0.94px;stroke-linecap:square;"/>
            </g>
            <g transform="matrix(0.978148,0.207912,-0.207912,0.978148,-3.71967,-12.4567)">
                <rect x="288.346" y="52.224" width="52.915" height="52.915" style="fill:none;stroke:rgb(13,151,242);stroke-width:0.94px;stroke-linecap:square;"/>
            </g>
            <g transform="matrix(0.978148,0.207912,-0.207912,0.978148,-3.71967,-12.4567)">
                <rect x="216.346" y="88.223" width="52.915" height="52.915" style="fill:none;stroke:rgb(13,151,242);stroke-width:0.94px;stroke-linecap:square;"/>
            </g>
            <g transform="matrix(0.978148,0.207912,-0.207912,0.978148,-3.71967,-12.4567)">
                <rect x="144.346" y="106.223" width="52.915" height="52.915" style="fill:none;stroke:rgb(13,151,242);stroke-width:0.94px;stroke-linecap:square;"/>
            </g>
            <g transform="matrix(0.978148,0.207912,-0.207912,0.978148,-3.71967,-12.4567)">
                <rect x="72.346" y="106.223" width="52.915" height="52.915" style="fill:none;stroke:rgb(13,151,242);stroke-width:0.94px;stroke-linecap:square;"/>
            </g>
            <g transform="matrix(0.978148,0.207912,-0.207912,0.978148,-3.71967,-12.4567)">
                <rect x="126.346" y="178.223" width="52.915" height="52.915" style="fill:none;stroke:rgb(13,151,242);stroke-width:0.94px;stroke-linecap:square;"/>
            </g>
            <g transform="matrix(0.978148,0.207912,-0.207912,0.978148,-3.71967,-12.4567)">
                <rect x="117.365" y="250.223" width="52.891" height="52.915" style="fill:none;stroke:rgb(13,151,242);stroke-width:0.94px;stroke-linecap:square;"/>
            </g>
            <g transform="matrix(0.978148,0.207912,-0.207912,0.978148,-3.71967,-12.4567)">
                <rect x="126.346" y="322.223" width="52.915" height="52.915" style="fill:none;stroke:rgb(13,151,242);stroke-width:0.94px;stroke-linecap:square;"/>
            </g>
            <g transform="matrix(0.978148,0.207912,-0.207912,0.978148,-3.71967,-12.4567)">
                <rect x="216.346" y="304.223" width="52.915" height="52.915" style="fill:none;stroke:rgb(13,151,242);stroke-width:0.94px;stroke-linecap:square;"/>
            </g>
            <g transform="matrix(0.978148,0.207912,-0.207912,0.978148,-3.71967,-12.4567)">
                <rect x="216.346" y="232.223" width="52.915" height="52.915" style="fill:none;stroke:rgb(13,151,242);stroke-width:0.94px;stroke-linecap:square;"/>
            </g>
            <g transform="matrix(0.978148,0.207912,-0.207912,0.978148,-3.71967,-12.4567)">
                <rect x="216.346" y="160.223" width="52.915" height="52.915" style="fill:none;stroke:rgb(13,151,242);stroke-width:0.94px;stroke-linecap:square;"/>
            </g>
            <g transform="matrix(0.978148,0.207912,-0.207912,0.978148,-3.71967,-12.4567)">
                <rect x="288.346" y="124.223" width="52.915" height="52.915" style="fill:none;stroke:rgb(13,151,242);stroke-width:0.94px;stroke-linecap:square;"/>
            </g>
            <g transform="matrix(0.978148,0.207912,-0.207912,0.978148,-3.71967,-12.4567)">
                <rect x="360.345" y="115.219" width="52.915" height="52.915" style="fill:none;stroke:rgb(13,151,242);stroke-width:0.94px;stroke-linecap:square;"/>
            </g>
            <g transform="matrix(0.978148,0.207912,-0.207912,0.978148,-3.71967,-12.4567)">
                <rect x="360.345" y="187.218" width="52.915" height="52.915" style="fill:none;stroke:rgb(13,151,242);stroke-width:0.94px;stroke-linecap:square;"/>
            </g>
            <g transform="matrix(0.978148,0.207912,-0.207912,0.978148,-3.71967,-12.4567)">
                <rect x="288.346" y="196.223" width="52.915" height="52.915" style="fill:none;stroke:rgb(13,151,242);stroke-width:0.94px;stroke-linecap:square;"/>
            </g>
            <g transform="matrix(0.978148,0.207912,-0.207912,0.978148,-3.71967,-12.4567)">
                <rect x="288.346" y="268.223" width="52.915" height="52.915" style="fill:none;stroke:rgb(13,151,242);stroke-width:0.94px;stroke-linecap:square;"/>
            </g>
            <g transform="matrix(0.978148,0.207912,-0.207912,0.978148,-3.71967,-12.4567)">
                <rect x="360.345" y="259.218" width="52.915" height="52.915" style="fill:none;stroke:rgb(13,151,242);stroke-width:0.94px;stroke-linecap:square;"/>
            </g>
            <g transform="matrix(0.978148,0.207912,-0.207912,0.978148,-3.71967,-12.4567)">
                <rect x="333.341" y="349.218" width="52.915" height="52.915" style="fill:none;stroke:rgb(13,151,242);stroke-width:0.94px;stroke-linecap:square;"/>
            </g>
            <g transform="matrix(0.978148,0.207912,-0.207912,0.978148,-3.71967,-12.4567)">
                <rect x="423.34" y="349.218" width="52.915" height="52.915" style="fill:none;stroke:rgb(13,151,242);stroke-width:0.94px;stroke-linecap:square;"/>
            </g>
            <g transform="matrix(0.978148,0.207912,-0.207912,0.978148,-3.71967,-12.4567)">
                <rect x="432.345" y="268.223" width="52.915" height="52.915" style="fill:none;stroke:rgb(13,151,242);stroke-width:0.94px;stroke-linecap:square;"/>
            </g>
            <g transform="matrix(0.978148,0.207912,-0.207912,0.978148,-3.71967,-12.4567)">
                <rect x="432.345" y="124.223" width="52.915" height="52.915" style="fill:none;stroke:rgb(13,151,242);stroke-width:0.94px;stroke-linecap:square;"/>
            </g>
            <g transform="matrix(0.978148,0.207912,-0.207912,0.978148,-3.71967,-12.4567)">
                <rect x="432.345" y="196.223" width="52.915" height="52.915" style="fill:none;stroke:rgb(13,151,242);stroke-width:0.94px;stroke-linecap:square;"/>
            </g>
            <g transform="matrix(0.978148,0.207912,-0.207912,0.978148,-3.71967,-12.4567)">
                <rect x="504.345" y="133.219" width="52.915" height="52.915" style="fill:none;stroke:rgb(13,151,242);stroke-width:0.94px;stroke-linecap:square;"/>
            </g>
            <g transform="matrix(0.978148,0.207912,-0.207912,0.978148,-3.71967,-12.4567)">
                <rect x="504.345" y="205.218" width="52.915" height="52.915" style="fill:none;stroke:rgb(13,151,242);stroke-width:0.94px;stroke-linecap:square;"/>
            </g>
            <g transform="matrix(0.978148,0.207912,-0.207912,0.978148,-3.71967,-12.4567)">
                <rect x="504.345" y="277.218" width="52.915" height="52.915" style="fill:none;stroke:rgb(13,151,242);stroke-width:0.94px;stroke-linecap:square;"/>
            </g>
            <g transform="matrix(0.978148,0.207912,-0.207912,0.978148,-3.71967,-12.4567)">
                <rect x="576.345" y="277.218" width="52.915" height="52.915" style="fill:none;stroke:rgb(13,151,242);stroke-width:0.94px;stroke-linecap:square;"/>
            </g>
            <g transform="matrix(0.978148,0.207912,-0.207912,0.978148,-3.71967,-12.4567)">
                <rect x="576.345" y="205.218" width="52.915" height="52.915" style="fill:none;stroke:rgb(13,151,242);stroke-width:0.94px;stroke-linecap:square;"/>
            </g>
            <g transform="matrix(0.978148,0.207912,-0.207912,0.978148,-3.71967,-12.4567)">
                <rect x="576.345" y="133.219" width="52.915" height="52.915" style="fill:none;stroke:rgb(13,151,242);stroke-width:0.94px;stroke-linecap:square;"/>
            </g>
            <g transform="matrix(0.978148,0.207912,-0.207912,0.978148,-3.71967,-12.4567)">
                <rect x="504.345" y="349.218" width="133.91" height="52.915" style="fill:none;stroke:rgb(13,151,242);stroke-width:0.94px;stroke-linecap:square;"/>
            </g>
            <g transform="matrix(0.739387,0.157162,-0.157162,0.739387,138.554,76.8755)">
                <rect x="639" y="229" width="15" height="15" style="fill:none;stroke:rgb(13,151,242);stroke-width:1.25px;stroke-linecap:square;"/>
            </g>
            <g transform="matrix(0.739387,0.157162,-0.157162,0.739387,131.773,108.776)">
                <rect x="639" y="229" width="15" height="15" style="fill:none;stroke:rgb(13,151,242);stroke-width:1.25px;stroke-linecap:square;"/>
            </g>
            <g transform="matrix(0.532327,0.113149,-0.113149,0.532327,337.303,54.128)">
                <circle cx="367.63" cy="23.111" r="6.945" style="fill:rgb(194,194,194);fill-opacity:0;stroke:rgb(13,151,242);stroke-width:1.74px;stroke-miterlimit:4;"/>
            </g>
            <g transform="matrix(0.532327,0.113149,-0.113149,0.532327,49.4626,110.278)">
                <circle cx="25.631" cy="168.55" r="6.945" style="fill:rgb(194,194,194);fill-opacity:0;stroke:rgb(13,151,242);stroke-width:1.74px;stroke-miterlimit:4;"/>
            </g>
            <g transform="matrix(0.532327,0.113149,-0.113149,0.532327,206.183,263.827)">
                <circle cx="260.35" cy="317.59" r="6.945" style="fill:rgb(194,194,194);fill-opacity:0;stroke:rgb(13,151,242);stroke-width:1.74px;stroke-miterlimit:4;"/>
            </g>
            <g transform="matrix(0.532327,0.113149,-0.113149,0.532327,356.873,238.062)">
                <circle cx="440.349" cy="245.95" r="6.945" style="fill:rgb(194,194,194);fill-opacity:0;stroke:rgb(13,151,242);stroke-width:1.74px;stroke-miterlimit:4;"/>
            </g>
            <g transform="matrix(6.80956e-17,1.36766,-1.36692,5.23334e-16,2057.16,-23.5632)">
                <path d="M391.454,1090.15C391.454,1091.68 390.218,1092.92 388.69,1092.92C387.165,1092.92 385.927,1091.68 385.927,1090.15C385.927,1088.63 387.165,1087.39 388.69,1087.39C390.218,1087.39 391.454,1088.63 391.454,1090.15Z" style="fill:none;stroke:rgb(13,151,242);stroke-width:0.69px;stroke-miterlimit:2;"/>
            </g>
            <g transform="matrix(6.80956e-17,1.36766,-1.36692,5.23334e-16,2057.16,-461.596)">
                <path d="M391.454,1090.15C391.454,1091.68 390.218,1092.92 388.69,1092.92C387.165,1092.92 385.927,1091.68 385.927,1090.15C385.927,1088.63 387.165,1087.39 388.69,1087.39C390.218,1087.39 391.454,1088.63 391.454,1090.15Z" style="fill:none;stroke:rgb(13,151,242);stroke-width:0.69px;stroke-miterlimit:2;"/>
            </g>
            <g transform="matrix(6.80956e-17,1.36766,-1.36692,5.23334e-16,1536.83,-461.596)">
                <path d="M391.454,1090.15C391.454,1091.68 390.218,1092.92 388.69,1092.92C387.165,1092.92 385.927,1091.68 385.927,1090.15C385.927,1088.63 387.165,1087.39 388.69,1087.39C390.218,1087.39 391.454,1088.63 391.454,1090.15Z" style="fill:none;stroke:rgb(13,151,242);stroke-width:0.69px;stroke-miterlimit:2;"/>
            </g>
            <g transform="matrix(6.80956e-17,1.36766,-1.36692,5.23334e-16,1536.83,-43.9155)">
                <path d="M391.454,1090.15C391.454,1091.68 390.218,1092.92 388.69,1092.92C387.165,1092.92 385.927,1091.68 385.927,1090.15C385.927,1088.63 387.165,1087.39 388.69,1087.39C390.218,1087.39 391.454,1088.63 391.454,1090.15Z" style="fill:none;stroke:rgb(13,151,242);stroke-width:0.69px;stroke-miterlimit:2;"/>
            </g>
        </g>
    </g>
</svg>
