  0
SECTION
  2
HEADER
  9
$ACADVER
  1
AC1014
  9
$HANDSEED
  5
FFFF
  9
$MEASUREMENT
 70
     1
  0
ENDSEC
  0
SECTION
  2
TABLES
  0
TABLE
  2
VPORT
  5
8
330
0
100
AcDbSymbolTable
 70
     4
  0
VPORT
  5
2E
330
8
100
AcDbSymbolTableRecord
100
AcDbViewportTableRecord
  2
*ACTIVE
 70
     0
 10
0.0
 20
0.0
 11
1.0
 21
1.0
 12
210.0
 22
148.5
 13
0.0
 23
0.0
 14
10.0
 24
10.0
 15
10.0
 25
10.0
 16
0.0
 26
0.0
 36
1.0
 17
0.0
 27
0.0
 37
0.0
 40
341.0
 41
1.24
 42
50.0
 43
0.0
 44
0.0
 50
0.0
 51
0.0
 71
     0
 72
   100
 73
     1
 74
     3
 75
     0
 76
     0
 77
     0
 78
     0
  0
ENDTAB
  0
TABLE
  2
LTYPE
  5
5
330
0
100
AcDbSymbolTable
 70
     1
  0
LTYPE
  5
14
330
5
100
AcDbSymbolTableRecord
100
AcDbLinetypeTableRecord
  2
BYBLOCK
 70
     0
  3

 72
    65
 73
     0
 40
0.0
  0
LTYPE
  5
15
330
5
100
AcDbSymbolTableRecord
100
AcDbLinetypeTableRecord
  2
BYLAYER
 70
     0
  3

 72
    65
 73
     0
 40
0.0
  0
LTYPE
  5
16
330
5
100
AcDbSymbolTableRecord
100
AcDbLinetypeTableRecord
  2
CONTINUOUS
 70
     0
  3
Solid line
 72
    65
 73
     0
 40
0.0
  0
ENDTAB
  0
TABLE
  2
LAYER
  5
2
100
AcDbSymbolTable
 70
1
  0
LAYER
  5
50
100
AcDbSymbolTableRecord
100
AcDbLayerTableRecord
  2
0
 70
0
  6
CONTINUOUS
  0
ENDTAB
  0
TABLE
  2
STYLE
  5
3
330
0
100
AcDbSymbolTable
 70
     1
  0
STYLE
  5
11
330
3
100
AcDbSymbolTableRecord
100
AcDbTextStyleTableRecord
  2
STANDARD
 70
     0
 40
0.0
 41
1.0
 50
0.0
 71
     0
 42
2.5
  3
txt
  4

  0
ENDTAB
  0
TABLE
  2
VIEW
  5
6
330
0
100
AcDbSymbolTable
 70
     0
  0
ENDTAB
  0
TABLE
  2
UCS
  5
7
330
0
100
AcDbSymbolTable
 70
     0
  0
ENDTAB
  0
TABLE
  2
APPID
  5
9
330
0
100
AcDbSymbolTable
 70
     2
  0
APPID
  5
12
330
9
100
AcDbSymbolTableRecord
100
AcDbRegAppTableRecord
  2
ACAD
 70
     0
  0
ENDTAB
  0
TABLE
  2
DIMSTYLE
  5
A
330
0
100
AcDbSymbolTable
 70
     1
  0
DIMSTYLE
105
27
330
A
100
AcDbSymbolTableRecord
100
AcDbDimStyleTableRecord
  2
ISO-25
 70
     0
  3

  4

  5

  6

  7

 40
1.0
 41
2.5
 42
0.625
 43
3.75
 44
1.25
 45
0.0
 46
0.0
 47
0.0
 48
0.0
140
2.5
141
2.5
142
0.0
143
0.03937007874016
144
1.0
145
0.0
146
1.0
147
0.625
 71
     0
 72
     0
 73
     0
 74
     0
 75
     0
 76
     0
 77
     1
 78
     8
170
     0
171
     3
172
     1
173
     0
174
     0
175
     0
176
     0
177
     0
178
     0
270
     2
271
     2
272
     2
273
     2
274
     3
340
11
275
     0
280
     0
281
     0
282
     0
283
     0
284
     8
285
     0
286
     0
287
     3
288
     0
  0
ENDTAB
  0
TABLE
  2
BLOCK_RECORD
  5
1
330
0
100
AcDbSymbolTable
 70
     1
  0
BLOCK_RECORD
  5
1F
330
1
100
AcDbSymbolTableRecord
100
AcDbBlockTableRecord
  2
*MODEL_SPACE
  0
BLOCK_RECORD
  5
1B
330
1
100
AcDbSymbolTableRecord
100
AcDbBlockTableRecord
  2
*PAPER_SPACE
  0
ENDTAB
  0
ENDSEC
  0
SECTION
  2
BLOCKS
  0
BLOCK
  5
20
330
1F
100
AcDbEntity
  8
0
100
AcDbBlockBegin
  2
*MODEL_SPACE
 70
     0
 10
0.0
 20
0.0
 30
0.0
  3
*MODEL_SPACE
  1

  0
ENDBLK
  5
21
330
1F
100
AcDbEntity
  8
0
100
AcDbBlockEnd
  0
BLOCK
  5
1C
330
1B
100
AcDbEntity
 67
     1
  8
0
100
AcDbBlockBegin
  2
*PAPER_SPACE
  1

  0
ENDBLK
  5
1D
330
1B
100
AcDbEntity
 67
     1
  8
0
100
AcDbBlockEnd
  0
ENDSEC
  0
SECTION
  2
ENTITIES
  0
LWPOLYLINE
  5
100
100
AcDbEntity
  8
0
 62
7
100
AcDbPolyline
 90
4
 70
1
 10
0.000074
 20
147.902062
 30
0.0
 10
199.761150
 20
147.902062
 30
0.0
 10
199.761150
 20
-0.000249
 30
0.0
 10
0.000074
 20
-0.000249
 30
0.0
  0
LWPOLYLINE
  5
101
100
AcDbEntity
  8
0
 62
4
100
AcDbPolyline
 90
27
 70
1
 10
168.227125
 20
63.973061
 30
0.0
 10
173.969171
 20
87.044254
 30
0.0
 10
176.308755
 20
87.044254
 30
0.0
 10
176.291283
 20
119.856233
 30
0.0
 10
176.323879
 20
123.295651
 30
0.0
 10
172.531573
 20
123.295651
 30
0.0
 10
167.742624
 20
127.677127
 30
0.0
 10
167.742624
 20
131.497884
 30
0.0
 10
160.863382
 20
131.497884
 30
0.0
 10
160.863382
 20
127.677127
 30
0.0
 10
29.418779
 20
127.677127
 30
0.0
 10
29.418779
 20
131.497884
 30
0.0
 10
23.699420
 20
131.497884
 30
0.0
 10
23.699420
 20
127.677127
 30
0.0
 10
20.465412
 20
112.776453
 30
0.0
 10
21.321243
 20
21.737697
 30
0.0
 10
24.014163
 20
19.656185
 30
0.0
 10
24.014163
 20
16.831021
 30
0.0
 10
29.271447
 20
16.833305
 30
0.0
 10
29.271447
 20
19.658214
 30
0.0
 10
103.008491
 20
19.646289
 30
0.0
 10
154.251164
 20
8.754379
 30
0.0
 10
165.060134
 20
8.754379
 30
0.0
 10
166.525112
 20
15.646660
 30
0.0
 10
164.356069
 20
18.520537
 30
0.0
 10
172.395454
 20
57.780790
 30
0.0
 10
168.227125
 20
63.973061
 30
0.0
  0
LWPOLYLINE
  5
102
100
AcDbEntity
  8
0
 62
4
100
AcDbPolyline
 90
4
 70
1
 10
27.169364
 20
38.281018
 30
0.0
 10
67.364215
 20
38.281018
 30
0.0
 10
67.364215
 20
24.242732
 30
0.0
 10
27.169364
 20
24.242732
 30
0.0
  0
LWPOLYLINE
  5
103
100
AcDbEntity
  8
0
 62
4
100
AcDbPolyline
 90
4
 70
1
 10
159.095347
 20
103.649475
 30
0.0
 10
172.789886
 20
100.738613
 30
0.0
 10
169.879019
 20
87.044100
 30
0.0
 10
156.184480
 20
89.954962
 30
0.0
  0
LWPOLYLINE
  5
104
100
AcDbEntity
  8
0
 62
4
100
AcDbPolyline
 90
4
 70
1
 10
140.461560
 20
107.610206
 30
0.0
 10
154.156100
 20
104.699344
 30
0.0
 10
151.245232
 20
91.004831
 30
0.0
 10
137.550693
 20
93.915692
 30
0.0
  0
LWPOLYLINE
  5
105
100
AcDbEntity
  8
0
 62
4
100
AcDbPolyline
 90
4
 70
1
 10
122.322591
 20
113.898861
 30
0.0
 10
136.017130
 20
110.987999
 30
0.0
 10
133.106263
 20
97.293486
 30
0.0
 10
119.411724
 20
100.204348
 30
0.0
  0
LWPOLYLINE
  5
106
100
AcDbEntity
  8
0
 62
4
100
AcDbPolyline
 90
4
 70
1
 10
104.184172
 20
120.190104
 30
0.0
 10
117.878711
 20
117.279243
 30
0.0
 10
114.967843
 20
103.584729
 30
0.0
 10
101.273304
 20
106.495591
 30
0.0
  0
LWPOLYLINE
  5
107
100
AcDbEntity
  8
0
 62
4
100
AcDbPolyline
 90
4
 70
1
 10
85.055276
 20
121.820267
 30
0.0
 10
98.749816
 20
118.909405
 30
0.0
 10
95.838948
 20
105.214892
 30
0.0
 10
82.144409
 20
108.125754
 30
0.0
  0
LWPOLYLINE
  5
108
100
AcDbEntity
  8
0
 62
4
100
AcDbPolyline
 90
4
 70
1
 10
64.441176
 20
116.464380
 30
0.0
 10
78.135715
 20
113.553519
 30
0.0
 10
75.224848
 20
99.859005
 30
0.0
 10
61.530308
 20
102.769867
 30
0.0
  0
LWPOLYLINE
  5
109
100
AcDbEntity
  8
0
 62
4
100
AcDbPolyline
 90
4
 70
1
 10
44.817205
 20
115.766673
 30
0.0
 10
58.511744
 20
112.855811
 30
0.0
 10
55.600877
 20
99.161298
 30
0.0
 10
41.906337
 20
102.072160
 30
0.0
  0
LWPOLYLINE
  5
10a
100
AcDbEntity
  8
0
 62
4
100
AcDbPolyline
 90
4
 70
1
 10
26.183418
 20
119.727403
 30
0.0
 10
39.877957
 20
116.816541
 30
0.0
 10
36.967090
 20
103.122028
 30
0.0
 10
23.272551
 20
106.032890
 30
0.0
  0
LWPOLYLINE
  5
10b
100
AcDbEntity
  8
0
 62
4
100
AcDbPolyline
 90
4
 70
1
 10
36.198020
 20
98.123104
 30
0.0
 10
49.892559
 20
95.212242
 30
0.0
 10
46.981692
 20
81.517729
 30
0.0
 10
33.287153
 20
84.428591
 30
0.0
  0
LWPOLYLINE
  5
10c
100
AcDbEntity
  8
0
 62
4
100
AcDbPolyline
 90
4
 70
1
 10
29.912976
 20
79.983399
 30
0.0
 10
43.601304
 20
77.073857
 30
0.0
 10
40.690437
 20
63.379344
 30
0.0
 10
27.002109
 20
66.288885
 30
0.0
  0
LWPOLYLINE
  5
10d
100
AcDbEntity
  8
0
 62
4
100
AcDbPolyline
 90
4
 70
1
 10
28.276544
 20
60.855601
 30
0.0
 10
41.971083
 20
57.944739
 30
0.0
 10
39.060216
 20
44.250226
 30
0.0
 10
25.365677
 20
47.161088
 30
0.0
  0
LWPOLYLINE
  5
10e
100
AcDbEntity
  8
0
 62
4
100
AcDbPolyline
 90
4
 70
1
 10
52.558962
 20
60.563126
 30
0.0
 10
66.253501
 20
57.652264
 30
0.0
 10
63.342634
 20
43.957751
 30
0.0
 10
49.648095
 20
46.868613
 30
0.0
  0
LWPOLYLINE
  5
10f
100
AcDbEntity
  8
0
 62
4
100
AcDbPolyline
 90
4
 70
1
 10
56.519700
 20
79.196877
 30
0.0
 10
70.214239
 20
76.286016
 30
0.0
 10
67.303372
 20
62.591502
 30
0.0
 10
53.608833
 20
65.502364
 30
0.0
  0
LWPOLYLINE
  5
110
100
AcDbEntity
  8
0
 62
4
100
AcDbPolyline
 90
4
 70
1
 10
60.480438
 20
97.830629
 30
0.0
 10
74.174977
 20
94.919767
 30
0.0
 10
71.264110
 20
81.225254
 30
0.0
 10
57.569571
 20
84.136116
 30
0.0
  0
LWPOLYLINE
  5
111
100
AcDbEntity
  8
0
 62
4
100
AcDbPolyline
 90
4
 70
1
 10
81.094594
 20
103.186774
 30
0.0
 10
94.789133
 20
100.275912
 30
0.0
 10
91.878265
 20
86.581399
 30
0.0
 10
78.183726
 20
89.492261
 30
0.0
  0
LWPOLYLINE
  5
112
100
AcDbEntity
  8
0
 62
4
100
AcDbPolyline
 90
4
 70
1
 10
100.223434
 20
101.556353
 30
0.0
 10
113.917973
 20
98.645491
 30
0.0
 10
111.007106
 20
84.950978
 30
0.0
 10
97.312566
 20
87.861840
 30
0.0
  0
LWPOLYLINE
  5
113
100
AcDbEntity
  8
0
 62
4
100
AcDbPolyline
 90
4
 70
1
 10
96.262751
 20
82.922860
 30
0.0
 10
109.957290
 20
80.011998
 30
0.0
 10
107.046423
 20
66.317485
 30
0.0
 10
93.351883
 20
69.228347
 30
0.0
  0
LWPOLYLINE
  5
114
100
AcDbEntity
  8
0
 62
4
100
AcDbPolyline
 90
4
 70
1
 10
77.133856
 20
84.553023
 30
0.0
 10
90.828395
 20
81.642161
 30
0.0
 10
87.917528
 20
67.947648
 30
0.0
 10
74.222988
 20
70.858509
 30
0.0
  0
LWPOLYLINE
  5
115
100
AcDbEntity
  8
0
 62
4
100
AcDbPolyline
 90
4
 70
1
 10
73.173118
 20
65.919271
 30
0.0
 10
86.867657
 20
63.008409
 30
0.0
 10
83.956790
 20
49.313896
 30
0.0
 10
70.262250
 20
52.224758
 30
0.0
  0
LWPOLYLINE
  5
116
100
AcDbEntity
  8
0
 62
4
100
AcDbPolyline
 90
4
 70
1
 10
92.302013
 20
64.289109
 30
0.0
 10
105.996552
 20
61.378247
 30
0.0
 10
103.085685
 20
47.683734
 30
0.0
 10
89.391146
 20
50.594595
 30
0.0
  0
LWPOLYLINE
  5
117
100
AcDbEntity
  8
0
 62
4
100
AcDbPolyline
 90
4
 70
1
 10
80.362385
 20
42.482413
 30
0.0
 10
94.056924
 20
39.571552
 30
0.0
 10
91.146057
 20
25.877038
 30
0.0
 10
77.451518
 20
28.787900
 30
0.0
  0
LWPOLYLINE
  5
118
100
AcDbEntity
  8
0
 62
4
100
AcDbPolyline
 90
4
 70
1
 10
103.654360
 20
37.531555
 30
0.0
 10
117.348899
 20
34.620694
 30
0.0
 10
114.438032
 20
20.926180
 30
0.0
 10
100.743493
 20
23.837042
 30
0.0
  0
LWPOLYLINE
  5
119
100
AcDbEntity
  8
0
 62
4
100
AcDbPolyline
 90
4
 70
1
 10
110.440432
 20
57.997865
 30
0.0
 10
124.134971
 20
55.087004
 30
0.0
 10
121.224104
 20
41.392490
 30
0.0
 10
107.529565
 20
44.303352
 30
0.0
  0
LWPOLYLINE
  5
11a
100
AcDbEntity
  8
0
 62
4
100
AcDbPolyline
 90
4
 70
1
 10
118.361908
 20
95.265368
 30
0.0
 10
132.056447
 20
92.354507
 30
0.0
 10
129.145580
 20
78.659993
 30
0.0
 10
115.451041
 20
81.570855
 30
0.0
  0
LWPOLYLINE
  5
11b
100
AcDbEntity
  8
0
 62
4
100
AcDbPolyline
 90
4
 70
1
 10
114.401170
 20
76.631617
 30
0.0
 10
128.095709
 20
73.720755
 30
0.0
 10
125.184842
 20
60.026242
 30
0.0
 10
111.490303
 20
62.937104
 30
0.0
  0
LWPOLYLINE
  5
11c
100
AcDbEntity
  8
0
 62
4
100
AcDbPolyline
 90
4
 70
1
 10
136.500823
 20
88.976454
 30
0.0
 10
150.195362
 20
86.065592
 30
0.0
 10
147.284494
 20
72.371079
 30
0.0
 10
133.589955
 20
75.281941
 30
0.0
  0
LWPOLYLINE
  5
11d
100
AcDbEntity
  8
0
 62
4
100
AcDbPolyline
 90
4
 70
1
 10
132.540140
 20
70.342962
 30
0.0
 10
146.234679
 20
67.432100
 30
0.0
 10
143.323812
 20
53.737586
 30
0.0
 10
129.629272
 20
56.648448
 30
0.0
  0
LWPOLYLINE
  5
11e
100
AcDbEntity
  8
0
 62
4
100
AcDbPolyline
 90
4
 70
1
 10
128.579402
 20
51.709210
 30
0.0
 10
142.273941
 20
48.798348
 30
0.0
 10
139.363074
 20
35.103835
 30
0.0
 10
125.668534
 20
38.014697
 30
0.0
  0
LWPOLYLINE
  5
11f
100
AcDbEntity
  8
0
 62
4
100
AcDbPolyline
 90
4
 70
1
 10
147.213188
 20
47.748480
 30
0.0
 10
160.907728
 20
44.837618
 30
0.0
 10
157.996860
 20
31.143105
 30
0.0
 10
144.302321
 20
34.053966
 30
0.0
  0
LWPOLYLINE
  5
120
100
AcDbEntity
  8
0
 62
4
100
AcDbPolyline
 90
4
 70
1
 10
151.173926
 20
66.382231
 30
0.0
 10
164.868466
 20
63.471369
 30
0.0
 10
161.957598
 20
49.776856
 30
0.0
 10
148.263059
 20
52.687718
 30
0.0
  0
LWPOLYLINE
  5
121
100
AcDbEntity
  8
0
 62
4
100
AcDbPolyline
 90
4
 70
1
 10
155.134609
 20
85.015724
 30
0.0
 10
168.829148
 20
82.104862
 30
0.0
 10
165.918281
 20
68.410349
 30
0.0
 10
152.223742
 20
71.321210
 30
0.0
  0
LWPOLYLINE
  5
122
100
AcDbEntity
  8
0
 62
4
100
AcDbPolyline
 90
4
 70
1
 10
124.618579
 20
33.075441
 30
0.0
 10
156.946838
 20
26.203853
 30
0.0
 10
154.035971
 20
12.509340
 30
0.0
 10
121.707711
 20
19.380927
 30
0.0
  0
LWPOLYLINE
  5
123
100
AcDbEntity
  8
0
 62
4
100
AcDbPolyline
 90
4
 70
1
 10
166.881844
 20
56.095992
 30
0.0
 10
169.314915
 20
55.578828
 30
0.0
 10
168.691176
 20
52.644380
 30
0.0
 10
166.258105
 20
53.161545
 30
0.0
  0
SPLINE
  5
124
100
AcDbEntity
  8
0
 62
4
100
AcDbSpline
 70
8
 71
3
 72
8
 73
4
 74
0
 40
0
 40
0
 40
0
 40
0
 40
1
 40
1
 40
1
 40
1
 10
100.113777
 20
113.034691
 30
0.0
 10
99.718143
 20
113.118784
 30
0.0
 10
99.310810
 20
112.956275
 30
0.0
 10
99.081715
 20
112.622939
 30
0.0
  0
SPLINE
  5
125
100
AcDbEntity
  8
0
 62
4
100
AcDbSpline
 70
8
 71
3
 72
8
 73
4
 74
0
 40
0
 40
0
 40
0
 40
0
 40
1
 40
1
 40
1
 40
1
 10
99.081715
 20
112.622939
 30
0.0
 10
98.852620
 20
112.289604
 30
0.0
 10
98.846880
 20
111.851087
 30
0.0
 10
99.067171
 20
111.511870
 30
0.0
  0
SPLINE
  5
126
100
AcDbEntity
  8
0
 62
4
100
AcDbSpline
 70
8
 71
3
 72
8
 73
4
 74
0
 40
0
 40
0
 40
0
 40
0
 40
1
 40
1
 40
1
 40
1
 10
99.067171
 20
111.511870
 30
0.0
 10
99.287463
 20
111.172652
 30
0.0
 10
99.690403
 20
110.999536
 30
0.0
 10
100.088102
 20
111.073245
 30
0.0
  0
SPLINE
  5
127
100
AcDbEntity
  8
0
 62
4
100
AcDbSpline
 70
8
 71
3
 72
8
 73
4
 74
0
 40
0
 40
0
 40
0
 40
0
 40
1
 40
1
 40
1
 40
1
 10
100.088102
 20
111.073245
 30
0.0
 10
100.485801
 20
111.146955
 30
0.0
 10
100.799938
 20
111.452974
 30
0.0
 10
100.884032
 20
111.848606
 30
0.0
  0
SPLINE
  5
128
100
AcDbEntity
  8
0
 62
4
100
AcDbSpline
 70
8
 71
3
 72
8
 73
4
 74
0
 40
0
 40
0
 40
0
 40
0
 40
1
 40
1
 40
1
 40
1
 10
100.884032
 20
111.848606
 30
0.0
 10
100.939175
 20
112.108033
 30
0.0
 10
100.889002
 20
112.378739
 30
0.0
 10
100.744551
 20
112.601173
 30
0.0
  0
SPLINE
  5
129
100
AcDbEntity
  8
0
 62
4
100
AcDbSpline
 70
8
 71
3
 72
8
 73
4
 74
0
 40
0
 40
0
 40
0
 40
0
 40
1
 40
1
 40
1
 40
1
 10
100.744551
 20
112.601173
 30
0.0
 10
100.600100
 20
112.823607
 30
0.0
 10
100.373204
 20
112.979548
 30
0.0
 10
100.113777
 20
113.034691
 30
0.0
  0
LWPOLYLINE
  5
12a
100
AcDbEntity
  8
0
 62
4
100
AcDbPolyline
 90
4
 70
1
 10
165.087962
 20
47.655478
 30
0.0
 10
167.521033
 20
47.138314
 30
0.0
 10
166.897294
 20
44.203867
 30
0.0
 10
164.464223
 20
44.721031
 30
0.0
  0
SPLINE
  5
12b
100
AcDbEntity
  8
0
 62
4
100
AcDbSpline
 70
8
 71
3
 72
8
 73
4
 74
0
 40
0
 40
0
 40
0
 40
0
 40
1
 40
1
 40
1
 40
1
 10
30.319172
 20
94.372045
 30
0.0
 10
29.923539
 20
94.456139
 30
0.0
 10
29.516205
 20
94.293629
 30
0.0
 10
29.287110
 20
93.960294
 30
0.0
  0
SPLINE
  5
12c
100
AcDbEntity
  8
0
 62
4
100
AcDbSpline
 70
8
 71
3
 72
8
 73
4
 74
0
 40
0
 40
0
 40
0
 40
0
 40
1
 40
1
 40
1
 40
1
 10
29.287110
 20
93.960294
 30
0.0
 10
29.058015
 20
93.626958
 30
0.0
 10
29.052275
 20
93.188442
 30
0.0
 10
29.272567
 20
92.849224
 30
0.0
  0
SPLINE
  5
12d
100
AcDbEntity
  8
0
 62
4
100
AcDbSpline
 70
8
 71
3
 72
8
 73
4
 74
0
 40
0
 40
0
 40
0
 40
0
 40
1
 40
1
 40
1
 40
1
 10
29.272567
 20
92.849224
 30
0.0
 10
29.492858
 20
92.510006
 30
0.0
 10
29.895799
 20
92.336890
 30
0.0
 10
30.293497
 20
92.410600
 30
0.0
  0
SPLINE
  5
12e
100
AcDbEntity
  8
0
 62
4
100
AcDbSpline
 70
8
 71
3
 72
8
 73
4
 74
0
 40
0
 40
0
 40
0
 40
0
 40
1
 40
1
 40
1
 40
1
 10
30.293497
 20
92.410600
 30
0.0
 10
30.691196
 20
92.484309
 30
0.0
 10
31.005334
 20
92.790328
 30
0.0
 10
31.089428
 20
93.185961
 30
0.0
  0
SPLINE
  5
12f
100
AcDbEntity
  8
0
 62
4
100
AcDbSpline
 70
8
 71
3
 72
8
 73
4
 74
0
 40
0
 40
0
 40
0
 40
0
 40
1
 40
1
 40
1
 40
1
 10
31.089428
 20
93.185961
 30
0.0
 10
31.144570
 20
93.445387
 30
0.0
 10
31.094397
 20
93.716094
 30
0.0
 10
30.949946
 20
93.938528
 30
0.0
  0
SPLINE
  5
130
100
AcDbEntity
  8
0
 62
4
100
AcDbSpline
 70
8
 71
3
 72
8
 73
4
 74
0
 40
0
 40
0
 40
0
 40
0
 40
1
 40
1
 40
1
 40
1
 10
30.949946
 20
93.938528
 30
0.0
 10
30.805495
 20
94.160962
 30
0.0
 10
30.578599
 20
94.316903
 30
0.0
 10
30.319172
 20
94.372045
 30
0.0
  0
LWPOLYLINE
  5
131
100
AcDbEntity
  8
0
 62
4
100
AcDbPolyline
 90
1
 70
1
 10
100.113777
 20
113.034691
 30
0.0
  0
SPLINE
  5
132
100
AcDbEntity
  8
0
 62
4
100
AcDbSpline
 70
8
 71
3
 72
8
 73
4
 74
0
 40
0
 40
0
 40
0
 40
0
 40
1
 40
1
 40
1
 40
1
 10
96.209559
 20
26.550691
 30
0.0
 10
95.813926
 20
26.634785
 30
0.0
 10
95.406592
 20
26.472275
 30
0.0
 10
95.177497
 20
26.138939
 30
0.0
  0
SPLINE
  5
133
100
AcDbEntity
  8
0
 62
4
100
AcDbSpline
 70
8
 71
3
 72
8
 73
4
 74
0
 40
0
 40
0
 40
0
 40
0
 40
1
 40
1
 40
1
 40
1
 10
95.177497
 20
26.138939
 30
0.0
 10
94.948402
 20
25.805604
 30
0.0
 10
94.942662
 20
25.367088
 30
0.0
 10
95.162954
 20
25.027870
 30
0.0
  0
SPLINE
  5
134
100
AcDbEntity
  8
0
 62
4
100
AcDbSpline
 70
8
 71
3
 72
8
 73
4
 74
0
 40
0
 40
0
 40
0
 40
0
 40
1
 40
1
 40
1
 40
1
 10
95.162954
 20
25.027870
 30
0.0
 10
95.383245
 20
24.688652
 30
0.0
 10
95.786186
 20
24.515536
 30
0.0
 10
96.183884
 20
24.589246
 30
0.0
  0
SPLINE
  5
135
100
AcDbEntity
  8
0
 62
4
100
AcDbSpline
 70
8
 71
3
 72
8
 73
4
 74
0
 40
0
 40
0
 40
0
 40
0
 40
1
 40
1
 40
1
 40
1
 10
96.183884
 20
24.589246
 30
0.0
 10
96.581583
 20
24.662955
 30
0.0
 10
96.895721
 20
24.968974
 30
0.0
 10
96.979815
 20
25.364607
 30
0.0
  0
SPLINE
  5
136
100
AcDbEntity
  8
0
 62
4
100
AcDbSpline
 70
8
 71
3
 72
8
 73
4
 74
0
 40
0
 40
0
 40
0
 40
0
 40
1
 40
1
 40
1
 40
1
 10
96.979815
 20
25.364607
 30
0.0
 10
97.034957
 20
25.624033
 30
0.0
 10
96.984784
 20
25.894740
 30
0.0
 10
96.840333
 20
26.117174
 30
0.0
  0
SPLINE
  5
137
100
AcDbEntity
  8
0
 62
4
100
AcDbSpline
 70
8
 71
3
 72
8
 73
4
 74
0
 40
0
 40
0
 40
0
 40
0
 40
1
 40
1
 40
1
 40
1
 10
96.840333
 20
26.117174
 30
0.0
 10
96.695882
 20
26.339608
 30
0.0
 10
96.468986
 20
26.495548
 30
0.0
 10
96.209559
 20
26.550691
 30
0.0
  0
LWPOLYLINE
  5
138
100
AcDbEntity
  8
0
 62
4
100
AcDbPolyline
 90
1
 70
1
 10
30.319172
 20
94.372045
 30
0.0
  0
SPLINE
  5
139
100
AcDbEntity
  8
0
 62
4
100
AcDbSpline
 70
8
 71
3
 72
8
 73
4
 74
0
 40
0
 40
0
 40
0
 40
0
 40
1
 40
1
 40
1
 40
1
 10
164.524249
 20
67.274157
 30
0.0
 10
164.128616
 20
67.358251
 30
0.0
 10
163.721282
 20
67.195741
 30
0.0
 10
163.492187
 20
66.862406
 30
0.0
  0
SPLINE
  5
13a
100
AcDbEntity
  8
0
 62
4
100
AcDbSpline
 70
8
 71
3
 72
8
 73
4
 74
0
 40
0
 40
0
 40
0
 40
0
 40
1
 40
1
 40
1
 40
1
 10
163.492187
 20
66.862406
 30
0.0
 10
163.263092
 20
66.529071
 30
0.0
 10
163.257352
 20
66.090554
 30
0.0
 10
163.477644
 20
65.751336
 30
0.0
  0
SPLINE
  5
13b
100
AcDbEntity
  8
0
 62
4
100
AcDbSpline
 70
8
 71
3
 72
8
 73
4
 74
0
 40
0
 40
0
 40
0
 40
0
 40
1
 40
1
 40
1
 40
1
 10
163.477644
 20
65.751336
 30
0.0
 10
163.697935
 20
65.412119
 30
0.0
 10
164.100876
 20
65.239003
 30
0.0
 10
164.498575
 20
65.312712
 30
0.0
  0
SPLINE
  5
13c
100
AcDbEntity
  8
0
 62
4
100
AcDbSpline
 70
8
 71
3
 72
8
 73
4
 74
0
 40
0
 40
0
 40
0
 40
0
 40
1
 40
1
 40
1
 40
1
 10
164.498575
 20
65.312712
 30
0.0
 10
164.896273
 20
65.386422
 30
0.0
 10
165.210411
 20
65.692441
 30
0.0
 10
165.294505
 20
66.088073
 30
0.0
  0
SPLINE
  5
13d
100
AcDbEntity
  8
0
 62
4
100
AcDbSpline
 70
8
 71
3
 72
8
 73
4
 74
0
 40
0
 40
0
 40
0
 40
0
 40
1
 40
1
 40
1
 40
1
 10
165.294505
 20
66.088073
 30
0.0
 10
165.409333
 20
66.628301
 30
0.0
 10
165.064478
 20
67.159329
 30
0.0
 10
164.524249
 20
67.274157
 30
0.0
  0
LWPOLYLINE
  5
13e
100
AcDbEntity
  8
0
 62
4
100
AcDbPolyline
 90
1
 70
1
 10
96.209559
 20
26.550691
 30
0.0
  0
SPLINE
  5
13f
100
AcDbEntity
  8
0
 62
4
100
AcDbSpline
 70
8
 71
3
 72
8
 73
4
 74
0
 40
0
 40
0
 40
0
 40
0
 40
1
 40
1
 40
1
 40
1
 10
164.310115
 20
12.484698
 30
0.0
 10
163.756767
 20
12.484698
 30
0.0
 10
163.308301
 20
12.931958
 30
0.0
 10
163.308301
 20
13.484881
 30
0.0
  0
SPLINE
  5
140
100
AcDbEntity
  8
0
 62
4
100
AcDbSpline
 70
8
 71
3
 72
8
 73
4
 74
0
 40
0
 40
0
 40
0
 40
0
 40
1
 40
1
 40
1
 40
1
 10
163.308301
 20
13.484881
 30
0.0
 10
163.308301
 20
14.036719
 30
0.0
 10
163.756767
 20
14.484702
 30
0.0
 10
164.310115
 20
14.484702
 30
0.0
  0
SPLINE
  5
141
100
AcDbEntity
  8
0
 62
4
100
AcDbSpline
 70
8
 71
3
 72
8
 73
4
 74
0
 40
0
 40
0
 40
0
 40
0
 40
1
 40
1
 40
1
 40
1
 10
164.310115
 20
14.484702
 30
0.0
 10
164.859847
 20
14.484702
 30
0.0
 10
165.308312
 20
14.036719
 30
0.0
 10
165.308312
 20
13.484881
 30
0.0
  0
SPLINE
  5
142
100
AcDbEntity
  8
0
 62
4
100
AcDbSpline
 70
8
 71
3
 72
8
 73
4
 74
0
 40
0
 40
0
 40
0
 40
0
 40
1
 40
1
 40
1
 40
1
 10
165.308312
 20
13.484881
 30
0.0
 10
165.308312
 20
12.931958
 30
0.0
 10
164.859847
 20
12.484698
 30
0.0
 10
164.310115
 20
12.484698
 30
0.0
  0
LWPOLYLINE
  5
143
100
AcDbEntity
  8
0
 62
4
100
AcDbPolyline
 90
1
 70
1
 10
164.524249
 20
67.274157
 30
0.0
  0
SPLINE
  5
144
100
AcDbEntity
  8
0
 62
4
100
AcDbSpline
 70
8
 71
3
 72
8
 73
4
 74
0
 40
0
 40
0
 40
0
 40
0
 40
1
 40
1
 40
1
 40
1
 10
164.310115
 20
128.381076
 30
0.0
 10
163.756767
 20
128.381076
 30
0.0
 10
163.308301
 20
128.828336
 30
0.0
 10
163.308301
 20
129.381259
 30
0.0
  0
SPLINE
  5
145
100
AcDbEntity
  8
0
 62
4
100
AcDbSpline
 70
8
 71
3
 72
8
 73
4
 74
0
 40
0
 40
0
 40
0
 40
0
 40
1
 40
1
 40
1
 40
1
 10
163.308301
 20
129.381259
 30
0.0
 10
163.308301
 20
129.933097
 30
0.0
 10
163.756767
 20
130.381080
 30
0.0
 10
164.310115
 20
130.381080
 30
0.0
  0
SPLINE
  5
146
100
AcDbEntity
  8
0
 62
4
100
AcDbSpline
 70
8
 71
3
 72
8
 73
4
 74
0
 40
0
 40
0
 40
0
 40
0
 40
1
 40
1
 40
1
 40
1
 10
164.310115
 20
130.381080
 30
0.0
 10
164.859847
 20
130.381080
 30
0.0
 10
165.308312
 20
129.933097
 30
0.0
 10
165.308312
 20
129.381259
 30
0.0
  0
SPLINE
  5
147
100
AcDbEntity
  8
0
 62
4
100
AcDbSpline
 70
8
 71
3
 72
8
 73
4
 74
0
 40
0
 40
0
 40
0
 40
0
 40
1
 40
1
 40
1
 40
1
 10
165.308312
 20
129.381259
 30
0.0
 10
165.308312
 20
128.828336
 30
0.0
 10
164.859847
 20
128.381076
 30
0.0
 10
164.310115
 20
128.381076
 30
0.0
  0
LWPOLYLINE
  5
148
100
AcDbEntity
  8
0
 62
4
100
AcDbPolyline
 90
1
 70
1
 10
164.310115
 20
12.484698
 30
0.0
  0
SPLINE
  5
149
100
AcDbEntity
  8
0
 62
4
100
AcDbSpline
 70
8
 71
3
 72
8
 73
4
 74
0
 40
0
 40
0
 40
0
 40
0
 40
1
 40
1
 40
1
 40
1
 10
26.638972
 20
128.381076
 30
0.0
 10
26.085624
 20
128.381076
 30
0.0
 10
25.637158
 20
128.828336
 30
0.0
 10
25.637158
 20
129.381259
 30
0.0
  0
SPLINE
  5
14a
100
AcDbEntity
  8
0
 62
4
100
AcDbSpline
 70
8
 71
3
 72
8
 73
4
 74
0
 40
0
 40
0
 40
0
 40
0
 40
1
 40
1
 40
1
 40
1
 10
25.637158
 20
129.381259
 30
0.0
 10
25.637158
 20
129.933097
 30
0.0
 10
26.085624
 20
130.381080
 30
0.0
 10
26.638972
 20
130.381080
 30
0.0
  0
SPLINE
  5
14b
100
AcDbEntity
  8
0
 62
4
100
AcDbSpline
 70
8
 71
3
 72
8
 73
4
 74
0
 40
0
 40
0
 40
0
 40
0
 40
1
 40
1
 40
1
 40
1
 10
26.638972
 20
130.381080
 30
0.0
 10
27.188704
 20
130.381080
 30
0.0
 10
27.637169
 20
129.933097
 30
0.0
 10
27.637169
 20
129.381259
 30
0.0
  0
SPLINE
  5
14c
100
AcDbEntity
  8
0
 62
4
100
AcDbSpline
 70
8
 71
3
 72
8
 73
4
 74
0
 40
0
 40
0
 40
0
 40
0
 40
1
 40
1
 40
1
 40
1
 10
27.637169
 20
129.381259
 30
0.0
 10
27.637169
 20
128.828336
 30
0.0
 10
27.188704
 20
128.381076
 30
0.0
 10
26.638972
 20
128.381076
 30
0.0
  0
LWPOLYLINE
  5
14d
100
AcDbEntity
  8
0
 62
4
100
AcDbPolyline
 90
1
 70
1
 10
164.310115
 20
128.381076
 30
0.0
  0
SPLINE
  5
14e
100
AcDbEntity
  8
0
 62
4
100
AcDbSpline
 70
8
 71
3
 72
8
 73
4
 74
0
 40
0
 40
0
 40
0
 40
0
 40
1
 40
1
 40
1
 40
1
 10
26.638972
 20
17.869587
 30
0.0
 10
26.085624
 20
17.869587
 30
0.0
 10
25.637158
 20
18.316847
 30
0.0
 10
25.637158
 20
18.869770
 30
0.0
  0
SPLINE
  5
14f
100
AcDbEntity
  8
0
 62
4
100
AcDbSpline
 70
8
 71
3
 72
8
 73
4
 74
0
 40
0
 40
0
 40
0
 40
0
 40
1
 40
1
 40
1
 40
1
 10
25.637158
 20
18.869770
 30
0.0
 10
25.637158
 20
19.421607
 30
0.0
 10
26.085624
 20
19.869591
 30
0.0
 10
26.638972
 20
19.869591
 30
0.0
  0
SPLINE
  5
150
100
AcDbEntity
  8
0
 62
4
100
AcDbSpline
 70
8
 71
3
 72
8
 73
4
 74
0
 40
0
 40
0
 40
0
 40
0
 40
1
 40
1
 40
1
 40
1
 10
26.638972
 20
19.869591
 30
0.0
 10
27.188704
 20
19.869591
 30
0.0
 10
27.637169
 20
19.421607
 30
0.0
 10
27.637169
 20
18.869770
 30
0.0
  0
SPLINE
  5
151
100
AcDbEntity
  8
0
 62
4
100
AcDbSpline
 70
8
 71
3
 72
8
 73
4
 74
0
 40
0
 40
0
 40
0
 40
0
 40
1
 40
1
 40
1
 40
1
 10
27.637169
 20
18.869770
 30
0.0
 10
27.637169
 20
18.316847
 30
0.0
 10
27.188704
 20
17.869587
 30
0.0
 10
26.638972
 20
17.869587
 30
0.0
  0
LWPOLYLINE
  5
152
100
AcDbEntity
  8
0
 62
4
100
AcDbPolyline
 90
1
 70
1
 10
26.638972
 20
128.381076
 30
0.0
  0
LWPOLYLINE
  5
153
100
AcDbEntity
  8
0
 62
4
100
AcDbPolyline
 90
1
 70
1
 10
26.638972
 20
17.869587
 30
0.0
  0
ENDSEC
  0
SECTION
  2
OBJECTS
  0
DICTIONARY
  5
C
330
0
100
AcDbDictionary
  3
ACAD_GROUP
350
D
  3
ACAD_MLINESTYLE
350
17
  0
DICTIONARY
  5
D
330
C
100
AcDbDictionary
  0
DICTIONARY
  5
1A
330
C
100
AcDbDictionary
  0
DICTIONARY
  5
17
330
C
100
AcDbDictionary
  3
STANDARD
350
18
  0
DICTIONARY
  5
19
330
C
100
AcDbDictionary
  0
ENDSEC
  0
EOF
