  0
SECTION
  2
HEADER
  9
$ACADVER
  1
AC1014
  9
$HANDSEED
  5
FFFF
  9
$MEASUREMENT
 70
     1
  0
ENDSEC
  0
SECTION
  2
TABLES
  0
TABLE
  2
VPORT
  5
8
330
0
100
AcDbSymbolTable
 70
     4
  0
VPORT
  5
2E
330
8
100
AcDbSymbolTableRecord
100
AcDbViewportTableRecord
  2
*ACTIVE
 70
     0
 10
0.0
 20
0.0
 11
1.0
 21
1.0
 12
210.0
 22
148.5
 13
0.0
 23
0.0
 14
10.0
 24
10.0
 15
10.0
 25
10.0
 16
0.0
 26
0.0
 36
1.0
 17
0.0
 27
0.0
 37
0.0
 40
341.0
 41
1.24
 42
50.0
 43
0.0
 44
0.0
 50
0.0
 51
0.0
 71
     0
 72
   100
 73
     1
 74
     3
 75
     0
 76
     0
 77
     0
 78
     0
  0
ENDTAB
  0
TABLE
  2
LTYPE
  5
5
330
0
100
AcDbSymbolTable
 70
     1
  0
LTYPE
  5
14
330
5
100
AcDbSymbolTableRecord
100
AcDbLinetypeTableRecord
  2
BYBLOCK
 70
     0
  3

 72
    65
 73
     0
 40
0.0
  0
LTYPE
  5
15
330
5
100
AcDbSymbolTableRecord
100
AcDbLinetypeTableRecord
  2
BYLAYER
 70
     0
  3

 72
    65
 73
     0
 40
0.0
  0
LTYPE
  5
16
330
5
100
AcDbSymbolTableRecord
100
AcDbLinetypeTableRecord
  2
CONTINUOUS
 70
     0
  3
Solid line
 72
    65
 73
     0
 40
0.0
  0
ENDTAB
  0
TABLE
  2
LAYER
  5
2
100
AcDbSymbolTable
 70
1
  0
LAYER
  5
50
100
AcDbSymbolTableRecord
100
AcDbLayerTableRecord
  2
0
 70
0
  6
CONTINUOUS
  0
ENDTAB
  0
TABLE
  2
STYLE
  5
3
330
0
100
AcDbSymbolTable
 70
     1
  0
STYLE
  5
11
330
3
100
AcDbSymbolTableRecord
100
AcDbTextStyleTableRecord
  2
STANDARD
 70
     0
 40
0.0
 41
1.0
 50
0.0
 71
     0
 42
2.5
  3
txt
  4

  0
ENDTAB
  0
TABLE
  2
VIEW
  5
6
330
0
100
AcDbSymbolTable
 70
     0
  0
ENDTAB
  0
TABLE
  2
UCS
  5
7
330
0
100
AcDbSymbolTable
 70
     0
  0
ENDTAB
  0
TABLE
  2
APPID
  5
9
330
0
100
AcDbSymbolTable
 70
     2
  0
APPID
  5
12
330
9
100
AcDbSymbolTableRecord
100
AcDbRegAppTableRecord
  2
ACAD
 70
     0
  0
ENDTAB
  0
TABLE
  2
DIMSTYLE
  5
A
330
0
100
AcDbSymbolTable
 70
     1
  0
DIMSTYLE
105
27
330
A
100
AcDbSymbolTableRecord
100
AcDbDimStyleTableRecord
  2
ISO-25
 70
     0
  3

  4

  5

  6

  7

 40
1.0
 41
2.5
 42
0.625
 43
3.75
 44
1.25
 45
0.0
 46
0.0
 47
0.0
 48
0.0
140
2.5
141
2.5
142
0.0
143
0.03937007874016
144
1.0
145
0.0
146
1.0
147
0.625
 71
     0
 72
     0
 73
     0
 74
     0
 75
     0
 76
     0
 77
     1
 78
     8
170
     0
171
     3
172
     1
173
     0
174
     0
175
     0
176
     0
177
     0
178
     0
270
     2
271
     2
272
     2
273
     2
274
     3
340
11
275
     0
280
     0
281
     0
282
     0
283
     0
284
     8
285
     0
286
     0
287
     3
288
     0
  0
ENDTAB
  0
TABLE
  2
BLOCK_RECORD
  5
1
330
0
100
AcDbSymbolTable
 70
     1
  0
BLOCK_RECORD
  5
1F
330
1
100
AcDbSymbolTableRecord
100
AcDbBlockTableRecord
  2
*MODEL_SPACE
  0
BLOCK_RECORD
  5
1B
330
1
100
AcDbSymbolTableRecord
100
AcDbBlockTableRecord
  2
*PAPER_SPACE
  0
ENDTAB
  0
ENDSEC
  0
SECTION
  2
BLOCKS
  0
BLOCK
  5
20
330
1F
100
AcDbEntity
  8
0
100
AcDbBlockBegin
  2
*MODEL_SPACE
 70
     0
 10
0.0
 20
0.0
 30
0.0
  3
*MODEL_SPACE
  1

  0
ENDBLK
  5
21
330
1F
100
AcDbEntity
  8
0
100
AcDbBlockEnd
  0
BLOCK
  5
1C
330
1B
100
AcDbEntity
 67
     1
  8
0
100
AcDbBlockBegin
  2
*PAPER_SPACE
  1

  0
ENDBLK
  5
1D
330
1B
100
AcDbEntity
 67
     1
  8
0
100
AcDbBlockEnd
  0
ENDSEC
  0
SECTION
  2
ENTITIES
  0
LWPOLYLINE
  5
100
100
AcDbEntity
  8
0
 62
7
100
AcDbPolyline
 90
4
 70
1
 10
-0.000002
 20
207.427628
 30
0.0
 10
207.427613
 20
207.427628
 30
0.0
 10
207.427613
 20
32.273192
 30
0.0
 10
-0.000002
 20
32.273192
 30
0.0
  0
LWPOLYLINE
  5
101
100
AcDbEntity
  8
0
 62
4
100
AcDbPolyline
 90
29
 70
1
 10
181.698022
 20
108.934576
 30
0.0
 10
191.251160
 20
153.877808
 30
0.0
 10
191.251160
 20
175.105934
 30
0.0
 10
181.730447
 20
183.476096
 30
0.0
 10
181.730447
 20
188.000856
 30
0.0
 10
173.583645
 20
188.000856
 30
0.0
 10
173.583645
 20
183.476096
 30
0.0
 10
17.919223
 20
183.476096
 30
0.0
 10
17.919223
 20
188.000856
 30
0.0
 10
11.146022
 20
188.000856
 30
0.0
 10
11.146022
 20
183.476096
 30
0.0
 10
8.765380
 20
172.647498
 30
0.0
 10
7.316120
 20
156.802572
 30
0.0
 10
7.463115
 20
131.600445
 30
0.0
 10
3.745003
 20
112.833460
 30
0.0
 10
4.130093
 20
88.246993
 30
0.0
 10
8.130151
 20
81.910105
 30
0.0
 10
8.329645
 20
58.016519
 30
0.0
 10
11.518759
 20
55.551473
 30
0.0
 10
11.518759
 20
52.205752
 30
0.0
 10
17.744743
 20
52.208456
 30
0.0
 10
17.744743
 20
55.553877
 30
0.0
 10
109.981085
 20
55.553877
 30
0.0
 10
159.551788
 20
45.064809
 30
0.0
 10
179.069094
 20
45.064809
 30
0.0
 10
180.288598
 20
50.803163
 30
0.0
 10
176.070209
 20
51.700063
 30
0.0
 10
186.227386
 20
102.205575
 30
0.0
 10
181.698022
 20
108.934576
 30
0.0
  0
LWPOLYLINE
  5
102
100
AcDbEntity
  8
0
 62
4
100
AcDbPolyline
 90
4
 70
1
 10
15.255333
 20
77.608074
 30
0.0
 10
62.856438
 20
77.608074
 30
0.0
 10
62.856438
 20
60.983126
 30
0.0
 10
15.255333
 20
60.983126
 30
0.0
  0
LWPOLYLINE
  5
103
100
AcDbEntity
  8
0
 62
4
100
AcDbPolyline
 90
4
 70
1
 10
171.489834
 20
155.021166
 30
0.0
 10
187.707712
 20
151.573956
 30
0.0
 10
184.260492
 20
135.356124
 30
0.0
 10
168.042614
 20
138.803334
 30
0.0
  0
LWPOLYLINE
  5
104
100
AcDbEntity
  8
0
 62
4
100
AcDbPolyline
 90
4
 70
1
 10
149.422609
 20
159.711691
 30
0.0
 10
165.640487
 20
156.264481
 30
0.0
 10
162.193267
 20
140.046649
 30
0.0
 10
145.975389
 20
143.493860
 30
0.0
  0
LWPOLYLINE
  5
105
100
AcDbEntity
  8
0
 62
4
100
AcDbPolyline
 90
4
 70
1
 10
127.941376
 20
167.159079
 30
0.0
 10
144.159253
 20
163.711869
 30
0.0
 10
140.712033
 20
147.494037
 30
0.0
 10
124.494155
 20
150.941247
 30
0.0
  0
LWPOLYLINE
  5
106
100
AcDbEntity
  8
0
 62
4
100
AcDbPolyline
 90
4
 70
1
 10
106.460794
 20
174.609532
 30
0.0
 10
122.678671
 20
171.162322
 30
0.0
 10
119.231451
 20
154.944490
 30
0.0
 10
103.013573
 20
158.391700
 30
0.0
  0
LWPOLYLINE
  5
107
100
AcDbEntity
  8
0
 62
4
100
AcDbPolyline
 90
4
 70
1
 10
83.807232
 20
176.540064
 30
0.0
 10
100.025110
 20
173.092854
 30
0.0
 10
96.577890
 20
156.875022
 30
0.0
 10
80.360012
 20
160.322233
 30
0.0
  0
LWPOLYLINE
  5
108
100
AcDbEntity
  8
0
 62
4
100
AcDbPolyline
 90
4
 70
1
 10
59.394803
 20
170.197315
 30
0.0
 10
75.612681
 20
166.750105
 30
0.0
 10
72.165461
 20
150.532273
 30
0.0
 10
55.947583
 20
153.979483
 30
0.0
  0
LWPOLYLINE
  5
109
100
AcDbEntity
  8
0
 62
4
100
AcDbPolyline
 90
4
 70
1
 10
36.154943
 20
169.371049
 30
0.0
 10
52.372821
 20
165.923839
 30
0.0
 10
48.925601
 20
149.706008
 30
0.0
 10
32.707723
 20
153.153218
 30
0.0
  0
LWPOLYLINE
  5
10a
100
AcDbEntity
  8
0
 62
4
100
AcDbPolyline
 90
4
 70
1
 10
14.087718
 20
174.061574
 30
0.0
 10
30.305596
 20
170.614364
 30
0.0
 10
26.858376
 20
154.396533
 30
0.0
 10
10.640498
 20
157.843743
 30
0.0
  0
LWPOLYLINE
  5
10b
100
AcDbEntity
  8
0
 62
4
100
AcDbPolyline
 90
4
 70
1
 10
25.947598
 20
148.476519
 30
0.0
 10
42.165476
 20
145.029309
 30
0.0
 10
38.718256
 20
128.811477
 30
0.0
 10
22.500378
 20
132.258687
 30
0.0
  0
LWPOLYLINE
  5
10c
100
AcDbEntity
  8
0
 62
4
100
AcDbPolyline
 90
4
 70
1
 10
18.504480
 20
126.994435
 30
0.0
 10
34.715002
 20
123.548788
 30
0.0
 10
31.267782
 20
107.330957
 30
0.0
 10
15.057260
 20
110.776603
 30
0.0
  0
LWPOLYLINE
  5
10d
100
AcDbEntity
  8
0
 62
4
100
AcDbPolyline
 90
4
 70
1
 10
16.566521
 20
104.342195
 30
0.0
 10
32.784399
 20
100.894985
 30
0.0
 10
29.337179
 20
84.677153
 30
0.0
 10
13.119301
 20
88.124364
 30
0.0
  0
LWPOLYLINE
  5
10e
100
AcDbEntity
  8
0
 62
4
100
AcDbPolyline
 90
4
 70
1
 10
45.323187
 20
103.995829
 30
0.0
 10
61.541065
 20
100.548619
 30
0.0
 10
58.093845
 20
84.330788
 30
0.0
 10
41.875967
 20
87.777998
 30
0.0
  0
LWPOLYLINE
  5
10f
100
AcDbEntity
  8
0
 62
4
100
AcDbPolyline
 90
4
 70
1
 10
50.013726
 20
126.062991
 30
0.0
 10
66.231604
 20
122.615781
 30
0.0
 10
62.784384
 20
106.397949
 30
0.0
 10
46.566506
 20
109.845160
 30
0.0
  0
LWPOLYLINE
  5
110
100
AcDbEntity
  8
0
 62
4
100
AcDbPolyline
 90
4
 70
1
 10
54.704264
 20
148.130153
 30
0.0
 10
70.922142
 20
144.682943
 30
0.0
 10
67.474922
 20
128.465111
 30
0.0
 10
51.257044
 20
131.912321
 30
0.0
  0
LWPOLYLINE
  5
111
100
AcDbEntity
  8
0
 62
4
100
AcDbPolyline
 90
4
 70
1
 10
79.116759
 20
154.473209
 30
0.0
 10
95.334637
 20
151.025998
 30
0.0
 10
91.887416
 20
134.808167
 30
0.0
 10
75.669539
 20
138.255377
 30
0.0
  0
LWPOLYLINE
  5
112
100
AcDbEntity
  8
0
 62
4
100
AcDbPolyline
 90
4
 70
1
 10
101.770255
 20
152.542370
 30
0.0
 10
117.988133
 20
149.095160
 30
0.0
 10
114.540913
 20
132.877328
 30
0.0
 10
98.323035
 20
136.324538
 30
0.0
  0
LWPOLYLINE
  5
113
100
AcDbEntity
  8
0
 62
4
100
AcDbPolyline
 90
4
 70
1
 10
97.079782
 20
130.475515
 30
0.0
 10
113.297660
 20
127.028304
 30
0.0
 10
109.850439
 20
110.810473
 30
0.0
 10
93.632562
 20
114.257683
 30
0.0
  0
LWPOLYLINE
  5
114
100
AcDbEntity
  8
0
 62
4
100
AcDbPolyline
 90
4
 70
1
 10
74.426220
 20
132.406047
 30
0.0
 10
90.644098
 20
128.958837
 30
0.0
 10
87.196878
 20
112.741005
 30
0.0
 10
70.979000
 20
116.188215
 30
0.0
  0
LWPOLYLINE
  5
115
100
AcDbEntity
  8
0
 62
4
100
AcDbPolyline
 90
4
 70
1
 10
69.735682
 20
110.338885
 30
0.0
 10
85.953559
 20
106.891675
 30
0.0
 10
82.506339
 20
90.673843
 30
0.0
 10
66.288461
 20
94.121054
 30
0.0
  0
LWPOLYLINE
  5
116
100
AcDbEntity
  8
0
 62
4
100
AcDbPolyline
 90
4
 70
1
 10
92.389243
 20
108.408353
 30
0.0
 10
108.607121
 20
104.961143
 30
0.0
 10
105.159901
 20
88.743311
 30
0.0
 10
88.942023
 20
92.190521
 30
0.0
  0
LWPOLYLINE
  5
117
100
AcDbEntity
  8
0
 62
4
100
AcDbPolyline
 90
4
 70
1
 10
78.249635
 20
82.583608
 30
0.0
 10
94.467513
 20
79.136398
 30
0.0
 10
91.020292
 20
62.918566
 30
0.0
 10
74.802415
 20
66.365776
 30
0.0
  0
LWPOLYLINE
  5
118
100
AcDbEntity
  8
0
 62
4
100
AcDbPolyline
 90
4
 70
1
 10
105.833359
 20
76.720517
 30
0.0
 10
122.051237
 20
73.273307
 30
0.0
 10
118.604017
 20
57.055475
 30
0.0
 10
102.386139
 20
60.502685
 30
0.0
  0
LWPOLYLINE
  5
119
100
AcDbEntity
  8
0
 62
4
100
AcDbPolyline
 90
4
 70
1
 10
113.869825
 20
100.957900
 30
0.0
 10
130.087703
 20
97.510690
 30
0.0
 10
126.640483
 20
81.292858
 30
0.0
 10
110.422605
 20
84.740068
 30
0.0
  0
LWPOLYLINE
  5
11a
100
AcDbEntity
  8
0
 62
4
100
AcDbPolyline
 90
4
 70
1
 10
123.250902
 20
145.092224
 30
0.0
 10
139.468780
 20
141.645013
 30
0.0
 10
136.021560
 20
125.427182
 30
0.0
 10
119.803682
 20
128.874392
 30
0.0
  0
LWPOLYLINE
  5
11b
100
AcDbEntity
  8
0
 62
4
100
AcDbPolyline
 90
4
 70
1
 10
118.560364
 20
123.025062
 30
0.0
 10
134.778242
 20
119.577852
 30
0.0
 10
131.331021
 20
103.360020
 30
0.0
 10
115.113144
 20
106.807230
 30
0.0
  0
LWPOLYLINE
  5
11c
100
AcDbEntity
  8
0
 62
4
100
AcDbPolyline
 90
4
 70
1
 10
144.732070
 20
137.644529
 30
0.0
 10
160.949948
 20
134.197319
 30
0.0
 10
157.502728
 20
117.979488
 30
0.0
 10
141.284850
 20
121.426698
 30
0.0
  0
LWPOLYLINE
  5
11d
100
AcDbEntity
  8
0
 62
4
100
AcDbPolyline
 90
4
 70
1
 10
140.041597
 20
115.577674
 30
0.0
 10
156.259475
 20
112.130464
 30
0.0
 10
152.812255
 20
95.912632
 30
0.0
 10
136.594377
 20
99.359842
 30
0.0
  0
LWPOLYLINE
  5
11e
100
AcDbEntity
  8
0
 62
4
100
AcDbPolyline
 90
4
 70
1
 10
135.351058
 20
93.510512
 30
0.0
 10
151.568936
 20
90.063302
 30
0.0
 10
148.121716
 20
73.845470
 30
0.0
 10
131.903838
 20
77.292681
 30
0.0
  0
LWPOLYLINE
  5
11f
100
AcDbEntity
  8
0
 62
4
100
AcDbPolyline
 90
4
 70
1
 10
157.418283
 20
88.819987
 30
0.0
 10
173.636161
 20
85.372777
 30
0.0
 10
170.188941
 20
69.154945
 30
0.0
 10
153.971063
 20
72.602155
 30
0.0
  0
LWPOLYLINE
  5
120
100
AcDbEntity
  8
0
 62
4
100
AcDbPolyline
 90
4
 70
1
 10
162.108822
 20
110.887149
 30
0.0
 10
178.326700
 20
107.439939
 30
0.0
 10
174.879480
 20
91.222107
 30
0.0
 10
158.661602
 20
94.669317
 30
0.0
  0
LWPOLYLINE
  5
121
100
AcDbEntity
  8
0
 62
4
100
AcDbPolyline
 90
4
 70
1
 10
166.799295
 20
132.954004
 30
0.0
 10
183.017173
 20
129.506794
 30
0.0
 10
179.569953
 20
113.288962
 30
0.0
 10
163.352075
 20
116.736173
 30
0.0
  0
LWPOLYLINE
  5
122
100
AcDbEntity
  8
0
 62
4
100
AcDbPolyline
 90
4
 70
1
 10
130.660520
 20
71.443350
 30
0.0
 10
171.702494
 20
62.719625
 30
0.0
 10
168.255273
 20
46.501794
 30
0.0
 10
127.213300
 20
55.225519
 30
0.0
  0
LWPOLYLINE
  5
123
100
AcDbEntity
  8
0
 62
4
100
AcDbPolyline
 90
4
 70
1
 10
180.178436
 20
98.818811
 30
0.0
 10
183.653587
 20
98.080145
 30
0.0
 10
182.914919
 20
94.605003
 30
0.0
 10
179.439767
 20
95.343669
 30
0.0
  0
SPLINE
  5
124
100
AcDbEntity
  8
0
 62
4
100
AcDbSpline
 70
8
 71
3
 72
8
 73
4
 74
0
 40
0
 40
0
 40
0
 40
0
 40
1
 40
1
 40
1
 40
1
 10
166.435825
 20
174.737173
 30
0.0
 10
165.967293
 20
174.836762
 30
0.0
 10
165.484904
 20
174.644308
 30
0.0
 10
165.213596
 20
174.249553
 30
0.0
  0
SPLINE
  5
125
100
AcDbEntity
  8
0
 62
4
100
AcDbSpline
 70
8
 71
3
 72
8
 73
4
 74
0
 40
0
 40
0
 40
0
 40
0
 40
1
 40
1
 40
1
 40
1
 10
165.213596
 20
174.249553
 30
0.0
 10
164.942289
 20
173.854798
 30
0.0
 10
164.935491
 20
173.335482
 30
0.0
 10
165.196373
 20
172.933761
 30
0.0
  0
SPLINE
  5
126
100
AcDbEntity
  8
0
 62
4
100
AcDbSpline
 70
8
 71
3
 72
8
 73
4
 74
0
 40
0
 40
0
 40
0
 40
0
 40
1
 40
1
 40
1
 40
1
 10
165.196373
 20
172.933761
 30
0.0
 10
165.457255
 20
172.532039
 30
0.0
 10
165.934441
 20
172.327025
 30
0.0
 10
166.405419
 20
172.414316
 30
0.0
  0
SPLINE
  5
127
100
AcDbEntity
  8
0
 62
4
100
AcDbSpline
 70
8
 71
3
 72
8
 73
4
 74
0
 40
0
 40
0
 40
0
 40
0
 40
1
 40
1
 40
1
 40
1
 10
166.405419
 20
172.414316
 30
0.0
 10
166.876398
 20
172.501607
 30
0.0
 10
167.248417
 20
172.864013
 30
0.0
 10
167.348006
 20
173.332544
 30
0.0
  0
SPLINE
  5
128
100
AcDbEntity
  8
0
 62
4
100
AcDbSpline
 70
8
 71
3
 72
8
 73
4
 74
0
 40
0
 40
0
 40
0
 40
0
 40
1
 40
1
 40
1
 40
1
 10
167.348006
 20
173.332544
 30
0.0
 10
167.413310
 20
173.639771
 30
0.0
 10
167.353892
 20
173.960358
 30
0.0
 10
167.182825
 20
174.223777
 30
0.0
  0
SPLINE
  5
129
100
AcDbEntity
  8
0
 62
4
100
AcDbSpline
 70
8
 71
3
 72
8
 73
4
 74
0
 40
0
 40
0
 40
0
 40
0
 40
1
 40
1
 40
1
 40
1
 10
167.182825
 20
174.223777
 30
0.0
 10
167.011757
 20
174.487196
 30
0.0
 10
166.743054
 20
174.671870
 30
0.0
 10
166.435825
 20
174.737173
 30
0.0
  0
LWPOLYLINE
  5
12a
100
AcDbEntity
  8
0
 62
4
100
AcDbPolyline
 90
4
 70
1
 10
178.053702
 20
88.823256
 30
0.0
 10
181.528854
 20
88.084590
 30
0.0
 10
180.790185
 20
84.609448
 30
0.0
 10
177.315034
 20
85.348115
 30
0.0
  0
SPLINE
  5
12b
100
AcDbEntity
  8
0
 62
4
100
AcDbSpline
 70
8
 71
3
 72
8
 73
4
 74
0
 40
0
 40
0
 40
0
 40
0
 40
1
 40
1
 40
1
 40
1
 10
14.044114
 20
145.009712
 30
0.0
 10
13.575582
 20
145.109300
 30
0.0
 10
13.093194
 20
144.916847
 30
0.0
 10
12.821886
 20
144.522092
 30
0.0
  0
SPLINE
  5
12c
100
AcDbEntity
  8
0
 62
4
100
AcDbSpline
 70
8
 71
3
 72
8
 73
4
 74
0
 40
0
 40
0
 40
0
 40
0
 40
1
 40
1
 40
1
 40
1
 10
12.821886
 20
144.522092
 30
0.0
 10
12.550578
 20
144.127337
 30
0.0
 10
12.543781
 20
143.608021
 30
0.0
 10
12.804663
 20
143.206299
 30
0.0
  0
SPLINE
  5
12d
100
AcDbEntity
  8
0
 62
4
100
AcDbSpline
 70
8
 71
3
 72
8
 73
4
 74
0
 40
0
 40
0
 40
0
 40
0
 40
1
 40
1
 40
1
 40
1
 10
12.804663
 20
143.206299
 30
0.0
 10
13.065545
 20
142.804578
 30
0.0
 10
13.542731
 20
142.599564
 30
0.0
 10
14.013709
 20
142.686855
 30
0.0
  0
SPLINE
  5
12e
100
AcDbEntity
  8
0
 62
4
100
AcDbSpline
 70
8
 71
3
 72
8
 73
4
 74
0
 40
0
 40
0
 40
0
 40
0
 40
1
 40
1
 40
1
 40
1
 10
14.013709
 20
142.686855
 30
0.0
 10
14.484687
 20
142.774146
 30
0.0
 10
14.856707
 20
143.136552
 30
0.0
 10
14.956296
 20
143.605082
 30
0.0
  0
SPLINE
  5
12f
100
AcDbEntity
  8
0
 62
4
100
AcDbSpline
 70
8
 71
3
 72
8
 73
4
 74
0
 40
0
 40
0
 40
0
 40
0
 40
1
 40
1
 40
1
 40
1
 10
14.956296
 20
143.605082
 30
0.0
 10
15.021599
 20
143.912310
 30
0.0
 10
14.962182
 20
144.232896
 30
0.0
 10
14.791114
 20
144.496316
 30
0.0
  0
SPLINE
  5
130
100
AcDbEntity
  8
0
 62
4
100
AcDbSpline
 70
8
 71
3
 72
8
 73
4
 74
0
 40
0
 40
0
 40
0
 40
0
 40
1
 40
1
 40
1
 40
1
 10
14.791114
 20
144.496316
 30
0.0
 10
14.620047
 20
144.759735
 30
0.0
 10
14.351343
 20
144.944409
 30
0.0
 10
14.044114
 20
145.009712
 30
0.0
  0
LWPOLYLINE
  5
131
100
AcDbEntity
  8
0
 62
4
100
AcDbPolyline
 90
1
 70
1
 10
166.435825
 20
174.737173
 30
0.0
  0
SPLINE
  5
132
100
AcDbEntity
  8
0
 62
4
100
AcDbSpline
 70
8
 71
3
 72
8
 73
4
 74
0
 40
0
 40
0
 40
0
 40
0
 40
1
 40
1
 40
1
 40
1
 10
97.016789
 20
63.716344
 30
0.0
 10
96.548257
 20
63.815933
 30
0.0
 10
96.065868
 20
63.623480
 30
0.0
 10
95.794560
 20
63.228725
 30
0.0
  0
SPLINE
  5
133
100
AcDbEntity
  8
0
 62
4
100
AcDbSpline
 70
8
 71
3
 72
8
 73
4
 74
0
 40
0
 40
0
 40
0
 40
0
 40
1
 40
1
 40
1
 40
1
 10
95.794560
 20
63.228725
 30
0.0
 10
95.523253
 20
62.833970
 30
0.0
 10
95.516455
 20
62.314653
 30
0.0
 10
95.777337
 20
61.912932
 30
0.0
  0
SPLINE
  5
134
100
AcDbEntity
  8
0
 62
4
100
AcDbSpline
 70
8
 71
3
 72
8
 73
4
 74
0
 40
0
 40
0
 40
0
 40
0
 40
1
 40
1
 40
1
 40
1
 10
95.777337
 20
61.912932
 30
0.0
 10
96.038219
 20
61.511211
 30
0.0
 10
96.515405
 20
61.306197
 30
0.0
 10
96.986383
 20
61.393488
 30
0.0
  0
SPLINE
  5
135
100
AcDbEntity
  8
0
 62
4
100
AcDbSpline
 70
8
 71
3
 72
8
 73
4
 74
0
 40
0
 40
0
 40
0
 40
0
 40
1
 40
1
 40
1
 40
1
 10
96.986383
 20
61.393488
 30
0.0
 10
97.457362
 20
61.480779
 30
0.0
 10
97.829382
 20
61.843184
 30
0.0
 10
97.928971
 20
62.311715
 30
0.0
  0
SPLINE
  5
136
100
AcDbEntity
  8
0
 62
4
100
AcDbSpline
 70
8
 71
3
 72
8
 73
4
 74
0
 40
0
 40
0
 40
0
 40
0
 40
1
 40
1
 40
1
 40
1
 10
97.928971
 20
62.311715
 30
0.0
 10
97.994274
 20
62.618943
 30
0.0
 10
97.934856
 20
62.939529
 30
0.0
 10
97.763789
 20
63.202948
 30
0.0
  0
SPLINE
  5
137
100
AcDbEntity
  8
0
 62
4
100
AcDbSpline
 70
8
 71
3
 72
8
 73
4
 74
0
 40
0
 40
0
 40
0
 40
0
 40
1
 40
1
 40
1
 40
1
 10
97.763789
 20
63.202948
 30
0.0
 10
97.592722
 20
63.466367
 30
0.0
 10
97.324018
 20
63.651041
 30
0.0
 10
97.016789
 20
63.716344
 30
0.0
  0
LWPOLYLINE
  5
138
100
AcDbEntity
  8
0
 62
4
100
AcDbPolyline
 90
1
 70
1
 10
14.044114
 20
145.009712
 30
0.0
  0
SPLINE
  5
139
100
AcDbEntity
  8
0
 62
4
100
AcDbSpline
 70
8
 71
3
 72
8
 73
4
 74
0
 40
0
 40
0
 40
0
 40
0
 40
1
 40
1
 40
1
 40
1
 10
176.796688
 20
77.357149
 30
0.0
 10
176.328156
 20
77.456737
 30
0.0
 10
175.845768
 20
77.264284
 30
0.0
 10
175.574460
 20
76.869529
 30
0.0
  0
SPLINE
  5
13a
100
AcDbEntity
  8
0
 62
4
100
AcDbSpline
 70
8
 71
3
 72
8
 73
4
 74
0
 40
0
 40
0
 40
0
 40
0
 40
1
 40
1
 40
1
 40
1
 10
175.574460
 20
76.869529
 30
0.0
 10
175.303152
 20
76.474774
 30
0.0
 10
175.296354
 20
75.955457
 30
0.0
 10
175.557237
 20
75.553736
 30
0.0
  0
SPLINE
  5
13b
100
AcDbEntity
  8
0
 62
4
100
AcDbSpline
 70
8
 71
3
 72
8
 73
4
 74
0
 40
0
 40
0
 40
0
 40
0
 40
1
 40
1
 40
1
 40
1
 10
175.557237
 20
75.553736
 30
0.0
 10
175.818119
 20
75.152015
 30
0.0
 10
176.295305
 20
74.947001
 30
0.0
 10
176.766283
 20
75.034292
 30
0.0
  0
SPLINE
  5
13c
100
AcDbEntity
  8
0
 62
4
100
AcDbSpline
 70
8
 71
3
 72
8
 73
4
 74
0
 40
0
 40
0
 40
0
 40
0
 40
1
 40
1
 40
1
 40
1
 10
176.766283
 20
75.034292
 30
0.0
 10
177.237261
 20
75.121583
 30
0.0
 10
177.609281
 20
75.483988
 30
0.0
 10
177.708870
 20
75.952519
 30
0.0
  0
SPLINE
  5
13d
100
AcDbEntity
  8
0
 62
4
100
AcDbSpline
 70
8
 71
3
 72
8
 73
4
 74
0
 40
0
 40
0
 40
0
 40
0
 40
1
 40
1
 40
1
 40
1
 10
177.708870
 20
75.952519
 30
0.0
 10
177.844857
 20
76.592288
 30
0.0
 10
177.436459
 20
77.221162
 30
0.0
 10
176.796688
 20
77.357149
 30
0.0
  0
LWPOLYLINE
  5
13e
100
AcDbEntity
  8
0
 62
4
100
AcDbPolyline
 90
1
 70
1
 10
97.016789
 20
63.716344
 30
0.0
  0
SPLINE
  5
13f
100
AcDbEntity
  8
0
 62
4
100
AcDbSpline
 70
8
 71
3
 72
8
 73
4
 74
0
 40
0
 40
0
 40
0
 40
0
 40
1
 40
1
 40
1
 40
1
 10
177.665468
 20
47.058586
 30
0.0
 10
177.010161
 20
47.058586
 30
0.0
 10
176.479062
 20
47.588257
 30
0.0
 10
176.479062
 20
48.243060
 30
0.0
  0
SPLINE
  5
140
100
AcDbEntity
  8
0
 62
4
100
AcDbSpline
 70
8
 71
3
 72
8
 73
4
 74
0
 40
0
 40
0
 40
0
 40
0
 40
1
 40
1
 40
1
 40
1
 10
176.479062
 20
48.243060
 30
0.0
 10
176.479062
 20
48.896578
 30
0.0
 10
177.010161
 20
49.427106
 30
0.0
 10
177.665468
 20
49.427106
 30
0.0
  0
SPLINE
  5
141
100
AcDbEntity
  8
0
 62
4
100
AcDbSpline
 70
8
 71
3
 72
8
 73
4
 74
0
 40
0
 40
0
 40
0
 40
0
 40
1
 40
1
 40
1
 40
1
 10
177.665468
 20
49.427106
 30
0.0
 10
178.316493
 20
49.427106
 30
0.0
 10
178.847592
 20
48.896578
 30
0.0
 10
178.847592
 20
48.243060
 30
0.0
  0
SPLINE
  5
142
100
AcDbEntity
  8
0
 62
4
100
AcDbSpline
 70
8
 71
3
 72
8
 73
4
 74
0
 40
0
 40
0
 40
0
 40
0
 40
1
 40
1
 40
1
 40
1
 10
178.847592
 20
48.243060
 30
0.0
 10
178.847592
 20
47.588257
 30
0.0
 10
178.316493
 20
47.058586
 30
0.0
 10
177.665468
 20
47.058586
 30
0.0
  0
LWPOLYLINE
  5
143
100
AcDbEntity
  8
0
 62
4
100
AcDbPolyline
 90
1
 70
1
 10
176.796688
 20
77.357149
 30
0.0
  0
SPLINE
  5
144
100
AcDbEntity
  8
0
 62
4
100
AcDbSpline
 70
8
 71
3
 72
8
 73
4
 74
0
 40
0
 40
0
 40
0
 40
0
 40
1
 40
1
 40
1
 40
1
 10
177.665468
 20
184.309752
 30
0.0
 10
177.010161
 20
184.309752
 30
0.0
 10
176.479062
 20
184.839423
 30
0.0
 10
176.479062
 20
185.494227
 30
0.0
  0
SPLINE
  5
145
100
AcDbEntity
  8
0
 62
4
100
AcDbSpline
 70
8
 71
3
 72
8
 73
4
 74
0
 40
0
 40
0
 40
0
 40
0
 40
1
 40
1
 40
1
 40
1
 10
176.479062
 20
185.494227
 30
0.0
 10
176.479062
 20
186.147744
 30
0.0
 10
177.010161
 20
186.678272
 30
0.0
 10
177.665468
 20
186.678272
 30
0.0
  0
SPLINE
  5
146
100
AcDbEntity
  8
0
 62
4
100
AcDbSpline
 70
8
 71
3
 72
8
 73
4
 74
0
 40
0
 40
0
 40
0
 40
0
 40
1
 40
1
 40
1
 40
1
 10
177.665468
 20
186.678272
 30
0.0
 10
178.316493
 20
186.678272
 30
0.0
 10
178.847592
 20
186.147744
 30
0.0
 10
178.847592
 20
185.494227
 30
0.0
  0
SPLINE
  5
147
100
AcDbEntity
  8
0
 62
4
100
AcDbSpline
 70
8
 71
3
 72
8
 73
4
 74
0
 40
0
 40
0
 40
0
 40
0
 40
1
 40
1
 40
1
 40
1
 10
178.847592
 20
185.494227
 30
0.0
 10
178.847592
 20
184.839423
 30
0.0
 10
178.316493
 20
184.309752
 30
0.0
 10
177.665468
 20
184.309752
 30
0.0
  0
LWPOLYLINE
  5
148
100
AcDbEntity
  8
0
 62
4
100
AcDbPolyline
 90
1
 70
1
 10
177.665468
 20
47.058586
 30
0.0
  0
SPLINE
  5
149
100
AcDbEntity
  8
0
 62
4
100
AcDbSpline
 70
8
 71
3
 72
8
 73
4
 74
0
 40
0
 40
0
 40
0
 40
0
 40
1
 40
1
 40
1
 40
1
 10
14.627212
 20
184.309752
 30
0.0
 10
13.971905
 20
184.309752
 30
0.0
 10
13.440806
 20
184.839423
 30
0.0
 10
13.440806
 20
185.494227
 30
0.0
  0
SPLINE
  5
14a
100
AcDbEntity
  8
0
 62
4
100
AcDbSpline
 70
8
 71
3
 72
8
 73
4
 74
0
 40
0
 40
0
 40
0
 40
0
 40
1
 40
1
 40
1
 40
1
 10
13.440806
 20
185.494227
 30
0.0
 10
13.440806
 20
186.147744
 30
0.0
 10
13.971905
 20
186.678272
 30
0.0
 10
14.627212
 20
186.678272
 30
0.0
  0
SPLINE
  5
14b
100
AcDbEntity
  8
0
 62
4
100
AcDbSpline
 70
8
 71
3
 72
8
 73
4
 74
0
 40
0
 40
0
 40
0
 40
0
 40
1
 40
1
 40
1
 40
1
 10
14.627212
 20
186.678272
 30
0.0
 10
15.278237
 20
186.678272
 30
0.0
 10
15.809336
 20
186.147744
 30
0.0
 10
15.809336
 20
185.494227
 30
0.0
  0
SPLINE
  5
14c
100
AcDbEntity
  8
0
 62
4
100
AcDbSpline
 70
8
 71
3
 72
8
 73
4
 74
0
 40
0
 40
0
 40
0
 40
0
 40
1
 40
1
 40
1
 40
1
 10
15.809336
 20
185.494227
 30
0.0
 10
15.809336
 20
184.839423
 30
0.0
 10
15.278237
 20
184.309752
 30
0.0
 10
14.627212
 20
184.309752
 30
0.0
  0
LWPOLYLINE
  5
14d
100
AcDbEntity
  8
0
 62
4
100
AcDbPolyline
 90
1
 70
1
 10
177.665468
 20
184.309752
 30
0.0
  0
SPLINE
  5
14e
100
AcDbEntity
  8
0
 62
4
100
AcDbSpline
 70
8
 71
3
 72
8
 73
4
 74
0
 40
0
 40
0
 40
0
 40
0
 40
1
 40
1
 40
1
 40
1
 10
14.627212
 20
53.435681
 30
0.0
 10
13.971905
 20
53.435681
 30
0.0
 10
13.440806
 20
53.965352
 30
0.0
 10
13.440806
 20
54.620155
 30
0.0
  0
SPLINE
  5
14f
100
AcDbEntity
  8
0
 62
4
100
AcDbSpline
 70
8
 71
3
 72
8
 73
4
 74
0
 40
0
 40
0
 40
0
 40
0
 40
1
 40
1
 40
1
 40
1
 10
13.440806
 20
54.620155
 30
0.0
 10
13.440806
 20
55.273673
 30
0.0
 10
13.971905
 20
55.804201
 30
0.0
 10
14.627212
 20
55.804201
 30
0.0
  0
SPLINE
  5
150
100
AcDbEntity
  8
0
 62
4
100
AcDbSpline
 70
8
 71
3
 72
8
 73
4
 74
0
 40
0
 40
0
 40
0
 40
0
 40
1
 40
1
 40
1
 40
1
 10
14.627212
 20
55.804201
 30
0.0
 10
15.278237
 20
55.804201
 30
0.0
 10
15.809336
 20
55.273673
 30
0.0
 10
15.809336
 20
54.620155
 30
0.0
  0
SPLINE
  5
151
100
AcDbEntity
  8
0
 62
4
100
AcDbSpline
 70
8
 71
3
 72
8
 73
4
 74
0
 40
0
 40
0
 40
0
 40
0
 40
1
 40
1
 40
1
 40
1
 10
15.809336
 20
54.620155
 30
0.0
 10
15.809336
 20
53.965352
 30
0.0
 10
15.278237
 20
53.435681
 30
0.0
 10
14.627212
 20
53.435681
 30
0.0
  0
LWPOLYLINE
  5
152
100
AcDbEntity
  8
0
 62
4
100
AcDbPolyline
 90
1
 70
1
 10
14.627212
 20
184.309752
 30
0.0
  0
LWPOLYLINE
  5
153
100
AcDbEntity
  8
0
 62
4
100
AcDbPolyline
 90
1
 70
1
 10
14.627212
 20
53.435681
 30
0.0
  0
ENDSEC
  0
SECTION
  2
OBJECTS
  0
DICTIONARY
  5
C
330
0
100
AcDbDictionary
  3
ACAD_GROUP
350
D
  3
ACAD_MLINESTYLE
350
17
  0
DICTIONARY
  5
D
330
C
100
AcDbDictionary
  0
DICTIONARY
  5
1A
330
C
100
AcDbDictionary
  0
DICTIONARY
  5
17
330
C
100
AcDbDictionary
  3
STANDARD
350
18
  0
DICTIONARY
  5
19
330
C
100
AcDbDictionary
  0
ENDSEC
  0
EOF
