<?xml version="1.0" encoding="UTF-8" standalone="no"?>
<!DOCTYPE svg PUBLIC "-//W3C//DTD SVG 1.1//EN" "http://www.w3.org/Graphics/SVG/1.1/DTD/svg11.dtd">
<svg width="100%" height="100%" viewBox="0 0 755 559" version="1.1" xmlns="http://www.w3.org/2000/svg" xmlns:xlink="http://www.w3.org/1999/xlink" xml:space="preserve" xmlns:serif="http://www.serif.com/" style="fill-rule:evenodd;clip-rule:evenodd;stroke-linecap:round;stroke-linejoin:round;stroke-miterlimit:1.5;">
    <g id="アートボード1" transform="matrix(1.12519,0,0,1.18182,-69.7615,-46.0909)">
        <rect x="62" y="39" width="671" height="473" style="fill:none;"/>
        <g id="Split-Left-Keyplate" serif:id="Split Left Keyplate" transform="matrix(0.888742,0,0,0.846154,109.992,39)">
            <g id="Split-Left-Keyplate1" serif:id="Split Left Keyplate" transform="matrix(0.985565,-2.77556e-17,0,0.958937,-92.8973,39.93)">
                <path d="M684.596,289.155L706.616,198.223L715.588,198.223L715.521,68.899L715.646,55.343L701.103,55.343L682.738,38.074L682.738,23.015L656.357,23.015L656.357,38.074L152.284,38.074L152.284,23.015L130.351,23.015L130.351,38.074L117.949,96.803L121.231,455.62L131.558,463.824L131.558,474.959L151.719,474.95L151.719,463.816L434.491,463.863L631,506.792L672.451,506.792L678.069,479.627L669.751,468.3L700.581,313.561L684.596,289.155Z" style="fill:none;stroke:rgb(13,151,242);stroke-width:0.97px;"/>
            </g>
            <g transform="matrix(0.999993,-2.77556e-17,0,1,-0.139215,0.0790432)">
                <rect x="48.826" y="414.236" width="151.917" height="53.058" style="fill:none;stroke:rgb(13,151,242);stroke-width:0.94px;stroke-linecap:square;"/>
            </g>
            <g transform="matrix(0.978148,0.207912,-0.207912,0.978148,-3.71967,-12.4567)">
                <rect x="576.345" y="61.219" width="52.915" height="52.915" style="fill:none;stroke:rgb(13,151,242);stroke-width:0.94px;stroke-linecap:square;"/>
            </g>
            <g transform="matrix(0.978148,0.207912,-0.207912,0.978148,-3.71967,-12.4567)">
                <rect x="504.345" y="61.219" width="52.915" height="52.915" style="fill:none;stroke:rgb(13,151,242);stroke-width:0.94px;stroke-linecap:square;"/>
            </g>
            <g transform="matrix(0.978148,0.207912,-0.207912,0.978148,-3.71967,-12.4567)">
                <rect x="432.345" y="52.224" width="52.915" height="52.915" style="fill:none;stroke:rgb(13,151,242);stroke-width:0.94px;stroke-linecap:square;"/>
            </g>
            <g transform="matrix(0.978148,0.207912,-0.207912,0.978148,-3.71967,-12.4567)">
                <rect x="360.345" y="43.219" width="52.915" height="52.915" style="fill:none;stroke:rgb(13,151,242);stroke-width:0.94px;stroke-linecap:square;"/>
            </g>
            <g transform="matrix(0.978148,0.207912,-0.207912,0.978148,-3.71967,-12.4567)">
                <rect x="288.346" y="52.224" width="52.915" height="52.915" style="fill:none;stroke:rgb(13,151,242);stroke-width:0.94px;stroke-linecap:square;"/>
            </g>
            <g transform="matrix(0.978148,0.207912,-0.207912,0.978148,-3.71967,-12.4567)">
                <rect x="216.346" y="88.223" width="52.915" height="52.915" style="fill:none;stroke:rgb(13,151,242);stroke-width:0.94px;stroke-linecap:square;"/>
            </g>
            <g transform="matrix(0.978148,0.207912,-0.207912,0.978148,-3.71967,-12.4567)">
                <rect x="144.346" y="106.223" width="52.915" height="52.915" style="fill:none;stroke:rgb(13,151,242);stroke-width:0.94px;stroke-linecap:square;"/>
            </g>
            <g transform="matrix(0.978148,0.207912,-0.207912,0.978148,-3.71967,-12.4567)">
                <rect x="72.346" y="106.223" width="52.915" height="52.915" style="fill:none;stroke:rgb(13,151,242);stroke-width:0.94px;stroke-linecap:square;"/>
            </g>
            <g transform="matrix(0.978148,0.207912,-0.207912,0.978148,-3.71967,-12.4567)">
                <rect x="126.346" y="178.223" width="52.915" height="52.915" style="fill:none;stroke:rgb(13,151,242);stroke-width:0.94px;stroke-linecap:square;"/>
            </g>
            <g transform="matrix(0.978148,0.207912,-0.207912,0.978148,-3.71967,-12.4567)">
                <rect x="117.365" y="250.223" width="52.891" height="52.915" style="fill:none;stroke:rgb(13,151,242);stroke-width:0.94px;stroke-linecap:square;"/>
            </g>
            <g transform="matrix(0.978148,0.207912,-0.207912,0.978148,-3.71967,-12.4567)">
                <rect x="126.346" y="322.223" width="52.915" height="52.915" style="fill:none;stroke:rgb(13,151,242);stroke-width:0.94px;stroke-linecap:square;"/>
            </g>
            <g transform="matrix(0.978148,0.207912,-0.207912,0.978148,-3.71967,-12.4567)">
                <rect x="216.346" y="304.223" width="52.915" height="52.915" style="fill:none;stroke:rgb(13,151,242);stroke-width:0.94px;stroke-linecap:square;"/>
            </g>
            <g transform="matrix(0.978148,0.207912,-0.207912,0.978148,-3.71967,-12.4567)">
                <rect x="216.346" y="232.223" width="52.915" height="52.915" style="fill:none;stroke:rgb(13,151,242);stroke-width:0.94px;stroke-linecap:square;"/>
            </g>
            <g transform="matrix(0.978148,0.207912,-0.207912,0.978148,-3.71967,-12.4567)">
                <rect x="216.346" y="160.223" width="52.915" height="52.915" style="fill:none;stroke:rgb(13,151,242);stroke-width:0.94px;stroke-linecap:square;"/>
            </g>
            <g transform="matrix(0.978148,0.207912,-0.207912,0.978148,-3.71967,-12.4567)">
                <rect x="288.346" y="124.223" width="52.915" height="52.915" style="fill:none;stroke:rgb(13,151,242);stroke-width:0.94px;stroke-linecap:square;"/>
            </g>
            <g transform="matrix(0.978148,0.207912,-0.207912,0.978148,-3.71967,-12.4567)">
                <rect x="360.345" y="115.219" width="52.915" height="52.915" style="fill:none;stroke:rgb(13,151,242);stroke-width:0.94px;stroke-linecap:square;"/>
            </g>
            <g transform="matrix(0.978148,0.207912,-0.207912,0.978148,-3.71967,-12.4567)">
                <rect x="360.345" y="187.218" width="52.915" height="52.915" style="fill:none;stroke:rgb(13,151,242);stroke-width:0.94px;stroke-linecap:square;"/>
            </g>
            <g transform="matrix(0.978148,0.207912,-0.207912,0.978148,-3.71967,-12.4567)">
                <rect x="288.346" y="196.223" width="52.915" height="52.915" style="fill:none;stroke:rgb(13,151,242);stroke-width:0.94px;stroke-linecap:square;"/>
            </g>
            <g transform="matrix(0.978148,0.207912,-0.207912,0.978148,-3.71967,-12.4567)">
                <rect x="288.346" y="268.223" width="52.915" height="52.915" style="fill:none;stroke:rgb(13,151,242);stroke-width:0.94px;stroke-linecap:square;"/>
            </g>
            <g transform="matrix(0.978148,0.207912,-0.207912,0.978148,-3.71967,-12.4567)">
                <rect x="360.345" y="259.218" width="52.915" height="52.915" style="fill:none;stroke:rgb(13,151,242);stroke-width:0.94px;stroke-linecap:square;"/>
            </g>
            <g transform="matrix(0.978148,0.207912,-0.207912,0.978148,-3.71967,-12.4567)">
                <rect x="333.341" y="349.218" width="52.915" height="52.915" style="fill:none;stroke:rgb(13,151,242);stroke-width:0.94px;stroke-linecap:square;"/>
            </g>
            <g transform="matrix(0.978148,0.207912,-0.207912,0.978148,-3.71967,-12.4567)">
                <rect x="423.34" y="349.218" width="52.915" height="52.915" style="fill:none;stroke:rgb(13,151,242);stroke-width:0.94px;stroke-linecap:square;"/>
            </g>
            <g transform="matrix(0.978148,0.207912,-0.207912,0.978148,-3.71967,-12.4567)">
                <rect x="432.345" y="268.223" width="52.915" height="52.915" style="fill:none;stroke:rgb(13,151,242);stroke-width:0.94px;stroke-linecap:square;"/>
            </g>
            <g transform="matrix(0.978148,0.207912,-0.207912,0.978148,-3.71967,-12.4567)">
                <rect x="432.345" y="124.223" width="52.915" height="52.915" style="fill:none;stroke:rgb(13,151,242);stroke-width:0.94px;stroke-linecap:square;"/>
            </g>
            <g transform="matrix(0.978148,0.207912,-0.207912,0.978148,-3.71967,-12.4567)">
                <rect x="432.345" y="196.223" width="52.915" height="52.915" style="fill:none;stroke:rgb(13,151,242);stroke-width:0.94px;stroke-linecap:square;"/>
            </g>
            <g transform="matrix(0.978148,0.207912,-0.207912,0.978148,-3.71967,-12.4567)">
                <rect x="504.345" y="133.219" width="52.915" height="52.915" style="fill:none;stroke:rgb(13,151,242);stroke-width:0.94px;stroke-linecap:square;"/>
            </g>
            <g transform="matrix(0.978148,0.207912,-0.207912,0.978148,-3.71967,-12.4567)">
                <rect x="504.345" y="205.218" width="52.915" height="52.915" style="fill:none;stroke:rgb(13,151,242);stroke-width:0.94px;stroke-linecap:square;"/>
            </g>
            <g transform="matrix(0.978148,0.207912,-0.207912,0.978148,-3.71967,-12.4567)">
                <rect x="504.345" y="277.218" width="52.915" height="52.915" style="fill:none;stroke:rgb(13,151,242);stroke-width:0.94px;stroke-linecap:square;"/>
            </g>
            <g transform="matrix(0.978148,0.207912,-0.207912,0.978148,-3.71967,-12.4567)">
                <rect x="576.345" y="277.218" width="52.915" height="52.915" style="fill:none;stroke:rgb(13,151,242);stroke-width:0.94px;stroke-linecap:square;"/>
            </g>
            <g transform="matrix(0.978148,0.207912,-0.207912,0.978148,-3.71967,-12.4567)">
                <rect x="576.345" y="205.218" width="52.915" height="52.915" style="fill:none;stroke:rgb(13,151,242);stroke-width:0.94px;stroke-linecap:square;"/>
            </g>
            <g transform="matrix(0.978148,0.207912,-0.207912,0.978148,-3.71967,-12.4567)">
                <rect x="576.345" y="133.219" width="52.915" height="52.915" style="fill:none;stroke:rgb(13,151,242);stroke-width:0.94px;stroke-linecap:square;"/>
            </g>
            <g transform="matrix(0.912442,0.193946,-0.207912,0.978148,29.4185,-5.41295)">
                <rect x="504.345" y="349.218" width="133.91" height="52.915" style="fill:none;stroke:rgb(13,151,242);stroke-width:0.98px;stroke-linecap:square;"/>
            </g>
            <g transform="matrix(0.613055,0.130309,-0.157162,0.739387,220.98,94.3959)">
                <rect x="639" y="229" width="15" height="15" style="fill:none;stroke:rgb(13,151,242);stroke-width:1.36px;stroke-linecap:square;"/>
            </g>
            <g transform="matrix(0.613055,0.130309,-0.157162,0.739387,214.2,126.297)">
                <rect x="639" y="229" width="15" height="15" style="fill:none;stroke:rgb(13,151,242);stroke-width:1.36px;stroke-linecap:square;"/>
            </g>
            <g transform="matrix(0.532327,0.113149,-0.113149,0.532327,130.511,81.5794)">
                <circle cx="367.63" cy="23.111" r="6.945" style="fill:rgb(194,194,194);fill-opacity:0;stroke:rgb(13,151,242);stroke-width:1.74px;stroke-miterlimit:4;"/>
            </g>
            <g transform="matrix(0.532327,0.113149,-0.113149,0.532327,65.2329,113.391)">
                <circle cx="25.631" cy="168.55" r="6.945" style="fill:rgb(194,194,194);fill-opacity:0;stroke:rgb(13,151,242);stroke-width:1.74px;stroke-miterlimit:4;"/>
            </g>
            <g transform="matrix(0.532327,0.113149,-0.113149,0.532327,206.183,263.827)">
                <circle cx="260.35" cy="317.59" r="6.945" style="fill:rgb(194,194,194);fill-opacity:0;stroke:rgb(13,151,242);stroke-width:1.74px;stroke-miterlimit:4;"/>
            </g>
            <g transform="matrix(0.532327,0.113149,-0.113149,0.532327,360.455,127.681)">
                <circle cx="440.349" cy="245.95" r="6.945" style="fill:rgb(194,194,194);fill-opacity:0;stroke:rgb(13,151,242);stroke-width:1.74px;stroke-miterlimit:4;"/>
            </g>
            <g transform="matrix(6.80956e-17,1.36766,-1.36692,5.23334e-16,2057.16,-23.5632)">
                <path d="M391.454,1090.15C391.454,1091.68 390.218,1092.92 388.69,1092.92C387.165,1092.92 385.927,1091.68 385.927,1090.15C385.927,1088.63 387.165,1087.39 388.69,1087.39C390.218,1087.39 391.454,1088.63 391.454,1090.15Z" style="fill:none;stroke:rgb(13,151,242);stroke-width:0.69px;stroke-miterlimit:2;"/>
            </g>
            <g transform="matrix(6.80956e-17,1.36766,-1.36692,5.23334e-16,2057.16,-461.596)">
                <path d="M391.454,1090.15C391.454,1091.68 390.218,1092.92 388.69,1092.92C387.165,1092.92 385.927,1091.68 385.927,1090.15C385.927,1088.63 387.165,1087.39 388.69,1087.39C390.218,1087.39 391.454,1088.63 391.454,1090.15Z" style="fill:none;stroke:rgb(13,151,242);stroke-width:0.69px;stroke-miterlimit:2;"/>
            </g>
            <g transform="matrix(6.80956e-17,1.36766,-1.36692,5.23334e-16,1536.83,-461.596)">
                <path d="M391.454,1090.15C391.454,1091.68 390.218,1092.92 388.69,1092.92C387.165,1092.92 385.927,1091.68 385.927,1090.15C385.927,1088.63 387.165,1087.39 388.69,1087.39C390.218,1087.39 391.454,1088.63 391.454,1090.15Z" style="fill:none;stroke:rgb(13,151,242);stroke-width:0.69px;stroke-miterlimit:2;"/>
            </g>
            <g transform="matrix(6.80956e-17,1.36766,-1.36692,5.23334e-16,1536.83,-43.9155)">
                <path d="M391.454,1090.15C391.454,1091.68 390.218,1092.92 388.69,1092.92C387.165,1092.92 385.927,1091.68 385.927,1090.15C385.927,1088.63 387.165,1087.39 388.69,1087.39C390.218,1087.39 391.454,1088.63 391.454,1090.15Z" style="fill:none;stroke:rgb(13,151,242);stroke-width:0.69px;stroke-miterlimit:2;"/>
            </g>
        </g>
    </g>
</svg>
