<?xml version="1.0" encoding="UTF-8" standalone="no"?>
<!DOCTYPE svg PUBLIC "-//W3C//DTD SVG 1.1//EN" "http://www.w3.org/Graphics/SVG/1.1/DTD/svg11.dtd">
<svg width="100%" height="100%" viewBox="0 0 1683 542" version="1.1" xmlns="http://www.w3.org/2000/svg" xmlns:xlink="http://www.w3.org/1999/xlink" xml:space="preserve" xmlns:serif="http://www.serif.com/" style="fill-rule:evenodd;clip-rule:evenodd;stroke-linecap:round;stroke-linejoin:round;stroke-miterlimit:1.5;">
    <g id="アートボード1" transform="matrix(2.7228,0,0,1.91121,-168.814,-74.537)">
        <rect x="62" y="39" width="671" height="473" style="fill:none;"/>
        <g id="底" transform="matrix(0.367269,0,0,0.52323,14.2551,43.1858)">
            <g id="外形" transform="matrix(1.00306,0,0,0.953779,132.443,20.0315)">
                <path d="M1670,3.963C1670,1.774 1668.31,0 1666.23,0C1581.51,0 95.494,0 10.768,0C8.687,0 7,1.774 7,3.963C7,49.924 7,481.076 7,527.037C7,529.226 8.687,531 10.768,531C95.494,531 1581.51,531 1666.23,531C1668.31,531 1670,529.226 1670,527.037C1670,481.076 1670,49.924 1670,3.963Z" style="fill:none;stroke:rgb(255,113,0);stroke-width:0.39px;"/>
            </g>
            <g id="ネジ穴-足接続パーツ" serif:id="ネジ穴→足接続パーツ" transform="matrix(1,0,0,1,-37.7953,-36.6614)">
                <g transform="matrix(6.80956e-17,1.36766,-1.36692,5.23334e-16,1875.66,-408.761)">
                    <path d="M391.454,1090.15C391.454,1091.68 390.218,1092.92 388.69,1092.92C387.165,1092.92 385.927,1091.68 385.927,1090.15C385.927,1088.63 387.165,1087.39 388.69,1087.39C390.218,1087.39 391.454,1088.63 391.454,1090.15Z" style="fill:none;stroke:rgb(255,113,0);stroke-width:0.28px;stroke-miterlimit:2;"/>
                </g>
                <g transform="matrix(6.80956e-17,1.36766,-1.36692,5.23334e-16,1800.07,-408.761)">
                    <path d="M391.454,1090.15C391.454,1091.68 390.218,1092.92 388.69,1092.92C387.165,1092.92 385.927,1091.68 385.927,1090.15C385.927,1088.63 387.165,1087.39 388.69,1087.39C390.218,1087.39 391.454,1088.63 391.454,1090.15Z" style="fill:none;stroke:rgb(255,113,0);stroke-width:0.28px;stroke-miterlimit:2;"/>
                </g>
                <g transform="matrix(6.80956e-17,1.36766,-1.36692,5.23334e-16,1724.48,-408.761)">
                    <path d="M391.454,1090.15C391.454,1091.68 390.218,1092.92 388.69,1092.92C387.165,1092.92 385.927,1091.68 385.927,1090.15C385.927,1088.63 387.165,1087.39 388.69,1087.39C390.218,1087.39 391.454,1088.63 391.454,1090.15Z" style="fill:none;stroke:rgb(255,113,0);stroke-width:0.28px;stroke-miterlimit:2;"/>
                </g>
                <g transform="matrix(6.80956e-17,1.36766,-1.36692,5.23334e-16,2577.05,-408.761)">
                    <path d="M391.454,1090.15C391.454,1091.68 390.218,1092.92 388.69,1092.92C387.165,1092.92 385.927,1091.68 385.927,1090.15C385.927,1088.63 387.165,1087.39 388.69,1087.39C390.218,1087.39 391.454,1088.63 391.454,1090.15Z" style="fill:none;stroke:rgb(255,113,0);stroke-width:0.28px;stroke-miterlimit:2;"/>
                </g>
                <g transform="matrix(6.80956e-17,1.36766,-1.36692,5.23334e-16,2501.46,-408.761)">
                    <path d="M391.454,1090.15C391.454,1091.68 390.218,1092.92 388.69,1092.92C387.165,1092.92 385.927,1091.68 385.927,1090.15C385.927,1088.63 387.165,1087.39 388.69,1087.39C390.218,1087.39 391.454,1088.63 391.454,1090.15Z" style="fill:none;stroke:rgb(255,113,0);stroke-width:0.28px;stroke-miterlimit:2;"/>
                </g>
                <g transform="matrix(6.80956e-17,1.36766,-1.36692,5.23334e-16,2425.87,-408.761)">
                    <path d="M391.454,1090.15C391.454,1091.68 390.218,1092.92 388.69,1092.92C387.165,1092.92 385.927,1091.68 385.927,1090.15C385.927,1088.63 387.165,1087.39 388.69,1087.39C390.218,1087.39 391.454,1088.63 391.454,1090.15Z" style="fill:none;stroke:rgb(255,113,0);stroke-width:0.28px;stroke-miterlimit:2;"/>
                </g>
                <g transform="matrix(6.80956e-17,1.36766,-1.36692,5.23334e-16,3278.82,-408.761)">
                    <path d="M391.454,1090.15C391.454,1091.68 390.218,1092.92 388.69,1092.92C387.165,1092.92 385.927,1091.68 385.927,1090.15C385.927,1088.63 387.165,1087.39 388.69,1087.39C390.218,1087.39 391.454,1088.63 391.454,1090.15Z" style="fill:none;stroke:rgb(255,113,0);stroke-width:0.28px;stroke-miterlimit:2;"/>
                </g>
                <g transform="matrix(6.80956e-17,1.36766,-1.36692,5.23334e-16,3203.22,-408.761)">
                    <path d="M391.454,1090.15C391.454,1091.68 390.218,1092.92 388.69,1092.92C387.165,1092.92 385.927,1091.68 385.927,1090.15C385.927,1088.63 387.165,1087.39 388.69,1087.39C390.218,1087.39 391.454,1088.63 391.454,1090.15Z" style="fill:none;stroke:rgb(255,113,0);stroke-width:0.28px;stroke-miterlimit:2;"/>
                </g>
                <g transform="matrix(6.80956e-17,1.36766,-1.36692,5.23334e-16,3127.63,-408.761)">
                    <path d="M391.454,1090.15C391.454,1091.68 390.218,1092.92 388.69,1092.92C387.165,1092.92 385.927,1091.68 385.927,1090.15C385.927,1088.63 387.165,1087.39 388.69,1087.39C390.218,1087.39 391.454,1088.63 391.454,1090.15Z" style="fill:none;stroke:rgb(255,113,0);stroke-width:0.28px;stroke-miterlimit:2;"/>
                </g>
            </g>
            <g id="ねじ穴-ミッドフレーム" serif:id="ねじ穴→ミッドフレーム">
                <g transform="matrix(6.80956e-17,1.36766,-1.36692,5.23334e-16,3281.83,-26.2523)">
                    <path d="M391.454,1090.15C391.454,1091.68 390.218,1092.92 388.69,1092.92C387.165,1092.92 385.927,1091.68 385.927,1090.15C385.927,1088.63 387.165,1087.39 388.69,1087.39C390.218,1087.39 391.454,1088.63 391.454,1090.15Z" style="fill:none;stroke:rgb(255,113,0);stroke-width:0.28px;stroke-miterlimit:2;"/>
                </g>
                <g transform="matrix(6.80956e-17,1.36766,-1.36692,5.23334e-16,3281.83,-469.596)">
                    <path d="M391.454,1090.15C391.454,1091.68 390.218,1092.92 388.69,1092.92C387.165,1092.92 385.927,1091.68 385.927,1090.15C385.927,1088.63 387.165,1087.39 388.69,1087.39C390.218,1087.39 391.454,1088.63 391.454,1090.15Z" style="fill:none;stroke:rgb(255,113,0);stroke-width:0.28px;stroke-miterlimit:2;"/>
                </g>
                <g transform="matrix(6.80956e-17,1.36766,-1.36692,5.23334e-16,2500.38,-469.596)">
                    <path d="M391.454,1090.15C391.454,1091.68 390.218,1092.92 388.69,1092.92C387.165,1092.92 385.927,1091.68 385.927,1090.15C385.927,1088.63 387.165,1087.39 388.69,1087.39C390.218,1087.39 391.454,1088.63 391.454,1090.15Z" style="fill:none;stroke:rgb(255,113,0);stroke-width:0.28px;stroke-miterlimit:2;"/>
                </g>
                <g transform="matrix(6.80956e-17,1.36766,-1.36692,5.23334e-16,1645.3,-26.2523)">
                    <path d="M391.454,1090.15C391.454,1091.68 390.218,1092.92 388.69,1092.92C387.165,1092.92 385.927,1091.68 385.927,1090.15C385.927,1088.63 387.165,1087.39 388.69,1087.39C390.218,1087.39 391.454,1088.63 391.454,1090.15Z" style="fill:none;stroke:rgb(255,113,0);stroke-width:0.28px;stroke-miterlimit:2;"/>
                </g>
                <g transform="matrix(6.80956e-17,1.36766,-1.36692,5.23334e-16,1645.3,-469.596)">
                    <path d="M391.454,1090.15C391.454,1091.68 390.218,1092.92 388.69,1092.92C387.165,1092.92 385.927,1091.68 385.927,1090.15C385.927,1088.63 387.165,1087.39 388.69,1087.39C390.218,1087.39 391.454,1088.63 391.454,1090.15Z" style="fill:none;stroke:rgb(255,113,0);stroke-width:0.28px;stroke-miterlimit:2;"/>
                </g>
                <g transform="matrix(6.80956e-17,1.36766,-1.36692,5.23334e-16,2500.38,-26.2523)">
                    <path d="M391.454,1090.15C391.454,1091.68 390.218,1092.92 388.69,1092.92C387.165,1092.92 385.927,1091.68 385.927,1090.15C385.927,1088.63 387.165,1087.39 388.69,1087.39C390.218,1087.39 391.454,1088.63 391.454,1090.15Z" style="fill:none;stroke:rgb(255,113,0);stroke-width:0.28px;stroke-miterlimit:2;"/>
                </g>
                <g transform="matrix(6.80956e-17,1.36766,-1.36692,5.23334e-16,1732.04,-497.145)">
                    <path d="M391.454,1090.15C391.454,1091.68 390.218,1092.92 388.69,1092.92C387.165,1092.92 385.927,1091.68 385.927,1090.15C385.927,1088.63 387.165,1087.39 388.69,1087.39C390.218,1087.39 391.454,1088.63 391.454,1090.15Z" style="fill:none;stroke:rgb(255,113,0);stroke-width:0.28px;stroke-miterlimit:2;"/>
                </g>
            </g>
        </g>
    </g>
</svg>
