<?xml version="1.0" encoding="UTF-8" standalone="no"?>
<!DOCTYPE svg PUBLIC "-//W3C//DTD SVG 1.1//EN" "http://www.w3.org/Graphics/SVG/1.1/DTD/svg11.dtd">
<svg width="100%" height="100%" viewBox="0 0 1709 543" version="1.1" xmlns="http://www.w3.org/2000/svg" xmlns:xlink="http://www.w3.org/1999/xlink" xml:space="preserve" xmlns:serif="http://www.serif.com/" style="fill-rule:evenodd;clip-rule:evenodd;stroke-linecap:round;stroke-linejoin:round;stroke-miterlimit:1.5;">
    <g id="アートボード1" transform="matrix(2.7228,0,0,1.91121,-168.814,-74.537)">
        <rect x="62" y="39" width="671" height="473" style="fill:none;"/>
        <g id="ミドルフレーム" transform="matrix(0.367269,0,0,0.52323,14.2551,43.1858)">
            <g transform="matrix(1,0,0,1,130,-8)">
                <path d="M946.409,56L910.459,56L891.562,82.887L868.884,82.887L849.987,56C849.987,56 140.124,56 98.661,56C98.16,56 97.68,55.801 97.325,55.447C96.971,55.092 96.772,54.611 96.772,54.11L96.772,29.921C96.772,28.878 97.618,28.031 98.661,28.031L1673.78,28.031C1675.87,28.031 1677.56,29.724 1677.56,31.811C1677.56,75.648 1677.56,486.871 1677.56,530.709C1677.56,532.796 1675.87,534.488 1673.78,534.488L13.244,534.488C11.157,534.488 9.465,532.796 9.465,530.709C9.465,486.871 9.465,75.648 9.465,31.811C9.465,29.724 11.157,28.031 13.244,28.031C19.845,28.031 33.243,28.031 38.189,28.031C38.69,28.031 39.171,28.231 39.525,28.585C39.88,28.939 40.079,29.42 40.079,29.921L40.079,80.958L20.803,102.488L20.803,478.843L66.157,524.197L514.505,524.197L546.535,527.685L713.969,527.685L752.833,524.197L826.22,524.197L826.22,499.846L895.989,499.846L910.459,524.197L1620.11,524.197L1665.46,478.843L1665.46,101.354L1620.11,56L946.409,56L946.409,56Z" style="fill:rgb(114,249,255);fill-opacity:0.27;stroke:rgb(0,162,0);stroke-width:0.38px;"/>
            </g>
            <g id="スペーサー穴">
                <g transform="matrix(1.36191e-16,2.73532,-2.73384,1.04667e-15,4771.99,-557.848)">
                    <path d="M391.454,1090.15C391.454,1091.68 390.218,1092.92 388.69,1092.92C387.165,1092.92 385.927,1091.68 385.927,1090.15C385.927,1088.63 387.165,1087.39 388.69,1087.39C390.218,1087.39 391.454,1088.63 391.454,1090.15Z" style="fill:none;stroke:rgb(0,162,0);stroke-width:0.14px;stroke-miterlimit:2;"/>
                </g>
                <g transform="matrix(1.57641e-16,3.16613,-3.16442,1.21152e-15,5241.39,-1168.64)">
                    <path d="M391.454,1090.15C391.454,1091.68 390.218,1092.92 388.69,1092.92C387.165,1092.92 385.927,1091.68 385.927,1090.15C385.927,1088.63 387.165,1087.39 388.69,1087.39C390.218,1087.39 391.454,1088.63 391.454,1090.15Z" style="fill:none;stroke:rgb(0,162,0);stroke-width:0.12px;stroke-miterlimit:2;"/>
                </g>
                <g transform="matrix(1.57641e-16,3.16613,-3.16442,1.21152e-15,4459.93,-1168.64)">
                    <path d="M391.454,1090.15C391.454,1091.68 390.218,1092.92 388.69,1092.92C387.165,1092.92 385.927,1091.68 385.927,1090.15C385.927,1088.63 387.165,1087.39 388.69,1087.39C390.218,1087.39 391.454,1088.63 391.454,1090.15Z" style="fill:none;stroke:rgb(0,162,0);stroke-width:0.12px;stroke-miterlimit:2;"/>
                </g>
                <g transform="matrix(1.57641e-16,3.16613,-3.16442,1.21152e-15,3604.85,-725.3)">
                    <path d="M391.454,1090.15C391.454,1091.68 390.218,1092.92 388.69,1092.92C387.165,1092.92 385.927,1091.68 385.927,1090.15C385.927,1088.63 387.165,1087.39 388.69,1087.39C390.218,1087.39 391.454,1088.63 391.454,1090.15Z" style="fill:none;stroke:rgb(0,162,0);stroke-width:0.12px;stroke-miterlimit:2;"/>
                </g>
                <g transform="matrix(1.57641e-16,3.16613,-3.16442,1.21152e-15,3604.85,-1168.64)">
                    <path d="M391.454,1090.15C391.454,1091.68 390.218,1092.92 388.69,1092.92C387.165,1092.92 385.927,1091.68 385.927,1090.15C385.927,1088.63 387.165,1087.39 388.69,1087.39C390.218,1087.39 391.454,1088.63 391.454,1090.15Z" style="fill:none;stroke:rgb(0,162,0);stroke-width:0.12px;stroke-miterlimit:2;"/>
                </g>
                <g transform="matrix(1.57641e-16,3.16613,-3.16442,1.21152e-15,4459.93,-725.3)">
                    <path d="M391.454,1090.15C391.454,1091.68 390.218,1092.92 388.69,1092.92C387.165,1092.92 385.927,1091.68 385.927,1090.15C385.927,1088.63 387.165,1087.39 388.69,1087.39C390.218,1087.39 391.454,1088.63 391.454,1090.15Z" style="fill:none;stroke:rgb(0,162,0);stroke-width:0.12px;stroke-miterlimit:2;"/>
                </g>
                <g id="ミッド下側のみ" transform="matrix(1.57641e-16,3.16613,-3.16442,1.21152e-15,3691.59,-1196.19)">
                    <path d="M391.454,1090.15C391.454,1091.68 390.218,1092.92 388.69,1092.92C387.165,1092.92 385.927,1091.68 385.927,1090.15C385.927,1088.63 387.165,1087.39 388.69,1087.39C390.218,1087.39 391.454,1088.63 391.454,1090.15Z" style="fill:none;stroke:rgb(0,162,0);stroke-width:0.12px;stroke-miterlimit:2;"/>
                </g>
            </g>
        </g>
    </g>
</svg>
