<?xml version="1.0" encoding="UTF-8" standalone="no"?>
<!DOCTYPE svg PUBLIC "-//W3C//DTD SVG 1.1//EN" "http://www.w3.org/Graphics/SVG/1.1/DTD/svg11.dtd">
<svg width="100%" height="100%" viewBox="0 0 1690 543" version="1.1" xmlns="http://www.w3.org/2000/svg" xmlns:xlink="http://www.w3.org/1999/xlink" xml:space="preserve" xmlns:serif="http://www.serif.com/" style="fill-rule:evenodd;clip-rule:evenodd;stroke-linecap:round;stroke-linejoin:round;stroke-miterlimit:1.5;">
    <g id="アートボード1" transform="matrix(2.7228,0,0,1.91121,-168.814,-74.537)">
        <rect x="62" y="39" width="671" height="473" style="fill:none;"/>
        <g id="トップフレーム-ねじ穴Ver" serif:id="トップフレーム ねじ穴Ver" transform="matrix(0.367269,0,0,0.52323,14.2551,43.1858)">
            <g id="トップフレーム外形" transform="matrix(1.00681,0,0,0.953779,132.417,20.0315)">
                <path d="M1663.81,3.963C1663.81,1.774 1662.13,0 1660.05,0C1575.64,0 95.165,0 10.754,0C8.681,0 7,1.774 7,3.963C7,49.924 7,481.076 7,527.037C7,529.226 8.681,531 10.754,531C95.165,531 1575.64,531 1660.05,531C1662.13,531 1663.81,529.226 1663.81,527.037C1663.81,481.076 1663.81,49.924 1663.81,3.963Z" style="fill:none;stroke:rgb(0,0,255);stroke-width:0.96px;"/>
            </g>
            <g id="トップフレーム内形R" transform="matrix(0.985565,0,0,0.958937,37.1027,31.93)">
                <path d="M1104.81,120.927C1104.32,121.075 1103.91,121.416 1103.67,121.876C1103.42,122.335 1103.37,122.875 1103.52,123.377C1110.32,146.956 1178.55,383.48 1185.36,407.085C1185.51,407.587 1185.45,408.127 1185.21,408.587C1184.96,409.047 1184.55,409.389 1184.06,409.536C1178.09,411.336 1159.31,416.99 1153.32,418.793C1152.83,418.941 1152.42,419.284 1152.17,419.746C1151.93,420.208 1151.88,420.751 1152.03,421.254C1155.06,431.583 1169.52,480.858 1172.54,491.12C1172.84,492.157 1173.9,492.747 1174.91,492.441C1197.7,485.535 1426.46,416.23 1452.75,408.263C1453.33,408.087 1453.96,408.203 1454.44,408.575C1454.93,408.947 1455.21,409.532 1455.21,410.153C1455.21,416.873 1455.21,434.536 1455.21,440.463C1455.21,440.985 1455.41,441.487 1455.77,441.856C1456.13,442.226 1456.62,442.433 1457.13,442.433C1482.72,442.433 1756.23,442.425 1781.82,442.425C1782.88,442.425 1783.73,441.542 1783.73,440.454C1783.73,429.729 1783.73,378.473 1783.73,367.748C1783.73,367.225 1783.53,366.724 1783.17,366.354C1782.81,365.984 1782.33,365.777 1781.82,365.777C1771.58,365.777 1723.41,365.777 1713.16,365.777C1712.66,365.777 1712.17,365.569 1711.81,365.2C1711.45,364.83 1711.25,364.329 1711.25,363.806C1711.25,353.413 1711.25,305.056 1711.25,294.668C1711.25,293.581 1712.1,292.699 1713.16,292.698C1721.72,292.688 1756.41,292.647 1764.97,292.637C1766.03,292.635 1766.89,291.753 1766.89,290.666C1766.89,274.179 1766.89,159.282 1766.89,142.785C1766.89,142.263 1766.69,141.762 1766.33,141.392C1765.97,141.022 1765.48,140.815 1764.97,140.815C1756.23,140.815 1720.19,140.815 1711.45,140.815C1710.94,140.815 1710.45,140.607 1710.09,140.238C1709.73,139.868 1709.53,139.367 1709.53,138.844L1709.53,67.961C1709.53,67.439 1709.33,66.937 1708.97,66.568C1708.61,66.198 1708.12,65.991 1707.62,65.991C1682.41,65.991 1416.86,65.991 1395.07,65.991C1394.23,65.991 1393.48,65.424 1393.24,64.594C1391.8,59.765 1387.06,43.762 1385.43,38.275C1385.13,37.241 1384.07,36.654 1383.06,36.958C1373.25,39.917 1326.8,53.931 1316.95,56.901C1315.94,57.207 1314.87,56.611 1314.57,55.568C1313.58,52.121 1311.49,44.844 1310.5,41.392C1310.35,40.89 1310.02,40.468 1309.57,40.218C1309.13,39.969 1308.6,39.912 1308.11,40.061C1298.05,43.135 1249.84,57.87 1239.8,60.938C1238.78,61.248 1238.2,62.343 1238.5,63.385C1238.94,64.91 1239.56,67.047 1239.99,68.576C1240.14,69.079 1240.08,69.621 1239.84,70.082C1239.59,70.542 1239.18,70.882 1238.69,71.028C1228.77,73.967 1182.05,87.808 1172.13,90.747C1171.64,90.892 1171.22,91.233 1170.98,91.693C1170.73,92.153 1170.68,92.695 1170.82,93.199C1171.26,94.726 1171.87,96.859 1172.31,98.383C1172.61,99.427 1172.03,100.523 1171.01,100.831C1161.16,103.823 1114.67,117.934 1104.81,120.927Z" style="fill:none;stroke:rgb(0,0,255);stroke-width:0.97px;"/>
            </g>
            <g id="トップフレーム内形L" transform="matrix(0.985565,0,0,0.958937,37.1027,31.93)">
                <path d="M1091.2,394.976C1092.18,394.569 1092.66,393.423 1092.27,392.414C1082.13,366.494 967.297,72.887 957.147,46.936C956.958,46.451 956.588,46.063 956.12,45.858C955.652,45.653 955.124,45.648 954.652,45.843C934.084,54.362 741.968,133.932 729.662,139.029C729.262,139.195 728.819,139.217 728.404,139.092C719.365,136.359 617.291,105.505 602.351,100.989C601.342,100.684 600.76,99.602 601.047,98.562C601.496,96.931 602.143,94.579 602.592,92.947C602.879,91.906 602.296,90.823 601.286,90.519C591.458,87.564 544.89,73.56 535.053,70.602C534.042,70.298 533.459,69.212 533.748,68.171C534.162,66.676 534.739,64.597 535.153,63.105C535.441,62.066 534.862,60.983 533.854,60.675C523.845,57.625 475.563,42.909 465.472,39.834C464.982,39.685 464.455,39.743 464.007,39.995C463.559,40.247 463.227,40.672 463.085,41.176C462.095,44.697 459.991,52.181 458.999,55.707C458.857,56.213 458.524,56.639 458.074,56.89C457.624,57.142 457.095,57.198 456.605,57.047C446.718,53.99 400.328,39.648 390.436,36.589C389.945,36.438 389.415,36.494 388.965,36.746C388.515,36.998 388.182,37.425 388.041,37.932C386.534,43.314 382.289,58.481 380.968,63.201C380.733,64.043 379.985,64.624 379.132,64.627C359.335,64.7 141.442,65.506 118.731,65.59C117.675,65.593 116.821,66.475 116.821,67.56C116.821,78.326 116.821,130.101 116.821,140.885C116.821,141.973 117.679,142.855 118.738,142.855C125.193,142.855 146.086,142.855 152.54,142.855C153.599,142.855 154.458,143.738 154.458,144.826C154.458,155.199 154.458,203.388 154.458,213.761C154.458,214.283 154.256,214.785 153.896,215.154C153.536,215.524 153.049,215.731 152.54,215.731C146.036,215.731 124.859,215.731 118.355,215.731C117.846,215.731 117.359,215.939 116.999,216.309C116.639,216.678 116.437,217.179 116.437,217.702C116.437,238.608 116.437,419.217 116.437,440.119C116.437,441.207 117.296,442.089 118.354,442.089C137.757,442.097 298.328,442.157 317.737,442.164C318.246,442.165 318.734,441.957 319.093,441.587C319.453,441.218 319.655,440.717 319.655,440.194L319.655,410.187C319.655,409.566 319.94,408.981 320.424,408.609C320.909,408.237 321.535,408.121 322.115,408.297C351.2,417.112 628.881,501.266 654.141,508.922C655.156,509.229 656.221,508.634 656.522,507.591C659.47,497.352 673.516,448.571 676.459,438.35C676.759,437.31 676.184,436.217 675.174,435.904C671.471,434.758 663.12,432.173 659.42,431.028C658.411,430.716 657.837,429.625 658.134,428.586C663.455,409.973 706.674,258.815 713.032,236.579C713.147,236.176 713.498,235.892 713.906,235.872C714.314,235.852 714.689,236.1 714.842,236.49C725.241,263.138 811.083,483.107 819.812,505.474C820.002,505.959 820.372,506.348 820.84,506.553C821.309,506.758 821.837,506.763 822.31,506.567C844.604,497.315 1068.95,404.211 1091.2,394.976Z" style="fill:none;stroke:rgb(0,0,255);stroke-width:0.97px;"/>
            </g>
            <g id="ねじ穴-キープレート-" serif:id="ねじ穴→キープレート ">
                <g transform="matrix(6.80956e-17,1.36766,-1.36692,5.23334e-16,1705.59,-469.596)">
                    <path d="M391.454,1090.15C391.454,1091.68 390.218,1092.92 388.69,1092.92C387.165,1092.92 385.927,1091.68 385.927,1090.15C385.927,1088.63 387.165,1087.39 388.69,1087.39C390.218,1087.39 391.454,1088.63 391.454,1090.15Z" style="fill:none;stroke:rgb(0,0,255);stroke-width:0.28px;stroke-miterlimit:2;"/>
                </g>
                <g transform="matrix(6.80956e-17,1.36766,-1.36692,5.23334e-16,2054.19,-473.596)">
                    <path d="M394.379,1086.64C394.379,1088.17 393.143,1089.41 391.615,1089.41C390.09,1089.41 388.852,1088.17 388.852,1086.64C388.852,1085.12 390.09,1083.88 391.615,1083.88C393.143,1083.88 394.379,1085.12 394.379,1086.64Z" style="fill:none;stroke:rgb(0,0,255);stroke-width:0.28px;stroke-miterlimit:2;"/>
                </g>
                <g transform="matrix(6.80956e-17,1.36766,-1.36692,5.23334e-16,2425.32,-468.566)">
                    <path d="M390.701,1086.85C390.701,1088.38 389.465,1089.62 387.937,1089.62C386.412,1089.62 385.174,1088.38 385.174,1086.85C385.174,1085.33 386.412,1084.09 387.937,1084.09C389.465,1084.09 390.701,1085.33 390.701,1086.85Z" style="fill:none;stroke:rgb(0,0,255);stroke-width:0.28px;stroke-miterlimit:2;"/>
                </g>
                <g transform="matrix(6.80956e-17,1.36766,-1.36692,5.23334e-16,2739.15,-468.567)">
                    <path d="M390.702,1085.76C390.702,1087.29 389.466,1088.53 387.938,1088.53C386.413,1088.53 385.175,1087.29 385.175,1085.76C385.175,1084.24 386.413,1083 387.938,1083C389.466,1083 390.702,1084.24 390.702,1085.76Z" style="fill:none;stroke:rgb(0,0,255);stroke-width:0.28px;stroke-miterlimit:2;"/>
                </g>
                <g transform="matrix(6.80956e-17,1.36766,-1.36692,5.23334e-16,3221.55,-469.596)">
                    <path d="M391.454,1090.15C391.454,1091.68 390.218,1092.92 388.69,1092.92C387.165,1092.92 385.927,1091.68 385.927,1090.15C385.927,1088.63 387.165,1087.39 388.69,1087.39C390.218,1087.39 391.454,1088.63 391.454,1090.15Z" style="fill:none;stroke:rgb(0,0,255);stroke-width:0.28px;stroke-miterlimit:2;"/>
                </g>
                <g transform="matrix(6.80956e-17,1.36766,-1.36692,5.23334e-16,3221.55,-26.2523)">
                    <path d="M391.454,1090.15C391.454,1091.68 390.218,1092.92 388.69,1092.92C387.165,1092.92 385.927,1091.68 385.927,1090.15C385.927,1088.63 387.165,1087.39 388.69,1087.39C390.218,1087.39 391.454,1088.63 391.454,1090.15Z" style="fill:none;stroke:rgb(0,0,255);stroke-width:0.28px;stroke-miterlimit:2;"/>
                </g>
                <g transform="matrix(6.80956e-17,1.36766,-1.36692,5.23334e-16,2764.42,-26.2523)">
                    <path d="M391.454,1090.15C391.454,1091.68 390.218,1092.92 388.69,1092.92C387.165,1092.92 385.927,1091.68 385.927,1090.15C385.927,1088.63 387.165,1087.39 388.69,1087.39C390.218,1087.39 391.454,1088.63 391.454,1090.15Z" style="fill:none;stroke:rgb(0,0,255);stroke-width:0.28px;stroke-miterlimit:2;"/>
                </g>
                <g transform="matrix(6.80956e-17,1.36766,-1.36692,5.23334e-16,2426.76,-26.2523)">
                    <path d="M391.454,1090.15C391.454,1091.68 390.218,1092.92 388.69,1092.92C387.165,1092.92 385.927,1091.68 385.927,1090.15C385.927,1088.63 387.165,1087.39 388.69,1087.39C390.218,1087.39 391.454,1088.63 391.454,1090.15Z" style="fill:none;stroke:rgb(0,0,255);stroke-width:0.28px;stroke-miterlimit:2;"/>
                </g>
                <g transform="matrix(6.80956e-17,1.36766,-1.36692,5.23334e-16,2054.19,-26.2523)">
                    <path d="M391.454,1090.15C391.454,1091.68 390.218,1092.92 388.69,1092.92C387.165,1092.92 385.927,1091.68 385.927,1090.15C385.927,1088.63 387.165,1087.39 388.69,1087.39C390.218,1087.39 391.454,1088.63 391.454,1090.15Z" style="fill:none;stroke:rgb(0,0,255);stroke-width:0.28px;stroke-miterlimit:2;"/>
                </g>
                <g transform="matrix(6.80956e-17,1.36766,-1.36692,5.23334e-16,1705.59,-26.2523)">
                    <path d="M391.454,1090.15C391.454,1091.68 390.218,1092.92 388.69,1092.92C387.165,1092.92 385.927,1091.68 385.927,1090.15C385.927,1088.63 387.165,1087.39 388.69,1087.39C390.218,1087.39 391.454,1088.63 391.454,1090.15Z" style="fill:none;stroke:rgb(0,0,255);stroke-width:0.28px;stroke-miterlimit:2;"/>
                </g>
            </g>
            <g id="ねじ穴-ミッドフレーム" serif:id="ねじ穴→ミッドフレーム">
                <g transform="matrix(6.80956e-17,1.36766,-1.36692,5.23334e-16,3281.83,-26.2523)">
                    <path d="M391.454,1090.15C391.454,1091.68 390.218,1092.92 388.69,1092.92C387.165,1092.92 385.927,1091.68 385.927,1090.15C385.927,1088.63 387.165,1087.39 388.69,1087.39C390.218,1087.39 391.454,1088.63 391.454,1090.15Z" style="fill:none;stroke:rgb(0,0,255);stroke-width:0.28px;stroke-miterlimit:2;"/>
                </g>
                <g transform="matrix(6.80956e-17,1.36766,-1.36692,5.23334e-16,3281.83,-469.596)">
                    <path d="M391.454,1090.15C391.454,1091.68 390.218,1092.92 388.69,1092.92C387.165,1092.92 385.927,1091.68 385.927,1090.15C385.927,1088.63 387.165,1087.39 388.69,1087.39C390.218,1087.39 391.454,1088.63 391.454,1090.15Z" style="fill:none;stroke:rgb(0,0,255);stroke-width:0.28px;stroke-miterlimit:2;"/>
                </g>
                <g transform="matrix(6.80956e-17,1.36766,-1.36692,5.23334e-16,2500.38,-469.596)">
                    <path d="M391.454,1090.15C391.454,1091.68 390.218,1092.92 388.69,1092.92C387.165,1092.92 385.927,1091.68 385.927,1090.15C385.927,1088.63 387.165,1087.39 388.69,1087.39C390.218,1087.39 391.454,1088.63 391.454,1090.15Z" style="fill:none;stroke:rgb(0,0,255);stroke-width:0.28px;stroke-miterlimit:2;"/>
                </g>
                <g transform="matrix(6.80956e-17,1.36766,-1.36692,5.23334e-16,1645.3,-26.2523)">
                    <path d="M391.454,1090.15C391.454,1091.68 390.218,1092.92 388.69,1092.92C387.165,1092.92 385.927,1091.68 385.927,1090.15C385.927,1088.63 387.165,1087.39 388.69,1087.39C390.218,1087.39 391.454,1088.63 391.454,1090.15Z" style="fill:none;stroke:rgb(0,0,255);stroke-width:0.28px;stroke-miterlimit:2;"/>
                </g>
                <g transform="matrix(6.80956e-17,1.36766,-1.36692,5.23334e-16,1645.3,-469.596)">
                    <path d="M391.454,1090.15C391.454,1091.68 390.218,1092.92 388.69,1092.92C387.165,1092.92 385.927,1091.68 385.927,1090.15C385.927,1088.63 387.165,1087.39 388.69,1087.39C390.218,1087.39 391.454,1088.63 391.454,1090.15Z" style="fill:none;stroke:rgb(0,0,255);stroke-width:0.28px;stroke-miterlimit:2;"/>
                </g>
                <g transform="matrix(6.80956e-17,1.36766,-1.36692,5.23334e-16,2500.38,-26.2523)">
                    <path d="M391.454,1090.15C391.454,1091.68 390.218,1092.92 388.69,1092.92C387.165,1092.92 385.927,1091.68 385.927,1090.15C385.927,1088.63 387.165,1087.39 388.69,1087.39C390.218,1087.39 391.454,1088.63 391.454,1090.15Z" style="fill:none;stroke:rgb(0,0,255);stroke-width:0.28px;stroke-miterlimit:2;"/>
                </g>
            </g>
        </g>
    </g>
</svg>
