G04 #@! TF.GenerationSoftware,KiCad,Pcbnew,(5.1.5-0-10_14)*
G04 #@! TF.CreationDate,2020-04-19T15:43:16+09:00*
G04 #@! TF.ProjectId,colice_left_topFrame,636f6c69-6365-45f6-9c65-66745f746f70,rev?*
G04 #@! TF.SameCoordinates,Original*
G04 #@! TF.FileFunction,Soldermask,Top*
G04 #@! TF.FilePolarity,Negative*
%FSLAX46Y46*%
G04 Gerber Fmt 4.6, Leading zero omitted, Abs format (unit mm)*
G04 Created by KiCad (PCBNEW (5.1.5-0-10_14)) date 2020-04-19 15:43:16*
%MOMM*%
%LPD*%
G04 APERTURE LIST*
%ADD10C,0.100000*%
G04 APERTURE END LIST*
D10*
G36*
X179652441Y-143138471D02*
G01*
X179857359Y-143223351D01*
X179857361Y-143223352D01*
X180041783Y-143346579D01*
X180198621Y-143503417D01*
X180198622Y-143503419D01*
X180321849Y-143687841D01*
X180406729Y-143892759D01*
X180450000Y-144110297D01*
X180450000Y-144332103D01*
X180406729Y-144549641D01*
X180321849Y-144754559D01*
X180321848Y-144754561D01*
X180198621Y-144938983D01*
X180041783Y-145095821D01*
X179857361Y-145219048D01*
X179857360Y-145219049D01*
X179857359Y-145219049D01*
X179652441Y-145303929D01*
X179434903Y-145347200D01*
X179213097Y-145347200D01*
X178995559Y-145303929D01*
X178790641Y-145219049D01*
X178790640Y-145219049D01*
X178790639Y-145219048D01*
X178606217Y-145095821D01*
X178449379Y-144938983D01*
X178326152Y-144754561D01*
X178326151Y-144754559D01*
X178241271Y-144549641D01*
X178198000Y-144332103D01*
X178198000Y-144110297D01*
X178241271Y-143892759D01*
X178326151Y-143687841D01*
X178449378Y-143503419D01*
X178449379Y-143503417D01*
X178606217Y-143346579D01*
X178790639Y-143223352D01*
X178790641Y-143223351D01*
X178995559Y-143138471D01*
X179213097Y-143095200D01*
X179434903Y-143095200D01*
X179652441Y-143138471D01*
G37*
G36*
X172654741Y-143138471D02*
G01*
X172859659Y-143223351D01*
X172859661Y-143223352D01*
X173044083Y-143346579D01*
X173200921Y-143503417D01*
X173200922Y-143503419D01*
X173324149Y-143687841D01*
X173409029Y-143892759D01*
X173452300Y-144110297D01*
X173452300Y-144332103D01*
X173409029Y-144549641D01*
X173324149Y-144754559D01*
X173324148Y-144754561D01*
X173200921Y-144938983D01*
X173044083Y-145095821D01*
X172859661Y-145219048D01*
X172859660Y-145219049D01*
X172859659Y-145219049D01*
X172654741Y-145303929D01*
X172437203Y-145347200D01*
X172215397Y-145347200D01*
X171997859Y-145303929D01*
X171792941Y-145219049D01*
X171792940Y-145219049D01*
X171792939Y-145219048D01*
X171608517Y-145095821D01*
X171451679Y-144938983D01*
X171328452Y-144754561D01*
X171328451Y-144754559D01*
X171243571Y-144549641D01*
X171200300Y-144332103D01*
X171200300Y-144110297D01*
X171243571Y-143892759D01*
X171328451Y-143687841D01*
X171451678Y-143503419D01*
X171451679Y-143503417D01*
X171608517Y-143346579D01*
X171792939Y-143223352D01*
X171792941Y-143223351D01*
X171997859Y-143138471D01*
X172215397Y-143095200D01*
X172437203Y-143095200D01*
X172654741Y-143138471D01*
G37*
G36*
X34974041Y-137753671D02*
G01*
X35178959Y-137838551D01*
X35178961Y-137838552D01*
X35363383Y-137961779D01*
X35520221Y-138118617D01*
X35520222Y-138118619D01*
X35643449Y-138303041D01*
X35728329Y-138507959D01*
X35771600Y-138725497D01*
X35771600Y-138947303D01*
X35728329Y-139164841D01*
X35643449Y-139369759D01*
X35643448Y-139369761D01*
X35520221Y-139554183D01*
X35363383Y-139711021D01*
X35178961Y-139834248D01*
X35178960Y-139834249D01*
X35178959Y-139834249D01*
X34974041Y-139919129D01*
X34756503Y-139962400D01*
X34534697Y-139962400D01*
X34317159Y-139919129D01*
X34112241Y-139834249D01*
X34112240Y-139834249D01*
X34112239Y-139834248D01*
X33927817Y-139711021D01*
X33770979Y-139554183D01*
X33647752Y-139369761D01*
X33647751Y-139369759D01*
X33562871Y-139164841D01*
X33519600Y-138947303D01*
X33519600Y-138725497D01*
X33562871Y-138507959D01*
X33647751Y-138303041D01*
X33770978Y-138118619D01*
X33770979Y-138118617D01*
X33927817Y-137961779D01*
X34112239Y-137838552D01*
X34112241Y-137838551D01*
X34317159Y-137753671D01*
X34534697Y-137710400D01*
X34756503Y-137710400D01*
X34974041Y-137753671D01*
G37*
G36*
X28027141Y-137753671D02*
G01*
X28232059Y-137838551D01*
X28232061Y-137838552D01*
X28416483Y-137961779D01*
X28573321Y-138118617D01*
X28573322Y-138118619D01*
X28696549Y-138303041D01*
X28781429Y-138507959D01*
X28824700Y-138725497D01*
X28824700Y-138947303D01*
X28781429Y-139164841D01*
X28696549Y-139369759D01*
X28696548Y-139369761D01*
X28573321Y-139554183D01*
X28416483Y-139711021D01*
X28232061Y-139834248D01*
X28232060Y-139834249D01*
X28232059Y-139834249D01*
X28027141Y-139919129D01*
X27809603Y-139962400D01*
X27587797Y-139962400D01*
X27370259Y-139919129D01*
X27165341Y-139834249D01*
X27165340Y-139834249D01*
X27165339Y-139834248D01*
X26980917Y-139711021D01*
X26824079Y-139554183D01*
X26700852Y-139369761D01*
X26700851Y-139369759D01*
X26615971Y-139164841D01*
X26572700Y-138947303D01*
X26572700Y-138725497D01*
X26615971Y-138507959D01*
X26700851Y-138303041D01*
X26824078Y-138118619D01*
X26824079Y-138118617D01*
X26980917Y-137961779D01*
X27165339Y-137838552D01*
X27165341Y-137838551D01*
X27370259Y-137753671D01*
X27587797Y-137710400D01*
X27809603Y-137710400D01*
X28027141Y-137753671D01*
G37*
G36*
X174445441Y-110677271D02*
G01*
X174650359Y-110762151D01*
X174650361Y-110762152D01*
X174834783Y-110885379D01*
X174991621Y-111042217D01*
X174991622Y-111042219D01*
X175114849Y-111226641D01*
X175199729Y-111431559D01*
X175243000Y-111649097D01*
X175243000Y-111870903D01*
X175199729Y-112088441D01*
X175114849Y-112293359D01*
X175114848Y-112293361D01*
X174991621Y-112477783D01*
X174834783Y-112634621D01*
X174650361Y-112757848D01*
X174650360Y-112757849D01*
X174650359Y-112757849D01*
X174445441Y-112842729D01*
X174227903Y-112886000D01*
X174006097Y-112886000D01*
X173788559Y-112842729D01*
X173583641Y-112757849D01*
X173583640Y-112757849D01*
X173583639Y-112757848D01*
X173399217Y-112634621D01*
X173242379Y-112477783D01*
X173119152Y-112293361D01*
X173119151Y-112293359D01*
X173034271Y-112088441D01*
X172991000Y-111870903D01*
X172991000Y-111649097D01*
X173034271Y-111431559D01*
X173119151Y-111226641D01*
X173242378Y-111042219D01*
X173242379Y-111042217D01*
X173399217Y-110885379D01*
X173583639Y-110762152D01*
X173583641Y-110762151D01*
X173788559Y-110677271D01*
X174006097Y-110634000D01*
X174227903Y-110634000D01*
X174445441Y-110677271D01*
G37*
G36*
X176286941Y-102295271D02*
G01*
X176491859Y-102380151D01*
X176491861Y-102380152D01*
X176676283Y-102503379D01*
X176833121Y-102660217D01*
X176833122Y-102660219D01*
X176956349Y-102844641D01*
X177041229Y-103049559D01*
X177084500Y-103267097D01*
X177084500Y-103488903D01*
X177041229Y-103706441D01*
X176956349Y-103911359D01*
X176956348Y-103911361D01*
X176833121Y-104095783D01*
X176676283Y-104252621D01*
X176491861Y-104375848D01*
X176491860Y-104375849D01*
X176491859Y-104375849D01*
X176286941Y-104460729D01*
X176069403Y-104504000D01*
X175847597Y-104504000D01*
X175630059Y-104460729D01*
X175425141Y-104375849D01*
X175425140Y-104375849D01*
X175425139Y-104375848D01*
X175240717Y-104252621D01*
X175083879Y-104095783D01*
X174960652Y-103911361D01*
X174960651Y-103911359D01*
X174875771Y-103706441D01*
X174832500Y-103488903D01*
X174832500Y-103267097D01*
X174875771Y-103049559D01*
X174960651Y-102844641D01*
X175083878Y-102660219D01*
X175083879Y-102660217D01*
X175240717Y-102503379D01*
X175425139Y-102380152D01*
X175425141Y-102380151D01*
X175630059Y-102295271D01*
X175847597Y-102252000D01*
X176069403Y-102252000D01*
X176286941Y-102295271D01*
G37*
G36*
X179652441Y-90128671D02*
G01*
X179857359Y-90213551D01*
X179857361Y-90213552D01*
X180041783Y-90336779D01*
X180198621Y-90493617D01*
X180198622Y-90493619D01*
X180321849Y-90678041D01*
X180406729Y-90882959D01*
X180450000Y-91100497D01*
X180450000Y-91322303D01*
X180406729Y-91539841D01*
X180321849Y-91744759D01*
X180321848Y-91744761D01*
X180198621Y-91929183D01*
X180041783Y-92086021D01*
X179857361Y-92209248D01*
X179857360Y-92209249D01*
X179857359Y-92209249D01*
X179652441Y-92294129D01*
X179434903Y-92337400D01*
X179213097Y-92337400D01*
X178995559Y-92294129D01*
X178790641Y-92209249D01*
X178790640Y-92209249D01*
X178790639Y-92209248D01*
X178606217Y-92086021D01*
X178449379Y-91929183D01*
X178326152Y-91744761D01*
X178326151Y-91744759D01*
X178241271Y-91539841D01*
X178198000Y-91322303D01*
X178198000Y-91100497D01*
X178241271Y-90882959D01*
X178326151Y-90678041D01*
X178449378Y-90493619D01*
X178449379Y-90493617D01*
X178606217Y-90336779D01*
X178790639Y-90213552D01*
X178790641Y-90213551D01*
X178995559Y-90128671D01*
X179213097Y-90085400D01*
X179434903Y-90085400D01*
X179652441Y-90128671D01*
G37*
G36*
X179652441Y-27238271D02*
G01*
X179857359Y-27323151D01*
X179857361Y-27323152D01*
X180041783Y-27446379D01*
X180198621Y-27603217D01*
X180198622Y-27603219D01*
X180321849Y-27787641D01*
X180406729Y-27992559D01*
X180450000Y-28210097D01*
X180450000Y-28431903D01*
X180406729Y-28649441D01*
X180321849Y-28854359D01*
X180321848Y-28854361D01*
X180198621Y-29038783D01*
X180041783Y-29195621D01*
X179857361Y-29318848D01*
X179857360Y-29318849D01*
X179857359Y-29318849D01*
X179652441Y-29403729D01*
X179434903Y-29447000D01*
X179213097Y-29447000D01*
X178995559Y-29403729D01*
X178790641Y-29318849D01*
X178790640Y-29318849D01*
X178790639Y-29318848D01*
X178606217Y-29195621D01*
X178449379Y-29038783D01*
X178326152Y-28854361D01*
X178326151Y-28854359D01*
X178241271Y-28649441D01*
X178198000Y-28431903D01*
X178198000Y-28210097D01*
X178241271Y-27992559D01*
X178326151Y-27787641D01*
X178449378Y-27603219D01*
X178449379Y-27603217D01*
X178606217Y-27446379D01*
X178790639Y-27323152D01*
X178790641Y-27323151D01*
X178995559Y-27238271D01*
X179213097Y-27195000D01*
X179434903Y-27195000D01*
X179652441Y-27238271D01*
G37*
G36*
X172654741Y-27238271D02*
G01*
X172859659Y-27323151D01*
X172859661Y-27323152D01*
X173044083Y-27446379D01*
X173200921Y-27603217D01*
X173200922Y-27603219D01*
X173324149Y-27787641D01*
X173409029Y-27992559D01*
X173452300Y-28210097D01*
X173452300Y-28431903D01*
X173409029Y-28649441D01*
X173324149Y-28854359D01*
X173324148Y-28854361D01*
X173200921Y-29038783D01*
X173044083Y-29195621D01*
X172859661Y-29318848D01*
X172859660Y-29318849D01*
X172859659Y-29318849D01*
X172654741Y-29403729D01*
X172437203Y-29447000D01*
X172215397Y-29447000D01*
X171997859Y-29403729D01*
X171792941Y-29318849D01*
X171792940Y-29318849D01*
X171792939Y-29318848D01*
X171608517Y-29195621D01*
X171451679Y-29038783D01*
X171328452Y-28854361D01*
X171328451Y-28854359D01*
X171243571Y-28649441D01*
X171200300Y-28431903D01*
X171200300Y-28210097D01*
X171243571Y-27992559D01*
X171328451Y-27787641D01*
X171451678Y-27603219D01*
X171451679Y-27603217D01*
X171608517Y-27446379D01*
X171792939Y-27323152D01*
X171792941Y-27323151D01*
X171997859Y-27238271D01*
X172215397Y-27195000D01*
X172437203Y-27195000D01*
X172654741Y-27238271D01*
G37*
G36*
X34986741Y-27238271D02*
G01*
X35191659Y-27323151D01*
X35191661Y-27323152D01*
X35376083Y-27446379D01*
X35532921Y-27603217D01*
X35532922Y-27603219D01*
X35656149Y-27787641D01*
X35741029Y-27992559D01*
X35784300Y-28210097D01*
X35784300Y-28431903D01*
X35741029Y-28649441D01*
X35656149Y-28854359D01*
X35656148Y-28854361D01*
X35532921Y-29038783D01*
X35376083Y-29195621D01*
X35191661Y-29318848D01*
X35191660Y-29318849D01*
X35191659Y-29318849D01*
X34986741Y-29403729D01*
X34769203Y-29447000D01*
X34547397Y-29447000D01*
X34329859Y-29403729D01*
X34124941Y-29318849D01*
X34124940Y-29318849D01*
X34124939Y-29318848D01*
X33940517Y-29195621D01*
X33783679Y-29038783D01*
X33660452Y-28854361D01*
X33660451Y-28854359D01*
X33575571Y-28649441D01*
X33532300Y-28431903D01*
X33532300Y-28210097D01*
X33575571Y-27992559D01*
X33660451Y-27787641D01*
X33783678Y-27603219D01*
X33783679Y-27603217D01*
X33940517Y-27446379D01*
X34124939Y-27323152D01*
X34124941Y-27323151D01*
X34329859Y-27238271D01*
X34547397Y-27195000D01*
X34769203Y-27195000D01*
X34986741Y-27238271D01*
G37*
G36*
X28027141Y-27238271D02*
G01*
X28232059Y-27323151D01*
X28232061Y-27323152D01*
X28416483Y-27446379D01*
X28573321Y-27603217D01*
X28573322Y-27603219D01*
X28696549Y-27787641D01*
X28781429Y-27992559D01*
X28824700Y-28210097D01*
X28824700Y-28431903D01*
X28781429Y-28649441D01*
X28696549Y-28854359D01*
X28696548Y-28854361D01*
X28573321Y-29038783D01*
X28416483Y-29195621D01*
X28232061Y-29318848D01*
X28232060Y-29318849D01*
X28232059Y-29318849D01*
X28027141Y-29403729D01*
X27809603Y-29447000D01*
X27587797Y-29447000D01*
X27370259Y-29403729D01*
X27165341Y-29318849D01*
X27165340Y-29318849D01*
X27165339Y-29318848D01*
X26980917Y-29195621D01*
X26824079Y-29038783D01*
X26700852Y-28854361D01*
X26700851Y-28854359D01*
X26615971Y-28649441D01*
X26572700Y-28431903D01*
X26572700Y-28210097D01*
X26615971Y-27992559D01*
X26700851Y-27787641D01*
X26824078Y-27603219D01*
X26824079Y-27603217D01*
X26980917Y-27446379D01*
X27165339Y-27323152D01*
X27165341Y-27323151D01*
X27370259Y-27238271D01*
X27587797Y-27195000D01*
X27809603Y-27195000D01*
X28027141Y-27238271D01*
G37*
M02*
