G04 #@! TF.GenerationSoftware,KiCad,Pcbnew,(5.1.5-0-10_14)*
G04 #@! TF.CreationDate,2020-04-19T15:43:16+09:00*
G04 #@! TF.ProjectId,colice_left_topFrame,636f6c69-6365-45f6-9c65-66745f746f70,rev?*
G04 #@! TF.SameCoordinates,Original*
G04 #@! TF.FileFunction,Legend,Bot*
G04 #@! TF.FilePolarity,Positive*
%FSLAX46Y46*%
G04 Gerber Fmt 4.6, Leading zero omitted, Abs format (unit mm)*
G04 Created by KiCad (PCBNEW (5.1.5-0-10_14)) date 2020-04-19 15:43:16*
%MOMM*%
%LPD*%
G04 APERTURE LIST*
%ADD10C,0.300000*%
G04 APERTURE END LIST*
D10*
X66407085Y-138217871D02*
X65335657Y-138217871D01*
X65978514Y-137575014D02*
X66407085Y-139503585D01*
X65478514Y-138860728D02*
X66549942Y-138860728D01*
X65907085Y-139503585D02*
X65478514Y-137575014D01*
X63978514Y-139075014D02*
X64049942Y-139146442D01*
X64264228Y-139217871D01*
X64407085Y-139217871D01*
X64621371Y-139146442D01*
X64764228Y-139003585D01*
X64835657Y-138860728D01*
X64907085Y-138575014D01*
X64907085Y-138360728D01*
X64835657Y-138075014D01*
X64764228Y-137932157D01*
X64621371Y-137789300D01*
X64407085Y-137717871D01*
X64264228Y-137717871D01*
X64049942Y-137789300D01*
X63978514Y-137860728D01*
X63121371Y-139217871D02*
X63264228Y-139146442D01*
X63335657Y-139075014D01*
X63407085Y-138932157D01*
X63407085Y-138503585D01*
X63335657Y-138360728D01*
X63264228Y-138289300D01*
X63121371Y-138217871D01*
X62907085Y-138217871D01*
X62764228Y-138289300D01*
X62692800Y-138360728D01*
X62621371Y-138503585D01*
X62621371Y-138932157D01*
X62692800Y-139075014D01*
X62764228Y-139146442D01*
X62907085Y-139217871D01*
X63121371Y-139217871D01*
X61764228Y-139217871D02*
X61907085Y-139146442D01*
X61978514Y-139003585D01*
X61978514Y-137717871D01*
X61192800Y-139217871D02*
X61192800Y-138217871D01*
X61192800Y-137717871D02*
X61264228Y-137789300D01*
X61192800Y-137860728D01*
X61121371Y-137789300D01*
X61192800Y-137717871D01*
X61192800Y-137860728D01*
X59835657Y-139146442D02*
X59978514Y-139217871D01*
X60264228Y-139217871D01*
X60407085Y-139146442D01*
X60478514Y-139075014D01*
X60549942Y-138932157D01*
X60549942Y-138503585D01*
X60478514Y-138360728D01*
X60407085Y-138289300D01*
X60264228Y-138217871D01*
X59978514Y-138217871D01*
X59835657Y-138289300D01*
X58621371Y-139146442D02*
X58764228Y-139217871D01*
X59049942Y-139217871D01*
X59192800Y-139146442D01*
X59264228Y-139003585D01*
X59264228Y-138432157D01*
X59192800Y-138289300D01*
X59049942Y-138217871D01*
X58764228Y-138217871D01*
X58621371Y-138289300D01*
X58549942Y-138432157D01*
X58549942Y-138575014D01*
X59264228Y-138717871D01*
X55835657Y-138503585D02*
X55907085Y-138432157D01*
X56049942Y-138360728D01*
X56192800Y-138360728D01*
X56335657Y-138432157D01*
X56407085Y-138503585D01*
X56478514Y-138646442D01*
X56478514Y-138789300D01*
X56407085Y-138932157D01*
X56335657Y-139003585D01*
X56192800Y-139075014D01*
X56049942Y-139075014D01*
X55907085Y-139003585D01*
X55835657Y-138932157D01*
X55835657Y-138360728D02*
X55835657Y-138932157D01*
X55764228Y-139003585D01*
X55692800Y-139003585D01*
X55549942Y-138932157D01*
X55478514Y-138789300D01*
X55478514Y-138432157D01*
X55621371Y-138217871D01*
X55835657Y-138075014D01*
X56121371Y-138003585D01*
X56407085Y-138075014D01*
X56621371Y-138217871D01*
X56764228Y-138432157D01*
X56835657Y-138717871D01*
X56764228Y-139003585D01*
X56621371Y-139217871D01*
X56407085Y-139360728D01*
X56121371Y-139432157D01*
X55835657Y-139360728D01*
X55621371Y-139217871D01*
X54835657Y-138217871D02*
X54835657Y-139503585D01*
X54907085Y-139646442D01*
X55049942Y-139717871D01*
X55121371Y-139717871D01*
X54835657Y-137717871D02*
X54907085Y-137789300D01*
X54835657Y-137860728D01*
X54764228Y-137789300D01*
X54835657Y-137717871D01*
X54835657Y-137860728D01*
X54121371Y-138217871D02*
X54121371Y-139717871D01*
X54121371Y-138289300D02*
X53978514Y-138217871D01*
X53692800Y-138217871D01*
X53549942Y-138289300D01*
X53478514Y-138360728D01*
X53407085Y-138503585D01*
X53407085Y-138932157D01*
X53478514Y-139075014D01*
X53549942Y-139146442D01*
X53692800Y-139217871D01*
X53978514Y-139217871D01*
X54121371Y-139146442D01*
X52835657Y-139146442D02*
X52692800Y-139217871D01*
X52407085Y-139217871D01*
X52264228Y-139146442D01*
X52192800Y-139003585D01*
X52192800Y-138932157D01*
X52264228Y-138789300D01*
X52407085Y-138717871D01*
X52621371Y-138717871D01*
X52764228Y-138646442D01*
X52835657Y-138503585D01*
X52835657Y-138432157D01*
X52764228Y-138289300D01*
X52621371Y-138217871D01*
X52407085Y-138217871D01*
X52264228Y-138289300D01*
X51549942Y-139217871D02*
X51549942Y-137717871D01*
X51407085Y-138646442D02*
X50978514Y-139217871D01*
X50978514Y-138217871D02*
X51549942Y-138789300D01*
X49764228Y-139146442D02*
X49907085Y-139217871D01*
X50192800Y-139217871D01*
X50335657Y-139146442D01*
X50407085Y-139003585D01*
X50407085Y-138432157D01*
X50335657Y-138289300D01*
X50192800Y-138217871D01*
X49907085Y-138217871D01*
X49764228Y-138289300D01*
X49692800Y-138432157D01*
X49692800Y-138575014D01*
X50407085Y-138717871D01*
X49049942Y-138217871D02*
X49049942Y-139217871D01*
X49049942Y-138360728D02*
X48978514Y-138289300D01*
X48835657Y-138217871D01*
X48621371Y-138217871D01*
X48478514Y-138289300D01*
X48407085Y-138432157D01*
X48407085Y-139217871D01*
X47692800Y-138217871D02*
X47692800Y-139217871D01*
X47692800Y-138360728D02*
X47621371Y-138289300D01*
X47478514Y-138217871D01*
X47264228Y-138217871D01*
X47121371Y-138289300D01*
X47049942Y-138432157D01*
X47049942Y-139217871D01*
X66371371Y-141767871D02*
X67085657Y-141767871D01*
X67085657Y-140267871D01*
X65299942Y-141696442D02*
X65442800Y-141767871D01*
X65728514Y-141767871D01*
X65871371Y-141696442D01*
X65942800Y-141553585D01*
X65942800Y-140982157D01*
X65871371Y-140839300D01*
X65728514Y-140767871D01*
X65442800Y-140767871D01*
X65299942Y-140839300D01*
X65228514Y-140982157D01*
X65228514Y-141125014D01*
X65942800Y-141267871D01*
X64799942Y-140767871D02*
X64228514Y-140767871D01*
X64585657Y-141767871D02*
X64585657Y-140482157D01*
X64514228Y-140339300D01*
X64371371Y-140267871D01*
X64228514Y-140267871D01*
X63942800Y-140767871D02*
X63371371Y-140767871D01*
X63728514Y-140267871D02*
X63728514Y-141553585D01*
X63657085Y-141696442D01*
X63514228Y-141767871D01*
X63371371Y-141767871D01*
X61728514Y-141767871D02*
X61728514Y-140267871D01*
X60871371Y-141767871D02*
X61514228Y-140910728D01*
X60871371Y-140267871D02*
X61728514Y-141125014D01*
X59657085Y-141696442D02*
X59799942Y-141767871D01*
X60085657Y-141767871D01*
X60228514Y-141696442D01*
X60299942Y-141553585D01*
X60299942Y-140982157D01*
X60228514Y-140839300D01*
X60085657Y-140767871D01*
X59799942Y-140767871D01*
X59657085Y-140839300D01*
X59585657Y-140982157D01*
X59585657Y-141125014D01*
X60299942Y-141267871D01*
X59085657Y-140767871D02*
X58728514Y-141767871D01*
X58371371Y-140767871D02*
X58728514Y-141767871D01*
X58871371Y-142125014D01*
X58942800Y-142196442D01*
X59085657Y-142267871D01*
X57799942Y-140767871D02*
X57799942Y-142267871D01*
X57799942Y-140839300D02*
X57657085Y-140767871D01*
X57371371Y-140767871D01*
X57228514Y-140839300D01*
X57157085Y-140910728D01*
X57085657Y-141053585D01*
X57085657Y-141482157D01*
X57157085Y-141625014D01*
X57228514Y-141696442D01*
X57371371Y-141767871D01*
X57657085Y-141767871D01*
X57799942Y-141696442D01*
X56228514Y-141767871D02*
X56371371Y-141696442D01*
X56442800Y-141553585D01*
X56442800Y-140267871D01*
X55014228Y-141767871D02*
X55014228Y-140982157D01*
X55085657Y-140839300D01*
X55228514Y-140767871D01*
X55514228Y-140767871D01*
X55657085Y-140839300D01*
X55014228Y-141696442D02*
X55157085Y-141767871D01*
X55514228Y-141767871D01*
X55657085Y-141696442D01*
X55728514Y-141553585D01*
X55728514Y-141410728D01*
X55657085Y-141267871D01*
X55514228Y-141196442D01*
X55157085Y-141196442D01*
X55014228Y-141125014D01*
X54514228Y-140767871D02*
X53942800Y-140767871D01*
X54299942Y-140267871D02*
X54299942Y-141553585D01*
X54228514Y-141696442D01*
X54085657Y-141767871D01*
X53942800Y-141767871D01*
X52871371Y-141696442D02*
X53014228Y-141767871D01*
X53299942Y-141767871D01*
X53442800Y-141696442D01*
X53514228Y-141553585D01*
X53514228Y-140982157D01*
X53442800Y-140839300D01*
X53299942Y-140767871D01*
X53014228Y-140767871D01*
X52871371Y-140839300D01*
X52799942Y-140982157D01*
X52799942Y-141125014D01*
X53514228Y-141267871D01*
X51157085Y-140767871D02*
X50799942Y-141767871D01*
X50442800Y-140767871D01*
X49871371Y-141625014D02*
X49799942Y-141696442D01*
X49871371Y-141767871D01*
X49942800Y-141696442D01*
X49871371Y-141625014D01*
X49871371Y-141767871D01*
X48871371Y-140267871D02*
X48728514Y-140267871D01*
X48585657Y-140339300D01*
X48514228Y-140410728D01*
X48442800Y-140553585D01*
X48371371Y-140839300D01*
X48371371Y-141196442D01*
X48442800Y-141482157D01*
X48514228Y-141625014D01*
X48585657Y-141696442D01*
X48728514Y-141767871D01*
X48871371Y-141767871D01*
X49014228Y-141696442D01*
X49085657Y-141625014D01*
X49157085Y-141482157D01*
X49228514Y-141196442D01*
X49228514Y-140839300D01*
X49157085Y-140553585D01*
X49085657Y-140410728D01*
X49014228Y-140339300D01*
X48871371Y-140267871D01*
X47728514Y-141625014D02*
X47657085Y-141696442D01*
X47728514Y-141767871D01*
X47799942Y-141696442D01*
X47728514Y-141625014D01*
X47728514Y-141767871D01*
X46228514Y-141767871D02*
X47085657Y-141767871D01*
X46657085Y-141767871D02*
X46657085Y-140267871D01*
X46799942Y-140482157D01*
X46942800Y-140625014D01*
X47085657Y-140696442D01*
M02*
