%FSLAX45Y45*%
G04 Gerber Fmt 4.5, Leading zero omitted, Abs format (unit mm)*
G04 Created by KiCad (PCBNEW (5.1.5-0-10_14)) date 2020-04-19 15:43:12*
%MOMM*%
%LPD*%
G04 APERTURE LIST*
%TA.AperFunction,Profile*%
%ADD10C,0.200000*%
%TD*%
%ADD11C,0.200000*%
%ADD12C,0.300000*%
G04 APERTURE END LIST*
D10*
X8262689Y-13170363D02*
X8265676Y-13153333D01*
X8265676Y-13153333D02*
X8272733Y-13140298D01*
X8272733Y-13140298D02*
X8281237Y-13131496D01*
X8262689Y-13576949D02*
X8262689Y-13170363D01*
X8248031Y-13612324D02*
X8256615Y-13600853D01*
X8256615Y-13600853D02*
X8261857Y-13586047D01*
X8261857Y-13586047D02*
X8262689Y-13576949D01*
X11573009Y-14455235D02*
X3180581Y-14455235D01*
X11988856Y-14498944D02*
X11972221Y-14495482D01*
X11972221Y-14495482D02*
X11954758Y-14492007D01*
X11954758Y-14492007D02*
X11937871Y-14488799D01*
X11937871Y-14488799D02*
X11920154Y-14485595D01*
X11920154Y-14485595D02*
X11901907Y-14482466D01*
X11901907Y-14482466D02*
X11884444Y-14479635D01*
X11884444Y-14479635D02*
X11866047Y-14476822D01*
X11866047Y-14476822D02*
X11848437Y-14474294D01*
X11848437Y-14474294D02*
X11830401Y-14471870D01*
X11830401Y-14471870D02*
X11812547Y-14469635D01*
X11812547Y-14469635D02*
X11793863Y-14467469D01*
X11793863Y-14467469D02*
X11775769Y-14465542D01*
X11775769Y-14465542D02*
X11757455Y-14463761D01*
X11757455Y-14463761D02*
X11738513Y-14462097D01*
X11738513Y-14462097D02*
X11719964Y-14460643D01*
X11719964Y-14460643D02*
X11701094Y-14459342D01*
X11701094Y-14459342D02*
X11682211Y-14458219D01*
X11682211Y-14458219D02*
X11662908Y-14457257D01*
X11662908Y-14457257D02*
X11642980Y-14456459D01*
X11642980Y-14456459D02*
X11623349Y-14455868D01*
X11623349Y-14455868D02*
X11603709Y-14455470D01*
X11603709Y-14455470D02*
X11583244Y-14455261D01*
X11583244Y-14455261D02*
X11573009Y-14455235D01*
X15653534Y-15277879D02*
X15636999Y-15274364D01*
X15636999Y-15274364D02*
X15602046Y-15266936D01*
X15602046Y-15266936D02*
X15564897Y-15259040D01*
X15564897Y-15259040D02*
X15525624Y-15250693D01*
X15525624Y-15250693D02*
X15463132Y-15237412D01*
X15463132Y-15237412D02*
X15395781Y-15223097D01*
X15395781Y-15223097D02*
X15348732Y-15213097D01*
X15348732Y-15213097D02*
X15299919Y-15202722D01*
X15299919Y-15202722D02*
X15249414Y-15191988D01*
X15249414Y-15191988D02*
X15197289Y-15180909D01*
X15197289Y-15180909D02*
X15143617Y-15169501D01*
X15143617Y-15169501D02*
X15060534Y-15151842D01*
X15060534Y-15151842D02*
X14974031Y-15133457D01*
X14974031Y-15133457D02*
X14914886Y-15120886D01*
X14914886Y-15120886D02*
X14854554Y-15108062D01*
X14854554Y-15108062D02*
X14793105Y-15095001D01*
X14793105Y-15095001D02*
X14699115Y-15075024D01*
X14699115Y-15075024D02*
X14570386Y-15047663D01*
X14570386Y-15047663D02*
X14438489Y-15019628D01*
X14438489Y-15019628D02*
X14304001Y-14991042D01*
X14304001Y-14991042D02*
X14167496Y-14962028D01*
X14167496Y-14962028D02*
X13960291Y-14917986D01*
X13960291Y-14917986D02*
X13751647Y-14873638D01*
X13751647Y-14873638D02*
X13647504Y-14851502D01*
X13647504Y-14851502D02*
X13578280Y-14836789D01*
X13578280Y-14836789D02*
X13474893Y-14814813D01*
X13474893Y-14814813D02*
X13338389Y-14785799D01*
X13338389Y-14785799D02*
X13137232Y-14743042D01*
X13137232Y-14743042D02*
X12879774Y-14688318D01*
X12879774Y-14688318D02*
X12638444Y-14637021D01*
X12638444Y-14637021D02*
X12417850Y-14590132D01*
X12417850Y-14590132D02*
X12222598Y-14548629D01*
X12222598Y-14548629D02*
X12096607Y-14521848D01*
X12096607Y-14521848D02*
X12022309Y-14506055D01*
X12022309Y-14506055D02*
X11988856Y-14498944D01*
X16069354Y-15321588D02*
X16049295Y-15321487D01*
X16049295Y-15321487D02*
X16028015Y-15321161D01*
X16028015Y-15321161D02*
X16008176Y-15320652D01*
X16008176Y-15320652D02*
X15988756Y-15319964D01*
X15988756Y-15319964D02*
X15969346Y-15319088D01*
X15969346Y-15319088D02*
X15950152Y-15318035D01*
X15950152Y-15318035D02*
X15930972Y-15316798D01*
X15930972Y-15316798D02*
X15912010Y-15315393D01*
X15912010Y-15315393D02*
X15893267Y-15313825D01*
X15893267Y-15313825D02*
X15874540Y-15312082D01*
X15874540Y-15312082D02*
X15855830Y-15310162D01*
X15855830Y-15310162D02*
X15837749Y-15308138D01*
X15837749Y-15308138D02*
X15819280Y-15305897D01*
X15819280Y-15305897D02*
X15801440Y-15303567D01*
X15801440Y-15303567D02*
X15783620Y-15301076D01*
X15783620Y-15301076D02*
X15765822Y-15298425D01*
X15765822Y-15298425D02*
X15748046Y-15295613D01*
X15748046Y-15295613D02*
X15730798Y-15292727D01*
X15730798Y-15292727D02*
X15713372Y-15289653D01*
X15713372Y-15289653D02*
X15695669Y-15286367D01*
X15695669Y-15286367D02*
X15678796Y-15283081D01*
X15678796Y-15283081D02*
X15661948Y-15279649D01*
X15661948Y-15279649D02*
X15653534Y-15277879D01*
X17432228Y-15321588D02*
X16069354Y-15321588D01*
X18139330Y-15028694D02*
X18129239Y-15038642D01*
X18129239Y-15038642D02*
X18118882Y-15048566D01*
X18118882Y-15048566D02*
X18107829Y-15058851D01*
X18107829Y-15058851D02*
X18097214Y-15068440D01*
X18097214Y-15068440D02*
X18086475Y-15077865D01*
X18086475Y-15077865D02*
X18075617Y-15087125D01*
X18075617Y-15087125D02*
X18064639Y-15096219D01*
X18064639Y-15096219D02*
X18053544Y-15105147D01*
X18053544Y-15105147D02*
X18041726Y-15114376D01*
X18041726Y-15114376D02*
X18029782Y-15123417D01*
X18029782Y-15123417D02*
X18018026Y-15132046D01*
X18018026Y-15132046D02*
X18006155Y-15140495D01*
X18006155Y-15140495D02*
X17994171Y-15148764D01*
X17994171Y-15148764D02*
X17981838Y-15157010D01*
X17981838Y-15157010D02*
X17969553Y-15164963D01*
X17969553Y-15164963D02*
X17957242Y-15172682D01*
X17957242Y-15172682D02*
X17943515Y-15180998D01*
X17943515Y-15180998D02*
X17930657Y-15188518D01*
X17930657Y-15188518D02*
X17917694Y-15195843D01*
X17917694Y-15195843D02*
X17904629Y-15202971D01*
X17904629Y-15202971D02*
X17891379Y-15209945D01*
X17891379Y-15209945D02*
X17877006Y-15217227D01*
X17877006Y-15217227D02*
X17863468Y-15223824D01*
X17863468Y-15223824D02*
X17849401Y-15230413D01*
X17849401Y-15230413D02*
X17835497Y-15236667D01*
X17835497Y-15236667D02*
X17821413Y-15242746D01*
X17821413Y-15242746D02*
X17806620Y-15248857D01*
X17806620Y-15248857D02*
X17792086Y-15254594D01*
X17792086Y-15254594D02*
X17776746Y-15260367D01*
X17776746Y-15260367D02*
X17761672Y-15265762D01*
X17761672Y-15265762D02*
X17745424Y-15271276D01*
X17745424Y-15271276D02*
X17730172Y-15276172D01*
X17730172Y-15276172D02*
X17714471Y-15280932D01*
X17714471Y-15280932D02*
X17698321Y-15285537D01*
X17698321Y-15285537D02*
X17682456Y-15289777D01*
X17682456Y-15289777D02*
X17666423Y-15293780D01*
X17666423Y-15293780D02*
X17649756Y-15297645D01*
X17649756Y-15297645D02*
X17632544Y-15301323D01*
X17632544Y-15301323D02*
X17615256Y-15304699D01*
X17615256Y-15304699D02*
X17597896Y-15307773D01*
X17597896Y-15307773D02*
X17580562Y-15310529D01*
X17580562Y-15310529D02*
X17562212Y-15313108D01*
X17562212Y-15313108D02*
X17543890Y-15315337D01*
X17543890Y-15315337D02*
X17525506Y-15317231D01*
X17525506Y-15317231D02*
X17506103Y-15318857D01*
X17506103Y-15318857D02*
X17487124Y-15320081D01*
X17487124Y-15320081D02*
X17467706Y-15320959D01*
X17467706Y-15320959D02*
X17447949Y-15321464D01*
X17447949Y-15321464D02*
X17432228Y-15321588D01*
X18432225Y-14321593D02*
X18432017Y-14341967D01*
X18432017Y-14341967D02*
X18431424Y-14361616D01*
X18431424Y-14361616D02*
X18430389Y-14382178D01*
X18430389Y-14382178D02*
X18429004Y-14401815D01*
X18429004Y-14401815D02*
X18427312Y-14420623D01*
X18427312Y-14420623D02*
X18425222Y-14439751D01*
X18425222Y-14439751D02*
X18422927Y-14457670D01*
X18422927Y-14457670D02*
X18420369Y-14475144D01*
X18420369Y-14475144D02*
X18417539Y-14492363D01*
X18417539Y-14492363D02*
X18413538Y-14514026D01*
X18413538Y-14514026D02*
X18409998Y-14531273D01*
X18409998Y-14531273D02*
X18406331Y-14547697D01*
X18406331Y-14547697D02*
X18402158Y-14564972D01*
X18402158Y-14564972D02*
X18397980Y-14581054D01*
X18397980Y-14581054D02*
X18393590Y-14596872D01*
X18393590Y-14596872D02*
X18388943Y-14612610D01*
X18388943Y-14612610D02*
X18384157Y-14627899D01*
X18384157Y-14627899D02*
X18379006Y-14643467D01*
X18379006Y-14643467D02*
X18373731Y-14658585D01*
X18373731Y-14658585D02*
X18368349Y-14673257D01*
X18368349Y-14673257D02*
X18362600Y-14688197D01*
X18362600Y-14688197D02*
X18356758Y-14702689D01*
X18356758Y-14702689D02*
X18350804Y-14716825D01*
X18350804Y-14716825D02*
X18344594Y-14730956D01*
X18344594Y-14730956D02*
X18337883Y-14745596D01*
X18337883Y-14745596D02*
X18331354Y-14759271D01*
X18331354Y-14759271D02*
X18324359Y-14773359D01*
X18324359Y-14773359D02*
X18317497Y-14786663D01*
X18317497Y-14786663D02*
X18310524Y-14799701D01*
X18310524Y-14799701D02*
X18303311Y-14812721D01*
X18303311Y-14812721D02*
X18295900Y-14825639D01*
X18295900Y-14825639D02*
X18288295Y-14838450D01*
X18288295Y-14838450D02*
X18280090Y-14851803D01*
X18280090Y-14851803D02*
X18272243Y-14864150D01*
X18272243Y-14864150D02*
X18263254Y-14877821D01*
X18263254Y-14877821D02*
X18255071Y-14889856D01*
X18255071Y-14889856D02*
X18246707Y-14901781D01*
X18246707Y-14901781D02*
X18238163Y-14913591D01*
X18238163Y-14913591D02*
X18228279Y-14926817D01*
X18228279Y-14926817D02*
X18219355Y-14938378D01*
X18219355Y-14938378D02*
X18210253Y-14949819D01*
X18210253Y-14949819D02*
X18201160Y-14960915D01*
X18201160Y-14960915D02*
X18191962Y-14971818D01*
X18191962Y-14971818D02*
X18182662Y-14982529D01*
X18182662Y-14982529D02*
X18173135Y-14993191D01*
X18173135Y-14993191D02*
X18163179Y-15004011D01*
X18163179Y-15004011D02*
X18153321Y-15014420D01*
X18153321Y-15014420D02*
X18143300Y-15024700D01*
X18143300Y-15024700D02*
X18139330Y-15028694D01*
X18432225Y-7154177D02*
X18432225Y-14321593D01*
X18382245Y-7104171D02*
X18399319Y-7107165D01*
X18399319Y-7107165D02*
X18412280Y-7114205D01*
X18412280Y-7114205D02*
X18422270Y-7124225D01*
X18422270Y-7124225D02*
X18429282Y-7137233D01*
X18429282Y-7137233D02*
X18432225Y-7154177D01*
X18116523Y-7104171D02*
X18382245Y-7104171D01*
X18067601Y-7143779D02*
X18073150Y-7129267D01*
X18073150Y-7129267D02*
X18082338Y-7117672D01*
X18082338Y-7117672D02*
X18094127Y-7109457D01*
X18094127Y-7109457D02*
X18109370Y-7104681D01*
X18109370Y-7104681D02*
X18116523Y-7104171D01*
X16845618Y-12892762D02*
X16854991Y-12848662D01*
X16854991Y-12848662D02*
X16867074Y-12791815D01*
X16867074Y-12791815D02*
X16887512Y-12695657D01*
X16887512Y-12695657D02*
X16905882Y-12609233D01*
X16905882Y-12609233D02*
X16919345Y-12545892D01*
X16919345Y-12545892D02*
X16941283Y-12442678D01*
X16941283Y-12442678D02*
X16973958Y-12288952D01*
X16973958Y-12288952D02*
X17028917Y-12030390D01*
X17028917Y-12030390D02*
X17112820Y-11635653D01*
X17112820Y-11635653D02*
X17182073Y-11309844D01*
X17182073Y-11309844D02*
X17230341Y-11082758D01*
X17230341Y-11082758D02*
X17280058Y-10848860D01*
X17280058Y-10848860D02*
X17330893Y-10609698D01*
X17330893Y-10609698D02*
X17408487Y-10244644D01*
X17408487Y-10244644D02*
X17486824Y-9876100D01*
X17486824Y-9876100D02*
X17538846Y-9631354D01*
X17538846Y-9631354D02*
X17615920Y-9268754D01*
X17615920Y-9268754D02*
X17714839Y-8803377D01*
X17714839Y-8803377D02*
X17807052Y-8369549D01*
X17807052Y-8369549D02*
X17889929Y-7979648D01*
X17889929Y-7979648D02*
X17960837Y-7646053D01*
X17960837Y-7646053D02*
X18017147Y-7381140D01*
X18017147Y-7381140D02*
X18047616Y-7237798D01*
X18047616Y-7237798D02*
X18062355Y-7168458D01*
X18062355Y-7168458D02*
X18067601Y-7143779D01*
X16852577Y-12930385D02*
X16846332Y-12916453D01*
X16846332Y-12916453D02*
X16844803Y-12897911D01*
X16844803Y-12897911D02*
X16845618Y-12892762D01*
X16884115Y-12952055D02*
X16869579Y-12946488D01*
X16869579Y-12946488D02*
X16858330Y-12937659D01*
X16858330Y-12937659D02*
X16852577Y-12930385D01*
X17272128Y-13034526D02*
X17253822Y-13030634D01*
X17253822Y-13030634D02*
X17209992Y-13021318D01*
X17209992Y-13021318D02*
X17159795Y-13010648D01*
X17159795Y-13010648D02*
X17105778Y-12999166D01*
X17105778Y-12999166D02*
X17050485Y-12987414D01*
X17050485Y-12987414D02*
X17016524Y-12980195D01*
X17016524Y-12980195D02*
X16983596Y-12973197D01*
X16983596Y-12973197D02*
X16958496Y-12967862D01*
X16958496Y-12967862D02*
X16934827Y-12962832D01*
X16934827Y-12962832D02*
X16912908Y-12958173D01*
X16912908Y-12958173D02*
X16893059Y-12953955D01*
X16893059Y-12953955D02*
X16884115Y-12952055D01*
X17310652Y-13093819D02*
X17310860Y-13074014D01*
X17310860Y-13074014D02*
X17305543Y-13059324D01*
X17305543Y-13059324D02*
X17296936Y-13047916D01*
X17296936Y-13047916D02*
X17285363Y-13039354D01*
X17285363Y-13039354D02*
X17272128Y-13034526D01*
X16924994Y-14908123D02*
X16934309Y-14864304D01*
X16934309Y-14864304D02*
X16941999Y-14828127D01*
X16941999Y-14828127D02*
X16950754Y-14786942D01*
X16950754Y-14786942D02*
X16960494Y-14741122D01*
X16960494Y-14741122D02*
X16971141Y-14691036D01*
X16971141Y-14691036D02*
X16982616Y-14637056D01*
X16982616Y-14637056D02*
X16994839Y-14579553D01*
X16994839Y-14579553D02*
X17014337Y-14487827D01*
X17014337Y-14487827D02*
X17042330Y-14356131D01*
X17042330Y-14356131D02*
X17071901Y-14217017D01*
X17071901Y-14217017D02*
X17102417Y-14073454D01*
X17102417Y-14073454D02*
X17148663Y-13855886D01*
X17148663Y-13855886D02*
X17207802Y-13577669D01*
X17207802Y-13577669D02*
X17247109Y-13392748D01*
X17247109Y-13392748D02*
X17270055Y-13284801D01*
X17270055Y-13284801D02*
X17284899Y-13214968D01*
X17284899Y-13214968D02*
X17293651Y-13173792D01*
X17293651Y-13173792D02*
X17301340Y-13137623D01*
X17301340Y-13137623D02*
X17307885Y-13106833D01*
X17307885Y-13106833D02*
X17310652Y-13093819D01*
X16903298Y-14939688D02*
X16914047Y-14930286D01*
X16914047Y-14930286D02*
X16921802Y-14917993D01*
X16921802Y-14917993D02*
X16924994Y-14908123D01*
X16865647Y-14946620D02*
X16885616Y-14946817D01*
X16885616Y-14946817D02*
X16900315Y-14941477D01*
X16900315Y-14941477D02*
X16903298Y-14939688D01*
X8323147Y-13121468D02*
X8351415Y-13127507D01*
X8351415Y-13127507D02*
X8384664Y-13134610D01*
X8384664Y-13134610D02*
X8437194Y-13145833D01*
X8437194Y-13145833D02*
X8482555Y-13155524D01*
X8482555Y-13155524D02*
X8515261Y-13162512D01*
X8515261Y-13162512D02*
X8567943Y-13173767D01*
X8567943Y-13173767D02*
X8645571Y-13190353D01*
X8645571Y-13190353D02*
X8775583Y-13218130D01*
X8775583Y-13218130D02*
X8923925Y-13249824D01*
X8923925Y-13249824D02*
X9030882Y-13272675D01*
X9030882Y-13272675D02*
X9202820Y-13309410D01*
X9202820Y-13309410D02*
X9454524Y-13363188D01*
X9454524Y-13363188D02*
X9728469Y-13421718D01*
X9728469Y-13421718D02*
X10022291Y-13484495D01*
X10022291Y-13484495D02*
X10333626Y-13551013D01*
X10333626Y-13551013D02*
X10826850Y-13656393D01*
X10826850Y-13656393D02*
X11526251Y-13805825D01*
X11526251Y-13805825D02*
X12253176Y-13961137D01*
X12253176Y-13961137D02*
X13356285Y-14196824D01*
X13356285Y-14196824D02*
X14410055Y-14421969D01*
X14410055Y-14421969D02*
X15058038Y-14560415D01*
X15058038Y-14560415D02*
X15498557Y-14654534D01*
X15498557Y-14654534D02*
X15768758Y-14712265D01*
X15768758Y-14712265D02*
X16016303Y-14765154D01*
X16016303Y-14765154D02*
X16238829Y-14812698D01*
X16238829Y-14812698D02*
X16433974Y-14854392D01*
X16433974Y-14854392D02*
X16599373Y-14889730D01*
X16599373Y-14889730D02*
X16732665Y-14918208D01*
X16732665Y-14918208D02*
X16831486Y-14939321D01*
X16831486Y-14939321D02*
X16865647Y-14946620D01*
X8281237Y-13131496D02*
X8293948Y-13124012D01*
X8293948Y-13124012D02*
X8310482Y-13120415D01*
X8310482Y-13120415D02*
X8323147Y-13121468D01*
X3048923Y-13619732D02*
X3090043Y-13619790D01*
X3090043Y-13619790D02*
X3115208Y-13619826D01*
X3115208Y-13619826D02*
X3162917Y-13619893D01*
X3162917Y-13619893D02*
X3229588Y-13619986D01*
X3229588Y-13619986D02*
X3334979Y-13620134D01*
X3334979Y-13620134D02*
X3457089Y-13620306D01*
X3457089Y-13620306D02*
X3594579Y-13620498D01*
X3594579Y-13620498D02*
X3707395Y-13620656D01*
X3707395Y-13620656D02*
X3786422Y-13620767D01*
X3786422Y-13620767D02*
X3910356Y-13620940D01*
X3910356Y-13620940D02*
X4085967Y-13621185D01*
X4085967Y-13621185D02*
X4271611Y-13621445D01*
X4271611Y-13621445D02*
X4565124Y-13621855D01*
X4565124Y-13621855D02*
X4980556Y-13622436D01*
X4980556Y-13622436D02*
X5412046Y-13623039D01*
X5412046Y-13623039D02*
X6067320Y-13623954D01*
X6067320Y-13623954D02*
X6695873Y-13624832D01*
X6695873Y-13624832D02*
X7084607Y-13625375D01*
X7084607Y-13625375D02*
X7350755Y-13625747D01*
X7350755Y-13625747D02*
X7515040Y-13625977D01*
X7515040Y-13625977D02*
X7666623Y-13626189D01*
X7666623Y-13626189D02*
X7804167Y-13626381D01*
X7804167Y-13626381D02*
X7896795Y-13626511D01*
X7896795Y-13626511D02*
X7953784Y-13626591D01*
X7953784Y-13626591D02*
X8006510Y-13626665D01*
X8006510Y-13626665D02*
X8054808Y-13626733D01*
X8054808Y-13626733D02*
X8119189Y-13626823D01*
X8119189Y-13626823D02*
X8171453Y-13626897D01*
X8171453Y-13626897D02*
X8200362Y-13626938D01*
X8200362Y-13626938D02*
X8212630Y-13626955D01*
X2998996Y-13569779D02*
X3002024Y-13586908D01*
X3002024Y-13586908D02*
X3009130Y-13599920D01*
X3009130Y-13599920D02*
X3019211Y-13609903D01*
X3019211Y-13609903D02*
X3032282Y-13616876D01*
X3032282Y-13616876D02*
X3048923Y-13619732D01*
X2997488Y-11190747D02*
X2997507Y-11220882D01*
X2997507Y-11220882D02*
X2997562Y-11307857D01*
X2997562Y-11307857D02*
X2997676Y-11487119D01*
X2997676Y-11487119D02*
X2997823Y-11720799D01*
X2997823Y-11720799D02*
X2997933Y-11894842D01*
X2997933Y-11894842D02*
X2998110Y-12174725D01*
X2998110Y-12174725D02*
X2998294Y-12466198D01*
X2998294Y-12466198D02*
X2998415Y-12658782D01*
X2998415Y-12658782D02*
X2998533Y-12845295D01*
X2998533Y-12845295D02*
X2998645Y-13021453D01*
X2998645Y-13021453D02*
X2998723Y-13143643D01*
X2998723Y-13143643D02*
X2998771Y-13219940D01*
X2998771Y-13219940D02*
X2998817Y-13291240D01*
X2998817Y-13291240D02*
X2998859Y-13357007D01*
X2998859Y-13357007D02*
X2998888Y-13402177D01*
X2998888Y-13402177D02*
X2998906Y-13430409D01*
X2998906Y-13430409D02*
X2998931Y-13469800D01*
X2998931Y-13469800D02*
X2998961Y-13515756D01*
X2998961Y-13515756D02*
X2998980Y-13544963D01*
X2998980Y-13544963D02*
X2998996Y-13569779D01*
X2957880Y-11141852D02*
X2972349Y-11147384D01*
X2972349Y-11147384D02*
X2983619Y-11156219D01*
X2983619Y-11156219D02*
X2991949Y-11167910D01*
X2991949Y-11167910D02*
X2996885Y-11183035D01*
X2996885Y-11183035D02*
X2997488Y-11190747D01*
X2624239Y-11070944D02*
X2650080Y-11076438D01*
X2650080Y-11076438D02*
X2674590Y-11081650D01*
X2674590Y-11081650D02*
X2712135Y-11089632D01*
X2712135Y-11089632D02*
X2734869Y-11094465D01*
X2734869Y-11094465D02*
X2752329Y-11098176D01*
X2752329Y-11098176D02*
X2772943Y-11102558D01*
X2772943Y-11102558D02*
X2799588Y-11108221D01*
X2799588Y-11108221D02*
X2823129Y-11113225D01*
X2823129Y-11113225D02*
X2846256Y-11118140D01*
X2846256Y-11118140D02*
X2868705Y-11122910D01*
X2868705Y-11122910D02*
X2890208Y-11127479D01*
X2890208Y-11127479D02*
X2910502Y-11131790D01*
X2910502Y-11131790D02*
X2929320Y-11135787D01*
X2929320Y-11135787D02*
X2946397Y-11139414D01*
X2946397Y-11139414D02*
X2957880Y-11141852D01*
X2592701Y-11049274D02*
X2602155Y-11060057D01*
X2602155Y-11060057D02*
X2614460Y-11067791D01*
X2614460Y-11067791D02*
X2624239Y-11070944D01*
X2585716Y-11011650D02*
X2585542Y-11031540D01*
X2585542Y-11031540D02*
X2590887Y-11046250D01*
X2590887Y-11046250D02*
X2592701Y-11049274D01*
X2929464Y-7196352D02*
X2918760Y-7205746D01*
X2918760Y-7205746D02*
X2911014Y-7218073D01*
X2911014Y-7218073D02*
X2907821Y-7228023D01*
X2967140Y-7189341D02*
X2947185Y-7189176D01*
X2947185Y-7189176D02*
X2932488Y-7194531D01*
X2932488Y-7194531D02*
X2929464Y-7196352D01*
X3330626Y-7266599D02*
X3303371Y-7260805D01*
X3303371Y-7260805D02*
X3282757Y-7256423D01*
X3282757Y-7256423D02*
X3260570Y-7251707D01*
X3260570Y-7251707D02*
X3225074Y-7244163D01*
X3225074Y-7244163D02*
X3174696Y-7233455D01*
X3174696Y-7233455D02*
X3123169Y-7222504D01*
X3123169Y-7222504D02*
X3072778Y-7211794D01*
X3072778Y-7211794D02*
X3037264Y-7204246D01*
X3037264Y-7204246D02*
X3015062Y-7199527D01*
X3015062Y-7199527D02*
X2989609Y-7194117D01*
X2989609Y-7194117D02*
X2967140Y-7189341D01*
X3389946Y-7228102D02*
X3384417Y-7242585D01*
X3384417Y-7242585D02*
X3375586Y-7253838D01*
X3375586Y-7253838D02*
X3363817Y-7262197D01*
X3363817Y-7262197D02*
X3348719Y-7267109D01*
X3348719Y-7267109D02*
X3330626Y-7266599D01*
X3754358Y-5513626D02*
X3745419Y-5555678D01*
X3745419Y-5555678D02*
X3738085Y-5590185D01*
X3738085Y-5590185D02*
X3729761Y-5629344D01*
X3729761Y-5629344D02*
X3722887Y-5661686D01*
X3722887Y-5661686D02*
X3718052Y-5684433D01*
X3718052Y-5684433D02*
X3710440Y-5720243D01*
X3710440Y-5720243D02*
X3693981Y-5797680D01*
X3693981Y-5797680D02*
X3669643Y-5912187D01*
X3669643Y-5912187D02*
X3643253Y-6036344D01*
X3643253Y-6036344D02*
X3601179Y-6234299D01*
X3601179Y-6234299D02*
X3543125Y-6507429D01*
X3543125Y-6507429D02*
X3487416Y-6769530D01*
X3487416Y-6769530D02*
X3450323Y-6944048D01*
X3450323Y-6944048D02*
X3428621Y-7046148D01*
X3428621Y-7046148D02*
X3414543Y-7112383D01*
X3414543Y-7112383D02*
X3406219Y-7151543D01*
X3406219Y-7151543D02*
X3398885Y-7186050D01*
X3398885Y-7186050D02*
X3392612Y-7215559D01*
X3392612Y-7215559D02*
X3389946Y-7228102D01*
X3715861Y-5454306D02*
X3730353Y-5459839D01*
X3730353Y-5459839D02*
X3741636Y-5468706D01*
X3741636Y-5468706D02*
X3749947Y-5480417D01*
X3749947Y-5480417D02*
X3754868Y-5495533D01*
X3754868Y-5495533D02*
X3754358Y-5513626D01*
X2879563Y-5276559D02*
X2900013Y-5280904D01*
X2900013Y-5280904D02*
X2923405Y-5285874D01*
X2923405Y-5285874D02*
X2949629Y-5291448D01*
X2949629Y-5291448D02*
X2966487Y-5295030D01*
X2966487Y-5295030D02*
X2990319Y-5300095D01*
X2990319Y-5300095D02*
X3015506Y-5305449D01*
X3015506Y-5305449D02*
X3041920Y-5311063D01*
X3041920Y-5311063D02*
X3069432Y-5316910D01*
X3069432Y-5316910D02*
X3097911Y-5322963D01*
X3097911Y-5322963D02*
X3142083Y-5332352D01*
X3142083Y-5332352D02*
X3203302Y-5345364D01*
X3203302Y-5345364D02*
X3266070Y-5358706D01*
X3266070Y-5358706D02*
X3329354Y-5372158D01*
X3329354Y-5372158D02*
X3392122Y-5385500D01*
X3392122Y-5385500D02*
X3453341Y-5398512D01*
X3453341Y-5398512D02*
X3497512Y-5407901D01*
X3497512Y-5407901D02*
X3525992Y-5413954D01*
X3525992Y-5413954D02*
X3553503Y-5419802D01*
X3553503Y-5419802D02*
X3579917Y-5425416D01*
X3579917Y-5425416D02*
X3605105Y-5430769D01*
X3605105Y-5430769D02*
X3628937Y-5435834D01*
X3628937Y-5435834D02*
X3651285Y-5440583D01*
X3651285Y-5440583D02*
X3672019Y-5444990D01*
X3672019Y-5444990D02*
X3695411Y-5449961D01*
X3695411Y-5449961D02*
X3715861Y-5454306D01*
X2841066Y-5217265D02*
X2840856Y-5237070D01*
X2840856Y-5237070D02*
X2846172Y-5251760D01*
X2846172Y-5251760D02*
X2854774Y-5263168D01*
X2854774Y-5263168D02*
X2866407Y-5271765D01*
X2866407Y-5271765D02*
X2879563Y-5276559D01*
X8212630Y-13626955D02*
X8229679Y-13623984D01*
X8229679Y-13623984D02*
X8242674Y-13616969D01*
X8242674Y-13616969D02*
X8248031Y-13612324D01*
X10916364Y-3651961D02*
X10873373Y-3642823D01*
X10873373Y-3642823D02*
X10837977Y-3635300D01*
X10837977Y-3635300D02*
X10797741Y-3626747D01*
X10797741Y-3626747D02*
X10753021Y-3617242D01*
X10753021Y-3617242D02*
X10716635Y-3609508D01*
X10716635Y-3609508D02*
X10691249Y-3604112D01*
X10691249Y-3604112D02*
X10624367Y-3589895D01*
X10624367Y-3589895D02*
X10506238Y-3564785D01*
X10506238Y-3564785D02*
X10410647Y-3544466D01*
X10410647Y-3544466D02*
X10344590Y-3530425D01*
X10344590Y-3530425D02*
X10242724Y-3508772D01*
X10242724Y-3508772D02*
X10103077Y-3479088D01*
X10103077Y-3479088D02*
X9961996Y-3449099D01*
X9961996Y-3449099D02*
X9822350Y-3419415D01*
X9822350Y-3419415D02*
X9620772Y-3376566D01*
X9620772Y-3376566D02*
X9277868Y-3303676D01*
X9277868Y-3303676D02*
X9148729Y-3276226D01*
X10975657Y-3613438D02*
X10970102Y-3627984D01*
X10970102Y-3627984D02*
X10961306Y-3639194D01*
X10961306Y-3639194D02*
X10949544Y-3647557D01*
X10949544Y-3647557D02*
X10934453Y-3652470D01*
X10934453Y-3652470D02*
X10916364Y-3651961D01*
X2180584Y-13455240D02*
X2180584Y-3262044D01*
X2473479Y-14162341D02*
X2463260Y-14151972D01*
X2463260Y-14151972D02*
X2453406Y-14141682D01*
X2453406Y-14141682D02*
X2443583Y-14131125D01*
X2443583Y-14131125D02*
X2433989Y-14120513D01*
X2433989Y-14120513D02*
X2424559Y-14109778D01*
X2424559Y-14109778D02*
X2415295Y-14098923D01*
X2415295Y-14098923D02*
X2406196Y-14087948D01*
X2406196Y-14087948D02*
X2397264Y-14076857D01*
X2397264Y-14076857D02*
X2388265Y-14065346D01*
X2388265Y-14065346D02*
X2379444Y-14053716D01*
X2379444Y-14053716D02*
X2370801Y-14041969D01*
X2370801Y-14041969D02*
X2362117Y-14029793D01*
X2362117Y-14029793D02*
X2353623Y-14017499D01*
X2353623Y-14017499D02*
X2345530Y-14005409D01*
X2345530Y-14005409D02*
X2337517Y-13993048D01*
X2337517Y-13993048D02*
X2328939Y-13979358D01*
X2328939Y-13979358D02*
X2321369Y-13966854D01*
X2321369Y-13966854D02*
X2313844Y-13953999D01*
X2313844Y-13953999D02*
X2306514Y-13941039D01*
X2306514Y-13941039D02*
X2299066Y-13927388D01*
X2299066Y-13927388D02*
X2291964Y-13913882D01*
X2291964Y-13913882D02*
X2284690Y-13899505D01*
X2284690Y-13899505D02*
X2278142Y-13886049D01*
X2278142Y-13886049D02*
X2271719Y-13872326D01*
X2271719Y-13872326D02*
X2265466Y-13858422D01*
X2265466Y-13858422D02*
X2259426Y-13844425D01*
X2259426Y-13844425D02*
X2253208Y-13829366D01*
X2253208Y-13829366D02*
X2247440Y-13814741D01*
X2247440Y-13814741D02*
X2241936Y-13800116D01*
X2241936Y-13800116D02*
X2236535Y-13785044D01*
X2236535Y-13785044D02*
X2231374Y-13769884D01*
X2231374Y-13769884D02*
X2226398Y-13754458D01*
X2226398Y-13754458D02*
X2221698Y-13739038D01*
X2221698Y-13739038D02*
X2217042Y-13722804D01*
X2217042Y-13722804D02*
X2212682Y-13706577D01*
X2212682Y-13706577D02*
X2208503Y-13689899D01*
X2208503Y-13689899D02*
X2204610Y-13673141D01*
X2204610Y-13673141D02*
X2201002Y-13656306D01*
X2201002Y-13656306D02*
X2197578Y-13638833D01*
X2197578Y-13638833D02*
X2194351Y-13620624D01*
X2194351Y-13620624D02*
X2191572Y-13603100D01*
X2191572Y-13603100D02*
X2189064Y-13585224D01*
X2189064Y-13585224D02*
X2186877Y-13567284D01*
X2186877Y-13567284D02*
X2184977Y-13548902D01*
X2184977Y-13548902D02*
X2183415Y-13530462D01*
X2183415Y-13530462D02*
X2182171Y-13511583D01*
X2182171Y-13511583D02*
X2181172Y-13489557D01*
X2181172Y-13489557D02*
X2180684Y-13469410D01*
X2180684Y-13469410D02*
X2180584Y-13455240D01*
X3180581Y-14455235D02*
X3160594Y-14455035D01*
X3160594Y-14455035D02*
X3140847Y-14454446D01*
X3140847Y-14454446D02*
X3121537Y-14453491D01*
X3121537Y-14453491D02*
X3101993Y-14452144D01*
X3101993Y-14452144D02*
X3083467Y-14450511D01*
X3083467Y-14450511D02*
X3063567Y-14448368D01*
X3063567Y-14448368D02*
X3044503Y-14445937D01*
X3044503Y-14445937D02*
X3027029Y-14443379D01*
X3027029Y-14443379D02*
X3009810Y-14440549D01*
X3009810Y-14440549D02*
X2992282Y-14437350D01*
X2992282Y-14437350D02*
X2973145Y-14433487D01*
X2973145Y-14433487D02*
X2956711Y-14429857D01*
X2956711Y-14429857D02*
X2940352Y-14425954D01*
X2940352Y-14425954D02*
X2924070Y-14421778D01*
X2924070Y-14421778D02*
X2908237Y-14417436D01*
X2908237Y-14417436D02*
X2892302Y-14412782D01*
X2892302Y-14412782D02*
X2876452Y-14407866D01*
X2876452Y-14407866D02*
X2861234Y-14402873D01*
X2861234Y-14402873D02*
X2846101Y-14397637D01*
X2846101Y-14397637D02*
X2831325Y-14392261D01*
X2831325Y-14392261D02*
X2816725Y-14386689D01*
X2816725Y-14386689D02*
X2801951Y-14380782D01*
X2801951Y-14380782D02*
X2786135Y-14374153D01*
X2786135Y-14374153D02*
X2771477Y-14367721D01*
X2771477Y-14367721D02*
X2757267Y-14361217D01*
X2757267Y-14361217D02*
X2743244Y-14354532D01*
X2743244Y-14354532D02*
X2729835Y-14347886D01*
X2729835Y-14347886D02*
X2716607Y-14341083D01*
X2716607Y-14341083D02*
X2703142Y-14333899D01*
X2703142Y-14333899D02*
X2690116Y-14326696D01*
X2690116Y-14326696D02*
X2677193Y-14319296D01*
X2677193Y-14319296D02*
X2664213Y-14311602D01*
X2664213Y-14311602D02*
X2651342Y-14303709D01*
X2651342Y-14303709D02*
X2638826Y-14295772D01*
X2638826Y-14295772D02*
X2626262Y-14287541D01*
X2626262Y-14287541D02*
X2614288Y-14279440D01*
X2614288Y-14279440D02*
X2602345Y-14271105D01*
X2602345Y-14271105D02*
X2590438Y-14262534D01*
X2590438Y-14262534D02*
X2578724Y-14253840D01*
X2578724Y-14253840D02*
X2567129Y-14244967D01*
X2567129Y-14244967D02*
X2555653Y-14235917D01*
X2555653Y-14235917D02*
X2544596Y-14226935D01*
X2544596Y-14226935D02*
X2533656Y-14217787D01*
X2533656Y-14217787D02*
X2522764Y-14208410D01*
X2522764Y-14208410D02*
X2512066Y-14198930D01*
X2512066Y-14198930D02*
X2501563Y-14189352D01*
X2501563Y-14189352D02*
X2491114Y-14179547D01*
X2491114Y-14179547D02*
X2480238Y-14169035D01*
X2480238Y-14169035D02*
X2473479Y-14162341D01*
X2966135Y-9221847D02*
X2961847Y-9242026D01*
X2961847Y-9242026D02*
X2956917Y-9265226D01*
X2956917Y-9265226D02*
X2951284Y-9291730D01*
X2951284Y-9291730D02*
X2947218Y-9310865D01*
X2947218Y-9310865D02*
X2941767Y-9336512D01*
X2941767Y-9336512D02*
X2933517Y-9375331D01*
X2933517Y-9375331D02*
X2928482Y-9399022D01*
X2928482Y-9399022D02*
X2920550Y-9436346D01*
X2920550Y-9436346D02*
X2909231Y-9489604D01*
X2909231Y-9489604D02*
X2897175Y-9546326D01*
X2897175Y-9546326D02*
X2884461Y-9606145D01*
X2884461Y-9606145D02*
X2871166Y-9668697D01*
X2871166Y-9668697D02*
X2850352Y-9766627D01*
X2850352Y-9766627D02*
X2821205Y-9903760D01*
X2821205Y-9903760D02*
X2791129Y-10045266D01*
X2791129Y-10045266D02*
X2760742Y-10188231D01*
X2760742Y-10188231D02*
X2730664Y-10329737D01*
X2730664Y-10329737D02*
X2701516Y-10466870D01*
X2701516Y-10466870D02*
X2673917Y-10596714D01*
X2673917Y-10596714D02*
X2654689Y-10687171D01*
X2654689Y-10687171D02*
X2647099Y-10722878D01*
X2647099Y-10722878D02*
X2639754Y-10757435D01*
X2639754Y-10757435D02*
X2625845Y-10822869D01*
X2625845Y-10822869D02*
X2613534Y-10880786D01*
X2613534Y-10880786D02*
X2608963Y-10902290D01*
X2608963Y-10902290D02*
X2602540Y-10932507D01*
X2602540Y-10932507D02*
X2594937Y-10968271D01*
X2594937Y-10968271D02*
X2588458Y-10998749D01*
X2588458Y-10998749D02*
X2585716Y-11011650D01*
X2959176Y-9184223D02*
X2965399Y-9198008D01*
X2965399Y-9198008D02*
X2966975Y-9216543D01*
X2966975Y-9216543D02*
X2966135Y-9221847D01*
X9089409Y-3314749D02*
X9082423Y-3347617D01*
X9082423Y-3347617D02*
X9063509Y-3436606D01*
X9063509Y-3436606D02*
X9040233Y-3546112D01*
X9040233Y-3546112D02*
X9020923Y-3636962D01*
X9020923Y-3636962D02*
X9007650Y-3699409D01*
X9007650Y-3699409D02*
X8994268Y-3762370D01*
X8994268Y-3762370D02*
X8984299Y-3809270D01*
X8984299Y-3809270D02*
X8979367Y-3832472D01*
X8979367Y-3832472D02*
X8968048Y-3885728D01*
X8968048Y-3885728D02*
X8955647Y-3944073D01*
X8955647Y-3944073D02*
X8944010Y-3998829D01*
X8944010Y-3998829D02*
X8935949Y-4036754D01*
X8935949Y-4036754D02*
X8930907Y-4060478D01*
X8930907Y-4060478D02*
X8923896Y-4093467D01*
X8923896Y-4093467D02*
X8917770Y-4122289D01*
X8917770Y-4122289D02*
X8914146Y-4139345D01*
X8914146Y-4139345D02*
X8912508Y-4147050D01*
X9148729Y-3276226D02*
X9128908Y-3276017D01*
X9128908Y-3276017D02*
X9114146Y-3281370D01*
X9114146Y-3281370D02*
X9102748Y-3289994D01*
X9102748Y-3289994D02*
X9094220Y-3301548D01*
X9094220Y-3301548D02*
X9089409Y-3314749D01*
X18433786Y-3190527D02*
X18433746Y-3248734D01*
X18433746Y-3248734D02*
X18433486Y-3630501D01*
X18433486Y-3630501D02*
X18433311Y-3886974D01*
X18433311Y-3886974D02*
X18433186Y-4071973D01*
X18433186Y-4071973D02*
X18433088Y-4215510D01*
X18433088Y-4215510D02*
X18433022Y-4312142D01*
X18433022Y-4312142D02*
X18432924Y-4457270D01*
X18432924Y-4457270D02*
X18432795Y-4647725D01*
X18432795Y-4647725D02*
X18432671Y-4830155D01*
X18432671Y-4830155D02*
X18432585Y-4958231D01*
X18432585Y-4958231D02*
X18432531Y-5038812D01*
X18432531Y-5038812D02*
X18432480Y-5114619D01*
X18432480Y-5114619D02*
X18432432Y-5185036D01*
X18432432Y-5185036D02*
X18432389Y-5249448D01*
X18432389Y-5249448D02*
X18432351Y-5307239D01*
X18432351Y-5307239D02*
X18432317Y-5357795D01*
X18432317Y-5357795D02*
X18432289Y-5400499D01*
X18432289Y-5400499D02*
X18432277Y-5418349D01*
X2927638Y-9162554D02*
X2942116Y-9168086D01*
X2942116Y-9168086D02*
X2953463Y-9176991D01*
X2953463Y-9176991D02*
X2959176Y-9184223D01*
X2569973Y-9086539D02*
X2592101Y-9091239D01*
X2592101Y-9091239D02*
X2611966Y-9095459D01*
X2611966Y-9095459D02*
X2633435Y-9100021D01*
X2633435Y-9100021D02*
X2662072Y-9106105D01*
X2662072Y-9106105D02*
X2686140Y-9111220D01*
X2686140Y-9111220D02*
X2710907Y-9116483D01*
X2710907Y-9116483D02*
X2736093Y-9121835D01*
X2736093Y-9121835D02*
X2761419Y-9127218D01*
X2761419Y-9127218D02*
X2786609Y-9132571D01*
X2786609Y-9132571D02*
X2805223Y-9136527D01*
X2805223Y-9136527D02*
X2835458Y-9142955D01*
X2835458Y-9142955D02*
X2858562Y-9147866D01*
X2858562Y-9147866D02*
X2885597Y-9153614D01*
X2885597Y-9153614D02*
X2905482Y-9157842D01*
X2905482Y-9157842D02*
X2923486Y-9161671D01*
X2923486Y-9161671D02*
X2927638Y-9162554D01*
X2531423Y-9027378D02*
X2531288Y-9047300D01*
X2531288Y-9047300D02*
X2536666Y-9061935D01*
X2536666Y-9061935D02*
X2545320Y-9073299D01*
X2545320Y-9073299D02*
X2556896Y-9081791D01*
X2556896Y-9081791D02*
X2569973Y-9086539D01*
X2907821Y-7228023D02*
X2903577Y-7248304D01*
X2903577Y-7248304D02*
X2899517Y-7267709D01*
X2899517Y-7267709D02*
X2893122Y-7298275D01*
X2893122Y-7298275D02*
X2889097Y-7317514D01*
X2889097Y-7317514D02*
X2882615Y-7348494D01*
X2882615Y-7348494D02*
X2873098Y-7393988D01*
X2873098Y-7393988D02*
X2862698Y-7443699D01*
X2862698Y-7443699D02*
X2851493Y-7497261D01*
X2851493Y-7497261D02*
X2839560Y-7554307D01*
X2839560Y-7554307D02*
X2826974Y-7614470D01*
X2826974Y-7614470D02*
X2813814Y-7677382D01*
X2813814Y-7677382D02*
X2800155Y-7742677D01*
X2800155Y-7742677D02*
X2786074Y-7809989D01*
X2786074Y-7809989D02*
X2771649Y-7878949D01*
X2771649Y-7878949D02*
X2756955Y-7949191D01*
X2756955Y-7949191D02*
X2734590Y-8056110D01*
X2734590Y-8056110D02*
X2704515Y-8199884D01*
X2704515Y-8199884D02*
X2674750Y-8342180D01*
X2674750Y-8342180D02*
X2645908Y-8480063D01*
X2645908Y-8480063D02*
X2618603Y-8610598D01*
X2618603Y-8610598D02*
X2593449Y-8730849D01*
X2593449Y-8730849D02*
X2571061Y-8837880D01*
X2571061Y-8837880D02*
X2543469Y-8969788D01*
X2543469Y-8969788D02*
X2531423Y-9027378D01*
X18432277Y-5418349D02*
X18432277Y-5418349D01*
X18433786Y-3190527D02*
X18433786Y-3190527D01*
X12888840Y-4005736D02*
X12892474Y-3988666D01*
X12892474Y-3988666D02*
X12896158Y-3971347D01*
X12896158Y-3971347D02*
X12900705Y-3949957D01*
X12900705Y-3949957D02*
X12905694Y-3926484D01*
X12905694Y-3926484D02*
X12909332Y-3909368D01*
X12909332Y-3909368D02*
X12912971Y-3892261D01*
X12912971Y-3892261D02*
X12914240Y-3886303D01*
X12927363Y-4065056D02*
X12912850Y-4059518D01*
X12912850Y-4059518D02*
X12901515Y-4050601D01*
X12901515Y-4050601D02*
X12893209Y-4038860D01*
X12893209Y-4038860D02*
X12888309Y-4023696D01*
X12888309Y-4023696D02*
X12888840Y-4005736D01*
X3225190Y-3410052D02*
X3217611Y-3445715D01*
X3217611Y-3445715D02*
X3214059Y-3462426D01*
X3214059Y-3462426D02*
X3210228Y-3480453D01*
X3210228Y-3480453D02*
X3206127Y-3499748D01*
X3206127Y-3499748D02*
X3199523Y-3530825D01*
X3199523Y-3530825D02*
X3189820Y-3576474D01*
X3189820Y-3576474D02*
X3183260Y-3607340D01*
X3183260Y-3607340D02*
X3176408Y-3639579D01*
X3176408Y-3639579D02*
X3167787Y-3680136D01*
X3167787Y-3680136D02*
X3155613Y-3737412D01*
X3155613Y-3737412D02*
X3142773Y-3797824D01*
X3142773Y-3797824D02*
X3129343Y-3861004D01*
X3129343Y-3861004D02*
X3108317Y-3959927D01*
X3108317Y-3959927D02*
X3078869Y-4098467D01*
X3078869Y-4098467D02*
X3048479Y-4241436D01*
X3048479Y-4241436D02*
X3002424Y-4458104D01*
X3002424Y-4458104D02*
X2957939Y-4667391D01*
X2957939Y-4667391D02*
X2940367Y-4750057D01*
X2940367Y-4750057D02*
X2933520Y-4782270D01*
X2933520Y-4782270D02*
X2923483Y-4829493D01*
X2923483Y-4829493D02*
X2910642Y-4889906D01*
X2910642Y-4889906D02*
X2898468Y-4947181D01*
X2898468Y-4947181D02*
X2887039Y-5000950D01*
X2887039Y-5000950D02*
X2876435Y-5050843D01*
X2876435Y-5050843D02*
X2866733Y-5096492D01*
X2866733Y-5096492D02*
X2860128Y-5127569D01*
X2860128Y-5127569D02*
X2856027Y-5146864D01*
X2856027Y-5146864D02*
X2852196Y-5164891D01*
X2852196Y-5164891D02*
X2848644Y-5181603D01*
X2848644Y-5181603D02*
X2843825Y-5204283D01*
X2843825Y-5204283D02*
X2841066Y-5217265D01*
X3284483Y-3371555D02*
X3264677Y-3371346D01*
X3264677Y-3371346D02*
X3249988Y-3376661D01*
X3249988Y-3376661D02*
X3238540Y-3385304D01*
X3238540Y-3385304D02*
X3230018Y-3396829D01*
X3230018Y-3396829D02*
X3225190Y-3410052D01*
X6897593Y-4139536D02*
X6879633Y-4135718D01*
X6879633Y-4135718D02*
X6839509Y-4127189D01*
X6839509Y-4127189D02*
X6817920Y-4122600D01*
X6817920Y-4122600D02*
X6761425Y-4110591D01*
X6761425Y-4110591D02*
X6685225Y-4094394D01*
X6685225Y-4094394D02*
X6598056Y-4075866D01*
X6598056Y-4075866D02*
X6500795Y-4055193D01*
X6500795Y-4055193D02*
X6394321Y-4032561D01*
X6394321Y-4032561D02*
X6279510Y-4008157D01*
X6279510Y-4008157D02*
X6094350Y-3968801D01*
X6094350Y-3968801D02*
X5825240Y-3911601D01*
X5825240Y-3911601D02*
X5391739Y-3819460D01*
X5391739Y-3819460D02*
X4790337Y-3691631D01*
X4790337Y-3691631D02*
X4356836Y-3599490D01*
X4356836Y-3599490D02*
X4186997Y-3563390D01*
X4186997Y-3563390D02*
X4121090Y-3549382D01*
X4121090Y-3549382D02*
X4024836Y-3528922D01*
X4024836Y-3528922D02*
X3902566Y-3502934D01*
X3902566Y-3502934D02*
X3787755Y-3478530D01*
X3787755Y-3478530D02*
X3681280Y-3455898D01*
X3681280Y-3455898D02*
X3584020Y-3435225D01*
X3584020Y-3435225D02*
X3496850Y-3416697D01*
X3496850Y-3416697D02*
X3420650Y-3400500D01*
X3420650Y-3400500D02*
X3371617Y-3390077D01*
X3371617Y-3390077D02*
X3342566Y-3383902D01*
X3342566Y-3383902D02*
X3316752Y-3378415D01*
X3316752Y-3378415D02*
X3297039Y-3374224D01*
X3297039Y-3374224D02*
X3284483Y-3371555D01*
X6956886Y-4101013D02*
X6951348Y-4115525D01*
X6951348Y-4115525D02*
X6942528Y-4126769D01*
X6942528Y-4126769D02*
X6930762Y-4135132D01*
X6930762Y-4135132D02*
X6915671Y-4140045D01*
X6915671Y-4140045D02*
X6897593Y-4139536D01*
X7011285Y-3845160D02*
X7007345Y-3863668D01*
X7007345Y-3863668D02*
X7002990Y-3884134D01*
X7002990Y-3884134D02*
X6997865Y-3908228D01*
X6997865Y-3908228D02*
X6993831Y-3927197D01*
X6993831Y-3927197D02*
X6988758Y-3951059D01*
X6988758Y-3951059D02*
X6982199Y-3981917D01*
X6982199Y-3981917D02*
X6978461Y-3999500D01*
X6978461Y-3999500D02*
X6974774Y-4016847D01*
X6974774Y-4016847D02*
X6971170Y-4033804D01*
X6971170Y-4033804D02*
X6965973Y-4058260D01*
X6965973Y-4058260D02*
X6961191Y-4080758D01*
X6961191Y-4080758D02*
X6956886Y-4101013D01*
X18161819Y-2533989D02*
X18171810Y-2544133D01*
X18171810Y-2544133D02*
X18181938Y-2554740D01*
X18181938Y-2554740D02*
X18191701Y-2565291D01*
X18191701Y-2565291D02*
X18201346Y-2576044D01*
X18201346Y-2576044D02*
X18210985Y-2587136D01*
X18210985Y-2587136D02*
X18220663Y-2598640D01*
X18220663Y-2598640D02*
X18229863Y-2609937D01*
X18229863Y-2609937D02*
X18238765Y-2621223D01*
X18238765Y-2621223D02*
X18247803Y-2633061D01*
X18247803Y-2633061D02*
X18256328Y-2644598D01*
X18256328Y-2644598D02*
X18264973Y-2656692D01*
X18264973Y-2656692D02*
X18273466Y-2668986D01*
X18273466Y-2668986D02*
X18281607Y-2681182D01*
X18281607Y-2681182D02*
X18289691Y-2693722D01*
X18289691Y-2693722D02*
X18297475Y-2706230D01*
X18297475Y-2706230D02*
X18305370Y-2719387D01*
X18305370Y-2719387D02*
X18312867Y-2732357D01*
X18312867Y-2732357D02*
X18320108Y-2745362D01*
X18320108Y-2745362D02*
X18327425Y-2759025D01*
X18327425Y-2759025D02*
X18334431Y-2772645D01*
X18334431Y-2772645D02*
X18341171Y-2786295D01*
X18341171Y-2786295D02*
X18347834Y-2800372D01*
X18347834Y-2800372D02*
X18354115Y-2814233D01*
X18354115Y-2814233D02*
X18360513Y-2829008D01*
X18360513Y-2829008D02*
X18366388Y-2843235D01*
X18366388Y-2843235D02*
X18372091Y-2857723D01*
X18372091Y-2857723D02*
X18377672Y-2872639D01*
X18377672Y-2872639D02*
X18382997Y-2887651D01*
X18382997Y-2887651D02*
X18388065Y-2902756D01*
X18388065Y-2902756D02*
X18392979Y-2918288D01*
X18392979Y-2918288D02*
X18397621Y-2933911D01*
X18397621Y-2933911D02*
X18401991Y-2949620D01*
X18401991Y-2949620D02*
X18406257Y-2966101D01*
X18406257Y-2966101D02*
X18410283Y-2982927D01*
X18410283Y-2982927D02*
X18414161Y-3000621D01*
X18414161Y-3000621D02*
X18417580Y-3017791D01*
X18417580Y-3017791D02*
X18420752Y-3035478D01*
X18420752Y-3035478D02*
X18423663Y-3053771D01*
X18423663Y-3053771D02*
X18426108Y-3071343D01*
X18426108Y-3071343D02*
X18428326Y-3089958D01*
X18428326Y-3089958D02*
X18430130Y-3108196D01*
X18430130Y-3108196D02*
X18431656Y-3127655D01*
X18431656Y-3127655D02*
X18432757Y-3146817D01*
X18432757Y-3146817D02*
X18433486Y-3166933D01*
X18433486Y-3166933D02*
X18433779Y-3187101D01*
X18433779Y-3187101D02*
X18433786Y-3190527D01*
X17505306Y-2262050D02*
X17526022Y-2262280D01*
X17526022Y-2262280D02*
X17545787Y-2262931D01*
X17545787Y-2262931D02*
X17564779Y-2263954D01*
X17564779Y-2263954D02*
X17583714Y-2265363D01*
X17583714Y-2265363D02*
X17602409Y-2267138D01*
X17602409Y-2267138D02*
X17620682Y-2269242D01*
X17620682Y-2269242D02*
X17639239Y-2271756D01*
X17639239Y-2271756D02*
X17656665Y-2274465D01*
X17656665Y-2274465D02*
X17674192Y-2277534D01*
X17674192Y-2277534D02*
X17690944Y-2280793D01*
X17690944Y-2280793D02*
X17707879Y-2284413D01*
X17707879Y-2284413D02*
X17724386Y-2288263D01*
X17724386Y-2288263D02*
X17740379Y-2292297D01*
X17740379Y-2292297D02*
X17756119Y-2296565D01*
X17756119Y-2296565D02*
X17771773Y-2301106D01*
X17771773Y-2301106D02*
X17787676Y-2306027D01*
X17787676Y-2306027D02*
X17803064Y-2311089D01*
X17803064Y-2311089D02*
X17818190Y-2316357D01*
X17818190Y-2316357D02*
X17833303Y-2321914D01*
X17833303Y-2321914D02*
X17847904Y-2327569D01*
X17847904Y-2327569D02*
X17862407Y-2333470D01*
X17862407Y-2333470D02*
X17877051Y-2339720D01*
X17877051Y-2339720D02*
X17890944Y-2345926D01*
X17890944Y-2345926D02*
X17904735Y-2352360D01*
X17904735Y-2352360D02*
X17918422Y-2359021D01*
X17918422Y-2359021D02*
X17932001Y-2365907D01*
X17932001Y-2365907D02*
X17945158Y-2372849D01*
X17945158Y-2372849D02*
X17958517Y-2380176D01*
X17958517Y-2380176D02*
X17971375Y-2387503D01*
X17971375Y-2387503D02*
X17983970Y-2394947D01*
X17983970Y-2394947D02*
X17996680Y-2402733D01*
X17996680Y-2402733D02*
X18008972Y-2410534D01*
X18008972Y-2410534D02*
X18021444Y-2418731D01*
X18021444Y-2418731D02*
X18033500Y-2426931D01*
X18033500Y-2426931D02*
X18045362Y-2435275D01*
X18045362Y-2435275D02*
X18057246Y-2443916D01*
X18057246Y-2443916D02*
X18068932Y-2452699D01*
X18068932Y-2452699D02*
X18080210Y-2461453D01*
X18080210Y-2461453D02*
X18091571Y-2470559D01*
X18091571Y-2470559D02*
X18102664Y-2479736D01*
X18102664Y-2479736D02*
X18113829Y-2489273D01*
X18113829Y-2489273D02*
X18124856Y-2498997D01*
X18124856Y-2498997D02*
X18135479Y-2508664D01*
X18135479Y-2508664D02*
X18145966Y-2518509D01*
X18145966Y-2518509D02*
X18156315Y-2528530D01*
X18156315Y-2528530D02*
X18161819Y-2533989D01*
X3180581Y-2262050D02*
X17505306Y-2262050D01*
X2473479Y-2554944D02*
X2483569Y-2544995D01*
X2483569Y-2544995D02*
X2494207Y-2534805D01*
X2494207Y-2534805D02*
X2504694Y-2525048D01*
X2504694Y-2525048D02*
X2515234Y-2515518D01*
X2515234Y-2515518D02*
X2526041Y-2506024D01*
X2526041Y-2506024D02*
X2536896Y-2496760D01*
X2536896Y-2496760D02*
X2549064Y-2486687D01*
X2549064Y-2486687D02*
X2560168Y-2477773D01*
X2560168Y-2477773D02*
X2572607Y-2468092D01*
X2572607Y-2468092D02*
X2584258Y-2459303D01*
X2584258Y-2459303D02*
X2595949Y-2450749D01*
X2595949Y-2450749D02*
X2607831Y-2442318D01*
X2607831Y-2442318D02*
X2619905Y-2434013D01*
X2619905Y-2434013D02*
X2632010Y-2425944D01*
X2632010Y-2425944D02*
X2644546Y-2417852D01*
X2644546Y-2417852D02*
X2656868Y-2410153D01*
X2656868Y-2410153D02*
X2669622Y-2402443D01*
X2669622Y-2402443D02*
X2682814Y-2394738D01*
X2682814Y-2394738D02*
X2695782Y-2387423D01*
X2695782Y-2387423D02*
X2708852Y-2380306D01*
X2708852Y-2380306D02*
X2722107Y-2373342D01*
X2722107Y-2373342D02*
X2735972Y-2366325D01*
X2735972Y-2366325D02*
X2749426Y-2359772D01*
X2749426Y-2359772D02*
X2763061Y-2353383D01*
X2763061Y-2353383D02*
X2777398Y-2346931D01*
X2777398Y-2346931D02*
X2791746Y-2340743D01*
X2791746Y-2340743D02*
X2806012Y-2334851D01*
X2806012Y-2334851D02*
X2820367Y-2329180D01*
X2820367Y-2329180D02*
X2834988Y-2323665D01*
X2834988Y-2323665D02*
X2850236Y-2318189D01*
X2850236Y-2318189D02*
X2865483Y-2312989D01*
X2865483Y-2312989D02*
X2880634Y-2308092D01*
X2880634Y-2308092D02*
X2896141Y-2303354D01*
X2896141Y-2303354D02*
X2911912Y-2298814D01*
X2911912Y-2298814D02*
X2927764Y-2294532D01*
X2927764Y-2294532D02*
X2944435Y-2290328D01*
X2944435Y-2290328D02*
X2961000Y-2286452D01*
X2961000Y-2286452D02*
X2977639Y-2282854D01*
X2977639Y-2282854D02*
X2994728Y-2279468D01*
X2994728Y-2279468D02*
X3012832Y-2276215D01*
X3012832Y-2276215D02*
X3030064Y-2273438D01*
X3030064Y-2273438D02*
X3047930Y-2270883D01*
X3047930Y-2270883D02*
X3066624Y-2268560D01*
X3066624Y-2268560D02*
X3087494Y-2266389D01*
X3087494Y-2266389D02*
X3106705Y-2264780D01*
X3106705Y-2264780D02*
X3125974Y-2263540D01*
X3125974Y-2263540D02*
X3147811Y-2262586D01*
X3147811Y-2262586D02*
X3168350Y-2262124D01*
X3168350Y-2262124D02*
X3180581Y-2262050D01*
X2180584Y-3262044D02*
X2180850Y-3238957D01*
X2180850Y-3238957D02*
X2181501Y-3219218D01*
X2181501Y-3219218D02*
X2182508Y-3200012D01*
X2182508Y-3200012D02*
X2183929Y-3180284D01*
X2183929Y-3180284D02*
X2185611Y-3161864D01*
X2185611Y-3161864D02*
X2187608Y-3143694D01*
X2187608Y-3143694D02*
X2189882Y-3125967D01*
X2189882Y-3125967D02*
X2192439Y-3108493D01*
X2192439Y-3108493D02*
X2195269Y-3091273D01*
X2195269Y-3091273D02*
X2198540Y-3073370D01*
X2198540Y-3073370D02*
X2201897Y-3056668D01*
X2201897Y-3056668D02*
X2205620Y-3039666D01*
X2205620Y-3039666D02*
X2209590Y-3022929D01*
X2209590Y-3022929D02*
X2213942Y-3005904D01*
X2213942Y-3005904D02*
X2218330Y-2989885D01*
X2218330Y-2989885D02*
X2222871Y-2974314D01*
X2222871Y-2974314D02*
X2227604Y-2959007D01*
X2227604Y-2959007D02*
X2232945Y-2942698D01*
X2232945Y-2942698D02*
X2238181Y-2927565D01*
X2238181Y-2927565D02*
X2243657Y-2912521D01*
X2243657Y-2912521D02*
X2249442Y-2897391D01*
X2249442Y-2897391D02*
X2255217Y-2882975D01*
X2255217Y-2882975D02*
X2261666Y-2867599D01*
X2261666Y-2867599D02*
X2267902Y-2853376D01*
X2267902Y-2853376D02*
X2274279Y-2839422D01*
X2274279Y-2839422D02*
X2280995Y-2825309D01*
X2280995Y-2825309D02*
X2287761Y-2811639D01*
X2287761Y-2811639D02*
X2294735Y-2798071D01*
X2294735Y-2798071D02*
X2301737Y-2784942D01*
X2301737Y-2784942D02*
X2309310Y-2771248D01*
X2309310Y-2771248D02*
X2316907Y-2757998D01*
X2316907Y-2757998D02*
X2324463Y-2745268D01*
X2324463Y-2745268D02*
X2332110Y-2732807D01*
X2332110Y-2732807D02*
X2339890Y-2720532D01*
X2339890Y-2720532D02*
X2347960Y-2708205D01*
X2347960Y-2708205D02*
X2356216Y-2695989D01*
X2356216Y-2695989D02*
X2364547Y-2684044D01*
X2364547Y-2684044D02*
X2373058Y-2672212D01*
X2373058Y-2672212D02*
X2381748Y-2660496D01*
X2381748Y-2660496D02*
X2391324Y-2647986D01*
X2391324Y-2647986D02*
X2400624Y-2636216D01*
X2400624Y-2636216D02*
X2410602Y-2623982D01*
X2410602Y-2623982D02*
X2419781Y-2613065D01*
X2419781Y-2613065D02*
X2429126Y-2602268D01*
X2429126Y-2602268D02*
X2438895Y-2591306D01*
X2438895Y-2591306D02*
X2449893Y-2579342D01*
X2449893Y-2579342D02*
X2459756Y-2568938D01*
X2459756Y-2568938D02*
X2469781Y-2558661D01*
X2469781Y-2558661D02*
X2473479Y-2554944D01*
X12875716Y-3827010D02*
X12839984Y-3819415D01*
X12839984Y-3819415D02*
X12823235Y-3815855D01*
X12823235Y-3815855D02*
X12795807Y-3810026D01*
X12795807Y-3810026D02*
X12754668Y-3801282D01*
X12754668Y-3801282D02*
X12708897Y-3791554D01*
X12708897Y-3791554D02*
X12658865Y-3780919D01*
X12658865Y-3780919D02*
X12577057Y-3763531D01*
X12577057Y-3763531D02*
X12455876Y-3737774D01*
X12455876Y-3737774D02*
X12324321Y-3709811D01*
X12324321Y-3709811D02*
X12114392Y-3665190D01*
X12114392Y-3665190D02*
X11897052Y-3618994D01*
X11897052Y-3618994D02*
X11753640Y-3588511D01*
X11753640Y-3588511D02*
X11614674Y-3558974D01*
X11614674Y-3558974D02*
X11515450Y-3537884D01*
X11515450Y-3537884D02*
X11452080Y-3524415D01*
X11452080Y-3524415D02*
X11391488Y-3511536D01*
X11391488Y-3511536D02*
X11334046Y-3499327D01*
X11334046Y-3499327D02*
X11280123Y-3487866D01*
X11280123Y-3487866D02*
X11230090Y-3477232D01*
X11230090Y-3477232D02*
X11184317Y-3467503D01*
X11184317Y-3467503D02*
X11153160Y-3460881D01*
X11153160Y-3460881D02*
X11133816Y-3456770D01*
X11133816Y-3456770D02*
X11115746Y-3452930D01*
X11115746Y-3452930D02*
X11098996Y-3449370D01*
X11098996Y-3449370D02*
X11076268Y-3444540D01*
X11076268Y-3444540D02*
X11063261Y-3441776D01*
X12914240Y-3886303D02*
X12914448Y-3866498D01*
X12914448Y-3866498D02*
X12909131Y-3851808D01*
X12909131Y-3851808D02*
X12900524Y-3840400D01*
X12900524Y-3840400D02*
X12888951Y-3831838D01*
X12888951Y-3831838D02*
X12875716Y-3827010D01*
X11003968Y-3480273D02*
X10998982Y-3503724D01*
X10998982Y-3503724D02*
X10995392Y-3520613D01*
X10995392Y-3520613D02*
X10990749Y-3542451D01*
X10990749Y-3542451D02*
X10985155Y-3568762D01*
X10985155Y-3568762D02*
X10980642Y-3589986D01*
X10980642Y-3589986D02*
X10976445Y-3609731D01*
X10976445Y-3609731D02*
X10975657Y-3613438D01*
X11063261Y-3441776D02*
X11043456Y-3441563D01*
X11043456Y-3441563D02*
X11028766Y-3446873D01*
X11028766Y-3446873D02*
X11017318Y-3455512D01*
X11017318Y-3455512D02*
X11008796Y-3467040D01*
X11008796Y-3467040D02*
X11003968Y-3480273D01*
X18432277Y-5418349D02*
X18429282Y-5435378D01*
X18429282Y-5435378D02*
X18422233Y-5448387D01*
X18422233Y-5448387D02*
X18413730Y-5457190D01*
X14702486Y-4636160D02*
X14706704Y-4616321D01*
X14706704Y-4616321D02*
X14711271Y-4594838D01*
X14711271Y-4594838D02*
X14715076Y-4576943D01*
X14715076Y-4576943D02*
X14719876Y-4554361D01*
X14719876Y-4554361D02*
X14723655Y-4536589D01*
X14723655Y-4536589D02*
X14727730Y-4517427D01*
X14727730Y-4517427D02*
X14731510Y-4499661D01*
X14709444Y-4673784D02*
X14703169Y-4659753D01*
X14703169Y-4659753D02*
X14701678Y-4641234D01*
X14701678Y-4641234D02*
X14702486Y-4636160D01*
X14692987Y-4440342D02*
X14672995Y-4436093D01*
X14672995Y-4436093D02*
X14641507Y-4429401D01*
X14641507Y-4429401D02*
X14614674Y-4423698D01*
X14614674Y-4423698D02*
X14574480Y-4415155D01*
X14574480Y-4415155D02*
X14529809Y-4405660D01*
X14529809Y-4405660D02*
X14481020Y-4395290D01*
X14481020Y-4395290D02*
X14428470Y-4384121D01*
X14428470Y-4384121D02*
X14372518Y-4372228D01*
X14372518Y-4372228D02*
X14283309Y-4353266D01*
X14283309Y-4353266D02*
X14187832Y-4332972D01*
X14187832Y-4332972D02*
X14121853Y-4318948D01*
X14121853Y-4318948D02*
X14020109Y-4297322D01*
X14020109Y-4297322D02*
X13915679Y-4275124D01*
X13915679Y-4275124D02*
X13845403Y-4260186D01*
X13845403Y-4260186D02*
X13669264Y-4222747D01*
X13669264Y-4222747D02*
X13465060Y-4179342D01*
X13465060Y-4179342D02*
X13337041Y-4152131D01*
X13337041Y-4152131D02*
X13219050Y-4127051D01*
X13219050Y-4127051D02*
X13139330Y-4110107D01*
X13139330Y-4110107D02*
X13090541Y-4099737D01*
X13090541Y-4099737D02*
X13045870Y-4090242D01*
X13045870Y-4090242D02*
X13005676Y-4081699D01*
X13005676Y-4081699D02*
X12978842Y-4075996D01*
X12978842Y-4075996D02*
X12947355Y-4069304D01*
X12947355Y-4069304D02*
X12927363Y-4065056D01*
X14731510Y-4499661D02*
X14731719Y-4479841D01*
X14731719Y-4479841D02*
X14726347Y-4465046D01*
X14726347Y-4465046D02*
X14717688Y-4453627D01*
X14717688Y-4453627D02*
X14706154Y-4445134D01*
X14706154Y-4445134D02*
X14692987Y-4440342D01*
X7070578Y-3806637D02*
X7050762Y-3806428D01*
X7050762Y-3806428D02*
X7036072Y-3811745D01*
X7036072Y-3811745D02*
X7024576Y-3820446D01*
X7024576Y-3820446D02*
X7016075Y-3831993D01*
X7016075Y-3831993D02*
X7011285Y-3845160D01*
X8853188Y-4185547D02*
X8826489Y-4179873D01*
X8826489Y-4179873D02*
X8755203Y-4164721D01*
X8755203Y-4164721D02*
X8665063Y-4145562D01*
X8665063Y-4145562D02*
X8558967Y-4123012D01*
X8558967Y-4123012D02*
X8439819Y-4097687D01*
X8439819Y-4097687D02*
X8343387Y-4077191D01*
X8343387Y-4077191D02*
X8276742Y-4063026D01*
X8276742Y-4063026D02*
X8208465Y-4048513D01*
X8208465Y-4048513D02*
X8138920Y-4033731D01*
X8138920Y-4033731D02*
X8068468Y-4018757D01*
X8068468Y-4018757D02*
X7997472Y-4003666D01*
X7997472Y-4003666D02*
X7890706Y-3980973D01*
X7890706Y-3980973D02*
X7749802Y-3951023D01*
X7749802Y-3951023D02*
X7672514Y-3934595D01*
X7672514Y-3934595D02*
X7655539Y-3930986D01*
X7655539Y-3930986D02*
X7630250Y-3925611D01*
X7630250Y-3925611D02*
X7580379Y-3915010D01*
X7580379Y-3915010D02*
X7515729Y-3901268D01*
X7515729Y-3901268D02*
X7468850Y-3891303D01*
X7468850Y-3891303D02*
X7438360Y-3884822D01*
X7438360Y-3884822D02*
X7393861Y-3875363D01*
X7393861Y-3875363D02*
X7337368Y-3863354D01*
X7337368Y-3863354D02*
X7284321Y-3852078D01*
X7284321Y-3852078D02*
X7235081Y-3841610D01*
X7235081Y-3841610D02*
X7201006Y-3834366D01*
X7201006Y-3834366D02*
X7174440Y-3828719D01*
X7174440Y-3828719D02*
X7149472Y-3823411D01*
X7149472Y-3823411D02*
X7122423Y-3817660D01*
X7122423Y-3817660D02*
X7105893Y-3814145D01*
X7105893Y-3814145D02*
X7076890Y-3807979D01*
X7076890Y-3807979D02*
X7070578Y-3806637D01*
X8912508Y-4147050D02*
X8906979Y-4161544D01*
X8906979Y-4161544D02*
X8898148Y-4172798D01*
X8898148Y-4172798D02*
X8886446Y-4181119D01*
X8886446Y-4181119D02*
X8871337Y-4186051D01*
X8871337Y-4186051D02*
X8853188Y-4185547D01*
X18371873Y-5467244D02*
X18336849Y-5459799D01*
X18336849Y-5459799D02*
X18309310Y-5453944D01*
X18309310Y-5453944D02*
X18278620Y-5447421D01*
X18278620Y-5447421D02*
X18227275Y-5436506D01*
X18227275Y-5436506D02*
X18148289Y-5419717D01*
X18148289Y-5419717D02*
X18058644Y-5400662D01*
X18058644Y-5400662D02*
X17984647Y-5384933D01*
X17984647Y-5384933D02*
X17932638Y-5373878D01*
X17932638Y-5373878D02*
X17794510Y-5344517D01*
X17794510Y-5344517D02*
X17610718Y-5305451D01*
X17610718Y-5305451D02*
X17480714Y-5277818D01*
X17480714Y-5277818D02*
X17276220Y-5234351D01*
X17276220Y-5234351D02*
X16988487Y-5173192D01*
X16988487Y-5173192D02*
X16802993Y-5133765D01*
X16802993Y-5133765D02*
X16728249Y-5117877D01*
X16728249Y-5117877D02*
X16615729Y-5093961D01*
X16615729Y-5093961D02*
X16465456Y-5062020D01*
X16465456Y-5062020D02*
X16315738Y-5030197D01*
X16315738Y-5030197D02*
X16093751Y-4983013D01*
X16093751Y-4983013D02*
X15807998Y-4922275D01*
X15807998Y-4922275D02*
X15605670Y-4879270D01*
X15605670Y-4879270D02*
X15477399Y-4852006D01*
X15477399Y-4852006D02*
X15181989Y-4789216D01*
X15181989Y-4789216D02*
X14952207Y-4740375D01*
X14952207Y-4740375D02*
X14876440Y-4724271D01*
X14876440Y-4724271D02*
X14783494Y-4704515D01*
X14783494Y-4704515D02*
X14740983Y-4695480D01*
X14740983Y-4695480D02*
X14726512Y-4689938D01*
X14726512Y-4689938D02*
X14715250Y-4681124D01*
X14715250Y-4681124D02*
X14709444Y-4673784D01*
X18413730Y-5457190D02*
X18401123Y-5464641D01*
X18401123Y-5464641D02*
X18384682Y-5468272D01*
X18384682Y-5468272D02*
X18371873Y-5467244D01*
D11*
X17125130Y-14314620D02*
X17340130Y-14529620D01*
X17340130Y-14314620D02*
X17125130Y-14529620D01*
X17824900Y-14314620D02*
X18039900Y-14529620D01*
X18039900Y-14314620D02*
X17824900Y-14529620D01*
X2662370Y-13776140D02*
X2877370Y-13991140D01*
X2877370Y-13776140D02*
X2662370Y-13991140D01*
X3358330Y-2724600D02*
X3573330Y-2939600D01*
X3573330Y-2724600D02*
X3358330Y-2939600D01*
X2662370Y-2724600D02*
X2877370Y-2939600D01*
X2877370Y-2724600D02*
X2662370Y-2939600D01*
X17824900Y-9013640D02*
X18039900Y-9228640D01*
X18039900Y-9013640D02*
X17824900Y-9228640D01*
X17488350Y-10230300D02*
X17703350Y-10445300D01*
X17703350Y-10230300D02*
X17488350Y-10445300D01*
X17824900Y-2724600D02*
X18039900Y-2939600D01*
X18039900Y-2724600D02*
X17824900Y-2939600D01*
X17125130Y-2724600D02*
X17340130Y-2939600D01*
X17340130Y-2724600D02*
X17125130Y-2939600D01*
X17304200Y-11068500D02*
X17519200Y-11283500D01*
X17519200Y-11068500D02*
X17304200Y-11283500D01*
X3357060Y-13776140D02*
X3572060Y-13991140D01*
X3572060Y-13776140D02*
X3357060Y-13991140D01*
D12*
X2457013Y-15797302D02*
X2457013Y-15497302D01*
X2528441Y-15497302D01*
X2571298Y-15511588D01*
X2599870Y-15540159D01*
X2614156Y-15568731D01*
X2628441Y-15625874D01*
X2628441Y-15668731D01*
X2614156Y-15725874D01*
X2599870Y-15754445D01*
X2571298Y-15783017D01*
X2528441Y-15797302D01*
X2457013Y-15797302D01*
X2757013Y-15797302D02*
X2757013Y-15597302D01*
X2757013Y-15654445D02*
X2771298Y-15625874D01*
X2785584Y-15611588D01*
X2814156Y-15597302D01*
X2842727Y-15597302D01*
X2942727Y-15797302D02*
X2942727Y-15597302D01*
X2942727Y-15497302D02*
X2928441Y-15511588D01*
X2942727Y-15525874D01*
X2957013Y-15511588D01*
X2942727Y-15497302D01*
X2942727Y-15525874D01*
X3128441Y-15797302D02*
X3099870Y-15783017D01*
X3085584Y-15754445D01*
X3085584Y-15497302D01*
X3285584Y-15797302D02*
X3257013Y-15783017D01*
X3242727Y-15754445D01*
X3242727Y-15497302D01*
X3628441Y-15797302D02*
X3628441Y-15497302D01*
X3728441Y-15711588D01*
X3828441Y-15497302D01*
X3828441Y-15797302D01*
X4099870Y-15797302D02*
X4099870Y-15640159D01*
X4085584Y-15611588D01*
X4057013Y-15597302D01*
X3999870Y-15597302D01*
X3971298Y-15611588D01*
X4099870Y-15783017D02*
X4071298Y-15797302D01*
X3999870Y-15797302D01*
X3971298Y-15783017D01*
X3957013Y-15754445D01*
X3957013Y-15725874D01*
X3971298Y-15697302D01*
X3999870Y-15683017D01*
X4071298Y-15683017D01*
X4099870Y-15668731D01*
X4242727Y-15597302D02*
X4242727Y-15897302D01*
X4242727Y-15611588D02*
X4271298Y-15597302D01*
X4328441Y-15597302D01*
X4357013Y-15611588D01*
X4371298Y-15625874D01*
X4385584Y-15654445D01*
X4385584Y-15740159D01*
X4371298Y-15768731D01*
X4357013Y-15783017D01*
X4328441Y-15797302D01*
X4271298Y-15797302D01*
X4242727Y-15783017D01*
X4514156Y-15768731D02*
X4528441Y-15783017D01*
X4514156Y-15797302D01*
X4499870Y-15783017D01*
X4514156Y-15768731D01*
X4514156Y-15797302D01*
X4514156Y-15611588D02*
X4528441Y-15625874D01*
X4514156Y-15640159D01*
X4499870Y-15625874D01*
X4514156Y-15611588D01*
X4514156Y-15640159D01*
X1955584Y-16184088D02*
X2170584Y-16399088D01*
X2170584Y-16184088D02*
X1955584Y-16399088D01*
X2442727Y-16155874D02*
X2457013Y-16141588D01*
X2485584Y-16127302D01*
X2557013Y-16127302D01*
X2585584Y-16141588D01*
X2599870Y-16155874D01*
X2614156Y-16184445D01*
X2614156Y-16213017D01*
X2599870Y-16255874D01*
X2428441Y-16427302D01*
X2614156Y-16427302D01*
X2742727Y-16398731D02*
X2757013Y-16413017D01*
X2742727Y-16427302D01*
X2728441Y-16413017D01*
X2742727Y-16398731D01*
X2742727Y-16427302D01*
X3042727Y-16427302D02*
X2871298Y-16427302D01*
X2957013Y-16427302D02*
X2957013Y-16127302D01*
X2928441Y-16170159D01*
X2899870Y-16198731D01*
X2871298Y-16213017D01*
X3314156Y-16127302D02*
X3171298Y-16127302D01*
X3157013Y-16270159D01*
X3171298Y-16255874D01*
X3199870Y-16241588D01*
X3271298Y-16241588D01*
X3299870Y-16255874D01*
X3314156Y-16270159D01*
X3328441Y-16298731D01*
X3328441Y-16370159D01*
X3314156Y-16398731D01*
X3299870Y-16413017D01*
X3271298Y-16427302D01*
X3199870Y-16427302D01*
X3171298Y-16413017D01*
X3157013Y-16398731D01*
X3457013Y-16427302D02*
X3457013Y-16227302D01*
X3457013Y-16255874D02*
X3471298Y-16241588D01*
X3499870Y-16227302D01*
X3542727Y-16227302D01*
X3571298Y-16241588D01*
X3585584Y-16270159D01*
X3585584Y-16427302D01*
X3585584Y-16270159D02*
X3599870Y-16241588D01*
X3628441Y-16227302D01*
X3671298Y-16227302D01*
X3699870Y-16241588D01*
X3714156Y-16270159D01*
X3714156Y-16427302D01*
X3857013Y-16427302D02*
X3857013Y-16227302D01*
X3857013Y-16255874D02*
X3871298Y-16241588D01*
X3899870Y-16227302D01*
X3942727Y-16227302D01*
X3971298Y-16241588D01*
X3985584Y-16270159D01*
X3985584Y-16427302D01*
X3985584Y-16270159D02*
X3999870Y-16241588D01*
X4028441Y-16227302D01*
X4071298Y-16227302D01*
X4099870Y-16241588D01*
X4114156Y-16270159D01*
X4114156Y-16427302D01*
X4699870Y-16113017D02*
X4442727Y-16498731D01*
X5085584Y-16127302D02*
X5114156Y-16127302D01*
X5142727Y-16141588D01*
X5157013Y-16155874D01*
X5171298Y-16184445D01*
X5185584Y-16241588D01*
X5185584Y-16313017D01*
X5171298Y-16370159D01*
X5157013Y-16398731D01*
X5142727Y-16413017D01*
X5114156Y-16427302D01*
X5085584Y-16427302D01*
X5057013Y-16413017D01*
X5042727Y-16398731D01*
X5028441Y-16370159D01*
X5014156Y-16313017D01*
X5014156Y-16241588D01*
X5028441Y-16184445D01*
X5042727Y-16155874D01*
X5057013Y-16141588D01*
X5085584Y-16127302D01*
X5314156Y-16398731D02*
X5328441Y-16413017D01*
X5314156Y-16427302D01*
X5299870Y-16413017D01*
X5314156Y-16398731D01*
X5314156Y-16427302D01*
X5514156Y-16127302D02*
X5542727Y-16127302D01*
X5571298Y-16141588D01*
X5585584Y-16155874D01*
X5599870Y-16184445D01*
X5614156Y-16241588D01*
X5614156Y-16313017D01*
X5599870Y-16370159D01*
X5585584Y-16398731D01*
X5571298Y-16413017D01*
X5542727Y-16427302D01*
X5514156Y-16427302D01*
X5485584Y-16413017D01*
X5471298Y-16398731D01*
X5457013Y-16370159D01*
X5442727Y-16313017D01*
X5442727Y-16241588D01*
X5457013Y-16184445D01*
X5471298Y-16155874D01*
X5485584Y-16141588D01*
X5514156Y-16127302D01*
X5785584Y-16255874D02*
X5757013Y-16241588D01*
X5742727Y-16227302D01*
X5728441Y-16198731D01*
X5728441Y-16184445D01*
X5742727Y-16155874D01*
X5757013Y-16141588D01*
X5785584Y-16127302D01*
X5842727Y-16127302D01*
X5871298Y-16141588D01*
X5885584Y-16155874D01*
X5899870Y-16184445D01*
X5899870Y-16198731D01*
X5885584Y-16227302D01*
X5871298Y-16241588D01*
X5842727Y-16255874D01*
X5785584Y-16255874D01*
X5757013Y-16270159D01*
X5742727Y-16284445D01*
X5728441Y-16313017D01*
X5728441Y-16370159D01*
X5742727Y-16398731D01*
X5757013Y-16413017D01*
X5785584Y-16427302D01*
X5842727Y-16427302D01*
X5871298Y-16413017D01*
X5885584Y-16398731D01*
X5899870Y-16370159D01*
X5899870Y-16313017D01*
X5885584Y-16284445D01*
X5871298Y-16270159D01*
X5842727Y-16255874D01*
X6171298Y-16127302D02*
X6028441Y-16127302D01*
X6014156Y-16270159D01*
X6028441Y-16255874D01*
X6057013Y-16241588D01*
X6128441Y-16241588D01*
X6157013Y-16255874D01*
X6171298Y-16270159D01*
X6185584Y-16298731D01*
X6185584Y-16370159D01*
X6171298Y-16398731D01*
X6157013Y-16413017D01*
X6128441Y-16427302D01*
X6057013Y-16427302D01*
X6028441Y-16413017D01*
X6014156Y-16398731D01*
X6299870Y-16127302D02*
X6299870Y-16184445D01*
X6414156Y-16127302D02*
X6414156Y-16184445D01*
X6857013Y-16541588D02*
X6842727Y-16527302D01*
X6814156Y-16484445D01*
X6799870Y-16455874D01*
X6785584Y-16413017D01*
X6771298Y-16341588D01*
X6771298Y-16284445D01*
X6785584Y-16213017D01*
X6799870Y-16170159D01*
X6814156Y-16141588D01*
X6842727Y-16098731D01*
X6857013Y-16084445D01*
X7128441Y-16427302D02*
X6957013Y-16427302D01*
X7042727Y-16427302D02*
X7042727Y-16127302D01*
X7014156Y-16170159D01*
X6985584Y-16198731D01*
X6957013Y-16213017D01*
X7414156Y-16427302D02*
X7242727Y-16427302D01*
X7328441Y-16427302D02*
X7328441Y-16127302D01*
X7299870Y-16170159D01*
X7271298Y-16198731D01*
X7242727Y-16213017D01*
X7771298Y-16427302D02*
X7771298Y-16127302D01*
X7899870Y-16427302D02*
X7899870Y-16270159D01*
X7885584Y-16241588D01*
X7857013Y-16227302D01*
X7814156Y-16227302D01*
X7785584Y-16241588D01*
X7771298Y-16255874D01*
X8085584Y-16427302D02*
X8057013Y-16413017D01*
X8042727Y-16398731D01*
X8028441Y-16370159D01*
X8028441Y-16284445D01*
X8042727Y-16255874D01*
X8057013Y-16241588D01*
X8085584Y-16227302D01*
X8128441Y-16227302D01*
X8157013Y-16241588D01*
X8171298Y-16255874D01*
X8185584Y-16284445D01*
X8185584Y-16370159D01*
X8171298Y-16398731D01*
X8157013Y-16413017D01*
X8128441Y-16427302D01*
X8085584Y-16427302D01*
X8357013Y-16427302D02*
X8328441Y-16413017D01*
X8314156Y-16384445D01*
X8314156Y-16127302D01*
X8585584Y-16413017D02*
X8557013Y-16427302D01*
X8499870Y-16427302D01*
X8471298Y-16413017D01*
X8457013Y-16384445D01*
X8457013Y-16270159D01*
X8471298Y-16241588D01*
X8499870Y-16227302D01*
X8557013Y-16227302D01*
X8585584Y-16241588D01*
X8599870Y-16270159D01*
X8599870Y-16298731D01*
X8457013Y-16327302D01*
X8714156Y-16413017D02*
X8742727Y-16427302D01*
X8799870Y-16427302D01*
X8828441Y-16413017D01*
X8842727Y-16384445D01*
X8842727Y-16370159D01*
X8828441Y-16341588D01*
X8799870Y-16327302D01*
X8757013Y-16327302D01*
X8728441Y-16313017D01*
X8714156Y-16284445D01*
X8714156Y-16270159D01*
X8728441Y-16241588D01*
X8757013Y-16227302D01*
X8799870Y-16227302D01*
X8828441Y-16241588D01*
X8942727Y-16541588D02*
X8957013Y-16527302D01*
X8985584Y-16484445D01*
X8999870Y-16455874D01*
X9014156Y-16413017D01*
X9028441Y-16341588D01*
X9028441Y-16284445D01*
X9014156Y-16213017D01*
X8999870Y-16170159D01*
X8985584Y-16141588D01*
X8957013Y-16098731D01*
X8942727Y-16084445D01*
X9485584Y-16541588D02*
X9471298Y-16527302D01*
X9442727Y-16484445D01*
X9428441Y-16455874D01*
X9414156Y-16413017D01*
X9399870Y-16341588D01*
X9399870Y-16284445D01*
X9414156Y-16213017D01*
X9428441Y-16170159D01*
X9442727Y-16141588D01*
X9471298Y-16098731D01*
X9485584Y-16084445D01*
X9599870Y-16227302D02*
X9599870Y-16427302D01*
X9599870Y-16255874D02*
X9614156Y-16241588D01*
X9642727Y-16227302D01*
X9685584Y-16227302D01*
X9714156Y-16241588D01*
X9728441Y-16270159D01*
X9728441Y-16427302D01*
X9914156Y-16427302D02*
X9885584Y-16413017D01*
X9871298Y-16398731D01*
X9857013Y-16370159D01*
X9857013Y-16284445D01*
X9871298Y-16255874D01*
X9885584Y-16241588D01*
X9914156Y-16227302D01*
X9957013Y-16227302D01*
X9985584Y-16241588D01*
X9999870Y-16255874D01*
X10014156Y-16284445D01*
X10014156Y-16370159D01*
X9999870Y-16398731D01*
X9985584Y-16413017D01*
X9957013Y-16427302D01*
X9914156Y-16427302D01*
X10099870Y-16227302D02*
X10214156Y-16227302D01*
X10142727Y-16127302D02*
X10142727Y-16384445D01*
X10157013Y-16413017D01*
X10185584Y-16427302D01*
X10214156Y-16427302D01*
X10542727Y-16227302D02*
X10542727Y-16527302D01*
X10542727Y-16241588D02*
X10571298Y-16227302D01*
X10628441Y-16227302D01*
X10657013Y-16241588D01*
X10671298Y-16255874D01*
X10685584Y-16284445D01*
X10685584Y-16370159D01*
X10671298Y-16398731D01*
X10657013Y-16413017D01*
X10628441Y-16427302D01*
X10571298Y-16427302D01*
X10542727Y-16413017D01*
X10857013Y-16427302D02*
X10828441Y-16413017D01*
X10814156Y-16384445D01*
X10814156Y-16127302D01*
X11099870Y-16427302D02*
X11099870Y-16270159D01*
X11085584Y-16241588D01*
X11057013Y-16227302D01*
X10999870Y-16227302D01*
X10971298Y-16241588D01*
X11099870Y-16413017D02*
X11071298Y-16427302D01*
X10999870Y-16427302D01*
X10971298Y-16413017D01*
X10957013Y-16384445D01*
X10957013Y-16355874D01*
X10971298Y-16327302D01*
X10999870Y-16313017D01*
X11071298Y-16313017D01*
X11099870Y-16298731D01*
X11199870Y-16227302D02*
X11314156Y-16227302D01*
X11242727Y-16127302D02*
X11242727Y-16384445D01*
X11257013Y-16413017D01*
X11285584Y-16427302D01*
X11314156Y-16427302D01*
X11528441Y-16413017D02*
X11499870Y-16427302D01*
X11442727Y-16427302D01*
X11414156Y-16413017D01*
X11399870Y-16384445D01*
X11399870Y-16270159D01*
X11414156Y-16241588D01*
X11442727Y-16227302D01*
X11499870Y-16227302D01*
X11528441Y-16241588D01*
X11542727Y-16270159D01*
X11542727Y-16298731D01*
X11399870Y-16327302D01*
X11799870Y-16427302D02*
X11799870Y-16127302D01*
X11799870Y-16413017D02*
X11771298Y-16427302D01*
X11714156Y-16427302D01*
X11685584Y-16413017D01*
X11671298Y-16398731D01*
X11657013Y-16370159D01*
X11657013Y-16284445D01*
X11671298Y-16255874D01*
X11685584Y-16241588D01*
X11714156Y-16227302D01*
X11771298Y-16227302D01*
X11799870Y-16241588D01*
X11914156Y-16541588D02*
X11928441Y-16527302D01*
X11957013Y-16484445D01*
X11971298Y-16455874D01*
X11985584Y-16413017D01*
X11999870Y-16341588D01*
X11999870Y-16284445D01*
X11985584Y-16213017D01*
X11971298Y-16170159D01*
X11957013Y-16141588D01*
X11928441Y-16098731D01*
X11914156Y-16084445D01*
M02*
